# vtk DataFile Version 3.0
Brusselator Concentration Output
ASCII
DATASET STRUCTURED_POINTS
DIMENSIONS 40 40 1
ORIGIN 0.0 0.0 0.0
SPACING 0.005 0.005 1.0
POINT_DATA 1600
SCALARS C1 double 1
LOOKUP_TABLE default
0.98245
0.976533
0.966959
0.95733
0.951222
0.951001
0.957119
0.967952
0.980178
0.989764
0.993388
0.989763
0.980171
0.967916
0.95701
0.950752
0.95078
0.95678
0.966785
0.977973
0.987748
0.994635
0.998514
1.00016
1.00056
1.00046
1.00026
1.00012
1.00004
1.00001
1
0.999999
0.999999
1
1
1
1
1
1
1
0.976533
0.972221
0.966309
0.962965
0.966119
0.978079
0.998643
1.02468
1.05054
1.06959
1.0766
1.06959
1.05052
1.02463
0.998502
0.9778
0.965709
0.962661
0.966866
0.975218
0.9844
0.991955
0.996862
0.999352
1.00026
1.00039
1.00027
1.00014
1.00006
1.00002
1
0.999999
0.999999
0.999999
1
1
1
1
1
1
0.966959
0.966309
0.968412
0.978539
1.00172
1.04073
1.09401
1.15404
1.20872
1.2463
1.25956
1.24629
1.20868
1.15394
1.0938
1.04039
1.0014
0.978772
0.97043
0.9722
0.979252
0.987348
0.993807
0.997762
0.999616
1.00022
1.00027
1.00017
1.00008
1.00003
1.00001
1
0.999999
0.999999
1
1
1
1
1
1
0.95733
0.962965
0.978539
1.01125
1.06866
1.15426
1.26009
1.3639
1.44222
1.48641
1.50009
1.4864
1.44216
1.36375
1.2598
1.15388
1.06857
1.0124
0.982742
0.972713
0.974756
0.982112
0.989861
0.995495
0.998604
0.999888
1.00022
1.0002
1.00011
1.00005
1.00001
1
1
1
1
1
1
1
1
1
0.951222
0.966119
1.00172
1.06866
1.17779
1.32497
1.47171
1.56777
1.60454
1.60929
1.60782
1.60926
1.60448
1.56763
1.47144
1.32471
1.1782
1.07125
1.00881
0.98024
0.973306
0.977697
0.985725
0.992793
0.997254
0.999379
1.0001
1.0002
1.00014
1.00006
1.00002
1.00001
1
1
1
1
1
1
1
1
0.951001
0.978079
1.04073
1.15426
1.32497
1.5071
1.60987
1.61353
1.57226
1.53324
1.51831
1.53322
1.57222
1.61346
1.60983
1.50729
1.32633
1.15887
1.0513
0.99662
0.976373
0.975226
0.982112
0.990008
0.995689
0.998711
0.999896
1.00018
1.00016
1.00008
1.00003
1.00001
1
1
1
1
1
1
1
1
0.957119
0.998643
1.09401
1.26009
1.47171
1.60987
1.60459
1.52415
1.43986
1.3829
1.36322
1.38289
1.43984
1.52416
1.60481
1.61075
1.47437
1.26716
1.10834
1.02119
0.983988
0.975128
0.979515
0.987496
0.994099
0.997959
0.999635
1.00013
1.00017
1.0001
1.00004
1.00001
1
1
1
1
1
1
1
1
0.967952
1.02468
1.15404
1.3639
1.56777
1.61353
1.52415
1.40411
1.30584
1.24502
1.22468
1.24501
1.30582
1.40417
1.52454
1.61493
1.57162
1.37325
1.17185
1.05042
0.99464
0.977004
0.978059
0.98551
0.992679
0.997226
0.999353
1.00006
1.00016
1.00011
1.00005
1.00002
1
1
1
1
1
1
1
1
0.980178
1.05054
1.20872
1.44222
1.60454
1.57226
1.43986
1.30584
1.20521
1.14514
1.12534
1.14513
1.2052
1.30591
1.44034
1.57396
1.6091
1.45309
1.22911
1.07841
1.00563
0.9798
0.977511
0.984148
0.991581
0.996618
0.999102
0.999984
1.00016
1.00011
1.00005
1.00002
1
1
0.999999
0.999999
1
1
1
1
0.989764
1.06959
1.2463
1.48641
1.60929
1.53324
1.3829
1.24502
1.14514
1.08648
1.06726
1.08647
1.14514
1.24511
1.38341
1.53506
1.61417
1.49799
1.26814
1.09859
1.01388
0.9822
0.977446
0.98338
0.990895
0.996216
0.998927
0.999927
1.00014
1.00011
1.00005
1.00001
0.999999
0.999995
0.999995
0.999997
0.999998
1
1
1
0.993388
1.0766
1.25956
1.50009
1.60782
1.51831
1.36322
1.22468
1.12534
1.06726
1.04827
1.06725
1.12533
1.22477
1.36374
1.52016
1.61279
1.51184
1.28184
1.10593
1.01693
0.983136
0.977474
0.983133
0.990658
0.996069
0.998855
0.999895
1.00013
1.0001
1.00004
1
0.999985
0.999983
0.999985
0.999989
0.999992
0.999996
0.999998
0.999999
0.989763
1.06959
1.24629
1.4864
1.60926
1.53322
1.38289
1.24501
1.14513
1.08647
1.06725
1.08646
1.14513
1.2451
1.3834
1.53504
1.61415
1.49797
1.26813
1.09858
1.01387
0.982195
0.977437
0.983366
0.990873
0.996188
0.998892
0.999888
1.0001
1.00007
1.00001
0.999971
0.999957
0.999956
0.999961
0.999968
0.999976
0.999984
0.99999
0.999993
0.980171
1.05052
1.20868
1.44216
1.60448
1.57222
1.43984
1.30582
1.2052
1.14514
1.12533
1.14513
1.20519
1.3059
1.44031
1.57391
1.60904
1.45303
1.22908
1.07839
1.00562
0.97978
0.977482
0.984107
0.991526
0.996551
0.999027
0.999905
1.00007
1.00003
0.999974
0.999938
0.999924
0.999921
0.999924
0.999932
0.999944
0.999956
0.999967
0.999973
0.967916
1.02463
1.15394
1.36375
1.56763
1.61346
1.52416
1.40417
1.30591
1.24511
1.22477
1.2451
1.3059
1.40422
1.52455
1.61487
1.57147
1.3731
1.17174
1.05035
0.994586
0.976948
0.977989
0.985425
0.992581
0.997125
0.999259
0.999978
1.0001
1.00006
1.00001
0.999972
0.999944
0.999922
0.999905
0.999897
0.999899
0.999908
0.99992
0.999927
0.95701
0.998502
1.0938
1.2598
1.47144
1.60983
1.60481
1.52454
1.44034
1.38341
1.36374
1.3834
1.44031
1.52455
1.60504
1.61071
1.4741
1.26686
1.10812
1.02103
0.983852
0.974998
0.979383
0.987368
0.993996
0.997908
0.999662
1.00024
1.00037
1.00036
1.00032
1.00027
1.0002
1.00012
1.00003
0.999946
0.99989
0.999859
0.999847
0.999845
0.950752
0.9778
1.04039
1.15388
1.32471
1.50729
1.61075
1.61493
1.57396
1.53506
1.52016
1.53504
1.57391
1.61487
1.61071
1.50747
1.32605
1.15848
1.05094
0.996307
0.976099
0.97499
0.981932
0.989928
0.995772
0.99902
1.00047
1.00103
1.00125
1.00133
1.00134
1.00126
1.00109
1.00085
1.00057
1.0003
1.00007
0.999898
0.999793
0.999745
0.95078
0.965709
1.0014
1.06857
1.1782
1.32633
1.47437
1.57162
1.6091
1.61417
1.61279
1.61415
1.60904
1.57147
1.4741
1.32605
1.17859
1.07113
1.00846
0.979806
0.972889
0.97739
0.985643
0.993074
0.998039
1.00078
1.00216
1.00288
1.00332
1.00357
1.00364
1.00351
1.00318
1.00268
1.00205
1.00139
1.00076
1.00026
0.999907
0.999731
0.95678
0.962661
0.978772
1.0124
1.07125
1.15887
1.26716
1.37325
1.45309
1.49799
1.51184
1.49797
1.45303
1.3731
1.26686
1.15848
1.07113
1.01352
0.982959
0.972454
0.974388
0.981983
0.990313
0.996849
1.00111
1.00367
1.00524
1.00628
1.00697
1.00738
1.00751
1.00734
1.00686
1.00607
1.005
1.00376
1.00248
1.00135
1.00051
1.00007
0.966785
0.966866
0.97043
0.982742
1.00881
1.0513
1.10834
1.17185
1.22911
1.26814
1.28184
1.26813
1.22908
1.17174
1.10812
1.05094
1.00846
0.982959
0.972503
0.972977
0.979582
0.988075
0.995697
1.0014
1.00531
1.00794
1.00968
1.01077
1.01137
1.01164
1.0117
1.01161
1.01129
1.01059
1.00939
1.0077
1.00569
1.00371
1.00213
1.00126
0.977973
0.975218
0.9722
0.972713
0.98024
0.99662
1.02119
1.05042
1.07841
1.09859
1.10593
1.09858
1.07839
1.05035
1.02103
0.996307
0.979806
0.972454
0.972977
0.978754
0.986831
0.994863
1.00161
1.00676
1.01042
1.01268
1.01362
1.01347
1.01271
1.01193
1.0116
1.01191
1.01265
1.01332
1.01333
1.01229
1.01023
1.00765
1.00531
1.00393
0.987748
0.9844
0.979252
0.974756
0.973306
0.976373
0.983988
0.99464
1.00563
1.01388
1.01693
1.01387
1.00562
0.994586
0.983852
0.976099
0.972889
0.974388
0.979582
0.986831
0.994559
1.00171
1.00773
1.01222
1.01464
1.01455
1.01199
1.00779
1.00329
0.999903
0.998649
0.999885
1.00323
1.00765
1.01172
1.01414
1.0143
1.01261
1.01026
1.00864
0.994635
0.991955
0.987348
0.982112
0.977697
0.975226
0.975128
0.977004
0.9798
0.9822
0.983136
0.982195
0.97978
0.976948
0.974998
0.97499
0.97739
0.981983
0.988075
0.994863
1.00171
1.00807
1.01312
1.01553
1.01383
1.00739
0.997114
0.985228
0.97442
0.966974
0.964328
0.966955
0.974364
0.985102
0.996889
1.00711
1.01374
1.01633
1.01613
1.01527
0.998514
0.996862
0.993807
0.989861
0.985725
0.982112
0.979515
0.978059
0.977511
0.977446
0.977474
0.977437
0.977482
0.977989
0.979383
0.981932
0.985643
0.990313
0.995697
1.00161
1.00773
1.01312
1.01575
1.01285
1.00245
0.984942
0.963293
0.941654
0.923764
0.912156
0.908149
0.912133
0.923706
0.941543
0.963149
0.984916
1.00298
1.01485
1.02063
1.0225
1.00016
0.999352
0.997762
0.995495
0.992793
0.990008
0.987496
0.98551
0.984148
0.98338
0.983133
0.983366
0.984107
0.985425
0.987368
0.989928
0.993074
0.996849
1.0014
1.00676
1.01222
1.01553
1.01285
1.00034
0.976963
0.945782
0.912458
0.882476
0.85951
0.845343
0.840576
0.845318
0.859451
0.882389
0.91243
0.946117
0.978369
1.00404
1.02033
1.02767
1.00056
1.00026
0.999616
0.998604
0.997254
0.995689
0.994099
0.992679
0.991581
0.990895
0.990658
0.990873
0.991526
0.992581
0.993996
0.995772
0.998039
1.00111
1.00531
1.01042
1.01464
1.01383
1.00245
0.976963
0.939172
0.895692
0.854148
0.819932
0.79545
0.781053
0.776327
0.781026
0.795395
0.819878
0.854257
0.896437
0.941542
0.982435
1.01233
1.0276
1.00046
1.00039
1.00022
0.999888
0.999379
0.998711
0.997959
0.997226
0.996618
0.996216
0.996069
0.996188
0.996551
0.997125
0.997908
0.99902
1.00078
1.00367
1.00794
1.01268
1.01455
1.00739
0.984942
0.945782
0.895692
0.844233
0.799466
0.765427
0.742653
0.729927
0.725866
0.7299
0.742604
0.765411
0.799713
0.845373
0.898948
0.952733
0.996281
1.02042
1.00026
1.00027
1.00027
1.00022
1.0001
0.999896
0.999635
0.999353
0.999102
0.998927
0.998855
0.998892
0.999027
0.999259
0.999662
1.00047
1.00216
1.00524
1.00968
1.01362
1.01199
0.997114
0.963293
0.912458
0.854148
0.799466
0.75563
0.724774
0.705595
0.695542
0.692456
0.695516
0.705555
0.724794
0.756002
0.800944
0.85811
0.920392
0.97487
1.00691
1.00012
1.00014
1.00017
1.0002
1.0002
1.00018
1.00013
1.00006
0.999984
0.999927
0.999895
0.999888
0.999905
0.999978
1.00024
1.00103
1.00288
1.00628
1.01077
1.01347
1.00779
0.985228
0.941654
0.882476
0.819932
0.765427
0.724774
0.698304
0.683241
0.676039
0.673967
0.676015
0.683209
0.698356
0.725247
0.767167
0.824395
0.890916
0.952508
0.99026
1.00004
1.00006
1.00008
1.00011
1.00014
1.00016
1.00017
1.00016
1.00016
1.00014
1.00013
1.0001
1.00007
1.0001
1.00037
1.00125
1.00332
1.00697
1.01137
1.01271
1.00329
0.97442
0.923764
0.85951
0.79545
0.742653
0.705595
0.683241
0.671798
0.667039
0.665828
0.667017
0.671772
0.683317
0.706143
0.744576
0.80023
0.868122
0.933497
0.974665
1.00001
1.00002
1.00003
1.00005
1.00006
1.00008
1.0001
1.00011
1.00011
1.00011
1.0001
1.00007
1.00003
1.00006
1.00036
1.00133
1.00357
1.00738
1.01164
1.01193
0.999903
0.966974
0.912156
0.845343
0.781053
0.729927
0.695542
0.676039
0.667039
0.663917
0.663282
0.663895
0.667017
0.676131
0.696136
0.731958
0.786002
0.853971
0.920946
0.963764
1
1
1.00001
1.00001
1.00002
1.00003
1.00004
1.00005
1.00005
1.00005
1.00004
1.00001
0.999974
1.00001
1.00032
1.00134
1.00364
1.00751
1.0117
1.0116
0.998649
0.964328
0.908149
0.840576
0.776327
0.725866
0.692456
0.673967
0.665828
0.663282
0.66285
0.663261
0.665808
0.674064
0.693066
0.727932
0.781328
0.849193
0.916578
0.959866
0.999999
0.999999
1
1
1.00001
1.00001
1.00001
1.00002
1.00002
1.00001
1
0.999971
0.999938
0.999972
1.00027
1.00126
1.00351
1.00734
1.01161
1.01191
0.999885
0.966955
0.912133
0.845318
0.781026
0.7299
0.695516
0.676015
0.667017
0.663895
0.663261
0.663874
0.666995
0.676107
0.696111
0.731931
0.785974
0.853943
0.92092
0.963739
0.999999
0.999999
0.999999
1
1
1
1
1
1
0.999999
0.999985
0.999957
0.999924
0.999944
1.0002
1.00109
1.00318
1.00686
1.01129
1.01265
1.00323
0.974364
0.923706
0.859451
0.795395
0.742604
0.705555
0.683209
0.671772
0.667017
0.665808
0.666995
0.671745
0.683285
0.706103
0.744526
0.800172
0.868058
0.93343
0.974596
1
0.999999
0.999999
1
1
1
1
1
1
0.999995
0.999983
0.999956
0.999921
0.999922
1.00012
1.00085
1.00268
1.00607
1.01059
1.01332
1.00765
0.985102
0.941543
0.882389
0.819878
0.765411
0.724794
0.698356
0.683317
0.676131
0.674064
0.676107
0.683285
0.698407
0.725267
0.767148
0.824336
0.890819
0.952381
0.990117
1
1
1
1
1
1
1
1
0.999999
0.999995
0.999985
0.999961
0.999924
0.999905
1.00003
1.00057
1.00205
1.005
1.00939
1.01333
1.01172
0.996889
0.963149
0.91243
0.854257
0.799713
0.756002
0.725247
0.706143
0.696136
0.693066
0.696111
0.706103
0.725267
0.756371
0.801186
0.858209
0.920348
0.974707
1.00668
1
1
1
1
1
1
1
1
0.999999
0.999997
0.999989
0.999968
0.999932
0.999897
0.999946
1.0003
1.00139
1.00376
1.0077
1.01229
1.01414
1.00711
0.984916
0.946117
0.896437
0.845373
0.800944
0.767167
0.744576
0.731958
0.727932
0.731931
0.744526
0.767148
0.801186
0.846504
0.899677
0.953051
0.996256
1.0202
1
1
1
1
1
1
1
1
1
0.999998
0.999992
0.999976
0.999944
0.999899
0.99989
1.00007
1.00076
1.00248
1.00569
1.01023
1.0143
1.01374
1.00298
0.978369
0.941542
0.898948
0.85811
0.824395
0.80023
0.786002
0.781328
0.785974
0.800172
0.824336
0.858209
0.899677
0.943895
0.983846
1.01294
1.02775
1
1
1
1
1
1
1
1
1
1
0.999996
0.999984
0.999956
0.999908
0.999859
0.999898
1.00026
1.00135
1.00371
1.00765
1.01261
1.01633
1.01485
1.00404
0.982435
0.952733
0.920392
0.890916
0.868122
0.853971
0.849193
0.853943
0.868058
0.890819
0.920348
0.953051
0.983846
1.00782
1.02258
1.02903
1
1
1
1
1
1
1
1
1
1
0.999998
0.99999
0.999967
0.99992
0.999847
0.999793
0.999907
1.00051
1.00213
1.00531
1.01026
1.01613
1.02063
1.02033
1.01233
0.996281
0.97487
0.952508
0.933497
0.920946
0.916578
0.92092
0.93343
0.952381
0.974707
0.996256
1.01294
1.02258
1.02611
1.02658
1
1
1
1
1
1
1
1
1
1
0.999999
0.999993
0.999973
0.999927
0.999845
0.999745
0.999731
1.00007
1.00126
1.00393
1.00864
1.01527
1.0225
1.02767
1.0276
1.02042
1.00691
0.99026
0.974665
0.963764
0.959866
0.963739
0.974596
0.990117
1.00668
1.0202
1.02775
1.02903
1.02658
1.02408
SCALARS C2 double 1
LOOKUP_TABLE default
2.50974
2.5211
2.54215
2.56966
2.59915
2.62591
2.64622
2.65851
2.66377
2.66487
2.66481
2.66486
2.66376
2.65852
2.64632
2.62621
2.59986
2.571
2.5441
2.52277
2.50864
2.50114
2.49833
2.49803
2.49861
2.49925
2.49968
2.49989
2.49998
2.5
2.50001
2.5
2.5
2.5
2.5
2.5
2.5
2.5
2.5
2.5
2.5211
2.53346
2.55517
2.58095
2.60447
2.61996
2.62397
2.61686
2.60328
2.59058
2.58545
2.59058
2.60328
2.6169
2.62412
2.62035
2.60527
2.58225
2.55656
2.53334
2.51596
2.50531
2.50024
2.49866
2.49869
2.49918
2.4996
2.49985
2.49996
2.5
2.5
2.5
2.5
2.5
2.5
2.5
2.5
2.5
2.5
2.5
2.54215
2.55517
2.57576
2.59472
2.60171
2.58809
2.55051
2.49447
2.43464
2.38933
2.37256
2.38934
2.43466
2.49457
2.55078
2.58867
2.60268
2.59584
2.57587
2.55138
2.52928
2.51336
2.50416
2.5001
2.49899
2.4991
2.49947
2.49976
2.49992
2.49998
2.5
2.5
2.5
2.5
2.5
2.5
2.5
2.5
2.5
2.5
2.56966
2.58095
2.59472
2.59583
2.5666
2.49291
2.37452
2.23447
2.10997
2.02891
2.00143
2.02892
2.11003
2.23465
2.37498
2.49374
2.56769
2.59639
2.59255
2.57151
2.54607
2.52446
2.5101
2.50259
2.4997
2.49912
2.49934
2.49966
2.49986
2.49996
2.49999
2.5
2.5
2.5
2.5
2.5
2.5
2.5
2.5
2.5
2.59915
2.60447
2.60171
2.5666
2.4701
2.29632
2.07499
1.87715
1.74812
1.68368
1.66495
1.6837
1.7482
1.87739
2.07558
2.29735
2.47107
2.56594
2.59596
2.58754
2.56302
2.53721
2.51767
2.50615
2.50094
2.49935
2.49926
2.49955
2.4998
2.49993
2.49998
2.5
2.5
2.5
2.5
2.5
2.5
2.5
2.5
2.5
2.62591
2.61996
2.58809
2.49291
2.29632
2.01707
1.76581
1.62147
1.56347
1.54693
1.54425
1.54695
1.56354
1.62165
1.76628
2.01792
2.29668
2.49009
2.57735
2.59412
2.57684
2.54975
2.52604
2.51054
2.50271
2.49982
2.49927
2.49946
2.49973
2.4999
2.49997
2.5
2.5
2.5
2.5
2.5
2.5
2.5
2.5
2.5
2.64622
2.62397
2.55051
2.37452
2.07499
1.76581
1.59085
1.53922
1.54308
1.55858
1.56563
1.5586
1.54313
1.53932
1.59106
1.7661
2.07415
2.36867
2.53368
2.58861
2.58532
2.56041
2.53416
2.51523
2.50481
2.5005
2.49937
2.49941
2.49967
2.49986
2.49996
2.49999
2.5
2.5
2.5
2.5
2.5
2.5
2.5
2.5
2.65851
2.61686
2.49447
2.23447
1.87715
1.62147
1.53922
1.55077
1.58885
1.62076
1.63267
1.62078
1.58888
1.55082
1.53924
1.6212
1.87503
2.22538
2.47131
2.57253
2.58806
2.56819
2.54109
2.51961
2.50694
2.50128
2.49954
2.49939
2.49963
2.49984
2.49994
2.49999
2.5
2.5
2.5
2.5
2.5
2.5
2.5
2.5
2.66377
2.60328
2.43464
2.10997
1.74812
1.56347
1.54308
1.58885
1.64429
1.68437
1.69868
1.68438
1.64432
1.58888
1.54299
1.56284
1.74512
2.09838
2.40614
2.5517
2.5867
2.57297
2.54621
2.52312
2.50876
2.50199
2.49972
2.49939
2.4996
2.49982
2.49994
2.49998
2.5
2.5
2.5
2.5
2.5
2.5
2.5
2.5
2.66487
2.59058
2.38933
2.02891
1.68368
1.54693
1.55858
1.62076
1.68437
1.72825
1.74368
1.72826
1.68439
1.62078
1.55844
1.54612
1.68023
2.01595
2.35741
2.53438
2.58407
2.57534
2.54929
2.52537
2.50997
2.50249
2.49987
2.49941
2.49959
2.49981
2.49993
2.49999
2.5
2.5
2.5
2.5
2.5
2.5
2.5
2.5
2.66481
2.58545
2.37256
2.00143
1.66495
1.54425
1.56563
1.63267
1.69868
1.74368
1.75944
1.74369
1.69871
1.63269
1.56547
1.54338
1.66137
1.98805
2.33949
2.52768
2.58283
2.57603
2.55031
2.52614
2.5104
2.50267
2.49993
2.49943
2.4996
2.49982
2.49995
2.5
2.50002
2.50002
2.50001
2.50001
2.5
2.5
2.5
2.5
2.66486
2.59058
2.38934
2.02892
1.6837
1.54695
1.5586
1.62078
1.68438
1.72826
1.74369
1.72828
1.68441
1.62079
1.55845
1.54614
1.68025
2.01596
2.35741
2.53438
2.58406
2.57534
2.5493
2.52538
2.51
2.50252
2.49991
2.49946
2.49965
2.49988
2.5
2.50006
2.50007
2.50006
2.50005
2.50003
2.50002
2.50001
2.5
2.5
2.66376
2.60328
2.43466
2.11003
1.7482
1.56354
1.54313
1.58888
1.64432
1.68439
1.69871
1.68441
1.64435
1.58891
1.54304
1.56291
1.74519
2.09844
2.40616
2.55171
2.5867
2.57298
2.54624
2.52317
2.50883
2.50209
2.49985
2.49954
2.49976
2.49999
2.50011
2.50016
2.50016
2.50015
2.50013
2.5001
2.50007
2.50005
2.50003
2.50002
2.65852
2.6169
2.49457
2.23465
1.87739
1.62165
1.53932
1.55082
1.58888
1.62078
1.63269
1.62079
1.58891
1.55088
1.53934
1.62138
1.87527
2.22557
2.47142
2.57258
2.5881
2.56824
2.54117
2.51974
2.50712
2.5015
2.4998
2.49967
2.49993
2.50014
2.50025
2.50029
2.5003
2.50029
2.50026
2.50022
2.50018
2.50013
2.50009
2.50007
2.64632
2.62412
2.55078
2.37498
2.07558
1.76628
1.59106
1.53924
1.54299
1.55844
1.56547
1.55845
1.54304
1.53934
1.59128
1.76657
2.07475
2.36914
2.53397
2.58879
2.58546
2.56057
2.53437
2.51551
2.50515
2.50087
2.49974
2.49976
2.49998
2.50014
2.50022
2.50027
2.50031
2.50035
2.50038
2.50037
2.50034
2.50029
2.50024
2.50021
2.62621
2.62035
2.58867
2.49374
2.29735
2.01792
1.7661
1.6212
1.56284
1.54612
1.54338
1.54614
1.56291
1.62138
1.76657
2.01878
2.29771
2.49095
2.57797
2.59458
2.57722
2.55013
2.52646
2.51099
2.50314
2.50016
2.49942
2.49938
2.49942
2.49942
2.49944
2.49952
2.49969
2.49992
2.50016
2.50034
2.50045
2.50049
2.50048
2.50046
2.59986
2.60527
2.60268
2.56769
2.47107
2.29668
2.07415
1.87503
1.74512
1.68023
1.66137
1.68025
1.74519
1.87527
2.07475
2.29771
2.47207
2.56708
2.597
2.58845
2.56382
2.53794
2.51831
2.50661
2.50103
2.49887
2.49806
2.49757
2.49713
2.49678
2.49667
2.49685
2.49733
2.49803
2.49881
2.49954
2.50013
2.50052
2.50073
2.50082
2.571
2.58225
2.59584
2.59639
2.56594
2.49009
2.36867
2.22538
2.09838
2.01595
1.98805
2.01596
2.09844
2.22557
2.36914
2.49095
2.56708
2.59703
2.59377
2.57291
2.54741
2.52556
2.51069
2.50232
2.49815
2.4959
2.49423
2.49269
2.49135
2.49042
2.49011
2.49047
2.49149
2.49304
2.4949
2.49682
2.49851
2.49982
2.50066
2.50107
2.5441
2.55656
2.57587
2.59255
2.59596
2.57735
2.53368
2.47131
2.40614
2.35741
2.33949
2.35741
2.40616
2.47142
2.53397
2.57797
2.597
2.59377
2.57606
2.55273
2.53088
2.51436
2.50373
2.49736
2.49312
2.48956
2.48615
2.48304
2.48057
2.479
2.47847
2.47902
2.48066
2.4833
2.48672
2.49052
2.49422
2.49733
2.49951
2.50063
2.52277
2.53334
2.55138
2.57151
2.58754
2.59412
2.58861
2.57253
2.5517
2.53438
2.52768
2.53438
2.55171
2.57258
2.58879
2.59458
2.58845
2.57291
2.55273
2.53283
2.51654
2.50484
2.49669
2.49032
2.48439
2.47855
2.47322
2.46895
2.46605
2.46445
2.46396
2.46447
2.46611
2.46914
2.47368
2.47946
2.48577
2.4916
2.49603
2.49839
2.50864
2.51596
2.52928
2.54607
2.56302
2.57684
2.58532
2.58806
2.5867
2.58407
2.58283
2.58406
2.5867
2.5881
2.58546
2.57722
2.56382
2.54741
2.53088
2.51654
2.50526
2.4963
2.48822
2.47995
2.47156
2.46412
2.45882
2.45613
2.45553
2.45589
2.45614
2.45589
2.45557
2.45628
2.45921
2.46494
2.47291
2.48153
2.48874
2.49282
2.50114
2.50531
2.51336
2.52446
2.53721
2.54975
2.56041
2.56819
2.57297
2.57534
2.57603
2.57534
2.57298
2.56824
2.56057
2.55013
2.53794
2.52556
2.51436
2.50484
2.4963
2.48744
2.47739
2.46673
2.45761
2.45253
2.45279
2.45755
2.46424
2.46982
2.47197
2.46984
2.46429
2.45771
2.45317
2.45326
2.45868
2.46769
2.47682
2.48247
2.49833
2.50024
2.50416
2.5101
2.51767
2.52604
2.53416
2.54109
2.54621
2.54929
2.55031
2.5493
2.54624
2.54117
2.53437
2.52646
2.51831
2.51069
2.50373
2.49669
2.48822
2.47739
2.46503
2.45438
2.44997
2.455
2.46917
2.48869
2.50803
2.52201
2.52708
2.52203
2.50811
2.48887
2.46956
2.45559
2.45048
2.45382
2.46129
2.46704
2.49803
2.49866
2.5001
2.50259
2.50615
2.51054
2.51523
2.51961
2.52312
2.52537
2.52614
2.52538
2.52317
2.51974
2.51551
2.51099
2.50661
2.50232
2.49736
2.49032
2.47995
2.46673
2.45438
2.44944
2.45812
2.48225
2.51787
2.5573
2.59223
2.61596
2.62434
2.61599
2.59233
2.55752
2.51824
2.48261
2.45774
2.44654
2.44582
2.44837
2.49861
2.49869
2.49899
2.4997
2.50094
2.50271
2.50481
2.50694
2.50876
2.50997
2.5104
2.51
2.50883
2.50712
2.50515
2.50314
2.50103
2.49815
2.49312
2.48439
2.47156
2.45761
2.44997
2.45812
2.48785
2.53718
2.59746
2.65756
2.70749
2.74013
2.75145
2.74017
2.70761
2.6578
2.5978
2.53721
2.48631
2.45232
2.4357
2.43053
2.49925
2.49918
2.4991
2.49912
2.49935
2.49982
2.5005
2.50128
2.50199
2.50249
2.50267
2.50252
2.50209
2.5015
2.50087
2.50016
2.49887
2.4959
2.48956
2.47855
2.46412
2.45253
2.455
2.48225
2.53718
2.61275
2.69606
2.77379
2.83561
2.87492
2.88838
2.87497
2.83573
2.77404
2.69633
2.61241
2.53438
2.47338
2.43515
2.41816
2.49968
2.4996
2.49947
2.49934
2.49926
2.49927
2.49937
2.49954
2.49972
2.49987
2.49993
2.49991
2.49985
2.4998
2.49974
2.49942
2.49806
2.49423
2.48615
2.47322
2.45882
2.45279
2.46917
2.51787
2.59746
2.69606
2.79771
2.88828
2.958
3.00141
3.0161
3.00145
2.95813
2.88852
2.79791
2.69535
2.59346
2.50619
2.44469
2.4139
2.49989
2.49985
2.49976
2.49966
2.49955
2.49946
2.49941
2.49939
2.49939
2.49941
2.49943
2.49946
2.49954
2.49967
2.49976
2.49938
2.49757
2.49269
2.48304
2.46895
2.45613
2.45755
2.48869
2.5573
2.65756
2.77379
2.88828
2.98691
3.06095
3.10626
3.12146
3.10631
3.06108
2.98714
2.8884
2.77277
2.65254
2.54333
2.46092
2.41701
2.49998
2.49996
2.49992
2.49986
2.4998
2.49973
2.49967
2.49963
2.4996
2.49959
2.4996
2.49965
2.49976
2.49993
2.49998
2.49942
2.49713
2.49135
2.48057
2.46605
2.45553
2.46424
2.50803
2.59223
2.70749
2.83561
2.958
3.06095
3.1368
3.18258
3.19783
3.18263
3.13692
3.06116
2.95806
2.83434
2.70172
2.57663
2.47825
2.42396
2.5
2.5
2.49998
2.49996
2.49993
2.4999
2.49986
2.49984
2.49982
2.49981
2.49982
2.49988
2.49999
2.50014
2.50014
2.49942
2.49678
2.49042
2.479
2.46445
2.45589
2.46982
2.52201
2.61596
2.74013
2.87492
3.00141
3.10626
3.18258
3.22823
3.24336
3.22828
3.1827
3.10646
3.00143
2.8735
2.73389
2.59939
2.49119
2.4304
2.50001
2.5
2.5
2.49999
2.49998
2.49997
2.49996
2.49994
2.49994
2.49993
2.49995
2.5
2.50011
2.50025
2.50022
2.49944
2.49667
2.49011
2.47847
2.46396
2.45614
2.47197
2.52708
2.62434
2.75145
2.88838
3.0161
3.12146
3.19783
3.24336
3.25841
3.2434
3.19795
3.12166
3.01611
2.88691
2.74506
2.60745
2.49596
2.43297
2.5
2.5
2.5
2.5
2.5
2.5
2.49999
2.49999
2.49998
2.49999
2.5
2.50006
2.50016
2.50029
2.50027
2.49952
2.49685
2.49047
2.47902
2.46447
2.45589
2.46984
2.52203
2.61599
2.74017
2.87497
3.00145
3.10631
3.18263
3.22828
3.2434
3.22832
3.18275
3.10651
3.00147
2.87355
2.73394
2.59942
2.49122
2.43042
2.5
2.5
2.5
2.5
2.5
2.5
2.5
2.5
2.5
2.5
2.50002
2.50007
2.50016
2.5003
2.50031
2.49969
2.49733
2.49149
2.48066
2.46611
2.45557
2.46429
2.50811
2.59233
2.70761
2.83573
2.95813
3.06108
3.13692
3.1827
3.19795
3.18275
3.13704
3.06129
2.95818
2.83446
2.70183
2.57673
2.47833
2.42404
2.5
2.5
2.5
2.5
2.5
2.5
2.5
2.5
2.5
2.5
2.50002
2.50006
2.50015
2.50029
2.50035
2.49992
2.49803
2.49304
2.4833
2.46914
2.45628
2.45771
2.48887
2.55752
2.6578
2.77404
2.88852
2.98714
3.06116
3.10646
3.12166
3.10651
3.06129
2.98736
2.88864
2.77301
2.65279
2.54357
2.46113
2.41721
2.5
2.5
2.5
2.5
2.5
2.5
2.5
2.5
2.5
2.5
2.50001
2.50005
2.50013
2.50026
2.50038
2.50016
2.49881
2.4949
2.48672
2.47368
2.45921
2.45317
2.46956
2.51824
2.5978
2.69633
2.79791
2.8884
2.95806
3.00143
3.01611
3.00147
2.95818
2.88864
2.7981
2.69562
2.59381
2.50659
2.44513
2.41435
2.5
2.5
2.5
2.5
2.5
2.5
2.5
2.5
2.5
2.5
2.50001
2.50003
2.5001
2.50022
2.50037
2.50034
2.49954
2.49682
2.49052
2.47946
2.46494
2.45326
2.45559
2.48261
2.53721
2.61241
2.69535
2.77277
2.83434
2.8735
2.88691
2.87355
2.83446
2.77301
2.69562
2.61209
2.53444
2.47379
2.43581
2.41895
2.5
2.5
2.5
2.5
2.5
2.5
2.5
2.5
2.5
2.5
2.5
2.50002
2.50007
2.50018
2.50034
2.50045
2.50013
2.49851
2.49422
2.48577
2.47291
2.45868
2.45048
2.45774
2.48631
2.53438
2.59346
2.65254
2.70172
2.73389
2.74506
2.73394
2.70183
2.65279
2.59381
2.53444
2.48483
2.45201
2.43626
2.43155
2.5
2.5
2.5
2.5
2.5
2.5
2.5
2.5
2.5
2.5
2.5
2.50001
2.50005
2.50013
2.50029
2.50049
2.50052
2.49982
2.49733
2.4916
2.48153
2.46769
2.45382
2.44654
2.45232
2.47338
2.50619
2.54333
2.57663
2.59939
2.60745
2.59942
2.57673
2.54357
2.50659
2.47379
2.45201
2.44369
2.44517
2.4489
2.5
2.5
2.5
2.5
2.5
2.5
2.5
2.5
2.5
2.5
2.5
2.5
2.50003
2.50009
2.50024
2.50048
2.50073
2.50066
2.49951
2.49603
2.48874
2.47682
2.46129
2.44582
2.4357
2.43515
2.44469
2.46092
2.47825
2.49119
2.49596
2.49122
2.47833
2.46113
2.44513
2.43581
2.43626
2.44517
2.4571
2.46528
2.5
2.5
2.5
2.5
2.5
2.5
2.5
2.5
2.5
2.5
2.5
2.5
2.50002
2.50007
2.50021
2.50046
2.50082
2.50107
2.50063
2.49839
2.49282
2.48247
2.46704
2.44837
2.43053
2.41816
2.4139
2.41701
2.42396
2.4304
2.43297
2.43042
2.42404
2.41721
2.41435
2.41895
2.43155
2.4489
2.46528
2.4751
