# vtk DataFile Version 3.0
Brusselator Concentration Output
ASCII
DATASET STRUCTURED_POINTS
DIMENSIONS 40 40 1
ORIGIN 0.0 0.0 0.0
SPACING 0.005 0.005 1.0
POINT_DATA 1600
SCALARS C1 double 1
LOOKUP_TABLE default
1
1
1
1
1
1
1
1.00001
1.00001
1.00002
1.00002
1.00002
1.00001
1.00001
1
1
1
1
1
1
1
1
1
1
1
1
1
1
1
1
1
1
1
1
1
1
1
1
1
1
1
1
1
1
1
1.00001
1.00002
1.00003
1.00004
1.00005
1.00006
1.00005
1.00004
1.00003
1.00002
1.00001
1
1
1
1
1
1
1
1
1
1
1
1
1
1
1
1
1
1
1
1
1
1
1
1
1
1
1
1
1.00001
1.00003
1.00005
1.00009
1.00012
1.00013
1.00013
1.00013
1.00012
1.00009
1.00005
1.00003
1.00001
1
1
1
1
1
1
1
1
1
1
1
1
1
1
1
1
1
1
1
1
1
1
1
1
1
1
1.00001
1.00003
1.00008
1.00014
1.00021
1.0002
1.00012
1.00007
1.00012
1.0002
1.00021
1.00014
1.00008
1.00003
1.00001
1
1
1
1
1
1
1
1
1
1
1
1
1
1
1
1
1
1
1
1
1
1
1
1
1.00001
1.00003
1.00009
1.00018
1.00028
1.00022
0.999818
0.999222
0.998935
0.999222
0.999818
1.00022
1.00028
1.00018
1.00009
1.00003
1.00001
1
1
1
1
1
1
1
1
1
1
1
1
1
1
1
1
1
1
1
1
1
1
1.00001
1.00003
1.00008
1.00018
1.00031
1.00019
0.999285
0.997235
0.99487
0.99388
0.99487
0.997235
0.999285
1.00019
1.00031
1.00018
1.00008
1.00003
1.00001
1
1
1
1
1
1
1
1
1
1
1
1
1
1
1
1
1
1
1
1
1
1.00002
1.00005
1.00014
1.00028
1.00019
0.999002
0.995305
0.988864
0.982599
0.980345
0.982599
0.988864
0.995305
0.999002
1.00019
1.00028
1.00014
1.00005
1.00002
1
1
1
1
1
1
1
1
1
1
1
1
1
1
1
1
1
1
1
1
1.00001
1.00003
1.00009
1.00021
1.00022
0.999285
0.995305
0.98581
0.971965
0.960795
0.957757
0.960795
0.971965
0.98581
0.995305
0.999285
1.00022
1.00021
1.00009
1.00003
1.00001
1
1
1
1
1
1
1
1
1
1
1
1
1
1
1
1
1
1
1
1.00001
1.00004
1.00012
1.0002
0.999818
0.997235
0.988864
0.971965
0.951269
0.938859
0.938041
0.938859
0.951269
0.971965
0.988864
0.997235
0.999818
1.0002
1.00012
1.00004
1.00001
1
1
1
1
1
1
1
1
1
1
1
1
1
1
1
1
1
1
1
1.00002
1.00005
1.00013
1.00012
0.999222
0.99487
0.982599
0.960795
0.938859
0.932711
0.938566
0.932711
0.938859
0.960795
0.982599
0.99487
0.999222
1.00012
1.00013
1.00005
1.00002
1
1
1
1
1
1
1
1
1
1
1
1
1
1
1
1
1
1
1
1.00002
1.00006
1.00013
1.00007
0.998935
0.99388
0.980345
0.957757
0.938041
0.938566
0.949825
0.938566
0.938041
0.957757
0.980345
0.99388
0.998935
1.00007
1.00013
1.00006
1.00002
1
1
1
1
1
1
1
1
1
1
1
1
1
1
1
1
1
1
1
1.00002
1.00005
1.00013
1.00012
0.999222
0.99487
0.982599
0.960795
0.938859
0.932711
0.938566
0.932711
0.938859
0.960795
0.982599
0.99487
0.999222
1.00012
1.00013
1.00005
1.00002
1
1
1
1
1
1
1
1
1
1
1
1
1
1
1
1
1
1
1
1.00001
1.00004
1.00012
1.0002
0.999818
0.997235
0.988864
0.971965
0.951269
0.938859
0.938041
0.938859
0.951269
0.971965
0.988864
0.997235
0.999818
1.0002
1.00012
1.00004
1.00001
1
1
1
1
1
1
1
1
1
1
1
1
1
1
1
1
1
1
1
1.00001
1.00003
1.00009
1.00021
1.00022
0.999285
0.995305
0.98581
0.971965
0.960795
0.957757
0.960795
0.971965
0.98581
0.995305
0.999285
1.00022
1.00021
1.00009
1.00003
1.00001
1
1
1
1
1
1
1
1
1
1
1
1
1
1
1
1
1
1
1
1
1.00002
1.00005
1.00014
1.00028
1.00019
0.999002
0.995305
0.988864
0.982599
0.980345
0.982599
0.988864
0.995305
0.999002
1.00019
1.00028
1.00014
1.00005
1.00002
1
1
1
1
1
1
1
1
1
1
1
1
1
1
1
1
1
1
1
1
1
1.00001
1.00003
1.00008
1.00018
1.00031
1.00019
0.999285
0.997235
0.99487
0.99388
0.99487
0.997235
0.999285
1.00019
1.00031
1.00018
1.00008
1.00003
1.00001
1
1
1
1
1
1
1
1
1
1
1
1
1
1
1
1
1
1
1
1
1
1
1.00001
1.00003
1.00009
1.00018
1.00028
1.00022
0.999818
0.999222
0.998935
0.999222
0.999818
1.00022
1.00028
1.00018
1.00009
1.00003
1.00001
1
1
1
1
1
1
1
1
1
1
1
1
1
1
1
1
1
1
1
1
1
1
1
1
1.00001
1.00003
1.00008
1.00014
1.00021
1.0002
1.00012
1.00007
1.00012
1.0002
1.00021
1.00014
1.00008
1.00003
1.00001
1
1
1
1
1
1
1
1
1
1
1
1
1
1
1
1
1
1
1
1
1
1
1
1
1
1
1.00001
1.00003
1.00005
1.00009
1.00012
1.00013
1.00013
1.00013
1.00012
1.00009
1.00005
1.00003
1.00001
1
1
1
1
1
1
1
1
1
1
1
1
1
1
1
1
1
1
1
1
1
1
1
1
1
1
1
1
1.00001
1.00002
1.00003
1.00004
1.00005
1.00006
1.00005
1.00004
1.00003
1.00002
1.00001
1
1
1
1
1
1
1
1
1
1
1
0.999999
0.999999
0.999999
0.999999
0.999999
0.999999
0.999999
1
1
1
1
1
1
1
1
1
1
1
1
1
1.00001
1.00001
1.00002
1.00002
1.00002
1.00001
1.00001
1
1
1
1
1
1
1
1
1
1
1
0.999999
0.999999
0.999997
0.999996
0.999994
0.999994
0.999994
0.999996
0.999997
0.999999
0.999999
1
1
1
1
1
1
1
1
1
1
1
1
1
1
1
1
1
1
1
1
1
1
1
1
1
1
1
1
0.999999
0.999998
0.999995
0.99999
0.999984
0.99998
0.999979
0.99998
0.999984
0.99999
0.999995
0.999998
0.999999
1
1
1
1
1
1
1
1
1
1
1
1
1
1
1
1
1
1
1
1
1
1
1
1
1
1
0.999999
0.999997
0.999991
0.999981
0.999966
0.999953
0.999946
0.999944
0.999946
0.999953
0.999966
0.999981
0.999991
0.999997
0.999999
1
1
1
1
1
1
1
1
1
1
1
1
1
1
1
1
1
1
1
1
1
1
1
1
0.999999
0.999996
0.999989
0.999972
0.999945
0.999915
0.999901
0.999914
0.999926
0.999914
0.999901
0.999915
0.999945
0.999972
0.999989
0.999996
0.999999
1
1
1
1
1
1
1
1
1
1
1
1
1
1
1
1
1
1
1
1
1
1
0.999999
0.999997
0.999989
0.999969
0.99993
0.99988
0.999865
0.99995
1.00012
1.00021
1.00012
0.99995
0.999865
0.99988
0.99993
0.999969
0.999989
0.999997
0.999999
1
1
1
1
1
1
1
1
1
1
1
1
1
1
1
1
1
1
1
1
0.999999
0.999998
0.999991
0.999972
0.99993
0.999866
0.999847
1.00006
1.00067
1.00149
1.00188
1.00149
1.00067
1.00006
0.999847
0.999866
0.99993
0.999972
0.999991
0.999997
1
1
1
1
1
1
1
1
1
1
1
1
1
1
1
1
1
1
1
1
0.999999
0.999995
0.999981
0.999945
0.99988
0.999847
1.00012
1.00124
1.00356
1.00622
1.00735
1.00622
1.00356
1.00124
1.00012
0.999847
0.99988
0.999945
0.999981
0.999993
1
1
1
1
1
1
1
1
1
1
1
1
1
1
1
1
1
1
1
0.999999
0.999997
0.99999
0.999966
0.999915
0.999865
1.00006
1.00124
1.00465
1.01068
1.0167
1.0188
1.0167
1.01068
1.00465
1.00124
1.00006
0.999865
0.999915
0.999966
0.999987
1
1
1
1
1
1
1
1
1
1
1
1
1
1
1
1
1
1
1
0.999999
0.999996
0.999984
0.999953
0.999901
0.99995
1.00067
1.00356
1.01068
1.02165
1.03046
1.0322
1.03046
1.02165
1.01068
1.00356
1.00067
0.99995
0.999901
0.999952
0.99998
1
1
1
1
1
1
1
1
1
1
1
1
1
1
1
1
1
1
1
0.999999
0.999994
0.99998
0.999946
0.999914
1.00012
1.00149
1.00622
1.0167
1.03046
1.03743
1.03561
1.03743
1.03046
1.0167
1.00622
1.00149
1.00012
0.999914
0.999944
0.999974
1
1
1
1
1
1
1
1
1
1
1
1
1
1
1
1
1
1
1
0.999999
0.999994
0.999979
0.999944
0.999926
1.00021
1.00188
1.00735
1.0188
1.0322
1.03561
1.03053
1.03561
1.0322
1.0188
1.00735
1.00188
1.00021
0.999926
0.999943
0.999973
1
1
1
1
1
1
1
1
1
1
1
1
1
1
1
1
1
1
1
0.999999
0.999994
0.99998
0.999946
0.999914
1.00012
1.00149
1.00622
1.0167
1.03046
1.03743
1.03561
1.03743
1.03046
1.0167
1.00622
1.00149
1.00012
0.999914
0.999944
0.999974
1
1
1
1
1
1
1
1
1
1
1
1
1
1
1
1
1
1
1
0.999999
0.999996
0.999984
0.999953
0.999901
0.99995
1.00067
1.00356
1.01068
1.02165
1.03046
1.0322
1.03046
1.02165
1.01068
1.00356
1.00067
0.99995
0.999901
0.999952
0.99998
1
1
1
1
1
1
1
1
1
1
1
1
1
1
1
1
1
1
1
0.999999
0.999997
0.99999
0.999966
0.999915
0.999865
1.00006
1.00124
1.00465
1.01068
1.0167
1.0188
1.0167
1.01068
1.00465
1.00124
1.00006
0.999865
0.999915
0.999966
0.999987
1
1
1
1
1
1
1
1
1
1
1
1
1
1
1
1
1
1
1
1
0.999999
0.999995
0.999981
0.999945
0.99988
0.999847
1.00012
1.00124
1.00356
1.00622
1.00735
1.00622
1.00356
1.00124
1.00012
0.999847
0.99988
0.999945
0.999981
0.999993
1
1
1
1
1
1
1
1
1
1
1
1
1
1
1
1
1
1
1
1
0.999999
0.999998
0.999991
0.999972
0.99993
0.999866
0.999847
1.00006
1.00067
1.00149
1.00188
1.00149
1.00067
1.00006
0.999847
0.999866
0.99993
0.999972
0.999991
0.999997
1
1
1
1
1
1
1
1
1
1
1
1
1
1
1
1
1
1
1
1
1
0.999999
0.999997
0.999989
0.999969
0.99993
0.99988
0.999865
0.99995
1.00012
1.00021
1.00012
0.99995
0.999865
0.99988
0.99993
0.999969
0.999989
0.999997
0.999999
1
1
1
1
1
1
1
1
1
1
1
1
1
1
1
1
1
1
1
1
1
1
0.999999
0.999996
0.999989
0.999972
0.999945
0.999915
0.999901
0.999914
0.999926
0.999914
0.999901
0.999915
0.999945
0.999972
0.999989
0.999996
0.999999
1
1
1
1
1
1
1
1
1
1
1
1
1
1
1
1
1
1
1
1
1
1
1
1
0.999999
0.999997
0.999991
0.999981
0.999966
0.999952
0.999944
0.999943
0.999944
0.999952
0.999966
0.999981
0.999991
0.999997
0.999999
1
1
1
1
1
1
1
1
1
1
1
1
1
1
1
1
1
1
1
1
1
1
1
1
1
1
0.999999
0.999997
0.999993
0.999987
0.99998
0.999974
0.999973
0.999974
0.99998
0.999987
0.999993
0.999997
0.999999
1
1
1
SCALARS C2 double 1
LOOKUP_TABLE default
2.5
2.5
2.5
2.5
2.5
2.5
2.5
2.49999
2.49998
2.49998
2.49998
2.49998
2.49998
2.49999
2.5
2.5
2.5
2.5
2.5
2.5
2.5
2.5
2.5
2.5
2.5
2.5
2.5
2.5
2.5
2.5
2.5
2.5
2.5
2.5
2.5
2.5
2.5
2.5
2.5
2.5
2.5
2.5
2.5
2.5
2.5
2.49999
2.49998
2.49997
2.49995
2.49993
2.49992
2.49993
2.49995
2.49997
2.49998
2.49999
2.5
2.5
2.5
2.5
2.5
2.5
2.5
2.5
2.5
2.5
2.5
2.5
2.5
2.5
2.5
2.5
2.5
2.5
2.5
2.5
2.5
2.5
2.5
2.5
2.5
2.5
2.5
2.5
2.49999
2.49997
2.49994
2.49988
2.49982
2.49977
2.49975
2.49977
2.49982
2.49988
2.49994
2.49997
2.49999
2.5
2.5
2.5
2.5
2.5
2.5
2.5
2.5
2.5
2.5
2.5
2.5
2.5
2.5
2.5
2.5
2.5
2.5
2.5
2.5
2.5
2.5
2.5
2.5
2.5
2.5
2.49999
2.49997
2.49991
2.4998
2.49964
2.49949
2.49943
2.49943
2.49943
2.49949
2.49964
2.4998
2.49991
2.49997
2.49999
2.5
2.5
2.5
2.5
2.5
2.5
2.5
2.5
2.5
2.5
2.5
2.5
2.5
2.5
2.5
2.5
2.5
2.5
2.5
2.5
2.5
2.5
2.5
2.5
2.49999
2.49997
2.4999
2.49974
2.49946
2.49916
2.49907
2.49932
2.49953
2.49932
2.49907
2.49916
2.49946
2.49974
2.4999
2.49997
2.49999
2.5
2.5
2.5
2.5
2.5
2.5
2.5
2.5
2.5
2.5
2.5
2.5
2.5
2.5
2.5
2.5
2.5
2.5
2.5
2.5
2.5
2.5
2.49999
2.49997
2.49991
2.49974
2.49939
2.49893
2.49886
2.49997
2.50212
2.50331
2.50212
2.49997
2.49886
2.49893
2.49939
2.49974
2.49991
2.49997
2.49999
2.5
2.5
2.5
2.5
2.5
2.5
2.5
2.5
2.5
2.5
2.5
2.5
2.5
2.5
2.5
2.5
2.5
2.5
2.5
2.5
2.5
2.49998
2.49994
2.4998
2.49946
2.49893
2.4988
2.50088
2.50713
2.51576
2.51995
2.51576
2.50713
2.50088
2.4988
2.49893
2.49946
2.4998
2.49994
2.49998
2.5
2.5
2.5
2.5
2.5
2.5
2.5
2.5
2.5
2.5
2.5
2.5
2.5
2.5
2.5
2.5
2.5
2.5
2.5
2.5
2.49999
2.49997
2.49988
2.49964
2.49916
2.49886
2.50088
2.50991
2.52941
2.5528
2.56327
2.5528
2.52941
2.50991
2.50088
2.49886
2.49916
2.49964
2.49988
2.49997
2.49999
2.5
2.5
2.5
2.5
2.5
2.5
2.5
2.5
2.5
2.5
2.5
2.5
2.5
2.5
2.5
2.5
2.5
2.5
2.5
2.49998
2.49995
2.49982
2.49949
2.49907
2.49997
2.50713
2.52941
2.57118
2.61741
2.63695
2.61741
2.57118
2.52941
2.50713
2.49997
2.49907
2.49949
2.49982
2.49995
2.49999
2.5
2.5
2.5
2.5
2.5
2.5
2.5
2.5
2.5
2.5
2.5
2.5
2.5
2.5
2.5
2.5
2.5
2.5
2.5
2.49998
2.49993
2.49977
2.49943
2.49932
2.50212
2.51576
2.5528
2.61741
2.68588
2.71376
2.68588
2.61741
2.5528
2.51576
2.50212
2.49932
2.49943
2.49977
2.49993
2.49998
2.5
2.5
2.5
2.5
2.5
2.5
2.5
2.5
2.5
2.5
2.5
2.5
2.5
2.5
2.5
2.5
2.5
2.5
2.5
2.49998
2.49992
2.49975
2.49943
2.49953
2.50331
2.51995
2.56327
2.63695
2.71376
2.74436
2.71376
2.63695
2.56327
2.51995
2.50331
2.49953
2.49943
2.49975
2.49992
2.49998
2.5
2.5
2.5
2.5
2.5
2.5
2.5
2.5
2.5
2.5
2.5
2.5
2.5
2.5
2.5
2.5
2.5
2.5
2.5
2.49998
2.49993
2.49977
2.49943
2.49932
2.50212
2.51576
2.5528
2.61741
2.68588
2.71376
2.68588
2.61741
2.5528
2.51576
2.50212
2.49932
2.49943
2.49977
2.49993
2.49998
2.5
2.5
2.5
2.5
2.5
2.5
2.5
2.5
2.5
2.5
2.5
2.5
2.5
2.5
2.5
2.5
2.5
2.5
2.5
2.49998
2.49995
2.49982
2.49949
2.49907
2.49997
2.50713
2.52941
2.57118
2.61741
2.63695
2.61741
2.57118
2.52941
2.50713
2.49997
2.49907
2.49949
2.49982
2.49995
2.49999
2.5
2.5
2.5
2.5
2.5
2.5
2.5
2.5
2.5
2.5
2.5
2.5
2.5
2.5
2.5
2.5
2.5
2.5
2.5
2.49999
2.49997
2.49988
2.49964
2.49916
2.49886
2.50088
2.50991
2.52941
2.5528
2.56327
2.5528
2.52941
2.50991
2.50088
2.49886
2.49916
2.49964
2.49988
2.49997
2.49999
2.5
2.5
2.5
2.5
2.5
2.5
2.5
2.5
2.5
2.5
2.5
2.5
2.5
2.5
2.5
2.5
2.5
2.5
2.5
2.5
2.49998
2.49994
2.4998
2.49946
2.49893
2.4988
2.50088
2.50713
2.51576
2.51995
2.51576
2.50713
2.50088
2.4988
2.49893
2.49946
2.4998
2.49994
2.49998
2.5
2.5
2.5
2.5
2.5
2.5
2.5
2.5
2.5
2.5
2.5
2.5
2.5
2.5
2.5
2.5
2.5
2.5
2.5
2.5
2.5
2.49999
2.49997
2.49991
2.49974
2.49939
2.49893
2.49886
2.49997
2.50212
2.50331
2.50212
2.49997
2.49886
2.49893
2.49939
2.49974
2.49991
2.49997
2.49999
2.5
2.5
2.5
2.5
2.5
2.5
2.5
2.5
2.5
2.5
2.5
2.5
2.5
2.5
2.5
2.5
2.5
2.5
2.5
2.5
2.5
2.5
2.49999
2.49997
2.4999
2.49974
2.49946
2.49916
2.49907
2.49932
2.49953
2.49932
2.49907
2.49916
2.49946
2.49974
2.4999
2.49997
2.49999
2.5
2.5
2.5
2.5
2.5
2.5
2.5
2.5
2.5
2.5
2.5
2.5
2.5
2.5
2.5
2.5
2.5
2.5
2.5
2.5
2.5
2.5
2.5
2.5
2.49999
2.49997
2.49991
2.4998
2.49964
2.49949
2.49943
2.49943
2.49943
2.49949
2.49964
2.4998
2.49991
2.49997
2.49999
2.5
2.5
2.5
2.5
2.5
2.5
2.5
2.5
2.5
2.5
2.5
2.5
2.5
2.5
2.5
2.5
2.5
2.5
2.5
2.5
2.5
2.5
2.5
2.5
2.5
2.5
2.49999
2.49997
2.49994
2.49988
2.49982
2.49977
2.49975
2.49977
2.49982
2.49988
2.49994
2.49997
2.49999
2.5
2.5
2.5
2.5
2.5
2.5
2.5
2.5
2.5
2.5
2.5
2.5
2.5
2.5
2.5
2.5
2.5
2.5
2.5
2.5
2.5
2.5
2.5
2.5
2.5
2.5
2.5
2.5
2.49999
2.49998
2.49997
2.49995
2.49993
2.49992
2.49993
2.49995
2.49997
2.49998
2.49999
2.5
2.5
2.5
2.5
2.5
2.5
2.5
2.5
2.5
2.5
2.5
2.5
2.5
2.5
2.5
2.5
2.5
2.5
2.5
2.5
2.5
2.5
2.5
2.5
2.5
2.5
2.5
2.5
2.5
2.5
2.5
2.49999
2.49999
2.49998
2.49998
2.49998
2.49999
2.49999
2.5
2.5
2.5
2.5
2.5
2.5
2.5
2.5
2.5
2.5
2.5
2.5
2.5
2.5
2.5
2.50001
2.50001
2.50001
2.5
2.5
2.5
2.5
2.5
2.5
2.5
2.5
2.5
2.5
2.5
2.5
2.5
2.5
2.5
2.5
2.5
2.5
2.5
2.5
2.5
2.5
2.5
2.5
2.5
2.5
2.5
2.5
2.5
2.5
2.5
2.5
2.5
2.5
2.50001
2.50001
2.50002
2.50003
2.50003
2.50003
2.50002
2.50001
2.50001
2.5
2.5
2.5
2.5
2.5
2.5
2.5
2.5
2.5
2.5
2.5
2.5
2.5
2.5
2.5
2.5
2.5
2.5
2.5
2.5
2.5
2.5
2.5
2.5
2.5
2.5
2.5
2.5
2.5
2.5
2.50001
2.50002
2.50004
2.50007
2.50009
2.50009
2.50009
2.50007
2.50004
2.50002
2.50001
2.5
2.5
2.5
2.5
2.5
2.5
2.5
2.5
2.5
2.5
2.5
2.5
2.5
2.5
2.5
2.5
2.5
2.5
2.5
2.5
2.5
2.5
2.5
2.5
2.5
2.5
2.5
2.5
2.50001
2.50003
2.50007
2.50014
2.5002
2.50024
2.50025
2.50024
2.5002
2.50014
2.50007
2.50003
2.50001
2.5
2.5
2.5
2.5
2.5
2.5
2.5
2.5
2.5
2.5
2.5
2.5
2.5
2.5
2.5
2.5
2.5
2.5
2.5
2.5
2.5
2.5
2.5
2.5
2.5
2.5
2.50001
2.50004
2.50009
2.5002
2.50035
2.50044
2.50043
2.50039
2.50043
2.50044
2.50035
2.5002
2.50009
2.50004
2.50001
2.5
2.5
2.5
2.5
2.5
2.5
2.5
2.5
2.5
2.5
2.5
2.5
2.5
2.5
2.5
2.5
2.5
2.5
2.5
2.5
2.5
2.5
2.5
2.5
2.50001
2.50003
2.50009
2.50023
2.50045
2.50062
2.50046
2.49989
2.49951
2.49989
2.50046
2.50062
2.50045
2.50023
2.50009
2.50003
2.50001
2.5
2.5
2.5
2.5
2.5
2.5
2.5
2.5
2.5
2.5
2.5
2.5
2.5
2.5
2.5
2.5
2.5
2.5
2.5
2.5
2.5
2.5
2.50001
2.50002
2.50007
2.5002
2.50045
2.50069
2.50035
2.49862
2.49569
2.49405
2.49569
2.49862
2.50035
2.50069
2.50045
2.5002
2.50007
2.50002
2.50001
2.5
2.5
2.5
2.5
2.5
2.5
2.5
2.5
2.5
2.5
2.5
2.5
2.5
2.5
2.5
2.5
2.5
2.5
2.5
2.5
2.5
2.50001
2.50004
2.50014
2.50035
2.50062
2.50035
2.49786
2.49108
2.48148
2.47656
2.48148
2.49108
2.49786
2.50035
2.50062
2.50035
2.50014
2.50004
2.50001
2.5
2.5
2.5
2.5
2.5
2.5
2.5
2.5
2.5
2.5
2.5
2.5
2.5
2.5
2.5
2.5
2.5
2.5
2.5
2.5
2.5
2.50002
2.50007
2.5002
2.50044
2.50046
2.49862
2.49108
2.47398
2.45206
2.44173
2.45206
2.47398
2.49108
2.49862
2.50046
2.50044
2.5002
2.50007
2.50002
2.5
2.5
2.5
2.5
2.5
2.5
2.5
2.5
2.5
2.5
2.5
2.5
2.5
2.5
2.5
2.5
2.5
2.5
2.5
2.5
2.50001
2.50003
2.50009
2.50024
2.50043
2.49989
2.49569
2.48148
2.45206
2.41732
2.40247
2.41732
2.45206
2.48148
2.49569
2.49989
2.50043
2.50024
2.50009
2.50003
2.5
2.5
2.5
2.5
2.5
2.5
2.5
2.5
2.5
2.5
2.5
2.5
2.5
2.5
2.5
2.5
2.5
2.5
2.5
2.5
2.50001
2.50003
2.50009
2.50025
2.50039
2.49951
2.49405
2.47656
2.44173
2.40247
2.3867
2.40247
2.44173
2.47656
2.49405
2.49951
2.50039
2.50025
2.5001
2.50003
2.5
2.5
2.5
2.5
2.5
2.5
2.5
2.5
2.5
2.5
2.5
2.5
2.5
2.5
2.5
2.5
2.5
2.5
2.5
2.5
2.50001
2.50003
2.50009
2.50024
2.50043
2.49989
2.49569
2.48148
2.45206
2.41732
2.40247
2.41732
2.45206
2.48148
2.49569
2.49989
2.50043
2.50024
2.50009
2.50003
2.5
2.5
2.5
2.5
2.5
2.5
2.5
2.5
2.5
2.5
2.5
2.5
2.5
2.5
2.5
2.5
2.5
2.5
2.5
2.5
2.5
2.50002
2.50007
2.5002
2.50044
2.50046
2.49862
2.49108
2.47398
2.45206
2.44173
2.45206
2.47398
2.49108
2.49862
2.50046
2.50044
2.5002
2.50007
2.50002
2.5
2.5
2.5
2.5
2.5
2.5
2.5
2.5
2.5
2.5
2.5
2.5
2.5
2.5
2.5
2.5
2.5
2.5
2.5
2.5
2.5
2.50001
2.50004
2.50014
2.50035
2.50062
2.50035
2.49786
2.49108
2.48148
2.47656
2.48148
2.49108
2.49786
2.50035
2.50062
2.50035
2.50014
2.50004
2.50001
2.5
2.5
2.5
2.5
2.5
2.5
2.5
2.5
2.5
2.5
2.5
2.5
2.5
2.5
2.5
2.5
2.5
2.5
2.5
2.5
2.5
2.50001
2.50002
2.50007
2.5002
2.50045
2.50069
2.50035
2.49862
2.49569
2.49405
2.49569
2.49862
2.50035
2.50069
2.50045
2.5002
2.50007
2.50002
2.50001
2.5
2.5
2.5
2.5
2.5
2.5
2.5
2.5
2.5
2.5
2.5
2.5
2.5
2.5
2.5
2.5
2.5
2.5
2.5
2.5
2.5
2.5
2.50001
2.50003
2.50009
2.50023
2.50045
2.50062
2.50046
2.49989
2.49951
2.49989
2.50046
2.50062
2.50045
2.50023
2.50009
2.50003
2.50001
2.5
2.5
2.5
2.5
2.5
2.5
2.5
2.5
2.5
2.5
2.5
2.5
2.5
2.5
2.5
2.5
2.5
2.5
2.5
2.5
2.5
2.5
2.5
2.5
2.50001
2.50004
2.50009
2.5002
2.50035
2.50044
2.50043
2.50039
2.50043
2.50044
2.50035
2.5002
2.50009
2.50004
2.50001
2.5
2.5
2.5
2.5
2.5
2.5
2.5
2.5
2.5
2.5
2.5
2.5
2.5
2.5
2.5
2.5
2.5
2.5
2.5
2.5
2.5
2.5
2.5
2.5
2.5
2.5
2.50001
2.50003
2.50007
2.50014
2.5002
2.50024
2.50025
2.50024
2.5002
2.50014
2.50007
2.50003
2.50001
2.5
2.5
2.5
2.5
2.5
2.5
2.5
2.5
2.5
2.5
2.5
2.5
2.5
2.5
2.5
2.5
2.5
2.5
2.5
2.5
2.5
2.5
2.5
2.5
2.5
2.5
2.5
2.5
2.50001
2.50002
2.50004
2.50007
2.50009
2.5001
2.50009
2.50007
2.50004
2.50002
2.50001
2.5
2.5
2.5
2.5
2.5
2.5
2.5
2.5
2.5
2.5
2.5
2.5
2.5
2.5
2.5
2.5
2.5
2.5
2.5
2.5
2.5
2.5
2.5
2.5
2.5
2.5
2.5
2.5
2.5
2.5
2.50001
2.50001
2.50002
2.50003
2.50003
2.50003
2.50002
2.50001
2.50001
2.5
2.5
2.5
2.5
2.5
