# vtk DataFile Version 3.0
Brusselator Concentration Output
ASCII
DATASET STRUCTURED_POINTS
DIMENSIONS 40 40 1
ORIGIN 0.0 0.0 0.0
SPACING 0.005 0.005 1.0
POINT_DATA 1600
SCALARS C1 double 1
LOOKUP_TABLE default
1
0.999996
0.999984
0.999956
0.999905
0.999834
0.99976
0.999711
0.999701
0.999716
0.999726
0.999716
0.999701
0.999711
0.99976
0.999834
0.999905
0.999956
0.999984
0.999996
0.999999
1
1
1
1
1
1
1
1
1
1
1
1
1
1
1
1
1
1
1
0.999996
0.999986
0.999959
0.999905
0.999826
0.999748
0.999727
0.999812
0.999989
1.00017
1.00024
1.00017
0.999989
0.999812
0.999727
0.999748
0.999826
0.999905
0.999958
0.999985
0.999996
1
1
1
1
1
1
1
1
1
1
1
1
1
1
1
1
1
1
1
0.999984
0.999959
0.999899
0.999803
0.999709
0.99973
1.00002
1.00065
1.00148
1.00218
1.00245
1.00218
1.00148
1.00065
1.00002
0.99973
0.999709
0.999803
0.999899
0.999959
0.999987
0.999997
1
1
1
1
1
1
1
1
1
1
1
1
1
1
1
1
1
1
0.999956
0.999905
0.999803
0.999692
0.999738
1.00026
1.00161
1.00377
1.0062
1.00805
1.00873
1.00805
1.0062
1.00377
1.00161
1.00026
0.999738
0.999692
0.999803
0.999907
0.999966
0.99999
0.999998
1
1
1
1
1
1
1
1
1
1
1
1
1
1
1
1
1
0.999905
0.999826
0.999709
0.999738
1.00038
1.00235
1.00618
1.01143
1.01654
1.01992
1.02103
1.01992
1.01654
1.01143
1.00618
1.00235
1.00038
0.999738
0.99971
0.999832
0.999929
0.999976
0.999994
0.999999
1
1
1
1
1
1
1
1
1
1
1
1
1
1
1
1
0.999834
0.999748
0.99973
1.00026
1.00235
1.00724
1.01527
1.02453
1.03152
1.03461
1.03525
1.03461
1.03152
1.02453
1.01527
1.00724
1.00235
1.00026
0.999733
0.999762
0.999879
0.999954
0.999987
0.999997
1
1
1
1
1
1
1
1
1
1
1
1
1
1
1
1
0.99976
0.999727
1.00002
1.00161
1.00618
1.01527
1.0278
1.0383
1.04097
1.03737
1.03492
1.03737
1.04097
1.0383
1.0278
1.01527
1.00618
1.00161
1.00003
0.999751
0.999832
0.999927
0.999976
0.999994
0.999999
1
1
1
1
1
1
1
1
1
1
1
1
1
1
1
0.999711
0.999812
1.00065
1.00377
1.01143
1.02453
1.0383
1.04173
1.02902
1.01054
1.00229
1.01054
1.02902
1.04173
1.0383
1.02453
1.01143
1.00377
1.00066
0.999848
0.999809
0.999902
0.999964
0.99999
0.999998
1
1
1
1
1
1
1
1
1
1
1
1
1
1
1
0.999701
0.999989
1.00148
1.0062
1.01654
1.03152
1.04097
1.02902
0.994798
0.959867
0.945947
0.959867
0.994798
1.02902
1.04097
1.03152
1.01654
1.0062
1.00149
1.00004
0.999816
0.999885
0.999954
0.999986
0.999997
1
1
1
1
1
1
1
1
1
1
1
1
1
1
1
0.999716
1.00017
1.00218
1.00805
1.01992
1.03461
1.03737
1.01054
0.959867
0.914412
0.897247
0.914412
0.959867
1.01054
1.03737
1.03461
1.01992
1.00805
1.0022
1.00022
0.999839
0.999877
0.999948
0.999983
0.999996
0.999999
1
1
1
1
1
1
1
1
1
1
1
1
1
1
0.999726
1.00024
1.00245
1.00873
1.02103
1.03525
1.03492
1.00229
0.945947
0.897247
0.87916
0.897247
0.945947
1.00229
1.03492
1.03525
1.02103
1.00873
1.00247
1.0003
0.999851
0.999875
0.999945
0.999982
0.999996
0.999999
1
1
1
1
1
1
1
1
1
1
1
1
1
1
0.999716
1.00017
1.00218
1.00805
1.01992
1.03461
1.03737
1.01054
0.959867
0.914412
0.897247
0.914412
0.959867
1.01054
1.03737
1.03461
1.01992
1.00805
1.0022
1.00022
0.999839
0.999877
0.999948
0.999983
0.999996
0.999999
1
1
1
1
1
1
1
1
1
1
1
1
1
1
0.999701
0.999989
1.00148
1.0062
1.01654
1.03152
1.04097
1.02902
0.994798
0.959867
0.945947
0.959867
0.994798
1.02902
1.04097
1.03152
1.01654
1.0062
1.00149
1.00004
0.999816
0.999885
0.999954
0.999986
0.999997
1
1
1
1
1
1
1
1
1
1
1
1
1
1
1
0.999711
0.999812
1.00065
1.00377
1.01143
1.02453
1.0383
1.04173
1.02902
1.01054
1.00229
1.01054
1.02902
1.04173
1.0383
1.02453
1.01143
1.00377
1.00066
0.999848
0.999809
0.999902
0.999964
0.99999
0.999998
1
1
1
1
1
1
1
1
1
1
1
1
1
1
1
0.99976
0.999727
1.00002
1.00161
1.00618
1.01527
1.0278
1.0383
1.04097
1.03737
1.03492
1.03737
1.04097
1.0383
1.0278
1.01527
1.00618
1.00161
1.00003
0.999751
0.999832
0.999927
0.999976
0.999994
0.999999
1
1
1
1
1
1
1
1
1
1
1
1
1
1
1
0.999834
0.999748
0.99973
1.00026
1.00235
1.00724
1.01527
1.02453
1.03152
1.03461
1.03525
1.03461
1.03152
1.02453
1.01527
1.00724
1.00235
1.00026
0.999733
0.999762
0.999879
0.999954
0.999987
0.999997
1
1
1
1
1
1
1
1
1
1
1
1
1
1
1
1
0.999905
0.999826
0.999709
0.999738
1.00038
1.00235
1.00618
1.01143
1.01654
1.01992
1.02103
1.01992
1.01654
1.01143
1.00618
1.00235
1.00038
0.999738
0.99971
0.999832
0.999929
0.999976
0.999994
0.999999
1
1
1
1
1
1
1
1
1
1
1
1
1
1
1
1
0.999956
0.999905
0.999803
0.999692
0.999738
1.00026
1.00161
1.00377
1.0062
1.00805
1.00873
1.00805
1.0062
1.00377
1.00161
1.00026
0.999738
0.999692
0.999803
0.999907
0.999966
0.99999
0.999998
1
1
1
1
1
1
1.00001
1.00001
1.00001
1
1
1
1
1
1
1
1
0.999984
0.999958
0.999899
0.999803
0.99971
0.999733
1.00003
1.00066
1.00149
1.0022
1.00247
1.0022
1.00149
1.00066
1.00003
0.999733
0.99971
0.999803
0.999899
0.999959
0.999987
0.999997
1
1
1
1
1.00001
1.00001
1.00002
1.00002
1.00002
1.00002
1.00002
1.00001
1.00001
1
1
1
1
1
0.999996
0.999985
0.999959
0.999907
0.999832
0.999762
0.999751
0.999848
1.00004
1.00022
1.0003
1.00022
1.00004
0.999848
0.999751
0.999762
0.999832
0.999907
0.999959
0.999985
0.999996
1
1
1
1.00001
1.00002
1.00003
1.00004
1.00005
1.00005
1.00005
1.00005
1.00005
1.00004
1.00003
1.00002
1.00001
1
1
1
0.999999
0.999996
0.999987
0.999966
0.999929
0.999879
0.999832
0.999809
0.999816
0.999839
0.999851
0.999839
0.999816
0.999809
0.999832
0.999879
0.999929
0.999966
0.999987
0.999996
0.999999
1
1
1.00001
1.00003
1.00005
1.00007
1.00009
1.00009
1.00009
1.00009
1.00009
1.00009
1.00009
1.00007
1.00005
1.00003
1.00001
1
1
1
1
0.999997
0.99999
0.999976
0.999954
0.999927
0.999902
0.999885
0.999877
0.999875
0.999877
0.999885
0.999902
0.999927
0.999954
0.999976
0.99999
0.999997
1
1
1
1.00001
1.00003
1.00007
1.0001
1.00013
1.00011
1.00007
1.00002
0.999993
1.00002
1.00007
1.00011
1.00013
1.0001
1.00007
1.00003
1.00001
1.00001
1
1
1
0.999998
0.999994
0.999987
0.999976
0.999964
0.999954
0.999948
0.999945
0.999948
0.999954
0.999964
0.999976
0.999987
0.999994
0.999998
1
1
1
1.00001
1.00004
1.00008
1.00013
1.00015
1.0001
0.999915
0.999647
0.999405
0.999309
0.999405
0.999647
0.999915
1.0001
1.00015
1.00013
1.00008
1.00004
1.00002
1
1
1
1
0.999999
0.999997
0.999994
0.99999
0.999986
0.999983
0.999982
0.999983
0.999986
0.99999
0.999994
0.999997
0.999999
1
1
1
1.00001
1.00003
1.00008
1.00014
1.00017
1.00005
0.999647
0.998915
0.998033
0.997326
0.997061
0.997326
0.998033
0.998915
0.999647
1.00005
1.00017
1.00014
1.00008
1.00005
1
1
1
1
1
1
0.999999
0.999998
0.999997
0.999996
0.999996
0.999996
0.999997
0.999998
0.999999
1
1
1
1
1.00001
1.00003
1.00007
1.00013
1.00017
1.00003
0.999426
0.998111
0.996157
0.9941
0.992622
0.992102
0.992622
0.9941
0.996157
0.998111
0.999426
1.00003
1.00017
1.00014
1.00009
1
1
1
1
1
1
1
1
1
0.999999
0.999999
0.999999
1
1
1
1
1
1
1
1.00002
1.00005
1.0001
1.00015
1.00005
0.999426
0.997753
0.99475
0.99091
0.987441
0.985324
0.984669
0.985324
0.987441
0.99091
0.99475
0.997753
0.999427
1.00006
1.00017
1.00015
1
1
1
1
1
1
1
1
1
1
1
1
1
1
1
1
1
1
1.00001
1.00003
1.00007
1.00013
1.0001
0.999647
0.998111
0.99475
0.989563
0.983972
0.980064
0.978588
0.978388
0.978588
0.980064
0.983972
0.989563
0.99475
0.998113
0.999655
1.00012
1.00019
1
1
1
1
1
1
1
1
1
1
1
1
1
1
1
1
1
1
1.00001
1.00004
1.00009
1.00011
0.999915
0.998915
0.996157
0.99091
0.983972
0.978204
0.976494
0.978308
0.979686
0.978308
0.976494
0.978204
0.983972
0.990911
0.99616
0.998928
0.999953
1.0002
1
1
1
1
1
1
1
1
1
1
1
1
1
1
1
1
1
1
1.00002
1.00005
1.00009
1.00007
0.999647
0.998033
0.9941
0.987441
0.980064
0.976494
0.98011
0.988065
0.992188
0.988065
0.98011
0.976494
0.980064
0.987442
0.994105
0.99805
0.999693
1.00016
1
1
1
1
1
1
1
1
1
1
1
1
1
1
1
1
1
1.00001
1.00002
1.00005
1.00009
1.00002
0.999405
0.997326
0.992622
0.985324
0.978588
0.978308
0.988065
1.0026
1.00959
1.0026
0.988065
0.978308
0.978589
0.985325
0.992628
0.997346
0.999457
1.00011
1
1
1
1
1
1
1
1
1
1
1
1
1
1
1
1
1
1.00001
1.00002
1.00005
1.00009
0.999993
0.999309
0.997061
0.992102
0.984669
0.978388
0.979686
0.992188
1.00959
1.01781
1.00959
0.992188
0.979686
0.978389
0.98467
0.992108
0.997082
0.999363
1.00008
1
1
1
1
1
1
1
1
1
1
1
1
1
1
1
1
1
1.00001
1.00002
1.00005
1.00009
1.00002
0.999405
0.997326
0.992622
0.985324
0.978588
0.978308
0.988065
1.0026
1.00959
1.0026
0.988065
0.978308
0.978589
0.985325
0.992628
0.997346
0.999457
1.00011
1
1
1
1
1
1
1
1
1
1
1
1
1
1
1
1
1
1
1.00002
1.00005
1.00009
1.00007
0.999647
0.998033
0.9941
0.987441
0.980064
0.976494
0.98011
0.988065
0.992188
0.988065
0.98011
0.976494
0.980064
0.987442
0.994105
0.99805
0.999693
1.00016
1
1
1
1
1
1
1
1
1
1
1
1
1
1
1
1
1
1
1.00001
1.00004
1.00009
1.00011
0.999915
0.998915
0.996157
0.99091
0.983972
0.978204
0.976494
0.978308
0.979686
0.978308
0.976494
0.978204
0.983972
0.990911
0.99616
0.998928
0.999953
1.0002
1
1
1
1
1
1
1
1
1
1
1
1
1
1
1
1
1
1
1.00001
1.00003
1.00007
1.00013
1.0001
0.999647
0.998111
0.99475
0.989563
0.983972
0.980064
0.978589
0.978389
0.978589
0.980064
0.983972
0.989563
0.99475
0.998113
0.999655
1.00012
1.00019
1
1
1
1
1
1
1
1
1
1
1
1
1
1
1
1
1
1
1
1.00002
1.00005
1.0001
1.00015
1.00005
0.999426
0.997753
0.99475
0.990911
0.987442
0.985325
0.98467
0.985325
0.987442
0.990911
0.99475
0.997754
0.999427
1.00006
1.00017
1.00015
1
1
1
1
1
1
1
1
1
1
1
1
1
1
1
1
1
1
1
1.00001
1.00003
1.00007
1.00013
1.00017
1.00003
0.999427
0.998113
0.99616
0.994105
0.992628
0.992108
0.992628
0.994105
0.99616
0.998113
0.999427
1.00003
1.00017
1.00014
1.00009
1
1
1
1
1
1
1
1
1
1
1
1
1
1
1
1
1
1
1
1
1.00001
1.00003
1.00008
1.00014
1.00017
1.00006
0.999655
0.998928
0.99805
0.997346
0.997082
0.997346
0.99805
0.998928
0.999655
1.00006
1.00017
1.00014
1.00008
1.00005
1
1
1
1
1
1
1
1
1
1
1
1
1
1
1
1
1
1
1
1
1
1.00001
1.00004
1.00008
1.00014
1.00017
1.00012
0.999953
0.999693
0.999457
0.999363
0.999457
0.999693
0.999953
1.00012
1.00017
1.00014
1.00008
1.00004
1.00002
1
1
1
1
1
1
1
1
1
1
1
1
1
1
1
1
1
1
1
1
1
1.00001
1.00002
1.00005
1.00009
1.00015
1.00019
1.0002
1.00016
1.00011
1.00008
1.00011
1.00016
1.0002
1.00019
1.00015
1.00009
1.00005
1.00002
1.00001
SCALARS C2 double 1
LOOKUP_TABLE default
2.5
2.5
2.50001
2.50004
2.5001
2.5002
2.50035
2.5005
2.50062
2.50069
2.50071
2.50069
2.50062
2.5005
2.50035
2.5002
2.5001
2.50004
2.50001
2.5
2.5
2.5
2.5
2.5
2.5
2.5
2.5
2.5
2.5
2.5
2.5
2.5
2.5
2.5
2.5
2.5
2.5
2.5
2.5
2.5
2.5
2.50001
2.50004
2.5001
2.50023
2.50042
2.50064
2.50079
2.50083
2.50079
2.50076
2.50079
2.50083
2.50079
2.50064
2.50042
2.50023
2.5001
2.50004
2.50001
2.5
2.5
2.5
2.5
2.5
2.5
2.5
2.5
2.5
2.5
2.5
2.5
2.5
2.5
2.5
2.5
2.5
2.5
2.5
2.5
2.50001
2.50004
2.50011
2.50028
2.50054
2.50085
2.50102
2.50085
2.50033
2.49974
2.49948
2.49974
2.50033
2.50085
2.50102
2.50085
2.50054
2.50028
2.50011
2.50004
2.50001
2.5
2.5
2.5
2.5
2.5
2.5
2.5
2.5
2.5
2.5
2.5
2.5
2.5
2.5
2.5
2.5
2.5
2.5
2.5
2.50004
2.5001
2.50028
2.50059
2.50099
2.50118
2.5006
2.49887
2.49626
2.4939
2.49295
2.4939
2.49626
2.49887
2.5006
2.50118
2.50099
2.50059
2.50028
2.5001
2.50003
2.50001
2.5
2.5
2.5
2.5
2.5
2.5
2.5
2.5
2.5
2.5
2.5
2.5
2.5
2.5
2.5
2.5
2.5
2.5
2.5001
2.50023
2.50054
2.50099
2.50122
2.5003
2.49697
2.49066
2.48279
2.47639
2.47398
2.47639
2.48279
2.49066
2.49697
2.5003
2.50122
2.50099
2.50054
2.50023
2.50008
2.50002
2.5
2.5
2.5
2.5
2.5
2.5
2.5
2.5
2.5
2.5
2.5
2.5
2.5
2.5
2.5
2.5
2.5
2.5
2.5002
2.50042
2.50085
2.50118
2.5003
2.49606
2.48609
2.47039
2.45334
2.4411
2.43688
2.4411
2.45334
2.47039
2.48609
2.49606
2.5003
2.50118
2.50085
2.50041
2.50016
2.50005
2.50001
2.5
2.5
2.5
2.5
2.5
2.5
2.5
2.5
2.5
2.5
2.5
2.5
2.5
2.5
2.5
2.5
2.5
2.50035
2.50064
2.50102
2.5006
2.49697
2.48609
2.46483
2.43613
2.41028
2.39573
2.39171
2.39573
2.41028
2.43613
2.46483
2.48609
2.49697
2.5006
2.50102
2.50062
2.50026
2.50009
2.50002
2.5
2.5
2.5
2.5
2.5
2.5
2.5
2.5
2.5
2.5
2.5
2.5
2.5
2.5
2.5
2.5
2.5
2.5005
2.50079
2.50085
2.49887
2.49066
2.47039
2.43613
2.39808
2.37405
2.36873
2.36969
2.36873
2.37405
2.39808
2.43613
2.47039
2.49066
2.49887
2.50084
2.50075
2.50037
2.50013
2.50004
2.50001
2.5
2.5
2.5
2.5
2.5
2.5
2.5
2.5
2.5
2.5
2.5
2.5
2.5
2.5
2.5
2.5
2.50062
2.50083
2.50033
2.49626
2.48279
2.45334
2.41028
2.37405
2.36645
2.38093
2.3904
2.38093
2.36645
2.37405
2.41028
2.45334
2.48279
2.49626
2.50031
2.50077
2.50045
2.50018
2.50005
2.50001
2.5
2.5
2.5
2.5
2.5
2.5
2.5
2.5
2.5
2.5
2.5
2.5
2.5
2.5
2.5
2.5
2.50069
2.50079
2.49974
2.4939
2.47639
2.4411
2.39573
2.36873
2.38093
2.41429
2.43123
2.41429
2.38093
2.36873
2.39573
2.4411
2.47639
2.49389
2.49972
2.50072
2.50049
2.5002
2.50006
2.50002
2.5
2.5
2.5
2.5
2.5
2.5
2.5
2.5
2.5
2.5
2.5
2.5
2.5
2.5
2.5
2.5
2.50071
2.50076
2.49948
2.49295
2.47398
2.43688
2.39171
2.36969
2.3904
2.43123
2.45106
2.43123
2.3904
2.36969
2.39171
2.43688
2.47398
2.49295
2.49947
2.50069
2.5005
2.50021
2.50007
2.50002
2.5
2.5
2.5
2.5
2.5
2.5
2.5
2.5
2.5
2.5
2.5
2.5
2.5
2.5
2.5
2.5
2.50069
2.50079
2.49974
2.4939
2.47639
2.4411
2.39573
2.36873
2.38093
2.41429
2.43123
2.41429
2.38093
2.36873
2.39573
2.4411
2.47639
2.49389
2.49972
2.50072
2.50049
2.5002
2.50006
2.50002
2.5
2.5
2.5
2.5
2.5
2.5
2.5
2.5
2.5
2.5
2.5
2.5
2.5
2.5
2.5
2.5
2.50062
2.50083
2.50033
2.49626
2.48279
2.45334
2.41028
2.37405
2.36645
2.38093
2.3904
2.38093
2.36645
2.37405
2.41028
2.45334
2.48279
2.49626
2.50031
2.50077
2.50045
2.50018
2.50005
2.50001
2.5
2.5
2.5
2.5
2.5
2.5
2.5
2.5
2.5
2.5
2.5
2.5
2.5
2.5
2.5
2.5
2.5005
2.50079
2.50085
2.49887
2.49066
2.47039
2.43613
2.39808
2.37405
2.36873
2.36969
2.36873
2.37405
2.39808
2.43613
2.47039
2.49066
2.49887
2.50084
2.50075
2.50037
2.50013
2.50004
2.50001
2.5
2.5
2.5
2.5
2.5
2.5
2.5
2.5
2.5
2.5
2.5
2.5
2.5
2.5
2.5
2.5
2.50035
2.50064
2.50102
2.5006
2.49697
2.48609
2.46483
2.43613
2.41028
2.39573
2.39171
2.39573
2.41028
2.43613
2.46483
2.48609
2.49697
2.5006
2.50102
2.50062
2.50026
2.50009
2.50002
2.5
2.5
2.5
2.5
2.5
2.5
2.5
2.5
2.5
2.5
2.5
2.5
2.5
2.5
2.5
2.5
2.5
2.5002
2.50042
2.50085
2.50118
2.5003
2.49606
2.48609
2.47039
2.45334
2.4411
2.43688
2.4411
2.45334
2.47039
2.48609
2.49606
2.5003
2.50118
2.50085
2.50041
2.50016
2.50005
2.50001
2.5
2.5
2.5
2.5
2.5
2.5
2.5
2.5
2.5
2.5
2.5
2.5
2.5
2.5
2.5
2.5
2.5
2.5001
2.50023
2.50054
2.50099
2.50122
2.5003
2.49697
2.49066
2.48279
2.47639
2.47398
2.47639
2.48279
2.49066
2.49697
2.5003
2.50122
2.50099
2.50054
2.50023
2.50008
2.50002
2.5
2.5
2.5
2.5
2.5
2.5
2.5
2.5
2.5
2.5
2.5
2.5
2.5
2.5
2.5
2.5
2.5
2.5
2.50004
2.5001
2.50028
2.50059
2.50099
2.50118
2.5006
2.49887
2.49626
2.49389
2.49295
2.49389
2.49626
2.49887
2.5006
2.50118
2.50099
2.50059
2.50028
2.5001
2.50003
2.50001
2.5
2.5
2.5
2.5
2.5
2.5
2.5
2.49999
2.49999
2.49999
2.5
2.5
2.5
2.5
2.5
2.5
2.5
2.5
2.50001
2.50004
2.50011
2.50028
2.50054
2.50085
2.50102
2.50084
2.50031
2.49972
2.49947
2.49972
2.50031
2.50084
2.50102
2.50085
2.50054
2.50028
2.50011
2.50004
2.50001
2.5
2.5
2.5
2.5
2.5
2.49999
2.49999
2.49998
2.49998
2.49998
2.49998
2.49998
2.49999
2.49999
2.5
2.5
2.5
2.5
2.5
2.5
2.50001
2.50004
2.5001
2.50023
2.50041
2.50062
2.50075
2.50077
2.50072
2.50069
2.50072
2.50077
2.50075
2.50062
2.50041
2.50023
2.5001
2.50004
2.50001
2.5
2.5
2.5
2.5
2.49999
2.49999
2.49997
2.49995
2.49994
2.49992
2.49992
2.49992
2.49994
2.49995
2.49997
2.49999
2.49999
2.5
2.5
2.5
2.5
2.5
2.50001
2.50003
2.50008
2.50016
2.50026
2.50037
2.50045
2.50049
2.5005
2.50049
2.50045
2.50037
2.50026
2.50016
2.50008
2.50003
2.50001
2.5
2.5
2.5
2.5
2.49999
2.49997
2.49995
2.4999
2.49986
2.49982
2.4998
2.49979
2.4998
2.49982
2.49986
2.4999
2.49995
2.49997
2.49999
2.5
2.5
2.5
2.5
2.5
2.50001
2.50002
2.50005
2.50009
2.50013
2.50018
2.5002
2.50021
2.5002
2.50018
2.50013
2.50009
2.50005
2.50002
2.50001
2.5
2.5
2.5
2.5
2.49999
2.49997
2.49992
2.49984
2.49975
2.49967
2.49963
2.49962
2.49962
2.49962
2.49963
2.49967
2.49975
2.49984
2.49992
2.49997
2.49999
2.5
2.5
2.5
2.5
2.5
2.5
2.50001
2.50002
2.50004
2.50005
2.50006
2.50007
2.50006
2.50005
2.50004
2.50002
2.50001
2.5
2.5
2.5
2.5
2.5
2.49999
2.49996
2.4999
2.49979
2.49964
2.49952
2.49949
2.4996
2.49975
2.49982
2.49975
2.4996
2.49949
2.49952
2.49964
2.49979
2.4999
2.49996
2.49999
2.5
2.5
2.5
2.5
2.5
2.5
2.5
2.50001
2.50001
2.50002
2.50002
2.50002
2.50001
2.50001
2.5
2.5
2.5
2.5
2.5
2.5
2.49999
2.49997
2.4999
2.49977
2.49958
2.49941
2.49944
2.49988
2.50067
2.50144
2.50176
2.50144
2.50067
2.49988
2.49944
2.49941
2.49958
2.49977
2.4999
2.49996
2.5
2.5
2.5
2.5
2.5
2.5
2.5
2.5
2.5
2.5
2.5
2.5
2.5
2.5
2.5
2.5
2.5
2.5
2.5
2.49999
2.49997
2.49992
2.49979
2.49958
2.49937
2.49946
2.50035
2.50234
2.50505
2.5074
2.50832
2.5074
2.50505
2.50234
2.50035
2.49946
2.49937
2.49958
2.49979
2.49989
2.5
2.5
2.5
2.5
2.5
2.5
2.5
2.5
2.5
2.5
2.5
2.5
2.5
2.5
2.5
2.5
2.5
2.5
2.5
2.49999
2.49995
2.49984
2.49964
2.49941
2.49946
2.50058
2.50376
2.50926
2.51581
2.52099
2.5229
2.52099
2.51581
2.50926
2.50376
2.50058
2.49946
2.4994
2.49963
2.49979
2.5
2.5
2.5
2.5
2.5
2.5
2.5
2.5
2.5
2.5
2.5
2.5
2.5
2.5
2.5
2.5
2.5
2.5
2.49999
2.49997
2.4999
2.49975
2.49952
2.49944
2.50035
2.50376
2.51118
2.52239
2.53436
2.54297
2.54593
2.54297
2.53436
2.52239
2.51118
2.50376
2.50035
2.49944
2.49949
2.49966
2.5
2.5
2.5
2.5
2.5
2.5
2.5
2.5
2.5
2.5
2.5
2.5
2.5
2.5
2.5
2.5
2.5
2.5
2.49999
2.49995
2.49986
2.49967
2.49949
2.49988
2.50234
2.50926
2.52239
2.54018
2.55713
2.56769
2.57086
2.56769
2.55713
2.54018
2.52239
2.50926
2.50234
2.49987
2.49944
2.49953
2.5
2.5
2.5
2.5
2.5
2.5
2.5
2.5
2.5
2.5
2.5
2.5
2.5
2.5
2.5
2.5
2.5
2.5
2.49998
2.49994
2.49982
2.49963
2.4996
2.50067
2.50505
2.51581
2.53436
2.55713
2.57583
2.58457
2.58615
2.58457
2.57583
2.55713
2.53436
2.51581
2.50505
2.50065
2.49953
2.49945
2.5
2.5
2.5
2.5
2.5
2.5
2.5
2.5
2.5
2.5
2.5
2.5
2.5
2.5
2.5
2.5
2.5
2.49999
2.49998
2.49992
2.4998
2.49962
2.49975
2.50144
2.5074
2.52099
2.54297
2.56769
2.58457
2.58836
2.58705
2.58836
2.58457
2.56769
2.54297
2.52099
2.5074
2.50142
2.49967
2.49942
2.5
2.5
2.5
2.5
2.5
2.5
2.5
2.5
2.5
2.5
2.5
2.5
2.5
2.5
2.5
2.5
2.5
2.49999
2.49998
2.49992
2.49979
2.49962
2.49982
2.50176
2.50832
2.5229
2.54593
2.57086
2.58615
2.58705
2.58418
2.58705
2.58615
2.57086
2.54593
2.5229
2.50831
2.50174
2.49974
2.49941
2.5
2.5
2.5
2.5
2.5
2.5
2.5
2.5
2.5
2.5
2.5
2.5
2.5
2.5
2.5
2.5
2.5
2.49999
2.49998
2.49992
2.4998
2.49962
2.49975
2.50144
2.5074
2.52099
2.54297
2.56769
2.58457
2.58836
2.58705
2.58836
2.58457
2.56769
2.54297
2.52099
2.5074
2.50142
2.49967
2.49942
2.5
2.5
2.5
2.5
2.5
2.5
2.5
2.5
2.5
2.5
2.5
2.5
2.5
2.5
2.5
2.5
2.5
2.5
2.49998
2.49994
2.49982
2.49963
2.4996
2.50067
2.50505
2.51581
2.53436
2.55713
2.57583
2.58457
2.58615
2.58457
2.57583
2.55713
2.53436
2.51581
2.50505
2.50065
2.49953
2.49945
2.5
2.5
2.5
2.5
2.5
2.5
2.5
2.5
2.5
2.5
2.5
2.5
2.5
2.5
2.5
2.5
2.5
2.5
2.49999
2.49995
2.49986
2.49967
2.49949
2.49988
2.50234
2.50926
2.52239
2.54018
2.55713
2.56769
2.57086
2.56769
2.55713
2.54018
2.52239
2.50926
2.50234
2.49987
2.49944
2.49953
2.5
2.5
2.5
2.5
2.5
2.5
2.5
2.5
2.5
2.5
2.5
2.5
2.5
2.5
2.5
2.5
2.5
2.5
2.49999
2.49997
2.4999
2.49975
2.49952
2.49944
2.50035
2.50376
2.51118
2.52239
2.53436
2.54297
2.54593
2.54297
2.53436
2.52239
2.51118
2.50376
2.50035
2.49944
2.49949
2.49966
2.5
2.5
2.5
2.5
2.5
2.5
2.5
2.5
2.5
2.5
2.5
2.5
2.5
2.5
2.5
2.5
2.5
2.5
2.5
2.49999
2.49995
2.49984
2.49964
2.49941
2.49946
2.50058
2.50376
2.50926
2.51581
2.52099
2.5229
2.52099
2.51581
2.50926
2.50376
2.50058
2.49946
2.4994
2.49963
2.49979
2.5
2.5
2.5
2.5
2.5
2.5
2.5
2.5
2.5
2.5
2.5
2.5
2.5
2.5
2.5
2.5
2.5
2.5
2.5
2.49999
2.49997
2.49992
2.49979
2.49958
2.49937
2.49946
2.50035
2.50234
2.50505
2.5074
2.50831
2.5074
2.50505
2.50234
2.50035
2.49946
2.49937
2.49958
2.49979
2.49989
2.5
2.5
2.5
2.5
2.5
2.5
2.5
2.5
2.5
2.5
2.5
2.5
2.5
2.5
2.5
2.5
2.5
2.5
2.5
2.5
2.49999
2.49997
2.4999
2.49977
2.49958
2.4994
2.49944
2.49987
2.50065
2.50142
2.50174
2.50142
2.50065
2.49987
2.49944
2.4994
2.49958
2.49977
2.4999
2.49996
2.5
2.5
2.5
2.5
2.5
2.5
2.5
2.5
2.5
2.5
2.5
2.5
2.5
2.5
2.5
2.5
2.5
2.5
2.5
2.5
2.5
2.49999
2.49996
2.4999
2.49979
2.49963
2.49949
2.49944
2.49953
2.49967
2.49974
2.49967
2.49953
2.49944
2.49949
2.49963
2.49979
2.4999
2.49996
2.49999
2.5
2.5
2.5
2.5
2.5
2.5
2.5
2.5
2.5
2.5
2.5
2.5
2.5
2.5
2.5
2.5
2.5
2.5
2.5
2.5
2.5
2.5
2.49999
2.49996
2.49989
2.49979
2.49966
2.49953
2.49945
2.49942
2.49941
2.49942
2.49945
2.49953
2.49966
2.49979
2.49989
2.49996
2.49999
2.5
