# vtk DataFile Version 3.0
Brusselator Concentration Output
ASCII
DATASET STRUCTURED_POINTS
DIMENSIONS 40 40 1
ORIGIN 0.0 0.0 0.0
SPACING 0.005 0.005 1.0
POINT_DATA 1600
SCALARS C1 double 1
LOOKUP_TABLE default
1
1
1
1
1
1.00001
1.00002
1.00003
1.00006
1.00009
1.0001
1.00009
1.00006
1.00003
1.00002
1.00001
1
1
1
1
1
1
1
1
1
1
1
1
1
1
1
1
1
1
1
1
1
1
1
1
1
1
1
1
1.00001
1.00002
1.00006
1.00013
1.00023
1.00031
1.00034
1.00031
1.00023
1.00013
1.00006
1.00002
1.00001
1
1
1
1
1
1
1
1
1
1
1
1
1
1
1
1
1
1
1
1
1
1
1
1
1
1
1.00001
1.00003
1.0001
1.00025
1.00052
1.00085
1.00113
1.00123
1.00113
1.00085
1.00052
1.00025
1.0001
1.00003
1.00001
1
1
1
1
1
1
1
1
1
1
1
1
1
1
1
1
1
1
1
1
1
1
1
1
1.00001
1.00004
1.00013
1.00037
1.00089
1.00173
1.00268
1.00332
1.0035
1.00332
1.00268
1.00173
1.00089
1.00037
1.00013
1.00004
1.00001
1
1
1
1
1
1
1
1
1
1
1
1
1
1
1
1
1
1
1
1
1
1
1.00001
1.00003
1.00013
1.00042
1.00117
1.00263
1.00468
1.0064
1.00689
1.00677
1.00689
1.0064
1.00468
1.00263
1.00117
1.00042
1.00013
1.00003
1.00001
1
1
1
1
1
1
1
1
1
1
1
1
1
1
1
1
1
1
1
1
1.00001
1.00002
1.0001
1.00037
1.00117
1.00302
1.00616
1.00924
1.00922
1.00556
1.00323
1.00556
1.00922
1.00924
1.00616
1.00302
1.00117
1.00037
1.0001
1.00002
1.00001
1
1
1
1
1
1
1
1
1
1
1
1
1
1
1
1
1
1
1
1.00002
1.00006
1.00025
1.00089
1.00263
1.00616
1.01039
1.00971
0.997377
0.97836
0.969702
0.97836
0.997377
1.00971
1.01039
1.00616
1.00263
1.00089
1.00025
1.00006
1.00001
1
1
1
1
1
1
1
1
1
1
1
1
1
1
1
1
1
1
1
1.00003
1.00013
1.00052
1.00173
1.00468
1.00924
1.00971
0.992037
0.948778
0.901728
0.884003
0.901728
0.948778
0.992037
1.00971
1.00924
1.00468
1.00173
1.00052
1.00013
1.00003
1.00001
1
1
1
1
1
1
1
1
1
1
1
1
1
1
1
1
1
1
1.00006
1.00023
1.00085
1.00268
1.0064
1.00922
0.997377
0.948778
0.865752
0.792591
0.769155
0.792591
0.865752
0.948778
0.997377
1.00922
1.0064
1.00268
1.00085
1.00022
1.00005
1.00001
1
1
1
1
1
1
1
1
1
1
1
1
1
1
1
1
1
1
1.00009
1.00031
1.00113
1.00332
1.00689
1.00556
0.97836
0.901728
0.792591
0.708264
0.684467
0.708264
0.792591
0.901728
0.97836
1.00556
1.00689
1.00332
1.00113
1.00031
1.00007
1.00001
1
1
1
1
1
1
1
1
1
1
1
1
1
1
1
1
1
1
1.0001
1.00034
1.00123
1.0035
1.00677
1.00323
0.969702
0.884003
0.769155
0.684467
0.661442
0.684467
0.769155
0.884003
0.969702
1.00323
1.00677
1.0035
1.00123
1.00034
1.00008
1.00002
1
1
1
1
1
1
1
1
1
1
1
1
1
1
1
1
1
1
1.00009
1.00031
1.00113
1.00332
1.00689
1.00556
0.97836
0.901728
0.792591
0.708264
0.684467
0.708264
0.792591
0.901728
0.97836
1.00556
1.00689
1.00332
1.00113
1.00031
1.00007
1.00001
1
1
1
1
1
1
1
1
1
1
1
1
1
1
1
1
1
1
1.00006
1.00023
1.00085
1.00268
1.0064
1.00922
0.997377
0.948778
0.865752
0.792591
0.769155
0.792591
0.865752
0.948778
0.997377
1.00922
1.0064
1.00268
1.00085
1.00022
1.00005
1.00001
1
1
1
1
1
1
1
1
1
1
1
1
1
1
1
1
1
1
1.00003
1.00013
1.00052
1.00173
1.00468
1.00924
1.00971
0.992037
0.948778
0.901728
0.884003
0.901728
0.948778
0.992037
1.00971
1.00924
1.00468
1.00173
1.00052
1.00013
1.00003
1.00001
1
1
1
1
1
1
1
1
1
1
1
1
1
1
1
1
1
1
1.00002
1.00006
1.00025
1.00089
1.00263
1.00616
1.01039
1.00971
0.997377
0.97836
0.969702
0.97836
0.997377
1.00971
1.01039
1.00616
1.00263
1.00089
1.00025
1.00006
1.00001
1
1
1
1
1
1
1
1
1
1
1
1
1
1
1
1
1
1
1
1.00001
1.00002
1.0001
1.00037
1.00117
1.00302
1.00616
1.00924
1.00922
1.00556
1.00323
1.00556
1.00922
1.00924
1.00616
1.00302
1.00117
1.00037
1.0001
1.00002
1.00001
1
1
1
1
1
1
1
1
1
1
1
1
1
1
1
1
1
1
1
1
1.00001
1.00003
1.00013
1.00042
1.00117
1.00263
1.00468
1.0064
1.00689
1.00677
1.00689
1.0064
1.00468
1.00263
1.00117
1.00042
1.00013
1.00003
1.00001
1
1
1
1
1
1
1
1
1
1
1
1
1
1
1
1
1
1
1
1
1
1
1.00001
1.00004
1.00013
1.00037
1.00089
1.00173
1.00268
1.00332
1.0035
1.00332
1.00268
1.00173
1.00089
1.00037
1.00013
1.00004
1.00001
1
1
1
1
1
1
1
1
1
1
1
1
1
1
1
1
1
1
1
1
1
1
1
1
1.00001
1.00003
1.0001
1.00025
1.00052
1.00085
1.00113
1.00123
1.00113
1.00085
1.00052
1.00025
1.0001
1.00003
1.00001
1
1
1
1
1
1
1
1
1
1
0.999999
0.999999
0.999999
0.999999
0.999999
1
1
1
1
1
1
1
1
1
1
1
1.00001
1.00002
1.00006
1.00013
1.00022
1.00031
1.00034
1.00031
1.00022
1.00013
1.00006
1.00002
1.00001
1
1
1
1
1
1
1
1
1
0.999999
0.999998
0.999997
0.999996
0.999995
0.999996
0.999997
0.999998
0.999999
1
1
1
1
1
1
1
1
1
1
1.00001
1.00001
1.00003
1.00005
1.00007
1.00008
1.00007
1.00005
1.00003
1.00001
1.00001
1
1
1
1
1
1
1
1
1
0.999999
0.999996
0.999992
0.999985
0.999979
0.999977
0.999979
0.999985
0.999992
0.999996
0.999999
1
1
1
1
1
1
1
1
1
1
1
1.00001
1.00001
1.00001
1.00002
1.00001
1.00001
1.00001
1
1
1
1
1
1
1
1
1
0.999999
0.999998
0.999993
0.999982
0.999962
0.999935
0.999909
0.999899
0.999909
0.999935
0.999962
0.999982
0.999993
0.999998
0.999999
1
1
1
1
1
1
1
1
1
1
1
1
1
1
1
1
1
1
1
1
1
1
1
1
0.999999
0.999997
0.99999
0.999971
0.999927
0.999849
0.999746
0.999656
0.999621
0.999656
0.999746
0.999849
0.999927
0.999971
0.99999
0.999997
0.999999
1
1
1
1
1
1
1
1
1
1
1
1
1
1
1
1
1
1
1
1
1
1
0.999999
0.999997
0.999989
0.999962
0.999892
0.999739
0.99948
0.999162
0.998912
0.998828
0.998912
0.999162
0.99948
0.999739
0.999892
0.999962
0.999989
0.999997
0.999999
1
1
1
1
1
1
1
1
1
1
1
1
1
1
1
1
1
1
1
1
1
0.999998
0.99999
0.999962
0.999877
0.999658
0.999205
0.998504
0.99776
0.997313
0.997221
0.997313
0.99776
0.998504
0.999205
0.999658
0.999877
0.999962
0.99999
0.999997
1
1
1
1
1
1
1
1
1
1
1
1
1
1
1
1
1
1
1
1
0.999999
0.999993
0.999971
0.999892
0.999658
0.999086
0.998008
0.996587
0.995577
0.995654
0.99605
0.995654
0.995577
0.996587
0.998008
0.999086
0.999658
0.999892
0.99997
0.999992
1
1
1
1
1
1
1
1
1
1
1
1
1
1
1
1
1
1
1
0.999999
0.999996
0.999982
0.999927
0.999739
0.999205
0.998008
0.99608
0.99444
0.995393
0.999689
1.00262
0.999689
0.995393
0.99444
0.99608
0.998008
0.999205
0.999739
0.999926
0.999978
1
1
1
1
1
1
1
1
1
1
1
1
1
1
1
1
1
1
1
0.999998
0.999992
0.999962
0.999849
0.99948
0.998504
0.996587
0.99444
0.995654
1.00616
1.02531
1.03603
1.02531
1.00616
0.995654
0.99444
0.996587
0.998504
0.999479
0.999847
0.999954
1
1
1
1
1
1
1
1
1
1
1
1
1
1
1
1
1
1
0.999999
0.999997
0.999985
0.999935
0.999746
0.999162
0.99776
0.995577
0.995393
1.00616
1.04042
1.09205
1.11697
1.09205
1.04042
1.00616
0.995393
0.995577
0.99776
0.999161
0.999743
0.99992
1
1
1
1
1
1
1
1
1
1
1
1
1
1
1
1
1
1
0.999999
0.999996
0.999979
0.999909
0.999656
0.998912
0.997313
0.995654
0.999689
1.02531
1.09205
1.1794
1.21098
1.1794
1.09205
1.02531
0.999689
0.995654
0.997313
0.998911
0.999651
0.999888
1
1
1
1
1
1
1
1
1
1
1
1
1
1
1
1
1
1
0.999999
0.999995
0.999977
0.999899
0.999621
0.998828
0.997221
0.99605
1.00262
1.03603
1.11697
1.21098
1.23401
1.21098
1.11697
1.03603
1.00262
0.99605
0.997221
0.998827
0.999616
0.999875
1
1
1
1
1
1
1
1
1
1
1
1
1
1
1
1
1
1
0.999999
0.999996
0.999979
0.999909
0.999656
0.998912
0.997313
0.995654
0.999689
1.02531
1.09205
1.1794
1.21098
1.1794
1.09205
1.02531
0.999689
0.995654
0.997313
0.998911
0.999651
0.999888
1
1
1
1
1
1
1
1
1
1
1
1
1
1
1
1
1
1
0.999999
0.999997
0.999985
0.999935
0.999746
0.999162
0.99776
0.995577
0.995393
1.00616
1.04042
1.09205
1.11697
1.09205
1.04042
1.00616
0.995393
0.995577
0.99776
0.999161
0.999743
0.99992
1
1
1
1
1
1
1
1
1
1
1
1
1
1
1
1
1
1
1
0.999998
0.999992
0.999962
0.999849
0.99948
0.998504
0.996587
0.99444
0.995654
1.00616
1.02531
1.03603
1.02531
1.00616
0.995654
0.99444
0.996587
0.998504
0.999479
0.999847
0.999954
1
1
1
1
1
1
1
1
1
1
1
1
1
1
1
1
1
1
1
0.999999
0.999996
0.999982
0.999927
0.999739
0.999205
0.998008
0.99608
0.99444
0.995393
0.999689
1.00262
0.999689
0.995393
0.99444
0.99608
0.998008
0.999205
0.999739
0.999926
0.999978
1
1
1
1
1
1
1
1
1
1
1
1
1
1
1
1
1
1
1
1
0.999999
0.999993
0.999971
0.999892
0.999658
0.999086
0.998008
0.996587
0.995577
0.995654
0.99605
0.995654
0.995577
0.996587
0.998008
0.999086
0.999658
0.999892
0.99997
0.999992
1
1
1
1
1
1
1
1
1
1
1
1
1
1
1
1
1
1
1
1
1
0.999998
0.99999
0.999962
0.999877
0.999658
0.999205
0.998504
0.99776
0.997313
0.997221
0.997313
0.99776
0.998504
0.999205
0.999658
0.999877
0.999962
0.99999
0.999997
1
1
1
1
1
1
1
1
1
1
1
1
1
1
1
1
1
1
1
1
1
0.999999
0.999997
0.999989
0.999962
0.999892
0.999739
0.999479
0.999161
0.998911
0.998827
0.998911
0.999161
0.999479
0.999739
0.999892
0.999962
0.999989
0.999997
0.999999
1
1
1
1
1
1
1
1
1
1
1
1
1
1
1
1
1
1
1
1
1
1
0.999999
0.999997
0.99999
0.99997
0.999926
0.999847
0.999743
0.999651
0.999616
0.999651
0.999743
0.999847
0.999926
0.99997
0.99999
0.999997
0.999999
1
1
1
1
1
1
1
1
1
1
1
1
1
1
1
1
1
1
1
1
1
1
1
1
0.999999
0.999997
0.999992
0.999978
0.999954
0.99992
0.999888
0.999875
0.999888
0.99992
0.999954
0.999978
0.999992
0.999997
0.999999
1
1
SCALARS C2 double 1
LOOKUP_TABLE default
3
3
3
3
3
3
2.99999
2.99997
2.99994
2.99992
2.99991
2.99992
2.99994
2.99997
2.99999
3
3
3
3
3
3
3
3
3
3
3
3
3
3
3
3
3
3
3
3
3
3
3
3
3
3
3
3
3
2.99999
2.99998
2.99994
2.99987
2.99977
2.99967
2.99962
2.99967
2.99977
2.99987
2.99994
2.99998
2.99999
3
3
3
3
3
3
3
3
3
3
3
3
3
3
3
3
3
3
3
3
3
3
3
3
3
3
2.99999
2.99997
2.99991
2.99975
2.99945
2.99903
2.99863
2.99847
2.99863
2.99903
2.99945
2.99975
2.99991
2.99997
2.99999
3
3
3
3
3
3
3
3
3
3
3
3
3
3
3
3
3
3
3
3
3
3
3
3
2.99999
2.99997
2.99988
2.99963
2.99904
2.99793
2.99645
2.99518
2.99472
2.99518
2.99645
2.99793
2.99904
2.99963
2.99988
2.99997
2.99999
3
3
3
3
3
3
3
3
3
3
3
3
3
3
3
3
3
3
3
3
3
3
2.99999
2.99997
2.99988
2.99958
2.99872
2.99677
2.9934
2.98937
2.98654
2.98578
2.98654
2.98937
2.9934
2.99677
2.99872
2.99958
2.99988
2.99997
2.99999
3
3
3
3
3
3
3
3
3
3
3
3
3
3
3
3
3
3
3
3
3
2.99998
2.99991
2.99963
2.99872
2.99626
2.99104
2.98312
2.97594
2.97376
2.97454
2.97376
2.97594
2.98312
2.99104
2.99626
2.99872
2.99963
2.99991
2.99998
3
3
3
3
3
3
3
3
3
3
3
3
3
3
3
3
3
3
3
3
2.99999
2.99994
2.99975
2.99904
2.99677
2.99104
2.98035
2.96832
2.96607
2.97858
2.9883
2.97858
2.96607
2.96832
2.98035
2.99104
2.99677
2.99904
2.99975
2.99994
2.99999
3
3
3
3
3
3
3
3
3
3
3
3
3
3
3
3
3
3
3
2.99997
2.99987
2.99945
2.99793
2.9934
2.98312
2.96832
2.96408
2.9943
3.05281
3.08535
3.05281
2.9943
2.96408
2.96832
2.98312
2.9934
2.99793
2.99945
2.99988
2.99997
3
3
3
3
3
3
3
3
3
3
3
3
3
3
3
3
3
3
3
2.99994
2.99977
2.99903
2.99645
2.98937
2.97594
2.96607
2.9943
3.09268
3.22728
3.29607
3.22728
3.09268
2.9943
2.96607
2.97594
2.98937
2.99645
2.99903
2.99977
2.99995
2.99999
3
3
3
3
3
3
3
3
3
3
3
3
3
3
3
3
3
3
2.99992
2.99967
2.99863
2.99518
2.98654
2.97376
2.97858
3.05281
3.22728
3.43984
3.54906
3.43984
3.22728
3.05281
2.97858
2.97376
2.98654
2.99518
2.99863
2.99967
2.99993
2.99999
3
3
3
3
3
3
3
3
3
3
3
3
3
3
3
3
3
3
2.99991
2.99962
2.99847
2.99472
2.98578
2.97454
2.9883
3.08535
3.29607
3.54906
3.67961
3.54906
3.29607
3.08535
2.9883
2.97454
2.98578
2.99472
2.99847
2.99963
2.99992
2.99999
3
3
3
3
3
3
3
3
3
3
3
3
3
3
3
3
3
3
2.99992
2.99967
2.99863
2.99518
2.98654
2.97376
2.97858
3.05281
3.22728
3.43984
3.54906
3.43984
3.22728
3.05281
2.97858
2.97376
2.98654
2.99518
2.99863
2.99967
2.99993
2.99999
3
3
3
3
3
3
3
3
3
3
3
3
3
3
3
3
3
3
2.99994
2.99977
2.99903
2.99645
2.98937
2.97594
2.96607
2.9943
3.09268
3.22728
3.29607
3.22728
3.09268
2.9943
2.96607
2.97594
2.98937
2.99645
2.99903
2.99977
2.99995
2.99999
3
3
3
3
3
3
3
3
3
3
3
3
3
3
3
3
3
3
2.99997
2.99987
2.99945
2.99793
2.9934
2.98312
2.96832
2.96408
2.9943
3.05281
3.08535
3.05281
2.9943
2.96408
2.96832
2.98312
2.9934
2.99793
2.99945
2.99988
2.99997
3
3
3
3
3
3
3
3
3
3
3
3
3
3
3
3
3
3
3
2.99999
2.99994
2.99975
2.99904
2.99677
2.99104
2.98035
2.96832
2.96607
2.97858
2.9883
2.97858
2.96607
2.96832
2.98035
2.99104
2.99677
2.99904
2.99975
2.99994
2.99999
3
3
3
3
3
3
3
3
3
3
3
3
3
3
3
3
3
3
3
3
2.99998
2.99991
2.99963
2.99872
2.99626
2.99104
2.98312
2.97594
2.97376
2.97454
2.97376
2.97594
2.98312
2.99104
2.99626
2.99872
2.99963
2.99991
2.99998
3
3
3
3
3
3
3
3
3
3
3
3
3
3
3
3
3
3
3
3
3
2.99999
2.99997
2.99988
2.99958
2.99872
2.99677
2.9934
2.98937
2.98654
2.98578
2.98654
2.98937
2.9934
2.99677
2.99872
2.99958
2.99988
2.99997
2.99999
3
3
3
3
3
3
3
3
3
3
3
3
3
3
3
3
3
3
3
3
3
3
2.99999
2.99997
2.99988
2.99963
2.99904
2.99793
2.99645
2.99518
2.99472
2.99518
2.99645
2.99793
2.99904
2.99963
2.99988
2.99997
2.99999
3
3
3
3
3
3
3
3
3
3
3
3
3
3
3
3
3
3
3
3
3
3
3
3
2.99999
2.99997
2.99991
2.99975
2.99945
2.99903
2.99863
2.99847
2.99863
2.99903
2.99945
2.99975
2.99991
2.99997
2.99999
3
3
3
3
3
3
3
3
3
3
3
3
3
3
3
3
3
3
3
3
3
3
3
3
3
3
2.99999
2.99998
2.99994
2.99988
2.99977
2.99967
2.99963
2.99967
2.99977
2.99988
2.99994
2.99998
2.99999
3
3
3
3
3
3
3
3
3
3
3
3
3
3
3
3
3
3
3
3
3
3
3
3
3
3
3
3
3
2.99999
2.99997
2.99995
2.99993
2.99992
2.99993
2.99995
2.99997
2.99999
3
3
3
3
3
3
3
3
3
3
3
3
3.00001
3.00001
3.00002
3.00002
3.00002
3.00001
3.00001
3
3
3
3
3
3
3
3
3
3
3
3
3
3
2.99999
2.99999
2.99999
2.99999
2.99999
3
3
3
3
3
3
3
3
3
3
3
3
3.00001
3.00002
3.00004
3.00007
3.0001
3.00011
3.0001
3.00007
3.00004
3.00002
3.00001
3
3
3
3
3
3
3
3
3
3
3
3
3
3
3
3
3
3
3
3
3
3
3
3
3
3
3
3
3.00001
3.00003
3.00007
3.00016
3.00029
3.00041
3.00046
3.00041
3.00029
3.00016
3.00007
3.00003
3.00001
3
3
3
3
3
3
3
3
3
3
3
3
3
3
3
3
3
3
3
3
3
3
3
3
3
3
3.00001
3.00003
3.00011
3.00028
3.00061
3.00107
3.00149
3.00166
3.00149
3.00107
3.00061
3.00028
3.00011
3.00003
3.00001
3
3
3
3
3
3
3
3
3
3
3
3
3
3
3
3
3
3
3
3
3
3
3
3
3.00001
3.00003
3.00012
3.00037
3.00095
3.002
3.00338
3.00454
3.00493
3.00454
3.00338
3.002
3.00095
3.00037
3.00012
3.00003
3.00001
3
3
3
3
3
3
3
3
3
3
3
3
3
3
3
3
3
3
3
3
3
3
3.00001
3.00003
3.00011
3.00037
3.0011
3.00272
3.00547
3.00869
3.01083
3.01126
3.01083
3.00869
3.00547
3.00272
3.0011
3.00037
3.00011
3.00003
3.00001
3
3
3
3
3
3
3
3
3
3
3
3
3
3
3
3
3
3
3
3
3
3.00002
3.00007
3.00028
3.00095
3.00272
3.00642
3.01196
3.01682
3.01745
3.01577
3.01745
3.01682
3.01196
3.00642
3.00272
3.00095
3.00028
3.00007
3.00002
3
3
3
3
3
3
3
3
3
3
3
3
3
3
3
3
3
3
3
3
3.00001
3.00004
3.00016
3.00061
3.002
3.00547
3.01196
3.01937
3.0197
3.00603
2.99354
3.00603
3.0197
3.01937
3.01196
3.00547
3.002
3.00061
3.00016
3.00004
3
3
3
3
3
3
3
3
3
3
3
3
3
3
3
3
3
3
3
3
3.00001
3.00007
3.00029
3.00107
3.00338
3.00869
3.01682
3.0197
2.99623
2.9346
2.89078
2.9346
2.99623
3.0197
3.01682
3.00869
3.00338
3.00107
3.00029
3.00008
3
3
3
3
3
3
3
3
3
3
3
3
3
3
3
3
3
3
3
3
3.00002
3.0001
3.00041
3.00149
3.00454
3.01083
3.01745
3.00603
2.9346
2.79013
2.70129
2.79013
2.9346
3.00603
3.01745
3.01083
3.00454
3.00149
3.00041
3.00012
3
3
3
3
3
3
3
3
3
3
3
3
3
3
3
3
3
3
3
3
3.00002
3.00011
3.00046
3.00166
3.00493
3.01126
3.01577
2.99354
2.89078
2.70129
2.59577
2.70129
2.89078
2.99354
3.01577
3.01126
3.00493
3.00166
3.00047
3.00013
3
3
3
3
3
3
3
3
3
3
3
3
3
3
3
3
3
3
3
3
3.00002
3.0001
3.00041
3.00149
3.00454
3.01083
3.01745
3.00603
2.9346
2.79013
2.70129
2.79013
2.9346
3.00603
3.01745
3.01083
3.00454
3.00149
3.00041
3.00012
3
3
3
3
3
3
3
3
3
3
3
3
3
3
3
3
3
3
3
3
3.00001
3.00007
3.00029
3.00107
3.00338
3.00869
3.01682
3.0197
2.99623
2.9346
2.89078
2.9346
2.99623
3.0197
3.01682
3.00869
3.00338
3.00107
3.00029
3.00008
3
3
3
3
3
3
3
3
3
3
3
3
3
3
3
3
3
3
3
3
3.00001
3.00004
3.00016
3.00061
3.002
3.00547
3.01196
3.01937
3.0197
3.00603
2.99354
3.00603
3.0197
3.01937
3.01196
3.00547
3.002
3.00061
3.00016
3.00004
3
3
3
3
3
3
3
3
3
3
3
3
3
3
3
3
3
3
3
3
3
3.00002
3.00007
3.00028
3.00095
3.00272
3.00642
3.01196
3.01682
3.01745
3.01577
3.01745
3.01682
3.01196
3.00642
3.00272
3.00095
3.00028
3.00007
3.00002
3
3
3
3
3
3
3
3
3
3
3
3
3
3
3
3
3
3
3
3
3
3.00001
3.00003
3.00011
3.00037
3.0011
3.00272
3.00547
3.00869
3.01083
3.01126
3.01083
3.00869
3.00547
3.00272
3.0011
3.00037
3.00011
3.00003
3.00001
3
3
3
3
3
3
3
3
3
3
3
3
3
3
3
3
3
3
3
3
3
3
3.00001
3.00003
3.00012
3.00037
3.00095
3.002
3.00338
3.00454
3.00493
3.00454
3.00338
3.002
3.00095
3.00037
3.00012
3.00003
3.00001
3
3
3
3
3
3
3
3
3
3
3
3
3
3
3
3
3
3
3
3
3
3
3
3
3.00001
3.00003
3.00011
3.00028
3.00061
3.00107
3.00149
3.00166
3.00149
3.00107
3.00061
3.00028
3.00011
3.00003
3.00001
3
3
3
3
3
3
3
3
3
3
3
3
3
3
3
3
3
3
3
3
3
3
3
3
3
3
3.00001
3.00003
3.00007
3.00016
3.00029
3.00041
3.00047
3.00041
3.00029
3.00016
3.00007
3.00003
3.00001
3
3
3
3
3
3
3
3
3
3
3
3
3
3
3
3
3
3
3
3
3
3
3
3
3
3
3
3
3.00001
3.00002
3.00004
3.00008
3.00012
3.00013
3.00012
3.00008
3.00004
3.00002
3.00001
3
3
3
3
