# vtk DataFile Version 3.0
Brusselator Concentration Output
ASCII
DATASET STRUCTURED_POINTS
DIMENSIONS 40 40 1
ORIGIN 0.0 0.0 0.0
SPACING 0.005 0.005 1.0
POINT_DATA 1600
SCALARS C1 double 1
LOOKUP_TABLE default
1
1
1
1
1.00001
1.00003
1.00006
1.00012
1.00019
1.00025
1.00028
1.00025
1.00019
1.00012
1.00006
1.00003
1.00001
1
1
1
1
1
1
1
1
1
1
1
1
1
1
1
1
1
1
1
1
1
1
1
1
1
1
1.00001
1.00004
1.00009
1.00021
1.00038
1.00057
1.00071
1.00076
1.00071
1.00057
1.00038
1.00021
1.00009
1.00004
1.00001
1
1
1
1
1
1
1
1
1
1
1
1
1
1
1
1
1
1
1
1
1
1
1
1
1.00001
1.00004
1.00013
1.00033
1.00068
1.00116
1.00163
1.00191
1.00199
1.00191
1.00163
1.00116
1.00068
1.00033
1.00013
1.00004
1.00001
1
1
1
1
1
1
1
1
1
1
1
1
1
1
1
1
1
1
1
1
1
1
1.00001
1.00004
1.00015
1.00041
1.00097
1.00188
1.00291
1.00354
1.00356
1.00345
1.00356
1.00354
1.00291
1.00188
1.00097
1.00041
1.00015
1.00004
1.00001
1
1
1
1
1
1
1
1
1
1
1
1
1
1
1
1
1
1
1
1
1.00001
1.00004
1.00013
1.00041
1.00109
1.00238
1.00406
1.00501
1.00391
1.00139
1.00011
1.00139
1.00391
1.00501
1.00406
1.00238
1.00109
1.00041
1.00013
1.00004
1.00001
1
1
1
1
1
1
1
1
1
1
1
1
1
1
1
1
1
1
1
1.00003
1.00009
1.00033
1.00097
1.00238
1.00454
1.00581
1.00261
0.992975
0.981689
0.977015
0.981689
0.992975
1.00261
1.00581
1.00454
1.00238
1.00097
1.00032
1.00009
1.00002
1.00001
1
1
1
1
1
1
1
1
1
1
1
1
1
1
1
1
1
1
1.00006
1.00021
1.00068
1.00188
1.00406
1.00581
1.00167
0.984001
0.953576
0.925608
0.915556
0.925608
0.953576
0.984001
1.00167
1.00581
1.00406
1.00188
1.00068
1.0002
1.00005
1.00001
1
1
1
1
1
1
1
1
1
1
1
1
1
1
1
1
1
1
1.00012
1.00038
1.00116
1.00291
1.00501
1.00261
0.984001
0.939505
0.880245
0.835021
0.821118
0.835021
0.880245
0.939505
0.984001
1.00261
1.00501
1.00291
1.00116
1.00037
1.0001
1.00002
1
1
1
1
1
1
1
1
1
1
1
1
1
1
1
1
1
1
1.00019
1.00057
1.00163
1.00354
1.00391
0.992975
0.953576
0.880245
0.798788
0.74608
0.733152
0.74608
0.798788
0.880245
0.953576
0.992975
1.00391
1.00354
1.00163
1.00056
1.00016
1.00004
1.00001
1
1
1
1
1
1
1
1
1
1
1
1
1
1
1
1
1
1.00025
1.00071
1.00191
1.00356
1.00139
0.981689
0.925608
0.835021
0.74608
0.696379
0.688258
0.696379
0.74608
0.835021
0.925608
0.981689
1.00139
1.00356
1.00191
1.0007
1.0002
1.00005
1.00001
1
1
1
1
1
1
1
1
1
1
1
1
1
1
1
1
1
1.00028
1.00076
1.00199
1.00345
1.00011
0.977015
0.915556
0.821118
0.733152
0.688258
0.683633
0.688258
0.733152
0.821118
0.915556
0.977015
1.00011
1.00345
1.00199
1.00075
1.00022
1.00006
1.00001
1
1
1
1
1
1
1
1
1
1
1
1
1
1
1
1
1
1.00025
1.00071
1.00191
1.00356
1.00139
0.981689
0.925608
0.835021
0.74608
0.696379
0.688258
0.696379
0.74608
0.835021
0.925608
0.981689
1.00139
1.00356
1.00191
1.0007
1.0002
1.00005
1.00001
1
1
1
1
1
1
1
1
1
1
1
1
1
1
1
1
1
1.00019
1.00057
1.00163
1.00354
1.00391
0.992975
0.953576
0.880245
0.798788
0.74608
0.733152
0.74608
0.798788
0.880245
0.953576
0.992975
1.00391
1.00354
1.00163
1.00056
1.00016
1.00004
1.00001
1
1
1
1
1
1
1
1
1
1
1
1
1
1
1
1
1
1.00012
1.00038
1.00116
1.00291
1.00501
1.00261
0.984001
0.939505
0.880245
0.835021
0.821118
0.835021
0.880245
0.939505
0.984001
1.00261
1.00501
1.00291
1.00116
1.00037
1.0001
1.00002
1
1
1
1
1
1
1
1
1
1
1
1
1
1
1
1
1
1
1.00006
1.00021
1.00068
1.00188
1.00406
1.00581
1.00167
0.984001
0.953576
0.925608
0.915556
0.925608
0.953576
0.984001
1.00167
1.00581
1.00406
1.00188
1.00068
1.0002
1.00005
1.00001
1
1
1
1
1
1
1
1
1
1
1
1
1
1
1
1
1
1
1.00003
1.00009
1.00033
1.00097
1.00238
1.00454
1.00581
1.00261
0.992975
0.981689
0.977015
0.981689
0.992975
1.00261
1.00581
1.00454
1.00238
1.00097
1.00032
1.00009
1.00002
1.00001
1
1
1
1
1
1
1
1
1
1
1
1
1
1
1
1
1
1
1.00001
1.00004
1.00013
1.00041
1.00109
1.00238
1.00406
1.00501
1.00391
1.00139
1.00011
1.00139
1.00391
1.00501
1.00406
1.00238
1.00109
1.00041
1.00013
1.00004
1.00001
1
1
1
1
1
1
1
1
1
1
1
1
1
1
1
1
1
1
1
1
1.00001
1.00004
1.00015
1.00041
1.00097
1.00188
1.00291
1.00354
1.00356
1.00345
1.00356
1.00354
1.00291
1.00188
1.00097
1.00041
1.00015
1.00004
1.00001
1
1
1
1
1
1
1
1
1
0.999999
0.999999
0.999999
1
1
1
1
1
1
1
1
1
1
1.00001
1.00004
1.00013
1.00032
1.00068
1.00116
1.00163
1.00191
1.00199
1.00191
1.00163
1.00116
1.00068
1.00032
1.00013
1.00004
1.00001
1
1
1
1
1
1
1
0.999999
0.999999
0.999998
0.999997
0.999996
0.999997
0.999998
0.999999
0.999999
1
1
1
1
1
1
1
1
1.00001
1.00004
1.00009
1.0002
1.00037
1.00056
1.0007
1.00075
1.0007
1.00056
1.00037
1.0002
1.00009
1.00004
1.00001
1
1
1
1
1
1
0.999999
0.999998
0.999996
0.999993
0.999989
0.999985
0.999984
0.999985
0.999989
0.999993
0.999996
0.999998
0.999999
1
1
1
1
1
1
1
1.00001
1.00002
1.00005
1.0001
1.00016
1.0002
1.00022
1.0002
1.00016
1.0001
1.00005
1.00002
1.00001
1
1
1
1
1
1
0.999999
0.999997
0.999993
0.999985
0.999971
0.999953
0.999939
0.999933
0.999939
0.999953
0.999971
0.999985
0.999993
0.999997
0.999999
1
1
1
1
1
1
1
1.00001
1.00001
1.00002
1.00004
1.00005
1.00006
1.00005
1.00004
1.00002
1.00001
1.00001
1
1
1
1
1
1
0.999999
0.999996
0.99999
0.999973
0.99994
0.999889
0.99983
0.999782
0.999765
0.999782
0.99983
0.999889
0.99994
0.999973
0.99999
0.999996
0.999999
1
1
1
1
1
1
1
1
1
1.00001
1.00001
1.00001
1.00001
1.00001
1
1
1
1
1
1
1
1
0.999999
0.999996
0.999987
0.999962
0.999905
0.999797
0.999639
0.999472
0.999353
0.999315
0.999353
0.999472
0.999639
0.999797
0.999905
0.999962
0.999987
0.999996
0.999999
1
1
1
1
1
1
1
1
1
1
1
1
1
1
1
1
1
1
1
1
0.999999
0.999996
0.999987
0.999958
0.99988
0.999708
0.99941
0.999022
0.998686
0.998528
0.998503
0.998528
0.998686
0.999022
0.99941
0.999708
0.99988
0.999958
0.999987
0.999996
1
1
1
1
1
1
1
1
1
1
1
1
1
1
1
1
1
1
1
0.999999
0.999997
0.99999
0.999962
0.99988
0.999671
0.999247
0.998596
0.997948
0.997734
0.998067
0.998337
0.998067
0.997734
0.997948
0.998596
0.999247
0.999671
0.999879
0.999962
0.999987
1
1
1
1
1
1
1
1
1
1
1
1
1
1
1
1
1
1
1
0.999998
0.999993
0.999973
0.999905
0.999708
0.999247
0.998418
0.997459
0.997289
0.999042
1.0022
1.00385
1.0022
0.999042
0.997289
0.997459
0.998418
0.999247
0.999708
0.999903
0.999966
1
1
1
1
1
1
1
1
1
1
1
1
1
1
1
1
1
1
0.999999
0.999996
0.999985
0.99994
0.999797
0.99941
0.998596
0.997459
0.997182
1.00059
1.01019
1.02266
1.02829
1.02266
1.01019
1.00059
0.997182
0.997459
0.998596
0.999409
0.999793
0.999925
1
1
1
1
1
1
1
1
1
1
1
1
1
1
1
1
1
1
0.999999
0.999993
0.999971
0.999889
0.999639
0.999022
0.997948
0.997289
1.00059
1.01473
1.04395
1.07636
1.0887
1.07636
1.04395
1.01473
1.00059
0.997289
0.997948
0.999021
0.999632
0.99986
1
1
1
1
1
1
1
1
1
1
1
1
1
1
1
1
1
1
0.999998
0.999989
0.999953
0.99983
0.999472
0.998686
0.997734
0.999042
1.01019
1.04395
1.10348
1.15613
1.16843
1.15613
1.10348
1.04395
1.01019
0.999042
0.997733
0.998683
0.99946
0.999783
1
1
1
1
1
1
1
1
1
1
1
1
1
1
1
1
1
0.999999
0.999997
0.999985
0.999939
0.999782
0.999353
0.998528
0.998067
1.0022
1.02266
1.07636
1.15613
1.19982
1.19375
1.19982
1.15613
1.07636
1.02266
1.0022
0.998066
0.998524
0.999339
0.999721
1
1
1
1
1
1
1
1
1
1
1
1
1
1
1
1
1
0.999999
0.999996
0.999984
0.999933
0.999765
0.999315
0.998503
0.998337
1.00385
1.02829
1.0887
1.16843
1.19375
1.17412
1.19375
1.16843
1.0887
1.02829
1.00385
0.998336
0.998499
0.999299
0.999698
1
1
1
1
1
1
1
1
1
1
1
1
1
1
1
1
1
0.999999
0.999997
0.999985
0.999939
0.999782
0.999353
0.998528
0.998067
1.0022
1.02266
1.07636
1.15613
1.19982
1.19375
1.19982
1.15613
1.07636
1.02266
1.0022
0.998066
0.998524
0.999339
0.999721
1
1
1
1
1
1
1
1
1
1
1
1
1
1
1
1
1
1
0.999998
0.999989
0.999953
0.99983
0.999472
0.998686
0.997734
0.999042
1.01019
1.04395
1.10348
1.15613
1.16843
1.15613
1.10348
1.04395
1.01019
0.999042
0.997733
0.998683
0.99946
0.999783
1
1
1
1
1
1
1
1
1
1
1
1
1
1
1
1
1
1
0.999999
0.999993
0.999971
0.999889
0.999639
0.999022
0.997948
0.997289
1.00059
1.01473
1.04395
1.07636
1.0887
1.07636
1.04395
1.01473
1.00059
0.997289
0.997948
0.999021
0.999632
0.99986
1
1
1
1
1
1
1
1
1
1
1
1
1
1
1
1
1
1
0.999999
0.999996
0.999985
0.99994
0.999797
0.99941
0.998596
0.997459
0.997182
1.00059
1.01019
1.02266
1.02829
1.02266
1.01019
1.00059
0.997182
0.997459
0.998596
0.999409
0.999793
0.999925
1
1
1
1
1
1
1
1
1
1
1
1
1
1
1
1
1
1
1
0.999998
0.999993
0.999973
0.999905
0.999708
0.999247
0.998418
0.997459
0.997289
0.999042
1.0022
1.00385
1.0022
0.999042
0.997289
0.997459
0.998418
0.999247
0.999708
0.999903
0.999966
1
1
1
1
1
1
1
1
1
1
1
1
1
1
1
1
1
1
1
0.999999
0.999997
0.99999
0.999962
0.99988
0.999671
0.999247
0.998596
0.997948
0.997733
0.998066
0.998336
0.998066
0.997733
0.997948
0.998596
0.999247
0.999671
0.999879
0.999962
0.999987
1
1
1
1
1
1
1
1
1
1
1
1
1
1
1
1
1
1
1
1
0.999999
0.999996
0.999987
0.999958
0.999879
0.999708
0.999409
0.999021
0.998683
0.998524
0.998499
0.998524
0.998683
0.999021
0.999409
0.999708
0.999879
0.999958
0.999987
0.999996
1
1
1
1
1
1
1
1
1
1
1
1
1
1
1
1
1
1
1
1
1
0.999999
0.999996
0.999987
0.999962
0.999903
0.999793
0.999632
0.99946
0.999339
0.999299
0.999339
0.99946
0.999632
0.999793
0.999903
0.999962
0.999987
0.999996
0.999999
1
1
1
1
1
1
1
1
1
1
1
1
1
1
1
1
1
1
1
1
1
1
0.999999
0.999996
0.999987
0.999966
0.999925
0.99986
0.999783
0.999721
0.999698
0.999721
0.999783
0.99986
0.999925
0.999966
0.999987
0.999996
0.999999
1
SCALARS C2 double 1
LOOKUP_TABLE default
3
3
3
3
2.99999
2.99997
2.99994
2.99988
2.99979
2.99972
2.99969
2.99972
2.99979
2.99988
2.99994
2.99997
2.99999
3
3
3
3
3
3
3
3
3
3
3
3
3
3
3
3
3
3
3
3
3
3
3
3
3
3
2.99999
2.99997
2.99991
2.99978
2.99958
2.99932
2.9991
2.99901
2.9991
2.99932
2.99958
2.99978
2.99991
2.99997
2.99999
3
3
3
3
3
3
3
3
3
3
3
3
3
3
3
3
3
3
3
3
3
3
3
3
2.99999
2.99996
2.99987
2.99965
2.99921
2.99851
2.99769
2.99706
2.99684
2.99706
2.99769
2.99851
2.99921
2.99965
2.99987
2.99996
2.99999
3
3
3
3
3
3
3
3
3
3
3
3
3
3
3
3
3
3
3
3
3
3
2.99999
2.99996
2.99986
2.99956
2.99885
2.99749
2.99552
2.99355
2.99236
2.99205
2.99236
2.99355
2.99552
2.99749
2.99885
2.99956
2.99986
2.99996
2.99999
3
3
3
3
3
3
3
3
3
3
3
3
3
3
3
3
3
3
3
3
2.99999
2.99997
2.99987
2.99956
2.9987
2.99675
2.99337
2.98931
2.98666
2.98661
2.98721
2.98661
2.98666
2.98931
2.99337
2.99675
2.9987
2.99956
2.99987
2.99997
2.99999
3
3
3
3
3
3
3
3
3
3
3
3
3
3
3
3
3
3
3
2.99997
2.99991
2.99965
2.99885
2.99675
2.99246
2.98634
2.98213
2.98531
2.99485
3.00018
2.99485
2.98531
2.98213
2.98634
2.99246
2.99675
2.99885
2.99965
2.99991
2.99998
3
3
3
3
3
3
3
3
3
3
3
3
3
3
3
3
3
3
3
2.99994
2.99978
2.99921
2.99749
2.99337
2.98634
2.98047
2.98737
3.01635
3.0551
3.07287
3.0551
3.01635
2.98737
2.98047
2.98634
2.99337
2.99749
2.99921
2.99979
2.99995
2.99999
3
3
3
3
3
3
3
3
3
3
3
3
3
3
3
3
3
3
2.99988
2.99958
2.99851
2.99552
2.98931
2.98213
2.98737
3.02874
3.11352
3.20548
3.24446
3.20548
3.11352
3.02874
2.98737
2.98213
2.98931
2.99552
2.99851
2.99958
2.9999
2.99998
3
3
3
3
3
3
3
3
3
3
3
3
3
3
3
3
3
3
2.99979
2.99932
2.99769
2.99355
2.98666
2.98531
3.01635
3.11352
3.27348
3.43217
3.49882
3.43217
3.27348
3.11352
3.01635
2.98531
2.98666
2.99355
2.99769
2.99932
2.99983
2.99996
2.99999
3
3
3
3
3
3
3
3
3
3
3
3
3
3
3
3
3
2.99972
2.9991
2.99706
2.99236
2.98661
2.99485
3.0551
3.20548
3.43217
3.65175
3.74727
3.65175
3.43217
3.20548
3.0551
2.99485
2.98661
2.99236
2.99706
2.99911
2.99977
2.99995
2.99999
3
3
3
3
3
3
3
3
3
3
3
3
3
3
3
3
3
2.99969
2.99901
2.99684
2.99205
2.98721
3.00018
3.07287
3.24446
3.49882
3.74727
3.8572
3.74727
3.49882
3.24446
3.07287
3.00018
2.98721
2.99205
2.99685
2.99902
2.99975
2.99994
2.99999
3
3
3
3
3
3
3
3
3
3
3
3
3
3
3
3
3
2.99972
2.9991
2.99706
2.99236
2.98661
2.99485
3.0551
3.20548
3.43217
3.65175
3.74727
3.65175
3.43217
3.20548
3.0551
2.99485
2.98661
2.99236
2.99706
2.99911
2.99977
2.99995
2.99999
3
3
3
3
3
3
3
3
3
3
3
3
3
3
3
3
3
2.99979
2.99932
2.99769
2.99355
2.98666
2.98531
3.01635
3.11352
3.27348
3.43217
3.49882
3.43217
3.27348
3.11352
3.01635
2.98531
2.98666
2.99355
2.99769
2.99932
2.99983
2.99996
2.99999
3
3
3
3
3
3
3
3
3
3
3
3
3
3
3
3
3
2.99988
2.99958
2.99851
2.99552
2.98931
2.98213
2.98737
3.02874
3.11352
3.20548
3.24446
3.20548
3.11352
3.02874
2.98737
2.98213
2.98931
2.99552
2.99851
2.99958
2.9999
2.99998
3
3
3
3
3
3
3
3
3
3
3
3
3
3
3
3
3
3
2.99994
2.99978
2.99921
2.99749
2.99337
2.98634
2.98047
2.98737
3.01635
3.0551
3.07287
3.0551
3.01635
2.98737
2.98047
2.98634
2.99337
2.99749
2.99921
2.99979
2.99995
2.99999
3
3
3
3
3
3
3
3
3
3
3
3
3
3
3
3
3
3
2.99997
2.99991
2.99965
2.99885
2.99675
2.99246
2.98634
2.98213
2.98531
2.99485
3.00018
2.99485
2.98531
2.98213
2.98634
2.99246
2.99675
2.99885
2.99965
2.99991
2.99998
3
3
3
3
3
3
3
3
3
3
3
3
3
3
3
3
3
3
3
2.99999
2.99997
2.99987
2.99956
2.9987
2.99675
2.99337
2.98931
2.98666
2.98661
2.98721
2.98661
2.98666
2.98931
2.99337
2.99675
2.9987
2.99956
2.99987
2.99997
2.99999
3
3
3
3
3
3
3
3
3
3
3
3
3
3
3
3
3
3
3
3
2.99999
2.99996
2.99986
2.99956
2.99885
2.99749
2.99552
2.99355
2.99236
2.99205
2.99236
2.99355
2.99552
2.99749
2.99885
2.99956
2.99986
2.99996
2.99999
3
3
3
3
3
3
3
3
3
3
3
3
3
3
3
3
3
3
3
3
3
3
2.99999
2.99996
2.99987
2.99965
2.99921
2.99851
2.99769
2.99706
2.99685
2.99706
2.99769
2.99851
2.99921
2.99965
2.99987
2.99996
2.99999
3
3
3
3
3
3
3
3
3
3
3
3
3
3
3
3
3
3
3
3
3
3
3
3
2.99999
2.99997
2.99991
2.99979
2.99958
2.99932
2.99911
2.99902
2.99911
2.99932
2.99958
2.99979
2.99991
2.99997
2.99999
3
3
3
3
3
3
3
3
3
3.00001
3.00001
3.00002
3.00002
3.00002
3.00001
3.00001
3
3
3
3
3
3
3
3
3
3
2.99999
2.99998
2.99995
2.9999
2.99983
2.99977
2.99975
2.99977
2.99983
2.9999
2.99995
2.99998
2.99999
3
3
3
3
3
3
3
3
3.00001
3.00001
3.00003
3.00005
3.00007
3.00008
3.00007
3.00005
3.00003
3.00001
3.00001
3
3
3
3
3
3
3
3
3
3
2.99999
2.99998
2.99996
2.99995
2.99994
2.99995
2.99996
2.99998
2.99999
3
3
3
3
3
3
3
3
3
3.00001
3.00003
3.00006
3.00012
3.0002
3.00027
3.0003
3.00027
3.0002
3.00012
3.00006
3.00003
3.00001
3
3
3
3
3
3
3
3
3
3
3
2.99999
2.99999
2.99999
2.99999
2.99999
3
3
3
3
3
3
3
3
3
3
3.00001
3.00004
3.0001
3.00023
3.00045
3.00071
3.00093
3.00101
3.00093
3.00071
3.00045
3.00023
3.0001
3.00004
3.00001
3
3
3
3
3
3
3
3
3
3
3
3
3
3
3
3
3
3
3
3
3
3
3
3
3.00001
3.00004
3.00013
3.00034
3.00076
3.00141
3.00213
3.00267
3.00284
3.00267
3.00213
3.00141
3.00076
3.00034
3.00013
3.00004
3.00001
3
3
3
3
3
3
3
3
3
3
3
3
3
3
3
3
3
3
3
3
3
3
3.00001
3.00004
3.00013
3.00038
3.00098
3.0021
3.00366
3.00513
3.00586
3.00595
3.00586
3.00513
3.00366
3.0021
3.00098
3.00038
3.00013
3.00004
3.00001
3
3
3
3
3
3
3
3
3
3
3
3
3
3
3
3
3
3
3
3
3.00001
3.00003
3.0001
3.00034
3.00098
3.0024
3.00478
3.00747
3.00874
3.00759
3.00636
3.00759
3.00874
3.00747
3.00478
3.0024
3.00098
3.00034
3.0001
3.00003
3
3
3
3
3
3
3
3
3
3
3
3
3
3
3
3
3
3
3
3
3.00001
3.00006
3.00023
3.00076
3.0021
3.00478
3.00845
3.01027
3.00531
2.99341
2.98628
2.99341
3.00531
3.01027
3.00845
3.00478
3.0021
3.00076
3.00024
3.00008
3
3
3
3
3
3
3
3
3
3
3
3
3
3
3
3
3
3
3
3.00001
3.00003
3.00012
3.00045
3.00141
3.00366
3.00747
3.01027
3.00321
2.97407
2.92838
2.90496
2.92838
2.97407
3.00321
3.01027
3.00747
3.00366
3.00141
3.00045
3.00015
3
3
3
3
3
3
3
3
3
3
3
3
3
3
3
3
3
3
3
3.00001
3.00005
3.0002
3.00071
3.00213
3.00513
3.00874
3.00531
2.97407
2.89125
2.78296
2.73662
2.78296
2.89125
2.97407
3.00531
3.00874
3.00513
3.00214
3.00072
3.00025
3
3
3
3
3
3
3
3
3
3
3
3
3
3
3
3
3
3
3
3.00002
3.00007
3.00027
3.00093
3.00267
3.00586
3.00759
2.99341
2.92838
2.78296
2.62652
2.57682
2.62652
2.78296
2.92838
2.99341
3.00759
3.00586
3.00267
3.00095
3.00034
3
3
3
3
3
3
3
3
3
3
3
3
3
3
3
3
3
3
3
3.00002
3.00008
3.0003
3.00101
3.00284
3.00595
3.00636
2.98628
2.90496
2.73662
2.57682
2.53709
2.57682
2.73662
2.90496
2.98628
3.00636
3.00595
3.00284
3.00103
3.00037
3
3
3
3
3
3
3
3
3
3
3
3
3
3
3
3
3
3
3
3.00002
3.00007
3.00027
3.00093
3.00267
3.00586
3.00759
2.99341
2.92838
2.78296
2.62652
2.57682
2.62652
2.78296
2.92838
2.99341
3.00759
3.00586
3.00267
3.00095
3.00034
3
3
3
3
3
3
3
3
3
3
3
3
3
3
3
3
3
3
3
3.00001
3.00005
3.0002
3.00071
3.00213
3.00513
3.00874
3.00531
2.97407
2.89125
2.78296
2.73662
2.78296
2.89125
2.97407
3.00531
3.00874
3.00513
3.00214
3.00072
3.00025
3
3
3
3
3
3
3
3
3
3
3
3
3
3
3
3
3
3
3
3.00001
3.00003
3.00012
3.00045
3.00141
3.00366
3.00747
3.01027
3.00321
2.97407
2.92838
2.90496
2.92838
2.97407
3.00321
3.01027
3.00747
3.00366
3.00141
3.00045
3.00015
3
3
3
3
3
3
3
3
3
3
3
3
3
3
3
3
3
3
3
3
3.00001
3.00006
3.00023
3.00076
3.0021
3.00478
3.00845
3.01027
3.00531
2.99341
2.98628
2.99341
3.00531
3.01027
3.00845
3.00478
3.0021
3.00076
3.00024
3.00008
3
3
3
3
3
3
3
3
3
3
3
3
3
3
3
3
3
3
3
3
3.00001
3.00003
3.0001
3.00034
3.00098
3.0024
3.00478
3.00747
3.00874
3.00759
3.00636
3.00759
3.00874
3.00747
3.00478
3.0024
3.00098
3.00034
3.0001
3.00003
3
3
3
3
3
3
3
3
3
3
3
3
3
3
3
3
3
3
3
3
3
3.00001
3.00004
3.00013
3.00038
3.00098
3.0021
3.00366
3.00513
3.00586
3.00595
3.00586
3.00513
3.00366
3.0021
3.00098
3.00038
3.00013
3.00004
3.00001
3
3
3
3
3
3
3
3
3
3
3
3
3
3
3
3
3
3
3
3
3
3
3.00001
3.00004
3.00013
3.00034
3.00076
3.00141
3.00214
3.00267
3.00284
3.00267
3.00214
3.00141
3.00076
3.00034
3.00013
3.00004
3.00001
3
3
3
3
3
3
3
3
3
3
3
3
3
3
3
3
3
3
3
3
3
3
3
3
3.00001
3.00004
3.0001
3.00024
3.00045
3.00072
3.00095
3.00103
3.00095
3.00072
3.00045
3.00024
3.0001
3.00004
3.00001
3
3
3
3
3
3
3
3
3
3
3
3
3
3
3
3
3
3
3
3
3
3
3
3
3
3
3.00001
3.00003
3.00008
3.00015
3.00025
3.00034
3.00037
3.00034
3.00025
3.00015
3.00008
3.00003
3.00001
3
3
3
