# vtk DataFile Version 3.0
Brusselator Concentration Output
ASCII
DATASET STRUCTURED_POINTS
DIMENSIONS 40 40 1
ORIGIN 0.0 0.0 0.0
SPACING 0.005 0.005 1.0
POINT_DATA 1600
SCALARS C1 double 1
LOOKUP_TABLE default
1
1
1
1
1
1
1
1.00001
1.00002
1.00003
1.00003
1.00003
1.00002
1.00001
1
1
1
1
1
1
1
1
1
1
1
1
1
1
1
1
1
1
1
1
1
1
1
1
1
1
1
1
1
1
1
1.00001
1.00002
1.00004
1.00008
1.00012
1.00014
1.00012
1.00008
1.00004
1.00002
1.00001
1
1
1
1
1
1
1
1
1
1
1
1
1
1
1
1
1
1
1
1
1
1
1
1
1
1
1
1
1.00001
1.00003
1.00008
1.0002
1.00037
1.00054
1.00061
1.00054
1.00037
1.0002
1.00008
1.00003
1.00001
1
1
1
1
1
1
1
1
1
1
1
1
1
1
1
1
1
1
1
1
1
1
1
1
1
1
1.00001
1.00004
1.00013
1.00036
1.00081
1.00147
1.00206
1.00227
1.00206
1.00147
1.00081
1.00036
1.00013
1.00004
1.00001
1
1
1
1
1
1
1
1
1
1
1
1
1
1
1
1
1
1
1
1
1
1
1
1
1.00001
1.00004
1.00015
1.00048
1.00129
1.0028
1.00474
1.00616
1.00654
1.00616
1.00474
1.0028
1.00129
1.00048
1.00015
1.00004
1.00001
1
1
1
1
1
1
1
1
1
1
1
1
1
1
1
1
1
1
1
1
1
1
1.00001
1.00003
1.00013
1.00048
1.0015
1.00385
1.00772
1.01152
1.01276
1.01233
1.01276
1.01152
1.00772
1.00385
1.0015
1.00048
1.00013
1.00003
1.00001
1
1
1
1
1
1
1
1
1
1
1
1
1
1
1
1
1
1
1
1
1
1.00002
1.00008
1.00036
1.00129
1.00385
1.00907
1.01555
1.01713
1.01004
1.00452
1.01004
1.01713
1.01555
1.00907
1.00385
1.00129
1.00036
1.00008
1.00002
1
1
1
1
1
1
1
1
1
1
1
1
1
1
1
1
1
1
1
1
1.00001
1.00004
1.0002
1.00081
1.0028
1.00772
1.01555
1.01835
1.00054
0.965135
0.947244
0.965135
1.00054
1.01835
1.01555
1.00772
1.0028
1.00081
1.0002
1.00004
1.00001
1
1
1
1
1
1
1
1
1
1
1
1
1
1
1
1
1
1
1
1.00002
1.00008
1.00037
1.00147
1.00474
1.01152
1.01713
1.00054
0.939403
0.861111
0.829309
0.861111
0.939403
1.00054
1.01713
1.01152
1.00474
1.00147
1.00037
1.00008
1.00002
1
1
1
1
1
1
1
1
1
1
1
1
1
1
1
1
1
1
1
1.00003
1.00012
1.00054
1.00206
1.00616
1.01276
1.01004
0.965135
0.861111
0.752753
0.713828
0.752753
0.861111
0.965135
1.01004
1.01276
1.00616
1.00206
1.00054
1.00012
1.00002
1
1
1
1
1
1
1
1
1
1
1
1
1
1
1
1
1
1
1
1.00003
1.00014
1.00061
1.00227
1.00654
1.01233
1.00452
0.947244
0.829309
0.713828
0.672837
0.713828
0.829309
0.947244
1.00452
1.01233
1.00654
1.00227
1.00061
1.00014
1.00003
1
1
1
1
1
1
1
1
1
1
1
1
1
1
1
1
1
1
1
1.00003
1.00012
1.00054
1.00206
1.00616
1.01276
1.01004
0.965135
0.861111
0.752753
0.713828
0.752753
0.861111
0.965135
1.01004
1.01276
1.00616
1.00206
1.00054
1.00012
1.00002
1
1
1
1
1
1
1
1
1
1
1
1
1
1
1
1
1
1
1
1.00002
1.00008
1.00037
1.00147
1.00474
1.01152
1.01713
1.00054
0.939403
0.861111
0.829309
0.861111
0.939403
1.00054
1.01713
1.01152
1.00474
1.00147
1.00037
1.00008
1.00002
1
1
1
1
1
1
1
1
1
1
1
1
1
1
1
1
1
1
1
1.00001
1.00004
1.0002
1.00081
1.0028
1.00772
1.01555
1.01835
1.00054
0.965135
0.947244
0.965135
1.00054
1.01835
1.01555
1.00772
1.0028
1.00081
1.0002
1.00004
1.00001
1
1
1
1
1
1
1
1
1
1
1
1
1
1
1
1
1
1
1
1
1.00002
1.00008
1.00036
1.00129
1.00385
1.00907
1.01555
1.01713
1.01004
1.00452
1.01004
1.01713
1.01555
1.00907
1.00385
1.00129
1.00036
1.00008
1.00002
1
1
1
1
1
1
1
1
1
1
1
1
1
1
1
1
1
1
1
1
1
1.00001
1.00003
1.00013
1.00048
1.0015
1.00385
1.00772
1.01152
1.01276
1.01233
1.01276
1.01152
1.00772
1.00385
1.0015
1.00048
1.00013
1.00003
1.00001
1
1
1
1
1
1
1
1
1
1
1
1
1
1
1
1
1
1
1
1
1
1
1.00001
1.00004
1.00015
1.00048
1.00129
1.0028
1.00474
1.00616
1.00654
1.00616
1.00474
1.0028
1.00129
1.00048
1.00015
1.00004
1.00001
1
1
1
1
1
1
1
1
1
1
1
1
1
1
1
1
1
1
1
1
1
1
1
1
1.00001
1.00004
1.00013
1.00036
1.00081
1.00147
1.00206
1.00227
1.00206
1.00147
1.00081
1.00036
1.00013
1.00004
1.00001
1
1
1
1
1
1
1
1
1
1
1
1
1
1
1
1
1
1
1
1
1
1
1
1
1
1
1.00001
1.00003
1.00008
1.0002
1.00037
1.00054
1.00061
1.00054
1.00037
1.0002
1.00008
1.00003
1.00001
1
1
1
1
1
1
1
1
1
1
1
1
1
1
1
1
1
1
1
1
1
1
1
1
1
1
1
1
1.00001
1.00002
1.00004
1.00008
1.00012
1.00014
1.00012
1.00008
1.00004
1.00002
1.00001
1
1
1
1
1
1
1
1
1
1
1
1
0.999999
0.999999
0.999999
0.999999
0.999999
1
1
1
1
1
1
1
1
1
1
1
1
1
1
1.00001
1.00002
1.00002
1.00003
1.00002
1.00002
1.00001
1
1
1
1
1
1
1
1
1
1
1
1
0.999999
0.999998
0.999996
0.999993
0.999992
0.999993
0.999996
0.999998
0.999999
1
1
1
1
1
1
1
1
1
1
1
1
1
1
1
1
1
1
1
1
1
1
1
1
1
1
1
1
1
0.999999
0.999998
0.999995
0.999988
0.999977
0.999965
0.99996
0.999965
0.999977
0.999988
0.999995
0.999998
0.999999
1
1
1
1
1
1
1
1
1
1
1
1
1
1
1
1
1
1
1
1
1
1
1
1
1
1
0.999999
0.999997
0.999991
0.999976
0.999943
0.999892
0.99984
0.999819
0.99984
0.999892
0.999943
0.999976
0.999991
0.999997
0.999999
1
1
1
1
1
1
1
1
1
1
1
1
1
1
1
1
1
1
1
1
1
1
1
1
0.999999
0.999997
0.999989
0.999963
0.999898
0.999765
0.999568
0.99938
0.999305
0.99938
0.999568
0.999765
0.999898
0.999963
0.999989
0.999997
0.999999
1
1
1
1
1
1
1
1
1
1
1
1
1
1
1
1
1
1
1
1
1
1
0.999999
0.999997
0.999989
0.999958
0.999863
0.999628
0.999174
0.998547
0.998006
0.997821
0.998006
0.998547
0.999174
0.999628
0.999863
0.999958
0.999989
0.999997
0.999999
1
1
1
1
1
1
1
1
1
1
1
1
1
1
1
1
1
1
1
1
1
0.999998
0.999991
0.999963
0.999863
0.999567
0.998864
0.997604
0.996063
0.995019
0.99482
0.995019
0.996063
0.997604
0.998864
0.999567
0.999863
0.999963
0.999991
0.999998
1
1
1
1
1
1
1
1
1
1
1
1
1
1
1
1
1
1
1
1
0.999999
0.999995
0.999976
0.999898
0.999628
0.998864
0.997174
0.994506
0.992063
0.991721
0.992597
0.991721
0.992063
0.994506
0.997174
0.998864
0.999628
0.999898
0.999975
0.999994
1
1
1
1
1
1
1
1
1
1
1
1
1
1
1
1
1
1
1
1
0.999998
0.999988
0.999943
0.999765
0.999174
0.997604
0.994506
0.990778
0.990416
0.997087
1.00338
0.997087
0.990416
0.990778
0.994506
0.997604
0.999174
0.999765
0.999942
0.999986
1
1
1
1
1
1
1
1
1
1
1
1
1
1
1
1
1
1
1
0.999999
0.999996
0.999977
0.999892
0.999568
0.998547
0.996063
0.992063
0.990416
1.00153
1.03162
1.05382
1.03162
1.00153
0.990416
0.992063
0.996063
0.998547
0.999568
0.999891
0.999972
1
1
1
1
1
1
1
1
1
1
1
1
1
1
1
1
1
1
1
0.999999
0.999993
0.999965
0.99984
0.99938
0.998006
0.995019
0.991721
0.997087
1.03162
1.1044
1.15275
1.1044
1.03162
0.997087
0.991721
0.995019
0.998006
0.99938
0.999839
0.999958
1
1
1
1
1
1
1
1
1
1
1
1
1
1
1
1
1
1
1
0.999999
0.999992
0.99996
0.999819
0.999305
0.997821
0.99482
0.992597
1.00338
1.05382
1.15275
1.21261
1.15275
1.05382
1.00338
0.992597
0.99482
0.997821
0.999305
0.999817
0.999952
1
1
1
1
1
1
1
1
1
1
1
1
1
1
1
1
1
1
1
0.999999
0.999993
0.999965
0.99984
0.99938
0.998006
0.995019
0.991721
0.997087
1.03162
1.1044
1.15275
1.1044
1.03162
0.997087
0.991721
0.995019
0.998006
0.99938
0.999839
0.999958
1
1
1
1
1
1
1
1
1
1
1
1
1
1
1
1
1
1
1
0.999999
0.999996
0.999977
0.999892
0.999568
0.998547
0.996063
0.992063
0.990416
1.00153
1.03162
1.05382
1.03162
1.00153
0.990416
0.992063
0.996063
0.998547
0.999568
0.999891
0.999972
1
1
1
1
1
1
1
1
1
1
1
1
1
1
1
1
1
1
1
1
0.999998
0.999988
0.999943
0.999765
0.999174
0.997604
0.994506
0.990778
0.990416
0.997087
1.00338
0.997087
0.990416
0.990778
0.994506
0.997604
0.999174
0.999765
0.999942
0.999986
1
1
1
1
1
1
1
1
1
1
1
1
1
1
1
1
1
1
1
1
0.999999
0.999995
0.999976
0.999898
0.999628
0.998864
0.997174
0.994506
0.992063
0.991721
0.992597
0.991721
0.992063
0.994506
0.997174
0.998864
0.999628
0.999898
0.999975
0.999994
1
1
1
1
1
1
1
1
1
1
1
1
1
1
1
1
1
1
1
1
1
0.999998
0.999991
0.999963
0.999863
0.999567
0.998864
0.997604
0.996063
0.995019
0.99482
0.995019
0.996063
0.997604
0.998864
0.999567
0.999863
0.999963
0.999991
0.999998
1
1
1
1
1
1
1
1
1
1
1
1
1
1
1
1
1
1
1
1
1
0.999999
0.999997
0.999989
0.999958
0.999863
0.999628
0.999174
0.998547
0.998006
0.997821
0.998006
0.998547
0.999174
0.999628
0.999863
0.999958
0.999989
0.999997
0.999999
1
1
1
1
1
1
1
1
1
1
1
1
1
1
1
1
1
1
1
1
1
1
0.999999
0.999997
0.999989
0.999963
0.999898
0.999765
0.999568
0.99938
0.999305
0.99938
0.999568
0.999765
0.999898
0.999963
0.999989
0.999997
0.999999
1
1
1
1
1
1
1
1
1
1
1
1
1
1
1
1
1
1
1
1
1
1
1
1
0.999999
0.999997
0.999991
0.999975
0.999942
0.999891
0.999839
0.999817
0.999839
0.999891
0.999942
0.999975
0.999991
0.999997
0.999999
1
1
1
1
1
1
1
1
1
1
1
1
1
1
1
1
1
1
1
1
1
1
1
1
1
1
0.999999
0.999998
0.999994
0.999986
0.999972
0.999958
0.999952
0.999958
0.999972
0.999986
0.999994
0.999998
0.999999
1
1
1
SCALARS C2 double 1
LOOKUP_TABLE default
3
3
3
3
3
3
3
2.99999
2.99999
2.99998
2.99997
2.99998
2.99999
2.99999
3
3
3
3
3
3
3
3
3
3
3
3
3
3
3
3
3
3
3
3
3
3
3
3
3
3
3
3
3
3
3
3
2.99999
2.99996
2.99993
2.99989
2.99987
2.99989
2.99993
2.99996
2.99999
3
3
3
3
3
3
3
3
3
3
3
3
3
3
3
3
3
3
3
3
3
3
3
3
3
3
3
3
3
2.99999
2.99998
2.99993
2.99982
2.99963
2.99943
2.99934
2.99943
2.99963
2.99982
2.99993
2.99998
2.99999
3
3
3
3
3
3
3
3
3
3
3
3
3
3
3
3
3
3
3
3
3
3
3
3
3
3
2.99999
2.99997
2.99989
2.99967
2.99918
2.99838
2.99754
2.9972
2.99754
2.99838
2.99918
2.99967
2.99989
2.99997
2.99999
3
3
3
3
3
3
3
3
3
3
3
3
3
3
3
3
3
3
3
3
3
3
3
3
2.99999
2.99997
2.99987
2.99955
2.99867
2.99679
2.9939
2.99115
2.99013
2.99115
2.9939
2.99679
2.99867
2.99955
2.99987
2.99997
2.99999
3
3
3
3
3
3
3
3
3
3
3
3
3
3
3
3
3
3
3
3
3
3
3
2.99998
2.99989
2.99955
2.99845
2.99551
2.98959
2.98141
2.975
2.97339
2.975
2.98141
2.98959
2.99551
2.99845
2.99955
2.99989
2.99998
3
3
3
3
3
3
3
3
3
3
3
3
3
3
3
3
3
3
3
3
3
3
2.99999
2.99993
2.99967
2.99867
2.99551
2.98759
2.97327
2.9576
2.95157
2.95383
2.95157
2.9576
2.97327
2.98759
2.99551
2.99867
2.99967
2.99993
2.99999
3
3
3
3
3
3
3
3
3
3
3
3
3
3
3
3
3
3
3
3
2.99999
2.99996
2.99982
2.99918
2.99679
2.98959
2.97327
2.94971
2.93846
2.95816
2.9797
2.95816
2.93846
2.94971
2.97327
2.98959
2.99679
2.99918
2.99982
2.99996
2.99999
3
3
3
3
3
3
3
3
3
3
3
3
3
3
3
3
3
3
3
2.99999
2.99993
2.99963
2.99838
2.9939
2.98141
2.9576
2.93846
2.96831
3.05798
3.12059
3.05798
2.96831
2.93846
2.9576
2.98141
2.9939
2.99838
2.99963
2.99993
2.99999
3
3
3
3
3
3
3
3
3
3
3
3
3
3
3
3
3
3
3
2.99998
2.99989
2.99943
2.99754
2.99115
2.975
2.95157
2.95816
3.05798
3.23606
3.34841
3.23606
3.05798
2.95816
2.95157
2.975
2.99115
2.99754
2.99943
2.99989
2.99998
3
3
3
3
3
3
3
3
3
3
3
3
3
3
3
3
3
3
3
2.99997
2.99987
2.99934
2.9972
2.99013
2.97339
2.95383
2.9797
3.12059
3.34841
3.48641
3.34841
3.12059
2.9797
2.95383
2.97339
2.99013
2.9972
2.99934
2.99987
2.99998
3
3
3
3
3
3
3
3
3
3
3
3
3
3
3
3
3
3
3
2.99998
2.99989
2.99943
2.99754
2.99115
2.975
2.95157
2.95816
3.05798
3.23606
3.34841
3.23606
3.05798
2.95816
2.95157
2.975
2.99115
2.99754
2.99943
2.99989
2.99998
3
3
3
3
3
3
3
3
3
3
3
3
3
3
3
3
3
3
3
2.99999
2.99993
2.99963
2.99838
2.9939
2.98141
2.9576
2.93846
2.96831
3.05798
3.12059
3.05798
2.96831
2.93846
2.9576
2.98141
2.9939
2.99838
2.99963
2.99993
2.99999
3
3
3
3
3
3
3
3
3
3
3
3
3
3
3
3
3
3
3
2.99999
2.99996
2.99982
2.99918
2.99679
2.98959
2.97327
2.94971
2.93846
2.95816
2.9797
2.95816
2.93846
2.94971
2.97327
2.98959
2.99679
2.99918
2.99982
2.99996
2.99999
3
3
3
3
3
3
3
3
3
3
3
3
3
3
3
3
3
3
3
3
2.99999
2.99993
2.99967
2.99867
2.99551
2.98759
2.97327
2.9576
2.95157
2.95383
2.95157
2.9576
2.97327
2.98759
2.99551
2.99867
2.99967
2.99993
2.99999
3
3
3
3
3
3
3
3
3
3
3
3
3
3
3
3
3
3
3
3
3
3
2.99998
2.99989
2.99955
2.99845
2.99551
2.98959
2.98141
2.975
2.97339
2.975
2.98141
2.98959
2.99551
2.99845
2.99955
2.99989
2.99998
3
3
3
3
3
3
3
3
3
3
3
3
3
3
3
3
3
3
3
3
3
3
3
2.99999
2.99997
2.99987
2.99955
2.99867
2.99679
2.9939
2.99115
2.99013
2.99115
2.9939
2.99679
2.99867
2.99955
2.99987
2.99997
2.99999
3
3
3
3
3
3
3
3
3
3
3
3
3
3
3
3
3
3
3
3
3
3
3
3
2.99999
2.99997
2.99989
2.99967
2.99918
2.99838
2.99754
2.9972
2.99754
2.99838
2.99918
2.99967
2.99989
2.99997
2.99999
3
3
3
3
3
3
3
3
3
3
3
3
3
3
3
3
3
3
3
3
3
3
3
3
3
3
2.99999
2.99998
2.99993
2.99982
2.99963
2.99943
2.99934
2.99943
2.99963
2.99982
2.99993
2.99998
2.99999
3
3
3
3
3
3
3
3
3
3
3
3
3
3
3
3
3
3
3
3
3
3
3
3
3
3
3
3
3
2.99999
2.99996
2.99993
2.99989
2.99987
2.99989
2.99993
2.99996
2.99999
3
3
3
3
3
3
3
3
3
3
3
3
3
3
3
3
3
3
3
3
3
3
3
3
3
3
3
3
3
3
3
3
2.99999
2.99999
2.99998
2.99998
2.99998
2.99999
2.99999
3
3
3
3
3
3
3
3
3
3
3
3
3
3
3
3.00001
3.00001
3.00001
3
3
3
3
3
3
3
3
3
3
3
3
3
3
3
3
3
3
3
3
3
3
3
3
3
3
3
3
3
3
3
3
3
3
3
3.00001
3.00002
3.00003
3.00004
3.00003
3.00002
3.00001
3
3
3
3
3
3
3
3
3
3
3
3
3
3
3
3
3
3
3
3
3
3
3
3
3
3
3
3
3
3
3
3.00001
3.00002
3.00005
3.00011
3.00017
3.00019
3.00017
3.00011
3.00005
3.00002
3.00001
3
3
3
3
3
3
3
3
3
3
3
3
3
3
3
3
3
3
3
3
3
3
3
3
3
3
3
3
3.00001
3.00003
3.0001
3.00024
3.00047
3.00072
3.00083
3.00072
3.00047
3.00024
3.0001
3.00003
3.00001
3
3
3
3
3
3
3
3
3
3
3
3
3
3
3
3
3
3
3
3
3
3
3
3
3
3
3.00001
3.00004
3.00013
3.00038
3.00093
3.0018
3.0027
3.00308
3.0027
3.0018
3.00093
3.00038
3.00013
3.00004
3.00001
3
3
3
3
3
3
3
3
3
3
3
3
3
3
3
3
3
3
3
3
3
3
3
3
3.00001
3.00003
3.00013
3.00045
3.0013
3.00308
3.00579
3.00834
3.00926
3.00834
3.00579
3.00308
3.0013
3.00045
3.00013
3.00003
3.00001
3
3
3
3
3
3
3
3
3
3
3
3
3
3
3
3
3
3
3
3
3
3
3
3.00002
3.0001
3.00038
3.0013
3.00368
3.00841
3.01496
3.02015
3.0213
3.02015
3.01496
3.00841
3.00368
3.0013
3.00038
3.0001
3.00002
3
3
3
3
3
3
3
3
3
3
3
3
3
3
3
3
3
3
3
3
3
3
3.00001
3.00005
3.00024
3.00093
3.00308
3.00841
3.01813
3.02936
3.03396
3.03106
3.03396
3.02936
3.01813
3.00841
3.00308
3.00093
3.00024
3.00005
3.00001
3
3
3
3
3
3
3
3
3
3
3
3
3
3
3
3
3
3
3
3
3
3.00002
3.00011
3.00047
3.0018
3.00579
3.01496
3.02936
3.0388
3.02454
3.00081
3.02454
3.0388
3.02936
3.01496
3.00579
3.0018
3.00047
3.00011
3.00002
3
3
3
3
3
3
3
3
3
3
3
3
3
3
3
3
3
3
3
3
3.00001
3.00003
3.00017
3.00072
3.0027
3.00834
3.02015
3.03396
3.02454
2.95353
2.87703
2.95353
3.02454
3.03396
3.02015
3.00834
3.0027
3.00072
3.00017
3.00004
3
3
3
3
3
3
3
3
3
3
3
3
3
3
3
3
3
3
3
3
3.00001
3.00004
3.00019
3.00083
3.00308
3.00926
3.0213
3.03106
3.00081
2.87703
2.75586
2.87703
3.00081
3.03106
3.0213
3.00926
3.00308
3.00084
3.00019
3.00005
3
3
3
3
3
3
3
3
3
3
3
3
3
3
3
3
3
3
3
3
3.00001
3.00003
3.00017
3.00072
3.0027
3.00834
3.02015
3.03396
3.02454
2.95353
2.87703
2.95353
3.02454
3.03396
3.02015
3.00834
3.0027
3.00072
3.00017
3.00004
3
3
3
3
3
3
3
3
3
3
3
3
3
3
3
3
3
3
3
3
3
3.00002
3.00011
3.00047
3.0018
3.00579
3.01496
3.02936
3.0388
3.02454
3.00081
3.02454
3.0388
3.02936
3.01496
3.00579
3.0018
3.00047
3.00011
3.00002
3
3
3
3
3
3
3
3
3
3
3
3
3
3
3
3
3
3
3
3
3
3.00001
3.00005
3.00024
3.00093
3.00308
3.00841
3.01813
3.02936
3.03396
3.03106
3.03396
3.02936
3.01813
3.00841
3.00308
3.00093
3.00024
3.00005
3.00001
3
3
3
3
3
3
3
3
3
3
3
3
3
3
3
3
3
3
3
3
3
3
3.00002
3.0001
3.00038
3.0013
3.00368
3.00841
3.01496
3.02015
3.0213
3.02015
3.01496
3.00841
3.00368
3.0013
3.00038
3.0001
3.00002
3
3
3
3
3
3
3
3
3
3
3
3
3
3
3
3
3
3
3
3
3
3
3
3.00001
3.00003
3.00013
3.00045
3.0013
3.00308
3.00579
3.00834
3.00926
3.00834
3.00579
3.00308
3.0013
3.00045
3.00013
3.00003
3.00001
3
3
3
3
3
3
3
3
3
3
3
3
3
3
3
3
3
3
3
3
3
3
3
3
3.00001
3.00004
3.00013
3.00038
3.00093
3.0018
3.0027
3.00308
3.0027
3.0018
3.00093
3.00038
3.00013
3.00004
3.00001
3
3
3
3
3
3
3
3
3
3
3
3
3
3
3
3
3
3
3
3
3
3
3
3
3
3
3.00001
3.00003
3.0001
3.00024
3.00047
3.00072
3.00084
3.00072
3.00047
3.00024
3.0001
3.00003
3.00001
3
3
3
3
3
3
3
3
3
3
3
3
3
3
3
3
3
3
3
3
3
3
3
3
3
3
3
3
3.00001
3.00002
3.00005
3.00011
3.00017
3.00019
3.00017
3.00011
3.00005
3.00002
3.00001
3
3
3
3
3
3
3
3
3
3
3
3
3
3
3
3
3
3
3
3
3
3
3
3
3
3
3
3
3
3
3
3.00001
3.00002
3.00004
3.00005
3.00004
3.00002
3.00001
3
3
3
3
3
3
