# vtk DataFile Version 3.0
Brusselator Concentration Output
ASCII
DATASET STRUCTURED_POINTS
DIMENSIONS 40 40 1
ORIGIN 0.0 0.0 0.0
SPACING 0.005 0.005 1.0
POINT_DATA 1600
SCALARS C1 double 1
LOOKUP_TABLE default
1
1
1
1
1
1
1
1
1.00001
1.00001
1.00001
1.00001
1.00001
1
1
1
1
1
1
1
1
1
1
1
1
1
1
1
1
1
1
1
1
1
1
1
1
1
1
1
1
1
1
1
1
1
1.00001
1.00001
1.00003
1.00005
1.00006
1.00005
1.00003
1.00001
1.00001
1
1
1
1
1
1
1
1
1
1
1
1
1
1
1
1
1
1
1
1
1
1
1
1
1
1
1
1
1
1
1.00001
1.00003
1.00008
1.00016
1.00025
1.0003
1.00025
1.00016
1.00008
1.00003
1.00001
1
1
1
1
1
1
1
1
1
1
1
1
1
1
1
1
1
1
1
1
1
1
1
1
1
1
1
1
1.00001
1.00004
1.00014
1.00037
1.00074
1.00115
1.00132
1.00115
1.00074
1.00037
1.00014
1.00004
1.00001
1
1
1
1
1
1
1
1
1
1
1
1
1
1
1
1
1
1
1
1
1
1
1
1
1
1
1.00001
1.00005
1.00019
1.00059
1.00149
1.00291
1.00428
1.00476
1.00428
1.00291
1.00149
1.00059
1.00019
1.00005
1.00001
1
1
1
1
1
1
1
1
1
1
1
1
1
1
1
1
1
1
1
1
1
1
1
1
1.00001
1.00004
1.00019
1.00069
1.0021
1.00502
1.00913
1.01222
1.01283
1.01222
1.00913
1.00502
1.0021
1.00069
1.00019
1.00004
1.00001
1
1
1
1
1
1
1
1
1
1
1
1
1
1
1
1
1
1
1
1
1
1
1.00001
1.00003
1.00014
1.00059
1.0021
1.00601
1.01323
1.02083
1.02243
1.0201
1.02243
1.02083
1.01323
1.00601
1.0021
1.00059
1.00014
1.00003
1.00001
1
1
1
1
1
1
1
1
1
1
1
1
1
1
1
1
1
1
1
1
1
1.00001
1.00008
1.00037
1.00149
1.00502
1.01323
1.02474
1.02705
1.00898
0.993957
1.00898
1.02705
1.02474
1.01323
1.00502
1.00149
1.00037
1.00008
1.00001
1
1
1
1
1
1
1
1
1
1
1
1
1
1
1
1
1
1
1
1
1.00001
1.00003
1.00016
1.00074
1.00291
1.00913
1.02083
1.02705
0.997285
0.929547
0.892583
0.929547
0.997285
1.02705
1.02083
1.00913
1.00291
1.00074
1.00016
1.00003
1
1
1
1
1
1
1
1
1
1
1
1
1
1
1
1
1
1
1
1
1.00001
1.00005
1.00025
1.00115
1.00428
1.01222
1.02243
1.00898
0.929547
0.811291
0.757853
0.811291
0.929547
1.00898
1.02243
1.01222
1.00428
1.00115
1.00025
1.00005
1.00001
1
1
1
1
1
1
1
1
1
1
1
1
1
1
1
1
1
1
1
1.00001
1.00006
1.0003
1.00132
1.00476
1.01283
1.0201
0.993957
0.892583
0.757853
0.698698
0.757853
0.892583
0.993957
1.0201
1.01283
1.00476
1.00132
1.0003
1.00006
1.00001
1
1
1
1
1
1
1
1
1
1
1
1
1
1
1
1
1
1
1
1.00001
1.00005
1.00025
1.00115
1.00428
1.01222
1.02243
1.00898
0.929547
0.811291
0.757853
0.811291
0.929547
1.00898
1.02243
1.01222
1.00428
1.00115
1.00025
1.00005
1.00001
1
1
1
1
1
1
1
1
1
1
1
1
1
1
1
1
1
1
1
1.00001
1.00003
1.00016
1.00074
1.00291
1.00913
1.02083
1.02705
0.997285
0.929547
0.892583
0.929547
0.997285
1.02705
1.02083
1.00913
1.00291
1.00074
1.00016
1.00003
1
1
1
1
1
1
1
1
1
1
1
1
1
1
1
1
1
1
1
1
1
1.00001
1.00008
1.00037
1.00149
1.00502
1.01323
1.02474
1.02705
1.00898
0.993957
1.00898
1.02705
1.02474
1.01323
1.00502
1.00149
1.00037
1.00008
1.00001
1
1
1
1
1
1
1
1
1
1
1
1
1
1
1
1
1
1
1
1
1
1.00001
1.00003
1.00014
1.00059
1.0021
1.00601
1.01323
1.02083
1.02243
1.0201
1.02243
1.02083
1.01323
1.00601
1.0021
1.00059
1.00014
1.00003
1.00001
1
1
1
1
1
1
1
1
1
1
1
1
1
1
1
1
1
1
1
1
1
1
1.00001
1.00004
1.00019
1.00069
1.0021
1.00502
1.00913
1.01222
1.01283
1.01222
1.00913
1.00502
1.0021
1.00069
1.00019
1.00004
1.00001
1
1
1
1
1
1
1
1
1
1
1
1
1
1
1
1
1
1
1
1
1
1
1
1
1.00001
1.00005
1.00019
1.00059
1.00149
1.00291
1.00428
1.00476
1.00428
1.00291
1.00149
1.00059
1.00019
1.00005
1.00001
1
1
1
1
1
1
1
1
1
1
1
1
1
1
1
1
1
1
1
1
1
1
1
1
1
1
1.00001
1.00004
1.00014
1.00037
1.00074
1.00115
1.00132
1.00115
1.00074
1.00037
1.00014
1.00004
1.00001
1
1
1
1
1
1
1
1
1
1
1
1
1
1
1
1
1
1
1
1
1
1
1
1
1
1
1
1
1.00001
1.00003
1.00008
1.00016
1.00025
1.0003
1.00025
1.00016
1.00008
1.00003
1.00001
1
1
1
1
1
1
1
1
1
1
1
1
1
1
1
1
1
1
1
1
1
1
1
1
1
1
1
1
1
1
1.00001
1.00001
1.00003
1.00005
1.00006
1.00005
1.00003
1.00001
1.00001
1
1
1
1
1
1
1
1
1
1
1
1
1
1
1
1
1
1
1
1
1
1
1
1
1
1
1
1
1
1
1
1
1
1
1.00001
1.00001
1.00001
1
1
1
1
1
1
1
1
1
1
1
1
1
1
1
0.999999
0.999999
0.999998
0.999997
0.999998
0.999999
0.999999
1
1
1
1
1
1
1
1
1
1
1
1
1
1
1
1
1
1
1
1
1
1
1
1
1
1
1
1
1
1
1
1
0.999998
0.999996
0.999991
0.999986
0.999983
0.999986
0.999991
0.999996
0.999998
1
1
1
1
1
1
1
1
1
1
1
1
1
1
1
1
1
1
1
1
1
1
1
1
1
1
1
1
1
0.999999
0.999997
0.999992
0.999978
0.999954
0.999926
0.999914
0.999926
0.999954
0.999978
0.999992
0.999997
0.999999
1
1
1
1
1
1
1
1
1
1
1
1
1
1
1
1
1
1
1
1
1
1
1
1
1
1
0.999999
0.999997
0.999987
0.999959
0.999895
0.999785
0.999665
0.999612
0.999665
0.999785
0.999895
0.999959
0.999987
0.999997
0.999999
1
1
1
1
1
1
1
1
1
1
1
1
1
1
1
1
1
1
1
1
1
1
1
1
0.999999
0.999997
0.999985
0.999945
0.999831
0.999572
0.99915
0.998714
0.998538
0.998714
0.99915
0.999572
0.999831
0.999945
0.999985
0.999997
0.999999
1
1
1
1
1
1
1
1
1
1
1
1
1
1
1
1
1
1
1
1
1
1
1
0.999997
0.999987
0.999945
0.999802
0.9994
0.998536
0.997216
0.995995
0.995591
0.995995
0.997216
0.998536
0.9994
0.999802
0.999945
0.999987
0.999997
0.999999
1
1
1
1
1
1
1
1
1
1
1
1
1
1
1
1
1
1
1
1
1
0.999998
0.999992
0.999959
0.999831
0.9994
0.998249
0.995935
0.9928
0.990562
0.990298
0.990562
0.9928
0.995935
0.998249
0.9994
0.999831
0.999959
0.999992
0.999998
1
1
1
1
1
1
1
1
1
1
1
1
1
1
1
1
1
1
1
1
0.999999
0.999996
0.999978
0.999895
0.999572
0.998536
0.995935
0.99127
0.986429
0.985806
0.988495
0.985806
0.986429
0.99127
0.995935
0.998536
0.999572
0.999895
0.999978
0.999995
1
1
1
1
1
1
1
1
1
1
1
1
1
1
1
1
1
1
1
1
0.999999
0.999991
0.999954
0.999785
0.99915
0.997216
0.9928
0.986429
0.9845
0.996614
1.01174
0.996614
0.9845
0.986429
0.9928
0.997216
0.99915
0.999785
0.999954
0.99999
1
1
1
1
1
1
1
1
1
1
1
1
1
1
1
1
1
1
1
1
0.999998
0.999986
0.999926
0.999665
0.998714
0.995995
0.990562
0.985806
0.996614
1.04145
1.08597
1.04145
0.996614
0.985806
0.990562
0.995995
0.998714
0.999665
0.999926
0.999984
1
1
1
1
1
1
1
1
1
1
1
1
1
1
1
1
1
1
1
1
0.999997
0.999983
0.999914
0.999612
0.998538
0.995591
0.990298
0.988495
1.01174
1.08597
1.15641
1.08597
1.01174
0.988495
0.990298
0.995591
0.998538
0.999612
0.999913
0.999981
1
1
1
1
1
1
1
1
1
1
1
1
1
1
1
1
1
1
1
1
0.999998
0.999986
0.999926
0.999665
0.998714
0.995995
0.990562
0.985806
0.996614
1.04145
1.08597
1.04145
0.996614
0.985806
0.990562
0.995995
0.998714
0.999665
0.999926
0.999984
1
1
1
1
1
1
1
1
1
1
1
1
1
1
1
1
1
1
1
1
0.999999
0.999991
0.999954
0.999785
0.99915
0.997216
0.9928
0.986429
0.9845
0.996614
1.01174
0.996614
0.9845
0.986429
0.9928
0.997216
0.99915
0.999785
0.999954
0.99999
1
1
1
1
1
1
1
1
1
1
1
1
1
1
1
1
1
1
1
1
0.999999
0.999996
0.999978
0.999895
0.999572
0.998536
0.995935
0.99127
0.986429
0.985806
0.988495
0.985806
0.986429
0.99127
0.995935
0.998536
0.999572
0.999895
0.999978
0.999995
1
1
1
1
1
1
1
1
1
1
1
1
1
1
1
1
1
1
1
1
1
0.999998
0.999992
0.999959
0.999831
0.9994
0.998249
0.995935
0.9928
0.990562
0.990298
0.990562
0.9928
0.995935
0.998249
0.9994
0.999831
0.999959
0.999992
0.999998
1
1
1
1
1
1
1
1
1
1
1
1
1
1
1
1
1
1
1
1
1
1
0.999997
0.999987
0.999945
0.999802
0.9994
0.998536
0.997216
0.995995
0.995591
0.995995
0.997216
0.998536
0.9994
0.999802
0.999945
0.999987
0.999997
0.999999
1
1
1
1
1
1
1
1
1
1
1
1
1
1
1
1
1
1
1
1
1
1
0.999999
0.999997
0.999985
0.999945
0.999831
0.999572
0.99915
0.998714
0.998538
0.998714
0.99915
0.999572
0.999831
0.999945
0.999985
0.999997
0.999999
1
1
1
1
1
1
1
1
1
1
1
1
1
1
1
1
1
1
1
1
1
1
1
1
0.999999
0.999997
0.999987
0.999959
0.999895
0.999785
0.999665
0.999612
0.999665
0.999785
0.999895
0.999959
0.999987
0.999997
0.999999
1
1
1
1
1
1
1
1
1
1
1
1
1
1
1
1
1
1
1
1
1
1
1
1
1
1
0.999999
0.999997
0.999992
0.999978
0.999954
0.999926
0.999913
0.999926
0.999954
0.999978
0.999992
0.999997
0.999999
1
1
1
1
1
1
1
1
1
1
1
1
1
1
1
1
1
1
1
1
1
1
1
1
1
1
1
1
0.999999
0.999998
0.999995
0.99999
0.999984
0.999981
0.999984
0.99999
0.999995
0.999998
0.999999
1
1
1
1
SCALARS C2 double 1
LOOKUP_TABLE default
3
3
3
3
3
3
3
3
3
2.99999
2.99999
2.99999
3
3
3
3
3
3
3
3
3
3
3
3
3
3
3
3
3
3
3
3
3
3
3
3
3
3
3
3
3
3
3
3
3
3
3
2.99999
2.99998
2.99996
2.99995
2.99996
2.99998
2.99999
3
3
3
3
3
3
3
3
3
3
3
3
3
3
3
3
3
3
3
3
3
3
3
3
3
3
3
3
3
3
3
2.99999
2.99998
2.99994
2.99986
2.99976
2.99972
2.99976
2.99986
2.99994
2.99998
2.99999
3
3
3
3
3
3
3
3
3
3
3
3
3
3
3
3
3
3
3
3
3
3
3
3
3
3
3
3
2.99999
2.99997
2.99988
2.99967
2.99928
2.9988
2.99858
2.9988
2.99928
2.99967
2.99988
2.99997
2.99999
3
3
3
3
3
3
3
3
3
3
3
3
3
3
3
3
3
3
3
3
3
3
3
3
3
3
2.99999
2.99996
2.99984
2.99946
2.99852
2.99679
2.99482
2.99396
2.99482
2.99679
2.99852
2.99946
2.99984
2.99996
2.99999
3
3
3
3
3
3
3
3
3
3
3
3
3
3
3
3
3
3
3
3
3
3
3
3
2.99999
2.99997
2.99984
2.99937
2.99789
2.99431
2.98813
2.98172
2.97936
2.98172
2.98813
2.99431
2.99789
2.99937
2.99984
2.99997
2.99999
3
3
3
3
3
3
3
3
3
3
3
3
3
3
3
3
3
3
3
3
3
3
3
2.99998
2.99988
2.99946
2.99789
2.99313
2.9822
2.96526
2.95122
2.94851
2.95122
2.96526
2.9822
2.99313
2.99789
2.99946
2.99988
2.99998
3
3
3
3
3
3
3
3
3
3
3
3
3
3
3
3
3
3
3
3
3
3
2.99999
2.99994
2.99967
2.99852
2.99431
2.9822
2.95713
2.92663
2.91614
2.92552
2.91614
2.92663
2.95713
2.9822
2.99431
2.99852
2.99967
2.99994
2.99999
3
3
3
3
3
3
3
3
3
3
3
3
3
3
3
3
3
3
3
3
3
2.99998
2.99986
2.99928
2.99679
2.98813
2.96526
2.92663
2.90433
2.94223
2.99207
2.94223
2.90433
2.92663
2.96526
2.98813
2.99679
2.99928
2.99986
2.99998
3
3
3
3
3
3
3
3
3
3
3
3
3
3
3
3
3
3
3
3
2.99999
2.99996
2.99976
2.9988
2.99482
2.98172
2.95122
2.91614
2.94223
3.06858
3.17557
3.06858
2.94223
2.91614
2.95122
2.98172
2.99482
2.9988
2.99976
2.99996
2.99999
3
3
3
3
3
3
3
3
3
3
3
3
3
3
3
3
3
3
3
2.99999
2.99995
2.99972
2.99858
2.99396
2.97936
2.94851
2.92552
2.99207
3.17557
3.31139
3.17557
2.99207
2.92552
2.94851
2.97936
2.99396
2.99858
2.99972
2.99995
2.99999
3
3
3
3
3
3
3
3
3
3
3
3
3
3
3
3
3
3
3
2.99999
2.99996
2.99976
2.9988
2.99482
2.98172
2.95122
2.91614
2.94223
3.06858
3.17557
3.06858
2.94223
2.91614
2.95122
2.98172
2.99482
2.9988
2.99976
2.99996
2.99999
3
3
3
3
3
3
3
3
3
3
3
3
3
3
3
3
3
3
3
3
2.99998
2.99986
2.99928
2.99679
2.98813
2.96526
2.92663
2.90433
2.94223
2.99207
2.94223
2.90433
2.92663
2.96526
2.98813
2.99679
2.99928
2.99986
2.99998
3
3
3
3
3
3
3
3
3
3
3
3
3
3
3
3
3
3
3
3
3
2.99999
2.99994
2.99967
2.99852
2.99431
2.9822
2.95713
2.92663
2.91614
2.92552
2.91614
2.92663
2.95713
2.9822
2.99431
2.99852
2.99967
2.99994
2.99999
3
3
3
3
3
3
3
3
3
3
3
3
3
3
3
3
3
3
3
3
3
3
2.99998
2.99988
2.99946
2.99789
2.99313
2.9822
2.96526
2.95122
2.94851
2.95122
2.96526
2.9822
2.99313
2.99789
2.99946
2.99988
2.99998
3
3
3
3
3
3
3
3
3
3
3
3
3
3
3
3
3
3
3
3
3
3
3
2.99999
2.99997
2.99984
2.99937
2.99789
2.99431
2.98813
2.98172
2.97936
2.98172
2.98813
2.99431
2.99789
2.99937
2.99984
2.99997
2.99999
3
3
3
3
3
3
3
3
3
3
3
3
3
3
3
3
3
3
3
3
3
3
3
3
2.99999
2.99996
2.99984
2.99946
2.99852
2.99679
2.99482
2.99396
2.99482
2.99679
2.99852
2.99946
2.99984
2.99996
2.99999
3
3
3
3
3
3
3
3
3
3
3
3
3
3
3
3
3
3
3
3
3
3
3
3
3
3
2.99999
2.99997
2.99988
2.99967
2.99928
2.9988
2.99858
2.9988
2.99928
2.99967
2.99988
2.99997
2.99999
3
3
3
3
3
3
3
3
3
3
3
3
3
3
3
3
3
3
3
3
3
3
3
3
3
3
3
3
2.99999
2.99998
2.99994
2.99986
2.99976
2.99972
2.99976
2.99986
2.99994
2.99998
2.99999
3
3
3
3
3
3
3
3
3
3
3
3
3
3
3
3
3
3
3
3
3
3
3
3
3
3
3
3
3
3
3
2.99999
2.99998
2.99996
2.99995
2.99996
2.99998
2.99999
3
3
3
3
3
3
3
3
3
3
3
3
3
3
3
3
3
3
3
3
3
3
3
3
3
3
3
3
3
3
3
3
3
3
3
2.99999
2.99999
2.99999
3
3
3
3
3
3
3
3
3
3
3
3
3
3
3
3
3
3
3
3
3
3
3
3
3
3
3
3
3
3
3
3
3
3
3
3
3
3
3
3
3
3
3
3
3
3
3
3
3
3
3
3
3
3
3
3
3.00001
3.00001
3.00001
3.00001
3.00001
3
3
3
3
3
3
3
3
3
3
3
3
3
3
3
3
3
3
3
3
3
3
3
3
3
3
3
3
3
3
3
3
3
3.00001
3.00002
3.00004
3.00007
3.00008
3.00007
3.00004
3.00002
3.00001
3
3
3
3
3
3
3
3
3
3
3
3
3
3
3
3
3
3
3
3
3
3
3
3
3
3
3
3
3
3
3.00001
3.00003
3.00009
3.00021
3.00035
3.00042
3.00035
3.00021
3.00009
3.00003
3.00001
3
3
3
3
3
3
3
3
3
3
3
3
3
3
3
3
3
3
3
3
3
3
3
3
3
3
3
3
3.00001
3.00005
3.00015
3.00042
3.00092
3.00152
3.0018
3.00152
3.00092
3.00042
3.00015
3.00005
3.00001
3
3
3
3
3
3
3
3
3
3
3
3
3
3
3
3
3
3
3
3
3
3
3
3
3
3
3.00001
3.00005
3.00018
3.0006
3.00163
3.00347
3.00557
3.00649
3.00557
3.00347
3.00163
3.0006
3.00018
3.00005
3.00001
3
3
3
3
3
3
3
3
3
3
3
3
3
3
3
3
3
3
3
3
3
3
3
3
3.00001
3.00003
3.00015
3.0006
3.00197
3.00521
3.01076
3.01661
3.01883
3.01661
3.01076
3.00521
3.00197
3.0006
3.00015
3.00003
3.00001
3
3
3
3
3
3
3
3
3
3
3
3
3
3
3
3
3
3
3
3
3
3
3
3.00002
3.00009
3.00042
3.00163
3.00521
3.01334
3.02629
3.03805
3.04072
3.03805
3.02629
3.01334
3.00521
3.00163
3.00042
3.00009
3.00002
3
3
3
3
3
3
3
3
3
3
3
3
3
3
3
3
3
3
3
3
3
3
3.00001
3.00004
3.00021
3.00092
3.00347
3.01076
3.02629
3.04794
3.06048
3.05469
3.06048
3.04794
3.02629
3.01076
3.00347
3.00092
3.00021
3.00004
3.00001
3
3
3
3
3
3
3
3
3
3
3
3
3
3
3
3
3
3
3
3
3
3.00001
3.00007
3.00035
3.00152
3.00557
3.01661
3.03805
3.06048
3.05056
3.0095
3.05056
3.06048
3.03805
3.01661
3.00557
3.00152
3.00035
3.00007
3.00001
3
3
3
3
3
3
3
3
3
3
3
3
3
3
3
3
3
3
3
3
3
3.00001
3.00008
3.00042
3.0018
3.00649
3.01883
3.04072
3.05469
3.0095
2.92308
3.0095
3.05469
3.04072
3.01883
3.00649
3.0018
3.00042
3.00008
3.00002
3
3
3
3
3
3
3
3
3
3
3
3
3
3
3
3
3
3
3
3
3
3.00001
3.00007
3.00035
3.00152
3.00557
3.01661
3.03805
3.06048
3.05056
3.0095
3.05056
3.06048
3.03805
3.01661
3.00557
3.00152
3.00035
3.00007
3.00001
3
3
3
3
3
3
3
3
3
3
3
3
3
3
3
3
3
3
3
3
3
3.00001
3.00004
3.00021
3.00092
3.00347
3.01076
3.02629
3.04794
3.06048
3.05469
3.06048
3.04794
3.02629
3.01076
3.00347
3.00092
3.00021
3.00004
3.00001
3
3
3
3
3
3
3
3
3
3
3
3
3
3
3
3
3
3
3
3
3
3
3.00002
3.00009
3.00042
3.00163
3.00521
3.01334
3.02629
3.03805
3.04072
3.03805
3.02629
3.01334
3.00521
3.00163
3.00042
3.00009
3.00002
3
3
3
3
3
3
3
3
3
3
3
3
3
3
3
3
3
3
3
3
3
3
3
3.00001
3.00003
3.00015
3.0006
3.00197
3.00521
3.01076
3.01661
3.01883
3.01661
3.01076
3.00521
3.00197
3.0006
3.00015
3.00003
3.00001
3
3
3
3
3
3
3
3
3
3
3
3
3
3
3
3
3
3
3
3
3
3
3
3
3.00001
3.00005
3.00018
3.0006
3.00163
3.00347
3.00557
3.00649
3.00557
3.00347
3.00163
3.0006
3.00018
3.00005
3.00001
3
3
3
3
3
3
3
3
3
3
3
3
3
3
3
3
3
3
3
3
3
3
3
3
3
3
3.00001
3.00005
3.00015
3.00042
3.00092
3.00152
3.0018
3.00152
3.00092
3.00042
3.00015
3.00005
3.00001
3
3
3
3
3
3
3
3
3
3
3
3
3
3
3
3
3
3
3
3
3
3
3
3
3
3
3
3
3.00001
3.00003
3.00009
3.00021
3.00035
3.00042
3.00035
3.00021
3.00009
3.00003
3.00001
3
3
3
3
3
3
3
3
3
3
3
3
3
3
3
3
3
3
3
3
3
3
3
3
3
3
3
3
3
3
3.00001
3.00002
3.00004
3.00007
3.00008
3.00007
3.00004
3.00002
3.00001
3
3
3
3
3
3
3
3
3
3
3
3
3
3
3
3
3
3
3
3
3
3
3
3
3
3
3
3
3
3
3
3
3
3.00001
3.00001
3.00002
3.00001
3.00001
3
3
3
3
3
3
3
