# vtk DataFile Version 3.0
Brusselator Concentration Output
ASCII
DATASET STRUCTURED_POINTS
DIMENSIONS 40 40 1
ORIGIN 0.0 0.0 0.0
SPACING 0.005 0.005 1.0
POINT_DATA 1600
SCALARS C1 double 1
LOOKUP_TABLE default
1
1
1
1
1
1
1
1.00001
1.00001
1.00002
1.00002
1.00002
1.00001
1.00001
1
1
1
1
1
1
1
1
1
1
1
1
1
1
1
1
1
1
1
1
1
1
1
1
1
1
1
1
1
1
1
1
1.00001
1.00002
1.00005
1.00008
1.00009
1.00008
1.00005
1.00002
1.00001
1
1
1
1
1
1
1
1
1
1
1
1
1
1
1
1
1
1
1
1
1
1
1
1
1
1
1
1
1
1
1.00002
1.00005
1.00013
1.00025
1.00038
1.00044
1.00038
1.00025
1.00013
1.00005
1.00002
1
1
1
1
1
1
1
1
1
1
1
1
1
1
1
1
1
1
1
1
1
1
1
1
1
1
1
1.00001
1.00002
1.00008
1.00023
1.00056
1.00107
1.00157
1.00177
1.00157
1.00107
1.00056
1.00023
1.00008
1.00002
1.00001
1
1
1
1
1
1
1
1
1
1
1
1
1
1
1
1
1
1
1
1
1
1
1
1
1
1.00002
1.00009
1.00031
1.00089
1.00209
1.00381
1.00527
1.00572
1.00527
1.00381
1.00209
1.00089
1.00031
1.00009
1.00002
1
1
1
1
1
1
1
1
1
1
1
1
1
1
1
1
1
1
1
1
1
1
1
1
1.00002
1.00008
1.00031
1.00104
1.00291
1.0064
1.0106
1.01301
1.01316
1.01301
1.0106
1.0064
1.00291
1.00104
1.00031
1.00008
1.00002
1
1
1
1
1
1
1
1
1
1
1
1
1
1
1
1
1
1
1
1
1
1
1.00001
1.00005
1.00023
1.00089
1.00291
1.0076
1.0149
1.02016
1.01773
1.01378
1.01773
1.02016
1.0149
1.0076
1.00291
1.00089
1.00023
1.00005
1.00001
1
1
1
1
1
1
1
1
1
1
1
1
1
1
1
1
1
1
1
1
1.00001
1.00002
1.00013
1.00056
1.00209
1.0064
1.0149
1.02306
1.01589
0.988502
0.971663
0.988502
1.01589
1.02306
1.0149
1.0064
1.00209
1.00056
1.00013
1.00002
1
1
1
1
1
1
1
1
1
1
1
1
1
1
1
1
1
1
1
1
1.00001
1.00005
1.00025
1.00107
1.00381
1.0106
1.02016
1.01589
0.969345
0.894329
0.859631
0.894329
0.969345
1.01589
1.02016
1.0106
1.00381
1.00107
1.00025
1.00005
1.00001
1
1
1
1
1
1
1
1
1
1
1
1
1
1
1
1
1
1
1
1.00002
1.00008
1.00038
1.00157
1.00527
1.01301
1.01773
0.988502
0.894329
0.779428
0.733525
0.779428
0.894329
0.988502
1.01773
1.01301
1.00527
1.00157
1.00038
1.00008
1.00001
1
1
1
1
1
1
1
1
1
1
1
1
1
1
1
1
1
1
1
1.00002
1.00009
1.00044
1.00177
1.00572
1.01316
1.01378
0.971663
0.859631
0.733525
0.683961
0.733525
0.859631
0.971663
1.01378
1.01316
1.00572
1.00177
1.00044
1.00009
1.00002
1
1
1
1
1
1
1
1
1
1
1
1
1
1
1
1
1
1
1
1.00002
1.00008
1.00038
1.00157
1.00527
1.01301
1.01773
0.988502
0.894329
0.779428
0.733525
0.779428
0.894329
0.988502
1.01773
1.01301
1.00527
1.00157
1.00038
1.00008
1.00001
1
1
1
1
1
1
1
1
1
1
1
1
1
1
1
1
1
1
1
1.00001
1.00005
1.00025
1.00107
1.00381
1.0106
1.02016
1.01589
0.969345
0.894329
0.859631
0.894329
0.969345
1.01589
1.02016
1.0106
1.00381
1.00107
1.00025
1.00005
1.00001
1
1
1
1
1
1
1
1
1
1
1
1
1
1
1
1
1
1
1
1.00001
1.00002
1.00013
1.00056
1.00209
1.0064
1.0149
1.02306
1.01589
0.988502
0.971663
0.988502
1.01589
1.02306
1.0149
1.0064
1.00209
1.00056
1.00013
1.00002
1
1
1
1
1
1
1
1
1
1
1
1
1
1
1
1
1
1
1
1
1
1.00001
1.00005
1.00023
1.00089
1.00291
1.0076
1.0149
1.02016
1.01773
1.01378
1.01773
1.02016
1.0149
1.0076
1.00291
1.00089
1.00023
1.00005
1.00001
1
1
1
1
1
1
1
1
1
1
1
1
1
1
1
1
1
1
1
1
1
1
1.00002
1.00008
1.00031
1.00104
1.00291
1.0064
1.0106
1.01301
1.01316
1.01301
1.0106
1.0064
1.00291
1.00104
1.00031
1.00008
1.00002
1
1
1
1
1
1
1
1
1
1
1
1
1
1
1
1
1
1
1
1
1
1
1
1
1.00002
1.00009
1.00031
1.00089
1.00209
1.00381
1.00527
1.00572
1.00527
1.00381
1.00209
1.00089
1.00031
1.00009
1.00002
1
1
1
1
1
1
1
1
1
1
1
1
1
1
1
1
1
1
1
1
1
1
1
1
1
1.00001
1.00002
1.00008
1.00023
1.00056
1.00107
1.00157
1.00177
1.00157
1.00107
1.00056
1.00023
1.00008
1.00002
1.00001
1
1
1
1
1
1
1
1
1
1
1
1
1
1
1
1
1
1
1
1
1
1
1
1
1
1
1
1.00002
1.00005
1.00013
1.00025
1.00038
1.00044
1.00038
1.00025
1.00013
1.00005
1.00002
1
1
1
1
1
1
1
1
1
1
1
1
1
1
1
1
1
1
1
1
1
1
1
1
1
1
1
1
1
1
1.00001
1.00002
1.00005
1.00008
1.00009
1.00008
1.00005
1.00002
1.00001
1
1
1
1
1
1
1
1
1
1
1
1
1
1
0.999999
0.999999
0.999999
1
1
1
1
1
1
1
1
1
1
1
1
1
1
1
1
1.00001
1.00001
1.00002
1.00001
1.00001
1
1
1
1
1
1
1
1
1
1
1
1
1
0.999999
0.999999
0.999997
0.999996
0.999995
0.999996
0.999997
0.999999
0.999999
1
1
1
1
1
1
1
1
1
1
1
1
1
1
1
1
1
1
1
1
1
1
1
1
1
1
1
1
1
1
0.999999
0.999997
0.999993
0.999985
0.999977
0.999974
0.999977
0.999985
0.999993
0.999997
0.999999
1
1
1
1
1
1
1
1
1
1
1
1
1
1
1
1
1
1
1
1
1
1
1
1
1
1
1
1
0.999999
0.999995
0.999985
0.999964
0.999928
0.99989
0.999873
0.99989
0.999928
0.999964
0.999985
0.999995
0.999999
1
1
1
1
1
1
1
1
1
1
1
1
1
1
1
1
1
1
1
1
1
1
1
1
1
1
0.999998
0.999994
0.999978
0.999934
0.99984
0.99969
0.999536
0.999472
0.999536
0.99969
0.99984
0.999934
0.999978
0.999994
0.999998
1
1
1
1
1
1
1
1
1
1
1
1
1
1
1
1
1
1
1
1
1
1
1
1
0.999999
0.999994
0.999975
0.999912
0.999744
0.999394
0.998866
0.998366
0.99818
0.998366
0.998866
0.999394
0.999744
0.999912
0.999975
0.999994
0.999999
1
1
1
1
1
1
1
1
1
1
1
1
1
1
1
1
1
1
1
1
1
1
0.999999
0.999995
0.999978
0.999912
0.999701
0.999157
0.998086
0.996611
0.995416
0.995089
0.995416
0.996611
0.998086
0.999157
0.999701
0.999912
0.999978
0.999995
0.999999
1
1
1
1
1
1
1
1
1
1
1
1
1
1
1
1
1
1
1
1
0.999999
0.999997
0.999985
0.999934
0.999744
0.999157
0.997726
0.995152
0.992183
0.990703
0.990947
0.990703
0.992183
0.995152
0.997726
0.999157
0.999744
0.999934
0.999985
0.999997
1
1
1
1
1
1
1
1
1
1
1
1
1
1
1
1
1
1
1
1
0.999999
0.999993
0.999964
0.99984
0.999394
0.998086
0.995152
0.990691
0.987646
0.9903
0.994737
0.9903
0.987646
0.990691
0.995152
0.998086
0.999394
0.99984
0.999963
0.999991
1
1
1
1
1
1
1
1
1
1
1
1
1
1
1
1
1
1
1
1
0.999997
0.999985
0.999928
0.99969
0.998866
0.996611
0.992183
0.987646
0.991515
1.01229
1.03124
1.01229
0.991515
0.987646
0.992183
0.996611
0.998866
0.999689
0.999927
0.999983
1
1
1
1
1
1
1
1
1
1
1
1
1
1
1
1
1
1
1
0.999999
0.999996
0.999977
0.99989
0.999536
0.998366
0.995416
0.990703
0.9903
1.01229
1.0718
1.11992
1.0718
1.01229
0.9903
0.990703
0.995416
0.998366
0.999536
0.999889
0.999973
1
1
1
1
1
1
1
1
1
1
1
1
1
1
1
1
1
1
1
0.999999
0.999995
0.999974
0.999873
0.999472
0.99818
0.995089
0.990947
0.994737
1.03124
1.11992
1.18781
1.11992
1.03124
0.994737
0.990947
0.995089
0.99818
0.999471
0.999872
0.999969
1
1
1
1
1
1
1
1
1
1
1
1
1
1
1
1
1
1
1
0.999999
0.999996
0.999977
0.99989
0.999536
0.998366
0.995416
0.990703
0.9903
1.01229
1.0718
1.11992
1.0718
1.01229
0.9903
0.990703
0.995416
0.998366
0.999536
0.999889
0.999973
1
1
1
1
1
1
1
1
1
1
1
1
1
1
1
1
1
1
1
1
0.999997
0.999985
0.999928
0.99969
0.998866
0.996611
0.992183
0.987646
0.991515
1.01229
1.03124
1.01229
0.991515
0.987646
0.992183
0.996611
0.998866
0.999689
0.999927
0.999983
1
1
1
1
1
1
1
1
1
1
1
1
1
1
1
1
1
1
1
1
0.999999
0.999993
0.999964
0.99984
0.999394
0.998086
0.995152
0.990691
0.987646
0.9903
0.994737
0.9903
0.987646
0.990691
0.995152
0.998086
0.999394
0.99984
0.999963
0.999991
1
1
1
1
1
1
1
1
1
1
1
1
1
1
1
1
1
1
1
1
0.999999
0.999997
0.999985
0.999934
0.999744
0.999157
0.997726
0.995152
0.992183
0.990703
0.990947
0.990703
0.992183
0.995152
0.997726
0.999157
0.999744
0.999934
0.999985
0.999997
1
1
1
1
1
1
1
1
1
1
1
1
1
1
1
1
1
1
1
1
1
0.999999
0.999995
0.999978
0.999912
0.999701
0.999157
0.998086
0.996611
0.995416
0.995089
0.995416
0.996611
0.998086
0.999157
0.999701
0.999912
0.999978
0.999995
0.999999
1
1
1
1
1
1
1
1
1
1
1
1
1
1
1
1
1
1
1
1
1
1
0.999999
0.999994
0.999975
0.999912
0.999744
0.999394
0.998866
0.998366
0.99818
0.998366
0.998866
0.999394
0.999744
0.999912
0.999975
0.999994
0.999999
1
1
1
1
1
1
1
1
1
1
1
1
1
1
1
1
1
1
1
1
1
1
1
1
0.999998
0.999994
0.999978
0.999934
0.99984
0.999689
0.999536
0.999471
0.999536
0.999689
0.99984
0.999934
0.999978
0.999994
0.999998
1
1
1
1
1
1
1
1
1
1
1
1
1
1
1
1
1
1
1
1
1
1
1
1
1
1
0.999999
0.999995
0.999985
0.999963
0.999927
0.999889
0.999872
0.999889
0.999927
0.999963
0.999985
0.999995
0.999999
1
1
1
1
1
1
1
1
1
1
1
1
1
1
1
1
1
1
1
1
1
1
1
1
1
1
1
1
0.999999
0.999997
0.999991
0.999983
0.999973
0.999969
0.999973
0.999983
0.999991
0.999997
0.999999
1
1
1
1
SCALARS C2 double 1
LOOKUP_TABLE default
3
3
3
3
3
3
3
3
2.99999
2.99999
2.99998
2.99999
2.99999
3
3
3
3
3
3
3
3
3
3
3
3
3
3
3
3
3
3
3
3
3
3
3
3
3
3
3
3
3
3
3
3
3
2.99999
2.99998
2.99996
2.99993
2.99992
2.99993
2.99996
2.99998
2.99999
3
3
3
3
3
3
3
3
3
3
3
3
3
3
3
3
3
3
3
3
3
3
3
3
3
3
3
3
3
3
2.99999
2.99996
2.99989
2.99977
2.99963
2.99956
2.99963
2.99977
2.99989
2.99996
2.99999
3
3
3
3
3
3
3
3
3
3
3
3
3
3
3
3
3
3
3
3
3
3
3
3
3
3
3
3
2.99998
2.99994
2.9998
2.99947
2.99889
2.99825
2.99796
2.99825
2.99889
2.99947
2.9998
2.99994
2.99998
3
3
3
3
3
3
3
3
3
3
3
3
3
3
3
3
3
3
3
3
3
3
3
3
3
3
2.99998
2.99993
2.99973
2.99914
2.99777
2.99548
2.99308
2.99212
2.99308
2.99548
2.99777
2.99914
2.99973
2.99993
2.99998
3
3
3
3
3
3
3
3
3
3
3
3
3
3
3
3
3
3
3
3
3
3
3
3
2.99999
2.99994
2.99973
2.99899
2.99686
2.99212
2.98478
2.97807
2.97596
2.97807
2.98478
2.99212
2.99686
2.99899
2.99973
2.99994
2.99999
3
3
3
3
3
3
3
3
3
3
3
3
3
3
3
3
3
3
3
3
3
3
2.99999
2.99996
2.9998
2.99914
2.99686
2.99055
2.9776
2.96039
2.94946
2.94904
2.94946
2.96039
2.9776
2.99055
2.99686
2.99914
2.9998
2.99996
2.99999
3
3
3
3
3
3
3
3
3
3
3
3
3
3
3
3
3
3
3
3
3
2.99998
2.99989
2.99947
2.99777
2.99212
2.9776
2.95196
2.92912
2.93302
2.94878
2.93302
2.92912
2.95196
2.9776
2.99212
2.99777
2.99947
2.99989
2.99998
3
3
3
3
3
3
3
3
3
3
3
3
3
3
3
3
3
3
3
3
2.99999
2.99996
2.99977
2.99889
2.99548
2.98478
2.96039
2.92912
2.93155
2.99681
3.0541
2.99681
2.93155
2.92912
2.96039
2.98478
2.99548
2.99889
2.99977
2.99996
2.99999
3
3
3
3
3
3
3
3
3
3
3
3
3
3
3
3
3
3
3
2.99999
2.99993
2.99963
2.99825
2.99308
2.97807
2.94946
2.93302
2.99681
3.15204
3.26284
3.15204
2.99681
2.93302
2.94946
2.97807
2.99308
2.99825
2.99963
2.99993
2.99999
3
3
3
3
3
3
3
3
3
3
3
3
3
3
3
3
3
3
3
2.99998
2.99992
2.99956
2.99796
2.99212
2.97596
2.94904
2.94878
3.0541
3.26284
3.40089
3.26284
3.0541
2.94878
2.94904
2.97596
2.99212
2.99796
2.99956
2.99992
2.99999
3
3
3
3
3
3
3
3
3
3
3
3
3
3
3
3
3
3
3
2.99999
2.99993
2.99963
2.99825
2.99308
2.97807
2.94946
2.93302
2.99681
3.15204
3.26284
3.15204
2.99681
2.93302
2.94946
2.97807
2.99308
2.99825
2.99963
2.99993
2.99999
3
3
3
3
3
3
3
3
3
3
3
3
3
3
3
3
3
3
3
2.99999
2.99996
2.99977
2.99889
2.99548
2.98478
2.96039
2.92912
2.93155
2.99681
3.0541
2.99681
2.93155
2.92912
2.96039
2.98478
2.99548
2.99889
2.99977
2.99996
2.99999
3
3
3
3
3
3
3
3
3
3
3
3
3
3
3
3
3
3
3
3
2.99998
2.99989
2.99947
2.99777
2.99212
2.9776
2.95196
2.92912
2.93302
2.94878
2.93302
2.92912
2.95196
2.9776
2.99212
2.99777
2.99947
2.99989
2.99998
3
3
3
3
3
3
3
3
3
3
3
3
3
3
3
3
3
3
3
3
3
2.99999
2.99996
2.9998
2.99914
2.99686
2.99055
2.9776
2.96039
2.94946
2.94904
2.94946
2.96039
2.9776
2.99055
2.99686
2.99914
2.9998
2.99996
2.99999
3
3
3
3
3
3
3
3
3
3
3
3
3
3
3
3
3
3
3
3
3
3
2.99999
2.99994
2.99973
2.99899
2.99686
2.99212
2.98478
2.97807
2.97596
2.97807
2.98478
2.99212
2.99686
2.99899
2.99973
2.99994
2.99999
3
3
3
3
3
3
3
3
3
3
3
3
3
3
3
3
3
3
3
3
3
3
3
3
2.99998
2.99993
2.99973
2.99914
2.99777
2.99548
2.99308
2.99212
2.99308
2.99548
2.99777
2.99914
2.99973
2.99993
2.99998
3
3
3
3
3
3
3
3
3
3
3
3
3
3
3
3
3
3
3
3
3
3
3
3
3
3
2.99998
2.99994
2.9998
2.99947
2.99889
2.99825
2.99796
2.99825
2.99889
2.99947
2.9998
2.99994
2.99998
3
3
3
3
3
3
3
3
3
3
3
3
3
3
3
3
3
3
3
3
3
3
3
3
3
3
3
3
2.99999
2.99996
2.99989
2.99977
2.99963
2.99956
2.99963
2.99977
2.99989
2.99996
2.99999
3
3
3
3
3
3
3
3
3
3
3
3
3
3
3
3
3
3
3
3
3
3
3
3
3
3
3
3
3
3
2.99999
2.99998
2.99996
2.99993
2.99992
2.99993
2.99996
2.99998
2.99999
3
3
3
3
3
3
3
3
3
3
3
3
3
3
3
3
3
3
3
3
3
3
3
3
3
3
3
3
3
3
3
3
3
2.99999
2.99999
2.99999
2.99999
2.99999
3
3
3
3
3
3
3
3
3
3
3
3
3
3
3
3
3
3
3
3
3
3
3
3
3
3
3
3
3
3
3
3
3
3
3
3
3
3
3
3
3
3
3
3
3
3
3
3
3
3
3
3
3
3
3.00001
3.00001
3.00002
3.00002
3.00002
3.00001
3.00001
3
3
3
3
3
3
3
3
3
3
3
3
3
3
3
3
3
3
3
3
3
3
3
3
3
3
3
3
3
3
3
3
3.00001
3.00003
3.00007
3.00011
3.00013
3.00011
3.00007
3.00003
3.00001
3
3
3
3
3
3
3
3
3
3
3
3
3
3
3
3
3
3
3
3
3
3
3
3
3
3
3
3
3
3
3.00002
3.00006
3.00015
3.00032
3.00051
3.0006
3.00051
3.00032
3.00015
3.00006
3.00002
3
3
3
3
3
3
3
3
3
3
3
3
3
3
3
3
3
3
3
3
3
3
3
3
3
3
3
3
3.00002
3.00008
3.00025
3.00064
3.00132
3.00206
3.00239
3.00206
3.00132
3.00064
3.00025
3.00008
3.00002
3
3
3
3
3
3
3
3
3
3
3
3
3
3
3
3
3
3
3
3
3
3
3
3
3
3
3.00002
3.00008
3.00029
3.0009
3.00229
3.00457
3.00695
3.0079
3.00695
3.00457
3.00229
3.0009
3.00029
3.00008
3.00002
3
3
3
3
3
3
3
3
3
3
3
3
3
3
3
3
3
3
3
3
3
3
3
3
3.00001
3.00006
3.00025
3.0009
3.00274
3.00675
3.01297
3.01875
3.02055
3.01875
3.01297
3.00675
3.00274
3.0009
3.00025
3.00006
3.00001
3
3
3
3
3
3
3
3
3
3
3
3
3
3
3
3
3
3
3
3
3
3
3.00001
3.00003
3.00015
3.00064
3.00229
3.00675
3.01592
3.02861
3.03757
3.03774
3.03757
3.02861
3.01592
3.00675
3.00229
3.00064
3.00015
3.00003
3.00001
3
3
3
3
3
3
3
3
3
3
3
3
3
3
3
3
3
3
3
3
3
3.00001
3.00007
3.00032
3.00132
3.00457
3.01297
3.02861
3.0456
3.04628
3.03175
3.04628
3.0456
3.02861
3.01297
3.00457
3.00132
3.00032
3.00007
3.00001
3
3
3
3
3
3
3
3
3
3
3
3
3
3
3
3
3
3
3
3
3
3.00002
3.00011
3.00051
3.00206
3.00695
3.01875
3.03757
3.04628
3.00722
2.94669
3.00722
3.04628
3.03757
3.01875
3.00695
3.00206
3.00051
3.00011
3.00002
3
3
3
3
3
3
3
3
3
3
3
3
3
3
3
3
3
3
3
3
3
3.00002
3.00013
3.0006
3.00239
3.0079
3.02055
3.03774
3.03175
2.94669
2.8378
2.94669
3.03175
3.03774
3.02055
3.0079
3.00239
3.0006
3.00013
3.00003
3
3
3
3
3
3
3
3
3
3
3
3
3
3
3
3
3
3
3
3
3
3.00002
3.00011
3.00051
3.00206
3.00695
3.01875
3.03757
3.04628
3.00722
2.94669
3.00722
3.04628
3.03757
3.01875
3.00695
3.00206
3.00051
3.00011
3.00002
3
3
3
3
3
3
3
3
3
3
3
3
3
3
3
3
3
3
3
3
3
3.00001
3.00007
3.00032
3.00132
3.00457
3.01297
3.02861
3.0456
3.04628
3.03175
3.04628
3.0456
3.02861
3.01297
3.00457
3.00132
3.00032
3.00007
3.00001
3
3
3
3
3
3
3
3
3
3
3
3
3
3
3
3
3
3
3
3
3
3.00001
3.00003
3.00015
3.00064
3.00229
3.00675
3.01592
3.02861
3.03757
3.03774
3.03757
3.02861
3.01592
3.00675
3.00229
3.00064
3.00015
3.00003
3.00001
3
3
3
3
3
3
3
3
3
3
3
3
3
3
3
3
3
3
3
3
3
3
3.00001
3.00006
3.00025
3.0009
3.00274
3.00675
3.01297
3.01875
3.02055
3.01875
3.01297
3.00675
3.00274
3.0009
3.00025
3.00006
3.00001
3
3
3
3
3
3
3
3
3
3
3
3
3
3
3
3
3
3
3
3
3
3
3
3
3.00002
3.00008
3.00029
3.0009
3.00229
3.00457
3.00695
3.0079
3.00695
3.00457
3.00229
3.0009
3.00029
3.00008
3.00002
3
3
3
3
3
3
3
3
3
3
3
3
3
3
3
3
3
3
3
3
3
3
3
3
3
3
3.00002
3.00008
3.00025
3.00064
3.00132
3.00206
3.00239
3.00206
3.00132
3.00064
3.00025
3.00008
3.00002
3
3
3
3
3
3
3
3
3
3
3
3
3
3
3
3
3
3
3
3
3
3
3
3
3
3
3
3
3.00002
3.00006
3.00015
3.00032
3.00051
3.0006
3.00051
3.00032
3.00015
3.00006
3.00002
3
3
3
3
3
3
3
3
3
3
3
3
3
3
3
3
3
3
3
3
3
3
3
3
3
3
3
3
3
3
3.00001
3.00003
3.00007
3.00011
3.00013
3.00011
3.00007
3.00003
3.00001
3
3
3
3
3
3
3
3
3
3
3
3
3
3
3
3
3
3
3
3
3
3
3
3
3
3
3
3
3
3
3
3
3.00001
3.00001
3.00002
3.00003
3.00002
3.00001
3.00001
3
3
3
3
3
3
