# vtk DataFile Version 3.0
Brusselator Concentration Output
ASCII
DATASET STRUCTURED_POINTS
DIMENSIONS 40 40 1
ORIGIN 0.0 0.0 0.0
SPACING 0.005 0.005 1.0
POINT_DATA 1600
SCALARS C1 double 1
LOOKUP_TABLE default
1
1
1
1
1
1
1
1
1
1
1
1
1
1
1
1
1
1
1
1
1
1
1
1
1
1
1
1
1
1
1
1
1
1
1
1
1
1
1
1
1
1
1
1
1
1
1
1
1
1
1
1
1
1
1
1
1
1
1
1
1
1
1
1
1
1
1
1
1
1
1
1
1
1
1
1
1
1
1
1
1
1
1
1
1
1
1
1
1.00001
1.00002
1.00003
1.00002
1.00001
1
1
1
1
1
1
1
1
1
1
1
1
1
1
1
1
1
1
1
1
1
1
1
1
1
1
1
1
1
1
1
1
1
1.00001
1.00003
1.00008
1.00016
1.00021
1.00016
1.00008
1.00003
1.00001
1
1
1
1
1
1
1
1
1
1
1
1
1
1
1
1
1
1
1
1
1
1
1
1
1
1
1
1
1
1
1.00001
1.00005
1.00017
1.00047
1.00092
1.00118
1.00092
1.00047
1.00017
1.00005
1.00001
1
1
1
1
1
1
1
1
1
1
1
1
1
1
1
1
1
1
1
1
1
1
1
1
1
1
1
1
1.00001
1.00006
1.00025
1.00087
1.00234
1.00444
1.00551
1.00444
1.00234
1.00087
1.00025
1.00006
1.00001
1
1
1
1
1
1
1
1
1
1
1
1
1
1
1
1
1
1
1
1
1
1
1
1
1
1
1.00001
1.00005
1.00025
1.00107
1.00366
1.00943
1.01691
1.01982
1.01691
1.00943
1.00366
1.00107
1.00025
1.00005
1.00001
1
1
1
1
1
1
1
1
1
1
1
1
1
1
1
1
1
1
1
1
1
1
1
1
1
1.00003
1.00017
1.00087
1.00366
1.01205
1.02897
1.04585
1.04699
1.04585
1.02897
1.01205
1.00366
1.00087
1.00017
1.00003
1
1
1
1
1
1
1
1
1
1
1
1
1
1
1
1
1
1
1
1
1
1
1
1
1.00001
1.00008
1.00047
1.00234
1.00943
1.02897
1.06
1.06828
1.04276
1.06828
1.06
1.02897
1.00943
1.00234
1.00047
1.00008
1.00001
1
1
1
1
1
1
1
1
1
1
1
1
1
1
1
1
1
1
1
1
1
1
1
1.00002
1.00016
1.00092
1.00444
1.01691
1.04585
1.06828
1.01025
0.926432
1.01025
1.06828
1.04585
1.01691
1.00444
1.00092
1.00016
1.00002
1
1
1
1
1
1
1
1
1
1
1
1
1
1
1
1
1
1
1
1
1
1
1
1.00003
1.00021
1.00118
1.00551
1.01982
1.04699
1.04276
0.926432
0.811799
0.926432
1.04276
1.04699
1.01982
1.00551
1.00118
1.00021
1.00003
1
1
1
1
1
1
1
1
1
1
1
1
1
1
1
1
1
1
1
1
1
1
1
1.00002
1.00016
1.00092
1.00444
1.01691
1.04585
1.06828
1.01025
0.926432
1.01025
1.06828
1.04585
1.01691
1.00444
1.00092
1.00016
1.00002
1
1
1
1
1
1
1
1
1
1
1
1
1
1
1
1
1
1
1
1
1
1
1
1.00001
1.00008
1.00047
1.00234
1.00943
1.02897
1.06
1.06828
1.04276
1.06828
1.06
1.02897
1.00943
1.00234
1.00047
1.00008
1.00001
1
1
1
1
1
1
1
1
1
1
1
1
1
1
1
1
1
1
1
1
1
1
1
1
1.00003
1.00017
1.00087
1.00366
1.01205
1.02897
1.04585
1.04699
1.04585
1.02897
1.01205
1.00366
1.00087
1.00017
1.00003
1
1
1
1
1
1
1
1
1
1
1
1
1
1
1
1
1
1
1
1
1
1
1
1
1
1.00001
1.00005
1.00025
1.00107
1.00366
1.00943
1.01691
1.01982
1.01691
1.00943
1.00366
1.00107
1.00025
1.00005
1.00001
1
1
1
1
1
1
1
1
1
1
1
1
1
1
1
1
1
1
1
1
1
1
1
1
1
1
1.00001
1.00006
1.00025
1.00087
1.00234
1.00444
1.00551
1.00444
1.00234
1.00087
1.00025
1.00006
1.00001
1
1
1
1
1
1
1
1
1
1
1
1
1
1
1
1
1
1
1
1
1
1
1
1
1
1
1
1
1.00001
1.00005
1.00017
1.00047
1.00092
1.00118
1.00092
1.00047
1.00017
1.00005
1.00001
1
1
1
1
1
1
1
1
1
1
1
1
1
1
1
1
1
1
1
1
1
1
1
1
1
1
1
1
1
1
1.00001
1.00003
1.00008
1.00016
1.00021
1.00016
1.00008
1.00003
1.00001
1
1
1
1
1
1
1
1
1
1
1
1
1
1
1
1
1
1
1
1
1
1
1
1
1
1
1
1
1
1
1
1
1
1.00001
1.00002
1.00003
1.00002
1.00001
1
1
1
1
1
1
1
1
1
1
1
1
1
1
1
1
1
1
1
1
1
1
1
1
1
1
1
1
1
1
1
1
1
1
1
1
1
1
1
1
1
1
1
1
1
1
1
1
1
1
1
1
1
1
1
1
1
1
1
1
1
1
1
1
1
1
1
1
1
1
1
1
1
1
1
1
1
1
1
1
1
1
1
1
1
1
1
1
1
1
1
1
1
1
1
1
1
1
1
1
1
1
1
1
1
1
1
1
1
1
1
1
1
1
1
1
1
1
1
1
1
1
1
1
1
1
1
1
1
1
1
1
1
1
1
1
0.999999
0.999999
0.999999
1
1
1
1
1
1
1
1
1
1
1
1
1
1
1
1
1
1
1
1
1
1
1
1
1
1
1
1
1
1
1
1
1
1
1
0.999999
0.999996
0.999993
0.999991
0.999993
0.999996
0.999999
1
1
1
1
1
1
1
1
1
1
1
1
1
1
1
1
1
1
1
1
1
1
1
1
1
1
1
1
1
1
1
0.999999
0.999998
0.999991
0.999976
0.999954
0.99994
0.999954
0.999976
0.999991
0.999998
0.999999
1
1
1
1
1
1
1
1
1
1
1
1
1
1
1
1
1
1
1
1
1
1
1
1
1
1
1
1
0.999999
0.999997
0.999985
0.99995
0.999865
0.999737
0.999661
0.999737
0.999865
0.99995
0.999985
0.999997
0.999999
1
1
1
1
1
1
1
1
1
1
1
1
1
1
1
1
1
1
1
1
1
1
1
1
1
1
0.999999
0.999997
0.999983
0.999927
0.99975
0.999338
0.998737
0.998403
0.998737
0.999338
0.99975
0.999927
0.999983
0.999997
0.999999
1
1
1
1
1
1
1
1
1
1
1
1
1
1
1
1
1
1
1
1
1
1
1
1
1
0.999998
0.999985
0.999927
0.999694
0.99897
0.997339
0.995076
0.993935
0.995076
0.997339
0.99897
0.999694
0.999927
0.999985
0.999998
1
1
1
1
1
1
1
1
1
1
1
1
1
1
1
1
1
1
1
1
1
1
1
1
0.999999
0.999991
0.99995
0.99975
0.99897
0.996612
0.991568
0.985154
0.982552
0.985154
0.991568
0.996612
0.99897
0.99975
0.99995
0.999991
0.999999
1
1
1
1
1
1
1
1
1
1
1
1
1
1
1
1
1
1
1
1
1
1
1
0.999996
0.999976
0.999865
0.999338
0.997339
0.991568
0.980168
0.967913
0.965758
0.967913
0.980168
0.991568
0.997339
0.999338
0.999865
0.999976
0.999996
0.999999
1
1
1
1
1
1
1
1
1
1
1
1
1
1
1
1
1
1
1
1
1
0.999999
0.999993
0.999954
0.999737
0.998737
0.995076
0.985154
0.967913
0.955784
0.964186
0.955784
0.967913
0.985154
0.995076
0.998737
0.999737
0.999954
0.999993
0.999999
1
1
1
1
1
1
1
1
1
1
1
1
1
1
1
1
1
1
1
1
1
0.999999
0.999991
0.99994
0.999661
0.998403
0.993935
0.982552
0.965758
0.964186
0.991662
0.964186
0.965758
0.982552
0.993935
0.998403
0.999661
0.99994
0.999991
0.999999
1
1
1
1
1
1
1
1
1
1
1
1
1
1
1
1
1
1
1
1
1
0.999999
0.999993
0.999954
0.999737
0.998737
0.995076
0.985154
0.967913
0.955784
0.964186
0.955784
0.967913
0.985154
0.995076
0.998737
0.999737
0.999954
0.999993
0.999999
1
1
1
1
1
1
1
1
1
1
1
1
1
1
1
1
1
1
1
1
1
1
0.999996
0.999976
0.999865
0.999338
0.997339
0.991568
0.980168
0.967913
0.965758
0.967913
0.980168
0.991568
0.997339
0.999338
0.999865
0.999976
0.999996
0.999999
1
1
1
1
1
1
1
1
1
1
1
1
1
1
1
1
1
1
1
1
1
1
0.999999
0.999991
0.99995
0.99975
0.99897
0.996612
0.991568
0.985154
0.982552
0.985154
0.991568
0.996612
0.99897
0.99975
0.99995
0.999991
0.999999
1
1
1
1
1
1
1
1
1
1
1
1
1
1
1
1
1
1
1
1
1
1
1
1
0.999998
0.999985
0.999927
0.999694
0.99897
0.997339
0.995076
0.993935
0.995076
0.997339
0.99897
0.999694
0.999927
0.999985
0.999998
1
1
1
1
1
1
1
1
1
1
1
1
1
1
1
1
1
1
1
1
1
1
1
1
1
0.999999
0.999997
0.999983
0.999927
0.99975
0.999338
0.998737
0.998403
0.998737
0.999338
0.99975
0.999927
0.999983
0.999997
0.999999
1
1
1
1
1
1
1
1
1
1
1
1
1
1
1
1
1
1
1
1
1
1
1
1
1
1
0.999999
0.999997
0.999985
0.99995
0.999865
0.999737
0.999661
0.999737
0.999865
0.99995
0.999985
0.999997
0.999999
1
1
1
1
1
1
1
1
1
1
1
1
1
1
1
1
1
1
1
1
1
1
1
1
1
1
1
1
0.999999
0.999998
0.999991
0.999976
0.999954
0.99994
0.999954
0.999976
0.999991
0.999998
0.999999
1
1
1
1
1
1
1
1
1
1
1
1
1
1
1
1
1
1
1
1
1
1
1
1
1
1
1
1
1
1
1
0.999999
0.999996
0.999993
0.999991
0.999993
0.999996
0.999999
1
1
1
1
1
1
1
1
1
1
1
1
1
1
1
1
1
1
1
1
1
1
1
1
1
1
1
1
1
1
1
1
1
1
0.999999
0.999999
0.999999
0.999999
0.999999
1
1
1
1
1
1
1
SCALARS C2 double 1
LOOKUP_TABLE default
3
3
3
3
3
3
3
3
3
3
3
3
3
3
3
3
3
3
3
3
3
3
3
3
3
3
3
3
3
3
3
3
3
3
3
3
3
3
3
3
3
3
3
3
3
3
3
3
3
3
3
3
3
3
3
3
3
3
3
3
3
3
3
3
3
3
3
3
3
3
3
3
3
3
3
3
3
3
3
3
3
3
3
3
3
3
3
3
2.99999
2.99998
2.99998
2.99998
2.99999
3
3
3
3
3
3
3
3
3
3
3
3
3
3
3
3
3
3
3
3
3
3
3
3
3
3
3
3
3
3
3
3
3
2.99999
2.99998
2.99994
2.99988
2.99983
2.99988
2.99994
2.99998
2.99999
3
3
3
3
3
3
3
3
3
3
3
3
3
3
3
3
3
3
3
3
3
3
3
3
3
3
3
3
3
3
2.99999
2.99997
2.99987
2.99963
2.9992
2.99892
2.9992
2.99963
2.99987
2.99997
2.99999
3
3
3
3
3
3
3
3
3
3
3
3
3
3
3
3
3
3
3
3
3
3
3
3
3
3
3
3
2.99999
2.99996
2.99982
2.9993
2.99792
2.9956
2.9941
2.9956
2.99792
2.9993
2.99982
2.99996
2.99999
3
3
3
3
3
3
3
3
3
3
3
3
3
3
3
3
3
3
3
3
3
3
3
3
3
3
2.99999
2.99997
2.99982
2.99914
2.9967
2.99032
2.97993
2.97379
2.97993
2.99032
2.9967
2.99914
2.99982
2.99997
2.99999
3
3
3
3
3
3
3
3
3
3
3
3
3
3
3
3
3
3
3
3
3
3
3
3
3
2.99998
2.99987
2.9993
2.9967
2.9875
2.96411
2.92903
2.91253
2.92903
2.96411
2.9875
2.9967
2.9993
2.99987
2.99998
3
3
3
3
3
3
3
3
3
3
3
3
3
3
3
3
3
3
3
3
3
3
3
3
2.99999
2.99994
2.99963
2.99792
2.99032
2.96411
2.90239
2.82771
2.8131
2.82771
2.90239
2.96411
2.99032
2.99792
2.99963
2.99994
2.99999
3
3
3
3
3
3
3
3
3
3
3
3
3
3
3
3
3
3
3
3
3
3
3
2.99998
2.99988
2.9992
2.9956
2.97993
2.92903
2.82771
2.75613
2.79222
2.75613
2.82771
2.92903
2.97993
2.9956
2.9992
2.99988
2.99998
3
3
3
3
3
3
3
3
3
3
3
3
3
3
3
3
3
3
3
3
3
3
3
2.99998
2.99983
2.99892
2.9941
2.97379
2.91253
2.8131
2.79222
2.86499
2.79222
2.8131
2.91253
2.97379
2.9941
2.99892
2.99983
2.99998
3
3
3
3
3
3
3
3
3
3
3
3
3
3
3
3
3
3
3
3
3
3
3
2.99998
2.99988
2.9992
2.9956
2.97993
2.92903
2.82771
2.75613
2.79222
2.75613
2.82771
2.92903
2.97993
2.9956
2.9992
2.99988
2.99998
3
3
3
3
3
3
3
3
3
3
3
3
3
3
3
3
3
3
3
3
3
3
3
2.99999
2.99994
2.99963
2.99792
2.99032
2.96411
2.90239
2.82771
2.8131
2.82771
2.90239
2.96411
2.99032
2.99792
2.99963
2.99994
2.99999
3
3
3
3
3
3
3
3
3
3
3
3
3
3
3
3
3
3
3
3
3
3
3
3
2.99998
2.99987
2.9993
2.9967
2.9875
2.96411
2.92903
2.91253
2.92903
2.96411
2.9875
2.9967
2.9993
2.99987
2.99998
3
3
3
3
3
3
3
3
3
3
3
3
3
3
3
3
3
3
3
3
3
3
3
3
3
2.99999
2.99997
2.99982
2.99914
2.9967
2.99032
2.97993
2.97379
2.97993
2.99032
2.9967
2.99914
2.99982
2.99997
2.99999
3
3
3
3
3
3
3
3
3
3
3
3
3
3
3
3
3
3
3
3
3
3
3
3
3
3
2.99999
2.99996
2.99982
2.9993
2.99792
2.9956
2.9941
2.9956
2.99792
2.9993
2.99982
2.99996
2.99999
3
3
3
3
3
3
3
3
3
3
3
3
3
3
3
3
3
3
3
3
3
3
3
3
3
3
3
3
2.99999
2.99997
2.99987
2.99963
2.9992
2.99892
2.9992
2.99963
2.99987
2.99997
2.99999
3
3
3
3
3
3
3
3
3
3
3
3
3
3
3
3
3
3
3
3
3
3
3
3
3
3
3
3
3
3
2.99999
2.99998
2.99994
2.99988
2.99983
2.99988
2.99994
2.99998
2.99999
3
3
3
3
3
3
3
3
3
3
3
3
3
3
3
3
3
3
3
3
3
3
3
3
3
3
3
3
3
3
3
3
3
2.99999
2.99998
2.99998
2.99998
2.99999
3
3
3
3
3
3
3
3
3
3
3
3
3
3
3
3
3
3
3
3
3
3
3
3
3
3
3
3
3
3
3
3
3
3
3
3
3
3
3
3
3
3
3
3
3
3
3
3
3
3
3
3
3
3
3
3
3
3
3
3
3
3
3
3
3
3
3
3
3
3
3
3
3
3
3
3
3
3
3
3
3
3
3
3
3
3
3
3
3
3
3
3
3
3
3
3
3
3
3
3
3
3
3
3
3
3
3
3
3
3
3
3
3
3
3
3
3
3
3
3
3
3
3
3
3
3
3
3
3
3
3
3
3
3
3
3
3
3
3
3
3
3
3
3
3
3
3
3
3
3
3
3
3
3
3
3
3
3
3
3
3
3
3
3
3
3
3
3
3
3
3
3
3
3
3
3
3.00001
3.00001
3.00001
3
3
3
3
3
3
3
3
3
3
3
3
3
3
3
3
3
3
3
3
3
3
3
3
3
3
3
3
3
3
3
3
3
3
3
3.00001
3.00002
3.00004
3.00005
3.00004
3.00002
3.00001
3
3
3
3
3
3
3
3
3
3
3
3
3
3
3
3
3
3
3
3
3
3
3
3
3
3
3
3
3
3
3
3
3.00001
3.00004
3.00011
3.00023
3.00031
3.00023
3.00011
3.00004
3.00001
3
3
3
3
3
3
3
3
3
3
3
3
3
3
3
3
3
3
3
3
3
3
3
3
3
3
3
3
3
3
3.00001
3.00005
3.0002
3.0006
3.00125
3.00169
3.00125
3.0006
3.0002
3.00005
3.00001
3
3
3
3
3
3
3
3
3
3
3
3
3
3
3
3
3
3
3
3
3
3
3
3
3
3
3
3
3.00001
3.00005
3.00025
3.00094
3.00273
3.0057
3.00766
3.0057
3.00273
3.00094
3.00025
3.00005
3.00001
3
3
3
3
3
3
3
3
3
3
3
3
3
3
3
3
3
3
3
3
3
3
3
3
3
3
3.00001
3.00004
3.0002
3.00094
3.0035
3.01009
3.0209
3.0279
3.0209
3.01009
3.0035
3.00094
3.0002
3.00004
3.00001
3
3
3
3
3
3
3
3
3
3
3
3
3
3
3
3
3
3
3
3
3
3
3
3
3
3.00002
3.00011
3.0006
3.00273
3.01009
3.02877
3.05908
3.07873
3.05908
3.02877
3.01009
3.00273
3.0006
3.00011
3.00002
3
3
3
3
3
3
3
3
3
3
3
3
3
3
3
3
3
3
3
3
3
3
3
3
3.00001
3.00004
3.00023
3.00125
3.0057
3.0209
3.05908
3.12149
3.16506
3.12149
3.05908
3.0209
3.0057
3.00125
3.00023
3.00004
3.00001
3
3
3
3
3
3
3
3
3
3
3
3
3
3
3
3
3
3
3
3
3
3
3
3.00001
3.00005
3.00031
3.00169
3.00766
3.0279
3.07873
3.16506
3.23357
3.16506
3.07873
3.0279
3.00766
3.00169
3.00031
3.00005
3.00001
3
3
3
3
3
3
3
3
3
3
3
3
3
3
3
3
3
3
3
3
3
3
3
3.00001
3.00004
3.00023
3.00125
3.0057
3.0209
3.05908
3.12149
3.16506
3.12149
3.05908
3.0209
3.0057
3.00125
3.00023
3.00004
3.00001
3
3
3
3
3
3
3
3
3
3
3
3
3
3
3
3
3
3
3
3
3
3
3
3
3.00002
3.00011
3.0006
3.00273
3.01009
3.02877
3.05908
3.07873
3.05908
3.02877
3.01009
3.00273
3.0006
3.00011
3.00002
3
3
3
3
3
3
3
3
3
3
3
3
3
3
3
3
3
3
3
3
3
3
3
3
3
3.00001
3.00004
3.0002
3.00094
3.0035
3.01009
3.0209
3.0279
3.0209
3.01009
3.0035
3.00094
3.0002
3.00004
3.00001
3
3
3
3
3
3
3
3
3
3
3
3
3
3
3
3
3
3
3
3
3
3
3
3
3
3
3.00001
3.00005
3.00025
3.00094
3.00273
3.0057
3.00766
3.0057
3.00273
3.00094
3.00025
3.00005
3.00001
3
3
3
3
3
3
3
3
3
3
3
3
3
3
3
3
3
3
3
3
3
3
3
3
3
3
3
3
3.00001
3.00005
3.0002
3.0006
3.00125
3.00169
3.00125
3.0006
3.0002
3.00005
3.00001
3
3
3
3
3
3
3
3
3
3
3
3
3
3
3
3
3
3
3
3
3
3
3
3
3
3
3
3
3
3
3.00001
3.00004
3.00011
3.00023
3.00031
3.00023
3.00011
3.00004
3.00001
3
3
3
3
3
3
3
3
3
3
3
3
3
3
3
3
3
3
3
3
3
3
3
3
3
3
3
3
3
3
3
3
3.00001
3.00002
3.00004
3.00005
3.00004
3.00002
3.00001
3
3
3
3
3
3
3
3
3
3
3
3
3
3
3
3
3
3
3
3
3
3
3
3
3
3
3
3
3
3
3
3
3
3
3
3.00001
3.00001
3.00001
3
3
3
3
3
3
3
3
3
3
3
3
3
3
3
3
3
3
3
3
3
3
3
3
3
3
3
3
3
3
3
3
3
3
3
3
3
3
3
3
3
3
3
3
3
3
3
3
