# vtk DataFile Version 3.0
Brusselator Concentration Output
ASCII
DATASET STRUCTURED_POINTS
DIMENSIONS 40 40 1
ORIGIN 0.0 0.0 0.0
SPACING 0.005 0.005 1.0
POINT_DATA 1600
SCALARS C1 double 1
LOOKUP_TABLE default
1
1
1
1
1
1
1
1
1
1
1
1
1
1
1
1
1
1
1
1
1
1
1
1
1
1
1
1
1
1
1
1
1
1
1
1
1
1
1
1
1
1
1
1
1
1
1
1
1.00001
1.00002
1.00002
1.00002
1.00001
1
1
1
1
1
1
1
1
1
1
1
1
1
1
1
1
1
1
1
1
1
1
1
1
1
1
1
1
1
1
1
1
1
1.00001
1.00003
1.00007
1.00012
1.00014
1.00012
1.00007
1.00003
1.00001
1
1
1
1
1
1
1
1
1
1
1
1
1
1
1
1
1
1
1
1
1
1
1
1
1
1
1
1
1
1
1.00002
1.00005
1.00016
1.00037
1.00063
1.00075
1.00063
1.00037
1.00016
1.00005
1.00002
1
1
1
1
1
1
1
1
1
1
1
1
1
1
1
1
1
1
1
1
1
1
1
1
1
1
1
1
1.00002
1.00007
1.00027
1.00077
1.00172
1.00281
1.00326
1.00281
1.00172
1.00077
1.00027
1.00007
1.00002
1
1
1
1
1
1
1
1
1
1
1
1
1
1
1
1
1
1
1
1
1
1
1
1
1
1
1.00002
1.00007
1.00031
1.0011
1.00307
1.00651
1.00995
1.01104
1.00995
1.00651
1.00307
1.0011
1.00031
1.00007
1.00002
1
1
1
1
1
1
1
1
1
1
1
1
1
1
1
1
1
1
1
1
1
1
1
1
1.00001
1.00005
1.00027
1.0011
1.00372
1.00981
1.01895
1.02532
1.02539
1.02532
1.01895
1.00981
1.00372
1.0011
1.00027
1.00005
1.00001
1
1
1
1
1
1
1
1
1
1
1
1
1
1
1
1
1
1
1
1
1
1
1
1.00003
1.00016
1.00077
1.00307
1.00981
1.0234
1.03727
1.03452
1.02351
1.03452
1.03727
1.0234
1.00981
1.00307
1.00077
1.00016
1.00003
1
1
1
1
1
1
1
1
1
1
1
1
1
1
1
1
1
1
1
1
1
1
1.00001
1.00007
1.00037
1.00172
1.00651
1.01895
1.03727
1.03493
0.985203
0.945937
0.985203
1.03493
1.03727
1.01895
1.00651
1.00172
1.00037
1.00007
1.00001
1
1
1
1
1
1
1
1
1
1
1
1
1
1
1
1
1
1
1
1
1
1.00002
1.00012
1.00063
1.00281
1.00995
1.02532
1.03452
0.985203
0.867685
0.801379
0.867685
0.985203
1.03452
1.02532
1.00995
1.00281
1.00063
1.00012
1.00002
1
1
1
1
1
1
1
1
1
1
1
1
1
1
1
1
1
1
1
1
1
1.00002
1.00014
1.00075
1.00326
1.01104
1.02539
1.02351
0.945937
0.801379
0.72558
0.801379
0.945937
1.02351
1.02539
1.01104
1.00326
1.00075
1.00014
1.00002
1
1
1
1
1
1
1
1
1
1
1
1
1
1
1
1
1
1
1
1
1
1.00002
1.00012
1.00063
1.00281
1.00995
1.02532
1.03452
0.985203
0.867685
0.801379
0.867685
0.985203
1.03452
1.02532
1.00995
1.00281
1.00063
1.00012
1.00002
1
1
1
1
1
1
1
1
1
1
1
1
1
1
1
1
1
1
1
1
1
1.00001
1.00007
1.00037
1.00172
1.00651
1.01895
1.03727
1.03493
0.985203
0.945937
0.985203
1.03493
1.03727
1.01895
1.00651
1.00172
1.00037
1.00007
1.00001
1
1
1
1
1
1
1
1
1
1
1
1
1
1
1
1
1
1
1
1
1
1
1.00003
1.00016
1.00077
1.00307
1.00981
1.0234
1.03727
1.03452
1.02351
1.03452
1.03727
1.0234
1.00981
1.00307
1.00077
1.00016
1.00003
1
1
1
1
1
1
1
1
1
1
1
1
1
1
1
1
1
1
1
1
1
1
1
1.00001
1.00005
1.00027
1.0011
1.00372
1.00981
1.01895
1.02532
1.02539
1.02532
1.01895
1.00981
1.00372
1.0011
1.00027
1.00005
1.00001
1
1
1
1
1
1
1
1
1
1
1
1
1
1
1
1
1
1
1
1
1
1
1
1
1.00002
1.00007
1.00031
1.0011
1.00307
1.00651
1.00995
1.01104
1.00995
1.00651
1.00307
1.0011
1.00031
1.00007
1.00002
1
1
1
1
1
1
1
1
1
1
1
1
1
1
1
1
1
1
1
1
1
1
1
1
1
1
1.00002
1.00007
1.00027
1.00077
1.00172
1.00281
1.00326
1.00281
1.00172
1.00077
1.00027
1.00007
1.00002
1
1
1
1
1
1
1
1
1
1
1
1
1
1
1
1
1
1
1
1
1
1
1
1
1
1
1
1
1.00002
1.00005
1.00016
1.00037
1.00063
1.00075
1.00063
1.00037
1.00016
1.00005
1.00002
1
1
1
1
1
1
1
1
1
1
1
1
1
1
1
1
1
1
1
1
1
1
1
1
1
1
1
1
1
1
1.00001
1.00003
1.00007
1.00012
1.00014
1.00012
1.00007
1.00003
1.00001
1
1
1
1
1
1
1
1
1
1
1
1
1
1
1
1
1
1
1
1
1
1
1
1
1
1
1
1
1
1
1
1
1
1.00001
1.00002
1.00002
1.00002
1.00001
1
1
1
1
1
1
1
1
1
1
1
1
1
1
1
1
1
1
1
1
1
1
1
1
1
1
1
1
1
1
1
1
1
1
1
1
1
1
1
1
1
1
1
1
1
1
1
1
1
1
1
1
1
1
1
1
0.999999
0.999999
0.999999
1
1
1
1
1
1
1
1
1
1
1
1
1
1
1
1
1
1
1
1
1
1
1
1
1
1
1
1
1
1
1
1
1
1
1
0.999999
0.999997
0.999994
0.999993
0.999994
0.999997
0.999999
1
1
1
1
1
1
1
1
1
1
1
1
1
1
1
1
1
1
1
1
1
1
1
1
1
1
1
1
1
1
1
0.999999
0.999997
0.999991
0.99998
0.999965
0.999958
0.999965
0.99998
0.999991
0.999997
0.999999
1
1
1
1
1
1
1
1
1
1
1
1
1
1
1
1
1
1
1
1
1
1
1
1
1
1
1
1
0.999999
0.999996
0.999984
0.999953
0.999893
0.999819
0.999782
0.999819
0.999893
0.999953
0.999984
0.999996
0.999999
1
1
1
1
1
1
1
1
1
1
1
1
1
1
1
1
1
1
1
1
1
1
1
1
1
1
0.999999
0.999995
0.999978
0.999923
0.99978
0.99951
0.999188
0.99904
0.999188
0.99951
0.99978
0.999923
0.999978
0.999995
0.999999
1
1
1
1
1
1
1
1
1
1
1
1
1
1
1
1
1
1
1
1
1
1
1
1
0.999999
0.999996
0.999978
0.999909
0.999687
0.999127
0.998121
0.997007
0.996554
0.997007
0.998121
0.999127
0.999687
0.999909
0.999978
0.999996
0.999999
1
1
1
1
1
1
1
1
1
1
1
1
1
1
1
1
1
1
1
1
1
1
1
0.999997
0.999984
0.999923
0.999687
0.998946
0.997173
0.994219
0.991361
0.99052
0.991361
0.994219
0.997173
0.998946
0.999687
0.999923
0.999984
0.999997
0.999999
1
1
1
1
1
1
1
1
1
1
1
1
1
1
1
1
1
1
1
1
1
0.999999
0.999991
0.999953
0.99978
0.999127
0.997173
0.992829
0.986496
0.982105
0.982437
0.982105
0.986496
0.992829
0.997173
0.999127
0.99978
0.999953
0.999991
0.999998
1
1
1
1
1
1
1
1
1
1
1
1
1
1
1
1
1
1
1
1
1
0.999997
0.99998
0.999893
0.99951
0.998121
0.994219
0.986496
0.978063
0.978754
0.987825
0.978754
0.978063
0.986496
0.994219
0.998121
0.99951
0.999893
0.99998
0.999996
1
1
1
1
1
1
1
1
1
1
1
1
1
1
1
1
1
1
1
1
0.999999
0.999994
0.999965
0.999819
0.999188
0.997007
0.991361
0.982105
0.978754
1.00161
1.03691
1.00161
0.978754
0.982105
0.991361
0.997007
0.999188
0.999819
0.999965
0.999993
1
1
1
1
1
1
1
1
1
1
1
1
1
1
1
1
1
1
1
1
0.999999
0.999993
0.999958
0.999782
0.99904
0.996554
0.99052
0.982437
0.987825
1.03691
1.10244
1.03691
0.987825
0.982437
0.99052
0.996554
0.99904
0.999782
0.999958
0.999992
1
1
1
1
1
1
1
1
1
1
1
1
1
1
1
1
1
1
1
1
0.999999
0.999994
0.999965
0.999819
0.999188
0.997007
0.991361
0.982105
0.978754
1.00161
1.03691
1.00161
0.978754
0.982105
0.991361
0.997007
0.999188
0.999819
0.999965
0.999993
1
1
1
1
1
1
1
1
1
1
1
1
1
1
1
1
1
1
1
1
1
0.999997
0.99998
0.999893
0.99951
0.998121
0.994219
0.986496
0.978063
0.978754
0.987825
0.978754
0.978063
0.986496
0.994219
0.998121
0.99951
0.999893
0.99998
0.999996
1
1
1
1
1
1
1
1
1
1
1
1
1
1
1
1
1
1
1
1
1
0.999999
0.999991
0.999953
0.99978
0.999127
0.997173
0.992829
0.986496
0.982105
0.982437
0.982105
0.986496
0.992829
0.997173
0.999127
0.99978
0.999953
0.999991
0.999998
1
1
1
1
1
1
1
1
1
1
1
1
1
1
1
1
1
1
1
1
1
1
0.999997
0.999984
0.999923
0.999687
0.998946
0.997173
0.994219
0.991361
0.99052
0.991361
0.994219
0.997173
0.998946
0.999687
0.999923
0.999984
0.999997
0.999999
1
1
1
1
1
1
1
1
1
1
1
1
1
1
1
1
1
1
1
1
1
1
0.999999
0.999996
0.999978
0.999909
0.999687
0.999127
0.998121
0.997007
0.996554
0.997007
0.998121
0.999127
0.999687
0.999909
0.999978
0.999996
0.999999
1
1
1
1
1
1
1
1
1
1
1
1
1
1
1
1
1
1
1
1
1
1
1
1
0.999999
0.999995
0.999978
0.999923
0.99978
0.99951
0.999188
0.99904
0.999188
0.99951
0.99978
0.999923
0.999978
0.999995
0.999999
1
1
1
1
1
1
1
1
1
1
1
1
1
1
1
1
1
1
1
1
1
1
1
1
1
1
0.999999
0.999996
0.999984
0.999953
0.999893
0.999819
0.999782
0.999819
0.999893
0.999953
0.999984
0.999996
0.999999
1
1
1
1
1
1
1
1
1
1
1
1
1
1
1
1
1
1
1
1
1
1
1
1
1
1
1
1
0.999999
0.999997
0.999991
0.99998
0.999965
0.999958
0.999965
0.99998
0.999991
0.999997
0.999999
1
1
1
1
1
1
1
1
1
1
1
1
1
1
1
1
1
1
1
1
1
1
1
1
1
1
1
1
1
1
0.999999
0.999998
0.999996
0.999993
0.999992
0.999993
0.999996
0.999998
0.999999
1
1
1
1
1
SCALARS C2 double 1
LOOKUP_TABLE default
3
3
3
3
3
3
3
3
3
3
3
3
3
3
3
3
3
3
3
3
3
3
3
3
3
3
3
3
3
3
3
3
3
3
3
3
3
3
3
3
3
3
3
3
3
3
3
3
2.99999
2.99999
2.99998
2.99999
2.99999
3
3
3
3
3
3
3
3
3
3
3
3
3
3
3
3
3
3
3
3
3
3
3
3
3
3
3
3
3
3
3
3
3
2.99999
2.99998
2.99995
2.9999
2.99988
2.9999
2.99995
2.99998
2.99999
3
3
3
3
3
3
3
3
3
3
3
3
3
3
3
3
3
3
3
3
3
3
3
3
3
3
3
3
3
3
2.99999
2.99996
2.99987
2.99968
2.99942
2.99927
2.99942
2.99968
2.99987
2.99996
2.99999
3
3
3
3
3
3
3
3
3
3
3
3
3
3
3
3
3
3
3
3
3
3
3
3
3
3
3
3
2.99999
2.99995
2.99979
2.99933
2.99835
2.99704
2.99637
2.99704
2.99835
2.99933
2.99979
2.99995
2.99999
3
3
3
3
3
3
3
3
3
3
3
3
3
3
3
3
3
3
3
3
3
3
3
3
3
3
2.99999
2.99995
2.99975
2.99903
2.99698
2.99277
2.98747
2.98507
2.98747
2.99277
2.99698
2.99903
2.99975
2.99995
2.99999
3
3
3
3
3
3
3
3
3
3
3
3
3
3
3
3
3
3
3
3
3
3
3
3
2.99999
2.99996
2.99979
2.99903
2.99632
2.98885
2.97443
2.95841
2.95296
2.95841
2.97443
2.98885
2.99632
2.99903
2.99979
2.99996
2.99999
3
3
3
3
3
3
3
3
3
3
3
3
3
3
3
3
3
3
3
3
3
3
3
2.99998
2.99987
2.99933
2.99698
2.98885
2.96771
2.93187
2.90291
2.90195
2.90291
2.93187
2.96771
2.98885
2.99698
2.99933
2.99987
2.99998
3
3
3
3
3
3
3
3
3
3
3
3
3
3
3
3
3
3
3
3
3
3
2.99999
2.99995
2.99968
2.99835
2.99277
2.97443
2.93187
2.87814
2.87049
2.90553
2.87049
2.87814
2.93187
2.97443
2.99277
2.99835
2.99968
2.99995
2.99999
3
3
3
3
3
3
3
3
3
3
3
3
3
3
3
3
3
3
3
3
3
2.99999
2.9999
2.99942
2.99704
2.98747
2.95841
2.90291
2.87049
2.94287
3.04138
2.94287
2.87049
2.90291
2.95841
2.98747
2.99704
2.99942
2.9999
2.99999
3
3
3
3
3
3
3
3
3
3
3
3
3
3
3
3
3
3
3
3
3
2.99998
2.99988
2.99927
2.99637
2.98507
2.95296
2.90195
2.90553
3.04138
3.17204
3.04138
2.90553
2.90195
2.95296
2.98507
2.99637
2.99927
2.99988
2.99998
3
3
3
3
3
3
3
3
3
3
3
3
3
3
3
3
3
3
3
3
3
2.99999
2.9999
2.99942
2.99704
2.98747
2.95841
2.90291
2.87049
2.94287
3.04138
2.94287
2.87049
2.90291
2.95841
2.98747
2.99704
2.99942
2.9999
2.99999
3
3
3
3
3
3
3
3
3
3
3
3
3
3
3
3
3
3
3
3
3
2.99999
2.99995
2.99968
2.99835
2.99277
2.97443
2.93187
2.87814
2.87049
2.90553
2.87049
2.87814
2.93187
2.97443
2.99277
2.99835
2.99968
2.99995
2.99999
3
3
3
3
3
3
3
3
3
3
3
3
3
3
3
3
3
3
3
3
3
3
2.99998
2.99987
2.99933
2.99698
2.98885
2.96771
2.93187
2.90291
2.90195
2.90291
2.93187
2.96771
2.98885
2.99698
2.99933
2.99987
2.99998
3
3
3
3
3
3
3
3
3
3
3
3
3
3
3
3
3
3
3
3
3
3
3
2.99999
2.99996
2.99979
2.99903
2.99632
2.98885
2.97443
2.95841
2.95296
2.95841
2.97443
2.98885
2.99632
2.99903
2.99979
2.99996
2.99999
3
3
3
3
3
3
3
3
3
3
3
3
3
3
3
3
3
3
3
3
3
3
3
3
2.99999
2.99995
2.99975
2.99903
2.99698
2.99277
2.98747
2.98507
2.98747
2.99277
2.99698
2.99903
2.99975
2.99995
2.99999
3
3
3
3
3
3
3
3
3
3
3
3
3
3
3
3
3
3
3
3
3
3
3
3
3
3
2.99999
2.99995
2.99979
2.99933
2.99835
2.99704
2.99637
2.99704
2.99835
2.99933
2.99979
2.99995
2.99999
3
3
3
3
3
3
3
3
3
3
3
3
3
3
3
3
3
3
3
3
3
3
3
3
3
3
3
3
2.99999
2.99996
2.99987
2.99968
2.99942
2.99927
2.99942
2.99968
2.99987
2.99996
2.99999
3
3
3
3
3
3
3
3
3
3
3
3
3
3
3
3
3
3
3
3
3
3
3
3
3
3
3
3
3
3
2.99999
2.99998
2.99995
2.9999
2.99988
2.9999
2.99995
2.99998
2.99999
3
3
3
3
3
3
3
3
3
3
3
3
3
3
3
3
3
3
3
3
3
3
3
3
3
3
3
3
3
3
3
3
3
2.99999
2.99999
2.99998
2.99999
2.99999
3
3
3
3
3
3
3
3
3
3
3
3
3
3
3
3
3
3
3
3
3
3
3
3
3
3
3
3
3
3
3
3
3
3
3
3
3
3
3
3
3
3
3
3
3
3
3
3
3
3
3
3
3
3
3
3
3
3
3
3
3
3
3
3
3
3
3
3
3
3
3
3
3
3
3
3
3
3
3
3
3
3
3
3
3
3
3
3
3
3
3
3
3
3
3
3
3
3.00001
3
3
3
3
3
3
3
3
3
3
3
3
3
3
3
3
3
3
3
3
3
3
3
3
3
3
3
3
3
3
3
3
3
3
3
3
3.00001
3.00002
3.00003
3.00004
3.00003
3.00002
3.00001
3
3
3
3
3
3
3
3
3
3
3
3
3
3
3
3
3
3
3
3
3
3
3
3
3
3
3
3
3
3
3
3
3.00001
3.00004
3.00009
3.00017
3.00021
3.00017
3.00009
3.00004
3.00001
3
3
3
3
3
3
3
3
3
3
3
3
3
3
3
3
3
3
3
3
3
3
3
3
3
3
3
3
3
3
3.00002
3.00006
3.00019
3.00047
3.00085
3.00105
3.00085
3.00047
3.00019
3.00006
3.00002
3
3
3
3
3
3
3
3
3
3
3
3
3
3
3
3
3
3
3
3
3
3
3
3
3
3
3
3
3.00002
3.00007
3.00028
3.00086
3.00206
3.00364
3.00445
3.00364
3.00206
3.00086
3.00028
3.00007
3.00002
3
3
3
3
3
3
3
3
3
3
3
3
3
3
3
3
3
3
3
3
3
3
3
3
3
3
3.00001
3.00006
3.00028
3.00104
3.00316
3.00741
3.01275
3.01527
3.01275
3.00741
3.00316
3.00104
3.00028
3.00006
3.00001
3
3
3
3
3
3
3
3
3
3
3
3
3
3
3
3
3
3
3
3
3
3
3
3
3.00001
3.00004
3.00019
3.00086
3.00316
3.00934
3.02122
3.0351
3.04063
3.0351
3.02122
3.00934
3.00316
3.00086
3.00019
3.00004
3.00001
3
3
3
3
3
3
3
3
3
3
3
3
3
3
3
3
3
3
3
3
3
3
3
3.00002
3.00009
3.00047
3.00206
3.00741
3.02122
3.04609
3.0716
3.07752
3.0716
3.04609
3.02122
3.00741
3.00206
3.00047
3.00009
3.00002
3
3
3
3
3
3
3
3
3
3
3
3
3
3
3
3
3
3
3
3
3
3
3
3.00003
3.00017
3.00085
3.00364
3.01275
3.0351
3.0716
3.09867
3.0889
3.09867
3.0716
3.0351
3.01275
3.00364
3.00085
3.00017
3.00003
3
3
3
3
3
3
3
3
3
3
3
3
3
3
3
3
3
3
3
3
3
3
3.00001
3.00004
3.00021
3.00105
3.00445
3.01527
3.04063
3.07752
3.0889
3.04864
3.0889
3.07752
3.04063
3.01527
3.00445
3.00105
3.00021
3.00004
3.00001
3
3
3
3
3
3
3
3
3
3
3
3
3
3
3
3
3
3
3
3
3
3
3.00003
3.00017
3.00085
3.00364
3.01275
3.0351
3.0716
3.09867
3.0889
3.09867
3.0716
3.0351
3.01275
3.00364
3.00085
3.00017
3.00003
3
3
3
3
3
3
3
3
3
3
3
3
3
3
3
3
3
3
3
3
3
3
3
3.00002
3.00009
3.00047
3.00206
3.00741
3.02122
3.04609
3.0716
3.07752
3.0716
3.04609
3.02122
3.00741
3.00206
3.00047
3.00009
3.00002
3
3
3
3
3
3
3
3
3
3
3
3
3
3
3
3
3
3
3
3
3
3
3
3.00001
3.00004
3.00019
3.00086
3.00316
3.00934
3.02122
3.0351
3.04063
3.0351
3.02122
3.00934
3.00316
3.00086
3.00019
3.00004
3.00001
3
3
3
3
3
3
3
3
3
3
3
3
3
3
3
3
3
3
3
3
3
3
3
3
3.00001
3.00006
3.00028
3.00104
3.00316
3.00741
3.01275
3.01527
3.01275
3.00741
3.00316
3.00104
3.00028
3.00006
3.00001
3
3
3
3
3
3
3
3
3
3
3
3
3
3
3
3
3
3
3
3
3
3
3
3
3
3
3.00002
3.00007
3.00028
3.00086
3.00206
3.00364
3.00445
3.00364
3.00206
3.00086
3.00028
3.00007
3.00002
3
3
3
3
3
3
3
3
3
3
3
3
3
3
3
3
3
3
3
3
3
3
3
3
3
3
3
3
3.00002
3.00006
3.00019
3.00047
3.00085
3.00105
3.00085
3.00047
3.00019
3.00006
3.00002
3
3
3
3
3
3
3
3
3
3
3
3
3
3
3
3
3
3
3
3
3
3
3
3
3
3
3
3
3
3
3.00001
3.00004
3.00009
3.00017
3.00021
3.00017
3.00009
3.00004
3.00001
3
3
3
3
3
3
3
3
3
3
3
3
3
3
3
3
3
3
3
3
3
3
3
3
3
3
3
3
3
3
3
3
3.00001
3.00002
3.00003
3.00004
3.00003
3.00002
3.00001
3
3
3
3
3
3
3
3
3
3
3
3
3
3
3
3
3
3
3
3
3
3
3
3
3
3
3
3
3
3
3
3
3
3
3
3
3.00001
3
3
3
3
3
3
3
3
3
