# vtk DataFile Version 3.0
Brusselator Concentration Output
ASCII
DATASET STRUCTURED_POINTS
DIMENSIONS 40 40 1
ORIGIN 0.0 0.0 0.0
SPACING 0.005 0.005 1.0
POINT_DATA 1600
SCALARS C1 double 1
LOOKUP_TABLE default
1
1
1
1
1
1
1
1
1
1
1.00001
1
1
1
1
1
1
1
1
1
1
1
1
1
1
1
1
1
1
1
1
1
1
1
1
1
1
1
1
1
1
1
1
1
1
1
1
1.00001
1.00002
1.00003
1.00003
1.00003
1.00002
1.00001
1
1
1
1
1
1
1
1
1
1
1
1
1
1
1
1
1
1
1
1
1
1
1
1
1
1
1
1
1
1
1
1
1.00002
1.00004
1.00009
1.00015
1.00018
1.00015
1.00009
1.00004
1.00002
1
1
1
1
1
1
1
1
1
1
1
1
1
1
1
1
1
1
1
1
1
1
1
1
1
1
1
1
1
1.00001
1.00002
1.00008
1.00021
1.00046
1.00075
1.00088
1.00075
1.00046
1.00021
1.00008
1.00002
1.00001
1
1
1
1
1
1
1
1
1
1
1
1
1
1
1
1
1
1
1
1
1
1
1
1
1
1
1.00001
1.00003
1.00011
1.00035
1.00094
1.00197
1.00308
1.00353
1.00308
1.00197
1.00094
1.00035
1.00011
1.00003
1.00001
1
1
1
1
1
1
1
1
1
1
1
1
1
1
1
1
1
1
1
1
1
1
1
1
1
1.00002
1.00011
1.00041
1.00133
1.00347
1.00692
1.01012
1.01105
1.01012
1.00692
1.00347
1.00133
1.00041
1.00011
1.00002
1
1
1
1
1
1
1
1
1
1
1
1
1
1
1
1
1
1
1
1
1
1
1
1
1.00002
1.00008
1.00035
1.00133
1.00418
1.01028
1.01859
1.02356
1.02312
1.02356
1.01859
1.01028
1.00418
1.00133
1.00035
1.00008
1.00002
1
1
1
1
1
1
1
1
1
1
1
1
1
1
1
1
1
1
1
1
1
1
1.00001
1.00004
1.00021
1.00094
1.00347
1.01028
1.02269
1.03316
1.02725
1.016
1.02725
1.03316
1.02269
1.01028
1.00347
1.00094
1.00021
1.00004
1.00001
1
1
1
1
1
1
1
1
1
1
1
1
1
1
1
1
1
1
1
1
1
1.00002
1.00009
1.00046
1.00197
1.00692
1.01859
1.03316
1.02492
0.974202
0.936925
0.974202
1.02492
1.03316
1.01859
1.00692
1.00197
1.00046
1.00009
1.00002
1
1
1
1
1
1
1
1
1
1
1
1
1
1
1
1
1
1
1
1
1
1.00003
1.00015
1.00075
1.00308
1.01012
1.02356
1.02725
0.974202
0.861554
0.798509
0.861554
0.974202
1.02725
1.02356
1.01012
1.00308
1.00075
1.00015
1.00003
1
1
1
1
1
1
1
1
1
1
1
1
1
1
1
1
1
1
1
1
1.00001
1.00003
1.00018
1.00088
1.00353
1.01105
1.02312
1.016
0.936925
0.798509
0.725328
0.798509
0.936925
1.016
1.02312
1.01105
1.00353
1.00088
1.00018
1.00003
1.00001
1
1
1
1
1
1
1
1
1
1
1
1
1
1
1
1
1
1
1
1
1.00003
1.00015
1.00075
1.00308
1.01012
1.02356
1.02725
0.974202
0.861554
0.798509
0.861554
0.974202
1.02725
1.02356
1.01012
1.00308
1.00075
1.00015
1.00003
1
1
1
1
1
1
1
1
1
1
1
1
1
1
1
1
1
1
1
1
1
1.00002
1.00009
1.00046
1.00197
1.00692
1.01859
1.03316
1.02492
0.974202
0.936925
0.974202
1.02492
1.03316
1.01859
1.00692
1.00197
1.00046
1.00009
1.00002
1
1
1
1
1
1
1
1
1
1
1
1
1
1
1
1
1
1
1
1
1
1.00001
1.00004
1.00021
1.00094
1.00347
1.01028
1.02269
1.03316
1.02725
1.016
1.02725
1.03316
1.02269
1.01028
1.00347
1.00094
1.00021
1.00004
1.00001
1
1
1
1
1
1
1
1
1
1
1
1
1
1
1
1
1
1
1
1
1
1
1.00002
1.00008
1.00035
1.00133
1.00418
1.01028
1.01859
1.02356
1.02312
1.02356
1.01859
1.01028
1.00418
1.00133
1.00035
1.00008
1.00002
1
1
1
1
1
1
1
1
1
1
1
1
1
1
1
1
1
1
1
1
1
1
1
1
1.00002
1.00011
1.00041
1.00133
1.00347
1.00692
1.01012
1.01105
1.01012
1.00692
1.00347
1.00133
1.00041
1.00011
1.00002
1
1
1
1
1
1
1
1
1
1
1
1
1
1
1
1
1
1
1
1
1
1
1
1
1
1.00001
1.00003
1.00011
1.00035
1.00094
1.00197
1.00308
1.00353
1.00308
1.00197
1.00094
1.00035
1.00011
1.00003
1.00001
1
1
1
1
1
1
1
1
1
1
1
1
1
1
1
1
1
1
1
1
1
1
1
1
1
1
1.00001
1.00002
1.00008
1.00021
1.00046
1.00075
1.00088
1.00075
1.00046
1.00021
1.00008
1.00002
1.00001
1
1
1
1
1
1
1
1
1
1
1
1
1
1
1
1
1
1
1
1
1
1
1
1
1
1
1
1
1
1.00002
1.00004
1.00009
1.00015
1.00018
1.00015
1.00009
1.00004
1.00002
1
1
1
1
1
1
1
1
1
1
1
1
1
1
1
1
1
1
1
1
1
1
1
1
1
1
1
1
1
1
1
1
1.00001
1.00002
1.00003
1.00003
1.00003
1.00002
1.00001
1
1
1
1
1
1
1
1
1
1
1
1
1
1
1
1
1
1
1
1
1
1
1
1
1
1
1
1
1
1
1
1
1
1
1
1
1.00001
1
1
1
1
1
1
1
1
1
1
1
1
1
1
1
1
1
0.999999
0.999999
0.999998
0.999999
0.999999
1
1
1
1
1
1
1
1
1
1
1
1
1
1
1
1
1
1
1
1
1
1
1
1
1
1
1
1
1
1
1
1
1
0.999999
0.999998
0.999995
0.999992
0.99999
0.999992
0.999995
0.999998
0.999999
1
1
1
1
1
1
1
1
1
1
1
1
1
1
1
1
1
1
1
1
1
1
1
1
1
1
1
1
1
1
0.999999
0.999996
0.999988
0.999973
0.999956
0.999947
0.999956
0.999973
0.999988
0.999996
0.999999
1
1
1
1
1
1
1
1
1
1
1
1
1
1
1
1
1
1
1
1
1
1
1
1
1
1
1
1
0.999998
0.999993
0.999977
0.999938
0.999867
0.999783
0.999744
0.999783
0.999867
0.999938
0.999977
0.999993
0.999998
1
1
1
1
1
1
1
1
1
1
1
1
1
1
1
1
1
1
1
1
1
1
1
1
1
1
0.999998
0.999992
0.99997
0.9999
0.999731
0.999431
0.999093
0.998943
0.999093
0.999431
0.999731
0.9999
0.99997
0.999992
0.999998
1
1
1
1
1
1
1
1
1
1
1
1
1
1
1
1
1
1
1
1
1
1
1
1
0.999999
0.999993
0.99997
0.999882
0.99962
0.999003
0.997957
0.996859
0.996432
0.996859
0.997957
0.999003
0.99962
0.999882
0.99997
0.999993
0.999999
1
1
1
1
1
1
1
1
1
1
1
1
1
1
1
1
1
1
1
1
1
1
0.999999
0.999996
0.999977
0.9999
0.99962
0.9988
0.996962
0.994079
0.991465
0.990767
0.991465
0.994079
0.996962
0.9988
0.99962
0.9999
0.999977
0.999996
0.999999
1
1
1
1
1
1
1
1
1
1
1
1
1
1
1
1
1
1
1
1
1
0.999998
0.999988
0.999938
0.999731
0.999003
0.996962
0.992711
0.986951
0.983485
0.984231
0.983485
0.986951
0.992711
0.996962
0.999003
0.999731
0.999938
0.999988
0.999998
1
1
1
1
1
1
1
1
1
1
1
1
1
1
1
1
1
1
1
1
0.999999
0.999995
0.999973
0.999867
0.999431
0.997957
0.994079
0.986951
0.980164
0.982938
0.99271
0.982938
0.980164
0.986951
0.994079
0.997957
0.999431
0.999867
0.999973
0.999995
1
1
1
1
1
1
1
1
1
1
1
1
1
1
1
1
1
1
1
1
0.999999
0.999992
0.999956
0.999783
0.999093
0.996859
0.991465
0.983485
0.982938
1.00875
1.04443
1.00875
0.982938
0.983485
0.991465
0.996859
0.999093
0.999783
0.999956
0.999991
1
1
1
1
1
1
1
1
1
1
1
1
1
1
1
1
1
1
1
1
0.999998
0.99999
0.999947
0.999744
0.998943
0.996432
0.990767
0.984231
0.99271
1.04443
1.10904
1.04443
0.99271
0.984231
0.990767
0.996432
0.998943
0.999744
0.999947
0.999989
1
1
1
1
1
1
1
1
1
1
1
1
1
1
1
1
1
1
1
1
0.999999
0.999992
0.999956
0.999783
0.999093
0.996859
0.991465
0.983485
0.982938
1.00875
1.04443
1.00875
0.982938
0.983485
0.991465
0.996859
0.999093
0.999783
0.999956
0.999991
1
1
1
1
1
1
1
1
1
1
1
1
1
1
1
1
1
1
1
1
0.999999
0.999995
0.999973
0.999867
0.999431
0.997957
0.994079
0.986951
0.980164
0.982938
0.99271
0.982938
0.980164
0.986951
0.994079
0.997957
0.999431
0.999867
0.999973
0.999995
1
1
1
1
1
1
1
1
1
1
1
1
1
1
1
1
1
1
1
1
1
0.999998
0.999988
0.999938
0.999731
0.999003
0.996962
0.992711
0.986951
0.983485
0.984231
0.983485
0.986951
0.992711
0.996962
0.999003
0.999731
0.999938
0.999988
0.999998
1
1
1
1
1
1
1
1
1
1
1
1
1
1
1
1
1
1
1
1
1
0.999999
0.999996
0.999977
0.9999
0.99962
0.9988
0.996962
0.994079
0.991465
0.990767
0.991465
0.994079
0.996962
0.9988
0.99962
0.9999
0.999977
0.999996
0.999999
1
1
1
1
1
1
1
1
1
1
1
1
1
1
1
1
1
1
1
1
1
1
0.999999
0.999993
0.99997
0.999882
0.99962
0.999003
0.997957
0.996859
0.996432
0.996859
0.997957
0.999003
0.99962
0.999882
0.99997
0.999993
0.999999
1
1
1
1
1
1
1
1
1
1
1
1
1
1
1
1
1
1
1
1
1
1
1
1
0.999998
0.999992
0.99997
0.9999
0.999731
0.999431
0.999093
0.998943
0.999093
0.999431
0.999731
0.9999
0.99997
0.999992
0.999998
1
1
1
1
1
1
1
1
1
1
1
1
1
1
1
1
1
1
1
1
1
1
1
1
1
1
0.999998
0.999993
0.999977
0.999938
0.999867
0.999783
0.999744
0.999783
0.999867
0.999938
0.999977
0.999993
0.999998
1
1
1
1
1
1
1
1
1
1
1
1
1
1
1
1
1
1
1
1
1
1
1
1
1
1
1
1
0.999999
0.999996
0.999988
0.999973
0.999956
0.999947
0.999956
0.999973
0.999988
0.999996
0.999999
1
1
1
1
1
1
1
1
1
1
1
1
1
1
1
1
1
1
1
1
1
1
1
1
1
1
1
1
1
1
0.999999
0.999998
0.999995
0.999991
0.999989
0.999991
0.999995
0.999998
0.999999
1
1
1
1
1
SCALARS C2 double 1
LOOKUP_TABLE default
3
3
3
3
3
3
3
3
3
3
3
3
3
3
3
3
3
3
3
3
3
3
3
3
3
3
3
3
3
3
3
3
3
3
3
3
3
3
3
3
3
3
3
3
3
3
3
2.99999
2.99999
2.99998
2.99997
2.99998
2.99999
2.99999
3
3
3
3
3
3
3
3
3
3
3
3
3
3
3
3
3
3
3
3
3
3
3
3
3
3
3
3
3
3
3
3
2.99999
2.99997
2.99992
2.99987
2.99983
2.99987
2.99992
2.99997
2.99999
3
3
3
3
3
3
3
3
3
3
3
3
3
3
3
3
3
3
3
3
3
3
3
3
3
3
3
3
3
3
2.99998
2.99994
2.99982
2.99958
2.99927
2.99911
2.99927
2.99958
2.99982
2.99994
2.99998
3
3
3
3
3
3
3
3
3
3
3
3
3
3
3
3
3
3
3
3
3
3
3
3
3
3
3
3
2.99998
2.99992
2.9997
2.99912
2.99798
2.99655
2.99586
2.99655
2.99798
2.99912
2.9997
2.99992
2.99998
3
3
3
3
3
3
3
3
3
3
3
3
3
3
3
3
3
3
3
3
3
3
3
3
3
3
2.99998
2.99992
2.99965
2.99874
2.99636
2.99181
2.98646
2.98416
2.98646
2.99181
2.99636
2.99874
2.99965
2.99992
2.99998
3
3
3
3
3
3
3
3
3
3
3
3
3
3
3
3
3
3
3
3
3
3
3
3
2.99999
2.99994
2.9997
2.99874
2.99559
2.98753
2.97311
2.95827
2.95362
2.95827
2.97311
2.98753
2.99559
2.99874
2.9997
2.99994
2.99999
3
3
3
3
3
3
3
3
3
3
3
3
3
3
3
3
3
3
3
3
3
3
2.99999
2.99997
2.99982
2.99912
2.99636
2.98753
2.96634
2.93343
2.90988
2.91084
2.90988
2.93343
2.96634
2.98753
2.99636
2.99912
2.99982
2.99997
2.99999
3
3
3
3
3
3
3
3
3
3
3
3
3
3
3
3
3
3
3
3
3
2.99999
2.99992
2.99958
2.99798
2.99181
2.97311
2.93343
2.88928
2.89086
2.92619
2.89086
2.88928
2.93343
2.97311
2.99181
2.99798
2.99958
2.99992
2.99999
3
3
3
3
3
3
3
3
3
3
3
3
3
3
3
3
3
3
3
3
3
2.99998
2.99987
2.99927
2.99655
2.98646
2.95827
2.90988
2.89086
2.9687
3.06312
2.9687
2.89086
2.90988
2.95827
2.98646
2.99655
2.99927
2.99987
2.99998
3
3
3
3
3
3
3
3
3
3
3
3
3
3
3
3
3
3
3
3
3
2.99997
2.99983
2.99911
2.99586
2.98416
2.95362
2.91084
2.92619
3.06312
3.18776
3.06312
2.92619
2.91084
2.95362
2.98416
2.99586
2.99911
2.99983
2.99997
3
3
3
3
3
3
3
3
3
3
3
3
3
3
3
3
3
3
3
3
3
2.99998
2.99987
2.99927
2.99655
2.98646
2.95827
2.90988
2.89086
2.9687
3.06312
2.9687
2.89086
2.90988
2.95827
2.98646
2.99655
2.99927
2.99987
2.99998
3
3
3
3
3
3
3
3
3
3
3
3
3
3
3
3
3
3
3
3
3
2.99999
2.99992
2.99958
2.99798
2.99181
2.97311
2.93343
2.88928
2.89086
2.92619
2.89086
2.88928
2.93343
2.97311
2.99181
2.99798
2.99958
2.99992
2.99999
3
3
3
3
3
3
3
3
3
3
3
3
3
3
3
3
3
3
3
3
3
2.99999
2.99997
2.99982
2.99912
2.99636
2.98753
2.96634
2.93343
2.90988
2.91084
2.90988
2.93343
2.96634
2.98753
2.99636
2.99912
2.99982
2.99997
2.99999
3
3
3
3
3
3
3
3
3
3
3
3
3
3
3
3
3
3
3
3
3
3
2.99999
2.99994
2.9997
2.99874
2.99559
2.98753
2.97311
2.95827
2.95362
2.95827
2.97311
2.98753
2.99559
2.99874
2.9997
2.99994
2.99999
3
3
3
3
3
3
3
3
3
3
3
3
3
3
3
3
3
3
3
3
3
3
3
3
2.99998
2.99992
2.99965
2.99874
2.99636
2.99181
2.98646
2.98416
2.98646
2.99181
2.99636
2.99874
2.99965
2.99992
2.99998
3
3
3
3
3
3
3
3
3
3
3
3
3
3
3
3
3
3
3
3
3
3
3
3
3
3
2.99998
2.99992
2.9997
2.99912
2.99798
2.99655
2.99586
2.99655
2.99798
2.99912
2.9997
2.99992
2.99998
3
3
3
3
3
3
3
3
3
3
3
3
3
3
3
3
3
3
3
3
3
3
3
3
3
3
3
3
2.99998
2.99994
2.99982
2.99958
2.99927
2.99911
2.99927
2.99958
2.99982
2.99994
2.99998
3
3
3
3
3
3
3
3
3
3
3
3
3
3
3
3
3
3
3
3
3
3
3
3
3
3
3
3
3
3
2.99999
2.99997
2.99992
2.99987
2.99983
2.99987
2.99992
2.99997
2.99999
3
3
3
3
3
3
3
3
3
3
3
3
3
3
3
3
3
3
3
3
3
3
3
3
3
3
3
3
3
3
3
3
2.99999
2.99999
2.99998
2.99997
2.99998
2.99999
2.99999
3
3
3
3
3
3
3
3
3
3
3
3
3
3
3
3
3
3
3
3
3
3
3
3
3
3
3
3
3
3
3
3
3
3
3
3
3
3
3
3
3
3
3
3
3
3
3
3
3
3
3
3
3
3
3
3
3
3
3
3
3
3
3
3
3
3
3
3
3
3
3
3
3
3
3
3
3
3
3
3
3
3
3
3
3
3
3
3
3
3
3
3
3
3
3
3.00001
3.00001
3.00001
3
3
3
3
3
3
3
3
3
3
3
3
3
3
3
3
3
3
3
3
3
3
3
3
3
3
3
3
3
3
3
3
3
3
3
3.00001
3.00002
3.00004
3.00005
3.00004
3.00002
3.00001
3
3
3
3
3
3
3
3
3
3
3
3
3
3
3
3
3
3
3
3
3
3
3
3
3
3
3
3
3
3
3
3.00001
3.00002
3.00005
3.00012
3.00021
3.00026
3.00021
3.00012
3.00005
3.00002
3.00001
3
3
3
3
3
3
3
3
3
3
3
3
3
3
3
3
3
3
3
3
3
3
3
3
3
3
3
3
3.00001
3.00002
3.00009
3.00025
3.00058
3.001
3.00122
3.001
3.00058
3.00025
3.00009
3.00002
3.00001
3
3
3
3
3
3
3
3
3
3
3
3
3
3
3
3
3
3
3
3
3
3
3
3
3
3
3.00001
3.00002
3.0001
3.00036
3.00104
3.00236
3.00401
3.00482
3.00401
3.00236
3.00104
3.00036
3.0001
3.00002
3.00001
3
3
3
3
3
3
3
3
3
3
3
3
3
3
3
3
3
3
3
3
3
3
3
3
3
3.00002
3.00009
3.00036
3.00126
3.00359
3.008
3.01327
3.01565
3.01327
3.008
3.00359
3.00126
3.00036
3.00009
3.00002
3
3
3
3
3
3
3
3
3
3
3
3
3
3
3
3
3
3
3
3
3
3
3
3
3.00001
3.00005
3.00025
3.00104
3.00359
3.01002
3.02172
3.0347
3.03953
3.0347
3.02172
3.01002
3.00359
3.00104
3.00025
3.00005
3.00001
3
3
3
3
3
3
3
3
3
3
3
3
3
3
3
3
3
3
3
3
3
3
3
3.00002
3.00012
3.00058
3.00236
3.008
3.02172
3.04507
3.06731
3.07118
3.06731
3.04507
3.02172
3.008
3.00236
3.00058
3.00012
3.00002
3
3
3
3
3
3
3
3
3
3
3
3
3
3
3
3
3
3
3
3
3
3
3.00001
3.00004
3.00021
3.001
3.00401
3.01327
3.0347
3.06731
3.08733
3.07356
3.08733
3.06731
3.0347
3.01327
3.00401
3.001
3.00021
3.00004
3.00001
3
3
3
3
3
3
3
3
3
3
3
3
3
3
3
3
3
3
3
3
3
3.00001
3.00005
3.00026
3.00122
3.00482
3.01565
3.03953
3.07118
3.07356
3.02911
3.07356
3.07118
3.03953
3.01565
3.00482
3.00122
3.00026
3.00005
3.00001
3
3
3
3
3
3
3
3
3
3
3
3
3
3
3
3
3
3
3
3
3
3.00001
3.00004
3.00021
3.001
3.00401
3.01327
3.0347
3.06731
3.08733
3.07356
3.08733
3.06731
3.0347
3.01327
3.00401
3.001
3.00021
3.00004
3.00001
3
3
3
3
3
3
3
3
3
3
3
3
3
3
3
3
3
3
3
3
3
3
3.00002
3.00012
3.00058
3.00236
3.008
3.02172
3.04507
3.06731
3.07118
3.06731
3.04507
3.02172
3.008
3.00236
3.00058
3.00012
3.00002
3
3
3
3
3
3
3
3
3
3
3
3
3
3
3
3
3
3
3
3
3
3
3
3.00001
3.00005
3.00025
3.00104
3.00359
3.01002
3.02172
3.0347
3.03953
3.0347
3.02172
3.01002
3.00359
3.00104
3.00025
3.00005
3.00001
3
3
3
3
3
3
3
3
3
3
3
3
3
3
3
3
3
3
3
3
3
3
3
3
3.00002
3.00009
3.00036
3.00126
3.00359
3.008
3.01327
3.01565
3.01327
3.008
3.00359
3.00126
3.00036
3.00009
3.00002
3
3
3
3
3
3
3
3
3
3
3
3
3
3
3
3
3
3
3
3
3
3
3
3
3
3.00001
3.00002
3.0001
3.00036
3.00104
3.00236
3.00401
3.00482
3.00401
3.00236
3.00104
3.00036
3.0001
3.00002
3.00001
3
3
3
3
3
3
3
3
3
3
3
3
3
3
3
3
3
3
3
3
3
3
3
3
3
3
3.00001
3.00002
3.00009
3.00025
3.00058
3.001
3.00122
3.001
3.00058
3.00025
3.00009
3.00002
3.00001
3
3
3
3
3
3
3
3
3
3
3
3
3
3
3
3
3
3
3
3
3
3
3
3
3
3
3
3
3.00001
3.00002
3.00005
3.00012
3.00021
3.00026
3.00021
3.00012
3.00005
3.00002
3.00001
3
3
3
3
3
3
3
3
3
3
3
3
3
3
3
3
3
3
3
3
3
3
3
3
3
3
3
3
3
3
3
3.00001
3.00002
3.00004
3.00005
3.00004
3.00002
3.00001
3
3
3
3
3
3
3
3
3
3
3
3
3
3
3
3
3
3
3
3
3
3
3
3
3
3
3
3
3
3
3
3
3
3
3
3.00001
3.00001
3.00001
3
3
3
3
3
3
3
3
