# vtk DataFile Version 3.0
Brusselator Concentration Output
ASCII
DATASET STRUCTURED_POINTS
DIMENSIONS 40 40 1
ORIGIN 0.0 0.0 0.0
SPACING 0.005 0.005 1.0
POINT_DATA 1600
SCALARS C1 double 1
LOOKUP_TABLE default
1
1
1
1
1
1
1
1
1
1.00001
1.00001
1.00001
1
1
1
1
1
1
1
1
1
1
1
1
1
1
1
1
1
1
1
1
1
1
1
1
1
1
1
1
1
1
1
1
1
1
1
1.00001
1.00002
1.00004
1.00004
1.00004
1.00002
1.00001
1
1
1
1
1
1
1
1
1
1
1
1
1
1
1
1
1
1
1
1
1
1
1
1
1
1
1
1
1
1
1
1.00001
1.00002
1.00006
1.00012
1.0002
1.00024
1.0002
1.00012
1.00006
1.00002
1.00001
1
1
1
1
1
1
1
1
1
1
1
1
1
1
1
1
1
1
1
1
1
1
1
1
1
1
1
1
1.00001
1.00003
1.00011
1.00028
1.00059
1.00093
1.00108
1.00093
1.00059
1.00028
1.00011
1.00003
1.00001
1
1
1
1
1
1
1
1
1
1
1
1
1
1
1
1
1
1
1
1
1
1
1
1
1
1
1.00001
1.00004
1.00015
1.00046
1.00119
1.0024
1.00362
1.00409
1.00362
1.0024
1.00119
1.00046
1.00015
1.00004
1.00001
1
1
1
1
1
1
1
1
1
1
1
1
1
1
1
1
1
1
1
1
1
1
1
1
1.00001
1.00003
1.00015
1.00054
1.00168
1.00418
1.00791
1.01104
1.01183
1.01104
1.00791
1.00418
1.00168
1.00054
1.00015
1.00003
1.00001
1
1
1
1
1
1
1
1
1
1
1
1
1
1
1
1
1
1
1
1
1
1
1
1.00002
1.00011
1.00046
1.00168
1.00501
1.01159
1.01954
1.02293
1.02162
1.02293
1.01954
1.01159
1.00501
1.00168
1.00046
1.00011
1.00002
1
1
1
1
1
1
1
1
1
1
1
1
1
1
1
1
1
1
1
1
1
1
1.00001
1.00006
1.00028
1.00119
1.00418
1.01159
1.02353
1.03019
1.01864
1.00565
1.01864
1.03019
1.02353
1.01159
1.00418
1.00119
1.00028
1.00006
1.00001
1
1
1
1
1
1
1
1
1
1
1
1
1
1
1
1
1
1
1
1
1
1.00002
1.00012
1.00059
1.0024
1.00791
1.01954
1.03019
1.01194
0.953318
0.916261
0.953318
1.01194
1.03019
1.01954
1.00791
1.0024
1.00059
1.00012
1.00002
1
1
1
1
1
1
1
1
1
1
1
1
1
1
1
1
1
1
1
1
1.00001
1.00004
1.0002
1.00093
1.00362
1.01104
1.02293
1.01864
0.953318
0.838262
0.779857
0.838262
0.953318
1.01864
1.02293
1.01104
1.00362
1.00093
1.0002
1.00004
1.00001
1
1
1
1
1
1
1
1
1
1
1
1
1
1
1
1
1
1
1
1.00001
1.00004
1.00024
1.00108
1.00409
1.01183
1.02162
1.00565
0.916261
0.779857
0.713312
0.779857
0.916261
1.00565
1.02162
1.01183
1.00409
1.00108
1.00024
1.00004
1.00001
1
1
1
1
1
1
1
1
1
1
1
1
1
1
1
1
1
1
1
1.00001
1.00004
1.0002
1.00093
1.00362
1.01104
1.02293
1.01864
0.953318
0.838262
0.779857
0.838262
0.953318
1.01864
1.02293
1.01104
1.00362
1.00093
1.0002
1.00004
1.00001
1
1
1
1
1
1
1
1
1
1
1
1
1
1
1
1
1
1
1
1
1.00002
1.00012
1.00059
1.0024
1.00791
1.01954
1.03019
1.01194
0.953318
0.916261
0.953318
1.01194
1.03019
1.01954
1.00791
1.0024
1.00059
1.00012
1.00002
1
1
1
1
1
1
1
1
1
1
1
1
1
1
1
1
1
1
1
1
1
1.00001
1.00006
1.00028
1.00119
1.00418
1.01159
1.02353
1.03019
1.01864
1.00565
1.01864
1.03019
1.02353
1.01159
1.00418
1.00119
1.00028
1.00006
1.00001
1
1
1
1
1
1
1
1
1
1
1
1
1
1
1
1
1
1
1
1
1
1
1.00002
1.00011
1.00046
1.00168
1.00501
1.01159
1.01954
1.02293
1.02162
1.02293
1.01954
1.01159
1.00501
1.00168
1.00046
1.00011
1.00002
1
1
1
1
1
1
1
1
1
1
1
1
1
1
1
1
1
1
1
1
1
1
1
1.00001
1.00003
1.00015
1.00054
1.00168
1.00418
1.00791
1.01104
1.01183
1.01104
1.00791
1.00418
1.00168
1.00054
1.00015
1.00003
1.00001
1
1
1
1
1
1
1
1
1
1
1
1
1
1
1
1
1
1
1
1
1
1
1
1
1.00001
1.00004
1.00015
1.00046
1.00119
1.0024
1.00362
1.00409
1.00362
1.0024
1.00119
1.00046
1.00015
1.00004
1.00001
1
1
1
1
1
1
1
1
1
1
1
1
1
1
1
1
1
1
1
1
1
1
1
1
1
1
1.00001
1.00003
1.00011
1.00028
1.00059
1.00093
1.00108
1.00093
1.00059
1.00028
1.00011
1.00003
1.00001
1
1
1
1
1
1
1
1
1
1
1
1
1
1
1
1
1
1
1
1
1
1
1
1
1
1
1
1
1.00001
1.00002
1.00006
1.00012
1.0002
1.00024
1.0002
1.00012
1.00006
1.00002
1.00001
1
1
1
1
1
1
1
1
1
1
1
1
1
1
1
1
1
1
1
1
1
1
1
1
1
1
1
1
1
1
1
1.00001
1.00002
1.00004
1.00004
1.00004
1.00002
1.00001
1
1
1
1
1
1
1
1
1
1
1
1
1
1
1
1
1
1
1
1
1
1
1
1
1
1
1
1
1
1
1
1
1
1
1
1.00001
1.00001
1.00001
1
1
1
1
1
1
1
1
1
1
1
1
1
1
1
0.999999
0.999999
0.999998
0.999998
0.999998
0.999999
0.999999
1
1
1
1
1
1
1
1
1
1
1
1
1
1
1
1
1
1
1
1
1
1
1
1
1
1
1
1
1
1
1
1
0.999999
0.999997
0.999993
0.999989
0.999987
0.999989
0.999993
0.999997
0.999999
1
1
1
1
1
1
1
1
1
1
1
1
1
1
1
1
1
1
1
1
1
1
1
1
1
1
1
1
1
0.999999
0.999998
0.999994
0.999983
0.999964
0.999942
0.999931
0.999942
0.999964
0.999983
0.999994
0.999998
0.999999
1
1
1
1
1
1
1
1
1
1
1
1
1
1
1
1
1
1
1
1
1
1
1
1
1
1
0.999999
0.999997
0.99999
0.999969
0.999918
0.999829
0.999729
0.999683
0.999729
0.999829
0.999918
0.999969
0.99999
0.999997
0.999999
1
1
1
1
1
1
1
1
1
1
1
1
1
1
1
1
1
1
1
1
1
1
1
1
0.999999
0.999997
0.999989
0.999958
0.999867
0.999658
0.999302
0.99892
0.998758
0.99892
0.999302
0.999658
0.999867
0.999958
0.999989
0.999997
0.999999
1
1
1
1
1
1
1
1
1
1
1
1
1
1
1
1
1
1
1
1
1
1
1
0.999998
0.99999
0.999958
0.999845
0.999518
0.998789
0.997621
0.99647
0.996054
0.99647
0.997621
0.998789
0.999518
0.999845
0.999958
0.99999
0.999998
1
1
1
1
1
1
1
1
1
1
1
1
1
1
1
1
1
1
1
1
1
1
0.999999
0.999994
0.999969
0.999867
0.999518
0.998549
0.996498
0.993508
0.99107
0.99057
0.99107
0.993508
0.996498
0.998549
0.999518
0.999867
0.999969
0.999994
0.999999
1
1
1
1
1
1
1
1
1
1
1
1
1
1
1
1
1
1
1
1
0.999999
0.999997
0.999983
0.999918
0.999658
0.998789
0.996498
0.99207
0.986741
0.984564
0.986186
0.984564
0.986741
0.99207
0.996498
0.998789
0.999658
0.999918
0.999983
0.999996
1
1
1
1
1
1
1
1
1
1
1
1
1
1
1
1
1
1
1
1
0.999999
0.999993
0.999964
0.999829
0.999302
0.997621
0.993508
0.986741
0.982157
0.98912
1.00131
0.98912
0.982157
0.986741
0.993508
0.997621
0.999302
0.999829
0.999964
0.999992
1
1
1
1
1
1
1
1
1
1
1
1
1
1
1
1
1
1
1
1
0.999998
0.999989
0.999942
0.999729
0.99892
0.99647
0.99107
0.984564
0.98912
1.02345
1.06324
1.02345
0.98912
0.984564
0.99107
0.99647
0.99892
0.999729
0.999942
0.999987
1
1
1
1
1
1
1
1
1
1
1
1
1
1
1
1
1
1
1
1
0.999998
0.999987
0.999931
0.999683
0.998758
0.996054
0.99057
0.986186
1.00131
1.06324
1.13098
1.06324
1.00131
0.986186
0.99057
0.996054
0.998758
0.999683
0.999931
0.999985
1
1
1
1
1
1
1
1
1
1
1
1
1
1
1
1
1
1
1
1
0.999998
0.999989
0.999942
0.999729
0.99892
0.99647
0.99107
0.984564
0.98912
1.02345
1.06324
1.02345
0.98912
0.984564
0.99107
0.99647
0.99892
0.999729
0.999942
0.999987
1
1
1
1
1
1
1
1
1
1
1
1
1
1
1
1
1
1
1
1
0.999999
0.999993
0.999964
0.999829
0.999302
0.997621
0.993508
0.986741
0.982157
0.98912
1.00131
0.98912
0.982157
0.986741
0.993508
0.997621
0.999302
0.999829
0.999964
0.999992
1
1
1
1
1
1
1
1
1
1
1
1
1
1
1
1
1
1
1
1
0.999999
0.999997
0.999983
0.999918
0.999658
0.998789
0.996498
0.99207
0.986741
0.984564
0.986186
0.984564
0.986741
0.99207
0.996498
0.998789
0.999658
0.999918
0.999983
0.999996
1
1
1
1
1
1
1
1
1
1
1
1
1
1
1
1
1
1
1
1
1
0.999999
0.999994
0.999969
0.999867
0.999518
0.998549
0.996498
0.993508
0.99107
0.99057
0.99107
0.993508
0.996498
0.998549
0.999518
0.999867
0.999969
0.999994
0.999999
1
1
1
1
1
1
1
1
1
1
1
1
1
1
1
1
1
1
1
1
1
1
0.999998
0.99999
0.999958
0.999845
0.999518
0.998789
0.997621
0.99647
0.996054
0.99647
0.997621
0.998789
0.999518
0.999845
0.999958
0.99999
0.999998
1
1
1
1
1
1
1
1
1
1
1
1
1
1
1
1
1
1
1
1
1
1
1
0.999999
0.999997
0.999989
0.999958
0.999867
0.999658
0.999302
0.99892
0.998758
0.99892
0.999302
0.999658
0.999867
0.999958
0.999989
0.999997
0.999999
1
1
1
1
1
1
1
1
1
1
1
1
1
1
1
1
1
1
1
1
1
1
1
1
0.999999
0.999997
0.99999
0.999969
0.999918
0.999829
0.999729
0.999683
0.999729
0.999829
0.999918
0.999969
0.99999
0.999997
0.999999
1
1
1
1
1
1
1
1
1
1
1
1
1
1
1
1
1
1
1
1
1
1
1
1
1
1
0.999999
0.999998
0.999994
0.999983
0.999964
0.999942
0.999931
0.999942
0.999964
0.999983
0.999994
0.999998
0.999999
1
1
1
1
1
1
1
1
1
1
1
1
1
1
1
1
1
1
1
1
1
1
1
1
1
1
1
1
1
0.999999
0.999996
0.999992
0.999987
0.999985
0.999987
0.999992
0.999996
0.999999
1
1
1
1
1
SCALARS C2 double 1
LOOKUP_TABLE default
3
3
3
3
3
3
3
3
3
2.99999
2.99999
2.99999
3
3
3
3
3
3
3
3
3
3
3
3
3
3
3
3
3
3
3
3
3
3
3
3
3
3
3
3
3
3
3
3
3
3
3
2.99999
2.99998
2.99997
2.99996
2.99997
2.99998
2.99999
3
3
3
3
3
3
3
3
3
3
3
3
3
3
3
3
3
3
3
3
3
3
3
3
3
3
3
3
3
3
3
3
2.99998
2.99995
2.99989
2.99982
2.99978
2.99982
2.99989
2.99995
2.99998
3
3
3
3
3
3
3
3
3
3
3
3
3
3
3
3
3
3
3
3
3
3
3
3
3
3
3
3
3
2.99999
2.99997
2.99991
2.99975
2.99944
2.99905
2.99886
2.99905
2.99944
2.99975
2.99991
2.99997
2.99999
3
3
3
3
3
3
3
3
3
3
3
3
3
3
3
3
3
3
3
3
3
3
3
3
3
3
2.99999
2.99997
2.99988
2.99959
2.99884
2.99743
2.99576
2.99499
2.99576
2.99743
2.99884
2.99959
2.99988
2.99997
2.99999
3
3
3
3
3
3
3
3
3
3
3
3
3
3
3
3
3
3
3
3
3
3
3
3
3
2.99997
2.99988
2.99952
2.99835
2.99542
2.99014
2.98432
2.982
2.98432
2.99014
2.99542
2.99835
2.99952
2.99988
2.99997
3
3
3
3
3
3
3
3
3
3
3
3
3
3
3
3
3
3
3
3
3
3
3
3
2.99998
2.99991
2.99959
2.99835
2.99446
2.98511
2.96959
2.95518
2.95144
2.95518
2.96959
2.98511
2.99446
2.99835
2.99959
2.99991
2.99998
3
3
3
3
3
3
3
3
3
3
3
3
3
3
3
3
3
3
3
3
3
3
2.99999
2.99995
2.99975
2.99884
2.99542
2.98511
2.96223
2.93057
2.91315
2.91801
2.91315
2.93057
2.96223
2.98511
2.99542
2.99884
2.99975
2.99995
2.99999
3
3
3
3
3
3
3
3
3
3
3
3
3
3
3
3
3
3
3
3
3
2.99998
2.99989
2.99944
2.99743
2.99014
2.96959
2.93057
2.89675
2.91533
2.95727
2.91533
2.89675
2.93057
2.96959
2.99014
2.99743
2.99944
2.99989
2.99998
3
3
3
3
3
3
3
3
3
3
3
3
3
3
3
3
3
3
3
3
2.99999
2.99997
2.99982
2.99905
2.99576
2.98432
2.95518
2.91315
2.91533
3.01562
3.11537
3.01562
2.91533
2.91315
2.95518
2.98432
2.99576
2.99905
2.99982
2.99997
3
3
3
3
3
3
3
3
3
3
3
3
3
3
3
3
3
3
3
3
2.99999
2.99996
2.99978
2.99886
2.99499
2.982
2.95144
2.91801
2.95727
3.11537
3.24445
3.11537
2.95727
2.91801
2.95144
2.982
2.99499
2.99886
2.99978
2.99996
2.99999
3
3
3
3
3
3
3
3
3
3
3
3
3
3
3
3
3
3
3
2.99999
2.99997
2.99982
2.99905
2.99576
2.98432
2.95518
2.91315
2.91533
3.01562
3.11537
3.01562
2.91533
2.91315
2.95518
2.98432
2.99576
2.99905
2.99982
2.99997
3
3
3
3
3
3
3
3
3
3
3
3
3
3
3
3
3
3
3
3
3
2.99998
2.99989
2.99944
2.99743
2.99014
2.96959
2.93057
2.89675
2.91533
2.95727
2.91533
2.89675
2.93057
2.96959
2.99014
2.99743
2.99944
2.99989
2.99998
3
3
3
3
3
3
3
3
3
3
3
3
3
3
3
3
3
3
3
3
3
2.99999
2.99995
2.99975
2.99884
2.99542
2.98511
2.96223
2.93057
2.91315
2.91801
2.91315
2.93057
2.96223
2.98511
2.99542
2.99884
2.99975
2.99995
2.99999
3
3
3
3
3
3
3
3
3
3
3
3
3
3
3
3
3
3
3
3
3
3
2.99998
2.99991
2.99959
2.99835
2.99446
2.98511
2.96959
2.95518
2.95144
2.95518
2.96959
2.98511
2.99446
2.99835
2.99959
2.99991
2.99998
3
3
3
3
3
3
3
3
3
3
3
3
3
3
3
3
3
3
3
3
3
3
3
3
2.99997
2.99988
2.99952
2.99835
2.99542
2.99014
2.98432
2.982
2.98432
2.99014
2.99542
2.99835
2.99952
2.99988
2.99997
3
3
3
3
3
3
3
3
3
3
3
3
3
3
3
3
3
3
3
3
3
3
3
3
3
2.99999
2.99997
2.99988
2.99959
2.99884
2.99743
2.99576
2.99499
2.99576
2.99743
2.99884
2.99959
2.99988
2.99997
2.99999
3
3
3
3
3
3
3
3
3
3
3
3
3
3
3
3
3
3
3
3
3
3
3
3
3
3
2.99999
2.99997
2.99991
2.99975
2.99944
2.99905
2.99886
2.99905
2.99944
2.99975
2.99991
2.99997
2.99999
3
3
3
3
3
3
3
3
3
3
3
3
3
3
3
3
3
3
3
3
3
3
3
3
3
3
3
3
3
2.99998
2.99995
2.99989
2.99982
2.99978
2.99982
2.99989
2.99995
2.99998
3
3
3
3
3
3
3
3
3
3
3
3
3
3
3
3
3
3
3
3
3
3
3
3
3
3
3
3
3
3
3
3
2.99999
2.99998
2.99997
2.99996
2.99997
2.99998
2.99999
3
3
3
3
3
3
3
3
3
3
3
3
3
3
3
3
3
3
3
3
3
3
3
3
3
3
3
3
3
3
3
3
3
3
3
3
2.99999
3
3
3
3
3
3
3
3
3
3
3
3
3
3
3
3
3
3
3
3
3
3
3
3
3
3
3
3
3
3
3
3
3
3
3
3
3
3
3
3
3
3
3
3
3
3
3
3
3
3
3
3
3
3
3
3
3
3.00001
3.00001
3.00001
3.00001
3.00001
3
3
3
3
3
3
3
3
3
3
3
3
3
3
3
3
3
3
3
3
3
3
3
3
3
3
3
3
3
3
3
3
3
3
3.00001
3.00003
3.00005
3.00006
3.00005
3.00003
3.00001
3
3
3
3
3
3
3
3
3
3
3
3
3
3
3
3
3
3
3
3
3
3
3
3
3
3
3
3
3
3
3
3.00001
3.00003
3.00007
3.00016
3.00028
3.00033
3.00028
3.00016
3.00007
3.00003
3.00001
3
3
3
3
3
3
3
3
3
3
3
3
3
3
3
3
3
3
3
3
3
3
3
3
3
3
3
3
3.00001
3.00003
3.00012
3.00033
3.00074
3.00124
3.00148
3.00124
3.00074
3.00033
3.00012
3.00003
3.00001
3
3
3
3
3
3
3
3
3
3
3
3
3
3
3
3
3
3
3
3
3
3
3
3
3
3
3.00001
3.00003
3.00014
3.00047
3.00131
3.00287
3.00472
3.00558
3.00472
3.00287
3.00131
3.00047
3.00014
3.00003
3.00001
3
3
3
3
3
3
3
3
3
3
3
3
3
3
3
3
3
3
3
3
3
3
3
3
3
3.00003
3.00012
3.00047
3.00158
3.00433
3.00925
3.01478
3.01708
3.01478
3.00925
3.00433
3.00158
3.00047
3.00012
3.00003
3
3
3
3
3
3
3
3
3
3
3
3
3
3
3
3
3
3
3
3
3
3
3
3
3.00001
3.00007
3.00033
3.00131
3.00433
3.01153
3.02377
3.03618
3.04004
3.03618
3.02377
3.01153
3.00433
3.00131
3.00033
3.00007
3.00001
3
3
3
3
3
3
3
3
3
3
3
3
3
3
3
3
3
3
3
3
3
3
3.00001
3.00003
3.00016
3.00074
3.00287
3.00925
3.02377
3.04632
3.0642
3.06374
3.0642
3.04632
3.02377
3.00925
3.00287
3.00074
3.00016
3.00003
3.00001
3
3
3
3
3
3
3
3
3
3
3
3
3
3
3
3
3
3
3
3
3
3.00001
3.00005
3.00028
3.00124
3.00472
3.01478
3.03618
3.0642
3.07087
3.04474
3.07087
3.0642
3.03618
3.01478
3.00472
3.00124
3.00028
3.00005
3.00001
3
3
3
3
3
3
3
3
3
3
3
3
3
3
3
3
3
3
3
3
3
3.00001
3.00006
3.00033
3.00148
3.00558
3.01708
3.04004
3.06374
3.04474
2.98071
3.04474
3.06374
3.04004
3.01708
3.00558
3.00148
3.00033
3.00006
3.00001
3
3
3
3
3
3
3
3
3
3
3
3
3
3
3
3
3
3
3
3
3
3.00001
3.00005
3.00028
3.00124
3.00472
3.01478
3.03618
3.0642
3.07087
3.04474
3.07087
3.0642
3.03618
3.01478
3.00472
3.00124
3.00028
3.00005
3.00001
3
3
3
3
3
3
3
3
3
3
3
3
3
3
3
3
3
3
3
3
3
3.00001
3.00003
3.00016
3.00074
3.00287
3.00925
3.02377
3.04632
3.0642
3.06374
3.0642
3.04632
3.02377
3.00925
3.00287
3.00074
3.00016
3.00003
3.00001
3
3
3
3
3
3
3
3
3
3
3
3
3
3
3
3
3
3
3
3
3
3
3.00001
3.00007
3.00033
3.00131
3.00433
3.01153
3.02377
3.03618
3.04004
3.03618
3.02377
3.01153
3.00433
3.00131
3.00033
3.00007
3.00001
3
3
3
3
3
3
3
3
3
3
3
3
3
3
3
3
3
3
3
3
3
3
3
3
3.00003
3.00012
3.00047
3.00158
3.00433
3.00925
3.01478
3.01708
3.01478
3.00925
3.00433
3.00158
3.00047
3.00012
3.00003
3
3
3
3
3
3
3
3
3
3
3
3
3
3
3
3
3
3
3
3
3
3
3
3
3
3.00001
3.00003
3.00014
3.00047
3.00131
3.00287
3.00472
3.00558
3.00472
3.00287
3.00131
3.00047
3.00014
3.00003
3.00001
3
3
3
3
3
3
3
3
3
3
3
3
3
3
3
3
3
3
3
3
3
3
3
3
3
3
3.00001
3.00003
3.00012
3.00033
3.00074
3.00124
3.00148
3.00124
3.00074
3.00033
3.00012
3.00003
3.00001
3
3
3
3
3
3
3
3
3
3
3
3
3
3
3
3
3
3
3
3
3
3
3
3
3
3
3
3
3.00001
3.00003
3.00007
3.00016
3.00028
3.00033
3.00028
3.00016
3.00007
3.00003
3.00001
3
3
3
3
3
3
3
3
3
3
3
3
3
3
3
3
3
3
3
3
3
3
3
3
3
3
3
3
3
3
3
3.00001
3.00003
3.00005
3.00006
3.00005
3.00003
3.00001
3
3
3
3
3
3
3
3
3
3
3
3
3
3
3
3
3
3
3
3
3
3
3
3
3
3
3
3
3
3
3
3
3
3
3.00001
3.00001
3.00001
3.00001
3.00001
3
3
3
3
3
3
3
