# vtk DataFile Version 3.0
Brusselator Concentration Output
ASCII
DATASET STRUCTURED_POINTS
DIMENSIONS 40 40 1
ORIGIN 0.0 0.0 0.0
SPACING 0.005 0.005 1.0
POINT_DATA 1600
SCALARS C1 double 1
LOOKUP_TABLE default
0.999512
1.00086
1.0038
1.00855
1.01481
1.0216
1.02758
1.03173
1.03389
1.03466
1.03481
1.03466
1.03389
1.03173
1.02758
1.02161
1.01485
1.00867
1.00404
1.00124
0.999944
0.999569
0.999614
0.999764
0.999888
0.999958
0.999988
0.999998
1
1
1
1
1
1
1
1
1
1
1
1
1.00086
1.00292
1.00707
1.01295
1.01938
1.02451
1.02672
1.02572
1.02275
1.01982
1.01863
1.01982
1.02275
1.02572
1.02673
1.02453
1.01944
1.01309
1.00732
1.00322
1.00092
0.999941
0.999702
0.999755
0.999862
0.99994
0.999979
0.999995
1
1
1
1
1
1
1
1
1
1
1
1
1.0038
1.00707
1.01296
1.01964
1.02399
1.02275
1.01476
1.00208
0.98883
0.979086
0.975535
0.979086
0.988831
1.00208
1.01477
1.02279
1.02409
1.01982
1.01318
1.00711
1.00299
1.00082
0.999964
0.999778
0.999827
0.999909
0.999963
0.999988
0.999998
1
1
1
1
1
1
1
1
1
1
1
1.00855
1.01295
1.01964
1.0241
1.0204
1.00493
0.979554
0.950677
0.925319
0.908441
0.902573
0.908441
0.92532
0.950683
0.979575
1.00498
1.02053
1.02428
1.01974
1.01242
1.00619
1.00234
1.00052
0.999901
0.999812
0.999874
0.999941
0.999978
0.999994
0.999999
1
1
1
1
1
1
1
1
1
1
1.01481
1.01938
1.02399
1.0204
1.00091
0.964916
0.92018
0.87714
0.84339
0.822497
0.815489
0.822497
0.843392
0.877149
0.92021
0.964989
1.00104
1.02053
1.02378
1.01789
1.01022
1.00453
1.00144
1.00018
0.999848
0.99985
0.999917
0.999966
0.999989
0.999998
1
1
1
1
1
1
1
1
1
1
1.0216
1.02451
1.02275
1.00493
0.964916
0.908721
0.849853
0.799823
0.764024
0.743211
0.736453
0.743211
0.764027
0.799834
0.849888
0.908801
0.965034
1.00492
1.02204
1.0217
1.01431
1.00717
1.00271
1.00064
0.999956
0.999847
0.999897
0.999953
0.999983
0.999996
0.999999
1
1
1
1
1
1
1
1
1
1.02758
1.02672
1.01476
0.979554
0.92018
0.849853
0.784923
0.735023
0.702108
0.684108
0.678461
0.684109
0.702111
0.735036
0.784961
0.849932
0.920259
0.979352
1.01342
1.02243
1.01759
1.00983
1.00416
1.00124
1.00013
0.999869
0.999884
0.99994
0.999977
0.999993
0.999999
1
1
1
1
1
1
1
1
1
1.03173
1.02572
1.00208
0.950677
0.87714
0.799823
0.735023
0.689269
0.661341
0.647056
0.642756
0.647057
0.661345
0.689283
0.735062
0.799896
0.87717
0.950265
1.00011
1.02003
1.01949
1.01208
1.00557
1.00188
1.00035
0.999913
0.999879
0.99993
0.999971
0.999991
0.999998
1
1
1
1
1
1
1
1
1
1.03389
1.02275
0.98883
0.925319
0.84339
0.764024
0.702108
0.661341
0.638235
0.627275
0.62415
0.627276
0.638239
0.661356
0.702147
0.76409
0.843374
0.924726
0.986345
1.01596
1.02011
1.01366
1.00671
1.00244
1.00055
0.999963
0.99988
0.999924
0.999967
0.999989
0.999997
1
1
1
1
1
1
1
1
1
1.03466
1.01982
0.979086
0.908441
0.822497
0.743211
0.684108
0.647056
0.627275
0.618545
0.616201
0.618546
0.627279
0.64707
0.684147
0.743271
0.82245
0.907727
0.976263
1.01236
1.02005
1.01456
1.00744
1.00283
1.0007
1
0.999884
0.99992
0.999964
0.999988
0.999997
1
1
1
1
1
1
1
1
1
1.03481
1.01863
0.975535
0.902573
0.815489
0.736453
0.678461
0.642756
0.62415
0.616201
0.61413
0.616202
0.624155
0.642771
0.678499
0.736512
0.815431
0.901817
0.972597
1.01094
1.01994
1.01484
1.00769
1.00296
1.00075
1.00002
0.999886
0.99992
0.999964
0.999988
0.999998
1
1
1
1
1
1
1
1
1
1.03466
1.01982
0.979086
0.908441
0.822497
0.743211
0.684109
0.647057
0.627276
0.618546
0.616202
0.618547
0.62728
0.647071
0.684147
0.743272
0.82245
0.907727
0.976263
1.01236
1.02005
1.01456
1.00744
1.00283
1.0007
1
0.999886
0.999923
0.999968
0.999992
1
1
1
1
1
1
1
1
1
1
1.03389
1.02275
0.988831
0.92532
0.843392
0.764027
0.702111
0.661345
0.638239
0.627279
0.624155
0.62728
0.638242
0.661359
0.70215
0.764093
0.843376
0.924727
0.986345
1.01596
1.02011
1.01366
1.00671
1.00244
1.00056
0.999968
0.999888
0.999934
0.999979
1
1.00001
1.00001
1.00001
1.00001
1.00001
1.00001
1
1
1
1
1.03173
1.02572
1.00208
0.950683
0.877149
0.799834
0.735036
0.689283
0.661356
0.64707
0.642771
0.647071
0.661359
0.689297
0.735075
0.799908
0.877179
0.950271
1.00012
1.02003
1.01949
1.01208
1.00557
1.00189
1.00036
0.99993
0.999902
0.999958
1
1.00002
1.00003
1.00003
1.00003
1.00003
1.00002
1.00002
1.00001
1.00001
1
1
1.02758
1.02673
1.01477
0.979575
0.92021
0.849888
0.784961
0.735062
0.702147
0.684147
0.678499
0.684147
0.70215
0.735075
0.784999
0.849967
0.920289
0.979374
1.01343
1.02243
1.01759
1.00983
1.00418
1.00126
1.00016
0.999912
0.999934
0.999996
1.00004
1.00005
1.00006
1.00006
1.00006
1.00006
1.00005
1.00004
1.00003
1.00002
1.00001
1.00001
1.02161
1.02453
1.02279
1.00498
0.964989
0.908801
0.849932
0.799896
0.76409
0.743271
0.736512
0.743272
0.764093
0.799908
0.849967
0.908882
0.965107
1.00498
1.02208
1.02173
1.01433
1.00719
1.00275
1.0007
1.00002
0.999922
0.999973
1.00002
1.00004
1.00004
1.00004
1.00005
1.00006
1.00007
1.00008
1.00008
1.00007
1.00005
1.00004
1.00003
1.01485
1.01944
1.02409
1.02053
1.00104
0.965034
0.920259
0.87717
0.843374
0.82245
0.815431
0.82245
0.843376
0.877179
0.920289
0.965107
1.00118
1.02066
1.02388
1.01796
1.01027
1.0046
1.00152
1.00027
0.999941
0.999921
0.99994
0.999924
0.99988
0.999839
0.999823
0.999842
0.999891
0.999958
1.00002
1.00007
1.00009
1.0001
1.00008
1.00008
1.00867
1.01309
1.01982
1.02428
1.02053
1.00492
0.979352
0.950265
0.924726
0.907727
0.901817
0.907727
0.924727
0.950271
0.979374
1.00498
1.02066
1.02447
1.01992
1.01257
1.00633
1.00247
1.00064
1
0.999835
0.999754
0.999619
0.999429
0.999238
0.999099
0.999048
0.9991
0.999244
0.999451
0.999678
0.999881
1.00003
1.00011
1.00014
1.00015
1.00404
1.00732
1.01318
1.01974
1.02378
1.02204
1.01342
1.00011
0.986345
0.976263
0.972597
0.976263
0.986345
1.00012
1.01343
1.02208
1.02388
1.01992
1.01342
1.00738
1.00324
1.00102
1.00009
0.999724
0.99946
0.999088
0.998595
0.998065
0.997605
0.997298
0.99719
0.997298
0.997608
0.998077
0.998633
0.999184
0.999643
0.999963
1.00015
1.00022
1.00124
1.00322
1.00711
1.01242
1.01789
1.0217
1.02243
1.02003
1.01596
1.01236
1.01094
1.01236
1.01596
1.02003
1.02243
1.02173
1.01796
1.01257
1.00738
1.00354
1.00127
1.00016
0.999617
0.999118
0.998402
0.997438
0.99636
0.995355
0.994573
0.994091
0.99393
0.994091
0.994573
0.995361
0.996384
0.997507
0.998556
0.999386
0.999928
1.00019
0.999944
1.00092
1.00299
1.00619
1.01022
1.01431
1.01759
1.01949
1.02011
1.02005
1.01994
1.02005
1.02011
1.01949
1.01759
1.01433
1.01027
1.00633
1.00324
1.00127
1.0002
0.999551
0.998839
0.997743
0.99621
0.99444
0.99276
0.991448
0.990611
0.990192
0.99007
0.990191
0.990611
0.991452
0.992778
0.994496
0.996343
0.997992
0.999187
0.999801
0.999569
0.999941
1.00082
1.00234
1.00453
1.00717
1.00983
1.01208
1.01366
1.01456
1.01484
1.01456
1.01366
1.01208
1.00983
1.00719
1.0046
1.00247
1.00102
1.00016
0.999551
0.998731
0.997337
0.995267
0.992787
0.990447
0.988801
0.988104
0.988181
0.988554
0.988745
0.988554
0.988181
0.98811
0.988823
0.990507
0.992914
0.995474
0.997559
0.998711
0.999614
0.999702
0.999964
1.00052
1.00144
1.00271
1.00416
1.00557
1.00671
1.00744
1.00769
1.00744
1.00671
1.00557
1.00418
1.00275
1.00152
1.00064
1.00009
0.999617
0.998839
0.997337
0.994914
0.99184
0.988917
0.987182
0.987367
0.989428
0.992465
0.995105
0.996143
0.995105
0.992468
0.989441
0.987402
0.987257
0.989041
0.991962
0.994829
0.996564
0.999764
0.999755
0.999778
0.999901
1.00018
1.00064
1.00124
1.00188
1.00244
1.00283
1.00296
1.00283
1.00244
1.00189
1.00126
1.0007
1.00027
1
0.999724
0.999118
0.997743
0.995267
0.99184
0.988393
0.986527
0.987872
0.993171
1.00164
1.01099
1.01826
1.02099
1.01826
1.011
1.00166
0.993223
0.987964
0.986629
0.988344
0.991213
0.993258
0.999888
0.999862
0.999827
0.999812
0.999848
0.999956
1.00013
1.00035
1.00055
1.0007
1.00075
1.0007
1.00056
1.00036
1.00016
1.00002
0.999941
0.999835
0.99946
0.998402
0.99621
0.992787
0.988917
0.986527
0.988276
0.996437
1.01154
1.03146
1.05163
1.06659
1.07209
1.06659
1.05164
1.03149
1.01161
0.996538
0.988311
0.986179
0.987484
0.989143
0.999958
0.99994
0.999909
0.999874
0.99985
0.999847
0.999869
0.999913
0.999963
1
1.00002
1
0.999968
0.99993
0.999912
0.999922
0.999921
0.999754
0.999088
0.997438
0.99444
0.990447
0.987182
0.987872
0.996437
1.01585
1.04612
1.08291
1.1181
1.14305
1.15199
1.14306
1.11812
1.08296
1.04621
1.01594
0.996342
0.987087
0.984729
0.984987
0.999988
0.999979
0.999963
0.999941
0.999917
0.999897
0.999884
0.999879
0.99988
0.999884
0.999886
0.999886
0.999888
0.999902
0.999934
0.999973
0.99994
0.999619
0.998595
0.99636
0.99276
0.988801
0.987367
0.993171
1.01154
1.04612
1.09577
1.15225
1.20239
1.23528
1.24645
1.23529
1.20242
1.15232
1.09587
1.04617
1.01125
0.991846
0.983804
0.98164
0.999998
0.999995
0.999988
0.999978
0.999966
0.999953
0.99994
0.99993
0.999924
0.99992
0.99992
0.999923
0.999934
0.999958
0.999996
1.00002
0.999924
0.999429
0.998065
0.995355
0.991448
0.988104
0.989428
1.00164
1.03146
1.08291
1.15225
1.2248
1.28183
1.31426
1.32418
1.31427
1.28187
1.22487
1.15235
1.0829
1.03094
0.999743
0.984826
0.979602
1
1
0.999998
0.999994
0.999989
0.999983
0.999977
0.999971
0.999967
0.999964
0.999964
0.999968
0.999979
1
1.00004
1.00004
0.99988
0.999238
0.997605
0.994573
0.990611
0.988181
0.992465
1.01099
1.05163
1.1181
1.20239
1.28183
1.33448
1.35818
1.36403
1.35819
1.33452
1.2819
1.20247
1.11801
1.05088
1.00859
0.987036
0.978798
1
1
1
0.999999
0.999998
0.999996
0.999993
0.999991
0.999989
0.999988
0.999988
0.999992
1
1.00002
1.00005
1.00004
0.999839
0.999099
0.997298
0.994091
0.990192
0.988554
0.995105
1.01826
1.06659
1.14305
1.23528
1.31426
1.35818
1.37243
1.37448
1.37245
1.35822
1.31433
1.23534
1.1429
1.06568
1.01552
0.989155
0.978711
1
1
1
1
1
0.999999
0.999999
0.999998
0.999997
0.999997
0.999998
1
1.00001
1.00003
1.00006
1.00004
0.999823
0.999048
0.99719
0.99393
0.99007
0.988745
0.996143
1.02099
1.07209
1.15199
1.24645
1.32418
1.36403
1.37448
1.37509
1.3745
1.36407
1.32424
1.24651
1.15182
1.07112
1.01814
0.990016
0.978763
1
1
1
1
1
1
1
1
1
1
1
1
1.00001
1.00003
1.00006
1.00005
0.999842
0.9991
0.997298
0.994091
0.990191
0.988554
0.995105
1.01826
1.06659
1.14306
1.23529
1.31427
1.35819
1.37245
1.3745
1.37246
1.35823
1.31434
1.23535
1.14291
1.06568
1.01552
0.989155
0.978711
1
1
1
1
1
1
1
1
1
1
1
1
1.00001
1.00003
1.00006
1.00006
0.999891
0.999244
0.997608
0.994573
0.990611
0.988181
0.992468
1.011
1.05164
1.11812
1.20242
1.28187
1.33452
1.35822
1.36407
1.35823
1.33455
1.28194
1.2025
1.11803
1.05089
1.0086
0.98704
0.9788
1
1
1
1
1
1
1
1
1
1
1
1
1.00001
1.00003
1.00006
1.00007
0.999958
0.999451
0.998077
0.995361
0.991452
0.98811
0.989441
1.00166
1.03149
1.08296
1.15232
1.22487
1.2819
1.31433
1.32424
1.31434
1.28194
1.22494
1.15241
1.08295
1.03097
0.999765
0.984839
0.979611
1
1
1
1
1
1
1
1
1
1
1
1
1.00001
1.00002
1.00005
1.00008
1.00002
0.999678
0.998633
0.996384
0.992778
0.988823
0.987402
0.993223
1.01161
1.04621
1.09587
1.15235
1.20247
1.23534
1.24651
1.23535
1.2025
1.15241
1.09597
1.04626
1.01132
0.991898
0.983841
0.981669
1
1
1
1
1
1
1
1
1
1
1
1
1.00001
1.00002
1.00004
1.00008
1.00007
0.999881
0.999184
0.997507
0.994496
0.990507
0.987257
0.987964
0.996538
1.01594
1.04617
1.0829
1.11801
1.1429
1.15182
1.14291
1.11803
1.08295
1.04626
1.01603
0.996444
0.987183
0.984812
0.985061
1
1
1
1
1
1
1
1
1
1
1
1
1
1.00001
1.00003
1.00007
1.00009
1.00003
0.999643
0.998556
0.996343
0.992914
0.989041
0.986629
0.988311
0.996342
1.01125
1.03094
1.05088
1.06568
1.07112
1.06568
1.05089
1.03097
1.01132
0.996444
0.988351
0.986291
0.987625
0.98929
1
1
1
1
1
1
1
1
1
1
1
1
1
1.00001
1.00002
1.00005
1.0001
1.00011
0.999963
0.999386
0.997992
0.995474
0.991962
0.988344
0.986179
0.987087
0.991846
0.999743
1.00859
1.01552
1.01814
1.01552
1.0086
0.999765
0.991898
0.987183
0.986291
0.988312
0.991358
0.993478
1
1
1
1
1
1
1
1
1
1
1
1
1
1
1.00001
1.00004
1.00008
1.00014
1.00015
0.999928
0.999187
0.997559
0.994829
0.991213
0.987484
0.984729
0.983804
0.984826
0.987036
0.989155
0.990016
0.989155
0.98704
0.984839
0.983841
0.984812
0.987625
0.991358
0.994756
0.996747
1
1
1
1
1
1
1
1
1
1
1
1
1
1
1.00001
1.00003
1.00008
1.00015
1.00022
1.00019
0.999801
0.998711
0.996564
0.993258
0.989143
0.984987
0.98164
0.979602
0.978798
0.978711
0.978763
0.978711
0.9788
0.979611
0.981669
0.985061
0.98929
0.993478
0.996747
0.99851
SCALARS C2 double 1
LOOKUP_TABLE default
2.50273
2.50193
2.49957
2.49458
2.48623
2.47489
2.46213
2.45014
2.44079
2.43504
2.43312
2.43504
2.44079
2.45015
2.46213
2.47489
2.48621
2.49446
2.49926
2.50126
2.50157
2.50117
2.50067
2.50031
2.50011
2.50003
2.5
2.5
2.5
2.5
2.5
2.5
2.5
2.5
2.5
2.5
2.5
2.5
2.5
2.5
2.50193
2.49991
2.49509
2.48658
2.4744
2.46018
2.4467
2.43641
2.43015
2.42723
2.42643
2.42723
2.43015
2.43641
2.4467
2.46017
2.47434
2.4864
2.49468
2.49915
2.50085
2.50107
2.50076
2.5004
2.50017
2.50006
2.50001
2.5
2.5
2.5
2.5
2.5
2.5
2.5
2.5
2.5
2.5
2.5
2.5
2.5
2.49957
2.49509
2.48554
2.47099
2.45365
2.43805
2.4287
2.42709
2.43085
2.43565
2.43773
2.43565
2.43085
2.42709
2.4287
2.43802
2.45354
2.47071
2.48498
2.49426
2.49895
2.50062
2.50082
2.50056
2.50028
2.50011
2.50003
2.50001
2.5
2.5
2.5
2.5
2.5
2.5
2.5
2.5
2.5
2.5
2.5
2.5
2.49458
2.48658
2.47099
2.45061
2.43217
2.42406
2.43072
2.44929
2.47174
2.48934
2.49592
2.48934
2.47174
2.44929
2.4307
2.424
2.43198
2.4502
2.47031
2.48594
2.4952
2.49938
2.50064
2.50068
2.50041
2.50019
2.50007
2.50002
2.5
2.5
2.5
2.5
2.5
2.5
2.5
2.5
2.5
2.5
2.5
2.5
2.48623
2.4744
2.45365
2.43217
2.42285
2.436
2.4714
2.51874
2.56426
2.59631
2.60777
2.59631
2.56426
2.51874
2.47137
2.4359
2.42259
2.43166
2.45301
2.47443
2.48927
2.49702
2.50001
2.50067
2.50052
2.50027
2.50011
2.50003
2.50001
2.5
2.5
2.5
2.5
2.5
2.5
2.5
2.5
2.5
2.5
2.5
2.47489
2.46018
2.43805
2.42406
2.436
2.48111
2.55076
2.62738
2.69386
2.7381
2.75353
2.7381
2.69386
2.62737
2.55072
2.48098
2.43569
2.42353
2.43768
2.46148
2.48155
2.49349
2.49881
2.50044
2.50058
2.50035
2.50016
2.50005
2.50001
2.5
2.5
2.5
2.5
2.5
2.5
2.5
2.5
2.5
2.5
2.5
2.46213
2.4467
2.4287
2.43072
2.4714
2.55076
2.65156
2.75165
2.83331
2.88573
2.90371
2.88574
2.83331
2.75164
2.65151
2.5506
2.47105
2.43026
2.42884
2.44977
2.4732
2.48918
2.49712
2.49999
2.50056
2.50041
2.5002
2.50008
2.50002
2.5
2.5
2.5
2.5
2.5
2.5
2.5
2.5
2.5
2.5
2.5
2.45014
2.43641
2.42709
2.44929
2.51874
2.62738
2.75165
2.86751
2.95832
3.0152
3.03447
3.0152
2.95832
2.8675
2.7516
2.62722
2.5184
2.44894
2.42784
2.44141
2.46567
2.4848
2.49522
2.49939
2.50046
2.50045
2.50024
2.5001
2.50003
2.50001
2.5
2.5
2.5
2.5
2.5
2.5
2.5
2.5
2.5
2.5
2.44079
2.43015
2.43085
2.47174
2.56426
2.69386
2.83331
2.95832
3.05377
3.11258
3.13234
3.11258
3.05377
2.9583
2.83325
2.69369
2.56391
2.47152
2.43219
2.43688
2.46002
2.48111
2.49349
2.49878
2.50033
2.50046
2.50027
2.50011
2.50004
2.50001
2.5
2.5
2.5
2.5
2.5
2.5
2.5
2.5
2.5
2.5
2.43504
2.42723
2.43565
2.48934
2.59631
2.7381
2.88573
3.0152
3.11258
3.17199
3.19185
3.17199
3.11258
3.01519
2.88568
2.73793
2.59597
2.48921
2.4374
2.43512
2.45666
2.47868
2.49228
2.49834
2.50022
2.50046
2.50029
2.50012
2.50004
2.50001
2.5
2.5
2.5
2.5
2.5
2.5
2.5
2.5
2.5
2.5
2.43312
2.42643
2.43773
2.49592
2.60777
2.75353
2.90371
3.03447
3.13234
3.19185
3.21171
3.19185
3.13234
3.03446
2.90365
2.75335
2.60744
2.49583
2.43963
2.43474
2.45557
2.47784
2.49185
2.49818
2.50018
2.50045
2.50029
2.50013
2.50004
2.50001
2.5
2.5
2.5
2.5
2.5
2.5
2.5
2.5
2.5
2.5
2.43504
2.42723
2.43565
2.48934
2.59631
2.7381
2.88574
3.0152
3.11258
3.17199
3.19185
3.17199
3.11258
3.01519
2.88568
2.73793
2.59597
2.48921
2.4374
2.43512
2.45666
2.47868
2.49228
2.49834
2.50022
2.50046
2.50028
2.50012
2.50004
2.50001
2.5
2.5
2.5
2.5
2.5
2.5
2.5
2.5
2.5
2.5
2.44079
2.43015
2.43085
2.47174
2.56426
2.69386
2.83331
2.95832
3.05377
3.11258
3.13234
3.11258
3.05376
2.9583
2.83325
2.69369
2.56391
2.47152
2.43219
2.43688
2.46002
2.48111
2.49349
2.49878
2.50033
2.50045
2.50026
2.5001
2.50002
2.49999
2.49999
2.49999
2.49999
2.49999
2.49999
2.5
2.5
2.5
2.5
2.5
2.45015
2.43641
2.42709
2.44929
2.51874
2.62737
2.75164
2.8675
2.9583
3.01519
3.03446
3.01519
2.9583
2.86748
2.75158
2.62721
2.51839
2.44894
2.42784
2.44142
2.46567
2.4848
2.49522
2.49938
2.50045
2.50043
2.50022
2.50006
2.49999
2.49996
2.49995
2.49995
2.49996
2.49997
2.49997
2.49998
2.49999
2.5
2.5
2.5
2.46213
2.4467
2.4287
2.4307
2.47137
2.55072
2.65151
2.7516
2.83325
2.88568
2.90365
2.88568
2.83325
2.75158
2.65146
2.55056
2.47102
2.43024
2.42883
2.44977
2.4732
2.48918
2.49712
2.49997
2.50052
2.50036
2.50013
2.49998
2.49991
2.49989
2.49988
2.49988
2.49989
2.49991
2.49992
2.49994
2.49996
2.49998
2.49999
2.5
2.47489
2.46017
2.43802
2.424
2.4359
2.48098
2.5506
2.62722
2.69369
2.73793
2.75335
2.73793
2.69369
2.62721
2.55056
2.48085
2.43559
2.42347
2.43765
2.46147
2.48154
2.49348
2.49878
2.50037
2.50048
2.50021
2.49998
2.49985
2.4998
2.49978
2.49978
2.49978
2.49979
2.4998
2.49982
2.49986
2.4999
2.49993
2.49996
2.49998
2.48621
2.47434
2.45354
2.43198
2.42259
2.43569
2.47105
2.5184
2.56391
2.59597
2.60744
2.59597
2.56391
2.51839
2.47102
2.43559
2.42233
2.43147
2.45289
2.47437
2.48922
2.49696
2.49991
2.5005
2.5003
2.5
2.49982
2.49975
2.49975
2.49976
2.49977
2.49976
2.49974
2.49972
2.49971
2.49973
2.49978
2.49983
2.49989
2.49992
2.49446
2.4864
2.47071
2.4502
2.43166
2.42353
2.43026
2.44894
2.47152
2.48921
2.49583
2.48921
2.47152
2.44894
2.43024
2.42347
2.43147
2.44978
2.47002
2.48574
2.49505
2.49921
2.50041
2.50037
2.50006
2.49986
2.49984
2.49996
2.50013
2.50027
2.50032
2.50027
2.50013
2.49995
2.49978
2.49967
2.49964
2.49968
2.49974
2.49979
2.49926
2.49468
2.48498
2.47031
2.45301
2.43768
2.42884
2.42784
2.43219
2.4374
2.43963
2.4374
2.43219
2.42784
2.42883
2.43765
2.45289
2.47002
2.48439
2.49381
2.49857
2.50024
2.50041
2.50014
2.50001
2.50018
2.50064
2.50126
2.50186
2.5023
2.50246
2.5023
2.50187
2.50125
2.5006
2.50006
2.49972
2.49956
2.49954
2.49956
2.50126
2.49915
2.49426
2.48594
2.47443
2.46148
2.44977
2.44141
2.43688
2.43512
2.43474
2.43512
2.43688
2.44142
2.44977
2.46147
2.47437
2.48574
2.49381
2.49831
2.50012
2.50042
2.50024
2.50024
2.50074
2.50183
2.50334
2.50499
2.50645
2.50744
2.50779
2.50744
2.50645
2.50499
2.50332
2.50176
2.50055
2.49979
2.49941
2.49927
2.50157
2.50085
2.49895
2.4952
2.48927
2.48155
2.4732
2.46567
2.46002
2.45666
2.45557
2.45666
2.46002
2.46567
2.4732
2.48154
2.48922
2.49505
2.49857
2.50012
2.50042
2.5003
2.50045
2.50137
2.50328
2.50611
2.50943
2.51269
2.51535
2.51706
2.51764
2.51706
2.51535
2.51269
2.50942
2.50606
2.50313
2.501
2.49972
2.49915
2.50117
2.50107
2.50062
2.49938
2.49702
2.49349
2.48918
2.4848
2.48111
2.47868
2.47784
2.47868
2.48111
2.4848
2.48918
2.49348
2.49696
2.49921
2.50024
2.50042
2.5003
2.50054
2.50178
2.50451
2.5088
2.51421
2.51984
2.52476
2.52833
2.5304
2.53106
2.5304
2.52833
2.52476
2.51983
2.51415
2.50863
2.50414
2.50113
2.49968
2.50067
2.50076
2.50082
2.50064
2.50001
2.49881
2.49712
2.49522
2.49349
2.49228
2.49185
2.49228
2.49349
2.49522
2.49712
2.49878
2.49991
2.50041
2.50041
2.50024
2.50045
2.50178
2.50499
2.51048
2.5179
2.52603
2.53326
2.53833
2.54097
2.54189
2.54204
2.54189
2.54097
2.53832
2.53323
2.52593
2.51767
2.51007
2.50447
2.50157
2.50031
2.5004
2.50056
2.50068
2.50067
2.50044
2.49999
2.49939
2.49878
2.49834
2.49818
2.49834
2.49878
2.49938
2.49997
2.50037
2.5005
2.50037
2.50014
2.50024
2.50137
2.50451
2.51048
2.51928
2.52958
2.53889
2.54462
2.54556
2.54275
2.53905
2.5374
2.53905
2.54275
2.54554
2.54455
2.53873
2.52928
2.51887
2.5103
2.50556
2.50011
2.50017
2.50028
2.50041
2.50052
2.50058
2.50056
2.50046
2.50033
2.50022
2.50018
2.50022
2.50033
2.50045
2.50052
2.50048
2.5003
2.50006
2.50001
2.50074
2.50328
2.5088
2.5179
2.52958
2.54081
2.54719
2.54501
2.53376
2.51741
2.50309
2.49742
2.50308
2.5174
2.53372
2.5449
2.54696
2.54046
2.5293
2.51844
2.51194
2.50003
2.50006
2.50011
2.50019
2.50027
2.50035
2.50041
2.50045
2.50046
2.50046
2.50045
2.50046
2.50045
2.50043
2.50036
2.50021
2.5
2.49986
2.50018
2.50183
2.50611
2.51421
2.52603
2.53889
2.54719
2.54393
2.52414
2.48915
2.44837
2.41588
2.40355
2.41587
2.44834
2.48909
2.52399
2.54364
2.54684
2.53892
2.52774
2.5202
2.5
2.50001
2.50003
2.50007
2.50011
2.50016
2.5002
2.50024
2.50027
2.50029
2.50029
2.50028
2.50026
2.50022
2.50013
2.49998
2.49982
2.49984
2.50064
2.50334
2.50943
2.51984
2.53326
2.54462
2.54501
2.52414
2.47602
2.40596
2.33236
2.27786
2.25803
2.27785
2.33233
2.40587
2.47582
2.52382
2.54474
2.54516
2.53649
2.52914
2.5
2.5
2.50001
2.50002
2.50003
2.50005
2.50008
2.5001
2.50011
2.50012
2.50013
2.50012
2.5001
2.50006
2.49998
2.49985
2.49975
2.49996
2.50126
2.50499
2.51269
2.52476
2.53833
2.54556
2.53376
2.48915
2.40596
2.29738
2.1939
2.12374
2.09957
2.12373
2.19386
2.29727
2.40572
2.48882
2.53365
2.54675
2.54321
2.53731
2.5
2.5
2.5
2.5
2.50001
2.50001
2.50002
2.50003
2.50004
2.50004
2.50004
2.50004
2.50002
2.49999
2.49991
2.4998
2.49975
2.50013
2.50186
2.50645
2.51535
2.52833
2.54097
2.54275
2.51741
2.44837
2.33236
2.1939
2.07463
2.00119
1.97736
2.00118
2.07458
2.19377
2.3321
2.44805
2.51751
2.54458
2.54734
2.54355
2.5
2.5
2.5
2.5
2.5
2.5
2.5
2.50001
2.50001
2.50001
2.50001
2.50001
2.49999
2.49996
2.49989
2.49978
2.49976
2.50027
2.5023
2.50744
2.51706
2.5304
2.54189
2.53905
2.50309
2.41588
2.27786
2.12374
2.00119
1.93131
1.90971
1.9313
2.00114
2.1236
2.27759
2.41559
2.50334
2.54135
2.54928
2.54735
2.5
2.5
2.5
2.5
2.5
2.5
2.5
2.5
2.5
2.5
2.5
2.5
2.49999
2.49995
2.49988
2.49978
2.49977
2.50032
2.50246
2.50779
2.51764
2.53106
2.54204
2.5374
2.49742
2.40355
2.25803
2.09957
1.97736
1.90971
1.8892
1.9097
1.97731
2.09943
2.25776
2.40328
2.49773
2.53987
2.5498
2.54861
2.5
2.5
2.5
2.5
2.5
2.5
2.5
2.5
2.5
2.5
2.5
2.5
2.49999
2.49995
2.49988
2.49978
2.49976
2.50027
2.5023
2.50744
2.51706
2.5304
2.54189
2.53905
2.50308
2.41587
2.27785
2.12373
2.00118
1.9313
1.9097
1.93128
2.00112
2.12359
2.27759
2.41559
2.50333
2.54135
2.54928
2.54735
2.5
2.5
2.5
2.5
2.5
2.5
2.5
2.5
2.5
2.5
2.5
2.5
2.49999
2.49996
2.49989
2.49979
2.49974
2.50013
2.50187
2.50645
2.51535
2.52833
2.54097
2.54275
2.5174
2.44834
2.33233
2.19386
2.07458
2.00114
1.97731
2.00112
2.07453
2.19373
2.33207
2.44803
2.51749
2.54458
2.54734
2.54356
2.5
2.5
2.5
2.5
2.5
2.5
2.5
2.5
2.5
2.5
2.5
2.5
2.49999
2.49997
2.49991
2.4998
2.49972
2.49995
2.50125
2.50499
2.51269
2.52476
2.53832
2.54554
2.53372
2.48909
2.40587
2.29727
2.19377
2.1236
2.09943
2.12359
2.19373
2.29715
2.40563
2.48875
2.53361
2.54673
2.5432
2.5373
2.5
2.5
2.5
2.5
2.5
2.5
2.5
2.5
2.5
2.5
2.5
2.5
2.49999
2.49997
2.49992
2.49982
2.49971
2.49978
2.5006
2.50332
2.50942
2.51983
2.53323
2.54455
2.5449
2.52399
2.47582
2.40572
2.3321
2.27759
2.25776
2.27759
2.33207
2.40563
2.47562
2.52366
2.54464
2.5451
2.53645
2.52912
2.5
2.5
2.5
2.5
2.5
2.5
2.5
2.5
2.5
2.5
2.5
2.5
2.5
2.49998
2.49994
2.49986
2.49973
2.49967
2.50006
2.50176
2.50606
2.51415
2.52593
2.53873
2.54696
2.54364
2.52382
2.48882
2.44805
2.41559
2.40328
2.41559
2.44803
2.48875
2.52366
2.54335
2.54661
2.53876
2.52763
2.52012
2.5
2.5
2.5
2.5
2.5
2.5
2.5
2.5
2.5
2.5
2.5
2.5
2.5
2.49999
2.49996
2.4999
2.49978
2.49964
2.49972
2.50055
2.50313
2.50863
2.51767
2.52928
2.54046
2.54684
2.54474
2.53365
2.51751
2.50334
2.49773
2.50333
2.51749
2.53361
2.54464
2.54661
2.54009
2.52898
2.51819
2.51172
2.5
2.5
2.5
2.5
2.5
2.5
2.5
2.5
2.5
2.5
2.5
2.5
2.5
2.5
2.49998
2.49993
2.49983
2.49968
2.49956
2.49979
2.501
2.50414
2.51007
2.51887
2.5293
2.53892
2.54516
2.54675
2.54458
2.54135
2.53987
2.54135
2.54458
2.54673
2.5451
2.53876
2.52898
2.51843
2.50985
2.50512
2.5
2.5
2.5
2.5
2.5
2.5
2.5
2.5
2.5
2.5
2.5
2.5
2.5
2.5
2.49999
2.49996
2.49989
2.49974
2.49954
2.49941
2.49972
2.50113
2.50447
2.5103
2.51844
2.52774
2.53649
2.54321
2.54734
2.54928
2.5498
2.54928
2.54734
2.5432
2.53645
2.52763
2.51819
2.50985
2.50388
2.50085
2.5
2.5
2.5
2.5
2.5
2.5
2.5
2.5
2.5
2.5
2.5
2.5
2.5
2.5
2.5
2.49998
2.49992
2.49979
2.49956
2.49927
2.49915
2.49968
2.50157
2.50556
2.51194
2.5202
2.52914
2.53731
2.54355
2.54735
2.54861
2.54735
2.54356
2.5373
2.52912
2.52012
2.51172
2.50512
2.50085
2.49883
