# vtk DataFile Version 3.0
Brusselator Concentration Output
ASCII
DATASET STRUCTURED_POINTS
DIMENSIONS 40 40 1
ORIGIN 0.0 0.0 0.0
SPACING 0.005 0.005 1.0
POINT_DATA 1600
SCALARS C1 double 1
LOOKUP_TABLE default
1
1
1
1
1
1
1
1
1
1
1
1
1
1
1
1
1
1
1
1
1
1
1
1
1
1
1
1
1
1
1
1
1
1
1
1
1
1
1
1
1
1
1
1
1
1
1
1.00001
1.00001
1.00002
1.00002
1.00002
1.00001
1.00001
1
1
1
1
1
1
1
1
1
1
1
1
1
1
1
1
1
1
1
1
1
1
1
1
1
1
1
1
1
1
1
1
1.00001
1.00003
1.00006
1.00008
1.00009
1.00008
1.00006
1.00003
1.00001
1
1
1
1
1
1
1
1
1
1
1
1
1
1
1
1
1
1
1
1
1
1
1
1
1
1
1
1
1
1.00001
1.00002
1.00005
1.00012
1.00022
1.0003
1.00033
1.0003
1.00022
1.00012
1.00005
1.00002
1.00001
1
1
1
1
1
1
1
1
1
1
1
1
1
1
1
1
1
1
1
1
1
1
1
1
1
1
1.00001
1.00002
1.00007
1.0002
1.00042
1.00068
1.00082
1.00082
1.00082
1.00068
1.00042
1.0002
1.00007
1.00002
1.00001
1
1
1
1
1
1
1
1
1
1
1
1
1
1
1
1
1
1
1
1
1
1
1
1
1
1.00002
1.00007
1.00023
1.00057
1.00109
1.00142
1.00118
1.00083
1.00118
1.00142
1.00109
1.00057
1.00023
1.00007
1.00002
1
1
1
1
1
1
1
1
1
1
1
1
1
1
1
1
1
1
1
1
1
1
1
1
1.00001
1.00005
1.0002
1.00057
1.00127
1.00183
1.00089
0.997893
0.995908
0.997893
1.00089
1.00183
1.00127
1.00057
1.0002
1.00005
1.00001
1
1
1
1
1
1
1
1
1
1
1
1
1
1
1
1
1
1
1
1
1
1
1.00001
1.00003
1.00012
1.00042
1.00109
1.00183
1.00058
0.993599
0.981581
0.975238
0.981581
0.993599
1.00058
1.00183
1.00109
1.00042
1.00012
1.00003
1.00001
1
1
1
1
1
1
1
1
1
1
1
1
1
1
1
1
1
1
1
1
1
1.00001
1.00006
1.00022
1.00068
1.00142
1.00089
0.993599
0.972615
0.943868
0.930961
0.943868
0.972615
0.993599
1.00089
1.00142
1.00068
1.00022
1.00006
1.00001
1
1
1
1
1
1
1
1
1
1
1
1
1
1
1
1
1
1
1
1
1
1.00002
1.00008
1.0003
1.00082
1.00118
0.997893
0.981581
0.943868
0.898751
0.88075
0.898751
0.943868
0.981581
0.997893
1.00118
1.00082
1.0003
1.00008
1.00002
1
1
1
1
1
1
1
1
1
1
1
1
1
1
1
1
1
1
1
1
1
1.00002
1.00009
1.00033
1.00082
1.00083
0.995908
0.975238
0.930961
0.88075
0.861257
0.88075
0.930961
0.975238
0.995908
1.00083
1.00082
1.00033
1.00009
1.00002
1
1
1
1
1
1
1
1
1
1
1
1
1
1
1
1
1
1
1
1
1
1.00002
1.00008
1.0003
1.00082
1.00118
0.997893
0.981581
0.943868
0.898751
0.88075
0.898751
0.943868
0.981581
0.997893
1.00118
1.00082
1.0003
1.00008
1.00002
1
1
1
1
1
1
1
1
1
1
1
1
1
1
1
1
1
1
1
1
1
1.00001
1.00006
1.00022
1.00068
1.00142
1.00089
0.993599
0.972615
0.943868
0.930961
0.943868
0.972615
0.993599
1.00089
1.00142
1.00068
1.00022
1.00006
1.00001
1
1
1
1
1
1
1
1
1
1
1
1
1
1
1
1
1
1
1
1
1
1.00001
1.00003
1.00012
1.00042
1.00109
1.00183
1.00058
0.993599
0.981581
0.975238
0.981581
0.993599
1.00058
1.00183
1.00109
1.00042
1.00012
1.00003
1.00001
1
1
1
1
1
1
1
1
1
1
1
1
1
1
1
1
1
1
1
1
1
1
1.00001
1.00005
1.0002
1.00057
1.00127
1.00183
1.00089
0.997893
0.995908
0.997893
1.00089
1.00183
1.00127
1.00057
1.0002
1.00005
1.00001
1
1
1
1
1
1
1
1
1
1
1
1
1
1
1
1
1
1
1
1
1
1
1
1
1.00002
1.00007
1.00023
1.00057
1.00109
1.00142
1.00118
1.00083
1.00118
1.00142
1.00109
1.00057
1.00023
1.00007
1.00002
1
1
1
1
1
1
1
1
1
1
1
1
1
1
1
1
1
1
1
1
1
1
1
1
1
1.00001
1.00002
1.00007
1.0002
1.00042
1.00068
1.00082
1.00082
1.00082
1.00068
1.00042
1.0002
1.00007
1.00002
1.00001
1
1
1
1
1
1
1
1
1
1
1
1
1
1
1
1
1
1
1
1
1
1
1
1
1
1
1.00001
1.00002
1.00005
1.00012
1.00022
1.0003
1.00033
1.0003
1.00022
1.00012
1.00005
1.00002
1.00001
1
1
1
1
1
1
1
1
1
1
1
1
1
1
1
1
1
1
1
1
1
1
1
1
1
1
1
1
1
1.00001
1.00003
1.00006
1.00008
1.00009
1.00008
1.00006
1.00003
1.00001
1
1
1
1
1
1
1
1
1
1
1
1
1
1
1
1
1
1
1
1
1
1
1
1
1
1
1
1
1
1
1
1
1.00001
1.00001
1.00002
1.00002
1.00002
1.00001
1.00001
1
1
1
1
1
1
1
1
1
1
1
1
1
1
1
1
1
1
1
1
1
1
1
1
1
1
1
1
1
1
1
1
1
1
1
1
1
1
1
1
1
1
1
1
1
1
1
1
1
1
1
1
1
1
0.999999
0.999999
0.999999
0.999999
0.999999
1
1
1
1
1
1
1
1
1
1
1
1
1
1
1
1
1
1
1
1
1
1
1
1
1
1
1
1
1
1
1
1
1
0.999999
0.999998
0.999996
0.999994
0.999993
0.999994
0.999996
0.999998
0.999999
1
1
1
1
1
1
1
1
1
1
1
1
1
1
1
1
1
1
1
1
1
1
1
1
1
1
1
1
1
1
0.999999
0.999996
0.99999
0.99998
0.999971
0.999967
0.999971
0.99998
0.99999
0.999996
0.999999
1
1
1
1
1
1
1
1
1
1
1
1
1
1
1
1
1
1
1
1
1
1
1
1
1
1
1
1
0.999998
0.999993
0.999981
0.999957
0.999921
0.999889
0.999878
0.999889
0.999921
0.999957
0.999981
0.999993
0.999998
1
1
1
1
1
1
1
1
1
1
1
1
1
1
1
1
1
1
1
1
1
1
1
1
1
1
0.999998
0.999992
0.999975
0.999931
0.999849
0.999744
0.999668
0.999652
0.999668
0.999744
0.999849
0.999931
0.999975
0.999992
0.999998
1
1
1
1
1
1
1
1
1
1
1
1
1
1
1
1
1
1
1
1
1
1
1
1
0.999999
0.999993
0.999975
0.99992
0.999793
0.999582
0.999378
0.999339
0.999405
0.999339
0.999378
0.999582
0.999793
0.99992
0.999975
0.999993
0.999999
1
1
1
1
1
1
1
1
1
1
1
1
1
1
1
1
1
1
1
1
1
1
0.999999
0.999996
0.999981
0.999931
0.999793
0.999508
0.999157
0.999135
0.999802
1.00041
0.999802
0.999135
0.999157
0.999508
0.999793
0.999931
0.999981
0.999996
0.999999
1
1
1
1
1
1
1
1
1
1
1
1
1
1
1
1
1
1
1
1
1
0.999998
0.99999
0.999957
0.999849
0.999582
0.999157
0.999082
1.00067
1.00448
1.00711
1.00448
1.00067
0.999082
0.999157
0.999582
0.999849
0.999957
0.99999
0.999997
1
1
1
1
1
1
1
1
1
1
1
1
1
1
1
1
1
1
1
1
0.999999
0.999996
0.99998
0.999921
0.999744
0.999378
0.999135
1.00067
1.00725
1.01932
1.02677
1.01932
1.00725
1.00067
0.999135
0.999378
0.999744
0.999921
0.99998
0.999995
1
1
1
1
1
1
1
1
1
1
1
1
1
1
1
1
1
1
1
1
0.999999
0.999994
0.999971
0.999889
0.999668
0.999339
0.999802
1.00448
1.01932
1.04377
1.05766
1.04377
1.01932
1.00448
0.999802
0.999339
0.999668
0.999889
0.999971
0.999992
1
1
1
1
1
1
1
1
1
1
1
1
1
1
1
1
1
1
1
1
0.999999
0.999993
0.999967
0.999878
0.999652
0.999405
1.00041
1.00711
1.02677
1.05766
1.07416
1.05766
1.02677
1.00711
1.00041
0.999405
0.999652
0.999878
0.999967
0.999991
1
1
1
1
1
1
1
1
1
1
1
1
1
1
1
1
1
1
1
1
0.999999
0.999994
0.999971
0.999889
0.999668
0.999339
0.999802
1.00448
1.01932
1.04377
1.05766
1.04377
1.01932
1.00448
0.999802
0.999339
0.999668
0.999889
0.999971
0.999992
1
1
1
1
1
1
1
1
1
1
1
1
1
1
1
1
1
1
1
1
0.999999
0.999996
0.99998
0.999921
0.999744
0.999378
0.999135
1.00067
1.00725
1.01932
1.02677
1.01932
1.00725
1.00067
0.999135
0.999378
0.999744
0.999921
0.99998
0.999995
1
1
1
1
1
1
1
1
1
1
1
1
1
1
1
1
1
1
1
1
1
0.999998
0.99999
0.999957
0.999849
0.999582
0.999157
0.999082
1.00067
1.00448
1.00711
1.00448
1.00067
0.999082
0.999157
0.999582
0.999849
0.999957
0.99999
0.999997
1
1
1
1
1
1
1
1
1
1
1
1
1
1
1
1
1
1
1
1
1
0.999999
0.999996
0.999981
0.999931
0.999793
0.999508
0.999157
0.999135
0.999802
1.00041
0.999802
0.999135
0.999157
0.999508
0.999793
0.999931
0.999981
0.999996
0.999999
1
1
1
1
1
1
1
1
1
1
1
1
1
1
1
1
1
1
1
1
1
1
0.999999
0.999993
0.999975
0.99992
0.999793
0.999582
0.999378
0.999339
0.999405
0.999339
0.999378
0.999582
0.999793
0.99992
0.999975
0.999993
0.999999
1
1
1
1
1
1
1
1
1
1
1
1
1
1
1
1
1
1
1
1
1
1
1
1
0.999998
0.999992
0.999975
0.999931
0.999849
0.999744
0.999668
0.999652
0.999668
0.999744
0.999849
0.999931
0.999975
0.999992
0.999998
1
1
1
1
1
1
1
1
1
1
1
1
1
1
1
1
1
1
1
1
1
1
1
1
1
1
0.999998
0.999993
0.999981
0.999957
0.999921
0.999889
0.999878
0.999889
0.999921
0.999957
0.999981
0.999993
0.999998
1
1
1
1
1
1
1
1
1
1
1
1
1
1
1
1
1
1
1
1
1
1
1
1
1
1
1
1
0.999999
0.999996
0.99999
0.99998
0.999971
0.999967
0.999971
0.99998
0.99999
0.999996
0.999999
1
1
1
1
1
1
1
1
1
1
1
1
1
1
1
1
1
1
1
1
1
1
1
1
1
1
1
1
1
1
0.999999
0.999997
0.999995
0.999992
0.999991
0.999992
0.999995
0.999997
0.999999
1
1
1
1
1
SCALARS C2 double 1
LOOKUP_TABLE default
2.5
2.5
2.5
2.5
2.5
2.5
2.5
2.5
2.5
2.5
2.5
2.5
2.5
2.5
2.5
2.5
2.5
2.5
2.5
2.5
2.5
2.5
2.5
2.5
2.5
2.5
2.5
2.5
2.5
2.5
2.5
2.5
2.5
2.5
2.5
2.5
2.5
2.5
2.5
2.5
2.5
2.5
2.5
2.5
2.5
2.5
2.5
2.5
2.49999
2.49998
2.49998
2.49998
2.49999
2.5
2.5
2.5
2.5
2.5
2.5
2.5
2.5
2.5
2.5
2.5
2.5
2.5
2.5
2.5
2.5
2.5
2.5
2.5
2.5
2.5
2.5
2.5
2.5
2.5
2.5
2.5
2.5
2.5
2.5
2.5
2.5
2.5
2.49999
2.49997
2.49995
2.49992
2.4999
2.49992
2.49995
2.49997
2.49999
2.5
2.5
2.5
2.5
2.5
2.5
2.5
2.5
2.5
2.5
2.5
2.5
2.5
2.5
2.5
2.5
2.5
2.5
2.5
2.5
2.5
2.5
2.5
2.5
2.5
2.5
2.5
2.5
2.5
2.5
2.49998
2.49995
2.49988
2.49976
2.49963
2.49958
2.49963
2.49976
2.49988
2.49995
2.49998
2.5
2.5
2.5
2.5
2.5
2.5
2.5
2.5
2.5
2.5
2.5
2.5
2.5
2.5
2.5
2.5
2.5
2.5
2.5
2.5
2.5
2.5
2.5
2.5
2.5
2.5
2.5
2.5
2.49998
2.49994
2.4998
2.49952
2.49908
2.49867
2.49854
2.49867
2.49908
2.49952
2.4998
2.49994
2.49998
2.5
2.5
2.5
2.5
2.5
2.5
2.5
2.5
2.5
2.5
2.5
2.5
2.5
2.5
2.5
2.5
2.5
2.5
2.5
2.5
2.5
2.5
2.5
2.5
2.5
2.5
2.49998
2.49994
2.49977
2.49933
2.49843
2.49722
2.49638
2.49629
2.49638
2.49722
2.49843
2.49933
2.49977
2.49994
2.49998
2.5
2.5
2.5
2.5
2.5
2.5
2.5
2.5
2.5
2.5
2.5
2.5
2.5
2.5
2.5
2.5
2.5
2.5
2.5
2.5
2.5
2.5
2.5
2.5
2.49999
2.49995
2.4998
2.49933
2.49813
2.49601
2.49398
2.49402
2.49528
2.49402
2.49398
2.49601
2.49813
2.49933
2.4998
2.49995
2.49999
2.5
2.5
2.5
2.5
2.5
2.5
2.5
2.5
2.5
2.5
2.5
2.5
2.5
2.5
2.5
2.5
2.5
2.5
2.5
2.5
2.5
2.5
2.5
2.49997
2.49988
2.49952
2.49843
2.49601
2.4929
2.49324
2.50132
2.50897
2.50132
2.49324
2.4929
2.49601
2.49843
2.49952
2.49988
2.49997
2.5
2.5
2.5
2.5
2.5
2.5
2.5
2.5
2.5
2.5
2.5
2.5
2.5
2.5
2.5
2.5
2.5
2.5
2.5
2.5
2.5
2.5
2.49999
2.49995
2.49976
2.49908
2.49722
2.49398
2.49324
2.50637
2.53934
2.56385
2.53934
2.50637
2.49324
2.49398
2.49722
2.49908
2.49976
2.49995
2.49999
2.5
2.5
2.5
2.5
2.5
2.5
2.5
2.5
2.5
2.5
2.5
2.5
2.5
2.5
2.5
2.5
2.5
2.5
2.5
2.5
2.5
2.49998
2.49992
2.49963
2.49867
2.49638
2.49402
2.50132
2.53934
2.61318
2.66458
2.61318
2.53934
2.50132
2.49402
2.49638
2.49867
2.49963
2.49992
2.49998
2.5
2.5
2.5
2.5
2.5
2.5
2.5
2.5
2.5
2.5
2.5
2.5
2.5
2.5
2.5
2.5
2.5
2.5
2.5
2.5
2.5
2.49998
2.4999
2.49958
2.49854
2.49629
2.49528
2.50897
2.56385
2.66458
2.73362
2.66458
2.56385
2.50897
2.49528
2.49629
2.49854
2.49958
2.4999
2.49998
2.5
2.5
2.5
2.5
2.5
2.5
2.5
2.5
2.5
2.5
2.5
2.5
2.5
2.5
2.5
2.5
2.5
2.5
2.5
2.5
2.5
2.49998
2.49992
2.49963
2.49867
2.49638
2.49402
2.50132
2.53934
2.61318
2.66458
2.61318
2.53934
2.50132
2.49402
2.49638
2.49867
2.49963
2.49992
2.49998
2.5
2.5
2.5
2.5
2.5
2.5
2.5
2.5
2.5
2.5
2.5
2.5
2.5
2.5
2.5
2.5
2.5
2.5
2.5
2.5
2.5
2.49999
2.49995
2.49976
2.49908
2.49722
2.49398
2.49324
2.50637
2.53934
2.56385
2.53934
2.50637
2.49324
2.49398
2.49722
2.49908
2.49976
2.49995
2.49999
2.5
2.5
2.5
2.5
2.5
2.5
2.5
2.5
2.5
2.5
2.5
2.5
2.5
2.5
2.5
2.5
2.5
2.5
2.5
2.5
2.5
2.5
2.49997
2.49988
2.49952
2.49843
2.49601
2.4929
2.49324
2.50132
2.50897
2.50132
2.49324
2.4929
2.49601
2.49843
2.49952
2.49988
2.49997
2.5
2.5
2.5
2.5
2.5
2.5
2.5
2.5
2.5
2.5
2.5
2.5
2.5
2.5
2.5
2.5
2.5
2.5
2.5
2.5
2.5
2.5
2.5
2.49999
2.49995
2.4998
2.49933
2.49813
2.49601
2.49398
2.49402
2.49528
2.49402
2.49398
2.49601
2.49813
2.49933
2.4998
2.49995
2.49999
2.5
2.5
2.5
2.5
2.5
2.5
2.5
2.5
2.5
2.5
2.5
2.5
2.5
2.5
2.5
2.5
2.5
2.5
2.5
2.5
2.5
2.5
2.5
2.5
2.49998
2.49994
2.49977
2.49933
2.49843
2.49722
2.49638
2.49629
2.49638
2.49722
2.49843
2.49933
2.49977
2.49994
2.49998
2.5
2.5
2.5
2.5
2.5
2.5
2.5
2.5
2.5
2.5
2.5
2.5
2.5
2.5
2.5
2.5
2.5
2.5
2.5
2.5
2.5
2.5
2.5
2.5
2.5
2.5
2.49998
2.49994
2.4998
2.49952
2.49908
2.49867
2.49854
2.49867
2.49908
2.49952
2.4998
2.49994
2.49998
2.5
2.5
2.5
2.5
2.5
2.5
2.5
2.5
2.5
2.5
2.5
2.5
2.5
2.5
2.5
2.5
2.5
2.5
2.5
2.5
2.5
2.5
2.5
2.5
2.5
2.5
2.5
2.5
2.49998
2.49995
2.49988
2.49976
2.49963
2.49958
2.49963
2.49976
2.49988
2.49995
2.49998
2.5
2.5
2.5
2.5
2.5
2.5
2.5
2.5
2.5
2.5
2.5
2.5
2.5
2.5
2.5
2.5
2.5
2.5
2.5
2.5
2.5
2.5
2.5
2.5
2.5
2.5
2.5
2.5
2.5
2.5
2.49999
2.49997
2.49995
2.49992
2.4999
2.49992
2.49995
2.49997
2.49999
2.5
2.5
2.5
2.5
2.5
2.5
2.5
2.5
2.5
2.5
2.5
2.5
2.5
2.5
2.5
2.5
2.5
2.5
2.5
2.5
2.5
2.5
2.5
2.5
2.5
2.5
2.5
2.5
2.5
2.5
2.5
2.5
2.5
2.49999
2.49998
2.49998
2.49998
2.49999
2.5
2.5
2.5
2.5
2.5
2.5
2.5
2.5
2.5
2.5
2.5
2.5
2.5
2.5
2.5
2.5
2.5
2.5
2.5
2.5
2.5
2.5
2.5
2.5
2.5
2.5
2.5
2.5
2.5
2.5
2.5
2.5
2.5
2.5
2.5
2.5
2.5
2.5
2.5
2.5
2.5
2.5
2.5
2.5
2.5
2.5
2.5
2.5
2.5
2.5
2.5
2.5
2.5
2.5
2.5
2.5
2.5
2.5
2.5
2.5
2.5
2.5
2.5
2.5
2.5
2.5
2.5
2.5
2.5
2.5
2.5
2.5
2.5
2.5
2.5
2.5
2.5
2.5
2.5
2.5
2.5
2.5
2.5
2.5
2.5
2.5
2.5
2.5
2.5
2.5
2.5
2.5
2.5
2.5
2.5
2.5
2.50001
2.50001
2.50001
2.5
2.5
2.5
2.5
2.5
2.5
2.5
2.5
2.5
2.5
2.5
2.5
2.5
2.5
2.5
2.5
2.5
2.5
2.5
2.5
2.5
2.5
2.5
2.5
2.5
2.5
2.5
2.5
2.5
2.5
2.5
2.5
2.5
2.5
2.5
2.50001
2.50002
2.50003
2.50003
2.50003
2.50002
2.50001
2.5
2.5
2.5
2.5
2.5
2.5
2.5
2.5
2.5
2.5
2.5
2.5
2.5
2.5
2.5
2.5
2.5
2.5
2.5
2.5
2.5
2.5
2.5
2.5
2.5
2.5
2.5
2.5
2.5
2.5
2.5
2.50001
2.50002
2.50004
2.50008
2.50013
2.50015
2.50013
2.50008
2.50004
2.50002
2.50001
2.5
2.5
2.5
2.5
2.5
2.5
2.5
2.5
2.5
2.5
2.5
2.5
2.5
2.5
2.5
2.5
2.5
2.5
2.5
2.5
2.5
2.5
2.5
2.5
2.5
2.5
2.5
2.5
2.50001
2.50002
2.50007
2.50017
2.50033
2.50049
2.50055
2.50049
2.50033
2.50017
2.50007
2.50002
2.50001
2.5
2.5
2.5
2.5
2.5
2.5
2.5
2.5
2.5
2.5
2.5
2.5
2.5
2.5
2.5
2.5
2.5
2.5
2.5
2.5
2.5
2.5
2.5
2.5
2.5
2.5
2.50001
2.50002
2.50008
2.50024
2.50057
2.50105
2.50148
2.50159
2.50148
2.50105
2.50057
2.50024
2.50008
2.50002
2.50001
2.5
2.5
2.5
2.5
2.5
2.5
2.5
2.5
2.5
2.5
2.5
2.5
2.5
2.5
2.5
2.5
2.5
2.5
2.5
2.5
2.5
2.5
2.5
2.5
2.5
2.50002
2.50007
2.50024
2.50068
2.50153
2.5026
2.50318
2.50306
2.50318
2.5026
2.50153
2.50068
2.50024
2.50007
2.50002
2.5
2.5
2.5
2.5
2.5
2.5
2.5
2.5
2.5
2.5
2.5
2.5
2.5
2.5
2.5
2.5
2.5
2.5
2.5
2.5
2.5
2.5
2.5
2.5
2.50001
2.50004
2.50017
2.50057
2.50153
2.50314
2.50436
2.50328
2.5012
2.50328
2.50436
2.50314
2.50153
2.50057
2.50017
2.50004
2.50001
2.5
2.5
2.5
2.5
2.5
2.5
2.5
2.5
2.5
2.5
2.5
2.5
2.5
2.5
2.5
2.5
2.5
2.5
2.5
2.5
2.5
2.5
2.5
2.50002
2.50008
2.50033
2.50105
2.5026
2.50436
2.50281
2.49349
2.48409
2.49349
2.50281
2.50436
2.5026
2.50105
2.50033
2.50008
2.50002
2.5
2.5
2.5
2.5
2.5
2.5
2.5
2.5
2.5
2.5
2.5
2.5
2.5
2.5
2.5
2.5
2.5
2.5
2.5
2.5
2.5
2.5
2.50001
2.50003
2.50013
2.50049
2.50148
2.50318
2.50328
2.49349
2.46527
2.44024
2.46527
2.49349
2.50328
2.50318
2.50148
2.50049
2.50013
2.50003
2.50001
2.5
2.5
2.5
2.5
2.5
2.5
2.5
2.5
2.5
2.5
2.5
2.5
2.5
2.5
2.5
2.5
2.5
2.5
2.5
2.5
2.5
2.50001
2.50003
2.50015
2.50055
2.50159
2.50306
2.5012
2.48409
2.44024
2.40255
2.44024
2.48409
2.5012
2.50306
2.50159
2.50055
2.50015
2.50003
2.50001
2.5
2.5
2.5
2.5
2.5
2.5
2.5
2.5
2.5
2.5
2.5
2.5
2.5
2.5
2.5
2.5
2.5
2.5
2.5
2.5
2.5
2.50001
2.50003
2.50013
2.50049
2.50148
2.50318
2.50328
2.49349
2.46527
2.44024
2.46527
2.49349
2.50328
2.50318
2.50148
2.50049
2.50013
2.50003
2.50001
2.5
2.5
2.5
2.5
2.5
2.5
2.5
2.5
2.5
2.5
2.5
2.5
2.5
2.5
2.5
2.5
2.5
2.5
2.5
2.5
2.5
2.5
2.50002
2.50008
2.50033
2.50105
2.5026
2.50436
2.50281
2.49349
2.48409
2.49349
2.50281
2.50436
2.5026
2.50105
2.50033
2.50008
2.50002
2.5
2.5
2.5
2.5
2.5
2.5
2.5
2.5
2.5
2.5
2.5
2.5
2.5
2.5
2.5
2.5
2.5
2.5
2.5
2.5
2.5
2.5
2.5
2.50001
2.50004
2.50017
2.50057
2.50153
2.50314
2.50436
2.50328
2.5012
2.50328
2.50436
2.50314
2.50153
2.50057
2.50017
2.50004
2.50001
2.5
2.5
2.5
2.5
2.5
2.5
2.5
2.5
2.5
2.5
2.5
2.5
2.5
2.5
2.5
2.5
2.5
2.5
2.5
2.5
2.5
2.5
2.5
2.5
2.50002
2.50007
2.50024
2.50068
2.50153
2.5026
2.50318
2.50306
2.50318
2.5026
2.50153
2.50068
2.50024
2.50007
2.50002
2.5
2.5
2.5
2.5
2.5
2.5
2.5
2.5
2.5
2.5
2.5
2.5
2.5
2.5
2.5
2.5
2.5
2.5
2.5
2.5
2.5
2.5
2.5
2.5
2.5
2.50001
2.50002
2.50008
2.50024
2.50057
2.50105
2.50148
2.50159
2.50148
2.50105
2.50057
2.50024
2.50008
2.50002
2.50001
2.5
2.5
2.5
2.5
2.5
2.5
2.5
2.5
2.5
2.5
2.5
2.5
2.5
2.5
2.5
2.5
2.5
2.5
2.5
2.5
2.5
2.5
2.5
2.5
2.5
2.5
2.50001
2.50002
2.50007
2.50017
2.50033
2.50049
2.50055
2.50049
2.50033
2.50017
2.50007
2.50002
2.50001
2.5
2.5
2.5
2.5
2.5
2.5
2.5
2.5
2.5
2.5
2.5
2.5
2.5
2.5
2.5
2.5
2.5
2.5
2.5
2.5
2.5
2.5
2.5
2.5
2.5
2.5
2.5
2.5
2.50001
2.50002
2.50004
2.50008
2.50013
2.50015
2.50013
2.50008
2.50004
2.50002
2.50001
2.5
2.5
2.5
2.5
2.5
2.5
2.5
2.5
2.5
2.5
2.5
2.5
2.5
2.5
2.5
2.5
2.5
2.5
2.5
2.5
2.5
2.5
2.5
2.5
2.5
2.5
2.5
2.5
2.5
2.5
2.5
2.50001
2.50002
2.50003
2.50003
2.50003
2.50002
2.50001
2.5
2.5
2.5
2.5
2.5
2.5
2.5
2.5
2.5
2.5
2.5
2.5
2.5
2.5
2.5
2.5
2.5
2.5
2.5
2.5
2.5
2.5
2.5
2.5
2.5
2.5
2.5
2.5
2.5
2.5
2.5
2.5
2.5
2.5
2.5
2.50001
2.50001
2.50001
2.5
2.5
2.5
2.5
2.5
2.5
2.5
2.5
