# vtk DataFile Version 3.0
Brusselator Concentration Output
ASCII
DATASET STRUCTURED_POINTS
DIMENSIONS 40 40 1
ORIGIN 0.0 0.0 0.0
SPACING 0.005 0.005 1.0
POINT_DATA 1600
SCALARS C1 double 1
LOOKUP_TABLE default
1
1
0.999994
0.999978
0.999941
0.999878
0.999795
0.999711
0.99965
0.99962
0.999612
0.99962
0.99965
0.999711
0.999795
0.999878
0.999941
0.999978
0.999994
1
1
1
1
1
1
1
1
1
1
1
1
1
1
1
1
1
1
1
1
1
1
0.999995
0.999978
0.999937
0.999861
0.999752
0.999644
0.999587
0.999605
0.999662
0.999692
0.999662
0.999605
0.999587
0.999644
0.999752
0.999861
0.999937
0.999978
0.999994
0.999999
1
1
1
1
1
1
1
1
1
1
1
1
1
1
1
1
1
1
1
0.999994
0.999978
0.999931
0.999835
0.999685
0.999536
0.999508
0.999722
1.00015
1.00059
1.00077
1.00059
1.00015
0.999722
0.999508
0.999536
0.999685
0.999834
0.999931
0.999977
0.999995
1
1
1
1
1
1
1
1
1
1
1
1
1
1
1
1
1
1
1
0.999978
0.999937
0.999835
0.999657
0.999466
0.999478
1.00003
1.00134
1.00313
1.00467
1.00526
1.00467
1.00313
1.00134
1.00003
0.999478
0.999466
0.999657
0.999834
0.999937
0.999982
0.999996
1
1
1
1
1
1
1
1
1
1
1
1
1
1
1
1
1
1
0.999941
0.999861
0.999685
0.999466
0.999477
1.00033
1.00278
1.00698
1.01188
1.01566
1.01704
1.01566
1.01188
1.00698
1.00278
1.00033
0.999477
0.999466
0.999685
0.999863
0.999953
0.999988
0.999998
1
1
1
1
1
1
1
1
1
1
1
1
1
1
1
1
1
0.999878
0.999752
0.999536
0.999478
1.00033
1.00344
1.01004
1.01966
1.02931
1.03563
1.03764
1.03563
1.02931
1.01966
1.01004
1.00344
1.00033
0.999478
0.999537
0.999758
0.999906
0.999972
0.999994
0.999999
1
1
1
1
1
1
1
1
1
1
1
1
1
1
1
1
0.999795
0.999644
0.999508
1.00003
1.00278
1.01004
1.02309
1.03914
1.05144
1.05629
1.05698
1.05629
1.05144
1.03914
1.02309
1.01004
1.00278
1.00004
0.999511
0.999657
0.999846
0.999948
0.999987
0.999998
1
1
1
1
1
1
1
1
1
1
1
1
1
1
1
1
0.999711
0.999587
0.999722
1.00134
1.00698
1.01966
1.03914
1.0572
1.06239
1.05586
1.05131
1.05586
1.06239
1.0572
1.03914
1.01966
1.00698
1.00134
0.999727
0.99961
0.99979
0.999921
0.999977
0.999995
0.999999
1
1
1
1
1
1
1
1
1
1
1
1
1
1
1
0.99965
0.999605
1.00015
1.00313
1.01188
1.02931
1.05144
1.06239
1.04893
1.02369
1.0119
1.02369
1.04893
1.06239
1.05144
1.02931
1.01188
1.00313
1.00016
0.999637
0.999753
0.999897
0.999968
0.999992
0.999999
1
1
1
1
1
1
1
1
1
1
1
1
1
1
1
0.99962
0.999662
1.00059
1.00467
1.01566
1.03563
1.05629
1.05586
1.02369
0.983489
0.966585
0.983489
1.02369
1.05586
1.05629
1.03563
1.01566
1.00467
1.0006
0.999701
0.999738
0.999882
0.999961
0.99999
0.999998
1
1
1
1
1
1
1
1
1
1
1
1
1
1
1
0.999612
0.999692
1.00077
1.00526
1.01704
1.03764
1.05698
1.05131
1.0119
0.966585
0.948059
0.966585
1.0119
1.05131
1.05698
1.03764
1.01704
1.00527
1.00078
0.999733
0.999735
0.999877
0.999959
0.99999
0.999998
1
1
1
1
1
1
1
1
1
1
1
1
1
1
1
0.99962
0.999662
1.00059
1.00467
1.01566
1.03563
1.05629
1.05586
1.02369
0.983489
0.966585
0.983489
1.02369
1.05586
1.05629
1.03563
1.01566
1.00467
1.0006
0.999701
0.999738
0.999882
0.999961
0.99999
0.999998
1
1
1
1
1
1
1
1
1
1
1
1
1
1
1
0.99965
0.999605
1.00015
1.00313
1.01188
1.02931
1.05144
1.06239
1.04893
1.02369
1.0119
1.02369
1.04893
1.06239
1.05144
1.02931
1.01188
1.00313
1.00016
0.999637
0.999753
0.999897
0.999968
0.999992
0.999999
1
1
1
1
1
1
1
1
1
1
1
1
1
1
1
0.999711
0.999587
0.999722
1.00134
1.00698
1.01966
1.03914
1.0572
1.06239
1.05586
1.05131
1.05586
1.06239
1.0572
1.03914
1.01966
1.00698
1.00134
0.999727
0.99961
0.99979
0.999921
0.999977
0.999995
0.999999
1
1
1
1
1
1
1
1
1
1
1
1
1
1
1
0.999795
0.999644
0.999508
1.00003
1.00278
1.01004
1.02309
1.03914
1.05144
1.05629
1.05698
1.05629
1.05144
1.03914
1.02309
1.01004
1.00278
1.00004
0.999511
0.999657
0.999846
0.999948
0.999987
0.999998
1
1
1
1
1
1
1
1
1
1
1
1
1
1
1
1
0.999878
0.999752
0.999536
0.999478
1.00033
1.00344
1.01004
1.01966
1.02931
1.03563
1.03764
1.03563
1.02931
1.01966
1.01004
1.00344
1.00033
0.999478
0.999536
0.999758
0.999906
0.999972
0.999994
0.999999
1
1
1
1
1
1
1
1
1
1
1
1
1
1
1
1
0.999941
0.999861
0.999685
0.999466
0.999477
1.00033
1.00278
1.00698
1.01188
1.01566
1.01704
1.01566
1.01188
1.00698
1.00278
1.00033
0.999477
0.999466
0.999685
0.999863
0.999953
0.999988
0.999998
1
1
1
1
1
1
1
1
1
1
1
1
1
1
1
1
1
0.999978
0.999937
0.999834
0.999657
0.999466
0.999478
1.00004
1.00134
1.00313
1.00467
1.00527
1.00467
1.00313
1.00134
1.00004
0.999478
0.999466
0.999656
0.999834
0.999937
0.999981
0.999996
1
1
1
1
1
1
1
1
1
1
1
1
1
1
1
1
1
1
0.999994
0.999978
0.999931
0.999834
0.999685
0.999537
0.999511
0.999727
1.00016
1.0006
1.00078
1.0006
1.00016
0.999727
0.999511
0.999536
0.999685
0.999834
0.999931
0.999977
0.999995
0.999999
1
1
1
1
1
1.00001
1.00001
1.00001
1.00001
1.00001
1.00001
1.00001
1
1
1
1
1
1
1
0.999994
0.999977
0.999937
0.999863
0.999758
0.999657
0.99961
0.999637
0.999701
0.999733
0.999701
0.999637
0.99961
0.999657
0.999758
0.999863
0.999937
0.999977
0.999994
0.999999
1
1
1
1
1.00001
1.00002
1.00003
1.00004
1.00005
1.00005
1.00005
1.00004
1.00003
1.00002
1.00001
1
1
1
1
1
0.999999
0.999995
0.999982
0.999953
0.999906
0.999846
0.99979
0.999753
0.999738
0.999735
0.999738
0.999753
0.99979
0.999846
0.999906
0.999953
0.999981
0.999995
0.999999
1
1
1
1.00001
1.00002
1.00003
1.00006
1.00008
1.0001
1.00011
1.00012
1.00011
1.0001
1.00008
1.00006
1.00003
1.00002
1.00001
1
1
1
1
1
0.999996
0.999988
0.999972
0.999948
0.999921
0.999897
0.999882
0.999877
0.999882
0.999897
0.999921
0.999948
0.999972
0.999988
0.999996
0.999999
1
1
1
1.00001
1.00002
1.00005
1.00009
1.00014
1.00018
1.00019
1.00018
1.00018
1.00018
1.00019
1.00018
1.00014
1.00009
1.00005
1.00002
1.00001
1
1
1
1
1
0.999998
0.999994
0.999987
0.999977
0.999968
0.999961
0.999959
0.999961
0.999968
0.999977
0.999987
0.999994
0.999998
1
1
1
1
1.00001
1.00002
1.00006
1.00012
1.0002
1.00025
1.00022
1.00011
0.999986
0.999929
0.999986
1.00011
1.00022
1.00025
1.0002
1.00012
1.00006
1.00002
1.00001
1
1
1
1
1
0.999999
0.999998
0.999995
0.999992
0.99999
0.99999
0.99999
0.999992
0.999995
0.999998
0.999999
1
1
1
1
1.00001
1.00002
1.00006
1.00013
1.00024
1.0003
1.00019
0.999816
0.999232
0.998696
0.998482
0.998696
0.999232
0.999816
1.00019
1.0003
1.00024
1.00013
1.00006
1.00003
1
1
1
1
1
1
1
0.999999
0.999999
0.999998
0.999998
0.999998
0.999999
0.999999
1
1
1
1
1
1
1.00002
1.00005
1.00012
1.00024
1.00031
1.00014
0.999409
0.997988
0.996205
0.994754
0.994209
0.994754
0.996205
0.997988
0.999409
1.00014
1.00031
1.00024
1.00013
1.00006
1
1
1
1
1
1
1
1
1
1
1
1
1
1
1
1
1
1
1
1.00001
1.00003
1.00009
1.0002
1.0003
1.00014
0.999213
0.99697
0.993426
0.989565
0.986764
0.985788
0.986764
0.989565
0.993426
0.99697
0.999213
1.00014
1.0003
1.00021
1.00013
1
1
1
1
1
1
1
1
1
1
1
1
1
1
1
1
1
1
1
1.00002
1.00006
1.00014
1.00025
1.00019
0.999409
0.99697
0.992182
0.985672
0.979569
0.975825
0.974695
0.975825
0.979569
0.985672
0.992182
0.99697
0.99941
1.0002
1.00027
1.0002
1
1
1
1
1
1
1
1
1
1
1
1
1
1
1
1
1
1
1.00001
1.00003
1.00008
1.00018
1.00022
0.999816
0.997988
0.993426
0.985672
0.976604
0.969762
0.966966
0.966557
0.966966
0.969762
0.976604
0.985672
0.993426
0.99799
0.999824
1.00025
1.00026
1
1
1
1
1
1
1
1
1
1
1
1
1
1
1
1
1
1
1.00001
1.00004
1.0001
1.00019
1.00011
0.999232
0.996205
0.989565
0.979569
0.969762
0.964953
0.965836
0.967319
0.965836
0.964953
0.969762
0.979569
0.989566
0.996208
0.999243
1.00015
1.00029
1
1
1
1
1
1
1
1
1
1
1
1
1
1
1
1
1
1
1.00001
1.00005
1.00011
1.00018
0.999986
0.998696
0.994754
0.986764
0.975825
0.966966
0.965836
0.971607
0.975433
0.971607
0.965836
0.966966
0.975825
0.986765
0.994757
0.99871
1.00003
1.00029
1
1
1
1
1
1
1
1
1
1
1
1
1
1
1
1
1
1
1.00001
1.00005
1.00012
1.00018
0.999929
0.998482
0.994209
0.985788
0.974695
0.966557
0.967319
0.975433
0.98036
0.975433
0.967319
0.966557
0.974695
0.985789
0.994213
0.998497
0.999976
1.00029
1
1
1
1
1
1
1
1
1
1
1
1
1
1
1
1
1
1
1.00001
1.00005
1.00011
1.00018
0.999986
0.998696
0.994754
0.986764
0.975825
0.966966
0.965836
0.971607
0.975433
0.971607
0.965836
0.966966
0.975825
0.986765
0.994757
0.99871
1.00003
1.00029
1
1
1
1
1
1
1
1
1
1
1
1
1
1
1
1
1
1
1.00001
1.00004
1.0001
1.00019
1.00011
0.999232
0.996205
0.989565
0.979569
0.969762
0.964953
0.965836
0.967319
0.965836
0.964953
0.969762
0.979569
0.989566
0.996208
0.999243
1.00015
1.00029
1
1
1
1
1
1
1
1
1
1
1
1
1
1
1
1
1
1
1.00001
1.00003
1.00008
1.00018
1.00022
0.999816
0.997988
0.993426
0.985672
0.976604
0.969762
0.966966
0.966557
0.966966
0.969762
0.976604
0.985672
0.993426
0.99799
0.999824
1.00025
1.00026
1
1
1
1
1
1
1
1
1
1
1
1
1
1
1
1
1
1
1
1.00002
1.00006
1.00014
1.00025
1.00019
0.999409
0.99697
0.992182
0.985672
0.979569
0.975825
0.974695
0.975825
0.979569
0.985672
0.992182
0.99697
0.99941
1.0002
1.00027
1.0002
1
1
1
1
1
1
1
1
1
1
1
1
1
1
1
1
1
1
1
1.00001
1.00003
1.00009
1.0002
1.0003
1.00014
0.999213
0.99697
0.993426
0.989566
0.986765
0.985789
0.986765
0.989566
0.993426
0.99697
0.999213
1.00014
1.0003
1.00021
1.00013
1
1
1
1
1
1
1
1
1
1
1
1
1
1
1
1
1
1
1
1
1.00002
1.00005
1.00012
1.00024
1.00031
1.00014
0.99941
0.99799
0.996208
0.994757
0.994213
0.994757
0.996208
0.99799
0.99941
1.00014
1.00031
1.00024
1.00013
1.00006
1
1
1
1
1
1
1
1
1
1
1
1
1
1
1
1
1
1
1
1
1.00001
1.00002
1.00006
1.00013
1.00024
1.0003
1.0002
0.999824
0.999243
0.99871
0.998497
0.99871
0.999243
0.999824
1.0002
1.0003
1.00024
1.00013
1.00006
1.00003
1
1
1
1
1
1
1
1
1
1
1
1
1
1
1
1
1
1
1
1
1
1.00001
1.00002
1.00006
1.00013
1.00021
1.00027
1.00025
1.00015
1.00003
0.999976
1.00003
1.00015
1.00025
1.00027
1.00021
1.00013
1.00006
1.00002
1.00001
1
1
1
1
1
1
1
1
1
1
1
1
1
1
1
1
1
1
1
1
1
1
1.00001
1.00003
1.00006
1.00013
1.0002
1.00026
1.00029
1.00029
1.00029
1.00029
1.00029
1.00026
1.0002
1.00013
1.00006
1.00003
1.00001
1
SCALARS C2 double 1
LOOKUP_TABLE default
2.5
2.5
2.5
2.50001
2.50004
2.50011
2.50023
2.50037
2.50051
2.50061
2.50064
2.50061
2.50051
2.50037
2.50023
2.50011
2.50004
2.50001
2.5
2.5
2.5
2.5
2.5
2.5
2.5
2.5
2.5
2.5
2.5
2.5
2.5
2.5
2.5
2.5
2.5
2.5
2.5
2.5
2.5
2.5
2.5
2.5
2.50001
2.50005
2.50014
2.50031
2.50055
2.50079
2.50098
2.50107
2.5011
2.50107
2.50098
2.50079
2.50055
2.50031
2.50014
2.50005
2.50001
2.5
2.5
2.5
2.5
2.5
2.5
2.5
2.5
2.5
2.5
2.5
2.5
2.5
2.5
2.5
2.5
2.5
2.5
2.5
2.5
2.5
2.5
2.50001
2.50006
2.50018
2.50042
2.5008
2.50123
2.50153
2.50156
2.50141
2.50132
2.50141
2.50156
2.50153
2.50123
2.5008
2.50042
2.50018
2.50006
2.50001
2.5
2.5
2.5
2.5
2.5
2.5
2.5
2.5
2.5
2.5
2.5
2.5
2.5
2.5
2.5
2.5
2.5
2.5
2.5
2.5
2.50001
2.50005
2.50018
2.50047
2.50098
2.50161
2.50199
2.50164
2.50046
2.49909
2.49849
2.49909
2.50046
2.50164
2.50199
2.50161
2.50098
2.50047
2.50018
2.50005
2.50001
2.5
2.5
2.5
2.5
2.5
2.5
2.5
2.5
2.5
2.5
2.5
2.5
2.5
2.5
2.5
2.5
2.5
2.5
2.5
2.50004
2.50014
2.50042
2.50098
2.50175
2.50222
2.50129
2.49795
2.49257
2.4875
2.48545
2.4875
2.49257
2.49795
2.50129
2.50222
2.50175
2.50098
2.50042
2.50014
2.50004
2.50001
2.5
2.5
2.5
2.5
2.5
2.5
2.5
2.5
2.5
2.5
2.5
2.5
2.5
2.5
2.5
2.5
2.5
2.5
2.50011
2.50031
2.5008
2.50161
2.50222
2.50106
2.49557
2.48407
2.46883
2.45605
2.45123
2.45605
2.46883
2.48407
2.49557
2.50106
2.50222
2.50161
2.5008
2.50031
2.50009
2.50002
2.5
2.5
2.5
2.5
2.5
2.5
2.5
2.5
2.5
2.5
2.5
2.5
2.5
2.5
2.5
2.5
2.5
2.5
2.50023
2.50055
2.50123
2.50199
2.50129
2.49557
2.48
2.45318
2.42244
2.40011
2.39256
2.40011
2.42244
2.45318
2.48
2.49557
2.50129
2.50199
2.50123
2.50054
2.50018
2.50005
2.50001
2.5
2.5
2.5
2.5
2.5
2.5
2.5
2.5
2.5
2.5
2.5
2.5
2.5
2.5
2.5
2.5
2.5
2.50037
2.50079
2.50153
2.50164
2.49795
2.48407
2.45318
2.40741
2.36402
2.33977
2.3335
2.33977
2.36402
2.40741
2.45318
2.48407
2.49795
2.50164
2.50153
2.50078
2.50029
2.50008
2.50002
2.5
2.5
2.5
2.5
2.5
2.5
2.5
2.5
2.5
2.5
2.5
2.5
2.5
2.5
2.5
2.5
2.5
2.50051
2.50098
2.50156
2.50046
2.49257
2.46883
2.42244
2.36402
2.32241
2.31061
2.31121
2.31061
2.32241
2.36402
2.42244
2.46883
2.49257
2.50046
2.50155
2.50095
2.50039
2.50012
2.50003
2.5
2.5
2.5
2.5
2.5
2.5
2.5
2.5
2.5
2.5
2.5
2.5
2.5
2.5
2.5
2.5
2.5
2.50061
2.50107
2.50141
2.49909
2.4875
2.45605
2.40011
2.33977
2.31061
2.3163
2.32469
2.3163
2.31061
2.33977
2.40011
2.45605
2.4875
2.49909
2.5014
2.50103
2.50046
2.50015
2.50004
2.50001
2.5
2.5
2.5
2.5
2.5
2.5
2.5
2.5
2.5
2.5
2.5
2.5
2.5
2.5
2.5
2.5
2.50064
2.5011
2.50132
2.49849
2.48545
2.45123
2.39256
2.3335
2.31121
2.32469
2.33634
2.32469
2.31121
2.3335
2.39256
2.45123
2.48545
2.49849
2.50131
2.50106
2.50048
2.50016
2.50004
2.50001
2.5
2.5
2.5
2.5
2.5
2.5
2.5
2.5
2.5
2.5
2.5
2.5
2.5
2.5
2.5
2.5
2.50061
2.50107
2.50141
2.49909
2.4875
2.45605
2.40011
2.33977
2.31061
2.3163
2.32469
2.3163
2.31061
2.33977
2.40011
2.45605
2.4875
2.49909
2.5014
2.50103
2.50046
2.50015
2.50004
2.50001
2.5
2.5
2.5
2.5
2.5
2.5
2.5
2.5
2.5
2.5
2.5
2.5
2.5
2.5
2.5
2.5
2.50051
2.50098
2.50156
2.50046
2.49257
2.46883
2.42244
2.36402
2.32241
2.31061
2.31121
2.31061
2.32241
2.36402
2.42244
2.46883
2.49257
2.50046
2.50155
2.50095
2.50039
2.50012
2.50003
2.5
2.5
2.5
2.5
2.5
2.5
2.5
2.5
2.5
2.5
2.5
2.5
2.5
2.5
2.5
2.5
2.5
2.50037
2.50079
2.50153
2.50164
2.49795
2.48407
2.45318
2.40741
2.36402
2.33977
2.3335
2.33977
2.36402
2.40741
2.45318
2.48407
2.49795
2.50164
2.50153
2.50078
2.50029
2.50008
2.50002
2.5
2.5
2.5
2.5
2.5
2.5
2.5
2.5
2.5
2.5
2.5
2.5
2.5
2.5
2.5
2.5
2.5
2.50023
2.50055
2.50123
2.50199
2.50129
2.49557
2.48
2.45318
2.42244
2.40011
2.39256
2.40011
2.42244
2.45318
2.48
2.49557
2.50129
2.50199
2.50123
2.50054
2.50018
2.50005
2.50001
2.5
2.5
2.5
2.5
2.5
2.5
2.5
2.5
2.5
2.5
2.5
2.5
2.5
2.5
2.5
2.5
2.5
2.50011
2.50031
2.5008
2.50161
2.50222
2.50106
2.49557
2.48407
2.46883
2.45605
2.45123
2.45605
2.46883
2.48407
2.49557
2.50106
2.50222
2.50161
2.5008
2.50031
2.50009
2.50002
2.5
2.5
2.5
2.5
2.5
2.5
2.5
2.5
2.5
2.5
2.5
2.5
2.5
2.5
2.5
2.5
2.5
2.5
2.50004
2.50014
2.50042
2.50098
2.50175
2.50222
2.50129
2.49795
2.49257
2.4875
2.48545
2.4875
2.49257
2.49795
2.50129
2.50222
2.50175
2.50098
2.50042
2.50014
2.50004
2.50001
2.5
2.5
2.5
2.5
2.5
2.5
2.5
2.5
2.5
2.5
2.5
2.5
2.5
2.5
2.5
2.5
2.5
2.5
2.50001
2.50005
2.50018
2.50047
2.50098
2.50161
2.50199
2.50164
2.50046
2.49909
2.49849
2.49909
2.50046
2.50164
2.50199
2.50161
2.50098
2.50047
2.50018
2.50005
2.50001
2.5
2.5
2.5
2.5
2.5
2.5
2.5
2.5
2.5
2.5
2.5
2.5
2.5
2.5
2.5
2.5
2.5
2.5
2.5
2.5
2.50001
2.50006
2.50018
2.50042
2.5008
2.50123
2.50153
2.50155
2.5014
2.50131
2.5014
2.50155
2.50153
2.50123
2.5008
2.50042
2.50018
2.50006
2.50001
2.5
2.5
2.5
2.5
2.5
2.5
2.5
2.49999
2.49999
2.49999
2.49999
2.49999
2.49999
2.49999
2.5
2.5
2.5
2.5
2.5
2.5
2.5
2.5
2.50001
2.50005
2.50014
2.50031
2.50054
2.50078
2.50095
2.50103
2.50106
2.50103
2.50095
2.50078
2.50054
2.50031
2.50014
2.50005
2.50001
2.5
2.5
2.5
2.5
2.5
2.5
2.49999
2.49999
2.49997
2.49996
2.49995
2.49994
2.49995
2.49996
2.49997
2.49999
2.49999
2.5
2.5
2.5
2.5
2.5
2.5
2.5
2.50001
2.50004
2.50009
2.50018
2.50029
2.50039
2.50046
2.50048
2.50046
2.50039
2.50029
2.50018
2.50009
2.50004
2.50001
2.5
2.5
2.5
2.5
2.5
2.5
2.49999
2.49997
2.49994
2.4999
2.49986
2.49983
2.49982
2.49983
2.49986
2.4999
2.49994
2.49997
2.49999
2.5
2.5
2.5
2.5
2.5
2.5
2.5
2.50001
2.50002
2.50005
2.50008
2.50012
2.50015
2.50016
2.50015
2.50012
2.50008
2.50005
2.50002
2.50001
2.5
2.5
2.5
2.5
2.5
2.5
2.49998
2.49995
2.49989
2.4998
2.4997
2.49961
2.49956
2.49954
2.49956
2.49961
2.4997
2.4998
2.49989
2.49995
2.49998
2.5
2.5
2.5
2.5
2.5
2.5
2.5
2.5
2.50001
2.50002
2.50003
2.50004
2.50004
2.50004
2.50003
2.50002
2.50001
2.5
2.5
2.5
2.5
2.5
2.5
2.5
2.49998
2.49994
2.49985
2.4997
2.4995
2.49932
2.49923
2.49923
2.49924
2.49923
2.49923
2.49932
2.4995
2.4997
2.49985
2.49994
2.49998
2.5
2.5
2.5
2.5
2.5
2.5
2.5
2.5
2.5
2.5
2.50001
2.50001
2.50001
2.5
2.5
2.5
2.5
2.5
2.5
2.5
2.5
2.5
2.49998
2.49994
2.49983
2.49963
2.49933
2.49906
2.49899
2.49923
2.4996
2.49977
2.4996
2.49923
2.49899
2.49906
2.49933
2.49963
2.49983
2.49994
2.49998
2.5
2.5
2.5
2.5
2.5
2.5
2.5
2.5
2.5
2.5
2.5
2.5
2.5
2.5
2.5
2.5
2.5
2.5
2.5
2.5
2.49999
2.49995
2.49985
2.49963
2.49926
2.4989
2.49891
2.49972
2.50134
2.50301
2.50371
2.50301
2.50134
2.49972
2.49891
2.4989
2.49926
2.49963
2.49985
2.49994
2.5
2.5
2.5
2.5
2.5
2.5
2.5
2.5
2.5
2.5
2.5
2.5
2.5
2.5
2.5
2.5
2.5
2.5
2.5
2.49999
2.49997
2.49989
2.4997
2.49933
2.4989
2.4989
2.50029
2.50385
2.50904
2.5137
2.51554
2.5137
2.50904
2.50385
2.50029
2.4989
2.4989
2.49933
2.49969
2.49986
2.5
2.5
2.5
2.5
2.5
2.5
2.5
2.5
2.5
2.5
2.5
2.5
2.5
2.5
2.5
2.5
2.5
2.5
2.5
2.49999
2.49994
2.4998
2.4995
2.49906
2.49891
2.50029
2.50509
2.51425
2.52587
2.53544
2.53901
2.53544
2.52587
2.51425
2.50509
2.50029
2.49891
2.49905
2.49948
2.49974
2.5
2.5
2.5
2.5
2.5
2.5
2.5
2.5
2.5
2.5
2.5
2.5
2.5
2.5
2.5
2.5
2.5
2.5
2.49999
2.49997
2.4999
2.4997
2.49932
2.49899
2.49972
2.50385
2.51425
2.53154
2.55141
2.56645
2.57174
2.56645
2.55141
2.53154
2.51425
2.50385
2.49972
2.49899
2.4993
2.49959
2.5
2.5
2.5
2.5
2.5
2.5
2.5
2.5
2.5
2.5
2.5
2.5
2.5
2.5
2.5
2.5
2.5
2.5
2.49999
2.49996
2.49986
2.49961
2.49923
2.49923
2.50134
2.50904
2.52587
2.55141
2.5784
2.59698
2.6029
2.59698
2.5784
2.55141
2.52587
2.50904
2.50134
2.49922
2.49919
2.49947
2.5
2.5
2.5
2.5
2.5
2.5
2.5
2.5
2.5
2.5
2.5
2.5
2.5
2.5
2.5
2.5
2.5
2.5
2.49999
2.49995
2.49983
2.49956
2.49923
2.4996
2.50301
2.5137
2.53544
2.56645
2.59698
2.61576
2.6209
2.61576
2.59698
2.56645
2.53544
2.5137
2.50301
2.49958
2.49918
2.49939
2.5
2.5
2.5
2.5
2.5
2.5
2.5
2.5
2.5
2.5
2.5
2.5
2.5
2.5
2.5
2.5
2.5
2.5
2.49999
2.49994
2.49982
2.49954
2.49924
2.49977
2.50371
2.51554
2.53901
2.57174
2.6029
2.6209
2.62532
2.6209
2.6029
2.57174
2.53901
2.51554
2.50371
2.49976
2.49918
2.49936
2.5
2.5
2.5
2.5
2.5
2.5
2.5
2.5
2.5
2.5
2.5
2.5
2.5
2.5
2.5
2.5
2.5
2.5
2.49999
2.49995
2.49983
2.49956
2.49923
2.4996
2.50301
2.5137
2.53544
2.56645
2.59698
2.61576
2.6209
2.61576
2.59698
2.56645
2.53544
2.5137
2.50301
2.49958
2.49918
2.49939
2.5
2.5
2.5
2.5
2.5
2.5
2.5
2.5
2.5
2.5
2.5
2.5
2.5
2.5
2.5
2.5
2.5
2.5
2.49999
2.49996
2.49986
2.49961
2.49923
2.49923
2.50134
2.50904
2.52587
2.55141
2.5784
2.59698
2.6029
2.59698
2.5784
2.55141
2.52587
2.50904
2.50134
2.49922
2.49919
2.49947
2.5
2.5
2.5
2.5
2.5
2.5
2.5
2.5
2.5
2.5
2.5
2.5
2.5
2.5
2.5
2.5
2.5
2.5
2.49999
2.49997
2.4999
2.4997
2.49932
2.49899
2.49972
2.50385
2.51425
2.53154
2.55141
2.56645
2.57174
2.56645
2.55141
2.53154
2.51425
2.50385
2.49972
2.49899
2.4993
2.49959
2.5
2.5
2.5
2.5
2.5
2.5
2.5
2.5
2.5
2.5
2.5
2.5
2.5
2.5
2.5
2.5
2.5
2.5
2.5
2.49999
2.49994
2.4998
2.4995
2.49906
2.49891
2.50029
2.50509
2.51425
2.52587
2.53544
2.53901
2.53544
2.52587
2.51425
2.50509
2.50029
2.49891
2.49905
2.49948
2.49974
2.5
2.5
2.5
2.5
2.5
2.5
2.5
2.5
2.5
2.5
2.5
2.5
2.5
2.5
2.5
2.5
2.5
2.5
2.5
2.49999
2.49997
2.49989
2.4997
2.49933
2.4989
2.4989
2.50029
2.50385
2.50904
2.5137
2.51554
2.5137
2.50904
2.50385
2.50029
2.4989
2.4989
2.49933
2.49969
2.49986
2.5
2.5
2.5
2.5
2.5
2.5
2.5
2.5
2.5
2.5
2.5
2.5
2.5
2.5
2.5
2.5
2.5
2.5
2.5
2.5
2.49999
2.49995
2.49985
2.49963
2.49926
2.4989
2.49891
2.49972
2.50134
2.50301
2.50371
2.50301
2.50134
2.49972
2.49891
2.4989
2.49926
2.49963
2.49985
2.49994
2.5
2.5
2.5
2.5
2.5
2.5
2.5
2.5
2.5
2.5
2.5
2.5
2.5
2.5
2.5
2.5
2.5
2.5
2.5
2.5
2.5
2.49998
2.49994
2.49983
2.49963
2.49933
2.49905
2.49899
2.49922
2.49958
2.49976
2.49958
2.49922
2.49899
2.49905
2.49933
2.49963
2.49983
2.49994
2.49998
2.5
2.5
2.5
2.5
2.5
2.5
2.5
2.5
2.5
2.5
2.5
2.5
2.5
2.5
2.5
2.5
2.5
2.5
2.5
2.5
2.5
2.5
2.49998
2.49994
2.49985
2.49969
2.49948
2.4993
2.49919
2.49918
2.49918
2.49918
2.49919
2.4993
2.49948
2.49969
2.49985
2.49994
2.49998
2.5
2.5
2.5
2.5
2.5
2.5
2.5
2.5
2.5
2.5
2.5
2.5
2.5
2.5
2.5
2.5
2.5
2.5
2.5
2.5
2.5
2.5
2.5
2.5
2.49998
2.49994
2.49986
2.49974
2.49959
2.49947
2.49939
2.49936
2.49939
2.49947
2.49959
2.49974
2.49986
2.49994
2.49998
2.5
2.5
