# vtk DataFile Version 3.0
Brusselator Concentration Output
ASCII
DATASET STRUCTURED_POINTS
DIMENSIONS 40 40 1
ORIGIN 0.0 0.0 0.0
SPACING 0.005 0.005 1.0
POINT_DATA 1600
SCALARS C1 double 1
LOOKUP_TABLE default
1.00377
1.00589
1.00955
1.01345
1.01584
1.01513
1.01084
1.00404
0.996803
0.991385
0.989387
0.991385
0.996804
1.00404
1.01086
1.01517
1.01592
1.01358
1.00964
1.00571
1.00276
1.001
1.00018
0.999904
0.999877
0.999919
0.999961
0.999985
0.999995
0.999999
1
1
1
1
1
1
1
1
1
1
1.00589
1.00781
1.01045
1.01169
1.00919
1.00174
0.990126
0.976822
0.964832
0.956635
0.95374
0.956636
0.964834
0.976829
0.990145
1.00178
1.00927
1.01176
1.01038
1.00721
1.00406
1.00182
1.00059
1.00007
0.999923
0.999923
0.999955
0.99998
0.999993
0.999998
1
1
1
1
1
1
1
1
1
1
1.00955
1.01045
1.01
1.00469
0.992001
0.972306
0.94897
0.926451
0.908398
0.89696
0.893069
0.89696
0.908401
0.926461
0.948994
0.972351
0.99205
1.00465
1.00956
1.00902
1.00618
1.00334
1.00141
1.00042
1.00004
0.999942
0.999949
0.999973
0.999989
0.999996
0.999999
1
1
1
1
1
1
1
1
1
1.01345
1.01169
1.00469
0.988249
0.961295
0.927546
0.893284
0.863959
0.842528
0.829808
0.825627
0.829809
0.842532
0.863971
0.893312
0.927585
0.961288
0.987992
1.00369
1.00907
1.00819
1.00522
1.00259
1.00098
1.00024
0.999993
0.99995
0.999965
0.999983
0.999994
0.999998
1
1
1
1
1
1
1
1
1
1.01584
1.00919
0.992001
0.961295
0.919742
0.874982
0.834913
0.804154
0.783703
0.772446
0.768905
0.772448
0.783709
0.804168
0.834941
0.875004
0.919646
0.960745
0.990283
1.00525
1.00887
1.00697
1.00395
1.00173
1.00055
1.00009
0.999965
0.99996
0.999977
0.999991
0.999997
0.999999
1
1
1
1
1
1
1
1
1.01513
1.00174
0.972306
0.927546
0.874982
0.825049
0.785304
0.758223
0.742381
0.734716
0.732513
0.734718
0.742388
0.758239
0.78533
0.825045
0.874775
0.926661
0.96984
0.99661
1.00725
1.00799
1.00525
1.00257
1.00095
1.00023
0.999999
0.99996
0.999973
0.999988
0.999996
0.999999
1
1
1
1
1
1
1
1
1.01084
0.990126
0.94897
0.893284
0.834913
0.785304
0.75037
0.730117
0.720909
0.717983
0.717498
0.717986
0.720916
0.730133
0.750391
0.78527
0.834588
0.892072
0.945846
0.984194
1.00322
1.00795
1.00624
1.00339
1.00139
1.00041
1.00005
0.999967
0.99997
0.999985
0.999994
0.999998
1
1
1
1
1
1
1
1
1.00404
0.976822
0.926451
0.863959
0.804154
0.758223
0.730117
0.717746
0.715736
0.717874
0.71922
0.717877
0.715743
0.717762
0.730133
0.758159
0.803721
0.862465
0.92283
0.970543
0.997645
1.00694
1.0068
1.00407
1.00181
1.00059
1.00011
0.999979
0.999969
0.999982
0.999993
0.999998
1
1
1
1
1
1
1
1
0.996803
0.964832
0.908398
0.842528
0.783703
0.742381
0.720909
0.715736
0.720249
0.727023
0.730061
0.727026
0.720257
0.715753
0.72092
0.742292
0.783184
0.840825
0.904456
0.958539
0.992061
1.00546
1.00699
1.00455
1.00214
1.00075
1.00016
0.999992
0.999969
0.999981
0.999992
0.999998
1
1
1
1
1
1
1
1
0.991385
0.956635
0.89696
0.829808
0.772446
0.734716
0.717983
0.717874
0.727023
0.737145
0.741418
0.737148
0.727032
0.717891
0.717991
0.734609
0.771872
0.827976
0.892847
0.950457
0.987996
1.0042
1.00697
1.00482
1.00235
1.00085
1.0002
1
0.999971
0.999981
0.999992
0.999998
1
1
1
1
1
1
1
1
0.989387
0.95374
0.893069
0.825627
0.768905
0.732513
0.717498
0.71922
0.730061
0.741418
0.746149
0.74142
0.73007
0.719236
0.717504
0.732401
0.768312
0.823753
0.888903
0.947623
0.986516
1.00371
1.00694
1.00491
1.00242
1.00089
1.00022
1.00001
0.999973
0.999983
0.999994
1
1
1
1
1
1
1
1
1
0.991385
0.956636
0.89696
0.829809
0.772448
0.734718
0.717986
0.717877
0.727026
0.737148
0.74142
0.73715
0.727034
0.717893
0.717993
0.734611
0.771873
0.827977
0.892847
0.950457
0.987996
1.0042
1.00697
1.00483
1.00235
1.00086
1.00021
1.00001
0.999978
0.999988
1
1.00001
1.00001
1.00001
1.00001
1
1
1
1
1
0.996804
0.964834
0.908401
0.842532
0.783709
0.742388
0.720916
0.715743
0.720257
0.727032
0.73007
0.727034
0.720265
0.71576
0.720927
0.742298
0.78319
0.840829
0.904459
0.958541
0.992063
1.00546
1.00699
1.00456
1.00215
1.00076
1.00018
1.00001
0.999984
0.999996
1.00001
1.00001
1.00001
1.00001
1.00001
1.00001
1.00001
1.00001
1
1
1.00404
0.976829
0.926461
0.863971
0.804168
0.758239
0.730133
0.717762
0.715753
0.717891
0.719236
0.717893
0.71576
0.717779
0.730149
0.758175
0.803736
0.862478
0.92284
0.970551
0.997652
1.00694
1.00681
1.00409
1.00182
1.00061
1.00013
0.999997
0.999983
0.999994
1
1.00001
1.00001
1.00002
1.00002
1.00002
1.00002
1.00002
1.00001
1.00001
1.01086
0.990145
0.948994
0.893312
0.834941
0.78533
0.750391
0.730133
0.72092
0.717991
0.717504
0.717993
0.720927
0.730149
0.750412
0.785295
0.834616
0.8921
0.945871
0.984216
1.00324
1.00797
1.00627
1.00342
1.00142
1.00042
1.00005
0.999951
0.999936
0.999937
0.999942
0.999951
0.999965
0.999984
1
1.00002
1.00002
1.00003
1.00003
1.00002
1.01517
1.00178
0.972351
0.927585
0.875004
0.825045
0.78527
0.758159
0.742292
0.734609
0.732401
0.734611
0.742298
0.758175
0.785295
0.825041
0.874797
0.926702
0.969889
0.996659
1.0073
1.00803
1.00529
1.0026
1.00095
1.00018
0.999889
0.999785
0.999739
0.999714
0.999708
0.999726
0.999767
0.999825
0.99989
0.99995
0.999997
1.00003
1.00004
1.00005
1.01592
1.00927
0.99205
0.961288
0.919646
0.874775
0.834588
0.803721
0.783184
0.771872
0.768312
0.771873
0.78319
0.803736
0.834616
0.874797
0.919552
0.960742
0.990339
1.00533
1.00895
1.00703
1.00398
1.00168
1.0004
0.999792
0.9995
0.99933
0.99921
0.999133
0.999109
0.999142
0.999233
0.99937
0.999536
0.999704
0.999852
0.999963
1.00003
1.00006
1.01358
1.01176
1.00465
0.987992
0.960745
0.926661
0.892072
0.862465
0.840825
0.827976
0.823753
0.827977
0.840829
0.862478
0.8921
0.926702
0.960742
0.98774
1.00365
1.00914
1.00829
1.00527
1.00251
1.0007
0.999668
0.999077
0.99868
0.998381
0.99816
0.998024
0.99798
0.99803
0.998177
0.998417
0.998733
0.999088
0.999433
0.999721
0.999921
1.00002
1.00964
1.01038
1.00956
1.00369
0.990283
0.96984
0.945846
0.92283
0.904456
0.892847
0.888903
0.892847
0.904459
0.92284
0.945871
0.969889
0.990339
1.00365
1.00912
1.00891
1.00618
1.00323
1.001
0.999541
0.998571
0.997864
0.997327
0.996946
0.996714
0.996601
0.996569
0.996604
0.996725
0.996975
0.997381
0.997928
0.998542
0.999119
0.999559
0.999794
1.00571
1.00721
1.00902
1.00907
1.00525
0.99661
0.984194
0.970543
0.958539
0.950457
0.947623
0.950457
0.958541
0.970551
0.984216
0.996659
1.00533
1.00914
1.00891
1.0065
1.00364
1.00123
0.999437
0.998089
0.997041
0.996281
0.995861
0.995783
0.99594
0.99615
0.996242
0.996152
0.995948
0.995806
0.995911
0.996364
0.997118
0.99799
0.998744
0.999178
1.00276
1.00406
1.00618
1.00819
1.00887
1.00725
1.00322
0.997645
0.992061
0.987996
0.986516
0.987996
0.992063
0.997652
1.00324
1.0073
1.00895
1.00829
1.00618
1.00364
1.00132
0.99938
0.997744
0.996391
0.995476
0.995248
0.995839
0.997103
0.998614
0.999825
1.00029
0.999827
0.998621
0.997123
0.995884
0.995329
0.995574
0.996391
0.997334
0.997946
1.001
1.00182
1.00334
1.00522
1.00697
1.00799
1.00795
1.00694
1.00546
1.0042
1.00371
1.0042
1.00546
1.00694
1.00797
1.00803
1.00703
1.00527
1.00323
1.00123
0.99938
0.997619
0.996038
0.995013
0.995142
0.996923
1.0004
1.00498
1.00958
1.01296
1.0142
1.01296
1.00959
1.00501
1.00044
0.996988
0.99519
0.994907
0.995456
0.996006
1.00018
1.00059
1.00141
1.00259
1.00395
1.00525
1.00624
1.0068
1.00699
1.00697
1.00694
1.00697
1.00699
1.00681
1.00627
1.00529
1.00398
1.00251
1.001
0.999437
0.997744
0.996038
0.994869
0.995246
0.998296
1.00468
1.01404
1.02487
1.03493
1.04199
1.04453
1.042
1.03494
1.0249
1.01408
1.00471
0.998223
0.994844
0.993729
0.993619
0.999904
1.00007
1.00042
1.00098
1.00173
1.00257
1.00339
1.00407
1.00455
1.00482
1.00491
1.00483
1.00456
1.00409
1.00342
1.0026
1.00168
1.0007
0.999541
0.998089
0.996391
0.995013
0.995246
0.998917
1.00771
1.02222
1.04115
1.06132
1.07881
1.09042
1.09445
1.09043
1.07883
1.06135
1.04118
1.02218
1.00743
0.998045
0.993277
0.991512
0.999877
0.999923
1.00004
1.00024
1.00055
1.00095
1.00139
1.00181
1.00214
1.00235
1.00242
1.00235
1.00215
1.00182
1.00142
1.00095
1.0004
0.999668
0.998571
0.997041
0.995476
0.995142
0.998296
1.00771
1.02554
1.05172
1.08289
1.11295
1.13616
1.1499
1.15432
1.14991
1.13618
1.11298
1.08289
1.05157
1.02495
1.00623
0.995398
0.990725
0.999919
0.999923
0.999942
0.999993
1.00009
1.00023
1.00041
1.00059
1.00075
1.00085
1.00089
1.00086
1.00076
1.00061
1.00042
1.00018
0.999792
0.999077
0.997864
0.996281
0.995248
0.996923
1.00468
1.02222
1.05172
1.09116
1.13273
1.1661
1.18565
1.1936
1.19539
1.19361
1.18567
1.16611
1.13267
1.09083
1.05076
1.02007
1.00095
0.992166
0.999961
0.999955
0.999949
0.99995
0.999965
0.999999
1.00005
1.00011
1.00016
1.0002
1.00022
1.00021
1.00018
1.00013
1.00005
0.999889
0.9995
0.99868
0.997327
0.995861
0.995839
1.0004
1.01404
1.04115
1.08289
1.13273
1.17572
1.19829
1.2006
1.19417
1.19056
1.19418
1.20061
1.19828
1.17557
1.1322
1.0815
1.03836
1.00976
0.996089
0.999985
0.99998
0.999973
0.999965
0.99996
0.99996
0.999967
0.999979
0.999992
1
1.00001
1.00001
1.00001
0.999997
0.999951
0.999785
0.99933
0.998381
0.996946
0.995783
0.997103
1.00498
1.02487
1.06132
1.11295
1.1661
1.19829
1.19825
1.1771
1.15486
1.14586
1.15486
1.1771
1.1982
1.19805
1.16536
1.11118
1.05804
1.02038
1.00181
0.999995
0.999993
0.999989
0.999983
0.999977
0.999973
0.99997
0.999969
0.999969
0.999971
0.999973
0.999978
0.999984
0.999983
0.999936
0.999739
0.99921
0.99816
0.996714
0.99594
0.998614
1.00958
1.03493
1.07881
1.13616
1.18565
1.2006
1.1771
1.13662
1.10311
1.09055
1.10311
1.13661
1.17702
1.20028
1.18474
1.13411
1.07522
1.03051
1.00783
0.999999
0.999998
0.999996
0.999994
0.999991
0.999988
0.999985
0.999982
0.999981
0.999981
0.999983
0.999988
0.999996
0.999994
0.999937
0.999714
0.999133
0.998024
0.996601
0.99615
0.999825
1.01296
1.04199
1.09042
1.1499
1.1936
1.19417
1.15486
1.10311
1.06367
1.04934
1.06367
1.10309
1.15476
1.19381
1.1926
1.14769
1.08668
1.03774
1.01238
1
1
0.999999
0.999998
0.999997
0.999996
0.999994
0.999993
0.999992
0.999992
0.999994
1
1.00001
1
0.999942
0.999708
0.999109
0.99798
0.996569
0.996242
1.00029
1.0142
1.04453
1.09445
1.15432
1.19539
1.19056
1.14586
1.09055
1.04934
1.0345
1.04934
1.09053
1.14576
1.19018
1.19436
1.15206
1.09067
1.04036
1.01408
1
1
1
1
0.999999
0.999999
0.999998
0.999998
0.999998
0.999998
1
1.00001
1.00001
1.00001
0.999951
0.999726
0.999142
0.99803
0.996604
0.996152
0.999827
1.01296
1.042
1.09043
1.14991
1.19361
1.19418
1.15486
1.10311
1.06367
1.04934
1.06368
1.1031
1.15477
1.19382
1.19261
1.1477
1.08669
1.03775
1.01238
1
1
1
1
1
1
1
1
1
1
1
1.00001
1.00001
1.00001
0.999965
0.999767
0.999233
0.998177
0.996725
0.995948
0.998621
1.00959
1.03494
1.07883
1.13618
1.18567
1.20061
1.1771
1.13661
1.10309
1.09053
1.1031
1.1366
1.17702
1.20029
1.18476
1.13413
1.07523
1.03052
1.00784
1
1
1
1
1
1
1
1
1
1
1
1.00001
1.00001
1.00002
0.999984
0.999825
0.99937
0.998417
0.996975
0.995806
0.997123
1.00501
1.0249
1.06135
1.11298
1.16611
1.19828
1.1982
1.17702
1.15476
1.14576
1.15477
1.17702
1.19815
1.19804
1.16537
1.11121
1.05807
1.02041
1.00183
1
1
1
1
1
1
1
1
1
1
1
1.00001
1.00001
1.00002
1
0.99989
0.999536
0.998733
0.997381
0.995911
0.995884
1.00044
1.01408
1.04118
1.08289
1.13267
1.17557
1.19805
1.20028
1.19381
1.19018
1.19382
1.20029
1.19804
1.17542
1.13214
1.0815
1.03839
1.0098
0.996138
1
1
1
1
1
1
1
1
1
1
1
1
1.00001
1.00002
1.00002
0.99995
0.999704
0.999088
0.997928
0.996364
0.995329
0.996988
1.00471
1.02218
1.05157
1.09083
1.1322
1.16536
1.18474
1.1926
1.19436
1.19261
1.18476
1.16537
1.13214
1.09051
1.05061
1.02004
1.00099
0.992232
1
1
1
1
1
1
1
1
1
1
1
1
1.00001
1.00002
1.00002
0.999997
0.999852
0.999433
0.998542
0.997118
0.995574
0.99519
0.998223
1.00743
1.02495
1.05076
1.0815
1.11118
1.13411
1.14769
1.15206
1.1477
1.13413
1.11121
1.0815
1.05061
1.02438
1.00596
0.995325
0.99075
1
1
1
1
1
1
1
1
1
1
1
1
1.00001
1.00002
1.00003
1.00003
0.999963
0.999721
0.999119
0.99799
0.996391
0.994907
0.994844
0.998045
1.00623
1.02007
1.03836
1.05804
1.07522
1.08668
1.09067
1.08669
1.07523
1.05807
1.03839
1.02004
1.00596
0.997172
0.992845
0.991311
1
1
1
1
1
1
1
1
1
1
1
1
1
1.00001
1.00003
1.00004
1.00003
0.999921
0.999559
0.998744
0.997334
0.995456
0.993729
0.993277
0.995398
1.00095
1.00976
1.02038
1.03051
1.03774
1.04036
1.03775
1.03052
1.02041
1.0098
1.00099
0.995325
0.992845
0.992486
0.992805
1
1
1
1
1
1
1
1
1
1
1
1
1
1.00001
1.00002
1.00005
1.00006
1.00002
0.999794
0.999178
0.997946
0.996006
0.993619
0.991512
0.990725
0.992166
0.996089
1.00181
1.00783
1.01238
1.01408
1.01238
1.00784
1.00183
0.996138
0.992232
0.99075
0.991311
0.992805
0.993962
SCALARS C2 double 1
LOOKUP_TABLE default
2.4984
2.49515
2.48863
2.47937
2.46892
2.45966
2.45371
2.45176
2.45273
2.45457
2.45543
2.45457
2.45273
2.45175
2.4537
2.45961
2.4688
2.47912
2.48822
2.49468
2.49839
2.50002
2.50046
2.50041
2.50025
2.50012
2.50004
2.50001
2.5
2.5
2.5
2.5
2.5
2.5
2.5
2.5
2.5
2.5
2.5
2.5
2.49515
2.49099
2.48337
2.47418
2.46647
2.46343
2.46654
2.47463
2.48444
2.49223
2.49517
2.49223
2.48444
2.47463
2.46652
2.46337
2.46633
2.47392
2.48305
2.49091
2.49618
2.49897
2.50008
2.50032
2.50025
2.50014
2.50006
2.50002
2.5
2.5
2.5
2.5
2.5
2.5
2.5
2.5
2.5
2.5
2.5
2.5
2.48863
2.48337
2.47522
2.46884
2.46978
2.48155
2.50329
2.5301
2.55535
2.5731
2.57946
2.5731
2.55535
2.53009
2.50326
2.48147
2.46962
2.46862
2.47517
2.48421
2.49189
2.49678
2.49919
2.50007
2.50024
2.50017
2.50009
2.50003
2.50001
2.5
2.5
2.5
2.5
2.5
2.5
2.5
2.5
2.5
2.5
2.5
2.47937
2.47418
2.46884
2.47176
2.49033
2.52615
2.57386
2.62405
2.66713
2.69583
2.70585
2.69583
2.66713
2.62403
2.57382
2.52605
2.49016
2.47165
2.46933
2.47656
2.48603
2.49341
2.49767
2.49955
2.50013
2.50019
2.50012
2.50005
2.50002
2.50001
2.5
2.5
2.5
2.5
2.5
2.5
2.5
2.5
2.5
2.5
2.46892
2.46647
2.46978
2.49033
2.53483
2.60031
2.67602
2.74889
2.80789
2.84577
2.85877
2.84577
2.80788
2.74887
2.67597
2.60019
2.53469
2.49046
2.47112
2.47103
2.47983
2.48917
2.49549
2.49868
2.49989
2.50017
2.50015
2.50008
2.50003
2.50001
2.5
2.5
2.5
2.5
2.5
2.5
2.5
2.5
2.5
2.5
2.45966
2.46343
2.48155
2.52615
2.60031
2.69525
2.79563
2.88637
2.95659
3.00031
3.01507
3.00031
2.95659
2.88635
2.79557
2.69513
2.60023
2.52663
2.48398
2.47052
2.47491
2.48474
2.49285
2.49749
2.49948
2.50009
2.50015
2.5001
2.50004
2.50001
2.5
2.5
2.5
2.5
2.5
2.5
2.5
2.5
2.5
2.5
2.45371
2.46654
2.50329
2.57386
2.67602
2.79563
2.91427
3.01628
3.09209
3.13784
3.15303
3.13784
3.09208
3.01625
2.9142
2.79552
2.67603
2.57473
2.50689
2.47612
2.47256
2.48092
2.49014
2.49612
2.49896
2.49994
2.50014
2.50011
2.50005
2.50002
2.50001
2.5
2.5
2.5
2.5
2.5
2.5
2.5
2.5
2.5
2.45176
2.47463
2.5301
2.62405
2.74889
2.88637
3.01628
3.1233
3.19971
3.24425
3.25872
3.24425
3.1997
3.12327
3.01621
2.88627
2.74898
2.6253
2.53478
2.48629
2.47296
2.47826
2.48776
2.49478
2.49839
2.49977
2.50011
2.50012
2.50006
2.50002
2.50001
2.5
2.5
2.5
2.5
2.5
2.5
2.5
2.5
2.5
2.45273
2.48444
2.55535
2.66713
2.80789
2.95659
3.09209
3.19971
3.2736
3.31506
3.32818
3.31505
3.27359
3.19968
3.09202
2.9565
2.80807
2.6687
2.56088
2.49759
2.47509
2.47682
2.48599
2.49367
2.49789
2.4996
2.50008
2.50012
2.50007
2.50003
2.50001
2.5
2.5
2.5
2.5
2.5
2.5
2.5
2.5
2.5
2.45457
2.49223
2.5731
2.69583
2.84577
3.00031
3.13784
3.24425
3.31506
3.35345
3.3653
3.35344
3.31505
3.24422
3.13777
3.00023
2.846
2.6976
2.57917
2.50624
2.47732
2.47626
2.48493
2.49294
2.49755
2.49948
2.50005
2.50012
2.50007
2.50003
2.50001
2.5
2.5
2.5
2.5
2.5
2.5
2.5
2.5
2.5
2.45543
2.49517
2.57946
2.70585
2.85877
3.01507
3.15303
3.25872
3.32818
3.3653
3.37664
3.3653
3.32817
3.25869
3.15296
3.01499
2.85902
2.7077
2.58571
2.50946
2.47825
2.47613
2.48458
2.49269
2.49742
2.49943
2.50004
2.50012
2.50007
2.50003
2.50001
2.5
2.5
2.5
2.5
2.5
2.5
2.5
2.5
2.5
2.45457
2.49223
2.5731
2.69583
2.84577
3.00031
3.13784
3.24425
3.31505
3.35344
3.3653
3.35344
3.31504
3.24422
3.13777
3.00023
2.846
2.6976
2.57917
2.50624
2.47732
2.47626
2.48493
2.49294
2.49754
2.49947
2.50004
2.50011
2.50006
2.50002
2.5
2.49999
2.49999
2.49999
2.49999
2.5
2.5
2.5
2.5
2.5
2.45273
2.48444
2.55535
2.66713
2.80788
2.95659
3.09208
3.1997
3.27359
3.31505
3.32817
3.31504
3.27358
3.19967
3.09201
2.9565
2.80806
2.6687
2.56087
2.49759
2.47509
2.47682
2.48598
2.49366
2.49788
2.49959
2.50006
2.50009
2.50004
2.5
2.49998
2.49997
2.49997
2.49998
2.49998
2.49998
2.49999
2.49999
2.5
2.5
2.45175
2.47463
2.53009
2.62403
2.74887
2.88635
3.01625
3.12327
3.19968
3.24422
3.25869
3.24422
3.19967
3.12325
3.01618
2.88624
2.74896
2.62528
2.53477
2.48628
2.47296
2.47825
2.48775
2.49476
2.49836
2.49973
2.50007
2.50007
2.50001
2.49997
2.49995
2.49994
2.49994
2.49995
2.49995
2.49996
2.49997
2.49998
2.49999
2.49999
2.4537
2.46652
2.50326
2.57382
2.67597
2.79557
2.9142
3.01621
3.09202
3.13777
3.15296
3.13777
3.09201
3.01618
2.91413
2.79545
2.67597
2.57468
2.50686
2.47609
2.47254
2.48089
2.49011
2.49607
2.49889
2.49987
2.50007
2.50004
2.49999
2.49996
2.49995
2.49994
2.49993
2.49993
2.49992
2.49993
2.49994
2.49995
2.49996
2.49997
2.45961
2.46337
2.48147
2.52605
2.60019
2.69513
2.79552
2.88627
2.9565
3.00023
3.01499
3.00023
2.9565
2.88624
2.79545
2.69501
2.60011
2.52652
2.4839
2.47045
2.47485
2.48467
2.49278
2.4974
2.49939
2.5
2.50011
2.5001
2.5001
2.50011
2.50011
2.5001
2.50006
2.5
2.49995
2.49992
2.4999
2.4999
2.49992
2.49992
2.4688
2.46633
2.46962
2.49016
2.53469
2.60023
2.67603
2.74898
2.80807
2.846
2.85902
2.846
2.80806
2.74896
2.67597
2.60011
2.53454
2.49028
2.47095
2.47087
2.47969
2.48904
2.49536
2.49857
2.49984
2.50024
2.50039
2.50052
2.50065
2.50076
2.5008
2.50075
2.50062
2.50044
2.50025
2.50007
2.49995
2.49988
2.49985
2.49985
2.47912
2.47392
2.46862
2.47165
2.49046
2.52663
2.57473
2.6253
2.6687
2.6976
2.7077
2.6976
2.6687
2.62528
2.57468
2.52652
2.49028
2.47154
2.46908
2.47629
2.48577
2.49319
2.49753
2.49957
2.50044
2.50092
2.50136
2.50181
2.50222
2.5025
2.5026
2.5025
2.5022
2.50175
2.50123
2.50073
2.5003
2.50001
2.49984
2.49977
2.48822
2.48305
2.47517
2.46933
2.47112
2.48398
2.50689
2.53478
2.56088
2.57917
2.58571
2.57917
2.56087
2.53477
2.50686
2.4839
2.47095
2.46908
2.47509
2.48388
2.49152
2.49653
2.49926
2.50068
2.50165
2.50262
2.50366
2.50466
2.50547
2.50599
2.50617
2.50599
2.50546
2.50462
2.50356
2.50244
2.5014
2.50059
2.50005
2.4998
2.49468
2.49091
2.48421
2.47656
2.47103
2.47052
2.47612
2.48629
2.49759
2.50624
2.50946
2.50624
2.49759
2.48628
2.47609
2.47045
2.47087
2.47629
2.48388
2.49089
2.49592
2.499
2.5009
2.50244
2.50411
2.50596
2.50779
2.50933
2.51041
2.51102
2.51122
2.51102
2.51041
2.50931
2.50773
2.50581
2.50383
2.5021
2.50087
2.50023
2.49839
2.49618
2.49189
2.48603
2.47983
2.47491
2.47256
2.47296
2.47509
2.47732
2.47825
2.47732
2.47509
2.47296
2.47254
2.47485
2.47969
2.48577
2.49152
2.49592
2.4989
2.50103
2.50305
2.50545
2.50823
2.51098
2.51316
2.51446
2.51492
2.51492
2.51486
2.51492
2.51492
2.51444
2.51311
2.51084
2.50797
2.50508
2.50279
2.50154
2.50002
2.49897
2.49678
2.49341
2.48917
2.48474
2.48092
2.47826
2.47682
2.47626
2.47613
2.47626
2.47682
2.47825
2.48089
2.48467
2.48904
2.49319
2.49653
2.499
2.50103
2.50328
2.50625
2.50988
2.51349
2.51603
2.51667
2.51532
2.51279
2.51043
2.50949
2.51043
2.51278
2.51529
2.51661
2.5159
2.51327
2.50964
2.50627
2.50428
2.50046
2.50008
2.49919
2.49767
2.49549
2.49285
2.49014
2.48776
2.48599
2.48493
2.48458
2.48493
2.48598
2.48775
2.49011
2.49278
2.49536
2.49753
2.49926
2.5009
2.50305
2.50625
2.51048
2.51484
2.51758
2.51683
2.51159
2.50265
2.49254
2.48461
2.48162
2.48461
2.49253
2.50261
2.51151
2.51669
2.51744
2.5149
2.51129
2.50882
2.50041
2.50032
2.50007
2.49955
2.49868
2.49749
2.49612
2.49478
2.49367
2.49294
2.49269
2.49294
2.49366
2.49476
2.49607
2.4974
2.49857
2.49957
2.50068
2.50244
2.50545
2.50988
2.51484
2.51803
2.51619
2.5064
2.48796
2.46369
2.4394
2.42163
2.41514
2.42162
2.43938
2.46363
2.48786
2.50628
2.51621
2.51863
2.51693
2.51489
2.50025
2.50025
2.50024
2.50013
2.49989
2.49948
2.49896
2.49839
2.49789
2.49755
2.49742
2.49754
2.49788
2.49836
2.49889
2.49939
2.49984
2.50044
2.50165
2.50411
2.50823
2.51349
2.51758
2.51619
2.50397
2.47702
2.43611
2.38836
2.34474
2.31499
2.30455
2.31498
2.34471
2.38829
2.436
2.47696
2.50429
2.51761
2.52142
2.52145
2.50012
2.50014
2.50017
2.50019
2.50017
2.50009
2.49994
2.49977
2.4996
2.49948
2.49943
2.49947
2.49959
2.49973
2.49987
2.5
2.50024
2.50092
2.50262
2.50596
2.51098
2.51603
2.51683
2.5064
2.47702
2.4247
2.3547
2.28205
2.22324
2.18722
2.17537
2.1872
2.2232
2.28197
2.35462
2.42479
2.47779
2.50891
2.52271
2.52693
2.50004
2.50006
2.50009
2.50012
2.50015
2.50015
2.50014
2.50011
2.50008
2.50005
2.50004
2.50004
2.50006
2.50007
2.50007
2.50011
2.50039
2.50136
2.50366
2.50779
2.51316
2.51667
2.51159
2.48796
2.43611
2.3547
2.25853
2.17294
2.11502
2.08522
2.07649
2.0852
2.11498
2.17288
2.25851
2.35501
2.43747
2.49171
2.51951
2.52995
2.50001
2.50002
2.50003
2.50005
2.50008
2.5001
2.50011
2.50012
2.50012
2.50012
2.50012
2.50011
2.50009
2.50007
2.50004
2.5001
2.50052
2.50181
2.50466
2.50933
2.51446
2.51532
2.50265
2.46369
2.38836
2.28205
2.17294
2.09308
2.05153
2.03644
2.03334
2.03643
2.0515
2.09304
2.17301
2.28261
2.39034
2.46864
2.51231
2.53008
2.5
2.5
2.50001
2.50002
2.50003
2.50004
2.50005
2.50006
2.50007
2.50007
2.50007
2.50006
2.50004
2.50001
2.49999
2.5001
2.50065
2.50222
2.50547
2.51041
2.51492
2.51279
2.49254
2.4394
2.34474
2.22324
2.11502
2.05153
2.03014
2.02955
2.03154
2.02954
2.03011
2.05151
2.11516
2.22403
2.34726
2.44532
2.50344
2.52815
2.5
2.5
2.5
2.50001
2.50001
2.50001
2.50002
2.50002
2.50003
2.50003
2.50003
2.50002
2.5
2.49997
2.49996
2.50011
2.50076
2.5025
2.50599
2.51102
2.51492
2.51043
2.48461
2.42163
2.31499
2.18722
2.08522
2.03644
2.02955
2.03844
2.04363
2.03843
2.02953
2.03644
2.08541
2.18815
2.31785
2.42815
2.49622
2.52588
2.5
2.5
2.5
2.5
2.5
2.5
2.50001
2.50001
2.50001
2.50001
2.50001
2.5
2.49998
2.49995
2.49995
2.50011
2.5008
2.5026
2.50617
2.51122
2.51486
2.50949
2.48162
2.41514
2.30455
2.17537
2.07649
2.03334
2.03154
2.04363
2.04987
2.04361
2.03152
2.03334
2.0767
2.17635
2.30752
2.42187
2.49345
2.5249
2.5
2.5
2.5
2.5
2.5
2.5
2.5
2.5
2.5
2.5
2.5
2.49999
2.49997
2.49994
2.49994
2.5001
2.50075
2.5025
2.50599
2.51102
2.51492
2.51043
2.48461
2.42162
2.31498
2.1872
2.0852
2.03643
2.02954
2.03843
2.04361
2.03841
2.02951
2.03643
2.08539
2.18813
2.31783
2.42815
2.49621
2.52588
2.5
2.5
2.5
2.5
2.5
2.5
2.5
2.5
2.5
2.5
2.5
2.49999
2.49997
2.49994
2.49993
2.50006
2.50062
2.5022
2.50546
2.51041
2.51492
2.51278
2.49253
2.43938
2.34471
2.2232
2.11498
2.0515
2.03011
2.02953
2.03152
2.02951
2.03008
2.05148
2.11512
2.22399
2.34722
2.4453
2.50343
2.52814
2.5
2.5
2.5
2.5
2.5
2.5
2.5
2.5
2.5
2.5
2.5
2.49999
2.49998
2.49995
2.49993
2.5
2.50044
2.50175
2.50462
2.50931
2.51444
2.51529
2.50261
2.46363
2.38829
2.28197
2.17288
2.09304
2.05151
2.03644
2.03334
2.03643
2.05148
2.093
2.17294
2.28253
2.39027
2.46858
2.51227
2.53005
2.5
2.5
2.5
2.5
2.5
2.5
2.5
2.5
2.5
2.5
2.5
2.49999
2.49998
2.49995
2.49992
2.49995
2.50025
2.50123
2.50356
2.50773
2.51311
2.51661
2.51151
2.48786
2.436
2.35462
2.25851
2.17301
2.11516
2.08541
2.0767
2.08539
2.11512
2.17294
2.25848
2.35493
2.43736
2.49161
2.51943
2.52988
2.5
2.5
2.5
2.5
2.5
2.5
2.5
2.5
2.5
2.5
2.5
2.5
2.49998
2.49996
2.49993
2.49992
2.50007
2.50073
2.50244
2.50581
2.51084
2.5159
2.51669
2.50628
2.47696
2.42479
2.35501
2.28261
2.22403
2.18815
2.17635
2.18813
2.22399
2.28253
2.35493
2.42488
2.47773
2.50878
2.52256
2.52678
2.5
2.5
2.5
2.5
2.5
2.5
2.5
2.5
2.5
2.5
2.5
2.5
2.49999
2.49997
2.49994
2.4999
2.49995
2.5003
2.5014
2.50383
2.50797
2.51327
2.51744
2.51621
2.50429
2.47779
2.43747
2.39034
2.34726
2.31785
2.30752
2.31783
2.34722
2.39027
2.43736
2.47773
2.50459
2.51761
2.52126
2.52122
2.5
2.5
2.5
2.5
2.5
2.5
2.5
2.5
2.5
2.5
2.5
2.5
2.49999
2.49998
2.49995
2.4999
2.49988
2.50001
2.50059
2.5021
2.50508
2.50964
2.5149
2.51863
2.51761
2.50891
2.49171
2.46864
2.44532
2.42815
2.42187
2.42815
2.4453
2.46858
2.49161
2.50878
2.51761
2.5192
2.51698
2.51468
2.5
2.5
2.5
2.5
2.5
2.5
2.5
2.5
2.5
2.5
2.5
2.5
2.5
2.49999
2.49996
2.49992
2.49985
2.49984
2.50005
2.50087
2.50279
2.50627
2.51129
2.51693
2.52142
2.52271
2.51951
2.51231
2.50344
2.49622
2.49345
2.49621
2.50343
2.51227
2.51943
2.52256
2.52126
2.51698
2.51214
2.50904
2.5
2.5
2.5
2.5
2.5
2.5
2.5
2.5
2.5
2.5
2.5
2.5
2.5
2.49999
2.49997
2.49992
2.49985
2.49977
2.4998
2.50023
2.50154
2.50428
2.50882
2.51489
2.52145
2.52693
2.52995
2.53008
2.52815
2.52588
2.5249
2.52588
2.52814
2.53005
2.52988
2.52678
2.52122
2.51468
2.50904
2.50581
