# vtk DataFile Version 3.0
Brusselator Concentration Output
ASCII
DATASET STRUCTURED_POINTS
DIMENSIONS 40 40 1
ORIGIN 0.0 0.0 0.0
SPACING 0.005 0.005 1.0
POINT_DATA 1600
SCALARS C1 double 1
LOOKUP_TABLE default
1
1
1
1
1
1.00001
1.00001
1.00002
1.00003
1.00003
1.00003
1.00003
1.00003
1.00002
1.00001
1.00001
1
1
1
1
1
1
1
1
1
1
1
1
1
1
1
1
1
1
1
1
1
1
1
1
1
1
1
1
1.00001
1.00002
1.00003
1.00004
1.00003
1.00002
1.00001
1.00002
1.00003
1.00004
1.00003
1.00002
1.00001
1
1
1
1
1
1
1
1
1
1
1
1
1
1
1
1
1
1
1
1
1
1
1
1
1
1
1.00001
1.00002
1.00004
1.00005
1.00002
0.999931
0.999834
0.999791
0.999834
0.999931
1.00002
1.00005
1.00004
1.00002
1.00001
1
1
1
1
1
1
1
1
1
1
1
1
1
1
1
1
1
1
1
1
1
1
1
1
1.00001
1.00003
1.00005
1.00006
0.999975
0.999722
0.999303
0.998897
0.998735
0.998897
0.999303
0.999722
0.999975
1.00006
1.00005
1.00003
1.00001
1
1
1
1
1
1
1
1
1
1
1
1
1
1
1
1
1
1
1
1
1
1
1.00001
1.00002
1.00005
1.00006
0.999936
0.999466
0.998452
0.997053
0.995875
0.995452
0.995875
0.997053
0.998452
0.999466
0.999936
1.00006
1.00005
1.00002
1.00001
1
1
1
1
1
1
1
1
1
1
1
1
1
1
1
1
1
1
1
1
1.00001
1.00002
1.00004
1.00006
0.999936
0.999346
0.997753
0.994912
0.991596
0.989293
0.988621
0.989293
0.991596
0.994912
0.997753
0.999346
0.999936
1.00006
1.00004
1.00002
1.00001
1
1
1
1
1
1
1
1
1
1
1
1
1
1
1
1
1
1
1
1.00001
1.00003
1.00005
0.999975
0.999466
0.997753
0.993931
0.988207
0.982956
0.98076
0.980708
0.98076
0.982956
0.988207
0.993931
0.997753
0.999466
0.999975
1.00005
1.00003
1.00001
1
1
1
1
1
1
1
1
1
1
1
1
1
1
1
1
1
1
1
1.00002
1.00004
1.00002
0.999722
0.998452
0.994912
0.988207
0.980245
0.976388
0.979532
0.982914
0.979532
0.976388
0.980245
0.988207
0.994912
0.998452
0.999722
1.00001
1.00003
1.00002
1.00001
1
1
1
1
1
1
1
1
1
1
1
1
1
1
1
1
1
1
1.00003
1.00003
0.999931
0.999303
0.997053
0.991596
0.982956
0.976388
0.981526
0.999927
1.01188
0.999927
0.981526
0.976388
0.982956
0.991596
0.997053
0.999303
0.999931
1.00003
1.00002
1.00001
1
1
1
1
1
1
1
1
1
1
1
1
1
1
1
1
1
1
1.00003
1.00002
0.999834
0.998897
0.995875
0.989293
0.98076
0.979532
0.999927
1.04123
1.06565
1.04123
0.999927
0.979532
0.98076
0.989293
0.995875
0.998897
0.999833
1.00001
1.00002
1.00001
1
1
1
1
1
1
1
1
1
1
1
1
1
1
1
1
1
1
1.00003
1.00001
0.999791
0.998735
0.995452
0.988621
0.980708
0.982914
1.01188
1.06565
1.09668
1.06565
1.01188
0.982914
0.980708
0.988621
0.995452
0.998735
0.99979
1.00001
1.00002
1.00001
1
1
1
1
1
1
1
1
1
1
1
1
1
1
1
1
1
1
1.00003
1.00002
0.999834
0.998897
0.995875
0.989293
0.98076
0.979532
0.999927
1.04123
1.06565
1.04123
0.999927
0.979532
0.98076
0.989293
0.995875
0.998897
0.999833
1.00001
1.00002
1.00001
1
1
1
1
1
1
1
1
1
1
1
1
1
1
1
1
1
1
1.00003
1.00003
0.999931
0.999303
0.997053
0.991596
0.982956
0.976388
0.981526
0.999927
1.01188
0.999927
0.981526
0.976388
0.982956
0.991596
0.997053
0.999303
0.999931
1.00003
1.00002
1.00001
1
1
1
1
1
1
1
1
1
1
1
1
1
1
1
1
1
1
1.00002
1.00004
1.00002
0.999722
0.998452
0.994912
0.988207
0.980245
0.976388
0.979532
0.982914
0.979532
0.976388
0.980245
0.988207
0.994912
0.998452
0.999722
1.00001
1.00003
1.00002
1.00001
1
1
1
1
1
1
1
1
1
1
1
1
1
1
1
1
1
1
1.00001
1.00003
1.00005
0.999975
0.999466
0.997753
0.993931
0.988207
0.982956
0.98076
0.980708
0.98076
0.982956
0.988207
0.993931
0.997753
0.999466
0.999975
1.00005
1.00003
1.00001
1
1
1
1
1
1
1
1
1
1
1
1
1
1
1
1
1
1
1
1.00001
1.00002
1.00004
1.00006
0.999936
0.999346
0.997753
0.994912
0.991596
0.989293
0.988621
0.989293
0.991596
0.994912
0.997753
0.999346
0.999936
1.00006
1.00004
1.00002
1.00001
1
1
1
1
1
1
1
1
1
1
1
1
1
1
1
1
1
1
1
1
1.00001
1.00002
1.00005
1.00006
0.999936
0.999466
0.998452
0.997053
0.995875
0.995452
0.995875
0.997053
0.998452
0.999466
0.999936
1.00006
1.00005
1.00002
1.00001
1
1
1
1
1
1
1
1
1
1
1
1
1
1
1
1
1
1
1
1
1
1
1.00001
1.00003
1.00005
1.00006
0.999975
0.999722
0.999303
0.998897
0.998735
0.998897
0.999303
0.999722
0.999975
1.00006
1.00005
1.00003
1.00001
1
1
1
1
1
1
1
1
1
1
1
1
1
1
1
1
1
1
1
1
1
1
1
1
1.00001
1.00002
1.00004
1.00005
1.00001
0.999931
0.999833
0.99979
0.999833
0.999931
1.00001
1.00005
1.00004
1.00002
1.00001
1
1
1
1
1
1
1
1
1
0.999999
0.999999
0.999999
0.999999
0.999999
0.999999
0.999999
1
1
1
1
1
1
1
1
1
1
1.00001
1.00002
1.00003
1.00003
1.00003
1.00001
1.00001
1.00001
1.00003
1.00003
1.00003
1.00002
1.00001
1
1
1
1
1
1
1
1
0.999999
0.999999
0.999998
0.999997
0.999997
0.999996
0.999997
0.999997
0.999998
0.999999
0.999999
1
1
1
1
1
1
1
1
1
1.00001
1.00001
1.00002
1.00002
1.00002
1.00002
1.00002
1.00002
1.00002
1.00001
1.00001
1
1
1
1
1
1
1
1
0.999999
0.999998
0.999996
0.999994
0.999992
0.999991
0.999991
0.999991
0.999992
0.999994
0.999996
0.999998
0.999999
1
1
1
1
1
1
1
1
1
1
1.00001
1.00001
1.00001
1.00001
1.00001
1.00001
1.00001
1
1
1
1
1
1
1
1
1
0.999999
0.999997
0.999993
0.999988
0.999985
0.999985
0.999988
0.999989
0.999988
0.999985
0.999985
0.999988
0.999993
0.999997
0.999999
1
1
1
1
1
1
1
1
1
1
1
1
1
1
1
1
1
1
1
1
1
1
1
1
0.999998
0.999996
0.999991
0.999983
0.999977
0.999982
1
1.00003
1.00005
1.00003
1
0.999982
0.999977
0.999983
0.999991
0.999996
0.999998
0.999999
1
1
1
1
1
1
1
1
1
1
1
1
1
1
1
1
1
1
1
1
1
0.999999
0.999996
0.99999
0.999979
0.999971
0.999987
1.00006
1.00019
1.00033
1.00039
1.00033
1.00019
1.00006
0.999987
0.999971
0.999979
0.99999
0.999996
0.999998
1
1
1
1
1
1
1
1
1
1
1
1
1
1
1
1
1
1
1
1
0.999999
0.999997
0.999991
0.999979
0.999969
0.999993
1.00013
1.00046
1.00097
1.00145
1.00163
1.00145
1.00097
1.00046
1.00013
0.999993
0.999969
0.999979
0.99999
0.999996
1
1
1
1
1
1
1
1
1
1
1
1
1
1
1
1
1
1
1
0.999999
0.999998
0.999993
0.999983
0.999971
0.999993
1.00016
1.00069
1.00175
1.00317
1.00432
1.0047
1.00432
1.00317
1.00175
1.00069
1.00016
0.999993
0.999971
0.999982
0.999991
1
1
1
1
1
1
1
1
1
1
1
1
1
1
1
1
1
1
1
0.999999
0.999996
0.999988
0.999977
0.999987
1.00013
1.00069
1.00211
1.0046
1.0074
1.00908
1.00941
1.00908
1.0074
1.0046
1.00211
1.00069
1.00013
0.999986
0.999976
0.999984
1
1
1
1
1
1
1
1
1
1
1
1
1
1
1
1
1
1
0.999999
0.999998
0.999994
0.999985
0.999982
1.00006
1.00046
1.00175
1.0046
1.00879
1.01209
1.01223
1.01126
1.01223
1.01209
1.00879
1.0046
1.00175
1.00046
1.00006
0.99998
0.999978
1
1
1
1
1
1
1
1
1
1
1
1
1
1
1
1
1
1
0.999999
0.999997
0.999992
0.999985
1
1.00019
1.00097
1.00317
1.0074
1.01209
1.01248
1.00645
1.00191
1.00645
1.01248
1.01209
1.0074
1.00317
1.00097
1.00019
1
0.999976
1
1
1
1
1
1
1
1
1
1
1
1
1
1
1
1
1
1
0.999999
0.999997
0.999991
0.999988
1.00003
1.00033
1.00145
1.00432
1.00908
1.01223
1.00645
0.991255
0.982138
0.991255
1.00645
1.01223
1.00908
1.00432
1.00145
1.00033
1.00003
0.999979
1
1
1
1
1
1
1
1
1
1
1
1
1
1
1
1
1
1
0.999999
0.999996
0.999991
0.999989
1.00005
1.00039
1.00163
1.0047
1.00941
1.01126
1.00191
0.982138
0.970879
0.982138
1.00191
1.01126
1.00941
1.0047
1.00163
1.00039
1.00004
0.99998
1
1
1
1
1
1
1
1
1
1
1
1
1
1
1
1
1
1
0.999999
0.999997
0.999991
0.999988
1.00003
1.00033
1.00145
1.00432
1.00908
1.01223
1.00645
0.991255
0.982138
0.991255
1.00645
1.01223
1.00908
1.00432
1.00145
1.00033
1.00003
0.999979
1
1
1
1
1
1
1
1
1
1
1
1
1
1
1
1
1
1
0.999999
0.999997
0.999992
0.999985
1
1.00019
1.00097
1.00317
1.0074
1.01209
1.01248
1.00645
1.00191
1.00645
1.01248
1.01209
1.0074
1.00317
1.00097
1.00019
1
0.999976
1
1
1
1
1
1
1
1
1
1
1
1
1
1
1
1
1
1
0.999999
0.999998
0.999994
0.999985
0.999982
1.00006
1.00046
1.00175
1.0046
1.00879
1.01209
1.01223
1.01126
1.01223
1.01209
1.00879
1.0046
1.00175
1.00046
1.00006
0.99998
0.999978
1
1
1
1
1
1
1
1
1
1
1
1
1
1
1
1
1
1
1
0.999999
0.999996
0.999988
0.999977
0.999987
1.00013
1.00069
1.00211
1.0046
1.0074
1.00908
1.00941
1.00908
1.0074
1.0046
1.00211
1.00069
1.00013
0.999986
0.999976
0.999984
1
1
1
1
1
1
1
1
1
1
1
1
1
1
1
1
1
1
1
0.999999
0.999998
0.999993
0.999983
0.999971
0.999993
1.00016
1.00069
1.00175
1.00317
1.00432
1.0047
1.00432
1.00317
1.00175
1.00069
1.00016
0.999993
0.999971
0.999982
0.999991
1
1
1
1
1
1
1
1
1
1
1
1
1
1
1
1
1
1
1
1
0.999999
0.999997
0.999991
0.999979
0.999969
0.999993
1.00013
1.00046
1.00097
1.00145
1.00163
1.00145
1.00097
1.00046
1.00013
0.999993
0.999969
0.999979
0.99999
0.999996
1
1
1
1
1
1
1
1
1
1
1
1
1
1
1
1
1
1
1
1
1
0.999999
0.999996
0.99999
0.999979
0.999971
0.999986
1.00006
1.00019
1.00033
1.00039
1.00033
1.00019
1.00006
0.999986
0.999971
0.999979
0.99999
0.999996
0.999998
1
1
1
1
1
1
1
1
1
1
1
1
1
1
1
1
1
1
1
1
1
1
0.999998
0.999996
0.99999
0.999982
0.999976
0.99998
1
1.00003
1.00004
1.00003
1
0.99998
0.999976
0.999982
0.99999
0.999996
0.999998
0.999999
1
1
1
1
1
1
1
1
1
1
1
1
1
1
1
1
1
1
1
1
1
1
0.999999
0.999998
0.999996
0.999991
0.999984
0.999978
0.999976
0.999979
0.99998
0.999979
0.999976
0.999978
0.999984
0.999991
0.999996
0.999998
0.999999
1
SCALARS C2 double 1
LOOKUP_TABLE default
2.5
2.5
2.5
2.5
2.5
2.49999
2.49998
2.49997
2.49996
2.49995
2.49995
2.49995
2.49996
2.49997
2.49998
2.49999
2.5
2.5
2.5
2.5
2.5
2.5
2.5
2.5
2.5
2.5
2.5
2.5
2.5
2.5
2.5
2.5
2.5
2.5
2.5
2.5
2.5
2.5
2.5
2.5
2.5
2.5
2.5
2.5
2.49999
2.49998
2.49995
2.49993
2.49991
2.4999
2.4999
2.4999
2.49991
2.49993
2.49995
2.49998
2.49999
2.5
2.5
2.5
2.5
2.5
2.5
2.5
2.5
2.5
2.5
2.5
2.5
2.5
2.5
2.5
2.5
2.5
2.5
2.5
2.5
2.5
2.5
2.5
2.5
2.5
2.5
2.49999
2.49997
2.49993
2.49988
2.49985
2.49986
2.49991
2.49994
2.49991
2.49986
2.49985
2.49988
2.49993
2.49997
2.49999
2.5
2.5
2.5
2.5
2.5
2.5
2.5
2.5
2.5
2.5
2.5
2.5
2.5
2.5
2.5
2.5
2.5
2.5
2.5
2.5
2.5
2.5
2.5
2.5
2.49999
2.49996
2.49991
2.49984
2.49979
2.49987
2.50016
2.50054
2.50072
2.50054
2.50016
2.49987
2.49979
2.49984
2.49991
2.49996
2.49999
2.5
2.5
2.5
2.5
2.5
2.5
2.5
2.5
2.5
2.5
2.5
2.5
2.5
2.5
2.5
2.5
2.5
2.5
2.5
2.5
2.5
2.5
2.49999
2.49997
2.49991
2.49983
2.49976
2.49993
2.5007
2.5022
2.5038
2.50448
2.5038
2.5022
2.5007
2.49993
2.49976
2.49983
2.49991
2.49997
2.49999
2.5
2.5
2.5
2.5
2.5
2.5
2.5
2.5
2.5
2.5
2.5
2.5
2.5
2.5
2.5
2.5
2.5
2.5
2.5
2.5
2.49999
2.49998
2.49993
2.49984
2.49976
2.49997
2.50121
2.50438
2.50939
2.51414
2.51598
2.51414
2.50939
2.50438
2.50121
2.49997
2.49976
2.49984
2.49993
2.49998
2.49999
2.5
2.5
2.5
2.5
2.5
2.5
2.5
2.5
2.5
2.5
2.5
2.5
2.5
2.5
2.5
2.5
2.5
2.5
2.5
2.49998
2.49995
2.49988
2.49979
2.49993
2.50121
2.50543
2.51429
2.52654
2.5368
2.54027
2.5368
2.52654
2.51429
2.50543
2.50121
2.49993
2.49979
2.49988
2.49996
2.49999
2.5
2.5
2.5
2.5
2.5
2.5
2.5
2.5
2.5
2.5
2.5
2.5
2.5
2.5
2.5
2.5
2.5
2.5
2.5
2.49997
2.49993
2.49985
2.49987
2.5007
2.50438
2.51429
2.53249
2.55458
2.56997
2.5737
2.56997
2.55458
2.53249
2.51429
2.50438
2.5007
2.49987
2.49985
2.49993
2.49998
2.49999
2.5
2.5
2.5
2.5
2.5
2.5
2.5
2.5
2.5
2.5
2.5
2.5
2.5
2.5
2.5
2.5
2.5
2.5
2.49996
2.49991
2.49986
2.50016
2.5022
2.50939
2.52654
2.55458
2.58325
2.59561
2.59371
2.59561
2.58325
2.55458
2.52654
2.50939
2.5022
2.50016
2.49986
2.49991
2.49997
2.49999
2.5
2.5
2.5
2.5
2.5
2.5
2.5
2.5
2.5
2.5
2.5
2.5
2.5
2.5
2.5
2.5
2.5
2.5
2.49995
2.4999
2.49991
2.50054
2.5038
2.51414
2.5368
2.56997
2.59561
2.59053
2.57411
2.59053
2.59561
2.56997
2.5368
2.51414
2.5038
2.50054
2.49991
2.49991
2.49996
2.49999
2.5
2.5
2.5
2.5
2.5
2.5
2.5
2.5
2.5
2.5
2.5
2.5
2.5
2.5
2.5
2.5
2.5
2.5
2.49995
2.4999
2.49994
2.50072
2.50448
2.51598
2.54027
2.5737
2.59371
2.57411
2.54705
2.57411
2.59371
2.5737
2.54027
2.51598
2.50448
2.50072
2.49994
2.49991
2.49996
2.49999
2.5
2.5
2.5
2.5
2.5
2.5
2.5
2.5
2.5
2.5
2.5
2.5
2.5
2.5
2.5
2.5
2.5
2.5
2.49995
2.4999
2.49991
2.50054
2.5038
2.51414
2.5368
2.56997
2.59561
2.59053
2.57411
2.59053
2.59561
2.56997
2.5368
2.51414
2.5038
2.50054
2.49991
2.49991
2.49996
2.49999
2.5
2.5
2.5
2.5
2.5
2.5
2.5
2.5
2.5
2.5
2.5
2.5
2.5
2.5
2.5
2.5
2.5
2.5
2.49996
2.49991
2.49986
2.50016
2.5022
2.50939
2.52654
2.55458
2.58325
2.59561
2.59371
2.59561
2.58325
2.55458
2.52654
2.50939
2.5022
2.50016
2.49986
2.49991
2.49997
2.49999
2.5
2.5
2.5
2.5
2.5
2.5
2.5
2.5
2.5
2.5
2.5
2.5
2.5
2.5
2.5
2.5
2.5
2.5
2.49997
2.49993
2.49985
2.49987
2.5007
2.50438
2.51429
2.53249
2.55458
2.56997
2.5737
2.56997
2.55458
2.53249
2.51429
2.50438
2.5007
2.49987
2.49985
2.49993
2.49998
2.49999
2.5
2.5
2.5
2.5
2.5
2.5
2.5
2.5
2.5
2.5
2.5
2.5
2.5
2.5
2.5
2.5
2.5
2.5
2.49998
2.49995
2.49988
2.49979
2.49993
2.50121
2.50543
2.51429
2.52654
2.5368
2.54027
2.5368
2.52654
2.51429
2.50543
2.50121
2.49993
2.49979
2.49988
2.49996
2.49999
2.5
2.5
2.5
2.5
2.5
2.5
2.5
2.5
2.5
2.5
2.5
2.5
2.5
2.5
2.5
2.5
2.5
2.5
2.5
2.49999
2.49998
2.49993
2.49984
2.49976
2.49997
2.50121
2.50438
2.50939
2.51414
2.51598
2.51414
2.50939
2.50438
2.50121
2.49997
2.49976
2.49984
2.49993
2.49998
2.49999
2.5
2.5
2.5
2.5
2.5
2.5
2.5
2.5
2.5
2.5
2.5
2.5
2.5
2.5
2.5
2.5
2.5
2.5
2.5
2.5
2.49999
2.49997
2.49991
2.49983
2.49976
2.49993
2.5007
2.5022
2.5038
2.50448
2.5038
2.5022
2.5007
2.49993
2.49976
2.49983
2.49991
2.49997
2.49999
2.5
2.5
2.5
2.5
2.5
2.5
2.5
2.5
2.5
2.5
2.5
2.5
2.5
2.5
2.5
2.5
2.5
2.5
2.5
2.5
2.5
2.5
2.49999
2.49996
2.49991
2.49984
2.49979
2.49987
2.50016
2.50054
2.50072
2.50054
2.50016
2.49987
2.49979
2.49984
2.49991
2.49996
2.49999
2.5
2.5
2.5
2.5
2.5
2.5
2.5
2.5
2.5
2.5
2.5
2.5
2.5
2.5
2.5
2.5
2.5
2.5
2.5
2.5
2.5
2.5
2.5
2.5
2.49999
2.49997
2.49993
2.49988
2.49985
2.49986
2.49991
2.49994
2.49991
2.49986
2.49985
2.49988
2.49993
2.49997
2.49999
2.5
2.5
2.5
2.5
2.5
2.5
2.5
2.5
2.5
2.5
2.5
2.5
2.5
2.5
2.5
2.5
2.5
2.5
2.5
2.5
2.5
2.5
2.5
2.5
2.5
2.5
2.49999
2.49998
2.49996
2.49993
2.49991
2.49991
2.49991
2.49991
2.49991
2.49993
2.49996
2.49998
2.49999
2.5
2.5
2.5
2.5
2.5
2.5
2.5
2.5
2.5
2.5
2.5
2.5
2.5
2.5
2.5
2.5
2.5
2.5
2.5
2.5
2.5
2.5
2.5
2.5
2.5
2.5
2.5
2.5
2.49999
2.49999
2.49998
2.49997
2.49996
2.49996
2.49996
2.49997
2.49998
2.49999
2.49999
2.5
2.5
2.5
2.5
2.5
2.5
2.5
2.5
2.5
2.5
2.5
2.50001
2.50001
2.50001
2.50002
2.50001
2.50001
2.50001
2.5
2.5
2.5
2.5
2.5
2.5
2.5
2.5
2.5
2.5
2.5
2.5
2.5
2.49999
2.49999
2.49999
2.49999
2.49999
2.49999
2.49999
2.5
2.5
2.5
2.5
2.5
2.5
2.5
2.5
2.5
2.5
2.5
2.50001
2.50002
2.50003
2.50004
2.50004
2.50004
2.50004
2.50004
2.50003
2.50002
2.50001
2.5
2.5
2.5
2.5
2.5
2.5
2.5
2.5
2.5
2.5
2.5
2.5
2.5
2.5
2.5
2.5
2.5
2.5
2.5
2.5
2.5
2.5
2.5
2.5
2.5
2.5
2.5
2.5
2.50001
2.50003
2.50005
2.50007
2.50007
2.50006
2.50006
2.50006
2.50007
2.50007
2.50005
2.50003
2.50001
2.5
2.5
2.5
2.5
2.5
2.5
2.5
2.5
2.5
2.5
2.5
2.5
2.5
2.5
2.5
2.5
2.5
2.5
2.5
2.5
2.5
2.5
2.5
2.5
2.5
2.5
2.50001
2.50003
2.50006
2.5001
2.50009
2.50003
2.49992
2.49986
2.49992
2.50003
2.50009
2.5001
2.50006
2.50003
2.50001
2.5
2.5
2.5
2.5
2.5
2.5
2.5
2.5
2.5
2.5
2.5
2.5
2.5
2.5
2.5
2.5
2.5
2.5
2.5
2.5
2.5
2.5
2.5
2.5
2.50001
2.50003
2.50007
2.50011
2.5001
2.4999
2.49944
2.49889
2.49864
2.49889
2.49944
2.4999
2.5001
2.50011
2.50007
2.50003
2.50001
2.5
2.5
2.5
2.5
2.5
2.5
2.5
2.5
2.5
2.5
2.5
2.5
2.5
2.5
2.5
2.5
2.5
2.5
2.5
2.5
2.5
2.5
2.50001
2.50003
2.50006
2.50011
2.5001
2.49978
2.49878
2.49697
2.49507
2.49428
2.49507
2.49697
2.49878
2.49978
2.5001
2.50011
2.50006
2.50003
2.50001
2.5
2.5
2.5
2.5
2.5
2.5
2.5
2.5
2.5
2.5
2.5
2.5
2.5
2.5
2.5
2.5
2.5
2.5
2.5
2.5
2.5
2.50002
2.50005
2.5001
2.5001
2.49978
2.49844
2.49522
2.49017
2.4854
2.48361
2.4854
2.49017
2.49522
2.49844
2.49978
2.5001
2.5001
2.50005
2.50002
2.5
2.5
2.5
2.5
2.5
2.5
2.5
2.5
2.5
2.5
2.5
2.5
2.5
2.5
2.5
2.5
2.5
2.5
2.5
2.5
2.50001
2.50003
2.50007
2.50009
2.4999
2.49878
2.49522
2.48773
2.47734
2.46897
2.46648
2.46897
2.47734
2.48773
2.49522
2.49878
2.4999
2.5001
2.50007
2.50004
2.5
2.5
2.5
2.5
2.5
2.5
2.5
2.5
2.5
2.5
2.5
2.5
2.5
2.5
2.5
2.5
2.5
2.5
2.5
2.5
2.50001
2.50004
2.50007
2.50003
2.49944
2.49697
2.49017
2.47734
2.46212
2.45315
2.45224
2.45315
2.46212
2.47734
2.49017
2.49697
2.49944
2.50003
2.50007
2.50005
2.5
2.5
2.5
2.5
2.5
2.5
2.5
2.5
2.5
2.5
2.5
2.5
2.5
2.5
2.5
2.5
2.5
2.5
2.5
2.5
2.50001
2.50004
2.50006
2.49992
2.49889
2.49507
2.4854
2.46897
2.45315
2.44928
2.4529
2.44928
2.45315
2.46897
2.4854
2.49507
2.49889
2.49992
2.50007
2.50005
2.5
2.5
2.5
2.5
2.5
2.5
2.5
2.5
2.5
2.5
2.5
2.5
2.5
2.5
2.5
2.5
2.5
2.5
2.5
2.5
2.50002
2.50004
2.50006
2.49986
2.49864
2.49428
2.48361
2.46648
2.45224
2.4529
2.45962
2.4529
2.45224
2.46648
2.48361
2.49428
2.49864
2.49986
2.50006
2.50006
2.5
2.5
2.5
2.5
2.5
2.5
2.5
2.5
2.5
2.5
2.5
2.5
2.5
2.5
2.5
2.5
2.5
2.5
2.5
2.5
2.50001
2.50004
2.50006
2.49992
2.49889
2.49507
2.4854
2.46897
2.45315
2.44928
2.4529
2.44928
2.45315
2.46897
2.4854
2.49507
2.49889
2.49992
2.50007
2.50005
2.5
2.5
2.5
2.5
2.5
2.5
2.5
2.5
2.5
2.5
2.5
2.5
2.5
2.5
2.5
2.5
2.5
2.5
2.5
2.5
2.50001
2.50004
2.50007
2.50003
2.49944
2.49697
2.49017
2.47734
2.46212
2.45315
2.45224
2.45315
2.46212
2.47734
2.49017
2.49697
2.49944
2.50003
2.50007
2.50005
2.5
2.5
2.5
2.5
2.5
2.5
2.5
2.5
2.5
2.5
2.5
2.5
2.5
2.5
2.5
2.5
2.5
2.5
2.5
2.5
2.50001
2.50003
2.50007
2.50009
2.4999
2.49878
2.49522
2.48773
2.47734
2.46897
2.46648
2.46897
2.47734
2.48773
2.49522
2.49878
2.4999
2.5001
2.50007
2.50004
2.5
2.5
2.5
2.5
2.5
2.5
2.5
2.5
2.5
2.5
2.5
2.5
2.5
2.5
2.5
2.5
2.5
2.5
2.5
2.5
2.5
2.50002
2.50005
2.5001
2.5001
2.49978
2.49844
2.49522
2.49017
2.4854
2.48361
2.4854
2.49017
2.49522
2.49844
2.49978
2.5001
2.5001
2.50005
2.50002
2.5
2.5
2.5
2.5
2.5
2.5
2.5
2.5
2.5
2.5
2.5
2.5
2.5
2.5
2.5
2.5
2.5
2.5
2.5
2.5
2.5
2.50001
2.50003
2.50006
2.50011
2.5001
2.49978
2.49878
2.49697
2.49507
2.49428
2.49507
2.49697
2.49878
2.49978
2.5001
2.50011
2.50006
2.50003
2.50001
2.5
2.5
2.5
2.5
2.5
2.5
2.5
2.5
2.5
2.5
2.5
2.5
2.5
2.5
2.5
2.5
2.5
2.5
2.5
2.5
2.5
2.5
2.50001
2.50003
2.50007
2.50011
2.5001
2.4999
2.49944
2.49889
2.49864
2.49889
2.49944
2.4999
2.5001
2.50011
2.50007
2.50003
2.50001
2.5
2.5
2.5
2.5
2.5
2.5
2.5
2.5
2.5
2.5
2.5
2.5
2.5
2.5
2.5
2.5
2.5
2.5
2.5
2.5
2.5
2.5
2.5
2.5
2.50001
2.50003
2.50006
2.5001
2.5001
2.50003
2.49992
2.49986
2.49992
2.50003
2.5001
2.5001
2.50006
2.50003
2.50001
2.5
2.5
2.5
2.5
2.5
2.5
2.5
2.5
2.5
2.5
2.5
2.5
2.5
2.5
2.5
2.5
2.5
2.5
2.5
2.5
2.5
2.5
2.5
2.5
2.5
2.5
2.50001
2.50003
2.50005
2.50007
2.50007
2.50007
2.50006
2.50007
2.50007
2.50007
2.50005
2.50003
2.50001
2.5
2.5
2.5
2.5
2.5
2.5
2.5
2.5
2.5
2.5
2.5
2.5
2.5
2.5
2.5
2.5
2.5
2.5
2.5
2.5
2.5
2.5
2.5
2.5
2.5
2.5
2.5
2.5
2.50001
2.50002
2.50004
2.50005
2.50005
2.50006
2.50005
2.50005
2.50004
2.50002
2.50001
2.5
2.5
2.5
2.5
