# vtk DataFile Version 3.0
Brusselator Concentration Output
ASCII
DATASET STRUCTURED_POINTS
DIMENSIONS 40 40 1
ORIGIN 0.0 0.0 0.0
SPACING 0.005 0.005 1.0
POINT_DATA 1600
SCALARS C1 double 1
LOOKUP_TABLE default
1.00525
1.00158
0.993618
0.981033
0.964672
0.946635
0.929458
0.915177
0.904872
0.898792
0.8968
0.898794
0.904878
0.915187
0.929463
0.9466
0.964501
0.980529
0.99249
0.999565
1.00247
1.00279
1.00203
1.00114
1.00052
1.00018
1.00004
0.999994
0.999989
0.999993
0.999997
0.999999
1
1
1
1
1
1
1
1
1.00158
0.995929
0.984809
0.969223
0.951351
0.933986
0.919494
0.909075
0.902677
0.899465
0.898524
0.899468
0.902683
0.909082
0.919487
0.933915
0.951102
0.968595
0.983573
0.994071
0.99978
1.00184
1.0019
1.00128
1.00066
1.00027
1.00008
1.00001
0.999993
0.999993
0.999996
0.999999
1
1
1
1
1
1
1
1
0.993618
0.984809
0.96901
0.949694
0.931116
0.916905
0.908924
0.906886
0.90873
0.911545
0.912816
0.911548
0.908735
0.906887
0.908893
0.916769
0.930731
0.94887
0.967689
0.983507
0.994127
0.999563
1.00138
1.0014
1.00089
1.00043
1.00016
1.00004
1
0.999995
0.999996
0.999998
0.999999
1
1
1
1
1
1
1
0.981033
0.969223
0.949694
0.928933
0.913323
0.907092
0.911348
0.923965
0.940086
0.953445
0.95862
0.953449
0.940091
0.923956
0.911281
0.906864
0.912766
0.927919
0.948486
0.969194
0.985515
0.99553
1.00007
1.00129
1.00111
1.00063
1.00027
1.00009
1.00002
0.999998
0.999996
0.999998
0.999999
1
1
1
1
1
1
1
0.964672
0.951351
0.931116
0.913323
0.90625
0.914765
0.939535
0.976582
1.01708
1.04889
1.06099
1.04889
1.01708
0.976558
0.939416
0.914417
0.905504
0.912188
0.930355
0.953464
0.974715
0.989707
0.997736
1.00074
1.00119
1.00082
1.0004
1.00015
1.00004
1
0.999997
0.999997
0.999999
0.999999
1
1
1
1
1
1
0.946635
0.933986
0.916905
0.907092
0.914765
0.946305
1.00321
1.07994
1.1613
1.22438
1.24819
1.22438
1.1613
1.07989
1.00301
0.945806
0.913824
0.905941
0.916957
0.938995
0.963223
0.982646
0.994429
0.999663
1.00107
1.00095
1.00053
1.00022
1.00007
1.00001
0.999998
0.999997
0.999998
0.999999
1
1
1
1
1
1
0.929458
0.919494
0.908924
0.911348
0.939535
1.00321
1.10681
1.24276
1.38347
1.4884
1.52672
1.48841
1.38346
1.24267
1.10652
1.00252
0.938398
0.91029
0.91008
0.927809
0.952685
0.975322
0.990559
0.998169
1.00074
1.00101
1.00064
1.00029
1.0001
1.00002
1
0.999997
0.999998
0.999999
1
1
1
1
1
1
0.915177
0.909075
0.906886
0.923965
0.976582
1.07994
1.24276
1.44977
1.64782
1.77907
1.82279
1.77907
1.64779
1.44963
1.24234
1.07905
0.975261
0.923083
0.909274
0.920643
0.944291
0.968755
0.98673
0.996512
1.00026
1.00098
1.00071
1.00035
1.00013
1.00003
1
0.999998
0.999998
0.999999
1
1
1
1
1
1
0.904872
0.902677
0.90873
0.940086
1.01708
1.1613
1.38347
1.64782
1.86589
1.98478
2.01908
1.98478
1.86586
1.64764
1.38293
1.16021
1.01561
0.939413
0.912254
0.91698
0.938514
0.963703
0.983544
0.995019
0.999779
1.00092
1.00076
1.00039
1.00015
1.00004
1.00001
0.999999
0.999999
1
1
1
1
1
1
1
0.898792
0.899465
0.911545
0.953445
1.04889
1.22438
1.4884
1.77907
1.98478
2.07716
2.09997
2.07715
1.98474
1.77887
1.48779
1.22315
1.04732
0.952941
0.915877
0.915586
0.935255
0.960576
0.981456
0.993988
0.999418
1.00086
1.00078
1.00042
1.00017
1.00005
1.00001
1
0.999999
1
1
1
1
1
1
1
0.8968
0.898524
0.912816
0.95862
1.06099
1.24819
1.52672
1.82279
2.01908
2.09997
2.11841
2.09997
2.01903
1.82258
1.52608
1.24692
1.05938
0.958181
0.91744
0.915282
0.934217
0.959524
0.980732
0.993622
0.999286
1.00083
1.00078
1.00043
1.00017
1.00005
1.00001
0.999997
0.999997
0.999999
1
1
1
1
1
1
0.898794
0.899468
0.911548
0.953449
1.04889
1.22438
1.48841
1.77907
1.98478
2.07715
2.09997
2.07714
1.98473
1.77887
1.4878
1.22316
1.04732
0.952945
0.91588
0.915589
0.935258
0.960579
0.981458
0.99399
0.999418
1.00085
1.00077
1.00041
1.00016
1.00003
0.999993
0.999984
0.999986
0.99999
0.999994
0.999998
1
1
1
1
0.904878
0.902683
0.908735
0.940091
1.01708
1.1613
1.38346
1.64779
1.86586
1.98474
2.01903
1.98473
1.86582
1.64762
1.38292
1.16021
1.01561
0.939417
0.91226
0.916986
0.938521
0.963708
0.983546
0.995015
0.999767
1.0009
1.00072
1.00035
1.0001
0.999985
0.999946
0.99994
0.999946
0.999956
0.999968
0.99998
0.99999
0.999998
1
1.00001
0.915187
0.909082
0.906887
0.923956
0.976558
1.07989
1.24267
1.44963
1.64764
1.77887
1.82258
1.77887
1.64762
1.4495
1.24225
1.079
0.975237
0.923074
0.909275
0.92065
0.944299
0.968758
0.986722
0.996486
1.00021
1.00091
1.00061
1.00022
0.999979
0.999872
0.999837
0.999835
0.999848
0.999869
0.999895
0.999924
0.999951
0.999975
0.999991
1
0.929463
0.919487
0.908893
0.911281
0.939416
1.00301
1.10652
1.24234
1.38293
1.48779
1.52608
1.4878
1.38292
1.24225
1.10622
1.00233
0.938279
0.910223
0.910049
0.927798
0.952678
0.975304
0.990511
0.998076
1.00059
1.0008
1.00038
0.999993
0.999774
0.999682
0.999654
0.999656
0.999673
0.999703
0.999745
0.999797
0.999854
0.999906
0.999947
0.999969
0.9466
0.933915
0.916769
0.906864
0.914417
0.945806
1.00252
1.07905
1.16021
1.22315
1.24692
1.22316
1.16021
1.079
1.00233
0.945308
0.913477
0.905712
0.916816
0.938909
0.963154
0.982555
0.994277
0.999425
1.00074
1.00054
1.00006
0.999722
0.999564
0.999512
0.9995
0.999496
0.999493
0.999501
0.999529
0.999586
0.999666
0.999755
0.99983
0.999874
0.964501
0.951102
0.930731
0.912766
0.905504
0.913824
0.938398
0.975261
1.01561
1.04732
1.05938
1.04732
1.01561
0.975237
0.938279
0.913477
0.904759
0.911625
0.92995
0.953174
0.974474
0.989438
0.997377
1.00026
1.00062
1.00021
0.99984
0.999692
0.999705
0.999769
0.9998
0.999763
0.999664
0.999539
0.999437
0.999393
0.999421
0.999503
0.999596
0.999657
0.980529
0.968595
0.94887
0.927919
0.912188
0.905941
0.91029
0.923083
0.939413
0.952941
0.958181
0.952945
0.939417
0.923074
0.910223
0.905712
0.911625
0.926885
0.947617
0.968486
0.984902
0.994919
0.999403
1.00058
1.00047
1.00025
1.00033
1.00067
1.00111
1.00145
1.00158
1.00145
1.00109
1.00058
1.00005
0.999614
0.999343
0.99924
0.999244
0.999275
0.99249
0.983573
0.967689
0.948486
0.930355
0.916957
0.91008
0.909274
0.912254
0.915877
0.91744
0.91588
0.91226
0.909275
0.910049
0.916816
0.92995
0.947617
0.966284
0.982157
0.992898
0.998451
1.00043
1.0008
1.00098
1.00161
1.00273
1.00411
1.00539
1.00628
1.00661
1.00629
1.00539
1.00406
1.00257
1.00115
1.00004
0.999312
0.998929
0.998782
0.999565
0.994071
0.983507
0.969194
0.953464
0.938995
0.927809
0.920643
0.91698
0.915586
0.915282
0.915589
0.916986
0.92065
0.927798
0.938909
0.953174
0.968486
0.982157
0.992115
0.997823
1.00026
1.00111
1.00187
1.00338
1.00581
1.00884
1.01192
1.01451
1.01621
1.0168
1.01622
1.01452
1.01191
1.00874
1.00549
1.00263
1.00047
0.999105
0.998467
1.00247
0.99978
0.994127
0.985515
0.974715
0.963223
0.952685
0.944291
0.938514
0.935255
0.934217
0.935258
0.938521
0.944299
0.952678
0.963154
0.974474
0.984902
0.992898
0.997823
1.00019
1.00131
1.00261
1.00513
1.00921
1.0145
1.02015
1.02524
1.0291
1.03142
1.03218
1.03142
1.0291
1.02524
1.02008
1.01424
1.00858
1.00388
1.00062
0.998992
1.00279
1.00184
0.999563
0.99553
0.989707
0.982646
0.975322
0.968755
0.963703
0.960576
0.959524
0.960579
0.963708
0.968758
0.975304
0.982555
0.989438
0.994919
0.998451
1.00026
1.00131
1.0029
1.00623
1.0119
1.01961
1.02815
1.03588
1.04157
1.04489
1.04637
1.04675
1.04637
1.04489
1.04155
1.03579
1.02786
1.01898
1.01077
1.00462
1.00138
1.00203
1.0019
1.00138
1.00007
0.997736
0.994429
0.990559
0.98673
0.983544
0.981456
0.980732
0.981458
0.983546
0.986722
0.990511
0.994277
0.997377
0.999403
1.00043
1.00111
1.00261
1.00623
1.01293
1.02264
1.03383
1.04378
1.0499
1.0513
1.04936
1.04666
1.04546
1.04666
1.04935
1.05125
1.04973
1.0434
1.03313
1.02165
1.01211
1.00678
1.00114
1.00128
1.0014
1.00129
1.00074
0.999663
0.998169
0.996512
0.995019
0.993988
0.993622
0.99399
0.995015
0.996486
0.998076
0.999425
1.00026
1.00058
1.0008
1.00187
1.00513
1.0119
1.02264
1.03586
1.04773
1.05338
1.05004
1.03926
1.02591
1.01537
1.01142
1.01536
1.02587
1.03916
1.04979
1.05289
1.04701
1.03526
1.02324
1.01591
1.00052
1.00066
1.00089
1.00111
1.00119
1.00107
1.00074
1.00026
0.999779
0.999418
0.999286
0.999418
0.999767
1.00021
1.00059
1.00074
1.00062
1.00047
1.00098
1.00338
1.00921
1.01961
1.03383
1.04773
1.05409
1.0466
1.02516
0.9963
0.968827
0.949739
0.942971
0.949724
0.968775
0.996158
1.02485
1.04608
1.05353
1.04794
1.0367
1.0285
1.00018
1.00027
1.00043
1.00063
1.00082
1.00095
1.00101
1.00098
1.00092
1.00086
1.00083
1.00085
1.0009
1.00091
1.0008
1.00054
1.00021
1.00025
1.00161
1.00581
1.0145
1.02815
1.04378
1.05338
1.0466
1.0188
0.975906
0.929877
0.891322
0.866472
0.857967
0.866453
0.891257
0.929709
0.975572
1.01834
1.04646
1.05488
1.04974
1.04295
1.00004
1.00008
1.00016
1.00027
1.0004
1.00053
1.00064
1.00071
1.00076
1.00078
1.00078
1.00077
1.00072
1.00061
1.00038
1.00006
0.99984
1.00033
1.00273
1.00884
1.02015
1.03588
1.0499
1.05004
1.02516
0.975906
0.915177
0.857987
0.814007
0.787142
0.778186
0.78712
0.813934
0.857811
0.91486
0.975601
1.02561
1.05316
1.05936
1.05681
0.999994
1.00001
1.00004
1.00009
1.00015
1.00022
1.00029
1.00035
1.00039
1.00042
1.00043
1.00041
1.00035
1.00022
0.999993
0.999722
0.999692
1.00067
1.00411
1.01192
1.02524
1.04157
1.0513
1.03926
0.9963
0.929877
0.857987
0.795963
0.751113
0.724809
0.716217
0.724785
0.75104
0.79579
0.857706
0.929753
0.997371
1.04401
1.06409
1.06783
0.999989
0.999993
1
1.00002
1.00004
1.00007
1.0001
1.00013
1.00015
1.00017
1.00017
1.00016
1.0001
0.999979
0.999774
0.999564
0.999705
1.00111
1.00539
1.01451
1.0291
1.04489
1.04936
1.02591
0.968827
0.891322
0.814007
0.751113
0.707573
0.682792
0.674822
0.682768
0.707501
0.750948
0.813764
0.891357
0.970419
1.03198
1.06477
1.07503
0.999993
0.999993
0.999995
0.999998
1
1.00001
1.00002
1.00003
1.00004
1.00005
1.00005
1.00003
0.999985
0.999872
0.999682
0.999512
0.999769
1.00145
1.00628
1.01621
1.03142
1.04637
1.04666
1.01537
0.949739
0.866472
0.787142
0.724809
0.682792
0.659326
0.651856
0.659303
0.68272
0.724649
0.786926
0.866611
0.951668
1.02229
1.06369
1.07874
0.999997
0.999996
0.999996
0.999996
0.999997
0.999998
1
1
1.00001
1.00001
1.00001
0.999993
0.999946
0.999837
0.999654
0.9995
0.9998
1.00158
1.00661
1.0168
1.03218
1.04675
1.04546
1.01142
0.942971
0.857967
0.778186
0.716217
0.674822
0.651856
0.64457
0.651833
0.674751
0.716059
0.777978
0.858142
0.945014
1.01863
1.06304
1.07984
0.999999
0.999999
0.999998
0.999998
0.999997
0.999997
0.999997
0.999998
0.999999
1
0.999997
0.999984
0.99994
0.999835
0.999656
0.999496
0.999763
1.00145
1.00629
1.01622
1.03142
1.04637
1.04666
1.01536
0.949724
0.866453
0.78712
0.724785
0.682768
0.659303
0.651833
0.65928
0.682697
0.724626
0.786903
0.866591
0.951653
1.02228
1.06369
1.07874
1
1
0.999999
0.999999
0.999999
0.999998
0.999998
0.999998
0.999999
0.999999
0.999997
0.999986
0.999946
0.999848
0.999673
0.999493
0.999664
1.00109
1.00539
1.01452
1.0291
1.04489
1.04935
1.02587
0.968775
0.891257
0.813934
0.75104
0.707501
0.68272
0.674751
0.682697
0.707428
0.750874
0.813692
0.891292
0.970368
1.03195
1.06475
1.07502
1
1
1
1
0.999999
0.999999
0.999999
0.999999
1
1
0.999999
0.99999
0.999956
0.999869
0.999703
0.999501
0.999539
1.00058
1.00406
1.01191
1.02524
1.04155
1.05125
1.03916
0.996158
0.929709
0.857811
0.79579
0.750948
0.724649
0.716059
0.724626
0.750874
0.795618
0.857531
0.929586
0.997229
1.04391
1.06403
1.06779
1
1
1
1
1
1
1
1
1
1
1
0.999994
0.999968
0.999895
0.999745
0.999529
0.999437
1.00005
1.00257
1.00874
1.02008
1.03579
1.04973
1.04979
1.02485
0.975572
0.91486
0.857706
0.813764
0.786926
0.777978
0.786903
0.813692
0.857531
0.914544
0.975268
1.02529
1.05291
1.05917
1.05667
1
1
1
1
1
1
1
1
1
1
1
0.999998
0.99998
0.999924
0.999797
0.999586
0.999393
0.999614
1.00115
1.00549
1.01424
1.02786
1.0434
1.05289
1.04608
1.01834
0.975601
0.929753
0.891357
0.866611
0.858142
0.866591
0.891292
0.929586
0.975268
1.01788
1.04592
1.05437
1.04931
1.04259
1
1
1
1
1
1
1
1
1
1
1
1
0.99999
0.999951
0.999854
0.999666
0.999421
0.999343
1.00004
1.00263
1.00858
1.01898
1.03313
1.04701
1.05353
1.04646
1.02561
0.997371
0.970419
0.951668
0.945014
0.951653
0.970368
0.997229
1.02529
1.04592
1.05295
1.04717
1.03591
1.02774
1
1
1
1
1
1
1
1
1
1
1
1
0.999998
0.999975
0.999906
0.999755
0.999503
0.99924
0.999312
1.00047
1.00388
1.01077
1.02165
1.03526
1.04794
1.05488
1.05316
1.04401
1.03198
1.02229
1.01863
1.02228
1.03195
1.04391
1.05291
1.05437
1.04717
1.03456
1.02213
1.01466
1
1
1
1
1
1
1
1
1
1
1
1
1
0.999991
0.999947
0.99983
0.999596
0.999244
0.998929
0.999105
1.00062
1.00462
1.01211
1.02324
1.0367
1.04974
1.05936
1.06409
1.06477
1.06369
1.06304
1.06369
1.06475
1.06403
1.05917
1.04931
1.03591
1.02213
1.01117
1.00521
1
1
1
1
1
1
1
1
1
1
1
1
1.00001
1
0.999969
0.999874
0.999657
0.999275
0.998782
0.998467
0.998992
1.00138
1.00678
1.01591
1.0285
1.04295
1.05681
1.06783
1.07503
1.07874
1.07984
1.07874
1.07502
1.06779
1.05667
1.04259
1.02774
1.01466
1.00521
1.00034
SCALARS C2 double 1
LOOKUP_TABLE default
2.48615
2.48725
2.49152
2.50177
2.51966
2.54439
2.57283
2.60069
2.62376
2.63886
2.6441
2.63886
2.62375
2.60066
2.5728
2.54435
2.51971
2.50216
2.49276
2.49017
2.49165
2.4945
2.49707
2.49874
2.4996
2.49995
2.50004
2.50004
2.50002
2.50001
2.5
2.5
2.5
2.5
2.5
2.5
2.5
2.5
2.5
2.5
2.48725
2.49158
2.50209
2.52076
2.54772
2.58051
2.61484
2.64609
2.67055
2.68594
2.69116
2.68593
2.67054
2.64607
2.61481
2.58051
2.54788
2.5214
2.5038
2.49509
2.49296
2.49425
2.49645
2.49825
2.49932
2.49982
2.5
2.50003
2.50002
2.50001
2.5
2.5
2.5
2.5
2.5
2.5
2.5
2.5
2.5
2.5
2.49152
2.50209
2.52408
2.55728
2.59892
2.64376
2.68581
2.72024
2.74457
2.75857
2.76307
2.75856
2.74456
2.72022
2.68579
2.64383
2.59929
2.55838
2.52655
2.50637
2.49687
2.49456
2.49561
2.49742
2.4988
2.49957
2.4999
2.50001
2.50002
2.50001
2.50001
2.5
2.5
2.5
2.5
2.5
2.5
2.5
2.5
2.5
2.50177
2.52076
2.55728
2.60736
2.6641
2.71899
2.76429
2.79543
2.81248
2.81935
2.82091
2.81934
2.81246
2.79542
2.7643
2.71918
2.66476
2.60905
2.56058
2.52541
2.50506
2.49663
2.4952
2.49651
2.49813
2.49922
2.49976
2.49996
2.50001
2.50002
2.50001
2.5
2.5
2.5
2.5
2.5
2.5
2.5
2.5
2.5
2.51966
2.54772
2.59892
2.6641
2.73138
2.7884
2.8253
2.83829
2.83222
2.81942
2.81322
2.81941
2.8322
2.83828
2.82537
2.78874
2.73242
2.66643
2.60285
2.55181
2.51835
2.50145
2.49589
2.49588
2.49743
2.49879
2.49956
2.49989
2.5
2.50001
2.50001
2.5
2.5
2.5
2.5
2.5
2.5
2.5
2.5
2.5
2.54439
2.58051
2.64376
2.71899
2.7884
2.83441
2.84361
2.813
2.75619
2.70187
2.67961
2.70185
2.75617
2.81302
2.84377
2.83497
2.78986
2.72193
2.64796
2.58286
2.53596
2.50916
2.49804
2.49578
2.49686
2.49835
2.49934
2.4998
2.49997
2.50001
2.50001
2.50001
2.5
2.5
2.5
2.5
2.5
2.5
2.5
2.5
2.57283
2.61484
2.68581
2.76429
2.8253
2.84361
2.79937
2.69069
2.54815
2.42866
2.38266
2.42864
2.54814
2.69075
2.79966
2.84447
2.82723
2.76773
2.68984
2.61442
2.55563
2.51891
2.50151
2.49632
2.4965
2.49795
2.4991
2.4997
2.49994
2.5
2.50001
2.50001
2.5
2.5
2.5
2.5
2.5
2.5
2.5
2.5
2.60069
2.64609
2.72024
2.79543
2.83829
2.813
2.69069
2.47628
2.23487
2.05709
1.99419
2.05708
2.23486
2.47639
2.69115
2.8142
2.8407
2.79925
2.72374
2.64237
2.57443
2.52908
2.50565
2.49733
2.49638
2.49765
2.4989
2.49961
2.4999
2.49999
2.50001
2.50001
2.5
2.5
2.5
2.5
2.5
2.5
2.5
2.5
2.62376
2.67055
2.74457
2.81248
2.83222
2.75619
2.54815
2.23487
1.93227
1.74183
1.68078
1.74182
1.93228
2.23502
2.54877
2.75771
2.83505
2.81652
2.74738
2.66369
2.58971
2.53788
2.50956
2.49848
2.49643
2.49745
2.49873
2.49952
2.49987
2.49999
2.50001
2.50001
2.5
2.5
2.5
2.5
2.5
2.5
2.5
2.5
2.63886
2.68594
2.75857
2.81935
2.81942
2.70187
2.42866
2.05709
1.74183
1.56662
1.51435
1.56661
1.74184
2.05728
2.42939
2.70363
2.82254
2.8235
2.76079
2.67681
2.59956
2.5438
2.51232
2.49937
2.49652
2.49734
2.49863
2.49947
2.49985
2.49998
2.50001
2.5
2.5
2.5
2.5
2.5
2.5
2.5
2.5
2.5
2.6441
2.69116
2.76307
2.82091
2.81322
2.67961
2.38266
1.99419
1.68078
1.51435
1.46593
1.51434
1.6808
1.99438
2.38343
2.68146
2.81645
2.82509
2.76506
2.68122
2.60296
2.54589
2.51331
2.49971
2.49657
2.4973
2.4986
2.49945
2.49984
2.49997
2.5
2.5
2.5
2.5
2.49999
2.49999
2.5
2.5
2.5
2.5
2.63886
2.68593
2.75856
2.81934
2.81941
2.70185
2.42864
2.05708
1.74182
1.56661
1.51434
1.5666
1.74183
2.05726
2.42938
2.70361
2.82253
2.82349
2.76078
2.67681
2.59956
2.5438
2.51232
2.49937
2.49652
2.49733
2.49863
2.49947
2.49985
2.49998
2.50001
2.50001
2.5
2.5
2.49999
2.49999
2.49999
2.49999
2.49999
2.49999
2.62375
2.67054
2.74456
2.81246
2.8322
2.75617
2.54814
2.23486
1.93228
1.74184
1.6808
1.74183
1.93228
2.23502
2.54876
2.75769
2.83504
2.81651
2.74737
2.66368
2.5897
2.53787
2.50955
2.49847
2.49642
2.49745
2.49875
2.49955
2.49991
2.50003
2.50005
2.50005
2.50004
2.50003
2.50001
2.5
2.49999
2.49999
2.49999
2.49999
2.60066
2.64607
2.72022
2.79542
2.83828
2.81302
2.69075
2.47639
2.23502
2.05728
1.99438
2.05726
2.23502
2.47649
2.6912
2.81421
2.8407
2.79923
2.72372
2.64234
2.57441
2.52906
2.50564
2.49733
2.4964
2.4977
2.49899
2.49973
2.50006
2.50017
2.5002
2.50019
2.50016
2.50013
2.50009
2.50005
2.50002
2.5
2.49999
2.49998
2.5728
2.61481
2.68579
2.7643
2.82537
2.84377
2.79966
2.69115
2.54877
2.42939
2.38343
2.42938
2.54876
2.6912
2.79994
2.84463
2.82731
2.76775
2.68983
2.61439
2.5556
2.51889
2.50152
2.49638
2.49663
2.49818
2.49942
2.50011
2.50041
2.50052
2.50054
2.50052
2.50048
2.5004
2.50032
2.50022
2.50013
2.50006
2.50001
2.49999
2.54435
2.58051
2.64383
2.71918
2.78874
2.83497
2.84447
2.8142
2.75771
2.70363
2.68146
2.70361
2.75769
2.81421
2.84463
2.83554
2.7902
2.72211
2.64803
2.58287
2.53596
2.50919
2.49816
2.49604
2.49728
2.49897
2.50014
2.50076
2.50104
2.50115
2.50117
2.50114
2.50107
2.50096
2.5008
2.50062
2.50043
2.50025
2.50013
2.50006
2.51971
2.54788
2.59929
2.66476
2.73242
2.78986
2.82723
2.8407
2.83505
2.82254
2.81645
2.82253
2.83504
2.8407
2.82731
2.7902
2.73344
2.6671
2.60323
2.55201
2.51849
2.50165
2.49629
2.49656
2.49844
2.50011
2.50113
2.50162
2.5018
2.50185
2.50185
2.50184
2.50181
2.50173
2.50156
2.50132
2.50101
2.5007
2.50044
2.5003
2.50216
2.5214
2.55838
2.60905
2.66643
2.72193
2.76773
2.79925
2.81652
2.8235
2.82509
2.82349
2.81651
2.79923
2.76775
2.72211
2.6671
2.61076
2.56173
2.52616
2.50564
2.4973
2.4962
2.49795
2.49999
2.50135
2.50196
2.50203
2.50184
2.50162
2.50153
2.50161
2.50182
2.50206
2.5022
2.50214
2.50187
2.50148
2.50111
2.50088
2.49276
2.5038
2.52655
2.56058
2.60285
2.64796
2.68984
2.72374
2.74738
2.76079
2.76506
2.76078
2.74737
2.72372
2.68983
2.64803
2.60323
2.56173
2.52913
2.50829
2.49844
2.49617
2.49757
2.49977
2.5013
2.50173
2.50119
2.50006
2.49879
2.49783
2.49747
2.49782
2.49877
2.50005
2.50129
2.50217
2.50254
2.50247
2.50218
2.50194
2.49017
2.49509
2.50637
2.52541
2.55181
2.58286
2.61442
2.64237
2.66369
2.67681
2.68122
2.67681
2.66368
2.64234
2.61439
2.58287
2.55201
2.52616
2.50829
2.49893
2.49626
2.49736
2.49953
2.50098
2.50086
2.49901
2.49579
2.49192
2.4883
2.48575
2.48483
2.48574
2.48827
2.49189
2.4958
2.49923
2.50165
2.50295
2.50342
2.50349
2.49165
2.49296
2.49687
2.50506
2.51835
2.53596
2.55563
2.57443
2.58971
2.59956
2.60296
2.59956
2.5897
2.57441
2.5556
2.53596
2.51849
2.50564
2.49844
2.49626
2.49729
2.49936
2.50061
2.4997
2.49595
2.48946
2.48109
2.47233
2.46476
2.45971
2.45793
2.45969
2.46474
2.47229
2.48109
2.48961
2.49655
2.50129
2.50393
2.50502
2.4945
2.49425
2.49456
2.49663
2.50145
2.50916
2.51891
2.52908
2.53788
2.5438
2.54589
2.5438
2.53787
2.52906
2.51889
2.50919
2.50165
2.4973
2.49617
2.49736
2.49936
2.50045
2.49887
2.49323
2.48294
2.46874
2.4527
2.43753
2.42554
2.41807
2.41555
2.41806
2.42552
2.43751
2.45273
2.46897
2.48364
2.49487
2.502
2.50533
2.49707
2.49645
2.49561
2.4952
2.49589
2.49804
2.50151
2.50565
2.50956
2.51232
2.51331
2.51232
2.50955
2.50564
2.50152
2.49816
2.49629
2.4962
2.49757
2.49953
2.50061
2.49887
2.49213
2.47878
2.45888
2.43492
2.41124
2.39192
2.37892
2.37195
2.36982
2.37194
2.37891
2.39193
2.41137
2.43535
2.45992
2.4808
2.49526
2.50246
2.49874
2.49825
2.49742
2.49651
2.49588
2.49578
2.49632
2.49733
2.49848
2.49937
2.49971
2.49937
2.49847
2.49733
2.49638
2.49604
2.49656
2.49795
2.49977
2.50098
2.4997
2.49323
2.47878
2.45511
2.42447
2.39303
2.36803
2.3534
2.34798
2.34752
2.3479
2.34751
2.34799
2.35348
2.36831
2.39375
2.42595
2.45752
2.48155
2.4942
2.4996
2.49932
2.4988
2.49813
2.49743
2.49686
2.4965
2.49638
2.49643
2.49652
2.49657
2.49652
2.49642
2.4964
2.49663
2.49728
2.49844
2.49999
2.5013
2.50086
2.49595
2.48294
2.45888
2.42447
2.38666
2.35673
2.34308
2.34569
2.35733
2.36886
2.37351
2.36887
2.35736
2.34583
2.34351
2.35773
2.38851
2.42693
2.46032
2.47914
2.49995
2.49982
2.49957
2.49922
2.49879
2.49835
2.49795
2.49765
2.49745
2.49734
2.4973
2.49733
2.49745
2.4977
2.49818
2.49897
2.50011
2.50135
2.50173
2.49901
2.48946
2.46874
2.43492
2.39303
2.35673
2.34102
2.35103
2.37924
2.41209
2.4371
2.44632
2.43711
2.41214
2.37944
2.35158
2.34221
2.35867
2.39491
2.4337
2.45773
2.50004
2.5
2.4999
2.49976
2.49956
2.49934
2.4991
2.4989
2.49873
2.49863
2.4986
2.49863
2.49875
2.49899
2.49942
2.50014
2.50113
2.50196
2.50119
2.49579
2.48109
2.4527
2.41124
2.36803
2.34308
2.35103
2.38969
2.44385
2.49584
2.53217
2.5451
2.53218
2.49591
2.44409
2.39032
2.3523
2.34484
2.36871
2.40619
2.43271
2.50004
2.50003
2.50001
2.49996
2.49989
2.4998
2.4997
2.49961
2.49952
2.49947
2.49945
2.49947
2.49955
2.49973
2.50011
2.50076
2.50162
2.50203
2.50006
2.49192
2.47233
2.43753
2.39192
2.3534
2.34569
2.37924
2.44385
2.51883
2.58491
2.6291
2.64452
2.62911
2.58499
2.51909
2.44452
2.3805
2.34709
2.35255
2.38258
2.4083
2.50002
2.50002
2.50002
2.50001
2.5
2.49997
2.49994
2.4999
2.49987
2.49985
2.49984
2.49985
2.49991
2.50006
2.50041
2.50104
2.5018
2.50184
2.49879
2.4883
2.46476
2.42554
2.37892
2.34798
2.35733
2.41209
2.49584
2.58491
2.65991
2.70882
2.7257
2.70883
2.65998
2.58518
2.49653
2.41331
2.35834
2.34568
2.36575
2.3885
2.50001
2.50001
2.50001
2.50002
2.50001
2.50001
2.5
2.49999
2.49999
2.49998
2.49997
2.49998
2.50003
2.50017
2.50052
2.50115
2.50185
2.50162
2.49783
2.48575
2.45971
2.41807
2.37195
2.34752
2.36886
2.4371
2.53217
2.6291
2.70882
2.76014
2.77776
2.76016
2.70889
2.62937
2.53286
2.43828
2.3696
2.3442
2.35619
2.37589
2.5
2.5
2.50001
2.50001
2.50001
2.50001
2.50001
2.50001
2.50001
2.50001
2.5
2.50001
2.50005
2.5002
2.50054
2.50117
2.50185
2.50153
2.49747
2.48483
2.45793
2.41555
2.36982
2.3479
2.37351
2.44632
2.5451
2.64452
2.7257
2.77776
2.7956
2.77778
2.72578
2.64479
2.54579
2.44749
2.37416
2.34423
2.35315
2.3716
2.5
2.5
2.5
2.5
2.5
2.50001
2.50001
2.50001
2.50001
2.5
2.5
2.50001
2.50005
2.50019
2.50052
2.50114
2.50184
2.50161
2.49782
2.48574
2.45969
2.41806
2.37194
2.34751
2.36887
2.43711
2.53218
2.62911
2.70883
2.76016
2.77778
2.76018
2.70891
2.62938
2.53287
2.43829
2.36961
2.3442
2.35618
2.37588
2.5
2.5
2.5
2.5
2.5
2.5
2.5
2.5
2.5
2.5
2.5
2.5
2.50004
2.50016
2.50048
2.50107
2.50181
2.50182
2.49877
2.48827
2.46474
2.42552
2.37891
2.34799
2.35736
2.41214
2.49591
2.58499
2.65998
2.70889
2.72578
2.70891
2.66006
2.58526
2.49659
2.41336
2.35838
2.34569
2.36574
2.38847
2.5
2.5
2.5
2.5
2.5
2.5
2.5
2.5
2.5
2.5
2.5
2.5
2.50003
2.50013
2.5004
2.50096
2.50173
2.50206
2.50005
2.49189
2.47229
2.43751
2.39193
2.35348
2.34583
2.37944
2.44409
2.51909
2.58518
2.62937
2.64479
2.62938
2.58526
2.51935
2.44475
2.3807
2.34723
2.35262
2.3826
2.40829
2.5
2.5
2.5
2.5
2.5
2.5
2.5
2.5
2.5
2.5
2.49999
2.49999
2.50001
2.50009
2.50032
2.5008
2.50156
2.5022
2.50129
2.4958
2.48109
2.45273
2.41137
2.36831
2.34351
2.35158
2.39032
2.44452
2.49653
2.53286
2.54579
2.53287
2.49659
2.44475
2.39095
2.35285
2.34527
2.36899
2.40633
2.43278
2.5
2.5
2.5
2.5
2.5
2.5
2.5
2.5
2.5
2.5
2.49999
2.49999
2.5
2.50005
2.50022
2.50062
2.50132
2.50214
2.50217
2.49923
2.48961
2.46897
2.43535
2.39375
2.35773
2.34221
2.3523
2.3805
2.41331
2.43828
2.44749
2.43829
2.41336
2.3807
2.35285
2.3434
2.35968
2.39565
2.43418
2.45805
2.5
2.5
2.5
2.5
2.5
2.5
2.5
2.5
2.5
2.5
2.5
2.49999
2.49999
2.50002
2.50013
2.50043
2.50101
2.50187
2.50254
2.50165
2.49655
2.48364
2.45992
2.42595
2.38851
2.35867
2.34484
2.34709
2.35834
2.3696
2.37416
2.36961
2.35838
2.34723
2.34527
2.35968
2.39037
2.42846
2.46148
2.48005
2.5
2.5
2.5
2.5
2.5
2.5
2.5
2.5
2.5
2.5
2.5
2.49999
2.49999
2.5
2.50006
2.50025
2.5007
2.50148
2.50247
2.50295
2.50129
2.49487
2.4808
2.45752
2.42693
2.39491
2.36871
2.35255
2.34568
2.3442
2.34423
2.3442
2.34569
2.35262
2.36899
2.39565
2.42846
2.46005
2.48379
2.49619
2.5
2.5
2.5
2.5
2.5
2.5
2.5
2.5
2.5
2.5
2.5
2.49999
2.49999
2.49999
2.50001
2.50013
2.50044
2.50111
2.50218
2.50342
2.50393
2.502
2.49526
2.48155
2.46032
2.4337
2.40619
2.38258
2.36575
2.35619
2.35315
2.35618
2.36574
2.3826
2.40633
2.43418
2.46148
2.48379
2.49873
2.50598
2.5
2.5
2.5
2.5
2.5
2.5
2.5
2.5
2.5
2.5
2.5
2.49999
2.49999
2.49998
2.49999
2.50006
2.5003
2.50088
2.50194
2.50349
2.50502
2.50533
2.50246
2.4942
2.47914
2.45773
2.43271
2.4083
2.3885
2.37589
2.3716
2.37588
2.38847
2.40829
2.43278
2.45805
2.48005
2.49619
2.50598
2.51039
