# vtk DataFile Version 3.0
Brusselator Concentration Output
ASCII
DATASET STRUCTURED_POINTS
DIMENSIONS 40 40 1
ORIGIN 0.0 0.0 0.0
SPACING 0.005 0.005 1.0
POINT_DATA 1600
SCALARS C1 double 1
LOOKUP_TABLE default
1
1
1
1
1
1
1.00001
1.00002
1.00002
1.00003
1.00003
1.00003
1.00002
1.00002
1.00001
1
1
1
1
1
1
1
1
1
1
1
1
1
1
1
1
1
1
1
1
1
1
1
1
1
1
1
1
1
1.00001
1.00001
1.00003
1.00004
1.00005
1.00005
1.00005
1.00005
1.00005
1.00004
1.00003
1.00001
1.00001
1
1
1
1
1
1
1
1
1
1
1
1
1
1
1
1
1
1
1
1
1
1
1
1
1
1
1.00001
1.00002
1.00004
1.00007
1.00008
1.00007
1.00003
1.00001
1.00003
1.00007
1.00008
1.00007
1.00004
1.00002
1.00001
1
1
1
1
1
1
1
1
1
1
1
1
1
1
1
1
1
1
1
1
1
1
1
1
1.00001
1.00002
1.00005
1.00009
1.00011
1.00004
0.999829
0.999568
0.999452
0.999568
0.999829
1.00004
1.00011
1.00009
1.00005
1.00002
1.00001
1
1
1
1
1
1
1
1
1
1
1
1
1
1
1
1
1
1
1
1
1
1
1.00001
1.00002
1.00005
1.0001
1.00013
0.999977
0.999426
0.998426
0.997409
0.997002
0.997409
0.998426
0.999426
0.999977
1.00013
1.0001
1.00005
1.00002
1.00001
1
1
1
1
1
1
1
1
1
1
1
1
1
1
1
1
1
1
1
1
1
1.00001
1.00004
1.00009
1.00013
0.999944
0.999064
0.996947
0.993809
0.991071
0.99011
0.991071
0.993809
0.996947
0.999064
0.999944
1.00013
1.00009
1.00004
1.00001
1
1
1
1
1
1
1
1
1
1
1
1
1
1
1
1
1
1
1
1
1.00001
1.00003
1.00007
1.00011
0.999977
0.999064
0.996237
0.990699
0.983791
0.978891
0.977592
0.978891
0.983791
0.990699
0.996237
0.999064
0.999977
1.00011
1.00007
1.00003
1.00001
1
1
1
1
1
1
1
1
1
1
1
1
1
1
1
1
1
1
1
1.00002
1.00004
1.00008
1.00004
0.999426
0.996947
0.990699
0.980372
0.970082
0.965644
0.96591
0.965644
0.970082
0.980372
0.990699
0.996947
0.999426
1.00004
1.00008
1.00004
1.00001
1
1
1
1
1
1
1
1
1
1
1
1
1
1
1
1
1
1
1
1.00002
1.00005
1.00007
0.999829
0.998426
0.993809
0.983791
0.970082
0.961307
0.964983
0.971305
0.964983
0.961307
0.970082
0.983791
0.993809
0.998426
0.999829
1.00007
1.00005
1.00002
1.00001
1
1
1
1
1
1
1
1
1
1
1
1
1
1
1
1
1
1
1.00003
1.00005
1.00003
0.999568
0.997409
0.991071
0.978891
0.965644
0.964983
0.985128
1.00231
0.985128
0.964983
0.965644
0.978891
0.991071
0.997409
0.999568
1.00003
1.00005
1.00002
1.00001
1
1
1
1
1
1
1
1
1
1
1
1
1
1
1
1
1
1
1.00003
1.00005
1.00001
0.999452
0.997002
0.99011
0.977592
0.96591
0.971305
1.00231
1.0265
1.00231
0.971305
0.96591
0.977592
0.99011
0.997002
0.999452
1.00001
1.00005
1.00002
1.00001
1
1
1
1
1
1
1
1
1
1
1
1
1
1
1
1
1
1
1.00003
1.00005
1.00003
0.999568
0.997409
0.991071
0.978891
0.965644
0.964983
0.985128
1.00231
0.985128
0.964983
0.965644
0.978891
0.991071
0.997409
0.999568
1.00003
1.00005
1.00002
1.00001
1
1
1
1
1
1
1
1
1
1
1
1
1
1
1
1
1
1
1.00002
1.00005
1.00007
0.999829
0.998426
0.993809
0.983791
0.970082
0.961307
0.964983
0.971305
0.964983
0.961307
0.970082
0.983791
0.993809
0.998426
0.999829
1.00007
1.00005
1.00002
1.00001
1
1
1
1
1
1
1
1
1
1
1
1
1
1
1
1
1
1
1.00002
1.00004
1.00008
1.00004
0.999426
0.996947
0.990699
0.980372
0.970082
0.965644
0.96591
0.965644
0.970082
0.980372
0.990699
0.996947
0.999426
1.00004
1.00008
1.00004
1.00001
1
1
1
1
1
1
1
1
1
1
1
1
1
1
1
1
1
1
1
1.00001
1.00003
1.00007
1.00011
0.999977
0.999064
0.996237
0.990699
0.983791
0.978891
0.977592
0.978891
0.983791
0.990699
0.996237
0.999064
0.999977
1.00011
1.00007
1.00003
1.00001
1
1
1
1
1
1
1
1
1
1
1
1
1
1
1
1
1
1
1
1
1.00001
1.00004
1.00009
1.00013
0.999944
0.999064
0.996947
0.993809
0.991071
0.99011
0.991071
0.993809
0.996947
0.999064
0.999944
1.00013
1.00009
1.00004
1.00001
1
1
1
1
1
1
1
1
1
1
1
1
1
1
1
1
1
1
1
1
1
1.00001
1.00002
1.00005
1.0001
1.00013
0.999977
0.999426
0.998426
0.997409
0.997002
0.997409
0.998426
0.999426
0.999977
1.00013
1.0001
1.00005
1.00002
1.00001
1
1
1
1
1
1
1
1
1
1
1
1
1
1
1
1
1
1
1
1
1
1
1.00001
1.00002
1.00005
1.00009
1.00011
1.00004
0.999829
0.999568
0.999452
0.999568
0.999829
1.00004
1.00011
1.00009
1.00005
1.00002
1.00001
1
1
1
1
1
1
1
1
1
1
1
1
1
1
1
1
1
1
1
1
1
1
1
1
1.00001
1.00002
1.00004
1.00007
1.00008
1.00007
1.00003
1.00001
1.00003
1.00007
1.00008
1.00007
1.00004
1.00002
1.00001
1
1
1
1
1
1
1
1
1
1
1
0.999999
0.999999
0.999999
1
1
1
1
1
1
1
1
1
1
1
1
1.00001
1.00001
1.00003
1.00004
1.00005
1.00005
1.00005
1.00005
1.00005
1.00004
1.00003
1.00001
1.00001
1
1
1
1
1
1
1
1
1
0.999999
0.999999
0.999998
0.999998
0.999997
0.999998
0.999998
0.999999
0.999999
1
1
1
1
1
1
1
1
1
1
1
1.00001
1.00001
1.00002
1.00002
1.00002
1.00002
1.00002
1.00001
1.00001
1
1
1
1
1
1
1
1
1
0.999999
0.999999
0.999997
0.999995
0.999993
0.999992
0.999991
0.999992
0.999993
0.999995
0.999997
0.999999
0.999999
1
1
1
1
1
1
1
1
1
1
1
1.00001
1.00001
1.00001
1.00001
1.00001
1
1
1
1
1
1
1
1
1
1
0.999999
0.999998
0.999995
0.999991
0.999985
0.99998
0.999978
0.999978
0.999978
0.99998
0.999985
0.999991
0.999995
0.999998
0.999999
1
1
1
1
1
1
1
1
1
1
1
1
1
1
1
1
1
1
1
1
1
1
1
1
0.999999
0.999997
0.999993
0.999985
0.999974
0.999964
0.999964
0.999972
0.999977
0.999972
0.999964
0.999964
0.999974
0.999985
0.999993
0.999997
0.999999
1
1
1
1
1
1
1
1
1
1
1
1
1
1
1
1
1
1
1
1
1
1
0.999999
0.999997
0.999993
0.999982
0.999964
0.999948
0.999957
1.00001
1.00009
1.00013
1.00009
1.00001
0.999957
0.999948
0.999964
0.999982
0.999993
0.999997
0.999999
1
1
1
1
1
1
1
1
1
1
1
1
1
1
1
1
1
1
1
1
0.999999
0.999998
0.999993
0.999982
0.99996
0.999939
0.999961
1.00011
1.00043
1.00079
1.00095
1.00079
1.00043
1.00011
0.999961
0.999939
0.99996
0.999982
0.999993
0.999997
1
1
1
1
1
1
1
1
1
1
1
1
1
1
1
1
1
1
1
1
0.999999
0.999995
0.999985
0.999964
0.999939
0.999965
1.0002
1.00089
1.00205
1.00321
1.00366
1.00321
1.00205
1.00089
1.0002
0.999965
0.999939
0.999964
0.999985
0.999994
1
1
1
1
1
1
1
1
1
1
1
1
1
1
1
1
1
1
1
0.999999
0.999997
0.999991
0.999974
0.999948
0.999961
1.0002
1.00112
1.0032
1.00625
1.00885
1.00969
1.00885
1.00625
1.0032
1.00112
1.0002
0.999961
0.999948
0.999973
0.999988
1
1
1
1
1
1
1
1
1
1
1
1
1
1
1
1
1
1
1
0.999999
0.999995
0.999985
0.999964
0.999957
1.00011
1.00089
1.0032
1.00773
1.01335
1.0169
1.01742
1.0169
1.01335
1.00773
1.0032
1.00089
1.00011
0.999956
0.999963
0.99998
1
1
1
1
1
1
1
1
1
1
1
1
1
1
1
1
1
1
1
0.999998
0.999993
0.99998
0.999964
1.00001
1.00043
1.00205
1.00625
1.01335
1.01994
1.02076
1.0186
1.02076
1.01994
1.01335
1.00625
1.00205
1.00043
1.00001
0.999962
0.999973
1
1
1
1
1
1
1
1
1
1
1
1
1
1
1
1
1
1
0.999999
0.999998
0.999992
0.999978
0.999972
1.00009
1.00079
1.00321
1.00885
1.0169
1.02076
1.01408
1.00698
1.01408
1.02076
1.0169
1.00885
1.00321
1.00079
1.00009
0.999969
0.99997
1
1
1
1
1
1
1
1
1
1
1
1
1
1
1
1
1
1
0.999999
0.999997
0.999991
0.999978
0.999977
1.00013
1.00095
1.00366
1.00969
1.01742
1.0186
1.00698
0.997001
1.00698
1.0186
1.01742
1.00969
1.00366
1.00095
1.00013
0.999975
0.999969
1
1
1
1
1
1
1
1
1
1
1
1
1
1
1
1
1
1
0.999999
0.999998
0.999992
0.999978
0.999972
1.00009
1.00079
1.00321
1.00885
1.0169
1.02076
1.01408
1.00698
1.01408
1.02076
1.0169
1.00885
1.00321
1.00079
1.00009
0.999969
0.99997
1
1
1
1
1
1
1
1
1
1
1
1
1
1
1
1
1
1
1
0.999998
0.999993
0.99998
0.999964
1.00001
1.00043
1.00205
1.00625
1.01335
1.01994
1.02076
1.0186
1.02076
1.01994
1.01335
1.00625
1.00205
1.00043
1.00001
0.999962
0.999973
1
1
1
1
1
1
1
1
1
1
1
1
1
1
1
1
1
1
1
0.999999
0.999995
0.999985
0.999964
0.999957
1.00011
1.00089
1.0032
1.00773
1.01335
1.0169
1.01742
1.0169
1.01335
1.00773
1.0032
1.00089
1.00011
0.999956
0.999963
0.99998
1
1
1
1
1
1
1
1
1
1
1
1
1
1
1
1
1
1
1
0.999999
0.999997
0.999991
0.999974
0.999948
0.999961
1.0002
1.00112
1.0032
1.00625
1.00885
1.00969
1.00885
1.00625
1.0032
1.00112
1.0002
0.999961
0.999948
0.999973
0.999988
1
1
1
1
1
1
1
1
1
1
1
1
1
1
1
1
1
1
1
1
0.999999
0.999995
0.999985
0.999964
0.999939
0.999965
1.0002
1.00089
1.00205
1.00321
1.00366
1.00321
1.00205
1.00089
1.0002
0.999965
0.999939
0.999964
0.999985
0.999994
1
1
1
1
1
1
1
1
1
1
1
1
1
1
1
1
1
1
1
1
0.999999
0.999998
0.999993
0.999982
0.99996
0.999939
0.999961
1.00011
1.00043
1.00079
1.00095
1.00079
1.00043
1.00011
0.999961
0.999939
0.99996
0.999982
0.999993
0.999997
1
1
1
1
1
1
1
1
1
1
1
1
1
1
1
1
1
1
1
1
1
0.999999
0.999997
0.999993
0.999982
0.999964
0.999948
0.999956
1.00001
1.00009
1.00013
1.00009
1.00001
0.999956
0.999948
0.999964
0.999982
0.999993
0.999997
0.999999
1
1
1
1
1
1
1
1
1
1
1
1
1
1
1
1
1
1
1
1
1
1
0.999999
0.999997
0.999993
0.999985
0.999973
0.999963
0.999962
0.999969
0.999975
0.999969
0.999962
0.999963
0.999973
0.999985
0.999993
0.999997
0.999999
1
1
1
1
1
1
1
1
1
1
1
1
1
1
1
1
1
1
1
1
1
1
1
1
0.999999
0.999997
0.999994
0.999988
0.99998
0.999973
0.99997
0.999969
0.99997
0.999973
0.99998
0.999988
0.999994
0.999997
0.999999
1
1
SCALARS C2 double 1
LOOKUP_TABLE default
2.5
2.5
2.5
2.5
2.5
2.5
2.49999
2.49998
2.49997
2.49996
2.49996
2.49996
2.49997
2.49998
2.49999
2.5
2.5
2.5
2.5
2.5
2.5
2.5
2.5
2.5
2.5
2.5
2.5
2.5
2.5
2.5
2.5
2.5
2.5
2.5
2.5
2.5
2.5
2.5
2.5
2.5
2.5
2.5
2.5
2.5
2.49999
2.49999
2.49997
2.49994
2.49992
2.4999
2.4999
2.4999
2.49992
2.49994
2.49997
2.49999
2.49999
2.5
2.5
2.5
2.5
2.5
2.5
2.5
2.5
2.5
2.5
2.5
2.5
2.5
2.5
2.5
2.5
2.5
2.5
2.5
2.5
2.5
2.5
2.5
2.5
2.5
2.5
2.49999
2.49998
2.49995
2.4999
2.49984
2.49979
2.49978
2.49978
2.49978
2.49979
2.49984
2.4999
2.49995
2.49998
2.49999
2.5
2.5
2.5
2.5
2.5
2.5
2.5
2.5
2.5
2.5
2.5
2.5
2.5
2.5
2.5
2.5
2.5
2.5
2.5
2.5
2.5
2.5
2.5
2.5
2.49999
2.49998
2.49994
2.49986
2.49974
2.49965
2.49967
2.49981
2.4999
2.49981
2.49967
2.49965
2.49974
2.49986
2.49994
2.49998
2.49999
2.5
2.5
2.5
2.5
2.5
2.5
2.5
2.5
2.5
2.5
2.5
2.5
2.5
2.5
2.5
2.5
2.5
2.5
2.5
2.5
2.5
2.5
2.49999
2.49998
2.49994
2.49984
2.49968
2.49954
2.49967
2.50036
2.50135
2.50183
2.50135
2.50036
2.49967
2.49954
2.49968
2.49984
2.49994
2.49998
2.49999
2.5
2.5
2.5
2.5
2.5
2.5
2.5
2.5
2.5
2.5
2.5
2.5
2.5
2.5
2.5
2.5
2.5
2.5
2.5
2.5
2.5
2.49999
2.49995
2.49986
2.49968
2.49949
2.49974
2.50128
2.50466
2.50858
2.51029
2.50858
2.50466
2.50128
2.49974
2.49949
2.49968
2.49986
2.49995
2.49999
2.5
2.5
2.5
2.5
2.5
2.5
2.5
2.5
2.5
2.5
2.5
2.5
2.5
2.5
2.5
2.5
2.5
2.5
2.5
2.5
2.49999
2.49997
2.4999
2.49974
2.49954
2.49974
2.50177
2.50784
2.51846
2.52933
2.53366
2.52933
2.51846
2.50784
2.50177
2.49974
2.49954
2.49974
2.4999
2.49997
2.49999
2.5
2.5
2.5
2.5
2.5
2.5
2.5
2.5
2.5
2.5
2.5
2.5
2.5
2.5
2.5
2.5
2.5
2.5
2.5
2.49998
2.49994
2.49984
2.49965
2.49967
2.50128
2.50784
2.52347
2.54751
2.5696
2.57741
2.5696
2.54751
2.52347
2.50784
2.50128
2.49967
2.49965
2.49984
2.49995
2.49998
2.5
2.5
2.5
2.5
2.5
2.5
2.5
2.5
2.5
2.5
2.5
2.5
2.5
2.5
2.5
2.5
2.5
2.5
2.5
2.49997
2.49992
2.49979
2.49967
2.50036
2.50466
2.51846
2.54751
2.58788
2.62074
2.63
2.62074
2.58788
2.54751
2.51846
2.50466
2.50036
2.49967
2.49979
2.49992
2.49998
2.49999
2.5
2.5
2.5
2.5
2.5
2.5
2.5
2.5
2.5
2.5
2.5
2.5
2.5
2.5
2.5
2.5
2.5
2.5
2.49996
2.4999
2.49978
2.49981
2.50135
2.50858
2.52933
2.5696
2.62074
2.65542
2.66004
2.65542
2.62074
2.5696
2.52933
2.50858
2.50135
2.49981
2.49978
2.4999
2.49997
2.49999
2.5
2.5
2.5
2.5
2.5
2.5
2.5
2.5
2.5
2.5
2.5
2.5
2.5
2.5
2.5
2.5
2.5
2.5
2.49996
2.4999
2.49978
2.4999
2.50183
2.51029
2.53366
2.57741
2.63
2.66004
2.6588
2.66004
2.63
2.57741
2.53366
2.51029
2.50183
2.4999
2.49978
2.4999
2.49997
2.49999
2.5
2.5
2.5
2.5
2.5
2.5
2.5
2.5
2.5
2.5
2.5
2.5
2.5
2.5
2.5
2.5
2.5
2.5
2.49996
2.4999
2.49978
2.49981
2.50135
2.50858
2.52933
2.5696
2.62074
2.65542
2.66004
2.65542
2.62074
2.5696
2.52933
2.50858
2.50135
2.49981
2.49978
2.4999
2.49997
2.49999
2.5
2.5
2.5
2.5
2.5
2.5
2.5
2.5
2.5
2.5
2.5
2.5
2.5
2.5
2.5
2.5
2.5
2.5
2.49997
2.49992
2.49979
2.49967
2.50036
2.50466
2.51846
2.54751
2.58788
2.62074
2.63
2.62074
2.58788
2.54751
2.51846
2.50466
2.50036
2.49967
2.49979
2.49992
2.49998
2.49999
2.5
2.5
2.5
2.5
2.5
2.5
2.5
2.5
2.5
2.5
2.5
2.5
2.5
2.5
2.5
2.5
2.5
2.5
2.49998
2.49994
2.49984
2.49965
2.49967
2.50128
2.50784
2.52347
2.54751
2.5696
2.57741
2.5696
2.54751
2.52347
2.50784
2.50128
2.49967
2.49965
2.49984
2.49995
2.49998
2.5
2.5
2.5
2.5
2.5
2.5
2.5
2.5
2.5
2.5
2.5
2.5
2.5
2.5
2.5
2.5
2.5
2.5
2.5
2.49999
2.49997
2.4999
2.49974
2.49954
2.49974
2.50177
2.50784
2.51846
2.52933
2.53366
2.52933
2.51846
2.50784
2.50177
2.49974
2.49954
2.49974
2.4999
2.49997
2.49999
2.5
2.5
2.5
2.5
2.5
2.5
2.5
2.5
2.5
2.5
2.5
2.5
2.5
2.5
2.5
2.5
2.5
2.5
2.5
2.5
2.49999
2.49995
2.49986
2.49968
2.49949
2.49974
2.50128
2.50466
2.50858
2.51029
2.50858
2.50466
2.50128
2.49974
2.49949
2.49968
2.49986
2.49995
2.49999
2.5
2.5
2.5
2.5
2.5
2.5
2.5
2.5
2.5
2.5
2.5
2.5
2.5
2.5
2.5
2.5
2.5
2.5
2.5
2.5
2.5
2.49999
2.49998
2.49994
2.49984
2.49968
2.49954
2.49967
2.50036
2.50135
2.50183
2.50135
2.50036
2.49967
2.49954
2.49968
2.49984
2.49994
2.49998
2.49999
2.5
2.5
2.5
2.5
2.5
2.5
2.5
2.5
2.5
2.5
2.5
2.5
2.5
2.5
2.5
2.5
2.5
2.5
2.5
2.5
2.5
2.5
2.49999
2.49998
2.49994
2.49986
2.49974
2.49965
2.49967
2.49981
2.4999
2.49981
2.49967
2.49965
2.49974
2.49986
2.49994
2.49998
2.49999
2.5
2.5
2.5
2.5
2.5
2.5
2.5
2.5
2.5
2.5
2.5
2.5
2.5
2.5
2.5
2.5
2.5
2.5
2.5
2.5
2.5
2.5
2.5
2.5
2.49999
2.49998
2.49995
2.4999
2.49984
2.49979
2.49978
2.49978
2.49978
2.49979
2.49984
2.4999
2.49995
2.49998
2.49999
2.5
2.5
2.5
2.5
2.5
2.5
2.5
2.5
2.5
2.5
2.5
2.5
2.5
2.5
2.5
2.5
2.5
2.5
2.5
2.5
2.5
2.5
2.5
2.5
2.5
2.5
2.49999
2.49999
2.49997
2.49995
2.49992
2.4999
2.4999
2.4999
2.49992
2.49995
2.49997
2.49999
2.49999
2.5
2.5
2.5
2.5
2.5
2.5
2.5
2.5
2.5
2.5
2.5
2.5
2.5
2.5
2.5
2.5
2.5
2.5
2.5
2.5
2.5
2.5
2.5
2.5
2.5
2.5
2.5
2.5
2.5
2.49999
2.49998
2.49998
2.49997
2.49997
2.49997
2.49998
2.49998
2.49999
2.5
2.5
2.5
2.5
2.5
2.5
2.5
2.5
2.5
2.5
2.5
2.5
2.50001
2.50001
2.50001
2.50001
2.50001
2.50001
2.50001
2.5
2.5
2.5
2.5
2.5
2.5
2.5
2.5
2.5
2.5
2.5
2.5
2.5
2.5
2.49999
2.49999
2.49999
2.49999
2.49999
2.5
2.5
2.5
2.5
2.5
2.5
2.5
2.5
2.5
2.5
2.5
2.5
2.50001
2.50001
2.50002
2.50003
2.50004
2.50004
2.50004
2.50003
2.50002
2.50001
2.50001
2.5
2.5
2.5
2.5
2.5
2.5
2.5
2.5
2.5
2.5
2.5
2.5
2.5
2.5
2.5
2.5
2.5
2.5
2.5
2.5
2.5
2.5
2.5
2.5
2.5
2.5
2.5
2.5
2.50001
2.50002
2.50004
2.50006
2.50009
2.5001
2.5001
2.5001
2.50009
2.50006
2.50004
2.50002
2.50001
2.5
2.5
2.5
2.5
2.5
2.5
2.5
2.5
2.5
2.5
2.5
2.5
2.5
2.5
2.5
2.5
2.5
2.5
2.5
2.5
2.5
2.5
2.5
2.5
2.5
2.5
2.50001
2.50002
2.50005
2.5001
2.50015
2.50017
2.50015
2.50013
2.50015
2.50017
2.50015
2.5001
2.50005
2.50002
2.50001
2.5
2.5
2.5
2.5
2.5
2.5
2.5
2.5
2.5
2.5
2.5
2.5
2.5
2.5
2.5
2.5
2.5
2.5
2.5
2.5
2.5
2.5
2.5
2.5
2.50001
2.50002
2.50006
2.50013
2.50021
2.50023
2.50007
2.49979
2.49963
2.49979
2.50007
2.50023
2.50021
2.50013
2.50006
2.50002
2.50001
2.5
2.5
2.5
2.5
2.5
2.5
2.5
2.5
2.5
2.5
2.5
2.5
2.5
2.5
2.5
2.5
2.5
2.5
2.5
2.5
2.5
2.5
2.50001
2.50002
2.50005
2.50013
2.50023
2.50025
2.49988
2.49885
2.49748
2.49682
2.49748
2.49885
2.49988
2.50025
2.50023
2.50013
2.50005
2.50002
2.50001
2.5
2.5
2.5
2.5
2.5
2.5
2.5
2.5
2.5
2.5
2.5
2.5
2.5
2.5
2.5
2.5
2.5
2.5
2.5
2.5
2.5
2.50001
2.50004
2.5001
2.50021
2.50025
2.49977
2.49789
2.49404
2.48957
2.48759
2.48957
2.49404
2.49789
2.49977
2.50025
2.50021
2.5001
2.50004
2.50001
2.5
2.5
2.5
2.5
2.5
2.5
2.5
2.5
2.5
2.5
2.5
2.5
2.5
2.5
2.5
2.5
2.5
2.5
2.5
2.5
2.50001
2.50002
2.50006
2.50015
2.50023
2.49988
2.49789
2.49224
2.48217
2.47166
2.4675
2.47166
2.48217
2.49224
2.49789
2.49988
2.50023
2.50015
2.50006
2.50003
2.5
2.5
2.5
2.5
2.5
2.5
2.5
2.5
2.5
2.5
2.5
2.5
2.5
2.5
2.5
2.5
2.5
2.5
2.5
2.5
2.50001
2.50003
2.50009
2.50017
2.50007
2.49885
2.49404
2.48217
2.4632
2.44588
2.44028
2.44588
2.4632
2.48217
2.49404
2.49885
2.50007
2.50017
2.50009
2.50004
2.5
2.5
2.5
2.5
2.5
2.5
2.5
2.5
2.5
2.5
2.5
2.5
2.5
2.5
2.5
2.5
2.5
2.5
2.5
2.5
2.50001
2.50004
2.5001
2.50015
2.49979
2.49748
2.48957
2.47166
2.44588
2.42626
2.42219
2.42626
2.44588
2.47166
2.48957
2.49748
2.49979
2.50015
2.5001
2.50005
2.5
2.5
2.5
2.5
2.5
2.5
2.5
2.5
2.5
2.5
2.5
2.5
2.5
2.5
2.5
2.5
2.5
2.5
2.5
2.5
2.50001
2.50004
2.5001
2.50013
2.49963
2.49682
2.48759
2.4675
2.44028
2.42219
2.42026
2.42219
2.44028
2.4675
2.48759
2.49682
2.49963
2.50013
2.5001
2.50005
2.5
2.5
2.5
2.5
2.5
2.5
2.5
2.5
2.5
2.5
2.5
2.5
2.5
2.5
2.5
2.5
2.5
2.5
2.5
2.5
2.50001
2.50004
2.5001
2.50015
2.49979
2.49748
2.48957
2.47166
2.44588
2.42626
2.42219
2.42626
2.44588
2.47166
2.48957
2.49748
2.49979
2.50015
2.5001
2.50005
2.5
2.5
2.5
2.5
2.5
2.5
2.5
2.5
2.5
2.5
2.5
2.5
2.5
2.5
2.5
2.5
2.5
2.5
2.5
2.5
2.50001
2.50003
2.50009
2.50017
2.50007
2.49885
2.49404
2.48217
2.4632
2.44588
2.44028
2.44588
2.4632
2.48217
2.49404
2.49885
2.50007
2.50017
2.50009
2.50004
2.5
2.5
2.5
2.5
2.5
2.5
2.5
2.5
2.5
2.5
2.5
2.5
2.5
2.5
2.5
2.5
2.5
2.5
2.5
2.5
2.50001
2.50002
2.50006
2.50015
2.50023
2.49988
2.49789
2.49224
2.48217
2.47166
2.4675
2.47166
2.48217
2.49224
2.49789
2.49988
2.50023
2.50015
2.50006
2.50003
2.5
2.5
2.5
2.5
2.5
2.5
2.5
2.5
2.5
2.5
2.5
2.5
2.5
2.5
2.5
2.5
2.5
2.5
2.5
2.5
2.5
2.50001
2.50004
2.5001
2.50021
2.50025
2.49977
2.49789
2.49404
2.48957
2.48759
2.48957
2.49404
2.49789
2.49977
2.50025
2.50021
2.5001
2.50004
2.50001
2.5
2.5
2.5
2.5
2.5
2.5
2.5
2.5
2.5
2.5
2.5
2.5
2.5
2.5
2.5
2.5
2.5
2.5
2.5
2.5
2.5
2.50001
2.50002
2.50005
2.50013
2.50023
2.50025
2.49988
2.49885
2.49748
2.49682
2.49748
2.49885
2.49988
2.50025
2.50023
2.50013
2.50005
2.50002
2.50001
2.5
2.5
2.5
2.5
2.5
2.5
2.5
2.5
2.5
2.5
2.5
2.5
2.5
2.5
2.5
2.5
2.5
2.5
2.5
2.5
2.5
2.5
2.50001
2.50002
2.50006
2.50013
2.50021
2.50023
2.50007
2.49979
2.49963
2.49979
2.50007
2.50023
2.50021
2.50013
2.50006
2.50002
2.50001
2.5
2.5
2.5
2.5
2.5
2.5
2.5
2.5
2.5
2.5
2.5
2.5
2.5
2.5
2.5
2.5
2.5
2.5
2.5
2.5
2.5
2.5
2.5
2.5
2.50001
2.50002
2.50005
2.5001
2.50015
2.50017
2.50015
2.50013
2.50015
2.50017
2.50015
2.5001
2.50005
2.50002
2.50001
2.5
2.5
2.5
2.5
2.5
2.5
2.5
2.5
2.5
2.5
2.5
2.5
2.5
2.5
2.5
2.5
2.5
2.5
2.5
2.5
2.5
2.5
2.5
2.5
2.5
2.5
2.50001
2.50002
2.50004
2.50006
2.50009
2.5001
2.5001
2.5001
2.50009
2.50006
2.50004
2.50002
2.50001
2.5
2.5
2.5
2.5
2.5
2.5
2.5
2.5
2.5
2.5
2.5
2.5
2.5
2.5
2.5
2.5
2.5
2.5
2.5
2.5
2.5
2.5
2.5
2.5
2.5
2.5
2.5
2.5
2.50001
2.50001
2.50003
2.50004
2.50005
2.50005
2.50005
2.50004
2.50003
2.50001
2.50001
2.5
2.5
2.5
2.5
