# vtk DataFile Version 3.0
Brusselator Concentration Output
ASCII
DATASET STRUCTURED_POINTS
DIMENSIONS 40 40 1
ORIGIN 0.0 0.0 0.0
SPACING 0.005 0.005 1.0
POINT_DATA 1600
SCALARS C1 double 1
LOOKUP_TABLE default
1.07002
1.08857
1.11531
1.13199
1.12266
1.08546
1.03217
0.977937
0.933877
0.905901
0.896388
0.905929
0.933975
0.978204
1.03277
1.08657
1.12425
1.13336
1.11421
1.08028
1.04683
1.02212
1.00737
1.00034
0.998037
0.998001
0.998673
0.999317
0.999723
0.999918
0.999991
1.00001
1.00001
1
1
1
1
1
1
1
1.08857
1.09858
1.10532
1.09227
1.05364
0.997627
0.937785
0.88504
0.845433
0.821332
0.813292
0.82136
0.845526
0.885281
0.938295
0.998449
1.05443
1.09173
1.1004
1.08376
1.05598
1.03041
1.01288
1.00333
0.999356
0.998423
0.998718
0.999256
0.999663
0.999883
0.999975
1
1.00001
1
1
1
1
1
1
1
1.11531
1.10532
1.07387
1.0164
0.943469
0.870585
0.808334
0.760938
0.728628
0.710107
0.704104
0.710133
0.72871
0.761139
0.808705
0.870978
0.943046
1.01284
1.06266
1.07965
1.06793
1.04432
1.02298
1.00908
1.002
0.99934
0.998871
0.999173
0.99956
0.999819
0.999945
0.999992
1
1
1
1
1
1
1
1
1.13199
1.09227
1.0164
0.921479
0.829476
0.753853
0.698101
0.660198
0.636484
0.623676
0.619653
0.623699
0.636553
0.660353
0.698333
0.753837
0.827898
0.914965
0.998807
1.05592
1.0726
1.05881
1.03574
1.01701
1.00591
1.00083
0.999225
0.999126
0.999444
0.999736
0.999904
0.999976
0.999999
1
1
1
1
1
1
1
1.12266
1.05364
0.943469
0.829476
0.735676
0.668365
0.624105
0.596859
0.581225
0.573345
0.570968
0.573364
0.581282
0.596975
0.624222
0.668031
0.73324
0.820786
0.921344
1.01116
1.0623
1.068
1.04844
1.02615
1.01083
1.00291
0.999843
0.999169
0.999345
0.999649
0.999856
0.999956
0.999993
1
1
1
1
1
1
1
1.08546
0.997627
0.870585
0.753853
0.668365
0.613357
0.580821
0.562903
0.553808
0.54976
0.548643
0.549778
0.553856
0.562987
0.580851
0.6128
0.665382
0.743902
0.846312
0.954894
1.03683
1.06807
1.05832
1.03523
1.0163
1.00545
1.00072
0.99933
0.999286
0.99957
0.999807
0.999934
0.999985
1
1
1
1
1
1
1
1.03217
0.937785
0.808334
0.698101
0.624105
0.580821
0.557997
0.547313
0.543146
0.541956
0.541776
0.541972
0.543186
0.547375
0.557963
0.580111
0.620805
0.687605
0.78383
0.899091
1.00269
1.05925
1.06377
1.04305
1.02169
1.00818
1.00178
0.999595
0.999274
0.999507
0.999762
0.999912
0.999977
0.999997
1
1
1
0.999999
0.999999
0.999999
0.977937
0.88504
0.760938
0.660198
0.596859
0.562903
0.547313
0.541893
0.541307
0.542211
0.542723
0.542226
0.541342
0.541939
0.547233
0.562088
0.593385
0.649588
0.737276
0.852108
0.968211
1.04526
1.06496
1.04885
1.0264
1.01076
1.00286
0.999916
0.999303
0.999466
0.999727
0.999895
0.999971
0.999996
1
1
0.999999
0.999998
0.999998
0.999998
0.933877
0.845433
0.728628
0.636484
0.581225
0.553808
0.543146
0.541307
0.543188
0.54556
0.54656
0.545574
0.543221
0.541342
0.543034
0.552926
0.577662
0.62595
0.706102
0.81785
0.93996
1.03105
1.0635
1.05253
1.02997
1.01287
1.00381
1.00023
0.999359
0.999452
0.999711
0.99989
0.999974
1
1.00001
1
1
0.999999
0.999997
0.999996
0.905901
0.821332
0.710107
0.623676
0.573345
0.54976
0.541956
0.542211
0.54556
0.548816
0.550115
0.54883
0.545591
0.54224
0.541826
0.548839
0.569739
0.613247
0.688462
0.797371
0.921824
1.02079
1.06152
1.05445
1.03218
1.01426
1.00446
1.00047
0.99943
0.999474
0.999729
0.999914
1
1.00003
1.00003
1.00002
1.00001
1
0.999999
0.999997
0.896388
0.813292
0.704104
0.619653
0.570968
0.548643
0.541776
0.542723
0.54656
0.550115
0.551514
0.550128
0.546591
0.542749
0.54164
0.547708
0.567349
0.609267
0.682785
0.790597
0.91562
1.0171
1.06067
1.05505
1.03296
1.01479
1.00475
1.00062
0.99952
0.999549
0.999803
0.999989
1.00007
1.0001
1.00009
1.00007
1.00005
1.00003
1.00002
1.00001
0.905929
0.82136
0.710133
0.623699
0.573364
0.549778
0.541972
0.542226
0.545574
0.54883
0.550128
0.548844
0.545605
0.542255
0.541842
0.548856
0.569758
0.613269
0.688489
0.797402
0.921862
1.02084
1.06159
1.05454
1.03231
1.01441
1.00464
1.00067
0.999634
0.999683
0.99994
1.00012
1.0002
1.00022
1.0002
1.00017
1.00013
1.0001
1.00007
1.00005
0.933975
0.845526
0.72871
0.636553
0.581282
0.553856
0.543186
0.541342
0.543221
0.545591
0.546591
0.545605
0.543254
0.541377
0.543074
0.552973
0.577718
0.62602
0.706187
0.817953
0.940083
1.03119
1.06369
1.05277
1.03026
1.0132
1.00416
1.00059
0.999716
0.999804
1.00006
1.00024
1.00033
1.00036
1.00035
1.00033
1.00029
1.00024
1.00019
1.00017
0.978204
0.885281
0.761139
0.660353
0.596975
0.562987
0.547375
0.541939
0.541342
0.54224
0.542749
0.542255
0.541377
0.541985
0.547295
0.562173
0.593502
0.649746
0.737486
0.852374
0.968526
1.04562
1.06535
1.04928
1.02685
1.0112
1.00324
1.00021
0.999513
0.999611
0.999848
1.00004
1.00018
1.00029
1.00038
1.00043
1.00046
1.00045
1.00042
1.0004
1.03277
0.938295
0.808705
0.698333
0.624222
0.580851
0.557963
0.547233
0.543034
0.541826
0.54164
0.541842
0.543074
0.547295
0.557929
0.580142
0.620927
0.68785
0.784225
0.899641
1.00335
1.05994
1.06443
1.04361
1.02208
1.0083
1.00156
0.999016
0.998369
0.998377
0.998551
0.99878
0.999068
0.999414
0.999786
1.00013
1.00041
1.00061
1.00071
1.00076
1.08657
0.998449
0.870978
0.753837
0.668031
0.6128
0.580111
0.562088
0.552926
0.548839
0.547708
0.548856
0.552973
0.562173
0.580142
0.612249
0.665067
0.743919
0.846748
0.955747
1.03794
1.06914
1.05909
1.03548
1.01581
1.00406
0.998332
0.995969
0.995117
0.994866
0.994916
0.995228
0.995812
0.996638
0.997622
0.998643
0.999576
1.00032
1.00083
1.00109
1.12425
1.05443
0.943046
0.827898
0.73324
0.665382
0.620805
0.593385
0.577662
0.569739
0.567349
0.569758
0.577718
0.593502
0.620927
0.665067
0.730846
0.819267
0.920952
1.01187
1.06362
1.06914
1.04864
1.02485
1.00765
0.997602
0.99239
0.989788
0.98845
0.987793
0.987671
0.988098
0.989095
0.990628
0.99258
0.994757
0.996911
0.998785
1.00016
1.00088
1.13336
1.09173
1.01284
0.914965
0.820786
0.743902
0.687605
0.649588
0.62595
0.613247
0.609267
0.613269
0.62602
0.649746
0.68785
0.743919
0.819267
0.908493
0.995145
1.05492
1.07303
1.05881
1.03371
1.01185
0.997031
0.988108
0.982947
0.979912
0.978094
0.977108
0.976853
0.977348
0.978654
0.980811
0.983776
0.987362
0.991206
0.994801
0.997597
0.999128
1.11421
1.1004
1.06266
0.998807
0.921344
0.846312
0.78383
0.737276
0.706102
0.688462
0.682785
0.688489
0.706187
0.737486
0.784225
0.846748
0.920952
0.995145
1.05095
1.07351
1.06473
1.04059
1.01582
0.996765
0.983935
0.975859
0.970965
0.968102
0.966527
0.965779
0.965606
0.965957
0.966986
0.968968
0.972155
0.976574
0.981877
0.987298
0.991796
0.994359
1.08028
1.08376
1.07965
1.05592
1.01116
0.954894
0.899091
0.852108
0.81785
0.797371
0.790597
0.797402
0.817953
0.852374
0.899641
0.955747
1.01187
1.05492
1.07351
1.06659
1.04427
1.01866
0.996769
0.980623
0.96987
0.963509
0.960478
0.959734
0.960238
0.961029
0.961411
0.96116
0.960609
0.960524
0.961792
0.965013
0.970129
0.976256
0.981841
0.98519
1.04683
1.05598
1.06793
1.0726
1.0623
1.03683
1.00269
0.968211
0.93996
0.921824
0.91562
0.921862
0.940083
0.968526
1.00335
1.03794
1.06362
1.07303
1.06473
1.04427
1.01968
0.996857
0.978583
0.965794
0.958601
0.956624
0.958951
0.964074
0.970003
0.974655
0.976432
0.974763
0.970325
0.964797
0.960239
0.958321
0.959675
0.963589
0.968199
0.971268
1.02212
1.03041
1.04432
1.05881
1.068
1.06807
1.05925
1.04526
1.03105
1.02079
1.0171
1.02084
1.03119
1.04562
1.05994
1.06914
1.06914
1.05881
1.04059
1.01866
0.996857
0.977906
0.963808
0.956141
0.955923
0.963241
0.976887
0.994189
1.01125
1.02377
1.0284
1.02389
1.01158
0.994906
0.978082
0.964654
0.956448
0.953251
0.953244
0.954055
1.00737
1.01288
1.02298
1.03574
1.04844
1.05832
1.06377
1.06496
1.0635
1.06152
1.06067
1.06159
1.06369
1.06535
1.06443
1.05909
1.04864
1.03371
1.01582
0.996769
0.978583
0.963808
0.955444
0.956411
0.968817
0.993215
1.02781
1.06782
1.1057
1.13292
1.14286
1.13309
1.10613
1.06863
1.02889
0.993939
0.967597
0.950417
0.940845
0.93676
1.00034
1.00333
1.00908
1.01701
1.02615
1.03523
1.04305
1.04885
1.05253
1.05445
1.05505
1.05454
1.05277
1.04928
1.04361
1.03548
1.02485
1.01185
0.996765
0.980623
0.965794
0.956141
0.956411
0.971319
1.00463
1.0579
1.12844
1.20701
1.27867
1.32822
1.34585
1.32849
1.27928
1.20797
1.12932
1.05747
1.00051
0.960278
0.93523
0.923311
0.998037
0.999356
1.002
1.00591
1.01083
1.0163
1.02169
1.0264
1.02997
1.03218
1.03296
1.03231
1.03026
1.02685
1.02208
1.01581
1.00765
0.997031
0.983935
0.96987
0.958601
0.955923
0.968817
1.00463
1.07007
1.16833
1.2925
1.42036
1.52355
1.58591
1.6062
1.58623
1.52424
1.4213
1.29287
1.16602
1.06182
0.986969
0.939754
0.917035
0.998001
0.998423
0.99934
1.00083
1.00291
1.00545
1.00818
1.01076
1.01287
1.01426
1.01479
1.01441
1.0132
1.0112
1.0083
1.00406
0.997602
0.988108
0.975859
0.963509
0.956624
0.963241
0.993215
1.0579
1.16833
1.32583
1.50346
1.64917
1.73301
1.76724
1.77544
1.76743
1.73335
1.64943
1.50251
1.32068
1.15466
1.03243
0.955966
0.91964
0.998673
0.998718
0.998871
0.999225
0.999843
1.00072
1.00178
1.00286
1.00381
1.00446
1.00475
1.00464
1.00416
1.00324
1.00156
0.998332
0.99239
0.982947
0.970965
0.960478
0.958951
0.976887
1.02781
1.12844
1.2925
1.50346
1.68747
1.77902
1.79467
1.78322
1.77623
1.78323
1.79448
1.77809
1.6845
1.49484
1.2727
1.09462
0.98289
0.930699
0.999317
0.999256
0.999173
0.999126
0.999169
0.99933
0.999595
0.999916
1.00023
1.00047
1.00062
1.00067
1.00059
1.00021
0.999016
0.995969
0.989788
0.979912
0.968102
0.959734
0.964074
0.994189
1.06782
1.20701
1.42036
1.64917
1.77902
1.79
1.74883
1.70874
1.69332
1.70863
1.74829
1.78819
1.77429
1.6377
1.39521
1.16556
1.01648
0.947535
0.999723
0.999663
0.99956
0.999444
0.999345
0.999286
0.999274
0.999303
0.999359
0.99943
0.99952
0.999634
0.999716
0.999513
0.998369
0.995117
0.98845
0.978094
0.966527
0.960238
0.970003
1.01125
1.1057
1.27867
1.52355
1.73301
1.79467
1.74883
1.67769
1.62469
1.60575
1.62453
1.67698
1.74658
1.78899
1.72006
1.49524
1.23163
1.04976
0.965574
0.999918
0.999883
0.999819
0.999736
0.999649
0.99957
0.999507
0.999466
0.999452
0.999474
0.999549
0.999683
0.999804
0.999611
0.998377
0.994866
0.987793
0.977108
0.965779
0.961029
0.974655
1.02377
1.13292
1.32822
1.58591
1.76724
1.78322
1.70874
1.62469
1.5667
1.54648
1.56652
1.62392
1.70631
1.77715
1.75381
1.55648
1.27815
1.07439
0.979424
0.999991
0.999975
0.999945
0.999904
0.999856
0.999807
0.999762
0.999727
0.999711
0.999729
0.999803
0.99994
1.00006
0.999848
0.998551
0.994916
0.987671
0.976853
0.965606
0.961411
0.976432
1.0284
1.14286
1.34585
1.6062
1.77544
1.77623
1.69332
1.60575
1.54648
1.52596
1.5463
1.60496
1.69084
1.77005
1.76192
1.57657
1.29489
1.08353
0.984651
1.00001
1
0.999992
0.999976
0.999956
0.999934
0.999912
0.999895
0.99989
0.999914
0.999989
1.00012
1.00024
1.00004
0.99878
0.995228
0.988098
0.977348
0.965957
0.96116
0.974763
1.02389
1.13309
1.32849
1.58623
1.76743
1.78323
1.70863
1.62453
1.56652
1.5463
1.56634
1.62376
1.7062
1.77715
1.754
1.55681
1.27843
1.07458
0.979559
1.00001
1.00001
1
0.999999
0.999993
0.999985
0.999977
0.999971
0.999974
1
1.00007
1.0002
1.00033
1.00018
0.999068
0.995812
0.989095
0.978654
0.966986
0.960609
0.970325
1.01158
1.10613
1.27928
1.52424
1.73335
1.79448
1.74829
1.67698
1.62392
1.60496
1.62376
1.67628
1.74604
1.7888
1.72042
1.49596
1.23227
1.05023
0.965943
1
1
1
1
1
1
0.999997
0.999996
1
1.00003
1.0001
1.00022
1.00036
1.00029
0.999414
0.996638
0.990628
0.980811
0.968968
0.960524
0.964797
0.994906
1.06863
1.20797
1.4213
1.64943
1.77809
1.78819
1.74658
1.70631
1.69084
1.7062
1.74604
1.78638
1.77337
1.63798
1.3962
1.16657
1.01733
0.948282
1
1
1
1
1
1
1
1
1.00001
1.00003
1.00009
1.0002
1.00035
1.00038
0.999786
0.997622
0.99258
0.983776
0.972155
0.961792
0.960239
0.978082
1.02889
1.12932
1.29287
1.50251
1.6845
1.77429
1.78899
1.77715
1.77005
1.77715
1.7888
1.77337
1.68154
1.49394
1.27314
1.09559
0.984012
0.931854
1
1
1
1
1
1
1
1
1
1.00002
1.00007
1.00017
1.00033
1.00043
1.00013
0.998643
0.994757
0.987362
0.976574
0.965013
0.958321
0.964654
0.993939
1.05747
1.16602
1.32068
1.49484
1.6377
1.72006
1.75381
1.76192
1.754
1.72042
1.63798
1.49394
1.31561
1.15248
1.03209
0.956655
0.92078
1
1
1
1
1
1
1
0.999999
1
1.00001
1.00005
1.00013
1.00029
1.00046
1.00041
0.999576
0.996911
0.991206
0.981877
0.970129
0.959675
0.956448
0.967597
1.00051
1.06182
1.15466
1.2727
1.39521
1.49524
1.55648
1.57657
1.55681
1.49596
1.3962
1.27314
1.15248
1.0537
0.982875
0.938232
0.916757
1
1
1
1
1
1
0.999999
0.999998
0.999999
1
1.00003
1.0001
1.00024
1.00045
1.00061
1.00032
0.998785
0.994801
0.987298
0.976256
0.963589
0.953251
0.950417
0.960278
0.986969
1.03243
1.09462
1.16556
1.23163
1.27815
1.29489
1.27843
1.23227
1.16657
1.09559
1.03209
0.982875
0.948952
0.928347
0.918725
1
1
1
1
1
1
0.999999
0.999998
0.999997
0.999999
1.00002
1.00007
1.00019
1.00042
1.00071
1.00083
1.00016
0.997597
0.991796
0.981841
0.968199
0.953244
0.940845
0.93523
0.939754
0.955966
0.98289
1.01648
1.04976
1.07439
1.08353
1.07458
1.05023
1.01733
0.984012
0.956655
0.938232
0.928347
0.92444
0.92347
1
1
1
1
1
1
0.999999
0.999998
0.999996
0.999997
1.00001
1.00005
1.00017
1.0004
1.00076
1.00109
1.00088
0.999128
0.994359
0.98519
0.971268
0.954055
0.93676
0.923311
0.917035
0.91964
0.930699
0.947535
0.965574
0.979424
0.984651
0.979559
0.965943
0.948282
0.931854
0.92078
0.916757
0.918725
0.92347
0.927138
SCALARS C2 double 1
LOOKUP_TABLE default
2.45606
2.41747
2.34864
2.26918
2.20497
2.17294
2.17255
2.19164
2.21602
2.23483
2.24178
2.23483
2.21597
2.19142
2.17186
2.17121
2.2014
2.2632
2.34118
2.41288
2.46398
2.49283
2.50507
2.50769
2.50616
2.50374
2.50182
2.5007
2.50018
2.5
2.49997
2.49997
2.49999
2.49999
2.5
2.5
2.5
2.5
2.5
2.5
2.41747
2.37991
2.32087
2.26732
2.24174
2.24928
2.28041
2.32071
2.35771
2.38296
2.39185
2.38295
2.35765
2.32047
2.27969
2.24762
2.23863
2.26292
2.31742
2.38382
2.44104
2.4787
2.49795
2.50486
2.50547
2.50385
2.50209
2.5009
2.50029
2.50005
2.49998
2.49998
2.49999
2.49999
2.5
2.5
2.5
2.5
2.5
2.5
2.34864
2.32087
2.29093
2.28755
2.3202
2.37915
2.44811
2.513
2.56441
2.59696
2.60806
2.59695
2.56434
2.51274
2.44738
2.37762
2.31792
2.28603
2.29504
2.34097
2.4012
2.452
2.48374
2.49887
2.50374
2.50384
2.50251
2.50126
2.5005
2.50014
2.50001
2.49998
2.49999
2.49999
2.5
2.5
2.5
2.5
2.5
2.5
2.26918
2.26732
2.28755
2.3448
2.43138
2.52954
2.62345
2.70273
2.76172
2.79779
2.8099
2.79778
2.76165
2.70247
2.62274
2.52817
2.42998
2.34665
2.30105
2.30779
2.35666
2.41679
2.46313
2.4894
2.50054
2.50339
2.5029
2.50169
2.50077
2.50026
2.50006
2.5
2.49999
2.49999
2.5
2.5
2.5
2.5
2.5
2.5
2.20497
2.24174
2.3202
2.43138
2.55564
2.67567
2.78056
2.86456
2.92516
2.96157
2.9737
2.96156
2.92509
2.86431
2.7799
2.67445
2.55497
2.43625
2.34268
2.3014
2.3218
2.3799
2.43814
2.47668
2.49561
2.50221
2.50306
2.5021
2.50106
2.50042
2.50012
2.50001
2.49999
2.49999
2.5
2.5
2.5
2.5
2.5
2.5
2.17294
2.24928
2.37915
2.52954
2.67567
2.80521
2.91293
2.99677
3.05625
3.09165
3.10339
3.09164
3.05619
2.99655
2.91232
2.80411
2.67552
2.5367
2.40882
2.32328
2.30573
2.34874
2.41215
2.46176
2.48912
2.50022
2.50289
2.50241
2.50135
2.50058
2.50019
2.50004
2.5
2.49999
2.5
2.5
2.5
2.5
2.5
2.5
2.17255
2.28041
2.44811
2.62345
2.78056
2.91293
3.01988
3.10173
3.15919
3.19317
3.2044
3.19316
3.15914
3.10152
3.01931
2.91194
2.78075
2.63216
2.48284
2.36326
2.30831
2.32794
2.38883
2.44643
2.48175
2.4976
2.50239
2.50257
2.50159
2.50073
2.50026
2.50006
2.5
2.49999
2.5
2.5
2.5
2.5
2.5
2.5
2.19164
2.32071
2.513
2.70273
2.86456
2.99677
3.10173
3.18117
3.23653
3.26909
3.27982
3.26908
3.23648
3.18099
3.1012
2.99586
2.86497
2.71239
2.55094
2.40819
2.3227
2.31769
2.37071
2.43262
2.4745
2.49476
2.50167
2.50261
2.50177
2.50087
2.50033
2.50009
2.50001
2.5
2.5
2.5
2.5
2.5
2.5
2.5
2.21602
2.35771
2.56441
2.76172
2.92516
3.05625
3.15919
3.23653
3.2901
3.32147
3.33179
3.32146
3.29005
3.23635
3.1587
3.05541
2.92571
2.77193
2.6042
2.4472
2.34025
2.31484
2.35858
2.42191
2.46843
2.49222
2.50094
2.50256
2.50188
2.50096
2.50037
2.5001
2.50001
2.49999
2.5
2.5
2.50001
2.50001
2.50001
2.50001
2.23483
2.38296
2.59696
2.79779
2.96157
3.09165
3.19317
3.26909
3.32147
3.35207
3.36211
3.35206
3.32143
3.26892
3.1927
3.09085
2.96221
2.80828
2.63767
2.47314
2.35375
2.31525
2.35192
2.41523
2.46442
2.49045
2.50038
2.50248
2.50191
2.50099
2.50037
2.50008
2.49999
2.49997
2.49998
2.49999
2.5
2.50001
2.50001
2.50001
2.24178
2.39185
2.60806
2.8099
2.9737
3.10339
3.2044
3.27982
3.33179
3.36211
3.37205
3.3621
3.33175
3.27965
3.20394
3.1026
2.97436
2.82047
2.64904
2.48219
2.35875
2.31578
2.34982
2.41295
2.46299
2.48978
2.50011
2.50237
2.50184
2.5009
2.50027
2.49998
2.49989
2.49989
2.49991
2.49994
2.49997
2.49999
2.50001
2.50002
2.23483
2.38295
2.59695
2.79778
2.96156
3.09164
3.19316
3.26908
3.32146
3.35206
3.3621
3.35205
3.32142
3.26891
3.19269
3.09084
2.96219
2.80826
2.63766
2.47313
2.35374
2.31523
2.35187
2.41514
2.46428
2.49026
2.50012
2.50218
2.50158
2.50063
2.50001
2.49973
2.49965
2.49967
2.49973
2.4998
2.49987
2.49992
2.49997
2.49999
2.21597
2.35765
2.56434
2.76165
2.92509
3.05619
3.15914
3.23648
3.29005
3.32143
3.33175
3.32142
3.29
3.2363
3.15864
3.05535
2.92565
2.77186
2.60413
2.44713
2.34017
2.31473
2.35841
2.42163
2.46803
2.49169
2.50029
2.50183
2.50108
2.50012
2.49952
2.49927
2.49921
2.49926
2.49936
2.49948
2.49961
2.49973
2.49982
2.49988
2.19142
2.32047
2.51274
2.70247
2.86431
2.99655
3.10152
3.18099
3.23635
3.26892
3.27965
3.26891
3.2363
3.1808
3.101
2.99564
2.86473
2.71213
2.55067
2.40791
2.3224
2.31733
2.37021
2.43194
2.47361
2.4937
2.50047
2.50133
2.50045
2.49954
2.49899
2.49876
2.4987
2.49872
2.49881
2.49895
2.49912
2.49931
2.49947
2.49956
2.17186
2.27969
2.44738
2.62274
2.7799
2.91232
3.01931
3.1012
3.1587
3.1927
3.20394
3.19269
3.15864
3.101
3.01875
2.91133
2.78009
2.63145
2.48208
2.36246
2.30745
2.32699
2.38771
2.4451
2.48025
2.49602
2.50085
2.50117
2.50036
2.49965
2.49923
2.49898
2.49878
2.4986
2.49846
2.49842
2.49848
2.49863
2.49879
2.49889
2.17121
2.24762
2.37762
2.52817
2.67445
2.80411
2.91194
2.99586
3.05541
3.09085
3.1026
3.09084
3.05535
2.99564
2.91133
2.80302
2.67429
2.5353
2.4072
2.32144
2.30377
2.34672
2.41014
2.45981
2.48741
2.49901
2.50243
2.50282
2.50258
2.5024
2.50222
2.50186
2.50124
2.50041
2.49953
2.49876
2.49821
2.49791
2.4978
2.49778
2.2014
2.23863
2.31792
2.42998
2.55497
2.67552
2.78075
2.86497
2.92571
2.96221
2.97436
2.96219
2.92565
2.86473
2.78009
2.67429
2.55426
2.43474
2.34022
2.2981
2.31814
2.37644
2.43535
2.47497
2.49549
2.50422
2.50758
2.50918
2.51034
2.51117
2.51139
2.51077
2.50927
2.50707
2.50449
2.50192
2.4997
2.49803
2.49698
2.49648
2.2632
2.26292
2.28603
2.34665
2.43625
2.5367
2.63216
2.71239
2.77193
2.80828
2.82047
2.80826
2.77186
2.71213
2.63145
2.5353
2.43474
2.3483
2.29934
2.30343
2.3513
2.41226
2.46087
2.49062
2.50634
2.51461
2.51989
2.52411
2.52758
2.52993
2.53072
2.52967
2.52681
2.52239
2.51693
2.51106
2.50552
2.50091
2.49767
2.49601
2.34118
2.31742
2.29504
2.30105
2.34268
2.40882
2.48284
2.55094
2.6042
2.63767
2.64904
2.63766
2.60413
2.55067
2.48208
2.4072
2.34022
2.29934
2.29921
2.33836
2.39601
2.44854
2.48546
2.50838
2.52291
2.5336
2.54265
2.55051
2.55673
2.56072
2.56207
2.56056
2.55621
2.5492
2.54003
2.52955
2.51891
2.50942
2.50231
2.49851
2.41288
2.38382
2.34097
2.30779
2.3014
2.32328
2.36326
2.40819
2.4472
2.47314
2.48219
2.47313
2.44713
2.40791
2.36246
2.32144
2.2981
2.30343
2.33836
2.3902
2.44136
2.48148
2.50996
2.53078
2.54777
2.56286
2.57622
2.58721
2.59524
2.60003
2.60161
2.59995
2.59489
2.58622
2.57398
2.55885
2.5423
2.52654
2.51409
2.50719
2.46398
2.44104
2.4012
2.35666
2.3218
2.30573
2.30831
2.3227
2.34025
2.35375
2.35875
2.35374
2.34017
2.3224
2.30745
2.30377
2.31814
2.3513
2.39601
2.44136
2.47999
2.51081
2.53639
2.55939
2.58076
2.59979
2.61513
2.6259
2.63228
2.63531
2.63615
2.63525
2.63201
2.62507
2.61316
2.59606
2.57518
2.55364
2.53567
2.52539
2.49283
2.4787
2.452
2.41679
2.3799
2.34874
2.32794
2.31769
2.31484
2.31525
2.31578
2.31523
2.31473
2.31733
2.32699
2.34672
2.37644
2.41226
2.44854
2.48148
2.51081
2.53841
2.56589
2.59291
2.61718
2.63565
2.64613
2.64859
2.64556
2.64117
2.63918
2.64109
2.64525
2.64771
2.6442
2.63224
2.6125
2.5889
2.5676
2.55493
2.50507
2.49795
2.48374
2.46313
2.43814
2.41215
2.38883
2.37071
2.35858
2.35192
2.34982
2.35187
2.35841
2.37021
2.38771
2.41014
2.43535
2.46087
2.48546
2.50996
2.53639
2.56589
2.59719
2.62622
2.64726
2.65494
2.64672
2.62491
2.59718
2.57423
2.56533
2.57406
2.59668
2.62375
2.64458
2.65187
2.64437
2.62672
2.60731
2.59484
2.50769
2.50486
2.49887
2.4894
2.47668
2.46176
2.44643
2.43262
2.42191
2.41523
2.41295
2.41514
2.42163
2.43194
2.4451
2.45981
2.47497
2.49062
2.50838
2.53078
2.55939
2.59291
2.62622
2.65086
2.65684
2.63558
2.58434
2.51066
2.43314
2.37478
2.35314
2.37446
2.43228
2.50898
2.58182
2.63308
2.65687
2.65848
2.64933
2.64114
2.50616
2.50547
2.50374
2.50054
2.49561
2.48912
2.48175
2.4745
2.46843
2.46442
2.46299
2.46428
2.46803
2.47361
2.48025
2.48741
2.49549
2.50634
2.52291
2.54777
2.58076
2.61718
2.64726
2.65684
2.62951
2.55168
2.42272
2.26567
2.12149
2.02497
1.99163
2.0245
2.12029
2.26348
2.41998
2.55047
2.63417
2.67429
2.68669
2.68792
2.50374
2.50385
2.50384
2.50339
2.50221
2.50022
2.4976
2.49476
2.49222
2.49045
2.48978
2.49026
2.49169
2.4937
2.49602
2.49901
2.50422
2.51461
2.5336
2.56286
2.59979
2.63565
2.65494
2.63558
2.55168
2.3857
2.15579
1.92672
1.75946
1.66779
1.63954
1.66737
1.75837
1.92468
2.15362
2.38703
2.56315
2.66561
2.71282
2.72905
2.50182
2.50209
2.50251
2.5029
2.50306
2.50289
2.50239
2.50167
2.50094
2.50038
2.50011
2.50012
2.50029
2.50047
2.50085
2.50243
2.50758
2.51989
2.54265
2.57622
2.61513
2.64613
2.64672
2.58434
2.42272
2.15579
1.859
1.6385
1.51946
1.46848
1.45491
1.46824
1.51885
1.63743
1.85843
2.16081
2.44281
2.62895
2.72367
2.75993
2.5007
2.5009
2.50126
2.50169
2.5021
2.50241
2.50257
2.50261
2.50256
2.50248
2.50237
2.50218
2.50183
2.50133
2.50117
2.50282
2.50918
2.52411
2.55051
2.58721
2.6259
2.64859
2.62491
2.51066
2.26567
1.92672
1.6385
1.48297
1.42307
1.40618
1.40334
1.40606
1.42286
1.48284
1.63968
1.93518
2.29428
2.56997
2.71965
2.77885
2.50018
2.50029
2.5005
2.50077
2.50106
2.50135
2.50159
2.50177
2.50188
2.50191
2.50184
2.50158
2.50108
2.50045
2.50036
2.50258
2.51034
2.52758
2.55673
2.59524
2.63228
2.64556
2.59718
2.43314
2.12149
1.75946
1.51946
1.42307
1.40143
1.40386
1.40684
1.40381
1.40144
1.42351
1.52176
1.76999
2.1562
2.5046
2.70629
2.78746
2.5
2.50005
2.50014
2.50026
2.50042
2.50058
2.50073
2.50087
2.50096
2.50099
2.5009
2.50063
2.50012
2.49954
2.49965
2.5024
2.51117
2.52993
2.56072
2.60003
2.63531
2.64117
2.57423
2.37478
2.02497
1.66779
1.46848
1.40618
1.40386
1.41562
1.42137
1.4156
1.40398
1.40689
1.47133
1.67916
2.06275
2.45388
2.69256
2.78978
2.49997
2.49998
2.50001
2.50006
2.50012
2.50019
2.50026
2.50033
2.50037
2.50037
2.50027
2.50001
2.49952
2.49899
2.49923
2.50222
2.51139
2.53072
2.56207
2.60161
2.63615
2.63918
2.56533
2.35314
1.99163
1.63954
1.45491
1.40334
1.40684
1.42137
1.42794
1.42136
1.40698
1.40413
1.45792
1.65111
2.03024
2.43478
2.68682
2.78996
2.49997
2.49998
2.49998
2.5
2.50001
2.50004
2.50006
2.50009
2.5001
2.50008
2.49998
2.49973
2.49927
2.49876
2.49898
2.50186
2.51077
2.52967
2.56056
2.59995
2.63525
2.64109
2.57406
2.37446
2.0245
1.66737
1.46824
1.40606
1.40381
1.4156
1.42136
1.41559
1.40393
1.40677
1.47108
1.67874
2.06227
2.45355
2.69239
2.78968
2.49999
2.49999
2.49999
2.49999
2.49999
2.5
2.5
2.50001
2.50001
2.49999
2.49989
2.49965
2.49921
2.4987
2.49878
2.50124
2.50927
2.52681
2.55621
2.59489
2.63201
2.64525
2.59668
2.43228
2.12029
1.75837
1.51885
1.42286
1.40144
1.40398
1.40698
1.40393
1.40145
1.4233
1.52116
1.76889
2.15498
2.50373
2.70576
2.78709
2.49999
2.49999
2.49999
2.49999
2.49999
2.49999
2.49999
2.5
2.49999
2.49997
2.49989
2.49967
2.49926
2.49872
2.4986
2.50041
2.50707
2.52239
2.5492
2.58622
2.62507
2.64771
2.62375
2.50898
2.26348
1.92468
1.63743
1.48284
1.42351
1.40689
1.40413
1.40677
1.4233
1.48272
1.63861
1.93313
2.29204
2.56824
2.71842
2.77788
2.5
2.5
2.5
2.5
2.5
2.5
2.5
2.5
2.5
2.49998
2.49991
2.49973
2.49936
2.49881
2.49846
2.49953
2.50449
2.51693
2.54003
2.57398
2.61316
2.6442
2.64458
2.58182
2.41998
2.15362
1.85843
1.63968
1.52176
1.47133
1.45792
1.47108
1.52116
1.63861
1.85785
2.15858
2.43996
2.6263
2.7214
2.7579
2.5
2.5
2.5
2.5
2.5
2.5
2.5
2.5
2.5
2.49999
2.49994
2.4998
2.49948
2.49895
2.49842
2.49876
2.50192
2.51106
2.52955
2.55885
2.59606
2.63224
2.65187
2.63308
2.55047
2.38703
2.16081
1.93518
1.76999
1.67916
1.65111
1.67874
1.76889
1.93313
2.15858
2.38824
2.56172
2.66285
2.70955
2.72566
2.5
2.5
2.5
2.5
2.5
2.5
2.5
2.5
2.50001
2.5
2.49997
2.49987
2.49961
2.49912
2.49848
2.49821
2.4997
2.50552
2.51891
2.5423
2.57518
2.6125
2.64437
2.65687
2.63417
2.56315
2.44281
2.29428
2.1562
2.06275
2.03024
2.06227
2.15498
2.29204
2.43996
2.56172
2.63848
2.67397
2.68369
2.68373
2.5
2.5
2.5
2.5
2.5
2.5
2.5
2.5
2.50001
2.50001
2.49999
2.49992
2.49973
2.49931
2.49863
2.49791
2.49803
2.50091
2.50942
2.52654
2.55364
2.5889
2.62672
2.65848
2.67429
2.66561
2.62895
2.56997
2.5046
2.45388
2.43478
2.45355
2.50373
2.56824
2.6263
2.66285
2.67397
2.66588
2.65024
2.63882
2.5
2.5
2.5
2.5
2.5
2.5
2.5
2.5
2.50001
2.50001
2.50001
2.49997
2.49982
2.49947
2.49879
2.4978
2.49698
2.49767
2.50231
2.51409
2.53567
2.5676
2.60731
2.64933
2.68669
2.71282
2.72367
2.71965
2.70629
2.69256
2.68682
2.69239
2.70576
2.71842
2.7214
2.70955
2.68369
2.65024
2.61915
2.60045
2.5
2.5
2.5
2.5
2.5
2.5
2.5
2.5
2.50001
2.50001
2.50002
2.49999
2.49988
2.49956
2.49889
2.49778
2.49648
2.49601
2.49851
2.50719
2.52539
2.55493
2.59484
2.64114
2.68792
2.72905
2.75993
2.77885
2.78746
2.78978
2.78996
2.78968
2.78709
2.77788
2.7579
2.72566
2.68373
2.63882
2.60045
2.57822
