# vtk DataFile Version 3.0
Brusselator Concentration Output
ASCII
DATASET STRUCTURED_POINTS
DIMENSIONS 40 40 1
ORIGIN 0.0 0.0 0.0
SPACING 0.005 0.005 1.0
POINT_DATA 1600
SCALARS C1 double 1
LOOKUP_TABLE default
1.00753
1.00793
1.00742
1.00401
0.996197
0.983971
0.969017
0.953971
0.9414
0.933171
0.930322
0.933173
0.941404
0.953982
0.96904
0.984006
0.996218
1.00391
1.00695
1.00663
1.00476
1.00275
1.00129
1.00046
1.00009
0.999975
0.999961
0.999975
0.999988
0.999996
0.999999
1
1
1
1
1
1
1
1
1
1.00793
1.00666
1.00267
0.994176
0.980555
0.963122
0.944579
0.927776
0.914796
0.906742
0.904029
0.906744
0.9148
0.927787
0.944599
0.963142
0.980523
0.993941
1.00192
1.00491
1.0047
1.00322
1.00174
1.00074
1.00023
1.00003
0.999976
0.999976
0.999987
0.999994
0.999998
1
1
1
1
1
1
1
1
1
1.00742
1.00267
0.99195
0.974543
0.951911
0.927526
0.905196
0.887511
0.875388
0.868554
0.866377
0.868556
0.875394
0.887522
0.90521
0.927515
0.951776
0.974054
0.990708
1.00023
1.00372
1.00371
1.00247
1.00126
1.0005
1.00014
1.00001
0.999982
0.999985
0.999992
0.999997
0.999999
1
1
1
1
1
1
1
1
1.00401
0.994176
0.974543
0.947012
0.916118
0.887345
0.864732
0.849703
0.841378
0.837699
0.836732
0.837702
0.841385
0.849714
0.864736
0.887288
0.915842
0.946196
0.972736
0.991144
1.00061
1.0035
1.00314
1.0019
1.00088
1.00031
1.00007
0.999996
0.999985
0.99999
0.999996
0.999999
1
1
1
1
1
1
1
1
0.996197
0.980555
0.951911
0.916118
0.880895
0.852804
0.83507
0.827299
0.826446
0.828342
0.829439
0.828345
0.826454
0.827309
0.83506
0.852688
0.880454
0.914956
0.949626
0.977414
0.994514
1.0019
1.00336
1.00249
1.00132
1.00054
1.00016
1.00002
0.999989
0.999989
0.999994
0.999998
0.999999
1
1
1
1
1
1
1
0.983971
0.963122
0.927526
0.887345
0.852804
0.830602
0.82265
0.826617
0.837122
0.84738
0.851574
0.847384
0.837131
0.826625
0.822622
0.830418
0.852188
0.885869
0.924968
0.960562
0.985626
0.998625
1.00286
1.00287
1.00174
1.00079
1.00027
1.00006
0.999996
0.999989
0.999993
0.999997
0.999999
1
1
1
1
1
1
1
0.969017
0.944579
0.905196
0.864732
0.83507
0.82265
0.828251
0.847924
0.873816
0.895664
0.904215
0.895669
0.873826
0.84793
0.828202
0.822393
0.834283
0.863
0.902604
0.943232
0.975193
0.994004
1.00161
1.00294
1.00207
1.00103
1.00039
1.0001
1.00001
0.99999
0.999992
0.999996
0.999999
1
1
1
1
1
1
1
0.953971
0.927776
0.887511
0.849703
0.827299
0.826617
0.847924
0.886213
0.931057
0.967654
0.981847
0.967661
0.931069
0.886215
0.84785
0.826284
0.826355
0.847785
0.88507
0.927984
0.96498
0.988888
0.999878
1.00274
1.00229
1.00124
1.0005
1.00015
1.00002
0.999992
0.999992
0.999996
0.999999
1
1
1
1
1
1
1
0.9414
0.914796
0.875388
0.841378
0.826446
0.837122
0.873816
0.931057
0.995956
1.04856
1.06895
1.04857
0.99597
0.931056
0.873719
0.836721
0.825373
0.839338
0.873182
0.916503
0.956612
0.984316
0.998119
1.00239
1.0024
1.00139
1.00059
1.00019
1.00003
0.999995
0.999992
0.999996
0.999999
1
1
1
1
1
1
1
0.933171
0.906742
0.868554
0.837699
0.828342
0.84738
0.895664
0.967654
1.04856
1.1141
1.13949
1.11411
1.04858
0.96765
0.895549
0.846932
0.827183
0.835592
0.866548
0.909522
0.951205
0.981187
0.996824
1.00208
1.00244
1.00148
1.00065
1.00021
1.00004
0.999998
0.999994
0.999997
1
1
1
1
1
1
1
1
0.930322
0.904029
0.866377
0.836732
0.829439
0.851574
0.904215
0.981847
1.06895
1.13949
1.16682
1.1395
1.06896
0.981841
0.904094
0.851108
0.82825
0.834603
0.864448
0.907196
0.949345
0.98008
0.99635
1.00196
1.00245
1.00151
1.00067
1.00022
1.00005
1
0.999996
0.999999
1
1
1
1
1
1
1
1
0.933173
0.906744
0.868556
0.837702
0.828345
0.847384
0.895669
0.967661
1.04857
1.11411
1.1395
1.11412
1.04858
0.967656
0.895555
0.846936
0.827186
0.835594
0.866551
0.909523
0.951207
0.981189
0.996826
1.00209
1.00244
1.00148
1.00066
1.00022
1.00005
1
0.999996
0.999999
1
1
1.00001
1.00001
1
1
1
1
0.941404
0.9148
0.875394
0.841385
0.826454
0.837131
0.873826
0.931069
0.99597
1.04858
1.06896
1.04858
0.995983
0.931068
0.873729
0.836731
0.825381
0.839345
0.873188
0.916509
0.956617
0.984322
0.998125
1.0024
1.00241
1.00139
1.00059
1.00018
1.00003
0.999986
0.999982
0.999987
0.999993
0.999998
1
1.00001
1.00001
1.00001
1.00001
1.00001
0.953982
0.927787
0.887522
0.849714
0.827309
0.826625
0.84793
0.886215
0.931056
0.96765
0.981841
0.967656
0.931068
0.886217
0.847856
0.826293
0.826366
0.847797
0.885083
0.927997
0.964993
0.9889
0.999889
1.00275
1.00229
1.00123
1.00047
1.0001
0.999965
0.999927
0.999923
0.99993
0.999943
0.999958
0.999974
0.999989
1
1.00001
1.00001
1.00001
0.96904
0.944599
0.90521
0.864736
0.83506
0.822622
0.828202
0.84785
0.873719
0.895549
0.904094
0.895555
0.873729
0.847856
0.828152
0.822365
0.834274
0.863006
0.90262
0.943254
0.975216
0.994022
1.00162
1.00293
1.00203
1.00095
1.00026
0.999931
0.999801
0.999759
0.999752
0.999765
0.999792
0.999829
0.999874
0.999919
0.999959
0.99999
1.00001
1.00002
0.984006
0.963142
0.927515
0.887288
0.852688
0.830418
0.822393
0.826284
0.836721
0.846932
0.851108
0.846936
0.836731
0.826293
0.822365
0.830235
0.852074
0.885813
0.924959
0.960581
0.985653
0.998636
1.00284
1.00278
1.00156
1.00051
0.999888
0.999586
0.999454
0.999402
0.999391
0.99941
0.999456
0.999529
0.999622
0.999725
0.999826
0.999912
0.999972
1
0.996218
0.980523
0.951776
0.915842
0.880454
0.852188
0.834283
0.826355
0.825373
0.827183
0.82825
0.827186
0.825381
0.826366
0.834274
0.852074
0.880015
0.914682
0.949489
0.977369
0.994499
1.00185
1.00321
1.00219
1.00083
0.999857
0.999305
0.999034
0.998914
0.998868
0.998859
0.998877
0.998925
0.999014
0.999149
0.999324
0.999517
0.999698
0.999838
0.999913
1.00391
0.993941
0.974054
0.946196
0.914956
0.885869
0.863
0.847785
0.839338
0.835592
0.834603
0.835594
0.839345
0.847797
0.863006
0.885813
0.914682
0.945377
0.972231
0.990864
1.00042
1.00325
1.00269
1.00118
0.999859
0.999032
0.998626
0.998493
0.9985
0.998547
0.998573
0.998556
0.998515
0.998499
0.998559
0.998722
0.998975
0.999262
0.999511
0.999654
1.00695
1.00192
0.990708
0.972736
0.949626
0.924968
0.902604
0.88507
0.873182
0.866548
0.864448
0.866551
0.873188
0.885083
0.90262
0.924959
0.949489
0.972231
0.989418
0.99937
1.00307
1.003
1.00147
0.999905
0.998853
0.998406
0.998456
0.998823
0.999298
0.999682
0.999829
0.999689
0.999314
0.998843
0.998448
0.998264
0.998335
0.998594
0.998901
0.999102
1.00663
1.00491
1.00023
0.991144
0.977414
0.960562
0.943232
0.927984
0.916503
0.909522
0.907196
0.909523
0.916509
0.927997
0.943254
0.960581
0.977369
0.990864
0.99937
1.00297
1.00313
1.00167
0.999973
0.998801
0.998469
0.99902
1.0003
1.00197
1.00362
1.00481
1.00524
1.00481
1.00363
1.002
1.00032
0.998978
0.998194
0.997951
0.99804
0.99818
1.00476
1.0047
1.00372
1.00061
0.994514
0.985626
0.975193
0.96498
0.956612
0.951205
0.949345
0.951207
0.956617
0.964993
0.975216
0.985653
0.994499
1.00042
1.00307
1.00313
1.00174
1.00002
0.998831
0.998732
1.00006
1.00285
1.00675
1.01106
1.01495
1.01763
1.01858
1.01763
1.01496
1.01109
1.00678
1.00284
0.999875
0.99809
0.997273
0.997018
1.00275
1.00322
1.00371
1.0035
1.0019
0.998625
0.994004
0.988888
0.984316
0.981187
0.98008
0.981189
0.984322
0.9889
0.994022
0.998636
1.00185
1.00325
1.003
1.00167
1.00002
0.998855
0.998963
1.00108
1.00567
1.01259
1.021
1.02949
1.03662
1.04128
1.0429
1.04129
1.03664
1.02952
1.02101
1.01254
1.00542
1.00037
0.997418
0.996134
1.00129
1.00174
1.00247
1.00314
1.00336
1.00286
1.00161
0.999878
0.998119
0.996824
0.99635
0.996826
0.998125
0.999889
1.00162
1.00284
1.00321
1.00269
1.00147
0.999973
0.998831
0.998963
1.00151
1.00754
1.01748
1.03061
1.04495
1.05801
1.06783
1.07364
1.07553
1.07365
1.06784
1.05802
1.04492
1.03045
1.01703
1.00654
0.999732
0.996494
1.00046
1.00074
1.00126
1.0019
1.00249
1.00287
1.00294
1.00274
1.00239
1.00208
1.00196
1.00209
1.0024
1.00275
1.00293
1.00278
1.00219
1.00118
0.999905
0.998801
0.998732
1.00108
1.00754
1.01939
1.03653
1.05662
1.07555
1.08951
1.09727
1.10032
1.101
1.10033
1.09727
1.08949
1.07545
1.05629
1.03577
1.01799
1.00555
0.999304
1.00009
1.00023
1.0005
1.00088
1.00132
1.00174
1.00207
1.00229
1.0024
1.00244
1.00245
1.00244
1.00241
1.00229
1.00203
1.00156
1.00083
0.999859
0.998853
0.998469
1.00006
1.00567
1.01748
1.03653
1.06091
1.08494
1.10131
1.10632
1.10261
1.09656
1.09384
1.09657
1.1026
1.10626
1.10111
1.0844
1.05982
1.03478
1.01562
1.00554
0.999975
1.00003
1.00014
1.00031
1.00054
1.00079
1.00103
1.00124
1.00139
1.00148
1.00151
1.00148
1.00139
1.00123
1.00095
1.00051
0.999857
0.999032
0.998406
0.99902
1.00285
1.01259
1.03061
1.05662
1.08494
1.10461
1.10633
1.09083
1.06802
1.0493
1.04222
1.04929
1.068
1.09073
1.10602
1.10387
1.08357
1.05478
1.02949
1.01537
0.999961
0.999976
1.00001
1.00007
1.00016
1.00027
1.00039
1.0005
1.00059
1.00065
1.00067
1.00066
1.00059
1.00047
1.00026
0.999888
0.999305
0.998626
0.998456
1.0003
1.00675
1.021
1.04495
1.07555
1.10131
1.10633
1.08397
1.04383
1.0026
0.973375
0.962979
0.973367
1.00256
1.04369
1.08357
1.10546
1.09985
1.07397
1.04526
1.02779
0.999975
0.999976
0.999982
0.999996
1.00002
1.00006
1.0001
1.00015
1.00019
1.00021
1.00022
1.00022
1.00018
1.0001
0.999931
0.999586
0.999034
0.998493
0.998823
1.00197
1.01106
1.02949
1.05801
1.08951
1.10632
1.09083
1.04383
0.983843
0.930493
0.895438
0.883386
0.895427
0.930442
0.983672
1.04339
1.08992
1.10494
1.0885
1.06019
1.04082
0.999988
0.999987
0.999985
0.999985
0.999989
0.999996
1.00001
1.00002
1.00003
1.00004
1.00005
1.00005
1.00003
0.999965
0.999801
0.999454
0.998914
0.9985
0.999298
1.00362
1.01495
1.03662
1.06783
1.09727
1.10261
1.06802
1.0026
0.930493
0.871218
0.833984
0.821449
0.833971
0.871161
0.930309
1.00213
1.06711
1.1014
1.09694
1.07189
1.05209
0.999996
0.999994
0.999992
0.99999
0.999989
0.999989
0.99999
0.999992
0.999995
0.999998
1
1
0.999986
0.999927
0.999759
0.999402
0.998868
0.998547
0.999682
1.00481
1.01763
1.04128
1.07364
1.10032
1.09656
1.0493
0.973375
0.895438
0.833984
0.796328
0.783801
0.796314
0.833925
0.895249
0.972903
1.04841
1.09552
1.10054
1.07909
1.05963
0.999999
0.999998
0.999997
0.999996
0.999994
0.999993
0.999992
0.999992
0.999992
0.999994
0.999996
0.999996
0.999982
0.999923
0.999752
0.999391
0.998859
0.998573
0.999829
1.00524
1.01858
1.0429
1.07553
1.101
1.09384
1.04222
0.962979
0.883386
0.821449
0.783801
0.771325
0.783786
0.821389
0.883195
0.962506
1.04135
1.09285
1.10142
1.08148
1.06228
1
1
0.999999
0.999999
0.999998
0.999997
0.999996
0.999996
0.999996
0.999997
0.999999
0.999999
0.999987
0.99993
0.999765
0.99941
0.998877
0.998556
0.999689
1.00481
1.01763
1.04129
1.07365
1.10033
1.09657
1.04929
0.973367
0.895427
0.833971
0.796314
0.783786
0.7963
0.833911
0.895237
0.972895
1.04841
1.09552
1.10055
1.07909
1.05964
1
1
1
1
0.999999
0.999999
0.999999
0.999999
0.999999
1
1
1
0.999993
0.999943
0.999792
0.999456
0.998925
0.998515
0.999314
1.00363
1.01496
1.03664
1.06784
1.09727
1.1026
1.068
1.00256
0.930442
0.871161
0.833925
0.821389
0.833911
0.871105
0.930258
1.00209
1.06709
1.10139
1.09695
1.07191
1.0521
1
1
1
1
1
1
1
1
1
1
1
1
0.999998
0.999958
0.999829
0.999529
0.999014
0.998499
0.998843
1.002
1.01109
1.02952
1.05802
1.08949
1.10626
1.09073
1.04369
0.983672
0.930309
0.895249
0.883195
0.895237
0.930258
0.983502
1.04324
1.08981
1.10488
1.08849
1.0602
1.04084
1
1
1
1
1
1
1
1
1
1
1
1.00001
1
0.999974
0.999874
0.999622
0.999149
0.998559
0.998448
1.00032
1.00678
1.02101
1.04492
1.07545
1.10111
1.10602
1.08357
1.04339
1.00213
0.972903
0.962506
0.972895
1.00209
1.04324
1.08317
1.10515
1.09964
1.07387
1.04523
1.0278
1
1
1
1
1
1
1
1
1
1
1
1.00001
1.00001
0.999989
0.999919
0.999725
0.999324
0.998722
0.998264
0.998978
1.00284
1.01254
1.03045
1.05629
1.0844
1.10387
1.10546
1.08992
1.06711
1.04841
1.04135
1.04841
1.06709
1.08981
1.10515
1.10314
1.08304
1.05445
1.02932
1.01528
1
1
1
1
1
1
1
1
1
1
1
1
1.00001
1
0.999959
0.999826
0.999517
0.998975
0.998335
0.998194
0.999875
1.00542
1.01703
1.03577
1.05982
1.08357
1.09985
1.10494
1.1014
1.09552
1.09285
1.09552
1.10139
1.10488
1.09964
1.08304
1.05872
1.03401
1.01512
1.0052
1
1
1
1
1
1
1
1
1
1
1
1
1.00001
1.00001
0.99999
0.999912
0.999698
0.999262
0.998594
0.997951
0.99809
1.00037
1.00654
1.01799
1.03478
1.05478
1.07397
1.0885
1.09694
1.10054
1.10142
1.10055
1.09695
1.08849
1.07387
1.05445
1.03401
1.01653
1.00443
0.998409
1
1
1
1
1
1
1
1
1
1
1
1
1.00001
1.00001
1.00001
0.999972
0.999838
0.999511
0.998901
0.99804
0.997273
0.997418
0.999732
1.00555
1.01562
1.02949
1.04526
1.06019
1.07189
1.07909
1.08148
1.07909
1.07191
1.0602
1.04523
1.02932
1.01512
1.00443
0.997757
0.994677
1
1
1
1
1
1
1
1
1
1
1
1
1.00001
1.00001
1.00002
1
0.999913
0.999654
0.999102
0.99818
0.997018
0.996134
0.996494
0.999304
1.00554
1.01537
1.02779
1.04082
1.05209
1.05963
1.06228
1.05964
1.0521
1.04084
1.0278
1.01528
1.0052
0.998409
0.994677
0.993157
SCALARS C2 double 1
LOOKUP_TABLE default
2.49068
2.48733
2.48214
2.47788
2.47768
2.48358
2.49537
2.5105
2.52519
2.53573
2.53955
2.53573
2.52518
2.51049
2.49533
2.48351
2.47755
2.47775
2.48224
2.48825
2.49355
2.49715
2.4991
2.49992
2.50014
2.50013
2.50008
2.50004
2.50001
2.5
2.5
2.5
2.5
2.5
2.5
2.5
2.5
2.5
2.5
2.5
2.48733
2.48508
2.48292
2.48461
2.4935
2.51055
2.53369
2.55866
2.58062
2.59552
2.60078
2.59552
2.58062
2.55864
2.53365
2.51047
2.4934
2.48462
2.4834
2.48683
2.49165
2.4957
2.49826
2.49953
2.5
2.5001
2.50008
2.50004
2.50002
2.50001
2.5
2.5
2.5
2.5
2.5
2.5
2.5
2.5
2.5
2.5
2.48214
2.48292
2.48806
2.50241
2.52867
2.56534
2.60722
2.64765
2.68064
2.70196
2.70931
2.70196
2.68063
2.64763
2.60718
2.56527
2.52865
2.5027
2.4893
2.48623
2.48894
2.49321
2.49669
2.49875
2.4997
2.50002
2.50007
2.50005
2.50002
2.50001
2.5
2.5
2.5
2.5
2.5
2.5
2.5
2.5
2.5
2.5
2.47788
2.48461
2.50241
2.53584
2.58521
2.6453
2.70757
2.76345
2.80657
2.83335
2.84238
2.83334
2.80656
2.76343
2.70752
2.64525
2.58533
2.53657
2.50471
2.48991
2.48733
2.49048
2.49461
2.49761
2.4992
2.49986
2.50004
2.50006
2.50003
2.50001
2.5
2.5
2.5
2.5
2.5
2.5
2.5
2.5
2.5
2.5
2.47768
2.4935
2.52867
2.58521
2.65929
2.74158
2.82079
2.88743
2.93589
2.96453
2.97391
2.96453
2.93588
2.8874
2.82074
2.74157
2.65959
2.5865
2.53221
2.50078
2.48886
2.48858
2.49245
2.4962
2.49853
2.4996
2.49997
2.50005
2.50004
2.50002
2.50001
2.5
2.5
2.5
2.5
2.5
2.5
2.5
2.5
2.5
2.48358
2.51055
2.56534
2.6453
2.74158
2.84099
2.9302
2.99963
3.04575
3.07053
3.07811
3.07053
3.04574
2.9996
2.93016
2.84105
2.7421
2.64719
2.5701
2.51936
2.49474
2.48844
2.49072
2.49475
2.49772
2.49927
2.49987
2.50003
2.50004
2.50002
2.50001
2.5
2.5
2.5
2.5
2.5
2.5
2.5
2.5
2.5
2.49537
2.53369
2.60722
2.70757
2.82079
2.9302
3.02071
3.08321
3.11741
3.13101
3.13402
3.131
3.11739
3.08317
3.02068
2.93033
2.82156
2.71007
2.61304
2.54333
2.50455
2.49039
2.48977
2.49348
2.4969
2.49888
2.49973
2.5
2.50004
2.50003
2.50001
2.5
2.5
2.5
2.5
2.5
2.5
2.5
2.5
2.5
2.5105
2.55866
2.64765
2.76345
2.88743
2.99963
3.08321
3.12956
3.14253
3.13764
3.13325
3.13763
3.14251
3.12952
3.0832
2.99985
2.88844
2.7665
2.65428
2.56844
2.51636
2.4939
2.48966
2.49254
2.49617
2.49851
2.49959
2.49996
2.50004
2.50003
2.50001
2.50001
2.5
2.5
2.5
2.5
2.5
2.5
2.5
2.5
2.52519
2.58062
2.68064
2.80657
2.93589
3.04575
3.11741
3.14253
3.12926
3.10188
3.08856
3.10187
3.12923
3.1425
3.11743
3.04605
2.93712
2.81005
2.68781
2.59012
2.52746
2.49784
2.49011
2.49196
2.49562
2.4982
2.49946
2.49992
2.50003
2.50003
2.50002
2.50001
2.5
2.5
2.5
2.5
2.5
2.5
2.5
2.5
2.53573
2.59552
2.70196
2.83335
2.96453
3.07053
3.13101
3.13764
3.10188
3.05539
3.03449
3.05538
3.10186
3.13761
3.13105
3.07089
2.96591
2.8371
2.70942
2.60466
2.53529
2.50087
2.49066
2.49169
2.49528
2.498
2.49937
2.49989
2.50002
2.50003
2.50002
2.5
2.5
2.5
2.5
2.5
2.5
2.5
2.5
2.5
2.53955
2.60078
2.70931
2.84238
2.97391
3.07811
3.13402
3.13325
3.08856
3.03449
3.01061
3.03448
3.08853
3.13322
3.13406
3.07849
2.97534
2.84623
2.71686
2.60976
2.53811
2.50201
2.4909
2.49161
2.49516
2.49792
2.49934
2.49988
2.50002
2.50003
2.50001
2.5
2.5
2.49999
2.5
2.5
2.5
2.5
2.5
2.5
2.53573
2.59552
2.70196
2.83334
2.96453
3.07053
3.131
3.13763
3.10187
3.05538
3.03448
3.05536
3.10184
3.1376
3.13104
3.07089
2.96591
2.8371
2.70942
2.60466
2.53529
2.50087
2.49066
2.49168
2.49527
2.49799
2.49936
2.49988
2.50001
2.50002
2.5
2.49999
2.49999
2.49999
2.49999
2.49999
2.49999
2.49999
2.5
2.5
2.52518
2.58062
2.68063
2.80656
2.93588
3.04574
3.11739
3.14251
3.12923
3.10186
3.08853
3.10184
3.12921
3.14248
3.11741
3.04604
2.9371
2.81004
2.6878
2.59012
2.52745
2.49783
2.4901
2.49195
2.4956
2.49818
2.49944
2.4999
2.50001
2.50001
2.5
2.49999
2.49998
2.49998
2.49998
2.49998
2.49998
2.49999
2.49999
2.49999
2.51049
2.55864
2.64763
2.76343
2.8874
2.9996
3.08317
3.12952
3.1425
3.13761
3.13322
3.1376
3.14248
3.12949
3.08317
2.99982
2.88841
2.76648
2.65426
2.56842
2.51634
2.49388
2.48964
2.49251
2.49615
2.49849
2.49957
2.49995
2.50004
2.50005
2.50003
2.50002
2.50001
2.49999
2.49998
2.49998
2.49997
2.49997
2.49998
2.49998
2.49533
2.53365
2.60718
2.70752
2.82074
2.93016
3.02068
3.0832
3.11743
3.13105
3.13406
3.13104
3.11741
3.08317
3.02066
2.93029
2.82151
2.71003
2.613
2.54328
2.50451
2.49035
2.48973
2.49345
2.49689
2.4989
2.49979
2.50011
2.50019
2.50021
2.50021
2.50019
2.50015
2.50011
2.50006
2.50001
2.49998
2.49996
2.49995
2.49995
2.48351
2.51047
2.56527
2.64525
2.74157
2.84105
2.93033
2.99985
3.04605
3.07089
3.07849
3.07089
3.04604
2.99982
2.93029
2.84111
2.74209
2.64714
2.57003
2.51928
2.49466
2.48837
2.49067
2.49476
2.49782
2.49948
2.50022
2.50052
2.50066
2.50072
2.50073
2.5007
2.50061
2.50049
2.50035
2.50021
2.50009
2.5
2.49995
2.49993
2.47755
2.4934
2.52865
2.58533
2.65959
2.7421
2.82156
2.88844
2.93712
2.96591
2.97534
2.96591
2.9371
2.88841
2.82151
2.74209
2.65988
2.5866
2.53219
2.50068
2.48875
2.48851
2.49249
2.49642
2.49899
2.50038
2.50108
2.50147
2.50171
2.50185
2.50189
2.50183
2.50167
2.50142
2.50111
2.50077
2.50046
2.5002
2.50003
2.49995
2.47775
2.48462
2.5027
2.53657
2.5865
2.64719
2.71007
2.7665
2.81005
2.8371
2.84623
2.8371
2.81004
2.76648
2.71003
2.64714
2.5866
2.5373
2.50501
2.48994
2.48728
2.49054
2.49495
2.49838
2.50056
2.50185
2.50265
2.50317
2.50351
2.5037
2.50376
2.50368
2.50347
2.50311
2.5026
2.50198
2.50134
2.50078
2.50036
2.50014
2.48224
2.4834
2.4893
2.50471
2.53221
2.5701
2.61304
2.65428
2.68781
2.70942
2.71686
2.70942
2.6878
2.65426
2.613
2.57003
2.53219
2.50501
2.49056
2.48681
2.48927
2.49373
2.49778
2.50072
2.50269
2.50398
2.5048
2.50524
2.50541
2.50543
2.50542
2.50542
2.50538
2.50519
2.50472
2.50396
2.50299
2.502
2.50119
2.50075
2.48825
2.48683
2.48623
2.48991
2.50078
2.51936
2.54333
2.56844
2.59012
2.60466
2.60976
2.60466
2.59012
2.56842
2.54328
2.51928
2.50068
2.48994
2.48681
2.48883
2.49305
2.49734
2.50084
2.50344
2.50521
2.50617
2.5063
2.50575
2.50485
2.50405
2.50373
2.50404
2.50483
2.5057
2.50622
2.50606
2.50523
2.504
2.50282
2.50211
2.49355
2.49165
2.48894
2.48733
2.48886
2.49474
2.50455
2.51636
2.52746
2.53529
2.53811
2.53529
2.52745
2.51634
2.50451
2.49466
2.48875
2.48728
2.48927
2.49305
2.49718
2.5009
2.50394
2.50609
2.50697
2.5062
2.50372
2.50001
2.49609
2.49311
2.49201
2.49311
2.49607
2.49997
2.50363
2.50608
2.50691
2.5064
2.50532
2.50451
2.49715
2.4957
2.49321
2.49048
2.48858
2.48844
2.49039
2.4939
2.49784
2.50087
2.50201
2.50087
2.49783
2.49388
2.49035
2.48837
2.48851
2.49054
2.49373
2.49734
2.5009
2.50412
2.50652
2.50725
2.50521
2.49964
2.4908
2.48016
2.47005
2.46286
2.46026
2.46285
2.47003
2.48012
2.49073
2.49957
2.50526
2.50776
2.50815
2.50785
2.4991
2.49826
2.49669
2.49461
2.49245
2.49072
2.48977
2.48966
2.49011
2.49066
2.4909
2.49066
2.4901
2.48964
2.48973
2.49067
2.49249
2.49495
2.49778
2.50084
2.50394
2.50652
2.50729
2.50427
2.49549
2.48015
2.4596
2.43738
2.41789
2.40478
2.40019
2.40477
2.41786
2.43734
2.45956
2.48018
2.49583
2.50538
2.50987
2.51137
2.49992
2.49953
2.49875
2.49761
2.4962
2.49475
2.49348
2.49254
2.49196
2.49169
2.49161
2.49168
2.49195
2.49251
2.49345
2.49476
2.49642
2.49838
2.50072
2.50344
2.50609
2.50725
2.50427
2.49373
2.47293
2.442
2.40515
2.36939
2.34113
2.32375
2.31797
2.32373
2.34111
2.36936
2.40516
2.44223
2.47375
2.49575
2.50823
2.51347
2.50014
2.5
2.4997
2.4992
2.49853
2.49772
2.4969
2.49617
2.49562
2.49528
2.49516
2.49527
2.4956
2.49615
2.49689
2.49782
2.49899
2.50056
2.50269
2.50521
2.50697
2.50521
2.49549
2.47293
2.43507
2.38533
2.33359
2.29092
2.26293
2.2486
2.24439
2.24859
2.26291
2.29092
2.33371
2.38585
2.43652
2.47605
2.50083
2.51215
2.50013
2.5001
2.50002
2.49986
2.4996
2.49927
2.49888
2.49851
2.4982
2.498
2.49792
2.49799
2.49818
2.49849
2.4989
2.49948
2.50038
2.50185
2.50398
2.50617
2.5062
2.49964
2.48015
2.442
2.38533
2.32072
2.26557
2.23165
2.21799
2.21564
2.21596
2.21563
2.21798
2.23169
2.26583
2.32159
2.38747
2.44617
2.48641
2.50588
2.50008
2.50008
2.50007
2.50004
2.49997
2.49987
2.49973
2.49959
2.49946
2.49937
2.49934
2.49936
2.49944
2.49957
2.49979
2.50022
2.50108
2.50265
2.5048
2.5063
2.50372
2.4908
2.4596
2.40515
2.33359
2.26557
2.22326
2.21233
2.22154
2.23487
2.24066
2.23486
2.22155
2.21242
2.22365
2.26675
2.33633
2.41008
2.46601
2.49456
2.50004
2.50004
2.50005
2.50006
2.50005
2.50003
2.5
2.49996
2.49992
2.49989
2.49988
2.49988
2.4999
2.49995
2.50011
2.50052
2.50147
2.50317
2.50524
2.50575
2.50001
2.48016
2.43738
2.36939
2.29092
2.23165
2.21233
2.22835
2.25971
2.28673
2.29708
2.28673
2.25972
2.22848
2.21283
2.23307
2.29406
2.37465
2.44311
2.48006
2.50001
2.50002
2.50002
2.50003
2.50004
2.50004
2.50004
2.50004
2.50003
2.50002
2.50002
2.50001
2.50001
2.50004
2.50019
2.50066
2.50171
2.50351
2.50541
2.50485
2.49609
2.47005
2.41789
2.34113
2.26293
2.21799
2.22154
2.25971
2.30738
2.34386
2.35726
2.34386
2.30741
2.25986
2.2221
2.21954
2.26625
2.34637
2.42249
2.46575
2.5
2.50001
2.50001
2.50001
2.50002
2.50002
2.50003
2.50003
2.50003
2.50003
2.50003
2.50002
2.50001
2.50005
2.50021
2.50072
2.50185
2.5037
2.50543
2.50405
2.49311
2.46286
2.40478
2.32375
2.2486
2.21564
2.23487
2.28673
2.34386
2.38561
2.40067
2.38561
2.34389
2.2869
2.23547
2.21725
2.25197
2.32882
2.40836
2.45533
2.5
2.5
2.5
2.5
2.50001
2.50001
2.50001
2.50001
2.50002
2.50002
2.50001
2.5
2.5
2.50003
2.50021
2.50073
2.50189
2.50376
2.50542
2.50373
2.49201
2.46026
2.40019
2.31797
2.24439
2.21596
2.24066
2.29708
2.35726
2.40067
2.41626
2.40067
2.35729
2.29725
2.24127
2.21759
2.24777
2.32296
2.40337
2.45153
2.5
2.5
2.5
2.5
2.5
2.5
2.5
2.50001
2.50001
2.5
2.5
2.49999
2.49999
2.50002
2.50019
2.5007
2.50183
2.50368
2.50542
2.50404
2.49311
2.46285
2.40477
2.32373
2.24859
2.21563
2.23486
2.28673
2.34386
2.38561
2.40067
2.38561
2.34389
2.28689
2.23546
2.21724
2.25196
2.32881
2.40835
2.45532
2.5
2.5
2.5
2.5
2.5
2.5
2.5
2.5
2.5
2.5
2.5
2.49999
2.49998
2.50001
2.50015
2.50061
2.50167
2.50347
2.50538
2.50483
2.49607
2.47003
2.41786
2.34111
2.26291
2.21798
2.22155
2.25972
2.30741
2.34389
2.35729
2.34389
2.30743
2.25988
2.22211
2.21953
2.26623
2.34634
2.42246
2.46573
2.5
2.5
2.5
2.5
2.5
2.5
2.5
2.5
2.5
2.5
2.49999
2.49999
2.49998
2.49999
2.50011
2.50049
2.50142
2.50311
2.50519
2.5057
2.49997
2.48012
2.43734
2.36936
2.29092
2.23169
2.21242
2.22848
2.25986
2.2869
2.29725
2.28689
2.25988
2.22861
2.21292
2.23311
2.29405
2.37461
2.44307
2.48
2.5
2.5
2.5
2.5
2.5
2.5
2.5
2.5
2.5
2.5
2.5
2.49999
2.49998
2.49998
2.50006
2.50035
2.50111
2.5026
2.50472
2.50622
2.50363
2.49073
2.45956
2.40516
2.33371
2.26583
2.22365
2.21283
2.2221
2.23547
2.24127
2.23546
2.22211
2.21292
2.22404
2.26701
2.33645
2.41009
2.46596
2.49448
2.5
2.5
2.5
2.5
2.5
2.5
2.5
2.5
2.5
2.5
2.5
2.49999
2.49998
2.49998
2.50001
2.50021
2.50077
2.50198
2.50396
2.50606
2.50608
2.49957
2.48018
2.44223
2.38585
2.32159
2.26675
2.23307
2.21954
2.21725
2.21759
2.21724
2.21953
2.23311
2.26701
2.32245
2.38799
2.44639
2.48644
2.50582
2.5
2.5
2.5
2.5
2.5
2.5
2.5
2.5
2.5
2.5
2.5
2.49999
2.49998
2.49997
2.49998
2.50009
2.50046
2.50134
2.50299
2.50523
2.50691
2.50526
2.49583
2.47375
2.43652
2.38747
2.33633
2.29406
2.26625
2.25197
2.24777
2.25196
2.26623
2.29405
2.33645
2.38799
2.43796
2.47687
2.50119
2.51229
2.5
2.5
2.5
2.5
2.5
2.5
2.5
2.5
2.5
2.5
2.5
2.49999
2.49999
2.49997
2.49996
2.5
2.5002
2.50078
2.502
2.504
2.5064
2.50776
2.50538
2.49575
2.47605
2.44617
2.41008
2.37465
2.34637
2.32882
2.32296
2.32881
2.34634
2.37461
2.41009
2.44639
2.47687
2.4978
2.50943
2.51421
2.5
2.5
2.5
2.5
2.5
2.5
2.5
2.5
2.5
2.5
2.5
2.5
2.49999
2.49998
2.49995
2.49995
2.50003
2.50036
2.50119
2.50282
2.50532
2.50815
2.50987
2.50823
2.50083
2.48641
2.46601
2.44311
2.42249
2.40836
2.40337
2.40835
2.42246
2.44307
2.46596
2.48644
2.50119
2.50943
2.5127
2.51347
2.5
2.5
2.5
2.5
2.5
2.5
2.5
2.5
2.5
2.5
2.5
2.5
2.49999
2.49998
2.49995
2.49993
2.49995
2.50014
2.50075
2.50211
2.50451
2.50785
2.51137
2.51347
2.51215
2.50588
2.49456
2.48006
2.46575
2.45533
2.45153
2.45532
2.46573
2.48
2.49448
2.50582
2.51229
2.51421
2.51347
2.51234
