# vtk DataFile Version 3.0
Brusselator Concentration Output
ASCII
DATASET STRUCTURED_POINTS
DIMENSIONS 40 40 1
ORIGIN 0.0 0.0 0.0
SPACING 0.005 0.005 1.0
POINT_DATA 1600
SCALARS C1 double 1
LOOKUP_TABLE default
1.00021
1.00186
1.00529
1.01043
1.01664
1.02268
1.02718
1.02942
1.02974
1.0292
1.02887
1.0292
1.02974
1.02942
1.02718
1.0227
1.0167
1.01056
1.00553
1.0022
1.00044
0.999771
0.999665
0.999759
0.999872
0.999946
0.999982
0.999996
1
1
1
1
1
1
1
1
1
1
1
1
1.00186
1.00414
1.00848
1.0141
1.0194
1.02236
1.02168
1.01772
1.01232
1.00786
1.00615
1.00786
1.01232
1.01772
1.02169
1.02238
1.01947
1.01425
1.0087
1.00432
1.00159
1.00027
0.999824
0.99978
0.999855
0.999929
0.999973
0.999992
0.999999
1
1
1
1
1
1
1
1
1
1
1
1.00529
1.00848
1.01377
1.01869
1.01972
1.014
1.00148
0.985214
0.969683
0.95878
0.954888
0.95878
0.969684
0.985218
1.00149
1.01405
1.01982
1.01885
1.01391
1.00826
1.00392
1.00137
1.00022
0.999865
0.999842
0.999903
0.999956
0.999984
0.999996
1
1
1
1
1
1
1
1
1
1
1
1.01043
1.0141
1.01869
1.01897
1.00935
0.987844
0.958113
0.9271
0.901225
0.884506
0.878772
0.884506
0.901227
0.927108
0.958137
0.987904
1.00946
1.01909
1.01859
1.01312
1.00726
1.00314
1.00095
1.00008
0.999865
0.99988
0.999935
0.999973
0.999992
0.999998
1
1
1
1
1
1
1
1
1
1
1.01664
1.0194
1.01972
1.00935
0.982519
0.941451
0.89512
0.853103
0.821376
0.802187
0.795823
0.802188
0.821379
0.853114
0.895151
0.941521
0.982624
1.00936
1.01919
1.01727
1.01107
1.00549
1.00207
1.00048
0.999955
0.999874
0.999915
0.999961
0.999986
0.999996
0.999999
1
1
1
1
1
1
1
1
1
1.02268
1.02236
1.014
0.987844
0.941451
0.883449
0.826843
0.780943
0.749164
0.731101
0.725307
0.731102
0.749167
0.780956
0.826879
0.883521
0.941517
0.987665
1.01287
1.01878
1.01446
1.00811
1.00348
1.00107
1.00013
0.999896
0.999902
0.999948
0.99998
0.999994
0.999999
1
1
1
1
1
1
1
1
1
1.02718
1.02168
1.00148
0.958113
0.89512
0.826843
0.767397
0.723647
0.695801
0.681016
0.67646
0.681017
0.695805
0.723661
0.767435
0.826907
0.895128
0.957693
0.999646
1.01659
1.01654
1.01052
1.00501
1.00177
1.00037
0.999949
0.999899
0.999938
0.999973
0.999991
0.999998
1
1
1
1
1
1
1
1
1
1.02942
1.01772
0.985214
0.9271
0.853103
0.780943
0.723647
0.685033
0.662569
0.651637
0.648464
0.651638
0.662573
0.685048
0.723684
0.780996
0.853047
0.926439
0.982722
1.01129
1.01702
1.01235
1.0064
1.00249
1.00065
1.00002
0.999905
0.99993
0.999968
0.999989
0.999997
1
1
1
1
1
1
1
1
1
1.02974
1.01232
0.969683
0.901225
0.821376
0.749164
0.695801
0.662569
0.645045
0.637481
0.635497
0.637482
0.645049
0.662584
0.695837
0.749207
0.821265
0.900365
0.966668
1.00493
1.01633
1.01347
1.00748
1.0031
1.0009
1.0001
0.999916
0.999926
0.999963
0.999987
0.999996
0.999999
1
1
1
1
1
1
1
1
1.0292
1.00786
0.95878
0.884506
0.802187
0.731101
0.681016
0.651637
0.637481
0.632177
0.630988
0.632178
0.637485
0.651652
0.681051
0.731137
0.802039
0.883516
0.955437
0.9999
1.01535
1.01401
1.00814
1.0035
1.00108
1.00015
0.999926
0.999925
0.999961
0.999985
0.999996
0.999999
1
1
1
1
1
1
1
1
1.02887
1.00615
0.954888
0.878772
0.795823
0.725307
0.67646
0.648464
0.635497
0.630988
0.630079
0.630989
0.635501
0.648479
0.676496
0.72534
0.795662
0.877738
0.951434
0.998008
1.01492
1.01416
1.00836
1.00364
1.00114
1.00017
0.999931
0.999925
0.999961
0.999986
0.999997
1
1
1
1
1
1
1
1
1
1.0292
1.00786
0.95878
0.884506
0.802188
0.731102
0.681017
0.651638
0.637482
0.632178
0.630989
0.632179
0.637486
0.651653
0.681052
0.731137
0.802039
0.883516
0.955437
0.9999
1.01535
1.01401
1.00814
1.0035
1.00108
1.00016
0.999929
0.999929
0.999966
0.99999
1
1
1
1
1
1
1
1
1
1
1.02974
1.01232
0.969684
0.901227
0.821379
0.749167
0.695805
0.662573
0.645049
0.637485
0.635501
0.637486
0.645054
0.662588
0.695842
0.74921
0.821268
0.900367
0.966669
1.00493
1.01633
1.01347
1.00748
1.0031
1.00091
1.0001
0.999926
0.999939
0.999978
1
1.00001
1.00001
1.00001
1.00001
1.00001
1.00001
1
1
1
1
1.02942
1.01772
0.985218
0.927108
0.853114
0.780956
0.723661
0.685048
0.662584
0.651652
0.648479
0.651653
0.662588
0.685063
0.723699
0.781009
0.853058
0.926447
0.982726
1.0113
1.01702
1.01235
1.0064
1.0025
1.00066
1.00004
0.99993
0.99996
0.999999
1.00002
1.00003
1.00003
1.00003
1.00003
1.00003
1.00002
1.00001
1.00001
1.00001
1
1.02718
1.02169
1.00149
0.958137
0.895151
0.826879
0.767435
0.723684
0.695837
0.681051
0.676496
0.681052
0.695842
0.723699
0.767473
0.826943
0.895159
0.957718
0.999663
1.0166
1.01655
1.01053
1.00502
1.0018
1.00041
0.999992
0.999947
0.999988
1.00002
1.00004
1.00004
1.00005
1.00005
1.00005
1.00005
1.00004
1.00003
1.00003
1.00002
1.00001
1.0227
1.02238
1.01405
0.987904
0.941521
0.883521
0.826907
0.780996
0.749207
0.731137
0.72534
0.731137
0.74921
0.781009
0.826943
0.883592
0.941588
0.987726
1.01291
1.01881
1.01448
1.00814
1.00352
1.00112
1.00019
0.999959
0.999954
0.999981
0.999991
0.999989
0.999987
0.999995
1.00001
1.00003
1.00005
1.00006
1.00006
1.00005
1.00004
1.00004
1.0167
1.01947
1.01982
1.00946
0.982624
0.941517
0.895128
0.853047
0.821265
0.802039
0.795662
0.802039
0.821268
0.853058
0.895159
0.941588
0.982729
1.00947
1.01929
1.01735
1.01114
1.00556
1.00214
1.00056
1.00002
0.999887
0.999853
0.999808
0.999746
0.999694
0.999675
0.999698
0.99976
0.999847
0.999938
1.00001
1.00006
1.00008
1.00009
1.00008
1.01056
1.01425
1.01885
1.01909
1.00936
0.987665
0.957693
0.926439
0.900365
0.883516
0.877738
0.883516
0.900367
0.926447
0.957718
0.987726
1.00947
1.01922
1.01876
1.01329
1.0074
1.00327
1.00106
1.00012
0.999783
0.999601
0.999404
0.999175
0.998958
0.998805
0.998751
0.998807
0.998967
0.999202
0.99947
0.999723
0.999923
1.00005
1.00012
1.00014
1.00553
1.0087
1.01391
1.01859
1.01919
1.01287
0.999646
0.982722
0.966668
0.955437
0.951434
0.955437
0.966669
0.982726
0.999663
1.01291
1.01929
1.01876
1.01406
1.0085
1.00416
1.00155
1.00026
0.999654
0.999232
0.99876
0.998209
0.997656
0.997194
0.996895
0.996791
0.996895
0.997199
0.997672
0.998255
0.998862
0.9994
0.999805
1.00006
1.00017
1.0022
1.00432
1.00826
1.01312
1.01727
1.01878
1.01659
1.01129
1.00493
0.9999
0.998008
0.9999
1.00493
1.0113
1.0166
1.01881
1.01735
1.01329
1.0085
1.00449
1.00185
1.00038
0.999535
0.998824
0.997972
0.996952
0.995897
0.994979
0.994309
0.993919
0.993793
0.993919
0.994311
0.994988
0.995929
0.997032
0.998132
0.99906
0.999704
1.00003
1.00044
1.00159
1.00392
1.00726
1.01107
1.01446
1.01654
1.01702
1.01633
1.01535
1.01492
1.01535
1.01633
1.01702
1.01655
1.01448
1.01114
1.0074
1.00416
1.00185
1.00042
0.999462
0.9985
0.997243
0.995679
0.994043
0.992657
0.991738
0.991294
0.991161
0.991144
0.99116
0.991295
0.991745
0.992683
0.994111
0.995823
0.997479
0.998756
0.999439
0.999771
1.00027
1.00137
1.00314
1.00549
1.00811
1.01052
1.01235
1.01347
1.01401
1.01416
1.01401
1.01347
1.01235
1.01053
1.00814
1.00556
1.00327
1.00155
1.00038
0.999462
0.998376
0.996804
0.994734
0.992535
0.990801
0.990029
0.990319
0.991296
0.992296
0.99271
0.992296
0.991299
0.990329
0.990057
0.990869
0.992663
0.99491
0.996908
0.998066
0.999665
0.999824
1.00022
1.00095
1.00207
1.00348
1.00501
1.0064
1.00748
1.00814
1.00836
1.00814
1.00748
1.0064
1.00502
1.00352
1.00214
1.00106
1.00026
0.999535
0.9985
0.996804
0.994386
0.991705
0.989706
0.989433
0.991451
0.995419
1.0001
1.00385
1.00528
1.00385
1.00011
0.995435
0.99149
0.989509
0.98981
0.991748
0.9941
0.995643
0.999759
0.99978
0.999865
1.00008
1.00048
1.00107
1.00177
1.00249
1.0031
1.0035
1.00364
1.0035
1.0031
1.0025
1.0018
1.00112
1.00056
1.00012
0.999654
0.998824
0.997243
0.994734
0.991705
0.989361
0.98945
0.993512
1.00196
1.01352
1.02542
1.03432
1.03761
1.03432
1.02543
1.01355
1.00201
0.993593
0.989498
0.98916
0.990764
0.992236
0.999872
0.999855
0.999842
0.999865
0.999955
1.00013
1.00037
1.00065
1.0009
1.00108
1.00114
1.00108
1.00091
1.00066
1.00041
1.00019
1.00002
0.999783
0.999232
0.997972
0.995679
0.992535
0.989706
0.98945
0.994524
1.00696
1.02673
1.0509
1.07418
1.09088
1.09692
1.09089
1.0742
1.05093
1.0268
1.00704
0.994457
0.988863
0.987854
0.98838
0.999946
0.999929
0.999903
0.99988
0.999874
0.999896
0.999949
1.00002
1.0001
1.00015
1.00017
1.00016
1.0001
1.00004
0.999992
0.999959
0.999887
0.999601
0.99876
0.996952
0.994043
0.990801
0.989433
0.993512
1.00696
1.03228
1.06841
1.10952
1.14661
1.17161
1.18031
1.17162
1.14663
1.10958
1.06848
1.03231
1.00671
0.992399
0.986496
0.984947
0.999982
0.999973
0.999956
0.999935
0.999915
0.999902
0.999899
0.999905
0.999916
0.999926
0.999931
0.999929
0.999926
0.99993
0.999947
0.999954
0.999853
0.999404
0.998209
0.995897
0.992657
0.990029
0.991451
1.00196
1.02673
1.06841
1.12362
1.18137
1.22796
1.25576
1.26463
1.25577
1.22799
1.18143
1.12369
1.06837
1.02622
1.00023
0.987399
0.982735
0.999996
0.999992
0.999984
0.999973
0.999961
0.999948
0.999938
0.99993
0.999926
0.999925
0.999925
0.999929
0.999939
0.99996
0.999988
0.999981
0.999808
0.999175
0.997656
0.994979
0.991738
0.990319
0.995419
1.01352
1.0509
1.10952
1.18137
1.24763
1.29159
1.3119
1.3171
1.31191
1.29162
1.24769
1.18141
1.10938
1.05009
1.01117
0.990379
0.98204
1
0.999999
0.999996
0.999992
0.999986
0.99998
0.999973
0.999968
0.999963
0.999961
0.999961
0.999966
0.999978
0.999999
1.00002
0.999991
0.999746
0.998958
0.997194
0.994309
0.991294
0.991296
1.0001
1.02542
1.07418
1.14661
1.22796
1.29159
1.32239
1.32937
1.32928
1.32938
1.32242
1.29164
1.22797
1.14636
1.07311
1.02253
0.994319
0.982497
1
1
1
0.999998
0.999996
0.999994
0.999991
0.999989
0.999987
0.999985
0.999986
0.99999
1
1.00002
1.00004
0.999989
0.999694
0.998805
0.996895
0.993919
0.991161
0.992296
1.00385
1.03432
1.09088
1.17161
1.25576
1.3119
1.32937
1.32551
1.32149
1.32552
1.3294
1.31194
1.25574
1.17128
1.08961
1.03108
0.997616
0.983301
1
1
1
1
0.999999
0.999999
0.999998
0.999997
0.999996
0.999996
0.999997
1
1.00001
1.00003
1.00004
0.999987
0.999675
0.998751
0.996791
0.993793
0.991144
0.99271
1.00528
1.03761
1.09692
1.18031
1.26463
1.3171
1.32928
1.32149
1.3161
1.3215
1.3293
1.31713
1.26459
1.17994
1.09558
1.03425
0.998894
0.983675
1
1
1
1
1
1
1
1
0.999999
0.999999
1
1
1.00001
1.00003
1.00005
0.999995
0.999698
0.998807
0.996895
0.993919
0.99116
0.992296
1.00385
1.03432
1.09089
1.17162
1.25577
1.31191
1.32938
1.32552
1.3215
1.32554
1.32941
1.31195
1.25575
1.17129
1.08961
1.03108
0.997617
0.983302
1
1
1
1
1
1
1
1
1
1
1
1
1.00001
1.00003
1.00005
1.00001
0.99976
0.998967
0.997199
0.994311
0.991295
0.991299
1.00011
1.02543
1.0742
1.14663
1.22799
1.29162
1.32242
1.3294
1.3293
1.32941
1.32246
1.29167
1.228
1.14638
1.07312
1.02254
0.994324
0.9825
1
1
1
1
1
1
1
1
1
1
1
1
1.00001
1.00003
1.00005
1.00003
0.999847
0.999202
0.997672
0.994988
0.991745
0.990329
0.995435
1.01355
1.05093
1.10958
1.18143
1.24769
1.29164
1.31194
1.31713
1.31195
1.29167
1.24775
1.18147
1.10943
1.05013
1.0112
0.990397
0.982053
1
1
1
1
1
1
1
1
1
1
1
1
1.00001
1.00003
1.00005
1.00005
0.999938
0.99947
0.998255
0.995929
0.992683
0.990057
0.99149
1.00201
1.0268
1.06848
1.12369
1.18141
1.22797
1.25574
1.26459
1.25575
1.228
1.18147
1.12376
1.06844
1.02629
1.00029
0.987442
0.982771
1
1
1
1
1
1
1
1
1
1
1
1
1.00001
1.00002
1.00004
1.00006
1.00001
0.999723
0.998862
0.997032
0.994111
0.990869
0.989509
0.993593
1.00704
1.03231
1.06837
1.10938
1.14636
1.17128
1.17994
1.17129
1.14638
1.10943
1.06844
1.03235
1.00678
0.992486
0.986581
0.985028
1
1
1
1
1
1
1
1
1
1
1
1
1
1.00001
1.00003
1.00006
1.00006
0.999923
0.9994
0.998132
0.995823
0.992663
0.98981
0.989498
0.994457
1.00671
1.02622
1.05009
1.07311
1.08961
1.09558
1.08961
1.07312
1.05013
1.02629
1.00678
0.994396
0.988921
0.987974
0.988523
1
1
1
1
1
1
1
1
1
1
1
1
1
1.00001
1.00003
1.00005
1.00008
1.00005
0.999805
0.99906
0.997479
0.99491
0.991748
0.98916
0.988863
0.992399
1.00023
1.01117
1.02253
1.03108
1.03425
1.03108
1.02254
1.0112
1.00029
0.992486
0.988921
0.988975
0.990823
0.992408
1
1
1
1
1
1
1
1
1
1
1
1
1
1.00001
1.00002
1.00004
1.00009
1.00012
1.00006
0.999704
0.998756
0.996908
0.9941
0.990764
0.987854
0.986496
0.987399
0.990379
0.994319
0.997616
0.998894
0.997617
0.994324
0.990397
0.987442
0.986581
0.987974
0.990823
0.993807
0.995668
1
1
1
1
1
1
1
1
1
1
1
1
1
1
1.00001
1.00004
1.00008
1.00014
1.00017
1.00003
0.999439
0.998066
0.995643
0.992236
0.98838
0.984947
0.982735
0.98204
0.982497
0.983301
0.983675
0.983302
0.9825
0.982053
0.982771
0.985028
0.988523
0.992408
0.995668
0.997504
SCALARS C2 double 1
LOOKUP_TABLE default
2.50229
2.50093
2.49751
2.49114
2.48144
2.46926
2.45651
2.44537
2.43728
2.43261
2.43111
2.43261
2.43728
2.44537
2.45651
2.46925
2.4814
2.49099
2.49715
2.50022
2.50118
2.5011
2.50071
2.50036
2.50015
2.50005
2.50001
2.5
2.5
2.5
2.5
2.5
2.5
2.5
2.5
2.5
2.5
2.5
2.5
2.5
2.50093
2.49827
2.49236
2.48277
2.47017
2.45682
2.4456
2.43845
2.43529
2.43458
2.43458
2.43458
2.43529
2.43845
2.4456
2.45679
2.47009
2.48256
2.49192
2.49754
2.5001
2.50082
2.50073
2.50044
2.50021
2.50008
2.50002
2.5
2.5
2.5
2.5
2.5
2.5
2.5
2.5
2.5
2.5
2.5
2.5
2.5
2.49751
2.49236
2.48201
2.46753
2.45231
2.44133
2.43837
2.44338
2.45258
2.46083
2.46408
2.46083
2.45258
2.44338
2.43836
2.44128
2.45217
2.46722
2.48147
2.49174
2.49753
2.49999
2.50062
2.50054
2.5003
2.50013
2.50005
2.50001
2.5
2.5
2.5
2.5
2.5
2.5
2.5
2.5
2.5
2.5
2.5
2.5
2.49114
2.48277
2.46753
2.45001
2.43817
2.43976
2.45685
2.48433
2.51309
2.53429
2.54204
2.53429
2.51309
2.48433
2.45683
2.43968
2.43797
2.4496
2.46699
2.48261
2.49295
2.49821
2.50018
2.50055
2.50041
2.50021
2.50008
2.50003
2.5
2.5
2.5
2.5
2.5
2.5
2.5
2.5
2.5
2.5
2.5
2.5
2.48144
2.47017
2.45231
2.43817
2.44079
2.46761
2.51495
2.5708
2.62146
2.6561
2.66834
2.6561
2.62146
2.57079
2.51491
2.46749
2.44053
2.43773
2.45196
2.47106
2.4863
2.49523
2.49919
2.50038
2.50047
2.50029
2.50013
2.50004
2.50001
2.5
2.5
2.5
2.5
2.5
2.5
2.5
2.5
2.5
2.5
2.5
2.46926
2.45682
2.44133
2.43976
2.46761
2.52749
2.60772
2.69052
2.75997
2.80537
2.82108
2.80537
2.75997
2.69051
2.60768
2.52735
2.46731
2.43937
2.44146
2.45937
2.4783
2.49114
2.49758
2.49996
2.50045
2.50035
2.50017
2.50007
2.50002
2.5
2.5
2.5
2.5
2.5
2.5
2.5
2.5
2.5
2.5
2.5
2.45651
2.4456
2.43837
2.45685
2.51495
2.60772
2.71636
2.81984
2.90233
2.95459
2.9724
2.95459
2.90232
2.81983
2.71631
2.60757
2.51464
2.4566
2.43919
2.45026
2.4703
2.48645
2.49552
2.49928
2.50033
2.50038
2.50022
2.50009
2.50003
2.50001
2.5
2.5
2.5
2.5
2.5
2.5
2.5
2.5
2.5
2.5
2.44537
2.43845
2.44338
2.48433
2.5708
2.69052
2.81984
2.93671
3.02662
3.0823
3.10105
3.0823
3.02662
2.9367
2.81978
2.69035
2.57051
2.48426
2.44497
2.44528
2.46366
2.48195
2.49332
2.49848
2.50014
2.50038
2.50025
2.50011
2.50004
2.50001
2.5
2.5
2.5
2.5
2.5
2.5
2.5
2.5
2.5
2.5
2.43728
2.43529
2.45258
2.51309
2.62146
2.75997
2.90233
3.02662
3.11991
3.17672
3.19569
3.17672
3.1199
3.0266
2.90226
2.7598
2.62118
2.51319
2.45486
2.44396
2.45912
2.47832
2.49139
2.49771
2.49993
2.50036
2.50027
2.50013
2.50005
2.50001
2.5
2.5
2.5
2.5
2.5
2.5
2.5
2.5
2.5
2.5
2.43261
2.43458
2.46083
2.53429
2.6561
2.80537
2.95459
3.0823
3.17672
3.2336
3.25249
3.2336
3.17671
3.08228
2.95453
2.8052
2.65584
2.53451
2.46358
2.44446
2.45665
2.47603
2.49008
2.49717
2.49976
2.50033
2.50028
2.50014
2.50005
2.50001
2.5
2.5
2.5
2.5
2.5
2.5
2.5
2.5
2.5
2.5
2.43111
2.43458
2.46408
2.54204
2.66834
2.82108
2.9724
3.10105
3.19569
3.25249
3.2713
3.25249
3.19568
3.10103
2.97234
2.8209
2.66809
2.5423
2.467
2.44488
2.45589
2.47525
2.48962
2.49697
2.4997
2.50032
2.50028
2.50014
2.50005
2.50001
2.5
2.5
2.5
2.5
2.5
2.5
2.5
2.5
2.5
2.5
2.43261
2.43458
2.46083
2.53429
2.6561
2.80537
2.95459
3.0823
3.17672
3.2336
3.25249
3.2336
3.17671
3.08228
2.95453
2.8052
2.65584
2.53451
2.46358
2.44446
2.45665
2.47603
2.49008
2.49717
2.49976
2.50033
2.50027
2.50013
2.50005
2.50001
2.5
2.5
2.5
2.5
2.5
2.5
2.5
2.5
2.5
2.5
2.43728
2.43529
2.45258
2.51309
2.62146
2.75997
2.90232
3.02662
3.1199
3.17671
3.19568
3.17671
3.1199
3.0266
2.90226
2.7598
2.62118
2.51319
2.45486
2.44396
2.45912
2.47833
2.49139
2.49771
2.49992
2.50035
2.50026
2.50011
2.50003
2.49999
2.49998
2.49998
2.49998
2.49999
2.49999
2.49999
2.5
2.5
2.5
2.5
2.44537
2.43845
2.44338
2.48433
2.57079
2.69051
2.81983
2.9367
3.0266
3.08228
3.10103
3.08228
3.0266
2.93668
2.81977
2.69034
2.5705
2.48426
2.44497
2.44528
2.46366
2.48195
2.49331
2.49847
2.50012
2.50036
2.50021
2.50007
2.49999
2.49996
2.49995
2.49995
2.49995
2.49996
2.49997
2.49998
2.49999
2.49999
2.5
2.5
2.45651
2.4456
2.43836
2.45683
2.51491
2.60768
2.71631
2.81978
2.90226
2.95453
2.97234
2.95453
2.90226
2.81977
2.71625
2.60752
2.5146
2.45658
2.43918
2.45026
2.4703
2.48645
2.4955
2.49926
2.50029
2.50031
2.50013
2.49999
2.49992
2.49989
2.49988
2.49988
2.49989
2.4999
2.49991
2.49993
2.49995
2.49997
2.49999
2.49999
2.46925
2.45679
2.44128
2.43968
2.46749
2.52735
2.60757
2.69035
2.7598
2.8052
2.8209
2.8052
2.7598
2.69034
2.60752
2.52721
2.46719
2.43929
2.44141
2.45934
2.47828
2.49111
2.49754
2.49988
2.50034
2.5002
2.5
2.49988
2.49983
2.49981
2.49981
2.49981
2.49981
2.49981
2.49983
2.49985
2.49989
2.49992
2.49995
2.49996
2.4814
2.47009
2.45217
2.43797
2.44053
2.46731
2.51464
2.57051
2.62118
2.65584
2.66809
2.65584
2.62118
2.5705
2.5146
2.46719
2.44026
2.43752
2.45182
2.47096
2.48623
2.49515
2.49907
2.50021
2.50025
2.50005
2.4999
2.49986
2.49988
2.49992
2.49993
2.49992
2.49987
2.49981
2.49977
2.49976
2.49978
2.49982
2.49987
2.4999
2.49099
2.48256
2.46722
2.4496
2.43773
2.43937
2.4566
2.48426
2.51319
2.53451
2.5423
2.53451
2.51319
2.48426
2.45658
2.43929
2.43752
2.44919
2.46666
2.48237
2.49276
2.49801
2.49993
2.50027
2.50014
2.50004
2.5001
2.5003
2.50053
2.50071
2.50078
2.50071
2.50052
2.50027
2.50002
2.49982
2.49972
2.4997
2.49973
2.49976
2.49715
2.49192
2.48147
2.46699
2.45196
2.44146
2.43919
2.44497
2.45486
2.46358
2.467
2.46358
2.45486
2.44497
2.43918
2.44141
2.45182
2.46666
2.4809
2.49125
2.49711
2.4996
2.50025
2.50026
2.50031
2.50065
2.50126
2.50202
2.50273
2.50323
2.50341
2.50323
2.50273
2.50201
2.50122
2.50051
2.49999
2.4997
2.49958
2.49955
2.50022
2.49754
2.49174
2.48261
2.47106
2.45937
2.45026
2.44528
2.44396
2.44446
2.44488
2.44446
2.44396
2.44528
2.45026
2.45934
2.47096
2.48237
2.49125
2.49674
2.49936
2.50021
2.50039
2.50067
2.50145
2.50279
2.50452
2.50631
2.50783
2.50885
2.5092
2.50885
2.50784
2.5063
2.50449
2.50271
2.50122
2.50019
2.49961
2.49936
2.50118
2.5001
2.49753
2.49295
2.4863
2.4783
2.4703
2.46366
2.45912
2.45665
2.45589
2.45665
2.45912
2.46366
2.4703
2.47828
2.48623
2.49276
2.49711
2.49936
2.50019
2.50047
2.50099
2.50228
2.50456
2.50765
2.51107
2.51425
2.51672
2.51824
2.51875
2.51824
2.51672
2.51425
2.51105
2.50758
2.50437
2.50187
2.50025
2.49949
2.5011
2.50082
2.49999
2.49821
2.49523
2.49114
2.48645
2.48195
2.47832
2.47603
2.47525
2.47603
2.47833
2.48195
2.48645
2.49111
2.49515
2.49801
2.4996
2.50021
2.50047
2.50112
2.50282
2.506
2.51058
2.51594
2.5211
2.52521
2.52789
2.52926
2.52966
2.52926
2.52789
2.52521
2.52107
2.51586
2.51038
2.50561
2.50221
2.50049
2.50071
2.50073
2.50062
2.50018
2.49919
2.49758
2.49552
2.49332
2.49139
2.49008
2.48962
2.49008
2.49139
2.49331
2.4955
2.49754
2.49907
2.49993
2.50025
2.50039
2.50099
2.50282
2.50655
2.51236
2.51955
2.52667
2.53207
2.53481
2.53516
2.53439
2.53394
2.53439
2.53515
2.5348
2.53203
2.52655
2.51931
2.51198
2.50622
2.5031
2.50036
2.50044
2.50054
2.50055
2.50038
2.49996
2.49928
2.49848
2.49771
2.49717
2.49697
2.49717
2.49771
2.49847
2.49926
2.49988
2.50021
2.50027
2.50026
2.50067
2.50228
2.506
2.51236
2.52088
2.52972
2.53608
2.53752
2.53351
2.52609
2.51914
2.51633
2.51914
2.52608
2.53348
2.53744
2.53591
2.52944
2.52061
2.51258
2.5079
2.50015
2.50021
2.5003
2.50041
2.50047
2.50045
2.50033
2.50014
2.49993
2.49976
2.4997
2.49976
2.49992
2.50012
2.50029
2.50034
2.50025
2.50014
2.50031
2.50145
2.50456
2.51058
2.51955
2.52972
2.53732
2.53765
2.52745
2.50749
2.48346
2.464
2.45655
2.464
2.48345
2.50744
2.52733
2.53742
2.53703
2.52971
2.52076
2.51494
2.50005
2.50008
2.50013
2.50021
2.50029
2.50035
2.50038
2.50038
2.50036
2.50033
2.50032
2.50033
2.50035
2.50036
2.50031
2.5002
2.50005
2.50004
2.50065
2.50279
2.50765
2.51594
2.52667
2.53608
2.53765
2.52416
2.49169
2.44397
2.39325
2.35505
2.34096
2.35504
2.39322
2.44389
2.49152
2.5239
2.53745
2.53655
2.52932
2.52345
2.50001
2.50002
2.50005
2.50008
2.50013
2.50017
2.50022
2.50025
2.50027
2.50028
2.50028
2.50027
2.50026
2.50021
2.50013
2.5
2.4999
2.5001
2.50126
2.50452
2.51107
2.5211
2.53207
2.53752
2.52745
2.49169
2.42664
2.34243
2.26127
2.20496
2.1852
2.20495
2.26123
2.34232
2.42644
2.49142
2.52744
2.5387
2.5365
2.53205
2.5
2.5
2.50001
2.50003
2.50004
2.50007
2.50009
2.50011
2.50013
2.50014
2.50014
2.50013
2.50011
2.50007
2.49999
2.49988
2.49986
2.5003
2.50202
2.50631
2.51425
2.52521
2.53481
2.53351
2.50749
2.44397
2.34243
2.22421
2.12261
2.05926
2.03845
2.05924
2.12256
2.22408
2.34221
2.44375
2.50774
2.5355
2.54107
2.53938
2.5
2.5
2.5
2.5
2.50001
2.50002
2.50003
2.50004
2.50005
2.50005
2.50005
2.50005
2.50003
2.49999
2.49992
2.49983
2.49988
2.50053
2.50273
2.50783
2.51672
2.52789
2.53516
2.52609
2.48346
2.39325
2.26127
2.12261
2.0171
1.95856
1.94069
1.95854
2.01705
2.12248
2.26106
2.3931
2.48401
2.52887
2.54302
2.54459
2.5
2.5
2.5
2.5
2.5
2.5
2.50001
2.50001
2.50001
2.50001
2.50001
2.50001
2.49999
2.49996
2.49989
2.49981
2.49992
2.50071
2.50323
2.50885
2.51824
2.52926
2.53439
2.51914
2.464
2.35505
2.20496
2.05926
1.95856
1.90777
1.89326
1.90775
1.9585
2.05913
2.20476
2.35496
2.46477
2.52248
2.54333
2.54754
2.5
2.5
2.5
2.5
2.5
2.5
2.5
2.5
2.5
2.5
2.5
2.5
2.49998
2.49995
2.49988
2.49981
2.49993
2.50078
2.50341
2.5092
2.51875
2.52966
2.53394
2.51633
2.45655
2.34096
2.1852
2.03845
1.94069
1.89326
1.88008
1.89324
1.94064
2.03833
2.185
2.3409
2.45741
2.51987
2.54325
2.54847
2.5
2.5
2.5
2.5
2.5
2.5
2.5
2.5
2.5
2.5
2.5
2.5
2.49998
2.49995
2.49988
2.49981
2.49992
2.50071
2.50323
2.50885
2.51824
2.52926
2.53439
2.51914
2.464
2.35504
2.20495
2.05924
1.95854
1.90775
1.89324
1.90773
1.95849
2.05912
2.20475
2.35495
2.46477
2.52248
2.54333
2.54754
2.5
2.5
2.5
2.5
2.5
2.5
2.5
2.5
2.5
2.5
2.5
2.5
2.49998
2.49995
2.49989
2.49981
2.49987
2.50052
2.50273
2.50784
2.51672
2.52789
2.53515
2.52608
2.48345
2.39322
2.26123
2.12256
2.01705
1.9585
1.94064
1.95849
2.017
2.12243
2.26102
2.39307
2.48399
2.52886
2.54301
2.54459
2.5
2.5
2.5
2.5
2.5
2.5
2.5
2.5
2.5
2.5
2.5
2.5
2.49999
2.49996
2.4999
2.49981
2.49981
2.50027
2.50201
2.5063
2.51425
2.52521
2.5348
2.53348
2.50744
2.44389
2.34232
2.22408
2.12248
2.05913
2.03833
2.05912
2.12243
2.22396
2.3421
2.44367
2.50769
2.53548
2.54106
2.53937
2.5
2.5
2.5
2.5
2.5
2.5
2.5
2.5
2.5
2.5
2.5
2.5
2.49999
2.49997
2.49991
2.49983
2.49977
2.50002
2.50122
2.50449
2.51105
2.52107
2.53203
2.53744
2.52733
2.49152
2.42644
2.34221
2.26106
2.20476
2.185
2.20475
2.26102
2.3421
2.42624
2.49126
2.52732
2.53862
2.53645
2.53202
2.5
2.5
2.5
2.5
2.5
2.5
2.5
2.5
2.5
2.5
2.5
2.5
2.49999
2.49998
2.49993
2.49985
2.49976
2.49982
2.50051
2.50271
2.50758
2.51586
2.52655
2.53591
2.53742
2.5239
2.49142
2.44375
2.3931
2.35496
2.3409
2.35495
2.39307
2.44367
2.49126
2.52363
2.53722
2.53637
2.52919
2.52335
2.5
2.5
2.5
2.5
2.5
2.5
2.5
2.5
2.5
2.5
2.5
2.5
2.5
2.49999
2.49995
2.49989
2.49978
2.49972
2.49999
2.50122
2.50437
2.51038
2.51931
2.52944
2.53703
2.53745
2.52744
2.50774
2.48401
2.46477
2.45741
2.46477
2.48399
2.50769
2.52732
2.53722
2.53674
2.52941
2.52049
2.5147
2.5
2.5
2.5
2.5
2.5
2.5
2.5
2.5
2.5
2.5
2.5
2.5
2.5
2.49999
2.49997
2.49992
2.49982
2.4997
2.4997
2.50019
2.50187
2.50561
2.51198
2.52061
2.52971
2.53655
2.5387
2.5355
2.52887
2.52248
2.51987
2.52248
2.52886
2.53548
2.53862
2.53637
2.52941
2.5203
2.51216
2.50745
2.5
2.5
2.5
2.5
2.5
2.5
2.5
2.5
2.5
2.5
2.5
2.5
2.5
2.5
2.49999
2.49995
2.49987
2.49973
2.49958
2.49961
2.50025
2.50221
2.50622
2.51258
2.52076
2.52932
2.5365
2.54107
2.54302
2.54333
2.54325
2.54333
2.54301
2.54106
2.53645
2.52919
2.52049
2.51216
2.50582
2.50246
2.5
2.5
2.5
2.5
2.5
2.5
2.5
2.5
2.5
2.5
2.5
2.5
2.5
2.5
2.49999
2.49996
2.4999
2.49976
2.49955
2.49936
2.49949
2.50049
2.5031
2.5079
2.51494
2.52345
2.53205
2.53938
2.54459
2.54754
2.54847
2.54754
2.54459
2.53937
2.53202
2.52335
2.5147
2.50745
2.50246
2.49998
