# vtk DataFile Version 3.0
Brusselator Concentration Output
ASCII
DATASET STRUCTURED_POINTS
DIMENSIONS 40 40 1
ORIGIN 0.0 0.0 0.0
SPACING 0.005 0.005 1.0
POINT_DATA 1600
SCALARS C1 double 1
LOOKUP_TABLE default
1
1
0.999999
0.99999
0.999966
0.999917
0.999842
0.999755
0.99968
0.999632
0.999617
0.999632
0.99968
0.999755
0.999842
0.999917
0.999966
0.99999
0.999999
1
1
1
1
1
1
1
1
1
1
1
1
1
1
1
1
1
1
1
1
1
1
0.999999
0.999989
0.999961
0.999898
0.999793
0.99966
0.999542
0.999478
0.999465
0.999467
0.999465
0.999478
0.999542
0.99966
0.999793
0.999898
0.999961
0.999989
0.999999
1
1
1
1
1
1
1
1
1
1
1
1
1
1
1
1
1
1
1
1
0.999999
0.999989
0.999956
0.999875
0.999725
0.999518
0.999337
0.999305
0.999465
0.999697
0.999804
0.999697
0.999465
0.999305
0.999337
0.999518
0.999725
0.999875
0.999956
0.999989
0.999999
1
1
1
1
1
1
1
1
1
1
1
1
1
1
1
1
1
1
1
0.99999
0.999961
0.999875
0.999696
0.999422
0.999177
0.999243
0.999899
1.00108
1.00223
1.0027
1.00223
1.00108
0.999899
0.999243
0.999177
0.999422
0.999696
0.999875
0.99996
0.999991
0.999999
1
1
1
1
1
1
1
1
1
1
1
1
1
1
1
1
1
1
0.999966
0.999898
0.999725
0.999422
0.999118
0.999264
1.0006
1.0036
1.00767
1.01114
1.01247
1.01114
1.00767
1.0036
1.0006
0.999264
0.999118
0.999422
0.999724
0.999898
0.999971
0.999994
1
1
1
1
1
1
1
1
1
1
1
1
1
1
1
1
1
1
0.999917
0.999793
0.999518
0.999177
0.999264
1.00095
1.00576
1.01412
1.0239
1.0313
1.0339
1.0313
1.0239
1.01412
1.00576
1.00095
0.999264
0.999176
0.999518
0.999795
0.999933
0.999984
0.999997
1
1
1
1
1
1
1
1
1
1
1
1
1
1
1
1
1
0.999842
0.99966
0.999337
0.999243
1.0006
1.00576
1.0171
1.034
1.0507
1.06077
1.06364
1.06077
1.0507
1.034
1.0171
1.00576
1.0006
0.999242
0.999338
0.999667
0.999877
0.999965
0.999993
0.999999
1
1
1
1
1
1
1
1
1
1
1
1
1
1
1
1
0.999755
0.999542
0.999305
0.999899
1.0036
1.01412
1.034
1.05888
1.07654
1.08074
1.07995
1.08074
1.07654
1.05888
1.034
1.01412
1.0036
0.999899
0.999307
0.999556
0.999814
0.999941
0.999986
0.999998
1
1
1
1
1
1
1
1
1
1
1
1
1
1
1
1
0.99968
0.999478
0.999465
1.00108
1.00767
1.0239
1.0507
1.07654
1.08239
1.06945
1.0611
1.06945
1.08239
1.07654
1.0507
1.0239
1.00767
1.00108
0.999469
0.999499
0.999761
0.999918
0.999979
0.999996
1
1
1
1
1
1
1
1
1
1
1
1
1
1
1
1
0.999632
0.999465
0.999697
1.00223
1.01114
1.0313
1.06077
1.08074
1.06945
1.03918
1.02429
1.03918
1.06945
1.08074
1.06077
1.0313
1.01114
1.00223
0.999702
0.999492
0.99973
0.999902
0.999973
0.999995
0.999999
1
1
1
1
1
1
1
1
1
1
1
1
1
1
1
0.999617
0.999467
0.999804
1.0027
1.01247
1.0339
1.06364
1.07995
1.0611
1.02429
1.00713
1.02429
1.0611
1.07995
1.06364
1.0339
1.01247
1.0027
0.99981
0.999496
0.999721
0.999896
0.999971
0.999994
0.999999
1
1
1
1
1
1
1
1
1
1
1
1
1
1
1
0.999632
0.999465
0.999697
1.00223
1.01114
1.0313
1.06077
1.08074
1.06945
1.03918
1.02429
1.03918
1.06945
1.08074
1.06077
1.0313
1.01114
1.00223
0.999702
0.999492
0.99973
0.999902
0.999973
0.999995
0.999999
1
1
1
1
1
1
1
1
1
1
1
1
1
1
1
0.99968
0.999478
0.999465
1.00108
1.00767
1.0239
1.0507
1.07654
1.08239
1.06945
1.0611
1.06945
1.08239
1.07654
1.0507
1.0239
1.00767
1.00108
0.999469
0.999499
0.999761
0.999918
0.999979
0.999996
1
1
1
1
1
1
1
1
1
1
1
1
1
1
1
1
0.999755
0.999542
0.999305
0.999899
1.0036
1.01412
1.034
1.05888
1.07654
1.08074
1.07995
1.08074
1.07654
1.05888
1.034
1.01412
1.0036
0.999899
0.999307
0.999556
0.999814
0.999941
0.999986
0.999998
1
1
1
1
1
1
1
1
1
1
1
1
1
1
1
1
0.999842
0.99966
0.999337
0.999243
1.0006
1.00576
1.0171
1.034
1.0507
1.06077
1.06364
1.06077
1.0507
1.034
1.0171
1.00576
1.0006
0.999242
0.999338
0.999667
0.999877
0.999965
0.999993
0.999999
1
1
1
1
1
1
1
1
1
1
1
1
1
1
1
1
0.999917
0.999793
0.999518
0.999177
0.999264
1.00095
1.00576
1.01412
1.0239
1.0313
1.0339
1.0313
1.0239
1.01412
1.00576
1.00095
0.999264
0.999176
0.999518
0.999795
0.999933
0.999984
0.999997
1
1
1
1
1
1
1
1
1
1
1
1
1
1
1
1
1
0.999966
0.999898
0.999725
0.999422
0.999118
0.999264
1.0006
1.0036
1.00767
1.01114
1.01247
1.01114
1.00767
1.0036
1.0006
0.999264
0.999118
0.999422
0.999724
0.999898
0.999971
0.999994
1
1
1
1
1
1
1
1
1
1
1
1
1
1
1
1
1
1
0.99999
0.999961
0.999875
0.999696
0.999422
0.999176
0.999242
0.999899
1.00108
1.00223
1.0027
1.00223
1.00108
0.999899
0.999242
0.999176
0.999422
0.999696
0.999875
0.99996
0.999991
0.999999
1
1
1
1
1
1
1
1
1
1
1
1
1
1
1
1
1
1
0.999999
0.999989
0.999956
0.999875
0.999724
0.999518
0.999338
0.999307
0.999469
0.999702
0.99981
0.999702
0.999469
0.999307
0.999338
0.999518
0.999724
0.999875
0.999955
0.999988
0.999998
1
1
1
1
1
1
1
1.00001
1.00001
1.00001
1.00001
1.00001
1
1
1
1
1
1
1
1
0.999999
0.999989
0.99996
0.999898
0.999795
0.999667
0.999556
0.999499
0.999492
0.999496
0.999492
0.999499
0.999556
0.999667
0.999795
0.999898
0.99996
0.999988
0.999998
1
1
1
1
1
1
1.00001
1.00002
1.00003
1.00004
1.00004
1.00004
1.00003
1.00002
1.00001
1
1
1
1
1
1
1
0.999999
0.999991
0.999971
0.999933
0.999877
0.999814
0.999761
0.99973
0.999721
0.99973
0.999761
0.999814
0.999877
0.999933
0.999971
0.999991
0.999998
1
1
1
1
1
1.00001
1.00002
1.00004
1.00007
1.00009
1.00011
1.00011
1.00011
1.00009
1.00007
1.00004
1.00002
1.00001
1
1
0.999999
1
1
1
0.999999
0.999994
0.999984
0.999965
0.999941
0.999918
0.999902
0.999896
0.999902
0.999918
0.999941
0.999965
0.999984
0.999994
0.999999
1
1
1
1
1
1.00001
1.00003
1.00007
1.00013
1.00018
1.00022
1.00024
1.00024
1.00024
1.00022
1.00018
1.00013
1.00007
1.00003
1.00001
1
1
1
1
1
1
1
0.999997
0.999993
0.999986
0.999979
0.999973
0.999971
0.999973
0.999979
0.999986
0.999993
0.999997
1
1
1
1
1
1
1.00001
1.00004
1.0001
1.00019
1.00029
1.00034
1.00033
1.00028
1.00026
1.00028
1.00033
1.00034
1.00029
1.00019
1.0001
1.00004
1.00001
1
1
1
1
1
1
1
0.999999
0.999998
0.999996
0.999995
0.999994
0.999995
0.999996
0.999998
0.999999
1
1
1
1
1
1
1.00001
1.00004
1.00011
1.00023
1.00037
1.00044
1.00031
0.999975
0.999608
0.999452
0.999608
0.999975
1.00031
1.00044
1.00037
1.00023
1.00011
1.00004
1.00002
1
1
1
1
1
1
1
1
1
0.999999
0.999999
0.999999
1
1
1
1
1
1
1
1
1.00001
1.00003
1.0001
1.00023
1.0004
1.00048
1.00018
0.999266
0.997885
0.996635
0.996143
0.996635
0.997885
0.999266
1.00018
1.00048
1.0004
1.00023
1.0001
1.00004
1
1
1
1
1
1
1
1
1
1
1
1
1
1
1
1
1
1
1
1
1.00002
1.00007
1.00019
1.00037
1.00048
1.0001
0.998618
0.995732
0.992117
0.989211
0.98814
0.989211
0.992117
0.995732
0.998617
1.0001
1.00048
1.00037
1.00019
1.0001
1
1
1
1
1
1
1
1
1
1
1
1
1
1
1
1
1
1
1
1.00001
1.00004
1.00013
1.00029
1.00044
1.00018
0.998618
0.994723
0.988463
0.981645
0.976802
0.97517
0.976802
0.981645
0.988463
0.994723
0.998617
1.00018
1.00044
1.0003
1.00017
1
1
1
1
1
1
1
1
1
1
1
1
1
1
1
1
1
1
1
1.00002
1.00007
1.00018
1.00034
1.00031
0.999266
0.995732
0.988463
0.978316
0.968782
0.963149
0.961576
0.963149
0.968782
0.978316
0.988463
0.995732
0.999266
1.00031
1.00036
1.00025
1
1
1
1
1
1
1
1
1
1
1
1
1
1
1
1
1
1
1.00001
1.00003
1.00009
1.00022
1.00033
0.999975
0.997885
0.992117
0.981645
0.968782
0.958772
0.954777
0.954351
0.954777
0.958772
0.968782
0.981645
0.992117
0.997886
0.999982
1.00036
1.00031
1
1
1
1
1
1
1
1
1
1
1
1
1
1
1
1
1
1
1.00001
1.00004
1.00011
1.00024
1.00028
0.999608
0.996635
0.989211
0.976802
0.963149
0.954777
0.954083
0.955448
0.954083
0.954777
0.963149
0.976802
0.989211
0.996637
0.999617
1.00032
1.00034
1
1
1
1
1
1
1
1
1
1
1
1
1
1
1
1
1
1
1.00001
1.00004
1.00011
1.00024
1.00026
0.999452
0.996143
0.98814
0.97517
0.961576
0.954351
0.955448
0.957737
0.955448
0.954351
0.961576
0.97517
0.98814
0.996144
0.999462
1.00029
1.00035
1
1
1
1
1
1
1
1
1
1
1
1
1
1
1
1
1
1
1.00001
1.00004
1.00011
1.00024
1.00028
0.999608
0.996635
0.989211
0.976802
0.963149
0.954777
0.954083
0.955448
0.954083
0.954777
0.963149
0.976802
0.989211
0.996637
0.999617
1.00032
1.00034
1
1
1
1
1
1
1
1
1
1
1
1
1
1
1
1
1
1
1.00001
1.00003
1.00009
1.00022
1.00033
0.999975
0.997885
0.992117
0.981645
0.968782
0.958772
0.954777
0.954351
0.954777
0.958772
0.968782
0.981645
0.992117
0.997886
0.999982
1.00036
1.00031
1
1
1
1
1
1
1
1
1
1
1
1
1
1
1
1
1
1
1
1.00002
1.00007
1.00018
1.00034
1.00031
0.999266
0.995732
0.988463
0.978316
0.968782
0.963149
0.961576
0.963149
0.968782
0.978316
0.988463
0.995732
0.999266
1.00031
1.00036
1.00025
1
1
1
1
1
1
1
1
1
1
1
1
1
1
1
1
1
1
1
1.00001
1.00004
1.00013
1.00029
1.00044
1.00018
0.998617
0.994723
0.988463
0.981645
0.976802
0.97517
0.976802
0.981645
0.988463
0.994723
0.998617
1.00018
1.00044
1.0003
1.00017
1
1
1
1
1
1
1
1
1
1
1
1
1
1
1
1
1
1
1
1
1.00002
1.00007
1.00019
1.00037
1.00048
1.0001
0.998617
0.995732
0.992117
0.989211
0.98814
0.989211
0.992117
0.995732
0.998617
1.0001
1.00048
1.00037
1.00019
1.0001
1
1
1
1
1
1
1
1
1
1
1
1
1
1
1
1
1
1
1
1
1.00001
1.00003
1.0001
1.00023
1.0004
1.00048
1.00018
0.999266
0.997886
0.996637
0.996144
0.996637
0.997886
0.999266
1.00018
1.00048
1.0004
1.00023
1.0001
1.00004
1
1
1
1
1
1
1
1
1
1
1
1
1
1
1
1
1
1
1
1
1
1.00001
1.00004
1.00011
1.00023
1.00037
1.00044
1.00031
0.999982
0.999617
0.999462
0.999617
0.999982
1.00031
1.00044
1.00037
1.00023
1.00011
1.00004
1.00001
1
1
1
1
1
1
1
1
1
1
1
1
1
1
1
1
1
1
1
1
1
1
1.00001
1.00004
1.0001
1.00019
1.0003
1.00036
1.00036
1.00032
1.00029
1.00032
1.00036
1.00036
1.0003
1.00019
1.0001
1.00004
1.00001
1
1
1
1
1
1
1
1
1
1
1
1
1
1
1
1
1
1
1
1
1
0.999999
1
1
1.00002
1.00004
1.0001
1.00017
1.00025
1.00031
1.00034
1.00035
1.00034
1.00031
1.00025
1.00017
1.0001
1.00004
1.00001
1
0.999999
SCALARS C2 double 1
LOOKUP_TABLE default
2.5
2.5
2.5
2.5
2.50002
2.50006
2.50014
2.50026
2.50039
2.50048
2.50051
2.50048
2.50039
2.50026
2.50014
2.50006
2.50002
2.5
2.5
2.5
2.5
2.5
2.5
2.5
2.5
2.5
2.5
2.5
2.5
2.5
2.5
2.5
2.5
2.5
2.5
2.5
2.5
2.5
2.5
2.5
2.5
2.5
2.5
2.50002
2.50008
2.50021
2.50042
2.50068
2.50091
2.50106
2.50111
2.50106
2.50091
2.50068
2.50042
2.50021
2.50008
2.50002
2.5
2.5
2.5
2.5
2.5
2.5
2.5
2.5
2.5
2.5
2.5
2.5
2.5
2.5
2.5
2.5
2.5
2.5
2.5
2.5
2.5
2.5
2.5
2.5
2.50003
2.50011
2.5003
2.50066
2.50115
2.50163
2.50195
2.50205
2.50206
2.50205
2.50195
2.50163
2.50115
2.50066
2.5003
2.50011
2.50003
2.5
2.5
2.5
2.5
2.5
2.5
2.5
2.5
2.5
2.5
2.5
2.5
2.5
2.5
2.5
2.5
2.5
2.5
2.5
2.5
2.5
2.5
2.50002
2.50011
2.50034
2.50082
2.50157
2.50238
2.50281
2.50257
2.50194
2.50161
2.50194
2.50257
2.50281
2.50238
2.50157
2.50082
2.50034
2.50011
2.50002
2.5
2.5
2.5
2.5
2.5
2.5
2.5
2.5
2.5
2.5
2.5
2.5
2.5
2.5
2.5
2.5
2.5
2.5
2.5
2.5
2.50002
2.50008
2.5003
2.50082
2.50174
2.50284
2.50333
2.50209
2.49889
2.4953
2.49375
2.4953
2.49889
2.50209
2.50333
2.50284
2.50174
2.50082
2.5003
2.50009
2.50002
2.5
2.5
2.5
2.5
2.5
2.5
2.5
2.5
2.5
2.5
2.5
2.5
2.5
2.5
2.5
2.5
2.5
2.5
2.5
2.50006
2.50021
2.50066
2.50157
2.50284
2.50348
2.50126
2.49387
2.48196
2.47068
2.46616
2.47068
2.48196
2.49387
2.50126
2.50348
2.50284
2.50157
2.50066
2.50022
2.50005
2.50001
2.5
2.5
2.5
2.5
2.5
2.5
2.5
2.5
2.5
2.5
2.5
2.5
2.5
2.5
2.5
2.5
2.5
2.5
2.50014
2.50042
2.50115
2.50238
2.50333
2.50126
2.49128
2.46968
2.44041
2.41594
2.40692
2.41594
2.44041
2.46968
2.49128
2.50126
2.50333
2.50238
2.50115
2.50042
2.50012
2.50002
2.5
2.5
2.5
2.5
2.5
2.5
2.5
2.5
2.5
2.5
2.5
2.5
2.5
2.5
2.5
2.5
2.5
2.5
2.50026
2.50068
2.50163
2.50281
2.50209
2.49387
2.46968
2.42587
2.3749
2.33911
2.32775
2.33911
2.3749
2.42587
2.46968
2.49387
2.50209
2.50281
2.50164
2.50067
2.50021
2.50005
2.50001
2.5
2.5
2.5
2.5
2.5
2.5
2.5
2.5
2.5
2.5
2.5
2.5
2.5
2.5
2.5
2.5
2.5
2.50039
2.50091
2.50195
2.50257
2.49889
2.48196
2.44041
2.3749
2.31187
2.27877
2.27145
2.27877
2.31187
2.3749
2.44041
2.48196
2.49889
2.50257
2.50195
2.5009
2.50031
2.50008
2.50001
2.5
2.5
2.5
2.5
2.5
2.5
2.5
2.5
2.5
2.5
2.5
2.5
2.5
2.5
2.5
2.5
2.5
2.50048
2.50106
2.50205
2.50194
2.4953
2.47068
2.41594
2.33911
2.27877
2.25901
2.25889
2.25901
2.27877
2.33911
2.41594
2.47068
2.4953
2.50194
2.50205
2.50104
2.50038
2.5001
2.50002
2.5
2.5
2.5
2.5
2.5
2.5
2.5
2.5
2.5
2.5
2.5
2.5
2.5
2.5
2.5
2.5
2.5
2.50051
2.50111
2.50206
2.50161
2.49375
2.46616
2.40692
2.32775
2.27145
2.25889
2.26216
2.25889
2.27145
2.32775
2.40692
2.46616
2.49375
2.50162
2.50206
2.50108
2.5004
2.50011
2.50002
2.5
2.5
2.5
2.5
2.5
2.5
2.5
2.5
2.5
2.5
2.5
2.5
2.5
2.5
2.5
2.5
2.5
2.50048
2.50106
2.50205
2.50194
2.4953
2.47068
2.41594
2.33911
2.27877
2.25901
2.25889
2.25901
2.27877
2.33911
2.41594
2.47068
2.4953
2.50194
2.50205
2.50104
2.50038
2.5001
2.50002
2.5
2.5
2.5
2.5
2.5
2.5
2.5
2.5
2.5
2.5
2.5
2.5
2.5
2.5
2.5
2.5
2.5
2.50039
2.50091
2.50195
2.50257
2.49889
2.48196
2.44041
2.3749
2.31187
2.27877
2.27145
2.27877
2.31187
2.3749
2.44041
2.48196
2.49889
2.50257
2.50195
2.5009
2.50031
2.50008
2.50001
2.5
2.5
2.5
2.5
2.5
2.5
2.5
2.5
2.5
2.5
2.5
2.5
2.5
2.5
2.5
2.5
2.5
2.50026
2.50068
2.50163
2.50281
2.50209
2.49387
2.46968
2.42587
2.3749
2.33911
2.32775
2.33911
2.3749
2.42587
2.46968
2.49387
2.50209
2.50281
2.50164
2.50067
2.50021
2.50005
2.50001
2.5
2.5
2.5
2.5
2.5
2.5
2.5
2.5
2.5
2.5
2.5
2.5
2.5
2.5
2.5
2.5
2.5
2.50014
2.50042
2.50115
2.50238
2.50333
2.50126
2.49128
2.46968
2.44041
2.41594
2.40692
2.41594
2.44041
2.46968
2.49128
2.50126
2.50333
2.50238
2.50115
2.50042
2.50012
2.50002
2.5
2.5
2.5
2.5
2.5
2.5
2.5
2.5
2.5
2.5
2.5
2.5
2.5
2.5
2.5
2.5
2.5
2.5
2.50006
2.50021
2.50066
2.50157
2.50284
2.50348
2.50126
2.49387
2.48196
2.47068
2.46616
2.47068
2.48196
2.49387
2.50126
2.50348
2.50284
2.50157
2.50066
2.50022
2.50005
2.50001
2.5
2.5
2.5
2.5
2.5
2.5
2.5
2.5
2.5
2.5
2.5
2.5
2.5
2.5
2.5
2.5
2.5
2.5
2.50002
2.50008
2.5003
2.50082
2.50174
2.50284
2.50333
2.50209
2.49889
2.4953
2.49375
2.4953
2.49889
2.50209
2.50333
2.50284
2.50174
2.50082
2.5003
2.50009
2.50002
2.5
2.5
2.5
2.5
2.5
2.5
2.5
2.5
2.5
2.5
2.5
2.5
2.5
2.5
2.5
2.5
2.5
2.5
2.5
2.5
2.50002
2.50011
2.50034
2.50082
2.50157
2.50238
2.50281
2.50257
2.50194
2.50162
2.50194
2.50257
2.50281
2.50238
2.50157
2.50082
2.50034
2.50011
2.50002
2.5
2.5
2.5
2.5
2.5
2.5
2.5
2.5
2.5
2.5
2.5
2.5
2.5
2.5
2.5
2.5
2.5
2.5
2.5
2.5
2.5
2.5
2.50003
2.50011
2.5003
2.50066
2.50115
2.50164
2.50195
2.50205
2.50206
2.50205
2.50195
2.50164
2.50115
2.50066
2.5003
2.50011
2.50003
2.5
2.5
2.5
2.5
2.5
2.5
2.5
2.5
2.5
2.5
2.49999
2.49999
2.49999
2.5
2.5
2.5
2.5
2.5
2.5
2.5
2.5
2.5
2.5
2.5
2.50002
2.50009
2.50022
2.50042
2.50067
2.5009
2.50104
2.50108
2.50104
2.5009
2.50067
2.50042
2.50022
2.50009
2.50002
2.5
2.5
2.5
2.5
2.5
2.5
2.5
2.5
2.49999
2.49998
2.49997
2.49997
2.49996
2.49997
2.49997
2.49998
2.49999
2.5
2.5
2.5
2.5
2.5
2.5
2.5
2.5
2.5
2.50002
2.50005
2.50012
2.50021
2.50031
2.50038
2.5004
2.50038
2.50031
2.50021
2.50012
2.50005
2.50002
2.5
2.5
2.5
2.5
2.5
2.5
2.5
2.5
2.49998
2.49996
2.49993
2.49989
2.49987
2.49985
2.49987
2.49989
2.49993
2.49996
2.49998
2.5
2.5
2.5
2.5
2.5
2.5
2.5
2.5
2.5
2.50001
2.50002
2.50005
2.50008
2.5001
2.50011
2.5001
2.50008
2.50005
2.50002
2.50001
2.5
2.5
2.5
2.5
2.5
2.5
2.5
2.49999
2.49997
2.49993
2.49985
2.49975
2.49966
2.49959
2.49957
2.49959
2.49966
2.49975
2.49985
2.49993
2.49997
2.49999
2.5
2.5
2.5
2.5
2.5
2.5
2.5
2.5
2.5
2.50001
2.50001
2.50002
2.50002
2.50002
2.50001
2.50001
2.5
2.5
2.5
2.5
2.5
2.5
2.5
2.5
2.49999
2.49997
2.4999
2.49977
2.49957
2.49934
2.49916
2.49907
2.49905
2.49907
2.49916
2.49934
2.49957
2.49977
2.4999
2.49997
2.49999
2.5
2.5
2.5
2.5
2.5
2.5
2.5
2.5
2.5
2.5
2.5
2.5
2.5
2.5
2.5
2.5
2.5
2.5
2.5
2.5
2.5
2.5
2.49999
2.49997
2.49989
2.49971
2.4994
2.499
2.49868
2.49858
2.49867
2.49874
2.49867
2.49858
2.49868
2.499
2.4994
2.49971
2.49989
2.49997
2.49999
2.5
2.5
2.5
2.5
2.5
2.5
2.5
2.5
2.5
2.5
2.5
2.5
2.5
2.5
2.5
2.5
2.5
2.5
2.5
2.5
2.5
2.49997
2.4999
2.49971
2.49933
2.49878
2.49832
2.49836
2.49913
2.50018
2.50066
2.50018
2.49913
2.49836
2.49832
2.49878
2.49933
2.49971
2.4999
2.49997
2.5
2.5
2.5
2.5
2.5
2.5
2.5
2.5
2.5
2.5
2.5
2.5
2.5
2.5
2.5
2.5
2.5
2.5
2.5
2.5
2.49998
2.49993
2.49977
2.4994
2.49878
2.49818
2.49838
2.50031
2.504
2.50778
2.50937
2.50778
2.504
2.50031
2.49838
2.49818
2.49878
2.4994
2.49976
2.49991
2.5
2.5
2.5
2.5
2.5
2.5
2.5
2.5
2.5
2.5
2.5
2.5
2.5
2.5
2.5
2.5
2.5
2.5
2.5
2.49999
2.49996
2.49985
2.49957
2.499
2.49832
2.49838
2.50097
2.5077
2.51771
2.52683
2.53043
2.52683
2.51771
2.5077
2.50097
2.49838
2.49832
2.499
2.49956
2.49981
2.5
2.5
2.5
2.5
2.5
2.5
2.5
2.5
2.5
2.5
2.5
2.5
2.5
2.5
2.5
2.5
2.5
2.5
2.5
2.49998
2.49993
2.49975
2.49934
2.49868
2.49836
2.50031
2.5077
2.52257
2.54214
2.55861
2.56479
2.55861
2.54214
2.52257
2.5077
2.50031
2.49836
2.49868
2.49933
2.49968
2.5
2.5
2.5
2.5
2.5
2.5
2.5
2.5
2.5
2.5
2.5
2.5
2.5
2.5
2.5
2.5
2.5
2.5
2.5
2.49997
2.49989
2.49966
2.49916
2.49858
2.49913
2.504
2.51771
2.54214
2.57179
2.59516
2.60348
2.59516
2.57179
2.54214
2.51771
2.504
2.49913
2.49858
2.49914
2.49955
2.5
2.5
2.5
2.5
2.5
2.5
2.5
2.5
2.5
2.5
2.5
2.5
2.5
2.5
2.5
2.5
2.5
2.5
2.49999
2.49997
2.49987
2.49959
2.49907
2.49867
2.50018
2.50778
2.52683
2.55861
2.59516
2.62237
2.63149
2.62237
2.59516
2.55861
2.52683
2.50778
2.50018
2.49867
2.49904
2.49946
2.5
2.5
2.5
2.5
2.5
2.5
2.5
2.5
2.5
2.5
2.5
2.5
2.5
2.5
2.5
2.5
2.5
2.5
2.49999
2.49996
2.49985
2.49957
2.49905
2.49874
2.50066
2.50937
2.53043
2.56479
2.60348
2.63149
2.64058
2.63149
2.60348
2.56479
2.53043
2.50937
2.50066
2.49873
2.49901
2.49942
2.5
2.5
2.5
2.5
2.5
2.5
2.5
2.5
2.5
2.5
2.5
2.5
2.5
2.5
2.5
2.5
2.5
2.5
2.49999
2.49997
2.49987
2.49959
2.49907
2.49867
2.50018
2.50778
2.52683
2.55861
2.59516
2.62237
2.63149
2.62237
2.59516
2.55861
2.52683
2.50778
2.50018
2.49867
2.49904
2.49946
2.5
2.5
2.5
2.5
2.5
2.5
2.5
2.5
2.5
2.5
2.5
2.5
2.5
2.5
2.5
2.5
2.5
2.5
2.5
2.49997
2.49989
2.49966
2.49916
2.49858
2.49913
2.504
2.51771
2.54214
2.57179
2.59516
2.60348
2.59516
2.57179
2.54214
2.51771
2.504
2.49913
2.49858
2.49914
2.49955
2.5
2.5
2.5
2.5
2.5
2.5
2.5
2.5
2.5
2.5
2.5
2.5
2.5
2.5
2.5
2.5
2.5
2.5
2.5
2.49998
2.49993
2.49975
2.49934
2.49868
2.49836
2.50031
2.5077
2.52257
2.54214
2.55861
2.56479
2.55861
2.54214
2.52257
2.5077
2.50031
2.49836
2.49868
2.49933
2.49968
2.5
2.5
2.5
2.5
2.5
2.5
2.5
2.5
2.5
2.5
2.5
2.5
2.5
2.5
2.5
2.5
2.5
2.5
2.5
2.49999
2.49996
2.49985
2.49957
2.499
2.49832
2.49838
2.50097
2.5077
2.51771
2.52683
2.53043
2.52683
2.51771
2.5077
2.50097
2.49838
2.49832
2.499
2.49956
2.49981
2.5
2.5
2.5
2.5
2.5
2.5
2.5
2.5
2.5
2.5
2.5
2.5
2.5
2.5
2.5
2.5
2.5
2.5
2.5
2.5
2.49998
2.49993
2.49977
2.4994
2.49878
2.49818
2.49838
2.50031
2.504
2.50778
2.50937
2.50778
2.504
2.50031
2.49838
2.49819
2.49878
2.4994
2.49976
2.49991
2.5
2.5
2.5
2.5
2.5
2.5
2.5
2.5
2.5
2.5
2.5
2.5
2.5
2.5
2.5
2.5
2.5
2.5
2.5
2.5
2.5
2.49997
2.4999
2.49971
2.49933
2.49878
2.49832
2.49836
2.49913
2.50018
2.50066
2.50018
2.49913
2.49836
2.49832
2.49878
2.49933
2.49971
2.4999
2.49997
2.5
2.5
2.5
2.5
2.5
2.5
2.5
2.5
2.5
2.5
2.5
2.5
2.5
2.5
2.5
2.5
2.5
2.5
2.5
2.5
2.5
2.49999
2.49997
2.49989
2.49971
2.4994
2.499
2.49868
2.49858
2.49867
2.49873
2.49867
2.49858
2.49868
2.499
2.4994
2.49971
2.49989
2.49997
2.49999
2.5
2.5
2.5
2.5
2.5
2.5
2.5
2.5
2.5
2.5
2.5
2.5
2.5
2.5
2.5
2.5
2.5
2.5
2.5
2.5
2.5
2.5
2.49999
2.49997
2.4999
2.49976
2.49956
2.49933
2.49914
2.49904
2.49901
2.49904
2.49914
2.49933
2.49956
2.49976
2.4999
2.49997
2.49999
2.5
2.5
2.5
2.5
2.5
2.5
2.5
2.5
2.5
2.5
2.5
2.5
2.5
2.5
2.5
2.5
2.5
2.5
2.5
2.5
2.5
2.5
2.5
2.5
2.49999
2.49997
2.49991
2.49981
2.49968
2.49955
2.49946
2.49942
2.49946
2.49955
2.49968
2.49981
2.49991
2.49997
2.49999
2.5
2.5
