# vtk DataFile Version 3.0
Brusselator Concentration Output
ASCII
DATASET STRUCTURED_POINTS
DIMENSIONS 40 40 1
ORIGIN 0.0 0.0 0.0
SPACING 0.005 0.005 1.0
POINT_DATA 1600
SCALARS C1 double 1
LOOKUP_TABLE default
1.1055
1.10223
1.08487
1.04379
0.98153
0.910614
0.844118
0.790161
0.751832
0.72932
0.721943
0.729358
0.751941
0.790399
0.844514
0.910968
0.980982
1.04021
1.07429
1.07876
1.06265
1.04017
1.02109
1.00865
1.00214
0.99955
0.998993
0.999207
0.999552
0.999801
0.999932
0.999986
1
1
1
1
1
1
1
1
1.10223
1.08461
1.04538
0.985885
0.915834
0.847226
0.788553
0.743563
0.71269
0.694917
0.689149
0.694952
0.712786
0.743761
0.788832
0.847276
0.914572
0.980814
1.03221
1.05784
1.05783
1.04299
1.02551
1.01213
1.00422
1.00055
0.999368
0.999294
0.999541
0.999774
0.999913
0.999976
0.999998
1
1
1
1
1
1
1
1.08487
1.04538
0.976727
0.896304
0.820192
0.757397
0.710295
0.677579
0.656706
0.645268
0.64165
0.645297
0.656782
0.677716
0.710405
0.75702
0.817938
0.889197
0.960253
1.01556
1.0432
1.04462
1.03228
1.01822
1.00808
1.00249
1.00013
0.999496
0.999538
0.99973
0.999879
0.999959
0.999991
1
1
1
1
1
1
1
1.04379
0.985885
0.896304
0.8057
0.731868
0.679016
0.644323
0.623094
0.611065
0.605104
0.603332
0.605128
0.611123
0.623174
0.644284
0.678272
0.728786
0.796991
0.87779
0.956894
1.01467
1.03961
1.03799
1.02538
1.01315
1.00522
1.00129
0.999847
0.999573
0.999684
0.999837
0.999935
0.999981
0.999997
1
1
1
1
1
1
0.98153
0.915834
0.820192
0.731868
0.667374
0.626613
0.60353
0.591879
0.586834
0.585094
0.584732
0.585114
0.586877
0.591918
0.603382
0.625615
0.663777
0.722367
0.801647
0.892398
0.974065
1.02476
1.03932
1.03172
1.01862
1.00846
1.00278
1.00036
0.999671
0.999655
0.999795
0.999909
0.999969
0.999993
1
1
1
1
1
1
0.910614
0.847226
0.757397
0.679016
0.626613
0.597531
0.584346
0.580416
0.580892
0.58248
0.583232
0.582497
0.580925
0.580424
0.584117
0.596363
0.622748
0.669418
0.740465
0.832354
0.928147
1.00125
1.0347
1.03572
1.02366
1.01186
1.00449
1.00102
0.999838
0.999651
0.99976
0.999884
0.999957
0.999988
0.999998
1
1
1
1
0.999999
0.844118
0.788553
0.710295
0.644323
0.60353
0.584346
0.579146
0.581413
0.586384
0.590736
0.592425
0.590752
0.586411
0.581397
0.578856
0.583057
0.599545
0.635035
0.695814
0.782867
0.884316
0.973552
1.02501
1.03679
1.02763
1.01504
1.00625
1.00176
1.00006
0.999677
0.999737
0.999863
0.999946
0.999985
0.999998
1
1
1
0.999999
0.999999
0.790161
0.743563
0.677579
0.623094
0.591879
0.580416
0.581413
0.5886
0.597264
0.603952
0.606446
0.603967
0.597285
0.588566
0.581073
0.579036
0.587844
0.614264
0.665625
0.7459
0.847759
0.946887
1.01293
1.03546
1.03028
1.01769
1.00785
1.00249
1.00031
0.999727
0.99973
0.999852
0.999942
0.999986
1
1
1
1
0.999999
0.999998
0.751832
0.71269
0.656706
0.611065
0.586834
0.580892
0.586384
0.597264
0.608799
0.617355
0.620503
0.61737
0.608817
0.597216
0.586006
0.579443
0.582779
0.602665
0.646831
0.720976
0.821053
0.925405
1.00164
1.03299
1.03175
1.01964
1.00912
1.00311
1.00055
0.999794
0.999745
0.999859
0.999953
0.999999
1.00001
1.00001
1.00001
1.00001
1
1
0.72932
0.694917
0.645268
0.605104
0.585094
0.58248
0.590736
0.603952
0.617355
0.627151
0.630738
0.627166
0.617372
0.603896
0.590333
0.580988
0.581032
0.596997
0.63673
0.706785
0.805015
0.911683
0.993764
1.03081
1.03241
1.02082
1.00996
1.00355
1.00074
0.999874
0.999788
0.999894
0.999989
1.00003
1.00005
1.00004
1.00003
1.00002
1.00001
1.00001
0.721943
0.689149
0.64165
0.603332
0.584732
0.583232
0.592425
0.606446
0.620503
0.630738
0.634479
0.630752
0.620519
0.606387
0.592014
0.581726
0.580668
0.595327
0.633571
0.702207
0.799703
0.907006
0.990984
1.02999
1.03263
1.02126
1.0103
1.00376
1.00085
0.99995
0.99985
0.999955
1.00005
1.0001
1.00011
1.0001
1.00008
1.00006
1.00005
1.00004
0.729358
0.694952
0.645297
0.605128
0.585114
0.582497
0.590752
0.603967
0.61737
0.627166
0.630752
0.62718
0.617386
0.603911
0.590349
0.581005
0.581051
0.597021
0.636761
0.706827
0.805073
0.911758
0.993858
1.03092
1.03253
1.02095
1.01009
1.00367
1.00084
0.99996
0.999869
0.99998
1.00009
1.00015
1.00017
1.00017
1.00016
1.00014
1.00013
1.00012
0.751941
0.712786
0.656782
0.611123
0.586877
0.580925
0.586411
0.597285
0.608817
0.617372
0.620519
0.617386
0.608835
0.597238
0.586032
0.579476
0.582822
0.602723
0.646912
0.72109
0.821204
0.925589
1.00184
1.03321
1.03195
1.0198
1.00922
1.00314
1.0005
0.999698
0.99963
0.999762
0.999905
1.00002
1.00011
1.00018
1.00022
1.00025
1.00025
1.00026
0.790399
0.743761
0.677716
0.623174
0.591918
0.580424
0.581397
0.588566
0.597216
0.603896
0.606387
0.603911
0.597238
0.588532
0.581057
0.579044
0.587884
0.61435
0.665774
0.746126
0.848058
0.947219
1.01324
1.03567
1.03033
1.01754
1.00744
1.00183
0.999432
0.998701
0.998651
0.998824
0.999063
0.999328
0.999603
0.999866
1.00009
1.00027
1.00038
1.00044
0.844514
0.788832
0.710405
0.644284
0.603382
0.584117
0.578856
0.581073
0.586006
0.590333
0.592014
0.590349
0.586032
0.581057
0.578566
0.582832
0.599406
0.635013
0.695947
0.783172
0.884746
0.973968
1.02522
1.03661
1.02691
1.0137
1.00424
0.999144
0.996939
0.996227
0.996173
0.996412
0.996825
0.997374
0.998021
0.998708
0.999362
0.999912
1.00031
1.00051
0.910968
0.847276
0.75702
0.678272
0.625615
0.596363
0.583057
0.579036
0.579443
0.580988
0.581726
0.581005
0.579476
0.579044
0.582832
0.595208
0.621777
0.668711
0.740111
0.832373
0.928391
1.00136
1.03421
1.03421
1.02088
1.00772
0.999025
0.994402
0.992333
0.991595
0.991517
0.991828
0.992458
0.99339
0.994583
0.995949
0.997345
0.998601
0.99955
1.00006
0.980982
0.914572
0.817938
0.728786
0.663777
0.622748
0.599545
0.587844
0.582779
0.581032
0.580668
0.581051
0.582822
0.587884
0.599406
0.621777
0.660229
0.719334
0.799361
0.890921
0.973075
1.0235
1.03682
1.02724
1.0118
0.999333
0.991617
0.987596
0.98579
0.985134
0.985067
0.985392
0.986105
0.987268
0.988918
0.990994
0.993307
0.995542
0.997325
0.998317
1.04021
0.980814
0.889197
0.796991
0.722367
0.669418
0.635035
0.614264
0.602665
0.596997
0.595327
0.597021
0.602723
0.61435
0.635013
0.668711
0.719334
0.78827
0.870451
0.951212
1.01013
1.03483
1.03133
1.01573
1.00022
0.989409
0.983352
0.980614
0.97972
0.979618
0.979733
0.979879
0.980156
0.980824
0.982158
0.984292
0.987092
0.99012
0.992721
0.994231
1.07429
1.03221
0.960253
0.87779
0.801647
0.740465
0.695814
0.665625
0.646831
0.63673
0.633571
0.636761
0.646912
0.665774
0.695947
0.740111
0.799361
0.870451
0.943118
1.00119
1.0312
1.03301
1.01878
1.00157
0.988402
0.980932
0.978208
0.97849
0.980074
0.981624
0.982312
0.981871
0.980568
0.979061
0.978143
0.978427
0.980073
0.982657
0.985283
0.986935
1.07876
1.05784
1.01556
0.956894
0.892398
0.832354
0.782867
0.7459
0.720976
0.706785
0.702207
0.706827
0.72109
0.746126
0.783172
0.832373
0.890921
0.951212
1.00119
1.02948
1.03331
1.02059
1.00295
0.988578
0.98079
0.979634
0.98353
0.99021
0.997258
1.00252
1.00452
1.00275
0.997769
0.99098
0.984159
0.978859
0.975913
0.975201
0.975809
0.976532
1.06265
1.05783
1.0432
1.01467
0.974065
0.928147
0.884316
0.847759
0.821053
0.805015
0.799703
0.805073
0.821204
0.848058
0.884746
0.928391
0.973075
1.01013
1.0312
1.03331
1.02118
1.00382
0.989263
0.982136
0.983968
0.994118
1.01039
1.02943
1.04718
1.05976
1.06436
1.05998
1.0477
1.03027
1.01129
0.994062
0.980707
0.971838
0.966881
0.964785
1.04017
1.04299
1.04462
1.03961
1.02476
1.00125
0.973552
0.946887
0.925405
0.911683
0.907006
0.911758
0.925589
0.947219
0.973968
1.00136
1.0235
1.03483
1.03301
1.02059
1.00382
0.989617
0.98342
0.988555
1.00631
1.0359
1.0741
1.11512
1.15158
1.17655
1.18546
1.1768
1.15212
1.11594
1.07484
1.03549
1.00263
0.978329
0.962715
0.955166
1.02109
1.02551
1.03228
1.03799
1.03932
1.0347
1.02501
1.01293
1.00164
0.993764
0.990984
0.993858
1.00184
1.01324
1.02522
1.03421
1.03682
1.03133
1.01878
1.00295
0.989263
0.98342
0.990503
1.01449
1.05764
1.11895
1.19194
1.2645
1.32343
1.36041
1.37288
1.36067
1.32393
1.26507
1.19196
1.11699
1.05145
1.00141
0.968407
0.952133
1.00865
1.01213
1.01822
1.02538
1.03172
1.03572
1.03679
1.03546
1.03299
1.03081
1.02999
1.03092
1.03321
1.03567
1.03661
1.03421
1.02724
1.01573
1.00157
0.988578
0.982136
0.988555
1.01449
1.06623
1.14733
1.25269
1.36282
1.4517
1.50625
1.53159
1.53848
1.53172
1.5064
1.4515
1.36129
1.24783
1.13661
1.04787
0.98897
0.960061
1.00214
1.00422
1.00808
1.01315
1.01862
1.02366
1.02763
1.03028
1.03175
1.03241
1.03263
1.03253
1.03195
1.03033
1.02691
1.02088
1.0118
1.00022
0.988402
0.98079
0.983968
1.00631
1.05764
1.14733
1.27557
1.41635
1.52124
1.56544
1.56669
1.55462
1.54854
1.55453
1.56627
1.56406
1.51759
1.40792
1.25925
1.12246
1.0283
0.982237
0.99955
1.00055
1.00249
1.00522
1.00846
1.01186
1.01504
1.01769
1.01964
1.02082
1.02126
1.02095
1.0198
1.01754
1.0137
1.00772
0.999333
0.989409
0.980932
0.979634
0.994118
1.0359
1.11895
1.25269
1.41635
1.54016
1.57262
1.53885
1.48712
1.44763
1.4333
1.4474
1.48632
1.53665
1.56756
1.5296
1.39626
1.22263
1.08751
1.01989
0.998993
0.999368
1.00013
1.00129
1.00278
1.00449
1.00625
1.00785
1.00912
1.00996
1.0103
1.01009
1.00922
1.00744
1.00424
0.999025
0.991617
0.983352
0.978208
0.98353
1.01039
1.0741
1.19194
1.36282
1.52124
1.57262
1.522
1.43579
1.35861
1.30863
1.29153
1.30835
1.35766
1.4333
1.5166
1.56239
1.50224
1.33251
1.16244
1.07098
0.999207
0.999294
0.999496
0.999847
1.00036
1.00102
1.00176
1.00249
1.00311
1.00355
1.00376
1.00367
1.00314
1.00183
0.999144
0.994402
0.987596
0.980614
0.97849
0.99021
1.02943
1.11512
1.2645
1.4517
1.56544
1.53885
1.43579
1.32631
1.2411
1.18909
1.1717
1.1888
1.24013
1.3238
1.43056
1.53003
1.55121
1.42747
1.24203
1.12906
0.999552
0.999541
0.999538
0.999573
0.999671
0.999838
1.00006
1.00031
1.00055
1.00074
1.00085
1.00084
1.0005
0.999432
0.996939
0.992333
0.98579
0.97972
0.980074
0.997258
1.04718
1.15158
1.32343
1.50625
1.56669
1.48712
1.35861
1.2411
1.15488
1.10366
1.08674
1.10337
1.15391
1.23864
1.35365
1.47963
1.55744
1.49122
1.31122
1.18353
0.999801
0.999774
0.99973
0.999684
0.999655
0.999651
0.999677
0.999727
0.999794
0.999874
0.99995
0.99996
0.999698
0.998701
0.996227
0.991595
0.985134
0.979618
0.981624
1.00252
1.05976
1.17655
1.36041
1.53159
1.55462
1.44763
1.30863
1.18909
1.10366
1.05358
1.03711
1.05329
1.10271
1.18668
1.30388
1.44097
1.54864
1.52405
1.35723
1.22243
0.999932
0.999913
0.999879
0.999837
0.999795
0.99976
0.999737
0.99973
0.999745
0.999788
0.99985
0.999869
0.99963
0.998651
0.996173
0.991517
0.985067
0.979733
0.982312
1.00452
1.06436
1.18546
1.37288
1.53848
1.54854
1.4333
1.29153
1.1717
1.08674
1.03711
1.02083
1.03683
1.08579
1.16932
1.28686
1.42693
1.54367
1.53374
1.37328
1.2366
0.999986
0.999976
0.999959
0.999935
0.999909
0.999884
0.999863
0.999852
0.999859
0.999894
0.999955
0.99998
0.999762
0.998824
0.996412
0.991828
0.985392
0.979879
0.981871
1.00275
1.05998
1.1768
1.36067
1.53172
1.55453
1.4474
1.30835
1.1888
1.10337
1.05329
1.03683
1.053
1.10242
1.18639
1.30361
1.44075
1.54857
1.52423
1.35754
1.22273
1
0.999998
0.999991
0.999981
0.999969
0.999957
0.999946
0.999942
0.999953
0.999989
1.00005
1.00009
0.999905
0.999063
0.996825
0.992458
0.986105
0.980156
0.980568
0.997769
1.0477
1.15212
1.32393
1.5064
1.56627
1.48632
1.35766
1.24013
1.15391
1.10271
1.08579
1.10242
1.15295
1.23767
1.35271
1.47884
1.55707
1.49148
1.31182
1.18417
1
1
1
0.999997
0.999993
0.999988
0.999985
0.999986
0.999999
1.00003
1.0001
1.00015
1.00002
0.999328
0.997374
0.99339
0.987268
0.980824
0.979061
0.99098
1.03027
1.11594
1.26507
1.4515
1.56406
1.53665
1.4333
1.3238
1.23864
1.18668
1.16932
1.18639
1.23767
1.32129
1.42809
1.52786
1.5499
1.42742
1.24273
1.12996
1
1
1
1
1
0.999998
0.999998
1
1.00001
1.00005
1.00011
1.00017
1.00011
0.999603
0.998021
0.994583
0.988918
0.982158
0.978143
0.984159
1.01129
1.07484
1.19196
1.36129
1.51759
1.56756
1.5166
1.43056
1.35365
1.30388
1.28686
1.30361
1.35271
1.42809
1.51121
1.55735
1.49865
1.3311
1.16251
1.07162
1
1
1
1
1
1
1
1
1.00001
1.00004
1.0001
1.00017
1.00018
0.999866
0.998708
0.995949
0.990994
0.984292
0.978427
0.978859
0.994062
1.03549
1.11699
1.24783
1.40792
1.5296
1.56239
1.53003
1.47963
1.44097
1.42693
1.44075
1.47884
1.52786
1.55735
1.51905
1.38784
1.21776
1.08535
1.01897
1
1
1
1
1
1
1
1
1.00001
1.00003
1.00008
1.00016
1.00022
1.00009
0.999362
0.997345
0.993307
0.987092
0.980073
0.975913
0.980707
1.00263
1.05145
1.13661
1.25925
1.39626
1.50224
1.55121
1.55744
1.54864
1.54367
1.54857
1.55707
1.5499
1.49865
1.38784
1.24285
1.11146
1.02144
0.977425
1
1
1
1
1
1
1
1
1.00001
1.00002
1.00006
1.00014
1.00025
1.00027
0.999912
0.998601
0.995542
0.99012
0.982657
0.975201
0.971838
0.978329
1.00141
1.04787
1.12246
1.22263
1.33251
1.42747
1.49122
1.52405
1.53374
1.52423
1.49148
1.42742
1.3311
1.21776
1.11146
1.02879
0.974628
0.948195
1
1
1
1
1
1
0.999999
0.999999
1
1.00001
1.00005
1.00013
1.00025
1.00038
1.00031
0.99955
0.997325
0.992721
0.985283
0.975809
0.966881
0.962715
0.968407
0.98897
1.0283
1.08751
1.16244
1.24203
1.31122
1.35723
1.37328
1.35754
1.31182
1.24273
1.16251
1.08535
1.02144
0.974628
0.944657
0.93013
1
1
1
1
1
0.999999
0.999999
0.999998
1
1.00001
1.00004
1.00012
1.00026
1.00044
1.00051
1.00006
0.998317
0.994231
0.986935
0.976532
0.964785
0.955166
0.952133
0.960061
0.982237
1.01989
1.07098
1.12906
1.18353
1.22243
1.2366
1.22273
1.18417
1.12996
1.07162
1.01897
0.977425
0.948195
0.93013
0.921601
SCALARS C2 double 1
LOOKUP_TABLE default
2.36885
2.34127
2.30451
2.28368
2.29361
2.33206
2.38627
2.44201
2.48832
2.5184
2.52877
2.51838
2.48821
2.44167
2.38544
2.33044
2.29132
2.28218
2.30816
2.35893
2.41433
2.4582
2.48542
2.49869
2.50321
2.50349
2.50239
2.50127
2.50054
2.50017
2.50003
2.49999
2.49999
2.49999
2.5
2.5
2.5
2.5
2.5
2.5
2.34127
2.32915
2.32188
2.33732
2.38024
2.44266
2.51167
2.57551
2.62583
2.65766
2.66851
2.65763
2.62572
2.57518
2.51089
2.44129
2.37881
2.33818
2.33077
2.35634
2.4005
2.44414
2.4756
2.49325
2.50078
2.50269
2.50228
2.50136
2.50064
2.50023
2.50006
2.5
2.49999
2.49999
2.5
2.5
2.5
2.5
2.5
2.5
2.30451
2.32188
2.36402
2.43284
2.52018
2.6134
2.70105
2.77491
2.83004
2.86384
2.8752
2.86381
2.82993
2.7746
2.70036
2.61239
2.51998
2.43726
2.38109
2.36376
2.38308
2.42121
2.45789
2.48287
2.49592
2.50096
2.50195
2.50148
2.50081
2.50035
2.50011
2.50002
2.5
2.49999
2.5
2.5
2.5
2.5
2.5
2.5
2.28368
2.33732
2.43284
2.55116
2.6741
2.78889
2.88778
2.9665
3.02312
3.05706
3.06835
3.05703
3.02302
2.96622
2.88718
2.78817
2.67498
2.55902
2.45821
2.39316
2.37591
2.39824
2.43609
2.4687
2.48877
2.49817
2.50125
2.50153
2.50101
2.50049
2.50019
2.50005
2.5
2.5
2.5
2.5
2.5
2.5
2.5
2.5
2.29361
2.38024
2.52018
2.6741
2.81801
2.94235
3.044
3.1221
3.17691
3.20925
3.21991
3.20922
3.17682
3.12185
3.04349
2.94185
2.81963
2.68456
2.55214
2.44554
2.3875
2.38384
2.41511
2.45267
2.47984
2.49431
2.50006
2.50141
2.50117
2.50065
2.50027
2.50009
2.50002
2.5
2.5
2.5
2.5
2.5
2.5
2.5
2.33206
2.44266
2.6134
2.78889
2.94235
3.06843
3.16796
3.24249
3.29379
3.32363
3.3334
3.32361
3.29371
3.24228
3.16752
3.06809
2.94445
2.80105
2.64975
2.51243
2.41711
2.38233
2.39924
2.43711
2.47004
2.48966
2.49841
2.50108
2.50126
2.50078
2.50036
2.50013
2.50003
2.5
2.5
2.5
2.5
2.5
2.5
2.5
2.38627
2.51167
2.70105
2.88778
3.044
3.16796
3.26325
3.33305
3.38014
3.4071
3.41584
3.40708
3.38007
3.33287
3.26289
3.16776
3.04641
2.90094
2.7399
2.58227
2.45736
2.39244
2.39046
2.42403
2.46051
2.48468
2.49644
2.50057
2.50126
2.50089
2.50044
2.50017
2.50005
2.50001
2.5
2.5
2.5
2.5
2.5
2.5
2.44201
2.57551
2.77491
2.9665
3.1221
3.24249
3.33305
3.39796
3.44079
3.46483
3.47253
3.46481
3.44073
3.3978
3.33275
3.24243
3.12474
2.98022
2.81495
2.64506
2.49905
2.40908
2.38805
2.41449
2.4523
2.48001
2.49444
2.49996
2.50119
2.50095
2.5005
2.5002
2.50006
2.50001
2.5
2.5
2.5
2.5
2.5
2.5
2.48832
2.62583
2.83004
3.02312
3.17691
3.29379
3.38014
3.44079
3.47991
3.5014
3.50819
3.50138
3.47985
3.44065
3.3799
3.29384
3.17972
3.03711
2.8705
2.69382
2.53422
2.42619
2.38946
2.40851
2.44613
2.47621
2.4927
2.49937
2.50107
2.50097
2.50053
2.50021
2.50005
2.5
2.49999
2.49999
2.5
2.5
2.5
2.50001
2.5184
2.65766
2.86384
3.05706
3.20925
3.32363
3.4071
3.46483
3.5014
3.52111
3.52726
3.52109
3.50134
3.4647
3.40689
3.32376
3.21217
3.07117
2.90439
2.72444
2.55738
2.43862
2.39177
2.40539
2.44235
2.47372
2.4915
2.49891
2.50093
2.50093
2.50049
2.50016
2.5
2.49995
2.49994
2.49996
2.49997
2.49999
2.5
2.5
2.52877
2.66851
2.8752
3.06835
3.21991
3.3334
3.41584
3.47253
3.50819
3.52726
3.53318
3.52724
3.50813
3.47241
3.41565
3.33356
3.22287
3.0825
2.91576
2.73484
2.56542
2.44311
2.39278
2.40441
2.44102
2.47278
2.49098
2.49864
2.50076
2.50079
2.50036
2.50002
2.49987
2.49982
2.49983
2.49987
2.49991
2.49994
2.49997
2.49998
2.51838
2.65763
2.86381
3.05703
3.20922
3.32361
3.40708
3.46481
3.50138
3.52109
3.52724
3.52107
3.50132
3.46468
3.40687
3.32374
3.21215
3.07115
2.90437
2.7244
2.55733
2.43854
2.39166
2.40523
2.44212
2.47344
2.49118
2.49856
2.50057
2.50055
2.50012
2.49979
2.49964
2.4996
2.49963
2.49968
2.49975
2.49981
2.49986
2.49989
2.48821
2.62572
2.82993
3.02302
3.17682
3.29371
3.38007
3.44073
3.47985
3.50134
3.50813
3.50132
3.47979
3.44058
3.37983
3.29377
3.17964
3.03701
2.87039
2.69369
2.53405
2.42596
2.38915
2.40809
2.44562
2.47563
2.49208
2.49874
2.50045
2.50037
2.49993
2.4996
2.49943
2.49937
2.49937
2.49941
2.49948
2.49956
2.49963
2.49968
2.44167
2.57518
2.7746
2.96622
3.12185
3.24228
3.33287
3.3978
3.44065
3.4647
3.47241
3.46468
3.44058
3.39764
3.33257
3.24222
3.1245
2.97994
2.81462
2.64467
2.49858
2.40852
2.38739
2.41376
2.45153
2.47927
2.49381
2.49949
2.50088
2.50077
2.50036
2.50002
2.49975
2.49954
2.49937
2.49925
2.4992
2.4992
2.49923
2.49926
2.38544
2.51089
2.70036
2.88718
3.04349
3.16752
3.26289
3.33275
3.3799
3.40689
3.41565
3.40687
3.37983
3.33257
3.26252
3.16732
3.04589
2.90033
2.73916
2.58138
2.45633
2.39133
2.38939
2.42312
2.45993
2.48459
2.49696
2.50174
2.50302
2.50305
2.50275
2.50234
2.50181
2.50118
2.50049
2.49985
2.49932
2.49895
2.49873
2.49864
2.33044
2.44129
2.61239
2.78817
2.94185
3.06809
3.16776
3.24243
3.29384
3.32376
3.33356
3.32374
3.29377
3.24222
3.16732
3.06774
2.94391
2.80026
2.64863
2.51092
2.41534
2.38063
2.39806
2.43688
2.47113
2.49237
2.50289
2.50729
2.50891
2.50939
2.50931
2.50875
2.50769
2.5062
2.50442
2.50258
2.50089
2.49952
2.49858
2.49811
2.29132
2.37881
2.51998
2.67498
2.81963
2.94445
3.04641
3.12474
3.17972
3.21217
3.22287
3.21215
3.17964
3.1245
3.04589
2.94391
2.82116
2.68528
2.55177
2.44408
2.38544
2.3822
2.41509
2.45531
2.48584
2.50409
2.51365
2.51846
2.52095
2.52218
2.52241
2.52162
2.5198
2.51701
2.51347
2.50956
2.5057
2.50235
2.49989
2.4986
2.28218
2.33818
2.43726
2.55902
2.68456
2.80105
2.90094
2.98022
3.03711
3.07117
3.0825
3.07115
3.03701
2.97994
2.90033
2.80026
2.68528
2.56666
2.46258
2.39448
2.37564
2.39886
2.44022
2.47833
2.505
2.5213
2.53086
2.53658
2.54008
2.54201
2.54252
2.54157
2.53906
2.53497
2.52944
2.52287
2.51593
2.50951
2.50455
2.50185
2.30816
2.33077
2.38109
2.45821
2.55214
2.64975
2.7399
2.81495
2.8705
2.90439
2.91576
2.90437
2.87039
2.81462
2.73916
2.64863
2.55177
2.46258
2.39868
2.37424
2.38964
2.42882
2.47134
2.5054
2.52886
2.54398
2.5535
2.55937
2.5628
2.56453
2.56497
2.56419
2.56194
2.55777
2.55136
2.54281
2.53288
2.52299
2.51493
2.51039
2.35893
2.35634
2.36376
2.39316
2.44554
2.51243
2.58227
2.64506
2.69382
2.72444
2.73484
2.7244
2.69369
2.64467
2.58138
2.51092
2.44408
2.39448
2.37424
2.38677
2.42282
2.46643
2.50537
2.53497
2.5554
2.56826
2.57518
2.57771
2.57757
2.57652
2.57593
2.57625
2.57683
2.5762
2.57274
2.56558
2.55513
2.54326
2.53282
2.52668
2.41433
2.4005
2.38308
2.37591
2.3875
2.41711
2.45736
2.49905
2.53422
2.55738
2.56542
2.55733
2.53405
2.49858
2.45633
2.41534
2.38544
2.37564
2.38964
2.42282
2.46467
2.50521
2.53881
2.56343
2.57855
2.58422
2.58129
2.5721
2.56051
2.55105
2.54737
2.5508
2.55981
2.57063
2.57881
2.58111
2.57675
2.56773
2.55799
2.55175
2.4582
2.44414
2.42121
2.39824
2.38384
2.38233
2.39244
2.40908
2.42619
2.43862
2.44311
2.43854
2.42596
2.40852
2.39133
2.38063
2.3822
2.39886
2.42882
2.46643
2.50521
2.5401
2.56743
2.58402
2.58681
2.57384
2.54603
2.5086
2.47067
2.44258
2.43217
2.44228
2.4699
2.50709
2.54371
2.57131
2.58616
2.58976
2.58713
2.58396
2.48542
2.4756
2.45789
2.43609
2.41511
2.39924
2.39046
2.38805
2.38946
2.39177
2.39278
2.39166
2.38915
2.38739
2.38939
2.39806
2.41509
2.44022
2.47134
2.50537
2.53881
2.56743
2.58565
2.58642
2.5626
2.50995
2.43174
2.34143
2.25912
2.20282
2.18292
2.20244
2.25822
2.3399
2.4299
2.50918
2.56585
2.59865
2.61364
2.6186
2.49869
2.49325
2.48287
2.4687
2.45267
2.43711
2.42403
2.41449
2.40851
2.40539
2.40441
2.40523
2.40809
2.41376
2.42312
2.43688
2.45531
2.47833
2.5054
2.53497
2.56343
2.58402
2.58642
2.55733
2.48383
2.36197
2.20827
2.05834
1.94404
1.87696
1.85526
1.8766
1.94324
2.05721
2.20773
2.36461
2.49404
2.58066
2.62852
2.6486
2.50321
2.50078
2.49592
2.48877
2.47984
2.47004
2.46051
2.4523
2.44613
2.44235
2.44102
2.44212
2.44562
2.45153
2.45993
2.47113
2.48584
2.505
2.52886
2.5554
2.57855
2.58681
2.5626
2.48383
2.33392
2.12685
1.92032
1.77012
1.68539
1.64683
1.63613
1.64665
1.68508
1.77004
1.92196
2.13433
2.35376
2.52191
2.62205
2.66602
2.50349
2.50269
2.50096
2.49817
2.49431
2.48966
2.48468
2.48001
2.47621
2.47372
2.47278
2.47344
2.47563
2.47927
2.48459
2.49237
2.50409
2.5213
2.54398
2.56826
2.58422
2.57384
2.50995
2.36197
2.12685
1.87436
1.6976
1.61354
1.58651
1.5826
1.58316
1.58258
1.58666
1.61445
1.70111
1.88576
2.1559
2.41569
2.58684
2.66425
2.50239
2.50228
2.50195
2.50125
2.50006
2.49841
2.49644
2.49444
2.4927
2.4915
2.49098
2.49118
2.49208
2.49381
2.49696
2.50289
2.51365
2.53086
2.5535
2.57518
2.58129
2.54603
2.43174
2.20827
1.92032
1.6976
1.59816
1.58067
1.59539
1.61315
1.62038
1.61323
1.59579
1.58213
1.60252
1.7101
1.95341
2.27344
2.52227
2.64074
2.50127
2.50136
2.50148
2.50153
2.50141
2.50108
2.50057
2.49996
2.49937
2.49891
2.49864
2.49856
2.49874
2.49949
2.50174
2.50729
2.51846
2.53658
2.55937
2.57771
2.5721
2.5086
2.34143
2.05834
1.77012
1.61354
1.58067
1.60568
1.64399
1.6734
1.68414
1.67352
1.64453
1.6074
1.58529
1.62542
1.80157
2.12677
2.43869
2.59967
2.50054
2.50064
2.50081
2.50101
2.50117
2.50126
2.50126
2.50119
2.50107
2.50093
2.50076
2.50057
2.50045
2.50088
2.50302
2.50891
2.52095
2.54008
2.5628
2.57757
2.56051
2.47067
2.25912
1.94404
1.68539
1.58651
1.59539
1.64399
1.69479
1.73022
1.74276
1.73037
1.69539
1.64583
1.60006
1.5975
1.71315
2.00914
2.35627
2.55268
2.50017
2.50023
2.50035
2.50049
2.50065
2.50078
2.50089
2.50095
2.50097
2.50093
2.50079
2.50055
2.50037
2.50077
2.50305
2.50939
2.52218
2.54201
2.56453
2.57652
2.55105
2.44258
2.20282
1.87696
1.64683
1.5826
1.61315
1.6734
1.73022
1.76853
1.78192
1.76868
1.73085
1.67529
1.61782
1.59297
1.67171
1.93735
2.2968
2.51543
2.50003
2.50006
2.50011
2.50019
2.50027
2.50036
2.50044
2.5005
2.50053
2.50049
2.50036
2.50012
2.49993
2.50036
2.50275
2.50931
2.52241
2.54252
2.56497
2.57593
2.54737
2.43217
2.18292
1.85526
1.63613
1.58316
1.62038
1.68414
1.74276
1.78192
1.79555
1.78207
1.74339
1.68604
1.62504
1.59332
1.65996
1.91361
2.27518
2.5012
2.49999
2.5
2.50002
2.50005
2.50009
2.50013
2.50017
2.5002
2.50021
2.50016
2.50002
2.49979
2.4996
2.50002
2.50234
2.50875
2.52162
2.54157
2.56419
2.57625
2.5508
2.44228
2.20244
1.8766
1.64665
1.58258
1.61323
1.67352
1.73037
1.76868
1.78207
1.76884
1.73099
1.67541
1.61789
1.59295
1.6715
1.93692
2.29634
2.51506
2.49999
2.49999
2.5
2.5
2.50002
2.50003
2.50005
2.50006
2.50005
2.5
2.49987
2.49964
2.49943
2.49975
2.50181
2.50769
2.5198
2.53906
2.56194
2.57683
2.55981
2.4699
2.25822
1.94324
1.68508
1.58666
1.59579
1.64453
1.69539
1.73085
1.74339
1.73099
1.69598
1.64636
1.60046
1.59763
1.71277
2.0082
2.35521
2.55175
2.49999
2.49999
2.49999
2.5
2.5
2.5
2.50001
2.50001
2.5
2.49995
2.49982
2.4996
2.49937
2.49954
2.50118
2.5062
2.51701
2.53497
2.55777
2.5762
2.57063
2.50709
2.3399
2.05721
1.77004
1.61445
1.58213
1.6074
1.64583
1.67529
1.68604
1.67541
1.64636
1.60911
1.58673
1.62629
1.80136
2.12541
2.43694
2.59798
2.5
2.5
2.5
2.5
2.5
2.5
2.5
2.5
2.49999
2.49994
2.49983
2.49963
2.49937
2.49937
2.50049
2.50442
2.51347
2.52944
2.55136
2.57274
2.57881
2.54371
2.4299
2.20773
1.92196
1.70111
1.60252
1.58529
1.60006
1.61782
1.62504
1.61789
1.60046
1.58673
1.60687
1.71356
1.95489
2.27263
2.52023
2.63836
2.5
2.5
2.5
2.5
2.5
2.5
2.5
2.5
2.49999
2.49996
2.49987
2.49968
2.49941
2.49925
2.49985
2.50258
2.50956
2.52287
2.54281
2.56558
2.58111
2.57131
2.50918
2.36461
2.13433
1.88576
1.7101
1.62542
1.5975
1.59297
1.59332
1.59295
1.59763
1.62629
1.71356
1.89708
2.16318
2.41808
2.58605
2.66214
2.5
2.5
2.5
2.5
2.5
2.5
2.5
2.5
2.5
2.49997
2.49991
2.49975
2.49948
2.4992
2.49932
2.50089
2.5057
2.51593
2.53288
2.55513
2.57675
2.58616
2.56585
2.49404
2.35376
2.1559
1.95341
1.80157
1.71315
1.67171
1.65996
1.6715
1.71277
1.80136
1.95489
2.16318
2.37336
2.53204
2.62578
2.66675
2.5
2.5
2.5
2.5
2.5
2.5
2.5
2.5
2.5
2.49999
2.49994
2.49981
2.49956
2.4992
2.49895
2.49952
2.50235
2.50951
2.52299
2.54326
2.56773
2.58976
2.59865
2.58066
2.52191
2.41569
2.27344
2.12677
2.00914
1.93735
1.91361
1.93692
2.0082
2.12541
2.27263
2.41808
2.53204
2.6044
2.64217
2.65716
2.5
2.5
2.5
2.5
2.5
2.5
2.5
2.5
2.5
2.5
2.49997
2.49986
2.49963
2.49923
2.49873
2.49858
2.49989
2.50455
2.51493
2.53282
2.55799
2.58713
2.61364
2.62852
2.62205
2.58684
2.52227
2.43869
2.35627
2.2968
2.27518
2.29634
2.35521
2.43694
2.52023
2.58605
2.62578
2.64217
2.64449
2.64261
2.5
2.5
2.5
2.5
2.5
2.5
2.5
2.5
2.50001
2.5
2.49998
2.49989
2.49968
2.49926
2.49864
2.49811
2.4986
2.50185
2.51039
2.52668
2.55175
2.58396
2.6186
2.6486
2.66602
2.66425
2.64074
2.59967
2.55268
2.51543
2.5012
2.51506
2.55175
2.59798
2.63836
2.66214
2.66675
2.65716
2.64261
2.63244
