# vtk DataFile Version 3.0
Brusselator Concentration Output
ASCII
DATASET STRUCTURED_POINTS
DIMENSIONS 40 40 1
ORIGIN 0.0 0.0 0.0
SPACING 0.005 0.005 1.0
POINT_DATA 1600
SCALARS C1 double 1
LOOKUP_TABLE default
0.876063
0.846928
0.80038
0.75224
0.713732
0.688603
0.67542
0.670647
0.670504
0.671828
0.67252
0.671836
0.670471
0.670411
0.674592
0.686454
0.709356
0.745648
0.795225
0.853935
0.913188
0.962471
0.994499
1.00905
1.01165
1.00888
1.00518
1.00241
1.00085
1.00017
0.999949
0.999924
0.99995
0.999976
0.999991
0.999997
1
1
1
1
0.846928
0.826125
0.792522
0.757923
0.731655
0.717281
0.713648
0.717246
0.723894
0.729736
0.732024
0.729739
0.723833
0.716925
0.712643
0.714915
0.727364
0.752638
0.791428
0.841203
0.895476
0.944972
0.981373
1.00157
1.00855
1.00818
1.00538
1.00277
1.00111
1.00031
1.00001
0.999941
0.999953
0.999975
0.99999
0.999997
0.999999
1
1
1
0.80038
0.792522
0.779744
0.768076
0.76401
0.770875
0.78785
0.810977
0.834436
0.851915
0.858389
0.851901
0.834304
0.810456
0.786456
0.768054
0.75987
0.76519
0.785726
0.820895
0.866775
0.915766
0.958427
0.987678
1.00235
1.00649
1.00556
1.00336
1.00158
1.00056
1.00012
0.999977
0.999959
0.999973
0.999987
0.999995
0.999999
1
1
1
0.75224
0.757923
0.768076
0.783484
0.808083
0.845534
0.895738
0.953561
1.00908
1.04972
1.06469
1.04967
1.00881
0.952677
0.893686
0.841994
0.804137
0.783751
0.782639
0.800987
0.836473
0.882984
0.93072
0.969381
0.993247
1.00349
1.00538
1.00398
1.00216
1.00091
1.00027
1.00003
0.999971
0.999973
0.999985
0.999994
0.999998
1
1
1
0.713732
0.731655
0.76401
0.808083
0.866373
0.944213
1.04332
1.15635
1.26476
1.34366
1.37251
1.34354
1.26424
1.15489
1.04029
0.939677
0.862683
0.81203
0.787568
0.788263
0.811888
0.853294
0.903088
0.949187
0.981976
0.999058
1.00458
1.00443
1.00274
1.00129
1.00046
1.0001
0.99999
0.999975
0.999984
0.999993
0.999998
1
1
1
0.688603
0.717281
0.770875
0.845534
0.944213
1.07586
1.24459
1.43574
1.61202
1.73252
1.77449
1.73231
1.61118
1.43349
1.24023
1.07006
0.940908
0.85368
0.803479
0.785602
0.7962
0.830219
0.878885
0.929511
0.969697
0.993477
1.00306
1.00459
1.00324
1.00167
1.00066
1.00018
1.00002
0.99998
0.999985
0.999994
0.999999
1
1
1
0.67542
0.713648
0.78785
0.895738
1.04332
1.24459
1.50046
1.76985
1.98353
2.10561
2.1432
2.10533
1.98251
1.76697
1.49474
1.23741
1.04064
0.908613
0.829465
0.79207
0.789091
0.814463
0.859726
0.912195
0.957752
0.98738
1.00101
1.00443
1.00361
1.00201
1.00085
1.00027
1.00005
0.99999
0.999988
0.999997
1
1.00001
1.00001
1.00001
0.670647
0.717246
0.810977
0.953561
1.15635
1.43574
1.76985
2.06439
2.24085
2.31489
2.33306
2.31463
2.23993
2.06158
1.76347
1.42751
1.15459
0.971464
0.86123
0.804307
0.788259
0.805001
0.845877
0.898348
0.947347
0.981566
0.998763
1.00403
1.00382
1.00227
1.00102
1.00034
1.00007
0.999997
0.999992
1
1.00001
1.00001
1.00001
1.00001
0.670504
0.723894
0.834436
1.00908
1.26476
1.61202
1.98353
2.24085
2.34796
2.37318
2.37524
2.37297
2.34726
2.23861
1.97757
1.6035
1.26413
1.03167
0.892145
0.817845
0.790684
0.800089
0.836826
0.888439
0.939377
0.976797
0.996737
1.00354
1.0039
1.00243
1.00111
1.00038
1.00007
0.999983
0.999979
0.999995
1.00001
1.00002
1.00002
1.00003
0.671828
0.729736
0.851915
1.04972
1.34366
1.73252
2.10561
2.31489
2.37318
2.371
2.36479
2.37082
2.37263
2.31314
2.10043
1.72431
1.34402
1.0757
0.914777
0.828229
0.793513
0.797984
0.831811
0.882533
0.934379
0.973642
0.99528
1.00308
1.00382
1.00242
1.00107
1.0003
0.999978
0.999897
0.999909
0.999947
0.999983
1.00001
1.00003
1.00004
0.67252
0.732024
0.858389
1.06469
1.37251
1.77449
2.1432
2.33306
2.37524
2.36479
2.35618
2.36462
2.37474
2.33149
2.13837
1.76648
1.37327
1.09192
0.923106
0.832115
0.794709
0.797429
0.830193
0.880522
0.932586
0.972404
0.994574
1.00269
1.00354
1.00215
1.00079
1.00001
0.999699
0.999645
0.999697
0.999781
0.999866
0.999938
0.999991
1.00002
0.671836
0.729739
0.851901
1.04967
1.34354
1.73231
2.10533
2.31463
2.37297
2.37082
2.36462
2.37064
2.37242
2.31289
2.10015
1.72409
1.34391
1.07566
0.914769
0.828232
0.793504
0.797933
0.831681
0.882285
0.933987
0.973099
0.994601
1.0023
1.00296
1.00152
1.00016
0.9994
0.999123
0.999114
0.999226
0.999385
0.999552
0.999705
0.999821
0.999884
0.670471
0.723833
0.834304
1.00881
1.26424
1.61118
1.98251
2.23993
2.34726
2.37263
2.37474
2.37242
2.34656
2.23769
1.97655
1.60268
1.26363
1.0314
0.891997
0.817739
0.790549
0.799848
0.836398
0.88775
0.938392
0.975522
0.995222
1.00185
1.0021
1.00058
0.999256
0.998535
0.998283
0.998295
0.998444
0.998664
0.998918
0.999166
0.999367
0.999479
0.670411
0.716925
0.810456
0.952677
1.15489
1.43349
1.76697
2.06158
2.23861
2.31314
2.33149
2.31289
2.23769
2.05877
1.76061
1.42529
1.15315
0.970556
0.86061
0.803791
0.787693
0.804244
0.844808
0.896899
0.945526
0.979445
0.996456
1.00165
1.00146
0.999949
0.998719
0.998027
0.997712
0.997605
0.997625
0.997749
0.997959
0.998214
0.998446
0.998585
0.674592
0.712643
0.786456
0.893686
1.04029
1.24023
1.49474
1.76347
1.97757
2.10043
2.13837
2.10015
1.97655
1.76061
1.48905
1.2331
1.03762
0.906465
0.827798
0.790574
0.787521
0.812642
0.857582
0.909787
0.955251
0.98501
0.998987
1.00289
1.00258
1.00136
1.00035
0.999626
0.999006
0.998399
0.997831
0.997378
0.997102
0.997
0.997011
0.997046
0.686454
0.714915
0.768054
0.841994
0.939677
1.07006
1.23741
1.42751
1.6035
1.72431
1.76648
1.72409
1.60268
1.42529
1.2331
1.06432
0.93635
0.849926
0.800142
0.782356
0.792835
0.826713
0.875473
0.926654
0.967944
0.993312
1.0048
1.0083
1.00869
1.00831
1.00772
1.00681
1.00541
1.00356
1.00147
0.999418
0.997652
0.996324
0.995473
0.995066
0.709356
0.727364
0.75987
0.804137
0.862683
0.940908
1.04064
1.15459
1.26413
1.34402
1.37327
1.34391
1.26363
1.15315
1.03762
0.93635
0.858856
0.807725
0.78273
0.782891
0.806218
0.84798
0.899235
0.948144
0.984974
1.00694
1.01767
1.02248
1.02487
1.0261
1.0262
1.02487
1.022
1.01777
1.01265
1.00727
1.00224
0.998092
0.99517
0.993669
0.745648
0.752638
0.76519
0.783751
0.81203
0.85368
0.908613
0.971464
1.03167
1.0757
1.09192
1.07566
1.0314
0.970556
0.906465
0.849926
0.807725
0.783519
0.779154
0.795095
0.829643
0.877519
0.929574
0.975535
1.009
1.03004
1.04272
1.05093
1.05661
1.06008
1.06103
1.05912
1.05421
1.04651
1.03667
1.02573
1.01495
1.00561
0.998771
0.995169
0.795225
0.791428
0.785726
0.782639
0.787568
0.803479
0.829465
0.86123
0.892145
0.914777
0.923106
0.914769
0.891997
0.86061
0.827798
0.800142
0.78273
0.779154
0.791641
0.820667
0.863946
0.915592
0.967075
1.01075
1.04348
1.06669
1.08325
1.09514
1.1032
1.10781
1.10913
1.10708
1.10125
1.09116
1.07682
1.05925
1.04054
1.0234
1.01039
1.00341
0.853935
0.841203
0.820895
0.800987
0.788263
0.785602
0.79207
0.804307
0.817845
0.828229
0.832115
0.828232
0.817739
0.803791
0.790574
0.782356
0.782891
0.795095
0.820667
0.859371
0.908194
0.961333
1.01201
1.05534
1.08953
1.11453
1.13073
1.13924
1.14228
1.14257
1.14226
1.142
1.14066
1.13573
1.12447
1.10569
1.08124
1.05583
1.03512
1.02361
0.913188
0.895476
0.866775
0.836473
0.811888
0.7962
0.789091
0.788259
0.790684
0.793513
0.794709
0.793504
0.790549
0.787693
0.787521
0.792835
0.806218
0.829643
0.863946
0.908194
0.959316
1.01267
1.06332
1.10654
1.1375
1.15246
1.15177
1.14055
1.1261
1.11475
1.11042
1.11426
1.12472
1.13757
1.14633
1.14434
1.12853
1.10288
1.07714
1.0614
0.962471
0.944972
0.915766
0.882984
0.853294
0.830219
0.814463
0.805001
0.800089
0.797984
0.797429
0.797933
0.799848
0.804244
0.812642
0.826713
0.84798
0.877519
0.915592
0.961333
1.01267
1.0661
1.11528
1.14978
1.15914
1.14159
1.10615
1.06587
1.03129
1.00862
1.00069
1.0082
1.03018
1.06359
1.10231
1.13648
1.15482
1.15179
1.1347
1.11991
0.994499
0.981373
0.958427
0.93072
0.903088
0.878885
0.859726
0.845877
0.836826
0.831811
0.830193
0.831681
0.836398
0.844808
0.857582
0.875473
0.899235
0.929574
0.967075
1.01201
1.06332
1.11528
1.15335
1.15872
1.12493
1.06477
0.997907
0.938909
0.894937
0.868339
0.859403
0.868001
0.89411
0.937423
0.995994
1.0639
1.12889
1.17455
1.19232
1.19276
1.00905
1.00157
0.987678
0.969381
0.949187
0.929511
0.912195
0.898348
0.888439
0.882533
0.880522
0.882285
0.88775
0.896899
0.909787
0.926654
0.948144
0.975535
1.01075
1.05534
1.10654
1.14978
1.15872
1.11746
1.03896
0.949976
0.8704
0.808812
0.766597
0.742331
0.734382
0.74207
0.766015
0.807981
0.870107
0.952886
1.05108
1.14874
1.22184
1.2565
1.01165
1.00855
1.00235
0.993247
0.981976
0.969697
0.957752
0.947347
0.939377
0.934379
0.932586
0.933987
0.938392
0.945526
0.955251
0.967944
0.984974
1.009
1.04348
1.08953
1.1375
1.15914
1.12493
1.03896
0.933213
0.835769
0.759092
0.704682
0.66955
0.650115
0.643868
0.649917
0.669148
0.704297
0.759861
0.841172
0.950929
1.0812
1.20436
1.27962
1.00888
1.00818
1.00649
1.00349
0.999058
0.993477
0.98738
0.981566
0.976797
0.973642
0.972404
0.973099
0.975522
0.979445
0.98501
0.993312
1.00694
1.03004
1.06669
1.11453
1.15246
1.14159
1.06477
0.949976
0.835769
0.743168
0.676485
0.632153
0.604867
0.590253
0.585629
0.5901
0.604588
0.632045
0.677845
0.749853
0.856265
0.997157
1.14792
1.25125
1.00518
1.00538
1.00556
1.00538
1.00458
1.00306
1.00101
0.998763
0.996737
0.99528
0.994574
0.994601
0.995222
0.996456
0.998987
1.0048
1.01767
1.04272
1.08325
1.13073
1.15177
1.10615
0.997907
0.8704
0.759092
0.676485
0.620825
0.585719
0.564996
0.554232
0.550878
0.554112
0.564801
0.585779
0.622481
0.683659
0.780373
0.918023
1.07576
1.18963
1.00241
1.00277
1.00336
1.00398
1.00443
1.00459
1.00443
1.00403
1.00354
1.00308
1.00269
1.0023
1.00185
1.00165
1.00289
1.0083
1.02248
1.05093
1.09514
1.13924
1.14055
1.06587
0.938909
0.808812
0.704682
0.632153
0.585719
0.557693
0.541779
0.533766
0.531311
0.533669
0.54164
0.557856
0.587512
0.639412
0.725707
0.854591
1.00799
1.12109
1.00085
1.00111
1.00158
1.00216
1.00274
1.00324
1.00361
1.00382
1.0039
1.00382
1.00354
1.00296
1.0021
1.00146
1.00258
1.00869
1.02487
1.05661
1.1032
1.14228
1.1261
1.03129
0.894937
0.766597
0.66955
0.604867
0.564996
0.541779
0.529051
0.522839
0.520969
0.522756
0.528948
0.542004
0.566852
0.612061
0.689993
0.810017
0.955793
1.06407
1.00017
1.00031
1.00056
1.00091
1.00129
1.00167
1.00201
1.00227
1.00243
1.00242
1.00215
1.00152
1.00058
0.999949
1.00136
1.00831
1.0261
1.06008
1.10781
1.14257
1.11475
1.00862
0.868339
0.742331
0.650115
0.590253
0.554232
0.533766
0.522839
0.517639
0.516097
0.517565
0.522755
0.534024
0.556113
0.597368
0.670071
0.783973
0.923665
1.02763
0.999949
1.00001
1.00012
1.00027
1.00046
1.00066
1.00085
1.00102
1.00111
1.00107
1.00079
1.00016
0.999256
0.998719
1.00035
1.00772
1.0262
1.06103
1.10913
1.14226
1.11042
1.00069
0.859403
0.734382
0.643868
0.585629
0.550878
0.531311
0.520969
0.516097
0.514662
0.516026
0.520891
0.531579
0.552766
0.59271
0.663633
0.775364
0.912787
1.01509
0.999924
0.999941
0.999977
1.00003
1.0001
1.00018
1.00027
1.00034
1.00038
1.0003
1.00001
0.9994
0.998535
0.998027
0.999626
1.00681
1.02487
1.05912
1.10708
1.142
1.11426
1.0082
0.868001
0.74207
0.649917
0.5901
0.554112
0.533669
0.522756
0.517565
0.516026
0.51749
0.522672
0.533926
0.55599
0.597205
0.669847
0.783664
0.923259
1.02715
0.99995
0.999953
0.999959
0.999971
0.99999
1.00002
1.00005
1.00007
1.00007
0.999978
0.999699
0.999123
0.998283
0.997712
0.999006
1.00541
1.022
1.05421
1.10125
1.14066
1.12472
1.03018
0.89411
0.766015
0.669148
0.604588
0.564801
0.54164
0.528948
0.522755
0.520891
0.522672
0.528844
0.541862
0.566649
0.611759
0.689537
0.80934
0.954857
1.06294
0.999976
0.999975
0.999973
0.999973
0.999975
0.99998
0.99999
0.999997
0.999983
0.999897
0.999645
0.999114
0.998295
0.997605
0.998399
1.00356
1.01777
1.04651
1.09116
1.13573
1.13757
1.06359
0.937423
0.807981
0.704297
0.632045
0.585779
0.557856
0.542004
0.534024
0.531579
0.533926
0.541862
0.558012
0.587556
0.639266
0.725247
0.85365
1.00646
1.11911
0.999991
0.99999
0.999987
0.999985
0.999984
0.999985
0.999988
0.999992
0.999979
0.999909
0.999697
0.999226
0.998444
0.997625
0.997831
1.00147
1.01265
1.03667
1.07682
1.12447
1.14633
1.10231
0.995994
0.870107
0.759861
0.677845
0.622481
0.587512
0.566852
0.556113
0.552766
0.55599
0.566649
0.587556
0.624107
0.684975
0.781088
0.917724
1.07415
1.187
0.999997
0.999997
0.999995
0.999994
0.999993
0.999994
0.999997
1
0.999995
0.999947
0.999781
0.999385
0.998664
0.997749
0.997378
0.999418
1.00727
1.02573
1.05925
1.10569
1.14434
1.13648
1.0639
0.952886
0.841172
0.749853
0.683659
0.639412
0.612061
0.597368
0.59271
0.597205
0.611759
0.639266
0.684975
0.756521
0.861747
1.00042
1.14819
1.24916
1
0.999999
0.999999
0.999998
0.999998
0.999999
1
1.00001
1.00001
0.999983
0.999866
0.999552
0.998918
0.997959
0.997102
0.997652
1.00224
1.01495
1.04054
1.08124
1.12853
1.15482
1.12889
1.05108
0.950929
0.856265
0.780373
0.725707
0.689993
0.670071
0.663633
0.669847
0.689537
0.725247
0.781088
0.861747
0.969052
1.09439
1.21083
1.28079
1
1
1
1
1
1
1.00001
1.00001
1.00002
1.00001
0.999938
0.999705
0.999166
0.998214
0.997
0.996324
0.998092
1.00561
1.0234
1.05583
1.10288
1.15179
1.17455
1.14874
1.0812
0.997157
0.918023
0.854591
0.810017
0.783973
0.775364
0.783664
0.80934
0.85365
0.917724
1.00042
1.09439
1.18226
1.24193
1.26643
1
1
1
1
1
1
1.00001
1.00001
1.00002
1.00003
0.999991
0.999821
0.999367
0.998446
0.997011
0.995473
0.99517
0.998771
1.01039
1.03512
1.07714
1.1347
1.19232
1.22184
1.20436
1.14792
1.07576
1.00799
0.955793
0.923665
0.912787
0.923259
0.954857
1.00646
1.07415
1.14819
1.21083
1.24193
1.23795
1.22259
1
1
1
1
1
1
1.00001
1.00001
1.00003
1.00004
1.00002
0.999884
0.999479
0.998585
0.997046
0.995066
0.993669
0.995169
1.00341
1.02361
1.0614
1.11991
1.19276
1.2565
1.27962
1.25125
1.18963
1.12109
1.06407
1.02763
1.01509
1.02715
1.06294
1.11911
1.187
1.24916
1.28079
1.26643
1.22259
1.18741
SCALARS C2 double 1
LOOKUP_TABLE default
2.50769
2.57209
2.68161
2.80917
2.93308
3.04154
3.12985
3.19684
3.24311
3.27
3.27877
3.26994
3.24299
3.19672
3.13009
3.04333
2.93921
2.82402
2.70796
2.6041
2.52513
2.47827
2.4615
2.46471
2.47589
2.48681
2.49424
2.49819
2.49982
2.50027
2.50027
2.50016
2.50007
2.50003
2.50001
2.5
2.5
2.5
2.5
2.5
2.57209
2.63524
2.74273
2.86726
2.98646
3.08827
3.16839
3.22667
3.26507
3.28642
3.2932
3.28636
3.26497
3.22667
3.16896
3.09072
2.99348
2.88231
2.76616
2.657
2.56745
2.50674
2.47655
2.4701
2.47628
2.48556
2.49298
2.49739
2.49942
2.50012
2.50022
2.50016
2.50008
2.50003
2.50001
2.5
2.5
2.5
2.5
2.5
2.68161
2.74273
2.84622
2.9636
3.07068
3.15468
3.21226
3.24587
3.26146
3.26651
3.26735
3.26647
3.26145
3.24616
3.21353
3.15835
3.07906
2.97855
2.86416
2.74711
2.64081
2.55773
2.50508
2.4815
2.47805
2.48376
2.49083
2.49592
2.49867
2.49981
2.50013
2.50015
2.50009
2.50004
2.50001
2.5
2.5
2.5
2.5
2.5
2.80917
2.86726
2.9636
3.06729
3.15158
3.2024
3.21726
3.20261
3.17214
3.14345
3.13184
3.14344
3.1723
3.20341
3.21958
3.20764
3.16129
3.08117
2.97399
2.85148
2.72883
2.6221
2.54403
2.49928
2.48256
2.48249
2.48836
2.49404
2.49764
2.49937
2.49999
2.50012
2.5001
2.50005
2.50002
2.50001
2.5
2.5
2.5
2.5
2.93308
2.98646
3.07068
3.15158
3.1999
3.19931
3.14674
3.05349
2.94636
2.86135
2.82908
2.86142
2.94681
3.05508
3.15056
3.20646
3.21063
3.16303
3.07178
2.95058
2.81711
2.69082
2.58922
2.52269
2.49059
2.4827
2.4862
2.49207
2.49646
2.49883
2.4998
2.50008
2.5001
2.50006
2.50002
2.50001
2.5
2.5
2.5
2.5
3.04154
3.08827
3.15468
3.2024
3.19931
3.12484
2.97357
2.76622
2.55484
2.40124
2.34598
2.40141
2.55571
2.76889
2.97938
3.13431
3.21072
3.20992
3.14478
3.0332
2.89625
2.75667
2.63601
2.54966
2.50186
2.48482
2.48482
2.49027
2.49525
2.49823
2.49957
2.50002
2.50009
2.50006
2.50003
2.50001
2.5
2.5
2.5
2.5
3.12985
3.16839
3.21226
3.21726
3.14674
2.97357
2.69402
2.35918
2.06561
1.8819
1.8217
1.88216
2.06677
2.36285
2.70204
2.98564
3.15845
3.21944
3.18993
3.09527
2.96136
2.81458
2.68001
2.57725
2.51502
2.48858
2.48434
2.48883
2.49414
2.49763
2.49932
2.49993
2.50007
2.50006
2.50002
2.5
2.49999
2.49999
2.49999
2.5
3.19684
3.22667
3.24587
3.20261
3.05349
2.76622
2.35918
1.94847
1.65748
1.50593
1.461
1.50618
1.6586
1.95238
2.36871
2.78062
3.06503
3.19853
3.21066
3.13724
3.01067
2.86134
2.71757
2.60236
2.52815
2.49316
2.48461
2.48782
2.49321
2.49709
2.49908
2.49984
2.50004
2.50004
2.50001
2.49999
2.49998
2.49998
2.49998
2.49998
3.24311
3.26507
3.26146
3.17214
2.94636
2.55484
2.06561
1.65748
1.42082
1.31436
1.28509
1.31456
1.42174
1.66095
2.07533
2.57062
2.95729
3.16191
3.21468
3.16232
3.04438
2.89525
2.74602
2.62228
2.53921
2.49748
2.48527
2.48722
2.49254
2.49667
2.49888
2.49977
2.50002
2.50003
2.5
2.49997
2.49996
2.49996
2.49996
2.49996
3.27
3.28642
3.26651
3.14345
2.86135
2.40124
1.8819
1.50593
1.31436
1.23566
1.2151
1.23584
1.31512
1.50893
1.89113
2.41741
2.8716
3.12866
3.21158
3.17484
3.06371
2.91565
2.76367
2.63501
2.54657
2.50056
2.48591
2.48697
2.4922
2.49649
2.49884
2.4998
2.50007
2.50007
2.50002
2.49997
2.49994
2.49992
2.49992
2.49991
3.27877
3.2932
3.26735
3.13184
2.82908
2.34598
1.8217
1.461
1.28509
1.2151
1.19717
1.21526
1.2858
1.46383
1.83065
2.36217
2.83903
3.11535
3.20946
3.1785
3.06994
2.92241
2.76962
2.63939
2.5492
2.50179
2.48635
2.48713
2.49236
2.49672
2.49913
2.50011
2.50036
2.50032
2.5002
2.50009
2.5
2.49993
2.49988
2.49986
3.26994
3.28636
3.26647
3.14344
2.86142
2.40141
1.88216
1.50618
1.31456
1.23584
1.21526
1.23601
1.31533
1.50918
1.89138
2.41758
2.87166
3.12864
3.21152
3.17475
3.06361
2.91557
2.76366
2.63514
2.5469
2.50112
2.4867
2.48795
2.49333
2.4977
2.50008
2.50101
2.50118
2.50104
2.5008
2.50054
2.5003
2.5001
2.49995
2.49987
3.24299
3.26497
3.26145
3.1723
2.94681
2.55571
2.06677
1.6586
1.42174
1.31512
1.2858
1.31533
1.42265
1.66207
2.07649
2.57146
2.95773
3.16205
3.21466
3.16221
3.04426
2.89522
2.74622
2.62288
2.54032
2.49915
2.48746
2.48984
2.49548
2.4998
2.50207
2.50289
2.50294
2.50264
2.50218
2.50167
2.50116
2.5007
2.50035
2.50016
3.19672
3.22667
3.24616
3.20341
3.05508
2.76889
2.36285
1.95238
1.66095
1.50893
1.46383
1.50918
1.66207
1.95628
2.37235
2.78323
3.06657
3.19933
3.21103
3.13739
3.0108
2.86173
2.71853
2.60416
2.53093
2.49692
2.48923
2.49308
2.49891
2.50303
2.50509
2.50577
2.50571
2.50529
2.50464
2.50385
2.50299
2.50217
2.50152
2.50115
3.13009
3.16896
3.21353
3.21958
3.15056
2.97938
2.70204
2.36871
2.07533
1.89113
1.83065
1.89138
2.07649
2.37235
2.70998
2.99135
3.16219
3.22182
3.19147
3.09641
2.96254
2.81631
2.68279
2.58139
2.52056
2.49534
2.49199
2.49699
2.50253
2.50608
2.50777
2.50837
2.50844
2.50823
2.50775
2.50699
2.50599
2.50492
2.504
2.50347
3.04333
3.09072
3.15835
3.20764
3.20646
3.13431
2.98564
2.78062
2.57062
2.41741
2.36217
2.41758
2.57146
2.78323
2.99135
3.14364
3.21778
3.2153
3.14905
3.03696
2.90017
2.76147
2.64217
2.55724
2.51052
2.49396
2.49376
2.49848
2.50253
2.50474
2.50579
2.50653
2.50739
2.50836
2.50918
2.50958
2.50944
2.50887
2.50818
2.50772
2.93921
2.99348
3.07906
3.16129
3.21063
3.21072
3.15845
3.06503
2.95729
2.8716
2.83903
2.87166
2.95773
3.06657
3.16219
3.21778
3.22132
3.17299
3.08113
2.95971
2.82661
2.70113
2.60017
2.53347
2.49996
2.4893
2.4889
2.49032
2.49059
2.49003
2.48996
2.49131
2.49432
2.49854
2.50318
2.50738
2.51056
2.51254
2.51352
2.51387
2.82402
2.88231
2.97855
3.08117
3.16303
3.20992
3.21944
3.19853
3.16191
3.12866
3.11535
3.12864
3.16205
3.19933
3.22182
3.2153
3.17299
3.09558
2.99016
2.86887
2.74696
2.63983
2.55925
2.50915
2.48412
2.47319
2.46664
2.4599
2.45287
2.44745
2.44557
2.44827
2.45553
2.46637
2.47916
2.492
2.50326
2.51189
2.51753
2.52027
2.70796
2.76616
2.86416
2.97399
3.07178
3.14478
3.18993
3.21066
3.21468
3.21158
3.20946
3.21152
3.21466
3.21103
3.19147
3.14905
3.08113
2.99016
2.88343
2.77179
2.6675
2.58131
2.51905
2.47902
2.45323
2.43265
2.41226
2.39199
2.37451
2.36274
2.35866
2.36319
2.37628
2.39688
2.42281
2.45085
2.4774
2.49934
2.51467
2.52247
2.6041
2.657
2.74711
2.85148
2.95058
3.0332
3.09527
3.13724
3.16232
3.17484
3.1785
3.17475
3.16221
3.13739
3.09641
3.03696
2.95971
2.86887
2.77179
2.67738
2.59395
2.52658
2.47492
2.43331
2.39465
2.35542
2.31725
2.28427
2.2598
2.24513
2.24031
2.24538
2.26099
2.28799
2.32607
2.37227
2.42065
2.46388
2.49572
2.51241
2.52513
2.56745
2.64081
2.72883
2.81711
2.89625
2.96136
3.01067
3.04438
3.06371
3.06994
3.06361
3.04426
3.0108
2.96254
2.90017
2.82661
2.74696
2.6675
2.59395
2.52939
2.47264
2.41861
2.36209
2.30303
2.24782
2.2042
2.17552
2.15989
2.15301
2.15121
2.15323
2.16088
2.17857
2.21163
2.26271
2.32767
2.39461
2.4486
2.47827
2.47827
2.50674
2.55773
2.6221
2.69082
2.75667
2.81458
2.86134
2.89525
2.91565
2.92241
2.91557
2.89522
2.86173
2.81631
2.76147
2.70113
2.63983
2.58131
2.52658
2.47264
2.4132
2.34349
2.26744
2.19926
2.15339
2.13367
2.13345
2.14235
2.1514
2.15508
2.15167
2.14332
2.13612
2.13975
2.16516
2.21844
2.29214
2.36362
2.40698
2.4615
2.47655
2.50508
2.54403
2.58922
2.63601
2.68001
2.71757
2.74602
2.76367
2.76962
2.76366
2.74622
2.71853
2.68279
2.64217
2.60017
2.55925
2.51905
2.47492
2.41861
2.34349
2.25505
2.1758
2.1303
2.12495
2.14831
2.18373
2.21754
2.24091
2.24924
2.24123
2.21851
2.18607
2.15298
2.13264
2.14017
2.18289
2.24583
2.29261
2.46471
2.4701
2.4815
2.49928
2.52269
2.54966
2.57725
2.60236
2.62228
2.63501
2.63939
2.63514
2.62288
2.60416
2.58139
2.55724
2.53347
2.50915
2.47902
2.43331
2.36209
2.26744
2.1758
2.12434
2.12759
2.17177
2.23399
2.29578
2.34565
2.37746
2.38842
2.3778
2.34661
2.29786
2.23749
2.17556
2.12714
2.109
2.1254
2.15131
2.47589
2.47628
2.47805
2.48256
2.49059
2.50186
2.51502
2.52815
2.53921
2.54657
2.5492
2.5469
2.54032
2.53093
2.52056
2.51052
2.49996
2.48412
2.45323
2.39465
2.30303
2.19926
2.1303
2.12759
2.18192
2.26497
2.35209
2.42823
2.48571
2.52112
2.53312
2.52145
2.48664
2.43014
2.35481
2.2659
2.17295
2.09202
2.04134
2.02365
2.48681
2.48556
2.48376
2.48249
2.4827
2.48482
2.48858
2.49316
2.49748
2.50056
2.50179
2.50112
2.49915
2.49692
2.49534
2.49396
2.4893
2.47319
2.43265
2.35542
2.24782
2.15339
2.12495
2.17177
2.26497
2.37207
2.47199
2.55417
2.61422
2.65057
2.66279
2.65088
2.6151
2.55597
2.47428
2.37128
2.2502
2.12157
2.0096
1.94488
2.49424
2.49298
2.49083
2.48836
2.4862
2.48482
2.48434
2.48461
2.48527
2.48591
2.48635
2.4867
2.48746
2.48923
2.49199
2.49376
2.4889
2.46664
2.41226
2.31725
2.2042
2.13367
2.14831
2.23399
2.35209
2.47199
2.57731
2.66125
2.72156
2.75777
2.76989
2.75806
2.7224
2.66296
2.57939
2.47031
2.33389
2.17467
2.01885
1.9184
2.49819
2.49739
2.49592
2.49404
2.49207
2.49027
2.48883
2.48782
2.48722
2.48697
2.48713
2.48795
2.48984
2.49308
2.49699
2.49848
2.49032
2.4599
2.39199
2.28427
2.17552
2.13345
2.18373
2.29578
2.42823
2.55417
2.66125
2.74517
2.80498
2.84075
2.8527
2.84102
2.80577
2.74681
2.66321
2.55208
2.4082
2.23135
2.04832
1.92555
2.49982
2.49942
2.49867
2.49764
2.49646
2.49525
2.49414
2.49321
2.49254
2.4922
2.49236
2.49333
2.49548
2.49891
2.50253
2.50253
2.49059
2.45287
2.37451
2.2598
2.15989
2.14235
2.21754
2.34565
2.48571
2.61422
2.72156
2.80498
2.86421
2.89956
2.91136
2.89981
2.86496
2.80657
2.72346
2.61195
2.4648
2.27862
2.08034
1.94522
2.50027
2.50012
2.49981
2.49937
2.49883
2.49823
2.49763
2.49709
2.49667
2.49649
2.49672
2.4977
2.4998
2.50303
2.50608
2.50474
2.49003
2.44745
2.36274
2.24513
2.15301
2.1514
2.24091
2.37746
2.52112
2.65057
2.75777
2.84075
2.89956
2.93464
2.94635
2.93489
2.90029
2.8423
2.75964
2.64823
2.49983
2.30928
2.10352
1.96245
2.50027
2.50022
2.50013
2.49999
2.4998
2.49957
2.49932
2.49908
2.49888
2.49884
2.49913
2.50008
2.50207
2.50509
2.50777
2.50579
2.48996
2.44557
2.35866
2.24031
2.15121
2.15508
2.24924
2.38842
2.53312
2.66279
2.76989
2.8527
2.91136
2.94635
2.95803
2.94659
2.91209
2.85425
2.77175
2.66044
2.51173
2.31993
2.11195
1.96913
2.50016
2.50016
2.50015
2.50012
2.50008
2.50002
2.49993
2.49984
2.49977
2.4998
2.50011
2.50101
2.50289
2.50577
2.50837
2.50653
2.49131
2.44827
2.36319
2.24538
2.15323
2.15167
2.24123
2.3778
2.52145
2.65088
2.75806
2.84102
2.89981
2.93489
2.94659
2.93513
2.90055
2.84257
2.75993
2.64855
2.50019
2.30967
2.10392
1.96286
2.50007
2.50008
2.50009
2.5001
2.5001
2.50009
2.50007
2.50004
2.50002
2.50007
2.50036
2.50118
2.50294
2.50571
2.50844
2.50739
2.49432
2.45553
2.37628
2.26099
2.16088
2.14332
2.21851
2.34661
2.48664
2.6151
2.7224
2.80577
2.86496
2.90029
2.91209
2.90055
2.86571
2.80736
2.7243
2.61285
2.4658
2.2797
2.08148
1.94639
2.50003
2.50003
2.50004
2.50005
2.50006
2.50006
2.50006
2.50004
2.50003
2.50007
2.50032
2.50104
2.50264
2.50529
2.50823
2.50836
2.49854
2.46637
2.39688
2.28799
2.17857
2.13612
2.18607
2.29786
2.43014
2.55597
2.66296
2.74681
2.80657
2.8423
2.85425
2.84257
2.80736
2.74845
2.66493
2.55392
2.41024
2.23364
2.05087
1.92825
2.50001
2.50001
2.50001
2.50002
2.50002
2.50003
2.50002
2.50001
2.5
2.50002
2.5002
2.5008
2.50218
2.50464
2.50775
2.50918
2.50318
2.47916
2.42281
2.32607
2.21163
2.13975
2.15298
2.23749
2.35481
2.47428
2.57939
2.66321
2.72346
2.75964
2.77175
2.75993
2.7243
2.66493
2.58151
2.4727
2.33682
2.17844
2.02363
1.92389
2.5
2.5
2.5
2.50001
2.50001
2.50001
2.5
2.49999
2.49997
2.49997
2.50009
2.50054
2.50167
2.50385
2.50699
2.50958
2.50738
2.492
2.45085
2.37227
2.26271
2.16516
2.13264
2.17556
2.2659
2.37128
2.47031
2.55208
2.61195
2.64823
2.66044
2.64855
2.61285
2.55392
2.4727
2.37068
2.25142
2.12567
2.0171
1.95482
2.5
2.5
2.5
2.5
2.5
2.5
2.49999
2.49998
2.49996
2.49994
2.5
2.5003
2.50116
2.50299
2.50599
2.50944
2.51056
2.50326
2.4774
2.42065
2.32767
2.21844
2.14017
2.12714
2.17295
2.2502
2.33389
2.4082
2.4648
2.49983
2.51173
2.50019
2.4658
2.41024
2.33682
2.25142
2.16435
2.09184
2.05052
2.03931
2.5
2.5
2.5
2.5
2.5
2.5
2.49999
2.49998
2.49996
2.49992
2.49993
2.5001
2.5007
2.50217
2.50492
2.50887
2.51254
2.51189
2.49934
2.46388
2.39461
2.29214
2.18289
2.109
2.09202
2.12157
2.17467
2.23135
2.27862
2.30928
2.31993
2.30967
2.2797
2.23364
2.17844
2.12567
2.09184
2.09355
2.13068
2.16997
2.5
2.5
2.5
2.5
2.5
2.5
2.49999
2.49998
2.49996
2.49992
2.49988
2.49995
2.50035
2.50152
2.504
2.50818
2.51352
2.51753
2.51467
2.49572
2.4486
2.36362
2.24583
2.1254
2.04134
2.0096
2.01885
2.04832
2.08034
2.10352
2.11195
2.10392
2.08148
2.05087
2.02363
2.0171
2.05052
2.13068
2.23172
2.30168
2.5
2.5
2.5
2.5
2.5
2.5
2.5
2.49998
2.49996
2.49991
2.49986
2.49987
2.50016
2.50115
2.50347
2.50772
2.51387
2.52027
2.52247
2.51241
2.47827
2.40698
2.29261
2.15131
2.02365
1.94488
1.9184
1.92555
1.94522
1.96245
1.96913
1.96286
1.94639
1.92825
1.92389
1.95482
2.03931
2.16997
2.30168
2.38139
