# vtk DataFile Version 3.0
Brusselator Concentration Output
ASCII
DATASET STRUCTURED_POINTS
DIMENSIONS 40 40 1
ORIGIN 0.0 0.0 0.0
SPACING 0.005 0.005 1.0
POINT_DATA 1600
SCALARS C1 double 1
LOOKUP_TABLE default
0.767705
0.77986
0.803329
0.838304
0.887561
0.955016
1.04166
1.14101
1.2369
1.30723
1.33304
1.3069
1.23595
1.13897
1.03832
0.951187
0.886193
0.845546
0.828372
0.832412
0.854006
0.887441
0.924996
0.958622
0.982801
0.996406
1.0019
1.00289
1.00215
1.0012
1.00052
1.00017
1.00003
0.99999
0.999987
0.999992
0.999996
0.999999
1
1
0.77986
0.800935
0.842989
0.907532
0.999579
1.12537
1.2833
1.45414
1.60426
1.7036
1.73765
1.70312
1.6029
1.45133
1.27904
1.12141
1.00032
0.919997
0.875434
0.859904
0.867028
0.890087
0.921296
0.952475
0.97716
0.992627
0.99996
1.00214
1.00199
1.00123
1.00059
1.00022
1.00005
0.999999
0.999989
0.999992
0.999996
0.999999
1
1
0.803329
0.842989
0.926578
1.06313
1.26251
1.51457
1.76466
1.94427
2.03638
2.07085
2.07853
2.07054
2.03557
1.94246
1.76159
1.51285
1.2698
1.08848
0.97559
0.915598
0.89304
0.896369
0.915878
0.942291
0.96737
0.985798
0.996299
1.00067
1.00162
1.00127
1.0007
1.0003
1.0001
1.00002
0.999995
0.999993
0.999996
0.999999
1
1
0.838304
0.907532
1.06313
1.32726
1.66641
1.93645
2.0389
2.02745
1.98119
1.94249
1.92815
1.94246
1.9813
2.02822
2.0413
1.94272
1.68577
1.37463
1.1399
1.00189
0.932827
0.908231
0.911849
0.931256
0.955749
0.977134
0.991351
0.998518
1.001
1.00125
1.00083
1.00041
1.00015
1.00004
1
0.999995
0.999997
0.999999
1
1
0.887561
0.999579
1.26251
1.66641
1.97684
2.03281
1.95384
1.84871
1.76108
1.70568
1.68691
1.70574
1.76149
1.85033
1.95862
2.04405
2.00238
1.73159
1.37454
1.12327
0.988436
0.927945
0.912089
0.922273
0.944562
0.967974
0.985687
0.995842
1.0001
1.00113
1.00093
1.00051
1.00022
1.00007
1.00001
0.999998
0.999998
1
1
1
0.955016
1.12537
1.51457
1.93645
2.03281
1.92564
1.77996
1.65199
1.55779
1.50114
1.48232
1.50123
1.55827
1.65378
1.78508
1.93718
2.05484
1.99154
1.64883
1.28125
1.06164
0.9568
0.918099
0.917034
0.935377
0.959453
0.97992
0.99287
0.998982
1.0009
1.00099
1.00061
1.00028
1.0001
1.00002
1
0.999999
1
1
1
1.04166
1.2833
1.76466
2.0389
1.95384
1.77996
1.6168
1.48719
1.39553
1.34142
1.32358
1.34152
1.39603
1.48896
1.62173
1.79057
1.97094
2.06896
1.88088
1.46221
1.15032
0.993748
0.929479
0.915777
0.928854
0.952311
0.974601
0.989891
0.997735
1.00056
1.00098
1.00067
1.00032
1.00012
1.00003
0.999998
0.999996
1
1
1.00001
1.14101
1.45414
1.94427
2.02745
1.84871
1.65199
1.48719
1.36148
1.27423
1.2232
1.20646
1.22331
1.27473
1.3632
1.49184
1.66159
1.862
2.03864
2.0111
1.63322
1.24507
1.03463
0.944049
0.917544
0.92487
0.946871
0.970138
0.98719
0.996496
1.00014
1.00091
1.00068
1.00033
1.0001
1
0.999976
0.999979
0.999989
0.999998
1
1.2369
1.60426
2.03638
1.98119
1.76108
1.55779
1.39553
1.27423
1.1909
1.14244
1.12659
1.14255
1.19139
1.27589
1.39995
1.56662
1.77185
1.98163
2.05656
1.76135
1.32991
1.07253
0.95842
0.920679
0.922803
0.943127
0.966772
0.985005
0.9954
0.999706
1.00075
1.00061
1.00026
1.00003
0.999928
0.999909
0.999925
0.999948
0.999968
0.999979
1.30723
1.7036
2.07085
1.94249
1.70568
1.50114
1.34142
1.2232
1.14244
1.09564
1.08034
1.09574
1.14293
1.22482
1.34568
1.5095
1.71502
1.93757
2.0632
1.83471
1.38821
1.09948
0.968902
0.92339
0.921879
0.940899
0.964616
0.98351
0.99457
0.999297
1.00053
1.00044
1.00011
0.99987
0.999775
0.999767
0.9998
0.999843
0.999878
0.999898
1.33304
1.73765
2.07853
1.92815
1.68691
1.48232
1.32358
1.20646
1.12659
1.08034
1.06524
1.08045
1.12707
1.20806
1.3278
1.49052
1.69579
1.92159
2.06207
1.85769
1.40873
1.10911
0.972609
0.924307
0.921488
0.940025
0.96375
0.982871
0.994171
0.999056
1.00036
1.00029
0.999938
0.999684
0.99957
0.999552
0.999584
0.999632
0.999677
0.999703
1.3069
1.70312
2.07054
1.94246
1.70574
1.50123
1.34152
1.22331
1.14255
1.09574
1.08045
1.09585
1.14303
1.22493
1.34578
1.50959
1.71507
1.93752
2.06293
1.83412
1.38761
1.09895
0.968418
0.92293
0.921463
0.940561
0.964386
0.983397
0.994561
0.99936
1.00062
1.0005
1.00008
0.999739
0.999522
0.999401
0.999345
0.999327
0.99933
0.999336
1.23595
1.6029
2.03557
1.9813
1.76149
1.55827
1.39603
1.27473
1.19139
1.14293
1.12707
1.14303
1.19188
1.27639
1.40045
1.5671
1.77224
1.98174
2.05592
1.75979
1.32839
1.07131
0.95742
0.919892
0.922302
0.943006
0.967091
0.985761
0.99652
1.00106
1.00219
1.00195
1.00136
1.00076
1.00023
0.999771
0.999395
0.99911
0.998922
0.998829
1.13897
1.45133
1.94246
2.02822
1.85033
1.65378
1.48896
1.3632
1.27589
1.22482
1.20806
1.22493
1.27639
1.36491
1.49361
1.66337
1.8636
2.03948
2.0098
1.63005
1.24226
1.0326
0.942717
0.916995
0.925301
0.948476
0.972992
0.991207
1.00144
1.00568
1.00664
1.0062
1.00525
1.00411
1.00289
1.00166
1.00051
0.999542
0.998845
0.998482
1.03832
1.27904
1.76159
2.0413
1.95862
1.78508
1.62173
1.49184
1.39995
1.34568
1.3278
1.34578
1.40045
1.49361
1.62664
1.79564
1.97567
2.07159
1.87857
1.4574
1.14643
0.991345
0.928716
0.91701
0.932517
0.958701
0.983724
1.00143
1.01113
1.01509
1.0159
1.01519
1.0137
1.0117
1.00931
1.00669
1.00409
1.00178
1.00006
0.999133
0.951187
1.12141
1.51285
1.94272
2.04405
1.93718
1.79057
1.66159
1.56662
1.5095
1.49052
1.50959
1.5671
1.66337
1.79564
1.94864
2.06596
1.99806
1.64761
1.2772
1.05849
0.955842
0.920247
0.923216
0.946334
0.975454
1.00064
1.01748
1.02639
1.02995
1.03057
1.02965
1.02771
1.02486
1.02112
1.0167
1.012
1.00764
1.00426
1.00241
0.886193
1.00032
1.2698
1.68577
2.00238
2.05484
1.97094
1.862
1.77185
1.71502
1.69579
1.71507
1.77224
1.8636
1.97567
2.06596
2.02751
1.75091
1.38293
1.12594
0.990486
0.932571
0.921628
0.938435
0.968163
0.998713
1.0223
1.03659
1.04331
1.04552
1.04565
1.04491
1.04351
1.04112
1.03731
1.03199
1.02559
1.0191
1.01378
1.01078
0.845546
0.919997
1.08848
1.37463
1.73159
1.99154
2.06896
2.03864
1.98163
1.93757
1.92159
1.93752
1.98174
2.03948
2.07159
1.99806
1.75091
1.42334
1.16888
1.0199
0.947705
0.925547
0.935415
0.963021
0.995489
1.0227
1.03966
1.04677
1.04759
1.04607
1.04492
1.04528
1.04695
1.04882
1.04944
1.0476
1.04303
1.03675
1.0307
1.02701
0.828372
0.875434
0.97559
1.1399
1.37454
1.64883
1.88088
2.0111
2.05656
2.0632
2.06207
2.06293
2.05592
2.0098
1.87857
1.64761
1.38293
1.16888
1.03148
0.957959
0.930707
0.935652
0.960153
0.991314
1.0175
1.03168
1.03318
1.02614
1.01627
1.00829
1.00502
1.00746
1.01515
1.02642
1.0387
1.04903
1.0551
1.05636
1.05449
1.05244
0.832412
0.859904
0.915598
1.00189
1.12327
1.28125
1.46221
1.63322
1.76135
1.83471
1.85769
1.83412
1.75979
1.63005
1.4574
1.2772
1.12594
1.0199
0.957959
0.932993
0.936663
0.958936
0.987244
1.0087
1.01488
1.00483
0.983848
0.959441
0.938042
0.923737
0.918523
0.923003
0.93684
0.958826
0.986648
1.01668
1.04432
1.06533
1.07789
1.08316
0.854006
0.867028
0.89304
0.932827
0.988436
1.06164
1.15032
1.24507
1.32991
1.38821
1.40873
1.38761
1.32839
1.24226
1.14643
1.05849
0.990486
0.947705
0.930707
0.936663
0.958634
0.984698
1.00065
0.996734
0.972556
0.935378
0.894794
0.858504
0.830966
0.814037
0.808194
0.813491
0.830004
0.857795
0.896433
0.944084
0.996396
1.04608
1.08455
1.1052
0.887441
0.890087
0.896369
0.908231
0.927945
0.9568
0.993748
1.03463
1.07253
1.09948
1.10911
1.09895
1.07131
1.0326
0.991345
0.955842
0.932571
0.925547
0.935652
0.958936
0.984698
0.997418
0.985295
0.94817
0.89591
0.840798
0.791905
0.753687
0.727183
0.711797
0.706676
0.711462
0.726606
0.753374
0.7935
0.848202
0.916141
0.990425
1.05675
1.09663
0.924996
0.921296
0.915878
0.911849
0.912089
0.918099
0.929479
0.944049
0.95842
0.968902
0.972609
0.968418
0.95742
0.942717
0.928716
0.920247
0.921628
0.935415
0.960153
0.987244
1.00065
0.985295
0.939236
0.874455
0.806777
0.747497
0.701456
0.668873
0.647872
0.636276
0.632532
0.636105
0.647644
0.669062
0.703481
0.754596
0.824509
0.908945
0.991431
1.04433
0.958622
0.952475
0.942291
0.931256
0.922273
0.917034
0.915777
0.917544
0.920679
0.92339
0.924307
0.92293
0.919892
0.916995
0.91701
0.923216
0.938435
0.963021
0.991314
1.0087
0.996734
0.94817
0.874455
0.795339
0.725958
0.672736
0.635623
0.611637
0.597312
0.589852
0.587528
0.589786
0.59732
0.612211
0.638067
0.679779
0.741623
0.821742
0.904018
0.958152
0.982801
0.97716
0.96737
0.955749
0.944562
0.935377
0.928854
0.92487
0.922803
0.921879
0.921488
0.921463
0.922302
0.925301
0.932517
0.946334
0.968163
0.995489
1.0175
1.01488
0.972556
0.89591
0.806777
0.725958
0.663713
0.620988
0.59415
0.578567
0.570259
0.566378
0.565254
0.566371
0.570406
0.579371
0.596832
0.627846
0.677358
0.744711
0.815323
0.861734
0.996406
0.992627
0.985798
0.977134
0.967974
0.959453
0.952311
0.946871
0.943127
0.940899
0.940025
0.940561
0.943006
0.948476
0.958701
0.975454
0.998713
1.0227
1.03168
1.00483
0.935378
0.840798
0.747497
0.672736
0.620988
0.589046
0.57136
0.562765
0.559306
0.558273
0.558097
0.5583
0.559531
0.563693
0.574125
0.59555
0.632613
0.684829
0.739563
0.774896
1.0019
0.99996
0.996299
0.991351
0.985687
0.97992
0.974601
0.970138
0.966772
0.964616
0.96375
0.964386
0.967091
0.972992
0.983724
1.00064
1.0223
1.03966
1.03318
0.983848
0.894794
0.791905
0.701456
0.635623
0.59415
0.57136
0.560955
0.557788
0.558085
0.55927
0.559835
0.559317
0.558357
0.558785
0.563723
0.577439
0.603903
0.642317
0.681993
0.706847
1.00289
1.00214
1.00067
0.998518
0.995842
0.99287
0.989891
0.98719
0.985005
0.98351
0.982871
0.983397
0.985761
0.991207
1.00143
1.01748
1.03659
1.04677
1.02614
0.959441
0.858504
0.753687
0.668873
0.611637
0.578567
0.562765
0.557788
0.558672
0.561811
0.564701
0.56584
0.564761
0.562114
0.559712
0.560534
0.56845
0.586756
0.614254
0.641958
0.65862
1.00215
1.00199
1.00162
1.001
1.0001
0.998982
0.997735
0.996496
0.9954
0.99457
0.994171
0.994561
0.99652
1.00144
1.01113
1.02639
1.04331
1.04759
1.01627
0.938042
0.830966
0.727183
0.647872
0.597312
0.570259
0.559306
0.558085
0.561811
0.566985
0.571117
0.572677
0.571186
0.56731
0.562881
0.560809
0.564687
0.57729
0.597119
0.616482
0.627551
1.0012
1.00123
1.00127
1.00125
1.00113
1.0009
1.00056
1.00014
0.999706
0.999297
0.999056
0.99936
1.00106
1.00568
1.01509
1.02995
1.04552
1.04607
1.00829
0.923737
0.814037
0.711797
0.636276
0.589852
0.566378
0.558273
0.55927
0.564701
0.571117
0.576018
0.577842
0.576092
0.571455
0.565791
0.561982
0.563465
0.572703
0.588022
0.602539
0.61041
1.00052
1.00059
1.0007
1.00083
1.00093
1.00099
1.00098
1.00091
1.00075
1.00053
1.00036
1.00062
1.00219
1.00664
1.0159
1.03057
1.04565
1.04492
1.00502
0.918523
0.808194
0.706676
0.632532
0.587528
0.565254
0.558097
0.559835
0.56584
0.572677
0.577842
0.579756
0.577917
0.57302
0.566935
0.562541
0.563224
0.571341
0.585162
0.598083
0.604912
1.00017
1.00022
1.0003
1.00041
1.00051
1.00061
1.00067
1.00068
1.00061
1.00044
1.00029
1.0005
1.00195
1.0062
1.01519
1.02965
1.04491
1.04528
1.00746
0.923003
0.813491
0.711462
0.636105
0.589786
0.566371
0.5583
0.559317
0.564761
0.571186
0.576092
0.577917
0.576166
0.571523
0.565849
0.562026
0.563488
0.572693
0.587967
0.602436
0.610277
1.00003
1.00005
1.0001
1.00015
1.00022
1.00028
1.00032
1.00033
1.00026
1.00011
0.999938
1.00008
1.00136
1.00525
1.0137
1.02771
1.04351
1.04695
1.01515
0.93684
0.830004
0.726606
0.647644
0.59732
0.570406
0.559531
0.558357
0.562114
0.56731
0.571455
0.57302
0.571523
0.567634
0.563183
0.56108
0.564913
0.577449
0.59718
0.616436
0.627432
0.99999
0.999999
1.00002
1.00004
1.00007
1.0001
1.00012
1.0001
1.00003
0.99987
0.999684
0.999739
1.00076
1.00411
1.0117
1.02486
1.04112
1.04882
1.02642
0.958826
0.857795
0.753374
0.669062
0.612211
0.579371
0.563693
0.558785
0.559712
0.562881
0.565791
0.566935
0.565849
0.563183
0.560753
0.561541
0.569413
0.587642
0.615008
0.642548
0.659092
0.999987
0.999989
0.999995
1
1.00001
1.00002
1.00003
1
0.999928
0.999775
0.99957
0.999522
1.00023
1.00289
1.00931
1.02112
1.03731
1.04944
1.0387
0.986648
0.896433
0.7935
0.703481
0.638067
0.596832
0.574125
0.563723
0.560534
0.560809
0.561982
0.562541
0.562026
0.56108
0.561541
0.56654
0.580336
0.606863
0.645261
0.684839
0.7096
0.999992
0.999992
0.999993
0.999995
0.999998
1
0.999998
0.999976
0.999909
0.999767
0.999552
0.999401
0.999771
1.00166
1.00669
1.0167
1.03199
1.0476
1.04903
1.01668
0.944084
0.848202
0.754596
0.679779
0.627846
0.59555
0.577439
0.56845
0.564687
0.563465
0.563224
0.563488
0.564913
0.569413
0.580336
0.602396
0.640168
0.693029
0.748229
0.783809
0.999996
0.999996
0.999996
0.999997
0.999998
0.999999
0.999996
0.999979
0.999925
0.9998
0.999584
0.999345
0.999395
1.00051
1.00409
1.012
1.02559
1.04303
1.0551
1.04432
0.996396
0.916141
0.824509
0.741623
0.677358
0.632613
0.603903
0.586756
0.57729
0.572703
0.571341
0.572693
0.577449
0.587642
0.606863
0.640168
0.692392
0.762584
0.835679
0.883604
0.999999
0.999999
0.999999
0.999999
1
1
1
0.999989
0.999948
0.999843
0.999632
0.999327
0.99911
0.999542
1.00178
1.00764
1.0191
1.03675
1.05636
1.06533
1.04608
0.990425
0.908945
0.821742
0.744711
0.684829
0.642317
0.614254
0.597119
0.588022
0.585162
0.587967
0.59718
0.615008
0.645261
0.693029
0.762584
0.851448
0.941876
1.00111
1
1
1
1
1
1
1
0.999998
0.999968
0.999878
0.999677
0.99933
0.998922
0.998845
1.00006
1.00426
1.01378
1.0307
1.05449
1.07789
1.08455
1.05675
0.991431
0.904018
0.815323
0.739563
0.681993
0.641958
0.616482
0.602539
0.598083
0.602436
0.616436
0.642548
0.684839
0.748229
0.835679
0.941876
1.04576
1.11229
1
1
1
1
1
1
1.00001
1
0.999979
0.999898
0.999703
0.999336
0.998829
0.998482
0.999133
1.00241
1.01078
1.02701
1.05244
1.08316
1.1052
1.09663
1.04433
0.958152
0.861734
0.774896
0.706847
0.65862
0.627551
0.61041
0.604912
0.610277
0.627432
0.659092
0.7096
0.783809
0.883604
1.00111
1.11229
1.18153
SCALARS C2 double 1
LOOKUP_TABLE default
2.84669
2.88543
2.94991
3.01825
3.06782
3.08244
3.05595
2.99448
2.91774
2.85435
2.82989
2.85463
2.91869
2.99681
3.06048
3.08966
3.07695
3.02511
2.94322
2.84374
2.74051
2.64684
2.5731
2.52432
2.49893
2.49032
2.49058
2.49374
2.49674
2.49865
2.4996
2.49996
2.50005
2.50005
2.50003
2.50001
2.5
2.5
2.5
2.5
2.88543
2.91053
2.94795
2.97544
2.96778
2.90411
2.7774
2.60611
2.43462
2.31162
2.2677
2.31214
2.43623
2.60982
2.78391
2.91277
2.97566
2.97591
2.92821
2.85008
2.75859
2.66907
2.59372
2.53981
2.50836
2.49483
2.4921
2.49391
2.49651
2.49841
2.49945
2.49989
2.50002
2.50004
2.50003
2.50001
2.5
2.5
2.5
2.5
2.94991
2.94795
2.92599
2.85225
2.69062
2.426
2.10523
1.82291
1.63561
1.53844
1.50934
1.53889
1.63705
1.82666
2.11265
2.43483
2.69251
2.83563
2.87753
2.85122
2.78649
2.70671
2.62966
2.56746
2.52572
2.50349
2.49525
2.49442
2.49616
2.498
2.49918
2.49976
2.49998
2.50003
2.50002
2.50001
2.50001
2.5
2.5
2.5
3.01825
2.97544
2.85225
2.58996
2.17798
1.75515
1.48022
1.35182
1.30333
1.2885
1.28564
1.28866
1.30377
1.35289
1.48258
1.75713
2.16583
2.54118
2.75624
2.82739
2.81029
2.74871
2.67259
2.60196
2.54845
2.51555
2.50006
2.49551
2.49589
2.4975
2.49883
2.49958
2.4999
2.50001
2.50002
2.50001
2.50001
2.5
2.5
2.5
3.06782
2.96778
2.69062
2.17798
1.65008
1.37154
1.28437
1.27704
1.29367
1.31023
1.3167
1.31027
1.2937
1.27686
1.28339
1.36731
1.62807
2.09503
2.53077
2.75638
2.815
2.78378
2.71416
2.63783
2.57358
2.52986
2.50636
2.49731
2.49585
2.49704
2.49846
2.49938
2.49982
2.49998
2.50001
2.50001
2.50001
2.5
2.5
2.5
3.08244
2.90411
2.426
1.75515
1.37154
1.27286
1.2833
1.32431
1.36565
1.39425
1.40434
1.39425
1.36553
1.32369
1.28121
1.26688
1.35117
1.66889
2.20834
2.62268
2.78962
2.80394
2.74833
2.6707
2.59836
2.54503
2.51368
2.49981
2.49615
2.4967
2.49811
2.49917
2.49972
2.49994
2.5
2.50001
2.5
2.5
2.49999
2.49999
3.05595
2.7774
2.10523
1.48022
1.28437
1.2833
1.33722
1.39978
1.45261
1.48701
1.49888
1.48699
1.45242
1.39896
1.33471
1.277
1.2679
1.41579
1.87403
2.43237
2.73162
2.80638
2.77218
2.69784
2.62058
2.5596
2.52128
2.50275
2.49677
2.49651
2.49782
2.49898
2.49963
2.49991
2.5
2.50001
2.5
2.49999
2.49999
2.49999
2.99448
2.60611
1.82291
1.35182
1.27704
1.32431
1.39978
1.47357
1.53263
1.57024
1.58311
1.57022
1.53241
1.47266
1.39708
1.318
1.26339
1.30801
1.62495
2.22296
2.65029
2.79389
2.78584
2.71811
2.63873
2.57229
2.52835
2.50575
2.49759
2.4965
2.49765
2.49886
2.49959
2.49991
2.50001
2.50002
2.50001
2.49999
2.49998
2.49998
2.91774
2.43462
1.63561
1.30333
1.29367
1.36565
1.45261
1.53263
1.59523
1.63468
1.64812
1.63465
1.59499
1.53167
1.44982
1.35938
1.28171
1.27221
1.48129
2.04545
2.56602
2.77401
2.79171
2.73166
2.65201
2.58208
2.53411
2.50841
2.49848
2.49667
2.49765
2.49888
2.49966
2.5
2.5001
2.50009
2.50005
2.50002
2.49999
2.49998
2.85435
2.31162
1.53844
1.2885
1.31023
1.39425
1.48701
1.57024
1.63468
1.67509
1.68883
1.67506
1.63444
1.56926
1.48417
1.38802
1.29916
1.26385
1.41356
1.93309
2.50312
2.75653
2.79327
2.73929
2.66013
2.58837
2.53803
2.5104
2.49934
2.49706
2.49791
2.49914
2.49994
2.50027
2.50034
2.50029
2.50021
2.50013
2.50007
2.50003
2.82989
2.2677
1.50934
1.28564
1.3167
1.40434
1.49888
1.58311
1.64812
1.68883
1.70266
1.68879
1.64787
1.58212
1.49603
1.39813
1.30591
1.26295
1.39427
1.89559
2.48009
2.74977
2.79356
2.74194
2.66311
2.59085
2.53978
2.51154
2.50012
2.49768
2.49849
2.49972
2.5005
2.50082
2.50085
2.50074
2.50058
2.50043
2.50031
2.50024
2.85463
2.31214
1.53889
1.28866
1.31027
1.39425
1.48699
1.57022
1.63465
1.67506
1.68879
1.67502
1.6344
1.56923
1.48415
1.38802
1.29921
1.26399
1.41394
1.93375
2.50376
2.75711
2.79391
2.74008
2.66108
2.58947
2.53923
2.51166
2.50062
2.49834
2.49918
2.50043
2.50123
2.50156
2.50159
2.50146
2.50127
2.50106
2.50088
2.50078
2.91869
2.43623
1.63705
1.30377
1.2937
1.36553
1.45242
1.53241
1.59499
1.63444
1.64787
1.6344
1.59476
1.53145
1.44963
1.35927
1.28174
1.2726
1.48251
2.0475
2.56785
2.77557
2.7933
2.73341
2.65394
2.58409
2.53606
2.5102
2.5001
2.49816
2.49909
2.50039
2.50131
2.50184
2.5021
2.50219
2.50216
2.50205
2.50193
2.50185
2.99681
2.60982
1.82666
1.35289
1.27686
1.32369
1.39896
1.47266
1.53167
1.56926
1.58212
1.56923
1.53145
1.47175
1.39628
1.31739
1.26321
1.30894
1.62829
2.22775
2.65424
2.7971
2.78877
2.72087
2.64115
2.57405
2.52921
2.50563
2.49659
2.49491
2.49586
2.4973
2.49863
2.49982
2.50089
2.50183
2.50256
2.50307
2.50336
2.50349
3.06048
2.78391
2.11265
1.48258
1.28339
1.28121
1.33471
1.39708
1.44982
1.48417
1.49603
1.48415
1.44963
1.39628
1.33223
1.27496
1.26698
1.41791
1.8813
2.44095
2.73844
2.81173
2.77637
2.70063
2.62132
2.5576
2.51617
2.49462
2.48617
2.48431
2.48507
2.48681
2.48908
2.49179
2.49479
2.49782
2.50059
2.50283
2.50438
2.50517
3.08966
2.91277
2.43483
1.75713
1.36731
1.26688
1.277
1.318
1.35938
1.38802
1.39813
1.38802
1.35927
1.31739
1.27496
1.26104
1.34722
1.67105
2.21801
2.63369
2.79886
2.81084
2.75216
2.67012
2.5918
2.53136
2.49266
2.47215
2.46329
2.46056
2.46088
2.46309
2.46691
2.47223
2.47871
2.48576
2.49263
2.49854
2.50284
2.50511
3.07695
2.97566
2.69251
2.16583
1.62807
1.35117
1.2679
1.26339
1.28171
1.29916
1.30591
1.29921
1.28174
1.26321
1.26698
1.34722
1.60701
2.08374
2.53286
2.76456
2.82352
2.78898
2.71264
2.62615
2.54901
2.49124
2.45435
2.43405
2.42433
2.42057
2.42037
2.42296
2.42835
2.43661
2.44752
2.46027
2.47351
2.48554
2.49466
2.49957
3.02511
2.97591
2.83563
2.54118
2.09503
1.66889
1.41579
1.30801
1.27221
1.26385
1.26295
1.26399
1.2726
1.30894
1.41791
1.67105
2.08374
2.49149
2.7362
2.82293
2.81003
2.74377
2.65522
2.56604
2.49081
2.43657
2.40302
2.38516
2.37701
2.3741
2.37406
2.37623
2.38104
2.38945
2.40222
2.41921
2.43887
2.45827
2.47386
2.48254
2.94322
2.92821
2.87753
2.75624
2.53077
2.20834
1.87403
1.62495
1.48129
1.41356
1.39427
1.41394
1.48251
1.62829
1.8813
2.21801
2.53286
2.7362
2.82089
2.81873
2.76192
2.67552
2.57974
2.49149
2.42296
2.37891
2.35669
2.34938
2.34971
2.35223
2.35392
2.35398
2.35338
2.35445
2.36006
2.3724
2.39148
2.41411
2.43456
2.44671
2.84374
2.85008
2.85122
2.82739
2.75638
2.62268
2.43237
2.22296
2.04545
1.93309
1.89559
1.93375
2.0475
2.22775
2.44095
2.63369
2.76456
2.82293
2.81873
2.76776
2.68575
2.58841
2.49282
2.41539
2.36653
2.34689
2.34916
2.36298
2.37914
2.39132
2.39613
2.39266
2.38218
2.36787
2.35439
2.3469
2.34912
2.36082
2.37652
2.38764
2.74051
2.75859
2.78649
2.81029
2.815
2.78962
2.73162
2.65029
2.56602
2.50312
2.48009
2.50376
2.56785
2.65424
2.73844
2.79886
2.82352
2.81003
2.76192
2.68575
2.59136
2.49387
2.41262
2.36378
2.35215
2.37052
2.40565
2.44464
2.47804
2.50011
2.50802
2.50106
2.48033
2.44864
2.4106
2.3724
2.34081
2.32095
2.3132
2.31233
2.64684
2.66907
2.70671
2.74871
2.78378
2.80394
2.80638
2.79389
2.77401
2.75653
2.74977
2.75711
2.77557
2.7971
2.81173
2.81084
2.78898
2.74377
2.67552
2.58841
2.49387
2.4121
2.3647
2.36179
2.39736
2.45581
2.52074
2.5799
2.62583
2.65461
2.66455
2.65526
2.62741
2.58272
2.52414
2.4562
2.38544
2.32066
2.27156
2.24548
2.5731
2.59372
2.62966
2.67259
2.71416
2.74833
2.77218
2.78584
2.79171
2.79327
2.79356
2.79391
2.7933
2.78877
2.77637
2.75216
2.71264
2.65522
2.57974
2.49282
2.41262
2.3647
2.36622
2.41479
2.49359
2.58284
2.66731
2.73787
2.79002
2.82182
2.83259
2.82227
2.79111
2.73969
2.66892
2.58035
2.47755
2.36958
2.27473
2.21789
2.52432
2.53981
2.56746
2.60196
2.63783
2.6707
2.69784
2.71811
2.73166
2.73929
2.74194
2.74008
2.73341
2.72087
2.70063
2.67012
2.62615
2.56604
2.49149
2.41539
2.36378
2.36179
2.41479
2.50739
2.61677
2.72401
2.81768
2.89237
2.94605
2.97827
2.98909
2.97862
2.94687
2.89357
2.818
2.71891
2.59604
2.45651
2.32495
2.24248
2.49893
2.50836
2.52572
2.54845
2.57358
2.59836
2.62058
2.63873
2.65201
2.66013
2.66311
2.66108
2.65394
2.64115
2.62132
2.5918
2.54901
2.49081
2.42296
2.36653
2.35215
2.39736
2.49359
2.61677
2.74345
2.85845
2.95445
3.02893
3.08157
3.11284
3.12328
3.11314
3.08224
3.02982
2.9541
2.85178
2.71932
2.56133
2.40656
2.30794
2.49032
2.49483
2.50349
2.51555
2.52986
2.54503
2.5596
2.57229
2.58208
2.58837
2.59085
2.58947
2.58409
2.57405
2.5576
2.53136
2.49124
2.43657
2.37891
2.34689
2.37052
2.45581
2.58284
2.72401
2.85845
2.97512
3.06989
3.14211
3.19254
3.22225
3.23212
3.22251
3.19313
3.14285
3.06926
2.96781
2.83265
2.66616
2.49941
2.39261
2.49058
2.4921
2.49525
2.50006
2.50636
2.51368
2.52128
2.52835
2.53411
2.53803
2.53978
2.53923
2.53606
2.52921
2.51617
2.49266
2.45435
2.40302
2.35669
2.34916
2.40565
2.52074
2.66731
2.81768
2.95445
3.06989
3.16196
3.23118
3.27901
3.30697
3.31622
3.3072
3.27952
3.23181
3.16122
3.06245
2.92825
2.7593
2.58763
2.47747
2.49374
2.49391
2.49442
2.49551
2.49731
2.49981
2.50275
2.50575
2.50841
2.5104
2.51154
2.51166
2.5102
2.50563
2.49462
2.47215
2.43405
2.38516
2.34938
2.36298
2.44464
2.5799
2.73787
2.89237
3.02893
3.14211
3.23118
3.2974
3.34271
3.36899
3.37765
3.3692
3.34316
3.29793
3.23037
3.13475
3.00297
2.83452
2.66158
2.55039
2.49674
2.49651
2.49616
2.49589
2.49585
2.49615
2.49677
2.49759
2.49848
2.49934
2.50012
2.50062
2.5001
2.49659
2.48617
2.46329
2.42433
2.37701
2.34971
2.37914
2.47804
2.62583
2.79002
2.94605
3.08157
3.19254
3.27901
3.34271
3.38592
3.41082
3.41898
3.411
3.38632
3.34316
3.27814
3.18528
3.05602
2.88908
2.71634
2.60504
2.49865
2.49841
2.498
2.4975
2.49704
2.4967
2.49651
2.4965
2.49667
2.49706
2.49768
2.49834
2.49816
2.49491
2.48431
2.46056
2.42057
2.3741
2.35223
2.39132
2.50011
2.65461
2.82182
2.97827
3.11284
3.22225
3.30697
3.36899
3.41082
3.43479
3.44262
3.43496
3.41119
3.36939
3.30606
3.21506
3.08763
2.922
2.74977
2.63859
2.4996
2.49945
2.49918
2.49883
2.49846
2.49811
2.49782
2.49765
2.49765
2.49791
2.49849
2.49918
2.49909
2.49586
2.48507
2.46088
2.42037
2.37406
2.35392
2.39613
2.50802
2.66455
2.83259
2.98909
3.12328
3.23212
3.31622
3.37765
3.41898
3.44262
3.45034
3.44279
3.41934
3.37803
3.31529
3.22496
3.0982
2.93309
2.76111
2.65
2.49996
2.49989
2.49976
2.49958
2.49938
2.49917
2.49898
2.49886
2.49888
2.49914
2.49972
2.50043
2.50039
2.4973
2.48681
2.46309
2.42296
2.37623
2.35398
2.39266
2.50106
2.65526
2.82227
2.97862
3.11314
3.22251
3.3072
3.3692
3.411
3.43496
3.44279
3.43513
3.41137
3.3696
3.30629
3.21534
3.08796
2.92239
2.75022
2.63908
2.50005
2.50002
2.49998
2.4999
2.49982
2.49972
2.49963
2.49959
2.49966
2.49994
2.5005
2.50123
2.50131
2.49863
2.48908
2.46691
2.42835
2.38104
2.35338
2.38218
2.48033
2.62741
2.79111
2.94687
3.08224
3.19313
3.27952
3.34316
3.38632
3.41119
3.41934
3.41137
3.38673
3.34361
3.27866
3.18589
3.05675
2.88996
2.71738
2.60616
2.50005
2.50004
2.50003
2.50001
2.49998
2.49994
2.49991
2.49991
2.5
2.50027
2.50082
2.50156
2.50184
2.49982
2.49179
2.47223
2.43661
2.38945
2.35445
2.36787
2.44864
2.58272
2.73969
2.89357
3.02982
3.14285
3.23181
3.29793
3.34316
3.36939
3.37803
3.3696
3.34361
3.29846
3.231
3.13549
3.00389
2.83573
2.66311
2.55214
2.50003
2.50003
2.50002
2.50002
2.50001
2.5
2.5
2.50001
2.5001
2.50034
2.50085
2.50159
2.5021
2.50089
2.49479
2.47871
2.44752
2.40222
2.36006
2.35439
2.4106
2.52414
2.66892
2.818
2.9541
3.06926
3.16122
3.23037
3.27814
3.30606
3.31529
3.30629
3.27866
3.231
3.16046
3.06176
2.92775
2.75928
2.58831
2.47865
2.50001
2.50001
2.50001
2.50001
2.50001
2.50001
2.50001
2.50002
2.50009
2.50029
2.50074
2.50146
2.50219
2.50183
2.49782
2.48576
2.46027
2.41921
2.3724
2.3469
2.3724
2.4562
2.58035
2.71891
2.85178
2.96781
3.06245
3.13475
3.18528
3.21506
3.22496
3.21534
3.18589
3.13549
3.06176
2.96023
2.82533
2.65979
2.49452
2.38882
2.5
2.5
2.50001
2.50001
2.50001
2.5
2.5
2.50001
2.50005
2.50021
2.50058
2.50127
2.50216
2.50256
2.50059
2.49263
2.47351
2.43887
2.39148
2.34912
2.34081
2.38544
2.47755
2.59604
2.71932
2.83265
2.92825
3.00297
3.05602
3.08763
3.0982
3.08796
3.05675
3.00389
2.92775
2.82533
2.6936
2.5376
2.38563
2.28901
2.5
2.5
2.5
2.5
2.5
2.5
2.49999
2.49999
2.50002
2.50013
2.50043
2.50106
2.50205
2.50307
2.50283
2.49854
2.48554
2.45827
2.41411
2.36082
2.32095
2.32066
2.36958
2.45651
2.56133
2.66616
2.7593
2.83452
2.88908
2.922
2.93309
2.92239
2.88996
2.83573
2.75928
2.65979
2.5376
2.40022
2.27172
2.19152
2.5
2.5
2.5
2.5
2.5
2.49999
2.49999
2.49998
2.49999
2.50007
2.50031
2.50088
2.50193
2.50336
2.50438
2.50284
2.49466
2.47386
2.43456
2.37652
2.3132
2.27156
2.27473
2.32495
2.40656
2.49941
2.58763
2.66158
2.71634
2.74977
2.76111
2.75022
2.71738
2.66311
2.58831
2.49452
2.38563
2.27172
2.17268
2.11406
2.5
2.5
2.5
2.5
2.5
2.49999
2.49999
2.49998
2.49998
2.50003
2.50024
2.50078
2.50185
2.50349
2.50517
2.50511
2.49957
2.48254
2.44671
2.38764
2.31233
2.24548
2.21789
2.24248
2.30794
2.39261
2.47747
2.55039
2.60504
2.63859
2.65
2.63908
2.60616
2.55214
2.47865
2.38882
2.28901
2.19152
2.11406
2.07207
