# vtk DataFile Version 3.0
Brusselator Concentration Output
ASCII
DATASET STRUCTURED_POINTS
DIMENSIONS 40 40 1
ORIGIN 0.0 0.0 0.0
SPACING 0.005 0.005 1.0
POINT_DATA 1600
SCALARS C1 double 1
LOOKUP_TABLE default
0.970985
0.971555
0.975097
0.985293
1.00547
1.03698
1.07788
1.12252
1.1627
1.19041
1.20026
1.1904
1.16266
1.12242
1.0777
1.03673
1.00538
0.985926
0.97757
0.977547
0.982283
0.988458
0.993801
0.997371
0.999257
1.00001
1.00019
1.00015
1.00009
1.00004
1.00001
1
1
1
1
1
1
1
1
1
0.971555
0.976205
0.987896
1.01034
1.04667
1.0968
1.15526
1.21192
1.25682
1.28447
1.29364
1.28445
1.25677
1.21181
1.15508
1.09665
1.04687
1.01162
0.991451
0.983527
0.983668
0.987735
0.992552
0.99635
0.998646
0.999724
1.00008
1.00013
1.00009
1.00004
1.00002
1
1
1
1
1
1
1
1
1
0.975097
0.987896
1.01615
1.0637
1.13147
1.21109
1.28379
1.33283
1.35617
1.36333
1.3644
1.36331
1.35612
1.33274
1.28372
1.21123
1.13236
1.0663
1.02175
0.997434
0.987949
0.987354
0.990679
0.994598
0.997523
0.999168
0.999872
1.00008
1.00009
1.00005
1.00002
1.00001
1
1
1
1
1
1
1
1
0.985293
1.01034
1.0637
1.14721
1.24865
1.33279
1.36722
1.35561
1.32474
1.29803
1.28791
1.29801
1.32472
1.35562
1.36739
1.33348
1.25065
1.1518
1.07201
1.02219
0.997381
0.98893
0.989177
0.992611
0.996075
0.998384
0.999545
0.999978
1.00007
1.00006
1.00003
1.00001
1
1
1
1
1
1
1
1
1.00547
1.04667
1.13147
1.24865
1.3483
1.37169
1.323
1.24779
1.18058
1.13693
1.12202
1.13692
1.18058
1.24789
1.32343
1.37299
1.35152
1.25534
1.14244
1.05986
1.01379
0.993872
0.98901
0.99094
0.99455
0.997456
0.999115
0.999829
1.00004
1.00006
1.00004
1.00002
1.00001
1
1
1
1
1
1
1
1.03698
1.0968
1.21109
1.33279
1.37169
1.3071
1.19884
1.09663
1.02056
0.975217
0.960274
0.975215
1.02059
1.09678
1.19941
1.30874
1.37552
1.34051
1.22337
1.10918
1.03744
1.00273
0.990735
0.990007
0.993198
0.996494
0.99862
0.999636
0.99999
1.00006
1.00004
1.00002
1.00001
1
1
1
1
1
1
1
1.07788
1.15526
1.28379
1.36722
1.323
1.19884
1.06786
0.9628
0.890643
0.849429
0.836106
0.84943
0.890674
0.962973
1.06849
1.20057
1.32679
1.37428
1.29475
1.16378
1.06629
1.01484
0.994278
0.989966
0.99219
0.995614
0.998116
0.999419
0.999923
1.00005
1.00005
1.00003
1.00001
1
1
1
1
1
1
1
1.12252
1.21192
1.33283
1.35561
1.24779
1.09663
0.9628
0.863795
0.798811
0.762648
0.751099
0.76265
0.798846
0.863975
0.963434
1.09834
1.25126
1.36107
1.34009
1.21378
1.0961
1.02835
0.998933
0.990658
0.991578
0.9949
0.99766
0.999207
0.999849
1.00003
1.00005
1.00003
1.00001
1
1
0.999999
1
1
1
1
1.1627
1.25682
1.35617
1.32474
1.18058
1.02056
0.890643
0.798811
0.740172
0.708075
0.697905
0.708078
0.740209
0.798991
0.891268
1.02221
1.18372
1.32866
1.35912
1.2511
1.12169
1.04069
1.00356
0.991682
0.991294
0.994394
0.997302
0.999028
0.99978
1.00001
1.00004
1.00003
1.00001
1
0.999997
0.999997
0.999998
0.999999
1
1
1.19041
1.28447
1.36333
1.29803
1.13693
0.975217
0.849429
0.762648
0.708075
0.678482
0.669149
0.678486
0.708112
0.762826
0.850044
0.976814
1.13985
1.30093
1.3631
1.27284
1.13873
1.04932
1.00696
0.992556
0.991203
0.994095
0.997071
0.998904
0.999728
0.999992
1.00003
1.00002
1
0.999993
0.999991
0.999992
0.999994
0.999996
0.999997
0.999998
1.20026
1.29364
1.3644
1.28791
1.12202
0.960274
0.836106
0.751099
0.697905
0.669149
0.660093
0.669153
0.697942
0.751276
0.836717
0.961853
1.12486
1.29046
1.36302
1.27981
1.14467
1.05241
1.00819
0.992889
0.991182
0.99399
0.996983
0.998852
0.999701
0.999977
1.00002
1.00001
0.999991
0.999982
0.99998
0.999981
0.999984
0.999988
0.999991
0.999992
1.1904
1.28445
1.36331
1.29801
1.13692
0.975215
0.84943
0.76265
0.708078
0.678486
0.669153
0.67849
0.708115
0.762829
0.850045
0.976813
1.13984
1.30091
1.36307
1.27282
1.13872
1.0493
1.00694
0.992534
0.99118
0.994072
0.997051
0.998889
0.999717
0.999985
1.00003
1.00001
0.999991
0.999978
0.999971
0.999969
0.99997
0.999972
0.999976
0.999978
1.16266
1.25677
1.35612
1.32472
1.18058
1.02059
0.890674
0.798846
0.740209
0.708112
0.697942
0.708115
0.740245
0.799026
0.8913
1.02223
1.18373
1.32863
1.35906
1.25103
1.12164
1.04065
1.00352
0.991641
0.99126
0.994375
0.997303
0.999052
0.999826
1.00007
1.00011
1.00009
1.00005
1.00002
0.999998
0.999977
0.999963
0.999955
0.999951
0.999951
1.12242
1.21181
1.33274
1.35562
1.24789
1.09678
0.962973
0.863975
0.798991
0.762826
0.751276
0.762829
0.799026
0.864154
0.963606
1.09849
1.25136
1.36108
1.34
1.21366
1.09599
1.02826
0.998869
0.990626
0.991594
0.994982
0.997818
0.999442
1.00015
1.00038
1.00041
1.00037
1.00031
1.00024
1.00016
1.00008
1.00001
0.999963
0.999931
0.999916
1.0777
1.15508
1.28372
1.36739
1.32343
1.19941
1.06849
0.963434
0.891268
0.850044
0.836717
0.850045
0.8913
0.963606
1.06911
1.20114
1.32722
1.37445
1.29467
1.1636
1.06612
1.01472
0.994244
0.990051
0.992434
0.996048
0.998752
1.00024
1.0009
1.00113
1.00116
1.0011
1.00099
1.00083
1.00064
1.00043
1.00024
1.00008
0.999969
0.999912
1.03673
1.09665
1.21123
1.33348
1.37299
1.30874
1.20057
1.09834
1.02221
0.976814
0.961853
0.976813
1.02223
1.09849
1.20114
1.31038
1.37681
1.3412
1.22351
1.10907
1.03729
1.00269
0.990901
0.990481
0.994057
0.997775
1.00031
1.00168
1.0023
1.00253
1.00257
1.00249
1.00231
1.00204
1.00169
1.00128
1.00086
1.00048
1.0002
1.00005
1.00538
1.04687
1.13236
1.25065
1.35152
1.37552
1.32679
1.25126
1.18372
1.13985
1.12486
1.13984
1.18373
1.25136
1.32722
1.37681
1.35473
1.25735
1.14337
1.06018
1.01394
0.994195
0.989763
0.992317
0.99665
1.00027
1.00253
1.00369
1.00418
1.00435
1.00437
1.0043
1.00415
1.00386
1.00341
1.00281
1.00211
1.00142
1.00087
1.00057
0.985926
1.01162
1.0663
1.1518
1.25534
1.34051
1.37428
1.36107
1.32866
1.30093
1.29046
1.30091
1.32863
1.36108
1.37445
1.3412
1.25735
1.15644
1.07475
1.02375
0.998502
0.990249
0.991185
0.995592
1.00006
1.00316
1.00476
1.00529
1.00525
1.00505
1.00494
1.005
1.00517
1.0053
1.00521
1.00478
1.00403
1.00312
1.0023
1.00181
0.97757
0.991451
1.02175
1.07201
1.14244
1.22337
1.29475
1.34009
1.35912
1.3631
1.36302
1.36307
1.35906
1.34
1.29467
1.22351
1.14337
1.07475
1.02766
1.00153
0.991194
0.990688
0.99478
0.999685
1.00329
1.0049
1.00477
1.00355
1.00201
1.0008
1.00033
1.00075
1.00192
1.00347
1.0049
1.00578
1.0059
1.00539
1.00463
1.0041
0.977547
0.983527
0.997434
1.02219
1.05986
1.10918
1.16378
1.21378
1.2511
1.27284
1.27981
1.27282
1.25103
1.21366
1.1636
1.10907
1.06018
1.02375
1.00153
0.991653
0.990569
0.994295
0.999272
1.00293
1.00395
1.00215
0.998241
0.993401
0.988884
0.985727
0.984588
0.985685
0.988793
0.993275
0.998195
1.00255
1.00559
1.00711
1.00751
1.00746
0.982283
0.983668
0.987949
0.997381
1.01379
1.03744
1.06629
1.0961
1.12169
1.13873
1.14467
1.13872
1.12164
1.09599
1.06612
1.03729
1.01394
0.998502
0.991194
0.990569
0.994137
0.998997
1.00242
1.00242
0.998159
0.990161
0.979975
0.969599
0.960869
0.955121
0.953115
0.955086
0.960788
0.969475
0.979888
0.990395
0.999378
1.00579
1.00949
1.01104
0.988458
0.987735
0.987354
0.98893
0.993872
1.00273
1.01484
1.02835
1.04069
1.04932
1.05241
1.0493
1.04065
1.02826
1.01472
1.00269
0.994195
0.990249
0.990688
0.994295
0.998997
1.00219
1.00128
0.994555
0.981987
0.965336
0.947418
0.931028
0.918229
0.910202
0.907472
0.910172
0.918164
0.930945
0.947412
0.9657
0.983347
0.997937
1.0079
1.0128
0.993801
0.992552
0.990679
0.989177
0.98901
0.990735
0.994278
0.998933
1.00356
1.00696
1.00819
1.00694
1.00352
0.998869
0.994244
0.990901
0.989763
0.991185
0.99478
0.999272
1.00242
1.00128
0.993108
0.976877
0.954141
0.928481
0.903873
0.883305
0.868333
0.859401
0.856443
0.859376
0.86829
0.883288
0.904035
0.929187
0.956047
0.980825
0.999642
1.0097
0.997371
0.99635
0.994598
0.992611
0.99094
0.990007
0.989966
0.990658
0.991682
0.992556
0.992889
0.992534
0.991641
0.990626
0.990051
0.990481
0.992317
0.995592
0.999685
1.00293
1.00242
0.994555
0.976877
0.949976
0.917749
0.885494
0.857579
0.836293
0.822006
0.814017
0.811468
0.813997
0.821986
0.836355
0.85795
0.886639
0.920353
0.954564
0.982884
0.998991
0.999257
0.998646
0.997523
0.996075
0.99455
0.993198
0.99219
0.991578
0.991294
0.991203
0.991182
0.99118
0.99126
0.991594
0.992434
0.994057
0.99665
1.00006
1.00329
1.00395
0.998159
0.981987
0.954141
0.917749
0.87907
0.844318
0.817297
0.798923
0.788049
0.782684
0.781111
0.782669
0.788053
0.799068
0.817885
0.845906
0.882303
0.922624
0.958517
0.979977
1.00001
0.999724
0.999168
0.998384
0.997456
0.996494
0.995614
0.9949
0.994394
0.994095
0.99399
0.994072
0.994375
0.994982
0.996048
0.997775
1.00027
1.00316
1.0049
1.00215
0.990161
0.965336
0.928481
0.885494
0.844318
0.811134
0.788541
0.775865
0.77042
0.768917
0.768741
0.768907
0.770448
0.776091
0.789336
0.813113
0.847994
0.890112
0.929988
0.954764
1.00019
1.00008
0.999872
0.999545
0.999115
0.99862
0.998116
0.99766
0.997302
0.997071
0.996983
0.997051
0.997303
0.997818
0.998752
1.00031
1.00253
1.00476
1.00477
0.998241
0.979975
0.947418
0.903873
0.857579
0.817297
0.788541
0.772559
0.767209
0.7684
0.771548
0.773049
0.771542
0.768452
0.767514
0.773543
0.790841
0.82121
0.861467
0.901682
0.927396
1.00015
1.00013
1.00008
0.999978
0.999829
0.999636
0.999419
0.999207
0.999028
0.998904
0.998852
0.998889
0.999052
0.999442
1.00024
1.00168
1.00369
1.00529
1.00355
0.993401
0.969599
0.931028
0.883305
0.836293
0.798923
0.775865
0.767209
0.769647
0.777864
0.785976
0.78928
0.785975
0.777938
0.770025
0.768362
0.778418
0.802915
0.839199
0.877277
0.902151
1.00009
1.00009
1.00009
1.00007
1.00004
0.99999
0.999923
0.999849
0.99978
0.999728
0.999701
0.999717
0.999826
1.00015
1.0009
1.0023
1.00418
1.00525
1.00201
0.988884
0.960869
0.918229
0.868333
0.822006
0.788049
0.77042
0.7684
0.777864
0.792504
0.805228
0.810223
0.80523
0.792599
0.778305
0.769689
0.773159
0.79203
0.823956
0.85902
0.8823
1.00004
1.00004
1.00005
1.00006
1.00006
1.00006
1.00005
1.00003
1.00001
0.999992
0.999977
0.999985
1.00007
1.00038
1.00113
1.00253
1.00435
1.00505
1.0008
0.985727
0.955121
0.910202
0.859401
0.814017
0.782684
0.768917
0.771548
0.785976
0.805228
0.82131
0.827547
0.821315
0.805336
0.78646
0.772929
0.771773
0.78663
0.815282
0.847898
0.869791
1.00001
1.00002
1.00002
1.00003
1.00004
1.00004
1.00005
1.00005
1.00004
1.00003
1.00002
1.00003
1.00011
1.00041
1.00116
1.00257
1.00437
1.00494
1.00033
0.984588
0.953115
0.907472
0.856443
0.811468
0.781111
0.768741
0.773049
0.78928
0.810223
0.827547
0.834245
0.827553
0.810337
0.78978
0.774463
0.771636
0.785039
0.812484
0.844173
0.86553
1
1
1.00001
1.00001
1.00002
1.00002
1.00003
1.00003
1.00003
1.00002
1.00001
1.00001
1.00009
1.00037
1.0011
1.00249
1.0043
1.005
1.00075
0.985685
0.955086
0.910172
0.859376
0.813997
0.782669
0.768907
0.771542
0.785975
0.80523
0.821315
0.827553
0.821321
0.805339
0.786459
0.772923
0.771762
0.786613
0.815259
0.847871
0.869761
1
1
1
1
1.00001
1.00001
1.00001
1.00001
1.00001
1
0.999991
0.999991
1.00005
1.00031
1.00099
1.00231
1.00415
1.00517
1.00192
0.988793
0.960788
0.918164
0.86829
0.821986
0.788053
0.770448
0.768452
0.777938
0.792599
0.805336
0.810337
0.805339
0.792693
0.778379
0.76974
0.773186
0.792032
0.823932
0.858974
0.88224
1
1
1
1
1
1
1
1
1
0.999993
0.999982
0.999978
1.00002
1.00024
1.00083
1.00204
1.00386
1.0053
1.00347
0.993275
0.969475
0.930945
0.883288
0.836355
0.799068
0.776091
0.767514
0.770025
0.778305
0.78646
0.78978
0.786459
0.778379
0.770403
0.768665
0.778642
0.803055
0.839257
0.877264
0.902095
1
1
1
1
1
1
1
1
0.999997
0.999991
0.99998
0.999971
0.999998
1.00016
1.00064
1.00169
1.00341
1.00521
1.0049
0.998195
0.979888
0.947412
0.904035
0.85795
0.817885
0.789336
0.773543
0.768362
0.769689
0.772929
0.774463
0.772923
0.76974
0.768665
0.774526
0.791634
0.821796
0.861844
0.901877
0.927482
1
1
1
1
1
1
1
0.999999
0.999997
0.999992
0.999981
0.999969
0.999977
1.00008
1.00043
1.00128
1.00281
1.00478
1.00578
1.00255
0.990395
0.9657
0.929187
0.886639
0.845906
0.813113
0.790841
0.778418
0.773159
0.771773
0.771636
0.771762
0.773186
0.778642
0.791634
0.815091
0.849593
0.8913
0.930805
0.955355
1
1
1
1
1
1
1
1
0.999998
0.999994
0.999984
0.99997
0.999963
1.00001
1.00024
1.00086
1.00211
1.00403
1.0059
1.00559
0.999378
0.983347
0.956047
0.920353
0.882303
0.847994
0.82121
0.802915
0.79203
0.78663
0.785039
0.786613
0.792032
0.803055
0.821796
0.849593
0.885584
0.925354
0.960689
0.981788
1
1
1
1
1
1
1
1
0.999999
0.999996
0.999988
0.999972
0.999955
0.999963
1.00008
1.00048
1.00142
1.00312
1.00539
1.00711
1.00579
0.997937
0.980825
0.954564
0.922624
0.890112
0.861467
0.839199
0.823956
0.815282
0.812484
0.815259
0.823932
0.839257
0.861844
0.8913
0.925354
0.959435
0.987336
1.00309
1
1
1
1
1
1
1
1
1
0.999997
0.999991
0.999976
0.999951
0.999931
0.999969
1.0002
1.00087
1.0023
1.00463
1.00751
1.00949
1.0079
0.999642
0.982884
0.958517
0.929988
0.901682
0.877277
0.85902
0.847898
0.844173
0.847871
0.858974
0.877264
0.901877
0.930805
0.960689
0.987336
1.00693
1.01715
1
1
1
1
1
1
1
1
1
0.999998
0.999992
0.999978
0.999951
0.999916
0.999912
1.00005
1.00057
1.00181
1.0041
1.00746
1.01104
1.0128
1.0097
0.998991
0.979977
0.954764
0.927396
0.902151
0.8823
0.869791
0.86553
0.869761
0.88224
0.902095
0.927482
0.955355
0.981788
1.00309
1.01715
1.02384
SCALARS C2 double 1
LOOKUP_TABLE default
2.5394
2.54842
2.56237
2.57446
2.57725
2.56511
2.53664
2.49643
2.45456
2.4231
2.41146
2.42311
2.4546
2.49655
2.53692
2.56564
2.57801
2.57504
2.56155
2.5436
2.52645
2.51331
2.5051
2.501
2.49952
2.49931
2.49951
2.49974
2.49989
2.49997
2.49999
2.5
2.5
2.5
2.5
2.5
2.5
2.5
2.5
2.5
2.54842
2.55367
2.55909
2.55618
2.53593
2.49269
2.42843
2.35451
2.28757
2.24203
2.22605
2.24205
2.28763
2.35467
2.42876
2.49322
2.53648
2.55604
2.5566
2.54583
2.5311
2.51768
2.50812
2.50267
2.50025
2.49954
2.49955
2.49972
2.49987
2.49995
2.49999
2.5
2.5
2.5
2.5
2.5
2.5
2.5
2.5
2.5
2.56237
2.55909
2.54513
2.50823
2.43699
2.33078
2.20775
2.09671
2.01719
1.97252
1.95846
1.97254
2.01727
2.0969
2.2081
2.33119
2.43695
2.50646
2.53924
2.54558
2.53759
2.52494
2.51356
2.50584
2.50173
2.50006
2.49966
2.4997
2.49984
2.49993
2.49998
2.49999
2.5
2.5
2.5
2.5
2.5
2.5
2.5
2.5
2.57446
2.55618
2.50823
2.41352
2.26627
2.09553
1.95391
1.86862
1.82998
1.81694
1.81431
1.81696
1.83005
1.86875
1.95409
2.0955
2.26502
2.40896
2.49722
2.53514
2.54129
2.53257
2.52025
2.51014
2.5039
2.50092
2.49988
2.49971
2.4998
2.4999
2.49996
2.49999
2.5
2.5
2.5
2.5
2.5
2.5
2.5
2.5
2.57725
2.53593
2.43699
2.26627
2.056
1.88914
1.80995
1.79634
1.81111
1.82862
1.83575
1.82863
1.81115
1.79637
1.80986
1.88844
2.05313
2.25805
2.41963
2.50673
2.5374
2.5378
2.52681
2.515
2.50663
2.50211
2.50027
2.49977
2.49977
2.49987
2.49994
2.49998
2.5
2.5
2.5
2.5
2.5
2.5
2.5
2.5
2.56511
2.49269
2.33078
2.09553
1.88914
1.79701
1.79893
1.84219
1.89054
1.9251
1.93741
1.92511
1.89056
1.84217
1.79864
1.79579
1.88503
2.08417
2.30735
2.4565
2.5228
2.53852
2.53191
2.51971
2.5096
2.50356
2.5008
2.4999
2.49977
2.49984
2.49993
2.49997
2.49999
2.5
2.5
2.5
2.5
2.5
2.5
2.5
2.53664
2.42843
2.20775
1.95391
1.80995
1.79893
1.85726
1.93276
1.99806
2.04062
2.05528
2.04063
1.99807
1.9327
1.85685
1.79742
1.80533
1.9413
2.18074
2.38838
2.4977
2.53407
2.53478
2.52369
2.51248
2.50509
2.50143
2.50008
2.49979
2.49983
2.49991
2.49997
2.49999
2.5
2.5
2.5
2.5
2.5
2.5
2.5
2.49643
2.35451
2.09671
1.86862
1.79634
1.84219
1.93276
2.02464
2.09779
2.14379
2.15941
2.1438
2.09779
2.02456
1.9323
1.84054
1.79164
1.85639
2.06956
2.31471
2.46629
2.52562
2.53543
2.52658
2.51494
2.50652
2.50206
2.50028
2.49982
2.49982
2.4999
2.49996
2.49999
2.5
2.5
2.5
2.5
2.5
2.5
2.5
2.45456
2.28757
2.01719
1.82998
1.81111
1.89054
1.99806
2.09779
2.17437
2.22177
2.23776
2.22178
2.17437
2.0977
1.99757
1.88882
1.80647
1.81866
1.99203
2.251
2.43575
2.51592
2.5346
2.52838
2.51677
2.50767
2.5026
2.50048
2.49987
2.49982
2.4999
2.49996
2.49999
2.5
2.5
2.5
2.5
2.5
2.5
2.5
2.4231
2.24203
1.97252
1.81694
1.82862
1.9251
2.04062
2.14379
2.22177
2.2697
2.28583
2.26971
2.22177
2.1437
2.04012
1.92335
1.82403
1.80634
1.94945
2.20905
2.41372
2.50829
2.53343
2.52928
2.51788
2.50842
2.50297
2.50062
2.49991
2.49983
2.4999
2.49997
2.5
2.50001
2.50001
2.50001
2.50001
2.5
2.5
2.5
2.41146
2.22605
1.95846
1.81431
1.83575
1.93741
2.05528
2.15941
2.23776
2.28583
2.302
2.28584
2.23776
2.15932
2.05477
1.93566
1.83119
1.80397
1.93623
2.19458
2.40573
2.50541
2.53291
2.52956
2.51827
2.50869
2.50312
2.50069
2.49995
2.49986
2.49993
2.5
2.50003
2.50004
2.50003
2.50003
2.50002
2.50001
2.50001
2.5
2.42311
2.24205
1.97254
1.81696
1.82863
1.92511
2.04063
2.1438
2.22178
2.26971
2.28584
2.26972
2.22178
2.14371
2.04013
1.92336
1.82405
1.80636
1.94947
2.20907
2.41374
2.50831
2.53345
2.52932
2.51793
2.50848
2.50303
2.50069
2.49998
2.4999
2.49997
2.50004
2.50007
2.50008
2.50007
2.50006
2.50005
2.50004
2.50003
2.50002
2.4546
2.28763
2.01727
1.83005
1.81115
1.89056
1.99807
2.09779
2.17437
2.22177
2.23776
2.22178
2.17438
2.0977
1.99758
1.88884
1.80651
1.81873
1.99211
2.25107
2.4358
2.51597
2.53466
2.52846
2.51687
2.50779
2.50272
2.50059
2.49997
2.49991
2.49999
2.50005
2.50009
2.50011
2.50012
2.50011
2.5001
2.50009
2.50007
2.50007
2.49655
2.35467
2.0969
1.86875
1.79637
1.84217
1.9327
2.02456
2.0977
2.1437
2.15932
2.14371
2.0977
2.02448
1.93223
1.84052
1.79168
1.85652
2.06975
2.31489
2.46643
2.52576
2.53557
2.52673
2.51508
2.50664
2.50213
2.50029
2.49977
2.49973
2.49979
2.49987
2.49994
2.50001
2.50007
2.50012
2.50015
2.50016
2.50016
2.50015
2.53692
2.42876
2.2081
1.95409
1.80986
1.79864
1.85685
1.9323
1.99757
2.04012
2.05477
2.04013
1.99758
1.93223
1.85645
1.79714
1.80525
1.94149
2.18111
2.38875
2.49801
2.53433
2.53501
2.52384
2.51252
2.50497
2.50109
2.49952
2.49903
2.49894
2.49897
2.49908
2.49923
2.49944
2.49967
2.49988
2.50006
2.50018
2.50025
2.50028
2.56564
2.49322
2.33119
2.0955
1.88844
1.79579
1.79742
1.84054
1.88882
1.92335
1.93566
1.92336
1.88884
1.84052
1.79714
1.79457
1.88434
2.08415
2.30779
2.45706
2.52332
2.53891
2.53212
2.51962
2.50908
2.5025
2.49915
2.49767
2.49706
2.49682
2.49679
2.49695
2.49728
2.49777
2.49835
2.49896
2.4995
2.49993
2.50022
2.50036
2.57801
2.53648
2.43695
2.26502
2.05313
1.88503
1.80533
1.79164
1.80647
1.82403
1.83119
1.82405
1.80651
1.79168
1.80525
1.88434
2.05028
2.25683
2.4196
2.50724
2.53798
2.53813
2.5266
2.51395
2.50448
2.49871
2.49559
2.49395
2.49305
2.4926
2.49248
2.49271
2.49328
2.49418
2.49533
2.49661
2.49788
2.49896
2.49973
2.50014
2.57504
2.55604
2.50646
2.40896
2.25805
2.08417
1.9413
1.85639
1.81866
1.80634
1.80397
1.80636
1.81873
1.85652
1.94149
2.08415
2.25683
2.4044
2.49538
2.53476
2.54134
2.53217
2.51866
2.50674
2.49831
2.49303
2.48991
2.48807
2.48701
2.48647
2.48633
2.48656
2.48722
2.48837
2.49004
2.49213
2.49441
2.49653
2.49816
2.49905
2.56155
2.5566
2.53924
2.49722
2.41963
2.30735
2.18074
2.06956
1.99203
1.94945
1.93623
1.94947
1.99211
2.06975
2.18111
2.30779
2.4196
2.49538
2.53309
2.54247
2.53561
2.52233
2.50884
2.49803
2.4905
2.48577
2.48313
2.48195
2.48165
2.48172
2.48181
2.48179
2.48182
2.48226
2.4835
2.48571
2.4887
2.49193
2.49465
2.4962
2.5436
2.54583
2.54558
2.53514
2.50673
2.4565
2.38838
2.31471
2.251
2.20905
2.19458
2.20907
2.25107
2.31489
2.38875
2.45706
2.50724
2.53476
2.54247
2.53675
2.5243
2.51031
2.49791
2.48849
2.48245
2.4797
2.47976
2.48177
2.48453
2.48681
2.48769
2.48686
2.48468
2.48207
2.48023
2.4801
2.48196
2.48519
2.48853
2.49063
2.52645
2.5311
2.53759
2.54129
2.5374
2.5228
2.4977
2.46629
2.43575
2.41372
2.40573
2.41374
2.4358
2.46643
2.49801
2.52332
2.53798
2.54134
2.53561
2.5243
2.51084
2.49787
2.48726
2.48041
2.47837
2.48142
2.48873
2.49833
2.5077
2.51445
2.5169
2.51449
2.50783
2.4986
2.48917
2.48192
2.4783
2.47825
2.48018
2.48192
2.51331
2.51768
2.52494
2.53257
2.5378
2.53852
2.53407
2.52562
2.51592
2.50829
2.50541
2.50831
2.51597
2.52576
2.53433
2.53891
2.53813
2.53217
2.52233
2.51031
2.49787
2.48686
2.47954
2.47845
2.48539
2.50026
2.5207
2.54281
2.56228
2.57552
2.5802
2.57556
2.56239
2.54303
2.52105
2.50052
2.48491
2.47572
2.472
2.47119
2.5051
2.50812
2.51356
2.52025
2.52681
2.53191
2.53478
2.53543
2.5346
2.53343
2.53291
2.53345
2.53466
2.53557
2.53501
2.53212
2.5266
2.51866
2.50884
2.49791
2.48726
2.47954
2.47868
2.48857
2.51088
2.54372
2.58214
2.61993
2.65126
2.67179
2.67893
2.67184
2.65137
2.62011
2.58232
2.54351
2.50934
2.48393
2.46853
2.46175
2.501
2.50267
2.50584
2.51014
2.515
2.51971
2.52369
2.52658
2.52838
2.52928
2.52956
2.52932
2.52846
2.52673
2.52384
2.51962
2.51395
2.50674
2.49803
2.48849
2.48041
2.47845
2.48857
2.51517
2.55817
2.61264
2.67073
2.72433
2.76688
2.79397
2.80326
2.79402
2.76699
2.72447
2.67069
2.6118
2.55516
2.50789
2.47497
2.45845
2.49952
2.50025
2.50173
2.5039
2.50663
2.5096
2.51248
2.51494
2.51677
2.51788
2.51827
2.51793
2.51687
2.51508
2.51252
2.50908
2.50448
2.49831
2.4905
2.48245
2.47837
2.48539
2.51088
2.55817
2.62406
2.70013
2.77612
2.84287
2.89391
2.92558
2.93629
2.92564
2.89402
2.84295
2.77585
2.69859
2.61946
2.54819
2.49437
2.46548
2.49931
2.49954
2.50006
2.50092
2.50211
2.50356
2.50509
2.50652
2.50767
2.50842
2.50869
2.50848
2.50779
2.50664
2.50497
2.5025
2.49871
2.49303
2.48577
2.4797
2.48142
2.50026
2.54372
2.61264
2.70013
2.7947
2.88437
2.9598
3.0154
3.04892
3.06007
3.04897
3.01549
2.95982
2.88386
2.79246
2.69402
2.60036
2.52571
2.48394
2.49951
2.49955
2.49966
2.49988
2.50027
2.5008
2.50143
2.50206
2.5026
2.50297
2.50312
2.50303
2.50272
2.50213
2.50109
2.49915
2.49559
2.48991
2.48313
2.47976
2.48873
2.5207
2.58214
2.67073
2.77612
2.88437
2.98255
3.06164
3.11752
3.14999
3.16056
3.15005
3.11759
3.06158
2.98179
2.8815
2.76871
2.65678
2.5642
2.51104
2.49974
2.49972
2.4997
2.49971
2.49977
2.4999
2.50008
2.50028
2.50048
2.50062
2.50069
2.50069
2.50059
2.50029
2.49952
2.49767
2.49395
2.48807
2.48195
2.48177
2.49833
2.54281
2.61993
2.72433
2.84287
2.9598
3.06164
3.14004
3.19266
3.22172
3.23086
3.22177
3.19272
3.1399
3.06065
2.95638
2.83445
2.70936
2.60318
2.54122
2.49989
2.49987
2.49984
2.4998
2.49977
2.49977
2.49979
2.49982
2.49987
2.49991
2.49995
2.49998
2.49997
2.49977
2.49903
2.49706
2.49305
2.48701
2.48165
2.48453
2.5077
2.56228
2.65126
2.76688
2.89391
3.0154
3.11752
3.19266
3.24021
3.26474
3.27207
3.26478
3.24024
3.19245
3.11633
3.01154
2.88478
2.75138
2.63612
2.56821
2.49997
2.49995
2.49993
2.4999
2.49987
2.49984
2.49983
2.49982
2.49982
2.49983
2.49986
2.4999
2.49991
2.49973
2.49894
2.49682
2.4926
2.48647
2.48172
2.48681
2.51445
2.57552
2.67179
2.79397
2.92558
3.04892
3.14999
3.22172
3.26474
3.28541
3.29123
3.28546
3.26476
3.22145
3.14866
3.04479
2.91604
2.77826
2.65796
2.5867
2.49999
2.49999
2.49998
2.49996
2.49994
2.49993
2.49991
2.4999
2.4999
2.4999
2.49993
2.49997
2.49999
2.49979
2.49897
2.49679
2.49248
2.48633
2.48181
2.48769
2.5169
2.5802
2.67893
2.80326
2.93629
3.06007
3.16056
3.23086
3.27207
3.29123
3.29645
3.29127
3.27208
3.23057
3.15918
3.05585
2.92661
2.7875
2.66559
2.59326
2.5
2.5
2.49999
2.49999
2.49998
2.49997
2.49997
2.49996
2.49996
2.49997
2.5
2.50004
2.50005
2.49987
2.49908
2.49695
2.49271
2.48656
2.48179
2.48686
2.51449
2.57556
2.67184
2.79402
2.92564
3.04897
3.15005
3.22177
3.26478
3.28546
3.29127
3.2855
3.2648
3.2215
3.14872
3.04484
2.91609
2.77831
2.658
2.58675
2.5
2.5
2.5
2.5
2.5
2.49999
2.49999
2.49999
2.49999
2.5
2.50003
2.50007
2.50009
2.49994
2.49923
2.49728
2.49328
2.48722
2.48182
2.48468
2.50783
2.56239
2.65137
2.76699
2.89402
3.01549
3.11759
3.19272
3.24024
3.26476
3.27208
3.2648
3.24028
3.19251
3.1164
3.01164
2.88489
2.7515
2.63624
2.56834
2.5
2.5
2.5
2.5
2.5
2.5
2.5
2.5
2.5
2.50001
2.50004
2.50008
2.50011
2.50001
2.49944
2.49777
2.49418
2.48837
2.48226
2.48207
2.4986
2.54303
2.62011
2.72447
2.84295
2.95982
3.06158
3.1399
3.19245
3.22145
3.23057
3.2215
3.19251
3.13976
3.06059
2.9564
2.83454
2.70952
2.60338
2.54145
2.5
2.5
2.5
2.5
2.5
2.5
2.5
2.5
2.5
2.50001
2.50003
2.50007
2.50012
2.50007
2.49967
2.49835
2.49533
2.49004
2.4835
2.48023
2.48917
2.52105
2.58232
2.67069
2.77585
2.88386
2.98179
3.06065
3.11633
3.14866
3.15918
3.14872
3.1164
3.06059
2.98103
2.881
2.76846
2.65677
2.56439
2.51135
2.5
2.5
2.5
2.5
2.5
2.5
2.5
2.5
2.5
2.50001
2.50003
2.50006
2.50011
2.50012
2.49988
2.49896
2.49661
2.49213
2.48571
2.4801
2.48192
2.50052
2.54351
2.6118
2.69859
2.79246
2.8815
2.95638
3.01154
3.04479
3.05585
3.04484
3.01164
2.9564
2.881
2.79024
2.69249
2.59952
2.52545
2.48402
2.5
2.5
2.5
2.5
2.5
2.5
2.5
2.5
2.5
2.50001
2.50002
2.50005
2.5001
2.50015
2.50006
2.4995
2.49788
2.49441
2.4887
2.48196
2.4783
2.48491
2.50934
2.55516
2.61946
2.69402
2.76871
2.83445
2.88478
2.91604
2.92661
2.91609
2.88489
2.83454
2.76846
2.69249
2.61485
2.54511
2.4926
2.46447
2.5
2.5
2.5
2.5
2.5
2.5
2.5
2.5
2.5
2.5
2.50001
2.50004
2.50009
2.50016
2.50018
2.49993
2.49896
2.49653
2.49193
2.48519
2.47825
2.47572
2.48393
2.50789
2.54819
2.60036
2.65678
2.70936
2.75138
2.77826
2.7875
2.77831
2.7515
2.70952
2.65677
2.59952
2.54511
2.50036
2.46972
2.45457
2.5
2.5
2.5
2.5
2.5
2.5
2.5
2.5
2.5
2.5
2.50001
2.50003
2.50007
2.50016
2.50025
2.50022
2.49973
2.49816
2.49465
2.48853
2.48018
2.472
2.46853
2.47497
2.49437
2.52571
2.5642
2.60318
2.63612
2.65796
2.66559
2.658
2.63624
2.60338
2.56439
2.52545
2.4926
2.46972
2.45716
2.45225
2.5
2.5
2.5
2.5
2.5
2.5
2.5
2.5
2.5
2.5
2.5
2.50002
2.50007
2.50015
2.50028
2.50036
2.50014
2.49905
2.4962
2.49063
2.48192
2.47119
2.46175
2.45845
2.46548
2.48394
2.51104
2.54122
2.56821
2.5867
2.59326
2.58675
2.56834
2.54145
2.51135
2.48402
2.46447
2.45457
2.45225
2.45294
