# vtk DataFile Version 3.0
Brusselator Concentration Output
ASCII
DATASET STRUCTURED_POINTS
DIMENSIONS 40 40 1
ORIGIN 0.0 0.0 0.0
SPACING 0.005 0.005 1.0
POINT_DATA 1600
SCALARS C1 double 1
LOOKUP_TABLE default
1
1
1
1
1
1
1
1.00001
1.00001
1.00002
1.00002
1.00002
1.00001
1.00001
1
1
1
1
1
1
1
1
1
1
1
1
1
1
1
1
1
1
1
1
1
1
1
1
1
1
1
1
1
1
1
1.00001
1.00001
1.00003
1.00004
1.00005
1.00005
1.00005
1.00004
1.00003
1.00001
1.00001
1
1
1
1
1
1
1
1
1
1
1
1
1
1
1
1
1
1
1
1
1
1
1
1
1
1
1
1
1.00001
1.00002
1.00005
1.00009
1.00012
1.00013
1.00014
1.00013
1.00012
1.00009
1.00005
1.00002
1.00001
1
1
1
1
1
1
1
1
1
1
1
1
1
1
1
1
1
1
1
1
1
1
1
1
1
1
1.00001
1.00003
1.00007
1.00014
1.00021
1.00024
1.00019
1.00015
1.00019
1.00024
1.00021
1.00014
1.00007
1.00003
1.00001
1
1
1
1
1
1
1
1
1
1
1
1
1
1
1
1
1
1
1
1
1
1
1
1
1.00001
1.00003
1.00008
1.00018
1.0003
1.00031
1.00002
0.999518
0.999263
0.999518
1.00002
1.00031
1.0003
1.00018
1.00008
1.00003
1.00001
1
1
1
1
1
1
1
1
1
1
1
1
1
1
1
1
1
1
1
1
1
1
1.00001
1.00002
1.00007
1.00018
1.00034
1.00033
0.999653
0.997879
0.995682
0.994724
0.995682
0.997879
0.999653
1.00033
1.00034
1.00018
1.00007
1.00002
1.00001
1
1
1
1
1
1
1
1
1
1
1
1
1
1
1
1
1
1
1
1
1
1.00001
1.00005
1.00014
1.0003
1.00033
0.999448
0.996233
0.990167
0.983904
0.981547
0.983904
0.990167
0.996233
0.999448
1.00033
1.0003
1.00014
1.00005
1.00001
1
1
1
1
1
1
1
1
1
1
1
1
1
1
1
1
1
1
1
1
1.00001
1.00003
1.00009
1.00021
1.00031
0.999653
0.996233
0.987317
0.973388
0.961327
0.957736
0.961327
0.973388
0.987317
0.996233
0.999653
1.00031
1.00021
1.00009
1.00003
1.00001
1
1
1
1
1
1
1
1
1
1
1
1
1
1
1
1
1
1
1
1.00001
1.00004
1.00012
1.00024
1.00002
0.997879
0.990167
0.973388
0.951185
0.936049
0.933861
0.936049
0.951185
0.973388
0.990167
0.997879
1.00002
1.00024
1.00012
1.00004
1.00001
1
1
1
1
1
1
1
1
1
1
1
1
1
1
1
1
1
1
1
1.00002
1.00005
1.00013
1.00019
0.999518
0.995682
0.983904
0.961327
0.936049
0.925019
0.928519
0.925019
0.936049
0.961327
0.983904
0.995682
0.999518
1.00019
1.00013
1.00005
1.00001
1
1
1
1
1
1
1
1
1
1
1
1
1
1
1
1
1
1
1
1.00002
1.00005
1.00014
1.00015
0.999263
0.994724
0.981547
0.957736
0.933861
0.928519
0.936921
0.928519
0.933861
0.957736
0.981547
0.994724
0.999263
1.00015
1.00014
1.00005
1.00002
1
1
1
1
1
1
1
1
1
1
1
1
1
1
1
1
1
1
1
1.00002
1.00005
1.00013
1.00019
0.999518
0.995682
0.983904
0.961327
0.936049
0.925019
0.928519
0.925019
0.936049
0.961327
0.983904
0.995682
0.999518
1.00019
1.00013
1.00005
1.00001
1
1
1
1
1
1
1
1
1
1
1
1
1
1
1
1
1
1
1
1.00001
1.00004
1.00012
1.00024
1.00002
0.997879
0.990167
0.973388
0.951185
0.936049
0.933861
0.936049
0.951185
0.973388
0.990167
0.997879
1.00002
1.00024
1.00012
1.00004
1.00001
1
1
1
1
1
1
1
1
1
1
1
1
1
1
1
1
1
1
1
1.00001
1.00003
1.00009
1.00021
1.00031
0.999653
0.996233
0.987317
0.973388
0.961327
0.957736
0.961327
0.973388
0.987317
0.996233
0.999653
1.00031
1.00021
1.00009
1.00003
1.00001
1
1
1
1
1
1
1
1
1
1
1
1
1
1
1
1
1
1
1
1
1.00001
1.00005
1.00014
1.0003
1.00033
0.999448
0.996233
0.990167
0.983904
0.981547
0.983904
0.990167
0.996233
0.999448
1.00033
1.0003
1.00014
1.00005
1.00001
1
1
1
1
1
1
1
1
1
1
1
1
1
1
1
1
1
1
1
1
1
1.00001
1.00002
1.00007
1.00018
1.00034
1.00033
0.999653
0.997879
0.995682
0.994724
0.995682
0.997879
0.999653
1.00033
1.00034
1.00018
1.00007
1.00002
1.00001
1
1
1
1
1
1
1
1
1
1
1
1
1
1
1
1
1
1
1
1
1
1
1.00001
1.00003
1.00008
1.00018
1.0003
1.00031
1.00002
0.999518
0.999263
0.999518
1.00002
1.00031
1.0003
1.00018
1.00008
1.00003
1.00001
1
1
1
1
1
1
1
1
1
1
1
1
1
1
1
1
1
1
1
1
1
1
1
1
1.00001
1.00003
1.00007
1.00014
1.00021
1.00024
1.00019
1.00015
1.00019
1.00024
1.00021
1.00014
1.00007
1.00003
1.00001
1
1
1
1
1
1
1
1
1
1
1
1
1
1
1
1
1
1
1
1
1
1
1
1
1
1
1.00001
1.00002
1.00005
1.00009
1.00012
1.00013
1.00014
1.00013
1.00012
1.00009
1.00005
1.00002
1.00001
1
1
1
1
1
1
1
1
1
1
1
1
1
1
1
1
1
1
1
1
1
1
1
1
1
1
1
1
1.00001
1.00001
1.00003
1.00004
1.00005
1.00005
1.00005
1.00004
1.00003
1.00001
1.00001
1
1
1
1
1
1
1
1
1
1
1
1
0.999999
0.999999
0.999999
0.999999
0.999999
1
1
1
1
1
1
1
1
1
1
1
1
1
1
1.00001
1.00001
1.00001
1.00002
1.00001
1.00001
1.00001
1
1
1
1
1
1
1
1
1
1
1
1
0.999999
0.999998
0.999996
0.999995
0.999994
0.999995
0.999996
0.999998
0.999999
1
1
1
1
1
1
1
1
1
1
1
1
1
1
1
1
1
1
1
1
1
1
1
1
1
1
1
1
1
0.999999
0.999998
0.999995
0.999991
0.999985
0.999981
0.99998
0.999981
0.999985
0.999991
0.999995
0.999998
0.999999
1
1
1
1
1
1
1
1
1
1
1
1
1
1
1
1
1
1
1
1
1
1
1
1
1
1
0.999999
0.999997
0.999992
0.999983
0.999968
0.999954
0.999945
0.999943
0.999945
0.999954
0.999968
0.999983
0.999992
0.999997
0.999999
1
1
1
1
1
1
1
1
1
1
1
1
1
1
1
1
1
1
1
1
1
1
1
1
0.999999
0.999997
0.99999
0.999975
0.999948
0.999914
0.999893
0.999896
0.999904
0.999896
0.999893
0.999914
0.999948
0.999975
0.99999
0.999997
0.999999
1
1
1
1
1
1
1
1
1
1
1
1
1
1
1
1
1
1
1
1
1
1
0.999999
0.999997
0.99999
0.999972
0.999933
0.999877
0.99984
0.999889
1.00002
1.0001
1.00002
0.999889
0.99984
0.999877
0.999933
0.999972
0.99999
0.999997
0.999999
1
1
1
1
1
1
1
1
1
1
1
1
1
1
1
1
1
1
1
1
1
0.999998
0.999992
0.999975
0.999933
0.999861
0.999809
0.999939
1.00044
1.00117
1.00153
1.00117
1.00044
0.999939
0.999809
0.999861
0.999933
0.999975
0.999992
0.999997
1
1
1
1
1
1
1
1
1
1
1
1
1
1
1
1
1
1
1
1
0.999999
0.999995
0.999983
0.999948
0.999877
0.999809
0.999974
1.00089
1.00298
1.00553
1.00666
1.00553
1.00298
1.00089
0.999974
0.999809
0.999877
0.999948
0.999982
0.999994
1
1
1
1
1
1
1
1
1
1
1
1
1
1
1
1
1
1
1
1
0.999998
0.999991
0.999968
0.999914
0.99984
0.999939
1.00089
1.00395
1.00976
1.01596
1.0183
1.01596
1.00976
1.00395
1.00089
0.999939
0.99984
0.999914
0.999968
0.999988
1
1
1
1
1
1
1
1
1
1
1
1
1
1
1
1
1
1
1
0.999999
0.999996
0.999985
0.999954
0.999893
0.999889
1.00044
1.00298
1.00976
1.02103
1.03108
1.03362
1.03108
1.02103
1.00976
1.00298
1.00044
0.999889
0.999893
0.999953
0.999982
1
1
1
1
1
1
1
1
1
1
1
1
1
1
1
1
1
1
1
0.999999
0.999995
0.999981
0.999945
0.999896
1.00002
1.00117
1.00553
1.01596
1.03108
1.04081
1.0404
1.04081
1.03108
1.01596
1.00553
1.00117
1.00002
0.999895
0.999944
0.999976
1
1
1
1
1
1
1
1
1
1
1
1
1
1
1
1
1
1
1
0.999999
0.999994
0.99998
0.999943
0.999904
1.0001
1.00153
1.00666
1.0183
1.03362
1.0404
1.03682
1.0404
1.03362
1.0183
1.00666
1.00153
1.0001
0.999903
0.999942
0.999974
1
1
1
1
1
1
1
1
1
1
1
1
1
1
1
1
1
1
1
0.999999
0.999995
0.999981
0.999945
0.999896
1.00002
1.00117
1.00553
1.01596
1.03108
1.04081
1.0404
1.04081
1.03108
1.01596
1.00553
1.00117
1.00002
0.999895
0.999944
0.999976
1
1
1
1
1
1
1
1
1
1
1
1
1
1
1
1
1
1
1
0.999999
0.999996
0.999985
0.999954
0.999893
0.999889
1.00044
1.00298
1.00976
1.02103
1.03108
1.03362
1.03108
1.02103
1.00976
1.00298
1.00044
0.999889
0.999893
0.999953
0.999982
1
1
1
1
1
1
1
1
1
1
1
1
1
1
1
1
1
1
1
1
0.999998
0.999991
0.999968
0.999914
0.99984
0.999939
1.00089
1.00395
1.00976
1.01596
1.0183
1.01596
1.00976
1.00395
1.00089
0.999939
0.99984
0.999914
0.999968
0.999988
1
1
1
1
1
1
1
1
1
1
1
1
1
1
1
1
1
1
1
1
0.999999
0.999995
0.999983
0.999948
0.999877
0.999809
0.999974
1.00089
1.00298
1.00553
1.00666
1.00553
1.00298
1.00089
0.999974
0.999809
0.999877
0.999948
0.999982
0.999994
1
1
1
1
1
1
1
1
1
1
1
1
1
1
1
1
1
1
1
1
1
0.999998
0.999992
0.999975
0.999933
0.999861
0.999809
0.999939
1.00044
1.00117
1.00153
1.00117
1.00044
0.999939
0.999809
0.999861
0.999933
0.999975
0.999992
0.999997
1
1
1
1
1
1
1
1
1
1
1
1
1
1
1
1
1
1
1
1
1
0.999999
0.999997
0.99999
0.999972
0.999933
0.999877
0.99984
0.999889
1.00002
1.0001
1.00002
0.999889
0.99984
0.999877
0.999933
0.999972
0.99999
0.999997
0.999999
1
1
1
1
1
1
1
1
1
1
1
1
1
1
1
1
1
1
1
1
1
1
0.999999
0.999997
0.99999
0.999975
0.999948
0.999914
0.999893
0.999895
0.999903
0.999895
0.999893
0.999914
0.999948
0.999975
0.99999
0.999997
0.999999
1
1
1
1
1
1
1
1
1
1
1
1
1
1
1
1
1
1
1
1
1
1
1
1
0.999999
0.999997
0.999992
0.999982
0.999968
0.999953
0.999944
0.999942
0.999944
0.999953
0.999968
0.999982
0.999992
0.999997
0.999999
1
1
1
1
1
1
1
1
1
1
1
1
1
1
1
1
1
1
1
1
1
1
1
1
1
1
0.999999
0.999997
0.999994
0.999988
0.999982
0.999976
0.999974
0.999976
0.999982
0.999988
0.999994
0.999997
0.999999
1
1
1
SCALARS C2 double 1
LOOKUP_TABLE default
2.5
2.5
2.5
2.5
2.5
2.5
2.5
2.49999
2.49999
2.49998
2.49998
2.49998
2.49999
2.49999
2.5
2.5
2.5
2.5
2.5
2.5
2.5
2.5
2.5
2.5
2.5
2.5
2.5
2.5
2.5
2.5
2.5
2.5
2.5
2.5
2.5
2.5
2.5
2.5
2.5
2.5
2.5
2.5
2.5
2.5
2.5
2.49999
2.49999
2.49997
2.49995
2.49994
2.49993
2.49994
2.49995
2.49997
2.49999
2.49999
2.5
2.5
2.5
2.5
2.5
2.5
2.5
2.5
2.5
2.5
2.5
2.5
2.5
2.5
2.5
2.5
2.5
2.5
2.5
2.5
2.5
2.5
2.5
2.5
2.5
2.5
2.5
2.5
2.49999
2.49998
2.49995
2.49989
2.49983
2.49978
2.49976
2.49978
2.49983
2.49989
2.49995
2.49998
2.49999
2.5
2.5
2.5
2.5
2.5
2.5
2.5
2.5
2.5
2.5
2.5
2.5
2.5
2.5
2.5
2.5
2.5
2.5
2.5
2.5
2.5
2.5
2.5
2.5
2.5
2.5
2.49999
2.49997
2.49992
2.49982
2.49966
2.49949
2.49941
2.49939
2.49941
2.49949
2.49966
2.49982
2.49992
2.49997
2.49999
2.5
2.5
2.5
2.5
2.5
2.5
2.5
2.5
2.5
2.5
2.5
2.5
2.5
2.5
2.5
2.5
2.5
2.5
2.5
2.5
2.5
2.5
2.5
2.5
2.49999
2.49997
2.49991
2.49976
2.49949
2.49914
2.49895
2.49907
2.49923
2.49907
2.49895
2.49914
2.49949
2.49976
2.49991
2.49997
2.49999
2.5
2.5
2.5
2.5
2.5
2.5
2.5
2.5
2.5
2.5
2.5
2.5
2.5
2.5
2.5
2.5
2.5
2.5
2.5
2.5
2.5
2.5
2.49999
2.49998
2.49992
2.49976
2.49941
2.49888
2.49859
2.4993
2.50106
2.50212
2.50106
2.4993
2.49859
2.49888
2.49941
2.49976
2.49992
2.49998
2.49999
2.5
2.5
2.5
2.5
2.5
2.5
2.5
2.5
2.5
2.5
2.5
2.5
2.5
2.5
2.5
2.5
2.5
2.5
2.5
2.5
2.5
2.49999
2.49995
2.49982
2.49949
2.49888
2.49846
2.49982
2.50506
2.51295
2.51698
2.51295
2.50506
2.49982
2.49846
2.49888
2.49949
2.49982
2.49995
2.49999
2.5
2.5
2.5
2.5
2.5
2.5
2.5
2.5
2.5
2.5
2.5
2.5
2.5
2.5
2.5
2.5
2.5
2.5
2.5
2.5
2.49999
2.49997
2.49989
2.49966
2.49914
2.49859
2.49982
2.50735
2.52525
2.54803
2.55869
2.54803
2.52525
2.50735
2.49982
2.49859
2.49914
2.49966
2.49989
2.49997
2.49999
2.5
2.5
2.5
2.5
2.5
2.5
2.5
2.5
2.5
2.5
2.5
2.5
2.5
2.5
2.5
2.5
2.5
2.5
2.5
2.49999
2.49995
2.49983
2.49949
2.49895
2.4993
2.50506
2.52525
2.56572
2.61295
2.63396
2.61295
2.56572
2.52525
2.50506
2.4993
2.49895
2.49949
2.49983
2.49995
2.49999
2.5
2.5
2.5
2.5
2.5
2.5
2.5
2.5
2.5
2.5
2.5
2.5
2.5
2.5
2.5
2.5
2.5
2.5
2.5
2.49998
2.49994
2.49978
2.49941
2.49907
2.50106
2.51295
2.54803
2.61295
2.68572
2.71746
2.68572
2.61295
2.54803
2.51295
2.50106
2.49907
2.49941
2.49978
2.49994
2.49999
2.5
2.5
2.5
2.5
2.5
2.5
2.5
2.5
2.5
2.5
2.5
2.5
2.5
2.5
2.5
2.5
2.5
2.5
2.5
2.49998
2.49993
2.49976
2.49939
2.49923
2.50212
2.51698
2.55869
2.63396
2.71746
2.7537
2.71746
2.63396
2.55869
2.51698
2.50212
2.49923
2.49939
2.49976
2.49993
2.49998
2.5
2.5
2.5
2.5
2.5
2.5
2.5
2.5
2.5
2.5
2.5
2.5
2.5
2.5
2.5
2.5
2.5
2.5
2.5
2.49998
2.49994
2.49978
2.49941
2.49907
2.50106
2.51295
2.54803
2.61295
2.68572
2.71746
2.68572
2.61295
2.54803
2.51295
2.50106
2.49907
2.49941
2.49978
2.49994
2.49999
2.5
2.5
2.5
2.5
2.5
2.5
2.5
2.5
2.5
2.5
2.5
2.5
2.5
2.5
2.5
2.5
2.5
2.5
2.5
2.49999
2.49995
2.49983
2.49949
2.49895
2.4993
2.50506
2.52525
2.56572
2.61295
2.63396
2.61295
2.56572
2.52525
2.50506
2.4993
2.49895
2.49949
2.49983
2.49995
2.49999
2.5
2.5
2.5
2.5
2.5
2.5
2.5
2.5
2.5
2.5
2.5
2.5
2.5
2.5
2.5
2.5
2.5
2.5
2.5
2.49999
2.49997
2.49989
2.49966
2.49914
2.49859
2.49982
2.50735
2.52525
2.54803
2.55869
2.54803
2.52525
2.50735
2.49982
2.49859
2.49914
2.49966
2.49989
2.49997
2.49999
2.5
2.5
2.5
2.5
2.5
2.5
2.5
2.5
2.5
2.5
2.5
2.5
2.5
2.5
2.5
2.5
2.5
2.5
2.5
2.5
2.49999
2.49995
2.49982
2.49949
2.49888
2.49846
2.49982
2.50506
2.51295
2.51698
2.51295
2.50506
2.49982
2.49846
2.49888
2.49949
2.49982
2.49995
2.49999
2.5
2.5
2.5
2.5
2.5
2.5
2.5
2.5
2.5
2.5
2.5
2.5
2.5
2.5
2.5
2.5
2.5
2.5
2.5
2.5
2.5
2.49999
2.49998
2.49992
2.49976
2.49941
2.49888
2.49859
2.4993
2.50106
2.50212
2.50106
2.4993
2.49859
2.49888
2.49941
2.49976
2.49992
2.49998
2.49999
2.5
2.5
2.5
2.5
2.5
2.5
2.5
2.5
2.5
2.5
2.5
2.5
2.5
2.5
2.5
2.5
2.5
2.5
2.5
2.5
2.5
2.5
2.49999
2.49997
2.49991
2.49976
2.49949
2.49914
2.49895
2.49907
2.49923
2.49907
2.49895
2.49914
2.49949
2.49976
2.49991
2.49997
2.49999
2.5
2.5
2.5
2.5
2.5
2.5
2.5
2.5
2.5
2.5
2.5
2.5
2.5
2.5
2.5
2.5
2.5
2.5
2.5
2.5
2.5
2.5
2.5
2.5
2.49999
2.49997
2.49992
2.49982
2.49966
2.49949
2.49941
2.49939
2.49941
2.49949
2.49966
2.49982
2.49992
2.49997
2.49999
2.5
2.5
2.5
2.5
2.5
2.5
2.5
2.5
2.5
2.5
2.5
2.5
2.5
2.5
2.5
2.5
2.5
2.5
2.5
2.5
2.5
2.5
2.5
2.5
2.5
2.5
2.49999
2.49998
2.49995
2.49989
2.49983
2.49978
2.49976
2.49978
2.49983
2.49989
2.49995
2.49998
2.49999
2.5
2.5
2.5
2.5
2.5
2.5
2.5
2.5
2.5
2.5
2.5
2.5
2.5
2.5
2.5
2.5
2.5
2.5
2.5
2.5
2.5
2.5
2.5
2.5
2.5
2.5
2.5
2.5
2.49999
2.49999
2.49997
2.49995
2.49994
2.49993
2.49994
2.49995
2.49997
2.49999
2.49999
2.5
2.5
2.5
2.5
2.5
2.5
2.5
2.5
2.5
2.5
2.5
2.5
2.5
2.5
2.5
2.5
2.5
2.5
2.5
2.5
2.5
2.5
2.5
2.5
2.5
2.5
2.5
2.5
2.5
2.5
2.5
2.49999
2.49999
2.49999
2.49998
2.49999
2.49999
2.49999
2.5
2.5
2.5
2.5
2.5
2.5
2.5
2.5
2.5
2.5
2.5
2.5
2.5
2.5
2.5
2.50001
2.50001
2.50001
2.5
2.5
2.5
2.5
2.5
2.5
2.5
2.5
2.5
2.5
2.5
2.5
2.5
2.5
2.5
2.5
2.5
2.5
2.5
2.5
2.5
2.5
2.5
2.5
2.5
2.5
2.5
2.5
2.5
2.5
2.5
2.5
2.5
2.5
2.5
2.50001
2.50002
2.50002
2.50002
2.50002
2.50002
2.50001
2.5
2.5
2.5
2.5
2.5
2.5
2.5
2.5
2.5
2.5
2.5
2.5
2.5
2.5
2.5
2.5
2.5
2.5
2.5
2.5
2.5
2.5
2.5
2.5
2.5
2.5
2.5
2.5
2.5
2.5
2.5
2.50001
2.50002
2.50004
2.50006
2.50008
2.50009
2.50008
2.50006
2.50004
2.50002
2.50001
2.5
2.5
2.5
2.5
2.5
2.5
2.5
2.5
2.5
2.5
2.5
2.5
2.5
2.5
2.5
2.5
2.5
2.5
2.5
2.5
2.5
2.5
2.5
2.5
2.5
2.5
2.5
2.5
2.50001
2.50003
2.50006
2.50013
2.5002
2.50024
2.50026
2.50024
2.5002
2.50013
2.50006
2.50003
2.50001
2.5
2.5
2.5
2.5
2.5
2.5
2.5
2.5
2.5
2.5
2.5
2.5
2.5
2.5
2.5
2.5
2.5
2.5
2.5
2.5
2.5
2.5
2.5
2.5
2.5
2.5
2.50001
2.50003
2.50009
2.50019
2.50034
2.50047
2.5005
2.50047
2.5005
2.50047
2.50034
2.50019
2.50009
2.50003
2.50001
2.5
2.5
2.5
2.5
2.5
2.5
2.5
2.5
2.5
2.5
2.5
2.5
2.5
2.5
2.5
2.5
2.5
2.5
2.5
2.5
2.5
2.5
2.5
2.5
2.50001
2.50003
2.50009
2.50022
2.50045
2.50069
2.50066
2.50024
2.49993
2.50024
2.50066
2.50069
2.50045
2.50022
2.50009
2.50003
2.50001
2.5
2.5
2.5
2.5
2.5
2.5
2.5
2.5
2.5
2.5
2.5
2.5
2.5
2.5
2.5
2.5
2.5
2.5
2.5
2.5
2.5
2.5
2.5
2.50002
2.50006
2.50019
2.50045
2.50077
2.50069
2.49936
2.49682
2.49531
2.49682
2.49936
2.50069
2.50077
2.50045
2.50019
2.50007
2.50002
2.50001
2.5
2.5
2.5
2.5
2.5
2.5
2.5
2.5
2.5
2.5
2.5
2.5
2.5
2.5
2.5
2.5
2.5
2.5
2.5
2.5
2.5
2.50001
2.50004
2.50013
2.50034
2.50069
2.50069
2.4988
2.49289
2.48389
2.47902
2.48389
2.49289
2.4988
2.50069
2.50069
2.50034
2.50013
2.50004
2.50001
2.5
2.5
2.5
2.5
2.5
2.5
2.5
2.5
2.5
2.5
2.5
2.5
2.5
2.5
2.5
2.5
2.5
2.5
2.5
2.5
2.5
2.50002
2.50006
2.5002
2.50047
2.50066
2.49936
2.49289
2.47691
2.45503
2.44408
2.45503
2.47691
2.49289
2.49936
2.50066
2.50047
2.5002
2.50006
2.50002
2.5
2.5
2.5
2.5
2.5
2.5
2.5
2.5
2.5
2.5
2.5
2.5
2.5
2.5
2.5
2.5
2.5
2.5
2.5
2.5
2.50001
2.50002
2.50008
2.50024
2.5005
2.50024
2.49682
2.48389
2.45503
2.41846
2.40155
2.41846
2.45503
2.48389
2.49682
2.50024
2.5005
2.50024
2.50008
2.50003
2.5
2.5
2.5
2.5
2.5
2.5
2.5
2.5
2.5
2.5
2.5
2.5
2.5
2.5
2.5
2.5
2.5
2.5
2.5
2.5
2.50001
2.50002
2.50009
2.50026
2.50047
2.49993
2.49531
2.47902
2.44408
2.40155
2.3828
2.40155
2.44408
2.47902
2.49531
2.49993
2.50047
2.50026
2.50009
2.50003
2.5
2.5
2.5
2.5
2.5
2.5
2.5
2.5
2.5
2.5
2.5
2.5
2.5
2.5
2.5
2.5
2.5
2.5
2.5
2.5
2.50001
2.50002
2.50008
2.50024
2.5005
2.50024
2.49682
2.48389
2.45503
2.41846
2.40155
2.41846
2.45503
2.48389
2.49682
2.50024
2.5005
2.50024
2.50008
2.50003
2.5
2.5
2.5
2.5
2.5
2.5
2.5
2.5
2.5
2.5
2.5
2.5
2.5
2.5
2.5
2.5
2.5
2.5
2.5
2.5
2.5
2.50002
2.50006
2.5002
2.50047
2.50066
2.49936
2.49289
2.47691
2.45503
2.44408
2.45503
2.47691
2.49289
2.49936
2.50066
2.50047
2.5002
2.50006
2.50002
2.5
2.5
2.5
2.5
2.5
2.5
2.5
2.5
2.5
2.5
2.5
2.5
2.5
2.5
2.5
2.5
2.5
2.5
2.5
2.5
2.5
2.50001
2.50004
2.50013
2.50034
2.50069
2.50069
2.4988
2.49289
2.48389
2.47902
2.48389
2.49289
2.4988
2.50069
2.50069
2.50034
2.50013
2.50004
2.50001
2.5
2.5
2.5
2.5
2.5
2.5
2.5
2.5
2.5
2.5
2.5
2.5
2.5
2.5
2.5
2.5
2.5
2.5
2.5
2.5
2.5
2.5
2.50002
2.50006
2.50019
2.50045
2.50077
2.50069
2.49936
2.49682
2.49531
2.49682
2.49936
2.50069
2.50077
2.50045
2.50019
2.50007
2.50002
2.50001
2.5
2.5
2.5
2.5
2.5
2.5
2.5
2.5
2.5
2.5
2.5
2.5
2.5
2.5
2.5
2.5
2.5
2.5
2.5
2.5
2.5
2.5
2.50001
2.50003
2.50009
2.50022
2.50045
2.50069
2.50066
2.50024
2.49993
2.50024
2.50066
2.50069
2.50045
2.50022
2.50009
2.50003
2.50001
2.5
2.5
2.5
2.5
2.5
2.5
2.5
2.5
2.5
2.5
2.5
2.5
2.5
2.5
2.5
2.5
2.5
2.5
2.5
2.5
2.5
2.5
2.5
2.5
2.50001
2.50003
2.50009
2.50019
2.50034
2.50047
2.5005
2.50047
2.5005
2.50047
2.50034
2.50019
2.50009
2.50003
2.50001
2.5
2.5
2.5
2.5
2.5
2.5
2.5
2.5
2.5
2.5
2.5
2.5
2.5
2.5
2.5
2.5
2.5
2.5
2.5
2.5
2.5
2.5
2.5
2.5
2.5
2.5
2.50001
2.50003
2.50007
2.50013
2.5002
2.50024
2.50026
2.50024
2.5002
2.50013
2.50007
2.50003
2.50001
2.5
2.5
2.5
2.5
2.5
2.5
2.5
2.5
2.5
2.5
2.5
2.5
2.5
2.5
2.5
2.5
2.5
2.5
2.5
2.5
2.5
2.5
2.5
2.5
2.5
2.5
2.5
2.5
2.50001
2.50002
2.50004
2.50006
2.50008
2.50009
2.50008
2.50006
2.50004
2.50002
2.50001
2.5
2.5
2.5
2.5
2.5
2.5
2.5
2.5
2.5
2.5
2.5
2.5
2.5
2.5
2.5
2.5
2.5
2.5
2.5
2.5
2.5
2.5
2.5
2.5
2.5
2.5
2.5
2.5
2.5
2.5
2.50001
2.50001
2.50002
2.50003
2.50003
2.50003
2.50002
2.50001
2.50001
2.5
2.5
2.5
2.5
2.5
