# vtk DataFile Version 3.0
Brusselator Concentration Output
ASCII
DATASET STRUCTURED_POINTS
DIMENSIONS 40 40 1
ORIGIN 0.0 0.0 0.0
SPACING 0.005 0.005 1.0
POINT_DATA 1600
SCALARS C1 double 1
LOOKUP_TABLE default
1.00015
1.00025
1.00043
1.00061
1.00064
1.00033
0.999585
0.998496
0.997348
0.996484
0.996165
0.996484
0.997348
0.998496
0.999585
1.00033
1.00064
1.00062
1.00043
1.00024
1.00011
1.00004
1.00001
1
0.999999
0.999999
1
1
1
1
1
1
1
1
1
1
1
1
1
1
1.00025
1.00035
1.00047
1.00041
0.999879
0.998644
0.996712
0.994423
0.992312
0.990858
0.990344
0.990858
0.992312
0.994423
0.996712
0.998645
0.99988
1.00041
1.00047
1.00033
1.00018
1.00007
1.00002
1.00001
1
0.999999
1
1
1
1
1
1
1
1
1
1
1
1
1
1
1.00043
1.00047
1.00032
0.999518
0.997576
0.994279
0.990014
0.985671
0.98216
0.979988
0.979267
0.979988
0.98216
0.985671
0.990014
0.994279
0.997576
0.999514
1.0003
1.00041
1.00029
1.00015
1.00006
1.00002
1
1
0.999999
1
1
1
1
1
1
1
1
1
1
1
1
1
1.00061
1.00041
0.999518
0.997149
0.992671
0.986276
0.97922
0.973184
0.969223
0.967293
0.966765
0.967293
0.969223
0.973184
0.97922
0.986276
0.992669
0.997138
0.999478
1.0003
1.00038
1.00024
1.00011
1.00004
1.00001
1
1
1
1
1
1
1
1
1
1
1
1
1
1
1
1.00064
0.999879
0.997576
0.992671
0.984824
0.975322
0.966827
0.961747
0.960538
0.961474
0.96215
0.961474
0.960538
0.961747
0.966827
0.975321
0.984819
0.992648
0.997504
0.999705
1.00033
1.00032
1.00017
1.00007
1.00002
1.00001
1
1
1
1
1
1
1
1
1
1
1
1
1
1
1.00033
0.998644
0.994279
0.986276
0.975322
0.964588
0.958464
0.959706
0.967085
0.975523
0.979187
0.975523
0.967085
0.959707
0.958465
0.964586
0.975312
0.986237
0.99417
0.998413
1.00001
1.00032
1.00023
1.00011
1.00004
1.00001
1
1
1
1
1
1
1
1
1
1
1
1
1
1
0.999585
0.996712
0.990014
0.97922
0.966827
0.958464
0.960407
0.975487
0.999737
1.02246
1.03177
1.02246
0.999737
0.975487
0.960406
0.958461
0.96681
0.979162
0.989869
0.99645
0.999371
1.00022
1.00026
1.00015
1.00006
1.00002
1
1
1
1
1
1
1
1
1
1
1
1
1
1
0.998496
0.994423
0.985671
0.973184
0.961747
0.959706
0.975487
1.01227
1.06256
1.10726
1.12518
1.10726
1.06256
1.01227
0.975486
0.959701
0.961722
0.97311
0.9855
0.99417
0.9985
0.999998
1.00026
1.00017
1.00008
1.00003
1.00001
1
1
1
1
1
1
1
1
1
1
1
1
1
0.997348
0.992312
0.98216
0.969223
0.960538
0.967085
0.999737
1.06256
1.14391
1.21401
1.24154
1.21401
1.14391
1.06256
0.999736
0.967078
0.960508
0.969135
0.981975
0.992095
0.997614
0.999735
1.00022
1.00019
1.00009
1.00003
1.00001
1
1
1
1
1
1
1
1
1
1
1
1
1
0.996484
0.990858
0.979988
0.967293
0.961474
0.975523
1.02246
1.10726
1.21401
1.30323
1.33733
1.30323
1.21401
1.10726
1.02246
0.975514
0.961439
0.967196
0.979797
0.99068
0.996963
0.999522
1.00018
1.00019
1.0001
1.00004
1.00001
1
1
1
1
1
1
1
1
1
1
1
1
1
0.996165
0.990344
0.979267
0.966765
0.96215
0.979187
1.03177
1.12518
1.24154
1.33733
1.37344
1.33733
1.24154
1.12518
1.03177
0.979177
0.962113
0.966665
0.979075
0.990182
0.996725
0.999441
1.00016
1.00019
1.0001
1.00004
1.00001
1
1
1
1
1
1
1
1
1
1
1
1
1
0.996484
0.990858
0.979988
0.967293
0.961474
0.975523
1.02246
1.10726
1.21401
1.30323
1.33733
1.30323
1.21401
1.10726
1.02246
0.975514
0.961439
0.967196
0.979797
0.99068
0.996963
0.999522
1.00018
1.00019
1.0001
1.00004
1.00001
1
1
1
1
1
1
1
1
1
1
1
1
1
0.997348
0.992312
0.98216
0.969223
0.960538
0.967085
0.999737
1.06256
1.14391
1.21401
1.24154
1.21401
1.14391
1.06256
0.999736
0.967078
0.960508
0.969135
0.981975
0.992095
0.997614
0.999735
1.00022
1.00019
1.00009
1.00003
1.00001
1
1
1
1
1
1
1
1
1
1
1
1
1
0.998496
0.994423
0.985671
0.973184
0.961747
0.959707
0.975487
1.01227
1.06256
1.10726
1.12518
1.10726
1.06256
1.01227
0.975487
0.959701
0.961723
0.97311
0.985501
0.99417
0.9985
0.999998
1.00026
1.00017
1.00008
1.00003
1.00001
1
1
0.999999
0.999999
1
1
1
1
1
1
1
1
1
0.999585
0.996712
0.990014
0.97922
0.966827
0.958465
0.960406
0.975486
0.999736
1.02246
1.03177
1.02246
0.999736
0.975487
0.960406
0.958461
0.96681
0.979163
0.989869
0.99645
0.999371
1.00022
1.00026
1.00015
1.00006
1.00002
1
0.999998
0.999997
0.999997
0.999997
0.999997
0.999997
0.999998
0.999999
1
1
1
1
1
1.00033
0.998645
0.994279
0.986276
0.975321
0.964586
0.958461
0.959701
0.967078
0.975514
0.979177
0.975514
0.967078
0.959701
0.958461
0.964585
0.975311
0.986237
0.99417
0.998413
1.00001
1.00032
1.00023
1.00011
1.00004
1.00001
0.999996
0.999991
0.999989
0.999987
0.999987
0.999987
0.999989
0.999991
0.999994
0.999997
0.999999
1
1
1
1.00064
0.99988
0.997576
0.992669
0.984819
0.975312
0.96681
0.961722
0.960508
0.961439
0.962113
0.961439
0.960508
0.961723
0.96681
0.975311
0.984813
0.992647
0.997504
0.999706
1.00033
1.00032
1.00017
1.00007
1.00002
0.999992
0.99998
0.999971
0.999966
0.999962
0.999961
0.999962
0.999966
0.999972
0.999979
0.999987
0.999993
0.999997
0.999999
1
1.00062
1.00041
0.999514
0.997138
0.992648
0.986237
0.979162
0.97311
0.969135
0.967196
0.966665
0.967196
0.969135
0.97311
0.979163
0.986237
0.992647
0.997128
0.999475
1.0003
1.00038
1.00024
1.00011
1.00003
0.999985
0.999961
0.999942
0.999928
0.999919
0.999914
0.999913
0.999914
0.999919
0.999929
0.999943
0.999959
0.999975
0.999987
0.999995
0.999998
1.00043
1.00047
1.0003
0.999478
0.997504
0.99417
0.989869
0.9855
0.981975
0.979797
0.979075
0.979797
0.981975
0.985501
0.989869
0.99417
0.997504
0.999475
1.00028
1.00041
1.00028
1.00014
1.00004
0.999978
0.999936
0.999904
0.999881
0.999871
0.999872
0.999879
0.999882
0.999879
0.999872
0.999871
0.999881
0.999904
0.999933
0.99996
0.99998
0.99999
1.00024
1.00033
1.00041
1.0003
0.999705
0.998413
0.99645
0.99417
0.992095
0.99068
0.990182
0.99068
0.992095
0.99417
0.99645
0.998413
0.999706
1.0003
1.00041
1.0003
1.00016
1.00005
0.999971
0.999911
0.999863
0.999835
0.999844
0.999894
0.999966
1.00003
1.00006
1.00003
0.999966
0.999894
0.999845
0.999836
0.999862
0.999905
0.999944
0.999965
1.00011
1.00018
1.00029
1.00038
1.00033
1.00001
0.999371
0.9985
0.997614
0.996963
0.996725
0.996963
0.997614
0.9985
0.999371
1.00001
1.00033
1.00038
1.00028
1.00016
1.00005
0.999967
0.999893
0.999829
0.999804
0.999864
1.00004
1.00032
1.00062
1.00086
1.00095
1.00086
1.00062
1.00032
1.00004
0.999865
0.999805
0.999826
0.999875
0.99991
1.00004
1.00007
1.00015
1.00024
1.00032
1.00032
1.00022
0.999998
0.999735
0.999522
0.999441
0.999522
0.999735
0.999998
1.00022
1.00032
1.00032
1.00024
1.00014
1.00005
0.999967
0.999886
0.99981
0.999791
0.999923
1.00031
1.00098
1.00184
1.00267
1.00328
1.0035
1.00328
1.00267
1.00184
1.00098
1.00031
0.999922
0.999783
0.999784
0.999814
1.00001
1.00002
1.00006
1.00011
1.00017
1.00023
1.00026
1.00026
1.00022
1.00018
1.00016
1.00018
1.00022
1.00026
1.00026
1.00023
1.00017
1.00011
1.00004
0.999971
0.999893
0.99981
0.999788
0.999974
1.00058
1.00177
1.00348
1.00542
1.00713
1.00826
1.00865
1.00826
1.00713
1.00542
1.00348
1.00177
1.00058
0.999955
0.999734
0.999693
1
1.00001
1.00002
1.00004
1.00007
1.00011
1.00015
1.00017
1.00019
1.00019
1.00019
1.00019
1.00019
1.00017
1.00015
1.00011
1.00007
1.00003
0.999978
0.999911
0.999829
0.999791
0.999974
1.0007
1.00231
1.00496
1.00829
1.01157
1.01405
1.01544
1.01587
1.01544
1.01405
1.01157
1.00829
1.00495
1.0023
1.00066
0.99988
0.999619
0.999999
1
1
1.00001
1.00002
1.00004
1.00006
1.00008
1.00009
1.0001
1.0001
1.0001
1.00009
1.00008
1.00006
1.00004
1.00002
0.999985
0.999936
0.999863
0.999804
0.999923
1.00058
1.00231
1.00555
1.01015
1.01505
1.01878
1.02054
1.02083
1.02075
1.02083
1.02054
1.01878
1.01505
1.01014
1.00553
1.00225
1.00044
0.999728
0.999999
0.999999
1
1
1.00001
1.00001
1.00002
1.00003
1.00003
1.00004
1.00004
1.00004
1.00003
1.00003
1.00002
1.00001
0.999992
0.999961
0.999904
0.999835
0.999864
1.00031
1.00177
1.00496
1.01015
1.01635
1.02118
1.02237
1.01993
1.0164
1.0148
1.0164
1.01993
1.02237
1.02118
1.01633
1.01011
1.00486
1.0016
1.00017
1
1
0.999999
1
1
1
1
1.00001
1.00001
1.00001
1.00001
1.00001
1.00001
1.00001
1
0.999996
0.99998
0.999942
0.999881
0.999844
1.00004
1.00098
1.00348
1.00829
1.01505
1.02118
1.02251
1.01655
1.00561
0.995515
0.991496
0.995515
1.00561
1.01655
1.0225
1.02116
1.01499
1.00817
1.00333
1.00102
1
1
1
1
1
1
1
1
1
1
1
1
1
1
0.999998
0.999991
0.999971
0.999928
0.999871
0.999894
1.00032
1.00184
1.00542
1.01157
1.01878
1.02237
1.01655
0.999922
0.978372
0.960984
0.954439
0.960984
0.978371
0.99992
1.01654
1.02234
1.01871
1.01144
1.00531
1.00215
1
1
1
1
1
1
1
1
1
1
1
1
1
1
0.999997
0.999989
0.999966
0.999919
0.999872
0.999966
1.00062
1.00267
1.00713
1.01405
1.02054
1.01993
1.00561
0.978372
0.947631
0.924567
0.916172
0.924567
0.947631
0.978369
1.0056
1.01989
1.02046
1.01392
1.00709
1.0033
1
1
1
1
1
1
1
1
1
1
1
1
1
0.999999
0.999997
0.999987
0.999962
0.999914
0.999879
1.00003
1.00086
1.00328
1.00826
1.01544
1.02083
1.0164
0.995515
0.960984
0.924567
0.898304
0.888926
0.898304
0.924566
0.960981
0.995502
1.01636
1.02075
1.01532
1.00829
1.00414
1
1
1
1
1
1
1
1
1
1
1
1
1
0.999999
0.999997
0.999987
0.999961
0.999913
0.999882
1.00006
1.00095
1.0035
1.00865
1.01587
1.02075
1.0148
0.991496
0.954439
0.916172
0.888926
0.879259
0.888926
0.916171
0.954436
0.991483
1.01476
1.02067
1.01576
1.00871
1.00444
1
1
1
1
1
1
1
1
1
1
1
1
1
1
0.999997
0.999987
0.999962
0.999914
0.999879
1.00003
1.00086
1.00328
1.00826
1.01544
1.02083
1.0164
0.995515
0.960984
0.924567
0.898304
0.888926
0.898304
0.924566
0.960981
0.995502
1.01636
1.02075
1.01532
1.00829
1.00414
1
1
1
1
1
1
1
1
1
1
1
1
1
1
0.999997
0.999989
0.999966
0.999919
0.999872
0.999966
1.00062
1.00267
1.00713
1.01405
1.02054
1.01993
1.00561
0.978371
0.947631
0.924566
0.916171
0.924566
0.947631
0.978369
1.0056
1.01989
1.02046
1.01392
1.0071
1.0033
1
1
1
1
1
1
1
1
1
1
1
1
1
1
0.999998
0.999991
0.999972
0.999929
0.999871
0.999894
1.00032
1.00184
1.00542
1.01157
1.01878
1.02237
1.01655
0.99992
0.978369
0.960981
0.954436
0.960981
0.978369
0.999918
1.01654
1.02234
1.01871
1.01144
1.00531
1.00215
1
1
1
1
1
1
1
1
1
1
1
1
1
1
0.999999
0.999994
0.999979
0.999943
0.999881
0.999845
1.00004
1.00098
1.00348
1.00829
1.01505
1.02118
1.0225
1.01654
1.0056
0.995502
0.991483
0.995502
1.0056
1.01654
1.0225
1.02116
1.01499
1.00817
1.00333
1.00102
1
1
1
1
1
1
1
1
1
1
1
1
1
1
1
0.999997
0.999987
0.999959
0.999904
0.999836
0.999865
1.00031
1.00177
1.00495
1.01014
1.01633
1.02116
1.02234
1.01989
1.01636
1.01476
1.01636
1.01989
1.02234
1.02116
1.01632
1.0101
1.00486
1.0016
1.00017
1
1
1
1
1
1
1
1
1
1
1
1
1
1
1
0.999999
0.999993
0.999975
0.999933
0.999862
0.999805
0.999922
1.00058
1.0023
1.00553
1.01011
1.01499
1.01871
1.02046
1.02075
1.02067
1.02075
1.02046
1.01871
1.01499
1.0101
1.0055
1.00223
1.00044
0.999726
1
1
1
1
1
1
1
1
1
1
1
1
1
1
1
1
0.999997
0.999987
0.99996
0.999905
0.999826
0.999783
0.999955
1.00066
1.00225
1.00486
1.00817
1.01144
1.01392
1.01532
1.01576
1.01532
1.01392
1.01144
1.00817
1.00486
1.00223
1.00062
0.99986
0.999609
1
1
1
1
1
1
1
1
1
1
1
1
1
1
1
1
0.999999
0.999995
0.99998
0.999944
0.999875
0.999784
0.999734
0.99988
1.00044
1.0016
1.00333
1.00531
1.00709
1.00829
1.00871
1.00829
1.0071
1.00531
1.00333
1.0016
1.00044
0.99986
0.999678
0.999659
1
1
1
1
1
1
1
1
1
1
1
1
1
1
1
1
1
0.999998
0.99999
0.999965
0.99991
0.999814
0.999693
0.999619
0.999728
1.00017
1.00102
1.00215
1.0033
1.00414
1.00444
1.00414
1.0033
1.00215
1.00102
1.00017
0.999726
0.999609
0.999659
0.999725
SCALARS C2 double 1
LOOKUP_TABLE default
2.49989
2.49974
2.49942
2.49892
2.49835
2.49794
2.49794
2.49843
2.49922
2.49995
2.50024
2.49995
2.49922
2.49843
2.49794
2.49794
2.49835
2.49892
2.49941
2.49974
2.49991
2.49998
2.5
2.5
2.5
2.5
2.5
2.5
2.5
2.5
2.5
2.5
2.5
2.5
2.5
2.5
2.5
2.5
2.5
2.5
2.49974
2.49952
2.4991
2.49861
2.49836
2.49881
2.50025
2.50256
2.50513
2.50711
2.50785
2.50711
2.50513
2.50256
2.50025
2.49881
2.49836
2.4986
2.49909
2.49953
2.4998
2.49994
2.49999
2.5
2.5
2.5
2.5
2.5
2.5
2.5
2.5
2.5
2.5
2.5
2.5
2.5
2.5
2.5
2.5
2.5
2.49942
2.4991
2.49864
2.49851
2.49953
2.5025
2.50768
2.51425
2.52063
2.52517
2.52681
2.52517
2.52063
2.51425
2.50768
2.5025
2.49952
2.49851
2.49864
2.49914
2.49958
2.49984
2.49995
2.49999
2.5
2.5
2.5
2.5
2.5
2.5
2.5
2.5
2.5
2.5
2.5
2.5
2.5
2.5
2.5
2.5
2.49892
2.49861
2.49851
2.49979
2.50402
2.51234
2.52434
2.53778
2.54963
2.55749
2.56021
2.55749
2.54963
2.53778
2.52433
2.51233
2.50402
2.49979
2.49854
2.49872
2.49925
2.49966
2.49988
2.49997
2.5
2.5
2.5
2.5
2.5
2.5
2.5
2.5
2.5
2.5
2.5
2.5
2.5
2.5
2.5
2.5
2.49835
2.49836
2.49953
2.50402
2.51424
2.53105
2.55239
2.57374
2.59057
2.60063
2.60386
2.60063
2.59057
2.57374
2.55239
2.53105
2.51424
2.50403
2.4996
2.49859
2.49892
2.49943
2.49977
2.49993
2.49998
2.5
2.5
2.5
2.5
2.5
2.5
2.5
2.5
2.5
2.5
2.5
2.5
2.5
2.5
2.5
2.49794
2.49881
2.5025
2.51234
2.53105
2.55815
2.58863
2.61505
2.63204
2.63958
2.64137
2.63958
2.63204
2.61505
2.58863
2.55815
2.53106
2.51237
2.50263
2.49917
2.49875
2.4992
2.49963
2.49987
2.49997
2.49999
2.5
2.5
2.5
2.5
2.5
2.5
2.5
2.5
2.5
2.5
2.5
2.5
2.5
2.5
2.49794
2.50025
2.50768
2.52434
2.55239
2.58863
2.62387
2.64719
2.65344
2.6485
2.64474
2.6485
2.65344
2.64719
2.62387
2.58863
2.55241
2.52439
2.50788
2.50076
2.49891
2.49903
2.49949
2.4998
2.49994
2.49999
2.5
2.5
2.5
2.5
2.5
2.5
2.5
2.5
2.5
2.5
2.5
2.5
2.5
2.5
2.49843
2.50256
2.51425
2.53778
2.57374
2.61505
2.64719
2.65478
2.63392
2.60168
2.58631
2.60168
2.63392
2.65478
2.64719
2.61505
2.57376
2.53786
2.51451
2.50318
2.49944
2.49898
2.49938
2.49973
2.49991
2.49998
2.5
2.5
2.5
2.5
2.5
2.5
2.5
2.5
2.5
2.5
2.5
2.5
2.5
2.5
2.49922
2.50513
2.52063
2.54963
2.59057
2.63204
2.65344
2.63392
2.57183
2.50048
2.46913
2.50048
2.57183
2.63392
2.65344
2.63205
2.5906
2.54974
2.52094
2.50582
2.50017
2.49905
2.4993
2.49968
2.49989
2.49997
2.5
2.5
2.5
2.5
2.5
2.5
2.5
2.5
2.5
2.5
2.5
2.5
2.5
2.5
2.49995
2.50711
2.52517
2.55749
2.60063
2.63958
2.6485
2.60168
2.50048
2.39453
2.34988
2.39453
2.50048
2.60168
2.6485
2.63959
2.60066
2.55762
2.52553
2.50783
2.5008
2.49914
2.49927
2.49964
2.49987
2.49996
2.49999
2.5
2.5
2.5
2.5
2.5
2.5
2.5
2.5
2.5
2.5
2.5
2.5
2.5
2.50024
2.50785
2.52681
2.56021
2.60386
2.64137
2.64474
2.58631
2.46913
2.34988
2.30043
2.34988
2.46913
2.58631
2.64474
2.64138
2.6039
2.56034
2.52717
2.50858
2.50105
2.49919
2.49926
2.49963
2.49986
2.49996
2.49999
2.5
2.5
2.5
2.5
2.5
2.5
2.5
2.5
2.5
2.5
2.5
2.5
2.5
2.49995
2.50711
2.52517
2.55749
2.60063
2.63958
2.6485
2.60168
2.50048
2.39453
2.34988
2.39453
2.50048
2.60168
2.6485
2.63959
2.60066
2.55762
2.52553
2.50783
2.5008
2.49914
2.49927
2.49964
2.49987
2.49996
2.49999
2.5
2.5
2.5
2.5
2.5
2.5
2.5
2.5
2.5
2.5
2.5
2.5
2.5
2.49922
2.50513
2.52063
2.54963
2.59057
2.63204
2.65344
2.63392
2.57183
2.50048
2.46913
2.50048
2.57183
2.63392
2.65344
2.63205
2.5906
2.54974
2.52094
2.50582
2.50017
2.49905
2.4993
2.49968
2.49989
2.49997
2.5
2.5
2.5
2.5
2.5
2.5
2.5
2.5
2.5
2.5
2.5
2.5
2.5
2.5
2.49843
2.50256
2.51425
2.53778
2.57374
2.61505
2.64719
2.65478
2.63392
2.60168
2.58631
2.60168
2.63392
2.65478
2.64719
2.61505
2.57376
2.53786
2.51451
2.50318
2.49944
2.49898
2.49938
2.49973
2.49991
2.49998
2.5
2.5
2.5
2.5
2.5
2.5
2.5
2.5
2.5
2.5
2.5
2.5
2.5
2.5
2.49794
2.50025
2.50768
2.52433
2.55239
2.58863
2.62387
2.64719
2.65344
2.6485
2.64474
2.6485
2.65344
2.64719
2.62387
2.58863
2.5524
2.52439
2.50787
2.50076
2.49891
2.49903
2.49949
2.4998
2.49994
2.49999
2.5
2.5
2.5
2.5
2.5
2.5
2.5
2.5
2.5
2.5
2.5
2.5
2.5
2.5
2.49794
2.49881
2.5025
2.51233
2.53105
2.55815
2.58863
2.61505
2.63205
2.63959
2.64138
2.63959
2.63205
2.61505
2.58863
2.55815
2.53106
2.51237
2.50263
2.49917
2.49874
2.4992
2.49963
2.49987
2.49997
2.5
2.5
2.50001
2.50001
2.50001
2.50001
2.50001
2.50001
2.50001
2.5
2.5
2.5
2.5
2.5
2.5
2.49835
2.49836
2.49952
2.50402
2.51424
2.53106
2.55241
2.57376
2.5906
2.60066
2.6039
2.60066
2.5906
2.57376
2.5524
2.53106
2.51424
2.50403
2.49959
2.49859
2.49892
2.49943
2.49977
2.49993
2.49999
2.50001
2.50002
2.50003
2.50004
2.50005
2.50005
2.50005
2.50004
2.50003
2.50002
2.50001
2.5
2.5
2.5
2.5
2.49892
2.4986
2.49851
2.49979
2.50403
2.51237
2.52439
2.53786
2.54974
2.55762
2.56034
2.55762
2.54974
2.53786
2.52439
2.51237
2.50403
2.4998
2.49854
2.49872
2.49925
2.49966
2.49988
2.49998
2.50002
2.50004
2.50007
2.5001
2.50012
2.50014
2.50014
2.50014
2.50012
2.5001
2.50007
2.50004
2.50002
2.50001
2.5
2.5
2.49941
2.49909
2.49864
2.49854
2.4996
2.50263
2.50788
2.51451
2.52094
2.52553
2.52717
2.52553
2.52094
2.51451
2.50787
2.50263
2.49959
2.49854
2.49865
2.49914
2.49958
2.49984
2.49996
2.50003
2.50008
2.50014
2.5002
2.50025
2.50029
2.50032
2.50032
2.50032
2.50029
2.50025
2.5002
2.50013
2.50008
2.50004
2.50001
2.5
2.49974
2.49953
2.49914
2.49872
2.49859
2.49917
2.50076
2.50318
2.50582
2.50783
2.50858
2.50783
2.50582
2.50318
2.50076
2.49917
2.49859
2.49872
2.49914
2.49954
2.49981
2.49995
2.50004
2.50012
2.50022
2.50033
2.50042
2.50049
2.50051
2.5005
2.50049
2.5005
2.50051
2.50049
2.50042
2.50032
2.50021
2.50012
2.50005
2.50002
2.49991
2.4998
2.49958
2.49925
2.49892
2.49875
2.49891
2.49944
2.50017
2.5008
2.50105
2.5008
2.50017
2.49944
2.49891
2.49874
2.49892
2.49925
2.49958
2.49981
2.49995
2.50005
2.50015
2.50029
2.50046
2.5006
2.50064
2.50055
2.50037
2.5002
2.50012
2.5002
2.50037
2.50055
2.50064
2.50059
2.50045
2.50029
2.50016
2.50009
2.49998
2.49994
2.49984
2.49966
2.49943
2.4992
2.49903
2.49898
2.49905
2.49914
2.49919
2.49914
2.49905
2.49898
2.49903
2.4992
2.49943
2.49966
2.49984
2.49995
2.50005
2.50016
2.50034
2.50055
2.50073
2.50069
2.50032
2.49959
2.49871
2.498
2.49773
2.498
2.49871
2.49959
2.50032
2.50069
2.50072
2.50056
2.50035
2.50023
2.5
2.49999
2.49995
2.49988
2.49977
2.49963
2.49949
2.49938
2.4993
2.49927
2.49926
2.49927
2.4993
2.49938
2.49949
2.49963
2.49977
2.49988
2.49996
2.50004
2.50015
2.50034
2.50059
2.50079
2.50067
2.49986
2.49816
2.49573
2.49319
2.49128
2.49057
2.49128
2.49319
2.49573
2.49815
2.49986
2.50067
2.5008
2.50064
2.50049
2.5
2.5
2.49999
2.49997
2.49993
2.49987
2.4998
2.49973
2.49968
2.49964
2.49963
2.49964
2.49968
2.49973
2.4998
2.49987
2.49993
2.49998
2.50003
2.50012
2.50029
2.50055
2.50079
2.50064
2.49948
2.49667
2.49204
2.48631
2.48087
2.47708
2.47574
2.47708
2.48087
2.48631
2.49204
2.49667
2.49949
2.50068
2.50091
2.50084
2.5
2.5
2.5
2.5
2.49998
2.49997
2.49994
2.49991
2.49989
2.49987
2.49986
2.49987
2.49989
2.49991
2.49994
2.49997
2.49999
2.50002
2.50008
2.50022
2.50046
2.50073
2.50067
2.49948
2.49603
2.48943
2.48
2.46967
2.46098
2.45558
2.4538
2.45558
2.46098
2.46967
2.48
2.48943
2.49605
2.49956
2.50088
2.50118
2.5
2.5
2.5
2.5
2.5
2.49999
2.49999
2.49998
2.49997
2.49996
2.49996
2.49996
2.49997
2.49998
2.49999
2.5
2.50001
2.50004
2.50014
2.50033
2.5006
2.50069
2.49986
2.49667
2.48943
2.47743
2.46244
2.44846
2.43901
2.43457
2.43343
2.43457
2.43901
2.44846
2.46244
2.47744
2.48947
2.4968
2.50018
2.50129
2.5
2.5
2.5
2.5
2.5
2.5
2.5
2.5
2.5
2.49999
2.49999
2.49999
2.5
2.5
2.5
2.5
2.50002
2.50007
2.5002
2.50042
2.50064
2.50032
2.49816
2.49204
2.48
2.46244
2.44387
2.43092
2.42665
2.42798
2.42929
2.42798
2.42665
2.43092
2.44388
2.46245
2.48007
2.49224
2.49858
2.50096
2.5
2.5
2.5
2.5
2.5
2.5
2.5
2.5
2.5
2.5
2.5
2.5
2.5
2.5
2.5
2.50001
2.50003
2.5001
2.50025
2.50049
2.50055
2.49959
2.49573
2.48631
2.46967
2.44846
2.43092
2.42557
2.43287
2.44422
2.44942
2.44422
2.43287
2.42557
2.43092
2.44849
2.46977
2.48656
2.49622
2.50015
2.5
2.5
2.5
2.5
2.5
2.5
2.5
2.5
2.5
2.5
2.5
2.5
2.5
2.5
2.5
2.50001
2.50004
2.50012
2.50029
2.50051
2.50037
2.49871
2.49319
2.48087
2.46098
2.43901
2.42665
2.43287
2.45412
2.47637
2.48562
2.47637
2.45412
2.43287
2.42666
2.43905
2.4611
2.48116
2.49369
2.49909
2.5
2.5
2.5
2.5
2.5
2.5
2.5
2.5
2.5
2.5
2.5
2.5
2.5
2.5
2.5
2.50001
2.50005
2.50014
2.50032
2.5005
2.5002
2.498
2.49128
2.47708
2.45558
2.43457
2.42798
2.44422
2.47637
2.50667
2.51884
2.50667
2.47637
2.44422
2.42799
2.43461
2.45571
2.4774
2.49178
2.49819
2.5
2.5
2.5
2.5
2.5
2.5
2.5
2.5
2.5
2.5
2.5
2.5
2.5
2.5
2.5
2.50001
2.50005
2.50014
2.50032
2.50049
2.50012
2.49773
2.49057
2.47574
2.4538
2.43343
2.42929
2.44942
2.48562
2.51884
2.53206
2.51884
2.48561
2.44942
2.4293
2.43348
2.45394
2.47606
2.49107
2.49785
2.5
2.5
2.5
2.5
2.5
2.5
2.5
2.5
2.5
2.5
2.5
2.5
2.5
2.5
2.5
2.50001
2.50005
2.50014
2.50032
2.5005
2.5002
2.498
2.49128
2.47708
2.45558
2.43457
2.42798
2.44422
2.47637
2.50667
2.51884
2.50667
2.47637
2.44422
2.42799
2.43461
2.45571
2.4774
2.49178
2.49819
2.5
2.5
2.5
2.5
2.5
2.5
2.5
2.5
2.5
2.5
2.5
2.5
2.5
2.5
2.5
2.50001
2.50004
2.50012
2.50029
2.50051
2.50037
2.49871
2.49319
2.48087
2.46098
2.43901
2.42665
2.43287
2.45412
2.47637
2.48561
2.47637
2.45412
2.43287
2.42666
2.43905
2.4611
2.48116
2.49369
2.49909
2.5
2.5
2.5
2.5
2.5
2.5
2.5
2.5
2.5
2.5
2.5
2.5
2.5
2.5
2.5
2.50001
2.50003
2.5001
2.50025
2.50049
2.50055
2.49959
2.49573
2.48631
2.46967
2.44846
2.43092
2.42557
2.43287
2.44422
2.44942
2.44422
2.43287
2.42557
2.43092
2.44849
2.46977
2.48656
2.49622
2.50014
2.5
2.5
2.5
2.5
2.5
2.5
2.5
2.5
2.5
2.5
2.5
2.5
2.5
2.5
2.5
2.5
2.50002
2.50007
2.5002
2.50042
2.50064
2.50032
2.49815
2.49204
2.48
2.46244
2.44388
2.43092
2.42666
2.42799
2.4293
2.42799
2.42666
2.43092
2.44388
2.46246
2.48007
2.49224
2.49858
2.50096
2.5
2.5
2.5
2.5
2.5
2.5
2.5
2.5
2.5
2.5
2.5
2.5
2.5
2.5
2.5
2.5
2.50001
2.50004
2.50013
2.50032
2.50059
2.50069
2.49986
2.49667
2.48943
2.47744
2.46245
2.44849
2.43905
2.43461
2.43348
2.43461
2.43905
2.44849
2.46246
2.47745
2.48947
2.4968
2.50018
2.50129
2.5
2.5
2.5
2.5
2.5
2.5
2.5
2.5
2.5
2.5
2.5
2.5
2.5
2.5
2.5
2.5
2.5
2.50002
2.50008
2.50021
2.50045
2.50072
2.50067
2.49949
2.49605
2.48947
2.48007
2.46977
2.4611
2.45571
2.45394
2.45571
2.4611
2.46977
2.48007
2.48947
2.49607
2.49957
2.50088
2.50118
2.5
2.5
2.5
2.5
2.5
2.5
2.5
2.5
2.5
2.5
2.5
2.5
2.5
2.5
2.5
2.5
2.5
2.50001
2.50004
2.50012
2.50029
2.50056
2.5008
2.50068
2.49956
2.4968
2.49224
2.48656
2.48116
2.4774
2.47606
2.4774
2.48116
2.48656
2.49224
2.4968
2.49957
2.50072
2.50092
2.50084
2.5
2.5
2.5
2.5
2.5
2.5
2.5
2.5
2.5
2.5
2.5
2.5
2.5
2.5
2.5
2.5
2.5
2.5
2.50001
2.50005
2.50016
2.50035
2.50064
2.50091
2.50088
2.50018
2.49858
2.49622
2.49369
2.49178
2.49107
2.49178
2.49369
2.49622
2.49858
2.50018
2.50088
2.50092
2.5007
2.50051
2.5
2.5
2.5
2.5
2.5
2.5
2.5
2.5
2.5
2.5
2.5
2.5
2.5
2.5
2.5
2.5
2.5
2.5
2.5
2.50002
2.50009
2.50023
2.50049
2.50084
2.50118
2.50129
2.50096
2.50015
2.49909
2.49819
2.49785
2.49819
2.49909
2.50014
2.50096
2.50129
2.50118
2.50084
2.50051
2.50032
