# vtk DataFile Version 3.0
Brusselator Concentration Output
ASCII
DATASET STRUCTURED_POINTS
DIMENSIONS 40 40 1
ORIGIN 0.0 0.0 0.0
SPACING 0.005 0.005 1.0
POINT_DATA 1600
SCALARS C1 double 1
LOOKUP_TABLE default
1
1
1
1
1
1
1
1
1
1
1.00001
1
1
1
1
1
1
1
1
1
1
1
1
1
1
1
1
1
1
1
1
1
1
1
1
1
1
1
1
1
1
1
1
1
1
1
1
1.00001
1.00001
1.00002
1.00002
1.00002
1.00001
1.00001
1
1
1
1
1
1
1
1
1
1
1
1
1
1
1
1
1
1
1
1
1
1
1
1
1
1
1
1
1
1
1
1.00001
1.00002
1.00004
1.00006
1.00009
1.0001
1.00009
1.00006
1.00004
1.00002
1.00001
1
1
1
1
1
1
1
1
1
1
1
1
1
1
1
1
1
1
1
1
1
1
1
1
1
1
1
1
1.00001
1.00002
1.00006
1.00014
1.00024
1.00032
1.00034
1.00032
1.00024
1.00014
1.00006
1.00002
1.00001
1
1
1
1
1
1
1
1
1
1
1
1
1
1
1
1
1
1
1
1
1
1
1
1
1
1
1.00001
1.00003
1.00008
1.00022
1.00045
1.00069
1.00079
1.00077
1.00079
1.00069
1.00045
1.00022
1.00008
1.00003
1.00001
1
1
1
1
1
1
1
1
1
1
1
1
1
1
1
1
1
1
1
1
1
1
1
1
1.00001
1.00002
1.00008
1.00025
1.00061
1.00108
1.00125
1.00081
1.00038
1.00081
1.00125
1.00108
1.00061
1.00025
1.00008
1.00002
1.00001
1
1
1
1
1
1
1
1
1
1
1
1
1
1
1
1
1
1
1
1
1
1
1
1.00002
1.00006
1.00022
1.00061
1.00124
1.00152
1.00001
0.996454
0.994322
0.996454
1.00001
1.00152
1.00124
1.00061
1.00022
1.00006
1.00002
1
1
1
1
1
1
1
1
1
1
1
1
1
1
1
1
1
1
1
1
1
1
1.00001
1.00004
1.00014
1.00045
1.00108
1.00152
0.99943
0.991191
0.978443
0.97217
0.978443
0.991191
0.99943
1.00152
1.00108
1.00045
1.00014
1.00004
1.00001
1
1
1
1
1
1
1
1
1
1
1
1
1
1
1
1
1
1
1
1
1
1.00001
1.00006
1.00024
1.00069
1.00125
1.00001
0.991191
0.968779
0.940357
0.928441
0.940357
0.968779
0.991191
1.00001
1.00125
1.00069
1.00024
1.00006
1.00001
1
1
1
1
1
1
1
1
1
1
1
1
1
1
1
1
1
1
1
1
1
1.00002
1.00009
1.00032
1.00079
1.00081
0.996454
0.978443
0.940357
0.8979
0.882314
0.8979
0.940357
0.978443
0.996454
1.00081
1.00079
1.00032
1.00009
1.00002
1
1
1
1
1
1
1
1
1
1
1
1
1
1
1
1
1
1
1
1
1.00001
1.00002
1.0001
1.00034
1.00077
1.00038
0.994322
0.97217
0.928441
0.882314
0.866132
0.882314
0.928441
0.97217
0.994322
1.00038
1.00077
1.00034
1.0001
1.00002
1
1
1
1
1
1
1
1
1
1
1
1
1
1
1
1
1
1
1
1
1
1.00002
1.00009
1.00032
1.00079
1.00081
0.996454
0.978443
0.940357
0.8979
0.882314
0.8979
0.940357
0.978443
0.996454
1.00081
1.00079
1.00032
1.00009
1.00002
1
1
1
1
1
1
1
1
1
1
1
1
1
1
1
1
1
1
1
1
1
1.00001
1.00006
1.00024
1.00069
1.00125
1.00001
0.991191
0.968779
0.940357
0.928441
0.940357
0.968779
0.991191
1.00001
1.00125
1.00069
1.00024
1.00006
1.00001
1
1
1
1
1
1
1
1
1
1
1
1
1
1
1
1
1
1
1
1
1
1.00001
1.00004
1.00014
1.00045
1.00108
1.00152
0.99943
0.991191
0.978443
0.97217
0.978443
0.991191
0.99943
1.00152
1.00108
1.00045
1.00014
1.00004
1.00001
1
1
1
1
1
1
1
1
1
1
1
1
1
1
1
1
1
1
1
1
1
1
1.00002
1.00006
1.00022
1.00061
1.00124
1.00152
1.00001
0.996454
0.994322
0.996454
1.00001
1.00152
1.00124
1.00061
1.00022
1.00006
1.00002
1
1
1
1
1
1
1
1
1
1
1
1
1
1
1
1
1
1
1
1
1
1
1
1.00001
1.00002
1.00008
1.00025
1.00061
1.00108
1.00125
1.00081
1.00038
1.00081
1.00125
1.00108
1.00061
1.00025
1.00008
1.00002
1.00001
1
1
1
1
1
1
1
1
1
1
1
1
1
1
1
1
1
1
1
1
1
1
1
1
1.00001
1.00003
1.00008
1.00022
1.00045
1.00069
1.00079
1.00077
1.00079
1.00069
1.00045
1.00022
1.00008
1.00003
1.00001
1
1
1
1
1
1
1
1
1
1
1
1
1
1
1
1
1
1
1
1
1
1
1
1
1
1
1.00001
1.00002
1.00006
1.00014
1.00024
1.00032
1.00034
1.00032
1.00024
1.00014
1.00006
1.00002
1.00001
1
1
1
1
1
1
1
1
1
1
1
1
1
1
1
1
1
1
1
1
1
1
1
1
1
1
1
1
1.00001
1.00002
1.00004
1.00006
1.00009
1.0001
1.00009
1.00006
1.00004
1.00002
1.00001
1
1
1
1
1
1
1
1
1
1
1
1
1
1
1
1
1
1
1
1
1
1
1
1
1
1
1
1
1
1
1
1.00001
1.00001
1.00002
1.00002
1.00002
1.00001
1.00001
1
1
1
1
1
1
1
1
1
1
1
1
1
1
1
1
1
1
1
1
1
1
1
1
1
1
1
1
1
1
1
1
1
1
1
1
1
1
1
1
1
1
1
1
1
1
1
1
1
1
1
1
1
1
0.999999
0.999999
0.999998
0.999999
0.999999
1
1
1
1
1
1
1
1
1
1
1
1
1
1
1
1
1
1
1
1
1
1
1
1
1
1
1
1
1
1
1
1
1
0.999999
0.999997
0.999995
0.999993
0.999992
0.999993
0.999995
0.999997
0.999999
1
1
1
1
1
1
1
1
1
1
1
1
1
1
1
1
1
1
1
1
1
1
1
1
1
1
1
1
1
0.999999
0.999998
0.999995
0.999988
0.999977
0.999967
0.999963
0.999967
0.999977
0.999988
0.999995
0.999998
0.999999
1
1
1
1
1
1
1
1
1
1
1
1
1
1
1
1
1
1
1
1
1
1
1
1
1
1
0.999999
0.999998
0.999992
0.999978
0.999951
0.999913
0.999881
0.999871
0.999881
0.999913
0.999951
0.999978
0.999992
0.999998
0.999999
1
1
1
1
1
1
1
1
1
1
1
1
1
1
1
1
1
1
1
1
1
1
1
1
0.999999
0.999998
0.999991
0.999971
0.999923
0.999837
0.999734
0.999669
0.99966
0.999669
0.999734
0.999837
0.999923
0.999971
0.999991
0.999998
0.999999
1
1
1
1
1
1
1
1
1
1
1
1
1
1
1
1
1
1
1
1
1
1
1
0.999998
0.999992
0.999971
0.99991
0.999777
0.999573
0.99941
0.999436
0.999533
0.999436
0.99941
0.999573
0.999777
0.99991
0.999971
0.999992
0.999998
1
1
1
1
1
1
1
1
1
1
1
1
1
1
1
1
1
1
1
1
1
1
0.999999
0.999995
0.999978
0.999923
0.999777
0.999502
0.999224
0.999388
1.00028
1.00099
1.00028
0.999388
0.999224
0.999502
0.999777
0.999923
0.999978
0.999995
0.999999
1
1
1
1
1
1
1
1
1
1
1
1
1
1
1
1
1
1
1
1
1
0.999997
0.999988
0.999951
0.999837
0.999573
0.999224
0.99942
1.00153
1.00587
1.00863
1.00587
1.00153
0.99942
0.999224
0.999573
0.999837
0.999951
0.999988
0.999997
1
1
1
1
1
1
1
1
1
1
1
1
1
1
1
1
1
1
1
1
0.999999
0.999995
0.999977
0.999913
0.999734
0.99941
0.999388
1.00153
1.00909
1.02176
1.02901
1.02176
1.00909
1.00153
0.999388
0.99941
0.999734
0.999913
0.999977
0.999994
1
1
1
1
1
1
1
1
1
1
1
1
1
1
1
1
1
1
1
1
0.999999
0.999993
0.999967
0.999881
0.999669
0.999436
1.00028
1.00587
1.02176
1.04591
1.05842
1.04591
1.02176
1.00587
1.00028
0.999436
0.999669
0.999881
0.999967
0.999991
1
1
1
1
1
1
1
1
1
1
1
1
1
1
1
1
1
1
1
1
0.999998
0.999992
0.999963
0.999871
0.99966
0.999533
1.00099
1.00863
1.02901
1.05842
1.0724
1.05842
1.02901
1.00863
1.00099
0.999533
0.99966
0.999871
0.999963
0.99999
1
1
1
1
1
1
1
1
1
1
1
1
1
1
1
1
1
1
1
1
0.999999
0.999993
0.999967
0.999881
0.999669
0.999436
1.00028
1.00587
1.02176
1.04591
1.05842
1.04591
1.02176
1.00587
1.00028
0.999436
0.999669
0.999881
0.999967
0.999991
1
1
1
1
1
1
1
1
1
1
1
1
1
1
1
1
1
1
1
1
0.999999
0.999995
0.999977
0.999913
0.999734
0.99941
0.999388
1.00153
1.00909
1.02176
1.02901
1.02176
1.00909
1.00153
0.999388
0.99941
0.999734
0.999913
0.999977
0.999994
1
1
1
1
1
1
1
1
1
1
1
1
1
1
1
1
1
1
1
1
1
0.999997
0.999988
0.999951
0.999837
0.999573
0.999224
0.99942
1.00153
1.00587
1.00863
1.00587
1.00153
0.99942
0.999224
0.999573
0.999837
0.999951
0.999988
0.999997
1
1
1
1
1
1
1
1
1
1
1
1
1
1
1
1
1
1
1
1
1
0.999999
0.999995
0.999978
0.999923
0.999777
0.999502
0.999224
0.999388
1.00028
1.00099
1.00028
0.999388
0.999224
0.999502
0.999777
0.999923
0.999978
0.999995
0.999999
1
1
1
1
1
1
1
1
1
1
1
1
1
1
1
1
1
1
1
1
1
1
0.999998
0.999992
0.999971
0.99991
0.999777
0.999573
0.99941
0.999436
0.999533
0.999436
0.99941
0.999573
0.999777
0.99991
0.999971
0.999992
0.999998
1
1
1
1
1
1
1
1
1
1
1
1
1
1
1
1
1
1
1
1
1
1
1
0.999999
0.999998
0.999991
0.999971
0.999923
0.999837
0.999734
0.999669
0.99966
0.999669
0.999734
0.999837
0.999923
0.999971
0.999991
0.999998
0.999999
1
1
1
1
1
1
1
1
1
1
1
1
1
1
1
1
1
1
1
1
1
1
1
1
0.999999
0.999998
0.999992
0.999978
0.999951
0.999913
0.999881
0.999871
0.999881
0.999913
0.999951
0.999978
0.999992
0.999998
0.999999
1
1
1
1
1
1
1
1
1
1
1
1
1
1
1
1
1
1
1
1
1
1
1
1
1
1
0.999999
0.999998
0.999995
0.999988
0.999977
0.999967
0.999963
0.999967
0.999977
0.999988
0.999995
0.999998
0.999999
1
1
1
1
1
1
1
1
1
1
1
1
1
1
1
1
1
1
1
1
1
1
1
1
1
1
1
1
1
0.999999
0.999997
0.999994
0.999991
0.99999
0.999991
0.999994
0.999997
0.999999
1
1
1
1
1
SCALARS C2 double 1
LOOKUP_TABLE default
2.5
2.5
2.5
2.5
2.5
2.5
2.5
2.5
2.5
2.5
2.5
2.5
2.5
2.5
2.5
2.5
2.5
2.5
2.5
2.5
2.5
2.5
2.5
2.5
2.5
2.5
2.5
2.5
2.5
2.5
2.5
2.5
2.5
2.5
2.5
2.5
2.5
2.5
2.5
2.5
2.5
2.5
2.5
2.5
2.5
2.5
2.5
2.49999
2.49999
2.49998
2.49998
2.49998
2.49999
2.49999
2.5
2.5
2.5
2.5
2.5
2.5
2.5
2.5
2.5
2.5
2.5
2.5
2.5
2.5
2.5
2.5
2.5
2.5
2.5
2.5
2.5
2.5
2.5
2.5
2.5
2.5
2.5
2.5
2.5
2.5
2.5
2.5
2.49999
2.49997
2.49994
2.4999
2.49989
2.4999
2.49994
2.49997
2.49999
2.5
2.5
2.5
2.5
2.5
2.5
2.5
2.5
2.5
2.5
2.5
2.5
2.5
2.5
2.5
2.5
2.5
2.5
2.5
2.5
2.5
2.5
2.5
2.5
2.5
2.5
2.5
2.5
2.5
2.49999
2.49998
2.49994
2.49986
2.49972
2.49959
2.49954
2.49959
2.49972
2.49986
2.49994
2.49998
2.49999
2.5
2.5
2.5
2.5
2.5
2.5
2.5
2.5
2.5
2.5
2.5
2.5
2.5
2.5
2.5
2.5
2.5
2.5
2.5
2.5
2.5
2.5
2.5
2.5
2.5
2.5
2.49999
2.49998
2.49992
2.49977
2.49946
2.499
2.4986
2.49848
2.4986
2.499
2.49946
2.49977
2.49992
2.49998
2.49999
2.5
2.5
2.5
2.5
2.5
2.5
2.5
2.5
2.5
2.5
2.5
2.5
2.5
2.5
2.5
2.5
2.5
2.5
2.5
2.5
2.5
2.5
2.5
2.5
2.5
2.49998
2.49992
2.49973
2.49925
2.49831
2.49716
2.49649
2.4965
2.49649
2.49716
2.49831
2.49925
2.49973
2.49992
2.49998
2.5
2.5
2.5
2.5
2.5
2.5
2.5
2.5
2.5
2.5
2.5
2.5
2.5
2.5
2.5
2.5
2.5
2.5
2.5
2.5
2.5
2.5
2.5
2.5
2.49999
2.49994
2.49977
2.49925
2.498
2.49599
2.49446
2.4953
2.49693
2.4953
2.49446
2.49599
2.498
2.49925
2.49977
2.49994
2.49999
2.5
2.5
2.5
2.5
2.5
2.5
2.5
2.5
2.5
2.5
2.5
2.5
2.5
2.5
2.5
2.5
2.5
2.5
2.5
2.5
2.5
2.5
2.49999
2.49997
2.49986
2.49946
2.49831
2.49599
2.49361
2.49576
2.50599
2.51437
2.50599
2.49576
2.49361
2.49599
2.49831
2.49946
2.49986
2.49997
2.49999
2.5
2.5
2.5
2.5
2.5
2.5
2.5
2.5
2.5
2.5
2.5
2.5
2.5
2.5
2.5
2.5
2.5
2.5
2.5
2.5
2.5
2.49999
2.49994
2.49972
2.499
2.49716
2.49446
2.49576
2.51275
2.54915
2.57421
2.54915
2.51275
2.49576
2.49446
2.49716
2.499
2.49972
2.49994
2.49999
2.5
2.5
2.5
2.5
2.5
2.5
2.5
2.5
2.5
2.5
2.5
2.5
2.5
2.5
2.5
2.5
2.5
2.5
2.5
2.5
2.5
2.49998
2.4999
2.49959
2.4986
2.49649
2.4953
2.50599
2.54915
2.62617
2.67689
2.62617
2.54915
2.50599
2.4953
2.49649
2.4986
2.49959
2.4999
2.49998
2.5
2.5
2.5
2.5
2.5
2.5
2.5
2.5
2.5
2.5
2.5
2.5
2.5
2.5
2.5
2.5
2.5
2.5
2.5
2.5
2.5
2.49998
2.49989
2.49954
2.49848
2.4965
2.49693
2.51437
2.57421
2.67689
2.74414
2.67689
2.57421
2.51437
2.49693
2.4965
2.49848
2.49954
2.49989
2.49998
2.5
2.5
2.5
2.5
2.5
2.5
2.5
2.5
2.5
2.5
2.5
2.5
2.5
2.5
2.5
2.5
2.5
2.5
2.5
2.5
2.5
2.49998
2.4999
2.49959
2.4986
2.49649
2.4953
2.50599
2.54915
2.62617
2.67689
2.62617
2.54915
2.50599
2.4953
2.49649
2.4986
2.49959
2.4999
2.49998
2.5
2.5
2.5
2.5
2.5
2.5
2.5
2.5
2.5
2.5
2.5
2.5
2.5
2.5
2.5
2.5
2.5
2.5
2.5
2.5
2.5
2.49999
2.49994
2.49972
2.499
2.49716
2.49446
2.49576
2.51275
2.54915
2.57421
2.54915
2.51275
2.49576
2.49446
2.49716
2.499
2.49972
2.49994
2.49999
2.5
2.5
2.5
2.5
2.5
2.5
2.5
2.5
2.5
2.5
2.5
2.5
2.5
2.5
2.5
2.5
2.5
2.5
2.5
2.5
2.5
2.49999
2.49997
2.49986
2.49946
2.49831
2.49599
2.49361
2.49576
2.50599
2.51437
2.50599
2.49576
2.49361
2.49599
2.49831
2.49946
2.49986
2.49997
2.49999
2.5
2.5
2.5
2.5
2.5
2.5
2.5
2.5
2.5
2.5
2.5
2.5
2.5
2.5
2.5
2.5
2.5
2.5
2.5
2.5
2.5
2.5
2.49999
2.49994
2.49977
2.49925
2.498
2.49599
2.49446
2.4953
2.49693
2.4953
2.49446
2.49599
2.498
2.49925
2.49977
2.49994
2.49999
2.5
2.5
2.5
2.5
2.5
2.5
2.5
2.5
2.5
2.5
2.5
2.5
2.5
2.5
2.5
2.5
2.5
2.5
2.5
2.5
2.5
2.5
2.5
2.5
2.49998
2.49992
2.49973
2.49925
2.49831
2.49716
2.49649
2.4965
2.49649
2.49716
2.49831
2.49925
2.49973
2.49992
2.49998
2.5
2.5
2.5
2.5
2.5
2.5
2.5
2.5
2.5
2.5
2.5
2.5
2.5
2.5
2.5
2.5
2.5
2.5
2.5
2.5
2.5
2.5
2.5
2.5
2.5
2.49999
2.49998
2.49992
2.49977
2.49946
2.499
2.4986
2.49848
2.4986
2.499
2.49946
2.49977
2.49992
2.49998
2.49999
2.5
2.5
2.5
2.5
2.5
2.5
2.5
2.5
2.5
2.5
2.5
2.5
2.5
2.5
2.5
2.5
2.5
2.5
2.5
2.5
2.5
2.5
2.5
2.5
2.5
2.5
2.49999
2.49998
2.49994
2.49986
2.49972
2.49959
2.49954
2.49959
2.49972
2.49986
2.49994
2.49998
2.49999
2.5
2.5
2.5
2.5
2.5
2.5
2.5
2.5
2.5
2.5
2.5
2.5
2.5
2.5
2.5
2.5
2.5
2.5
2.5
2.5
2.5
2.5
2.5
2.5
2.5
2.5
2.5
2.5
2.5
2.49999
2.49997
2.49994
2.4999
2.49989
2.4999
2.49994
2.49997
2.49999
2.5
2.5
2.5
2.5
2.5
2.5
2.5
2.5
2.5
2.5
2.5
2.5
2.5
2.5
2.5
2.5
2.5
2.5
2.5
2.5
2.5
2.5
2.5
2.5
2.5
2.5
2.5
2.5
2.5
2.5
2.5
2.5
2.49999
2.49999
2.49998
2.49998
2.49998
2.49999
2.49999
2.5
2.5
2.5
2.5
2.5
2.5
2.5
2.5
2.5
2.5
2.5
2.5
2.5
2.5
2.5
2.5
2.5
2.5
2.5
2.5
2.5
2.5
2.5
2.5
2.5
2.5
2.5
2.5
2.5
2.5
2.5
2.5
2.5
2.5
2.5
2.5
2.5
2.5
2.5
2.5
2.5
2.5
2.5
2.5
2.5
2.5
2.5
2.5
2.5
2.5
2.5
2.5
2.5
2.5
2.5
2.5
2.5
2.5
2.5
2.5
2.5
2.5
2.5
2.5
2.5
2.5
2.5
2.5
2.5
2.5
2.5
2.5
2.5
2.5
2.5
2.5
2.5
2.5
2.5
2.5
2.5
2.5
2.5
2.5
2.5
2.5
2.5
2.5
2.5
2.5
2.5
2.5
2.5
2.5
2.5
2.50001
2.50001
2.50001
2.5
2.5
2.5
2.5
2.5
2.5
2.5
2.5
2.5
2.5
2.5
2.5
2.5
2.5
2.5
2.5
2.5
2.5
2.5
2.5
2.5
2.5
2.5
2.5
2.5
2.5
2.5
2.5
2.5
2.5
2.5
2.5
2.5
2.5
2.5
2.50001
2.50002
2.50003
2.50004
2.50003
2.50002
2.50001
2.5
2.5
2.5
2.5
2.5
2.5
2.5
2.5
2.5
2.5
2.5
2.5
2.5
2.5
2.5
2.5
2.5
2.5
2.5
2.5
2.5
2.5
2.5
2.5
2.5
2.5
2.5
2.5
2.5
2.5
2.5
2.50001
2.50002
2.50005
2.5001
2.50015
2.50017
2.50015
2.5001
2.50005
2.50002
2.50001
2.5
2.5
2.5
2.5
2.5
2.5
2.5
2.5
2.5
2.5
2.5
2.5
2.5
2.5
2.5
2.5
2.5
2.5
2.5
2.5
2.5
2.5
2.5
2.5
2.5
2.5
2.5
2.5
2.50001
2.50003
2.50008
2.50019
2.50036
2.50053
2.50058
2.50053
2.50036
2.50019
2.50008
2.50003
2.50001
2.5
2.5
2.5
2.5
2.5
2.5
2.5
2.5
2.5
2.5
2.5
2.5
2.5
2.5
2.5
2.5
2.5
2.5
2.5
2.5
2.5
2.5
2.5
2.5
2.5
2.5
2.50001
2.50003
2.50009
2.50027
2.50062
2.5011
2.50148
2.50157
2.50148
2.5011
2.50062
2.50027
2.50009
2.50003
2.50001
2.5
2.5
2.5
2.5
2.5
2.5
2.5
2.5
2.5
2.5
2.5
2.5
2.5
2.5
2.5
2.5
2.5
2.5
2.5
2.5
2.5
2.5
2.5
2.5
2.5
2.50002
2.50008
2.50027
2.50073
2.50158
2.50253
2.50286
2.50259
2.50286
2.50253
2.50158
2.50073
2.50027
2.50008
2.50002
2.5
2.5
2.5
2.5
2.5
2.5
2.5
2.5
2.5
2.5
2.5
2.5
2.5
2.5
2.5
2.5
2.5
2.5
2.5
2.5
2.5
2.5
2.5
2.5
2.50001
2.50005
2.50019
2.50062
2.50158
2.50301
2.50366
2.50168
2.49915
2.50168
2.50366
2.50301
2.50158
2.50062
2.50019
2.50005
2.50001
2.5
2.5
2.5
2.5
2.5
2.5
2.5
2.5
2.5
2.5
2.5
2.5
2.5
2.5
2.5
2.5
2.5
2.5
2.5
2.5
2.5
2.5
2.5
2.50002
2.5001
2.50036
2.5011
2.50253
2.50366
2.50051
2.48908
2.47885
2.48908
2.50051
2.50366
2.50253
2.5011
2.50036
2.5001
2.50002
2.50001
2.5
2.5
2.5
2.5
2.5
2.5
2.5
2.5
2.5
2.5
2.5
2.5
2.5
2.5
2.5
2.5
2.5
2.5
2.5
2.5
2.5
2.50001
2.50003
2.50015
2.50053
2.50148
2.50286
2.50168
2.48908
2.45779
2.43225
2.45779
2.48908
2.50168
2.50286
2.50148
2.50053
2.50015
2.50003
2.50001
2.5
2.5
2.5
2.5
2.5
2.5
2.5
2.5
2.5
2.5
2.5
2.5
2.5
2.5
2.5
2.5
2.5
2.5
2.5
2.5
2.5
2.50001
2.50004
2.50017
2.50058
2.50157
2.50259
2.49915
2.47885
2.43225
2.39514
2.43225
2.47885
2.49915
2.50259
2.50157
2.50058
2.50017
2.50004
2.50001
2.5
2.5
2.5
2.5
2.5
2.5
2.5
2.5
2.5
2.5
2.5
2.5
2.5
2.5
2.5
2.5
2.5
2.5
2.5
2.5
2.5
2.50001
2.50003
2.50015
2.50053
2.50148
2.50286
2.50168
2.48908
2.45779
2.43225
2.45779
2.48908
2.50168
2.50286
2.50148
2.50053
2.50015
2.50003
2.50001
2.5
2.5
2.5
2.5
2.5
2.5
2.5
2.5
2.5
2.5
2.5
2.5
2.5
2.5
2.5
2.5
2.5
2.5
2.5
2.5
2.5
2.5
2.50002
2.5001
2.50036
2.5011
2.50253
2.50366
2.50051
2.48908
2.47885
2.48908
2.50051
2.50366
2.50253
2.5011
2.50036
2.5001
2.50002
2.50001
2.5
2.5
2.5
2.5
2.5
2.5
2.5
2.5
2.5
2.5
2.5
2.5
2.5
2.5
2.5
2.5
2.5
2.5
2.5
2.5
2.5
2.5
2.50001
2.50005
2.50019
2.50062
2.50158
2.50301
2.50366
2.50168
2.49915
2.50168
2.50366
2.50301
2.50158
2.50062
2.50019
2.50005
2.50001
2.5
2.5
2.5
2.5
2.5
2.5
2.5
2.5
2.5
2.5
2.5
2.5
2.5
2.5
2.5
2.5
2.5
2.5
2.5
2.5
2.5
2.5
2.5
2.5
2.50002
2.50008
2.50027
2.50073
2.50158
2.50253
2.50286
2.50259
2.50286
2.50253
2.50158
2.50073
2.50027
2.50008
2.50002
2.5
2.5
2.5
2.5
2.5
2.5
2.5
2.5
2.5
2.5
2.5
2.5
2.5
2.5
2.5
2.5
2.5
2.5
2.5
2.5
2.5
2.5
2.5
2.5
2.5
2.50001
2.50003
2.50009
2.50027
2.50062
2.5011
2.50148
2.50157
2.50148
2.5011
2.50062
2.50027
2.50009
2.50003
2.50001
2.5
2.5
2.5
2.5
2.5
2.5
2.5
2.5
2.5
2.5
2.5
2.5
2.5
2.5
2.5
2.5
2.5
2.5
2.5
2.5
2.5
2.5
2.5
2.5
2.5
2.5
2.50001
2.50003
2.50008
2.50019
2.50036
2.50053
2.50058
2.50053
2.50036
2.50019
2.50008
2.50003
2.50001
2.5
2.5
2.5
2.5
2.5
2.5
2.5
2.5
2.5
2.5
2.5
2.5
2.5
2.5
2.5
2.5
2.5
2.5
2.5
2.5
2.5
2.5
2.5
2.5
2.5
2.5
2.5
2.5
2.50001
2.50002
2.50005
2.5001
2.50015
2.50017
2.50015
2.5001
2.50005
2.50002
2.50001
2.5
2.5
2.5
2.5
2.5
2.5
2.5
2.5
2.5
2.5
2.5
2.5
2.5
2.5
2.5
2.5
2.5
2.5
2.5
2.5
2.5
2.5
2.5
2.5
2.5
2.5
2.5
2.5
2.5
2.5
2.5
2.50001
2.50002
2.50003
2.50004
2.50003
2.50002
2.50001
2.5
2.5
2.5
2.5
2.5
2.5
2.5
2.5
2.5
2.5
2.5
2.5
2.5
2.5
2.5
2.5
2.5
2.5
2.5
2.5
2.5
2.5
2.5
2.5
2.5
2.5
2.5
2.5
2.5
2.5
2.5
2.5
2.5
2.5
2.50001
2.50001
2.50001
2.50001
2.50001
2.5
2.5
2.5
2.5
2.5
2.5
2.5
