# vtk DataFile Version 3.0
Brusselator Concentration Output
ASCII
DATASET STRUCTURED_POINTS
DIMENSIONS 40 40 1
ORIGIN 0.0 0.0 0.0
SPACING 0.005 0.005 1.0
POINT_DATA 1600
SCALARS C1 double 1
LOOKUP_TABLE default
1.00019
1.00001
0.999516
0.99854
0.99701
0.995073
0.993085
0.991429
0.990322
0.989747
0.989578
0.989747
0.990322
0.991429
0.993085
0.995073
0.997007
0.998529
0.999487
0.99995
1.0001
1.0001
1.00006
1.00003
1.00001
1
1
1
1
1
1
1
1
1
1
1
1
1
1
1
1.00001
0.999612
0.998696
0.997165
0.99515
0.993091
0.991561
0.990921
0.991074
0.991532
0.991761
0.991532
0.991074
0.990921
0.991561
0.993089
0.995144
0.997148
0.998659
0.999549
0.999947
1.00006
1.00006
1.00004
1.00002
1.00001
1
1
1
1
1
1
1
1
1
1
1
1
1
1
0.999516
0.998696
0.99702
0.994674
0.992315
0.990998
0.991646
0.994379
0.998239
1.00158
1.00289
1.00158
0.998239
0.994379
0.991645
0.990995
0.992305
0.994648
0.996974
0.998647
0.999568
0.999948
1.00005
1.00005
1.00003
1.00001
1
1
1
1
1
1
1
1
1
1
1
1
1
1
0.99854
0.997165
0.994674
0.991929
0.990593
0.992678
0.999442
1.01026
1.02235
1.03181
1.03537
1.03181
1.02235
1.01026
0.99944
0.992672
0.990576
0.991894
0.994629
0.997182
0.998856
0.999684
0.999983
1.00005
1.00004
1.00002
1.00001
1
1
1
1
1
1
1
1
1
1
1
1
1
0.99701
0.99515
0.992315
0.990593
0.993216
1.0035
1.02291
1.04916
1.07599
1.09576
1.10297
1.09576
1.07599
1.04916
1.02291
1.00349
0.993192
0.990553
0.992298
0.995317
0.99779
0.999218
0.999832
1.00002
1.00004
1.00002
1.00001
1
1
1
1
1
1
1
1
1
1
1
1
1
0.995073
0.993091
0.990998
0.992678
1.0035
1.02843
1.06868
1.1181
1.16393
1.19445
1.20482
1.19445
1.16393
1.1181
1.06868
1.02842
1.00347
0.992644
0.991046
0.993505
0.996504
0.998564
0.999581
0.999949
1.00003
1.00003
1.00001
1.00001
1
1
1
1
1
1
1
1
1
1
1
1
0.993085
0.991561
0.991646
0.999442
1.02291
1.06868
1.13552
1.20767
1.2623
1.29023
1.29786
1.29023
1.2623
1.20767
1.13551
1.06866
1.02288
0.999427
0.991797
0.992299
0.995259
0.997816
0.999254
0.999843
1.00001
1.00003
1.00002
1.00001
1
1
1
1
1
1
1
1
1
1
1
1
0.991429
0.990921
0.994379
1.01026
1.04916
1.1181
1.20767
1.28434
1.32007
1.32438
1.32219
1.32438
1.32007
1.28434
1.20766
1.11808
1.04913
1.01028
0.994656
0.992006
0.994305
0.99711
0.998904
0.999716
0.999979
1.00003
1.00002
1.00001
1
1
1
1
1
1
1
1
1
1
1
1
0.990322
0.991074
0.998239
1.02235
1.07599
1.16393
1.2623
1.32007
1.32019
1.29696
1.28525
1.29696
1.32019
1.32007
1.26229
1.16391
1.07596
1.0224
0.998637
0.992462
0.993744
0.996562
0.998601
0.999595
0.999944
1.00002
1.00002
1.00001
1
1
1
1
1
1
1
1
1
1
1
1
0.989747
0.991532
1.00158
1.03181
1.09576
1.19445
1.29023
1.32438
1.29696
1.25678
1.23979
1.25678
1.29696
1.32438
1.29022
1.19442
1.09574
1.03189
1.00206
0.993124
0.993504
0.996229
0.998398
0.999509
0.999918
1.00002
1.00002
1.00001
1
1
1
1
1
1
1
1
1
1
1
1
0.989578
0.991761
1.00289
1.03537
1.10297
1.20482
1.29786
1.32219
1.28525
1.23979
1.22123
1.23979
1.28525
1.32219
1.29784
1.20479
1.10295
1.03546
1.0034
0.993425
0.993445
0.99612
0.998328
0.999478
0.999908
1.00001
1.00002
1.00001
1
1
1
1
1
1
1
1
1
1
1
1
0.989747
0.991532
1.00158
1.03181
1.09576
1.19445
1.29023
1.32438
1.29696
1.25678
1.23979
1.25678
1.29696
1.32438
1.29021
1.19442
1.09574
1.03189
1.00206
0.993124
0.993504
0.996229
0.998398
0.999509
0.999918
1.00002
1.00002
1.00001
1
1
1
1
1
1
1
1
1
1
1
1
0.990322
0.991074
0.998239
1.02235
1.07599
1.16393
1.2623
1.32007
1.32019
1.29696
1.28525
1.29696
1.32019
1.32007
1.26229
1.16391
1.07596
1.0224
0.998637
0.992462
0.993744
0.996562
0.998601
0.999595
0.999944
1.00002
1.00002
1.00001
1
1
0.999999
0.999999
0.999999
0.999999
0.999999
1
1
1
1
1
0.991429
0.990921
0.994379
1.01026
1.04916
1.1181
1.20767
1.28434
1.32007
1.32438
1.32219
1.32438
1.32007
1.28433
1.20766
1.11808
1.04913
1.01028
0.994656
0.992006
0.994305
0.99711
0.998904
0.999715
0.999977
1.00003
1.00002
1.00001
0.999999
0.999996
0.999996
0.999996
0.999996
0.999997
0.999997
0.999998
0.999999
0.999999
1
1
0.993085
0.991561
0.991645
0.99944
1.02291
1.06868
1.13551
1.20766
1.26229
1.29022
1.29784
1.29021
1.26229
1.20766
1.1355
1.06866
1.02287
0.999425
0.991796
0.992299
0.995258
0.997815
0.999253
0.999841
1.00001
1.00002
1.00001
0.999999
0.999993
0.999991
0.99999
0.99999
0.999991
0.999992
0.999993
0.999995
0.999996
0.999998
0.999999
0.999999
0.995073
0.993089
0.990995
0.992672
1.00349
1.02842
1.06866
1.11808
1.16391
1.19442
1.20479
1.19442
1.16391
1.11808
1.06866
1.0284
1.00346
0.992638
0.991043
0.993503
0.996502
0.998562
0.999578
0.999943
1.00002
1.00002
1
0.999991
0.999988
0.999988
0.999988
0.999987
0.999986
0.999986
0.999986
0.999988
0.99999
0.999993
0.999996
0.999997
0.997007
0.995144
0.992305
0.990576
0.993192
1.00347
1.02288
1.04913
1.07596
1.09574
1.10295
1.09574
1.07596
1.04913
1.02287
1.00346
0.993167
0.990536
0.992287
0.99531
0.997785
0.999211
0.999822
1
1.00002
1.00001
0.999996
0.999997
1
1.00001
1.00002
1.00001
1
0.999994
0.999985
0.999981
0.999981
0.999985
0.999989
0.999992
0.998529
0.997148
0.994648
0.991894
0.990553
0.992644
0.999427
1.01028
1.0224
1.03189
1.03546
1.03189
1.0224
1.01028
0.999425
0.992638
0.990536
0.991859
0.994602
0.997163
0.998841
0.999667
0.999962
1.00002
1.00002
1.00002
1.00004
1.00007
1.00012
1.00015
1.00016
1.00015
1.00011
1.00007
1.00003
0.999998
0.99998
0.999975
0.999977
0.99998
0.999487
0.998659
0.996974
0.994629
0.992298
0.991046
0.991797
0.994656
0.998637
1.00206
1.0034
1.00206
0.998637
0.994656
0.991796
0.991043
0.992287
0.994602
0.996925
0.998606
0.999533
0.999915
1.00002
1.00003
1.00005
1.00012
1.00023
1.00036
1.00048
1.00056
1.00059
1.00056
1.00048
1.00036
1.00023
1.00011
1.00003
0.999983
0.999965
0.999961
0.99995
0.999549
0.998647
0.997182
0.995317
0.993505
0.992299
0.992006
0.992462
0.993124
0.993425
0.993124
0.992462
0.992006
0.992299
0.993503
0.99531
0.997163
0.998606
0.99948
0.999882
1.00001
1.00005
1.00011
1.00025
1.00048
1.00078
1.00108
1.00134
1.0015
1.00155
1.0015
1.00134
1.00108
1.00078
1.00047
1.00023
1.00007
0.999979
0.999945
1.0001
0.999947
0.999568
0.998856
0.99779
0.996504
0.995259
0.994305
0.993744
0.993504
0.993445
0.993504
0.993744
0.994305
0.995258
0.996502
0.997785
0.998841
0.999533
0.999882
1.00001
1.00006
1.00015
1.00038
1.00077
1.00131
1.0019
1.00241
1.00278
1.00297
1.00303
1.00297
1.00278
1.00241
1.0019
1.00131
1.00076
1.00034
1.00009
0.999973
1.0001
1.00006
0.999948
0.999684
0.999218
0.998564
0.997816
0.99711
0.996562
0.996229
0.99612
0.996229
0.996562
0.99711
0.997815
0.998562
0.999211
0.999667
0.999915
1.00001
1.00006
1.00017
1.00046
1.00101
1.00182
1.00274
1.00353
1.004
1.00412
1.00405
1.004
1.00405
1.00412
1.004
1.00353
1.00274
1.00181
1.00098
1.00041
1.00013
1.00006
1.00006
1.00005
0.999983
0.999832
0.999581
0.999254
0.998904
0.998601
0.998398
0.998328
0.998398
0.998601
0.998904
0.999253
0.999578
0.999822
0.999962
1.00002
1.00005
1.00015
1.00046
1.00111
1.00214
1.00337
1.00439
1.00471
1.00415
1.00299
1.00189
1.00145
1.00189
1.00299
1.00414
1.0047
1.00438
1.00335
1.00211
1.00109
1.00055
1.00003
1.00004
1.00005
1.00005
1.00002
0.999949
0.999843
0.999716
0.999595
0.999509
0.999478
0.999509
0.999595
0.999715
0.999841
0.999943
1
1.00002
1.00003
1.00011
1.00038
1.00101
1.00214
1.0036
1.00482
1.00487
1.00302
0.999409
0.995145
0.991769
0.990495
0.991769
0.995145
0.999407
1.00302
1.00486
1.0048
1.00358
1.00221
1.00136
1.00001
1.00002
1.00003
1.00004
1.00004
1.00003
1.00001
0.999979
0.999944
0.999918
0.999908
0.999918
0.999944
0.999977
1.00001
1.00002
1.00002
1.00002
1.00005
1.00025
1.00077
1.00182
1.00337
1.00482
1.00485
1.00186
0.995174
0.985902
0.976565
0.969797
0.967347
0.969797
0.976564
0.985899
0.995165
1.00184
1.00483
1.00485
1.0036
1.00259
1
1.00001
1.00001
1.00002
1.00002
1.00003
1.00003
1.00003
1.00002
1.00002
1.00001
1.00002
1.00002
1.00003
1.00002
1.00002
1.00001
1.00002
1.00012
1.00048
1.00131
1.00274
1.00439
1.00487
1.00186
0.99328
0.979218
0.962548
0.947408
0.937158
0.933574
0.937158
0.947407
0.962543
0.979207
0.993262
1.00186
1.00498
1.00486
1.00405
1
1
1
1.00001
1.00001
1.00001
1.00002
1.00002
1.00002
1.00002
1.00002
1.00002
1.00002
1.00002
1.00001
1
0.999996
1.00004
1.00023
1.00078
1.0019
1.00353
1.00471
1.00302
0.995174
0.979218
0.956895
0.933206
0.913454
0.900887
0.896639
0.900886
0.913451
0.933199
0.956882
0.979205
0.995207
1.00325
1.00549
1.00544
1
1
1
1
1
1.00001
1.00001
1.00001
1.00001
1.00001
1.00001
1.00001
1.00001
1.00001
0.999999
0.999991
0.999997
1.00007
1.00036
1.00108
1.00241
1.004
1.00415
0.999409
0.985902
0.962548
0.933206
0.904688
0.882648
0.869463
0.865167
0.869463
0.882645
0.904681
0.933193
0.962544
0.985977
0.999771
1.00523
1.00642
1
1
1
1
1
1
1
1
1
1
1
1
1
0.999999
0.999993
0.999988
1
1.00012
1.00048
1.00134
1.00278
1.00412
1.00299
0.995145
0.976565
0.947408
0.913454
0.882648
0.860378
0.847859
0.843946
0.847859
0.860374
0.88264
0.913442
0.947414
0.976681
0.995625
1.00433
1.0069
1
1
1
1
1
1
1
1
1
1
1
1
1
0.999996
0.999991
0.999988
1.00001
1.00015
1.00056
1.0015
1.00297
1.00405
1.00189
0.991769
0.969797
0.937158
0.900887
0.869463
0.847859
0.836352
0.832897
0.836351
0.847856
0.869455
0.900876
0.937171
0.969942
0.992329
1.00339
1.00702
1
1
1
1
1
1
1
1
1
1
1
1
0.999999
0.999996
0.99999
0.999988
1.00002
1.00016
1.00059
1.00155
1.00303
1.004
1.00145
0.990495
0.967347
0.933574
0.896639
0.865167
0.843946
0.832897
0.82964
0.832896
0.843943
0.865159
0.896629
0.93359
0.967502
0.991083
1.003
1.00703
1
1
1
1
1
1
1
1
1
1
1
1
0.999999
0.999996
0.99999
0.999987
1.00001
1.00015
1.00056
1.0015
1.00297
1.00405
1.00189
0.991769
0.969797
0.937158
0.900886
0.869463
0.847859
0.836351
0.832896
0.83635
0.847855
0.869454
0.900875
0.937171
0.969941
0.992328
1.00339
1.00702
1
1
1
1
1
1
1
1
1
1
1
1
0.999999
0.999996
0.999991
0.999986
1
1.00011
1.00048
1.00134
1.00278
1.00412
1.00299
0.995145
0.976564
0.947407
0.913451
0.882645
0.860374
0.847856
0.843943
0.847855
0.860371
0.882638
0.91344
0.947412
0.97668
0.995624
1.00433
1.0069
1
1
1
1
1
1
1
1
1
1
1
1
0.999999
0.999997
0.999992
0.999986
0.999994
1.00007
1.00036
1.00108
1.00241
1.004
1.00414
0.999407
0.985899
0.962543
0.933199
0.904681
0.88264
0.869455
0.865159
0.869454
0.882638
0.904674
0.933187
0.962539
0.985974
0.999769
1.00523
1.00641
1
1
1
1
1
1
1
1
1
1
1
1
0.999999
0.999997
0.999993
0.999986
0.999985
1.00003
1.00023
1.00078
1.0019
1.00353
1.0047
1.00302
0.995165
0.979207
0.956882
0.933193
0.913442
0.900876
0.896629
0.900875
0.91344
0.933187
0.95687
0.979194
0.995198
1.00325
1.00548
1.00543
1
1
1
1
1
1
1
1
1
1
1
1
1
0.999998
0.999995
0.999988
0.999981
0.999998
1.00011
1.00047
1.00131
1.00274
1.00438
1.00486
1.00184
0.993262
0.979205
0.962544
0.947414
0.937171
0.93359
0.937171
0.947412
0.962539
0.979194
0.993244
1.00184
1.00497
1.00485
1.00405
1
1
1
1
1
1
1
1
1
1
1
1
1
0.999999
0.999996
0.99999
0.999981
0.99998
1.00003
1.00023
1.00076
1.00181
1.00335
1.0048
1.00483
1.00186
0.995207
0.985977
0.976681
0.969942
0.967502
0.969941
0.97668
0.985974
0.995198
1.00184
1.00481
1.00482
1.00358
1.00257
1
1
1
1
1
1
1
1
1
1
1
1
1
0.999999
0.999998
0.999993
0.999985
0.999975
0.999983
1.00007
1.00034
1.00098
1.00211
1.00358
1.00485
1.00498
1.00325
0.999771
0.995625
0.992329
0.991083
0.992328
0.995624
0.999769
1.00325
1.00497
1.00482
1.00357
1.00217
1.00132
1
1
1
1
1
1
1
1
1
1
1
1
1
1
0.999999
0.999996
0.999989
0.999977
0.999965
0.999979
1.00009
1.00041
1.00109
1.00221
1.0036
1.00486
1.00549
1.00523
1.00433
1.00339
1.003
1.00339
1.00433
1.00523
1.00548
1.00485
1.00358
1.00217
1.00107
1.0005
1
1
1
1
1
1
1
1
1
1
1
1
1
1
0.999999
0.999997
0.999992
0.99998
0.999961
0.999945
0.999973
1.00013
1.00055
1.00136
1.00259
1.00405
1.00544
1.00642
1.0069
1.00702
1.00703
1.00702
1.0069
1.00641
1.00543
1.00405
1.00257
1.00132
1.0005
1.0001
SCALARS C2 double 1
LOOKUP_TABLE default
2.49952
2.49953
2.49976
2.50053
2.50219
2.50486
2.50826
2.51179
2.51479
2.51675
2.51742
2.51675
2.51479
2.51179
2.50826
2.50486
2.50219
2.50054
2.49979
2.49961
2.49969
2.49982
2.49992
2.49997
2.49999
2.5
2.5
2.5
2.5
2.5
2.5
2.5
2.5
2.5
2.5
2.5
2.5
2.5
2.5
2.5
2.49953
2.4998
2.50062
2.50244
2.50553
2.50976
2.51441
2.51857
2.52158
2.52326
2.52379
2.52326
2.52158
2.51857
2.51441
2.50976
2.50554
2.50245
2.50067
2.49991
2.49974
2.49979
2.49989
2.49995
2.49998
2.5
2.5
2.5
2.5
2.5
2.5
2.5
2.5
2.5
2.5
2.5
2.5
2.5
2.5
2.5
2.49976
2.50062
2.50277
2.50668
2.51234
2.51881
2.52448
2.52796
2.52902
2.52867
2.52835
2.52867
2.52902
2.52796
2.52448
2.51881
2.51235
2.50672
2.50285
2.50078
2.49997
2.49979
2.49984
2.49992
2.49997
2.49999
2.5
2.5
2.5
2.5
2.5
2.5
2.5
2.5
2.5
2.5
2.5
2.5
2.5
2.5
2.50053
2.50244
2.50668
2.51345
2.52174
2.529
2.53214
2.52949
2.52246
2.51521
2.51217
2.51521
2.52246
2.52949
2.53214
2.529
2.52176
2.51351
2.5068
2.50262
2.50061
2.49992
2.49982
2.49988
2.49994
2.49998
2.49999
2.5
2.5
2.5
2.5
2.5
2.5
2.5
2.5
2.5
2.5
2.5
2.5
2.5
2.50219
2.50553
2.51234
2.52174
2.5306
2.53358
2.52537
2.50464
2.47705
2.45355
2.44437
2.45355
2.47705
2.50464
2.52537
2.53359
2.53063
2.52182
2.51249
2.50566
2.50189
2.50031
2.49987
2.49985
2.49992
2.49996
2.49999
2.5
2.5
2.5
2.5
2.5
2.5
2.5
2.5
2.5
2.5
2.5
2.5
2.5
2.50486
2.50976
2.51881
2.529
2.53358
2.52276
2.48814
2.4307
2.36565
2.31555
2.29703
2.31555
2.36565
2.4307
2.48815
2.52278
2.53363
2.52911
2.51895
2.50971
2.50384
2.50103
2.50005
2.49986
2.49989
2.49995
2.49998
2.49999
2.5
2.5
2.5
2.5
2.5
2.5
2.5
2.5
2.5
2.5
2.5
2.5
2.50826
2.51441
2.52448
2.53214
2.52537
2.48814
2.40946
2.29921
2.19159
2.11952
2.09516
2.11952
2.19159
2.29921
2.40947
2.48817
2.52544
2.53226
2.52457
2.51406
2.50624
2.50204
2.50036
2.49991
2.49988
2.49994
2.49997
2.49999
2.5
2.5
2.5
2.5
2.5
2.5
2.5
2.5
2.5
2.5
2.5
2.5
2.51179
2.51857
2.52796
2.52949
2.50464
2.4307
2.29921
2.14283
2.01854
1.95116
1.93138
1.95116
2.01854
2.14283
2.29923
2.43074
2.50472
2.52961
2.52797
2.51783
2.50865
2.50317
2.50076
2.5
2.49989
2.49992
2.49997
2.49999
2.5
2.5
2.5
2.5
2.5
2.5
2.5
2.5
2.5
2.5
2.5
2.5
2.51479
2.52158
2.52902
2.52246
2.47705
2.36565
2.19159
2.01854
1.91055
1.86618
1.85586
1.86618
1.91055
2.01855
2.19161
2.3657
2.47714
2.52257
2.52892
2.52045
2.51063
2.50419
2.50115
2.50011
2.4999
2.49992
2.49996
2.49999
2.5
2.5
2.5
2.5
2.5
2.5
2.5
2.5
2.5
2.5
2.5
2.5
2.51675
2.52326
2.52867
2.51521
2.45355
2.31555
2.11952
1.95116
1.86618
1.84134
1.83801
1.84134
1.86618
1.95116
2.11953
2.31559
2.45364
2.5153
2.52849
2.52184
2.51189
2.50489
2.50144
2.5002
2.49991
2.49992
2.49996
2.49999
2.5
2.5
2.5
2.5
2.5
2.5
2.5
2.5
2.5
2.5
2.5
2.5
2.51742
2.52379
2.52835
2.51217
2.44437
2.29703
2.09516
1.93138
1.85586
1.83801
1.83707
1.83802
1.85586
1.93138
2.09518
2.29708
2.44446
2.51226
2.52813
2.52226
2.51231
2.50514
2.50154
2.50023
2.49992
2.49992
2.49996
2.49998
2.5
2.5
2.5
2.5
2.5
2.5
2.5
2.5
2.5
2.5
2.5
2.5
2.51675
2.52326
2.52867
2.51521
2.45355
2.31555
2.11952
1.95116
1.86618
1.84134
1.83802
1.84134
1.86618
1.95116
2.11953
2.31559
2.45364
2.5153
2.52849
2.52184
2.51189
2.50489
2.50144
2.5002
2.49991
2.49992
2.49996
2.49999
2.5
2.5
2.5
2.5
2.5
2.5
2.5
2.5
2.5
2.5
2.5
2.5
2.51479
2.52158
2.52902
2.52246
2.47705
2.36565
2.19159
2.01854
1.91055
1.86618
1.85586
1.86618
1.91055
2.01855
2.19161
2.3657
2.47714
2.52256
2.52892
2.52045
2.51063
2.50419
2.50115
2.50011
2.4999
2.49992
2.49996
2.49999
2.5
2.5
2.5
2.5
2.5
2.5
2.5
2.5
2.5
2.5
2.5
2.5
2.51179
2.51857
2.52796
2.52949
2.50464
2.4307
2.29921
2.14283
2.01855
1.95116
1.93138
1.95116
2.01855
2.14283
2.29923
2.43074
2.50472
2.52961
2.52796
2.51783
2.50865
2.50317
2.50076
2.5
2.49989
2.49993
2.49997
2.49999
2.5
2.5
2.50001
2.50001
2.5
2.5
2.5
2.5
2.5
2.5
2.5
2.5
2.50826
2.51441
2.52448
2.53214
2.52537
2.48815
2.40947
2.29923
2.19161
2.11953
2.09518
2.11953
2.19161
2.29923
2.40948
2.48818
2.52544
2.53226
2.52457
2.51406
2.50624
2.50204
2.50036
2.49991
2.49989
2.49994
2.49998
2.5
2.50001
2.50002
2.50002
2.50002
2.50001
2.50001
2.50001
2.50001
2.5
2.5
2.5
2.5
2.50486
2.50976
2.51881
2.529
2.53359
2.52278
2.48817
2.43074
2.3657
2.31559
2.29708
2.31559
2.3657
2.43074
2.48818
2.52279
2.53365
2.52911
2.51896
2.50971
2.50384
2.50103
2.50005
2.49986
2.49991
2.49997
2.50001
2.50003
2.50003
2.50004
2.50004
2.50004
2.50003
2.50003
2.50003
2.50002
2.50001
2.50001
2.5
2.5
2.50219
2.50554
2.51235
2.52176
2.53063
2.53363
2.52544
2.50472
2.47714
2.45364
2.44446
2.45364
2.47714
2.50472
2.52544
2.53365
2.53067
2.52184
2.5125
2.50567
2.50189
2.50032
2.49988
2.49987
2.49995
2.50001
2.50004
2.50005
2.50006
2.50005
2.50005
2.50005
2.50006
2.50006
2.50005
2.50004
2.50003
2.50002
2.50001
2.50001
2.50054
2.50245
2.50672
2.51351
2.52182
2.52911
2.53226
2.52961
2.52257
2.5153
2.51226
2.5153
2.52256
2.52961
2.53226
2.52911
2.52184
2.51357
2.50684
2.50264
2.50062
2.49994
2.49985
2.49993
2.50001
2.50005
2.50006
2.50005
2.50002
2.49999
2.49998
2.49999
2.50002
2.50005
2.50007
2.50008
2.50007
2.50005
2.50003
2.50002
2.49979
2.50067
2.50285
2.5068
2.51249
2.51895
2.52457
2.52797
2.52892
2.52849
2.52813
2.52849
2.52892
2.52796
2.52457
2.51896
2.5125
2.50684
2.50294
2.50084
2.50001
2.49984
2.49991
2.50001
2.50005
2.50004
2.49996
2.49983
2.4997
2.4996
2.49956
2.4996
2.4997
2.49983
2.49996
2.50005
2.50009
2.50009
2.50007
2.50006
2.49961
2.49991
2.50078
2.50262
2.50566
2.50971
2.51406
2.51783
2.52045
2.52184
2.52226
2.52184
2.52045
2.51783
2.51406
2.50971
2.50567
2.50264
2.50084
2.50004
2.49984
2.4999
2.5
2.50004
2.49997
2.49976
2.49942
2.499
2.4986
2.49832
2.49822
2.49832
2.4986
2.499
2.49942
2.49977
2.49999
2.5001
2.50012
2.50012
2.49969
2.49974
2.49997
2.50061
2.50189
2.50384
2.50624
2.50865
2.51063
2.51189
2.51231
2.51189
2.51063
2.50865
2.50624
2.50384
2.50189
2.50062
2.50001
2.49984
2.49989
2.49999
2.50002
2.49989
2.49949
2.49879
2.49785
2.49684
2.49596
2.49537
2.49517
2.49537
2.49596
2.49684
2.49785
2.49879
2.4995
2.49993
2.50013
2.50019
2.49982
2.49979
2.49979
2.49992
2.50031
2.50103
2.50204
2.50317
2.50419
2.50489
2.50514
2.50489
2.50419
2.50317
2.50204
2.50103
2.50032
2.49994
2.49984
2.4999
2.49999
2.50002
2.49982
2.49924
2.49812
2.49647
2.49454
2.49269
2.49128
2.49044
2.49017
2.49044
2.49128
2.49269
2.49454
2.49648
2.49814
2.49929
2.49993
2.50019
2.49992
2.49989
2.49984
2.49982
2.49987
2.50005
2.50036
2.50076
2.50115
2.50144
2.50154
2.50144
2.50115
2.50076
2.50036
2.50005
2.49988
2.49985
2.49991
2.5
2.50002
2.49982
2.49914
2.49768
2.49533
2.49233
2.48935
2.48709
2.48587
2.48545
2.48539
2.48545
2.48587
2.48709
2.48935
2.49235
2.49536
2.49775
2.49925
2.49993
2.49997
2.49995
2.49992
2.49988
2.49985
2.49986
2.49991
2.5
2.50011
2.5002
2.50023
2.5002
2.50011
2.5
2.49991
2.49986
2.49987
2.49993
2.50001
2.50004
2.49989
2.49924
2.49768
2.49488
2.49099
2.48691
2.48408
2.48347
2.48479
2.48663
2.48746
2.48663
2.48479
2.48347
2.48409
2.48694
2.49104
2.49497
2.49778
2.49916
2.49999
2.49998
2.49997
2.49994
2.49992
2.49989
2.49988
2.49989
2.4999
2.49991
2.49992
2.49991
2.4999
2.49989
2.49989
2.49991
2.49995
2.50001
2.50005
2.49997
2.49949
2.49812
2.49533
2.49099
2.48604
2.48269
2.48334
2.48867
2.49669
2.50372
2.50648
2.50372
2.49669
2.48868
2.48335
2.48272
2.48611
2.49107
2.49532
2.49761
2.5
2.5
2.49999
2.49998
2.49996
2.49995
2.49994
2.49992
2.49992
2.49992
2.49992
2.49992
2.49992
2.49993
2.49994
2.49997
2.50001
2.50005
2.50004
2.49976
2.49879
2.49647
2.49233
2.48691
2.48269
2.48368
2.49296
2.50976
2.52908
2.5442
2.54988
2.5442
2.52908
2.50977
2.49298
2.48373
2.48277
2.48696
2.49209
2.49526
2.5
2.5
2.5
2.49999
2.49999
2.49998
2.49997
2.49997
2.49996
2.49996
2.49996
2.49996
2.49996
2.49997
2.49998
2.50001
2.50004
2.50006
2.49996
2.49942
2.49785
2.49454
2.48935
2.48408
2.48334
2.49296
2.51576
2.54826
2.58173
2.60643
2.61547
2.60643
2.58173
2.54827
2.51579
2.49301
2.48341
2.48404
2.48876
2.49238
2.5
2.5
2.5
2.5
2.5
2.49999
2.49999
2.49999
2.49999
2.49999
2.49998
2.49999
2.49999
2.49999
2.5
2.50003
2.50005
2.50005
2.49983
2.499
2.49684
2.49269
2.48709
2.48347
2.48867
2.50976
2.54826
2.59737
2.64486
2.67864
2.69079
2.67864
2.64486
2.59738
2.54829
2.50982
2.48872
2.48329
2.48608
2.48952
2.5
2.5
2.5
2.5
2.5
2.5
2.5
2.5
2.5
2.5
2.5
2.5
2.5
2.5
2.50001
2.50003
2.50006
2.50002
2.4997
2.4986
2.49596
2.49128
2.48587
2.48479
2.49669
2.52908
2.58173
2.64486
2.7036
2.7444
2.7589
2.7444
2.7036
2.64487
2.58176
2.52913
2.4967
2.48448
2.48446
2.48722
2.5
2.5
2.5
2.5
2.5
2.5
2.5
2.5
2.5
2.5
2.5
2.5
2.5
2.5
2.50002
2.50004
2.50005
2.49999
2.4996
2.49832
2.49537
2.49044
2.48545
2.48663
2.50372
2.5442
2.60643
2.67864
2.7444
2.78945
2.80533
2.78945
2.74441
2.67866
2.60647
2.54425
2.50371
2.48623
2.48377
2.4858
2.5
2.5
2.5
2.5
2.5
2.5
2.5
2.5
2.5
2.5
2.5
2.5
2.5
2.50001
2.50002
2.50004
2.50005
2.49998
2.49956
2.49822
2.49517
2.49017
2.48539
2.48746
2.50648
2.54988
2.61547
2.69079
2.7589
2.80533
2.82165
2.80533
2.7589
2.6908
2.6155
2.54993
2.50647
2.48702
2.4836
2.48533
2.5
2.5
2.5
2.5
2.5
2.5
2.5
2.5
2.5
2.5
2.5
2.5
2.5
2.50001
2.50002
2.50004
2.50005
2.49999
2.4996
2.49832
2.49537
2.49044
2.48545
2.48663
2.50372
2.5442
2.60643
2.67864
2.7444
2.78945
2.80533
2.78945
2.74441
2.67866
2.60647
2.54425
2.50371
2.48623
2.48377
2.4858
2.5
2.5
2.5
2.5
2.5
2.5
2.5
2.5
2.5
2.5
2.5
2.5
2.5
2.5
2.50001
2.50003
2.50006
2.50002
2.4997
2.4986
2.49596
2.49128
2.48587
2.48479
2.49669
2.52908
2.58173
2.64486
2.7036
2.74441
2.7589
2.74441
2.7036
2.64487
2.58176
2.52913
2.49671
2.48448
2.48446
2.48722
2.5
2.5
2.5
2.5
2.5
2.5
2.5
2.5
2.5
2.5
2.5
2.5
2.5
2.5
2.50001
2.50003
2.50006
2.50005
2.49983
2.499
2.49684
2.49269
2.48709
2.48347
2.48868
2.50977
2.54827
2.59738
2.64487
2.67866
2.6908
2.67866
2.64487
2.59739
2.5483
2.50982
2.48872
2.4833
2.48608
2.48952
2.5
2.5
2.5
2.5
2.5
2.5
2.5
2.5
2.5
2.5
2.5
2.5
2.5
2.5
2.50001
2.50003
2.50005
2.50007
2.49996
2.49942
2.49785
2.49454
2.48935
2.48409
2.48335
2.49298
2.51579
2.54829
2.58176
2.60647
2.6155
2.60647
2.58176
2.5483
2.51581
2.49303
2.48342
2.48404
2.48876
2.49238
2.5
2.5
2.5
2.5
2.5
2.5
2.5
2.5
2.5
2.5
2.5
2.5
2.5
2.5
2.50001
2.50002
2.50004
2.50008
2.50005
2.49977
2.49879
2.49648
2.49235
2.48694
2.48272
2.48373
2.49301
2.50982
2.52913
2.54425
2.54993
2.54425
2.52913
2.50982
2.49303
2.48377
2.4828
2.48698
2.49211
2.49527
2.5
2.5
2.5
2.5
2.5
2.5
2.5
2.5
2.5
2.5
2.5
2.5
2.5
2.5
2.5
2.50001
2.50003
2.50007
2.50009
2.49999
2.4995
2.49814
2.49536
2.49104
2.48611
2.48277
2.48341
2.48872
2.4967
2.50371
2.50647
2.50371
2.49671
2.48872
2.48342
2.4828
2.48617
2.49113
2.49535
2.49764
2.5
2.5
2.5
2.5
2.5
2.5
2.5
2.5
2.5
2.5
2.5
2.5
2.5
2.5
2.5
2.50001
2.50002
2.50005
2.50009
2.5001
2.49993
2.49929
2.49775
2.49497
2.49107
2.48696
2.48404
2.48329
2.48448
2.48623
2.48702
2.48623
2.48448
2.4833
2.48404
2.48698
2.49113
2.49506
2.49785
2.49922
2.5
2.5
2.5
2.5
2.5
2.5
2.5
2.5
2.5
2.5
2.5
2.5
2.5
2.5
2.5
2.5
2.50001
2.50003
2.50007
2.50012
2.50013
2.49993
2.49925
2.49778
2.49532
2.49209
2.48876
2.48608
2.48446
2.48377
2.4836
2.48377
2.48446
2.48608
2.48876
2.49211
2.49535
2.49785
2.49938
2.50006
2.5
2.5
2.5
2.5
2.5
2.5
2.5
2.5
2.5
2.5
2.5
2.5
2.5
2.5
2.5
2.5
2.50001
2.50002
2.50006
2.50012
2.50019
2.50019
2.49993
2.49916
2.49761
2.49526
2.49238
2.48952
2.48722
2.4858
2.48533
2.4858
2.48722
2.48952
2.49238
2.49527
2.49764
2.49922
2.50006
2.50038
