# vtk DataFile Version 3.0
Brusselator Concentration Output
ASCII
DATASET STRUCTURED_POINTS
DIMENSIONS 40 40 1
ORIGIN 0.0 0.0 0.0
SPACING 0.005 0.005 1.0
POINT_DATA 1600
SCALARS C1 double 1
LOOKUP_TABLE default
1
1
1
1
1
1.00001
1.00002
1.00002
1.00003
1.00003
1.00003
1.00003
1.00003
1.00002
1.00002
1.00001
1
1
1
1
1
1
1
1
1
1
1
1
1
1
1
1
1
1
1
1
1
1
1
1
1
1
1
1
1.00001
1.00002
1.00003
1.00003
1.00002
1
0.999994
1
1.00002
1.00003
1.00003
1.00002
1.00001
1
1
1
1
1
1
1
1
1
1
1
1
1
1
1
1
1
1
1
1
1
1
1
1
1
1
1.00001
1.00003
1.00004
1.00004
0.999987
0.999882
0.999768
0.99972
0.999768
0.999882
0.999987
1.00004
1.00004
1.00003
1.00001
1
1
1
1
1
1
1
1
1
1
1
1
1
1
1
1
1
1
1
1
1
1
1
1
1.00001
1.00003
1.00005
1.00004
0.999922
0.999617
0.999146
0.99871
0.99854
0.99871
0.999146
0.999617
0.999922
1.00004
1.00005
1.00003
1.00001
1
1
1
1
1
1
1
1
1
1
1
1
1
1
1
1
1
1
1
1
1
1
1.00001
1.00003
1.00005
1.00004
0.999865
0.999303
0.998182
0.996719
0.995541
0.99513
0.995541
0.996719
0.998182
0.999303
0.999865
1.00004
1.00005
1.00003
1.00001
1
1
1
1
1
1
1
1
1
1
1
1
1
1
1
1
1
1
1
1
1.00001
1.00002
1.00004
1.00004
0.999865
0.999158
0.997402
0.994463
0.991239
0.98916
0.988599
0.98916
0.991239
0.994463
0.997402
0.999158
0.999865
1.00004
1.00004
1.00002
1.00001
1
1
1
1
1
1
1
1
1
1
1
1
1
1
1
1
1
1
1
1.00002
1.00003
1.00004
0.999922
0.999303
0.997402
0.993441
0.987916
0.98338
0.98206
0.982375
0.98206
0.98338
0.987916
0.993441
0.997402
0.999303
0.999922
1.00004
1.00003
1.00001
1
1
1
1
1
1
1
1
1
1
1
1
1
1
1
1
1
1
1
1.00002
1.00003
0.999987
0.999617
0.998182
0.994463
0.987916
0.981
0.979187
0.984436
0.988627
0.984436
0.979187
0.981
0.987916
0.994463
0.998182
0.999617
0.999987
1.00003
1.00002
1.00001
1
1
1
1
1
1
1
1
1
1
1
1
1
1
1
1
1
1
1.00003
1.00002
0.999882
0.999146
0.996719
0.991239
0.98338
0.979187
0.98824
1.01035
1.02358
1.01035
0.98824
0.979187
0.98338
0.991239
0.996719
0.999146
0.999881
1.00002
1.00002
1.00001
1
1
1
1
1
1
1
1
1
1
1
1
1
1
1
1
1
1
1.00003
1
0.999768
0.99871
0.995541
0.98916
0.98206
0.984436
1.01035
1.05644
1.08212
1.05644
1.01035
0.984436
0.98206
0.98916
0.995541
0.99871
0.999768
1
1.00002
1.00001
1
1
1
1
1
1
1
1
1
1
1
1
1
1
1
1
1
1
1.00003
0.999994
0.99972
0.99854
0.99513
0.988599
0.982375
0.988627
1.02358
1.08212
1.11401
1.08212
1.02358
0.988627
0.982375
0.988599
0.99513
0.99854
0.99972
0.999991
1.00002
1.00001
1
1
1
1
1
1
1
1
1
1
1
1
1
1
1
1
1
1
1.00003
1
0.999768
0.99871
0.995541
0.98916
0.98206
0.984436
1.01035
1.05644
1.08212
1.05644
1.01035
0.984436
0.98206
0.98916
0.995541
0.99871
0.999768
1
1.00002
1.00001
1
1
1
1
1
1
1
1
1
1
1
1
1
1
1
1
1
1
1.00003
1.00002
0.999882
0.999146
0.996719
0.991239
0.98338
0.979187
0.98824
1.01035
1.02358
1.01035
0.98824
0.979187
0.98338
0.991239
0.996719
0.999146
0.999881
1.00002
1.00002
1.00001
1
1
1
1
1
1
1
1
1
1
1
1
1
1
1
1
1
1
1.00002
1.00003
0.999987
0.999617
0.998182
0.994463
0.987916
0.981
0.979187
0.984436
0.988627
0.984436
0.979187
0.981
0.987916
0.994463
0.998182
0.999617
0.999987
1.00003
1.00002
1.00001
1
1
1
1
1
1
1
1
1
1
1
1
1
1
1
1
1
1
1.00002
1.00003
1.00004
0.999922
0.999303
0.997402
0.993441
0.987916
0.98338
0.98206
0.982375
0.98206
0.98338
0.987916
0.993441
0.997402
0.999303
0.999922
1.00004
1.00003
1.00001
1
1
1
1
1
1
1
1
1
1
1
1
1
1
1
1
1
1
1
1.00001
1.00002
1.00004
1.00004
0.999865
0.999158
0.997402
0.994463
0.991239
0.98916
0.988599
0.98916
0.991239
0.994463
0.997402
0.999158
0.999865
1.00004
1.00004
1.00002
1.00001
1
1
1
1
1
1
1
1
1
1
1
1
1
1
1
1
1
1
1
1
1.00001
1.00003
1.00005
1.00004
0.999865
0.999303
0.998182
0.996719
0.995541
0.99513
0.995541
0.996719
0.998182
0.999303
0.999865
1.00004
1.00005
1.00003
1.00001
1
1
1
1
1
1
1
1
1
1
1
1
1
1
1
1
1
1
1
1
1
1
1.00001
1.00003
1.00005
1.00004
0.999922
0.999617
0.999146
0.99871
0.99854
0.99871
0.999146
0.999617
0.999922
1.00004
1.00005
1.00003
1.00001
1
1
1
1
1
1
1
1
1
1
1
1
1
1
1
1
1
1
1
1
1
1
1
1
1.00001
1.00003
1.00004
1.00004
0.999987
0.999881
0.999768
0.99972
0.999768
0.999881
0.999987
1.00004
1.00004
1.00003
1.00001
1
1
1
1
1
1
1
1
1
0.999999
0.999999
0.999999
0.999999
0.999999
0.999999
0.999999
1
1
1
1
1
1
1
1
1
1
1.00001
1.00002
1.00003
1.00003
1.00002
1
0.999991
1
1.00002
1.00003
1.00003
1.00002
1.00001
1
1
1
1
1
1
1
1
0.999999
0.999999
0.999998
0.999997
0.999996
0.999996
0.999996
0.999997
0.999998
0.999999
0.999999
1
1
1
1
1
1
1
1
1
1.00001
1.00001
1.00002
1.00002
1.00002
1.00002
1.00002
1.00002
1.00002
1.00001
1.00001
1
1
1
1
1
1
1
1
0.999999
0.999997
0.999996
0.999993
0.999992
0.999991
0.999991
0.999991
0.999992
0.999993
0.999996
0.999997
0.999999
1
1
1
1
1
1
1
1
1
1
1.00001
1.00001
1.00001
1.00001
1.00001
1.00001
1.00001
1
1
1
1
1
1
1
1
0.999999
0.999998
0.999996
0.999993
0.999988
0.999986
0.999987
0.999992
0.999995
0.999992
0.999987
0.999986
0.999988
0.999993
0.999996
0.999998
0.999999
1
1
1
1
1
1
1
1
1
1
1
1
1
1
1
1
1
1
1
1
1
1
0.999999
0.999998
0.999995
0.99999
0.999983
0.99998
0.999991
1.00002
1.00006
1.00007
1.00006
1.00002
0.999991
0.99998
0.999983
0.99999
0.999995
0.999998
0.999999
1
1
1
1
1
1
1
1
1
1
1
1
1
1
1
1
1
1
1
1
1
0.999998
0.999995
0.999989
0.99998
0.999976
1
1.00009
1.00025
1.00041
1.00047
1.00041
1.00025
1.00009
1
0.999976
0.99998
0.999989
0.999995
0.999998
1
1
1
1
1
1
1
1
1
1
1
1
1
1
1
1
1
1
1
1
0.999999
0.999996
0.99999
0.99998
0.999975
1.00002
1.00018
1.00056
1.00112
1.00161
1.0018
1.00161
1.00112
1.00056
1.00018
1.00002
0.999975
0.99998
0.99999
0.999995
1
1
1
1
1
1
1
1
1
1
1
1
1
1
1
1
1
1
1
0.999999
0.999997
0.999993
0.999983
0.999976
1.00002
1.00023
1.00083
1.00196
1.0034
1.00449
1.00484
1.00449
1.0034
1.00196
1.00083
1.00023
1.00002
0.999976
0.999983
0.99999
1
1
1
1
1
1
1
1
1
1
1
1
1
1
1
1
1
1
1
0.999999
0.999996
0.999988
0.99998
1
1.00018
1.00083
1.00235
1.00485
1.00744
1.00878
1.00895
1.00878
1.00744
1.00485
1.00235
1.00083
1.00018
1
0.999979
0.999984
1
1
1
1
1
1
1
1
1
1
1
1
1
1
1
1
1
1
0.999999
0.999998
0.999993
0.999986
0.999991
1.00009
1.00056
1.00196
1.00485
1.00874
1.0112
1.0104
1.00906
1.0104
1.0112
1.00874
1.00485
1.00196
1.00056
1.00009
0.999988
0.999979
1
1
1
1
1
1
1
1
1
1
1
1
1
1
1
1
1
1
0.999999
0.999997
0.999992
0.999987
1.00002
1.00025
1.00112
1.0034
1.00744
1.0112
1.00986
1.00227
0.997297
1.00227
1.00986
1.0112
1.00744
1.0034
1.00112
1.00025
1.00002
0.999979
1
1
1
1
1
1
1
1
1
1
1
1
1
1
1
1
1
1
0.999999
0.999996
0.999991
0.999992
1.00006
1.00041
1.00161
1.00449
1.00878
1.0104
1.00227
0.985494
0.976143
0.985494
1.00227
1.0104
1.00878
1.00449
1.00161
1.0004
1.00005
0.999984
1
1
1
1
1
1
1
1
1
1
1
1
1
1
1
1
1
1
0.999999
0.999996
0.999991
0.999995
1.00007
1.00047
1.0018
1.00484
1.00895
1.00906
0.997297
0.976143
0.964847
0.976143
0.997297
1.00906
1.00895
1.00484
1.0018
1.00047
1.00007
0.999986
1
1
1
1
1
1
1
1
1
1
1
1
1
1
1
1
1
1
0.999999
0.999996
0.999991
0.999992
1.00006
1.00041
1.00161
1.00449
1.00878
1.0104
1.00227
0.985494
0.976143
0.985494
1.00227
1.0104
1.00878
1.00449
1.00161
1.0004
1.00005
0.999984
1
1
1
1
1
1
1
1
1
1
1
1
1
1
1
1
1
1
0.999999
0.999997
0.999992
0.999987
1.00002
1.00025
1.00112
1.0034
1.00744
1.0112
1.00986
1.00227
0.997297
1.00227
1.00986
1.0112
1.00744
1.0034
1.00112
1.00025
1.00002
0.999979
1
1
1
1
1
1
1
1
1
1
1
1
1
1
1
1
1
1
0.999999
0.999998
0.999993
0.999986
0.999991
1.00009
1.00056
1.00196
1.00485
1.00874
1.0112
1.0104
1.00906
1.0104
1.0112
1.00874
1.00485
1.00196
1.00056
1.00009
0.999988
0.999979
1
1
1
1
1
1
1
1
1
1
1
1
1
1
1
1
1
1
1
0.999999
0.999996
0.999988
0.99998
1
1.00018
1.00083
1.00235
1.00485
1.00744
1.00878
1.00895
1.00878
1.00744
1.00485
1.00235
1.00083
1.00018
1
0.999979
0.999984
1
1
1
1
1
1
1
1
1
1
1
1
1
1
1
1
1
1
1
0.999999
0.999997
0.999993
0.999983
0.999976
1.00002
1.00023
1.00083
1.00196
1.0034
1.00449
1.00484
1.00449
1.0034
1.00196
1.00083
1.00023
1.00002
0.999976
0.999983
0.99999
1
1
1
1
1
1
1
1
1
1
1
1
1
1
1
1
1
1
1
1
0.999999
0.999996
0.99999
0.99998
0.999975
1.00002
1.00018
1.00056
1.00112
1.00161
1.0018
1.00161
1.00112
1.00056
1.00018
1.00002
0.999975
0.99998
0.99999
0.999995
1
1
1
1
1
1
1
1
1
1
1
1
1
1
1
1
1
1
1
1
1
0.999998
0.999995
0.999989
0.99998
0.999976
1
1.00009
1.00025
1.0004
1.00047
1.0004
1.00025
1.00009
1
0.999976
0.99998
0.999989
0.999995
0.999998
1
1
1
1
1
1
1
1
1
1
1
1
1
1
1
1
1
1
1
1
1
0.999999
0.999998
0.999995
0.99999
0.999983
0.999979
0.999988
1.00002
1.00005
1.00007
1.00005
1.00002
0.999988
0.999979
0.999983
0.99999
0.999995
0.999998
0.999999
1
1
1
1
1
1
1
1
1
1
1
1
1
1
1
1
1
1
1
1
1
1
0.999999
0.999998
0.999995
0.99999
0.999984
0.999979
0.999979
0.999984
0.999986
0.999984
0.999979
0.999979
0.999984
0.99999
0.999995
0.999998
0.999999
1
SCALARS C2 double 1
LOOKUP_TABLE default
2.5
2.5
2.5
2.5
2.5
2.49999
2.49998
2.49997
2.49996
2.49995
2.49994
2.49995
2.49996
2.49997
2.49998
2.49999
2.5
2.5
2.5
2.5
2.5
2.5
2.5
2.5
2.5
2.5
2.5
2.5
2.5
2.5
2.5
2.5
2.5
2.5
2.5
2.5
2.5
2.5
2.5
2.5
2.5
2.5
2.5
2.5
2.49999
2.49997
2.49995
2.49993
2.49991
2.49991
2.49991
2.49991
2.49991
2.49993
2.49995
2.49997
2.49999
2.5
2.5
2.5
2.5
2.5
2.5
2.5
2.5
2.5
2.5
2.5
2.5
2.5
2.5
2.5
2.5
2.5
2.5
2.5
2.5
2.5
2.5
2.5
2.5
2.5
2.49999
2.49999
2.49996
2.49993
2.49988
2.49986
2.4999
2.49997
2.50001
2.49997
2.4999
2.49986
2.49988
2.49993
2.49996
2.49999
2.49999
2.5
2.5
2.5
2.5
2.5
2.5
2.5
2.5
2.5
2.5
2.5
2.5
2.5
2.5
2.5
2.5
2.5
2.5
2.5
2.5
2.5
2.5
2.5
2.49999
2.49996
2.49991
2.49985
2.49982
2.49996
2.50034
2.50078
2.50098
2.50078
2.50034
2.49996
2.49982
2.49985
2.49991
2.49996
2.49999
2.5
2.5
2.5
2.5
2.5
2.5
2.5
2.5
2.5
2.5
2.5
2.5
2.5
2.5
2.5
2.5
2.5
2.5
2.5
2.5
2.5
2.5
2.49999
2.49996
2.49991
2.49983
2.49981
2.50009
2.50105
2.50275
2.50448
2.50519
2.50448
2.50275
2.50105
2.50009
2.49981
2.49983
2.49991
2.49996
2.49999
2.5
2.5
2.5
2.5
2.5
2.5
2.5
2.5
2.5
2.5
2.5
2.5
2.5
2.5
2.5
2.5
2.5
2.5
2.5
2.5
2.49999
2.49997
2.49993
2.49985
2.49981
2.50016
2.50169
2.50526
2.51057
2.5154
2.51721
2.5154
2.51057
2.50526
2.50169
2.50016
2.49981
2.49985
2.49993
2.49997
2.49999
2.5
2.5
2.5
2.5
2.5
2.5
2.5
2.5
2.5
2.5
2.5
2.5
2.5
2.5
2.5
2.5
2.5
2.5
2.5
2.49998
2.49995
2.49988
2.49982
2.50009
2.50169
2.50645
2.51582
2.52807
2.53778
2.5409
2.53778
2.52807
2.51582
2.50645
2.50169
2.50009
2.49982
2.49988
2.49995
2.49998
2.5
2.5
2.5
2.5
2.5
2.5
2.5
2.5
2.5
2.5
2.5
2.5
2.5
2.5
2.5
2.5
2.5
2.5
2.5
2.49997
2.49993
2.49986
2.49996
2.50105
2.50526
2.51582
2.53407
2.55476
2.56768
2.57013
2.56768
2.55476
2.53407
2.51582
2.50526
2.50105
2.49996
2.49986
2.49993
2.49997
2.49999
2.5
2.5
2.5
2.5
2.5
2.5
2.5
2.5
2.5
2.5
2.5
2.5
2.5
2.5
2.5
2.5
2.5
2.5
2.49996
2.49991
2.4999
2.50034
2.50275
2.51057
2.52807
2.55476
2.57897
2.58502
2.58006
2.58502
2.57897
2.55476
2.52807
2.51057
2.50275
2.50034
2.4999
2.49992
2.49997
2.49999
2.5
2.5
2.5
2.5
2.5
2.5
2.5
2.5
2.5
2.5
2.5
2.5
2.5
2.5
2.5
2.5
2.5
2.5
2.49995
2.49991
2.49997
2.50078
2.50448
2.5154
2.53778
2.56768
2.58502
2.56888
2.54739
2.56888
2.58502
2.56768
2.53778
2.5154
2.50448
2.50078
2.49997
2.49991
2.49996
2.49999
2.5
2.5
2.5
2.5
2.5
2.5
2.5
2.5
2.5
2.5
2.5
2.5
2.5
2.5
2.5
2.5
2.5
2.5
2.49994
2.49991
2.50001
2.50098
2.50519
2.51721
2.5409
2.57013
2.58006
2.54739
2.51463
2.54739
2.58006
2.57013
2.5409
2.51721
2.50519
2.50098
2.50001
2.49992
2.49996
2.49999
2.5
2.5
2.5
2.5
2.5
2.5
2.5
2.5
2.5
2.5
2.5
2.5
2.5
2.5
2.5
2.5
2.5
2.5
2.49995
2.49991
2.49997
2.50078
2.50448
2.5154
2.53778
2.56768
2.58502
2.56888
2.54739
2.56888
2.58502
2.56768
2.53778
2.5154
2.50448
2.50078
2.49997
2.49991
2.49996
2.49999
2.5
2.5
2.5
2.5
2.5
2.5
2.5
2.5
2.5
2.5
2.5
2.5
2.5
2.5
2.5
2.5
2.5
2.5
2.49996
2.49991
2.4999
2.50034
2.50275
2.51057
2.52807
2.55476
2.57897
2.58502
2.58006
2.58502
2.57897
2.55476
2.52807
2.51057
2.50275
2.50034
2.4999
2.49992
2.49997
2.49999
2.5
2.5
2.5
2.5
2.5
2.5
2.5
2.5
2.5
2.5
2.5
2.5
2.5
2.5
2.5
2.5
2.5
2.5
2.49997
2.49993
2.49986
2.49996
2.50105
2.50526
2.51582
2.53407
2.55476
2.56768
2.57013
2.56768
2.55476
2.53407
2.51582
2.50526
2.50105
2.49996
2.49986
2.49993
2.49997
2.49999
2.5
2.5
2.5
2.5
2.5
2.5
2.5
2.5
2.5
2.5
2.5
2.5
2.5
2.5
2.5
2.5
2.5
2.5
2.49998
2.49995
2.49988
2.49982
2.50009
2.50169
2.50645
2.51582
2.52807
2.53778
2.5409
2.53778
2.52807
2.51582
2.50645
2.50169
2.50009
2.49982
2.49988
2.49995
2.49998
2.5
2.5
2.5
2.5
2.5
2.5
2.5
2.5
2.5
2.5
2.5
2.5
2.5
2.5
2.5
2.5
2.5
2.5
2.5
2.49999
2.49997
2.49993
2.49985
2.49981
2.50016
2.50169
2.50526
2.51057
2.5154
2.51721
2.5154
2.51057
2.50526
2.50169
2.50016
2.49981
2.49985
2.49993
2.49997
2.49999
2.5
2.5
2.5
2.5
2.5
2.5
2.5
2.5
2.5
2.5
2.5
2.5
2.5
2.5
2.5
2.5
2.5
2.5
2.5
2.5
2.49999
2.49996
2.49991
2.49983
2.49981
2.50009
2.50105
2.50275
2.50448
2.50519
2.50448
2.50275
2.50105
2.50009
2.49981
2.49983
2.49991
2.49996
2.49999
2.5
2.5
2.5
2.5
2.5
2.5
2.5
2.5
2.5
2.5
2.5
2.5
2.5
2.5
2.5
2.5
2.5
2.5
2.5
2.5
2.5
2.5
2.49999
2.49996
2.49991
2.49985
2.49982
2.49996
2.50034
2.50078
2.50098
2.50078
2.50034
2.49996
2.49982
2.49985
2.49991
2.49996
2.49999
2.5
2.5
2.5
2.5
2.5
2.5
2.5
2.5
2.5
2.5
2.5
2.5
2.5
2.5
2.5
2.5
2.5
2.5
2.5
2.5
2.5
2.5
2.5
2.49999
2.49999
2.49996
2.49993
2.49988
2.49986
2.4999
2.49997
2.50001
2.49997
2.4999
2.49986
2.49988
2.49993
2.49996
2.49999
2.49999
2.5
2.5
2.5
2.5
2.5
2.5
2.5
2.5
2.5
2.5
2.5
2.5
2.5
2.5
2.5
2.5
2.5
2.5
2.5
2.5
2.5
2.5
2.5
2.5
2.5
2.49999
2.49997
2.49995
2.49993
2.49992
2.49991
2.49992
2.49991
2.49992
2.49993
2.49995
2.49997
2.49999
2.5
2.5
2.5
2.5
2.5
2.5
2.5
2.5
2.5
2.5
2.5
2.5
2.5
2.50001
2.5
2.5
2.5
2.5
2.5
2.5
2.5
2.5
2.5
2.5
2.5
2.5
2.5
2.5
2.49999
2.49998
2.49997
2.49997
2.49996
2.49996
2.49996
2.49997
2.49997
2.49998
2.49999
2.5
2.5
2.5
2.5
2.5
2.5
2.5
2.5
2.5
2.5
2.50001
2.50001
2.50001
2.50002
2.50002
2.50002
2.50001
2.50001
2.50001
2.5
2.5
2.5
2.5
2.5
2.5
2.5
2.5
2.5
2.5
2.5
2.5
2.49999
2.49999
2.49999
2.49999
2.49999
2.49999
2.49999
2.5
2.5
2.5
2.5
2.5
2.5
2.5
2.5
2.5
2.5
2.5
2.50001
2.50002
2.50003
2.50004
2.50004
2.50004
2.50004
2.50004
2.50003
2.50002
2.50001
2.5
2.5
2.5
2.5
2.5
2.5
2.5
2.5
2.5
2.5
2.5
2.5
2.5
2.5
2.5
2.5
2.5
2.5
2.5
2.5
2.5
2.5
2.5
2.5
2.5
2.5
2.5
2.50001
2.50001
2.50003
2.50005
2.50006
2.50006
2.50005
2.50004
2.50005
2.50006
2.50006
2.50005
2.50003
2.50001
2.50001
2.5
2.5
2.5
2.5
2.5
2.5
2.5
2.5
2.5
2.5
2.5
2.5
2.5
2.5
2.5
2.5
2.5
2.5
2.5
2.5
2.5
2.5
2.5
2.5
2.50001
2.50001
2.50003
2.50006
2.50009
2.50007
2.49997
2.49983
2.49977
2.49983
2.49997
2.50007
2.50009
2.50006
2.50003
2.50001
2.50001
2.5
2.5
2.5
2.5
2.5
2.5
2.5
2.5
2.5
2.5
2.5
2.5
2.5
2.5
2.5
2.5
2.5
2.5
2.5
2.5
2.5
2.5
2.5
2.50001
2.50003
2.50007
2.5001
2.50005
2.49979
2.49924
2.49862
2.49835
2.49862
2.49924
2.49979
2.50005
2.5001
2.50007
2.50003
2.50001
2.50001
2.5
2.5
2.5
2.5
2.5
2.5
2.5
2.5
2.5
2.5
2.5
2.5
2.5
2.5
2.5
2.5
2.5
2.5
2.5
2.5
2.5
2.50001
2.50003
2.50006
2.5001
2.50004
2.49961
2.49844
2.49646
2.49447
2.49367
2.49447
2.49646
2.49844
2.49961
2.50004
2.5001
2.50006
2.50003
2.50001
2.5
2.5
2.5
2.5
2.5
2.5
2.5
2.5
2.5
2.5
2.5
2.5
2.5
2.5
2.5
2.5
2.5
2.5
2.5
2.5
2.50001
2.50002
2.50005
2.50009
2.50005
2.49961
2.49804
2.49453
2.48932
2.48466
2.48298
2.48466
2.48932
2.49453
2.49804
2.49961
2.50005
2.50009
2.50005
2.50002
2.5
2.5
2.5
2.5
2.5
2.5
2.5
2.5
2.5
2.5
2.5
2.5
2.5
2.5
2.5
2.5
2.5
2.5
2.5
2.5
2.50001
2.50003
2.50006
2.50007
2.49979
2.49844
2.49453
2.4868
2.47675
2.4693
2.46732
2.4693
2.47675
2.4868
2.49453
2.49844
2.49979
2.50007
2.50006
2.50004
2.5
2.5
2.5
2.5
2.5
2.5
2.5
2.5
2.5
2.5
2.5
2.5
2.5
2.5
2.5
2.5
2.5
2.5
2.5
2.5
2.50001
2.50004
2.50006
2.49997
2.49924
2.49646
2.48932
2.47675
2.46317
2.45669
2.45695
2.45669
2.46317
2.47675
2.48932
2.49646
2.49924
2.49997
2.50007
2.50005
2.5
2.5
2.5
2.5
2.5
2.5
2.5
2.5
2.5
2.5
2.5
2.5
2.5
2.5
2.5
2.5
2.5
2.5
2.5
2.5
2.50002
2.50004
2.50005
2.49983
2.49862
2.49447
2.48466
2.4693
2.45669
2.4568
2.46207
2.4568
2.45669
2.4693
2.48466
2.49447
2.49862
2.49983
2.50005
2.50005
2.5
2.5
2.5
2.5
2.5
2.5
2.5
2.5
2.5
2.5
2.5
2.5
2.5
2.5
2.5
2.5
2.5
2.5
2.5
2.50001
2.50002
2.50004
2.50004
2.49977
2.49835
2.49367
2.48298
2.46732
2.45695
2.46207
2.47055
2.46207
2.45695
2.46732
2.48298
2.49367
2.49835
2.49977
2.50004
2.50006
2.5
2.5
2.5
2.5
2.5
2.5
2.5
2.5
2.5
2.5
2.5
2.5
2.5
2.5
2.5
2.5
2.5
2.5
2.5
2.5
2.50002
2.50004
2.50005
2.49983
2.49862
2.49447
2.48466
2.4693
2.45669
2.4568
2.46207
2.4568
2.45669
2.4693
2.48466
2.49447
2.49862
2.49983
2.50005
2.50005
2.5
2.5
2.5
2.5
2.5
2.5
2.5
2.5
2.5
2.5
2.5
2.5
2.5
2.5
2.5
2.5
2.5
2.5
2.5
2.5
2.50001
2.50004
2.50006
2.49997
2.49924
2.49646
2.48932
2.47675
2.46317
2.45669
2.45695
2.45669
2.46317
2.47675
2.48932
2.49646
2.49924
2.49997
2.50007
2.50005
2.5
2.5
2.5
2.5
2.5
2.5
2.5
2.5
2.5
2.5
2.5
2.5
2.5
2.5
2.5
2.5
2.5
2.5
2.5
2.5
2.50001
2.50003
2.50006
2.50007
2.49979
2.49844
2.49453
2.4868
2.47675
2.4693
2.46732
2.4693
2.47675
2.4868
2.49453
2.49844
2.49979
2.50007
2.50006
2.50004
2.5
2.5
2.5
2.5
2.5
2.5
2.5
2.5
2.5
2.5
2.5
2.5
2.5
2.5
2.5
2.5
2.5
2.5
2.5
2.5
2.50001
2.50002
2.50005
2.50009
2.50005
2.49961
2.49804
2.49453
2.48932
2.48466
2.48298
2.48466
2.48932
2.49453
2.49804
2.49961
2.50005
2.50009
2.50005
2.50002
2.5
2.5
2.5
2.5
2.5
2.5
2.5
2.5
2.5
2.5
2.5
2.5
2.5
2.5
2.5
2.5
2.5
2.5
2.5
2.5
2.5
2.50001
2.50003
2.50006
2.5001
2.50004
2.49961
2.49844
2.49646
2.49447
2.49367
2.49447
2.49646
2.49844
2.49961
2.50004
2.5001
2.50006
2.50003
2.50001
2.5
2.5
2.5
2.5
2.5
2.5
2.5
2.5
2.5
2.5
2.5
2.5
2.5
2.5
2.5
2.5
2.5
2.5
2.5
2.5
2.5
2.5
2.50001
2.50003
2.50007
2.5001
2.50005
2.49979
2.49924
2.49862
2.49835
2.49862
2.49924
2.49979
2.50005
2.5001
2.50007
2.50003
2.50001
2.50001
2.5
2.5
2.5
2.5
2.5
2.5
2.5
2.5
2.5
2.5
2.5
2.5
2.5
2.5
2.5
2.5
2.5
2.5
2.5
2.5
2.5
2.5
2.50001
2.50001
2.50003
2.50006
2.50009
2.50007
2.49997
2.49983
2.49977
2.49983
2.49997
2.50007
2.50009
2.50006
2.50003
2.50001
2.50001
2.5
2.5
2.5
2.5
2.5
2.5
2.5
2.5
2.5
2.5
2.5
2.5
2.5
2.5
2.5
2.5
2.5
2.5
2.5
2.5
2.5
2.5
2.5
2.5
2.50001
2.50001
2.50003
2.50005
2.50006
2.50007
2.50005
2.50004
2.50005
2.50007
2.50006
2.50005
2.50003
2.50001
2.50001
2.5
2.5
2.5
2.5
2.5
2.5
2.5
2.5
2.5
2.5
2.5
2.5
2.5
2.5
2.5
2.5
2.5
2.5
2.5
2.5
2.5
2.5
2.5
2.5
2.5
2.5
2.50001
2.50001
2.50002
2.50004
2.50005
2.50005
2.50006
2.50005
2.50005
2.50004
2.50002
2.50001
2.50001
2.5
2.5
2.5
