# vtk DataFile Version 3.0
Brusselator Concentration Output
ASCII
DATASET STRUCTURED_POINTS
DIMENSIONS 40 40 1
ORIGIN 0.0 0.0 0.0
SPACING 0.005 0.005 1.0
POINT_DATA 1600
SCALARS C1 double 1
LOOKUP_TABLE default
0.999991
1.00003
1.00014
1.00037
1.00073
1.00118
1.0016
1.00189
1.00199
1.00198
1.00196
1.00198
1.00199
1.00189
1.0016
1.00118
1.00073
1.00037
1.00015
1.00004
0.999999
0.999992
0.999994
0.999997
0.999999
1
1
1
1
1
1
1
1
1
1
1
1
1
1
1
1.00003
1.00012
1.00033
1.00069
1.00116
1.00156
1.00167
1.00137
1.00077
1.00019
0.99996
1.00019
1.00077
1.00137
1.00167
1.00156
1.00116
1.0007
1.00034
1.00013
1.00003
1
0.999995
0.999996
0.999998
0.999999
1
1
1
1
1
1
1
1
1
1
1
1
1
1
1.00014
1.00033
1.00073
1.00127
1.00169
1.00153
1.00034
0.998141
0.995569
0.993537
0.992772
0.993537
0.995569
0.998141
1.00034
1.00153
1.00169
1.00127
1.00073
1.00033
1.00012
1.00003
1
0.999996
0.999997
0.999999
1
1
1
1
1
1
1
1
1
1
1
1
1
1
1.00037
1.00069
1.00127
1.00176
1.00141
0.999207
0.994635
0.988355
0.982064
0.977548
0.975925
0.977548
0.982064
0.988355
0.994635
0.999208
1.00141
1.00176
1.00127
1.00068
1.00028
1.00009
1.00002
0.999999
0.999997
0.999998
0.999999
1
1
1
1
1
1
1
1
1
1
1
1
1
1.00073
1.00116
1.00169
1.00141
0.998697
0.992032
0.981402
0.968997
0.958015
0.950821
0.948366
0.950821
0.958015
0.968997
0.981403
0.992033
0.998699
1.00141
1.00169
1.00111
1.00053
1.0002
1.00005
1.00001
0.999998
0.999998
0.999999
1
1
1
1
1
1
1
1
1
1
1
1
1
1.00118
1.00156
1.00153
0.999207
0.992032
0.978505
0.960271
0.941818
0.927526
0.919231
0.916612
0.919231
0.927526
0.941819
0.960272
0.978506
0.992034
0.999206
1.0015
1.00145
1.00083
1.00035
1.00011
1.00002
1
0.999998
0.999999
0.999999
1
1
1
1
1
1
1
1
1
1
1
1
1.0016
1.00167
1.00034
0.994635
0.981402
0.960271
0.935603
0.914161
0.900406
0.894162
0.892596
0.894162
0.900406
0.914161
0.935604
0.960273
0.981404
0.994628
1.00029
1.00148
1.00108
1.00052
1.00019
1.00005
1.00001
0.999999
0.999998
0.999999
1
1
1
1
1
1
1
1
1
1
1
1
1.00189
1.00137
0.998141
0.988355
0.968997
0.941818
0.914161
0.894341
0.885799
0.885188
0.886039
0.885188
0.885799
0.894341
0.914161
0.94182
0.968997
0.988339
0.998062
1.0011
1.00121
1.00067
1.00027
1.00008
1.00002
1
0.999998
0.999999
1
1
1
1
1
1
1
1
1
1
1
1
1.00199
1.00077
0.995569
0.982064
0.958015
0.927526
0.900406
0.885799
0.885712
0.893213
0.897456
0.893213
0.885712
0.8858
0.900407
0.927528
0.958013
0.98204
0.995462
1.00043
1.00121
1.00078
1.00034
1.00011
1.00002
1
0.999999
0.999999
1
1
1
1
1
1
1
1
1
1
1
1
1.00198
1.00019
0.993537
0.977548
0.950821
0.919231
0.894162
0.885188
0.893213
0.90836
0.915807
0.90836
0.893213
0.885188
0.894163
0.919232
0.950818
0.977518
0.99341
0.999814
1.00115
1.00083
1.00038
1.00013
1.00003
1
0.999999
0.999999
1
1
1
1
1
1
1
1
1
1
1
1
1.00196
0.99996
0.992772
0.975925
0.948366
0.916612
0.892596
0.886039
0.897456
0.915807
0.924603
0.915807
0.897456
0.88604
0.892597
0.916613
0.948362
0.975893
0.992638
0.999566
1.00111
1.00085
1.0004
1.00013
1.00003
1
0.999999
0.999999
1
1
1
1
1
1
1
1
1
1
1
1
1.00198
1.00019
0.993537
0.977548
0.950821
0.919231
0.894162
0.885188
0.893213
0.90836
0.915807
0.90836
0.893214
0.885188
0.894163
0.919232
0.950818
0.977518
0.99341
0.999814
1.00115
1.00083
1.00038
1.00013
1.00003
1
0.999999
0.999999
1
1
1
1
1
1
1
1
1
1
1
1
1.00199
1.00077
0.995569
0.982064
0.958015
0.927526
0.900406
0.885799
0.885712
0.893213
0.897456
0.893214
0.885712
0.8858
0.900407
0.927528
0.958013
0.98204
0.995462
1.00043
1.00121
1.00078
1.00034
1.00011
1.00002
1
0.999999
0.999999
1
1
1
1
1
1
1
1
1
1
1
1
1.00189
1.00137
0.998141
0.988355
0.968997
0.941819
0.914161
0.894341
0.8858
0.885188
0.88604
0.885188
0.8858
0.894342
0.914162
0.94182
0.968997
0.988339
0.998062
1.0011
1.00121
1.00067
1.00027
1.00008
1.00002
1
0.999999
0.999999
1
1
1
1
1
1
1
1
1
1
1
1
1.0016
1.00167
1.00034
0.994635
0.981403
0.960272
0.935604
0.914161
0.900407
0.894163
0.892597
0.894163
0.900407
0.914162
0.935604
0.960273
0.981404
0.994628
1.00029
1.00148
1.00108
1.00052
1.00019
1.00005
1.00001
0.999999
0.999999
1
1
1
1
1
1
1
1
1
1
1
1
1
1.00118
1.00156
1.00153
0.999208
0.992033
0.978506
0.960273
0.94182
0.927528
0.919232
0.916613
0.919232
0.927528
0.94182
0.960273
0.978507
0.992035
0.999207
1.0015
1.00145
1.00083
1.00035
1.00011
1.00002
1
0.999999
1
1
1
1
0.999999
1
1
1
1
1
1
1
1
1
1.00073
1.00116
1.00169
1.00141
0.998699
0.992034
0.981404
0.968997
0.958013
0.950818
0.948362
0.950818
0.958013
0.968997
0.981404
0.992035
0.998701
1.00141
1.00169
1.00111
1.00053
1.0002
1.00005
1.00001
0.999999
0.999998
0.999998
0.999996
0.999993
0.999991
0.99999
0.999991
0.999993
0.999996
0.999999
1
1
1
1
1
1.00037
1.0007
1.00127
1.00176
1.00141
0.999206
0.994628
0.988339
0.98204
0.977518
0.975893
0.977518
0.98204
0.988339
0.994628
0.999207
1.00141
1.00177
1.00127
1.00068
1.00028
1.00009
1.00002
1
0.999996
0.999992
0.999985
0.999975
0.999964
0.999957
0.999954
0.999957
0.999965
0.999975
0.999986
0.999994
0.999999
1
1
1
1.00015
1.00034
1.00073
1.00127
1.00169
1.0015
1.00029
0.998062
0.995462
0.99341
0.992638
0.99341
0.995462
0.998062
1.00029
1.0015
1.00169
1.00127
1.00074
1.00034
1.00012
1.00003
1
0.999993
0.999983
0.999964
0.999936
0.999905
0.999877
0.999859
0.999852
0.999859
0.999877
0.999905
0.999937
0.999965
0.999985
0.999997
1
1
1.00004
1.00013
1.00033
1.00068
1.00111
1.00145
1.00148
1.0011
1.00043
0.999814
0.999566
0.999814
1.00043
1.0011
1.00148
1.00145
1.00111
1.00068
1.00034
1.00013
1.00004
1
0.99999
0.999971
0.999934
0.999877
0.999806
0.999737
0.999684
0.999652
0.999642
0.999652
0.999684
0.999738
0.999807
0.999878
0.999936
0.999975
0.999995
1
0.999999
1.00003
1.00012
1.00028
1.00053
1.00083
1.00108
1.00121
1.00121
1.00115
1.00111
1.00115
1.00121
1.00121
1.00108
1.00083
1.00053
1.00028
1.00012
1.00004
1
0.999987
0.99996
0.999904
0.999808
0.999681
0.999552
0.999455
0.999408
0.999397
0.999397
0.999397
0.999408
0.999455
0.999552
0.999681
0.999809
0.999907
0.999967
0.999992
0.999992
1
1.00003
1.00009
1.0002
1.00035
1.00052
1.00067
1.00078
1.00083
1.00085
1.00083
1.00078
1.00067
1.00052
1.00035
1.0002
1.00009
1.00003
1
0.999987
0.999956
0.999884
0.99975
0.999561
0.999364
0.999243
0.999257
0.99939
0.999545
0.999612
0.999545
0.99939
0.999257
0.999243
0.999365
0.999562
0.999754
0.999887
0.999952
0.999994
0.999995
1
1.00002
1.00005
1.00011
1.00019
1.00027
1.00034
1.00038
1.0004
1.00038
1.00034
1.00027
1.00019
1.00011
1.00005
1.00002
1
0.99999
0.99996
0.999884
0.999728
0.999487
0.999227
0.999107
0.999309
0.999896
1.0007
1.0014
1.00167
1.0014
1.0007
0.999896
0.99931
0.999108
0.999229
0.999489
0.999723
0.999851
0.999997
0.999996
0.999996
0.999999
1.00001
1.00002
1.00005
1.00008
1.00011
1.00013
1.00013
1.00013
1.00011
1.00008
1.00005
1.00002
1.00001
1
0.999993
0.999971
0.999904
0.99975
0.999487
0.999178
0.999054
0.999493
1.00082
1.00298
1.00541
1.00731
1.00802
1.00731
1.00541
1.00298
1.00082
0.999495
0.999055
0.999175
0.999461
0.999657
0.999999
0.999998
0.999997
0.999997
0.999998
1
1.00001
1.00002
1.00002
1.00003
1.00003
1.00003
1.00002
1.00002
1.00001
1
0.999999
0.999996
0.999983
0.999934
0.999808
0.999561
0.999227
0.999054
0.999595
1.00158
1.00542
1.01066
1.01594
1.01974
1.0211
1.01974
1.01594
1.01066
1.00542
1.00158
0.999594
0.999039
0.999163
0.999369
1
0.999999
0.999999
0.999998
0.999998
0.999998
0.999999
1
1
1
1
1
1
1
0.999999
0.999999
0.999998
0.999992
0.999964
0.999877
0.999681
0.999364
0.999107
0.999493
1.00158
1.00649
1.01448
1.0241
1.03272
1.03827
1.0401
1.03827
1.03272
1.0241
1.01448
1.00649
1.00157
0.999458
0.998985
0.999045
1
1
1
0.999999
0.999999
0.999999
0.999998
0.999998
0.999999
0.999999
0.999999
0.999999
0.999999
0.999999
0.999999
1
0.999998
0.999985
0.999936
0.999806
0.999552
0.999243
0.999309
1.00082
1.00542
1.01448
1.02746
1.04106
1.05111
1.05609
1.05739
1.05609
1.05111
1.04106
1.02746
1.01448
1.00541
1.00076
0.999116
0.998795
1
1
1
1
1
0.999999
0.999999
0.999999
0.999999
0.999999
0.999999
0.999999
0.999999
0.999999
1
1
0.999996
0.999975
0.999905
0.999737
0.999455
0.999257
0.999896
1.00298
1.01066
1.0241
1.04106
1.05549
1.06223
1.06247
1.06163
1.06247
1.06223
1.05549
1.04106
1.0241
1.01063
1.00288
0.999633
0.998713
1
1
1
1
1
1
1
1
1
1
1
1
1
1
1
1
0.999993
0.999964
0.999877
0.999684
0.999408
0.99939
1.0007
1.00541
1.01594
1.03272
1.05111
1.06223
1.06132
1.05403
1.05015
1.05403
1.06132
1.06223
1.05111
1.03272
1.01591
1.00529
1.00038
0.998798
1
1
1
1
1
1
1
1
1
1
1
1
1
1
1
1
0.999991
0.999957
0.999859
0.999652
0.999397
0.999545
1.0014
1.00731
1.01974
1.03827
1.05609
1.06247
1.05403
1.04031
1.03401
1.04031
1.05403
1.06247
1.05609
1.03826
1.0197
1.00716
1.00105
0.998941
1
1
1
1
1
1
1
1
1
1
1
1
1
1
1
0.999999
0.99999
0.999954
0.999852
0.999642
0.999397
0.999612
1.00167
1.00802
1.0211
1.0401
1.05739
1.06163
1.05015
1.03401
1.02684
1.03401
1.05015
1.06163
1.05738
1.04009
1.02105
1.00787
1.00131
0.999008
1
1
1
1
1
1
1
1
1
1
1
1
1
1
1
1
0.999991
0.999957
0.999859
0.999652
0.999397
0.999545
1.0014
1.00731
1.01974
1.03827
1.05609
1.06247
1.05403
1.04031
1.03401
1.04031
1.05403
1.06247
1.05609
1.03826
1.0197
1.00716
1.00105
0.998941
1
1
1
1
1
1
1
1
1
1
1
1
1
1
1
1
0.999993
0.999965
0.999877
0.999684
0.999408
0.99939
1.0007
1.00541
1.01594
1.03272
1.05111
1.06223
1.06132
1.05403
1.05015
1.05403
1.06132
1.06223
1.05111
1.03272
1.01591
1.00529
1.00038
0.998798
1
1
1
1
1
1
1
1
1
1
1
1
1
1
1
1
0.999996
0.999975
0.999905
0.999738
0.999455
0.999257
0.999896
1.00298
1.01066
1.0241
1.04106
1.05549
1.06223
1.06247
1.06163
1.06247
1.06223
1.05549
1.04106
1.0241
1.01063
1.00288
0.999633
0.998713
1
1
1
1
1
1
1
1
1
1
1
1
1
1
1
1
0.999999
0.999986
0.999937
0.999807
0.999552
0.999243
0.99931
1.00082
1.00542
1.01448
1.02746
1.04106
1.05111
1.05609
1.05738
1.05609
1.05111
1.04106
1.02746
1.01448
1.00541
1.00076
0.999116
0.998795
1
1
1
1
1
1
1
1
1
1
1
1
1
1
1
1
1
0.999994
0.999965
0.999878
0.999681
0.999365
0.999108
0.999495
1.00158
1.00649
1.01448
1.0241
1.03272
1.03826
1.04009
1.03826
1.03272
1.0241
1.01448
1.00649
1.00157
0.99946
0.998986
0.999046
1
1
1
1
1
1
1
1
1
1
1
1
1
1
1
1
1
0.999999
0.999985
0.999936
0.999809
0.999562
0.999229
0.999055
0.999594
1.00157
1.00541
1.01063
1.01591
1.0197
1.02105
1.0197
1.01591
1.01063
1.00541
1.00157
0.999593
0.999041
0.999166
0.999372
1
1
1
1
1
1
1
1
1
1
1
1
1
1
1
1
1
1
0.999997
0.999975
0.999907
0.999754
0.999489
0.999175
0.999039
0.999458
1.00076
1.00288
1.00529
1.00716
1.00787
1.00716
1.00529
1.00288
1.00076
0.99946
0.999041
0.999172
0.999464
0.999661
1
1
1
1
1
1
1
1
1
1
1
1
1
1
1
1
1
1
1
0.999995
0.999967
0.999887
0.999723
0.999461
0.999163
0.998985
0.999116
0.999633
1.00038
1.00105
1.00131
1.00105
1.00038
0.999633
0.999116
0.998986
0.999166
0.999464
0.999718
0.999854
1
1
1
1
1
1
1
1
1
1
1
1
1
1
1
1
1
1
1
1
0.999992
0.999952
0.999851
0.999657
0.999369
0.999045
0.998795
0.998713
0.998798
0.998941
0.999008
0.998941
0.998798
0.998713
0.998795
0.999046
0.999372
0.999661
0.999854
0.999944
SCALARS C2 double 1
LOOKUP_TABLE default
2.50005
2.50003
2.49995
2.49974
2.4993
2.49859
2.4977
2.49681
2.49611
2.49569
2.49555
2.49569
2.49611
2.49681
2.4977
2.49859
2.4993
2.49974
2.49995
2.50002
2.50003
2.50002
2.50001
2.5
2.5
2.5
2.5
2.5
2.5
2.5
2.5
2.5
2.5
2.5
2.5
2.5
2.5
2.5
2.5
2.5
2.50003
2.49996
2.49974
2.49926
2.49843
2.49733
2.49621
2.49539
2.49502
2.49499
2.49502
2.49499
2.49502
2.49539
2.49621
2.49733
2.49843
2.49925
2.49973
2.49995
2.50001
2.50002
2.50001
2.50001
2.5
2.5
2.5
2.5
2.5
2.5
2.5
2.5
2.5
2.5
2.5
2.5
2.5
2.5
2.5
2.5
2.49995
2.49974
2.49918
2.49815
2.49668
2.49518
2.49436
2.49477
2.4962
2.49774
2.4984
2.49774
2.4962
2.49477
2.49436
2.49518
2.49668
2.49815
2.49918
2.49972
2.49995
2.50001
2.50002
2.50001
2.5
2.5
2.5
2.5
2.5
2.5
2.5
2.5
2.5
2.5
2.5
2.5
2.5
2.5
2.5
2.5
2.49974
2.49926
2.49815
2.4964
2.49451
2.49375
2.49564
2.50064
2.50731
2.51293
2.51512
2.51293
2.50731
2.50064
2.49564
2.49375
2.49451
2.49639
2.49814
2.49925
2.49977
2.49996
2.50001
2.50001
2.50001
2.5
2.5
2.5
2.5
2.5
2.5
2.5
2.5
2.5
2.5
2.5
2.5
2.5
2.5
2.5
2.4993
2.49843
2.49668
2.49451
2.49359
2.49676
2.50633
2.52167
2.53862
2.5516
2.55641
2.5516
2.53862
2.52167
2.50633
2.49676
2.49359
2.4945
2.49667
2.49845
2.49944
2.49986
2.49999
2.50001
2.50001
2.5
2.5
2.5
2.5
2.5
2.5
2.5
2.5
2.5
2.5
2.5
2.5
2.5
2.5
2.5
2.49859
2.49733
2.49518
2.49375
2.49676
2.50897
2.53268
2.56448
2.59611
2.6188
2.62694
2.6188
2.59611
2.56448
2.53268
2.50897
2.49676
2.49374
2.49517
2.4974
2.49893
2.49967
2.49993
2.5
2.50001
2.50001
2.5
2.5
2.5
2.5
2.5
2.5
2.5
2.5
2.5
2.5
2.5
2.5
2.5
2.5
2.4977
2.49621
2.49436
2.49564
2.50633
2.53268
2.57544
2.62693
2.67439
2.70662
2.71784
2.70662
2.67439
2.62692
2.57543
2.53268
2.50632
2.49564
2.49438
2.49636
2.4983
2.4994
2.49985
2.49998
2.50001
2.50001
2.5
2.5
2.5
2.5
2.5
2.5
2.5
2.5
2.5
2.5
2.5
2.5
2.5
2.5
2.49681
2.49539
2.49477
2.50064
2.52167
2.56448
2.62693
2.69661
2.75687
2.79551
2.80844
2.79551
2.75687
2.6966
2.62692
2.56448
2.52166
2.50064
2.49481
2.49565
2.49771
2.4991
2.49974
2.49995
2.5
2.50001
2.5
2.5
2.5
2.5
2.5
2.5
2.5
2.5
2.5
2.5
2.5
2.5
2.5
2.5
2.49611
2.49502
2.4962
2.50731
2.53862
2.59611
2.67439
2.75687
2.82399
2.86402
2.87663
2.86402
2.82399
2.75687
2.67439
2.59611
2.53861
2.50731
2.49628
2.49539
2.49727
2.49885
2.49964
2.49992
2.5
2.50001
2.5
2.5
2.5
2.5
2.5
2.5
2.5
2.5
2.5
2.5
2.5
2.5
2.5
2.5
2.49569
2.49499
2.49774
2.51293
2.5516
2.6188
2.70662
2.79551
2.86402
2.90166
2.91256
2.90166
2.86402
2.79551
2.70662
2.61879
2.55159
2.51294
2.49784
2.49543
2.49702
2.49867
2.49956
2.4999
2.49999
2.50001
2.5
2.5
2.5
2.5
2.5
2.5
2.5
2.5
2.5
2.5
2.5
2.5
2.5
2.5
2.49555
2.49502
2.4984
2.51512
2.55641
2.62694
2.71784
2.80844
2.87663
2.91256
2.92245
2.91256
2.87662
2.80844
2.71784
2.62694
2.55641
2.51513
2.49851
2.49548
2.49694
2.49861
2.49953
2.49989
2.49999
2.50001
2.5
2.5
2.5
2.5
2.5
2.5
2.5
2.5
2.5
2.5
2.5
2.5
2.5
2.5
2.49569
2.49499
2.49774
2.51293
2.5516
2.6188
2.70662
2.79551
2.86402
2.90166
2.91256
2.90166
2.86402
2.79551
2.70662
2.61879
2.55159
2.51294
2.49784
2.49543
2.49702
2.49867
2.49956
2.4999
2.49999
2.50001
2.5
2.5
2.5
2.5
2.5
2.5
2.5
2.5
2.5
2.5
2.5
2.5
2.5
2.5
2.49611
2.49502
2.4962
2.50731
2.53862
2.59611
2.67439
2.75687
2.82399
2.86402
2.87662
2.86402
2.82399
2.75687
2.67439
2.59611
2.53861
2.50731
2.49628
2.49539
2.49727
2.49885
2.49964
2.49992
2.5
2.50001
2.5
2.5
2.5
2.5
2.5
2.5
2.5
2.5
2.5
2.5
2.5
2.5
2.5
2.5
2.49681
2.49539
2.49477
2.50064
2.52167
2.56448
2.62692
2.6966
2.75687
2.79551
2.80844
2.79551
2.75687
2.6966
2.62692
2.56448
2.52166
2.50064
2.49481
2.49565
2.49771
2.4991
2.49974
2.49995
2.5
2.50001
2.5
2.5
2.5
2.5
2.5
2.5
2.5
2.5
2.5
2.5
2.5
2.5
2.5
2.5
2.4977
2.49621
2.49436
2.49564
2.50633
2.53268
2.57543
2.62692
2.67439
2.70662
2.71784
2.70662
2.67439
2.62692
2.57543
2.53268
2.50632
2.49563
2.49438
2.49636
2.4983
2.4994
2.49985
2.49998
2.50001
2.50001
2.5
2.5
2.5
2.5
2.5
2.5
2.5
2.5
2.5
2.5
2.5
2.5
2.5
2.5
2.49859
2.49733
2.49518
2.49375
2.49676
2.50897
2.53268
2.56448
2.59611
2.61879
2.62694
2.61879
2.59611
2.56448
2.53268
2.50897
2.49676
2.49374
2.49517
2.4974
2.49893
2.49967
2.49993
2.5
2.50001
2.5
2.5
2.5
2.5
2.5
2.5
2.5
2.5
2.5
2.5
2.5
2.5
2.5
2.5
2.5
2.4993
2.49843
2.49668
2.49451
2.49359
2.49676
2.50632
2.52166
2.53861
2.55159
2.55641
2.55159
2.53861
2.52166
2.50632
2.49676
2.49359
2.4945
2.49667
2.49844
2.49944
2.49986
2.49999
2.50001
2.50001
2.5
2.5
2.5
2.5
2.5
2.5
2.5
2.5
2.5
2.5
2.5
2.5
2.5
2.5
2.5
2.49974
2.49925
2.49815
2.49639
2.4945
2.49374
2.49564
2.50064
2.50731
2.51294
2.51513
2.51294
2.50731
2.50064
2.49563
2.49374
2.4945
2.49639
2.49814
2.49924
2.49977
2.49996
2.50001
2.50001
2.5
2.5
2.5
2.50001
2.50002
2.50003
2.50003
2.50003
2.50002
2.50001
2.5
2.5
2.49999
2.49999
2.5
2.5
2.49995
2.49973
2.49918
2.49814
2.49667
2.49517
2.49438
2.49481
2.49628
2.49784
2.49851
2.49784
2.49628
2.49481
2.49438
2.49517
2.49667
2.49814
2.49917
2.49972
2.49994
2.5
2.50001
2.5
2.5
2.50002
2.50004
2.50008
2.50012
2.50015
2.50016
2.50015
2.50012
2.50008
2.50004
2.50001
2.5
2.49999
2.49999
2.49999
2.50002
2.49995
2.49972
2.49925
2.49845
2.4974
2.49636
2.49565
2.49539
2.49543
2.49548
2.49543
2.49539
2.49565
2.49636
2.4974
2.49844
2.49924
2.49972
2.49993
2.5
2.50001
2.5
2.50001
2.50004
2.5001
2.5002
2.50031
2.50041
2.50049
2.50051
2.50049
2.50041
2.50031
2.5002
2.5001
2.50004
2.5
2.49999
2.49999
2.50003
2.50001
2.49995
2.49977
2.49944
2.49893
2.4983
2.49771
2.49727
2.49702
2.49694
2.49702
2.49727
2.49771
2.4983
2.49893
2.49944
2.49977
2.49994
2.5
2.50001
2.50001
2.50002
2.50006
2.50018
2.50037
2.50062
2.50088
2.50109
2.50122
2.50127
2.50122
2.50109
2.50088
2.50062
2.50037
2.50018
2.50006
2.5
2.49998
2.50002
2.50002
2.50001
2.49996
2.49986
2.49967
2.4994
2.4991
2.49885
2.49867
2.49861
2.49867
2.49885
2.4991
2.4994
2.49967
2.49986
2.49996
2.5
2.50001
2.50001
2.50002
2.50008
2.50025
2.50055
2.50098
2.50147
2.50189
2.50215
2.50227
2.50229
2.50227
2.50215
2.50189
2.50147
2.50098
2.50054
2.50024
2.50007
2.5
2.50001
2.50001
2.50002
2.50001
2.49999
2.49993
2.49985
2.49974
2.49964
2.49956
2.49953
2.49956
2.49964
2.49974
2.49985
2.49993
2.49999
2.50001
2.50001
2.5
2.50002
2.50008
2.50027
2.50066
2.50128
2.50203
2.50266
2.50293
2.50279
2.50247
2.50232
2.50247
2.50279
2.50293
2.50266
2.50203
2.50128
2.50066
2.50026
2.50009
2.5
2.50001
2.50001
2.50001
2.50001
2.5
2.49998
2.49995
2.49992
2.4999
2.49989
2.4999
2.49992
2.49995
2.49998
2.5
2.50001
2.50001
2.5
2.50001
2.50006
2.50025
2.50066
2.5014
2.50237
2.50319
2.50328
2.50223
2.50032
2.49848
2.49773
2.49848
2.50032
2.50223
2.50327
2.50319
2.50236
2.50139
2.50067
2.50031
2.5
2.5
2.5
2.50001
2.50001
2.50001
2.50001
2.5
2.5
2.49999
2.49999
2.49999
2.5
2.5
2.50001
2.50001
2.50001
2.5
2.5
2.50004
2.50018
2.50055
2.50128
2.50237
2.50337
2.5033
2.50097
2.49599
2.48958
2.48421
2.48213
2.48421
2.48958
2.49598
2.50096
2.5033
2.50337
2.50237
2.50132
2.50072
2.5
2.5
2.5
2.5
2.5
2.50001
2.50001
2.50001
2.50001
2.50001
2.50001
2.50001
2.50001
2.50001
2.50001
2.5
2.5
2.5
2.50002
2.5001
2.50037
2.50098
2.50203
2.50319
2.5033
2.5003
2.49226
2.47933
2.46478
2.45357
2.44942
2.45357
2.46478
2.47933
2.49226
2.50029
2.50329
2.50321
2.50213
2.50135
2.5
2.5
2.5
2.5
2.5
2.5
2.5
2.5
2.5
2.5
2.5
2.5
2.5
2.5
2.5
2.5
2.5
2.5
2.50004
2.5002
2.50062
2.50147
2.50266
2.50328
2.50097
2.49226
2.4747
2.45007
2.42522
2.40776
2.40166
2.40776
2.42522
2.45007
2.4747
2.49226
2.50097
2.50332
2.50286
2.50209
2.5
2.5
2.5
2.5
2.5
2.5
2.5
2.5
2.5
2.5
2.5
2.5
2.5
2.5
2.5
2.5
2.5
2.50001
2.50008
2.50031
2.50088
2.50189
2.50293
2.50223
2.49599
2.47933
2.45007
2.41344
2.38078
2.36065
2.35426
2.36065
2.38078
2.41344
2.45007
2.47932
2.496
2.50231
2.50324
2.50277
2.5
2.5
2.5
2.5
2.5
2.5
2.5
2.5
2.5
2.5
2.5
2.5
2.5
2.5
2.5
2.5
2.5
2.50002
2.50012
2.50041
2.50109
2.50215
2.50279
2.50032
2.48958
2.46478
2.42522
2.38078
2.3466
2.32928
2.32469
2.32928
2.34659
2.38077
2.42522
2.46478
2.4896
2.50043
2.5032
2.50324
2.5
2.5
2.5
2.5
2.5
2.5
2.5
2.5
2.5
2.5
2.5
2.5
2.5
2.5
2.5
2.5
2.5
2.50003
2.50015
2.50049
2.50122
2.50227
2.50247
2.49848
2.48421
2.45357
2.40776
2.36065
2.32928
2.31698
2.31475
2.31698
2.32928
2.36065
2.40775
2.45357
2.48424
2.49863
2.50296
2.50349
2.5
2.5
2.5
2.5
2.5
2.5
2.5
2.5
2.5
2.5
2.5
2.5
2.5
2.5
2.5
2.5
2.5
2.50003
2.50016
2.50051
2.50127
2.50229
2.50232
2.49773
2.48213
2.44942
2.40166
2.35426
2.32469
2.31475
2.31355
2.31475
2.32469
2.35426
2.40165
2.44942
2.48217
2.49789
2.50283
2.50356
2.5
2.5
2.5
2.5
2.5
2.5
2.5
2.5
2.5
2.5
2.5
2.5
2.5
2.5
2.5
2.5
2.5
2.50003
2.50015
2.50049
2.50122
2.50227
2.50247
2.49848
2.48421
2.45357
2.40776
2.36065
2.32928
2.31698
2.31475
2.31698
2.32928
2.36065
2.40775
2.45357
2.48424
2.49863
2.50296
2.50349
2.5
2.5
2.5
2.5
2.5
2.5
2.5
2.5
2.5
2.5
2.5
2.5
2.5
2.5
2.5
2.5
2.5
2.50002
2.50012
2.50041
2.50109
2.50215
2.50279
2.50032
2.48958
2.46478
2.42522
2.38078
2.34659
2.32928
2.32469
2.32928
2.34659
2.38077
2.42522
2.46478
2.4896
2.50043
2.5032
2.50324
2.5
2.5
2.5
2.5
2.5
2.5
2.5
2.5
2.5
2.5
2.5
2.5
2.5
2.5
2.5
2.5
2.5
2.50001
2.50008
2.50031
2.50088
2.50189
2.50293
2.50223
2.49598
2.47933
2.45007
2.41344
2.38077
2.36065
2.35426
2.36065
2.38077
2.41344
2.45007
2.47932
2.49599
2.50231
2.50324
2.50277
2.5
2.5
2.5
2.5
2.5
2.5
2.5
2.5
2.5
2.5
2.5
2.5
2.5
2.5
2.5
2.5
2.5
2.5
2.50004
2.5002
2.50062
2.50147
2.50266
2.50327
2.50096
2.49226
2.4747
2.45007
2.42522
2.40775
2.40165
2.40775
2.42522
2.45007
2.47469
2.49226
2.50097
2.50332
2.50286
2.50209
2.5
2.5
2.5
2.5
2.5
2.5
2.5
2.5
2.5
2.5
2.5
2.5
2.5
2.5
2.5
2.5
2.5
2.5
2.50001
2.5001
2.50037
2.50098
2.50203
2.50319
2.5033
2.50029
2.49226
2.47932
2.46478
2.45357
2.44942
2.45357
2.46478
2.47932
2.49226
2.50029
2.50329
2.5032
2.50213
2.50135
2.5
2.5
2.5
2.5
2.5
2.5
2.5
2.5
2.5
2.5
2.5
2.5
2.5
2.5
2.5
2.5
2.5
2.49999
2.5
2.50004
2.50018
2.50054
2.50128
2.50236
2.50337
2.50329
2.50097
2.496
2.4896
2.48424
2.48217
2.48424
2.4896
2.49599
2.50097
2.50329
2.50336
2.50236
2.50131
2.50072
2.5
2.5
2.5
2.5
2.5
2.5
2.5
2.5
2.5
2.5
2.5
2.5
2.5
2.5
2.5
2.5
2.5
2.49999
2.49999
2.5
2.50006
2.50024
2.50066
2.50139
2.50237
2.50321
2.50332
2.50231
2.50043
2.49863
2.49789
2.49863
2.50043
2.50231
2.50332
2.5032
2.50236
2.50138
2.50066
2.5003
2.5
2.5
2.5
2.5
2.5
2.5
2.5
2.5
2.5
2.5
2.5
2.5
2.5
2.5
2.5
2.5
2.5
2.5
2.49999
2.49999
2.5
2.50007
2.50026
2.50067
2.50132
2.50213
2.50286
2.50324
2.5032
2.50296
2.50283
2.50296
2.5032
2.50324
2.50286
2.50213
2.50131
2.50066
2.50025
2.50008
2.5
2.5
2.5
2.5
2.5
2.5
2.5
2.5
2.5
2.5
2.5
2.5
2.5
2.5
2.5
2.5
2.5
2.5
2.49999
2.49999
2.49998
2.5
2.50009
2.50031
2.50072
2.50135
2.50209
2.50277
2.50324
2.50349
2.50356
2.50349
2.50324
2.50277
2.50209
2.50135
2.50072
2.5003
2.50008
2.49999
