# vtk DataFile Version 3.0
Brusselator Concentration Output
ASCII
DATASET STRUCTURED_POINTS
DIMENSIONS 40 40 1
ORIGIN 0.0 0.0 0.0
SPACING 0.005 0.005 1.0
POINT_DATA 1600
SCALARS C1 double 1
LOOKUP_TABLE default
0.982263
0.994371
1.01996
1.06062
1.11556
1.17879
1.23905
1.28536
1.3136
1.32693
1.33058
1.32691
1.31355
1.2853
1.23906
1.17914
1.11678
1.06352
1.02545
1.00281
0.992438
0.990098
0.99184
0.99477
0.997293
0.998896
0.999693
0.999993
1.00006
1.00005
1.00003
1.00001
1
1
1
1
1
1
1
1
0.994371
1.0115
1.04626
1.09725
1.15702
1.21114
1.24596
1.25844
1.2561
1.24952
1.24642
1.2495
1.25608
1.25846
1.24614
1.2118
1.15874
1.1008
1.05216
1.01921
1.00112
0.99383
0.992868
0.994636
0.996866
0.998542
0.999489
0.999901
1.00003
1.00004
1.00003
1.00001
1
1
1
1
1
1
1
1
1.01996
1.04626
1.09579
1.15639
1.20387
1.21658
1.19461
1.15525
1.11654
1.08984
1.08045
1.08983
1.11656
1.15537
1.19502
1.21766
1.20625
1.16069
1.1018
1.05167
1.01893
1.0019
0.99547
0.994756
0.996233
0.997933
0.999113
0.999724
0.999964
1.00003
1.00003
1.00001
1.00001
1
1
1
1
1
1
1
1.06062
1.09725
1.15639
1.20289
1.19985
1.14635
1.07056
0.998517
0.943572
0.910186
0.899077
0.910193
0.943618
0.998699
1.0711
1.14766
1.20241
1.20693
1.16075
1.09716
1.04593
1.01502
1.0004
0.995706
0.995741
0.997235
0.998626
0.999476
0.999867
0.999999
1.00002
1.00002
1.00001
1
1
1
1
1
1
1
1.11556
1.15702
1.20387
1.19985
1.12896
1.02598
0.926992
0.848914
0.795385
0.764797
0.754908
0.764808
0.795441
0.849117
0.927566
1.02725
1.13103
1.20199
1.20344
1.14666
1.08021
1.03326
1.00815
0.997965
0.995726
0.996633
0.998109
0.999183
0.999741
0.999959
1.00002
1.00002
1.00001
1
1
1
1
1
1
1
1.17879
1.21114
1.21658
1.14635
1.02598
0.903838
0.805087
0.734826
0.689737
0.665004
0.657164
0.665016
0.689794
0.735024
0.805627
0.904936
1.0273
1.14574
1.20885
1.186
1.11683
1.0553
1.0185
1.00166
0.996372
0.996267
0.997639
0.998877
0.999596
0.999907
1
1.00002
1.00001
1.00001
1
1
1
1
1
1
1.23905
1.24596
1.19461
1.07056
0.926992
0.805087
0.716326
0.657417
0.621384
0.602227
0.596251
0.602239
0.621438
0.6576
0.71681
0.805985
0.92758
1.06737
1.17939
1.20461
1.14902
1.07839
1.03041
1.00645
0.997641
0.99619
0.997272
0.998593
0.999447
0.999848
0.999986
1.00002
1.00001
1.00001
1
1
1
1
1
1
1.28536
1.25844
1.15525
0.998517
0.848914
0.734826
0.657417
0.608573
0.579788
0.564875
0.560286
0.564886
0.579838
0.608741
0.657846
0.735547
0.84892
0.993368
1.13406
1.20325
1.17178
1.09918
1.04223
1.0116
0.999272
0.996353
0.997027
0.998356
0.999311
0.999789
0.999967
1.00001
1.00001
1
1
0.999999
0.999999
0.999999
0.999999
0.999999
1.3136
1.2561
1.11654
0.943572
0.795385
0.689737
0.621384
0.579788
0.555965
0.543885
0.540213
0.543896
0.556013
0.579944
0.621771
0.690326
0.794985
0.937117
1.09136
1.19139
1.18448
1.11504
1.05214
1.0162
1.00087
0.996632
0.996889
0.998182
0.999202
0.999739
0.999948
1
1.00001
1
0.999998
0.999996
0.999996
0.999997
0.999997
0.999998
1.32693
1.24952
1.08984
0.910186
0.764797
0.665004
0.602227
0.564875
0.543885
0.533402
0.530244
0.533413
0.543931
0.565023
0.602588
0.665513
0.764162
0.903001
1.06245
1.17958
1.18988
1.12468
1.05868
1.01936
1.00203
0.996878
0.996828
0.998078
0.999133
0.999707
0.999936
1
1.00001
1
0.999994
0.999992
0.999992
0.999992
0.999993
0.999994
1.33058
1.24642
1.08045
0.899077
0.754908
0.657164
0.596251
0.560286
0.540213
0.530244
0.527251
0.530255
0.540258
0.560432
0.596603
0.657647
0.754195
0.891658
1.05236
1.17486
1.19122
1.12787
1.06095
1.02048
1.00245
0.996976
0.996818
0.998055
0.999124
0.999713
0.999951
1.00002
1.00002
1.00001
1
0.999993
0.999988
0.999986
0.999985
0.999985
1.32691
1.2495
1.08983
0.910193
0.764808
0.665016
0.602239
0.564886
0.543896
0.533413
0.530255
0.533424
0.543942
0.565035
0.6026
0.665524
0.764172
0.903007
1.06244
1.17957
1.18986
1.12466
1.05866
1.01935
1.00204
0.996905
0.996875
0.998145
0.999217
0.999801
1.00003
1.00009
1.00009
1.00007
1.00004
1.00002
1
0.999987
0.999978
0.999974
1.31355
1.25608
1.11656
0.943618
0.795441
0.689794
0.621438
0.579838
0.556013
0.543931
0.540258
0.543942
0.556061
0.579994
0.621825
0.690383
0.79504
0.937161
1.09138
1.19137
1.18444
1.115
1.05213
1.01623
1.00094
0.99676
0.997075
0.998423
0.999486
1.00005
1.00027
1.00032
1.00029
1.00024
1.00018
1.00012
1.00007
1.00002
0.999989
0.999972
1.2853
1.25846
1.15537
0.998699
0.849117
0.735024
0.6576
0.608741
0.579944
0.565023
0.560432
0.565035
0.579994
0.608909
0.658029
0.735744
0.849121
0.99355
1.13418
1.20328
1.17176
1.09917
1.04228
1.01176
0.999544
0.996754
0.997553
0.998992
1.00003
1.00056
1.00075
1.00078
1.00073
1.00064
1.00053
1.0004
1.00027
1.00015
1.00007
1.00002
1.23906
1.24614
1.19502
1.0711
0.927566
0.805627
0.71681
0.657846
0.621771
0.602588
0.596603
0.6026
0.621825
0.658029
0.717294
0.806525
0.928154
1.06792
1.17982
1.20484
1.14913
1.07853
1.03069
1.00693
0.998354
0.997135
0.998419
0.999895
1.00085
1.00131
1.00147
1.00148
1.00142
1.00131
1.00115
1.00094
1.00072
1.00049
1.00032
1.00022
1.17914
1.2118
1.21766
1.14766
1.02725
0.904936
0.805985
0.735547
0.690326
0.665513
0.657647
0.665524
0.690383
0.735744
0.806525
0.906033
1.02857
1.14706
1.21
1.18678
1.11738
1.05586
1.01929
1.00276
0.997816
0.997988
0.999535
1.00084
1.00156
1.00184
1.00192
1.00195
1.00197
1.00197
1.0019
1.00173
1.00146
1.00115
1.00088
1.00072
1.11678
1.15874
1.20625
1.20241
1.13103
1.0273
0.92758
0.84892
0.794985
0.764162
0.754195
0.764172
0.79504
0.849121
0.928154
1.02857
1.13312
1.2046
1.20594
1.14861
1.08173
1.03472
1.00983
0.999958
0.997941
0.998852
1.00008
1.00072
1.00081
1.00066
1.00058
1.00072
1.00108
1.00154
1.00198
1.00224
1.00227
1.00211
1.00187
1.00171
1.06352
1.1008
1.16069
1.20693
1.20199
1.14574
1.06737
0.993368
0.937117
0.903001
0.891658
0.903007
0.937161
0.99355
1.06792
1.14706
1.2046
1.21109
1.16528
1.10105
1.04916
1.01796
1.00325
0.998377
0.997842
0.998232
0.998055
0.997133
0.995904
0.994907
0.994527
0.994924
0.996045
0.997663
0.999447
1.00105
1.00222
1.00289
1.00315
1.00321
1.02545
1.05216
1.1018
1.16075
1.20344
1.20885
1.17939
1.13406
1.09136
1.06245
1.05236
1.06244
1.09138
1.13418
1.17982
1.21
1.20594
1.16528
1.10817
1.05795
1.02452
1.00667
0.999141
0.996656
0.99539
0.993385
0.990266
0.9866
0.983239
0.980916
0.980083
0.980904
0.983285
0.986894
0.991202
0.995564
0.999367
1.00221
1.00398
1.00479
1.00281
1.01921
1.05167
1.09716
1.14666
1.186
1.20461
1.20325
1.19139
1.17958
1.17486
1.17957
1.19137
1.20328
1.20484
1.18678
1.14861
1.10105
1.05795
1.02705
1.00885
0.999863
0.995583
0.992212
0.98754
0.981092
0.973631
0.966394
0.960502
0.956705
0.955391
0.95668
0.960492
0.966535
0.974238
0.982732
0.990949
0.99786
1.00273
1.00521
0.992438
1.00112
1.01893
1.04593
1.08021
1.11683
1.14902
1.17178
1.18448
1.18988
1.19122
1.18986
1.18444
1.17176
1.14913
1.11738
1.08173
1.04916
1.02452
1.00885
1.00016
0.994943
0.9897
0.982138
0.971788
0.959728
0.947717
0.937346
0.929608
0.924916
0.923344
0.924889
0.929584
0.937428
0.948168
0.961054
0.974719
0.98733
0.99699
1.00221
0.990098
0.99383
1.0019
1.01502
1.03326
1.0553
1.07839
1.09918
1.11504
1.12468
1.12787
1.12466
1.115
1.09917
1.07853
1.05586
1.03472
1.01796
1.00667
0.999863
0.994943
0.988745
0.978898
0.964908
0.948229
0.931343
0.916545
0.905187
0.897576
0.893352
0.892009
0.893333
0.89757
0.905295
0.917011
0.932605
0.950869
0.96931
0.984527
0.993177
0.99184
0.992868
0.99547
1.0004
1.00815
1.0185
1.03041
1.04223
1.05214
1.05868
1.06095
1.05866
1.05213
1.04228
1.03069
1.01929
1.00983
1.00325
0.999141
0.995583
0.9897
0.978898
0.96238
0.94179
0.920432
0.901666
0.887615
0.878737
0.874137
0.872288
0.871844
0.872283
0.874171
0.878934
0.888226
0.903063
0.922914
0.945063
0.96472
0.976416
0.99477
0.994636
0.994756
0.995706
0.997965
1.00166
1.00645
1.0116
1.0162
1.01936
1.02048
1.01935
1.01623
1.01176
1.00693
1.00276
0.999958
0.998377
0.996656
0.992212
0.982138
0.964908
0.94179
0.91664
0.894123
0.87776
0.868881
0.86659
0.868394
0.871195
0.872455
0.871208
0.868486
0.866921
0.869724
0.879397
0.896442
0.918336
0.939395
0.95248
0.997293
0.996866
0.996233
0.995741
0.995726
0.996372
0.997641
0.999272
1.00087
1.00203
1.00245
1.00204
1.00094
0.999544
0.998354
0.997816
0.997941
0.997842
0.99539
0.98754
0.971788
0.948229
0.920432
0.894123
0.874684
0.865272
0.86615
0.874883
0.887009
0.897243
0.901225
0.897278
0.887173
0.875384
0.867283
0.867179
0.876714
0.893731
0.912204
0.924272
0.998896
0.998542
0.997933
0.997235
0.996633
0.996267
0.99619
0.996353
0.996632
0.996878
0.996976
0.996905
0.99676
0.996754
0.997135
0.997988
0.998852
0.998232
0.993385
0.981092
0.959728
0.931343
0.901666
0.87776
0.865272
0.866894
0.881977
0.906565
0.933752
0.955032
0.963106
0.955095
0.934009
0.907278
0.883444
0.869058
0.866822
0.874823
0.887033
0.895801
0.999693
0.999489
0.999113
0.998626
0.998109
0.997639
0.997272
0.997027
0.996889
0.996828
0.996818
0.996875
0.997075
0.997553
0.998419
0.999535
1.00008
0.998055
0.990266
0.973631
0.947717
0.916545
0.887615
0.868881
0.86615
0.881977
0.915285
0.960777
1.00847
1.04515
1.05899
1.04525
1.00884
0.961746
0.917128
0.884367
0.86704
0.863122
0.866612
0.870585
0.999993
0.999901
0.999724
0.999476
0.999183
0.998877
0.998593
0.998356
0.998182
0.998078
0.998055
0.998145
0.998423
0.998992
0.999895
1.00084
1.00072
0.997133
0.9866
0.966394
0.937346
0.905187
0.878737
0.86659
0.874883
0.906565
0.960777
1.03113
1.10391
1.15968
1.18071
1.15983
1.10442
1.03239
0.963013
0.909139
0.875009
0.858026
0.851993
0.85074
1.00006
1.00003
0.999964
0.999867
0.999741
0.999596
0.999447
0.999311
0.999202
0.999133
0.999124
0.999217
0.999486
1.00003
1.00085
1.00156
1.00081
0.995904
0.983239
0.960502
0.929608
0.897576
0.874137
0.868394
0.887009
0.933752
1.00847
1.10391
1.20224
1.2773
1.30548
1.2775
1.2029
1.10544
1.01106
0.936462
0.886403
0.85741
0.842822
0.836949
1.00005
1.00004
1.00003
0.999999
0.999959
0.999907
0.999848
0.999789
0.999739
0.999707
0.999713
0.999801
1.00005
1.00056
1.00131
1.00184
1.00066
0.994907
0.980916
0.956705
0.924916
0.893352
0.872288
0.871195
0.897243
0.955032
1.04515
1.15968
1.2773
1.3665
1.39977
1.36673
1.27806
1.16143
1.04801
0.957823
0.8961
0.858556
0.838022
0.828993
1.00003
1.00003
1.00003
1.00002
1.00002
1
0.999986
0.999967
0.999948
0.999936
0.999951
1.00003
1.00027
1.00075
1.00147
1.00192
1.00058
0.994527
0.980083
0.955391
0.923344
0.892009
0.871844
0.872455
0.901225
0.963106
1.05899
1.18071
1.30548
1.39977
1.43484
1.40002
1.30628
1.18253
1.06195
0.965923
0.899884
0.859225
0.836557
0.826407
1.00001
1.00001
1.00001
1.00002
1.00002
1.00002
1.00002
1.00001
1
1
1.00002
1.00009
1.00032
1.00078
1.00148
1.00195
1.00072
0.994924
0.980904
0.95668
0.924889
0.893333
0.872283
0.871208
0.897278
0.955095
1.04525
1.15983
1.2775
1.36673
1.40002
1.36697
1.27826
1.16158
1.04811
0.957886
0.896134
0.858568
0.83802
0.828982
1
1
1.00001
1.00001
1.00001
1.00001
1.00001
1.00001
1.00001
1.00001
1.00002
1.00009
1.00029
1.00073
1.00142
1.00197
1.00108
0.996045
0.983285
0.960492
0.929584
0.89757
0.874171
0.868486
0.887173
0.934009
1.00884
1.10442
1.2029
1.27806
1.30628
1.27826
1.20355
1.10596
1.01144
0.936718
0.886565
0.857501
0.842865
0.836967
1
1
1
1
1
1.00001
1.00001
1
1
1
1.00001
1.00007
1.00024
1.00064
1.00131
1.00197
1.00154
0.997663
0.986894
0.966535
0.937428
0.905295
0.878934
0.866921
0.875384
0.907278
0.961746
1.03239
1.10544
1.16143
1.18253
1.16158
1.10596
1.03365
0.963983
0.909853
0.875512
0.858366
0.852219
0.850906
1
1
1
1
1
1
1
1
0.999998
0.999994
1
1.00004
1.00018
1.00053
1.00115
1.0019
1.00198
0.999447
0.991202
0.974238
0.948168
0.917011
0.888226
0.869724
0.867283
0.883444
0.917128
0.963013
1.01106
1.04801
1.06195
1.04811
1.01144
0.963983
0.918973
0.885841
0.868188
0.864001
0.867296
0.871166
1
1
1
1
1
1
1
0.999999
0.999996
0.999992
0.999993
1.00002
1.00012
1.0004
1.00094
1.00173
1.00224
1.00105
0.995564
0.982732
0.961054
0.932605
0.903063
0.879397
0.867179
0.869058
0.884367
0.909139
0.936462
0.957823
0.965923
0.957886
0.936718
0.909853
0.885841
0.871244
0.868777
0.876554
0.888582
0.897247
1
1
1
1
1
1
1
0.999999
0.999996
0.999992
0.999988
1
1.00007
1.00027
1.00072
1.00146
1.00227
1.00222
0.999367
0.990949
0.974719
0.950869
0.922914
0.896442
0.876714
0.866822
0.86704
0.875009
0.886403
0.8961
0.899884
0.896134
0.886565
0.875512
0.868188
0.868777
0.878851
0.896237
0.914929
0.927098
1
1
1
1
1
1
1
0.999999
0.999997
0.999992
0.999986
0.999987
1.00002
1.00015
1.00049
1.00115
1.00211
1.00289
1.00221
0.99786
0.98733
0.96931
0.945063
0.918336
0.893731
0.874823
0.863122
0.858026
0.85741
0.858556
0.859225
0.858568
0.857501
0.858366
0.864001
0.876554
0.896237
0.920306
0.942916
0.956808
1
1
1
1
1
1
1
0.999999
0.999997
0.999993
0.999985
0.999978
0.999989
1.00007
1.00032
1.00088
1.00187
1.00315
1.00398
1.00273
0.99699
0.984527
0.96472
0.939395
0.912204
0.887033
0.866612
0.851993
0.842822
0.838022
0.836557
0.83802
0.842865
0.852219
0.867296
0.888582
0.914929
0.942916
0.967013
0.981114
1
1
1
1
1
1
1
0.999999
0.999998
0.999994
0.999985
0.999974
0.999972
1.00002
1.00022
1.00072
1.00171
1.00321
1.00479
1.00521
1.00221
0.993177
0.976416
0.95248
0.924272
0.895801
0.870585
0.85074
0.836949
0.828993
0.826407
0.828982
0.836967
0.850906
0.871166
0.897247
0.927098
0.956808
0.981114
0.994867
SCALARS C2 double 1
LOOKUP_TABLE default
2.55297
2.5474
2.53123
2.49658
2.43705
2.35348
2.25744
2.16716
2.09782
2.05602
2.04228
2.05606
2.09792
2.16735
2.2577
2.35361
2.43646
2.49402
2.52465
2.53415
2.53082
2.52212
2.51314
2.50641
2.50241
2.50052
2.49987
2.49977
2.49984
2.49992
2.49997
2.49999
2.5
2.5
2.5
2.5
2.5
2.5
2.5
2.5
2.5474
2.53309
2.49927
2.43918
2.35199
2.24977
2.15399
2.08151
2.03624
2.01323
2.00639
2.01326
2.03631
2.08163
2.15409
2.24953
2.35061
2.43522
2.49071
2.51795
2.52521
2.52174
2.51462
2.50801
2.50352
2.50111
2.50012
2.49985
2.49985
2.49991
2.49996
2.49999
2.5
2.5
2.5
2.5
2.5
2.5
2.5
2.5
2.53123
2.49927
2.43117
2.32806
2.20966
2.1098
2.04991
2.02696
2.02552
2.03078
2.03355
2.0308
2.02555
2.02697
2.04973
2.10892
2.20695
2.3217
2.41937
2.48166
2.51111
2.51906
2.51642
2.51063
2.5055
2.50223
2.50062
2.50002
2.49989
2.49991
2.49995
2.49998
2.49999
2.5
2.5
2.5
2.5
2.5
2.5
2.5
2.49658
2.43918
2.32806
2.19089
2.08102
2.03269
2.03779
2.06998
2.10647
2.13308
2.14267
2.1331
2.10648
2.0699
2.03737
2.03127
2.0772
2.18251
2.31367
2.42114
2.48435
2.51114
2.51674
2.51329
2.50792
2.50373
2.50134
2.50028
2.49995
2.49991
2.49994
2.49997
2.49999
2.5
2.5
2.5
2.5
2.5
2.5
2.5
2.43705
2.35199
2.20966
2.08102
2.02826
2.0498
2.11047
2.1791
2.23687
2.27427
2.28713
2.27428
2.23686
2.17897
2.10991
2.04809
2.02408
2.07243
2.19589
2.33885
2.4425
2.4955
2.51383
2.51496
2.51027
2.50541
2.50223
2.50065
2.50006
2.49992
2.49993
2.49996
2.49999
2.5
2.5
2.5
2.5
2.5
2.5
2.5
2.35348
2.24977
2.1098
2.03269
2.0498
2.12597
2.22028
2.30721
2.37415
2.41567
2.42969
2.41568
2.37414
2.30706
2.21966
2.12417
2.04578
2.02558
2.10073
2.2486
2.38789
2.4716
2.50681
2.51493
2.51211
2.50705
2.50319
2.50108
2.50021
2.49995
2.49993
2.49996
2.49998
2.49999
2.5
2.5
2.5
2.5
2.5
2.5
2.25744
2.15399
2.04991
2.03779
2.11047
2.22028
2.33159
2.42613
2.49612
2.53872
2.55299
2.53873
2.4961
2.42597
2.33096
2.21848
2.10678
2.03271
2.04773
2.16977
2.32848
2.44178
2.49612
2.51305
2.51316
2.50844
2.50413
2.50154
2.50038
2.5
2.49993
2.49995
2.49998
2.49999
2.5
2.5
2.5
2.5
2.5
2.5
2.16716
2.08151
2.02696
2.06998
2.1791
2.30721
2.42613
2.52323
2.59382
2.63643
2.65067
2.63644
2.5938
2.52307
2.42551
2.30544
2.1757
2.0667
2.03143
2.11451
2.27455
2.41079
2.48357
2.50985
2.51347
2.50949
2.50493
2.50197
2.50056
2.50005
2.49994
2.49995
2.49998
2.49999
2.5
2.5
2.5
2.5
2.5
2.5
2.09782
2.03624
2.02552
2.10647
2.23687
2.37415
2.49612
2.59382
2.66427
2.70667
2.72083
2.70668
2.66425
2.59367
2.49551
2.37242
2.2337
2.1045
2.03505
2.08288
2.23376
2.38415
2.47182
2.50633
2.51327
2.51016
2.50555
2.50233
2.50071
2.50011
2.49996
2.49996
2.49998
2.5
2.50001
2.50001
2.5
2.5
2.5
2.5
2.05602
2.01323
2.03078
2.13308
2.27427
2.41567
2.53872
2.63643
2.70667
2.74892
2.76302
2.74892
2.70666
2.63629
2.53812
2.41397
2.27124
2.13187
2.04338
2.06825
2.20924
2.36639
2.4635
2.50363
2.51295
2.51053
2.50593
2.50256
2.50082
2.50015
2.49998
2.49997
2.49999
2.50001
2.50002
2.50002
2.50001
2.50001
2.50001
2.50001
2.04228
2.00639
2.03355
2.14267
2.28713
2.42969
2.55299
2.65067
2.72083
2.76302
2.77709
2.76302
2.72081
2.65053
2.5524
2.42799
2.28413
2.14171
2.04716
2.06421
2.20117
2.3602
2.46051
2.50263
2.51281
2.51065
2.50607
2.50265
2.50087
2.50017
2.49999
2.49998
2.5
2.50002
2.50003
2.50003
2.50003
2.50003
2.50002
2.50002
2.05606
2.01326
2.0308
2.1331
2.27428
2.41568
2.53873
2.63644
2.70668
2.74892
2.76302
2.74892
2.70666
2.63629
2.53813
2.41397
2.27124
2.13189
2.0434
2.06829
2.20928
2.36643
2.46354
2.50367
2.51298
2.51055
2.50594
2.50255
2.5008
2.50012
2.49994
2.49994
2.49997
2.5
2.50002
2.50004
2.50005
2.50005
2.50005
2.50005
2.09792
2.03631
2.02555
2.10648
2.23686
2.37414
2.4961
2.5938
2.66425
2.70666
2.72081
2.70666
2.66423
2.59365
2.49549
2.37241
2.23369
2.1045
2.03509
2.08295
2.23386
2.38424
2.47189
2.50638
2.51329
2.51013
2.50546
2.50218
2.50051
2.49987
2.4997
2.49972
2.49978
2.49985
2.49992
2.49998
2.50002
2.50006
2.50008
2.50009
2.16735
2.08163
2.02697
2.0699
2.17897
2.30706
2.42597
2.52307
2.59367
2.63629
2.65053
2.63629
2.59365
2.52292
2.42535
2.30529
2.17557
2.06662
2.03145
2.11462
2.27471
2.41092
2.48364
2.50983
2.51331
2.50917
2.50445
2.50132
2.49976
2.49917
2.49902
2.49907
2.49918
2.49934
2.49951
2.49969
2.49985
2.49998
2.50007
2.50012
2.2577
2.15409
2.04973
2.03737
2.10991
2.21966
2.33096
2.42551
2.49551
2.53812
2.5524
2.53813
2.49549
2.42535
2.33033
2.21786
2.10622
2.03229
2.04755
2.16982
2.32865
2.44188
2.49603
2.51269
2.51246
2.50734
2.50263
2.49968
2.49824
2.49768
2.49756
2.49764
2.49784
2.49813
2.4985
2.4989
2.4993
2.49964
2.49989
2.50003
2.35361
2.24953
2.10892
2.03127
2.04809
2.12417
2.21848
2.30544
2.37242
2.41397
2.42799
2.41397
2.37241
2.30529
2.21786
2.12238
2.04408
2.02416
2.09981
2.24824
2.38778
2.47137
2.50617
2.51368
2.51013
2.50431
2.49975
2.49707
2.49579
2.4953
2.4952
2.49531
2.49557
2.49598
2.49656
2.49726
2.49802
2.49873
2.49928
2.49957
2.43646
2.35061
2.20695
2.0772
2.02408
2.04578
2.10678
2.1757
2.2337
2.27124
2.28413
2.27124
2.23369
2.17557
2.10622
2.04408
2.01991
2.06859
2.19305
2.33718
2.44141
2.49426
2.51188
2.51193
2.50606
2.50011
2.49611
2.49403
2.49321
2.49301
2.49301
2.49305
2.49314
2.49338
2.49389
2.4947
2.49575
2.49686
2.4978
2.49833
2.49402
2.43522
2.3217
2.18251
2.07243
2.02558
2.03271
2.0667
2.1045
2.13187
2.14171
2.13189
2.1045
2.06662
2.03229
2.02416
2.06859
2.174
2.30699
2.41658
2.48095
2.50768
2.51233
2.5075
2.50088
2.49595
2.49354
2.49306
2.49357
2.49425
2.49456
2.49431
2.49361
2.49278
2.4922
2.49219
2.49283
2.49393
2.49506
2.49577
2.52465
2.49071
2.41937
2.31367
2.19589
2.10073
2.04773
2.03143
2.03505
2.04338
2.04716
2.0434
2.03509
2.03145
2.04755
2.09981
2.19305
2.30699
2.40694
2.47211
2.50337
2.51169
2.50845
2.50195
2.49695
2.49523
2.49655
2.49971
2.50324
2.50591
2.50691
2.50598
2.50335
2.49969
2.49591
2.49289
2.49118
2.49076
2.49113
2.49157
2.53415
2.51795
2.48166
2.42114
2.33885
2.2486
2.16977
2.11451
2.08288
2.06825
2.06421
2.06829
2.08295
2.11462
2.16982
2.24824
2.33718
2.41658
2.47211
2.50155
2.51098
2.50891
2.50303
2.49879
2.49897
2.50395
2.51239
2.52213
2.53094
2.53699
2.53916
2.53707
2.53108
2.52226
2.51219
2.5026
2.49495
2.48992
2.4873
2.48632
2.53082
2.52521
2.51111
2.48435
2.4425
2.38789
2.32848
2.27455
2.23376
2.20924
2.20117
2.20928
2.23386
2.27471
2.32865
2.38778
2.44141
2.48095
2.50337
2.51098
2.50903
2.50372
2.50056
2.50332
2.51326
2.52926
2.54854
2.56772
2.58372
2.59423
2.5979
2.5943
2.58385
2.56788
2.54849
2.52834
2.51014
2.49594
2.48666
2.48222
2.52212
2.52174
2.51906
2.51114
2.4955
2.4716
2.44178
2.41079
2.38415
2.36639
2.3602
2.36643
2.38424
2.41092
2.44188
2.47137
2.49426
2.50768
2.51169
2.50891
2.50372
2.5013
2.50623
2.52103
2.54529
2.57595
2.60852
2.63847
2.66217
2.67723
2.68239
2.67728
2.66227
2.63856
2.60836
2.5749
2.54215
2.51406
2.49379
2.48327
2.51314
2.51462
2.51642
2.51674
2.51383
2.50681
2.49612
2.48357
2.47182
2.4635
2.46051
2.46354
2.47189
2.48364
2.49603
2.50617
2.51188
2.51233
2.50845
2.50303
2.50056
2.50623
2.52405
2.55503
2.5965
2.64315
2.6889
2.72849
2.75836
2.77671
2.78288
2.77675
2.75843
2.72846
2.68845
2.64156
2.59261
2.54765
2.51305
2.49419
2.50641
2.50801
2.51063
2.51329
2.51496
2.51493
2.51305
2.50985
2.50633
2.50363
2.50263
2.50367
2.50638
2.50983
2.51269
2.51368
2.51193
2.5075
2.50195
2.49879
2.50332
2.52103
2.55503
2.6041
2.66289
2.72389
2.77973
2.82508
2.85731
2.8761
2.88223
2.87613
2.85732
2.82488
2.77885
2.72147
2.65789
2.59613
2.54626
2.51816
2.50241
2.50352
2.5055
2.50792
2.51027
2.51211
2.51316
2.51347
2.51327
2.51295
2.51281
2.51298
2.51329
2.51331
2.51246
2.51013
2.50606
2.50088
2.49695
2.49897
2.51326
2.54529
2.5965
2.66289
2.73633
2.80721
2.86732
2.91182
2.94004
2.9546
2.95895
2.95462
2.93998
2.91139
2.86592
2.80387
2.73017
2.65473
2.59147
2.555
2.50052
2.50111
2.50223
2.50373
2.50541
2.50705
2.50844
2.50949
2.51016
2.51053
2.51065
2.51055
2.51013
2.50917
2.50734
2.50431
2.50011
2.49595
2.49523
2.50395
2.52926
2.57595
2.64315
2.72389
2.80721
2.88155
2.93788
2.97239
2.98764
2.99121
2.99124
2.9912
2.98747
2.97167
2.93588
2.87724
2.80012
2.7163
2.64354
2.60087
2.49987
2.50012
2.50062
2.50134
2.50223
2.50319
2.50413
2.50493
2.50555
2.50593
2.50607
2.50594
2.50546
2.50445
2.50263
2.49975
2.49611
2.49354
2.49655
2.51239
2.54854
2.60852
2.6889
2.77973
2.86732
2.93788
2.98137
2.99524
2.98676
2.97104
2.9636
2.97099
2.98645
2.99416
2.97868
2.93265
2.85964
2.77354
2.69593
2.6497
2.49977
2.49985
2.50002
2.50028
2.50065
2.50108
2.50154
2.50197
2.50233
2.50256
2.50265
2.50255
2.50218
2.50132
2.49968
2.49707
2.49403
2.49306
2.49971
2.52213
2.56772
2.63847
2.72849
2.82508
2.91182
2.97239
2.99524
2.97915
2.93731
2.89488
2.87719
2.89478
2.93681
2.97765
2.99184
2.96634
2.90391
2.82086
2.74247
2.69497
2.49984
2.49985
2.49989
2.49995
2.50006
2.50021
2.50038
2.50056
2.50071
2.50082
2.50087
2.5008
2.50051
2.49976
2.49824
2.49579
2.49321
2.49357
2.50324
2.53094
2.58372
2.66217
2.75836
2.85731
2.94004
2.98764
2.98676
2.93731
2.85894
2.78782
2.75926
2.78766
2.85827
2.93538
2.98269
2.98093
2.93218
2.85515
2.77849
2.73116
2.49992
2.49991
2.49991
2.49991
2.49992
2.49995
2.5
2.50005
2.50011
2.50015
2.50017
2.50012
2.49987
2.49917
2.49768
2.4953
2.49301
2.49425
2.50591
2.53699
2.59423
2.67723
2.77671
2.8761
2.9546
2.99121
2.97104
2.89488
2.78782
2.69473
2.65805
2.69454
2.787
2.89265
2.96649
2.98408
2.94688
2.87551
2.80105
2.75437
2.49997
2.49996
2.49995
2.49994
2.49993
2.49993
2.49993
2.49994
2.49996
2.49998
2.49999
2.49994
2.4997
2.49902
2.49756
2.4952
2.49301
2.49456
2.50691
2.53916
2.5979
2.68239
2.78288
2.88223
2.95895
2.99124
2.9636
2.87719
2.75926
2.65805
2.61841
2.65783
2.75839
2.87483
2.95887
2.98396
2.95129
2.88223
2.80873
2.76235
2.49999
2.49999
2.49998
2.49997
2.49996
2.49996
2.49995
2.49995
2.49996
2.49997
2.49998
2.49994
2.49972
2.49907
2.49764
2.49531
2.49305
2.49431
2.50598
2.53707
2.5943
2.67728
2.77675
2.87613
2.95462
2.9912
2.97099
2.89478
2.78766
2.69454
2.65783
2.69434
2.78684
2.89255
2.96644
2.98407
2.9469
2.87555
2.8011
2.75442
2.5
2.5
2.49999
2.49999
2.49999
2.49998
2.49998
2.49998
2.49998
2.49999
2.5
2.49997
2.49978
2.49918
2.49784
2.49557
2.49314
2.49361
2.50335
2.53108
2.58385
2.66227
2.75843
2.85732
2.93998
2.98747
2.98645
2.93681
2.85827
2.787
2.75839
2.78684
2.85759
2.93489
2.98237
2.98077
2.93212
2.85517
2.77856
2.73126
2.5
2.5
2.5
2.5
2.5
2.49999
2.49999
2.49999
2.5
2.50001
2.50002
2.5
2.49985
2.49934
2.49813
2.49598
2.49338
2.49278
2.49969
2.52226
2.56788
2.63856
2.72846
2.82488
2.91139
2.97167
2.99416
2.97765
2.93538
2.89265
2.87483
2.89255
2.93489
2.97614
2.99075
2.96562
2.90349
2.82067
2.74244
2.69502
2.5
2.5
2.5
2.5
2.5
2.5
2.5
2.5
2.50001
2.50002
2.50003
2.50002
2.49992
2.49951
2.4985
2.49656
2.49389
2.4922
2.49591
2.51219
2.54849
2.60836
2.68845
2.77885
2.86592
2.93588
2.97868
2.99184
2.98269
2.96649
2.95887
2.96644
2.98237
2.99075
2.97599
2.93065
2.85824
2.77265
2.69542
2.6494
2.5
2.5
2.5
2.5
2.5
2.5
2.5
2.5
2.50001
2.50002
2.50003
2.50004
2.49998
2.49969
2.4989
2.49726
2.4947
2.49219
2.49289
2.5026
2.52834
2.5749
2.64156
2.72147
2.80387
2.87724
2.93265
2.96634
2.98093
2.98408
2.98396
2.98407
2.98077
2.96562
2.93065
2.87292
2.79674
2.7138
2.64176
2.59949
2.5
2.5
2.5
2.5
2.5
2.5
2.5
2.5
2.5
2.50001
2.50003
2.50005
2.50002
2.49985
2.4993
2.49802
2.49575
2.49283
2.49118
2.49495
2.51014
2.54215
2.59261
2.65789
2.73017
2.80012
2.85964
2.90391
2.93218
2.94688
2.95129
2.9469
2.93212
2.90349
2.85824
2.79674
2.72391
2.64948
2.58714
2.55121
2.5
2.5
2.5
2.5
2.5
2.5
2.5
2.5
2.5
2.50001
2.50003
2.50005
2.50006
2.49998
2.49964
2.49873
2.49686
2.49393
2.49076
2.48992
2.49594
2.51406
2.54765
2.59613
2.65473
2.7163
2.77354
2.82086
2.85515
2.87551
2.88223
2.87555
2.85517
2.82067
2.77265
2.7138
2.64948
2.58766
2.53809
2.51029
2.5
2.5
2.5
2.5
2.5
2.5
2.5
2.5
2.5
2.50001
2.50002
2.50005
2.50008
2.50007
2.49989
2.49928
2.4978
2.49506
2.49113
2.4873
2.48666
2.49379
2.51305
2.54626
2.59147
2.64354
2.69593
2.74247
2.77849
2.80105
2.80873
2.8011
2.77856
2.74244
2.69542
2.64176
2.58714
2.53809
2.50103
2.48109
2.5
2.5
2.5
2.5
2.5
2.5
2.5
2.5
2.5
2.50001
2.50002
2.50005
2.50009
2.50012
2.50003
2.49957
2.49833
2.49577
2.49157
2.48632
2.48222
2.48327
2.49419
2.51816
2.555
2.60087
2.6497
2.69497
2.73116
2.75437
2.76235
2.75442
2.73126
2.69502
2.6494
2.59949
2.55121
2.51029
2.48109
2.46605
