# vtk DataFile Version 3.0
Brusselator Concentration Output
ASCII
DATASET STRUCTURED_POINTS
DIMENSIONS 40 40 1
ORIGIN 0.0 0.0 0.0
SPACING 0.005 0.005 1.0
POINT_DATA 1600
SCALARS C1 double 1
LOOKUP_TABLE default
1
1
1
1
1
0.999986
0.999952
0.999898
0.999838
0.999791
0.999773
0.999791
0.999838
0.999898
0.999952
0.999986
1
1
1
1
1
1
1
1
1
1
1
1
1
1
1
1
1
1
1
1
1
1
1
1
1
1
1
0.999997
0.999975
0.999919
0.999818
0.999682
0.999549
0.999459
0.999428
0.999459
0.999549
0.999682
0.999818
0.999919
0.999975
0.999997
1
1
1
1
1
1
1
1
1
1
1
1
1
1
1
1
1
1
1
1
1
1
1
1
0.999996
0.999966
0.999881
0.999704
0.99943
0.999122
0.998886
0.998772
0.998745
0.998772
0.998886
0.999122
0.99943
0.999704
0.999881
0.999966
0.999996
1
1
1
1
1
1
1
1
1
1
1
1
1
1
1
1
1
1
1
1
1
1
0.999997
0.999966
0.999865
0.999624
0.999196
0.998654
0.99823
0.998146
0.998327
0.998446
0.998327
0.998146
0.99823
0.998654
0.999196
0.999624
0.999865
0.999966
0.999997
1
1
1
1
1
1
1
1
1
1
1
1
1
1
1
1
1
1
1
1
1
0.999975
0.999881
0.999624
0.9991
0.998345
0.997735
0.997919
0.999196
1.00085
1.0016
1.00085
0.999196
0.997919
0.997735
0.998345
0.9991
0.999624
0.99988
0.999974
0.999998
1
1
1
1
1
1
1
1
1
1
1
1
1
1
1
1
1
1
1
0.999986
0.999919
0.999704
0.999196
0.998345
0.997555
0.998002
1.00113
1.00697
1.01286
1.01529
1.01286
1.00697
1.00113
0.998002
0.997555
0.998345
0.999196
0.999703
0.999918
0.999985
1
1
1
1
1
1
1
1
1
1
1
1
1
1
1
1
1
1
1
0.999952
0.999818
0.99943
0.998654
0.997735
0.998002
1.0022
1.01293
1.02888
1.04312
1.04852
1.04312
1.02888
1.01293
1.0022
0.998002
0.997734
0.998654
0.999429
0.999817
0.999957
0.999995
1
1
1
1
1
1
1
1
1
1
1
1
1
1
1
1
1
1
0.999898
0.999682
0.999122
0.99823
0.997919
1.00113
1.01293
1.0369
1.06792
1.09176
1.09959
1.09176
1.06792
1.0369
1.01293
1.00113
0.997919
0.99823
0.999121
0.999683
0.999914
0.999984
0.999999
1
1
1
1
1
1
1
1
1
1
1
1
1
1
1
1
1
0.999838
0.999549
0.998886
0.998146
0.999196
1.00697
1.02888
1.06792
1.11094
1.13566
1.14091
1.13566
1.11094
1.06792
1.02888
1.00697
0.999196
0.998145
0.998885
0.999552
0.999867
0.999971
0.999997
1
1
1
1
1
1
1
1
1
1
1
1
1
1
1
1
1
0.999791
0.999459
0.998772
0.998327
1.00085
1.01286
1.04312
1.09176
1.13566
1.14946
1.14774
1.14946
1.13566
1.09176
1.04312
1.01286
1.00085
0.998327
0.998772
0.999465
0.99983
0.999961
0.999994
1
1
1
1
1
1
1
1
1
1
1
1
1
1
1
1
1
0.999773
0.999428
0.998745
0.998446
1.0016
1.01529
1.04852
1.09959
1.14091
1.14774
1.1425
1.14774
1.14091
1.09959
1.04852
1.01529
1.00159
0.998445
0.998745
0.999435
0.999817
0.999956
0.999993
1
1
1
1
1
1
1
1
1
1
1
1
1
1
1
1
1
0.999791
0.999459
0.998772
0.998327
1.00085
1.01286
1.04312
1.09176
1.13566
1.14946
1.14774
1.14946
1.13566
1.09176
1.04312
1.01286
1.00085
0.998327
0.998772
0.999465
0.99983
0.999961
0.999994
1
1
1
1
1
1
1
1
1
1
1
1
1
1
1
1
1
0.999838
0.999549
0.998886
0.998146
0.999196
1.00697
1.02888
1.06792
1.11094
1.13566
1.14091
1.13566
1.11094
1.06792
1.02888
1.00697
0.999196
0.998145
0.998885
0.999552
0.999867
0.999971
0.999997
1
1
1
1
1
1
1
1
1
1
1
1
1
1
1
1
1
0.999898
0.999682
0.999122
0.99823
0.997919
1.00113
1.01293
1.0369
1.06792
1.09176
1.09959
1.09176
1.06792
1.0369
1.01293
1.00113
0.997919
0.99823
0.999121
0.999683
0.999914
0.999984
0.999999
1
1
1
1
1
1
1
1
1
1
1
1
1
1
1
1
1
0.999952
0.999818
0.99943
0.998654
0.997735
0.998002
1.0022
1.01293
1.02888
1.04312
1.04852
1.04312
1.02888
1.01293
1.0022
0.998002
0.997734
0.998654
0.999429
0.999817
0.999957
0.999995
1
1
1
1
1
1
1
1
1
1
1
1
1
1
1
1
1
1
0.999986
0.999919
0.999704
0.999196
0.998345
0.997555
0.998002
1.00113
1.00697
1.01286
1.01529
1.01286
1.00697
1.00113
0.998002
0.997555
0.998345
0.999196
0.999703
0.999918
0.999985
1
1
1
1
1
1
1
1
1
1
1
1
1
1
1
1
1
1
1
1
0.999975
0.999881
0.999624
0.9991
0.998345
0.997734
0.997919
0.999196
1.00085
1.00159
1.00085
0.999196
0.997919
0.997734
0.998345
0.9991
0.999623
0.99988
0.999974
0.999998
1
1
1
1
1
1
1
1
1
1
1
1
1
1
1
1
1
1
1
1
0.999997
0.999966
0.999865
0.999624
0.999196
0.998654
0.99823
0.998145
0.998327
0.998445
0.998327
0.998145
0.99823
0.998654
0.999196
0.999623
0.999864
0.999966
0.999997
1
1
1
1
1
1
1
1
1
1
1
1
1
1
1
1
1
1
1
1
1
1
0.999996
0.999966
0.99988
0.999703
0.999429
0.999121
0.998885
0.998772
0.998745
0.998772
0.998885
0.999121
0.999429
0.999703
0.99988
0.999966
0.999996
1
1
1
1
1
1
0.999999
0.999999
1
1
1
1
1
1
1
0.999999
0.999999
1
1
1
1
1
1
1
0.999997
0.999974
0.999918
0.999817
0.999683
0.999552
0.999465
0.999435
0.999465
0.999552
0.999683
0.999817
0.999918
0.999974
0.999997
1
1
1
1
1
0.999999
0.999999
0.999999
1
1
1.00001
1.00001
1.00001
1.00001
1.00001
1
1
0.999999
0.999999
0.999999
1
1
1
1
1
1
0.999998
0.999985
0.999957
0.999914
0.999867
0.99983
0.999817
0.99983
0.999867
0.999914
0.999957
0.999985
0.999998
1
1
1
1
1
0.999999
0.999999
1
1
1.00001
1.00003
1.00004
1.00006
1.00006
1.00006
1.00004
1.00003
1.00001
1
1
0.999999
0.999999
0.999999
1
1
1
1
1
1
0.999995
0.999984
0.999971
0.999961
0.999956
0.999961
0.999971
0.999984
0.999995
1
1
1
1
1
1
0.999999
0.999999
1
1.00001
1.00002
1.00006
1.00011
1.00016
1.0002
1.00021
1.0002
1.00016
1.00011
1.00006
1.00002
1.00001
1
0.999999
0.999999
1
1
1
1
1
1
1
0.999999
0.999997
0.999994
0.999993
0.999994
0.999997
0.999999
1
1
1
1
1
1
0.999999
0.999999
1
1.00001
1.00004
1.0001
1.00021
1.00034
1.00045
1.00052
1.00054
1.00052
1.00045
1.00034
1.00021
1.0001
1.00004
1.00001
1
0.999998
1
1
1
1
1
1
1
1
1
1
1
1
1
1
1
1
1
1
1
0.999999
0.999999
1
1.00001
1.00004
1.00013
1.00029
1.00053
1.00077
1.0009
1.00091
1.0009
1.00091
1.0009
1.00077
1.00053
1.00029
1.00013
1.00004
1.00001
0.999999
1
1
1
1
1
1
1
1
1
1
1
1
1
1
1
1
1
1
1
0.999999
1
1.00001
1.00004
1.00013
1.00033
1.00067
1.00104
1.00119
1.00095
1.00048
1.00025
1.00048
1.00095
1.00119
1.00104
1.00067
1.00033
1.00013
1.00004
1.00001
1
1
1
1
1
1
1
1
1
1
1
1
1
1
1
1
1
1
0.999999
0.999999
1
1.00002
1.0001
1.00029
1.00067
1.00114
1.00132
1.00059
0.998769
0.996756
0.995899
0.996756
0.998769
1.00059
1.00132
1.00114
1.00067
1.00029
1.0001
1.00003
1
1
1
1
1
1
1
1
1
1
1
1
1
1
1
1
1
1
0.999999
1
1.00001
1.00006
1.00021
1.00053
1.00104
1.00132
1.00034
0.996946
0.991419
0.986245
0.984216
0.986245
0.991419
0.996946
1.00034
1.00132
1.00104
1.00053
1.00021
1.00007
1
1
1
1
1
1
1
1
1
1
1
1
1
1
1
1
1
1
1
1
1.00003
1.00011
1.00034
1.00077
1.00119
1.00059
0.996946
0.988717
0.977488
0.96815
0.964768
0.96815
0.977488
0.988717
0.996946
1.00059
1.00119
1.00077
1.00034
1.00014
1
1
1
1
1
1
1
1
1
1
1
1
1
1
1
1
1
1
1
1.00001
1.00004
1.00016
1.00045
1.0009
1.00095
0.998769
0.991419
0.977488
0.960637
0.948077
0.943951
0.948077
0.960637
0.977488
0.991419
0.998769
1.00095
1.0009
1.00046
1.00021
1
1
1
1
1
1
1
1
1
1
1
1
1
1
1
1
1
1
1
1.00001
1.00006
1.0002
1.00052
1.00091
1.00048
0.996756
0.986245
0.96815
0.948077
0.934567
0.930643
0.934567
0.948077
0.96815
0.986245
0.996756
1.00048
1.00091
1.00053
1.00026
1
1
1
1
1
1
1
1
1
1
1
1
1
1
1
1
1
1
1
1.00001
1.00006
1.00021
1.00054
1.0009
1.00025
0.995899
0.984216
0.964768
0.943951
0.930643
0.927071
0.930643
0.943951
0.964768
0.984216
0.995899
1.00025
1.0009
1.00056
1.00028
1
1
1
1
1
1
1
1
1
1
1
1
1
1
1
1
1
1
1
1.00001
1.00006
1.0002
1.00052
1.00091
1.00048
0.996756
0.986245
0.96815
0.948077
0.934567
0.930643
0.934567
0.948077
0.96815
0.986245
0.996756
1.00048
1.00091
1.00053
1.00026
1
1
1
1
1
1
1
1
1
1
1
1
1
1
1
1
1
1
1
1.00001
1.00004
1.00016
1.00045
1.0009
1.00095
0.998769
0.991419
0.977488
0.960637
0.948077
0.943951
0.948077
0.960637
0.977488
0.991419
0.998769
1.00095
1.0009
1.00046
1.00021
1
1
1
1
1
1
1
1
1
1
1
1
1
1
1
1
1
1
1
1
1.00003
1.00011
1.00034
1.00077
1.00119
1.00059
0.996946
0.988717
0.977488
0.96815
0.964768
0.96815
0.977488
0.988717
0.996946
1.00059
1.00119
1.00077
1.00034
1.00014
1
1
1
1
1
1
1
1
1
1
1
1
1
1
1
1
1
1
0.999999
1
1.00001
1.00006
1.00021
1.00053
1.00104
1.00132
1.00034
0.996946
0.991419
0.986245
0.984216
0.986245
0.991419
0.996946
1.00034
1.00132
1.00104
1.00053
1.00021
1.00007
1
1
1
1
1
1
1
1
1
1
1
1
1
1
1
1
1
1
0.999999
0.999999
1
1.00002
1.0001
1.00029
1.00067
1.00114
1.00132
1.00059
0.998769
0.996756
0.995899
0.996756
0.998769
1.00059
1.00132
1.00114
1.00067
1.00029
1.0001
1.00003
1
1
1
1
1
1
1
1
1
1
1
1
1
1
1
1
1
1
1
0.999999
1
1.00001
1.00004
1.00013
1.00033
1.00067
1.00104
1.00119
1.00095
1.00048
1.00025
1.00048
1.00095
1.00119
1.00104
1.00067
1.00033
1.00013
1.00004
1.00001
1
1
1
1
1
1
1
1
1
1
1
1
1
1
1
1
1
1
1
0.999999
0.999999
1
1.00001
1.00004
1.00013
1.00029
1.00053
1.00077
1.0009
1.00091
1.0009
1.00091
1.0009
1.00077
1.00053
1.00029
1.00013
1.00004
1.00001
0.999999
1
1
1
1
1
1
1
1
1
1
1
1
1
1
1
1
1
1
1
1
0.999999
0.999999
1
1.00001
1.00004
1.0001
1.00021
1.00034
1.00046
1.00053
1.00056
1.00053
1.00046
1.00034
1.00021
1.0001
1.00004
1.00001
0.999999
0.999998
1
1
1
1
1
1
1
1
1
1
1
1
1
1
1
1
1
1
1
1
0.999999
0.999999
0.999998
0.999999
1.00001
1.00003
1.00007
1.00014
1.00021
1.00026
1.00028
1.00026
1.00021
1.00014
1.00007
1.00003
1.00001
0.999999
0.999998
0.999998
SCALARS C2 double 1
LOOKUP_TABLE default
2.5
2.5
2.5
2.49999
2.49999
2.49999
2.50001
2.50005
2.50011
2.50017
2.50019
2.50017
2.50011
2.50005
2.50001
2.49999
2.49999
2.49999
2.5
2.5
2.5
2.5
2.5
2.5
2.5
2.5
2.5
2.5
2.5
2.5
2.5
2.5
2.5
2.5
2.5
2.5
2.5
2.5
2.5
2.5
2.5
2.5
2.49999
2.49999
2.5
2.50004
2.50013
2.50029
2.50048
2.50064
2.50069
2.50064
2.50048
2.50029
2.50013
2.50004
2.5
2.49999
2.49999
2.5
2.5
2.5
2.5
2.5
2.5
2.5
2.5
2.5
2.5
2.5
2.5
2.5
2.5
2.5
2.5
2.5
2.5
2.5
2.5
2.5
2.5
2.49999
2.49999
2.5
2.50007
2.50024
2.50059
2.5011
2.50163
2.50201
2.50214
2.50201
2.50163
2.5011
2.50059
2.50024
2.50007
2.5
2.49999
2.49999
2.5
2.5
2.5
2.5
2.5
2.5
2.5
2.5
2.5
2.5
2.5
2.5
2.5
2.5
2.5
2.5
2.5
2.5
2.5
2.5
2.49999
2.49999
2.5
2.50008
2.50032
2.50089
2.50185
2.50306
2.50411
2.5047
2.50486
2.5047
2.50411
2.50306
2.50185
2.50089
2.50032
2.50008
2.5
2.49999
2.49999
2.5
2.5
2.5
2.5
2.5
2.5
2.5
2.5
2.5
2.5
2.5
2.5
2.5
2.5
2.5
2.5
2.5
2.5
2.5
2.49999
2.5
2.50007
2.50032
2.50101
2.50239
2.5044
2.50639
2.50741
2.50731
2.50706
2.50731
2.50741
2.50639
2.5044
2.50239
2.50101
2.50032
2.50007
2.5
2.49999
2.5
2.5
2.5
2.5
2.5
2.5
2.5
2.5
2.5
2.5
2.5
2.5
2.5
2.5
2.5
2.5
2.5
2.5
2.5
2.49999
2.50004
2.50024
2.50089
2.50239
2.50496
2.50787
2.50913
2.50691
2.50253
2.50029
2.50253
2.50691
2.50913
2.50787
2.50496
2.50239
2.50089
2.50024
2.50004
2.5
2.49999
2.5
2.5
2.5
2.5
2.5
2.5
2.5
2.5
2.5
2.5
2.5
2.5
2.5
2.5
2.5
2.5
2.5
2.5
2.50001
2.50013
2.50059
2.50185
2.5044
2.50787
2.50963
2.50478
2.49063
2.47338
2.46565
2.47338
2.49063
2.50478
2.50963
2.50787
2.5044
2.50185
2.5006
2.50014
2.50001
2.49999
2.5
2.5
2.5
2.5
2.5
2.5
2.5
2.5
2.5
2.5
2.5
2.5
2.5
2.5
2.5
2.5
2.5
2.5
2.50005
2.50029
2.5011
2.50306
2.50639
2.50913
2.50478
2.4836
2.44308
2.40093
2.38368
2.40093
2.44308
2.4836
2.50478
2.50913
2.50639
2.50306
2.5011
2.5003
2.50005
2.5
2.5
2.5
2.5
2.5
2.5
2.5
2.5
2.5
2.5
2.5
2.5
2.5
2.5
2.5
2.5
2.5
2.5
2.5
2.50011
2.50048
2.50163
2.50411
2.50741
2.50691
2.49063
2.44308
2.36618
2.29667
2.27141
2.29667
2.36618
2.44308
2.49063
2.50691
2.50741
2.50412
2.50163
2.50049
2.5001
2.50001
2.5
2.5
2.5
2.5
2.5
2.5
2.5
2.5
2.5
2.5
2.5
2.5
2.5
2.5
2.5
2.5
2.5
2.5
2.50017
2.50064
2.50201
2.5047
2.50731
2.50253
2.47338
2.40093
2.29667
2.21516
2.18957
2.21516
2.29667
2.40093
2.47338
2.50253
2.50731
2.5047
2.50201
2.50064
2.50015
2.50002
2.5
2.5
2.5
2.5
2.5
2.5
2.5
2.5
2.5
2.5
2.5
2.5
2.5
2.5
2.5
2.5
2.5
2.5
2.50019
2.50069
2.50214
2.50486
2.50706
2.50029
2.46565
2.38368
2.27141
2.18957
2.16586
2.18957
2.27141
2.38368
2.46565
2.50029
2.50706
2.50487
2.50214
2.50069
2.50017
2.50002
2.5
2.5
2.5
2.5
2.5
2.5
2.5
2.5
2.5
2.5
2.5
2.5
2.5
2.5
2.5
2.5
2.5
2.5
2.50017
2.50064
2.50201
2.5047
2.50731
2.50253
2.47338
2.40093
2.29667
2.21516
2.18957
2.21516
2.29667
2.40093
2.47338
2.50253
2.50731
2.5047
2.50201
2.50064
2.50015
2.50002
2.5
2.5
2.5
2.5
2.5
2.5
2.5
2.5
2.5
2.5
2.5
2.5
2.5
2.5
2.5
2.5
2.5
2.5
2.50011
2.50048
2.50163
2.50411
2.50741
2.50691
2.49063
2.44308
2.36618
2.29667
2.27141
2.29667
2.36618
2.44308
2.49063
2.50691
2.50741
2.50412
2.50163
2.50049
2.5001
2.50001
2.5
2.5
2.5
2.5
2.5
2.5
2.5
2.5
2.5
2.5
2.5
2.5
2.5
2.5
2.5
2.5
2.5
2.5
2.50005
2.50029
2.5011
2.50306
2.50639
2.50913
2.50478
2.4836
2.44308
2.40093
2.38368
2.40093
2.44308
2.4836
2.50478
2.50913
2.50639
2.50306
2.5011
2.5003
2.50005
2.5
2.5
2.5
2.5
2.5
2.5
2.5
2.5
2.5
2.5
2.5
2.5
2.5
2.5
2.5
2.5
2.5
2.5
2.5
2.50001
2.50013
2.50059
2.50185
2.5044
2.50787
2.50963
2.50478
2.49063
2.47338
2.46565
2.47338
2.49063
2.50478
2.50963
2.50787
2.5044
2.50185
2.5006
2.50014
2.50001
2.49999
2.5
2.5
2.5
2.5
2.5
2.5
2.5
2.5
2.5
2.5
2.5
2.5
2.5
2.5
2.5
2.5
2.5
2.5
2.49999
2.50004
2.50024
2.50089
2.50239
2.50496
2.50787
2.50913
2.50691
2.50253
2.50029
2.50253
2.50691
2.50913
2.50787
2.50496
2.50239
2.50089
2.50024
2.50004
2.5
2.49999
2.5
2.5
2.5
2.5
2.5
2.5
2.5
2.5
2.5
2.5
2.5
2.5
2.5
2.5
2.5
2.5
2.5
2.5
2.49999
2.5
2.50007
2.50032
2.50101
2.50239
2.5044
2.50639
2.50741
2.50731
2.50706
2.50731
2.50741
2.50639
2.5044
2.50239
2.50101
2.50032
2.50007
2.5
2.49999
2.5
2.5
2.5
2.5
2.5
2.5
2.5
2.5
2.5
2.5
2.5
2.5
2.5
2.5
2.5
2.5
2.5
2.5
2.5
2.49999
2.49999
2.5
2.50008
2.50032
2.50089
2.50185
2.50306
2.50412
2.5047
2.50487
2.5047
2.50412
2.50306
2.50185
2.50089
2.50032
2.50008
2.5
2.49999
2.49999
2.5
2.5
2.5
2.5
2.5
2.5
2.5
2.5
2.5
2.5
2.5
2.5
2.5
2.5
2.5
2.5
2.5
2.5
2.5
2.5
2.49999
2.49999
2.5
2.50007
2.50024
2.5006
2.5011
2.50163
2.50201
2.50214
2.50201
2.50163
2.5011
2.5006
2.50024
2.50007
2.5
2.49999
2.49999
2.5
2.5
2.5
2.5
2.5
2.5
2.5
2.5
2.5
2.5
2.5
2.5
2.5
2.5
2.5
2.5
2.5
2.5
2.5
2.5
2.5
2.5
2.49999
2.49999
2.5
2.50004
2.50014
2.5003
2.50049
2.50064
2.50069
2.50064
2.50049
2.5003
2.50014
2.50004
2.5
2.49999
2.49999
2.5
2.5
2.5
2.5
2.5
2.5
2.5
2.5
2.5
2.5
2.5
2.49999
2.5
2.5
2.5
2.5
2.5
2.5
2.5
2.5
2.5
2.5
2.5
2.5
2.49999
2.49999
2.5
2.50001
2.50005
2.5001
2.50015
2.50017
2.50015
2.5001
2.50005
2.50001
2.5
2.49999
2.49999
2.5
2.5
2.5
2.5
2.5
2.5
2.5
2.5
2.5
2.49999
2.49997
2.49996
2.49995
2.49996
2.49997
2.49999
2.5
2.5
2.5
2.5
2.5
2.5
2.5
2.5
2.5
2.5
2.5
2.49999
2.49999
2.5
2.50001
2.50002
2.50002
2.50002
2.50001
2.5
2.49999
2.49999
2.5
2.5
2.5
2.5
2.5
2.5
2.5
2.5
2.5
2.49999
2.49996
2.49991
2.49984
2.49978
2.49976
2.49978
2.49984
2.49991
2.49996
2.49999
2.5
2.5
2.5
2.5
2.5
2.5
2.5
2.5
2.5
2.5
2.5
2.5
2.5
2.5
2.5
2.5
2.5
2.5
2.5
2.5
2.5
2.5
2.5
2.5
2.5
2.5
2.5
2.5
2.49999
2.49993
2.49981
2.49962
2.49941
2.49925
2.49919
2.49925
2.49941
2.49962
2.49981
2.49993
2.49999
2.5
2.50001
2.5
2.5
2.5
2.5
2.5
2.5
2.5
2.5
2.5
2.5
2.5
2.5
2.5
2.5
2.5
2.5
2.5
2.5
2.5
2.5
2.5
2.5
2.5
2.5
2.49998
2.4999
2.49971
2.49934
2.49884
2.49835
2.49803
2.49793
2.49803
2.49835
2.49884
2.49934
2.49971
2.4999
2.49998
2.5
2.50001
2.5
2.5
2.5
2.5
2.5
2.5
2.5
2.5
2.5
2.5
2.5
2.5
2.5
2.5
2.5
2.5
2.5
2.5
2.5
2.5
2.5
2.5
2.49999
2.4999
2.49967
2.49914
2.49829
2.4973
2.49657
2.49631
2.49629
2.49631
2.49657
2.4973
2.49829
2.49914
2.49967
2.4999
2.49999
2.50001
2.5
2.5
2.5
2.5
2.5
2.5
2.5
2.5
2.5
2.5
2.5
2.5
2.5
2.5
2.5
2.5
2.5
2.5
2.5
2.5
2.5
2.49999
2.49993
2.49971
2.49914
2.49806
2.49658
2.49541
2.49538
2.49635
2.49696
2.49635
2.49538
2.49541
2.49658
2.49806
2.49914
2.49971
2.49993
2.5
2.5
2.5
2.5
2.5
2.5
2.5
2.5
2.5
2.5
2.5
2.5
2.5
2.5
2.5
2.5
2.5
2.5
2.5
2.5
2.5
2.5
2.49996
2.49981
2.49934
2.49829
2.49658
2.49498
2.49531
2.49891
2.50409
2.50656
2.50409
2.49891
2.49531
2.49498
2.49658
2.49829
2.49934
2.49981
2.49996
2.5
2.5
2.5
2.5
2.5
2.5
2.5
2.5
2.5
2.5
2.5
2.5
2.5
2.5
2.5
2.5
2.5
2.5
2.5
2.5
2.49999
2.49991
2.49962
2.49884
2.4973
2.49541
2.49531
2.50063
2.51279
2.52655
2.53258
2.52655
2.51279
2.50063
2.49531
2.49541
2.4973
2.49884
2.49962
2.49989
2.5
2.5
2.5
2.5
2.5
2.5
2.5
2.5
2.5
2.5
2.5
2.5
2.5
2.5
2.5
2.5
2.5
2.5
2.5
2.5
2.49997
2.49984
2.49941
2.49835
2.49657
2.49538
2.49891
2.51279
2.5376
2.56308
2.57377
2.56308
2.5376
2.51279
2.49891
2.49538
2.49657
2.49835
2.49941
2.49981
2.5
2.5
2.5
2.5
2.5
2.5
2.5
2.5
2.5
2.5
2.5
2.5
2.5
2.5
2.5
2.5
2.5
2.5
2.5
2.5
2.49996
2.49978
2.49925
2.49803
2.49631
2.49635
2.50409
2.52655
2.56308
2.59889
2.61357
2.59889
2.56308
2.52655
2.50409
2.49635
2.49631
2.49803
2.49924
2.49974
2.5
2.5
2.5
2.5
2.5
2.5
2.5
2.5
2.5
2.5
2.5
2.5
2.5
2.5
2.5
2.5
2.5
2.5
2.5
2.49999
2.49995
2.49976
2.49919
2.49793
2.49629
2.49696
2.50656
2.53258
2.57377
2.61357
2.62975
2.61357
2.57377
2.53258
2.50656
2.49696
2.49629
2.49793
2.49918
2.49971
2.5
2.5
2.5
2.5
2.5
2.5
2.5
2.5
2.5
2.5
2.5
2.5
2.5
2.5
2.5
2.5
2.5
2.5
2.5
2.5
2.49996
2.49978
2.49925
2.49803
2.49631
2.49635
2.50409
2.52655
2.56308
2.59889
2.61357
2.59889
2.56308
2.52655
2.50409
2.49635
2.49631
2.49803
2.49924
2.49974
2.5
2.5
2.5
2.5
2.5
2.5
2.5
2.5
2.5
2.5
2.5
2.5
2.5
2.5
2.5
2.5
2.5
2.5
2.5
2.5
2.49997
2.49984
2.49941
2.49835
2.49657
2.49538
2.49891
2.51279
2.5376
2.56308
2.57377
2.56308
2.5376
2.51279
2.49891
2.49538
2.49657
2.49835
2.49941
2.49981
2.5
2.5
2.5
2.5
2.5
2.5
2.5
2.5
2.5
2.5
2.5
2.5
2.5
2.5
2.5
2.5
2.5
2.5
2.5
2.5
2.49999
2.49991
2.49962
2.49884
2.4973
2.49541
2.49531
2.50063
2.51279
2.52655
2.53258
2.52655
2.51279
2.50063
2.49531
2.49541
2.4973
2.49884
2.49962
2.49989
2.5
2.5
2.5
2.5
2.5
2.5
2.5
2.5
2.5
2.5
2.5
2.5
2.5
2.5
2.5
2.5
2.5
2.5
2.5
2.5
2.5
2.49996
2.49981
2.49934
2.49829
2.49658
2.49498
2.49531
2.49891
2.50409
2.50656
2.50409
2.49891
2.49531
2.49498
2.49658
2.49829
2.49934
2.49981
2.49996
2.5
2.5
2.5
2.5
2.5
2.5
2.5
2.5
2.5
2.5
2.5
2.5
2.5
2.5
2.5
2.5
2.5
2.5
2.5
2.5
2.5
2.49999
2.49993
2.49971
2.49914
2.49806
2.49658
2.49541
2.49538
2.49635
2.49696
2.49635
2.49538
2.49541
2.49658
2.49806
2.49914
2.49971
2.49993
2.5
2.5
2.5
2.5
2.5
2.5
2.5
2.5
2.5
2.5
2.5
2.5
2.5
2.5
2.5
2.5
2.5
2.5
2.5
2.5
2.5
2.5
2.5
2.49999
2.4999
2.49967
2.49914
2.49829
2.4973
2.49657
2.49631
2.49629
2.49631
2.49657
2.4973
2.49829
2.49914
2.49967
2.49991
2.49999
2.50001
2.5
2.5
2.5
2.5
2.5
2.5
2.5
2.5
2.5
2.5
2.5
2.5
2.5
2.5
2.5
2.5
2.5
2.5
2.5
2.5
2.5
2.5
2.5
2.49998
2.4999
2.49971
2.49934
2.49884
2.49835
2.49803
2.49793
2.49803
2.49835
2.49884
2.49934
2.49971
2.49991
2.49998
2.5
2.50001
2.5
2.5
2.5
2.5
2.5
2.5
2.5
2.5
2.5
2.5
2.5
2.5
2.5
2.5
2.5
2.5
2.5
2.5
2.5
2.5
2.5
2.5
2.50001
2.5
2.49999
2.49993
2.49981
2.49962
2.49941
2.49924
2.49918
2.49924
2.49941
2.49962
2.49981
2.49993
2.49999
2.5
2.50001
2.5
2.5
2.5
2.5
2.5
2.5
2.5
2.5
2.5
2.5
2.5
2.5
2.5
2.5
2.5
2.5
2.5
2.5
2.5
2.5
2.5
2.5
2.5
2.5
2.50001
2.50001
2.5
2.49996
2.49989
2.49981
2.49974
2.49971
2.49974
2.49981
2.49989
2.49996
2.5
2.50001
2.50001
2.5
2.5
