# vtk DataFile Version 3.0
Brusselator Concentration Output
ASCII
DATASET STRUCTURED_POINTS
DIMENSIONS 40 40 1
ORIGIN 0.0 0.0 0.0
SPACING 0.005 0.005 1.0
POINT_DATA 1600
SCALARS C1 double 1
LOOKUP_TABLE default
0.999913
0.999529
0.998691
0.997372
0.995726
0.994121
0.992985
0.992555
0.992721
0.993097
0.993279
0.993097
0.992721
0.992555
0.992984
0.994119
0.995719
0.997355
0.998656
0.999478
0.999885
1.00003
1.00005
1.00003
1.00002
1.00001
1
1
1
1
1
1
1
1
1
1
1
1
1
1
0.999529
0.998945
0.997805
0.996296
0.994888
0.994232
0.994834
0.99668
0.99913
1.00119
1.00199
1.00119
0.99913
0.99668
0.994833
0.994228
0.994878
0.996276
0.997772
0.998925
0.999608
0.999921
1.00002
1.00003
1.00002
1.00001
1
1
1
1
1
1
1
1
1
1
1
1
1
1
0.998691
0.997805
0.996321
0.994956
0.99485
0.997184
1.00248
1.01004
1.01798
1.02396
1.02618
1.02396
1.01798
1.01004
1.00248
0.997178
0.994836
0.994933
0.996305
0.997867
0.999024
0.999667
0.999938
1.00002
1.00002
1.00001
1.00001
1
1
1
1
1
1
1
1
1
1
1
1
1
0.997372
0.996296
0.994956
0.995011
0.998677
1.00782
1.02268
1.04103
1.0586
1.07101
1.07545
1.07101
1.0586
1.04103
1.02268
1.00781
0.998659
0.994993
0.994985
0.996526
0.998143
0.999228
0.999769
0.99997
1.00002
1.00002
1.00001
1
1
1
1
1
1
1
1
1
1
1
1
1
0.995726
0.994888
0.99485
0.998677
1.01003
1.03143
1.06193
1.09578
1.12475
1.14304
1.1491
1.14304
1.12475
1.09578
1.06193
1.03142
1.01001
0.998677
0.994969
0.995389
0.997107
0.998614
0.999495
0.999878
0.999998
1.00002
1.00001
1.00001
1
1
1
1
1
1
1
1
1
1
1
1
0.994121
0.994232
0.997184
1.00782
1.03143
1.07045
1.11977
1.16583
1.19608
1.20949
1.21271
1.20949
1.19607
1.16583
1.11976
1.07043
1.03142
1.00786
0.997444
0.995094
0.996197
0.997917
0.999133
0.999737
0.999958
1.00001
1.00001
1.00001
1
1
1
1
1
1
1
1
1
1
1
1
0.992985
0.994834
1.00248
1.02268
1.06193
1.11977
1.18035
1.21836
1.22533
1.21677
1.21149
1.21677
1.22532
1.21836
1.18034
1.11976
1.06193
1.02278
1.00292
0.996095
0.995701
0.997278
0.998735
0.99956
0.9999
0.999999
1.00001
1.00001
1
1
1
1
1
1
1
1
1
1
1
1
0.992555
0.99668
1.01004
1.04103
1.09578
1.16583
1.21836
1.2234
1.19224
1.15821
1.14448
1.15821
1.19224
1.22339
1.21835
1.16582
1.0958
1.0412
1.01067
0.998313
0.99574
0.996817
0.998372
0.999378
0.999832
0.999981
1.00001
1.00001
1
1
1
1
1
1
1
1
1
1
1
1
0.992721
0.99913
1.01798
1.0586
1.12475
1.19608
1.22533
1.19224
1.13058
1.08036
1.06186
1.08036
1.13058
1.19224
1.22532
1.19607
1.12479
1.05884
1.01877
1.00105
0.996167
0.996567
0.998096
0.999223
0.99977
0.999963
1.00001
1.00001
1
1
1
1
1
1
1
1
1
1
1
1
0.993097
1.00119
1.02396
1.07101
1.14304
1.20949
1.21677
1.15821
1.08036
1.02291
1.00251
1.02291
1.08035
1.15821
1.21676
1.20949
1.1431
1.0713
1.02487
1.00329
0.996646
0.996474
0.99793
0.99912
0.999727
0.99995
1.00001
1.00001
1.00001
1
1
1
1
1
1
1
1
1
1
1
0.993279
1.00199
1.02618
1.07545
1.1491
1.21271
1.21149
1.14448
1.06186
1.00251
0.981657
1.00251
1.06185
1.14448
1.21148
1.21271
1.14917
1.07576
1.02712
1.00414
0.996851
0.996455
0.997876
0.999084
0.999711
0.999945
1
1.00001
1.00001
1
1
1
1
1
1
1
1
1
1
1
0.993097
1.00119
1.02396
1.07101
1.14304
1.20949
1.21677
1.15821
1.08036
1.02291
1.00251
1.02291
1.08035
1.15821
1.21676
1.20949
1.1431
1.0713
1.02487
1.00329
0.996646
0.996474
0.99793
0.99912
0.999726
0.999949
1.00001
1.00001
1
1
1
0.999999
0.999999
0.999999
1
1
1
1
1
1
0.992721
0.99913
1.01798
1.0586
1.12475
1.19607
1.22532
1.19224
1.13058
1.08035
1.06185
1.08035
1.13057
1.19224
1.22532
1.19607
1.12479
1.05884
1.01877
1.00105
0.996167
0.996567
0.998096
0.999222
0.99977
0.999962
1.00001
1.00001
1
1
0.999998
0.999998
0.999998
0.999998
0.999999
0.999999
0.999999
1
1
1
0.992555
0.99668
1.01004
1.04103
1.09578
1.16583
1.21836
1.22339
1.19224
1.15821
1.14448
1.15821
1.19224
1.22339
1.21835
1.16581
1.0958
1.0412
1.01067
0.998312
0.99574
0.996817
0.998371
0.999377
0.99983
0.999979
1.00001
1.00001
1
0.999997
0.999996
0.999996
0.999996
0.999996
0.999997
0.999997
0.999998
0.999999
0.999999
1
0.992984
0.994833
1.00248
1.02268
1.06193
1.11976
1.18034
1.21835
1.22532
1.21676
1.21148
1.21676
1.22532
1.21835
1.18033
1.11975
1.06193
1.02278
1.00292
0.996094
0.9957
0.997277
0.998733
0.999557
0.999895
0.999993
1.00001
1
0.999998
0.999996
0.999995
0.999995
0.999994
0.999993
0.999993
0.999994
0.999995
0.999996
0.999998
0.999998
0.994119
0.994228
0.997178
1.00781
1.03142
1.07043
1.11976
1.16582
1.19607
1.20949
1.21271
1.20949
1.19607
1.16581
1.11975
1.07042
1.03141
1.00785
0.997438
0.99509
0.996194
0.997913
0.999127
0.999729
0.999949
1
1.00001
1.00001
1.00001
1.00001
1.00001
1.00001
1.00001
1
0.999995
0.999992
0.999991
0.999992
0.999994
0.999995
0.995719
0.994878
0.994836
0.998659
1.01001
1.03142
1.06193
1.0958
1.12479
1.1431
1.14917
1.1431
1.12479
1.0958
1.06193
1.03141
1.00999
0.998659
0.994955
0.995378
0.997098
0.998605
0.999484
0.999867
0.999991
1.00002
1.00004
1.00005
1.00007
1.00008
1.00009
1.00008
1.00007
1.00005
1.00002
1
0.999993
0.999988
0.999988
0.999988
0.997355
0.996276
0.994933
0.994993
0.998677
1.00786
1.02278
1.0412
1.05884
1.0713
1.07576
1.0713
1.05884
1.0412
1.02278
1.00785
0.998659
0.994973
0.99496
0.996503
0.998122
0.999209
0.999755
0.999969
1.00005
1.00009
1.00015
1.00021
1.00027
1.00031
1.00033
1.00031
1.00027
1.00021
1.00014
1.00007
1.00003
0.999997
0.999983
0.999979
0.998656
0.997772
0.996305
0.994985
0.994969
0.997444
1.00292
1.01067
1.01877
1.02487
1.02712
1.02487
1.01877
1.01067
1.00292
0.997438
0.994955
0.99496
0.996286
0.997831
0.998989
0.999642
0.99994
1.00008
1.00018
1.00031
1.00046
1.00062
1.00074
1.00083
1.00085
1.00083
1.00074
1.00062
1.00046
1.00029
1.00015
1.00006
0.999999
0.999975
0.999478
0.998925
0.997867
0.996526
0.995389
0.995094
0.996095
0.998313
1.00105
1.00329
1.00414
1.00329
1.00105
0.998312
0.996094
0.99509
0.995378
0.996503
0.997831
0.998904
0.999571
0.999915
1.0001
1.00028
1.00051
1.0008
1.00111
1.00136
1.00154
1.00163
1.00165
1.00163
1.00153
1.00136
1.0011
1.00079
1.00049
1.00024
1.00008
1.00001
0.999885
0.999608
0.999024
0.998143
0.997107
0.996197
0.995701
0.99574
0.996167
0.996646
0.996851
0.996646
0.996167
0.99574
0.9957
0.996194
0.997098
0.998122
0.998989
0.999571
0.999906
1.00012
1.00036
1.0007
1.00116
1.00164
1.00201
1.0022
1.00221
1.00213
1.00209
1.00213
1.00221
1.0022
1.00201
1.00163
1.00114
1.00067
1.00032
1.00014
1.00003
0.999921
0.999667
0.999228
0.998614
0.997917
0.997278
0.996817
0.996567
0.996474
0.996455
0.996474
0.996567
0.996817
0.997277
0.997913
0.998605
0.999209
0.999642
0.999915
1.00012
1.00039
1.00082
1.00143
1.00208
1.00252
1.00251
1.00199
1.00119
1.00048
1.00019
1.00048
1.00119
1.00199
1.0025
1.00251
1.00207
1.00141
1.00082
1.00048
1.00005
1.00002
0.999938
0.999769
0.999495
0.999133
0.998735
0.998372
0.998096
0.99793
0.997876
0.99793
0.998096
0.998371
0.998733
0.999127
0.999484
0.999755
0.99994
1.0001
1.00036
1.00082
1.00153
1.00233
1.0028
1.0024
1.00081
0.998236
0.995418
0.993259
0.992455
0.993259
0.995417
0.998234
1.0008
1.00239
1.00279
1.00233
1.00162
1.00113
1.00003
1.00003
1.00002
0.99997
0.999878
0.999737
0.99956
0.999378
0.999223
0.99912
0.999084
0.99912
0.999222
0.999377
0.999557
0.999729
0.999867
0.999969
1.00008
1.00028
1.0007
1.00143
1.00233
1.00288
1.00217
0.999332
0.994211
0.987717
0.981465
0.977033
0.975443
0.977033
0.981464
0.987713
0.994204
0.999322
1.00217
1.00294
1.00258
1.0021
1.00002
1.00002
1.00002
1.00002
0.999998
0.999958
0.9999
0.999832
0.99977
0.999727
0.999711
0.999726
0.99977
0.99983
0.999895
0.999949
0.999991
1.00005
1.00018
1.00051
1.00116
1.00208
1.0028
1.00217
0.998662
0.991285
0.980599
0.968752
0.958393
0.951518
0.949136
0.951518
0.958391
0.968748
0.980591
0.991279
0.99869
1.00233
1.00329
1.00323
1.00001
1.00001
1.00001
1.00002
1.00002
1.00001
0.999999
0.999981
0.999963
0.99995
0.999945
0.999949
0.999962
0.999979
0.999993
1
1.00002
1.00009
1.00031
1.0008
1.00164
1.00252
1.0024
0.999332
0.991285
0.977706
0.960574
0.943544
0.929949
0.921542
0.918742
0.921541
0.929947
0.943539
0.960566
0.977712
0.991361
0.999627
1.00319
1.00416
1
1
1.00001
1.00001
1.00001
1.00001
1.00001
1.00001
1.00001
1.00001
1
1.00001
1.00001
1.00001
1.00001
1.00001
1.00004
1.00015
1.00046
1.00111
1.00201
1.00251
1.00081
0.994211
0.980599
0.960574
0.93796
0.917679
0.903032
0.894767
0.892173
0.894766
0.903029
0.917674
0.937955
0.960597
0.980736
0.994665
1.00191
1.00452
1
1
1
1
1.00001
1.00001
1.00001
1.00001
1.00001
1.00001
1.00001
1.00001
1.00001
1.00001
1
1.00001
1.00005
1.00021
1.00062
1.00136
1.0022
1.00199
0.998236
0.987717
0.968752
0.943544
0.917679
0.896783
0.883485
0.877023
0.875231
0.877022
0.883481
0.896777
0.917679
0.943588
0.968954
0.988322
0.999586
1.00418
1
1
1
1
1
1
1
1
1
1.00001
1.00001
1
1
1
0.999998
1.00001
1.00007
1.00027
1.00074
1.00154
1.00221
1.00119
0.995418
0.981465
0.958393
0.929949
0.903032
0.883485
0.873009
0.869265
0.868585
0.869263
0.873005
0.883479
0.903036
0.930011
0.958651
0.982191
0.996932
1.00337
1
1
1
1
1
1
1
1
1
1
1
1
1
0.999997
0.999996
1.00001
1.00008
1.00031
1.00083
1.00163
1.00213
1.00048
0.993259
0.977033
0.951518
0.921542
0.894767
0.877023
0.869265
0.867947
0.86824
0.867945
0.869261
0.877018
0.894774
0.921617
0.951814
0.977835
0.994858
1.00258
1
1
1
1
1
1
1
1
1
1
1
1
0.999998
0.999996
0.999995
1.00001
1.00009
1.00033
1.00085
1.00165
1.00209
1.00019
0.992455
0.975443
0.949136
0.918742
0.892173
0.875231
0.868585
0.86824
0.86892
0.868238
0.868581
0.875226
0.892182
0.918822
0.949445
0.97627
0.994079
1.00226
1
1
1
1
1
1
1
1
1
1
1
0.999999
0.999998
0.999996
0.999995
1.00001
1.00008
1.00031
1.00083
1.00163
1.00213
1.00048
0.993259
0.977033
0.951518
0.921541
0.894766
0.877022
0.869263
0.867945
0.868238
0.867944
0.869259
0.877017
0.894773
0.921616
0.951814
0.977835
0.994858
1.00258
1
1
1
1
1
1
1
1
1
1
1
0.999999
0.999998
0.999996
0.999994
1.00001
1.00007
1.00027
1.00074
1.00153
1.00221
1.00119
0.995417
0.981464
0.958391
0.929947
0.903029
0.883481
0.873005
0.869261
0.868581
0.869259
0.873001
0.883475
0.903033
0.930009
0.958649
0.98219
0.996932
1.00337
1
1
1
1
1
1
1
1
1
1
1
0.999999
0.999998
0.999996
0.999993
1
1.00005
1.00021
1.00062
1.00136
1.0022
1.00199
0.998234
0.987713
0.968748
0.943539
0.917674
0.896777
0.883479
0.877018
0.875226
0.877017
0.883475
0.896771
0.917673
0.943582
0.96895
0.988319
0.999583
1.00418
1
1
1
1
1
1
1
1
1
1
1
1
0.999999
0.999997
0.999993
0.999995
1.00002
1.00014
1.00046
1.0011
1.00201
1.0025
1.0008
0.994204
0.980591
0.960566
0.937955
0.917679
0.903036
0.894774
0.892182
0.894773
0.903033
0.917673
0.937951
0.960589
0.980728
0.994657
1.0019
1.00451
1
1
1
1
1
1
1
1
1
1
1
1
0.999999
0.999997
0.999994
0.999992
1
1.00007
1.00029
1.00079
1.00163
1.00251
1.00239
0.999322
0.991279
0.977712
0.960597
0.943588
0.930011
0.921617
0.918822
0.921616
0.930009
0.943582
0.960589
0.977717
0.991355
0.999616
1.00318
1.00415
1
1
1
1
1
1
1
1
1
1
1
1
0.999999
0.999998
0.999995
0.999991
0.999993
1.00003
1.00015
1.00049
1.00114
1.00207
1.00279
1.00217
0.99869
0.991361
0.980736
0.968954
0.958651
0.951814
0.949445
0.951814
0.958649
0.96895
0.980728
0.991355
0.998718
1.00232
1.00327
1.00321
1
1
1
1
1
1
1
1
1
1
1
1
1
0.999999
0.999996
0.999992
0.999988
0.999997
1.00006
1.00024
1.00067
1.00141
1.00233
1.00294
1.00233
0.999627
0.994665
0.988322
0.982191
0.977835
0.97627
0.977835
0.98219
0.988319
0.994657
0.999616
1.00232
1.003
1.00258
1.00208
1
1
1
1
1
1
1
1
1
1
1
1
1
0.999999
0.999998
0.999994
0.999988
0.999983
0.999999
1.00008
1.00032
1.00082
1.00162
1.00258
1.00329
1.00319
1.00191
0.999586
0.996932
0.994858
0.994079
0.994858
0.996932
0.999583
1.0019
1.00318
1.00327
1.00258
1.0017
1.00114
1
1
1
1
1
1
1
1
1
1
1
1
1
1
0.999998
0.999995
0.999988
0.999979
0.999975
1.00001
1.00014
1.00048
1.00113
1.0021
1.00323
1.00416
1.00452
1.00418
1.00337
1.00258
1.00226
1.00258
1.00337
1.00418
1.00451
1.00415
1.00321
1.00208
1.00114
1.00063
SCALARS C2 double 1
LOOKUP_TABLE default
2.49965
2.49996
2.50079
2.50245
2.50509
2.50851
2.51216
2.51536
2.51764
2.51892
2.51932
2.51892
2.51764
2.51536
2.51216
2.50851
2.50509
2.50247
2.50084
2.50007
2.49983
2.49983
2.49989
2.49995
2.49998
2.49999
2.5
2.5
2.5
2.5
2.5
2.5
2.5
2.5
2.5
2.5
2.5
2.5
2.5
2.5
2.49996
2.50063
2.50219
2.50485
2.50847
2.5124
2.51566
2.51753
2.51798
2.51768
2.51746
2.51768
2.51798
2.51753
2.51566
2.5124
2.50848
2.50488
2.50226
2.50074
2.50007
2.49988
2.49989
2.49993
2.49997
2.49999
2.5
2.5
2.5
2.5
2.5
2.5
2.5
2.5
2.5
2.5
2.5
2.5
2.5
2.5
2.50079
2.50219
2.50511
2.50937
2.51402
2.51736
2.51764
2.51433
2.50874
2.5036
2.50153
2.5036
2.50874
2.51433
2.51765
2.51736
2.51404
2.50941
2.50519
2.50228
2.50071
2.50008
2.49991
2.49992
2.49995
2.49998
2.49999
2.5
2.5
2.5
2.5
2.5
2.5
2.5
2.5
2.5
2.5
2.5
2.5
2.5
2.50245
2.50485
2.50937
2.5148
2.51853
2.51699
2.50742
2.49026
2.47014
2.45406
2.44796
2.45406
2.47014
2.49026
2.50743
2.517
2.51857
2.51486
2.50945
2.50483
2.50193
2.50052
2.50002
2.49992
2.49994
2.49997
2.49999
2.5
2.5
2.5
2.5
2.5
2.5
2.5
2.5
2.5
2.5
2.5
2.5
2.5
2.50509
2.50847
2.51402
2.51853
2.5165
2.50142
2.46964
2.42485
2.37874
2.34505
2.33287
2.34505
2.37874
2.42485
2.46965
2.50144
2.51654
2.51861
2.51406
2.5082
2.50378
2.50131
2.50027
2.49996
2.49993
2.49996
2.49998
2.49999
2.5
2.5
2.5
2.5
2.5
2.5
2.5
2.5
2.5
2.5
2.5
2.5
2.50851
2.5124
2.51736
2.51699
2.50142
2.46044
2.39152
2.30789
2.23355
2.18611
2.17034
2.18611
2.23355
2.30789
2.39153
2.46047
2.50148
2.51706
2.51728
2.51171
2.50608
2.50244
2.5007
2.50008
2.49994
2.49995
2.49997
2.49999
2.5
2.5
2.5
2.5
2.5
2.5
2.5
2.5
2.5
2.5
2.5
2.5
2.51216
2.51566
2.51764
2.50742
2.46964
2.39152
2.2793
2.16655
2.08731
2.04762
2.03648
2.04762
2.08731
2.16655
2.27931
2.39156
2.4697
2.50745
2.51739
2.51441
2.50841
2.50376
2.50126
2.50026
2.49998
2.49995
2.49997
2.49999
2.5
2.5
2.5
2.5
2.5
2.5
2.5
2.5
2.5
2.5
2.5
2.5
2.51536
2.51753
2.51433
2.49026
2.42485
2.30789
2.16655
2.05682
2.00385
1.98923
1.98766
1.98923
2.00385
2.05682
2.16657
2.30793
2.4249
2.49023
2.51385
2.51567
2.51033
2.50504
2.50187
2.50047
2.50003
2.49995
2.49996
2.49998
2.49999
2.5
2.5
2.5
2.5
2.5
2.5
2.5
2.5
2.5
2.5
2.5
2.51764
2.51798
2.50874
2.47014
2.37874
2.23355
2.08731
2.00385
1.98541
1.99483
2.00145
1.99483
1.98542
2.00386
2.08733
2.23359
2.37878
2.47004
2.50805
2.51557
2.51158
2.50607
2.5024
2.50068
2.50009
2.49996
2.49996
2.49998
2.49999
2.5
2.5
2.5
2.5
2.5
2.5
2.5
2.5
2.5
2.5
2.5
2.51892
2.51768
2.5036
2.45406
2.34505
2.18611
2.04762
1.98923
1.99483
2.01897
2.03037
2.01897
1.99483
1.98924
2.04764
2.18614
2.34508
2.45391
2.50275
2.51489
2.51221
2.50671
2.50277
2.50083
2.50013
2.49997
2.49996
2.49998
2.49999
2.5
2.5
2.5
2.5
2.5
2.5
2.5
2.5
2.5
2.5
2.5
2.51932
2.51746
2.50153
2.44796
2.33287
2.17034
2.03648
1.98766
2.00145
2.03037
2.04329
2.03037
2.00145
1.98767
2.03649
2.17037
2.33289
2.44779
2.50062
2.51454
2.51239
2.50692
2.50289
2.50088
2.50015
2.49997
2.49996
2.49998
2.49999
2.5
2.5
2.5
2.5
2.5
2.5
2.5
2.5
2.5
2.5
2.5
2.51892
2.51768
2.5036
2.45406
2.34505
2.18611
2.04762
1.98923
1.99483
2.01897
2.03037
2.01897
1.99483
1.98924
2.04764
2.18614
2.34508
2.45391
2.50275
2.51489
2.51221
2.50671
2.50277
2.50083
2.50013
2.49997
2.49996
2.49998
2.49999
2.5
2.5
2.5
2.5
2.5
2.5
2.5
2.5
2.5
2.5
2.5
2.51764
2.51798
2.50874
2.47014
2.37874
2.23355
2.08731
2.00385
1.98542
1.99483
2.00145
1.99483
1.98542
2.00386
2.08733
2.23359
2.37878
2.47004
2.50805
2.51557
2.51158
2.50607
2.5024
2.50068
2.50009
2.49996
2.49996
2.49998
2.5
2.5
2.5
2.5
2.5
2.5
2.5
2.5
2.5
2.5
2.5
2.5
2.51536
2.51753
2.51433
2.49026
2.42485
2.30789
2.16655
2.05682
2.00386
1.98924
1.98767
1.98924
2.00386
2.05683
2.16657
2.30793
2.42491
2.49023
2.51385
2.51567
2.51033
2.50504
2.50187
2.50047
2.50003
2.49995
2.49997
2.49999
2.5
2.50001
2.50001
2.50001
2.50001
2.50001
2.5
2.5
2.5
2.5
2.5
2.5
2.51216
2.51566
2.51765
2.50743
2.46965
2.39153
2.27931
2.16657
2.08733
2.04764
2.03649
2.04764
2.08733
2.16657
2.27933
2.39157
2.46971
2.50746
2.51739
2.51441
2.50841
2.50377
2.50126
2.50026
2.49998
2.49996
2.49998
2.5
2.50001
2.50002
2.50002
2.50002
2.50002
2.50002
2.50001
2.50001
2.50001
2.5
2.5
2.5
2.50851
2.5124
2.51736
2.517
2.50144
2.46047
2.39156
2.30793
2.23359
2.18614
2.17037
2.18614
2.23359
2.30793
2.39157
2.4605
2.5015
2.51707
2.51729
2.51171
2.50608
2.50245
2.5007
2.50009
2.49996
2.49997
2.5
2.50002
2.50002
2.50002
2.50002
2.50002
2.50003
2.50003
2.50003
2.50002
2.50002
2.50001
2.50001
2.5
2.50509
2.50848
2.51404
2.51857
2.51654
2.50148
2.4697
2.4249
2.37878
2.34508
2.33289
2.34508
2.37878
2.42491
2.46971
2.5015
2.51658
2.51864
2.51408
2.50822
2.50379
2.50133
2.50029
2.49999
2.49996
2.49999
2.50001
2.50001
2.5
2.49998
2.49998
2.49998
2.5
2.50001
2.50003
2.50003
2.50003
2.50003
2.50002
2.50001
2.50247
2.50488
2.50941
2.51486
2.51861
2.51706
2.50745
2.49023
2.47004
2.45391
2.44779
2.45391
2.47004
2.49023
2.50746
2.51707
2.51864
2.51493
2.5095
2.50487
2.50195
2.50055
2.50006
2.49996
2.49997
2.49998
2.49994
2.49988
2.49981
2.49976
2.49974
2.49976
2.49981
2.49988
2.49995
2.50001
2.50004
2.50005
2.50004
2.50004
2.50084
2.50226
2.50519
2.50945
2.51406
2.51728
2.51739
2.51385
2.50805
2.50275
2.50062
2.50275
2.50805
2.51385
2.51739
2.51729
2.51408
2.5095
2.50528
2.50235
2.50078
2.50014
2.49997
2.49995
2.49991
2.4998
2.49961
2.49939
2.49918
2.49904
2.49898
2.49904
2.49918
2.49939
2.49962
2.49982
2.49996
2.50003
2.50006
2.50007
2.50007
2.50074
2.50228
2.50483
2.5082
2.51171
2.51441
2.51567
2.51557
2.51489
2.51454
2.51489
2.51557
2.51567
2.51441
2.51171
2.50822
2.50487
2.50235
2.50086
2.50019
2.49998
2.49992
2.49982
2.49959
2.49919
2.49867
2.49813
2.49767
2.49737
2.49727
2.49737
2.49767
2.49813
2.49868
2.4992
2.49962
2.4999
2.50004
2.5001
2.49983
2.50007
2.50071
2.50193
2.50378
2.50608
2.50841
2.51033
2.51158
2.51221
2.51239
2.51221
2.51158
2.51033
2.50841
2.50608
2.50379
2.50195
2.50078
2.50019
2.49998
2.4999
2.49975
2.49937
2.49869
2.49774
2.49669
2.49572
2.49501
2.4946
2.49447
2.4946
2.49501
2.49572
2.49669
2.49775
2.49871
2.49943
2.49986
2.50006
2.49983
2.49988
2.50008
2.50052
2.50131
2.50244
2.50376
2.50504
2.50607
2.50671
2.50692
2.50671
2.50607
2.50504
2.50377
2.50245
2.50133
2.50055
2.50014
2.49998
2.4999
2.49972
2.49923
2.49827
2.49685
2.49517
2.49362
2.49256
2.49208
2.49198
2.492
2.49198
2.49208
2.49256
2.49363
2.49518
2.49688
2.49833
2.49932
2.49979
2.49989
2.49989
2.49991
2.50002
2.50027
2.5007
2.50126
2.50187
2.5024
2.50277
2.50289
2.50277
2.5024
2.50187
2.50126
2.5007
2.50029
2.50006
2.49997
2.49992
2.49975
2.49923
2.49811
2.4963
2.49402
2.49194
2.49084
2.49112
2.49243
2.49385
2.49445
2.49385
2.49243
2.49112
2.49084
2.49196
2.49406
2.49635
2.49814
2.49908
2.49995
2.49993
2.49992
2.49992
2.49996
2.50008
2.50026
2.50047
2.50068
2.50083
2.50088
2.50083
2.50068
2.50047
2.50026
2.50009
2.49999
2.49996
2.49995
2.49982
2.49937
2.49827
2.4963
2.4936
2.49104
2.49008
2.49199
2.49676
2.50284
2.50785
2.50977
2.50785
2.50284
2.49676
2.492
2.49011
2.49108
2.49363
2.49619
2.49769
2.49998
2.49997
2.49995
2.49994
2.49993
2.49994
2.49998
2.50003
2.50009
2.50013
2.50015
2.50013
2.50009
2.50003
2.49998
2.49996
2.49996
2.49997
2.49991
2.49959
2.49869
2.49685
2.49402
2.49104
2.48993
2.49325
2.50241
2.51613
2.53068
2.54165
2.5457
2.54165
2.53068
2.51613
2.50243
2.49329
2.48996
2.49099
2.49364
2.49555
2.49999
2.49999
2.49998
2.49997
2.49996
2.49995
2.49995
2.49995
2.49996
2.49997
2.49997
2.49997
2.49996
2.49995
2.49996
2.49997
2.49999
2.49998
2.4998
2.49919
2.49774
2.49517
2.49194
2.49008
2.49325
2.50501
2.52606
2.55277
2.57864
2.5971
2.60375
2.5971
2.57864
2.55278
2.52608
2.50505
2.49326
2.4899
2.49113
2.49291
2.5
2.5
2.49999
2.49999
2.49998
2.49997
2.49997
2.49996
2.49996
2.49996
2.49996
2.49996
2.49996
2.49997
2.49998
2.5
2.50001
2.49994
2.49961
2.49867
2.49669
2.49362
2.49084
2.49199
2.50241
2.52606
2.56192
2.6034
2.64119
2.66713
2.6763
2.66713
2.6412
2.60341
2.56194
2.52608
2.50236
2.49161
2.48951
2.49031
2.5
2.5
2.5
2.5
2.49999
2.49999
2.49999
2.49998
2.49998
2.49998
2.49998
2.49998
2.49998
2.49999
2.5
2.50002
2.50001
2.49988
2.49939
2.49813
2.49572
2.49256
2.49112
2.49676
2.51613
2.55277
2.6034
2.65845
2.70642
2.73833
2.7494
2.73833
2.70643
2.65846
2.60342
2.55279
2.51601
2.49616
2.48926
2.48829
2.5
2.5
2.5
2.5
2.5
2.5
2.5
2.49999
2.49999
2.49999
2.49999
2.49999
2.5
2.5
2.50001
2.50002
2.5
2.49981
2.49918
2.49767
2.49501
2.49208
2.49243
2.50284
2.53068
2.57864
2.64119
2.70642
2.76138
2.79694
2.80909
2.79695
2.76139
2.70644
2.64122
2.57864
2.5305
2.50204
2.49012
2.48711
2.5
2.5
2.5
2.5
2.5
2.5
2.5
2.5
2.5
2.5
2.5
2.5
2.5
2.50001
2.50002
2.50002
2.49998
2.49976
2.49904
2.49737
2.4946
2.49198
2.49385
2.50785
2.54165
2.5971
2.66713
2.73833
2.79694
2.83409
2.84661
2.8341
2.79695
2.73834
2.66716
2.59709
2.54142
2.50691
2.49125
2.48661
2.5
2.5
2.5
2.5
2.5
2.5
2.5
2.5
2.5
2.5
2.5
2.5
2.5
2.50001
2.50002
2.50002
2.49998
2.49974
2.49898
2.49727
2.49447
2.492
2.49445
2.50977
2.5457
2.60375
2.6763
2.7494
2.80909
2.84661
2.85918
2.84661
2.8091
2.74942
2.67632
2.60374
2.54546
2.50879
2.49175
2.4865
2.5
2.5
2.5
2.5
2.5
2.5
2.5
2.5
2.5
2.5
2.5
2.5
2.5
2.50001
2.50002
2.50002
2.49998
2.49976
2.49904
2.49737
2.4946
2.49198
2.49385
2.50785
2.54165
2.5971
2.66713
2.73833
2.79695
2.8341
2.84661
2.8341
2.79695
2.73834
2.66716
2.59709
2.54142
2.50691
2.49125
2.48661
2.5
2.5
2.5
2.5
2.5
2.5
2.5
2.5
2.5
2.5
2.5
2.5
2.5
2.50001
2.50002
2.50003
2.5
2.49981
2.49918
2.49767
2.49501
2.49208
2.49243
2.50284
2.53068
2.57864
2.6412
2.70643
2.76139
2.79695
2.8091
2.79695
2.76139
2.70644
2.64122
2.57864
2.53051
2.50204
2.49012
2.48711
2.5
2.5
2.5
2.5
2.5
2.5
2.5
2.5
2.5
2.5
2.5
2.5
2.5
2.50001
2.50002
2.50003
2.50001
2.49988
2.49939
2.49813
2.49572
2.49256
2.49112
2.49676
2.51613
2.55278
2.60341
2.65846
2.70644
2.73834
2.74942
2.73834
2.70644
2.65848
2.60343
2.55279
2.51602
2.49616
2.48926
2.48829
2.5
2.5
2.5
2.5
2.5
2.5
2.5
2.5
2.5
2.5
2.5
2.5
2.5
2.5
2.50001
2.50003
2.50003
2.49995
2.49962
2.49868
2.49669
2.49363
2.49084
2.492
2.50243
2.52608
2.56194
2.60342
2.64122
2.66716
2.67632
2.66716
2.64122
2.60343
2.56197
2.5261
2.50238
2.49162
2.48952
2.49031
2.5
2.5
2.5
2.5
2.5
2.5
2.5
2.5
2.5
2.5
2.5
2.5
2.5
2.5
2.50001
2.50002
2.50003
2.50001
2.49982
2.4992
2.49775
2.49518
2.49196
2.49011
2.49329
2.50505
2.52608
2.55279
2.57864
2.59709
2.60374
2.59709
2.57864
2.55279
2.5261
2.50508
2.49329
2.48993
2.49115
2.49293
2.5
2.5
2.5
2.5
2.5
2.5
2.5
2.5
2.5
2.5
2.5
2.5
2.5
2.5
2.50001
2.50002
2.50003
2.50004
2.49996
2.49962
2.49871
2.49688
2.49406
2.49108
2.48996
2.49326
2.50236
2.51601
2.5305
2.54142
2.54546
2.54142
2.53051
2.51602
2.50238
2.49329
2.49
2.49104
2.49368
2.49559
2.5
2.5
2.5
2.5
2.5
2.5
2.5
2.5
2.5
2.5
2.5
2.5
2.5
2.5
2.5
2.50001
2.50003
2.50005
2.50003
2.4999
2.49943
2.49833
2.49635
2.49363
2.49099
2.4899
2.49161
2.49616
2.50204
2.50691
2.50879
2.50691
2.50204
2.49616
2.49162
2.48993
2.49104
2.49366
2.49625
2.49776
2.5
2.5
2.5
2.5
2.5
2.5
2.5
2.5
2.5
2.5
2.5
2.5
2.5
2.5
2.5
2.50001
2.50002
2.50004
2.50006
2.50004
2.49986
2.49932
2.49814
2.49619
2.49364
2.49113
2.48951
2.48926
2.49012
2.49125
2.49175
2.49125
2.49012
2.48926
2.48952
2.49115
2.49368
2.49625
2.49819
2.49918
2.5
2.5
2.5
2.5
2.5
2.5
2.5
2.5
2.5
2.5
2.5
2.5
2.5
2.5
2.5
2.5
2.50001
2.50004
2.50007
2.5001
2.50006
2.49979
2.49908
2.49769
2.49555
2.49291
2.49031
2.48829
2.48711
2.48661
2.4865
2.48661
2.48711
2.48829
2.49031
2.49293
2.49559
2.49776
2.49918
2.49985
