# vtk DataFile Version 3.0
Brusselator Concentration Output
ASCII
DATASET STRUCTURED_POINTS
DIMENSIONS 40 40 1
ORIGIN 0.0 0.0 0.0
SPACING 0.005 0.005 1.0
POINT_DATA 1600
SCALARS C1 double 1
LOOKUP_TABLE default
0.999972
0.999966
0.999968
1.00002
1.00016
1.00044
1.00086
1.00134
1.00178
1.00207
1.00217
1.00207
1.00178
1.00134
1.00086
1.00044
1.00016
1.00002
0.999969
0.999969
0.999981
0.999991
0.999997
0.999999
1
1
1
1
1
1
1
1
1
1
1
1
1
1
1
1
0.999966
0.999976
1.00003
1.0002
1.00056
1.00114
1.00186
1.00255
1.00304
1.0033
1.00337
1.0033
1.00304
1.00255
1.00186
1.00114
1.00056
1.0002
1.00003
0.999982
0.999979
0.999987
0.999994
0.999998
0.999999
1
1
1
1
1
1
1
1
1
1
1
1
1
1
1
0.999968
1.00003
1.00023
1.0007
1.00153
1.00264
1.00371
1.00433
1.00435
1.00407
1.00391
1.00407
1.00435
1.00433
1.00371
1.00264
1.00153
1.0007
1.00024
1.00004
0.999986
0.999982
0.99999
0.999996
0.999999
1
1
1
1
1
1
1
1
1
1
1
1
1
1
1
1.00002
1.0002
1.0007
1.00169
1.00315
1.00461
1.00517
1.00413
1.00181
0.999517
0.998573
0.999517
1.00181
1.00413
1.00517
1.00461
1.00316
1.0017
1.00071
1.00021
1.00003
0.999986
0.999986
0.999993
0.999997
0.999999
1
1
1
1
1
1
1
1
1
1
1
1
1
1
1.00016
1.00056
1.00153
1.00315
1.00494
1.00545
1.00283
0.996511
0.988374
0.981719
0.979191
0.981719
0.988374
0.996511
1.00283
1.00545
1.00494
1.00316
1.00154
1.00057
1.00015
1.00001
0.999986
0.99999
0.999995
0.999998
1
1
1
1
1
1
1
1
1
1
1
1
1
1
1.00044
1.00114
1.00264
1.00461
1.00545
1.00207
0.991813
0.975576
0.958303
0.945678
0.941139
0.945678
0.958303
0.975576
0.991814
1.00207
1.00545
1.00462
1.00265
1.00114
1.00037
1.00007
0.999996
0.999988
0.999993
0.999997
0.999999
1
1
1
1
1
1
1
1
1
1
1
1
1
1.00086
1.00186
1.00371
1.00517
1.00283
0.991813
0.969885
0.941343
0.914784
0.897123
0.891088
0.897123
0.914784
0.941343
0.969885
0.991815
1.00283
1.00517
1.00372
1.00184
1.00068
1.00018
1.00002
0.999991
0.999992
0.999996
0.999999
1
1
1
1
1
1
1
1
1
1
1
1
1
1.00134
1.00255
1.00433
1.00413
0.996511
0.975576
0.941343
0.902465
0.870088
0.850413
0.844051
0.850413
0.870088
0.902465
0.941343
0.975577
0.996515
1.00414
1.00433
1.00249
1.00103
1.00031
1.00006
0.999997
0.999992
0.999996
0.999998
1
1
1
1
1
1
1
1
1
1
1
1
1
1.00178
1.00304
1.00435
1.00181
0.988374
0.958303
0.914784
0.870088
0.836209
0.817436
0.811765
0.817436
0.836209
0.870088
0.914785
0.958304
0.988378
1.00182
1.00435
1.00294
1.00133
1.00044
1.0001
1.00001
0.999992
0.999995
0.999998
0.999999
1
1
1
1
1
1
1
1
1
1
1
1
1.00207
1.0033
1.00407
0.999517
0.981719
0.945678
0.897123
0.850413
0.817436
0.800677
0.795999
0.800677
0.817436
0.850413
0.897123
0.94568
0.981724
0.999524
1.00406
1.00317
1.00153
1.00054
1.00013
1.00001
0.999993
0.999995
0.999998
0.999999
1
1
1
1
1
1
1
1
1
1
1
1
1.00217
1.00337
1.00391
0.998573
0.979191
0.941139
0.891088
0.844051
0.811765
0.795999
0.79178
0.795999
0.811765
0.844052
0.891089
0.941141
0.979196
0.998579
1.0039
1.00323
1.0016
1.00057
1.00014
1.00002
0.999994
0.999995
0.999998
0.999999
1
1
1
1
1
1
1
1
1
1
1
1
1.00207
1.0033
1.00407
0.999517
0.981719
0.945678
0.897123
0.850413
0.817436
0.800677
0.795999
0.800677
0.817436
0.850413
0.897123
0.94568
0.981724
0.999524
1.00406
1.00317
1.00153
1.00054
1.00013
1.00001
0.999993
0.999995
0.999998
0.999999
1
1
1
1
1
1
1
1
1
1
1
1
1.00178
1.00304
1.00435
1.00181
0.988374
0.958303
0.914784
0.870088
0.836209
0.817436
0.811765
0.817436
0.836209
0.870088
0.914785
0.958304
0.988378
1.00182
1.00435
1.00294
1.00133
1.00044
1.0001
1.00001
0.999992
0.999995
0.999998
0.999999
1
1
1
1
1
1
1
1
1
1
1
1
1.00134
1.00255
1.00433
1.00413
0.996511
0.975576
0.941343
0.902465
0.870088
0.850413
0.844052
0.850413
0.870088
0.902465
0.941343
0.975577
0.996515
1.00414
1.00433
1.00249
1.00103
1.00031
1.00006
0.999997
0.999992
0.999996
0.999999
1
1
1
1
1
1
1
1
1
1
1
1
1
1.00086
1.00186
1.00371
1.00517
1.00283
0.991814
0.969885
0.941343
0.914785
0.897123
0.891089
0.897123
0.914785
0.941343
0.969885
0.991815
1.00283
1.00517
1.00372
1.00184
1.00068
1.00018
1.00002
0.999991
0.999992
0.999997
0.999999
1
1
1
1
1
1
1
1
1
1
1
1
1
1.00044
1.00114
1.00264
1.00461
1.00545
1.00207
0.991815
0.975577
0.958304
0.94568
0.941141
0.94568
0.958304
0.975577
0.991815
1.00207
1.00545
1.00462
1.00265
1.00114
1.00037
1.00007
0.999996
0.999989
0.999994
0.999998
1
1
1
1
1
1
1
1
1
1
1
1
1
1
1.00016
1.00056
1.00153
1.00316
1.00494
1.00545
1.00283
0.996515
0.988378
0.981724
0.979196
0.981724
0.988378
0.996515
1.00283
1.00545
1.00495
1.00316
1.00154
1.00057
1.00015
1.00001
0.999986
0.999991
0.999997
1
1
1
1
1
1
1
1
1
1
1
1
1
1
1
1.00002
1.0002
1.0007
1.0017
1.00316
1.00462
1.00517
1.00414
1.00182
0.999524
0.998579
0.999524
1.00182
1.00414
1.00517
1.00462
1.00316
1.0017
1.00071
1.00021
1.00003
0.999986
0.999987
0.999995
1
1
1.00001
1
1
0.999999
0.999998
0.999999
1
1
1.00001
1.00001
1
1
1
1
0.999969
1.00003
1.00024
1.00071
1.00154
1.00265
1.00372
1.00433
1.00435
1.00406
1.0039
1.00406
1.00435
1.00433
1.00372
1.00265
1.00154
1.00071
1.00024
1.00004
0.999988
0.999985
0.999994
1
1.00001
1.00001
0.999999
0.999987
0.999974
0.999963
0.999959
0.999963
0.999974
0.999987
0.999999
1.00001
1.00001
1.00001
1
1
0.999969
0.999982
1.00004
1.00021
1.00057
1.00114
1.00184
1.00249
1.00294
1.00317
1.00323
1.00317
1.00294
1.00249
1.00184
1.00114
1.00057
1.00021
1.00004
0.999988
0.999983
0.999993
1
1.00001
1
0.999985
0.99995
0.999904
0.999856
0.99982
0.999807
0.99982
0.999856
0.999904
0.99995
0.999985
1
1.00001
1.00001
1.00001
0.999981
0.999979
0.999986
1.00003
1.00015
1.00037
1.00068
1.00103
1.00133
1.00153
1.0016
1.00153
1.00133
1.00103
1.00068
1.00037
1.00015
1.00003
0.999988
0.999983
0.999992
1
1.00001
0.999998
0.999963
0.999889
0.999775
0.99964
0.999515
0.999429
0.999399
0.999429
0.999515
0.99964
0.999775
0.999889
0.999964
1
1.00001
1.00001
0.999991
0.999987
0.999982
0.999986
1.00001
1.00007
1.00018
1.00031
1.00044
1.00054
1.00057
1.00054
1.00044
1.00031
1.00018
1.00007
1.00001
0.999986
0.999985
0.999993
1
1.00001
0.999995
0.999943
0.99982
0.999608
0.999326
0.999035
0.998803
0.998666
0.998622
0.998666
0.998803
0.999035
0.999326
0.999609
0.999821
0.999945
1
1.00002
0.999997
0.999994
0.99999
0.999986
0.999986
0.999996
1.00002
1.00006
1.0001
1.00013
1.00014
1.00013
1.0001
1.00006
1.00002
0.999996
0.999986
0.999987
0.999994
1
1.00001
0.999995
0.999934
0.999773
0.999462
0.999001
0.998485
0.998069
0.997851
0.997799
0.9978
0.997799
0.997851
0.998069
0.998485
0.999001
0.999463
0.999777
0.999942
1.00001
0.999999
0.999998
0.999996
0.999993
0.99999
0.999988
0.999991
0.999997
1.00001
1.00001
1.00002
1.00001
1.00001
0.999997
0.999991
0.999989
0.999991
0.999995
1
1.00001
0.999998
0.999943
0.999773
0.999403
0.99879
0.998046
0.99746
0.997337
0.99771
0.998243
0.998488
0.998243
0.99771
0.997337
0.997461
0.998047
0.998793
0.999409
0.999782
0.999942
1
0.999999
0.999999
0.999997
0.999995
0.999993
0.999992
0.999992
0.999992
0.999993
0.999994
0.999993
0.999992
0.999992
0.999992
0.999994
0.999997
1
1.00001
1
0.999963
0.99982
0.999462
0.99879
0.997879
0.997137
0.997235
0.998635
1.00102
1.00326
1.00416
1.00326
1.00102
0.998635
0.997236
0.997139
0.997884
0.998798
0.999465
0.999784
1
1
1
0.999999
0.999998
0.999997
0.999996
0.999996
0.999995
0.999995
0.999995
0.999995
0.999995
0.999996
0.999997
0.999998
1
1
1.00001
0.999985
0.999889
0.999608
0.999001
0.998046
0.997137
0.99727
0.9997
1.00491
1.01166
1.01731
1.01949
1.01731
1.01166
1.00491
0.999701
0.997272
0.997142
0.998052
0.998986
0.999498
1
1
1
1
1
0.999999
0.999999
0.999998
0.999998
0.999998
0.999998
0.999998
0.999998
0.999999
0.999999
1
1
1.00001
0.999999
0.99995
0.999775
0.999326
0.998485
0.99746
0.997235
0.9997
1.0068
1.01866
1.03227
1.04281
1.04669
1.04281
1.03227
1.01866
1.0068
0.999703
0.99724
0.997459
0.998436
0.999102
1
1
1
1
1
1
1
1
0.999999
0.999999
0.999999
0.999999
0.999999
1
1
1
1
1
0.999987
0.999904
0.99964
0.999035
0.998069
0.997337
0.998635
1.00491
1.01866
1.03898
1.06015
1.07506
1.08019
1.07506
1.06015
1.03898
1.01866
1.00491
0.998639
0.997324
0.997972
0.998675
1
1
1
1
1
1
1
1
1
1
1
1
1
1
1
1
1
1
0.999974
0.999856
0.999515
0.998803
0.997851
0.99771
1.00102
1.01166
1.03227
1.06015
1.08627
1.10235
1.10728
1.10235
1.08627
1.06015
1.03227
1.01166
1.00102
0.997683
0.997707
0.998318
1
1
1
1
1
1
1
1
1
1
1
1
1
1
1
1
1
0.999999
0.999963
0.99982
0.999429
0.998666
0.997799
0.998243
1.00326
1.01731
1.04281
1.07506
1.10235
1.11665
1.12034
1.11665
1.10235
1.07506
1.04281
1.01732
1.00326
0.998207
0.997619
0.998095
1
1
1
1
1
1
1
1
1
1
1
1
1
1
1
1
1
0.999998
0.999959
0.999807
0.999399
0.998622
0.9978
0.998488
1.00416
1.01949
1.04669
1.08019
1.10728
1.12034
1.12335
1.12034
1.10728
1.08019
1.0467
1.0195
1.00416
0.998447
0.997608
0.998022
1
1
1
1
1
1
1
1
1
1
1
1
1
1
1
1
1
0.999999
0.999963
0.99982
0.999429
0.998666
0.997799
0.998243
1.00326
1.01731
1.04281
1.07506
1.10235
1.11665
1.12034
1.11665
1.10235
1.07506
1.04281
1.01732
1.00326
0.998207
0.997619
0.998095
1
1
1
1
1
1
1
1
1
1
1
1
1
1
1
1
1
1
0.999974
0.999856
0.999515
0.998803
0.997851
0.99771
1.00102
1.01166
1.03227
1.06015
1.08627
1.10235
1.10728
1.10235
1.08627
1.06015
1.03227
1.01166
1.00102
0.997684
0.997707
0.998318
1
1
1
1
1
1
1
1
1
1
1
1
1
1
1
1
1
1
0.999987
0.999904
0.99964
0.999035
0.998069
0.997337
0.998635
1.00491
1.01866
1.03898
1.06015
1.07506
1.08019
1.07506
1.06015
1.03898
1.01866
1.00492
0.998639
0.997324
0.997972
0.998675
1
1
1
1
1
1
1
1
1
1
1
1
1
1
1
1
1
1.00001
0.999999
0.99995
0.999775
0.999326
0.998485
0.997461
0.997236
0.999701
1.0068
1.01866
1.03227
1.04281
1.0467
1.04281
1.03227
1.01866
1.0068
0.999704
0.997241
0.99746
0.998436
0.999102
1
1
1
1
1
1
1
1
1
1
1
1
1
1
1
1
1
1.00001
1.00001
0.999985
0.999889
0.999609
0.999001
0.998047
0.997139
0.997272
0.999703
1.00491
1.01166
1.01732
1.0195
1.01732
1.01166
1.00492
0.999704
0.997275
0.997144
0.998053
0.998986
0.999498
1
1
1
1
1
1
1
1
1
1
1
1
1
1
1
1
1
1
1.00001
1
0.999964
0.999821
0.999463
0.998793
0.997884
0.997142
0.99724
0.998639
1.00102
1.00326
1.00416
1.00326
1.00102
0.998639
0.997241
0.997144
0.997888
0.9988
0.999466
0.999785
1
1
1
1
1
1
1
1
1
1
1
1
1
1
1
1
1
1
1.00001
1.00001
1
0.999945
0.999777
0.999409
0.998798
0.998052
0.997459
0.997324
0.997683
0.998207
0.998447
0.998207
0.997684
0.997324
0.99746
0.998053
0.9988
0.999415
0.999786
0.999945
1
1
1
1
1
1
1
1
1
1
1
1
1
1
1
1
1
1
1
1.00001
1.00001
1
0.999942
0.999782
0.999465
0.998986
0.998436
0.997972
0.997707
0.997619
0.997608
0.997619
0.997707
0.997972
0.998436
0.998986
0.999466
0.999786
0.999951
1.00001
1
1
1
1
1
1
1
1
1
1
1
1
1
1
1
1
1
1
1
1.00001
1.00001
1.00002
1.00001
0.999942
0.999784
0.999498
0.999102
0.998675
0.998318
0.998095
0.998022
0.998095
0.998318
0.998675
0.999102
0.999498
0.999785
0.999945
1.00001
1.00003
SCALARS C2 double 1
LOOKUP_TABLE default
2.50004
2.50006
2.5001
2.50012
2.50007
2.49987
2.49945
2.49887
2.49825
2.49779
2.49762
2.49779
2.49825
2.49887
2.49945
2.49987
2.50007
2.50012
2.50009
2.50006
2.50003
2.50001
2.5
2.5
2.5
2.5
2.5
2.5
2.5
2.5
2.5
2.5
2.5
2.5
2.5
2.5
2.5
2.5
2.5
2.5
2.50006
2.50008
2.50009
2.5
2.4997
2.49905
2.49801
2.49676
2.4956
2.49482
2.49454
2.49482
2.4956
2.49676
2.49801
2.49905
2.4997
2.5
2.50008
2.50007
2.50004
2.50002
2.50001
2.5
2.5
2.5
2.5
2.5
2.5
2.5
2.5
2.5
2.5
2.5
2.5
2.5
2.5
2.5
2.5
2.5
2.5001
2.50009
2.49997
2.49955
2.49856
2.4968
2.49443
2.49199
2.49011
2.48907
2.48875
2.48907
2.49011
2.49199
2.49443
2.4968
2.49856
2.49955
2.49997
2.50007
2.50006
2.50003
2.50001
2.5
2.5
2.5
2.5
2.5
2.5
2.5
2.5
2.5
2.5
2.5
2.5
2.5
2.5
2.5
2.5
2.5
2.50012
2.5
2.49955
2.49836
2.49598
2.49238
2.48836
2.48529
2.48402
2.48408
2.4843
2.48408
2.48402
2.48529
2.48836
2.49238
2.49598
2.49836
2.49955
2.49998
2.50007
2.50005
2.50003
2.50001
2.5
2.5
2.5
2.5
2.5
2.5
2.5
2.5
2.5
2.5
2.5
2.5
2.5
2.5
2.5
2.5
2.50007
2.4997
2.49856
2.49598
2.49157
2.48612
2.48203
2.48189
2.48585
2.49085
2.49306
2.49085
2.48585
2.48189
2.48203
2.48612
2.49156
2.49597
2.49854
2.49966
2.50001
2.50006
2.50004
2.50002
2.50001
2.5
2.5
2.5
2.5
2.5
2.5
2.5
2.5
2.5
2.5
2.5
2.5
2.5
2.5
2.5
2.49987
2.49905
2.4968
2.49238
2.48612
2.48095
2.48203
2.49267
2.50997
2.52571
2.53197
2.52571
2.50997
2.49267
2.48203
2.48095
2.48612
2.49237
2.49678
2.499
2.49983
2.50004
2.50005
2.50002
2.50001
2.5
2.5
2.5
2.5
2.5
2.5
2.5
2.5
2.5
2.5
2.5
2.5
2.5
2.5
2.5
2.49945
2.49801
2.49443
2.48836
2.48203
2.48203
2.49654
2.52754
2.56623
2.59764
2.60956
2.59764
2.56623
2.52754
2.49654
2.48203
2.48203
2.48835
2.4944
2.49797
2.49949
2.49996
2.50004
2.50003
2.50001
2.5
2.5
2.5
2.5
2.5
2.5
2.5
2.5
2.5
2.5
2.5
2.5
2.5
2.5
2.5
2.49887
2.49676
2.49199
2.48529
2.48189
2.49267
2.52754
2.58471
2.64813
2.69654
2.71439
2.69654
2.64813
2.58471
2.52754
2.49267
2.48189
2.48527
2.49196
2.49674
2.49903
2.49984
2.50002
2.50003
2.50002
2.50001
2.5
2.5
2.5
2.5
2.5
2.5
2.5
2.5
2.5
2.5
2.5
2.5
2.5
2.5
2.49825
2.4956
2.49011
2.48402
2.48585
2.50997
2.56623
2.64813
2.73341
2.79619
2.81894
2.79619
2.73341
2.64813
2.56623
2.50997
2.48584
2.484
2.49008
2.49561
2.49856
2.49969
2.49999
2.50003
2.50002
2.50001
2.5
2.5
2.5
2.5
2.5
2.5
2.5
2.5
2.5
2.5
2.5
2.5
2.5
2.5
2.49779
2.49482
2.48907
2.48408
2.49085
2.52571
2.59764
2.69654
2.79619
2.86811
2.8939
2.86811
2.79619
2.69654
2.59764
2.5257
2.49084
2.48406
2.48904
2.49485
2.49822
2.49958
2.49997
2.50003
2.50002
2.50001
2.5
2.5
2.5
2.5
2.5
2.5
2.5
2.5
2.5
2.5
2.5
2.5
2.5
2.5
2.49762
2.49454
2.48875
2.4843
2.49306
2.53197
2.60956
2.71439
2.81894
2.8939
2.92067
2.8939
2.81894
2.71439
2.60956
2.53197
2.49305
2.48428
2.48872
2.49459
2.49809
2.49953
2.49996
2.50003
2.50002
2.50001
2.5
2.5
2.5
2.5
2.5
2.5
2.5
2.5
2.5
2.5
2.5
2.5
2.5
2.5
2.49779
2.49482
2.48907
2.48408
2.49085
2.52571
2.59764
2.69654
2.79619
2.86811
2.8939
2.86811
2.79619
2.69654
2.59764
2.5257
2.49084
2.48406
2.48904
2.49485
2.49822
2.49958
2.49997
2.50003
2.50002
2.50001
2.5
2.5
2.5
2.5
2.5
2.5
2.5
2.5
2.5
2.5
2.5
2.5
2.5
2.5
2.49825
2.4956
2.49011
2.48402
2.48585
2.50997
2.56623
2.64813
2.73341
2.79619
2.81894
2.79619
2.73341
2.64813
2.56623
2.50997
2.48584
2.484
2.49008
2.49561
2.49856
2.49969
2.49999
2.50003
2.50002
2.50001
2.5
2.5
2.5
2.5
2.5
2.5
2.5
2.5
2.5
2.5
2.5
2.5
2.5
2.5
2.49887
2.49676
2.49199
2.48529
2.48189
2.49267
2.52754
2.58471
2.64813
2.69654
2.71439
2.69654
2.64813
2.58471
2.52754
2.49267
2.48189
2.48527
2.49196
2.49674
2.49903
2.49984
2.50002
2.50003
2.50002
2.50001
2.5
2.5
2.5
2.5
2.5
2.5
2.5
2.5
2.5
2.5
2.5
2.5
2.5
2.5
2.49945
2.49801
2.49443
2.48836
2.48203
2.48203
2.49654
2.52754
2.56623
2.59764
2.60956
2.59764
2.56623
2.52754
2.49654
2.48203
2.48203
2.48835
2.4944
2.49797
2.49949
2.49996
2.50004
2.50003
2.50001
2.5
2.5
2.5
2.5
2.5
2.5
2.5
2.5
2.5
2.5
2.5
2.5
2.5
2.5
2.5
2.49987
2.49905
2.4968
2.49238
2.48612
2.48095
2.48203
2.49267
2.50997
2.5257
2.53197
2.5257
2.50997
2.49267
2.48203
2.48095
2.48612
2.49237
2.49678
2.499
2.49983
2.50004
2.50005
2.50002
2.50001
2.5
2.5
2.5
2.5
2.5
2.5
2.5
2.5
2.5
2.5
2.5
2.5
2.5
2.5
2.5
2.50007
2.4997
2.49856
2.49598
2.49156
2.48612
2.48203
2.48189
2.48584
2.49084
2.49305
2.49084
2.48584
2.48189
2.48203
2.48612
2.49156
2.49597
2.49854
2.49966
2.50001
2.50006
2.50004
2.50002
2.5
2.5
2.5
2.49999
2.49999
2.49999
2.49999
2.49999
2.49999
2.49999
2.49999
2.5
2.5
2.5
2.5
2.5
2.50012
2.5
2.49955
2.49836
2.49597
2.49237
2.48835
2.48527
2.484
2.48406
2.48428
2.48406
2.484
2.48527
2.48835
2.49237
2.49597
2.49835
2.49954
2.49998
2.50007
2.50005
2.50002
2.50001
2.5
2.49999
2.49999
2.49998
2.49998
2.49998
2.49998
2.49998
2.49998
2.49998
2.49999
2.49999
2.49999
2.5
2.5
2.5
2.50009
2.50008
2.49997
2.49955
2.49854
2.49678
2.4944
2.49196
2.49008
2.48904
2.48872
2.48904
2.49008
2.49196
2.4944
2.49678
2.49854
2.49954
2.49996
2.50007
2.50006
2.50003
2.50001
2.5
2.49999
2.49998
2.49998
2.49998
2.49999
2.5
2.5
2.5
2.49999
2.49998
2.49998
2.49998
2.49998
2.49999
2.49999
2.5
2.50006
2.50007
2.50007
2.49998
2.49966
2.499
2.49797
2.49674
2.49561
2.49485
2.49459
2.49485
2.49561
2.49674
2.49797
2.499
2.49966
2.49998
2.50007
2.50006
2.50004
2.50001
2.49999
2.49998
2.49997
2.49997
2.49999
2.50003
2.50007
2.50011
2.50013
2.50011
2.50007
2.50003
2.49999
2.49997
2.49997
2.49998
2.49999
2.49999
2.50003
2.50004
2.50006
2.50007
2.50001
2.49983
2.49949
2.49903
2.49856
2.49822
2.49809
2.49822
2.49856
2.49903
2.49949
2.49983
2.50001
2.50007
2.50006
2.50004
2.50001
2.49999
2.49998
2.49997
2.49997
2.50002
2.50013
2.50029
2.50045
2.50058
2.50063
2.50058
2.50045
2.50029
2.50013
2.50002
2.49997
2.49996
2.49997
2.49998
2.50001
2.50002
2.50003
2.50005
2.50006
2.50004
2.49996
2.49984
2.49969
2.49958
2.49953
2.49958
2.49969
2.49984
2.49996
2.50004
2.50006
2.50005
2.50003
2.50001
2.49999
2.49997
2.49996
2.49998
2.50007
2.50028
2.50065
2.50111
2.50157
2.50189
2.502
2.50189
2.50157
2.50111
2.50065
2.50028
2.50007
2.49998
2.49996
2.49996
2.5
2.50001
2.50001
2.50003
2.50004
2.50005
2.50004
2.50002
2.49999
2.49997
2.49996
2.49997
2.49999
2.50002
2.50004
2.50005
2.50004
2.50002
2.50001
2.49999
2.49998
2.49996
2.49998
2.5001
2.50043
2.50107
2.50199
2.50304
2.50395
2.50452
2.50472
2.50452
2.50395
2.50304
2.50199
2.50106
2.50043
2.5001
2.49997
2.49994
2.5
2.5
2.5
2.50001
2.50002
2.50002
2.50003
2.50003
2.50003
2.50003
2.50003
2.50003
2.50003
2.50003
2.50003
2.50002
2.50002
2.50001
2.5
2.49998
2.49997
2.49998
2.5001
2.50049
2.50135
2.50278
2.5046
2.50633
2.50751
2.50804
2.50817
2.50804
2.50751
2.50633
2.5046
2.50278
2.50135
2.50048
2.50008
2.49994
2.5
2.5
2.5
2.5
2.50001
2.50001
2.50001
2.50002
2.50002
2.50002
2.50002
2.50002
2.50002
2.50002
2.50001
2.50001
2.5
2.5
2.49999
2.49997
2.49997
2.50007
2.50043
2.50135
2.5031
2.50561
2.5082
2.50984
2.50999
2.50922
2.50876
2.50922
2.50999
2.50984
2.5082
2.50561
2.5031
2.50134
2.5004
2.50004
2.5
2.5
2.5
2.5
2.5
2.5
2.5
2.50001
2.50001
2.50001
2.50001
2.50001
2.50001
2.50001
2.5
2.5
2.5
2.49999
2.49998
2.49997
2.50002
2.50028
2.50107
2.50278
2.50561
2.50891
2.51097
2.50991
2.50559
2.50055
2.49834
2.50055
2.50559
2.50991
2.51096
2.5089
2.5056
2.50276
2.50104
2.50031
2.5
2.5
2.5
2.5
2.5
2.5
2.5
2.5
2.5
2.5
2.5
2.5
2.5
2.5
2.5
2.5
2.5
2.49999
2.49998
2.49999
2.50013
2.50065
2.50199
2.5046
2.5082
2.51097
2.50946
2.50081
2.48627
2.47241
2.46675
2.47241
2.48627
2.50081
2.50946
2.51096
2.50819
2.50458
2.50198
2.50078
2.5
2.5
2.5
2.5
2.5
2.5
2.5
2.5
2.5
2.5
2.5
2.5
2.5
2.5
2.5
2.5
2.49999
2.49998
2.49998
2.50003
2.50029
2.50111
2.50304
2.50633
2.50984
2.50991
2.50081
2.47884
2.44833
2.42187
2.41159
2.42187
2.44833
2.47884
2.5008
2.50991
2.50983
2.50631
2.50307
2.5014
2.5
2.5
2.5
2.5
2.5
2.5
2.5
2.5
2.5
2.5
2.5
2.5
2.5
2.5
2.5
2.5
2.49999
2.49998
2.49999
2.50007
2.50045
2.50157
2.50395
2.50751
2.50999
2.50559
2.48627
2.44833
2.40074
2.36254
2.34842
2.36254
2.40074
2.44833
2.48627
2.50558
2.50997
2.50749
2.50402
2.50202
2.5
2.5
2.5
2.5
2.5
2.5
2.5
2.5
2.5
2.5
2.5
2.5
2.5
2.5
2.5
2.5
2.49999
2.49998
2.5
2.50011
2.50058
2.50189
2.50452
2.50804
2.50922
2.50055
2.47241
2.42187
2.36254
2.31782
2.30202
2.31782
2.36254
2.42187
2.4724
2.50054
2.5092
2.50804
2.50464
2.50247
2.5
2.5
2.5
2.5
2.5
2.5
2.5
2.5
2.5
2.5
2.5
2.5
2.5
2.5
2.5
2.5
2.49999
2.49998
2.5
2.50013
2.50063
2.502
2.50472
2.50817
2.50876
2.49834
2.46675
2.41159
2.34842
2.30202
2.28592
2.30202
2.34842
2.41159
2.46674
2.49833
2.50874
2.50817
2.50484
2.50263
2.5
2.5
2.5
2.5
2.5
2.5
2.5
2.5
2.5
2.5
2.5
2.5
2.5
2.5
2.5
2.5
2.49999
2.49998
2.5
2.50011
2.50058
2.50189
2.50452
2.50804
2.50922
2.50055
2.47241
2.42187
2.36254
2.31782
2.30202
2.31782
2.36254
2.42187
2.4724
2.50054
2.5092
2.50804
2.50464
2.50247
2.5
2.5
2.5
2.5
2.5
2.5
2.5
2.5
2.5
2.5
2.5
2.5
2.5
2.5
2.5
2.5
2.49999
2.49998
2.49999
2.50007
2.50045
2.50157
2.50395
2.50751
2.50999
2.50559
2.48627
2.44833
2.40074
2.36254
2.34842
2.36254
2.40074
2.44833
2.48627
2.50558
2.50997
2.50749
2.50402
2.50202
2.5
2.5
2.5
2.5
2.5
2.5
2.5
2.5
2.5
2.5
2.5
2.5
2.5
2.5
2.5
2.5
2.49999
2.49998
2.49998
2.50003
2.50029
2.50111
2.50304
2.50633
2.50984
2.50991
2.50081
2.47884
2.44833
2.42187
2.41159
2.42187
2.44833
2.47884
2.5008
2.50991
2.50983
2.50631
2.50307
2.5014
2.5
2.5
2.5
2.5
2.5
2.5
2.5
2.5
2.5
2.5
2.5
2.5
2.5
2.5
2.5
2.5
2.49999
2.49999
2.49998
2.49999
2.50013
2.50065
2.50199
2.5046
2.5082
2.51096
2.50946
2.5008
2.48627
2.4724
2.46674
2.4724
2.48627
2.5008
2.50946
2.51096
2.50819
2.50458
2.50198
2.50078
2.5
2.5
2.5
2.5
2.5
2.5
2.5
2.5
2.5
2.5
2.5
2.5
2.5
2.5
2.5
2.5
2.5
2.49999
2.49998
2.49997
2.50002
2.50028
2.50106
2.50278
2.50561
2.5089
2.51096
2.50991
2.50558
2.50054
2.49833
2.50054
2.50558
2.50991
2.51096
2.5089
2.5056
2.50276
2.50104
2.50031
2.5
2.5
2.5
2.5
2.5
2.5
2.5
2.5
2.5
2.5
2.5
2.5
2.5
2.5
2.5
2.5
2.5
2.49999
2.49998
2.49997
2.49997
2.50007
2.50043
2.50135
2.5031
2.5056
2.50819
2.50983
2.50997
2.5092
2.50874
2.5092
2.50997
2.50983
2.50819
2.5056
2.50309
2.50133
2.5004
2.50004
2.5
2.5
2.5
2.5
2.5
2.5
2.5
2.5
2.5
2.5
2.5
2.5
2.5
2.5
2.5
2.5
2.5
2.5
2.49999
2.49998
2.49996
2.49998
2.5001
2.50048
2.50134
2.50276
2.50458
2.50631
2.50749
2.50804
2.50817
2.50804
2.50749
2.50631
2.50458
2.50276
2.50133
2.50047
2.50007
2.49994
2.5
2.5
2.5
2.5
2.5
2.5
2.5
2.5
2.5
2.5
2.5
2.5
2.5
2.5
2.5
2.5
2.5
2.5
2.49999
2.49999
2.49997
2.49996
2.49997
2.50008
2.5004
2.50104
2.50198
2.50307
2.50402
2.50464
2.50484
2.50464
2.50402
2.50307
2.50198
2.50104
2.5004
2.50007
2.49995
2.49993
2.5
2.5
2.5
2.5
2.5
2.5
2.5
2.5
2.5
2.5
2.5
2.5
2.5
2.5
2.5
2.5
2.5
2.5
2.5
2.49999
2.49998
2.49996
2.49994
2.49994
2.50004
2.50031
2.50078
2.5014
2.50202
2.50247
2.50263
2.50247
2.50202
2.5014
2.50078
2.50031
2.50004
2.49994
2.49993
2.49994
