# vtk DataFile Version 3.0
Brusselator Concentration Output
ASCII
DATASET STRUCTURED_POINTS
DIMENSIONS 40 40 1
ORIGIN 0.0 0.0 0.0
SPACING 0.005 0.005 1.0
POINT_DATA 1600
SCALARS C1 double 1
LOOKUP_TABLE default
1.67312
1.75384
1.69748
1.49906
1.2917
1.12593
1.00427
0.919095
0.863232
0.831679
0.821554
0.831987
0.864094
0.920938
1.0072
1.12791
1.28448
1.46367
1.61122
1.61205
1.42753
1.21543
1.0785
1.00942
0.981481
0.975733
0.980162
0.987375
0.993532
0.997428
0.999351
1.00006
1.0002
1.00015
1.00008
1.00003
1.00001
1
1
0.999999
1.75384
1.70048
1.53625
1.32584
1.14163
1.00217
0.902306
0.83331
0.78839
0.763116
0.755023
0.763377
0.789107
0.834789
0.904461
1.00282
1.13272
1.28859
1.44156
1.5198
1.44557
1.27122
1.12138
1.03447
0.99446
0.981511
0.981997
0.9874
0.993004
0.99693
0.999043
0.999912
1.00014
1.00014
1.00008
1.00004
1.00001
1
1
1
1.69748
1.53625
1.30832
1.10246
0.948191
0.840834
0.767899
0.719175
0.688102
0.670822
0.665324
0.671021
0.688631
0.7202
0.76913
0.839986
0.937572
1.06413
1.21242
1.35172
1.41358
1.34038
1.19691
1.08272
1.01983
0.992897
0.985781
0.987668
0.992136
0.996046
0.998477
0.999636
1.00004
1.00011
1.00008
1.00004
1.00002
1
1
1
1.49906
1.32584
1.10246
0.918776
0.792616
0.711317
0.659463
0.626444
0.606083
0.594999
0.591513
0.595144
0.606457
0.627109
0.660006
0.709485
0.781285
0.88169
1.01432
1.17138
1.31529
1.36537
1.27896
1.14796
1.056
1.00946
0.991639
0.988509
0.991225
0.99496
0.997738
0.99926
0.999892
1.00007
1.00007
1.00004
1.00002
1
1
0.999999
1.2917
1.14163
0.948191
0.792616
0.690475
0.628204
0.590643
0.567894
0.554423
0.547299
0.545096
0.547407
0.55469
0.568319
0.590759
0.62588
0.679302
0.758467
0.871381
1.02156
1.19423
1.3305
1.33478
1.21776
1.09967
1.03033
0.999533
0.990192
0.99056
0.993868
0.996928
0.998822
0.999706
1.00001
1.00006
1.00004
1.00002
1
0.999996
0.999995
1.12593
1.00217
0.840834
0.711317
0.628204
0.579415
0.551323
0.535137
0.525995
0.521341
0.519937
0.521426
0.526195
0.535411
0.551183
0.576876
0.617573
0.680557
0.775149
0.910037
1.08382
1.2618
1.34913
1.27709
1.14571
1.05394
1.00908
0.992779
0.990329
0.992934
0.996145
0.998369
0.999502
0.999934
1.00004
1.00003
1.00001
0.999992
0.999985
0.999983
1.00427
0.902306
0.767899
0.659463
0.590643
0.551323
0.529607
0.517748
0.511439
0.508399
0.507517
0.508469
0.511595
0.517925
0.529309
0.548698
0.580618
0.631801
0.711601
0.830809
0.995288
1.18734
1.3308
1.31623
1.1882
1.07807
1.01949
0.996065
0.990569
0.99226
0.995479
0.997959
0.999311
0.999864
1.00002
1.00002
0.999994
0.999973
0.999963
0.999959
0.919095
0.83331
0.719175
0.626444
0.567894
0.535137
0.517748
0.508808
0.504412
0.502468
0.501942
0.502529
0.504541
0.508921
0.51735
0.532483
0.558403
0.601288
0.670115
0.776349
0.929626
1.12283
1.29802
1.33504
1.22248
1.10013
1.02962
0.999631
0.991203
0.99191
0.99503
0.997683
0.999207
0.999854
1.00004
1.00004
0.999994
0.999957
0.999934
0.999923
0.863232
0.78839
0.688102
0.606083
0.554423
0.525995
0.511439
0.504412
0.501281
0.500065
0.499777
0.50012
0.501391
0.504485
0.510977
0.523336
0.545336
0.582738
0.644109
0.74101
0.884946
1.07494
1.26599
1.34017
1.24648
1.11778
1.03825
1.00298
0.992125
0.991965
0.994944
0.997697
0.999329
1.00002
1.0002
1.00016
1.00007
0.999989
0.999931
0.999902
0.831679
0.763116
0.670822
0.594999
0.547299
0.521341
0.508399
0.502468
0.500065
0.499272
0.499122
0.499324
0.500166
0.502518
0.507903
0.518683
0.538461
0.572741
0.629812
0.721173
0.859169
1.046
1.24399
1.33971
1.2605
1.12942
1.0444
1.00575
0.993304
0.992565
0.995434
0.998229
0.999899
1.00058
1.00069
1.00056
1.00037
1.00019
1.00006
0.999987
0.821554
0.755023
0.665324
0.591513
0.545096
0.519937
0.507517
0.501942
0.499777
0.499122
0.499018
0.499173
0.499874
0.501985
0.507009
0.51728
0.536341
0.569616
0.6253
0.714864
0.850902
1.03659
1.23664
1.33949
1.26579
1.13431
1.04752
1.00774
0.994778
0.993855
0.996689
0.999486
1.00114
1.00176
1.00176
1.00148
1.00113
1.00079
1.00053
1.00039
0.831987
0.763377
0.671021
0.595144
0.547407
0.521426
0.508469
0.502529
0.50012
0.499324
0.499173
0.499375
0.50022
0.502579
0.507972
0.518766
0.538565
0.572884
0.630027
0.721525
0.859763
1.04695
1.24541
1.34167
1.26308
1.13234
1.04744
1.00882
0.996388
0.99565
0.998518
1.0013
1.00293
1.00352
1.00346
1.00309
1.00259
1.00209
1.0017
1.00148
0.864094
0.789107
0.688631
0.606457
0.55469
0.526195
0.511595
0.504541
0.501391
0.500166
0.499874
0.50022
0.501502
0.504613
0.511132
0.523533
0.5456
0.583117
0.644693
0.74195
0.886451
1.0772
1.26907
1.34431
1.25173
1.12344
1.04378
1.00822
0.997047
0.996663
0.999549
1.00234
1.0041
1.00493
1.00515
1.00503
1.0047
1.0043
1.00393
1.00371
0.920938
0.834789
0.7202
0.627109
0.568319
0.535411
0.517925
0.508921
0.504485
0.502518
0.501985
0.502579
0.504613
0.509034
0.517526
0.532761
0.558843
0.602001
0.671286
0.778242
0.932502
1.12674
1.30285
1.34114
1.22959
1.1068
1.03497
1.00346
0.993661
0.993415
0.996157
0.999046
1.00133
1.00309
1.0045
1.00562
1.00644
1.00695
1.0072
1.00729
1.0072
0.904461
0.76913
0.660006
0.590759
0.551183
0.529309
0.51735
0.510977
0.507903
0.507009
0.507972
0.511132
0.517526
0.529018
0.54859
0.58082
0.63253
0.71318
0.833591
0.999395
1.19237
1.33628
1.32238
1.19345
1.08008
1.0173
0.989695
0.980673
0.979978
0.982274
0.985397
0.988842
0.992638
0.996755
1.00095
1.00483
1.00804
1.01028
1.01143
1.12791
1.00282
0.839986
0.709485
0.62588
0.576876
0.548698
0.532483
0.523336
0.518683
0.51728
0.518766
0.523533
0.532761
0.54859
0.574445
0.615519
0.67924
0.775033
0.911438
1.08643
1.26462
1.35157
1.27769
1.14021
1.03976
0.985873
0.961351
0.952298
0.950563
0.95213
0.955557
0.960638
0.96744
0.975802
0.985178
0.994674
1.00319
1.00962
1.01308
1.28448
1.13272
0.937572
0.781285
0.679302
0.617573
0.580618
0.558403
0.545336
0.538461
0.536341
0.538565
0.5456
0.558843
0.58082
0.615519
0.668762
0.748224
0.861996
1.01324
1.18652
1.32308
1.32673
1.20194
1.06932
0.984118
0.938692
0.916911
0.907737
0.904964
0.905752
0.909311
0.915777
0.925428
0.938241
0.953641
0.970333
0.98629
0.999005
1.0061
1.46367
1.28859
1.06413
0.88169
0.758467
0.680557
0.631801
0.601288
0.582738
0.572741
0.569616
0.572884
0.583117
0.602001
0.63253
0.67924
0.748224
0.846208
0.977151
1.1336
1.2794
1.33537
1.24839
1.10092
0.985989
0.917598
0.881087
0.862977
0.85474
0.851729
0.852002
0.855254
0.861942
0.872707
0.887968
0.907519
0.930053
0.952815
0.971769
0.98265
1.61122
1.44156
1.21242
1.01432
0.871381
0.775149
0.711601
0.670115
0.644109
0.629812
0.6253
0.630027
0.644693
0.671286
0.71318
0.775033
0.861996
0.977151
1.1154
1.2515
1.3258
1.27285
1.12772
0.99122
0.901854
0.851288
0.824955
0.812284
0.80672
0.804744
0.804981
0.807388
0.812667
0.821859
0.835961
0.855366
0.879098
0.904156
0.925632
0.938148
1.61205
1.5198
1.35172
1.17138
1.02156
0.910037
0.830809
0.776349
0.74101
0.721173
0.714864
0.721525
0.74195
0.778242
0.833591
0.911438
1.01324
1.1336
1.2515
1.31999
1.28127
1.14478
0.997469
0.892497
0.830493
0.797886
0.78293
0.777498
0.776433
0.776872
0.777637
0.778733
0.781018
0.78592
0.794992
0.80919
0.827927
0.848407
0.866062
0.876281
1.42753
1.44557
1.41358
1.31529
1.19423
1.08382
0.995288
0.929626
0.884946
0.859169
0.850902
0.859763
0.886451
0.932502
0.999395
1.08643
1.18652
1.2794
1.3258
1.28127
1.15049
1.00164
0.888228
0.81837
0.781564
0.766294
0.76366
0.767229
0.772581
0.77693
0.778863
0.778224
0.776025
0.774152
0.774724
0.779142
0.787108
0.796406
0.804107
0.808268
1.21543
1.27122
1.34038
1.36537
1.3305
1.2618
1.18734
1.12283
1.07494
1.046
1.03659
1.04695
1.0772
1.12674
1.19237
1.26462
1.32308
1.33537
1.27285
1.14478
1.00164
0.887099
0.813059
0.773491
0.758787
0.760442
0.771571
0.786617
0.801069
0.811402
0.815362
0.812393
0.8038
0.79227
0.780779
0.771244
0.763691
0.756936
0.750711
0.74667
1.0785
1.12138
1.19691
1.27896
1.33478
1.34913
1.3308
1.29802
1.26599
1.24399
1.23664
1.24541
1.26907
1.30285
1.33628
1.35157
1.32673
1.24839
1.12772
0.997469
0.888228
0.813059
0.771141
0.756324
0.761797
0.781378
0.809443
0.840456
0.868683
0.888574
0.895976
0.889536
0.871231
0.845427
0.816812
0.788362
0.760802
0.734564
0.712571
0.699785
1.00942
1.03447
1.08272
1.14796
1.21776
1.27709
1.31623
1.33504
1.34017
1.33971
1.33949
1.34167
1.34431
1.34114
1.32238
1.27769
1.20194
1.10092
0.99122
0.892497
0.81837
0.773491
0.756324
0.762867
0.788764
0.829763
0.881084
0.936298
0.986741
1.02261
1.03594
1.02384
0.989698
0.941353
0.887085
0.832234
0.779042
0.730143
0.691519
0.670202
0.981481
0.99446
1.01983
1.056
1.09967
1.14571
1.1882
1.22248
1.24648
1.2605
1.26579
1.26308
1.25173
1.22959
1.19345
1.14021
1.06932
0.985989
0.901854
0.830493
0.781564
0.758787
0.761797
0.788764
0.837849
0.907034
0.99238
1.08539
1.17167
1.23356
1.25657
1.23536
1.17568
1.09136
0.997581
0.904666
0.81782
0.74224
0.68603
0.656414
0.975733
0.981511
0.992897
1.00946
1.03033
1.05394
1.07807
1.10013
1.11778
1.12942
1.13431
1.13234
1.12344
1.1068
1.08008
1.03976
0.984118
0.917598
0.851288
0.797886
0.766294
0.760442
0.781378
0.829763
0.907034
1.01438
1.14878
1.29712
1.43415
1.53058
1.56579
1.53314
1.43963
1.30462
1.15354
1.00675
0.875564
0.768127
0.692903
0.654961
0.980162
0.981997
0.985781
0.991639
0.999533
1.00908
1.01949
1.02962
1.03825
1.0444
1.04752
1.04744
1.04378
1.03497
1.0173
0.985873
0.938692
0.881087
0.824955
0.78293
0.76366
0.771571
0.809443
0.881084
0.99238
1.14878
1.34653
1.56055
1.74677
1.8678
1.90954
1.87076
1.75322
1.56931
1.35073
1.13532
0.948597
0.803925
0.70819
0.661802
0.987375
0.9874
0.987668
0.988509
0.990192
0.992779
0.996065
0.999631
1.00298
1.00575
1.00774
1.00882
1.00822
1.00346
0.989695
0.961351
0.916911
0.862977
0.812284
0.777498
0.767229
0.786617
0.840456
0.936298
1.08539
1.29712
1.56055
1.82535
2.02716
2.14043
2.1759
2.14297
2.03305
1.83386
1.56351
1.27755
1.02918
0.844203
0.727498
0.672874
0.993532
0.993004
0.992136
0.991225
0.99056
0.990329
0.990569
0.991203
0.992125
0.993304
0.994778
0.996388
0.997047
0.993661
0.980673
0.952298
0.907737
0.85474
0.80672
0.776433
0.772581
0.801069
0.868683
0.986741
1.17167
1.43415
1.74677
2.02716
2.20718
2.2917
2.31518
2.29347
2.2115
2.03392
1.74784
1.40913
1.10449
0.881823
0.746146
0.684323
0.997428
0.99693
0.996046
0.99496
0.993868
0.992934
0.99226
0.99191
0.991965
0.992565
0.993855
0.99565
0.996663
0.993415
0.979978
0.950563
0.904964
0.851729
0.804744
0.776872
0.77693
0.811402
0.888574
1.02261
1.23356
1.53058
1.8678
2.14043
2.2917
2.35205
2.36677
2.35326
2.29473
2.1454
1.86718
1.50191
1.15882
0.908891
0.759667
0.692815
0.999351
0.999043
0.998477
0.997738
0.996928
0.996145
0.995479
0.99503
0.994944
0.995434
0.996689
0.998518
0.999549
0.996157
0.982274
0.95213
0.905752
0.852002
0.804981
0.777637
0.778863
0.815362
0.895976
1.03594
1.25657
1.56579
1.90954
2.1759
2.31518
2.36677
2.37849
2.36779
2.31774
2.18016
1.90825
1.53587
1.17912
0.919037
0.764764
0.696055
1.00006
0.999912
0.999636
0.99926
0.998822
0.998369
0.997959
0.997683
0.997697
0.998229
0.999486
1.0013
1.00234
0.999046
0.985397
0.955557
0.909311
0.855254
0.807388
0.778733
0.778224
0.812393
0.889536
1.02384
1.23536
1.53314
1.87076
2.14297
2.29347
2.35326
2.36779
2.35446
2.29648
2.14793
1.87017
1.50452
1.16056
0.909926
0.760314
0.693305
1.0002
1.00014
1.00004
0.999892
0.999706
0.999502
0.999311
0.999207
0.999329
0.999899
1.00114
1.00293
1.0041
1.00133
0.988842
0.960638
0.915777
0.861942
0.812667
0.781018
0.776025
0.8038
0.871231
0.989698
1.17568
1.43963
1.75322
2.03305
2.2115
2.29473
2.31774
2.29648
2.2158
2.03981
1.75439
1.41469
1.10831
0.884233
0.747753
0.685593
1.00015
1.00014
1.00011
1.00007
1.00001
0.999934
0.999864
0.999854
1.00002
1.00058
1.00176
1.00352
1.00493
1.00309
0.992638
0.96744
0.925428
0.872707
0.821859
0.78592
0.774152
0.79227
0.845427
0.941353
1.09136
1.30462
1.56931
1.83386
2.03392
2.1454
2.18016
2.14793
2.03981
1.84247
1.57249
1.28517
1.03479
0.848143
0.73042
0.67534
1.00008
1.00008
1.00008
1.00007
1.00006
1.00004
1.00002
1.00004
1.0002
1.00069
1.00176
1.00346
1.00515
1.0045
0.996755
0.975802
0.938241
0.887968
0.835961
0.794992
0.774724
0.780779
0.816812
0.887085
0.997581
1.15354
1.35073
1.56351
1.74784
1.86718
1.90825
1.87017
1.75439
1.57249
1.35524
1.14023
0.95329
0.808187
0.71206
0.665446
1.00003
1.00004
1.00004
1.00004
1.00004
1.00003
1.00002
1.00004
1.00016
1.00056
1.00148
1.00309
1.00503
1.00562
1.00095
0.985178
0.953641
0.907519
0.855366
0.80919
0.779142
0.771244
0.788362
0.832234
0.904666
1.00675
1.13532
1.27755
1.40913
1.50191
1.53587
1.50452
1.41469
1.28517
1.14023
0.999153
0.872604
0.768431
0.6951
0.657961
1.00001
1.00001
1.00002
1.00002
1.00002
1.00001
0.999994
0.999994
1.00007
1.00037
1.00113
1.00259
1.0047
1.00644
1.00483
0.994674
0.970333
0.930053
0.879098
0.827927
0.787108
0.763691
0.760802
0.779042
0.81782
0.875564
0.948597
1.02918
1.10449
1.15882
1.17912
1.16056
1.10831
1.03479
0.95329
0.872604
0.796796
0.730034
0.679667
0.652838
1
1
1
1
1
0.999992
0.999973
0.999957
0.999989
1.00019
1.00079
1.00209
1.0043
1.00695
1.00804
1.00319
0.98629
0.952815
0.904156
0.848407
0.796406
0.756936
0.734564
0.730143
0.74224
0.768127
0.803925
0.844203
0.881823
0.908891
0.919037
0.909926
0.884233
0.848143
0.808187
0.768431
0.730034
0.69406
0.664746
0.648171
1
1
1
1
0.999996
0.999985
0.999963
0.999934
0.999931
1.00006
1.00053
1.0017
1.00393
1.0072
1.01028
1.00962
0.999005
0.971769
0.925632
0.866062
0.804107
0.750711
0.712571
0.691519
0.68603
0.692903
0.70819
0.727498
0.746146
0.759667
0.764764
0.760314
0.747753
0.73042
0.71206
0.6951
0.679667
0.664746
0.651284
0.642964
0.999999
1
1
0.999999
0.999995
0.999983
0.999959
0.999923
0.999902
0.999987
1.00039
1.00148
1.00371
1.00729
1.01143
1.01308
1.0061
0.98265
0.938148
0.876281
0.808268
0.74667
0.699785
0.670202
0.656414
0.654961
0.661802
0.672874
0.684323
0.692815
0.696055
0.693305
0.685593
0.67534
0.665446
0.657961
0.652838
0.648171
0.642964
0.639128
SCALARS C2 double 1
LOOKUP_TABLE default
2.06867
1.81204
1.58294
1.53782
1.59651
1.68493
1.77224
1.84633
1.90177
1.93584
1.94726
1.93559
1.90099
1.84439
1.7684
1.67922
1.59127
1.53675
1.58191
1.80953
2.15924
2.42577
2.55068
2.58528
2.57736
2.55478
2.53206
2.51532
2.50549
2.50094
2.49944
2.49929
2.49953
2.49976
2.49991
2.49997
2.5
2.5
2.5
2.5
1.81204
1.68743
1.61983
1.65682
1.74338
1.83892
1.9263
1.99848
2.05191
2.08462
2.09557
2.08439
2.05117
1.99662
1.92264
1.83378
1.74037
1.66469
1.65121
1.76821
2.03537
2.31834
2.48988
2.55716
2.56704
2.55301
2.53358
2.51741
2.50707
2.50183
2.49984
2.49942
2.49955
2.49975
2.4999
2.49997
2.49999
2.5
2.5
2.5
1.58294
1.61983
1.71237
1.83522
1.95665
2.06322
2.15209
2.2226
2.27388
2.30503
2.31544
2.30483
2.27321
2.22088
2.14874
2.05899
1.95692
1.85445
1.77658
1.77009
1.89513
2.14118
2.37172
2.49965
2.54522
2.54846
2.53578
2.52102
2.50992
2.50349
2.50059
2.49968
2.4996
2.49974
2.49988
2.49995
2.49999
2.5
2.5
2.5
1.53782
1.65682
1.83522
2.00976
2.15387
2.26769
2.35742
2.42673
2.47652
2.50661
2.51664
2.50644
2.47594
2.42519
2.35443
2.26428
2.15671
2.03705
1.91856
1.8307
1.82857
1.97205
2.21649
2.41381
2.51051
2.53958
2.53733
2.52522
2.51352
2.50568
2.50164
2.50006
2.49969
2.49974
2.49986
2.49994
2.49998
2.5
2.5
2.5
1.59651
1.74338
1.95665
2.15387
2.30714
2.42293
2.51209
2.58028
2.6291
2.65855
2.66837
2.6584
2.62858
2.57891
2.50939
2.42007
2.31134
2.18514
2.04796
1.91755
1.83442
1.86917
2.06444
2.30809
2.46302
2.52516
2.53695
2.52904
2.51729
2.50814
2.50288
2.50055
2.49982
2.49975
2.49984
2.49993
2.49998
2.5
2.5
2.5
1.68493
1.83892
2.06322
2.26769
2.42293
2.53822
2.62637
2.69369
2.74191
2.77101
2.78072
2.77088
2.74145
2.69244
2.62388
2.53568
2.42773
2.30042
2.15658
2.00653
1.87848
1.83323
1.95065
2.19901
2.40597
2.50521
2.53395
2.53178
2.52074
2.5106
2.5042
2.50111
2.50001
2.49979
2.49985
2.49994
2.49999
2.50001
2.50002
2.50002
1.77224
1.9263
2.15209
2.35742
2.51209
2.62637
2.71369
2.78047
2.82835
2.85727
2.86692
2.85715
2.82793
2.77931
2.71135
2.62403
2.51714
2.39047
2.24499
2.08657
1.93481
1.83861
1.88376
2.10396
2.34589
2.4814
2.52852
2.53316
2.52354
2.51283
2.50549
2.5017
2.50023
2.49987
2.49989
2.49997
2.50003
2.50005
2.50005
2.50005
1.84633
1.99848
2.2226
2.42673
2.58028
2.69369
2.78047
2.84694
2.89463
2.92344
2.93306
2.92333
2.89423
2.84583
2.77824
2.6915
2.58543
2.45964
2.31422
2.15249
1.98846
1.86164
1.8529
2.03288
2.29074
2.45695
2.52167
2.53333
2.52555
2.51463
2.50658
2.50221
2.50042
2.49993
2.49992
2.50001
2.50008
2.50012
2.50013
2.50013
1.90177
2.05191
2.27388
2.47652
2.6291
2.74191
2.82835
2.89463
2.9422
2.97094
2.98054
2.97084
2.94182
2.89356
2.8262
2.73981
2.63427
2.50919
2.36422
2.20132
2.03108
1.8867
1.84274
1.98674
2.24733
2.43569
2.51491
2.53267
2.52667
2.51575
2.50722
2.50244
2.50042
2.49985
2.49986
2.5
2.50012
2.50019
2.50023
2.50025
1.93584
2.08462
2.30503
2.50661
2.65855
2.77101
2.85727
2.92344
2.97094
2.99963
3.00921
2.99953
2.97057
2.9224
2.85516
2.76896
2.66373
2.53907
2.39448
2.23123
2.0581
1.90471
1.84119
1.96161
2.21975
2.42096
2.50959
2.53144
2.52667
2.51579
2.50698
2.50195
2.49983
2.4993
2.49941
2.49969
2.49996
2.50017
2.5003
2.50037
1.94726
2.09557
2.31544
2.51664
2.66837
2.78072
2.86692
2.93306
2.98054
3.00921
3.01879
3.00912
2.98017
2.93203
2.86484
2.7787
2.67356
2.54903
2.40458
2.24124
2.06723
1.91098
1.8411
1.9532
2.20951
2.41465
2.50636
2.5295
2.52503
2.51408
2.50514
2.50006
2.49801
2.49766
2.49804
2.49863
2.49922
2.49972
2.50007
2.50026
1.93559
2.08439
2.30483
2.50644
2.6584
2.77088
2.85715
2.92333
2.97084
2.99953
3.00912
2.99943
2.97046
2.92229
2.85505
2.76884
2.6636
2.53892
2.3943
2.23095
2.05763
1.90391
1.83989
1.9594
2.21641
2.41682
2.50486
2.52622
2.52103
2.50988
2.50096
2.49602
2.4942
2.49417
2.49497
2.49606
2.4972
2.49821
2.49897
2.49938
1.90099
2.05117
2.27321
2.47594
2.62858
2.74145
2.82793
2.89423
2.94182
2.97057
2.98017
2.97046
2.94144
2.89317
2.82578
2.73936
2.63379
2.50864
2.36354
2.20036
2.02962
1.88447
1.83927
1.98105
2.23914
2.42593
2.50414
2.52112
2.51452
2.50322
2.49455
2.4899
2.48833
2.48856
2.48972
2.49131
2.49306
2.49471
2.49601
2.49672
1.84439
1.99662
2.22088
2.42519
2.57891
2.69244
2.77931
2.84583
2.89356
2.9224
2.93203
2.92229
2.89317
2.84473
2.77709
2.69027
2.58409
2.45813
2.31235
2.14997
1.98493
1.85667
1.84555
2.02146
2.27564
2.44015
2.50419
2.51558
2.50776
2.4969
2.48891
2.48457
2.48288
2.48272
2.48346
2.48481
2.48656
2.48842
2.49
2.49092
1.7684
1.92264
2.14874
2.35443
2.50939
2.62388
2.71135
2.77824
2.8262
2.85516
2.86484
2.85505
2.82578
2.77709
2.70903
2.62157
2.51444
2.38733
2.24104
2.08131
1.92773
1.82907
1.87012
2.0848
2.32391
2.45974
2.50853
2.51539
2.50801
2.49899
2.49235
2.48813
2.48529
2.48306
2.48126
2.48007
2.47963
2.47989
2.48047
2.48092
1.67922
1.83378
2.05899
2.26428
2.42007
2.53568
2.62403
2.6915
2.73981
2.76896
2.7787
2.76884
2.73936
2.69027
2.62157
2.53312
2.42468
2.29641
2.15087
1.9983
1.86697
1.8173
1.92865
2.17365
2.38373
2.48955
2.52616
2.53209
2.52824
2.52312
2.51867
2.51417
2.50858
2.50157
2.49361
2.4856
2.47851
2.47304
2.46946
2.46773
1.59127
1.74037
1.95692
2.15671
2.31134
2.42773
2.51714
2.58543
2.63427
2.66373
2.67356
2.6636
2.63379
2.58409
2.51444
2.42468
2.31489
2.18654
2.04573
1.91011
1.82005
1.84595
2.03567
2.28667
2.45787
2.5386
2.56934
2.57934
2.58247
2.58327
2.58173
2.57651
2.56665
2.55216
2.53406
2.51405
2.49422
2.47683
2.4639
2.45702
1.53675
1.66469
1.85445
2.03705
2.18514
2.30042
2.39047
2.45964
2.50919
2.53907
2.54903
2.53892
2.50864
2.45813
2.38733
2.29641
2.18654
2.06216
1.93574
1.83595
1.81707
1.94417
2.19263
2.41793
2.55009
2.61484
2.64673
2.66505
2.67742
2.68507
2.68667
2.68056
2.66584
2.64267
2.61219
2.57652
2.53888
2.50361
2.47585
2.46046
1.58191
1.65121
1.77658
1.91856
2.04796
2.15658
2.24499
2.31422
2.36422
2.39448
2.40458
2.3943
2.36354
2.31235
2.24104
2.15087
2.04573
1.93574
1.84331
1.81104
1.89906
2.12389
2.37892
2.55828
2.6605
2.71901
2.75722
2.78569
2.80724
2.82105
2.82529
2.81845
2.7997
2.76894
2.72691
2.67558
2.61887
2.56338
2.51816
2.49252
1.80953
1.76821
1.77009
1.8307
1.91755
2.00653
2.08657
2.15249
2.20132
2.23123
2.24124
2.23095
2.20036
2.14997
2.08131
1.9983
1.91011
1.83595
1.81104
1.88627
2.08943
2.35094
2.5626
2.69836
2.78384
2.84351
2.88984
2.92695
2.95488
2.97237
2.97812
2.97109
2.95043
2.9154
2.86579
2.80278
2.73053
2.65768
2.59715
2.56253
2.15924
2.03537
1.89513
1.82857
1.83442
1.87848
1.93481
1.98846
2.03108
2.0581
2.06723
2.05763
2.02962
1.98493
1.92773
1.86697
1.82005
1.81707
1.89906
2.08943
2.34086
2.56413
2.72287
2.83163
2.91173
2.97548
3.02729
3.06777
3.09661
3.11379
3.1194
3.11314
3.0939
3.05985
3.0092
2.94179
2.86147
2.7784
2.70861
2.66862
2.42577
2.31834
2.14118
1.97205
1.86917
1.83323
1.83861
1.86164
1.8867
1.90471
1.91098
1.90391
1.88447
1.85667
1.82907
1.8173
1.84595
1.94417
2.12389
2.35094
2.56413
2.73129
2.85671
2.9547
3.03461
3.09942
3.1492
3.18422
3.20618
3.21774
3.22122
3.21723
3.20404
3.17804
3.13517
3.07326
2.99514
2.91149
2.84
2.79882
2.55068
2.48988
2.37172
2.21649
2.06444
1.95065
1.88376
1.8529
1.84274
1.84119
1.8411
1.83989
1.83927
1.84555
1.87012
1.92865
2.03567
2.19263
2.37892
2.5626
2.72287
2.85671
2.96928
3.06436
3.14155
3.19857
3.23465
3.25229
3.25707
3.25598
3.25472
3.25526
3.25468
3.24635
3.2227
3.17866
3.11512
3.04165
2.97588
2.937
2.58528
2.55716
2.49965
2.41381
2.30809
2.19901
2.10396
2.03288
1.98674
1.96161
1.9532
1.9594
1.98105
2.02146
2.0848
2.17365
2.28667
2.41793
2.55828
2.69836
2.83163
2.9547
3.06436
3.15523
3.2209
3.25709
3.26432
3.24883
3.22207
3.19799
3.18814
3.19676
3.21872
3.24198
3.25308
3.24247
3.20786
3.1559
3.10259
3.06865
2.57736
2.56704
2.54522
2.51051
2.46302
2.40597
2.34589
2.29074
2.24733
2.21975
2.20951
2.21641
2.23914
2.27564
2.32391
2.38373
2.45787
2.55009
2.6605
2.78384
2.91173
3.03461
3.14155
3.2209
3.26289
3.26252
3.22175
3.15165
3.07275
3.01063
2.98659
3.00853
3.06767
3.14284
3.21035
3.25315
3.26406
3.24533
3.21062
3.18371
2.55478
2.55301
2.54846
2.53958
2.52516
2.50521
2.4814
2.45695
2.43569
2.42096
2.41465
2.41682
2.42593
2.44015
2.45974
2.48955
2.5386
2.61484
2.71901
2.84351
2.97548
3.09942
3.19857
3.25709
3.26252
3.20796
3.09603
2.94492
2.79042
2.67551
2.63248
2.67227
2.78298
2.93325
3.08398
3.20459
3.27955
3.30567
3.29512
3.27702
2.53206
2.53358
2.53578
2.53733
2.53695
2.53395
2.52852
2.52167
2.51491
2.50959
2.50636
2.50486
2.50414
2.50419
2.50853
2.52616
2.56934
2.64673
2.75722
2.88984
3.02729
3.1492
3.23465
3.26432
3.22175
3.09603
2.89105
2.63994
2.4041
2.24236
2.18491
2.23831
2.39469
2.62546
2.87842
3.0997
3.25638
3.3374
3.35532
3.34739
2.51532
2.51741
2.52102
2.52522
2.52904
2.53178
2.53316
2.53333
2.53267
2.53144
2.5295
2.52622
2.52112
2.51558
2.51539
2.53209
2.57934
2.66505
2.78569
2.92695
3.06777
3.18422
3.25229
3.24883
3.15165
2.94492
2.63994
2.30041
2.01786
1.84546
1.78842
1.84154
2.00823
2.2848
2.62751
2.95623
3.20446
3.34563
3.39374
3.39643
2.50549
2.50707
2.50992
2.51352
2.51729
2.52074
2.52354
2.52555
2.52667
2.52667
2.52503
2.52103
2.51452
2.50776
2.50801
2.52824
2.58247
2.67742
2.80724
2.95488
3.09661
3.20618
3.25707
3.22207
3.07275
2.79042
2.4041
2.01786
1.73633
1.58297
1.53527
1.57971
1.7279
2.00313
2.39281
2.80871
3.14183
3.33935
3.41512
3.42742
2.50094
2.50183
2.50349
2.50568
2.50814
2.5106
2.51283
2.51463
2.51575
2.51579
2.51408
2.50988
2.50322
2.4969
2.49899
2.52312
2.58327
2.68507
2.82105
2.97237
3.11379
3.21774
3.25598
3.19799
3.01063
2.67551
2.24236
1.84546
1.58297
1.45026
1.41055
1.44755
1.57573
1.83215
2.23238
2.69859
3.09107
3.32937
3.42494
3.44405
2.49944
2.49984
2.50059
2.50164
2.50288
2.5042
2.50549
2.50658
2.50722
2.50698
2.50514
2.50096
2.49455
2.48891
2.49235
2.51867
2.58173
2.68667
2.82529
2.97812
3.1194
3.22122
3.25472
3.18814
2.98659
2.63248
2.18491
1.78842
1.53527
1.41055
1.37371
1.40803
1.52849
1.77573
2.17547
2.65721
3.07111
3.32462
3.42756
3.4492
2.49929
2.49942
2.49968
2.50006
2.50055
2.50111
2.5017
2.50221
2.50244
2.50195
2.50006
2.49602
2.4899
2.48457
2.48813
2.51417
2.57651
2.68056
2.81845
2.97109
3.11314
3.21723
3.25526
3.19676
3.00853
2.67227
2.23831
1.84154
1.57971
1.44755
1.40803
1.44484
1.57249
1.82823
2.22826
2.69528
3.08905
3.32837
3.42452
3.44386
2.49953
2.49955
2.4996
2.49969
2.49982
2.50001
2.50023
2.50042
2.50042
2.49983
2.49801
2.4942
2.48833
2.48288
2.48529
2.50858
2.56665
2.66584
2.7997
2.95043
3.0939
3.20404
3.25468
3.21872
3.06767
2.78298
2.39469
2.00823
1.7279
1.57573
1.52849
1.57249
1.71949
1.99345
2.3832
2.80111
3.13696
3.33667
3.41376
3.42664
2.49976
2.49975
2.49974
2.49974
2.49975
2.49979
2.49987
2.49993
2.49985
2.4993
2.49766
2.49417
2.48856
2.48272
2.48306
2.50157
2.55216
2.64267
2.76894
2.9154
3.05985
3.17804
3.24635
3.24198
3.14284
2.93325
2.62546
2.2848
2.00313
1.83215
1.77573
1.82823
1.99345
2.26897
2.61259
2.94422
3.19597
3.34015
3.39032
3.39402
2.49991
2.4999
2.49988
2.49986
2.49984
2.49985
2.49989
2.49992
2.49986
2.49941
2.49804
2.49497
2.48972
2.48346
2.48126
2.49361
2.53406
2.61219
2.72691
2.86579
3.0092
3.13517
3.2227
3.25308
3.21035
3.08398
2.87842
2.62751
2.39281
2.23238
2.17547
2.22826
2.3832
2.61259
2.86508
3.08701
3.24516
3.32809
3.34791
3.34118
2.49997
2.49997
2.49995
2.49994
2.49993
2.49994
2.49997
2.50001
2.5
2.49969
2.49863
2.49606
2.49131
2.48481
2.48007
2.4856
2.51405
2.57652
2.67558
2.80278
2.94179
3.07326
3.17866
3.24247
3.25315
3.20459
3.0997
2.95623
2.80871
2.69859
2.65721
2.69528
2.80111
2.94422
3.08701
3.20035
3.26974
3.29272
3.28137
3.26352
2.5
2.49999
2.49999
2.49998
2.49998
2.49999
2.50003
2.50008
2.50012
2.49996
2.49922
2.4972
2.49306
2.48656
2.47963
2.47851
2.49422
2.53888
2.61887
2.73053
2.86147
2.99514
3.11512
3.20786
3.26406
3.27955
3.25638
3.20446
3.14183
3.09107
3.07111
3.08905
3.13696
3.19597
3.24516
3.26974
3.26426
3.23282
3.19047
3.16043
2.5
2.5
2.5
2.5
2.5
2.50001
2.50005
2.50012
2.50019
2.50017
2.49972
2.49821
2.49471
2.48842
2.47989
2.47304
2.47683
2.50361
2.56338
2.65768
2.7784
2.91149
3.04165
3.1559
3.24533
3.30567
3.3374
3.34563
3.33935
3.32937
3.32462
3.32837
3.33667
3.34015
3.32809
3.29272
3.23282
3.15724
3.08586
3.04248
2.5
2.5
2.5
2.5
2.5
2.50002
2.50005
2.50013
2.50023
2.5003
2.50007
2.49897
2.49601
2.49
2.48047
2.46946
2.4639
2.47585
2.51816
2.59715
2.70861
2.84
2.97588
3.10259
3.21062
3.29512
3.35532
3.39374
3.41512
3.42494
3.42756
3.42452
3.41376
3.39032
3.34791
3.28137
3.19047
3.08586
2.99165
2.93591
2.5
2.5
2.5
2.5
2.5
2.50002
2.50005
2.50013
2.50025
2.50037
2.50026
2.49938
2.49672
2.49092
2.48092
2.46773
2.45702
2.46046
2.49252
2.56253
2.66862
2.79882
2.937
3.06865
3.18371
3.27702
3.34739
3.39643
3.42742
3.44405
3.4492
3.44386
3.42664
3.39402
3.34118
3.26352
3.16043
3.04248
2.93591
2.87267
