# vtk DataFile Version 3.0
Brusselator Concentration Output
ASCII
DATASET STRUCTURED_POINTS
DIMENSIONS 40 40 1
ORIGIN 0.0 0.0 0.0
SPACING 0.005 0.005 1.0
POINT_DATA 1600
SCALARS C1 double 1
LOOKUP_TABLE default
1.00005
0.999747
0.999034
0.997815
0.996144
0.994302
0.992707
0.991675
0.991244
0.991185
0.991208
0.991185
0.991244
0.991675
0.992706
0.994301
0.996138
0.9978
0.999001
0.999688
0.999986
1.00007
1.00006
1.00003
1.00002
1.00001
1
1
1
1
1
1
1
1
1
1
1
1
1
1
0.999747
0.999223
0.998133
0.99654
0.994776
0.993424
0.993042
0.993791
0.995257
0.996645
0.997208
0.996645
0.995257
0.993791
0.993042
0.993421
0.994767
0.99652
0.998097
0.99918
0.999758
0.999989
1.00004
1.00004
1.00002
1.00001
1
1
1
1
1
1
1
1
1
1
1
1
1
1
0.999034
0.998133
0.996483
0.994584
0.993405
0.994115
0.99744
1.00303
1.00937
1.01436
1.01624
1.01436
1.00937
1.00303
0.997439
0.99411
0.993392
0.994558
0.99645
0.998143
0.999244
0.99979
0.999991
1.00003
1.00003
1.00001
1.00001
1
1
1
1
1
1
1
1
1
1
1
1
1
0.997815
0.99654
0.994584
0.993311
0.99477
1.00096
1.01262
1.0282
1.044
1.05564
1.05989
1.05564
1.044
1.0282
1.01262
1.00095
0.994751
0.993283
0.994576
0.996675
0.9984
0.999414
0.999864
1.00001
1.00003
1.00002
1.00001
1
1
1
1
1
1
1
1
1
1
1
1
1
0.996144
0.994776
0.993405
0.99477
1.00247
1.01952
1.04617
1.0782
1.10791
1.12811
1.13513
1.12811
1.10791
1.0782
1.04616
1.01951
1.00245
0.994749
0.993461
0.995135
0.997298
0.998842
0.999637
0.999942
1.00002
1.00002
1.00001
1
1
1
1
1
1
1
1
1
1
1
1
1
0.994302
0.993424
0.994115
1.00096
1.01952
1.05368
1.10149
1.15232
1.19215
1.21439
1.22107
1.21439
1.19215
1.15231
1.10149
1.05367
1.01949
1.00096
0.994281
0.994107
0.996164
0.998131
0.999311
0.99983
0.999994
1.00002
1.00001
1.00001
1
1
1
1
1
1
1
1
1
1
1
1
0.992707
0.993042
0.99744
1.01262
1.04617
1.10149
1.16931
1.22606
1.25426
1.26002
1.25949
1.26002
1.25426
1.22606
1.1693
1.10147
1.04615
1.01266
0.997757
0.994107
0.995289
0.997409
0.998928
0.999679
0.999951
1.00001
1.00002
1.00001
1
1
1
1
1
1
1
1
1
1
1
1
0.991675
0.993791
1.00303
1.0282
1.0782
1.15232
1.22606
1.26215
1.25489
1.23278
1.22236
1.23278
1.25489
1.26214
1.22605
1.1523
1.0782
1.0283
1.00352
0.995233
0.994858
0.996809
0.998553
0.999514
0.999897
1
1.00002
1.00001
1
1
1
1
1
1
1
1
1
1
1
1
0.991244
0.995257
1.00937
1.044
1.10791
1.19215
1.25426
1.25489
1.21182
1.16826
1.15115
1.16826
1.21182
1.25489
1.25425
1.19213
1.10792
1.04416
1.01001
0.997008
0.994836
0.996406
0.998251
0.999368
0.999846
0.999991
1.00002
1.00001
1
1
1
1
1
1
1
1
1
1
1
1
0.991185
0.996645
1.01436
1.05564
1.12811
1.21439
1.26002
1.23278
1.16826
1.11392
1.09375
1.11392
1.16826
1.23277
1.26001
1.21438
1.12813
1.05583
1.0151
0.998593
0.994996
0.996194
0.99806
0.999269
0.999808
0.999981
1.00001
1.00001
1
1
1
1
1
1
1
1
1
1
1
1
0.991208
0.997208
1.01624
1.05989
1.13513
1.22107
1.25949
1.22236
1.15115
1.09375
1.07277
1.09375
1.15115
1.22235
1.25948
1.22106
1.13515
1.0601
1.01702
0.999223
0.995085
0.996131
0.997995
0.999234
0.999795
0.999977
1.00001
1.00001
1
1
1
1
1
1
1
1
1
1
1
1
0.991185
0.996645
1.01436
1.05564
1.12811
1.21439
1.26002
1.23278
1.16826
1.11392
1.09375
1.11392
1.16826
1.23277
1.26001
1.21438
1.12813
1.05583
1.0151
0.998593
0.994996
0.996194
0.99806
0.999269
0.999808
0.999981
1.00001
1.00001
1
1
1
1
1
1
1
1
1
1
1
1
0.991244
0.995257
1.00937
1.044
1.10791
1.19215
1.25426
1.25489
1.21182
1.16826
1.15115
1.16826
1.21182
1.25489
1.25425
1.19213
1.10792
1.04416
1.01001
0.997008
0.994836
0.996406
0.998251
0.999368
0.999845
0.99999
1.00001
1.00001
1
1
0.999998
0.999998
0.999998
0.999999
0.999999
0.999999
1
1
1
1
0.991675
0.993791
1.00303
1.0282
1.0782
1.15231
1.22606
1.26214
1.25489
1.23277
1.22235
1.23277
1.25489
1.26214
1.22605
1.15229
1.0782
1.0283
1.00352
0.995233
0.994858
0.996809
0.998553
0.999514
0.999896
1
1.00001
1.00001
1
0.999997
0.999996
0.999995
0.999996
0.999996
0.999997
0.999998
0.999998
0.999999
1
1
0.992706
0.993042
0.997439
1.01262
1.04616
1.10149
1.1693
1.22605
1.25425
1.26001
1.25948
1.26001
1.25425
1.22605
1.16929
1.10147
1.04614
1.01266
0.997755
0.994107
0.995288
0.997408
0.998926
0.999676
0.999946
1.00001
1.00001
1
0.999995
0.999993
0.999992
0.999992
0.999992
0.999992
0.999993
0.999994
0.999995
0.999997
0.999998
0.999999
0.994301
0.993421
0.99411
1.00095
1.01951
1.05367
1.10147
1.1523
1.19213
1.21438
1.22106
1.21438
1.19213
1.15229
1.10147
1.05365
1.01948
1.00096
0.994276
0.994103
0.996161
0.998128
0.999306
0.999822
0.999984
1.00001
1
0.999999
0.999998
0.999999
1
0.999999
0.999996
0.999992
0.99999
0.999989
0.99999
0.999992
0.999995
0.999996
0.996138
0.994767
0.993392
0.994751
1.00245
1.01949
1.04615
1.0782
1.10792
1.12813
1.13515
1.12813
1.10792
1.0782
1.04614
1.01948
1.00242
0.994731
0.993447
0.995126
0.99729
0.998833
0.999626
0.999928
1.00001
1.00001
1.00002
1.00003
1.00004
1.00005
1.00006
1.00005
1.00004
1.00002
1.00001
0.999993
0.999987
0.999986
0.999988
0.999989
0.9978
0.99652
0.994558
0.993283
0.994749
1.00096
1.01266
1.0283
1.04416
1.05583
1.0601
1.05583
1.04416
1.0283
1.01266
1.00096
0.994731
0.993254
0.994549
0.996653
0.998381
0.999396
0.999846
0.999994
1.00003
1.00006
1.0001
1.00015
1.00021
1.00025
1.00026
1.00025
1.00021
1.00015
1.00009
1.00004
1
0.999986
0.999979
0.999978
0.999001
0.998097
0.99645
0.994576
0.993461
0.994281
0.997757
1.00352
1.01001
1.0151
1.01702
1.0151
1.01001
1.00352
0.997755
0.994276
0.993447
0.994549
0.996414
0.998102
0.999206
0.99976
0.999976
1.00006
1.00013
1.00023
1.00037
1.00052
1.00065
1.00074
1.00077
1.00074
1.00065
1.00052
1.00037
1.00022
1.0001
1.00002
0.999981
0.999966
0.999688
0.99918
0.998143
0.996675
0.995135
0.994107
0.994107
0.995233
0.997008
0.998593
0.999223
0.998593
0.997008
0.995233
0.994107
0.994103
0.995126
0.996653
0.998102
0.999133
0.999704
0.99996
1.00008
1.00021
1.00041
1.00068
1.001
1.00129
1.00151
1.00164
1.00168
1.00164
1.00151
1.00129
1.001
1.00067
1.00038
1.00017
1.00003
0.999976
0.999986
0.999758
0.999244
0.9984
0.997298
0.996164
0.995289
0.994858
0.994836
0.994996
0.995085
0.994996
0.994836
0.994858
0.995288
0.996161
0.99729
0.998381
0.999206
0.999704
0.999953
1.0001
1.00027
1.00058
1.00103
1.00156
1.00205
1.00241
1.00258
1.00263
1.00264
1.00263
1.00258
1.0024
1.00205
1.00155
1.00101
1.00054
1.00022
1.00006
1.00007
0.999989
0.99979
0.999414
0.998842
0.998131
0.997409
0.996809
0.996406
0.996194
0.996131
0.996194
0.996406
0.996809
0.997408
0.998128
0.998833
0.999396
0.99976
0.99996
1.0001
1.0003
1.00069
1.0013
1.00206
1.00275
1.00311
1.00303
1.00262
1.00218
1.00199
1.00218
1.00262
1.00303
1.00311
1.00274
1.00204
1.00127
1.00066
1.00033
1.00006
1.00004
0.999991
0.999864
0.999637
0.999311
0.998928
0.998553
0.998251
0.99806
0.997995
0.99806
0.998251
0.998553
0.998926
0.999306
0.999626
0.999846
0.999976
1.00008
1.00027
1.00069
1.0014
1.00235
1.00321
1.00345
1.00268
1.00092
0.998741
0.996974
0.996299
0.996974
0.998741
1.00092
1.00267
1.00344
1.00319
1.00234
1.00144
1.0009
1.00003
1.00004
1.00003
1.00001
0.999942
0.99983
0.999679
0.999514
0.999368
0.999269
0.999234
0.999269
0.999368
0.999514
0.999676
0.999822
0.999928
0.999994
1.00006
1.00021
1.00058
1.0013
1.00235
1.00336
1.00352
1.00189
0.998045
0.992583
0.986977
0.98285
0.981343
0.98285
0.986976
0.99258
0.998038
1.00188
1.00351
1.00339
1.00252
1.00185
1.00002
1.00002
1.00003
1.00003
1.00002
0.999994
0.999951
0.999897
0.999846
0.999808
0.999795
0.999808
0.999845
0.999896
0.999946
0.999984
1.00001
1.00003
1.00013
1.00041
1.00103
1.00206
1.00321
1.00352
1.00149
0.995792
0.986468
0.975325
0.965068
0.958028
0.955546
0.958028
0.965067
0.975321
0.986459
0.99578
1.0015
1.00363
1.00359
1.00307
1.00001
1.00001
1.00001
1.00002
1.00002
1.00002
1.00001
1
0.999991
0.999981
0.999977
0.999981
0.99999
1
1.00001
1.00001
1.00001
1.00006
1.00023
1.00068
1.00156
1.00275
1.00345
1.00189
0.995792
0.983906
0.967513
0.950112
0.935483
0.92608
0.92288
0.92608
0.935481
0.950106
0.967503
0.9839
0.995834
1.00211
1.00413
1.00431
1
1
1.00001
1.00001
1.00001
1.00001
1.00002
1.00002
1.00002
1.00001
1.00001
1.00001
1.00001
1.00001
1.00001
1
1.00002
1.0001
1.00037
1.001
1.00205
1.00311
1.00268
0.998045
0.986468
0.967513
0.944332
0.922072
0.904932
0.894676
0.891331
0.894675
0.904929
0.922066
0.944323
0.967519
0.98656
0.998412
1.00368
1.00517
1
1
1
1
1
1.00001
1.00001
1.00001
1.00001
1.00001
1.00001
1.00001
1.00001
1.00001
1
0.999999
1.00003
1.00015
1.00052
1.00129
1.00241
1.00303
1.00092
0.992583
0.975325
0.950112
0.922072
0.897483
0.880226
0.870792
0.8679
0.870791
0.880223
0.897477
0.922066
0.950133
0.975474
0.993098
1.00221
1.00543
1
1
1
1
1
1
1
1
1
1
1
1
1
1
0.999995
0.999998
1.00004
1.00021
1.00065
1.00151
1.00258
1.00262
0.998741
0.986977
0.965068
0.935483
0.904932
0.880226
0.864544
0.856967
0.854878
0.856966
0.86454
0.880219
0.904928
0.93552
0.965269
0.987617
1.00024
1.00519
1
1
1
1
1
1
1
1
1
1
1
1
1
0.999997
0.999993
0.999999
1.00005
1.00025
1.00074
1.00164
1.00263
1.00218
0.996974
0.98285
0.958028
0.92608
0.894676
0.870792
0.856967
0.851203
0.849859
0.851202
0.856963
0.870785
0.894674
0.926128
0.958264
0.983572
0.998598
1.00479
1
1
1
1
1
1
1
1
1
1
1
1
0.999998
0.999996
0.999992
1
1.00006
1.00026
1.00077
1.00168
1.00264
1.00199
0.996299
0.981343
0.955546
0.92288
0.891331
0.8679
0.854878
0.849859
0.848817
0.849857
0.854874
0.867893
0.89133
0.922932
0.955794
0.982092
0.997963
1.00461
1
1
1
1
1
1
1
1
1
1
1
1
0.999998
0.999995
0.999992
0.999999
1.00005
1.00025
1.00074
1.00164
1.00263
1.00218
0.996974
0.98285
0.958028
0.92608
0.894675
0.870791
0.856966
0.851202
0.849857
0.8512
0.856962
0.870784
0.894673
0.926128
0.958263
0.983571
0.998598
1.00479
1
1
1
1
1
1
1
1
1
1
1
1
0.999998
0.999996
0.999992
0.999996
1.00004
1.00021
1.00065
1.00151
1.00258
1.00262
0.998741
0.986976
0.965067
0.935481
0.904929
0.880223
0.86454
0.856963
0.854874
0.856962
0.864537
0.880216
0.904925
0.935518
0.965267
0.987616
1.00024
1.00519
1
1
1
1
1
1
1
1
1
1
1
1
0.999999
0.999996
0.999992
0.999992
1.00002
1.00015
1.00052
1.00129
1.0024
1.00303
1.00092
0.99258
0.975321
0.950106
0.922066
0.897477
0.880219
0.870785
0.867893
0.870784
0.880216
0.89747
0.922059
0.950128
0.97547
0.993095
1.0022
1.00543
1
1
1
1
1
1
1
1
1
1
1
1
0.999999
0.999997
0.999993
0.99999
1.00001
1.00009
1.00037
1.001
1.00205
1.00311
1.00267
0.998038
0.986459
0.967503
0.944323
0.922066
0.904928
0.894674
0.89133
0.894673
0.904925
0.922059
0.944314
0.967509
0.986551
0.998404
1.00367
1.00516
1
1
1
1
1
1
1
1
1
1
1
1
0.999999
0.999998
0.999994
0.999989
0.999993
1.00004
1.00022
1.00067
1.00155
1.00274
1.00344
1.00188
0.99578
0.9839
0.967519
0.950133
0.93552
0.926128
0.922932
0.926128
0.935518
0.950128
0.967509
0.983893
0.995821
1.0021
1.00412
1.0043
1
1
1
1
1
1
1
1
1
1
1
1
1
0.999998
0.999995
0.99999
0.999987
1
1.0001
1.00038
1.00101
1.00204
1.00319
1.00351
1.0015
0.995834
0.98656
0.975474
0.965269
0.958264
0.955794
0.958263
0.965267
0.97547
0.986551
0.995821
1.0015
1.00361
1.00357
1.00305
1
1
1
1
1
1
1
1
1
1
1
1
1
0.999999
0.999997
0.999992
0.999986
0.999986
1.00002
1.00017
1.00054
1.00127
1.00234
1.00339
1.00363
1.00211
0.998412
0.993098
0.987617
0.983572
0.982092
0.983571
0.987616
0.993095
0.998404
1.0021
1.00361
1.00341
1.0025
1.00181
1
1
1
1
1
1
1
1
1
1
1
1
1
1
0.999998
0.999995
0.999988
0.999979
0.999981
1.00003
1.00022
1.00066
1.00144
1.00252
1.00359
1.00413
1.00368
1.00221
1.00024
0.998598
0.997963
0.998598
1.00024
1.0022
1.00367
1.00412
1.00357
1.0025
1.00148
1.00088
1
1
1
1
1
1
1
1
1
1
1
1
1
1
0.999999
0.999996
0.999989
0.999978
0.999966
0.999976
1.00006
1.00033
1.0009
1.00185
1.00307
1.00431
1.00517
1.00543
1.00519
1.00479
1.00461
1.00479
1.00519
1.00543
1.00516
1.0043
1.00305
1.00181
1.00088
1.0004
SCALARS C2 double 1
LOOKUP_TABLE default
2.49956
2.49974
2.50031
2.50162
2.50391
2.50713
2.51083
2.51433
2.51706
2.51871
2.51926
2.51871
2.51706
2.51433
2.51083
2.50713
2.50392
2.50163
2.50036
2.49984
2.49975
2.49981
2.4999
2.49996
2.49998
2.5
2.5
2.5
2.5
2.5
2.5
2.5
2.5
2.5
2.5
2.5
2.5
2.5
2.5
2.5
2.49974
2.50025
2.50152
2.5039
2.50744
2.51169
2.51575
2.51879
2.52046
2.52108
2.5212
2.52108
2.52046
2.51879
2.51575
2.51169
2.50745
2.50393
2.50158
2.50036
2.49991
2.49983
2.49988
2.49994
2.49998
2.49999
2.5
2.5
2.5
2.5
2.5
2.5
2.5
2.5
2.5
2.5
2.5
2.5
2.5
2.5
2.50031
2.50152
2.50421
2.50851
2.51385
2.51882
2.52166
2.52141
2.51872
2.51562
2.51428
2.51562
2.51872
2.52141
2.52166
2.51882
2.51387
2.50855
2.5043
2.50165
2.50038
2.49994
2.49987
2.49991
2.49996
2.49998
2.5
2.5
2.5
2.5
2.5
2.5
2.5
2.5
2.5
2.5
2.5
2.5
2.5
2.5
2.50162
2.5039
2.50851
2.51483
2.52088
2.52344
2.51946
2.50841
2.49355
2.48087
2.47591
2.48087
2.49355
2.50841
2.51947
2.52345
2.52091
2.51489
2.50862
2.50399
2.50137
2.50025
2.49992
2.49989
2.49994
2.49997
2.49999
2.5
2.5
2.5
2.5
2.5
2.5
2.5
2.5
2.5
2.5
2.5
2.5
2.5
2.50391
2.50744
2.51385
2.52088
2.52392
2.51674
2.49466
2.45901
2.41909
2.3882
2.37669
2.3882
2.41909
2.45901
2.49467
2.51675
2.52396
2.52097
2.51395
2.50736
2.50304
2.50088
2.50008
2.4999
2.49992
2.49996
2.49998
2.5
2.5
2.5
2.5
2.5
2.5
2.5
2.5
2.5
2.5
2.5
2.5
2.5
2.50713
2.51169
2.51882
2.52344
2.51674
2.48814
2.43181
2.35539
2.28044
2.22863
2.21061
2.22863
2.28044
2.35539
2.43182
2.48817
2.51679
2.52353
2.51885
2.51129
2.50528
2.50187
2.50041
2.49997
2.49991
2.49995
2.49998
2.49999
2.5
2.5
2.5
2.5
2.5
2.5
2.5
2.5
2.5
2.5
2.5
2.5
2.51083
2.51575
2.52166
2.51946
2.49466
2.43181
2.32833
2.20904
2.11241
2.05716
2.04017
2.05716
2.11241
2.20905
2.32835
2.43185
2.49473
2.51954
2.52157
2.51489
2.50775
2.5031
2.50088
2.5001
2.49993
2.49994
2.49997
2.49999
2.5
2.5
2.5
2.5
2.5
2.5
2.5
2.5
2.5
2.5
2.5
2.5
2.51433
2.51879
2.52141
2.50841
2.45901
2.35539
2.20904
2.07244
1.9888
1.9541
1.94592
1.9541
1.9888
2.07245
2.20906
2.35543
2.45908
2.50845
2.52115
2.51739
2.50999
2.50437
2.50141
2.50026
2.49996
2.49993
2.49996
2.49999
2.5
2.5
2.5
2.5
2.5
2.5
2.5
2.5
2.5
2.5
2.5
2.5
2.51706
2.52046
2.51872
2.49355
2.41909
2.28044
2.11241
1.9888
1.93697
1.92791
1.9289
1.92791
1.93697
1.9888
2.11243
2.28048
2.41916
2.49355
2.51829
2.51856
2.51164
2.50544
2.5019
2.50043
2.5
2.49994
2.49996
2.49998
2.49999
2.5
2.5
2.5
2.5
2.5
2.5
2.5
2.5
2.5
2.5
2.5
2.51871
2.52108
2.51562
2.48087
2.3882
2.22863
2.05716
1.9541
1.92791
1.93593
1.94259
1.93593
1.92792
1.9541
2.05718
2.22868
2.38826
2.48084
2.51506
2.51884
2.51259
2.50614
2.50225
2.50056
2.50003
2.49994
2.49996
2.49998
2.49999
2.5
2.5
2.5
2.5
2.5
2.5
2.5
2.5
2.5
2.5
2.5
2.51926
2.5212
2.51428
2.47591
2.37669
2.21061
2.04017
1.94592
1.9289
1.94259
1.9511
1.94259
1.9289
1.94593
2.04019
2.21065
2.37675
2.47587
2.51367
2.51883
2.5129
2.50638
2.50237
2.5006
2.50004
2.49994
2.49996
2.49998
2.49999
2.5
2.5
2.5
2.5
2.5
2.5
2.5
2.5
2.5
2.5
2.5
2.51871
2.52108
2.51562
2.48087
2.3882
2.22863
2.05716
1.9541
1.92791
1.93593
1.94259
1.93593
1.92792
1.9541
2.05718
2.22868
2.38826
2.48084
2.51506
2.51884
2.51259
2.50614
2.50225
2.50056
2.50003
2.49994
2.49996
2.49998
2.49999
2.5
2.5
2.5
2.5
2.5
2.5
2.5
2.5
2.5
2.5
2.5
2.51706
2.52046
2.51872
2.49355
2.41909
2.28044
2.11241
1.9888
1.93697
1.92792
1.9289
1.92792
1.93697
1.9888
2.11243
2.28048
2.41916
2.49355
2.51829
2.51856
2.51164
2.50544
2.5019
2.50043
2.5
2.49994
2.49996
2.49998
2.5
2.5
2.5
2.5
2.5
2.5
2.5
2.5
2.5
2.5
2.5
2.5
2.51433
2.51879
2.52141
2.50841
2.45901
2.35539
2.20905
2.07245
1.9888
1.9541
1.94593
1.9541
1.9888
2.07245
2.20907
2.35544
2.45908
2.50845
2.52115
2.51739
2.50999
2.50437
2.50141
2.50026
2.49996
2.49994
2.49997
2.49999
2.5
2.50001
2.50001
2.50001
2.50001
2.50001
2.5
2.5
2.5
2.5
2.5
2.5
2.51083
2.51575
2.52166
2.51947
2.49467
2.43182
2.32835
2.20906
2.11243
2.05718
2.04019
2.05718
2.11243
2.20907
2.32836
2.43186
2.49473
2.51955
2.52157
2.51489
2.50775
2.5031
2.50088
2.5001
2.49993
2.49995
2.49998
2.5
2.50001
2.50002
2.50002
2.50002
2.50002
2.50001
2.50001
2.50001
2.50001
2.5
2.5
2.5
2.50713
2.51169
2.51882
2.52345
2.51675
2.48817
2.43185
2.35543
2.28048
2.22868
2.21065
2.22868
2.28048
2.35544
2.43186
2.48819
2.51681
2.52354
2.51885
2.51129
2.50528
2.50187
2.50041
2.49998
2.49993
2.49997
2.5
2.50002
2.50003
2.50003
2.50003
2.50003
2.50003
2.50003
2.50003
2.50002
2.50002
2.50001
2.50001
2.5
2.50392
2.50745
2.51387
2.52091
2.52396
2.51679
2.49473
2.45908
2.41916
2.38826
2.37675
2.38826
2.41916
2.45908
2.49473
2.51681
2.524
2.52099
2.51396
2.50737
2.50304
2.50089
2.5001
2.49993
2.49995
2.5
2.50003
2.50003
2.50003
2.50002
2.50002
2.50002
2.50003
2.50004
2.50004
2.50004
2.50004
2.50003
2.50002
2.50001
2.50163
2.50393
2.50855
2.51489
2.52097
2.52353
2.51954
2.50845
2.49355
2.48084
2.47587
2.48084
2.49355
2.50845
2.51955
2.52354
2.52099
2.51496
2.50866
2.50401
2.50139
2.50027
2.49995
2.49994
2.49999
2.50001
2.5
2.49996
2.4999
2.49986
2.49985
2.49986
2.4999
2.49996
2.50001
2.50004
2.50005
2.50005
2.50004
2.50003
2.50036
2.50158
2.5043
2.50862
2.51395
2.51885
2.52157
2.52115
2.51829
2.51506
2.51367
2.51506
2.51829
2.52115
2.52157
2.51885
2.51396
2.50866
2.50439
2.50172
2.50043
2.49999
2.49994
2.49997
2.49998
2.49991
2.49977
2.49958
2.4994
2.49927
2.49922
2.49927
2.4994
2.49958
2.49977
2.49992
2.50002
2.50007
2.50007
2.50007
2.49984
2.50036
2.50165
2.50399
2.50736
2.51129
2.51489
2.51739
2.51856
2.51884
2.51883
2.51884
2.51856
2.51739
2.51489
2.51129
2.50737
2.50401
2.50172
2.5005
2.50002
2.49993
2.49996
2.49992
2.49976
2.49943
2.49897
2.49847
2.49802
2.49771
2.4976
2.49771
2.49802
2.49847
2.49898
2.49944
2.49979
2.49999
2.50009
2.50012
2.49975
2.49991
2.50038
2.50137
2.50304
2.50528
2.50775
2.50999
2.51164
2.51259
2.5129
2.51259
2.51164
2.50999
2.50775
2.50528
2.50304
2.50139
2.50043
2.50002
2.49993
2.49994
2.49987
2.49959
2.49902
2.49814
2.49709
2.49606
2.49524
2.49473
2.49456
2.49473
2.49524
2.49606
2.4971
2.49815
2.49904
2.49965
2.49999
2.50013
2.49981
2.49983
2.49994
2.50025
2.50088
2.50187
2.5031
2.50437
2.50544
2.50614
2.50638
2.50614
2.50544
2.50437
2.5031
2.50187
2.50089
2.50027
2.49999
2.49993
2.49994
2.49985
2.49948
2.49866
2.49732
2.49557
2.49377
2.49229
2.49135
2.49091
2.49079
2.49091
2.49135
2.49229
2.49377
2.49558
2.49734
2.49872
2.49959
2.49998
2.4999
2.49988
2.49987
2.49992
2.50008
2.50041
2.50088
2.50141
2.5019
2.50225
2.50237
2.50225
2.5019
2.50141
2.50088
2.50041
2.5001
2.49995
2.49994
2.49996
2.49987
2.49948
2.49852
2.49679
2.49437
2.49176
2.48973
2.48885
2.48906
2.4897
2.49002
2.4897
2.48906
2.48885
2.48973
2.49177
2.49441
2.49686
2.4986
2.49946
2.49996
2.49994
2.49991
2.49989
2.4999
2.49997
2.5001
2.50026
2.50043
2.50056
2.5006
2.50056
2.50043
2.50026
2.5001
2.49998
2.49993
2.49994
2.49997
2.49992
2.49959
2.49866
2.49679
2.49392
2.49061
2.48816
2.48797
2.4905
2.49468
2.49846
2.49997
2.49846
2.49468
2.4905
2.48798
2.48818
2.49066
2.49398
2.49678
2.4983
2.49998
2.49998
2.49996
2.49994
2.49992
2.49991
2.49993
2.49996
2.5
2.50003
2.50004
2.50003
2.5
2.49996
2.49993
2.49993
2.49995
2.49999
2.49998
2.49976
2.49902
2.49732
2.49437
2.49061
2.48766
2.48808
2.49378
2.50428
2.51645
2.52604
2.52966
2.52604
2.51645
2.50428
2.49379
2.48812
2.48772
2.49063
2.49415
2.49635
2.5
2.49999
2.49998
2.49997
2.49996
2.49995
2.49994
2.49993
2.49994
2.49994
2.49994
2.49994
2.49994
2.49994
2.49995
2.49997
2.5
2.50001
2.49991
2.49943
2.49814
2.49557
2.49176
2.48816
2.48808
2.49547
2.51207
2.53531
2.5591
2.57662
2.58303
2.57662
2.5591
2.53532
2.51209
2.49551
2.48812
2.48808
2.49119
2.49371
2.5
2.5
2.5
2.49999
2.49998
2.49998
2.49997
2.49996
2.49996
2.49996
2.49996
2.49996
2.49996
2.49997
2.49998
2.5
2.50003
2.5
2.49977
2.49897
2.49709
2.49377
2.48973
2.48797
2.49378
2.51207
2.54338
2.58214
2.61903
2.64505
2.65437
2.64505
2.61903
2.58215
2.5434
2.51211
2.49379
2.48774
2.4887
2.49085
2.5
2.5
2.5
2.5
2.5
2.49999
2.49999
2.49999
2.49998
2.49998
2.49998
2.49998
2.49998
2.49999
2.5
2.50002
2.50003
2.49996
2.49958
2.49847
2.49606
2.49229
2.48885
2.4905
2.50428
2.53531
2.58214
2.63602
2.68487
2.71827
2.73005
2.71828
2.68488
2.63603
2.58217
2.53535
2.50424
2.49008
2.48731
2.48835
2.5
2.5
2.5
2.5
2.5
2.5
2.5
2.5
2.49999
2.49999
2.49999
2.49999
2.5
2.5
2.50001
2.50003
2.50003
2.4999
2.4994
2.49802
2.49524
2.49135
2.48906
2.49468
2.51645
2.5591
2.61903
2.68487
2.74264
2.78122
2.79464
2.78122
2.74265
2.68489
2.61906
2.55912
2.51636
2.49409
2.48708
2.48659
2.5
2.5
2.5
2.5
2.5
2.5
2.5
2.5
2.5
2.5
2.5
2.5
2.5
2.50001
2.50002
2.50003
2.50002
2.49986
2.49927
2.49771
2.49473
2.49091
2.4897
2.49846
2.52604
2.57662
2.64505
2.71827
2.78122
2.82258
2.83684
2.82259
2.78123
2.71829
2.64508
2.57664
2.52591
2.49774
2.48742
2.48564
2.5
2.5
2.5
2.5
2.5
2.5
2.5
2.5
2.5
2.5
2.5
2.5
2.5
2.50001
2.50002
2.50003
2.50002
2.49985
2.49922
2.4976
2.49456
2.49079
2.49002
2.49997
2.52966
2.58303
2.65437
2.73005
2.79464
2.83684
2.85132
2.83684
2.79464
2.73006
2.6544
2.58304
2.52952
2.49921
2.48764
2.48536
2.5
2.5
2.5
2.5
2.5
2.5
2.5
2.5
2.5
2.5
2.5
2.5
2.5
2.50001
2.50002
2.50003
2.50002
2.49986
2.49927
2.49771
2.49473
2.49091
2.4897
2.49846
2.52604
2.57662
2.64505
2.71828
2.78122
2.82259
2.83684
2.82259
2.78123
2.71829
2.64508
2.57664
2.52591
2.49774
2.48742
2.48564
2.5
2.5
2.5
2.5
2.5
2.5
2.5
2.5
2.5
2.5
2.5
2.5
2.5
2.50001
2.50002
2.50003
2.50003
2.4999
2.4994
2.49802
2.49524
2.49135
2.48906
2.49468
2.51645
2.5591
2.61903
2.68488
2.74265
2.78123
2.79464
2.78123
2.74265
2.68489
2.61906
2.55912
2.51636
2.49409
2.48708
2.48659
2.5
2.5
2.5
2.5
2.5
2.5
2.5
2.5
2.5
2.5
2.5
2.5
2.5
2.50001
2.50001
2.50003
2.50004
2.49996
2.49958
2.49847
2.49606
2.49229
2.48885
2.4905
2.50428
2.53532
2.58215
2.63603
2.68489
2.71829
2.73006
2.71829
2.68489
2.63604
2.58218
2.53536
2.50424
2.49009
2.48732
2.48835
2.5
2.5
2.5
2.5
2.5
2.5
2.5
2.5
2.5
2.5
2.5
2.5
2.5
2.5
2.50001
2.50003
2.50004
2.50001
2.49977
2.49898
2.4971
2.49377
2.48973
2.48798
2.49379
2.51209
2.5434
2.58217
2.61906
2.64508
2.6544
2.64508
2.61906
2.58218
2.54343
2.51213
2.4938
2.48775
2.4887
2.49086
2.5
2.5
2.5
2.5
2.5
2.5
2.5
2.5
2.5
2.5
2.5
2.5
2.5
2.5
2.50001
2.50002
2.50004
2.50004
2.49992
2.49944
2.49815
2.49558
2.49177
2.48818
2.48812
2.49551
2.51211
2.53535
2.55912
2.57664
2.58304
2.57664
2.55912
2.53536
2.51213
2.49555
2.48816
2.48811
2.49121
2.49373
2.5
2.5
2.5
2.5
2.5
2.5
2.5
2.5
2.5
2.5
2.5
2.5
2.5
2.5
2.50001
2.50002
2.50004
2.50005
2.50002
2.49979
2.49904
2.49734
2.49441
2.49066
2.48772
2.48812
2.49379
2.50424
2.51636
2.52591
2.52952
2.52591
2.51636
2.50424
2.4938
2.48816
2.48777
2.49068
2.49419
2.49638
2.5
2.5
2.5
2.5
2.5
2.5
2.5
2.5
2.5
2.5
2.5
2.5
2.5
2.5
2.5
2.50001
2.50003
2.50005
2.50007
2.49999
2.49965
2.49872
2.49686
2.49398
2.49063
2.48808
2.48774
2.49008
2.49409
2.49774
2.49921
2.49774
2.49409
2.49009
2.48775
2.48811
2.49068
2.49404
2.49685
2.49837
2.5
2.5
2.5
2.5
2.5
2.5
2.5
2.5
2.5
2.5
2.5
2.5
2.5
2.5
2.5
2.50001
2.50002
2.50004
2.50007
2.50009
2.49999
2.49959
2.4986
2.49678
2.49415
2.49119
2.4887
2.48731
2.48708
2.48742
2.48764
2.48742
2.48708
2.48732
2.4887
2.49121
2.49419
2.49685
2.49868
2.49958
2.5
2.5
2.5
2.5
2.5
2.5
2.5
2.5
2.5
2.5
2.5
2.5
2.5
2.5
2.5
2.5
2.50001
2.50003
2.50007
2.50012
2.50013
2.49998
2.49946
2.4983
2.49635
2.49371
2.49085
2.48835
2.48659
2.48564
2.48536
2.48564
2.48659
2.48835
2.49086
2.49373
2.49638
2.49837
2.49958
2.50011
