# vtk DataFile Version 3.0
Brusselator Concentration Output
ASCII
DATASET STRUCTURED_POINTS
DIMENSIONS 40 40 1
ORIGIN 0.0 0.0 0.0
SPACING 0.005 0.005 1.0
POINT_DATA 1600
SCALARS C1 double 1
LOOKUP_TABLE default
0.999972
0.99998
1.00002
1.00014
1.0004
1.0008
1.00131
1.0018
1.00218
1.0024
1.00247
1.0024
1.00218
1.0018
1.00131
1.0008
1.0004
1.00015
1.00002
0.999986
0.999983
0.999989
0.999995
0.999998
0.999999
1
1
1
1
1
1
1
1
1
1
1
1
1
1
1
0.99998
1.00002
1.00015
1.00042
1.00089
1.00152
1.00213
1.00253
1.00265
1.00261
1.00256
1.00261
1.00265
1.00253
1.00213
1.00152
1.00089
1.00042
1.00015
1.00003
0.999992
0.999989
0.999993
0.999997
0.999999
1
1
1
1
1
1
1
1
1
1
1
1
1
1
1
1.00002
1.00015
1.00046
1.00106
1.00189
1.00268
1.003
1.00252
1.00143
1.00034
0.999892
1.00034
1.00143
1.00252
1.003
1.00268
1.00189
1.00106
1.00047
1.00016
1.00003
0.999994
0.999991
0.999995
0.999998
0.999999
1
1
1
1
1
1
1
1
1
1
1
1
1
1
1.00014
1.00042
1.00106
1.00204
1.00304
1.00322
1.00164
0.998109
0.993659
0.990033
0.988652
0.990033
0.993659
0.998109
1.00164
1.00322
1.00304
1.00205
1.00106
1.00043
1.00013
1.00002
0.999993
0.999993
0.999996
0.999999
1
1
1
1
1
1
1
1
1
1
1
1
1
1
1.0004
1.00089
1.00189
1.00304
1.00325
1.00071
0.994066
0.98404
0.973529
0.965833
0.963051
0.965833
0.973529
0.98404
0.994066
1.00071
1.00326
1.00304
1.00189
1.00089
1.00032
1.00008
1.00001
0.999993
0.999995
0.999998
0.999999
1
1
1
1
1
1
1
1
1
1
1
1
1
1.0008
1.00152
1.00268
1.00322
1.00071
0.992215
0.976812
0.957545
0.939838
0.928037
0.923982
0.928037
0.939838
0.957545
0.976813
0.992217
1.00071
1.00322
1.00268
1.00148
1.00061
1.00019
1.00004
0.999998
0.999994
0.999997
0.999999
1
1
1
1
1
1
1
1
1
1
1
1
1
1.00131
1.00213
1.003
1.00164
0.994066
0.976812
0.950932
0.922852
0.900004
0.886253
0.881817
0.886253
0.900004
0.922852
0.950933
0.976814
0.99407
1.00165
1.00299
1.00204
1.00096
1.00034
1.00009
1.00001
0.999995
0.999996
0.999998
0.999999
1
1
1
1
1
1
1
1
1
1
1
1
1.0018
1.00253
1.00252
0.998109
0.98404
0.957545
0.922852
0.889581
0.865753
0.853251
0.849626
0.853251
0.865753
0.889581
0.922853
0.957546
0.984044
0.99811
1.0025
1.00238
1.00129
1.00051
1.00015
1.00003
0.999998
0.999996
0.999998
0.999999
1
1
1
1
1
1
1
1
1
1
1
1
1.00218
1.00265
1.00143
0.993659
0.973529
0.939838
0.900004
0.865753
0.844572
0.835746
0.833799
0.835746
0.844572
0.865753
0.900004
0.93984
0.973532
0.993657
1.00139
1.00245
1.00153
1.00065
1.00021
1.00004
1
0.999996
0.999998
0.999999
1
1
1
1
1
1
1
1
1
1
1
1
1.0024
1.00261
1.00034
0.990033
0.965833
0.928037
0.886253
0.853251
0.835746
0.830888
0.83066
0.830888
0.835747
0.853251
0.886253
0.928039
0.965836
0.990028
1.00028
1.00236
1.00165
1.00075
1.00025
1.00006
1
0.999997
0.999998
0.999999
1
1
1
1
1
1
1
1
1
1
1
1
1.00247
1.00256
0.999892
0.988652
0.963051
0.923982
0.881817
0.849626
0.833799
0.83066
0.831169
0.83066
0.833799
0.849626
0.881817
0.923985
0.963054
0.988646
0.999829
1.0023
1.00169
1.00078
1.00026
1.00006
1.00001
0.999997
0.999998
0.999999
1
1
1
1
1
1
1
1
1
1
1
1
1.0024
1.00261
1.00034
0.990033
0.965833
0.928037
0.886253
0.853251
0.835746
0.830888
0.83066
0.830888
0.835747
0.853251
0.886253
0.928039
0.965836
0.990028
1.00028
1.00236
1.00165
1.00075
1.00025
1.00006
1
0.999997
0.999998
0.999999
1
1
1
1
1
1
1
1
1
1
1
1
1.00218
1.00265
1.00143
0.993659
0.973529
0.939838
0.900004
0.865753
0.844572
0.835747
0.833799
0.835747
0.844572
0.865753
0.900004
0.93984
0.973532
0.993657
1.00139
1.00245
1.00153
1.00065
1.00021
1.00004
1
0.999996
0.999998
0.999999
1
1
1
1
1
1
1
1
1
1
1
1
1.0018
1.00253
1.00252
0.998109
0.98404
0.957545
0.922852
0.889581
0.865753
0.853251
0.849626
0.853251
0.865753
0.889581
0.922853
0.957547
0.984044
0.99811
1.0025
1.00238
1.00129
1.00051
1.00015
1.00003
0.999998
0.999996
0.999998
1
1
1
1
1
1
1
1
1
1
1
1
1
1.00131
1.00213
1.003
1.00164
0.994066
0.976813
0.950933
0.922853
0.900004
0.886253
0.881817
0.886253
0.900004
0.922853
0.950933
0.976814
0.99407
1.00165
1.00299
1.00204
1.00096
1.00034
1.00009
1.00001
0.999996
0.999997
0.999999
1
1
1
1
1
1
1
1
1
1
1
1
1
1.0008
1.00152
1.00268
1.00322
1.00071
0.992217
0.976814
0.957546
0.93984
0.928039
0.923985
0.928039
0.93984
0.957547
0.976814
0.992218
1.00072
1.00322
1.00268
1.00148
1.00061
1.00019
1.00004
0.999999
0.999995
0.999998
1
1
1
1
1
1
1
1
1
1
1
1
1
1
1.0004
1.00089
1.00189
1.00304
1.00326
1.00071
0.99407
0.984044
0.973532
0.965836
0.963054
0.965836
0.973532
0.984044
0.99407
1.00072
1.00326
1.00305
1.00189
1.00089
1.00032
1.00008
1.00001
0.999995
0.999997
1
1
1
1
1
1
1
1
1
1
1
1
1
1
1
1.00015
1.00042
1.00106
1.00205
1.00304
1.00322
1.00165
0.99811
0.993657
0.990028
0.988646
0.990028
0.993657
0.99811
1.00165
1.00322
1.00305
1.00205
1.00107
1.00043
1.00013
1.00002
0.999995
0.999996
1
1
0.999999
0.999994
0.999989
0.999984
0.999982
0.999984
0.999989
0.999995
1
1
1
1
1
1
1.00002
1.00015
1.00047
1.00106
1.00189
1.00268
1.00299
1.0025
1.00139
1.00028
0.999829
1.00028
1.00139
1.0025
1.00299
1.00268
1.00189
1.00107
1.00048
1.00016
1.00003
0.999997
0.999995
0.999999
0.999999
0.999992
0.999976
0.999955
0.999934
0.999918
0.999912
0.999918
0.999934
0.999955
0.999976
0.999992
1
1
1
1
0.999986
1.00003
1.00016
1.00043
1.00089
1.00148
1.00204
1.00238
1.00245
1.00236
1.0023
1.00236
1.00245
1.00238
1.00204
1.00148
1.00089
1.00043
1.00016
1.00004
0.999998
0.999995
0.999998
0.999996
0.999979
0.999943
0.999888
0.999824
0.999765
0.999724
0.99971
0.999724
0.999765
0.999824
0.999888
0.999943
0.99998
0.999999
1.00001
1.00001
0.999983
0.999992
1.00003
1.00013
1.00032
1.00061
1.00096
1.00129
1.00153
1.00165
1.00169
1.00165
1.00153
1.00129
1.00096
1.00061
1.00032
1.00013
1.00003
0.999998
0.999995
0.999997
0.999992
0.999964
0.999899
0.99979
0.999649
0.999504
0.999388
0.999318
0.999295
0.999318
0.999388
0.999504
0.999649
0.99979
0.9999
0.999967
0.999998
1.00001
0.999989
0.999989
0.999994
1.00002
1.00008
1.00019
1.00034
1.00051
1.00065
1.00075
1.00078
1.00075
1.00065
1.00051
1.00034
1.00019
1.00008
1.00002
0.999997
0.999995
0.999997
0.999991
0.999954
0.99986
0.999688
0.999442
0.999173
0.998955
0.998833
0.998793
0.998788
0.998793
0.998833
0.998955
0.999173
0.999442
0.999689
0.999863
0.99996
0.999999
0.999995
0.999993
0.999991
0.999993
1.00001
1.00004
1.00009
1.00015
1.00021
1.00025
1.00026
1.00025
1.00021
1.00015
1.00009
1.00004
1.00001
0.999995
0.999995
0.999998
0.999992
0.999954
0.999845
0.999621
0.999271
0.998864
0.998552
0.998481
0.998655
0.998906
0.99902
0.998906
0.998655
0.998481
0.998553
0.998864
0.999273
0.999625
0.99985
0.999951
0.999998
0.999997
0.999995
0.999993
0.999993
0.999998
1.00001
1.00003
1.00004
1.00006
1.00006
1.00006
1.00004
1.00003
1.00001
0.999999
0.999995
0.999996
0.999999
0.999996
0.999964
0.99986
0.999621
0.999204
0.998678
0.998291
0.998404
0.999222
1.00052
1.00172
1.0022
1.00172
1.00053
0.999222
0.998405
0.998292
0.998681
0.999209
0.99962
0.999826
0.999999
0.999999
0.999998
0.999996
0.999995
0.999994
0.999995
0.999998
1
1
1.00001
1
1
0.999998
0.999996
0.999995
0.999997
1
0.999999
0.999979
0.999899
0.999688
0.999271
0.998678
0.998205
0.998478
1.00018
1.00344
1.00743
1.01068
1.01192
1.01068
1.00743
1.00344
1.00018
0.99848
0.998208
0.998679
0.999251
0.999587
1
1
0.999999
0.999999
0.999998
0.999997
0.999996
0.999996
0.999996
0.999997
0.999997
0.999997
0.999996
0.999996
0.999997
0.999998
1
1
0.999992
0.999943
0.99979
0.999442
0.998864
0.998291
0.998478
1.00066
1.00586
1.0138
1.02242
1.0289
1.03126
1.0289
1.02242
1.0138
1.00586
1.00066
0.998481
0.998283
0.998807
0.999232
1
1
1
1
0.999999
0.999999
0.999998
0.999998
0.999998
0.999998
0.999998
0.999998
0.999998
0.999998
0.999999
1
1
0.999999
0.999976
0.999888
0.999649
0.999173
0.998552
0.998404
1.00018
1.00586
1.01664
1.03116
1.04533
1.05495
1.05822
1.05495
1.04533
1.03117
1.01664
1.00586
1.00018
0.998381
0.99844
0.998822
1
1
1
1
1
1
0.999999
0.999999
0.999999
0.999999
0.999999
0.999999
0.999999
1
1
1
1
0.999994
0.999955
0.999824
0.999504
0.998955
0.998481
0.999222
1.00344
1.0138
1.03116
1.05208
1.06979
1.07984
1.08277
1.07984
1.06979
1.05208
1.03117
1.0138
1.00343
0.999177
0.998305
0.998459
1
1
1
1
1
1
1
1
1
1
1
1
1
1
1
1
1
0.999989
0.999934
0.999765
0.999388
0.998833
0.998655
1.00052
1.00743
1.02242
1.04533
1.06979
1.0866
1.09301
1.09401
1.09301
1.0866
1.0698
1.04533
1.02242
1.00742
1.00046
0.99842
0.998222
1
1
1
1
1
1
1
1
1
1
1
1
1
1
1
1
1
0.999984
0.999918
0.999724
0.999318
0.998793
0.998906
1.00172
1.01068
1.0289
1.05495
1.07984
1.09301
1.0944
1.09317
1.0944
1.09301
1.07984
1.05495
1.0289
1.01067
1.00164
0.99863
0.998111
1
1
1
1
1
1
1
1
1
1
1
1
1
1
1
1
1
0.999982
0.999912
0.99971
0.999295
0.998788
0.99902
1.0022
1.01192
1.03126
1.05822
1.08277
1.09401
1.09317
1.091
1.09317
1.09401
1.08277
1.05823
1.03126
1.01191
1.00211
0.998731
0.998083
1
1
1
1
1
1
1
1
1
1
1
1
1
1
1
1
1
0.999984
0.999918
0.999724
0.999318
0.998793
0.998906
1.00172
1.01068
1.0289
1.05495
1.07984
1.09301
1.0944
1.09317
1.0944
1.09301
1.07984
1.05495
1.0289
1.01067
1.00164
0.99863
0.998111
1
1
1
1
1
1
1
1
1
1
1
1
1
1
1
1
1
0.999989
0.999934
0.999765
0.999388
0.998833
0.998655
1.00053
1.00743
1.02242
1.04533
1.06979
1.0866
1.09301
1.09401
1.09301
1.0866
1.0698
1.04533
1.02242
1.00742
1.00046
0.99842
0.998222
1
1
1
1
1
1
1
1
1
1
1
1
1
1
1
1
1
0.999995
0.999955
0.999824
0.999504
0.998955
0.998481
0.999222
1.00344
1.0138
1.03117
1.05208
1.0698
1.07984
1.08277
1.07984
1.0698
1.05208
1.03117
1.0138
1.00343
0.999177
0.998305
0.998459
1
1
1
1
1
1
1
1
1
1
1
1
1
1
1
1
1
1
0.999976
0.999888
0.999649
0.999173
0.998553
0.998405
1.00018
1.00586
1.01664
1.03117
1.04533
1.05495
1.05823
1.05495
1.04533
1.03117
1.01664
1.00586
1.00018
0.998381
0.998441
0.998822
1
1
1
1
1
1
1
1
1
1
1
1
1
1
1
1
1
1
0.999992
0.999943
0.99979
0.999442
0.998864
0.998292
0.99848
1.00066
1.00586
1.0138
1.02242
1.0289
1.03126
1.0289
1.02242
1.0138
1.00586
1.00066
0.998483
0.998285
0.998807
0.999233
1
1
1
1
1
1
1
1
1
1
1
1
1
1
1
1
1
1
1
0.99998
0.9999
0.999689
0.999273
0.998681
0.998208
0.998481
1.00018
1.00343
1.00742
1.01067
1.01191
1.01067
1.00742
1.00343
1.00018
0.998483
0.998212
0.998682
0.999253
0.999589
1
1
1
1
1
1
1
1
1
1
1
1
1
1
1
1
1
1
1
0.999999
0.999967
0.999863
0.999625
0.999209
0.998679
0.998283
0.998381
0.999177
1.00046
1.00164
1.00211
1.00164
1.00046
0.999177
0.998381
0.998285
0.998682
0.999213
0.999624
0.99983
1
1
1
1
1
1
1
1
1
1
1
1
1
1
1
1
1
1
1
1.00001
0.999998
0.99996
0.99985
0.99962
0.999251
0.998807
0.99844
0.998305
0.99842
0.99863
0.998731
0.99863
0.99842
0.998305
0.998441
0.998807
0.999253
0.999624
0.999856
0.999958
1
1
1
1
1
1
1
1
1
1
1
1
1
1
1
1
1
1
1
1.00001
1.00001
0.999999
0.999951
0.999826
0.999587
0.999232
0.998822
0.998459
0.998222
0.998111
0.998083
0.998111
0.998222
0.998459
0.998822
0.999233
0.999589
0.99983
0.999958
1.00001
SCALARS C2 double 1
LOOKUP_TABLE default
2.50005
2.50006
2.50007
2.50001
2.49981
2.49937
2.4987
2.49789
2.49713
2.49661
2.49642
2.49661
2.49713
2.49789
2.4987
2.49937
2.49981
2.50001
2.50007
2.50006
2.50003
2.50002
2.50001
2.5
2.5
2.5
2.5
2.5
2.5
2.5
2.5
2.5
2.5
2.5
2.5
2.5
2.5
2.5
2.5
2.5
2.50006
2.50005
2.49998
2.49973
2.49917
2.49822
2.49696
2.49566
2.49463
2.49403
2.49383
2.49403
2.49463
2.49566
2.49696
2.49822
2.49917
2.49973
2.49998
2.50004
2.50004
2.50002
2.50001
2.5
2.5
2.5
2.5
2.5
2.5
2.5
2.5
2.5
2.5
2.5
2.5
2.5
2.5
2.5
2.5
2.5
2.50007
2.49998
2.49968
2.49894
2.49757
2.49558
2.49343
2.49177
2.49099
2.49089
2.49094
2.49089
2.49099
2.49177
2.49343
2.49558
2.49757
2.49894
2.49967
2.49996
2.50004
2.50003
2.50002
2.50001
2.5
2.5
2.5
2.5
2.5
2.5
2.5
2.5
2.5
2.5
2.5
2.5
2.5
2.5
2.5
2.5
2.50001
2.49973
2.49894
2.4973
2.49466
2.4916
2.48941
2.48935
2.49138
2.49392
2.49504
2.49392
2.49138
2.48935
2.48941
2.4916
2.49466
2.49729
2.49893
2.49971
2.49998
2.50003
2.50003
2.50001
2.5
2.5
2.5
2.5
2.5
2.5
2.5
2.5
2.5
2.5
2.5
2.5
2.5
2.5
2.5
2.5
2.49981
2.49917
2.49757
2.49466
2.49091
2.48822
2.48949
2.49627
2.50662
2.51584
2.51949
2.51584
2.50662
2.49627
2.48949
2.48822
2.4909
2.49466
2.49755
2.49914
2.4998
2.5
2.50003
2.50002
2.50001
2.5
2.5
2.5
2.5
2.5
2.5
2.5
2.5
2.5
2.5
2.5
2.5
2.5
2.5
2.5
2.49937
2.49822
2.49558
2.4916
2.48822
2.48988
2.50133
2.52296
2.54872
2.5692
2.57691
2.5692
2.54872
2.52296
2.50132
2.48988
2.48821
2.49159
2.49556
2.4982
2.49946
2.49991
2.50002
2.50002
2.50001
2.5
2.5
2.5
2.5
2.5
2.5
2.5
2.5
2.5
2.5
2.5
2.5
2.5
2.5
2.5
2.4987
2.49696
2.49343
2.48941
2.48949
2.50133
2.53054
2.57422
2.62047
2.65488
2.66744
2.65488
2.62047
2.57422
2.53054
2.50132
2.48948
2.48939
2.49341
2.49698
2.49895
2.49975
2.49998
2.50002
2.50001
2.50001
2.5
2.5
2.5
2.5
2.5
2.5
2.5
2.5
2.5
2.5
2.5
2.5
2.5
2.5
2.49789
2.49566
2.49177
2.48935
2.49627
2.52296
2.57422
2.64231
2.70943
2.75717
2.77419
2.75717
2.70943
2.64231
2.57422
2.52296
2.49626
2.48933
2.49176
2.49574
2.49835
2.49954
2.49993
2.50001
2.50002
2.50001
2.5
2.5
2.5
2.5
2.5
2.5
2.5
2.5
2.5
2.5
2.5
2.5
2.5
2.5
2.49713
2.49463
2.49099
2.49138
2.50662
2.54872
2.62047
2.70943
2.79319
2.85081
2.87094
2.85081
2.79319
2.70943
2.62047
2.54872
2.50661
2.49137
2.49099
2.49477
2.49781
2.49932
2.49986
2.5
2.50002
2.50001
2.5
2.5
2.5
2.5
2.5
2.5
2.5
2.5
2.5
2.5
2.5
2.5
2.5
2.5
2.49661
2.49403
2.49089
2.49392
2.51584
2.5692
2.65488
2.75717
2.85081
2.9137
2.9353
2.9137
2.85081
2.75717
2.65488
2.5692
2.51583
2.49391
2.4909
2.49422
2.49744
2.49916
2.49981
2.49999
2.50001
2.50001
2.5
2.5
2.5
2.5
2.5
2.5
2.5
2.5
2.5
2.5
2.5
2.5
2.5
2.5
2.49642
2.49383
2.49094
2.49504
2.51949
2.57691
2.66744
2.77419
2.87094
2.9353
2.95725
2.9353
2.87094
2.77419
2.66743
2.57691
2.51948
2.49503
2.49096
2.49404
2.49732
2.49911
2.49979
2.49998
2.50001
2.50001
2.5
2.5
2.5
2.5
2.5
2.5
2.5
2.5
2.5
2.5
2.5
2.5
2.5
2.5
2.49661
2.49403
2.49089
2.49392
2.51584
2.5692
2.65488
2.75717
2.85081
2.9137
2.9353
2.9137
2.85081
2.75717
2.65488
2.5692
2.51583
2.49391
2.4909
2.49422
2.49744
2.49916
2.49981
2.49999
2.50001
2.50001
2.5
2.5
2.5
2.5
2.5
2.5
2.5
2.5
2.5
2.5
2.5
2.5
2.5
2.5
2.49713
2.49463
2.49099
2.49138
2.50662
2.54872
2.62047
2.70943
2.79319
2.85081
2.87094
2.85081
2.79319
2.70943
2.62047
2.54872
2.50661
2.49137
2.49099
2.49477
2.49781
2.49932
2.49986
2.5
2.50002
2.50001
2.5
2.5
2.5
2.5
2.5
2.5
2.5
2.5
2.5
2.5
2.5
2.5
2.5
2.5
2.49789
2.49566
2.49177
2.48935
2.49627
2.52296
2.57422
2.64231
2.70943
2.75717
2.77419
2.75717
2.70943
2.64231
2.57422
2.52296
2.49626
2.48933
2.49176
2.49574
2.49835
2.49954
2.49993
2.50001
2.50002
2.50001
2.5
2.5
2.5
2.5
2.5
2.5
2.5
2.5
2.5
2.5
2.5
2.5
2.5
2.5
2.4987
2.49696
2.49343
2.48941
2.48949
2.50132
2.53054
2.57422
2.62047
2.65488
2.66743
2.65488
2.62047
2.57422
2.53054
2.50132
2.48948
2.48939
2.49341
2.49698
2.49895
2.49975
2.49998
2.50002
2.50001
2.50001
2.5
2.5
2.5
2.5
2.5
2.5
2.5
2.5
2.5
2.5
2.5
2.5
2.5
2.5
2.49937
2.49822
2.49558
2.4916
2.48822
2.48988
2.50132
2.52296
2.54872
2.5692
2.57691
2.5692
2.54872
2.52296
2.50132
2.48988
2.48821
2.49159
2.49556
2.4982
2.49946
2.49991
2.50002
2.50002
2.50001
2.5
2.5
2.5
2.5
2.5
2.5
2.5
2.5
2.5
2.5
2.5
2.5
2.5
2.5
2.5
2.49981
2.49917
2.49757
2.49466
2.4909
2.48821
2.48948
2.49626
2.50661
2.51583
2.51948
2.51583
2.50661
2.49626
2.48948
2.48821
2.4909
2.49465
2.49755
2.49914
2.4998
2.5
2.50003
2.50002
2.50001
2.5
2.49999
2.49999
2.49999
2.49999
2.49999
2.49999
2.49999
2.49999
2.49999
2.5
2.5
2.5
2.5
2.5
2.50001
2.49973
2.49894
2.49729
2.49466
2.49159
2.48939
2.48933
2.49137
2.49391
2.49503
2.49391
2.49137
2.48933
2.48939
2.49159
2.49465
2.49729
2.49893
2.49971
2.49998
2.50003
2.50002
2.50001
2.5
2.49999
2.49999
2.49999
2.49999
2.5
2.5
2.5
2.49999
2.49999
2.49999
2.49999
2.49999
2.5
2.5
2.5
2.50007
2.49998
2.49967
2.49893
2.49755
2.49556
2.49341
2.49176
2.49099
2.4909
2.49096
2.4909
2.49099
2.49176
2.49341
2.49556
2.49755
2.49893
2.49966
2.49996
2.50003
2.50003
2.50001
2.5
2.49999
2.49999
2.5
2.50001
2.50003
2.50005
2.50005
2.50005
2.50003
2.50001
2.5
2.49999
2.49999
2.49999
2.49999
2.5
2.50006
2.50004
2.49996
2.49971
2.49914
2.4982
2.49698
2.49574
2.49477
2.49422
2.49404
2.49422
2.49477
2.49574
2.49698
2.4982
2.49914
2.49971
2.49996
2.50003
2.50003
2.50001
2.5
2.49999
2.49999
2.50001
2.50006
2.50014
2.50021
2.50027
2.50029
2.50027
2.50021
2.50014
2.50006
2.50001
2.49999
2.49998
2.49998
2.49999
2.50003
2.50004
2.50004
2.49998
2.4998
2.49946
2.49895
2.49835
2.49781
2.49744
2.49732
2.49744
2.49781
2.49835
2.49895
2.49946
2.4998
2.49998
2.50003
2.50003
2.50001
2.5
2.49998
2.49999
2.50004
2.50015
2.50033
2.50056
2.50078
2.50093
2.50098
2.50093
2.50078
2.50056
2.50033
2.50015
2.50004
2.49999
2.49998
2.49998
2.50002
2.50002
2.50003
2.50003
2.5
2.49991
2.49975
2.49954
2.49932
2.49916
2.49911
2.49916
2.49932
2.49954
2.49975
2.49991
2.5
2.50003
2.50003
2.50001
2.5
2.49998
2.5
2.50007
2.50026
2.5006
2.50108
2.5016
2.50206
2.50235
2.50244
2.50235
2.50206
2.5016
2.50108
2.5006
2.50026
2.50007
2.49999
2.49996
2.50001
2.50001
2.50002
2.50003
2.50003
2.50002
2.49998
2.49993
2.49986
2.49981
2.49979
2.49981
2.49986
2.49993
2.49998
2.50002
2.50003
2.50002
2.50001
2.5
2.49998
2.5
2.50008
2.50033
2.50083
2.50163
2.5026
2.5035
2.50412
2.50441
2.50449
2.50441
2.50412
2.5035
2.5026
2.50163
2.50083
2.50032
2.50007
2.49998
2.5
2.5
2.50001
2.50001
2.50002
2.50002
2.50002
2.50001
2.5
2.49999
2.49998
2.49999
2.5
2.50001
2.50002
2.50002
2.50002
2.50001
2.5
2.49999
2.49999
2.50007
2.50033
2.50093
2.50199
2.50342
2.50482
2.50567
2.50572
2.50534
2.50511
2.50534
2.50572
2.50567
2.50482
2.50342
2.50198
2.50092
2.50031
2.50006
2.5
2.5
2.5
2.5
2.50001
2.50001
2.50001
2.50002
2.50002
2.50001
2.50001
2.50001
2.50002
2.50002
2.50001
2.50001
2.50001
2.5
2.49999
2.49999
2.50004
2.50026
2.50083
2.50199
2.50374
2.5056
2.50653
2.50561
2.50295
2.50007
2.49884
2.50007
2.50295
2.50561
2.50653
2.50559
2.50373
2.50198
2.50082
2.5003
2.5
2.5
2.5
2.5
2.5
2.5
2.50001
2.50001
2.50001
2.50001
2.50001
2.50001
2.50001
2.50001
2.50001
2.5
2.5
2.49999
2.49999
2.50001
2.50015
2.5006
2.50163
2.50342
2.5056
2.50677
2.50484
2.49844
2.48894
2.48037
2.47695
2.48037
2.48894
2.49844
2.50483
2.50677
2.50559
2.50341
2.50164
2.50075
2.5
2.5
2.5
2.5
2.5
2.5
2.5
2.5
2.5
2.5
2.5
2.5
2.5
2.5
2.5
2.5
2.49999
2.49999
2.5
2.50006
2.50033
2.50108
2.5026
2.50482
2.50653
2.50484
2.49609
2.47894
2.4574
2.43972
2.43299
2.43972
2.4574
2.47893
2.49609
2.50483
2.50652
2.50482
2.50266
2.50141
2.5
2.5
2.5
2.5
2.5
2.5
2.5
2.5
2.5
2.5
2.5
2.5
2.5
2.5
2.5
2.5
2.49999
2.49999
2.50001
2.50014
2.50056
2.5016
2.5035
2.50567
2.50561
2.49844
2.47894
2.44673
2.41042
2.38307
2.37323
2.38307
2.41042
2.44673
2.47893
2.49844
2.5056
2.50568
2.50364
2.50216
2.5
2.5
2.5
2.5
2.5
2.5
2.5
2.5
2.5
2.5
2.5
2.5
2.5
2.5
2.5
2.5
2.49999
2.49999
2.50003
2.50021
2.50078
2.50206
2.50412
2.50572
2.50295
2.48894
2.4574
2.41042
2.36228
2.32937
2.31831
2.32937
2.36228
2.41042
2.4574
2.48893
2.50294
2.50575
2.50433
2.50283
2.5
2.5
2.5
2.5
2.5
2.5
2.5
2.5
2.5
2.5
2.5
2.5
2.5
2.5
2.5
2.5
2.49999
2.5
2.50005
2.50027
2.50093
2.50235
2.50441
2.50534
2.50007
2.48037
2.43972
2.38307
2.32937
2.29581
2.28528
2.29581
2.32937
2.38307
2.43971
2.48036
2.50007
2.50538
2.50468
2.50327
2.5
2.5
2.5
2.5
2.5
2.5
2.5
2.5
2.5
2.5
2.5
2.5
2.5
2.5
2.5
2.5
2.49999
2.5
2.50005
2.50029
2.50098
2.50244
2.50449
2.50511
2.49884
2.47695
2.43299
2.37323
2.31831
2.28528
2.27526
2.28528
2.31831
2.37323
2.43299
2.47695
2.49884
2.50517
2.50478
2.50342
2.5
2.5
2.5
2.5
2.5
2.5
2.5
2.5
2.5
2.5
2.5
2.5
2.5
2.5
2.5
2.5
2.49999
2.5
2.50005
2.50027
2.50093
2.50235
2.50441
2.50534
2.50007
2.48037
2.43972
2.38307
2.32937
2.29581
2.28528
2.29581
2.32937
2.38307
2.43971
2.48036
2.50007
2.50538
2.50468
2.50327
2.5
2.5
2.5
2.5
2.5
2.5
2.5
2.5
2.5
2.5
2.5
2.5
2.5
2.5
2.5
2.5
2.49999
2.49999
2.50003
2.50021
2.50078
2.50206
2.50412
2.50572
2.50295
2.48894
2.4574
2.41042
2.36228
2.32937
2.31831
2.32937
2.36228
2.41042
2.4574
2.48893
2.50294
2.50575
2.50433
2.50283
2.5
2.5
2.5
2.5
2.5
2.5
2.5
2.5
2.5
2.5
2.5
2.5
2.5
2.5
2.5
2.5
2.49999
2.49999
2.50001
2.50014
2.50056
2.5016
2.5035
2.50567
2.50561
2.49844
2.47893
2.44673
2.41042
2.38307
2.37323
2.38307
2.41042
2.44673
2.47893
2.49844
2.5056
2.50568
2.50364
2.50216
2.5
2.5
2.5
2.5
2.5
2.5
2.5
2.5
2.5
2.5
2.5
2.5
2.5
2.5
2.5
2.5
2.49999
2.49999
2.5
2.50006
2.50033
2.50108
2.5026
2.50482
2.50653
2.50483
2.49609
2.47893
2.4574
2.43971
2.43299
2.43971
2.4574
2.47893
2.49608
2.50483
2.50652
2.50482
2.50266
2.50141
2.5
2.5
2.5
2.5
2.5
2.5
2.5
2.5
2.5
2.5
2.5
2.5
2.5
2.5
2.5
2.5
2.5
2.49999
2.49999
2.50001
2.50015
2.5006
2.50163
2.50342
2.50559
2.50677
2.50483
2.49844
2.48893
2.48036
2.47695
2.48036
2.48893
2.49844
2.50483
2.50677
2.50558
2.50341
2.50164
2.50075
2.5
2.5
2.5
2.5
2.5
2.5
2.5
2.5
2.5
2.5
2.5
2.5
2.5
2.5
2.5
2.5
2.5
2.49999
2.49999
2.49999
2.50004
2.50026
2.50083
2.50198
2.50373
2.50559
2.50652
2.5056
2.50294
2.50007
2.49884
2.50007
2.50294
2.5056
2.50652
2.50558
2.50373
2.50197
2.50082
2.5003
2.5
2.5
2.5
2.5
2.5
2.5
2.5
2.5
2.5
2.5
2.5
2.5
2.5
2.5
2.5
2.5
2.5
2.5
2.49999
2.49998
2.49999
2.50007
2.50032
2.50092
2.50198
2.50341
2.50482
2.50568
2.50575
2.50538
2.50517
2.50538
2.50575
2.50568
2.50482
2.50341
2.50197
2.50091
2.5003
2.50006
2.5
2.5
2.5
2.5
2.5
2.5
2.5
2.5
2.5
2.5
2.5
2.5
2.5
2.5
2.5
2.5
2.5
2.5
2.49999
2.49998
2.49998
2.49999
2.50007
2.50031
2.50082
2.50164
2.50266
2.50364
2.50433
2.50468
2.50478
2.50468
2.50433
2.50364
2.50266
2.50164
2.50082
2.5003
2.50005
2.49996
2.5
2.5
2.5
2.5
2.5
2.5
2.5
2.5
2.5
2.5
2.5
2.5
2.5
2.5
2.5
2.5
2.5
2.5
2.5
2.49999
2.49998
2.49996
2.49998
2.50006
2.5003
2.50075
2.50141
2.50216
2.50283
2.50327
2.50342
2.50327
2.50283
2.50216
2.50141
2.50075
2.5003
2.50006
2.49996
2.49994
