# vtk DataFile Version 3.0
Brusselator Concentration Output
ASCII
DATASET STRUCTURED_POINTS
DIMENSIONS 40 40 1
ORIGIN 0.0 0.0 0.0
SPACING 0.005 0.005 1.0
POINT_DATA 1600
SCALARS C1 double 1
LOOKUP_TABLE default
0.999998
0.999993
0.999977
0.999944
0.999889
0.999821
0.999766
0.999751
0.999781
0.999828
0.99985
0.999828
0.999781
0.999751
0.999766
0.999821
0.999889
0.999943
0.999977
0.999992
0.999998
1
1
1
1
1
1
1
1
1
1
1
1
1
1
1
1
1
1
1
0.999993
0.99998
0.999948
0.999893
0.999824
0.999781
0.999829
1.00001
1.00028
1.00052
1.00062
1.00052
1.00028
1.00001
0.999829
0.999781
0.999823
0.999893
0.999948
0.99998
0.999994
0.999999
1
1
1
1
1
1
1
1
1
1
1
1
1
1
1
1
1
1
0.999977
0.999948
0.999888
0.999806
0.99977
0.999916
1.0004
1.00126
1.00227
1.00308
1.00338
1.00308
1.00227
1.00126
1.0004
0.999916
0.99977
0.999806
0.999888
0.999949
0.999982
0.999995
0.999999
1
1
1
1
1
1
1
1
1
1
1
1
1
1
1
1
1
0.999944
0.999893
0.999806
0.999764
0.999984
1.00082
1.00256
1.00507
1.00766
1.00952
1.01018
1.00952
1.00766
1.00507
1.00256
1.00082
0.999984
0.999764
0.999807
0.999896
0.999957
0.999986
0.999997
0.999999
1
1
1
1
1
1
1
1
1
1
1
1
1
1
1
1
0.999889
0.999824
0.99977
0.999984
1.001
1.00353
1.00787
1.01323
1.01792
1.02069
1.02153
1.02069
1.01792
1.01323
1.00787
1.00353
1.001
0.999984
0.999772
0.999832
0.999919
0.99997
0.999991
0.999998
1
1
1
1
1
1
1
1
1
1
1
1
1
1
1
1
0.999821
0.999781
0.999916
1.00082
1.00353
1.00907
1.01714
1.02513
1.02976
1.03064
1.03042
1.03064
1.02976
1.02513
1.01714
1.00907
1.00353
1.00082
0.999921
0.999798
0.999875
0.999947
0.999982
0.999995
0.999999
1
1
1
1
1
1
1
1
1
1
1
1
1
1
1
0.999766
0.999829
1.0004
1.00256
1.00787
1.01714
1.02792
1.03395
1.03094
1.02319
1.01933
1.02319
1.03094
1.03395
1.02792
1.01714
1.00787
1.00256
1.00041
0.999858
0.999845
0.999921
0.999971
0.999992
0.999998
1
1
1
1
1
1
1
1
1
1
1
1
1
1
1
0.999751
1.00001
1.00126
1.00507
1.01323
1.02513
1.03395
1.02889
1.00822
0.985471
0.97607
0.985471
1.00822
1.02889
1.03395
1.02513
1.01323
1.00507
1.00127
1.00005
0.99985
0.999901
0.999959
0.999987
0.999997
0.999999
1
1
1
1
1
1
1
1
1
1
1
1
1
1
0.999781
1.00028
1.00227
1.00766
1.01792
1.02976
1.03094
1.00822
0.966844
0.929759
0.915639
0.929759
0.966844
1.00822
1.03094
1.02976
1.01792
1.00767
1.00229
1.00033
0.99989
0.999891
0.999949
0.999983
0.999996
0.999999
1
1
1
1
1
1
1
1
1
1
1
1
1
1
0.999828
1.00052
1.00308
1.00952
1.02069
1.03064
1.02319
0.985471
0.929759
0.884321
0.867754
0.884321
0.929759
0.985471
1.02319
1.03064
1.02069
1.00953
1.0031
1.00058
0.999938
0.99989
0.999944
0.99998
0.999995
0.999999
1
1
1
1
1
1
1
1
1
1
1
1
1
1
0.99985
1.00062
1.00338
1.01018
1.02153
1.03042
1.01933
0.97607
0.915639
0.867754
0.850538
0.867754
0.915639
0.97607
1.01933
1.03042
1.02153
1.01019
1.0034
1.00068
0.999959
0.999891
0.999942
0.999979
0.999994
0.999999
1
1
1
1
1
1
1
1
1
1
1
1
1
1
0.999828
1.00052
1.00308
1.00952
1.02069
1.03064
1.02319
0.985471
0.929759
0.884321
0.867754
0.884321
0.929759
0.985471
1.02319
1.03064
1.02069
1.00953
1.0031
1.00058
0.999938
0.99989
0.999944
0.99998
0.999995
0.999999
1
1
1
1
1
1
1
1
1
1
1
1
1
1
0.999781
1.00028
1.00227
1.00766
1.01792
1.02976
1.03094
1.00822
0.966844
0.929759
0.915639
0.929759
0.966844
1.00822
1.03094
1.02976
1.01792
1.00767
1.00229
1.00033
0.99989
0.999891
0.999949
0.999983
0.999996
0.999999
1
1
1
1
1
1
1
1
1
1
1
1
1
1
0.999751
1.00001
1.00126
1.00507
1.01323
1.02513
1.03395
1.02889
1.00822
0.985471
0.97607
0.985471
1.00822
1.02889
1.03395
1.02513
1.01323
1.00507
1.00127
1.00005
0.99985
0.999901
0.999959
0.999987
0.999997
0.999999
1
1
1
1
1
1
1
1
1
1
1
1
1
1
0.999766
0.999829
1.0004
1.00256
1.00787
1.01714
1.02792
1.03395
1.03094
1.02319
1.01933
1.02319
1.03094
1.03395
1.02792
1.01714
1.00787
1.00256
1.00041
0.999858
0.999845
0.999921
0.999971
0.999992
0.999998
1
1
1
1
1
1
1
1
1
1
1
1
1
1
1
0.999821
0.999781
0.999916
1.00082
1.00353
1.00907
1.01714
1.02513
1.02976
1.03064
1.03042
1.03064
1.02976
1.02513
1.01714
1.00907
1.00353
1.00082
0.999921
0.999798
0.999875
0.999947
0.999982
0.999995
0.999999
1
1
1
1
1
1
1
1
1
1
1
1
1
1
1
0.999889
0.999823
0.99977
0.999984
1.001
1.00353
1.00787
1.01323
1.01792
1.02069
1.02153
1.02069
1.01792
1.01323
1.00787
1.00353
1.001
0.999984
0.999772
0.999832
0.999919
0.99997
0.999991
0.999998
1
1
1
1
1
1
1
1
1
1
1
1
1
1
1
1
0.999943
0.999893
0.999806
0.999764
0.999984
1.00082
1.00256
1.00507
1.00767
1.00953
1.01019
1.00953
1.00767
1.00507
1.00256
1.00082
0.999984
0.999764
0.999807
0.999896
0.999957
0.999986
0.999996
1
1
1
1
1
1.00001
1.00001
1.00001
1.00001
1.00001
1
1
1
1
1
1
1
0.999977
0.999948
0.999888
0.999807
0.999772
0.999921
1.00041
1.00127
1.00229
1.0031
1.0034
1.0031
1.00229
1.00127
1.00041
0.999921
0.999772
0.999807
0.999888
0.999949
0.999982
0.999995
0.999999
1
1
1.00001
1.00001
1.00002
1.00002
1.00002
1.00002
1.00002
1.00002
1.00002
1.00001
1.00001
1
1
1
1
0.999992
0.99998
0.999949
0.999896
0.999832
0.999798
0.999858
1.00005
1.00033
1.00058
1.00068
1.00058
1.00033
1.00005
0.999858
0.999798
0.999832
0.999896
0.999949
0.99998
0.999994
0.999999
1
1
1.00001
1.00002
1.00003
1.00004
1.00005
1.00005
1.00005
1.00005
1.00005
1.00004
1.00003
1.00002
1.00001
1
1
1
0.999998
0.999994
0.999982
0.999957
0.999919
0.999875
0.999845
0.99985
0.99989
0.999938
0.999959
0.999938
0.99989
0.99985
0.999845
0.999875
0.999919
0.999957
0.999982
0.999994
0.999999
1
1.00001
1.00002
1.00003
1.00005
1.00007
1.00008
1.00007
1.00006
1.00006
1.00006
1.00007
1.00008
1.00007
1.00005
1.00003
1.00001
1.00001
1
1
0.999999
0.999995
0.999986
0.99997
0.999947
0.999921
0.999901
0.999891
0.99989
0.999891
0.99989
0.999891
0.999901
0.999921
0.999947
0.99997
0.999986
0.999995
0.999999
1
1.00001
1.00002
1.00004
1.00007
1.0001
1.0001
1.00005
0.99997
0.99989
0.999858
0.99989
0.99997
1.00005
1.0001
1.0001
1.00007
1.00004
1.00002
1.00001
1
1
0.999999
0.999997
0.999991
0.999982
0.999971
0.999959
0.999949
0.999944
0.999942
0.999944
0.999949
0.999959
0.999971
0.999982
0.999991
0.999996
0.999999
1
1.00001
1.00002
1.00004
1.00008
1.00011
1.0001
0.999968
0.999697
0.999348
0.999056
0.998944
0.999056
0.999348
0.999697
0.999968
1.0001
1.00011
1.00008
1.00004
1.00002
1
1
1
0.999999
0.999998
0.999995
0.999992
0.999987
0.999983
0.99998
0.999979
0.99998
0.999983
0.999987
0.999992
0.999995
0.999998
1
1
1
1.00002
1.00004
1.00008
1.00012
1.00009
0.99986
0.999294
0.9984
0.997411
0.996662
0.996389
0.996662
0.997411
0.9984
0.999294
0.99986
1.00009
1.00012
1.00009
1.00005
1
1
1
1
1
0.999999
0.999998
0.999997
0.999996
0.999995
0.999994
0.999995
0.999996
0.999997
0.999998
0.999999
1
1
1
1.00001
1.00003
1.00007
1.00011
1.00009
0.99981
0.998981
0.997416
0.995314
0.993278
0.991911
0.991449
0.991911
0.993278
0.995314
0.997416
0.998981
0.999811
1.0001
1.00013
1.0001
1
1
1
1
1
1
1
0.999999
0.999999
0.999999
0.999999
0.999999
0.999999
0.999999
1
1
1
1
1.00001
1.00002
1.00005
1.0001
1.0001
0.99986
0.998981
0.996989
0.9938
0.990133
0.987193
0.985648
0.985232
0.985648
0.987193
0.990133
0.9938
0.996989
0.998982
0.999866
1.00012
1.00015
1
1
1
1
1
1
1
1
1
1
1
1
1
1
1
1
1
1
1.00001
1.00003
1.00007
1.0001
0.999968
0.999294
0.997416
0.9938
0.988848
0.984279
0.981959
0.981902
0.982256
0.981902
0.981959
0.984279
0.988848
0.9938
0.997419
0.999304
0.999999
1.00016
1
1
1
1
1
1
1
1
1
1
1
1
1
1
1
1
1
1
1.00002
1.00004
1.00008
1.00005
0.999697
0.9984
0.995314
0.990133
0.984279
0.980895
0.982271
0.986612
0.988934
0.986612
0.982271
0.980895
0.984279
0.990134
0.995318
0.998416
0.999738
1.00013
1
1
1
1
1
1
1
1
1
1
1
1
1
1
1
1
1
1.00001
1.00002
1.00005
1.00007
0.99997
0.999348
0.997411
0.993278
0.987193
0.981959
0.982271
0.99049
1.00199
1.00738
1.00199
0.99049
0.982271
0.981959
0.987195
0.993284
0.997431
0.999395
1.00004
1
1
1
1
1
1
1
1
1
1
1
1
1
1
1
1
1
1.00001
1.00002
1.00005
1.00006
0.99989
0.999056
0.996662
0.991911
0.985648
0.981902
0.986612
1.00199
1.02064
1.02901
1.02064
1.00199
0.986613
0.981903
0.98565
0.991918
0.996684
0.999106
0.999951
1
1
1
1
1
1
1
1
1
1
1
1
1
1
1
1
1
1.00001
1.00002
1.00005
1.00006
0.999858
0.998944
0.996389
0.991449
0.985232
0.982256
0.988934
1.00738
1.02901
1.0386
1.02901
1.00738
0.988934
0.982256
0.985234
0.991457
0.996412
0.998994
0.999913
1
1
1
1
1
1
1
1
1
1
1
1
1
1
1
1
1
1.00001
1.00002
1.00005
1.00006
0.99989
0.999056
0.996662
0.991911
0.985648
0.981902
0.986612
1.00199
1.02064
1.02901
1.02064
1.00199
0.986613
0.981903
0.98565
0.991918
0.996684
0.999106
0.999951
1
1
1
1
1
1
1
1
1
1
1
1
1
1
1
1
1
1.00001
1.00002
1.00005
1.00007
0.99997
0.999348
0.997411
0.993278
0.987193
0.981959
0.982271
0.99049
1.00199
1.00738
1.00199
0.99049
0.982271
0.981959
0.987195
0.993284
0.997431
0.999395
1.00004
1
1
1
1
1
1
1
1
1
1
1
1
1
1
1
1
1
1
1.00002
1.00004
1.00008
1.00005
0.999697
0.9984
0.995314
0.990133
0.984279
0.980895
0.982271
0.986613
0.988934
0.986613
0.982271
0.980895
0.984279
0.990134
0.995318
0.998416
0.999738
1.00013
1
1
1
1
1
1
1
1
1
1
1
1
1
1
1
1
1
1
1.00001
1.00003
1.00007
1.0001
0.999968
0.999294
0.997416
0.9938
0.988848
0.984279
0.981959
0.981903
0.982256
0.981903
0.981959
0.984279
0.988848
0.9938
0.997419
0.999304
0.999999
1.00016
1
1
1
1
1
1
1
1
1
1
1
1
1
1
1
1
1
1
1.00001
1.00002
1.00005
1.0001
1.0001
0.99986
0.998981
0.996989
0.9938
0.990134
0.987195
0.98565
0.985234
0.98565
0.987195
0.990134
0.9938
0.99699
0.998982
0.999866
1.00012
1.00015
1
1
1
1
1
1
1
1
1
1
1
1
1
1
1
1
1
1
1
1.00001
1.00003
1.00007
1.00011
1.00009
0.999811
0.998982
0.997419
0.995318
0.993284
0.991918
0.991457
0.991918
0.993284
0.995318
0.997419
0.998982
0.999811
1.0001
1.00013
1.0001
1
1
1
1
1
1
1
1
1
1
1
1
1
1
1
1
1
1
1
1
1.00001
1.00004
1.00008
1.00012
1.0001
0.999866
0.999304
0.998416
0.997431
0.996684
0.996412
0.996684
0.997431
0.998416
0.999304
0.999866
1.0001
1.00012
1.00009
1.00005
1
1
1
1
1
1
1
1
1
1
1
1
1
1
1
1
1
1
1
1
1.00001
1.00002
1.00004
1.00009
1.00013
1.00012
0.999999
0.999738
0.999395
0.999106
0.998994
0.999106
0.999395
0.999738
0.999999
1.00012
1.00013
1.00009
1.00005
1.00002
1
1
1
1
1
1
1
1
1
1
1
1
1
1
1
1
1
1
1
1
1
1.00001
1.00002
1.00005
1.0001
1.00015
1.00016
1.00013
1.00004
0.999951
0.999913
0.999951
1.00004
1.00013
1.00016
1.00015
1.0001
1.00005
1.00002
1.00001
SCALARS C2 double 1
LOOKUP_TABLE default
2.5
2.5
2.50002
2.50005
2.50013
2.50024
2.50039
2.50053
2.50063
2.50067
2.50068
2.50067
2.50063
2.50053
2.50039
2.50024
2.50013
2.50005
2.50002
2.5
2.5
2.5
2.5
2.5
2.5
2.5
2.5
2.5
2.5
2.5
2.5
2.5
2.5
2.5
2.5
2.5
2.5
2.5
2.5
2.5
2.5
2.50001
2.50005
2.50013
2.50027
2.50046
2.50062
2.50068
2.50061
2.50048
2.50041
2.50048
2.50061
2.50068
2.50062
2.50046
2.50027
2.50013
2.50005
2.50002
2.5
2.5
2.5
2.5
2.5
2.5
2.5
2.5
2.5
2.5
2.5
2.5
2.5
2.5
2.5
2.5
2.5
2.5
2.5
2.5
2.50002
2.50005
2.50014
2.50032
2.50056
2.50078
2.50073
2.50024
2.49938
2.49855
2.49821
2.49855
2.49938
2.50024
2.50073
2.50078
2.50056
2.50032
2.50014
2.50005
2.50001
2.5
2.5
2.5
2.5
2.5
2.5
2.5
2.5
2.5
2.5
2.5
2.5
2.5
2.5
2.5
2.5
2.5
2.5
2.5
2.50005
2.50013
2.50032
2.50061
2.50087
2.5007
2.49951
2.497
2.49371
2.49091
2.48984
2.49091
2.49371
2.497
2.49951
2.5007
2.50087
2.50061
2.50032
2.50013
2.50004
2.50001
2.5
2.5
2.5
2.5
2.5
2.5
2.5
2.5
2.5
2.5
2.5
2.5
2.5
2.5
2.5
2.5
2.5
2.5
2.50013
2.50027
2.50056
2.50087
2.50067
2.49886
2.49423
2.48662
2.47795
2.47134
2.46893
2.47134
2.47795
2.48662
2.49423
2.49886
2.50067
2.50087
2.50056
2.50027
2.5001
2.50003
2.50001
2.5
2.5
2.5
2.5
2.5
2.5
2.5
2.5
2.5
2.5
2.5
2.5
2.5
2.5
2.5
2.5
2.5
2.50024
2.50046
2.50078
2.5007
2.49886
2.49296
2.4811
2.46437
2.44794
2.4372
2.43372
2.4372
2.44794
2.46437
2.4811
2.49296
2.49886
2.5007
2.50077
2.50044
2.50018
2.50006
2.50002
2.5
2.5
2.5
2.5
2.5
2.5
2.5
2.5
2.5
2.5
2.5
2.5
2.5
2.5
2.5
2.5
2.5
2.50039
2.50062
2.50073
2.49951
2.49423
2.4811
2.45847
2.43159
2.41098
2.40186
2.40002
2.40186
2.41098
2.43159
2.45847
2.4811
2.49423
2.49951
2.50072
2.50059
2.50029
2.50011
2.50003
2.50001
2.5
2.5
2.5
2.5
2.5
2.5
2.5
2.5
2.5
2.5
2.5
2.5
2.5
2.5
2.5
2.5
2.50053
2.50068
2.50024
2.497
2.48662
2.46437
2.43159
2.40151
2.38952
2.39379
2.39814
2.39379
2.38952
2.40151
2.43159
2.46437
2.48662
2.497
2.50023
2.50063
2.50038
2.50015
2.50005
2.50001
2.5
2.5
2.5
2.5
2.5
2.5
2.5
2.5
2.5
2.5
2.5
2.5
2.5
2.5
2.5
2.5
2.50063
2.50061
2.49938
2.49371
2.47795
2.44794
2.41098
2.38952
2.39885
2.42457
2.4376
2.42457
2.39885
2.38952
2.41098
2.44794
2.47795
2.4937
2.49937
2.50054
2.50043
2.5002
2.50007
2.50002
2.5
2.5
2.5
2.5
2.5
2.5
2.5
2.5
2.5
2.5
2.5
2.5
2.5
2.5
2.5
2.5
2.50067
2.50048
2.49855
2.49091
2.47134
2.4372
2.40186
2.39379
2.42457
2.46883
2.48896
2.46883
2.42457
2.39379
2.40186
2.4372
2.47134
2.49091
2.49853
2.5004
2.50045
2.50022
2.50008
2.50002
2.5
2.5
2.5
2.5
2.5
2.5
2.5
2.5
2.5
2.5
2.5
2.5
2.5
2.5
2.5
2.5
2.50068
2.50041
2.49821
2.48984
2.46893
2.43372
2.40002
2.39814
2.4376
2.48896
2.51176
2.48896
2.4376
2.39814
2.40002
2.43372
2.46893
2.48983
2.49819
2.50033
2.50045
2.50023
2.50008
2.50002
2.5
2.5
2.5
2.5
2.5
2.5
2.5
2.5
2.5
2.5
2.5
2.5
2.5
2.5
2.5
2.5
2.50067
2.50048
2.49855
2.49091
2.47134
2.4372
2.40186
2.39379
2.42457
2.46883
2.48896
2.46883
2.42457
2.39379
2.40186
2.4372
2.47134
2.49091
2.49853
2.5004
2.50045
2.50022
2.50008
2.50002
2.5
2.5
2.5
2.5
2.5
2.5
2.5
2.5
2.5
2.5
2.5
2.5
2.5
2.5
2.5
2.5
2.50063
2.50061
2.49938
2.49371
2.47795
2.44794
2.41098
2.38952
2.39885
2.42457
2.4376
2.42457
2.39885
2.38952
2.41098
2.44794
2.47795
2.4937
2.49937
2.50054
2.50043
2.5002
2.50007
2.50002
2.5
2.5
2.5
2.5
2.5
2.5
2.5
2.5
2.5
2.5
2.5
2.5
2.5
2.5
2.5
2.5
2.50053
2.50068
2.50024
2.497
2.48662
2.46437
2.43159
2.40151
2.38952
2.39379
2.39814
2.39379
2.38952
2.40151
2.43159
2.46437
2.48662
2.497
2.50023
2.50063
2.50038
2.50015
2.50005
2.50001
2.5
2.5
2.5
2.5
2.5
2.5
2.5
2.5
2.5
2.5
2.5
2.5
2.5
2.5
2.5
2.5
2.50039
2.50062
2.50073
2.49951
2.49423
2.4811
2.45847
2.43159
2.41098
2.40186
2.40002
2.40186
2.41098
2.43159
2.45847
2.4811
2.49423
2.49951
2.50072
2.50059
2.50029
2.50011
2.50003
2.50001
2.5
2.5
2.5
2.5
2.5
2.5
2.5
2.5
2.5
2.5
2.5
2.5
2.5
2.5
2.5
2.5
2.50024
2.50046
2.50078
2.5007
2.49886
2.49296
2.4811
2.46437
2.44794
2.4372
2.43372
2.4372
2.44794
2.46437
2.4811
2.49296
2.49886
2.5007
2.50077
2.50044
2.50018
2.50006
2.50002
2.5
2.5
2.5
2.5
2.5
2.5
2.5
2.5
2.5
2.5
2.5
2.5
2.5
2.5
2.5
2.5
2.5
2.50013
2.50027
2.50056
2.50087
2.50067
2.49886
2.49423
2.48662
2.47795
2.47134
2.46893
2.47134
2.47795
2.48662
2.49423
2.49886
2.50067
2.50087
2.50056
2.50027
2.5001
2.50003
2.50001
2.5
2.5
2.5
2.5
2.5
2.5
2.5
2.5
2.5
2.5
2.5
2.5
2.5
2.5
2.5
2.5
2.5
2.50005
2.50013
2.50032
2.50061
2.50087
2.5007
2.49951
2.497
2.4937
2.49091
2.48983
2.49091
2.4937
2.497
2.49951
2.5007
2.50087
2.50061
2.50032
2.50013
2.50004
2.50001
2.5
2.5
2.5
2.5
2.5
2.5
2.49999
2.49999
2.49999
2.49999
2.49999
2.5
2.5
2.5
2.5
2.5
2.5
2.5
2.50002
2.50005
2.50014
2.50032
2.50056
2.50077
2.50072
2.50023
2.49937
2.49853
2.49819
2.49853
2.49937
2.50023
2.50072
2.50077
2.50056
2.50032
2.50014
2.50005
2.50001
2.5
2.5
2.5
2.5
2.5
2.49999
2.49998
2.49998
2.49997
2.49997
2.49997
2.49998
2.49998
2.49999
2.5
2.5
2.5
2.5
2.5
2.5
2.50002
2.50005
2.50013
2.50027
2.50044
2.50059
2.50063
2.50054
2.5004
2.50033
2.5004
2.50054
2.50063
2.50059
2.50044
2.50027
2.50013
2.50005
2.50002
2.5
2.5
2.5
2.5
2.49999
2.49998
2.49996
2.49994
2.49993
2.49991
2.49991
2.49991
2.49993
2.49994
2.49996
2.49998
2.49999
2.5
2.5
2.5
2.5
2.5
2.50001
2.50004
2.5001
2.50018
2.50029
2.50038
2.50043
2.50045
2.50045
2.50045
2.50043
2.50038
2.50029
2.50018
2.5001
2.50004
2.50001
2.5
2.5
2.5
2.5
2.49999
2.49997
2.49993
2.49989
2.49985
2.49981
2.4998
2.49979
2.4998
2.49981
2.49985
2.49989
2.49993
2.49997
2.49999
2.5
2.5
2.5
2.5
2.5
2.50001
2.50003
2.50006
2.50011
2.50015
2.5002
2.50022
2.50023
2.50022
2.5002
2.50015
2.50011
2.50006
2.50003
2.50001
2.5
2.5
2.5
2.49999
2.49998
2.49995
2.4999
2.49983
2.49975
2.49969
2.49969
2.49971
2.49973
2.49971
2.49969
2.49969
2.49975
2.49983
2.4999
2.49996
2.49998
2.49999
2.5
2.5
2.5
2.5
2.50001
2.50002
2.50003
2.50005
2.50007
2.50008
2.50008
2.50008
2.50007
2.50005
2.50003
2.50002
2.50001
2.5
2.5
2.5
2.5
2.49998
2.49995
2.49988
2.49977
2.49965
2.49959
2.49968
2.49991
2.50016
2.50027
2.50016
2.49991
2.49968
2.49959
2.49965
2.49977
2.49988
2.49995
2.49998
2.5
2.5
2.5
2.5
2.5
2.5
2.50001
2.50001
2.50002
2.50002
2.50002
2.50002
2.50002
2.50001
2.50001
2.5
2.5
2.5
2.5
2.5
2.49999
2.49995
2.49988
2.49975
2.4996
2.49954
2.4998
2.50053
2.50161
2.50258
2.50296
2.50258
2.50161
2.50053
2.4998
2.49954
2.4996
2.49975
2.49988
2.49994
2.5
2.5
2.5
2.5
2.5
2.5
2.5
2.5
2.5
2.5
2.5
2.5
2.5
2.5
2.5
2.5
2.5
2.5
2.5
2.49999
2.49997
2.4999
2.49977
2.4996
2.49952
2.49994
2.50133
2.50389
2.50705
2.50962
2.51059
2.50962
2.50705
2.50389
2.50133
2.49994
2.49952
2.49959
2.49976
2.49987
2.5
2.5
2.5
2.5
2.5
2.5
2.5
2.5
2.5
2.5
2.5
2.5
2.5
2.5
2.5
2.5
2.5
2.5
2.5
2.49998
2.49993
2.49983
2.49965
2.49954
2.49994
2.5017
2.50572
2.51194
2.51876
2.52384
2.52565
2.52384
2.51876
2.51194
2.50572
2.5017
2.49993
2.49953
2.49963
2.49976
2.5
2.5
2.5
2.5
2.5
2.5
2.5
2.5
2.5
2.5
2.5
2.5
2.5
2.5
2.5
2.5
2.5
2.5
2.49999
2.49996
2.49989
2.49975
2.49959
2.4998
2.50133
2.50572
2.51412
2.52561
2.53684
2.54425
2.54666
2.54425
2.53684
2.52561
2.51412
2.50572
2.50133
2.49979
2.49956
2.49964
2.5
2.5
2.5
2.5
2.5
2.5
2.5
2.5
2.5
2.5
2.5
2.5
2.5
2.5
2.5
2.5
2.5
2.5
2.49998
2.49994
2.49985
2.49969
2.49968
2.50053
2.50389
2.51194
2.52561
2.54228
2.55627
2.56353
2.56527
2.56353
2.55627
2.54228
2.52561
2.51194
2.50389
2.50051
2.49962
2.49954
2.5
2.5
2.5
2.5
2.5
2.5
2.5
2.5
2.5
2.5
2.5
2.5
2.5
2.5
2.5
2.5
2.5
2.49999
2.49998
2.49993
2.49981
2.49969
2.49991
2.50161
2.50705
2.51876
2.53684
2.55627
2.56887
2.57144
2.57047
2.57144
2.56887
2.55627
2.53684
2.51876
2.50704
2.50158
2.49983
2.4995
2.5
2.5
2.5
2.5
2.5
2.5
2.5
2.5
2.5
2.5
2.5
2.5
2.5
2.5
2.5
2.5
2.5
2.49999
2.49997
2.49991
2.4998
2.49971
2.50016
2.50258
2.50962
2.52384
2.54425
2.56353
2.57144
2.56656
2.56176
2.56656
2.57144
2.56353
2.54425
2.52384
2.50961
2.50255
2.50007
2.49951
2.5
2.5
2.5
2.5
2.5
2.5
2.5
2.5
2.5
2.5
2.5
2.5
2.5
2.5
2.5
2.5
2.5
2.49999
2.49997
2.49991
2.49979
2.49973
2.50027
2.50296
2.51059
2.52565
2.54666
2.56527
2.57047
2.56176
2.55506
2.56176
2.57047
2.56527
2.54666
2.52565
2.51059
2.50293
2.50018
2.49952
2.5
2.5
2.5
2.5
2.5
2.5
2.5
2.5
2.5
2.5
2.5
2.5
2.5
2.5
2.5
2.5
2.5
2.49999
2.49997
2.49991
2.4998
2.49971
2.50016
2.50258
2.50962
2.52384
2.54425
2.56353
2.57144
2.56656
2.56176
2.56656
2.57144
2.56353
2.54425
2.52384
2.50961
2.50255
2.50007
2.49951
2.5
2.5
2.5
2.5
2.5
2.5
2.5
2.5
2.5
2.5
2.5
2.5
2.5
2.5
2.5
2.5
2.5
2.49999
2.49998
2.49993
2.49981
2.49969
2.49991
2.50161
2.50705
2.51876
2.53684
2.55627
2.56887
2.57144
2.57047
2.57144
2.56887
2.55627
2.53684
2.51876
2.50704
2.50158
2.49983
2.4995
2.5
2.5
2.5
2.5
2.5
2.5
2.5
2.5
2.5
2.5
2.5
2.5
2.5
2.5
2.5
2.5
2.5
2.5
2.49998
2.49994
2.49985
2.49969
2.49968
2.50053
2.50389
2.51194
2.52561
2.54228
2.55627
2.56353
2.56527
2.56353
2.55627
2.54228
2.52561
2.51194
2.50389
2.50051
2.49962
2.49954
2.5
2.5
2.5
2.5
2.5
2.5
2.5
2.5
2.5
2.5
2.5
2.5
2.5
2.5
2.5
2.5
2.5
2.5
2.49999
2.49996
2.49989
2.49975
2.49959
2.4998
2.50133
2.50572
2.51412
2.52561
2.53684
2.54425
2.54666
2.54425
2.53684
2.52561
2.51412
2.50572
2.50133
2.49979
2.49956
2.49964
2.5
2.5
2.5
2.5
2.5
2.5
2.5
2.5
2.5
2.5
2.5
2.5
2.5
2.5
2.5
2.5
2.5
2.5
2.5
2.49998
2.49993
2.49983
2.49965
2.49954
2.49994
2.5017
2.50572
2.51194
2.51876
2.52384
2.52565
2.52384
2.51876
2.51194
2.50572
2.50171
2.49993
2.49953
2.49963
2.49976
2.5
2.5
2.5
2.5
2.5
2.5
2.5
2.5
2.5
2.5
2.5
2.5
2.5
2.5
2.5
2.5
2.5
2.5
2.5
2.49999
2.49997
2.4999
2.49977
2.4996
2.49952
2.49993
2.50133
2.50389
2.50704
2.50961
2.51059
2.50961
2.50704
2.50389
2.50133
2.49993
2.49952
2.49959
2.49976
2.49987
2.5
2.5
2.5
2.5
2.5
2.5
2.5
2.5
2.5
2.5
2.5
2.5
2.5
2.5
2.5
2.5
2.5
2.5
2.5
2.5
2.49999
2.49996
2.49988
2.49975
2.49959
2.49953
2.49979
2.50051
2.50158
2.50255
2.50293
2.50255
2.50158
2.50051
2.49979
2.49953
2.49959
2.49975
2.49988
2.49994
2.5
2.5
2.5
2.5
2.5
2.5
2.5
2.5
2.5
2.5
2.5
2.5
2.5
2.5
2.5
2.5
2.5
2.5
2.5
2.5
2.5
2.49998
2.49995
2.49988
2.49976
2.49963
2.49956
2.49962
2.49983
2.50007
2.50018
2.50007
2.49983
2.49962
2.49956
2.49963
2.49976
2.49988
2.49995
2.49998
2.5
2.5
2.5
2.5
2.5
2.5
2.5
2.5
2.5
2.5
2.5
2.5
2.5
2.5
2.5
2.5
2.5
2.5
2.5
2.5
2.5
2.49999
2.49998
2.49994
2.49987
2.49976
2.49964
2.49954
2.4995
2.49951
2.49952
2.49951
2.4995
2.49954
2.49964
2.49976
2.49987
2.49994
2.49998
2.49999
