# vtk DataFile Version 3.0
Brusselator Concentration Output
ASCII
DATASET STRUCTURED_POINTS
DIMENSIONS 40 40 1
ORIGIN 0.0 0.0 0.0
SPACING 0.005 0.005 1.0
POINT_DATA 1600
SCALARS C1 double 1
LOOKUP_TABLE default
1
1
1
1
1
0.999992
0.999964
0.999917
0.999861
0.999817
0.999801
0.999817
0.999861
0.999917
0.999964
0.999992
1
1
1
1
1
1
1
1
1
1
1
1
1
1
1
1
1
1
1
1
1
1
1
1
1
1
1
1
0.999983
0.999935
0.999843
0.999714
0.999583
0.999491
0.999459
0.999491
0.999583
0.999714
0.999843
0.999935
0.999983
1
1
1
1
1
1
1
1
1
1
1
1
1
1
1
1
1
1
1
1
1
1
1
1
1
0.999999
0.999975
0.999902
0.999739
0.999475
0.99916
0.998897
0.998754
0.998715
0.998754
0.998897
0.99916
0.999475
0.999739
0.999902
0.999975
0.999999
1
1
1
1
1
1
1
1
1
1
1
1
1
1
1
1
1
1
1
1
1
1
1
0.999975
0.999888
0.999666
0.99925
0.998682
0.998173
0.997958
0.998024
0.998098
0.998024
0.997958
0.998173
0.998682
0.99925
0.999666
0.999888
0.999975
0.999999
1
1
1
1
1
1
1
1
1
1
1
1
1
1
1
1
1
1
1
1
1
0.999983
0.999902
0.999666
0.999157
0.998361
0.997585
0.997454
0.998346
0.999702
1.00034
0.999702
0.998346
0.997454
0.997585
0.998361
0.999157
0.999666
0.999901
0.999981
1
1
1
1
1
1
1
1
1
1
1
1
1
1
1
1
1
1
1
1
0.999992
0.999935
0.999739
0.99925
0.998361
0.997362
0.997309
0.999665
1.0047
1.01008
1.01234
1.01008
1.0047
0.999665
0.997309
0.997362
0.998361
0.99925
0.999739
0.999933
0.99999
1
1
1
1
1
1
1
1
1
1
1
1
1
1
1
1
1
1
1
0.999964
0.999843
0.999475
0.998682
0.997585
0.997309
1.00045
1.00981
1.02468
1.03856
1.04396
1.03856
1.02468
1.00981
1.00045
0.997309
0.997585
0.998682
0.999474
0.999841
0.999966
0.999997
1
1
1
1
1
1
1
1
1
1
1
1
1
1
1
1
1
1
0.999917
0.999714
0.99916
0.998173
0.997454
0.999665
1.00981
1.03214
1.06286
1.08795
1.09659
1.08795
1.06286
1.03214
1.00981
0.999665
0.997454
0.998172
0.999159
0.999714
0.999928
0.999989
1
1
1
1
1
1
1
1
1
1
1
1
1
1
1
1
1
1
0.999861
0.999583
0.998897
0.997958
0.998346
1.0047
1.02468
1.06286
1.10842
1.13789
1.14531
1.13789
1.10842
1.06286
1.02468
1.0047
0.998346
0.997958
0.998896
0.999585
0.999884
0.999977
0.999998
1
1
1
1
1
1
1
1
1
1
1
1
1
1
1
1
1
0.999817
0.999491
0.998754
0.998024
0.999702
1.01008
1.03856
1.08795
1.13789
1.15931
1.16043
1.15931
1.13789
1.08795
1.03856
1.01008
0.999702
0.998024
0.998754
0.999494
0.999849
0.999968
0.999996
1
1
1
1
1
1
1
1
1
1
1
1
1
1
1
1
1
0.999801
0.999459
0.998715
0.998098
1.00034
1.01234
1.04396
1.09659
1.14531
1.16043
1.15802
1.16043
1.14531
1.09659
1.04396
1.01234
1.00034
0.998098
0.998714
0.999463
0.999837
0.999964
0.999996
1
1
1
1
1
1
1
1
1
1
1
1
1
1
1
1
1
0.999817
0.999491
0.998754
0.998024
0.999702
1.01008
1.03856
1.08795
1.13789
1.15931
1.16043
1.15931
1.13789
1.08795
1.03856
1.01008
0.999702
0.998024
0.998754
0.999494
0.999849
0.999968
0.999996
1
1
1
1
1
1
1
1
1
1
1
1
1
1
1
1
1
0.999861
0.999583
0.998897
0.997958
0.998346
1.0047
1.02468
1.06286
1.10842
1.13789
1.14531
1.13789
1.10842
1.06286
1.02468
1.0047
0.998346
0.997958
0.998896
0.999585
0.999884
0.999977
0.999998
1
1
1
1
1
1
1
1
1
1
1
1
1
1
1
1
1
0.999917
0.999714
0.99916
0.998173
0.997454
0.999665
1.00981
1.03214
1.06286
1.08795
1.09659
1.08795
1.06286
1.03214
1.00981
0.999665
0.997454
0.998172
0.999159
0.999714
0.999928
0.999989
1
1
1
1
1
1
1
1
1
1
1
1
1
1
1
1
1
1
0.999964
0.999843
0.999475
0.998682
0.997585
0.997309
1.00045
1.00981
1.02468
1.03856
1.04396
1.03856
1.02468
1.00981
1.00045
0.997309
0.997585
0.998682
0.999474
0.999841
0.999966
0.999997
1
1
1
1
1
1
1
1
1
1
1
1
1
1
1
1
1
1
0.999992
0.999935
0.999739
0.99925
0.998361
0.997362
0.997309
0.999665
1.0047
1.01008
1.01234
1.01008
1.0047
0.999665
0.997309
0.997362
0.998361
0.99925
0.999739
0.999933
0.99999
1
1
1
1
1
1
1
1
1
1
1
1
1
1
1
1
1
1
1
1
0.999983
0.999902
0.999666
0.999157
0.998361
0.997585
0.997454
0.998346
0.999702
1.00034
0.999702
0.998346
0.997454
0.997585
0.998361
0.999157
0.999666
0.999901
0.999981
1
1
1
1
1
1
1
1
1
1
1
1
1
1
1
1
1
1
1
1
1
1
0.999975
0.999888
0.999666
0.99925
0.998682
0.998172
0.997958
0.998024
0.998098
0.998024
0.997958
0.998172
0.998682
0.99925
0.999666
0.999888
0.999975
0.999999
1
1
1
1
1
1
1
1
1
1
1
1
1
1
1
1
1
1
1
1
1
1
0.999999
0.999975
0.999901
0.999739
0.999474
0.999159
0.998896
0.998754
0.998714
0.998754
0.998896
0.999159
0.999474
0.999739
0.999901
0.999975
0.999999
1
1
1
1
1
1
0.999999
0.999999
0.999999
1
1
1
1
1
0.999999
0.999999
0.999999
1
1
1
1
1
1
1
0.999999
0.999981
0.999933
0.999841
0.999714
0.999585
0.999494
0.999463
0.999494
0.999585
0.999714
0.999841
0.999933
0.999981
0.999999
1
1
1
1
1
0.999999
0.999999
0.999999
1
1
1.00001
1.00001
1.00001
1.00001
1.00001
1
1
0.999999
0.999999
0.999999
1
1
1
1
1
1
1
0.99999
0.999966
0.999928
0.999884
0.999849
0.999837
0.999849
0.999884
0.999928
0.999966
0.99999
1
1
1
1
1
1
0.999999
0.999999
0.999999
1
1.00001
1.00002
1.00004
1.00005
1.00006
1.00005
1.00004
1.00002
1.00001
1
0.999999
0.999999
0.999999
0.999999
1
1
1
1
1
1
0.999997
0.999989
0.999977
0.999968
0.999964
0.999968
0.999977
0.999989
0.999997
1
1
1
1
1
1
0.999999
0.999999
0.999999
1
1.00002
1.00005
1.0001
1.00015
1.00019
1.0002
1.00019
1.00015
1.0001
1.00005
1.00002
1
0.999999
0.999998
0.999999
1
1
1
1
1
1
1
1
0.999998
0.999996
0.999996
0.999996
0.999998
1
1
1
1
1
1
1
0.999999
0.999999
0.999999
1.00001
1.00003
1.00009
1.00018
1.00031
1.00044
1.00051
1.00054
1.00051
1.00044
1.00031
1.00018
1.00009
1.00003
1.00001
0.999999
0.999998
1
1
1
1
1
1
1
1
1
1
1
1
1
1
1
1
1
1
1
0.999999
0.999999
0.999999
1.00001
1.00003
1.00011
1.00027
1.00051
1.00077
1.00094
1.00099
1.001
1.00099
1.00094
1.00077
1.00051
1.00027
1.00011
1.00003
1.00001
0.999998
1
1
1
1
1
1
1
1
1
1
1
1
1
1
1
1
1
1
1
0.999999
0.999999
1
1.00003
1.00011
1.0003
1.00064
1.00106
1.00132
1.00122
1.00088
1.00069
1.00088
1.00122
1.00132
1.00106
1.00064
1.0003
1.00011
1.00003
1
1
1
1
1
1
1
1
1
1
1
1
1
1
1
1
1
1
1
0.999999
0.999999
1
1.00002
1.00009
1.00027
1.00064
1.00118
1.00153
1.00109
0.999601
0.997807
0.99702
0.997807
0.999601
1.00109
1.00153
1.00118
1.00064
1.00027
1.00008
1.00002
1
1
1
1
1
1
1
1
1
1
1
1
1
1
1
1
1
1
0.999999
1
1.00001
1.00005
1.00018
1.00051
1.00106
1.00153
1.00095
0.998112
0.993046
0.988071
0.986076
0.988071
0.993046
0.998112
1.00095
1.00153
1.00106
1.00051
1.00019
1.00006
1
1
1
1
1
1
1
1
1
1
1
1
1
1
1
1
1
1
0.999999
1
1.00002
1.0001
1.00031
1.00077
1.00132
1.00109
0.998112
0.990571
0.979638
0.970158
0.966643
0.970158
0.979638
0.990571
0.998112
1.00109
1.00132
1.00077
1.00032
1.00012
1
1
1
1
1
1
1
1
1
1
1
1
1
1
1
1
1
1
1
1.00001
1.00004
1.00015
1.00044
1.00094
1.00122
0.999601
0.993046
0.979638
0.962516
0.949157
0.944622
0.949157
0.962516
0.979637
0.993046
0.999601
1.00122
1.00094
1.00044
1.00019
1
1
1
1
1
1
1
1
1
1
1
1
1
1
1
1
1
1
1
1.00001
1.00005
1.00019
1.00051
1.00099
1.00088
0.997807
0.988071
0.970158
0.949157
0.9342
0.92961
0.9342
0.949157
0.970158
0.988071
0.997807
1.00088
1.001
1.00052
1.00024
1
1
1
1
1
1
1
1
1
1
1
1
1
1
1
1
1
1
1
1.00001
1.00006
1.0002
1.00054
1.001
1.00069
0.99702
0.986076
0.966643
0.944622
0.92961
0.925275
0.92961
0.944622
0.966643
0.986076
0.997019
1.00069
1.001
1.00055
1.00026
1
1
1
1
1
1
1
1
1
1
1
1
1
1
1
1
1
1
1
1.00001
1.00005
1.00019
1.00051
1.00099
1.00088
0.997807
0.988071
0.970158
0.949157
0.9342
0.92961
0.9342
0.949157
0.970158
0.988071
0.997807
1.00088
1.001
1.00052
1.00024
1
1
1
1
1
1
1
1
1
1
1
1
1
1
1
1
1
1
1
1.00001
1.00004
1.00015
1.00044
1.00094
1.00122
0.999601
0.993046
0.979638
0.962516
0.949157
0.944622
0.949157
0.962516
0.979637
0.993046
0.999601
1.00122
1.00094
1.00044
1.00019
1
1
1
1
1
1
1
1
1
1
1
1
1
1
1
1
1
1
0.999999
1
1.00002
1.0001
1.00031
1.00077
1.00132
1.00109
0.998112
0.990571
0.979637
0.970158
0.966643
0.970158
0.979637
0.990571
0.998112
1.00109
1.00132
1.00077
1.00032
1.00012
1
1
1
1
1
1
1
1
1
1
1
1
1
1
1
1
1
1
0.999999
1
1.00001
1.00005
1.00018
1.00051
1.00106
1.00153
1.00095
0.998112
0.993046
0.988071
0.986076
0.988071
0.993046
0.998112
1.00095
1.00153
1.00106
1.00051
1.00019
1.00006
1
1
1
1
1
1
1
1
1
1
1
1
1
1
1
1
1
1
0.999999
0.999999
1
1.00002
1.00009
1.00027
1.00064
1.00118
1.00153
1.00109
0.999601
0.997807
0.997019
0.997807
0.999601
1.00109
1.00153
1.00118
1.00064
1.00027
1.00008
1.00002
1
1
1
1
1
1
1
1
1
1
1
1
1
1
1
1
1
1
1
0.999999
0.999999
1
1.00003
1.00011
1.0003
1.00064
1.00106
1.00132
1.00122
1.00088
1.00069
1.00088
1.00122
1.00132
1.00106
1.00064
1.0003
1.00011
1.00003
1
1
1
1
1
1
1
1
1
1
1
1
1
1
1
1
1
1
1
1
0.999999
0.999999
0.999999
1.00001
1.00003
1.00011
1.00027
1.00051
1.00077
1.00094
1.001
1.001
1.001
1.00094
1.00077
1.00051
1.00027
1.00011
1.00003
1.00001
0.999998
1
1
1
1
1
1
1
1
1
1
1
1
1
1
1
1
1
1
1
1
0.999999
0.999998
0.999999
1.00001
1.00003
1.00008
1.00019
1.00032
1.00044
1.00052
1.00055
1.00052
1.00044
1.00032
1.00019
1.00008
1.00003
1.00001
0.999999
0.999998
1
1
1
1
1
1
1
1
1
1
1
1
1
1
1
1
1
1
1
1
0.999999
0.999999
0.999998
0.999998
1
1.00002
1.00006
1.00012
1.00019
1.00024
1.00026
1.00024
1.00019
1.00012
1.00006
1.00002
1
0.999998
0.999998
0.999998
SCALARS C2 double 1
LOOKUP_TABLE default
2.5
2.5
2.5
2.49999
2.49999
2.49999
2.5
2.50003
2.50009
2.50013
2.50015
2.50013
2.50009
2.50003
2.5
2.49999
2.49999
2.49999
2.5
2.5
2.5
2.5
2.5
2.5
2.5
2.5
2.5
2.5
2.5
2.5
2.5
2.5
2.5
2.5
2.5
2.5
2.5
2.5
2.5
2.5
2.5
2.5
2.49999
2.49999
2.49999
2.50002
2.5001
2.50024
2.50042
2.50056
2.50062
2.50056
2.50042
2.50024
2.5001
2.50002
2.49999
2.49999
2.49999
2.5
2.5
2.5
2.5
2.5
2.5
2.5
2.5
2.5
2.5
2.5
2.5
2.5
2.5
2.5
2.5
2.5
2.5
2.5
2.5
2.5
2.5
2.49999
2.49999
2.49999
2.50004
2.50019
2.50051
2.50099
2.5015
2.50189
2.50202
2.50189
2.5015
2.50099
2.50051
2.50019
2.50004
2.49999
2.49999
2.49999
2.5
2.5
2.5
2.5
2.5
2.5
2.5
2.5
2.5
2.5
2.5
2.5
2.5
2.5
2.5
2.5
2.5
2.5
2.5
2.5
2.49999
2.49999
2.49999
2.50005
2.50026
2.50077
2.50169
2.5029
2.50403
2.50472
2.50492
2.50472
2.50403
2.5029
2.50169
2.50077
2.50026
2.50005
2.49999
2.49999
2.49999
2.5
2.5
2.5
2.5
2.5
2.5
2.5
2.5
2.5
2.5
2.5
2.5
2.5
2.5
2.5
2.5
2.5
2.5
2.5
2.49999
2.49999
2.50004
2.50026
2.50088
2.5022
2.50424
2.50646
2.50789
2.50818
2.50809
2.50818
2.50789
2.50646
2.50424
2.5022
2.50088
2.50026
2.50004
2.49999
2.49999
2.5
2.5
2.5
2.5
2.5
2.5
2.5
2.5
2.5
2.5
2.5
2.5
2.5
2.5
2.5
2.5
2.5
2.5
2.5
2.49999
2.50002
2.50019
2.50077
2.5022
2.5048
2.50809
2.51023
2.50926
2.50595
2.50411
2.50595
2.50926
2.51023
2.50809
2.5048
2.5022
2.50077
2.50019
2.50002
2.49999
2.49999
2.5
2.5
2.5
2.5
2.5
2.5
2.5
2.5
2.5
2.5
2.5
2.5
2.5
2.5
2.5
2.5
2.5
2.5
2.5
2.5001
2.50051
2.50169
2.50424
2.50809
2.51104
2.50843
2.49699
2.48171
2.47462
2.48171
2.49699
2.50843
2.51104
2.50809
2.50424
2.50169
2.50051
2.50011
2.50001
2.49999
2.5
2.5
2.5
2.5
2.5
2.5
2.5
2.5
2.5
2.5
2.5
2.5
2.5
2.5
2.5
2.5
2.5
2.5
2.50003
2.50024
2.50099
2.5029
2.50646
2.51023
2.50843
2.49135
2.45485
2.41451
2.39743
2.41451
2.45485
2.49135
2.50843
2.51023
2.50646
2.5029
2.50099
2.50025
2.50004
2.5
2.5
2.5
2.5
2.5
2.5
2.5
2.5
2.5
2.5
2.5
2.5
2.5
2.5
2.5
2.5
2.5
2.5
2.5
2.50009
2.50042
2.5015
2.50403
2.50789
2.50926
2.49699
2.45485
2.38102
2.30988
2.28288
2.30988
2.38102
2.45485
2.49699
2.50926
2.50789
2.50403
2.50151
2.50042
2.50008
2.5
2.5
2.5
2.5
2.5
2.5
2.5
2.5
2.5
2.5
2.5
2.5
2.5
2.5
2.5
2.5
2.5
2.5
2.5
2.50013
2.50056
2.50189
2.50472
2.50818
2.50595
2.48171
2.41451
2.30988
2.22174
2.19242
2.22174
2.30988
2.41451
2.48171
2.50595
2.50818
2.50472
2.50189
2.50056
2.50012
2.50001
2.5
2.5
2.5
2.5
2.5
2.5
2.5
2.5
2.5
2.5
2.5
2.5
2.5
2.5
2.5
2.5
2.5
2.5
2.50015
2.50062
2.50202
2.50492
2.50809
2.50411
2.47462
2.39743
2.28288
2.19242
2.16434
2.19242
2.28288
2.39743
2.47462
2.50411
2.50809
2.50492
2.50202
2.50062
2.50014
2.50002
2.5
2.5
2.5
2.5
2.5
2.5
2.5
2.5
2.5
2.5
2.5
2.5
2.5
2.5
2.5
2.5
2.5
2.5
2.50013
2.50056
2.50189
2.50472
2.50818
2.50595
2.48171
2.41451
2.30988
2.22174
2.19242
2.22174
2.30988
2.41451
2.48171
2.50595
2.50818
2.50472
2.50189
2.50056
2.50012
2.50001
2.5
2.5
2.5
2.5
2.5
2.5
2.5
2.5
2.5
2.5
2.5
2.5
2.5
2.5
2.5
2.5
2.5
2.5
2.50009
2.50042
2.5015
2.50403
2.50789
2.50926
2.49699
2.45485
2.38102
2.30988
2.28288
2.30988
2.38102
2.45485
2.49699
2.50926
2.50789
2.50403
2.50151
2.50042
2.50008
2.5
2.5
2.5
2.5
2.5
2.5
2.5
2.5
2.5
2.5
2.5
2.5
2.5
2.5
2.5
2.5
2.5
2.5
2.5
2.50003
2.50024
2.50099
2.5029
2.50646
2.51023
2.50843
2.49135
2.45485
2.41451
2.39743
2.41451
2.45485
2.49135
2.50843
2.51023
2.50646
2.5029
2.50099
2.50025
2.50004
2.5
2.5
2.5
2.5
2.5
2.5
2.5
2.5
2.5
2.5
2.5
2.5
2.5
2.5
2.5
2.5
2.5
2.5
2.5
2.5
2.5001
2.50051
2.50169
2.50424
2.50809
2.51104
2.50843
2.49699
2.48171
2.47462
2.48171
2.49699
2.50843
2.51104
2.50809
2.50424
2.50169
2.50051
2.50011
2.50001
2.49999
2.5
2.5
2.5
2.5
2.5
2.5
2.5
2.5
2.5
2.5
2.5
2.5
2.5
2.5
2.5
2.5
2.5
2.5
2.49999
2.50002
2.50019
2.50077
2.5022
2.5048
2.50809
2.51023
2.50926
2.50595
2.50411
2.50595
2.50926
2.51023
2.50809
2.5048
2.5022
2.50077
2.50019
2.50002
2.49999
2.49999
2.5
2.5
2.5
2.5
2.5
2.5
2.5
2.5
2.5
2.5
2.5
2.5
2.5
2.5
2.5
2.5
2.5
2.5
2.49999
2.49999
2.50004
2.50026
2.50088
2.5022
2.50424
2.50646
2.50789
2.50818
2.50809
2.50818
2.50789
2.50646
2.50424
2.5022
2.50088
2.50026
2.50004
2.49999
2.49999
2.5
2.5
2.5
2.5
2.5
2.5
2.5
2.5
2.5
2.5
2.5
2.5
2.5
2.5
2.5
2.5
2.5
2.5
2.5
2.49999
2.49999
2.49999
2.50005
2.50026
2.50077
2.50169
2.5029
2.50403
2.50472
2.50492
2.50472
2.50403
2.5029
2.50169
2.50077
2.50026
2.50005
2.49999
2.49999
2.49999
2.5
2.5
2.5
2.5
2.5
2.5
2.5
2.5
2.5
2.5
2.5
2.5
2.5
2.5
2.5
2.5
2.5
2.5
2.5
2.5
2.49999
2.49999
2.49999
2.50004
2.50019
2.50051
2.50099
2.50151
2.50189
2.50202
2.50189
2.50151
2.50099
2.50051
2.50019
2.50004
2.49999
2.49999
2.49999
2.5
2.5
2.5
2.5
2.5
2.5
2.5
2.5
2.5
2.5
2.5
2.5
2.5
2.5
2.5
2.5
2.5
2.5
2.5
2.5
2.5
2.5
2.49999
2.49999
2.49999
2.50002
2.50011
2.50025
2.50042
2.50056
2.50062
2.50056
2.50042
2.50025
2.50011
2.50002
2.49999
2.49999
2.49999
2.5
2.5
2.5
2.5
2.5
2.5
2.5
2.5
2.5
2.5
2.5
2.5
2.5
2.5
2.5
2.5
2.5
2.5
2.5
2.5
2.5
2.5
2.5
2.5
2.49999
2.49999
2.49999
2.50001
2.50004
2.50008
2.50012
2.50014
2.50012
2.50008
2.50004
2.50001
2.49999
2.49999
2.49999
2.5
2.5
2.5
2.5
2.5
2.5
2.5
2.5
2.5
2.49999
2.49998
2.49997
2.49996
2.49997
2.49998
2.49999
2.5
2.5
2.5
2.5
2.5
2.5
2.5
2.5
2.5
2.5
2.5
2.49999
2.49999
2.5
2.5
2.50001
2.50002
2.50001
2.5
2.5
2.49999
2.49999
2.5
2.5
2.5
2.5
2.5
2.5
2.5
2.5
2.50001
2.5
2.49997
2.49993
2.49986
2.49981
2.49979
2.49981
2.49986
2.49993
2.49997
2.5
2.50001
2.5
2.5
2.5
2.5
2.5
2.5
2.5
2.5
2.5
2.5
2.5
2.5
2.5
2.5
2.5
2.5
2.5
2.5
2.5
2.5
2.5
2.5
2.5
2.5
2.5
2.50001
2.50001
2.49999
2.49995
2.49984
2.49967
2.49947
2.49931
2.49925
2.49931
2.49947
2.49967
2.49984
2.49995
2.49999
2.50001
2.50001
2.5
2.5
2.5
2.5
2.5
2.5
2.5
2.5
2.5
2.5
2.5
2.5
2.5
2.5
2.5
2.5
2.5
2.5
2.5
2.5
2.5
2.5
2.5
2.50001
2.49999
2.49993
2.49975
2.49941
2.49892
2.49842
2.49807
2.49796
2.49807
2.49842
2.49892
2.49941
2.49975
2.49993
2.49999
2.50001
2.50001
2.5
2.5
2.5
2.5
2.5
2.5
2.5
2.5
2.5
2.5
2.5
2.5
2.5
2.5
2.5
2.5
2.5
2.5
2.5
2.5
2.5
2.50001
2.49999
2.49993
2.49972
2.49923
2.49839
2.49735
2.49649
2.49609
2.49601
2.49609
2.49649
2.49735
2.49839
2.49923
2.49972
2.49993
2.49999
2.50001
2.5
2.5
2.5
2.5
2.5
2.5
2.5
2.5
2.5
2.5
2.5
2.5
2.5
2.5
2.5
2.5
2.5
2.5
2.5
2.5
2.5
2.5
2.49995
2.49975
2.49923
2.49816
2.49659
2.49513
2.49466
2.49523
2.49568
2.49523
2.49466
2.49513
2.49659
2.49816
2.49923
2.49975
2.49995
2.5
2.5
2.5
2.5
2.5
2.5
2.5
2.5
2.5
2.5
2.5
2.5
2.5
2.5
2.5
2.5
2.5
2.5
2.5
2.5
2.5
2.5
2.49997
2.49984
2.49941
2.49839
2.49659
2.49461
2.49413
2.49672
2.50112
2.50333
2.50112
2.49672
2.49413
2.49461
2.49659
2.49839
2.49942
2.49984
2.49997
2.5
2.5
2.5
2.5
2.5
2.5
2.5
2.5
2.5
2.5
2.5
2.5
2.5
2.5
2.5
2.5
2.5
2.5
2.5
2.5
2.49999
2.49993
2.49967
2.49892
2.49735
2.49513
2.49413
2.49794
2.50851
2.52129
2.52706
2.52129
2.50851
2.49794
2.49413
2.49513
2.49735
2.49893
2.49967
2.49992
2.5
2.5
2.5
2.5
2.5
2.5
2.5
2.5
2.5
2.5
2.5
2.5
2.5
2.5
2.5
2.5
2.5
2.5
2.5
2.5
2.49998
2.49986
2.49947
2.49842
2.49649
2.49466
2.49672
2.50851
2.53154
2.55632
2.56697
2.55632
2.53154
2.50851
2.49672
2.49466
2.49649
2.49842
2.49947
2.49984
2.5
2.5
2.5
2.5
2.5
2.5
2.5
2.5
2.5
2.5
2.5
2.5
2.5
2.5
2.5
2.5
2.5
2.5
2.5
2.5
2.49997
2.49981
2.49931
2.49807
2.49609
2.49523
2.50112
2.52129
2.55632
2.59206
2.60708
2.59206
2.55632
2.52129
2.50112
2.49523
2.49609
2.49808
2.4993
2.49978
2.5
2.5
2.5
2.5
2.5
2.5
2.5
2.5
2.5
2.5
2.5
2.5
2.5
2.5
2.5
2.5
2.5
2.5
2.5
2.5
2.49996
2.49979
2.49925
2.49796
2.49601
2.49568
2.50333
2.52706
2.56697
2.60708
2.62379
2.60708
2.56697
2.52706
2.50333
2.49568
2.49601
2.49796
2.49925
2.49975
2.5
2.5
2.5
2.5
2.5
2.5
2.5
2.5
2.5
2.5
2.5
2.5
2.5
2.5
2.5
2.5
2.5
2.5
2.5
2.5
2.49997
2.49981
2.49931
2.49807
2.49609
2.49523
2.50112
2.52129
2.55632
2.59206
2.60708
2.59206
2.55632
2.52129
2.50112
2.49523
2.49609
2.49808
2.4993
2.49978
2.5
2.5
2.5
2.5
2.5
2.5
2.5
2.5
2.5
2.5
2.5
2.5
2.5
2.5
2.5
2.5
2.5
2.5
2.5
2.5
2.49998
2.49986
2.49947
2.49842
2.49649
2.49466
2.49672
2.50851
2.53154
2.55632
2.56697
2.55632
2.53154
2.50851
2.49672
2.49466
2.49649
2.49842
2.49947
2.49984
2.5
2.5
2.5
2.5
2.5
2.5
2.5
2.5
2.5
2.5
2.5
2.5
2.5
2.5
2.5
2.5
2.5
2.5
2.5
2.5
2.49999
2.49993
2.49967
2.49892
2.49735
2.49513
2.49413
2.49794
2.50851
2.52129
2.52706
2.52129
2.50851
2.49794
2.49413
2.49513
2.49735
2.49893
2.49967
2.49992
2.5
2.5
2.5
2.5
2.5
2.5
2.5
2.5
2.5
2.5
2.5
2.5
2.5
2.5
2.5
2.5
2.5
2.5
2.5
2.5
2.5
2.49997
2.49984
2.49941
2.49839
2.49659
2.49461
2.49413
2.49672
2.50112
2.50333
2.50112
2.49672
2.49413
2.49461
2.49659
2.49839
2.49942
2.49984
2.49997
2.5
2.5
2.5
2.5
2.5
2.5
2.5
2.5
2.5
2.5
2.5
2.5
2.5
2.5
2.5
2.5
2.5
2.5
2.5
2.5
2.5
2.5
2.49995
2.49975
2.49923
2.49816
2.49659
2.49513
2.49466
2.49523
2.49568
2.49523
2.49466
2.49513
2.49659
2.49816
2.49923
2.49975
2.49995
2.5
2.5
2.5
2.5
2.5
2.5
2.5
2.5
2.5
2.5
2.5
2.5
2.5
2.5
2.5
2.5
2.5
2.5
2.5
2.5
2.5
2.5
2.50001
2.49999
2.49993
2.49972
2.49923
2.49839
2.49735
2.49649
2.49609
2.49601
2.49609
2.49649
2.49735
2.49839
2.49923
2.49972
2.49993
2.49999
2.50001
2.5
2.5
2.5
2.5
2.5
2.5
2.5
2.5
2.5
2.5
2.5
2.5
2.5
2.5
2.5
2.5
2.5
2.5
2.5
2.5
2.5
2.5
2.50001
2.49999
2.49993
2.49975
2.49942
2.49893
2.49842
2.49808
2.49796
2.49808
2.49842
2.49893
2.49942
2.49975
2.49993
2.49999
2.50001
2.50001
2.5
2.5
2.5
2.5
2.5
2.5
2.5
2.5
2.5
2.5
2.5
2.5
2.5
2.5
2.5
2.5
2.5
2.5
2.5
2.5
2.5
2.5
2.50001
2.50001
2.49999
2.49995
2.49984
2.49967
2.49947
2.4993
2.49925
2.4993
2.49947
2.49967
2.49984
2.49995
2.49999
2.50001
2.50001
2.5
2.5
2.5
2.5
2.5
2.5
2.5
2.5
2.5
2.5
2.5
2.5
2.5
2.5
2.5
2.5
2.5
2.5
2.5
2.5
2.5
2.5
2.5
2.5
2.50001
2.50001
2.5
2.49997
2.49992
2.49984
2.49978
2.49975
2.49978
2.49984
2.49992
2.49997
2.5
2.50001
2.50001
2.5
2.5
