# vtk DataFile Version 3.0
Brusselator Concentration Output
ASCII
DATASET STRUCTURED_POINTS
DIMENSIONS 40 40 1
ORIGIN 0.0 0.0 0.0
SPACING 0.005 0.005 1.0
POINT_DATA 1600
SCALARS C1 double 1
LOOKUP_TABLE default
1.00427
1.00006
0.991252
0.977841
0.961019
0.943052
0.92643
0.912983
0.903525
0.898064
0.896298
0.898066
0.903531
0.912992
0.926431
0.943003
0.960817
0.977288
0.990075
0.998074
1.00175
1.00255
1.00201
1.0012
1.00057
1.00021
1.00005
0.999999
0.99999
0.999993
0.999996
0.999999
1
1
1
1
1
1
1
1
1.00006
0.994004
0.982346
0.966492
0.948908
0.932436
0.919283
0.910374
0.905349
0.903094
0.902495
0.903096
0.905354
0.910379
0.91927
0.93235
0.94863
0.965828
0.981108
0.992284
0.998738
1.00138
1.00177
1.00128
1.0007
1.0003
1.0001
1.00002
0.999995
0.999994
0.999996
0.999998
0.999999
1
1
1
1
1
1
1
0.991252
0.982346
0.966694
0.94816
0.931172
0.919266
0.914036
0.914838
0.919193
0.923752
0.92565
0.923755
0.919197
0.914836
0.913996
0.919111
0.930759
0.947326
0.965462
0.981396
0.992603
0.998707
1.00102
1.00131
1.0009
1.00046
1.00018
1.00005
1.00001
0.999996
0.999996
0.999998
0.999999
1
1
1
1
1
1
1
0.977841
0.966492
0.94816
0.929594
0.917231
0.915168
0.924262
0.941973
0.962768
0.979484
0.985888
0.979487
0.962771
0.941958
0.92418
0.914914
0.91665
0.928611
0.94717
0.967088
0.983576
0.994222
0.999403
1.00104
1.00106
1.00065
1.0003
1.00011
1.00002
1
0.999996
0.999998
0.999999
1
1
1
1
1
1
1
0.961019
0.948908
0.931172
0.917231
0.915402
0.93062
0.963543
1.00974
1.0591
1.09745
1.11197
1.09746
1.0591
1.00971
0.963401
0.930236
0.914636
0.916181
0.930786
0.951932
0.97264
0.988012
0.996725
1.00029
1.00106
1.00081
1.00043
1.00017
1.00005
1.00001
0.999998
0.999997
0.999999
0.999999
1
1
1
1
1
1
0.943052
0.932436
0.919266
0.915168
0.93062
0.972633
1.04325
1.13621
1.2333
1.30742
1.33509
1.30742
1.23329
1.13615
1.04302
0.972085
0.929665
0.91417
0.919866
0.938616
0.961389
0.980734
0.993111
0.998996
1.00083
1.00091
1.00054
1.00024
1.00008
1.00002
1
0.999997
0.999998
0.999999
1
1
1
1
1
1
0.92643
0.919283
0.914036
0.924262
0.963543
1.04325
1.16893
1.33008
1.49072
1.60476
1.64491
1.60476
1.4907
1.32997
1.16858
1.04249
0.962401
0.923437
0.91592
0.928984
0.951421
0.973396
0.989017
0.997298
1.00038
1.00091
1.00064
1.00031
1.00011
1.00003
1
0.999998
0.999998
0.999999
1
1
1
1
1
1
0.912983
0.910374
0.914838
0.941973
1.00974
1.13621
1.33008
1.56423
1.76771
1.88763
1.92441
1.88762
1.76767
1.56406
1.32959
1.13524
1.00843
0.941413
0.918128
0.923494
0.943772
0.966973
0.98506
0.995475
0.999798
1.00084
1.0007
1.00037
1.00014
1.00004
1.00001
0.999999
0.999998
0.999999
1
1
1
1
1
1
0.903525
0.905349
0.919193
0.962768
1.0591
1.2333
1.49072
1.76771
1.9596
2.0446
2.06543
2.04459
1.95955
1.7675
1.49011
1.23212
1.05765
0.962503
0.923769
0.92132
0.938716
0.962132
0.981823
0.993866
0.999226
1.00073
1.00073
1.00041
1.00017
1.00005
1.00001
1
0.999999
1
1
1
1
1
1
1
0.898064
0.903094
0.923752
0.979484
1.09745
1.30742
1.60476
1.88763
2.0446
2.09515
2.10359
2.09513
2.04454
1.88741
1.60409
1.30611
1.09593
0.979452
0.929239
0.920955
0.935973
0.959182
0.979726
0.992771
0.998812
1.00064
1.00074
1.00043
1.00018
1.00006
1.00001
1
0.999999
1
1
1
1
1
1
1
0.896298
0.902495
0.92565
0.985888
1.11197
1.33509
1.64491
1.92441
2.06543
2.10359
2.10792
2.10357
2.06537
1.92418
1.64423
1.33373
1.11042
0.985945
0.931467
0.921018
0.935123
0.958198
0.979003
0.992383
0.998661
1.00061
1.00074
1.00044
1.00019
1.00006
1.00001
0.999997
0.999996
0.999998
1
1
1
1
1
1
0.898066
0.903096
0.923755
0.979487
1.09746
1.30742
1.60476
1.88762
2.04459
2.09513
2.10357
2.09512
2.04453
1.8874
1.6041
1.30611
1.09593
0.979455
0.929243
0.920958
0.935976
0.959184
0.979728
0.992771
0.99881
1.00064
1.00073
1.00042
1.00017
1.00004
0.999993
0.999981
0.999983
0.999987
0.999992
0.999996
1
1
1
1
0.903531
0.905354
0.919197
0.962771
1.0591
1.23329
1.4907
1.76767
1.95955
2.04454
2.06537
2.04453
1.9595
1.76747
1.49009
1.23211
1.05765
0.962506
0.923774
0.921326
0.938722
0.962137
0.981823
0.993861
0.999212
1.00071
1.00069
1.00036
1.00011
0.999986
0.999942
0.999934
0.999939
0.99995
0.999962
0.999975
0.999986
0.999995
1
1
0.912992
0.910379
0.914836
0.941958
1.00971
1.13615
1.32997
1.56406
1.7675
1.88741
1.92418
1.8874
1.76747
1.56389
1.32948
1.13517
1.0084
0.9414
0.918126
0.923498
0.943777
0.966973
0.985048
0.995443
0.999741
1.00076
1.00058
1.00023
0.999984
0.99987
0.999832
0.999828
0.99984
0.99986
0.999886
0.999915
0.999944
0.999969
0.999987
0.999996
0.926431
0.91927
0.913996
0.92418
0.963401
1.04302
1.16858
1.32959
1.49011
1.60409
1.64423
1.6041
1.49009
1.32948
1.16822
1.04226
0.96226
0.923356
0.915879
0.928965
0.951408
0.97337
0.98896
0.997194
1.00022
1.0007
1.00037
1.00001
0.999789
0.999692
0.999662
0.999661
0.999674
0.9997
0.999738
0.999787
0.999842
0.999895
0.999936
0.999959
0.943003
0.93235
0.919111
0.914914
0.930236
0.972085
1.04249
1.13524
1.23212
1.30611
1.33373
1.30611
1.23211
1.13517
1.04226
0.971537
0.929282
0.913914
0.919703
0.938512
0.961304
0.980627
0.992944
0.998745
1.00049
1.0005
1.00009
0.999778
0.999627
0.999578
0.999567
0.999558
0.999545
0.999537
0.999549
0.999591
0.999659
0.99974
0.999812
0.999854
0.960817
0.94863
0.930759
0.91665
0.914636
0.929665
0.962401
1.00843
1.05765
1.09593
1.11042
1.09593
1.05765
1.0084
0.96226
0.929282
0.91387
0.915592
0.930351
0.951609
0.972367
0.987716
0.996349
0.999813
1.00052
1.00027
0.999974
0.999864
0.999905
0.999987
1.00002
0.999977
0.999854
0.999694
0.999548
0.999461
0.99945
0.999501
0.999576
0.999628
0.977288
0.965828
0.947326
0.928611
0.916181
0.91417
0.923437
0.941413
0.962503
0.979452
0.985945
0.979455
0.962506
0.9414
0.923356
0.913914
0.915592
0.927605
0.946289
0.966344
0.98292
0.993582
0.998738
1.00039
1.00056
1.0005
1.00067
1.00109
1.00158
1.00196
1.0021
1.00196
1.00156
1.00098
1.00037
0.999842
0.999481
0.9993
0.99925
0.999253
0.990075
0.981108
0.965462
0.94717
0.930786
0.919866
0.91592
0.918128
0.923769
0.929239
0.931467
0.929243
0.923774
0.918126
0.915879
0.919703
0.930351
0.946289
0.964146
0.980053
0.991353
0.997602
1.00016
1.00092
1.00136
1.00217
1.00343
1.00491
1.00626
1.00719
1.00752
1.00719
1.00625
1.00486
1.00324
1.00168
1.00041
0.999527
0.999028
0.998817
0.998074
0.992284
0.981396
0.967088
0.951932
0.938616
0.928984
0.923494
0.92132
0.920955
0.921018
0.920958
0.921326
0.923498
0.928965
0.938512
0.951609
0.966344
0.980053
0.990498
0.99687
0.999926
1.00126
1.00237
1.00416
1.00679
1.00995
1.01308
1.01566
1.01733
1.01791
1.01734
1.01567
1.01306
1.00983
1.00644
1.00337
1.00098
0.999415
0.998665
1.00175
0.998738
0.992603
0.983576
0.97264
0.961389
0.951421
0.943772
0.938716
0.935973
0.935123
0.935976
0.938722
0.943777
0.951408
0.961304
0.972367
0.98292
0.991353
0.99687
0.99983
1.00146
1.0032
1.00608
1.01042
1.0158
1.02137
1.02621
1.02975
1.03181
1.03248
1.03182
1.02975
1.0262
1.02128
1.01551
1.00974
1.0048
1.0013
0.999512
1.00255
1.00138
0.998707
0.994222
0.988012
0.980734
0.973396
0.966973
0.962132
0.959182
0.958198
0.959184
0.962137
0.966973
0.97337
0.980627
0.987716
0.993582
0.997602
0.999926
1.00146
1.00352
1.00728
1.01324
1.02097
1.02915
1.03612
1.04079
1.04311
1.04387
1.04399
1.04387
1.04311
1.04076
1.036
1.02883
1.02031
1.01211
1.00579
1.00241
1.00201
1.00177
1.00102
0.999403
0.996725
0.993111
0.989017
0.98506
0.981823
0.979726
0.979003
0.979728
0.981823
0.985048
0.98896
0.992944
0.996349
0.998738
1.00016
1.00126
1.0032
1.00728
1.01431
1.02399
1.03452
1.04301
1.04705
1.04624
1.04243
1.03852
1.03691
1.03852
1.04241
1.04618
1.04687
1.04262
1.03383
1.0231
1.01377
1.00844
1.0012
1.00128
1.00131
1.00104
1.00029
0.998996
0.997298
0.995475
0.993866
0.992771
0.992383
0.992771
0.993861
0.995443
0.997194
0.998745
0.999813
1.00039
1.00092
1.00237
1.00608
1.01324
1.02399
1.0364
1.04624
1.04874
1.04185
1.02797
1.01244
1.0007
0.996376
1.00069
1.01241
1.02786
1.04159
1.04826
1.0456
1.03604
1.02512
1.01817
1.00057
1.0007
1.0009
1.00106
1.00106
1.00083
1.00038
0.999798
0.999226
0.998812
0.998661
0.99881
0.999212
0.999741
1.00022
1.00049
1.00052
1.00056
1.00136
1.00416
1.01042
1.02097
1.03452
1.04624
1.04874
1.03659
1.01106
0.979501
0.950657
0.931039
0.924147
0.931023
0.950601
0.979355
1.01075
1.03612
1.04836
1.04686
1.03818
1.03107
1.00021
1.0003
1.00046
1.00065
1.00081
1.00091
1.00091
1.00084
1.00073
1.00064
1.00061
1.00064
1.00071
1.00076
1.0007
1.0005
1.00027
1.0005
1.00217
1.00679
1.0158
1.02915
1.04301
1.04874
1.03659
1.00378
0.957765
0.910592
0.872083
0.847616
0.839296
0.847595
0.872015
0.910426
0.957453
1.00342
1.03671
1.05082
1.04997
1.04528
1.00005
1.0001
1.00018
1.0003
1.00043
1.00054
1.00064
1.0007
1.00073
1.00074
1.00074
1.00073
1.00069
1.00058
1.00037
1.00009
0.999974
1.00067
1.00343
1.00995
1.02137
1.03612
1.04705
1.04185
1.01106
0.957765
0.895737
0.839176
0.796515
0.77075
0.762205
0.770726
0.796441
0.839006
0.895454
0.957582
1.01183
1.04565
1.05761
1.05825
0.999999
1.00002
1.00005
1.00011
1.00017
1.00024
1.00031
1.00037
1.00041
1.00043
1.00044
1.00042
1.00036
1.00023
1.00001
0.999778
0.999864
1.00109
1.00491
1.01308
1.02621
1.04079
1.04624
1.02797
0.979501
0.910592
0.839176
0.77914
0.736435
0.711639
0.703579
0.711615
0.736361
0.778976
0.838938
0.91061
0.980932
1.03343
1.06009
1.06791
0.99999
0.999995
1.00001
1.00002
1.00005
1.00008
1.00011
1.00014
1.00017
1.00018
1.00019
1.00017
1.00011
0.999984
0.999789
0.999627
0.999905
1.00158
1.00626
1.01566
1.02975
1.04311
1.04243
1.01244
0.950657
0.872083
0.796515
0.736435
0.695469
0.67238
0.664991
0.672355
0.695396
0.736279
0.796319
0.872268
0.952622
1.01923
1.05878
1.07367
0.999993
0.999994
0.999996
1
1.00001
1.00002
1.00003
1.00004
1.00005
1.00006
1.00006
1.00004
0.999986
0.99987
0.999692
0.999578
0.999987
1.00196
1.00719
1.01733
1.03181
1.04387
1.03852
1.0007
0.931039
0.847616
0.77075
0.711639
0.67238
0.650672
0.643796
0.650648
0.672309
0.711491
0.770583
0.84791
0.933342
1.00831
1.05639
1.07632
0.999996
0.999996
0.999996
0.999996
0.999998
1
1
1.00001
1.00001
1.00001
1.00001
0.999993
0.999942
0.999832
0.999662
0.999567
1.00002
1.0021
1.00752
1.01791
1.03248
1.04399
1.03691
0.996376
0.924147
0.839296
0.762205
0.703579
0.664991
0.643796
0.637108
0.643772
0.664921
0.703433
0.762048
0.839627
0.926565
1.00427
1.05529
1.07702
0.999999
0.999998
0.999998
0.999998
0.999997
0.999997
0.999998
0.999999
1
1
0.999997
0.999981
0.999934
0.999828
0.999661
0.999558
0.999977
1.00196
1.00719
1.01734
1.03182
1.04387
1.03852
1.00069
0.931023
0.847595
0.770726
0.711615
0.672355
0.650648
0.643772
0.650624
0.672285
0.711466
0.770559
0.847889
0.933325
1.0083
1.05639
1.07632
1
0.999999
0.999999
0.999999
0.999999
0.999998
0.999998
0.999998
0.999999
0.999999
0.999996
0.999983
0.999939
0.99984
0.999674
0.999545
0.999854
1.00156
1.00625
1.01567
1.02975
1.04311
1.04241
1.01241
0.950601
0.872015
0.796441
0.736361
0.695396
0.672309
0.664921
0.672285
0.695324
0.736205
0.796246
0.8722
0.952566
1.01919
1.05877
1.07366
1
1
1
1
0.999999
0.999999
0.999999
0.999999
1
1
0.999998
0.999987
0.99995
0.99986
0.9997
0.999537
0.999694
1.00098
1.00486
1.01306
1.0262
1.04076
1.04618
1.02786
0.979355
0.910426
0.839006
0.778976
0.736279
0.711491
0.703433
0.711466
0.736205
0.778812
0.838768
0.910443
0.980785
1.03332
1.06002
1.06786
1
1
1
1
1
1
1
1
1
1
1
0.999992
0.999962
0.999886
0.999738
0.999549
0.999548
1.00037
1.00324
1.00983
1.02128
1.036
1.04687
1.04159
1.01075
0.957453
0.895454
0.838938
0.796319
0.770583
0.762048
0.770559
0.796246
0.838768
0.895172
0.95727
1.01152
1.04539
1.05741
1.05809
1
1
1
1
1
1
1
1
1
1
1
0.999996
0.999975
0.999915
0.999787
0.999591
0.999461
0.999842
1.00168
1.00644
1.01551
1.02883
1.04262
1.04826
1.03612
1.00342
0.957582
0.91061
0.872268
0.84791
0.839627
0.847889
0.8722
0.910443
0.95727
1.00305
1.03622
1.05032
1.04952
1.04489
1
1
1
1
1
1
1
1
1
1
1
1
0.999986
0.999944
0.999842
0.999659
0.99945
0.999481
1.00041
1.00337
1.00974
1.02031
1.03383
1.0456
1.04836
1.03671
1.01183
0.980932
0.952622
0.933342
0.926565
0.933325
0.952566
0.980785
1.01152
1.03622
1.04794
1.04616
1.0374
1.03029
1
1
1
1
1
1
1
1
1
1
1
1
0.999995
0.999969
0.999895
0.99974
0.999501
0.9993
0.999527
1.00098
1.0048
1.01211
1.0231
1.03604
1.04686
1.05082
1.04565
1.03343
1.01923
1.00831
1.00427
1.0083
1.01919
1.03332
1.04539
1.05032
1.04616
1.03558
1.02411
1.01695
1
1
1
1
1
1
1
1
1
1
1
1
1
0.999987
0.999936
0.999812
0.999576
0.99925
0.999028
0.999415
1.0013
1.00579
1.01377
1.02512
1.03818
1.04997
1.05761
1.06009
1.05878
1.05639
1.05529
1.05639
1.05877
1.06002
1.05741
1.04952
1.0374
1.02411
1.01315
1.00707
1
1
1
1
1
1
1
1
1
1
1
1
1
0.999996
0.999959
0.999854
0.999628
0.999253
0.998817
0.998665
0.999512
1.00241
1.00844
1.01817
1.03107
1.04528
1.05825
1.06791
1.07367
1.07632
1.07702
1.07632
1.07366
1.06786
1.05809
1.04489
1.03029
1.01695
1.00707
1.00188
SCALARS C2 double 1
LOOKUP_TABLE default
2.48636
2.4883
2.49417
2.50652
2.5266
2.55322
2.58301
2.61162
2.635
2.65016
2.6554
2.65016
2.63499
2.6116
2.58298
2.5532
2.52669
2.507
2.49557
2.49143
2.49196
2.49439
2.49686
2.49858
2.49951
2.4999
2.50002
2.50004
2.50002
2.50001
2.5
2.5
2.5
2.5
2.5
2.5
2.5
2.5
2.5
2.5
2.4883
2.49362
2.50583
2.52643
2.55505
2.58884
2.62341
2.65428
2.67808
2.69286
2.69784
2.69286
2.67807
2.65426
2.62338
2.58885
2.55525
2.52717
2.50767
2.49722
2.49383
2.49442
2.49635
2.49811
2.49922
2.49977
2.49997
2.50002
2.50002
2.50001
2.50001
2.5
2.5
2.5
2.5
2.5
2.5
2.5
2.5
2.5
2.49417
2.50583
2.52944
2.56403
2.60613
2.65021
2.69035
2.72215
2.74377
2.75572
2.75946
2.75572
2.74376
2.72213
2.69035
2.65031
2.60656
2.56522
2.53199
2.50997
2.49878
2.4953
2.49575
2.49734
2.4987
2.49951
2.49987
2.49999
2.50002
2.50001
2.50001
2.5
2.5
2.5
2.5
2.5
2.5
2.5
2.5
2.5
2.50652
2.52643
2.56403
2.61428
2.66952
2.72092
2.7609
2.7856
2.79625
2.79835
2.79813
2.79834
2.79624
2.78559
2.76094
2.72115
2.67026
2.61606
2.56729
2.53059
2.50829
2.4982
2.49574
2.49657
2.49805
2.49914
2.49971
2.49994
2.50001
2.50001
2.50001
2.5
2.5
2.5
2.5
2.5
2.5
2.5
2.5
2.5
2.5266
2.55505
2.60613
2.66952
2.73237
2.78179
2.8079
2.80779
2.7885
2.76569
2.75574
2.76568
2.78849
2.80779
2.808
2.7822
2.7335
2.67191
2.60986
2.55818
2.52289
2.50399
2.49697
2.49616
2.49741
2.49871
2.4995
2.49986
2.49999
2.50001
2.50001
2.50001
2.5
2.5
2.5
2.5
2.5
2.5
2.5
2.5
2.55322
2.58884
2.65021
2.72092
2.78179
2.814
2.80341
2.74818
2.66641
2.59366
2.5647
2.59365
2.6664
2.74821
2.80362
2.81466
2.78337
2.72387
2.65399
2.5897
2.54154
2.51268
2.49974
2.49636
2.49693
2.49828
2.49927
2.49977
2.49996
2.50001
2.50001
2.50001
2.5
2.5
2.5
2.5
2.5
2.5
2.5
2.5
2.58301
2.62341
2.69035
2.7609
2.8079
2.80341
2.72571
2.57612
2.39662
2.25514
2.20263
2.25513
2.39662
2.57621
2.72608
2.80441
2.80998
2.7643
2.69369
2.62095
2.56181
2.52323
2.50383
2.49723
2.4967
2.49792
2.49904
2.49966
2.49992
2.5
2.50001
2.50001
2.5
2.5
2.5
2.5
2.5
2.5
2.5
2.5
2.61162
2.65428
2.72215
2.7856
2.80779
2.74818
2.57612
2.30949
2.03889
1.85808
1.79778
1.85807
2.0389
2.30964
2.57669
2.74955
2.81037
2.78928
2.72468
2.64802
2.5808
2.53399
2.50851
2.49856
2.49672
2.49766
2.49883
2.49956
2.49988
2.49999
2.50001
2.50001
2.5
2.5
2.5
2.5
2.5
2.5
2.5
2.5
2.635
2.67808
2.74377
2.79625
2.7885
2.66641
2.39662
2.03889
1.73962
1.57376
1.52418
1.57375
1.73964
2.03909
2.39737
2.66815
2.79151
2.80006
2.74534
2.66825
2.596
2.54314
2.5128
2.49997
2.4969
2.4975
2.49868
2.49947
2.49985
2.49998
2.50001
2.50001
2.5
2.5
2.5
2.5
2.5
2.5
2.5
2.5
2.65016
2.69286
2.75572
2.79835
2.76569
2.59366
2.25514
1.85808
1.57376
1.43601
1.39777
1.43601
1.57379
1.8583
2.25599
2.59565
2.76898
2.80219
2.75651
2.68051
2.6057
2.54923
2.5158
2.50104
2.49708
2.49742
2.49858
2.49942
2.49982
2.49997
2.5
2.5
2.5
2.5
2.5
2.5
2.5
2.5
2.5
2.5
2.6554
2.69784
2.75946
2.79813
2.75574
2.5647
2.20263
1.79778
1.52418
1.39777
1.36359
1.39777
1.52422
1.798
2.20351
2.56679
2.75914
2.80197
2.75995
2.68458
2.60902
2.55136
2.51687
2.50143
2.49715
2.49739
2.49855
2.4994
2.49981
2.49996
2.5
2.5
2.5
2.5
2.5
2.5
2.5
2.5
2.5
2.5
2.65016
2.69286
2.75572
2.79834
2.76568
2.59365
2.25513
1.85807
1.57375
1.43601
1.39777
1.43601
1.57378
1.85829
2.25597
2.59564
2.76897
2.80218
2.75651
2.6805
2.6057
2.54923
2.51579
2.50103
2.49707
2.49741
2.49858
2.49942
2.49983
2.49997
2.50001
2.50001
2.50001
2.5
2.5
2.49999
2.49999
2.49999
2.49999
2.49999
2.63499
2.67807
2.74376
2.79624
2.78849
2.6664
2.39662
2.0389
1.73964
1.57379
1.52422
1.57378
1.73966
2.0391
2.39736
2.66814
2.79149
2.80005
2.74532
2.66824
2.59599
2.54313
2.51279
2.49997
2.4969
2.4975
2.4987
2.49951
2.49989
2.50003
2.50006
2.50006
2.50005
2.50003
2.50002
2.50001
2.5
2.49999
2.49999
2.49999
2.6116
2.65426
2.72213
2.78559
2.80779
2.74821
2.57621
2.30964
2.03909
1.8583
1.798
1.85829
2.0391
2.30979
2.57677
2.74959
2.81037
2.78926
2.72465
2.64799
2.58078
2.53397
2.5085
2.49857
2.49676
2.49773
2.49894
2.49971
2.50006
2.50019
2.50022
2.50021
2.50018
2.50015
2.50011
2.50007
2.50003
2.50001
2.49999
2.49998
2.58298
2.62338
2.69035
2.76094
2.808
2.80362
2.72608
2.57669
2.39737
2.25599
2.20351
2.25597
2.39736
2.57677
2.72645
2.80462
2.81008
2.76433
2.69369
2.62093
2.56178
2.52322
2.50385
2.49731
2.49687
2.49817
2.49938
2.5001
2.50042
2.50055
2.50057
2.50056
2.50051
2.50044
2.50035
2.50025
2.50016
2.50008
2.50002
2.5
2.5532
2.58885
2.65031
2.72115
2.7822
2.81466
2.80441
2.74955
2.66815
2.59565
2.56679
2.59564
2.66814
2.74959
2.80462
2.81533
2.78378
2.7241
2.65409
2.58973
2.54155
2.51273
2.49989
2.49665
2.4974
2.49894
2.50011
2.50075
2.50104
2.50114
2.50117
2.50114
2.50108
2.50098
2.50083
2.50066
2.50047
2.50029
2.50016
2.50009
2.52669
2.55525
2.60656
2.67026
2.7335
2.78337
2.80998
2.81037
2.79151
2.76898
2.75914
2.76897
2.79149
2.81037
2.81008
2.78378
2.73463
2.67265
2.61031
2.55843
2.52308
2.50425
2.49742
2.49689
2.49846
2.50004
2.50104
2.50152
2.50168
2.5017
2.50169
2.50169
2.50169
2.50165
2.50154
2.50133
2.50105
2.50075
2.5005
2.50036
2.507
2.52717
2.56522
2.61606
2.67191
2.72387
2.7643
2.78928
2.80006
2.80219
2.80197
2.80218
2.80005
2.78926
2.76433
2.7241
2.67265
2.61786
2.56854
2.53144
2.50896
2.49896
2.4968
2.49803
2.49986
2.50113
2.50164
2.50161
2.50133
2.50104
2.50093
2.50103
2.50132
2.50167
2.50193
2.50199
2.50183
2.50152
2.50118
2.50097
2.49557
2.50767
2.53199
2.56729
2.60986
2.65399
2.69369
2.72468
2.74534
2.75651
2.75995
2.75651
2.74532
2.72465
2.69369
2.65409
2.61031
2.56854
2.53465
2.51203
2.5005
2.49703
2.49774
2.49958
2.50088
2.5011
2.50032
2.49895
2.49749
2.49639
2.49599
2.49638
2.49747
2.49895
2.50045
2.50161
2.50224
2.50237
2.50222
2.50205
2.49143
2.49722
2.50997
2.53059
2.55818
2.5897
2.62095
2.64802
2.66825
2.68051
2.68458
2.6805
2.66824
2.64799
2.62093
2.58973
2.55843
2.53144
2.51203
2.50114
2.49727
2.4976
2.49928
2.50037
2.49986
2.49756
2.4939
2.48965
2.48576
2.48305
2.48208
2.48303
2.48573
2.48963
2.49394
2.49785
2.50075
2.50249
2.50326
2.5035
2.49196
2.49383
2.49878
2.50829
2.52289
2.54154
2.56181
2.5808
2.596
2.6057
2.60902
2.6057
2.59599
2.58078
2.56178
2.54155
2.52308
2.50896
2.5005
2.49727
2.49755
2.49909
2.49984
2.49835
2.49395
2.48678
2.47787
2.46877
2.46107
2.45599
2.45422
2.45598
2.46104
2.46874
2.47789
2.48698
2.49465
2.5001
2.50331
2.50471
2.49439
2.49442
2.4953
2.4982
2.50399
2.51268
2.52323
2.53399
2.54314
2.54923
2.55136
2.54923
2.54313
2.53397
2.52322
2.51273
2.50425
2.49896
2.49703
2.4976
2.49909
2.49961
2.49732
2.49081
2.47965
2.46483
2.44862
2.43375
2.42234
2.41538
2.41306
2.41537
2.42232
2.43374
2.44868
2.4651
2.48044
2.49257
2.50053
2.50434
2.49686
2.49635
2.49575
2.49574
2.49697
2.49974
2.50383
2.50851
2.5128
2.5158
2.51687
2.51579
2.51279
2.5085
2.50385
2.49989
2.49742
2.4968
2.49774
2.49928
2.49984
2.49732
2.48957
2.47516
2.45461
2.43087
2.40845
2.39112
2.38018
2.37473
2.37315
2.37472
2.38018
2.39115
2.40861
2.43135
2.45571
2.47721
2.49255
2.50034
2.49858
2.49811
2.49734
2.49657
2.49616
2.49636
2.49723
2.49856
2.49997
2.50104
2.50143
2.50103
2.49997
2.49857
2.49731
2.49665
2.49689
2.49803
2.49958
2.50037
2.49835
2.49081
2.47516
2.45075
2.42064
2.39156
2.37044
2.36018
2.35853
2.36052
2.36175
2.36052
2.35855
2.36028
2.37075
2.39232
2.42214
2.45302
2.47743
2.49057
2.49951
2.49922
2.4987
2.49805
2.49741
2.49693
2.4967
2.49672
2.4969
2.49708
2.49715
2.49707
2.4969
2.49676
2.49687
2.4974
2.49846
2.49986
2.50088
2.49986
2.49395
2.47965
2.45461
2.42064
2.38579
2.36134
2.35436
2.3631
2.37931
2.39355
2.39909
2.39356
2.37935
2.36326
2.35481
2.36235
2.38755
2.42274
2.45508
2.47386
2.4999
2.49977
2.49951
2.49914
2.49871
2.49828
2.49792
2.49766
2.4975
2.49742
2.49739
2.49741
2.4975
2.49773
2.49817
2.49894
2.50004
2.50113
2.5011
2.49756
2.48678
2.46483
2.43087
2.39156
2.36134
2.35398
2.37219
2.40681
2.44386
2.47116
2.4811
2.47117
2.44392
2.40702
2.37276
2.35514
2.36308
2.3928
2.42816
2.45107
2.50002
2.49997
2.49987
2.49971
2.4995
2.49927
2.49904
2.49883
2.49868
2.49858
2.49855
2.49858
2.4987
2.49894
2.49938
2.50011
2.50104
2.50164
2.50032
2.4939
2.47787
2.44862
2.40845
2.37044
2.35436
2.37219
2.41907
2.4788
2.53405
2.57199
2.58539
2.572
2.53412
2.47905
2.4197
2.37339
2.35581
2.37022
2.40146
2.42533
2.50004
2.50002
2.49999
2.49994
2.49986
2.49977
2.49966
2.49956
2.49947
2.49942
2.4994
2.49942
2.49951
2.49971
2.5001
2.50075
2.50152
2.50161
2.49895
2.48965
2.46877
2.43375
2.39112
2.36018
2.3631
2.40681
2.4788
2.55822
2.62658
2.67176
2.68746
2.67178
2.62666
2.55848
2.47947
2.40797
2.3641
2.35824
2.37952
2.40097
2.50002
2.50002
2.50002
2.50001
2.49999
2.49996
2.49992
2.49988
2.49985
2.49982
2.49981
2.49983
2.49989
2.50006
2.50042
2.50104
2.50168
2.50133
2.49749
2.48576
2.46107
2.42234
2.38018
2.35853
2.37931
2.44386
2.53405
2.62658
2.70313
2.75261
2.76963
2.75263
2.70321
2.62686
2.53473
2.44497
2.37987
2.35502
2.36459
2.38172
2.50001
2.50001
2.50001
2.50001
2.50001
2.50001
2.5
2.49999
2.49998
2.49997
2.49996
2.49997
2.50003
2.50019
2.50055
2.50114
2.5017
2.50104
2.49639
2.48305
2.45599
2.41538
2.37473
2.36052
2.39355
2.47116
2.57199
2.67176
2.75261
2.80427
2.82195
2.80429
2.7527
2.67204
2.57266
2.47222
2.39382
2.35594
2.35648
2.36973
2.5
2.50001
2.50001
2.50001
2.50001
2.50001
2.50001
2.50001
2.50001
2.5
2.5
2.50001
2.50006
2.50022
2.50057
2.50117
2.50169
2.50093
2.49599
2.48208
2.45422
2.41306
2.37315
2.36175
2.39909
2.4811
2.58539
2.68746
2.76963
2.82195
2.83982
2.82197
2.76972
2.68773
2.58607
2.48214
2.39925
2.35679
2.35397
2.36569
2.5
2.5
2.5
2.5
2.50001
2.50001
2.50001
2.50001
2.50001
2.5
2.5
2.50001
2.50006
2.50021
2.50056
2.50114
2.50169
2.50103
2.49638
2.48303
2.45598
2.41537
2.37472
2.36052
2.39356
2.47117
2.572
2.67178
2.75263
2.80429
2.82197
2.80431
2.75271
2.67206
2.57268
2.47223
2.39382
2.35594
2.35647
2.36971
2.5
2.5
2.5
2.5
2.5
2.5
2.5
2.5
2.5
2.5
2.5
2.50001
2.50005
2.50018
2.50051
2.50108
2.50169
2.50132
2.49747
2.48573
2.46104
2.42232
2.38018
2.35855
2.37935
2.44392
2.53412
2.62666
2.70321
2.7527
2.76972
2.75271
2.70329
2.62694
2.5348
2.44503
2.37991
2.35503
2.36459
2.3817
2.5
2.5
2.5
2.5
2.5
2.5
2.5
2.5
2.5
2.5
2.5
2.5
2.50003
2.50015
2.50044
2.50098
2.50165
2.50167
2.49895
2.48963
2.46874
2.43374
2.39115
2.36028
2.36326
2.40702
2.47905
2.55848
2.62686
2.67204
2.68773
2.67206
2.62694
2.55875
2.47972
2.40818
2.36426
2.35833
2.37955
2.40097
2.5
2.5
2.5
2.5
2.5
2.5
2.5
2.5
2.5
2.5
2.5
2.5
2.50002
2.50011
2.50035
2.50083
2.50154
2.50193
2.50045
2.49394
2.47789
2.44868
2.40861
2.37075
2.35481
2.37276
2.4197
2.47947
2.53473
2.57266
2.58607
2.57268
2.5348
2.47972
2.42033
2.37395
2.35626
2.37053
2.40164
2.42543
2.5
2.5
2.5
2.5
2.5
2.5
2.5
2.5
2.5
2.5
2.5
2.49999
2.50001
2.50007
2.50025
2.50066
2.50133
2.50199
2.50161
2.49785
2.48698
2.4651
2.43135
2.39232
2.36235
2.35514
2.37339
2.40797
2.44497
2.47222
2.48214
2.47223
2.44503
2.40818
2.37395
2.35631
2.3641
2.39358
2.4287
2.45145
2.5
2.5
2.5
2.5
2.5
2.5
2.5
2.5
2.5
2.5
2.5
2.49999
2.5
2.50003
2.50016
2.50047
2.50105
2.50183
2.50224
2.50075
2.49465
2.48044
2.45571
2.42214
2.38755
2.36308
2.35581
2.3641
2.37987
2.39382
2.39925
2.39382
2.37991
2.36426
2.35626
2.3641
2.38934
2.42429
2.45631
2.47487
2.5
2.5
2.5
2.5
2.5
2.5
2.5
2.5
2.5
2.5
2.5
2.49999
2.49999
2.50001
2.50008
2.50029
2.50075
2.50152
2.50237
2.50249
2.5001
2.49257
2.47721
2.45302
2.42274
2.3928
2.37022
2.35824
2.35502
2.35594
2.35679
2.35594
2.35503
2.35833
2.37053
2.39358
2.42429
2.45544
2.47971
2.49267
2.5
2.5
2.5
2.5
2.5
2.5
2.5
2.5
2.5
2.5
2.5
2.49999
2.49999
2.49999
2.50002
2.50016
2.5005
2.50118
2.50222
2.50326
2.50331
2.50053
2.49255
2.47743
2.45508
2.42816
2.40146
2.37952
2.36459
2.35648
2.35397
2.35647
2.36459
2.37955
2.40164
2.4287
2.45631
2.47971
2.49587
2.50389
2.5
2.5
2.5
2.5
2.5
2.5
2.5
2.5
2.5
2.5
2.5
2.49999
2.49999
2.49998
2.5
2.50009
2.50036
2.50097
2.50205
2.5035
2.50471
2.50434
2.50034
2.49057
2.47386
2.45107
2.42533
2.40097
2.38172
2.36973
2.36569
2.36971
2.3817
2.40097
2.42543
2.45145
2.47487
2.49267
2.50389
2.50909
