# vtk DataFile Version 3.0
Brusselator Concentration Output
ASCII
DATASET STRUCTURED_POINTS
DIMENSIONS 40 40 1
ORIGIN 0.0 0.0 0.0
SPACING 0.005 0.005 1.0
POINT_DATA 1600
SCALARS C1 double 1
LOOKUP_TABLE default
0.999991
0.999979
0.999954
0.999916
0.999879
0.999874
0.999941
1.00009
1.00029
1.00046
1.00053
1.00046
1.00029
1.00009
0.999941
0.999874
0.999878
0.999916
0.999954
0.99998
0.999993
0.999998
1
1
1
1
1
1
1
1
1
1
1
1
1
1
1
1
1
1
0.999979
0.999962
0.999929
0.9999
0.999923
1.00007
1.00041
1.00092
1.00147
1.00188
1.00204
1.00188
1.00147
1.00092
1.00041
1.00007
0.999923
0.9999
0.99993
0.999963
0.999985
0.999995
0.999999
1
1
1
1
1
1
1
1
1
1
1
1
1
1
1
1
1
0.999954
0.999929
0.999903
0.999948
1.0002
1.00084
1.00193
1.00331
1.00462
1.00549
1.00579
1.00549
1.00462
1.00331
1.00193
1.00084
1.0002
0.999948
0.999904
0.999933
0.999967
0.999987
0.999996
0.999999
1
1
1
1
1
1
1
1
1
1
1
1
1
1
1
1
0.999916
0.9999
0.999948
1.00026
1.00114
1.00289
1.00542
1.00814
1.01023
1.01134
1.01165
1.01134
1.01023
1.00814
1.00542
1.00289
1.00114
1.00026
0.999951
0.99991
0.999942
0.999974
0.999991
0.999997
0.999999
1
1
1
1
1
1
1
1
1
1
1
1
1
1
1
0.999879
0.999923
1.0002
1.00114
1.00328
1.00686
1.01116
1.01452
1.01568
1.01519
1.01475
1.01519
1.01568
1.01452
1.01116
1.00686
1.00328
1.00114
1.00021
0.99994
0.999922
0.999956
0.999982
0.999994
0.999999
1
1
1
1
1
1
1
1
1
1
1
1
1
1
1
0.999874
1.00007
1.00084
1.00289
1.00686
1.01234
1.01686
1.01697
1.01196
1.00559
1.0028
1.00559
1.01196
1.01697
1.01686
1.01234
1.00686
1.00289
1.00085
1.0001
0.999933
0.999941
0.999972
0.99999
0.999997
0.999999
1
1
1
1
1
1
1
1
1
1
1
1
1
1
0.999941
1.00041
1.00193
1.00542
1.01116
1.01686
1.01686
1.00622
0.987589
0.970633
0.964001
0.970633
0.987589
1.00622
1.01686
1.01686
1.01116
1.00543
1.00195
1.00045
1
0.999939
0.999962
0.999985
0.999995
0.999999
1
1
1
1
1
1
1
1
1
1
1
1
1
1
1.00009
1.00092
1.00331
1.00814
1.01452
1.01697
1.00622
0.978251
0.942367
0.914178
0.903872
0.914178
0.942367
0.978251
1.00622
1.01697
1.01452
1.00815
1.00334
1.00097
1.00014
0.999956
0.999956
0.99998
0.999993
0.999998
1
1
1
1
1
1
1
1
1
1
1
1
1
1
1.00029
1.00147
1.00462
1.01023
1.01568
1.01196
0.987589
0.942367
0.8926
0.856965
0.844536
0.856965
0.8926
0.942367
0.987589
1.01196
1.01568
1.01024
1.00464
1.00151
1.0003
0.999988
0.999956
0.999976
0.999991
0.999997
0.999999
1
1
1
1
1
1
1
1
1
1
1
1
1
1.00046
1.00188
1.00549
1.01134
1.01519
1.00559
0.970633
0.914178
0.856965
0.818195
0.80508
0.818195
0.856965
0.914178
0.970633
1.00559
1.0152
1.01135
1.00552
1.00193
1.00044
1.00002
0.999958
0.999974
0.99999
0.999997
0.999999
1
1
1
1
1
1
1
1
1
1
1
1
1
1.00053
1.00204
1.00579
1.01165
1.01475
1.0028
0.964001
0.903872
0.844536
0.80508
0.791881
0.80508
0.844536
0.903872
0.964001
1.0028
1.01476
1.01166
1.00582
1.00208
1.0005
1.00003
0.99996
0.999974
0.99999
0.999997
0.999999
1
1
1
1
1
1
1
1
1
1
1
1
1
1.00046
1.00188
1.00549
1.01134
1.01519
1.00559
0.970633
0.914178
0.856965
0.818195
0.80508
0.818195
0.856965
0.914178
0.970633
1.00559
1.0152
1.01135
1.00552
1.00193
1.00044
1.00002
0.999958
0.999974
0.99999
0.999997
0.999999
1
1
1
1
1
1
1
1
1
1
1
1
1
1.00029
1.00147
1.00462
1.01023
1.01568
1.01196
0.987589
0.942367
0.8926
0.856965
0.844536
0.856965
0.8926
0.942367
0.987589
1.01196
1.01568
1.01024
1.00464
1.00151
1.0003
0.999988
0.999956
0.999976
0.999991
0.999997
0.999999
1
1
1
1
1
1
1
1
1
1
1
1
1
1.00009
1.00092
1.00331
1.00814
1.01452
1.01697
1.00622
0.978251
0.942367
0.914178
0.903872
0.914178
0.942367
0.978251
1.00622
1.01697
1.01452
1.00815
1.00334
1.00097
1.00014
0.999956
0.999956
0.99998
0.999993
0.999998
1
1
1
1
1
1
1
1
1
1
1
1
1
1
0.999941
1.00041
1.00193
1.00542
1.01116
1.01686
1.01686
1.00622
0.987589
0.970633
0.964001
0.970633
0.987589
1.00622
1.01686
1.01686
1.01116
1.00543
1.00195
1.00045
1
0.999939
0.999962
0.999984
0.999995
0.999999
1
1
1
1
1
1
1
1
1
1
1
1
1
1
0.999874
1.00007
1.00084
1.00289
1.00686
1.01234
1.01686
1.01697
1.01196
1.00559
1.0028
1.00559
1.01196
1.01697
1.01686
1.01234
1.00686
1.00289
1.00085
1.0001
0.999933
0.999941
0.999972
0.99999
0.999997
1
1
1
1
1
1
1
1
1
1
1
1
1
1
1
0.999878
0.999923
1.0002
1.00114
1.00328
1.00686
1.01116
1.01452
1.01568
1.0152
1.01476
1.0152
1.01568
1.01452
1.01116
1.00686
1.00328
1.00114
1.00021
0.99994
0.999922
0.999956
0.999982
0.999994
0.999999
1
1
1
1
1
1
1
1
1
1
1
1
1
1
1
0.999916
0.9999
0.999948
1.00026
1.00114
1.00289
1.00543
1.00815
1.01024
1.01135
1.01166
1.01135
1.01024
1.00815
1.00543
1.00289
1.00114
1.00026
0.999951
0.99991
0.999942
0.999974
0.999991
0.999998
1
1
1.00001
1.00001
1.00001
1.00001
1.00001
1.00001
1.00001
1.00001
1.00001
1
1
1
1
1
0.999954
0.99993
0.999904
0.999951
1.00021
1.00085
1.00195
1.00334
1.00464
1.00552
1.00582
1.00552
1.00464
1.00334
1.00195
1.00085
1.00021
0.999951
0.999905
0.999934
0.999967
0.999988
0.999997
1
1.00001
1.00001
1.00002
1.00002
1.00002
1.00002
1.00002
1.00002
1.00002
1.00002
1.00002
1.00001
1.00001
1
1
1
0.99998
0.999963
0.999933
0.99991
0.99994
1.0001
1.00045
1.00097
1.00151
1.00193
1.00208
1.00193
1.00151
1.00097
1.00045
1.0001
0.99994
0.99991
0.999934
0.999965
0.999985
0.999997
1
1.00001
1.00002
1.00003
1.00003
1.00003
1.00002
1.00001
1.00001
1.00001
1.00002
1.00003
1.00003
1.00003
1.00002
1.00001
1
1
0.999993
0.999985
0.999967
0.999942
0.999922
0.999933
1
1.00014
1.0003
1.00044
1.0005
1.00044
1.0003
1.00014
1
0.999933
0.999922
0.999942
0.999967
0.999985
0.999996
1
1.00001
1.00002
1.00003
1.00004
1.00002
0.999987
0.999934
0.999888
0.99987
0.999888
0.999934
0.999987
1.00002
1.00004
1.00003
1.00002
1.00001
1.00001
0.999998
0.999995
0.999987
0.999974
0.999956
0.999941
0.999939
0.999956
0.999988
1.00002
1.00003
1.00002
0.999988
0.999956
0.999939
0.999941
0.999956
0.999974
0.999988
0.999997
1
1.00001
1.00003
1.00004
1.00004
1
0.999899
0.999726
0.99953
0.999376
0.999319
0.999376
0.99953
0.999726
0.999899
1
1.00004
1.00004
1.00003
1.00002
1
0.999999
0.999996
0.999991
0.999982
0.999972
0.999962
0.999956
0.999956
0.999958
0.99996
0.999958
0.999956
0.999956
0.999962
0.999972
0.999982
0.999991
0.999997
1
1.00001
1.00003
1.00004
1.00005
0.999979
0.999778
0.999398
0.998881
0.998361
0.997989
0.997857
0.997989
0.998361
0.998881
0.999398
0.999778
0.99998
1.00005
1.00005
1.00004
1
1
0.999999
0.999997
0.999994
0.99999
0.999985
0.99998
0.999976
0.999974
0.999974
0.999974
0.999976
0.99998
0.999984
0.99999
0.999994
0.999998
1
1.00001
1.00002
1.00004
1.00005
0.999967
0.999688
0.999076
0.998107
0.996964
0.995966
0.995343
0.99514
0.995343
0.995966
0.996964
0.998107
0.999076
0.999689
0.999971
1.00005
1.00006
1
1
1
0.999999
0.999999
0.999997
0.999995
0.999993
0.999991
0.99999
0.99999
0.99999
0.999991
0.999993
0.999995
0.999997
0.999999
1
1.00001
1.00002
1.00003
1.00004
0.999979
0.999688
0.99894
0.997566
0.995706
0.993886
0.992674
0.992182
0.992088
0.992182
0.992674
0.993886
0.995706
0.997566
0.998942
0.999695
0.999996
1.00008
1
1
1
1
1
0.999999
0.999999
0.999998
0.999997
0.999997
0.999997
0.999997
0.999997
0.999998
0.999999
1
1
1
1.00001
1.00003
1.00004
1
0.999778
0.999076
0.997566
0.995197
0.992585
0.990876
0.990787
0.991723
0.99227
0.991723
0.990787
0.990876
0.992585
0.995198
0.997569
0.999087
0.999803
1.00004
1
1
1
1
1
1
1
1
0.999999
0.999999
0.999999
0.999999
0.999999
1
1
1
1
1.00001
1.00002
1.00003
1.00002
0.999899
0.999398
0.998107
0.995706
0.992585
0.990292
0.990835
0.994707
0.999543
1.00171
0.999543
0.994707
0.990835
0.990292
0.992587
0.995712
0.998122
0.999428
0.999924
1
1
1
1
1
1
1
1
1
1
1
1
1
1
1
1
1
1.00001
1.00002
1.00003
0.999987
0.999726
0.998881
0.996964
0.993886
0.990876
0.990835
0.99674
1.00827
1.02003
1.02494
1.02003
1.00827
0.99674
0.990835
0.990878
0.993894
0.996983
0.99891
0.999713
1
1
1
1
1
1
1
1
1
1
1
1
1
1
1
1
1
1.00001
1.00002
1.00002
0.999934
0.99953
0.998361
0.995966
0.992674
0.990787
0.994707
1.00827
1.02983
1.0501
1.05826
1.0501
1.02983
1.00827
0.994708
0.99079
0.992684
0.995986
0.998382
0.999464
1
1
1
1
1
1
1
1
1
1
1
1
1
1
1
1
1
1.00001
1.00002
1.00001
0.999888
0.999376
0.997989
0.995343
0.992182
0.991723
0.999543
1.02003
1.0501
1.07711
1.08766
1.07711
1.0501
1.02003
0.999544
0.991726
0.992193
0.995364
0.998002
0.999265
1
1
1
1
1
1
1
1
1
1
1
1
1
1
1
1
1
1.00001
1.00002
1.00001
0.99987
0.999319
0.997857
0.99514
0.992088
0.99227
1.00171
1.02494
1.05826
1.08766
1.09901
1.08766
1.05826
1.02494
1.00171
0.992274
0.992098
0.995161
0.997866
0.999189
1
1
1
1
1
1
1
1
1
1
1
1
1
1
1
1
1
1.00001
1.00002
1.00001
0.999888
0.999376
0.997989
0.995343
0.992182
0.991723
0.999543
1.02003
1.0501
1.07711
1.08766
1.07711
1.0501
1.02003
0.999544
0.991726
0.992193
0.995364
0.998002
0.999265
1
1
1
1
1
1
1
1
1
1
1
1
1
1
1
1
1
1.00001
1.00002
1.00002
0.999934
0.99953
0.998361
0.995966
0.992674
0.990787
0.994707
1.00827
1.02983
1.0501
1.05826
1.0501
1.02983
1.00827
0.994708
0.99079
0.992684
0.995986
0.998382
0.999464
1
1
1
1
1
1
1
1
1
1
1
1
1
1
1
1
1
1.00001
1.00002
1.00003
0.999987
0.999726
0.998881
0.996964
0.993886
0.990876
0.990835
0.99674
1.00827
1.02003
1.02494
1.02003
1.00827
0.99674
0.990835
0.990878
0.993894
0.996983
0.99891
0.999713
1
1
1
1
1
1
1
1
1
1
1
1
1
1
1
1
1
1.00001
1.00002
1.00003
1.00002
0.999899
0.999398
0.998107
0.995706
0.992585
0.990292
0.990835
0.994708
0.999544
1.00171
0.999544
0.994708
0.990835
0.990293
0.992587
0.995712
0.998122
0.999428
0.999924
1
1
1
1
1
1
1
1
1
1
1
1
1
1
1
1
1
1
1.00001
1.00003
1.00004
1
0.999778
0.999076
0.997566
0.995198
0.992587
0.990878
0.99079
0.991726
0.992274
0.991726
0.99079
0.990878
0.992587
0.995198
0.99757
0.999087
0.999803
1.00004
1
1
1
1
1
1
1
1
1
1
1
1
1
1
1
1
1
1
1.00001
1.00002
1.00003
1.00004
0.99998
0.999689
0.998942
0.997569
0.995712
0.993894
0.992684
0.992193
0.992098
0.992193
0.992684
0.993894
0.995712
0.99757
0.998943
0.999696
0.999997
1.00008
1
1
1
1
1
1
1
1
1
1
1
1
1
1
1
1
1
1
1
1.00001
1.00002
1.00004
1.00005
0.999971
0.999695
0.999087
0.998122
0.996983
0.995986
0.995364
0.995161
0.995364
0.995986
0.996983
0.998122
0.999087
0.999696
0.999974
1.00006
1.00007
1
1
1
1
1
1
1
1
1
1
1
1
1
1
1
1
1
1
1
1
1.00001
1.00003
1.00005
1.00005
0.999996
0.999803
0.999428
0.99891
0.998382
0.998002
0.997866
0.998002
0.998382
0.99891
0.999428
0.999803
0.999997
1.00006
1.00005
1.00004
1
1
1
1
1
1
1
1
1
1
1
1
1
1
1
1
1
1
1
1
1.00001
1.00002
1.00004
1.00006
1.00008
1.00004
0.999924
0.999713
0.999464
0.999265
0.999189
0.999265
0.999464
0.999713
0.999924
1.00004
1.00008
1.00007
1.00004
1.00003
SCALARS C2 double 1
LOOKUP_TABLE default
2.50001
2.50002
2.50005
2.50011
2.50021
2.50032
2.5004
2.50039
2.5003
2.5002
2.50015
2.5002
2.5003
2.50039
2.5004
2.50032
2.50021
2.50011
2.50005
2.50002
2.50001
2.5
2.5
2.5
2.5
2.5
2.5
2.5
2.5
2.5
2.5
2.5
2.5
2.5
2.5
2.5
2.5
2.5
2.5
2.5
2.50002
2.50004
2.5001
2.5002
2.5003
2.50034
2.5002
2.49981
2.49928
2.49881
2.49862
2.49881
2.49928
2.49981
2.5002
2.50034
2.5003
2.5002
2.5001
2.50004
2.50001
2.5
2.5
2.5
2.5
2.5
2.5
2.5
2.5
2.5
2.5
2.5
2.5
2.5
2.5
2.5
2.5
2.5
2.5
2.5
2.50005
2.5001
2.50021
2.50033
2.50033
2.49997
2.49898
2.49736
2.4955
2.49404
2.49349
2.49404
2.4955
2.49736
2.49898
2.49997
2.50033
2.50033
2.50021
2.5001
2.50004
2.50001
2.5
2.5
2.5
2.5
2.5
2.5
2.5
2.5
2.5
2.5
2.5
2.5
2.5
2.5
2.5
2.5
2.5
2.5
2.50011
2.5002
2.50033
2.50033
2.4998
2.49813
2.49489
2.49038
2.48579
2.48253
2.48138
2.48253
2.48579
2.49038
2.49489
2.49813
2.4998
2.50033
2.50032
2.50019
2.50008
2.50003
2.50001
2.5
2.5
2.5
2.5
2.5
2.5
2.5
2.5
2.5
2.5
2.5
2.5
2.5
2.5
2.5
2.5
2.5
2.50021
2.5003
2.50033
2.4998
2.49776
2.49308
2.48536
2.47608
2.46807
2.4633
2.46183
2.4633
2.46807
2.47608
2.48536
2.49308
2.49776
2.4998
2.50032
2.50029
2.50015
2.50006
2.50002
2.5
2.5
2.5
2.5
2.5
2.5
2.5
2.5
2.5
2.5
2.5
2.5
2.5
2.5
2.5
2.5
2.5
2.50032
2.50034
2.49997
2.49813
2.49308
2.48324
2.46941
2.45598
2.44794
2.44577
2.44578
2.44577
2.44794
2.45598
2.46941
2.48324
2.49308
2.49813
2.49996
2.50031
2.50022
2.5001
2.50004
2.50001
2.5
2.5
2.5
2.5
2.5
2.5
2.5
2.5
2.5
2.5
2.5
2.5
2.5
2.5
2.5
2.5
2.5004
2.5002
2.49898
2.49489
2.48536
2.46941
2.45138
2.44067
2.44283
2.45204
2.45687
2.45204
2.44283
2.44067
2.45138
2.46941
2.48536
2.49489
2.49897
2.50014
2.50025
2.50014
2.50006
2.50002
2.5
2.5
2.5
2.5
2.5
2.5
2.5
2.5
2.5
2.5
2.5
2.5
2.5
2.5
2.5
2.5
2.50039
2.49981
2.49736
2.49038
2.47608
2.45598
2.44067
2.44451
2.46922
2.49817
2.51063
2.49817
2.46922
2.44451
2.44067
2.45598
2.47608
2.49037
2.49734
2.49973
2.50022
2.50017
2.50008
2.50003
2.50001
2.5
2.5
2.5
2.5
2.5
2.5
2.5
2.5
2.5
2.5
2.5
2.5
2.5
2.5
2.5
2.5003
2.49928
2.4955
2.48579
2.46807
2.44794
2.44283
2.46922
2.5214
2.57175
2.5921
2.57175
2.5214
2.46922
2.44283
2.44794
2.46807
2.48578
2.49547
2.49918
2.50012
2.50018
2.50009
2.50003
2.50001
2.5
2.5
2.5
2.5
2.5
2.5
2.5
2.5
2.5
2.5
2.5
2.5
2.5
2.5
2.5
2.5002
2.49881
2.49404
2.48253
2.4633
2.44577
2.45204
2.49817
2.57175
2.63788
2.66393
2.63788
2.57175
2.49817
2.45204
2.44577
2.4633
2.48252
2.494
2.4987
2.50002
2.50018
2.5001
2.50004
2.50001
2.5
2.5
2.5
2.5
2.5
2.5
2.5
2.5
2.5
2.5
2.5
2.5
2.5
2.5
2.5
2.50015
2.49862
2.49349
2.48138
2.46183
2.44578
2.45687
2.51063
2.5921
2.66393
2.69203
2.66393
2.5921
2.51063
2.45687
2.44578
2.46183
2.48137
2.49344
2.49851
2.49997
2.50017
2.50011
2.50004
2.50001
2.5
2.5
2.5
2.5
2.5
2.5
2.5
2.5
2.5
2.5
2.5
2.5
2.5
2.5
2.5
2.5002
2.49881
2.49404
2.48253
2.4633
2.44577
2.45204
2.49817
2.57175
2.63788
2.66393
2.63788
2.57175
2.49817
2.45204
2.44577
2.4633
2.48252
2.494
2.4987
2.50002
2.50018
2.5001
2.50004
2.50001
2.5
2.5
2.5
2.5
2.5
2.5
2.5
2.5
2.5
2.5
2.5
2.5
2.5
2.5
2.5
2.5003
2.49928
2.4955
2.48579
2.46807
2.44794
2.44283
2.46922
2.5214
2.57175
2.5921
2.57175
2.5214
2.46922
2.44283
2.44794
2.46807
2.48578
2.49547
2.49918
2.50012
2.50018
2.50009
2.50003
2.50001
2.5
2.5
2.5
2.5
2.5
2.5
2.5
2.5
2.5
2.5
2.5
2.5
2.5
2.5
2.5
2.50039
2.49981
2.49736
2.49038
2.47608
2.45598
2.44067
2.44451
2.46922
2.49817
2.51063
2.49817
2.46922
2.44451
2.44067
2.45598
2.47608
2.49037
2.49734
2.49973
2.50022
2.50017
2.50008
2.50003
2.50001
2.5
2.5
2.5
2.5
2.5
2.5
2.5
2.5
2.5
2.5
2.5
2.5
2.5
2.5
2.5
2.5004
2.5002
2.49898
2.49489
2.48536
2.46941
2.45138
2.44067
2.44283
2.45204
2.45687
2.45204
2.44283
2.44067
2.45138
2.46941
2.48536
2.49489
2.49897
2.50014
2.50025
2.50014
2.50006
2.50002
2.5
2.5
2.5
2.5
2.5
2.5
2.5
2.5
2.5
2.5
2.5
2.5
2.5
2.5
2.5
2.5
2.50032
2.50034
2.49997
2.49813
2.49308
2.48324
2.46941
2.45598
2.44794
2.44577
2.44578
2.44577
2.44794
2.45598
2.46941
2.48324
2.49308
2.49813
2.49996
2.50031
2.50022
2.5001
2.50004
2.50001
2.5
2.5
2.5
2.5
2.5
2.5
2.5
2.5
2.5
2.5
2.5
2.5
2.5
2.5
2.5
2.5
2.50021
2.5003
2.50033
2.4998
2.49776
2.49308
2.48536
2.47608
2.46807
2.4633
2.46183
2.4633
2.46807
2.47608
2.48536
2.49308
2.49776
2.4998
2.50032
2.50029
2.50015
2.50006
2.50002
2.5
2.5
2.5
2.5
2.5
2.5
2.5
2.5
2.5
2.5
2.5
2.5
2.5
2.5
2.5
2.5
2.5
2.50011
2.5002
2.50033
2.50033
2.4998
2.49813
2.49489
2.49037
2.48578
2.48252
2.48137
2.48252
2.48578
2.49037
2.49489
2.49813
2.4998
2.50033
2.50032
2.50019
2.50008
2.50003
2.50001
2.5
2.5
2.5
2.49999
2.49999
2.49999
2.49999
2.49998
2.49999
2.49999
2.49999
2.49999
2.5
2.5
2.5
2.5
2.5
2.50005
2.5001
2.50021
2.50032
2.50032
2.49996
2.49897
2.49734
2.49547
2.494
2.49344
2.494
2.49547
2.49734
2.49897
2.49996
2.50032
2.50032
2.50021
2.5001
2.50004
2.50001
2.5
2.5
2.49999
2.49999
2.49998
2.49997
2.49996
2.49996
2.49996
2.49996
2.49996
2.49997
2.49998
2.49999
2.49999
2.5
2.5
2.5
2.50002
2.50004
2.5001
2.50019
2.50029
2.50031
2.50014
2.49973
2.49918
2.4987
2.49851
2.4987
2.49918
2.49973
2.50014
2.50031
2.50029
2.50019
2.5001
2.50004
2.50001
2.5
2.5
2.49999
2.49998
2.49996
2.49994
2.49993
2.49992
2.49991
2.49991
2.49991
2.49992
2.49993
2.49994
2.49996
2.49998
2.49999
2.5
2.5
2.50001
2.50001
2.50004
2.50008
2.50015
2.50022
2.50025
2.50022
2.50012
2.50002
2.49997
2.50002
2.50012
2.50022
2.50025
2.50022
2.50015
2.50008
2.50004
2.50001
2.5
2.5
2.49999
2.49997
2.49994
2.49991
2.49988
2.49988
2.49989
2.49992
2.49993
2.49992
2.49989
2.49988
2.49988
2.49991
2.49994
2.49997
2.49999
2.49999
2.5
2.5
2.50001
2.50003
2.50006
2.5001
2.50014
2.50017
2.50018
2.50018
2.50017
2.50018
2.50018
2.50017
2.50014
2.5001
2.50006
2.50003
2.50001
2.5
2.5
2.49999
2.49996
2.49993
2.49988
2.49984
2.49986
2.49997
2.50013
2.50029
2.50035
2.50029
2.50013
2.49997
2.49986
2.49984
2.49988
2.49993
2.49996
2.49998
2.5
2.5
2.5
2.50001
2.50002
2.50004
2.50006
2.50008
2.50009
2.5001
2.50011
2.5001
2.50009
2.50008
2.50006
2.50004
2.50002
2.50001
2.5
2.5
2.49999
2.49996
2.49992
2.49986
2.49982
2.49988
2.50016
2.50068
2.50133
2.50187
2.50207
2.50187
2.50133
2.50068
2.50016
2.49988
2.49982
2.49986
2.49992
2.49995
2.5
2.5
2.5
2.5
2.5
2.50001
2.50002
2.50003
2.50003
2.50004
2.50004
2.50004
2.50003
2.50003
2.50002
2.50001
2.5
2.5
2.5
2.49999
2.49997
2.49993
2.49986
2.49981
2.49991
2.50039
2.50146
2.50308
2.50486
2.5062
2.50669
2.5062
2.50486
2.50308
2.50146
2.50039
2.49991
2.49981
2.49985
2.4999
2.5
2.5
2.5
2.5
2.5
2.5
2.5
2.50001
2.50001
2.50001
2.50001
2.50001
2.50001
2.50001
2.5
2.5
2.5
2.5
2.49999
2.49998
2.49994
2.49988
2.49982
2.49991
2.5005
2.50205
2.50487
2.50859
2.51222
2.51471
2.51556
2.51471
2.51222
2.50859
2.50487
2.50205
2.5005
2.4999
2.4998
2.49982
2.5
2.5
2.5
2.5
2.5
2.5
2.5
2.5
2.5
2.5
2.5
2.5
2.5
2.5
2.5
2.5
2.5
2.5
2.49999
2.49996
2.49991
2.49984
2.49988
2.50039
2.50205
2.50563
2.51127
2.5178
2.52325
2.52634
2.52724
2.52634
2.52325
2.5178
2.51126
2.50563
2.50205
2.50038
2.49984
2.49975
2.5
2.5
2.5
2.5
2.5
2.5
2.5
2.5
2.5
2.5
2.5
2.5
2.5
2.5
2.5
2.5
2.5
2.49999
2.49998
2.49994
2.49988
2.49986
2.50016
2.50146
2.50487
2.51127
2.52008
2.52863
2.53372
2.53481
2.53459
2.53481
2.53372
2.52863
2.52008
2.51126
2.50486
2.50144
2.5001
2.49975
2.5
2.5
2.5
2.5
2.5
2.5
2.5
2.5
2.5
2.5
2.5
2.5
2.5
2.5
2.5
2.5
2.5
2.49999
2.49997
2.49993
2.49988
2.49997
2.50068
2.50308
2.50859
2.5178
2.52863
2.53603
2.53568
2.5297
2.52618
2.5297
2.53568
2.53603
2.52863
2.5178
2.50858
2.50305
2.50061
2.49984
2.5
2.5
2.5
2.5
2.5
2.5
2.5
2.5
2.5
2.5
2.5
2.5
2.5
2.5
2.5
2.5
2.5
2.49999
2.49996
2.49992
2.49989
2.50013
2.50133
2.50486
2.51222
2.52325
2.53372
2.53568
2.52404
2.50562
2.49664
2.50562
2.52404
2.53568
2.53372
2.52325
2.51221
2.50482
2.50125
2.50003
2.5
2.5
2.5
2.5
2.5
2.5
2.5
2.5
2.5
2.5
2.5
2.5
2.5
2.5
2.5
2.5
2.5
2.49999
2.49996
2.49991
2.49992
2.50029
2.50187
2.5062
2.51471
2.52634
2.53481
2.5297
2.50562
2.47444
2.46009
2.47444
2.50562
2.5297
2.53481
2.52633
2.51469
2.50616
2.50178
2.50021
2.5
2.5
2.5
2.5
2.5
2.5
2.5
2.5
2.5
2.5
2.5
2.5
2.5
2.5
2.5
2.5
2.5
2.49998
2.49996
2.49991
2.49993
2.50035
2.50207
2.50669
2.51556
2.52724
2.53459
2.52618
2.49664
2.46009
2.44356
2.46009
2.49664
2.52618
2.53459
2.52723
2.51555
2.50665
2.50199
2.50028
2.5
2.5
2.5
2.5
2.5
2.5
2.5
2.5
2.5
2.5
2.5
2.5
2.5
2.5
2.5
2.5
2.5
2.49999
2.49996
2.49991
2.49992
2.50029
2.50187
2.5062
2.51471
2.52634
2.53481
2.5297
2.50562
2.47444
2.46009
2.47444
2.50562
2.5297
2.53481
2.52633
2.51469
2.50616
2.50178
2.50021
2.5
2.5
2.5
2.5
2.5
2.5
2.5
2.5
2.5
2.5
2.5
2.5
2.5
2.5
2.5
2.5
2.5
2.49999
2.49996
2.49992
2.49989
2.50013
2.50133
2.50486
2.51222
2.52325
2.53372
2.53568
2.52404
2.50562
2.49664
2.50562
2.52404
2.53568
2.53372
2.52325
2.51221
2.50482
2.50125
2.50003
2.5
2.5
2.5
2.5
2.5
2.5
2.5
2.5
2.5
2.5
2.5
2.5
2.5
2.5
2.5
2.5
2.5
2.49999
2.49997
2.49993
2.49988
2.49997
2.50068
2.50308
2.50859
2.5178
2.52863
2.53603
2.53568
2.5297
2.52618
2.5297
2.53568
2.53603
2.52863
2.5178
2.50858
2.50305
2.50061
2.49984
2.5
2.5
2.5
2.5
2.5
2.5
2.5
2.5
2.5
2.5
2.5
2.5
2.5
2.5
2.5
2.5
2.5
2.49999
2.49998
2.49994
2.49988
2.49986
2.50016
2.50146
2.50487
2.51126
2.52008
2.52863
2.53372
2.53481
2.53459
2.53481
2.53372
2.52863
2.52008
2.51126
2.50486
2.50144
2.5001
2.49975
2.5
2.5
2.5
2.5
2.5
2.5
2.5
2.5
2.5
2.5
2.5
2.5
2.5
2.5
2.5
2.5
2.5
2.5
2.49999
2.49996
2.49991
2.49984
2.49988
2.50039
2.50205
2.50563
2.51126
2.5178
2.52325
2.52633
2.52723
2.52633
2.52325
2.5178
2.51126
2.50563
2.50205
2.50038
2.49984
2.49975
2.5
2.5
2.5
2.5
2.5
2.5
2.5
2.5
2.5
2.5
2.5
2.5
2.5
2.5
2.5
2.5
2.5
2.5
2.49999
2.49998
2.49994
2.49988
2.49982
2.49991
2.5005
2.50205
2.50486
2.50858
2.51221
2.51469
2.51555
2.51469
2.51221
2.50858
2.50486
2.50205
2.50049
2.4999
2.4998
2.49982
2.5
2.5
2.5
2.5
2.5
2.5
2.5
2.5
2.5
2.5
2.5
2.5
2.5
2.5
2.5
2.5
2.5
2.5
2.5
2.49999
2.49997
2.49993
2.49986
2.49981
2.4999
2.50038
2.50144
2.50305
2.50482
2.50616
2.50665
2.50616
2.50482
2.50305
2.50144
2.50038
2.4999
2.4998
2.49985
2.49989
2.5
2.5
2.5
2.5
2.5
2.5
2.5
2.5
2.5
2.5
2.5
2.5
2.5
2.5
2.5
2.5
2.5
2.5
2.5
2.5
2.49999
2.49996
2.49992
2.49985
2.4998
2.49984
2.5001
2.50061
2.50125
2.50178
2.50199
2.50178
2.50125
2.50061
2.5001
2.49984
2.4998
2.49985
2.49991
2.49995
2.5
2.5
2.5
2.5
2.5
2.5
2.5
2.5
2.5
2.5
2.5
2.5
2.5
2.5
2.5
2.5
2.5
2.5
2.5
2.5
2.49999
2.49998
2.49995
2.4999
2.49982
2.49975
2.49975
2.49984
2.50003
2.50021
2.50028
2.50021
2.50003
2.49984
2.49975
2.49975
2.49982
2.49989
2.49995
2.49997
