# vtk DataFile Version 3.0
Brusselator Concentration Output
ASCII
DATASET STRUCTURED_POINTS
DIMENSIONS 40 40 1
ORIGIN 0.0 0.0 0.0
SPACING 0.005 0.005 1.0
POINT_DATA 1600
SCALARS C1 double 1
LOOKUP_TABLE default
1.00024
1.00031
1.00037
1.00026
0.999765
0.998743
0.997225
0.995477
0.993882
0.992785
0.992398
0.992785
0.993882
0.995477
0.997226
0.998743
0.999765
1.00026
1.00036
1.00028
1.00016
1.00008
1.00003
1.00001
1
1
1
1
1
1
1
1
1
1
1
1
1
1
1
1
1.00031
1.0003
1.00013
0.999527
0.99823
0.996168
0.993604
0.991051
0.989003
0.987734
0.987311
0.987734
0.989003
0.991051
0.993605
0.996168
0.998229
0.999523
1.00011
1.00025
1.0002
1.00011
1.00005
1.00002
1
1
1
1
1
1
1
1
1
1
1
1
1
1
1
1
1.00037
1.00013
0.999359
0.997633
0.994696
0.990809
0.986775
0.983518
0.981515
0.980618
0.980392
0.980618
0.981515
0.983518
0.986775
0.990809
0.994694
0.997622
0.999324
1.00004
1.00021
1.00016
1.00009
1.00004
1.00001
1
1
1
1
1
1
1
1
1
1
1
1
1
1
1
1.00026
0.999527
0.997633
0.994087
0.988973
0.983362
0.978949
0.976998
0.977419
0.978817
0.979526
0.978817
0.977419
0.976998
0.978949
0.983361
0.988966
0.994064
0.997571
0.999398
1.00007
1.00019
1.00013
1.00006
1.00002
1.00001
1
1
1
1
1
1
1
1
1
1
1
1
1
1
0.999765
0.99823
0.994696
0.988973
0.982098
0.976571
0.975226
0.979308
0.987164
0.99474
0.997852
0.99474
0.987164
0.979308
0.975225
0.976568
0.982086
0.988934
0.994604
0.998072
0.999645
1.00012
1.00016
1.00009
1.00004
1.00001
1
1
1
1
1
1
1
1
1
1
1
1
1
1
0.998743
0.996168
0.990809
0.983362
0.976571
0.974955
0.98267
1.00053
1.02398
1.04408
1.05199
1.04408
1.02398
1.00053
0.982669
0.97495
0.97655
0.983305
0.990693
0.996025
0.998837
0.999906
1.00014
1.00012
1.00006
1.00002
1.00001
1
1
1
1
1
1
1
1
1
1
1
1
1
0.997225
0.993604
0.986775
0.978949
0.975226
0.98267
1.00716
1.04893
1.09867
1.13927
1.15483
1.13927
1.09867
1.04893
1.00716
0.982661
0.975196
0.978876
0.98665
0.993535
0.997699
0.999527
1.00007
1.00013
1.00007
1.00003
1.00001
1
1
1
1
1
1
1
1
1
1
1
1
1
0.995477
0.991051
0.983518
0.976998
0.979308
1.00053
1.04893
1.12375
1.20773
1.27213
1.29565
1.27213
1.20773
1.12375
1.04892
1.00052
0.979269
0.976913
0.983402
0.991106
0.996433
0.999042
0.999944
1.00012
1.00008
1.00004
1.00001
1
1
1
1
1
1
1
1
1
1
1
1
1
0.993882
0.989003
0.981515
0.977419
0.987164
1.02398
1.09867
1.20773
1.32114
1.39902
1.42499
1.39902
1.32114
1.20773
1.09867
1.02397
0.987119
0.977328
0.981419
0.989197
0.99531
0.998566
0.999801
1.00009
1.00009
1.00004
1.00002
1
1
1
1
1
1
1
1
1
1
1
1
1
0.992785
0.987734
0.980618
0.978817
0.99474
1.04408
1.13927
1.27213
1.39902
1.47565
1.49855
1.47565
1.39902
1.27212
1.13926
1.04406
0.99469
0.978723
0.980543
0.988038
0.994554
0.998222
0.999689
1.00007
1.00009
1.00005
1.00002
1.00001
1
1
1
1
1
1
1
1
1
1
1
1
0.992398
0.987311
0.980392
0.979526
0.997852
1.05199
1.15483
1.29565
1.42499
1.49855
1.51938
1.49855
1.42499
1.29565
1.15483
1.05197
0.9978
0.979431
0.980325
0.987657
0.99429
0.998097
0.999646
1.00006
1.00009
1.00005
1.00002
1.00001
1
1
1
1
1
1
1
1
1
1
1
1
0.992785
0.987734
0.980618
0.978817
0.99474
1.04408
1.13927
1.27213
1.39902
1.47565
1.49855
1.47565
1.39902
1.27212
1.13926
1.04406
0.99469
0.978723
0.980543
0.988038
0.994554
0.998222
0.999689
1.00007
1.00009
1.00005
1.00002
1.00001
1
1
1
1
1
1
1
1
1
1
1
1
0.993882
0.989003
0.981515
0.977419
0.987164
1.02398
1.09867
1.20773
1.32114
1.39902
1.42499
1.39902
1.32114
1.20773
1.09867
1.02397
0.987119
0.977328
0.981419
0.989198
0.99531
0.998566
0.999801
1.00009
1.00009
1.00004
1.00002
1
1
1
1
1
1
1
1
1
1
1
1
1
0.995477
0.991051
0.983518
0.976998
0.979308
1.00053
1.04893
1.12375
1.20773
1.27212
1.29565
1.27212
1.20773
1.12375
1.04892
1.00052
0.979269
0.976913
0.983402
0.991106
0.996433
0.999042
0.999944
1.00012
1.00008
1.00004
1.00001
1
0.999999
0.999998
0.999998
0.999998
0.999999
0.999999
0.999999
1
1
1
1
1
0.997226
0.993605
0.986775
0.978949
0.975225
0.982669
1.00716
1.04892
1.09867
1.13926
1.15483
1.13926
1.09867
1.04892
1.00716
0.98266
0.975196
0.978876
0.98665
0.993535
0.997699
0.999527
1.00007
1.00013
1.00007
1.00003
1.00001
0.999998
0.999995
0.999994
0.999993
0.999994
0.999994
0.999996
0.999997
0.999998
0.999999
1
1
1
0.998743
0.996168
0.990809
0.983361
0.976568
0.97495
0.982661
1.00052
1.02397
1.04406
1.05197
1.04406
1.02397
1.00052
0.98266
0.974944
0.976547
0.983304
0.990693
0.996025
0.998838
0.999906
1.00014
1.00012
1.00005
1.00001
0.999995
0.999987
0.999983
0.999981
0.999981
0.999981
0.999983
0.999986
0.999989
0.999993
0.999996
0.999998
0.999999
1
0.999765
0.998229
0.994694
0.988966
0.982086
0.97655
0.975196
0.979269
0.987119
0.99469
0.9978
0.99469
0.987119
0.979269
0.975196
0.976547
0.982073
0.988928
0.994602
0.998072
0.999644
1.00012
1.00015
1.00008
1.00003
0.999991
0.999974
0.999965
0.999961
0.999959
0.999958
0.999959
0.999961
0.999965
0.999971
0.999978
0.999986
0.999992
0.999996
0.999999
1.00026
0.999523
0.997622
0.994064
0.988934
0.983305
0.978876
0.976913
0.977328
0.978723
0.979431
0.978723
0.977328
0.976913
0.978876
0.983304
0.988928
0.994041
0.99756
0.999393
1.00007
1.00018
1.00012
1.00004
0.999987
0.999957
0.999943
0.999939
0.999941
0.999946
0.999948
0.999946
0.999941
0.999939
0.999941
0.99995
0.999964
0.999977
0.999987
0.999993
1.00036
1.00011
0.999324
0.997571
0.994604
0.990693
0.98665
0.983402
0.981419
0.980543
0.980325
0.980543
0.981419
0.983402
0.98665
0.990693
0.994602
0.99756
0.999288
1.00002
1.00019
1.00014
1.00005
0.999983
0.99994
0.999923
0.999933
0.999964
1.00001
1.00004
1.00005
1.00004
1.00001
0.999964
0.999933
0.999921
0.999928
0.999947
0.999966
0.999977
1.00028
1.00025
1.00004
0.999398
0.998072
0.996025
0.993535
0.991106
0.989197
0.988038
0.987657
0.988038
0.989198
0.991106
0.993535
0.996025
0.998072
0.999393
1.00002
1.0002
1.00016
1.00006
0.99998
0.999926
0.999915
0.999962
1.00007
1.00023
1.0004
1.00052
1.00057
1.00052
1.0004
1.00023
1.00007
0.999961
0.99991
0.999907
0.999926
0.999942
1.00016
1.0002
1.00021
1.00007
0.999645
0.998837
0.997699
0.996433
0.99531
0.994554
0.99429
0.994554
0.99531
0.996433
0.997699
0.998838
0.999644
1.00007
1.00019
1.00016
1.00007
0.999979
0.999918
0.999918
1.00002
1.00028
1.00068
1.00116
1.00161
1.00193
1.00205
1.00193
1.00161
1.00116
1.00068
1.00028
1.00002
0.999905
0.999878
0.999883
1.00008
1.00011
1.00016
1.00019
1.00012
0.999906
0.999527
0.999042
0.998566
0.998222
0.998097
0.998222
0.998566
0.999042
0.999527
0.999906
1.00012
1.00018
1.00014
1.00006
0.999979
0.999916
0.999924
1.00009
1.00052
1.00127
1.00228
1.00336
1.00428
1.00487
1.00508
1.00487
1.00428
1.00336
1.00228
1.00127
1.00051
1.00007
0.999877
0.999818
1.00003
1.00005
1.00009
1.00013
1.00016
1.00014
1.00007
0.999944
0.999801
0.999689
0.999646
0.999689
0.999801
0.999944
1.00007
1.00014
1.00015
1.00012
1.00005
0.99998
0.999918
0.999924
1.00012
1.00069
1.0018
1.00345
1.00538
1.00715
1.00843
1.00913
1.00934
1.00913
1.00843
1.00715
1.00537
1.00344
1.00178
1.00066
1.00005
0.999814
1.00001
1.00002
1.00004
1.00006
1.00009
1.00012
1.00013
1.00012
1.00009
1.00007
1.00006
1.00007
1.00009
1.00012
1.00013
1.00012
1.00008
1.00004
0.999983
0.999926
0.999918
1.00009
1.00069
1.00201
1.0042
1.007
1.00969
1.01148
1.01211
1.01201
1.01187
1.01201
1.01211
1.01148
1.00969
1.00699
1.00418
1.00196
1.0006
1
1
1
1.00001
1.00002
1.00004
1.00006
1.00007
1.00008
1.00009
1.00009
1.00009
1.00009
1.00009
1.00008
1.00007
1.00005
1.00003
0.999987
0.99994
0.999915
1.00002
1.00052
1.0018
1.0042
1.00762
1.01112
1.01316
1.01268
1.01014
1.00735
1.00616
1.00735
1.01014
1.01268
1.01316
1.0111
1.00758
1.00413
1.00171
1.00054
1
1
1
1.00001
1.00001
1.00002
1.00003
1.00004
1.00004
1.00005
1.00005
1.00005
1.00004
1.00004
1.00003
1.00001
0.999991
0.999957
0.999923
0.999962
1.00028
1.00127
1.00345
1.007
1.01112
1.01363
1.01196
1.00537
0.996178
0.988413
0.985416
0.988413
0.996178
1.00537
1.01195
1.01361
1.01107
1.00692
1.00341
1.00155
1
1
1
1
1
1.00001
1.00001
1.00001
1.00002
1.00002
1.00002
1.00002
1.00002
1.00001
1.00001
0.999995
0.999974
0.999943
0.999933
1.00007
1.00068
1.00228
1.00538
1.00969
1.01316
1.01196
1.00284
0.986564
0.968352
0.954546
0.949469
0.954546
0.968352
0.986561
1.00283
1.01193
1.0131
1.00962
1.00545
1.00296
1
1
1
1
1
1
1
1
1
1.00001
1.00001
1.00001
1
1
0.999998
0.999987
0.999965
0.999939
0.999964
1.00023
1.00116
1.00336
1.00715
1.01148
1.01268
1.00537
0.986564
0.959662
0.93286
0.913912
0.907178
0.913912
0.932859
0.959657
0.98655
1.00534
1.01262
1.01144
1.00739
1.00452
1
1
1
1
1
1
1
1
1
1
1
1
1
0.999999
0.999995
0.999983
0.999961
0.999941
1.00001
1.0004
1.00161
1.00428
1.00843
1.01211
1.01014
0.996178
0.968352
0.93286
0.900016
0.877893
0.870222
0.877893
0.900015
0.932855
0.968336
0.996141
1.01009
1.01211
1.00884
1.0059
1
1
1
1
1
1
1
1
1
1
1
1
1
0.999998
0.999994
0.999981
0.999959
0.999946
1.00004
1.00052
1.00193
1.00487
1.00913
1.01201
1.00735
0.988413
0.954546
0.913912
0.877893
0.854341
0.846301
0.854341
0.877892
0.913907
0.954529
0.988375
1.0073
1.01205
1.00966
1.00682
1
1
1
1
1
1
1
1
1
1
1
1
1
0.999998
0.999993
0.999981
0.999958
0.999948
1.00005
1.00057
1.00205
1.00508
1.00934
1.01187
1.00616
0.985416
0.949469
0.907178
0.870222
0.846301
0.83818
0.846301
0.87022
0.907172
0.949451
0.985377
1.00612
1.01193
1.00992
1.00714
1
1
1
1
1
1
1
1
1
1
1
1
1
0.999998
0.999994
0.999981
0.999959
0.999946
1.00004
1.00052
1.00193
1.00487
1.00913
1.01201
1.00735
0.988413
0.954546
0.913912
0.877893
0.854341
0.846301
0.85434
0.877892
0.913906
0.954529
0.988375
1.0073
1.01205
1.00966
1.00682
1
1
1
1
1
1
1
1
1
1
1
1
1
0.999999
0.999994
0.999983
0.999961
0.999941
1.00001
1.0004
1.00161
1.00428
1.00843
1.01211
1.01014
0.996178
0.968352
0.932859
0.900015
0.877892
0.87022
0.877892
0.900014
0.932854
0.968336
0.99614
1.01009
1.01211
1.00884
1.0059
1
1
1
1
1
1
1
1
1
1
1
1
1
0.999999
0.999996
0.999986
0.999965
0.999939
0.999964
1.00023
1.00116
1.00336
1.00715
1.01148
1.01268
1.00537
0.986561
0.959657
0.932855
0.913907
0.907172
0.913906
0.932854
0.959653
0.986547
1.00534
1.01262
1.01144
1.00739
1.00452
1
1
1
1
1
1
1
1
1
1
1
1
1
0.999999
0.999997
0.999989
0.999971
0.999941
0.999933
1.00007
1.00068
1.00228
1.00537
1.00969
1.01316
1.01195
1.00283
0.98655
0.968336
0.954529
0.949451
0.954529
0.968336
0.986547
1.00282
1.01192
1.0131
1.00962
1.00545
1.00296
1
1
1
1
1
1
1
1
1
1
1
1
1
1
0.999998
0.999993
0.999978
0.99995
0.999921
0.999961
1.00028
1.00127
1.00344
1.00699
1.0111
1.01361
1.01193
1.00534
0.996141
0.988375
0.985377
0.988375
0.99614
1.00534
1.01192
1.01358
1.01105
1.00691
1.0034
1.00155
1
1
1
1
1
1
1
1
1
1
1
1
1
1
0.999999
0.999996
0.999986
0.999964
0.999928
0.99991
1.00002
1.00051
1.00178
1.00418
1.00758
1.01107
1.0131
1.01262
1.01009
1.0073
1.00612
1.0073
1.01009
1.01262
1.0131
1.01105
1.00755
1.00411
1.00169
1.00054
1
1
1
1
1
1
1
1
1
1
1
1
1
1
1
0.999998
0.999992
0.999977
0.999947
0.999907
0.999905
1.00007
1.00066
1.00196
1.00413
1.00692
1.00962
1.01144
1.01211
1.01205
1.01193
1.01205
1.01211
1.01144
1.00962
1.00691
1.00411
1.0019
1.00056
0.999977
1
1
1
1
1
1
1
1
1
1
1
1
1
1
1
0.999999
0.999996
0.999987
0.999966
0.999926
0.999878
0.999877
1.00005
1.0006
1.00171
1.00341
1.00545
1.00739
1.00884
1.00966
1.00992
1.00966
1.00884
1.00739
1.00545
1.0034
1.00169
1.00056
0.999976
0.999755
1
1
1
1
1
1
1
1
1
1
1
1
1
1
1
1
0.999999
0.999993
0.999977
0.999942
0.999883
0.999818
0.999814
1
1.00054
1.00155
1.00296
1.00452
1.0059
1.00682
1.00714
1.00682
1.0059
1.00452
1.00296
1.00155
1.00054
0.999977
0.999755
0.999701
SCALARS C2 double 1
LOOKUP_TABLE default
2.49973
2.49955
2.49923
2.4989
2.4988
2.49925
2.50042
2.50218
2.50408
2.50552
2.50606
2.50552
2.50408
2.50218
2.50042
2.49925
2.4988
2.49889
2.49923
2.49957
2.4998
2.49993
2.49998
2.5
2.5
2.5
2.5
2.5
2.5
2.5
2.5
2.5
2.5
2.5
2.5
2.5
2.5
2.5
2.5
2.5
2.49955
2.49937
2.49914
2.4992
2.50001
2.50198
2.50516
2.50904
2.5127
2.51529
2.51621
2.51529
2.5127
2.50904
2.50516
2.50198
2.5
2.4992
2.49916
2.49942
2.49969
2.49987
2.49995
2.49999
2.5
2.5
2.5
2.5
2.5
2.5
2.5
2.5
2.5
2.5
2.5
2.5
2.5
2.5
2.5
2.5
2.49923
2.49914
2.49935
2.50059
2.50373
2.50921
2.51657
2.5244
2.53106
2.53537
2.53685
2.53537
2.53106
2.5244
2.51656
2.50921
2.50373
2.5006
2.49939
2.49925
2.49949
2.49974
2.4999
2.49997
2.49999
2.5
2.5
2.5
2.5
2.5
2.5
2.5
2.5
2.5
2.5
2.5
2.5
2.5
2.5
2.5
2.4989
2.4992
2.50059
2.50442
2.51189
2.52303
2.53612
2.54835
2.55738
2.56246
2.56403
2.56246
2.55738
2.54835
2.53612
2.52303
2.51189
2.50444
2.50067
2.4994
2.49932
2.49958
2.4998
2.49993
2.49998
2.5
2.5
2.5
2.5
2.5
2.5
2.5
2.5
2.5
2.5
2.5
2.5
2.5
2.5
2.5
2.4988
2.50001
2.50373
2.51189
2.52556
2.54339
2.56141
2.575
2.58187
2.58356
2.58354
2.58356
2.58187
2.575
2.56141
2.54339
2.52557
2.51193
2.50386
2.50032
2.49937
2.49943
2.49969
2.49987
2.49996
2.49999
2.5
2.5
2.5
2.5
2.5
2.5
2.5
2.5
2.5
2.5
2.5
2.5
2.5
2.5
2.49925
2.50198
2.50921
2.52303
2.54339
2.56622
2.58408
2.59019
2.58385
2.57261
2.5672
2.57261
2.58385
2.59019
2.58408
2.56622
2.54341
2.5231
2.50941
2.5024
2.49985
2.4994
2.49958
2.4998
2.49993
2.49998
2.5
2.5
2.5
2.5
2.5
2.5
2.5
2.5
2.5
2.5
2.5
2.5
2.5
2.5
2.50042
2.50516
2.51657
2.53612
2.56141
2.58408
2.59162
2.57438
2.53568
2.49551
2.4785
2.49551
2.53568
2.57438
2.59162
2.58409
2.56145
2.53622
2.51682
2.50564
2.50087
2.49955
2.49952
2.49974
2.4999
2.49997
2.49999
2.5
2.5
2.5
2.5
2.5
2.5
2.5
2.5
2.5
2.5
2.5
2.5
2.5
2.50218
2.50904
2.5244
2.54835
2.575
2.59019
2.57438
2.51429
2.42157
2.3372
2.30366
2.3372
2.42157
2.51429
2.57439
2.5902
2.57505
2.54848
2.52471
2.50951
2.50229
2.49989
2.49952
2.49969
2.49986
2.49995
2.49999
2.5
2.5
2.5
2.5
2.5
2.5
2.5
2.5
2.5
2.5
2.5
2.5
2.5
2.50408
2.5127
2.53106
2.55738
2.58187
2.58385
2.53568
2.42157
2.26887
2.14408
2.09788
2.14408
2.26887
2.42157
2.53569
2.58386
2.58193
2.55754
2.5314
2.51314
2.50377
2.50031
2.49957
2.49966
2.49984
2.49994
2.49998
2.5
2.5
2.5
2.5
2.5
2.5
2.5
2.5
2.5
2.5
2.5
2.5
2.5
2.50552
2.51529
2.53537
2.56246
2.58356
2.57261
2.49551
2.3372
2.14408
2.00059
1.95086
2.00059
2.14408
2.3372
2.49551
2.57263
2.58363
2.56264
2.53573
2.51566
2.50487
2.50066
2.49963
2.49965
2.49982
2.49993
2.49998
2.5
2.5
2.5
2.5
2.5
2.5
2.5
2.5
2.5
2.5
2.5
2.5
2.5
2.50606
2.51621
2.53685
2.56403
2.58354
2.5672
2.4785
2.30366
2.09788
1.95086
1.90125
1.95086
2.09788
2.30366
2.47851
2.56722
2.58361
2.56422
2.5372
2.51656
2.50528
2.50079
2.49966
2.49964
2.49982
2.49993
2.49998
2.5
2.5
2.5
2.5
2.5
2.5
2.5
2.5
2.5
2.5
2.5
2.5
2.5
2.50552
2.51529
2.53537
2.56246
2.58356
2.57261
2.49551
2.3372
2.14408
2.00059
1.95086
2.00059
2.14408
2.3372
2.49551
2.57263
2.58363
2.56264
2.53573
2.51566
2.50487
2.50066
2.49963
2.49965
2.49982
2.49993
2.49998
2.5
2.5
2.5
2.5
2.5
2.5
2.5
2.5
2.5
2.5
2.5
2.5
2.5
2.50408
2.5127
2.53106
2.55738
2.58187
2.58385
2.53568
2.42157
2.26887
2.14408
2.09788
2.14408
2.26887
2.42157
2.53568
2.58386
2.58193
2.55754
2.5314
2.51314
2.50377
2.50031
2.49957
2.49966
2.49984
2.49994
2.49998
2.5
2.5
2.5
2.5
2.5
2.5
2.5
2.5
2.5
2.5
2.5
2.5
2.5
2.50218
2.50904
2.5244
2.54835
2.575
2.59019
2.57438
2.51429
2.42157
2.3372
2.30366
2.3372
2.42157
2.51429
2.57439
2.5902
2.57505
2.54848
2.52471
2.50951
2.50229
2.49989
2.49952
2.49969
2.49986
2.49995
2.49999
2.5
2.5
2.5
2.5
2.5
2.5
2.5
2.5
2.5
2.5
2.5
2.5
2.5
2.50042
2.50516
2.51656
2.53612
2.56141
2.58408
2.59162
2.57439
2.53569
2.49551
2.47851
2.49551
2.53568
2.57439
2.59162
2.58409
2.56145
2.53622
2.51682
2.50564
2.50087
2.49955
2.49952
2.49974
2.4999
2.49997
2.49999
2.5
2.50001
2.50001
2.50001
2.50001
2.5
2.5
2.5
2.5
2.5
2.5
2.5
2.5
2.49925
2.50198
2.50921
2.52303
2.54339
2.56622
2.58409
2.5902
2.58386
2.57263
2.56722
2.57263
2.58386
2.5902
2.58409
2.56623
2.54341
2.5231
2.5094
2.5024
2.49985
2.4994
2.49958
2.4998
2.49993
2.49999
2.50001
2.50002
2.50002
2.50002
2.50002
2.50002
2.50002
2.50002
2.50001
2.50001
2.5
2.5
2.5
2.5
2.4988
2.5
2.50373
2.51189
2.52557
2.54341
2.56145
2.57505
2.58193
2.58363
2.58361
2.58363
2.58193
2.57505
2.56145
2.54341
2.52558
2.51194
2.50386
2.50031
2.49937
2.49943
2.49969
2.49988
2.49997
2.50001
2.50004
2.50005
2.50006
2.50007
2.50007
2.50007
2.50006
2.50005
2.50004
2.50002
2.50001
2.50001
2.5
2.5
2.49889
2.4992
2.5006
2.50444
2.51193
2.5231
2.53622
2.54848
2.55754
2.56264
2.56422
2.56264
2.55754
2.54848
2.53622
2.5231
2.51194
2.50446
2.50067
2.4994
2.49932
2.49958
2.49981
2.49995
2.50003
2.50007
2.5001
2.50013
2.50015
2.50016
2.50016
2.50016
2.50015
2.50013
2.5001
2.50007
2.50005
2.50002
2.50001
2.5
2.49923
2.49916
2.49939
2.50067
2.50386
2.50941
2.51682
2.52471
2.5314
2.53573
2.5372
2.53573
2.5314
2.52471
2.51682
2.5094
2.50386
2.50067
2.49942
2.49926
2.4995
2.49975
2.49993
2.50004
2.50011
2.50017
2.50022
2.50024
2.50024
2.50023
2.50023
2.50023
2.50024
2.50024
2.50021
2.50017
2.50012
2.50007
2.50004
2.50002
2.49957
2.49942
2.49925
2.4994
2.50032
2.5024
2.50564
2.50951
2.51314
2.51566
2.51656
2.51566
2.51314
2.50951
2.50564
2.5024
2.50031
2.4994
2.49926
2.49947
2.49972
2.49991
2.50005
2.50016
2.50025
2.5003
2.5003
2.50023
2.50011
2.50001
2.49997
2.50001
2.50011
2.50023
2.5003
2.5003
2.50025
2.50017
2.5001
2.50006
2.4998
2.49969
2.49949
2.49932
2.49937
2.49985
2.50087
2.50229
2.50377
2.50487
2.50528
2.50487
2.50377
2.50229
2.50087
2.49985
2.49937
2.49932
2.4995
2.49972
2.49991
2.50006
2.50019
2.50031
2.50036
2.50028
2.50001
2.49956
2.49906
2.49867
2.49852
2.49867
2.49906
2.49956
2.50001
2.50028
2.50036
2.50031
2.50022
2.50016
2.49993
2.49987
2.49974
2.49958
2.49943
2.4994
2.49955
2.49989
2.50031
2.50066
2.50079
2.50066
2.50031
2.49989
2.49955
2.4994
2.49943
2.49958
2.49975
2.49991
2.50006
2.5002
2.50034
2.50039
2.5002
2.49959
2.49849
2.49706
2.49563
2.49458
2.4942
2.49458
2.49562
2.49706
2.49849
2.49959
2.50021
2.50041
2.50039
2.50033
2.49998
2.49995
2.4999
2.4998
2.49969
2.49958
2.49952
2.49952
2.49957
2.49963
2.49966
2.49963
2.49957
2.49952
2.49952
2.49958
2.49969
2.49981
2.49993
2.50005
2.50019
2.50034
2.5004
2.50013
2.49916
2.4972
2.4943
2.49094
2.48789
2.48582
2.48509
2.48582
2.48789
2.49094
2.4943
2.49721
2.49917
2.50016
2.5005
2.50055
2.5
2.49999
2.49997
2.49993
2.49987
2.4998
2.49974
2.49969
2.49966
2.49965
2.49964
2.49965
2.49966
2.49969
2.49974
2.4998
2.49988
2.49995
2.50004
2.50016
2.50031
2.50039
2.50013
2.49897
2.4963
2.49181
2.48595
2.47997
2.4752
2.47232
2.47139
2.47232
2.47519
2.47997
2.48595
2.49181
2.49633
2.49905
2.5003
2.5007
2.5
2.5
2.49999
2.49998
2.49996
2.49993
2.4999
2.49986
2.49984
2.49982
2.49982
2.49982
2.49984
2.49986
2.4999
2.49993
2.49997
2.50003
2.50011
2.50025
2.50036
2.5002
2.49916
2.4963
2.4908
2.48271
2.47362
2.46596
2.46133
2.45948
2.45909
2.45948
2.46133
2.46596
2.47362
2.48273
2.49084
2.49642
2.49941
2.50057
2.5
2.5
2.5
2.5
2.49999
2.49998
2.49997
2.49995
2.49994
2.49993
2.49993
2.49993
2.49994
2.49995
2.49997
2.49999
2.50001
2.50007
2.50017
2.5003
2.50028
2.49959
2.4972
2.49181
2.48271
2.47121
2.46092
2.4556
2.45595
2.45893
2.46051
2.45893
2.45595
2.4556
2.46093
2.47124
2.48279
2.49198
2.49751
2.49987
2.5
2.5
2.5
2.5
2.5
2.5
2.49999
2.49999
2.49998
2.49998
2.49998
2.49998
2.49998
2.49999
2.49999
2.50001
2.50004
2.5001
2.50022
2.5003
2.50001
2.49849
2.4943
2.48595
2.47362
2.46092
2.45417
2.45766
2.46922
2.4813
2.48634
2.4813
2.46922
2.45766
2.45418
2.46096
2.47372
2.48617
2.4946
2.4985
2.5
2.5
2.5
2.5
2.5
2.5
2.5
2.5
2.5
2.5
2.5
2.5
2.5
2.5
2.5
2.50002
2.50005
2.50013
2.50024
2.50023
2.49956
2.49706
2.49094
2.47997
2.46596
2.4556
2.45766
2.4754
2.50225
2.52568
2.53486
2.52568
2.50225
2.4754
2.45767
2.45565
2.46609
2.48021
2.49116
2.49662
2.5
2.5
2.5
2.5
2.5
2.5
2.5
2.5
2.5
2.5
2.5
2.5
2.5
2.5
2.50001
2.50002
2.50006
2.50015
2.50024
2.50011
2.49906
2.49563
2.48789
2.4752
2.46133
2.45595
2.46922
2.50225
2.54401
2.57793
2.59084
2.57793
2.54401
2.50225
2.46924
2.45601
2.46148
2.47543
2.488
2.49468
2.5
2.5
2.5
2.5
2.5
2.5
2.5
2.5
2.5
2.5
2.5
2.5
2.5
2.5
2.50001
2.50002
2.50007
2.50016
2.50023
2.50001
2.49867
2.49458
2.48582
2.47232
2.45948
2.45893
2.4813
2.52568
2.57793
2.61902
2.63444
2.61902
2.57793
2.52569
2.48132
2.459
2.45963
2.47255
2.48582
2.49323
2.5
2.5
2.5
2.5
2.5
2.5
2.5
2.5
2.5
2.5
2.5
2.5
2.5
2.5
2.50001
2.50002
2.50007
2.50016
2.50023
2.49997
2.49852
2.4942
2.48509
2.47139
2.45909
2.46051
2.48634
2.53486
2.59084
2.63444
2.65073
2.63444
2.59084
2.53487
2.48636
2.46058
2.45925
2.47161
2.48506
2.4927
2.5
2.5
2.5
2.5
2.5
2.5
2.5
2.5
2.5
2.5
2.5
2.5
2.5
2.5
2.50001
2.50002
2.50007
2.50016
2.50023
2.50001
2.49867
2.49458
2.48582
2.47232
2.45948
2.45893
2.4813
2.52568
2.57793
2.61902
2.63444
2.61902
2.57793
2.52569
2.48132
2.459
2.45963
2.47255
2.48582
2.49323
2.5
2.5
2.5
2.5
2.5
2.5
2.5
2.5
2.5
2.5
2.5
2.5
2.5
2.5
2.5
2.50002
2.50006
2.50015
2.50024
2.50011
2.49906
2.49562
2.48789
2.47519
2.46133
2.45595
2.46922
2.50225
2.54401
2.57793
2.59084
2.57793
2.54401
2.50225
2.46924
2.45601
2.46148
2.47543
2.488
2.49468
2.5
2.5
2.5
2.5
2.5
2.5
2.5
2.5
2.5
2.5
2.5
2.5
2.5
2.5
2.5
2.50002
2.50005
2.50013
2.50024
2.50023
2.49956
2.49706
2.49094
2.47997
2.46596
2.4556
2.45766
2.4754
2.50225
2.52569
2.53487
2.52569
2.50225
2.47541
2.45767
2.45565
2.46609
2.48021
2.49116
2.49662
2.5
2.5
2.5
2.5
2.5
2.5
2.5
2.5
2.5
2.5
2.5
2.5
2.5
2.5
2.5
2.50001
2.50004
2.5001
2.50021
2.5003
2.50001
2.49849
2.4943
2.48595
2.47362
2.46093
2.45418
2.45767
2.46924
2.48132
2.48636
2.48132
2.46924
2.45767
2.45419
2.46096
2.47373
2.48617
2.4946
2.4985
2.5
2.5
2.5
2.5
2.5
2.5
2.5
2.5
2.5
2.5
2.5
2.5
2.5
2.5
2.5
2.50001
2.50002
2.50007
2.50017
2.5003
2.50028
2.49959
2.49721
2.49181
2.48273
2.47124
2.46096
2.45565
2.45601
2.459
2.46058
2.459
2.45601
2.45565
2.46096
2.47126
2.4828
2.49199
2.49751
2.49987
2.5
2.5
2.5
2.5
2.5
2.5
2.5
2.5
2.5
2.5
2.5
2.5
2.5
2.5
2.5
2.5
2.50001
2.50005
2.50012
2.50025
2.50036
2.50021
2.49917
2.49633
2.49084
2.48279
2.47372
2.46609
2.46148
2.45963
2.45925
2.45963
2.46148
2.46609
2.47373
2.4828
2.49089
2.49645
2.49942
2.50057
2.5
2.5
2.5
2.5
2.5
2.5
2.5
2.5
2.5
2.5
2.5
2.5
2.5
2.5
2.5
2.5
2.50001
2.50002
2.50007
2.50017
2.50031
2.50041
2.50016
2.49905
2.49642
2.49198
2.48617
2.48021
2.47543
2.47255
2.47161
2.47255
2.47543
2.48021
2.48617
2.49199
2.49645
2.49912
2.50033
2.50072
2.5
2.5
2.5
2.5
2.5
2.5
2.5
2.5
2.5
2.5
2.5
2.5
2.5
2.5
2.5
2.5
2.5
2.50001
2.50004
2.5001
2.50022
2.50039
2.5005
2.5003
2.49941
2.49751
2.4946
2.49116
2.488
2.48582
2.48506
2.48582
2.488
2.49116
2.4946
2.49751
2.49942
2.50033
2.5006
2.50061
2.5
2.5
2.5
2.5
2.5
2.5
2.5
2.5
2.5
2.5
2.5
2.5
2.5
2.5
2.5
2.5
2.5
2.5
2.50002
2.50006
2.50016
2.50033
2.50055
2.5007
2.50057
2.49987
2.4985
2.49662
2.49468
2.49323
2.4927
2.49323
2.49468
2.49662
2.4985
2.49987
2.50057
2.50072
2.50061
2.50049
