# vtk DataFile Version 3.0
Brusselator Concentration Output
ASCII
DATASET STRUCTURED_POINTS
DIMENSIONS 40 40 1
ORIGIN 0.0 0.0 0.0
SPACING 0.005 0.005 1.0
POINT_DATA 1600
SCALARS C1 double 1
LOOKUP_TABLE default
1.10666
1.09328
1.05957
1.00283
0.931124
0.857836
0.793705
0.743998
0.709748
0.690011
0.683604
0.69005
0.709852
0.744207
0.793992
0.857875
0.929812
0.997671
1.04629
1.06625
1.06108
1.04349
1.02519
1.01178
1.00401
1.00045
0.999321
0.99927
0.999527
0.999766
0.999909
0.999975
0.999997
1
1
1
1
1
1
1
1.09328
1.06677
1.0154
0.946856
0.873515
0.806391
0.751695
0.711197
0.684092
0.668746
0.663808
0.668781
0.684183
0.711364
0.751869
0.806152
0.871598
0.940561
1.00047
1.03864
1.0505
1.04306
1.02833
1.01499
1.00618
1.00161
0.999814
0.999423
0.999544
0.999748
0.999892
0.999965
0.999993
1
1
1
1
1
1
1
1.05957
1.0154
0.942519
0.861985
0.789595
0.732366
0.690947
0.663054
0.645726
0.636429
0.633526
0.636458
0.645797
0.663161
0.690958
0.731735
0.78684
0.854186
0.925817
0.987881
1.02666
1.03854
1.03234
1.02033
1.0101
1.0038
1.00079
0.999745
0.999596
0.999722
0.999861
0.999946
0.999985
0.999998
1
1
1
1
1
1
1.00283
0.946856
0.861985
0.778559
0.712821
0.667519
0.639095
0.62266
0.613986
0.610011
0.608896
0.610034
0.614038
0.62271
0.638959
0.66655
0.70938
0.769692
0.844846
0.923971
0.989171
1.0257
1.03374
1.026
1.01501
1.00677
1.00219
1.00025
0.999707
0.999704
0.999825
0.999922
0.999974
0.999994
1
1
1
1
1
1
0.931124
0.873515
0.789595
0.712821
0.658155
0.625228
0.608198
0.601091
0.599258
0.599454
0.599742
0.599474
0.599295
0.601098
0.607952
0.624022
0.654305
0.703602
0.773748
0.858972
0.942703
1.00327
1.0297
1.02999
1.01995
1.01014
1.00393
1.00095
0.999895
0.99971
0.999793
0.999897
0.999961
0.999989
0.999998
1
1
1
1
1
0.857836
0.806391
0.732366
0.667519
0.625228
0.603646
0.59619
0.596688
0.600424
0.60405
0.605499
0.604067
0.600451
0.596662
0.595862
0.602275
0.621181
0.65852
0.719048
0.80186
0.894652
0.974016
1.01958
1.03098
1.02403
1.0135
1.00583
1.00177
1.00016
0.999749
0.999771
0.999874
0.999948
0.999984
0.999997
1
1
1
1
0.999999
0.793705
0.751695
0.690947
0.639095
0.608198
0.59619
0.596626
0.603477
0.612002
0.618658
0.621151
0.618673
0.612021
0.603425
0.59623
0.594695
0.604069
0.630616
0.680622
0.756748
0.851418
0.942911
1.00516
1.02884
1.02671
1.01645
1.00769
1.00266
1.00047
0.999818
0.999764
0.999856
0.999937
0.99998
0.999996
1
1
1
0.999999
0.999999
0.743998
0.711197
0.663054
0.62266
0.601091
0.596688
0.603477
0.615637
0.628333
0.637716
0.641165
0.637731
0.628347
0.615564
0.603023
0.595092
0.596932
0.614772
0.655539
0.7241
0.816757
0.914752
0.98959
1.02458
1.02798
1.01875
1.00933
1.00349
1.0008
0.999909
0.999773
0.999851
0.999935
0.999982
1
1
1
1
1
0.999999
0.709748
0.684092
0.645726
0.613986
0.599258
0.600424
0.612002
0.628333
0.644436
0.656109
0.660372
0.656124
0.644446
0.628244
0.611502
0.59875
0.595088
0.606608
0.640421
0.702598
0.79209
0.892913
0.976051
1.01985
1.02825
1.02033
1.0106
1.00419
1.0011
1.00001
0.999803
0.999863
0.999948
0.999997
1.00001
1.00002
1.00001
1.00001
1
1
0.690011
0.668746
0.636429
0.610011
0.599454
0.60405
0.618658
0.637716
0.656109
0.669352
0.674179
0.669367
0.656116
0.637615
0.618126
0.602324
0.59528
0.602968
0.632515
0.690553
0.777518
0.879275
0.966985
1.01627
1.02809
1.02124
1.01142
1.00467
1.00133
1.00011
0.999852
0.9999
0.999983
1.00003
1.00005
1.00005
1.00004
1.00003
1.00002
1.00002
0.683604
0.663808
0.633526
0.608896
0.599742
0.605499
0.621151
0.641165
0.660372
0.674179
0.67921
0.674194
0.660378
0.64106
0.620609
0.603755
0.595566
0.601971
0.630084
0.686701
0.772732
0.874677
0.963837
1.01498
1.02802
1.02157
1.01173
1.00487
1.00144
1.00017
0.999899
0.999943
1.00003
1.00008
1.0001
1.0001
1.00009
1.00007
1.00006
1.00005
0.69005
0.668781
0.636458
0.610034
0.599474
0.604067
0.618673
0.637731
0.656124
0.669367
0.674194
0.669381
0.656131
0.63763
0.618142
0.602341
0.595299
0.602992
0.632547
0.690597
0.777579
0.879353
0.967079
1.01638
1.0282
1.02133
1.01149
1.00472
1.00135
1.00012
0.999852
0.999907
1.00001
1.00008
1.00013
1.00015
1.00015
1.00015
1.00014
1.00013
0.709852
0.684183
0.645797
0.614038
0.599295
0.600451
0.612021
0.628347
0.644446
0.656116
0.660378
0.656131
0.644455
0.628257
0.611521
0.598777
0.595126
0.606661
0.640498
0.702709
0.79224
0.893092
0.976237
1.02002
1.02837
1.02037
1.01055
1.00403
1.00084
0.999689
0.999459
0.999542
0.999693
0.999838
0.999966
1.00007
1.00016
1.00022
1.00025
1.00026
0.744207
0.711364
0.663161
0.62271
0.601098
0.596662
0.603425
0.615564
0.628244
0.637615
0.64106
0.63763
0.628257
0.615491
0.602972
0.595069
0.596943
0.614829
0.655659
0.724296
0.81702
0.915032
0.989803
1.02464
1.02781
1.0183
1.00857
1.00242
0.999479
0.998416
0.998221
0.998358
0.998613
0.99892
0.999253
0.999586
0.999889
1.00013
1.0003
1.00039
0.793992
0.751869
0.690958
0.638959
0.607952
0.595862
0.59623
0.603023
0.611502
0.618126
0.620609
0.618142
0.611521
0.602972
0.595835
0.594373
0.603835
0.630498
0.680653
0.756938
0.85171
0.943147
1.00512
1.0283
1.02552
1.01453
1.00504
0.999345
0.996639
0.995648
0.995479
0.995687
0.996108
0.996687
0.997387
0.998151
0.998904
0.999559
1.00004
1.0003
0.857875
0.806152
0.731735
0.66655
0.624022
0.602275
0.594695
0.595092
0.59875
0.602324
0.603755
0.602341
0.598777
0.595069
0.594373
0.60092
0.620004
0.657587
0.718427
0.801557
0.894511
0.97367
1.01854
1.0288
1.02047
1.00852
0.999527
0.994371
0.991945
0.991043
0.990902
0.991172
0.991748
0.992618
0.993767
0.995127
0.996568
0.997906
0.998942
0.999508
0.929812
0.871598
0.78684
0.70938
0.654305
0.621181
0.604069
0.596932
0.595088
0.59528
0.595566
0.595299
0.595126
0.596943
0.603835
0.620004
0.650506
0.700202
0.770932
0.856783
0.940848
1.00106
1.02622
1.02453
1.01223
1.00029
0.992321
0.98807
0.986219
0.985615
0.985571
0.98581
0.98631
0.98717
0.988488
0.990271
0.992373
0.994495
0.99624
0.997227
0.997671
0.940561
0.854186
0.769692
0.703602
0.65852
0.630616
0.614772
0.606608
0.602968
0.601971
0.602992
0.606661
0.614829
0.630498
0.657587
0.700202
0.760791
0.836775
0.917025
0.983027
1.0193
1.02571
1.01539
1.00172
0.991358
0.985546
0.98321
0.982813
0.983119
0.983387
0.983353
0.983119
0.983021
0.983449
0.984667
0.986654
0.989049
0.991231
0.992535
1.04629
1.00047
0.925817
0.844846
0.773748
0.719048
0.680622
0.655539
0.640421
0.632515
0.630084
0.632547
0.640498
0.655659
0.680653
0.718427
0.770932
0.836775
0.908442
0.971867
1.01228
1.02471
1.01746
1.00359
0.991943
0.985597
0.984161
0.985881
0.988797
0.99129
0.992322
0.991539
0.989239
0.986207
0.983428
0.98173
0.981485
0.982459
0.983914
0.984947
1.06625
1.03864
0.987881
0.923971
0.858972
0.80186
0.756748
0.7241
0.702598
0.690553
0.686701
0.690597
0.702709
0.724296
0.756938
0.801557
0.856783
0.917025
0.971867
1.00937
1.02343
1.01846
1.00537
0.993713
0.988247
0.989718
0.99659
1.00627
1.0159
1.0229
1.02552
1.02315
1.01641
1.00691
0.996738
0.987801
0.981299
0.977466
0.975731
0.975189
1.06108
1.0505
1.02666
0.989171
0.942703
0.894652
0.851418
0.816757
0.79209
0.777518
0.772732
0.777579
0.79224
0.81702
0.85171
0.894511
0.940848
0.983027
1.01228
1.02343
1.01873
1.00645
0.995581
0.992049
0.998154
1.01338
1.03517
1.05945
1.08144
1.09672
1.10225
1.09698
1.08199
1.06021
1.03567
1.01231
0.992945
0.978817
0.969929
0.965719
1.04349
1.04306
1.03854
1.0257
1.00327
0.974016
0.942911
0.914752
0.892913
0.879275
0.874677
0.879353
0.893092
0.915032
0.943147
0.97367
1.00106
1.0193
1.02471
1.01846
1.00645
0.996372
0.99478
1.00581
1.03101
1.0692
1.11599
1.16399
1.20478
1.23167
1.24106
1.23194
1.20531
1.16466
1.11625
1.0677
1.0254
0.992885
0.971278
0.960575
1.02519
1.02833
1.03234
1.03374
1.0297
1.01958
1.00516
0.98959
0.976051
0.966985
0.963837
0.967079
0.976237
0.989803
1.00512
1.01854
1.02622
1.02571
1.01746
1.00537
0.995581
0.99478
1.00889
1.04239
1.0972
1.17017
1.25068
1.32317
1.37574
1.40544
1.41483
1.40564
1.37607
1.32334
1.24989
1.16679
1.08894
1.02702
0.98534
0.964604
1.01178
1.01499
1.02033
1.026
1.02999
1.03098
1.02884
1.02458
1.01985
1.01627
1.01498
1.01638
1.02002
1.02464
1.0283
1.0288
1.02453
1.01539
1.00359
0.993713
0.992049
1.00581
1.04239
1.10807
1.20331
1.31407
1.4111
1.47112
1.49526
1.49991
1.49969
1.4999
1.49507
1.47024
1.40842
1.30756
1.19061
1.08823
1.01757
0.982489
1.00401
1.00618
1.0101
1.01501
1.01995
1.02403
1.02671
1.02798
1.02825
1.02809
1.02802
1.0282
1.02837
1.02781
1.02552
1.02047
1.01223
1.00172
0.991943
0.988247
0.998154
1.03101
1.0972
1.20331
1.33665
1.45172
1.50411
1.4979
1.46671
1.43857
1.42779
1.43838
1.46602
1.496
1.4997
1.44254
1.31987
1.1791
1.07198
1.01778
1.00045
1.00161
1.0038
1.00677
1.01014
1.0135
1.01645
1.01875
1.02033
1.02124
1.02157
1.02133
1.02037
1.0183
1.01453
1.00852
1.00029
0.991358
0.985597
0.989718
1.01338
1.0692
1.17017
1.31407
1.45172
1.50881
1.47806
1.40889
1.34231
1.29779
1.28235
1.2975
1.34138
1.40654
1.47308
1.49947
1.43508
1.28959
1.14842
1.07161
0.999321
0.999814
1.00079
1.00219
1.00393
1.00583
1.00769
1.00933
1.0106
1.01142
1.01173
1.01149
1.01055
1.00857
1.00504
0.999527
0.992321
0.985546
0.984161
0.99659
1.03517
1.11599
1.25068
1.4111
1.50411
1.47806
1.38481
1.2844
1.20536
1.1568
1.14051
1.15649
1.20438
1.282
1.38003
1.47036
1.49258
1.39385
1.23903
1.1408
0.99927
0.999423
0.999745
1.00025
1.00095
1.00177
1.00266
1.00349
1.00419
1.00467
1.00487
1.00472
1.00403
1.00242
0.999345
0.994371
0.98807
0.98321
0.985881
1.00627
1.05945
1.16399
1.32317
1.47112
1.4979
1.40889
1.2844
1.17368
1.09317
1.04555
1.02982
1.04524
1.0922
1.17135
1.28003
1.40301
1.49283
1.46667
1.32803
1.21628
0.999527
0.999544
0.999596
0.999707
0.999895
1.00016
1.00047
1.0008
1.0011
1.00133
1.00144
1.00135
1.00084
0.999479
0.996639
0.991945
0.986219
0.982813
0.988797
1.0159
1.08144
1.20478
1.37574
1.49526
1.46671
1.34231
1.20536
1.09317
1.0147
0.969206
0.954315
0.968905
1.01377
1.09095
1.20135
1.3378
1.46666
1.50348
1.39889
1.28433
0.999766
0.999748
0.999722
0.999704
0.99971
0.999749
0.999818
0.999909
1.00001
1.00011
1.00017
1.00012
0.999689
0.998416
0.995648
0.991043
0.985615
0.983119
0.99129
1.0229
1.09672
1.23167
1.40544
1.49991
1.43857
1.29779
1.1568
1.04555
0.969206
0.925396
0.91112
0.925103
0.9683
1.04341
1.15302
1.29409
1.44145
1.51658
1.44243
1.33124
0.999909
0.999892
0.999861
0.999825
0.999793
0.999771
0.999764
0.999773
0.999803
0.999852
0.999899
0.999852
0.999459
0.998221
0.995479
0.990902
0.985571
0.983387
0.992322
1.02552
1.10225
1.24106
1.41483
1.49969
1.42779
1.28235
1.14051
1.02982
0.954315
0.91112
0.897065
0.910831
0.953419
1.02771
1.13681
1.27892
1.43162
1.51926
1.45689
1.34797
0.999975
0.999965
0.999946
0.999922
0.999897
0.999874
0.999856
0.999851
0.999863
0.9999
0.999943
0.999907
0.999542
0.998358
0.995687
0.991172
0.98581
0.983353
0.991539
1.02315
1.09698
1.23194
1.40564
1.4999
1.43838
1.2975
1.15649
1.04524
0.968905
0.925103
0.910831
0.924811
0.968
1.0431
1.15271
1.29381
1.44127
1.51662
1.44269
1.33157
0.999997
0.999993
0.999985
0.999974
0.999961
0.999948
0.999937
0.999935
0.999948
0.999983
1.00003
1.00001
0.999693
0.998613
0.996108
0.991748
0.98631
0.983119
0.989239
1.01641
1.08199
1.20531
1.37607
1.49507
1.46602
1.34138
1.20438
1.0922
1.01377
0.9683
0.953419
0.968
1.01284
1.08999
1.20038
1.33689
1.46599
1.50337
1.39935
1.28498
1
1
0.999998
0.999994
0.999989
0.999984
0.99998
0.999982
0.999997
1.00003
1.00008
1.00008
0.999838
0.99892
0.996687
0.992618
0.98717
0.983021
0.986207
1.00691
1.06021
1.16466
1.32334
1.47024
1.496
1.40654
1.282
1.17135
1.09095
1.04341
1.02771
1.0431
1.08999
1.16904
1.27763
1.40067
1.49095
1.46588
1.32833
1.21703
1
1
1
1
0.999998
0.999997
0.999996
1
1.00001
1.00005
1.0001
1.00013
0.999966
0.999253
0.997387
0.993767
0.988488
0.983449
0.983428
0.996738
1.03567
1.11625
1.24989
1.40842
1.4997
1.47308
1.38003
1.28003
1.20135
1.15302
1.13681
1.15271
1.20038
1.27763
1.37525
1.46536
1.48814
1.39118
1.23823
1.14089
1
1
1
1
1
1
1
1
1.00002
1.00005
1.0001
1.00015
1.00007
0.999586
0.998151
0.995127
0.990271
0.984667
0.98173
0.987801
1.01231
1.0677
1.16679
1.30756
1.44254
1.49947
1.47036
1.40301
1.3378
1.29409
1.27892
1.29381
1.33689
1.40067
1.46536
1.49003
1.42573
1.28288
1.14469
1.06944
1
1
1
1
1
1
1
1
1.00001
1.00004
1.00009
1.00015
1.00016
0.999889
0.998904
0.996568
0.992373
0.986654
0.981485
0.981299
0.992945
1.0254
1.08894
1.19061
1.31987
1.43508
1.49258
1.49283
1.46666
1.44145
1.43162
1.44127
1.46599
1.49095
1.48814
1.42573
1.30275
1.16585
1.06285
1.01089
1
1
1
1
1
1
1
1
1.00001
1.00003
1.00007
1.00015
1.00022
1.00013
0.999559
0.997906
0.994495
0.989049
0.982459
0.977466
0.978817
0.992885
1.02702
1.08823
1.1791
1.28959
1.39385
1.46667
1.50348
1.51658
1.51926
1.51662
1.50337
1.46588
1.39118
1.28288
1.16585
1.06742
1.00082
0.968033
1
1
1
1
1
1
0.999999
1
1
1.00002
1.00006
1.00014
1.00025
1.0003
1.00004
0.998942
0.99624
0.991231
0.983914
0.975731
0.969929
0.971278
0.98534
1.01757
1.07198
1.14842
1.23903
1.32803
1.39889
1.44243
1.45689
1.44269
1.39935
1.32833
1.23823
1.14469
1.06285
1.00082
0.960324
0.940498
1
1
1
1
1
0.999999
0.999999
0.999999
1
1.00002
1.00005
1.00013
1.00026
1.00039
1.0003
0.999508
0.997227
0.992535
0.984947
0.975189
0.965719
0.960575
0.964604
0.982489
1.01778
1.07161
1.1408
1.21628
1.28433
1.33124
1.34797
1.33157
1.28498
1.21703
1.14089
1.06944
1.01089
0.968033
0.940498
0.927108
SCALARS C2 double 1
LOOKUP_TABLE default
2.34466
2.32731
2.31036
2.31462
2.34836
2.40504
2.47121
2.53395
2.58397
2.61579
2.62665
2.61575
2.58385
2.53359
2.47038
2.4036
2.3468
2.31521
2.31858
2.35315
2.40193
2.44646
2.47726
2.49413
2.50117
2.50284
2.50234
2.50139
2.50065
2.50024
2.50006
2.5
2.49999
2.49999
2.5
2.5
2.5
2.5
2.5
2.5
2.32731
2.32815
2.34232
2.3806
2.44232
2.51769
2.59454
2.66265
2.71507
2.7478
2.75889
2.74776
2.71494
2.6623
2.59379
2.51653
2.44166
2.38351
2.35545
2.36222
2.39465
2.43467
2.46756
2.48815
2.4982
2.50168
2.50205
2.50141
2.50073
2.5003
2.50009
2.50001
2.49999
2.49999
2.5
2.5
2.5
2.5
2.5
2.5
2.31036
2.34232
2.40518
2.49222
2.59175
2.69162
2.7822
2.85693
2.91199
2.94551
2.95673
2.94547
2.91187
2.85661
2.78156
2.69087
2.59236
2.4986
2.42578
2.38833
2.38961
2.41707
2.45078
2.47706
2.49242
2.49931
2.50137
2.50139
2.50086
2.50041
2.50015
2.50004
2.5
2.49999
2.5
2.5
2.5
2.5
2.5
2.5
2.31462
2.3806
2.49222
2.62277
2.7521
2.86885
2.96721
3.04434
3.09925
3.13194
3.14277
3.13191
3.09914
3.04407
2.96668
2.86843
2.75382
2.63241
2.5201
2.43689
2.39817
2.4028
2.43165
2.46261
2.48428
2.4957
2.5002
2.50122
2.50099
2.50054
2.50023
2.50007
2.50001
2.5
2.5
2.5
2.5
2.5
2.5
2.5
2.34836
2.44232
2.59175
2.7521
2.89808
3.02134
3.12027
3.19516
3.24706
3.2774
3.28736
3.27738
3.24697
3.19492
3.11984
3.02115
2.90053
2.76413
2.62512
2.50445
2.42533
2.39945
2.41548
2.44729
2.47461
2.49102
2.49848
2.50084
2.50105
2.50067
2.50032
2.50012
2.50003
2.5
2.5
2.5
2.5
2.5
2.5
2.5
2.40504
2.51769
2.69162
2.86885
3.02134
3.14426
3.23946
3.30942
3.35671
3.38381
3.3926
3.38379
3.35664
3.30923
3.23912
3.14426
3.02426
2.88237
2.72839
2.58138
2.46775
2.40935
2.40609
2.43364
2.46456
2.48566
2.49629
2.50023
2.50102
2.50078
2.5004
2.50016
2.50005
2.50001
2.5
2.5
2.5
2.5
2.5
2.5
2.47121
2.59454
2.7822
2.96721
3.12027
3.23946
3.32899
3.39285
3.43474
3.45812
3.46558
3.45809
3.43467
3.39269
3.32874
3.23964
3.12353
2.98156
2.82064
2.65702
2.51724
2.42947
2.40433
2.4234
2.45532
2.48019
2.49384
2.49943
2.5009
2.50084
2.50048
2.5002
2.50007
2.50001
2.5
2.5
2.5
2.5
2.5
2.5
2.53395
2.66265
2.85693
3.04434
3.19516
3.30942
3.39285
3.45043
3.48679
3.50633
3.51242
3.50631
3.48672
3.45029
3.39269
3.30978
3.19868
3.05913
2.89593
2.72277
2.56495
2.45384
2.40831
2.41703
2.4478
2.47525
2.49146
2.49856
2.50071
2.50086
2.50053
2.50023
2.50008
2.50001
2.5
2.5
2.5
2.5
2.5
2.5
2.58397
2.71507
2.91199
3.09925
3.24706
3.35671
3.43474
3.48679
3.51825
3.53438
3.53923
3.53435
3.51819
3.48668
3.43465
3.35722
3.25078
3.11422
2.95098
2.77285
2.60371
2.47621
2.41467
2.41385
2.44244
2.47135
2.48945
2.49778
2.50049
2.50084
2.50054
2.50023
2.50006
2.5
2.49998
2.49998
2.49999
2.5
2.5
2.5
2.61579
2.7478
2.94551
3.13194
3.2774
3.38381
3.45812
3.50633
3.53438
3.5481
3.55207
3.54807
3.53432
3.50624
3.45808
3.38442
3.28125
3.14699
2.98433
2.80396
2.62871
2.49165
2.42004
2.41264
2.43929
2.46885
2.48809
2.49719
2.50028
2.50076
2.50049
2.50018
2.50001
2.49994
2.49993
2.49994
2.49996
2.49998
2.49999
2.5
2.62665
2.75889
2.95673
3.14277
3.28736
3.3926
3.46558
3.51242
3.53923
3.55207
3.55574
3.55205
3.53917
3.51233
3.46556
3.39324
3.29125
3.15784
2.99547
2.81447
2.63731
2.49711
2.42208
2.41232
2.43819
2.46791
2.48751
2.49687
2.50009
2.50061
2.50035
2.50004
2.49987
2.49981
2.49982
2.49985
2.49988
2.49992
2.49995
2.49996
2.61575
2.74776
2.94547
3.13191
3.27738
3.38379
3.45809
3.50631
3.53435
3.54807
3.55205
3.54805
3.53429
3.50622
3.45805
3.38439
3.28123
3.14696
2.98429
2.80391
2.62865
2.49156
2.41991
2.41245
2.43905
2.46858
2.48778
2.49687
2.49995
2.50043
2.50016
2.49986
2.49968
2.49962
2.49963
2.49967
2.49972
2.49978
2.49983
2.49985
2.58385
2.71494
2.91187
3.09914
3.24697
3.35664
3.43467
3.48672
3.51819
3.53432
3.53917
3.53429
3.51813
3.48661
3.43458
3.35714
3.25069
3.11412
2.95086
2.7727
2.60351
2.47595
2.41433
2.41343
2.44196
2.47084
2.48894
2.4973
2.50005
2.50044
2.50016
2.49984
2.49963
2.49952
2.49947
2.49946
2.49949
2.49954
2.49958
2.49962
2.53359
2.6623
2.85661
3.04407
3.19492
3.30923
3.39269
3.45029
3.48668
3.50624
3.51233
3.50622
3.48661
3.45016
3.39253
3.30958
3.19844
3.05885
2.8956
2.72236
2.56445
2.45325
2.40767
2.41638
2.44721
2.4748
2.49123
2.49859
2.50097
2.5013
2.50102
2.50067
2.50034
2.50004
2.49975
2.49952
2.49935
2.49925
2.49921
2.4992
2.47038
2.59379
2.78156
2.96668
3.11984
3.23912
3.32874
3.39269
3.43465
3.45808
3.46556
3.45805
3.43458
3.39253
3.3285
3.2393
3.12309
2.98102
2.81995
2.65616
2.51623
2.42842
2.40343
2.42284
2.45531
2.48089
2.49535
2.50177
2.50395
2.50437
2.50418
2.50374
2.50312
2.50234
2.50147
2.50061
2.49985
2.49927
2.49889
2.4987
2.4036
2.51653
2.69087
2.86843
3.02115
3.14426
3.23964
3.30978
3.35722
3.38442
3.39324
3.38439
3.35714
3.30958
3.2393
3.14424
3.02403
2.88186
2.72752
2.58011
2.46624
2.40801
2.40548
2.43432
2.46694
2.49
2.50268
2.50855
2.51091
2.51168
2.51167
2.51107
2.50993
2.50829
2.5063
2.50417
2.50214
2.50042
2.4992
2.49857
2.3468
2.44166
2.59236
2.75382
2.90053
3.02426
3.12353
3.19868
3.25078
3.28125
3.29125
3.28123
3.25069
3.19844
3.12309
3.02403
2.90287
2.76566
2.62558
2.50384
2.42419
2.39888
2.41684
2.45175
2.48289
2.50341
2.51485
2.5207
2.52358
2.52488
2.52509
2.52432
2.52254
2.51979
2.51622
2.51213
2.50796
2.50422
2.50141
2.49989
2.31521
2.38351
2.4986
2.63241
2.76413
2.88237
2.98156
3.05913
3.11422
3.14699
3.15784
3.14696
3.11412
3.05885
2.98102
2.88186
2.76566
2.64183
2.52649
2.44042
2.40022
2.40584
2.43841
2.47515
2.5036
2.52183
2.5324
2.53828
2.54145
2.54299
2.54332
2.54251
2.54044
2.53695
2.53201
2.52585
2.51907
2.51257
2.50743
2.50457
2.31858
2.35545
2.42578
2.5201
2.62512
2.72839
2.82064
2.89593
2.95098
2.98433
2.99547
2.98429
2.95086
2.8956
2.81995
2.72752
2.62558
2.52649
2.44702
2.40322
2.4008
2.4291
2.46831
2.50317
2.5281
2.5437
2.55249
2.55686
2.55862
2.55909
2.55904
2.55869
2.55769
2.55534
2.55093
2.54423
2.53576
2.52683
2.5193
2.51497
2.35315
2.36222
2.38833
2.43689
2.50445
2.58138
2.65702
2.72277
2.77285
2.80396
2.81447
2.80391
2.7727
2.72236
2.65616
2.58011
2.50384
2.44042
2.40322
2.39951
2.42451
2.4637
2.50241
2.53263
2.55248
2.56297
2.56609
2.56422
2.56004
2.55615
2.55452
2.55581
2.55918
2.56264
2.56391
2.56141
2.55504
2.54634
2.53801
2.53293
2.40193
2.39465
2.38961
2.39817
2.42533
2.46775
2.51724
2.56495
2.60371
2.62871
2.63731
2.62865
2.60351
2.56445
2.51623
2.46624
2.42419
2.40022
2.4008
2.42451
2.46208
2.50182
2.53517
2.55784
2.56835
2.56682
2.55497
2.5365
2.51687
2.50198
2.49637
2.50165
2.51603
2.53491
2.55262
2.56457
2.56893
2.56694
2.56211
2.5584
2.44646
2.43467
2.41707
2.4028
2.39945
2.40935
2.42947
2.45384
2.47621
2.49165
2.49711
2.49156
2.47595
2.45325
2.42842
2.40801
2.39888
2.40584
2.4291
2.4637
2.50182
2.53595
2.56017
2.56986
2.5615
2.53366
2.48896
2.43533
2.38463
2.34872
2.33571
2.34835
2.38374
2.43376
2.48688
2.53215
2.56332
2.58019
2.58681
2.5884
2.47726
2.46756
2.45078
2.43165
2.41548
2.40609
2.40433
2.40831
2.41467
2.42004
2.42208
2.41991
2.41433
2.40767
2.40343
2.40548
2.41684
2.43841
2.46831
2.50241
2.53517
2.56017
2.56995
2.55622
2.51152
2.43355
2.33069
2.22287
2.1327
2.07502
2.05536
2.07463
2.13183
2.22156
2.32957
2.43448
2.518
2.57337
2.604
2.61687
2.49413
2.48815
2.47706
2.46261
2.44729
2.43364
2.4234
2.41703
2.41385
2.41264
2.41232
2.41245
2.41343
2.41638
2.42284
2.43432
2.45175
2.47515
2.50317
2.53263
2.55784
2.56986
2.55622
2.50211
2.39617
2.24361
2.0763
1.93557
1.842
1.79255
1.77745
1.79229
1.84151
1.93515
2.07718
2.24888
2.41064
2.53088
2.60315
2.6355
2.50117
2.4982
2.49242
2.48428
2.47461
2.46456
2.45532
2.4478
2.44244
2.43929
2.43819
2.43905
2.44196
2.44721
2.45531
2.46694
2.48289
2.5036
2.5281
2.55248
2.56835
2.5615
2.51152
2.39617
2.21027
1.99525
1.82107
1.719
1.67314
1.65715
1.65367
1.65709
1.67318
1.71972
1.8242
2.00523
2.23417
2.43918
2.57345
2.63537
2.50284
2.50168
2.49931
2.4957
2.49102
2.48566
2.48019
2.47525
2.47135
2.46885
2.46791
2.46858
2.47084
2.4748
2.48089
2.49
2.50341
2.52183
2.5437
2.56297
2.56682
2.53366
2.43355
2.24361
1.99525
1.78665
1.67711
1.64473
1.64823
1.65958
1.66474
1.65965
1.64864
1.64619
1.68148
1.79879
2.02495
2.2985
2.50796
2.60959
2.50234
2.50205
2.50137
2.5002
2.49848
2.49629
2.49384
2.49146
2.48945
2.48809
2.48751
2.48778
2.48894
2.49123
2.49535
2.50268
2.51485
2.5324
2.55249
2.56609
2.55497
2.48896
2.33069
2.0763
1.82107
1.67711
1.64232
1.6623
1.69648
1.7234
1.73331
1.72354
1.69706
1.6641
1.64705
1.68881
1.84984
2.1346
2.41008
2.55691
2.50139
2.50141
2.50139
2.50122
2.50084
2.50023
2.49943
2.49856
2.49778
2.49719
2.49687
2.49687
2.4973
2.49859
2.50177
2.50855
2.5207
2.53828
2.55686
2.56422
2.5365
2.43533
2.22287
1.93557
1.719
1.64473
1.6623
1.7131
1.76398
1.79904
1.8114
1.79921
1.76464
1.71505
1.66705
1.65522
1.74307
1.988
2.2975
2.48534
2.50065
2.50073
2.50086
2.50099
2.50105
2.50102
2.5009
2.50071
2.50049
2.50028
2.50009
2.49995
2.50005
2.50097
2.50395
2.51091
2.52358
2.54145
2.55862
2.56004
2.51687
2.38463
2.1327
1.842
1.67314
1.64823
1.69648
1.76398
1.82354
1.86273
1.8763
1.86291
1.82424
1.76599
1.70117
1.65769
1.69258
1.88484
2.19623
2.41208
2.50024
2.5003
2.50041
2.50054
2.50067
2.50078
2.50084
2.50086
2.50084
2.50076
2.50061
2.50043
2.50044
2.5013
2.50437
2.51168
2.52488
2.54299
2.55909
2.55615
2.50198
2.34872
2.07502
1.79255
1.65715
1.65958
1.7234
1.79904
1.86273
1.90383
1.91797
1.90402
1.86344
1.80108
1.72804
1.6684
1.67361
1.82782
2.12806
2.3576
2.50006
2.50009
2.50015
2.50023
2.50032
2.5004
2.50048
2.50053
2.50054
2.50049
2.50035
2.50016
2.50016
2.50102
2.50418
2.51167
2.52509
2.54332
2.55904
2.55452
2.49637
2.33571
2.05536
1.77745
1.65367
1.66474
1.73331
1.8114
1.8763
1.91797
1.93227
1.91816
1.87702
1.81344
1.73794
1.67336
1.66913
1.80994
2.10421
2.33744
2.5
2.50001
2.50004
2.50007
2.50012
2.50016
2.5002
2.50023
2.50023
2.50018
2.50004
2.49986
2.49984
2.50067
2.50374
2.51107
2.52432
2.54251
2.55869
2.55581
2.50165
2.34835
2.07463
1.79229
1.65709
1.65965
1.72354
1.79921
1.86291
1.90402
1.91816
1.90421
1.86362
1.80125
1.72818
1.66847
1.67353
1.8275
2.12758
2.35712
2.49999
2.49999
2.5
2.50001
2.50003
2.50005
2.50007
2.50008
2.50006
2.50001
2.49987
2.49968
2.49963
2.50034
2.50312
2.50993
2.52254
2.54044
2.55769
2.55918
2.51603
2.38374
2.13183
1.84151
1.67318
1.64864
1.69706
1.76464
1.82424
1.86344
1.87702
1.86362
1.82493
1.76665
1.70175
1.65807
1.69257
1.88421
2.19517
2.41098
2.49999
2.49999
2.49999
2.5
2.5
2.50001
2.50001
2.50001
2.5
2.49994
2.49981
2.49962
2.49952
2.50004
2.50234
2.50829
2.51979
2.53695
2.55534
2.56264
2.53491
2.43376
2.22156
1.93515
1.71972
1.64619
1.6641
1.71505
1.76599
1.80108
1.81344
1.80125
1.76665
1.717
1.66884
1.65665
1.74371
1.98736
2.29593
2.48355
2.5
2.5
2.5
2.5
2.5
2.5
2.5
2.5
2.49998
2.49993
2.49982
2.49963
2.49947
2.49975
2.50147
2.5063
2.51622
2.53201
2.55093
2.56391
2.55262
2.48688
2.32957
2.07718
1.8242
1.68148
1.64705
1.66705
1.70117
1.72804
1.73794
1.72818
1.70175
1.66884
1.65176
1.69318
1.8529
2.13527
2.40879
2.55485
2.5
2.5
2.5
2.5
2.5
2.5
2.5
2.5
2.49998
2.49994
2.49985
2.49967
2.49946
2.49952
2.50061
2.50417
2.51213
2.52585
2.54423
2.56141
2.56457
2.53215
2.43448
2.24888
2.00523
1.79879
1.68881
1.65522
1.65769
1.6684
1.67336
1.66847
1.65807
1.65665
1.69318
1.81096
2.03493
2.30371
2.50905
2.60876
2.5
2.5
2.5
2.5
2.5
2.5
2.5
2.5
2.49999
2.49996
2.49988
2.49972
2.49949
2.49935
2.49985
2.50214
2.50796
2.51907
2.53576
2.55504
2.56893
2.56332
2.518
2.41064
2.23417
2.02495
1.84984
1.74307
1.69258
1.67361
1.66913
1.67353
1.69257
1.74371
1.8529
2.03493
2.25813
2.45389
2.58074
2.639
2.5
2.5
2.5
2.5
2.5
2.5
2.5
2.5
2.5
2.49998
2.49992
2.49978
2.49954
2.49925
2.49927
2.50042
2.50422
2.51257
2.52683
2.54634
2.56694
2.58019
2.57337
2.53088
2.43918
2.2985
2.1346
1.988
1.88484
1.82782
1.80994
1.8275
1.88421
1.98736
2.13527
2.30371
2.45389
2.56048
2.62215
2.64899
2.5
2.5
2.5
2.5
2.5
2.5
2.5
2.5
2.5
2.49999
2.49995
2.49983
2.49958
2.49921
2.49889
2.4992
2.50141
2.50743
2.5193
2.53801
2.56211
2.58681
2.604
2.60315
2.57345
2.50796
2.41008
2.2975
2.19623
2.12806
2.10421
2.12758
2.19517
2.29593
2.40879
2.50905
2.58074
2.62215
2.64116
2.64756
2.5
2.5
2.5
2.5
2.5
2.5
2.5
2.5
2.5
2.5
2.49996
2.49985
2.49962
2.4992
2.4987
2.49857
2.49989
2.50457
2.51497
2.53293
2.5584
2.5884
2.61687
2.6355
2.63537
2.60959
2.55691
2.48534
2.41208
2.3576
2.33744
2.35712
2.41098
2.48355
2.55485
2.60876
2.639
2.64899
2.64756
2.64399
