# vtk DataFile Version 3.0
Brusselator Concentration Output
ASCII
DATASET STRUCTURED_POINTS
DIMENSIONS 40 40 1
ORIGIN 0.0 0.0 0.0
SPACING 0.005 0.005 1.0
POINT_DATA 1600
SCALARS C1 double 1
LOOKUP_TABLE default
0.976406
0.985372
1.00506
1.038
1.08539
1.14446
1.20702
1.26215
1.30193
1.32447
1.33157
1.32445
1.30187
1.26205
1.20693
1.14458
1.08619
1.04029
1.00993
0.993706
0.98796
0.988515
0.991747
0.995213
0.997762
0.999213
0.999857
1.00006
1.00008
1.00005
1.00002
1.00001
1
1
1
1
1
1
1
1
0.985372
0.999402
1.02882
1.07458
1.13359
1.19555
1.24629
1.27719
1.29011
1.29297
1.293
1.29295
1.29008
1.27715
1.24634
1.19597
1.13491
1.07764
1.03444
1.00775
0.994777
0.990989
0.992051
0.994739
0.99722
0.998846
0.999669
0.999983
1.00006
1.00005
1.00003
1.00001
1
1
1
1
1
1
1
1
1.00506
1.02882
1.07596
1.14068
1.20496
1.244
1.24686
1.22404
1.19402
1.17103
1.16261
1.17102
1.19402
1.22411
1.24716
1.24491
1.20715
1.14495
1.08261
1.03647
1.00925
0.99673
0.993275
0.994183
0.996338
0.998191
0.999314
0.999834
1.00001
1.00004
1.00003
1.00001
1.00001
1
1
1
1
1
1
1
1.038
1.07458
1.14068
1.21058
1.2426
1.2175
1.15542
1.08664
1.03045
0.995117
0.983186
0.995119
1.03048
1.08679
1.15593
1.21881
1.24541
1.21558
1.14741
1.0794
1.03233
1.00682
0.99632
0.994151
0.995442
0.997387
0.998835
0.999616
0.999935
1.00002
1.00003
1.00002
1.00001
1
1
1
1
1
1
1
1.08539
1.13359
1.20496
1.2426
1.2056
1.11558
1.01544
0.930971
0.8709
0.835855
0.824414
0.835863
0.870948
0.931164
1.01602
1.117
1.20832
1.24674
1.20914
1.13166
1.06364
1.02184
1.00187
0.995186
0.994871
0.996602
0.998297
0.999347
0.999832
0.999996
1.00003
1.00002
1.00001
1
1
1
1
1
1
1
1.14446
1.19555
1.244
1.2175
1.11558
0.991537
0.882964
0.802211
0.748931
0.719199
0.709696
0.719209
0.748983
0.80241
0.883551
0.992865
1.11771
1.21934
1.2424
1.182
1.1001
1.04118
1.01
0.997529
0.994848
0.99598
0.99777
0.999052
0.999708
0.999958
1.00002
1.00002
1.00001
1
1
1
1
1
1
1
1.20702
1.24629
1.24686
1.15542
1.01544
0.882964
0.780773
0.710396
0.666238
0.642359
0.634843
0.642369
0.666289
0.710588
0.781322
0.88413
1.01689
1.15469
1.23795
1.2178
1.136
1.06272
1.01993
1.00099
0.995406
0.995601
0.997314
0.998764
0.999574
0.999911
1.00001
1.00002
1.00001
1.00001
1
1
1
1
1
1
1.26215
1.27719
1.22404
1.08664
0.930971
0.802211
0.710396
0.650394
0.614088
0.594919
0.588959
0.59493
0.614138
0.650573
0.710899
0.803214
0.931836
1.08378
1.20856
1.23402
1.16545
1.08336
1.03025
1.00498
0.99637
0.99546
0.996967
0.998512
0.999448
0.999863
0.999996
1.00002
1.00001
1
1
0.999999
0.999999
0.999999
1
1
1.30193
1.29011
1.19402
1.03045
0.8709
0.748931
0.666238
0.614088
0.583345
0.567404
0.562495
0.567414
0.583393
0.614258
0.666701
0.749805
0.871337
1.0261
1.1738
1.23559
1.1854
1.10006
1.03921
1.00868
0.997429
0.995479
0.996735
0.998319
0.999343
0.999819
0.999981
1.00001
1.00001
1
0.999997
0.999996
0.999996
0.999997
0.999998
0.999998
1.32447
1.29297
1.17103
0.995117
0.835855
0.719199
0.642359
0.594919
0.567404
0.553304
0.54899
0.553314
0.56745
0.595082
0.642798
0.719993
0.836035
0.989919
1.14807
1.23166
1.19614
1.11072
1.04527
1.01129
0.998238
0.995549
0.996605
0.998197
0.999273
0.999788
0.999969
1.00001
1.00001
0.999997
0.999992
0.999991
0.999992
0.999993
0.999994
0.999995
1.33157
1.293
1.16261
0.983186
0.824414
0.709696
0.634843
0.588959
0.562495
0.54899
0.544868
0.549
0.562541
0.58912
0.635274
0.710462
0.82451
0.977712
1.13878
1.22946
1.19942
1.11435
1.0474
1.01223
0.998536
0.995582
0.996565
0.99816
0.999256
0.999786
0.999975
1.00002
1.00001
1
0.999991
0.999987
0.999985
0.999985
0.999986
0.999986
1.32445
1.29295
1.17102
0.995119
0.835863
0.719209
0.642369
0.59493
0.567414
0.553314
0.549
0.553324
0.56746
0.595092
0.642808
0.720002
0.836043
0.989921
1.14806
1.23163
1.19612
1.11069
1.04525
1.01128
0.998235
0.995559
0.99663
0.998238
0.999328
0.999852
1.00004
1.00007
1.00006
1.00004
1.00002
1
0.999988
0.999979
0.999974
0.999972
1.30187
1.29008
1.19402
1.03048
0.870948
0.748983
0.666289
0.614138
0.583393
0.56745
0.562541
0.56746
0.583441
0.614307
0.666753
0.749857
0.871383
1.02613
1.1738
1.23556
1.18534
1.10001
1.03918
1.00868
0.997467
0.995562
0.996868
0.9985
0.999564
1.00007
1.00024
1.00026
1.00023
1.00018
1.00013
1.00008
1.00003
0.999997
0.999972
0.99996
1.26205
1.27715
1.22411
1.08679
0.931164
0.80241
0.710588
0.650573
0.614258
0.595082
0.58912
0.595092
0.614307
0.650753
0.71109
0.803413
0.932028
1.08393
1.20863
1.234
1.16539
1.08331
1.03026
1.00507
0.99657
0.995778
0.997406
0.99906
1.00008
1.00055
1.0007
1.00071
1.00064
1.00055
1.00044
1.00032
1.0002
1.0001
1.00002
0.999982
1.20693
1.24634
1.24716
1.15593
1.01602
0.883551
0.781322
0.710899
0.666701
0.642798
0.635274
0.642808
0.666753
0.71109
0.78187
0.884716
1.01748
1.1552
1.23827
1.2179
1.13601
1.06277
1.02011
1.00136
0.996011
0.996448
0.998384
1.00002
1.00096
1.00138
1.0015
1.00149
1.0014
1.00126
1.00107
1.00085
1.00061
1.00039
1.00021
1.00012
1.14458
1.19597
1.24491
1.21881
1.117
0.992865
0.88413
0.803214
0.749805
0.719993
0.710462
0.720002
0.749857
0.803413
0.884716
0.994193
1.11913
1.22067
1.24337
1.18253
1.10042
1.04156
1.01062
0.998505
0.996216
0.997709
0.999778
1.00124
1.00199
1.00228
1.00235
1.00234
1.00229
1.00219
1.00201
1.00173
1.00138
1.00102
1.00071
1.00054
1.08619
1.13491
1.20715
1.24541
1.20832
1.11771
1.01689
0.931836
0.871337
0.836035
0.82451
0.836043
0.871383
0.932028
1.01748
1.11913
1.21105
1.2496
1.21145
1.13321
1.06477
1.023
1.00337
0.997145
0.997263
0.999261
1.001
1.00189
1.00213
1.00207
1.00202
1.0021
1.0023
1.00255
1.0027
1.00267
1.00244
1.00206
1.00168
1.00145
1.04029
1.07764
1.14495
1.21558
1.24674
1.21934
1.15469
1.08378
1.0261
0.989919
0.977712
0.989921
1.02613
1.08393
1.1552
1.22067
1.2496
1.2207
1.15193
1.08284
1.03508
1.00943
0.999134
0.997198
0.998437
0.999853
1.0003
0.999793
0.998858
0.998041
0.997716
0.998033
0.998929
1.00018
1.00148
1.00251
1.00311
1.00326
1.00315
1.00301
1.00993
1.03444
1.08261
1.14741
1.20914
1.2424
1.23795
1.20856
1.1738
1.14807
1.13878
1.14806
1.1738
1.20863
1.23827
1.24337
1.21145
1.15193
1.08966
1.0426
1.01453
1.00144
0.99746
0.997421
0.997782
0.996863
0.994483
0.991315
0.988267
0.986112
0.985328
0.986084
0.988264
0.991493
0.99521
0.998777
1.00166
1.00359
1.00462
1.00503
0.993706
1.00775
1.03647
1.0794
1.13166
1.182
1.2178
1.23402
1.23559
1.23166
1.22946
1.23163
1.23556
1.234
1.2179
1.18253
1.13321
1.08284
1.0426
1.01652
1.00298
0.99781
0.99647
0.995278
0.992147
0.986699
0.97978
0.972741
0.966841
0.96297
0.961616
0.962935
0.966798
0.972793
0.9802
0.988039
0.995246
1.00096
1.00474
1.00657
0.98796
0.994777
1.00925
1.03233
1.06364
1.1001
1.136
1.16545
1.1854
1.19614
1.19942
1.19612
1.18534
1.16539
1.13601
1.10042
1.06477
1.03508
1.01453
1.00298
0.997967
0.995892
0.993213
0.987557
0.978351
0.966652
0.954351
0.943292
0.934775
0.929488
0.927695
0.929455
0.934726
0.943303
0.954642
0.9677
0.980939
0.992602
1.00116
1.00564
0.988515
0.990989
0.99673
1.00682
1.02184
1.04118
1.06272
1.08336
1.10006
1.11072
1.11435
1.11069
1.10001
1.08331
1.06277
1.04156
1.023
1.00943
1.00144
0.99781
0.995892
0.992412
0.984726
0.971966
0.955351
0.937426
0.920824
0.90737
0.897852
0.892307
0.890494
0.892283
0.897823
0.907415
0.921155
0.938471
0.957766
0.976412
0.991253
0.999484
0.991747
0.992051
0.993275
0.99632
1.00187
1.01
1.01993
1.03025
1.03921
1.04527
1.0474
1.04525
1.03918
1.03026
1.02011
1.01062
1.00337
0.999134
0.99746
0.99647
0.993213
0.984726
0.969582
0.948873
0.925767
0.903947
0.886128
0.873422
0.865551
0.8615
0.860277
0.861487
0.865558
0.873554
0.886619
0.905201
0.92824
0.952651
0.973572
0.985763
0.995213
0.994739
0.994183
0.994151
0.995186
0.997529
1.00099
1.00498
1.00868
1.01129
1.01223
1.01128
1.00868
1.00507
1.00136
0.998505
0.997145
0.997198
0.997421
0.995278
0.987557
0.971966
0.948873
0.921643
0.895094
0.873341
0.858456
0.850297
0.847122
0.846556
0.846618
0.846556
0.847176
0.850546
0.85918
0.874911
0.897672
0.924444
0.94909
0.964087
0.997762
0.99722
0.996338
0.995442
0.994871
0.994848
0.995406
0.99637
0.997429
0.998238
0.998536
0.998235
0.997467
0.99657
0.996011
0.996216
0.997263
0.998437
0.997782
0.992147
0.978351
0.955351
0.925767
0.895094
0.869153
0.851806
0.844045
0.844226
0.848895
0.85395
0.856063
0.853966
0.849002
0.844616
0.845039
0.853714
0.871729
0.89644
0.921062
0.93665
0.999213
0.998846
0.998191
0.997387
0.996602
0.99598
0.995601
0.99546
0.995479
0.995549
0.995582
0.995559
0.995562
0.995778
0.996448
0.997709
0.999261
0.999853
0.996863
0.986699
0.966652
0.937426
0.903947
0.873341
0.851806
0.842612
0.845642
0.857764
0.873569
0.886664
0.891729
0.886697
0.873741
0.858316
0.84693
0.844834
0.854198
0.872758
0.893571
0.907353
0.999857
0.999669
0.999314
0.998835
0.998297
0.99777
0.997314
0.996967
0.996735
0.996605
0.996565
0.99663
0.996868
0.997406
0.998384
0.999778
1.001
1.0003
0.994483
0.97978
0.954351
0.920824
0.886128
0.858456
0.844045
0.845642
0.862326
0.889659
0.919991
0.943814
0.952869
0.943869
0.920239
0.890396
0.863926
0.848138
0.846079
0.855633
0.869928
0.880147
1.00006
0.999983
0.999834
0.999616
0.999347
0.999052
0.998764
0.998512
0.998319
0.998197
0.99816
0.998238
0.9985
0.99906
1.00002
1.00124
1.00189
0.999793
0.991315
0.972741
0.943292
0.90737
0.873422
0.850297
0.844226
0.857764
0.889659
0.93445
0.981999
1.01884
1.03279
1.01892
0.982334
0.935389
0.891576
0.860493
0.845799
0.845203
0.851886
0.857827
1.00008
1.00006
1.00001
0.999935
0.999832
0.999708
0.999574
0.999448
0.999343
0.999273
0.999256
0.999328
0.999564
1.00008
1.00096
1.00199
1.00213
0.998858
0.988267
0.966841
0.934775
0.897852
0.865551
0.847122
0.848895
0.873569
0.919991
0.981999
1.04698
1.09718
1.11619
1.09729
1.0474
0.983131
0.922195
0.876479
0.850008
0.840058
0.839736
0.841746
1.00005
1.00005
1.00004
1.00002
0.999996
0.999958
0.999911
0.999863
0.999819
0.999788
0.999786
0.999852
1.00007
1.00055
1.00138
1.00228
1.00207
0.998041
0.986112
0.96297
0.929488
0.892307
0.8615
0.846556
0.85395
0.886664
0.943814
1.01884
1.09718
1.15768
1.18057
1.15781
1.09767
1.02011
0.946224
0.88969
0.854722
0.838147
0.83292
0.832201
1.00002
1.00003
1.00003
1.00003
1.00003
1.00002
1.00001
0.999996
0.999981
0.999969
0.999975
1.00004
1.00024
1.0007
1.0015
1.00235
1.00202
0.997716
0.985328
0.961616
0.927695
0.890494
0.860277
0.846618
0.856063
0.891729
0.952869
1.03279
1.11619
1.18057
1.20491
1.1807
1.1167
1.03412
0.955353
0.894795
0.856709
0.83773
0.830742
0.829047
1.00001
1.00001
1.00001
1.00002
1.00002
1.00002
1.00002
1.00002
1.00001
1.00001
1.00002
1.00007
1.00026
1.00071
1.00149
1.00234
1.0021
0.998033
0.986084
0.962935
0.929455
0.892283
0.861487
0.846556
0.853966
0.886697
0.943869
1.01892
1.09729
1.15781
1.1807
1.15793
1.09778
1.02019
0.946278
0.889722
0.854736
0.838146
0.832908
0.832182
1
1
1.00001
1.00001
1.00001
1.00001
1.00001
1.00001
1.00001
1.00001
1.00001
1.00006
1.00023
1.00064
1.0014
1.00229
1.0023
0.998929
0.988264
0.966798
0.934726
0.897823
0.865558
0.847176
0.849002
0.873741
0.920239
0.982334
1.0474
1.09767
1.1167
1.09778
1.04782
0.983466
0.922442
0.876649
0.850113
0.840111
0.83975
0.841737
1
1
1
1
1
1
1.00001
1
1
0.999997
1
1.00004
1.00018
1.00055
1.00126
1.00219
1.00255
1.00018
0.991493
0.972793
0.943303
0.907415
0.873554
0.850546
0.844616
0.858316
0.890396
0.935389
0.983131
1.02011
1.03412
1.02019
0.983466
0.936328
0.892313
0.861044
0.846189
0.845459
0.852041
0.857928
1
1
1
1
1
1
1
1
0.999997
0.999992
0.999991
1.00002
1.00013
1.00044
1.00107
1.00201
1.0027
1.00148
0.99521
0.9802
0.954642
0.921155
0.886619
0.85918
0.845039
0.84693
0.863926
0.891576
0.922195
0.946224
0.955353
0.946278
0.922442
0.892313
0.865527
0.84943
0.847084
0.856386
0.870488
0.880599
1
1
1
1
1
1
1
0.999999
0.999996
0.999991
0.999987
1
1.00008
1.00032
1.00085
1.00173
1.00267
1.00251
0.998777
0.988039
0.9677
0.938471
0.905201
0.874911
0.853714
0.844834
0.848138
0.860493
0.876479
0.88969
0.894795
0.889722
0.876649
0.861044
0.84943
0.84707
0.856144
0.874412
0.89498
0.908618
1
1
1
1
1
1
1
0.999999
0.999996
0.999992
0.999985
0.999988
1.00003
1.0002
1.00061
1.00138
1.00244
1.00311
1.00166
0.995246
0.980939
0.957766
0.92824
0.897672
0.871729
0.854198
0.846079
0.845799
0.850008
0.854722
0.856709
0.854736
0.850113
0.846189
0.847084
0.856144
0.8744
0.899202
0.923814
0.939369
1
1
1
1
1
1
1
0.999999
0.999997
0.999993
0.999985
0.999979
0.999997
1.0001
1.00039
1.00102
1.00206
1.00326
1.00359
1.00096
0.992602
0.976412
0.952651
0.924444
0.89644
0.872758
0.855633
0.845203
0.840058
0.838147
0.83773
0.838146
0.840111
0.845459
0.856386
0.874412
0.899202
0.927549
0.953236
0.968738
1
1
1
1
1
1
1
1
0.999998
0.999994
0.999986
0.999974
0.999972
1.00002
1.00021
1.00071
1.00168
1.00315
1.00462
1.00474
1.00116
0.991253
0.973572
0.94909
0.921062
0.893571
0.869928
0.851886
0.839736
0.83292
0.830742
0.832908
0.83975
0.852041
0.870488
0.89498
0.923814
0.953236
0.977804
0.9919
1
1
1
1
1
1
1
1
0.999998
0.999995
0.999986
0.999972
0.99996
0.999982
1.00012
1.00054
1.00145
1.00301
1.00503
1.00657
1.00564
0.999484
0.985763
0.964087
0.93665
0.907353
0.880147
0.857827
0.841746
0.832201
0.829047
0.832182
0.841737
0.857928
0.880599
0.908618
0.939369
0.968738
0.9919
1.00466
SCALARS C2 double 1
LOOKUP_TABLE default
2.55302
2.55227
2.5458
2.52553
2.48374
2.41778
2.33416
2.24798
2.17607
2.12986
2.11412
2.12989
2.17616
2.24818
2.33448
2.41813
2.48368
2.524
2.54082
2.54094
2.53218
2.52102
2.51144
2.505
2.50154
2.50009
2.49971
2.49973
2.49984
2.49993
2.49997
2.49999
2.5
2.5
2.5
2.5
2.5
2.5
2.5
2.5
2.55227
2.54386
2.52148
2.4767
2.40419
2.30909
2.20886
2.12352
2.06396
2.03068
2.02021
2.03072
2.06404
2.12368
2.20908
2.30915
2.40345
2.47384
2.51439
2.52999
2.52978
2.52232
2.51363
2.5068
2.50262
2.50061
2.4999
2.49978
2.49984
2.49992
2.49997
2.49999
2.5
2.5
2.5
2.5
2.5
2.5
2.5
2.5
2.5458
2.52148
2.46645
2.37497
2.25553
2.13702
2.04938
2.00095
1.98145
1.9765
1.976
1.97652
1.98151
2.00102
2.04936
2.13649
2.25346
2.36957
2.45556
2.50354
2.5219
2.52301
2.51694
2.50988
2.50462
2.50163
2.5003
2.49989
2.49985
2.49991
2.49996
2.49998
2.5
2.5
2.5
2.5
2.5
2.5
2.5
2.5
2.52553
2.4767
2.37497
2.23169
2.09184
2.00419
1.97724
1.98874
2.01347
2.03428
2.04213
2.03429
2.01349
1.9887
1.97694
2.00301
2.08834
2.22345
2.35986
2.45525
2.50385
2.52006
2.51962
2.51341
2.5072
2.50304
2.50091
2.50009
2.49988
2.4999
2.49994
2.49998
2.49999
2.5
2.5
2.5
2.5
2.5
2.5
2.5
2.48374
2.40419
2.25553
2.09184
1.99066
1.97447
2.01292
2.07015
2.12263
2.15785
2.17013
2.15786
2.12263
2.07005
2.01244
1.97288
1.98639
2.08214
2.23823
2.38277
2.47183
2.51065
2.51991
2.51641
2.50992
2.50471
2.5017
2.50037
2.49995
2.49989
2.49993
2.49997
2.49999
2.5
2.5
2.5
2.5
2.5
2.5
2.5
2.41778
2.30909
2.13702
2.00419
1.97447
2.02404
2.10612
2.18841
2.25406
2.29545
2.30952
2.29546
2.25405
2.18828
2.10555
2.02228
1.97012
1.99508
2.12162
2.29394
2.42587
2.49354
2.51668
2.51811
2.51235
2.50644
2.5026
2.50074
2.50006
2.4999
2.49992
2.49996
2.49998
2.5
2.5
2.5
2.5
2.5
2.5
2.5
2.33416
2.20886
2.04938
1.97724
2.01292
2.10612
2.2119
2.30568
2.37645
2.41991
2.43452
2.41991
2.37644
2.30554
2.2113
2.10431
2.00878
1.96982
2.03929
2.20618
2.37146
2.47004
2.50998
2.51819
2.51417
2.50802
2.50352
2.50114
2.50019
2.49993
2.49992
2.49995
2.49998
2.49999
2.5
2.5
2.5
2.5
2.5
2.5
2.24798
2.12352
2.00095
1.98874
2.07015
2.18841
2.30568
2.40402
2.47636
2.52026
2.53495
2.52026
2.47635
2.40388
2.30507
2.1866
2.06628
1.98306
1.99707
2.13598
2.31802
2.44396
2.50109
2.51692
2.51529
2.5093
2.50434
2.50153
2.50033
2.49996
2.49992
2.49995
2.49998
2.49999
2.5
2.5
2.5
2.5
2.5
2.5
2.17607
2.06396
1.98145
2.01347
2.12263
2.25406
2.37645
2.47636
2.54899
2.59286
2.60752
2.59287
2.54898
2.47622
2.37585
2.25228
2.11898
2.00914
1.98272
2.0898
2.27472
2.42043
2.49221
2.51502
2.51581
2.51022
2.50499
2.50185
2.50046
2.5
2.49993
2.49995
2.49998
2.5
2.5
2.50001
2.5
2.5
2.5
2.5
2.12986
2.03068
1.9765
2.03428
2.15785
2.29545
2.41991
2.52026
2.59286
2.63664
2.65127
2.63664
2.59285
2.52013
2.41931
2.29368
2.15433
2.03076
1.98101
2.06531
2.24728
2.4042
2.48569
2.51339
2.51598
2.51075
2.5054
2.50208
2.50055
2.50004
2.49995
2.49997
2.5
2.50001
2.50002
2.50002
2.50001
2.50001
2.50001
2.5
2.11412
2.02021
1.976
2.04213
2.17013
2.30952
2.43452
2.53495
2.60752
2.65127
2.66588
2.65127
2.60751
2.53482
2.43392
2.30776
2.16665
2.03888
1.98161
2.05784
2.23798
2.39844
2.48331
2.51276
2.51602
2.51095
2.50556
2.50217
2.5006
2.50007
2.49996
2.49998
2.50001
2.50003
2.50004
2.50003
2.50003
2.50002
2.50002
2.50002
2.12989
2.03072
1.97652
2.03429
2.15786
2.29546
2.41991
2.52026
2.59287
2.63664
2.65127
2.63665
2.59285
2.52013
2.41932
2.29369
2.15434
2.03078
1.98104
2.06534
2.24731
2.40423
2.48573
2.51343
2.51602
2.51079
2.50543
2.5021
2.50056
2.50005
2.49995
2.49997
2.50001
2.50003
2.50005
2.50005
2.50005
2.50005
2.50005
2.50004
2.17616
2.06404
1.98151
2.01349
2.12263
2.25405
2.37644
2.47635
2.54898
2.59285
2.60751
2.59285
2.54897
2.47621
2.37584
2.25227
2.11898
2.00916
1.98278
2.08989
2.27482
2.42051
2.49229
2.51509
2.51586
2.51024
2.50497
2.50179
2.50035
2.49987
2.49978
2.49982
2.49988
2.49994
2.49999
2.50003
2.50006
2.50008
2.50009
2.50009
2.24818
2.12368
2.00102
1.9887
2.07005
2.18828
2.30554
2.40388
2.47622
2.52013
2.53482
2.52013
2.47621
2.40374
2.30493
2.18647
2.06619
1.98303
1.99714
2.13614
2.3182
2.44412
2.5012
2.51696
2.51523
2.50913
2.50402
2.50106
2.49974
2.49929
2.49922
2.49928
2.49939
2.49953
2.49968
2.49983
2.49995
2.50005
2.50011
2.50014
2.33448
2.20908
2.04936
1.97694
2.01244
2.10555
2.2113
2.30507
2.37585
2.41931
2.43392
2.41932
2.37584
2.30493
2.2107
2.10374
2.00831
1.96952
2.03926
2.20637
2.37171
2.47023
2.51001
2.518
2.51368
2.50718
2.50231
2.49958
2.49836
2.49792
2.49785
2.49794
2.49815
2.49844
2.49879
2.49917
2.49952
2.49982
2.50002
2.50013
2.41813
2.30915
2.13649
2.00301
1.97288
2.02228
2.10431
2.1866
2.25228
2.29368
2.30776
2.29369
2.25227
2.18647
2.10374
2.02052
1.96854
1.9939
2.12106
2.29392
2.42602
2.49355
2.51631
2.51718
2.51073
2.50406
2.49949
2.49699
2.49584
2.4954
2.49532
2.49546
2.49577
2.49625
2.49689
2.49763
2.49838
2.49906
2.49957
2.49984
2.48368
2.40345
2.25346
2.08834
1.98639
1.97012
2.00878
2.06628
2.11898
2.15433
2.16665
2.15434
2.11898
2.06619
2.00831
1.96854
1.98213
2.07862
2.23606
2.38178
2.47131
2.50991
2.51843
2.51383
2.50607
2.4996
2.49552
2.49341
2.4925
2.49219
2.49215
2.49226
2.49254
2.49304
2.49382
2.49489
2.49612
2.49734
2.49831
2.49886
2.524
2.47384
2.36957
2.22345
2.08214
1.99508
1.96982
1.98306
2.00914
2.03076
2.03888
2.03078
2.00916
1.98303
1.96952
1.9939
2.07862
2.21511
2.35418
2.45183
2.50145
2.51744
2.51584
2.50795
2.50001
2.49448
2.49159
2.4906
2.49062
2.49094
2.49113
2.49103
2.49074
2.49052
2.49068
2.49142
2.49271
2.4943
2.49573
2.49658
2.54082
2.51439
2.45556
2.35986
2.23823
2.12162
2.03929
1.99707
1.98272
1.98101
1.98161
1.98104
1.98278
1.99714
2.03926
2.12106
2.23606
2.35418
2.44407
2.49546
2.51559
2.51672
2.5094
2.5007
2.49431
2.49137
2.49147
2.49344
2.49599
2.49802
2.4988
2.4981
2.49614
2.49356
2.49116
2.48967
2.48945
2.4903
2.49156
2.49245
2.54094
2.52999
2.50354
2.45525
2.38277
2.29394
2.20618
2.13598
2.0898
2.06531
2.05784
2.06534
2.08989
2.13614
2.20637
2.29392
2.38178
2.45183
2.49546
2.5147
2.51692
2.51028
2.50145
2.49496
2.49301
2.49582
2.50221
2.5102
2.51772
2.52301
2.52493
2.52309
2.51788
2.51041
2.50224
2.49501
2.48991
2.48728
2.48652
2.48654
2.53218
2.52978
2.5219
2.50385
2.47183
2.42587
2.37146
2.31802
2.27472
2.24728
2.23798
2.24731
2.27482
2.3182
2.37171
2.42602
2.47131
2.50145
2.51559
2.51692
2.51056
2.50195
2.49586
2.49557
2.50237
2.51543
2.53231
2.5498
2.56476
2.57476
2.57828
2.57483
2.56491
2.55001
2.53245
2.51496
2.50008
2.4894
2.48309
2.48037
2.52102
2.52232
2.52301
2.52006
2.51065
2.49354
2.47004
2.44396
2.42043
2.4042
2.39844
2.40423
2.42051
2.44412
2.47023
2.49355
2.50991
2.51744
2.51672
2.51028
2.50195
2.49626
2.49745
2.50824
2.52879
2.5566
2.58746
2.61674
2.64045
2.65575
2.66104
2.65581
2.64057
2.6169
2.58748
2.55595
2.52634
2.50217
2.48562
2.47739
2.51144
2.51363
2.51694
2.51962
2.51991
2.51668
2.50998
2.50109
2.49221
2.48569
2.48331
2.48573
2.49229
2.5012
2.51001
2.51631
2.51843
2.51584
2.5094
2.50145
2.49586
2.49745
2.51059
2.53714
2.57539
2.62056
2.66653
2.70757
2.73935
2.75925
2.76602
2.7593
2.73944
2.70762
2.66628
2.61934
2.57202
2.53012
2.49895
2.48239
2.505
2.5068
2.50988
2.51341
2.51641
2.51811
2.51819
2.51692
2.51502
2.51339
2.51276
2.51343
2.51509
2.51696
2.518
2.51718
2.51383
2.50795
2.5007
2.49496
2.49557
2.50824
2.53714
2.58244
2.63978
2.70194
2.76118
2.81125
2.84829
2.87068
2.87814
2.87073
2.84834
2.81116
2.76055
2.69992
2.63511
2.57409
2.52604
2.49941
2.50154
2.50262
2.50462
2.5072
2.50992
2.51235
2.51417
2.51529
2.51581
2.51598
2.51602
2.51602
2.51586
2.51523
2.51368
2.51073
2.50607
2.50001
2.49431
2.49301
2.50237
2.52879
2.57539
2.63978
2.71469
2.79056
2.85854
2.91251
2.94995
2.97129
2.97814
2.97133
2.94996
2.91226
2.85748
2.78764
2.70863
2.63039
2.56614
2.52951
2.50009
2.50061
2.50163
2.50304
2.50471
2.50644
2.50802
2.5093
2.51022
2.51075
2.51095
2.51079
2.51024
2.50913
2.50718
2.50406
2.4996
2.49448
2.49137
2.49582
2.51543
2.5566
2.62056
2.70194
2.79056
2.87486
2.94512
2.99594
3.02709
3.04247
3.04689
3.04249
3.02703
2.99549
2.94357
2.87102
2.7833
2.69217
2.61483
2.5699
2.49971
2.4999
2.5003
2.50091
2.5017
2.5026
2.50352
2.50434
2.50499
2.5054
2.50556
2.50543
2.50497
2.50402
2.50231
2.49949
2.49552
2.49159
2.49147
2.50221
2.53231
2.58746
2.66653
2.76118
2.85854
2.94512
3.01047
3.05017
3.06733
3.07095
3.07076
3.07095
3.06719
3.04947
3.00839
2.94042
2.85037
2.75179
2.66566
2.61494
2.49973
2.49978
2.49989
2.50009
2.50037
2.50074
2.50114
2.50153
2.50185
2.50208
2.50217
2.5021
2.50179
2.50106
2.49958
2.49699
2.49341
2.4906
2.49344
2.5102
2.5498
2.61674
2.70757
2.81125
2.91251
2.99594
3.05017
3.07191
3.06829
3.05496
3.04821
3.05494
3.06804
3.07092
3.04754
2.99046
2.90377
2.80283
2.71209
2.65802
2.49984
2.49984
2.49985
2.49988
2.49995
2.50006
2.50019
2.50033
2.50046
2.50055
2.5006
2.50056
2.50035
2.49974
2.49836
2.49584
2.4925
2.49062
2.49599
2.51772
2.56476
2.64045
2.73935
2.84829
2.94995
3.02709
3.06733
3.06829
3.04128
3.00905
2.99499
3.009
3.04092
3.06703
3.0642
3.02099
2.94091
2.84106
2.74876
2.69319
2.49993
2.49992
2.49991
2.4999
2.49989
2.4999
2.49993
2.49996
2.5
2.50004
2.50007
2.50005
2.49987
2.49929
2.49792
2.4954
2.49219
2.49094
2.49802
2.52301
2.57476
2.65575
2.75925
2.87068
2.97129
3.04247
3.07095
3.05496
3.00905
2.96166
2.94178
2.96159
3.0086
3.05349
3.06745
3.03595
2.96213
2.86441
2.77207
2.71604
2.49997
2.49997
2.49996
2.49994
2.49993
2.49992
2.49992
2.49992
2.49993
2.49995
2.49996
2.49995
2.49978
2.49922
2.49785
2.49532
2.49215
2.49113
2.4988
2.52493
2.57828
2.66104
2.76602
2.87814
2.97814
3.04689
3.07076
3.04821
2.99499
2.94178
2.91967
2.9417
2.99452
3.04666
3.06714
3.04023
2.96896
2.87224
2.78006
2.72396
2.49999
2.49999
2.49998
2.49998
2.49997
2.49996
2.49995
2.49995
2.49995
2.49997
2.49998
2.49997
2.49982
2.49928
2.49794
2.49546
2.49226
2.49103
2.4981
2.52309
2.57483
2.65581
2.7593
2.87073
2.97133
3.04249
3.07095
3.05494
3.009
2.96159
2.9417
2.96151
3.00855
3.05347
3.06746
3.03597
2.96217
2.86446
2.77212
2.7161
2.5
2.5
2.5
2.49999
2.49999
2.49998
2.49998
2.49998
2.49998
2.5
2.50001
2.50001
2.49988
2.49939
2.49815
2.49577
2.49254
2.49074
2.49614
2.51788
2.56491
2.64057
2.73944
2.84834
2.94996
3.02703
3.06719
3.06804
3.04092
3.0086
2.99452
3.00855
3.04056
3.06678
3.06405
3.02093
2.94092
2.84112
2.74885
2.69331
2.5
2.5
2.5
2.5
2.5
2.5
2.49999
2.49999
2.5
2.50001
2.50003
2.50003
2.49994
2.49953
2.49844
2.49625
2.49304
2.49052
2.49356
2.51041
2.55001
2.6169
2.70762
2.81116
2.91226
2.99549
3.04947
3.07092
3.06703
3.05349
3.04666
3.05347
3.06678
3.06994
3.04684
2.99001
2.90352
2.80276
2.71214
2.65814
2.5
2.5
2.5
2.5
2.5
2.5
2.5
2.5
2.5
2.50002
2.50004
2.50005
2.49999
2.49968
2.49879
2.49689
2.49382
2.49068
2.49116
2.50224
2.53245
2.58748
2.66628
2.76055
2.85748
2.94357
3.00839
3.04754
3.0642
3.06745
3.06714
3.06746
3.06405
3.04684
3.0063
2.93887
2.84932
2.75116
2.66537
2.61483
2.5
2.5
2.5
2.5
2.5
2.5
2.5
2.5
2.50001
2.50002
2.50003
2.50005
2.50003
2.49983
2.49917
2.49763
2.49489
2.49142
2.48967
2.49501
2.51496
2.55595
2.61934
2.69992
2.78764
2.87102
2.94042
2.99046
3.02099
3.03595
3.04023
3.03597
3.02093
2.99001
2.93887
2.86719
2.78037
2.69009
2.61345
2.56892
2.5
2.5
2.5
2.5
2.5
2.5
2.5
2.5
2.5
2.50001
2.50003
2.50005
2.50006
2.49995
2.49952
2.49838
2.49612
2.49271
2.48945
2.48991
2.50008
2.52634
2.57202
2.63511
2.70863
2.7833
2.85037
2.90377
2.94091
2.96213
2.96896
2.96217
2.94092
2.90352
2.84932
2.78037
2.70251
2.62551
2.56236
2.52638
2.5
2.5
2.5
2.5
2.5
2.5
2.5
2.5
2.5
2.50001
2.50002
2.50005
2.50008
2.50005
2.49982
2.49906
2.49734
2.4943
2.4903
2.48728
2.4894
2.50217
2.53012
2.57409
2.63039
2.69217
2.75179
2.80283
2.84106
2.86441
2.87224
2.86446
2.84112
2.80276
2.75116
2.69009
2.62551
2.56529
2.51821
2.49224
2.5
2.5
2.5
2.5
2.5
2.5
2.5
2.5
2.5
2.50001
2.50002
2.50005
2.50009
2.50011
2.50002
2.49957
2.49831
2.49573
2.49156
2.48652
2.48309
2.48562
2.49895
2.52604
2.56614
2.61483
2.66566
2.71209
2.74876
2.77207
2.78006
2.77212
2.74885
2.71214
2.66537
2.61345
2.56236
2.51821
2.48611
2.46934
2.5
2.5
2.5
2.5
2.5
2.5
2.5
2.5
2.5
2.5
2.50002
2.50004
2.50009
2.50014
2.50013
2.49984
2.49886
2.49658
2.49245
2.48654
2.48037
2.47739
2.48239
2.49941
2.52951
2.5699
2.61494
2.65802
2.69319
2.71604
2.72396
2.7161
2.69331
2.65814
2.61483
2.56892
2.52638
2.49224
2.46934
2.45815
