# vtk DataFile Version 3.0
Brusselator Concentration Output
ASCII
DATASET STRUCTURED_POINTS
DIMENSIONS 40 40 1
ORIGIN 0.0 0.0 0.0
SPACING 0.005 0.005 1.0
POINT_DATA 1600
SCALARS C1 double 1
LOOKUP_TABLE default
0.998696
0.992733
0.98139
0.966149
0.949395
0.933782
0.921338
0.912897
0.908113
0.905948
0.905368
0.905951
0.908118
0.912898
0.921312
0.93367
0.949075
0.965447
0.98018
0.991217
0.997877
1.00086
1.00156
1.00126
1.00074
1.00034
1.00013
1.00003
1
0.999995
0.999996
0.999998
0.999999
1
1
1
1
1
1
1
0.992733
0.985739
0.973305
0.958251
0.943915
0.933118
0.927309
0.926238
0.928206
0.930804
0.931946
0.930807
0.92821
0.926232
0.927264
0.932963
0.943532
0.957516
0.972267
0.984993
0.993919
0.998849
1.00079
1.00109
1.00078
1.00042
1.00017
1.00005
1.00001
0.999997
0.999997
0.999998
0.999999
1
1
1
1
1
1
1
0.98139
0.973305
0.960295
0.947315
0.939189
0.939061
0.94756
0.962591
0.979687
0.993202
0.998338
0.993204
0.979687
0.962571
0.947474
0.938824
0.938698
0.946565
0.959698
0.974205
0.986533
0.994797
0.99907
1.0006
1.00078
1.00053
1.00026
1.0001
1.00003
1
0.999998
0.999998
0.999999
1
1
1
1
1
1
1
0.966149
0.958251
0.947315
0.940568
0.944592
0.963351
0.997089
1.0414
1.08692
1.12137
1.13423
1.12138
1.08692
1.04135
0.996935
0.962994
0.94397
0.939893
0.947551
0.961747
0.976905
0.988913
0.996253
0.999626
1.00062
1.00061
1.00036
1.00016
1.00006
1.00001
1
0.999998
0.999999
0.999999
1
1
1
1
1
1
0.949395
0.943915
0.939189
0.944592
0.969115
1.01904
1.09553
1.19062
1.2848
1.35337
1.37824
1.35337
1.28478
1.19052
1.09527
1.01852
0.968366
0.944151
0.940727
0.950869
0.966767
0.981834
0.992407
0.998043
1.0002
1.00062
1.00045
1.00023
1.00009
1.00003
1
0.999999
0.999999
0.999999
1
1
1
1
1
1
0.933782
0.933118
0.939061
0.963351
1.01904
1.11748
1.261
1.42887
1.57707
1.67019
1.70054
1.67018
1.57703
1.4287
1.26059
1.11675
1.01819
0.96335
0.942358
0.94411
0.957915
0.97455
0.987917
0.995929
0.999489
1.00051
1.00051
1.00029
1.00013
1.00004
1.00001
1
0.999999
0.999999
1
1
1
1
1
1
0.921338
0.927309
0.94756
0.997089
1.09553
1.261
1.48536
1.70312
1.8413
1.89917
1.91286
1.89916
1.84123
1.70291
1.48482
1.26005
1.09464
0.997741
0.952959
0.942513
0.951584
0.968064
0.983375
0.993538
0.998556
1.00028
1.00053
1.00035
1.00016
1.00006
1.00001
1
0.999999
0.999999
1
1
1
1
1
1
0.912897
0.926238
0.962591
1.0414
1.19062
1.42887
1.70312
1.88477
1.9402
1.93738
1.93086
1.93735
1.94013
1.88456
1.70255
1.4278
1.18979
1.04287
0.970205
0.945373
0.948074
0.963048
0.979369
0.991218
0.997553
0.999985
1.0005
1.00038
1.00019
1.00007
1.00002
1
0.999999
0.999999
1
1
1
1
1
1
0.908113
0.928206
0.979687
1.08692
1.2848
1.57707
1.8413
1.9402
1.9232
1.88345
1.86631
1.88343
1.92313
1.94003
1.84083
1.57607
1.28414
1.08923
0.989297
0.950545
0.946801
0.959701
0.976323
0.98931
0.996666
0.999692
1.00045
1.0004
1.00021
1.00008
1.00002
1
1
1
1
1
1
1
1
1
0.905948
0.930804
0.993202
1.12137
1.35337
1.67019
1.89917
1.93738
1.88345
1.82778
1.80636
1.82775
1.88339
1.93723
1.89881
1.66933
1.35291
1.12433
1.00421
0.955239
0.946698
0.957869
0.974451
0.988067
0.99606
0.999479
1.00041
1.00041
1.00023
1.00009
1.00003
1
0.999999
0.999999
1
1
1
1
1
1
0.905368
0.931946
0.998338
1.13423
1.37824
1.70054
1.91286
1.93086
1.86631
1.80636
1.78384
1.80634
1.86625
1.93073
1.91254
1.69975
1.37787
1.13743
1.00986
0.95711
0.946794
0.957298
0.973824
0.987637
0.995844
0.999398
1.00039
1.00041
1.00022
1.00009
1.00002
0.999997
0.999992
0.999994
0.999996
0.999998
1
1
1
1
0.905951
0.930807
0.993204
1.12138
1.35337
1.67018
1.89916
1.93735
1.88343
1.82775
1.80634
1.82773
1.88336
1.93721
1.89879
1.66932
1.35291
1.12433
1.00422
0.955242
0.946701
0.957871
0.97445
0.988064
0.996052
0.999466
1.00039
1.00039
1.0002
1.00006
0.999994
0.999973
0.99997
0.999975
0.999981
0.999988
0.999993
0.999998
1
1
0.908118
0.92821
0.979687
1.08692
1.28478
1.57703
1.84123
1.94013
1.92313
1.88339
1.86625
1.88336
1.92307
1.93996
1.84076
1.57602
1.28412
1.08923
0.989297
0.950548
0.946804
0.9597
0.976316
0.989293
0.996636
0.999647
1.00039
1.00033
1.00013
0.999995
0.999934
0.999916
0.999917
0.999927
0.999941
0.999956
0.999971
0.999984
0.999993
0.999998
0.912898
0.926232
0.962571
1.04135
1.19052
1.4287
1.70291
1.88456
1.94003
1.93723
1.93073
1.93721
1.93996
1.88435
1.70234
1.42764
1.18969
1.04282
0.970184
0.945364
0.948067
0.963033
0.979338
0.991162
0.997468
0.99987
1.00036
1.00022
1.00002
0.999889
0.999834
0.99982
0.999824
0.999838
0.999859
0.999886
0.999915
0.999943
0.999965
0.999977
0.921312
0.927264
0.947474
0.996935
1.09527
1.26059
1.48482
1.70255
1.84083
1.89881
1.91254
1.89879
1.84076
1.70234
1.48427
1.25964
1.09438
0.997586
0.952868
0.942456
0.951537
0.968004
0.983281
0.993398
0.998368
1.00005
1.00027
1.00008
0.999899
0.9998
0.99976
0.999745
0.999738
0.999737
0.999747
0.999772
0.99981
0.999854
0.999893
0.999915
0.93367
0.932963
0.938824
0.962994
1.01852
1.11675
1.26005
1.4278
1.57607
1.66933
1.69975
1.66932
1.57602
1.42764
1.25964
1.11602
1.01766
0.962987
0.942107
0.943927
0.957758
0.974377
0.9877
0.995657
0.999179
1.0002
1.00024
1.00009
1.00001
0.999983
0.999974
0.999942
0.999879
0.999799
0.999727
0.999685
0.999683
0.999711
0.999752
0.99978
0.949075
0.943532
0.938698
0.94397
0.968366
1.01819
1.09464
1.18979
1.28414
1.35291
1.37787
1.35291
1.28412
1.18969
1.09438
1.01766
0.967611
0.943514
0.940203
0.950433
0.96638
0.981452
0.992013
0.997661
0.999908
1.00052
1.00063
1.00074
1.00091
1.00106
1.00112
1.00104
1.00082
1.00051
1.00018
0.999889
0.999688
0.999584
0.99955
0.999548
0.965447
0.957516
0.946565
0.939893
0.944151
0.96335
0.997741
1.04287
1.08923
1.12433
1.13743
1.12433
1.08923
1.04282
0.997586
0.962987
0.943514
0.939184
0.946745
0.960942
0.97615
0.988243
0.995737
0.999405
1.00091
1.00162
1.00225
1.00296
1.00365
1.00413
1.00431
1.00412
1.00359
1.0028
1.00188
1.00099
1.00025
0.99972
0.999411
0.999277
0.98018
0.972267
0.959698
0.947551
0.940727
0.942358
0.952959
0.970205
0.989297
1.00421
1.00986
1.00422
0.989297
0.970184
0.952868
0.942107
0.940203
0.946745
0.959031
0.973124
0.9854
0.993927
0.998802
1.00135
1.00298
1.00455
1.00628
1.00802
1.00948
1.01044
1.01077
1.01043
1.00945
1.00791
1.006
1.00399
1.00214
1.00067
0.999686
0.999206
0.991217
0.984993
0.974205
0.961747
0.950869
0.94411
0.942513
0.945373
0.950545
0.955239
0.95711
0.955242
0.950548
0.945364
0.942456
0.943927
0.950433
0.960942
0.973124
0.984343
0.992826
0.998306
1.00174
1.00442
1.00725
1.01045
1.01371
1.01658
1.01872
1.01999
1.02041
1.01999
1.0187
1.01651
1.0135
1.00997
1.0064
1.00329
1.00104
0.999879
0.997877
0.993919
0.986533
0.976905
0.966767
0.957915
0.951584
0.948074
0.946801
0.946698
0.946794
0.946701
0.946804
0.948067
0.951537
0.957758
0.96638
0.97615
0.9854
0.992826
0.998114
1.00197
1.00553
1.00968
1.01454
1.01953
1.02378
1.0267
1.02824
1.02883
1.02895
1.02883
1.02823
1.02664
1.02361
1.01911
1.01375
1.0085
1.00439
1.00216
1.00086
0.998849
0.994797
0.988913
0.981834
0.97455
0.968064
0.963048
0.959701
0.957869
0.957298
0.957871
0.9597
0.963033
0.968004
0.974377
0.981452
0.988243
0.993927
0.998306
1.00197
1.00595
1.01112
1.01752
1.02412
1.02928
1.03167
1.03113
1.0288
1.02642
1.02544
1.02641
1.02878
1.03107
1.03149
1.02888
1.02343
1.01662
1.01055
1.00703
1.00156
1.00079
0.99907
0.996253
0.992407
0.987917
0.983375
0.979369
0.976323
0.974451
0.973824
0.97445
0.976316
0.979338
0.983281
0.9877
0.992013
0.995737
0.998802
1.00174
1.00553
1.01112
1.0186
1.02659
1.03233
1.033
1.0276
1.01779
1.00703
0.998911
0.995914
0.998901
1.007
1.01769
1.02738
1.03261
1.03182
1.02633
1.01958
1.01513
1.00126
1.00109
1.0006
0.999626
0.998043
0.995929
0.993538
0.991218
0.98931
0.988067
0.987637
0.988064
0.989293
0.991162
0.993398
0.995657
0.997661
0.999405
1.00135
1.00442
1.00968
1.01752
1.02659
1.03323
1.03258
1.02158
1.00156
0.977627
0.955852
0.940986
0.935743
0.940969
0.955799
0.977499
1.00132
1.02125
1.03244
1.0341
1.03008
1.02613
1.00074
1.00078
1.00078
1.00062
1.0002
0.999489
0.998556
0.997553
0.996666
0.99606
0.995844
0.996052
0.996636
0.997468
0.998368
0.999179
0.999908
1.00091
1.00298
1.00725
1.01454
1.02412
1.03233
1.03258
1.01873
0.990009
0.952322
0.914369
0.883378
0.863581
0.85682
0.863558
0.883311
0.914225
0.952093
0.989846
1.0192
1.03504
1.03914
1.03831
1.00034
1.00042
1.00053
1.00061
1.00062
1.00051
1.00028
0.999985
0.999692
0.999479
0.999398
0.999466
0.999647
0.99987
1.00005
1.0002
1.00052
1.00162
1.00455
1.01045
1.01953
1.02928
1.033
1.02158
0.990009
0.942546
0.889997
0.842805
0.807233
0.785665
0.778487
0.785639
0.807161
0.84266
0.889819
0.942633
0.991272
1.02595
1.04346
1.04897
1.00013
1.00017
1.00026
1.00036
1.00045
1.00051
1.00053
1.0005
1.00045
1.00041
1.00039
1.00039
1.00039
1.00036
1.00027
1.00024
1.00063
1.00225
1.00628
1.01371
1.02378
1.03167
1.0276
1.00156
0.952322
0.889997
0.828552
0.777925
0.742134
0.721366
0.714609
0.721339
0.742062
0.777793
0.828445
0.890359
0.954401
1.0078
1.0414
1.05565
1.00003
1.00005
1.0001
1.00016
1.00023
1.00029
1.00035
1.00038
1.0004
1.00041
1.00041
1.00039
1.00033
1.00022
1.00008
1.00009
1.00074
1.00296
1.00802
1.01658
1.0267
1.03113
1.01779
0.977627
0.914369
0.842805
0.777925
0.727904
0.694355
0.675618
0.669646
0.675592
0.694286
0.727788
0.777888
0.843416
0.917156
0.98543
1.03415
1.05763
1
1.00001
1.00003
1.00006
1.00009
1.00013
1.00016
1.00019
1.00021
1.00023
1.00022
1.0002
1.00013
1.00002
0.999899
1.00001
1.00091
1.00365
1.00948
1.01872
1.02824
1.0288
1.00703
0.955852
0.883378
0.807233
0.742134
0.694355
0.663614
0.646989
0.641785
0.646963
0.663549
0.694254
0.742154
0.808033
0.886688
0.964768
1.02502
1.05623
0.999995
0.999997
1
1.00001
1.00003
1.00004
1.00006
1.00007
1.00008
1.00009
1.00009
1.00006
0.999995
0.999889
0.9998
0.999983
1.00106
1.00413
1.01044
1.01999
1.02883
1.02642
0.998911
0.940986
0.863581
0.785665
0.721366
0.675618
0.646989
0.631853
0.627179
0.631828
0.646926
0.675527
0.721421
0.78658
0.867205
0.950547
1.01774
1.05391
0.999996
0.999997
0.999998
1
1
1.00001
1.00001
1.00002
1.00002
1.00003
1.00002
0.999994
0.999934
0.999834
0.99976
0.999974
1.00112
1.00431
1.01077
1.02041
1.02895
1.02544
0.995914
0.935743
0.85682
0.778487
0.714609
0.669646
0.641785
0.627179
0.622691
0.627154
0.641723
0.669559
0.714676
0.779441
0.860547
0.945514
1.01499
1.05286
0.999998
0.999998
0.999998
0.999998
0.999999
1
1
1
1
1
0.999997
0.999973
0.999916
0.99982
0.999745
0.999942
1.00104
1.00412
1.01043
1.01999
1.02883
1.02641
0.998901
0.940969
0.863558
0.785639
0.721339
0.675592
0.646963
0.631828
0.627154
0.631804
0.646901
0.675501
0.721394
0.786554
0.867182
0.95053
1.01773
1.05391
0.999999
0.999999
0.999999
0.999999
0.999999
0.999999
0.999999
0.999999
1
0.999999
0.999992
0.99997
0.999917
0.999824
0.999738
0.999879
1.00082
1.00359
1.00945
1.0187
1.02823
1.02878
1.007
0.955799
0.883311
0.807161
0.742062
0.694286
0.663549
0.646926
0.641723
0.646901
0.663484
0.694185
0.742082
0.807961
0.886621
0.964713
1.02498
1.0562
1
1
1
0.999999
0.999999
0.999999
0.999999
0.999999
1
0.999999
0.999994
0.999975
0.999927
0.999838
0.999737
0.999799
1.00051
1.0028
1.00791
1.01651
1.02664
1.03107
1.01769
0.977499
0.914225
0.84266
0.777793
0.727788
0.694254
0.675527
0.669559
0.675501
0.694185
0.727673
0.777756
0.843271
0.917009
0.985295
1.03404
1.05753
1
1
1
1
1
1
1
1
1
1
0.999996
0.999981
0.999941
0.999859
0.999747
0.999727
1.00018
1.00188
1.006
1.0135
1.02361
1.03149
1.02738
1.00132
0.952093
0.889819
0.828445
0.777888
0.742154
0.721421
0.714676
0.721394
0.742082
0.777756
0.828337
0.890179
0.954164
1.00754
1.04115
1.05542
1
1
1
1
1
1
1
1
1
1
0.999998
0.999988
0.999956
0.999886
0.999772
0.999685
0.999889
1.00099
1.00399
1.00997
1.01911
1.02888
1.03261
1.02125
0.989846
0.942633
0.890359
0.843416
0.808033
0.78658
0.779441
0.786554
0.807961
0.843271
0.890179
0.942711
0.99109
1.02558
1.04301
1.04849
1
1
1
1
1
1
1
1
1
1
1
0.999993
0.999971
0.999915
0.99981
0.999683
0.999688
1.00025
1.00214
1.0064
1.01375
1.02343
1.03182
1.03244
1.0192
0.991272
0.954401
0.917156
0.886688
0.867205
0.860547
0.867182
0.886621
0.917009
0.954164
0.99109
1.01964
1.03485
1.03855
1.03756
1
1
1
1
1
1
1
1
1
1
1
0.999998
0.999984
0.999943
0.999854
0.999711
0.999584
0.99972
1.00067
1.00329
1.0085
1.01662
1.02633
1.0341
1.03504
1.02595
1.0078
0.98543
0.964768
0.950547
0.945514
0.95053
0.964713
0.985295
1.00754
1.02558
1.03485
1.03488
1.02978
1.02531
1
1
1
1
1
1
1
1
1
1
1
1
0.999993
0.999965
0.999893
0.999752
0.99955
0.999411
0.999686
1.00104
1.00439
1.01055
1.01958
1.03008
1.03914
1.04346
1.0414
1.03415
1.02502
1.01774
1.01499
1.01773
1.02498
1.03404
1.04115
1.04301
1.03855
1.02978
1.02065
1.01499
1
1
1
1
1
1
1
1
1
1
1
1
0.999998
0.999977
0.999915
0.99978
0.999548
0.999277
0.999206
0.999879
1.00216
1.00703
1.01513
1.02613
1.03831
1.04897
1.05565
1.05763
1.05623
1.05391
1.05286
1.05391
1.0562
1.05753
1.05542
1.04849
1.03756
1.02531
1.01499
1.00917
SCALARS C2 double 1
LOOKUP_TABLE default
2.48972
2.49534
2.50775
2.52798
2.55542
2.58741
2.61993
2.64893
2.67129
2.68521
2.68991
2.6852
2.67128
2.64891
2.61992
2.58746
2.5557
2.52883
2.5097
2.49891
2.49485
2.49483
2.49638
2.498
2.49911
2.4997
2.49994
2.50001
2.50002
2.50001
2.50001
2.5
2.5
2.5
2.5
2.5
2.5
2.5
2.5
2.5
2.49534
2.50439
2.52264
2.54937
2.5821
2.61672
2.64877
2.67472
2.69288
2.70324
2.70656
2.70324
2.69287
2.67471
2.64877
2.61684
2.58252
2.55046
2.52483
2.50783
2.49906
2.49622
2.49649
2.49773
2.49885
2.49954
2.49987
2.49999
2.50001
2.50001
2.50001
2.5
2.5
2.5
2.5
2.5
2.5
2.5
2.5
2.5
2.50775
2.52264
2.55046
2.58714
2.62673
2.66263
2.68947
2.70488
2.71033
2.71031
2.70962
2.71031
2.71032
2.70487
2.68953
2.66287
2.62741
2.58863
2.55296
2.52544
2.50808
2.49968
2.49716
2.49742
2.49842
2.49925
2.49972
2.49993
2.5
2.50001
2.50001
2.5
2.5
2.5
2.5
2.5
2.5
2.5
2.5
2.5
2.52798
2.54937
2.58714
2.63247
2.67465
2.70341
2.7117
2.69888
2.67274
2.64756
2.63724
2.64755
2.67273
2.6989
2.71184
2.70385
2.67569
2.63441
2.58971
2.5505
2.52227
2.50601
2.49905
2.49745
2.49799
2.49889
2.49952
2.49984
2.49997
2.5
2.50001
2.5
2.5
2.5
2.5
2.5
2.5
2.5
2.5
2.5
2.55542
2.5821
2.62673
2.67465
2.70872
2.7126
2.67553
2.59986
2.50694
2.43115
2.40217
2.43114
2.50694
2.59993
2.67581
2.71333
2.7102
2.67697
2.62884
2.58011
2.5409
2.51547
2.50264
2.49818
2.49775
2.49853
2.49929
2.49974
2.49993
2.49999
2.50001
2.50001
2.5
2.5
2.5
2.5
2.5
2.5
2.5
2.5
2.58741
2.61672
2.66263
2.70341
2.7126
2.66332
2.53867
2.35306
2.162
2.02752
1.98061
2.02752
2.16203
2.35322
2.53917
2.66443
2.71457
2.70592
2.6636
2.61018
2.5619
2.52739
2.50792
2.49977
2.49784
2.49826
2.49906
2.49961
2.49988
2.49998
2.5
2.50001
2.5
2.5
2.5
2.5
2.5
2.5
2.5
2.5
2.61993
2.64877
2.68947
2.7117
2.67553
2.53867
2.28692
1.98636
1.74842
1.61762
1.57818
1.61762
1.74847
1.98659
2.28766
2.54026
2.67797
2.71412
2.6886
2.6366
2.58253
2.54027
2.51429
2.50209
2.49828
2.49811
2.49886
2.49949
2.49983
2.49996
2.5
2.50001
2.5
2.5
2.5
2.5
2.5
2.5
2.5
2.5
2.64893
2.67472
2.70488
2.69888
2.59986
2.35306
1.98636
1.65975
1.47473
1.39747
1.37761
1.39748
1.47478
1.66
1.98723
2.35504
2.60266
2.7009
2.70169
2.65663
2.60025
2.55231
2.52076
2.50473
2.49897
2.49809
2.49871
2.49938
2.49978
2.49994
2.49999
2.5
2.5
2.5
2.5
2.5
2.5
2.5
2.5
2.5
2.67129
2.69288
2.71033
2.67274
2.50694
2.162
1.74842
1.47473
1.35998
1.32432
1.31729
1.32433
1.36003
1.47494
1.74926
2.16416
2.50993
2.67419
2.70481
2.66952
2.61341
2.56194
2.52627
2.50716
2.49971
2.49816
2.49862
2.4993
2.49973
2.49992
2.49999
2.5
2.5
2.5
2.5
2.5
2.5
2.5
2.5
2.5
2.68521
2.70324
2.71031
2.64756
2.43115
2.02752
1.61762
1.39747
1.32432
1.30939
1.30842
1.3094
1.32437
1.39765
1.61837
2.02967
2.43418
2.64848
2.70304
2.67623
2.62133
2.56809
2.52995
2.50886
2.50027
2.49824
2.49857
2.49925
2.4997
2.49991
2.49998
2.5
2.5
2.5
2.5
2.5
2.5
2.5
2.5
2.5
2.68991
2.70656
2.70962
2.63724
2.40217
1.98061
1.57818
1.37761
1.31729
1.30842
1.3092
1.30844
1.31734
1.37778
1.57889
1.98273
2.40519
2.63796
2.7017
2.67823
2.62395
2.57019
2.53123
2.50946
2.50047
2.49827
2.49855
2.49924
2.4997
2.49991
2.49999
2.5
2.5
2.5
2.5
2.5
2.5
2.5
2.5
2.5
2.6852
2.70324
2.71031
2.64755
2.43114
2.02752
1.61762
1.39748
1.32433
1.3094
1.30844
1.30941
1.32438
1.39766
1.61837
2.02966
2.43417
2.64847
2.70304
2.67622
2.62133
2.56809
2.52994
2.50886
2.50027
2.49824
2.49858
2.49927
2.49973
2.49994
2.50001
2.50003
2.50002
2.50002
2.50001
2.5
2.5
2.5
2.49999
2.49999
2.67128
2.69287
2.71032
2.67273
2.50694
2.16203
1.74847
1.47478
1.36003
1.32437
1.31734
1.32438
1.36008
1.475
1.74931
2.16418
2.50993
2.67418
2.7048
2.66951
2.6134
2.56193
2.52627
2.50717
2.49973
2.4982
2.49867
2.49938
2.49982
2.50003
2.50009
2.5001
2.50009
2.50008
2.50005
2.50003
2.50002
2.5
2.49999
2.49999
2.64891
2.67471
2.70487
2.6989
2.59993
2.35322
1.98659
1.66
1.47494
1.39765
1.37778
1.39766
1.475
1.66024
1.98747
2.35519
2.60273
2.70092
2.70169
2.65662
2.60023
2.55231
2.52077
2.50478
2.49906
2.49823
2.49889
2.49961
2.50004
2.50023
2.50029
2.50029
2.50027
2.50023
2.50018
2.50013
2.50008
2.50004
2.50001
2.5
2.61992
2.64877
2.68953
2.71184
2.67581
2.53917
2.28766
1.98723
1.74926
1.61837
1.57889
1.61837
1.74931
1.98747
2.28841
2.54075
2.67825
2.71425
2.68866
2.63662
2.58253
2.5403
2.51437
2.50225
2.49853
2.49847
2.49931
2.50002
2.50041
2.50058
2.50063
2.50062
2.50059
2.50053
2.50045
2.50036
2.50025
2.50016
2.50009
2.50005
2.58746
2.61684
2.66287
2.70385
2.71333
2.66443
2.54026
2.35504
2.16416
2.02967
1.98273
2.02966
2.16418
2.35519
2.54075
2.66555
2.71529
2.70636
2.66385
2.61032
2.56201
2.52754
2.50818
2.50018
2.49842
2.499
2.49993
2.50055
2.50084
2.50095
2.50097
2.50097
2.50096
2.50093
2.50086
2.50075
2.50059
2.50043
2.50029
2.50022
2.5557
2.58252
2.62741
2.67569
2.7102
2.71457
2.67797
2.60266
2.50993
2.43418
2.40519
2.43417
2.50993
2.60273
2.67825
2.71529
2.71168
2.67803
2.62956
2.5806
2.5413
2.51593
2.50327
2.49903
2.4988
2.49969
2.50043
2.50074
2.50076
2.50067
2.50063
2.50068
2.50083
2.50101
2.50113
2.50116
2.50107
2.50089
2.50071
2.50059
2.52883
2.55046
2.58863
2.63441
2.67697
2.70592
2.71412
2.7009
2.67419
2.64848
2.63796
2.64847
2.67418
2.70092
2.71425
2.70636
2.67803
2.63639
2.59128
2.55172
2.52333
2.50707
2.50026
2.49879
2.49928
2.49983
2.49983
2.49932
2.49863
2.49807
2.49785
2.49807
2.49866
2.49948
2.50031
2.50096
2.50133
2.50142
2.50136
2.50128
2.5097
2.52483
2.55296
2.58971
2.62884
2.6636
2.6886
2.70169
2.70481
2.70304
2.7017
2.70304
2.7048
2.70169
2.68866
2.66385
2.62956
2.59128
2.55561
2.52785
2.51024
2.50167
2.49896
2.49875
2.49871
2.49783
2.49603
2.49374
2.49157
2.49003
2.48948
2.49003
2.49157
2.49382
2.49632
2.49862
2.50039
2.50148
2.50202
2.50221
2.49891
2.50783
2.52544
2.5505
2.58011
2.61018
2.6366
2.65663
2.66952
2.67623
2.67823
2.67622
2.66951
2.65662
2.63662
2.61032
2.5806
2.55172
2.52785
2.51148
2.50261
2.49917
2.49824
2.49731
2.49499
2.49097
2.48579
2.48042
2.47584
2.4728
2.47174
2.47279
2.47583
2.48044
2.48596
2.49151
2.49629
2.49981
2.50196
2.50294
2.49485
2.49906
2.50808
2.52227
2.5409
2.5619
2.58253
2.60025
2.61341
2.62133
2.62395
2.62133
2.6134
2.60023
2.58253
2.56201
2.5413
2.52333
2.51024
2.50261
2.49927
2.49792
2.49613
2.49212
2.48525
2.47609
2.46605
2.45681
2.44966
2.44525
2.44378
2.44524
2.44964
2.45682
2.46618
2.47653
2.48636
2.49434
2.49973
2.50239
2.49483
2.49622
2.49968
2.50601
2.51547
2.52739
2.54027
2.55231
2.56194
2.56809
2.57019
2.56809
2.56193
2.55231
2.5403
2.52754
2.51593
2.50707
2.50167
2.49917
2.49792
2.49566
2.4903
2.48069
2.46722
2.45188
2.43745
2.42619
2.41892
2.41517
2.41405
2.41516
2.41891
2.42622
2.43762
2.45237
2.46833
2.48273
2.4933
2.49879
2.49638
2.49649
2.49716
2.49905
2.50264
2.50792
2.51429
2.52076
2.52627
2.52995
2.53123
2.52994
2.52627
2.52077
2.51437
2.50818
2.50327
2.50026
2.49896
2.49824
2.49613
2.4903
2.47894
2.46194
2.44168
2.42261
2.40893
2.40231
2.40126
2.40257
2.40339
2.40257
2.40127
2.4024
2.40921
2.42326
2.44292
2.46376
2.4807
2.49003
2.498
2.49773
2.49742
2.49745
2.49818
2.49977
2.50209
2.50473
2.50716
2.50886
2.50946
2.50886
2.50717
2.50478
2.50225
2.50018
2.49903
2.49879
2.49875
2.49731
2.49212
2.48069
2.46194
2.43801
2.41491
2.40001
2.39745
2.40564
2.41871
2.42989
2.43421
2.4299
2.41875
2.40579
2.39785
2.40083
2.4162
2.43925
2.46138
2.47462
2.49911
2.49885
2.49842
2.49799
2.49775
2.49784
2.49828
2.49897
2.49971
2.50027
2.50047
2.50027
2.49973
2.49906
2.49853
2.49842
2.4988
2.49928
2.49871
2.49499
2.48525
2.46722
2.44168
2.41491
2.39752
2.39824
2.41778
2.44885
2.48075
2.50398
2.51241
2.504
2.48083
2.44906
2.41829
2.39915
2.39861
2.41492
2.43742
2.45285
2.4997
2.49954
2.49925
2.49889
2.49853
2.49826
2.49811
2.49809
2.49816
2.49824
2.49827
2.49824
2.4982
2.49823
2.49847
2.499
2.49969
2.49983
2.49783
2.49097
2.47609
2.45188
2.42261
2.40001
2.39824
2.42382
2.47112
2.52685
2.57708
2.61128
2.62333
2.6113
2.57717
2.52711
2.47169
2.42471
2.39882
2.3981
2.41335
2.42742
2.49994
2.49987
2.49972
2.49952
2.49929
2.49906
2.49886
2.49871
2.49862
2.49857
2.49855
2.49858
2.49867
2.49889
2.49931
2.49993
2.50043
2.49983
2.49603
2.48579
2.46605
2.43745
2.40893
2.39745
2.41778
2.47112
2.54496
2.62178
2.68641
2.72873
2.74339
2.72876
2.68651
2.62206
2.54555
2.4719
2.41767
2.39322
2.39411
2.40261
2.50001
2.49999
2.49993
2.49984
2.49974
2.49961
2.49949
2.49938
2.4993
2.49925
2.49924
2.49927
2.49938
2.49961
2.50002
2.50055
2.50074
2.49932
2.49374
2.48042
2.45681
2.42619
2.40231
2.40564
2.44885
2.52685
2.62178
2.71388
2.7882
2.83569
2.85195
2.83572
2.7883
2.71417
2.62237
2.52749
2.44801
2.39913
2.38229
2.38233
2.50002
2.50001
2.5
2.49997
2.49993
2.49988
2.49983
2.49978
2.49973
2.4997
2.4997
2.49973
2.49982
2.50004
2.50041
2.50084
2.50076
2.49863
2.49157
2.47584
2.44966
2.41892
2.40126
2.41871
2.48075
2.57708
2.68641
2.7882
2.86823
2.9186
2.93572
2.91863
2.86833
2.78849
2.68699
2.5776
2.47931
2.41035
2.37714
2.36849
2.50001
2.50001
2.50001
2.5
2.49999
2.49998
2.49996
2.49994
2.49992
2.49991
2.49991
2.49994
2.50003
2.50023
2.50058
2.50095
2.50067
2.49807
2.49003
2.4728
2.44525
2.41517
2.40257
2.42989
2.50398
2.61128
2.72873
2.83569
2.9186
2.97034
2.98786
2.97037
2.9187
2.83598
2.7293
2.61171
2.50215
2.42034
2.37591
2.3609
2.50001
2.50001
2.50001
2.50001
2.50001
2.5
2.5
2.49999
2.49999
2.49998
2.49999
2.50001
2.50009
2.50029
2.50063
2.50097
2.50063
2.49785
2.48948
2.47174
2.44378
2.41405
2.40339
2.43421
2.51241
2.62333
2.74339
2.85195
2.93572
2.98786
3.00548
2.98788
2.93583
2.85224
2.74396
2.62374
2.51045
2.42425
2.37586
2.35854
2.5
2.5
2.5
2.5
2.50001
2.50001
2.50001
2.5
2.5
2.5
2.5
2.50003
2.5001
2.50029
2.50062
2.50097
2.50068
2.49807
2.49003
2.47279
2.44524
2.41516
2.40257
2.4299
2.504
2.6113
2.72876
2.83572
2.91863
2.97037
2.98788
2.97039
2.91873
2.83601
2.72933
2.61174
2.50217
2.42035
2.37591
2.36089
2.5
2.5
2.5
2.5
2.5
2.5
2.5
2.5
2.5
2.5
2.5
2.50002
2.50009
2.50027
2.50059
2.50096
2.50083
2.49866
2.49157
2.47583
2.44964
2.41891
2.40127
2.41875
2.48083
2.57717
2.68651
2.7883
2.86833
2.9187
2.93583
2.91873
2.86844
2.78859
2.68708
2.57769
2.47938
2.4104
2.37716
2.36849
2.5
2.5
2.5
2.5
2.5
2.5
2.5
2.5
2.5
2.5
2.5
2.50002
2.50008
2.50023
2.50053
2.50093
2.50101
2.49948
2.49382
2.48044
2.45682
2.42622
2.4024
2.40579
2.44906
2.52711
2.62206
2.71417
2.78849
2.83598
2.85224
2.83601
2.78859
2.71446
2.62265
2.52775
2.44822
2.39929
2.38239
2.3824
2.5
2.5
2.5
2.5
2.5
2.5
2.5
2.5
2.5
2.5
2.5
2.50001
2.50005
2.50018
2.50045
2.50086
2.50113
2.50031
2.49632
2.48596
2.46618
2.43762
2.40921
2.39785
2.41829
2.47169
2.54555
2.62237
2.68699
2.7293
2.74396
2.72933
2.68708
2.62265
2.54614
2.47247
2.41818
2.39364
2.39442
2.40284
2.5
2.5
2.5
2.5
2.5
2.5
2.5
2.5
2.5
2.5
2.5
2.5
2.50003
2.50013
2.50036
2.50075
2.50116
2.50096
2.49862
2.49151
2.47653
2.45237
2.42326
2.40083
2.39915
2.42471
2.4719
2.52749
2.5776
2.61171
2.62374
2.61174
2.57769
2.52775
2.47247
2.42561
2.39975
2.39896
2.41408
2.42805
2.5
2.5
2.5
2.5
2.5
2.5
2.5
2.5
2.5
2.5
2.5
2.5
2.50002
2.50008
2.50025
2.50059
2.50107
2.50133
2.50039
2.49629
2.48636
2.46833
2.44292
2.4162
2.39861
2.39882
2.41767
2.44801
2.47931
2.50215
2.51045
2.50217
2.47938
2.44822
2.41818
2.39975
2.39974
2.4163
2.4388
2.45418
2.5
2.5
2.5
2.5
2.5
2.5
2.5
2.5
2.5
2.5
2.5
2.5
2.5
2.50004
2.50016
2.50043
2.50089
2.50142
2.50148
2.49981
2.49434
2.48273
2.46376
2.43925
2.41492
2.3981
2.39322
2.39913
2.41035
2.42034
2.42425
2.42035
2.4104
2.39929
2.39364
2.39896
2.4163
2.44065
2.46343
2.47688
2.5
2.5
2.5
2.5
2.5
2.5
2.5
2.5
2.5
2.5
2.5
2.49999
2.49999
2.50001
2.50009
2.50029
2.50071
2.50136
2.50202
2.50196
2.49973
2.4933
2.4807
2.46138
2.43742
2.41335
2.39411
2.38229
2.37714
2.37591
2.37586
2.37591
2.37716
2.38239
2.39442
2.41408
2.4388
2.46343
2.48266
2.49301
2.5
2.5
2.5
2.5
2.5
2.5
2.5
2.5
2.5
2.5
2.5
2.49999
2.49999
2.5
2.50005
2.50022
2.50059
2.50128
2.50221
2.50294
2.50239
2.49879
2.49003
2.47462
2.45285
2.42742
2.40261
2.38233
2.36849
2.3609
2.35854
2.36089
2.36849
2.3824
2.40284
2.42805
2.45418
2.47688
2.49301
2.50122
