# vtk DataFile Version 3.0
Brusselator Concentration Output
ASCII
DATASET STRUCTURED_POINTS
DIMENSIONS 40 40 1
ORIGIN 0.0 0.0 0.0
SPACING 0.005 0.005 1.0
POINT_DATA 1600
SCALARS C1 double 1
LOOKUP_TABLE default
0.976645
0.972402
0.966416
0.962535
0.964384
0.974053
0.991332
1.01345
1.03551
1.05182
1.05783
1.05181
1.03549
1.01339
0.991186
0.973774
0.963992
0.962285
0.967067
0.975501
0.984542
0.99194
0.996771
0.999265
1.00021
1.00037
1.00027
1.00014
1.00006
1.00002
1
1
0.999999
0.999999
1
1
1
1
1
1
0.972402
0.970787
0.970267
0.975013
0.988912
1.01398
1.04907
1.08921
1.12648
1.15269
1.16209
1.15268
1.12645
1.08913
1.04889
1.01369
0.988624
0.975151
0.971833
0.975518
0.982509
0.989646
0.995062
0.998284
0.999764
1.00022
1.00025
1.00015
1.00007
1.00003
1.00001
1
0.999999
1
1
1
1
1
1
1
0.966416
0.970267
0.981143
1.00413
1.04409
1.10269
1.1747
1.2472
1.30563
1.34158
1.35344
1.34156
1.30558
1.24708
1.17448
1.10242
1.04406
1.0051
0.984503
0.977949
0.980105
0.986015
0.992067
0.996447
0.998881
0.999902
1.00017
1.00016
1.00009
1.00004
1.00001
1
1
1
1
1
1
1
1
1
0.962535
0.975013
1.00413
1.05696
1.13957
1.24756
1.35713
1.43753
1.47852
1.49242
1.49496
1.4924
1.47845
1.4374
1.35693
1.24743
1.14009
1.05932
1.0101
0.986449
0.979881
0.982591
0.988538
0.994016
0.997599
0.999381
1.00003
1.00015
1.00011
1.00006
1.00002
1.00001
1
1
1
1
1
1
1
1
0.964384
0.988912
1.04409
1.13957
1.27532
1.41558
1.49975
1.51135
1.48469
1.45598
1.44456
1.45596
1.48465
1.5113
1.49976
1.41591
1.27684
1.14396
1.05337
1.0043
0.984171
0.980923
0.985343
0.991374
0.996034
0.99867
0.99979
1.00011
1.00012
1.00007
1.00003
1.00001
1
1
1
1
1
1
1
1
0.974053
1.01398
1.10269
1.24756
1.41558
1.51383
1.50065
1.42922
1.35511
1.30475
1.28729
1.30474
1.35509
1.42926
1.50094
1.51485
1.41846
1.25447
1.11565
1.03291
0.994152
0.982
0.983201
0.988936
0.994368
0.997825
0.999467
1.00003
1.00012
1.00009
1.00004
1.00001
1
1
1
1
1
1
1
1
0.991332
1.04907
1.1747
1.35713
1.49975
1.50065
1.40422
1.29183
1.20245
1.14766
1.12939
1.14765
1.20245
1.29192
1.40469
1.5022
1.50379
1.3663
1.19103
1.07054
1.00928
0.985898
0.982437
0.987019
0.992807
0.996944
0.999093
0.999915
1.00011
1.00009
1.00005
1.00002
1.00001
1
1
1
1
1
1
1
1.01345
1.08921
1.2472
1.43753
1.51135
1.42922
1.29183
1.16737
1.07729
1.02441
1.0071
1.0244
1.07729
1.16749
1.29239
1.43102
1.51595
1.44785
1.2657
1.11181
1.02722
0.991721
0.982894
0.985755
0.991516
0.996137
0.99872
0.999788
1.00008
1.0001
1.00006
1.00002
1.00001
1
1
1
1
1
1
1
1.03551
1.12648
1.30563
1.47852
1.48469
1.35511
1.20245
1.07729
0.990614
0.94085
0.924716
0.940845
0.990626
1.07742
1.20305
1.35701
1.48944
1.48891
1.32477
1.14891
1.04428
0.997858
0.984018
0.985075
0.990584
0.995497
0.998404
0.999672
1.00005
1.0001
1.00006
1.00002
1.00001
1
0.999998
0.999999
0.999999
1
1
1
1.05182
1.15269
1.34158
1.49242
1.45598
1.30475
1.14766
1.02441
0.94085
0.893411
0.878107
0.893406
0.940865
1.02455
1.14827
1.30669
1.46073
1.5025
1.36047
1.17438
1.05652
1.0025
0.98509
0.984792
0.990033
0.995087
0.99819
0.999586
1.00003
1.00009
1.00005
1.00002
1
0.999994
0.999994
0.999995
0.999997
0.999998
0.999999
1
1.05783
1.16209
1.35344
1.49496
1.44456
1.28729
1.12939
1.0071
0.924716
0.878107
0.863095
0.878103
0.924731
1.00724
1.13001
1.28923
1.44929
1.50488
1.37211
1.18339
1.06096
1.00422
0.98552
0.984718
0.989846
0.994938
0.998105
0.999543
1
1.00007
1.00004
1
0.999985
0.99998
0.999981
0.999985
0.999989
0.999993
0.999996
0.999997
1.05181
1.15268
1.34156
1.4924
1.45596
1.30474
1.14765
1.0244
0.940845
0.893406
0.878103
0.893402
0.940859
1.02454
1.14826
1.30668
1.46071
1.50248
1.36045
1.17437
1.05651
1.00249
0.985077
0.984773
0.990008
0.995057
0.998156
0.999549
0.99999
1.00005
1.00002
0.99998
0.999962
0.999957
0.999959
0.999964
0.999971
0.999978
0.999984
0.999987
1.03549
1.12645
1.30558
1.47845
1.48465
1.35509
1.20245
1.07729
0.990626
0.940865
0.924731
0.940859
0.990638
1.07743
1.20304
1.357
1.4894
1.48885
1.32472
1.14888
1.04425
0.997829
0.983981
0.985029
0.990529
0.995437
0.998344
0.999616
1
1.00005
1.00001
0.999978
0.999956
0.999944
0.999938
0.999938
0.999943
0.99995
0.999958
0.999963
1.01339
1.08913
1.24708
1.4374
1.5113
1.42926
1.29192
1.16749
1.07742
1.02455
1.00724
1.02454
1.07743
1.16761
1.29248
1.43106
1.5159
1.44771
1.26556
1.11172
1.02714
0.991648
0.982818
0.985676
0.991442
0.996082
0.998696
0.999801
1.00013
1.00017
1.00014
1.0001
1.00006
1.00001
0.999975
0.999943
0.999923
0.999914
0.999913
0.999914
0.991186
1.04889
1.17448
1.35693
1.49976
1.50094
1.40469
1.29239
1.20305
1.14827
1.13001
1.14826
1.20304
1.29248
1.40516
1.50248
1.50379
1.36609
1.19079
1.07034
1.00912
0.985756
0.982319
0.986944
0.992804
0.997046
0.999322
1.00028
1.00059
1.00065
1.00063
1.00058
1.00048
1.00036
1.00023
1.0001
0.999989
0.999912
0.999867
0.999846
0.973774
1.01369
1.10242
1.24743
1.41591
1.51485
1.5022
1.43102
1.35701
1.30669
1.28923
1.30668
1.357
1.43106
1.50248
1.51587
1.41878
1.25432
1.11536
1.03261
0.993879
0.981793
0.983109
0.989026
0.994715
0.99849
1.00048
1.00137
1.00174
1.00188
1.0019
1.00181
1.00162
1.00134
1.00101
1.00066
1.00033
1.00007
0.999899
0.999811
0.963992
0.988624
1.04406
1.14009
1.27684
1.41846
1.50379
1.51595
1.48944
1.46073
1.44929
1.46071
1.4894
1.5159
1.50379
1.41878
1.27833
1.14445
1.05333
1.00403
0.983877
0.980777
0.985521
0.992048
0.997346
1.0007
1.00254
1.00349
1.00399
1.00423
1.00429
1.00417
1.00386
1.00338
1.00274
1.00202
1.0013
1.00067
1.00021
0.999969
0.962285
0.975151
1.0051
1.05932
1.14396
1.25447
1.3663
1.44785
1.48891
1.5025
1.50488
1.50248
1.48885
1.44771
1.36609
1.25432
1.14445
1.06165
1.0111
0.986714
0.979936
0.982911
0.989551
0.996066
1.00089
1.00393
1.00568
1.00665
1.00716
1.0074
1.00746
1.00735
1.00705
1.00649
1.00564
1.00453
1.00329
1.00209
1.00116
1.00065
0.967067
0.971833
0.984503
1.0101
1.05337
1.11565
1.19103
1.2657
1.32477
1.36047
1.37211
1.36045
1.32472
1.26556
1.19079
1.11536
1.05333
1.0111
0.988005
0.979866
0.981413
0.987678
0.994904
1.00099
1.00525
1.00781
1.00908
1.00945
1.00934
1.0091
1.00897
1.00906
1.00924
1.00928
1.00888
1.0079
1.00641
1.0047
1.00321
1.00235
0.975501
0.975518
0.977949
0.986449
1.0043
1.03291
1.07054
1.11181
1.14891
1.17438
1.18339
1.17437
1.14888
1.11172
1.07034
1.03261
1.00403
0.986714
0.979866
0.980941
0.986693
0.994101
1.001
1.00624
1.00937
1.01041
1.00967
1.00775
1.0055
1.00375
1.00308
1.00372
1.00542
1.00759
1.00941
1.01022
1.00976
1.00833
1.00667
1.00558
0.984542
0.982509
0.980105
0.979881
0.984171
0.994152
1.00928
1.02722
1.04428
1.05652
1.06096
1.05651
1.04425
1.02714
1.00912
0.993879
0.983877
0.979936
0.981413
0.986693
0.993815
1.00099
1.0068
1.01019
1.01043
1.00735
1.00162
0.994612
0.988041
0.983424
0.981763
0.983398
0.987969
0.99446
1.00137
1.0071
1.01056
1.01162
1.01116
1.01046
0.99194
0.989646
0.986015
0.982591
0.980923
0.982
0.985898
0.991721
0.997858
1.0025
1.00422
1.00249
0.997829
0.991648
0.985756
0.981793
0.980777
0.982911
0.987678
0.994101
1.00099
1.00698
1.01047
1.00976
1.00374
0.99268
0.978436
0.963744
0.951284
0.943047
0.940175
0.943023
0.951219
0.963618
0.978259
0.992583
1.00413
1.01153
1.01506
1.01619
0.996771
0.995062
0.992067
0.988538
0.985343
0.983201
0.982437
0.982894
0.984018
0.98509
0.98552
0.985077
0.983981
0.982818
0.982319
0.983109
0.985521
0.989551
0.994904
1.001
1.0068
1.01047
1.00938
1.00107
0.984808
0.962512
0.937996
0.915305
0.897487
0.88629
0.882483
0.886264
0.897428
0.915216
0.937943
0.962736
0.985874
1.00397
1.0154
1.02059
0.999265
0.998284
0.996447
0.994016
0.991374
0.988936
0.987019
0.985755
0.985075
0.984792
0.984718
0.984773
0.985029
0.985676
0.986944
0.989026
0.992048
0.996066
1.00099
1.00624
1.01019
1.00976
1.00107
0.981691
0.952773
0.918896
0.885723
0.857677
0.837126
0.824818
0.820736
0.824792
0.837076
0.857634
0.88583
0.919544
0.954738
0.986091
1.00885
1.02049
1.00021
0.999764
0.998881
0.997599
0.996034
0.994368
0.992807
0.991516
0.990584
0.990033
0.989846
0.990008
0.990529
0.991442
0.992804
0.994715
0.997346
1.00089
1.00525
1.00937
1.01043
1.00374
0.984808
0.952773
0.911922
0.869456
0.831788
0.802508
0.782503
0.771135
0.767472
0.77111
0.782463
0.802516
0.832066
0.87055
0.914802
0.958556
0.993713
1.01319
1.00037
1.00022
0.999902
0.999381
0.99867
0.997825
0.996944
0.996137
0.995497
0.995087
0.994938
0.995057
0.995437
0.996082
0.997046
0.99849
1.0007
1.00393
1.00781
1.01041
1.00735
0.99268
0.962512
0.918896
0.869456
0.822957
0.785292
0.758438
0.741546
0.73261
0.729853
0.732586
0.741517
0.758497
0.785733
0.824457
0.873108
0.925609
0.971315
0.998181
1.00027
1.00025
1.00017
1.00003
0.99979
0.999467
0.999093
0.99872
0.998404
0.99819
0.998105
0.998156
0.998344
0.998696
0.999322
1.00048
1.00254
1.00568
1.00908
1.00967
1.00162
0.978436
0.937996
0.885723
0.831788
0.785292
0.750834
0.728607
0.71619
0.710416
0.708795
0.710395
0.716173
0.728713
0.751417
0.787128
0.836002
0.892825
0.94548
0.977814
1.00014
1.00015
1.00016
1.00015
1.00011
1.00003
0.999915
0.999788
0.999672
0.999586
0.999543
0.999549
0.999616
0.999801
1.00028
1.00137
1.00349
1.00665
1.00945
1.00775
0.994612
0.963744
0.915305
0.857677
0.802508
0.758438
0.728607
0.711679
0.703994
0.701465
0.700998
0.701446
0.703988
0.711825
0.729307
0.76053
0.807085
0.864745
0.920756
0.956214
1.00006
1.00007
1.00009
1.00011
1.00012
1.00012
1.00011
1.00008
1.00005
1.00003
1
0.99999
1
1.00013
1.00059
1.00174
1.00399
1.00716
1.00934
1.0055
0.988041
0.951284
0.897487
0.837126
0.782503
0.741546
0.71619
0.703994
0.700425
0.700703
0.701234
0.700685
0.700428
0.704172
0.716978
0.743818
0.787286
0.843949
0.90087
0.937617
1.00002
1.00003
1.00004
1.00006
1.00007
1.00009
1.00009
1.0001
1.0001
1.00009
1.00007
1.00005
1.00005
1.00017
1.00065
1.00188
1.00423
1.0074
1.0091
1.00375
0.983424
0.943047
0.88629
0.824818
0.771135
0.73261
0.710416
0.701465
0.700703
0.702899
0.704115
0.702882
0.700711
0.701664
0.71126
0.734989
0.776019
0.831396
0.888171
0.925228
1
1.00001
1.00001
1.00002
1.00003
1.00004
1.00005
1.00006
1.00006
1.00005
1.00004
1.00002
1.00001
1.00014
1.00063
1.0019
1.00429
1.00746
1.00897
1.00308
0.981763
0.940175
0.882483
0.820736
0.767472
0.729853
0.708795
0.700998
0.701234
0.704115
0.705575
0.704098
0.701244
0.701204
0.709658
0.732268
0.772385
0.827215
0.883819
0.920894
1
1
1
1.00001
1.00001
1.00001
1.00002
1.00002
1.00002
1.00002
1
0.99998
0.999978
1.0001
1.00058
1.00181
1.00417
1.00735
1.00906
1.00372
0.983398
0.943023
0.886264
0.824792
0.77111
0.732586
0.710395
0.701446
0.700685
0.702882
0.704098
0.702865
0.700693
0.701645
0.711239
0.734965
0.775993
0.831368
0.888142
0.925198
0.999999
0.999999
1
1
1
1
1.00001
1.00001
1.00001
1
0.999985
0.999962
0.999956
1.00006
1.00048
1.00162
1.00386
1.00705
1.00924
1.00542
0.987969
0.951219
0.897428
0.837076
0.782463
0.741517
0.716173
0.703988
0.700428
0.700711
0.701244
0.700693
0.700431
0.704166
0.716961
0.743788
0.787243
0.843894
0.900803
0.937545
0.999999
1
1
1
1
1
1
1
1
0.999994
0.99998
0.999957
0.999944
1.00001
1.00036
1.00134
1.00338
1.00649
1.00928
1.00759
0.99446
0.963618
0.915216
0.857634
0.802516
0.758497
0.728713
0.711825
0.704172
0.701664
0.701204
0.701645
0.704166
0.711971
0.729412
0.760586
0.807087
0.864692
0.920657
0.956087
1
1
1
1
1
1
1
1
0.999998
0.999994
0.999981
0.999959
0.999938
0.999975
1.00023
1.00101
1.00274
1.00564
1.00888
1.00941
1.00137
0.978259
0.937943
0.88583
0.832066
0.785733
0.751417
0.729307
0.716978
0.71126
0.709658
0.711239
0.716961
0.729412
0.751997
0.787564
0.836272
0.892921
0.945425
0.97767
1
1
1
1
1
1
1
1
0.999999
0.999995
0.999985
0.999964
0.999938
0.999943
1.0001
1.00066
1.00202
1.00453
1.0079
1.01022
1.0071
0.992583
0.962736
0.919544
0.87055
0.824457
0.787128
0.76053
0.743818
0.734989
0.732268
0.734965
0.743788
0.760586
0.787564
0.82595
0.874194
0.926259
0.97158
0.998217
1
1
1
1
1
1
1
1
0.999999
0.999997
0.999989
0.999971
0.999943
0.999923
0.999989
1.00033
1.0013
1.00329
1.00641
1.00976
1.01056
1.00413
0.985874
0.954738
0.914802
0.873108
0.836002
0.807085
0.787286
0.776019
0.772385
0.775993
0.787243
0.807087
0.836272
0.874194
0.917687
0.960571
0.994936
1.01393
1
1
1
1
1
1
1
1
1
0.999998
0.999993
0.999978
0.99995
0.999914
0.999912
1.00007
1.00067
1.00209
1.0047
1.00833
1.01162
1.01153
1.00397
0.986091
0.958556
0.925609
0.892825
0.864745
0.843949
0.831396
0.827215
0.831368
0.843894
0.864692
0.892921
0.926259
0.960571
0.990658
1.01213
1.02297
1
1
1
1
1
1
1
1
1
0.999999
0.999996
0.999984
0.999958
0.999913
0.999867
0.999899
1.00021
1.00116
1.00321
1.00667
1.01116
1.01506
1.0154
1.00885
0.993713
0.971315
0.94548
0.920756
0.90087
0.888171
0.883819
0.888142
0.900803
0.920657
0.945425
0.97158
0.994936
1.01213
1.02216
1.02633
1
1
1
1
1
1
1
1
1
1
0.999997
0.999987
0.999963
0.999914
0.999846
0.999811
0.999969
1.00065
1.00235
1.00558
1.01046
1.01619
1.02059
1.02049
1.01319
0.998181
0.977814
0.956214
0.937617
0.925228
0.920894
0.925198
0.937545
0.956087
0.97767
0.998217
1.01393
1.02297
1.02633
1.02685
SCALARS C2 double 1
LOOKUP_TABLE default
2.52075
2.5325
2.55328
2.57834
2.60195
2.61892
2.62605
2.62343
2.61473
2.60583
2.60213
2.60582
2.61474
2.62348
2.62621
2.61932
2.60276
2.57961
2.55458
2.53225
2.51559
2.50533
2.50036
2.49875
2.49872
2.49917
2.49958
2.49983
2.49995
2.49999
2.5
2.5
2.5
2.5
2.5
2.5
2.5
2.5
2.5
2.5
2.5325
2.54364
2.56197
2.5808
2.59259
2.59112
2.57379
2.54366
2.50945
2.48261
2.47248
2.48261
2.50947
2.54374
2.57402
2.59161
2.59344
2.58184
2.5623
2.541
2.52277
2.51004
2.50288
2.49981
2.49904
2.49919
2.49953
2.49979
2.49993
2.49998
2.5
2.5
2.5
2.5
2.5
2.5
2.5
2.5
2.5
2.5
2.55328
2.56197
2.57303
2.57577
2.55834
2.51195
2.43665
2.34555
2.2609
2.20281
2.18242
2.20282
2.26095
2.34571
2.43701
2.51259
2.55917
2.57618
2.57128
2.55462
2.53513
2.5187
2.50777
2.50202
2.49977
2.4993
2.49946
2.49971
2.49988
2.49996
2.49999
2.5
2.5
2.5
2.5
2.5
2.5
2.5
2.5
2.5
2.57834
2.5808
2.57577
2.54584
2.47172
2.34427
2.18155
2.02678
1.91477
1.85264
1.83335
1.85266
1.91485
2.02699
2.18203
2.34501
2.4723
2.54494
2.57058
2.56659
2.54917
2.52979
2.51463
2.50541
2.50105
2.4996
2.49943
2.49963
2.49982
2.49993
2.49998
2.5
2.5
2.5
2.5
2.5
2.5
2.5
2.5
2.5
2.60195
2.59259
2.55834
2.47172
2.3084
2.08532
1.87767
1.745
1.68242
1.65967
1.65454
1.65969
1.68249
1.74518
1.87806
2.08586
2.3082
2.4685
2.54813
2.56977
2.56084
2.54126
2.52265
2.50981
2.50294
2.50018
2.4995
2.49956
2.49976
2.4999
2.49997
2.49999
2.5
2.5
2.5
2.5
2.5
2.5
2.5
2.5
2.61892
2.59112
2.51195
2.34427
2.08532
1.83104
1.68393
1.63664
1.63775
1.65036
1.65632
1.65038
1.63779
1.63674
1.68407
1.83099
2.08373
2.33766
2.4953
2.55869
2.56669
2.55105
2.53076
2.51478
2.50531
2.50103
2.49968
2.49954
2.49971
2.49987
2.49995
2.49999
2.5
2.5
2.5
2.5
2.5
2.5
2.5
2.5
2.62605
2.57379
2.43665
2.18155
1.87767
1.68393
1.63089
1.65123
1.69106
1.72285
1.73457
1.72287
1.69109
1.65127
1.6308
1.68328
1.87464
2.17127
2.41295
2.5319
2.5651
2.55771
2.5379
2.51971
2.50791
2.50208
2.49996
2.49955
2.49967
2.49984
2.49994
2.49998
2.5
2.5
2.5
2.5
2.5
2.5
2.5
2.5
2.62343
2.54366
2.34555
2.02678
1.745
1.63664
1.65123
1.71
1.76984
1.81112
1.82564
1.81114
1.76986
1.71
1.65102
1.63562
1.74107
2.01381
2.31569
2.49376
2.55703
2.56089
2.54338
2.52403
2.51038
2.50316
2.50031
2.4996
2.49964
2.49981
2.49992
2.49998
2.5
2.5
2.5
2.5
2.5
2.5
2.5
2.5
2.61473
2.50945
2.2609
1.91477
1.68242
1.63775
1.69106
1.76984
1.83964
1.88553
1.90139
1.88555
1.83966
1.76981
1.69077
1.63651
1.67808
1.90057
2.22694
2.45396
2.54594
2.56139
2.54699
2.5273
2.51239
2.5041
2.50063
2.49967
2.49964
2.49979
2.49992
2.49997
2.5
2.5
2.5
2.5
2.5
2.5
2.5
2.5
2.60583
2.48261
2.20281
1.85264
1.65967
1.65036
1.72285
1.81112
1.88553
1.93351
1.94997
1.93352
1.88555
1.81109
1.72253
1.64903
1.65517
1.83812
2.16689
2.42407
2.53656
2.56073
2.54895
2.52931
2.5137
2.50474
2.50087
2.49973
2.49964
2.49979
2.49992
2.49998
2.5
2.50001
2.50001
2.5
2.5
2.5
2.5
2.5
2.60213
2.47248
2.18242
1.83335
1.65454
1.65632
1.73457
1.82564
1.90139
1.94997
1.96659
1.94998
1.9014
1.82561
1.73425
1.65496
1.65001
1.81879
2.14596
2.41302
2.5329
2.56032
2.54955
2.52999
2.51416
2.50497
2.50097
2.49977
2.49966
2.49981
2.49994
2.5
2.50002
2.50003
2.50002
2.50002
2.50001
2.5
2.5
2.5
2.60582
2.48261
2.20282
1.85266
1.65969
1.65038
1.72287
1.81114
1.88555
1.93352
1.94998
1.93353
1.88556
1.81111
1.72255
1.64904
1.65519
1.83814
2.1669
2.42407
2.53656
2.56073
2.54896
2.52933
2.51373
2.50478
2.50092
2.4998
2.49971
2.49987
2.5
2.50006
2.50008
2.50007
2.50006
2.50005
2.50003
2.50002
2.50001
2.50001
2.61474
2.50947
2.26095
1.91485
1.68249
1.63779
1.69109
1.76986
1.83966
1.88555
1.9014
1.88556
1.83968
1.76984
1.69081
1.63656
1.67815
1.90065
2.227
2.45398
2.54596
2.56142
2.54703
2.52736
2.51248
2.50421
2.50077
2.49983
2.4998
2.49996
2.50009
2.50014
2.50016
2.50016
2.50014
2.50012
2.50009
2.50007
2.50005
2.50003
2.62348
2.54374
2.34571
2.02699
1.74518
1.63674
1.65127
1.71
1.76981
1.81109
1.82561
1.81111
1.76984
1.71
1.65106
1.63571
1.74125
2.01403
2.31586
2.49386
2.5571
2.56097
2.54349
2.52417
2.51057
2.50338
2.50054
2.49984
2.49987
2.50002
2.50013
2.50019
2.50022
2.50023
2.50023
2.50022
2.50019
2.50016
2.50013
2.50011
2.62621
2.57402
2.43701
2.18203
1.87806
1.68407
1.6308
1.65102
1.69077
1.72253
1.73425
1.72255
1.69081
1.65106
1.63073
1.68342
1.87504
2.17175
2.41333
2.53217
2.56531
2.55792
2.53814
2.51998
2.50819
2.50233
2.50015
2.49965
2.49967
2.49976
2.49984
2.49991
2.5
2.5001
2.50019
2.50026
2.50029
2.50029
2.50027
2.50026
2.61932
2.59161
2.51259
2.34501
2.08586
1.83099
1.68328
1.63562
1.63651
1.64903
1.65496
1.64904
1.63656
1.63571
1.68342
1.83094
2.08429
2.33843
2.49599
2.55925
2.56716
2.55148
2.53116
2.51511
2.50549
2.50095
2.49926
2.49874
2.49857
2.4985
2.4985
2.49862
2.49886
2.49921
2.49958
2.49993
2.5002
2.50037
2.50045
2.50049
2.60276
2.59344
2.55917
2.4723
2.3082
2.08373
1.87464
1.74107
1.67808
1.65517
1.65001
1.65519
1.67815
1.74125
1.87504
2.08429
2.30803
2.46913
2.54903
2.57069
2.56167
2.54195
2.5231
2.50983
2.5023
2.49868
2.497
2.49608
2.49544
2.49502
2.4949
2.49512
2.49568
2.49652
2.49752
2.49852
2.4994
2.50007
2.5005
2.5007
2.57961
2.58184
2.57618
2.54494
2.4685
2.33766
2.17127
2.01381
1.90057
1.83812
1.81879
1.83814
1.90065
2.01403
2.17175
2.33843
2.46913
2.5441
2.57104
2.56763
2.55027
2.53053
2.51458
2.50408
2.49797
2.49445
2.49211
2.49031
2.48892
2.48803
2.48774
2.4881
2.4891
2.49069
2.4927
2.49489
2.49698
2.49871
2.49992
2.50054
2.55458
2.5623
2.57128
2.57058
2.54813
2.4953
2.41295
2.31569
2.22694
2.16689
2.14596
2.1669
2.227
2.31586
2.41333
2.49599
2.54903
2.57104
2.56952
2.55472
2.53577
2.51865
2.50588
2.49727
2.49143
2.48708
2.48358
2.48083
2.47886
2.47771
2.47735
2.47776
2.47899
2.48114
2.48416
2.48783
2.49171
2.49522
2.49785
2.49925
2.53225
2.541
2.55462
2.56659
2.56977
2.55869
2.5319
2.49376
2.45396
2.42407
2.41302
2.42407
2.45398
2.49386
2.53217
2.55925
2.57069
2.56763
2.55472
2.53764
2.521
2.50724
2.4967
2.48856
2.48195
2.4766
2.47265
2.47023
2.46911
2.46879
2.46875
2.46881
2.46921
2.47048
2.47317
2.47746
2.48289
2.48849
2.49306
2.49562
2.51559
2.52277
2.53513
2.54917
2.56084
2.56669
2.5651
2.55703
2.54594
2.53656
2.5329
2.53656
2.54596
2.5571
2.56531
2.56716
2.56167
2.55027
2.53577
2.521
2.50775
2.49639
2.48651
2.47785
2.47086
2.4665
2.46536
2.46703
2.47014
2.47295
2.47407
2.47297
2.47022
2.46724
2.46582
2.46732
2.47191
2.47838
2.48457
2.48832
2.50533
2.51004
2.5187
2.52979
2.54126
2.55105
2.55771
2.56089
2.56139
2.56073
2.56032
2.56073
2.56142
2.56097
2.55792
2.55148
2.54195
2.53053
2.51865
2.50724
2.49639
2.48578
2.47559
2.46728
2.46319
2.46515
2.47314
2.48494
2.49707
2.50601
2.50929
2.50603
2.49715
2.48514
2.47355
2.46581
2.46386
2.46712
2.47262
2.47662
2.50036
2.50288
2.50777
2.51463
2.52265
2.53076
2.5379
2.54338
2.54699
2.54895
2.54955
2.54896
2.54703
2.54349
2.53814
2.53116
2.5231
2.51458
2.50588
2.4967
2.48651
2.47559
2.4661
2.46203
2.46737
2.48353
2.50815
2.53605
2.56122
2.57853
2.58468
2.57856
2.56131
2.53625
2.50849
2.4839
2.46722
2.46001
2.45974
2.46152
2.49875
2.49981
2.50202
2.50541
2.50981
2.51478
2.51971
2.52403
2.5273
2.52931
2.52999
2.52933
2.52736
2.52417
2.51998
2.51511
2.50983
2.50408
2.49727
2.48856
2.47785
2.46728
2.46203
2.46863
2.49128
2.52888
2.57538
2.62239
2.66193
2.68802
2.69712
2.68806
2.66204
2.62259
2.57564
2.52886
2.48995
2.4639
2.45078
2.44635
2.49872
2.49904
2.49977
2.50105
2.50294
2.50531
2.50791
2.51038
2.51239
2.5137
2.51416
2.51373
2.51248
2.51057
2.50819
2.50549
2.5023
2.49797
2.49143
2.48195
2.47086
2.46319
2.46737
2.49128
2.53711
2.59967
2.66896
2.73421
2.78656
2.8201
2.83162
2.82014
2.78668
2.73442
2.66913
2.59917
2.53438
2.48346
2.45087
2.4359
2.49917
2.49919
2.4993
2.4996
2.50018
2.50103
2.50208
2.50316
2.5041
2.50474
2.50497
2.50478
2.50421
2.50338
2.50233
2.50095
2.49868
2.49445
2.48708
2.4766
2.4665
2.46515
2.48353
2.52888
2.59967
2.68621
2.7754
2.85522
2.917
2.95563
2.96874
2.95568
2.91712
2.85542
2.77544
2.68522
2.59552
2.51806
2.4625
2.43407
2.49958
2.49953
2.49946
2.49943
2.4995
2.49968
2.49996
2.50031
2.50063
2.50087
2.50097
2.50092
2.50077
2.50054
2.50015
2.49926
2.497
2.49211
2.48358
2.47265
2.46536
2.47314
2.50815
2.57538
2.66896
2.7754
2.87958
2.96922
3.03653
3.07774
3.09156
3.07779
3.03666
2.96939
2.8795
2.77395
2.66353
2.56199
2.48394
2.44157
2.49983
2.49979
2.49971
2.49963
2.49956
2.49954
2.49955
2.4996
2.49967
2.49973
2.49977
2.4998
2.49983
2.49984
2.49965
2.49874
2.49608
2.49031
2.48083
2.47023
2.46703
2.48494
2.53605
2.62239
2.73421
2.85522
2.96922
3.06426
3.13377
3.17546
3.18929
3.17551
3.13389
3.06441
2.96902
2.85338
2.72772
2.60704
2.51005
2.4555
2.49995
2.49993
2.49988
2.49982
2.49976
2.49971
2.49967
2.49964
2.49964
2.49964
2.49966
2.49971
2.4998
2.49987
2.49967
2.49857
2.49544
2.48892
2.47886
2.46911
2.47014
2.49707
2.56122
2.66193
2.78656
2.917
3.03653
3.13377
3.2033
3.24424
3.25767
3.24429
3.20341
3.13388
3.03624
2.91485
2.77931
2.64525
2.53445
2.47082
2.49999
2.49998
2.49996
2.49993
2.4999
2.49987
2.49984
2.49981
2.49979
2.49979
2.49981
2.49987
2.49996
2.50002
2.49976
2.4985
2.49502
2.48803
2.47771
2.46879
2.47295
2.50601
2.57853
2.68802
2.8201
2.95563
3.07774
3.17546
3.24424
3.28418
3.29718
3.28423
3.24435
3.17555
3.07738
2.9533
2.81238
2.67059
2.55156
2.48243
2.5
2.5
2.49999
2.49998
2.49997
2.49995
2.49994
2.49992
2.49992
2.49992
2.49994
2.5
2.50009
2.50013
2.49984
2.4985
2.4949
2.48774
2.47735
2.46875
2.47407
2.50929
2.58468
2.69712
2.83162
2.96874
3.09156
3.18929
3.25767
3.29718
3.30999
3.29723
3.25778
3.18937
3.09118
2.96634
2.82374
2.67944
2.55768
2.48674
2.5
2.5
2.5
2.5
2.49999
2.49999
2.49998
2.49998
2.49997
2.49998
2.5
2.50006
2.50014
2.50019
2.49991
2.49862
2.49512
2.4881
2.47776
2.46881
2.47297
2.50603
2.57856
2.68806
2.82014
2.95568
3.07779
3.17551
3.24429
3.28423
3.29723
3.28428
3.2444
3.1756
3.07743
2.95335
2.81242
2.67064
2.55159
2.48246
2.5
2.5
2.5
2.5
2.5
2.5
2.5
2.5
2.5
2.5
2.50002
2.50008
2.50016
2.50022
2.5
2.49886
2.49568
2.4891
2.47899
2.46921
2.47022
2.49715
2.56131
2.66204
2.78668
2.91712
3.03666
3.13389
3.20341
3.24435
3.25778
3.2444
3.20352
3.134
3.03636
2.91498
2.77943
2.64537
2.53456
2.47091
2.5
2.5
2.5
2.5
2.5
2.5
2.5
2.5
2.5
2.50001
2.50003
2.50007
2.50016
2.50023
2.5001
2.49921
2.49652
2.49069
2.48114
2.47048
2.46724
2.48514
2.53625
2.62259
2.73442
2.85542
2.96939
3.06441
3.13388
3.17555
3.18937
3.1756
3.134
3.06455
2.9692
2.85358
2.72793
2.60726
2.51028
2.45573
2.5
2.5
2.5
2.5
2.5
2.5
2.5
2.5
2.5
2.50001
2.50002
2.50006
2.50014
2.50023
2.50019
2.49958
2.49752
2.4927
2.48416
2.47317
2.46582
2.47355
2.50849
2.57564
2.66913
2.77544
2.8795
2.96902
3.03624
3.07738
3.09118
3.07743
3.03636
2.9692
2.87942
2.774
2.6637
2.56228
2.48434
2.44202
2.5
2.5
2.5
2.5
2.5
2.5
2.5
2.5
2.5
2.5
2.50002
2.50005
2.50012
2.50022
2.50026
2.49993
2.49852
2.49489
2.48783
2.47746
2.46732
2.46581
2.4839
2.52886
2.59917
2.68522
2.77395
2.85338
2.91485
2.9533
2.96634
2.95335
2.91498
2.85358
2.774
2.68424
2.59505
2.51808
2.46292
2.43471
2.5
2.5
2.5
2.5
2.5
2.5
2.5
2.5
2.5
2.5
2.50001
2.50003
2.50009
2.50019
2.50029
2.5002
2.4994
2.49698
2.49171
2.48289
2.47191
2.46386
2.46722
2.48995
2.53438
2.59552
2.66353
2.72772
2.77931
2.81238
2.82374
2.81242
2.77943
2.72793
2.6637
2.59505
2.5317
2.48216
2.45069
2.43634
2.5
2.5
2.5
2.5
2.5
2.5
2.5
2.5
2.5
2.5
2.5
2.50002
2.50007
2.50016
2.50029
2.50037
2.50007
2.49871
2.49522
2.48849
2.47838
2.46712
2.46001
2.4639
2.48346
2.51806
2.56199
2.60704
2.64525
2.67059
2.67944
2.67064
2.64537
2.60726
2.56228
2.51808
2.48216
2.45913
2.44848
2.44544
2.5
2.5
2.5
2.5
2.5
2.5
2.5
2.5
2.5
2.5
2.5
2.50001
2.50005
2.50013
2.50027
2.50045
2.5005
2.49992
2.49785
2.49306
2.48457
2.47262
2.45974
2.45078
2.45087
2.4625
2.48394
2.51005
2.53445
2.55156
2.55768
2.55159
2.53456
2.51028
2.48434
2.46292
2.45069
2.44848
2.45259
2.45692
2.5
2.5
2.5
2.5
2.5
2.5
2.5
2.5
2.5
2.5
2.5
2.50001
2.50003
2.50011
2.50026
2.50049
2.5007
2.50054
2.49925
2.49562
2.48832
2.47662
2.46152
2.44635
2.4359
2.43407
2.44157
2.4555
2.47082
2.48243
2.48674
2.48246
2.47091
2.45573
2.44202
2.43471
2.43634
2.44544
2.45692
2.46467
