# vtk DataFile Version 3.0
Brusselator Concentration Output
ASCII
DATASET STRUCTURED_POINTS
DIMENSIONS 40 40 1
ORIGIN 0.0 0.0 0.0
SPACING 0.005 0.005 1.0
POINT_DATA 1600
SCALARS C1 double 1
LOOKUP_TABLE default
1.09216
1.10209
1.10927
1.09674
1.05703
0.997584
0.93305
0.875829
0.832853
0.806754
0.798062
0.806789
0.832963
0.876096
0.933579
0.998371
1.05763
1.09573
1.10346
1.08589
1.05782
1.03208
1.01419
1.00416
0.999769
0.99856
0.998719
0.999216
0.999625
0.99986
0.999964
0.999999
1.00001
1
1
1
1
1
1
1
1.10209
1.09908
1.08231
1.04304
0.984481
0.918422
0.856585
0.806217
0.770218
0.748954
0.741962
0.748987
0.770317
0.806447
0.857
0.918887
0.98426
1.04015
1.07289
1.07719
1.06102
1.0385
1.01962
1.0076
1.00153
0.999281
0.99892
0.999219
0.999583
0.999826
0.999946
0.999991
1
1
1
1
1
1
1
1
1.10927
1.08231
1.0279
0.954246
0.876395
0.80684
0.751542
0.711408
0.684926
0.670064
0.6653
0.670092
0.685008
0.711582
0.751792
0.806852
0.875007
0.948665
1.01325
1.05251
1.06067
1.0477
1.02897
1.01394
1.00493
1.00074
0.999366
0.99926
0.999518
0.999765
0.999912
0.999977
0.999998
1
1
1
1
1
1
1
1.09674
1.04304
0.954246
0.857403
0.772807
0.708377
0.663559
0.63449
0.617006
0.60785
0.605026
0.607873
0.61707
0.634611
0.663659
0.707987
0.770397
0.849462
0.935182
1.00797
1.04836
1.05371
1.0394
1.02211
1.00966
1.0029
1.00011
0.999391
0.999462
0.999694
0.999867
0.999956
0.999991
1
1
1
1
1
1
1
1.05703
0.984481
0.876395
0.772807
0.693375
0.639938
0.606979
0.588063
0.578043
0.573389
0.572064
0.573409
0.578094
0.588143
0.606965
0.639261
0.690275
0.763376
0.855081
0.949543
1.02089
1.05126
1.04757
1.03064
1.0152
1.00567
1.00118
0.999655
0.999446
0.999626
0.999818
0.999932
0.999982
0.999998
1
1
1
1
1
1
0.997584
0.918422
0.80684
0.708377
0.639938
0.598721
0.576496
0.565924
0.561752
0.56055
0.560367
0.560567
0.561793
0.565972
0.576401
0.597851
0.636442
0.6983
0.785427
0.888465
0.982454
1.03881
1.05096
1.038
1.02087
1.00878
1.0025
1.00006
0.999486
0.999575
0.999772
0.999907
0.999972
0.999995
1
1
1
1
1
1
0.93305
0.856585
0.751542
0.663559
0.606979
0.576496
0.562902
0.558804
0.559139
0.560612
0.561318
0.560628
0.559173
0.558831
0.562746
0.575496
0.603276
0.653409
0.731442
0.834077
0.940981
1.01911
1.04904
1.04314
1.026
1.01192
1.00395
1.00056
0.999581
0.999548
0.999733
0.999884
0.999961
0.999992
1
1
1
0.999999
0.999999
0.999999
0.875829
0.806217
0.711408
0.63449
0.588063
0.565924
0.558804
0.559565
0.56334
0.566895
0.568302
0.56691
0.56337
0.559575
0.558604
0.564832
0.584262
0.624551
0.693173
0.791249
0.903662
0.997234
1.04336
1.04586
1.03008
1.01472
1.00535
1.00109
0.999712
0.999546
0.999708
0.999868
0.999956
0.999991
1
1
1
0.999999
0.999998
0.999998
0.832853
0.770218
0.684926
0.617006
0.578043
0.561752
0.559139
0.56334
0.569616
0.574722
0.576658
0.574736
0.569643
0.563339
0.558906
0.560597
0.574196
0.607346
0.668427
0.761316
0.875066
0.978126
1.03657
1.04674
1.03292
1.0169
1.00651
1.00156
0.999854
0.999568
0.999705
0.999868
0.999963
1
1.00001
1.00001
1.00001
1
0.999999
0.999997
0.806754
0.748954
0.670064
0.60785
0.573389
0.56055
0.560612
0.566895
0.574722
0.580807
0.583081
0.580822
0.574747
0.566888
0.56036
0.559357
0.569522
0.598403
0.654747
0.743875
0.857396
0.965354
1.0313
1.04673
1.03455
1.01829
1.0073
1.00191
0.999985
0.999618
0.999736
0.999899
0.999996
1.00003
1.00004
1.00003
1.00002
1.00001
1.00001
1
0.798062
0.741962
0.6653
0.605026
0.572064
0.560367
0.561318
0.568302
0.576658
0.583081
0.585472
0.583095
0.576683
0.568292
0.561059
0.559162
0.568192
0.595658
0.650398
0.738179
0.85146
0.960906
1.02935
1.04665
1.03512
1.01882
1.00763
1.0021
1.00009
0.999699
0.99981
0.999973
1.00007
1.0001
1.0001
1.00009
1.00007
1.00005
1.00003
1.00002
0.806789
0.748987
0.670092
0.607873
0.573409
0.560567
0.560628
0.56691
0.574736
0.580822
0.583095
0.580836
0.574762
0.566902
0.560375
0.559375
0.569542
0.598427
0.654776
0.743913
0.857446
0.965418
1.03138
1.04684
1.03469
1.01845
1.00747
1.00208
1.00016
0.999786
0.999903
1.00007
1.00017
1.0002
1.0002
1.00018
1.00016
1.00013
1.0001
1.00009
0.832963
0.770317
0.685008
0.61707
0.578094
0.561793
0.559173
0.56337
0.569643
0.574747
0.576683
0.574762
0.56967
0.563369
0.55894
0.560637
0.574247
0.607411
0.668512
0.761428
0.875209
0.978302
1.03678
1.04698
1.03319
1.01718
1.00678
1.0018
1.00005
0.99974
0.999867
1.00004
1.00016
1.00023
1.00027
1.00028
1.00028
1.00026
1.00024
1.00022
0.876096
0.806447
0.711582
0.634611
0.588143
0.565972
0.558831
0.559575
0.563339
0.566888
0.568292
0.566902
0.563369
0.559586
0.55863
0.564881
0.584342
0.624675
0.693357
0.791505
0.903986
0.997601
1.04374
1.04622
1.03039
1.01491
1.0054
1.00097
0.999438
0.999163
0.999287
0.999484
0.999679
0.999869
1.00005
1.00021
1.00032
1.0004
1.00043
1.00045
0.933579
0.857
0.751792
0.663659
0.606965
0.576401
0.562746
0.558604
0.558906
0.56036
0.561059
0.560375
0.55894
0.55863
0.562591
0.575403
0.60327
0.653524
0.731716
0.834526
0.941564
1.01972
1.04954
1.0434
1.02591
1.01137
1.0029
0.998998
0.997591
0.997271
0.997354
0.997604
0.997969
0.998433
0.998958
0.999487
0.99996
1.00033
1.00058
1.0007
0.998371
0.918887
0.806852
0.707987
0.639261
0.597851
0.575496
0.564832
0.560597
0.559357
0.559162
0.559375
0.560637
0.564881
0.575403
0.596991
0.635787
0.697946
0.785473
0.888935
0.983201
1.0395
1.0512
1.03745
1.01929
1.00602
0.998527
0.994964
0.993499
0.993014
0.993011
0.993343
0.993984
0.994911
0.996055
0.997303
0.998516
0.999553
1.0003
1.0007
1.05763
0.98426
0.875007
0.770397
0.690275
0.636442
0.603276
0.584262
0.574196
0.569522
0.568192
0.569542
0.574247
0.584342
0.60327
0.635787
0.687221
0.761021
0.853695
0.949176
1.02115
1.05133
1.04652
1.02777
1.01011
0.998236
0.991527
0.988117
0.986496
0.985812
0.985714
0.986118
0.987037
0.988482
0.990406
0.992668
0.995033
0.997202
0.998862
0.999763
1.09573
1.04015
0.948665
0.849462
0.763376
0.6983
0.653409
0.624551
0.607346
0.598403
0.595658
0.598427
0.607411
0.624675
0.653524
0.697946
0.761021
0.841537
0.929428
1.00453
1.04637
1.05144
1.03506
1.01452
0.99833
0.987963
0.982099
0.97906
0.977597
0.976986
0.976895
0.977252
0.97814
0.979707
0.982062
0.985162
0.988739
0.992288
0.995174
0.996797
1.10346
1.07289
1.01325
0.935182
0.855081
0.785427
0.731442
0.693173
0.668427
0.654747
0.650398
0.654776
0.668512
0.693357
0.731716
0.785473
0.853695
0.929428
0.997982
1.04181
1.05298
1.03999
1.01838
0.998839
0.985046
0.976818
0.972711
0.971198
0.971032
0.971323
0.971543
0.971544
0.971538
0.97199
0.973414
0.976116
0.979978
0.984361
0.988237
0.990523
1.08589
1.07719
1.05251
1.00797
0.949543
0.888465
0.834077
0.791249
0.761316
0.743875
0.738179
0.743913
0.761428
0.791505
0.834526
0.888935
0.949176
1.00453
1.04181
1.05314
1.04233
1.02098
0.999529
0.983204
0.973258
0.969021
0.969067
0.971707
0.975219
0.978074
0.979204
0.978256
0.975677
0.972542
0.970166
0.969602
0.971204
0.974418
0.977932
0.980207
1.05782
1.06102
1.06067
1.04836
1.02089
0.982454
0.940981
0.903662
0.875066
0.857396
0.85146
0.857446
0.875209
0.903986
0.941564
0.983201
1.02115
1.04637
1.05298
1.04233
1.02189
1.00002
0.982346
0.971507
0.968142
0.971618
0.980343
0.991909
1.00336
1.01175
1.01486
1.01191
1.00379
0.992739
0.981555
0.972662
0.967352
0.965494
0.965795
0.966541
1.03208
1.0385
1.0477
1.05371
1.05126
1.03881
1.01911
0.997234
0.978126
0.965354
0.960906
0.965418
0.978302
0.997601
1.01972
1.0395
1.05133
1.05144
1.03999
1.02098
1.00002
0.982123
0.970944
0.96879
0.976684
0.994236
1.01935
1.04805
1.07481
1.09383
1.10076
1.09401
1.07526
1.04888
1.02046
0.994983
0.975416
0.962459
0.955172
0.952054
1.01419
1.01962
1.02897
1.0394
1.04757
1.05096
1.04904
1.04336
1.03657
1.0313
1.02935
1.03138
1.03678
1.04374
1.04954
1.0512
1.04652
1.03506
1.01838
0.999529
0.982346
0.970944
0.969264
0.98062
1.00716
1.04902
1.10304
1.16174
1.21438
1.25055
1.26341
1.25079
1.21492
1.16257
1.10382
1.04871
1.00375
0.971173
0.950539
0.940632
1.00416
1.0076
1.01394
1.02211
1.03064
1.038
1.04314
1.04586
1.04674
1.04673
1.04665
1.04684
1.04698
1.04622
1.0434
1.03745
1.02777
1.01452
0.998839
0.983204
0.971507
0.96879
0.98062
1.01244
1.06854
1.14961
1.24829
1.34733
1.42689
1.47561
1.49169
1.47588
1.42744
1.34798
1.24831
1.14729
1.06131
0.997534
0.956408
0.936386
0.999769
1.00153
1.00493
1.00966
1.0152
1.02087
1.026
1.03008
1.03292
1.03455
1.03512
1.03469
1.03319
1.03039
1.02591
1.01929
1.01011
0.99833
0.985046
0.973258
0.968142
0.976684
1.00716
1.06854
1.16795
1.30204
1.44522
1.55866
1.62373
1.65084
1.65749
1.65098
1.62391
1.55853
1.44367
1.29658
1.15526
1.04638
0.97627
0.942475
0.99856
0.999281
1.00074
1.0029
1.00567
1.00878
1.01192
1.01472
1.0169
1.01829
1.01882
1.01845
1.01718
1.01491
1.01137
1.00602
0.998236
0.987963
0.976818
0.969021
0.971618
0.994236
1.04902
1.14961
1.30204
1.47954
1.61624
1.67307
1.67372
1.65798
1.65026
1.65791
1.67334
1.67173
1.61252
1.47034
1.28304
1.11934
1.01158
0.960231
0.998719
0.99892
0.999366
1.00011
1.00118
1.0025
1.00395
1.00535
1.00651
1.0073
1.00763
1.00747
1.00678
1.0054
1.0029
0.998527
0.991527
0.982099
0.972711
0.969067
0.980343
1.01935
1.10304
1.24829
1.44522
1.61624
1.6793
1.65345
1.59973
1.55695
1.54128
1.55676
1.599
1.65128
1.67402
1.60452
1.4214
1.2109
1.0605
0.988482
0.999216
0.999219
0.99926
0.999391
0.999655
1.00006
1.00056
1.00109
1.00156
1.00191
1.0021
1.00208
1.0018
1.00097
0.998998
0.994964
0.988117
0.97906
0.971198
0.971707
0.991909
1.04805
1.16174
1.34733
1.55866
1.67307
1.65345
1.573
1.49287
1.43925
1.42071
1.43901
1.49199
1.57048
1.64756
1.66087
1.53373
1.30607
1.11661
1.02307
0.999625
0.999583
0.999518
0.999462
0.999446
0.999486
0.999581
0.999712
0.999854
0.999985
1.00009
1.00016
1.00005
0.999438
0.997591
0.993499
0.986496
0.977597
0.971032
0.975219
1.00336
1.07481
1.21438
1.42689
1.62373
1.67372
1.59973
1.49287
1.40255
1.34564
1.3264
1.34539
1.40163
1.49025
1.59375
1.66205
1.60062
1.38568
1.16932
1.05702
0.99986
0.999826
0.999765
0.999694
0.999626
0.999575
0.999548
0.999546
0.999568
0.999618
0.999699
0.999786
0.99974
0.999163
0.997271
0.993014
0.985812
0.976986
0.971323
0.978074
1.01175
1.09383
1.25055
1.47561
1.65084
1.65798
1.55695
1.43925
1.34564
1.28808
1.2688
1.28782
1.3447
1.43662
1.55101
1.64689
1.62996
1.43632
1.20687
1.08203
0.999964
0.999946
0.999912
0.999867
0.999818
0.999772
0.999733
0.999708
0.999705
0.999736
0.99981
0.999903
0.999867
0.999287
0.997354
0.993011
0.985714
0.976895
0.971543
0.979204
1.01486
1.10076
1.26341
1.49169
1.65749
1.65026
1.54128
1.42071
1.3264
1.2688
1.24955
1.26854
1.32546
1.41809
1.53538
1.6394
1.63752
1.45345
1.22051
1.09131
0.999999
0.999991
0.999977
0.999956
0.999932
0.999907
0.999884
0.999868
0.999868
0.999899
0.999973
1.00007
1.00004
0.999484
0.997604
0.993343
0.986118
0.977252
0.971544
0.978256
1.01191
1.09401
1.25079
1.47588
1.65098
1.65791
1.55676
1.43901
1.34539
1.28782
1.26854
1.28756
1.34445
1.43638
1.55083
1.64684
1.63012
1.43663
1.20714
1.08225
1.00001
1
0.999998
0.999991
0.999982
0.999972
0.999961
0.999956
0.999963
0.999996
1.00007
1.00017
1.00016
0.999679
0.997969
0.993984
0.987037
0.97814
0.971538
0.975677
1.00379
1.07526
1.21492
1.42744
1.62391
1.67334
1.599
1.49199
1.40163
1.3447
1.32546
1.34445
1.4007
1.48938
1.59302
1.66169
1.60086
1.3863
1.16992
1.05753
1
1
1
1
0.999998
0.999995
0.999992
0.999991
1
1.00003
1.0001
1.0002
1.00023
0.999869
0.998433
0.994911
0.988482
0.979707
0.97199
0.972542
0.992739
1.04888
1.16257
1.34798
1.55853
1.67173
1.65128
1.57048
1.49025
1.43662
1.41809
1.43638
1.48938
1.56798
1.6454
1.65957
1.5337
1.30684
1.11752
1.02395
1
1
1
1
1
1
1
1
1.00001
1.00004
1.0001
1.0002
1.00027
1.00005
0.998958
0.996055
0.990406
0.982062
0.973414
0.970166
0.981555
1.02046
1.10382
1.24831
1.44367
1.61252
1.67402
1.64756
1.59375
1.55101
1.53538
1.55083
1.59302
1.6454
1.66876
1.60087
1.41997
1.21105
1.06133
0.989528
1
1
1
1
1
1
1
1
1.00001
1.00003
1.00009
1.00018
1.00028
1.00021
0.999487
0.997303
0.992668
0.985162
0.976116
0.969602
0.972662
0.994983
1.04871
1.14729
1.29658
1.47034
1.60452
1.66087
1.66205
1.64689
1.6394
1.64684
1.66169
1.65957
1.60087
1.46124
1.27771
1.11712
1.01118
0.960602
1
1
1
1
1
1
1
1
1.00001
1.00002
1.00007
1.00016
1.00028
1.00032
0.99996
0.998516
0.995033
0.988739
0.979978
0.971204
0.967352
0.975416
1.00375
1.06131
1.15526
1.28304
1.4214
1.53373
1.60062
1.62996
1.63752
1.63012
1.60086
1.5337
1.41997
1.27771
1.14267
1.03908
0.972398
0.940241
1
1
1
1
1
1
0.999999
0.999999
1
1.00001
1.00005
1.00013
1.00026
1.0004
1.00033
0.999553
0.997202
0.992288
0.984361
0.974418
0.965494
0.962459
0.971173
0.997534
1.04638
1.11934
1.2109
1.30607
1.38568
1.43632
1.45345
1.43663
1.3863
1.30684
1.21105
1.11712
1.03908
0.982162
0.945874
0.92832
1
1
1
1
1
1
0.999999
0.999998
0.999999
1.00001
1.00003
1.0001
1.00024
1.00043
1.00058
1.0003
0.998862
0.995174
0.988237
0.977932
0.965795
0.955172
0.950539
0.956408
0.97627
1.01158
1.0605
1.11661
1.16932
1.20687
1.22051
1.20714
1.16992
1.11752
1.06133
1.01118
0.972398
0.945874
0.92999
0.922682
1
1
1
1
1
1
0.999999
0.999998
0.999997
1
1.00002
1.00009
1.00022
1.00045
1.0007
1.0007
0.999763
0.996797
0.990523
0.980207
0.966541
0.952054
0.940632
0.936386
0.942475
0.960231
0.988482
1.02307
1.05702
1.08203
1.09131
1.08225
1.05753
1.02395
0.989528
0.960602
0.940241
0.92832
0.922682
0.920708
SCALARS C2 double 1
LOOKUP_TABLE default
2.41205
2.37515
2.3162
2.26103
2.23277
2.23826
2.2687
2.30935
2.34704
2.37284
2.38194
2.37283
2.34696
2.30906
2.2679
2.23649
2.22963
2.25686
2.31354
2.38069
2.43812
2.47632
2.49641
2.50412
2.50526
2.5039
2.50221
2.50101
2.50035
2.50008
2.49999
2.49998
2.49999
2.49999
2.5
2.5
2.5
2.5
2.5
2.5
2.37515
2.34697
2.30997
2.28962
2.29991
2.33786
2.39086
2.44521
2.4904
2.51979
2.52994
2.51977
2.49031
2.44491
2.39008
2.33628
2.2975
2.2876
2.31237
2.36245
2.41762
2.46108
2.4875
2.49988
2.50371
2.50359
2.50233
2.50117
2.50047
2.50013
2.50001
2.49998
2.49999
2.49999
2.5
2.5
2.5
2.5
2.5
2.5
2.3162
2.30997
2.31662
2.35219
2.41575
2.49486
2.57531
2.64607
2.70017
2.73379
2.74516
2.73377
2.70008
2.64578
2.57458
2.49354
2.41443
2.3536
2.3275
2.34234
2.38568
2.43406
2.47056
2.49141
2.50041
2.50279
2.50243
2.50145
2.50067
2.50024
2.50006
2.5
2.49999
2.49999
2.5
2.5
2.5
2.5
2.5
2.5
2.26103
2.28962
2.35219
2.44479
2.55319
2.66199
2.75979
2.83962
2.89794
2.93322
2.94501
2.9332
2.89785
2.83935
2.75912
2.66091
2.55289
2.44975
2.37236
2.34034
2.35703
2.40212
2.4478
2.47905
2.49515
2.50123
2.50235
2.50174
2.50093
2.50039
2.50012
2.50002
2.49999
2.49999
2.5
2.5
2.5
2.5
2.5
2.5
2.23277
2.29991
2.41575
2.55319
2.69014
2.81389
2.91807
2.99973
3.05788
3.09254
3.10403
3.09252
3.0578
2.99948
2.91747
2.813
2.69059
2.56102
2.44393
2.36543
2.34445
2.3739
2.42286
2.46382
2.48801
2.49873
2.5019
2.50194
2.50119
2.50055
2.5002
2.50005
2.5
2.49999
2.5
2.5
2.5
2.5
2.5
2.5
2.23826
2.33786
2.49486
2.66199
2.81389
2.9428
3.04717
3.127
3.18292
3.21591
3.22679
3.21589
3.18285
3.12677
3.04663
2.94204
2.81483
2.67182
2.5289
2.41268
2.35206
2.35602
2.39995
2.44748
2.4795
2.49537
2.50103
2.50197
2.5014
2.50071
2.50028
2.50008
2.50001
2.5
2.5
2.5
2.5
2.5
2.5
2.5
2.2687
2.39086
2.57531
2.75979
2.91807
3.04717
3.1491
3.22572
3.27872
3.30969
3.31986
3.30968
3.27865
3.22552
3.14862
3.04653
2.91932
2.77088
2.61311
2.47018
2.3752
2.35029
2.38232
2.4321
2.47058
2.49147
2.49982
2.50184
2.50155
2.50086
2.50036
2.50011
2.50002
2.5
2.5
2.5
2.5
2.5
2.5
2.5
2.30935
2.44521
2.64607
2.83962
2.99973
3.127
3.22572
3.29892
3.34894
3.37791
3.38737
3.3779
3.34889
3.29873
3.22529
3.12645
3.00119
2.85145
2.68603
2.52596
2.40501
2.35385
2.37103
2.41938
2.46235
2.48758
2.49846
2.50158
2.50163
2.50097
2.50043
2.50014
2.50003
2.5
2.5
2.5
2.5
2.5
2.5
2.5
2.34704
2.4904
2.70017
2.89794
3.05788
3.18292
3.27872
3.34894
3.39644
3.42369
3.43255
3.42368
3.39638
3.34877
3.27832
3.18246
3.05949
2.91017
2.74124
2.5711
2.43276
2.36158
2.36515
2.41024
2.4558
2.48427
2.49722
2.50128
2.50164
2.50103
2.50047
2.50016
2.50003
2.49999
2.49999
2.5
2.5
2.50001
2.50001
2.50001
2.37284
2.51979
2.73379
2.93322
3.09254
3.21591
3.30969
3.37791
3.42369
3.44979
3.45823
3.44977
3.42364
3.37775
3.30932
3.2155
3.09423
2.94565
2.77535
2.60008
2.45194
2.36849
2.36275
2.40486
2.45161
2.48205
2.49632
2.50102
2.5016
2.50103
2.50045
2.50012
2.49999
2.49996
2.49996
2.49998
2.49999
2.5
2.50001
2.50001
2.38194
2.52994
2.74516
2.94501
3.10403
3.22679
3.31986
3.38737
3.43255
3.45823
3.46653
3.45822
3.4325
3.38722
3.3195
3.22641
3.10576
2.9575
2.78685
2.61002
2.45874
2.37118
2.36215
2.40307
2.45013
2.4812
2.49592
2.50082
2.50148
2.50091
2.50033
2.5
2.49987
2.49985
2.49987
2.49991
2.49994
2.49997
2.49999
2.5
2.37283
2.51977
2.73377
2.9332
3.09252
3.21589
3.30968
3.3779
3.42368
3.44977
3.45822
3.44976
3.42363
3.37774
3.30931
3.21549
3.09422
2.94563
2.77533
2.60005
2.45191
2.36845
2.36267
2.40473
2.45142
2.4818
2.49602
2.50068
2.50123
2.50064
2.50006
2.49974
2.49962
2.49962
2.49967
2.49973
2.4998
2.49987
2.49992
2.49995
2.34696
2.49031
2.70008
2.89785
3.0578
3.18285
3.27865
3.34889
3.39638
3.42364
3.4325
3.42363
3.39633
3.34872
3.27826
3.18239
3.05941
2.91008
2.74115
2.571
2.43264
2.36141
2.36489
2.40987
2.45532
2.48368
2.49654
2.50054
2.50087
2.50024
2.49967
2.49937
2.49926
2.49926
2.49932
2.49941
2.49952
2.49964
2.49973
2.49978
2.30906
2.44491
2.64578
2.83935
2.99948
3.12677
3.22552
3.29873
3.34877
3.37775
3.38722
3.37774
3.34872
3.29855
3.22509
3.12623
3.00095
2.85118
2.68573
2.52562
2.40461
2.35337
2.37042
2.41862
2.46146
2.48659
2.49744
2.50058
2.50068
2.50007
2.49955
2.49925
2.49909
2.49901
2.49898
2.49901
2.4991
2.49921
2.49932
2.49939
2.2679
2.39008
2.57458
2.75912
2.91747
3.04663
3.14862
3.22529
3.27832
3.30932
3.3195
3.30931
3.27826
3.22509
3.14813
3.04598
2.91871
2.7702
2.61234
2.46931
2.37421
2.3492
2.38114
2.43087
2.4694
2.49046
2.49912
2.50152
2.50162
2.5012
2.5008
2.50046
2.5001
2.49969
2.49929
2.49897
2.49876
2.49868
2.49867
2.49869
2.23649
2.33628
2.49354
2.66091
2.813
2.94204
3.04653
3.12645
3.18246
3.2155
3.22641
3.21549
3.18239
3.12623
3.04598
2.94128
2.81391
2.67069
2.52747
2.41093
2.35008
2.35402
2.39818
2.44618
2.47897
2.49588
2.50283
2.5051
2.5057
2.5058
2.50565
2.50518
2.50431
2.50312
2.50177
2.50044
2.49932
2.49851
2.498
2.49777
2.22963
2.2975
2.41443
2.55289
2.69059
2.81483
2.91932
3.00119
3.05949
3.09423
3.10576
3.09422
3.05941
3.00095
2.91871
2.81391
2.69097
2.56058
2.44243
2.36289
2.34134
2.37106
2.42116
2.46401
2.49072
2.50448
2.51093
2.5141
2.51593
2.51699
2.51723
2.5165
2.51475
2.51215
2.50896
2.5056
2.50247
2.4999
2.49811
2.49721
2.25686
2.2876
2.3536
2.44975
2.56102
2.67182
2.77088
2.85145
2.91017
2.94565
2.9575
2.94563
2.91008
2.85118
2.7702
2.67069
2.56058
2.45449
2.37364
2.33856
2.35377
2.39969
2.44836
2.48426
2.50619
2.51871
2.52626
2.5314
2.53506
2.53733
2.53802
2.53697
2.53411
2.52961
2.52381
2.51727
2.51072
2.50497
2.5007
2.49843
2.31354
2.31237
2.3275
2.37236
2.44393
2.5289
2.61311
2.68603
2.74124
2.77535
2.78685
2.77533
2.74115
2.68573
2.61234
2.52747
2.44243
2.37364
2.33867
2.346
2.38573
2.43552
2.47785
2.50759
2.52719
2.54051
2.55023
2.55755
2.56277
2.56591
2.56691
2.56566
2.56206
2.55601
2.54765
2.5375
2.52658
2.51634
2.50833
2.50393
2.38069
2.36245
2.34234
2.34034
2.36543
2.41268
2.47018
2.52596
2.5711
2.60008
2.61002
2.60005
2.571
2.52562
2.46931
2.41093
2.36289
2.33856
2.346
2.38097
2.42835
2.47312
2.50851
2.53471
2.55422
2.56902
2.58003
2.58767
2.59235
2.59472
2.59539
2.59455
2.59181
2.58638
2.57755
2.56532
2.55073
2.53592
2.5237
2.51675
2.43812
2.41762
2.38568
2.35703
2.34445
2.35206
2.3752
2.40501
2.43276
2.45194
2.45874
2.45191
2.43264
2.40461
2.37421
2.35008
2.34134
2.35377
2.38573
2.42835
2.47139
2.50893
2.53982
2.56481
2.58436
2.59818
2.60597
2.60829
2.60695
2.60457
2.60344
2.60443
2.60648
2.60712
2.60363
2.59445
2.58008
2.56324
2.54818
2.53926
2.47632
2.46108
2.43406
2.40212
2.3739
2.35602
2.35029
2.35385
2.36158
2.36849
2.37118
2.36845
2.36141
2.35337
2.3492
2.35402
2.37106
2.39969
2.43552
2.47312
2.50893
2.54163
2.57052
2.59409
2.60978
2.61504
2.60902
2.59392
2.57516
2.55983
2.5539
2.55965
2.57463
2.5927
2.60676
2.61173
2.60652
2.59417
2.58049
2.57168
2.49641
2.4875
2.47056
2.4478
2.42286
2.39995
2.38232
2.37103
2.36515
2.36275
2.36215
2.36267
2.36489
2.37042
2.38114
2.39818
2.42116
2.44836
2.47785
2.50851
2.53982
2.57052
2.59738
2.61505
2.61714
2.59854
2.55858
2.5037
2.4473
2.40526
2.38971
2.40498
2.44655
2.50222
2.55633
2.59615
2.61666
2.62074
2.61613
2.61118
2.50412
2.49988
2.49141
2.47905
2.46382
2.44748
2.4321
2.41938
2.41024
2.40486
2.40307
2.40473
2.40987
2.41862
2.43087
2.44618
2.46401
2.48426
2.50759
2.53471
2.56481
2.59409
2.61505
2.61702
2.5882
2.52007
2.41474
2.29084
2.17812
2.1021
2.07558
2.10168
2.17711
2.2891
2.41271
2.51947
2.59259
2.63202
2.648
2.65231
2.50526
2.50371
2.50041
2.49515
2.48801
2.4795
2.47058
2.46235
2.4558
2.45161
2.45013
2.45142
2.45532
2.46146
2.4694
2.47897
2.49072
2.50619
2.52719
2.55422
2.58436
2.60978
2.61714
2.5882
2.50338
2.35317
2.15784
1.9686
1.82968
1.75182
1.7274
1.75144
1.82877
1.96716
2.15684
2.35584
2.51523
2.61607
2.66796
2.68826
2.5039
2.50359
2.50279
2.50123
2.49873
2.49537
2.49147
2.48758
2.48427
2.48205
2.4812
2.4818
2.48368
2.48659
2.49046
2.49588
2.50448
2.51871
2.54051
2.56902
2.59818
2.61504
2.59854
2.52007
2.35317
2.10721
1.85649
1.67884
1.58407
1.54348
1.53268
1.54328
1.58366
1.67843
1.85746
2.11437
2.37475
2.56366
2.66903
2.71278
2.50221
2.50233
2.50243
2.50235
2.5019
2.50103
2.49982
2.49846
2.49722
2.49632
2.49592
2.49602
2.49654
2.49744
2.49912
2.50283
2.51093
2.52626
2.55023
2.58003
2.60597
2.60902
2.55858
2.41474
2.15784
1.85649
1.63602
1.53035
1.49568
1.48962
1.48977
1.48956
1.4957
1.53089
1.63879
1.86736
2.18876
2.4747
2.64823
2.72217
2.50101
2.50117
2.50145
2.50174
2.50194
2.50197
2.50184
2.50158
2.50128
2.50102
2.50082
2.50068
2.50054
2.50058
2.50152
2.5051
2.5141
2.5314
2.55755
2.58767
2.60829
2.59392
2.5037
2.29084
1.9686
1.67884
1.53035
1.48961
1.49472
1.50879
1.51505
1.50881
1.49497
1.4907
1.53408
1.69122
2.00489
2.36415
2.60941
2.71709
2.50035
2.50047
2.50067
2.50093
2.50119
2.5014
2.50155
2.50163
2.50164
2.5016
2.50148
2.50123
2.50087
2.50068
2.50162
2.5057
2.51593
2.53506
2.56277
2.59235
2.60695
2.57516
2.4473
2.17812
1.82968
1.58407
1.49568
1.49472
1.52156
1.54619
1.55561
1.54626
1.52193
1.49608
1.49981
1.59651
1.86698
2.25919
2.56408
2.70314
2.50008
2.50013
2.50024
2.50039
2.50055
2.50071
2.50086
2.50097
2.50103
2.50103
2.50091
2.50064
2.50024
2.50007
2.5012
2.5058
2.51699
2.53733
2.56591
2.59472
2.60457
2.55983
2.40526
2.1021
1.75182
1.54348
1.48962
1.50879
1.54619
1.57589
1.58682
1.57597
1.54661
1.51027
1.4939
1.55563
1.78828
2.18607
2.52791
2.68916
2.49999
2.50001
2.50006
2.50012
2.5002
2.50028
2.50036
2.50043
2.50047
2.50045
2.50033
2.50006
2.49967
2.49955
2.5008
2.50565
2.51723
2.53802
2.56691
2.59539
2.60344
2.5539
2.38971
2.07558
1.7274
1.53268
1.48977
1.51505
1.55561
1.58682
1.5982
1.58691
1.55605
1.51657
1.49409
1.54469
1.76333
2.16009
2.51407
2.68334
2.49998
2.49998
2.5
2.50002
2.50005
2.50008
2.50011
2.50014
2.50016
2.50012
2.5
2.49974
2.49937
2.49925
2.50046
2.50518
2.5165
2.53697
2.56566
2.59455
2.60443
2.55965
2.40498
2.10168
1.75144
1.54328
1.48956
1.50881
1.54626
1.57597
1.58691
1.57605
1.54668
1.5103
1.49384
1.55543
1.78787
2.18561
2.52759
2.68894
2.49999
2.49999
2.49999
2.49999
2.5
2.50001
2.50002
2.50003
2.50003
2.49999
2.49987
2.49962
2.49926
2.49909
2.5001
2.50431
2.51475
2.53411
2.56206
2.59181
2.60648
2.57463
2.44655
2.17711
1.82877
1.58366
1.4957
1.49497
1.52193
1.54661
1.55605
1.54668
1.5223
1.49634
1.49982
1.59608
1.86601
2.2581
2.56326
2.70251
2.49999
2.49999
2.49999
2.49999
2.49999
2.5
2.5
2.5
2.49999
2.49996
2.49985
2.49962
2.49926
2.49901
2.49969
2.50312
2.51215
2.52961
2.55601
2.58638
2.60712
2.5927
2.50222
2.2891
1.96716
1.67843
1.53089
1.4907
1.49608
1.51027
1.51657
1.5103
1.49634
1.49179
1.53461
1.69077
2.00333
2.36227
2.60781
2.71574
2.5
2.5
2.5
2.5
2.5
2.5
2.5
2.5
2.49999
2.49996
2.49987
2.49967
2.49932
2.49898
2.49929
2.50177
2.50896
2.52381
2.54765
2.57755
2.60363
2.60676
2.55633
2.41271
2.15684
1.85746
1.63879
1.53408
1.49981
1.4939
1.49409
1.49384
1.49982
1.53461
1.64154
1.86825
2.18757
2.47245
2.64581
2.71982
2.5
2.5
2.5
2.5
2.5
2.5
2.5
2.5
2.5
2.49998
2.49991
2.49973
2.49941
2.49901
2.49897
2.50044
2.5056
2.51727
2.5375
2.56532
2.59445
2.61173
2.59615
2.51947
2.35584
2.11437
1.86736
1.69122
1.59651
1.55563
1.54469
1.55543
1.59608
1.69077
1.86825
2.12136
2.37713
2.56276
2.6665
2.70966
2.5
2.5
2.5
2.5
2.5
2.5
2.5
2.5
2.5
2.49999
2.49994
2.4998
2.49952
2.4991
2.49876
2.49932
2.50247
2.51072
2.52658
2.55073
2.58008
2.60652
2.61666
2.59259
2.51523
2.37475
2.18876
2.00489
1.86698
1.78828
1.76333
1.78787
1.86601
2.00333
2.18757
2.37713
2.5267
2.62016
2.6676
2.6859
2.5
2.5
2.5
2.5
2.5
2.5
2.5
2.5
2.50001
2.5
2.49997
2.49987
2.49964
2.49921
2.49868
2.49851
2.4999
2.50497
2.51634
2.53592
2.56324
2.59417
2.62074
2.63202
2.61607
2.56366
2.4747
2.36415
2.25919
2.18607
2.16009
2.18561
2.2581
2.36227
2.47245
2.56276
2.62016
2.64705
2.65457
2.65468
2.5
2.5
2.5
2.5
2.5
2.5
2.5
2.5
2.50001
2.50001
2.49999
2.49992
2.49973
2.49932
2.49867
2.498
2.49811
2.5007
2.50833
2.5237
2.54818
2.58049
2.61613
2.648
2.66796
2.66903
2.64823
2.60941
2.56408
2.52791
2.51407
2.52759
2.56326
2.60781
2.64581
2.6665
2.6676
2.65457
2.63722
2.62548
2.5
2.5
2.5
2.5
2.5
2.5
2.5
2.5
2.50001
2.50001
2.5
2.49995
2.49978
2.49939
2.49869
2.49777
2.49721
2.49843
2.50393
2.51675
2.53926
2.57168
2.61118
2.65231
2.68826
2.71278
2.72217
2.71709
2.70314
2.68916
2.68334
2.68894
2.70251
2.71574
2.71982
2.70966
2.6859
2.65468
2.62548
2.60789
