# vtk DataFile Version 3.0
Brusselator Concentration Output
ASCII
DATASET STRUCTURED_POINTS
DIMENSIONS 40 40 1
ORIGIN 0.0 0.0 0.0
SPACING 0.005 0.005 1.0
POINT_DATA 1600
SCALARS C1 double 1
LOOKUP_TABLE default
1.00606
1.00294
0.995887
0.984243
0.968516
0.950605
0.933065
0.918116
0.907088
0.900467
0.898276
0.900469
0.907094
0.918126
0.933075
0.950583
0.968373
0.98379
0.99482
1.00094
1.0031
1.00297
1.00201
1.00108
1.00046
1.00015
1.00002
0.999989
0.999988
0.999993
0.999997
0.999999
1
1
1
1
1
1
1
1
1.00294
0.997755
0.987287
0.972138
0.954178
0.936123
0.920481
0.908717
0.901078
0.896996
0.895742
0.896999
0.901084
0.908725
0.920479
0.936067
0.953959
0.971551
0.986071
0.995798
1.00074
1.00224
1.002
1.00125
1.00061
1.00023
1.00006
1
0.999991
0.999993
0.999996
0.999999
1
1
1
1
1
1
1
1
0.995887
0.987287
0.971539
0.95168
0.931754
0.915474
0.904975
0.900329
0.899876
0.901101
0.901801
0.901104
0.899881
0.900333
0.904952
0.915357
0.931398
0.950875
0.970154
0.985681
0.995612
1.00035
1.00169
1.00146
1.00087
1.0004
1.00014
1.00003
0.999999
0.999994
0.999996
0.999998
0.999999
1
1
1
1
1
1
1
0.984243
0.972138
0.95168
0.929023
0.910475
0.900421
0.900253
0.90826
0.920198
0.930572
0.934657
0.930575
0.920203
0.908256
0.900199
0.900217
0.909947
0.927993
0.950287
0.971533
0.987504
0.996797
1.00069
1.0015
1.00113
1.00061
1.00025
1.00008
1.00001
0.999996
0.999996
0.999998
0.999999
1
1
1
1
1
1
1
0.968516
0.954178
0.931754
0.910475
0.898601
0.901025
0.918505
0.947487
0.980233
1.0063
1.01626
1.0063
0.980237
0.947471
0.918406
0.900711
0.897882
0.909277
0.93066
0.955424
0.976963
0.991412
0.998696
1.00114
1.0013
1.00081
1.00038
1.00013
1.00003
1
0.999996
0.999997
0.999999
1
1
1
1
1
1
1
0.950605
0.936123
0.915474
0.900421
0.901025
0.923238
0.96815
1.0307
1.09796
1.15065
1.17068
1.15066
1.09796
1.03066
0.967988
0.922787
0.900107
0.899147
0.915029
0.939994
0.965367
0.984643
0.995718
1.00028
1.00128
1.00098
1.00051
1.0002
1.00006
1.00001
0.999997
0.999997
0.999998
0.999999
1
1
1
1
1
1
0.933065
0.920481
0.904975
0.900253
0.918505
0.96815
1.05247
1.16522
1.2846
1.37639
1.4107
1.3764
1.2846
1.16515
1.05222
0.967533
0.917387
0.899003
0.905464
0.927428
0.954393
0.977418
0.992108
0.998993
1.00105
1.00108
1.00063
1.00027
1.00009
1.00002
0.999999
0.999997
0.999998
0.999999
1
1
1
1
1
1
0.918116
0.908717
0.900329
0.90826
0.947487
1.0307
1.16522
1.3417
1.52121
1.65015
1.69569
1.65015
1.5212
1.3416
1.16486
1.0299
0.946179
0.907112
0.901886
0.91874
0.945371
0.970786
0.988448
0.997512
1.00069
1.0011
1.00071
1.00033
1.00011
1.00003
1
0.999997
0.999998
0.999999
1
1
1
1
1
1
0.907088
0.901078
0.899876
0.920198
0.980233
1.09796
1.2846
1.52121
1.74147
1.8806
1.92517
1.8806
1.74145
1.52107
1.28415
1.09698
0.978764
0.919186
0.902429
0.913708
0.938961
0.965588
0.985347
0.996146
1.00029
1.00107
1.00077
1.00038
1.00014
1.00004
1
0.999998
0.999999
1
1
1
1
1
1
1
0.900467
0.896996
0.901101
0.930572
1.0063
1.15065
1.37639
1.65015
1.8806
2.00808
2.04511
2.00808
1.88057
1.64998
1.37586
1.14954
1.00472
0.929677
0.904365
0.911368
0.93524
0.962325
0.983293
0.99519
0.99998
1.00104
1.0008
1.00041
1.00015
1.00004
1.00001
0.999999
0.999999
1
1
1
1
1
1
1
0.898276
0.895742
0.901801
0.934657
1.01626
1.17068
1.4107
1.69569
1.92517
2.04511
2.07848
2.0451
1.92513
1.69551
1.41014
1.16953
1.01465
0.933809
0.905323
0.910725
0.934034
0.961219
0.982577
0.994848
0.999867
1.00102
1.00081
1.00041
1.00016
1.00004
1.00001
0.999997
0.999998
1
1
1
1
1
1
1
0.900469
0.896999
0.901104
0.930575
1.0063
1.15066
1.3764
1.65015
1.8806
2.00808
2.0451
2.00808
1.88057
1.64998
1.37587
1.14955
1.00472
0.929681
0.904368
0.911371
0.935242
0.962328
0.983295
0.995192
0.999981
1.00103
1.0008
1.0004
1.00014
1.00003
0.999993
0.999986
0.999988
0.999992
0.999996
0.999999
1
1
1
1
0.907094
0.901084
0.899881
0.920203
0.980237
1.09796
1.2846
1.5212
1.74145
1.88057
1.92513
1.88057
1.74142
1.52106
1.28414
1.09698
0.978769
0.919192
0.902435
0.913715
0.938967
0.965593
0.985351
0.996144
1.00028
1.00106
1.00074
1.00034
1.00009
0.999984
0.99995
0.999946
0.999952
0.999962
0.999973
0.999984
0.999993
1
1
1.00001
0.918126
0.908725
0.900333
0.908256
0.947471
1.03066
1.16515
1.3416
1.52107
1.64998
1.69551
1.64998
1.52106
1.3415
1.1648
1.02986
0.946164
0.907108
0.90189
0.918749
0.94538
0.970791
0.988443
0.997491
1.00064
1.00103
1.00062
1.00021
0.999974
0.999874
0.999844
0.999845
0.999858
0.999879
0.999905
0.999933
0.999959
0.99998
0.999996
1
0.933075
0.920479
0.904952
0.900199
0.918406
0.967988
1.05222
1.16486
1.28415
1.37586
1.41014
1.37587
1.28414
1.1648
1.05198
0.967372
0.917289
0.89895
0.905441
0.927424
0.954392
0.977406
0.992069
0.998911
1.00092
1.00088
1.00038
0.999979
0.999765
0.999677
0.999652
0.999656
0.999676
0.99971
0.999755
0.999809
0.999866
0.999918
0.999957
0.999978
0.950583
0.936067
0.915357
0.900217
0.900711
0.922787
0.967533
1.0299
1.09698
1.14954
1.16953
1.14955
1.09698
1.02986
0.967372
0.922337
0.899795
0.898944
0.914908
0.939924
0.965315
0.984568
0.995583
1.00005
1.00095
1.00057
1.00003
0.999676
0.999513
0.999458
0.999446
0.999447
0.999454
0.999475
0.999518
0.999588
0.999678
0.999772
0.999849
0.999893
0.968373
0.953959
0.931398
0.909947
0.897882
0.900107
0.917387
0.946179
0.978764
1.00472
1.01465
1.00472
0.978769
0.946164
0.917289
0.899795
0.897163
0.908744
0.930288
0.955167
0.976753
0.991171
0.998357
1.00067
1.00071
1.00016
0.999721
0.999539
0.999528
0.999575
0.9996
0.999571
0.999495
0.999405
0.999343
0.999341
0.999404
0.999511
0.99962
0.999689
0.98379
0.971551
0.950875
0.927993
0.909277
0.899147
0.899003
0.907112
0.919186
0.929677
0.933809
0.929681
0.919192
0.907108
0.89895
0.898944
0.908744
0.926946
0.94944
0.970868
0.986938
0.99622
1.00002
1.00074
1.00038
1.00002
1.00001
1.00028
1.00066
1.00097
1.00109
1.00097
1.00065
1.0002
0.999757
0.999412
0.999228
0.999196
0.99925
0.999306
0.99482
0.986071
0.970154
0.950287
0.93066
0.915029
0.905464
0.901886
0.902429
0.904365
0.905323
0.904368
0.902435
0.90189
0.905441
0.914908
0.930288
0.94944
0.968687
0.984344
0.994421
0.99925
1.00067
1.00068
1.00062
1.00107
1.00206
1.00332
1.00452
1.00537
1.00568
1.00537
1.00452
1.00329
1.00191
1.00066
0.999705
0.999126
0.998855
0.998768
1.00094
0.995798
0.985681
0.971533
0.955424
0.939994
0.927428
0.91874
0.913708
0.911368
0.910725
0.911371
0.913715
0.918749
0.927424
0.939924
0.955167
0.970868
0.984344
0.993716
0.998728
1.00056
1.00096
1.00138
1.00262
1.00483
1.0077
1.0107
1.01326
1.01496
1.01555
1.01497
1.01327
1.01069
1.00762
1.00455
1.00192
1
0.998836
0.99831
1.0031
1.00074
0.995612
0.987504
0.976963
0.965367
0.954393
0.945371
0.938961
0.93524
0.934034
0.935242
0.938967
0.94538
0.954392
0.965315
0.976753
0.986938
0.994421
0.998728
1.00052
1.00114
1.00203
1.00419
1.00798
1.0131
1.01876
1.02401
1.0281
1.03062
1.03147
1.03063
1.02811
1.02401
1.0187
1.01288
1.0074
1.00298
0.999998
0.998533
1.00297
1.00224
1.00035
0.996797
0.991412
0.984643
0.977418
0.970786
0.965588
0.962325
0.961219
0.962328
0.965593
0.970791
0.977406
0.984568
0.991171
0.99622
0.99925
1.00056
1.00114
1.00228
1.00519
1.01051
1.01809
1.02683
1.03518
1.04174
1.04595
1.04809
1.04871
1.04809
1.04596
1.04172
1.0351
1.02658
1.01749
1.00939
1.00349
1.00043
1.00201
1.002
1.00169
1.00069
0.998696
0.995718
0.992108
0.988448
0.985347
0.983293
0.982577
0.983295
0.985351
0.988443
0.992069
0.995583
0.998357
1.00002
1.00067
1.00096
1.00203
1.00519
1.01149
1.02108
1.03273
1.0439
1.05189
1.05542
1.05534
1.05386
1.05309
1.05386
1.05533
1.05538
1.05175
1.04354
1.03203
1.02002
1.01042
1.00517
1.00108
1.00125
1.00146
1.0015
1.00114
1.00028
0.998993
0.997512
0.996146
0.99519
0.994848
0.995192
0.996144
0.997491
0.998911
1.00005
1.00067
1.00074
1.00068
1.00138
1.00419
1.01051
1.02108
1.03487
1.04847
1.05706
1.05725
1.04971
1.03874
1.02957
1.02606
1.02957
1.03871
1.04962
1.05701
1.05657
1.04769
1.03406
1.02119
1.01362
1.00046
1.00061
1.00087
1.00113
1.0013
1.00128
1.00105
1.00069
1.00029
0.99998
0.999867
0.999981
1.00028
1.00064
1.00092
1.00095
1.00071
1.00038
1.00062
1.00262
1.00798
1.01809
1.03273
1.04847
1.05844
1.05567
1.03865
1.01294
0.987205
0.968878
0.962309
0.968865
0.987158
1.0128
1.03834
1.0551
1.05773
1.0483
1.03483
1.02574
1.00015
1.00023
1.0004
1.00061
1.00081
1.00098
1.00108
1.0011
1.00107
1.00104
1.00102
1.00103
1.00106
1.00103
1.00088
1.00057
1.00016
1.00002
1.00107
1.00483
1.0131
1.02683
1.0439
1.05706
1.05567
1.03332
0.99418
0.949841
0.911599
0.886553
0.877919
0.886535
0.911537
0.949675
0.993831
1.03278
1.05528
1.058
1.04884
1.0402
1.00002
1.00006
1.00014
1.00025
1.00038
1.00051
1.00063
1.00071
1.00077
1.0008
1.00081
1.0008
1.00074
1.00062
1.00038
1.00003
0.999721
1.00001
1.00206
1.0077
1.01876
1.03518
1.05189
1.05725
1.03865
0.99418
0.93545
0.878092
0.833034
0.805172
0.795831
0.805151
0.832964
0.877913
0.935105
0.993762
1.03878
1.05969
1.0602
1.05467
0.999989
1
1.00003
1.00008
1.00013
1.0002
1.00027
1.00033
1.00038
1.00041
1.00041
1.0004
1.00034
1.00021
0.999979
0.999676
0.999539
1.00028
1.00332
1.0107
1.02401
1.04174
1.05542
1.04971
1.01294
0.949841
0.878092
0.814398
0.767524
0.73974
0.730619
0.739718
0.767451
0.814218
0.877773
0.949582
1.01365
1.05371
1.06703
1.0668
0.999988
0.999991
0.999999
1.00001
1.00003
1.00006
1.00009
1.00011
1.00014
1.00015
1.00016
1.00014
1.00009
0.999974
0.999765
0.999513
0.999528
1.00066
1.00452
1.01326
1.0281
1.04595
1.05534
1.03874
0.987205
0.911599
0.833034
0.767524
0.721445
0.694954
0.686393
0.694932
0.721372
0.76735
0.832747
0.911487
0.98842
1.04405
1.06962
1.07524
0.999993
0.999993
0.999994
0.999996
1
1.00001
1.00002
1.00003
1.00004
1.00004
1.00004
1.00003
0.999984
0.999874
0.999677
0.999458
0.999575
1.00097
1.00537
1.01496
1.03062
1.04809
1.05386
1.02957
0.968878
0.886553
0.805172
0.73974
0.694954
0.669692
0.661609
0.66967
0.694882
0.739571
0.804909
0.88654
0.970422
1.03574
1.06985
1.0799
0.999997
0.999996
0.999996
0.999996
0.999996
0.999997
0.999999
1
1
1.00001
1.00001
0.999993
0.99995
0.999844
0.999652
0.999446
0.9996
1.00109
1.00568
1.01555
1.03147
1.04871
1.05309
1.02606
0.962309
0.877919
0.795831
0.730619
0.686393
0.661609
0.653707
0.661587
0.686322
0.730452
0.795577
0.87794
0.963967
1.03252
1.06966
1.08136
0.999999
0.999999
0.999998
0.999998
0.999997
0.999997
0.999997
0.999997
0.999998
0.999999
0.999997
0.999986
0.999946
0.999845
0.999656
0.999447
0.999571
1.00097
1.00537
1.01497
1.03063
1.04809
1.05386
1.02957
0.968865
0.886535
0.805151
0.739718
0.694932
0.66967
0.661587
0.669647
0.69486
0.739548
0.804888
0.886522
0.97041
1.03573
1.06985
1.07991
1
1
0.999999
0.999999
0.999999
0.999998
0.999998
0.999998
0.999999
0.999999
0.999998
0.999988
0.999952
0.999858
0.999676
0.999454
0.999495
1.00065
1.00452
1.01327
1.02811
1.04596
1.05533
1.03871
0.987158
0.911537
0.832964
0.767451
0.721372
0.694882
0.686322
0.69486
0.721299
0.767277
0.832677
0.911426
0.988373
1.04402
1.06962
1.07524
1
1
1
1
1
0.999999
0.999999
0.999999
1
1
1
0.999992
0.999962
0.999879
0.99971
0.999475
0.999405
1.0002
1.00329
1.01069
1.02401
1.04172
1.05538
1.04962
1.0128
0.949675
0.877913
0.814218
0.76735
0.739571
0.730452
0.739548
0.767277
0.814039
0.877595
0.949417
1.01351
1.05362
1.06698
1.06677
1
1
1
1
1
1
1
1
1
1
1
0.999996
0.999973
0.999905
0.999755
0.999518
0.999343
0.999757
1.00191
1.00762
1.0187
1.0351
1.05175
1.05701
1.03834
0.993831
0.935105
0.877773
0.832747
0.804909
0.795577
0.804888
0.832677
0.877595
0.934759
0.993412
1.03847
1.05944
1.06003
1.05456
1
1
1
1
1
1
1
1
1
1
1
0.999999
0.999984
0.999933
0.999809
0.999588
0.999341
0.999412
1.00066
1.00455
1.01288
1.02658
1.04354
1.05657
1.0551
1.03278
0.993762
0.949582
0.911487
0.88654
0.87794
0.886522
0.911426
0.949417
0.993412
1.03224
1.0547
1.05749
1.04844
1.03987
1
1
1
1
1
1
1
1
1
1
1
1
0.999993
0.999959
0.999866
0.999678
0.999404
0.999228
0.999705
1.00192
1.0074
1.01749
1.03203
1.04769
1.05773
1.05528
1.03878
1.01365
0.98842
0.970422
0.963967
0.97041
0.988373
1.01351
1.03847
1.0547
1.057
1.04747
1.03405
1.02502
1
1
1
1
1
1
1
1
1
1
1
1
1
0.99998
0.999918
0.999772
0.999511
0.999196
0.999126
1
1.00298
1.00939
1.02002
1.03406
1.0483
1.058
1.05969
1.05371
1.04405
1.03574
1.03252
1.03573
1.04402
1.05362
1.05944
1.05749
1.04747
1.03316
1.02001
1.01236
1
1
1
1
1
1
1
1
1
1
1
1
1
0.999996
0.999957
0.999849
0.99962
0.99925
0.998855
0.998836
0.999998
1.00349
1.01042
1.02119
1.03483
1.04884
1.0602
1.06703
1.06962
1.06985
1.06966
1.06985
1.06962
1.06698
1.06003
1.04844
1.03405
1.02001
1.00921
1.00344
1
1
1
1
1
1
1
1
1
1
1
1
1.00001
1
0.999978
0.999893
0.999689
0.999306
0.998768
0.99831
0.998533
1.00043
1.00517
1.01362
1.02574
1.0402
1.05467
1.0668
1.07524
1.0799
1.08136
1.07991
1.07524
1.06677
1.05456
1.03987
1.02502
1.01236
1.00344
0.998925
SCALARS C2 double 1
LOOKUP_TABLE default
2.48617
2.48647
2.48919
2.49736
2.51297
2.53563
2.56252
2.58939
2.61196
2.62687
2.63206
2.62687
2.61195
2.58937
2.56248
2.53558
2.51298
2.49766
2.49028
2.48917
2.49149
2.49469
2.4973
2.49891
2.49969
2.49999
2.50005
2.50004
2.50002
2.50001
2.5
2.5
2.5
2.5
2.5
2.5
2.5
2.5
2.5
2.5
2.48647
2.48983
2.49861
2.51523
2.54034
2.57186
2.60565
2.63697
2.66186
2.67767
2.68307
2.67766
2.66185
2.63695
2.60562
2.57184
2.54045
2.51578
2.50017
2.4932
2.49226
2.49418
2.4966
2.4984
2.49942
2.49987
2.50001
2.50004
2.50002
2.50001
2.5
2.5
2.5
2.5
2.5
2.5
2.5
2.5
2.5
2.5
2.48919
2.49861
2.51879
2.55032
2.59111
2.63626
2.67972
2.7163
2.74291
2.75864
2.76379
2.75864
2.7429
2.71628
2.6797
2.6363
2.59142
2.55133
2.52116
2.50296
2.49515
2.49395
2.49555
2.49752
2.49891
2.49964
2.49993
2.50002
2.50002
2.50001
2.50001
2.5
2.5
2.5
2.5
2.5
2.5
2.5
2.5
2.5
2.49736
2.51523
2.55032
2.59973
2.65736
2.71501
2.76476
2.80142
2.82396
2.83494
2.83803
2.83493
2.82394
2.8014
2.76476
2.71516
2.65795
2.60132
2.55361
2.52028
2.502
2.49523
2.49478
2.49651
2.49823
2.4993
2.4998
2.49998
2.50002
2.50002
2.50001
2.5
2.5
2.5
2.5
2.5
2.5
2.5
2.5
2.5
2.51297
2.54034
2.59111
2.65736
2.72814
2.79153
2.83764
2.86184
2.86708
2.86288
2.85992
2.86287
2.86707
2.86183
2.83769
2.79182
2.72907
2.65961
2.59518
2.54526
2.51391
2.49908
2.49496
2.49568
2.49749
2.49888
2.49962
2.49992
2.50001
2.50002
2.50001
2.5
2.5
2.5
2.5
2.5
2.5
2.5
2.5
2.5
2.53563
2.57186
2.63626
2.71501
2.79153
2.84928
2.87534
2.86578
2.83062
2.79276
2.77664
2.79275
2.8306
2.86578
2.87546
2.84976
2.79287
2.71789
2.6408
2.57555
2.53034
2.50579
2.49651
2.49532
2.49683
2.49843
2.4994
2.49984
2.49998
2.50001
2.50001
2.50001
2.5
2.5
2.5
2.5
2.5
2.5
2.5
2.5
2.56252
2.60565
2.67972
2.76476
2.83764
2.87534
2.85967
2.78707
2.68007
2.58495
2.54717
2.58493
2.68005
2.7871
2.85989
2.87607
2.83943
2.7682
2.68433
2.6071
2.54923
2.51465
2.49935
2.49553
2.49636
2.49801
2.49918
2.49975
2.49996
2.50001
2.50001
2.50001
2.5
2.5
2.5
2.5
2.5
2.5
2.5
2.5
2.58939
2.63697
2.7163
2.80142
2.86184
2.86578
2.78707
2.62429
2.4233
2.26301
2.20337
2.26299
2.42328
2.62435
2.78743
2.8668
2.86408
2.8053
2.72063
2.63561
2.56765
2.52416
2.50295
2.49623
2.49611
2.49768
2.49897
2.49966
2.49993
2.5
2.50001
2.50001
2.5
2.5
2.5
2.5
2.5
2.5
2.5
2.5
2.61196
2.66186
2.74291
2.82396
2.86708
2.83062
2.68007
2.4233
2.14372
1.94656
1.87894
1.94655
2.14371
2.42341
2.68056
2.83192
2.86972
2.82813
2.74677
2.65776
2.58285
2.53254
2.50644
2.49713
2.49605
2.49744
2.49881
2.49958
2.4999
2.49999
2.50001
2.50001
2.5
2.5
2.5
2.5
2.5
2.5
2.5
2.5
2.62687
2.67767
2.75864
2.83494
2.86288
2.79276
2.58495
2.26301
1.94656
1.7458
1.68134
1.74579
1.94656
2.26315
2.58555
2.79428
2.8658
2.83928
2.76208
2.67158
2.59276
2.53824
2.50895
2.49785
2.49607
2.49731
2.4987
2.49952
2.49988
2.49999
2.50001
2.5
2.5
2.5
2.5
2.5
2.5
2.5
2.5
2.5
2.63206
2.68307
2.76379
2.83803
2.85992
2.77664
2.54717
2.20337
1.87894
1.68134
1.61942
1.68133
1.87894
2.20352
2.54781
2.77824
2.86294
2.84242
2.76706
2.67625
2.59619
2.54025
2.50986
2.49813
2.49608
2.49726
2.49866
2.4995
2.49987
2.49998
2.50001
2.5
2.5
2.5
2.49999
2.49999
2.5
2.5
2.5
2.5
2.62687
2.67766
2.75864
2.83493
2.86287
2.79275
2.58493
2.26299
1.94655
1.74579
1.68133
1.74577
1.94655
2.26313
2.58553
2.79427
2.86579
2.83927
2.76208
2.67157
2.59276
2.53824
2.50894
2.49785
2.49606
2.4973
2.4987
2.49952
2.49988
2.49999
2.50001
2.50001
2.5
2.5
2.49999
2.49999
2.49999
2.49999
2.49999
2.49999
2.61195
2.66185
2.7429
2.82394
2.86707
2.8306
2.68005
2.42328
2.14371
1.94656
1.87894
1.94655
2.14371
2.4234
2.68054
2.8319
2.86971
2.82812
2.74676
2.65774
2.58284
2.53253
2.50643
2.49711
2.49604
2.49744
2.49881
2.49959
2.49992
2.50003
2.50005
2.50004
2.50003
2.50002
2.50001
2.5
2.49999
2.49999
2.49999
2.49999
2.58937
2.63695
2.71628
2.8014
2.86183
2.86578
2.7871
2.62435
2.42341
2.26315
2.20352
2.26313
2.4234
2.62442
2.78745
2.8668
2.86407
2.80528
2.7206
2.63559
2.56763
2.52414
2.50293
2.49623
2.49613
2.49772
2.49904
2.49976
2.50006
2.50016
2.50017
2.50016
2.50014
2.50011
2.50007
2.50004
2.50001
2.49999
2.49998
2.49998
2.56248
2.60562
2.6797
2.76476
2.83769
2.87546
2.85989
2.78743
2.68056
2.58555
2.54781
2.58553
2.68054
2.78745
2.8601
2.87618
2.83947
2.7682
2.68431
2.60706
2.54919
2.51463
2.49936
2.49558
2.49647
2.49821
2.49946
2.50011
2.50039
2.50049
2.50051
2.50049
2.50044
2.50037
2.50028
2.50019
2.50011
2.50004
2.5
2.49998
2.53558
2.57184
2.6363
2.71516
2.79182
2.84976
2.87607
2.8668
2.83192
2.79428
2.77824
2.79427
2.8319
2.8668
2.87618
2.85023
2.79315
2.71803
2.64084
2.57554
2.53032
2.5058
2.4966
2.49553
2.49722
2.49901
2.50016
2.50076
2.50103
2.50113
2.50115
2.50112
2.50104
2.50092
2.50076
2.50057
2.50038
2.50022
2.5001
2.50003
2.51298
2.54045
2.59142
2.65795
2.72907
2.79287
2.83943
2.86408
2.86972
2.8658
2.86294
2.86579
2.86971
2.86407
2.83947
2.79315
2.73
2.66019
2.5955
2.54541
2.514
2.49924
2.49531
2.49631
2.49845
2.50017
2.50119
2.50169
2.5019
2.50196
2.50197
2.50195
2.50189
2.50177
2.50157
2.50129
2.50096
2.50064
2.50039
2.50025
2.49766
2.51578
2.55133
2.60132
2.65961
2.71789
2.7682
2.8053
2.82813
2.83928
2.84242
2.83927
2.82812
2.80528
2.7682
2.71803
2.66019
2.60293
2.55466
2.52092
2.50249
2.49582
2.49571
2.4979
2.5001
2.50154
2.50222
2.50238
2.50228
2.50212
2.50205
2.50211
2.50226
2.50239
2.50241
2.50224
2.50188
2.50143
2.50102
2.50078
2.49028
2.50017
2.52116
2.55361
2.59518
2.6408
2.68433
2.72063
2.74677
2.76208
2.76706
2.76208
2.74676
2.7206
2.68431
2.64084
2.5955
2.55466
2.52363
2.50473
2.49657
2.49544
2.49746
2.49995
2.50166
2.50228
2.50197
2.50107
2.50001
2.49917
2.49886
2.49916
2.49998
2.50105
2.50204
2.50265
2.50279
2.50253
2.50212
2.50182
2.48917
2.4932
2.50296
2.52028
2.54526
2.57555
2.6071
2.63561
2.65776
2.67158
2.67625
2.67157
2.65774
2.63559
2.60706
2.57554
2.54541
2.52092
2.50473
2.49691
2.49539
2.49718
2.49976
2.50153
2.50177
2.50035
2.49757
2.49411
2.49079
2.48843
2.48757
2.48842
2.49077
2.49407
2.49757
2.50051
2.50245
2.50334
2.50351
2.50343
2.49149
2.49226
2.49515
2.502
2.51391
2.53034
2.54923
2.56765
2.58285
2.59276
2.59619
2.59276
2.58284
2.56763
2.54919
2.53032
2.514
2.50249
2.49657
2.49539
2.49709
2.49963
2.50131
2.50093
2.49785
2.49206
2.48431
2.47598
2.46866
2.46369
2.46194
2.46368
2.46863
2.47594
2.48429
2.49216
2.49835
2.50236
2.50444
2.50523
2.49469
2.49418
2.49395
2.49523
2.49908
2.50579
2.51465
2.52416
2.53254
2.53824
2.54025
2.53824
2.53253
2.52414
2.51463
2.5058
2.49924
2.49582
2.49544
2.49718
2.49963
2.5012
2.5003
2.49554
2.48621
2.47279
2.45712
2.44188
2.42952
2.42166
2.41898
2.42165
2.4295
2.44185
2.45713
2.47296
2.48682
2.49705
2.50332
2.50615
2.4973
2.4966
2.49555
2.49478
2.49496
2.49651
2.49935
2.50295
2.50644
2.50895
2.50986
2.50894
2.50643
2.50293
2.49936
2.4966
2.49531
2.49571
2.49746
2.49976
2.50131
2.5003
2.4946
2.48241
2.46339
2.43957
2.41503
2.39406
2.37923
2.37087
2.36823
2.37086
2.37921
2.39407
2.41513
2.43995
2.46435
2.48437
2.49781
2.50435
2.49891
2.4984
2.49752
2.49651
2.49568
2.49532
2.49553
2.49623
2.49713
2.49785
2.49813
2.49785
2.49711
2.49623
2.49558
2.49553
2.49631
2.4979
2.49995
2.50153
2.50093
2.49554
2.48241
2.45977
2.42906
2.39581
2.36738
2.34861
2.33949
2.33655
2.33608
2.33655
2.3395
2.34867
2.36762
2.39648
2.43051
2.46226
2.48559
2.49761
2.49969
2.49942
2.49891
2.49823
2.49749
2.49683
2.49636
2.49611
2.49605
2.49607
2.49608
2.49606
2.49604
2.49613
2.49647
2.49722
2.49845
2.5001
2.50166
2.50177
2.49785
2.48621
2.46339
2.42906
2.38896
2.35405
2.33392
2.33028
2.33714
2.34579
2.34949
2.34579
2.33716
2.33041
2.33432
2.35502
2.39085
2.43182
2.46571
2.48428
2.49999
2.49987
2.49964
2.4993
2.49888
2.49843
2.49801
2.49768
2.49744
2.49731
2.49726
2.4973
2.49744
2.49772
2.49821
2.49901
2.50017
2.50154
2.50228
2.50035
2.49206
2.47279
2.43957
2.39581
2.35405
2.33019
2.33174
2.35311
2.38137
2.40385
2.41228
2.40386
2.38141
2.35329
2.33227
2.33139
2.35616
2.39826
2.43974
2.46445
2.50005
2.50001
2.49993
2.4998
2.49962
2.4994
2.49918
2.49897
2.49881
2.4987
2.49866
2.4987
2.49881
2.49904
2.49946
2.50016
2.50119
2.50222
2.50197
2.49757
2.48431
2.45712
2.41503
2.36738
2.33392
2.33174
2.36161
2.40962
2.45795
2.49243
2.50481
2.49244
2.45801
2.40985
2.36223
2.33306
2.33596
2.36889
2.41186
2.44047
2.50004
2.50004
2.50002
2.49998
2.49992
2.49984
2.49975
2.49966
2.49958
2.49952
2.4995
2.49952
2.49959
2.49976
2.50011
2.50076
2.50169
2.50238
2.50107
2.49411
2.47598
2.44188
2.39406
2.34861
2.33028
2.35311
2.40962
2.4796
2.54303
2.58601
2.60109
2.58602
2.5431
2.47985
2.41029
2.35445
2.33205
2.3488
2.38697
2.41638
2.50002
2.50002
2.50002
2.50002
2.50001
2.49998
2.49996
2.49993
2.4999
2.49988
2.49987
2.49988
2.49992
2.50006
2.50039
2.50103
2.5019
2.50228
2.50001
2.49079
2.46866
2.42952
2.37923
2.33949
2.33714
2.38137
2.45795
2.54303
2.61614
2.66431
2.68101
2.66432
2.61621
2.54329
2.45864
2.38269
2.33858
2.33837
2.36853
2.39634
2.50001
2.50001
2.50001
2.50002
2.50002
2.50001
2.50001
2.5
2.49999
2.49999
2.49998
2.49999
2.50003
2.50016
2.50049
2.50113
2.50196
2.50212
2.49917
2.48843
2.46369
2.42166
2.37087
2.33655
2.34579
2.40385
2.49243
2.58601
2.66431
2.71516
2.73267
2.71517
2.66438
2.58627
2.49313
2.40514
2.34698
2.3345
2.35767
2.38334
2.5
2.5
2.50001
2.50001
2.50001
2.50001
2.50001
2.50001
2.50001
2.50001
2.50001
2.50001
2.50005
2.50017
2.50051
2.50115
2.50197
2.50205
2.49886
2.48757
2.46194
2.41898
2.36823
2.33608
2.34949
2.41228
2.50481
2.60109
2.68101
2.73267
2.75043
2.73269
2.68108
2.60136
2.50551
2.41356
2.35059
2.33369
2.35415
2.37887
2.5
2.5
2.5
2.5
2.5
2.50001
2.50001
2.50001
2.50001
2.5
2.5
2.50001
2.50004
2.50016
2.50049
2.50112
2.50195
2.50211
2.49916
2.48842
2.46368
2.42165
2.37086
2.33655
2.34579
2.40386
2.49244
2.58602
2.66432
2.71517
2.73269
2.71518
2.6644
2.58628
2.49314
2.40515
2.34698
2.33449
2.35766
2.38333
2.5
2.5
2.5
2.5
2.5
2.5
2.5
2.5
2.5
2.5
2.5
2.5
2.50003
2.50014
2.50044
2.50104
2.50189
2.50226
2.49998
2.49077
2.46863
2.4295
2.37921
2.3395
2.33716
2.38141
2.45801
2.5431
2.61621
2.66438
2.68108
2.6644
2.61628
2.54336
2.4587
2.38273
2.3386
2.33837
2.36851
2.39632
2.5
2.5
2.5
2.5
2.5
2.5
2.5
2.5
2.5
2.5
2.5
2.5
2.50002
2.50011
2.50037
2.50092
2.50177
2.50239
2.50105
2.49407
2.47594
2.44185
2.39407
2.34867
2.33041
2.35329
2.40985
2.47985
2.54329
2.58627
2.60136
2.58628
2.54336
2.4801
2.41051
2.35463
2.33217
2.34886
2.38698
2.41636
2.5
2.5
2.5
2.5
2.5
2.5
2.5
2.5
2.5
2.5
2.49999
2.49999
2.50001
2.50007
2.50028
2.50076
2.50157
2.50241
2.50204
2.49757
2.48429
2.45713
2.41513
2.36762
2.33432
2.33227
2.36223
2.41029
2.45864
2.49313
2.50551
2.49314
2.4587
2.41051
2.36284
2.33358
2.33635
2.36913
2.41197
2.44051
2.5
2.5
2.5
2.5
2.5
2.5
2.5
2.5
2.5
2.5
2.49999
2.49999
2.5
2.50004
2.50019
2.50057
2.50129
2.50224
2.50265
2.50051
2.49216
2.47296
2.43995
2.39648
2.35502
2.33139
2.33306
2.35445
2.38269
2.40514
2.41356
2.40515
2.38273
2.35463
2.33358
2.33259
2.35713
2.39895
2.44016
2.46472
2.5
2.5
2.5
2.5
2.5
2.5
2.5
2.5
2.5
2.5
2.5
2.49999
2.49999
2.50001
2.50011
2.50038
2.50096
2.50188
2.50279
2.50245
2.49835
2.48682
2.46435
2.43051
2.39085
2.35616
2.33596
2.33205
2.33858
2.34698
2.35059
2.34698
2.3386
2.33217
2.33635
2.35713
2.39276
2.43331
2.46677
2.48509
2.5
2.5
2.5
2.5
2.5
2.5
2.5
2.5
2.5
2.5
2.5
2.49999
2.49999
2.49999
2.50004
2.50022
2.50064
2.50143
2.50253
2.50334
2.50236
2.49705
2.48437
2.46226
2.43182
2.39826
2.36889
2.3488
2.33837
2.3345
2.33369
2.33449
2.33837
2.34886
2.36913
2.39895
2.43331
2.46486
2.48777
2.49946
2.5
2.5
2.5
2.5
2.5
2.5
2.5
2.5
2.5
2.5
2.5
2.49999
2.49999
2.49998
2.5
2.5001
2.50039
2.50102
2.50212
2.50351
2.50444
2.50332
2.49781
2.48559
2.46571
2.43974
2.41186
2.38697
2.36853
2.35767
2.35415
2.35766
2.36851
2.38698
2.41197
2.44016
2.46677
2.48777
2.50137
2.50781
2.5
2.5
2.5
2.5
2.5
2.5
2.5
2.5
2.5
2.5
2.5
2.49999
2.49999
2.49998
2.49998
2.50003
2.50025
2.50078
2.50182
2.50343
2.50523
2.50615
2.50435
2.49761
2.48428
2.46445
2.44047
2.41638
2.39634
2.38334
2.37887
2.38333
2.39632
2.41636
2.44051
2.46472
2.48509
2.49946
2.50781
2.51141
