# vtk DataFile Version 3.0
Brusselator Concentration Output
ASCII
DATASET STRUCTURED_POINTS
DIMENSIONS 40 40 1
ORIGIN 0.0 0.0 0.0
SPACING 0.005 0.005 1.0
POINT_DATA 1600
SCALARS C1 double 1
LOOKUP_TABLE default
1
1
1
1
0.999994
0.99997
0.999925
0.999859
0.999789
0.999738
0.999719
0.999738
0.999789
0.999859
0.999925
0.99997
0.999994
1
1
1
1
1
1
1
1
1
1
1
1
1
1
1
1
1
1
1
1
1
1
1
1
1
1
0.99999
0.999957
0.999885
0.999766
0.999622
0.999493
0.999413
0.999388
0.999413
0.999493
0.999622
0.999766
0.999885
0.999957
0.99999
1
1
1
1
1
1
1
1
1
1
1
1
1
1
1
1
1
1
1
1
1
1
1
1
0.999988
0.999944
0.999836
0.999634
0.999355
0.999084
0.998923
0.998883
0.998886
0.998883
0.998923
0.999084
0.999355
0.999634
0.999836
0.999944
0.999988
1
1
1
1
1
1
1
1
1
1
1
1
1
1
1
1
1
1
1
1
1
1
0.99999
0.999944
0.999815
0.999542
0.999115
0.998668
0.99847
0.99869
0.999127
0.999343
0.999127
0.99869
0.99847
0.998668
0.999115
0.999542
0.999815
0.999944
0.999989
1
1
1
1
1
1
1
1
1
1
1
1
1
1
1
1
1
1
1
1
0.999994
0.999957
0.999836
0.999542
0.999018
0.998407
0.998218
0.999121
1.00121
1.00346
1.00441
1.00346
1.00121
0.999121
0.998218
0.998407
0.999018
0.999542
0.999835
0.999956
0.999993
1
1
1
1
1
1
1
1
1
1
1
1
1
1
1
1
1
1
1
0.99997
0.999885
0.999634
0.999115
0.998407
0.998152
0.999727
1.00446
1.0118
1.01857
1.02123
1.01857
1.0118
1.00446
0.999727
0.998152
0.998407
0.999115
0.999633
0.999884
0.999973
0.999997
1
1
1
1
1
1
1
1
1
1
1
1
1
1
1
1
1
1
0.999925
0.999766
0.999355
0.998668
0.998218
0.999727
1.0061
1.01937
1.0369
1.05119
1.05632
1.05119
1.0369
1.01937
1.0061
0.999727
0.998218
0.998667
0.999354
0.999767
0.999936
0.999988
1
1
1
1
1
1
1
1
1
1
1
1
1
1
1
1
1
1
0.999859
0.999622
0.999084
0.99847
0.999121
1.00446
1.01937
1.04571
1.07572
1.09566
1.10143
1.09566
1.07572
1.04571
1.01937
1.00446
0.999121
0.998469
0.999084
0.999625
0.999885
0.999974
0.999997
1
1
1
1
1
1
1
1
1
1
1
1
1
1
1
1
1
0.999789
0.999493
0.998923
0.99869
1.00121
1.0118
1.0369
1.07572
1.1111
1.12515
1.12601
1.12515
1.1111
1.07572
1.0369
1.0118
1.00121
0.99869
0.998923
0.9995
0.999831
0.999958
0.999993
1
1
1
1
1
1
1
1
1
1
1
1
1
1
1
1
1
0.999738
0.999413
0.998883
0.999127
1.00346
1.01857
1.05119
1.09566
1.12515
1.12407
1.1173
1.12407
1.12515
1.09566
1.05119
1.01857
1.00346
0.999127
0.998884
0.999423
0.999793
0.999945
0.99999
0.999999
1
1
1
1
1
1
1
1
1
1
1
1
1
1
1
1
0.999719
0.999388
0.998886
0.999343
1.00441
1.02123
1.05632
1.10143
1.12601
1.1173
1.10722
1.1173
1.12601
1.10143
1.05632
1.02123
1.00441
0.999342
0.998887
0.999399
0.999779
0.99994
0.999988
0.999999
1
1
1
1
1
1
1
1
1
1
1
1
1
1
1
1
0.999738
0.999413
0.998883
0.999127
1.00346
1.01857
1.05119
1.09566
1.12515
1.12407
1.1173
1.12407
1.12515
1.09566
1.05119
1.01857
1.00346
0.999127
0.998884
0.999423
0.999793
0.999945
0.99999
0.999999
1
1
1
1
1
1
1
1
1
1
1
1
1
1
1
1
0.999789
0.999493
0.998923
0.99869
1.00121
1.0118
1.0369
1.07572
1.1111
1.12515
1.12601
1.12515
1.1111
1.07572
1.0369
1.0118
1.00121
0.99869
0.998923
0.9995
0.999831
0.999958
0.999993
1
1
1
1
1
1
1
1
1
1
1
1
1
1
1
1
1
0.999859
0.999622
0.999084
0.99847
0.999121
1.00446
1.01937
1.04571
1.07572
1.09566
1.10143
1.09566
1.07572
1.04571
1.01937
1.00446
0.999121
0.998469
0.999084
0.999625
0.999885
0.999974
0.999997
1
1
1
1
1
1
1
1
1
1
1
1
1
1
1
1
1
0.999925
0.999766
0.999355
0.998668
0.998218
0.999727
1.0061
1.01937
1.0369
1.05119
1.05632
1.05119
1.0369
1.01937
1.0061
0.999727
0.998218
0.998667
0.999354
0.999767
0.999936
0.999988
1
1
1
1
1
1
1
1
1
1
1
1
1
1
1
1
1
1
0.99997
0.999885
0.999634
0.999115
0.998407
0.998152
0.999727
1.00446
1.0118
1.01857
1.02123
1.01857
1.0118
1.00446
0.999727
0.998152
0.998407
0.999115
0.999633
0.999884
0.999973
0.999997
1
1
1
1
1
1
1
1
1
1
1
1
1
1
1
1
1
1
0.999994
0.999957
0.999836
0.999542
0.999018
0.998407
0.998218
0.999121
1.00121
1.00346
1.00441
1.00346
1.00121
0.999121
0.998218
0.998407
0.999018
0.999542
0.999835
0.999956
0.999993
1
1
1
1
1
1
1
1
1
1
1
1
1
1
1
1
1
1
1
1
0.99999
0.999944
0.999815
0.999542
0.999115
0.998667
0.998469
0.99869
0.999127
0.999342
0.999127
0.99869
0.998469
0.998667
0.999115
0.999542
0.999815
0.999944
0.999989
1
1
1
1
1
1
1
1
1
1
1
1
1
1
1
1
1
1
1
1
1
1
0.999988
0.999944
0.999835
0.999633
0.999354
0.999084
0.998923
0.998884
0.998887
0.998884
0.998923
0.999084
0.999354
0.999633
0.999835
0.999944
0.999987
1
1
1
1
1
1
1
1
1
1
1
1
1
1
1
1
0.999999
1
1
1
1
1
1
1
0.999989
0.999956
0.999884
0.999767
0.999625
0.9995
0.999423
0.999399
0.999423
0.9995
0.999625
0.999767
0.999884
0.999956
0.999989
1
1
1
1
1
0.999999
0.999999
1
1
1.00001
1.00001
1.00002
1.00002
1.00002
1.00001
1.00001
1
1
0.999999
0.999999
1
1
1
1
1
1
0.999993
0.999973
0.999936
0.999885
0.999831
0.999793
0.999779
0.999793
0.999831
0.999885
0.999936
0.999973
0.999993
1
1
1
1
1
0.999999
0.999999
1
1.00001
1.00002
1.00004
1.00006
1.00007
1.00008
1.00007
1.00006
1.00004
1.00002
1.00001
1
0.999999
0.999999
0.999999
1
1
1
1
1
0.999997
0.999988
0.999974
0.999958
0.999945
0.99994
0.999945
0.999958
0.999974
0.999988
0.999997
1
1
1
1
1
0.999999
0.999999
1
1.00001
1.00004
1.00008
1.00014
1.00019
1.00023
1.00024
1.00023
1.00019
1.00014
1.00008
1.00004
1.00001
1
0.999999
0.999999
1
1
1
1
1
1
1
0.999997
0.999993
0.99999
0.999988
0.99999
0.999993
0.999997
1
1
1
1
1
1
0.999999
0.999999
1
1.00002
1.00005
1.00013
1.00024
1.00037
1.00046
1.00051
1.00052
1.00051
1.00046
1.00037
1.00024
1.00013
1.00005
1.00002
1
0.999999
1
1
1
1
1
1
1
1
1
0.999999
0.999999
0.999999
1
1
1
1
1
1
1
0.999999
0.999999
1
1.00002
1.00006
1.00016
1.00034
1.00056
1.00073
1.00076
1.00067
1.00062
1.00067
1.00076
1.00073
1.00056
1.00034
1.00016
1.00006
1.00002
1
1
1
1
1
1
1
1
1
1
1
1
1
1
1
1
1
1
1
1
0.999999
1
1.00001
1.00005
1.00016
1.00038
1.00069
1.00092
1.00082
1.00026
0.999554
0.999238
0.999554
1.00026
1.00082
1.00092
1.00069
1.00038
1.00016
1.00005
1.00001
1
1
1
1
1
1
1
1
1
1
1
1
1
1
1
1
1
1
1
1
1.00001
1.00004
1.00013
1.00034
1.00069
1.00099
1.00076
0.9994
0.996958
0.994559
0.993587
0.994559
0.996958
0.9994
1.00076
1.00099
1.00069
1.00034
1.00013
1.00005
1
1
1
1
1
1
1
1
1
1
1
1
1
1
1
1
1
1
1
1
1.00002
1.00008
1.00024
1.00056
1.00092
1.00076
0.998932
0.994494
0.988222
0.982825
0.980797
0.982825
0.988222
0.994494
0.998932
1.00076
1.00092
1.00056
1.00025
1.0001
1
1
1
1
1
1
1
1
1
1
1
1
1
1
1
1
1
1
1
1.00001
1.00004
1.00014
1.00037
1.00073
1.00082
0.9994
0.994494
0.985154
0.97373
0.96498
0.961966
0.96498
0.97373
0.985154
0.994494
0.9994
1.00082
1.00073
1.00038
1.00017
1
1
1
1
1
1
1
1
1
1
1
1
1
1
1
1
1
1
1
1.00001
1.00006
1.00019
1.00046
1.00076
1.00026
0.996958
0.988222
0.97373
0.957979
0.947368
0.94416
0.947368
0.957979
0.97373
0.988222
0.996957
1.00026
1.00076
1.00048
1.00025
1
1
1
1
1
1
1
1
1
1
1
1
1
1
1
1
1
1
1
1.00002
1.00007
1.00023
1.00051
1.00067
0.999554
0.994559
0.982825
0.96498
0.947368
0.937081
0.934566
0.937081
0.947368
0.96498
0.982825
0.994558
0.999554
1.00068
1.00053
1.0003
1
1
1
1
1
1
1
1
1
1
1
1
1
1
1
1
1
1
1
1.00002
1.00008
1.00024
1.00052
1.00062
0.999238
0.993587
0.980797
0.961966
0.94416
0.934566
0.932585
0.934566
0.94416
0.961966
0.980797
0.993587
0.999238
1.00062
1.00054
1.00032
1
1
1
1
1
1
1
1
1
1
1
1
1
1
1
1
1
1
1
1.00002
1.00007
1.00023
1.00051
1.00067
0.999554
0.994559
0.982825
0.96498
0.947368
0.937081
0.934566
0.937081
0.947368
0.96498
0.982825
0.994558
0.999554
1.00068
1.00053
1.0003
1
1
1
1
1
1
1
1
1
1
1
1
1
1
1
1
1
1
1
1.00001
1.00006
1.00019
1.00046
1.00076
1.00026
0.996958
0.988222
0.97373
0.957979
0.947368
0.94416
0.947368
0.957979
0.97373
0.988222
0.996957
1.00026
1.00076
1.00048
1.00025
1
1
1
1
1
1
1
1
1
1
1
1
1
1
1
1
1
1
1
1.00001
1.00004
1.00014
1.00037
1.00073
1.00082
0.9994
0.994494
0.985154
0.97373
0.96498
0.961966
0.96498
0.97373
0.985154
0.994494
0.9994
1.00082
1.00073
1.00038
1.00017
1
1
1
1
1
1
1
1
1
1
1
1
1
1
1
1
1
1
1
1
1.00002
1.00008
1.00024
1.00056
1.00092
1.00076
0.998932
0.994494
0.988222
0.982825
0.980797
0.982825
0.988222
0.994494
0.998932
1.00076
1.00092
1.00056
1.00025
1.0001
1
1
1
1
1
1
1
1
1
1
1
1
1
1
1
1
1
1
0.999999
1
1.00001
1.00004
1.00013
1.00034
1.00069
1.00099
1.00076
0.9994
0.996957
0.994558
0.993587
0.994558
0.996957
0.9994
1.00076
1.00099
1.00069
1.00034
1.00013
1.00005
1
1
1
1
1
1
1
1
1
1
1
1
1
1
1
1
1
1
1
0.999999
1
1.00001
1.00005
1.00016
1.00038
1.00069
1.00092
1.00082
1.00026
0.999554
0.999238
0.999554
1.00026
1.00082
1.00092
1.00069
1.00038
1.00016
1.00005
1.00001
1
1
1
1
1
1
1
1
1
1
1
1
1
1
1
1
1
1
1
0.999999
0.999999
1
1.00002
1.00006
1.00016
1.00034
1.00056
1.00073
1.00076
1.00068
1.00062
1.00068
1.00076
1.00073
1.00056
1.00034
1.00016
1.00006
1.00002
1
1
1
1
1
1
1
1
1
1
1
1
1
1
1
1
1
1
1
1
1
0.999999
0.999999
1
1.00002
1.00005
1.00013
1.00025
1.00038
1.00048
1.00053
1.00054
1.00053
1.00048
1.00038
1.00025
1.00013
1.00005
1.00002
1
0.999998
1
1
1
1
1
1
1
1
1
1
1
1
1
1
1
1
1
1
1
1
0.999999
0.999999
0.999999
1
1.00001
1.00005
1.0001
1.00017
1.00025
1.0003
1.00032
1.0003
1.00025
1.00017
1.0001
1.00005
1.00001
1
0.999998
0.999998
SCALARS C2 double 1
LOOKUP_TABLE default
2.5
2.5
2.49999
2.49999
2.49999
2.5
2.50004
2.5001
2.50018
2.50025
2.50027
2.50025
2.50018
2.5001
2.50004
2.5
2.49999
2.49999
2.49999
2.5
2.5
2.5
2.5
2.5
2.5
2.5
2.5
2.5
2.5
2.5
2.5
2.5
2.5
2.5
2.5
2.5
2.5
2.5
2.5
2.5
2.5
2.5
2.49999
2.49999
2.50001
2.50008
2.50021
2.5004
2.50062
2.50078
2.50084
2.50078
2.50062
2.5004
2.50021
2.50008
2.50001
2.49999
2.49999
2.5
2.5
2.5
2.5
2.5
2.5
2.5
2.5
2.5
2.5
2.5
2.5
2.5
2.5
2.5
2.5
2.5
2.5
2.5
2.5
2.5
2.49999
2.49999
2.5
2.50002
2.50012
2.50035
2.50077
2.50132
2.50184
2.50218
2.5023
2.50218
2.50184
2.50132
2.50077
2.50035
2.50012
2.50002
2.5
2.49999
2.5
2.5
2.5
2.5
2.5
2.5
2.5
2.5
2.5
2.5
2.5
2.5
2.5
2.5
2.5
2.5
2.5
2.5
2.5
2.5
2.49999
2.49999
2.50002
2.50014
2.50046
2.50112
2.50214
2.50327
2.50409
2.50442
2.50448
2.50442
2.50409
2.50327
2.50214
2.50112
2.50046
2.50014
2.50002
2.5
2.49999
2.5
2.5
2.5
2.5
2.5
2.5
2.5
2.5
2.5
2.5
2.5
2.5
2.5
2.5
2.5
2.5
2.5
2.5
2.5
2.49999
2.50001
2.50012
2.50046
2.50127
2.5027
2.50453
2.50589
2.50593
2.50493
2.50433
2.50493
2.50593
2.50589
2.50453
2.5027
2.50127
2.50046
2.50012
2.50002
2.5
2.5
2.5
2.5
2.5
2.5
2.5
2.5
2.5
2.5
2.5
2.5
2.5
2.5
2.5
2.5
2.5
2.5
2.5
2.5
2.5
2.50008
2.50035
2.50112
2.5027
2.50504
2.50693
2.5061
2.50118
2.49463
2.49161
2.49463
2.50118
2.5061
2.50693
2.50504
2.5027
2.50112
2.50036
2.50008
2.50001
2.5
2.5
2.5
2.5
2.5
2.5
2.5
2.5
2.5
2.5
2.5
2.5
2.5
2.5
2.5
2.5
2.5
2.5
2.5
2.50004
2.50021
2.50077
2.50214
2.50453
2.50693
2.50586
2.49623
2.47679
2.45609
2.44738
2.45609
2.47679
2.49623
2.50586
2.50693
2.50453
2.50214
2.50077
2.50021
2.50004
2.5
2.5
2.5
2.5
2.5
2.5
2.5
2.5
2.5
2.5
2.5
2.5
2.5
2.5
2.5
2.5
2.5
2.5
2.5
2.5001
2.5004
2.50132
2.50327
2.50589
2.5061
2.49623
2.46707
2.41999
2.37619
2.35942
2.37619
2.41999
2.46707
2.49623
2.5061
2.50589
2.50327
2.50132
2.50041
2.50009
2.50001
2.5
2.5
2.5
2.5
2.5
2.5
2.5
2.5
2.5
2.5
2.5
2.5
2.5
2.5
2.5
2.5
2.5
2.5
2.50018
2.50062
2.50184
2.50409
2.50593
2.50118
2.47679
2.41999
2.3407
2.27777
2.25691
2.27777
2.3407
2.41999
2.47679
2.50118
2.50593
2.50409
2.50184
2.50062
2.50016
2.50003
2.5
2.5
2.5
2.5
2.5
2.5
2.5
2.5
2.5
2.5
2.5
2.5
2.5
2.5
2.5
2.5
2.5
2.5
2.50025
2.50078
2.50218
2.50442
2.50493
2.49463
2.45609
2.37619
2.27777
2.21222
2.19434
2.21222
2.27777
2.37619
2.45609
2.49463
2.50493
2.50442
2.50219
2.50078
2.50021
2.50004
2.5
2.5
2.5
2.5
2.5
2.5
2.5
2.5
2.5
2.5
2.5
2.5
2.5
2.5
2.5
2.5
2.5
2.5
2.50027
2.50084
2.5023
2.50448
2.50433
2.49161
2.44738
2.35942
2.25691
2.19434
2.17918
2.19434
2.25691
2.35942
2.44738
2.49161
2.50433
2.50448
2.5023
2.50084
2.50023
2.50004
2.5
2.5
2.5
2.5
2.5
2.5
2.5
2.5
2.5
2.5
2.5
2.5
2.5
2.5
2.5
2.5
2.5
2.5
2.50025
2.50078
2.50218
2.50442
2.50493
2.49463
2.45609
2.37619
2.27777
2.21222
2.19434
2.21222
2.27777
2.37619
2.45609
2.49463
2.50493
2.50442
2.50219
2.50078
2.50021
2.50004
2.5
2.5
2.5
2.5
2.5
2.5
2.5
2.5
2.5
2.5
2.5
2.5
2.5
2.5
2.5
2.5
2.5
2.5
2.50018
2.50062
2.50184
2.50409
2.50593
2.50118
2.47679
2.41999
2.3407
2.27777
2.25691
2.27777
2.3407
2.41999
2.47679
2.50118
2.50593
2.50409
2.50184
2.50062
2.50016
2.50003
2.5
2.5
2.5
2.5
2.5
2.5
2.5
2.5
2.5
2.5
2.5
2.5
2.5
2.5
2.5
2.5
2.5
2.5
2.5001
2.5004
2.50132
2.50327
2.50589
2.5061
2.49623
2.46707
2.41999
2.37619
2.35942
2.37619
2.41999
2.46707
2.49623
2.5061
2.50589
2.50327
2.50132
2.50041
2.50009
2.50001
2.5
2.5
2.5
2.5
2.5
2.5
2.5
2.5
2.5
2.5
2.5
2.5
2.5
2.5
2.5
2.5
2.5
2.5
2.50004
2.50021
2.50077
2.50214
2.50453
2.50693
2.50586
2.49623
2.47679
2.45609
2.44738
2.45609
2.47679
2.49623
2.50586
2.50693
2.50453
2.50214
2.50077
2.50021
2.50004
2.5
2.5
2.5
2.5
2.5
2.5
2.5
2.5
2.5
2.5
2.5
2.5
2.5
2.5
2.5
2.5
2.5
2.5
2.5
2.5
2.50008
2.50035
2.50112
2.5027
2.50504
2.50693
2.5061
2.50118
2.49463
2.49161
2.49463
2.50118
2.5061
2.50693
2.50504
2.50271
2.50112
2.50036
2.50008
2.50001
2.5
2.5
2.5
2.5
2.5
2.5
2.5
2.5
2.5
2.5
2.5
2.5
2.5
2.5
2.5
2.5
2.5
2.5
2.5
2.49999
2.50001
2.50012
2.50046
2.50127
2.5027
2.50453
2.50589
2.50593
2.50493
2.50433
2.50493
2.50593
2.50589
2.50453
2.50271
2.50127
2.50046
2.50012
2.50002
2.5
2.5
2.5
2.5
2.5
2.5
2.5
2.5
2.5
2.5
2.5
2.5
2.5
2.5
2.5
2.5
2.5
2.5
2.5
2.5
2.49999
2.49999
2.50002
2.50014
2.50046
2.50112
2.50214
2.50327
2.50409
2.50442
2.50448
2.50442
2.50409
2.50327
2.50214
2.50112
2.50046
2.50014
2.50002
2.5
2.49999
2.5
2.5
2.5
2.5
2.5
2.5
2.5
2.5
2.5
2.5
2.5
2.5
2.5
2.5
2.5
2.5
2.5
2.5
2.5
2.49999
2.49999
2.5
2.50002
2.50012
2.50036
2.50077
2.50132
2.50184
2.50219
2.5023
2.50219
2.50184
2.50132
2.50077
2.50036
2.50012
2.50002
2.5
2.49999
2.5
2.5
2.5
2.5
2.5
2.5
2.5
2.5
2.5
2.5
2.5
2.5
2.5
2.5
2.5
2.5
2.5
2.5
2.5
2.5
2.5
2.5
2.49999
2.5
2.50002
2.50008
2.50021
2.50041
2.50062
2.50078
2.50084
2.50078
2.50062
2.50041
2.50021
2.50008
2.50002
2.5
2.49999
2.5
2.5
2.5
2.5
2.5
2.5
2.5
2.5
2.5
2.49999
2.49999
2.49999
2.49999
2.49999
2.5
2.5
2.5
2.5
2.5
2.5
2.5
2.5
2.5
2.5
2.49999
2.5
2.50001
2.50004
2.50009
2.50016
2.50021
2.50023
2.50021
2.50016
2.50009
2.50004
2.50001
2.5
2.49999
2.5
2.5
2.5
2.5
2.5
2.5
2.5
2.5
2.49999
2.49997
2.49995
2.49993
2.49992
2.49993
2.49995
2.49997
2.49999
2.5
2.5
2.5
2.5
2.5
2.5
2.5
2.5
2.5
2.5
2.5
2.5
2.50001
2.50003
2.50004
2.50004
2.50004
2.50003
2.50001
2.5
2.5
2.5
2.5
2.5
2.5
2.5
2.5
2.5
2.5
2.5
2.49998
2.49994
2.49987
2.49979
2.49972
2.4997
2.49972
2.49979
2.49987
2.49994
2.49998
2.5
2.5
2.5
2.5
2.5
2.5
2.5
2.5
2.5
2.5
2.5
2.5
2.5
2.5
2.5
2.5
2.5
2.5
2.5
2.5
2.5
2.5
2.5
2.5
2.5
2.5
2.5
2.5
2.49997
2.49989
2.49974
2.49952
2.4993
2.49914
2.49909
2.49914
2.4993
2.49952
2.49974
2.49989
2.49997
2.5
2.5
2.5
2.5
2.5
2.5
2.5
2.5
2.5
2.5
2.5
2.5
2.5
2.5
2.5
2.5
2.5
2.5
2.5
2.5
2.5
2.5
2.5
2.5
2.5
2.5
2.49996
2.49985
2.49961
2.49921
2.4987
2.49827
2.49802
2.49796
2.49802
2.49827
2.4987
2.49921
2.49961
2.49985
2.49996
2.5
2.50001
2.5
2.5
2.5
2.5
2.5
2.5
2.5
2.5
2.5
2.5
2.5
2.5
2.5
2.5
2.5
2.5
2.5
2.5
2.5
2.5
2.5
2.5
2.49997
2.49985
2.49956
2.49898
2.49815
2.49733
2.49693
2.49699
2.4971
2.49699
2.49693
2.49733
2.49815
2.49898
2.49956
2.49985
2.49997
2.5
2.5
2.5
2.5
2.5
2.5
2.5
2.5
2.5
2.5
2.5
2.5
2.5
2.5
2.5
2.5
2.5
2.5
2.5
2.5
2.5
2.5
2.49998
2.49989
2.49961
2.49898
2.49792
2.49673
2.49627
2.49724
2.49904
2.49995
2.49904
2.49724
2.49627
2.49673
2.49792
2.49898
2.49961
2.49989
2.49998
2.5
2.5
2.5
2.5
2.5
2.5
2.5
2.5
2.5
2.5
2.5
2.5
2.5
2.5
2.5
2.5
2.5
2.5
2.5
2.5
2.49999
2.49994
2.49974
2.49921
2.49815
2.49673
2.49609
2.49817
2.5038
2.51041
2.51334
2.51041
2.5038
2.49817
2.49609
2.49673
2.49815
2.49921
2.49974
2.49993
2.5
2.5
2.5
2.5
2.5
2.5
2.5
2.5
2.5
2.5
2.5
2.5
2.5
2.5
2.5
2.5
2.5
2.5
2.5
2.5
2.49997
2.49987
2.49952
2.4987
2.49733
2.49627
2.49817
2.50651
2.52154
2.53686
2.54325
2.53686
2.52154
2.50651
2.49817
2.49627
2.49733
2.49871
2.49952
2.49984
2.5
2.5
2.5
2.5
2.5
2.5
2.5
2.5
2.5
2.5
2.5
2.5
2.5
2.5
2.5
2.5
2.5
2.5
2.5
2.49999
2.49995
2.49979
2.4993
2.49827
2.49693
2.49724
2.5038
2.52154
2.54917
2.57533
2.58581
2.57533
2.54917
2.52154
2.5038
2.49724
2.49693
2.49827
2.4993
2.49974
2.5
2.5
2.5
2.5
2.5
2.5
2.5
2.5
2.5
2.5
2.5
2.5
2.5
2.5
2.5
2.5
2.5
2.5
2.5
2.49999
2.49993
2.49972
2.49914
2.49802
2.49699
2.49904
2.51041
2.53686
2.57533
2.61031
2.62397
2.61031
2.57533
2.53686
2.51041
2.49904
2.49699
2.49802
2.49913
2.49965
2.5
2.5
2.5
2.5
2.5
2.5
2.5
2.5
2.5
2.5
2.5
2.5
2.5
2.5
2.5
2.5
2.5
2.5
2.5
2.49999
2.49992
2.4997
2.49909
2.49796
2.4971
2.49995
2.51334
2.54325
2.58581
2.62397
2.63871
2.62397
2.58581
2.54325
2.51334
2.49995
2.4971
2.49796
2.49908
2.49962
2.5
2.5
2.5
2.5
2.5
2.5
2.5
2.5
2.5
2.5
2.5
2.5
2.5
2.5
2.5
2.5
2.5
2.5
2.5
2.49999
2.49993
2.49972
2.49914
2.49802
2.49699
2.49904
2.51041
2.53686
2.57533
2.61031
2.62397
2.61031
2.57533
2.53686
2.51041
2.49904
2.49699
2.49802
2.49913
2.49965
2.5
2.5
2.5
2.5
2.5
2.5
2.5
2.5
2.5
2.5
2.5
2.5
2.5
2.5
2.5
2.5
2.5
2.5
2.5
2.49999
2.49995
2.49979
2.4993
2.49827
2.49693
2.49724
2.5038
2.52154
2.54917
2.57533
2.58581
2.57533
2.54917
2.52154
2.5038
2.49724
2.49693
2.49827
2.4993
2.49974
2.5
2.5
2.5
2.5
2.5
2.5
2.5
2.5
2.5
2.5
2.5
2.5
2.5
2.5
2.5
2.5
2.5
2.5
2.5
2.5
2.49997
2.49987
2.49952
2.4987
2.49733
2.49627
2.49817
2.50651
2.52154
2.53686
2.54325
2.53686
2.52154
2.50651
2.49817
2.49627
2.49733
2.49871
2.49952
2.49984
2.5
2.5
2.5
2.5
2.5
2.5
2.5
2.5
2.5
2.5
2.5
2.5
2.5
2.5
2.5
2.5
2.5
2.5
2.5
2.5
2.49999
2.49994
2.49974
2.49921
2.49815
2.49673
2.49609
2.49817
2.5038
2.51041
2.51334
2.51041
2.5038
2.49817
2.49609
2.49673
2.49815
2.49921
2.49974
2.49993
2.5
2.5
2.5
2.5
2.5
2.5
2.5
2.5
2.5
2.5
2.5
2.5
2.5
2.5
2.5
2.5
2.5
2.5
2.5
2.5
2.5
2.49998
2.49989
2.49961
2.49898
2.49792
2.49673
2.49627
2.49724
2.49904
2.49995
2.49904
2.49724
2.49627
2.49673
2.49792
2.49898
2.49961
2.49989
2.49998
2.5
2.5
2.5
2.5
2.5
2.5
2.5
2.5
2.5
2.5
2.5
2.5
2.5
2.5
2.5
2.5
2.5
2.5
2.5
2.5
2.5
2.5
2.49997
2.49985
2.49956
2.49898
2.49815
2.49733
2.49693
2.49699
2.4971
2.49699
2.49693
2.49733
2.49815
2.49898
2.49956
2.49985
2.49997
2.5
2.5
2.5
2.5
2.5
2.5
2.5
2.5
2.5
2.5
2.5
2.5
2.5
2.5
2.5
2.5
2.5
2.5
2.5
2.5
2.5
2.5
2.5
2.5
2.49996
2.49985
2.49961
2.49921
2.49871
2.49827
2.49802
2.49796
2.49802
2.49827
2.49871
2.49921
2.49961
2.49985
2.49996
2.5
2.50001
2.5
2.5
2.5
2.5
2.5
2.5
2.5
2.5
2.5
2.5
2.5
2.5
2.5
2.5
2.5
2.5
2.5
2.5
2.5
2.5
2.5
2.5
2.5
2.5
2.49997
2.49989
2.49974
2.49952
2.4993
2.49913
2.49908
2.49913
2.4993
2.49952
2.49974
2.49989
2.49997
2.5
2.5
2.5
2.5
2.5
2.5
2.5
2.5
2.5
2.5
2.5
2.5
2.5
2.5
2.5
2.5
2.5
2.5
2.5
2.5
2.5
2.5
2.5
2.5
2.5
2.5
2.50001
2.5
2.49998
2.49993
2.49984
2.49974
2.49965
2.49962
2.49965
2.49974
2.49984
2.49993
2.49998
2.5
2.50001
2.5
2.5
