# vtk DataFile Version 3.0
Brusselator Concentration Output
ASCII
DATASET STRUCTURED_POINTS
DIMENSIONS 40 40 1
ORIGIN 0.0 0.0 0.0
SPACING 0.005 0.005 1.0
POINT_DATA 1600
SCALARS C1 double 1
LOOKUP_TABLE default
1.00156
1.00357
1.00744
1.01262
1.01793
1.02182
1.02312
1.02176
1.01888
1.01619
1.01511
1.01619
1.01888
1.02176
1.02313
1.02185
1.018
1.01276
1.00766
1.00376
1.00136
1.00021
0.999818
0.999786
0.999859
0.99993
0.999973
0.999992
0.999999
1
1
1
1
1
1
1
1
1
1
1
1.00357
1.00594
1.01005
1.01447
1.01707
1.01591
1.01046
1.00209
0.993364
0.98692
0.984563
0.98692
0.993365
1.00209
1.01048
1.01595
1.01715
1.01461
1.01019
1.00585
1.00269
1.00088
1.00009
0.999862
0.999864
0.999919
0.999964
0.999987
0.999997
1
1
1
1
1
1
1
1
1
1
1
1.00744
1.01005
1.01356
1.01471
1.00996
0.997592
0.979242
0.959018
0.941375
0.929607
0.925503
0.929607
0.941377
0.959024
0.979263
0.997641
1.01005
1.01481
1.01349
1.00935
1.00517
1.00225
1.00069
1.00006
0.999897
0.999907
0.999949
0.999978
0.999993
0.999998
1
1
1
1
1
1
1
1
1
1
1.01262
1.01447
1.01471
1.00784
0.989719
0.961068
0.927395
0.895527
0.87053
0.854972
0.849733
0.854973
0.870532
0.895537
0.927423
0.961126
0.989797
1.00783
1.01426
1.01276
1.00832
1.00425
1.00167
1.00043
0.999991
0.999908
0.999933
0.999967
0.999988
0.999997
0.999999
1
1
1
1
1
1
1
1
1
1.01793
1.01707
1.00996
0.989719
0.95425
0.909047
0.86344
0.825044
0.797502
0.781403
0.776158
0.781404
0.797506
0.825057
0.863473
0.909104
0.954285
0.989513
1.00891
1.01402
1.01126
1.0066
1.00299
1.001
1.00017
0.99994
0.999924
0.999956
0.999981
0.999994
0.999999
1
1
1
1
1
1
1
1
1
1.02182
1.01591
0.997592
0.961068
0.909047
0.852133
0.801367
0.762849
0.737563
0.723779
0.719464
0.72378
0.737567
0.762864
0.801401
0.85218
0.909011
0.960595
0.995823
1.01137
1.01293
1.00883
1.0045
1.00174
1.00045
1.00001
0.999927
0.999947
0.999975
0.999991
0.999998
1
1
1
1
1
1
1
1
1
1.02312
1.01046
0.979242
0.927395
0.86344
0.801367
0.751586
0.717491
0.697321
0.687368
0.684456
0.68737
0.697326
0.717507
0.75162
0.801398
0.863319
0.926628
0.976733
1.00455
1.01266
1.01049
1.00596
1.00256
1.00079
1.00011
0.999944
0.999942
0.999969
0.999988
0.999996
0.999999
1
1
1
1
1
1
1
1
1.02176
1.00209
0.959018
0.895527
0.825044
0.762849
0.717491
0.689665
0.675427
0.669611
0.668176
0.669612
0.675432
0.689681
0.717523
0.762862
0.824839
0.894488
0.955865
0.995138
1.01063
1.01134
1.00716
1.00333
1.00115
1.00024
0.99997
0.999941
0.999965
0.999985
0.999995
0.999999
1
1
1
1
1
1
1
1
1.01888
0.993364
0.941375
0.87053
0.797502
0.737563
0.697321
0.675427
0.666461
0.664253
0.664103
0.664255
0.666467
0.675443
0.69735
0.737559
0.797228
0.869277
0.937749
0.985767
1.00778
1.0115
1.00798
1.00395
1.00146
1.00035
0.999999
0.999943
0.999962
0.999983
0.999994
0.999999
1
1
1
1
1
1
1
1
1.01619
0.98692
0.929607
0.854972
0.781403
0.723779
0.687368
0.669611
0.664253
0.664515
0.665247
0.664517
0.664259
0.669627
0.687396
0.723764
0.781085
0.853586
0.925697
0.979
1.00539
1.01134
1.00843
1.00434
1.00166
1.00043
1.00002
0.999946
0.999961
0.999982
0.999994
0.999999
1
1
1
1
1
1
1
1
1.01511
0.984563
0.925503
0.849733
0.776158
0.719464
0.684456
0.668176
0.664103
0.665247
0.666296
0.665249
0.664109
0.668193
0.684483
0.719446
0.775824
0.8483
0.9215
0.976548
1.00447
1.01124
1.00858
1.00447
1.00174
1.00046
1.00003
0.999948
0.999962
0.999983
0.999996
1
1
1
1
1
1
1
1
1
1.01619
0.98692
0.929607
0.854973
0.781404
0.72378
0.68737
0.669612
0.664255
0.664517
0.665249
0.664519
0.664261
0.669629
0.687398
0.723766
0.781086
0.853586
0.925697
0.979
1.00539
1.01134
1.00843
1.00434
1.00166
1.00043
1.00003
0.999951
0.999966
0.999989
1
1.00001
1.00001
1.00001
1
1
1
1
1
1
1.01888
0.993365
0.941377
0.870532
0.797506
0.737567
0.697326
0.675432
0.666467
0.664259
0.664109
0.664261
0.666473
0.675449
0.697356
0.737564
0.797232
0.86928
0.93775
0.985768
1.00778
1.0115
1.00798
1.00395
1.00146
1.00036
1.00001
0.999957
0.999977
1
1.00001
1.00002
1.00002
1.00001
1.00001
1.00001
1.00001
1
1
1
1.02176
1.00209
0.959024
0.895537
0.825057
0.762864
0.717507
0.689681
0.675443
0.669627
0.668193
0.669629
0.675449
0.689697
0.717539
0.762877
0.824852
0.894499
0.955872
0.995143
1.01063
1.01134
1.00717
1.00334
1.00117
1.00026
0.999996
0.999969
0.999993
1.00001
1.00002
1.00003
1.00003
1.00003
1.00003
1.00002
1.00002
1.00001
1.00001
1.00001
1.02313
1.01048
0.979263
0.927423
0.863473
0.801401
0.75162
0.717523
0.69735
0.687396
0.684483
0.687398
0.697356
0.717539
0.751654
0.801432
0.863352
0.926656
0.976754
1.00457
1.01268
1.01051
1.00598
1.00259
1.00083
1.00015
0.99998
0.999972
0.999992
1.00001
1.00001
1.00002
1.00002
1.00003
1.00004
1.00004
1.00003
1.00003
1.00002
1.00002
1.02185
1.01595
0.997641
0.961126
0.909104
0.85218
0.801398
0.762862
0.737559
0.723764
0.719446
0.723766
0.737564
0.762877
0.801432
0.852228
0.909069
0.960654
0.995875
1.01141
1.01296
1.00887
1.00454
1.00179
1.00049
1.00004
0.999924
0.999906
0.999896
0.999885
0.999882
0.999894
0.999921
0.999959
0.999997
1.00003
1.00004
1.00005
1.00005
1.00004
1.018
1.01715
1.01005
0.989797
0.954285
0.909011
0.863319
0.824839
0.797228
0.781085
0.775824
0.781086
0.797232
0.824852
0.863352
0.909069
0.954322
0.989595
1.00901
1.01411
1.01134
1.00667
1.00306
1.00104
1.00016
0.999838
0.999705
0.999608
0.999519
0.999453
0.99943
0.999459
0.999538
0.999652
0.999781
0.999899
0.999991
1.00005
1.00008
1.00008
1.01276
1.01461
1.01481
1.00783
0.989513
0.960595
0.926628
0.894488
0.869277
0.853586
0.8483
0.853586
0.86928
0.894499
0.926656
0.960654
0.989595
1.00783
1.01437
1.01291
1.00847
1.00436
1.00172
1.00035
0.999715
0.99936
0.999071
0.998794
0.998557
0.998397
0.998341
0.9984
0.998569
0.998827
0.999139
0.999455
0.99973
0.999934
1.00006
1.00011
1.00766
1.01019
1.01349
1.01426
1.00891
0.995823
0.976733
0.955865
0.937749
0.925697
0.9215
0.925697
0.93775
0.955872
0.976754
0.995875
1.00901
1.01437
1.01344
1.00949
1.00535
1.00234
1.00057
0.999573
0.998901
0.998297
0.997704
0.99717
0.99676
0.996508
0.996425
0.99651
0.996767
0.997193
0.997758
0.998397
0.999015
0.999526
0.999876
1.00005
1.00376
1.00585
1.00935
1.01276
1.01402
1.01137
1.00455
0.995138
0.985767
0.979
0.976548
0.979
0.985768
0.995143
1.00457
1.01141
1.01411
1.01291
1.00949
1.00572
1.00272
1.00074
0.999446
0.998423
0.997421
0.996415
0.995523
0.994861
0.994465
0.994282
0.994233
0.994283
0.994469
0.994876
0.995564
0.996505
0.997567
0.998561
0.999311
0.99971
1.00136
1.00269
1.00517
1.00832
1.01126
1.01293
1.01266
1.01063
1.00778
1.00539
1.00447
1.00539
1.00778
1.01063
1.01268
1.01296
1.01134
1.00847
1.00535
1.00272
1.00081
0.999371
0.998059
0.996653
0.995213
0.994
0.993289
0.993167
0.993466
0.993857
0.994029
0.993858
0.993469
0.993179
0.993325
0.99408
0.995355
0.996828
0.998093
0.998815
1.00021
1.00088
1.00225
1.00425
1.0066
1.00883
1.01049
1.01134
1.0115
1.01134
1.01124
1.01134
1.0115
1.01134
1.01051
1.00887
1.00667
1.00436
1.00234
1.00074
0.999371
0.997922
0.996207
0.994375
0.992921
0.992451
0.993312
0.995332
0.997819
0.999839
1.00061
0.99984
0.997823
0.995346
0.993348
0.992525
0.993034
0.994465
0.996065
0.997089
0.999818
1.00009
1.00069
1.00167
1.00299
1.0045
1.00596
1.00716
1.00798
1.00843
1.00858
1.00843
1.00798
1.00717
1.00598
1.00454
1.00306
1.00172
1.00057
0.999446
0.998059
0.996207
0.994077
0.992393
0.992249
0.994604
0.999693
1.00669
1.01388
1.01926
1.02124
1.01926
1.01389
1.00671
0.999736
0.994672
0.992299
0.992274
0.99344
0.994457
0.999786
0.999862
1.00006
1.00043
1.001
1.00174
1.00256
1.00333
1.00395
1.00434
1.00447
1.00434
1.00395
1.00334
1.00259
1.00179
1.00104
1.00035
0.999573
0.998423
0.996653
0.994375
0.992393
0.99226
0.995821
1.00434
1.01763
1.03361
1.04885
1.05973
1.06365
1.05973
1.04887
1.03364
1.01768
1.00439
0.995753
0.991788
0.990972
0.991265
0.999859
0.999864
0.999897
0.999991
1.00017
1.00045
1.00079
1.00115
1.00146
1.00166
1.00174
1.00166
1.00146
1.00117
1.00083
1.00049
1.00016
0.999715
0.998901
0.997421
0.995213
0.992921
0.992249
0.995821
1.00635
1.02527
1.05141
1.08048
1.10643
1.12394
1.13005
1.12394
1.10645
1.08052
1.05146
1.02527
1.00608
0.994843
0.989829
0.988303
0.99993
0.999919
0.999907
0.999908
0.99994
1.00001
1.00011
1.00024
1.00035
1.00043
1.00046
1.00043
1.00036
1.00026
1.00015
1.00004
0.999838
0.99936
0.998297
0.996415
0.994
0.992451
0.994604
1.00434
1.02527
1.05861
1.10095
1.144
1.17846
1.19925
1.20597
1.19926
1.17849
1.14404
1.10098
1.05851
1.02473
1.00273
0.991103
0.986528
0.999973
0.999964
0.999949
0.999933
0.999924
0.999927
0.999944
0.99997
0.999999
1.00002
1.00003
1.00003
1.00001
0.999996
0.99998
0.999924
0.999705
0.999071
0.997704
0.995523
0.993289
0.993312
0.999693
1.01763
1.05141
1.10095
1.15808
1.20817
1.24025
1.25479
1.25846
1.2548
1.24028
1.20821
1.15808
1.10072
1.05052
1.01533
0.995193
0.986571
0.999992
0.999987
0.999978
0.999967
0.999956
0.999947
0.999942
0.999941
0.999943
0.999946
0.999948
0.999951
0.999957
0.999969
0.999972
0.999906
0.999608
0.998794
0.99717
0.994861
0.993167
0.995332
1.00669
1.03361
1.08048
1.144
1.20817
1.25179
1.26785
1.26757
1.2655
1.26758
1.26788
1.25182
1.20811
1.14361
1.07922
1.03067
1.00141
0.988351
0.999999
0.999997
0.999993
0.999988
0.999981
0.999975
0.999969
0.999965
0.999962
0.999961
0.999962
0.999966
0.999977
0.999993
0.999992
0.999896
0.999519
0.998557
0.99676
0.994465
0.993466
0.997819
1.01388
1.04885
1.10643
1.17846
1.24025
1.26785
1.26327
1.2479
1.24056
1.24791
1.26329
1.26785
1.24013
1.17791
1.10485
1.0454
1.0081
0.991028
1
1
0.999998
0.999997
0.999994
0.999991
0.999988
0.999985
0.999983
0.999982
0.999983
0.999989
1
1.00001
1.00001
0.999885
0.999453
0.998397
0.996508
0.994282
0.993857
0.999839
1.01926
1.05973
1.12394
1.19925
1.25479
1.26757
1.2479
1.22286
1.21234
1.22287
1.24791
1.26755
1.25462
1.19859
1.12214
1.05596
1.01321
0.993363
1
1
1
0.999999
0.999999
0.999998
0.999996
0.999995
0.999994
0.999994
0.999996
1
1.00001
1.00002
1.00001
0.999882
0.99943
0.998341
0.996425
0.994233
0.994029
1.00061
1.02124
1.06365
1.13005
1.20597
1.25846
1.2655
1.24056
1.21234
1.2008
1.21235
1.24057
1.26548
1.25828
1.20528
1.12818
1.05978
1.01512
0.994282
1
1
1
1
1
1
0.999999
0.999999
0.999999
0.999999
1
1.00001
1.00002
1.00003
1.00002
0.999894
0.999459
0.9984
0.99651
0.994283
0.993858
0.99984
1.01926
1.05973
1.12394
1.19926
1.2548
1.26758
1.24791
1.22287
1.21235
1.22288
1.24793
1.26756
1.25463
1.1986
1.12215
1.05596
1.01321
0.993365
1
1
1
1
1
1
1
1
1
1
1
1.00001
1.00002
1.00003
1.00002
0.999921
0.999538
0.998569
0.996767
0.994469
0.993469
0.997823
1.01389
1.04887
1.10645
1.17849
1.24028
1.26788
1.26329
1.24791
1.24057
1.24793
1.2633
1.26787
1.24016
1.17794
1.10487
1.04542
1.00811
0.991034
1
1
1
1
1
1
1
1
1
1
1
1.00001
1.00001
1.00003
1.00003
0.999959
0.999652
0.998827
0.997193
0.994876
0.993179
0.995346
1.00671
1.03364
1.08052
1.14404
1.20821
1.25182
1.26785
1.26755
1.26548
1.26756
1.26787
1.25184
1.20815
1.14365
1.07926
1.03071
1.00144
0.988369
1
1
1
1
1
1
1
1
1
1
1
1
1.00001
1.00003
1.00004
0.999997
0.999781
0.999139
0.997758
0.995564
0.993325
0.993348
0.999736
1.01768
1.05146
1.10098
1.15808
1.20811
1.24013
1.25462
1.25828
1.25463
1.24016
1.20815
1.15808
1.10076
1.05057
1.01539
0.995242
0.986616
1
1
1
1
1
1
1
1
1
1
1
1
1.00001
1.00002
1.00004
1.00003
0.999899
0.999455
0.998397
0.996505
0.99408
0.992525
0.994672
1.00439
1.02527
1.05851
1.10072
1.14361
1.17791
1.19859
1.20528
1.1986
1.17794
1.14365
1.10076
1.05842
1.02473
1.00279
0.99118
0.986612
1
1
1
1
1
1
1
1
1
1
1
1
1.00001
1.00002
1.00003
1.00004
0.999991
0.99973
0.999015
0.997567
0.995355
0.993034
0.992299
0.995753
1.00608
1.02473
1.05052
1.07922
1.10485
1.12214
1.12818
1.12215
1.10487
1.07926
1.05057
1.02473
1.00583
0.994786
0.98989
0.988418
1
1
1
1
1
1
1
1
1
1
1
1
1
1.00001
1.00003
1.00005
1.00005
0.999934
0.999526
0.998561
0.996828
0.994465
0.992274
0.991788
0.994843
1.00273
1.01533
1.03067
1.0454
1.05596
1.05978
1.05596
1.04542
1.03071
1.01539
1.00279
0.994786
0.991328
0.990854
0.991316
1
1
1
1
1
1
1
1
1
1
1
1
1
1.00001
1.00002
1.00005
1.00008
1.00006
0.999876
0.999311
0.998093
0.996065
0.99344
0.990972
0.989829
0.991103
0.995193
1.00141
1.0081
1.01321
1.01512
1.01321
1.00811
1.00144
0.995242
0.99118
0.98989
0.990854
0.99276
0.994169
1
1
1
1
1
1
1
1
1
1
1
1
1
1.00001
1.00002
1.00004
1.00008
1.00011
1.00005
0.99971
0.998815
0.997089
0.994457
0.991265
0.988303
0.986528
0.986571
0.988351
0.991028
0.993363
0.994282
0.993365
0.991034
0.988369
0.986616
0.986612
0.988418
0.991316
0.994169
0.995908
SCALARS C2 double 1
LOOKUP_TABLE default
2.50107
2.49885
2.49388
2.48574
2.4748
2.46263
2.45147
2.44315
2.43817
2.43586
2.43524
2.43587
2.43817
2.44315
2.45147
2.4626
2.47472
2.48554
2.49346
2.49815
2.50026
2.50082
2.5007
2.50042
2.5002
2.50008
2.50002
2.5
2.5
2.5
2.5
2.5
2.5
2.5
2.5
2.5
2.5
2.5
2.5
2.5
2.49885
2.49533
2.48817
2.4778
2.46602
2.45575
2.44965
2.44847
2.45069
2.45362
2.4549
2.45362
2.45069
2.44847
2.44965
2.45571
2.46591
2.47755
2.48772
2.49477
2.49863
2.50021
2.50056
2.50044
2.50025
2.50011
2.50004
2.50001
2.5
2.5
2.5
2.5
2.5
2.5
2.5
2.5
2.5
2.5
2.5
2.5
2.49388
2.48817
2.47768
2.46515
2.45536
2.45327
2.4609
2.47586
2.49271
2.50564
2.51044
2.50564
2.49271
2.47585
2.46088
2.45321
2.4552
2.46484
2.47726
2.48803
2.49513
2.49877
2.50015
2.50042
2.50031
2.50016
2.50007
2.50002
2.5
2.5
2.5
2.5
2.5
2.5
2.5
2.5
2.5
2.5
2.5
2.5
2.48574
2.4778
2.46515
2.45465
2.455
2.47178
2.50352
2.54253
2.57895
2.60435
2.61341
2.60435
2.57895
2.54252
2.50349
2.47169
2.45479
2.45431
2.46494
2.4786
2.4896
2.4962
2.49925
2.50023
2.50035
2.50022
2.50011
2.50004
2.50001
2.5
2.5
2.5
2.5
2.5
2.5
2.5
2.5
2.5
2.5
2.5
2.4748
2.46602
2.45536
2.455
2.47625
2.52182
2.584
2.64955
2.70558
2.74271
2.75564
2.74271
2.70558
2.64954
2.58395
2.52169
2.47601
2.45474
2.45563
2.46841
2.48248
2.49244
2.4977
2.49978
2.5003
2.50027
2.50015
2.50006
2.50002
2.5
2.5
2.5
2.5
2.5
2.5
2.5
2.5
2.5
2.5
2.5
2.46263
2.45575
2.45327
2.47178
2.52182
2.60003
2.69206
2.7808
2.85242
2.89823
2.91391
2.89823
2.85242
2.78078
2.692
2.59988
2.52158
2.4717
2.45431
2.46032
2.47497
2.48782
2.49554
2.49902
2.50014
2.50029
2.50019
2.50008
2.50003
2.50001
2.5
2.5
2.5
2.5
2.5
2.5
2.5
2.5
2.5
2.5
2.45147
2.44965
2.4609
2.50352
2.584
2.69206
2.80823
2.91367
2.99526
3.04602
3.06315
3.04602
2.99526
2.91365
2.80817
2.69191
2.58379
2.50369
2.46288
2.45668
2.46855
2.48304
2.49303
2.49802
2.49985
2.50026
2.50021
2.50011
2.50004
2.50001
2.5
2.5
2.5
2.5
2.5
2.5
2.5
2.5
2.5
2.5
2.44315
2.44847
2.47586
2.54253
2.64955
2.7808
2.91367
3.02911
3.11552
3.16803
3.18553
3.16803
3.11552
3.02908
2.91361
2.78065
2.64939
2.54296
2.47879
2.45781
2.46426
2.47886
2.49055
2.49693
2.4995
2.50019
2.50022
2.50012
2.50005
2.50002
2.5
2.5
2.5
2.5
2.5
2.5
2.5
2.5
2.5
2.5
2.43817
2.45069
2.49271
2.57895
2.70558
2.85242
2.99526
3.11552
3.20326
3.2555
3.27271
3.2555
3.20325
3.1155
2.9952
2.85227
2.70546
2.57962
2.49645
2.46187
2.46213
2.4758
2.4885
2.49595
2.49915
2.50011
2.50022
2.50014
2.50006
2.50002
2.5
2.5
2.5
2.5
2.5
2.5
2.5
2.5
2.5
2.5
2.43586
2.45362
2.50564
2.60435
2.74271
2.89823
3.04602
3.16803
3.2555
3.30683
3.3236
3.30683
3.25549
3.168
3.04595
2.89808
2.74261
2.60518
2.50989
2.46596
2.46144
2.474
2.48718
2.49529
2.4989
2.50005
2.50022
2.50014
2.50006
2.50002
2.50001
2.5
2.5
2.5
2.5
2.5
2.5
2.5
2.5
2.5
2.43524
2.4549
2.51044
2.61341
2.75564
2.91391
3.06315
3.18553
3.27271
3.3236
3.34016
3.3236
3.27271
3.1855
3.06308
2.91376
2.75555
2.6143
2.51487
2.46763
2.46134
2.47342
2.48672
2.49505
2.49881
2.50002
2.50022
2.50015
2.50006
2.50002
2.5
2.5
2.5
2.5
2.5
2.5
2.5
2.5
2.5
2.5
2.43587
2.45362
2.50564
2.60435
2.74271
2.89823
3.04602
3.16803
3.2555
3.30683
3.3236
3.30683
3.25549
3.168
3.04595
2.89808
2.74261
2.60518
2.50989
2.46596
2.46144
2.474
2.48718
2.49529
2.4989
2.50005
2.50022
2.50014
2.50006
2.50001
2.5
2.49999
2.49999
2.49999
2.5
2.5
2.5
2.5
2.5
2.5
2.43817
2.45069
2.49271
2.57895
2.70558
2.85242
2.99526
3.11552
3.20325
3.25549
3.27271
3.25549
3.20325
3.1155
2.99519
2.85227
2.70546
2.57962
2.49645
2.46187
2.46213
2.4758
2.4885
2.49595
2.49915
2.5001
2.50021
2.50012
2.50004
2.5
2.49998
2.49998
2.49998
2.49998
2.49999
2.49999
2.49999
2.5
2.5
2.5
2.44315
2.44847
2.47585
2.54252
2.64954
2.78078
2.91365
3.02908
3.1155
3.168
3.1855
3.168
3.1155
3.02906
2.91359
2.78063
2.64938
2.54296
2.47879
2.45781
2.46426
2.47886
2.49054
2.49691
2.49948
2.50016
2.50018
2.50008
2.5
2.49996
2.49994
2.49994
2.49994
2.49995
2.49996
2.49997
2.49998
2.49999
2.49999
2.5
2.45147
2.44965
2.46088
2.50349
2.58395
2.692
2.80817
2.91361
2.9952
3.04595
3.06308
3.04595
2.99519
2.91359
2.80811
2.69185
2.58375
2.50365
2.46286
2.45667
2.46855
2.48303
2.493
2.49798
2.49979
2.50018
2.50012
2.50001
2.49993
2.4999
2.49989
2.49989
2.49989
2.4999
2.49991
2.49992
2.49994
2.49996
2.49998
2.49998
2.4626
2.45571
2.45321
2.47169
2.52169
2.59988
2.69191
2.78065
2.85227
2.89808
2.91376
2.89808
2.85227
2.78063
2.69185
2.59974
2.52145
2.4716
2.45424
2.46027
2.47493
2.48778
2.49548
2.49893
2.50002
2.50015
2.50004
2.49995
2.49991
2.49991
2.49991
2.4999
2.49988
2.49987
2.49986
2.49986
2.49988
2.49991
2.49993
2.49995
2.47472
2.46591
2.4552
2.45479
2.47601
2.52158
2.58379
2.64939
2.70546
2.74261
2.75555
2.74261
2.70546
2.64938
2.58375
2.52145
2.47576
2.45452
2.45546
2.46828
2.48238
2.49233
2.49756
2.49962
2.50013
2.50013
2.50008
2.50009
2.50016
2.50023
2.50025
2.50022
2.50014
2.50003
2.49993
2.49985
2.49982
2.49983
2.49985
2.49987
2.48554
2.47755
2.46484
2.45431
2.45474
2.4717
2.50369
2.54296
2.57962
2.60518
2.6143
2.60518
2.57962
2.54296
2.50365
2.4716
2.45452
2.45397
2.46461
2.47832
2.48936
2.49597
2.49902
2.50004
2.50027
2.50038
2.50059
2.5009
2.50122
2.50146
2.50155
2.50146
2.50121
2.50086
2.50048
2.50015
2.49991
2.49979
2.49974
2.49973
2.49346
2.48772
2.47726
2.46494
2.45563
2.45431
2.46288
2.47879
2.49645
2.50989
2.51487
2.50989
2.49645
2.47879
2.46286
2.45424
2.45546
2.46461
2.47682
2.48754
2.49468
2.49839
2.4999
2.50045
2.50086
2.50146
2.5023
2.50322
2.50403
2.50458
2.50477
2.50458
2.50402
2.50319
2.50223
2.50129
2.50053
2.5
2.49971
2.49959
2.49815
2.49477
2.48803
2.4786
2.46841
2.46032
2.45668
2.45781
2.46187
2.46596
2.46763
2.46596
2.46187
2.45781
2.45667
2.46027
2.46828
2.47832
2.48754
2.49418
2.49799
2.49978
2.50063
2.50142
2.50261
2.50427
2.50619
2.50803
2.50951
2.51044
2.51076
2.51045
2.50951
2.50802
2.50615
2.50415
2.50234
2.50094
2.50004
2.49962
2.50026
2.49863
2.49513
2.4896
2.48248
2.47497
2.46855
2.46426
2.46213
2.46144
2.46134
2.46144
2.46213
2.46426
2.46855
2.47493
2.48238
2.48936
2.49468
2.49799
2.49973
2.50074
2.50188
2.50372
2.5064
2.50962
2.51283
2.51552
2.51739
2.51843
2.51875
2.51843
2.51739
2.51551
2.5128
2.50952
2.50616
2.50328
2.50124
2.50021
2.50082
2.50021
2.49877
2.4962
2.49244
2.48782
2.48304
2.47886
2.4758
2.474
2.47342
2.474
2.4758
2.47886
2.48303
2.48778
2.49233
2.49597
2.49839
2.49978
2.50074
2.50206
2.50441
2.50805
2.51263
2.51731
2.52109
2.52336
2.52417
2.52417
2.52406
2.52417
2.52417
2.52334
2.52105
2.51721
2.51241
2.50767
2.50398
2.50199
2.5007
2.50056
2.50015
2.49925
2.4977
2.49554
2.49303
2.49055
2.4885
2.48718
2.48672
2.48718
2.4885
2.49054
2.493
2.49548
2.49756
2.49902
2.4999
2.50063
2.50188
2.50441
2.50867
2.51439
2.52041
2.52497
2.52656
2.52486
2.52106
2.51737
2.51587
2.51737
2.52106
2.52484
2.5265
2.52483
2.52018
2.51415
2.50873
2.50559
2.50042
2.50044
2.50042
2.50023
2.49978
2.49902
2.49802
2.49693
2.49595
2.49529
2.49505
2.49529
2.49595
2.49691
2.49798
2.49893
2.49962
2.50004
2.50045
2.50142
2.50372
2.50805
2.51439
2.52151
2.5268
2.52724
2.52086
2.50838
2.49347
2.48147
2.47688
2.48146
2.49346
2.50834
2.52077
2.52707
2.5266
2.52153
2.51535
2.51132
2.5002
2.50025
2.50031
2.50035
2.5003
2.50014
2.49985
2.4995
2.49915
2.4989
2.49881
2.4989
2.49915
2.49948
2.49979
2.50002
2.50013
2.50027
2.50086
2.50261
2.5064
2.51263
2.52041
2.5268
2.52712
2.51657
2.49307
2.45975
2.42499
2.39896
2.38937
2.39896
2.42496
2.45969
2.49294
2.51638
2.52702
2.52732
2.52274
2.51878
2.50008
2.50011
2.50016
2.50022
2.50027
2.50029
2.50026
2.50019
2.50011
2.50005
2.50002
2.50005
2.5001
2.50016
2.50018
2.50015
2.50013
2.50038
2.50146
2.50427
2.50962
2.51731
2.52497
2.52724
2.51657
2.48617
2.43483
2.37095
2.31039
2.26836
2.25354
2.26835
2.31035
2.37086
2.43467
2.486
2.51671
2.52852
2.52909
2.52679
2.50002
2.50004
2.50007
2.50011
2.50015
2.50019
2.50021
2.50022
2.50022
2.50022
2.50022
2.50022
2.50021
2.50018
2.50012
2.50004
2.50008
2.50059
2.5023
2.50619
2.51283
2.52109
2.52656
2.52086
2.49307
2.43483
2.34877
2.25326
2.17287
2.1228
2.10627
2.12279
2.17282
2.25315
2.34861
2.43474
2.49357
2.52312
2.53272
2.53389
2.5
2.50001
2.50002
2.50004
2.50006
2.50008
2.50011
2.50012
2.50014
2.50014
2.50015
2.50014
2.50012
2.50008
2.50001
2.49995
2.50009
2.5009
2.50322
2.50803
2.51552
2.52336
2.52486
2.50838
2.45975
2.37095
2.25326
2.1386
2.05576
2.01118
1.99778
2.01116
2.05571
2.13849
2.25312
2.371
2.46069
2.51169
2.533
2.53895
2.5
2.5
2.5
2.50001
2.50002
2.50003
2.50004
2.50005
2.50006
2.50006
2.50006
2.50006
2.50004
2.5
2.49993
2.49991
2.50016
2.50122
2.50403
2.50951
2.51739
2.52417
2.52106
2.49347
2.42499
2.31039
2.17287
2.05576
1.98412
1.9519
1.94346
1.95188
1.98407
2.05567
2.17278
2.3106
2.42635
2.49773
2.53081
2.54176
2.5
2.5
2.5
2.5
2.5
2.50001
2.50001
2.50002
2.50002
2.50002
2.50002
2.50001
2.5
2.49996
2.4999
2.49991
2.50023
2.50146
2.50458
2.51044
2.51843
2.52417
2.51737
2.48147
2.39896
2.26836
2.1228
2.01118
1.9519
1.92993
1.92525
1.92991
1.95185
2.0111
2.12275
2.26868
2.40064
2.48637
2.52816
2.54289
2.5
2.5
2.5
2.5
2.5
2.5
2.5
2.5
2.5
2.50001
2.5
2.5
2.49998
2.49994
2.49989
2.49991
2.50025
2.50155
2.50477
2.51076
2.51875
2.52406
2.51587
2.47688
2.38937
2.25354
2.10627
1.99778
1.94346
1.92525
1.9219
1.92523
1.94342
1.9977
2.10623
2.2539
2.39116
2.48201
2.52701
2.54314
2.5
2.5
2.5
2.5
2.5
2.5
2.5
2.5
2.5
2.5
2.5
2.49999
2.49998
2.49994
2.49989
2.4999
2.50022
2.50146
2.50458
2.51045
2.51843
2.52417
2.51737
2.48146
2.39896
2.26835
2.12279
2.01116
1.95188
1.92991
1.92523
1.92989
1.95184
2.01108
2.12273
2.26867
2.40063
2.48637
2.52816
2.54289
2.5
2.5
2.5
2.5
2.5
2.5
2.5
2.5
2.5
2.5
2.5
2.49999
2.49998
2.49994
2.49989
2.49988
2.50014
2.50121
2.50402
2.50951
2.51739
2.52417
2.52106
2.49346
2.42496
2.31035
2.17282
2.05571
1.98407
1.95185
1.94342
1.95184
1.98402
2.05562
2.17273
2.31056
2.42633
2.49772
2.53081
2.54176
2.5
2.5
2.5
2.5
2.5
2.5
2.5
2.5
2.5
2.5
2.5
2.49999
2.49998
2.49995
2.4999
2.49987
2.50003
2.50086
2.50319
2.50802
2.51551
2.52334
2.52484
2.50834
2.45969
2.37086
2.25315
2.13849
2.05567
2.0111
1.9977
2.01108
2.05562
2.13839
2.25301
2.37091
2.46063
2.51165
2.53297
2.53894
2.5
2.5
2.5
2.5
2.5
2.5
2.5
2.5
2.5
2.5
2.5
2.5
2.49999
2.49996
2.49991
2.49986
2.49993
2.50048
2.50223
2.50615
2.5128
2.52105
2.5265
2.52077
2.49294
2.43467
2.34861
2.25312
2.17278
2.12275
2.10623
2.12273
2.17273
2.25301
2.34845
2.43459
2.49344
2.52302
2.53266
2.53383
2.5
2.5
2.5
2.5
2.5
2.5
2.5
2.5
2.5
2.5
2.5
2.5
2.49999
2.49997
2.49992
2.49986
2.49985
2.50015
2.50129
2.50415
2.50952
2.51721
2.52483
2.52707
2.51638
2.486
2.43474
2.371
2.3106
2.26868
2.2539
2.26867
2.31056
2.37091
2.43459
2.48583
2.51651
2.52834
2.52894
2.52666
2.5
2.5
2.5
2.5
2.5
2.5
2.5
2.5
2.5
2.5
2.5
2.5
2.49999
2.49998
2.49994
2.49988
2.49982
2.49991
2.50053
2.50234
2.50616
2.51241
2.52018
2.5266
2.52702
2.51671
2.49357
2.46069
2.42635
2.40064
2.39116
2.40063
2.42633
2.46063
2.49344
2.51651
2.52692
2.5271
2.52248
2.51851
2.5
2.5
2.5
2.5
2.5
2.5
2.5
2.5
2.5
2.5
2.5
2.5
2.5
2.49999
2.49996
2.49991
2.49983
2.49979
2.5
2.50094
2.50328
2.50767
2.51415
2.52153
2.52732
2.52852
2.52312
2.51169
2.49773
2.48637
2.48201
2.48637
2.49772
2.51165
2.52302
2.52834
2.5271
2.52152
2.51506
2.51092
2.5
2.5
2.5
2.5
2.5
2.5
2.5
2.5
2.5
2.5
2.5
2.5
2.5
2.49999
2.49998
2.49993
2.49985
2.49974
2.49971
2.50004
2.50124
2.50398
2.50873
2.51535
2.52274
2.52909
2.53272
2.533
2.53081
2.52816
2.52701
2.52816
2.53081
2.53297
2.53266
2.52894
2.52248
2.51506
2.50877
2.50521
2.5
2.5
2.5
2.5
2.5
2.5
2.5
2.5
2.5
2.5
2.5
2.5
2.5
2.5
2.49998
2.49995
2.49987
2.49973
2.49959
2.49962
2.50021
2.50199
2.50559
2.51132
2.51878
2.52679
2.53389
2.53895
2.54176
2.54289
2.54314
2.54289
2.54176
2.53894
2.53383
2.52666
2.51851
2.51092
2.50521
2.5022
