# vtk DataFile Version 3.0
Brusselator Concentration Output
ASCII
DATASET STRUCTURED_POINTS
DIMENSIONS 40 40 1
ORIGIN 0.0 0.0 0.0
SPACING 0.005 0.005 1.0
POINT_DATA 1600
SCALARS C1 double 1
LOOKUP_TABLE default
1.0069
1.008
1.009
1.00791
1.0029
0.993415
0.980629
0.966962
0.955082
0.947111
0.944317
0.947112
0.955085
0.966972
0.980652
0.993456
1.00295
1.00789
1.00871
1.007
1.00451
1.00237
1.00099
1.00028
1.00001
0.999948
0.999956
0.999976
0.99999
0.999997
0.999999
1
1
1
1
1
1
1
1
1
1.008
1.00778
1.00578
0.999838
0.988698
0.973038
0.955286
0.938442
0.924984
0.916443
0.913531
0.916444
0.924988
0.938452
0.955308
0.97307
0.988705
0.9997
1.00521
1.00629
1.00496
1.00303
1.00148
1.00056
1.00013
0.999988
0.999964
0.999975
0.999988
0.999995
0.999999
1
1
1
1
1
1
1
1
1
1.009
1.00578
0.997534
0.982548
0.961246
0.936623
0.91272
0.892781
0.878449
0.870038
0.867292
0.87004
0.878454
0.892793
0.91274
0.936633
0.961168
0.982177
0.996466
1.00345
1.00503
1.00397
1.00233
1.00107
1.00037
1.00008
0.999986
0.999976
0.999985
0.999993
0.999998
0.999999
1
1
1
1
1
1
1
1
1.00791
0.999838
0.982548
0.956287
0.924527
0.892781
0.865889
0.846276
0.833955
0.827564
0.825638
0.827567
0.833961
0.846289
0.865903
0.892755
0.924326
0.955599
0.980854
0.996637
1.00345
1.00452
1.00326
1.00175
1.00073
1.00022
1.00003
0.999982
0.999983
0.999991
0.999996
0.999999
1
1
1
1
1
1
1
1
1.0029
0.988698
0.961246
0.924527
0.885606
0.851658
0.82702
0.812376
0.805643
0.803536
0.803207
0.803539
0.805651
0.812389
0.827024
0.851585
0.885256
0.923484
0.958947
0.984942
0.999117
1.00397
1.00394
1.00246
1.00116
1.00042
1.0001
0.999998
0.999982
0.999988
0.999995
0.999998
1
1
1
1
1
1
1
1
0.993415
0.973038
0.936623
0.892781
0.851658
0.820872
0.803399
0.797872
0.800006
0.804372
0.806424
0.804376
0.800015
0.797884
0.80339
0.820744
0.851146
0.891398
0.93387
0.969314
0.991853
1.00189
1.00406
1.00306
1.00162
1.00065
1.00019
1.00002
0.999986
0.999987
0.999993
0.999997
0.999999
1
1
1
1
1
1
1
0.980629
0.955286
0.91272
0.865889
0.82702
0.803399
0.796515
0.803176
0.816951
0.829882
0.835111
0.829886
0.816961
0.803188
0.796492
0.803211
0.82635
0.864213
0.909724
0.952214
0.982602
0.998414
1.00349
1.00342
1.00203
1.0009
1.00029
1.00006
0.999993
0.999986
0.999992
0.999997
0.999999
1
1
1
1
1
1
1
0.966962
0.938442
0.892781
0.846276
0.812376
0.797872
0.803176
0.823773
0.851193
0.874449
0.883574
0.874454
0.851204
0.823783
0.803137
0.797626
0.811563
0.844375
0.889736
0.936433
0.973039
0.994215
1.0024
1.00353
1.00235
1.00112
1.0004
1.00009
1
0.999987
0.999991
0.999996
0.999999
1
1
1
1
1
1
1
0.955082
0.924984
0.878449
0.833955
0.805643
0.800006
0.816951
0.851193
0.892464
0.926515
0.939778
0.926521
0.892476
0.851201
0.816897
0.799708
0.804714
0.831897
0.875471
0.924103
0.964902
0.990267
1.00115
1.00345
1.00255
1.00129
1.00049
1.00013
1.00001
0.999989
0.999991
0.999996
0.999999
1
1
1
1
1
1
1
0.947111
0.916443
0.870038
0.827564
0.803536
0.804372
0.829882
0.874449
0.926515
0.969158
0.985747
0.969164
0.926528
0.874456
0.829816
0.804039
0.80253
0.825416
0.867151
0.916404
0.959516
0.987483
1.00018
1.00332
1.00266
1.00139
1.00055
1.00015
1.00002
0.999991
0.999992
0.999997
1
1
1
1
1
1
1
1
0.944317
0.913531
0.867292
0.825638
0.803207
0.806424
0.835111
0.883574
0.939778
0.985747
1.00363
0.985753
0.939791
0.883581
0.835041
0.806077
0.802174
0.82346
0.864445
0.913803
0.957641
0.986484
0.999817
1.00326
1.00269
1.00143
1.00057
1.00016
1.00002
0.999994
0.999995
0.999999
1
1
1
1
1
1
1
1
0.947112
0.916444
0.87004
0.827567
0.803539
0.804376
0.829886
0.874454
0.926521
0.969164
0.985753
0.969171
0.926534
0.874461
0.82982
0.804042
0.802533
0.825419
0.867153
0.916406
0.959517
0.987485
1.00018
1.00332
1.00266
1.0014
1.00055
1.00016
1.00002
0.999995
0.999997
1
1
1.00001
1.00001
1.00001
1
1
1
1
0.955085
0.924988
0.878454
0.833961
0.805651
0.800015
0.816961
0.851204
0.892476
0.926528
0.939791
0.926534
0.892488
0.851212
0.816907
0.799717
0.804721
0.831904
0.875477
0.924108
0.964907
0.990272
1.00116
1.00345
1.00256
1.0013
1.00049
1.00013
1.00001
0.999988
0.99999
0.999996
1
1
1.00001
1.00001
1.00001
1.00001
1.00001
1.00001
0.966972
0.938452
0.892793
0.846289
0.812389
0.797884
0.803188
0.823783
0.851201
0.874456
0.883581
0.874461
0.851212
0.823792
0.803148
0.797638
0.811576
0.844388
0.889749
0.936445
0.973051
0.994227
1.00241
1.00354
1.00236
1.00112
1.00039
1.00007
0.999968
0.999945
0.999947
0.999955
0.999965
0.999977
0.99999
1
1.00001
1.00001
1.00001
1.00001
0.980652
0.955308
0.91274
0.865903
0.827024
0.80339
0.796492
0.803137
0.816897
0.829816
0.835041
0.82982
0.816907
0.803148
0.796468
0.803203
0.826355
0.864228
0.909746
0.952239
0.982627
0.998436
1.00351
1.00343
1.00201
1.00085
1.00021
0.99993
0.999832
0.999803
0.999801
0.999813
0.999838
0.999872
0.999911
0.999949
0.999981
1
1.00002
1.00002
0.993456
0.97307
0.936633
0.892755
0.851585
0.820744
0.803211
0.797626
0.799708
0.804039
0.806077
0.804042
0.799717
0.797638
0.803203
0.820616
0.851075
0.891374
0.933882
0.969348
0.991891
1.00192
1.00405
1.00301
1.00149
1.00044
0.999875
0.999618
0.999506
0.99946
0.99945
0.999471
0.99952
0.999594
0.999686
0.999784
0.999875
0.999948
0.999998
1.00002
1.00295
0.988705
0.961168
0.924326
0.885256
0.851146
0.82635
0.811563
0.804714
0.80253
0.802174
0.802533
0.804721
0.811576
0.826355
0.851075
0.884908
0.923287
0.958871
0.984942
0.999139
1.00396
1.00385
1.00223
1.00076
0.999814
0.999304
0.999046
0.998915
0.998853
0.998838
0.998863
0.998932
0.999049
0.999209
0.9994
0.999596
0.99977
0.999898
0.999965
1.00789
0.9997
0.982177
0.955599
0.923484
0.891398
0.864213
0.844375
0.831897
0.825416
0.82346
0.825419
0.831904
0.844388
0.864228
0.891374
0.923287
0.954912
0.980475
0.996466
1.00335
1.00436
1.00292
1.00112
0.999768
0.998944
0.998504
0.998298
0.998223
0.998209
0.998211
0.998217
0.998241
0.998317
0.998478
0.998729
0.999043
0.999362
0.999619
0.999763
1.00871
1.00521
0.996466
0.980854
0.958947
0.93387
0.909724
0.889736
0.875471
0.867151
0.864445
0.867153
0.875477
0.889749
0.909746
0.933882
0.958871
0.980475
0.995363
1.00279
1.00457
1.00341
1.00145
0.999753
0.998622
0.998037
0.997881
0.998013
0.998278
0.998518
0.998615
0.998525
0.998294
0.99804
0.997898
0.997964
0.998243
0.998648
0.999039
0.999275
1.007
1.00629
1.00345
0.996637
0.984942
0.969314
0.952214
0.936433
0.924103
0.916404
0.913803
0.916406
0.924108
0.936445
0.952239
0.969348
0.984942
0.996466
1.00279
1.00461
1.00367
1.00169
0.999765
0.998404
0.997778
0.997909
0.998696
0.999897
1.00116
1.00211
1.00246
1.00211
1.00117
0.999925
0.998734
0.997915
0.997615
0.997759
0.998105
0.99837
1.00451
1.00496
1.00503
1.00345
0.999117
0.991853
0.982602
0.973039
0.964902
0.959516
0.957641
0.959517
0.964907
0.973051
0.982627
0.991891
0.999139
1.00335
1.00457
1.00367
1.00177
0.999782
0.998298
0.997731
0.998377
1.00034
1.00342
1.00704
1.01043
1.01283
1.0137
1.01284
1.01045
1.00707
1.00346
1.00037
0.998288
0.997275
0.99702
0.997058
1.00237
1.00303
1.00397
1.00452
1.00397
1.00189
0.998414
0.994215
0.990267
0.987483
0.986484
0.987485
0.990272
0.994227
0.998436
1.00192
1.00396
1.00436
1.00341
1.00169
0.999782
0.998269
0.99777
0.99896
1.00238
1.0081
1.01553
1.02343
1.03035
1.03501
1.03665
1.03502
1.03036
1.02345
1.01555
1.00809
1.00222
0.998412
0.996437
0.99569
1.00099
1.00148
1.00233
1.00326
1.00394
1.00406
1.00349
1.0024
1.00115
1.00018
0.999817
1.00018
1.00116
1.00241
1.00351
1.00405
1.00385
1.00292
1.00145
0.999765
0.998298
0.99777
0.999221
1.00379
1.01219
1.02415
1.03814
1.05177
1.06275
1.06967
1.072
1.06967
1.06277
1.05179
1.03814
1.02405
1.01184
1.00291
0.997504
0.995077
1.00028
1.00056
1.00107
1.00175
1.00246
1.00306
1.00342
1.00353
1.00345
1.00332
1.00326
1.00332
1.00345
1.00354
1.00343
1.00301
1.00223
1.00112
0.999753
0.998404
0.997731
0.99896
1.00379
1.01382
1.02962
1.04979
1.07084
1.08867
1.10076
1.10711
1.109
1.10712
1.10077
1.08867
1.07078
1.04954
1.02896
1.01247
1.0016
0.996368
1.00001
1.00013
1.00037
1.00073
1.00116
1.00162
1.00203
1.00235
1.00255
1.00266
1.00269
1.00266
1.00256
1.00236
1.00201
1.00149
1.00076
0.999768
0.998622
0.997778
0.998377
1.00238
1.01219
1.02962
1.0542
1.08178
1.10538
1.11945
1.12387
1.12313
1.1222
1.12313
1.12387
1.11942
1.10523
1.08133
1.05318
1.02778
1.00974
1.00064
0.999948
0.999988
1.00008
1.00022
1.00042
1.00065
1.0009
1.00112
1.00129
1.00139
1.00143
1.0014
1.0013
1.00112
1.00085
1.00044
0.999814
0.998944
0.998037
0.997909
1.00034
1.0081
1.02415
1.04979
1.08178
1.11082
1.12588
1.12324
1.1096
1.09586
1.09031
1.09586
1.10958
1.12316
1.12562
1.11015
1.0804
1.04761
1.02192
1.00834
0.999956
0.999964
0.999986
1.00003
1.0001
1.00019
1.00029
1.0004
1.00049
1.00055
1.00057
1.00055
1.00049
1.00039
1.00021
0.999875
0.999304
0.998504
0.997881
0.998696
1.00342
1.01553
1.03814
1.07084
1.10538
1.12588
1.12027
1.09239
1.0577
1.03111
1.02135
1.0311
1.05767
1.09228
1.11991
1.12502
1.10375
1.06859
1.03672
1.01885
0.999976
0.999975
0.999976
0.999982
0.999998
1.00002
1.00006
1.00009
1.00013
1.00015
1.00016
1.00016
1.00013
1.00007
0.99993
0.999618
0.999046
0.998298
0.998013
0.999897
1.00704
1.02343
1.05177
1.08867
1.11945
1.12324
1.09239
1.04102
0.990364
0.955409
0.943141
0.955402
0.990324
1.04087
1.09197
1.12227
1.11774
1.08665
1.05164
1.03047
0.99999
0.999988
0.999985
0.999983
0.999982
0.999986
0.999993
1
1.00001
1.00002
1.00002
1.00002
1.00001
0.999968
0.999832
0.999506
0.998915
0.998223
0.998278
1.00116
1.01043
1.03035
1.06275
1.10076
1.12387
1.1096
1.0577
0.990364
0.930723
0.891813
0.878497
0.891803
0.930676
0.990195
1.05723
1.10858
1.12219
1.09914
1.06403
1.04094
0.999997
0.999995
0.999993
0.999991
0.999988
0.999987
0.999986
0.999987
0.999989
0.999991
0.999994
0.999995
0.999988
0.999945
0.999803
0.99946
0.998853
0.998209
0.998518
1.00211
1.01283
1.03501
1.06967
1.10711
1.12313
1.09586
1.03111
0.955409
0.891813
0.851528
0.837928
0.851517
0.891762
0.955231
1.03063
1.09484
1.12153
1.10586
1.07204
1.04816
0.999999
0.999999
0.999998
0.999996
0.999995
0.999993
0.999992
0.999991
0.999991
0.999992
0.999995
0.999997
0.99999
0.999947
0.999801
0.99945
0.998838
0.998211
0.998615
1.00246
1.0137
1.03665
1.072
1.109
1.1222
1.09031
1.02135
0.943141
0.878497
0.837928
0.824291
0.837917
0.878445
0.94296
1.02086
1.08929
1.12064
1.10789
1.07478
1.05072
1
1
0.999999
0.999999
0.999998
0.999997
0.999997
0.999996
0.999996
0.999997
0.999999
1
0.999996
0.999955
0.999813
0.999471
0.998863
0.998217
0.998525
1.00211
1.01284
1.03502
1.06967
1.10712
1.12313
1.09586
1.0311
0.955402
0.891803
0.851517
0.837917
0.851507
0.891752
0.955224
1.03062
1.09484
1.12154
1.10587
1.07204
1.04816
1
1
1
1
1
0.999999
0.999999
0.999999
0.999999
1
1
1
1
0.999965
0.999838
0.99952
0.998932
0.998241
0.998294
1.00117
1.01045
1.03036
1.06277
1.10077
1.12387
1.10958
1.05767
0.990324
0.930676
0.891762
0.878445
0.891752
0.930628
0.990155
1.05721
1.10857
1.1222
1.09916
1.06405
1.04095
1
1
1
1
1
1
1
1
1
1
1
1.00001
1
0.999977
0.999872
0.999594
0.999049
0.998317
0.99804
0.999925
1.00707
1.02345
1.05179
1.08867
1.11942
1.12316
1.09228
1.04087
0.990195
0.955231
0.94296
0.955224
0.990155
1.04072
1.09185
1.12219
1.11771
1.08665
1.05166
1.03049
1
1
1
1
1
1
1
1
1
1
1
1.00001
1.00001
0.99999
0.999911
0.999686
0.999209
0.998478
0.997898
0.998734
1.00346
1.01555
1.03814
1.07078
1.10523
1.12562
1.11991
1.09197
1.05723
1.03063
1.02086
1.03062
1.05721
1.09185
1.11955
1.12476
1.1036
1.06854
1.03672
1.01887
1
1
1
1
1
1
1
1
1
1
1
1.00001
1.00001
1
0.999949
0.999784
0.9994
0.998729
0.997964
0.997915
1.00037
1.00809
1.02405
1.04954
1.08133
1.11015
1.12502
1.12227
1.10858
1.09484
1.08929
1.09484
1.10857
1.12219
1.12476
1.10948
1.07995
1.04736
1.02181
1.00831
1
1
1
1
1
1
1
1
1
1
1
1
1.00001
1.00001
0.999981
0.999875
0.999596
0.999043
0.998243
0.997615
0.998288
1.00222
1.01184
1.02896
1.05318
1.0804
1.10375
1.11774
1.12219
1.12153
1.12064
1.12154
1.1222
1.11771
1.1036
1.07995
1.05215
1.02712
1.00935
1.00041
1
1
1
1
1
1
1
1
1
1
1
1
1.00001
1.00001
1
0.999948
0.99977
0.999362
0.998648
0.997759
0.997275
0.998412
1.00291
1.01247
1.02778
1.04761
1.06859
1.08665
1.09914
1.10586
1.10789
1.10587
1.09916
1.08665
1.06854
1.04736
1.02712
1.01108
1.00063
0.99565
1
1
1
1
1
1
1
1
1
1
1
1
1.00001
1.00001
1.00002
0.999998
0.999898
0.999619
0.999039
0.998105
0.99702
0.996437
0.997504
1.0016
1.00974
1.02192
1.03672
1.05164
1.06403
1.07204
1.07478
1.07204
1.06405
1.05166
1.03672
1.02181
1.00935
1.00063
0.995606
0.993456
1
1
1
1
1
1
1
1
1
1
1
1
1.00001
1.00001
1.00002
1.00002
0.999965
0.999763
0.999275
0.99837
0.997058
0.99569
0.995077
0.996368
1.00064
1.00834
1.01885
1.03047
1.04094
1.04816
1.05072
1.04816
1.04095
1.03049
1.01887
1.00831
1.00041
0.99565
0.993456
0.992759
SCALARS C2 double 1
LOOKUP_TABLE default
2.49269
2.48899
2.48273
2.47618
2.47231
2.47354
2.48044
2.49125
2.50268
2.51124
2.5144
2.51124
2.50268
2.49124
2.48041
2.47347
2.47216
2.47598
2.48263
2.48946
2.49473
2.49797
2.49955
2.50011
2.5002
2.50014
2.50007
2.50003
2.50001
2.5
2.5
2.5
2.5
2.5
2.5
2.5
2.5
2.5
2.5
2.5
2.48899
2.48578
2.4814
2.47941
2.48346
2.49534
2.51384
2.53524
2.55485
2.56846
2.57331
2.56846
2.55484
2.53523
2.5138
2.49526
2.48334
2.47931
2.48161
2.487
2.4925
2.49652
2.49879
2.4998
2.50011
2.50013
2.50008
2.50004
2.50001
2.5
2.5
2.5
2.5
2.5
2.5
2.5
2.5
2.5
2.5
2.5
2.48273
2.4814
2.48237
2.49104
2.51124
2.54274
2.58109
2.61967
2.65202
2.6733
2.68069
2.67329
2.65201
2.61965
2.58104
2.54266
2.51116
2.49116
2.48324
2.48411
2.4889
2.49386
2.49731
2.49914
2.49988
2.50008
2.50009
2.50005
2.50002
2.50001
2.5
2.5
2.5
2.5
2.5
2.5
2.5
2.5
2.5
2.5
2.47618
2.47941
2.49104
2.51732
2.56056
2.61686
2.67797
2.73472
2.77967
2.80814
2.81784
2.80814
2.77967
2.7347
2.67792
2.61679
2.56057
2.51781
2.49289
2.48416
2.48557
2.49059
2.49521
2.49811
2.49949
2.49998
2.50008
2.50006
2.50003
2.50001
2.5
2.5
2.5
2.5
2.5
2.5
2.5
2.5
2.5
2.5
2.47231
2.48346
2.51124
2.56056
2.63003
2.71136
2.79295
2.86418
2.91784
2.95055
2.96147
2.95055
2.91783
2.86415
2.7929
2.71131
2.63019
2.56153
2.5143
2.49046
2.48451
2.48763
2.49281
2.49676
2.4989
2.49979
2.50004
2.50007
2.50004
2.50002
2.50001
2.5
2.5
2.5
2.5
2.5
2.5
2.5
2.5
2.5
2.47354
2.49534
2.54274
2.61686
2.71136
2.8137
2.90987
2.98883
3.04483
3.07717
3.08759
3.07717
3.04482
2.9888
2.90982
2.81369
2.71169
2.61839
2.54707
2.50435
2.48722
2.48594
2.49056
2.49525
2.49817
2.49951
2.49997
2.50006
2.50005
2.50002
2.50001
2.5
2.5
2.5
2.5
2.5
2.5
2.5
2.5
2.5
2.48044
2.51384
2.58109
2.67797
2.79295
2.90987
3.01298
3.09153
3.14229
3.16867
3.17652
3.16866
3.14227
3.0915
3.01293
2.90991
2.79349
2.68007
2.5866
2.5243
2.49383
2.48605
2.48887
2.49381
2.49737
2.49918
2.49987
2.50005
2.50005
2.50003
2.50001
2.5
2.5
2.5
2.5
2.5
2.5
2.5
2.5
2.5
2.49125
2.53524
2.61967
2.73472
2.86418
2.98883
3.09153
3.16215
3.20058
3.21573
3.21903
3.21572
3.20057
3.16211
3.09149
2.98892
2.86491
2.73734
2.62613
2.5465
2.50287
2.48776
2.48794
2.49262
2.49663
2.49885
2.49976
2.50002
2.50005
2.50003
2.50001
2.5
2.5
2.5
2.5
2.5
2.5
2.5
2.5
2.5
2.50268
2.55485
2.65202
2.77967
2.91784
3.04483
3.14229
3.20058
3.22285
3.22389
3.22155
3.22389
3.22283
3.20055
3.14226
3.04499
2.91874
2.7827
2.65916
2.56638
2.51195
2.49022
2.48765
2.49179
2.49604
2.49856
2.49965
2.49999
2.50005
2.50003
2.50001
2.5
2.5
2.5
2.5
2.5
2.5
2.5
2.5
2.5
2.51124
2.56846
2.6733
2.80814
2.95055
3.07717
3.16867
3.21573
3.22389
3.2128
3.20561
3.21279
3.22387
3.21569
3.16865
3.07736
2.95157
2.81144
2.68083
2.58
2.51858
2.49231
2.48768
2.49132
2.49566
2.49836
2.49958
2.49997
2.50005
2.50003
2.50001
2.5
2.5
2.5
2.5
2.5
2.5
2.5
2.5
2.5
2.5144
2.57331
2.68069
2.81784
2.96147
3.08759
3.17652
3.21903
3.22155
3.20561
3.19649
3.2056
3.22153
3.21899
3.17651
3.0878
2.96253
2.82123
2.68835
2.58483
2.521
2.49312
2.48773
2.49117
2.49553
2.49829
2.49955
2.49996
2.50004
2.50003
2.50001
2.5
2.5
2.5
2.5
2.5
2.5
2.5
2.5
2.5
2.51124
2.56846
2.67329
2.80814
2.95055
3.07717
3.16866
3.21572
3.22389
3.21279
3.2056
3.21278
3.22386
3.21568
3.16865
3.07736
2.95157
2.81143
2.68083
2.58
2.51858
2.49231
2.48768
2.49132
2.49565
2.49836
2.49957
2.49996
2.50003
2.50002
2.5
2.49999
2.49999
2.49999
2.49999
2.49999
2.49999
2.5
2.5
2.5
2.50268
2.55484
2.65201
2.77967
2.91783
3.04482
3.14227
3.20057
3.22283
3.22387
3.22153
3.22386
3.22281
3.20053
3.14224
3.04497
2.91873
2.7827
2.65915
2.56637
2.51195
2.49022
2.48764
2.49178
2.49602
2.49854
2.49963
2.49997
2.50002
2.50001
2.49999
2.49998
2.49998
2.49998
2.49998
2.49998
2.49998
2.49999
2.49999
2.49999
2.49124
2.53523
2.61965
2.7347
2.86415
2.9888
3.0915
3.16211
3.20055
3.21569
3.21899
3.21568
3.20053
3.16207
3.09146
2.98889
2.86488
2.73731
2.62611
2.54648
2.50286
2.48774
2.48792
2.49259
2.4966
2.49881
2.49972
2.49999
2.50003
2.50002
2.5
2.49999
2.49998
2.49997
2.49997
2.49997
2.49997
2.49997
2.49998
2.49998
2.48041
2.5138
2.58104
2.67792
2.7929
2.90982
3.01293
3.09149
3.14226
3.16865
3.17651
3.16865
3.14224
3.09146
3.01288
2.90985
2.79343
2.68002
2.58655
2.52426
2.49379
2.48601
2.48883
2.49376
2.49733
2.49916
2.49988
2.50009
2.50013
2.50013
2.50013
2.50011
2.50008
2.50005
2.50001
2.49998
2.49996
2.49995
2.49995
2.49995
2.47347
2.49526
2.54266
2.61679
2.71131
2.81369
2.90991
2.98892
3.04499
3.07736
3.0878
3.07736
3.04497
2.98889
2.90985
2.81367
2.71164
2.61831
2.54699
2.50427
2.48714
2.48586
2.4905
2.49522
2.49819
2.49963
2.5002
2.50041
2.50051
2.50056
2.50057
2.50054
2.50046
2.50035
2.50023
2.50012
2.50002
2.49996
2.49993
2.49992
2.47216
2.48334
2.51116
2.56057
2.63019
2.71169
2.79349
2.86491
2.91874
2.95157
2.96253
2.95157
2.91873
2.86488
2.79343
2.71164
2.63034
2.56154
2.51421
2.49033
2.48437
2.48753
2.49279
2.49686
2.49921
2.50037
2.50093
2.50126
2.50148
2.50162
2.50167
2.5016
2.50144
2.50119
2.50089
2.50058
2.50031
2.5001
2.49996
2.4999
2.47598
2.47931
2.49116
2.51781
2.56153
2.61839
2.68007
2.73734
2.7827
2.81144
2.82123
2.81143
2.7827
2.73731
2.68002
2.61831
2.56154
2.51828
2.493
2.48407
2.48542
2.49054
2.49539
2.49867
2.50058
2.50169
2.50243
2.50297
2.50337
2.50361
2.50369
2.5036
2.50334
2.50291
2.50234
2.50171
2.50108
2.50056
2.50019
2.5
2.48263
2.48161
2.48324
2.49289
2.5143
2.54707
2.5866
2.62613
2.65916
2.68083
2.68835
2.68083
2.65915
2.62611
2.58655
2.54699
2.51421
2.493
2.48412
2.48439
2.48898
2.49413
2.49812
2.50079
2.50258
2.50388
2.50485
2.50553
2.50595
2.50615
2.50621
2.50614
2.50593
2.50548
2.50475
2.50378
2.50269
2.50166
2.50087
2.50045
2.48946
2.487
2.48411
2.48416
2.49046
2.50435
2.5243
2.5465
2.56638
2.58
2.58483
2.58
2.56637
2.54648
2.52426
2.50427
2.49033
2.48407
2.48439
2.48843
2.4934
2.4977
2.50096
2.50343
2.50533
2.5067
2.50746
2.5076
2.50733
2.50696
2.50679
2.50695
2.50731
2.50756
2.50737
2.50656
2.50523
2.50369
2.50236
2.5016
2.49473
2.4925
2.4889
2.48557
2.48451
2.48722
2.49383
2.50287
2.51195
2.51858
2.521
2.51858
2.51195
2.50286
2.49379
2.48714
2.48437
2.48542
2.48898
2.4934
2.49754
2.50106
2.50402
2.50647
2.50811
2.50854
2.50749
2.50523
2.50251
2.50032
2.49948
2.50032
2.50249
2.50519
2.50741
2.5084
2.50797
2.50654
2.5049
2.50384
2.49797
2.49652
2.49386
2.49059
2.48763
2.48594
2.48605
2.48776
2.49022
2.49231
2.49312
2.49231
2.49022
2.48774
2.48601
2.48586
2.48753
2.49054
2.49413
2.4977
2.50106
2.50424
2.50708
2.50892
2.50871
2.50553
2.49925
2.49091
2.48253
2.47636
2.47409
2.47635
2.48251
2.49087
2.49917
2.50542
2.50866
2.50919
2.50825
2.50731
2.49955
2.49879
2.49731
2.49521
2.49281
2.49056
2.48887
2.48794
2.48765
2.48768
2.48773
2.48768
2.48764
2.48792
2.48883
2.4905
2.49279
2.49539
2.49812
2.50096
2.50402
2.50708
2.50918
2.50852
2.50303
2.49144
2.47435
2.4546
2.43641
2.42375
2.41923
2.42374
2.43639
2.45456
2.47428
2.49141
2.50321
2.50933
2.51134
2.51155
2.50011
2.4998
2.49914
2.49811
2.49676
2.49525
2.49381
2.49262
2.49179
2.49132
2.49117
2.49132
2.49178
2.49259
2.49376
2.49522
2.49686
2.49867
2.50079
2.50343
2.50647
2.50892
2.50852
2.5019
2.48588
2.45937
2.42516
2.38953
2.35952
2.3401
2.33346
2.34009
2.35949
2.38948
2.42513
2.45949
2.48646
2.50358
2.51217
2.5153
2.5002
2.50011
2.49988
2.49949
2.4989
2.49817
2.49737
2.49663
2.49604
2.49566
2.49553
2.49565
2.49602
2.4966
2.49733
2.49819
2.49921
2.50058
2.50258
2.50533
2.50811
2.50871
2.50303
2.48588
2.45332
2.40629
2.3525
2.30342
2.26754
2.24711
2.24065
2.24709
2.26751
2.30339
2.35255
2.40664
2.4545
2.48868
2.50836
2.51672
2.50014
2.50013
2.50008
2.49998
2.49979
2.49951
2.49918
2.49885
2.49856
2.49836
2.49829
2.49836
2.49854
2.49881
2.49916
2.49963
2.50037
2.50169
2.50388
2.5067
2.50854
2.50553
2.49144
2.45937
2.40629
2.33866
2.27261
2.2237
2.19636
2.18503
2.1823
2.18502
2.19633
2.22371
2.27278
2.33933
2.40816
2.46338
2.49822
2.51411
2.50007
2.50008
2.50009
2.50008
2.50004
2.49997
2.49987
2.49976
2.49965
2.49958
2.49955
2.49957
2.49963
2.49972
2.49988
2.5002
2.50093
2.50243
2.50485
2.50746
2.50749
2.49925
2.47435
2.42516
2.3525
2.27261
2.2102
2.17861
2.17217
2.17636
2.17921
2.17635
2.17216
2.17866
2.2105
2.27362
2.35506
2.43021
2.48201
2.50691
2.50003
2.50004
2.50005
2.50006
2.50007
2.50006
2.50005
2.50002
2.49999
2.49997
2.49996
2.49996
2.49997
2.49999
2.50009
2.50041
2.50126
2.50297
2.50553
2.5076
2.50523
2.49091
2.4546
2.38953
2.30342
2.2237
2.17861
2.17273
2.18955
2.2088
2.21675
2.20879
2.18955
2.17281
2.17902
2.22498
2.30651
2.39528
2.46244
2.49631
2.50001
2.50001
2.50002
2.50003
2.50004
2.50005
2.50005
2.50005
2.50005
2.50005
2.50004
2.50003
2.50002
2.50003
2.50013
2.50051
2.50148
2.50337
2.50595
2.50733
2.50251
2.48253
2.43641
2.35952
2.26754
2.19636
2.17217
2.18955
2.22465
2.25484
2.26637
2.25484
2.22466
2.18966
2.17265
2.19781
2.27095
2.36561
2.44388
2.48508
2.5
2.5
2.50001
2.50001
2.50002
2.50002
2.50003
2.50003
2.50003
2.50003
2.50003
2.50002
2.50001
2.50002
2.50013
2.50056
2.50162
2.50361
2.50615
2.50696
2.50032
2.47636
2.42375
2.3401
2.24711
2.18503
2.17636
2.2088
2.25484
2.29129
2.30483
2.29129
2.25486
2.20892
2.17689
2.18658
2.25067
2.34629
2.43072
2.47657
2.5
2.5
2.5
2.5
2.50001
2.50001
2.50001
2.50001
2.50001
2.50001
2.50001
2.5
2.49999
2.5
2.50013
2.50057
2.50167
2.50369
2.50621
2.50679
2.49948
2.47409
2.41923
2.33346
2.24065
2.1823
2.17921
2.21675
2.26637
2.30483
2.319
2.30482
2.26639
2.21688
2.17975
2.18387
2.24425
2.33965
2.42598
2.4734
2.5
2.5
2.5
2.5
2.5
2.5
2.5
2.5
2.5
2.5
2.5
2.49999
2.49998
2.49999
2.50011
2.50054
2.5016
2.5036
2.50614
2.50695
2.50032
2.47635
2.42374
2.34009
2.24709
2.18502
2.17635
2.20879
2.25484
2.29129
2.30482
2.29128
2.25485
2.20892
2.17687
2.18656
2.25065
2.34628
2.43071
2.47656
2.5
2.5
2.5
2.5
2.5
2.5
2.5
2.5
2.5
2.5
2.5
2.49999
2.49998
2.49998
2.50008
2.50046
2.50144
2.50334
2.50593
2.50731
2.50249
2.48251
2.43639
2.35949
2.26751
2.19633
2.17216
2.18955
2.22466
2.25486
2.26639
2.25485
2.22467
2.18966
2.17264
2.19779
2.27092
2.36558
2.44385
2.48506
2.5
2.5
2.5
2.5
2.5
2.5
2.5
2.5
2.5
2.5
2.5
2.49999
2.49998
2.49997
2.50005
2.50035
2.50119
2.50291
2.50548
2.50756
2.50519
2.49087
2.45456
2.38948
2.30339
2.22371
2.17866
2.17281
2.18966
2.20892
2.21688
2.20892
2.18966
2.1729
2.17906
2.22498
2.30647
2.39523
2.46239
2.49626
2.5
2.5
2.5
2.5
2.5
2.5
2.5
2.5
2.5
2.5
2.5
2.49999
2.49998
2.49997
2.50001
2.50023
2.50089
2.50234
2.50475
2.50737
2.50741
2.49917
2.47428
2.42513
2.35255
2.27278
2.2105
2.17902
2.17265
2.17689
2.17975
2.17687
2.17264
2.17906
2.21079
2.27378
2.3551
2.43018
2.48194
2.50682
2.5
2.5
2.5
2.5
2.5
2.5
2.5
2.5
2.5
2.5
2.5
2.49999
2.49998
2.49997
2.49998
2.50012
2.50058
2.50171
2.50378
2.50656
2.5084
2.50542
2.49141
2.45949
2.40664
2.33933
2.27362
2.22498
2.19781
2.18658
2.18387
2.18656
2.19779
2.22498
2.27378
2.34
2.4085
2.46348
2.49818
2.51401
2.5
2.5
2.5
2.5
2.5
2.5
2.5
2.5
2.5
2.5
2.5
2.49999
2.49998
2.49997
2.49996
2.50002
2.50031
2.50108
2.50269
2.50523
2.50797
2.50866
2.50321
2.48646
2.4545
2.40816
2.35506
2.30651
2.27095
2.25067
2.24425
2.25065
2.27092
2.30647
2.3551
2.4085
2.45565
2.48925
2.50854
2.51672
2.5
2.5
2.5
2.5
2.5
2.5
2.5
2.5
2.5
2.5
2.5
2.5
2.49999
2.49997
2.49995
2.49996
2.5001
2.50056
2.50166
2.50369
2.50654
2.50919
2.50933
2.50358
2.48868
2.46338
2.43021
2.39528
2.36561
2.34629
2.33965
2.34628
2.36558
2.39523
2.43018
2.46348
2.48925
2.50527
2.51304
2.51574
2.5
2.5
2.5
2.5
2.5
2.5
2.5
2.5
2.5
2.5
2.5
2.5
2.49999
2.49998
2.49995
2.49993
2.49996
2.50019
2.50087
2.50236
2.5049
2.50825
2.51134
2.51217
2.50836
2.49822
2.48201
2.46244
2.44388
2.43072
2.42598
2.43071
2.44385
2.46239
2.48194
2.49818
2.50854
2.51304
2.51369
2.51313
2.5
2.5
2.5
2.5
2.5
2.5
2.5
2.5
2.5
2.5
2.5
2.5
2.49999
2.49998
2.49995
2.49992
2.4999
2.5
2.50045
2.5016
2.50384
2.50731
2.51155
2.5153
2.51672
2.51411
2.50691
2.49631
2.48508
2.47657
2.4734
2.47656
2.48506
2.49626
2.50682
2.51401
2.51672
2.51574
2.51313
2.51112
