# vtk DataFile Version 3.0
Brusselator Concentration Output
ASCII
DATASET STRUCTURED_POINTS
DIMENSIONS 40 40 1
ORIGIN 0.0 0.0 0.0
SPACING 0.005 0.005 1.0
POINT_DATA 1600
SCALARS C1 double 1
LOOKUP_TABLE default
1.00001
1.00006
1.0002
1.00046
1.00083
1.00125
1.00156
1.00168
1.0016
1.00146
1.00139
1.00146
1.0016
1.00168
1.00156
1.00125
1.00083
1.00046
1.00021
1.00007
1.00001
0.999996
0.999995
0.999997
0.999999
0.999999
1
1
1
1
1
1
1
1
1
1
1
1
1
1
1.00006
1.00017
1.00041
1.00077
1.00116
1.00137
1.00117
1.0005
0.999564
0.998766
0.998454
0.998766
0.999564
1.0005
1.00117
1.00137
1.00116
1.00077
1.00041
1.00017
1.00005
1.00001
0.999997
0.999997
0.999998
0.999999
1
1
1
1
1
1
1
1
1
1
1
1
1
1
1.0002
1.00041
1.00079
1.00122
1.00133
1.00063
0.998742
0.995873
0.992803
0.990495
0.989646
0.990495
0.992803
0.995873
0.998742
1.00063
1.00134
1.00122
1.00079
1.0004
1.00016
1.00005
1.00001
0.999998
0.999998
0.999999
1
1
1
1
1
1
1
1
1
1
1
1
1
1
1.00046
1.00077
1.00122
1.00134
1.00024
0.997
0.991367
0.984348
0.977754
0.973214
0.971618
0.973214
0.977754
0.984348
0.991367
0.997
1.00025
1.00134
1.00121
1.00073
1.00034
1.00012
1.00003
1
0.999998
0.999998
0.999999
1
1
1
1
1
1
1
1
1
1
1
1
1
1.00083
1.00116
1.00133
1.00024
0.996252
0.988182
0.97665
0.96423
0.953924
0.947506
0.945379
0.947506
0.953924
0.96423
0.97665
0.988183
0.996254
1.00024
1.00132
1.00108
1.00059
1.00024
1.00008
1.00002
1
0.999998
0.999999
1
1
1
1
1
1
1
1
1
1
1
1
1
1.00125
1.00137
1.00063
0.997
0.988182
0.973526
0.955564
0.938898
0.927124
0.92094
0.919135
0.92094
0.927124
0.938898
0.955564
0.973527
0.988183
0.996994
1.00059
1.00122
1.00084
1.0004
1.00015
1.00004
1.00001
0.999999
0.999999
0.999999
1
1
1
1
1
1
1
1
1
1
1
1
1.00156
1.00117
0.998742
0.991367
0.97665
0.955564
0.933325
0.916279
0.907477
0.905081
0.904964
0.905081
0.907477
0.916279
0.933325
0.955565
0.976649
0.991353
0.998672
1.00094
1.001
1.00056
1.00023
1.00007
1.00001
1
0.999999
0.999999
1
1
1
1
1
1
1
1
1
1
1
1
1.00168
1.0005
0.995873
0.984348
0.96423
0.938898
0.916279
0.903776
0.902979
0.908339
0.911452
0.90834
0.902979
0.903777
0.916279
0.938899
0.964227
0.984322
0.995769
1.00019
1.001
1.00068
1.00031
1.0001
1.00003
1
0.999999
0.999999
1
1
1
1
1
1
1
1
1
1
1
1
1.0016
0.999564
0.992803
0.977754
0.953924
0.927124
0.907477
0.902979
0.913567
0.929484
0.936969
0.929484
0.913568
0.902979
0.907478
0.927124
0.953918
0.977719
0.992669
0.999192
1.00085
1.00075
1.00037
1.00014
1.00004
1.00001
0.999999
0.999999
1
1
1
1
1
1
1
1
1
1
1
1
1.00146
0.998766
0.990495
0.973214
0.947506
0.92094
0.905081
0.908339
0.929484
0.955215
0.966796
0.955215
0.929484
0.90834
0.905082
0.92094
0.947498
0.973171
0.990341
0.998356
1.00069
1.00077
1.00041
1.00016
1.00004
1.00001
1
0.999999
1
1
1
1
1
1
1
1
1
1
1
1
1.00139
0.998454
0.989646
0.971618
0.945379
0.919135
0.904964
0.911452
0.936969
0.966796
0.980096
0.966796
0.936969
0.911453
0.904964
0.919135
0.94537
0.971572
0.989484
0.998032
1.00061
1.00077
1.00042
1.00016
1.00005
1.00001
1
0.999999
1
1
1
1
1
1
1
1
1
1
1
1
1.00146
0.998766
0.990495
0.973214
0.947506
0.92094
0.905081
0.90834
0.929484
0.955215
0.966796
0.955215
0.929484
0.90834
0.905082
0.92094
0.947498
0.973171
0.990341
0.998356
1.00069
1.00077
1.00041
1.00016
1.00004
1.00001
1
0.999999
1
1
1
1
1
1
1
1
1
1
1
1
1.0016
0.999564
0.992803
0.977754
0.953924
0.927124
0.907477
0.902979
0.913568
0.929484
0.936969
0.929484
0.913568
0.902979
0.907478
0.927124
0.953918
0.977719
0.992669
0.999192
1.00085
1.00075
1.00037
1.00014
1.00004
1.00001
1
0.999999
1
1
1
1
1
1
1
1
1
1
1
1
1.00168
1.0005
0.995873
0.984348
0.96423
0.938898
0.916279
0.903777
0.902979
0.90834
0.911453
0.90834
0.902979
0.903777
0.91628
0.938899
0.964227
0.984323
0.995769
1.00019
1.001
1.00068
1.00031
1.0001
1.00003
1
0.999999
1
1
1
1
1
1
1
1
1
1
1
1
1
1.00156
1.00117
0.998742
0.991367
0.97665
0.955564
0.933325
0.916279
0.907478
0.905082
0.904964
0.905082
0.907478
0.91628
0.933326
0.955565
0.97665
0.991353
0.998672
1.00094
1.001
1.00056
1.00023
1.00007
1.00001
1
0.999999
1
1
1
1
1
1
1
1
1
1
1
1
1
1.00125
1.00137
1.00063
0.997
0.988183
0.973527
0.955565
0.938899
0.927124
0.92094
0.919135
0.92094
0.927124
0.938899
0.955565
0.973529
0.988185
0.996995
1.00059
1.00122
1.00084
1.0004
1.00015
1.00004
1.00001
1
0.999999
0.999999
0.999999
0.999998
0.999998
0.999998
0.999999
1
1
1
1
1
1
1
1.00083
1.00116
1.00134
1.00025
0.996254
0.988183
0.976649
0.964227
0.953918
0.947498
0.94537
0.947498
0.953918
0.964227
0.97665
0.988185
0.996256
1.00025
1.00132
1.00108
1.00059
1.00024
1.00008
1.00002
1
0.999997
0.999995
0.999992
0.999989
0.999986
0.999985
0.999986
0.999989
0.999993
0.999996
0.999999
1
1
1
1
1.00046
1.00077
1.00122
1.00134
1.00024
0.996994
0.991353
0.984322
0.977719
0.973171
0.971572
0.973171
0.977719
0.984323
0.991353
0.996995
1.00025
1.00134
1.00122
1.00074
1.00034
1.00012
1.00003
1
0.999994
0.999987
0.999977
0.999965
0.999953
0.999945
0.999942
0.999945
0.999953
0.999965
0.999978
0.999989
0.999996
1
1
1
1.00021
1.00041
1.00079
1.00121
1.00132
1.00059
0.998672
0.995769
0.992669
0.990341
0.989484
0.990341
0.992669
0.995769
0.998672
1.00059
1.00132
1.00122
1.00079
1.0004
1.00016
1.00005
1.00001
0.99999
0.999974
0.99995
0.999919
0.999886
0.999858
0.99984
0.999834
0.99984
0.999858
0.999886
0.99992
0.999952
0.999976
0.999992
1
1
1.00007
1.00017
1.0004
1.00073
1.00108
1.00122
1.00094
1.00019
0.999192
0.998356
0.998032
0.998356
0.999192
1.00019
1.00094
1.00122
1.00108
1.00074
1.0004
1.00018
1.00006
1.00001
0.999985
0.999958
0.999914
0.999852
0.999782
0.999719
0.999676
0.999654
0.999648
0.999654
0.999676
0.999719
0.999782
0.999853
0.999916
0.999962
0.999988
1
1.00001
1.00005
1.00016
1.00034
1.00059
1.00084
1.001
1.001
1.00085
1.00069
1.00061
1.00069
1.00085
1.001
1.001
1.00084
1.00059
1.00034
1.00016
1.00006
1.00001
0.999982
0.999945
0.999878
0.999776
0.999657
0.999553
0.999499
0.999499
0.999524
0.999538
0.999524
0.999499
0.999499
0.999554
0.999657
0.999778
0.999882
0.99995
0.999981
0.999996
1.00001
1.00005
1.00012
1.00024
1.0004
1.00056
1.00068
1.00075
1.00077
1.00077
1.00077
1.00075
1.00068
1.00056
1.0004
1.00024
1.00012
1.00005
1.00001
0.999982
0.99994
0.999855
0.999716
0.999543
0.999404
0.999387
0.999536
0.9998
1.00005
1.00015
1.00005
0.9998
0.999536
0.999387
0.999405
0.999545
0.999718
0.999856
0.999927
0.999995
0.999997
1.00001
1.00003
1.00008
1.00015
1.00023
1.00031
1.00037
1.00041
1.00042
1.00041
1.00037
1.00031
1.00023
1.00015
1.00008
1.00003
1.00001
0.999985
0.999945
0.999855
0.999693
0.999476
0.999308
0.999374
0.999848
1.00074
1.0018
1.00266
1.00299
1.00266
1.0018
1.00074
0.999848
0.999375
0.99931
0.999476
0.999681
0.999806
0.999997
0.999997
0.999998
1
1.00002
1.00004
1.00007
1.0001
1.00014
1.00016
1.00016
1.00016
1.00014
1.0001
1.00007
1.00004
1.00002
1
0.99999
0.999958
0.999878
0.999716
0.999476
0.999276
0.999406
1.00027
1.00211
1.00476
1.00754
1.00961
1.01037
1.00961
1.00754
1.00477
1.00211
1.00027
0.999407
0.999268
0.999438
0.999597
0.999999
0.999998
0.999998
0.999998
1
1.00001
1.00001
1.00003
1.00004
1.00004
1.00005
1.00004
1.00004
1.00003
1.00001
1.00001
1
0.999994
0.999974
0.999914
0.999776
0.999543
0.999308
0.999406
1.00046
1.00317
1.00774
1.01346
1.01884
1.02251
1.02379
1.02251
1.01884
1.01346
1.00774
1.00317
1.00046
0.999383
0.999224
0.999321
0.999999
0.999999
0.999999
0.999998
0.999998
0.999999
1
1
1.00001
1.00001
1.00001
1.00001
1.00001
1
1
1
0.999997
0.999987
0.99995
0.999852
0.999657
0.999404
0.999374
1.00027
1.00317
1.00901
1.01758
1.027
1.03468
1.03915
1.04053
1.03915
1.03468
1.027
1.01758
1.00901
1.00316
1.00022
0.999227
0.999062
1
1
1
0.999999
0.999999
0.999999
0.999999
0.999999
0.999999
1
1
1
1
0.999999
0.999999
0.999999
0.999995
0.999977
0.999919
0.999782
0.999553
0.999387
0.999848
1.00211
1.00774
1.01758
1.03024
1.04185
1.04881
1.05109
1.05135
1.05109
1.04881
1.04185
1.03024
1.01758
1.00772
1.00203
0.999629
0.99894
1
1
1
1
1
0.999999
0.999999
0.999999
0.999999
0.999999
0.999999
0.999999
0.999999
1
1
0.999999
0.999992
0.999965
0.999886
0.999719
0.999499
0.999536
1.00074
1.00476
1.01346
1.027
1.04185
1.05157
1.05264
1.04866
1.04632
1.04866
1.05264
1.05157
1.04185
1.027
1.01342
1.00465
1.00045
0.999035
1
1
1
1
1
1
1
1
1
1
1
1
1
1
1
0.999999
0.999989
0.999953
0.999858
0.999676
0.999499
0.9998
1.0018
1.00754
1.01884
1.03468
1.04881
1.05264
1.04434
1.03226
1.02683
1.03226
1.04434
1.05264
1.04881
1.03467
1.01879
1.0074
1.00148
0.999297
1
1
1
1
1
1
1
1
1
1
1
1
1
1
1
0.999998
0.999986
0.999945
0.99984
0.999654
0.999524
1.00005
1.00266
1.00961
1.02251
1.03915
1.05109
1.04866
1.03226
1.01393
1.00626
1.01394
1.03226
1.04866
1.05109
1.03914
1.02245
1.00945
1.00232
0.99957
1
1
1
1
1
1
1
1
1
1
1
1
1
1
1
0.999998
0.999985
0.999942
0.999834
0.999648
0.999538
1.00015
1.00299
1.01037
1.02379
1.04053
1.05135
1.04632
1.02683
1.00626
0.997792
1.00626
1.02683
1.04632
1.05135
1.04052
1.02373
1.0102
1.00264
0.999684
1
1
1
1
1
1
1
1
1
1
1
1
1
1
1
0.999998
0.999986
0.999945
0.99984
0.999654
0.999524
1.00005
1.00266
1.00961
1.02251
1.03915
1.05109
1.04866
1.03226
1.01394
1.00626
1.01394
1.03226
1.04866
1.05109
1.03914
1.02245
1.00945
1.00232
0.99957
1
1
1
1
1
1
1
1
1
1
1
1
1
1
1
0.999999
0.999989
0.999953
0.999858
0.999676
0.999499
0.9998
1.0018
1.00754
1.01884
1.03468
1.04881
1.05264
1.04434
1.03226
1.02683
1.03226
1.04434
1.05264
1.04881
1.03467
1.01879
1.0074
1.00148
0.999297
1
1
1
1
1
1
1
1
1
1
1
1
1
1
1
1
0.999993
0.999965
0.999886
0.999719
0.999499
0.999536
1.00074
1.00477
1.01346
1.027
1.04185
1.05157
1.05264
1.04866
1.04632
1.04866
1.05264
1.05157
1.04185
1.027
1.01342
1.00465
1.00046
0.999035
1
1
1
1
1
1
1
1
1
1
1
1
1
1
1
1
0.999996
0.999978
0.99992
0.999782
0.999554
0.999387
0.999848
1.00211
1.00774
1.01758
1.03024
1.04185
1.04881
1.05109
1.05135
1.05109
1.04881
1.04185
1.03024
1.01758
1.00772
1.00203
0.99963
0.998941
1
1
1
1
1
1
1
1
1
1
1
1
1
1
1
1
0.999999
0.999989
0.999952
0.999853
0.999657
0.999405
0.999375
1.00027
1.00317
1.00901
1.01758
1.027
1.03467
1.03914
1.04052
1.03914
1.03467
1.027
1.01758
1.00901
1.00316
1.00022
0.999228
0.999063
1
1
1
1
1
1
1
1
1
1
1
1
1
1
1
1
1
0.999996
0.999976
0.999916
0.999778
0.999545
0.99931
0.999407
1.00046
1.00316
1.00772
1.01342
1.01879
1.02245
1.02373
1.02245
1.01879
1.01342
1.00772
1.00316
1.00046
0.999383
0.999226
0.999323
1
1
1
1
1
1
1
1
1
1
1
1
1
1
1
1
1
1
0.999992
0.999962
0.999882
0.999718
0.999476
0.999268
0.999383
1.00022
1.00203
1.00465
1.0074
1.00945
1.0102
1.00945
1.0074
1.00465
1.00203
1.00022
0.999383
0.99926
0.999438
0.9996
1
1
1
1
1
1
1
1
1
1
1
1
1
1
1
1
1
1
1
0.999988
0.99995
0.999856
0.999681
0.999438
0.999224
0.999227
0.999629
1.00045
1.00148
1.00232
1.00264
1.00232
1.00148
1.00046
0.99963
0.999228
0.999226
0.999438
0.999669
0.999805
1
1
1
1
1
1
1
1
1
1
1
1
1
1
1
1
1
1
1
1
0.999981
0.999927
0.999806
0.999597
0.999321
0.999062
0.99894
0.999035
0.999297
0.99957
0.999684
0.99957
0.999297
0.999035
0.998941
0.999063
0.999323
0.9996
0.999805
0.999908
SCALARS C2 double 1
LOOKUP_TABLE default
2.50004
2.5
2.49988
2.49959
2.49906
2.49829
2.49739
2.49657
2.496
2.49569
2.4956
2.49569
2.496
2.49657
2.49739
2.49829
2.49906
2.49959
2.49988
2.49999
2.50002
2.50002
2.50001
2.5
2.5
2.5
2.5
2.5
2.5
2.5
2.5
2.5
2.5
2.5
2.5
2.5
2.5
2.5
2.5
2.5
2.5
2.4999
2.49961
2.49905
2.49818
2.49714
2.49625
2.49581
2.49588
2.49616
2.49632
2.49616
2.49588
2.49581
2.49625
2.49714
2.49818
2.49905
2.49961
2.49989
2.49999
2.50001
2.50001
2.50001
2.5
2.5
2.5
2.5
2.5
2.5
2.5
2.5
2.5
2.5
2.5
2.5
2.5
2.5
2.5
2.5
2.49988
2.49961
2.49898
2.49792
2.49659
2.49558
2.49563
2.49713
2.4996
2.50185
2.50275
2.50185
2.4996
2.49713
2.49563
2.49558
2.49659
2.49791
2.49897
2.4996
2.49989
2.49999
2.50001
2.50001
2.5
2.5
2.5
2.5
2.5
2.5
2.5
2.5
2.5
2.5
2.5
2.5
2.5
2.5
2.5
2.5
2.49959
2.49905
2.49792
2.49635
2.49515
2.49581
2.49969
2.5068
2.51517
2.52183
2.52434
2.52183
2.51517
2.5068
2.49969
2.4958
2.49515
2.49634
2.49791
2.49905
2.49967
2.49992
2.5
2.50001
2.50001
2.5
2.5
2.5
2.5
2.5
2.5
2.5
2.5
2.5
2.5
2.5
2.5
2.5
2.5
2.5
2.49906
2.49818
2.49659
2.49515
2.49597
2.50193
2.51477
2.53293
2.55163
2.56539
2.5704
2.56539
2.55163
2.53293
2.51477
2.50193
2.49596
2.49515
2.49659
2.49822
2.49928
2.49978
2.49996
2.5
2.50001
2.5
2.5
2.5
2.5
2.5
2.5
2.5
2.5
2.5
2.5
2.5
2.5
2.5
2.5
2.5
2.49829
2.49714
2.49558
2.49581
2.50193
2.5183
2.54587
2.57995
2.61205
2.63424
2.64206
2.63424
2.61205
2.57995
2.54587
2.51829
2.50193
2.4958
2.49559
2.49726
2.49873
2.49955
2.49989
2.49999
2.50001
2.50001
2.5
2.5
2.5
2.5
2.5
2.5
2.5
2.5
2.5
2.5
2.5
2.5
2.5
2.5
2.49739
2.49625
2.49563
2.49969
2.51477
2.54587
2.59165
2.64318
2.68816
2.71737
2.72726
2.71737
2.68816
2.64318
2.59165
2.54586
2.51477
2.49969
2.49567
2.49647
2.49813
2.49926
2.49978
2.49996
2.5
2.50001
2.5
2.5
2.5
2.5
2.5
2.5
2.5
2.5
2.5
2.5
2.5
2.5
2.5
2.5
2.49657
2.49581
2.49713
2.5068
2.53293
2.57995
2.64318
2.7091
2.76235
2.79411
2.80417
2.79411
2.76235
2.7091
2.64318
2.57995
2.53292
2.50681
2.49721
2.49616
2.49762
2.49895
2.49965
2.49992
2.49999
2.5
2.5
2.5
2.5
2.5
2.5
2.5
2.5
2.5
2.5
2.5
2.5
2.5
2.5
2.5
2.496
2.49588
2.4996
2.51517
2.55163
2.61205
2.68816
2.76235
2.81694
2.8452
2.85292
2.8452
2.81694
2.76235
2.68815
2.61205
2.55163
2.51519
2.49972
2.49634
2.49729
2.4987
2.49954
2.49988
2.49998
2.5
2.5
2.5
2.5
2.5
2.5
2.5
2.5
2.5
2.5
2.5
2.5
2.5
2.5
2.5
2.49569
2.49616
2.50185
2.52183
2.56539
2.63424
2.71737
2.79411
2.8452
2.86654
2.87066
2.86654
2.8452
2.79411
2.71736
2.63424
2.56539
2.52185
2.502
2.49671
2.49715
2.49854
2.49946
2.49985
2.49997
2.5
2.5
2.5
2.5
2.5
2.5
2.5
2.5
2.5
2.5
2.5
2.5
2.5
2.5
2.5
2.4956
2.49632
2.50275
2.52434
2.5704
2.64206
2.72726
2.80417
2.85292
2.87066
2.87297
2.87066
2.85292
2.80417
2.72726
2.64205
2.5704
2.52437
2.50291
2.49689
2.49711
2.49849
2.49943
2.49984
2.49997
2.5
2.5
2.5
2.5
2.5
2.5
2.5
2.5
2.5
2.5
2.5
2.5
2.5
2.5
2.5
2.49569
2.49616
2.50185
2.52183
2.56539
2.63424
2.71737
2.79411
2.8452
2.86654
2.87066
2.86654
2.8452
2.79411
2.71736
2.63424
2.56539
2.52185
2.502
2.49671
2.49715
2.49854
2.49946
2.49985
2.49997
2.5
2.5
2.5
2.5
2.5
2.5
2.5
2.5
2.5
2.5
2.5
2.5
2.5
2.5
2.5
2.496
2.49588
2.4996
2.51517
2.55163
2.61205
2.68816
2.76235
2.81694
2.8452
2.85292
2.8452
2.81694
2.76235
2.68815
2.61205
2.55163
2.51519
2.49972
2.49634
2.49729
2.4987
2.49954
2.49988
2.49998
2.5
2.5
2.5
2.5
2.5
2.5
2.5
2.5
2.5
2.5
2.5
2.5
2.5
2.5
2.5
2.49657
2.49581
2.49713
2.5068
2.53293
2.57995
2.64318
2.7091
2.76235
2.79411
2.80417
2.79411
2.76235
2.7091
2.64318
2.57995
2.53292
2.50681
2.49721
2.49616
2.49762
2.49895
2.49965
2.49992
2.49999
2.5
2.5
2.5
2.5
2.5
2.5
2.5
2.5
2.5
2.5
2.5
2.5
2.5
2.5
2.5
2.49739
2.49625
2.49563
2.49969
2.51477
2.54587
2.59165
2.64318
2.68815
2.71736
2.72726
2.71736
2.68815
2.64318
2.59165
2.54586
2.51477
2.49969
2.49567
2.49647
2.49813
2.49926
2.49978
2.49996
2.5
2.5
2.5
2.5
2.5
2.5
2.5
2.5
2.5
2.5
2.5
2.5
2.5
2.5
2.5
2.5
2.49829
2.49714
2.49558
2.4958
2.50193
2.51829
2.54586
2.57995
2.61205
2.63424
2.64205
2.63424
2.61205
2.57995
2.54586
2.51829
2.50193
2.4958
2.49559
2.49726
2.49873
2.49955
2.49988
2.49999
2.5
2.5
2.5
2.5
2.5
2.5
2.5
2.5
2.5
2.5
2.5
2.5
2.5
2.5
2.5
2.5
2.49906
2.49818
2.49659
2.49515
2.49596
2.50193
2.51477
2.53292
2.55163
2.56539
2.5704
2.56539
2.55163
2.53292
2.51477
2.50193
2.49596
2.49514
2.49659
2.49822
2.49928
2.49978
2.49996
2.5
2.5
2.5
2.5
2.5
2.5
2.50001
2.50001
2.50001
2.5
2.5
2.5
2.5
2.5
2.5
2.5
2.5
2.49959
2.49905
2.49791
2.49634
2.49515
2.4958
2.49969
2.50681
2.51519
2.52185
2.52437
2.52185
2.51519
2.50681
2.49969
2.4958
2.49514
2.49634
2.4979
2.49905
2.49967
2.49992
2.49999
2.5
2.5
2.5
2.50001
2.50002
2.50004
2.50005
2.50005
2.50005
2.50004
2.50002
2.50001
2.5
2.5
2.5
2.5
2.5
2.49988
2.49961
2.49897
2.49791
2.49659
2.49559
2.49567
2.49721
2.49972
2.502
2.50291
2.502
2.49972
2.49721
2.49567
2.49559
2.49659
2.4979
2.49896
2.4996
2.49989
2.49998
2.5
2.50001
2.50001
2.50003
2.50007
2.50011
2.50016
2.50019
2.5002
2.50019
2.50016
2.50011
2.50007
2.50003
2.50001
2.5
2.49999
2.49999
2.49999
2.49989
2.4996
2.49905
2.49822
2.49726
2.49647
2.49616
2.49634
2.49671
2.49689
2.49671
2.49634
2.49616
2.49647
2.49726
2.49822
2.49905
2.4996
2.49987
2.49998
2.5
2.50001
2.50002
2.50007
2.50015
2.50026
2.50038
2.50049
2.50056
2.50058
2.50056
2.50049
2.50038
2.50026
2.50015
2.50006
2.50002
2.5
2.49999
2.50002
2.49999
2.49989
2.49967
2.49928
2.49873
2.49813
2.49762
2.49729
2.49715
2.49711
2.49715
2.49729
2.49762
2.49813
2.49873
2.49928
2.49967
2.49989
2.49998
2.5
2.50001
2.50003
2.5001
2.50024
2.50046
2.50071
2.50096
2.50114
2.50125
2.50128
2.50125
2.50114
2.50096
2.50071
2.50045
2.50024
2.5001
2.50002
2.49999
2.50002
2.50001
2.49999
2.49992
2.49978
2.49955
2.49926
2.49895
2.4987
2.49854
2.49849
2.49854
2.4987
2.49895
2.49926
2.49955
2.49978
2.49992
2.49998
2.5
2.50001
2.50004
2.50013
2.50033
2.50065
2.50109
2.50152
2.50182
2.50194
2.50194
2.50192
2.50194
2.50194
2.50182
2.50152
2.50109
2.50065
2.50032
2.50012
2.50003
2.50001
2.50001
2.50001
2.5
2.49996
2.49989
2.49978
2.49965
2.49954
2.49946
2.49943
2.49946
2.49954
2.49965
2.49978
2.49988
2.49996
2.49999
2.5
2.50001
2.50003
2.50013
2.50036
2.50078
2.50139
2.50201
2.50236
2.50224
2.50168
2.50106
2.5008
2.50106
2.50168
2.50224
2.50236
2.502
2.50138
2.50078
2.50035
2.50015
2.5
2.50001
2.50001
2.50001
2.5
2.49999
2.49996
2.49992
2.49988
2.49985
2.49984
2.49985
2.49988
2.49992
2.49996
2.49999
2.5
2.5
2.50001
2.50002
2.5001
2.50033
2.50078
2.5015
2.50229
2.50265
2.50198
2.5
2.49723
2.49481
2.49386
2.49481
2.49723
2.5
2.50198
2.50265
2.50228
2.5015
2.5008
2.50043
2.5
2.5
2.5
2.50001
2.50001
2.50001
2.5
2.49999
2.49998
2.49997
2.49997
2.49997
2.49998
2.49999
2.5
2.5
2.5
2.5
2.50001
2.50007
2.50024
2.50065
2.50139
2.50229
2.50273
2.50157
2.4977
2.49109
2.4834
2.47731
2.47501
2.47731
2.4834
2.49109
2.4977
2.50157
2.50273
2.50229
2.50145
2.5009
2.5
2.5
2.5
2.5
2.5
2.50001
2.50001
2.5
2.5
2.5
2.5
2.5
2.5
2.5
2.5
2.5
2.5
2.5
2.50003
2.50015
2.50046
2.50109
2.50201
2.50265
2.50157
2.49661
2.48621
2.47128
2.45573
2.44438
2.44029
2.44438
2.45573
2.47127
2.48621
2.49661
2.50157
2.50268
2.50215
2.50154
2.5
2.5
2.5
2.5
2.5
2.5
2.5
2.5
2.5
2.5
2.5
2.5
2.5
2.5
2.5
2.5
2.5
2.50001
2.50007
2.50026
2.50071
2.50152
2.50236
2.50198
2.4977
2.48621
2.46599
2.44028
2.41643
2.40082
2.3956
2.40082
2.41643
2.44028
2.46599
2.48621
2.49771
2.50205
2.50262
2.50223
2.5
2.5
2.5
2.5
2.5
2.5
2.5
2.5
2.5
2.5
2.5
2.5
2.5
2.5
2.5
2.5
2.5
2.50002
2.50011
2.50038
2.50096
2.50182
2.50224
2.5
2.49109
2.47128
2.44028
2.40538
2.37758
2.36239
2.35801
2.36239
2.37758
2.40538
2.44028
2.47128
2.49112
2.50011
2.50262
2.50278
2.5
2.5
2.5
2.5
2.5
2.5
2.5
2.5
2.5
2.5
2.5
2.5
2.5
2.5
2.5
2.5
2.5
2.50004
2.50016
2.50049
2.50114
2.50194
2.50168
2.49723
2.4834
2.45573
2.41643
2.37758
2.3524
2.34272
2.34099
2.34272
2.3524
2.37758
2.41643
2.45573
2.48344
2.49739
2.50217
2.50308
2.5
2.5
2.5
2.5
2.5
2.5
2.5
2.5
2.5
2.5
2.5
2.5
2.5
2.5
2.5
2.5
2.50001
2.50005
2.50019
2.50056
2.50125
2.50194
2.50106
2.49481
2.47731
2.44438
2.40082
2.36239
2.34272
2.33947
2.34049
2.33947
2.34272
2.36239
2.40081
2.44438
2.47736
2.495
2.50163
2.50319
2.5
2.5
2.5
2.5
2.5
2.5
2.5
2.5
2.5
2.5
2.5
2.5
2.5
2.5
2.5
2.5
2.50001
2.50005
2.5002
2.50058
2.50128
2.50192
2.5008
2.49386
2.47501
2.44029
2.3956
2.35801
2.34099
2.34049
2.34262
2.34049
2.34099
2.358
2.39559
2.4403
2.47506
2.49406
2.50138
2.5032
2.5
2.5
2.5
2.5
2.5
2.5
2.5
2.5
2.5
2.5
2.5
2.5
2.5
2.5
2.5
2.5
2.50001
2.50005
2.50019
2.50056
2.50125
2.50194
2.50106
2.49481
2.47731
2.44438
2.40082
2.36239
2.34272
2.33947
2.34049
2.33947
2.34272
2.36239
2.40081
2.44438
2.47735
2.495
2.50163
2.50319
2.5
2.5
2.5
2.5
2.5
2.5
2.5
2.5
2.5
2.5
2.5
2.5
2.5
2.5
2.5
2.5
2.5
2.50004
2.50016
2.50049
2.50114
2.50194
2.50168
2.49723
2.4834
2.45573
2.41643
2.37758
2.3524
2.34272
2.34099
2.34272
2.3524
2.37758
2.41643
2.45573
2.48344
2.49739
2.50217
2.50308
2.5
2.5
2.5
2.5
2.5
2.5
2.5
2.5
2.5
2.5
2.5
2.5
2.5
2.5
2.5
2.5
2.5
2.50002
2.50011
2.50038
2.50096
2.50182
2.50224
2.5
2.49109
2.47127
2.44028
2.40538
2.37758
2.36239
2.358
2.36239
2.37758
2.40538
2.44028
2.47127
2.49112
2.50011
2.50262
2.50278
2.5
2.5
2.5
2.5
2.5
2.5
2.5
2.5
2.5
2.5
2.5
2.5
2.5
2.5
2.5
2.5
2.5
2.50001
2.50007
2.50026
2.50071
2.50152
2.50236
2.50198
2.4977
2.48621
2.46599
2.44028
2.41643
2.40081
2.39559
2.40081
2.41643
2.44028
2.46598
2.48621
2.49771
2.50204
2.50262
2.50223
2.5
2.5
2.5
2.5
2.5
2.5
2.5
2.5
2.5
2.5
2.5
2.5
2.5
2.5
2.5
2.5
2.5
2.5
2.50003
2.50015
2.50045
2.50109
2.502
2.50265
2.50157
2.49661
2.48621
2.47128
2.45573
2.44438
2.4403
2.44438
2.45573
2.47127
2.48621
2.4966
2.50157
2.50268
2.50215
2.50154
2.5
2.5
2.5
2.5
2.5
2.5
2.5
2.5
2.5
2.5
2.5
2.5
2.5
2.5
2.5
2.5
2.5
2.5
2.50001
2.50006
2.50024
2.50065
2.50138
2.50228
2.50273
2.50157
2.49771
2.49112
2.48344
2.47736
2.47506
2.47735
2.48344
2.49112
2.49771
2.50157
2.50272
2.50229
2.50145
2.50089
2.5
2.5
2.5
2.5
2.5
2.5
2.5
2.5
2.5
2.5
2.5
2.5
2.5
2.5
2.5
2.5
2.5
2.5
2.5
2.50002
2.5001
2.50032
2.50078
2.5015
2.50229
2.50268
2.50205
2.50011
2.49739
2.495
2.49406
2.495
2.49739
2.50011
2.50204
2.50268
2.50229
2.50149
2.50079
2.50042
2.5
2.5
2.5
2.5
2.5
2.5
2.5
2.5
2.5
2.5
2.5
2.5
2.5
2.5
2.5
2.5
2.5
2.5
2.49999
2.5
2.50002
2.50012
2.50035
2.5008
2.50145
2.50215
2.50262
2.50262
2.50217
2.50163
2.50138
2.50163
2.50217
2.50262
2.50262
2.50215
2.50145
2.50079
2.50035
2.50014
2.5
2.5
2.5
2.5
2.5
2.5
2.5
2.5
2.5
2.5
2.5
2.5
2.5
2.5
2.5
2.5
2.5
2.5
2.49999
2.49999
2.49999
2.50003
2.50015
2.50043
2.5009
2.50154
2.50223
2.50278
2.50308
2.50319
2.5032
2.50319
2.50308
2.50278
2.50223
2.50154
2.50089
2.50042
2.50014
2.50003
