# vtk DataFile Version 3.0
Brusselator Concentration Output
ASCII
DATASET STRUCTURED_POINTS
DIMENSIONS 40 40 1
ORIGIN 0.0 0.0 0.0
SPACING 0.005 0.005 1.0
POINT_DATA 1600
SCALARS C1 double 1
LOOKUP_TABLE default
1
1
1
1
1.00001
1.00001
1.00002
1.00002
1.00001
1
0.999997
1
1.00001
1.00002
1.00002
1.00001
1.00001
1
1
1
1
1
1
1
1
1
1
1
1
1
1
1
1
1
1
1
1
1
1
1
1
1
1
1.00001
1.00001
1.00002
1.00001
0.999981
0.999931
0.999881
0.999861
0.999881
0.999931
0.999981
1.00001
1.00002
1.00001
1.00001
1
1
1
1
1
1
1
1
1
1
1
1
1
1
1
1
1
1
1
1
1
1
1
1
1.00001
1.00001
1.00002
1
0.999927
0.999769
0.999552
0.999366
0.999294
0.999366
0.999552
0.999769
0.999927
1
1.00002
1.00001
1.00001
1
1
1
1
1
1
1
1
1
1
1
1
1
1
1
1
1
1
1
1
1
1
1.00001
1.00001
1.00002
0.999995
0.999868
0.999543
0.99898
0.998317
0.997814
0.997639
0.997814
0.998317
0.99898
0.999543
0.999868
0.999995
1.00002
1.00001
1.00001
1
1
1
1
1
1
1
1
1
1
1
1
1
1
1
1
1
1
1
1
1.00001
1.00001
1.00002
0.999995
0.999842
0.999369
0.998374
0.996914
0.995475
0.99461
0.994372
0.99461
0.995475
0.996914
0.998374
0.999369
0.999842
0.999995
1.00002
1.00001
1.00001
1
1
1
1
1
1
1
1
1
1
1
1
1
1
1
1
1
1
1
1.00001
1.00002
1
0.999868
0.999369
0.998108
0.995864
0.993181
0.991362
0.991084
0.991298
0.991084
0.991362
0.993181
0.995864
0.998108
0.999369
0.999868
1
1.00002
1.00001
1
1
1
1
1
1
1
1
1
1
1
1
1
1
1
1
1
1
1
1.00002
1.00001
0.999927
0.999543
0.998374
0.995864
0.992213
0.989362
0.990049
0.994008
0.996376
0.994008
0.990049
0.989362
0.992213
0.995864
0.998374
0.999542
0.999927
1.00001
1.00001
1.00001
1
1
1
1
1
1
1
1
1
1
1
1
1
1
1
1
1
1
1.00002
0.999981
0.999769
0.99898
0.996914
0.993181
0.989362
0.99021
1.00049
1.0166
1.0246
1.0166
1.00049
0.99021
0.989362
0.993181
0.996914
0.99898
0.999768
0.999978
1.00001
1.00001
1
1
1
1
1
1
1
1
1
1
1
1
1
1
1
1
1
1
1.00001
0.999931
0.999552
0.998317
0.995475
0.991362
0.990049
1.00049
1.02992
1.06817
1.0858
1.06817
1.02992
1.00049
0.990049
0.991362
0.995475
0.998317
0.999551
0.999928
1
1.00001
1
1
1
1
1
1
1
1
1
1
1
1
1
1
1
1
1
1
1
0.999881
0.999366
0.997814
0.99461
0.991084
0.994008
1.0166
1.06817
1.12982
1.15626
1.12982
1.06817
1.0166
0.994008
0.991084
0.99461
0.997814
0.999364
0.999878
0.999994
1.00001
1
1
1
1
1
1
1
1
1
1
1
1
1
1
1
1
1
1
0.999997
0.999861
0.999294
0.997639
0.994372
0.991298
0.996376
1.0246
1.0858
1.15626
1.18507
1.15626
1.0858
1.0246
0.996376
0.991298
0.994372
0.997639
0.999293
0.999857
0.99999
1.00001
1
1
1
1
1
1
1
1
1
1
1
1
1
1
1
1
1
1
1
0.999881
0.999366
0.997814
0.99461
0.991084
0.994008
1.0166
1.06817
1.12982
1.15626
1.12982
1.06817
1.0166
0.994008
0.991084
0.99461
0.997814
0.999364
0.999878
0.999994
1.00001
1
1
1
1
1
1
1
1
1
1
1
1
1
1
1
1
1
1
1.00001
0.999931
0.999552
0.998317
0.995475
0.991362
0.990049
1.00049
1.02992
1.06817
1.0858
1.06817
1.02992
1.00049
0.990049
0.991362
0.995475
0.998317
0.999551
0.999928
1
1.00001
1
1
1
1
1
1
1
1
1
1
1
1
1
1
1
1
1
1
1.00002
0.999981
0.999769
0.99898
0.996914
0.993181
0.989362
0.99021
1.00049
1.0166
1.0246
1.0166
1.00049
0.99021
0.989362
0.993181
0.996914
0.99898
0.999768
0.999978
1.00001
1.00001
1
1
1
1
1
1
1
1
1
1
1
1
1
1
1
1
1
1
1.00002
1.00001
0.999927
0.999543
0.998374
0.995864
0.992213
0.989362
0.990049
0.994008
0.996376
0.994008
0.990049
0.989362
0.992213
0.995864
0.998374
0.999542
0.999927
1.00001
1.00001
1.00001
1
1
1
1
1
1
1
1
1
1
1
1
1
1
1
1
1
1
1.00001
1.00002
1
0.999868
0.999369
0.998108
0.995864
0.993181
0.991362
0.991084
0.991298
0.991084
0.991362
0.993181
0.995864
0.998108
0.999369
0.999868
1
1.00002
1.00001
1
1
1
1
1
1
1
1
1
1
1
1
1
1
1
1
1
1
1
1.00001
1.00001
1.00002
0.999995
0.999842
0.999369
0.998374
0.996914
0.995475
0.99461
0.994372
0.99461
0.995475
0.996914
0.998374
0.999369
0.999842
0.999995
1.00002
1.00001
1.00001
1
1
1
1
1
1
1
1
1
1
1
1
1
1
1
1
1
1
1
1
1.00001
1.00001
1.00002
0.999995
0.999868
0.999542
0.99898
0.998317
0.997814
0.997639
0.997814
0.998317
0.99898
0.999542
0.999868
0.999995
1.00002
1.00001
1.00001
1
1
1
1
1
1
1
1
1
1
1
1
1
1
1
1
1
1
1
1
1
1
1.00001
1.00001
1.00002
1
0.999927
0.999768
0.999551
0.999364
0.999293
0.999364
0.999551
0.999768
0.999927
1
1.00002
1.00001
1.00001
1
1
1
1
1
1
1
0.999999
0.999999
0.999999
0.999999
0.999998
0.999999
0.999999
0.999999
0.999999
1
1
1
1
1
1
1
1
1.00001
1.00001
1.00002
1.00001
0.999978
0.999928
0.999878
0.999857
0.999878
0.999928
0.999978
1.00001
1.00002
1.00001
1.00001
1
1
1
1
1
1
0.999999
0.999999
0.999998
0.999997
0.999997
0.999997
0.999997
0.999997
0.999997
0.999997
0.999998
0.999999
0.999999
1
1
1
1
1
1
1
1.00001
1.00001
1.00001
1.00001
1
0.999994
0.99999
0.999994
1
1.00001
1.00001
1.00001
1.00001
1
1
1
1
1
1
0.999999
0.999998
0.999997
0.999995
0.999995
0.999996
0.999999
1
0.999999
0.999996
0.999995
0.999995
0.999997
0.999998
0.999999
1
1
1
1
1
1
1
1
1.00001
1.00001
1.00001
1.00001
1.00001
1.00001
1.00001
1.00001
1.00001
1
1
1
1
1
1
1
0.999999
0.999997
0.999995
0.999993
0.999993
1
1.00002
1.00003
1.00004
1.00003
1.00002
1
0.999993
0.999993
0.999995
0.999997
0.999999
0.999999
1
1
1
1
1
1
1
1
1
1
1
1
1
1
1
1
1
1
1
1
1
0.999999
0.999997
0.999994
0.999991
0.999994
1.00001
1.00006
1.00014
1.00021
1.00023
1.00021
1.00014
1.00006
1.00001
0.999994
0.999991
0.999994
0.999997
0.999999
1
1
1
1
1
1
1
1
1
1
1
1
1
1
1
1
1
1
1
1
0.999999
0.999997
0.999994
0.99999
0.999994
1.00003
1.00013
1.00033
1.00058
1.00079
1.00087
1.00079
1.00058
1.00033
1.00013
1.00003
0.999994
0.99999
0.999994
0.999997
1
1
1
1
1
1
1
1
1
1
1
1
1
1
1
1
1
1
1
0.999999
0.999998
0.999995
0.999991
0.999994
1.00004
1.00019
1.00054
1.00112
1.00177
1.00222
1.00236
1.00222
1.00177
1.00112
1.00054
1.00019
1.00004
0.999994
0.99999
0.999993
1
1
1
1
1
1
1
1
1
1
1
1
1
1
1
1
1
1
1
0.999999
0.999997
0.999993
0.999994
1.00003
1.00019
1.00063
1.00153
1.00278
1.00389
1.00438
1.00443
1.00438
1.00389
1.00278
1.00153
1.00063
1.00019
1.00003
0.999992
0.999989
1
1
1
1
1
1
1
1
1
1
1
1
1
1
1
1
1
1
0.999999
0.999998
0.999995
0.999993
1.00001
1.00013
1.00054
1.00153
1.00322
1.00504
1.00572
1.00487
1.00415
1.00487
1.00572
1.00504
1.00322
1.00153
1.00054
1.00013
1.00001
0.999988
1
1
1
1
1
1
1
1
1
1
1
1
1
1
1
1
1
1
0.999999
0.999997
0.999995
1
1.00006
1.00033
1.00112
1.00278
1.00504
1.0061
1.00349
0.998076
0.995208
0.998076
1.00349
1.0061
1.00504
1.00278
1.00112
1.00033
1.00006
0.999996
1
1
1
1
1
1
1
1
1
1
1
1
1
1
1
1
1
1
0.999999
0.999997
0.999996
1.00002
1.00014
1.00058
1.00177
1.00389
1.00572
1.00349
0.993716
0.9803
0.974065
0.9803
0.993716
1.00349
1.00572
1.00389
1.00176
1.00058
1.00013
1.00001
1
1
1
1
1
1
1
1
1
1
1
1
1
1
1
1
1
1
0.999999
0.999997
0.999999
1.00003
1.00021
1.00079
1.00222
1.00438
1.00487
0.998076
0.9803
0.959094
0.949885
0.959094
0.9803
0.998076
1.00487
1.00438
1.00222
1.00079
1.0002
1.00003
1
1
1
1
1
1
1
1
1
1
1
1
1
1
1
1
1
1
0.999998
0.999997
1
1.00004
1.00023
1.00087
1.00236
1.00443
1.00415
0.995208
0.974065
0.949885
0.939637
0.949885
0.974065
0.995208
1.00415
1.00443
1.00236
1.00087
1.00023
1.00004
1
1
1
1
1
1
1
1
1
1
1
1
1
1
1
1
1
1
0.999999
0.999997
0.999999
1.00003
1.00021
1.00079
1.00222
1.00438
1.00487
0.998076
0.9803
0.959094
0.949885
0.959094
0.9803
0.998076
1.00487
1.00438
1.00222
1.00079
1.0002
1.00003
1
1
1
1
1
1
1
1
1
1
1
1
1
1
1
1
1
1
0.999999
0.999997
0.999996
1.00002
1.00014
1.00058
1.00177
1.00389
1.00572
1.00349
0.993716
0.9803
0.974065
0.9803
0.993716
1.00349
1.00572
1.00389
1.00176
1.00058
1.00013
1.00001
1
1
1
1
1
1
1
1
1
1
1
1
1
1
1
1
1
1
0.999999
0.999997
0.999995
1
1.00006
1.00033
1.00112
1.00278
1.00504
1.0061
1.00349
0.998076
0.995208
0.998076
1.00349
1.0061
1.00504
1.00278
1.00112
1.00033
1.00006
0.999996
1
1
1
1
1
1
1
1
1
1
1
1
1
1
1
1
1
1
0.999999
0.999998
0.999995
0.999993
1.00001
1.00013
1.00054
1.00153
1.00322
1.00504
1.00572
1.00487
1.00415
1.00487
1.00572
1.00504
1.00322
1.00153
1.00054
1.00013
1.00001
0.999988
1
1
1
1
1
1
1
1
1
1
1
1
1
1
1
1
1
1
1
0.999999
0.999997
0.999993
0.999994
1.00003
1.00019
1.00063
1.00153
1.00278
1.00389
1.00438
1.00443
1.00438
1.00389
1.00278
1.00153
1.00063
1.00019
1.00003
0.999992
0.999989
1
1
1
1
1
1
1
1
1
1
1
1
1
1
1
1
1
1
1
0.999999
0.999998
0.999995
0.999991
0.999994
1.00004
1.00019
1.00054
1.00112
1.00176
1.00222
1.00236
1.00222
1.00176
1.00112
1.00054
1.00019
1.00004
0.999994
0.99999
0.999993
1
1
1
1
1
1
1
1
1
1
1
1
1
1
1
1
1
1
1
1
0.999999
0.999997
0.999994
0.99999
0.999994
1.00003
1.00013
1.00033
1.00058
1.00079
1.00087
1.00079
1.00058
1.00033
1.00013
1.00003
0.999994
0.99999
0.999994
0.999997
1
1
1
1
1
1
1
1
1
1
1
1
1
1
1
1
1
1
1
1
1
0.999999
0.999997
0.999994
0.99999
0.999992
1.00001
1.00006
1.00013
1.0002
1.00023
1.0002
1.00013
1.00006
1.00001
0.999992
0.99999
0.999994
0.999997
0.999998
1
1
1
1
1
1
1
1
1
1
1
1
1
1
1
1
1
1
1
1
1
0.999999
0.999999
0.999997
0.999993
0.999989
0.999988
0.999996
1.00001
1.00003
1.00004
1.00003
1.00001
0.999996
0.999988
0.999989
0.999993
0.999997
0.999998
0.999999
SCALARS C2 double 1
LOOKUP_TABLE default
2.5
2.5
2.5
2.5
2.49999
2.49998
2.49997
2.49996
2.49995
2.49995
2.49995
2.49995
2.49995
2.49996
2.49997
2.49998
2.49999
2.5
2.5
2.5
2.5
2.5
2.5
2.5
2.5
2.5
2.5
2.5
2.5
2.5
2.5
2.5
2.5
2.5
2.5
2.5
2.5
2.5
2.5
2.5
2.5
2.5
2.5
2.49999
2.49998
2.49996
2.49995
2.49995
2.49997
2.50001
2.50002
2.50001
2.49997
2.49995
2.49995
2.49996
2.49998
2.49999
2.5
2.5
2.5
2.5
2.5
2.5
2.5
2.5
2.5
2.5
2.5
2.5
2.5
2.5
2.5
2.5
2.5
2.5
2.5
2.5
2.5
2.5
2.5
2.5
2.49999
2.49998
2.49995
2.49993
2.49995
2.50004
2.50023
2.50043
2.50052
2.50043
2.50023
2.50004
2.49995
2.49993
2.49995
2.49998
2.49999
2.5
2.5
2.5
2.5
2.5
2.5
2.5
2.5
2.5
2.5
2.5
2.5
2.5
2.5
2.5
2.5
2.5
2.5
2.5
2.5
2.5
2.5
2.49999
2.49998
2.49995
2.49992
2.49995
2.50017
2.50071
2.50153
2.50228
2.50258
2.50228
2.50153
2.50071
2.50017
2.49995
2.49992
2.49995
2.49998
2.49999
2.5
2.5
2.5
2.5
2.5
2.5
2.5
2.5
2.5
2.5
2.5
2.5
2.5
2.5
2.5
2.5
2.5
2.5
2.5
2.5
2.49999
2.49998
2.49995
2.49992
2.49996
2.50028
2.50127
2.50319
2.50572
2.50781
2.50858
2.50781
2.50572
2.50319
2.50127
2.50028
2.49996
2.49992
2.49995
2.49998
2.49999
2.5
2.5
2.5
2.5
2.5
2.5
2.5
2.5
2.5
2.5
2.5
2.5
2.5
2.5
2.5
2.5
2.5
2.5
2.5
2.49998
2.49996
2.49993
2.49995
2.50028
2.50152
2.50453
2.50959
2.51538
2.51948
2.52074
2.51948
2.51538
2.50959
2.50453
2.50152
2.50028
2.49995
2.49993
2.49997
2.49999
2.5
2.5
2.5
2.5
2.5
2.5
2.5
2.5
2.5
2.5
2.5
2.5
2.5
2.5
2.5
2.5
2.5
2.5
2.5
2.49997
2.49995
2.49995
2.50017
2.50127
2.50453
2.51135
2.52128
2.53059
2.53503
2.53551
2.53503
2.53059
2.52128
2.51135
2.50453
2.50127
2.50017
2.49995
2.49995
2.49998
2.49999
2.5
2.5
2.5
2.5
2.5
2.5
2.5
2.5
2.5
2.5
2.5
2.5
2.5
2.5
2.5
2.5
2.5
2.5
2.49996
2.49995
2.50004
2.50071
2.50319
2.50959
2.52128
2.53533
2.54324
2.5396
2.53457
2.5396
2.54324
2.53533
2.52128
2.50959
2.50319
2.50071
2.50004
2.49995
2.49997
2.49999
2.5
2.5
2.5
2.5
2.5
2.5
2.5
2.5
2.5
2.5
2.5
2.5
2.5
2.5
2.5
2.5
2.5
2.5
2.49995
2.49997
2.50023
2.50153
2.50572
2.51538
2.53059
2.54324
2.53695
2.50728
2.48737
2.50728
2.53695
2.54324
2.53059
2.51538
2.50572
2.50153
2.50023
2.49998
2.49997
2.49999
2.5
2.5
2.5
2.5
2.5
2.5
2.5
2.5
2.5
2.5
2.5
2.5
2.5
2.5
2.5
2.5
2.5
2.5
2.49995
2.50001
2.50043
2.50228
2.50781
2.51948
2.53503
2.5396
2.50728
2.43753
2.39664
2.43753
2.50728
2.5396
2.53503
2.51948
2.50781
2.50228
2.50043
2.50001
2.49997
2.49998
2.49999
2.5
2.5
2.5
2.5
2.5
2.5
2.5
2.5
2.5
2.5
2.5
2.5
2.5
2.5
2.5
2.5
2.5
2.49995
2.50002
2.50052
2.50258
2.50858
2.52074
2.53551
2.53457
2.48737
2.39664
2.34568
2.39664
2.48737
2.53457
2.53551
2.52074
2.50858
2.50258
2.50052
2.50003
2.49997
2.49998
2.49999
2.5
2.5
2.5
2.5
2.5
2.5
2.5
2.5
2.5
2.5
2.5
2.5
2.5
2.5
2.5
2.5
2.5
2.49995
2.50001
2.50043
2.50228
2.50781
2.51948
2.53503
2.5396
2.50728
2.43753
2.39664
2.43753
2.50728
2.5396
2.53503
2.51948
2.50781
2.50228
2.50043
2.50001
2.49997
2.49998
2.49999
2.5
2.5
2.5
2.5
2.5
2.5
2.5
2.5
2.5
2.5
2.5
2.5
2.5
2.5
2.5
2.5
2.5
2.49995
2.49997
2.50023
2.50153
2.50572
2.51538
2.53059
2.54324
2.53695
2.50728
2.48737
2.50728
2.53695
2.54324
2.53059
2.51538
2.50572
2.50153
2.50023
2.49998
2.49997
2.49999
2.5
2.5
2.5
2.5
2.5
2.5
2.5
2.5
2.5
2.5
2.5
2.5
2.5
2.5
2.5
2.5
2.5
2.5
2.49996
2.49995
2.50004
2.50071
2.50319
2.50959
2.52128
2.53533
2.54324
2.5396
2.53457
2.5396
2.54324
2.53533
2.52128
2.50959
2.50319
2.50071
2.50004
2.49995
2.49997
2.49999
2.5
2.5
2.5
2.5
2.5
2.5
2.5
2.5
2.5
2.5
2.5
2.5
2.5
2.5
2.5
2.5
2.5
2.5
2.49997
2.49995
2.49995
2.50017
2.50127
2.50453
2.51135
2.52128
2.53059
2.53503
2.53551
2.53503
2.53059
2.52128
2.51135
2.50453
2.50127
2.50017
2.49995
2.49995
2.49998
2.49999
2.5
2.5
2.5
2.5
2.5
2.5
2.5
2.5
2.5
2.5
2.5
2.5
2.5
2.5
2.5
2.5
2.5
2.5
2.49998
2.49996
2.49993
2.49995
2.50028
2.50152
2.50453
2.50959
2.51538
2.51948
2.52074
2.51948
2.51538
2.50959
2.50453
2.50152
2.50028
2.49995
2.49993
2.49997
2.49999
2.5
2.5
2.5
2.5
2.5
2.5
2.5
2.5
2.5
2.5
2.5
2.5
2.5
2.5
2.5
2.5
2.5
2.5
2.5
2.49999
2.49998
2.49995
2.49992
2.49996
2.50028
2.50127
2.50319
2.50572
2.50781
2.50858
2.50781
2.50572
2.50319
2.50127
2.50028
2.49996
2.49992
2.49995
2.49998
2.49999
2.5
2.5
2.5
2.5
2.5
2.5
2.5
2.5
2.5
2.5
2.5
2.5
2.5
2.5
2.5
2.5
2.5
2.5
2.5
2.5
2.49999
2.49998
2.49995
2.49992
2.49995
2.50017
2.50071
2.50153
2.50228
2.50258
2.50228
2.50153
2.50071
2.50017
2.49995
2.49992
2.49995
2.49998
2.49999
2.5
2.5
2.5
2.5
2.5
2.5
2.5
2.5
2.5
2.5
2.5
2.5
2.5
2.5
2.5
2.5
2.5
2.5
2.5
2.5
2.5
2.5
2.49999
2.49998
2.49995
2.49993
2.49995
2.50004
2.50023
2.50043
2.50052
2.50043
2.50023
2.50004
2.49995
2.49993
2.49995
2.49998
2.49999
2.5
2.5
2.5
2.5
2.5
2.5
2.5
2.5
2.5
2.5
2.5
2.5
2.5
2.5
2.5
2.5
2.5
2.5
2.5
2.5
2.5
2.5
2.5
2.5
2.49999
2.49998
2.49997
2.49995
2.49995
2.49998
2.50001
2.50003
2.50001
2.49998
2.49995
2.49995
2.49997
2.49998
2.49999
2.5
2.5
2.5
2.5
2.5
2.5
2.5
2.5
2.5
2.5
2.50001
2.50001
2.50001
2.50001
2.50001
2.5
2.5
2.5
2.5
2.5
2.5
2.5
2.5
2.5
2.5
2.5
2.49999
2.49999
2.49998
2.49997
2.49997
2.49997
2.49997
2.49997
2.49997
2.49997
2.49998
2.49999
2.49999
2.5
2.5
2.5
2.5
2.5
2.5
2.5
2.5
2.5
2.50001
2.50001
2.50001
2.50001
2.50001
2.50001
2.50001
2.50001
2.50001
2.5
2.5
2.5
2.5
2.5
2.5
2.5
2.5
2.5
2.5
2.5
2.49999
2.49999
2.49999
2.49998
2.49998
2.49998
2.49999
2.49999
2.49999
2.5
2.5
2.5
2.5
2.5
2.5
2.5
2.5
2.5
2.50001
2.50001
2.50002
2.50002
2.50002
2.50001
2.50001
2.50001
2.50002
2.50002
2.50002
2.50001
2.50001
2.5
2.5
2.5
2.5
2.5
2.5
2.5
2.5
2.5
2.5
2.5
2.5
2.49999
2.49999
2.49999
2.5
2.5
2.5
2.5
2.5
2.5
2.5
2.5
2.5
2.5
2.5
2.50001
2.50002
2.50003
2.50003
2.50001
2.49996
2.49989
2.49986
2.49989
2.49996
2.50001
2.50003
2.50003
2.50002
2.50001
2.5
2.5
2.5
2.5
2.5
2.5
2.5
2.5
2.5
2.5
2.5
2.5
2.5
2.5
2.5
2.5
2.5
2.5
2.5
2.5
2.5
2.5
2.5
2.5
2.50001
2.50002
2.50003
2.50004
2.49998
2.49982
2.49955
2.49927
2.49916
2.49927
2.49955
2.49982
2.49998
2.50004
2.50003
2.50002
2.50001
2.5
2.5
2.5
2.5
2.5
2.5
2.5
2.5
2.5
2.5
2.5
2.5
2.5
2.5
2.5
2.5
2.5
2.5
2.5
2.5
2.5
2.5
2.50001
2.50002
2.50003
2.50004
2.49996
2.49965
2.49899
2.49804
2.49717
2.49684
2.49717
2.49804
2.49899
2.49965
2.49996
2.50004
2.50003
2.50002
2.50001
2.5
2.5
2.5
2.5
2.5
2.5
2.5
2.5
2.5
2.5
2.5
2.5
2.5
2.5
2.5
2.5
2.5
2.5
2.5
2.5
2.5
2.50001
2.50003
2.50004
2.49996
2.49958
2.49854
2.49658
2.49409
2.49209
2.49141
2.49209
2.49409
2.49658
2.49854
2.49958
2.49996
2.50004
2.50003
2.50002
2.5
2.5
2.5
2.5
2.5
2.5
2.5
2.5
2.5
2.5
2.5
2.5
2.5
2.5
2.5
2.5
2.5
2.5
2.5
2.5
2.50001
2.50002
2.50003
2.49998
2.49965
2.49854
2.49591
2.49157
2.48683
2.48387
2.48317
2.48387
2.48683
2.49157
2.49591
2.49854
2.49965
2.49998
2.50003
2.50003
2.5
2.5
2.5
2.5
2.5
2.5
2.5
2.5
2.5
2.5
2.5
2.5
2.5
2.5
2.5
2.5
2.5
2.5
2.5
2.5
2.50001
2.50002
2.50001
2.49982
2.49899
2.49658
2.49157
2.48449
2.47875
2.4776
2.47854
2.4776
2.47875
2.48449
2.49157
2.49658
2.49899
2.49982
2.50001
2.50004
2.5
2.5
2.5
2.5
2.5
2.5
2.5
2.5
2.5
2.5
2.5
2.5
2.5
2.5
2.5
2.5
2.5
2.5
2.5
2.50001
2.50001
2.50002
2.49996
2.49955
2.49804
2.49409
2.48683
2.47875
2.47653
2.4831
2.48861
2.4831
2.47653
2.47875
2.48683
2.49409
2.49804
2.49955
2.49996
2.50003
2.5
2.5
2.5
2.5
2.5
2.5
2.5
2.5
2.5
2.5
2.5
2.5
2.5
2.5
2.5
2.5
2.5
2.5
2.5
2.50001
2.50001
2.50001
2.49989
2.49927
2.49717
2.49209
2.48387
2.4776
2.4831
2.50127
2.51295
2.50127
2.4831
2.4776
2.48387
2.49209
2.49717
2.49928
2.4999
2.50003
2.5
2.5
2.5
2.5
2.5
2.5
2.5
2.5
2.5
2.5
2.5
2.5
2.5
2.5
2.5
2.5
2.5
2.5
2.5
2.50001
2.50001
2.50001
2.49986
2.49916
2.49684
2.49141
2.48317
2.47854
2.48861
2.51295
2.52781
2.51295
2.48861
2.47854
2.48317
2.49141
2.49684
2.49916
2.49987
2.50002
2.5
2.5
2.5
2.5
2.5
2.5
2.5
2.5
2.5
2.5
2.5
2.5
2.5
2.5
2.5
2.5
2.5
2.5
2.5
2.50001
2.50001
2.50001
2.49989
2.49927
2.49717
2.49209
2.48387
2.4776
2.4831
2.50127
2.51295
2.50127
2.4831
2.4776
2.48387
2.49209
2.49717
2.49928
2.4999
2.50003
2.5
2.5
2.5
2.5
2.5
2.5
2.5
2.5
2.5
2.5
2.5
2.5
2.5
2.5
2.5
2.5
2.5
2.5
2.5
2.50001
2.50001
2.50002
2.49996
2.49955
2.49804
2.49409
2.48683
2.47875
2.47653
2.4831
2.48861
2.4831
2.47653
2.47875
2.48683
2.49409
2.49804
2.49955
2.49996
2.50003
2.5
2.5
2.5
2.5
2.5
2.5
2.5
2.5
2.5
2.5
2.5
2.5
2.5
2.5
2.5
2.5
2.5
2.5
2.5
2.5
2.50001
2.50002
2.50001
2.49982
2.49899
2.49658
2.49157
2.48449
2.47875
2.4776
2.47854
2.4776
2.47875
2.48449
2.49157
2.49658
2.49899
2.49982
2.50001
2.50004
2.5
2.5
2.5
2.5
2.5
2.5
2.5
2.5
2.5
2.5
2.5
2.5
2.5
2.5
2.5
2.5
2.5
2.5
2.5
2.5
2.50001
2.50002
2.50003
2.49998
2.49965
2.49854
2.49591
2.49157
2.48683
2.48387
2.48317
2.48387
2.48683
2.49157
2.49591
2.49854
2.49965
2.49998
2.50003
2.50003
2.5
2.5
2.5
2.5
2.5
2.5
2.5
2.5
2.5
2.5
2.5
2.5
2.5
2.5
2.5
2.5
2.5
2.5
2.5
2.5
2.5
2.50001
2.50003
2.50004
2.49996
2.49958
2.49854
2.49658
2.49409
2.49209
2.49141
2.49209
2.49409
2.49658
2.49854
2.49958
2.49996
2.50004
2.50003
2.50002
2.5
2.5
2.5
2.5
2.5
2.5
2.5
2.5
2.5
2.5
2.5
2.5
2.5
2.5
2.5
2.5
2.5
2.5
2.5
2.5
2.5
2.50001
2.50002
2.50003
2.50004
2.49996
2.49965
2.49899
2.49804
2.49717
2.49684
2.49717
2.49804
2.49899
2.49965
2.49996
2.50004
2.50003
2.50002
2.50001
2.5
2.5
2.5
2.5
2.5
2.5
2.5
2.5
2.5
2.5
2.5
2.5
2.5
2.5
2.5
2.5
2.5
2.5
2.5
2.5
2.5
2.5
2.50001
2.50002
2.50003
2.50004
2.49998
2.49982
2.49955
2.49928
2.49916
2.49928
2.49955
2.49982
2.49998
2.50004
2.50003
2.50002
2.50001
2.5
2.5
2.5
2.5
2.5
2.5
2.5
2.5
2.5
2.5
2.5
2.5
2.5
2.5
2.5
2.5
2.5
2.5
2.5
2.5
2.5
2.5
2.5
2.5
2.50001
2.50002
2.50003
2.50003
2.50001
2.49996
2.4999
2.49987
2.4999
2.49996
2.50001
2.50003
2.50003
2.50002
2.50001
2.5
2.5
2.5
2.5
2.5
2.5
2.5
2.5
2.5
2.5
2.5
2.5
2.5
2.5
2.5
2.5
2.5
2.5
2.5
2.5
2.5
2.5
2.5
2.5
2.5
2.5
2.50001
2.50002
2.50003
2.50004
2.50003
2.50003
2.50002
2.50003
2.50003
2.50004
2.50003
2.50002
2.50001
2.5
2.5
2.5
