# vtk DataFile Version 3.0
Brusselator Concentration Output
ASCII
DATASET STRUCTURED_POINTS
DIMENSIONS 40 40 1
ORIGIN 0.0 0.0 0.0
SPACING 0.005 0.005 1.0
POINT_DATA 1600
SCALARS C1 double 1
LOOKUP_TABLE default
1.00063
1.00241
1.00603
1.01126
1.01729
1.02276
1.02631
1.02743
1.02673
1.02548
1.02491
1.02548
1.02673
1.02744
1.02632
1.02278
1.01735
1.0114
1.00627
1.00271
1.00073
0.999899
0.999705
0.999763
0.999866
0.99994
0.999979
0.999995
1
1
1
1
1
1
1
1
1
1
1
1
1.00241
1.00476
1.00909
1.01443
1.01895
1.02064
1.01841
1.01294
1.00638
1.00121
0.999265
1.00121
1.00638
1.01295
1.01842
1.02067
1.01903
1.01457
1.0093
1.00486
1.00195
1.00046
0.999901
0.999801
0.999856
0.999925
0.99997
0.999991
0.999998
1
1
1
1
1
1
1
1
1
1
1
1.00603
1.00909
1.01391
1.01771
1.01689
1.00891
0.994288
0.9765
0.960088
0.948781
0.94478
0.948781
0.960089
0.976505
0.994306
1.00896
1.01699
1.01786
1.01399
1.00872
1.00436
1.00166
1.00037
0.999921
0.999856
0.999903
0.999953
0.999982
0.999995
0.999999
1
1
1
1
1
1
1
1
1
1
1.01126
1.01443
1.01771
1.01569
1.00313
0.978964
0.94757
0.915973
0.890188
0.873744
0.86814
0.873744
0.89019
0.915982
0.947595
0.979024
1.00324
1.01577
1.0175
1.01321
1.0077
1.00353
1.00119
1.00019
0.999901
0.999886
0.999933
0.999971
0.99999
0.999998
1
1
1
1
1
1
1
1
1
1
1.01729
1.01895
1.01689
1.00313
0.973074
0.930168
0.883693
0.842637
0.812172
0.793952
0.787943
0.793952
0.812175
0.842648
0.883726
0.930236
0.973158
1.00308
1.0162
1.0165
1.0113
1.00592
1.00238
1.00065
1.00002
0.999892
0.999916
0.999959
0.999984
0.999996
0.999999
1
1
1
1
1
1
1
1
1
1.02276
1.02064
1.00891
0.978964
0.930168
0.872062
0.817115
0.773541
0.743873
0.727217
0.721911
0.727218
0.743877
0.773555
0.817151
0.872127
0.930203
0.97869
1.00756
1.01671
1.01419
1.00845
1.00385
1.00129
1.00023
0.999929
0.999908
0.999947
0.999978
0.999993
0.999998
1
1
1
1
1
1
1
1
1
1.02631
1.01841
0.994288
0.94757
0.883693
0.817115
0.760728
0.720145
0.69484
0.681656
0.677643
0.681657
0.694845
0.72016
0.760765
0.81717
0.883661
0.947035
0.992218
1.01298
1.01557
1.01067
1.00538
1.00204
1.00051
0.999998
0.999911
0.999938
0.999972
0.99999
0.999997
1
1
1
1
1
1
1
1
1
1.02743
1.01294
0.9765
0.915973
0.842637
0.773541
0.720145
0.685104
0.665357
0.656102
0.653495
0.656103
0.665362
0.685119
0.720181
0.773583
0.842534
0.915185
0.973767
1.00626
1.01525
1.01222
1.00673
1.00279
1.00081
1.00009
0.999923
0.999932
0.999966
0.999987
0.999996
0.999999
1
1
1
1
1
1
1
1
1.02673
1.00638
0.960088
0.890188
0.812172
0.743873
0.69484
0.665357
0.650631
0.644793
0.643395
0.644794
0.650636
0.665373
0.694875
0.743902
0.812009
0.889194
0.95684
0.998818
1.01385
1.01305
1.00774
1.0034
1.00108
1.00018
0.99994
0.99993
0.999962
0.999985
0.999996
0.999999
1
1
1
1
1
1
1
1
1.02548
1.00121
0.948781
0.873744
0.793952
0.727217
0.681656
0.656102
0.644793
0.641259
0.640675
0.64126
0.644798
0.656118
0.681689
0.727238
0.793749
0.872619
0.945217
0.993149
1.0124
1.01337
1.00835
1.00381
1.00127
1.00024
0.999954
0.99993
0.99996
0.999984
0.999995
0.999999
1
1
1
1
1
1
1
1
1.02491
0.999265
0.94478
0.86814
0.787943
0.721911
0.677643
0.653495
0.643395
0.640675
0.640378
0.640676
0.6434
0.653511
0.677677
0.721929
0.787726
0.866969
0.941109
0.991047
1.0118
1.01345
1.00855
1.00395
1.00134
1.00026
0.99996
0.999931
0.999961
0.999985
0.999997
1
1
1
1
1
1
1
1
1
1.02548
1.00121
0.948781
0.873744
0.793952
0.727218
0.681657
0.656103
0.644794
0.64126
0.640676
0.641262
0.6448
0.656119
0.68169
0.727239
0.793749
0.872619
0.945217
0.993149
1.0124
1.01337
1.00835
1.00381
1.00127
1.00024
0.999957
0.999934
0.999965
0.99999
1
1
1.00001
1
1
1
1
1
1
1
1.02673
1.00638
0.960089
0.89019
0.812175
0.743877
0.694845
0.665362
0.650636
0.644798
0.6434
0.6448
0.650641
0.665378
0.69488
0.743906
0.812012
0.889196
0.956841
0.998818
1.01385
1.01305
1.00774
1.00341
1.00109
1.00018
0.99995
0.999943
0.999977
1
1.00001
1.00002
1.00001
1.00001
1.00001
1.00001
1.00001
1
1
1
1.02744
1.01295
0.976505
0.915982
0.842648
0.773555
0.72016
0.685119
0.665373
0.656118
0.653511
0.656119
0.665378
0.685135
0.720196
0.773597
0.842545
0.915194
0.973772
1.00626
1.01525
1.01222
1.00674
1.0028
1.00083
1.00011
0.999949
0.999962
0.999998
1.00002
1.00003
1.00003
1.00003
1.00003
1.00003
1.00002
1.00002
1.00001
1.00001
1
1.02632
1.01842
0.994306
0.947595
0.883726
0.817151
0.760765
0.720181
0.694875
0.681689
0.677677
0.68169
0.69488
0.720196
0.760802
0.817206
0.883693
0.947061
0.992236
1.01299
1.01558
1.01068
1.00539
1.00207
1.00054
1.00004
0.999956
0.999983
1.00001
1.00003
1.00004
1.00004
1.00004
1.00004
1.00005
1.00004
1.00004
1.00003
1.00002
1.00001
1.02278
1.02067
1.00896
0.979024
0.930236
0.872127
0.81717
0.773583
0.743902
0.727238
0.721929
0.727239
0.743906
0.773597
0.817206
0.872191
0.930271
0.978752
1.00761
1.01674
1.01422
1.00849
1.00389
1.00134
1.00029
0.999982
0.999944
0.999958
0.999962
0.999957
0.999955
0.999964
0.999985
1.00001
1.00004
1.00005
1.00006
1.00005
1.00005
1.00004
1.01735
1.01903
1.01699
1.00324
0.973158
0.930203
0.883661
0.842534
0.812009
0.793749
0.787726
0.793749
0.812012
0.842545
0.883693
0.930271
0.973244
1.00319
1.0163
1.01659
1.01137
1.00599
1.00246
1.00072
1.00006
0.99987
0.999806
0.999744
0.999673
0.999616
0.999595
0.99962
0.999689
0.999785
0.999889
0.99998
1.00004
1.00007
1.00008
1.00008
1.0114
1.01457
1.01786
1.01577
1.00308
0.97869
0.947035
0.915185
0.889194
0.872619
0.866969
0.872619
0.889196
0.915194
0.947061
0.978752
1.00319
1.01587
1.01766
1.01337
1.00785
1.00365
1.00128
1.0002
0.999758
0.999521
0.999293
0.999046
0.99882
0.998663
0.998607
0.998665
0.998829
0.999075
0.999361
0.999637
0.999863
1.00002
1.0001
1.00014
1.00627
1.0093
1.01399
1.0175
1.0162
1.00756
0.992218
0.973767
0.95684
0.945217
0.941109
0.945217
0.956841
0.973772
0.992236
1.00761
1.0163
1.01766
1.01408
1.00893
1.00459
1.00181
1.00036
0.999623
0.999119
0.998599
0.998028
0.997472
0.997021
0.996732
0.996633
0.996733
0.997026
0.997491
0.998077
0.998702
0.999273
0.999717
1
1.00014
1.00271
1.00486
1.00872
1.01321
1.0165
1.01671
1.01298
1.00626
0.998818
0.993149
0.991047
0.993149
0.998818
1.00626
1.01299
1.01674
1.01659
1.01337
1.00893
1.00494
1.00215
1.00049
0.999499
0.998682
0.997772
0.996742
0.995724
0.994874
0.994281
0.993951
0.993848
0.993951
0.994283
0.994885
0.995759
0.996826
0.997931
0.998893
0.99958
0.99993
1.00073
1.00195
1.00436
1.0077
1.0113
1.01419
1.01557
1.01525
1.01385
1.0124
1.0118
1.0124
1.01385
1.01525
1.01558
1.01422
1.01137
1.00785
1.00459
1.00215
1.00055
0.999424
0.998341
0.99702
0.995473
0.993948
0.992756
0.992076
0.99186
0.99189
0.991932
0.99189
0.991861
0.992085
0.992785
0.99402
0.995619
0.997242
0.998534
0.99924
0.999899
1.00046
1.00166
1.00353
1.00592
1.00845
1.01067
1.01222
1.01305
1.01337
1.01345
1.01337
1.01305
1.01222
1.01068
1.00849
1.00599
1.00365
1.00181
1.00049
0.999424
0.998211
0.996572
0.994548
0.992554
0.991195
0.990927
0.991765
0.993228
0.994559
0.995091
0.99456
0.993231
0.991776
0.990958
0.991266
0.99268
0.994701
0.996603
0.997736
0.999705
0.999901
1.00037
1.00119
1.00238
1.00385
1.00538
1.00673
1.00774
1.00835
1.00855
1.00835
1.00774
1.00674
1.00539
1.00389
1.00246
1.00128
1.00036
0.999499
0.998341
0.996572
0.994211
0.991808
0.990367
0.990917
0.993923
0.998889
1.00442
1.00872
1.01034
1.00872
1.00442
0.998907
0.993964
0.990992
0.990456
0.991802
0.993813
0.995213
0.999763
0.999801
0.999921
1.00019
1.00065
1.00129
1.00204
1.00279
1.0034
1.00381
1.00395
1.00381
1.00341
1.0028
1.00207
1.00134
1.00072
1.0002
0.999623
0.998682
0.99702
0.994548
0.991808
0.990129
0.991311
0.99682
1.00688
1.01998
1.03308
1.04272
1.04626
1.04272
1.03309
1.02
1.00694
0.996893
0.991325
0.989843
0.990705
0.991825
0.999866
0.999856
0.999856
0.999901
1.00002
1.00023
1.00051
1.00081
1.00108
1.00127
1.00134
1.00127
1.00109
1.00083
1.00054
1.00029
1.00006
0.999758
0.999119
0.997772
0.995473
0.992554
0.990367
0.991311
0.998155
1.01278
1.03479
1.06085
1.08536
1.10262
1.10879
1.10262
1.08538
1.06089
1.03486
1.01283
0.998029
0.990596
0.988313
0.988198
0.99994
0.999925
0.999903
0.999886
0.999892
0.999929
0.999998
1.00009
1.00018
1.00024
1.00026
1.00024
1.00018
1.00011
1.00004
0.999982
0.99987
0.999521
0.998599
0.996742
0.993948
0.991195
0.990917
0.99682
1.01278
1.04094
1.07958
1.12206
1.15909
1.18328
1.19154
1.18329
1.15911
1.12212
1.07964
1.04094
1.01243
0.99554
0.987765
0.985241
0.999979
0.99997
0.999953
0.999933
0.999916
0.999908
0.999911
0.999923
0.99994
0.999954
0.99996
0.999957
0.99995
0.999949
0.999956
0.999944
0.999806
0.999293
0.998028
0.995724
0.992756
0.990927
0.993923
1.00688
1.03479
1.07958
1.13644
1.193
1.23592
1.25992
1.26722
1.25993
1.23595
1.19306
1.1365
1.07948
1.03416
1.00496
0.989678
0.98371
0.999995
0.999991
0.999982
0.999971
0.999959
0.999947
0.999938
0.999932
0.99993
0.99993
0.999931
0.999934
0.999943
0.999962
0.999983
0.999958
0.999744
0.999046
0.997472
0.994874
0.992076
0.991765
0.998889
1.01998
1.06085
1.12206
1.193
1.25335
1.28876
1.30223
1.30492
1.30224
1.28879
1.2534
1.19302
1.12184
1.0599
1.01741
0.993706
0.983782
1
0.999998
0.999995
0.99999
0.999984
0.999978
0.999972
0.999966
0.999962
0.99996
0.999961
0.999965
0.999977
0.999998
1.00001
0.999962
0.999673
0.99882
0.997021
0.994281
0.99186
0.993228
1.00442
1.03308
1.08536
1.15909
1.23592
1.28876
1.30761
1.3065
1.3037
1.30651
1.30763
1.28879
1.23589
1.15874
1.08411
1.02997
0.99855
0.984939
1
1
0.999999
0.999998
0.999996
0.999993
0.99999
0.999987
0.999985
0.999984
0.999985
0.99999
1
1.00002
1.00003
0.999957
0.999616
0.998663
0.996732
0.993951
0.99189
0.994559
1.00872
1.04272
1.10262
1.18328
1.25992
1.30223
1.3065
1.29461
1.28804
1.29462
1.30652
1.30225
1.25985
1.18284
1.10116
1.03927
1.00245
0.986231
1
1
1
1
0.999999
0.999998
0.999997
0.999996
0.999996
0.999995
0.999997
1
1.00001
1.00003
1.00004
0.999955
0.999595
0.998607
0.996633
0.993848
0.991932
0.995091
1.01034
1.04626
1.10879
1.19154
1.26722
1.30492
1.3037
1.28804
1.28021
1.28805
1.30372
1.30494
1.26714
1.19106
1.10726
1.04269
1.00394
0.98678
1
1
1
1
1
1
1
0.999999
0.999999
0.999999
1
1
1.00002
1.00003
1.00004
0.999964
0.99962
0.998665
0.996733
0.993951
0.99189
0.99456
1.00872
1.04272
1.10262
1.18329
1.25993
1.30224
1.30651
1.29462
1.28805
1.29463
1.30654
1.30226
1.25986
1.18285
1.10117
1.03927
1.00245
0.986232
1
1
1
1
1
1
1
1
1
1
1
1.00001
1.00001
1.00003
1.00004
0.999985
0.999689
0.998829
0.997026
0.994283
0.991861
0.993231
1.00442
1.03309
1.08538
1.15911
1.23595
1.28879
1.30763
1.30652
1.30372
1.30654
1.30766
1.28882
1.23592
1.15876
1.08413
1.02999
0.998556
0.984943
1
1
1
1
1
1
1
1
1
1
1
1
1.00001
1.00003
1.00004
1.00001
0.999785
0.999075
0.997491
0.994885
0.992085
0.991776
0.998907
1.02
1.06089
1.12212
1.19306
1.2534
1.28879
1.30225
1.30494
1.30226
1.28882
1.25345
1.19307
1.12189
1.05994
1.01744
0.993725
0.983796
1
1
1
1
1
1
1
1
1
1
1
1
1.00001
1.00003
1.00005
1.00004
0.999889
0.999361
0.998077
0.995759
0.992785
0.990958
0.993964
1.00694
1.03486
1.07964
1.1365
1.19302
1.23589
1.25985
1.26714
1.25986
1.23592
1.19307
1.13655
1.07955
1.03423
1.00501
0.989723
0.983749
1
1
1
1
1
1
1
1
1
1
1
1
1.00001
1.00002
1.00004
1.00005
0.99998
0.999637
0.998702
0.996826
0.99402
0.991266
0.990992
0.996893
1.01283
1.04094
1.07948
1.12184
1.15874
1.18284
1.19106
1.18285
1.15876
1.12189
1.07955
1.04093
1.01248
0.995619
0.987849
0.985325
1
1
1
1
1
1
1
1
1
1
1
1
1.00001
1.00002
1.00004
1.00006
1.00004
0.999863
0.999273
0.997931
0.995619
0.99268
0.990456
0.991325
0.998029
1.01243
1.03416
1.0599
1.08411
1.10116
1.10726
1.10117
1.08413
1.05994
1.03423
1.01248
0.997908
0.99062
0.988417
0.988335
1
1
1
1
1
1
1
1
1
1
1
1
1
1.00001
1.00003
1.00005
1.00007
1.00002
0.999717
0.998893
0.997242
0.994701
0.991802
0.989843
0.990596
0.99554
1.00496
1.01741
1.02997
1.03927
1.04269
1.03927
1.02999
1.01744
1.00501
0.995619
0.99062
0.989571
0.990711
0.991963
1
1
1
1
1
1
1
1
1
1
1
1
1
1.00001
1.00002
1.00005
1.00008
1.0001
1
0.99958
0.998534
0.996603
0.993813
0.990705
0.988313
0.987765
0.989678
0.993706
0.99855
1.00245
1.00394
1.00245
0.998556
0.993725
0.989723
0.987849
0.988417
0.990711
0.993398
0.995143
1
1
1
1
1
1
1
1
1
1
1
1
1
1
1.00001
1.00004
1.00008
1.00014
1.00014
0.99993
0.99924
0.997736
0.995213
0.991825
0.988198
0.985241
0.98371
0.983782
0.984939
0.986231
0.98678
0.986232
0.984943
0.983796
0.983749
0.985325
0.988335
0.991963
0.995143
0.996977
SCALARS C2 double 1
LOOKUP_TABLE default
2.50196
2.50031
2.49637
2.48934
2.47911
2.46674
2.45431
2.4439
2.4367
2.43272
2.43149
2.43272
2.4367
2.44391
2.45431
2.46673
2.47906
2.48918
2.49598
2.49959
2.50092
2.50103
2.50072
2.50038
2.50016
2.50006
2.50001
2.5
2.5
2.5
2.5
2.5
2.5
2.5
2.5
2.5
2.5
2.5
2.5
2.5
2.50031
2.49734
2.49096
2.48097
2.46845
2.45588
2.44616
2.44085
2.43941
2.43988
2.44031
2.43988
2.43941
2.44085
2.44615
2.45585
2.46836
2.48075
2.49051
2.49665
2.49966
2.50065
2.50069
2.50045
2.50022
2.50009
2.50003
2.5
2.5
2.5
2.5
2.5
2.5
2.5
2.5
2.5
2.5
2.5
2.5
2.5
2.49637
2.49096
2.4804
2.46632
2.45261
2.44437
2.44486
2.45322
2.46506
2.47495
2.47875
2.47495
2.46506
2.45322
2.44484
2.44432
2.45246
2.466
2.47989
2.49047
2.49675
2.49962
2.50049
2.50051
2.50031
2.50014
2.50005
2.50001
2.5
2.5
2.5
2.5
2.5
2.5
2.5
2.5
2.5
2.5
2.5
2.5
2.48934
2.48097
2.46632
2.45079
2.44276
2.44939
2.47155
2.50314
2.5347
2.55746
2.5657
2.55746
2.5347
2.50313
2.47152
2.4493
2.44255
2.4504
2.46586
2.4811
2.49181
2.49757
2.4999
2.50047
2.5004
2.50022
2.50009
2.50003
2.50001
2.5
2.5
2.5
2.5
2.5
2.5
2.5
2.5
2.5
2.5
2.5
2.47911
2.46845
2.45261
2.44276
2.45157
2.48492
2.53764
2.59713
2.64989
2.68554
2.69807
2.68554
2.64988
2.59712
2.5376
2.4848
2.45131
2.44237
2.45245
2.4698
2.48492
2.4943
2.49872
2.50021
2.50043
2.50029
2.50014
2.50005
2.50001
2.5
2.5
2.5
2.5
2.5
2.5
2.5
2.5
2.5
2.5
2.5
2.46674
2.45588
2.44437
2.44939
2.48492
2.55144
2.63615
2.72136
2.79183
2.83754
2.8533
2.83754
2.79183
2.72134
2.6361
2.5513
2.48464
2.44909
2.44478
2.45909
2.47695
2.48998
2.49692
2.49967
2.50036
2.50034
2.50018
2.50007
2.50002
2.5
2.5
2.5
2.5
2.5
2.5
2.5
2.5
2.5
2.5
2.5
2.45431
2.44616
2.44486
2.47155
2.53764
2.63615
2.74785
2.85239
2.93487
2.98681
3.00445
2.98681
2.93486
2.85238
2.74779
2.63599
2.53736
2.47142
2.44605
2.45162
2.46933
2.4852
2.49468
2.49889
2.50019
2.50035
2.50022
2.5001
2.50003
2.50001
2.5
2.5
2.5
2.5
2.5
2.5
2.5
2.5
2.5
2.5
2.4439
2.44085
2.45322
2.50314
2.59713
2.72136
2.85239
2.96919
3.05824
3.11305
3.13146
3.11305
3.05823
2.96917
2.85233
2.72119
2.59688
2.50323
2.45525
2.44856
2.46334
2.48073
2.49236
2.49798
2.49995
2.50033
2.50024
2.50012
2.50004
2.50001
2.5
2.5
2.5
2.5
2.5
2.5
2.5
2.5
2.5
2.5
2.4367
2.43941
2.46506
2.5347
2.64989
2.79183
2.93487
3.05824
3.15001
3.20554
3.22401
3.20554
3.15001
3.05822
2.9348
2.79166
2.64965
2.53498
2.46783
2.44898
2.45951
2.47723
2.49037
2.49714
2.49969
2.50029
2.50026
2.50013
2.50005
2.50001
2.5
2.5
2.5
2.5
2.5
2.5
2.5
2.5
2.5
2.5
2.43272
2.43988
2.47495
2.55746
2.68554
2.83754
2.98681
3.11305
3.20554
3.26085
3.27912
3.26085
3.20553
3.11304
2.98674
2.83738
2.68533
2.55787
2.47821
2.45066
2.45758
2.47506
2.48904
2.49655
2.4995
2.50025
2.50026
2.50014
2.50006
2.50002
2.5
2.5
2.5
2.5
2.5
2.5
2.5
2.5
2.5
2.5
2.43149
2.44031
2.47875
2.5657
2.69807
2.8533
3.00445
3.13146
3.22401
3.27912
3.2973
3.27912
3.224
3.13144
3.00438
2.85313
2.69787
2.56616
2.48218
2.4515
2.45702
2.47433
2.48858
2.49634
2.49943
2.50024
2.50027
2.50014
2.50006
2.50002
2.5
2.5
2.5
2.5
2.5
2.5
2.5
2.5
2.5
2.5
2.43272
2.43988
2.47495
2.55746
2.68554
2.83754
2.98681
3.11305
3.20554
3.26085
3.27912
3.26084
3.20553
3.11304
2.98674
2.83738
2.68533
2.55787
2.47821
2.45067
2.45758
2.47506
2.48904
2.49655
2.4995
2.50025
2.50026
2.50014
2.50005
2.50001
2.5
2.49999
2.5
2.5
2.5
2.5
2.5
2.5
2.5
2.5
2.4367
2.43941
2.46506
2.5347
2.64988
2.79183
2.93486
3.05823
3.15001
3.20553
3.224
3.20553
3.15
3.05821
2.9348
2.79166
2.64965
2.53498
2.46783
2.44898
2.45951
2.47723
2.49037
2.49714
2.49969
2.50028
2.50025
2.50012
2.50003
2.49999
2.49998
2.49998
2.49998
2.49999
2.49999
2.49999
2.5
2.5
2.5
2.5
2.44391
2.44085
2.45322
2.50313
2.59712
2.72134
2.85238
2.96917
3.05822
3.11304
3.13144
3.11304
3.05821
2.96915
2.85231
2.72118
2.59687
2.50322
2.45525
2.44856
2.46334
2.48073
2.49236
2.49797
2.49993
2.5003
2.50021
2.50007
2.49999
2.49996
2.49994
2.49994
2.49995
2.49996
2.49996
2.49997
2.49998
2.49999
2.5
2.5
2.45431
2.44615
2.44484
2.47152
2.5376
2.6361
2.74779
2.85233
2.9348
2.98674
3.00438
2.98674
2.9348
2.85231
2.74773
2.63594
2.53732
2.47139
2.44604
2.45161
2.46933
2.48519
2.49467
2.49885
2.50014
2.50028
2.50013
2.49999
2.49992
2.49989
2.49988
2.49988
2.49989
2.4999
2.49991
2.49993
2.49995
2.49997
2.49998
2.49999
2.46673
2.45585
2.44432
2.4493
2.4848
2.5513
2.63599
2.72119
2.79166
2.83738
2.85313
2.83738
2.79166
2.72118
2.63594
2.55116
2.48452
2.449
2.44473
2.45906
2.47692
2.48995
2.49687
2.49959
2.50025
2.50019
2.50001
2.4999
2.49985
2.49984
2.49984
2.49983
2.49983
2.49983
2.49983
2.49985
2.49988
2.49992
2.49994
2.49996
2.47906
2.46836
2.45246
2.44255
2.45131
2.48464
2.53736
2.59688
2.64965
2.68533
2.69787
2.68533
2.64965
2.59687
2.53732
2.48452
2.45104
2.44215
2.4523
2.4697
2.48483
2.49421
2.49859
2.50004
2.50022
2.50007
2.49995
2.49993
2.49996
2.50001
2.50003
2.50001
2.49995
2.49988
2.49982
2.49978
2.49979
2.49982
2.49986
2.49989
2.48918
2.48075
2.466
2.4504
2.44237
2.44909
2.47142
2.50323
2.53498
2.55787
2.56616
2.55787
2.53498
2.50322
2.47139
2.449
2.44215
2.45
2.46553
2.48085
2.4916
2.49736
2.49965
2.50021
2.50018
2.50014
2.50025
2.50048
2.50075
2.50095
2.50103
2.50095
2.50074
2.50045
2.50016
2.49992
2.49978
2.49972
2.49973
2.49975
2.49598
2.49051
2.47989
2.46586
2.45245
2.44478
2.44605
2.45525
2.46783
2.47821
2.48218
2.47821
2.46783
2.45525
2.44604
2.44473
2.4523
2.46553
2.47935
2.48997
2.49632
2.49922
2.50015
2.50033
2.50048
2.50091
2.5016
2.50242
2.50317
2.50369
2.50388
2.50369
2.50317
2.5024
2.50155
2.50076
2.50016
2.49979
2.49961
2.49955
2.49959
2.49665
2.49047
2.4811
2.4698
2.45909
2.45162
2.44856
2.44898
2.45066
2.4515
2.45067
2.44898
2.44856
2.45161
2.45906
2.4697
2.48085
2.48997
2.49591
2.49893
2.50008
2.50047
2.50091
2.50183
2.50329
2.5051
2.50693
2.50846
2.50946
2.50981
2.50946
2.50846
2.50692
2.50507
2.50319
2.50158
2.50042
2.49973
2.49943
2.50092
2.49966
2.49675
2.49181
2.48492
2.47695
2.46933
2.46334
2.45951
2.45758
2.45702
2.45758
2.45951
2.46334
2.46933
2.47692
2.48483
2.4916
2.49632
2.49893
2.50006
2.50056
2.50128
2.50276
2.50519
2.50837
2.51177
2.51483
2.51715
2.51853
2.51899
2.51853
2.51715
2.51483
2.51175
2.50829
2.50499
2.50233
2.50056
2.4997
2.50103
2.50065
2.49962
2.49757
2.4943
2.48998
2.4852
2.48073
2.47723
2.47506
2.47433
2.47506
2.47723
2.48073
2.48519
2.48995
2.49421
2.49736
2.49922
2.50008
2.50056
2.50142
2.50335
2.50672
2.51136
2.51658
2.52137
2.52496
2.52708
2.52804
2.52829
2.52804
2.52708
2.52495
2.52134
2.51649
2.51115
2.50632
2.50279
2.50096
2.50072
2.50069
2.50049
2.4999
2.49872
2.49692
2.49468
2.49236
2.49037
2.48904
2.48858
2.48904
2.49037
2.49236
2.49467
2.49687
2.49859
2.49965
2.50015
2.50047
2.50128
2.50335
2.5073
2.51316
2.52008
2.52648
2.53076
2.53213
2.53118
2.52949
2.5287
2.52949
2.53118
2.53212
2.53071
2.52636
2.51984
2.51282
2.50708
2.50391
2.50038
2.50045
2.50051
2.50047
2.50021
2.49967
2.49889
2.49798
2.49714
2.49655
2.49634
2.49655
2.49714
2.49797
2.49885
2.49959
2.50004
2.50021
2.50033
2.50091
2.50276
2.50672
2.51316
2.52135
2.52919
2.53377
2.53278
2.52605
2.51619
2.50755
2.50414
2.50755
2.51618
2.52602
2.53269
2.53359
2.52893
2.52116
2.51361
2.50907
2.50016
2.50022
2.50031
2.5004
2.50043
2.50036
2.50019
2.49995
2.49969
2.4995
2.49943
2.4995
2.49969
2.49993
2.50014
2.50025
2.50022
2.50018
2.50048
2.50183
2.50519
2.51136
2.52008
2.52919
2.5346
2.53152
2.51701
2.49256
2.46476
2.44289
2.43463
2.44289
2.46474
2.4925
2.51689
2.5313
2.53436
2.52934
2.52165
2.51634
2.50006
2.50009
2.50014
2.50022
2.50029
2.50034
2.50035
2.50033
2.50029
2.50025
2.50024
2.50025
2.50028
2.5003
2.50028
2.50019
2.50007
2.50014
2.50091
2.50329
2.50837
2.51658
2.52648
2.53377
2.53152
2.51254
2.47363
2.41996
2.36511
2.32491
2.31029
2.3249
2.36508
2.41988
2.47346
2.5123
2.53142
2.53449
2.52962
2.5248
2.50001
2.50003
2.50005
2.50009
2.50014
2.50018
2.50022
2.50024
2.50026
2.50026
2.50027
2.50026
2.50025
2.50021
2.50013
2.50001
2.49995
2.50025
2.5016
2.5051
2.51177
2.52137
2.53076
2.53278
2.51701
2.47363
2.40076
2.3112
2.22859
2.17321
2.15414
2.17319
2.22855
2.3111
2.40056
2.47341
2.51715
2.5343
2.53578
2.53304
2.5
2.5
2.50001
2.50003
2.50005
2.50007
2.5001
2.50012
2.50013
2.50014
2.50014
2.50014
2.50012
2.50007
2.49999
2.4999
2.49993
2.50048
2.50242
2.50693
2.51483
2.52496
2.53213
2.52605
2.49256
2.41996
2.3112
2.19167
2.09442
2.03647
2.01793
2.03646
2.09437
2.19155
2.311
2.41982
2.49302
2.52848
2.53906
2.53975
2.5
2.5
2.5
2.50001
2.50001
2.50002
2.50003
2.50004
2.50005
2.50006
2.50006
2.50005
2.50003
2.49999
2.49992
2.49985
2.49996
2.50075
2.50317
2.50846
2.51715
2.52708
2.53118
2.51619
2.46476
2.36511
2.22859
2.09442
1.99896
1.94901
1.93434
1.94899
1.9989
2.0943
2.22841
2.36507
2.46557
2.51946
2.53973
2.54427
2.5
2.5
2.5
2.5
2.5
2.5
2.50001
2.50001
2.50001
2.50002
2.50002
2.50001
2.49999
2.49996
2.49989
2.49984
2.50001
2.50095
2.50369
2.50946
2.51853
2.52804
2.52949
2.50755
2.44289
2.32491
2.17321
2.03647
1.94901
1.90811
1.89706
1.90809
1.94896
2.03636
2.17304
2.32494
2.44395
2.51142
2.53912
2.54669
2.5
2.5
2.5
2.5
2.5
2.5
2.5
2.5
2.5
2.5
2.5
2.5
2.49998
2.49994
2.49988
2.49984
2.50003
2.50103
2.50388
2.50981
2.51899
2.52829
2.5287
2.50414
2.43463
2.31029
2.15414
2.01793
1.93434
1.89706
1.88738
1.89704
1.93429
2.01782
2.15399
2.31036
2.43579
2.50822
2.53871
2.54742
2.5
2.5
2.5
2.5
2.5
2.5
2.5
2.5
2.5
2.5
2.5
2.49999
2.49998
2.49994
2.49988
2.49983
2.50001
2.50095
2.50369
2.50946
2.51853
2.52804
2.52949
2.50755
2.44289
2.3249
2.17319
2.03646
1.94899
1.90809
1.89704
1.90807
1.94894
2.03634
2.17303
2.32494
2.44395
2.51142
2.53912
2.54669
2.5
2.5
2.5
2.5
2.5
2.5
2.5
2.5
2.5
2.5
2.5
2.5
2.49998
2.49995
2.49989
2.49983
2.49995
2.50074
2.50317
2.50846
2.51715
2.52708
2.53118
2.51618
2.46474
2.36508
2.22855
2.09437
1.9989
1.94896
1.93429
1.94894
1.99885
2.09425
2.22837
2.36504
2.46555
2.51945
2.53973
2.54427
2.5
2.5
2.5
2.5
2.5
2.5
2.5
2.5
2.5
2.5
2.5
2.5
2.49999
2.49996
2.4999
2.49983
2.49988
2.50045
2.5024
2.50692
2.51483
2.52495
2.53212
2.52602
2.4925
2.41988
2.3111
2.19155
2.0943
2.03636
2.01782
2.03634
2.09425
2.19143
2.3109
2.41973
2.49297
2.52845
2.53904
2.53974
2.5
2.5
2.5
2.5
2.5
2.5
2.5
2.5
2.5
2.5
2.5
2.5
2.49999
2.49996
2.49991
2.49983
2.49982
2.50016
2.50155
2.50507
2.51175
2.52134
2.53071
2.53269
2.51689
2.47346
2.40056
2.311
2.22841
2.17304
2.15399
2.17303
2.22837
2.3109
2.40037
2.47325
2.51702
2.53421
2.53572
2.533
2.5
2.5
2.5
2.5
2.5
2.5
2.5
2.5
2.5
2.5
2.5
2.5
2.49999
2.49997
2.49993
2.49985
2.49978
2.49992
2.50076
2.50319
2.50829
2.51649
2.52636
2.53359
2.5313
2.5123
2.47341
2.41982
2.36507
2.32494
2.31036
2.32494
2.36504
2.41973
2.47325
2.51206
2.53119
2.53431
2.52949
2.52469
2.5
2.5
2.5
2.5
2.5
2.5
2.5
2.5
2.5
2.5
2.5
2.5
2.5
2.49998
2.49995
2.49988
2.49979
2.49978
2.50016
2.50158
2.50499
2.51115
2.51984
2.52893
2.53436
2.53142
2.51715
2.49302
2.46557
2.44395
2.43579
2.44395
2.46555
2.49297
2.51702
2.53119
2.53413
2.52906
2.52138
2.51609
2.5
2.5
2.5
2.5
2.5
2.5
2.5
2.5
2.5
2.5
2.5
2.5
2.5
2.49999
2.49997
2.49992
2.49982
2.49972
2.49979
2.50042
2.50233
2.50632
2.51282
2.52116
2.52934
2.53449
2.5343
2.52848
2.51946
2.51142
2.50822
2.51142
2.51945
2.52845
2.53421
2.53431
2.52906
2.52094
2.51322
2.50863
2.5
2.5
2.5
2.5
2.5
2.5
2.5
2.5
2.5
2.5
2.5
2.5
2.5
2.5
2.49998
2.49994
2.49986
2.49973
2.49961
2.49973
2.50056
2.50279
2.50708
2.51361
2.52165
2.52962
2.53578
2.53906
2.53973
2.53912
2.53871
2.53912
2.53973
2.53904
2.53572
2.52949
2.52138
2.51322
2.50681
2.50334
2.5
2.5
2.5
2.5
2.5
2.5
2.5
2.5
2.5
2.5
2.5
2.5
2.5
2.5
2.49999
2.49996
2.49989
2.49975
2.49955
2.49943
2.4997
2.50096
2.50391
2.50907
2.51634
2.5248
2.53304
2.53975
2.54427
2.54669
2.54742
2.54669
2.54427
2.53974
2.533
2.52469
2.51609
2.50863
2.50334
2.50066
