# vtk DataFile Version 3.0
Brusselator Concentration Output
ASCII
DATASET STRUCTURED_POINTS
DIMENSIONS 40 40 1
ORIGIN 0.0 0.0 0.0
SPACING 0.005 0.005 1.0
POINT_DATA 1600
SCALARS C1 double 1
LOOKUP_TABLE default
0.648867
1.06301
3.31708
3.55038
2.87945
2.38253
2.01995
1.7622
1.59023
1.4918
1.4598
1.4919
1.59061
1.76337
2.02292
2.38861
2.88807
3.54826
3.57153
1.23946
0.662875
0.528479
0.470009
0.435057
0.414881
0.410855
0.433457
0.50824
0.677061
0.954235
1.2139
1.24019
1.12123
1.03755
1.00512
0.996963
0.996788
0.998166
0.999216
0.999691
1.06301
2.71771
3.31355
2.67436
2.19852
1.84088
1.57504
1.38377
1.25546
1.18191
1.158
1.182
1.25577
1.3847
1.5773
1.8452
2.20367
2.67164
3.26122
3.15379
1.08952
0.613537
0.503776
0.455661
0.429251
0.420798
0.438182
0.503116
0.651813
0.899373
1.14836
1.2143
1.12661
1.04574
1.00949
0.998685
0.997339
0.998316
0.999272
0.999738
3.31708
3.31355
2.53695
2.00993
1.62803
1.34867
1.14629
1.00463
0.912052
0.860048
0.843327
0.860115
0.912302
1.00537
1.14805
1.35184
1.63097
2.00377
2.49571
3.13403
3.05422
0.992866
0.591682
0.497457
0.455927
0.438028
0.445116
0.492308
0.607634
0.809911
1.04404
1.16677
1.13258
1.0599
1.0176
1.002
0.998458
0.998683
0.999462
0.999914
3.55038
2.67436
2.00993
1.55423
1.23293
1.00594
0.848707
0.743761
0.677996
0.642176
0.630845
0.642228
0.67819
0.744333
0.850063
1.00825
1.23437
1.54604
1.96494
2.52099
3.26079
2.41741
0.824623
0.562426
0.489339
0.457088
0.45086
0.478002
0.559159
0.717359
0.934317
1.1055
1.13262
1.07599
1.02801
1.00644
1.00003
0.999291
0.999875
1.00033
2.87945
2.19852
1.62803
1.23293
0.96296
0.7812
0.662048
0.586588
0.541314
0.517403
0.50996
0.517442
0.541458
0.587012
0.663041
0.782801
0.963283
1.22348
1.58362
2.06879
2.70886
3.56554
1.46577
0.670965
0.526786
0.475246
0.455592
0.465709
0.520124
0.643003
0.839434
1.03904
1.12179
1.08869
1.03808
1.01076
1.00141
0.999786
1.00033
1.0009
2.38253
1.84088
1.34867
1.00594
0.7812
0.638183
0.549628
0.496316
0.46562
0.449883
0.445062
0.449912
0.465727
0.496623
0.550332
0.639222
0.780728
0.995902
1.30651
1.73526
2.31305
3.08814
2.8069
0.880179
0.572246
0.493453
0.461245
0.458502
0.494061
0.590332
0.764478
0.973697
1.09828
1.09221
1.04345
1.0121
1.00061
0.998703
0.999683
1.00064
2.01995
1.57504
1.14629
0.848707
0.662048
0.549628
0.483586
0.445653
0.424679
0.414261
0.411127
0.414283
0.424759
0.445879
0.484086
0.550268
0.661065
0.8386
1.10721
1.49021
2.01453
2.7124
3.58881
1.25598
0.632946
0.512753
0.468276
0.45576
0.478079
0.554586
0.707502
0.913746
1.06382
1.08193
1.03853
1.00579
0.99367
0.992522
0.99468
0.996433
1.7622
1.38377
1.00463
0.743761
0.586588
0.496316
0.445653
0.417799
0.403037
0.395973
0.393897
0.395992
0.403101
0.417973
0.446018
0.496697
0.58531
0.733884
0.968744
1.31533
1.79873
2.45182
3.39646
1.7971
0.7117
0.532594
0.475735
0.455635
0.468668
0.531073
0.666605
0.864455
1.02541
1.05841
1.01989
0.987368
0.975695
0.975823
0.979418
0.982082
1.59023
1.25546
0.912052
0.677996
0.541314
0.46562
0.424679
0.403037
0.392054
0.387019
0.385582
0.387035
0.392108
0.40318
0.424963
0.465846
0.539883
0.668443
0.878859
1.1987
1.65307
2.27404
3.14863
2.40259
0.799648
0.550729
0.482346
0.456848
0.464246
0.518708
0.644785
0.83747
0.999816
1.03347
0.992865
0.958248
0.945275
0.944699
0.947934
0.950444
1.4918
1.18191
0.860048
0.642176
0.517403
0.449883
0.414261
0.395973
0.387019
0.383073
0.38198
0.383088
0.387068
0.396099
0.414502
0.450026
0.515902
0.632875
0.828622
1.13211
1.56901
2.17039
3.00035
2.82879
0.871787
0.563939
0.48755
0.459887
0.466887
0.523693
0.658338
0.864847
1.02853
1.04267
0.981694
0.933856
0.911474
0.90335
0.900931
0.90035
1.4598
1.158
0.843327
0.630845
0.50996
0.445062
0.411127
0.393897
0.385582
0.38198
0.380995
0.381994
0.38563
0.394018
0.411354
0.445179
0.508437
0.621633
0.81251
1.11052
1.54164
2.13667
2.95375
2.96416
0.899683
0.570282
0.493129
0.469481
0.487783
0.572904
0.765298
1.04427
1.23595
1.20058
1.06694
0.965088
0.905643
0.871671
0.852511
0.843644
1.4919
1.182
0.860115
0.642228
0.517442
0.449912
0.414283
0.395992
0.387035
0.383088
0.381994
0.383103
0.387084
0.396117
0.414523
0.450052
0.515934
0.632916
0.828694
1.13229
1.56952
2.17181
3.0048
2.82409
0.875253
0.573221
0.50702
0.502153
0.563424
0.740475
1.0733
1.47905
1.77661
1.77499
1.51699
1.24206
1.0407
0.911851
0.840013
0.809024
1.59061
1.25577
0.912302
0.67819
0.541458
0.465727
0.424759
0.403101
0.392108
0.387068
0.38563
0.387084
0.392162
0.403243
0.42504
0.465945
0.540015
0.668637
0.879201
1.19944
1.65484
2.27836
3.1602
2.41793
0.821968
0.586944
0.550682
0.594295
0.735766
0.970065
1.22266
1.50952
1.80722
2.04484
2.15265
2.04006
1.68474
1.27935
1.00343
0.882908
1.76337
1.3847
1.00537
0.744333
0.587012
0.496623
0.445879
0.417973
0.40318
0.396099
0.394018
0.396117
0.403243
0.418145
0.446238
0.496995
0.585737
0.734552
0.96992
1.31765
1.8037
2.46284
3.41773
1.88946
0.78654
0.637049
0.643841
0.706959
0.758746
0.818238
0.954583
1.14041
1.33014
1.50162
1.67273
1.88038
2.13102
2.24894
1.89974
1.5162
2.02292
1.5773
1.14805
0.850063
0.663041
0.550332
0.484086
0.446018
0.424963
0.414502
0.411354
0.414523
0.42504
0.446238
0.484577
0.550978
0.662156
0.840398
1.1104
1.49625
2.02641
2.73764
3.63968
1.47345
0.804528
0.709418
0.668851
0.603279
0.583632
0.62621
0.713106
0.817796
0.919533
1.01938
1.13868
1.30611
1.55099
1.90145
2.36397
2.74142
2.38861
1.8452
1.35184
1.00825
0.782801
0.639222
0.550268
0.496697
0.465846
0.450026
0.445179
0.450052
0.465945
0.496995
0.550978
0.64036
0.782767
0.999637
1.31346
1.74822
2.33624
3.12453
3.24624
1.22433
0.811099
0.651075
0.52794
0.474692
0.472831
0.503225
0.549799
0.599101
0.646208
0.698702
0.772237
0.886588
1.06558
1.33004
1.66281
1.93669
2.88807
2.20367
1.63097
1.23437
0.963283
0.780728
0.661065
0.58531
0.539883
0.515902
0.508437
0.515934
0.540015
0.585737
0.662156
0.782767
0.965009
1.22862
1.5949
2.08965
2.74231
3.55581
2.22158
1.00228
0.664392
0.4996
0.430168
0.410756
0.416224
0.434114
0.45568
0.475679
0.495132
0.520385
0.560555
0.628082
0.740445
0.913661
1.13227
1.30765
3.54826
2.67164
2.00377
1.54604
1.22348
0.995902
0.8386
0.733884
0.668443
0.632875
0.621633
0.632916
0.668637
0.734552
0.840398
0.999637
1.22862
1.54596
1.97327
2.53339
3.22478
3.32642
1.35336
0.710393
0.49574
0.415291
0.388499
0.38425
0.390454
0.400433
0.409645
0.416848
0.424156
0.435278
0.454941
0.490257
0.552088
0.65078
0.776567
0.876374
3.57153
3.26122
2.49571
1.96494
1.58362
1.30651
1.10721
0.968744
0.878859
0.828622
0.81251
0.828694
0.879201
0.96992
1.1104
1.31346
1.5949
1.97327
2.46579
3.06317
3.53242
1.81906
0.784315
0.504395
0.413321
0.382758
0.374884
0.376975
0.383075
0.389068
0.39294
0.395093
0.397145
0.40101
0.409134
0.425393
0.455623
0.504903
0.567346
0.616113
1.23946
3.15379
3.13403
2.52099
2.06879
1.73526
1.49021
1.31533
1.1987
1.13211
1.11052
1.13229
1.19944
1.31765
1.49625
1.74822
2.08965
2.53339
3.06317
3.50981
2.15495
0.860842
0.517314
0.416221
0.383417
0.374396
0.375602
0.381273
0.387422
0.391624
0.393455
0.393621
0.393069
0.392831
0.394318
0.399687
0.411814
0.432568
0.458451
0.478103
0.662875
1.08952
3.05422
3.26079
2.70886
2.31305
2.01453
1.79873
1.65307
1.56901
1.54164
1.56952
1.65484
1.8037
2.02641
2.33624
2.74231
3.22478
3.53242
2.15495
0.894739
0.526685
0.419628
0.385772
0.376777
0.378539
0.385402
0.393392
0.399771
0.403554
0.404854
0.404104
0.40183
0.398744
0.395863
0.394526
0.396109
0.401019
0.407526
0.412394
0.528479
0.613537
0.992866
2.41741
3.56554
3.08814
2.7124
2.45182
2.27404
2.17039
2.13667
2.17181
2.27836
2.46284
2.73764
3.12453
3.55581
3.32642
1.81906
0.860842
0.526685
0.421051
0.387471
0.379137
0.382079
0.390856
0.401579
0.411306
0.418614
0.423063
0.424551
0.423159
0.419258
0.413566
0.407067
0.400805
0.395496
0.391055
0.38711
0.384562
0.470009
0.503776
0.591682
0.824623
1.46577
2.8069
3.58881
3.39646
3.14863
3.00035
2.95375
3.0048
3.1602
3.41773
3.63968
3.24624
2.22158
1.35336
0.784315
0.517314
0.419628
0.387471
0.380069
0.384289
0.395084
0.408811
0.422539
0.434603
0.444079
0.450192
0.4523
0.450183
0.444255
0.435497
0.425158
0.414334
0.403548
0.392673
0.382365
0.375709
0.435057
0.455661
0.497457
0.562426
0.670965
0.880179
1.25598
1.7971
2.40259
2.82879
2.96416
2.82409
2.41793
1.88946
1.47345
1.22433
1.00228
0.710393
0.504395
0.416221
0.385772
0.379137
0.384289
0.396654
0.412992
0.430649
0.448058
0.464113
0.47746
0.486444
0.489623
0.486436
0.477535
0.464524
0.449289
0.433295
0.41714
0.400838
0.385811
0.376389
0.414881
0.429251
0.455927
0.489339
0.526786
0.572246
0.632946
0.7117
0.799648
0.871787
0.899683
0.875253
0.821968
0.78654
0.804528
0.811099
0.664392
0.49574
0.413321
0.383417
0.376777
0.382079
0.395084
0.412992
0.433609
0.455809
0.478846
0.501396
0.521104
0.534857
0.53983
0.534877
0.521209
0.501722
0.479564
0.456935
0.434663
0.412912
0.393634
0.381908
0.410855
0.420798
0.438028
0.457088
0.475246
0.493453
0.512753
0.532594
0.550729
0.563939
0.570282
0.573221
0.586944
0.637049
0.709418
0.651075
0.4996
0.415291
0.382758
0.374396
0.378539
0.390856
0.408811
0.430649
0.455809
0.484316
0.515757
0.548378
0.578408
0.600235
0.608318
0.600293
0.578594
0.548792
0.516398
0.484794
0.455043
0.42728
0.403694
0.389764
0.433457
0.438182
0.445116
0.45086
0.455592
0.461245
0.468276
0.475735
0.482346
0.48755
0.493129
0.50702
0.550682
0.643841
0.668851
0.52794
0.430168
0.388499
0.374884
0.375602
0.385402
0.401579
0.422539
0.448058
0.478846
0.515757
0.558947
0.606595
0.653164
0.688732
0.702289
0.68884
0.653468
0.607187
0.559713
0.516029
0.477112
0.44261
0.414526
0.398396
0.50824
0.503116
0.492308
0.478002
0.465709
0.458502
0.45576
0.455635
0.456848
0.459887
0.469481
0.502153
0.594295
0.706959
0.603279
0.474692
0.410756
0.38425
0.376975
0.381273
0.393392
0.411306
0.434603
0.464113
0.501396
0.548378
0.606595
0.675119
0.746677
0.804482
0.827243
0.804661
0.747146
0.675958
0.607583
0.548628
0.499125
0.457449
0.424868
0.406623
0.677061
0.651813
0.607634
0.559159
0.520124
0.494061
0.478079
0.468668
0.464246
0.466887
0.487783
0.563424
0.735766
0.758746
0.583632
0.472831
0.416224
0.390454
0.383075
0.387422
0.399771
0.418614
0.444079
0.47746
0.521104
0.578408
0.653164
0.746677
0.850729
0.939422
0.975435
0.939695
0.851406
0.747806
0.654405
0.578696
0.518498
0.470074
0.433487
0.41342
0.954235
0.899373
0.809911
0.717359
0.643003
0.590332
0.554586
0.531073
0.518708
0.523693
0.572904
0.740475
0.970065
0.818238
0.62621
0.503225
0.434114
0.400433
0.389068
0.391624
0.403554
0.423063
0.450192
0.486444
0.534857
0.600235
0.688732
0.804482
0.939422
1.05897
1.10856
1.05934
0.940294
0.805866
0.690183
0.600565
0.532046
0.478653
0.439235
0.417912
1.2139
1.14836
1.04404
0.934317
0.839434
0.764478
0.707502
0.666605
0.644785
0.658338
0.765298
1.0733
1.22266
0.954583
0.713106
0.549799
0.45568
0.409645
0.39294
0.393455
0.404854
0.424551
0.4523
0.489623
0.53983
0.608318
0.702289
0.827243
0.975435
1.10856
1.16417
1.10897
0.97639
0.828732
0.703826
0.60867
0.536956
0.481713
0.441263
0.419488
1.24019
1.2143
1.16677
1.1055
1.03904
0.973697
0.913746
0.864455
0.83747
0.864847
1.04427
1.47905
1.50952
1.14041
0.817796
0.599101
0.475679
0.416848
0.395093
0.393621
0.404104
0.423159
0.450183
0.486436
0.534877
0.600293
0.68884
0.804661
0.939695
1.05934
1.10897
1.05971
0.940568
0.806049
0.690301
0.600643
0.532099
0.478691
0.439262
0.417933
1.12123
1.12661
1.13258
1.13262
1.12179
1.09828
1.06382
1.02541
0.999816
1.02853
1.23595
1.77661
1.80722
1.33014
0.919533
0.646208
0.495132
0.424156
0.397145
0.393069
0.40183
0.419258
0.444255
0.477535
0.521209
0.578594
0.653468
0.747146
0.851406
0.940294
0.97639
0.940568
0.852087
0.748289
0.654737
0.578928
0.518665
0.470195
0.433575
0.413491
1.03755
1.04574
1.0599
1.07599
1.08869
1.09221
1.08193
1.05841
1.03347
1.04267
1.20058
1.77499
2.04484
1.50162
1.01938
0.698702
0.520385
0.435278
0.40101
0.392831
0.398744
0.413566
0.435497
0.464524
0.501722
0.548792
0.607187
0.675958
0.747806
0.805866
0.828732
0.806049
0.748289
0.676829
0.60823
0.549114
0.499495
0.457729
0.425083
0.406805
1.00512
1.00949
1.0176
1.02801
1.03808
1.04345
1.03853
1.01989
0.992865
0.981694
1.06694
1.51699
2.15265
1.67273
1.13868
0.772237
0.560555
0.454941
0.409134
0.394318
0.395863
0.407067
0.425158
0.449289
0.479564
0.516398
0.559713
0.607583
0.654405
0.690183
0.703826
0.690301
0.654737
0.60823
0.560559
0.51672
0.47768
0.443076
0.41492
0.398756
0.996963
0.998685
1.002
1.00644
1.01076
1.0121
1.00579
0.987368
0.958248
0.933856
0.965088
1.24206
2.04006
1.88038
1.30611
0.886588
0.628082
0.490257
0.425393
0.399687
0.394526
0.400805
0.414334
0.433295
0.456935
0.484794
0.516029
0.548628
0.578696
0.600565
0.60867
0.600643
0.578928
0.549114
0.51672
0.485125
0.455387
0.42765
0.404111
0.390222
0.996788
0.997339
0.998458
1.00003
1.00141
1.00061
0.99367
0.975695
0.945275
0.911474
0.905643
1.0407
1.68474
2.13102
1.55099
1.06558
0.740445
0.552088
0.455623
0.411814
0.396109
0.395496
0.403548
0.41714
0.434663
0.455043
0.477112
0.499125
0.518498
0.532046
0.536956
0.532099
0.518665
0.499495
0.47768
0.455387
0.433457
0.412086
0.393205
0.381743
0.998166
0.998316
0.998683
0.999291
0.999786
0.998703
0.992522
0.975823
0.944699
0.90335
0.871671
0.911851
1.27935
2.24894
1.90145
1.33004
0.913661
0.65078
0.504903
0.432568
0.401019
0.391055
0.392673
0.400838
0.412912
0.42728
0.44261
0.457449
0.470074
0.478653
0.481713
0.478691
0.470195
0.457729
0.443076
0.42765
0.412086
0.396478
0.382173
0.37321
0.999216
0.999272
0.999462
0.999875
1.00033
0.999683
0.99468
0.979418
0.947934
0.900931
0.852511
0.840013
1.00343
1.89974
2.36397
1.66281
1.13227
0.776567
0.567346
0.458451
0.407526
0.38711
0.382365
0.385811
0.393634
0.403694
0.414526
0.424868
0.433487
0.439235
0.441263
0.439262
0.433575
0.425083
0.41492
0.404111
0.393205
0.382173
0.371676
0.364819
0.999691
0.999738
0.999914
1.00033
1.0009
1.00064
0.996433
0.982082
0.950444
0.90035
0.843644
0.809024
0.882908
1.5162
2.74142
1.93669
1.30765
0.876374
0.616113
0.478103
0.412394
0.384562
0.375709
0.376389
0.381908
0.389764
0.398396
0.406623
0.41342
0.417912
0.419488
0.417933
0.413491
0.406805
0.398756
0.390222
0.381743
0.37321
0.364819
0.359151
SCALARS C2 double 1
LOOKUP_TABLE default
4.62788
4.45356
2.12457
0.839904
0.955013
1.10775
1.25396
1.38044
1.47756
1.53846
1.55917
1.5384
1.47736
1.37987
1.25267
1.10553
0.952322
0.836185
1.78522
4.33455
4.63399
4.56883
4.42278
4.23309
4.01107
3.76097
3.48172
3.16756
2.82244
2.51639
2.43206
2.64519
2.87955
2.98326
3.00981
3.0105
3.00613
3.00269
3.00091
3.00024
4.45356
2.72964
0.936096
1.03538
1.20175
1.36977
1.52433
1.65517
1.75405
1.81537
1.83611
1.81532
1.75385
1.65458
1.52296
1.36741
1.1992
1.03447
0.926497
2.1402
4.42619
4.6145
4.50809
4.33226
4.116
3.8678
3.58912
3.27684
2.93574
2.62495
2.49776
2.64198
2.8558
2.96912
3.00428
3.00887
3.00582
3.00269
3.00092
3.00022
2.12457
0.936096
1.08317
1.29194
1.50235
1.69876
1.87135
2.01214
2.11556
2.17851
2.1996
2.17846
2.11536
2.01151
1.86983
1.69612
1.49977
1.29343
1.09426
0.947699
2.25662
4.48242
4.60262
4.47279
4.27623
4.03803
3.76527
3.45896
3.12395
2.80131
2.60563
2.64341
2.81631
2.94299
2.99351
3.00549
3.00501
3.0025
3.00077
3.00002
0.839904
1.03538
1.29194
1.54927
1.79194
2.00834
2.19072
2.33453
2.43769
2.49961
2.52023
2.49958
2.43752
2.33392
2.18918
2.00558
1.78941
1.55233
1.31046
1.08519
0.944332
3.06461
4.5679
4.57715
4.41948
4.20162
3.94236
3.64723
3.32041
2.9862
2.7262
2.65773
2.77386
2.90929
2.97849
3.00038
3.00348
3.00185
3.00015
2.99932
0.955013
1.20175
1.50235
1.79194
2.05289
2.27586
2.45756
2.59782
2.69734
2.7568
2.77659
2.75678
2.6972
2.59729
2.45613
2.27318
2.05052
1.79623
1.52592
1.26006
1.0264
1.07678
4.08278
4.61051
4.51903
4.3267
4.08313
3.80019
3.48257
3.14405
2.8414
2.68835
2.74126
2.87495
2.9617
2.9944
3.00147
3.00066
2.99882
2.99779
1.10775
1.36977
1.69876
2.00834
2.27586
2.49685
2.6735
2.80891
2.90501
2.96258
2.98176
2.96256
2.90491
2.80847
2.6722
2.49433
2.27367
2.01344
1.72585
1.43205
1.15713
0.943846
2.53987
4.53561
4.58006
4.4174
4.18855
3.91597
3.6068
3.27018
2.94575
2.73466
2.72863
2.84969
2.94873
2.99076
3.00093
3.00011
2.99744
2.9958
1.25396
1.52433
1.87135
2.19072
2.45756
2.6735
2.84507
2.97695
3.07105
3.12769
3.14662
3.12768
3.07097
2.97656
2.84389
2.67112
2.45548
2.19622
1.90061
1.58796
1.28497
1.02243
1.19099
4.25941
4.60745
4.48256
4.26768
4.00377
3.70221
3.37129
3.04
2.79491
2.74304
2.84592
2.94989
2.99708
3.00765
3.00471
2.99959
2.99645
1.38044
1.65517
2.01214
2.33453
2.59782
2.80891
2.97695
3.10691
3.20023
3.25665
3.27555
3.25665
3.20017
3.10657
2.97585
2.80663
2.59576
2.34012
2.04249
1.71861
1.39593
1.10538
0.940071
3.70564
4.60261
4.52755
4.32624
4.07024
3.77654
3.4545
3.12649
2.86682
2.78759
2.87552
2.97866
3.02554
3.03258
3.0245
3.01469
3.0088
1.47756
1.75405
2.11556
2.43769
2.69734
2.90501
3.07105
3.20023
3.29345
3.34998
3.36895
3.34999
3.2934
3.19992
3.07001
2.90279
2.69526
2.44321
2.14631
1.8167
1.48123
1.17216
0.933194
2.99016
4.57247
4.55613
4.36738
4.11937
3.83522
3.52491
3.20525
2.94297
2.85577
2.94125
3.04394
3.08744
3.08861
3.07392
3.0585
3.0494
1.53846
1.81537
2.17851
2.49961
2.7568
2.96258
3.12769
3.25665
3.34998
3.40669
3.42574
3.4067
3.34994
3.25636
3.12668
2.96038
2.7547
2.50503
2.20934
1.87731
1.5348
1.21502
0.952999
2.44393
4.53698
4.57191
4.39351
4.15455
3.88215
3.58268
3.26385
2.99342
2.91217
3.0187
3.13434
3.18073
3.18082
3.16402
3.14668
3.13649
1.55917
1.83611
2.1996
2.52023
2.77659
2.98176
3.14662
3.27555
3.36895
3.42574
3.44482
3.42575
3.36891
3.27527
3.14562
2.97957
2.77447
2.52561
2.23045
1.89777
1.55301
1.22965
0.961489
2.26193
4.52193
4.5778
4.4069
4.17836
3.91514
3.60505
3.23114
2.8895
2.80597
2.98675
3.1748
3.26396
3.2895
3.28918
3.28217
3.27707
1.5384
1.81532
2.17846
2.49958
2.75678
2.96256
3.12768
3.25665
3.34999
3.4067
3.42575
3.4067
3.34994
3.25636
3.12667
2.96037
2.75469
2.50502
2.20933
1.87724
1.53457
1.21451
0.952098
2.45494
4.53627
4.57386
4.40747
4.18363
3.89308
3.45064
2.82202
2.28486
2.12489
2.37941
2.80511
3.12525
3.30743
3.39898
3.4396
3.4543
1.47736
1.75385
2.11536
2.43752
2.6972
2.90491
3.07097
3.20017
3.2934
3.34994
3.36891
3.34994
3.29335
3.19986
3.06993
2.9027
2.69515
2.44309
2.14612
1.8163
1.48039
1.17061
0.930855
2.98051
4.55911
4.55262
4.37796
4.10279
3.60516
2.81709
2.14314
1.76061
1.56528
1.5265
1.67518
2.07731
2.6837
3.21129
3.49355
3.59532
1.37987
1.65458
2.01151
2.33392
2.59729
2.80847
2.97656
3.10657
3.19992
3.25636
3.27527
3.25636
3.19986
3.10623
2.97548
2.80621
2.59529
2.33954
2.04165
1.71721
1.39358
1.10153
0.932934
3.60848
4.54908
4.48121
4.22919
3.72831
2.99776
2.45256
2.12533
1.90192
1.74809
1.64337
1.56323
1.50326
1.52491
1.85847
2.64985
3.20769
1.25267
1.52296
1.86983
2.18918
2.45613
2.6722
2.84389
2.97585
3.07001
3.12668
3.14562
3.12667
3.06993
2.97548
2.84274
2.66988
2.45407
2.19448
1.8982
1.58436
1.27968
1.01405
1.12113
4.02406
4.45347
4.27985
3.85715
3.26191
2.81727
2.54703
2.3595
2.2234
2.1221
2.03051
1.92421
1.78903
1.62316
1.44396
1.31043
1.31052
1.10553
1.36741
1.69612
2.00558
2.27318
2.49433
2.67112
2.80663
2.90279
2.96038
2.97957
2.96037
2.9027
2.80621
2.66988
2.49184
2.27081
2.00979
1.72079
1.42493
1.14736
0.927456
1.95024
4.1442
4.25742
3.98469
3.51065
3.12415
2.8917
2.74323
2.64638
2.58096
2.52237
2.44804
2.343
2.19627
1.99906
1.75557
1.5046
1.33336
0.952322
1.1992
1.49977
1.78941
2.05052
2.27367
2.45548
2.59576
2.69526
2.7547
2.77447
2.75469
2.69515
2.59529
2.45407
2.27081
2.04728
1.79128
1.51838
1.24962
1.01098
0.951622
3.11914
4.13501
4.08845
3.71751
3.36969
3.16085
3.04083
2.97849
2.94952
2.92659
2.88827
2.8238
2.72717
2.58985
2.39924
2.15182
1.88793
1.70874
0.836185
1.03447
1.29343
1.55233
1.79623
2.01344
2.19622
2.34012
2.44321
2.50503
2.52561
2.50502
2.44309
2.33954
2.19448
2.00979
1.79128
1.55051
1.30437
1.07456
0.912438
1.68927
3.84797
4.15249
3.87883
3.56298
3.37261
3.27469
3.24036
3.24248
3.25017
3.24128
3.20734
3.14665
3.05728
2.93266
2.76033
2.53268
2.28405
2.11285
1.78522
0.926497
1.09426
1.31046
1.52592
1.72585
1.90061
2.04249
2.14631
2.20934
2.23045
2.20933
2.14612
2.04165
1.8982
1.72079
1.51838
1.30437
1.09736
0.934208
1.15357
3.40013
4.17242
3.99529
3.70957
3.53701
3.45915
3.44964
3.47952
3.51466
3.53163
3.52293
3.48848
3.42914
3.34404
3.22825
3.07126
2.86509
2.63866
2.48194
4.33455
2.1402
0.947699
1.08519
1.26006
1.43205
1.58796
1.71861
1.8167
1.87731
1.89777
1.87724
1.8163
1.71721
1.58436
1.42493
1.24962
1.07456
0.934208
1.06378
3.03774
4.16195
4.06936
3.81232
3.65828
3.60017
3.61399
3.66975
3.73061
3.77198
3.78709
3.77647
3.74143
3.6827
3.59975
3.48892
3.34156
3.15021
2.94009
2.79431
4.63399
4.42619
2.25662
0.944332
1.0264
1.15713
1.28497
1.39593
1.48123
1.5348
1.55301
1.53457
1.48039
1.39358
1.27968
1.14736
1.01098
0.912438
1.15357
3.03774
4.15223
4.10484
3.87309
3.73829
3.70002
3.73619
3.81633
3.90147
3.96616
4.0044
4.01718
4.00572
3.9707
3.91252
3.83082
3.72279
3.58114
3.39874
3.19784
3.05754
4.56883
4.6145
4.48242
3.06461
1.07678
0.943846
1.02243
1.10538
1.17216
1.21502
1.22965
1.21451
1.17061
1.10153
1.01405
0.927456
0.951622
1.68927
3.40013
4.16195
4.10484
3.89318
3.77806
3.75965
3.81728
3.92037
4.02834
4.11506
4.17531
4.21063
4.22232
4.21089
4.17655
4.11939
4.03905
3.93318
3.79542
3.61868
3.42267
3.28444
4.42278
4.50809
4.60262
4.5679
4.08278
2.53987
1.19099
0.940071
0.933194
0.952999
0.961489
0.952098
0.930855
0.932934
1.12113
1.95024
3.11914
3.84797
4.17242
4.06936
3.87309
3.77806
3.77948
3.85772
3.9825
4.11204
4.21951
4.30016
4.35613
4.38915
4.40009
4.38924
4.35651
4.30154
4.2236
4.12046
3.98628
3.81391
3.62088
3.48322
4.23309
4.33226
4.47279
4.57715
4.61051
4.53561
4.25941
3.70564
2.99016
2.44393
2.26193
2.45494
2.98051
3.60848
4.02406
4.1442
4.13501
4.15249
3.99529
3.81232
3.73829
3.75965
3.85772
4.00315
4.15354
4.28104
4.38072
4.45498
4.50604
4.53571
4.54542
4.53578
4.50629
4.45564
4.38222
4.28343
4.15369
3.9857
3.79515
3.65764
4.01107
4.116
4.27623
4.41948
4.51903
4.58006
4.60745
4.60261
4.57247
4.53698
4.52193
4.53627
4.55911
4.54908
4.45347
4.25742
4.08845
3.87883
3.70957
3.65828
3.70002
3.81728
3.9825
4.15354
4.30131
4.41987
4.51105
4.5769
4.61989
4.64343
4.65082
4.64348
4.62007
4.57738
4.51195
4.42028
4.29678
4.13403
3.94624
3.80904
3.76097
3.8678
4.03803
4.20162
4.3267
4.4174
4.48256
4.52755
4.55613
4.57191
4.5778
4.57386
4.55262
4.48121
4.27985
3.98469
3.71751
3.56298
3.53701
3.60017
3.73619
3.92037
4.11204
4.28104
4.41987
4.52903
4.60915
4.66167
4.69071
4.70319
4.7063
4.7032
4.69077
4.66194
4.60981
4.52923
4.41456
4.25848
4.07414
3.93759
3.48172
3.58912
3.76527
3.94236
4.08313
4.18855
4.26768
4.32624
4.36738
4.39351
4.4069
4.40747
4.37796
4.22919
3.85715
3.51065
3.36969
3.37261
3.45915
3.61399
3.81633
4.02834
4.21951
4.38072
4.51105
4.60915
4.67355
4.70541
4.71142
4.70472
4.7002
4.70466
4.7113
4.70536
4.67389
4.60942
4.50657
4.35871
4.17857
4.04307
3.16756
3.27684
3.45896
3.64723
3.80019
3.91597
4.00377
4.07024
4.11937
4.15455
4.17836
4.18363
4.10279
3.72831
3.26191
3.12415
3.16085
3.27469
3.44964
3.66975
3.90147
4.11506
4.30016
4.45498
4.5769
4.66167
4.70541
4.70812
4.67924
4.64164
4.62438
4.64148
4.67887
4.70766
4.70533
4.66193
4.57342
4.43486
4.25939
4.1252
2.82244
2.93574
3.12395
3.32041
3.48257
3.6068
3.70221
3.77654
3.83522
3.88215
3.91514
3.89308
3.60516
2.99776
2.81727
2.8917
3.04083
3.24036
3.47952
3.73061
3.96616
4.17531
4.35613
4.50604
4.61989
4.69071
4.71142
4.67924
4.60531
4.52525
4.48986
4.52498
4.60466
4.67832
4.71089
4.69089
4.61721
4.48772
4.3167
4.18381
2.51639
2.62495
2.80131
2.9862
3.14405
3.27018
3.37129
3.4545
3.52491
3.58268
3.60505
3.45064
2.81709
2.45256
2.54703
2.74323
2.97849
3.24248
3.51466
3.77198
4.0044
4.21063
4.38915
4.53571
4.64343
4.70319
4.70472
4.64164
4.52525
4.40312
4.3493
4.40272
4.52433
4.64034
4.70383
4.7033
4.64128
4.51858
4.35083
4.21892
2.43206
2.49776
2.60563
2.7262
2.8414
2.94575
3.04
3.12649
3.20525
3.26385
3.23114
2.82202
2.14314
2.12533
2.3595
2.64638
2.94952
3.25017
3.53163
3.78709
4.01718
4.22232
4.40009
4.54542
4.65082
4.7063
4.7002
4.62438
4.48986
4.3493
4.28731
4.34885
4.48882
4.62292
4.69917
4.70638
4.64885
4.52871
4.36218
4.23063
2.64519
2.64198
2.64341
2.65773
2.68835
2.73466
2.79491
2.86682
2.94297
2.99342
2.8895
2.28486
1.76061
1.90192
2.2234
2.58096
2.92659
3.24128
3.52293
3.77647
4.00572
4.21089
4.38924
4.53578
4.64348
4.7032
4.70466
4.64148
4.52498
4.40272
4.34885
4.40233
4.52405
4.64018
4.70376
4.70329
4.64132
4.51867
4.35094
4.21904
2.87955
2.8558
2.81631
2.77386
2.74126
2.72863
2.74304
2.78759
2.85577
2.91217
2.80597
2.12489
1.56528
1.74809
2.1221
2.52237
2.88827
3.20734
3.48848
3.74143
3.9707
4.17655
4.35651
4.50629
4.62007
4.69077
4.7113
4.67887
4.60466
4.52433
4.48882
4.52405
4.60399
4.67794
4.71074
4.69092
4.61738
4.48801
4.31706
4.18419
2.98326
2.96912
2.94299
2.90929
2.87495
2.84969
2.84592
2.87552
2.94125
3.0187
2.98675
2.37941
1.5265
1.64337
2.03051
2.44804
2.8238
3.14665
3.42914
3.6827
3.91252
4.11939
4.30154
4.45564
4.57738
4.66194
4.70536
4.70766
4.67832
4.64034
4.62292
4.64018
4.67794
4.70717
4.70523
4.66216
4.57393
4.43559
4.26026
4.12611
3.00981
3.00428
2.99351
2.97849
2.9617
2.94873
2.94989
2.97866
3.04394
3.13434
3.1748
2.80511
1.67518
1.56323
1.92421
2.343
2.72717
3.05728
3.34404
3.59975
3.83082
4.03905
4.2236
4.38222
4.51195
4.60981
4.67389
4.70533
4.71089
4.70383
4.69917
4.70376
4.71074
4.70523
4.67418
4.61009
4.50755
4.35992
4.17998
4.04462
3.0105
3.00887
3.00549
3.00038
2.9944
2.99076
2.99708
3.02554
3.08744
3.18073
3.26396
3.12525
2.07731
1.50326
1.78903
2.19627
2.58985
2.93266
3.22825
3.48892
3.72279
3.93318
4.12046
4.28343
4.42028
4.52923
4.60942
4.66193
4.69089
4.7033
4.70638
4.70329
4.69092
4.66216
4.61009
4.52951
4.41473
4.25854
4.07442
3.9383
3.00613
3.00582
3.00501
3.00348
3.00147
3.00093
3.00765
3.03258
3.08861
3.18082
3.2895
3.30743
2.6837
1.52491
1.62316
1.99906
2.39924
2.76033
3.07126
3.34156
3.58114
3.79542
3.98628
4.15369
4.29678
4.41456
4.50657
4.57342
4.61721
4.64128
4.64885
4.64132
4.61738
4.57393
4.50755
4.41473
4.28994
4.12617
3.93855
3.80228
3.00269
3.00269
3.0025
3.00185
3.00066
3.00011
3.00471
3.0245
3.07392
3.16402
3.28918
3.39898
3.21129
1.85847
1.44396
1.75557
2.15182
2.53268
2.86509
3.15021
3.39874
3.61868
3.81391
3.9857
4.13403
4.25848
4.35871
4.43486
4.48772
4.51858
4.52871
4.51867
4.48801
4.43559
4.35992
4.25854
4.12617
3.95619
3.76504
3.62772
3.00091
3.00092
3.00077
3.00015
2.99882
2.99744
2.99959
3.01469
3.0585
3.14668
3.28217
3.4396
3.49355
2.64985
1.31043
1.5046
1.88793
2.28405
2.63866
2.94009
3.19784
3.42267
3.62088
3.79515
3.94624
4.07414
4.17857
4.25939
4.3167
4.35083
4.36218
4.35094
4.31706
4.26026
4.17998
4.07442
3.93855
3.76504
3.5688
3.42639
3.00024
3.00022
3.00002
2.99932
2.99779
2.9958
2.99645
3.0088
3.0494
3.13649
3.27707
3.4543
3.59532
3.20769
1.31052
1.33336
1.70874
2.11285
2.48194
2.79431
3.05754
3.28444
3.48322
3.65764
3.80904
3.93759
4.04307
4.1252
4.18381
4.21892
4.23063
4.21904
4.18419
4.12611
4.04462
3.9383
3.80228
3.62772
3.42639
3.2786
