# vtk DataFile Version 3.0
Brusselator Concentration Output
ASCII
DATASET STRUCTURED_POINTS
DIMENSIONS 40 40 1
ORIGIN 0.0 0.0 0.0
SPACING 0.005 0.005 1.0
POINT_DATA 1600
SCALARS C1 double 1
LOOKUP_TABLE default
1.00001
1.00003
1.00008
1.00018
1.00035
1.00059
1.0008
1.00089
1.00081
1.00065
1.00058
1.00065
1.00081
1.00089
1.0008
1.00059
1.00035
1.00018
1.00008
1.00003
1.00001
1
1
1
1
1
1
1
1
1
1
1
1
1
1
1
1
1
1
1
1.00003
1.00007
1.00016
1.00035
1.0006
1.0008
1.0007
1.00011
0.999137
0.99823
0.997867
0.99823
0.999137
1.00011
1.0007
1.0008
1.0006
1.00034
1.00016
1.00007
1.00002
1.00001
1
1
1
1
1
1
1
1
1
1
1
1
1
1
1
1
1
1
1.00008
1.00016
1.00036
1.00067
1.00088
1.00051
0.998884
0.99577
0.991973
0.98895
0.987822
0.98895
0.991973
0.99577
0.998884
1.00051
1.00088
1.00066
1.00036
1.00016
1.00006
1.00002
1.00001
1
1
1
1
1
1
1
1
1
1
1
1
1
1
1
1
1
1.00018
1.00035
1.00067
1.00092
1.00036
0.997544
0.99122
0.98188
0.972272
0.965529
0.963183
0.965529
0.972272
0.98188
0.99122
0.997544
1.00036
1.00092
1.00066
1.00033
1.00013
1.00005
1.00001
1
1
1
1
1
1
1
1
1
1
1
1
1
1
1
1
1
1.00035
1.0006
1.00088
1.00036
0.996945
0.987814
0.971864
0.952355
0.9355
0.925506
0.92241
0.925506
0.9355
0.952355
0.971864
0.987813
0.996944
1.00035
1.00088
1.00057
1.00026
1.0001
1.00003
1.00001
1
1
1
1
1
1
1
1
1
1
1
1
1
1
1
1
1.00059
1.0008
1.00051
0.997544
0.987814
0.96762
0.938588
0.909447
0.889966
0.882465
0.881208
0.882465
0.889966
0.909447
0.938588
0.96762
0.987813
0.99754
1.0005
1.00074
1.00042
1.00017
1.00006
1.00002
1
1
1
1
1
1
1
1
1
1
1
1
1
1
1
1
1.0008
1.0007
0.998884
0.99122
0.971864
0.938588
0.899148
0.869145
0.860587
0.869838
0.876997
0.869838
0.860587
0.869145
0.899148
0.938588
0.971862
0.991213
0.998855
1.00061
1.00054
1.00026
1.00009
1.00003
1.00001
1
1
1
1
1
1
1
1
1
1
1
1
1
1
1
1.00089
1.00011
0.99577
0.98188
0.952355
0.909447
0.869145
0.854723
0.882786
0.942257
0.97599
0.942257
0.882786
0.854723
0.869145
0.909447
0.952352
0.981868
0.995727
0.99998
1.00056
1.00033
1.00013
1.00004
1.00001
1
1
1
1
1
1
1
1
1
1
1
1
1
1
1
1.00081
0.999137
0.991973
0.972272
0.9355
0.889966
0.860587
0.882786
0.993621
1.18412
1.29286
1.18412
0.993621
0.882786
0.860587
0.889965
0.935496
0.972256
0.991917
0.998971
1.00043
1.00037
1.00017
1.00006
1.00002
1
1
1
1
1
1
1
1
1
1
1
1
1
1
1
1.00065
0.99823
0.98895
0.965529
0.925506
0.882465
0.869838
0.942257
1.18412
1.59579
1.80662
1.59579
1.18412
0.942257
0.869838
0.882464
0.925502
0.96551
0.988885
0.998045
1.00027
1.00038
1.00019
1.00007
1.00002
1
1
1
1
1
1
1
1
1
1
1
1
1
1
1
1.00058
0.997867
0.987822
0.963183
0.92241
0.881208
0.876997
0.97599
1.29286
1.80662
2.0267
1.80662
1.29286
0.97599
0.876997
0.881207
0.922405
0.963163
0.987754
0.997675
1.0002
1.00038
1.00019
1.00007
1.00002
1.00001
1
1
1
1
1
1
1
1
1
1
1
1
1
1
1.00065
0.99823
0.98895
0.965529
0.925506
0.882465
0.869838
0.942257
1.18412
1.59579
1.80662
1.59579
1.18412
0.942257
0.869838
0.882464
0.925502
0.96551
0.988885
0.998045
1.00027
1.00038
1.00019
1.00007
1.00002
1
1
1
1
1
1
1
1
1
1
1
1
1
1
1
1.00081
0.999137
0.991973
0.972272
0.9355
0.889966
0.860587
0.882786
0.993621
1.18412
1.29286
1.18412
0.993621
0.882786
0.860587
0.889965
0.935496
0.972256
0.991917
0.998971
1.00043
1.00037
1.00017
1.00006
1.00002
1
1
1
1
1
1
1
1
1
1
1
1
1
1
1
1.00089
1.00011
0.99577
0.98188
0.952355
0.909447
0.869145
0.854723
0.882786
0.942257
0.97599
0.942257
0.882786
0.854723
0.869145
0.909447
0.952352
0.981868
0.995727
0.99998
1.00056
1.00033
1.00013
1.00004
1.00001
1
1
1
1
1
1
1
1
1
1
1
1
1
1
1
1.0008
1.0007
0.998884
0.99122
0.971864
0.938588
0.899148
0.869145
0.860587
0.869838
0.876997
0.869838
0.860587
0.869145
0.899148
0.938588
0.971862
0.991213
0.998855
1.00061
1.00054
1.00026
1.00009
1.00003
1.00001
1
1
1
1
1
1
1
1
1
1
1
1
1
1
1
1.00059
1.0008
1.00051
0.997544
0.987813
0.96762
0.938588
0.909447
0.889965
0.882464
0.881207
0.882464
0.889965
0.909447
0.938588
0.967619
0.987812
0.99754
1.0005
1.00074
1.00042
1.00017
1.00006
1.00002
1
1
1
0.999999
0.999999
0.999999
0.999998
0.999999
0.999999
0.999999
0.999999
1
1
1
1
1
1.00035
1.0006
1.00088
1.00036
0.996944
0.987813
0.971862
0.952352
0.935496
0.925502
0.922405
0.925502
0.935496
0.952352
0.971862
0.987812
0.996944
1.00035
1.00088
1.00057
1.00026
1.0001
1.00003
1.00001
1
0.999999
0.999998
0.999996
0.999995
0.999994
0.999994
0.999994
0.999995
0.999996
0.999998
0.999999
0.999999
1
1
1
1.00018
1.00034
1.00066
1.00092
1.00035
0.99754
0.991213
0.981868
0.972256
0.96551
0.963163
0.96551
0.972256
0.981868
0.991213
0.99754
1.00035
1.00092
1.00066
1.00033
1.00013
1.00005
1.00001
1
0.999998
0.999995
0.999991
0.999987
0.999982
0.999979
0.999978
0.999979
0.999982
0.999987
0.999991
0.999995
0.999998
0.999999
1
1
1.00008
1.00016
1.00036
1.00066
1.00088
1.0005
0.998855
0.995727
0.991917
0.988885
0.987754
0.988885
0.991917
0.995727
0.998855
1.0005
1.00088
1.00066
1.00036
1.00016
1.00006
1.00002
1
0.999997
0.999991
0.999983
0.999971
0.999958
0.999946
0.999938
0.999935
0.999938
0.999946
0.999958
0.999971
0.999983
0.999991
0.999996
0.999998
0.999999
1.00003
1.00007
1.00016
1.00033
1.00057
1.00074
1.00061
0.99998
0.998971
0.998045
0.997675
0.998045
0.998971
0.99998
1.00061
1.00074
1.00057
1.00033
1.00016
1.00006
1.00002
1
0.999996
0.999987
0.999971
0.999947
0.999916
0.999886
0.999865
0.999855
0.999853
0.999855
0.999865
0.999886
0.999916
0.999947
0.999971
0.999986
0.999994
0.999997
1.00001
1.00002
1.00006
1.00013
1.00026
1.00042
1.00054
1.00056
1.00043
1.00027
1.0002
1.00027
1.00043
1.00056
1.00054
1.00042
1.00026
1.00013
1.00006
1.00002
1.00001
0.999996
0.999983
0.99996
0.999919
0.999861
0.999803
0.99977
0.999776
0.999805
0.999821
0.999805
0.999776
0.99977
0.999803
0.999861
0.999919
0.999959
0.999982
0.999991
1
1.00001
1.00002
1.00005
1.0001
1.00017
1.00026
1.00033
1.00037
1.00038
1.00038
1.00038
1.00037
1.00033
1.00026
1.00017
1.0001
1.00005
1.00002
1
0.999996
0.999982
0.999952
0.999895
0.999808
0.999716
0.999686
0.999796
1.00004
1.00031
1.00042
1.00031
1.00004
0.999796
0.999686
0.999716
0.999808
0.999895
0.99995
0.999974
1
1
1.00001
1.00001
1.00003
1.00006
1.00009
1.00013
1.00017
1.00019
1.00019
1.00019
1.00017
1.00013
1.00009
1.00006
1.00003
1.00001
1
0.999996
0.999983
0.999952
0.999886
0.999774
0.99965
0.999643
0.999986
1.00085
1.0021
1.00321
1.00365
1.00321
1.0021
1.00085
0.999986
0.999643
0.999649
0.999772
0.99988
0.999935
1
1
1
1
1.00001
1.00002
1.00003
1.00004
1.00006
1.00007
1.00007
1.00007
1.00006
1.00004
1.00003
1.00002
1.00001
1
0.999997
0.999987
0.99996
0.999895
0.999774
0.999625
0.999633
1.00026
1.00212
1.00549
1.00959
1.01282
1.014
1.01282
1.00959
1.00549
1.00212
1.00026
0.999632
0.999621
0.99976
0.999855
1
1
1
1
1
1
1.00001
1.00001
1.00002
1.00002
1.00002
1.00002
1.00002
1.00001
1.00001
1
1
0.999998
0.999991
0.999971
0.999919
0.999808
0.99965
0.999633
1.00039
1.00314
1.00921
1.01844
1.02794
1.03416
1.03613
1.03416
1.02794
1.01844
1.00921
1.00314
1.00038
0.999624
0.999621
0.999726
1
1
1
1
1
1
1
1
1
1
1.00001
1
1
1
1
1
0.999999
0.999995
0.999983
0.999947
0.999861
0.999716
0.999643
1.00026
1.00314
1.01088
1.0252
1.04305
1.05617
1.06042
1.06066
1.06042
1.05617
1.04305
1.0252
1.01088
1.00313
1.00024
0.99959
0.999577
1
1
1
1
1
1
1
1
1
1
1
1
1
1
1
1
0.999998
0.999991
0.999971
0.999916
0.999803
0.999686
0.999986
1.00212
1.00921
1.0252
1.04943
1.06919
1.06851
1.0533
1.04527
1.0533
1.06851
1.06919
1.04943
1.0252
1.00921
1.00209
0.999902
0.99949
1
1
1
1
1
1
1
1
1
1
1
1
1
1
1
0.999999
0.999996
0.999987
0.999958
0.999886
0.99977
0.999796
1.00085
1.00549
1.01844
1.04305
1.06919
1.06724
1.02424
0.973884
0.953972
0.973884
1.02424
1.06724
1.06918
1.04304
1.01843
1.00545
1.00074
0.999566
1
1
1
1
1
1
1
1
1
1
1
1
1
1
1
0.999999
0.999995
0.999982
0.999946
0.999865
0.999776
1.00004
1.0021
1.00959
1.02794
1.05617
1.06851
1.02424
0.933591
0.856133
0.829134
0.856133
0.933591
1.02424
1.06851
1.05617
1.02792
1.00953
1.00197
0.999821
1
1
1
1
1
1
1
1
1
1
1
1
1
1
1
0.999999
0.999994
0.999979
0.999938
0.999855
0.999805
1.00031
1.00321
1.01282
1.03416
1.06042
1.0533
0.973884
0.856133
0.768603
0.740226
0.768603
0.856133
0.973884
1.0533
1.06041
1.03414
1.01276
1.00307
1.00011
1
1
1
1
1
1
1
1
1
1
1
1
1
1
1
0.999998
0.999994
0.999978
0.999935
0.999853
0.999821
1.00042
1.00365
1.014
1.03613
1.06066
1.04527
0.953972
0.829134
0.740226
0.712179
0.740226
0.829134
0.953972
1.04526
1.06065
1.03611
1.01393
1.0035
1.00024
1
1
1
1
1
1
1
1
1
1
1
1
1
1
1
0.999999
0.999994
0.999979
0.999938
0.999855
0.999805
1.00031
1.00321
1.01282
1.03416
1.06042
1.0533
0.973884
0.856133
0.768603
0.740226
0.768603
0.856133
0.973884
1.0533
1.06041
1.03414
1.01276
1.00307
1.00011
1
1
1
1
1
1
1
1
1
1
1
1
1
1
1
0.999999
0.999995
0.999982
0.999946
0.999865
0.999776
1.00004
1.0021
1.00959
1.02794
1.05617
1.06851
1.02424
0.933591
0.856133
0.829134
0.856133
0.933591
1.02424
1.06851
1.05617
1.02792
1.00953
1.00197
0.999821
1
1
1
1
1
1
1
1
1
1
1
1
1
1
1
0.999999
0.999996
0.999987
0.999958
0.999886
0.99977
0.999796
1.00085
1.00549
1.01844
1.04305
1.06919
1.06724
1.02424
0.973884
0.953972
0.973884
1.02424
1.06724
1.06918
1.04304
1.01843
1.00545
1.00074
0.999566
1
1
1
1
1
1
1
1
1
1
1
1
1
1
1
0.999999
0.999998
0.999991
0.999971
0.999916
0.999803
0.999686
0.999986
1.00212
1.00921
1.0252
1.04943
1.06918
1.06851
1.0533
1.04526
1.0533
1.06851
1.06918
1.04943
1.0252
1.00921
1.00209
0.999902
0.999489
1
1
1
1
1
1
1
1
1
1
1
1
1
1
1
1
0.999999
0.999995
0.999983
0.999947
0.999861
0.999716
0.999643
1.00026
1.00314
1.01088
1.0252
1.04304
1.05617
1.06041
1.06065
1.06041
1.05617
1.04304
1.0252
1.01087
1.00313
1.00024
0.99959
0.999577
1
1
1
1
1
1
1
1
1
1
1
1
1
1
1
1
0.999999
0.999998
0.999991
0.999971
0.999919
0.999808
0.999649
0.999632
1.00038
1.00313
1.00921
1.01843
1.02792
1.03414
1.03611
1.03414
1.02792
1.01843
1.00921
1.00313
1.00038
0.999623
0.99962
0.999726
1
1
1
1
1
1
1
1
1
1
1
1
1
1
1
1
1
0.999999
0.999996
0.999986
0.999959
0.999895
0.999772
0.999621
0.999624
1.00024
1.00209
1.00545
1.00953
1.01276
1.01393
1.01276
1.00953
1.00545
1.00209
1.00024
0.999623
0.999617
0.999759
0.999854
1
1
1
1
1
1
1
1
1
1
1
1
1
1
1
1
1
1
0.999998
0.999994
0.999982
0.99995
0.99988
0.99976
0.999621
0.99959
0.999902
1.00074
1.00197
1.00307
1.0035
1.00307
1.00197
1.00074
0.999902
0.99959
0.99962
0.999759
0.999875
0.999932
1
1
1
1
1
1
1
1
1
1
1
1
1
1
1
1
1
1
0.999999
0.999997
0.999991
0.999974
0.999935
0.999855
0.999726
0.999577
0.99949
0.999566
0.999821
1.00011
1.00024
1.00011
0.999821
0.999566
0.999489
0.999577
0.999726
0.999854
0.999932
0.999966
SCALARS C2 double 1
LOOKUP_TABLE default
2.99999
2.99997
2.99992
2.99979
2.99954
2.99915
2.99865
2.99819
2.9979
2.99781
2.9978
2.99781
2.9979
2.99819
2.99865
2.99915
2.99954
2.99979
2.99992
2.99997
2.99999
3
3
3
3
3
3
3
3
3
3
3
3
3
3
3
3
3
3
3
2.99997
2.99993
2.9998
2.99954
2.99907
2.99844
2.99789
2.99779
2.99827
2.99895
2.99927
2.99895
2.99827
2.99779
2.99789
2.99844
2.99907
2.99954
2.9998
2.99993
2.99998
2.99999
3
3
3
3
3
3
3
3
3
3
3
3
3
3
3
3
3
3
2.99992
2.9998
2.99951
2.99892
2.99808
2.99739
2.99777
3.00008
3.00398
3.00767
3.00916
3.00767
3.00398
3.00008
2.99777
2.99739
2.99808
2.99892
2.99951
2.99981
2.99994
2.99998
2.99999
3
3
3
3
3
3
3
3
3
3
3
3
3
3
3
3
3
2.99979
2.99954
2.99892
2.99792
2.99707
2.99803
3.00332
3.01415
3.02803
3.03945
3.04375
3.03945
3.02803
3.01415
3.00332
2.99803
2.99707
2.99792
2.99893
2.99955
2.99984
2.99995
2.99999
3
3
3
3
3
3
3
3
3
3
3
3
3
3
3
3
3
2.99954
2.99907
2.99808
2.99707
2.9982
3.00605
3.02548
3.0563
3.09017
3.11521
3.12409
3.11521
3.09017
3.0563
3.02548
3.00605
2.9982
2.99707
2.99809
2.9991
2.99966
2.99989
2.99997
2.99999
3
3
3
3
3
3
3
3
3
3
3
3
3
3
3
3
2.99915
2.99844
2.99739
2.99803
3.00605
3.03053
3.07754
3.14121
3.20308
3.24406
3.25739
3.24406
3.20308
3.14121
3.07754
3.03053
3.00606
2.99803
2.99741
2.9985
2.99937
2.99978
2.99993
2.99998
3
3
3
3
3
3
3
3
3
3
3
3
3
3
3
3
2.99865
2.99789
2.99777
3.00332
3.02548
3.07754
3.16296
3.26524
3.35285
3.401
3.41316
3.401
3.35285
3.26524
3.16296
3.07754
3.02548
3.00332
2.9978
2.99801
2.99902
2.99963
2.99988
2.99997
2.99999
3
3
3
3
3
3
3
3
3
3
3
3
3
3
3
2.99819
2.99779
3.00008
3.01415
3.0563
3.14121
3.26524
3.39727
3.48751
3.50484
3.49277
3.50484
3.48751
3.39727
3.26524
3.14121
3.05631
3.01417
3.00013
2.99797
2.99872
2.99947
2.99982
2.99995
2.99999
3
3
3
3
3
3
3
3
3
3
3
3
3
3
3
2.9979
2.99827
3.00398
3.02803
3.09017
3.20308
3.35285
3.48751
3.51768
3.38624
3.27279
3.38624
3.51768
3.48751
3.35285
3.20308
3.09017
3.02805
3.00405
2.99851
2.99857
2.99933
2.99976
2.99993
2.99998
3
3
3
3
3
3
3
3
3
3
3
3
3
3
3
2.99781
2.99895
3.00767
3.03945
3.11521
3.24406
3.401
3.50484
3.38624
2.93018
2.63184
2.93018
3.38624
3.50484
3.401
3.24406
3.11522
3.03947
3.00775
2.99923
2.99856
2.99925
2.99972
2.99992
2.99998
2.99999
3
3
3
3
3
3
3
3
3
3
3
3
3
3
2.9978
2.99927
3.00916
3.04375
3.12409
3.25739
3.41316
3.49277
3.27279
2.63184
2.27796
2.63184
3.27279
3.49277
3.41316
3.25739
3.12409
3.04377
3.00924
2.99956
2.99858
2.99923
2.99971
2.99991
2.99998
2.99999
3
3
3
3
3
3
3
3
3
3
3
3
3
3
2.99781
2.99895
3.00767
3.03945
3.11521
3.24406
3.401
3.50484
3.38624
2.93018
2.63184
2.93018
3.38624
3.50484
3.401
3.24406
3.11522
3.03947
3.00775
2.99923
2.99856
2.99925
2.99972
2.99992
2.99998
2.99999
3
3
3
3
3
3
3
3
3
3
3
3
3
3
2.9979
2.99827
3.00398
3.02803
3.09017
3.20308
3.35285
3.48751
3.51768
3.38624
3.27279
3.38624
3.51768
3.48751
3.35285
3.20308
3.09017
3.02805
3.00405
2.99851
2.99857
2.99933
2.99976
2.99993
2.99998
3
3
3
3
3
3
3
3
3
3
3
3
3
3
3
2.99819
2.99779
3.00008
3.01415
3.0563
3.14121
3.26524
3.39727
3.48751
3.50484
3.49277
3.50484
3.48751
3.39727
3.26524
3.14121
3.05631
3.01417
3.00013
2.99797
2.99872
2.99947
2.99982
2.99995
2.99999
3
3
3
3
3
3
3
3
3
3
3
3
3
3
3
2.99865
2.99789
2.99777
3.00332
3.02548
3.07754
3.16296
3.26524
3.35285
3.401
3.41316
3.401
3.35285
3.26524
3.16296
3.07754
3.02548
3.00332
2.9978
2.99801
2.99902
2.99963
2.99988
2.99997
2.99999
3
3
3
3
3
3
3
3
3
3
3
3
3
3
3
2.99915
2.99844
2.99739
2.99803
3.00605
3.03053
3.07754
3.14121
3.20308
3.24406
3.25739
3.24406
3.20308
3.14121
3.07754
3.03053
3.00606
2.99803
2.99741
2.9985
2.99937
2.99978
2.99993
2.99998
3
3
3
3
3
3
3
3
3
3
3
3
3
3
3
3
2.99954
2.99907
2.99808
2.99707
2.9982
3.00606
3.02548
3.05631
3.09017
3.11522
3.12409
3.11522
3.09017
3.05631
3.02548
3.00606
2.9982
2.99707
2.99809
2.9991
2.99966
2.99989
2.99997
2.99999
3
3
3
3
3.00001
3.00001
3.00001
3.00001
3.00001
3
3
3
3
3
3
3
2.99979
2.99954
2.99892
2.99792
2.99707
2.99803
3.00332
3.01417
3.02805
3.03947
3.04377
3.03947
3.02805
3.01417
3.00332
2.99803
2.99707
2.99792
2.99893
2.99955
2.99984
2.99995
2.99999
3
3
3
3.00001
3.00002
3.00002
3.00003
3.00003
3.00003
3.00002
3.00002
3.00001
3.00001
3
3
3
3
2.99992
2.9998
2.99951
2.99893
2.99809
2.99741
2.9978
3.00013
3.00405
3.00775
3.00924
3.00775
3.00405
3.00013
2.9978
2.99741
2.99809
2.99893
2.99951
2.99981
2.99994
2.99998
3
3
3.00001
3.00002
3.00004
3.00005
3.00007
3.00009
3.00009
3.00009
3.00007
3.00005
3.00004
3.00002
3.00001
3
3
3
2.99997
2.99993
2.99981
2.99955
2.9991
2.9985
2.99801
2.99797
2.99851
2.99923
2.99956
2.99923
2.99851
2.99797
2.99801
2.9985
2.9991
2.99955
2.99981
2.99993
2.99998
3
3
3.00001
3.00003
3.00007
3.00011
3.00017
3.00022
3.00025
3.00027
3.00025
3.00022
3.00017
3.00012
3.00007
3.00003
3.00001
3.00001
3
2.99999
2.99998
2.99994
2.99984
2.99966
2.99937
2.99902
2.99872
2.99857
2.99856
2.99858
2.99856
2.99857
2.99872
2.99902
2.99937
2.99966
2.99984
2.99994
2.99998
2.99999
3
3.00002
3.00005
3.0001
3.0002
3.00032
3.00045
3.00053
3.00057
3.00058
3.00057
3.00053
3.00045
3.00032
3.0002
3.0001
3.00005
3.00002
3.00001
3
2.99999
2.99998
2.99995
2.99989
2.99978
2.99963
2.99947
2.99933
2.99925
2.99923
2.99925
2.99933
2.99947
2.99963
2.99978
2.99989
2.99995
2.99998
3
3
3.00002
3.00006
3.00014
3.00029
3.0005
3.00073
3.00087
3.00083
3.00069
3.00062
3.00069
3.00083
3.00087
3.00073
3.0005
3.00029
3.00014
3.00006
3.00003
3
3
2.99999
2.99999
2.99997
2.99993
2.99988
2.99982
2.99976
2.99972
2.99971
2.99972
2.99976
2.99982
2.99988
2.99993
2.99997
2.99999
3
3
3.00002
3.00006
3.00015
3.00034
3.00065
3.001
3.00114
3.00074
2.99973
2.99862
2.99814
2.99862
2.99973
3.00074
3.00114
3.001
3.00065
3.00034
3.00016
3.00008
3
3
3
3
2.99999
2.99998
2.99997
2.99995
2.99993
2.99992
2.99991
2.99992
2.99993
2.99995
2.99997
2.99998
2.99999
3
3
3.00001
3.00005
3.00014
3.00034
3.00071
3.00117
3.00129
3.0002
2.99706
2.99221
2.98772
2.98594
2.98772
2.99221
2.99706
3.0002
3.00129
3.00117
3.00072
3.00036
3.00018
3
3
3
3
3
3
2.99999
2.99999
2.99998
2.99998
2.99998
2.99998
2.99998
2.99999
2.99999
3
3
3
3.00001
3.00003
3.0001
3.00029
3.00065
3.00117
3.00133
2.99963
2.99367
2.98187
2.96662
2.9542
2.94966
2.9542
2.96662
2.98187
2.99367
2.99963
3.00133
3.00118
3.00069
3.00039
3
3
3
3
3
3
3
3
3
2.99999
2.99999
2.99999
3
3
3
3
3
3
3.00002
3.00007
3.0002
3.0005
3.001
3.00129
2.99963
2.99207
2.97336
2.94246
2.90899
2.8869
2.88014
2.8869
2.90899
2.94246
2.97336
2.99207
2.99964
3.00131
3.00107
3.0007
3
3
3
3
3
3
3
3
3
3
3
3
3
3
3
3
3
3.00001
3.00004
3.00011
3.00032
3.00073
3.00114
3.0002
2.99367
2.97336
2.93146
2.87494
2.83105
2.81629
2.81564
2.81629
2.83105
2.87494
2.93146
2.97336
2.99368
3.00023
3.00126
3.00106
3
3
3
3
3
3
3
3
3
3
3
3
3
3
3
3
3
3.00002
3.00005
3.00017
3.00045
3.00087
3.00074
2.99706
2.98187
2.94246
2.87494
2.81036
2.79573
2.82426
2.84267
2.82426
2.79573
2.81036
2.87494
2.94246
2.98189
2.99711
3.00091
3.00131
3
3
3
3
3
3
3
3
3
3
3
3
3
3
3
3
3.00001
3.00002
3.00007
3.00022
3.00053
3.00083
2.99973
2.99221
2.96662
2.90899
2.83105
2.79573
2.84746
2.93683
2.97846
2.93683
2.84746
2.79573
2.83105
2.90899
2.96664
2.99229
2.99996
3.00136
3
3
3
3
3
3
3
3
3
3
3
3
3
3
3
3
3.00001
3.00003
3.00009
3.00025
3.00057
3.00069
2.99862
2.98772
2.9542
2.8869
2.81629
2.82426
2.93683
3.0736
3.13302
3.0736
2.93683
2.82426
2.81629
2.8869
2.95423
2.98781
2.99887
3.00126
3
3
3
3
3
3
3
3
3
3
3
3
3
3
3
3
3.00001
3.00003
3.00009
3.00027
3.00058
3.00062
2.99814
2.98594
2.94966
2.88014
2.81564
2.84267
2.97846
3.13302
3.19941
3.13302
2.97846
2.84267
2.81565
2.88015
2.94969
2.98603
2.9984
3.0012
3
3
3
3
3
3
3
3
3
3
3
3
3
3
3
3
3.00001
3.00003
3.00009
3.00025
3.00057
3.00069
2.99862
2.98772
2.9542
2.8869
2.81629
2.82426
2.93683
3.0736
3.13302
3.0736
2.93683
2.82426
2.81629
2.8869
2.95423
2.98781
2.99887
3.00126
3
3
3
3
3
3
3
3
3
3
3
3
3
3
3
3
3.00001
3.00002
3.00007
3.00022
3.00053
3.00083
2.99973
2.99221
2.96662
2.90899
2.83105
2.79573
2.84746
2.93683
2.97846
2.93683
2.84746
2.79573
2.83105
2.90899
2.96664
2.99229
2.99996
3.00136
3
3
3
3
3
3
3
3
3
3
3
3
3
3
3
3
3
3.00002
3.00005
3.00017
3.00045
3.00087
3.00074
2.99706
2.98187
2.94246
2.87494
2.81036
2.79573
2.82426
2.84267
2.82426
2.79573
2.81036
2.87494
2.94246
2.98189
2.99711
3.00091
3.00131
3
3
3
3
3
3
3
3
3
3
3
3
3
3
3
3
3
3.00001
3.00004
3.00012
3.00032
3.00073
3.00114
3.0002
2.99367
2.97336
2.93146
2.87494
2.83105
2.81629
2.81565
2.81629
2.83105
2.87494
2.93146
2.97336
2.99368
3.00023
3.00126
3.00106
3
3
3
3
3
3
3
3
3
3
3
3
3
3
3
3
3
3.00001
3.00002
3.00007
3.0002
3.0005
3.001
3.00129
2.99963
2.99207
2.97336
2.94246
2.90899
2.8869
2.88015
2.8869
2.90899
2.94246
2.97336
2.99208
2.99964
3.00131
3.00107
3.0007
3
3
3
3
3
3
3
3
3
3
3
3
3
3
3
3
3
3
3.00001
3.00003
3.0001
3.00029
3.00065
3.00117
3.00133
2.99964
2.99368
2.98189
2.96664
2.95423
2.94969
2.95423
2.96664
2.98189
2.99368
2.99964
3.00133
3.00118
3.00069
3.00039
3
3
3
3
3
3
3
3
3
3
3
3
3
3
3
3
3
3
3
3.00001
3.00005
3.00014
3.00034
3.00072
3.00118
3.00131
3.00023
2.99711
2.99229
2.98781
2.98603
2.98781
2.99229
2.99711
3.00023
3.00131
3.00118
3.00072
3.00036
3.00019
3
3
3
3
3
3
3
3
3
3
3
3
3
3
3
3
3
3
3
3.00001
3.00002
3.00006
3.00016
3.00036
3.00069
3.00107
3.00126
3.00091
2.99996
2.99887
2.9984
2.99887
2.99996
3.00091
3.00126
3.00107
3.00069
3.00036
3.00016
3.00008
3
3
3
3
3
3
3
3
3
3
3
3
3
3
3
3
3
3
3
3
3.00001
3.00003
3.00008
3.00018
3.00039
3.0007
3.00106
3.00131
3.00136
3.00126
3.0012
3.00126
3.00136
3.00131
3.00106
3.0007
3.00039
3.00019
3.00008
3.00004
