# vtk DataFile Version 3.0
Brusselator Concentration Output
ASCII
DATASET STRUCTURED_POINTS
DIMENSIONS 40 40 1
ORIGIN 0.0 0.0 0.0
SPACING 0.005 0.005 1.0
POINT_DATA 1600
SCALARS C1 double 1
LOOKUP_TABLE default
0.36896
0.37159
0.376039
0.381037
0.387734
0.396458
0.406263
0.415822
0.423838
0.429184
0.431064
0.429186
0.423835
0.415781
0.406078
0.395891
0.386478
0.379421
0.377252
0.384878
0.412651
0.482362
0.635103
0.927837
1.39036
1.88354
1.60096
1.12384
0.977069
0.956715
0.96811
0.98276
0.992771
0.997776
0.999657
1.00013
1.00015
1.00008
1.00003
1.00001
0.37159
0.376675
0.385116
0.394214
0.404388
0.416328
0.429429
0.442321
0.453341
0.460826
0.463487
0.460828
0.453335
0.442265
0.429199
0.415685
0.403139
0.393064
0.387601
0.390692
0.410453
0.463817
0.583168
0.816223
1.19379
1.63155
1.64383
1.22264
1.01653
0.968766
0.970595
0.982318
0.991882
0.997172
0.999371
1.00003
1.00012
1.00008
1.00003
1.00001
0.376039
0.385116
0.400153
0.41633
0.433195
0.451996
0.472679
0.493741
0.512566
0.525878
0.530724
0.525881
0.512556
0.493655
0.472366
0.451216
0.431932
0.415794
0.404245
0.399774
0.407486
0.438091
0.512866
0.667421
0.938998
1.31176
1.58262
1.37524
1.09622
0.994302
0.97623
0.98188
0.990374
0.996087
0.998838
0.999826
1.00006
1.00006
1.00003
1.00001
0.381037
0.394214
0.41633
0.441007
0.467296
0.497243
0.531796
0.56958
0.606225
0.634115
0.64473
0.63412
0.606205
0.569447
0.531363
0.49629
0.466004
0.441025
0.421675
0.408897
0.405279
0.416928
0.457077
0.551551
0.739952
1.05022
1.41461
1.48829
1.20673
1.03448
0.986001
0.982163
0.988697
0.994741
0.998145
0.999555
0.999973
1.00003
1.00001
0.999988
0.387734
0.404388
0.433195
0.467296
0.506091
0.553578
0.613894
0.688706
0.772641
0.845722
0.87587
0.84573
0.772595
0.688472
0.613255
0.55237
0.504729
0.467806
0.439548
0.418987
0.406719
0.405974
0.425159
0.482969
0.614761
0.865478
1.23184
1.50065
1.32215
1.08771
1.00063
0.983903
0.987379
0.993437
0.997443
0.999289
0.999901
1.00001
0.999993
0.999965
0.396458
0.416328
0.451996
0.497243
0.553578
0.630784
0.745374
0.92095
1.17101
1.43116
1.54659
1.43118
1.17087
0.920438
0.744298
0.629118
0.552038
0.498218
0.459363
0.431187
0.412126
0.403312
0.410093
0.446137
0.540702
0.741321
1.0778
1.43648
1.41202
1.14856
1.02
0.987647
0.986961
0.992584
0.997014
0.999219
0.999977
1.0001
1.00004
0.99999
0.406263
0.429429
0.472679
0.531796
0.613894
0.745374
0.991626
1.4985
2.33678
3.02069
3.22066
3.02066
2.33633
1.4971
0.989478
0.742828
0.611994
0.533239
0.481184
0.444951
0.419928
0.405267
0.40413
0.426689
0.496879
0.659411
0.960076
1.34625
1.4612
1.20918
1.04295
0.993654
0.987987
0.99273
0.997333
0.999744
1.00053
1.00056
1.00039
1.00026
0.415822
0.442321
0.493741
0.56958
0.688706
0.92095
1.4985
2.78477
3.57682
3.58524
3.54568
3.58515
3.5765
2.78213
1.49374
0.916729
0.686198
0.571491
0.503471
0.458756
0.428285
0.409071
0.402552
0.416479
0.470822
0.606346
0.875442
1.26161
1.47487
1.26207
1.06724
1.00163
0.990755
0.994371
0.998968
1.00145
1.00215
1.00197
1.00158
1.00132
0.423838
0.453341
0.512566
0.606225
0.772641
1.17101
2.33678
3.57682
3.49479
3.30773
3.23849
3.30765
3.49462
3.57592
2.32852
1.16403
0.769281
0.608562
0.523457
0.470709
0.435597
0.412933
0.402785
0.41127
0.455658
0.57328
0.818333
1.19478
1.46621
1.30031
1.0884
1.00942
0.994051
0.996819
1.00167
1.0045
1.00535
1.00511
1.00458
1.00421
0.429184
0.460826
0.525878
0.634115
0.845722
1.43116
3.02069
3.58524
3.30773
3.09727
3.02553
3.0972
3.30759
3.58503
3.01282
1.42119
0.841507
0.636762
0.537624
0.478896
0.440576
0.415704
0.403406
0.408806
0.447509
0.554288
0.782672
1.14639
1.44273
1.31333
1.09625
1.00966
0.99196
0.995214
1.0017
1.00643
1.00895
1.00997
1.01023
1.01023
0.431064
0.463487
0.530724
0.64473
0.87587
1.54659
3.22066
3.54568
3.23849
3.02553
2.95385
3.02546
3.23836
3.54557
3.21397
1.5353
0.871279
0.647493
0.542794
0.481824
0.442348
0.416698
0.403628
0.40782
0.443985
0.545029
0.762231
1.11114
1.40194
1.28367
1.0724
0.987072
0.970902
0.977179
0.988142
0.998302
1.00648
1.01261
1.01674
1.01882
0.429186
0.460828
0.525881
0.63412
0.84573
1.43118
3.02066
3.58515
3.30765
3.0972
3.02546
3.09713
3.30751
3.58494
3.01279
1.42121
0.841522
0.636778
0.537643
0.478915
0.440579
0.415627
0.403046
0.407538
0.44345
0.542308
0.752252
1.08436
1.33714
1.19545
1.00011
0.92641
0.915921
0.927277
0.945094
0.964396
0.983422
1.0007
1.01421
1.02171
0.423835
0.453335
0.512556
0.606205
0.772595
1.17087
2.33633
3.5765
3.49462
3.30759
3.23836
3.30751
3.49445
3.5756
2.32808
1.16391
0.769254
0.608567
0.523471
0.470707
0.435505
0.412541
0.401517
0.407551
0.445186
0.545513
0.754129
1.07054
1.24453
1.05366
0.886995
0.832725
0.829323
0.844418
0.867176
0.894527
0.924998
0.955786
0.981822
0.996985
0.415781
0.442265
0.493655
0.569447
0.688472
0.920438
1.4971
2.78213
3.57592
3.58503
3.54557
3.58494
3.5756
2.7795
1.49236
0.916249
0.685997
0.571388
0.503383
0.45858
0.4278
0.407764
0.39924
0.408315
0.450956
0.560554
0.782539
1.08565
1.12232
0.894804
0.77072
0.737176
0.738247
0.752235
0.773361
0.800966
0.834503
0.870577
0.902102
0.920656
0.406078
0.429199
0.472366
0.531363
0.613255
0.744298
0.989478
1.49374
2.32852
3.01282
3.21397
3.01279
2.32808
1.49236
0.987371
0.741799
0.611399
0.532805
0.48072
0.444186
0.418369
0.401984
0.397331
0.412687
0.468627
0.607631
0.87525
1.13808
0.984199
0.773135
0.694467
0.676239
0.676967
0.684268
0.696376
0.714367
0.738206
0.764431
0.786656
0.799106
0.395891
0.415685
0.451216
0.49629
0.55237
0.629118
0.742828
0.916729
1.16403
1.42119
1.5353
1.42121
1.16391
0.916249
0.741799
0.627507
0.550848
0.497122
0.458003
0.42903
0.408367
0.396809
0.39927
0.42951
0.521971
0.74321
1.11121
1.19651
0.896434
0.742542
0.699776
0.68795
0.679925
0.671488
0.665305
0.663975
0.66717
0.671562
0.673887
0.674169
0.386478
0.403139
0.431932
0.466004
0.504729
0.552038
0.611994
0.686198
0.769281
0.841507
0.871279
0.841522
0.769254
0.685997
0.611399
0.550848
0.503242
0.465968
0.436786
0.414523
0.399744
0.396152
0.414656
0.485992
0.68768
1.1298
1.62676
1.37335
1.06403
0.994921
0.989792
0.961535
0.895319
0.811849
0.736916
0.682122
0.645152
0.617942
0.596954
0.584842
0.379421
0.393064
0.415794
0.441025
0.467806
0.498218
0.533239
0.571491
0.608562
0.636762
0.647493
0.636778
0.608567
0.571388
0.532805
0.497122
0.465968
0.43962
0.418174
0.402662
0.396641
0.410204
0.473811
0.67629
1.19551
2.07566
2.72557
2.55168
2.51085
2.65629
2.72307
2.62638
2.31678
1.82406
1.32678
0.952825
0.734197
0.624383
0.568369
0.543059
0.377252
0.387601
0.404245
0.421675
0.439548
0.459363
0.481184
0.503471
0.523457
0.537624
0.542794
0.537643
0.523471
0.503383
0.48072
0.458003
0.436786
0.418174
0.403819
0.397553
0.409537
0.471315
0.680638
1.23607
2.09135
2.92016
3.27831
3.09043
2.81564
2.64776
2.58992
2.6285
2.76155
2.98314
3.1672
2.59652
1.42106
0.812467
0.607053
0.54785
0.384878
0.390692
0.399774
0.408897
0.418987
0.431187
0.444951
0.458756
0.470709
0.478896
0.481824
0.478915
0.470707
0.45858
0.444186
0.42903
0.414523
0.402662
0.397553
0.409612
0.471459
0.68546
1.23302
1.90794
2.47097
2.68669
2.46697
2.1745
1.97517
1.86529
1.82887
1.85903
1.95504
2.12029
2.36358
2.7163
3.16654
2.05979
0.906779
0.631615
0.412651
0.410453
0.407486
0.405279
0.406719
0.412126
0.419928
0.428285
0.435597
0.440576
0.442348
0.440579
0.435505
0.4278
0.418369
0.408367
0.399744
0.396641
0.409537
0.471459
0.687068
1.21956
1.76699
2.16555
2.27995
2.06223
1.76707
1.53808
1.39061
1.30894
1.28237
1.30684
1.38322
1.51656
1.71654
2.00015
2.39309
2.99342
2.59337
1.13742
0.482362
0.463817
0.438091
0.416928
0.405974
0.403312
0.405267
0.409071
0.412933
0.415704
0.416698
0.415627
0.412541
0.407764
0.401984
0.396809
0.396152
0.410204
0.471315
0.68546
1.21956
1.7185
2.02117
2.05535
1.81497
1.5078
1.25871
1.08832
0.980732
0.9215
0.902489
0.920815
0.978104
1.08015
1.2372
1.46605
1.79578
2.27541
3.00674
3.51212
0.635103
0.583168
0.512866
0.457077
0.425159
0.410093
0.40413
0.402552
0.402785
0.403406
0.403628
0.403046
0.401517
0.39924
0.397331
0.39927
0.414656
0.473811
0.680638
1.23302
1.76699
2.02117
1.9838
1.69804
1.36507
1.0957
0.908869
0.787239
0.712453
0.672148
0.659407
0.671897
0.711468
0.784187
0.900939
1.07907
1.34607
1.74705
2.35377
3.12234
0.927837
0.816223
0.667421
0.551551
0.482969
0.446137
0.426689
0.416479
0.41127
0.408806
0.40782
0.407538
0.407551
0.408315
0.412687
0.42951
0.485992
0.67629
1.23607
1.90794
2.16555
2.05535
1.69804
1.31962
1.02119
0.816034
0.683488
0.600991
0.552144
0.526557
0.518594
0.526433
0.551706
0.599789
0.680898
0.812257
1.02152
1.35052
1.84138
2.39862
1.39036
1.19379
0.938998
0.739952
0.614761
0.540702
0.496879
0.470822
0.455658
0.447509
0.443985
0.44345
0.445186
0.450956
0.468627
0.521971
0.68768
1.19551
2.09135
2.47097
2.27995
1.81497
1.36507
1.02119
0.78756
0.63895
0.548136
0.494344
0.463829
0.448352
0.443617
0.448276
0.463593
0.493814
0.54744
0.639891
0.79774
1.06073
1.45374
1.86396
1.88354
1.63155
1.31176
1.05022
0.865478
0.741321
0.659411
0.606346
0.57328
0.554288
0.545029
0.542308
0.545513
0.560554
0.607631
0.74321
1.1298
2.07566
2.92016
2.68669
2.06223
1.5078
1.0957
0.816034
0.63895
0.532676
0.47124
0.436745
0.418134
0.409082
0.406378
0.40903
0.41799
0.436487
0.471202
0.53493
0.651281
0.856706
1.16789
1.47554
1.60096
1.64383
1.58262
1.41461
1.23184
1.0778
0.960076
0.875442
0.818333
0.782672
0.762231
0.752252
0.754129
0.782539
0.87525
1.11121
1.62676
2.72557
3.27831
2.46697
1.76707
1.25871
0.908869
0.683488
0.548136
0.47124
0.429233
0.407059
0.395891
0.39082
0.389371
0.390782
0.395797
0.406929
0.429438
0.473688
0.559675
0.719205
0.964759
1.19956
1.12384
1.22264
1.37524
1.48829
1.50065
1.43648
1.34625
1.26161
1.19478
1.14639
1.11114
1.08436
1.07054
1.08565
1.13808
1.19651
1.37335
2.55168
3.09043
2.1745
1.53808
1.08832
0.787239
0.600991
0.494344
0.436745
0.407059
0.392547
0.385983
0.38338
0.382712
0.383352
0.385918
0.392486
0.407361
0.439094
0.504515
0.630742
0.827405
1.01148
0.977069
1.01653
1.09622
1.20673
1.32215
1.41202
1.4612
1.47487
1.46621
1.44273
1.40194
1.33714
1.24453
1.12232
0.984199
0.896434
1.06403
2.51085
2.81564
1.97517
1.39061
0.980732
0.712453
0.552144
0.463829
0.418134
0.395891
0.385983
0.382202
0.381107
0.380921
0.381084
0.382154
0.385959
0.396235
0.42035
0.472863
0.577205
0.740936
0.891996
0.956715
0.968766
0.994302
1.03448
1.08771
1.14856
1.20918
1.26207
1.30031
1.31333
1.28367
1.19545
1.05366
0.894804
0.773135
0.742542
0.994921
2.65629
2.64776
1.86529
1.30894
0.9215
0.672148
0.526557
0.448352
0.409082
0.39082
0.38338
0.381107
0.380839
0.380919
0.38082
0.381068
0.383375
0.391182
0.411207
0.456684
0.548788
0.693808
0.826425
0.96811
0.970595
0.97623
0.986001
1.00063
1.02
1.04295
1.06724
1.0884
1.09625
1.0724
1.00011
0.886995
0.77072
0.694467
0.699776
0.989792
2.72307
2.58992
1.82887
1.28237
0.902489
0.659407
0.518594
0.443617
0.406378
0.389371
0.382712
0.380921
0.380919
0.381085
0.380901
0.380884
0.382714
0.389739
0.40847
0.45171
0.539881
0.678847
0.805541
0.98276
0.982318
0.98188
0.982163
0.983903
0.987647
0.993654
1.00163
1.00942
1.00966
0.987072
0.92641
0.832725
0.737176
0.676239
0.68795
0.961535
2.62638
2.6285
1.85903
1.30684
0.920815
0.671897
0.526433
0.448276
0.40903
0.390782
0.383352
0.381084
0.38082
0.380901
0.3808
0.381045
0.383346
0.391143
0.411148
0.456592
0.548642
0.693589
0.82614
0.992771
0.991882
0.990374
0.988697
0.987379
0.986961
0.987987
0.990755
0.994051
0.99196
0.970902
0.915921
0.829323
0.738247
0.676967
0.679925
0.895319
2.31678
2.76155
1.95504
1.38322
0.978104
0.711468
0.551706
0.463593
0.41799
0.395797
0.385918
0.382154
0.381068
0.380884
0.381045
0.382105
0.385892
0.396135
0.420191
0.472605
0.576789
0.740304
0.891164
0.997776
0.997172
0.996087
0.994741
0.993437
0.992584
0.99273
0.994371
0.996819
0.995214
0.977179
0.927277
0.844418
0.752235
0.684268
0.671488
0.811849
1.82406
2.98314
2.12029
1.51656
1.08015
0.784187
0.599789
0.493814
0.436487
0.406929
0.392486
0.385959
0.383375
0.382714
0.383346
0.385892
0.392418
0.407218
0.438819
0.504016
0.629879
0.826033
1.00962
0.999657
0.999371
0.998838
0.998145
0.997443
0.997014
0.997333
0.998968
1.00167
1.0017
0.988142
0.945094
0.867176
0.773361
0.696376
0.665305
0.736916
1.32678
3.1672
2.36358
1.71654
1.2372
0.900939
0.680898
0.54744
0.471202
0.429438
0.407361
0.396235
0.391182
0.389739
0.391143
0.396135
0.407218
0.429628
0.473687
0.559317
0.718214
0.962802
1.19659
1.00013
1.00003
0.999826
0.999555
0.999289
0.999219
0.999744
1.00145
1.0045
1.00643
0.998302
0.964396
0.894527
0.800966
0.714367
0.663975
0.682122
0.952825
2.59652
2.7163
2.00015
1.46605
1.07907
0.812257
0.639891
0.53493
0.473688
0.439094
0.42035
0.411207
0.40847
0.411148
0.420191
0.438819
0.473687
0.537519
0.653759
0.858563
1.16842
1.4746
1.00015
1.00012
1.00006
0.999973
0.999901
0.999977
1.00053
1.00215
1.00535
1.00895
1.00648
0.983422
0.924998
0.834503
0.738206
0.66717
0.645152
0.734197
1.42106
3.16654
2.39309
1.79578
1.34607
1.02152
0.79774
0.651281
0.559675
0.504515
0.472863
0.456684
0.45171
0.456592
0.472605
0.504016
0.559317
0.653759
0.813375
1.07699
1.46924
1.87902
1.00008
1.00008
1.00006
1.00003
1.00001
1.0001
1.00056
1.00197
1.00511
1.00997
1.01261
1.0007
0.955786
0.870577
0.764431
0.671562
0.617942
0.624383
0.812467
2.05979
2.99342
2.27541
1.74705
1.35052
1.06073
0.856706
0.719205
0.630742
0.577205
0.548788
0.539881
0.548642
0.576789
0.629879
0.718214
0.858563
1.07699
1.41289
1.90837
2.46992
1.00003
1.00003
1.00003
1.00001
0.999993
1.00004
1.00039
1.00158
1.00458
1.01023
1.01674
1.01421
0.981822
0.902102
0.786656
0.673887
0.596954
0.568369
0.607053
0.906779
2.59337
3.00674
2.35377
1.84138
1.45374
1.16789
0.964759
0.827405
0.740936
0.693808
0.678847
0.693589
0.740304
0.826033
0.962802
1.16842
1.46924
1.90837
2.56081
3.39676
1.00001
1.00001
1.00001
0.999988
0.999965
0.99999
1.00026
1.00132
1.00421
1.01023
1.01882
1.02171
0.996985
0.920656
0.799106
0.674169
0.584842
0.543059
0.54785
0.631615
1.13742
3.51212
3.12234
2.39862
1.86396
1.47554
1.19956
1.01148
0.891996
0.826425
0.805541
0.82614
0.891164
1.00962
1.19659
1.4746
1.87902
2.46992
3.39676
3.5825
SCALARS C2 double 1
LOOKUP_TABLE default
3.04439
3.23251
3.49303
3.70766
3.86968
3.99959
4.10534
4.18782
4.24668
4.28185
4.29353
4.28185
4.24666
4.18767
4.10465
3.99757
3.8666
3.71192
3.53335
3.32948
3.09616
2.82404
2.49933
2.12301
1.76649
1.7256
2.53963
3.06752
3.13501
3.0968
3.0521
3.02212
3.00693
3.00108
2.99955
2.99949
2.99971
2.99988
2.99996
2.99999
3.23251
3.41004
3.66196
3.87601
4.038
4.16632
4.26939
4.3487
4.40449
4.43741
4.44826
4.43741
4.40446
4.34854
4.26874
4.16451
4.03571
3.88246
3.70473
3.50169
3.2705
3.00438
2.69244
2.33282
1.97794
1.8275
2.31352
2.93096
3.09707
3.09033
3.05407
3.02511
3.00893
3.00203
2.9999
2.99959
2.99973
2.99988
2.99996
2.99999
3.49303
3.66196
3.90317
4.10848
4.2627
4.38247
4.47556
4.54389
4.58916
4.61426
4.62219
4.61426
4.58915
4.54379
4.47511
4.38113
4.26117
4.11539
3.94421
3.74767
3.52457
3.27107
2.97958
2.64367
2.28448
2.00934
2.10199
2.67245
3.01169
3.07389
3.05635
3.03021
3.01253
3.00382
3.00059
2.99979
2.99977
2.99988
2.99996
3
3.70766
3.87601
4.10848
4.30006
4.44041
4.54465
4.61851
4.66377
4.68486
4.69058
4.69095
4.69057
4.68486
4.66377
4.61838
4.54394
4.43934
4.30552
4.14403
3.95623
3.74248
3.50128
3.22777
2.9138
2.55886
2.21146
2.04903
2.38564
2.87287
3.04221
3.0563
3.03598
3.01707
3.00619
3.00154
3.00009
2.99984
2.99991
2.99999
3.00003
3.86968
4.038
4.2627
4.44041
4.56372
4.64475
4.68466
4.68215
4.64448
4.59596
4.5733
4.59595
4.6445
4.6823
4.68493
4.64471
4.56309
4.44446
4.29327
4.11306
3.90602
3.67253
3.41007
3.11181
2.7693
2.39761
2.10528
2.18716
2.69615
2.99157
3.05125
3.04083
3.0217
3.00879
3.00263
3.00044
2.99994
2.99996
3.00004
3.00009
3.99959
4.16632
4.38247
4.54465
4.64475
4.6873
4.65898
4.53606
4.3075
4.04251
3.91861
4.04247
4.30762
4.53655
4.65991
4.68817
4.64473
4.54765
4.40891
4.23625
4.03438
3.80556
3.54923
3.2606
2.93012
2.55661
2.20339
2.10242
2.51874
2.92319
3.03948
3.04333
3.02548
3.01104
3.0035
3.00063
2.99993
2.99995
3.00009
3.00017
4.10534
4.26939
4.47556
4.61851
4.68466
4.65898
4.475
3.97337
3.02565
2.15447
1.87066
2.15445
3.02611
3.9749
4.47732
4.66127
4.6855
4.62062
4.49828
4.33439
4.13755
3.91221
3.65953
3.37661
3.05496
2.68661
2.30652
2.09242
2.37482
2.84403
3.02072
3.04224
3.02719
3.01193
3.00339
3.00008
2.99937
2.99957
2.99989
3.00009
4.18782
4.3487
4.54389
4.66377
4.68215
4.53606
3.97337
2.48469
1.25757
0.978529
0.937729
0.978551
1.25789
2.48798
3.97895
4.54071
4.68415
4.66505
4.56317
4.40929
4.21765
3.99535
3.74516
3.46571
3.14992
2.78745
2.39653
2.11592
2.27621
2.76424
2.99596
3.03641
3.02523
3.0099
3.00087
2.99753
2.9972
2.99792
2.99872
2.99918
4.24668
4.40449
4.58916
4.68486
4.64448
4.3075
3.02565
1.25757
0.914062
0.89586
0.901438
0.895881
0.914171
1.2592
3.03601
4.31579
4.64784
4.68539
4.6055
4.4615
4.27471
4.05498
3.80656
3.52922
3.21699
2.85909
2.46475
2.14723
2.21792
2.69483
2.96826
3.02578
3.0186
3.00356
2.99435
2.99123
2.99159
2.99321
2.99481
2.99574
4.28185
4.43741
4.61426
4.69058
4.59596
4.04251
2.15447
0.978529
0.89586
0.92225
0.936224
0.922271
0.895926
0.979184
2.16541
4.05476
4.60058
4.69056
4.62855
4.49207
4.30878
4.09083
3.84348
3.56717
3.25671
2.90187
2.5085
2.17557
2.19525
2.65147
2.94733
3.01599
3.01121
2.99558
2.98515
2.98116
2.98126
2.98315
2.98524
2.98654
4.29353
4.44826
4.62219
4.69095
4.5733
3.91861
1.87066
0.937729
0.901438
0.936224
0.951933
0.936245
0.901496
0.938204
1.88059
3.93263
4.57845
4.69073
4.63574
4.50209
4.3201
4.10276
3.85563
3.57934
3.26941
2.91753
2.53096
2.20368
2.21762
2.66332
2.95816
3.02703
3.0204
3.00085
2.98514
2.97549
2.97046
2.96837
2.96786
2.9679
4.28185
4.43741
4.61426
4.69057
4.59595
4.04247
2.15445
0.978551
0.895881
0.922271
0.936245
0.922292
0.895947
0.979205
2.16539
4.05472
4.60056
4.69055
4.62854
4.49206
4.30876
4.09065
3.84275
3.56565
3.25645
2.91116
2.542
2.24649
2.31374
2.77252
3.03985
3.09452
3.07998
3.05131
3.02335
2.99883
2.97793
2.96101
2.9489
2.94254
4.24666
4.40446
4.58915
4.68486
4.6445
4.30762
3.02611
1.25789
0.914171
0.895926
0.901496
0.895947
0.91428
1.25952
3.03646
4.31589
4.64784
4.68537
4.60547
4.46147
4.27456
4.05428
3.80461
3.52699
3.22257
2.89325
2.55658
2.32829
2.5283
3.0077
3.21809
3.24711
3.22093
3.18019
3.13489
3.08707
3.03829
2.99223
2.95505
2.93396
4.18767
4.34854
4.54379
4.66377
4.6823
4.53655
3.9749
2.48798
1.2592
0.979184
0.938204
0.979205
1.25952
2.49125
3.98045
4.54116
4.68426
4.66503
4.56309
4.4091
4.21696
3.99329
3.74191
3.46797
3.17846
2.87754
2.58889
2.48518
2.89897
3.34259
3.47501
3.47802
3.44278
3.39275
3.33202
3.26074
3.1809
3.09967
3.03064
2.99035
4.10465
4.26874
4.47511
4.61838
4.68493
4.65991
4.47732
3.97895
3.03601
2.16541
1.88059
2.16539
3.03646
3.98045
4.47959
4.66214
4.68572
4.6205
4.4979
4.33347
4.1352
3.90807
3.65917
3.40001
3.13819
2.87132
2.64469
2.77126
3.37682
3.69481
3.75949
3.74766
3.71076
3.65868
3.59071
3.50498
3.40336
3.29604
3.20345
3.14947
3.99757
4.16451
4.38113
4.54394
4.64471
4.68817
4.66127
4.54071
4.31579
4.05476
3.93263
4.05472
4.31589
4.54116
4.66214
4.68896
4.64465
4.54696
4.4075
4.2333
4.02925
3.80301
3.56869
3.33836
3.10492
2.84917
2.69809
3.19219
3.79758
3.98267
4.01058
3.99732
3.96862
3.92563
3.86351
3.77839
3.6719
3.55634
3.45621
3.39828
3.8666
4.03571
4.26117
4.43934
4.56309
4.64473
4.6855
4.68415
4.64784
4.60058
4.57845
4.60056
4.64784
4.68426
4.68572
4.64465
4.56241
4.44312
4.29056
4.10824
3.90333
3.69114
3.4869
3.28296
3.02164
2.64917
2.63157
3.48265
3.94711
4.0339
4.03395
4.04113
4.06618
4.08536
4.07444
4.02422
3.93949
3.83663
3.74279
3.68715
3.71192
3.88246
4.11539
4.30552
4.44446
4.54765
4.62062
4.66505
4.68539
4.69056
4.69073
4.69055
4.68537
4.66503
4.6205
4.54696
4.44312
4.30935
4.14715
3.96258
3.77108
3.58978
3.41063
3.14561
2.57917
1.87923
1.90695
2.48364
2.50839
2.25326
2.12699
2.25742
2.67656
3.2814
3.80024
4.07134
4.13313
4.09059
4.01967
3.97041
3.53335
3.70473
3.94421
4.14403
4.29327
4.40891
4.49828
4.56317
4.6055
4.62855
4.63574
4.62854
4.60547
4.56309
4.4979
4.4075
4.29056
4.14715
3.98217
3.81059
3.65036
3.4929
3.22502
2.50927
1.54388
1.06883
0.965205
0.99046
1.03324
1.06744
1.08129
1.07296
1.05109
1.05386
1.26819
2.37822
3.76975
4.21429
4.24807
4.21861
3.32948
3.50169
3.74767
3.95623
4.11306
4.23625
4.33439
4.40929
4.4615
4.49207
4.50209
4.49206
4.46147
4.4091
4.33347
4.2333
4.10824
3.96258
3.81059
3.67038
3.53315
3.26856
2.47149
1.51131
1.10465
1.01734
1.10095
1.22115
1.31231
1.36725
1.38618
1.36984
1.32081
1.24441
1.14989
1.06219
1.22399
3.17095
4.28376
4.39618
3.09616
3.2705
3.52457
3.74248
3.90602
4.03438
4.13755
4.21765
4.27471
4.30878
4.3201
4.30876
4.27456
4.21696
4.1352
4.02925
3.90333
3.77108
3.65036
3.53315
3.28243
2.46006
1.54477
1.20114
1.14489
1.25704
1.42118
1.56363
1.66735
1.73023
1.75149
1.73125
1.67121
1.5751
1.44892
1.30084
1.14555
1.05608
2.61407
4.24831
2.82404
3.00438
3.27107
3.50128
3.67253
3.80556
3.91221
3.99535
4.05498
4.09083
4.10276
4.09065
4.05428
3.99329
3.90807
3.80301
3.69114
3.58978
3.4929
3.26856
2.46006
1.56184
1.25847
1.23426
1.37671
1.58303
1.77565
1.92875
2.03878
2.10501
2.12714
2.10532
2.04032
1.934
1.78974
1.61213
1.40687
1.18823
1.00495
1.63028
2.49933
2.69244
2.97958
3.22777
3.41007
3.54923
3.65953
3.74516
3.80656
3.84348
3.85563
3.84275
3.80461
3.74191
3.65917
3.56869
3.4869
3.41063
3.22502
2.47149
1.54477
1.25847
1.26573
1.44067
1.68659
1.92479
2.12322
2.27694
2.386
2.45106
2.47269
2.45119
2.38668
2.27935
2.12962
1.93793
1.70531
1.43736
1.15047
0.91184
2.12301
2.33282
2.64367
2.9138
3.11181
3.2606
3.37661
3.46571
3.52922
3.56717
3.57934
3.56565
3.52699
3.46797
3.40001
3.33836
3.28296
3.14561
2.50927
1.51131
1.20114
1.23426
1.44067
1.72206
2.00091
2.24065
2.43414
2.58205
2.68627
2.7483
2.76892
2.74841
2.68673
2.5835
2.43742
2.24532
2.00212
1.7062
1.37594
1.10602
1.76649
1.97794
2.28448
2.55886
2.7693
2.93012
3.05496
3.14992
3.21699
3.25671
3.26941
3.25645
3.22257
3.17846
3.13819
3.10492
3.02164
2.57917
1.54388
1.10465
1.14489
1.37671
1.68659
2.00091
2.27968
2.51151
2.69644
2.8375
2.93721
2.99682
3.0167
2.99693
2.93761
2.83866
2.69878
2.51334
2.27256
1.96616
1.61292
1.3316
1.7256
1.8275
2.00934
2.21146
2.39761
2.55661
2.68661
2.78745
2.85909
2.90187
2.91753
2.91116
2.89325
2.87754
2.87132
2.84917
2.64917
1.87923
1.06883
1.01734
1.25704
1.58303
1.92479
2.24065
2.51151
2.73397
2.91145
3.04778
3.14499
3.20351
3.22308
3.20359
3.14534
3.04883
2.91356
2.73531
2.50253
2.19824
1.83763
1.55392
2.53963
2.31352
2.10199
2.04903
2.10528
2.20339
2.30652
2.39653
2.46475
2.5085
2.53096
2.542
2.55658
2.58889
2.64469
2.69809
2.63157
1.90695
0.965205
1.10095
1.42118
1.77565
2.12322
2.43414
2.69644
2.91145
3.08425
3.21837
3.31487
3.37333
3.39295
3.3734
3.31517
3.21933
3.0863
2.91297
2.68803
2.39124
2.03338
1.75351
3.06752
2.93096
2.67245
2.38564
2.18716
2.10242
2.09242
2.11592
2.14723
2.17557
2.20368
2.24649
2.32829
2.48518
2.77126
3.19219
3.48265
2.48364
0.99046
1.22115
1.56363
1.92875
2.27694
2.58205
2.8375
3.04778
3.21837
3.35199
3.44885
3.5078
3.52763
3.50785
3.44911
3.35289
3.22038
3.04956
2.83016
2.54101
2.18978
1.91644
3.13501
3.09707
3.01169
2.87287
2.69615
2.51874
2.37482
2.27621
2.21792
2.19525
2.21762
2.31374
2.5283
2.89897
3.37682
3.79758
3.94711
2.50839
1.03324
1.31231
1.66735
2.03878
2.386
2.68627
2.93721
3.14499
3.31487
3.44885
3.54644
3.60602
3.62609
3.60607
3.54667
3.44969
3.31685
3.14697
2.93076
2.6472
2.30223
2.03502
3.0968
3.09033
3.07389
3.04221
2.99157
2.92319
2.84403
2.76424
2.69483
2.65147
2.66332
2.77252
3.0077
3.34259
3.69481
3.98267
4.0339
2.25326
1.06744
1.36725
1.73023
2.10501
2.45106
2.7483
2.99682
3.20351
3.37333
3.5078
3.60602
3.66611
3.68636
3.66615
3.60625
3.50862
3.37529
3.2056
2.99092
2.71053
2.3696
2.10644
3.0521
3.05407
3.05635
3.0563
3.05125
3.03948
3.02072
2.99596
2.96826
2.94733
2.95816
3.03985
3.21809
3.47501
3.75949
4.01058
4.03395
2.12699
1.08129
1.38618
1.75149
2.12714
2.47269
2.76892
3.0167
3.22308
3.39295
3.52763
3.62609
3.68636
3.70668
3.6864
3.62631
3.52843
3.3949
3.22522
3.01098
2.73161
2.39205
2.13028
3.02212
3.02511
3.03021
3.03598
3.04083
3.04333
3.04224
3.03641
3.02578
3.01599
3.02703
3.09452
3.24711
3.47802
3.74766
3.99732
4.04113
2.25742
1.07296
1.36984
1.73125
2.10532
2.45119
2.74841
2.99693
3.20359
3.3734
3.50785
3.60607
3.66615
3.6864
3.66619
3.60629
3.50867
3.37536
3.20569
2.99105
2.71071
2.36982
2.10668
3.00693
3.00893
3.01253
3.01707
3.0217
3.02548
3.02719
3.02523
3.0186
3.01121
3.0204
3.07998
3.22093
3.44278
3.71076
3.96862
4.06618
2.67656
1.05109
1.32081
1.67121
2.04032
2.38668
2.68673
2.93761
3.14534
3.31517
3.44911
3.54667
3.60625
3.62631
3.60629
3.54691
3.44996
3.31716
3.14734
2.93124
2.6478
2.30291
2.03575
3.00108
3.00203
3.00382
3.00619
3.00879
3.01104
3.01193
3.0099
3.00356
2.99558
3.00085
3.05131
3.18019
3.39275
3.65868
3.92563
4.08536
3.2814
1.05386
1.24441
1.5751
1.934
2.27935
2.5835
2.83866
3.04883
3.21933
3.35289
3.44969
3.50862
3.52843
3.50867
3.44996
3.35379
3.22136
3.05068
2.83147
2.54252
2.1914
1.91811
2.99955
2.9999
3.00059
3.00154
3.00263
3.0035
3.00339
3.00087
2.99435
2.98515
2.98514
3.02335
3.13489
3.33202
3.59071
3.86351
4.07444
3.80024
1.26819
1.14989
1.44892
1.78974
2.12962
2.43742
2.69878
2.91356
3.0863
3.22038
3.31685
3.37529
3.3949
3.37536
3.31716
3.22136
3.08842
2.91524
2.6905
2.39385
2.03605
1.75623
2.99949
2.99959
2.99979
3.00009
3.00044
3.00063
3.00008
2.99753
2.99123
2.98116
2.97549
2.99883
3.08707
3.26074
3.50498
3.77839
4.02422
4.07134
2.37822
1.06219
1.30084
1.61213
1.93793
2.24532
2.51334
2.73531
2.91297
3.04956
3.14697
3.2056
3.22522
3.20569
3.14734
3.05068
2.91524
2.73682
2.50386
2.19953
1.83915
1.55576
2.99971
2.99973
2.99977
2.99984
2.99994
2.99993
2.99937
2.9972
2.99159
2.98126
2.97046
2.97793
3.03829
3.1809
3.40336
3.6719
3.93949
4.13313
3.76975
1.22399
1.14555
1.40687
1.70531
2.00212
2.27256
2.50253
2.68803
2.83016
2.93076
2.99092
3.01098
2.99105
2.93124
2.83147
2.6905
2.50386
2.26235
1.95665
1.60572
1.32636
2.99988
2.99988
2.99988
2.99991
2.99996
2.99995
2.99957
2.99792
2.99321
2.98315
2.96837
2.96101
2.99223
3.09967
3.29604
3.55634
3.83663
4.09059
4.21429
3.17095
1.05608
1.18823
1.43736
1.7062
1.96616
2.19824
2.39124
2.54101
2.6472
2.71053
2.73161
2.71071
2.6478
2.54252
2.39385
2.19953
1.95665
1.66624
1.34603
1.08436
2.99996
2.99996
2.99996
2.99999
3.00004
3.00009
2.99989
2.99872
2.99481
2.98524
2.96786
2.9489
2.95505
3.03064
3.20345
3.45621
3.74279
4.01967
4.24807
4.28376
2.61407
1.00495
1.15047
1.37594
1.61292
1.83763
2.03338
2.18978
2.30223
2.3696
2.39205
2.36982
2.30291
2.1914
2.03605
1.83915
1.60572
1.34603
1.07789
0.874114
2.99999
2.99999
3
3.00003
3.00009
3.00017
3.00009
2.99918
2.99574
2.98654
2.9679
2.94254
2.93396
2.99035
3.14947
3.39828
3.68715
3.97041
4.21861
4.39618
4.24831
1.63028
0.91184
1.10602
1.3316
1.55392
1.75351
1.91644
2.03502
2.10644
2.13028
2.10668
2.03575
1.91811
1.75623
1.55576
1.32636
1.08436
0.874114
1.88934
