# vtk DataFile Version 3.0
Brusselator Concentration Output
ASCII
DATASET STRUCTURED_POINTS
DIMENSIONS 40 40 1
ORIGIN 0.0 0.0 0.0
SPACING 0.005 0.005 1.0
POINT_DATA 1600
SCALARS C1 double 1
LOOKUP_TABLE default
0.362683
0.370246
0.382102
0.394924
0.407696
0.420428
0.432818
0.444117
0.453308
0.459351
0.461462
0.459343
0.453277
0.444033
0.432643
0.42017
0.407586
0.395766
0.385628
0.378427
0.376333
0.383608
0.408971
0.469959
0.598712
0.842747
1.25049
1.85994
2.72557
2.91611
0.858064
0.578649
0.558249
0.605255
0.704663
0.834619
0.947373
1.00647
1.02005
1.01768
0.370246
0.378658
0.392155
0.407221
0.422571
0.438107
0.453479
0.467763
0.479601
0.487505
0.490289
0.487494
0.479561
0.467658
0.453269
0.437824
0.422502
0.408242
0.395904
0.386562
0.382004
0.385691
0.404624
0.452799
0.556155
0.75487
1.09373
1.60675
2.31704
3.26608
1.20723
0.633407
0.575339
0.612861
0.704245
0.82657
0.935981
0.997196
1.01443
1.01412
0.382102
0.392155
0.408862
0.42834
0.448939
0.470482
0.492574
0.513929
0.532319
0.544984
0.549524
0.544967
0.532259
0.513777
0.49229
0.470137
0.448926
0.429658
0.413014
0.399703
0.390904
0.388955
0.398659
0.42973
0.500785
0.643307
0.898925
1.30519
1.88978
2.70464
2.18436
0.796749
0.614084
0.627713
0.704186
0.813962
0.918327
0.983052
1.00608
1.00894
0.394924
0.407221
0.42834
0.454087
0.482659
0.514103
0.548245
0.58337
0.615529
0.638816
0.647408
0.638787
0.61543
0.583133
0.547832
0.513645
0.482689
0.455746
0.432986
0.414499
0.40072
0.392926
0.394121
0.410739
0.455797
0.553439
0.741318
1.06242
1.55045
2.22536
3.06041
1.19307
0.688707
0.651532
0.708583
0.805536
0.905925
0.975026
1.00396
1.00976
0.407696
0.422571
0.448939
0.482659
0.522373
0.569231
0.624414
0.686596
0.749024
0.797888
0.816749
0.797832
0.748843
0.686198
0.623785
0.568597
0.522434
0.484693
0.454137
0.429705
0.41087
0.39794
0.392604
0.399134
0.42683
0.494302
0.634213
0.891171
1.30594
1.90613
2.76101
1.96541
0.83419
0.693704
0.728619
0.817583
0.919319
0.995985
1.03142
1.03951
0.420428
0.438107
0.470482
0.514103
0.569231
0.640303
0.733655
0.85318
0.990236
1.11009
1.15929
1.10996
0.989852
0.852446
0.732638
0.639392
0.569321
0.516581
0.476323
0.445244
0.421397
0.404047
0.393846
0.393609
0.4102
0.458257
0.565606
0.775207
1.13273
1.66943
2.40804
2.88202
1.12833
0.777231
0.781098
0.868672
0.983054
1.0814
1.13595
1.15278
0.432818
0.453479
0.492574
0.548245
0.624414
0.733655
0.89847
1.14745
1.48136
1.80057
1.93376
1.80023
1.48044
1.14594
0.896712
0.732295
0.624531
0.55126
0.499174
0.46077
0.43194
0.410694
0.396738
0.391826
0.401168
0.436592
0.521789
0.696241
1.00645
1.48393
2.13851
2.94816
1.63039
0.915475
0.851426
0.929032
1.06172
1.20693
1.32147
1.37947
0.444117
0.467763
0.513929
0.58337
0.686596
0.85318
1.14745
1.67125
2.39764
2.94952
3.12048
2.94899
2.39585
1.66815
1.14431
0.851113
0.686725
0.586998
0.521363
0.475321
0.441717
0.417067
0.400164
0.391929
0.396399
0.423333
0.492849
0.639607
0.906264
1.32023
1.87926
2.56902
1.98684
0.984124
0.820599
0.861082
0.983003
1.14729
1.30658
1.40553
0.453308
0.479601
0.532319
0.615529
0.749024
0.990236
1.48136
2.39764
3.27179
3.56318
3.6048
3.56292
3.27031
2.39286
1.47616
0.987207
0.749142
0.619765
0.54055
0.487459
0.449739
0.422341
0.403225
0.392648
0.393759
0.414628
0.47195
0.594332
0.817032
1.16177
1.62133
2.19438
1.70173
0.812272
0.652497
0.668706
0.751071
0.86854
0.983849
1.05493
0.459351
0.487505
0.544984
0.638816
0.797888
1.11009
1.80057
2.94952
3.56318
3.62283
3.60726
3.62271
3.56244
2.94479
1.79344
1.10613
0.79798
0.643518
0.553803
0.4956
0.455029
0.425797
0.40523
0.393088
0.391792
0.407893
0.454759
0.554977
0.737527
1.02636
1.43131
2.01634
1.15549
0.600125
0.510445
0.517596
0.559856
0.619802
0.677543
0.712525
0.461462
0.490289
0.549524
0.647408
0.816749
1.15929
1.93376
3.12048
3.6048
3.60726
3.57978
3.60717
3.60427
3.11618
1.9259
1.15493
0.816835
0.652293
0.558566
0.498467
0.456845
0.426898
0.405667
0.392603
0.38957
0.401912
0.440604
0.525214
0.686662
0.969187
1.41217
1.91176
0.772051
0.487038
0.443036
0.443546
0.459249
0.481449
0.502101
0.514343
0.459343
0.487494
0.544967
0.638787
0.797832
1.10996
1.80023
2.94899
3.56292
3.62271
3.60717
3.62259
3.56217
2.94428
1.79312
1.10603
0.79795
0.643506
0.553783
0.495536
0.454853
0.425367
0.404247
0.390919
0.38706
0.397635
0.433543
0.517649
0.696292
1.05366
1.72023
1.37848
0.58577
0.44829
0.424033
0.419549
0.420803
0.423665
0.426095
0.427439
0.453277
0.479561
0.532259
0.61543
0.748843
0.989852
1.48044
2.39585
3.27031
3.56244
3.60427
3.56217
3.26884
2.39112
1.47531
0.986881
0.749001
0.619672
0.540427
0.487214
0.449213
0.421255
0.401077
0.388495
0.385625
0.398416
0.44143
0.550217
0.802338
1.30169
2.29041
0.996422
0.523482
0.449827
0.432431
0.42388
0.41673
0.409422
0.40292
0.399147
0.444033
0.467658
0.513777
0.583133
0.686198
0.852446
1.14594
1.66815
2.39286
2.94479
3.11618
2.94428
2.39112
1.66513
1.14289
0.850441
0.686344
0.586686
0.520965
0.47466
0.440553
0.415083
0.396953
0.386817
0.387955
0.409326
0.474762
0.643222
1.02955
1.75412
2.46477
0.82441
0.526126
0.478493
0.461431
0.447829
0.433515
0.41874
0.40627
0.399259
0.432643
0.453269
0.49229
0.547832
0.623785
0.732638
0.896712
1.14431
1.47616
1.79344
1.9259
1.79312
1.47531
1.14289
0.895028
0.731304
0.623821
0.550565
0.498266
0.459418
0.429947
0.407999
0.393464
0.388135
0.397484
0.4368
0.546321
0.81299
1.36021
2.3575
2.34676
0.815622
0.589879
0.544363
0.518277
0.493702
0.46864
0.444662
0.425614
0.41524
0.42017
0.437824
0.470137
0.513645
0.568597
0.639392
0.732295
0.851113
0.987207
1.10613
1.15493
1.10603
0.986881
0.850441
0.731304
0.638401
0.568389
0.515457
0.47478
0.443159
0.418919
0.401737
0.392621
0.394923
0.418306
0.488973
0.667558
1.05566
1.76006
2.93763
2.87817
1.20434
0.880353
0.758036
0.665385
0.591184
0.533771
0.490054
0.45963
0.44403
0.407586
0.422502
0.448926
0.482689
0.522434
0.569321
0.624531
0.686725
0.749142
0.79798
0.816835
0.79795
0.749001
0.686344
0.623821
0.568389
0.521818
0.483509
0.452349
0.427621
0.409313
0.398179
0.396352
0.409986
0.456086
0.575257
0.842952
1.35031
2.15806
3.23401
3.8637
3.41361
2.75367
2.08454
1.45991
0.997661
0.719671
0.582805
0.517206
0.48953
0.395766
0.408242
0.429658
0.455746
0.484693
0.516581
0.55126
0.586998
0.619765
0.643518
0.652293
0.643506
0.619672
0.586686
0.550565
0.515457
0.483509
0.455655
0.432453
0.414567
0.402892
0.39896
0.406836
0.437831
0.519175
0.703636
1.06057
1.62398
2.32845
2.88126
3.01216
3.00509
3.10331
3.31718
3.57659
3.27693
1.81375
0.956711
0.656319
0.572423
0.385628
0.395904
0.413014
0.432986
0.454137
0.476323
0.499174
0.521363
0.54055
0.553803
0.558566
0.553783
0.540427
0.520965
0.498266
0.47478
0.452349
0.432453
0.416445
0.405554
0.401122
0.406033
0.428178
0.486346
0.616596
0.866681
1.25619
1.72218
2.08366
2.19134
2.16409
2.1704
2.25141
2.4052
2.63602
2.96633
3.45591
3.09303
1.36619
0.837455
0.378427
0.386562
0.399703
0.414499
0.429705
0.445244
0.46077
0.475321
0.487459
0.4956
0.498467
0.495536
0.487214
0.47466
0.459418
0.443159
0.427621
0.414567
0.405554
0.401941
0.405995
0.423602
0.468379
0.565185
0.744617
1.01506
1.32671
1.56178
1.63237
1.59264
1.55406
1.56776
1.63773
1.76469
1.95586
2.22586
2.59585
3.10079
3.67294
2.43742
0.376333
0.382004
0.390904
0.40072
0.41087
0.421397
0.43194
0.441717
0.449739
0.455029
0.456845
0.454853
0.449213
0.440553
0.429947
0.418919
0.409313
0.402892
0.401122
0.405995
0.422267
0.460472
0.538369
0.674527
0.868153
1.0789
1.2274
1.26025
1.20775
1.14463
1.11673
1.13168
1.18865
1.29057
1.44513
1.66548
1.97219
2.39647
2.97123
3.65633
0.383608
0.385691
0.388955
0.392926
0.39794
0.404047
0.410694
0.417067
0.422341
0.425797
0.426898
0.425367
0.421255
0.415083
0.407999
0.401737
0.398179
0.39896
0.406033
0.423602
0.460472
0.53007
0.642837
0.790406
0.936704
1.02525
1.02514
0.960379
0.884404
0.833797
0.815946
0.828642
0.87199
0.950224
1.07166
1.24919
1.50131
1.85299
2.32311
2.80199
0.408971
0.404624
0.398659
0.394121
0.392604
0.393846
0.396738
0.400164
0.403225
0.40523
0.405667
0.404247
0.401077
0.396953
0.393464
0.392621
0.396352
0.406836
0.428178
0.468379
0.538369
0.642837
0.766231
0.872511
0.91864
0.890156
0.812883
0.729528
0.668415
0.634341
0.623264
0.63258
0.663214
0.719653
0.810308
0.948237
1.15164
1.44149
1.82013
2.17736
0.469959
0.452799
0.42973
0.410739
0.399134
0.393609
0.391826
0.391929
0.392648
0.393088
0.392603
0.390919
0.388495
0.386817
0.388135
0.394923
0.409986
0.437831
0.486346
0.565185
0.674527
0.790406
0.872511
0.885551
0.829338
0.736334
0.645295
0.578416
0.537147
0.515459
0.508617
0.514886
0.535339
0.57395
0.638332
0.740941
0.899798
1.13413
1.43797
1.70852
0.598712
0.556155
0.500785
0.455797
0.42683
0.4102
0.401168
0.396399
0.393759
0.391792
0.38957
0.38706
0.385625
0.387955
0.397484
0.418306
0.456086
0.519175
0.616596
0.744617
0.868153
0.936704
0.91864
0.829338
0.712806
0.608671
0.534752
0.488697
0.462115
0.448472
0.444234
0.448272
0.461514
0.487164
0.531551
0.605611
0.726112
0.91108
1.15233
1.3594
0.842747
0.75487
0.643307
0.553439
0.494302
0.458257
0.436592
0.423333
0.414628
0.407893
0.401912
0.397635
0.398416
0.409326
0.4368
0.488973
0.575257
0.703636
0.866681
1.01506
1.0789
1.02525
0.890156
0.736334
0.608671
0.521793
0.468784
0.438019
0.420869
0.412261
0.409629
0.412179
0.420657
0.437577
0.468011
0.521069
0.6114
0.755245
0.94501
1.10446
1.25049
1.09373
0.898925
0.741318
0.634213
0.565606
0.521789
0.492849
0.47195
0.454759
0.440604
0.433543
0.44143
0.474762
0.546321
0.667558
0.842952
1.06057
1.25619
1.32671
1.2274
1.02514
0.812883
0.645295
0.534752
0.468784
0.431144
0.410185
0.398923
0.393455
0.39182
0.393414
0.398838
0.410098
0.431281
0.469883
0.538297
0.650557
0.800216
0.924367
1.85994
1.60675
1.30519
1.06242
0.891171
0.775207
0.696241
0.639607
0.594332
0.554977
0.525214
0.517649
0.550217
0.643222
0.81299
1.05566
1.35031
1.62398
1.72218
1.56178
1.26025
0.960379
0.729528
0.578416
0.488697
0.438019
0.410185
0.395311
0.387704
0.384197
0.383183
0.384171
0.387666
0.395338
0.410587
0.439701
0.493189
0.58301
0.703611
0.802781
2.72557
2.31704
1.88978
1.55045
1.30594
1.13273
1.00645
0.906264
0.817032
0.737527
0.686662
0.696292
0.802338
1.02955
1.36021
1.76006
2.15806
2.32845
2.08366
1.63237
1.20775
0.884404
0.668415
0.537147
0.462115
0.420869
0.398923
0.387704
0.382308
0.379991
0.379356
0.379974
0.38229
0.38777
0.399384
0.422617
0.466644
0.541848
0.643229
0.726057
2.91611
3.26608
2.70464
2.22536
1.90613
1.66943
1.48393
1.32023
1.16177
1.02636
0.969187
1.05366
1.30169
1.75412
2.3575
2.93763
3.23401
2.88126
2.19134
1.59264
1.14463
0.833797
0.634341
0.515459
0.448472
0.412261
0.393455
0.384197
0.379991
0.37832
0.37789
0.378305
0.379981
0.384275
0.393924
0.41396
0.452786
0.519829
0.610383
0.684058
0.858064
1.20723
2.18436
3.06041
2.76101
2.40804
2.13851
1.87926
1.62133
1.43131
1.41217
1.72023
2.29041
2.46477
2.34676
2.87817
3.8637
3.01216
2.16409
1.55406
1.11673
0.815946
0.623264
0.508617
0.444234
0.409629
0.39182
0.383183
0.379356
0.37789
0.377526
0.377876
0.379348
0.383264
0.392286
0.411304
0.448463
0.512874
0.599924
0.670645
0.578649
0.633407
0.796749
1.19307
1.96541
2.88202
2.94816
2.56902
2.19438
2.01634
1.91176
1.37848
0.996422
0.82441
0.815622
1.20434
3.41361
3.00509
2.1704
1.56776
1.13168
0.828642
0.63258
0.514886
0.448272
0.412179
0.393414
0.384171
0.379974
0.378305
0.377876
0.37829
0.379962
0.384248
0.393883
0.413896
0.452684
0.519666
0.61014
0.683747
0.558249
0.575339
0.614084
0.688707
0.83419
1.12833
1.63039
1.98684
1.70173
1.15549
0.772051
0.58577
0.523482
0.526126
0.589879
0.880353
2.75367
3.10331
2.25141
1.63773
1.18865
0.87199
0.663214
0.535339
0.461514
0.420657
0.398838
0.387666
0.38229
0.379981
0.379348
0.379962
0.382269
0.387731
0.399316
0.422498
0.46644
0.541507
0.642702
0.725371
0.605255
0.612861
0.627713
0.651532
0.693704
0.777231
0.915475
0.984124
0.812272
0.600125
0.487038
0.44829
0.449827
0.478493
0.544363
0.758036
2.08454
3.31718
2.4052
1.76469
1.29057
0.950224
0.719653
0.57395
0.487164
0.437577
0.410098
0.395338
0.38777
0.384275
0.383264
0.384248
0.387731
0.395381
0.410591
0.439636
0.493001
0.58261
0.702905
0.801804
0.704663
0.704245
0.704186
0.708583
0.728619
0.781098
0.851426
0.820599
0.652497
0.510445
0.443036
0.424033
0.432431
0.461431
0.518277
0.665385
1.45991
3.57659
2.63602
1.95586
1.44513
1.07166
0.810308
0.638332
0.531551
0.468011
0.431281
0.410587
0.399384
0.393924
0.392286
0.393883
0.399316
0.410591
0.43179
0.470394
0.538759
0.650853
0.800197
0.924044
0.834619
0.82657
0.813962
0.805536
0.817583
0.868672
0.929032
0.861082
0.668706
0.517596
0.443546
0.419549
0.42388
0.447829
0.493702
0.591184
0.997661
3.27693
2.96633
2.22586
1.66548
1.24919
0.948237
0.740941
0.605611
0.521069
0.469883
0.439701
0.422617
0.41396
0.411304
0.413896
0.422498
0.439636
0.470394
0.523873
0.614663
0.758871
0.948803
1.10834
0.947373
0.935981
0.918327
0.905925
0.919319
0.983054
1.06172
0.983003
0.751071
0.559856
0.459249
0.420803
0.41673
0.433515
0.46864
0.533771
0.719671
1.81375
3.45591
2.59585
1.97219
1.50131
1.15164
0.899798
0.726112
0.6114
0.538297
0.493189
0.466644
0.452786
0.448463
0.452684
0.46644
0.493001
0.538759
0.614663
0.737359
0.924575
1.16795
1.37691
1.00647
0.997196
0.983052
0.975026
0.995985
1.0814
1.20693
1.14729
0.86854
0.619802
0.481449
0.423665
0.409422
0.41874
0.444662
0.490054
0.582805
0.956711
3.09303
3.10079
2.39647
1.85299
1.44149
1.13413
0.91108
0.755245
0.650557
0.58301
0.541848
0.519829
0.512874
0.519666
0.541507
0.58261
0.650853
0.758871
0.924575
1.16683
1.47964
1.75899
1.02005
1.01443
1.00608
1.00396
1.03142
1.13595
1.32147
1.30658
0.983849
0.677543
0.502101
0.426095
0.40292
0.40627
0.425614
0.45963
0.517206
0.656319
1.36619
3.67294
2.97123
2.32311
1.82013
1.43797
1.15233
0.94501
0.800216
0.703611
0.643229
0.610383
0.599924
0.61014
0.642702
0.702905
0.800197
0.948803
1.16795
1.47964
1.888
2.27879
1.01768
1.01412
1.00894
1.00976
1.03951
1.15278
1.37947
1.40553
1.05493
0.712525
0.514343
0.427439
0.399147
0.399259
0.41524
0.44403
0.48953
0.572423
0.837455
2.43742
3.65633
2.80199
2.17736
1.70852
1.3594
1.10446
0.924367
0.802781
0.726057
0.684058
0.670645
0.683747
0.725371
0.801804
0.924044
1.10834
1.37691
1.75899
2.27879
2.8259
SCALARS C2 double 1
LOOKUP_TABLE default
3.54411
3.66942
3.84344
4.00106
4.1289
4.23211
4.31436
4.37715
4.42125
4.44732
4.45593
4.44729
4.42114
4.37682
4.31359
4.23083
4.12825
4.0058
3.8636
3.70167
3.51962
3.31594
3.08678
2.82409
2.51521
2.15104
1.74735
1.35255
1.01681
2.23262
4.29943
4.21272
3.94691
3.64234
3.34286
3.10341
2.97087
2.93946
2.95614
2.97379
3.66942
3.79025
3.95921
4.1141
4.23989
4.34053
4.41962
4.479
4.51995
4.54377
4.55156
4.54375
4.51986
4.47871
4.41892
4.3394
4.23953
4.11918
3.97849
3.81765
3.63656
3.43424
3.20784
2.95104
2.65313
2.30386
1.91049
1.51168
1.16355
1.23721
4.03661
4.21607
3.97217
3.67378
3.37735
3.1363
2.9958
2.95402
2.96369
2.97866
3.84344
3.95921
4.12211
4.27169
4.39173
4.48529
4.55594
4.6061
4.63837
4.65583
4.66127
4.65582
4.6383
4.60588
4.55537
4.48435
4.39155
4.27668
4.14009
3.98234
3.80386
3.60446
3.38262
3.13419
2.85109
2.52246
2.14523
1.74214
1.36272
1.08241
2.9297
4.17057
4.01254
3.7302
3.43902
3.19372
3.03878
2.97964
2.97801
2.98881
4.00106
4.1141
4.27169
4.41333
4.52292
4.60308
4.65714
4.68827
4.7016
4.70457
4.70451
4.70457
4.7016
4.6882
4.65682
4.60236
4.52266
4.41757
4.28806
4.13545
3.96096
3.76529
3.54813
3.3072
3.03684
2.72717
2.36867
1.96817
1.56316
1.2127
1.38702
3.9041
4.04427
3.7964
3.51095
3.25733
3.08385
3.00543
2.99265
3.00005
4.1289
4.23989
4.39173
4.52292
4.61722
4.67608
4.70123
4.69579
4.66903
4.63876
4.6255
4.6388
4.66915
4.69597
4.70128
4.67568
4.61683
4.52613
4.40628
4.26013
4.0901
3.89793
3.68437
3.44858
3.18686
2.89114
2.54985
2.15897
1.74241
1.35385
1.09693
3.08109
4.01908
3.84483
3.56282
3.29415
3.0984
3.00174
2.98189
2.98945
4.23211
4.34053
4.48529
4.60308
4.67608
4.70188
4.67621
4.59676
4.47656
4.35916
4.30896
4.35928
4.47693
4.5974
4.67686
4.70197
4.67562
4.60519
4.49786
4.35941
4.19417
4.00516
3.79419
3.56151
3.30492
3.01811
2.68983
2.31047
1.89229
1.48213
1.14642
1.78014
3.82493
3.82602
3.54392
3.2483
3.02039
2.89873
2.8699
2.87925
4.31436
4.41962
4.55594
4.65714
4.70123
4.67621
4.5591
4.32016
3.96191
3.60123
3.44664
3.6016
3.96291
4.32179
4.56078
4.67701
4.70074
4.65809
4.56647
4.43702
4.27696
4.09101
3.88205
3.65128
3.39756
3.11604
2.79667
2.42805
2.01515
1.59812
1.23897
1.18335
3.26399
3.66886
3.40392
3.08005
2.8078
2.62805
2.54511
2.5252
4.37715
4.479
4.6061
4.68827
4.69579
4.59676
4.32016
3.74936
2.89887
2.20265
1.97134
2.20325
2.90097
3.75295
4.32364
4.59859
4.69528
4.68804
4.61466
4.49501
4.34031
4.1573
3.95003
3.72048
3.46831
3.18982
2.87671
2.51895
2.11943
1.71273
1.35634
1.15994
2.59395
3.44734
3.25435
2.94892
2.65889
2.41303
2.2346
2.14198
4.42125
4.51995
4.63837
4.7016
4.66903
4.47656
3.96191
2.89887
1.76114
1.2649
1.15558
1.26524
1.76311
2.90473
3.96802
4.4797
4.66854
4.70027
4.6452
4.53481
4.38498
4.20455
3.99861
3.76978
3.51832
3.24173
2.93461
2.59174
2.21808
1.84099
1.50712
1.31211
2.69409
3.48273
3.31468
3.05578
2.79197
2.541
2.33899
2.22687
4.44732
4.54377
4.65583
4.70457
4.63876
4.35916
3.60123
2.20265
1.2649
1.00777
0.961239
1.00795
1.2661
2.20885
3.60986
4.36353
4.6383
4.70243
4.66146
4.55786
4.41149
4.23281
4.02764
3.799
3.54781
3.27366
2.97636
2.65768
2.3226
1.98303
1.66736
1.57416
3.38606
3.69095
3.50578
3.29358
3.07433
2.85699
2.67775
2.57777
4.45593
4.55156
4.66127
4.70451
4.6255
4.30896
3.44664
1.97134
1.15558
0.961239
0.928364
0.961375
1.15654
1.97721
3.45623
4.31385
4.62505
4.70206
4.66646
4.56538
4.42022
4.24203
4.03683
3.80792
3.55769
3.29007
3.01169
2.72669
2.42785
2.09791
1.7552
2.26981
3.90241
3.88346
3.72038
3.553
3.37569
3.19416
3.04105
2.95471
4.44729
4.54375
4.65582
4.70457
4.6388
4.35928
3.6016
2.20325
1.26524
1.00795
0.961375
1.00812
1.26644
2.20944
3.61018
4.36362
4.63831
4.70242
4.66144
4.55781
4.41126
4.23206
4.02597
3.79724
3.55195
3.30017
3.05028
2.79397
2.49196
2.09866
1.68271
3.42848
4.1573
4.06646
3.94104
3.8106
3.6649
3.50814
3.37073
3.2914
4.42114
4.51986
4.6383
4.7016
4.66915
4.47693
3.96291
2.90097
1.76311
1.2661
1.15654
1.26644
1.76506
2.90676
3.96894
4.48
4.66862
4.70027
4.64515
4.5346
4.38424
4.20265
3.99571
3.77078
3.53961
3.31351
3.08743
2.81938
2.42934
1.89818
1.71583
4.08097
4.3318
4.25491
4.16379
4.06171
3.93838
3.79722
3.66756
3.59041
4.37682
4.47871
4.60588
4.6882
4.69597
4.5974
4.32179
3.75295
2.90473
2.20885
1.97721
2.20944
2.90676
3.75643
4.32515
4.59915
4.69545
4.68801
4.61444
4.49429
4.33845
4.15418
3.94962
3.73729
3.52985
3.32481
3.08402
2.7238
2.17526
1.54319
2.25061
4.38052
4.48921
4.44059
4.3771
4.29664
4.19052
4.06149
3.9372
3.86085
4.31359
4.41892
4.55537
4.65682
4.70128
4.67686
4.56078
4.32364
3.96802
3.60986
3.45623
3.61018
3.96894
4.32515
4.56237
4.67762
4.70084
4.65784
4.5657
4.43513
4.27371
4.08981
3.89605
3.70543
3.51685
3.29682
2.97019
2.45572
1.80402
1.22513
2.83016
4.52009
4.61484
4.59577
4.55703
4.49775
4.41066
4.29657
4.1801
4.10573
4.23083
4.3394
4.48435
4.60236
4.67568
4.70197
4.67701
4.59859
4.4797
4.36353
4.31385
4.36362
4.48
4.59915
4.67762
4.70211
4.67533
4.60437
4.49598
4.35619
4.19263
4.01738
3.8431
3.66922
3.4662
3.16984
2.70627
2.08673
1.46531
1.00963
2.50325
4.3414
4.56073
4.61888
4.64134
4.62985
4.57979
4.49269
4.39157
4.32267
4.12825
4.23953
4.39155
4.52266
4.61683
4.67562
4.70074
4.69528
4.66854
4.6383
4.62505
4.63831
4.66862
4.69545
4.70084
4.67533
4.61637
4.525
4.40414
4.25972
4.10264
3.94465
3.78511
3.59745
3.32707
2.91243
2.34921
1.74128
1.22169
0.887905
0.998329
1.80217
2.60401
3.40187
4.08544
4.48512
4.62791
4.62377
4.55924
4.50365
4.0058
4.11918
4.27668
4.41757
4.52613
4.60519
4.65809
4.68804
4.70027
4.70243
4.70206
4.70242
4.70027
4.68801
4.65784
4.60437
4.525
4.41981
4.29273
4.15312
4.01147
3.86655
3.69378
3.4459
3.07257
2.56678
2.00098
1.48987
1.1249
0.9519
0.934042
0.945655
0.932943
0.921673
1.02874
1.90299
3.74532
4.51669
4.63956
4.62759
3.8636
3.97849
4.14009
4.28806
4.40628
4.49786
4.56647
4.61466
4.6452
4.66146
4.66646
4.66144
4.64515
4.61444
4.5657
4.49598
4.40414
4.29273
4.16982
4.04459
3.9149
3.75712
3.52914
3.18928
2.73281
2.21777
1.74291
1.39646
1.2213
1.19411
1.21655
1.21483
1.1807
1.12146
1.04421
0.960976
0.960517
2.21609
4.21606
4.59123
3.70167
3.81765
3.98234
4.13545
4.26013
4.35941
4.43702
4.49501
4.53481
4.55786
4.56538
4.55781
4.5346
4.49429
4.43513
4.35619
4.25972
4.15312
4.04459
3.93093
3.78856
3.5785
3.26543
2.84835
2.38039
1.95228
1.64323
1.48906
1.47311
1.51746
1.54568
1.53544
1.49003
1.41434
1.31297
1.19142
1.05892
0.940681
1.22143
3.15713
3.51962
3.63656
3.80386
3.96096
4.0901
4.19417
4.27696
4.34031
4.38498
4.41149
4.42022
4.41126
4.38424
4.33845
4.27371
4.19263
4.10264
4.01147
3.9149
3.78856
3.59487
3.30303
2.91623
2.48709
2.1038
1.83868
1.71866
1.72805
1.80228
1.86705
1.89192
1.87653
1.82416
1.73744
1.61928
1.47352
1.30582
1.12608
0.953091
0.848688
3.31594
3.43424
3.60446
3.76529
3.89793
4.00516
4.09101
4.1573
4.20455
4.23281
4.24203
4.23206
4.20265
4.15418
4.08981
4.01738
3.94465
3.86655
3.75712
3.5785
3.30303
2.9386
2.53965
2.19403
1.97048
1.88888
1.93116
2.03904
2.14079
2.20312
2.22421
2.20679
2.15217
2.06106
1.93418
1.77301
1.58121
1.367
1.14793
0.979247
3.08678
3.20784
3.38262
3.54813
3.68437
3.79419
3.88205
3.95003
3.99861
4.02764
4.03683
4.02597
3.99571
3.94962
3.89605
3.8431
3.78511
3.69378
3.52914
3.26543
2.91623
2.53965
2.22385
2.03608
1.99155
2.06865
2.21065
2.34705
2.4441
2.50033
2.51899
2.50155
2.44824
2.35859
2.23143
2.06531
1.86037
1.62284
1.37648
1.19205
2.82409
2.95104
3.13419
3.3072
3.44858
3.56151
3.65128
3.72048
3.76978
3.799
3.80792
3.79724
3.77078
3.73729
3.70543
3.66922
3.59745
3.4459
3.18928
2.84835
2.48709
2.19403
2.03608
2.02565
2.13722
2.31291
2.48207
2.61115
2.69959
2.75145
2.76867
2.75189
2.70105
2.61535
2.49279
2.32987
2.12287
1.8742
1.61151
1.41858
2.51521
2.65313
2.85109
3.03684
3.18686
3.30492
3.39756
3.46831
3.51832
3.54781
3.55769
3.55195
3.53961
3.52985
3.51685
3.4662
3.32707
3.07257
2.73281
2.38039
2.1038
1.97048
1.99155
2.13722
2.34672
2.54842
2.70868
2.82788
2.91094
2.96024
2.97666
2.96049
2.91167
2.82961
2.71241
2.55588
2.35385
2.10461
1.83621
1.64063
2.15104
2.30386
2.52246
2.72717
2.89114
3.01811
3.11604
3.18982
3.24173
3.27366
3.29007
3.30017
3.31351
3.32481
3.29682
3.16984
2.91243
2.56678
2.21777
1.95228
1.83868
1.88888
2.06865
2.31291
2.54842
2.74072
2.89071
3.00434
3.08462
3.13262
3.14866
3.13283
3.0852
3.00549
2.8923
2.74172
2.54674
2.30283
2.03652
1.84307
1.74735
1.91049
2.14523
2.36867
2.54985
2.68983
2.79667
2.87671
2.93461
2.97636
3.01169
3.05028
3.08743
3.08402
2.97019
2.70627
2.34921
2.00098
1.74291
1.64323
1.71866
1.93116
2.21065
2.48207
2.70868
2.89071
3.03516
3.14608
3.22509
3.27258
3.28848
3.27279
3.22565
3.14713
3.03633
2.88995
2.70111
2.46395
2.20332
2.01452
1.35255
1.51168
1.74214
1.96817
2.15897
2.31047
2.42805
2.51895
2.59174
2.65768
2.72669
2.79397
2.81938
2.7238
2.45572
2.08673
1.74128
1.48987
1.39646
1.48906
1.72805
2.03904
2.34705
2.61115
2.82788
3.00434
3.14608
3.25581
3.3344
3.38178
3.39767
3.38199
3.33495
3.25686
3.14725
3.00339
2.81886
2.58743
2.33273
2.14888
1.01681
1.16355
1.36272
1.56316
1.74241
1.89229
2.01515
2.11943
2.21808
2.3226
2.42785
2.49196
2.42934
2.17526
1.80402
1.46531
1.22169
1.1249
1.2213
1.47311
1.80228
2.14079
2.4441
2.69959
2.91094
3.08462
3.22509
3.3344
3.41294
3.46038
3.47631
3.46059
3.41349
3.33546
3.22633
3.0838
2.9019
2.6744
2.42425
2.24431
2.23262
1.23721
1.08241
1.2127
1.35385
1.48213
1.59812
1.71273
1.84099
1.98303
2.09791
2.09866
1.89818
1.54319
1.22513
1.00963
0.887905
0.9519
1.19411
1.51746
1.86705
2.20312
2.50033
2.75145
2.96024
3.13262
3.27258
3.38178
3.46038
3.50791
3.52388
3.50811
3.46093
3.38285
3.27387
3.13194
2.9514
2.72611
2.47867
2.30111
4.29943
4.03661
2.9297
1.38702
1.09693
1.14642
1.23897
1.35634
1.50712
1.66736
1.7552
1.68271
1.71583
2.25061
2.83016
2.50325
0.998329
0.934042
1.21655
1.54568
1.89192
2.22421
2.51899
2.76867
2.97666
3.14866
3.28848
3.39767
3.47631
3.52388
3.53985
3.52407
3.47685
3.39875
3.28979
3.14805
2.96793
2.74335
2.4968
2.32005
4.21272
4.21607
4.17057
3.9041
3.08109
1.78014
1.18335
1.15994
1.31211
1.57416
2.26981
3.42848
4.08097
4.38052
4.52009
4.3414
1.80217
0.945655
1.21483
1.53544
1.87653
2.20679
2.50155
2.75189
2.96049
3.13283
3.27279
3.38199
3.46059
3.50811
3.52407
3.50831
3.46113
3.38307
3.2741
3.13221
2.9517
2.72644
2.47904
2.30151
3.94691
3.97217
4.01254
4.04427
4.01908
3.82493
3.26399
2.59395
2.69409
3.38606
3.90241
4.1573
4.3318
4.48921
4.61484
4.56073
2.60401
0.932943
1.1807
1.49003
1.82416
2.15217
2.44824
2.70105
2.91167
3.0852
3.22565
3.33495
3.41349
3.46093
3.47685
3.46113
3.41405
3.33604
3.22695
3.08447
2.90263
2.67519
2.42511
2.24522
3.64234
3.67378
3.7302
3.7964
3.84483
3.82602
3.66886
3.44734
3.48273
3.69095
3.88346
4.06646
4.25491
4.44059
4.59577
4.61888
3.40187
0.921673
1.12146
1.41434
1.73744
2.06106
2.35859
2.61535
2.82961
3.00549
3.14713
3.25686
3.33546
3.38285
3.39875
3.38307
3.33604
3.25797
3.14839
3.00458
2.82009
2.58871
2.33409
2.15031
3.34286
3.37735
3.43902
3.51095
3.56282
3.54392
3.40392
3.25435
3.31468
3.50578
3.72038
3.94104
4.16379
4.3771
4.55703
4.64134
4.08544
1.02874
1.04421
1.31297
1.61928
1.93418
2.23143
2.49279
2.71241
2.8923
3.03633
3.14725
3.22633
3.27387
3.28979
3.2741
3.22695
3.14839
3.03755
2.89111
2.70217
2.46497
2.2044
2.01571
3.10341
3.1363
3.19372
3.25733
3.29415
3.2483
3.08005
2.94892
3.05578
3.29358
3.553
3.8106
4.06171
4.29664
4.49775
4.62985
4.48512
1.90299
0.960976
1.19142
1.47352
1.77301
2.06531
2.32987
2.55588
2.74172
2.88995
3.00339
3.0838
3.13194
3.14805
3.13221
3.08447
3.00458
2.89111
2.74016
2.54479
2.30069
2.03454
1.84132
2.97087
2.9958
3.03878
3.08385
3.0984
3.02039
2.8078
2.65889
2.79197
3.07433
3.37569
3.6649
3.93838
4.19052
4.41066
4.57979
4.62791
3.74532
0.960517
1.05892
1.30582
1.58121
1.86037
2.12287
2.35385
2.54674
2.70111
2.81886
2.9019
2.9514
2.96793
2.9517
2.90263
2.82009
2.70217
2.54479
2.34209
2.09285
1.82525
1.63037
2.93946
2.95402
2.97964
3.00543
3.00174
2.89873
2.62805
2.41303
2.541
2.85699
3.19416
3.50814
3.79722
4.06149
4.29657
4.49269
4.62377
4.51669
2.21609
0.940681
1.12608
1.367
1.62284
1.8742
2.10461
2.30283
2.46395
2.58743
2.6744
2.72611
2.74335
2.72644
2.67519
2.58871
2.46497
2.30069
2.09285
1.84474
1.58392
1.39242
2.95614
2.96369
2.97801
2.99265
2.98189
2.8699
2.54511
2.2346
2.33899
2.67775
3.04105
3.37073
3.66756
3.9372
4.1801
4.39157
4.55924
4.63956
4.21606
1.22143
0.953091
1.14793
1.37648
1.61151
1.83621
2.03652
2.20332
2.33273
2.42425
2.47867
2.4968
2.47904
2.42511
2.33409
2.2044
2.03454
1.82525
1.58392
1.33474
1.14789
2.97379
2.97866
2.98881
3.00005
2.98945
2.87925
2.5252
2.14198
2.22687
2.57777
2.95471
3.2914
3.59041
3.86085
4.10573
4.32267
4.50365
4.62759
4.59123
3.15713
0.848688
0.979247
1.19205
1.41858
1.64063
1.84307
2.01452
2.14888
2.24431
2.30111
2.32005
2.30151
2.24522
2.15031
2.01571
1.84132
1.63037
1.39242
1.14789
0.957471
