# vtk DataFile Version 3.0
Brusselator Concentration Output
ASCII
DATASET STRUCTURED_POINTS
DIMENSIONS 40 40 1
ORIGIN 0.0 0.0 0.0
SPACING 0.005 0.005 1.0
POINT_DATA 1600
SCALARS C1 double 1
LOOKUP_TABLE default
1
1
1
1
1
1
1
1
1
1
1
1
1
1
1
1
1
1
1
1
1
1
1
1
1
1
1
1
1
1
1
1
1
1
1
1
1
1
1
1
1
1
1
1
1
1
1
1
1.00001
1.00002
1.00002
1.00002
1.00001
1
1
1
1
1
1
1
1
1
1
1
1
1
1
1
1
1
1
1
1
1
1
1
1
1
1
1
1
1
1
1
1
1
1.00001
1.00002
1.00005
1.00009
1.00011
1.00009
1.00005
1.00002
1.00001
1
1
1
1
1
1
1
1
1
1
1
1
1
1
1
1
1
1
1
1
1
1
1
1
1
1
1
1
1
1
1.00001
1.00004
1.00013
1.00028
1.00048
1.00058
1.00048
1.00028
1.00013
1.00004
1.00001
1
1
1
1
1
1
1
1
1
1
1
1
1
1
1
1
1
1
1
1
1
1
1
1
1
1
1
1
1.00001
1.00006
1.00021
1.00059
1.00131
1.00217
1.00256
1.00217
1.00131
1.00059
1.00021
1.00006
1.00001
1
1
1
1
1
1
1
1
1
1
1
1
1
1
1
1
1
1
1
1
1
1
1
1
1
1
1.00001
1.00006
1.00024
1.00084
1.00235
1.00506
1.00798
1.00904
1.00798
1.00506
1.00235
1.00084
1.00024
1.00006
1.00001
1
1
1
1
1
1
1
1
1
1
1
1
1
1
1
1
1
1
1
1
1
1
1
1
1.00001
1.00004
1.00021
1.00084
1.00284
1.00765
1.01543
1.02201
1.023
1.02201
1.01543
1.00765
1.00284
1.00084
1.00021
1.00004
1.00001
1
1
1
1
1
1
1
1
1
1
1
1
1
1
1
1
1
1
1
1
1
1
1
1.00002
1.00013
1.00059
1.00235
1.00765
1.01916
1.03366
1.03735
1.03036
1.03735
1.03366
1.01916
1.00765
1.00235
1.00059
1.00013
1.00002
1
1
1
1
1
1
1
1
1
1
1
1
1
1
1
1
1
1
1
1
1
1
1.00001
1.00005
1.00028
1.00131
1.00506
1.01543
1.03366
1.04213
1.0113
0.976641
1.0113
1.04213
1.03366
1.01543
1.00506
1.00131
1.00028
1.00005
1.00001
1
1
1
1
1
1
1
1
1
1
1
1
1
1
1
1
1
1
1
1
1
1.00002
1.00009
1.00048
1.00217
1.00798
1.02201
1.03735
1.0113
0.913195
0.842499
0.913195
1.0113
1.03735
1.02201
1.00798
1.00217
1.00048
1.00009
1.00002
1
1
1
1
1
1
1
1
1
1
1
1
1
1
1
1
1
1
1
1
1
1.00002
1.00011
1.00058
1.00256
1.00904
1.023
1.03036
0.976641
0.842499
0.755484
0.842499
0.976641
1.03036
1.023
1.00904
1.00256
1.00058
1.00011
1.00002
1
1
1
1
1
1
1
1
1
1
1
1
1
1
1
1
1
1
1
1
1
1.00002
1.00009
1.00048
1.00217
1.00798
1.02201
1.03735
1.0113
0.913195
0.842499
0.913195
1.0113
1.03735
1.02201
1.00798
1.00217
1.00048
1.00009
1.00002
1
1
1
1
1
1
1
1
1
1
1
1
1
1
1
1
1
1
1
1
1
1.00001
1.00005
1.00028
1.00131
1.00506
1.01543
1.03366
1.04213
1.0113
0.976641
1.0113
1.04213
1.03366
1.01543
1.00506
1.00131
1.00028
1.00005
1.00001
1
1
1
1
1
1
1
1
1
1
1
1
1
1
1
1
1
1
1
1
1
1
1.00002
1.00013
1.00059
1.00235
1.00765
1.01916
1.03366
1.03735
1.03036
1.03735
1.03366
1.01916
1.00765
1.00235
1.00059
1.00013
1.00002
1
1
1
1
1
1
1
1
1
1
1
1
1
1
1
1
1
1
1
1
1
1
1
1.00001
1.00004
1.00021
1.00084
1.00284
1.00765
1.01543
1.02201
1.023
1.02201
1.01543
1.00765
1.00284
1.00084
1.00021
1.00004
1.00001
1
1
1
1
1
1
1
1
1
1
1
1
1
1
1
1
1
1
1
1
1
1
1
1
1.00001
1.00006
1.00024
1.00084
1.00235
1.00506
1.00798
1.00904
1.00798
1.00506
1.00235
1.00084
1.00024
1.00006
1.00001
1
1
1
1
1
1
1
1
1
1
1
1
1
1
1
1
1
1
1
1
1
1
1
1
1
1
1.00001
1.00006
1.00021
1.00059
1.00131
1.00217
1.00256
1.00217
1.00131
1.00059
1.00021
1.00006
1.00001
1
1
1
1
1
1
1
1
1
1
1
1
1
1
1
1
1
1
1
1
1
1
1
1
1
1
1
1
1.00001
1.00004
1.00013
1.00028
1.00048
1.00058
1.00048
1.00028
1.00013
1.00004
1.00001
1
1
1
1
1
1
1
1
1
1
1
1
1
1
1
1
1
1
1
1
1
1
1
1
1
1
1
1
1
1
1.00001
1.00002
1.00005
1.00009
1.00011
1.00009
1.00005
1.00002
1.00001
1
1
1
1
1
1
1
1
1
1
1
1
1
1
1
1
1
1
1
1
1
1
1
1
1
1
1
1
1
1
1
1
1
1.00001
1.00002
1.00002
1.00002
1.00001
1
1
1
1
1
1
1
1
1
1
1
1
1
1
1
1
1
1
1
1
1
1
1
1
1
1
1
1
1
1
1
1
1
1
1
1
1
1
1
1
1
1
1
1
1
1
1
1
1
1
1
1
1
1
1
1
0.999999
0.999999
0.999999
1
1
1
1
1
1
1
1
1
1
1
1
1
1
1
1
1
1
1
1
1
1
1
1
1
1
1
1
1
1
1
1
1
1
1
0.999999
0.999997
0.999995
0.999994
0.999995
0.999997
0.999999
1
1
1
1
1
1
1
1
1
1
1
1
1
1
1
1
1
1
1
1
1
1
1
1
1
1
1
1
1
1
1
0.999999
0.999998
0.999993
0.999984
0.999973
0.999968
0.999973
0.999984
0.999993
0.999998
0.999999
1
1
1
1
1
1
1
1
1
1
1
1
1
1
1
1
1
1
1
1
1
1
1
1
1
1
1
1
0.999999
0.999996
0.999987
0.999964
0.999918
0.99986
0.999832
0.99986
0.999918
0.999964
0.999987
0.999996
0.999999
1
1
1
1
1
1
1
1
1
1
1
1
1
1
1
1
1
1
1
1
1
1
1
1
1
1
0.999999
0.999996
0.999983
0.999941
0.999832
0.999623
0.999369
0.999247
0.999369
0.999623
0.999832
0.999941
0.999983
0.999996
0.999999
1
1
1
1
1
1
1
1
1
1
1
1
1
1
1
1
1
1
1
1
1
1
1
1
0.999999
0.999996
0.999983
0.99993
0.99976
0.99933
0.998533
0.997607
0.9972
0.997607
0.998533
0.99933
0.99976
0.99993
0.999983
0.999996
0.999999
1
1
1
1
1
1
1
1
1
1
1
1
1
1
1
1
1
1
1
1
1
1
1
0.999998
0.999987
0.999941
0.99976
0.999191
0.997788
0.995324
0.992709
0.991773
0.992709
0.995324
0.997788
0.999191
0.99976
0.999941
0.999987
0.999998
1
1
1
1
1
1
1
1
1
1
1
1
1
1
1
1
1
1
1
1
1
1
0.999999
0.999993
0.999964
0.999832
0.99933
0.997788
0.994178
0.988379
0.983344
0.982649
0.983344
0.988379
0.994178
0.997788
0.99933
0.999832
0.999964
0.999993
0.999999
1
1
1
1
1
1
1
1
1
1
1
1
1
1
1
1
1
1
1
1
1
0.999997
0.999984
0.999918
0.999623
0.998533
0.995324
0.988379
0.979034
0.97517
0.980204
0.97517
0.979034
0.988379
0.995324
0.998533
0.999623
0.999918
0.999984
0.999997
1
1
1
1
1
1
1
1
1
1
1
1
1
1
1
1
1
1
1
1
0.999999
0.999995
0.999973
0.99986
0.999369
0.997607
0.992709
0.983344
0.97517
0.985347
1.01099
0.985347
0.97517
0.983344
0.992709
0.997607
0.999369
0.99986
0.999973
0.999995
1
1
1
1
1
1
1
1
1
1
1
1
1
1
1
1
1
1
1
1
0.999999
0.999994
0.999968
0.999832
0.999247
0.9972
0.991773
0.982649
0.980204
1.01099
1.06384
1.01099
0.980204
0.982649
0.991773
0.9972
0.999247
0.999831
0.999967
0.999994
1
1
1
1
1
1
1
1
1
1
1
1
1
1
1
1
1
1
1
1
0.999999
0.999995
0.999973
0.99986
0.999369
0.997607
0.992709
0.983344
0.97517
0.985347
1.01099
0.985347
0.97517
0.983344
0.992709
0.997607
0.999369
0.99986
0.999973
0.999995
1
1
1
1
1
1
1
1
1
1
1
1
1
1
1
1
1
1
1
1
1
0.999997
0.999984
0.999918
0.999623
0.998533
0.995324
0.988379
0.979034
0.97517
0.980204
0.97517
0.979034
0.988379
0.995324
0.998533
0.999623
0.999918
0.999984
0.999997
1
1
1
1
1
1
1
1
1
1
1
1
1
1
1
1
1
1
1
1
1
0.999999
0.999993
0.999964
0.999832
0.99933
0.997788
0.994178
0.988379
0.983344
0.982649
0.983344
0.988379
0.994178
0.997788
0.99933
0.999832
0.999964
0.999993
0.999999
1
1
1
1
1
1
1
1
1
1
1
1
1
1
1
1
1
1
1
1
1
1
0.999998
0.999987
0.999941
0.99976
0.999191
0.997788
0.995324
0.992709
0.991773
0.992709
0.995324
0.997788
0.999191
0.99976
0.999941
0.999987
0.999998
1
1
1
1
1
1
1
1
1
1
1
1
1
1
1
1
1
1
1
1
1
1
1
0.999999
0.999996
0.999983
0.99993
0.99976
0.99933
0.998533
0.997607
0.9972
0.997607
0.998533
0.99933
0.99976
0.99993
0.999983
0.999996
0.999999
1
1
1
1
1
1
1
1
1
1
1
1
1
1
1
1
1
1
1
1
1
1
1
1
0.999999
0.999996
0.999983
0.999941
0.999832
0.999623
0.999369
0.999247
0.999369
0.999623
0.999832
0.999941
0.999983
0.999996
0.999999
1
1
1
1
1
1
1
1
1
1
1
1
1
1
1
1
1
1
1
1
1
1
1
1
1
1
0.999999
0.999996
0.999987
0.999964
0.999918
0.99986
0.999831
0.99986
0.999918
0.999964
0.999987
0.999996
0.999999
1
1
1
1
1
1
1
1
1
1
1
1
1
1
1
1
1
1
1
1
1
1
1
1
1
1
1
1
0.999999
0.999998
0.999993
0.999984
0.999973
0.999967
0.999973
0.999984
0.999993
0.999998
0.999999
1
1
1
1
1
1
1
1
1
1
1
1
1
1
1
1
1
1
1
1
1
1
1
1
1
1
1
1
1
1
1
0.999999
0.999997
0.999995
0.999994
0.999995
0.999997
0.999999
1
1
1
1
1
1
SCALARS C2 double 1
LOOKUP_TABLE default
3
3
3
3
3
3
3
3
3
3
3
3
3
3
3
3
3
3
3
3
3
3
3
3
3
3
3
3
3
3
3
3
3
3
3
3
3
3
3
3
3
3
3
3
3
3
3
3
2.99999
2.99999
2.99999
2.99999
2.99999
3
3
3
3
3
3
3
3
3
3
3
3
3
3
3
3
3
3
3
3
3
3
3
3
3
3
3
3
3
3
3
3
3
2.99999
2.99998
2.99996
2.99992
2.9999
2.99992
2.99996
2.99998
2.99999
3
3
3
3
3
3
3
3
3
3
3
3
3
3
3
3
3
3
3
3
3
3
3
3
3
3
3
3
3
3
2.99999
2.99997
2.9999
2.99975
2.99955
2.99944
2.99955
2.99975
2.9999
2.99997
2.99999
3
3
3
3
3
3
3
3
3
3
3
3
3
3
3
3
3
3
3
3
3
3
3
3
3
3
3
3
2.99999
2.99996
2.99983
2.99948
2.99873
2.99772
2.99719
2.99772
2.99873
2.99948
2.99983
2.99996
2.99999
3
3
3
3
3
3
3
3
3
3
3
3
3
3
3
3
3
3
3
3
3
3
3
3
3
3
2.99999
2.99996
2.9998
2.99925
2.9977
2.99446
2.99023
2.98817
2.99023
2.99446
2.9977
2.99925
2.9998
2.99996
2.99999
3
3
3
3
3
3
3
3
3
3
3
3
3
3
3
3
3
3
3
3
3
3
3
3
2.99999
2.99997
2.99983
2.99925
2.9972
2.99146
2.97997
2.96615
2.96055
2.96615
2.97997
2.99146
2.9972
2.99925
2.99983
2.99997
2.99999
3
3
3
3
3
3
3
3
3
3
3
3
3
3
3
3
3
3
3
3
3
3
3
2.99998
2.9999
2.99948
2.9977
2.99146
2.97468
2.94374
2.91334
2.9073
2.91334
2.94374
2.97468
2.99146
2.9977
2.99948
2.9999
2.99998
3
3
3
3
3
3
3
3
3
3
3
3
3
3
3
3
3
3
3
3
3
3
2.99999
2.99996
2.99975
2.99873
2.99446
2.97997
2.94374
2.88858
2.85989
2.87859
2.85989
2.88858
2.94374
2.97997
2.99446
2.99873
2.99975
2.99996
2.99999
3
3
3
3
3
3
3
3
3
3
3
3
3
3
3
3
3
3
3
3
3
2.99999
2.99992
2.99955
2.99772
2.99023
2.96615
2.91334
2.85989
2.88676
2.96263
2.88676
2.85989
2.91334
2.96615
2.99023
2.99772
2.99955
2.99992
2.99999
3
3
3
3
3
3
3
3
3
3
3
3
3
3
3
3
3
3
3
3
3
2.99999
2.9999
2.99944
2.99719
2.98817
2.96055
2.9073
2.87859
2.96263
3.0693
2.96263
2.87859
2.9073
2.96055
2.98817
2.99719
2.99944
2.9999
2.99999
3
3
3
3
3
3
3
3
3
3
3
3
3
3
3
3
3
3
3
3
3
2.99999
2.99992
2.99955
2.99772
2.99023
2.96615
2.91334
2.85989
2.88676
2.96263
2.88676
2.85989
2.91334
2.96615
2.99023
2.99772
2.99955
2.99992
2.99999
3
3
3
3
3
3
3
3
3
3
3
3
3
3
3
3
3
3
3
3
3
2.99999
2.99996
2.99975
2.99873
2.99446
2.97997
2.94374
2.88858
2.85989
2.87859
2.85989
2.88858
2.94374
2.97997
2.99446
2.99873
2.99975
2.99996
2.99999
3
3
3
3
3
3
3
3
3
3
3
3
3
3
3
3
3
3
3
3
3
3
2.99998
2.9999
2.99948
2.9977
2.99146
2.97468
2.94374
2.91334
2.9073
2.91334
2.94374
2.97468
2.99146
2.9977
2.99948
2.9999
2.99998
3
3
3
3
3
3
3
3
3
3
3
3
3
3
3
3
3
3
3
3
3
3
3
2.99999
2.99997
2.99983
2.99925
2.9972
2.99146
2.97997
2.96615
2.96055
2.96615
2.97997
2.99146
2.9972
2.99925
2.99983
2.99997
2.99999
3
3
3
3
3
3
3
3
3
3
3
3
3
3
3
3
3
3
3
3
3
3
3
3
2.99999
2.99996
2.9998
2.99925
2.9977
2.99446
2.99023
2.98817
2.99023
2.99446
2.9977
2.99925
2.9998
2.99996
2.99999
3
3
3
3
3
3
3
3
3
3
3
3
3
3
3
3
3
3
3
3
3
3
3
3
3
3
2.99999
2.99996
2.99983
2.99948
2.99873
2.99772
2.99719
2.99772
2.99873
2.99948
2.99983
2.99996
2.99999
3
3
3
3
3
3
3
3
3
3
3
3
3
3
3
3
3
3
3
3
3
3
3
3
3
3
3
3
2.99999
2.99997
2.9999
2.99975
2.99955
2.99944
2.99955
2.99975
2.9999
2.99997
2.99999
3
3
3
3
3
3
3
3
3
3
3
3
3
3
3
3
3
3
3
3
3
3
3
3
3
3
3
3
3
3
2.99999
2.99998
2.99996
2.99992
2.9999
2.99992
2.99996
2.99998
2.99999
3
3
3
3
3
3
3
3
3
3
3
3
3
3
3
3
3
3
3
3
3
3
3
3
3
3
3
3
3
3
3
3
3
2.99999
2.99999
2.99999
2.99999
2.99999
3
3
3
3
3
3
3
3
3
3
3
3
3
3
3
3
3
3
3
3
3
3
3
3
3
3
3
3
3
3
3
3
3
3
3
3
3
3
3
3
3
3
3
3
3
3
3
3
3
3
3
3
3
3
3
3
3
3
3
3
3
3
3
3
3
3
3
3
3
3
3
3
3
3
3
3
3
3
3
3
3
3
3
3
3
3
3
3
3
3
3
3
3
3
3
3
3
3
3
3
3
3
3
3
3
3
3
3
3
3
3
3
3
3
3
3
3
3
3
3
3
3
3
3
3
3
3
3
3
3
3
3
3
3
3.00001
3.00001
3.00002
3.00003
3.00002
3.00001
3.00001
3
3
3
3
3
3
3
3
3
3
3
3
3
3
3
3
3
3
3
3
3
3
3
3
3
3
3
3
3
3
3
3
3.00001
3.00003
3.00007
3.00013
3.00016
3.00013
3.00007
3.00003
3.00001
3
3
3
3
3
3
3
3
3
3
3
3
3
3
3
3
3
3
3
3
3
3
3
3
3
3
3
3
3
3
3.00001
3.00005
3.00015
3.00036
3.00066
3.00082
3.00066
3.00036
3.00015
3.00005
3.00001
3
3
3
3
3
3
3
3
3
3
3
3
3
3
3
3
3
3
3
3
3
3
3
3
3
3
3
3
3.00001
3.00006
3.00021
3.00066
3.00159
3.00284
3.00352
3.00284
3.00159
3.00066
3.00021
3.00006
3.00001
3
3
3
3
3
3
3
3
3
3
3
3
3
3
3
3
3
3
3
3
3
3
3
3
3
3
3.00001
3.00005
3.00021
3.0008
3.00243
3.00582
3.0103
3.0126
3.0103
3.00582
3.00243
3.0008
3.00021
3.00005
3.00001
3
3
3
3
3
3
3
3
3
3
3
3
3
3
3
3
3
3
3
3
3
3
3
3
3.00001
3.00003
3.00015
3.00066
3.00243
3.00735
3.01729
3.02998
3.036
3.02998
3.01729
3.00735
3.00243
3.00066
3.00015
3.00003
3.00001
3
3
3
3
3
3
3
3
3
3
3
3
3
3
3
3
3
3
3
3
3
3
3
3.00001
3.00007
3.00036
3.00159
3.00582
3.01729
3.03979
3.06683
3.07769
3.06683
3.03979
3.01729
3.00582
3.00159
3.00036
3.00007
3.00001
3
3
3
3
3
3
3
3
3
3
3
3
3
3
3
3
3
3
3
3
3
3
3
3.00002
3.00013
3.00066
3.00284
3.0103
3.02998
3.06683
3.10671
3.11648
3.10671
3.06683
3.02998
3.0103
3.00284
3.00066
3.00013
3.00002
3
3
3
3
3
3
3
3
3
3
3
3
3
3
3
3
3
3
3
3
3
3
3
3.00003
3.00016
3.00082
3.00352
3.0126
3.036
3.07769
3.11648
3.11545
3.11648
3.07769
3.036
3.0126
3.00352
3.00082
3.00016
3.00003
3.00001
3
3
3
3
3
3
3
3
3
3
3
3
3
3
3
3
3
3
3
3
3
3
3.00002
3.00013
3.00066
3.00284
3.0103
3.02998
3.06683
3.10671
3.11648
3.10671
3.06683
3.02998
3.0103
3.00284
3.00066
3.00013
3.00002
3
3
3
3
3
3
3
3
3
3
3
3
3
3
3
3
3
3
3
3
3
3
3
3.00001
3.00007
3.00036
3.00159
3.00582
3.01729
3.03979
3.06683
3.07769
3.06683
3.03979
3.01729
3.00582
3.00159
3.00036
3.00007
3.00001
3
3
3
3
3
3
3
3
3
3
3
3
3
3
3
3
3
3
3
3
3
3
3
3.00001
3.00003
3.00015
3.00066
3.00243
3.00735
3.01729
3.02998
3.036
3.02998
3.01729
3.00735
3.00243
3.00066
3.00015
3.00003
3.00001
3
3
3
3
3
3
3
3
3
3
3
3
3
3
3
3
3
3
3
3
3
3
3
3
3.00001
3.00005
3.00021
3.0008
3.00243
3.00582
3.0103
3.0126
3.0103
3.00582
3.00243
3.0008
3.00021
3.00005
3.00001
3
3
3
3
3
3
3
3
3
3
3
3
3
3
3
3
3
3
3
3
3
3
3
3
3
3
3.00001
3.00006
3.00021
3.00066
3.00159
3.00284
3.00352
3.00284
3.00159
3.00066
3.00021
3.00006
3.00001
3
3
3
3
3
3
3
3
3
3
3
3
3
3
3
3
3
3
3
3
3
3
3
3
3
3
3
3
3.00001
3.00005
3.00015
3.00036
3.00066
3.00082
3.00066
3.00036
3.00015
3.00005
3.00001
3
3
3
3
3
3
3
3
3
3
3
3
3
3
3
3
3
3
3
3
3
3
3
3
3
3
3
3
3
3
3.00001
3.00003
3.00007
3.00013
3.00016
3.00013
3.00007
3.00003
3.00001
3
3
3
3
3
3
3
3
3
3
3
3
3
3
3
3
3
3
3
3
3
3
3
3
3
3
3
3
3
3
3
3
3.00001
3.00001
3.00002
3.00003
3.00002
3.00001
3.00001
3
3
3
3
3
3
3
3
3
3
3
3
3
3
3
3
3
3
3
3
3
3
3
3
3
3
3
3
3
3
3
3
3
3
3
3
3.00001
3
3
3
3
3
3
3
3
3
