# vtk DataFile Version 3.0
Brusselator Concentration Output
ASCII
DATASET STRUCTURED_POINTS
DIMENSIONS 40 40 1
ORIGIN 0.0 0.0 0.0
SPACING 0.005 0.005 1.0
POINT_DATA 1600
SCALARS C1 double 1
LOOKUP_TABLE default
1
1
1
1
1
1.00001
1.00003
1.00006
1.0001
1.00013
1.00015
1.00013
1.0001
1.00006
1.00003
1.00001
1
1
1
1
1
1
1
1
1
1
1
1
1
1
1
1
1
1
1
1
1
1
1
1
1
1
1
1.00001
1.00002
1.00004
1.0001
1.0002
1.00032
1.00042
1.00046
1.00042
1.00032
1.0002
1.0001
1.00004
1.00002
1.00001
1
1
1
1
1
1
1
1
1
1
1
1
1
1
1
1
1
1
1
1
1
1
1
1
1.00001
1.00002
1.00006
1.00016
1.00037
1.0007
1.00107
1.00134
1.00143
1.00134
1.00107
1.0007
1.00037
1.00016
1.00006
1.00002
1.00001
1
1
1
1
1
1
1
1
1
1
1
1
1
1
1
1
1
1
1
1
1
1
1.00001
1.00002
1.00007
1.00021
1.00054
1.00117
1.00205
1.00289
1.00334
1.00343
1.00334
1.00289
1.00205
1.00117
1.00054
1.00021
1.00007
1.00002
1.00001
1
1
1
1
1
1
1
1
1
1
1
1
1
1
1
1
1
1
1
1
1
1.00002
1.00006
1.00021
1.00061
1.00151
1.00301
1.00471
1.00556
1.00515
1.00469
1.00515
1.00556
1.00471
1.00301
1.00151
1.00061
1.00021
1.00006
1.00002
1
1
1
1
1
1
1
1
1
1
1
1
1
1
1
1
1
1
1
1
1.00001
1.00004
1.00016
1.00054
1.00151
1.00342
1.00596
1.00712
1.0042
0.998286
0.995288
0.998286
1.0042
1.00712
1.00596
1.00342
1.00151
1.00054
1.00016
1.00004
1.00001
1
1
1
1
1
1
1
1
1
1
1
1
1
1
1
1
1
1
1
1.00003
1.0001
1.00037
1.00117
1.00301
1.00596
1.00762
1.00178
0.984112
0.962748
0.95383
0.962748
0.984112
1.00178
1.00762
1.00596
1.00301
1.00117
1.00037
1.0001
1.00002
1.00001
1
1
1
1
1
1
1
1
1
1
1
1
1
1
1
1
1
1
1.00006
1.0002
1.0007
1.00205
1.00471
1.00712
1.00178
0.976147
0.928894
0.883494
0.867219
0.883494
0.928894
0.976147
1.00178
1.00712
1.00471
1.00205
1.0007
1.0002
1.00005
1.00001
1
1
1
1
1
1
1
1
1
1
1
1
1
1
1
1
1
1
1.0001
1.00032
1.00107
1.00289
1.00556
1.0042
0.984112
0.928894
0.848292
0.782673
0.762416
0.782673
0.848292
0.928894
0.984112
1.0042
1.00556
1.00289
1.00106
1.00032
1.00008
1.00002
1
1
1
1
1
1
1
1
1
1
1
1
1
1
1
1
1
1
1.00013
1.00042
1.00134
1.00334
1.00515
0.998286
0.962748
0.883494
0.782673
0.709263
0.689455
0.709263
0.782673
0.883494
0.962748
0.998286
1.00515
1.00334
1.00134
1.00042
1.00011
1.00002
1.00001
1
1
1
1
1
1
1
1
1
1
1
1
1
1
1
1
1
1.00015
1.00046
1.00143
1.00343
1.00469
0.995288
0.95383
0.867219
0.762416
0.689455
0.670723
0.689455
0.762416
0.867219
0.95383
0.995288
1.00469
1.00343
1.00143
1.00045
1.00012
1.00003
1.00001
1
1
1
1
1
1
1
1
1
1
1
1
1
1
1
1
1
1.00013
1.00042
1.00134
1.00334
1.00515
0.998286
0.962748
0.883494
0.782673
0.709263
0.689455
0.709263
0.782673
0.883494
0.962748
0.998286
1.00515
1.00334
1.00134
1.00042
1.00011
1.00002
1.00001
1
1
1
1
1
1
1
1
1
1
1
1
1
1
1
1
1
1.0001
1.00032
1.00107
1.00289
1.00556
1.0042
0.984112
0.928894
0.848292
0.782673
0.762416
0.782673
0.848292
0.928894
0.984112
1.0042
1.00556
1.00289
1.00106
1.00032
1.00008
1.00002
1
1
1
1
1
1
1
1
1
1
1
1
1
1
1
1
1
1
1.00006
1.0002
1.0007
1.00205
1.00471
1.00712
1.00178
0.976147
0.928894
0.883494
0.867219
0.883494
0.928894
0.976147
1.00178
1.00712
1.00471
1.00205
1.0007
1.0002
1.00005
1.00001
1
1
1
1
1
1
1
1
1
1
1
1
1
1
1
1
1
1
1.00003
1.0001
1.00037
1.00117
1.00301
1.00596
1.00762
1.00178
0.984112
0.962748
0.95383
0.962748
0.984112
1.00178
1.00762
1.00596
1.00301
1.00117
1.00037
1.0001
1.00002
1.00001
1
1
1
1
1
1
1
1
1
1
1
1
1
1
1
1
1
1
1.00001
1.00004
1.00016
1.00054
1.00151
1.00342
1.00596
1.00712
1.0042
0.998286
0.995288
0.998286
1.0042
1.00712
1.00596
1.00342
1.00151
1.00054
1.00016
1.00004
1.00001
1
1
1
1
1
1
1
1
1
1
1
1
1
1
1
1
1
1
1
1
1.00002
1.00006
1.00021
1.00061
1.00151
1.00301
1.00471
1.00556
1.00515
1.00469
1.00515
1.00556
1.00471
1.00301
1.00151
1.00061
1.00021
1.00006
1.00002
1
1
1
1
1
1
1
1
1
1
1
1
1
1
1
1
1
1
1
1
1
1.00001
1.00002
1.00007
1.00021
1.00054
1.00117
1.00205
1.00289
1.00334
1.00343
1.00334
1.00289
1.00205
1.00117
1.00054
1.00021
1.00007
1.00002
1.00001
1
1
1
1
1
1
1
1
1
1
1
1
1
1
1
1
1
1
1
1
1
1
1.00001
1.00002
1.00006
1.00016
1.00037
1.0007
1.00106
1.00134
1.00143
1.00134
1.00106
1.0007
1.00037
1.00016
1.00006
1.00002
1.00001
1
1
1
1
1
1
1
1
0.999999
0.999999
0.999999
0.999998
0.999999
0.999999
0.999999
1
1
1
1
1
1
1
1
1
1.00001
1.00002
1.00004
1.0001
1.0002
1.00032
1.00042
1.00045
1.00042
1.00032
1.0002
1.0001
1.00004
1.00002
1.00001
1
1
1
1
1
1
1
0.999999
0.999998
0.999997
0.999995
0.999993
0.999992
0.999993
0.999995
0.999997
0.999998
0.999999
1
1
1
1
1
1
1
1
1
1.00001
1.00002
1.00005
1.00008
1.00011
1.00012
1.00011
1.00008
1.00005
1.00002
1.00001
1
1
1
1
1
1
1
1
0.999999
0.999997
0.999993
0.999986
0.999976
0.999968
0.999964
0.999968
0.999976
0.999986
0.999993
0.999997
0.999999
1
1
1
1
1
1
1
1
1
1.00001
1.00001
1.00002
1.00002
1.00003
1.00002
1.00002
1.00001
1.00001
1
1
1
1
1
1
1
1
0.999999
0.999995
0.999987
0.99997
0.999942
0.999905
0.999873
0.999861
0.999873
0.999905
0.999942
0.99997
0.999987
0.999995
0.999999
1
1
1
1
1
1
1
1
1
1
1
1.00001
1.00001
1.00001
1
1
1
1
1
1
1
1
1
1
0.999998
0.999994
0.999982
0.999952
0.99989
0.99979
0.999669
0.999572
0.999537
0.999572
0.999669
0.99979
0.99989
0.999952
0.999982
0.999994
0.999998
0.999999
1
1
1
1
1
1
1
1
1
1
1
1
1
1
1
1
1
1
1
1
1
0.999999
0.999994
0.99998
0.999939
0.99984
0.999647
0.999353
0.999033
0.998811
0.998744
0.998811
0.999033
0.999353
0.999647
0.99984
0.999939
0.99998
0.999994
0.999998
1
1
1
1
1
1
1
1
1
1
1
1
1
1
1
1
1
1
1
1
0.999999
0.999995
0.999982
0.999939
0.999819
0.999543
0.999038
0.998358
0.997769
0.997543
0.997553
0.997543
0.997769
0.998358
0.999038
0.999543
0.999819
0.999939
0.999982
0.999994
1
1
1
1
1
1
1
1
1
1
1
1
1
1
1
1
1
1
1
0.999999
0.999997
0.999987
0.999952
0.99984
0.999543
0.998903
0.997869
0.996811
0.996576
0.997501
0.998235
0.997501
0.996576
0.996811
0.997869
0.998903
0.999543
0.99984
0.999951
0.999984
1
1
1
1
1
1
1
1
1
1
1
1
1
1
1
1
1
1
1
0.999998
0.999993
0.99997
0.99989
0.999647
0.999038
0.997869
0.99642
0.996191
0.999494
1.00598
1.00964
1.00598
0.999494
0.996191
0.99642
0.997869
0.999038
0.999647
0.999889
0.999963
1
1
1
1
1
1
1
1
1
1
1
1
1
1
1
1
1
1
0.999999
0.999997
0.999986
0.999942
0.99979
0.999353
0.998358
0.996811
0.996191
1.00091
1.0164
1.03917
1.05043
1.03917
1.0164
1.00091
0.996191
0.99681
0.998358
0.999353
0.999787
0.999927
1
1
1
1
1
1
1
1
1
1
1
1
1
1
1
1
1
1
0.999999
0.999995
0.999976
0.999905
0.999669
0.999033
0.997769
0.996576
0.999494
1.0164
1.05757
1.11028
1.13215
1.11028
1.05757
1.0164
0.999494
0.996576
0.997769
0.999032
0.999664
0.999881
1
1
1
1
1
1
1
1
1
1
1
1
1
1
1
1
1
1
0.999999
0.999993
0.999968
0.999873
0.999572
0.998811
0.997543
0.997501
1.00598
1.03917
1.11028
1.18713
1.20802
1.18713
1.11028
1.03917
1.00598
0.997501
0.997543
0.99881
0.999565
0.999841
1
1
1
1
1
1
1
1
1
1
1
1
1
1
1
1
1
1
0.999998
0.999992
0.999964
0.999861
0.999537
0.998744
0.997553
0.998235
1.00964
1.05043
1.13215
1.20802
1.21835
1.20802
1.13215
1.05043
1.00964
0.998235
0.997553
0.998743
0.999529
0.999825
1
1
1
1
1
1
1
1
1
1
1
1
1
1
1
1
1
1
0.999999
0.999993
0.999968
0.999873
0.999572
0.998811
0.997543
0.997501
1.00598
1.03917
1.11028
1.18713
1.20802
1.18713
1.11028
1.03917
1.00598
0.997501
0.997543
0.99881
0.999565
0.999841
1
1
1
1
1
1
1
1
1
1
1
1
1
1
1
1
1
1
0.999999
0.999995
0.999976
0.999905
0.999669
0.999033
0.997769
0.996576
0.999494
1.0164
1.05757
1.11028
1.13215
1.11028
1.05757
1.0164
0.999494
0.996576
0.997769
0.999032
0.999664
0.999881
1
1
1
1
1
1
1
1
1
1
1
1
1
1
1
1
1
1
0.999999
0.999997
0.999986
0.999942
0.99979
0.999353
0.998358
0.996811
0.996191
1.00091
1.0164
1.03917
1.05043
1.03917
1.0164
1.00091
0.996191
0.99681
0.998358
0.999353
0.999787
0.999927
1
1
1
1
1
1
1
1
1
1
1
1
1
1
1
1
1
1
1
0.999998
0.999993
0.99997
0.99989
0.999647
0.999038
0.997869
0.99642
0.996191
0.999494
1.00598
1.00964
1.00598
0.999494
0.996191
0.99642
0.997869
0.999038
0.999647
0.999889
0.999963
1
1
1
1
1
1
1
1
1
1
1
1
1
1
1
1
1
1
1
0.999999
0.999997
0.999987
0.999952
0.99984
0.999543
0.998903
0.997869
0.99681
0.996576
0.997501
0.998235
0.997501
0.996576
0.99681
0.997869
0.998903
0.999543
0.99984
0.999951
0.999984
1
1
1
1
1
1
1
1
1
1
1
1
1
1
1
1
1
1
1
1
0.999999
0.999995
0.999982
0.999939
0.999819
0.999543
0.999038
0.998358
0.997769
0.997543
0.997553
0.997543
0.997769
0.998358
0.999038
0.999543
0.999819
0.999939
0.999982
0.999994
1
1
1
1
1
1
1
1
1
1
1
1
1
1
1
1
1
1
1
1
1
0.999999
0.999994
0.99998
0.999939
0.99984
0.999647
0.999353
0.999032
0.99881
0.998743
0.99881
0.999032
0.999353
0.999647
0.99984
0.999939
0.99998
0.999994
0.999998
1
1
1
1
1
1
1
1
1
1
1
1
1
1
1
1
1
1
1
1
1
1
0.999998
0.999994
0.999982
0.999951
0.999889
0.999787
0.999664
0.999565
0.999529
0.999565
0.999664
0.999787
0.999889
0.999951
0.999982
0.999994
0.999998
0.999999
1
1
1
1
1
1
1
1
1
1
1
1
1
1
1
1
1
1
1
1
1
1
0.999999
0.999998
0.999994
0.999984
0.999963
0.999927
0.999881
0.999841
0.999825
0.999841
0.999881
0.999927
0.999963
0.999984
0.999994
0.999998
0.999999
1
SCALARS C2 double 1
LOOKUP_TABLE default
3
3
3
3
3
2.99999
2.99997
2.99994
2.9999
2.99986
2.99984
2.99986
2.9999
2.99994
2.99997
2.99999
3
3
3
3
3
3
3
3
3
3
3
3
3
3
3
3
3
3
3
3
3
3
3
3
3
3
3
3
2.99999
2.99996
2.9999
2.99979
2.99964
2.99951
2.99945
2.99951
2.99964
2.99979
2.9999
2.99996
2.99999
3
3
3
3
3
3
3
3
3
3
3
3
3
3
3
3
3
3
3
3
3
3
3
3
3
3
2.99998
2.99994
2.99984
2.9996
2.99919
2.99865
2.99819
2.99802
2.99819
2.99865
2.99919
2.9996
2.99984
2.99994
2.99998
3
3
3
3
3
3
3
3
3
3
3
3
3
3
3
3
3
3
3
3
3
3
3
3
2.99998
2.99994
2.99979
2.99941
2.9986
2.99726
2.99565
2.99443
2.99402
2.99443
2.99565
2.99726
2.9986
2.99941
2.99979
2.99994
2.99998
3
3
3
3
3
3
3
3
3
3
3
3
3
3
3
3
3
3
3
3
3
3
2.99999
2.99994
2.99979
2.99933
2.99817
2.99583
2.99231
2.98874
2.98678
2.98643
2.98678
2.98874
2.99231
2.99583
2.99817
2.99933
2.99979
2.99994
2.99999
3
3
3
3
3
3
3
3
3
3
3
3
3
3
3
3
3
3
3
3
2.99999
2.99996
2.99984
2.99941
2.99817
2.99521
2.9898
2.98311
2.97916
2.98054
2.98266
2.98054
2.97916
2.98311
2.9898
2.99521
2.99817
2.99941
2.99984
2.99996
2.99999
3
3
3
3
3
3
3
3
3
3
3
3
3
3
3
3
3
3
3
2.99997
2.9999
2.9996
2.9986
2.99583
2.9898
2.98072
2.97463
2.98196
3.00215
3.01407
3.00215
2.98196
2.97463
2.98072
2.9898
2.99583
2.9986
2.9996
2.9999
2.99998
3
3
3
3
3
3
3
3
3
3
3
3
3
3
3
3
3
3
3
2.99994
2.99979
2.99919
2.99726
2.99231
2.98311
2.97463
2.98449
3.03077
3.09785
3.13148
3.09785
3.03077
2.98449
2.97463
2.98311
2.99231
2.99726
2.99919
2.99979
2.99995
2.99999
3
3
3
3
3
3
3
3
3
3
3
3
3
3
3
3
3
3
2.9999
2.99964
2.99865
2.99565
2.98874
2.97916
2.98196
3.03077
3.14539
3.28372
3.35039
3.28372
3.14539
3.03077
2.98196
2.97916
2.98874
2.99565
2.99865
2.99965
2.99992
2.99998
3
3
3
3
3
3
3
3
3
3
3
3
3
3
3
3
3
3
2.99986
2.99951
2.99819
2.99443
2.98678
2.98054
3.00215
3.09785
3.28372
3.49406
3.59778
3.49406
3.28372
3.09785
3.00215
2.98054
2.98678
2.99443
2.99819
2.99951
2.99989
2.99998
3
3
3
3
3
3
3
3
3
3
3
3
3
3
3
3
3
3
2.99984
2.99945
2.99802
2.99402
2.98643
2.98266
3.01407
3.13148
3.35039
3.59778
3.72113
3.59778
3.35039
3.13148
3.01407
2.98266
2.98643
2.99402
2.99802
2.99946
2.99987
2.99997
2.99999
3
3
3
3
3
3
3
3
3
3
3
3
3
3
3
3
3
2.99986
2.99951
2.99819
2.99443
2.98678
2.98054
3.00215
3.09785
3.28372
3.49406
3.59778
3.49406
3.28372
3.09785
3.00215
2.98054
2.98678
2.99443
2.99819
2.99951
2.99989
2.99998
3
3
3
3
3
3
3
3
3
3
3
3
3
3
3
3
3
3
2.9999
2.99964
2.99865
2.99565
2.98874
2.97916
2.98196
3.03077
3.14539
3.28372
3.35039
3.28372
3.14539
3.03077
2.98196
2.97916
2.98874
2.99565
2.99865
2.99965
2.99992
2.99998
3
3
3
3
3
3
3
3
3
3
3
3
3
3
3
3
3
3
2.99994
2.99979
2.99919
2.99726
2.99231
2.98311
2.97463
2.98449
3.03077
3.09785
3.13148
3.09785
3.03077
2.98449
2.97463
2.98311
2.99231
2.99726
2.99919
2.99979
2.99995
2.99999
3
3
3
3
3
3
3
3
3
3
3
3
3
3
3
3
3
3
2.99997
2.9999
2.9996
2.9986
2.99583
2.9898
2.98072
2.97463
2.98196
3.00215
3.01407
3.00215
2.98196
2.97463
2.98072
2.9898
2.99583
2.9986
2.9996
2.9999
2.99998
3
3
3
3
3
3
3
3
3
3
3
3
3
3
3
3
3
3
3
2.99999
2.99996
2.99984
2.99941
2.99817
2.99521
2.9898
2.98311
2.97916
2.98054
2.98266
2.98054
2.97916
2.98311
2.9898
2.99521
2.99817
2.99941
2.99984
2.99996
2.99999
3
3
3
3
3
3
3
3
3
3
3
3
3
3
3
3
3
3
3
3
2.99999
2.99994
2.99979
2.99933
2.99817
2.99583
2.99231
2.98874
2.98678
2.98643
2.98678
2.98874
2.99231
2.99583
2.99817
2.99933
2.99979
2.99994
2.99999
3
3
3
3
3
3
3
3
3
3
3
3
3
3
3
3
3
3
3
3
3
3
2.99998
2.99994
2.99979
2.99941
2.9986
2.99726
2.99565
2.99443
2.99402
2.99443
2.99565
2.99726
2.9986
2.99941
2.99979
2.99994
2.99998
3
3
3
3
3
3
3
3
3
3
3
3
3
3
3
3
3
3
3
3
3
3
3
3
2.99998
2.99994
2.99984
2.9996
2.99919
2.99865
2.99819
2.99802
2.99819
2.99865
2.99919
2.9996
2.99984
2.99994
2.99998
3
3
3
3
3
3
3
3
3
3
3
3
3
3
3
3
3
3
3
3
3
3
3
3
3
3
2.99999
2.99996
2.9999
2.99979
2.99965
2.99951
2.99946
2.99951
2.99965
2.99979
2.9999
2.99996
2.99999
3
3
3
3
3
3
3
3
3
3
3
3
3.00001
3.00001
3.00001
3
3
3
3
3
3
3
3
3
3
3
3
3
2.99999
2.99998
2.99995
2.99992
2.99989
2.99987
2.99989
2.99992
2.99995
2.99998
2.99999
3
3
3
3
3
3
3
3
3
3
3.00001
3.00001
3.00002
3.00003
3.00004
3.00003
3.00002
3.00001
3.00001
3
3
3
3
3
3
3
3
3
3
3
3
2.99999
2.99998
2.99998
2.99997
2.99998
2.99998
2.99999
3
3
3
3
3
3
3
3
3
3
3
3.00001
3.00003
3.00006
3.0001
3.00015
3.00016
3.00015
3.0001
3.00006
3.00003
3.00001
3
3
3
3
3
3
3
3
3
3
3
3
3
3
2.99999
3
3
3
3
3
3
3
3
3
3
3
3
3.00001
3.00002
3.00005
3.00012
3.00024
3.00041
3.00056
3.00061
3.00056
3.00041
3.00024
3.00012
3.00005
3.00002
3.00001
3
3
3
3
3
3
3
3
3
3
3
3
3
3
3
3
3
3
3
3
3
3
3
3
3.00001
3.00002
3.00006
3.00017
3.00041
3.00083
3.00136
3.00182
3.00198
3.00182
3.00136
3.00083
3.00041
3.00017
3.00006
3.00002
3.00001
3
3
3
3
3
3
3
3
3
3
3
3
3
3
3
3
3
3
3
3
3
3
3
3.00002
3.00006
3.0002
3.00054
3.00127
3.00246
3.00385
3.00488
3.00519
3.00488
3.00385
3.00246
3.00127
3.00054
3.0002
3.00006
3.00002
3
3
3
3
3
3
3
3
3
3
3
3
3
3
3
3
3
3
3
3
3
3
3.00001
3.00005
3.00017
3.00054
3.00146
3.00329
3.006
3.00865
3.00986
3.00983
3.00986
3.00865
3.006
3.00329
3.00146
3.00054
3.00017
3.00005
3.00001
3
3
3
3
3
3
3
3
3
3
3
3
3
3
3
3
3
3
3
3
3.00001
3.00003
3.00012
3.00041
3.00127
3.00329
3.00694
3.01141
3.01354
3.01076
3.0076
3.01076
3.01354
3.01141
3.00694
3.00329
3.00127
3.00041
3.00012
3.00004
3
3
3
3
3
3
3
3
3
3
3
3
3
3
3
3
3
3
3
3
3.00001
3.00006
3.00024
3.00083
3.00246
3.006
3.01141
3.01481
3.00718
2.98485
2.96931
2.98485
3.00718
3.01481
3.01141
3.006
3.00246
3.00083
3.00024
3.00007
3
3
3
3
3
3
3
3
3
3
3
3
3
3
3
3
3
3
3
3
3.00002
3.0001
3.00041
3.00136
3.00385
3.00865
3.01354
3.00718
2.96767
2.89251
2.84726
2.89251
2.96767
3.00718
3.01354
3.00865
3.00385
3.00137
3.00041
3.00013
3
3
3
3
3
3
3
3
3
3
3
3
3
3
3
3
3
3
3
3.00001
3.00003
3.00015
3.00056
3.00182
3.00488
3.00986
3.01076
2.98485
2.89251
2.74212
2.66365
2.74212
2.89251
2.98485
3.01076
3.00986
3.00488
3.00182
3.00056
3.00018
3
3
3
3
3
3
3
3
3
3
3
3
3
3
3
3
3
3
3
3.00001
3.00004
3.00016
3.00061
3.00198
3.00519
3.00983
3.0076
2.96931
2.84726
2.66365
2.57711
2.66365
2.84726
2.96931
3.0076
3.00983
3.00519
3.00198
3.00062
3.0002
3
3
3
3
3
3
3
3
3
3
3
3
3
3
3
3
3
3
3
3.00001
3.00003
3.00015
3.00056
3.00182
3.00488
3.00986
3.01076
2.98485
2.89251
2.74212
2.66365
2.74212
2.89251
2.98485
3.01076
3.00986
3.00488
3.00182
3.00056
3.00018
3
3
3
3
3
3
3
3
3
3
3
3
3
3
3
3
3
3
3
3
3.00002
3.0001
3.00041
3.00136
3.00385
3.00865
3.01354
3.00718
2.96767
2.89251
2.84726
2.89251
2.96767
3.00718
3.01354
3.00865
3.00385
3.00137
3.00041
3.00013
3
3
3
3
3
3
3
3
3
3
3
3
3
3
3
3
3
3
3
3
3.00001
3.00006
3.00024
3.00083
3.00246
3.006
3.01141
3.01481
3.00718
2.98485
2.96931
2.98485
3.00718
3.01481
3.01141
3.006
3.00246
3.00083
3.00024
3.00007
3
3
3
3
3
3
3
3
3
3
3
3
3
3
3
3
3
3
3
3
3.00001
3.00003
3.00012
3.00041
3.00127
3.00329
3.00694
3.01141
3.01354
3.01076
3.0076
3.01076
3.01354
3.01141
3.00694
3.00329
3.00127
3.00041
3.00012
3.00004
3
3
3
3
3
3
3
3
3
3
3
3
3
3
3
3
3
3
3
3
3
3.00001
3.00005
3.00017
3.00054
3.00146
3.00329
3.006
3.00865
3.00986
3.00983
3.00986
3.00865
3.006
3.00329
3.00146
3.00054
3.00017
3.00005
3.00001
3
3
3
3
3
3
3
3
3
3
3
3
3
3
3
3
3
3
3
3
3
3
3.00002
3.00006
3.0002
3.00054
3.00127
3.00246
3.00385
3.00488
3.00519
3.00488
3.00385
3.00246
3.00127
3.00054
3.0002
3.00006
3.00002
3
3
3
3
3
3
3
3
3
3
3
3
3
3
3
3
3
3
3
3
3
3
3
3.00001
3.00002
3.00006
3.00017
3.00041
3.00083
3.00137
3.00182
3.00198
3.00182
3.00137
3.00083
3.00041
3.00017
3.00006
3.00002
3.00001
3
3
3
3
3
3
3
3
3
3
3
3
3
3
3
3
3
3
3
3
3
3
3
3
3.00001
3.00002
3.00005
3.00012
3.00024
3.00041
3.00056
3.00062
3.00056
3.00041
3.00024
3.00012
3.00005
3.00002
3.00001
3
3
3
3
3
3
3
3
3
3
3
3
3
3
3
3
3
3
3
3
3
3
3
3
3
3
3
3.00001
3.00004
3.00007
3.00013
3.00018
3.0002
3.00018
3.00013
3.00007
3.00004
3.00001
3
3
3
3
