# vtk DataFile Version 3.0
Brusselator Concentration Output
ASCII
DATASET STRUCTURED_POINTS
DIMENSIONS 40 40 1
ORIGIN 0.0 0.0 0.0
SPACING 0.005 0.005 1.0
POINT_DATA 1600
SCALARS C1 double 1
LOOKUP_TABLE default
1
1
1
1
1
1
1
1.00001
1.00001
1.00002
1.00002
1.00002
1.00001
1.00001
1
1
1
1
1
1
1
1
1
1
1
1
1
1
1
1
1
1
1
1
1
1
1
1
1
1
1
1
1
1
1
1
1.00001
1.00003
1.00006
1.0001
1.00011
1.0001
1.00006
1.00003
1.00001
1
1
1
1
1
1
1
1
1
1
1
1
1
1
1
1
1
1
1
1
1
1
1
1
1
1
1
1
1
1.00001
1.00002
1.00007
1.00015
1.00029
1.00043
1.00049
1.00043
1.00029
1.00015
1.00007
1.00002
1.00001
1
1
1
1
1
1
1
1
1
1
1
1
1
1
1
1
1
1
1
1
1
1
1
1
1
1
1.00001
1.00003
1.0001
1.00028
1.00064
1.00117
1.00167
1.00186
1.00167
1.00117
1.00064
1.00028
1.0001
1.00003
1.00001
1
1
1
1
1
1
1
1
1
1
1
1
1
1
1
1
1
1
1
1
1
1
1
1
1.00001
1.00003
1.00011
1.00037
1.00101
1.00225
1.0039
1.00523
1.00563
1.00523
1.0039
1.00225
1.00101
1.00037
1.00011
1.00003
1.00001
1
1
1
1
1
1
1
1
1
1
1
1
1
1
1
1
1
1
1
1
1
1
1
1.00002
1.0001
1.00037
1.00118
1.00309
1.00643
1.01012
1.01194
1.01191
1.01194
1.01012
1.00643
1.00309
1.00118
1.00037
1.0001
1.00002
1
1
1
1
1
1
1
1
1
1
1
1
1
1
1
1
1
1
1
1
1
1
1.00001
1.00007
1.00028
1.00101
1.00309
1.00758
1.01393
1.01752
1.01391
1.00979
1.01391
1.01752
1.01393
1.00758
1.00309
1.00101
1.00028
1.00007
1.00001
1
1
1
1
1
1
1
1
1
1
1
1
1
1
1
1
1
1
1
1
1.00001
1.00003
1.00015
1.00064
1.00225
1.00643
1.01393
1.0196
1.00986
0.982351
0.966134
0.982351
1.00986
1.0196
1.01393
1.00643
1.00225
1.00064
1.00015
1.00003
1.00001
1
1
1
1
1
1
1
1
1
1
1
1
1
1
1
1
1
1
1
1.00001
1.00006
1.00029
1.00117
1.0039
1.01012
1.01752
1.00986
0.962816
0.891287
0.858095
0.891287
0.962816
1.00986
1.01752
1.01012
1.0039
1.00117
1.00029
1.00006
1.00001
1
1
1
1
1
1
1
1
1
1
1
1
1
1
1
1
1
1
1
1.00002
1.0001
1.00043
1.00167
1.00523
1.01194
1.01391
0.982351
0.891287
0.78176
0.736901
0.78176
0.891287
0.982351
1.01391
1.01194
1.00523
1.00167
1.00043
1.00009
1.00002
1
1
1
1
1
1
1
1
1
1
1
1
1
1
1
1
1
1
1
1.00002
1.00011
1.00049
1.00186
1.00563
1.01191
1.00979
0.966134
0.858095
0.736901
0.687726
0.736901
0.858095
0.966134
1.00979
1.01191
1.00563
1.00186
1.00049
1.00011
1.00002
1
1
1
1
1
1
1
1
1
1
1
1
1
1
1
1
1
1
1
1.00002
1.0001
1.00043
1.00167
1.00523
1.01194
1.01391
0.982351
0.891287
0.78176
0.736901
0.78176
0.891287
0.982351
1.01391
1.01194
1.00523
1.00167
1.00043
1.00009
1.00002
1
1
1
1
1
1
1
1
1
1
1
1
1
1
1
1
1
1
1
1.00001
1.00006
1.00029
1.00117
1.0039
1.01012
1.01752
1.00986
0.962816
0.891287
0.858095
0.891287
0.962816
1.00986
1.01752
1.01012
1.0039
1.00117
1.00029
1.00006
1.00001
1
1
1
1
1
1
1
1
1
1
1
1
1
1
1
1
1
1
1
1.00001
1.00003
1.00015
1.00064
1.00225
1.00643
1.01393
1.0196
1.00986
0.982351
0.966134
0.982351
1.00986
1.0196
1.01393
1.00643
1.00225
1.00064
1.00015
1.00003
1.00001
1
1
1
1
1
1
1
1
1
1
1
1
1
1
1
1
1
1
1
1
1.00001
1.00007
1.00028
1.00101
1.00309
1.00758
1.01393
1.01752
1.01391
1.00979
1.01391
1.01752
1.01393
1.00758
1.00309
1.00101
1.00028
1.00007
1.00001
1
1
1
1
1
1
1
1
1
1
1
1
1
1
1
1
1
1
1
1
1
1
1.00002
1.0001
1.00037
1.00118
1.00309
1.00643
1.01012
1.01194
1.01191
1.01194
1.01012
1.00643
1.00309
1.00118
1.00037
1.0001
1.00002
1
1
1
1
1
1
1
1
1
1
1
1
1
1
1
1
1
1
1
1
1
1
1
1.00001
1.00003
1.00011
1.00037
1.00101
1.00225
1.0039
1.00523
1.00563
1.00523
1.0039
1.00225
1.00101
1.00037
1.00011
1.00003
1.00001
1
1
1
1
1
1
1
1
1
1
1
1
1
1
1
1
1
1
1
1
1
1
1
1
1.00001
1.00003
1.0001
1.00028
1.00064
1.00117
1.00167
1.00186
1.00167
1.00117
1.00064
1.00028
1.0001
1.00003
1.00001
1
1
1
1
1
1
1
1
1
1
1
1
1
1
1
1
1
1
1
1
1
1
1
1
1
1
1.00001
1.00002
1.00007
1.00015
1.00029
1.00043
1.00049
1.00043
1.00029
1.00015
1.00007
1.00002
1.00001
1
1
1
1
1
1
1
1
1
1
1
1
1
1
1
1
1
1
1
1
1
1
1
1
1
1
1
1
1
1.00001
1.00003
1.00006
1.00009
1.00011
1.00009
1.00006
1.00003
1.00001
1
1
1
1
1
1
1
1
1
1
1
1
1
0.999999
0.999999
0.999999
0.999999
0.999999
1
1
1
1
1
1
1
1
1
1
1
1
1
1
1.00001
1.00001
1.00002
1.00002
1.00002
1.00001
1.00001
1
1
1
1
1
1
1
1
1
1
1
1
0.999999
0.999998
0.999996
0.999995
0.999994
0.999995
0.999996
0.999998
0.999999
1
1
1
1
1
1
1
1
1
1
1
1
1
1
1
1
1
1
1
1
1
1
1
1
1
1
1
1
1
1
0.999999
0.999996
0.99999
0.999982
0.999972
0.999968
0.999972
0.999982
0.99999
0.999996
0.999999
1
1
1
1
1
1
1
1
1
1
1
1
1
1
1
1
1
1
1
1
1
1
1
1
1
1
1
0.999999
0.999998
0.999993
0.999981
0.999955
0.999915
0.999874
0.999856
0.999874
0.999915
0.999955
0.999981
0.999993
0.999998
0.999999
1
1
1
1
1
1
1
1
1
1
1
1
1
1
1
1
1
1
1
1
1
1
1
1
0.999999
0.999998
0.999991
0.999971
0.99992
0.999815
0.999655
0.999498
0.999434
0.999498
0.999655
0.999815
0.99992
0.999971
0.999991
0.999998
0.999999
1
1
1
1
1
1
1
1
1
1
1
1
1
1
1
1
1
1
1
1
1
1
1
0.999998
0.999991
0.999967
0.999893
0.999707
0.999338
0.998809
0.998328
0.998153
0.998328
0.998809
0.999338
0.999707
0.999893
0.999967
0.999991
0.999998
1
1
1
1
1
1
1
1
1
1
1
1
1
1
1
1
1
1
1
1
1
1
0.999999
0.999993
0.999971
0.999893
0.999659
0.999088
0.998021
0.996627
0.995559
0.995289
0.995559
0.996627
0.998021
0.999088
0.999659
0.999893
0.999971
0.999993
0.999998
1
1
1
1
1
1
1
1
1
1
1
1
1
1
1
1
1
1
1
1
0.999999
0.999996
0.999981
0.99992
0.999707
0.999088
0.99766
0.995237
0.992642
0.991587
0.991984
0.991587
0.992642
0.995237
0.99766
0.999088
0.999707
0.99992
0.999981
0.999995
1
1
1
1
1
1
1
1
1
1
1
1
1
1
1
1
1
1
1
1
0.999998
0.99999
0.999955
0.999815
0.999338
0.998021
0.995237
0.991323
0.989262
0.9928
0.99744
0.9928
0.989262
0.991323
0.995237
0.998021
0.999338
0.999815
0.999955
0.999989
1
1
1
1
1
1
1
1
1
1
1
1
1
1
1
1
1
1
1
0.999999
0.999996
0.999982
0.999915
0.999655
0.998809
0.996627
0.992642
0.989262
0.994804
1.01657
1.03532
1.01657
0.994804
0.989262
0.992642
0.996627
0.998809
0.999655
0.999914
0.999978
1
1
1
1
1
1
1
1
1
1
1
1
1
1
1
1
1
1
1
0.999999
0.999995
0.999972
0.999874
0.999498
0.998328
0.995559
0.991587
0.9928
1.01657
1.07582
1.12217
1.07582
1.01657
0.9928
0.991587
0.995559
0.998328
0.999498
0.999873
0.999967
1
1
1
1
1
1
1
1
1
1
1
1
1
1
1
1
1
1
1
0.999999
0.999994
0.999968
0.999856
0.999434
0.998153
0.995289
0.991984
0.99744
1.03532
1.12217
1.18706
1.12217
1.03532
0.99744
0.991984
0.995289
0.998153
0.999434
0.999855
0.999962
1
1
1
1
1
1
1
1
1
1
1
1
1
1
1
1
1
1
1
0.999999
0.999995
0.999972
0.999874
0.999498
0.998328
0.995559
0.991587
0.9928
1.01657
1.07582
1.12217
1.07582
1.01657
0.9928
0.991587
0.995559
0.998328
0.999498
0.999873
0.999967
1
1
1
1
1
1
1
1
1
1
1
1
1
1
1
1
1
1
1
0.999999
0.999996
0.999982
0.999915
0.999655
0.998809
0.996627
0.992642
0.989262
0.994804
1.01657
1.03532
1.01657
0.994804
0.989262
0.992642
0.996627
0.998809
0.999655
0.999914
0.999978
1
1
1
1
1
1
1
1
1
1
1
1
1
1
1
1
1
1
1
1
0.999998
0.99999
0.999955
0.999815
0.999338
0.998021
0.995237
0.991323
0.989262
0.9928
0.99744
0.9928
0.989262
0.991323
0.995237
0.998021
0.999338
0.999815
0.999955
0.999989
1
1
1
1
1
1
1
1
1
1
1
1
1
1
1
1
1
1
1
1
0.999999
0.999996
0.999981
0.99992
0.999707
0.999088
0.99766
0.995237
0.992642
0.991587
0.991984
0.991587
0.992642
0.995237
0.99766
0.999088
0.999707
0.99992
0.999981
0.999995
1
1
1
1
1
1
1
1
1
1
1
1
1
1
1
1
1
1
1
1
1
0.999999
0.999993
0.999971
0.999893
0.999659
0.999088
0.998021
0.996627
0.995559
0.995289
0.995559
0.996627
0.998021
0.999088
0.999659
0.999893
0.999971
0.999993
0.999998
1
1
1
1
1
1
1
1
1
1
1
1
1
1
1
1
1
1
1
1
1
1
0.999998
0.999991
0.999967
0.999893
0.999707
0.999338
0.998809
0.998328
0.998153
0.998328
0.998809
0.999338
0.999707
0.999893
0.999967
0.999991
0.999998
1
1
1
1
1
1
1
1
1
1
1
1
1
1
1
1
1
1
1
1
1
1
1
0.999999
0.999998
0.999991
0.999971
0.99992
0.999815
0.999655
0.999498
0.999434
0.999498
0.999655
0.999815
0.99992
0.999971
0.999991
0.999998
0.999999
1
1
1
1
1
1
1
1
1
1
1
1
1
1
1
1
1
1
1
1
1
1
1
1
0.999999
0.999998
0.999993
0.999981
0.999955
0.999914
0.999873
0.999855
0.999873
0.999914
0.999955
0.999981
0.999993
0.999998
0.999999
1
1
1
1
1
1
1
1
1
1
1
1
1
1
1
1
1
1
1
1
1
1
1
1
1
1
1
0.999998
0.999995
0.999989
0.999978
0.999967
0.999962
0.999967
0.999978
0.999989
0.999995
0.999998
1
1
1
1
SCALARS C2 double 1
LOOKUP_TABLE default
3
3
3
3
3
3
3
2.99999
2.99999
2.99998
2.99998
2.99998
2.99999
2.99999
3
3
3
3
3
3
3
3
3
3
3
3
3
3
3
3
3
3
3
3
3
3
3
3
3
3
3
3
3
3
3
3
2.99999
2.99997
2.99994
2.99991
2.9999
2.99991
2.99994
2.99997
2.99999
3
3
3
3
3
3
3
3
3
3
3
3
3
3
3
3
3
3
3
3
3
3
3
3
3
3
3
3
3
2.99999
2.99998
2.99994
2.99986
2.99971
2.99955
2.99948
2.99955
2.99971
2.99986
2.99994
2.99998
2.99999
3
3
3
3
3
3
3
3
3
3
3
3
3
3
3
3
3
3
3
3
3
3
3
3
3
3
2.99999
2.99998
2.99991
2.99974
2.99936
2.99872
2.99805
2.99775
2.99805
2.99872
2.99936
2.99974
2.99991
2.99998
2.99999
3
3
3
3
3
3
3
3
3
3
3
3
3
3
3
3
3
3
3
3
3
3
3
3
2.99999
2.99998
2.9999
2.99965
2.99897
2.99747
2.99511
2.99275
2.99184
2.99275
2.99511
2.99747
2.99897
2.99965
2.9999
2.99998
2.99999
3
3
3
3
3
3
3
3
3
3
3
3
3
3
3
3
3
3
3
3
3
3
3
2.99998
2.99991
2.99965
2.99879
2.99646
2.99162
2.98454
2.97844
2.97662
2.97844
2.98454
2.99162
2.99646
2.99879
2.99965
2.99991
2.99998
3
3
3
3
3
3
3
3
3
3
3
3
3
3
3
3
3
3
3
3
3
3
2.99999
2.99994
2.99974
2.99897
2.99646
2.98999
2.97757
2.96227
2.95363
2.95393
2.95363
2.96227
2.97757
2.98999
2.99646
2.99897
2.99974
2.99994
2.99999
3
3
3
3
3
3
3
3
3
3
3
3
3
3
3
3
3
3
3
3
2.99999
2.99997
2.99986
2.99936
2.99747
2.99162
2.97757
2.95472
2.93717
2.94483
2.9608
2.94483
2.93717
2.95472
2.97757
2.99162
2.99747
2.99936
2.99986
2.99997
3
3
3
3
3
3
3
3
3
3
3
3
3
3
3
3
3
3
3
3
2.99999
2.99994
2.99971
2.99872
2.99511
2.98454
2.96227
2.93717
2.94667
3.01301
3.06813
3.01301
2.94667
2.93717
2.96227
2.98454
2.99511
2.99872
2.99971
2.99994
2.99999
3
3
3
3
3
3
3
3
3
3
3
3
3
3
3
3
3
3
3
2.99998
2.99991
2.99955
2.99805
2.99275
2.97844
2.95363
2.94483
3.01301
3.16441
3.27077
3.16441
3.01301
2.94483
2.95363
2.97844
2.99275
2.99805
2.99955
2.99991
2.99998
3
3
3
3
3
3
3
3
3
3
3
3
3
3
3
3
3
3
3
2.99998
2.9999
2.99948
2.99775
2.99184
2.97662
2.95393
2.9608
3.06813
3.27077
3.4035
3.27077
3.06813
2.9608
2.95393
2.97662
2.99184
2.99775
2.99948
2.9999
2.99998
3
3
3
3
3
3
3
3
3
3
3
3
3
3
3
3
3
3
3
2.99998
2.99991
2.99955
2.99805
2.99275
2.97844
2.95363
2.94483
3.01301
3.16441
3.27077
3.16441
3.01301
2.94483
2.95363
2.97844
2.99275
2.99805
2.99955
2.99991
2.99998
3
3
3
3
3
3
3
3
3
3
3
3
3
3
3
3
3
3
3
2.99999
2.99994
2.99971
2.99872
2.99511
2.98454
2.96227
2.93717
2.94667
3.01301
3.06813
3.01301
2.94667
2.93717
2.96227
2.98454
2.99511
2.99872
2.99971
2.99994
2.99999
3
3
3
3
3
3
3
3
3
3
3
3
3
3
3
3
3
3
3
2.99999
2.99997
2.99986
2.99936
2.99747
2.99162
2.97757
2.95472
2.93717
2.94483
2.9608
2.94483
2.93717
2.95472
2.97757
2.99162
2.99747
2.99936
2.99986
2.99997
3
3
3
3
3
3
3
3
3
3
3
3
3
3
3
3
3
3
3
3
3
2.99999
2.99994
2.99974
2.99897
2.99646
2.98999
2.97757
2.96227
2.95363
2.95393
2.95363
2.96227
2.97757
2.98999
2.99646
2.99897
2.99974
2.99994
2.99999
3
3
3
3
3
3
3
3
3
3
3
3
3
3
3
3
3
3
3
3
3
3
2.99998
2.99991
2.99965
2.99879
2.99646
2.99162
2.98454
2.97844
2.97662
2.97844
2.98454
2.99162
2.99646
2.99879
2.99965
2.99991
2.99998
3
3
3
3
3
3
3
3
3
3
3
3
3
3
3
3
3
3
3
3
3
3
3
2.99999
2.99998
2.9999
2.99965
2.99897
2.99747
2.99511
2.99275
2.99184
2.99275
2.99511
2.99747
2.99897
2.99965
2.9999
2.99998
2.99999
3
3
3
3
3
3
3
3
3
3
3
3
3
3
3
3
3
3
3
3
3
3
3
3
2.99999
2.99998
2.99991
2.99974
2.99936
2.99872
2.99805
2.99775
2.99805
2.99872
2.99936
2.99974
2.99991
2.99998
2.99999
3
3
3
3
3
3
3
3
3
3
3
3
3
3
3
3
3
3
3
3
3
3
3
3
3
3
2.99999
2.99998
2.99994
2.99986
2.99971
2.99955
2.99948
2.99955
2.99971
2.99986
2.99994
2.99998
2.99999
3
3
3
3
3
3
3
3
3
3
3
3
3
3
3
3
3
3
3
3
3
3
3
3
3
3
3
3
3
2.99999
2.99997
2.99994
2.99991
2.9999
2.99991
2.99994
2.99997
2.99999
3
3
3
3
3
3
3
3
3
3
3
3
3
3
3
3
3
3
3
3
3
3
3
3
3
3
3
3
3
3
3
3
3
2.99999
2.99998
2.99998
2.99998
2.99999
3
3
3
3
3
3
3
3
3
3
3
3
3
3
3
3
3
3.00001
3
3
3
3
3
3
3
3
3
3
3
3
3
3
3
3
3
3
3
3
3
3
3
3
3
3
3
3
3
3
3
3
3
3
3
3
3.00001
3.00002
3.00003
3.00003
3.00003
3.00002
3.00001
3
3
3
3
3
3
3
3
3
3
3
3
3
3
3
3
3
3
3
3
3
3
3
3
3
3
3
3
3
3
3
3.00001
3.00002
3.00004
3.00008
3.00013
3.00015
3.00013
3.00008
3.00004
3.00002
3.00001
3
3
3
3
3
3
3
3
3
3
3
3
3
3
3
3
3
3
3
3
3
3
3
3
3
3
3
3
3.00001
3.00002
3.00007
3.00019
3.00037
3.00058
3.00067
3.00058
3.00037
3.00019
3.00007
3.00002
3.00001
3
3
3
3
3
3
3
3
3
3
3
3
3
3
3
3
3
3
3
3
3
3
3
3
3
3
3.00001
3.00003
3.0001
3.0003
3.00073
3.00145
3.0022
3.00253
3.0022
3.00145
3.00073
3.0003
3.0001
3.00003
3.00001
3
3
3
3
3
3
3
3
3
3
3
3
3
3
3
3
3
3
3
3
3
3
3
3
3.00001
3.00002
3.0001
3.00035
3.00102
3.00248
3.00477
3.00706
3.00796
3.00706
3.00477
3.00248
3.00102
3.00035
3.0001
3.00002
3.00001
3
3
3
3
3
3
3
3
3
3
3
3
3
3
3
3
3
3
3
3
3
3
3
3.00002
3.00007
3.0003
3.00102
3.00296
3.00698
3.01291
3.01817
3.01971
3.01817
3.01291
3.00698
3.00296
3.00102
3.0003
3.00007
3.00002
3
3
3
3
3
3
3
3
3
3
3
3
3
3
3
3
3
3
3
3
3
3
3.00001
3.00004
3.00019
3.00073
3.00248
3.00698
3.01574
3.02722
3.03452
3.03402
3.03452
3.02722
3.01574
3.00698
3.00248
3.00073
3.00019
3.00004
3.00001
3
3
3
3
3
3
3
3
3
3
3
3
3
3
3
3
3
3
3
3
3
3.00002
3.00008
3.00037
3.00145
3.00477
3.01291
3.02722
3.04121
3.0385
3.023
3.0385
3.04121
3.02722
3.01291
3.00477
3.00145
3.00037
3.00008
3.00002
3
3
3
3
3
3
3
3
3
3
3
3
3
3
3
3
3
3
3
3
3
3.00003
3.00013
3.00058
3.0022
3.00706
3.01817
3.03452
3.0385
2.99532
2.93542
2.99532
3.0385
3.03452
3.01817
3.00706
3.0022
3.00058
3.00013
3.00003
3
3
3
3
3
3
3
3
3
3
3
3
3
3
3
3
3
3
3
3
3.00001
3.00003
3.00015
3.00067
3.00253
3.00796
3.01971
3.03402
3.023
2.93542
2.83028
2.93542
3.023
3.03402
3.01971
3.00796
3.00253
3.00067
3.00015
3.00004
3
3
3
3
3
3
3
3
3
3
3
3
3
3
3
3
3
3
3
3
3
3.00003
3.00013
3.00058
3.0022
3.00706
3.01817
3.03452
3.0385
2.99532
2.93542
2.99532
3.0385
3.03452
3.01817
3.00706
3.0022
3.00058
3.00013
3.00003
3
3
3
3
3
3
3
3
3
3
3
3
3
3
3
3
3
3
3
3
3
3.00002
3.00008
3.00037
3.00145
3.00477
3.01291
3.02722
3.04121
3.0385
3.023
3.0385
3.04121
3.02722
3.01291
3.00477
3.00145
3.00037
3.00008
3.00002
3
3
3
3
3
3
3
3
3
3
3
3
3
3
3
3
3
3
3
3
3
3.00001
3.00004
3.00019
3.00073
3.00248
3.00698
3.01574
3.02722
3.03452
3.03402
3.03452
3.02722
3.01574
3.00698
3.00248
3.00073
3.00019
3.00004
3.00001
3
3
3
3
3
3
3
3
3
3
3
3
3
3
3
3
3
3
3
3
3
3
3.00002
3.00007
3.0003
3.00102
3.00296
3.00698
3.01291
3.01817
3.01971
3.01817
3.01291
3.00698
3.00296
3.00102
3.0003
3.00007
3.00002
3
3
3
3
3
3
3
3
3
3
3
3
3
3
3
3
3
3
3
3
3
3
3
3.00001
3.00002
3.0001
3.00035
3.00102
3.00248
3.00477
3.00706
3.00796
3.00706
3.00477
3.00248
3.00102
3.00035
3.0001
3.00002
3.00001
3
3
3
3
3
3
3
3
3
3
3
3
3
3
3
3
3
3
3
3
3
3
3
3
3.00001
3.00003
3.0001
3.0003
3.00073
3.00145
3.0022
3.00253
3.0022
3.00145
3.00073
3.0003
3.0001
3.00003
3.00001
3
3
3
3
3
3
3
3
3
3
3
3
3
3
3
3
3
3
3
3
3
3
3
3
3
3
3.00001
3.00002
3.00007
3.00019
3.00037
3.00058
3.00067
3.00058
3.00037
3.00019
3.00007
3.00002
3.00001
3
3
3
3
3
3
3
3
3
3
3
3
3
3
3
3
3
3
3
3
3
3
3
3
3
3
3
3
3.00001
3.00002
3.00004
3.00008
3.00013
3.00015
3.00013
3.00008
3.00004
3.00002
3.00001
3
3
3
3
3
3
3
3
3
3
3
3
3
3
3
3
3
3
3
3
3
3
3
3
3
3
3
3
3
3
3
3.00001
3.00002
3.00003
3.00004
3.00003
3.00002
3.00001
3
3
3
3
3
3
