# vtk DataFile Version 3.0
Brusselator Concentration Output
ASCII
DATASET STRUCTURED_POINTS
DIMENSIONS 40 40 1
ORIGIN 0.0 0.0 0.0
SPACING 0.005 0.005 1.0
POINT_DATA 1600
SCALARS C1 double 1
LOOKUP_TABLE default
0.999913
0.99989
0.999853
0.999813
0.999785
0.999778
0.999796
0.999834
0.999878
0.999912
0.999925
0.999912
0.999877
0.999834
0.999796
0.999777
0.999783
0.999812
0.999856
0.999902
0.999942
0.999971
0.999989
0.999997
1
1
1
1
1
1
1
1
1
1
1
1
1
1
1
1
0.99989
0.999873
0.999847
0.999829
0.999834
0.999872
0.999941
1.00003
1.00012
1.00018
1.0002
1.00018
1.00011
1.00003
0.999941
0.999871
0.999834
0.99983
0.999853
0.999891
0.999929
0.999961
0.999982
0.999994
0.999999
1
1
1
1
1
1
1
1
1
1
1
1
1
1
1
0.999853
0.999847
0.999849
0.999879
0.999955
1.00008
1.00025
1.00044
1.0006
1.00072
1.00076
1.00072
1.0006
1.00044
1.00025
1.00008
0.999955
0.999883
0.999862
0.999877
0.99991
0.999944
0.99997
0.999987
0.999996
1
1
1
1
1
1
1
1
1
1
1
1
1
1
1
0.999813
0.999829
0.999879
0.999988
1.00017
1.00044
1.00075
1.00107
1.00134
1.00153
1.00159
1.00153
1.00134
1.00107
1.00075
1.00044
1.00018
0.999997
0.999901
0.999875
0.99989
0.999923
0.999955
0.999978
0.999991
0.999998
1
1
1
1
1
1
1
1
1
1
1
1
1
1
0.999785
0.999834
0.999955
1.00017
1.00051
1.00094
1.00142
1.00189
1.00228
1.00254
1.00263
1.00254
1.00228
1.00189
1.00142
1.00094
1.00051
1.00019
0.999988
0.999897
0.999881
0.999904
0.999938
0.999967
0.999985
0.999995
0.999999
1
1
1
1
1
1
1
1
1
1
1
1
1
0.999778
0.999872
1.00008
1.00044
1.00094
1.00155
1.00221
1.00283
1.00333
1.00365
1.00376
1.00365
1.00333
1.00283
1.00221
1.00156
1.00095
1.00046
1.00013
0.99995
0.999887
0.999891
0.999923
0.999955
0.999979
0.999992
0.999998
1
1
1
1
1
1
1
1
1
1
1
1
1
0.999796
0.999941
1.00025
1.00075
1.00142
1.00221
1.00303
1.00377
1.00434
1.0047
1.00482
1.0047
1.00434
1.00377
1.00303
1.00222
1.00143
1.00078
1.00031
1.00003
0.999909
0.999887
0.999911
0.999945
0.999972
0.999989
0.999997
1
1
1
1
1
1
1
1
1
1
1
1
1
0.999834
1.00003
1.00044
1.00107
1.00189
1.00283
1.00377
1.00459
1.0052
1.00557
1.00569
1.00557
1.0052
1.00459
1.00377
1.00284
1.00191
1.0011
1.0005
1.00013
0.999944
0.99989
0.999903
0.999936
0.999966
0.999986
0.999995
0.999999
1
1
1
1
1
1
1
1
1
1
1
1
0.999878
1.00012
1.0006
1.00134
1.00228
1.00333
1.00434
1.0052
1.00582
1.00619
1.00631
1.00619
1.00582
1.0052
1.00434
1.00334
1.0023
1.00138
1.00067
1.00022
0.99998
0.999898
0.999899
0.99993
0.999961
0.999983
0.999994
0.999999
1
1
1
1
1
1
1
1
1
1
1
1
0.999912
1.00018
1.00072
1.00153
1.00254
1.00365
1.0047
1.00557
1.00619
1.00655
1.00666
1.00655
1.00619
1.00557
1.0047
1.00365
1.00256
1.00157
1.00079
1.00028
1.00001
0.999905
0.999898
0.999927
0.999959
0.999981
0.999993
0.999999
1
1
1
1
1
1
1
1
1
1
1
1
0.999925
1.0002
1.00076
1.00159
1.00263
1.00376
1.00482
1.00569
1.00631
1.00666
1.00677
1.00666
1.00631
1.00569
1.00482
1.00376
1.00265
1.00163
1.00083
1.0003
1.00002
0.999908
0.999897
0.999925
0.999958
0.99998
0.999993
0.999998
1
1
1
1
1
1
1
1
1
1
1
1
0.999912
1.00018
1.00072
1.00153
1.00254
1.00365
1.0047
1.00557
1.00619
1.00655
1.00666
1.00654
1.00619
1.00557
1.0047
1.00365
1.00256
1.00157
1.00079
1.00028
1.00001
0.999905
0.999897
0.999926
0.999958
0.999981
0.999993
0.999998
1
1
1
1
1
1
1
1
1
1
1
1
0.999877
1.00011
1.0006
1.00134
1.00228
1.00333
1.00434
1.0052
1.00582
1.00619
1.00631
1.00619
1.00582
1.0052
1.00434
1.00334
1.0023
1.00138
1.00067
1.00022
0.99998
0.999898
0.999899
0.99993
0.999961
0.999983
0.999994
0.999999
1
1
1
1
1
1
1
1
1
1
1
1
0.999834
1.00003
1.00044
1.00107
1.00189
1.00283
1.00377
1.00459
1.0052
1.00557
1.00569
1.00557
1.0052
1.00458
1.00377
1.00284
1.00191
1.0011
1.0005
1.00013
0.999943
0.99989
0.999903
0.999936
0.999966
0.999985
0.999995
0.999999
1
1
1
1
1
1
1
1
1
1
1
1
0.999796
0.999941
1.00025
1.00075
1.00142
1.00221
1.00303
1.00377
1.00434
1.0047
1.00482
1.0047
1.00434
1.00377
1.00303
1.00222
1.00143
1.00078
1.00031
1.00003
0.999909
0.999886
0.99991
0.999944
0.999972
0.999989
0.999998
1
1
1
1
1
1
1
1
1
1
1
0.999999
0.999999
0.999777
0.999871
1.00008
1.00044
1.00094
1.00156
1.00222
1.00284
1.00334
1.00365
1.00376
1.00365
1.00334
1.00284
1.00222
1.00156
1.00095
1.00046
1.00013
0.999949
0.999886
0.99989
0.999922
0.999956
0.99998
0.999995
1
1.00001
1.00001
1.00001
1.00001
1.00001
1.00001
1.00001
1
1
1
1
1
0.999999
0.999783
0.999834
0.999955
1.00018
1.00051
1.00095
1.00143
1.00191
1.0023
1.00256
1.00265
1.00256
1.0023
1.00191
1.00143
1.00095
1.00052
1.00019
0.999989
0.999896
0.99988
0.999903
0.999938
0.999969
0.99999
1
1.00001
1.00001
1.00002
1.00002
1.00002
1.00002
1.00002
1.00001
1.00001
1.00001
1
1
1
1
0.999812
0.99983
0.999883
0.999997
1.00019
1.00046
1.00078
1.0011
1.00138
1.00157
1.00163
1.00157
1.00138
1.0011
1.00078
1.00046
1.00019
1.00001
0.999905
0.999876
0.999891
0.999924
0.999958
0.999986
1
1.00002
1.00002
1.00003
1.00003
1.00003
1.00003
1.00003
1.00003
1.00003
1.00002
1.00002
1.00001
1.00001
1
1
0.999856
0.999853
0.999862
0.999901
0.999988
1.00013
1.00031
1.0005
1.00067
1.00079
1.00083
1.00079
1.00067
1.0005
1.00031
1.00013
0.999989
0.999905
0.999875
0.999885
0.999915
0.99995
0.999981
1.00001
1.00002
1.00003
1.00004
1.00005
1.00005
1.00005
1.00005
1.00005
1.00005
1.00005
1.00004
1.00003
1.00003
1.00002
1.00001
1.00001
0.999902
0.999891
0.999877
0.999875
0.999897
0.99995
1.00003
1.00013
1.00022
1.00028
1.0003
1.00028
1.00022
1.00013
1.00003
0.999949
0.999896
0.999876
0.999885
0.999911
0.999945
0.999978
1.00001
1.00003
1.00004
1.00005
1.00006
1.00006
1.00006
1.00006
1.00006
1.00006
1.00006
1.00006
1.00006
1.00005
1.00004
1.00003
1.00003
1.00002
0.999942
0.999929
0.99991
0.99989
0.999881
0.999887
0.999909
0.999944
0.99998
1.00001
1.00002
1.00001
0.99998
0.999943
0.999909
0.999886
0.99988
0.999891
0.999915
0.999945
0.999977
1.00001
1.00003
1.00005
1.00006
1.00007
1.00007
1.00006
1.00005
1.00004
1.00004
1.00004
1.00005
1.00006
1.00007
1.00007
1.00006
1.00006
1.00005
1.00004
0.999971
0.999961
0.999944
0.999923
0.999904
0.999891
0.999887
0.99989
0.999898
0.999905
0.999908
0.999905
0.999898
0.99989
0.999886
0.99989
0.999903
0.999924
0.99995
0.999978
1.00001
1.00003
1.00005
1.00007
1.00007
1.00006
1.00004
1.00001
0.999981
0.999958
0.99995
0.999958
0.99998
1.00001
1.00004
1.00006
1.00007
1.00008
1.00007
1.00007
0.999989
0.999982
0.99997
0.999955
0.999938
0.999923
0.999911
0.999903
0.999899
0.999898
0.999897
0.999897
0.999899
0.999903
0.99991
0.999922
0.999938
0.999958
0.999981
1.00001
1.00003
1.00005
1.00007
1.00007
1.00005
1.00001
0.999952
0.999882
0.999817
0.999771
0.999754
0.99977
0.999816
0.999881
0.999951
1.00001
1.00006
1.00008
1.00009
1.0001
0.999997
0.999994
0.999987
0.999978
0.999967
0.999955
0.999945
0.999936
0.99993
0.999927
0.999925
0.999926
0.99993
0.999936
0.999944
0.999956
0.999969
0.999986
1.00001
1.00003
1.00005
1.00007
1.00007
1.00005
0.999993
0.999899
0.999779
0.999651
0.999537
0.999458
0.99943
0.999458
0.999536
0.99965
0.99978
0.999902
1
1.00007
1.00011
1.00012
1
0.999999
0.999996
0.999991
0.999985
0.999979
0.999972
0.999966
0.999961
0.999959
0.999958
0.999958
0.999961
0.999966
0.999972
0.99998
0.99999
1
1.00002
1.00004
1.00006
1.00007
1.00005
0.999993
0.999878
0.999714
0.999517
0.999316
0.999144
0.999028
0.998987
0.999028
0.999143
0.999316
0.999518
0.999719
0.999891
1.00002
1.0001
1.00014
1
1
1
0.999998
0.999995
0.999992
0.999989
0.999986
0.999983
0.999981
0.99998
0.999981
0.999983
0.999985
0.999989
0.999995
1
1.00002
1.00003
1.00005
1.00007
1.00006
1.00001
0.999899
0.999714
0.999466
0.999182
0.998904
0.998672
0.99852
0.998467
0.99852
0.998672
0.998905
0.999185
0.999473
0.999732
0.999934
1.00007
1.00013
1
1
1
1
0.999999
0.999998
0.999997
0.999995
0.999994
0.999993
0.999993
0.999993
0.999994
0.999995
0.999998
1
1.00001
1.00002
1.00004
1.00006
1.00007
1.00004
0.999952
0.999779
0.999517
0.999182
0.998815
0.998466
0.998183
0.997999
0.997936
0.997999
0.998182
0.998467
0.998819
0.999193
0.99954
0.999821
1.00001
1.00011
1
1
1
1
1
1
1
0.999999
0.999999
0.999999
0.999998
0.999998
0.999999
0.999999
1
1.00001
1.00001
1.00003
1.00005
1.00006
1.00006
1.00001
0.999882
0.999651
0.999316
0.998904
0.998466
0.998061
0.997739
0.997535
0.997465
0.997535
0.997739
0.998062
0.998471
0.998918
0.999344
0.999698
0.999946
1.00007
1
1
1
1
1
1
1
1
1
1
1
1
1
1
1
1.00001
1.00002
1.00003
1.00005
1.00006
1.00005
0.999981
0.999817
0.999537
0.999144
0.998672
0.998183
0.997739
0.997394
0.997179
0.997106
0.997178
0.997394
0.997741
0.998189
0.998688
0.999175
0.999587
0.999881
1.00003
1
1
1
1
1
1
1
1
1
1
1
1
1
1
1
1.00001
1.00002
1.00003
1.00005
1.00006
1.00004
0.999958
0.999771
0.999458
0.999028
0.99852
0.997999
0.997535
0.997179
0.996959
0.996885
0.996958
0.997179
0.997537
0.998006
0.998537
0.999061
0.999511
0.999835
1
1
1
1
1
1
1
1
1
1
1
1
1
1
1
1
1.00001
1.00002
1.00003
1.00005
1.00006
1.00004
0.99995
0.999754
0.99943
0.998987
0.998467
0.997936
0.997465
0.997106
0.996885
0.996811
0.996885
0.997106
0.997467
0.997943
0.998484
0.999021
0.999484
0.999818
0.999991
1
1
1
1
1
1
1
1
1
1
1
1
1
1
1
1.00001
1.00002
1.00003
1.00005
1.00006
1.00004
0.999958
0.99977
0.999458
0.999028
0.99852
0.997999
0.997535
0.997178
0.996958
0.996885
0.996958
0.997179
0.997537
0.998006
0.998537
0.999061
0.999511
0.999835
1
1
1
1
1
1
1
1
1
1
1
1
1
1
1
1
1.00001
1.00002
1.00003
1.00005
1.00006
1.00005
0.99998
0.999816
0.999536
0.999143
0.998672
0.998182
0.997739
0.997394
0.997179
0.997106
0.997179
0.997394
0.997741
0.998189
0.998688
0.999174
0.999587
0.999881
1.00003
1
1
1
1
1
1
1
1
1
1
1
1
1
1
1
1.00001
1.00001
1.00003
1.00005
1.00006
1.00006
1.00001
0.999881
0.99965
0.999316
0.998905
0.998467
0.998062
0.997741
0.997537
0.997467
0.997537
0.997741
0.998063
0.998472
0.998918
0.999344
0.999697
0.999945
1.00007
1
1
1
1
1
1
1
1
1
1
1
1
1
1
1
1
1.00001
1.00002
1.00004
1.00006
1.00007
1.00004
0.999951
0.99978
0.999518
0.999185
0.998819
0.998471
0.998189
0.998006
0.997943
0.998006
0.998189
0.998472
0.998823
0.999196
0.999541
0.999821
1.00001
1.00011
1
1
1
1
1
1
1
1
1
1
1
1
1
1
1
1
1.00001
1.00002
1.00003
1.00005
1.00007
1.00006
1.00001
0.999902
0.999719
0.999473
0.999193
0.998918
0.998688
0.998537
0.998484
0.998537
0.998688
0.998918
0.999196
0.999481
0.999737
0.999936
1.00007
1.00013
1
1
1
1
1
1
1
1
1
1
1
1
1
1
1
1
1
1.00001
1.00003
1.00004
1.00006
1.00007
1.00006
1
0.999891
0.999732
0.99954
0.999344
0.999175
0.999061
0.999021
0.999061
0.999174
0.999344
0.999541
0.999737
0.999904
1.00003
1.0001
1.00014
1
1
1
1
1
1
1
1
1
1
1
1
1
1
1
1
1
1.00001
1.00002
1.00003
1.00006
1.00008
1.00008
1.00007
1.00002
0.999934
0.999821
0.999698
0.999587
0.999511
0.999484
0.999511
0.999587
0.999697
0.999821
0.999936
1.00003
1.00009
1.00012
1.00013
1
1
1
1
1
1
1
1
1
1
1
1
1
1
0.999999
1
1
1
1.00001
1.00003
1.00005
1.00007
1.00009
1.00011
1.0001
1.00007
1.00001
0.999946
0.999881
0.999835
0.999818
0.999835
0.999881
0.999945
1.00001
1.00007
1.0001
1.00012
1.00012
1.00012
1
1
1
1
1
1
1
1
1
1
1
1
1
1
0.999999
0.999999
1
1
1.00001
1.00002
1.00004
1.00007
1.0001
1.00012
1.00014
1.00013
1.00011
1.00007
1.00003
1
0.999991
1
1.00003
1.00007
1.00011
1.00013
1.00014
1.00013
1.00012
1.00011
SCALARS C2 double 1
LOOKUP_TABLE default
2.00005
2.00009
2.00017
2.00027
2.0004
2.00052
2.00063
2.0007
2.00076
2.00078
2.00079
2.00078
2.00076
2.0007
2.00063
2.00052
2.0004
2.00028
2.00017
2.00009
2.00004
2.00001
2
1.99999
1.99999
2
2
2
2
2
2
2
2
2
2
2
2
2
2
2
2.00009
2.00013
2.00022
2.00033
2.00045
2.00055
2.00062
2.00065
2.00066
2.00065
2.00065
2.00065
2.00066
2.00065
2.00062
2.00055
2.00045
2.00034
2.00022
2.00013
2.00006
2.00002
2
2
2
2
2
2
2
2
2
2
2
2
2
2
2
2
2
2
2.00017
2.00022
2.00031
2.00042
2.00051
2.00055
2.00053
2.00046
2.00037
2.0003
2.00027
2.0003
2.00037
2.00046
2.00053
2.00055
2.00051
2.00042
2.00031
2.0002
2.00011
2.00005
2.00002
2
2
2
2
2
2
2
2
2
2
2
2
2
2
2
2
2
2.00027
2.00033
2.00042
2.0005
2.00051
2.00043
2.00025
2.00001
1.99977
1.99959
1.99952
1.99959
1.99977
2.00001
2.00025
2.00043
2.00051
2.0005
2.00041
2.00029
2.00018
2.00009
2.00004
2.00001
2
2
2
2
2
2
2
2
2
2
2
2
2
2
2
2
2.0004
2.00045
2.00051
2.00051
2.00039
2.00012
1.99971
1.99922
1.99876
1.99843
1.99831
1.99843
1.99876
1.99922
1.99971
2.00012
2.00039
2.0005
2.00048
2.00038
2.00025
2.00014
2.00007
2.00003
2.00001
2
2
2
2
2
2
2
2
2
2
2
2
2
2
2
2.00052
2.00055
2.00055
2.00043
2.00012
1.99959
1.99887
1.99807
1.99735
1.99685
1.99667
1.99685
1.99735
1.99807
1.99887
1.99959
2.00012
2.00042
2.0005
2.00045
2.00032
2.0002
2.0001
2.00004
2.00001
2
2
2
2
2
2
2
2
2
2
2
2
2
2
2
2.00063
2.00062
2.00053
2.00025
1.99971
1.99887
1.9978
1.99668
1.99568
1.995
1.99476
1.995
1.99568
1.99668
1.99781
1.99887
1.9997
2.00023
2.00047
2.00048
2.00038
2.00025
2.00013
2.00006
2.00002
2
2
2
2
2
2
2
2
2
2
2
2
2
2
2
2.0007
2.00065
2.00046
2.00001
1.99922
1.99807
1.99668
1.99524
1.994
1.99316
1.99287
1.99316
1.994
1.99524
1.99668
1.99807
1.99921
1.99998
2.00038
2.00049
2.00042
2.00029
2.00016
2.00008
2.00003
2.00001
2
2
2
2
2
2
2
2
2
2
2
2
2
2
2.00076
2.00066
2.00037
1.99977
1.99876
1.99735
1.99568
1.994
1.99256
1.9916
1.99127
1.9916
1.99256
1.994
1.99569
1.99735
1.99875
1.99973
2.00028
2.00047
2.00044
2.00032
2.00019
2.00009
2.00004
2.00001
2
2
2
2
2
2
2
2
2
2
2
2
2
2
2.00078
2.00065
2.0003
1.99959
1.99843
1.99685
1.995
1.99316
1.9916
1.99057
1.99021
1.99057
1.9916
1.99316
1.99501
1.99685
1.99842
1.99955
2.0002
2.00045
2.00045
2.00033
2.0002
2.0001
2.00004
2.00001
2
2
2
2
2
2
2
2
2
2
2
2
2
2
2.00079
2.00065
2.00027
1.99952
1.99831
1.99667
1.99476
1.99287
1.99127
1.99021
1.98984
1.99021
1.99127
1.99287
1.99477
1.99667
1.9983
1.99948
2.00017
2.00044
2.00045
2.00034
2.00021
2.0001
2.00004
2.00001
2
2
2
2
2
2
2
2
2
2
2
2
2
2
2.00078
2.00065
2.0003
1.99959
1.99843
1.99685
1.995
1.99316
1.9916
1.99057
1.99021
1.99057
1.9916
1.99316
1.99501
1.99685
1.99842
1.99955
2.0002
2.00045
2.00045
2.00033
2.0002
2.0001
2.00004
2.00001
2
2
2
2
2
2
2
2
2
2
2
2
2
2
2.00076
2.00066
2.00037
1.99977
1.99876
1.99735
1.99568
1.994
1.99256
1.9916
1.99127
1.9916
1.99256
1.994
1.99569
1.99735
1.99875
1.99973
2.00028
2.00047
2.00044
2.00032
2.00019
2.00009
2.00004
2.00001
2
2
2
2
2
2
2
2
2
2
2
2
2
2
2.0007
2.00065
2.00046
2.00001
1.99922
1.99807
1.99668
1.99524
1.994
1.99316
1.99287
1.99316
1.994
1.99524
1.99668
1.99807
1.99921
1.99998
2.00038
2.00049
2.00042
2.00029
2.00016
2.00008
2.00003
2.00001
2
2
2
2
2
2
2
2
2
2
2
2
2
2
2.00063
2.00062
2.00053
2.00025
1.99971
1.99887
1.99781
1.99668
1.99569
1.99501
1.99477
1.99501
1.99569
1.99668
1.99781
1.99887
1.9997
2.00023
2.00047
2.00048
2.00038
2.00025
2.00014
2.00006
2.00002
2
2
2
2
2
2
2
2
2
2
2
2
2
2
2
2.00052
2.00055
2.00055
2.00043
2.00012
1.99959
1.99887
1.99807
1.99735
1.99685
1.99667
1.99685
1.99735
1.99807
1.99887
1.99959
2.00012
2.00042
2.00051
2.00045
2.00032
2.0002
2.0001
2.00004
2.00001
2
2
2
2
2
2
2
2
2
2
2
2
2
2
2
2.0004
2.00045
2.00051
2.00051
2.00039
2.00012
1.9997
1.99921
1.99875
1.99842
1.9983
1.99842
1.99875
1.99921
1.9997
2.00012
2.0004
2.00051
2.00048
2.00038
2.00026
2.00015
2.00007
2.00003
2.00001
2
1.99999
1.99999
1.99999
1.99999
1.99999
1.99999
1.99999
1.99999
1.99999
2
2
2
2
2
2.00028
2.00034
2.00042
2.0005
2.0005
2.00042
2.00023
1.99998
1.99973
1.99955
1.99948
1.99955
1.99973
1.99998
2.00023
2.00042
2.00051
2.0005
2.00041
2.0003
2.00018
2.0001
2.00004
2.00001
1.99999
1.99998
1.99998
1.99997
1.99996
1.99996
1.99996
1.99996
1.99997
1.99997
1.99998
1.99999
1.99999
2
2
2
2.00017
2.00022
2.00031
2.00041
2.00048
2.0005
2.00047
2.00038
2.00028
2.0002
2.00017
2.0002
2.00028
2.00038
2.00047
2.00051
2.00048
2.00041
2.00031
2.00021
2.00012
2.00006
2.00002
1.99999
1.99997
1.99996
1.99995
1.99993
1.99992
1.99992
1.99991
1.99992
1.99992
1.99993
1.99995
1.99996
1.99998
1.99999
2
2
2.00009
2.00013
2.0002
2.00029
2.00038
2.00045
2.00048
2.00049
2.00047
2.00045
2.00044
2.00045
2.00047
2.00049
2.00048
2.00045
2.00038
2.0003
2.00021
2.00013
2.00006
2.00002
1.99999
1.99996
1.99994
1.99992
1.99989
1.99987
1.99986
1.99985
1.99984
1.99985
1.99986
1.99987
1.9999
1.99992
1.99994
1.99997
1.99998
1.99999
2.00004
2.00006
2.00011
2.00018
2.00025
2.00032
2.00038
2.00042
2.00044
2.00045
2.00045
2.00045
2.00044
2.00042
2.00038
2.00032
2.00026
2.00018
2.00012
2.00006
2.00002
1.99999
1.99996
1.99992
1.99989
1.99985
1.99982
1.9998
1.99978
1.99977
1.99977
1.99977
1.99978
1.9998
1.99982
1.99986
1.99989
1.99993
1.99996
1.99997
2.00001
2.00002
2.00005
2.00009
2.00014
2.0002
2.00025
2.00029
2.00032
2.00033
2.00034
2.00033
2.00032
2.00029
2.00025
2.0002
2.00015
2.0001
2.00006
2.00002
1.99999
1.99995
1.99991
1.99987
1.99982
1.99978
1.99975
1.99973
1.99972
1.99972
1.99972
1.99972
1.99972
1.99973
1.99975
1.99978
1.99983
1.99987
1.99991
1.99993
2
2
2.00002
2.00004
2.00007
2.0001
2.00013
2.00016
2.00019
2.0002
2.00021
2.0002
2.00019
2.00016
2.00014
2.0001
2.00007
2.00004
2.00002
1.99999
1.99996
1.99991
1.99986
1.99981
1.99975
1.99972
1.9997
1.99971
1.99973
1.99975
1.99975
1.99975
1.99973
1.99971
1.9997
1.99972
1.99976
1.9998
1.99985
1.99987
1.99999
2
2
2.00001
2.00003
2.00004
2.00006
2.00008
2.00009
2.0001
2.0001
2.0001
2.00009
2.00008
2.00006
2.00004
2.00003
2.00001
1.99999
1.99996
1.99992
1.99987
1.99981
1.99974
1.9997
1.9997
1.99973
1.99979
1.99987
1.99993
1.99995
1.99993
1.99987
1.9998
1.99973
1.9997
1.9997
1.99973
1.99977
1.9998
1.99999
2
2
2
2.00001
2.00001
2.00002
2.00003
2.00004
2.00004
2.00004
2.00004
2.00004
2.00003
2.00002
2.00001
2.00001
1.99999
1.99997
1.99994
1.99989
1.99982
1.99975
1.9997
1.9997
1.99975
1.99987
2.00003
2.00019
2.00031
2.00035
2.00031
2.00019
2.00003
1.99987
1.99975
1.99969
1.99968
1.9997
1.99972
2
2
2
2
2
2
2
2.00001
2.00001
2.00001
2.00001
2.00001
2.00001
2.00001
2
2
2
1.99998
1.99996
1.99992
1.99985
1.99978
1.99972
1.9997
1.99975
1.99991
2.00014
2.00043
2.0007
2.00089
2.00096
2.00089
2.0007
2.00043
2.00015
1.9999
1.99974
1.99966
1.99964
1.99964
2
2
2
2
2
2
2
2
2
2
2
2
2
2
2
2
1.99999
1.99998
1.99995
1.99989
1.99982
1.99975
1.9997
1.99973
1.99987
2.00014
2.00053
2.00095
2.00135
2.00163
2.00172
2.00163
2.00135
2.00096
2.00053
2.00014
1.99985
1.99968
1.9996
1.99957
2
2
2
2
2
2
2
2
2
2
2
2
2
2
2
2
1.99999
1.99997
1.99993
1.99987
1.9998
1.99973
1.99971
1.99979
2.00003
2.00043
2.00095
2.00153
2.00204
2.0024
2.00252
2.0024
2.00204
2.00153
2.00095
2.00042
2
1.99973
1.99958
1.99953
2
2
2
2
2
2
2
2
2
2
2
2
2
2
2
2
1.99999
1.99996
1.99992
1.99986
1.99978
1.99972
1.99973
1.99987
2.00019
2.0007
2.00135
2.00204
2.00265
2.00307
2.00322
2.00307
2.00265
2.00204
2.00135
2.00069
2.00016
1.99979
1.99959
1.9995
2
2
2
2
2
2
2
2
2
2
2
2
2
2
2
2
1.99999
1.99996
1.99992
1.99985
1.99977
1.99972
1.99975
1.99993
2.00031
2.00089
2.00163
2.0024
2.00307
2.00353
2.0037
2.00353
2.00307
2.0024
2.00162
2.00088
2.00027
1.99984
1.99959
1.99949
2
2
2
2
2
2
2
2
2
2
2
2
2
2
2
2
1.99999
1.99996
1.99991
1.99984
1.99977
1.99972
1.99975
1.99995
2.00035
2.00096
2.00172
2.00252
2.00322
2.0037
2.00386
2.0037
2.00322
2.00252
2.00172
2.00095
2.00031
1.99986
1.9996
1.99948
2
2
2
2
2
2
2
2
2
2
2
2
2
2
2
2
1.99999
1.99996
1.99992
1.99985
1.99977
1.99972
1.99975
1.99993
2.00031
2.00089
2.00163
2.0024
2.00307
2.00353
2.0037
2.00353
2.00307
2.0024
2.00162
2.00088
2.00027
1.99984
1.99959
1.99949
2
2
2
2
2
2
2
2
2
2
2
2
2
2
2
2
1.99999
1.99997
1.99992
1.99986
1.99978
1.99972
1.99973
1.99987
2.00019
2.0007
2.00135
2.00204
2.00265
2.00307
2.00322
2.00307
2.00266
2.00204
2.00135
2.00069
2.00016
1.99979
1.99959
1.9995
2
2
2
2
2
2
2
2
2
2
2
2
2
2
2
2
1.99999
1.99997
1.99993
1.99987
1.9998
1.99973
1.99971
1.9998
2.00003
2.00043
2.00096
2.00153
2.00204
2.0024
2.00252
2.0024
2.00204
2.00153
2.00095
2.00042
2
1.99973
1.99958
1.99953
2
2
2
2
2
2
2
2
2
2
2
2
2
2
2
2
1.99999
1.99998
1.99995
1.9999
1.99982
1.99975
1.9997
1.99973
1.99987
2.00015
2.00053
2.00095
2.00135
2.00162
2.00172
2.00162
2.00135
2.00095
2.00053
2.00014
1.99985
1.99968
1.9996
1.99957
2
2
2
2
2
2
2
2
2
2
2
2
2
2
2
2
2
1.99999
1.99996
1.99992
1.99986
1.99978
1.99972
1.9997
1.99975
1.9999
2.00014
2.00042
2.00069
2.00088
2.00095
2.00088
2.00069
2.00042
2.00014
1.9999
1.99974
1.99966
1.99964
1.99964
2
2
2
2
2
2
2
2
2
2
2
2
2
2
2
2
2
1.99999
1.99998
1.99994
1.99989
1.99983
1.99976
1.9997
1.99969
1.99974
1.99985
2
2.00016
2.00027
2.00031
2.00027
2.00016
2
1.99985
1.99974
1.99968
1.99968
1.9997
1.99972
2
2
2
2
2
2
2
2
2
2
2
2
2
2
2
2
2
2
1.99999
1.99997
1.99993
1.99987
1.9998
1.99973
1.99968
1.99966
1.99968
1.99973
1.99979
1.99984
1.99986
1.99984
1.99979
1.99973
1.99968
1.99966
1.99968
1.99972
1.99977
1.9998
2
2
2
2
2
2
2
2
2
2
2
2
2
2
2
2
2
2
2
1.99998
1.99996
1.99991
1.99985
1.99977
1.9997
1.99964
1.9996
1.99958
1.99959
1.99959
1.9996
1.99959
1.99959
1.99958
1.9996
1.99964
1.9997
1.99977
1.99983
1.99986
2
2
2
2
2
2
2
2
2
2
2
2
2
2
2
2
2
2
2
1.99999
1.99997
1.99993
1.99987
1.9998
1.99972
1.99964
1.99957
1.99953
1.9995
1.99949
1.99948
1.99949
1.9995
1.99953
1.99957
1.99964
1.99972
1.9998
1.99986
1.9999
