# vtk DataFile Version 3.0
Brusselator Concentration Output
ASCII
DATASET STRUCTURED_POINTS
DIMENSIONS 40 40 1
ORIGIN 0.0 0.0 0.0
SPACING 0.005 0.005 1.0
POINT_DATA 1600
SCALARS C1 double 1
LOOKUP_TABLE default
0.999997
0.99997
0.999916
0.999837
0.999739
0.999633
0.999533
0.99945
0.999389
0.999354
0.999342
0.999354
0.999389
0.99945
0.999533
0.999632
0.999736
0.999832
0.999909
0.999962
0.999992
1.00001
1.00001
1.00001
1
1
1
1
1
1
1
1
1
1
1
1
1
1
1
1
0.99997
0.999936
0.99987
0.999779
0.999675
0.999573
0.999488
0.999427
0.99939
0.999372
0.999367
0.999372
0.99939
0.999427
0.999488
0.999572
0.999672
0.999774
0.999864
0.999931
0.999974
0.999996
1
1.00001
1
1
1
1
1
1
1
1
1
1
1
1
1
1
1
1
0.999916
0.99987
0.999786
0.99968
0.999576
0.999496
0.999453
0.999448
0.999468
0.999493
0.999503
0.999493
0.999468
0.999448
0.999452
0.999494
0.999573
0.999676
0.999782
0.999873
0.999938
0.999978
0.999997
1
1
1
1
1
1
1
1
1
1
1
1
1
1
1
1
1
0.999837
0.999779
0.99968
0.999572
0.999492
0.99947
0.999518
0.999621
0.999743
0.999841
0.999878
0.999841
0.999743
0.999621
0.999517
0.999468
0.999488
0.999569
0.999681
0.999795
0.999887
0.999949
0.999984
0.999999
1
1
1
1
1
1
1
1
1
1
1
1
1
1
1
1
0.999739
0.999675
0.999576
0.999492
0.999476
0.999567
0.999768
1.00004
1.00032
1.00052
1.0006
1.00052
1.00032
1.00004
0.999767
0.999565
0.999473
0.99949
0.999584
0.999709
0.999826
0.999913
0.999966
0.999992
1
1
1
1
1
1
1
1
1
1
1
1
1
1
1
1
0.999633
0.999573
0.999496
0.99947
0.999567
0.999829
1.00024
1.00074
1.00121
1.00155
1.00167
1.00155
1.00121
1.00074
1.00024
0.999826
0.999564
0.999471
0.999514
0.99963
0.999762
0.999871
0.999943
0.999982
0.999998
1
1
1
1
1
1
1
1
1
1
1
1
1
1
1
0.999533
0.999488
0.999453
0.999518
0.999768
1.00024
1.00091
1.00166
1.00235
1.00283
1.003
1.00283
1.00235
1.00166
1.00091
1.00024
0.999766
0.999523
0.999482
0.999569
0.999704
0.999829
0.999919
0.999971
0.999994
1
1
1
1
1
1
1
1
1
1
1
1
1
1
1
0.99945
0.999427
0.999448
0.999621
1.00004
1.00074
1.00166
1.00266
1.00355
1.00417
1.00439
1.00417
1.00355
1.00266
1.00166
1.00074
1.00004
0.999631
0.999489
0.99953
0.999657
0.999793
0.999896
0.999959
0.999989
1
1
1
1
1
1
1
1
1
1
1
1
1
1
1
0.999389
0.99939
0.999468
0.999743
1.00032
1.00121
1.00235
1.00355
1.00461
1.00534
1.00559
1.00534
1.00461
1.00355
1.00234
1.00121
1.00032
0.999758
0.999519
0.999512
0.999625
0.999764
0.999877
0.999949
0.999985
0.999999
1
1
1
1
1
1
1
1
1
1
1
1
1
1
0.999354
0.999372
0.999493
0.999841
1.00052
1.00155
1.00283
1.00417
1.00534
1.00613
1.00641
1.00613
1.00534
1.00417
1.00283
1.00155
1.00052
0.999859
0.99955
0.999507
0.999607
0.999747
0.999865
0.999942
0.999982
0.999998
1
1
1
1
1
1
1
1
1
1
1
1
1
1
0.999342
0.999367
0.999503
0.999878
1.0006
1.00167
1.003
1.00439
1.00559
1.00641
1.00669
1.00641
1.00559
1.00439
1.003
1.00167
1.0006
0.999897
0.999563
0.999506
0.999601
0.999741
0.999861
0.99994
0.999981
0.999998
1
1
1
1
1
1
1
1
1
1
1
1
1
1
0.999354
0.999372
0.999493
0.999841
1.00052
1.00155
1.00283
1.00417
1.00534
1.00613
1.00641
1.00613
1.00534
1.00417
1.00283
1.00155
1.00052
0.999859
0.99955
0.999507
0.999607
0.999747
0.999865
0.999942
0.999982
0.999998
1
1
1
1
1
1
1
1
1
1
1
1
1
1
0.999389
0.99939
0.999468
0.999743
1.00032
1.00121
1.00235
1.00355
1.00461
1.00534
1.00559
1.00534
1.00461
1.00355
1.00234
1.00121
1.00032
0.999758
0.999519
0.999512
0.999625
0.999764
0.999877
0.999949
0.999985
0.999999
1
1
1
1
1
0.999999
0.999999
0.999999
1
1
1
1
1
1
0.99945
0.999427
0.999448
0.999621
1.00004
1.00074
1.00166
1.00266
1.00355
1.00417
1.00439
1.00417
1.00355
1.00265
1.00166
1.00074
1.00004
0.999631
0.999489
0.99953
0.999657
0.999792
0.999896
0.999958
0.999989
1
1
1
1
0.999999
0.999999
0.999999
0.999999
0.999999
0.999999
0.999999
0.999999
1
1
1
0.999533
0.999488
0.999452
0.999517
0.999767
1.00024
1.00091
1.00166
1.00234
1.00283
1.003
1.00283
1.00234
1.00166
1.0009
1.00024
0.999764
0.999522
0.999481
0.999568
0.999703
0.999829
0.999918
0.99997
0.999993
1
1
1
0.999999
0.999999
0.999998
0.999998
0.999998
0.999998
0.999998
0.999999
0.999999
0.999999
0.999999
0.999999
0.999632
0.999572
0.999494
0.999468
0.999565
0.999826
1.00024
1.00074
1.00121
1.00155
1.00167
1.00155
1.00121
1.00074
1.00024
0.999823
0.999562
0.999469
0.999512
0.999629
0.999761
0.99987
0.999942
0.99998
0.999997
1
1
1
1
1
0.999999
0.999999
0.999999
0.999999
0.999998
0.999998
0.999998
0.999998
0.999998
0.999998
0.999736
0.999672
0.999573
0.999488
0.999473
0.999564
0.999766
1.00004
1.00032
1.00052
1.0006
1.00052
1.00032
1.00004
0.999764
0.999562
0.999469
0.999487
0.999581
0.999706
0.999823
0.99991
0.999963
0.99999
1
1
1
1
1
1
1
1
1
1
1
0.999999
0.999998
0.999997
0.999997
0.999997
0.999832
0.999774
0.999676
0.999569
0.99949
0.999471
0.999523
0.999631
0.999758
0.999859
0.999897
0.999859
0.999758
0.999631
0.999522
0.999469
0.999487
0.999565
0.999676
0.99979
0.999882
0.999945
0.999981
0.999997
1
1.00001
1.00001
1.00001
1.00002
1.00002
1.00002
1.00002
1.00002
1.00001
1.00001
1
1
0.999998
0.999996
0.999996
0.999909
0.999864
0.999782
0.999681
0.999584
0.999514
0.999482
0.999489
0.999519
0.99955
0.999563
0.99955
0.999519
0.999489
0.999481
0.999512
0.999581
0.999676
0.999778
0.999866
0.999932
0.999972
0.999995
1.00001
1.00001
1.00002
1.00003
1.00004
1.00005
1.00005
1.00005
1.00005
1.00005
1.00004
1.00003
1.00002
1.00001
1
0.999998
0.999995
0.999962
0.999931
0.999873
0.999795
0.999709
0.99963
0.999569
0.99953
0.999512
0.999507
0.999506
0.999507
0.999512
0.99953
0.999568
0.999629
0.999706
0.99979
0.999866
0.999926
0.999967
0.999993
1.00001
1.00002
1.00003
1.00005
1.00007
1.00009
1.0001
1.00011
1.00011
1.00011
1.0001
1.00008
1.00007
1.00005
1.00003
1.00001
1
0.999998
0.999992
0.999974
0.999938
0.999887
0.999826
0.999762
0.999704
0.999657
0.999625
0.999607
0.999601
0.999607
0.999625
0.999657
0.999703
0.999761
0.999823
0.999882
0.999932
0.999967
0.999992
1.00001
1.00003
1.00005
1.00007
1.0001
1.00013
1.00015
1.00017
1.00018
1.00019
1.00018
1.00017
1.00015
1.00013
1.0001
1.00007
1.00004
1.00002
1.00001
1.00001
0.999996
0.999978
0.999949
0.999913
0.999871
0.999829
0.999793
0.999764
0.999747
0.999741
0.999747
0.999764
0.999792
0.999829
0.99987
0.99991
0.999945
0.999972
0.999993
1.00001
1.00003
1.00005
1.00009
1.00013
1.00017
1.0002
1.00023
1.00025
1.00026
1.00026
1.00026
1.00025
1.00023
1.0002
1.00017
1.00012
1.00008
1.00005
1.00003
1.00001
1
0.999997
0.999984
0.999966
0.999943
0.999919
0.999896
0.999877
0.999865
0.999861
0.999865
0.999877
0.999896
0.999918
0.999942
0.999963
0.999981
0.999995
1.00001
1.00003
1.00005
1.00009
1.00014
1.00019
1.00024
1.00028
1.00029
1.0003
1.0003
1.0003
1.0003
1.0003
1.00029
1.00027
1.00024
1.00019
1.00014
1.0001
1.00007
1.00001
1.00001
1
0.999999
0.999992
0.999982
0.999971
0.999959
0.999949
0.999942
0.99994
0.999942
0.999949
0.999958
0.99997
0.99998
0.99999
0.999997
1.00001
1.00002
1.00005
1.00009
1.00014
1.0002
1.00026
1.0003
1.00031
1.0003
1.00027
1.00025
1.00024
1.00025
1.00027
1.0003
1.00031
1.0003
1.00026
1.00021
1.00016
1.00013
1
1
1
1
1
0.999998
0.999994
0.999989
0.999985
0.999982
0.999981
0.999982
0.999985
0.999989
0.999993
0.999997
1
1
1.00001
1.00003
1.00007
1.00013
1.00019
1.00026
1.00031
1.00031
1.00028
1.0002
1.00012
1.00005
1.00003
1.00005
1.00012
1.0002
1.00027
1.00031
1.00031
1.00027
1.00022
1.00019
1
1
1
1
1
1
1
1
0.999999
0.999998
0.999998
0.999998
0.999999
1
1
1
1
1.00001
1.00002
1.00005
1.0001
1.00017
1.00024
1.0003
1.00031
1.00026
1.00015
0.999984
0.99982
0.999698
0.999652
0.999697
0.999819
0.999983
1.00014
1.00026
1.00032
1.00032
1.00029
1.00027
1
1
1
1
1
1
1
1
1
1
1
1
1
1
1
1
1
1.00001
1.00003
1.00007
1.00013
1.0002
1.00028
1.00031
1.00028
1.00015
0.999928
0.99966
0.999401
0.999215
0.999147
0.999215
0.999401
0.999658
0.999926
1.00015
1.00028
1.00034
1.00034
1.00033
1
1
1
1
1
1
1
1
1
1
1
1
1
1
1
1
1
1.00001
1.00004
1.00009
1.00015
1.00023
1.00029
1.0003
1.0002
0.999984
0.99966
0.999283
0.99893
0.998681
0.998591
0.99868
0.998929
0.999281
0.999658
0.999986
1.00022
1.00034
1.00038
1.00039
1
1
1
1
1
1
1
1
1
1
1
1
1
1
0.999999
1
1
1.00002
1.00005
1.0001
1.00017
1.00025
1.0003
1.00027
1.00012
0.99982
0.999401
0.99893
0.998499
0.998197
0.998089
0.998196
0.998498
0.998929
0.9994
0.999823
1.00013
1.00032
1.0004
1.00042
1
1
1
1
1
1
1
1
1
1
1
1
1
0.999999
0.999999
1
1
1.00002
1.00005
1.00011
1.00018
1.00026
1.0003
1.00025
1.00005
0.999698
0.999215
0.998681
0.998197
0.997861
0.997741
0.99786
0.998196
0.998679
0.999214
0.999702
1.00007
1.0003
1.00041
1.00045
1
1
1
1
1
1
1
1
1
1
1
1
1
0.999999
0.999998
0.999999
1
1.00002
1.00005
1.00011
1.00019
1.00026
1.0003
1.00024
1.00003
0.999652
0.999147
0.998591
0.998089
0.997741
0.997617
0.99774
0.998087
0.998589
0.999146
0.999657
1.00005
1.00029
1.00041
1.00045
1
1
1
1
1
1
1
1
1
1
1
1
0.999999
0.999999
0.999998
0.999999
1
1.00002
1.00005
1.00011
1.00018
1.00026
1.0003
1.00025
1.00005
0.999697
0.999215
0.99868
0.998196
0.99786
0.99774
0.99786
0.998195
0.998679
0.999214
0.999702
1.00007
1.0003
1.00041
1.00045
1
1
1
1
1
1
1
1
1
1
1
1
0.999999
0.999999
0.999998
0.999999
1
1.00002
1.00005
1.0001
1.00017
1.00025
1.0003
1.00027
1.00012
0.999819
0.999401
0.998929
0.998498
0.998196
0.998087
0.998195
0.998496
0.998928
0.999399
0.999822
1.00013
1.00032
1.0004
1.00042
1
1
1
1
1
1
1
1
1
1
1
1
0.999999
0.999999
0.999998
0.999999
1
1.00001
1.00004
1.00008
1.00015
1.00023
1.00029
1.0003
1.0002
0.999983
0.999658
0.999281
0.998929
0.998679
0.998589
0.998679
0.998928
0.999279
0.999657
0.999985
1.00021
1.00034
1.00038
1.00039
1
1
1
1
1
1
1
1
1
1
1
1
1
0.999999
0.999998
0.999998
1
1.00001
1.00003
1.00007
1.00013
1.0002
1.00027
1.00031
1.00027
1.00014
0.999926
0.999658
0.9994
0.999214
0.999146
0.999214
0.999399
0.999657
0.999924
1.00014
1.00028
1.00034
1.00034
1.00033
1
1
1
1
1
1
1
1
1
1
1
1
1
0.999999
0.999999
0.999998
0.999999
1
1.00002
1.00005
1.0001
1.00017
1.00024
1.0003
1.00031
1.00026
1.00015
0.999986
0.999823
0.999702
0.999657
0.999702
0.999822
0.999985
1.00014
1.00026
1.00032
1.00032
1.00029
1.00026
1
1
1
1
1
1
1
1
1
1
1
1
1
0.999999
0.999999
0.999998
0.999998
1
1.00001
1.00003
1.00007
1.00012
1.00019
1.00026
1.00031
1.00032
1.00028
1.00022
1.00013
1.00007
1.00005
1.00007
1.00013
1.00021
1.00028
1.00032
1.00031
1.00027
1.00022
1.00019
1
1
1
1
1
1
1
1
1
1
1
1
1
1
0.999999
0.999998
0.999997
0.999998
1
1.00001
1.00004
1.00008
1.00014
1.00021
1.00027
1.00032
1.00034
1.00034
1.00032
1.0003
1.00029
1.0003
1.00032
1.00034
1.00034
1.00032
1.00027
1.00021
1.00015
1.00012
1
1
1
1
1
1
1
1
1
1
1
1
1
1
0.999999
0.999998
0.999997
0.999996
0.999998
1
1.00002
1.00005
1.0001
1.00016
1.00022
1.00029
1.00034
1.00038
1.0004
1.00041
1.00041
1.00041
1.0004
1.00038
1.00034
1.00029
1.00022
1.00015
1.0001
1.00007
1
1
1
1
1
1
1
1
1
1
1
1
1
1
0.999999
0.999998
0.999997
0.999996
0.999995
0.999998
1.00001
1.00003
1.00007
1.00013
1.00019
1.00027
1.00033
1.00039
1.00042
1.00045
1.00045
1.00045
1.00042
1.00039
1.00033
1.00026
1.00019
1.00012
1.00007
1.00004
SCALARS C2 double 1
LOOKUP_TABLE default
1.99993
1.99995
1.99999
2.00006
2.00017
2.00032
2.00048
2.00064
2.00077
2.00086
2.00089
2.00086
2.00077
2.00064
2.00048
2.00032
2.00017
2.00007
2
1.99997
1.99996
1.99997
1.99998
1.99999
1.99999
2
2
2
2
2
2
2
2
2
2
2
2
2
2
2
1.99995
1.99998
2.00005
2.00016
2.00031
2.0005
2.0007
2.00088
2.00103
2.00112
2.00116
2.00112
2.00103
2.00088
2.0007
2.0005
2.00032
2.00017
2.00006
2
1.99998
1.99997
1.99998
1.99999
1.99999
2
2
2
2
2
2
2
2
2
2
2
2
2
2
2
1.99999
2.00005
2.00017
2.00035
2.00058
2.00083
2.00108
2.0013
2.00146
2.00155
2.00158
2.00155
2.00146
2.0013
2.00109
2.00084
2.00058
2.00036
2.00018
2.00007
2.00001
1.99998
1.99998
1.99999
1.99999
2
2
2
2
2
2
2
2
2
2
2
2
2
2
2
2.00006
2.00016
2.00035
2.00062
2.00094
2.00126
2.00154
2.00175
2.00189
2.00195
2.00197
2.00195
2.00189
2.00175
2.00154
2.00126
2.00094
2.00063
2.00037
2.00018
2.00006
2
1.99998
1.99998
1.99999
1.99999
2
2
2
2
2
2
2
2
2
2
2
2
2
2
2.00017
2.00031
2.00058
2.00094
2.00132
2.00168
2.00194
2.00208
2.00212
2.00212
2.00211
2.00212
2.00212
2.00208
2.00194
2.00168
2.00133
2.00095
2.00059
2.00032
2.00014
2.00004
1.99999
1.99998
1.99999
1.99999
2
2
2
2
2
2
2
2
2
2
2
2
2
2
2.00032
2.0005
2.00083
2.00126
2.00168
2.002
2.00215
2.00213
2.002
2.00186
2.0018
2.00186
2.002
2.00213
2.00215
2.002
2.00169
2.00127
2.00085
2.00049
2.00023
2.00008
2.00001
1.99999
1.99999
1.99999
1.99999
2
2
2
2
2
2
2
2
2
2
2
2
2
2.00048
2.0007
2.00108
2.00154
2.00194
2.00215
2.00211
2.00184
2.00147
2.00115
2.00103
2.00115
2.00147
2.00184
2.00211
2.00215
2.00195
2.00156
2.00109
2.00066
2.00034
2.00014
2.00003
1.99999
1.99999
1.99999
1.99999
2
2
2
2
2
2
2
2
2
2
2
2
2
2.00064
2.00088
2.0013
2.00175
2.00208
2.00213
2.00184
2.00128
2.00063
2.00012
1.99992
2.00012
2.00063
2.00128
2.00184
2.00213
2.00209
2.00177
2.0013
2.00082
2.00044
2.00019
2.00006
2
1.99999
1.99999
1.99999
2
2
2
2
2
2
2
2
2
2
2
2
2
2.00077
2.00103
2.00146
2.00189
2.00212
2.002
2.00147
2.00063
1.99972
1.99902
1.99876
1.99902
1.99972
2.00063
2.00147
2.00201
2.00213
2.0019
2.00145
2.00095
2.00053
2.00024
2.00008
2.00001
1.99999
1.99999
1.99999
2
2
2
2
2
2
2
2
2
2
2
2
2
2.00086
2.00112
2.00155
2.00195
2.00212
2.00186
2.00115
2.00012
1.99902
1.9982
1.99789
1.9982
1.99903
2.00012
2.00116
2.00187
2.00213
2.00196
2.00153
2.00103
2.00058
2.00028
2.0001
2.00002
1.99999
1.99999
1.99999
2
2
2
2
2
2
2
2
2
2
2
2
2
2.00089
2.00116
2.00158
2.00197
2.00211
2.0018
2.00103
1.99992
1.99876
1.99789
1.99757
1.99789
1.99876
1.99992
2.00103
2.00181
2.00212
2.00198
2.00156
2.00105
2.0006
2.00029
2.0001
2.00002
1.99999
1.99999
1.99999
2
2
2
2
2
2
2
2
2
2
2
2
2
2.00086
2.00112
2.00155
2.00195
2.00212
2.00186
2.00115
2.00012
1.99902
1.9982
1.99789
1.9982
1.99903
2.00012
2.00116
2.00187
2.00213
2.00196
2.00153
2.00103
2.00058
2.00028
2.0001
2.00002
1.99999
1.99999
1.99999
2
2
2
2
2
2
2
2
2
2
2
2
2
2.00077
2.00103
2.00146
2.00189
2.00212
2.002
2.00147
2.00063
1.99972
1.99903
1.99876
1.99903
1.99972
2.00063
2.00147
2.00201
2.00213
2.0019
2.00145
2.00095
2.00053
2.00024
2.00008
2.00001
1.99999
1.99999
1.99999
2
2
2
2
2
2
2
2
2
2
2
2
2
2.00064
2.00088
2.0013
2.00175
2.00208
2.00213
2.00184
2.00128
2.00063
2.00012
1.99992
2.00012
2.00063
2.00128
2.00184
2.00214
2.00209
2.00177
2.0013
2.00082
2.00044
2.00019
2.00006
2
1.99999
1.99999
1.99999
2
2
2
2
2
2
2
2
2
2
2
2
2
2.00048
2.0007
2.00109
2.00154
2.00194
2.00215
2.00211
2.00184
2.00147
2.00116
2.00103
2.00116
2.00147
2.00184
2.00211
2.00216
2.00195
2.00156
2.00109
2.00066
2.00034
2.00014
2.00003
1.99999
1.99999
1.99999
2
2
2
2
2
2
2
2
2
2
2
2
2
2
2.00032
2.0005
2.00084
2.00126
2.00168
2.002
2.00215
2.00213
2.00201
2.00187
2.00181
2.00187
2.00201
2.00214
2.00216
2.00201
2.00169
2.00128
2.00085
2.00049
2.00023
2.00008
2.00001
1.99999
1.99999
1.99999
2
2
2.00001
2.00001
2.00001
2.00001
2.00001
2.00001
2.00001
2
2
2
2
2
2.00017
2.00032
2.00058
2.00094
2.00133
2.00169
2.00195
2.00209
2.00213
2.00213
2.00212
2.00213
2.00213
2.00209
2.00195
2.00169
2.00134
2.00096
2.0006
2.00032
2.00014
2.00004
2
1.99999
1.99999
2
2
2.00001
2.00001
2.00001
2.00001
2.00001
2.00001
2.00001
2.00001
2.00001
2.00001
2.00001
2
2
2.00007
2.00017
2.00036
2.00063
2.00095
2.00127
2.00156
2.00177
2.0019
2.00196
2.00198
2.00196
2.0019
2.00177
2.00156
2.00128
2.00096
2.00064
2.00037
2.00018
2.00007
2.00001
1.99999
1.99999
2
2
2.00001
2
2
2
2
2
2
2.00001
2.00001
2.00001
2.00001
2.00001
2.00001
2.00001
2
2.00006
2.00018
2.00037
2.00059
2.00085
2.00109
2.0013
2.00145
2.00153
2.00156
2.00153
2.00145
2.0013
2.00109
2.00085
2.0006
2.00037
2.0002
2.00008
2.00002
1.99999
1.99999
2
2
2
1.99999
1.99999
1.99998
1.99997
1.99997
1.99997
1.99998
1.99999
2
2
2.00001
2.00001
2.00001
2.00001
1.99997
2
2.00007
2.00018
2.00032
2.00049
2.00066
2.00082
2.00095
2.00103
2.00105
2.00103
2.00095
2.00082
2.00066
2.00049
2.00032
2.00018
2.00008
2.00002
2
1.99999
1.99999
2
1.99999
1.99998
1.99996
1.99994
1.99992
1.99991
1.9999
1.99991
1.99992
1.99994
1.99996
1.99998
2
2.00001
2.00002
2.00002
1.99996
1.99998
2.00001
2.00006
2.00014
2.00023
2.00034
2.00044
2.00053
2.00058
2.0006
2.00058
2.00053
2.00044
2.00034
2.00023
2.00014
2.00007
2.00002
2
1.99999
1.99999
1.99999
1.99998
1.99996
1.99992
1.99988
1.99984
1.9998
1.99977
1.99976
1.99977
1.9998
1.99984
1.99988
1.99993
1.99996
1.99999
2.00001
2.00002
1.99997
1.99997
1.99998
2
2.00004
2.00008
2.00014
2.00019
2.00024
2.00028
2.00029
2.00028
2.00024
2.00019
2.00014
2.00008
2.00004
2.00001
1.99999
1.99999
1.99999
1.99999
1.99997
1.99994
1.99989
1.99982
1.99974
1.99967
1.99961
1.99957
1.99955
1.99957
1.99961
1.99967
1.99974
1.99982
1.99989
1.99995
1.99999
2.00001
1.99998
1.99998
1.99998
1.99998
1.99999
2.00001
2.00003
2.00006
2.00008
2.0001
2.0001
2.0001
2.00008
2.00006
2.00003
2.00001
2
1.99999
1.99999
1.99999
1.99999
1.99997
1.99993
1.99987
1.99977
1.99966
1.99954
1.99943
1.99935
1.9993
1.99928
1.9993
1.99935
1.99943
1.99954
1.99966
1.99978
1.99988
1.99995
1.99999
1.99999
1.99999
1.99999
1.99998
1.99998
1.99999
1.99999
2
2.00001
2.00002
2.00002
2.00002
2.00001
2
1.99999
1.99999
1.99999
1.99999
2
2
1.99998
1.99994
1.99987
1.99975
1.99961
1.99945
1.99929
1.99916
1.99907
1.99902
1.999
1.99902
1.99907
1.99916
1.99929
1.99945
1.99962
1.99976
1.99987
1.99993
1.99999
1.99999
1.99999
1.99999
1.99999
1.99999
1.99999
1.99999
1.99999
1.99999
1.99999
1.99999
1.99999
1.99999
1.99999
1.99999
1.99999
2
2
1.99999
1.99996
1.99989
1.99977
1.99961
1.99941
1.99921
1.99904
1.99891
1.99884
1.9988
1.99879
1.9988
1.99884
1.99892
1.99905
1.99922
1.99942
1.99962
1.99977
1.99985
2
2
2
1.99999
1.99999
1.99999
1.99999
1.99999
1.99999
1.99999
1.99999
1.99999
1.99999
1.99999
1.99999
1.99999
2
2
2
1.99998
1.99992
1.99982
1.99966
1.99945
1.99921
1.999
1.99884
1.99875
1.99872
1.99872
1.99873
1.99872
1.99872
1.99875
1.99885
1.99901
1.99922
1.99945
1.99964
1.99974
2
2
2
2
2
1.99999
1.99999
1.99999
1.99999
1.99999
1.99999
1.99999
1.99999
1.99999
2
2
2
2.00001
1.99999
1.99996
1.99988
1.99974
1.99954
1.99929
1.99904
1.99884
1.99873
1.99871
1.99876
1.99883
1.99885
1.99883
1.99876
1.99872
1.99873
1.99885
1.99905
1.99929
1.9995
1.99962
2
2
2
2
2
2
2
2
2
2
2
2
2
2
2
2
2.00001
2
1.99999
1.99994
1.99984
1.99967
1.99943
1.99916
1.99891
1.99875
1.99871
1.9988
1.99895
1.99908
1.99914
1.99908
1.99895
1.9988
1.99872
1.99876
1.99892
1.99915
1.99937
1.9995
2
2
2
2
2
2
2
2
2
2
2
2
2
2
2
2.00001
2.00001
2
1.99998
1.99992
1.9998
1.99961
1.99935
1.99907
1.99884
1.99872
1.99876
1.99895
1.99919
1.9994
1.99948
1.9994
1.99919
1.99895
1.99877
1.99873
1.99884
1.99905
1.99927
1.9994
2
2
2
2
2
2
2
2
2
2
2
2
2
2
2
2.00001
2.00001
2
1.99997
1.99991
1.99977
1.99957
1.9993
1.99902
1.9988
1.99872
1.99883
1.99908
1.9994
1.99966
1.99976
1.99966
1.9994
1.99909
1.99883
1.99873
1.9988
1.99899
1.9992
1.99934
2
2
2
2
2
2
2
2
2
2
2
2
2
2
2
2.00001
2.00001
2
1.99997
1.9999
1.99976
1.99955
1.99928
1.999
1.99879
1.99873
1.99885
1.99914
1.99948
1.99976
1.99986
1.99976
1.99948
1.99914
1.99886
1.99873
1.99879
1.99897
1.99918
1.99932
2
2
2
2
2
2
2
2
2
2
2
2
2
2
2
2.00001
2.00001
2
1.99997
1.99991
1.99977
1.99957
1.9993
1.99902
1.9988
1.99872
1.99883
1.99908
1.9994
1.99966
1.99976
1.99966
1.9994
1.99909
1.99883
1.99873
1.9988
1.99899
1.9992
1.99934
2
2
2
2
2
2
2
2
2
2
2
2
2
2
2
2.00001
2.00001
2
1.99998
1.99992
1.9998
1.99961
1.99935
1.99907
1.99884
1.99872
1.99876
1.99895
1.99919
1.9994
1.99948
1.9994
1.9992
1.99895
1.99877
1.99873
1.99884
1.99905
1.99927
1.9994
2
2
2
2
2
2
2
2
2
2
2
2
2
2
2
2.00001
2.00001
2.00001
1.99999
1.99994
1.99984
1.99967
1.99943
1.99916
1.99892
1.99875
1.99872
1.9988
1.99895
1.99909
1.99914
1.99909
1.99895
1.9988
1.99872
1.99876
1.99892
1.99915
1.99937
1.9995
2
2
2
2
2
2
2
2
2
2
2
2
2
2
2
2.00001
2.00001
2.00001
2
1.99996
1.99988
1.99974
1.99954
1.99929
1.99905
1.99885
1.99873
1.99872
1.99877
1.99883
1.99886
1.99883
1.99877
1.99872
1.99874
1.99885
1.99905
1.99929
1.9995
1.99962
2
2
2
2
2
2
2
2
2
2
2
2
2
2
2
2
2.00001
2.00001
2
1.99998
1.99993
1.99982
1.99966
1.99945
1.99922
1.99901
1.99885
1.99876
1.99873
1.99873
1.99873
1.99873
1.99873
1.99876
1.99885
1.99902
1.99923
1.99946
1.99964
1.99975
2
2
2
2
2
2
2
2
2
2
2
2
2
2
2
2
2.00001
2.00001
2.00001
2
1.99996
1.99989
1.99978
1.99962
1.99942
1.99922
1.99905
1.99892
1.99884
1.9988
1.99879
1.9988
1.99884
1.99892
1.99905
1.99923
1.99943
1.99963
1.99978
1.99986
2
2
2
2
2
2
2
2
2
2
2
2
2
2
2
2
2.00001
2.00001
2.00001
2.00001
1.99999
1.99995
1.99988
1.99976
1.99962
1.99945
1.99929
1.99915
1.99905
1.99899
1.99897
1.99899
1.99905
1.99915
1.99929
1.99946
1.99963
1.99978
1.99989
1.99995
2
2
2
2
2
2
2
2
2
2
2
2
2
2
2
2
2
2.00001
2.00001
2.00002
2.00001
1.99999
1.99995
1.99987
1.99977
1.99964
1.9995
1.99937
1.99927
1.9992
1.99918
1.9992
1.99927
1.99937
1.9995
1.99964
1.99978
1.99989
1.99997
2.00001
2
2
2
2
2
2
2
2
2
2
2
2
2
2
2
2
2
2.00001
2.00001
2.00002
2.00002
2.00001
1.99999
1.99993
1.99985
1.99974
1.99962
1.9995
1.9994
1.99934
1.99932
1.99934
1.9994
1.9995
1.99962
1.99975
1.99986
1.99995
2.00001
2.00003
