# vtk DataFile Version 3.0
Brusselator Concentration Output
ASCII
DATASET STRUCTURED_POINTS
DIMENSIONS 40 40 1
ORIGIN 0.0 0.0 0.0
SPACING 0.005 0.005 1.0
POINT_DATA 1600
SCALARS C1 double 1
LOOKUP_TABLE default
1
1
1
1
1
1
0.999999
0.999997
0.999995
0.999993
0.999992
0.999993
0.999995
0.999997
0.999999
1
1
1
1
1
1
1
1
1
1
1
1
1
1
1
1
1
1
1
1
1
1
1
1
1
1
1
1
1
1
0.999998
0.999994
0.999988
0.99998
0.999974
0.999972
0.999974
0.99998
0.999988
0.999994
0.999998
1
1
1
1
1
1
1
1
1
1
1
1
1
1
1
1
1
1
1
1
1
1
1
1
1
1
1
0.999999
0.999997
0.99999
0.999976
0.999956
0.999936
0.999922
0.999917
0.999922
0.999936
0.999956
0.999976
0.99999
0.999997
0.999999
1
1
1
1
1
1
1
1
1
1
1
1
1
1
1
1
1
1
1
1
1
1
1
1
0.999999
0.999996
0.999987
0.999965
0.999927
0.999879
0.999843
0.999829
0.999828
0.999829
0.999843
0.999879
0.999927
0.999965
0.999987
0.999996
0.999999
1
1
1
1
1
1
1
1
1
1
1
1
1
1
1
1
1
1
1
1
1
1
1
0.999997
0.999987
0.99996
0.999905
0.999827
0.999761
0.999758
0.999816
0.999854
0.999816
0.999758
0.999761
0.999827
0.999905
0.99996
0.999987
0.999997
1
1
1
1
1
1
1
1
1
1
1
1
1
1
1
1
1
1
1
1
1
1
0.999998
0.99999
0.999965
0.999905
0.999805
0.999709
0.999741
1.00001
1.0004
1.00059
1.0004
1.00001
0.999741
0.999709
0.999805
0.999905
0.999965
0.99999
0.999998
1
1
1
1
1
1
1
1
1
1
1
1
1
1
1
1
1
1
1
1
0.999999
0.999994
0.999976
0.999927
0.999827
0.999709
0.999747
1.00026
1.00141
1.00274
1.00333
1.00274
1.00141
1.00026
0.999747
0.999709
0.999827
0.999927
0.999976
0.999994
0.999999
1
1
1
1
1
1
1
1
1
1
1
1
1
1
1
1
1
1
1
0.999997
0.999988
0.999956
0.999879
0.999761
0.999741
1.00026
1.00196
1.00498
1.00811
1.0094
1.00811
1.00498
1.00196
1.00026
0.999741
0.999761
0.999879
0.999956
0.999988
0.999998
1
1
1
1
1
1
1
1
1
1
1
1
1
1
1
1
1
1
1
0.999995
0.99998
0.999936
0.999843
0.999758
1.00001
1.00141
1.00498
1.01065
1.01602
1.01809
1.01602
1.01065
1.00498
1.00141
1.00001
0.999758
0.999843
0.999936
0.99998
0.999995
0.999999
1
1
1
1
1
1
1
1
1
1
1
1
1
1
1
1
1
1
0.999993
0.999974
0.999922
0.999829
0.999816
1.0004
1.00274
1.00811
1.01602
1.02299
1.02545
1.02299
1.01602
1.00811
1.00274
1.0004
0.999816
0.999829
0.999922
0.999975
0.999994
0.999999
1
1
1
1
1
1
1
1
1
1
1
1
1
1
1
1
1
1
0.999992
0.999972
0.999917
0.999828
0.999854
1.00059
1.00333
1.0094
1.01809
1.02545
1.02791
1.02545
1.01809
1.0094
1.00333
1.00059
0.999854
0.999828
0.999917
0.999972
0.999993
0.999999
1
1
1
1
1
1
1
1
1
1
1
1
1
1
1
1
1
1
0.999993
0.999974
0.999922
0.999829
0.999816
1.0004
1.00274
1.00811
1.01602
1.02299
1.02545
1.02299
1.01602
1.00811
1.00274
1.0004
0.999816
0.999829
0.999922
0.999975
0.999994
0.999999
1
1
1
1
1
1
1
1
1
1
1
1
1
1
1
1
1
1
0.999995
0.99998
0.999936
0.999843
0.999758
1.00001
1.00141
1.00498
1.01065
1.01602
1.01809
1.01602
1.01065
1.00498
1.00141
1.00001
0.999758
0.999843
0.999936
0.99998
0.999995
0.999999
1
1
1
1
1
1
1
1
1
1
1
1
1
1
1
1
1
1
0.999997
0.999988
0.999956
0.999879
0.999761
0.999741
1.00026
1.00196
1.00498
1.00811
1.0094
1.00811
1.00498
1.00196
1.00026
0.999741
0.999761
0.999879
0.999956
0.999988
0.999998
1
1
1
1
1
1
1
1
1
1
1
1
1
1
1
1
1
1
1
0.999999
0.999994
0.999976
0.999927
0.999827
0.999709
0.999747
1.00026
1.00141
1.00274
1.00333
1.00274
1.00141
1.00026
0.999747
0.999709
0.999827
0.999927
0.999976
0.999994
0.999999
1
1
1
1
1
1
1
1
1
1
1
1
1
1
1
1
1
1
1
1
0.999998
0.99999
0.999965
0.999905
0.999805
0.999709
0.999741
1.00001
1.0004
1.00059
1.0004
1.00001
0.999741
0.999709
0.999805
0.999905
0.999965
0.99999
0.999998
1
1
1
1
1
1
1
1
1
1
1
1
1
1
1
1
1
1
1
1
1
1
0.999997
0.999987
0.99996
0.999905
0.999827
0.999761
0.999758
0.999816
0.999854
0.999816
0.999758
0.999761
0.999827
0.999905
0.99996
0.999987
0.999997
1
1
1
1
1
1
1
1
1
1
1
1
1
1
1
1
1
1
1
1
1
1
1
0.999999
0.999996
0.999987
0.999965
0.999927
0.999879
0.999843
0.999829
0.999828
0.999829
0.999843
0.999879
0.999927
0.999965
0.999987
0.999996
0.999999
1
1
1
1
1
1
1
1
1
1
1
1
1
1
1
1
1
1
1
1
1
1
1
1
0.999999
0.999997
0.99999
0.999976
0.999956
0.999936
0.999922
0.999917
0.999922
0.999936
0.999956
0.999976
0.99999
0.999997
0.999999
1
1
1
1
1
1
1
1
1
1
1
1
1
1
1
1
1
1
1
1
1
1
1
1
1
1
1
0.999998
0.999994
0.999988
0.99998
0.999975
0.999972
0.999975
0.99998
0.999988
0.999994
0.999998
1
1
1
1
1
1
1
1
1
1
1
1
1
1
1
1
1
1
1
1
1
1
1
1
1
1
1
1
1
1
0.999999
0.999998
0.999995
0.999994
0.999993
0.999994
0.999995
0.999998
0.999999
1
1
1
1
1
1
1
1
1
1
1
1
1
1
1
1
1
1
1
1
1
1
1
1
1
1
1
1
1
1
1
1
1
0.999999
0.999999
0.999999
0.999999
0.999999
1
1
1
1
1
1
1
1
1
1
1
1
1
1
1
1.00001
1.00001
1.00001
1.00001
1.00001
1
1
1
1
1
1
1
1
1
1
1
1
1
1
1
1
1
1
1
1
1
1
1
1
1
1
1
1
1
1
1
1
1
1.00001
1.00002
1.00003
1.00003
1.00004
1.00003
1.00003
1.00002
1.00001
1
1
1
1
1
1
1
1
1
1
1
1
1
1
1
1
1
1
1
1
1
1
1
1
1
1
1
1
1
1
1.00001
1.00003
1.00005
1.00007
1.00008
1.00008
1.00008
1.00007
1.00005
1.00003
1.00001
1
1
1
1
1
1
1
1
1
1
1
1
1
1
1
1
1
1
1
1
1
1
1
1
1
1
1
1
1.00002
1.00004
1.00008
1.00011
1.00014
1.00013
1.00012
1.00013
1.00014
1.00011
1.00008
1.00004
1.00002
1
1
1
1
1
1
1
1
1
1
1
1
1
1
1
1
1
1
1
1
1
1
1
1
1
1
1.00001
1.00004
1.00009
1.00014
1.00017
1.00012
0.999996
0.999932
0.999996
1.00012
1.00017
1.00014
1.00009
1.00004
1.00001
1
1
1
1
1
1
1
1
1
1
1
1
1
1
1
1
1
1
1
1
1
1
1
1
1.00001
1.00003
1.00008
1.00014
1.00018
1.00007
0.999697
0.99921
0.99898
0.99921
0.999697
1.00007
1.00018
1.00014
1.00008
1.00003
1.00001
1
1
1
1
1
1
1
1
1
1
1
1
1
1
1
1
1
1
1
1
1
1
1
1.00002
1.00005
1.00011
1.00017
1.00007
0.999523
0.998404
0.997133
0.996569
0.997133
0.998404
0.999523
1.00007
1.00017
1.00011
1.00005
1.00002
1.00001
1
1
1
1
1
1
1
1
1
1
1
1
1
1
1
1
1
1
1
1
1
1.00001
1.00003
1.00007
1.00014
1.00012
0.999697
0.998404
0.996114
0.993713
0.992698
0.993713
0.996114
0.998404
0.999697
1.00012
1.00014
1.00007
1.00003
1.00001
1
1
1
1
1
1
1
1
1
1
1
1
1
1
1
1
1
1
1
1
1
1.00001
1.00003
1.00008
1.00013
0.999996
0.99921
0.997133
0.993713
0.990305
0.988918
0.990305
0.993713
0.997133
0.99921
0.999996
1.00013
1.00008
1.00003
1.00001
1
1
1
1
1
1
1
1
1
1
1
1
1
1
1
1
1
1
1
1
1
1.00001
1.00004
1.00008
1.00012
0.999932
0.99898
0.996569
0.992698
0.988918
0.987405
0.988918
0.992698
0.996569
0.99898
0.999932
1.00012
1.00008
1.00004
1.00001
1
1
1
1
1
1
1
1
1
1
1
1
1
1
1
1
1
1
1
1
1
1.00001
1.00003
1.00008
1.00013
0.999996
0.99921
0.997133
0.993713
0.990305
0.988918
0.990305
0.993713
0.997133
0.99921
0.999996
1.00013
1.00008
1.00003
1.00001
1
1
1
1
1
1
1
1
1
1
1
1
1
1
1
1
1
1
1
1
1
1.00001
1.00003
1.00007
1.00014
1.00012
0.999697
0.998404
0.996114
0.993713
0.992698
0.993713
0.996114
0.998404
0.999697
1.00012
1.00014
1.00007
1.00003
1.00001
1
1
1
1
1
1
1
1
1
1
1
1
1
1
1
1
1
1
1
1
1
1
1.00002
1.00005
1.00011
1.00017
1.00007
0.999523
0.998404
0.997133
0.996569
0.997133
0.998404
0.999523
1.00007
1.00017
1.00011
1.00005
1.00002
1.00001
1
1
1
1
1
1
1
1
1
1
1
1
1
1
1
1
1
1
1
1
1
1
1.00001
1.00003
1.00008
1.00014
1.00018
1.00007
0.999697
0.99921
0.99898
0.99921
0.999697
1.00007
1.00018
1.00014
1.00008
1.00003
1.00001
1
1
1
1
1
1
1
1
1
1
1
1
1
1
1
1
1
1
1
1
1
1
1
1
1.00001
1.00004
1.00009
1.00014
1.00017
1.00012
0.999996
0.999932
0.999996
1.00012
1.00017
1.00014
1.00009
1.00004
1.00001
1
1
1
1
1
1
1
1
1
1
1
1
1
1
1
1
1
1
1
1
1
1
1
1
1
1
1.00002
1.00004
1.00008
1.00011
1.00014
1.00013
1.00012
1.00013
1.00014
1.00011
1.00008
1.00004
1.00002
1
1
1
1
1
1
1
1
1
1
1
1
1
1
1
1
1
1
1
1
1
1
1
1
1
1
1
1
1.00001
1.00003
1.00005
1.00007
1.00008
1.00008
1.00008
1.00007
1.00005
1.00003
1.00001
1
1
1
1
1
1
1
1
1
1
1
1
1
1
1
1
1
1
1
1
1
1
1
1
1
1
1
1
1
1
1.00001
1.00002
1.00003
1.00003
1.00004
1.00003
1.00003
1.00002
1.00001
1
1
1
1
1
1
1
1
1
1
1
1
1
1
1
1
1
1
1
1
1
1
1
1
1
1
1
1
1
1
1
1
1.00001
1.00001
1.00001
1.00001
1.00001
1.00001
1.00001
1
1
1
1
1
1
SCALARS C2 double 1
LOOKUP_TABLE default
2
2
2
2
2
2
2
2
2
2
2
2
2
2
2
2
2
2
2
2
2
2
2
2
2
2
2
2
2
2
2
2
2
2
2
2
2
2
2
2
2
2
2
2
2
2
2
2.00001
2.00001
2.00002
2.00002
2.00002
2.00001
2.00001
2
2
2
2
2
2
2
2
2
2
2
2
2
2
2
2
2
2
2
2
2
2
2
2
2
2
2
2
2
2
2
2
2.00002
2.00004
2.00007
2.00009
2.0001
2.00009
2.00007
2.00004
2.00002
2
2
2
2
2
2
2
2
2
2
2
2
2
2
2
2
2
2
2
2
2
2
2
2
2
2
2
2
2
2.00001
2.00003
2.00007
2.00014
2.00023
2.0003
2.00032
2.0003
2.00023
2.00014
2.00007
2.00003
2.00001
2
2
2
2
2
2
2
2
2
2
2
2
2
2
2
2
2
2
2
2
2
2
2
2
2
2
2.00001
2.00003
2.00009
2.00022
2.00041
2.0006
2.00072
2.00075
2.00072
2.0006
2.00041
2.00022
2.00009
2.00003
2.00001
2
2
2
2
2
2
2
2
2
2
2
2
2
2
2
2
2
2
2
2
2
2
2
2
2
2.00003
2.00009
2.00025
2.00055
2.0009
2.00116
2.00119
2.00114
2.00119
2.00116
2.0009
2.00055
2.00025
2.00009
2.00003
2
2
2
2
2
2
2
2
2
2
2
2
2
2
2
2
2
2
2
2
2
2
2
2
2.00002
2.00007
2.00022
2.00055
2.00103
2.00143
2.00132
2.00064
2.00021
2.00064
2.00132
2.00143
2.00103
2.00055
2.00022
2.00007
2.00002
2
2
2
2
2
2
2
2
2
2
2
2
2
2
2
2
2
2
2
2
2
2
2.00001
2.00004
2.00014
2.00041
2.0009
2.00143
2.00128
1.99958
1.99673
1.99519
1.99673
1.99958
2.00128
2.00143
2.0009
2.00041
2.00014
2.00004
2.00001
2
2
2
2
2
2
2
2
2
2
2
2
2
2
2
2
2
2
2
2
2
2.00001
2.00007
2.00023
2.0006
2.00116
2.00132
1.99958
1.99447
1.98743
1.98388
1.98743
1.99447
1.99958
2.00132
2.00116
2.0006
2.00023
2.00007
2.00001
2
2
2
2
2
2
2
2
2
2
2
2
2
2
2
2
2
2
2
2
2
2.00002
2.00009
2.0003
2.00072
2.00119
2.00064
1.99673
1.98743
1.9755
1.96965
1.9755
1.98743
1.99673
2.00064
2.00119
2.00072
2.0003
2.00009
2.00002
2
2
2
2
2
2
2
2
2
2
2
2
2
2
2
2
2
2
2
2
2
2.00002
2.0001
2.00032
2.00075
2.00114
2.00021
1.99519
1.98388
1.96965
1.96275
1.96965
1.98388
1.99519
2.00021
2.00114
2.00075
2.00032
2.0001
2.00002
2
2
2
2
2
2
2
2
2
2
2
2
2
2
2
2
2
2
2
2
2
2.00002
2.00009
2.0003
2.00072
2.00119
2.00064
1.99673
1.98743
1.9755
1.96965
1.9755
1.98743
1.99673
2.00064
2.00119
2.00072
2.0003
2.00009
2.00002
2
2
2
2
2
2
2
2
2
2
2
2
2
2
2
2
2
2
2
2
2
2.00001
2.00007
2.00023
2.0006
2.00116
2.00132
1.99958
1.99447
1.98743
1.98388
1.98743
1.99447
1.99958
2.00132
2.00116
2.0006
2.00023
2.00007
2.00001
2
2
2
2
2
2
2
2
2
2
2
2
2
2
2
2
2
2
2
2
2
2.00001
2.00004
2.00014
2.00041
2.0009
2.00143
2.00128
1.99958
1.99673
1.99519
1.99673
1.99958
2.00128
2.00143
2.0009
2.00041
2.00014
2.00004
2.00001
2
2
2
2
2
2
2
2
2
2
2
2
2
2
2
2
2
2
2
2
2
2
2.00002
2.00007
2.00022
2.00055
2.00103
2.00143
2.00132
2.00064
2.00021
2.00064
2.00132
2.00143
2.00103
2.00055
2.00022
2.00007
2.00002
2
2
2
2
2
2
2
2
2
2
2
2
2
2
2
2
2
2
2
2
2
2
2
2
2.00003
2.00009
2.00025
2.00055
2.0009
2.00116
2.00119
2.00114
2.00119
2.00116
2.0009
2.00055
2.00025
2.00009
2.00003
2
2
2
2
2
2
2
2
2
2
2
2
2
2
2
2
2
2
2
2
2
2
2
2
2
2.00001
2.00003
2.00009
2.00022
2.00041
2.0006
2.00072
2.00075
2.00072
2.0006
2.00041
2.00022
2.00009
2.00003
2.00001
2
2
2
2
2
2
2
2
2
2
2
2
2
2
2
2
2
2
2
2
2
2
2
2
2
2
2.00001
2.00003
2.00007
2.00014
2.00023
2.0003
2.00032
2.0003
2.00023
2.00014
2.00007
2.00003
2.00001
2
2
2
2
2
2
2
2
2
2
2
2
2
2
2
2
2
2
2
2
2
2
2
2
2
2
2
2
2
2.00002
2.00004
2.00007
2.00009
2.0001
2.00009
2.00007
2.00004
2.00002
2
2
2
2
2
2
2
2
2
2
2
2
2
2
2
2
2
2
2
2
2
2
2
2
2
2
2
2
2
2
2
2
2.00001
2.00001
2.00002
2.00002
2.00002
2.00001
2.00001
2
2
2
2
2
2
2
2
2
2
2
2
2
2
2
2
2
2
2
2
2
2
2
2
2
2
2
2
2
2
2
2
2
2
2
2
2
2
2
2
2
2
2
2
2
2
2
2
2
2
2
2
2
2
2
2
2
2
2
2
2
2
2
2
2
2
2
2
2
2
2
2
2
2
2
2
2
2
2
2
2
2
2
2
2
2
2
2
2
2
2
2
2
2
2
1.99999
1.99999
1.99999
2
2
2
2
2
2
2
2
2
2
2
2
2
2
2
2
2
2
2
2
2
2
2
2
2
2
2
2
2
2
2
2
2
2
1.99999
1.99999
1.99998
1.99996
1.99996
1.99996
1.99998
1.99999
1.99999
2
2
2
2
2
2
2
2
2
2
2
2
2
2
2
2
2
2
2
2
2
2
2
2
2
2
2
2
2
2
1.99999
1.99997
1.99995
1.99991
1.99988
1.99987
1.99988
1.99991
1.99995
1.99997
1.99999
2
2
2
2
2
2
2
2
2
2
2
2
2
2
2
2
2
2
2
2
2
2
2
2
2
2
2
2
1.99999
1.99997
1.99991
1.99983
1.99974
1.99967
1.99965
1.99967
1.99974
1.99983
1.99991
1.99997
1.99999
2
2
2
2
2
2
2
2
2
2
2
2
2
2
2
2
2
2
2
2
2
2
2
2
2
2
1.99999
1.99997
1.9999
1.99977
1.99959
1.99943
1.99935
1.99934
1.99935
1.99943
1.99959
1.99977
1.9999
1.99997
1.99999
2
2
2
2
2
2
2
2
2
2
2
2
2
2
2
2
2
2
2
2
2
2
2
2
1.99999
1.99997
1.99991
1.99977
1.99953
1.99926
1.99913
1.99922
1.99933
1.99922
1.99913
1.99926
1.99953
1.99977
1.99991
1.99997
1.99999
2
2
2
2
2
2
2
2
2
2
2
2
2
2
2
2
2
2
2
2
2
2
2
1.99999
1.99995
1.99983
1.99959
1.99926
1.99905
1.99936
2.00017
2.00068
2.00017
1.99936
1.99905
1.99926
1.99959
1.99983
1.99995
1.99999
2
2
2
2
2
2
2
2
2
2
2
2
2
2
2
2
2
2
2
2
2
2
2
1.99998
1.99991
1.99974
1.99943
1.99913
1.99936
2.0008
2.00316
2.00446
2.00316
2.0008
1.99936
1.99913
1.99943
1.99974
1.99991
1.99998
1.99999
2
2
2
2
2
2
2
2
2
2
2
2
2
2
2
2
2
2
2
2
2
1.99999
1.99996
1.99988
1.99967
1.99935
1.99922
2.00017
2.00316
2.00748
2.00977
2.00748
2.00316
2.00017
1.99922
1.99935
1.99967
1.99988
1.99996
1.99999
2
2
2
2
2
2
2
2
2
2
2
2
2
2
2
2
2
2
2
2
2
1.99999
1.99996
1.99987
1.99965
1.99934
1.99933
2.00068
2.00446
2.00977
2.01256
2.00977
2.00446
2.00068
1.99933
1.99934
1.99965
1.99987
1.99996
1.99999
2
2
2
2
2
2
2
2
2
2
2
2
2
2
2
2
2
2
2
2
2
1.99999
1.99996
1.99988
1.99967
1.99935
1.99922
2.00017
2.00316
2.00748
2.00977
2.00748
2.00316
2.00017
1.99922
1.99935
1.99967
1.99988
1.99996
1.99999
2
2
2
2
2
2
2
2
2
2
2
2
2
2
2
2
2
2
2
2
2
2
1.99998
1.99991
1.99974
1.99943
1.99913
1.99936
2.0008
2.00316
2.00446
2.00316
2.0008
1.99936
1.99913
1.99943
1.99974
1.99991
1.99998
1.99999
2
2
2
2
2
2
2
2
2
2
2
2
2
2
2
2
2
2
2
2
2
2
1.99999
1.99995
1.99983
1.99959
1.99926
1.99905
1.99936
2.00017
2.00068
2.00017
1.99936
1.99905
1.99926
1.99959
1.99983
1.99995
1.99999
2
2
2
2
2
2
2
2
2
2
2
2
2
2
2
2
2
2
2
2
2
2
2
1.99999
1.99997
1.99991
1.99977
1.99953
1.99926
1.99913
1.99922
1.99933
1.99922
1.99913
1.99926
1.99953
1.99977
1.99991
1.99997
1.99999
2
2
2
2
2
2
2
2
2
2
2
2
2
2
2
2
2
2
2
2
2
2
2
2
1.99999
1.99997
1.9999
1.99977
1.99959
1.99943
1.99935
1.99934
1.99935
1.99943
1.99959
1.99977
1.9999
1.99997
1.99999
2
2
2
2
2
2
2
2
2
2
2
2
2
2
2
2
2
2
2
2
2
2
2
2
2
2
1.99999
1.99997
1.99991
1.99983
1.99974
1.99967
1.99965
1.99967
1.99974
1.99983
1.99991
1.99997
1.99999
2
2
2
2
2
2
2
2
2
2
2
2
2
2
2
2
2
2
2
2
2
2
2
2
2
2
2
2
1.99999
1.99997
1.99995
1.99991
1.99988
1.99987
1.99988
1.99991
1.99995
1.99997
1.99999
2
2
2
2
2
2
2
2
2
2
2
2
2
2
2
2
2
2
2
2
2
2
2
2
2
2
2
2
2
2
1.99999
1.99999
1.99998
1.99996
1.99996
1.99996
1.99998
1.99999
1.99999
2
2
2
2
2
2
2
2
2
2
2
2
2
2
2
2
2
2
2
2
2
2
2
2
2
2
2
2
2
2
2
2
2
1.99999
1.99999
1.99999
1.99999
1.99999
2
2
2
2
2
2
2
