# vtk DataFile Version 3.0
Brusselator Concentration Output
ASCII
DATASET STRUCTURED_POINTS
DIMENSIONS 40 40 1
ORIGIN 0.0 0.0 0.0
SPACING 0.005 0.005 1.0
POINT_DATA 1600
SCALARS C1 double 1
LOOKUP_TABLE default
1
1
1
0.999999
0.999992
0.999977
0.999956
0.99993
0.999907
0.99989
0.999884
0.99989
0.999907
0.99993
0.999956
0.999977
0.999992
0.999999
1
1
1
1
1
1
1
1
1
1
1
1
1
1
1
1
1
1
1
1
1
1
1
1
0.999999
0.99999
0.999971
0.999941
0.999903
0.999864
0.999832
0.999812
0.999806
0.999812
0.999832
0.999864
0.999903
0.999941
0.999971
0.99999
0.999998
1
1
1
1
1
1
1
1
1
1
1
1
1
1
1
1
1
1
1
1
1
1
0.999999
0.999988
0.999964
0.999921
0.999862
0.999798
0.999746
0.999716
0.999707
0.999706
0.999707
0.999716
0.999746
0.999798
0.999862
0.999921
0.999964
0.999988
0.999998
1
1
1
1
1
1
1
1
1
1
1
1
1
1
1
1
1
1
1
1
0.999999
0.99999
0.999964
0.999913
0.999835
0.999744
0.999672
0.999653
0.999687
0.999739
0.999764
0.999739
0.999687
0.999653
0.999672
0.999744
0.999835
0.999913
0.999963
0.999989
0.999999
1
1
1
1
1
1
1
1
1
1
1
1
1
1
1
1
1
1
1
0.999992
0.999971
0.999921
0.999835
0.999723
0.999634
0.999638
0.999778
1.00002
1.00025
1.00034
1.00025
1.00002
0.999778
0.999638
0.999634
0.999723
0.999834
0.999921
0.99997
0.999992
1
1
1
1
1
1
1
1
1
1
1
1
1
1
1
1
1
1
1
0.999977
0.999941
0.999862
0.999744
0.999634
0.99964
0.999888
1.00042
1.0011
1.00168
1.00191
1.00168
1.0011
1.00042
0.999888
0.99964
0.999634
0.999743
0.999861
0.999941
0.999981
0.999996
1
1
1
1
1
1
1
1
1
1
1
1
1
1
1
1
1
1
0.999956
0.999903
0.999798
0.999672
0.999638
0.999888
1.00061
1.0018
1.00318
1.00428
1.0047
1.00428
1.00318
1.0018
1.00061
0.999888
0.999637
0.999672
0.999797
0.999904
0.999965
0.999991
0.999999
1
1
1
1
1
1
1
1
1
1
1
1
1
1
1
1
1
0.99993
0.999864
0.999746
0.999653
0.999778
1.00042
1.0018
1.00385
1.00606
1.00774
1.00836
1.00774
1.00606
1.00385
1.0018
1.00042
0.999778
0.999652
0.999745
0.999867
0.999946
0.999984
0.999997
1
1
1
1
1
1
1
1
1
1
1
1
1
1
1
1
1
0.999907
0.999832
0.999716
0.999687
1.00002
1.0011
1.00318
1.00606
1.00902
1.01118
1.01195
1.01118
1.00902
1.00606
1.00318
1.0011
1.00002
0.999686
0.999717
0.999837
0.99993
0.999977
0.999995
1
1
1
1
1
1
1
1
1
1
1
1
1
1
1
1
1
0.99989
0.999812
0.999707
0.999739
1.00025
1.00168
1.00428
1.00774
1.01118
1.01361
1.01447
1.01361
1.01118
1.00774
1.00428
1.00168
1.00025
0.999739
0.999708
0.999819
0.999918
0.999972
0.999993
0.999999
1
1
1
1
1
1
1
1
1
1
1
1
1
1
1
1
0.999884
0.999806
0.999706
0.999764
1.00034
1.00191
1.0047
1.00836
1.01195
1.01447
1.01535
1.01447
1.01195
1.00836
1.0047
1.00191
1.00034
0.999764
0.999707
0.999814
0.999914
0.99997
0.999993
0.999999
1
1
1
1
1
1
1
1
1
1
1
1
1
1
1
1
0.99989
0.999812
0.999707
0.999739
1.00025
1.00168
1.00428
1.00774
1.01118
1.01361
1.01447
1.01361
1.01118
1.00774
1.00428
1.00168
1.00025
0.999739
0.999708
0.999819
0.999918
0.999972
0.999993
0.999999
1
1
1
1
1
1
1
1
1
1
1
1
1
1
1
1
0.999907
0.999832
0.999716
0.999687
1.00002
1.0011
1.00318
1.00606
1.00902
1.01118
1.01195
1.01118
1.00902
1.00606
1.00318
1.0011
1.00002
0.999686
0.999717
0.999837
0.99993
0.999977
0.999995
1
1
1
1
1
1
1
1
1
1
1
1
1
1
1
1
1
0.99993
0.999864
0.999746
0.999653
0.999778
1.00042
1.0018
1.00385
1.00606
1.00774
1.00836
1.00774
1.00606
1.00385
1.0018
1.00042
0.999778
0.999652
0.999745
0.999867
0.999946
0.999984
0.999997
1
1
1
1
1
1
1
1
1
1
1
1
1
1
1
1
1
0.999956
0.999903
0.999798
0.999672
0.999638
0.999888
1.00061
1.0018
1.00318
1.00428
1.0047
1.00428
1.00318
1.0018
1.00061
0.999888
0.999637
0.999672
0.999797
0.999904
0.999965
0.999991
0.999999
1
1
1
1
1
1
1
1
1
1
1
1
1
1
1
1
1
0.999977
0.999941
0.999862
0.999744
0.999634
0.99964
0.999888
1.00042
1.0011
1.00168
1.00191
1.00168
1.0011
1.00042
0.999888
0.99964
0.999634
0.999743
0.999861
0.999941
0.999981
0.999996
1
1
1
1
1
1
1
1
1
1
1
1
1
1
1
1
1
1
0.999992
0.999971
0.999921
0.999835
0.999723
0.999634
0.999637
0.999778
1.00002
1.00025
1.00034
1.00025
1.00002
0.999778
0.999637
0.999634
0.999723
0.999834
0.999921
0.99997
0.999992
1
1
1
1
1
1
1
1
1
1
1
1
1
1
1
1
1
1
1
0.999999
0.99999
0.999964
0.999913
0.999834
0.999743
0.999672
0.999652
0.999686
0.999739
0.999764
0.999739
0.999686
0.999652
0.999672
0.999743
0.999834
0.999913
0.999963
0.999989
0.999998
1
1
1
1
1
1
1
1
1
1
1
1
1
1
1
1
1
1
1
1
0.999998
0.999988
0.999963
0.999921
0.999861
0.999797
0.999745
0.999717
0.999708
0.999707
0.999708
0.999717
0.999745
0.999797
0.999861
0.999921
0.999963
0.999987
0.999998
1
1
1
1
1
1
1
1
1
1
1
1
1
1
1
1
1
1
1
1
1
1
0.999998
0.999989
0.99997
0.999941
0.999904
0.999867
0.999837
0.999819
0.999814
0.999819
0.999837
0.999867
0.999904
0.999941
0.99997
0.999989
0.999998
1
1
1
1
1
1
1
1
1.00001
1.00001
1.00001
1.00001
1.00001
1.00001
1.00001
1
1
1
0.999999
0.999999
1
1
1
1
0.999999
0.999992
0.999981
0.999965
0.999946
0.99993
0.999918
0.999914
0.999918
0.99993
0.999946
0.999965
0.999981
0.999992
0.999998
1
1
1
1
1
1
1
1.00001
1.00001
1.00002
1.00003
1.00003
1.00003
1.00003
1.00003
1.00002
1.00001
1.00001
1
1
0.999999
0.999999
1
1
1
1
1
0.999996
0.999991
0.999984
0.999977
0.999972
0.99997
0.999972
0.999977
0.999984
0.999991
0.999996
1
1
1
1
1
1
1
1
1.00001
1.00002
1.00004
1.00006
1.00007
1.00008
1.00008
1.00008
1.00007
1.00006
1.00004
1.00002
1.00001
1
1
0.999999
1
1
1
1
1
1
0.999999
0.999997
0.999995
0.999993
0.999993
0.999993
0.999995
0.999997
0.999999
1
1
1
1
1
1
1
1
1.00001
1.00003
1.00006
1.00009
1.00012
1.00014
1.00015
1.00015
1.00015
1.00014
1.00012
1.00009
1.00006
1.00003
1.00001
1
1
1
1
1
1
1
1
1
1
1
0.999999
0.999999
0.999999
1
1
1
1
1
1
1
1
1
1
1.00001
1.00003
1.00007
1.00011
1.00016
1.00019
1.0002
1.00019
1.00019
1.00019
1.0002
1.00019
1.00016
1.00011
1.00007
1.00003
1.00001
1
1
1
1
1
1
1
1
1
1
1
1
1
1
1
1
1
1
1
1
1
1
1.00001
1.00003
1.00007
1.00012
1.00018
1.00022
1.00021
1.00015
1.00008
1.00005
1.00008
1.00015
1.00021
1.00022
1.00018
1.00012
1.00007
1.00003
1.00001
1
1
1
1
1
1
1
1
1
1
1
1
1
1
1
1
1
1
1
1
1.00001
1.00002
1.00006
1.00011
1.00018
1.00023
1.00019
1.00004
0.999812
0.999602
0.999518
0.999602
0.999812
1.00004
1.00019
1.00023
1.00018
1.00011
1.00006
1.00003
1
1
1
1
1
1
1
1
1
1
1
1
1
1
1
1
1
1
1
1
1.00001
1.00004
1.00009
1.00016
1.00022
1.00019
0.999985
0.999573
0.99905
0.99861
0.99844
0.99861
0.99905
0.999573
0.999985
1.00019
1.00022
1.00016
1.00009
1.00005
1
1
1
1
1
1
1
1
1
1
1
1
1
1
1
1
1
1
1
1.00001
1.00002
1.00006
1.00012
1.00019
1.00021
1.00004
0.999573
0.998794
0.997887
0.997163
0.996889
0.997163
0.997887
0.998794
0.999573
1.00004
1.0002
1.00019
1.00012
1.00008
1
1
1
1
1
1
1
1
1
1
1
1
1
1
1
1
1
1
1
1.00001
1.00003
1.00007
1.00014
1.0002
1.00015
0.999812
0.99905
0.997887
0.996604
0.995615
0.995247
0.995615
0.996604
0.997887
0.99905
0.999811
1.00014
1.0002
1.00015
1.0001
1
1
1
1
1
1
1
1
1
1
1
1
1
1
1
1
1
1
1
1.00001
1.00003
1.00008
1.00015
1.00019
1.00008
0.999602
0.99861
0.997163
0.995615
0.994449
0.994021
0.994449
0.995615
0.997163
0.99861
0.999602
1.00008
1.00019
1.00016
1.00011
1
1
1
1
1
1
1
1
1
1
1
1
1
1
1
1
1
1
1
1.00001
1.00003
1.00008
1.00015
1.00019
1.00005
0.999518
0.99844
0.996889
0.995247
0.994021
0.993574
0.994021
0.995247
0.996888
0.998439
0.999518
1.00005
1.00019
1.00016
1.00012
1
1
1
1
1
1
1
1
1
1
1
1
1
1
1
1
1
1
1
1.00001
1.00003
1.00008
1.00015
1.00019
1.00008
0.999602
0.99861
0.997163
0.995615
0.994449
0.994021
0.994449
0.995615
0.997163
0.99861
0.999602
1.00008
1.00019
1.00016
1.00011
1
1
1
1
1
1
1
1
1
1
1
1
1
1
1
1
1
1
1
1.00001
1.00003
1.00007
1.00014
1.0002
1.00015
0.999812
0.99905
0.997887
0.996604
0.995615
0.995247
0.995615
0.996604
0.997887
0.99905
0.999811
1.00014
1.0002
1.00015
1.0001
1
1
1
1
1
1
1
1
1
1
1
1
1
1
1
1
1
1
1
1.00001
1.00002
1.00006
1.00012
1.00019
1.00021
1.00004
0.999573
0.998794
0.997887
0.997163
0.996888
0.997163
0.997887
0.998794
0.999573
1.00004
1.0002
1.00019
1.00012
1.00008
1
1
1
1
1
1
1
1
1
1
1
1
1
1
1
1
1
1
1
1
1.00001
1.00004
1.00009
1.00016
1.00022
1.00019
0.999985
0.999573
0.99905
0.99861
0.998439
0.99861
0.99905
0.999573
0.999985
1.00019
1.00022
1.00016
1.00009
1.00005
1
1
1
1
1
1
1
1
1
1
1
1
1
1
1
1
1
1
1
1
1.00001
1.00002
1.00006
1.00011
1.00018
1.00023
1.00019
1.00004
0.999811
0.999602
0.999518
0.999602
0.999811
1.00004
1.00019
1.00023
1.00018
1.00011
1.00006
1.00003
1
1
1
1
1
1
1
1
1
1
1
1
1
1
1
1
1
1
1
1
1
1.00001
1.00003
1.00007
1.00012
1.00018
1.00022
1.0002
1.00014
1.00008
1.00005
1.00008
1.00014
1.0002
1.00022
1.00018
1.00012
1.00007
1.00003
1.00001
1
1
1
1
1
1
1
1
1
1
1
1
1
1
1
1
1
1
1
0.999999
1
1
1.00001
1.00003
1.00007
1.00011
1.00016
1.00019
1.0002
1.00019
1.00019
1.00019
1.0002
1.00019
1.00016
1.00011
1.00007
1.00003
1.00001
1
1
1
1
1
1
1
1
1
1
1
1
1
1
1
1
1
1
1
1
0.999999
0.999999
1
1
1.00001
1.00003
1.00006
1.00009
1.00012
1.00015
1.00016
1.00016
1.00016
1.00015
1.00012
1.00009
1.00006
1.00003
1.00001
1
0.999999
1
1
1
1
1
1
1
1
1
1
1
1
1
1
1
1
1
1
1
1
0.999999
0.999999
1
1
1.00001
1.00003
1.00005
1.00008
1.0001
1.00011
1.00012
1.00011
1.0001
1.00008
1.00005
1.00003
1.00001
1
0.999999
0.999998
SCALARS C2 double 1
LOOKUP_TABLE default
2
2
1.99999
1.99999
1.99999
2
2.00002
2.00004
2.00007
2.00009
2.0001
2.00009
2.00007
2.00004
2.00002
2
1.99999
1.99999
1.99999
2
2
2
2
2
2
2
2
2
2
2
2
2
2
2
2
2
2
2
2
2
2
2
1.99999
2
2.00001
2.00003
2.00008
2.00014
2.00019
2.00023
2.00025
2.00023
2.00019
2.00014
2.00008
2.00003
2.00001
2
1.99999
2
2
2
2
2
2
2
2
2
2
2
2
2
2
2
2
2
2
2
2
2
1.99999
1.99999
2
2.00001
2.00005
2.00013
2.00024
2.00037
2.00049
2.00056
2.00059
2.00056
2.00049
2.00037
2.00024
2.00013
2.00005
2.00001
2
1.99999
2
2
2
2
2
2
2
2
2
2
2
2
2
2
2
2
2
2
2
2
1.99999
2
2.00001
2.00006
2.00017
2.00034
2.00056
2.00079
2.00096
2.00107
2.0011
2.00107
2.00096
2.00079
2.00056
2.00034
2.00017
2.00006
2.00001
2
2
2
2
2
2
2
2
2
2
2
2
2
2
2
2
2
2
2
2
2
1.99999
2.00001
2.00005
2.00017
2.00038
2.00069
2.00103
2.00131
2.00146
2.0015
2.0015
2.0015
2.00146
2.00131
2.00103
2.00069
2.00038
2.00017
2.00006
2.00001
2
2
2
2
2
2
2
2
2
2
2
2
2
2
2
2
2
2
2
2
2
2.00003
2.00013
2.00034
2.00069
2.00112
2.0015
2.00166
2.00154
2.00129
2.00116
2.00129
2.00154
2.00166
2.0015
2.00112
2.00069
2.00034
2.00013
2.00004
2
2
2
2
2
2
2
2
2
2
2
2
2
2
2
2
2
2
2
2
2.00002
2.00008
2.00024
2.00056
2.00103
2.0015
2.0017
2.00136
2.00053
1.99965
1.99926
1.99965
2.00053
2.00136
2.0017
2.0015
2.00103
2.00056
2.00024
2.00008
2.00002
2
2
2
2
2
2
2
2
2
2
2
2
2
2
2
2
2
2
2
2.00004
2.00014
2.00037
2.00079
2.00131
2.00166
2.00136
2.0001
1.99809
1.99621
1.99544
1.99621
1.99809
2.0001
2.00136
2.00166
2.00131
2.00079
2.00037
2.00014
2.00004
2
2
2
2
2
2
2
2
2
2
2
2
2
2
2
2
2
2
2
2.00007
2.00019
2.00049
2.00096
2.00146
2.00154
2.00053
1.99809
1.99469
1.99167
1.99046
1.99167
1.99469
1.99809
2.00053
2.00154
2.00146
2.00097
2.00049
2.00019
2.00006
2.00001
2
2
2
2
2
2
2
2
2
2
2
2
2
2
2
2
2
2
2.00009
2.00023
2.00056
2.00107
2.0015
2.00129
1.99965
1.99621
1.99167
1.98774
1.9862
1.98774
1.99167
1.99621
1.99965
2.00129
2.0015
2.00107
2.00057
2.00023
2.00007
2.00001
2
2
2
2
2
2
2
2
2
2
2
2
2
2
2
2
2
2
2.0001
2.00025
2.00059
2.0011
2.0015
2.00116
1.99926
1.99544
1.99046
1.9862
1.98452
1.9862
1.99046
1.99544
1.99926
2.00116
2.0015
2.0011
2.00059
2.00025
2.00008
2.00002
2
2
2
2
2
2
2
2
2
2
2
2
2
2
2
2
2
2
2.00009
2.00023
2.00056
2.00107
2.0015
2.00129
1.99965
1.99621
1.99167
1.98774
1.9862
1.98774
1.99167
1.99621
1.99965
2.00129
2.0015
2.00107
2.00057
2.00023
2.00007
2.00001
2
2
2
2
2
2
2
2
2
2
2
2
2
2
2
2
2
2
2.00007
2.00019
2.00049
2.00096
2.00146
2.00154
2.00053
1.99809
1.99469
1.99167
1.99046
1.99167
1.99469
1.99809
2.00053
2.00154
2.00146
2.00097
2.00049
2.00019
2.00006
2.00001
2
2
2
2
2
2
2
2
2
2
2
2
2
2
2
2
2
2
2.00004
2.00014
2.00037
2.00079
2.00131
2.00166
2.00136
2.0001
1.99809
1.99621
1.99544
1.99621
1.99809
2.0001
2.00136
2.00166
2.00131
2.00079
2.00037
2.00014
2.00004
2
2
2
2
2
2
2
2
2
2
2
2
2
2
2
2
2
2
2
2.00002
2.00008
2.00024
2.00056
2.00103
2.0015
2.0017
2.00136
2.00053
1.99965
1.99926
1.99965
2.00053
2.00136
2.0017
2.0015
2.00103
2.00056
2.00024
2.00008
2.00002
2
2
2
2
2
2
2
2
2
2
2
2
2
2
2
2
2
2
2
2
2.00003
2.00013
2.00034
2.00069
2.00112
2.0015
2.00166
2.00154
2.00129
2.00116
2.00129
2.00154
2.00166
2.0015
2.00112
2.00069
2.00034
2.00013
2.00004
2
2
2
2
2
2
2
2
2
2
2
2
2
2
2
2
2
2
2
2
1.99999
2.00001
2.00005
2.00017
2.00038
2.00069
2.00103
2.00131
2.00146
2.0015
2.0015
2.0015
2.00146
2.00131
2.00103
2.00069
2.00038
2.00017
2.00006
2.00001
2
2
2
2
2
2
2
2
2
2
2
2
2
2
2
2
2
2
2
2
1.99999
2
2.00001
2.00006
2.00017
2.00034
2.00056
2.00079
2.00097
2.00107
2.0011
2.00107
2.00097
2.00079
2.00056
2.00034
2.00017
2.00006
2.00001
2
2
2
2
2
2
2
2
2
2
2
2
2
2
2
2
2
2
2
2
2
1.99999
1.99999
2
2.00001
2.00006
2.00013
2.00024
2.00037
2.00049
2.00057
2.00059
2.00057
2.00049
2.00037
2.00024
2.00013
2.00006
2.00001
2
1.99999
2
2
2
2
2
2
2
2
2
2
2
2
2
2
2
2
2
2
2
2
2
2
1.99999
2
2.00001
2.00004
2.00008
2.00014
2.00019
2.00023
2.00025
2.00023
2.00019
2.00014
2.00008
2.00004
2.00001
2
1.99999
2
2
2
2
2
2
2
2
2
2
2
2
2
2
2
2
2
2
2
2
2
2
2
2
2
2
2
2.00002
2.00004
2.00006
2.00007
2.00008
2.00007
2.00006
2.00004
2.00002
2
2
2
2
2
2
2
2
2
2
2
2
1.99999
1.99998
1.99998
1.99997
1.99998
1.99998
1.99999
2
2
2
2
2
2
2
2
2
2
2
2
2
2
2.00001
2.00001
2.00002
2.00001
2.00001
2
2
2
2
2
2
2
2
2
2
2
2
1.99999
1.99997
1.99995
1.99993
1.99991
1.99991
1.99991
1.99993
1.99995
1.99997
1.99999
2
2
2
2
2
2
2
2
2
2
2
2
2
2
2
2
2
2
2
2
2
2
2
2
2
2
2
2
1.99998
1.99995
1.99991
1.99985
1.9998
1.99976
1.99975
1.99976
1.9998
1.99985
1.99991
1.99995
1.99998
2
2
2
2
2
2
2
2
2
2
2
2
2
2
2
2
2
2
2
2
2
2
2
2
2
2
1.99998
1.99994
1.99987
1.99977
1.99966
1.99957
1.99951
1.99949
1.99951
1.99957
1.99966
1.99977
1.99987
1.99994
1.99998
2
2.00001
2
2
2
2
2
2
2
2
2
2
2
2
2
2
2
2
2
2
2
2
2
2
1.99998
1.99994
1.99986
1.99972
1.99954
1.99938
1.99926
1.99919
1.99918
1.99919
1.99926
1.99938
1.99954
1.99972
1.99986
1.99994
1.99999
2
2
2
2
2
2
2
2
2
2
2
2
2
2
2
2
2
2
2
2
2
2
1.99999
1.99995
1.99987
1.99972
1.9995
1.99926
1.99909
1.99902
1.99903
1.99905
1.99903
1.99902
1.99909
1.99926
1.9995
1.99972
1.99987
1.99996
1.99999
2
2
2
2
2
2
2
2
2
2
2
2
2
2
2
2
2
2
2
2
2
1.99997
1.99991
1.99977
1.99954
1.99926
1.99903
1.99897
1.99912
1.99935
1.99946
1.99935
1.99912
1.99897
1.99903
1.99926
1.99955
1.99977
1.99991
1.99997
2
2
2
2
2
2
2
2
2
2
2
2
2
2
2
2
2
2
2
2
1.99999
1.99995
1.99985
1.99966
1.99938
1.99909
1.99897
1.99921
1.99978
2.00039
2.00065
2.00039
1.99978
1.99921
1.99897
1.99909
1.99938
1.99966
1.99985
1.99994
2
2
2
2
2
2
2
2
2
2
2
2
2
2
2
2
2
2
2
2
1.99998
1.99993
1.9998
1.99957
1.99926
1.99902
1.99912
1.99978
2.00089
2.00196
2.0024
2.00196
2.00089
1.99978
1.99912
1.99902
1.99926
1.99957
1.9998
1.99991
2
2
2
2
2
2
2
2
2
2
2
2
2
2
2
2
2
2
2
2
1.99998
1.99991
1.99976
1.99951
1.99919
1.99903
1.99935
2.00039
2.00196
2.00342
2.00401
2.00342
2.00196
2.00039
1.99935
1.99903
1.9992
1.99951
1.99976
1.99989
2
2
2
2
2
2
2
2
2
2
2
2
2
2
2
2
2
2
2
2
1.99997
1.99991
1.99975
1.99949
1.99918
1.99905
1.99946
2.00065
2.0024
2.00401
2.00467
2.00401
2.0024
2.00065
1.99946
1.99905
1.99918
1.99949
1.99975
1.99988
2
2
2
2
2
2
2
2
2
2
2
2
2
2
2
2
2
2
2
2
1.99998
1.99991
1.99976
1.99951
1.99919
1.99903
1.99935
2.00039
2.00196
2.00342
2.00401
2.00342
2.00196
2.00039
1.99935
1.99903
1.9992
1.99951
1.99976
1.99989
2
2
2
2
2
2
2
2
2
2
2
2
2
2
2
2
2
2
2
2
1.99998
1.99993
1.9998
1.99957
1.99926
1.99902
1.99912
1.99978
2.00089
2.00196
2.0024
2.00196
2.00089
1.99978
1.99912
1.99902
1.99926
1.99957
1.9998
1.99991
2
2
2
2
2
2
2
2
2
2
2
2
2
2
2
2
2
2
2
2
1.99999
1.99995
1.99985
1.99966
1.99938
1.99909
1.99897
1.99921
1.99978
2.00039
2.00065
2.00039
1.99978
1.99921
1.99897
1.99909
1.99938
1.99966
1.99985
1.99994
2
2
2
2
2
2
2
2
2
2
2
2
2
2
2
2
2
2
2
2
2
1.99997
1.99991
1.99977
1.99954
1.99926
1.99903
1.99897
1.99912
1.99935
1.99946
1.99935
1.99912
1.99897
1.99903
1.99926
1.99955
1.99977
1.99991
1.99997
2
2
2
2
2
2
2
2
2
2
2
2
2
2
2
2
2
2
2
2
2
1.99999
1.99995
1.99987
1.99972
1.9995
1.99926
1.99909
1.99902
1.99903
1.99905
1.99903
1.99902
1.99909
1.99926
1.9995
1.99972
1.99987
1.99996
1.99999
2
2
2
2
2
2
2
2
2
2
2
2
2
2
2
2
2
2
2
2
2
2
1.99998
1.99994
1.99986
1.99972
1.99955
1.99938
1.99926
1.9992
1.99918
1.9992
1.99926
1.99938
1.99955
1.99972
1.99986
1.99994
1.99999
2
2
2
2
2
2
2
2
2
2
2
2
2
2
2
2
2
2
2
2
2
2
2
2
1.99998
1.99994
1.99987
1.99977
1.99966
1.99957
1.99951
1.99949
1.99951
1.99957
1.99966
1.99977
1.99987
1.99994
1.99998
2
2.00001
2
2
2
2
2
2
2
2
2
2
2
2
2
2
2
2
2
2
2
2
2
2
2
2
1.99999
1.99996
1.99991
1.99985
1.9998
1.99976
1.99975
1.99976
1.9998
1.99985
1.99991
1.99996
1.99999
2
2
2.00001
2
2
2
2
2
2
2
2
2
2
2
2
2
2
2
2
2
2
2
2
2
2
2
2.00001
2
1.99999
1.99997
1.99994
1.99991
1.99989
1.99988
1.99989
1.99991
1.99994
1.99997
1.99999
2
2.00001
2.00001
2
