# vtk DataFile Version 3.0
Brusselator Concentration Output
ASCII
DATASET STRUCTURED_POINTS
DIMENSIONS 40 40 1
ORIGIN 0.0 0.0 0.0
SPACING 0.005 0.005 1.0
POINT_DATA 1600
SCALARS C1 double 1
LOOKUP_TABLE default
1
1
1
1
1
1
1.00001
1.00002
1.00003
1.00005
1.00005
1.00005
1.00003
1.00002
1.00001
1
1
1
1
1
1
1
1
1
1
1
1
1
1
1
1
1
1
1
1
1
1
1
1
1
1
1
1
1
1
1.00001
1.00003
1.00007
1.00013
1.00018
1.0002
1.00018
1.00013
1.00007
1.00003
1.00001
1
1
1
1
1
1
1
1
1
1
1
1
1
1
1
1
1
1
1
1
1
1
1
1
1
1
1
1.00001
1.00002
1.00005
1.00014
1.00029
1.0005
1.0007
1.00077
1.0007
1.0005
1.00029
1.00014
1.00005
1.00002
1.00001
1
1
1
1
1
1
1
1
1
1
1
1
1
1
1
1
1
1
1
1
1
1
1
1
1.00001
1.00002
1.00007
1.0002
1.00051
1.00105
1.00175
1.0023
1.00249
1.0023
1.00175
1.00105
1.00051
1.0002
1.00007
1.00002
1.00001
1
1
1
1
1
1
1
1
1
1
1
1
1
1
1
1
1
1
1
1
1
1
1
1.00002
1.00007
1.00023
1.00067
1.00163
1.00318
1.00489
1.00592
1.00612
1.00592
1.00489
1.00318
1.00163
1.00067
1.00023
1.00007
1.00002
1
1
1
1
1
1
1
1
1
1
1
1
1
1
1
1
1
1
1
1
1
1
1.00001
1.00005
1.0002
1.00067
1.00188
1.00427
1.00757
1.00991
1.00962
1.00867
1.00962
1.00991
1.00757
1.00427
1.00188
1.00067
1.0002
1.00005
1.00001
1
1
1
1
1
1
1
1
1
1
1
1
1
1
1
1
1
1
1
1
1.00001
1.00003
1.00014
1.00051
1.00163
1.00427
1.00874
1.01252
1.00989
0.999931
0.993882
0.999931
1.00989
1.01252
1.00874
1.00427
1.00163
1.00051
1.00014
1.00003
1.00001
1
1
1
1
1
1
1
1
1
1
1
1
1
1
1
1
1
1
1
1.00002
1.00007
1.00029
1.00105
1.00318
1.00757
1.01252
1.00905
0.985288
0.9491
0.932145
0.9491
0.985288
1.00905
1.01252
1.00757
1.00318
1.00105
1.00029
1.00007
1.00001
1
1
1
1
1
1
1
1
1
1
1
1
1
1
1
1
1
1
1
1.00003
1.00013
1.0005
1.00175
1.00489
1.00991
1.00989
0.985288
0.922264
0.849631
0.820726
0.849631
0.922264
0.985288
1.00989
1.00991
1.00489
1.00175
1.0005
1.00012
1.00003
1.00001
1
1
1
1
1
1
1
1
1
1
1
1
1
1
1
1
1
1
1.00005
1.00018
1.0007
1.0023
1.00592
1.00962
0.999931
0.9491
0.849631
0.751083
0.715389
0.751083
0.849631
0.9491
0.999931
1.00962
1.00592
1.0023
1.0007
1.00018
1.00004
1.00001
1
1
1
1
1
1
1
1
1
1
1
1
1
1
1
1
1
1
1.00005
1.0002
1.00077
1.00249
1.00612
1.00867
0.993882
0.932145
0.820726
0.715389
0.677313
0.715389
0.820726
0.932145
0.993882
1.00867
1.00612
1.00249
1.00077
1.0002
1.00004
1.00001
1
1
1
1
1
1
1
1
1
1
1
1
1
1
1
1
1
1
1.00005
1.00018
1.0007
1.0023
1.00592
1.00962
0.999931
0.9491
0.849631
0.751083
0.715389
0.751083
0.849631
0.9491
0.999931
1.00962
1.00592
1.0023
1.0007
1.00018
1.00004
1.00001
1
1
1
1
1
1
1
1
1
1
1
1
1
1
1
1
1
1
1.00003
1.00013
1.0005
1.00175
1.00489
1.00991
1.00989
0.985288
0.922264
0.849631
0.820726
0.849631
0.922264
0.985288
1.00989
1.00991
1.00489
1.00175
1.0005
1.00012
1.00003
1.00001
1
1
1
1
1
1
1
1
1
1
1
1
1
1
1
1
1
1
1.00002
1.00007
1.00029
1.00105
1.00318
1.00757
1.01252
1.00905
0.985288
0.9491
0.932145
0.9491
0.985288
1.00905
1.01252
1.00757
1.00318
1.00105
1.00029
1.00007
1.00001
1
1
1
1
1
1
1
1
1
1
1
1
1
1
1
1
1
1
1
1.00001
1.00003
1.00014
1.00051
1.00163
1.00427
1.00874
1.01252
1.00989
0.999931
0.993882
0.999931
1.00989
1.01252
1.00874
1.00427
1.00163
1.00051
1.00014
1.00003
1.00001
1
1
1
1
1
1
1
1
1
1
1
1
1
1
1
1
1
1
1
1
1.00001
1.00005
1.0002
1.00067
1.00188
1.00427
1.00757
1.00991
1.00962
1.00867
1.00962
1.00991
1.00757
1.00427
1.00188
1.00067
1.0002
1.00005
1.00001
1
1
1
1
1
1
1
1
1
1
1
1
1
1
1
1
1
1
1
1
1
1
1.00002
1.00007
1.00023
1.00067
1.00163
1.00318
1.00489
1.00592
1.00612
1.00592
1.00489
1.00318
1.00163
1.00067
1.00023
1.00007
1.00002
1
1
1
1
1
1
1
1
1
1
1
1
1
1
1
1
1
1
1
1
1
1
1
1.00001
1.00002
1.00007
1.0002
1.00051
1.00105
1.00175
1.0023
1.00249
1.0023
1.00175
1.00105
1.00051
1.0002
1.00007
1.00002
1.00001
1
1
1
1
1
1
1
1
1
1
1
1
1
1
1
1
1
1
1
1
1
1
1
1
1.00001
1.00002
1.00005
1.00014
1.00029
1.0005
1.0007
1.00077
1.0007
1.0005
1.00029
1.00014
1.00005
1.00002
1.00001
1
1
1
1
1
1
1
1
1
1
1
1
1
1
1
1
1
1
1
1
1
1
1
1
1
1
1
1.00001
1.00003
1.00007
1.00012
1.00018
1.0002
1.00018
1.00012
1.00007
1.00003
1.00001
1
1
1
1
1
1
1
1
1
1
1
0.999999
0.999998
0.999998
0.999997
0.999998
0.999998
0.999999
1
1
1
1
1
1
1
1
1
1
1
1
1.00001
1.00001
1.00003
1.00004
1.00004
1.00004
1.00003
1.00001
1.00001
1
1
1
1
1
1
1
1
1
1
0.999999
0.999998
0.999996
0.999992
0.999989
0.999987
0.999989
0.999992
0.999996
0.999998
0.999999
1
1
1
1
1
1
1
1
1
1
1
1
1.00001
1.00001
1.00001
1.00001
1.00001
1
1
1
1
1
1
1
1
1
1
1
0.999999
0.999996
0.999991
0.99998
0.999964
0.999948
0.999942
0.999948
0.999964
0.99998
0.999991
0.999996
0.999999
1
1
1
1
1
1
1
1
1
1
1
1
1
1
1
1
1
1
1
1
1
1
1
1
1
1
0.999999
0.999995
0.999985
0.99996
0.999915
0.999851
0.99979
0.999766
0.99979
0.999851
0.999915
0.99996
0.999985
0.999995
0.999999
1
1
1
1
1
1
1
1
1
1
1
1
1
1
1
1
1
1
1
1
1
1
1
1
0.999999
0.999994
0.99998
0.999941
0.999851
0.999687
0.999466
0.999272
0.999199
0.999272
0.999466
0.999687
0.999851
0.999941
0.99998
0.999994
0.999999
1
1
1
1
1
1
1
1
1
1
1
1
1
1
1
1
1
1
1
1
1
1
0.999999
0.999995
0.99998
0.999933
0.999804
0.999516
0.999018
0.998399
0.99792
0.997772
0.99792
0.998399
0.999018
0.999516
0.999804
0.999933
0.99998
0.999995
0.999999
1
1
1
1
1
1
1
1
1
1
1
1
1
1
1
1
1
1
1
1
0.999999
0.999996
0.999985
0.999941
0.999804
0.999441
0.998673
0.997453
0.996169
0.995501
0.995473
0.995501
0.996169
0.997453
0.998673
0.999441
0.999804
0.999941
0.999984
0.999996
1
1
1
1
1
1
1
1
1
1
1
1
1
1
1
1
1
1
1
1
0.999998
0.999991
0.99996
0.999851
0.999516
0.998673
0.997031
0.99484
0.993491
0.99439
0.995746
0.99439
0.993491
0.99484
0.997031
0.998673
0.999516
0.999851
0.99996
0.999989
1
1
1
1
1
1
1
1
1
1
1
1
1
1
1
1
1
1
1
0.999999
0.999996
0.99998
0.999915
0.999687
0.999018
0.997453
0.99484
0.992719
0.995222
1.00463
1.01172
1.00463
0.995222
0.992719
0.99484
0.997453
0.999018
0.999687
0.999914
0.999975
1
1
1
1
1
1
1
1
1
1
1
1
1
1
1
1
1
1
1
0.999998
0.999992
0.999964
0.999851
0.999466
0.998399
0.996169
0.993491
0.995222
1.01147
1.04524
1.06736
1.04524
1.01147
0.995222
0.993491
0.996169
0.998399
0.999466
0.999849
0.999956
1
1
1
1
1
1
1
1
1
1
1
1
1
1
1
1
1
1
1
0.999998
0.999989
0.999948
0.99979
0.999272
0.99792
0.995501
0.99439
1.00463
1.04524
1.11877
1.1625
1.11877
1.04524
1.00463
0.99439
0.995501
0.99792
0.999272
0.999788
0.999937
1
1
1
1
1
1
1
1
1
1
1
1
1
1
1
1
1
1
1
0.999997
0.999987
0.999942
0.999766
0.999199
0.997772
0.995473
0.995746
1.01172
1.06736
1.1625
1.21373
1.1625
1.06736
1.01172
0.995746
0.995473
0.997772
0.999199
0.999763
0.999929
1
1
1
1
1
1
1
1
1
1
1
1
1
1
1
1
1
1
1
0.999998
0.999989
0.999948
0.99979
0.999272
0.99792
0.995501
0.99439
1.00463
1.04524
1.11877
1.1625
1.11877
1.04524
1.00463
0.99439
0.995501
0.99792
0.999272
0.999788
0.999937
1
1
1
1
1
1
1
1
1
1
1
1
1
1
1
1
1
1
1
0.999998
0.999992
0.999964
0.999851
0.999466
0.998399
0.996169
0.993491
0.995222
1.01147
1.04524
1.06736
1.04524
1.01147
0.995222
0.993491
0.996169
0.998399
0.999466
0.999849
0.999956
1
1
1
1
1
1
1
1
1
1
1
1
1
1
1
1
1
1
1
0.999999
0.999996
0.99998
0.999915
0.999687
0.999018
0.997453
0.99484
0.992719
0.995222
1.00463
1.01172
1.00463
0.995222
0.992719
0.99484
0.997453
0.999018
0.999687
0.999914
0.999975
1
1
1
1
1
1
1
1
1
1
1
1
1
1
1
1
1
1
1
1
0.999998
0.999991
0.99996
0.999851
0.999516
0.998673
0.997031
0.99484
0.993491
0.99439
0.995746
0.99439
0.993491
0.99484
0.997031
0.998673
0.999516
0.999851
0.99996
0.999989
1
1
1
1
1
1
1
1
1
1
1
1
1
1
1
1
1
1
1
1
0.999999
0.999996
0.999985
0.999941
0.999804
0.999441
0.998673
0.997453
0.996169
0.995501
0.995473
0.995501
0.996169
0.997453
0.998673
0.999441
0.999804
0.999941
0.999984
0.999996
1
1
1
1
1
1
1
1
1
1
1
1
1
1
1
1
1
1
1
1
1
0.999999
0.999995
0.99998
0.999933
0.999804
0.999516
0.999018
0.998399
0.99792
0.997772
0.99792
0.998399
0.999018
0.999516
0.999804
0.999933
0.99998
0.999995
0.999999
1
1
1
1
1
1
1
1
1
1
1
1
1
1
1
1
1
1
1
1
1
1
0.999999
0.999994
0.99998
0.999941
0.999851
0.999687
0.999466
0.999272
0.999199
0.999272
0.999466
0.999687
0.999851
0.999941
0.99998
0.999994
0.999999
1
1
1
1
1
1
1
1
1
1
1
1
1
1
1
1
1
1
1
1
1
1
1
1
0.999999
0.999995
0.999984
0.99996
0.999914
0.999849
0.999788
0.999763
0.999788
0.999849
0.999914
0.99996
0.999984
0.999995
0.999999
1
1
1
1
1
1
1
1
1
1
1
1
1
1
1
1
1
1
1
1
1
1
1
1
1
1
0.999999
0.999996
0.999989
0.999975
0.999956
0.999937
0.999929
0.999937
0.999956
0.999975
0.999989
0.999996
0.999999
1
1
1
SCALARS C2 double 1
LOOKUP_TABLE default
3
3
3
3
3
3
2.99999
2.99998
2.99997
2.99996
2.99995
2.99996
2.99997
2.99998
2.99999
3
3
3
3
3
3
3
3
3
3
3
3
3
3
3
3
3
3
3
3
3
3
3
3
3
3
3
3
3
3
2.99999
2.99997
2.99993
2.99988
2.99982
2.99979
2.99982
2.99988
2.99993
2.99997
2.99999
3
3
3
3
3
3
3
3
3
3
3
3
3
3
3
3
3
3
3
3
3
3
3
3
3
3
3
3
2.99999
2.99995
2.99987
2.9997
2.99945
2.9992
2.99909
2.9992
2.99945
2.9997
2.99987
2.99995
2.99999
3
3
3
3
3
3
3
3
3
3
3
3
3
3
3
3
3
3
3
3
3
3
3
3
3
3
2.99998
2.99994
2.99981
2.99947
2.99882
2.99786
2.99695
2.99659
2.99695
2.99786
2.99882
2.99947
2.99981
2.99994
2.99998
3
3
3
3
3
3
3
3
3
3
3
3
3
3
3
3
3
3
3
3
3
3
3
3
2.99999
2.99994
2.99978
2.9993
2.99814
2.99592
2.9929
2.99033
2.98946
2.99033
2.9929
2.99592
2.99814
2.9993
2.99978
2.99994
2.99999
3
3
3
3
3
3
3
3
3
3
3
3
3
3
3
3
3
3
3
3
3
3
2.99999
2.99995
2.99981
2.9993
2.99783
2.9944
2.98834
2.9811
2.97642
2.9756
2.97642
2.9811
2.98834
2.9944
2.99783
2.9993
2.99981
2.99995
2.99999
3
3
3
3
3
3
3
3
3
3
3
3
3
3
3
3
3
3
3
3
2.99999
2.99997
2.99987
2.99947
2.99814
2.9944
2.98626
2.97379
2.96332
2.96302
2.96715
2.96302
2.96332
2.97379
2.98626
2.9944
2.99814
2.99947
2.99987
2.99997
2.99999
3
3
3
3
3
3
3
3
3
3
3
3
3
3
3
3
3
3
3
2.99998
2.99993
2.9997
2.99882
2.99592
2.98834
2.97379
2.95786
2.95943
2.98831
3.01124
2.98831
2.95943
2.95786
2.97379
2.98834
2.99592
2.99882
2.9997
2.99993
2.99999
3
3
3
3
3
3
3
3
3
3
3
3
3
3
3
3
3
3
3
2.99997
2.99988
2.99945
2.99786
2.9929
2.9811
2.96332
2.95943
3.00621
3.10157
3.16207
3.10157
3.00621
2.95943
2.96332
2.9811
2.9929
2.99786
2.99945
2.99988
2.99998
3
3
3
3
3
3
3
3
3
3
3
3
3
3
3
3
3
3
3
2.99996
2.99982
2.9992
2.99695
2.99033
2.97642
2.96302
2.98831
3.10157
3.27832
3.38484
3.27832
3.10157
2.98831
2.96302
2.97642
2.99033
2.99695
2.9992
2.99982
2.99996
2.99999
3
3
3
3
3
3
3
3
3
3
3
3
3
3
3
3
3
3
2.99995
2.99979
2.99909
2.99659
2.98946
2.9756
2.96715
3.01124
3.16207
3.38484
3.51554
3.38484
3.16207
3.01124
2.96715
2.9756
2.98946
2.99659
2.99909
2.99979
2.99996
2.99999
3
3
3
3
3
3
3
3
3
3
3
3
3
3
3
3
3
3
2.99996
2.99982
2.9992
2.99695
2.99033
2.97642
2.96302
2.98831
3.10157
3.27832
3.38484
3.27832
3.10157
2.98831
2.96302
2.97642
2.99033
2.99695
2.9992
2.99982
2.99996
2.99999
3
3
3
3
3
3
3
3
3
3
3
3
3
3
3
3
3
3
2.99997
2.99988
2.99945
2.99786
2.9929
2.9811
2.96332
2.95943
3.00621
3.10157
3.16207
3.10157
3.00621
2.95943
2.96332
2.9811
2.9929
2.99786
2.99945
2.99988
2.99998
3
3
3
3
3
3
3
3
3
3
3
3
3
3
3
3
3
3
3
2.99998
2.99993
2.9997
2.99882
2.99592
2.98834
2.97379
2.95786
2.95943
2.98831
3.01124
2.98831
2.95943
2.95786
2.97379
2.98834
2.99592
2.99882
2.9997
2.99993
2.99999
3
3
3
3
3
3
3
3
3
3
3
3
3
3
3
3
3
3
3
2.99999
2.99997
2.99987
2.99947
2.99814
2.9944
2.98626
2.97379
2.96332
2.96302
2.96715
2.96302
2.96332
2.97379
2.98626
2.9944
2.99814
2.99947
2.99987
2.99997
2.99999
3
3
3
3
3
3
3
3
3
3
3
3
3
3
3
3
3
3
3
3
2.99999
2.99995
2.99981
2.9993
2.99783
2.9944
2.98834
2.9811
2.97642
2.9756
2.97642
2.9811
2.98834
2.9944
2.99783
2.9993
2.99981
2.99995
2.99999
3
3
3
3
3
3
3
3
3
3
3
3
3
3
3
3
3
3
3
3
3
3
2.99999
2.99994
2.99978
2.9993
2.99814
2.99592
2.9929
2.99033
2.98946
2.99033
2.9929
2.99592
2.99814
2.9993
2.99978
2.99994
2.99999
3
3
3
3
3
3
3
3
3
3
3
3
3
3
3
3
3
3
3
3
3
3
3
3
2.99998
2.99994
2.99981
2.99947
2.99882
2.99786
2.99695
2.99659
2.99695
2.99786
2.99882
2.99947
2.99981
2.99994
2.99998
3
3
3
3
3
3
3
3
3
3
3
3
3
3
3
3
3
3
3
3
3
3
3
3
3
3
2.99999
2.99995
2.99987
2.9997
2.99945
2.9992
2.99909
2.9992
2.99945
2.9997
2.99987
2.99995
2.99999
3
3
3
3
3
3
3
3
3
3
3
3
3
3
3
3
3
3
3
3
3
3
3
3
3
3
3
3
2.99999
2.99997
2.99993
2.99988
2.99982
2.99979
2.99982
2.99988
2.99993
2.99997
2.99999
3
3
3
3
3
3
3
3
3
3
3
3
3
3
3
3
3
3
3
3
3
3
3
3
3
3
3
3
3
3
2.99999
2.99999
2.99998
2.99996
2.99996
2.99996
2.99998
2.99999
2.99999
3
3
3
3
3
3
3
3
3
3
3
3
3
3.00001
3.00001
3.00001
3.00001
3.00001
3
3
3
3
3
3
3
3
3
3
3
3
3
3
3
3
2.99999
2.99999
2.99999
3
3
3
3
3
3
3
3
3
3
3
3
3
3
3.00001
3.00002
3.00004
3.00005
3.00006
3.00005
3.00004
3.00002
3.00001
3
3
3
3
3
3
3
3
3
3
3
3
3
3
3
3
3
3
3
3
3
3
3
3
3
3
3
3
3
3
3.00001
3.00004
3.00009
3.00016
3.00024
3.00027
3.00024
3.00016
3.00009
3.00004
3.00001
3
3
3
3
3
3
3
3
3
3
3
3
3
3
3
3
3
3
3
3
3
3
3
3
3
3
3
3
3.00002
3.00006
3.00015
3.00035
3.00064
3.00093
3.00105
3.00093
3.00064
3.00035
3.00015
3.00006
3.00002
3
3
3
3
3
3
3
3
3
3
3
3
3
3
3
3
3
3
3
3
3
3
3
3
3
3
3.00002
3.00006
3.0002
3.00055
3.00122
3.00219
3.00311
3.00347
3.00311
3.00219
3.00122
3.00055
3.0002
3.00006
3.00002
3
3
3
3
3
3
3
3
3
3
3
3
3
3
3
3
3
3
3
3
3
3
3
3
3.00001
3.00006
3.0002
3.00063
3.00167
3.00363
3.00632
3.0086
3.00934
3.0086
3.00632
3.00363
3.00167
3.00063
3.0002
3.00006
3.00001
3
3
3
3
3
3
3
3
3
3
3
3
3
3
3
3
3
3
3
3
3
3
3.00001
3.00004
3.00015
3.00055
3.00167
3.0043
3.00896
3.01464
3.01831
3.01868
3.01831
3.01464
3.00896
3.0043
3.00167
3.00055
3.00015
3.00004
3.00001
3
3
3
3
3
3
3
3
3
3
3
3
3
3
3
3
3
3
3
3
3
3.00002
3.00009
3.00035
3.00122
3.00363
3.00896
3.01743
3.02511
3.02487
3.01981
3.02487
3.02511
3.01743
3.00896
3.00363
3.00122
3.00035
3.00009
3.00002
3
3
3
3
3
3
3
3
3
3
3
3
3
3
3
3
3
3
3
3
3.00001
3.00004
3.00016
3.00064
3.00219
3.00632
3.01464
3.02511
3.02577
3.00093
2.97356
3.00093
3.02577
3.02511
3.01464
3.00632
3.00219
3.00064
3.00016
3.00004
3
3
3
3
3
3
3
3
3
3
3
3
3
3
3
3
3
3
3
3
3.00001
3.00005
3.00024
3.00093
3.00311
3.0086
3.01831
3.02487
3.00093
2.91588
2.83905
2.91588
3.00093
3.02487
3.01831
3.0086
3.00311
3.00093
3.00024
3.00006
3
3
3
3
3
3
3
3
3
3
3
3
3
3
3
3
3
3
3
3
3.00001
3.00006
3.00027
3.00105
3.00347
3.00934
3.01868
3.01981
2.97356
2.83905
2.72482
2.83905
2.97356
3.01981
3.01868
3.00934
3.00347
3.00105
3.00027
3.00007
3
3
3
3
3
3
3
3
3
3
3
3
3
3
3
3
3
3
3
3
3.00001
3.00005
3.00024
3.00093
3.00311
3.0086
3.01831
3.02487
3.00093
2.91588
2.83905
2.91588
3.00093
3.02487
3.01831
3.0086
3.00311
3.00093
3.00024
3.00006
3
3
3
3
3
3
3
3
3
3
3
3
3
3
3
3
3
3
3
3
3.00001
3.00004
3.00016
3.00064
3.00219
3.00632
3.01464
3.02511
3.02577
3.00093
2.97356
3.00093
3.02577
3.02511
3.01464
3.00632
3.00219
3.00064
3.00016
3.00004
3
3
3
3
3
3
3
3
3
3
3
3
3
3
3
3
3
3
3
3
3
3.00002
3.00009
3.00035
3.00122
3.00363
3.00896
3.01743
3.02511
3.02487
3.01981
3.02487
3.02511
3.01743
3.00896
3.00363
3.00122
3.00035
3.00009
3.00002
3
3
3
3
3
3
3
3
3
3
3
3
3
3
3
3
3
3
3
3
3
3.00001
3.00004
3.00015
3.00055
3.00167
3.0043
3.00896
3.01464
3.01831
3.01868
3.01831
3.01464
3.00896
3.0043
3.00167
3.00055
3.00015
3.00004
3.00001
3
3
3
3
3
3
3
3
3
3
3
3
3
3
3
3
3
3
3
3
3
3
3.00001
3.00006
3.0002
3.00063
3.00167
3.00363
3.00632
3.0086
3.00934
3.0086
3.00632
3.00363
3.00167
3.00063
3.0002
3.00006
3.00001
3
3
3
3
3
3
3
3
3
3
3
3
3
3
3
3
3
3
3
3
3
3
3
3
3.00002
3.00006
3.0002
3.00055
3.00122
3.00219
3.00311
3.00347
3.00311
3.00219
3.00122
3.00055
3.0002
3.00006
3.00002
3
3
3
3
3
3
3
3
3
3
3
3
3
3
3
3
3
3
3
3
3
3
3
3
3
3
3.00002
3.00006
3.00015
3.00035
3.00064
3.00093
3.00105
3.00093
3.00064
3.00035
3.00015
3.00006
3.00002
3
3
3
3
3
3
3
3
3
3
3
3
3
3
3
3
3
3
3
3
3
3
3
3
3
3
3
3
3.00001
3.00004
3.00009
3.00016
3.00024
3.00027
3.00024
3.00016
3.00009
3.00004
3.00001
3
3
3
3
3
3
3
3
3
3
3
3
3
3
3
3
3
3
3
3
3
3
3
3
3
3
3
3
3
3
3.00001
3.00002
3.00004
3.00006
3.00007
3.00006
3.00004
3.00002
3.00001
3
3
3
3
3
