# vtk DataFile Version 3.0
Brusselator Concentration Output
ASCII
DATASET STRUCTURED_POINTS
DIMENSIONS 40 40 1
ORIGIN 0.0 0.0 0.0
SPACING 0.005 0.005 1.0
POINT_DATA 1600
SCALARS C1 double 1
LOOKUP_TABLE default
1
1
1
1
1
1
1
1
1.00001
1.00001
1.00002
1.00001
1.00001
1
1
1
1
1
1
1
1
1
1
1
1
1
1
1
1
1
1
1
1
1
1
1
1
1
1
1
1
1
1
1
1
1
1.00001
1.00002
1.00004
1.00006
1.00007
1.00006
1.00004
1.00002
1.00001
1
1
1
1
1
1
1
1
1
1
1
1
1
1
1
1
1
1
1
1
1
1
1
1
1
1
1
1
1
1
1.00001
1.00004
1.0001
1.0002
1.0003
1.00034
1.0003
1.0002
1.0001
1.00004
1.00001
1
1
1
1
1
1
1
1
1
1
1
1
1
1
1
1
1
1
1
1
1
1
1
1
1
1
1
1
1.00002
1.00006
1.00018
1.00044
1.00084
1.00124
1.0014
1.00124
1.00084
1.00044
1.00018
1.00006
1.00002
1
1
1
1
1
1
1
1
1
1
1
1
1
1
1
1
1
1
1
1
1
1
1
1
1
1
1.00002
1.00007
1.00024
1.0007
1.00164
1.00302
1.00426
1.00468
1.00426
1.00302
1.00164
1.0007
1.00024
1.00007
1.00002
1
1
1
1
1
1
1
1
1
1
1
1
1
1
1
1
1
1
1
1
1
1
1
1
1.00001
1.00006
1.00024
1.00082
1.00228
1.00508
1.00871
1.0112
1.01161
1.0112
1.00871
1.00508
1.00228
1.00082
1.00024
1.00006
1.00001
1
1
1
1
1
1
1
1
1
1
1
1
1
1
1
1
1
1
1
1
1
1
1.00001
1.00004
1.00018
1.0007
1.00228
1.00604
1.01237
1.01821
1.01846
1.01597
1.01846
1.01821
1.01237
1.00604
1.00228
1.0007
1.00018
1.00004
1.00001
1
1
1
1
1
1
1
1
1
1
1
1
1
1
1
1
1
1
1
1
1
1.00002
1.0001
1.00044
1.00164
1.00508
1.01237
1.02125
1.02054
1.00233
0.988281
1.00233
1.02054
1.02125
1.01237
1.00508
1.00164
1.00044
1.0001
1.00002
1
1
1
1
1
1
1
1
1
1
1
1
1
1
1
1
1
1
1
1
1.00001
1.00004
1.0002
1.00084
1.00302
1.00871
1.01821
1.02054
0.99013
0.927495
0.892851
0.927495
0.99013
1.02054
1.01821
1.00871
1.00302
1.00084
1.0002
1.00004
1.00001
1
1
1
1
1
1
1
1
1
1
1
1
1
1
1
1
1
1
1
1.00001
1.00006
1.0003
1.00124
1.00426
1.0112
1.01846
1.00233
0.927495
0.817406
0.765152
0.817406
0.927495
1.00233
1.01846
1.0112
1.00426
1.00124
1.0003
1.00006
1.00001
1
1
1
1
1
1
1
1
1
1
1
1
1
1
1
1
1
1
1
1.00002
1.00007
1.00034
1.0014
1.00468
1.01161
1.01597
0.988281
0.892851
0.765152
0.705655
0.765152
0.892851
0.988281
1.01597
1.01161
1.00468
1.0014
1.00034
1.00007
1.00001
1
1
1
1
1
1
1
1
1
1
1
1
1
1
1
1
1
1
1
1.00001
1.00006
1.0003
1.00124
1.00426
1.0112
1.01846
1.00233
0.927495
0.817406
0.765152
0.817406
0.927495
1.00233
1.01846
1.0112
1.00426
1.00124
1.0003
1.00006
1.00001
1
1
1
1
1
1
1
1
1
1
1
1
1
1
1
1
1
1
1
1.00001
1.00004
1.0002
1.00084
1.00302
1.00871
1.01821
1.02054
0.99013
0.927495
0.892851
0.927495
0.99013
1.02054
1.01821
1.00871
1.00302
1.00084
1.0002
1.00004
1.00001
1
1
1
1
1
1
1
1
1
1
1
1
1
1
1
1
1
1
1
1
1.00002
1.0001
1.00044
1.00164
1.00508
1.01237
1.02125
1.02054
1.00233
0.988281
1.00233
1.02054
1.02125
1.01237
1.00508
1.00164
1.00044
1.0001
1.00002
1
1
1
1
1
1
1
1
1
1
1
1
1
1
1
1
1
1
1
1
1
1.00001
1.00004
1.00018
1.0007
1.00228
1.00604
1.01237
1.01821
1.01846
1.01597
1.01846
1.01821
1.01237
1.00604
1.00228
1.0007
1.00018
1.00004
1.00001
1
1
1
1
1
1
1
1
1
1
1
1
1
1
1
1
1
1
1
1
1
1
1.00001
1.00006
1.00024
1.00082
1.00228
1.00508
1.00871
1.0112
1.01161
1.0112
1.00871
1.00508
1.00228
1.00082
1.00024
1.00006
1.00001
1
1
1
1
1
1
1
1
1
1
1
1
1
1
1
1
1
1
1
1
1
1
1
1
1.00002
1.00007
1.00024
1.0007
1.00164
1.00302
1.00426
1.00468
1.00426
1.00302
1.00164
1.0007
1.00024
1.00007
1.00002
1
1
1
1
1
1
1
1
1
1
1
1
1
1
1
1
1
1
1
1
1
1
1
1
1
1
1.00002
1.00006
1.00018
1.00044
1.00084
1.00124
1.0014
1.00124
1.00084
1.00044
1.00018
1.00006
1.00002
1
1
1
1
1
1
1
1
1
1
1
1
1
1
1
1
1
1
1
1
1
1
1
1
1
1
1
1
1.00001
1.00004
1.0001
1.0002
1.0003
1.00034
1.0003
1.0002
1.0001
1.00004
1.00001
1
1
1
1
1
1
1
1
1
1
1
1
1
1
1
1
1
1
1
1
1
1
1
1
1
1
1
1
1
1
1.00001
1.00002
1.00004
1.00006
1.00007
1.00006
1.00004
1.00002
1.00001
1
1
1
1
1
1
1
1
1
1
1
1
1
1
0.999999
0.999999
0.999999
1
1
1
1
1
1
1
1
1
1
1
1
1
1
1
1
1.00001
1.00001
1.00001
1.00001
1.00001
1
1
1
1
1
1
1
1
1
1
1
1
1
1
0.999999
0.999998
0.999997
0.999996
0.999997
0.999998
0.999999
1
1
1
1
1
1
1
1
1
1
1
1
1
1
1
1
1
1
1
1
1
1
1
1
1
1
1
1
1
1
1
0.999999
0.999998
0.999994
0.999988
0.999982
0.999979
0.999982
0.999988
0.999994
0.999998
0.999999
1
1
1
1
1
1
1
1
1
1
1
1
1
1
1
1
1
1
1
1
1
1
1
1
1
1
1
1
0.999999
0.999996
0.999988
0.999971
0.999943
0.999912
0.999899
0.999912
0.999943
0.999971
0.999988
0.999996
0.999999
1
1
1
1
1
1
1
1
1
1
1
1
1
1
1
1
1
1
1
1
1
1
1
1
1
1
0.999999
0.999995
0.999982
0.999947
0.999873
0.999755
0.999631
0.999579
0.999631
0.999755
0.999873
0.999947
0.999982
0.999995
0.999999
1
1
1
1
1
1
1
1
1
1
1
1
1
1
1
1
1
1
1
1
1
1
1
1
0.999999
0.999995
0.999979
0.99993
0.999798
0.999522
0.999097
0.998679
0.998514
0.998679
0.999097
0.999522
0.999798
0.99993
0.999979
0.999995
0.999999
1
1
1
1
1
1
1
1
1
1
1
1
1
1
1
1
1
1
1
1
1
1
0.999999
0.999996
0.999982
0.99993
0.999765
0.999336
0.998473
0.997229
0.996134
0.995786
0.996134
0.997229
0.998473
0.999336
0.999765
0.99993
0.999982
0.999996
0.999999
1
1
1
1
1
1
1
1
1
1
1
1
1
1
1
1
1
1
1
1
1
0.999998
0.999988
0.999947
0.999798
0.999336
0.998185
0.996011
0.993245
0.991431
0.991307
0.991431
0.993245
0.996011
0.998185
0.999336
0.999798
0.999947
0.999988
0.999997
1
1
1
1
1
1
1
1
1
1
1
1
1
1
1
1
1
1
1
1
0.999999
0.999994
0.999971
0.999873
0.999522
0.998473
0.996011
0.991885
0.988023
0.988225
0.991034
0.988225
0.988023
0.991885
0.996011
0.998473
0.999522
0.999873
0.999971
0.999993
1
1
1
1
1
1
1
1
1
1
1
1
1
1
1
1
1
1
1
1
0.999998
0.999988
0.999943
0.999755
0.999097
0.997229
0.993245
0.988023
0.987671
1.00044
1.01505
1.00044
0.987671
0.988023
0.993245
0.997229
0.999097
0.999755
0.999942
0.999986
1
1
1
1
1
1
1
1
1
1
1
1
1
1
1
1
1
1
1
0.999999
0.999997
0.999982
0.999912
0.999631
0.998679
0.996134
0.991431
0.988225
1.00044
1.04413
1.08626
1.04413
1.00044
0.988225
0.991431
0.996134
0.998679
0.999631
0.999912
0.999978
1
1
1
1
1
1
1
1
1
1
1
1
1
1
1
1
1
1
1
0.999999
0.999996
0.999979
0.999899
0.999579
0.998514
0.995786
0.991307
0.991034
1.01505
1.08626
1.15294
1.08626
1.01505
0.991034
0.991307
0.995786
0.998514
0.999578
0.999898
0.999975
1
1
1
1
1
1
1
1
1
1
1
1
1
1
1
1
1
1
1
0.999999
0.999997
0.999982
0.999912
0.999631
0.998679
0.996134
0.991431
0.988225
1.00044
1.04413
1.08626
1.04413
1.00044
0.988225
0.991431
0.996134
0.998679
0.999631
0.999912
0.999978
1
1
1
1
1
1
1
1
1
1
1
1
1
1
1
1
1
1
1
1
0.999998
0.999988
0.999943
0.999755
0.999097
0.997229
0.993245
0.988023
0.987671
1.00044
1.01505
1.00044
0.987671
0.988023
0.993245
0.997229
0.999097
0.999755
0.999942
0.999986
1
1
1
1
1
1
1
1
1
1
1
1
1
1
1
1
1
1
1
1
0.999999
0.999994
0.999971
0.999873
0.999522
0.998473
0.996011
0.991885
0.988023
0.988225
0.991034
0.988225
0.988023
0.991885
0.996011
0.998473
0.999522
0.999873
0.999971
0.999993
1
1
1
1
1
1
1
1
1
1
1
1
1
1
1
1
1
1
1
1
1
0.999998
0.999988
0.999947
0.999798
0.999336
0.998185
0.996011
0.993245
0.991431
0.991307
0.991431
0.993245
0.996011
0.998185
0.999336
0.999798
0.999947
0.999988
0.999997
1
1
1
1
1
1
1
1
1
1
1
1
1
1
1
1
1
1
1
1
1
0.999999
0.999996
0.999982
0.99993
0.999765
0.999336
0.998473
0.997229
0.996134
0.995786
0.996134
0.997229
0.998473
0.999336
0.999765
0.99993
0.999982
0.999996
0.999999
1
1
1
1
1
1
1
1
1
1
1
1
1
1
1
1
1
1
1
1
1
1
0.999999
0.999995
0.999979
0.99993
0.999798
0.999522
0.999097
0.998679
0.998514
0.998679
0.999097
0.999522
0.999798
0.99993
0.999979
0.999995
0.999999
1
1
1
1
1
1
1
1
1
1
1
1
1
1
1
1
1
1
1
1
1
1
1
1
0.999999
0.999995
0.999982
0.999947
0.999873
0.999755
0.999631
0.999578
0.999631
0.999755
0.999873
0.999947
0.999982
0.999995
0.999999
1
1
1
1
1
1
1
1
1
1
1
1
1
1
1
1
1
1
1
1
1
1
1
1
1
1
0.999999
0.999996
0.999988
0.999971
0.999942
0.999912
0.999898
0.999912
0.999942
0.999971
0.999988
0.999996
0.999999
1
1
1
1
1
1
1
1
1
1
1
1
1
1
1
1
1
1
1
1
1
1
1
1
1
1
1
1
0.999999
0.999997
0.999993
0.999986
0.999978
0.999975
0.999978
0.999986
0.999993
0.999997
0.999999
1
1
1
1
SCALARS C2 double 1
LOOKUP_TABLE default
3
3
3
3
3
3
3
3
2.99999
2.99999
2.99999
2.99999
2.99999
3
3
3
3
3
3
3
3
3
3
3
3
3
3
3
3
3
3
3
3
3
3
3
3
3
3
3
3
3
3
3
3
3
2.99999
2.99998
2.99996
2.99994
2.99993
2.99994
2.99996
2.99998
2.99999
3
3
3
3
3
3
3
3
3
3
3
3
3
3
3
3
3
3
3
3
3
3
3
3
3
3
3
3
3
3
2.99999
2.99997
2.99991
2.99981
2.9997
2.99965
2.9997
2.99981
2.99991
2.99997
2.99999
3
3
3
3
3
3
3
3
3
3
3
3
3
3
3
3
3
3
3
3
3
3
3
3
3
3
3
3
2.99999
2.99995
2.99984
2.99958
2.99913
2.99862
2.99839
2.99862
2.99913
2.99958
2.99984
2.99995
2.99999
3
3
3
3
3
3
3
3
3
3
3
3
3
3
3
3
3
3
3
3
3
3
3
3
3
3
2.99999
2.99994
2.99978
2.99932
2.99825
2.99645
2.99451
2.99369
2.99451
2.99645
2.99825
2.99932
2.99978
2.99994
2.99999
3
3
3
3
3
3
3
3
3
3
3
3
3
3
3
3
3
3
3
3
3
3
3
3
2.99999
2.99995
2.99978
2.9992
2.99754
2.99382
2.98786
2.98204
2.97999
2.98204
2.98786
2.99382
2.99754
2.9992
2.99978
2.99995
2.99999
3
3
3
3
3
3
3
3
3
3
3
3
3
3
3
3
3
3
3
3
3
3
2.99999
2.99997
2.99984
2.99932
2.99754
2.99258
2.98209
2.96701
2.95546
2.95352
2.95546
2.96701
2.98209
2.99258
2.99754
2.99932
2.99984
2.99997
2.99999
3
3
3
3
3
3
3
3
3
3
3
3
3
3
3
3
3
3
3
3
3
2.99998
2.99991
2.99958
2.99825
2.99382
2.98209
2.95974
2.93506
2.92898
2.93837
2.92898
2.93506
2.95974
2.98209
2.99382
2.99825
2.99958
2.99991
2.99998
3
3
3
3
3
3
3
3
3
3
3
3
3
3
3
3
3
3
3
3
2.99999
2.99996
2.99981
2.99913
2.99645
2.98786
2.96701
2.93506
2.9211
2.95958
3.00553
2.95958
2.9211
2.93506
2.96701
2.98786
2.99645
2.99913
2.99981
2.99996
2.99999
3
3
3
3
3
3
3
3
3
3
3
3
3
3
3
3
3
3
3
2.99999
2.99994
2.9997
2.99862
2.99451
2.98204
2.95546
2.92898
2.95958
3.07825
3.17742
3.07825
2.95958
2.92898
2.95546
2.98204
2.99451
2.99862
2.9997
2.99994
2.99999
3
3
3
3
3
3
3
3
3
3
3
3
3
3
3
3
3
3
3
2.99999
2.99993
2.99965
2.99839
2.99369
2.97999
2.95352
2.93837
3.00553
3.17742
3.30384
3.17742
3.00553
2.93837
2.95352
2.97999
2.99369
2.99839
2.99965
2.99993
2.99999
3
3
3
3
3
3
3
3
3
3
3
3
3
3
3
3
3
3
3
2.99999
2.99994
2.9997
2.99862
2.99451
2.98204
2.95546
2.92898
2.95958
3.07825
3.17742
3.07825
2.95958
2.92898
2.95546
2.98204
2.99451
2.99862
2.9997
2.99994
2.99999
3
3
3
3
3
3
3
3
3
3
3
3
3
3
3
3
3
3
3
2.99999
2.99996
2.99981
2.99913
2.99645
2.98786
2.96701
2.93506
2.9211
2.95958
3.00553
2.95958
2.9211
2.93506
2.96701
2.98786
2.99645
2.99913
2.99981
2.99996
2.99999
3
3
3
3
3
3
3
3
3
3
3
3
3
3
3
3
3
3
3
3
2.99998
2.99991
2.99958
2.99825
2.99382
2.98209
2.95974
2.93506
2.92898
2.93837
2.92898
2.93506
2.95974
2.98209
2.99382
2.99825
2.99958
2.99991
2.99998
3
3
3
3
3
3
3
3
3
3
3
3
3
3
3
3
3
3
3
3
3
2.99999
2.99997
2.99984
2.99932
2.99754
2.99258
2.98209
2.96701
2.95546
2.95352
2.95546
2.96701
2.98209
2.99258
2.99754
2.99932
2.99984
2.99997
2.99999
3
3
3
3
3
3
3
3
3
3
3
3
3
3
3
3
3
3
3
3
3
3
2.99999
2.99995
2.99978
2.9992
2.99754
2.99382
2.98786
2.98204
2.97999
2.98204
2.98786
2.99382
2.99754
2.9992
2.99978
2.99995
2.99999
3
3
3
3
3
3
3
3
3
3
3
3
3
3
3
3
3
3
3
3
3
3
3
3
2.99999
2.99994
2.99978
2.99932
2.99825
2.99645
2.99451
2.99369
2.99451
2.99645
2.99825
2.99932
2.99978
2.99994
2.99999
3
3
3
3
3
3
3
3
3
3
3
3
3
3
3
3
3
3
3
3
3
3
3
3
3
3
2.99999
2.99995
2.99984
2.99958
2.99913
2.99862
2.99839
2.99862
2.99913
2.99958
2.99984
2.99995
2.99999
3
3
3
3
3
3
3
3
3
3
3
3
3
3
3
3
3
3
3
3
3
3
3
3
3
3
3
3
2.99999
2.99997
2.99991
2.99981
2.9997
2.99965
2.9997
2.99981
2.99991
2.99997
2.99999
3
3
3
3
3
3
3
3
3
3
3
3
3
3
3
3
3
3
3
3
3
3
3
3
3
3
3
3
3
3
2.99999
2.99998
2.99996
2.99994
2.99993
2.99994
2.99996
2.99998
2.99999
3
3
3
3
3
3
3
3
3
3
3
3
3
3
3
3
3
3
3
3
3
3
3
3
3
3
3
3
3
3
3
3
3
2.99999
2.99999
2.99999
2.99999
2.99999
3
3
3
3
3
3
3
3
3
3
3
3
3
3
3
3
3
3
3
3
3
3
3
3
3
3
3
3
3
3
3
3
3
3
3
3
3
3
3
3
3
3
3
3
3
3
3
3
3
3
3
3
3
3
3
3.00001
3.00002
3.00002
3.00002
3.00001
3
3
3
3
3
3
3
3
3
3
3
3
3
3
3
3
3
3
3
3
3
3
3
3
3
3
3
3
3
3
3
3
3
3.00001
3.00003
3.00005
3.00009
3.0001
3.00009
3.00005
3.00003
3.00001
3
3
3
3
3
3
3
3
3
3
3
3
3
3
3
3
3
3
3
3
3
3
3
3
3
3
3
3
3
3
3.00002
3.00005
3.00012
3.00025
3.0004
3.00048
3.0004
3.00025
3.00012
3.00005
3.00002
3
3
3
3
3
3
3
3
3
3
3
3
3
3
3
3
3
3
3
3
3
3
3
3
3
3
3
3
3.00002
3.00006
3.0002
3.00051
3.00104
3.00164
3.00192
3.00164
3.00104
3.00051
3.0002
3.00006
3.00002
3
3
3
3
3
3
3
3
3
3
3
3
3
3
3
3
3
3
3
3
3
3
3
3
3
3
3.00002
3.00006
3.00023
3.00071
3.00181
3.00366
3.00567
3.00653
3.00567
3.00366
3.00181
3.00071
3.00023
3.00006
3.00002
3
3
3
3
3
3
3
3
3
3
3
3
3
3
3
3
3
3
3
3
3
3
3
3
3.00001
3.00005
3.0002
3.00071
3.00217
3.00541
3.01069
3.01601
3.01797
3.01601
3.01069
3.00541
3.00217
3.00071
3.0002
3.00005
3.00001
3
3
3
3
3
3
3
3
3
3
3
3
3
3
3
3
3
3
3
3
3
3
3
3.00003
3.00012
3.00051
3.00181
3.00541
3.01316
3.02488
3.03499
3.03704
3.03499
3.02488
3.01316
3.00541
3.00181
3.00051
3.00012
3.00003
3.00001
3
3
3
3
3
3
3
3
3
3
3
3
3
3
3
3
3
3
3
3
3
3.00001
3.00005
3.00025
3.00104
3.00366
3.01069
3.02488
3.04354
3.05289
3.04654
3.05289
3.04354
3.02488
3.01069
3.00366
3.00104
3.00025
3.00005
3.00001
3
3
3
3
3
3
3
3
3
3
3
3
3
3
3
3
3
3
3
3
3
3.00002
3.00009
3.0004
3.00164
3.00567
3.01601
3.03499
3.05289
3.03985
3.00079
3.03985
3.05289
3.03499
3.01601
3.00567
3.00164
3.0004
3.00009
3.00002
3
3
3
3
3
3
3
3
3
3
3
3
3
3
3
3
3
3
3
3
3
3.00002
3.0001
3.00048
3.00192
3.00653
3.01797
3.03704
3.04654
3.00079
2.92094
3.00079
3.04654
3.03704
3.01797
3.00653
3.00192
3.00048
3.0001
3.00002
3
3
3
3
3
3
3
3
3
3
3
3
3
3
3
3
3
3
3
3
3
3.00002
3.00009
3.0004
3.00164
3.00567
3.01601
3.03499
3.05289
3.03985
3.00079
3.03985
3.05289
3.03499
3.01601
3.00567
3.00164
3.0004
3.00009
3.00002
3
3
3
3
3
3
3
3
3
3
3
3
3
3
3
3
3
3
3
3
3
3.00001
3.00005
3.00025
3.00104
3.00366
3.01069
3.02488
3.04354
3.05289
3.04654
3.05289
3.04354
3.02488
3.01069
3.00366
3.00104
3.00025
3.00005
3.00001
3
3
3
3
3
3
3
3
3
3
3
3
3
3
3
3
3
3
3
3
3
3
3.00003
3.00012
3.00051
3.00181
3.00541
3.01316
3.02488
3.03499
3.03704
3.03499
3.02488
3.01316
3.00541
3.00181
3.00051
3.00012
3.00003
3.00001
3
3
3
3
3
3
3
3
3
3
3
3
3
3
3
3
3
3
3
3
3
3
3.00001
3.00005
3.0002
3.00071
3.00217
3.00541
3.01069
3.01601
3.01797
3.01601
3.01069
3.00541
3.00217
3.00071
3.0002
3.00005
3.00001
3
3
3
3
3
3
3
3
3
3
3
3
3
3
3
3
3
3
3
3
3
3
3
3
3.00002
3.00006
3.00023
3.00071
3.00181
3.00366
3.00567
3.00653
3.00567
3.00366
3.00181
3.00071
3.00023
3.00006
3.00002
3
3
3
3
3
3
3
3
3
3
3
3
3
3
3
3
3
3
3
3
3
3
3
3
3
3
3.00002
3.00006
3.0002
3.00051
3.00104
3.00164
3.00192
3.00164
3.00104
3.00051
3.0002
3.00006
3.00002
3
3
3
3
3
3
3
3
3
3
3
3
3
3
3
3
3
3
3
3
3
3
3
3
3
3
3
3
3.00002
3.00005
3.00012
3.00025
3.0004
3.00048
3.0004
3.00025
3.00012
3.00005
3.00002
3
3
3
3
3
3
3
3
3
3
3
3
3
3
3
3
3
3
3
3
3
3
3
3
3
3
3
3
3
3
3.00001
3.00003
3.00005
3.00009
3.0001
3.00009
3.00005
3.00003
3.00001
3
3
3
3
3
3
3
3
3
3
3
3
3
3
3
3
3
3
3
3
3
3
3
3
3
3
3
3
3
3
3
3
3.00001
3.00001
3.00002
3.00002
3.00002
3.00001
3.00001
3
3
3
3
3
3
