# vtk DataFile Version 3.0
Brusselator Concentration Output
ASCII
DATASET STRUCTURED_POINTS
DIMENSIONS 40 40 1
ORIGIN 0.0 0.0 0.0
SPACING 0.005 0.005 1.0
POINT_DATA 1600
SCALARS C1 double 1
LOOKUP_TABLE default
1
1
1
1
1
1
1
1
1
1
1
1
1
1
1
1
1
1
1
1
1
1
1
1
1
1
1
1
1
1
1
1
1
1
1
1
1
1
1
1
1
1
1
1
1
1
1
1
1
1.00001
1.00001
1.00001
1
1
1
1
1
1
1
1
1
1
1
1
1
1
1
1
1
1
1
1
1
1
1
1
1
1
1
1
1
1
1
1
1
1
1
1.00001
1.00002
1.00004
1.00006
1.00004
1.00002
1.00001
1
1
1
1
1
1
1
1
1
1
1
1
1
1
1
1
1
1
1
1
1
1
1
1
1
1
1
1
1
1
1
1
1.00002
1.00006
1.00014
1.00026
1.00032
1.00026
1.00014
1.00006
1.00002
1
1
1
1
1
1
1
1
1
1
1
1
1
1
1
1
1
1
1
1
1
1
1
1
1
1
1
1
1
1.00001
1.00003
1.0001
1.0003
1.00073
1.0013
1.00159
1.0013
1.00073
1.0003
1.0001
1.00003
1.00001
1
1
1
1
1
1
1
1
1
1
1
1
1
1
1
1
1
1
1
1
1
1
1
1
1
1
1
1.00003
1.00011
1.00043
1.00132
1.00315
1.00546
1.00651
1.00546
1.00315
1.00132
1.00043
1.00011
1.00003
1
1
1
1
1
1
1
1
1
1
1
1
1
1
1
1
1
1
1
1
1
1
1
1
1
1
1.00002
1.0001
1.00043
1.00161
1.00485
1.01113
1.01813
1.02037
1.01813
1.01113
1.00485
1.00161
1.00043
1.0001
1.00002
1
1
1
1
1
1
1
1
1
1
1
1
1
1
1
1
1
1
1
1
1
1
1
1
1.00001
1.00006
1.0003
1.00132
1.00485
1.01404
1.02975
1.04198
1.04068
1.04198
1.02975
1.01404
1.00485
1.00132
1.0003
1.00006
1.00001
1
1
1
1
1
1
1
1
1
1
1
1
1
1
1
1
1
1
1
1
1
1
1
1.00002
1.00014
1.00073
1.00315
1.01113
1.02975
1.05271
1.04864
1.02184
1.04864
1.05271
1.02975
1.01113
1.00315
1.00073
1.00014
1.00002
1
1
1
1
1
1
1
1
1
1
1
1
1
1
1
1
1
1
1
1
1
1
1.00001
1.00004
1.00026
1.0013
1.00546
1.01813
1.04198
1.04864
0.981577
0.905389
0.981577
1.04864
1.04198
1.01813
1.00546
1.0013
1.00026
1.00004
1.00001
1
1
1
1
1
1
1
1
1
1
1
1
1
1
1
1
1
1
1
1
1
1.00001
1.00006
1.00032
1.00159
1.00651
1.02037
1.04068
1.02184
0.905389
0.801103
0.905389
1.02184
1.04068
1.02037
1.00651
1.00159
1.00032
1.00006
1.00001
1
1
1
1
1
1
1
1
1
1
1
1
1
1
1
1
1
1
1
1
1
1.00001
1.00004
1.00026
1.0013
1.00546
1.01813
1.04198
1.04864
0.981577
0.905389
0.981577
1.04864
1.04198
1.01813
1.00546
1.0013
1.00026
1.00004
1.00001
1
1
1
1
1
1
1
1
1
1
1
1
1
1
1
1
1
1
1
1
1
1
1.00002
1.00014
1.00073
1.00315
1.01113
1.02975
1.05271
1.04864
1.02184
1.04864
1.05271
1.02975
1.01113
1.00315
1.00073
1.00014
1.00002
1
1
1
1
1
1
1
1
1
1
1
1
1
1
1
1
1
1
1
1
1
1
1
1.00001
1.00006
1.0003
1.00132
1.00485
1.01404
1.02975
1.04198
1.04068
1.04198
1.02975
1.01404
1.00485
1.00132
1.0003
1.00006
1.00001
1
1
1
1
1
1
1
1
1
1
1
1
1
1
1
1
1
1
1
1
1
1
1
1
1.00002
1.0001
1.00043
1.00161
1.00485
1.01113
1.01813
1.02037
1.01813
1.01113
1.00485
1.00161
1.00043
1.0001
1.00002
1
1
1
1
1
1
1
1
1
1
1
1
1
1
1
1
1
1
1
1
1
1
1
1
1
1
1.00003
1.00011
1.00043
1.00132
1.00315
1.00546
1.00651
1.00546
1.00315
1.00132
1.00043
1.00011
1.00003
1
1
1
1
1
1
1
1
1
1
1
1
1
1
1
1
1
1
1
1
1
1
1
1
1
1
1
1.00001
1.00003
1.0001
1.0003
1.00073
1.0013
1.00159
1.0013
1.00073
1.0003
1.0001
1.00003
1.00001
1
1
1
1
1
1
1
1
1
1
1
1
1
1
1
1
1
1
1
1
1
1
1
1
1
1
1
1
1
1.00002
1.00006
1.00014
1.00026
1.00032
1.00026
1.00014
1.00006
1.00002
1
1
1
1
1
1
1
1
1
1
1
1
1
1
1
1
1
1
1
1
1
1
1
1
1
1
1
1
1
1
1
1
1.00001
1.00002
1.00004
1.00006
1.00004
1.00002
1.00001
1
1
1
1
1
1
1
1
1
1
1
1
1
1
1
1
1
1
1
1
1
1
1
1
1
1
1
1
1
1
1
1
1
1
1
1.00001
1.00001
1.00001
1
1
1
1
1
1
1
1
1
1
1
1
1
1
1
1
1
1
1
1
1
1
1
1
1
1
1
1
1
1
1
1
1
1
1
1
1
1
1
1
1
1
1
1
1
1
1
1
1
1
1
1
1
1
1
1
1
1
1
1
1
1
1
1
1
1
1
1
1
1
1
1
1
1
1
1
1
1
1
1
1
1
1
1
1
1
1
1
1
1
1
1
1
1
1
1
0.999999
0.999998
0.999997
0.999998
0.999999
1
1
1
1
1
1
1
1
1
1
1
1
1
1
1
1
1
1
1
1
1
1
1
1
1
1
1
1
1
1
1
1
1
0.999999
0.999997
0.999993
0.999987
0.999984
0.999987
0.999993
0.999997
0.999999
1
1
1
1
1
1
1
1
1
1
1
1
1
1
1
1
1
1
1
1
1
1
1
1
1
1
1
1
1
1
0.999999
0.999994
0.999983
0.999959
0.999925
0.999907
0.999925
0.999959
0.999983
0.999994
0.999999
1
1
1
1
1
1
1
1
1
1
1
1
1
1
1
1
1
1
1
1
1
1
1
1
1
1
1
1
0.999998
0.999992
0.999972
0.999914
0.999792
0.999627
0.999538
0.999627
0.999792
0.999914
0.999972
0.999992
0.999998
1
1
1
1
1
1
1
1
1
1
1
1
1
1
1
1
1
1
1
1
1
1
1
1
1
1
0.999999
0.999992
0.999967
0.999876
0.999623
0.999099
0.99841
0.99806
0.99841
0.999099
0.999623
0.999876
0.999967
0.999992
0.999999
1
1
1
1
1
1
1
1
1
1
1
1
1
1
1
1
1
1
1
1
1
1
1
1
0.999999
0.999994
0.999972
0.999876
0.999542
0.99862
0.996765
0.994444
0.993387
0.994444
0.996765
0.99862
0.999542
0.999876
0.999972
0.999994
0.999999
1
1
1
1
1
1
1
1
1
1
1
1
1
1
1
1
1
1
1
1
1
1
1
0.999997
0.999983
0.999914
0.999623
0.99862
0.995923
0.990761
0.984899
0.98288
0.984899
0.990761
0.995923
0.99862
0.999623
0.999914
0.999983
0.999997
0.999999
1
1
1
1
1
1
1
1
1
1
1
1
1
1
1
1
1
1
1
1
1
0.999999
0.999993
0.999959
0.999792
0.999099
0.996765
0.990761
0.980227
0.9706
0.970331
0.9706
0.980227
0.990761
0.996765
0.999099
0.999792
0.999959
0.999993
0.999999
1
1
1
1
1
1
1
1
1
1
1
1
1
1
1
1
1
1
1
1
1
0.999998
0.999987
0.999925
0.999627
0.99841
0.994444
0.984899
0.9706
0.964587
0.976869
0.964587
0.9706
0.984899
0.994444
0.99841
0.999627
0.999925
0.999987
0.999998
1
1
1
1
1
1
1
1
1
1
1
1
1
1
1
1
1
1
1
1
1
0.999997
0.999984
0.999907
0.999538
0.99806
0.993387
0.98288
0.970331
0.976869
1.00947
0.976869
0.970331
0.98288
0.993387
0.99806
0.999538
0.999907
0.999984
0.999997
1
1
1
1
1
1
1
1
1
1
1
1
1
1
1
1
1
1
1
1
1
0.999998
0.999987
0.999925
0.999627
0.99841
0.994444
0.984899
0.9706
0.964587
0.976869
0.964587
0.9706
0.984899
0.994444
0.99841
0.999627
0.999925
0.999987
0.999998
1
1
1
1
1
1
1
1
1
1
1
1
1
1
1
1
1
1
1
1
1
0.999999
0.999993
0.999959
0.999792
0.999099
0.996765
0.990761
0.980227
0.9706
0.970331
0.9706
0.980227
0.990761
0.996765
0.999099
0.999792
0.999959
0.999993
0.999999
1
1
1
1
1
1
1
1
1
1
1
1
1
1
1
1
1
1
1
1
1
1
0.999997
0.999983
0.999914
0.999623
0.99862
0.995923
0.990761
0.984899
0.98288
0.984899
0.990761
0.995923
0.99862
0.999623
0.999914
0.999983
0.999997
0.999999
1
1
1
1
1
1
1
1
1
1
1
1
1
1
1
1
1
1
1
1
1
1
0.999999
0.999994
0.999972
0.999876
0.999542
0.99862
0.996765
0.994444
0.993387
0.994444
0.996765
0.99862
0.999542
0.999876
0.999972
0.999994
0.999999
1
1
1
1
1
1
1
1
1
1
1
1
1
1
1
1
1
1
1
1
1
1
1
1
0.999999
0.999992
0.999967
0.999876
0.999623
0.999099
0.99841
0.99806
0.99841
0.999099
0.999623
0.999876
0.999967
0.999992
0.999999
1
1
1
1
1
1
1
1
1
1
1
1
1
1
1
1
1
1
1
1
1
1
1
1
1
1
0.999998
0.999992
0.999972
0.999914
0.999792
0.999627
0.999538
0.999627
0.999792
0.999914
0.999972
0.999992
0.999998
1
1
1
1
1
1
1
1
1
1
1
1
1
1
1
1
1
1
1
1
1
1
1
1
1
1
1
1
0.999999
0.999994
0.999983
0.999959
0.999925
0.999907
0.999925
0.999959
0.999983
0.999994
0.999999
1
1
1
1
1
1
1
1
1
1
1
1
1
1
1
1
1
1
1
1
1
1
1
1
1
1
1
1
1
1
0.999999
0.999997
0.999993
0.999987
0.999984
0.999987
0.999993
0.999997
0.999999
1
1
1
1
1
1
1
1
1
1
1
1
1
1
1
1
1
1
1
1
1
1
1
1
1
1
1
1
1
1
1
1
0.999999
0.999999
0.999998
0.999997
0.999998
0.999999
0.999999
1
1
1
1
1
1
SCALARS C2 double 1
LOOKUP_TABLE default
3
3
3
3
3
3
3
3
3
3
3
3
3
3
3
3
3
3
3
3
3
3
3
3
3
3
3
3
3
3
3
3
3
3
3
3
3
3
3
3
3
3
3
3
3
3
3
3
3
2.99999
2.99999
2.99999
3
3
3
3
3
3
3
3
3
3
3
3
3
3
3
3
3
3
3
3
3
3
3
3
3
3
3
3
3
3
3
3
3
3
3
2.99999
2.99998
2.99996
2.99995
2.99996
2.99998
2.99999
3
3
3
3
3
3
3
3
3
3
3
3
3
3
3
3
3
3
3
3
3
3
3
3
3
3
3
3
3
3
3
3
2.99999
2.99996
2.99988
2.99978
2.99971
2.99978
2.99988
2.99996
2.99999
3
3
3
3
3
3
3
3
3
3
3
3
3
3
3
3
3
3
3
3
3
3
3
3
3
3
3
3
3
3
2.99998
2.99993
2.99975
2.99935
2.99875
2.9984
2.99875
2.99935
2.99975
2.99993
2.99998
3
3
3
3
3
3
3
3
3
3
3
3
3
3
3
3
3
3
3
3
3
3
3
3
3
3
3
3
2.99998
2.99991
2.99964
2.99881
2.99687
2.99399
2.99235
2.99399
2.99687
2.99881
2.99964
2.99991
2.99998
3
3
3
3
3
3
3
3
3
3
3
3
3
3
3
3
3
3
3
3
3
3
3
3
3
3
2.99999
2.99993
2.99964
2.99854
2.99511
2.98724
2.976
2.97019
2.976
2.98724
2.99511
2.99854
2.99964
2.99993
2.99999
3
3
3
3
3
3
3
3
3
3
3
3
3
3
3
3
3
3
3
3
3
3
3
3
2.99999
2.99996
2.99975
2.99881
2.99511
2.9837
2.95846
2.9258
2.91295
2.9258
2.95846
2.9837
2.99511
2.99881
2.99975
2.99996
2.99999
3
3
3
3
3
3
3
3
3
3
3
3
3
3
3
3
3
3
3
3
3
3
3
2.99998
2.99988
2.99935
2.99687
2.98724
2.95846
2.9005
2.84262
2.83771
2.84262
2.9005
2.95846
2.98724
2.99687
2.99935
2.99988
2.99998
3
3
3
3
3
3
3
3
3
3
3
3
3
3
3
3
3
3
3
3
3
3
2.99999
2.99996
2.99978
2.99875
2.99399
2.976
2.9258
2.84262
2.80239
2.84436
2.80239
2.84262
2.9258
2.976
2.99399
2.99875
2.99978
2.99996
2.99999
3
3
3
3
3
3
3
3
3
3
3
3
3
3
3
3
3
3
3
3
3
2.99999
2.99995
2.99971
2.9984
2.99235
2.97019
2.91295
2.83771
2.84436
2.91612
2.84436
2.83771
2.91295
2.97019
2.99235
2.9984
2.99971
2.99995
2.99999
3
3
3
3
3
3
3
3
3
3
3
3
3
3
3
3
3
3
3
3
3
2.99999
2.99996
2.99978
2.99875
2.99399
2.976
2.9258
2.84262
2.80239
2.84436
2.80239
2.84262
2.9258
2.976
2.99399
2.99875
2.99978
2.99996
2.99999
3
3
3
3
3
3
3
3
3
3
3
3
3
3
3
3
3
3
3
3
3
3
2.99998
2.99988
2.99935
2.99687
2.98724
2.95846
2.9005
2.84262
2.83771
2.84262
2.9005
2.95846
2.98724
2.99687
2.99935
2.99988
2.99998
3
3
3
3
3
3
3
3
3
3
3
3
3
3
3
3
3
3
3
3
3
3
3
2.99999
2.99996
2.99975
2.99881
2.99511
2.9837
2.95846
2.9258
2.91295
2.9258
2.95846
2.9837
2.99511
2.99881
2.99975
2.99996
2.99999
3
3
3
3
3
3
3
3
3
3
3
3
3
3
3
3
3
3
3
3
3
3
3
3
2.99999
2.99993
2.99964
2.99854
2.99511
2.98724
2.976
2.97019
2.976
2.98724
2.99511
2.99854
2.99964
2.99993
2.99999
3
3
3
3
3
3
3
3
3
3
3
3
3
3
3
3
3
3
3
3
3
3
3
3
3
3
2.99998
2.99991
2.99964
2.99881
2.99687
2.99399
2.99235
2.99399
2.99687
2.99881
2.99964
2.99991
2.99998
3
3
3
3
3
3
3
3
3
3
3
3
3
3
3
3
3
3
3
3
3
3
3
3
3
3
3
3
2.99998
2.99993
2.99975
2.99935
2.99875
2.9984
2.99875
2.99935
2.99975
2.99993
2.99998
3
3
3
3
3
3
3
3
3
3
3
3
3
3
3
3
3
3
3
3
3
3
3
3
3
3
3
3
3
3
2.99999
2.99996
2.99988
2.99978
2.99971
2.99978
2.99988
2.99996
2.99999
3
3
3
3
3
3
3
3
3
3
3
3
3
3
3
3
3
3
3
3
3
3
3
3
3
3
3
3
3
3
3
3
2.99999
2.99998
2.99996
2.99995
2.99996
2.99998
2.99999
3
3
3
3
3
3
3
3
3
3
3
3
3
3
3
3
3
3
3
3
3
3
3
3
3
3
3
3
3
3
3
3
3
3
3
2.99999
2.99999
2.99999
3
3
3
3
3
3
3
3
3
3
3
3
3
3
3
3
3
3
3
3
3
3
3
3
3
3
3
3
3
3
3
3
3
3
3
3
3
3
3
3
3
3
3
3
3
3
3
3
3
3
3
3
3
3
3
3
3
3
3
3
3
3
3
3
3
3
3
3
3
3
3
3
3
3
3
3
3
3
3
3
3
3
3
3
3
3
3
3
3
3
3
3
3
3
3
3
3
3
3
3
3
3
3
3
3
3
3
3
3
3
3
3
3
3
3
3
3
3
3
3
3
3
3
3
3
3
3
3
3
3
3
3
3
3
3
3
3.00001
3.00001
3.00001
3.00001
3.00001
3
3
3
3
3
3
3
3
3
3
3
3
3
3
3
3
3
3
3
3
3
3
3
3
3
3
3
3
3
3
3
3
3
3
3.00001
3.00003
3.00006
3.00008
3.00006
3.00003
3.00001
3
3
3
3
3
3
3
3
3
3
3
3
3
3
3
3
3
3
3
3
3
3
3
3
3
3
3
3
3
3
3
3.00001
3.00002
3.00007
3.00019
3.00036
3.00046
3.00036
3.00019
3.00007
3.00002
3.00001
3
3
3
3
3
3
3
3
3
3
3
3
3
3
3
3
3
3
3
3
3
3
3
3
3
3
3
3
3.00001
3.00003
3.0001
3.00034
3.00089
3.00173
3.00223
3.00173
3.00089
3.00034
3.0001
3.00003
3.00001
3
3
3
3
3
3
3
3
3
3
3
3
3
3
3
3
3
3
3
3
3
3
3
3
3
3
3
3.00002
3.0001
3.00042
3.00139
3.00364
3.00702
3.00904
3.00702
3.00364
3.00139
3.00042
3.0001
3.00002
3
3
3
3
3
3
3
3
3
3
3
3
3
3
3
3
3
3
3
3
3
3
3
3
3
3
3.00001
3.00007
3.00034
3.00139
3.00464
3.01212
3.02327
3.02986
3.02327
3.01212
3.00464
3.00139
3.00034
3.00007
3.00001
3
3
3
3
3
3
3
3
3
3
3
3
3
3
3
3
3
3
3
3
3
3
3
3
3.00001
3.00003
3.00019
3.00089
3.00364
3.01212
3.03157
3.06033
3.07728
3.06033
3.03157
3.01212
3.00364
3.00089
3.00019
3.00003
3.00001
3
3
3
3
3
3
3
3
3
3
3
3
3
3
3
3
3
3
3
3
3
3
3
3.00001
3.00006
3.00036
3.00173
3.00702
3.02327
3.06033
3.11553
3.15014
3.11553
3.06033
3.02327
3.00702
3.00173
3.00036
3.00006
3.00001
3
3
3
3
3
3
3
3
3
3
3
3
3
3
3
3
3
3
3
3
3
3
3
3.00001
3.00008
3.00046
3.00223
3.00904
3.02986
3.07728
3.15014
3.20189
3.15014
3.07728
3.02986
3.00904
3.00223
3.00046
3.00008
3.00001
3
3
3
3
3
3
3
3
3
3
3
3
3
3
3
3
3
3
3
3
3
3
3
3.00001
3.00006
3.00036
3.00173
3.00702
3.02327
3.06033
3.11553
3.15014
3.11553
3.06033
3.02327
3.00702
3.00173
3.00036
3.00006
3.00001
3
3
3
3
3
3
3
3
3
3
3
3
3
3
3
3
3
3
3
3
3
3
3
3.00001
3.00003
3.00019
3.00089
3.00364
3.01212
3.03157
3.06033
3.07728
3.06033
3.03157
3.01212
3.00364
3.00089
3.00019
3.00003
3.00001
3
3
3
3
3
3
3
3
3
3
3
3
3
3
3
3
3
3
3
3
3
3
3
3
3.00001
3.00007
3.00034
3.00139
3.00464
3.01212
3.02327
3.02986
3.02327
3.01212
3.00464
3.00139
3.00034
3.00007
3.00001
3
3
3
3
3
3
3
3
3
3
3
3
3
3
3
3
3
3
3
3
3
3
3
3
3
3
3.00002
3.0001
3.00042
3.00139
3.00364
3.00702
3.00904
3.00702
3.00364
3.00139
3.00042
3.0001
3.00002
3
3
3
3
3
3
3
3
3
3
3
3
3
3
3
3
3
3
3
3
3
3
3
3
3
3
3
3.00001
3.00003
3.0001
3.00034
3.00089
3.00173
3.00223
3.00173
3.00089
3.00034
3.0001
3.00003
3.00001
3
3
3
3
3
3
3
3
3
3
3
3
3
3
3
3
3
3
3
3
3
3
3
3
3
3
3
3
3.00001
3.00002
3.00007
3.00019
3.00036
3.00046
3.00036
3.00019
3.00007
3.00002
3.00001
3
3
3
3
3
3
3
3
3
3
3
3
3
3
3
3
3
3
3
3
3
3
3
3
3
3
3
3
3
3
3
3.00001
3.00003
3.00006
3.00008
3.00006
3.00003
3.00001
3
3
3
3
3
3
3
3
3
3
3
3
3
3
3
3
3
3
3
3
3
3
3
3
3
3
3
3
3
3
3
3
3
3
3.00001
3.00001
3.00001
3.00001
3.00001
3
3
3
3
3
3
3
3
3
3
3
3
3
3
3
3
3
3
3
3
3
3
3
3
3
3
3
3
3
3
3
3
3
3
3
3
3
3
3
3
3
3
3
3
3
3
3
