# vtk DataFile Version 3.0
Brusselator Concentration Output
ASCII
DATASET STRUCTURED_POINTS
DIMENSIONS 40 40 1
ORIGIN 0.0 0.0 0.0
SPACING 0.005 0.005 1.0
POINT_DATA 1600
SCALARS C1 double 1
LOOKUP_TABLE default
1
1
0.999999
0.999999
0.999998
1
1
1.00001
1.00002
1.00003
1.00003
1.00003
1.00002
1.00001
1
1
0.999998
0.999999
0.999999
1
1
1
1
1
1
1
1
1
1
1
1
1
1
1
1
1
1
1
1
1
1
0.999999
0.999999
0.999999
1
1.00001
1.00002
1.00004
1.00006
1.00008
1.00009
1.00008
1.00006
1.00004
1.00002
1.00001
1
0.999999
0.999999
0.999999
1
1
1
1
1
1
1
1
1
1
1
1
1
1
1
1
1
1
1
1
0.999999
0.999999
0.999999
1
1.00001
1.00004
1.00008
1.00013
1.00018
1.00021
1.00022
1.00021
1.00018
1.00013
1.00008
1.00004
1.00001
1
0.999999
0.999999
0.999999
1
1
1
1
1
1
1
1
1
1
1
1
1
1
1
1
1
1
1
0.999999
0.999999
1
1.00002
1.00005
1.00012
1.00021
1.0003
1.00037
1.0004
1.00041
1.0004
1.00037
1.0003
1.00021
1.00012
1.00005
1.00002
1
0.999999
0.999999
1
1
1
1
1
1
1
1
1
1
1
1
1
1
1
1
1
1
1
0.999998
1
1.00001
1.00005
1.00013
1.00026
1.00041
1.00051
1.00051
1.00045
1.00041
1.00045
1.00051
1.00051
1.00041
1.00026
1.00013
1.00005
1.00001
1
0.999999
0.999999
1
1
1
1
1
1
1
1
1
1
1
1
1
1
1
1
1
1
1
1.00001
1.00004
1.00012
1.00026
1.00045
1.00058
1.00051
1.00018
0.99977
0.999588
0.99977
1.00018
1.00051
1.00058
1.00045
1.00026
1.00012
1.00004
1.00001
1
0.999999
0.999999
1
1
1
1
1
1
1
1
1
1
1
1
1
1
1
1
1
1
1.00002
1.00008
1.00021
1.00041
1.00058
1.00048
0.999832
0.998666
0.997504
0.997022
0.997504
0.998666
0.999832
1.00048
1.00058
1.00041
1.00021
1.00008
1.00002
1
1
0.999999
1
1
1
1
1
1
1
1
1
1
1
1
1
1
1
1
1
1.00001
1.00004
1.00013
1.0003
1.00051
1.00051
0.999832
0.998088
0.995529
0.993207
0.992285
0.993207
0.995529
0.998088
0.999832
1.00051
1.00051
1.0003
1.00013
1.00004
1.00001
1
1
1
1
1
1
1
1
1
1
1
1
1
1
1
1
1
1
1
1.00002
1.00006
1.00018
1.00037
1.00051
1.00018
0.998666
0.995529
0.991352
0.987788
0.986421
0.987788
0.991352
0.995529
0.998666
1.00018
1.00051
1.00037
1.00018
1.00006
1.00002
1
1
1
1
1
1
1
1
1
1
1
1
1
1
1
1
1
1
1
1.00003
1.00008
1.00021
1.0004
1.00045
0.99977
0.997504
0.993207
0.987788
0.98335
0.981691
0.98335
0.987788
0.993207
0.997504
0.99977
1.00045
1.0004
1.00021
1.00008
1.00002
1
1
1
1
1
1
1
1
1
1
1
1
1
1
1
1
1
1
1
1.00003
1.00009
1.00022
1.00041
1.00041
0.999588
0.997022
0.992285
0.986421
0.981691
0.979942
0.981691
0.986421
0.992285
0.997022
0.999588
1.00041
1.00041
1.00022
1.00009
1.00002
1
1
1
1
1
1
1
1
1
1
1
1
1
1
1
1
1
1
1
1.00003
1.00008
1.00021
1.0004
1.00045
0.99977
0.997504
0.993207
0.987788
0.98335
0.981691
0.98335
0.987788
0.993207
0.997504
0.99977
1.00045
1.0004
1.00021
1.00008
1.00002
1
1
1
1
1
1
1
1
1
1
1
1
1
1
1
1
1
1
1
1.00002
1.00006
1.00018
1.00037
1.00051
1.00018
0.998666
0.995529
0.991352
0.987788
0.986421
0.987788
0.991352
0.995529
0.998666
1.00018
1.00051
1.00037
1.00018
1.00006
1.00002
1
1
1
1
1
1
1
1
1
1
1
1
1
1
1
1
1
1
1
1.00001
1.00004
1.00013
1.0003
1.00051
1.00051
0.999832
0.998088
0.995529
0.993207
0.992285
0.993207
0.995529
0.998088
0.999832
1.00051
1.00051
1.0003
1.00013
1.00004
1.00001
1
1
1
1
1
1
1
1
1
1
1
1
1
1
1
1
1
1
1
1
1.00002
1.00008
1.00021
1.00041
1.00058
1.00048
0.999832
0.998666
0.997504
0.997022
0.997504
0.998666
0.999832
1.00048
1.00058
1.00041
1.00021
1.00008
1.00002
1
1
0.999999
1
1
1
1
1
1
1
1
1
1
1
1
1
1
1
1
1
1
1.00001
1.00004
1.00012
1.00026
1.00045
1.00058
1.00051
1.00018
0.99977
0.999588
0.99977
1.00018
1.00051
1.00058
1.00045
1.00026
1.00012
1.00004
1.00001
1
0.999999
1
1
1
1
1
1
1
1
1
1
1
1
1
1
1
1
1
1
0.999998
1
1.00001
1.00005
1.00013
1.00026
1.00041
1.00051
1.00051
1.00045
1.00041
1.00045
1.00051
1.00051
1.00041
1.00026
1.00013
1.00005
1.00001
1
0.999999
0.999999
1
1
1
1
1
1
1
1
1
1
1
1
1
1
1
1
1
1
0.999999
0.999999
1
1.00002
1.00005
1.00012
1.00021
1.0003
1.00037
1.0004
1.00041
1.0004
1.00037
1.0003
1.00021
1.00012
1.00005
1.00002
1
0.999999
0.999999
1
1
1
1
1
1
1
1
1
1
1
1
1
1
1
1
1
1
1
0.999999
0.999999
0.999999
1
1.00001
1.00004
1.00008
1.00013
1.00018
1.00021
1.00022
1.00021
1.00018
1.00013
1.00008
1.00004
1.00001
1
0.999999
0.999999
0.999999
1
1
1
1
1
1
1
1
1
1
1
1
1
1
1
1
1
1
1
1
0.999999
0.999999
0.999999
1
1.00001
1.00002
1.00004
1.00006
1.00008
1.00009
1.00008
1.00006
1.00004
1.00002
1.00001
1
0.999999
0.999999
0.999999
1
1
1
1
1
1
1
1
0.999999
0.999999
0.999999
0.999999
0.999999
1
1
1
1
1
1
1
1
1
0.999999
0.999999
0.999999
1
1
1.00001
1.00002
1.00002
1.00002
1.00002
1.00002
1.00001
1
1
0.999999
0.999999
0.999999
1
1
1
1
1
1
1
0.999999
0.999997
0.999994
0.999992
0.999991
0.999992
0.999994
0.999997
0.999999
1
1
1
1
1
1
1
1
1
0.999999
0.999999
1
1
1
1
1
1
1
1
1
0.999999
0.999999
1
1
1
1
1
1
1
1
0.999997
0.999992
0.999984
0.999976
0.999969
0.999966
0.999969
0.999976
0.999984
0.999992
0.999997
1
1
1
1
1
1
1
1
1
0.999999
0.999999
1
1
1
1
1
1
1
0.999999
1
1
1
1
1
1
1
1
1
0.999996
0.999986
0.999969
0.999947
0.999926
0.999911
0.999905
0.999911
0.999926
0.999947
0.999969
0.999986
0.999996
1
1
1
1
1
1
1
1
1
1
1
1
1
1
1
1
1
1
1
1
1
1
1
1
1
1
0.999995
0.999982
0.999955
0.999915
0.999868
0.999829
0.999806
0.9998
0.999806
0.999829
0.999868
0.999915
0.999955
0.999982
0.999995
1
1
1
1
1
1
1
1
1
1
1
1
1
1
1
1
1
1
1
1
1
1
1
1
0.999996
0.999982
0.999949
0.999892
0.999816
0.999747
0.999711
0.999709
0.999714
0.999709
0.999711
0.999747
0.999816
0.999892
0.999949
0.999982
0.999996
1
1
1
1
1
1
1
1
1
1
1
1
1
1
1
1
1
1
1
1
1
1
0.999997
0.999986
0.999955
0.999892
0.999795
0.999697
0.999657
0.999716
0.999826
0.999881
0.999826
0.999716
0.999657
0.999697
0.999795
0.999892
0.999956
0.999986
0.999997
1
1
1
1
1
1
1
1
1
1
1
1
1
1
1
1
1
1
1
1
0.999999
0.999992
0.999969
0.999915
0.999816
0.999697
0.999644
0.999778
1.00013
1.00053
1.00071
1.00053
1.00013
0.999778
0.999644
0.999697
0.999816
0.999915
0.99997
0.999991
1
1
1
1
1
1
1
1
1
1
1
1
1
1
1
1
1
1
1
1
0.999997
0.999984
0.999947
0.999868
0.999747
0.999657
0.999778
1.00031
1.00123
1.00215
1.00254
1.00215
1.00123
1.00031
0.999778
0.999657
0.999747
0.999868
0.999947
0.999981
1
1
1
1
1
1
1
1
1
1
1
1
1
1
1
1
1
1
1
0.999999
0.999994
0.999976
0.999926
0.999829
0.999711
0.999716
1.00013
1.00123
1.0029
1.00447
1.00511
1.00447
1.0029
1.00123
1.00013
0.999716
0.999711
0.999829
0.999925
0.99997
1
1
1
1
1
1
1
1
1
1
1
1
1
1
1
1
1
1
1
0.999999
0.999992
0.999969
0.999911
0.999806
0.999709
0.999826
1.00053
1.00215
1.00447
1.00658
1.00741
1.00658
1.00447
1.00215
1.00053
0.999826
0.999709
0.999806
0.999909
0.999961
1
1
1
1
1
1
1
1
1
1
1
1
1
1
1
1
1
1
1
0.999999
0.999991
0.999966
0.999905
0.9998
0.999714
0.999881
1.00071
1.00254
1.00511
1.00741
1.00833
1.00741
1.00511
1.00254
1.00071
0.999881
0.999714
0.9998
0.999904
0.999958
1
1
1
1
1
1
1
1
1
1
1
1
1
1
1
1
1
1
1
0.999999
0.999992
0.999969
0.999911
0.999806
0.999709
0.999826
1.00053
1.00215
1.00447
1.00658
1.00741
1.00658
1.00447
1.00215
1.00053
0.999826
0.999709
0.999806
0.999909
0.999961
1
1
1
1
1
1
1
1
1
1
1
1
1
1
1
1
1
1
1
0.999999
0.999994
0.999976
0.999926
0.999829
0.999711
0.999716
1.00013
1.00123
1.0029
1.00447
1.00511
1.00447
1.0029
1.00123
1.00013
0.999716
0.999711
0.999829
0.999925
0.99997
1
1
1
1
1
1
1
1
1
1
1
1
1
1
1
1
1
1
1
1
0.999997
0.999984
0.999947
0.999868
0.999747
0.999657
0.999778
1.00031
1.00123
1.00215
1.00254
1.00215
1.00123
1.00031
0.999778
0.999657
0.999747
0.999868
0.999947
0.999981
1
1
1
1
1
1
1
1
1
1
1
1
1
1
1
1
1
1
1
1
0.999999
0.999992
0.999969
0.999915
0.999816
0.999697
0.999644
0.999778
1.00013
1.00053
1.00071
1.00053
1.00013
0.999778
0.999644
0.999697
0.999816
0.999915
0.99997
0.999991
1
1
1
1
1
1
1
1
1
1
1
1
1
1
1
1
1
1
1
1
1
0.999997
0.999986
0.999955
0.999892
0.999795
0.999697
0.999657
0.999716
0.999826
0.999881
0.999826
0.999716
0.999657
0.999697
0.999795
0.999892
0.999956
0.999986
0.999997
1
1
1
1
1
1
1
1
1
1
1
1
1
1
1
1
1
1
1
1
1
1
0.999996
0.999982
0.999949
0.999892
0.999816
0.999747
0.999711
0.999709
0.999714
0.999709
0.999711
0.999747
0.999816
0.999892
0.99995
0.999982
0.999996
1
1
1
1
1
1
1
1
1
1
1
1
1
1
1
1
1
1
1
1
1
1
1
1
0.999995
0.999982
0.999956
0.999915
0.999868
0.999829
0.999806
0.9998
0.999806
0.999829
0.999868
0.999915
0.999956
0.999982
0.999995
1
1
1
1
1
1
1
1
1
1
1
1
1
1
1
1
1
1
1
1
1
1
1
1
1
1
0.999996
0.999986
0.99997
0.999947
0.999925
0.999909
0.999904
0.999909
0.999925
0.999947
0.99997
0.999986
0.999996
1
1
1
1
1
1
1
1
1
1
1
1
1
1
1
1
1
1
1
1
1
1
1
1
1
1
1
1
0.999997
0.999991
0.999981
0.99997
0.999961
0.999958
0.999961
0.99997
0.999981
0.999991
0.999997
1
1
1
1
SCALARS C2 double 1
LOOKUP_TABLE default
2
2
2
2
2
2.00001
2.00001
2
2
1.99999
1.99999
1.99999
2
2
2.00001
2.00001
2
2
2
2
2
2
2
2
2
2
2
2
2
2
2
2
2
2
2
2
2
2
2
2
2
2
2
2
2
2
2
1.99998
1.99996
1.99994
1.99993
1.99994
1.99996
1.99998
2
2
2
2
2
2
2
2
2
2
2
2
2
2
2
2
2
2
2
2
2
2
2
2
2
2
2
2
2
2.00001
2
1.99998
1.99995
1.99988
1.99981
1.99976
1.99974
1.99976
1.99981
1.99988
1.99995
1.99998
2
2.00001
2
2
2
2
2
2
2
2
2
2
2
2
2
2
2
2
2
2
2
2
2
2
2
2
2.00001
2
1.99998
1.99991
1.99979
1.99962
1.99944
1.99931
1.99927
1.99931
1.99944
1.99962
1.99979
1.99991
1.99998
2
2
2
2
2
2
2
2
2
2
2
2
2
2
2
2
2
2
2
2
2
2
2
2
2
2
1.99998
1.9999
1.99973
1.99943
1.99907
1.99873
1.99853
1.99846
1.99853
1.99873
1.99907
1.99943
1.99973
1.9999
1.99998
2
2
2
2
2
2
2
2
2
2
2
2
2
2
2
2
2
2
2
2
2
2
2.00001
2
1.99998
1.99991
1.99973
1.99936
1.99881
1.99822
1.99782
1.99768
1.99767
1.99768
1.99782
1.99822
1.99881
1.99936
1.99973
1.99991
1.99998
2
2
2
2
2
2
2
2
2
2
2
2
2
2
2
2
2
2
2
2
2
2.00001
2
1.99995
1.99979
1.99943
1.99881
1.99802
1.99743
1.99738
1.99777
1.99802
1.99777
1.99738
1.99743
1.99802
1.99881
1.99943
1.99979
1.99995
1.99999
2
2
2
2
2
2
2
2
2
2
2
2
2
2
2
2
2
2
2
2
2
1.99998
1.99988
1.99962
1.99907
1.99822
1.99743
1.99737
1.99851
2.00023
2.00107
2.00023
1.99851
1.99737
1.99743
1.99822
1.99907
1.99962
1.99988
1.99998
2
2
2
2
2
2
2
2
2
2
2
2
2
2
2
2
2
2
2
2
2
1.99996
1.99981
1.99944
1.99873
1.99782
1.99738
1.99851
2.00166
2.00542
2.00713
2.00542
2.00166
1.99851
1.99738
1.99782
1.99873
1.99944
1.99981
1.99996
2
2
2
2
2
2
2
2
2
2
2
2
2
2
2
2
2
2
2
2
1.99999
1.99994
1.99976
1.99931
1.99853
1.99768
1.99777
2.00023
2.00542
2.01115
2.01369
2.01115
2.00542
2.00023
1.99777
1.99768
1.99853
1.99931
1.99976
1.99994
1.99999
2
2
2
2
2
2
2
2
2
2
2
2
2
2
2
2
2
2
2
1.99999
1.99993
1.99974
1.99927
1.99846
1.99767
1.99802
2.00107
2.00713
2.01369
2.01657
2.01369
2.00713
2.00107
1.99802
1.99767
1.99846
1.99927
1.99973
1.99993
1.99999
2
2
2
2
2
2
2
2
2
2
2
2
2
2
2
2
2
2
2
1.99999
1.99994
1.99976
1.99931
1.99853
1.99768
1.99777
2.00023
2.00542
2.01115
2.01369
2.01115
2.00542
2.00023
1.99777
1.99768
1.99853
1.99931
1.99976
1.99994
1.99999
2
2
2
2
2
2
2
2
2
2
2
2
2
2
2
2
2
2
2
2
1.99996
1.99981
1.99944
1.99873
1.99782
1.99738
1.99851
2.00166
2.00542
2.00713
2.00542
2.00166
1.99851
1.99738
1.99782
1.99873
1.99944
1.99981
1.99996
2
2
2
2
2
2
2
2
2
2
2
2
2
2
2
2
2
2
2
2
2
1.99998
1.99988
1.99962
1.99907
1.99822
1.99743
1.99737
1.99851
2.00023
2.00107
2.00023
1.99851
1.99737
1.99743
1.99822
1.99907
1.99962
1.99988
1.99998
2
2
2
2
2
2
2
2
2
2
2
2
2
2
2
2
2
2
2
2
2.00001
2
1.99995
1.99979
1.99943
1.99881
1.99802
1.99743
1.99738
1.99777
1.99802
1.99777
1.99738
1.99743
1.99802
1.99881
1.99943
1.99979
1.99995
1.99999
2
2
2
2
2
2
2
2
2
2
2
2
2
2
2
2
2
2
2
2
2.00001
2
1.99998
1.99991
1.99973
1.99936
1.99881
1.99822
1.99782
1.99768
1.99767
1.99768
1.99782
1.99822
1.99881
1.99936
1.99973
1.99991
1.99998
2
2
2
2
2
2
2
2
2
2
2
2
2
2
2
2
2
2
2
2
2
2
2
2
1.99998
1.9999
1.99973
1.99943
1.99907
1.99873
1.99853
1.99846
1.99853
1.99873
1.99907
1.99943
1.99973
1.9999
1.99998
2
2
2
2
2
2
2
2
2
2
2
2
2
2
2
2
2
2
2
2
2
2
2
2
2.00001
2
1.99998
1.99991
1.99979
1.99962
1.99944
1.99931
1.99927
1.99931
1.99944
1.99962
1.99979
1.99991
1.99998
2
2
2
2
2
2
2
2
2
2
2
2
2
2
2
2
2
2
2
2
2
2
2
2
2
2
2
2
1.99998
1.99995
1.99988
1.99981
1.99976
1.99973
1.99976
1.99981
1.99988
1.99995
1.99998
2
2
2
2
2
2
2
2
2
2
2
2
2
2
2
2
2
2
2
2
2
2
2
2
2
2
2
2
2
2
1.99999
1.99998
1.99996
1.99994
1.99993
1.99994
1.99996
1.99998
1.99999
2
2
2
2
2
2
2
2
2
2
2
2
2
2
2
2
2
2
2
2
2
2
2
2
2
2
2
2
2
2
2
2
2
2
1.99999
1.99999
1.99999
2
2
2
2
2
2
2
2
2
2
2
2
2
2
2
2
2
2
2
2
2
2
2
2
2
2
2
2
2
2
2
2
2
2
2
2
2
2
2
2
2
2
2
2
2
2
2
2
2
2
2
2
2
2
2
2.00001
2.00001
2.00002
2.00002
2.00002
2.00001
2.00001
2
2
2
2
2
2
2
2
2
2
2
2
2
2
2
2
2
2
2
2
2
2
2
2
2
2
2
2
2
2
2
2
2.00002
2.00004
2.00007
2.00009
2.0001
2.00009
2.00007
2.00004
2.00002
2
2
2
2
2
2
2
2
2
2
2
2
2
2
2
2
2
2
2
2
2
2
2
2
2
2
2
2
2
2
2.00003
2.00007
2.00014
2.00022
2.00028
2.0003
2.00028
2.00022
2.00014
2.00007
2.00003
2
2
2
2
2
2
2
2
2
2
2
2
2
2
2
2
2
2
2
2
2
2
2
2
2
2
2
2
2.00003
2.0001
2.00022
2.00038
2.00055
2.00066
2.0007
2.00066
2.00055
2.00038
2.00022
2.0001
2.00003
2
2
2
2
2
2
2
2
2
2
2
2
2
2
2
2
2
2
2
2
2
2
2
2
2
2
2.00003
2.0001
2.00025
2.0005
2.0008
2.00106
2.00121
2.00125
2.00121
2.00106
2.0008
2.0005
2.00025
2.0001
2.00003
2
2
2
2
2
2
2
2
2
2
2
2
2
2
2
2
2
2
2
2
2
2
2
2
2.00002
2.00007
2.00022
2.0005
2.00091
2.00132
2.00157
2.00161
2.00158
2.00161
2.00157
2.00132
2.00091
2.0005
2.00022
2.00007
2.00001
2
2
2
2
2
2
2
2
2
2
2
2
2
2
2
2
2
2
2
2
2
2
2.00001
2.00004
2.00014
2.00038
2.0008
2.00132
2.00169
2.00163
2.00125
2.00102
2.00125
2.00163
2.00169
2.00132
2.0008
2.00038
2.00014
2.00004
2
2
2
2
2
2
2
2
2
2
2
2
2
2
2
2
2
2
2
2
2
2
2.00001
2.00007
2.00022
2.00055
2.00106
2.00157
2.00163
2.00092
1.99977
1.9992
1.99977
2.00092
2.00163
2.00157
2.00106
2.00055
2.00022
2.00007
2.00001
2
2
2
2
2
2
2
2
2
2
2
2
2
2
2
2
2
2
2
2
2
2.00002
2.00009
2.00028
2.00066
2.00121
2.00161
2.00125
1.99977
1.9978
1.99685
1.9978
1.99977
2.00125
2.00161
2.00121
2.00066
2.00028
2.00009
2.00002
2
2
2
2
2
2
2
2
2
2
2
2
2
2
2
2
2
2
2
2
2
2.00002
2.0001
2.0003
2.0007
2.00125
2.00158
2.00102
1.9992
1.99685
1.99575
1.99685
1.9992
2.00102
2.00158
2.00125
2.0007
2.0003
2.0001
2.00003
2
2
2
2
2
2
2
2
2
2
2
2
2
2
2
2
2
2
2
2
2
2.00002
2.00009
2.00028
2.00066
2.00121
2.00161
2.00125
1.99977
1.9978
1.99685
1.9978
1.99977
2.00125
2.00161
2.00121
2.00066
2.00028
2.00009
2.00002
2
2
2
2
2
2
2
2
2
2
2
2
2
2
2
2
2
2
2
2
2
2.00001
2.00007
2.00022
2.00055
2.00106
2.00157
2.00163
2.00092
1.99977
1.9992
1.99977
2.00092
2.00163
2.00157
2.00106
2.00055
2.00022
2.00007
2.00001
2
2
2
2
2
2
2
2
2
2
2
2
2
2
2
2
2
2
2
2
2
2.00001
2.00004
2.00014
2.00038
2.0008
2.00132
2.00169
2.00163
2.00125
2.00102
2.00125
2.00163
2.00169
2.00132
2.0008
2.00038
2.00014
2.00004
2
2
2
2
2
2
2
2
2
2
2
2
2
2
2
2
2
2
2
2
2
2
2
2.00002
2.00007
2.00022
2.0005
2.00091
2.00132
2.00157
2.00161
2.00158
2.00161
2.00157
2.00132
2.00091
2.0005
2.00022
2.00007
2.00001
2
2
2
2
2
2
2
2
2
2
2
2
2
2
2
2
2
2
2
2
2
2
2
2
2.00003
2.0001
2.00025
2.0005
2.0008
2.00106
2.00121
2.00125
2.00121
2.00106
2.0008
2.0005
2.00025
2.0001
2.00003
2
2
2
2
2
2
2
2
2
2
2
2
2
2
2
2
2
2
2
2
2
2
2
2
2
2
2.00003
2.0001
2.00022
2.00038
2.00055
2.00066
2.0007
2.00066
2.00055
2.00038
2.00022
2.0001
2.00003
2
2
2
2
2
2
2
2
2
2
2
2
2
2
2
2
2
2
2
2
2
2
2
2
2
2
2
2
2.00003
2.00007
2.00014
2.00022
2.00028
2.0003
2.00028
2.00022
2.00014
2.00007
2.00003
2
2
2
2
2
2
2
2
2
2
2
2
2
2
2
2
2
2
2
2
2
2
2
2
2
2
2
2
2
2
2.00001
2.00004
2.00007
2.00009
2.0001
2.00009
2.00007
2.00004
2.00001
2
2
2
2
2
2
2
2
2
2
2
2
2
2
2
2
2
2
2
2
2
2
2
2
2
2
2
2
2
2
2
2
2
2.00001
2.00002
2.00003
2.00002
2.00001
2
2
2
2
2
2
2
