# vtk DataFile Version 3.0
Brusselator Concentration Output
ASCII
DATASET STRUCTURED_POINTS
DIMENSIONS 40 40 1
ORIGIN 0.0 0.0 0.0
SPACING 0.005 0.005 1.0
POINT_DATA 1600
SCALARS C1 double 1
LOOKUP_TABLE default
0.999973
0.99998
0.999998
1.00003
1.00009
1.00017
1.00027
1.00036
1.00044
1.00049
1.00051
1.00049
1.00044
1.00036
1.00027
1.00017
1.00009
1.00004
1
0.999987
0.999985
0.999988
0.999993
0.999996
0.999999
1
1
1
1
1
1
1
1
1
1
1
1
1
1
1
0.99998
0.999995
1.00003
1.00009
1.00018
1.00029
1.0004
1.00051
1.00059
1.00064
1.00066
1.00064
1.00059
1.00051
1.0004
1.00029
1.00018
1.00009
1.00003
1
0.99999
0.999989
0.999992
0.999996
0.999998
0.999999
1
1
1
1
1
1
1
1
1
1
1
1
1
1
0.999998
1.00003
1.0001
1.0002
1.00034
1.00049
1.00063
1.00074
1.00081
1.00085
1.00086
1.00085
1.00081
1.00074
1.00063
1.00049
1.00034
1.0002
1.0001
1.00004
1
0.999993
0.999992
0.999994
0.999997
0.999999
1
1
1
1
1
1
1
1
1
1
1
1
1
1
1.00003
1.00009
1.0002
1.00036
1.00055
1.00073
1.00086
1.00094
1.00096
1.00095
1.00095
1.00095
1.00096
1.00094
1.00086
1.00073
1.00055
1.00037
1.00021
1.0001
1.00003
1
0.999993
0.999993
0.999996
0.999998
0.999999
1
1
1
1
1
1
1
1
1
1
1
1
1
1.00009
1.00018
1.00034
1.00055
1.00076
1.00093
1.00099
1.00095
1.00084
1.00074
1.0007
1.00074
1.00084
1.00095
1.00099
1.00093
1.00077
1.00055
1.00034
1.00018
1.00007
1.00002
0.999998
0.999993
0.999995
0.999997
0.999999
1
1
1
1
1
1
1
1
1
1
1
1
1
1.00017
1.00029
1.00049
1.00073
1.00093
1.001
1.0009
1.00065
1.00032
1.00006
0.999959
1.00006
1.00032
1.00065
1.0009
1.001
1.00093
1.00073
1.00049
1.00028
1.00013
1.00004
1.00001
0.999995
0.999994
0.999996
0.999998
0.999999
1
1
1
1
1
1
1
1
1
1
1
1
1.00027
1.0004
1.00063
1.00086
1.00099
1.0009
1.00055
0.999992
0.999384
0.998916
0.99874
0.998916
0.999384
0.999992
1.00055
1.0009
1.001
1.00087
1.00063
1.00038
1.00019
1.00008
1.00002
0.999998
0.999994
0.999996
0.999998
0.999999
1
1
1
1
1
1
1
1
1
1
1
1
1.00036
1.00051
1.00074
1.00094
1.00095
1.00065
0.999992
0.999094
0.998175
0.99749
0.997238
0.99749
0.998175
0.999094
0.999993
1.00065
1.00096
1.00094
1.00074
1.00047
1.00025
1.00011
1.00003
1
0.999995
0.999995
0.999997
0.999999
1
1
1
1
1
1
1
1
1
1
1
1
1.00044
1.00059
1.00081
1.00096
1.00084
1.00032
0.999384
0.998175
0.996979
0.996107
0.995788
0.996107
0.99698
0.998175
0.999385
1.00033
1.00085
1.00096
1.00081
1.00054
1.0003
1.00014
1.00005
1.00001
0.999996
0.999995
0.999997
0.999999
1
1
1
1
1
1
1
1
1
1
1
1
1.00049
1.00064
1.00085
1.00095
1.00074
1.00006
0.998916
0.99749
0.996107
0.995107
0.994744
0.995107
0.996107
0.997491
0.998917
1.00006
1.00074
1.00096
1.00084
1.00059
1.00033
1.00015
1.00005
1.00001
0.999996
0.999995
0.999997
0.999999
0.999999
1
1
1
1
1
1
1
1
1
1
1
1.00051
1.00066
1.00086
1.00095
1.0007
0.999959
0.99874
0.997238
0.995788
0.994744
0.994365
0.994744
0.995788
0.997238
0.998742
0.999962
1.0007
1.00095
1.00085
1.0006
1.00035
1.00016
1.00006
1.00001
0.999997
0.999995
0.999997
0.999999
0.999999
1
1
1
1
1
1
1
1
1
1
1
1.00049
1.00064
1.00085
1.00095
1.00074
1.00006
0.998916
0.99749
0.996107
0.995107
0.994744
0.995107
0.996107
0.997491
0.998917
1.00006
1.00074
1.00096
1.00084
1.00059
1.00033
1.00015
1.00005
1.00001
0.999996
0.999995
0.999997
0.999999
1
1
1
1
1
1
1
1
1
1
1
1
1.00044
1.00059
1.00081
1.00096
1.00084
1.00032
0.999384
0.998175
0.99698
0.996107
0.995788
0.996107
0.99698
0.998175
0.999385
1.00033
1.00085
1.00096
1.00081
1.00054
1.0003
1.00014
1.00004
1.00001
0.999996
0.999995
0.999997
0.999999
1
1
1
1
1
1
1
1
1
1
1
1
1.00036
1.00051
1.00074
1.00094
1.00095
1.00065
0.999992
0.999094
0.998175
0.997491
0.997238
0.997491
0.998175
0.999095
0.999993
1.00065
1.00096
1.00094
1.00074
1.00047
1.00025
1.00011
1.00003
1
0.999995
0.999996
0.999998
0.999999
1
1
1
1
1
1
1
1
1
1
1
1
1.00027
1.0004
1.00063
1.00086
1.00099
1.0009
1.00055
0.999993
0.999385
0.998917
0.998742
0.998917
0.999385
0.999993
1.00055
1.0009
1.001
1.00087
1.00063
1.00038
1.00019
1.00008
1.00002
0.999998
0.999995
0.999996
0.999999
1
1
1
1
1
1
1
1
1
1
1
1
1
1.00017
1.00029
1.00049
1.00073
1.00093
1.001
1.0009
1.00065
1.00033
1.00006
0.999962
1.00006
1.00033
1.00065
1.0009
1.00101
1.00093
1.00073
1.00049
1.00028
1.00013
1.00004
1.00001
0.999996
0.999995
0.999998
1
1
1
1
1
1
1
1
1
1
1
1
1
1
1.00009
1.00018
1.00034
1.00055
1.00077
1.00093
1.001
1.00096
1.00085
1.00074
1.0007
1.00074
1.00085
1.00096
1.001
1.00093
1.00077
1.00056
1.00035
1.00018
1.00007
1.00002
0.999999
0.999995
0.999997
1
1
1
1
1
1
1
1
1
1
1
1
1
1
1
1.00004
1.00009
1.0002
1.00037
1.00055
1.00073
1.00087
1.00094
1.00096
1.00096
1.00095
1.00096
1.00096
1.00094
1.00087
1.00073
1.00056
1.00037
1.00021
1.0001
1.00003
1
0.999996
0.999997
1
1
1
1
1
0.999999
0.999999
0.999999
1
1
1
1
1
1
1
1
1
1.00003
1.0001
1.00021
1.00034
1.00049
1.00063
1.00074
1.00081
1.00084
1.00085
1.00084
1.00081
1.00074
1.00063
1.00049
1.00035
1.00021
1.00011
1.00004
1.00001
0.999997
0.999996
0.999999
1
1
0.999997
0.999992
0.999988
0.999984
0.999983
0.999984
0.999988
0.999992
0.999997
1
1
1
1.00001
1
0.999987
1
1.00004
1.0001
1.00018
1.00028
1.00038
1.00047
1.00054
1.00059
1.0006
1.00059
1.00054
1.00047
1.00038
1.00028
1.00018
1.0001
1.00004
1.00001
0.999998
0.999996
0.999998
0.999999
0.999995
0.999988
0.999976
0.999964
0.999952
0.999944
0.999942
0.999944
0.999952
0.999964
0.999977
0.999988
0.999998
1
1.00001
1.00001
0.999985
0.99999
1
1.00003
1.00007
1.00013
1.00019
1.00025
1.0003
1.00033
1.00035
1.00033
1.0003
1.00025
1.00019
1.00013
1.00007
1.00003
1.00001
0.999998
0.999996
0.999998
0.999997
0.99999
0.999977
0.999955
0.99993
0.999903
0.999881
0.999866
0.999861
0.999866
0.999881
0.999903
0.99993
0.999956
0.999978
0.999995
1
1.00001
0.999988
0.999989
0.999993
1
1.00002
1.00004
1.00008
1.00011
1.00014
1.00015
1.00016
1.00015
1.00014
1.00011
1.00008
1.00004
1.00002
1
0.999997
0.999996
0.999998
0.999996
0.999987
0.999967
0.999935
0.999893
0.999846
0.999801
0.999765
0.999743
0.999735
0.999742
0.999765
0.999801
0.999846
0.999894
0.999937
0.999972
0.999994
1.00001
0.999993
0.999992
0.999992
0.999993
0.999998
1.00001
1.00002
1.00003
1.00005
1.00005
1.00006
1.00005
1.00004
1.00003
1.00002
1.00001
0.999999
0.999996
0.999996
0.999998
0.999997
0.999987
0.999964
0.999922
0.999864
0.999794
0.999724
0.999662
0.999617
0.999591
0.999582
0.999591
0.999617
0.999662
0.999724
0.999795
0.999866
0.999927
0.99997
0.999991
0.999996
0.999996
0.999994
0.999993
0.999993
0.999995
0.999998
1
1.00001
1.00001
1.00001
1.00001
1.00001
1
0.999998
0.999996
0.999995
0.999997
0.999999
0.999999
0.99999
0.999967
0.999922
0.999853
0.999764
0.999668
0.999582
0.999518
0.999479
0.999461
0.999456
0.999461
0.999479
0.999518
0.999583
0.99967
0.999767
0.999857
0.999925
0.999961
0.999999
0.999998
0.999997
0.999996
0.999995
0.999994
0.999994
0.999995
0.999996
0.999996
0.999997
0.999996
0.999996
0.999995
0.999995
0.999995
0.999997
1
1
0.999995
0.999977
0.999935
0.999864
0.999764
0.999648
0.999539
0.99946
0.999422
0.999419
0.999431
0.999438
0.999431
0.999419
0.999423
0.999461
0.999542
0.999652
0.999767
0.999861
0.999913
1
0.999999
0.999999
0.999998
0.999997
0.999996
0.999996
0.999995
0.999995
0.999995
0.999995
0.999995
0.999995
0.999996
0.999996
0.999998
1
1
1
0.999988
0.999955
0.999893
0.999794
0.999668
0.999539
0.999443
0.999406
0.999436
0.999506
0.999575
0.999603
0.999575
0.999506
0.999436
0.999408
0.999446
0.999543
0.999669
0.999782
0.999849
1
1
1
0.999999
0.999999
0.999998
0.999998
0.999997
0.999997
0.999997
0.999997
0.999997
0.999997
0.999998
0.999999
1
1
1
0.999997
0.999976
0.99993
0.999846
0.999724
0.999582
0.99946
0.999406
0.999452
0.999588
0.999768
0.999917
0.999975
0.999917
0.999768
0.999589
0.999454
0.99941
0.999463
0.999579
0.9997
0.999775
1
1
1
1
1
0.999999
0.999999
0.999999
0.999999
0.999999
0.999999
0.999999
0.999999
0.999999
1
1
1
1
0.999992
0.999964
0.999903
0.999801
0.999662
0.999518
0.999422
0.999436
0.999588
0.999857
1.00016
1.00041
1.0005
1.00041
1.00016
0.999858
0.999591
0.999439
0.999424
0.99951
0.999626
0.999705
1
1
1
1
1
1
1
1
1
0.999999
0.999999
1
1
1
1
1
1
1
0.999988
0.999952
0.999881
0.999765
0.999617
0.999479
0.999419
0.999506
0.999768
1.00016
1.00059
1.00092
1.00104
1.00092
1.00059
1.00016
0.99977
0.999509
0.99942
0.999467
0.99957
0.999646
1
1
1
1
1
1
1
1
1
1
1
1
1
1
1
1
1
0.999999
0.999984
0.999944
0.999866
0.999743
0.999591
0.999461
0.999431
0.999575
0.999917
1.00041
1.00092
1.0013
1.00145
1.0013
1.00092
1.00041
0.99992
0.999578
0.999431
0.999445
0.999535
0.999609
1
1
1
1
1
1
1
1
1
1
1
1
1
1
1
1
1
0.999999
0.999983
0.999942
0.999861
0.999735
0.999582
0.999456
0.999438
0.999603
0.999975
1.0005
1.00104
1.00145
1.0016
1.00145
1.00104
1.0005
0.999978
0.999606
0.999437
0.999439
0.999524
0.999596
1
1
1
1
1
1
1
1
1
1
1
1
1
1
1
1
1
0.999999
0.999984
0.999944
0.999866
0.999742
0.999591
0.999461
0.999431
0.999575
0.999917
1.00041
1.00092
1.0013
1.00145
1.0013
1.00092
1.00041
0.99992
0.999578
0.999431
0.999445
0.999535
0.999609
1
1
1
1
1
1
1
1
1
1
1
1
1
1
1
1
1
1
0.999988
0.999952
0.999881
0.999765
0.999617
0.999479
0.999419
0.999506
0.999768
1.00016
1.00059
1.00092
1.00104
1.00092
1.00059
1.00017
0.99977
0.999509
0.99942
0.999467
0.99957
0.999646
1
1
1
1
1
1
1
1
1
1
1
1
1
1
1
1
1
1
0.999992
0.999964
0.999903
0.999801
0.999662
0.999518
0.999423
0.999436
0.999589
0.999858
1.00016
1.00041
1.0005
1.00041
1.00017
0.999859
0.999592
0.99944
0.999425
0.99951
0.999626
0.999705
1
1
1
1
1
1
1
1
1
1
1
1
1
1
1
1
1
1
0.999997
0.999977
0.99993
0.999846
0.999724
0.999583
0.999461
0.999408
0.999454
0.999591
0.99977
0.99992
0.999978
0.99992
0.99977
0.999592
0.999456
0.999411
0.999465
0.99958
0.999701
0.999776
1
1
1
1
1
1
1
1
1
1
1
1
1
1
1
1
1
1
1
0.999988
0.999956
0.999894
0.999795
0.99967
0.999542
0.999446
0.99941
0.999439
0.999509
0.999578
0.999606
0.999578
0.999509
0.99944
0.999411
0.999449
0.999546
0.999671
0.999784
0.99985
1
1
1
1
1
1
1
1
1
1
1
1
1
1
1
1
1
1
1
0.999998
0.999978
0.999937
0.999866
0.999767
0.999652
0.999543
0.999463
0.999424
0.99942
0.999431
0.999437
0.999431
0.99942
0.999425
0.999465
0.999546
0.999656
0.999771
0.999864
0.999916
1
1
1
1
1
1
1
1
1
1
1
1
1
1
1
1
1
1
1
1
0.999995
0.999972
0.999927
0.999857
0.999767
0.999669
0.999579
0.99951
0.999467
0.999445
0.999439
0.999445
0.999467
0.99951
0.99958
0.999671
0.999771
0.999862
0.99993
0.999966
1
1
1
1
1
1
1
1
1
1
1
1
1
1
1
1
1
1
1.00001
1.00001
1
0.999994
0.99997
0.999925
0.999861
0.999782
0.9997
0.999626
0.99957
0.999535
0.999524
0.999535
0.99957
0.999626
0.999701
0.999784
0.999864
0.99993
0.999976
0.999999
1
1
1
1
1
1
1
1
1
1
1
1
1
1
1
1
1
1
1
1.00001
1.00001
1.00001
0.999991
0.999961
0.999913
0.999849
0.999775
0.999705
0.999646
0.999609
0.999596
0.999609
0.999646
0.999705
0.999776
0.99985
0.999916
0.999966
0.999999
1.00001
SCALARS C2 double 1
LOOKUP_TABLE default
2.00005
2.00006
2.00006
2.00006
2.00004
1.99998
1.9999
1.9998
1.99971
1.99964
1.99962
1.99964
1.99971
1.9998
1.9999
1.99998
2.00004
2.00006
2.00006
2.00005
2.00003
2.00002
2.00001
2
2
2
2
2
2
2
2
2
2
2
2
2
2
2
2
2
2.00006
2.00006
2.00005
2.00002
1.99995
1.99984
1.99969
1.99953
1.99939
1.99929
1.99926
1.99929
1.99939
1.99953
1.99969
1.99984
1.99995
2.00002
2.00004
2.00005
2.00003
2.00002
2.00001
2
2
2
2
2
2
2
2
2
2
2
2
2
2
2
2
2
2.00006
2.00005
2
1.99991
1.99975
1.99952
1.99926
1.99899
1.99877
1.99862
1.99857
1.99862
1.99877
1.99899
1.99926
1.99952
1.99974
1.9999
1.99999
2.00003
2.00004
2.00003
2.00002
2.00001
2
2
2
2
2
2
2
2
2
2
2
2
2
2
2
2
2.00006
2.00002
1.99991
1.99971
1.99941
1.99903
1.99861
1.99822
1.99791
1.99772
1.99766
1.99772
1.99791
1.99822
1.99861
1.99902
1.99941
1.9997
1.99989
1.99999
2.00003
2.00003
2.00002
2.00001
2.00001
2
2
2
2
2
2
2
2
2
2
2
2
2
2
2
2.00004
1.99995
1.99975
1.99941
1.99894
1.99838
1.99782
1.99735
1.997
1.99681
1.99674
1.99681
1.997
1.99735
1.99782
1.99838
1.99893
1.9994
1.99973
1.99992
2.00001
2.00003
2.00003
2.00002
2.00001
2
2
2
2
2
2
2
2
2
2
2
2
2
2
2
1.99998
1.99984
1.99952
1.99903
1.99838
1.99768
1.99704
1.99656
1.99628
1.99615
1.99611
1.99615
1.99628
1.99656
1.99704
1.99768
1.99838
1.99901
1.9995
1.99981
1.99996
2.00002
2.00003
2.00002
2.00001
2
2
2
2
2
2
2
2
2
2
2
2
2
2
2
1.9999
1.99969
1.99926
1.99861
1.99782
1.99704
1.99642
1.99606
1.99595
1.99597
1.996
1.99597
1.99595
1.99606
1.99642
1.99704
1.99782
1.99859
1.99923
1.99966
1.9999
2
2.00003
2.00002
2.00001
2.00001
2
2
2
2
2
2
2
2
2
2
2
2
2
2
1.9998
1.99953
1.99899
1.99822
1.99735
1.99656
1.99606
1.99594
1.99609
1.99633
1.99643
1.99633
1.99609
1.99594
1.99606
1.99656
1.99734
1.9982
1.99897
1.99951
1.99983
1.99997
2.00002
2.00003
2.00002
2.00001
2
2
2
2
2
2
2
2
2
2
2
2
2
2
1.99971
1.99939
1.99877
1.99791
1.997
1.99628
1.99595
1.99609
1.99654
1.997
1.99719
1.997
1.99654
1.99609
1.99595
1.99627
1.99699
1.9979
1.99874
1.99937
1.99976
1.99995
2.00001
2.00003
2.00002
2.00001
2
2
2
2
2
2
2
2
2
2
2
2
2
2
1.99964
1.99929
1.99862
1.99772
1.99681
1.99615
1.99597
1.99633
1.997
1.99763
1.99788
1.99763
1.997
1.99633
1.99597
1.99614
1.9968
1.9977
1.9986
1.99928
1.99971
1.99993
2.00001
2.00002
2.00002
2.00001
2
2
2
2
2
2
2
2
2
2
2
2
2
2
1.99962
1.99926
1.99857
1.99766
1.99674
1.99611
1.996
1.99643
1.99719
1.99788
1.99816
1.99788
1.99719
1.99643
1.996
1.99611
1.99673
1.99764
1.99855
1.99925
1.9997
1.99992
2.00001
2.00002
2.00002
2.00001
2
2
2
2
2
2
2
2
2
2
2
2
2
2
1.99964
1.99929
1.99862
1.99772
1.99681
1.99615
1.99597
1.99633
1.997
1.99763
1.99788
1.99763
1.997
1.99633
1.99597
1.99614
1.9968
1.9977
1.9986
1.99928
1.99971
1.99993
2.00001
2.00002
2.00002
2.00001
2
2
2
2
2
2
2
2
2
2
2
2
2
2
1.99971
1.99939
1.99877
1.99791
1.997
1.99628
1.99595
1.99609
1.99654
1.997
1.99719
1.997
1.99654
1.99609
1.99595
1.99627
1.99699
1.9979
1.99874
1.99937
1.99976
1.99995
2.00001
2.00003
2.00002
2.00001
2
2
2
2
2
2
2
2
2
2
2
2
2
2
1.9998
1.99953
1.99899
1.99822
1.99735
1.99656
1.99606
1.99594
1.99609
1.99633
1.99643
1.99633
1.99609
1.99593
1.99606
1.99656
1.99734
1.9982
1.99897
1.99951
1.99983
1.99997
2.00002
2.00003
2.00002
2.00001
2
2
2
2
2
2
2
2
2
2
2
2
2
2
1.9999
1.99969
1.99926
1.99861
1.99782
1.99704
1.99642
1.99606
1.99595
1.99597
1.996
1.99597
1.99595
1.99606
1.99642
1.99704
1.99782
1.99859
1.99923
1.99966
1.9999
2
2.00003
2.00002
2.00001
2.00001
2
2
2
2
2
2
2
2
2
2
2
2
2
2
1.99998
1.99984
1.99952
1.99902
1.99838
1.99768
1.99704
1.99656
1.99627
1.99614
1.99611
1.99614
1.99627
1.99656
1.99704
1.99768
1.99838
1.99901
1.9995
1.99981
1.99996
2.00002
2.00003
2.00002
2.00001
2
2
2
2
2
2
2
2
2
2
2
2
2
2
2
2.00004
1.99995
1.99974
1.99941
1.99893
1.99838
1.99782
1.99734
1.99699
1.9968
1.99673
1.9968
1.99699
1.99734
1.99782
1.99838
1.99893
1.9994
1.99973
1.99992
2.00001
2.00003
2.00003
2.00001
2
2
1.99999
1.99999
1.99999
1.99999
1.99999
1.99999
1.99999
1.99999
1.99999
2
2
2
2
2
2.00006
2.00002
1.9999
1.9997
1.9994
1.99901
1.99859
1.9982
1.9979
1.9977
1.99764
1.9977
1.9979
1.9982
1.99859
1.99901
1.9994
1.9997
1.99989
1.99999
2.00003
2.00003
2.00002
2.00001
2
1.99999
1.99999
1.99999
1.99999
1.99999
1.99999
1.99999
1.99999
1.99999
1.99999
1.99999
1.99999
1.99999
2
2
2.00006
2.00004
1.99999
1.99989
1.99973
1.9995
1.99923
1.99897
1.99874
1.9986
1.99855
1.9986
1.99874
1.99897
1.99923
1.9995
1.99973
1.99989
1.99999
2.00003
2.00003
2.00002
2.00001
2
1.99999
1.99999
1.99998
1.99998
1.99999
1.99999
1.99999
1.99999
1.99999
1.99998
1.99998
1.99998
1.99999
1.99999
1.99999
1.99999
2.00005
2.00005
2.00003
1.99999
1.99992
1.99981
1.99966
1.99951
1.99937
1.99928
1.99925
1.99928
1.99937
1.99951
1.99966
1.99981
1.99992
1.99999
2.00003
2.00003
2.00002
2.00001
2
1.99999
1.99998
1.99998
1.99999
1.99999
2
2.00001
2.00001
2.00001
2
1.99999
1.99999
1.99998
1.99998
1.99998
1.99999
1.99999
2.00003
2.00003
2.00004
2.00003
2.00001
1.99996
1.9999
1.99983
1.99976
1.99971
1.9997
1.99971
1.99976
1.99983
1.9999
1.99996
2.00001
2.00003
2.00003
2.00002
2.00001
2
1.99999
1.99998
1.99998
2
2.00002
2.00004
2.00007
2.00009
2.00009
2.00009
2.00007
2.00004
2.00002
2
1.99998
1.99998
1.99998
1.99998
2.00002
2.00002
2.00003
2.00003
2.00003
2.00002
2
1.99997
1.99995
1.99993
1.99992
1.99993
1.99995
1.99997
2
2.00002
2.00003
2.00003
2.00002
2.00001
2
1.99999
1.99998
1.99999
2.00001
2.00005
2.0001
2.00016
2.00022
2.00026
2.00027
2.00026
2.00022
2.00016
2.0001
2.00005
2.00001
1.99998
1.99997
1.99997
2.00001
2.00001
2.00002
2.00002
2.00003
2.00003
2.00003
2.00002
2.00001
2.00001
2.00001
2.00001
2.00001
2.00002
2.00003
2.00003
2.00003
2.00002
2.00001
2
1.99999
1.99998
1.99999
2.00002
2.00008
2.00017
2.00028
2.00039
2.00049
2.00056
2.00058
2.00056
2.00049
2.00039
2.00028
2.00017
2.00007
2.00001
1.99998
1.99996
2
2
2.00001
2.00001
2.00002
2.00002
2.00002
2.00003
2.00003
2.00002
2.00002
2.00002
2.00003
2.00003
2.00002
2.00002
2.00001
2.00001
2
1.99999
1.99998
1.99999
2.00002
2.00009
2.00021
2.00037
2.00056
2.00074
2.00089
2.001
2.00103
2.001
2.00089
2.00074
2.00055
2.00037
2.0002
2.00008
2
1.99997
2
2
2
2.00001
2.00001
2.00001
2.00001
2.00002
2.00002
2.00002
2.00002
2.00002
2.00002
2.00002
2.00001
2.00001
2
2
1.99999
1.99998
1.99998
2.00001
2.00008
2.00021
2.0004
2.00066
2.00093
2.00118
2.00138
2.00151
2.00155
2.00151
2.00138
2.00118
2.00093
2.00065
2.0004
2.00019
2.00006
1.99999
2
2
2
2
2
2
2.00001
2.00001
2.00001
2.00001
2.00001
2.00001
2.00001
2.00001
2.00001
2
2
1.99999
1.99999
1.99998
2
2.00005
2.00017
2.00037
2.00066
2.001
2.00135
2.00165
2.00186
2.00199
2.00203
2.00199
2.00186
2.00165
2.00135
2.00099
2.00065
2.00035
2.00015
2.00005
2
2
2
2
2
2
2
2
2
2
2
2
2
2
2
2
1.99999
1.99999
1.99998
1.99999
2.00002
2.0001
2.00028
2.00056
2.00093
2.00135
2.00174
2.00204
2.00223
2.00232
2.00235
2.00232
2.00223
2.00204
2.00174
2.00134
2.00092
2.00054
2.00026
2.00012
2
2
2
2
2
2
2
2
2
2
2
2
2
2
2
2
1.99999
1.99999
1.99998
1.99999
2.00004
2.00016
2.00039
2.00074
2.00118
2.00165
2.00204
2.0023
2.00243
2.00245
2.00245
2.00245
2.00243
2.0023
2.00204
2.00164
2.00117
2.00072
2.00039
2.00021
2
2
2
2
2
2
2
2
2
2
2
2
2
2
2
2
1.99999
1.99999
1.99999
2
2.00007
2.00022
2.00049
2.00089
2.00138
2.00186
2.00223
2.00243
2.00246
2.00241
2.00238
2.00241
2.00246
2.00242
2.00223
2.00186
2.00137
2.00088
2.0005
2.00029
2
2
2
2
2
2
2
2
2
2
2
2
2
2
2
2
1.99999
1.99999
1.99999
2.00001
2.00009
2.00026
2.00056
2.001
2.00151
2.00199
2.00232
2.00245
2.00241
2.00231
2.00226
2.00231
2.00241
2.00245
2.00232
2.00198
2.00149
2.00098
2.00057
2.00035
2
2
2
2
2
2
2
2
2
2
2
2
2
2
2
2
1.99999
1.99999
1.99999
2.00001
2.00009
2.00027
2.00058
2.00103
2.00155
2.00203
2.00235
2.00245
2.00238
2.00226
2.0022
2.00226
2.00238
2.00245
2.00235
2.00202
2.00153
2.00102
2.0006
2.00037
2
2
2
2
2
2
2
2
2
2
2
2
2
2
2
2
1.99999
1.99999
1.99999
2.00001
2.00009
2.00026
2.00056
2.001
2.00151
2.00199
2.00232
2.00245
2.00241
2.00231
2.00226
2.00231
2.00241
2.00245
2.00232
2.00198
2.00149
2.00098
2.00057
2.00035
2
2
2
2
2
2
2
2
2
2
2
2
2
2
2
2
1.99999
1.99999
1.99999
2
2.00007
2.00022
2.00049
2.00089
2.00138
2.00186
2.00223
2.00243
2.00246
2.00241
2.00238
2.00241
2.00246
2.00242
2.00223
2.00186
2.00137
2.00088
2.0005
2.00029
2
2
2
2
2
2
2
2
2
2
2
2
2
2
2
2
1.99999
1.99999
1.99998
1.99999
2.00004
2.00016
2.00039
2.00074
2.00118
2.00165
2.00204
2.0023
2.00242
2.00245
2.00245
2.00245
2.00242
2.0023
2.00204
2.00164
2.00117
2.00072
2.00039
2.00021
2
2
2
2
2
2
2
2
2
2
2
2
2
2
2
2
1.99999
1.99999
1.99998
1.99999
2.00002
2.0001
2.00028
2.00055
2.00093
2.00135
2.00174
2.00204
2.00223
2.00232
2.00235
2.00232
2.00223
2.00204
2.00174
2.00134
2.00092
2.00054
2.00026
2.00012
2
2
2
2
2
2
2
2
2
2
2
2
2
2
2
2
2
1.99999
1.99998
1.99998
2
2.00005
2.00017
2.00037
2.00065
2.00099
2.00134
2.00164
2.00186
2.00198
2.00202
2.00198
2.00186
2.00164
2.00134
2.00099
2.00064
2.00035
2.00015
2.00005
2
2
2
2
2
2
2
2
2
2
2
2
2
2
2
2
2
1.99999
1.99999
1.99998
1.99998
2.00001
2.00007
2.0002
2.0004
2.00065
2.00092
2.00117
2.00137
2.00149
2.00153
2.00149
2.00137
2.00117
2.00092
2.00064
2.00039
2.00019
2.00006
1.99999
2
2
2
2
2
2
2
2
2
2
2
2
2
2
2
2
2
1.99999
1.99999
1.99998
1.99998
1.99998
2.00001
2.00008
2.00019
2.00035
2.00054
2.00072
2.00088
2.00098
2.00102
2.00098
2.00088
2.00072
2.00054
2.00035
2.00019
2.00007
1.99999
1.99996
2
2
2
2
2
2
2
2
2
2
2
2
2
2
2
2
2
2
1.99999
1.99999
1.99998
1.99997
1.99998
2
2.00006
2.00015
2.00026
2.00039
2.0005
2.00057
2.0006
2.00057
2.0005
2.00039
2.00026
2.00015
2.00006
1.99999
1.99996
1.99995
2
2
2
2
2
2
2
2
2
2
2
2
2
2
2
2
2
2
1.99999
1.99999
1.99998
1.99997
1.99996
1.99997
1.99999
2.00005
2.00012
2.00021
2.00029
2.00035
2.00037
2.00035
2.00029
2.00021
2.00012
2.00005
1.99999
1.99996
1.99995
1.99995
