# vtk DataFile Version 3.0
Brusselator Concentration Output
ASCII
DATASET STRUCTURED_POINTS
DIMENSIONS 40 40 1
ORIGIN 0.0 0.0 0.0
SPACING 0.005 0.005 1.0
POINT_DATA 1600
SCALARS C1 double 1
LOOKUP_TABLE default
1.00001
1.00001
0.999992
0.999964
0.99992
0.99986
0.999792
0.999727
0.999674
0.999641
0.999629
0.999641
0.999674
0.999727
0.999792
0.99986
0.99992
0.999964
0.99999
1
1.00001
1
1
1
1
1
1
1
1
1
1
1
1
1
1
1
1
1
1
1
1.00001
0.999994
0.999968
0.999923
0.999859
0.999781
0.999703
0.999637
0.99959
0.999564
0.999556
0.999564
0.99959
0.999637
0.999703
0.999781
0.999859
0.999922
0.999966
0.999991
1
1
1
1
1
1
1
1
1
1
1
1
1
1
1
1
1
1
1
1
0.999992
0.999968
0.999919
0.999842
0.999747
0.999649
0.999571
0.999526
0.999513
0.999517
0.999521
0.999517
0.999513
0.999526
0.999571
0.999649
0.999746
0.999841
0.999916
0.999965
0.999991
1
1
1
1
1
1
1
1
1
1
1
1
1
1
1
1
1
1
1
0.999964
0.999923
0.999842
0.99973
0.999611
0.99952
0.999491
0.999531
0.999616
0.999697
0.99973
0.999697
0.999616
0.999531
0.999491
0.99952
0.99961
0.999728
0.99984
0.999922
0.999971
0.999994
1
1
1
1
1
1
1
1
1
1
1
1
1
1
1
1
1
1
0.99992
0.999859
0.999747
0.999611
0.999503
0.999485
0.999597
0.999829
1.00011
1.00034
1.00043
1.00034
1.00011
0.999829
0.999597
0.999484
0.999502
0.999609
0.999744
0.999861
0.999939
0.999981
0.999998
1
1
1
1
1
1
1
1
1
1
1
1
1
1
1
1
1
0.99986
0.999781
0.999649
0.99952
0.999485
0.999633
1.00001
1.00056
1.00114
1.00159
1.00176
1.00159
1.00114
1.00056
1.00001
0.999632
0.999483
0.999518
0.999649
0.999791
0.999898
0.999962
0.999991
1
1
1
1
1
1
1
1
1
1
1
1
1
1
1
1
1
0.999792
0.999703
0.999571
0.999491
0.999597
1.00001
1.00075
1.00172
1.0027
1.00341
1.00368
1.00341
1.0027
1.00172
1.00075
1.00001
0.999595
0.999489
0.999573
0.999722
0.999854
0.999939
0.999981
0.999998
1
1
1
1
1
1
1
1
1
1
1
1
1
1
1
1
0.999727
0.999637
0.999526
0.999531
0.999829
1.00056
1.00172
1.00315
1.00452
1.00551
1.00586
1.00551
1.00452
1.00315
1.00172
1.00056
0.999827
0.99953
0.999532
0.999666
0.999812
0.999915
0.999971
0.999994
1
1
1
1
1
1
1
1
1
1
1
1
1
1
1
1
0.999674
0.99959
0.999513
0.999616
1.00011
1.00114
1.0027
1.00452
1.00623
1.00744
1.00787
1.00744
1.00623
1.00452
1.0027
1.00114
1.00011
0.999616
0.999522
0.999629
0.999779
0.999895
0.999962
0.999991
1
1
1
1
1
1
1
1
1
1
1
1
1
1
1
1
0.999641
0.999564
0.999517
0.999697
1.00034
1.00159
1.00341
1.00551
1.00744
1.00878
1.00926
1.00878
1.00744
1.00551
1.00341
1.00159
1.00034
0.999698
0.999529
0.999609
0.999759
0.999882
0.999955
0.999988
0.999999
1
1
1
1
1
1
1
1
1
1
1
1
1
1
1
0.999629
0.999556
0.999521
0.99973
1.00043
1.00176
1.00368
1.00586
1.00787
1.00926
1.00975
1.00926
1.00787
1.00586
1.00367
1.00176
1.00042
0.999731
0.999534
0.999603
0.999752
0.999877
0.999953
0.999987
0.999999
1
1
1
1
1
1
1
1
1
1
1
1
1
1
1
0.999641
0.999564
0.999517
0.999697
1.00034
1.00159
1.00341
1.00551
1.00744
1.00878
1.00926
1.00878
1.00744
1.00551
1.00341
1.00159
1.00034
0.999698
0.999529
0.999609
0.999759
0.999882
0.999955
0.999988
0.999999
1
1
1
1
1
1
1
1
1
1
1
1
1
1
1
0.999674
0.99959
0.999513
0.999616
1.00011
1.00114
1.0027
1.00452
1.00623
1.00744
1.00787
1.00744
1.00623
1.00452
1.0027
1.00114
1.00011
0.999616
0.999522
0.999629
0.999779
0.999895
0.999962
0.999991
1
1
1
1
1
1
1
1
1
1
1
1
1
1
1
1
0.999727
0.999637
0.999526
0.999531
0.999829
1.00056
1.00172
1.00315
1.00452
1.00551
1.00586
1.00551
1.00452
1.00315
1.00172
1.00056
0.999827
0.99953
0.999532
0.999666
0.999812
0.999915
0.999971
0.999994
1
1
1
1
1
1
1
1
1
1
1
1
1
1
1
1
0.999792
0.999703
0.999571
0.999491
0.999597
1.00001
1.00075
1.00172
1.0027
1.00341
1.00367
1.00341
1.0027
1.00172
1.00075
1.00001
0.999595
0.999489
0.999573
0.999722
0.999854
0.999939
0.999981
0.999998
1
1
1
1
1
0.999999
0.999999
0.999999
0.999999
1
1
1
1
1
1
1
0.99986
0.999781
0.999649
0.99952
0.999484
0.999632
1.00001
1.00056
1.00114
1.00159
1.00176
1.00159
1.00114
1.00056
1.00001
0.999631
0.999482
0.999518
0.999648
0.999791
0.999898
0.999961
0.99999
1
1
1
1
0.999999
0.999999
0.999999
0.999999
0.999999
0.999999
0.999999
0.999999
0.999999
0.999999
1
1
1
0.99992
0.999859
0.999746
0.99961
0.999502
0.999483
0.999595
0.999827
1.00011
1.00034
1.00042
1.00034
1.00011
0.999827
0.999595
0.999482
0.9995
0.999608
0.999744
0.999861
0.999939
0.99998
0.999997
1
1
1
0.999999
0.999999
0.999999
0.999999
0.999999
0.999999
0.999999
0.999999
0.999999
0.999999
0.999999
0.999999
0.999999
1
0.999964
0.999922
0.999841
0.999728
0.999609
0.999518
0.999489
0.99953
0.999616
0.999698
0.999731
0.999698
0.999616
0.99953
0.999489
0.999518
0.999608
0.999727
0.999838
0.999921
0.99997
0.999993
1
1
1
1
1
1
1
1
1
1
1
1
1
0.999999
0.999999
0.999999
0.999999
0.999999
0.99999
0.999966
0.999916
0.99984
0.999744
0.999649
0.999573
0.999532
0.999522
0.999529
0.999534
0.999529
0.999522
0.999532
0.999573
0.999648
0.999744
0.999838
0.999914
0.999963
0.999989
0.999999
1
1
1
1
1.00001
1.00001
1.00001
1.00002
1.00002
1.00002
1.00001
1.00001
1.00001
1
1
0.999998
0.999998
0.999998
1
0.999991
0.999965
0.999922
0.999861
0.999791
0.999722
0.999666
0.999629
0.999609
0.999603
0.999609
0.999629
0.999666
0.999722
0.999791
0.999861
0.999921
0.999963
0.999987
0.999998
1
1
1
1.00001
1.00001
1.00002
1.00003
1.00004
1.00005
1.00005
1.00005
1.00004
1.00003
1.00002
1.00001
1.00001
1
0.999998
0.999997
1.00001
1
0.999991
0.999971
0.999939
0.999898
0.999854
0.999812
0.999779
0.999759
0.999752
0.999759
0.999779
0.999812
0.999854
0.999898
0.999939
0.99997
0.999989
0.999998
1
1
1
1.00001
1.00002
1.00004
1.00006
1.00008
1.00009
1.0001
1.00011
1.0001
1.00009
1.00008
1.00006
1.00004
1.00002
1.00001
1
0.999997
1
1
1
0.999994
0.999981
0.999962
0.999939
0.999915
0.999895
0.999882
0.999877
0.999882
0.999895
0.999915
0.999939
0.999961
0.99998
0.999993
0.999999
1
1
1
1.00001
1.00003
1.00005
1.00009
1.00012
1.00015
1.00017
1.00019
1.00019
1.00019
1.00017
1.00015
1.00012
1.00009
1.00005
1.00003
1.00001
1
1
1
1
1
0.999998
0.999991
0.999981
0.999971
0.999962
0.999955
0.999953
0.999955
0.999962
0.999971
0.999981
0.99999
0.999997
1
1
1
1
1.00001
1.00003
1.00006
1.00011
1.00016
1.0002
1.00024
1.00026
1.00027
1.00027
1.00027
1.00026
1.00024
1.0002
1.00016
1.00011
1.00006
1.00003
1.00001
1
1
1
1
1
1
0.999998
0.999994
0.999991
0.999988
0.999987
0.999988
0.999991
0.999994
0.999998
1
1
1
1
1
1.00001
1.00003
1.00006
1.00012
1.00018
1.00024
1.00028
1.0003
1.00029
1.00027
1.00027
1.00027
1.00029
1.0003
1.00028
1.00024
1.00018
1.00011
1.00006
1.00004
1
1
1
1
1
1
1
1
1
0.999999
0.999999
0.999999
1
1
1
1
1
1
1
1.00001
1.00002
1.00005
1.00011
1.00018
1.00025
1.0003
1.0003
1.00026
1.00018
1.00011
1.00008
1.00011
1.00018
1.00026
1.0003
1.0003
1.00025
1.00018
1.00011
1.00007
1
1
1
1
1
1
1
1
1
1
1
1
1
1
1
1
1
1
1
1.00001
1.00004
1.00009
1.00016
1.00024
1.0003
1.0003
1.00021
1.00005
0.999848
0.999688
0.999627
0.999688
0.999848
1.00005
1.00021
1.0003
1.0003
1.00024
1.00017
1.00012
1
1
1
1
1
1
1
1
1
1
1
1
1
1
1
1
0.999999
1
1.00001
1.00002
1.00006
1.00012
1.0002
1.00028
1.0003
1.00021
0.999985
0.999646
0.999282
0.999003
0.998899
0.999003
0.999282
0.999646
0.999985
1.00021
1.0003
1.00029
1.00022
1.00018
1
1
1
1
1
1
1
1
1
1
1
1
1
1
1
0.999999
0.999999
1
1.00001
1.00003
1.00008
1.00015
1.00024
1.0003
1.00026
1.00005
0.999646
0.999109
0.998562
0.998156
0.998007
0.998156
0.998562
0.999109
0.999645
1.00005
1.00026
1.00031
1.00027
1.00023
1
1
1
1
1
1
1
1
1
1
1
1
1
1
1
0.999999
0.999999
1
1.00001
1.00004
1.00009
1.00017
1.00026
1.00029
1.00018
0.999848
0.999282
0.998562
0.997853
0.997337
0.997148
0.997337
0.997853
0.998562
0.999281
0.999847
1.00018
1.0003
1.0003
1.00027
1
1
1
1
1
1
1
1
1
1
1
1
1
1
0.999999
0.999999
0.999999
1
1.00002
1.00005
1.0001
1.00019
1.00027
1.00027
1.00011
0.999688
0.999003
0.998156
0.997337
0.996747
0.996533
0.996747
0.997337
0.998156
0.999002
0.999688
1.00011
1.00029
1.00031
1.00029
1
1
1
1
1
1
1
1
1
1
1
1
1
1
0.999999
0.999999
0.999999
1
1.00002
1.00005
1.00011
1.00019
1.00027
1.00027
1.00008
0.999627
0.998899
0.998007
0.997148
0.996533
0.99631
0.996533
0.997148
0.998006
0.998898
0.999626
1.00008
1.00028
1.00032
1.0003
1
1
1
1
1
1
1
1
1
1
1
1
1
1
0.999999
0.999999
0.999999
1
1.00002
1.00005
1.0001
1.00019
1.00027
1.00027
1.00011
0.999688
0.999003
0.998156
0.997337
0.996747
0.996533
0.996747
0.997337
0.998156
0.999002
0.999688
1.00011
1.00029
1.00031
1.00029
1
1
1
1
1
1
1
1
1
1
1
1
1
1
0.999999
0.999999
0.999999
1
1.00001
1.00004
1.00009
1.00017
1.00026
1.00029
1.00018
0.999848
0.999282
0.998562
0.997853
0.997337
0.997148
0.997337
0.997853
0.998562
0.999281
0.999847
1.00018
1.0003
1.0003
1.00027
1
1
1
1
1
1
1
1
1
1
1
1
1
1
1
0.999999
0.999999
1
1.00001
1.00003
1.00008
1.00015
1.00024
1.0003
1.00026
1.00005
0.999646
0.999109
0.998562
0.998156
0.998006
0.998156
0.998562
0.999108
0.999645
1.00005
1.00026
1.00031
1.00027
1.00023
1
1
1
1
1
1
1
1
1
1
1
1
1
1
1
0.999999
0.999999
1
1.00001
1.00002
1.00006
1.00012
1.0002
1.00028
1.0003
1.00021
0.999985
0.999645
0.999281
0.999002
0.998898
0.999002
0.999281
0.999645
0.999984
1.00021
1.0003
1.00029
1.00022
1.00018
1
1
1
1
1
1
1
1
1
1
1
1
1
1
1
0.999999
0.999999
0.999999
1
1.00001
1.00004
1.00009
1.00016
1.00024
1.0003
1.0003
1.00021
1.00005
0.999847
0.999688
0.999626
0.999688
0.999847
1.00005
1.00021
1.0003
1.0003
1.00024
1.00017
1.00012
1
1
1
1
1
1
1
1
1
1
1
1
1
1
1
0.999999
0.999999
0.999999
1
1.00001
1.00002
1.00005
1.00011
1.00018
1.00025
1.0003
1.0003
1.00026
1.00018
1.00011
1.00008
1.00011
1.00018
1.00026
1.0003
1.0003
1.00025
1.00018
1.00011
1.00007
1
1
1
1
1
1
1
1
1
1
1
1
1
1
1
1
0.999999
0.999999
0.999998
1
1.00001
1.00003
1.00006
1.00011
1.00018
1.00024
1.00029
1.00031
1.0003
1.00029
1.00028
1.00029
1.0003
1.00031
1.00029
1.00024
1.00018
1.00011
1.00006
1.00003
1
1
1
1
1
1
1
1
1
1
1
1
1
1
1
1
0.999999
0.999999
0.999998
0.999998
1
1.00001
1.00003
1.00006
1.00011
1.00017
1.00022
1.00027
1.0003
1.00031
1.00032
1.00031
1.0003
1.00027
1.00022
1.00017
1.00011
1.00006
1.00003
1.00001
1
1
1
1
1
1
1
1
1
1
1
1
1
1
1
1
1
0.999999
0.999998
0.999997
0.999997
1
1.00001
1.00004
1.00007
1.00012
1.00018
1.00023
1.00027
1.00029
1.0003
1.00029
1.00027
1.00023
1.00018
1.00012
1.00007
1.00003
1.00001
0.999998
SCALARS C2 double 1
LOOKUP_TABLE default
1.99998
1.99997
1.99997
1.99998
2.00001
2.00006
2.00014
2.00023
2.00031
2.00036
2.00039
2.00036
2.00031
2.00023
2.00014
2.00006
2.00001
1.99998
1.99998
1.99998
1.99999
1.99999
2
2
2
2
2
2
2
2
2
2
2
2
2
2
2
2
2
2
1.99997
1.99998
1.99999
2.00002
2.00009
2.00019
2.00031
2.00045
2.00056
2.00064
2.00067
2.00064
2.00056
2.00045
2.00031
2.00019
2.00009
2.00002
1.99999
1.99998
1.99998
1.99999
1.99999
2
2
2
2
2
2
2
2
2
2
2
2
2
2
2
2
2
1.99997
1.99999
2.00003
2.00012
2.00026
2.00045
2.00066
2.00087
2.00104
2.00114
2.00118
2.00114
2.00104
2.00087
2.00066
2.00045
2.00026
2.00012
2.00004
2
1.99999
1.99999
1.99999
2
2
2
2
2
2
2
2
2
2
2
2
2
2
2
2
2
1.99998
2.00002
2.00012
2.00029
2.00054
2.00085
2.00116
2.00143
2.00162
2.00172
2.00175
2.00172
2.00162
2.00143
2.00116
2.00085
2.00054
2.00029
2.00012
2.00003
2
1.99999
1.99999
1.99999
2
2
2
2
2
2
2
2
2
2
2
2
2
2
2
2
2.00001
2.00009
2.00026
2.00054
2.00091
2.00133
2.0017
2.00195
2.00206
2.00209
2.00209
2.00209
2.00206
2.00195
2.0017
2.00133
2.00092
2.00054
2.00027
2.0001
2.00002
1.99999
1.99999
1.99999
2
2
2
2
2
2
2
2
2
2
2
2
2
2
2
2
2.00006
2.00019
2.00045
2.00085
2.00133
2.00179
2.0021
2.00217
2.00206
2.0019
2.00182
2.0019
2.00206
2.00217
2.0021
2.00179
2.00133
2.00085
2.00046
2.0002
2.00006
2
1.99999
1.99999
1.99999
2
2
2
2
2
2
2
2
2
2
2
2
2
2
2
2.00014
2.00031
2.00066
2.00116
2.0017
2.0021
2.00218
2.0019
2.00137
2.00088
2.00068
2.00088
2.00137
2.0019
2.00218
2.0021
2.0017
2.00117
2.00067
2.00032
2.00012
2.00002
1.99999
1.99999
1.99999
2
2
2
2
2
2
2
2
2
2
2
2
2
2
2
2.00023
2.00045
2.00087
2.00143
2.00195
2.00217
2.0019
2.0011
2.00004
1.99913
1.99878
1.99913
2.00004
2.0011
2.0019
2.00217
2.00195
2.00144
2.00088
2.00045
2.00018
2.00005
2
1.99999
1.99999
2
2
2
2
2
2
2
2
2
2
2
2
2
2
2
2.00031
2.00056
2.00104
2.00162
2.00206
2.00206
2.00137
2.00004
1.99842
1.99711
1.9966
1.99711
1.99842
2.00004
2.00137
2.00206
2.00207
2.00163
2.00105
2.00055
2.00024
2.00007
2.00001
1.99999
1.99999
2
2
2
2
2
2
2
2
2
2
2
2
2
2
2
2.00036
2.00064
2.00114
2.00172
2.00209
2.0019
2.00088
1.99913
1.99711
1.99549
1.99487
1.99549
1.99711
1.99913
2.00088
2.0019
2.0021
2.00173
2.00115
2.00063
2.00027
2.00009
2.00001
1.99999
1.99999
2
2
2
2
2
2
2
2
2
2
2
2
2
2
2
2.00039
2.00067
2.00118
2.00175
2.00209
2.00182
2.00068
1.99878
1.9966
1.99487
1.99422
1.99487
1.9966
1.99878
2.00068
2.00182
2.0021
2.00176
2.00118
2.00065
2.00029
2.0001
2.00002
1.99999
1.99999
2
2
2
2
2
2
2
2
2
2
2
2
2
2
2
2.00036
2.00064
2.00114
2.00172
2.00209
2.0019
2.00088
1.99913
1.99711
1.99549
1.99487
1.99549
1.99711
1.99913
2.00088
2.0019
2.0021
2.00173
2.00115
2.00063
2.00027
2.00009
2.00001
1.99999
1.99999
2
2
2
2
2
2
2
2
2
2
2
2
2
2
2
2.00031
2.00056
2.00104
2.00162
2.00206
2.00206
2.00137
2.00004
1.99842
1.99711
1.9966
1.99711
1.99842
2.00004
2.00137
2.00206
2.00207
2.00163
2.00105
2.00055
2.00024
2.00007
2.00001
1.99999
1.99999
2
2
2
2
2
2
2
2
2
2
2
2
2
2
2
2.00023
2.00045
2.00087
2.00143
2.00195
2.00217
2.0019
2.0011
2.00004
1.99913
1.99878
1.99913
2.00004
2.0011
2.0019
2.00217
2.00195
2.00144
2.00088
2.00045
2.00018
2.00005
2
1.99999
1.99999
2
2
2
2
2
2
2
2
2
2
2
2
2
2
2
2.00014
2.00031
2.00066
2.00116
2.0017
2.0021
2.00218
2.0019
2.00137
2.00088
2.00068
2.00088
2.00137
2.0019
2.00218
2.0021
2.0017
2.00117
2.00067
2.00032
2.00012
2.00002
1.99999
1.99999
1.99999
2
2
2
2
2
2
2
2
2
2
2
2
2
2
2
2.00006
2.00019
2.00045
2.00085
2.00133
2.00179
2.0021
2.00217
2.00206
2.0019
2.00182
2.0019
2.00206
2.00217
2.0021
2.00179
2.00133
2.00085
2.00046
2.0002
2.00006
2
1.99999
1.99999
2
2
2
2
2
2
2
2
2
2
2
2
2
2
2
2
2.00001
2.00009
2.00026
2.00054
2.00092
2.00133
2.0017
2.00195
2.00207
2.0021
2.0021
2.0021
2.00207
2.00195
2.0017
2.00133
2.00092
2.00054
2.00027
2.0001
2.00002
1.99999
1.99999
1.99999
2
2
2
2
2
2
2
2
2
2
2
2
2
2
2
2
1.99998
2.00002
2.00012
2.00029
2.00054
2.00085
2.00117
2.00144
2.00163
2.00173
2.00176
2.00173
2.00163
2.00144
2.00117
2.00085
2.00054
2.00029
2.00012
2.00003
2
1.99999
1.99999
2
2
2
2
2.00001
2.00001
2.00001
2.00001
2.00001
2.00001
2.00001
2.00001
2
2
2
2
2
1.99998
1.99999
2.00004
2.00012
2.00027
2.00046
2.00067
2.00088
2.00105
2.00115
2.00118
2.00115
2.00105
2.00088
2.00067
2.00046
2.00027
2.00012
2.00004
2
1.99999
1.99999
2
2
2
2.00001
2.00001
2
2
2
2
2
2
2
2.00001
2.00001
2.00001
2
2
2
1.99998
1.99998
2
2.00003
2.0001
2.0002
2.00032
2.00045
2.00055
2.00063
2.00065
2.00063
2.00055
2.00045
2.00032
2.0002
2.0001
2.00003
2
1.99999
1.99999
2
2
2.00001
2.00001
2
2
1.99999
1.99998
1.99997
1.99997
1.99997
1.99998
1.99999
2
2
2.00001
2.00001
2.00001
2.00001
1.99999
1.99998
1.99999
2
2.00002
2.00006
2.00012
2.00018
2.00024
2.00027
2.00029
2.00027
2.00024
2.00018
2.00012
2.00006
2.00002
2
1.99999
1.99999
1.99999
2
2.00001
2.00001
2
1.99999
1.99997
1.99994
1.99992
1.9999
1.9999
1.9999
1.99992
1.99994
1.99997
1.99999
2
2.00001
2.00001
2.00001
1.99999
1.99999
1.99999
1.99999
1.99999
2
2.00002
2.00005
2.00007
2.00009
2.0001
2.00009
2.00007
2.00005
2.00002
2
1.99999
1.99999
1.99999
2
2
2.00001
2
2
1.99997
1.99994
1.99989
1.99983
1.99978
1.99975
1.99974
1.99975
1.99978
1.99983
1.99989
1.99994
1.99997
2
2.00001
2.00001
2
1.99999
1.99999
1.99999
1.99999
1.99999
1.99999
2
2.00001
2.00001
2.00002
2.00001
2.00001
2
1.99999
1.99999
1.99999
1.99999
2
2
2.00001
2
1.99999
1.99996
1.99991
1.99983
1.99973
1.99964
1.99955
1.9995
1.99948
1.9995
1.99955
1.99964
1.99973
1.99983
1.99991
1.99997
2
2.00001
2
2
2
1.99999
1.99999
1.99999
1.99999
1.99999
1.99999
1.99999
1.99999
1.99999
1.99999
1.99999
1.99999
1.99999
1.99999
2
2
2.00001
2.00001
2
1.99996
1.9999
1.99979
1.99965
1.9995
1.99935
1.99924
1.99917
1.99915
1.99917
1.99924
1.99935
1.9995
1.99966
1.9998
1.9999
1.99997
2
2
2
2
2
2
1.99999
1.99999
1.99999
1.99999
1.99999
1.99999
1.99999
1.99999
1.99999
1.99999
2
2
2
2
2.00001
2
1.99997
1.99991
1.99979
1.99962
1.99942
1.99921
1.99903
1.99892
1.99886
1.99884
1.99886
1.99892
1.99903
1.99921
1.99942
1.99963
1.9998
1.99992
1.99997
2
2
2
2
2
2
2
2
2
2
2
2
2
2
2
2
2
2
2.00001
2
1.99999
1.99994
1.99983
1.99965
1.99942
1.99915
1.99893
1.99878
1.99872
1.99871
1.99872
1.99871
1.99872
1.99878
1.99893
1.99916
1.99942
1.99966
1.99983
1.99992
2
2
2
2
2
2
2
2
2
2
2
2
2
2
2
2
2
2
2.00001
2
1.99997
1.99989
1.99973
1.9995
1.99921
1.99893
1.99873
1.99868
1.99875
1.99886
1.99891
1.99886
1.99875
1.99868
1.99874
1.99893
1.99921
1.9995
1.99973
1.99985
2
2
2
2
2
2
2
2
2
2
2
2
2
2
2
2
2
2.00001
2
1.99999
1.99994
1.99983
1.99964
1.99935
1.99903
1.99878
1.99868
1.9988
1.99906
1.99932
1.99943
1.99932
1.99906
1.9988
1.99869
1.99878
1.99904
1.99936
1.99963
1.99977
2
2
2
2
2
2
2
2
2
2
2
2
2
2
2
2
2
2.00001
2
1.99998
1.99992
1.99978
1.99955
1.99924
1.99892
1.99872
1.99875
1.99906
1.99953
1.99995
2.00012
1.99995
1.99953
1.99906
1.99876
1.99872
1.99892
1.99924
1.99953
1.9997
2
2
2
2
2
2
2
2
2
2
2
2
2
2
2
2
2
2.00001
2
1.99997
1.9999
1.99975
1.9995
1.99917
1.99886
1.99871
1.99886
1.99932
1.99995
2.00049
2.0007
2.00049
1.99995
1.99932
1.99886
1.99871
1.99886
1.99917
1.99947
1.99965
2
2
2
2
2
2
2
2
2
2
2
2
2
2
2
2
2
2.00001
2
1.99997
1.9999
1.99974
1.99948
1.99915
1.99884
1.99872
1.99891
1.99943
2.00012
2.0007
2.00093
2.0007
2.00012
1.99943
1.99891
1.99872
1.99885
1.99915
1.99945
1.99964
2
2
2
2
2
2
2
2
2
2
2
2
2
2
2
2
2
2.00001
2
1.99997
1.9999
1.99975
1.9995
1.99917
1.99886
1.99871
1.99886
1.99932
1.99995
2.00049
2.0007
2.00049
1.99995
1.99932
1.99886
1.99871
1.99886
1.99917
1.99947
1.99965
2
2
2
2
2
2
2
2
2
2
2
2
2
2
2
2
2
2.00001
2
1.99998
1.99992
1.99978
1.99955
1.99924
1.99892
1.99872
1.99875
1.99906
1.99953
1.99995
2.00012
1.99995
1.99953
1.99906
1.99876
1.99872
1.99892
1.99924
1.99953
1.9997
2
2
2
2
2
2
2
2
2
2
2
2
2
2
2
2
2
2.00001
2
1.99999
1.99994
1.99983
1.99964
1.99935
1.99903
1.99878
1.99868
1.9988
1.99906
1.99932
1.99943
1.99932
1.99906
1.9988
1.99869
1.99878
1.99904
1.99936
1.99963
1.99977
2
2
2
2
2
2
2
2
2
2
2
2
2
2
2
2
2
2.00001
2.00001
2
1.99997
1.99989
1.99973
1.9995
1.99921
1.99893
1.99874
1.99869
1.99876
1.99886
1.99891
1.99886
1.99876
1.99869
1.99874
1.99893
1.99921
1.99951
1.99973
1.99985
2
2
2
2
2
2
2
2
2
2
2
2
2
2
2
2
2
2
2.00001
2
1.99999
1.99994
1.99983
1.99966
1.99942
1.99916
1.99893
1.99878
1.99872
1.99871
1.99872
1.99871
1.99872
1.99878
1.99893
1.99916
1.99942
1.99966
1.99983
1.99992
2
2
2
2
2
2
2
2
2
2
2
2
2
2
2
2
2
2
2.00001
2.00001
2
1.99997
1.99991
1.9998
1.99963
1.99942
1.99921
1.99904
1.99892
1.99886
1.99885
1.99886
1.99892
1.99904
1.99921
1.99942
1.99963
1.9998
1.99992
1.99997
2
2
2
2
2
2
2
2
2
2
2
2
2
2
2
2
2
2
2
2.00001
2.00001
2
1.99997
1.9999
1.9998
1.99966
1.9995
1.99936
1.99924
1.99917
1.99915
1.99917
1.99924
1.99936
1.99951
1.99966
1.9998
1.99991
1.99997
2.00001
2
2
2
2
2
2
2
2
2
2
2
2
2
2
2
2
2
2
2
2.00001
2.00001
2.00001
2
1.99997
1.99992
1.99983
1.99973
1.99963
1.99953
1.99947
1.99945
1.99947
1.99953
1.99963
1.99973
1.99983
1.99992
1.99997
2.00001
2.00002
2
2
2
2
2
2
2
2
2
2
2
2
2
2
2
2
2
2
2
2.00001
2.00001
2.00001
2.00001
2
1.99997
1.99992
1.99985
1.99977
1.9997
1.99965
1.99964
1.99965
1.9997
1.99977
1.99985
1.99992
1.99997
2.00001
2.00002
2.00002
