# vtk DataFile Version 3.0
Brusselator Concentration Output
ASCII
DATASET STRUCTURED_POINTS
DIMENSIONS 40 40 1
ORIGIN 0.0 0.0 0.0
SPACING 0.005 0.005 1.0
POINT_DATA 1600
SCALARS C1 double 1
LOOKUP_TABLE default
1
1
1
1
1.00001
1.00001
1.00002
1.00003
1.00004
1.00005
1.00005
1.00005
1.00004
1.00003
1.00002
1.00001
1.00001
1
1
1
1
1
1
1
1
1
1
1
1
1
1
1
1
1
1
1
1
1
1
1
1
1
1
1.00001
1.00001
1.00003
1.00004
1.00006
1.00007
1.00007
1.00007
1.00007
1.00007
1.00006
1.00004
1.00003
1.00001
1.00001
1
1
1
1
1
1
1
1
1
1
1
1
1
1
1
1
1
1
1
1
1
1
1
1
1.00001
1.00002
1.00004
1.00006
1.00009
1.00009
1.00008
1.00007
1.00006
1.00007
1.00008
1.00009
1.00009
1.00006
1.00004
1.00002
1.00001
1
1
1
1
1
1
1
1
1
1
1
1
1
1
1
1
1
1
1
1
1
1
1.00001
1.00002
1.00004
1.00007
1.00011
1.00011
1.00005
0.999956
0.999858
0.999818
0.999858
0.999956
1.00005
1.00011
1.00011
1.00007
1.00004
1.00002
1.00001
1
1
1
1
1
1
1
1
1
1
1
1
1
1
1
1
1
1
1
1
1.00001
1.00001
1.00004
1.00007
1.00011
1.00011
0.999997
0.999743
0.999398
0.999098
0.99898
0.999098
0.999398
0.999743
0.999997
1.00011
1.00011
1.00007
1.00004
1.00001
1
1
1
1
1
1
1
1
1
1
1
1
1
1
1
1
1
1
1
1
1.00001
1.00003
1.00006
1.00011
1.00011
0.999966
0.999559
0.998857
0.998024
0.997357
0.997107
0.997357
0.998024
0.998857
0.999559
0.999966
1.00011
1.00011
1.00006
1.00003
1.00001
1
1
1
1
1
1
1
1
1
1
1
1
1
1
1
1
1
1
1
1.00002
1.00004
1.00009
1.00011
0.999997
0.999559
0.99861
0.997186
0.995652
0.994516
0.994108
0.994516
0.995652
0.997186
0.99861
0.999559
0.999997
1.00011
1.00009
1.00004
1.00002
1.00001
1
1
1
1
1
1
1
1
1
1
1
1
1
1
1
1
1
1
1.00003
1.00006
1.00009
1.00005
0.999743
0.998857
0.997186
0.994914
0.992684
0.991178
0.990674
0.991178
0.992684
0.994914
0.997186
0.998857
0.999743
1.00005
1.00009
1.00006
1.00003
1.00001
1
1
1
1
1
1
1
1
1
1
1
1
1
1
1
1
1
1
1.00004
1.00007
1.00008
0.999956
0.999398
0.998024
0.995652
0.992684
0.990045
0.988471
0.988002
0.988471
0.990045
0.992684
0.995652
0.998024
0.999398
0.999956
1.00008
1.00007
1.00003
1.00001
1
1
1
1
1
1
1
1
1
1
1
1
1
1
1
1
1
1
1.00005
1.00007
1.00007
0.999858
0.999098
0.997357
0.994516
0.991178
0.988471
0.987083
0.98674
0.987083
0.988471
0.991178
0.994516
0.997357
0.999098
0.999858
1.00007
1.00007
1.00004
1.00001
1
1
1
1
1
1
1
1
1
1
1
1
1
1
1
1
1
1
1.00005
1.00007
1.00006
0.999818
0.99898
0.997107
0.994108
0.990674
0.988002
0.98674
0.986468
0.98674
0.988002
0.990674
0.994108
0.997107
0.99898
0.999818
1.00006
1.00007
1.00004
1.00001
1
1
1
1
1
1
1
1
1
1
1
1
1
1
1
1
1
1
1.00005
1.00007
1.00007
0.999858
0.999098
0.997357
0.994516
0.991178
0.988471
0.987083
0.98674
0.987083
0.988471
0.991178
0.994516
0.997357
0.999098
0.999858
1.00007
1.00007
1.00004
1.00001
1
1
1
1
1
1
1
1
1
1
1
1
1
1
1
1
1
1
1.00004
1.00007
1.00008
0.999956
0.999398
0.998024
0.995652
0.992684
0.990045
0.988471
0.988002
0.988471
0.990045
0.992684
0.995652
0.998024
0.999398
0.999956
1.00008
1.00007
1.00003
1.00001
1
1
1
1
1
1
1
1
1
1
1
1
1
1
1
1
1
1
1.00003
1.00006
1.00009
1.00005
0.999743
0.998857
0.997186
0.994914
0.992684
0.991178
0.990674
0.991178
0.992684
0.994914
0.997186
0.998857
0.999743
1.00005
1.00009
1.00006
1.00003
1.00001
1
1
1
1
1
1
1
1
1
1
1
1
1
1
1
1
1
1
1.00002
1.00004
1.00009
1.00011
0.999997
0.999559
0.99861
0.997186
0.995652
0.994516
0.994108
0.994516
0.995652
0.997186
0.99861
0.999559
0.999997
1.00011
1.00009
1.00004
1.00002
1.00001
1
1
1
1
1
1
1
1
1
1
1
1
1
1
1
1
1
1
1.00001
1.00003
1.00006
1.00011
1.00011
0.999966
0.999559
0.998857
0.998024
0.997357
0.997107
0.997357
0.998024
0.998857
0.999559
0.999966
1.00011
1.00011
1.00006
1.00003
1.00001
1
1
1
1
1
1
1
1
1
1
1
1
1
1
1
1
1
1
1
1.00001
1.00001
1.00004
1.00007
1.00011
1.00011
0.999997
0.999743
0.999398
0.999098
0.99898
0.999098
0.999398
0.999743
0.999997
1.00011
1.00011
1.00007
1.00004
1.00001
1
1
1
1
1
1
1
1
1
1
1
1
1
1
1
1
1
1
1
1
1
1.00001
1.00002
1.00004
1.00007
1.00011
1.00011
1.00005
0.999956
0.999858
0.999818
0.999858
0.999956
1.00005
1.00011
1.00011
1.00007
1.00004
1.00002
1.00001
1
1
1
1
1
1
1
1
1
1
1
1
1
1
1
1
1
1
1
1
1
1
1.00001
1.00002
1.00004
1.00006
1.00009
1.00009
1.00008
1.00007
1.00006
1.00007
1.00008
1.00009
1.00009
1.00006
1.00004
1.00002
1.00001
1
1
1
1
1
1
1
1
0.999999
0.999999
0.999999
0.999999
0.999999
0.999999
0.999999
1
1
1
1
1
1
1
1
1
1.00001
1.00001
1.00003
1.00004
1.00006
1.00007
1.00007
1.00007
1.00007
1.00007
1.00006
1.00004
1.00003
1.00001
1.00001
1
1
1
1
1
1
1
0.999999
0.999998
0.999997
0.999996
0.999995
0.999994
0.999995
0.999996
0.999997
0.999998
0.999999
1
1
1
1
1
1
1
1
1
1.00001
1.00002
1.00003
1.00003
1.00004
1.00004
1.00004
1.00003
1.00003
1.00002
1.00001
1
1
1
1
1
1
1
1
0.999999
0.999997
0.999993
0.99999
0.999987
0.999984
0.999984
0.999984
0.999987
0.99999
0.999993
0.999997
0.999999
1
1
1
1
1
1
1
1
1
1.00001
1.00001
1.00001
1.00001
1.00001
1.00001
1.00001
1.00001
1.00001
1
1
1
1
1
1
1
0.999999
0.999998
0.999995
0.999989
0.999982
0.999974
0.999969
0.999966
0.999965
0.999966
0.999969
0.999974
0.999982
0.999989
0.999995
0.999998
1
1
1
1
1
1
1
1
1
1
1
1
1
1
1
1
1
1
1
1
1
1
1
0.999999
0.999998
0.999993
0.999985
0.999973
0.99996
0.999951
0.999949
0.999951
0.999953
0.999951
0.999949
0.999951
0.99996
0.999973
0.999985
0.999993
0.999998
0.999999
1
1
1
1
1
1
1
1
1
1
1
1
1
1
1
1
1
1
1
1
1
0.999998
0.999993
0.999984
0.999968
0.999949
0.999937
0.999944
0.99997
1
1.00001
1
0.99997
0.999944
0.999937
0.999949
0.999968
0.999984
0.999993
0.999998
1
1
1
1
1
1
1
1
1
1
1
1
1
1
1
1
1
1
1
1
0.999999
0.999995
0.999985
0.999968
0.999945
0.999931
0.999951
1.00003
1.00015
1.00026
1.0003
1.00026
1.00015
1.00003
0.999951
0.999931
0.999945
0.999968
0.999985
0.999993
1
1
1
1
1
1
1
1
1
1
1
1
1
1
1
1
1
1
1
0.999999
0.999997
0.999989
0.999973
0.999949
0.999931
0.999957
1.00008
1.00033
1.00066
1.00094
1.00105
1.00094
1.00066
1.00033
1.00008
0.999957
0.999931
0.999949
0.999972
0.999985
1
1
1
1
1
1
1
1
1
1
1
1
1
1
1
1
1
1
1
0.999998
0.999993
0.999982
0.99996
0.999937
0.999951
1.00008
1.00042
1.00099
1.00167
1.0022
1.0024
1.0022
1.00167
1.00099
1.00042
1.00008
0.999951
0.999937
0.999958
0.999975
1
1
1
1
1
1
1
1
1
1
1
1
1
1
1
1
1
1
0.999999
0.999997
0.99999
0.999974
0.999951
0.999944
1.00003
1.00033
1.00099
1.00199
1.00308
1.0039
1.00419
1.0039
1.00308
1.00199
1.00099
1.00033
1.00003
0.999943
0.999948
0.999964
1
1
1
1
1
1
1
1
1
1
1
1
1
1
1
1
1
1
0.999999
0.999996
0.999987
0.999969
0.999949
0.99997
1.00015
1.00066
1.00167
1.00308
1.00452
1.00552
1.00586
1.00552
1.00452
1.00308
1.00167
1.00066
1.00015
0.999969
0.999944
0.999955
1
1
1
1
1
1
1
1
1
1
1
1
1
1
1
1
1
1
0.999999
0.999995
0.999984
0.999966
0.999951
1
1.00026
1.00094
1.0022
1.0039
1.00552
1.00657
1.0069
1.00657
1.00552
1.0039
1.0022
1.00094
1.00026
0.999999
0.999946
0.99995
1
1
1
1
1
1
1
1
1
1
1
1
1
1
1
1
1
1
0.999999
0.999994
0.999984
0.999965
0.999953
1.00001
1.0003
1.00105
1.0024
1.00419
1.00586
1.0069
1.00721
1.0069
1.00586
1.00419
1.0024
1.00105
1.0003
1.00001
0.999947
0.999949
1
1
1
1
1
1
1
1
1
1
1
1
1
1
1
1
1
1
0.999999
0.999995
0.999984
0.999966
0.999951
1
1.00026
1.00094
1.0022
1.0039
1.00552
1.00657
1.0069
1.00657
1.00552
1.0039
1.0022
1.00094
1.00026
0.999999
0.999946
0.99995
1
1
1
1
1
1
1
1
1
1
1
1
1
1
1
1
1
1
0.999999
0.999996
0.999987
0.999969
0.999949
0.99997
1.00015
1.00066
1.00167
1.00308
1.00452
1.00552
1.00586
1.00552
1.00452
1.00308
1.00167
1.00066
1.00015
0.999969
0.999944
0.999955
1
1
1
1
1
1
1
1
1
1
1
1
1
1
1
1
1
1
0.999999
0.999997
0.99999
0.999974
0.999951
0.999944
1.00003
1.00033
1.00099
1.00199
1.00308
1.0039
1.00419
1.0039
1.00308
1.00199
1.00099
1.00033
1.00003
0.999943
0.999948
0.999964
1
1
1
1
1
1
1
1
1
1
1
1
1
1
1
1
1
1
1
0.999998
0.999993
0.999982
0.99996
0.999937
0.999951
1.00008
1.00042
1.00099
1.00167
1.0022
1.0024
1.0022
1.00167
1.00099
1.00042
1.00008
0.999951
0.999937
0.999958
0.999975
1
1
1
1
1
1
1
1
1
1
1
1
1
1
1
1
1
1
1
0.999999
0.999997
0.999989
0.999973
0.999949
0.999931
0.999957
1.00008
1.00033
1.00066
1.00094
1.00105
1.00094
1.00066
1.00033
1.00008
0.999957
0.999931
0.999949
0.999972
0.999985
1
1
1
1
1
1
1
1
1
1
1
1
1
1
1
1
1
1
1
1
0.999999
0.999995
0.999985
0.999968
0.999945
0.999931
0.999951
1.00003
1.00015
1.00026
1.0003
1.00026
1.00015
1.00003
0.999951
0.999931
0.999945
0.999968
0.999985
0.999993
1
1
1
1
1
1
1
1
1
1
1
1
1
1
1
1
1
1
1
1
1
0.999998
0.999993
0.999984
0.999968
0.999949
0.999937
0.999943
0.999969
0.999999
1.00001
0.999999
0.999969
0.999943
0.999937
0.999949
0.999968
0.999984
0.999993
0.999998
1
1
1
1
1
1
1
1
1
1
1
1
1
1
1
1
1
1
1
1
1
1
0.999998
0.999993
0.999985
0.999972
0.999958
0.999948
0.999944
0.999946
0.999947
0.999946
0.999944
0.999948
0.999958
0.999972
0.999985
0.999993
0.999998
1
1
1
1
1
1
1
1
1
1
1
1
1
1
1
1
1
1
1
1
1
1
1
0.999999
0.999998
0.999993
0.999985
0.999975
0.999964
0.999955
0.99995
0.999949
0.99995
0.999955
0.999964
0.999975
0.999985
0.999993
0.999998
1
1
SCALARS C2 double 1
LOOKUP_TABLE default
2
2
2
2
2
1.99999
1.99998
1.99997
1.99996
1.99994
1.99994
1.99994
1.99996
1.99997
1.99998
1.99999
2
2
2
2
2
2
2
2
2
2
2
2
2
2
2
2
2
2
2
2
2
2
2
2
2
2
2
2
1.99999
1.99998
1.99995
1.99992
1.99989
1.99987
1.99986
1.99987
1.99989
1.99992
1.99995
1.99998
1.99999
2
2
2
2
2
2
2
2
2
2
2
2
2
2
2
2
2
2
2
2
2
2
2
2
2
2
1.99999
1.99997
1.99992
1.99986
1.9998
1.99975
1.99972
1.99971
1.99972
1.99975
1.9998
1.99986
1.99992
1.99997
1.99999
2
2
2
2
2
2
2
2
2
2
2
2
2
2
2
2
2
2
2
2
2
2
2
2
1.99999
1.99996
1.9999
1.99981
1.99971
1.99962
1.99958
1.99958
1.99959
1.99958
1.99958
1.99962
1.99971
1.99981
1.9999
1.99996
1.99999
2
2
2
2
2
2
2
2
2
2
2
2
2
2
2
2
2
2
2
2
2
2
1.99999
1.99997
1.9999
1.99979
1.99965
1.99952
1.9995
1.99962
1.9998
1.99988
1.9998
1.99962
1.9995
1.99952
1.99965
1.99979
1.9999
1.99996
1.99999
2
2
2
2
2
2
2
2
2
2
2
2
2
2
2
2
2
2
2
2
1.99999
1.99998
1.99992
1.99981
1.99965
1.99949
1.99949
1.99982
2.00046
2.00113
2.00141
2.00113
2.00046
1.99982
1.99949
1.99949
1.99965
1.99981
1.99992
1.99998
1.99999
2
2
2
2
2
2
2
2
2
2
2
2
2
2
2
2
2
2
2
1.99998
1.99995
1.99986
1.99971
1.99952
1.99949
1.99994
2.00112
2.00289
2.00452
2.00518
2.00452
2.00289
2.00112
1.99994
1.99949
1.99952
1.99971
1.99986
1.99995
1.99999
2
2
2
2
2
2
2
2
2
2
2
2
2
2
2
2
2
2
2
1.99997
1.99992
1.9998
1.99962
1.9995
1.99982
2.00112
2.00375
2.00725
2.01028
2.01148
2.01028
2.00725
2.00375
2.00112
1.99982
1.9995
1.99962
1.9998
1.99992
1.99998
1.99999
2
2
2
2
2
2
2
2
2
2
2
2
2
2
2
2
2
2
1.99996
1.99989
1.99975
1.99958
1.99962
2.00046
2.00289
2.00725
2.01268
2.01721
2.01895
2.01721
2.01268
2.00725
2.00289
2.00046
1.99962
1.99958
1.99975
1.99989
1.99996
1.99999
2
2
2
2
2
2
2
2
2
2
2
2
2
2
2
2
2
2
1.99994
1.99987
1.99972
1.99958
1.9998
2.00113
2.00452
2.01028
2.01721
2.02284
2.02497
2.02284
2.01721
2.01028
2.00452
2.00113
1.9998
1.99958
1.99972
1.99987
1.99996
1.99999
2
2
2
2
2
2
2
2
2
2
2
2
2
2
2
2
2
2
1.99994
1.99986
1.99971
1.99959
1.99988
2.00141
2.00518
2.01148
2.01895
2.02497
2.02723
2.02497
2.01895
2.01148
2.00518
2.00141
1.99988
1.99959
1.99971
1.99987
1.99995
1.99999
2
2
2
2
2
2
2
2
2
2
2
2
2
2
2
2
2
2
1.99994
1.99987
1.99972
1.99958
1.9998
2.00113
2.00452
2.01028
2.01721
2.02284
2.02497
2.02284
2.01721
2.01028
2.00452
2.00113
1.9998
1.99958
1.99972
1.99987
1.99996
1.99999
2
2
2
2
2
2
2
2
2
2
2
2
2
2
2
2
2
2
1.99996
1.99989
1.99975
1.99958
1.99962
2.00046
2.00289
2.00725
2.01268
2.01721
2.01895
2.01721
2.01268
2.00725
2.00289
2.00046
1.99962
1.99958
1.99975
1.99989
1.99996
1.99999
2
2
2
2
2
2
2
2
2
2
2
2
2
2
2
2
2
2
1.99997
1.99992
1.9998
1.99962
1.9995
1.99982
2.00112
2.00375
2.00725
2.01028
2.01148
2.01028
2.00725
2.00375
2.00112
1.99982
1.9995
1.99962
1.9998
1.99992
1.99998
1.99999
2
2
2
2
2
2
2
2
2
2
2
2
2
2
2
2
2
2
1.99998
1.99995
1.99986
1.99971
1.99952
1.99949
1.99994
2.00112
2.00289
2.00452
2.00518
2.00452
2.00289
2.00112
1.99994
1.99949
1.99952
1.99971
1.99986
1.99995
1.99999
2
2
2
2
2
2
2
2
2
2
2
2
2
2
2
2
2
2
2
1.99999
1.99998
1.99992
1.99981
1.99965
1.99949
1.99949
1.99982
2.00046
2.00113
2.00141
2.00113
2.00046
1.99982
1.99949
1.99949
1.99965
1.99981
1.99992
1.99998
1.99999
2
2
2
2
2
2
2
2
2
2
2
2
2
2
2
2
2
2
2
2
1.99999
1.99997
1.9999
1.99979
1.99965
1.99952
1.9995
1.99962
1.9998
1.99988
1.9998
1.99962
1.9995
1.99952
1.99965
1.99979
1.9999
1.99996
1.99999
2
2
2
2
2
2
2
2
2
2
2
2
2
2
2
2
2
2
2
2
2
2
1.99999
1.99996
1.9999
1.99981
1.99971
1.99962
1.99958
1.99958
1.99959
1.99958
1.99958
1.99962
1.99971
1.99981
1.9999
1.99996
1.99999
2
2
2
2
2
2
2
2
2
2
2
2
2
2
2
2
2
2
2
2
2
2
2
2
1.99999
1.99996
1.99992
1.99986
1.9998
1.99975
1.99972
1.99971
1.99972
1.99975
1.9998
1.99986
1.99992
1.99996
1.99999
2
2
2
2
2
2
2
2
2
2
2
2
2
2
2
2
2
2
2
2
2
2
2
2
2
2
1.99999
1.99998
1.99995
1.99992
1.99989
1.99987
1.99987
1.99987
1.99989
1.99992
1.99995
1.99998
1.99999
2
2
2
2
2
2
2
2
2
2
2
2
2
2
2
2
2
2
2
2
2
2
2
2
2
2
2
2
1.99999
1.99999
1.99998
1.99996
1.99996
1.99995
1.99996
1.99996
1.99998
1.99999
1.99999
2
2
2
2
2
2
2
2
2
2
2
2.00001
2.00001
2.00002
2.00002
2.00002
2.00001
2.00001
2
2
2
2
2
2
2
2
2
2
2
2
2
1.99999
1.99999
1.99999
1.99999
1.99999
1.99999
1.99999
2
2
2
2
2
2
2
2
2
2
2
2.00001
2.00002
2.00003
2.00004
2.00005
2.00006
2.00005
2.00004
2.00003
2.00002
2.00001
2
2
2
2
2
2
2
2
2
2
2
2
2
2
2
2
2
2
2
2
2
2
2
2
2
2
2
2
2.00001
2.00003
2.00005
2.00008
2.00011
2.00013
2.00013
2.00013
2.00011
2.00008
2.00005
2.00003
2.00001
2
2
2
2
2
2
2
2
2
2
2
2
2
2
2
2
2
2
2
2
2
2
2
2
2
2
2.00001
2.00004
2.00008
2.00013
2.00018
2.00022
2.00023
2.00023
2.00023
2.00022
2.00018
2.00013
2.00008
2.00004
2.00001
2
2
2
2
2
2
2
2
2
2
2
2
2
2
2
2
2
2
2
2
2
2
2
2
2.00001
2.00004
2.00008
2.00016
2.00024
2.00029
2.00029
2.00025
2.00023
2.00025
2.00029
2.00029
2.00024
2.00016
2.00008
2.00004
2.00001
2
2
2
2
2
2
2
2
2
2
2
2
2
2
2
2
2
2
2
2
2
2
2.00001
2.00003
2.00008
2.00016
2.00026
2.00033
2.00028
2.00011
1.9999
1.99981
1.9999
2.00011
2.00028
2.00033
2.00026
2.00016
2.00008
2.00003
2.00001
2
2
2
2
2
2
2
2
2
2
2
2
2
2
2
2
2
2
2
2
2
2.00002
2.00005
2.00013
2.00024
2.00033
2.00027
1.99993
1.99933
1.99873
1.99847
1.99873
1.99933
1.99993
2.00027
2.00033
2.00024
2.00013
2.00006
2.00002
2
2
2
2
2
2
2
2
2
2
2
2
2
2
2
2
2
2
2
2
2.00001
2.00003
2.00008
2.00018
2.00029
2.00028
1.99993
1.99904
1.9977
1.99644
1.99593
1.99644
1.9977
1.99904
1.99993
2.00028
2.00029
2.00018
2.00009
2.00004
2
2
2
2
2
2
2
2
2
2
2
2
2
2
2
2
2
2
2
2
2.00001
2.00004
2.00011
2.00022
2.00029
2.00011
1.99933
1.9977
1.99544
1.99342
1.99261
1.99342
1.99544
1.9977
1.99933
2.00011
2.00029
2.00022
2.00011
2.00006
2
2
2
2
2
2
2
2
2
2
2
2
2
2
2
2
2
2
2
2
2.00002
2.00005
2.00013
2.00023
2.00025
1.9999
1.99873
1.99644
1.99342
1.99078
1.98974
1.99078
1.99342
1.99644
1.99873
1.9999
2.00025
2.00023
2.00013
2.00007
2
2
2
2
2
2
2
2
2
2
2
2
2
2
2
2
2
2
2
2
2.00002
2.00006
2.00013
2.00023
2.00023
1.99981
1.99847
1.99593
1.99261
1.98974
1.98861
1.98974
1.99261
1.99593
1.99847
1.99981
2.00023
2.00023
2.00014
2.00007
2
2
2
2
2
2
2
2
2
2
2
2
2
2
2
2
2
2
2
2
2.00002
2.00005
2.00013
2.00023
2.00025
1.9999
1.99873
1.99644
1.99342
1.99078
1.98974
1.99078
1.99342
1.99644
1.99873
1.9999
2.00025
2.00023
2.00013
2.00007
2
2
2
2
2
2
2
2
2
2
2
2
2
2
2
2
2
2
2
2
2.00001
2.00004
2.00011
2.00022
2.00029
2.00011
1.99933
1.9977
1.99544
1.99342
1.99261
1.99342
1.99544
1.9977
1.99933
2.00011
2.00029
2.00022
2.00011
2.00006
2
2
2
2
2
2
2
2
2
2
2
2
2
2
2
2
2
2
2
2
2.00001
2.00003
2.00008
2.00018
2.00029
2.00028
1.99993
1.99904
1.9977
1.99644
1.99593
1.99644
1.9977
1.99904
1.99993
2.00028
2.00029
2.00018
2.00009
2.00004
2
2
2
2
2
2
2
2
2
2
2
2
2
2
2
2
2
2
2
2
2
2.00002
2.00005
2.00013
2.00024
2.00033
2.00027
1.99993
1.99933
1.99873
1.99847
1.99873
1.99933
1.99993
2.00027
2.00033
2.00024
2.00013
2.00006
2.00002
2
2
2
2
2
2
2
2
2
2
2
2
2
2
2
2
2
2
2
2
2
2.00001
2.00003
2.00008
2.00016
2.00026
2.00033
2.00028
2.00011
1.9999
1.99981
1.9999
2.00011
2.00028
2.00033
2.00026
2.00016
2.00008
2.00003
2.00001
2
2
2
2
2
2
2
2
2
2
2
2
2
2
2
2
2
2
2
2
2
2
2.00001
2.00004
2.00008
2.00016
2.00024
2.00029
2.00029
2.00025
2.00023
2.00025
2.00029
2.00029
2.00024
2.00016
2.00008
2.00004
2.00001
2
2
2
2
2
2
2
2
2
2
2
2
2
2
2
2
2
2
2
2
2
2
2
2
2.00001
2.00004
2.00008
2.00013
2.00018
2.00022
2.00023
2.00023
2.00023
2.00022
2.00018
2.00013
2.00008
2.00004
2.00001
2
2
2
2
2
2
2
2
2
2
2
2
2
2
2
2
2
2
2
2
2
2
2
2
2
2
2.00001
2.00003
2.00006
2.00009
2.00011
2.00013
2.00014
2.00013
2.00011
2.00009
2.00006
2.00003
2.00001
2
2
2
2
2
2
2
2
2
2
2
2
2
2
2
2
2
2
2
2
2
2
2
2
2
2
2
2
2.00001
2.00002
2.00004
2.00006
2.00007
2.00007
2.00007
2.00006
2.00004
2.00002
2.00001
2
2
2
2
