# vtk DataFile Version 3.0
Brusselator Concentration Output
ASCII
DATASET STRUCTURED_POINTS
DIMENSIONS 40 40 1
ORIGIN 0.0 0.0 0.0
SPACING 0.005 0.005 1.0
POINT_DATA 1600
SCALARS C1 double 1
LOOKUP_TABLE default
0.999899
0.9999
0.999908
0.999936
0.999991
1.00008
1.00018
1.0003
1.0004
1.00047
1.00049
1.00047
1.0004
1.0003
1.00018
1.00008
0.999992
0.99994
0.999919
0.999923
0.999939
0.99996
0.999977
0.999989
0.999996
0.999999
1
1
1
1
1
1
1
1
1
1
1
1
1
1
0.9999
0.999912
0.999943
1
1.0001
1.00023
1.00038
1.00053
1.00066
1.00074
1.00077
1.00074
1.00066
1.00053
1.00038
1.00023
1.0001
1.00001
0.999957
0.999938
0.999942
0.999957
0.999973
0.999986
0.999994
0.999998
1
1
1
1
1
1
1
1
1
1
1
1
1
1
0.999908
0.999943
1.00002
1.00014
1.00031
1.00053
1.00075
1.00096
1.00114
1.00125
1.00129
1.00125
1.00114
1.00096
1.00075
1.00053
1.00032
1.00015
1.00004
0.999975
0.999953
0.999955
0.999967
0.999981
0.99999
0.999996
0.999999
1
1
1
1
1
1
1
1
1
1
1
1
1
0.999936
1
1.00014
1.00035
1.00063
1.00094
1.00126
1.00153
1.00175
1.00188
1.00193
1.00188
1.00175
1.00153
1.00126
1.00094
1.00063
1.00037
1.00017
1.00004
0.999977
0.999958
0.999962
0.999974
0.999986
0.999994
0.999998
1
1
1
1
1
1
1
1
1
1
1
1
1
0.999991
1.0001
1.00031
1.00063
1.00101
1.00143
1.00182
1.00214
1.00237
1.00251
1.00256
1.00251
1.00237
1.00214
1.00182
1.00143
1.00102
1.00065
1.00035
1.00014
1.00002
0.99997
0.99996
0.999969
0.999981
0.99999
0.999996
0.999999
1
1
1
1
1
1
1
1
1
1
1
1
1.00008
1.00023
1.00053
1.00094
1.00143
1.00192
1.00235
1.00268
1.00289
1.003
1.00304
1.003
1.00289
1.00268
1.00235
1.00192
1.00144
1.00096
1.00056
1.00027
1.00008
0.999993
0.999964
0.999965
0.999976
0.999987
0.999994
0.999998
1
1
1
1
1
1
1
1
1
1
1
1
1.00018
1.00038
1.00075
1.00126
1.00182
1.00235
1.00277
1.00306
1.00321
1.00327
1.00328
1.00327
1.00321
1.00306
1.00278
1.00236
1.00183
1.00128
1.00079
1.00041
1.00016
1.00002
0.999972
0.999964
0.999973
0.999984
0.999993
0.999997
0.999999
1
1
1
1
1
1
1
1
1
1
1
1.0003
1.00053
1.00096
1.00153
1.00214
1.00268
1.00306
1.00326
1.00332
1.00331
1.0033
1.00331
1.00332
1.00326
1.00306
1.00268
1.00216
1.00156
1.001
1.00055
1.00024
1.00006
0.999984
0.999965
0.99997
0.999982
0.999991
0.999997
0.999999
1
1
1
1
1
1
1
1
1
1
1
1.0004
1.00066
1.00114
1.00175
1.00237
1.00289
1.00321
1.00332
1.00328
1.0032
1.00316
1.0032
1.00328
1.00332
1.00321
1.0029
1.00239
1.00178
1.00117
1.00066
1.0003
1.00009
0.999996
0.999967
0.999969
0.99998
0.99999
0.999996
0.999999
1
1
1
1
1
1
1
1
1
1
1
1.00047
1.00074
1.00125
1.00188
1.00251
1.003
1.00327
1.00331
1.0032
1.00306
1.003
1.00306
1.0032
1.00331
1.00327
1.00301
1.00253
1.00191
1.00128
1.00074
1.00035
1.00012
1
0.999969
0.999968
0.999979
0.999989
0.999995
0.999999
1
1
1
1
1
1
1
1
1
1
1
1.00049
1.00077
1.00129
1.00193
1.00256
1.00304
1.00328
1.0033
1.00316
1.003
1.00294
1.003
1.00316
1.0033
1.00329
1.00305
1.00258
1.00196
1.00132
1.00077
1.00037
1.00012
1.00001
0.999969
0.999968
0.999979
0.999989
0.999995
0.999998
1
1
1
1
1
1
1
1
1
1
1
1.00047
1.00074
1.00125
1.00188
1.00251
1.003
1.00327
1.00331
1.0032
1.00306
1.003
1.00306
1.0032
1.00331
1.00327
1.00301
1.00253
1.00191
1.00128
1.00074
1.00035
1.00012
1
0.999969
0.999968
0.999979
0.999989
0.999995
0.999999
1
1
1
1
1
1
1
1
1
1
1
1.0004
1.00066
1.00114
1.00175
1.00237
1.00289
1.00321
1.00332
1.00328
1.0032
1.00316
1.0032
1.00329
1.00332
1.00321
1.0029
1.00239
1.00178
1.00117
1.00066
1.0003
1.00009
0.999996
0.999967
0.999969
0.99998
0.99999
0.999996
0.999999
1
1
1
1
1
1
1
1
1
1
1
1.0003
1.00053
1.00096
1.00153
1.00214
1.00268
1.00306
1.00326
1.00332
1.00331
1.0033
1.00331
1.00332
1.00326
1.00306
1.00269
1.00216
1.00156
1.001
1.00055
1.00024
1.00006
0.999984
0.999965
0.999971
0.999982
0.999992
0.999998
1
1
1
1
1
1
1
1
1
1
1
1
1.00018
1.00038
1.00075
1.00126
1.00182
1.00235
1.00278
1.00306
1.00321
1.00327
1.00329
1.00327
1.00321
1.00306
1.00278
1.00236
1.00183
1.00128
1.00079
1.00041
1.00016
1.00002
0.999972
0.999964
0.999974
0.999986
0.999995
1
1
1
1
1
1
1
1
1
1
1
1
1
1.00008
1.00023
1.00053
1.00094
1.00143
1.00192
1.00236
1.00268
1.0029
1.00301
1.00305
1.00301
1.0029
1.00269
1.00236
1.00193
1.00144
1.00097
1.00056
1.00027
1.00008
0.999993
0.999965
0.999967
0.99998
0.999992
1
1.00001
1.00001
1.00001
1.00001
1.00001
1.00001
1.00001
1.00001
1.00001
1
1
1
1
0.999992
1.0001
1.00032
1.00063
1.00102
1.00144
1.00183
1.00216
1.00239
1.00253
1.00258
1.00253
1.00239
1.00216
1.00183
1.00144
1.00103
1.00065
1.00035
1.00014
1.00002
0.999972
0.999964
0.999974
0.999989
1
1.00001
1.00001
1.00002
1.00002
1.00002
1.00002
1.00002
1.00001
1.00001
1.00001
1.00001
1.00001
1
1
0.99994
1.00001
1.00015
1.00037
1.00065
1.00096
1.00128
1.00156
1.00178
1.00191
1.00196
1.00191
1.00178
1.00156
1.00128
1.00097
1.00065
1.00038
1.00018
1.00005
0.999983
0.999964
0.99997
0.999986
1
1.00001
1.00002
1.00002
1.00002
1.00002
1.00002
1.00002
1.00002
1.00002
1.00002
1.00002
1.00001
1.00001
1.00001
1.00001
0.999919
0.999957
1.00004
1.00017
1.00035
1.00056
1.00079
1.001
1.00117
1.00128
1.00132
1.00128
1.00117
1.001
1.00079
1.00056
1.00035
1.00018
1.00006
0.999991
0.999966
0.999969
0.999983
0.999999
1.00001
1.00002
1.00002
1.00002
1.00002
1.00001
1.00001
1.00001
1.00002
1.00002
1.00002
1.00002
1.00002
1.00002
1.00002
1.00002
0.999923
0.999938
0.999975
1.00004
1.00014
1.00027
1.00041
1.00055
1.00066
1.00074
1.00077
1.00074
1.00066
1.00055
1.00041
1.00027
1.00014
1.00005
0.999991
0.999967
0.999968
0.999981
0.999998
1.00001
1.00002
1.00002
1.00001
0.999998
0.999987
0.999978
0.999975
0.999978
0.999986
0.999997
1.00001
1.00002
1.00002
1.00003
1.00003
1.00003
0.999939
0.999942
0.999953
0.999977
1.00002
1.00008
1.00016
1.00024
1.0003
1.00035
1.00037
1.00035
1.0003
1.00024
1.00016
1.00008
1.00002
0.999983
0.999966
0.999968
0.999981
0.999997
1.00001
1.00001
1.00001
0.999991
0.999965
0.999936
0.99991
0.999892
0.999885
0.999892
0.99991
0.999936
0.999965
0.999992
1.00001
1.00003
1.00004
1.00004
0.99996
0.999957
0.999955
0.999958
0.99997
0.999993
1.00002
1.00006
1.00009
1.00012
1.00012
1.00012
1.00009
1.00006
1.00002
0.999993
0.999972
0.999964
0.999969
0.999981
0.999997
1.00001
1.00001
1
0.999971
0.999926
0.999871
0.999814
0.999765
0.999732
0.999721
0.999732
0.999765
0.999814
0.999871
0.999928
0.999977
1.00001
1.00004
1.00005
0.999977
0.999973
0.999967
0.999962
0.99996
0.999964
0.999972
0.999984
0.999996
1
1.00001
1
0.999996
0.999984
0.999972
0.999965
0.999964
0.99997
0.999983
0.999998
1.00001
1.00001
0.999997
0.999958
0.999894
0.999809
0.999713
0.99962
0.999542
0.999491
0.999473
0.999491
0.999542
0.99962
0.999714
0.999813
0.999902
0.999974
1.00002
1.00005
0.999989
0.999986
0.999981
0.999974
0.999969
0.999965
0.999964
0.999965
0.999967
0.999969
0.999969
0.999969
0.999967
0.999965
0.999964
0.999967
0.999974
0.999986
0.999999
1.00001
1.00001
1
0.999958
0.999882
0.999771
0.999636
0.999492
0.999358
0.99925
0.999181
0.999158
0.999181
0.99925
0.999359
0.999494
0.999642
0.999783
0.9999
0.999983
1.00003
0.999996
0.999994
0.99999
0.999986
0.999981
0.999976
0.999973
0.99997
0.999969
0.999968
0.999968
0.999968
0.999969
0.999971
0.999974
0.99998
0.999989
1
1.00001
1.00002
1.00001
0.999971
0.999894
0.999771
0.999608
0.999418
0.999226
0.999055
0.998924
0.998843
0.998815
0.998843
0.998925
0.999057
0.99923
0.999426
0.999622
0.999793
0.999918
0.999983
0.999999
0.999998
0.999996
0.999994
0.99999
0.999987
0.999984
0.999982
0.99998
0.999979
0.999979
0.999979
0.99998
0.999982
0.999986
0.999992
1
1.00001
1.00002
1.00002
0.999991
0.999926
0.999809
0.999636
0.999418
0.999179
0.998948
0.998754
0.998612
0.998528
0.998501
0.998528
0.998613
0.998756
0.998953
0.999189
0.999435
0.999659
0.999827
0.999917
1
1
0.999999
0.999998
0.999996
0.999994
0.999993
0.999991
0.99999
0.999989
0.999989
0.999989
0.99999
0.999992
0.999995
1
1.00001
1.00002
1.00002
1.00001
0.999965
0.999871
0.999713
0.999492
0.999226
0.998948
0.998696
0.998496
0.99836
0.998285
0.998261
0.998285
0.998361
0.998498
0.998702
0.998961
0.999245
0.999514
0.999722
0.999835
1
1
1
1
0.999999
0.999998
0.999997
0.999997
0.999996
0.999995
0.999995
0.999995
0.999996
0.999998
1
1.00001
1.00001
1.00002
1.00002
0.999998
0.999936
0.999814
0.99962
0.999358
0.999055
0.998754
0.998496
0.998306
0.99819
0.998133
0.998116
0.998133
0.998191
0.99831
0.998503
0.998768
0.999076
0.999377
0.999617
0.99975
1
1
1
1
1
1
0.999999
0.999999
0.999999
0.999999
0.999998
0.999999
0.999999
1
1
1.00001
1.00002
1.00002
1.00002
0.999987
0.99991
0.999765
0.999542
0.99925
0.998924
0.998612
0.99836
0.99819
0.998099
0.998062
0.998054
0.998063
0.998101
0.998194
0.998369
0.998628
0.998945
0.999266
0.999528
0.999675
1
1
1
1
1
1
1
1
1
1
1
1
1
1
1
1.00001
1.00002
1.00002
1.00001
0.999978
0.999892
0.999732
0.999491
0.999181
0.998843
0.998528
0.998285
0.998133
0.998062
0.998042
0.99804
0.998043
0.998064
0.998137
0.998294
0.998544
0.998863
0.999195
0.999469
0.999624
1
1
1
1
1
1
1
1
1
1
1
1
1
1
1
1.00001
1.00002
1.00002
1.00001
0.999975
0.999885
0.999721
0.999473
0.999158
0.998815
0.998501
0.998261
0.998116
0.998054
0.99804
0.99804
0.998041
0.998056
0.998121
0.99827
0.998517
0.998836
0.99917
0.999448
0.999606
1
1
1
1
1
1
1
1
1
1
1
1
1
1
1
1.00001
1.00002
1.00002
1.00001
0.999978
0.999892
0.999732
0.999491
0.999181
0.998843
0.998528
0.998285
0.998133
0.998063
0.998043
0.998041
0.998043
0.998065
0.998137
0.998294
0.998544
0.998863
0.999195
0.999469
0.999624
1
1
1
1
1
1
1
1
1
1
1
1
1
1
1
1.00001
1.00002
1.00002
1.00002
0.999986
0.99991
0.999765
0.999542
0.99925
0.998925
0.998613
0.998361
0.998191
0.998101
0.998064
0.998056
0.998065
0.998102
0.998195
0.998369
0.998628
0.998945
0.999266
0.999528
0.999675
1
1
1
1
1
1
1
1
1
1
1
1
1
1
1
1.00001
1.00001
1.00002
1.00002
0.999997
0.999936
0.999814
0.99962
0.999359
0.999057
0.998756
0.998498
0.99831
0.998194
0.998137
0.998121
0.998137
0.998195
0.998313
0.998506
0.99877
0.999077
0.999378
0.999617
0.99975
1
1
1
1
1
1
1
1
1
1
1
1
1
1
1
1.00001
1.00001
1.00002
1.00002
1.00001
0.999965
0.999871
0.999714
0.999494
0.99923
0.998953
0.998702
0.998503
0.998369
0.998294
0.99827
0.998294
0.998369
0.998506
0.998709
0.998966
0.999249
0.999516
0.999723
0.999836
1
1
1
1
1
1
1
1
1
1
1
1
1
1
1
1.00001
1.00001
1.00002
1.00002
1.00002
0.999992
0.999928
0.999813
0.999642
0.999426
0.999189
0.998961
0.998768
0.998628
0.998544
0.998517
0.998544
0.998628
0.99877
0.998966
0.999199
0.999443
0.999665
0.999831
0.99992
1
1
1
1
1
1
1
1
1
1
1
1
1
1
1
1
1.00001
1.00001
1.00002
1.00002
1.00001
0.999977
0.999902
0.999783
0.999622
0.999435
0.999245
0.999076
0.998945
0.998863
0.998836
0.998863
0.998945
0.999077
0.999249
0.999443
0.999637
0.999804
0.999927
0.999991
1
1
1
1
1
1
1
1
1
1
1
1
1
1
1
1
1.00001
1.00001
1.00002
1.00003
1.00003
1.00001
0.999974
0.9999
0.999793
0.999659
0.999514
0.999377
0.999266
0.999195
0.99917
0.999195
0.999266
0.999378
0.999516
0.999665
0.999804
0.99992
1
1.00004
1
1
1
1
1
1
1
1
1
1
1
1
1
1
1
1
1
1.00001
1.00002
1.00003
1.00004
1.00004
1.00002
0.999983
0.999918
0.999827
0.999722
0.999617
0.999528
0.999469
0.999448
0.999469
0.999528
0.999617
0.999723
0.999831
0.999927
1
1.00005
1.00007
1
1
1
1
1
1
1
1
1
1
1
1
1
1
1
1
1
1.00001
1.00002
1.00003
1.00004
1.00005
1.00005
1.00003
0.999983
0.999917
0.999835
0.99975
0.999675
0.999624
0.999606
0.999624
0.999675
0.99975
0.999836
0.99992
0.999991
1.00004
1.00007
1.00009
SCALARS C2 double 1
LOOKUP_TABLE default
2.00013
2.00016
2.00021
2.00026
2.00031
2.00032
2.0003
2.00025
2.0002
2.00016
2.00014
2.00016
2.0002
2.00025
2.0003
2.00032
2.00031
2.00026
2.0002
2.00014
2.00008
2.00004
2.00002
2
2
2
2
2
2
2
2
2
2
2
2
2
2
2
2
2
2.00016
2.00018
2.00022
2.00024
2.00024
2.0002
2.00011
2
1.99988
1.9998
1.99977
1.9998
1.99988
2
2.00011
2.0002
2.00024
2.00024
2.00021
2.00015
2.0001
2.00006
2.00003
2.00001
2
2
2
2
2
2
2
2
2
2
2
2
2
2
2
2
2.00021
2.00022
2.00022
2.00018
2.00009
1.99992
1.9997
1.99945
1.99923
1.99908
1.99902
1.99908
1.99923
1.99945
1.9997
1.99992
2.00009
2.00018
2.0002
2.00017
2.00013
2.00008
2.00004
2.00002
2.00001
2
2
2
2
2
2
2
2
2
2
2
2
2
2
2
2.00026
2.00024
2.00018
2.00004
1.9998
1.99945
1.99903
1.9986
1.99823
1.99797
1.99789
1.99798
1.99823
1.9986
1.99903
1.99945
1.9998
2.00003
2.00015
2.00018
2.00016
2.00011
2.00006
2.00003
2.00001
2
2
2
2
2
2
2
2
2
2
2
2
2
2
2
2.00031
2.00024
2.00009
1.9998
1.99936
1.99878
1.99812
1.99747
1.99692
1.99656
1.99644
1.99656
1.99692
1.99747
1.99812
1.99878
1.99935
1.99978
2.00004
2.00016
2.00017
2.00014
2.00009
2.00005
2.00002
2.00001
2
2
2
2
2
2
2
2
2
2
2
2
2
2
2.00032
2.0002
1.99992
1.99945
1.99878
1.99794
1.99702
1.99615
1.99544
1.99498
1.99482
1.99498
1.99544
1.99615
1.99702
1.99794
1.99877
1.99942
1.99986
2.00009
2.00017
2.00015
2.00011
2.00006
2.00003
2.00001
2
2
2
2
2
2
2
2
2
2
2
2
2
2
2.0003
2.00011
1.9997
1.99903
1.99812
1.99702
1.99587
1.99481
1.99397
1.99344
1.99325
1.99344
1.99397
1.99481
1.99587
1.99702
1.9981
1.99899
1.99962
1.99998
2.00014
2.00016
2.00013
2.00008
2.00004
2.00002
2
2
2
2
2
2
2
2
2
2
2
2
2
2
2.00025
2
1.99945
1.9986
1.99747
1.99615
1.99481
1.99361
1.99268
1.99211
1.99192
1.99211
1.99268
1.99361
1.99481
1.99615
1.99745
1.99855
1.99936
1.99986
2.0001
2.00016
2.00014
2.00009
2.00005
2.00002
2.00001
2
2
2
2
2
2
2
2
2
2
2
2
2
2.0002
1.99988
1.99923
1.99823
1.99692
1.99544
1.99397
1.99268
1.99172
1.99113
1.99093
1.99113
1.99172
1.99268
1.99397
1.99543
1.9969
1.99817
1.99913
1.99974
2.00005
2.00015
2.00014
2.0001
2.00005
2.00002
2.00001
2
2
2
2
2
2
2
2
2
2
2
2
2
2.00016
1.9998
1.99908
1.99797
1.99656
1.99498
1.99344
1.99211
1.99113
1.99054
1.99034
1.99054
1.99113
1.99211
1.99343
1.99497
1.99653
1.99792
1.99897
1.99966
2.00001
2.00014
2.00015
2.0001
2.00006
2.00003
2.00001
2
2
2
2
2
2
2
2
2
2
2
2
2
2.00014
1.99977
1.99902
1.99789
1.99644
1.99482
1.99325
1.99192
1.99093
1.99034
1.99015
1.99034
1.99093
1.99192
1.99325
1.99481
1.99641
1.99783
1.99891
1.99963
2
2.00014
2.00015
2.00011
2.00006
2.00003
2.00001
2
2
2
2
2
2
2
2
2
2
2
2
2
2.00016
1.9998
1.99908
1.99798
1.99656
1.99498
1.99344
1.99211
1.99113
1.99054
1.99034
1.99054
1.99113
1.99211
1.99343
1.99497
1.99653
1.99792
1.99897
1.99966
2.00001
2.00014
2.00015
2.0001
2.00006
2.00003
2.00001
2
2
2
2
2
2
2
2
2
2
2
2
2
2.0002
1.99988
1.99923
1.99823
1.99692
1.99544
1.99397
1.99268
1.99172
1.99113
1.99093
1.99113
1.99172
1.99268
1.99397
1.99543
1.9969
1.99817
1.99913
1.99974
2.00005
2.00015
2.00014
2.0001
2.00006
2.00003
2.00001
2
2
2
2
2
2
2
2
2
2
2
2
2
2.00025
2
1.99945
1.9986
1.99747
1.99615
1.99481
1.99361
1.99268
1.99211
1.99192
1.99211
1.99268
1.99361
1.99481
1.99615
1.99745
1.99855
1.99936
1.99986
2.0001
2.00016
2.00014
2.00009
2.00005
2.00002
2.00001
2
2
2
2
2
2
2
2
2
2
2
2
2
2.0003
2.00011
1.9997
1.99903
1.99812
1.99702
1.99587
1.99481
1.99397
1.99343
1.99325
1.99343
1.99397
1.99481
1.99587
1.99702
1.9981
1.99899
1.99962
1.99998
2.00014
2.00016
2.00013
2.00008
2.00004
2.00002
2
2
2
2
2
2
2
2
2
2
2
2
2
2
2.00032
2.0002
1.99992
1.99945
1.99878
1.99794
1.99702
1.99615
1.99543
1.99497
1.99481
1.99497
1.99543
1.99615
1.99702
1.99793
1.99877
1.99942
1.99986
2.00009
2.00017
2.00016
2.00011
2.00006
2.00003
2.00001
2
1.99999
1.99999
1.99999
1.99999
1.99999
1.99999
1.99999
1.99999
2
2
2
2
2
2.00031
2.00024
2.00009
1.9998
1.99935
1.99877
1.9981
1.99745
1.9969
1.99653
1.99641
1.99653
1.9969
1.99745
1.9981
1.99877
1.99934
1.99978
2.00004
2.00016
2.00017
2.00014
2.00009
2.00004
2.00001
2
1.99999
1.99998
1.99998
1.99998
1.99997
1.99998
1.99998
1.99998
1.99998
1.99999
1.99999
2
2
2
2.00026
2.00024
2.00018
2.00003
1.99978
1.99942
1.99899
1.99855
1.99817
1.99792
1.99783
1.99792
1.99817
1.99855
1.99899
1.99942
1.99978
2.00002
2.00014
2.00018
2.00015
2.00011
2.00006
2.00002
1.99999
1.99998
1.99997
1.99996
1.99996
1.99995
1.99995
1.99995
1.99996
1.99996
1.99997
1.99997
1.99998
1.99999
1.99999
2
2.0002
2.00021
2.0002
2.00015
2.00004
1.99986
1.99962
1.99936
1.99913
1.99897
1.99891
1.99897
1.99913
1.99936
1.99962
1.99986
2.00004
2.00014
2.00018
2.00016
2.00012
2.00007
2.00003
1.99999
1.99997
1.99995
1.99994
1.99993
1.99993
1.99992
1.99992
1.99992
1.99993
1.99993
1.99994
1.99995
1.99996
1.99997
1.99998
1.99999
2.00014
2.00015
2.00017
2.00018
2.00016
2.00009
1.99998
1.99986
1.99974
1.99966
1.99963
1.99966
1.99974
1.99986
1.99998
2.00009
2.00016
2.00018
2.00016
2.00012
2.00008
2.00003
1.99999
1.99996
1.99994
1.99992
1.99991
1.99991
1.99991
1.99991
1.99991
1.99991
1.99991
1.99991
1.99991
1.99992
1.99994
1.99995
1.99996
1.99997
2.00008
2.0001
2.00013
2.00016
2.00017
2.00017
2.00014
2.0001
2.00005
2.00001
2
2.00001
2.00005
2.0001
2.00014
2.00017
2.00017
2.00015
2.00012
2.00008
2.00003
1.99999
1.99996
1.99993
1.99991
1.9999
1.9999
1.99991
1.99992
1.99993
1.99993
1.99993
1.99992
1.99991
1.9999
1.9999
1.99991
1.99992
1.99993
1.99994
2.00004
2.00006
2.00008
2.00011
2.00014
2.00015
2.00016
2.00016
2.00015
2.00014
2.00014
2.00014
2.00015
2.00016
2.00016
2.00016
2.00014
2.00011
2.00007
2.00003
1.99999
1.99996
1.99992
1.9999
1.99989
1.9999
1.99993
1.99997
2.00001
2.00004
2.00005
2.00004
2.00001
1.99997
1.99993
1.99991
1.99989
1.99989
1.9999
1.99991
2.00002
2.00003
2.00004
2.00006
2.00009
2.00011
2.00013
2.00014
2.00014
2.00015
2.00015
2.00015
2.00014
2.00014
2.00013
2.00011
2.00009
2.00006
2.00003
1.99999
1.99996
1.99992
1.9999
1.99989
1.99991
1.99997
2.00004
2.00014
2.00022
2.00028
2.0003
2.00028
2.00022
2.00014
2.00004
1.99997
1.99991
1.99988
1.99987
1.99986
2
2.00001
2.00002
2.00003
2.00005
2.00006
2.00008
2.00009
2.0001
2.0001
2.00011
2.0001
2.0001
2.00009
2.00008
2.00006
2.00004
2.00002
1.99999
1.99996
1.99993
1.9999
1.99989
1.99992
1.99999
2.00011
2.00027
2.00044
2.00059
2.0007
2.00074
2.0007
2.00059
2.00044
2.00027
2.00011
1.99998
1.99989
1.99985
1.99983
2
2
2.00001
2.00001
2.00002
2.00003
2.00004
2.00005
2.00005
2.00006
2.00006
2.00006
2.00006
2.00005
2.00004
2.00003
2.00001
1.99999
1.99997
1.99994
1.99991
1.99989
1.99991
1.99999
2.00014
2.00035
2.00062
2.00089
2.00113
2.00129
2.00134
2.00129
2.00113
2.00089
2.00062
2.00035
2.00012
1.99995
1.99985
1.9998
2
2
2
2
2.00001
2.00001
2.00002
2.00002
2.00002
2.00003
2.00003
2.00003
2.00003
2.00002
2.00002
2.00001
2
1.99998
1.99995
1.99992
1.9999
1.9999
1.99997
2.00011
2.00035
2.00069
2.00107
2.00145
2.00178
2.00199
2.00207
2.00199
2.00178
2.00145
2.00107
2.00068
2.00033
2.00006
1.99989
1.99981
2
2
2
2
2
2
2
2.00001
2.00001
2.00001
2.00001
2.00001
2.00001
2.00001
2
2
1.99999
1.99997
1.99994
1.99991
1.9999
1.99993
2.00004
2.00027
2.00062
2.00107
2.00158
2.00207
2.00247
2.00274
2.00283
2.00274
2.00247
2.00207
2.00157
2.00106
2.00058
2.00021
1.99996
1.99983
2
2
2
2
2
2
2
2
2
2
2
2
2
2
2
1.99999
1.99998
1.99996
1.99993
1.99991
1.99991
1.99997
2.00014
2.00044
2.00089
2.00145
2.00207
2.00265
2.00312
2.00342
2.00353
2.00342
2.00312
2.00265
2.00206
2.00144
2.00085
2.00037
2.00004
1.99988
2
2
2
2
2
2
2
2
2
2
2
2
2
2
2
1.99999
1.99998
1.99996
1.99993
1.99991
1.99992
2.00001
2.00022
2.00059
2.00113
2.00178
2.00247
2.00312
2.00363
2.00396
2.00407
2.00396
2.00363
2.00312
2.00246
2.00176
2.00108
2.00052
2.00013
1.99993
2
2
2
2
2
2
2
2
2
2
2
2
2
2
2
1.99999
1.99998
1.99995
1.99992
1.99991
1.99993
2.00004
2.00028
2.0007
2.00129
2.00199
2.00274
2.00342
2.00396
2.0043
2.00442
2.0043
2.00396
2.00342
2.00273
2.00197
2.00124
2.00062
2.00019
1.99997
2
2
2
2
2
2
2
2
2
2
2
2
2
2
2
1.99999
1.99997
1.99995
1.99992
1.99991
1.99993
2.00005
2.0003
2.00074
2.00134
2.00207
2.00283
2.00353
2.00407
2.00442
2.00454
2.00442
2.00407
2.00352
2.00282
2.00204
2.00129
2.00066
2.00021
1.99998
2
2
2
2
2
2
2
2
2
2
2
2
2
2
2
1.99999
1.99998
1.99995
1.99992
1.99991
1.99993
2.00004
2.00028
2.0007
2.00129
2.00199
2.00274
2.00342
2.00396
2.0043
2.00442
2.0043
2.00396
2.00342
2.00273
2.00197
2.00124
2.00062
2.00019
1.99997
2
2
2
2
2
2
2
2
2
2
2
2
2
2
2
1.99999
1.99998
1.99996
1.99993
1.99991
1.99992
2.00001
2.00022
2.00059
2.00113
2.00178
2.00247
2.00312
2.00363
2.00396
2.00407
2.00396
2.00363
2.00312
2.00246
2.00176
2.00108
2.00052
2.00013
1.99993
2
2
2
2
2
2
2
2
2
2
2
2
2
2
2
1.99999
1.99998
1.99996
1.99993
1.99991
1.99991
1.99997
2.00014
2.00044
2.00089
2.00145
2.00207
2.00265
2.00312
2.00342
2.00352
2.00342
2.00312
2.00264
2.00206
2.00143
2.00085
2.00037
2.00004
1.99988
2
2
2
2
2
2
2
2
2
2
2
2
2
2
2
1.99999
1.99998
1.99997
1.99994
1.99991
1.9999
1.99993
2.00004
2.00027
2.00062
2.00107
2.00157
2.00206
2.00246
2.00273
2.00282
2.00273
2.00246
2.00206
2.00157
2.00105
2.00058
2.00021
1.99996
1.99983
2
2
2
2
2
2
2
2
2
2
2
2
2
2
2
2
1.99999
1.99997
1.99995
1.99992
1.9999
1.99991
1.99997
2.00011
2.00035
2.00068
2.00106
2.00144
2.00176
2.00197
2.00204
2.00197
2.00176
2.00143
2.00105
2.00066
2.00032
2.00006
1.99989
1.99981
2
2
2
2
2
2
2
2
2
2
2
2
2
2
2
2
1.99999
1.99998
1.99996
1.99994
1.99991
1.99989
1.99991
1.99998
2.00012
2.00033
2.00058
2.00085
2.00108
2.00124
2.00129
2.00124
2.00108
2.00085
2.00058
2.00032
2.0001
1.99994
1.99985
1.9998
2
2
2
2
2
2
2
2
2
2
2
2
2
2
2
2
2
1.99999
1.99997
1.99995
1.99992
1.99989
1.99988
1.99989
1.99995
2.00006
2.00021
2.00037
2.00052
2.00062
2.00066
2.00062
2.00052
2.00037
2.00021
2.00006
1.99994
1.99987
1.99983
1.99981
2
2
2
2
2
2
2
2
2
2
2
2
2
2
2
2
2
1.99999
1.99998
1.99996
1.99993
1.9999
1.99987
1.99985
1.99985
1.99989
1.99996
2.00004
2.00013
2.00019
2.00021
2.00019
2.00013
2.00004
1.99996
1.99989
1.99985
1.99983
1.99983
1.99983
2
2
2
2
2
2
2
2
2
2
2
2
2
2
2
2
2
2
1.99999
1.99997
1.99994
1.99991
1.99986
1.99983
1.9998
1.99981
1.99983
1.99988
1.99993
1.99997
1.99998
1.99997
1.99993
1.99988
1.99983
1.99981
1.9998
1.99981
1.99983
1.99985
