# vtk DataFile Version 3.0
Brusselator Concentration Output
ASCII
DATASET STRUCTURED_POINTS
DIMENSIONS 40 40 1
ORIGIN 0.0 0.0 0.0
SPACING 0.005 0.005 1.0
POINT_DATA 1600
SCALARS C1 double 1
LOOKUP_TABLE default
1
1
1
1
1
1
1
1
1
0.999999
0.999999
0.999999
1
1
1
1
1
1
1
1
1
1
1
1
1
1
1
1
1
1
1
1
1
1
1
1
1
1
1
1
1
1
1
1
1
1
1
0.999997
0.999993
0.999989
0.999987
0.999989
0.999993
0.999997
1
1
1
1
1
1
1
1
1
1
1
1
1
1
1
1
1
1
1
1
1
1
1
1
1
1
1
1
1
1
1
0.999999
0.999993
0.99998
0.999962
0.999945
0.999938
0.999945
0.999962
0.99998
0.999993
0.999999
1
1
1
1
1
1
1
1
1
1
1
1
1
1
1
1
1
1
1
1
1
1
1
1
1
1
1
1
0.999998
0.999989
0.999962
0.999913
0.999852
0.999803
0.999785
0.999803
0.999852
0.999913
0.999962
0.999989
0.999998
1
1
1
1
1
1
1
1
1
1
1
1
1
1
1
1
1
1
1
1
1
1
1
1
1
1
0.999998
0.999986
0.999948
0.999861
0.999723
0.999575
0.99948
0.999455
0.99948
0.999575
0.999723
0.999861
0.999948
0.999986
0.999998
1
1
1
1
1
1
1
1
1
1
1
1
1
1
1
1
1
1
1
1
1
1
1
1
0.999999
0.999989
0.999948
0.999839
0.999625
0.99934
0.999122
0.999085
0.999119
0.999085
0.999122
0.99934
0.999625
0.999839
0.999948
0.999989
0.999999
1
1
1
1
1
1
1
1
1
1
1
1
1
1
1
1
1
1
1
1
1
1
1
0.999993
0.999962
0.999861
0.999625
0.999238
0.998885
0.998933
0.999455
0.999807
0.999455
0.998933
0.998885
0.999238
0.999625
0.999861
0.999962
0.999993
1
1
1
1
1
1
1
1
1
1
1
1
1
1
1
1
1
1
1
1
1
1
0.999997
0.99998
0.999913
0.999723
0.99934
0.998885
0.998931
1.00026
1.00258
1.00383
1.00258
1.00026
0.998931
0.998885
0.99934
0.999723
0.999913
0.99998
0.999997
1
1
1
1
1
1
1
1
1
1
1
1
1
1
1
1
1
1
1
1
1
0.999993
0.999962
0.999852
0.999575
0.999122
0.998933
1.00026
1.0044
1.01023
1.01315
1.01023
1.0044
1.00026
0.998933
0.999122
0.999575
0.999852
0.999962
0.999993
1
1
1
1
1
1
1
1
1
1
1
1
1
1
1
1
1
1
1
1
0.999999
0.999989
0.999945
0.999803
0.99948
0.999085
0.999455
1.00258
1.01023
1.02012
1.02488
1.02012
1.01023
1.00258
0.999455
0.999085
0.99948
0.999803
0.999945
0.999989
0.999999
1
1
1
1
1
1
1
1
1
1
1
1
1
1
1
1
1
1
1
0.999999
0.999987
0.999938
0.999785
0.999455
0.999119
0.999807
1.00383
1.01315
1.02488
1.03044
1.02488
1.01315
1.00383
0.999807
0.999119
0.999455
0.999785
0.999938
0.999987
0.999998
1
1
1
1
1
1
1
1
1
1
1
1
1
1
1
1
1
1
1
0.999999
0.999989
0.999945
0.999803
0.99948
0.999085
0.999455
1.00258
1.01023
1.02012
1.02488
1.02012
1.01023
1.00258
0.999455
0.999085
0.99948
0.999803
0.999945
0.999989
0.999999
1
1
1
1
1
1
1
1
1
1
1
1
1
1
1
1
1
1
1
1
0.999993
0.999962
0.999852
0.999575
0.999122
0.998933
1.00026
1.0044
1.01023
1.01315
1.01023
1.0044
1.00026
0.998933
0.999122
0.999575
0.999852
0.999962
0.999993
1
1
1
1
1
1
1
1
1
1
1
1
1
1
1
1
1
1
1
1
1
0.999997
0.99998
0.999913
0.999723
0.99934
0.998885
0.998931
1.00026
1.00258
1.00383
1.00258
1.00026
0.998931
0.998885
0.99934
0.999723
0.999913
0.99998
0.999997
1
1
1
1
1
1
1
1
1
1
1
1
1
1
1
1
1
1
1
1
1
1
0.999993
0.999962
0.999861
0.999625
0.999238
0.998885
0.998933
0.999455
0.999807
0.999455
0.998933
0.998885
0.999238
0.999625
0.999861
0.999962
0.999993
1
1
1
1
1
1
1
1
1
1
1
1
1
1
1
1
1
1
1
1
1
1
1
0.999999
0.999989
0.999948
0.999839
0.999625
0.99934
0.999122
0.999085
0.999119
0.999085
0.999122
0.99934
0.999625
0.999839
0.999948
0.999989
0.999999
1
1
1
1
1
1
1
1
1
1
1
1
1
1
1
1
1
1
1
1
1
1
1
1
0.999998
0.999986
0.999948
0.999861
0.999723
0.999575
0.99948
0.999455
0.99948
0.999575
0.999723
0.999861
0.999948
0.999986
0.999998
1
1
1
1
1
1
1
1
1
1
1
1
1
1
1
1
1
1
1
1
1
1
1
1
1
1
0.999998
0.999989
0.999962
0.999913
0.999852
0.999803
0.999785
0.999803
0.999852
0.999913
0.999962
0.999989
0.999998
1
1
1
1
1
1
1
1
1
1
1
1
1
1
1
1
1
1
1
1
1
1
1
1
1
1
1
1
0.999999
0.999993
0.99998
0.999962
0.999945
0.999938
0.999945
0.999962
0.99998
0.999993
0.999999
1
1
1
1
1
1
1
1
1
1
1
1
1
1
1
1
1
1
1
1
1
1
1
1
1
1
1
1
1
1
1
0.999997
0.999993
0.999989
0.999987
0.999989
0.999993
0.999997
1
1
1
1
1
1
1
1
1
1
1
1
1
1
1
1
1
1
1
1
1
1
1
1
1
1
1
1
1
1
1
1
1
1
1
0.999999
0.999998
0.999999
1
1
1
1
1
1
1
1
1
1
1
1
1
1
1
1
1
1
1
1
1
1
1
1
1
1
1
1
1
1
1
1
1
1
1
1
1
1
1
1
1
1
1
1
1
1
1
1
1
1
1
1
1
1
1
1
1
1
1
1
1
1
1
1
1
1
1
1
1
1
1
1
1
1
1
1
1
1
1
1
1
1
1
1
1
1
1
1
1
1
1
1
1
1
1
1.00001
1.00001
1.00002
1.00002
1.00002
1.00001
1.00001
1
1
1
1
1
1
1
1
1
1
1
1
1
1
1
1
1
1
1
1
1
1
1
1
1
1
1
1
1
1
1
1
1.00001
1.00003
1.00006
1.00008
1.00009
1.00008
1.00006
1.00003
1.00001
1
1
1
1
1
1
1
1
1
1
1
1
1
1
1
1
1
1
1
1
1
1
1
1
1
1
1
1
1
1
1.00002
1.00005
1.00011
1.00018
1.00023
1.00025
1.00023
1.00018
1.00011
1.00005
1.00002
1
1
1
1
1
1
1
1
1
1
1
1
1
1
1
1
1
1
1
1
1
1
1
1
1
1
1
1
1.00002
1.00006
1.00015
1.00029
1.00042
1.00048
1.00049
1.00048
1.00042
1.00029
1.00015
1.00006
1.00002
1
1
0.999999
1
1
1
1
1
1
1
1
1
1
1
1
1
1
1
1
1
1
1
1
1
1
1
1.00001
1.00005
1.00015
1.00033
1.00055
1.00067
1.00058
1.00049
1.00058
1.00067
1.00055
1.00033
1.00015
1.00005
1.00001
1
1
1
1
1
1
1
1
1
1
1
1
1
1
1
1
1
1
1
1
1
1
1
1
1.00001
1.00003
1.00011
1.00029
1.00055
1.00073
1.00047
0.99976
0.999315
0.99976
1.00047
1.00073
1.00055
1.00029
1.00011
1.00003
1.00001
1
1
1
1
1
1
1
1
1
1
1
1
1
1
1
1
1
1
1
1
1
1
1
1.00001
1.00006
1.00018
1.00042
1.00067
1.00047
0.999211
0.99711
0.995955
0.99711
0.999211
1.00047
1.00067
1.00042
1.00018
1.00006
1.00001
1
1
1
1
1
1
1
1
1
1
1
1
1
1
1
1
1
1
1
1
1
1
1
1.00002
1.00008
1.00023
1.00048
1.00058
0.99976
0.99711
0.993257
0.991238
0.993257
0.99711
0.99976
1.00058
1.00048
1.00023
1.00008
1.00002
1
1
1
1
1
1
1
1
1
1
1
1
1
1
1
1
1
1
1
1
1
1
1
1.00002
1.00009
1.00025
1.00049
1.00049
0.999315
0.995955
0.991238
0.988798
0.991238
0.995955
0.999315
1.00049
1.00049
1.00025
1.00009
1.00002
1
1
1
1
1
1
1
1
1
1
1
1
1
1
1
1
1
1
1
1
1
1
1
1.00002
1.00008
1.00023
1.00048
1.00058
0.99976
0.99711
0.993257
0.991238
0.993257
0.99711
0.99976
1.00058
1.00048
1.00023
1.00008
1.00002
1
1
1
1
1
1
1
1
1
1
1
1
1
1
1
1
1
1
1
1
1
1
1
1.00001
1.00006
1.00018
1.00042
1.00067
1.00047
0.999211
0.99711
0.995955
0.99711
0.999211
1.00047
1.00067
1.00042
1.00018
1.00006
1.00001
1
1
1
1
1
1
1
1
1
1
1
1
1
1
1
1
1
1
1
1
1
1
1
1.00001
1.00003
1.00011
1.00029
1.00055
1.00073
1.00047
0.99976
0.999315
0.99976
1.00047
1.00073
1.00055
1.00029
1.00011
1.00003
1.00001
1
1
1
1
1
1
1
1
1
1
1
1
1
1
1
1
1
1
1
1
1
1
1
1
1.00001
1.00005
1.00015
1.00033
1.00055
1.00067
1.00058
1.00049
1.00058
1.00067
1.00055
1.00033
1.00015
1.00005
1.00001
1
1
1
1
1
1
1
1
1
1
1
1
1
1
1
1
1
1
1
1
1
1
1
1
1
1
1.00002
1.00006
1.00015
1.00029
1.00042
1.00048
1.00049
1.00048
1.00042
1.00029
1.00015
1.00006
1.00002
1
1
0.999999
1
1
1
1
1
1
1
1
1
1
1
1
1
1
1
1
1
1
1
1
1
1
1
1
1
1.00002
1.00005
1.00011
1.00018
1.00023
1.00025
1.00023
1.00018
1.00011
1.00005
1.00002
1
1
1
1
1
1
1
1
1
1
1
1
1
1
1
1
1
1
1
1
1
1
1
1
1
1
1
1
1
1
1.00001
1.00003
1.00006
1.00008
1.00009
1.00008
1.00006
1.00003
1.00001
1
1
1
1
1
1
1
1
1
1
1
1
1
1
1
1
1
1
1
1
1
1
1
1
1
1
1
1
1
1
1
1
1.00001
1.00001
1.00002
1.00002
1.00002
1.00001
1.00001
1
1
1
1
1
1
1
1
1
1
1
1
1
1
1
1
1
1
1
1
1
1
1
1
1
1
1
1
1
1
1
0.999999
1
1
1
1
1
1
1
1
1
0.999999
1
1
1
1
SCALARS C2 double 1
LOOKUP_TABLE default
2
2
2
2
2
2
2
2
2
2
2
2
2
2
2
2
2
2
2
2
2
2
2
2
2
2
2
2
2
2
2
2
2
2
2
2
2
2
2
2
2
2
2
2
2
2
2
2
2
2
2
2
2
2
2
2
2
2
2
2
2
2
2
2
2
2
2
2
2
2
2
2
2
2
2
2
2
2
2
2
2
2
2
2
2
2
2
2
2.00002
2.00003
2.00004
2.00003
2.00002
2
2
2
2
2
2
2
2
2
2
2
2
2
2
2
2
2
2
2
2
2
2
2
2
2
2
2
2
2
2
2
2
2
2.00001
2.00005
2.00012
2.00019
2.00021
2.00019
2.00012
2.00005
2.00001
2
2
2
2
2
2
2
2
2
2
2
2
2
2
2
2
2
2
2
2
2
2
2
2
2
2
2
2
2
2
2.00002
2.00009
2.00025
2.00048
2.00069
2.00077
2.00069
2.00048
2.00025
2.00009
2.00002
2
2
2
2
2
2
2
2
2
2
2
2
2
2
2
2
2
2
2
2
2
2
2
2
2
2
2
2
2.00002
2.00011
2.00036
2.00083
2.00144
2.00194
2.00211
2.00194
2.00144
2.00083
2.00036
2.00011
2.00002
2
2
2
2
2
2
2
2
2
2
2
2
2
2
2
2
2
2
2
2
2
2
2
2
2
2
2.00001
2.00009
2.00036
2.00099
2.00206
2.00327
2.00405
2.00421
2.00405
2.00327
2.00206
2.00099
2.00036
2.00009
2.00001
2
2
2
2
2
2
2
2
2
2
2
2
2
2
2
2
2
2
2
2
2
2
2
2
2
2.00005
2.00025
2.00083
2.00206
2.00388
2.00543
2.0057
2.00533
2.0057
2.00543
2.00388
2.00206
2.00083
2.00025
2.00005
2
2
2
2
2
2
2
2
2
2
2
2
2
2
2
2
2
2
2
2
2
2
2
2
2.00002
2.00012
2.00048
2.00144
2.00327
2.00543
2.00601
2.00374
2.00163
2.00374
2.00601
2.00543
2.00327
2.00144
2.00048
2.00012
2.00002
2
2
2
2
2
2
2
2
2
2
2
2
2
2
2
2
2
2
2
2
2
2
2
2.00003
2.00019
2.00069
2.00194
2.00405
2.0057
2.00374
1.99685
1.99191
1.99685
2.00374
2.0057
2.00405
2.00194
2.00069
2.00019
2.00003
2
2
2
2
2
2
2
2
2
2
2
2
2
2
2
2
2
2
2
2
2
2
2
2.00004
2.00021
2.00077
2.00211
2.00421
2.00533
2.00163
1.99191
1.98529
1.99191
2.00163
2.00533
2.00421
2.00211
2.00077
2.00021
2.00004
2
2
2
2
2
2
2
2
2
2
2
2
2
2
2
2
2
2
2
2
2
2
2
2.00003
2.00019
2.00069
2.00194
2.00405
2.0057
2.00374
1.99685
1.99191
1.99685
2.00374
2.0057
2.00405
2.00194
2.00069
2.00019
2.00003
2
2
2
2
2
2
2
2
2
2
2
2
2
2
2
2
2
2
2
2
2
2
2
2.00002
2.00012
2.00048
2.00144
2.00327
2.00543
2.00601
2.00374
2.00163
2.00374
2.00601
2.00543
2.00327
2.00144
2.00048
2.00012
2.00002
2
2
2
2
2
2
2
2
2
2
2
2
2
2
2
2
2
2
2
2
2
2
2
2
2.00005
2.00025
2.00083
2.00206
2.00388
2.00543
2.0057
2.00533
2.0057
2.00543
2.00388
2.00206
2.00083
2.00025
2.00005
2
2
2
2
2
2
2
2
2
2
2
2
2
2
2
2
2
2
2
2
2
2
2
2
2
2.00001
2.00009
2.00036
2.00099
2.00206
2.00327
2.00405
2.00421
2.00405
2.00327
2.00206
2.00099
2.00036
2.00009
2.00001
2
2
2
2
2
2
2
2
2
2
2
2
2
2
2
2
2
2
2
2
2
2
2
2
2
2
2.00002
2.00011
2.00036
2.00083
2.00144
2.00194
2.00211
2.00194
2.00144
2.00083
2.00036
2.00011
2.00002
2
2
2
2
2
2
2
2
2
2
2
2
2
2
2
2
2
2
2
2
2
2
2
2
2
2
2
2
2.00002
2.00009
2.00025
2.00048
2.00069
2.00077
2.00069
2.00048
2.00025
2.00009
2.00002
2
2
2
2
2
2
2
2
2
2
2
2
2
2
2
2
2
2
2
2
2
2
2
2
2
2
2
2
2
2
2.00001
2.00005
2.00012
2.00019
2.00021
2.00019
2.00012
2.00005
2.00001
2
2
2
2
2
2
2
2
2
2
2
2
2
2
2
2
2
2
2
2
2
2
2
2
2
2
2
2
2
2
2
2
2
2.00002
2.00003
2.00004
2.00003
2.00002
2
2
2
2
2
2
2
2
2
2
2
2
2
2
2
2
2
2
2
2
2
2
2
2
2
2
2
2
2
2
2
2
2
2
2
2
2
2
2
2
2
2
2
2
2
2
2
2
2
2
2
2
2
2
2
2
2
2
2
2
2
2
2
2
2
2
2
2
2
2
2
2
2
2
2
2
2
2
2
2
2
2
2
2
2
2
2
2
2
2
2
2
2
2
2
2
2
2
2
2
2
2
2
2
2
2
2
2
2
2
2
2
2
2
2
2
2
2
2
2
2
2
2
2
2
2
2
2
2
2
2
2
2
2
2
2
2
2
2
2
2
2
2
2
2
2
2
2
2
2
2
2
2
2
2
2
2
2
2
2
2
2
2
2
2
2
2
2
2
2
2
2
2
2
2
2
1.99999
1.99999
1.99999
2
2
2
2
2
2
2
2
2
2
2
2
2
2
2
2
2
2
2
2
2
2
2
2
2
2
2
2
2
2
2
2
2
2
2
1.99998
1.99996
1.99993
1.99992
1.99993
1.99996
1.99998
2
2
2
2
2
2
2
2
2
2
2
2
2
2
2
2
2
2
2
2
2
2
2
2
2
2
2
2
2
2
2
2
1.99997
1.99991
1.99982
1.99973
1.99969
1.99973
1.99982
1.99991
1.99997
2
2
2
2
2
2
2
2
2
2
2
2
2
2
2
2
2
2
2
2
2
2
2
2
2
2
2
2
2
2
1.99996
1.99987
1.99968
1.99941
1.99917
1.99908
1.99917
1.99941
1.99968
1.99987
1.99996
2
2
2
2
2
2
2
2
2
2
2
2
2
2
2
2
2
2
2
2
2
2
2
2
2
2
2
2
1.99997
1.99987
1.99962
1.99915
1.99854
1.99807
1.99792
1.99807
1.99854
1.99915
1.99962
1.99987
1.99997
2
2
2
2
2
2
2
2
2
2
2
2
2
2
2
2
2
2
2
2
2
2
2
2
2
2
1.99998
1.99991
1.99968
1.99915
1.99825
1.99725
1.99668
1.99661
1.99668
1.99725
1.99825
1.99915
1.99968
1.99991
1.99998
2
2
2
2
2
2
2
2
2
2
2
2
2
2
2
2
2
2
2
2
2
2
2
2
2
1.99996
1.99982
1.99941
1.99854
1.99725
1.9962
1.99616
1.99656
1.99616
1.9962
1.99725
1.99854
1.99941
1.99982
1.99996
2
2
2
2
2
2
2
2
2
2
2
2
2
2
2
2
2
2
2
2
2
2
2
2
1.99999
1.99993
1.99973
1.99917
1.99807
1.99668
1.99616
1.99739
1.99867
1.99739
1.99616
1.99668
1.99807
1.99917
1.99973
1.99993
1.99999
2
2
2
2
2
2
2
2
2
2
2
2
2
2
2
2
2
2
2
2
2
2
2
1.99999
1.99992
1.99969
1.99908
1.99792
1.99661
1.99656
1.99867
2.00048
1.99867
1.99656
1.99661
1.99792
1.99908
1.99969
1.99992
1.99999
2
2
2
2
2
2
2
2
2
2
2
2
2
2
2
2
2
2
2
2
2
2
2
1.99999
1.99993
1.99973
1.99917
1.99807
1.99668
1.99616
1.99739
1.99867
1.99739
1.99616
1.99668
1.99807
1.99917
1.99973
1.99993
1.99999
2
2
2
2
2
2
2
2
2
2
2
2
2
2
2
2
2
2
2
2
2
2
2
2
1.99996
1.99982
1.99941
1.99854
1.99725
1.9962
1.99616
1.99656
1.99616
1.9962
1.99725
1.99854
1.99941
1.99982
1.99996
2
2
2
2
2
2
2
2
2
2
2
2
2
2
2
2
2
2
2
2
2
2
2
2
2
1.99998
1.99991
1.99968
1.99915
1.99825
1.99725
1.99668
1.99661
1.99668
1.99725
1.99825
1.99915
1.99968
1.99991
1.99998
2
2
2
2
2
2
2
2
2
2
2
2
2
2
2
2
2
2
2
2
2
2
2
2
2
2
1.99997
1.99987
1.99962
1.99915
1.99854
1.99807
1.99792
1.99807
1.99854
1.99915
1.99962
1.99987
1.99997
2
2
2
2
2
2
2
2
2
2
2
2
2
2
2
2
2
2
2
2
2
2
2
2
2
2
2
2
1.99996
1.99987
1.99968
1.99941
1.99917
1.99908
1.99917
1.99941
1.99968
1.99987
1.99996
2
2
2
2
2
2
2
2
2
2
2
2
2
2
2
2
2
2
2
2
2
2
2
2
2
2
2
2
2
2
1.99997
1.99991
1.99982
1.99973
1.99969
1.99973
1.99982
1.99991
1.99997
2
2
2
2
2
2
2
2
2
2
2
2
2
2
2
2
2
2
2
2
2
2
2
2
2
2
2
2
2
2
2
2
1.99998
1.99996
1.99993
1.99992
1.99993
1.99996
1.99998
2
2
2
2
2
2
2
2
2
2
2
2
2
2
2
2
2
2
2
2
2
2
2
2
2
2
2
2
2
2
2
2
2
2
2
1.99999
1.99999
1.99999
2
2
2
2
2
2
2
2
2
2
2
2
2
2
2
2
2
2
2
2
2
2
2
2
2
2
2
2
2
2
2
2
2
2
2
2
2
2
2
2
2
2
2
2
2
2
2
2
