# vtk DataFile Version 3.0
Brusselator Concentration Output
ASCII
DATASET STRUCTURED_POINTS
DIMENSIONS 40 40 1
ORIGIN 0.0 0.0 0.0
SPACING 0.005 0.005 1.0
POINT_DATA 1600
SCALARS C1 double 1
LOOKUP_TABLE default
1.00004
1.00006
1.0001
1.00014
1.00017
1.00019
1.00018
1.00016
1.00013
1.00011
1.0001
1.00011
1.00013
1.00016
1.00018
1.00019
1.00017
1.00014
1.0001
1.00006
1.00003
1.00001
1
1
0.999999
0.999999
0.999999
1
1
1
1
1
1
1
1
1
1
1
1
1
1.00006
1.00008
1.00011
1.00013
1.00014
1.00012
1.00007
0.999997
0.999922
0.999866
0.999846
0.999866
0.999922
0.999997
1.00007
1.00012
1.00014
1.00013
1.00011
1.00007
1.00004
1.00002
1.00001
1
1
0.999999
0.999999
1
1
1
1
1
1
1
1
1
1
1
1
1
1.0001
1.00011
1.00012
1.00011
1.00006
0.999955
0.999803
0.999628
0.999466
0.999351
0.99931
0.999351
0.999466
0.999628
0.999803
0.999955
1.00006
1.00011
1.00012
1.00009
1.00006
1.00003
1.00002
1.00001
1
1
0.999999
1
1
1
1
1
1
1
1
1
1
1
1
1
1.00014
1.00013
1.00011
1.00004
0.999882
0.999641
0.999336
0.999012
0.998728
0.998535
0.998467
0.998535
0.998728
0.999013
0.999336
0.999642
0.999882
1.00003
1.0001
1.00011
1.00008
1.00005
1.00003
1.00001
1
1
1
1
1
1
1
1
1
1
1
1
1
1
1
1
1.00017
1.00014
1.00006
0.999882
0.999579
0.999156
0.998657
0.998157
0.997736
0.997458
0.997361
0.997458
0.997736
0.998158
0.998658
0.999156
0.999578
0.999875
1.00004
1.0001
1.0001
1.00007
1.00004
1.00002
1.00001
1
1
1
1
1
1
1
1
1
1
1
1
1
1
1
1.00019
1.00012
0.999955
0.999641
0.999156
0.998523
0.997818
0.997145
0.9966
0.996251
0.996131
0.996251
0.9966
0.997145
0.997819
0.998523
0.999153
0.99963
0.999928
1.00007
1.0001
1.00008
1.00005
1.00003
1.00001
1
1
1
1
1
1
1
1
1
1
1
1
1
1
1
1.00018
1.00007
0.999803
0.999336
0.998657
0.997818
0.996929
0.996118
0.995489
0.9951
0.994969
0.9951
0.995489
0.996118
0.996929
0.997817
0.998652
0.99932
0.999767
1.00001
1.00009
1.00009
1.00006
1.00004
1.00002
1.00001
1
1
1
1
1
1
1
1
1
1
1
1
1
1
1.00016
0.999997
0.999628
0.999012
0.998157
0.997145
0.996118
0.995222
0.99456
0.994167
0.994038
0.994167
0.99456
0.995223
0.996118
0.997143
0.99815
0.998993
0.999586
0.999924
1.00007
1.00009
1.00007
1.00004
1.00002
1.00001
1
1
1
1
1
1
1
1
1
1
1
1
1
1
1.00013
0.999922
0.999466
0.998728
0.997736
0.9966
0.995489
0.99456
0.993905
0.993533
0.993415
0.993533
0.993905
0.99456
0.995489
0.996598
0.997727
0.998705
0.999418
0.999845
1.00004
1.00009
1.00008
1.00005
1.00002
1.00001
1
1
1
1
1
1
1
1
1
1
1
1
1
1
1.00011
0.999866
0.999351
0.998535
0.997458
0.996251
0.9951
0.994167
0.993533
0.993187
0.99308
0.993187
0.993533
0.994167
0.995099
0.996248
0.997448
0.99851
0.999301
0.999786
1.00002
1.00009
1.00008
1.00005
1.00003
1.00001
1
1
1
1
1
1
1
1
1
1
1
1
1
1
1.0001
0.999846
0.99931
0.998467
0.997361
0.996131
0.994969
0.994038
0.993415
0.99308
0.992978
0.99308
0.993415
0.994039
0.994969
0.996128
0.997351
0.998441
0.999259
0.999765
1.00001
1.00009
1.00008
1.00005
1.00003
1.00001
1
1
1
1
1
1
1
1
1
1
1
1
1
1
1.00011
0.999866
0.999351
0.998535
0.997458
0.996251
0.9951
0.994167
0.993533
0.993187
0.99308
0.993187
0.993533
0.994167
0.995099
0.996248
0.997448
0.99851
0.999301
0.999786
1.00002
1.00009
1.00008
1.00005
1.00003
1.00001
1
1
1
1
1
1
1
1
1
1
1
1
1
1
1.00013
0.999922
0.999466
0.998728
0.997736
0.9966
0.995489
0.99456
0.993905
0.993533
0.993415
0.993533
0.993905
0.994561
0.995489
0.996598
0.997728
0.998706
0.999418
0.999845
1.00004
1.00009
1.00008
1.00005
1.00002
1.00001
1
1
1
1
1
1
1
1
1
1
1
1
1
1
1.00016
0.999997
0.999628
0.999013
0.998158
0.997145
0.996118
0.995223
0.99456
0.994167
0.994039
0.994167
0.994561
0.995223
0.996118
0.997144
0.998151
0.998993
0.999586
0.999925
1.00007
1.00009
1.00007
1.00004
1.00002
1.00001
1
1
1
1
1
1
1
1
1
1
1
1
1
1
1.00018
1.00007
0.999803
0.999336
0.998658
0.997819
0.996929
0.996118
0.995489
0.995099
0.994969
0.995099
0.995489
0.996118
0.996929
0.997818
0.998652
0.999321
0.999768
1.00001
1.00009
1.00009
1.00006
1.00004
1.00002
1.00001
1
0.999999
0.999999
0.999999
0.999999
0.999999
0.999999
1
1
1
1
1
1
1
1.00019
1.00012
0.999955
0.999642
0.999156
0.998523
0.997817
0.997143
0.996598
0.996248
0.996128
0.996248
0.996598
0.997144
0.997818
0.998522
0.999153
0.999631
0.999928
1.00007
1.0001
1.00009
1.00005
1.00003
1.00001
1
0.999999
0.999997
0.999997
0.999996
0.999996
0.999996
0.999997
0.999998
0.999998
0.999999
1
1
1
1
1.00017
1.00014
1.00006
0.999882
0.999578
0.999153
0.998652
0.99815
0.997727
0.997448
0.997351
0.997448
0.997728
0.998151
0.998652
0.999153
0.999576
0.999875
1.00004
1.0001
1.0001
1.00007
1.00004
1.00002
1
0.999998
0.999994
0.999992
0.999991
0.99999
0.99999
0.99999
0.999991
0.999993
0.999994
0.999996
0.999998
0.999999
1
1
1.00014
1.00013
1.00011
1.00003
0.999875
0.99963
0.99932
0.998993
0.998705
0.99851
0.998441
0.99851
0.998706
0.998993
0.999321
0.999631
0.999875
1.00003
1.0001
1.00011
1.00008
1.00005
1.00003
1.00001
0.999997
0.99999
0.999985
0.999982
0.999979
0.999978
0.999977
0.999978
0.99998
0.999982
0.999986
0.99999
0.999993
0.999996
0.999999
1
1.0001
1.00011
1.00012
1.0001
1.00004
0.999928
0.999767
0.999586
0.999418
0.999301
0.999259
0.999301
0.999418
0.999586
0.999768
0.999928
1.00004
1.0001
1.00011
1.00009
1.00006
1.00003
1.00001
0.999995
0.999985
0.999977
0.999971
0.999966
0.999963
0.999961
0.99996
0.999961
0.999963
0.999966
0.999971
0.999977
0.999984
0.99999
0.999994
0.999997
1.00006
1.00007
1.00009
1.00011
1.0001
1.00007
1.00001
0.999924
0.999845
0.999786
0.999765
0.999786
0.999845
0.999925
1.00001
1.00007
1.0001
1.00011
1.00009
1.00006
1.00004
1.00001
0.999994
0.99998
0.999968
0.999959
0.999952
0.999948
0.999947
0.999946
0.999946
0.999946
0.999947
0.999949
0.999953
0.99996
0.999969
0.999978
0.999985
0.99999
1.00003
1.00004
1.00006
1.00008
1.0001
1.0001
1.00009
1.00007
1.00004
1.00002
1.00001
1.00002
1.00004
1.00007
1.00009
1.0001
1.0001
1.00008
1.00006
1.00004
1.00001
0.999994
0.999977
0.999962
0.99995
0.999942
0.99994
0.999944
0.99995
0.999956
0.999958
0.999956
0.99995
0.999944
0.999941
0.999943
0.99995
0.999961
0.999971
0.999976
1.00001
1.00002
1.00003
1.00005
1.00007
1.00008
1.00009
1.00009
1.00009
1.00009
1.00009
1.00009
1.00009
1.00009
1.00009
1.00009
1.00007
1.00005
1.00003
1.00001
0.999994
0.999976
0.999958
0.999944
0.999937
0.99994
0.999956
0.99998
1.00001
1.00003
1.00003
1.00003
1.00001
0.99998
0.999956
0.999941
0.999937
0.999942
0.99995
0.999956
1
1.00001
1.00002
1.00003
1.00004
1.00005
1.00006
1.00007
1.00008
1.00008
1.00008
1.00008
1.00008
1.00007
1.00006
1.00005
1.00004
1.00003
1.00001
0.999994
0.999977
0.999958
0.999942
0.999935
0.999944
0.999976
1.00003
1.00009
1.00016
1.0002
1.00022
1.0002
1.00016
1.00009
1.00003
0.999976
0.999943
0.999929
0.999929
0.999931
1
1
1.00001
1.00001
1.00002
1.00003
1.00004
1.00004
1.00005
1.00005
1.00005
1.00005
1.00005
1.00004
1.00004
1.00003
1.00002
1.00001
0.999995
0.99998
0.999962
0.999944
0.999935
0.999947
0.999991
1.00007
1.00019
1.00032
1.00044
1.00052
1.00055
1.00052
1.00044
1.00032
1.00019
1.00007
0.999988
0.999936
0.999913
0.999906
0.999999
1
1
1
1.00001
1.00001
1.00002
1.00002
1.00002
1.00003
1.00003
1.00003
1.00002
1.00002
1.00002
1.00001
1
0.999997
0.999985
0.999968
0.99995
0.999937
0.999944
0.999991
1.00009
1.00025
1.00045
1.00067
1.00086
1.00098
1.00103
1.00098
1.00086
1.00067
1.00045
1.00025
1.00009
0.999975
0.999913
0.999888
0.999999
0.999999
1
1
1
1
1.00001
1.00001
1.00001
1.00001
1.00001
1.00001
1.00001
1.00001
1.00001
1
0.999998
0.99999
0.999977
0.999959
0.999942
0.99994
0.999976
1.00007
1.00025
1.00051
1.00081
1.00112
1.00138
1.00156
1.00162
1.00156
1.00138
1.00112
1.00081
1.0005
1.00024
1.00005
0.999936
0.999884
0.999999
0.999999
0.999999
1
1
1
1
1
1
1
1
1
1
1
1
0.999999
0.999994
0.999985
0.999971
0.999952
0.99994
0.999956
1.00003
1.00019
1.00045
1.00081
1.00122
1.00162
1.00194
1.00215
1.00222
1.00215
1.00194
1.00162
1.00122
1.00081
1.00044
1.00016
0.999981
0.999897
1
1
1
1
1
1
1
1
1
1
1
1
1
1
0.999999
0.999997
0.999992
0.999982
0.999966
0.999948
0.999944
0.99998
1.00009
1.00032
1.00067
1.00112
1.00162
1.00208
1.00245
1.00268
1.00276
1.00268
1.00245
1.00208
1.00161
1.00111
1.00065
1.00028
1.00004
0.999924
1
1
1
1
1
1
1
1
1
1
1
1
1
1
0.999999
0.999997
0.999991
0.999979
0.999963
0.999947
0.99995
1.00001
1.00016
1.00044
1.00086
1.00138
1.00194
1.00245
1.00284
1.00308
1.00317
1.00308
1.00284
1.00245
1.00194
1.00137
1.00084
1.0004
1.0001
0.999955
1
1
1
1
1
1
1
1
1
1
1
1
1
1
0.999999
0.999996
0.99999
0.999978
0.999961
0.999946
0.999956
1.00003
1.0002
1.00052
1.00098
1.00156
1.00215
1.00268
1.00308
1.00333
1.00341
1.00333
1.00308
1.00268
1.00215
1.00155
1.00096
1.00048
1.00015
0.999981
1
1
1
1
1
1
1
1
1
1
1
1
1
1
0.999999
0.999996
0.99999
0.999977
0.99996
0.999946
0.999958
1.00003
1.00022
1.00055
1.00103
1.00162
1.00222
1.00276
1.00317
1.00341
1.00349
1.00341
1.00317
1.00276
1.00222
1.00161
1.00101
1.00051
1.00016
0.999991
1
1
1
1
1
1
1
1
1
1
1
1
1
1
0.999999
0.999996
0.99999
0.999978
0.999961
0.999946
0.999956
1.00003
1.0002
1.00052
1.00098
1.00156
1.00215
1.00268
1.00308
1.00333
1.00341
1.00333
1.00308
1.00268
1.00215
1.00155
1.00096
1.00048
1.00015
0.999981
1
1
1
1
1
1
1
1
1
1
1
1
1
1
0.999999
0.999997
0.999991
0.99998
0.999963
0.999947
0.99995
1.00001
1.00016
1.00044
1.00086
1.00138
1.00194
1.00245
1.00284
1.00308
1.00317
1.00308
1.00284
1.00245
1.00194
1.00137
1.00084
1.0004
1.0001
0.999956
1
1
1
1
1
1
1
1
1
1
1
1
1
1
1
0.999998
0.999993
0.999982
0.999966
0.999949
0.999944
0.99998
1.00009
1.00032
1.00067
1.00112
1.00162
1.00208
1.00245
1.00268
1.00276
1.00268
1.00245
1.00208
1.00161
1.00111
1.00065
1.00028
1.00004
0.999924
1
1
1
1
1
1
1
1
1
1
1
1
1
1
1
0.999998
0.999994
0.999986
0.999971
0.999953
0.999941
0.999956
1.00003
1.00019
1.00045
1.00081
1.00122
1.00161
1.00194
1.00215
1.00222
1.00215
1.00194
1.00161
1.00122
1.00081
1.00044
1.00016
0.999982
0.999897
1
1
1
1
1
1
1
1
1
1
1
1
1
1
1
0.999999
0.999996
0.99999
0.999977
0.99996
0.999943
0.999941
0.999976
1.00007
1.00025
1.0005
1.00081
1.00111
1.00137
1.00155
1.00161
1.00155
1.00137
1.00111
1.00081
1.0005
1.00024
1.00005
0.999936
0.999884
1
1
1
1
1
1
1
1
1
1
1
1
1
1
1
1
0.999998
0.999993
0.999984
0.999969
0.99995
0.999937
0.999943
0.999988
1.00009
1.00024
1.00044
1.00065
1.00084
1.00096
1.00101
1.00096
1.00084
1.00065
1.00044
1.00024
1.00008
0.999971
0.999912
0.999887
1
1
1
1
1
1
1
1
1
1
1
1
1
1
1
1
0.999999
0.999996
0.99999
0.999978
0.999961
0.999942
0.999929
0.999936
0.999975
1.00005
1.00016
1.00028
1.0004
1.00048
1.00051
1.00048
1.0004
1.00028
1.00016
1.00005
0.999971
0.999926
0.999907
0.999903
1
1
1
1
1
1
1
1
1
1
1
1
1
1
1
1
1
0.999999
0.999994
0.999985
0.999971
0.99995
0.999929
0.999913
0.999913
0.999936
0.999981
1.00004
1.0001
1.00015
1.00016
1.00015
1.0001
1.00004
0.999982
0.999936
0.999912
0.999907
0.999914
0.999921
1
1
1
1
1
1
1
1
1
1
1
1
1
1
1
1
1
1
0.999997
0.99999
0.999976
0.999956
0.999931
0.999906
0.999888
0.999884
0.999897
0.999924
0.999955
0.999981
0.999991
0.999981
0.999956
0.999924
0.999897
0.999884
0.999887
0.999903
0.999921
0.999933
SCALARS C2 double 1
LOOKUP_TABLE default
1.99999
1.99996
1.99991
1.99983
1.99973
1.99962
1.99953
1.99945
1.9994
1.99937
1.99937
1.99937
1.9994
1.99945
1.99953
1.99962
1.99973
1.99982
1.9999
1.99995
1.99999
2
2
2
2
2
2
2
2
2
2
2
2
2
2
2
2
2
2
2
1.99996
1.99993
1.99986
1.99977
1.99967
1.99957
1.99951
1.99947
1.99946
1.99946
1.99946
1.99946
1.99946
1.99947
1.99951
1.99957
1.99967
1.99976
1.99985
1.99992
1.99997
1.99999
2
2
2
2
2
2
2
2
2
2
2
2
2
2
2
2
2
2
1.99991
1.99986
1.99977
1.99967
1.99958
1.99953
1.99954
1.9996
1.99968
1.99976
1.99978
1.99976
1.99968
1.9996
1.99954
1.99953
1.99958
1.99967
1.99977
1.99987
1.99993
1.99997
1.99999
2
2
2
2
2
2
2
2
2
2
2
2
2
2
2
2
2
1.99983
1.99977
1.99967
1.99958
1.99954
1.9996
1.99976
2
2.00026
2.00045
2.00052
2.00045
2.00026
2
1.99976
1.9996
1.99954
1.99958
1.99968
1.99979
1.99988
1.99994
1.99998
2
2
2
2
2
2
2
2
2
2
2
2
2
2
2
2
2
1.99973
1.99967
1.99958
1.99954
1.99963
1.99988
2.0003
2.00082
2.00132
2.00169
2.00182
2.00169
2.00132
2.00082
2.00029
1.99987
1.99962
1.99955
1.99959
1.99971
1.99982
1.99991
1.99996
1.99999
2
2
2
2
2
2
2
2
2
2
2
2
2
2
2
2
1.99962
1.99957
1.99953
1.9996
1.99988
2.00042
2.00119
2.00208
2.0029
2.00349
2.00369
2.00349
2.0029
2.00208
2.00119
2.00041
1.99988
1.99961
1.99956
1.99964
1.99976
1.99987
1.99994
1.99998
2
2
2
2
2
2
2
2
2
2
2
2
2
2
2
2
1.99953
1.99951
1.99954
1.99976
2.0003
2.00119
2.00238
2.00368
2.00485
2.00565
2.00594
2.00565
2.00485
2.00368
2.00238
2.00119
2.0003
1.99977
1.99957
1.99959
1.9997
1.99982
1.99991
1.99997
1.99999
2
2
2
2
2
2
2
2
2
2
2
2
2
2
2
1.99945
1.99947
1.9996
2
2.00082
2.00208
2.00368
2.00537
2.00686
2.00787
2.00823
2.00787
2.00686
2.00537
2.00368
2.00208
2.00082
2.00002
1.99964
1.99958
1.99966
1.99979
1.99989
1.99996
1.99999
2
2
2
2
2
2
2
2
2
2
2
2
2
2
2
1.9994
1.99946
1.99968
2.00026
2.00132
2.0029
2.00485
2.00686
2.00859
2.00976
2.01017
2.00976
2.00859
2.00686
2.00485
2.0029
2.00133
2.00027
1.99974
1.99958
1.99964
1.99976
1.99987
1.99994
1.99998
2
2
2
2
2
2
2
2
2
2
2
2
2
2
2
1.99937
1.99946
1.99976
2.00045
2.00169
2.00349
2.00565
2.00787
2.00976
2.01102
2.01146
2.01102
2.00976
2.00787
2.00565
2.00348
2.00169
2.00047
1.99982
1.9996
1.99963
1.99975
1.99986
1.99994
1.99998
2
2
2
2
2
2
2
2
2
2
2
2
2
2
2
1.99937
1.99946
1.99978
2.00052
2.00182
2.00369
2.00594
2.00823
2.01017
2.01146
2.01191
2.01146
2.01017
2.00823
2.00594
2.00369
2.00183
2.00054
1.99985
1.99961
1.99962
1.99974
1.99986
1.99994
1.99998
2
2
2
2
2
2
2
2
2
2
2
2
2
2
2
1.99937
1.99946
1.99976
2.00045
2.00169
2.00349
2.00565
2.00787
2.00976
2.01102
2.01146
2.01102
2.00976
2.00787
2.00565
2.00348
2.00169
2.00047
1.99982
1.9996
1.99963
1.99975
1.99986
1.99994
1.99998
2
2
2
2
2
2
2
2
2
2
2
2
2
2
2
1.9994
1.99946
1.99968
2.00026
2.00132
2.0029
2.00485
2.00686
2.00859
2.00976
2.01017
2.00976
2.00859
2.00686
2.00484
2.0029
2.00133
2.00027
1.99974
1.99958
1.99964
1.99976
1.99987
1.99994
1.99998
2
2
2
2
2
2
2
2
2
2
2
2
2
2
2
1.99945
1.99947
1.9996
2
2.00082
2.00208
2.00368
2.00537
2.00686
2.00787
2.00823
2.00787
2.00686
2.00537
2.00368
2.00208
2.00082
2.00002
1.99964
1.99958
1.99966
1.99979
1.99989
1.99995
1.99999
2
2
2
2
2
2
2
2
2
2
2
2
2
2
2
1.99953
1.99951
1.99954
1.99976
2.00029
2.00119
2.00238
2.00368
2.00485
2.00565
2.00594
2.00565
2.00484
2.00368
2.00237
2.00119
2.0003
1.99977
1.99957
1.99959
1.9997
1.99982
1.99991
1.99997
1.99999
2
2
2
2
2
2
2
2
2
2
2
2
2
2
2
1.99962
1.99957
1.99953
1.9996
1.99987
2.00041
2.00119
2.00208
2.0029
2.00348
2.00369
2.00348
2.0029
2.00208
2.00119
2.00041
1.99987
1.9996
1.99955
1.99963
1.99976
1.99987
1.99994
1.99998
1.99999
2
2
2
2
2
2
2
2
2
2
2
2
2
2
2
1.99973
1.99967
1.99958
1.99954
1.99962
1.99988
2.0003
2.00082
2.00133
2.00169
2.00183
2.00169
2.00133
2.00082
2.0003
1.99987
1.99962
1.99954
1.99959
1.9997
1.99982
1.99991
1.99996
1.99999
2
2
2
2
2.00001
2.00001
2.00001
2.00001
2.00001
2
2
2
2
2
2
2
1.99982
1.99976
1.99967
1.99958
1.99955
1.99961
1.99977
2.00002
2.00027
2.00047
2.00054
2.00047
2.00027
2.00002
1.99977
1.9996
1.99954
1.99958
1.99967
1.99978
1.99988
1.99994
1.99998
2
2
2.00001
2.00001
2.00002
2.00002
2.00002
2.00002
2.00002
2.00002
2.00002
2.00001
2.00001
2
2
2
2
1.9999
1.99985
1.99977
1.99968
1.99959
1.99956
1.99957
1.99964
1.99974
1.99982
1.99985
1.99982
1.99974
1.99964
1.99957
1.99955
1.99959
1.99967
1.99977
1.99986
1.99993
1.99997
1.99999
2.00001
2.00001
2.00002
2.00003
2.00004
2.00005
2.00006
2.00006
2.00006
2.00005
2.00004
2.00003
2.00002
2.00001
2
2
2
1.99995
1.99992
1.99987
1.99979
1.99971
1.99964
1.99959
1.99958
1.99958
1.9996
1.99961
1.9996
1.99958
1.99958
1.99959
1.99963
1.9997
1.99978
1.99986
1.99992
1.99997
1.99999
2.00001
2.00002
2.00004
2.00005
2.00007
2.00009
2.0001
2.00011
2.00012
2.00011
2.0001
2.00009
2.00007
2.00005
2.00003
2.00002
2.00001
2
1.99999
1.99997
1.99993
1.99988
1.99982
1.99976
1.9997
1.99966
1.99964
1.99963
1.99962
1.99963
1.99964
1.99966
1.9997
1.99976
1.99982
1.99988
1.99993
1.99997
1.99999
2.00001
2.00003
2.00005
2.00008
2.00011
2.00013
2.00016
2.00018
2.00019
2.00019
2.00019
2.00018
2.00016
2.00013
2.0001
2.00007
2.00005
2.00002
2.00001
2
1.99999
1.99997
1.99994
1.99991
1.99987
1.99982
1.99979
1.99976
1.99975
1.99974
1.99975
1.99976
1.99979
1.99982
1.99987
1.99991
1.99994
1.99997
1.99999
2.00001
2.00003
2.00006
2.00009
2.00013
2.00017
2.00021
2.00023
2.00024
2.00024
2.00024
2.00024
2.00024
2.00023
2.00021
2.00017
2.00013
2.00009
2.00006
2.00004
2
2
1.99999
1.99998
1.99996
1.99994
1.99991
1.99989
1.99987
1.99986
1.99986
1.99986
1.99987
1.99989
1.99991
1.99994
1.99996
1.99998
1.99999
2.00001
2.00003
2.00006
2.0001
2.00015
2.0002
2.00024
2.00026
2.00026
2.00024
2.00023
2.00022
2.00023
2.00024
2.00026
2.00026
2.00024
2.0002
2.00015
2.0001
2.00008
2
2
2
2
1.99999
1.99998
1.99997
1.99996
1.99994
1.99994
1.99994
1.99994
1.99994
1.99995
1.99997
1.99998
1.99999
2
2.00001
2.00002
2.00005
2.00009
2.00015
2.00021
2.00026
2.00027
2.00025
2.00018
2.00011
2.00005
2.00002
2.00005
2.00011
2.00018
2.00024
2.00027
2.00026
2.00021
2.00017
2.00014
2
2
2
2
2
2
1.99999
1.99999
1.99998
1.99998
1.99998
1.99998
1.99998
1.99999
1.99999
1.99999
2
2
2.00001
2.00004
2.00008
2.00013
2.0002
2.00026
2.00027
2.00023
2.00011
1.99994
1.99976
1.99963
1.99958
1.99963
1.99976
1.99994
2.00011
2.00023
2.00028
2.00027
2.00023
2.00021
2
2
2
2
2
2
2
2
2
2
2
2
2
2
2
2
2
2.00001
2.00002
2.00005
2.00011
2.00017
2.00024
2.00027
2.00023
2.00007
1.99982
1.99949
1.99918
1.99895
1.99886
1.99895
1.99918
1.99949
1.99982
2.00007
2.00023
2.00029
2.00029
2.00028
2
2
2
2
2
2
2
2
2
2
2
2
2
2
2
2
2
2.00001
2.00003
2.00007
2.00013
2.00021
2.00026
2.00025
2.00011
1.99982
1.99938
1.99887
1.9984
1.99806
1.99793
1.99806
1.9984
1.99887
1.99938
1.99982
2.00012
2.00028
2.00033
2.00034
2
2
2
2
2
2
2
2
2
2
2
2
2
2
2
2
2
2.00002
2.00004
2.00009
2.00016
2.00023
2.00026
2.00018
1.99994
1.99949
1.99887
1.99818
1.99754
1.99709
1.99693
1.99709
1.99754
1.99818
1.99887
1.9995
1.99996
2.00023
2.00035
2.00039
2
2
2
2
2
2
2
2
2
2
2
2
2
2
2
2
2.00001
2.00002
2.00005
2.0001
2.00018
2.00024
2.00024
2.00011
1.99976
1.99918
1.9984
1.99754
1.99677
1.99624
1.99605
1.99624
1.99677
1.99754
1.9984
1.99918
1.99978
2.00016
2.00035
2.00042
2
2
2
2
2
2
2
2
2
2
2
2
2
2
2
2
2.00001
2.00002
2.00006
2.00011
2.00019
2.00024
2.00023
2.00005
1.99963
1.99895
1.99806
1.99709
1.99624
1.99565
1.99544
1.99565
1.99624
1.99709
1.99806
1.99895
1.99965
2.0001
2.00034
2.00043
2
2
2
2
2
2
2
2
2
2
2
2
2
2
2
2
2.00001
2.00002
2.00006
2.00012
2.00019
2.00024
2.00022
2.00002
1.99958
1.99886
1.99793
1.99693
1.99605
1.99544
1.99522
1.99544
1.99605
1.99693
1.99793
1.99887
1.9996
2.00008
2.00033
2.00043
2
2
2
2
2
2
2
2
2
2
2
2
2
2
2
2
2.00001
2.00002
2.00006
2.00011
2.00019
2.00024
2.00023
2.00005
1.99963
1.99895
1.99806
1.99709
1.99624
1.99565
1.99544
1.99565
1.99624
1.99709
1.99806
1.99895
1.99965
2.0001
2.00034
2.00043
2
2
2
2
2
2
2
2
2
2
2
2
2
2
2
2
2.00001
2.00002
2.00005
2.0001
2.00018
2.00024
2.00024
2.00011
1.99976
1.99918
1.9984
1.99754
1.99677
1.99624
1.99605
1.99624
1.99677
1.99754
1.9984
1.99918
1.99978
2.00016
2.00035
2.00042
2
2
2
2
2
2
2
2
2
2
2
2
2
2
2
2
2
2.00002
2.00004
2.00009
2.00016
2.00023
2.00026
2.00018
1.99994
1.99949
1.99887
1.99818
1.99754
1.99709
1.99693
1.99709
1.99754
1.99818
1.99887
1.9995
1.99995
2.00023
2.00035
2.00039
2
2
2
2
2
2
2
2
2
2
2
2
2
2
2
2
2
2.00001
2.00003
2.00007
2.00013
2.00021
2.00026
2.00024
2.00011
1.99982
1.99938
1.99887
1.9984
1.99806
1.99793
1.99806
1.9984
1.99887
1.99938
1.99982
2.00012
2.00028
2.00033
2.00034
2
2
2
2
2
2
2
2
2
2
2
2
2
2
2
2
2
2.00001
2.00002
2.00005
2.0001
2.00017
2.00024
2.00027
2.00023
2.00007
1.99982
1.9995
1.99918
1.99895
1.99887
1.99895
1.99918
1.9995
1.99982
2.00007
2.00023
2.00029
2.00029
2.00028
2
2
2
2
2
2
2
2
2
2
2
2
2
2
2
2
2
2
2.00001
2.00003
2.00007
2.00013
2.0002
2.00026
2.00028
2.00023
2.00012
1.99996
1.99978
1.99965
1.9996
1.99965
1.99978
1.99995
2.00012
2.00023
2.00028
2.00027
2.00023
2.0002
2
2
2
2
2
2
2
2
2
2
2
2
2
2
2
2
2
2
2
2.00002
2.00005
2.00009
2.00015
2.00021
2.00027
2.00029
2.00028
2.00023
2.00016
2.0001
2.00008
2.0001
2.00016
2.00023
2.00028
2.00029
2.00027
2.00022
2.00017
2.00013
2
2
2
2
2
2
2
2
2
2
2
2
2
2
2
2
2
2
2
2.00001
2.00002
2.00006
2.0001
2.00017
2.00023
2.00029
2.00033
2.00035
2.00035
2.00034
2.00033
2.00034
2.00035
2.00035
2.00033
2.00029
2.00023
2.00017
2.00011
2.00008
2
2
2
2
2
2
2
2
2
2
2
2
2
2
2
2
2
2
2
2
2.00001
2.00004
2.00008
2.00014
2.00021
2.00028
2.00034
2.00039
2.00042
2.00043
2.00043
2.00043
2.00042
2.00039
2.00034
2.00028
2.0002
2.00013
2.00008
2.00005
