# vtk DataFile Version 3.0
Brusselator Concentration Output
ASCII
DATASET STRUCTURED_POINTS
DIMENSIONS 40 40 1
ORIGIN 0.0 0.0 0.0
SPACING 0.005 0.005 1.0
POINT_DATA 1600
SCALARS C1 double 1
LOOKUP_TABLE default
1.00008
1.00012
1.00019
1.00028
1.00037
1.00045
1.00052
1.00055
1.00057
1.00058
1.00058
1.00058
1.00057
1.00056
1.00052
1.00046
1.00038
1.00029
1.0002
1.00012
1.00006
1.00002
1
0.999996
0.999995
0.999996
0.999997
0.999999
0.999999
1
1
1
1
1
1
1
1
1
1
1
1.00012
1.00016
1.00023
1.00031
1.00038
1.00043
1.00046
1.00045
1.00044
1.00042
1.00041
1.00042
1.00044
1.00045
1.00046
1.00043
1.00038
1.00031
1.00023
1.00015
1.00008
1.00004
1.00001
1
0.999996
0.999996
0.999997
0.999999
0.999999
1
1
1
1
1
1
1
1
1
1
1
1.00019
1.00023
1.00028
1.00034
1.00037
1.00036
1.0003
1.00022
1.00013
1.00006
1.00003
1.00006
1.00013
1.00022
1.0003
1.00036
1.00037
1.00034
1.00027
1.0002
1.00012
1.00007
1.00003
1.00001
1
0.999997
0.999997
0.999998
0.999999
1
1
1
1
1
1
1
1
1
1
1
1.00028
1.00031
1.00034
1.00034
1.0003
1.00018
1
0.999791
0.999595
0.999455
0.999405
0.999456
0.999595
0.999792
1
1.00018
1.0003
1.00034
1.00032
1.00025
1.00017
1.0001
1.00005
1.00002
1
0.999999
0.999997
0.999998
0.999999
1
1
1
1
1
1
1
1
1
1
1
1.00037
1.00038
1.00037
1.0003
1.00013
0.999868
0.999524
0.999155
0.998825
0.998598
0.998517
0.998598
0.998825
0.999156
0.999527
0.99987
1.00013
1.00028
1.00033
1.0003
1.00023
1.00015
1.00008
1.00004
1.00001
1
0.999998
0.999998
0.999999
0.999999
1
1
1
1
1
1
1
1
1
1
1.00045
1.00043
1.00036
1.00018
0.999868
0.999423
0.998887
0.998336
0.99786
0.997538
0.997424
0.997538
0.997861
0.998338
0.998889
0.999424
0.999863
1.00016
1.0003
1.00032
1.00027
1.00019
1.00011
1.00005
1.00002
1
0.999999
0.999998
0.999998
0.999999
1
1
1
1
1
1
1
1
1
1
1.00052
1.00046
1.0003
1
0.999524
0.998887
0.998153
0.997421
0.996802
0.99639
0.996246
0.996391
0.996803
0.997423
0.998155
0.998887
0.999516
0.99997
1.00023
1.00032
1.0003
1.00022
1.00014
1.00007
1.00003
1.00001
1
0.999998
0.999998
0.999999
1
1
1
1
1
1
1
1
1
1
1.00055
1.00045
1.00022
0.999791
0.999155
0.998336
0.997421
0.99653
0.99579
0.995303
0.995133
0.995303
0.995791
0.996532
0.997423
0.998335
0.999142
0.999752
1.00013
1.00029
1.00031
1.00025
1.00016
1.00009
1.00004
1.00001
1
0.999998
0.999998
0.999999
0.999999
1
1
1
1
1
1
1
1
1
1.00057
1.00044
1.00013
0.999595
0.998825
0.99786
0.996802
0.99579
0.994959
0.994417
0.994229
0.994417
0.99496
0.995792
0.996804
0.997857
0.998809
0.999549
1.00003
1.00026
1.00031
1.00026
1.00018
1.0001
1.00005
1.00002
1
0.999999
0.999998
0.999999
0.999999
1
1
1
1
1
1
1
1
1
1.00058
1.00042
1.00006
0.999455
0.998598
0.997538
0.99639
0.995303
0.994417
0.993842
0.993644
0.993843
0.994418
0.995304
0.996392
0.997534
0.998579
0.999405
0.999952
1.00023
1.00031
1.00027
1.00019
1.00011
1.00005
1.00002
1
0.999999
0.999998
0.999999
0.999999
1
1
1
1
1
1
1
1
1
1.00058
1.00041
1.00003
0.999405
0.998517
0.997424
0.996246
0.995133
0.994229
0.993644
0.993442
0.993644
0.99423
0.995135
0.996247
0.99742
0.998497
0.999353
0.999924
1.00022
1.00031
1.00027
1.00019
1.00011
1.00005
1.00002
1
0.999999
0.999998
0.999999
1
1
1
1
1
1
1
1
1
1
1.00058
1.00042
1.00006
0.999456
0.998598
0.997538
0.996391
0.995303
0.994417
0.993843
0.993644
0.993843
0.994419
0.995305
0.996392
0.997534
0.998579
0.999405
0.999952
1.00023
1.00031
1.00027
1.00019
1.00011
1.00005
1.00002
1
0.999999
0.999999
0.999999
1
1
1
1
1
1
1
1
1
1
1.00057
1.00044
1.00013
0.999595
0.998825
0.997861
0.996803
0.995791
0.99496
0.994418
0.99423
0.994419
0.994961
0.995793
0.996805
0.997858
0.998809
0.999549
1.00003
1.00026
1.00031
1.00026
1.00018
1.0001
1.00005
1.00002
1
1
0.999999
1
1
1
1
1
1
1
1
1
1
1
1.00056
1.00045
1.00022
0.999792
0.999156
0.998338
0.997423
0.996532
0.995792
0.995304
0.995135
0.995305
0.995793
0.996534
0.997424
0.998336
0.999143
0.999753
1.00013
1.0003
1.00031
1.00025
1.00016
1.00009
1.00004
1.00001
1
0.999999
0.999999
1
1
1
1
1
1
1
1
1
1
1
1.00052
1.00046
1.0003
1
0.999527
0.998889
0.998155
0.997423
0.996804
0.996392
0.996247
0.996392
0.996805
0.997424
0.998157
0.998889
0.999518
0.999972
1.00023
1.00032
1.0003
1.00022
1.00014
1.00007
1.00003
1.00001
1
0.999998
0.999998
0.999999
0.999999
1
1
1
1
1
1
1
1
1
1.00046
1.00043
1.00036
1.00018
0.99987
0.999424
0.998887
0.998335
0.997857
0.997534
0.99742
0.997534
0.997858
0.998336
0.998889
0.999425
0.999865
1.00016
1.0003
1.00033
1.00027
1.00019
1.00011
1.00006
1.00002
1
0.999997
0.999995
0.999994
0.999994
0.999994
0.999994
0.999995
0.999997
0.999998
1
1
1
1
1
1.00038
1.00038
1.00037
1.0003
1.00013
0.999863
0.999516
0.999142
0.998809
0.998579
0.998497
0.998579
0.998809
0.999143
0.999518
0.999865
1.00013
1.00029
1.00033
1.0003
1.00023
1.00015
1.00008
1.00004
1.00001
0.999995
0.999988
0.999985
0.999982
0.999981
0.999981
0.999982
0.999984
0.999987
0.99999
0.999994
0.999998
1
1
1
1.00029
1.00031
1.00034
1.00034
1.00028
1.00016
0.99997
0.999752
0.999549
0.999405
0.999353
0.999405
0.999549
0.999753
0.999972
1.00016
1.00029
1.00034
1.00032
1.00026
1.00018
1.00011
1.00005
1.00002
0.999993
0.99998
0.999971
0.999964
0.99996
0.999956
0.999956
0.999957
0.999961
0.999966
0.999973
0.999981
0.999989
0.999995
0.999999
1
1.0002
1.00023
1.00027
1.00032
1.00033
1.0003
1.00023
1.00013
1.00003
0.999952
0.999924
0.999952
1.00003
1.00013
1.00023
1.0003
1.00033
1.00032
1.00027
1.0002
1.00013
1.00007
1.00002
0.999991
0.99997
0.999954
0.999941
0.999931
0.999923
0.999918
0.999916
0.999918
0.999924
0.999932
0.999944
0.999957
0.99997
0.999982
0.999991
0.999996
1.00012
1.00015
1.0002
1.00025
1.0003
1.00032
1.00032
1.00029
1.00026
1.00023
1.00022
1.00023
1.00026
1.0003
1.00032
1.00033
1.0003
1.00026
1.0002
1.00013
1.00007
1.00003
0.99999
0.999961
0.999937
0.999917
0.999899
0.999885
0.999875
0.999869
0.999867
0.999869
0.999876
0.999887
0.999902
0.99992
0.999941
0.999959
0.999974
0.999982
1.00006
1.00008
1.00012
1.00017
1.00023
1.00027
1.0003
1.00031
1.00031
1.00031
1.00031
1.00031
1.00031
1.00031
1.0003
1.00027
1.00023
1.00018
1.00013
1.00007
1.00003
0.999989
0.999955
0.999924
0.999895
0.999871
0.999851
0.999838
0.99983
0.999826
0.999825
0.999826
0.99983
0.999839
0.999854
0.999875
0.999899
0.999925
0.999945
0.999957
1.00002
1.00004
1.00007
1.0001
1.00015
1.00019
1.00022
1.00025
1.00026
1.00027
1.00027
1.00027
1.00026
1.00025
1.00022
1.00019
1.00015
1.00011
1.00007
1.00003
0.999989
0.999952
0.999916
0.999881
0.99985
0.999827
0.999814
0.999811
0.999814
0.999818
0.99982
0.999818
0.999814
0.999812
0.999816
0.99983
0.999853
0.99988
0.999904
0.999918
1
1.00001
1.00003
1.00005
1.00008
1.00011
1.00014
1.00016
1.00018
1.00019
1.00019
1.00019
1.00018
1.00016
1.00014
1.00011
1.00008
1.00005
1.00002
0.99999
0.999955
0.999916
0.999876
0.999839
0.999814
0.999804
0.999812
0.999834
0.999861
0.999883
0.999891
0.999883
0.999862
0.999836
0.999815
0.999806
0.999813
0.999832
0.999853
0.999867
0.999996
1
1.00001
1.00002
1.00004
1.00005
1.00007
1.00009
1.0001
1.00011
1.00011
1.00011
1.0001
1.00009
1.00007
1.00006
1.00004
1.00002
0.999991
0.999961
0.999924
0.999881
0.999839
0.99981
0.999802
0.999824
0.999873
0.99994
1.00001
1.00006
1.00007
1.00006
1.00001
0.999941
0.999875
0.999824
0.999797
0.999792
0.9998
0.999808
0.999995
0.999996
1
1
1.00001
1.00002
1.00003
1.00004
1.00005
1.00005
1.00005
1.00005
1.00005
1.00004
1.00003
1.00002
1.00001
0.999993
0.99997
0.999937
0.999895
0.99985
0.999814
0.999802
0.99983
0.999903
1.00001
1.00014
1.00027
1.00035
1.00039
1.00035
1.00027
1.00015
1.00002
0.9999
0.999818
0.999773
0.999755
0.99975
0.999996
0.999996
0.999997
0.999999
1
1
1.00001
1.00001
1.00002
1.00002
1.00002
1.00002
1.00002
1.00001
1.00001
1
0.999995
0.99998
0.999954
0.999917
0.999871
0.999827
0.999804
0.999824
0.999903
1.00005
1.00024
1.00044
1.00063
1.00076
1.00081
1.00076
1.00063
1.00045
1.00024
1.00004
0.999884
0.999781
0.999725
0.999702
0.999997
0.999997
0.999997
0.999997
0.999998
0.999999
1
1
1
1
1
1
1
1
1
0.999997
0.999988
0.999971
0.999941
0.999899
0.999851
0.999814
0.999812
0.999873
1.00001
1.00024
1.00051
1.00081
1.00106
1.00124
1.0013
1.00124
1.00106
1.00081
1.00051
1.00023
0.999988
0.999817
0.999714
0.999668
0.999999
0.999999
0.999998
0.999998
0.999998
0.999998
0.999998
0.999998
0.999999
0.999999
0.999999
0.999999
1
0.999999
0.999998
0.999995
0.999985
0.999964
0.999931
0.999885
0.999838
0.999811
0.999834
0.99994
1.00014
1.00044
1.00081
1.00118
1.0015
1.00171
1.00179
1.00171
1.0015
1.00118
1.0008
1.00043
1.00011
0.999872
0.999721
0.99965
0.999999
0.999999
0.999999
0.999999
0.999999
0.999998
0.999998
0.999998
0.999998
0.999998
0.999998
0.999999
0.999999
0.999999
0.999998
0.999994
0.999982
0.99996
0.999923
0.999875
0.99983
0.999814
0.999861
1.00001
1.00027
1.00063
1.00106
1.0015
1.00187
1.00212
1.0022
1.00212
1.00187
1.0015
1.00106
1.00062
1.00023
0.99993
0.999737
0.999644
1
1
1
1
0.999999
0.999999
0.999999
0.999999
0.999999
0.999999
0.999999
0.999999
1
1
0.999999
0.999994
0.999981
0.999956
0.999918
0.999869
0.999826
0.999818
0.999883
1.00006
1.00035
1.00076
1.00124
1.00171
1.00212
1.00238
1.00248
1.00238
1.00212
1.00171
1.00123
1.00074
1.00031
0.999974
0.999752
0.999644
1
1
1
1
1
1
1
0.999999
0.999999
0.999999
1
1
1
1
0.999999
0.999994
0.999981
0.999956
0.999916
0.999867
0.999825
0.99982
0.999891
1.00007
1.00039
1.00081
1.0013
1.00179
1.0022
1.00248
1.00257
1.00248
1.0022
1.00179
1.0013
1.00079
1.00034
0.99999
0.999758
0.999645
1
1
1
1
1
1
1
1
1
1
1
1
1
1
1
0.999994
0.999982
0.999957
0.999918
0.999869
0.999826
0.999818
0.999883
1.00006
1.00035
1.00076
1.00124
1.00171
1.00212
1.00238
1.00248
1.00238
1.00212
1.00171
1.00123
1.00075
1.00031
0.999974
0.999752
0.999645
1
1
1
1
1
1
1
1
1
1
1
1
1
1
1
0.999995
0.999984
0.999961
0.999924
0.999876
0.99983
0.999814
0.999862
1.00001
1.00027
1.00063
1.00106
1.0015
1.00187
1.00212
1.0022
1.00212
1.00187
1.0015
1.00106
1.00062
1.00023
0.999931
0.999738
0.999645
1
1
1
1
1
1
1
1
1
1
1
1
1
1
1
0.999997
0.999987
0.999966
0.999932
0.999887
0.999839
0.999812
0.999836
0.999941
1.00015
1.00045
1.00081
1.00118
1.0015
1.00171
1.00179
1.00171
1.0015
1.00118
1.0008
1.00043
1.00011
0.999874
0.999722
0.999651
1
1
1
1
1
1
1
1
1
1
1
1
1
1
1
0.999998
0.99999
0.999973
0.999944
0.999902
0.999854
0.999816
0.999815
0.999875
1.00002
1.00024
1.00051
1.0008
1.00106
1.00123
1.0013
1.00123
1.00106
1.0008
1.00051
1.00023
0.999989
0.999819
0.999716
0.99967
1
1
1
1
1
1
1
1
1
1
1
1
1
1
1
1
0.999994
0.999981
0.999957
0.99992
0.999875
0.99983
0.999806
0.999824
0.9999
1.00004
1.00023
1.00043
1.00062
1.00074
1.00079
1.00075
1.00062
1.00043
1.00023
1.00003
0.999882
0.999781
0.999727
0.999705
1
1
1
1
1
1
1
1
1
1
1
1
1
1
1
1
0.999998
0.999989
0.99997
0.999941
0.999899
0.999853
0.999813
0.999797
0.999818
0.999884
0.999988
1.00011
1.00023
1.00031
1.00034
1.00031
1.00023
1.00011
0.999989
0.999882
0.999807
0.999768
0.999754
0.999752
1
1
1
1
1
1
1
1
1
1
1
1
1
1
1
1
1
0.999995
0.999982
0.999959
0.999925
0.99988
0.999832
0.999792
0.999773
0.999781
0.999817
0.999872
0.99993
0.999974
0.99999
0.999974
0.999931
0.999874
0.999819
0.999781
0.999768
0.999775
0.999791
0.999804
1
1
1
1
1
1
1
1
1
1
1
1
1
1
1
1
1
0.999999
0.999991
0.999974
0.999945
0.999904
0.999853
0.9998
0.999755
0.999725
0.999714
0.999721
0.999737
0.999752
0.999758
0.999752
0.999738
0.999722
0.999716
0.999727
0.999754
0.999791
0.999827
0.999849
1
1
1
1
1
1
1
1
1
1
1
1
1
1
1
1
1
1
0.999996
0.999982
0.999957
0.999918
0.999867
0.999808
0.99975
0.999702
0.999668
0.99965
0.999644
0.999644
0.999645
0.999645
0.999645
0.999651
0.99967
0.999705
0.999752
0.999804
0.999849
0.999875
SCALARS C2 double 1
LOOKUP_TABLE default
2.00002
1.99997
1.99988
1.99974
1.99957
1.99938
1.99919
1.99902
1.99889
1.99881
1.99879
1.99881
1.99889
1.99902
1.99919
1.99937
1.99956
1.99973
1.99986
1.99995
2
2.00002
2.00002
2.00002
2.00001
2.00001
2
2
2
2
2
2
2
2
2
2
2
2
2
2
1.99997
1.99991
1.9998
1.99964
1.99944
1.99924
1.99906
1.9989
1.99879
1.99872
1.9987
1.99872
1.99879
1.9989
1.99905
1.99924
1.99944
1.99962
1.99978
1.99989
1.99997
2
2.00002
2.00002
2.00001
2.00001
2
2
2
2
2
2
2
2
2
2
2
2
2
2
1.99988
1.9998
1.99965
1.99945
1.99923
1.99903
1.99886
1.99874
1.99867
1.99863
1.99863
1.99863
1.99867
1.99874
1.99885
1.99902
1.99922
1.99944
1.99963
1.99979
1.99991
1.99997
2
2.00001
2.00001
2.00001
2
2
2
2
2
2
2
2
2
2
2
2
2
2
1.99974
1.99964
1.99945
1.99922
1.99899
1.99881
1.9987
1.99866
1.99868
1.99871
1.99872
1.99871
1.99868
1.99866
1.9987
1.9988
1.99898
1.99921
1.99944
1.99965
1.99982
1.99992
1.99998
2.00001
2.00001
2.00001
2.00001
2
2
2
2
2
2
2
2
2
2
2
2
2
1.99957
1.99944
1.99923
1.99899
1.99879
1.99868
1.99869
1.9988
1.99896
1.99908
1.99913
1.99908
1.99895
1.9988
1.99869
1.99867
1.99878
1.99898
1.99924
1.99949
1.99971
1.99986
1.99995
1.99999
2.00001
2.00001
2.00001
2
2
2
2
2
2
2
2
2
2
2
2
2
1.99938
1.99924
1.99903
1.99881
1.99868
1.99871
1.99891
1.99922
1.99957
1.99983
1.99992
1.99983
1.99957
1.99922
1.9989
1.9987
1.99867
1.9988
1.99905
1.99933
1.99959
1.99979
1.99991
1.99998
2
2.00001
2.00001
2
2
2
2
2
2
2
2
2
2
2
2
2
1.99919
1.99906
1.99886
1.9987
1.99869
1.99891
1.99934
1.99991
2.00047
2.00088
2.00103
2.00088
2.00047
1.9999
1.99933
1.9989
1.99868
1.9987
1.9989
1.99919
1.99948
1.99971
1.99987
1.99996
2
2.00001
2.00001
2.00001
2
2
2
2
2
2
2
2
2
2
2
2
1.99902
1.9989
1.99874
1.99866
1.9988
1.99922
1.99991
2.00073
2.00152
2.00208
2.00228
2.00208
2.00151
2.00073
1.9999
1.99922
1.9988
1.99868
1.9988
1.99907
1.99938
1.99964
1.99983
1.99994
1.99999
2.00001
2.00001
2.00001
2
2
2
2
2
2
2
2
2
2
2
2
1.99889
1.99879
1.99867
1.99868
1.99896
1.99957
2.00047
2.00152
2.00249
2.00318
2.00343
2.00318
2.00249
2.00151
2.00046
1.99956
1.99895
1.9987
1.99875
1.99899
1.99931
1.99959
1.99979
1.99992
1.99998
2
2.00001
2.00001
2
2
2
2
2
2
2
2
2
2
2
2
1.99881
1.99872
1.99863
1.99871
1.99908
1.99983
2.00088
2.00208
2.00318
2.00396
2.00423
2.00396
2.00318
2.00207
2.00087
1.99982
1.99908
1.99873
1.99873
1.99895
1.99926
1.99955
1.99977
1.99991
1.99998
2
2.00001
2.00001
2
2
2
2
2
2
2
2
2
2
2
2
1.99879
1.9987
1.99863
1.99872
1.99913
1.99992
2.00103
2.00228
2.00343
2.00423
2.00452
2.00423
2.00343
2.00228
2.00103
1.99992
1.99913
1.99875
1.99872
1.99893
1.99925
1.99954
1.99977
1.9999
1.99997
2
2.00001
2.00001
2
2
2
2
2
2
2
2
2
2
2
2
1.99881
1.99872
1.99863
1.99871
1.99908
1.99983
2.00088
2.00208
2.00318
2.00396
2.00423
2.00395
2.00318
2.00207
2.00087
1.99982
1.99908
1.99873
1.99873
1.99895
1.99926
1.99955
1.99977
1.99991
1.99998
2
2.00001
2.00001
2
2
2
2
2
2
2
2
2
2
2
2
1.99889
1.99879
1.99867
1.99868
1.99895
1.99957
2.00047
2.00151
2.00249
2.00318
2.00343
2.00318
2.00249
2.00151
2.00046
1.99956
1.99895
1.9987
1.99875
1.99899
1.99931
1.99959
1.99979
1.99992
1.99998
2
2.00001
2.00001
2
2
2
2
2
2
2
2
2
2
2
2
1.99902
1.9989
1.99874
1.99866
1.9988
1.99922
1.9999
2.00073
2.00151
2.00207
2.00228
2.00207
2.00151
2.00072
1.9999
1.99921
1.99879
1.99867
1.9988
1.99907
1.99938
1.99964
1.99983
1.99994
1.99999
2
2.00001
2
2
2
2
2
2
2
2
2
2
2
2
2
1.99919
1.99905
1.99885
1.9987
1.99869
1.9989
1.99933
1.9999
2.00046
2.00087
2.00103
2.00087
2.00046
1.9999
1.99933
1.99889
1.99868
1.9987
1.9989
1.99919
1.99948
1.99971
1.99987
1.99995
1.99999
2
2
2
2
2
2
2
2
2
2
2
2
2
2
2
1.99937
1.99924
1.99902
1.9988
1.99867
1.9987
1.9989
1.99922
1.99956
1.99982
1.99992
1.99982
1.99956
1.99921
1.99889
1.99869
1.99866
1.9988
1.99904
1.99933
1.99959
1.99978
1.99991
1.99997
2
2
2
2
2
2
2
2
2
1.99999
1.99999
1.99999
1.99999
2
2
2
1.99956
1.99944
1.99922
1.99898
1.99878
1.99867
1.99868
1.9988
1.99895
1.99908
1.99913
1.99908
1.99895
1.99879
1.99868
1.99866
1.99877
1.99897
1.99923
1.99949
1.9997
1.99985
1.99994
1.99999
2
2
2
2
2
2
2
2
2
2
2
1.99999
1.99999
1.99999
1.99999
1.99999
1.99973
1.99962
1.99944
1.99921
1.99898
1.9988
1.9987
1.99868
1.9987
1.99873
1.99875
1.99873
1.9987
1.99867
1.9987
1.9988
1.99897
1.99919
1.99943
1.99964
1.9998
1.99991
1.99997
2
2.00001
2.00001
2.00002
2.00002
2.00002
2.00003
2.00003
2.00003
2.00002
2.00002
2.00001
2
2
1.99999
1.99999
1.99999
1.99986
1.99978
1.99963
1.99944
1.99924
1.99905
1.9989
1.9988
1.99875
1.99873
1.99872
1.99873
1.99875
1.9988
1.9989
1.99904
1.99923
1.99943
1.99962
1.99978
1.99989
1.99996
1.99999
2.00001
2.00002
2.00003
2.00005
2.00006
2.00007
2.00008
2.00009
2.00008
2.00007
2.00006
2.00004
2.00003
2.00001
2
1.99999
1.99999
1.99995
1.99989
1.99979
1.99965
1.99949
1.99933
1.99919
1.99907
1.99899
1.99895
1.99893
1.99895
1.99899
1.99907
1.99919
1.99933
1.99949
1.99964
1.99978
1.99988
1.99995
1.99999
2.00002
2.00003
2.00006
2.00008
2.00011
2.00014
2.00016
2.00018
2.00018
2.00018
2.00016
2.00014
2.00011
2.00007
2.00004
2.00002
2
1.99999
2
1.99997
1.99991
1.99982
1.99971
1.99959
1.99948
1.99938
1.99931
1.99926
1.99925
1.99926
1.99931
1.99938
1.99948
1.99959
1.9997
1.9998
1.99989
1.99995
1.99999
2.00002
2.00004
2.00008
2.00012
2.00016
2.00021
2.00026
2.0003
2.00032
2.00033
2.00032
2.0003
2.00026
2.00021
2.00016
2.0001
2.00006
2.00002
2.00001
2.00002
2
1.99997
1.99992
1.99986
1.99979
1.99971
1.99964
1.99959
1.99955
1.99954
1.99955
1.99959
1.99964
1.99971
1.99978
1.99985
1.99991
1.99996
1.99999
2.00002
2.00005
2.00009
2.00014
2.00021
2.00028
2.00036
2.00042
2.00047
2.0005
2.00051
2.0005
2.00047
2.00042
2.00035
2.00028
2.0002
2.00013
2.00007
2.00004
2.00002
2.00002
2
1.99998
1.99995
1.99991
1.99987
1.99983
1.99979
1.99977
1.99977
1.99977
1.99979
1.99983
1.99987
1.99991
1.99994
1.99997
1.99999
2.00002
2.00004
2.00009
2.00015
2.00024
2.00033
2.00043
2.00052
2.00059
2.00064
2.00067
2.00067
2.00067
2.00064
2.00059
2.00052
2.00043
2.00032
2.00023
2.00015
2.00011
2.00002
2.00002
2.00001
2.00001
1.99999
1.99998
1.99996
1.99994
1.99992
1.99991
1.9999
1.99991
1.99992
1.99994
1.99995
1.99997
1.99999
2
2.00001
2.00003
2.00008
2.00014
2.00024
2.00035
2.00047
2.00059
2.00068
2.00073
2.00076
2.00078
2.00078
2.00077
2.00076
2.00073
2.00067
2.00058
2.00047
2.00035
2.00025
2.0002
2.00001
2.00001
2.00001
2.00001
2.00001
2
2
1.99999
1.99998
1.99998
1.99997
1.99998
1.99998
1.99999
1.99999
2
2
2.00001
2.00002
2.00006
2.00012
2.00021
2.00033
2.00047
2.00061
2.00072
2.00078
2.0008
2.00079
2.00077
2.00076
2.00076
2.00078
2.00079
2.00077
2.00071
2.00061
2.00049
2.00038
2.00031
2.00001
2.00001
2.00001
2.00001
2.00001
2.00001
2.00001
2.00001
2
2
2
2
2
2
2
2
2
2.00001
2.00003
2.00008
2.00016
2.00028
2.00043
2.00059
2.00072
2.00079
2.0008
2.00075
2.00067
2.0006
2.00057
2.0006
2.00067
2.00074
2.00079
2.00078
2.00072
2.00061
2.00051
2.00044
2
2
2
2.00001
2.00001
2.00001
2.00001
2.00001
2.00001
2.00001
2.00001
2.00001
2.00001
2.00001
2
2
2
2.00002
2.00005
2.00011
2.00021
2.00036
2.00052
2.00068
2.00078
2.0008
2.00072
2.00058
2.00042
2.00029
2.00024
2.00029
2.00042
2.00058
2.00072
2.00079
2.00079
2.00072
2.00063
2.00057
2
2
2
2
2
2
2.00001
2.00001
2.00001
2.00001
2.00001
2.00001
2.00001
2
2
2
2
2.00002
2.00006
2.00014
2.00026
2.00042
2.00059
2.00073
2.0008
2.00075
2.00058
2.00034
2.00009
1.9999
1.99983
1.9999
2.00009
2.00034
2.00058
2.00075
2.00081
2.00079
2.00073
2.00068
2
2
2
2
2
2
2
2
2
2
2
2
2
2
2
2
2
2.00002
2.00007
2.00016
2.0003
2.00047
2.00064
2.00076
2.00079
2.00067
2.00042
2.00009
1.99975
1.99951
1.99942
1.99951
1.99975
2.00008
2.00042
2.00067
2.00081
2.00084
2.0008
2.00076
2
2
2
2
2
2
2
2
2
2
2
2
2
2
2
2
2
2.00003
2.00008
2.00018
2.00032
2.0005
2.00067
2.00078
2.00077
2.0006
2.00029
1.9999
1.99951
1.99922
1.99912
1.99922
1.9995
1.99989
2.00029
2.0006
2.00079
2.00086
2.00084
2.00082
2
2
2
2
2
2
2
2
2
2
2
2
2
2
2
2
2
2.00003
2.00009
2.00018
2.00033
2.00051
2.00067
2.00078
2.00076
2.00057
2.00024
1.99983
1.99942
1.99912
1.99901
1.99912
1.99941
1.99982
2.00024
2.00058
2.00079
2.00086
2.00086
2.00083
2
2
2
2
2
2
2
2
2
2
2
2
2
2
2
2
2
2.00003
2.00008
2.00018
2.00032
2.0005
2.00067
2.00077
2.00076
2.0006
2.00029
1.9999
1.99951
1.99922
1.99912
1.99922
1.9995
1.99989
2.00029
2.0006
2.00079
2.00086
2.00084
2.00082
2
2
2
2
2
2
2
2
2
2
2
2
2
2
2
2
2
2.00002
2.00007
2.00016
2.0003
2.00047
2.00064
2.00076
2.00078
2.00067
2.00042
2.00009
1.99975
1.9995
1.99941
1.9995
1.99975
2.00008
2.00041
2.00067
2.00081
2.00084
2.0008
2.00076
2
2
2
2
2
2
2
2
2
2
2
2
2
2
2
1.99999
2
2.00002
2.00006
2.00014
2.00026
2.00042
2.00059
2.00073
2.00079
2.00074
2.00058
2.00034
2.00008
1.99989
1.99982
1.99989
2.00008
2.00033
2.00057
2.00074
2.00081
2.00079
2.00073
2.00068
2
2
2
2
2
2
2
2
2
2
2
2
2
2
2
1.99999
2
2.00001
2.00004
2.00011
2.00021
2.00035
2.00052
2.00067
2.00077
2.00079
2.00072
2.00058
2.00042
2.00029
2.00024
2.00029
2.00041
2.00057
2.00071
2.00079
2.00078
2.00071
2.00062
2.00056
2
2
2
2
2
2
2
2
2
2
2
2
2
2
2
1.99999
1.99999
2
2.00003
2.00007
2.00016
2.00028
2.00043
2.00058
2.00071
2.00078
2.00079
2.00075
2.00067
2.0006
2.00058
2.0006
2.00067
2.00074
2.00079
2.00078
2.00071
2.00061
2.0005
2.00044
2
2
2
2
2
2
2
2
2
2
2
2
2
2
2
1.99999
1.99999
2
2.00001
2.00004
2.0001
2.0002
2.00032
2.00047
2.00061
2.00072
2.00079
2.00081
2.00081
2.00079
2.00079
2.00079
2.00081
2.00081
2.00078
2.00071
2.0006
2.00048
2.00037
2.0003
2
2
2
2
2
2
2
2
2
2
2
2
2
2
2
2
1.99999
1.99999
2
2.00002
2.00006
2.00013
2.00023
2.00035
2.00049
2.00061
2.00072
2.00079
2.00084
2.00086
2.00086
2.00086
2.00084
2.00079
2.00071
2.00061
2.00048
2.00035
2.00024
2.00019
2
2
2
2
2
2
2
2
2
2
2
2
2
2
2
2
1.99999
1.99999
1.99999
2
2.00002
2.00007
2.00015
2.00025
2.00038
2.00051
2.00063
2.00073
2.0008
2.00084
2.00086
2.00084
2.0008
2.00073
2.00062
2.0005
2.00037
2.00024
2.00015
2.0001
2
2
2
2
2
2
2
2
2
2
2
2
2
2
2
2
1.99999
1.99999
1.99999
1.99999
2.00001
2.00004
2.00011
2.0002
2.00031
2.00044
2.00057
2.00068
2.00076
2.00082
2.00083
2.00082
2.00076
2.00068
2.00056
2.00044
2.0003
2.00019
2.0001
2.00005
