# vtk DataFile Version 3.0
Brusselator Concentration Output
ASCII
DATASET STRUCTURED_POINTS
DIMENSIONS 40 40 1
ORIGIN 0.0 0.0 0.0
SPACING 0.005 0.005 1.0
POINT_DATA 1600
SCALARS C1 double 1
LOOKUP_TABLE default
1
1
1
1.00001
1.00001
1.00002
1.00002
1.00001
1
0.999995
0.999992
0.999995
1
1.00001
1.00002
1.00002
1.00001
1.00001
1
1
1
1
1
1
1
1
1
1
1
1
1
1
1
1
1
1
1
1
1
1
1
1
1.00001
1.00001
1.00001
1.00001
0.999995
0.99997
0.999939
0.999914
0.999904
0.999914
0.999939
0.99997
0.999995
1.00001
1.00001
1.00001
1.00001
1
1
1
1
1
1
1
1
1
1
1
1
1
1
1
1
1
1
1
1
1
1
1.00001
1.00001
1.00001
1
0.999975
0.999916
0.999832
0.999744
0.999678
0.999653
0.999678
0.999744
0.999832
0.999916
0.999975
1
1.00001
1.00001
1.00001
1
1
1
1
1
1
1
1
1
1
1
1
1
1
1
1
1
1
1
1
1.00001
1.00001
1.00001
1
0.999961
0.999864
0.999705
0.999505
0.999314
0.999182
0.999136
0.999182
0.999314
0.999505
0.999705
0.999864
0.999961
1
1.00001
1.00001
1.00001
1
1
1
1
1
1
1
1
1
1
1
1
1
1
1
1
1
1
1
1.00001
1.00001
1
0.999961
0.999843
0.999615
0.999285
0.998919
0.998612
0.998426
0.998367
0.998426
0.998612
0.998919
0.999285
0.999615
0.999843
0.999961
1
1.00001
1.00001
1
1
1
1
1
1
1
1
1
1
1
1
1
1
1
1
1
1
1
1.00002
1.00001
0.999975
0.999864
0.999615
0.999195
0.99866
0.998158
0.997834
0.997708
0.997686
0.997708
0.997834
0.998158
0.99866
0.999195
0.999615
0.999864
0.999974
1.00001
1.00001
1.00001
1
1
1
1
1
1
1
1
1
1
1
1
1
1
1
1
1
1
1.00002
0.999995
0.999916
0.999705
0.999285
0.99866
0.997988
0.997542
0.997485
0.99768
0.997801
0.99768
0.997485
0.997542
0.997988
0.99866
0.999285
0.999705
0.999915
0.999992
1.00001
1.00001
1
1
1
1
1
1
1
1
1
1
1
1
1
1
1
1
1
1
1.00001
0.99997
0.999832
0.999505
0.998919
0.998158
0.997542
0.997485
0.998106
0.998968
0.999367
0.998968
0.998106
0.997485
0.997542
0.998158
0.998919
0.999504
0.999831
0.999965
1
1.00001
1
1
1
1
1
1
1
1
1
1
1
1
1
1
1
1
1
1
1
0.999939
0.999744
0.999314
0.998612
0.997834
0.997485
0.998106
0.999708
1.00146
1.00222
1.00146
0.999708
0.998106
0.997485
0.997834
0.998612
0.999314
0.999742
0.999934
0.999996
1.00001
1
1
1
1
1
1
1
1
1
1
1
1
1
1
1
1
1
1
0.999995
0.999914
0.999678
0.999182
0.998426
0.997708
0.99768
0.998968
1.00146
1.004
1.00507
1.004
1.00146
0.998968
0.99768
0.997708
0.998426
0.999182
0.999675
0.999909
0.999989
1.00001
1.00001
1
1
1
1
1
1
1
1
1
1
1
1
1
1
1
1
1
0.999992
0.999904
0.999653
0.999136
0.998367
0.997686
0.997801
0.999367
1.00222
1.00507
1.00626
1.00507
1.00222
0.999367
0.997801
0.997686
0.998367
0.999135
0.999651
0.999899
0.999986
1.00001
1.00001
1
1
1
1
1
1
1
1
1
1
1
1
1
1
1
1
1
0.999995
0.999914
0.999678
0.999182
0.998426
0.997708
0.99768
0.998968
1.00146
1.004
1.00507
1.004
1.00146
0.998968
0.99768
0.997708
0.998426
0.999182
0.999675
0.999909
0.999989
1.00001
1.00001
1
1
1
1
1
1
1
1
1
1
1
1
1
1
1
1
1
1
0.999939
0.999744
0.999314
0.998612
0.997834
0.997485
0.998106
0.999708
1.00146
1.00222
1.00146
0.999708
0.998106
0.997485
0.997834
0.998612
0.999314
0.999742
0.999934
0.999996
1.00001
1
1
1
1
1
1
1
1
1
1
1
1
1
1
1
1
1
1
1.00001
0.99997
0.999832
0.999505
0.998919
0.998158
0.997542
0.997485
0.998106
0.998968
0.999367
0.998968
0.998106
0.997485
0.997542
0.998158
0.998919
0.999504
0.999831
0.999965
1
1.00001
1
1
1
1
1
1
1
1
1
1
1
1
1
1
1
1
1
1
1.00002
0.999995
0.999916
0.999705
0.999285
0.99866
0.997988
0.997542
0.997485
0.99768
0.997801
0.99768
0.997485
0.997542
0.997988
0.99866
0.999285
0.999705
0.999915
0.999992
1.00001
1.00001
1
1
1
1
1
1
1
1
1
1
1
1
1
1
1
1
1
1
1.00002
1.00001
0.999975
0.999864
0.999615
0.999195
0.99866
0.998158
0.997834
0.997708
0.997686
0.997708
0.997834
0.998158
0.99866
0.999195
0.999615
0.999864
0.999974
1.00001
1.00001
1.00001
1
1
1
1
1
1
1
1
1
1
1
1
1
1
1
1
1
1
1.00001
1.00001
1
0.999961
0.999843
0.999615
0.999285
0.998919
0.998612
0.998426
0.998367
0.998426
0.998612
0.998919
0.999285
0.999615
0.999843
0.999961
1
1.00001
1.00001
1
1
1
1
1
1
1
1
1
1
1
1
1
1
1
1
1
1
1
1.00001
1.00001
1.00001
1
0.999961
0.999864
0.999705
0.999504
0.999314
0.999182
0.999135
0.999182
0.999314
0.999504
0.999705
0.999864
0.999961
1
1.00001
1.00001
1.00001
1
1
1
1
1
1
0.999999
0.999999
0.999999
0.999999
0.999999
0.999999
0.999999
1
1
1
1
1
1
1
1.00001
1.00001
1.00001
1
0.999974
0.999915
0.999831
0.999742
0.999675
0.999651
0.999675
0.999742
0.999831
0.999915
0.999974
1
1.00001
1.00001
1.00001
1
1
1
1
0.999999
0.999999
0.999999
0.999998
0.999998
0.999998
0.999998
0.999998
0.999998
0.999998
0.999999
0.999999
0.999999
1
1
1
1
1
1.00001
1.00001
1.00001
1.00001
0.999992
0.999965
0.999934
0.999909
0.999899
0.999909
0.999934
0.999965
0.999992
1.00001
1.00001
1.00001
1.00001
1
1
1
1
0.999999
0.999998
0.999998
0.999997
0.999996
0.999996
0.999996
0.999996
0.999996
0.999996
0.999996
0.999997
0.999998
0.999998
0.999999
1
1
1
1
1
1.00001
1.00001
1.00001
1.00001
1
0.999996
0.999989
0.999986
0.999989
0.999996
1
1.00001
1.00001
1.00001
1.00001
1
1
1
1
0.999999
0.999998
0.999996
0.999995
0.999995
0.999996
0.999998
1
1
1
0.999998
0.999996
0.999995
0.999995
0.999996
0.999998
0.999999
0.999999
1
1
1
1
1
1.00001
1.00001
1.00001
1.00001
1.00001
1.00001
1.00001
1.00001
1.00001
1.00001
1.00001
1
1
1
1
1
0.999999
0.999998
0.999996
0.999994
0.999994
0.999998
1.00001
1.00002
1.00003
1.00003
1.00003
1.00002
1.00001
0.999998
0.999994
0.999994
0.999996
0.999997
0.999998
1
1
1
1
1
1
1
1
1
1.00001
1.00001
1.00001
1
1
1
1
1
1
1
1
0.999999
0.999998
0.999995
0.999993
0.999994
1
1.00002
1.00005
1.00009
1.00012
1.00013
1.00012
1.00009
1.00005
1.00002
1
0.999994
0.999993
0.999995
0.999997
1
1
1
1
1
1
1
1
1
1
1
1
1
1
1
1
1
1
1
0.999999
0.999998
0.999996
0.999993
0.999994
1.00001
1.00004
1.0001
1.00018
1.00027
1.00033
1.00035
1.00033
1.00027
1.00018
1.0001
1.00004
1.00001
0.999994
0.999992
0.999994
1
1
1
1
1
1
1
1
1
1
1
1
1
1
1
1
1
1
0.999999
0.999998
0.999996
0.999994
0.999994
1.00001
1.00005
1.00014
1.00028
1.00045
1.0006
1.00071
1.00074
1.00071
1.0006
1.00045
1.00028
1.00014
1.00005
1.00001
0.999993
0.99999
1
1
1
1
1
1
1
1
1
1
1
1
1
1
1
1
1
1
0.999999
0.999998
0.999995
0.999994
1
1.00004
1.00014
1.00031
1.00057
1.00084
1.00105
1.00117
1.00121
1.00117
1.00105
1.00084
1.00057
1.00031
1.00014
1.00004
1
0.999989
1
1
1
1
1
1
1
1
1
1
1
1
1
1
1
1
1
1
0.999999
0.999997
0.999995
0.999998
1.00002
1.0001
1.00028
1.00057
1.00093
1.00126
1.00144
1.00148
1.00148
1.00148
1.00144
1.00126
1.00093
1.00057
1.00028
1.0001
1.00002
0.999993
1
1
1
1
1
1
1
1
1
1
1
1
1
1
1
1
1
0.999999
0.999998
0.999996
0.999996
1.00001
1.00005
1.00018
1.00045
1.00084
1.00126
1.00152
1.00151
1.00133
1.00122
1.00133
1.00151
1.00152
1.00126
1.00084
1.00044
1.00018
1.00005
1
1
1
1
1
1
1
1
1
1
1
1
1
1
1
1
1
1
0.999999
0.999998
0.999996
0.999998
1.00002
1.00009
1.00027
1.0006
1.00105
1.00144
1.00151
1.00115
1.00063
1.00039
1.00063
1.00115
1.00151
1.00144
1.00105
1.0006
1.00027
1.00009
1.00002
1
1
1
1
1
1
1
1
1
1
1
1
1
1
1
1
1
0.999999
0.999998
0.999996
1
1.00003
1.00012
1.00033
1.00071
1.00117
1.00148
1.00133
1.00063
0.999794
0.999418
0.999794
1.00063
1.00133
1.00148
1.00117
1.00071
1.00033
1.00011
1.00003
1
1
1
1
1
1
1
1
1
1
1
1
1
1
1
1
1
0.999999
0.999998
0.999996
1
1.00003
1.00013
1.00035
1.00074
1.00121
1.00148
1.00122
1.00039
0.999418
0.99899
0.999418
1.00039
1.00122
1.00148
1.00121
1.00074
1.00035
1.00012
1.00003
1
1
1
1
1
1
1
1
1
1
1
1
1
1
1
1
1
0.999999
0.999998
0.999996
1
1.00003
1.00012
1.00033
1.00071
1.00117
1.00148
1.00133
1.00063
0.999794
0.999418
0.999794
1.00063
1.00133
1.00148
1.00117
1.00071
1.00033
1.00011
1.00003
1
1
1
1
1
1
1
1
1
1
1
1
1
1
1
1
1
0.999999
0.999998
0.999996
0.999998
1.00002
1.00009
1.00027
1.0006
1.00105
1.00144
1.00151
1.00115
1.00063
1.00039
1.00063
1.00115
1.00151
1.00144
1.00105
1.0006
1.00027
1.00009
1.00002
1
1
1
1
1
1
1
1
1
1
1
1
1
1
1
1
1
0.999999
0.999998
0.999996
0.999996
1.00001
1.00005
1.00018
1.00045
1.00084
1.00126
1.00152
1.00151
1.00133
1.00122
1.00133
1.00151
1.00152
1.00126
1.00084
1.00044
1.00018
1.00005
1
1
1
1
1
1
1
1
1
1
1
1
1
1
1
1
1
1
1
0.999999
0.999997
0.999995
0.999998
1.00002
1.0001
1.00028
1.00057
1.00093
1.00126
1.00144
1.00148
1.00148
1.00148
1.00144
1.00126
1.00093
1.00057
1.00028
1.0001
1.00002
0.999993
1
1
1
1
1
1
1
1
1
1
1
1
1
1
1
1
1
1
0.999999
0.999998
0.999995
0.999994
1
1.00004
1.00014
1.00031
1.00057
1.00084
1.00105
1.00117
1.00121
1.00117
1.00105
1.00084
1.00057
1.00031
1.00014
1.00004
1
0.999989
1
1
1
1
1
1
1
1
1
1
1
1
1
1
1
1
1
1
0.999999
0.999998
0.999996
0.999994
0.999994
1.00001
1.00005
1.00014
1.00028
1.00044
1.0006
1.00071
1.00074
1.00071
1.0006
1.00044
1.00028
1.00014
1.00005
1.00001
0.999993
0.99999
1
1
1
1
1
1
1
1
1
1
1
1
1
1
1
1
1
1
1
0.999999
0.999998
0.999996
0.999993
0.999994
1.00001
1.00004
1.0001
1.00018
1.00027
1.00033
1.00035
1.00033
1.00027
1.00018
1.0001
1.00004
1.00001
0.999994
0.999992
0.999994
1
1
1
1
1
1
1
1
1
1
1
1
1
1
1
1
1
1
1
1
0.999999
0.999997
0.999995
0.999992
0.999993
1
1.00002
1.00005
1.00009
1.00011
1.00012
1.00011
1.00009
1.00005
1.00002
1
0.999993
0.999992
0.999995
0.999996
1
1
1
1
1
1
1
1
1
1
1
1
1
1
1
1
1
1
1
1
0.999999
0.999998
0.999997
0.999994
0.99999
0.999989
0.999993
1
1.00002
1.00003
1.00003
1.00003
1.00002
1
0.999993
0.999989
0.99999
0.999994
0.999996
0.999998
SCALARS C2 double 1
LOOKUP_TABLE default
2
2
2
1.99999
1.99998
1.99997
1.99996
1.99995
1.99995
1.99995
1.99995
1.99995
1.99995
1.99995
1.99996
1.99997
1.99998
1.99999
2
2
2
2
2
2
2
2
2
2
2
2
2
2
2
2
2
2
2
2
2
2
2
2
1.99999
1.99999
1.99997
1.99996
1.99995
1.99995
1.99997
1.99998
1.99999
1.99998
1.99997
1.99995
1.99995
1.99996
1.99997
1.99999
1.99999
2
2
2
2
2
2
2
2
2
2
2
2
2
2
2
2
2
2
2
2
2
2
1.99999
1.99998
1.99997
1.99995
1.99995
1.99997
2.00002
2.00009
2.00016
2.00019
2.00016
2.00009
2.00002
1.99997
1.99995
1.99995
1.99997
1.99998
1.99999
2
2
2
2
2
2
2
2
2
2
2
2
2
2
2
2
2
2
2
2
1.99999
1.99999
1.99997
1.99995
1.99995
1.99998
2.0001
2.0003
2.00055
2.00074
2.00082
2.00074
2.00055
2.0003
2.0001
1.99998
1.99995
1.99995
1.99997
1.99999
1.99999
2
2
2
2
2
2
2
2
2
2
2
2
2
2
2
2
2
2
2
1.99998
1.99997
1.99995
1.99995
1.99999
2.00017
2.00053
2.00106
2.00163
2.00207
2.00223
2.00207
2.00163
2.00106
2.00053
2.00017
1.99999
1.99995
1.99995
1.99997
1.99999
2
2
2
2
2
2
2
2
2
2
2
2
2
2
2
2
2
2
2
1.99997
1.99996
1.99995
1.99998
2.00017
2.00063
2.00144
2.00251
2.00358
2.00435
2.00462
2.00435
2.00358
2.00251
2.00144
2.00063
2.00017
1.99998
1.99995
1.99996
1.99998
1.99999
2
2
2
2
2
2
2
2
2
2
2
2
2
2
2
2
2
2
1.99996
1.99995
1.99997
2.0001
2.00053
2.00144
2.00288
2.00464
2.00623
2.00726
2.00761
2.00726
2.00623
2.00464
2.00288
2.00144
2.00053
2.0001
1.99997
1.99996
1.99997
1.99999
2
2
2
2
2
2
2
2
2
2
2
2
2
2
2
2
2
2
1.99995
1.99995
2.00002
2.0003
2.00106
2.00251
2.00464
2.00698
2.00884
2.00986
2.01015
2.00986
2.00884
2.00698
2.00464
2.00251
2.00106
2.0003
2.00002
1.99996
1.99997
1.99998
1.99999
2
2
2
2
2
2
2
2
2
2
2
2
2
2
2
2
2
1.99995
1.99997
2.00009
2.00055
2.00163
2.00358
2.00623
2.00884
2.01056
2.01117
2.01124
2.01117
2.01056
2.00884
2.00623
2.00358
2.00163
2.00055
2.0001
1.99997
1.99997
1.99998
1.99999
2
2
2
2
2
2
2
2
2
2
2
2
2
2
2
2
2
1.99995
1.99998
2.00016
2.00074
2.00207
2.00435
2.00726
2.00986
2.01117
2.01121
2.01101
2.01121
2.01117
2.00986
2.00726
2.00435
2.00207
2.00074
2.00016
1.99999
1.99997
1.99998
1.99999
2
2
2
2
2
2
2
2
2
2
2
2
2
2
2
2
2
1.99995
1.99999
2.00019
2.00082
2.00223
2.00462
2.00761
2.01015
2.01124
2.01101
2.01068
2.01101
2.01124
2.01015
2.00761
2.00462
2.00223
2.00082
2.00019
2
1.99997
1.99998
1.99999
2
2
2
2
2
2
2
2
2
2
2
2
2
2
2
2
2
1.99995
1.99998
2.00016
2.00074
2.00207
2.00435
2.00726
2.00986
2.01117
2.01121
2.01101
2.01121
2.01117
2.00986
2.00726
2.00435
2.00207
2.00074
2.00016
1.99999
1.99997
1.99998
1.99999
2
2
2
2
2
2
2
2
2
2
2
2
2
2
2
2
2
1.99995
1.99997
2.00009
2.00055
2.00163
2.00358
2.00623
2.00884
2.01056
2.01117
2.01124
2.01117
2.01056
2.00884
2.00623
2.00358
2.00163
2.00055
2.0001
1.99997
1.99997
1.99998
1.99999
2
2
2
2
2
2
2
2
2
2
2
2
2
2
2
2
2
1.99995
1.99995
2.00002
2.0003
2.00106
2.00251
2.00464
2.00698
2.00884
2.00986
2.01015
2.00986
2.00884
2.00698
2.00464
2.00251
2.00106
2.0003
2.00002
1.99996
1.99997
1.99998
1.99999
2
2
2
2
2
2
2
2
2
2
2
2
2
2
2
2
2
1.99996
1.99995
1.99997
2.0001
2.00053
2.00144
2.00288
2.00464
2.00623
2.00726
2.00761
2.00726
2.00623
2.00464
2.00288
2.00144
2.00053
2.0001
1.99997
1.99996
1.99997
1.99999
2
2
2
2
2
2
2
2
2
2
2
2
2
2
2
2
2
2
1.99997
1.99996
1.99995
1.99998
2.00017
2.00063
2.00144
2.00251
2.00358
2.00435
2.00462
2.00435
2.00358
2.00251
2.00144
2.00063
2.00017
1.99998
1.99995
1.99996
1.99998
1.99999
2
2
2
2
2
2
2
2
2
2
2
2
2
2
2
2
2
2
1.99998
1.99997
1.99995
1.99995
1.99999
2.00017
2.00053
2.00106
2.00163
2.00207
2.00223
2.00207
2.00163
2.00106
2.00053
2.00017
1.99999
1.99995
1.99995
1.99997
1.99999
2
2
2
2
2
2
2
2
2
2
2
2
2
2
2
2
2
2
2
1.99999
1.99999
1.99997
1.99995
1.99995
1.99998
2.0001
2.0003
2.00055
2.00074
2.00082
2.00074
2.00055
2.0003
2.0001
1.99998
1.99995
1.99995
1.99997
1.99999
1.99999
2
2
2
2
2
2
2
2
2
2
2
2
2
2
2
2
2
2
2
2
1.99999
1.99998
1.99997
1.99995
1.99995
1.99997
2.00002
2.0001
2.00016
2.00019
2.00016
2.0001
2.00002
1.99997
1.99995
1.99995
1.99997
1.99998
1.99999
2
2
2
2
2
2
2
2
2
2
2
2
2
2
2
2
2
2
2
2
2
2
1.99999
1.99999
1.99997
1.99996
1.99996
1.99996
1.99997
1.99999
2
1.99999
1.99997
1.99996
1.99996
1.99996
1.99997
1.99999
1.99999
2
2
2
2
2
2
2
2
2.00001
2.00001
2.00001
2.00001
2.00001
2.00001
2.00001
2
2
2
2
2
2
2
2
2
1.99999
1.99999
1.99998
1.99997
1.99997
1.99997
1.99997
1.99997
1.99997
1.99997
1.99997
1.99997
1.99998
1.99999
1.99999
2
2
2
2
2
2
2
2.00001
2.00001
2.00002
2.00002
2.00002
2.00002
2.00002
2.00002
2.00002
2.00001
2.00001
2
2
2
2
2
2
2
2
2
1.99999
1.99999
1.99998
1.99998
1.99998
1.99998
1.99998
1.99998
1.99998
1.99999
1.99999
2
2
2
2
2
2
2
2.00001
2.00001
2.00002
2.00002
2.00002
2.00002
2.00002
2.00002
2.00002
2.00002
2.00002
2.00002
2.00002
2.00001
2.00001
2
2
2
2
2
2
2
2
2
1.99999
1.99999
1.99999
1.99999
1.99999
1.99999
1.99999
2
2
2
2
2
2
2
2
2.00001
2.00001
2.00002
2.00003
2.00003
2.00001
1.99999
1.99997
1.99996
1.99997
1.99999
2.00001
2.00003
2.00003
2.00002
2.00001
2.00001
2
2
2
2
2
2
2
2
2
2
2
2
2
2
2
2
2
2
2
2
2
2
2.00001
2.00001
2.00002
2.00003
2.00003
1.99999
1.99993
1.99984
1.99976
1.99973
1.99976
1.99984
1.99993
1.99999
2.00003
2.00003
2.00002
2.00001
2.00001
2
2
2
2
2
2
2
2
2
2
2
2
2
2
2
2
2
2
2
2
2
2.00001
2.00002
2.00003
2.00003
1.99998
1.99985
1.99965
1.99941
1.99923
1.99915
1.99923
1.99941
1.99965
1.99985
1.99998
2.00003
2.00003
2.00002
2.00002
2
2
2
2
2
2
2
2
2
2
2
2
2
2
2
2
2
2
2
2
2.00001
2.00002
2.00003
2.00003
1.99998
1.99982
1.9995
1.99905
1.99857
1.9982
1.99807
1.9982
1.99857
1.99905
1.9995
1.99982
1.99998
2.00003
2.00003
2.00003
2
2
2
2
2
2
2
2
2
2
2
2
2
2
2
2
2
2
2
2
2.00001
2.00002
2.00003
1.99999
1.99985
1.9995
1.9989
1.99809
1.99729
1.99672
1.99652
1.99672
1.99729
1.99809
1.9989
1.9995
1.99985
2
2.00003
2.00003
2
2
2
2
2
2
2
2
2
2
2
2
2
2
2
2
2
2
2
2.00001
2.00002
2.00002
2.00001
1.99993
1.99965
1.99905
1.99809
1.99691
1.99583
1.99513
1.9949
1.99513
1.99583
1.99691
1.99809
1.99905
1.99965
1.99993
2.00002
2.00004
2
2
2
2
2
2
2
2
2
2
2
2
2
2
2
2
2
2
2
2.00001
2.00002
2.00002
1.99999
1.99984
1.99941
1.99857
1.99729
1.99583
1.99462
1.99393
1.99373
1.99393
1.99462
1.99583
1.99729
1.99857
1.99942
1.99984
2
2.00004
2
2
2
2
2
2
2
2
2
2
2
2
2
2
2
2
2
2
2
2.00001
2.00002
2.00002
1.99997
1.99976
1.99923
1.9982
1.99672
1.99513
1.99393
1.99336
1.99323
1.99336
1.99393
1.99513
1.99672
1.9982
1.99923
1.99976
1.99998
2.00004
2
2
2
2
2
2
2
2
2
2
2
2
2
2
2
2
2
2
2
2.00001
2.00002
2.00002
1.99996
1.99973
1.99915
1.99807
1.99652
1.9949
1.99373
1.99323
1.99314
1.99323
1.99373
1.9949
1.99652
1.99807
1.99916
1.99974
1.99997
2.00004
2
2
2
2
2
2
2
2
2
2
2
2
2
2
2
2
2
2
2
2.00001
2.00002
2.00002
1.99997
1.99976
1.99923
1.9982
1.99672
1.99513
1.99393
1.99336
1.99323
1.99336
1.99393
1.99513
1.99672
1.9982
1.99923
1.99976
1.99998
2.00004
2
2
2
2
2
2
2
2
2
2
2
2
2
2
2
2
2
2
2
2.00001
2.00002
2.00002
1.99999
1.99984
1.99941
1.99857
1.99729
1.99583
1.99462
1.99393
1.99373
1.99393
1.99462
1.99583
1.99729
1.99857
1.99942
1.99984
2
2.00004
2
2
2
2
2
2
2
2
2
2
2
2
2
2
2
2
2
2
2
2.00001
2.00002
2.00002
2.00001
1.99993
1.99965
1.99905
1.99809
1.99691
1.99583
1.99513
1.9949
1.99513
1.99583
1.99691
1.99809
1.99905
1.99965
1.99993
2.00002
2.00004
2
2
2
2
2
2
2
2
2
2
2
2
2
2
2
2
2
2
2
2
2.00001
2.00002
2.00003
1.99999
1.99985
1.9995
1.9989
1.99809
1.99729
1.99672
1.99652
1.99672
1.99729
1.99809
1.9989
1.9995
1.99985
2
2.00003
2.00003
2
2
2
2
2
2
2
2
2
2
2
2
2
2
2
2
2
2
2
2
2.00001
2.00002
2.00003
2.00003
1.99998
1.99982
1.9995
1.99905
1.99857
1.9982
1.99807
1.9982
1.99857
1.99905
1.9995
1.99982
1.99998
2.00003
2.00003
2.00003
2
2
2
2
2
2
2
2
2
2
2
2
2
2
2
2
2
2
2
2
2
2.00001
2.00002
2.00003
2.00003
1.99998
1.99985
1.99965
1.99942
1.99923
1.99916
1.99923
1.99942
1.99965
1.99985
1.99998
2.00003
2.00003
2.00002
2.00002
2
2
2
2
2
2
2
2
2
2
2
2
2
2
2
2
2
2
2
2
2
2.00001
2.00001
2.00002
2.00003
2.00003
2
1.99993
1.99984
1.99976
1.99974
1.99976
1.99984
1.99993
2
2.00003
2.00003
2.00002
2.00001
2.00001
2
2
2
2
2
2
2
2
2
2
2
2
2
2
2
2
2
2
2
2
2
2
2.00001
2.00001
2.00002
2.00003
2.00003
2.00002
2
1.99998
1.99997
1.99998
2
2.00002
2.00003
2.00003
2.00002
2.00001
2.00001
2
2
2
2
2
2
2
2
2
2
2
2
2
2
2
2
2
2
2
2
2
2
2
2
2.00001
2.00002
2.00003
2.00003
2.00004
2.00004
2.00004
2.00004
2.00004
2.00004
2.00004
2.00003
2.00003
2.00002
2.00001
2
2
