# vtk DataFile Version 3.0
Brusselator Concentration Output
ASCII
DATASET STRUCTURED_POINTS
DIMENSIONS 40 40 1
ORIGIN 0.0 0.0 0.0
SPACING 0.005 0.005 1.0
POINT_DATA 1600
SCALARS C1 double 1
LOOKUP_TABLE default
1
1
1
0.999999
0.999998
0.999996
0.999993
0.99999
0.999989
0.999988
0.999988
0.999988
0.999989
0.99999
0.999993
0.999996
0.999998
0.999999
1
1
1
1
1
1
1
1
1
1
1
1
1
1
1
1
1
1
1
1
1
1
1
1
0.999999
0.999998
0.999995
0.999992
0.999988
0.999988
0.999991
0.999996
0.999998
0.999996
0.999991
0.999988
0.999988
0.999992
0.999995
0.999998
0.999999
1
1
1
1
1
1
1
1
1
1
1
1
1
1
1
1
1
1
1
1
1
1
0.999999
0.999998
0.999994
0.999989
0.999985
0.999987
1
1.00003
1.00006
1.00007
1.00006
1.00003
1
0.999987
0.999985
0.999989
0.999994
0.999998
0.999999
1
1
1
1
1
1
1
1
1
1
1
1
1
1
1
1
1
1
1
1
0.999999
0.999998
0.999994
0.999988
0.999983
0.999989
1.00002
1.0001
1.00021
1.00031
1.00035
1.00031
1.00021
1.0001
1.00002
0.999989
0.999983
0.999988
0.999994
0.999998
0.999999
1
1
1
1
1
1
1
1
1
1
1
1
1
1
1
1
1
1
1
0.999998
0.999995
0.999989
0.999983
0.99999
1.00004
1.00019
1.00045
1.00076
1.00101
1.0011
1.00101
1.00076
1.00045
1.00019
1.00004
0.99999
0.999983
0.999989
0.999995
0.999998
1
1
1
1
1
1
1
1
1
1
1
1
1
1
1
1
1
1
1
0.999996
0.999992
0.999985
0.999989
1.00004
1.00023
1.00063
1.00125
1.00191
1.00237
1.00253
1.00237
1.00191
1.00125
1.00063
1.00023
1.00004
0.999989
0.999985
0.999992
0.999997
0.999999
1
1
1
1
1
1
1
1
1
1
1
1
1
1
1
1
1
1
0.999993
0.999988
0.999987
1.00002
1.00019
1.00063
1.00146
1.00258
1.00357
1.0041
1.00422
1.0041
1.00357
1.00258
1.00146
1.00063
1.00019
1.00002
0.999987
0.999989
0.999995
0.999998
1
1
1
1
1
1
1
1
1
1
1
1
1
1
1
1
1
1
0.99999
0.999988
1
1.0001
1.00045
1.00125
1.00258
1.00406
1.00494
1.00492
1.00472
1.00492
1.00494
1.00406
1.00258
1.00125
1.00045
1.0001
1
0.999988
0.999993
0.999997
0.999999
1
1
1
1
1
1
1
1
1
1
1
1
1
1
1
1
1
0.999989
0.999991
1.00003
1.00021
1.00076
1.00191
1.00357
1.00494
1.00486
1.00341
1.0025
1.00341
1.00486
1.00494
1.00357
1.00191
1.00076
1.00021
1.00003
0.999992
0.999992
0.999997
0.999999
1
1
1
1
1
1
1
1
1
1
1
1
1
1
1
1
1
0.999988
0.999996
1.00006
1.00031
1.00101
1.00237
1.0041
1.00492
1.00341
1.00021
0.998482
1.00021
1.00341
1.00492
1.0041
1.00237
1.00101
1.00031
1.00006
0.999997
0.999992
0.999996
0.999999
1
1
1
1
1
1
1
1
1
1
1
1
1
1
1
1
1
0.999988
0.999998
1.00007
1.00035
1.0011
1.00253
1.00422
1.00472
1.0025
0.998482
0.996387
0.998482
1.0025
1.00472
1.00422
1.00253
1.0011
1.00035
1.00007
0.999999
0.999992
0.999996
0.999999
1
1
1
1
1
1
1
1
1
1
1
1
1
1
1
1
1
0.999988
0.999996
1.00006
1.00031
1.00101
1.00237
1.0041
1.00492
1.00341
1.00021
0.998482
1.00021
1.00341
1.00492
1.0041
1.00237
1.00101
1.00031
1.00006
0.999997
0.999992
0.999996
0.999999
1
1
1
1
1
1
1
1
1
1
1
1
1
1
1
1
1
0.999989
0.999991
1.00003
1.00021
1.00076
1.00191
1.00357
1.00494
1.00486
1.00341
1.0025
1.00341
1.00486
1.00494
1.00357
1.00191
1.00076
1.00021
1.00003
0.999992
0.999992
0.999997
0.999999
1
1
1
1
1
1
1
1
1
1
1
1
1
1
1
1
1
0.99999
0.999988
1
1.0001
1.00045
1.00125
1.00258
1.00406
1.00494
1.00492
1.00472
1.00492
1.00494
1.00406
1.00258
1.00125
1.00045
1.0001
1
0.999988
0.999993
0.999997
0.999999
1
1
1
1
1
1
1
1
1
1
1
1
1
1
1
1
1
0.999993
0.999988
0.999987
1.00002
1.00019
1.00063
1.00146
1.00258
1.00357
1.0041
1.00422
1.0041
1.00357
1.00258
1.00146
1.00063
1.00019
1.00002
0.999987
0.999989
0.999995
0.999998
1
1
1
1
1
1
1
1
1
1
1
1
1
1
1
1
1
1
0.999996
0.999992
0.999985
0.999989
1.00004
1.00023
1.00063
1.00125
1.00191
1.00237
1.00253
1.00237
1.00191
1.00125
1.00063
1.00023
1.00004
0.999989
0.999985
0.999992
0.999997
0.999999
1
1
1
1
1
1
1
1
1
1
1
1
1
1
1
1
1
1
0.999998
0.999995
0.999989
0.999983
0.99999
1.00004
1.00019
1.00045
1.00076
1.00101
1.0011
1.00101
1.00076
1.00045
1.00019
1.00004
0.99999
0.999983
0.999989
0.999995
0.999998
1
1
1
1
1
1
1
1
1
1
1
1
1
1
1
1
1
1
1
0.999999
0.999998
0.999994
0.999988
0.999983
0.999989
1.00002
1.0001
1.00021
1.00031
1.00035
1.00031
1.00021
1.0001
1.00002
0.999989
0.999983
0.999988
0.999994
0.999998
0.999999
1
1
1
1
1
1
1
1
1
1
1
1
1
1
1
1
1
1
1
1
0.999999
0.999998
0.999994
0.999989
0.999985
0.999987
1
1.00003
1.00006
1.00007
1.00006
1.00003
1
0.999987
0.999985
0.999989
0.999994
0.999998
0.999999
1
1
1
1
1
1
1
1
1
1
1
1
1
1
1
1
1
1
1
1
1
1
0.999999
0.999998
0.999995
0.999992
0.999989
0.999988
0.999992
0.999997
0.999999
0.999997
0.999992
0.999988
0.999989
0.999992
0.999995
0.999998
0.999999
1
1
1
1
1
1
1
1
1
1
1
1
1
1
1
1
1
1
1
1
1
1
1
1
0.999999
0.999998
0.999997
0.999995
0.999993
0.999992
0.999992
0.999992
0.999992
0.999992
0.999993
0.999995
0.999997
0.999998
0.999999
1
1
1
1
1
1
1
1
1
1
1
1
1
1
1
1
1
1
1
1
1
1
1
1
1
1
1
0.999999
0.999998
0.999997
0.999997
0.999996
0.999996
0.999996
0.999997
0.999997
0.999998
0.999999
1
1
1
1
1
1
1
1
1
1
1.00001
1.00001
1.00001
1
1
1
1.00001
1.00001
1.00001
1
1
1
1
1
1
1
1
1
1
1
1
0.999999
0.999999
0.999999
0.999999
0.999999
0.999999
0.999999
1
1
1
1
1
1
1
1
1
1
1
1.00001
1.00001
1
0.999996
0.999986
0.999982
0.999986
0.999996
1
1.00001
1.00001
1
1
1
1
1
1
1
1
1
1
1
1
1
1
1
1
1
1
1
1
1
1
1
1
1
1
1
1.00001
1.00001
1.00001
1
0.999974
0.999933
0.999895
0.99988
0.999895
0.999933
0.999974
1
1.00001
1.00001
1.00001
1
1
1
1
1
1
1
1
1
1
1
1
1
1
1
1
1
1
1
1
1
1
1
1
1
1.00001
1.00001
0.999995
0.999946
0.999849
0.999722
0.999613
0.999571
0.999613
0.999722
0.999849
0.999946
0.999995
1.00001
1.00001
1
1
1
1
1
1
1
1
1
1
1
1
1
1
1
1
1
1
1
1
1
1
1
1
1.00001
1.00001
0.999995
0.999933
0.999781
0.999525
0.999226
0.998994
0.998911
0.998994
0.999226
0.999525
0.999781
0.999933
0.999995
1.00001
1.00001
1
1
1
1
1
1
1
1
1
1
1
1
1
1
1
1
1
1
1
1
1
1
1.00001
1.00001
1
0.999946
0.999781
0.999436
0.998924
0.998394
0.99804
0.997931
0.99804
0.998394
0.998924
0.999436
0.999781
0.999946
1
1.00001
1.00001
1
1
1
1
1
1
1
1
1
1
1
1
1
1
1
1
1
1
1
1
1
1.00001
1
0.999974
0.999849
0.999525
0.998924
0.998135
0.997457
0.99714
0.997089
0.99714
0.997457
0.998135
0.998924
0.999525
0.999849
0.999974
1.00001
1.00001
1
1
1
1
1
1
1
1
1
1
1
1
1
1
1
1
1
1
1
1
1
1.00001
0.999996
0.999933
0.999722
0.999226
0.998394
0.997457
0.996899
0.996933
0.99709
0.996933
0.996899
0.997457
0.998394
0.999226
0.999722
0.999934
0.999997
1.00001
1
1
1
1
1
1
1
1
1
1
1
1
1
1
1
1
1
1
1
1
1
1
0.999986
0.999895
0.999613
0.998994
0.99804
0.99714
0.996933
0.997521
0.997968
0.997521
0.996933
0.99714
0.99804
0.998994
0.999613
0.999896
0.999988
1.00001
1
1
1
1
1
1
1
1
1
1
1
1
1
1
1
1
1
1
1
1
1
1
0.999982
0.99988
0.999571
0.998911
0.997931
0.997089
0.99709
0.997968
0.998561
0.997968
0.99709
0.997089
0.997931
0.998911
0.999571
0.99988
0.999984
1.00001
1
1
1
1
1
1
1
1
1
1
1
1
1
1
1
1
1
1
1
1
1
1
0.999986
0.999895
0.999613
0.998994
0.99804
0.99714
0.996933
0.997521
0.997968
0.997521
0.996933
0.99714
0.99804
0.998994
0.999613
0.999896
0.999988
1.00001
1
1
1
1
1
1
1
1
1
1
1
1
1
1
1
1
1
1
1
1
1
1.00001
0.999996
0.999933
0.999722
0.999226
0.998394
0.997457
0.996899
0.996933
0.99709
0.996933
0.996899
0.997457
0.998394
0.999226
0.999722
0.999934
0.999997
1.00001
1
1
1
1
1
1
1
1
1
1
1
1
1
1
1
1
1
1
1
1
1
1.00001
1
0.999974
0.999849
0.999525
0.998924
0.998135
0.997457
0.99714
0.997089
0.99714
0.997457
0.998135
0.998924
0.999525
0.999849
0.999974
1.00001
1.00001
1
1
1
1
1
1
1
1
1
1
1
1
1
1
1
1
1
1
1
1
1
1.00001
1.00001
1
0.999946
0.999781
0.999436
0.998924
0.998394
0.99804
0.997931
0.99804
0.998394
0.998924
0.999436
0.999781
0.999946
1
1.00001
1.00001
1
1
1
1
1
1
1
1
1
1
1
1
1
1
1
1
1
1
1
1
1
1
1.00001
1.00001
0.999995
0.999933
0.999781
0.999525
0.999226
0.998994
0.998911
0.998994
0.999226
0.999525
0.999781
0.999933
0.999995
1.00001
1.00001
1
1
1
1
1
1
1
1
1
1
1
1
1
1
1
1
1
1
1
1
1
1
1
1
1.00001
1.00001
0.999995
0.999946
0.999849
0.999722
0.999613
0.999571
0.999613
0.999722
0.999849
0.999946
0.999995
1.00001
1.00001
1
1
1
1
1
1
1
1
1
1
1
1
1
1
1
1
1
1
1
1
1
1
1
1
1
1.00001
1.00001
1.00001
1
0.999974
0.999934
0.999896
0.99988
0.999896
0.999934
0.999974
1
1.00001
1.00001
1.00001
1
1
1
1
1
1
1
1
1
1
1
1
1
1
1
1
1
1
1
1
1
1
1
1
1
1
1
1.00001
1.00001
1.00001
0.999997
0.999988
0.999984
0.999988
0.999997
1.00001
1.00001
1.00001
1
1
1
1
1
1
1
1
1
1
1
1
1
1
1
1
1
1
1
1
1
1
1
1
1
1
1
1
1
1
1.00001
1.00001
1.00001
1.00001
1.00001
1.00001
1.00001
1.00001
1.00001
1
1
1
1
1
SCALARS C2 double 1
LOOKUP_TABLE default
2
2
2
2
2
2
2.00001
2.00001
2.00002
2.00002
2.00002
2.00002
2.00002
2.00001
2.00001
2
2
2
2
2
2
2
2
2
2
2
2
2
2
2
2
2
2
2
2
2
2
2
2
2
2
2
2
2
2
2.00001
2.00002
2.00003
2.00003
2.00004
2.00004
2.00004
2.00003
2.00003
2.00002
2.00001
2
2
2
2
2
2
2
2
2
2
2
2
2
2
2
2
2
2
2
2
2
2
2
2
2
2
2
2.00001
2.00001
2.00003
2.00004
2.00006
2.00005
2.00005
2.00004
2.00005
2.00005
2.00006
2.00004
2.00003
2.00001
2.00001
2
2
2
2
2
2
2
2
2
2
2
2
2
2
2
2
2
2
2
2
2
2
2
2
2.00001
2.00002
2.00003
2.00006
2.00007
2.00005
1.99999
1.99992
1.99988
1.99992
1.99999
2.00005
2.00007
2.00006
2.00003
2.00002
2.00001
2
2
2
2
2
2
2
2
2
2
2
2
2
2
2
2
2
2
2
2
2
2
2
2.00001
2.00003
2.00006
2.00008
2.00004
1.99987
1.99957
1.99927
1.99914
1.99927
1.99957
1.99987
2.00004
2.00008
2.00006
2.00003
2.00001
2
2
2
2
2
2
2
2
2
2
2
2
2
2
2
2
2
2
2
2
2
2
2.00001
2.00003
2.00006
2.00008
2.00003
1.99975
1.99911
1.9982
1.99735
1.99702
1.99735
1.9982
1.99911
1.99975
2.00003
2.00008
2.00006
2.00003
2.00001
2
2
2
2
2
2
2
2
2
2
2
2
2
2
2
2
2
2
2
2
2.00001
2.00002
2.00004
2.00007
2.00004
1.99975
1.9989
1.99728
1.99516
1.99337
1.9927
1.99337
1.99516
1.99728
1.9989
1.99975
2.00004
2.00007
2.00004
2.00002
2.00001
2
2
2
2
2
2
2
2
2
2
2
2
2
2
2
2
2
2
2
2.00001
2.00003
2.00006
2.00005
1.99987
1.99911
1.99728
1.99414
1.99039
1.9875
1.9865
1.9875
1.99039
1.99414
1.99728
1.99911
1.99987
2.00005
2.00006
2.00003
2.00001
2
2
2
2
2
2
2
2
2
2
2
2
2
2
2
2
2
2
2
2.00002
2.00003
2.00005
1.99999
1.99957
1.9982
1.99516
1.99039
1.98522
1.98173
1.9807
1.98173
1.98522
1.99039
1.99516
1.9982
1.99957
1.99999
2.00005
2.00003
2.00001
2
2
2
2
2
2
2
2
2
2
2
2
2
2
2
2
2
2
2
2.00002
2.00004
2.00005
1.99992
1.99927
1.99735
1.99337
1.9875
1.98173
1.97847
1.97775
1.97847
1.98173
1.9875
1.99337
1.99735
1.99927
1.99992
2.00004
2.00004
2.00002
2.00001
2
2
2
2
2
2
2
2
2
2
2
2
2
2
2
2
2
2
2.00002
2.00004
2.00004
1.99988
1.99914
1.99702
1.9927
1.9865
1.9807
1.97775
1.97726
1.97775
1.9807
1.9865
1.9927
1.99702
1.99914
1.99988
2.00004
2.00004
2.00002
2.00001
2
2
2
2
2
2
2
2
2
2
2
2
2
2
2
2
2
2
2.00002
2.00004
2.00005
1.99992
1.99927
1.99735
1.99337
1.9875
1.98173
1.97847
1.97775
1.97847
1.98173
1.9875
1.99337
1.99735
1.99927
1.99992
2.00004
2.00004
2.00002
2.00001
2
2
2
2
2
2
2
2
2
2
2
2
2
2
2
2
2
2
2.00002
2.00003
2.00005
1.99999
1.99957
1.9982
1.99516
1.99039
1.98522
1.98173
1.9807
1.98173
1.98522
1.99039
1.99516
1.9982
1.99957
1.99999
2.00005
2.00003
2.00001
2
2
2
2
2
2
2
2
2
2
2
2
2
2
2
2
2
2
2
2.00001
2.00003
2.00006
2.00005
1.99987
1.99911
1.99728
1.99414
1.99039
1.9875
1.9865
1.9875
1.99039
1.99414
1.99728
1.99911
1.99987
2.00005
2.00006
2.00003
2.00001
2
2
2
2
2
2
2
2
2
2
2
2
2
2
2
2
2
2
2
2.00001
2.00002
2.00004
2.00007
2.00004
1.99975
1.9989
1.99728
1.99516
1.99337
1.9927
1.99337
1.99516
1.99728
1.9989
1.99975
2.00004
2.00007
2.00004
2.00002
2.00001
2
2
2
2
2
2
2
2
2
2
2
2
2
2
2
2
2
2
2
2
2.00001
2.00003
2.00006
2.00008
2.00003
1.99975
1.99911
1.9982
1.99735
1.99702
1.99735
1.9982
1.99911
1.99975
2.00003
2.00008
2.00006
2.00003
2.00001
2
2
2
2
2
2
2
2
2
2
2
2
2
2
2
2
2
2
2
2
2
2
2.00001
2.00003
2.00006
2.00008
2.00004
1.99987
1.99957
1.99927
1.99914
1.99927
1.99957
1.99987
2.00004
2.00008
2.00006
2.00003
2.00001
2
2
2
2
2
2
2
2
2
2
2
2
2
2
2
2
2
2
2
2
2
2
2
2.00001
2.00002
2.00003
2.00006
2.00007
2.00005
1.99999
1.99992
1.99988
1.99992
1.99999
2.00005
2.00007
2.00006
2.00003
2.00002
2.00001
2
2
2
2
2
2
2
2
2
2
2
2
2
2
2
2
2
2
2
2
2
2
2
2
2.00001
2.00001
2.00003
2.00004
2.00006
2.00005
2.00004
2.00004
2.00004
2.00005
2.00006
2.00004
2.00003
2.00001
2.00001
2
2
2
2
2
2
2
2
2
2
2
2
2
2
2
2
2
2
2
2
2
2
2
2
2
2
2
2.00001
2.00002
2.00003
2.00003
2.00004
2.00004
2.00004
2.00003
2.00003
2.00002
2.00001
2
2
2
2
2
2
2
2
2
2
2
2
2
2
2
2
2
2
2
2
2
2
2
2
2
2
2
2
2
2
2.00001
2.00001
2.00001
2.00002
2.00002
2.00002
2.00001
2.00001
2.00001
2
2
2
2
2
2
2
2
2
2
2
2
2
1.99999
1.99999
1.99999
1.99999
1.99999
2
2
2
2
2
2
2
2
2
2
2
2
2
2
2
2
2.00001
2.00001
2.00001
2
2
2
2
2
2
2
2
2
2
2
2
2
2
1.99999
1.99999
1.99998
1.99998
1.99998
1.99998
1.99998
1.99999
1.99999
2
2
2
2
2
2
2
2
2
2
2
2
2
2
2
2
2
2
2
2
2
2
2
2
2
2
2
2
2
1.99999
1.99999
1.99998
1.99997
1.99997
1.99997
1.99997
1.99997
1.99997
1.99997
1.99998
1.99999
1.99999
2
2
2
2
2
2
2
2
2
2
2
2
2
2
2
2
2
2
2
2
2
2
2
2
2
2
1.99999
1.99999
1.99997
1.99996
1.99996
1.99997
2
2.00001
2
1.99997
1.99996
1.99996
1.99997
1.99999
1.99999
2
2
2
2
2
2
2
2
2
2
2
2
2
2
2
2
2
2
2
2
2
2
2
2
1.99999
1.99999
1.99997
1.99995
1.99996
2
2.0001
2.00021
2.00026
2.00021
2.0001
2
1.99996
1.99995
1.99997
1.99999
1.99999
2
2
2
2
2
2
2
2
2
2
2
2
2
2
2
2
2
2
2
2
2
2
2
1.99999
1.99997
1.99995
1.99996
2.00003
2.00025
2.00059
2.00093
2.00107
2.00093
2.00059
2.00025
2.00003
1.99996
1.99995
1.99997
1.99999
1.99999
2
2
2
2
2
2
2
2
2
2
2
2
2
2
2
2
2
2
2
2
2
1.99999
1.99998
1.99996
1.99996
2.00003
2.00032
2.00094
2.00181
2.00261
2.00293
2.00261
2.00181
2.00094
2.00032
2.00003
1.99996
1.99996
1.99998
1.99999
2
2
2
2
2
2
2
2
2
2
2
2
2
2
2
2
2
2
2
2
2
1.99999
1.99997
1.99996
2
2.00025
2.00094
2.00223
2.00394
2.00541
2.00598
2.00541
2.00394
2.00223
2.00094
2.00025
2
1.99996
1.99997
1.99998
2
2
2
2
2
2
2
2
2
2
2
2
2
2
2
2
2
2
2
2
1.99999
1.99998
1.99997
1.99997
2.0001
2.00059
2.00181
2.00394
2.00658
2.00872
2.00949
2.00872
2.00658
2.00394
2.00181
2.00059
2.0001
1.99997
1.99997
1.99998
2
2
2
2
2
2
2
2
2
2
2
2
2
2
2
2
2
2
2
2
1.99999
1.99998
1.99997
2
2.00021
2.00093
2.00261
2.00541
2.00872
2.01124
2.0121
2.01124
2.00872
2.00541
2.00261
2.00093
2.00021
2
1.99997
1.99998
2
2
2
2
2
2
2
2
2
2
2
2
2
2
2
2
2
2
2
2
1.99999
1.99998
1.99997
2.00001
2.00026
2.00107
2.00293
2.00598
2.00949
2.0121
2.01296
2.0121
2.00949
2.00598
2.00293
2.00107
2.00026
2.00001
1.99997
1.99998
2
2
2
2
2
2
2
2
2
2
2
2
2
2
2
2
2
2
2
2
1.99999
1.99998
1.99997
2
2.00021
2.00093
2.00261
2.00541
2.00872
2.01124
2.0121
2.01124
2.00872
2.00541
2.00261
2.00093
2.00021
2
1.99997
1.99998
2
2
2
2
2
2
2
2
2
2
2
2
2
2
2
2
2
2
2
2
1.99999
1.99998
1.99997
1.99997
2.0001
2.00059
2.00181
2.00394
2.00658
2.00872
2.00949
2.00872
2.00658
2.00394
2.00181
2.00059
2.0001
1.99997
1.99997
1.99998
2
2
2
2
2
2
2
2
2
2
2
2
2
2
2
2
2
2
2
2
2
1.99999
1.99997
1.99996
2
2.00025
2.00094
2.00223
2.00394
2.00541
2.00598
2.00541
2.00394
2.00223
2.00094
2.00025
2
1.99996
1.99997
1.99998
2
2
2
2
2
2
2
2
2
2
2
2
2
2
2
2
2
2
2
2
2
1.99999
1.99998
1.99996
1.99996
2.00003
2.00032
2.00094
2.00181
2.00261
2.00293
2.00261
2.00181
2.00094
2.00032
2.00003
1.99996
1.99996
1.99998
1.99999
2
2
2
2
2
2
2
2
2
2
2
2
2
2
2
2
2
2
2
2
2
2
1.99999
1.99997
1.99995
1.99996
2.00003
2.00025
2.00059
2.00093
2.00107
2.00093
2.00059
2.00025
2.00003
1.99996
1.99995
1.99997
1.99999
1.99999
2
2
2
2
2
2
2
2
2
2
2
2
2
2
2
2
2
2
2
2
2
2
1.99999
1.99999
1.99997
1.99995
1.99996
2
2.0001
2.00021
2.00026
2.00021
2.0001
2
1.99996
1.99995
1.99997
1.99999
1.99999
2
2
2
2
2
2
2
2
2
2
2
2
2
2
2
2
2
2
2
2
2
2
2
2
1.99999
1.99999
1.99997
1.99996
1.99996
1.99997
2
2.00001
2
1.99997
1.99996
1.99996
1.99997
1.99999
1.99999
2
2
2
2
2
2
2
2
2
2
2
2
2
2
2
2
2
2
2
2
2
2
2
2
2
2
1.99999
1.99999
1.99998
1.99997
1.99997
1.99997
1.99997
1.99997
1.99997
1.99997
1.99998
1.99999
1.99999
2
2
2
2
2
2
2
2
2
2
2
2
2
2
2
2
2
2
2
2
2
2
2
2
2
2
2
2
1.99999
1.99999
1.99998
1.99998
1.99998
1.99998
1.99998
1.99998
1.99998
1.99999
1.99999
2
2
2
2
