# vtk DataFile Version 3.0
Brusselator Concentration Output
ASCII
DATASET STRUCTURED_POINTS
DIMENSIONS 40 40 1
ORIGIN 0.0 0.0 0.0
SPACING 0.005 0.005 1.0
POINT_DATA 1600
SCALARS C1 double 1
LOOKUP_TABLE default
1.00006
1.00007
1.00007
1.00006
1.00003
0.999977
0.999896
0.999805
0.999722
0.999663
0.999642
0.999663
0.999722
0.999805
0.999897
0.999977
1.00003
1.00006
1.00007
1.00006
1.00004
1.00002
1.00001
1
1
1
1
1
1
1
1
1
1
1
1
1
1
1
1
1
1.00007
1.00007
1.00005
1.00002
0.999947
0.999844
0.999716
0.999583
0.999466
0.999388
0.99936
0.999388
0.999466
0.999583
0.999716
0.999844
0.999946
1.00001
1.00005
1.00005
1.00004
1.00003
1.00001
1.00001
1
1
1
1
1
1
1
1
1
1
1
1
1
1
1
1
1.00007
1.00005
1
0.999907
0.999763
0.999574
0.999362
0.999156
0.998986
0.998876
0.998838
0.998876
0.998987
0.999156
0.999362
0.999574
0.999761
0.999903
0.999991
1.00003
1.00004
1.00003
1.00002
1.00001
1
1
1
1
1
1
1
1
1
1
1
1
1
1
1
1
1.00006
1.00002
0.999907
0.999728
0.999478
0.999177
0.998863
0.998579
0.998357
0.99822
0.998173
0.99822
0.998357
0.998579
0.998863
0.999176
0.999475
0.99972
0.999892
0.999989
1.00003
1.00004
1.00003
1.00002
1.00001
1
1
1
1
1
1
1
1
1
1
1
1
1
1
1
1.00003
0.999947
0.999763
0.999478
0.999107
0.998691
0.998288
0.997949
0.997706
0.997565
0.997519
0.997565
0.997706
0.997949
0.998287
0.99869
0.999102
0.999467
0.999742
0.999915
1
1.00003
1.00003
1.00002
1.00001
1
1
1
1
1
1
1
1
1
1
1
1
1
1
1
0.999977
0.999844
0.999574
0.999177
0.998691
0.998184
0.997733
0.997393
0.997181
0.997075
0.997045
0.997075
0.997181
0.997393
0.997732
0.998181
0.998684
0.999162
0.999549
0.999811
0.999958
1.00002
1.00003
1.00003
1.00001
1.00001
1
1
1
1
1
1
1
1
1
1
1
1
1
1
0.999896
0.999716
0.999362
0.998863
0.998288
0.997733
0.997293
0.997018
0.996897
0.996868
0.996868
0.996868
0.996897
0.997018
0.997291
0.997729
0.998279
0.998845
0.999334
0.999687
0.999898
0.999998
1.00003
1.00003
1.00002
1.00001
1
1
1
1
1
1
1
1
1
1
1
1
1
1
0.999805
0.999583
0.999156
0.998579
0.997949
0.997393
0.997018
0.996862
0.996875
0.996952
0.996992
0.996952
0.996875
0.996861
0.997017
0.997389
0.997938
0.998558
0.999127
0.99956
0.999834
0.999972
1.00002
1.00003
1.00002
1.00001
1
1
1
1
1
1
1
1
1
1
1
1
1
1
0.999722
0.999466
0.998986
0.998357
0.997706
0.997181
0.996897
0.996875
0.997031
0.997217
0.997297
0.997217
0.997031
0.996874
0.996895
0.997176
0.997694
0.998336
0.998958
0.999452
0.999775
0.999947
1.00001
1.00003
1.00002
1.00001
1.00001
1
1
1
1
1
1
1
1
1
1
1
1
1
0.999663
0.999388
0.998876
0.99822
0.997565
0.997075
0.996868
0.996952
0.997217
0.997484
0.997595
0.997484
0.997217
0.996952
0.996866
0.997069
0.997552
0.998197
0.998848
0.999379
0.999735
0.999928
1.00001
1.00003
1.00002
1.00001
1.00001
1
1
1
1
1
1
1
1
1
1
1
1
1
0.999642
0.99936
0.998838
0.998173
0.997519
0.997045
0.996868
0.996992
0.997297
0.997595
0.997716
0.997595
0.997297
0.996991
0.996866
0.997039
0.997506
0.998151
0.99881
0.999353
0.99972
0.999922
1.00001
1.00003
1.00002
1.00001
1.00001
1
1
1
1
1
1
1
1
1
1
1
1
1
0.999663
0.999388
0.998876
0.99822
0.997565
0.997075
0.996868
0.996952
0.997217
0.997484
0.997595
0.997484
0.997217
0.996952
0.996866
0.997069
0.997552
0.998197
0.998848
0.999379
0.999735
0.999928
1.00001
1.00003
1.00002
1.00001
1.00001
1
1
1
1
1
1
1
1
1
1
1
1
1
0.999722
0.999466
0.998987
0.998357
0.997706
0.997181
0.996897
0.996875
0.997031
0.997217
0.997297
0.997217
0.997031
0.996874
0.996895
0.997176
0.997694
0.998336
0.998958
0.999452
0.999775
0.999947
1.00001
1.00003
1.00002
1.00001
1.00001
1
1
1
1
1
1
1
1
1
1
1
1
1
0.999805
0.999583
0.999156
0.998579
0.997949
0.997393
0.997018
0.996861
0.996874
0.996952
0.996991
0.996952
0.996874
0.996861
0.997017
0.997389
0.997938
0.998558
0.999127
0.999561
0.999834
0.999972
1.00002
1.00003
1.00002
1.00001
1
1
1
0.999999
0.999999
0.999999
0.999999
1
1
1
1
1
1
1
0.999897
0.999716
0.999362
0.998863
0.998287
0.997732
0.997291
0.997017
0.996895
0.996866
0.996866
0.996866
0.996895
0.997017
0.99729
0.997728
0.998278
0.998845
0.999334
0.999687
0.999899
0.999998
1.00003
1.00003
1.00002
1.00001
1
0.999999
0.999998
0.999998
0.999998
0.999998
0.999998
0.999998
0.999999
0.999999
1
1
1
1
0.999977
0.999844
0.999574
0.999176
0.99869
0.998181
0.997729
0.997389
0.997176
0.997069
0.997039
0.997069
0.997176
0.997389
0.997728
0.998179
0.998683
0.999162
0.999549
0.999812
0.999958
1.00002
1.00003
1.00002
1.00001
1
0.999999
0.999996
0.999995
0.999994
0.999994
0.999994
0.999995
0.999996
0.999996
0.999997
0.999998
0.999999
1
1
1.00003
0.999946
0.999761
0.999475
0.999102
0.998684
0.998279
0.997938
0.997694
0.997552
0.997506
0.997552
0.997694
0.997938
0.998278
0.998683
0.999097
0.999464
0.99974
0.999915
1
1.00003
1.00003
1.00002
1.00001
0.999999
0.999994
0.999991
0.99999
0.999989
0.999989
0.999989
0.99999
0.999991
0.999992
0.999994
0.999996
0.999997
0.999998
0.999999
1.00006
1.00001
0.999903
0.99972
0.999467
0.999162
0.998845
0.998558
0.998336
0.998197
0.998151
0.998197
0.998336
0.998558
0.998845
0.999162
0.999464
0.999713
0.999887
0.999986
1.00003
1.00003
1.00002
1.00001
0.999998
0.999991
0.999987
0.999985
0.999984
0.999984
0.999984
0.999984
0.999984
0.999985
0.999986
0.999988
0.999991
0.999993
0.999995
0.999997
1.00007
1.00005
0.999991
0.999892
0.999742
0.999549
0.999334
0.999127
0.998958
0.998848
0.99881
0.998848
0.998958
0.999127
0.999334
0.999549
0.99974
0.999887
0.999979
1.00002
1.00003
1.00003
1.00001
0.999998
0.999989
0.999984
0.999982
0.999982
0.999984
0.999986
0.999986
0.999986
0.999984
0.999983
0.999982
0.999982
0.999984
0.999987
0.99999
0.999992
1.00006
1.00005
1.00003
0.999989
0.999915
0.999811
0.999687
0.99956
0.999452
0.999379
0.999353
0.999379
0.999452
0.999561
0.999687
0.999812
0.999915
0.999986
1.00002
1.00003
1.00003
1.00001
0.999999
0.999988
0.999982
0.999982
0.999987
0.999995
1
1.00001
1.00001
1.00001
1
0.999995
0.999987
0.999982
0.999979
0.99998
0.999982
0.999984
1.00004
1.00004
1.00004
1.00003
1
0.999958
0.999898
0.999834
0.999775
0.999735
0.99972
0.999735
0.999775
0.999834
0.999899
0.999958
1
1.00003
1.00003
1.00003
1.00001
0.999999
0.999987
0.999982
0.999986
0.999998
1.00002
1.00004
1.00006
1.00008
1.00008
1.00008
1.00006
1.00004
1.00002
0.999998
0.999984
0.999976
0.999974
0.999973
1.00002
1.00003
1.00003
1.00004
1.00003
1.00002
0.999998
0.999972
0.999947
0.999928
0.999922
0.999928
0.999947
0.999972
0.999998
1.00002
1.00003
1.00003
1.00003
1.00001
0.999999
0.999987
0.999983
0.99999
1.00001
1.00005
1.0001
1.00015
1.00019
1.00022
1.00023
1.00022
1.00019
1.00015
1.0001
1.00005
1.00001
0.999983
0.999969
0.999963
1.00001
1.00001
1.00002
1.00003
1.00003
1.00003
1.00003
1.00002
1.00001
1.00001
1.00001
1.00001
1.00001
1.00002
1.00003
1.00003
1.00003
1.00002
1.00001
0.999999
0.999987
0.999983
0.999992
1.00002
1.00007
1.00015
1.00024
1.00033
1.00041
1.00046
1.00048
1.00046
1.00041
1.00033
1.00024
1.00015
1.00007
1.00001
0.999976
0.999959
1
1.00001
1.00001
1.00002
1.00002
1.00003
1.00003
1.00003
1.00003
1.00003
1.00003
1.00003
1.00003
1.00003
1.00003
1.00002
1.00002
1.00001
0.999998
0.999988
0.999982
0.99999
1.00002
1.00008
1.00018
1.00031
1.00046
1.00059
1.0007
1.00078
1.0008
1.00078
1.0007
1.00059
1.00045
1.00031
1.00018
1.00007
1
0.999968
1
1
1
1.00001
1.00001
1.00001
1.00002
1.00002
1.00002
1.00002
1.00002
1.00002
1.00002
1.00002
1.00002
1.00001
1.00001
0.999998
0.999989
0.999982
0.999986
1.00001
1.00007
1.00018
1.00034
1.00053
1.00073
1.00091
1.00105
1.00114
1.00117
1.00114
1.00105
1.00091
1.00073
1.00053
1.00033
1.00017
1.00005
0.999996
1
1
1
1
1
1.00001
1.00001
1.00001
1.00001
1.00001
1.00001
1.00001
1.00001
1.00001
1.00001
1
0.999999
0.999991
0.999984
0.999982
0.999998
1.00005
1.00015
1.00031
1.00053
1.00078
1.00102
1.00123
1.00138
1.00147
1.0015
1.00147
1.00138
1.00123
1.00102
1.00077
1.00052
1.00029
1.00013
1.00005
1
1
1
1
1
1
1
1
1.00001
1.00001
1.00001
1.00001
1.00001
1
1
0.999999
0.999994
0.999987
0.999982
0.999987
1.00002
1.0001
1.00024
1.00046
1.00073
1.00102
1.0013
1.00151
1.00164
1.00171
1.00173
1.00171
1.00164
1.0015
1.00129
1.00102
1.00072
1.00044
1.00023
1.00011
1
1
1
1
1
1
1
1
1
1
1
1
1
1
0.999999
0.999996
0.999991
0.999985
0.999982
0.999995
1.00004
1.00015
1.00033
1.00059
1.00091
1.00123
1.00151
1.00169
1.00179
1.00183
1.00184
1.00183
1.00179
1.00169
1.0015
1.00122
1.00089
1.00058
1.00032
1.00019
1
1
1
1
1
1
1
1
1
1
1
1
1
1
0.999998
0.999995
0.99999
0.999984
0.999984
1
1.00006
1.00019
1.00041
1.0007
1.00105
1.00138
1.00164
1.00179
1.00185
1.00185
1.00185
1.00185
1.00185
1.00179
1.00164
1.00137
1.00103
1.00069
1.00041
1.00026
1
1
1
1
1
1
1
1
1
1
1
1
1
0.999999
0.999998
0.999994
0.999989
0.999984
0.999986
1.00001
1.00008
1.00022
1.00046
1.00078
1.00114
1.00147
1.00171
1.00183
1.00185
1.00183
1.00181
1.00183
1.00185
1.00183
1.00171
1.00146
1.00112
1.00076
1.00047
1.0003
1
1
1
1
1
1
1
1
1
1
1
1
1
0.999999
0.999998
0.999994
0.999989
0.999984
0.999986
1.00001
1.00008
1.00023
1.00048
1.0008
1.00117
1.0015
1.00173
1.00184
1.00185
1.00181
1.00179
1.00181
1.00185
1.00184
1.00173
1.00149
1.00115
1.00079
1.00049
1.00032
1
1
1
1
1
1
1
1
1
1
1
1
1
0.999999
0.999998
0.999994
0.999989
0.999984
0.999986
1.00001
1.00008
1.00022
1.00046
1.00078
1.00114
1.00147
1.00171
1.00183
1.00185
1.00183
1.00181
1.00183
1.00185
1.00183
1.00171
1.00146
1.00112
1.00076
1.00047
1.0003
1
1
1
1
1
1
1
1
1
1
1
1
1
0.999999
0.999998
0.999995
0.99999
0.999984
0.999984
1
1.00006
1.00019
1.00041
1.0007
1.00105
1.00138
1.00164
1.00179
1.00185
1.00185
1.00185
1.00185
1.00185
1.00179
1.00164
1.00137
1.00103
1.00069
1.00041
1.00026
1
1
1
1
1
1
1
1
1
1
1
1
1
1
0.999998
0.999996
0.999991
0.999985
0.999983
0.999995
1.00004
1.00015
1.00033
1.00059
1.00091
1.00123
1.0015
1.00169
1.00179
1.00183
1.00184
1.00183
1.00179
1.00169
1.0015
1.00122
1.00089
1.00057
1.00032
1.00019
1
1
1
1
1
1
1
1
1
1
1
1
1
1
0.999999
0.999996
0.999992
0.999986
0.999982
0.999987
1.00002
1.0001
1.00024
1.00045
1.00073
1.00102
1.00129
1.0015
1.00164
1.00171
1.00173
1.00171
1.00164
1.0015
1.00129
1.00101
1.00071
1.00044
1.00023
1.00011
1
1
1
1
1
1
1
1
1
1
1
1
1
1
0.999999
0.999997
0.999994
0.999988
0.999982
0.999982
0.999998
1.00005
1.00015
1.00031
1.00053
1.00077
1.00102
1.00122
1.00137
1.00146
1.00149
1.00146
1.00137
1.00122
1.00101
1.00077
1.00051
1.00029
1.00013
1.00005
1
1
1
1
1
1
1
1
1
1
1
1
1
1
1
0.999998
0.999996
0.999991
0.999984
0.999979
0.999984
1.00001
1.00007
1.00018
1.00033
1.00052
1.00072
1.00089
1.00103
1.00112
1.00115
1.00112
1.00103
1.00089
1.00071
1.00051
1.00032
1.00016
1.00005
0.999993
1
1
1
1
1
1
1
1
1
1
1
1
1
1
1
0.999999
0.999997
0.999993
0.999987
0.99998
0.999976
0.999983
1.00001
1.00007
1.00017
1.00029
1.00044
1.00058
1.00069
1.00076
1.00079
1.00076
1.00069
1.00057
1.00044
1.00029
1.00016
1.00006
0.999992
0.999959
1
1
1
1
1
1
1
1
1
1
1
1
1
1
1
1
0.999998
0.999995
0.99999
0.999982
0.999974
0.999969
0.999976
1
1.00005
1.00013
1.00023
1.00032
1.00041
1.00047
1.00049
1.00047
1.00041
1.00032
1.00023
1.00013
1.00005
0.999992
0.999958
0.999943
1
1
1
1
1
1
1
1
1
1
1
1
1
1
1
1
0.999999
0.999997
0.999992
0.999984
0.999973
0.999963
0.999959
0.999968
0.999996
1.00005
1.00011
1.00019
1.00026
1.0003
1.00032
1.0003
1.00026
1.00019
1.00011
1.00005
0.999993
0.999959
0.999943
0.999936
SCALARS C2 double 1
LOOKUP_TABLE default
1.99994
1.99991
1.99986
1.99981
1.99976
1.99974
1.99974
1.99976
1.9998
1.99984
1.99985
1.99984
1.9998
1.99976
1.99974
1.99974
1.99976
1.99981
1.99986
1.99992
1.99995
1.99998
1.99999
2
2
2
2
2
2
2
2
2
2
2
2
2
2
2
2
2
1.99991
1.99989
1.99985
1.99981
1.9998
1.99982
1.99989
1.99998
2.00008
2.00016
2.00018
2.00016
2.00008
1.99998
1.99989
1.99982
1.9998
1.99981
1.99985
1.9999
1.99994
1.99997
1.99999
2
2
2
2
2
2
2
2
2
2
2
2
2
2
2
2
2
1.99986
1.99985
1.99983
1.99984
1.9999
2.00004
2.00024
2.00047
2.00069
2.00085
2.0009
2.00085
2.00069
2.00047
2.00024
2.00004
1.9999
1.99984
1.99984
1.99987
1.99991
1.99995
1.99998
1.99999
2
2
2
2
2
2
2
2
2
2
2
2
2
2
2
2
1.99981
1.99981
1.99984
1.99994
2.00014
2.00046
2.00087
2.0013
2.00169
2.00196
2.00205
2.00196
2.00169
2.0013
2.00086
2.00046
2.00014
1.99994
1.99986
1.99985
1.99988
1.99993
1.99996
1.99998
1.99999
2
2
2
2
2
2
2
2
2
2
2
2
2
2
2
1.99976
1.9998
1.9999
2.00014
2.00054
2.00111
2.00178
2.00247
2.00306
2.00346
2.00359
2.00346
2.00306
2.00247
2.00178
2.00111
2.00054
2.00015
1.99993
1.99985
1.99986
1.9999
1.99994
1.99997
1.99999
2
2
2
2
2
2
2
2
2
2
2
2
2
2
2
1.99974
1.99982
2.00004
2.00046
2.00111
2.00197
2.00294
2.00389
2.00468
2.00519
2.00537
2.00519
2.00468
2.00389
2.00294
2.00197
2.00111
2.00047
2.00008
1.9999
1.99986
1.99988
1.99992
1.99996
1.99998
1.99999
2
2
2
2
2
2
2
2
2
2
2
2
2
2
1.99974
1.99989
2.00024
2.00087
2.00178
2.00294
2.0042
2.00538
2.00632
2.00692
2.00712
2.00692
2.00632
2.00538
2.0042
2.00295
2.00179
2.00089
2.00029
1.99998
1.99987
1.99987
1.99991
1.99995
1.99998
1.99999
2
2
2
2
2
2
2
2
2
2
2
2
2
2
1.99976
1.99998
2.00047
2.0013
2.00247
2.00389
2.00538
2.00673
2.00776
2.0084
2.00861
2.0084
2.00776
2.00673
2.00538
2.0039
2.00248
2.00133
2.00053
2.00009
1.9999
1.99987
1.9999
1.99994
1.99997
1.99999
2
2
2
2
2
2
2
2
2
2
2
2
2
2
1.9998
2.00008
2.00069
2.00169
2.00306
2.00468
2.00632
2.00776
2.00883
2.00947
2.00968
2.00947
2.00883
2.00776
2.00632
2.00468
2.00308
2.00172
2.00076
2.00019
1.99993
1.99987
1.99989
1.99993
1.99997
1.99999
2
2
2
2
2
2
2
2
2
2
2
2
2
2
1.99984
2.00016
2.00085
2.00196
2.00346
2.00519
2.00692
2.0084
2.00947
2.0101
2.0103
2.0101
2.00947
2.0084
2.00692
2.0052
2.00347
2.00199
2.00092
2.00027
1.99996
1.99987
1.99989
1.99993
1.99996
1.99999
2
2
2
2
2
2
2
2
2
2
2
2
2
2
1.99985
2.00018
2.0009
2.00205
2.00359
2.00537
2.00712
2.00861
2.00968
2.0103
2.0105
2.0103
2.00968
2.00861
2.00712
2.00537
2.00361
2.00209
2.00097
2.0003
1.99997
1.99988
1.99989
1.99993
1.99996
1.99998
2
2
2
2
2
2
2
2
2
2
2
2
2
2
1.99984
2.00016
2.00085
2.00196
2.00346
2.00519
2.00692
2.0084
2.00947
2.0101
2.0103
2.0101
2.00947
2.0084
2.00692
2.0052
2.00347
2.00199
2.00092
2.00027
1.99996
1.99987
1.99989
1.99993
1.99996
1.99999
2
2
2
2
2
2
2
2
2
2
2
2
2
2
1.9998
2.00008
2.00069
2.00169
2.00306
2.00468
2.00632
2.00776
2.00883
2.00947
2.00968
2.00947
2.00883
2.00776
2.00632
2.00468
2.00308
2.00172
2.00076
2.00019
1.99993
1.99987
1.99989
1.99993
1.99997
1.99999
2
2
2
2
2
2
2
2
2
2
2
2
2
2
1.99976
1.99998
2.00047
2.0013
2.00247
2.00389
2.00538
2.00673
2.00776
2.0084
2.00861
2.0084
2.00776
2.00672
2.00538
2.0039
2.00248
2.00133
2.00053
2.00008
1.9999
1.99987
1.9999
1.99994
1.99997
1.99999
2
2
2
2
2
2
2
2
2
2
2
2
2
2
1.99974
1.99989
2.00024
2.00086
2.00178
2.00294
2.0042
2.00538
2.00632
2.00692
2.00712
2.00692
2.00632
2.00538
2.0042
2.00294
2.00179
2.00089
2.00029
1.99998
1.99987
1.99987
1.99991
1.99995
1.99998
1.99999
2
2
2
2
2
2
2
2
2
2
2
2
2
2
1.99974
1.99982
2.00004
2.00046
2.00111
2.00197
2.00295
2.0039
2.00468
2.0052
2.00537
2.0052
2.00468
2.0039
2.00294
2.00197
2.00111
2.00047
2.00008
1.9999
1.99985
1.99988
1.99992
1.99996
1.99998
2
2
2
2
2.00001
2.00001
2.00001
2
2
2
2
2
2
2
2
1.99976
1.9998
1.9999
2.00014
2.00054
2.00111
2.00179
2.00248
2.00308
2.00347
2.00361
2.00347
2.00308
2.00248
2.00179
2.00111
2.00054
2.00015
1.99993
1.99985
1.99986
1.9999
1.99994
1.99997
1.99999
2
2.00001
2.00001
2.00001
2.00001
2.00001
2.00001
2.00001
2.00001
2.00001
2.00001
2
2
2
2
1.99981
1.99981
1.99984
1.99994
2.00015
2.00047
2.00089
2.00133
2.00172
2.00199
2.00209
2.00199
2.00172
2.00133
2.00089
2.00047
2.00015
1.99995
1.99986
1.99985
1.99988
1.99993
1.99996
1.99999
2
2.00001
2.00002
2.00003
2.00003
2.00003
2.00003
2.00003
2.00003
2.00003
2.00002
2.00002
2.00001
2.00001
2
2
1.99986
1.99985
1.99984
1.99986
1.99993
2.00008
2.00029
2.00053
2.00076
2.00092
2.00097
2.00092
2.00076
2.00053
2.00029
2.00008
1.99993
1.99986
1.99985
1.99987
1.99991
1.99995
1.99998
2.00001
2.00002
2.00003
2.00004
2.00005
2.00005
2.00006
2.00006
2.00006
2.00005
2.00005
2.00004
2.00003
2.00002
2.00001
2.00001
2.00001
1.99992
1.9999
1.99987
1.99985
1.99985
1.9999
1.99998
2.00009
2.00019
2.00027
2.0003
2.00027
2.00019
2.00008
1.99998
1.9999
1.99985
1.99985
1.99987
1.99991
1.99995
1.99998
2.00001
2.00003
2.00004
2.00006
2.00007
2.00007
2.00008
2.00008
2.00008
2.00008
2.00008
2.00007
2.00007
2.00006
2.00004
2.00003
2.00002
2.00002
1.99995
1.99994
1.99991
1.99988
1.99986
1.99986
1.99987
1.9999
1.99993
1.99996
1.99997
1.99996
1.99993
1.9999
1.99987
1.99985
1.99986
1.99988
1.99991
1.99995
1.99998
2.00001
2.00003
2.00005
2.00007
2.00008
2.00008
2.00008
2.00007
2.00007
2.00006
2.00007
2.00007
2.00008
2.00008
2.00008
2.00007
2.00006
2.00004
2.00003
1.99998
1.99997
1.99995
1.99993
1.9999
1.99988
1.99987
1.99987
1.99987
1.99987
1.99988
1.99987
1.99987
1.99987
1.99987
1.99988
1.9999
1.99993
1.99995
1.99998
2.00001
2.00003
2.00006
2.00008
2.00009
2.00009
2.00007
2.00004
2
1.99998
1.99997
1.99998
2
2.00004
2.00007
2.00009
2.00009
2.00008
2.00007
2.00006
1.99999
1.99999
1.99998
1.99996
1.99994
1.99992
1.99991
1.9999
1.99989
1.99989
1.99989
1.99989
1.99989
1.9999
1.99991
1.99992
1.99994
1.99996
1.99998
2.00001
2.00003
2.00006
2.00008
2.00009
2.00008
2.00004
1.99997
1.99989
1.99981
1.99975
1.99973
1.99975
1.99981
1.99989
1.99997
2.00004
2.00008
2.0001
2.0001
2.0001
2
2
1.99999
1.99998
1.99997
1.99996
1.99995
1.99994
1.99993
1.99993
1.99993
1.99993
1.99993
1.99994
1.99995
1.99996
1.99997
1.99999
2.00001
2.00003
2.00005
2.00008
2.00009
2.00008
2.00002
1.99992
1.99976
1.99959
1.99943
1.99932
1.99928
1.99932
1.99943
1.99959
1.99976
1.99992
2.00003
2.00009
2.00012
2.00013
2
2
2
1.99999
1.99999
1.99998
1.99998
1.99997
1.99997
1.99996
1.99996
1.99996
1.99997
1.99997
1.99998
1.99998
1.99999
2
2.00002
2.00004
2.00007
2.00009
2.00008
2.00002
1.99989
1.99968
1.99941
1.99912
1.99886
1.99869
1.99863
1.99869
1.99886
1.99912
1.99941
1.99968
1.9999
2.00005
2.00013
2.00016
2
2
2
2
2
1.99999
1.99999
1.99999
1.99999
1.99999
1.99998
1.99999
1.99999
1.99999
1.99999
2
2
2.00001
2.00003
2.00006
2.00008
2.00009
2.00004
1.99992
1.99968
1.99934
1.99893
1.9985
1.99814
1.99789
1.99781
1.99789
1.99814
1.9985
1.99893
1.99934
1.9997
1.99995
2.0001
2.00017
2
2
2
2
2
2
2
2
2
2
2
2
2
2
2
2
2.00001
2.00002
2.00004
2.00007
2.00008
2.00007
1.99997
1.99976
1.99941
1.99893
1.99836
1.99781
1.99734
1.99704
1.99693
1.99704
1.99734
1.99781
1.99837
1.99893
1.99943
1.9998
2.00004
2.00015
2
2
2
2
2
2
2
2
2
2
2
2
2
2
2
2
2.00001
2.00003
2.00005
2.00007
2.00008
2.00004
1.99989
1.99959
1.99912
1.9985
1.99781
1.99714
1.9966
1.99625
1.99613
1.99625
1.9966
1.99714
1.99781
1.99851
1.99915
1.99964
1.99996
2.00012
2
2
2
2
2
2
2
2
2
2
2
2
2
2
2
2
2.00001
2.00003
2.00005
2.00008
2.00007
2
1.99981
1.99943
1.99886
1.99814
1.99734
1.9966
1.99601
1.99563
1.99551
1.99563
1.99601
1.9966
1.99735
1.99815
1.99889
1.99949
1.99988
2.00008
2
2
2
2
2
2
2
2
2
2
2
2
2
2
2
2.00001
2.00001
2.00003
2.00006
2.00008
2.00007
1.99998
1.99975
1.99932
1.99869
1.99789
1.99704
1.99625
1.99563
1.99525
1.99512
1.99525
1.99563
1.99625
1.99704
1.99791
1.99872
1.99938
1.99982
2.00004
2
2
2
2
2
2
2
2
2
2
2
2
2
2
2
2.00001
2.00001
2.00003
2.00006
2.00008
2.00006
1.99997
1.99973
1.99928
1.99863
1.99781
1.99693
1.99613
1.99551
1.99512
1.99499
1.99512
1.99551
1.99613
1.99694
1.99782
1.99866
1.99934
1.9998
2.00003
2
2
2
2
2
2
2
2
2
2
2
2
2
2
2
2.00001
2.00001
2.00003
2.00006
2.00008
2.00007
1.99998
1.99975
1.99932
1.99869
1.99789
1.99704
1.99625
1.99563
1.99525
1.99512
1.99525
1.99563
1.99625
1.99704
1.99791
1.99872
1.99938
1.99982
2.00004
2
2
2
2
2
2
2
2
2
2
2
2
2
2
2
2
2.00001
2.00003
2.00005
2.00008
2.00007
2
1.99981
1.99943
1.99886
1.99814
1.99734
1.9966
1.99601
1.99563
1.99551
1.99563
1.99601
1.9966
1.99735
1.99815
1.99889
1.99949
1.99988
2.00008
2
2
2
2
2
2
2
2
2
2
2
2
2
2
2
2
2.00001
2.00003
2.00005
2.00007
2.00008
2.00004
1.99989
1.99959
1.99912
1.9985
1.99781
1.99714
1.9966
1.99625
1.99613
1.99625
1.9966
1.99714
1.99781
1.99851
1.99915
1.99964
1.99996
2.00012
2
2
2
2
2
2
2
2
2
2
2
2
2
2
2
2
2.00001
2.00002
2.00004
2.00007
2.00008
2.00007
1.99997
1.99976
1.99941
1.99893
1.99837
1.99781
1.99735
1.99704
1.99694
1.99704
1.99735
1.99781
1.99837
1.99894
1.99943
1.9998
2.00004
2.00015
2
2
2
2
2
2
2
2
2
2
2
2
2
2
2
2
2.00001
2.00002
2.00003
2.00006
2.00008
2.00009
2.00004
1.99992
1.99968
1.99934
1.99893
1.99851
1.99815
1.99791
1.99782
1.99791
1.99815
1.99851
1.99894
1.99935
1.9997
1.99995
2.0001
2.00017
2
2
2
2
2
2
2
2
2
2
2
2
2
2
2
2
2
2.00001
2.00002
2.00004
2.00007
2.00009
2.00008
2.00003
1.9999
1.9997
1.99943
1.99915
1.99889
1.99872
1.99866
1.99872
1.99889
1.99915
1.99943
1.9997
1.99991
2.00005
2.00013
2.00016
2
2
2
2
2
2
2
2
2
2
2
2
2
2
2
2
2
2.00001
2.00001
2.00003
2.00006
2.00008
2.0001
2.00009
2.00005
1.99995
1.9998
1.99964
1.99949
1.99938
1.99934
1.99938
1.99949
1.99964
1.9998
1.99995
2.00005
2.00011
2.00013
2.00014
2
2
2
2
2
2
2
2
2
2
2
2
2
2
2
2
2
2
2.00001
2.00002
2.00004
2.00007
2.0001
2.00012
2.00013
2.0001
2.00004
1.99996
1.99988
1.99982
1.9998
1.99982
1.99988
1.99996
2.00004
2.0001
2.00013
2.00013
2.00012
2.00011
2
2
2
2
2
2
2
2
2
2
2
2
2
2
2
2
2
2
2.00001
2.00002
2.00003
2.00006
2.0001
2.00013
2.00016
2.00017
2.00015
2.00012
2.00008
2.00004
2.00003
2.00004
2.00008
2.00012
2.00015
2.00017
2.00016
2.00014
2.00011
2.0001
