# vtk DataFile Version 3.0
Brusselator Concentration Output
ASCII
DATASET STRUCTURED_POINTS
DIMENSIONS 40 40 1
ORIGIN 0.0 0.0 0.0
SPACING 0.005 0.005 1.0
POINT_DATA 1600
SCALARS C1 double 1
LOOKUP_TABLE default
1
1
1
0.999999
0.999998
0.999996
0.999993
0.999991
0.99999
0.99999
0.99999
0.99999
0.99999
0.999991
0.999993
0.999996
0.999998
0.999999
1
1
1
1
1
1
1
1
1
1
1
1
1
1
1
1
1
1
1
1
1
1
1
1
0.999999
0.999998
0.999995
0.999992
0.999989
0.99999
0.999995
1
1
1
0.999995
0.99999
0.999989
0.999992
0.999995
0.999998
0.999999
1
1
1
1
1
1
1
1
1
1
1
1
1
1
1
1
1
1
1
1
1
1
0.999999
0.999997
0.999994
0.99999
0.999987
0.999993
1.00001
1.00004
1.00008
1.00009
1.00008
1.00004
1.00001
0.999993
0.999987
0.99999
0.999994
0.999997
0.999999
1
1
1
1
1
1
1
1
1
1
1
1
1
1
1
1
1
1
1
1
0.999999
0.999998
0.999994
0.999989
0.999986
0.999997
1.00004
1.00013
1.00025
1.00035
1.00039
1.00035
1.00025
1.00013
1.00004
0.999997
0.999986
0.999989
0.999994
0.999998
0.999999
1
1
1
1
1
1
1
1
1
1
1
1
1
1
1
1
1
1
1
0.999998
0.999995
0.99999
0.999986
0.999999
1.00006
1.00023
1.0005
1.00081
1.00105
1.00114
1.00105
1.00081
1.0005
1.00023
1.00006
0.999999
0.999986
0.99999
0.999995
0.999998
0.999999
1
1
1
1
1
1
1
1
1
1
1
1
1
1
1
1
1
1
0.999996
0.999992
0.999987
0.999997
1.00006
1.00027
1.00069
1.0013
1.00192
1.00233
1.00246
1.00233
1.00192
1.0013
1.00069
1.00027
1.00006
0.999997
0.999987
0.999992
0.999997
0.999999
1
1
1
1
1
1
1
1
1
1
1
1
1
1
1
1
1
1
0.999993
0.999989
0.999993
1.00004
1.00023
1.00069
1.00151
1.00255
1.00339
1.00376
1.00382
1.00376
1.00339
1.00255
1.00151
1.00069
1.00023
1.00004
0.999993
0.99999
0.999995
0.999998
0.999999
1
1
1
1
1
1
1
1
1
1
1
1
1
1
1
1
1
0.999991
0.99999
1.00001
1.00013
1.0005
1.0013
1.00255
1.0038
1.00434
1.00403
1.00372
1.00403
1.00434
1.0038
1.00255
1.0013
1.0005
1.00013
1.00001
0.999991
0.999993
0.999997
0.999999
1
1
1
1
1
1
1
1
1
1
1
1
1
1
1
1
1
0.99999
0.999995
1.00004
1.00025
1.00081
1.00192
1.00339
1.00434
1.00373
1.00187
1.00082
1.00187
1.00373
1.00434
1.00339
1.00192
1.00081
1.00025
1.00005
0.999996
0.999993
0.999997
0.999999
1
1
1
1
1
1
1
1
1
1
1
1
1
1
1
1
1
0.99999
1
1.00008
1.00035
1.00105
1.00233
1.00376
1.00403
1.00187
0.998222
0.996368
0.998222
1.00187
1.00403
1.00376
1.00233
1.00105
1.00035
1.00008
1
0.999993
0.999996
0.999999
1
1
1
1
1
1
1
1
1
1
1
1
1
1
1
1
1
0.99999
1
1.00009
1.00039
1.00114
1.00246
1.00382
1.00372
1.00082
0.996368
0.99416
0.996368
1.00082
1.00372
1.00382
1.00246
1.00114
1.00039
1.00009
1.00001
0.999994
0.999996
0.999999
1
1
1
1
1
1
1
1
1
1
1
1
1
1
1
1
1
0.99999
1
1.00008
1.00035
1.00105
1.00233
1.00376
1.00403
1.00187
0.998222
0.996368
0.998222
1.00187
1.00403
1.00376
1.00233
1.00105
1.00035
1.00008
1
0.999993
0.999996
0.999999
1
1
1
1
1
1
1
1
1
1
1
1
1
1
1
1
1
0.99999
0.999995
1.00004
1.00025
1.00081
1.00192
1.00339
1.00434
1.00373
1.00187
1.00082
1.00187
1.00373
1.00434
1.00339
1.00192
1.00081
1.00025
1.00005
0.999996
0.999993
0.999997
0.999999
1
1
1
1
1
1
1
1
1
1
1
1
1
1
1
1
1
0.999991
0.99999
1.00001
1.00013
1.0005
1.0013
1.00255
1.0038
1.00434
1.00403
1.00372
1.00403
1.00434
1.0038
1.00255
1.0013
1.0005
1.00013
1.00001
0.999991
0.999993
0.999997
0.999999
1
1
1
1
1
1
1
1
1
1
1
1
1
1
1
1
1
0.999993
0.999989
0.999993
1.00004
1.00023
1.00069
1.00151
1.00255
1.00339
1.00376
1.00382
1.00376
1.00339
1.00255
1.00151
1.00069
1.00023
1.00004
0.999993
0.99999
0.999995
0.999998
0.999999
1
1
1
1
1
1
1
1
1
1
1
1
1
1
1
1
1
0.999996
0.999992
0.999987
0.999997
1.00006
1.00027
1.00069
1.0013
1.00192
1.00233
1.00246
1.00233
1.00192
1.0013
1.00069
1.00027
1.00006
0.999997
0.999987
0.999992
0.999997
0.999999
1
1
1
1
1
1
1
1
1
1
1
1
1
1
1
1
1
1
0.999998
0.999995
0.99999
0.999986
0.999999
1.00006
1.00023
1.0005
1.00081
1.00105
1.00114
1.00105
1.00081
1.0005
1.00023
1.00006
0.999999
0.999986
0.99999
0.999995
0.999998
0.999999
1
1
1
1
1
1
1
1
1
1
1
1
1
1
1
1
1
1
0.999999
0.999998
0.999994
0.999989
0.999986
0.999997
1.00004
1.00013
1.00025
1.00035
1.00039
1.00035
1.00025
1.00013
1.00004
0.999997
0.999986
0.999989
0.999994
0.999998
0.999999
1
1
1
1
1
1
1
1
1
1
1
1
1
1
1
1
1
1
1
1
0.999999
0.999997
0.999994
0.99999
0.999987
0.999993
1.00001
1.00005
1.00008
1.00009
1.00008
1.00005
1.00001
0.999993
0.999987
0.99999
0.999994
0.999997
0.999999
1
1
1
1
1
1
1
1
1
1
1
1
1
1
1
1
1
1
1
1
1
1
0.999999
0.999998
0.999995
0.999992
0.99999
0.999991
0.999996
1
1.00001
1
0.999996
0.999991
0.99999
0.999992
0.999995
0.999998
0.999999
1
1
1
1
1
1
1
1
1
1
1
1
1
1
1
1
1
1
1
1
1
1
1
1
0.999999
0.999998
0.999997
0.999995
0.999993
0.999993
0.999993
0.999994
0.999993
0.999993
0.999993
0.999995
0.999997
0.999998
0.999999
1
1
1
1
1
1
1
1
1
1
1
1
1
1
1
1
1
1
1
1
1
1
1
1
1
1
0.999999
0.999999
0.999998
0.999997
0.999997
0.999996
0.999996
0.999996
0.999997
0.999997
0.999998
0.999999
0.999999
1
1
1
1
1
1
1
1
1
1
1.00001
1
1
1
1
1
1.00001
1
1
1
1
1
1
1
1
1
1
1
1
0.999999
0.999999
0.999999
0.999999
0.999999
0.999999
0.999999
0.999999
0.999999
1
1
1
1
1
1
1
1
1
1
1.00001
1.00001
1
0.99999
0.999979
0.999975
0.999979
0.99999
1
1.00001
1.00001
1
1
1
1
1
1
1
1
1
1
1
1
1
1
1
1
1
1
1
1
1
1
1
1
1
1
1
1
1.00001
1.00001
0.999993
0.999962
0.999918
0.999878
0.999862
0.999878
0.999918
0.999962
0.999993
1.00001
1.00001
1.00001
1
1
1
1
1
1
1
1
1
1
1
1
1
1
1
1
1
1
1
1
1
1
1
1
1
1.00001
1.00001
0.999986
0.99993
0.999825
0.999695
0.999587
0.999546
0.999587
0.999695
0.999825
0.99993
0.999986
1.00001
1.00001
1
1
1
1
1
1
1
1
1
1
1
1
1
1
1
1
1
1
1
1
1
1
1
1
1.00001
1.00001
0.999986
0.999914
0.999752
0.999493
0.999202
0.998986
0.99891
0.998986
0.999202
0.999493
0.999752
0.999914
0.999987
1.00001
1.00001
1
1
1
1
1
1
1
1
1
1
1
1
1
1
1
1
1
1
1
1
1
1
1
1.00001
0.999993
0.99993
0.999752
0.999402
0.998909
0.998427
0.998129
0.998044
0.998129
0.998427
0.998909
0.999402
0.999752
0.99993
0.999993
1.00001
1.00001
1
1
1
1
1
1
1
1
1
1
1
1
1
1
1
1
1
1
1
1
1
1.00001
1
0.999962
0.999825
0.999493
0.998909
0.998193
0.997641
0.997448
0.997447
0.997448
0.997641
0.998193
0.998909
0.999493
0.999826
0.999963
1
1.00001
1
1
1
1
1
1
1
1
1
1
1
1
1
1
1
1
1
1
1
1
1
1
0.99999
0.999918
0.999695
0.999202
0.998427
0.997641
0.997308
0.997544
0.997777
0.997544
0.997308
0.997641
0.998427
0.999202
0.999695
0.999919
0.999992
1.00001
1
1
1
1
1
1
1
1
1
1
1
1
1
1
1
1
1
1
1
1
1
1
0.999979
0.999878
0.999587
0.998986
0.998129
0.997448
0.997544
0.998385
0.998923
0.998385
0.997544
0.997448
0.998129
0.998986
0.999587
0.999879
0.999981
1.00001
1
1
1
1
1
1
1
1
1
1
1
1
1
1
1
1
1
1
1
1
1
1
0.999975
0.999862
0.999546
0.99891
0.998044
0.997447
0.997777
0.998923
0.999609
0.998923
0.997777
0.997447
0.998044
0.99891
0.999546
0.999863
0.999976
1.00001
1
1
1
1
1
1
1
1
1
1
1
1
1
1
1
1
1
1
1
1
1
1
0.999979
0.999878
0.999587
0.998986
0.998129
0.997448
0.997544
0.998385
0.998923
0.998385
0.997544
0.997448
0.998129
0.998986
0.999587
0.999879
0.999981
1.00001
1
1
1
1
1
1
1
1
1
1
1
1
1
1
1
1
1
1
1
1
1
1
0.99999
0.999918
0.999695
0.999202
0.998427
0.997641
0.997308
0.997544
0.997777
0.997544
0.997308
0.997641
0.998427
0.999202
0.999695
0.999919
0.999992
1.00001
1
1
1
1
1
1
1
1
1
1
1
1
1
1
1
1
1
1
1
1
1
1.00001
1
0.999962
0.999825
0.999493
0.998909
0.998193
0.997641
0.997448
0.997447
0.997448
0.997641
0.998193
0.998909
0.999493
0.999826
0.999963
1
1.00001
1
1
1
1
1
1
1
1
1
1
1
1
1
1
1
1
1
1
1
1
1
1
1.00001
0.999993
0.99993
0.999752
0.999402
0.998909
0.998427
0.998129
0.998044
0.998129
0.998427
0.998909
0.999402
0.999752
0.99993
0.999993
1.00001
1.00001
1
1
1
1
1
1
1
1
1
1
1
1
1
1
1
1
1
1
1
1
1
1
1.00001
1.00001
0.999986
0.999914
0.999752
0.999493
0.999202
0.998986
0.99891
0.998986
0.999202
0.999493
0.999752
0.999914
0.999987
1.00001
1.00001
1
1
1
1
1
1
1
1
1
1
1
1
1
1
1
1
1
1
1
1
1
1
1
1
1.00001
1.00001
0.999987
0.99993
0.999826
0.999695
0.999587
0.999546
0.999587
0.999695
0.999826
0.99993
0.999987
1.00001
1.00001
1
1
1
1
1
1
1
1
1
1
1
1
1
1
1
1
1
1
1
1
1
1
1
1
1
1.00001
1.00001
1.00001
0.999993
0.999963
0.999919
0.999879
0.999863
0.999879
0.999919
0.999963
0.999993
1.00001
1.00001
1.00001
1
1
1
1
1
1
1
1
1
1
1
1
1
1
1
1
1
1
1
1
1
1
1
1
1
1
1
1.00001
1.00001
1
0.999992
0.999981
0.999976
0.999981
0.999992
1
1.00001
1.00001
1
1
1
1
1
1
1
1
1
1
1
1
1
1
1
1
1
1
1
1
1
1
1
1
1
1
1
1
1
1
1.00001
1.00001
1.00001
1.00001
1.00001
1.00001
1.00001
1.00001
1.00001
1
1
1
1
1
SCALARS C2 double 1
LOOKUP_TABLE default
2
2
2
2
2
2
2.00001
2.00001
2.00002
2.00002
2.00002
2.00002
2.00002
2.00001
2.00001
2
2
2
2
2
2
2
2
2
2
2
2
2
2
2
2
2
2
2
2
2
2
2
2
2
2
2
2
2
2.00001
2.00001
2.00002
2.00003
2.00003
2.00003
2.00003
2.00003
2.00003
2.00003
2.00002
2.00001
2.00001
2
2
2
2
2
2
2
2
2
2
2
2
2
2
2
2
2
2
2
2
2
2
2
2
2
2
2.00001
2.00001
2.00003
2.00004
2.00005
2.00004
2.00003
2.00002
2.00003
2.00004
2.00005
2.00004
2.00003
2.00001
2.00001
2
2
2
2
2
2
2
2
2
2
2
2
2
2
2
2
2
2
2
2
2
2
2
2
2.00001
2.00002
2.00003
2.00005
2.00006
2.00003
1.99995
1.99986
1.99982
1.99986
1.99995
2.00003
2.00006
2.00005
2.00003
2.00002
2.00001
2
2
2
2
2
2
2
2
2
2
2
2
2
2
2
2
2
2
2
2
2
2
2.00001
2.00001
2.00003
2.00006
2.00006
1.99999
1.99979
1.99946
1.99914
1.999
1.99914
1.99946
1.99979
1.99999
2.00006
2.00006
2.00003
2.00001
2.00001
2
2
2
2
2
2
2
2
2
2
2
2
2
2
2
2
2
2
2
2
2
2.00001
2.00003
2.00005
2.00006
1.99997
1.99964
1.99895
1.998
1.99715
1.99682
1.99715
1.998
1.99895
1.99964
1.99997
2.00006
2.00005
2.00003
2.00001
2
2
2
2
2
2
2
2
2
2
2
2
2
2
2
2
2
2
2
2
2.00001
2.00002
2.00004
2.00006
1.99999
1.99964
1.99871
1.99704
1.99496
1.99325
1.99263
1.99325
1.99496
1.99704
1.99871
1.99964
1.99999
2.00006
2.00004
2.00002
2.00001
2
2
2
2
2
2
2
2
2
2
2
2
2
2
2
2
2
2
2
2.00001
2.00003
2.00005
2.00003
1.99979
1.99895
1.99704
1.99394
1.99042
1.98785
1.987
1.98785
1.99042
1.99394
1.99704
1.99895
1.99979
2.00003
2.00005
2.00003
2.00001
2
2
2
2
2
2
2
2
2
2
2
2
2
2
2
2
2
2
2
2.00002
2.00003
2.00004
1.99995
1.99946
1.998
1.99496
1.99042
1.98583
1.983
1.98224
1.983
1.98583
1.99042
1.99496
1.998
1.99946
1.99995
2.00004
2.00003
2.00001
2
2
2
2
2
2
2
2
2
2
2
2
2
2
2
2
2
2
2
2.00002
2.00003
2.00003
1.99986
1.99914
1.99715
1.99325
1.98785
1.983
1.98069
1.98036
1.98069
1.983
1.98785
1.99325
1.99715
1.99914
1.99986
2.00003
2.00003
2.00002
2.00001
2
2
2
2
2
2
2
2
2
2
2
2
2
2
2
2
2
2
2.00002
2.00003
2.00002
1.99982
1.999
1.99682
1.99263
1.987
1.98224
1.98036
1.98031
1.98036
1.98224
1.987
1.99263
1.99682
1.999
1.99982
2.00002
2.00003
2.00002
2.00001
2
2
2
2
2
2
2
2
2
2
2
2
2
2
2
2
2
2
2.00002
2.00003
2.00003
1.99986
1.99914
1.99715
1.99325
1.98785
1.983
1.98069
1.98036
1.98069
1.983
1.98785
1.99325
1.99715
1.99914
1.99986
2.00003
2.00003
2.00002
2.00001
2
2
2
2
2
2
2
2
2
2
2
2
2
2
2
2
2
2
2.00002
2.00003
2.00004
1.99995
1.99946
1.998
1.99496
1.99042
1.98583
1.983
1.98224
1.983
1.98583
1.99042
1.99496
1.998
1.99946
1.99995
2.00004
2.00003
2.00001
2
2
2
2
2
2
2
2
2
2
2
2
2
2
2
2
2
2
2
2.00001
2.00003
2.00005
2.00003
1.99979
1.99895
1.99704
1.99394
1.99042
1.98785
1.987
1.98785
1.99042
1.99394
1.99704
1.99895
1.99979
2.00003
2.00005
2.00003
2.00001
2
2
2
2
2
2
2
2
2
2
2
2
2
2
2
2
2
2
2
2.00001
2.00002
2.00004
2.00006
1.99999
1.99964
1.99871
1.99704
1.99496
1.99325
1.99263
1.99325
1.99496
1.99704
1.99871
1.99964
1.99999
2.00006
2.00004
2.00002
2.00001
2
2
2
2
2
2
2
2
2
2
2
2
2
2
2
2
2
2
2
2
2.00001
2.00003
2.00005
2.00006
1.99997
1.99964
1.99895
1.998
1.99715
1.99682
1.99715
1.998
1.99895
1.99964
1.99997
2.00006
2.00005
2.00003
2.00001
2
2
2
2
2
2
2
2
2
2
2
2
2
2
2
2
2
2
2
2
2
2.00001
2.00001
2.00003
2.00006
2.00006
1.99999
1.99979
1.99946
1.99914
1.999
1.99914
1.99946
1.99979
1.99999
2.00006
2.00006
2.00003
2.00001
2.00001
2
2
2
2
2
2
2
2
2
2
2
2
2
2
2
2
2
2
2
2
2
2
2.00001
2.00002
2.00003
2.00005
2.00006
2.00003
1.99995
1.99986
1.99982
1.99986
1.99995
2.00003
2.00006
2.00005
2.00003
2.00002
2.00001
2
2
2
2
2
2
2
2
2
2
2
2
2
2
2
2
2
2
2
2
2
2
2
2
2.00001
2.00001
2.00003
2.00004
2.00005
2.00004
2.00003
2.00002
2.00003
2.00004
2.00005
2.00004
2.00003
2.00001
2.00001
2
2
2
2
2
2
2
2
2
2
2
2
2
2
2
2
2
2
2
2
2
2
2
2
2
2
2.00001
2.00001
2.00002
2.00003
2.00003
2.00003
2.00003
2.00003
2.00003
2.00003
2.00002
2.00001
2.00001
2
2
2
2
2
2
2
2
2
2
2
2
2
2
2
2
2
2
2
2
2
2
2
2
2
2
2
2
2
2.00001
2.00001
2.00001
2.00002
2.00002
2.00002
2.00001
2.00001
2.00001
2
2
2
2
2
2
2
2
2
2
2
2
2
1.99999
1.99999
1.99999
1.99999
1.99999
2
2
2
2
2
2
2
2
2
2
2
2
2
2
2
2
2.00001
2.00001
2.00001
2
2
2
2
2
2
2
2
2
2
2
2
2
2
1.99999
1.99999
1.99999
1.99998
1.99998
1.99998
1.99999
1.99999
1.99999
2
2
2
2
2
2
2
2
2
2
2
2
2
2
2
2
2
2
2
2
2
2
2
2
2
2
2
2
2
1.99999
1.99999
1.99998
1.99998
1.99997
1.99998
1.99998
1.99998
1.99997
1.99998
1.99998
1.99999
1.99999
2
2
2
2
2
2
2
2
2
2
2
2
2
2
2
2
2
2
2
2
2
2
2
2
2
2
1.99999
1.99999
1.99997
1.99997
1.99997
1.99999
2.00002
2.00003
2.00002
1.99999
1.99997
1.99997
1.99997
1.99999
1.99999
2
2
2
2
2
2
2
2
2
2
2
2
2
2
2
2
2
2
2
2
2
2
2
2
1.99999
1.99999
1.99997
1.99996
1.99997
2.00004
2.00015
2.00027
2.00032
2.00027
2.00015
2.00004
1.99997
1.99996
1.99997
1.99999
1.99999
2
2
2
2
2
2
2
2
2
2
2
2
2
2
2
2
2
2
2
2
2
2
2
1.99999
1.99997
1.99996
1.99998
2.00008
2.00032
2.00069
2.00104
2.00118
2.00104
2.00069
2.00032
2.00008
1.99998
1.99996
1.99997
1.99999
1.99999
2
2
2
2
2
2
2
2
2
2
2
2
2
2
2
2
2
2
2
2
2
1.99999
1.99998
1.99997
1.99997
2.00008
2.00041
2.00106
2.00194
2.00273
2.00304
2.00273
2.00194
2.00106
2.00041
2.00008
1.99997
1.99997
1.99998
1.99999
2
2
2
2
2
2
2
2
2
2
2
2
2
2
2
2
2
2
2
2
2
1.99999
1.99998
1.99997
2.00004
2.00032
2.00106
2.00237
2.00403
2.00541
2.00593
2.00541
2.00403
2.00237
2.00106
2.00032
2.00004
1.99997
1.99997
1.99998
2
2
2
2
2
2
2
2
2
2
2
2
2
2
2
2
2
2
2
2
1.99999
1.99999
1.99997
1.99999
2.00015
2.00069
2.00194
2.00403
2.0065
2.00841
2.00907
2.00841
2.0065
2.00403
2.00194
2.00069
2.00015
1.99999
1.99997
1.99998
2
2
2
2
2
2
2
2
2
2
2
2
2
2
2
2
2
2
2
2
1.99999
1.99998
1.99998
2.00002
2.00027
2.00104
2.00273
2.00541
2.00841
2.01055
2.01124
2.01055
2.00841
2.00541
2.00273
2.00104
2.00027
2.00002
1.99997
1.99998
2
2
2
2
2
2
2
2
2
2
2
2
2
2
2
2
2
2
2
2
1.99999
1.99998
1.99998
2.00003
2.00032
2.00118
2.00304
2.00593
2.00907
2.01124
2.01189
2.01124
2.00907
2.00593
2.00304
2.00118
2.00032
2.00003
1.99998
1.99998
2
2
2
2
2
2
2
2
2
2
2
2
2
2
2
2
2
2
2
2
1.99999
1.99998
1.99998
2.00002
2.00027
2.00104
2.00273
2.00541
2.00841
2.01055
2.01124
2.01055
2.00841
2.00541
2.00273
2.00104
2.00027
2.00002
1.99997
1.99998
2
2
2
2
2
2
2
2
2
2
2
2
2
2
2
2
2
2
2
2
1.99999
1.99999
1.99997
1.99999
2.00015
2.00069
2.00194
2.00403
2.0065
2.00841
2.00907
2.00841
2.0065
2.00403
2.00194
2.00069
2.00015
1.99999
1.99997
1.99998
2
2
2
2
2
2
2
2
2
2
2
2
2
2
2
2
2
2
2
2
2
1.99999
1.99998
1.99997
2.00004
2.00032
2.00106
2.00237
2.00403
2.00541
2.00593
2.00541
2.00403
2.00237
2.00106
2.00032
2.00004
1.99997
1.99997
1.99998
2
2
2
2
2
2
2
2
2
2
2
2
2
2
2
2
2
2
2
2
2
1.99999
1.99998
1.99997
1.99997
2.00008
2.00041
2.00106
2.00194
2.00273
2.00304
2.00273
2.00194
2.00106
2.00041
2.00008
1.99997
1.99997
1.99998
1.99999
2
2
2
2
2
2
2
2
2
2
2
2
2
2
2
2
2
2
2
2
2
2
1.99999
1.99997
1.99996
1.99998
2.00008
2.00032
2.00069
2.00104
2.00118
2.00104
2.00069
2.00032
2.00008
1.99998
1.99996
1.99997
1.99999
1.99999
2
2
2
2
2
2
2
2
2
2
2
2
2
2
2
2
2
2
2
2
2
2
1.99999
1.99999
1.99997
1.99996
1.99997
2.00004
2.00015
2.00027
2.00032
2.00027
2.00015
2.00004
1.99997
1.99996
1.99997
1.99999
1.99999
2
2
2
2
2
2
2
2
2
2
2
2
2
2
2
2
2
2
2
2
2
2
2
2
1.99999
1.99999
1.99997
1.99997
1.99997
1.99999
2.00002
2.00003
2.00002
1.99999
1.99997
1.99997
1.99997
1.99999
1.99999
2
2
2
2
2
2
2
2
2
2
2
2
2
2
2
2
2
2
2
2
2
2
2
2
2
2
1.99999
1.99999
1.99998
1.99997
1.99997
1.99997
1.99998
1.99997
1.99997
1.99997
1.99998
1.99999
1.99999
2
2
2
2
2
2
2
2
2
2
2
2
2
2
2
2
2
2
2
2
2
2
2
2
2
2
2
2
1.99999
1.99999
1.99998
1.99998
1.99998
1.99998
1.99998
1.99998
1.99998
1.99999
1.99999
2
2
2
2
