# vtk DataFile Version 3.0
Brusselator Concentration Output
ASCII
DATASET STRUCTURED_POINTS
DIMENSIONS 40 40 1
ORIGIN 0.0 0.0 0.0
SPACING 0.005 0.005 1.0
POINT_DATA 1600
SCALARS C1 double 1
LOOKUP_TABLE default
0.999907
0.999915
0.999938
0.999985
1.00006
1.00017
1.00029
1.00042
1.00053
1.0006
1.00062
1.0006
1.00053
1.00042
1.00029
1.00017
1.00006
0.999991
0.999951
0.999939
0.999946
0.999961
0.999976
0.999987
0.999995
0.999998
1
1
1
1
1
1
1
1
1
1
1
1
1
1
0.999915
0.999936
0.999982
1.00006
1.00018
1.00032
1.00048
1.00064
1.00077
1.00085
1.00088
1.00085
1.00077
1.00064
1.00048
1.00032
1.00018
1.00007
0.999997
0.999962
0.999954
0.999961
0.999973
0.999985
0.999993
0.999997
0.999999
1
1
1
1
1
1
1
1
1
1
1
1
1
0.999938
0.999982
1.00007
1.00021
1.0004
1.00061
1.00084
1.00104
1.00119
1.00129
1.00132
1.00129
1.00119
1.00104
1.00084
1.00062
1.0004
1.00022
1.00009
1.00001
0.999974
0.999965
0.99997
0.999981
0.999989
0.999995
0.999998
1
1
1
1
1
1
1
1
1
1
1
1
1
0.999985
1.00006
1.00021
1.00044
1.00071
1.001
1.00129
1.00153
1.0017
1.00181
1.00184
1.00181
1.0017
1.00153
1.00129
1.00101
1.00072
1.00045
1.00024
1.00009
1.00001
0.999975
0.99997
0.999976
0.999985
0.999993
0.999997
0.999999
1
1
1
1
1
1
1
1
1
1
1
1
1.00006
1.00018
1.0004
1.00071
1.00107
1.00143
1.00176
1.002
1.00217
1.00226
1.00228
1.00226
1.00217
1.002
1.00176
1.00144
1.00108
1.00073
1.00043
1.0002
1.00007
0.999996
0.999973
0.999973
0.999982
0.99999
0.999995
0.999998
1
1
1
1
1
1
1
1
1
1
1
1
1.00017
1.00032
1.00061
1.001
1.00143
1.00184
1.00216
1.00236
1.00247
1.00251
1.00252
1.00251
1.00247
1.00237
1.00216
1.00184
1.00145
1.00103
1.00064
1.00034
1.00014
1.00003
0.999982
0.999973
0.999978
0.999987
0.999994
0.999998
0.999999
1
1
1
1
1
1
1
1
1
1
1
1.00029
1.00048
1.00084
1.00129
1.00176
1.00216
1.00242
1.00255
1.00256
1.00253
1.00251
1.00253
1.00256
1.00255
1.00243
1.00216
1.00177
1.00131
1.00086
1.00049
1.00022
1.00007
0.999996
0.999975
0.999976
0.999985
0.999992
0.999997
0.999999
1
1
1
1
1
1
1
1
1
1
1
1.00042
1.00064
1.00104
1.00153
1.002
1.00236
1.00255
1.00255
1.00244
1.00232
1.00227
1.00232
1.00244
1.00255
1.00255
1.00237
1.00202
1.00155
1.00106
1.00062
1.00031
1.00011
1.00001
0.999979
0.999975
0.999983
0.999991
0.999996
0.999999
1
1
1
1
1
1
1
1
1
1
1
1.00053
1.00077
1.00119
1.0017
1.00217
1.00247
1.00256
1.00244
1.00222
1.00201
1.00193
1.00201
1.00222
1.00244
1.00256
1.00248
1.00219
1.00173
1.00121
1.00074
1.00038
1.00015
1.00003
0.999983
0.999975
0.999981
0.99999
0.999995
0.999998
1
1
1
1
1
1
1
1
1
1
1
1.0006
1.00085
1.00129
1.00181
1.00226
1.00251
1.00253
1.00232
1.00201
1.00175
1.00164
1.00175
1.00201
1.00232
1.00253
1.00253
1.00227
1.00183
1.0013
1.00081
1.00042
1.00017
1.00004
0.999987
0.999976
0.999981
0.999989
0.999995
0.999998
1
1
1
1
1
1
1
1
1
1
1
1.00062
1.00088
1.00132
1.00184
1.00228
1.00252
1.00251
1.00227
1.00193
1.00164
1.00153
1.00164
1.00193
1.00227
1.00251
1.00253
1.0023
1.00186
1.00134
1.00083
1.00044
1.00018
1.00005
0.999988
0.999976
0.999981
0.999989
0.999995
0.999998
1
1
1
1
1
1
1
1
1
1
1
1.0006
1.00085
1.00129
1.00181
1.00226
1.00251
1.00253
1.00232
1.00201
1.00175
1.00164
1.00175
1.00201
1.00232
1.00253
1.00253
1.00227
1.00183
1.0013
1.00081
1.00042
1.00017
1.00004
0.999987
0.999975
0.999981
0.999989
0.999995
0.999998
1
1
1
1
1
1
1
1
1
1
1
1.00053
1.00077
1.00119
1.0017
1.00217
1.00247
1.00256
1.00244
1.00222
1.00201
1.00193
1.00201
1.00222
1.00244
1.00256
1.00248
1.00219
1.00173
1.00121
1.00074
1.00038
1.00015
1.00003
0.999983
0.999975
0.999982
0.99999
0.999996
0.999999
1
1
1
1
1
1
1
1
1
1
1
1.00042
1.00064
1.00104
1.00153
1.002
1.00237
1.00255
1.00255
1.00244
1.00232
1.00227
1.00232
1.00244
1.00255
1.00255
1.00237
1.00202
1.00155
1.00106
1.00062
1.00031
1.00011
1.00001
0.999979
0.999976
0.999984
0.999992
0.999997
1
1
1
1
1
1
1
1
1
1
1
1
1.00029
1.00048
1.00084
1.00129
1.00176
1.00216
1.00243
1.00255
1.00256
1.00253
1.00251
1.00253
1.00256
1.00255
1.00243
1.00217
1.00177
1.00131
1.00086
1.00049
1.00022
1.00007
0.999997
0.999976
0.999978
0.999987
0.999995
1
1
1
1
1
1
1
1
1
1
1
1
1
1.00017
1.00032
1.00062
1.00101
1.00144
1.00184
1.00216
1.00237
1.00248
1.00253
1.00253
1.00253
1.00248
1.00237
1.00217
1.00185
1.00145
1.00103
1.00064
1.00034
1.00014
1.00003
0.999984
0.999975
0.999982
0.999992
1
1.00001
1.00001
1.00001
1.00001
1.00001
1.00001
1.00001
1.00001
1.00001
1
1
1
1
1.00006
1.00018
1.0004
1.00072
1.00108
1.00145
1.00177
1.00202
1.00219
1.00227
1.0023
1.00227
1.00219
1.00202
1.00177
1.00145
1.00109
1.00073
1.00043
1.00021
1.00007
0.999999
0.999977
0.999979
0.99999
1
1.00001
1.00001
1.00001
1.00001
1.00001
1.00001
1.00001
1.00001
1.00001
1.00001
1.00001
1.00001
1
1
0.999991
1.00007
1.00022
1.00045
1.00073
1.00103
1.00131
1.00155
1.00173
1.00183
1.00186
1.00183
1.00173
1.00155
1.00131
1.00103
1.00073
1.00046
1.00025
1.0001
1.00002
0.999983
0.999978
0.999987
0.999999
1.00001
1.00001
1.00001
1.00001
1.00001
1.00001
1.00001
1.00001
1.00002
1.00002
1.00002
1.00001
1.00001
1.00001
1.00001
0.999951
0.999997
1.00009
1.00024
1.00043
1.00064
1.00086
1.00106
1.00121
1.0013
1.00134
1.0013
1.00121
1.00106
1.00086
1.00064
1.00043
1.00025
1.00011
1.00003
0.999988
0.999979
0.999986
0.999997
1.00001
1.00001
1.00001
1.00001
1
0.999999
0.999997
0.999999
1
1.00001
1.00001
1.00002
1.00002
1.00002
1.00002
1.00002
0.999939
0.999962
1.00001
1.00009
1.0002
1.00034
1.00049
1.00062
1.00074
1.00081
1.00083
1.00081
1.00074
1.00062
1.00049
1.00034
1.00021
1.0001
1.00003
0.999991
0.99998
0.999985
0.999996
1
1.00001
1
0.99999
0.999975
0.999962
0.999952
0.999948
0.999952
0.999961
0.999975
0.999991
1
1.00001
1.00002
1.00002
1.00003
0.999946
0.999954
0.999974
1.00001
1.00007
1.00014
1.00022
1.00031
1.00038
1.00042
1.00044
1.00042
1.00038
1.00031
1.00022
1.00014
1.00007
1.00002
0.999988
0.99998
0.999985
0.999995
1
1
0.999988
0.999965
0.999934
0.999902
0.999873
0.999853
0.999846
0.999853
0.999873
0.999901
0.999935
0.999967
0.999995
1.00002
1.00003
1.00003
0.999961
0.999961
0.999965
0.999975
0.999996
1.00003
1.00007
1.00011
1.00015
1.00017
1.00018
1.00017
1.00015
1.00011
1.00007
1.00003
0.999999
0.999983
0.999979
0.999985
0.999995
1
0.999997
0.999977
0.99994
0.999888
0.999829
0.99977
0.99972
0.999687
0.999676
0.999687
0.99972
0.99977
0.99983
0.999891
0.999947
0.999991
1.00002
1.00004
0.999976
0.999973
0.99997
0.99997
0.999973
0.999982
0.999996
1.00001
1.00003
1.00004
1.00005
1.00004
1.00003
1.00001
0.999997
0.999984
0.999977
0.999978
0.999986
0.999996
1
0.999997
0.999972
0.999924
0.999853
0.999763
0.999666
0.999575
0.999501
0.999454
0.999437
0.999454
0.999501
0.999575
0.999668
0.999767
0.999861
0.99994
0.999995
1.00002
0.999987
0.999985
0.999981
0.999976
0.999973
0.999973
0.999975
0.999979
0.999983
0.999987
0.999988
0.999987
0.999983
0.999979
0.999976
0.999975
0.999979
0.999987
0.999997
1
1
0.999977
0.999924
0.999839
0.999724
0.99959
0.999453
0.99933
0.999235
0.999176
0.999156
0.999176
0.999236
0.999331
0.999456
0.999596
0.999735
0.999856
0.999944
0.99999
0.999995
0.999993
0.999989
0.999985
0.999982
0.999978
0.999976
0.999975
0.999975
0.999976
0.999976
0.999975
0.999975
0.999976
0.999978
0.999982
0.99999
0.999999
1.00001
1.00001
0.999988
0.99994
0.999853
0.999724
0.999561
0.999384
0.999213
0.999068
0.998962
0.998899
0.998878
0.998899
0.998962
0.99907
0.999217
0.999392
0.999575
0.999741
0.999866
0.999934
0.999998
0.999997
0.999995
0.999993
0.99999
0.999987
0.999985
0.999983
0.999981
0.999981
0.999981
0.999981
0.999982
0.999984
0.999987
0.999992
1
1.00001
1.00001
1
0.999965
0.999888
0.999763
0.99959
0.999384
0.999171
0.998979
0.998829
0.998728
0.998672
0.998655
0.998672
0.998729
0.998832
0.998985
0.999181
0.999399
0.999605
0.999767
0.999855
1
0.999999
0.999998
0.999997
0.999995
0.999994
0.999992
0.999991
0.99999
0.999989
0.999989
0.999989
0.99999
0.999992
0.999995
1
1.00001
1.00001
1.00001
0.99999
0.999934
0.999829
0.999666
0.999453
0.999213
0.998979
0.998785
0.998649
0.998569
0.998533
0.998523
0.998533
0.99857
0.998652
0.998792
0.998991
0.999228
0.999465
0.999656
0.999763
1
1
1
0.999999
0.999998
0.999998
0.999997
0.999996
0.999995
0.999995
0.999995
0.999995
0.999996
0.999997
1
1.00001
1.00001
1.00001
1.00001
0.999975
0.999902
0.99977
0.999575
0.99933
0.999068
0.998829
0.998649
0.998541
0.998496
0.998486
0.998487
0.998487
0.998497
0.998545
0.998657
0.998842
0.999083
0.999338
0.99955
0.999671
1
1
1
1
1
0.999999
0.999999
0.999999
0.999998
0.999998
0.999998
0.999998
0.999999
1
1
1.00001
1.00001
1.00001
1
0.999962
0.999873
0.99972
0.999501
0.999235
0.998962
0.998728
0.998569
0.998496
0.998487
0.998506
0.998517
0.998506
0.998489
0.9985
0.998578
0.998741
0.998976
0.999238
0.999463
0.999593
1
1
1
1
1
1
1
1
1
1
1
1
1
1
1
1.00001
1.00001
1.00001
0.999999
0.999952
0.999853
0.999687
0.999454
0.999176
0.998899
0.998672
0.998533
0.998486
0.998506
0.998545
0.998564
0.998546
0.998508
0.998491
0.998542
0.998686
0.998912
0.999175
0.999406
0.99954
1
1
1
1
1
1
1
1
1
1
1
1
1
1
1
1.00001
1.00001
1.00001
0.999997
0.999948
0.999846
0.999676
0.999437
0.999156
0.998878
0.998655
0.998523
0.998487
0.998517
0.998564
0.998586
0.998565
0.998519
0.998492
0.998532
0.998668
0.998891
0.999153
0.999386
0.999522
1
1
1
1
1
1
1
1
1
1
1
1
1
1
1
1.00001
1.00001
1.00001
0.999999
0.999952
0.999853
0.999687
0.999454
0.999176
0.998899
0.998672
0.998533
0.998487
0.998506
0.998546
0.998565
0.998546
0.998508
0.998491
0.998542
0.998686
0.998912
0.999175
0.999405
0.99954
1
1
1
1
1
1
1
1
1
1
1
1
1
1
1
1.00001
1.00001
1.00001
1
0.999961
0.999873
0.99972
0.999501
0.999236
0.998962
0.998729
0.99857
0.998497
0.998489
0.998508
0.998519
0.998508
0.998491
0.998502
0.998579
0.998742
0.998977
0.999238
0.999463
0.999592
1
1
1
1
1
1
1
1
1
1
1
1
1
1
1
1.00001
1.00001
1.00002
1.00001
0.999975
0.999901
0.99977
0.999575
0.999331
0.99907
0.998832
0.998652
0.998545
0.9985
0.998491
0.998492
0.998491
0.998502
0.998549
0.99866
0.998844
0.999085
0.999339
0.999551
0.999671
1
1
1
1
1
1
1
1
1
1
1
1
1
1
1
1.00001
1.00001
1.00002
1.00001
0.999991
0.999935
0.99983
0.999668
0.999456
0.999217
0.998985
0.998792
0.998657
0.998578
0.998542
0.998532
0.998542
0.998579
0.99866
0.998799
0.998996
0.999232
0.999468
0.999658
0.999764
1
1
1
1
1
1
1
1
1
1
1
1
1
1
1
1.00001
1.00001
1.00002
1.00002
1
0.999967
0.999891
0.999767
0.999596
0.999392
0.999181
0.998991
0.998842
0.998741
0.998686
0.998668
0.998686
0.998742
0.998844
0.998996
0.999191
0.999407
0.999612
0.999771
0.999859
1
1
1
1
1
1
1
1
1
1
1
1
1
1
1
1
1.00001
1.00001
1.00002
1.00001
0.999995
0.999947
0.999861
0.999735
0.999575
0.999399
0.999228
0.999083
0.998976
0.998912
0.998891
0.998912
0.998977
0.999085
0.999232
0.999407
0.999588
0.999753
0.999876
0.999942
1
1
1
1
1
1
1
1
1
1
1
1
1
1
1
1
1.00001
1.00001
1.00002
1.00002
1.00002
0.999991
0.99994
0.999856
0.999741
0.999605
0.999465
0.999338
0.999238
0.999175
0.999153
0.999175
0.999238
0.999339
0.999468
0.999612
0.999753
0.999873
0.999961
1.00001
1
1
1
1
1
1
1
1
1
1
1
1
1
1
1
1
1
1.00001
1.00002
1.00002
1.00003
1.00002
0.999995
0.999944
0.999866
0.999767
0.999656
0.99955
0.999463
0.999406
0.999386
0.999405
0.999463
0.999551
0.999658
0.999771
0.999876
0.999961
1.00002
1.00005
1
1
1
1
1
1
1
1
1
1
1
1
1
1
1
1
1
1.00001
1.00002
1.00003
1.00003
1.00004
1.00002
0.99999
0.999934
0.999855
0.999763
0.999671
0.999593
0.99954
0.999522
0.99954
0.999592
0.999671
0.999764
0.999859
0.999942
1.00001
1.00005
1.00007
SCALARS C2 double 1
LOOKUP_TABLE default
2.00014
2.00016
2.0002
2.00023
2.00024
2.00022
2.00016
2.00008
1.99999
1.99993
1.99991
1.99993
1.99999
2.00008
2.00016
2.00022
2.00024
2.00023
2.00019
2.00014
2.00009
2.00005
2.00002
2.00001
2
2
2
2
2
2
2
2
2
2
2
2
2
2
2
2
2.00016
2.00018
2.00019
2.00019
2.00015
2.00006
1.99993
1.99978
1.99964
1.99955
1.99951
1.99955
1.99964
1.99978
1.99993
2.00006
2.00015
2.00018
2.00018
2.00014
2.0001
2.00006
2.00003
2.00001
2
2
2
2
2
2
2
2
2
2
2
2
2
2
2
2
2.0002
2.00019
2.00016
2.00008
1.99994
1.99973
1.99946
1.99919
1.99894
1.99878
1.99872
1.99878
1.99894
1.99919
1.99946
1.99973
1.99994
2.00007
2.00014
2.00014
2.00012
2.00008
2.00005
2.00002
2.00001
2
2
2
2
2
2
2
2
2
2
2
2
2
2
2
2.00023
2.00019
2.00008
1.99989
1.99959
1.9992
1.99874
1.9983
1.99792
1.99767
1.99758
1.99767
1.99792
1.9983
1.99874
1.99919
1.99959
1.99987
2.00005
2.00012
2.00013
2.0001
2.00007
2.00004
2.00002
2.00001
2
2
2
2
2
2
2
2
2
2
2
2
2
2
2.00024
2.00015
1.99994
1.99959
1.99909
1.99848
1.99781
1.99717
1.99666
1.99632
1.99621
1.99632
1.99666
1.99717
1.99781
1.99848
1.99908
1.99957
1.99989
2.00006
2.00012
2.00012
2.00008
2.00005
2.00002
2.00001
2
2
2
2
2
2
2
2
2
2
2
2
2
2
2.00022
2.00006
1.99973
1.9992
1.99848
1.99763
1.99675
1.99594
1.9953
1.9949
1.99476
1.9949
1.9953
1.99594
1.99674
1.99762
1.99846
1.99916
1.99966
1.99996
2.00009
2.00012
2.0001
2.00006
2.00003
2.00001
2
2
2
2
2
2
2
2
2
2
2
2
2
2
2.00016
1.99993
1.99946
1.99874
1.99781
1.99675
1.99568
1.99474
1.99402
1.99358
1.99344
1.99358
1.99403
1.99474
1.99568
1.99674
1.99779
1.9987
1.99939
1.99982
2.00004
2.00011
2.00011
2.00008
2.00004
2.00002
2.00001
2
2
2
2
2
2
2
2
2
2
2
2
2
2.00008
1.99978
1.99919
1.9983
1.99717
1.99594
1.99474
1.99372
1.99298
1.99253
1.99239
1.99253
1.99298
1.99372
1.99474
1.99593
1.99715
1.99825
1.9991
1.99967
1.99998
2.0001
2.00011
2.00008
2.00005
2.00002
2.00001
2
2
2
2
2
2
2
2
2
2
2
2
2
1.99999
1.99964
1.99894
1.99792
1.99666
1.9953
1.99402
1.99298
1.99223
1.99181
1.99167
1.99181
1.99223
1.99298
1.99402
1.99529
1.99663
1.99787
1.99885
1.99953
1.99991
2.00008
2.00011
2.00009
2.00005
2.00003
2.00001
2
2
2
2
2
2
2
2
2
2
2
2
2
1.99993
1.99955
1.99878
1.99767
1.99632
1.9949
1.99358
1.99253
1.99181
1.9914
1.99127
1.9914
1.99181
1.99253
1.99358
1.99488
1.99629
1.99761
1.99869
1.99943
1.99987
2.00006
2.00011
2.00009
2.00006
2.00003
2.00001
2
2
2
2
2
2
2
2
2
2
2
2
2
1.99991
1.99951
1.99872
1.99758
1.99621
1.99476
1.99344
1.99239
1.99167
1.99127
1.99114
1.99127
1.99167
1.99238
1.99343
1.99475
1.99618
1.99752
1.99863
1.9994
1.99985
2.00006
2.00011
2.00009
2.00006
2.00003
2.00001
2
2
2
2
2
2
2
2
2
2
2
2
2
1.99993
1.99955
1.99878
1.99767
1.99632
1.9949
1.99358
1.99253
1.99181
1.9914
1.99127
1.9914
1.99181
1.99253
1.99358
1.99489
1.99629
1.99761
1.99869
1.99943
1.99987
2.00006
2.00011
2.00009
2.00006
2.00003
2.00001
2
2
2
2
2
2
2
2
2
2
2
2
2
1.99999
1.99964
1.99894
1.99792
1.99666
1.9953
1.99403
1.99298
1.99223
1.99181
1.99167
1.99181
1.99223
1.99298
1.99402
1.99529
1.99663
1.99787
1.99885
1.99953
1.99991
2.00008
2.00011
2.00009
2.00006
2.00003
2.00001
2
2
2
2
2
2
2
2
2
2
2
2
2
2.00008
1.99978
1.99919
1.9983
1.99717
1.99594
1.99474
1.99372
1.99298
1.99253
1.99238
1.99253
1.99298
1.99372
1.99474
1.99593
1.99715
1.99825
1.9991
1.99967
1.99998
2.0001
2.00011
2.00008
2.00005
2.00002
2.00001
2
2
2
2
2
2
2
2
2
2
2
2
2
2.00016
1.99993
1.99946
1.99874
1.99781
1.99674
1.99568
1.99474
1.99402
1.99358
1.99343
1.99358
1.99402
1.99474
1.99568
1.99674
1.99779
1.9987
1.99939
1.99982
2.00004
2.00012
2.00011
2.00008
2.00004
2.00002
2
2
2
2
2
2
2
2
2
2
2
2
2
2
2.00022
2.00006
1.99973
1.99919
1.99848
1.99762
1.99674
1.99593
1.99529
1.99488
1.99475
1.99489
1.99529
1.99593
1.99674
1.99762
1.99846
1.99916
1.99966
1.99996
2.00009
2.00012
2.0001
2.00006
2.00003
2.00001
2
1.99999
1.99999
1.99999
1.99999
1.99999
1.99999
1.99999
1.99999
2
2
2
2
2
2.00024
2.00015
1.99994
1.99959
1.99908
1.99846
1.99779
1.99715
1.99663
1.99629
1.99618
1.99629
1.99663
1.99715
1.99779
1.99846
1.99907
1.99956
1.99989
2.00006
2.00012
2.00012
2.00008
2.00004
2.00002
2
1.99999
1.99998
1.99998
1.99997
1.99997
1.99997
1.99998
1.99998
1.99998
1.99999
1.99999
1.99999
2
2
2.00023
2.00018
2.00007
1.99987
1.99957
1.99916
1.9987
1.99825
1.99787
1.99761
1.99752
1.99761
1.99787
1.99825
1.9987
1.99916
1.99956
1.99986
2.00004
2.00012
2.00013
2.0001
2.00006
2.00002
2
1.99998
1.99997
1.99996
1.99996
1.99995
1.99995
1.99996
1.99996
1.99996
1.99997
1.99997
1.99998
1.99999
1.99999
1.99999
2.00019
2.00018
2.00014
2.00005
1.99989
1.99966
1.99939
1.9991
1.99885
1.99869
1.99863
1.99869
1.99885
1.9991
1.99939
1.99966
1.99989
2.00004
2.00011
2.00013
2.00011
2.00007
2.00003
2
1.99997
1.99996
1.99995
1.99994
1.99994
1.99994
1.99994
1.99994
1.99994
1.99994
1.99995
1.99995
1.99996
1.99997
1.99998
1.99998
2.00014
2.00014
2.00014
2.00012
2.00006
1.99996
1.99982
1.99967
1.99953
1.99943
1.9994
1.99943
1.99953
1.99967
1.99982
1.99996
2.00006
2.00012
2.00013
2.00011
2.00007
2.00003
1.99999
1.99997
1.99995
1.99993
1.99993
1.99993
1.99993
1.99994
1.99994
1.99994
1.99993
1.99993
1.99993
1.99993
1.99994
1.99995
1.99996
1.99997
2.00009
2.0001
2.00012
2.00013
2.00012
2.00009
2.00004
1.99998
1.99991
1.99987
1.99985
1.99987
1.99991
1.99998
2.00004
2.00009
2.00012
2.00013
2.00011
2.00007
2.00003
1.99999
1.99996
1.99994
1.99993
1.99993
1.99994
1.99995
1.99997
1.99999
1.99999
1.99999
1.99997
1.99996
1.99994
1.99993
1.99992
1.99993
1.99993
1.99994
2.00005
2.00006
2.00008
2.0001
2.00012
2.00012
2.00011
2.0001
2.00008
2.00006
2.00006
2.00006
2.00008
2.0001
2.00012
2.00012
2.00012
2.0001
2.00007
2.00003
1.99999
1.99996
1.99994
1.99992
1.99993
1.99996
2
2.00005
2.0001
2.00014
2.00015
2.00014
2.0001
2.00005
2
1.99996
1.99993
1.99991
1.99991
1.99991
2.00002
2.00003
2.00005
2.00007
2.00008
2.0001
2.00011
2.00011
2.00011
2.00011
2.00011
2.00011
2.00011
2.00011
2.00011
2.0001
2.00008
2.00006
2.00003
1.99999
1.99996
1.99994
1.99992
1.99993
1.99998
2.00005
2.00015
2.00026
2.00036
2.00042
2.00045
2.00042
2.00036
2.00026
2.00015
2.00005
1.99997
1.99992
1.99989
1.99988
2.00001
2.00001
2.00002
2.00004
2.00005
2.00006
2.00008
2.00008
2.00009
2.00009
2.00009
2.00009
2.00009
2.00008
2.00008
2.00006
2.00004
2.00002
2
1.99997
1.99994
1.99992
1.99993
1.99999
2.00009
2.00023
2.00041
2.0006
2.00076
2.00087
2.00091
2.00087
2.00076
2.0006
2.00041
2.00023
2.00007
1.99996
1.99989
1.99986
2
2
2.00001
2.00002
2.00002
2.00003
2.00004
2.00005
2.00005
2.00006
2.00006
2.00006
2.00006
2.00005
2.00004
2.00003
2.00002
2
1.99997
1.99995
1.99993
1.99993
1.99998
2.00009
2.00027
2.00051
2.00079
2.00107
2.00131
2.00146
2.00152
2.00146
2.00131
2.00107
2.00079
2.0005
2.00025
2.00005
1.99992
1.99986
2
2
2
2.00001
2.00001
2.00001
2.00002
2.00002
2.00003
2.00003
2.00003
2.00003
2.00003
2.00002
2.00002
2.00001
2
1.99998
1.99996
1.99993
1.99993
1.99996
2.00005
2.00023
2.00051
2.00086
2.00125
2.00163
2.00194
2.00214
2.00221
2.00214
2.00194
2.00163
2.00125
2.00085
2.00048
2.00019
1.99998
1.99988
2
2
2
2
2
2
2.00001
2.00001
2.00001
2.00001
2.00001
2.00001
2.00001
2.00001
2
2
1.99999
1.99997
1.99995
1.99993
1.99994
2
2.00015
2.00041
2.00079
2.00125
2.00175
2.00221
2.00258
2.00282
2.0029
2.00282
2.00258
2.00221
2.00174
2.00124
2.00076
2.00036
2.00008
1.99994
2
2
2
2
2
2
2
2
2
2
2
2
2
2
2
1.99999
1.99998
1.99996
1.99994
1.99993
1.99995
2.00005
2.00026
2.0006
2.00107
2.00163
2.00221
2.00274
2.00315
2.00341
2.0035
2.00341
2.00315
2.00274
2.0022
2.00161
2.00103
2.00054
2.00019
2.00001
2
2
2
2
2
2
2
2
2
2
2
2
2
2
2
1.99999
1.99998
1.99996
1.99994
1.99993
1.99997
2.0001
2.00036
2.00076
2.00131
2.00194
2.00258
2.00315
2.00359
2.00386
2.00396
2.00386
2.00359
2.00315
2.00257
2.00192
2.00126
2.0007
2.00029
2.00008
2
2
2
2
2
2
2
2
2
2
2
2
2
2
2
1.99999
1.99997
1.99995
1.99994
1.99994
1.99999
2.00014
2.00042
2.00087
2.00146
2.00214
2.00282
2.00341
2.00386
2.00414
2.00423
2.00414
2.00386
2.00341
2.00281
2.00211
2.00142
2.00081
2.00036
2.00013
2
2
2
2
2
2
2
2
2
2
2
2
2
2
2
1.99999
1.99997
1.99995
1.99994
1.99994
1.99999
2.00015
2.00045
2.00091
2.00152
2.00221
2.0029
2.0035
2.00396
2.00423
2.00432
2.00423
2.00395
2.0035
2.00289
2.00218
2.00147
2.00085
2.00039
2.00014
2
2
2
2
2
2
2
2
2
2
2
2
2
2
2
1.99999
1.99997
1.99996
1.99994
1.99994
1.99999
2.00014
2.00042
2.00087
2.00146
2.00214
2.00282
2.00341
2.00386
2.00414
2.00423
2.00414
2.00386
2.00341
2.00281
2.00212
2.00142
2.00081
2.00036
2.00013
2
2
2
2
2
2
2
2
2
2
2
2
2
2
2
1.99999
1.99998
1.99996
1.99994
1.99993
1.99997
2.0001
2.00036
2.00076
2.00131
2.00194
2.00258
2.00315
2.00359
2.00386
2.00395
2.00386
2.00359
2.00315
2.00257
2.00192
2.00126
2.0007
2.00029
2.00008
2
2
2
2
2
2
2
2
2
2
2
2
2
2
2
1.99999
1.99998
1.99996
1.99994
1.99993
1.99996
2.00005
2.00026
2.0006
2.00107
2.00163
2.00221
2.00274
2.00315
2.00341
2.0035
2.00341
2.00315
2.00273
2.0022
2.00161
2.00103
2.00054
2.00019
2.00001
2
2
2
2
2
2
2
2
2
2
2
2
2
2
2
1.99999
1.99998
1.99997
1.99995
1.99993
1.99994
2
2.00015
2.00041
2.00079
2.00125
2.00174
2.0022
2.00257
2.00281
2.00289
2.00281
2.00257
2.0022
2.00173
2.00123
2.00075
2.00036
2.00008
1.99994
2
2
2
2
2
2
2
2
2
2
2
2
2
2
2
2
1.99999
1.99997
1.99995
1.99993
1.99993
1.99996
2.00005
2.00023
2.0005
2.00085
2.00124
2.00161
2.00192
2.00211
2.00218
2.00212
2.00192
2.00161
2.00123
2.00084
2.00047
2.00018
1.99998
1.99988
2
2
2
2
2
2
2
2
2
2
2
2
2
2
2
2
1.99999
1.99998
1.99996
1.99994
1.99992
1.99993
1.99997
2.00007
2.00025
2.00048
2.00076
2.00103
2.00126
2.00142
2.00147
2.00142
2.00126
2.00103
2.00075
2.00047
2.00023
2.00003
1.99991
1.99985
2
2
2
2
2
2
2
2
2
2
2
2
2
2
2
2
1.99999
1.99999
1.99997
1.99995
1.99993
1.99991
1.99992
1.99996
2.00005
2.00019
2.00036
2.00054
2.0007
2.00081
2.00085
2.00081
2.0007
2.00054
2.00036
2.00018
2.00003
1.99993
1.99987
1.99984
2
2
2
2
2
2
2
2
2
2
2
2
2
2
2
2
2
1.99999
1.99998
1.99996
1.99993
1.99991
1.99989
1.99989
1.99992
1.99998
2.00008
2.00019
2.00029
2.00036
2.00039
2.00036
2.00029
2.00019
2.00008
1.99998
1.99991
1.99987
1.99985
1.99984
2
2
2
2
2
2
2
2
2
2
2
2
2
2
2
2
2
1.99999
1.99998
1.99997
1.99994
1.99991
1.99988
1.99986
1.99986
1.99988
1.99994
2.00001
2.00008
2.00013
2.00014
2.00013
2.00008
2.00001
1.99994
1.99988
1.99985
1.99984
1.99984
1.99985
