# vtk DataFile Version 3.0
Brusselator Concentration Output
ASCII
DATASET STRUCTURED_POINTS
DIMENSIONS 40 40 1
ORIGIN 0.0 0.0 0.0
SPACING 0.005 0.005 1.0
POINT_DATA 1600
SCALARS C1 double 1
LOOKUP_TABLE default
1.0001
1.00013
1.0002
1.00028
1.00036
1.00043
1.00048
1.0005
1.00051
1.00051
1.00051
1.00051
1.00051
1.0005
1.00048
1.00044
1.00037
1.00029
1.0002
1.00013
1.00007
1.00003
1.00001
0.999998
0.999995
0.999996
0.999997
0.999999
0.999999
1
1
1
1
1
1
1
1
1
1
1
1.00013
1.00017
1.00023
1.0003
1.00036
1.00039
1.0004
1.00038
1.00035
1.00032
1.00031
1.00032
1.00035
1.00038
1.0004
1.0004
1.00036
1.0003
1.00023
1.00015
1.00009
1.00004
1.00002
1
0.999997
0.999997
0.999997
0.999999
0.999999
1
1
1
1
1
1
1
1
1
1
1
1.0002
1.00023
1.00027
1.00031
1.00032
1.00029
1.00021
1.0001
0.999997
0.99992
0.999892
0.99992
0.999998
1.0001
1.00021
1.00029
1.00032
1.00031
1.00026
1.0002
1.00013
1.00007
1.00003
1.00001
1
0.999998
0.999998
0.999998
0.999999
1
1
1
1
1
1
1
1
1
1
1
1.00028
1.0003
1.00031
1.00029
1.00022
1.00007
0.999862
0.99963
0.999417
0.999268
0.999215
0.999269
0.999418
0.999631
0.999864
1.00007
1.00022
1.00029
1.00029
1.00024
1.00017
1.00011
1.00006
1.00002
1.00001
1
0.999998
0.999998
0.999999
0.999999
1
1
1
1
1
1
1
1
1
1
1.00036
1.00036
1.00032
1.00022
1.00002
0.999715
0.999342
0.99895
0.998606
0.998372
0.998289
0.998372
0.998607
0.998951
0.999343
0.999717
1.00001
1.0002
1.00028
1.00027
1.00022
1.00015
1.00008
1.00004
1.00001
1
0.999999
0.999998
0.999999
0.999999
1
1
1
1
1
1
1
1
1
1
1.00043
1.00039
1.00029
1.00007
0.999715
0.999233
0.998669
0.998102
0.997618
0.997294
0.99718
0.997294
0.997619
0.998103
0.998671
0.999233
0.999709
1.00004
1.00023
1.00028
1.00025
1.00018
1.00011
1.00006
1.00002
1.00001
1
0.999998
0.999999
0.999999
1
1
1
1
1
1
1
1
1
1
1.00048
1.0004
1.00021
0.999862
0.999342
0.998669
0.997913
0.997175
0.996559
0.996152
0.99601
0.996153
0.99656
0.997177
0.997915
0.998668
0.999331
0.999828
1.00013
1.00026
1.00027
1.00021
1.00014
1.00007
1.00003
1.00001
1
0.999999
0.999998
0.999999
1
1
1
1
1
1
1
1
1
1
1.0005
1.00038
1.0001
0.99963
0.99895
0.998102
0.997175
0.996289
0.995563
0.995089
0.994925
0.995089
0.995564
0.996291
0.997176
0.998099
0.998935
0.999587
1.00001
1.00022
1.00027
1.00023
1.00016
1.00009
1.00004
1.00002
1
0.999999
0.999998
0.999999
0.999999
1
1
1
1
1
1
1
1
1
1.00051
1.00035
0.999997
0.999417
0.998606
0.997618
0.996559
0.995563
0.994756
0.994235
0.994055
0.994235
0.994757
0.995564
0.996559
0.997613
0.998587
0.999368
0.999896
1.00018
1.00027
1.00024
1.00017
1.0001
1.00005
1.00002
1
0.999999
0.999998
0.999999
0.999999
1
1
1
1
1
1
1
1
1
1.00051
1.00032
0.99992
0.999268
0.998372
0.997294
0.996152
0.995089
0.994235
0.993686
0.993498
0.993687
0.994236
0.99509
0.996152
0.997288
0.998351
0.999214
0.999811
1.00014
1.00026
1.00025
1.00018
1.00011
1.00005
1.00002
1.00001
1
0.999999
0.999999
0.999999
1
1
1
1
1
1
1
1
1
1.00051
1.00031
0.999892
0.999215
0.998289
0.99718
0.99601
0.994925
0.994055
0.993498
0.993306
0.993498
0.994056
0.994926
0.996011
0.997174
0.998267
0.99916
0.99978
1.00013
1.00026
1.00025
1.00018
1.00011
1.00006
1.00002
1.00001
1
0.999999
0.999999
1
1
1
1
1
1
1
1
1
1
1.00051
1.00032
0.99992
0.999269
0.998372
0.997294
0.996153
0.995089
0.994235
0.993687
0.993498
0.993687
0.994236
0.995091
0.996153
0.997289
0.998351
0.999215
0.999811
1.00014
1.00026
1.00025
1.00018
1.00011
1.00005
1.00002
1.00001
1
0.999999
0.999999
1
1
1
1
1
1
1
1
1
1
1.00051
1.00035
0.999998
0.999418
0.998607
0.997619
0.99656
0.995564
0.994757
0.994236
0.994056
0.994236
0.994758
0.995565
0.99656
0.997614
0.998588
0.999368
0.999896
1.00018
1.00027
1.00024
1.00017
1.0001
1.00005
1.00002
1.00001
1
0.999999
1
1
1
1
1
1
1
1
1
1
1
1.0005
1.00038
1.0001
0.999631
0.998951
0.998103
0.997177
0.996291
0.995564
0.99509
0.994926
0.995091
0.995565
0.996292
0.997178
0.9981
0.998936
0.999589
1.00001
1.00022
1.00027
1.00023
1.00016
1.00009
1.00004
1.00002
1
1
0.999999
1
1
1
1
1
1
1
1
1
1
1
1.00048
1.0004
1.00021
0.999864
0.999343
0.998671
0.997915
0.997176
0.996559
0.996152
0.996011
0.996153
0.99656
0.997178
0.997916
0.998669
0.999332
0.99983
1.00013
1.00026
1.00027
1.00021
1.00014
1.00008
1.00003
1.00001
1
0.999998
0.999998
0.999998
0.999998
0.999999
0.999999
1
1
1
1
1
1
1
1.00044
1.0004
1.00029
1.00007
0.999717
0.999233
0.998668
0.998099
0.997613
0.997288
0.997174
0.997289
0.997614
0.9981
0.998669
0.999233
0.99971
1.00005
1.00023
1.00028
1.00025
1.00018
1.00011
1.00006
1.00002
1.00001
0.999997
0.999994
0.999993
0.999992
0.999993
0.999993
0.999994
0.999996
0.999997
0.999999
1
1
1
1
1.00037
1.00036
1.00032
1.00022
1.00001
0.999709
0.999331
0.998935
0.998587
0.998351
0.998267
0.998351
0.998588
0.998936
0.999332
0.99971
1.00001
1.0002
1.00028
1.00028
1.00022
1.00015
1.00009
1.00004
1.00001
0.999995
0.999987
0.999983
0.999981
0.999979
0.999979
0.99998
0.999982
0.999985
0.999989
0.999993
0.999996
0.999999
1
1
1.00029
1.0003
1.00031
1.00029
1.0002
1.00004
0.999828
0.999587
0.999368
0.999214
0.99916
0.999215
0.999368
0.999589
0.99983
1.00005
1.0002
1.00028
1.00029
1.00024
1.00018
1.00011
1.00006
1.00002
0.999993
0.999979
0.999969
0.999962
0.999958
0.999955
0.999954
0.999955
0.999959
0.999964
0.999971
0.999979
0.999987
0.999993
0.999998
1
1.0002
1.00023
1.00026
1.00029
1.00028
1.00023
1.00013
1.00001
0.999896
0.999811
0.99978
0.999811
0.999896
1.00001
1.00013
1.00023
1.00028
1.00029
1.00025
1.00019
1.00013
1.00007
1.00002
0.999992
0.999969
0.999953
0.99994
0.99993
0.999922
0.999918
0.999916
0.999918
0.999923
0.999932
0.999942
0.999955
0.999968
0.99998
0.999989
0.999994
1.00013
1.00015
1.0002
1.00024
1.00027
1.00028
1.00026
1.00022
1.00018
1.00014
1.00013
1.00014
1.00018
1.00022
1.00026
1.00028
1.00028
1.00024
1.00019
1.00013
1.00008
1.00003
0.999991
0.999961
0.999937
0.999917
0.9999
0.999888
0.99988
0.999875
0.999873
0.999875
0.99988
0.99989
0.999903
0.99992
0.999939
0.999957
0.999971
0.999979
1.00007
1.00009
1.00013
1.00017
1.00022
1.00025
1.00027
1.00027
1.00027
1.00026
1.00026
1.00026
1.00027
1.00027
1.00027
1.00025
1.00022
1.00018
1.00013
1.00008
1.00003
0.99999
0.999955
0.999924
0.999897
0.999875
0.999859
0.99985
0.999845
0.999843
0.999843
0.999844
0.999846
0.999851
0.999862
0.999879
0.9999
0.999923
0.999942
0.999952
1.00003
1.00004
1.00007
1.00011
1.00015
1.00018
1.00021
1.00023
1.00024
1.00025
1.00025
1.00025
1.00024
1.00023
1.00021
1.00018
1.00015
1.00011
1.00007
1.00003
0.99999
0.999953
0.999917
0.999884
0.999857
0.99984
0.999834
0.999837
0.999845
0.999853
0.999857
0.999854
0.999846
0.999839
0.999836
0.999843
0.999859
0.999881
0.999901
0.999914
1.00001
1.00002
1.00003
1.00006
1.00008
1.00011
1.00014
1.00016
1.00017
1.00018
1.00018
1.00018
1.00017
1.00016
1.00014
1.00011
1.00009
1.00006
1.00002
0.999991
0.999955
0.999917
0.99988
0.999849
0.999831
0.999832
0.99985
0.999881
0.999916
0.999942
0.999952
0.999943
0.999917
0.999883
0.999852
0.999833
0.99983
0.999839
0.999854
0.999864
0.999998
1
1.00001
1.00002
1.00004
1.00006
1.00007
1.00009
1.0001
1.00011
1.00011
1.00011
1.0001
1.00009
1.00008
1.00006
1.00004
1.00002
0.999992
0.999961
0.999924
0.999884
0.999849
0.999829
0.999834
0.99987
0.999933
1.00001
1.00009
1.00014
1.00016
1.00014
1.00009
1.00001
0.999934
0.999869
0.999827
0.999809
0.999807
0.99981
0.999995
0.999997
1
1.00001
1.00001
1.00002
1.00003
1.00004
1.00005
1.00005
1.00006
1.00005
1.00005
1.00004
1.00003
1.00002
1.00001
0.999993
0.999969
0.999937
0.999897
0.999857
0.999831
0.999834
0.999879
0.99997
1.0001
1.00024
1.00037
1.00047
1.0005
1.00047
1.00037
1.00024
1.0001
0.999966
0.999865
0.999802
0.99977
0.999759
0.999996
0.999997
0.999998
1
1
1.00001
1.00001
1.00002
1.00002
1.00002
1.00002
1.00002
1.00002
1.00002
1.00001
1.00001
0.999995
0.999979
0.999953
0.999917
0.999875
0.99984
0.999832
0.99987
0.99997
1.00013
1.00034
1.00056
1.00076
1.00089
1.00094
1.0009
1.00076
1.00056
1.00034
1.00012
0.999949
0.999825
0.999752
0.999719
0.999997
0.999997
0.999998
0.999998
0.999999
1
1
1
1
1.00001
1.00001
1.00001
1.00001
1
1
0.999997
0.999987
0.999969
0.99994
0.9999
0.999859
0.999834
0.99985
0.999933
1.0001
1.00034
1.00064
1.00094
1.0012
1.00138
1.00144
1.00138
1.0012
1.00094
1.00063
1.00033
1.00007
0.999875
0.999753
0.999696
0.999999
0.999999
0.999998
0.999998
0.999998
0.999998
0.999999
0.999999
0.999999
1
1
1
1
1
0.999998
0.999994
0.999983
0.999962
0.99993
0.999888
0.99985
0.999837
0.999881
1.00001
1.00024
1.00056
1.00094
1.00132
1.00164
1.00186
1.00193
1.00186
1.00164
1.00132
1.00094
1.00055
1.00021
0.999943
0.999771
0.999688
0.999999
0.999999
0.999999
0.999999
0.999999
0.999999
0.999998
0.999998
0.999998
0.999999
0.999999
0.999999
0.999999
0.999999
0.999998
0.999993
0.999981
0.999958
0.999922
0.99988
0.999845
0.999845
0.999916
1.00009
1.00037
1.00076
1.0012
1.00164
1.00201
1.00226
1.00234
1.00226
1.00201
1.00164
1.0012
1.00074
1.00033
1.00001
0.999796
0.999691
1
1
1
0.999999
0.999999
0.999999
0.999999
0.999999
0.999999
0.999999
0.999999
0.999999
1
1
0.999998
0.999992
0.999979
0.999955
0.999918
0.999875
0.999843
0.999853
0.999942
1.00014
1.00047
1.00089
1.00138
1.00186
1.00226
1.00252
1.00261
1.00252
1.00226
1.00186
1.00137
1.00087
1.00042
1.00006
0.999817
0.999697
1
1
1
1
1
1
1
0.999999
0.999999
0.999999
1
1
1
1
0.999998
0.999993
0.999979
0.999954
0.999916
0.999873
0.999843
0.999857
0.999952
1.00016
1.0005
1.00094
1.00144
1.00193
1.00234
1.00261
1.0027
1.00261
1.00234
1.00193
1.00144
1.00092
1.00045
1.00008
0.999826
0.9997
1
1
1
1
1
1
1
1
1
1
1
1
1
1
0.999999
0.999993
0.99998
0.999955
0.999918
0.999875
0.999844
0.999854
0.999943
1.00014
1.00047
1.0009
1.00138
1.00186
1.00226
1.00252
1.00261
1.00252
1.00226
1.00186
1.00137
1.00088
1.00042
1.00006
0.999818
0.999697
1
1
1
1
1
1
1
1
1
1
1
1
1
1
0.999999
0.999994
0.999982
0.999959
0.999923
0.99988
0.999846
0.999846
0.999917
1.00009
1.00037
1.00076
1.0012
1.00164
1.00201
1.00226
1.00234
1.00226
1.00201
1.00164
1.0012
1.00074
1.00033
1.00001
0.999797
0.999692
1
1
1
1
1
1
1
1
1
1
1
1
1
1
1
0.999996
0.999985
0.999964
0.999932
0.99989
0.999851
0.999839
0.999883
1.00001
1.00024
1.00056
1.00094
1.00132
1.00164
1.00186
1.00193
1.00186
1.00164
1.00132
1.00094
1.00055
1.00021
0.999944
0.999773
0.99969
1
1
1
1
1
1
1
1
1
1
1
1
1
1
1
0.999997
0.999989
0.999971
0.999942
0.999903
0.999862
0.999836
0.999852
0.999934
1.0001
1.00034
1.00063
1.00094
1.0012
1.00137
1.00144
1.00137
1.0012
1.00094
1.00063
1.00033
1.00007
0.999876
0.999755
0.999698
1
1
1
1
1
1
1
1
1
1
1
1
1
1
1
0.999999
0.999993
0.999979
0.999955
0.99992
0.999879
0.999843
0.999833
0.999869
0.999966
1.00012
1.00033
1.00055
1.00074
1.00087
1.00092
1.00088
1.00074
1.00055
1.00033
1.00012
0.999945
0.999824
0.999753
0.999722
1
1
1
1
1
1
1
1
1
1
1
1
1
1
1
1
0.999996
0.999987
0.999968
0.999939
0.9999
0.999859
0.99983
0.999827
0.999865
0.999949
1.00007
1.00021
1.00033
1.00042
1.00045
1.00042
1.00033
1.00021
1.00007
0.999945
0.999852
0.999795
0.999768
0.999759
1
1
1
1
1
1
1
1
1
1
1
1
1
1
1
1
0.999999
0.999993
0.99998
0.999957
0.999923
0.999881
0.999839
0.999809
0.999802
0.999825
0.999875
0.999943
1.00001
1.00006
1.00008
1.00006
1.00001
0.999944
0.999876
0.999824
0.999795
0.999789
0.999796
0.999804
1
1
1
1
1
1
1
1
1
1
1
1
1
1
1
1
1
0.999998
0.999989
0.999971
0.999942
0.999901
0.999854
0.999807
0.99977
0.999752
0.999753
0.999771
0.999796
0.999817
0.999826
0.999818
0.999797
0.999773
0.999755
0.999753
0.999768
0.999796
0.999825
0.999843
1
1
1
1
1
1
1
1
1
1
1
1
1
1
1
1
1
1
0.999994
0.999979
0.999952
0.999914
0.999864
0.99981
0.999759
0.999719
0.999696
0.999688
0.999691
0.999697
0.9997
0.999697
0.999692
0.99969
0.999698
0.999722
0.999759
0.999804
0.999843
0.999866
SCALARS C2 double 1
LOOKUP_TABLE default
2
1.99995
1.99985
1.99971
1.99954
1.99935
1.99917
1.99901
1.9989
1.99882
1.9988
1.99882
1.9989
1.99901
1.99917
1.99935
1.99953
1.9997
1.99983
1.99993
1.99999
2.00001
2.00002
2.00002
2.00001
2.00001
2
2
2
2
2
2
2
2
2
2
2
2
2
2
1.99995
1.99989
1.99977
1.99961
1.99943
1.99924
1.99906
1.99893
1.99883
1.99877
1.99876
1.99877
1.99883
1.99893
1.99906
1.99923
1.99942
1.9996
1.99976
1.99988
1.99995
2
2.00001
2.00002
2.00001
2.00001
2
2
2
2
2
2
2
2
2
2
2
2
2
2
1.99985
1.99977
1.99963
1.99944
1.99924
1.99906
1.99892
1.99883
1.99878
1.99877
1.99876
1.99877
1.99878
1.99883
1.99892
1.99905
1.99923
1.99943
1.99962
1.99978
1.99989
1.99996
2
2.00001
2.00001
2.00001
2
2
2
2
2
2
2
2
2
2
2
2
2
2
1.99971
1.99961
1.99944
1.99923
1.99904
1.9989
1.99884
1.99885
1.9989
1.99895
1.99898
1.99895
1.9989
1.99885
1.99883
1.99889
1.99903
1.99922
1.99944
1.99964
1.9998
1.99991
1.99997
2
2.00001
2.00001
2.00001
2
2
2
2
2
2
2
2
2
2
2
2
2
1.99954
1.99943
1.99924
1.99904
1.99889
1.99885
1.99893
1.9991
1.9993
1.99946
1.99952
1.99946
1.9993
1.9991
1.99892
1.99884
1.99888
1.99903
1.99925
1.99949
1.99969
1.99984
1.99994
1.99999
2
2.00001
2.00001
2
2
2
2
2
2
2
2
2
2
2
2
2
1.99935
1.99924
1.99906
1.9989
1.99885
1.99896
1.99925
1.99964
2.00004
2.00034
2.00044
2.00034
2.00004
1.99964
1.99924
1.99896
1.99884
1.9989
1.99909
1.99934
1.99958
1.99977
1.9999
1.99997
2
2.00001
2.00001
2
2
2
2
2
2
2
2
2
2
2
2
2
1.99917
1.99906
1.99892
1.99884
1.99893
1.99925
1.99978
2.00043
2.00106
2.00151
2.00167
2.00151
2.00105
2.00043
1.99977
1.99924
1.99892
1.99885
1.99897
1.99921
1.99947
1.9997
1.99985
1.99995
1.99999
2.00001
2.00001
2.00001
2
2
2
2
2
2
2
2
2
2
2
2
1.99901
1.99893
1.99883
1.99885
1.9991
1.99964
2.00043
2.00134
2.00219
2.00279
2.00301
2.00279
2.00219
2.00134
2.00042
1.99963
1.9991
1.99887
1.9989
1.99911
1.99938
1.99963
1.99981
1.99993
1.99998
2
2.00001
2.00001
2
2
2
2
2
2
2
2
2
2
2
2
1.9989
1.99883
1.99878
1.9989
1.9993
2.00004
2.00106
2.00219
2.00323
2.00395
2.00421
2.00395
2.00323
2.00219
2.00105
2.00003
1.9993
1.99893
1.99888
1.99905
1.99932
1.99958
1.99978
1.99991
1.99997
2
2.00001
2.00001
2
2
2
2
2
2
2
2
2
2
2
2
1.99882
1.99877
1.99877
1.99895
1.99946
2.00034
2.00151
2.00279
2.00395
2.00476
2.00505
2.00476
2.00395
2.00279
2.0015
2.00033
1.99946
1.99899
1.99887
1.99901
1.99928
1.99955
1.99976
1.9999
1.99997
2
2.00001
2.00001
2
2
2
2
2
2
2
2
2
2
2
2
1.9988
1.99876
1.99876
1.99898
1.99952
2.00044
2.00167
2.00301
2.00421
2.00505
2.00535
2.00505
2.00421
2.003
2.00166
2.00044
1.99952
1.99901
1.99887
1.999
1.99926
1.99954
1.99975
1.99989
1.99997
2
2.00001
2.00001
2
2
2
2
2
2
2
2
2
2
2
2
1.99882
1.99877
1.99877
1.99895
1.99946
2.00034
2.00151
2.00279
2.00395
2.00476
2.00505
2.00476
2.00395
2.00279
2.0015
2.00033
1.99946
1.99899
1.99887
1.99901
1.99928
1.99955
1.99976
1.9999
1.99997
2
2.00001
2.00001
2
2
2
2
2
2
2
2
2
2
2
2
1.9989
1.99883
1.99878
1.9989
1.9993
2.00004
2.00105
2.00219
2.00323
2.00395
2.00421
2.00395
2.00323
2.00219
2.00105
2.00003
1.9993
1.99893
1.99888
1.99905
1.99932
1.99958
1.99978
1.99991
1.99997
2
2.00001
2
2
2
2
2
2
2
2
2
2
2
2
2
1.99901
1.99893
1.99883
1.99885
1.9991
1.99964
2.00043
2.00134
2.00219
2.00279
2.003
2.00279
2.00219
2.00134
2.00042
1.99963
1.99909
1.99886
1.9989
1.99911
1.99938
1.99963
1.99981
1.99992
1.99998
2
2.00001
2
2
2
2
2
2
2
2
2
2
2
2
2
1.99917
1.99906
1.99892
1.99883
1.99892
1.99924
1.99977
2.00042
2.00105
2.0015
2.00166
2.0015
2.00105
2.00042
1.99977
1.99923
1.99892
1.99884
1.99897
1.99921
1.99947
1.9997
1.99985
1.99994
1.99999
2
2
2
2
2
2
2
2
2
2
2
2
2
2
2
1.99935
1.99923
1.99905
1.99889
1.99884
1.99896
1.99924
1.99963
2.00003
2.00033
2.00044
2.00033
2.00003
1.99963
1.99923
1.99895
1.99883
1.99889
1.99908
1.99933
1.99958
1.99977
1.99989
1.99996
1.99999
2
2
2
2
2
2
2
2
2
2
2
1.99999
2
2
2
1.99953
1.99942
1.99923
1.99903
1.99888
1.99884
1.99892
1.9991
1.9993
1.99946
1.99952
1.99946
1.9993
1.99909
1.99892
1.99883
1.99887
1.99902
1.99924
1.99948
1.99969
1.99984
1.99993
1.99998
2
2.00001
2.00001
2.00001
2.00001
2.00001
2.00001
2.00001
2
2
2
2
1.99999
1.99999
1.99999
1.99999
1.9997
1.9996
1.99943
1.99922
1.99903
1.9989
1.99885
1.99887
1.99893
1.99899
1.99901
1.99899
1.99893
1.99886
1.99884
1.99889
1.99902
1.99921
1.99943
1.99963
1.99979
1.9999
1.99996
2
2.00001
2.00002
2.00002
2.00003
2.00003
2.00003
2.00004
2.00003
2.00003
2.00002
2.00001
2.00001
2
1.99999
1.99999
1.99999
1.99983
1.99976
1.99962
1.99944
1.99925
1.99909
1.99897
1.9989
1.99888
1.99887
1.99887
1.99887
1.99888
1.9989
1.99897
1.99908
1.99924
1.99943
1.99961
1.99976
1.99987
1.99995
1.99999
2.00001
2.00003
2.00004
2.00005
2.00007
2.00008
2.00009
2.00009
2.00009
2.00008
2.00007
2.00005
2.00003
2.00002
2
1.99999
1.99999
1.99993
1.99988
1.99978
1.99964
1.99949
1.99934
1.99921
1.99911
1.99905
1.99901
1.999
1.99901
1.99905
1.99911
1.99921
1.99933
1.99948
1.99963
1.99976
1.99987
1.99994
1.99999
2.00002
2.00004
2.00006
2.00009
2.00012
2.00015
2.00017
2.00019
2.00019
2.00019
2.00017
2.00015
2.00012
2.00008
2.00005
2.00002
2
1.99999
1.99999
1.99995
1.99989
1.9998
1.99969
1.99958
1.99947
1.99938
1.99932
1.99928
1.99926
1.99928
1.99932
1.99938
1.99947
1.99958
1.99969
1.99979
1.99987
1.99994
1.99998
2.00002
2.00005
2.00008
2.00013
2.00017
2.00022
2.00027
2.0003
2.00032
2.00033
2.00032
2.0003
2.00026
2.00022
2.00017
2.00011
2.00007
2.00003
2.00001
2.00001
2
1.99996
1.99991
1.99984
1.99977
1.9997
1.99963
1.99958
1.99955
1.99954
1.99955
1.99958
1.99963
1.9997
1.99977
1.99984
1.9999
1.99995
1.99999
2.00002
2.00005
2.00009
2.00015
2.00022
2.00029
2.00036
2.00041
2.00046
2.00048
2.00049
2.00048
2.00045
2.00041
2.00035
2.00028
2.00021
2.00014
2.00008
2.00006
2.00002
2.00001
2
1.99997
1.99994
1.9999
1.99985
1.99981
1.99978
1.99976
1.99975
1.99976
1.99978
1.99981
1.99985
1.99989
1.99993
1.99996
1.99999
2.00002
2.00005
2.00009
2.00016
2.00024
2.00034
2.00043
2.0005
2.00056
2.0006
2.00062
2.00062
2.00062
2.0006
2.00056
2.0005
2.00042
2.00033
2.00024
2.00016
2.00012
2.00002
2.00002
2.00001
2
1.99999
1.99997
1.99995
1.99993
1.99991
1.9999
1.99989
1.9999
1.99991
1.99992
1.99994
1.99996
1.99998
2
2.00001
2.00004
2.00008
2.00015
2.00024
2.00035
2.00046
2.00056
2.00063
2.00067
2.00068
2.00068
2.00068
2.00068
2.00068
2.00067
2.00063
2.00055
2.00046
2.00036
2.00027
2.00022
2.00001
2.00001
2.00001
2.00001
2
2
1.99999
1.99998
1.99997
1.99997
1.99997
1.99997
1.99997
1.99998
1.99999
1.99999
2
2.00001
2.00003
2.00006
2.00013
2.00022
2.00034
2.00046
2.00058
2.00066
2.00069
2.00068
2.00065
2.00061
2.0006
2.00061
2.00065
2.00068
2.00069
2.00065
2.00058
2.00048
2.00039
2.00033
2.00001
2.00001
2.00001
2.00001
2.00001
2.00001
2.00001
2
2
2
2
2
2
2
2
2
2.00001
2.00002
2.00004
2.00009
2.00017
2.00029
2.00043
2.00056
2.00066
2.0007
2.00067
2.00058
2.00047
2.00039
2.00035
2.00038
2.00047
2.00058
2.00066
2.00069
2.00067
2.00059
2.00051
2.00046
2
2
2
2.00001
2.00001
2.00001
2.00001
2.00001
2.00001
2.00001
2.00001
2.00001
2.00001
2.00001
2
2
2.00001
2.00002
2.00005
2.00012
2.00022
2.00036
2.0005
2.00063
2.00069
2.00067
2.00055
2.00036
2.00016
2.00001
1.99996
2.00001
2.00016
2.00036
2.00054
2.00066
2.00071
2.00068
2.00062
2.00058
2
2
2
2
2
2
2.00001
2.00001
2.00001
2.00001
2.00001
2.00001
2
2
2
2
2.00001
2.00003
2.00007
2.00015
2.00027
2.00041
2.00056
2.00067
2.00068
2.00058
2.00036
2.00007
1.99978
1.99957
1.99949
1.99957
1.99978
2.00007
2.00036
2.00058
2.00071
2.00073
2.00071
2.00068
2
2
2
2
2
2
2
2
2
2
2
2
2
2
2
2
2.00001
2.00003
2.00008
2.00017
2.0003
2.00046
2.0006
2.00068
2.00065
2.00047
2.00016
1.99978
1.99941
1.99914
1.99904
1.99914
1.9994
1.99978
2.00016
2.00048
2.00068
2.00076
2.00077
2.00075
2
2
2
2
2
2
2
2
2
2
2
2
2
2
2
2
2.00001
2.00003
2.00009
2.00019
2.00032
2.00048
2.00062
2.00068
2.00061
2.00039
2.00001
1.99957
1.99914
1.99883
1.99872
1.99883
1.99914
1.99956
2.00001
2.00039
2.00065
2.00077
2.0008
2.0008
2
2
2
2
2
2
2
2
2
2
2
2
2
2
2
2
2.00001
2.00004
2.00009
2.00019
2.00033
2.00049
2.00062
2.00068
2.0006
2.00035
1.99996
1.99949
1.99904
1.99872
1.9986
1.99872
1.99904
1.99948
1.99996
2.00036
2.00063
2.00077
2.00082
2.00082
2
2
2
2
2
2
2
2
2
2
2
2
2
2
2
2
2.00001
2.00003
2.00009
2.00019
2.00032
2.00048
2.00062
2.00068
2.00061
2.00038
2.00001
1.99957
1.99914
1.99883
1.99872
1.99883
1.99913
1.99956
2.00001
2.00039
2.00065
2.00077
2.0008
2.0008
2
2
2
2
2
2
2
2
2
2
2
2
2
2
2
2
2
2.00003
2.00008
2.00017
2.0003
2.00045
2.0006
2.00068
2.00065
2.00047
2.00016
1.99978
1.9994
1.99914
1.99904
1.99913
1.9994
1.99977
2.00016
2.00047
2.00068
2.00076
2.00077
2.00075
2
2
2
2
2
2
2
2
2
2
2
2
2
2
2
2
2
2.00002
2.00007
2.00015
2.00026
2.00041
2.00056
2.00067
2.00068
2.00058
2.00036
2.00007
1.99978
1.99956
1.99948
1.99956
1.99977
2.00006
2.00035
2.00058
2.0007
2.00073
2.00071
2.00068
2
2
2
2
2
2
2
2
2
2
2
2
2
2
2
2
2
2.00001
2.00005
2.00012
2.00022
2.00035
2.0005
2.00063
2.00069
2.00066
2.00054
2.00036
2.00016
2.00001
1.99996
2.00001
2.00016
2.00035
2.00054
2.00066
2.0007
2.00067
2.00062
2.00057
2
2
2
2
2
2
2
2
2
2
2
2
2
2
2
2
2
2.00001
2.00003
2.00008
2.00017
2.00028
2.00042
2.00055
2.00065
2.00069
2.00066
2.00058
2.00048
2.00039
2.00036
2.00039
2.00047
2.00058
2.00066
2.00069
2.00066
2.00059
2.0005
2.00045
2
2
2
2
2
2
2
2
2
2
2
2
2
2
2
1.99999
1.99999
2
2.00002
2.00005
2.00011
2.00021
2.00033
2.00046
2.00058
2.00067
2.00071
2.00071
2.00068
2.00065
2.00063
2.00065
2.00068
2.0007
2.0007
2.00066
2.00058
2.00047
2.00038
2.00032
2
2
2
2
2
2
2
2
2
2
2
2
2
2
2
2
1.99999
1.99999
2
2.00002
2.00007
2.00014
2.00024
2.00036
2.00048
2.00059
2.00068
2.00073
2.00076
2.00077
2.00077
2.00077
2.00076
2.00073
2.00067
2.00059
2.00047
2.00036
2.00026
2.00021
2
2
2
2
2
2
2
2
2
2
2
2
2
2
2
2
1.99999
1.99999
1.99999
2
2.00003
2.00008
2.00016
2.00027
2.00039
2.00051
2.00062
2.00071
2.00077
2.0008
2.00082
2.0008
2.00077
2.00071
2.00062
2.0005
2.00038
2.00026
2.00017
2.00012
2
2
2
2
2
2
2
2
2
2
2
2
2
2
2
2
1.99999
1.99999
1.99999
1.99999
2.00001
2.00006
2.00012
2.00022
2.00033
2.00046
2.00058
2.00068
2.00075
2.0008
2.00082
2.0008
2.00075
2.00068
2.00057
2.00045
2.00032
2.00021
2.00012
2.00007
