# vtk DataFile Version 3.0
Brusselator Concentration Output
ASCII
DATASET STRUCTURED_POINTS
DIMENSIONS 40 40 1
ORIGIN 0.0 0.0 0.0
SPACING 0.005 0.005 1.0
POINT_DATA 1600
SCALARS C1 double 1
LOOKUP_TABLE default
0.999996
0.999999
1.00001
1.00002
1.00005
1.00009
1.00013
1.00017
1.0002
1.00022
1.00022
1.00022
1.0002
1.00017
1.00013
1.00009
1.00005
1.00002
1.00001
1
0.999998
0.999998
0.999999
0.999999
1
1
1
1
1
1
1
1
1
1
1
1
1
1
1
1
0.999999
1.00001
1.00002
1.00005
1.00009
1.00014
1.00018
1.00022
1.00023
1.00024
1.00024
1.00024
1.00023
1.00022
1.00018
1.00014
1.00009
1.00005
1.00002
1.00001
1
0.999999
0.999999
0.999999
1
1
1
1
1
1
1
1
1
1
1
1
1
1
1
1
1.00001
1.00002
1.00005
1.0001
1.00016
1.00021
1.00024
1.00023
1.0002
1.00016
1.00015
1.00016
1.0002
1.00023
1.00024
1.00021
1.00016
1.0001
1.00005
1.00002
1.00001
1
0.999999
0.999999
1
1
1
1
1
1
1
1
1
1
1
1
1
1
1
1
1.00002
1.00005
1.0001
1.00017
1.00023
1.00025
1.0002
1.00008
0.999914
0.999778
0.999725
0.999778
0.999914
1.00008
1.0002
1.00025
1.00023
1.00017
1.0001
1.00005
1.00002
1.00001
1
0.999999
0.999999
1
1
1
1
1
1
1
1
1
1
1
1
1
1
1
1.00005
1.00009
1.00016
1.00023
1.00026
1.00017
0.999925
0.999551
0.999141
0.998824
0.998705
0.998824
0.999141
0.999551
0.999925
1.00017
1.00026
1.00023
1.00016
1.00009
1.00004
1.00001
1
1
0.999999
1
1
1
1
1
1
1
1
1
1
1
1
1
1
1
1.00009
1.00014
1.00021
1.00025
1.00017
0.999856
0.999277
0.998509
0.997732
0.997159
0.996949
0.997159
0.997732
0.998509
0.999277
0.999856
1.00017
1.00025
1.00021
1.00013
1.00006
1.00003
1.00001
1
0.999999
0.999999
1
1
1
1
1
1
1
1
1
1
1
1
1
1
1.00013
1.00018
1.00024
1.0002
0.999925
0.999277
0.998242
0.996977
0.995769
0.994913
0.994605
0.994913
0.995769
0.996977
0.998242
0.999278
0.999926
1.0002
1.00024
1.00017
1.00009
1.00004
1.00001
1
1
0.999999
1
1
1
1
1
1
1
1
1
1
1
1
1
1
1.00017
1.00022
1.00023
1.00008
0.999551
0.998509
0.996977
0.995212
0.993605
0.992506
0.992119
0.992506
0.993605
0.995212
0.996977
0.998509
0.999552
1.00008
1.00023
1.0002
1.00012
1.00005
1.00002
1
1
0.999999
1
1
1
1
1
1
1
1
1
1
1
1
1
1
1.0002
1.00023
1.0002
0.999914
0.999141
0.997732
0.995769
0.993605
0.991709
0.990454
0.990021
0.990454
0.991709
0.993605
0.995769
0.997732
0.999142
0.999913
1.00019
1.00021
1.00013
1.00007
1.00003
1.00001
1
1
1
1
1
1
1
1
1
1
1
1
1
1
1
1
1.00022
1.00024
1.00016
0.999778
0.998824
0.997159
0.994913
0.992506
0.990454
0.989128
0.988678
0.989128
0.990454
0.992506
0.994913
0.997159
0.998824
0.999776
1.00015
1.00021
1.00015
1.00007
1.00003
1.00001
1
1
1
1
1
1
1
1
1
1
1
1
1
1
1
1
1.00022
1.00024
1.00015
0.999725
0.998705
0.996949
0.994605
0.992119
0.990021
0.988678
0.988224
0.988678
0.990021
0.992119
0.994605
0.996949
0.998705
0.999723
1.00014
1.00021
1.00015
1.00008
1.00003
1.00001
1
1
1
1
1
1
1
1
1
1
1
1
1
1
1
1
1.00022
1.00024
1.00016
0.999778
0.998824
0.997159
0.994913
0.992506
0.990454
0.989128
0.988678
0.989128
0.990454
0.992506
0.994913
0.997159
0.998824
0.999776
1.00015
1.00021
1.00015
1.00007
1.00003
1.00001
1
1
1
1
1
1
1
1
1
1
1
1
1
1
1
1
1.0002
1.00023
1.0002
0.999914
0.999141
0.997732
0.995769
0.993605
0.991709
0.990454
0.990021
0.990454
0.99171
0.993605
0.995769
0.997732
0.999142
0.999913
1.00019
1.00021
1.00013
1.00007
1.00003
1.00001
1
1
1
1
1
1
1
1
1
1
1
1
1
1
1
1
1.00017
1.00022
1.00023
1.00008
0.999551
0.998509
0.996977
0.995212
0.993605
0.992506
0.992119
0.992506
0.993605
0.995212
0.996977
0.998509
0.999552
1.00008
1.00023
1.0002
1.00012
1.00005
1.00002
1
1
1
1
1
1
1
1
1
1
1
1
1
1
1
1
1
1.00013
1.00018
1.00024
1.0002
0.999925
0.999277
0.998242
0.996977
0.995769
0.994913
0.994605
0.994913
0.995769
0.996977
0.998242
0.999278
0.999926
1.0002
1.00024
1.00017
1.00009
1.00004
1.00001
1
1
1
1
1
1
1
1
1
1
1
1
1
1
1
1
1
1.00009
1.00014
1.00021
1.00025
1.00017
0.999856
0.999278
0.998509
0.997732
0.997159
0.996949
0.997159
0.997732
0.998509
0.999278
0.999856
1.00017
1.00025
1.00021
1.00013
1.00006
1.00003
1.00001
1
1
1
1
1
1
1
1
1
1
1
1
1
1
1
1
1
1.00005
1.00009
1.00016
1.00023
1.00026
1.00017
0.999926
0.999552
0.999142
0.998824
0.998705
0.998824
0.999142
0.999552
0.999926
1.00017
1.00026
1.00023
1.00016
1.00009
1.00004
1.00001
1
1
1
1
1
1
1
1
1
1
1
1
1
1
1
1
1
1
1.00002
1.00005
1.0001
1.00017
1.00023
1.00025
1.0002
1.00008
0.999913
0.999776
0.999723
0.999776
0.999913
1.00008
1.0002
1.00025
1.00023
1.00017
1.0001
1.00005
1.00002
1.00001
1
1
1
1
0.999999
0.999999
0.999998
0.999997
0.999997
0.999997
0.999998
0.999999
1
1
1
1
1
1
1.00001
1.00002
1.00005
1.0001
1.00016
1.00021
1.00024
1.00023
1.00019
1.00015
1.00014
1.00015
1.00019
1.00023
1.00024
1.00021
1.00016
1.0001
1.00005
1.00002
1.00001
1
1
1
0.999999
0.999998
0.999996
0.999993
0.999991
0.999989
0.999989
0.999989
0.999991
0.999993
0.999996
0.999998
1
1
1
1
1
1.00001
1.00002
1.00005
1.00009
1.00013
1.00017
1.0002
1.00021
1.00021
1.00021
1.00021
1.00021
1.0002
1.00017
1.00013
1.00009
1.00005
1.00002
1.00001
1
1
0.999999
0.999998
0.999996
0.999991
0.999985
0.999979
0.999973
0.99997
0.999968
0.99997
0.999973
0.999979
0.999985
0.999991
0.999996
0.999999
1
1
0.999998
1
1.00001
1.00002
1.00004
1.00006
1.00009
1.00012
1.00013
1.00015
1.00015
1.00015
1.00013
1.00012
1.00009
1.00006
1.00004
1.00002
1.00001
1
1
0.999999
0.999997
0.999993
0.999986
0.999975
0.999962
0.99995
0.99994
0.999934
0.999932
0.999934
0.99994
0.99995
0.999962
0.999975
0.999986
0.999994
0.999999
1
0.999998
0.999999
1
1.00001
1.00001
1.00003
1.00004
1.00005
1.00007
1.00007
1.00008
1.00007
1.00007
1.00005
1.00004
1.00003
1.00001
1.00001
1
1
0.999999
0.999997
0.999992
0.999981
0.999965
0.999944
0.999923
0.999906
0.999895
0.999889
0.999888
0.999889
0.999895
0.999906
0.999923
0.999944
0.999965
0.999982
0.999993
0.999998
0.999999
0.999999
0.999999
1
1
1.00001
1.00001
1.00002
1.00003
1.00003
1.00003
1.00003
1.00003
1.00002
1.00001
1.00001
1
1
1
0.999999
0.999997
0.999992
0.999979
0.999958
0.99993
0.9999
0.999876
0.999865
0.999866
0.999872
0.999875
0.999872
0.999866
0.999865
0.999876
0.9999
0.99993
0.999959
0.99998
0.99999
0.999999
0.999999
0.999999
0.999999
1
1
1
1
1.00001
1.00001
1.00001
1.00001
1.00001
1
1
1
1
1
1
0.999998
0.999993
0.999981
0.999958
0.999925
0.999887
0.999858
0.999853
0.999878
0.999923
0.999965
0.999982
0.999965
0.999923
0.999878
0.999853
0.999858
0.999887
0.999925
0.999957
0.999975
1
1
1
0.999999
0.999999
0.999999
1
1
1
1
1
1
1
1
1
1
1
1
0.999999
0.999996
0.999986
0.999965
0.99993
0.999887
0.999852
0.999853
0.999912
1.00003
1.00017
1.00029
1.00033
1.00029
1.00017
1.00003
0.999912
0.999853
0.999852
0.999886
0.999926
0.99995
1
1
1
1
1
0.999999
0.999999
0.999999
1
1
1
1
1
1
1
1
1
1
0.999998
0.999991
0.999975
0.999944
0.9999
0.999858
0.999853
0.99993
1.00012
1.00039
1.0007
1.00093
1.00102
1.00093
1.0007
1.00039
1.00012
0.99993
0.999853
0.999856
0.999891
0.999919
1
1
1
1
1
1
1
1
1
1
1
1
1
1
1
1
1
0.999999
0.999996
0.999985
0.999962
0.999923
0.999876
0.999853
0.999912
1.00012
1.00049
1.001
1.00151
1.00189
1.00203
1.00189
1.00151
1.001
1.00049
1.00012
0.999911
0.999849
0.999861
0.999885
1
1
1
1
1
1
1
1
1
1
1
1
1
1
1
1
1
0.999999
0.999993
0.999979
0.99995
0.999906
0.999865
0.999878
1.00003
1.00039
1.001
1.00175
1.00248
1.00301
1.0032
1.00301
1.00248
1.00175
1.001
1.00039
1.00003
0.999872
0.999844
0.999856
1
1
1
1
1
1
1
1
1
1
1
1
1
1
1
1
1
0.999998
0.999991
0.999973
0.99994
0.999895
0.999866
0.999923
1.00017
1.0007
1.00151
1.00248
1.0034
1.00404
1.00427
1.00404
1.0034
1.00248
1.00151
1.0007
1.00017
0.999914
0.999839
0.999835
1
1
1
1
1
1
1
1
1
1
1
1
1
1
1
1
1
0.999997
0.999989
0.99997
0.999934
0.999889
0.999872
0.999965
1.00029
1.00093
1.00189
1.00301
1.00404
1.00475
1.00501
1.00475
1.00404
1.00301
1.00189
1.00093
1.00028
0.999954
0.999842
0.999823
1
1
1
1
1
1
1
1
1
1
1
1
1
1
1
1
1
0.999997
0.999989
0.999968
0.999932
0.999888
0.999875
0.999982
1.00033
1.00102
1.00203
1.0032
1.00427
1.00501
1.00526
1.00501
1.00427
1.0032
1.00203
1.00102
1.00033
0.999971
0.999844
0.99982
1
1
1
1
1
1
1
1
1
1
1
1
1
1
1
1
1
0.999997
0.999989
0.99997
0.999934
0.999889
0.999872
0.999965
1.00029
1.00093
1.00189
1.00301
1.00404
1.00475
1.00501
1.00475
1.00404
1.00301
1.00189
1.00093
1.00028
0.999954
0.999842
0.999823
1
1
1
1
1
1
1
1
1
1
1
1
1
1
1
1
1
0.999998
0.999991
0.999973
0.99994
0.999895
0.999866
0.999923
1.00017
1.0007
1.00151
1.00248
1.0034
1.00404
1.00427
1.00404
1.0034
1.00248
1.00151
1.0007
1.00017
0.999914
0.999839
0.999835
1
1
1
1
1
1
1
1
1
1
1
1
1
1
1
1
1
0.999999
0.999993
0.999979
0.99995
0.999906
0.999865
0.999878
1.00003
1.00039
1.001
1.00175
1.00248
1.00301
1.0032
1.00301
1.00248
1.00175
1.001
1.00039
1.00003
0.999872
0.999844
0.999856
1
1
1
1
1
1
1
1
1
1
1
1
1
1
1
1
1
1
0.999996
0.999985
0.999962
0.999923
0.999876
0.999853
0.999912
1.00012
1.00049
1.001
1.00151
1.00189
1.00203
1.00189
1.00151
1.001
1.00049
1.00012
0.999912
0.999849
0.999861
0.999885
1
1
1
1
1
1
1
1
1
1
1
1
1
1
1
1
1
1
0.999998
0.999991
0.999975
0.999944
0.9999
0.999858
0.999853
0.99993
1.00012
1.00039
1.0007
1.00093
1.00102
1.00093
1.0007
1.00039
1.00012
0.99993
0.999853
0.999856
0.999891
0.999919
1
1
1
1
1
1
1
1
1
1
1
1
1
1
1
1
1
1
1
0.999996
0.999986
0.999965
0.99993
0.999887
0.999852
0.999853
0.999911
1.00003
1.00017
1.00028
1.00033
1.00028
1.00017
1.00003
0.999912
0.999853
0.999853
0.999887
0.999926
0.999951
1
1
1
1
1
1
1
1
1
1
1
1
1
1
1
1
1
1
1
0.999999
0.999994
0.999982
0.999959
0.999925
0.999886
0.999856
0.999849
0.999872
0.999914
0.999954
0.999971
0.999954
0.999914
0.999872
0.999849
0.999856
0.999887
0.999925
0.999958
0.999976
1
1
1
1
1
1
1
1
1
1
1
1
1
1
1
1
1
1
1
1
0.999999
0.999993
0.99998
0.999957
0.999926
0.999891
0.999861
0.999844
0.999839
0.999842
0.999844
0.999842
0.999839
0.999844
0.999861
0.999891
0.999926
0.999958
0.99998
0.999991
1
1
1
1
1
1
1
1
1
1
1
1
1
1
1
1
1
1
1
1
1
0.999998
0.99999
0.999975
0.99995
0.999919
0.999885
0.999856
0.999835
0.999823
0.99982
0.999823
0.999835
0.999856
0.999885
0.999919
0.999951
0.999976
0.999991
0.999998
SCALARS C2 double 1
LOOKUP_TABLE default
2.00001
2.00001
2.00001
2
1.99998
1.99994
1.99988
1.99982
1.99976
1.99972
1.99971
1.99972
1.99976
1.99982
1.99988
1.99994
1.99998
2
2.00001
2.00001
2.00001
2
2
2
2
2
2
2
2
2
2
2
2
2
2
2
2
2
2
2
2.00001
2.00001
2
1.99997
1.99992
1.99985
1.99976
1.99967
1.99959
1.99954
1.99952
1.99954
1.99959
1.99967
1.99976
1.99985
1.99992
1.99997
2
2
2.00001
2
2
2
2
2
2
2
2
2
2
2
2
2
2
2
2
2
2
2
2.00001
2
1.99997
1.99991
1.9998
1.99967
1.99952
1.99938
1.99929
1.99923
1.99922
1.99923
1.99929
1.99938
1.99952
1.99967
1.9998
1.9999
1.99997
1.99999
2
2
2
2
2
2
2
2
2
2
2
2
2
2
2
2
2
2
2
2
2
1.99997
1.99991
1.99978
1.99961
1.9994
1.9992
1.99907
1.99901
1.999
1.99901
1.999
1.99901
1.99907
1.9992
1.9994
1.99961
1.99978
1.9999
1.99997
2
2
2
2
2
2
2
2
2
2
2
2
2
2
2
2
2
2
2
2
1.99998
1.99992
1.9998
1.99961
1.99935
1.9991
1.99894
1.99894
1.99906
1.99922
1.99929
1.99922
1.99906
1.99894
1.99894
1.9991
1.99935
1.9996
1.9998
1.99992
1.99998
2
2
2
2
2
2
2
2
2
2
2
2
2
2
2
2
2
2
2
1.99994
1.99985
1.99967
1.9994
1.9991
1.9989
1.99896
1.99931
1.99985
2.00034
2.00054
2.00034
1.99985
1.99931
1.99896
1.9989
1.9991
1.99939
1.99967
1.99985
1.99995
1.99999
2
2
2
2
2
2
2
2
2
2
2
2
2
2
2
2
2
2
1.99988
1.99976
1.99952
1.9992
1.99894
1.99896
1.99945
2.00043
2.00164
2.00264
2.00302
2.00264
2.00164
2.00043
1.99945
1.99896
1.99894
1.9992
1.99952
1.99976
1.99991
1.99998
2
2
2
2
2
2
2
2
2
2
2
2
2
2
2
2
2
2
1.99982
1.99967
1.99938
1.99907
1.99894
1.99931
2.00043
2.00223
2.00427
2.00588
2.00649
2.00588
2.00427
2.00223
2.00043
1.99931
1.99893
1.99906
1.99938
1.99968
1.99986
1.99996
1.99999
2
2
2
2
2
2
2
2
2
2
2
2
2
2
2
2
2
1.99976
1.99959
1.99929
1.99901
1.99906
1.99985
2.00164
2.00427
2.00711
2.00931
2.01013
2.00931
2.00711
2.00427
2.00164
1.99985
1.99906
1.99901
1.99929
1.9996
1.99982
1.99994
1.99999
2
2
2
2
2
2
2
2
2
2
2
2
2
2
2
2
2
1.99972
1.99954
1.99923
1.999
1.99922
2.00034
2.00264
2.00588
2.00931
2.01191
2.01288
2.01191
2.00931
2.00588
2.00264
2.00034
1.99922
1.999
1.99923
1.99956
1.9998
1.99993
1.99998
2
2
2
2
2
2
2
2
2
2
2
2
2
2
2
2
2
1.99971
1.99952
1.99922
1.99901
1.99929
2.00054
2.00302
2.00649
2.01013
2.01288
2.0139
2.01288
2.01013
2.00649
2.00302
2.00054
1.99929
1.999
1.99922
1.99954
1.99979
1.99992
1.99998
2
2
2
2
2
2
2
2
2
2
2
2
2
2
2
2
2
1.99972
1.99954
1.99923
1.999
1.99922
2.00034
2.00264
2.00588
2.00931
2.01191
2.01288
2.01191
2.00931
2.00588
2.00264
2.00034
1.99922
1.999
1.99923
1.99956
1.9998
1.99993
1.99998
2
2
2
2
2
2
2
2
2
2
2
2
2
2
2
2
2
1.99976
1.99959
1.99929
1.99901
1.99906
1.99985
2.00164
2.00427
2.00711
2.00931
2.01013
2.00931
2.00711
2.00427
2.00164
1.99985
1.99906
1.99901
1.99929
1.9996
1.99982
1.99994
1.99999
2
2
2
2
2
2
2
2
2
2
2
2
2
2
2
2
2
1.99982
1.99967
1.99938
1.99907
1.99894
1.99931
2.00043
2.00223
2.00427
2.00588
2.00649
2.00588
2.00427
2.00223
2.00043
1.99931
1.99893
1.99906
1.99938
1.99968
1.99986
1.99996
1.99999
2
2
2
2
2
2
2
2
2
2
2
2
2
2
2
2
2
1.99988
1.99976
1.99952
1.9992
1.99894
1.99896
1.99945
2.00043
2.00164
2.00264
2.00302
2.00264
2.00164
2.00043
1.99945
1.99896
1.99894
1.9992
1.99952
1.99976
1.99991
1.99998
2
2
2
2
2
2
2
2
2
2
2
2
2
2
2
2
2
2
1.99994
1.99985
1.99967
1.9994
1.9991
1.9989
1.99896
1.99931
1.99985
2.00034
2.00054
2.00034
1.99985
1.99931
1.99896
1.9989
1.9991
1.99939
1.99967
1.99985
1.99995
1.99999
2
2
2
2
2
2
2
2
2
2
2
2
2
2
2
2
2
2
1.99998
1.99992
1.9998
1.99961
1.99935
1.9991
1.99894
1.99893
1.99906
1.99922
1.99929
1.99922
1.99906
1.99893
1.99894
1.9991
1.99935
1.9996
1.9998
1.99992
1.99998
2
2
2
2
2
2
2
2
2
2
2
2
2
2
2
2
2
2
2
2
1.99997
1.9999
1.99978
1.9996
1.99939
1.9992
1.99906
1.99901
1.999
1.999
1.999
1.99901
1.99906
1.9992
1.99939
1.9996
1.99978
1.9999
1.99997
2
2
2
2
2
2
2
2
2
2
2
2
2
2
2
2
2
2
2
2
2.00001
2
1.99997
1.9999
1.9998
1.99967
1.99952
1.99938
1.99929
1.99923
1.99922
1.99923
1.99929
1.99938
1.99952
1.99967
1.9998
1.9999
1.99996
1.99999
2
2
2
2
2
2
2
2
2
2
2
2
2
2
2
2
2
2
2
2
2.00001
2
1.99999
1.99997
1.99992
1.99985
1.99976
1.99968
1.9996
1.99956
1.99954
1.99956
1.9996
1.99968
1.99976
1.99985
1.99992
1.99997
1.99999
2
2
2
2
2
2
2
2.00001
2.00001
2.00002
2.00002
2.00003
2.00002
2.00002
2.00001
2.00001
2
2
2
2
2
2.00001
2.00001
2
2
1.99998
1.99995
1.99991
1.99986
1.99982
1.9998
1.99979
1.9998
1.99982
1.99986
1.99991
1.99995
1.99998
2
2
2
2
2
2
2
2.00001
2.00002
2.00003
2.00005
2.00007
2.00008
2.00008
2.00008
2.00007
2.00005
2.00003
2.00002
2
2
2
2
2
2
2
2
2
1.99999
1.99998
1.99996
1.99994
1.99993
1.99992
1.99993
1.99994
1.99996
1.99998
1.99999
2
2
2
2
2
2
2
2.00001
2.00003
2.00005
2.00009
2.00013
2.00017
2.00019
2.0002
2.00019
2.00017
2.00013
2.00009
2.00005
2.00003
2.00001
2
1.99999
2
2
2
2
2
2
2
1.99999
1.99999
1.99998
1.99998
1.99998
1.99999
1.99999
2
2
2
2
2
2
2
2
2.00001
2.00003
2.00007
2.00013
2.0002
2.00027
2.00033
2.00036
2.00037
2.00036
2.00033
2.00027
2.0002
2.00013
2.00007
2.00003
2.00001
2
2
2
2
2
2
2
2
2
2
2
2
2
2
2
2
2
2
2
2
2
2
2.00001
2.00003
2.00008
2.00016
2.00026
2.00037
2.00046
2.00052
2.00055
2.00056
2.00055
2.00052
2.00046
2.00037
2.00026
2.00016
2.00008
2.00003
2.00001
2
2
2
2
2
2
2
2
2
2
2
2
2
2
2
2
2
2
2
2
2.00001
2.00003
2.00007
2.00016
2.00028
2.00043
2.00055
2.00062
2.00064
2.00062
2.00061
2.00062
2.00064
2.00062
2.00055
2.00043
2.00028
2.00016
2.00007
2.00003
2
2
2
2
2
2
2
2
2
2
2
2
2
2
2
2
2
2
2
2
2.00002
2.00005
2.00013
2.00026
2.00043
2.00058
2.00067
2.00064
2.00052
2.00038
2.00032
2.00038
2.00052
2.00064
2.00067
2.00058
2.00042
2.00026
2.00013
2.00007
2
2
2
2
2
2
2
2
2
2
2
2
2
2
2
2
2
2
2
2.00001
2.00003
2.00009
2.0002
2.00037
2.00055
2.00067
2.00062
2.00037
2
1.99966
1.99953
1.99966
2
2.00037
2.00062
2.00067
2.00055
2.00037
2.00021
2.00012
2
2
2
2
2
2
2
2
2
2
2
2
2
2
2
2
2
2
2
2.00001
2.00005
2.00013
2.00027
2.00046
2.00062
2.00064
2.00037
1.99981
1.99909
1.99849
1.99825
1.99849
1.99909
1.99981
2.00037
2.00064
2.00062
2.00046
2.00029
2.00018
2
2
2
2
2
2
2
2
2
2
2
2
2
2
2
2
2
2
2
2.00002
2.00007
2.00017
2.00033
2.00052
2.00064
2.00052
2
1.99909
1.99801
1.99714
1.9968
1.99714
1.99801
1.99909
2
2.00052
2.00064
2.00052
2.00035
2.00023
2
2
2
2
2
2
2
2
2
2
2
2
2
2
2
2
2
2
2
2.00002
2.00008
2.00019
2.00036
2.00055
2.00062
2.00038
1.99966
1.99849
1.99714
1.99606
1.99564
1.99606
1.99714
1.99849
1.99966
2.00038
2.00062
2.00055
2.00039
2.00027
2
2
2
2
2
2
2
2
2
2
2
2
2
2
2
2
2
2
2
2.00003
2.00008
2.0002
2.00037
2.00056
2.00061
2.00032
1.99953
1.99825
1.9968
1.99564
1.99521
1.99564
1.9968
1.99825
1.99953
2.00032
2.00061
2.00056
2.0004
2.00028
2
2
2
2
2
2
2
2
2
2
2
2
2
2
2
2
2
2
2
2.00002
2.00008
2.00019
2.00036
2.00055
2.00062
2.00038
1.99966
1.99849
1.99714
1.99606
1.99564
1.99606
1.99714
1.99849
1.99966
2.00038
2.00062
2.00055
2.00039
2.00027
2
2
2
2
2
2
2
2
2
2
2
2
2
2
2
2
2
2
2
2.00002
2.00007
2.00017
2.00033
2.00052
2.00064
2.00052
2
1.99909
1.99801
1.99714
1.9968
1.99714
1.99801
1.99909
2
2.00052
2.00064
2.00052
2.00035
2.00023
2
2
2
2
2
2
2
2
2
2
2
2
2
2
2
2
2
2
2
2.00001
2.00005
2.00013
2.00027
2.00046
2.00062
2.00064
2.00037
1.99981
1.99909
1.99849
1.99825
1.99849
1.99909
1.99981
2.00037
2.00064
2.00062
2.00046
2.00029
2.00018
2
2
2
2
2
2
2
2
2
2
2
2
2
2
2
2
2
2
2
2.00001
2.00003
2.00009
2.0002
2.00037
2.00055
2.00067
2.00062
2.00037
2
1.99966
1.99953
1.99966
2
2.00037
2.00062
2.00067
2.00055
2.00037
2.00021
2.00012
2
2
2
2
2
2
2
2
2
2
2
2
2
2
2
2
2
2
2
2
2.00002
2.00005
2.00013
2.00026
2.00043
2.00058
2.00067
2.00064
2.00052
2.00038
2.00032
2.00038
2.00052
2.00064
2.00067
2.00058
2.00042
2.00026
2.00013
2.00007
2
2
2
2
2
2
2
2
2
2
2
2
2
2
2
2
2
2
2
2
2
2.00003
2.00007
2.00016
2.00028
2.00042
2.00055
2.00062
2.00064
2.00062
2.00061
2.00062
2.00064
2.00062
2.00055
2.00042
2.00028
2.00016
2.00007
2.00003
2
2
2
2
2
2
2
2
2
2
2
2
2
2
2
2
2
2
2
2
2
2.00001
2.00003
2.00008
2.00016
2.00026
2.00037
2.00046
2.00052
2.00055
2.00056
2.00055
2.00052
2.00046
2.00037
2.00026
2.00016
2.00008
2.00003
2.00001
2
2
2
2
2
2
2
2
2
2
2
2
2
2
2
2
2
2
2
2
2
2
2.00001
2.00003
2.00007
2.00013
2.00021
2.00029
2.00035
2.00039
2.0004
2.00039
2.00035
2.00029
2.00021
2.00013
2.00007
2.00003
2
1.99999
2
2
2
2
2
2
2
2
2
2
2
2
2
2
2
2
2
2
2
2
2
1.99999
2
2.00001
2.00003
2.00007
2.00012
2.00018
2.00023
2.00027
2.00028
2.00027
2.00023
2.00018
2.00012
2.00007
2.00003
2.00001
1.99999
1.99999
