# vtk DataFile Version 3.0
Brusselator Concentration Output
ASCII
DATASET STRUCTURED_POINTS
DIMENSIONS 40 40 1
ORIGIN 0.0 0.0 0.0
SPACING 0.005 0.005 1.0
POINT_DATA 1600
SCALARS C1 double 1
LOOKUP_TABLE default
1
1
1
1
1
1
1
1
1
1
1
1
1
1
1
1
1
1
1
1
1
1
1
1
1
1
1
1
1
1
1
1
1
1
1
1
1
1
1
1
1
1
1
1
1
1
1
1
1
1
1
1
1
1
1
1
1
1
1
1
1
1
1
1
1
1
1
1
1
1
1
1
1
1
1
1
1
1
1
1
1
1
1
1
1
1
1
1
1
0.999995
0.999992
0.999995
1
1
1
1
1
1
1
1
1
1
1
1
1
1
1
1
1
1
1
1
1
1
1
1
1
1
1
1
1
1
1
1
1
1.00001
1.00001
0.999993
0.999964
0.999927
0.999911
0.999927
0.999964
0.999993
1.00001
1.00001
1
1
1
1
1
1
1
1
1
1
1
1
1
1
1
1
1
1
1
1
1
1
1
1
1
1
1
1
1.00001
1.00001
0.999982
0.999907
0.99977
0.999624
0.999564
0.999624
0.99977
0.999907
0.999982
1.00001
1.00001
1
1
1
1
1
1
1
1
1
1
1
1
1
1
1
1
1
1
1
1
1
1
1
1
1
1
1.00001
1.00001
0.999977
0.999858
0.999569
0.999115
0.998693
0.99854
0.998693
0.999115
0.999569
0.999858
0.999977
1.00001
1.00001
1
1
1
1
1
1
1
1
1
1
1
1
1
1
1
1
1
1
1
1
1
1
1
1
1
1.00001
0.999982
0.999858
0.999472
0.99867
0.997582
0.996749
0.996532
0.996749
0.997582
0.99867
0.999472
0.999858
0.999982
1.00001
1
1
1
1
1
1
1
1
1
1
1
1
1
1
1
1
1
1
1
1
1
1
1
1
1
0.999993
0.999907
0.999569
0.99867
0.997048
0.995269
0.994466
0.994594
0.994466
0.995269
0.997048
0.99867
0.999569
0.999907
0.999993
1
1
1
1
1
1
1
1
1
1
1
1
1
1
1
1
1
1
1
1
1
1
1
1
1
0.999964
0.99977
0.999115
0.997582
0.995269
0.99369
0.994646
0.99625
0.994646
0.99369
0.995269
0.997582
0.999115
0.99977
0.999964
1
1
1
1
1
1
1
1
1
1
1
1
1
1
1
1
1
1
1
1
1
1
1
1
0.999995
0.999927
0.999624
0.998693
0.996749
0.994466
0.994646
0.999545
1.0039
0.999545
0.994646
0.994466
0.996749
0.998693
0.999624
0.999927
0.999995
1
1
1
1
1
1
1
1
1
1
1
1
1
1
1
1
1
1
1
1
1
1
1
0.999992
0.999911
0.999564
0.99854
0.996532
0.994594
0.99625
1.0039
1.01007
1.0039
0.99625
0.994594
0.996532
0.99854
0.999564
0.999911
0.999992
1
1
1
1
1
1
1
1
1
1
1
1
1
1
1
1
1
1
1
1
1
1
1
0.999995
0.999927
0.999624
0.998693
0.996749
0.994466
0.994646
0.999545
1.0039
0.999545
0.994646
0.994466
0.996749
0.998693
0.999624
0.999927
0.999995
1
1
1
1
1
1
1
1
1
1
1
1
1
1
1
1
1
1
1
1
1
1
1
1
0.999964
0.99977
0.999115
0.997582
0.995269
0.99369
0.994646
0.99625
0.994646
0.99369
0.995269
0.997582
0.999115
0.99977
0.999964
1
1
1
1
1
1
1
1
1
1
1
1
1
1
1
1
1
1
1
1
1
1
1
1
1
0.999993
0.999907
0.999569
0.99867
0.997048
0.995269
0.994466
0.994594
0.994466
0.995269
0.997048
0.99867
0.999569
0.999907
0.999993
1
1
1
1
1
1
1
1
1
1
1
1
1
1
1
1
1
1
1
1
1
1
1
1
1
1.00001
0.999982
0.999858
0.999472
0.99867
0.997582
0.996749
0.996532
0.996749
0.997582
0.99867
0.999472
0.999858
0.999982
1.00001
1
1
1
1
1
1
1
1
1
1
1
1
1
1
1
1
1
1
1
1
1
1
1
1
1
1.00001
1.00001
0.999977
0.999858
0.999569
0.999115
0.998693
0.99854
0.998693
0.999115
0.999569
0.999858
0.999977
1.00001
1.00001
1
1
1
1
1
1
1
1
1
1
1
1
1
1
1
1
1
1
1
1
1
1
1
1
1
1
1.00001
1.00001
0.999982
0.999907
0.99977
0.999624
0.999564
0.999624
0.99977
0.999907
0.999982
1.00001
1.00001
1
1
1
1
1
1
1
1
1
1
1
1
1
1
1
1
1
1
1
1
1
1
1
1
1
1
1
1
1.00001
1.00001
0.999993
0.999964
0.999927
0.999911
0.999927
0.999964
0.999993
1.00001
1.00001
1
1
1
1
1
1
1
1
1
1
1
1
1
1
1
1
1
1
1
1
1
1
1
1
1
1
1
1
1
1
1
1
1
0.999995
0.999992
0.999995
1
1
1
1
1
1
1
1
1
1
1
1
1
1
1
1
1
1
1
1
1
1
1
1
1
1
1
1
1
1
1
1
1
1
1
1
1
1
1
1
1
1
1
1
1
1
1
1
1
1
1
1
1
1
1
1
1
1
1
1
1
1
1
1
1
1
1
1
1
1
1
1
1
1
1
1
1
1
1
1
1
1
1
1
1
1
1
1
1
1
1
1
1
1
1
1
0.999999
0.999999
0.999999
0.999999
0.999999
1
1
1
1
1
1
1
1
1
1
1
1
1
1
1
1
1
1
1
1
1
1
1
1
1
1
1
1
1
1
1
1
1
0.999999
0.999999
0.999998
0.999999
0.999999
0.999999
0.999998
0.999999
0.999999
1
1
1
1
1
1
1
1
1
1
1
1
1
1
1
1
1
1
1
1
1
1
1
1
1
1
1
1
1
0.999999
0.999999
0.999998
0.999997
0.999998
1
1
1
0.999998
0.999997
0.999998
0.999999
0.999999
1
1
1
1
1
1
1
1
1
1
1
1
1
1
1
1
1
1
1
1
1
1
1
1
1
1
0.999999
0.999998
0.999997
0.999997
1
1.00001
1.00002
1.00003
1.00002
1.00001
1
0.999997
0.999997
0.999998
0.999999
1
1
1
1
1
1
1
1
1
1
1
1
1
1
1
1
1
1
1
1
1
1
1
1
0.999999
0.999998
0.999997
0.999996
1
1.00003
1.00008
1.00013
1.00016
1.00013
1.00008
1.00003
1
0.999996
0.999997
0.999998
0.999999
1
1
1
1
1
1
1
1
1
1
1
1
1
1
1
1
1
1
1
1
1
1
1
0.999999
0.999997
0.999996
1
1.00004
1.00015
1.00033
1.00052
1.00059
1.00052
1.00033
1.00015
1.00004
1
0.999996
0.999997
0.999999
0.999999
1
1
1
1
1
1
1
1
1
1
1
1
1
1
1
1
1
1
1
1
1
0.999999
0.999998
0.999997
1
1.00004
1.00019
1.00051
1.001
1.00144
1.00159
1.00144
1.001
1.00051
1.00019
1.00004
1
0.999997
0.999998
0.999999
1
1
1
1
1
1
1
1
1
1
1
1
1
1
1
1
1
1
1
1
1
0.999999
0.999997
1
1.00003
1.00015
1.00051
1.00124
1.0022
1.00288
1.003
1.00288
1.0022
1.00124
1.00051
1.00015
1.00003
1
0.999997
0.999998
1
1
1
1
1
1
1
1
1
1
1
1
1
1
1
1
1
1
1
1
0.999999
0.999998
0.999998
1.00001
1.00008
1.00033
1.001
1.0022
1.00346
1.00385
1.00354
1.00385
1.00346
1.0022
1.001
1.00033
1.00008
1.00001
0.999998
0.999998
1
1
1
1
1
1
1
1
1
1
1
1
1
1
1
1
1
1
1
1
0.999999
0.999999
1
1.00002
1.00013
1.00052
1.00144
1.00288
1.00385
1.00303
1.00173
1.00303
1.00385
1.00288
1.00144
1.00052
1.00013
1.00002
1
0.999998
1
1
1
1
1
1
1
1
1
1
1
1
1
1
1
1
1
1
1
1
0.999999
0.999999
1
1.00003
1.00016
1.00059
1.00159
1.003
1.00354
1.00173
0.999718
1.00173
1.00354
1.003
1.00159
1.00059
1.00016
1.00003
1
0.999998
1
1
1
1
1
1
1
1
1
1
1
1
1
1
1
1
1
1
1
1
0.999999
0.999999
1
1.00002
1.00013
1.00052
1.00144
1.00288
1.00385
1.00303
1.00173
1.00303
1.00385
1.00288
1.00144
1.00052
1.00013
1.00002
1
0.999998
1
1
1
1
1
1
1
1
1
1
1
1
1
1
1
1
1
1
1
1
0.999999
0.999998
0.999998
1.00001
1.00008
1.00033
1.001
1.0022
1.00346
1.00385
1.00354
1.00385
1.00346
1.0022
1.001
1.00033
1.00008
1.00001
0.999998
0.999998
1
1
1
1
1
1
1
1
1
1
1
1
1
1
1
1
1
1
1
1
1
0.999999
0.999997
1
1.00003
1.00015
1.00051
1.00124
1.0022
1.00288
1.003
1.00288
1.0022
1.00124
1.00051
1.00015
1.00003
1
0.999997
0.999998
1
1
1
1
1
1
1
1
1
1
1
1
1
1
1
1
1
1
1
1
1
0.999999
0.999998
0.999997
1
1.00004
1.00019
1.00051
1.001
1.00144
1.00159
1.00144
1.001
1.00051
1.00019
1.00004
1
0.999997
0.999998
0.999999
1
1
1
1
1
1
1
1
1
1
1
1
1
1
1
1
1
1
1
1
1
1
0.999999
0.999997
0.999996
1
1.00004
1.00015
1.00033
1.00052
1.00059
1.00052
1.00033
1.00015
1.00004
1
0.999996
0.999997
0.999999
0.999999
1
1
1
1
1
1
1
1
1
1
1
1
1
1
1
1
1
1
1
1
1
1
0.999999
0.999998
0.999997
0.999996
1
1.00003
1.00008
1.00013
1.00016
1.00013
1.00008
1.00003
1
0.999996
0.999997
0.999998
0.999999
1
1
1
1
1
1
1
1
1
1
1
1
1
1
1
1
1
1
1
1
1
1
1
1
0.999999
0.999998
0.999997
0.999997
1
1.00001
1.00002
1.00003
1.00002
1.00001
1
0.999997
0.999997
0.999998
0.999999
1
1
1
1
1
1
1
1
1
1
1
1
1
1
1
1
1
1
1
1
1
1
1
1
1
1
0.999999
0.999999
0.999998
0.999997
0.999998
1
1
1
0.999998
0.999997
0.999998
0.999999
0.999999
1
1
1
1
1
1
1
1
1
1
1
1
1
1
1
1
1
1
1
1
1
1
1
1
1
1
1
1
0.999999
0.999999
0.999998
0.999998
0.999998
0.999998
0.999998
0.999998
0.999998
0.999999
0.999999
1
1
1
1
SCALARS C2 double 1
LOOKUP_TABLE default
2
2
2
2
2
2
2
2
2
2
2
2
2
2
2
2
2
2
2
2
2
2
2
2
2
2
2
2
2
2
2
2
2
2
2
2
2
2
2
2
2
2
2
2
2
2
2
2
1.99999
1.99999
1.99999
1.99999
1.99999
2
2
2
2
2
2
2
2
2
2
2
2
2
2
2
2
2
2
2
2
2
2
2
2
2
2
2
2
2
2
2
2
2
1.99999
1.99999
1.99998
1.99998
1.99999
1.99998
1.99998
1.99999
1.99999
2
2
2
2
2
2
2
2
2
2
2
2
2
2
2
2
2
2
2
2
2
2
2
2
2
2
2
2
2
2
1.99999
1.99998
1.99997
1.99998
2
2.00001
2
1.99998
1.99997
1.99998
1.99999
2
2
2
2
2
2
2
2
2
2
2
2
2
2
2
2
2
2
2
2
2
2
2
2
2
2
2
2
1.99999
1.99998
1.99997
1.99999
2.00007
2.0002
2.00026
2.0002
2.00007
1.99999
1.99997
1.99998
1.99999
2
2
2
2
2
2
2
2
2
2
2
2
2
2
2
2
2
2
2
2
2
2
2
2
2
2
1.99999
1.99998
1.99996
2
2.00018
2.00061
2.00115
2.00141
2.00115
2.00061
2.00018
2
1.99996
1.99998
1.99999
2
2
2
2
2
2
2
2
2
2
2
2
2
2
2
2
2
2
2
2
2
2
2
2
1.99999
1.99998
1.99997
2
2.00024
2.001
2.00249
2.00418
2.00493
2.00418
2.00249
2.001
2.00024
2
1.99997
1.99998
1.99999
2
2
2
2
2
2
2
2
2
2
2
2
2
2
2
2
2
2
2
2
2
2
2
1.99999
1.99997
1.99999
2.00018
2.001
2.00318
2.00696
2.01095
2.01257
2.01095
2.00696
2.00318
2.001
2.00018
1.99999
1.99997
1.99999
2
2
2
2
2
2
2
2
2
2
2
2
2
2
2
2
2
2
2
2
2
2
1.99999
1.99998
1.99998
2.00007
2.00061
2.00249
2.00696
2.01415
2.02108
2.02357
2.02108
2.01415
2.00696
2.00249
2.00061
2.00007
1.99998
1.99998
1.99999
2
2
2
2
2
2
2
2
2
2
2
2
2
2
2
2
2
2
2
2
2
1.99999
1.99998
2
2.0002
2.00115
2.00418
2.01095
2.02108
2.02988
2.03243
2.02988
2.02108
2.01095
2.00418
2.00115
2.0002
2
1.99998
1.99999
2
2
2
2
2
2
2
2
2
2
2
2
2
2
2
2
2
2
2
2
2
1.99999
1.99999
2.00001
2.00026
2.00141
2.00493
2.01257
2.02357
2.03243
2.03453
2.03243
2.02357
2.01257
2.00493
2.00141
2.00026
2.00001
1.99999
1.99999
2
2
2
2
2
2
2
2
2
2
2
2
2
2
2
2
2
2
2
2
2
1.99999
1.99998
2
2.0002
2.00115
2.00418
2.01095
2.02108
2.02988
2.03243
2.02988
2.02108
2.01095
2.00418
2.00115
2.0002
2
1.99998
1.99999
2
2
2
2
2
2
2
2
2
2
2
2
2
2
2
2
2
2
2
2
2
1.99999
1.99998
1.99998
2.00007
2.00061
2.00249
2.00696
2.01415
2.02108
2.02357
2.02108
2.01415
2.00696
2.00249
2.00061
2.00007
1.99998
1.99998
1.99999
2
2
2
2
2
2
2
2
2
2
2
2
2
2
2
2
2
2
2
2
2
2
1.99999
1.99997
1.99999
2.00018
2.001
2.00318
2.00696
2.01095
2.01257
2.01095
2.00696
2.00318
2.001
2.00018
1.99999
1.99997
1.99999
2
2
2
2
2
2
2
2
2
2
2
2
2
2
2
2
2
2
2
2
2
2
2
1.99999
1.99998
1.99997
2
2.00024
2.001
2.00249
2.00418
2.00493
2.00418
2.00249
2.001
2.00024
2
1.99997
1.99998
1.99999
2
2
2
2
2
2
2
2
2
2
2
2
2
2
2
2
2
2
2
2
2
2
2
2
1.99999
1.99998
1.99996
2
2.00018
2.00061
2.00115
2.00141
2.00115
2.00061
2.00018
2
1.99996
1.99998
1.99999
2
2
2
2
2
2
2
2
2
2
2
2
2
2
2
2
2
2
2
2
2
2
2
2
2
2
1.99999
1.99998
1.99997
1.99999
2.00007
2.0002
2.00026
2.0002
2.00007
1.99999
1.99997
1.99998
1.99999
2
2
2
2
2
2
2
2
2
2
2
2
2
2
2
2
2
2
2
2
2
2
2
2
2
2
2
2
1.99999
1.99998
1.99997
1.99998
2
2.00001
2
1.99998
1.99997
1.99998
1.99999
2
2
2
2
2
2
2
2
2
2
2
2
2
2
2
2
2
2
2
2
2
2
2
2
2
2
2
2
2
2
1.99999
1.99999
1.99998
1.99998
1.99999
1.99998
1.99998
1.99999
1.99999
2
2
2
2
2
2
2
2
2
2
2
2
2
2
2
2
2
2
2
2
2
2
2
2
2
2
2
2
2
2
2
2
2
1.99999
1.99999
1.99999
1.99999
1.99999
2
2
2
2
2
2
2
2
2
2
2
2
2
2
2
2
2
2
2
2
2
2
2
2
2
2
2
2
2
2
2
2
2
2
2
2
2
2
2
2
2
2
2
2
2
2
2
2
2
2
2
2
2
2
2
2
2
2
2
2
2
2
2
2
2
2
2
2
2
2
2
2
2
2
2
2
2
2
2
2
2
2
2
2
2
2
2
2
2
2
2
2
2
2
2
2
2
2
2
2
2
2
2
2
2
2
2
2
2
2
2
2
2
2
2
2
2
2
2
2
2
2
2
2
2
2
2
2
2
2
2
2
2
2
2.00001
2.00001
2.00001
2.00001
2.00001
2.00001
2.00001
2
2
2
2
2
2
2
2
2
2
2
2
2
2
2
2
2
2
2
2
2
2
2
2
2
2
2
2
2
2
2
2
2.00001
2.00001
2.00001
2.00001
2
2.00001
2.00001
2.00001
2.00001
2
2
2
2
2
2
2
2
2
2
2
2
2
2
2
2
2
2
2
2
2
2
2
2
2
2
2
2
2
2
2.00001
2.00002
2.00002
1.99999
1.99995
1.99993
1.99995
1.99999
2.00002
2.00002
2.00001
2
2
2
2
2
2
2
2
2
2
2
2
2
2
2
2
2
2
2
2
2
2
2
2
2
2
2
2
2.00001
2.00002
2.00002
1.99996
1.99982
1.99961
1.99951
1.99961
1.99982
1.99996
2.00002
2.00002
2.00001
2
2
2
2
2
2
2
2
2
2
2
2
2
2
2
2
2
2
2
2
2
2
2
2
2
2
2.00001
2.00002
2.00002
1.99995
1.99968
1.99912
1.99841
1.99807
1.99841
1.99912
1.99968
1.99995
2.00002
2.00002
2.00001
2
2
2
2
2
2
2
2
2
2
2
2
2
2
2
2
2
2
2
2
2
2
2
2
2.00001
2.00001
2.00002
1.99996
1.99968
1.99886
1.99728
1.99543
1.99457
1.99543
1.99728
1.99886
1.99968
1.99996
2.00002
2.00001
2.00001
2
2
2
2
2
2
2
2
2
2
2
2
2
2
2
2
2
2
2
2
2
2
2
2.00001
2.00001
1.99999
1.99982
1.99912
1.99728
1.99397
1.9903
1.98869
1.9903
1.99397
1.99728
1.99912
1.99982
1.99999
2.00001
2.00001
2
2
2
2
2
2
2
2
2
2
2
2
2
2
2
2
2
2
2
2
2
2
2
2.00001
2.00001
1.99995
1.99961
1.99841
1.99543
1.9903
1.98489
1.98263
1.98489
1.9903
1.99543
1.99841
1.99961
1.99995
2.00001
2.00001
2
2
2
2
2
2
2
2
2
2
2
2
2
2
2
2
2
2
2
2
2
2
2
2.00001
2
1.99993
1.99951
1.99807
1.99457
1.98869
1.98263
1.98015
1.98263
1.98869
1.99457
1.99807
1.99951
1.99993
2
2.00001
2
2
2
2
2
2
2
2
2
2
2
2
2
2
2
2
2
2
2
2
2
2
2
2.00001
2.00001
1.99995
1.99961
1.99841
1.99543
1.9903
1.98489
1.98263
1.98489
1.9903
1.99543
1.99841
1.99961
1.99995
2.00001
2.00001
2
2
2
2
2
2
2
2
2
2
2
2
2
2
2
2
2
2
2
2
2
2
2
2.00001
2.00001
1.99999
1.99982
1.99912
1.99728
1.99397
1.9903
1.98869
1.9903
1.99397
1.99728
1.99912
1.99982
1.99999
2.00001
2.00001
2
2
2
2
2
2
2
2
2
2
2
2
2
2
2
2
2
2
2
2
2
2
2
2.00001
2.00001
2.00002
1.99996
1.99968
1.99886
1.99728
1.99543
1.99457
1.99543
1.99728
1.99886
1.99968
1.99996
2.00002
2.00001
2.00001
2
2
2
2
2
2
2
2
2
2
2
2
2
2
2
2
2
2
2
2
2
2
2
2
2.00001
2.00002
2.00002
1.99995
1.99968
1.99912
1.99841
1.99807
1.99841
1.99912
1.99968
1.99995
2.00002
2.00002
2.00001
2
2
2
2
2
2
2
2
2
2
2
2
2
2
2
2
2
2
2
2
2
2
2
2
2
2
2.00001
2.00002
2.00002
1.99996
1.99982
1.99961
1.99951
1.99961
1.99982
1.99996
2.00002
2.00002
2.00001
2
2
2
2
2
2
2
2
2
2
2
2
2
2
2
2
2
2
2
2
2
2
2
2
2
2
2
2
2.00001
2.00002
2.00002
1.99999
1.99995
1.99993
1.99995
1.99999
2.00002
2.00002
2.00001
2
2
2
2
2
2
2
2
2
2
2
2
2
2
2
2
2
2
2
2
2
2
2
2
2
2
2
2
2
2
2.00001
2.00001
2.00001
2.00001
2
2.00001
2.00001
2.00001
2.00001
2
2
2
2
2
2
2
2
2
2
2
2
2
2
2
2
2
2
2
2
2
2
2
2
2
2
2
2
2
2
2
2
2.00001
2.00001
2.00001
2.00001
2.00001
2.00001
2.00001
2
2
2
2
2
2
2
2
2
2
2
2
2
2
2
2
2
2
2
2
2
2
2
2
2
2
2
2
2
2
2
2
2
2
2
2
2
2
2
2
2
2
2
2
2
2
