# vtk DataFile Version 3.0
Brusselator Concentration Output
ASCII
DATASET STRUCTURED_POINTS
DIMENSIONS 40 40 1
ORIGIN 0.0 0.0 0.0
SPACING 0.005 0.005 1.0
POINT_DATA 1600
SCALARS C1 double 1
LOOKUP_TABLE default
0.999978
0.999965
0.999943
0.999917
0.999894
0.999884
0.999891
0.999915
0.999946
0.999972
0.999982
0.999972
0.999946
0.999915
0.999891
0.999884
0.999894
0.999916
0.999943
0.999967
0.999984
0.999994
0.999999
1
1
1
1
1
1
1
1
1
1
1
1
1
1
1
1
1
0.999965
0.999953
0.999933
0.999917
0.999915
0.99994
0.999993
1.00007
1.00014
1.0002
1.00022
1.0002
1.00014
1.00007
0.999992
0.999939
0.999915
0.999916
0.999934
0.999957
0.999976
0.999989
0.999996
0.999999
1
1
1
1
1
1
1
1
1
1
1
1
1
1
1
1
0.999943
0.999933
0.999925
0.999936
0.999986
1.00009
1.00024
1.00042
1.00058
1.00069
1.00073
1.00069
1.00058
1.00042
1.00024
1.00009
0.999986
0.999936
0.999927
0.999942
0.999963
0.99998
0.999992
0.999997
1
1
1
1
1
1
1
1
1
1
1
1
1
1
1
1
0.999917
0.999917
0.999936
1
1.00015
1.00039
1.00069
1.00102
1.00131
1.0015
1.00157
1.0015
1.00131
1.00102
1.00069
1.00039
1.00015
1.00001
0.999941
0.999932
0.999948
0.999969
0.999985
0.999994
0.999998
1
1
1
1
1
1
1
1
1
1
1
1
1
1
1
0.999894
0.999915
0.999986
1.00015
1.00045
1.00087
1.00137
1.00188
1.0023
1.00258
1.00267
1.00258
1.0023
1.00188
1.00137
1.00087
1.00045
1.00016
0.999997
0.999939
0.999937
0.999957
0.999977
0.99999
0.999997
0.999999
1
1
1
1
1
1
1
1
1
1
1
1
1
1
0.999884
0.99994
1.00009
1.00039
1.00087
1.00151
1.00222
1.00289
1.00341
1.00374
1.00385
1.00374
1.00341
1.00289
1.00222
1.00151
1.00087
1.00039
1.0001
0.999972
0.999937
0.999947
0.999968
0.999985
0.999994
0.999998
1
1
1
1
1
1
1
1
1
1
1
1
1
1
0.999891
0.999993
1.00024
1.00069
1.00137
1.00222
1.0031
1.00387
1.00443
1.00475
1.00485
1.00475
1.00443
1.00387
1.0031
1.00222
1.00138
1.0007
1.00026
1.00003
0.999949
0.999942
0.999961
0.99998
0.999992
0.999997
1
1
1
1
1
1
1
1
1
1
1
1
1
1
0.999915
1.00007
1.00042
1.00102
1.00188
1.00289
1.00387
1.00466
1.00516
1.00541
1.00548
1.00541
1.00516
1.00466
1.00387
1.00289
1.00188
1.00103
1.00044
1.00011
0.999972
0.999943
0.999956
0.999975
0.999989
0.999996
0.999999
1
1
1
1
1
1
1
1
1
1
1
1
1
0.999946
1.00014
1.00058
1.00131
1.0023
1.00341
1.00443
1.00516
1.00556
1.0057
1.00573
1.0057
1.00556
1.00516
1.00443
1.00342
1.00231
1.00132
1.00061
1.00019
0.999999
0.999947
0.999953
0.999972
0.999987
0.999995
0.999999
1
1
1
1
1
1
1
1
1
1
1
1
1
0.999972
1.0002
1.00069
1.0015
1.00258
1.00374
1.00475
1.00541
1.0057
1.00576
1.00575
1.00576
1.0057
1.00541
1.00475
1.00374
1.00258
1.00152
1.00072
1.00024
1.00002
0.999951
0.999951
0.99997
0.999986
0.999995
0.999999
1
1
1
1
1
1
1
1
1
1
1
1
1
0.999982
1.00022
1.00073
1.00157
1.00267
1.00385
1.00485
1.00548
1.00573
1.00575
1.00572
1.00575
1.00573
1.00548
1.00485
1.00385
1.00268
1.00159
1.00077
1.00027
1.00003
0.999953
0.999951
0.999969
0.999985
0.999995
0.999999
1
1
1
1
1
1
1
1
1
1
1
1
1
0.999972
1.0002
1.00069
1.0015
1.00258
1.00374
1.00475
1.00541
1.0057
1.00576
1.00575
1.00576
1.0057
1.00541
1.00475
1.00374
1.00258
1.00152
1.00072
1.00024
1.00002
0.999951
0.999951
0.99997
0.999986
0.999995
0.999999
1
1
1
1
1
1
1
1
1
1
1
1
1
0.999946
1.00014
1.00058
1.00131
1.0023
1.00341
1.00443
1.00516
1.00556
1.0057
1.00573
1.0057
1.00556
1.00516
1.00443
1.00342
1.00231
1.00132
1.00061
1.00019
0.999999
0.999947
0.999953
0.999972
0.999987
0.999995
0.999999
1
1
1
1
1
1
1
1
1
1
1
1
1
0.999915
1.00007
1.00042
1.00102
1.00188
1.00289
1.00387
1.00466
1.00516
1.00541
1.00548
1.00541
1.00516
1.00466
1.00387
1.00289
1.00188
1.00103
1.00044
1.00011
0.999972
0.999943
0.999956
0.999975
0.999989
0.999996
0.999999
1
1
1
1
1
1
1
1
1
1
1
1
1
0.999891
0.999992
1.00024
1.00069
1.00137
1.00222
1.0031
1.00387
1.00443
1.00475
1.00485
1.00475
1.00443
1.00387
1.0031
1.00222
1.00138
1.0007
1.00026
1.00003
0.999949
0.999942
0.999961
0.99998
0.999992
0.999997
1
1
1
1
1
1
1
1
1
1
1
1
1
1
0.999884
0.999939
1.00009
1.00039
1.00087
1.00151
1.00222
1.00289
1.00342
1.00374
1.00385
1.00374
1.00342
1.00289
1.00222
1.00151
1.00087
1.00039
1.0001
0.999971
0.999937
0.999947
0.999968
0.999985
0.999994
0.999999
1
1
1
1
1
1
1
1
1
1
1
1
1
1
0.999894
0.999915
0.999986
1.00015
1.00045
1.00087
1.00138
1.00188
1.00231
1.00258
1.00268
1.00258
1.00231
1.00188
1.00138
1.00087
1.00045
1.00016
0.999996
0.999938
0.999937
0.999956
0.999977
0.99999
0.999998
1
1
1
1.00001
1.00001
1.00001
1.00001
1.00001
1
1
1
1
1
1
1
0.999916
0.999916
0.999936
1.00001
1.00016
1.00039
1.0007
1.00103
1.00132
1.00152
1.00159
1.00152
1.00132
1.00103
1.0007
1.00039
1.00016
1.00001
0.999942
0.999931
0.999947
0.999969
0.999986
0.999996
1
1.00001
1.00001
1.00001
1.00001
1.00001
1.00001
1.00001
1.00001
1.00001
1.00001
1.00001
1
1
1
1
0.999943
0.999934
0.999927
0.999941
0.999997
1.0001
1.00026
1.00044
1.00061
1.00072
1.00077
1.00072
1.00061
1.00044
1.00026
1.0001
0.999996
0.999942
0.99993
0.999943
0.999963
0.999981
0.999994
1
1.00001
1.00001
1.00002
1.00002
1.00002
1.00002
1.00002
1.00002
1.00002
1.00002
1.00002
1.00001
1.00001
1.00001
1
1
0.999967
0.999957
0.999942
0.999932
0.999939
0.999972
1.00003
1.00011
1.00019
1.00024
1.00027
1.00024
1.00019
1.00011
1.00003
0.999971
0.999938
0.999931
0.999943
0.999961
0.999979
0.999993
1
1.00001
1.00002
1.00003
1.00003
1.00003
1.00003
1.00003
1.00003
1.00003
1.00003
1.00003
1.00003
1.00003
1.00002
1.00001
1.00001
1.00001
0.999984
0.999976
0.999963
0.999948
0.999937
0.999937
0.999949
0.999972
0.999999
1.00002
1.00003
1.00002
0.999999
0.999972
0.999949
0.999937
0.999937
0.999947
0.999963
0.999979
0.999993
1
1.00001
1.00002
1.00003
1.00004
1.00004
1.00003
1.00002
1.00002
1.00002
1.00002
1.00002
1.00003
1.00004
1.00004
1.00003
1.00002
1.00002
1.00001
0.999994
0.999989
0.99998
0.999969
0.999957
0.999947
0.999942
0.999943
0.999947
0.999951
0.999953
0.999951
0.999947
0.999943
0.999942
0.999947
0.999956
0.999969
0.999981
0.999993
1
1.00002
1.00003
1.00004
1.00004
1.00003
1.00002
0.999993
0.999966
0.999946
0.999938
0.999946
0.999966
0.999993
1.00002
1.00003
1.00004
1.00004
1.00003
1.00003
0.999999
0.999996
0.999992
0.999985
0.999977
0.999968
0.999961
0.999956
0.999953
0.999951
0.999951
0.999951
0.999953
0.999956
0.999961
0.999968
0.999977
0.999986
0.999994
1
1.00001
1.00003
1.00004
1.00004
1.00003
0.999997
0.999944
0.999877
0.999812
0.999766
0.999749
0.999766
0.999812
0.999877
0.999943
0.999997
1.00003
1.00004
1.00004
1.00004
1
0.999999
0.999997
0.999994
0.99999
0.999985
0.99998
0.999975
0.999972
0.99997
0.999969
0.99997
0.999972
0.999975
0.99998
0.999985
0.99999
0.999996
1
1.00001
1.00002
1.00004
1.00004
1.00003
0.999981
0.999897
0.999778
0.999644
0.999521
0.999435
0.999404
0.999435
0.999521
0.999644
0.999778
0.999897
0.999983
1.00003
1.00005
1.00006
1
1
1
0.999998
0.999997
0.999994
0.999992
0.999989
0.999987
0.999986
0.999985
0.999986
0.999987
0.999989
0.999992
0.999994
0.999998
1
1.00001
1.00002
1.00003
1.00004
1.00003
0.999981
0.999877
0.999712
0.999501
0.999277
0.999082
0.99895
0.998903
0.99895
0.999082
0.999277
0.999501
0.999713
0.999881
0.999991
1.00005
1.00007
1
1
1
1
0.999999
0.999998
0.999997
0.999996
0.999995
0.999995
0.999995
0.999995
0.999995
0.999996
0.999997
0.999999
1
1.00001
1.00001
1.00003
1.00004
1.00003
0.999997
0.999897
0.999712
0.999445
0.999126
0.998805
0.998539
0.998365
0.998305
0.998365
0.998538
0.998805
0.999126
0.999447
0.999718
0.99991
1.00002
1.00007
1
1
1
1
1
1
1
0.999999
0.999999
0.999999
0.999999
0.999999
0.999999
0.999999
1
1
1
1.00001
1.00002
1.00003
1.00004
1.00002
0.999944
0.999778
0.999501
0.999126
0.998701
0.998299
0.997981
0.997783
0.997716
0.997782
0.997981
0.998299
0.998702
0.999129
0.999509
0.999796
0.999973
1.00005
1
1
1
1
1
1
1
1
1
1
1
1
1
1
1
1
1
1.00001
1.00002
1.00003
1.00003
0.999993
0.999877
0.999644
0.999277
0.998805
0.998299
0.997844
0.997506
0.997306
0.997242
0.997306
0.997506
0.997844
0.9983
0.998809
0.999288
0.999665
0.999909
1.00002
1
1
1
1
1
1
1
1
1
1
1
1
1
1
1
1
1.00001
1.00001
1.00002
1.00003
1.00002
0.999966
0.999812
0.999521
0.999082
0.998539
0.997981
0.997506
0.997174
0.996991
0.996935
0.996991
0.997174
0.997506
0.997982
0.998544
0.999094
0.999544
0.999845
0.999991
1
1
1
1
1
1
1
1
1
1
1
1
1
1
1
1
1.00001
1.00001
1.00002
1.00003
1.00002
0.999946
0.999766
0.999435
0.99895
0.998365
0.997783
0.997306
0.996991
0.996829
0.996782
0.996829
0.996991
0.997307
0.997784
0.998371
0.998963
0.999459
0.999798
0.999964
1
1
1
1
1
1
1
1
1
1
1
1
1
1
1
1
1.00001
1.00001
1.00002
1.00003
1.00002
0.999938
0.999749
0.999404
0.998903
0.998305
0.997716
0.997242
0.996935
0.996782
0.996739
0.996782
0.996935
0.997242
0.997718
0.998311
0.998917
0.999429
0.999781
0.999954
1
1
1
1
1
1
1
1
1
1
1
1
1
1
1
1
1.00001
1.00001
1.00002
1.00003
1.00002
0.999946
0.999766
0.999435
0.99895
0.998365
0.997782
0.997306
0.996991
0.996829
0.996782
0.996829
0.996991
0.997307
0.997784
0.99837
0.998963
0.999459
0.999798
0.999964
1
1
1
1
1
1
1
1
1
1
1
1
1
1
1
1
1.00001
1.00001
1.00002
1.00003
1.00002
0.999966
0.999812
0.999521
0.999082
0.998538
0.997981
0.997506
0.997174
0.996991
0.996935
0.996991
0.997174
0.997506
0.997982
0.998543
0.999094
0.999544
0.999845
0.999991
1
1
1
1
1
1
1
1
1
1
1
1
1
1
1
1
1
1.00001
1.00002
1.00003
1.00003
0.999993
0.999877
0.999644
0.999277
0.998805
0.998299
0.997844
0.997506
0.997307
0.997242
0.997307
0.997506
0.997845
0.9983
0.998809
0.999288
0.999664
0.999909
1.00002
1
1
1
1
1
1
1
1
1
1
1
1
1
1
1
1
1
1.00001
1.00002
1.00003
1.00004
1.00002
0.999943
0.999778
0.999501
0.999126
0.998702
0.9983
0.997982
0.997784
0.997718
0.997784
0.997982
0.9983
0.998703
0.999129
0.999509
0.999795
0.999973
1.00005
1
1
1
1
1
1
1
1
1
1
1
1
1
1
1
1
1
1.00001
1.00001
1.00003
1.00004
1.00003
0.999997
0.999897
0.999713
0.999447
0.999129
0.998809
0.998544
0.998371
0.998311
0.99837
0.998543
0.998809
0.999129
0.999449
0.999719
0.999911
1.00002
1.00007
1
1
1
1
1
1
1
1
1
1
1
1
1
1
1
1
1
1
1.00001
1.00002
1.00003
1.00004
1.00003
0.999983
0.999881
0.999718
0.999509
0.999288
0.999094
0.998963
0.998917
0.998963
0.999094
0.999288
0.999509
0.999719
0.999885
0.999993
1.00005
1.00007
1
1
1
1
1
1
1
1
1
1
1
1
1
1
1
1
1
1
1.00001
1.00001
1.00002
1.00004
1.00004
1.00003
0.999991
0.99991
0.999796
0.999665
0.999544
0.999459
0.999429
0.999459
0.999544
0.999664
0.999795
0.999911
0.999993
1.00004
1.00006
1.00006
1
1
1
1
1
1
1
1
1
1
1
1
1
1
1
1
1
1
1
1.00001
1.00002
1.00003
1.00004
1.00005
1.00005
1.00002
0.999973
0.999909
0.999845
0.999798
0.999781
0.999798
0.999845
0.999909
0.999973
1.00002
1.00005
1.00006
1.00005
1.00005
1
1
1
1
1
1
1
1
1
1
1
1
1
1
1
1
1
1
1
1.00001
1.00001
1.00003
1.00004
1.00006
1.00007
1.00007
1.00005
1.00002
0.999991
0.999964
0.999954
0.999964
0.999991
1.00002
1.00005
1.00007
1.00007
1.00006
1.00005
1.00004
SCALARS C2 double 1
LOOKUP_TABLE default
2.00001
2.00002
2.00006
2.00011
2.00017
2.00025
2.00031
2.00036
2.00039
2.00041
2.00041
2.00041
2.00039
2.00036
2.00031
2.00025
2.00017
2.00011
2.00006
2.00002
2.00001
2
2
2
2
2
2
2
2
2
2
2
2
2
2
2
2
2
2
2
2.00002
2.00004
2.00009
2.00015
2.00022
2.00028
2.00032
2.00033
2.00032
2.00031
2.0003
2.00031
2.00032
2.00033
2.00032
2.00028
2.00022
2.00015
2.00009
2.00005
2.00002
2
2
2
2
2
2
2
2
2
2
2
2
2
2
2
2
2
2
2
2.00006
2.00009
2.00015
2.00022
2.00028
2.0003
2.00026
2.00017
2.00006
1.99996
1.99993
1.99996
2.00006
2.00017
2.00026
2.0003
2.00028
2.00022
2.00015
2.00009
2.00004
2.00002
2
2
2
2
2
2
2
2
2
2
2
2
2
2
2
2
2
2
2.00011
2.00015
2.00022
2.00028
2.00029
2.00019
1.99999
1.99969
1.99939
1.99916
1.99907
1.99916
1.99939
1.99969
1.99999
2.00019
2.00029
2.00028
2.00022
2.00014
2.00008
2.00003
2.00001
2
2
2
2
2
2
2
2
2
2
2
2
2
2
2
2
2
2.00017
2.00022
2.00028
2.00029
2.00017
1.99986
1.99935
1.99873
1.99813
1.9977
1.99754
1.9977
1.99813
1.99873
1.99935
1.99986
2.00017
2.00029
2.00027
2.0002
2.00012
2.00006
2.00002
2.00001
2
2
2
2
2
2
2
2
2
2
2
2
2
2
2
2
2.00025
2.00028
2.0003
2.00019
1.99986
1.99921
1.9983
1.99724
1.99626
1.99558
1.99533
1.99558
1.99626
1.99724
1.9983
1.99921
1.99986
2.00019
2.00029
2.00025
2.00016
2.00009
2.00004
2.00001
2
2
2
2
2
2
2
2
2
2
2
2
2
2
2
2
2.00031
2.00032
2.00026
1.99999
1.99935
1.9983
1.99689
1.99535
1.99397
1.99303
1.9927
1.99303
1.99397
1.99535
1.99689
1.9983
1.99935
1.99998
2.00024
2.00027
2.0002
2.00011
2.00005
2.00002
2
2
2
2
2
2
2
2
2
2
2
2
2
2
2
2
2.00036
2.00033
2.00017
1.99969
1.99873
1.99724
1.99535
1.99336
1.99164
1.99049
1.99009
1.99049
1.99164
1.99336
1.99535
1.99724
1.99873
1.99969
2.00014
2.00027
2.00022
2.00014
2.00007
2.00003
2.00001
2
2
2
2
2
2
2
2
2
2
2
2
2
2
2
2.00039
2.00032
2.00006
1.99939
1.99813
1.99626
1.99397
1.99164
1.98968
1.98839
1.98795
1.98839
1.98968
1.99164
1.99398
1.99627
1.99813
1.99938
2.00002
2.00024
2.00024
2.00016
2.00008
2.00003
2.00001
2
2
2
2
2
2
2
2
2
2
2
2
2
2
2
2.00041
2.00031
1.99996
1.99916
1.9977
1.99558
1.99303
1.99049
1.98839
1.98704
1.98658
1.98704
1.98839
1.99049
1.99304
1.99558
1.9977
1.99915
1.99993
2.00022
2.00024
2.00017
2.00009
2.00004
2.00001
2
2
2
2
2
2
2
2
2
2
2
2
2
2
2
2.00041
2.0003
1.99993
1.99907
1.99754
1.99533
1.9927
1.99009
1.98795
1.98658
1.98611
1.98658
1.98795
1.99009
1.9927
1.99533
1.99754
1.99906
1.99989
2.00021
2.00024
2.00017
2.00009
2.00004
2.00001
2
2
2
2
2
2
2
2
2
2
2
2
2
2
2
2.00041
2.00031
1.99996
1.99916
1.9977
1.99558
1.99303
1.99049
1.98839
1.98704
1.98658
1.98704
1.98839
1.99049
1.99304
1.99558
1.9977
1.99915
1.99993
2.00022
2.00024
2.00017
2.00009
2.00004
2.00001
2
2
2
2
2
2
2
2
2
2
2
2
2
2
2
2.00039
2.00032
2.00006
1.99939
1.99813
1.99626
1.99397
1.99164
1.98968
1.98839
1.98795
1.98839
1.98968
1.99164
1.99398
1.99627
1.99813
1.99938
2.00002
2.00024
2.00024
2.00016
2.00008
2.00003
2.00001
2
2
2
2
2
2
2
2
2
2
2
2
2
2
2
2.00036
2.00033
2.00017
1.99969
1.99873
1.99724
1.99535
1.99336
1.99164
1.99049
1.99009
1.99049
1.99164
1.99336
1.99535
1.99724
1.99873
1.99969
2.00014
2.00027
2.00022
2.00014
2.00007
2.00003
2.00001
2
2
2
2
2
2
2
2
2
2
2
2
2
2
2
2.00031
2.00032
2.00026
1.99999
1.99935
1.9983
1.99689
1.99535
1.99398
1.99304
1.9927
1.99304
1.99398
1.99535
1.99689
1.9983
1.99935
1.99998
2.00024
2.00027
2.0002
2.00011
2.00005
2.00002
2.00001
2
2
2
2
2
2
2
2
2
2
2
2
2
2
2
2.00025
2.00028
2.0003
2.00019
1.99986
1.99921
1.9983
1.99724
1.99627
1.99558
1.99533
1.99558
1.99627
1.99724
1.9983
1.99921
1.99986
2.00019
2.00029
2.00025
2.00016
2.00009
2.00004
2.00001
2
2
2
2
2
2
2
2
2
2
2
2
2
2
2
2
2.00017
2.00022
2.00028
2.00029
2.00017
1.99986
1.99935
1.99873
1.99813
1.9977
1.99754
1.9977
1.99813
1.99873
1.99935
1.99986
2.00017
2.00029
2.00027
2.0002
2.00012
2.00006
2.00002
2.00001
2
2
2
2
2
2
2
2
2
2
2
2
2
2
2
2
2.00011
2.00015
2.00022
2.00028
2.00029
2.00019
1.99998
1.99969
1.99938
1.99915
1.99906
1.99915
1.99938
1.99969
1.99998
2.00019
2.00029
2.00028
2.00022
2.00014
2.00008
2.00003
2.00001
2
2
2
1.99999
1.99999
1.99999
1.99999
1.99999
1.99999
1.99999
1.99999
1.99999
2
2
2
2
2
2.00006
2.00009
2.00015
2.00022
2.00027
2.00029
2.00024
2.00014
2.00002
1.99993
1.99989
1.99993
2.00002
2.00014
2.00024
2.00029
2.00027
2.00022
2.00015
2.00009
2.00004
2.00002
2
2
1.99999
1.99999
1.99998
1.99997
1.99997
1.99996
1.99996
1.99996
1.99997
1.99997
1.99998
1.99999
1.99999
2
2
2
2.00002
2.00005
2.00009
2.00014
2.0002
2.00025
2.00027
2.00027
2.00024
2.00022
2.00021
2.00022
2.00024
2.00027
2.00027
2.00025
2.0002
2.00014
2.00009
2.00005
2.00002
2
2
1.99999
1.99998
1.99997
1.99995
1.99994
1.99993
1.99992
1.99992
1.99992
1.99993
1.99994
1.99995
1.99997
1.99998
1.99999
2
2
2.00001
2.00002
2.00004
2.00008
2.00012
2.00016
2.0002
2.00022
2.00024
2.00024
2.00024
2.00024
2.00024
2.00022
2.0002
2.00016
2.00012
2.00008
2.00004
2.00002
2
1.99999
1.99998
1.99997
1.99995
1.99993
1.99991
1.99989
1.99988
1.99987
1.99987
1.99987
1.99988
1.99989
1.99991
1.99993
1.99995
1.99997
1.99999
1.99999
2
2
2.00002
2.00003
2.00006
2.00009
2.00011
2.00014
2.00016
2.00017
2.00017
2.00017
2.00016
2.00014
2.00011
2.00009
2.00006
2.00003
2.00002
2
1.99999
1.99998
1.99996
1.99994
1.99991
1.99988
1.99986
1.99985
1.99984
1.99985
1.99985
1.99985
1.99984
1.99985
1.99986
1.99988
1.99991
1.99994
1.99996
1.99998
2
2
2
2.00001
2.00002
2.00004
2.00005
2.00007
2.00008
2.00009
2.00009
2.00009
2.00008
2.00007
2.00005
2.00004
2.00002
2.00001
2
2
1.99998
1.99996
1.99994
1.9999
1.99986
1.99984
1.99983
1.99985
1.99988
1.9999
1.99992
1.9999
1.99988
1.99985
1.99983
1.99984
1.99986
1.9999
1.99993
1.99995
2
2
2
2
2.00001
2.00001
2.00002
2.00003
2.00003
2.00004
2.00004
2.00004
2.00003
2.00003
2.00002
2.00001
2.00001
2
2
1.99999
1.99997
1.99994
1.9999
1.99986
1.99983
1.99983
1.99988
1.99997
2.00007
2.00015
2.00018
2.00015
2.00007
1.99997
1.99988
1.99983
1.99983
1.99985
1.99989
1.99991
2
2
2
2
2
2
2
2.00001
2.00001
2.00001
2.00001
2.00001
2.00001
2.00001
2.00001
2
2
2
1.99999
1.99998
1.99995
1.99991
1.99986
1.99983
1.99983
1.99991
2.00007
2.00029
2.00051
2.00068
2.00074
2.00068
2.00051
2.00029
2.00007
1.99991
1.99983
1.99982
1.99984
1.99986
2
2
2
2
2
2
2
2
2
2
2
2
2
2
2
2
2
2
1.99999
1.99997
1.99993
1.99988
1.99984
1.99983
1.99991
2.00012
2.00045
2.00085
2.00125
2.00153
2.00164
2.00153
2.00125
2.00085
2.00045
2.00012
1.99991
1.99982
1.9998
1.99981
2
2
2
2
2
2
2
2
2
2
2
2
2
2
2
2
2
1.99999
1.99998
1.99995
1.99991
1.99986
1.99983
1.99988
2.00007
2.00045
2.00099
2.00162
2.00222
2.00263
2.00279
2.00263
2.00222
2.00162
2.00099
2.00045
2.00007
1.99986
1.99978
1.99977
2
2
2
2
2
2
2
2
2
2
2
2
2
2
2
2
2
1.99999
1.99997
1.99994
1.99989
1.99985
1.99985
1.99997
2.00029
2.00085
2.00162
2.00249
2.00327
2.00381
2.004
2.00381
2.00327
2.00249
2.00162
2.00085
2.00028
1.99994
1.99979
1.99974
2
2
2
2
2
2
2
2
2
2
2
2
2
2
2
2
2
1.99999
1.99997
1.99993
1.99988
1.99984
1.99988
2.00007
2.00051
2.00125
2.00222
2.00327
2.0042
2.00484
2.00507
2.00484
2.0042
2.00327
2.00222
2.00124
2.0005
2.00004
1.99981
1.99972
2
2
2
2
2
2
2
2
2
2
2
2
2
2
2
2
2
1.99999
1.99996
1.99992
1.99987
1.99985
1.9999
2.00015
2.00068
2.00153
2.00263
2.00381
2.00484
2.00554
2.00578
2.00554
2.00484
2.00381
2.00263
2.00153
2.00067
2.00011
1.99983
1.99972
2
2
2
2
2
2
2
2
2
2
2
2
2
2
2
2
2
1.99999
1.99996
1.99992
1.99987
1.99985
1.99992
2.00018
2.00074
2.00164
2.00279
2.004
2.00507
2.00578
2.00603
2.00578
2.00507
2.004
2.00278
2.00163
2.00073
2.00014
1.99984
1.99972
2
2
2
2
2
2
2
2
2
2
2
2
2
2
2
2
2
1.99999
1.99996
1.99992
1.99987
1.99985
1.9999
2.00015
2.00068
2.00153
2.00263
2.00381
2.00484
2.00554
2.00578
2.00554
2.00484
2.00381
2.00263
2.00153
2.00067
2.00011
1.99983
1.99972
2
2
2
2
2
2
2
2
2
2
2
2
2
2
2
2
2
1.99999
1.99997
1.99993
1.99988
1.99984
1.99988
2.00007
2.00051
2.00125
2.00222
2.00327
2.0042
2.00484
2.00507
2.00484
2.0042
2.00327
2.00222
2.00124
2.0005
2.00004
1.99981
1.99972
2
2
2
2
2
2
2
2
2
2
2
2
2
2
2
2
2
1.99999
1.99997
1.99994
1.99989
1.99985
1.99985
1.99997
2.00029
2.00085
2.00162
2.00249
2.00327
2.00381
2.004
2.00381
2.00327
2.00249
2.00162
2.00085
2.00028
1.99994
1.99979
1.99974
2
2
2
2
2
2
2
2
2
2
2
2
2
2
2
2
2
1.99999
1.99998
1.99995
1.99991
1.99986
1.99983
1.99988
2.00007
2.00045
2.00099
2.00162
2.00222
2.00263
2.00278
2.00263
2.00222
2.00162
2.00099
2.00045
2.00007
1.99986
1.99978
1.99977
2
2
2
2
2
2
2
2
2
2
2
2
2
2
2
2
2
2
1.99999
1.99997
1.99993
1.99988
1.99984
1.99983
1.99991
2.00012
2.00045
2.00085
2.00124
2.00153
2.00163
2.00153
2.00124
2.00085
2.00045
2.00012
1.99991
1.99982
1.9998
1.99981
2
2
2
2
2
2
2
2
2
2
2
2
2
2
2
2
2
2
1.99999
1.99998
1.99995
1.99991
1.99986
1.99983
1.99983
1.99991
2.00007
2.00028
2.0005
2.00067
2.00073
2.00067
2.0005
2.00028
2.00007
1.99991
1.99983
1.99982
1.99984
1.99986
2
2
2
2
2
2
2
2
2
2
2
2
2
2
2
2
2
2
2
1.99999
1.99997
1.99994
1.9999
1.99985
1.99982
1.99982
1.99986
1.99994
2.00004
2.00011
2.00014
2.00011
2.00004
1.99994
1.99986
1.99982
1.99982
1.99985
1.99989
1.99991
2
2
2
2
2
2
2
2
2
2
2
2
2
2
2
2
2
2
2
2
1.99999
1.99996
1.99993
1.99989
1.99984
1.9998
1.99978
1.99979
1.99981
1.99983
1.99984
1.99983
1.99981
1.99979
1.99978
1.9998
1.99984
1.99989
1.99993
1.99995
2
2
2
2
2
2
2
2
2
2
2
2
2
2
2
2
2
2
2
2
1.99999
1.99998
1.99995
1.99991
1.99986
1.99981
1.99977
1.99974
1.99972
1.99972
1.99972
1.99972
1.99972
1.99974
1.99977
1.99981
1.99986
1.99991
1.99995
1.99997
