# vtk DataFile Version 3.0
Brusselator Concentration Output
ASCII
DATASET STRUCTURED_POINTS
DIMENSIONS 40 40 1
ORIGIN 0.0 0.0 0.0
SPACING 0.005 0.005 1.0
POINT_DATA 1600
SCALARS C1 double 1
LOOKUP_TABLE default
1.00006
1.00007
1.00009
1.00009
1.00008
1.00005
0.999985
0.99991
0.999838
0.999787
0.999768
0.999787
0.999838
0.99991
0.999985
1.00005
1.00008
1.00009
1.00008
1.00006
1.00004
1.00002
1.00001
1
1
1
1
1
1
1
1
1
1
1
1
1
1
1
1
1
1.00007
1.00007
1.00007
1.00006
1.00001
0.999925
0.999814
0.999692
0.999581
0.999505
0.999478
0.999505
0.999581
0.999692
0.999814
0.999925
1.00001
1.00005
1.00007
1.00006
1.00004
1.00003
1.00001
1.00001
1
1
1
1
1
1
1
1
1
1
1
1
1
1
1
1
1.00009
1.00007
1.00004
0.999968
0.999845
0.999671
0.999465
0.999256
0.999079
0.998961
0.99892
0.998961
0.999079
0.999256
0.999465
0.999671
0.999844
0.999965
1.00003
1.00005
1.00005
1.00004
1.00002
1.00001
1
1
1
1
1
1
1
1
1
1
1
1
1
1
1
1
1.00009
1.00006
0.999968
0.999811
0.999576
0.999276
0.998946
0.998632
0.998379
0.998216
0.99816
0.998216
0.998379
0.998632
0.998946
0.999275
0.999574
0.999804
0.999953
1.00003
1.00005
1.00004
1.00003
1.00002
1.00001
1
1
1
1
1
1
1
1
1
1
1
1
1
1
1
1.00008
1.00001
0.999845
0.999576
0.999204
0.998761
0.998304
0.997896
0.997585
0.997394
0.99733
0.997394
0.997585
0.997896
0.998304
0.998759
0.9992
0.999565
0.999823
0.999971
1.00003
1.00005
1.00004
1.00002
1.00001
1
1
1
1
1
1
1
1
1
1
1
1
1
1
1
1.00005
0.999925
0.999671
0.999276
0.998761
0.998185
0.99763
0.99717
0.996845
0.99666
0.996601
0.99666
0.996845
0.99717
0.99763
0.998183
0.998754
0.999261
0.999643
0.999883
1
1.00004
1.00004
1.00003
1.00001
1.00001
1
1
1
1
1
1
1
1
1
1
1
1
1
1
0.999985
0.999814
0.999465
0.998946
0.998304
0.99763
0.997028
0.996576
0.996295
0.996157
0.996118
0.996157
0.996295
0.996576
0.997028
0.997627
0.998296
0.998927
0.999432
0.999771
0.999955
1.00003
1.00004
1.00003
1.00002
1.00001
1
1
1
1
1
1
1
1
1
1
1
1
1
1
0.99991
0.999692
0.999256
0.998632
0.997896
0.99717
0.996576
0.996189
0.996
0.995941
0.995933
0.995941
0.996
0.996189
0.996575
0.997166
0.997886
0.998611
0.999221
0.999651
0.9999
1.00001
1.00004
1.00004
1.00002
1.00001
1
1
1
1
1
1
1
1
1
1
1
1
1
1
0.999838
0.999581
0.999079
0.998379
0.997585
0.996845
0.996295
0.996
0.995922
0.995952
0.995977
0.995952
0.995922
0.996
0.996294
0.99684
0.997573
0.998355
0.999042
0.999545
0.999847
0.999991
1.00004
1.00004
1.00002
1.00001
1
1
1
1
1
1
1
1
1
1
1
1
1
1
0.999787
0.999505
0.998961
0.998216
0.997394
0.99666
0.996157
0.995941
0.995952
0.996051
0.996102
0.996051
0.995952
0.995941
0.996155
0.996655
0.997381
0.998191
0.998924
0.999472
0.99981
0.999976
1.00003
1.00004
1.00002
1.00001
1.00001
1
1
1
1
1
1
1
1
1
1
1
1
1
0.999768
0.999478
0.99892
0.99816
0.99733
0.996601
0.996118
0.995933
0.995977
0.996102
0.996164
0.996102
0.995977
0.995932
0.996116
0.996595
0.997317
0.998135
0.998882
0.999446
0.999797
0.999971
1.00003
1.00004
1.00003
1.00001
1.00001
1
1
1
1
1
1
1
1
1
1
1
1
1
0.999787
0.999505
0.998961
0.998216
0.997394
0.99666
0.996157
0.995941
0.995952
0.996051
0.996102
0.996051
0.995952
0.995941
0.996156
0.996655
0.997381
0.998191
0.998924
0.999472
0.99981
0.999976
1.00003
1.00004
1.00003
1.00001
1.00001
1
1
1
1
1
1
1
1
1
1
1
1
1
0.999838
0.999581
0.999079
0.998379
0.997585
0.996845
0.996295
0.996
0.995922
0.995952
0.995977
0.995952
0.995922
0.996
0.996294
0.99684
0.997573
0.998355
0.999042
0.999545
0.999847
0.999991
1.00004
1.00004
1.00002
1.00001
1
1
1
1
1
1
1
1
1
1
1
1
1
1
0.99991
0.999692
0.999256
0.998632
0.997896
0.99717
0.996576
0.996189
0.996
0.995941
0.995932
0.995941
0.996
0.996189
0.996575
0.997166
0.997886
0.998611
0.999221
0.999651
0.9999
1.00001
1.00004
1.00004
1.00002
1.00001
1
1
1
0.999999
0.999999
0.999999
1
1
1
1
1
1
1
1
0.999985
0.999814
0.999465
0.998946
0.998304
0.99763
0.997028
0.996575
0.996294
0.996155
0.996116
0.996156
0.996294
0.996575
0.997027
0.997627
0.998296
0.998927
0.999433
0.999771
0.999955
1.00003
1.00004
1.00003
1.00002
1.00001
1
0.999999
0.999998
0.999998
0.999998
0.999998
0.999998
0.999999
0.999999
0.999999
1
1
1
1
1.00005
0.999925
0.999671
0.999275
0.998759
0.998183
0.997627
0.997166
0.99684
0.996655
0.996595
0.996655
0.99684
0.997166
0.997627
0.998181
0.998753
0.999261
0.999643
0.999884
1
1.00004
1.00004
1.00003
1.00001
1
0.999999
0.999996
0.999995
0.999995
0.999995
0.999995
0.999995
0.999996
0.999997
0.999998
0.999999
0.999999
1
1
1.00008
1.00001
0.999844
0.999574
0.9992
0.998754
0.998296
0.997886
0.997573
0.997381
0.997317
0.997381
0.997573
0.997886
0.998296
0.998753
0.999196
0.999563
0.999822
0.999971
1.00003
1.00005
1.00004
1.00002
1.00001
0.999998
0.999993
0.999991
0.999989
0.999989
0.999989
0.999989
0.99999
0.999991
0.999992
0.999994
0.999996
0.999998
0.999999
0.999999
1.00009
1.00005
0.999965
0.999804
0.999565
0.999261
0.998927
0.998611
0.998355
0.998191
0.998135
0.998191
0.998355
0.998611
0.998927
0.999261
0.999563
0.999798
0.999949
1.00003
1.00005
1.00004
1.00003
1.00001
0.999998
0.99999
0.999986
0.999983
0.999981
0.999981
0.999981
0.999981
0.999982
0.999983
0.999985
0.999988
0.999991
0.999994
0.999996
0.999997
1.00008
1.00007
1.00003
0.999953
0.999823
0.999643
0.999432
0.999221
0.999042
0.998924
0.998882
0.998924
0.999042
0.999221
0.999433
0.999643
0.999822
0.999949
1.00002
1.00005
1.00005
1.00003
1.00001
0.999997
0.999987
0.99998
0.999977
0.999976
0.999976
0.999976
0.999977
0.999976
0.999976
0.999976
0.999977
0.999979
0.999983
0.999987
0.999991
0.999993
1.00006
1.00006
1.00005
1.00003
0.999971
0.999883
0.999771
0.999651
0.999545
0.999472
0.999446
0.999472
0.999545
0.999651
0.999771
0.999884
0.999971
1.00003
1.00005
1.00005
1.00003
1.00001
0.999997
0.999984
0.999976
0.999973
0.999975
0.999979
0.999985
0.999989
0.999991
0.999989
0.999985
0.999979
0.999975
0.999973
0.999975
0.999978
0.999982
0.999985
1.00004
1.00004
1.00005
1.00005
1.00003
1
0.999955
0.9999
0.999847
0.99981
0.999797
0.99981
0.999847
0.9999
0.999955
1
1.00003
1.00005
1.00005
1.00003
1.00001
0.999997
0.999983
0.999974
0.999973
0.99998
0.999994
1.00001
1.00003
1.00004
1.00005
1.00004
1.00003
1.00001
0.999994
0.99998
0.999972
0.999969
0.999971
0.999972
1.00002
1.00003
1.00004
1.00004
1.00005
1.00004
1.00003
1.00001
0.999991
0.999976
0.999971
0.999976
0.999991
1.00001
1.00003
1.00004
1.00005
1.00004
1.00003
1.00001
0.999997
0.999983
0.999973
0.999974
0.999988
1.00002
1.00006
1.0001
1.00014
1.00017
1.00018
1.00017
1.00014
1.0001
1.00006
1.00002
0.999986
0.999968
0.999961
0.999958
1.00001
1.00001
1.00002
1.00003
1.00004
1.00004
1.00004
1.00004
1.00004
1.00003
1.00003
1.00003
1.00004
1.00004
1.00004
1.00004
1.00004
1.00003
1.00001
0.999997
0.999983
0.999973
0.999975
0.999994
1.00004
1.0001
1.00019
1.00027
1.00035
1.0004
1.00042
1.0004
1.00035
1.00027
1.00019
1.0001
1.00003
0.999985
0.999958
0.999947
1
1.00001
1.00001
1.00002
1.00002
1.00003
1.00003
1.00004
1.00004
1.00004
1.00004
1.00004
1.00004
1.00004
1.00003
1.00003
1.00002
1.00001
0.999997
0.999984
0.999974
0.999974
0.999994
1.00004
1.00013
1.00025
1.0004
1.00054
1.00066
1.00074
1.00077
1.00074
1.00066
1.00054
1.0004
1.00025
1.00013
1.00003
0.999973
0.999945
1
1
1
1.00001
1.00001
1.00001
1.00002
1.00002
1.00002
1.00002
1.00003
1.00003
1.00002
1.00002
1.00002
1.00001
1.00001
0.999998
0.999987
0.999976
0.999973
0.999988
1.00004
1.00013
1.00028
1.00047
1.00069
1.00089
1.00105
1.00115
1.00119
1.00115
1.00105
1.00089
1.00068
1.00047
1.00027
1.00012
1.00001
0.99996
1
1
1
1
1
1.00001
1.00001
1.00001
1.00001
1.00001
1.00001
1.00001
1.00001
1.00001
1.00001
1
0.999998
0.99999
0.99998
0.999973
0.99998
1.00002
1.0001
1.00025
1.00047
1.00074
1.00102
1.00127
1.00146
1.00158
1.00162
1.00158
1.00146
1.00127
1.00102
1.00073
1.00046
1.00023
1.00008
0.999996
1
1
1
1
1
1
1
1
1
1.00001
1.00001
1.00001
1
1
1
0.999999
0.999993
0.999986
0.999977
0.999975
0.999994
1.00006
1.00019
1.0004
1.00069
1.00102
1.00135
1.00162
1.00182
1.00194
1.00198
1.00194
1.00182
1.00162
1.00134
1.00101
1.00067
1.00037
1.00016
1.00005
1
1
1
1
1
1
1
1
1
1
1
1
1
1
0.999999
0.999996
0.999991
0.999983
0.999976
0.999979
1.00001
1.0001
1.00027
1.00054
1.00089
1.00127
1.00162
1.0019
1.00209
1.00219
1.00222
1.00219
1.00209
1.0019
1.00162
1.00126
1.00087
1.00052
1.00025
1.00011
1
1
1
1
1
1
1
1
1
1
1
1
1
1
0.999998
0.999995
0.999989
0.999981
0.999976
0.999985
1.00003
1.00014
1.00035
1.00066
1.00105
1.00146
1.00182
1.00209
1.00225
1.00232
1.00234
1.00232
1.00225
1.00209
1.00182
1.00145
1.00103
1.00064
1.00034
1.00017
1
1
1
1
1
1
1
1
1
1
1
1
1
0.999999
0.999998
0.999995
0.999989
0.999981
0.999976
0.999989
1.00004
1.00017
1.0004
1.00074
1.00115
1.00158
1.00194
1.00219
1.00232
1.00238
1.00239
1.00238
1.00232
1.00219
1.00193
1.00157
1.00113
1.00072
1.00039
1.00022
1
1
1
1
1
1
1
1
1
1
1
1
1
0.999999
0.999998
0.999995
0.999989
0.999981
0.999977
0.999991
1.00005
1.00018
1.00042
1.00077
1.00119
1.00162
1.00198
1.00222
1.00234
1.00239
1.00239
1.00239
1.00234
1.00222
1.00197
1.00161
1.00117
1.00074
1.00041
1.00023
1
1
1
1
1
1
1
1
1
1
1
1
1
0.999999
0.999998
0.999995
0.999989
0.999981
0.999976
0.999989
1.00004
1.00017
1.0004
1.00074
1.00115
1.00158
1.00194
1.00219
1.00232
1.00238
1.00239
1.00238
1.00232
1.00219
1.00193
1.00157
1.00113
1.00072
1.00039
1.00022
1
1
1
1
1
1
1
1
1
1
1
1
1
1
0.999998
0.999995
0.99999
0.999982
0.999976
0.999985
1.00003
1.00014
1.00035
1.00066
1.00105
1.00146
1.00182
1.00209
1.00225
1.00232
1.00234
1.00232
1.00225
1.00209
1.00182
1.00145
1.00103
1.00064
1.00034
1.00017
1
1
1
1
1
1
1
1
1
1
1
1
1
1
0.999999
0.999996
0.999991
0.999983
0.999976
0.999979
1.00001
1.0001
1.00027
1.00054
1.00089
1.00127
1.00162
1.0019
1.00209
1.00219
1.00222
1.00219
1.00209
1.0019
1.00162
1.00126
1.00087
1.00052
1.00025
1.00011
1
1
1
1
1
1
1
1
1
1
1
1
1
1
0.999999
0.999997
0.999992
0.999985
0.999977
0.999975
0.999994
1.00006
1.00019
1.0004
1.00068
1.00102
1.00134
1.00162
1.00182
1.00193
1.00197
1.00193
1.00182
1.00162
1.00134
1.00101
1.00067
1.00037
1.00016
1.00005
1
1
1
1
1
1
1
1
1
1
1
1
1
1
0.999999
0.999998
0.999994
0.999988
0.999979
0.999973
0.99998
1.00002
1.0001
1.00025
1.00047
1.00073
1.00101
1.00126
1.00145
1.00157
1.00161
1.00157
1.00145
1.00126
1.00101
1.00073
1.00046
1.00023
1.00007
0.999995
1
1
1
1
1
1
1
1
1
1
1
1
1
1
1
0.999999
0.999996
0.999991
0.999983
0.999975
0.999972
0.999986
1.00003
1.00013
1.00027
1.00046
1.00067
1.00087
1.00103
1.00113
1.00117
1.00113
1.00103
1.00087
1.00067
1.00046
1.00026
1.00011
1.00001
0.999957
1
1
1
1
1
1
1
1
1
1
1
1
1
1
1
0.999999
0.999998
0.999994
0.999987
0.999978
0.999969
0.999968
0.999985
1.00003
1.00012
1.00023
1.00037
1.00052
1.00064
1.00072
1.00074
1.00072
1.00064
1.00052
1.00037
1.00023
1.00011
1.00002
0.999964
0.999938
1
1
1
1
1
1
1
1
1
1
1
1
1
1
1
1
0.999999
0.999996
0.999991
0.999982
0.999971
0.999961
0.999958
0.999973
1.00001
1.00008
1.00016
1.00025
1.00034
1.00039
1.00041
1.00039
1.00034
1.00025
1.00016
1.00007
1.00001
0.999964
0.99994
0.999931
1
1
1
1
1
1
1
1
1
1
1
1
1
1
1
1
0.999999
0.999997
0.999993
0.999985
0.999972
0.999958
0.999947
0.999945
0.99996
0.999996
1.00005
1.00011
1.00017
1.00022
1.00023
1.00022
1.00017
1.00011
1.00005
0.999995
0.999957
0.999938
0.999931
0.999931
SCALARS C2 double 1
LOOKUP_TABLE default
1.99995
1.99992
1.99987
1.9998
1.99974
1.99968
1.99965
1.99965
1.99966
1.99968
1.99968
1.99968
1.99966
1.99965
1.99965
1.99968
1.99973
1.9998
1.99987
1.99992
1.99996
1.99999
2
2
2
2
2
2
2
2
2
2
2
2
2
2
2
2
2
2
1.99992
1.99989
1.99984
1.99978
1.99974
1.99973
1.99976
1.99981
1.99988
1.99994
1.99996
1.99994
1.99988
1.99981
1.99976
1.99973
1.99974
1.99978
1.99984
1.9999
1.99995
1.99998
1.99999
2
2
2
2
2
2
2
2
2
2
2
2
2
2
2
2
2
1.99987
1.99984
1.9998
1.99977
1.99979
1.99988
2.00003
2.00022
2.00041
2.00055
2.0006
2.00055
2.00041
2.00022
2.00003
1.99988
1.99979
1.99977
1.99981
1.99986
1.99991
1.99996
1.99998
1.99999
2
2
2
2
2
2
2
2
2
2
2
2
2
2
2
2
1.9998
1.99978
1.99977
1.99982
1.99996
2.00021
2.00057
2.00097
2.00134
2.0016
2.00169
2.0016
2.00134
2.00097
2.00057
2.00021
1.99996
1.99982
1.99979
1.99982
1.99987
1.99993
1.99997
1.99999
2
2
2
2
2
2
2
2
2
2
2
2
2
2
2
2
1.99974
1.99974
1.99979
1.99996
2.00028
2.00078
2.00142
2.0021
2.00269
2.0031
2.00325
2.0031
2.00269
2.0021
2.00142
2.00078
2.00028
1.99996
1.99982
1.9998
1.99984
1.9999
1.99995
1.99998
1.99999
2
2
2
2
2
2
2
2
2
2
2
2
2
2
2
1.99968
1.99973
1.99988
2.00021
2.00078
2.00159
2.00256
2.00355
2.00439
2.00495
2.00515
2.00495
2.00439
2.00355
2.00256
2.00159
2.00079
2.00022
1.99992
1.99981
1.99981
1.99987
1.99992
1.99996
1.99999
2
2
2
2
2
2
2
2
2
2
2
2
2
2
2
1.99965
1.99976
2.00003
2.00057
2.00142
2.00256
2.00387
2.00515
2.00621
2.00691
2.00715
2.00691
2.00621
2.00515
2.00387
2.00256
2.00143
2.00059
2.00008
1.99985
1.99981
1.99985
1.9999
1.99995
1.99998
1.99999
2
2
2
2
2
2
2
2
2
2
2
2
2
2
1.99965
1.99981
2.00022
2.00097
2.0021
2.00355
2.00515
2.00668
2.0079
2.00869
2.00895
2.00869
2.0079
2.00668
2.00515
2.00355
2.0021
2.00099
2.00028
1.99993
1.99982
1.99983
1.99989
1.99994
1.99997
1.99999
2
2
2
2
2
2
2
2
2
2
2
2
2
2
1.99966
1.99988
2.00041
2.00134
2.00269
2.00439
2.00621
2.0079
2.00923
2.01006
2.01034
2.01006
2.00923
2.0079
2.00621
2.00439
2.0027
2.00137
2.00048
2.00001
1.99983
1.99983
1.99988
1.99993
1.99997
1.99999
2
2
2
2
2
2
2
2
2
2
2
2
2
2
1.99968
1.99994
2.00055
2.0016
2.0031
2.00495
2.00691
2.00869
2.01006
2.01091
2.01119
2.01091
2.01006
2.00869
2.00691
2.00495
2.00311
2.00163
2.00062
2.00007
1.99985
1.99982
1.99987
1.99993
1.99997
1.99999
2
2
2
2
2
2
2
2
2
2
2
2
2
2
1.99968
1.99996
2.0006
2.00169
2.00325
2.00515
2.00715
2.00895
2.01034
2.01119
2.01148
2.01119
2.01034
2.00895
2.00715
2.00515
2.00326
2.00172
2.00067
2.00009
1.99986
1.99982
1.99987
1.99993
1.99997
1.99999
2
2
2
2
2
2
2
2
2
2
2
2
2
2
1.99968
1.99994
2.00055
2.0016
2.0031
2.00495
2.00691
2.00869
2.01006
2.01091
2.01119
2.01091
2.01006
2.00869
2.00691
2.00495
2.00311
2.00163
2.00062
2.00007
1.99985
1.99982
1.99987
1.99993
1.99997
1.99999
2
2
2
2
2
2
2
2
2
2
2
2
2
2
1.99966
1.99988
2.00041
2.00134
2.00269
2.00439
2.00621
2.0079
2.00923
2.01006
2.01034
2.01006
2.00923
2.0079
2.00621
2.00439
2.0027
2.00137
2.00048
2.00001
1.99983
1.99983
1.99988
1.99993
1.99997
1.99999
2
2
2
2
2
2
2
2
2
2
2
2
2
2
1.99965
1.99981
2.00022
2.00097
2.0021
2.00355
2.00515
2.00668
2.0079
2.00869
2.00895
2.00869
2.0079
2.00668
2.00515
2.00355
2.0021
2.00099
2.00028
1.99993
1.99982
1.99983
1.99989
1.99994
1.99997
1.99999
2
2
2
2
2
2
2
2
2
2
2
2
2
2
1.99965
1.99976
2.00003
2.00057
2.00142
2.00256
2.00387
2.00515
2.00621
2.00691
2.00715
2.00691
2.00621
2.00515
2.00387
2.00256
2.00142
2.00058
2.00008
1.99985
1.99981
1.99985
1.9999
1.99995
1.99998
1.99999
2
2
2
2
2
2
2
2
2
2
2
2
2
2
1.99968
1.99973
1.99988
2.00021
2.00078
2.00159
2.00256
2.00355
2.00439
2.00495
2.00515
2.00495
2.00439
2.00355
2.00256
2.00159
2.00078
2.00022
1.99991
1.9998
1.99981
1.99987
1.99992
1.99996
1.99999
2
2
2
2
2
2
2
2
2
2
2
2
2
2
2
1.99973
1.99974
1.99979
1.99996
2.00028
2.00079
2.00143
2.0021
2.0027
2.00311
2.00326
2.00311
2.0027
2.0021
2.00142
2.00078
2.00028
1.99996
1.99982
1.99979
1.99984
1.9999
1.99995
1.99998
1.99999
2
2.00001
2.00001
2.00001
2.00001
2.00001
2.00001
2.00001
2.00001
2.00001
2
2
2
2
2
1.9998
1.99978
1.99977
1.99982
1.99996
2.00022
2.00059
2.00099
2.00137
2.00163
2.00172
2.00163
2.00137
2.00099
2.00058
2.00022
1.99996
1.99982
1.99979
1.99982
1.99987
1.99993
1.99997
1.99999
2
2.00001
2.00002
2.00002
2.00003
2.00003
2.00003
2.00003
2.00003
2.00002
2.00002
2.00001
2.00001
2
2
2
1.99987
1.99984
1.99981
1.99979
1.99982
1.99992
2.00008
2.00028
2.00048
2.00062
2.00067
2.00062
2.00048
2.00028
2.00008
1.99991
1.99982
1.99979
1.99981
1.99986
1.99991
1.99996
1.99999
2.00001
2.00002
2.00003
2.00004
2.00005
2.00006
2.00006
2.00006
2.00006
2.00006
2.00005
2.00004
2.00003
2.00002
2.00001
2.00001
2
1.99992
1.9999
1.99986
1.99982
1.9998
1.99981
1.99985
1.99993
2.00001
2.00007
2.00009
2.00007
2.00001
1.99993
1.99985
1.9998
1.99979
1.99982
1.99986
1.99991
1.99995
1.99998
2.00001
2.00003
2.00004
2.00006
2.00007
2.00008
2.00009
2.00009
2.00009
2.00009
2.00009
2.00008
2.00007
2.00006
2.00004
2.00003
2.00002
2.00001
1.99996
1.99995
1.99991
1.99987
1.99984
1.99981
1.99981
1.99982
1.99983
1.99985
1.99986
1.99985
1.99983
1.99982
1.99981
1.99981
1.99984
1.99987
1.99991
1.99995
1.99998
2.00001
2.00003
2.00006
2.00008
2.00009
2.00011
2.00011
2.00011
2.00011
2.00011
2.00011
2.00011
2.00011
2.00011
2.00009
2.00008
2.00006
2.00004
2.00003
1.99999
1.99998
1.99996
1.99993
1.9999
1.99987
1.99985
1.99983
1.99983
1.99982
1.99982
1.99982
1.99983
1.99983
1.99985
1.99987
1.9999
1.99993
1.99996
1.99998
2.00001
2.00003
2.00006
2.00009
2.00011
2.00012
2.00012
2.0001
2.00008
2.00006
2.00006
2.00006
2.00008
2.0001
2.00012
2.00012
2.00011
2.00009
2.00007
2.00006
2
1.99999
1.99998
1.99997
1.99995
1.99992
1.9999
1.99989
1.99988
1.99987
1.99987
1.99987
1.99988
1.99989
1.9999
1.99992
1.99995
1.99997
1.99999
2.00001
2.00003
2.00006
2.00009
2.00012
2.00013
2.00011
2.00007
2
1.99994
1.99989
1.99987
1.99989
1.99994
2
2.00006
2.00011
2.00013
2.00012
2.00011
2.0001
2
2
1.99999
1.99999
1.99998
1.99996
1.99995
1.99994
1.99993
1.99993
1.99993
1.99993
1.99993
1.99994
1.99995
1.99996
1.99998
1.99999
2.00001
2.00003
2.00006
2.00009
2.00012
2.00013
2.0001
2.00002
1.9999
1.99976
1.99961
1.99951
1.99947
1.99951
1.99961
1.99976
1.9999
2.00002
2.0001
2.00014
2.00015
2.00014
2
2
2
2
1.99999
1.99999
1.99998
1.99997
1.99997
1.99997
1.99997
1.99997
1.99997
1.99997
1.99998
1.99999
1.99999
2
2.00002
2.00004
2.00008
2.00011
2.00013
2.0001
2.00001
1.99983
1.9996
1.99933
1.99908
1.99891
1.99884
1.99891
1.99908
1.99933
1.9996
1.99984
2.00001
2.00012
2.00017
2.00018
2
2
2
2
2
2
1.99999
1.99999
1.99999
1.99999
1.99999
1.99999
1.99999
1.99999
1.99999
2
2
2.00001
2.00003
2.00006
2.00009
2.00012
2.00011
2.00002
1.99983
1.99953
1.99914
1.99872
1.99835
1.9981
1.99801
1.9981
1.99835
1.99872
1.99914
1.99954
1.99985
2.00006
2.00017
2.00021
2
2
2
2
2
2
2
2
2
2
2
2
2
2
2
2
2.00001
2.00002
2.00004
2.00007
2.00011
2.00012
2.00007
1.9999
1.9996
1.99914
1.99859
1.99801
1.99752
1.99719
1.99707
1.99719
1.99752
1.99801
1.99859
1.99915
1.99961
1.99994
2.00014
2.00022
2
2
2
2
2
2
2
2
2
2
2
2
2
2
2
2
2.00001
2.00002
2.00005
2.00008
2.00011
2.0001
2
1.99976
1.99933
1.99872
1.99801
1.9973
1.9967
1.9963
1.99617
1.9963
1.9967
1.9973
1.99802
1.99873
1.99935
1.99981
2.00009
2.00021
2
2
2
2
2
2
2
2
2
2
2
2
2
2
2
2
2.00001
2.00003
2.00006
2.00009
2.00011
2.00008
1.99994
1.99961
1.99908
1.99835
1.99752
1.9967
1.99602
1.99558
1.99543
1.99558
1.99602
1.9967
1.99752
1.99837
1.99911
1.99967
2.00003
2.00019
2
2
2
2
2
2
2
2
2
2
2
2
2
2
2
2
2.00001
2.00003
2.00006
2.00009
2.00011
2.00006
1.99989
1.99951
1.99891
1.9981
1.99719
1.9963
1.99558
1.99512
1.99496
1.99512
1.99558
1.9963
1.99719
1.99811
1.99894
1.99957
1.99998
2.00017
2
2
2
2
2
2
2
2
2
2
2
2
2
2
2
2
2.00001
2.00003
2.00006
2.00009
2.00011
2.00006
1.99987
1.99947
1.99884
1.99801
1.99707
1.99617
1.99543
1.99496
1.9948
1.99496
1.99543
1.99617
1.99707
1.99802
1.99888
1.99954
1.99996
2.00016
2
2
2
2
2
2
2
2
2
2
2
2
2
2
2
2
2.00001
2.00003
2.00006
2.00009
2.00011
2.00006
1.99989
1.99951
1.99891
1.9981
1.99719
1.9963
1.99558
1.99512
1.99496
1.99512
1.99558
1.9963
1.99719
1.99811
1.99894
1.99957
1.99998
2.00017
2
2
2
2
2
2
2
2
2
2
2
2
2
2
2
2
2.00001
2.00003
2.00006
2.00009
2.00011
2.00008
1.99994
1.99961
1.99908
1.99835
1.99752
1.9967
1.99602
1.99558
1.99543
1.99558
1.99602
1.9967
1.99752
1.99837
1.99911
1.99967
2.00003
2.00019
2
2
2
2
2
2
2
2
2
2
2
2
2
2
2
2
2.00001
2.00002
2.00005
2.00008
2.00011
2.0001
2
1.99976
1.99933
1.99872
1.99801
1.9973
1.9967
1.9963
1.99617
1.9963
1.9967
1.9973
1.99802
1.99873
1.99935
1.9998
2.00008
2.00021
2
2
2
2
2
2
2
2
2
2
2
2
2
2
2
2
2.00001
2.00002
2.00004
2.00007
2.00011
2.00012
2.00006
1.9999
1.9996
1.99914
1.99859
1.99802
1.99752
1.99719
1.99707
1.99719
1.99752
1.99802
1.99859
1.99915
1.99961
1.99994
2.00014
2.00022
2
2
2
2
2
2
2
2
2
2
2
2
2
2
2
2
2
2.00001
2.00003
2.00006
2.00009
2.00012
2.00011
2.00002
1.99984
1.99954
1.99915
1.99873
1.99837
1.99811
1.99802
1.99811
1.99837
1.99873
1.99915
1.99954
1.99985
2.00006
2.00017
2.00021
2
2
2
2
2
2
2
2
2
2
2
2
2
2
2
2
2
2.00001
2.00002
2.00004
2.00008
2.00011
2.00013
2.0001
2.00001
1.99985
1.99961
1.99935
1.99911
1.99894
1.99888
1.99894
1.99911
1.99935
1.99961
1.99985
2.00002
2.00012
2.00017
2.00018
2
2
2
2
2
2
2
2
2
2
2
2
2
2
2
2
2
2
2.00001
2.00003
2.00006
2.00009
2.00012
2.00014
2.00012
2.00006
1.99994
1.99981
1.99967
1.99957
1.99954
1.99957
1.99967
1.9998
1.99994
2.00006
2.00012
2.00015
2.00015
2.00015
2
2
2
2
2
2
2
2
2
2
2
2
2
2
2
2
2
2
2.00001
2.00002
2.00004
2.00007
2.00011
2.00015
2.00017
2.00017
2.00014
2.00009
2.00003
1.99998
1.99996
1.99998
2.00003
2.00008
2.00014
2.00017
2.00017
2.00015
2.00013
2.00011
2
2
2
2
2
2
2
2
2
2
2
2
2
2
2
2
2
2
2
2.00001
2.00003
2.00006
2.0001
2.00014
2.00018
2.00021
2.00022
2.00021
2.00019
2.00017
2.00016
2.00017
2.00019
2.00021
2.00022
2.00021
2.00018
2.00015
2.00011
2.00009
