# vtk DataFile Version 3.0
Brusselator Concentration Output
ASCII
DATASET STRUCTURED_POINTS
DIMENSIONS 40 40 1
ORIGIN 0.0 0.0 0.0
SPACING 0.005 0.005 1.0
POINT_DATA 1600
SCALARS C1 double 1
LOOKUP_TABLE default
0.999996
0.999993
0.999987
0.99998
0.999975
0.999975
0.999985
1.00001
1.00003
1.00005
1.00006
1.00005
1.00003
1.00001
0.999985
0.999975
0.999974
0.99998
0.999987
0.999993
0.999997
0.999999
1
1
1
1
1
1
1
1
1
1
1
1
1
1
1
1
1
1
0.999993
0.99999
0.999984
0.99998
0.999986
1.00001
1.00005
1.0001
1.00016
1.0002
1.00022
1.0002
1.00016
1.0001
1.00005
1.00001
0.999985
0.99998
0.999984
0.99999
0.999995
0.999998
0.999999
1
1
1
1
1
1
1
1
1
1
1
1
1
1
1
1
1
0.999987
0.999984
0.999982
0.999992
1.00003
1.0001
1.00022
1.00035
1.00047
1.00056
1.00059
1.00056
1.00047
1.00035
1.00022
1.0001
1.00003
0.999992
0.999983
0.999986
0.999991
0.999996
0.999999
1
1
1
1
1
1
1
1
1
1
1
1
1
1
1
1
1
0.99998
0.99998
0.999992
1.00004
1.00014
1.00032
1.00055
1.0008
1.00102
1.00116
1.00121
1.00116
1.00102
1.0008
1.00055
1.00032
1.00014
1.00004
0.999993
0.999983
0.999987
0.999993
0.999997
0.999999
1
1
1
1
1
1
1
1
1
1
1
1
1
1
1
1
0.999975
0.999986
1.00003
1.00014
1.00036
1.00068
1.00108
1.00145
1.00173
1.00189
1.00194
1.00189
1.00173
1.00145
1.00108
1.00068
1.00036
1.00014
1.00003
0.999991
0.999985
0.99999
0.999995
0.999998
0.999999
1
1
1
1
1
1
1
1
1
1
1
1
1
1
1
0.999975
1.00001
1.0001
1.00032
1.00068
1.00118
1.0017
1.00211
1.00234
1.0024
1.00241
1.0024
1.00234
1.00211
1.0017
1.00118
1.00068
1.00032
1.00011
1.00001
0.999988
0.999987
0.999993
0.999997
0.999999
1
1
1
1
1
1
1
1
1
1
1
1
1
1
1
0.999985
1.00005
1.00022
1.00055
1.00108
1.0017
1.00224
1.0025
1.00244
1.00224
1.00214
1.00224
1.00244
1.0025
1.00224
1.0017
1.00108
1.00055
1.00022
1.00006
0.999998
0.999987
0.999991
0.999996
0.999998
1
1
1
1
1
1
1
1
1
1
1
1
1
1
1
1.00001
1.0001
1.00035
1.0008
1.00145
1.00211
1.0025
1.00238
1.00181
1.00117
1.00089
1.00117
1.00181
1.00238
1.0025
1.00211
1.00145
1.00081
1.00035
1.00011
1.00002
0.99999
0.99999
0.999995
0.999998
0.999999
1
1
1
1
1
1
1
1
1
1
1
1
1
1
1.00003
1.00016
1.00047
1.00102
1.00173
1.00234
1.00244
1.00181
1.00062
0.999471
0.998998
0.999471
1.00062
1.00181
1.00244
1.00234
1.00173
1.00102
1.00048
1.00017
1.00003
0.999994
0.99999
0.999994
0.999997
0.999999
1
1
1
1
1
1
1
1
1
1
1
1
1
1
1.00005
1.0002
1.00056
1.00116
1.00189
1.0024
1.00224
1.00117
0.999471
0.99792
0.997296
0.99792
0.999471
1.00117
1.00224
1.0024
1.00189
1.00116
1.00057
1.00021
1.00005
0.999998
0.99999
0.999993
0.999997
0.999999
1
1
1
1
1
1
1
1
1
1
1
1
1
1
1.00006
1.00022
1.00059
1.00121
1.00194
1.00241
1.00214
1.00089
0.998998
0.997296
0.996615
0.997296
0.998998
1.00089
1.00214
1.00241
1.00194
1.00121
1.0006
1.00023
1.00006
1
0.99999
0.999993
0.999997
0.999999
1
1
1
1
1
1
1
1
1
1
1
1
1
1
1.00005
1.0002
1.00056
1.00116
1.00189
1.0024
1.00224
1.00117
0.999471
0.99792
0.997296
0.99792
0.999471
1.00117
1.00224
1.0024
1.00189
1.00116
1.00057
1.00021
1.00005
0.999998
0.99999
0.999993
0.999997
0.999999
1
1
1
1
1
1
1
1
1
1
1
1
1
1
1.00003
1.00016
1.00047
1.00102
1.00173
1.00234
1.00244
1.00181
1.00062
0.999471
0.998998
0.999471
1.00062
1.00181
1.00244
1.00234
1.00173
1.00102
1.00048
1.00017
1.00003
0.999994
0.99999
0.999994
0.999997
0.999999
1
1
1
1
1
1
1
1
1
1
1
1
1
1
1.00001
1.0001
1.00035
1.0008
1.00145
1.00211
1.0025
1.00238
1.00181
1.00117
1.00089
1.00117
1.00181
1.00238
1.0025
1.00211
1.00145
1.00081
1.00035
1.00011
1.00002
0.99999
0.99999
0.999995
0.999998
0.999999
1
1
1
1
1
1
1
1
1
1
1
1
1
1
0.999985
1.00005
1.00022
1.00055
1.00108
1.0017
1.00224
1.0025
1.00244
1.00224
1.00214
1.00224
1.00244
1.0025
1.00224
1.0017
1.00108
1.00055
1.00022
1.00006
0.999998
0.999987
0.999991
0.999996
0.999998
1
1
1
1
1
1
1
1
1
1
1
1
1
1
1
0.999975
1.00001
1.0001
1.00032
1.00068
1.00118
1.0017
1.00211
1.00234
1.0024
1.00241
1.0024
1.00234
1.00211
1.0017
1.00118
1.00068
1.00032
1.00011
1.00001
0.999988
0.999987
0.999993
0.999997
0.999999
1
1
1
1
1
1
1
1
1
1
1
1
1
1
1
0.999974
0.999985
1.00003
1.00014
1.00036
1.00068
1.00108
1.00145
1.00173
1.00189
1.00194
1.00189
1.00173
1.00145
1.00108
1.00068
1.00036
1.00014
1.00003
0.99999
0.999985
0.99999
0.999995
0.999998
1
1
1
1
1
1
1
1
1
1
1
1
1
1
1
1
0.99998
0.99998
0.999992
1.00004
1.00014
1.00032
1.00055
1.00081
1.00102
1.00116
1.00121
1.00116
1.00102
1.00081
1.00055
1.00032
1.00014
1.00004
0.999993
0.999983
0.999987
0.999993
0.999997
0.999999
1
1
1
1
1
1
1
1
1
1
1
1
1
1
1
1
0.999987
0.999984
0.999983
0.999993
1.00003
1.00011
1.00022
1.00035
1.00048
1.00057
1.0006
1.00057
1.00048
1.00035
1.00022
1.00011
1.00003
0.999993
0.999983
0.999986
0.999992
0.999996
0.999999
1
1
1
1
1
1.00001
1.00001
1.00001
1.00001
1.00001
1
1
1
1
1
1
1
0.999993
0.99999
0.999986
0.999983
0.999991
1.00001
1.00006
1.00011
1.00017
1.00021
1.00023
1.00021
1.00017
1.00011
1.00006
1.00001
0.99999
0.999983
0.999986
0.999991
0.999996
0.999999
1
1
1
1.00001
1.00001
1.00001
1.00001
1.00001
1
1
1.00001
1.00001
1.00001
1.00001
1
1
1
1
0.999997
0.999995
0.999991
0.999987
0.999985
0.999988
0.999998
1.00002
1.00003
1.00005
1.00006
1.00005
1.00003
1.00002
0.999998
0.999988
0.999985
0.999987
0.999992
0.999996
0.999999
1
1
1.00001
1.00001
1.00001
1.00001
1
0.999995
0.999989
0.999987
0.999989
0.999995
1
1.00001
1.00001
1.00001
1.00001
1
1
0.999999
0.999998
0.999996
0.999993
0.99999
0.999987
0.999987
0.99999
0.999994
0.999998
1
0.999998
0.999994
0.99999
0.999987
0.999987
0.99999
0.999993
0.999996
0.999999
1
1
1.00001
1.00001
1.00001
1
0.999989
0.999969
0.999947
0.99993
0.999924
0.99993
0.999947
0.999969
0.999989
1
1.00001
1.00001
1.00001
1.00001
1
0.999999
0.999999
0.999997
0.999995
0.999993
0.999991
0.99999
0.99999
0.99999
0.99999
0.99999
0.99999
0.99999
0.999991
0.999993
0.999995
0.999997
0.999999
1
1
1.00001
1.00001
1.00001
0.999998
0.999972
0.99993
0.999876
0.999822
0.999784
0.99977
0.999784
0.999822
0.999876
0.99993
0.999972
0.999998
1.00001
1.00001
1.00001
1
1
1
0.999999
0.999998
0.999997
0.999996
0.999995
0.999994
0.999993
0.999993
0.999993
0.999994
0.999995
0.999996
0.999997
0.999998
0.999999
1
1
1.00001
1.00001
1.00001
0.999996
0.99996
0.999893
0.999795
0.999683
0.999581
0.999511
0.999486
0.999511
0.999581
0.999683
0.999795
0.999893
0.999961
0.999997
1.00001
1.00002
1
1
1
1
0.999999
0.999999
0.999998
0.999998
0.999997
0.999997
0.999997
0.999997
0.999997
0.999998
0.999998
0.999999
1
1
1
1
1.00001
1.00001
0.999998
0.99996
0.999878
0.999741
0.999562
0.999376
0.999221
0.999123
0.99909
0.999123
0.999221
0.999376
0.999562
0.999741
0.999878
0.999963
1
1.00002
1
1
1
1
1
1
1
0.999999
0.999999
0.999999
0.999999
0.999999
0.999999
0.999999
1
1
1
1
1
1.00001
1.00001
1
0.999972
0.999893
0.999741
0.999514
0.999247
0.999
0.998823
0.998729
0.998702
0.998729
0.998823
0.999
0.999247
0.999515
0.999742
0.999896
0.999979
1.00001
1
1
1
1
1
1
1
1
1
1
1
1
1
1
1
1
1
1
1
1.00001
1.00001
0.999989
0.99993
0.999795
0.999562
0.999247
0.998919
0.998668
0.998544
0.998519
0.998523
0.998519
0.998544
0.998668
0.998919
0.999248
0.999564
0.999799
0.999937
0.999995
1
1
1
1
1
1
1
1
1
1
1
1
1
1
1
1
1
1
1
1.00001
1
0.999969
0.999876
0.999683
0.999376
0.999
0.998668
0.9985
0.998525
0.998644
0.998706
0.998644
0.998525
0.9985
0.998668
0.999
0.999378
0.999688
0.999882
0.99997
1
1
1
1
1
1
1
1
1
1
1
1
1
1
1
1
1
1
1.00001
1.00001
0.999995
0.999947
0.999822
0.999581
0.999221
0.998823
0.998544
0.998525
0.998759
0.999064
0.999201
0.999064
0.998759
0.998525
0.998545
0.998824
0.999223
0.999586
0.999828
0.999942
1
1
1
1
1
1
1
1
1
1
1
1
1
1
1
1
1
1
1.00001
1.00001
0.999989
0.99993
0.999784
0.999511
0.999123
0.998729
0.998519
0.998644
0.999064
0.999527
0.999726
0.999527
0.999064
0.998644
0.99852
0.99873
0.999126
0.999516
0.999789
0.99992
1
1
1
1
1
1
1
1
1
1
1
1
1
1
1
1
1
1
1.00001
1
0.999987
0.999924
0.99977
0.999486
0.99909
0.998702
0.998523
0.998706
0.999201
0.999726
0.99995
0.999726
0.999201
0.998707
0.998523
0.998703
0.999093
0.999492
0.999775
0.999911
1
1
1
1
1
1
1
1
1
1
1
1
1
1
1
1
1
1
1.00001
1
0.999989
0.99993
0.999784
0.999511
0.999123
0.998729
0.998519
0.998644
0.999064
0.999527
0.999726
0.999527
0.999064
0.998644
0.99852
0.99873
0.999126
0.999516
0.999789
0.99992
1
1
1
1
1
1
1
1
1
1
1
1
1
1
1
1
1
1
1.00001
1.00001
0.999995
0.999947
0.999822
0.999581
0.999221
0.998823
0.998544
0.998525
0.998759
0.999064
0.999201
0.999064
0.998759
0.998525
0.998545
0.998824
0.999223
0.999586
0.999828
0.999942
1
1
1
1
1
1
1
1
1
1
1
1
1
1
1
1
1
1
1
1.00001
1
0.999969
0.999876
0.999683
0.999376
0.999
0.998668
0.9985
0.998525
0.998644
0.998707
0.998644
0.998525
0.9985
0.998668
0.999
0.999378
0.999688
0.999882
0.99997
1
1
1
1
1
1
1
1
1
1
1
1
1
1
1
1
1
1
1
1.00001
1.00001
0.999989
0.99993
0.999795
0.999562
0.999247
0.998919
0.998668
0.998545
0.99852
0.998523
0.99852
0.998545
0.998668
0.998919
0.999248
0.999564
0.999799
0.999937
0.999995
1
1
1
1
1
1
1
1
1
1
1
1
1
1
1
1
1
1
1
1.00001
1.00001
1
0.999972
0.999893
0.999741
0.999515
0.999248
0.999
0.998824
0.99873
0.998703
0.99873
0.998824
0.999
0.999248
0.999515
0.999742
0.999896
0.999979
1.00001
1
1
1
1
1
1
1
1
1
1
1
1
1
1
1
1
1
1
1
1
1.00001
1.00001
0.999998
0.999961
0.999878
0.999742
0.999564
0.999378
0.999223
0.999126
0.999093
0.999126
0.999223
0.999378
0.999564
0.999742
0.999879
0.999963
1
1.00002
1
1
1
1
1
1
1
1
1
1
1
1
1
1
1
1
1
1
1
1
1.00001
1.00001
1.00001
0.999997
0.999963
0.999896
0.999799
0.999688
0.999586
0.999516
0.999492
0.999516
0.999586
0.999688
0.999799
0.999896
0.999963
0.999998
1.00001
1.00002
1
1
1
1
1
1
1
1
1
1
1
1
1
1
1
1
1
1
1
1
1
1.00001
1.00001
1.00001
1
0.999979
0.999937
0.999882
0.999828
0.999789
0.999775
0.999789
0.999828
0.999882
0.999937
0.999979
1
1.00001
1.00001
1.00001
1
1
1
1
1
1
1
1
1
1
1
1
1
1
1
1
1
1
1
1
1
1.00001
1.00001
1.00002
1.00002
1.00001
0.999995
0.99997
0.999942
0.99992
0.999911
0.99992
0.999942
0.99997
0.999995
1.00001
1.00002
1.00002
1.00001
1.00001
SCALARS C2 double 1
LOOKUP_TABLE default
2
2
2.00001
2.00003
2.00005
2.00007
2.00009
2.00009
2.00009
2.00009
2.00009
2.00009
2.00009
2.00009
2.00009
2.00007
2.00005
2.00003
2.00001
2.00001
2
2
2
2
2
2
2
2
2
2
2
2
2
2
2
2
2
2
2
2
2
2.00001
2.00002
2.00004
2.00006
2.00008
2.00007
2.00005
2.00002
1.99998
1.99997
1.99998
2.00002
2.00005
2.00007
2.00008
2.00006
2.00004
2.00002
2.00001
2
2
2
2
2
2
2
2
2
2
2
2
2
2
2
2
2
2
2
2
2.00001
2.00002
2.00004
2.00006
2.00007
2.00005
1.99998
1.99987
1.99973
1.99963
1.99959
1.99963
1.99973
1.99987
1.99998
2.00005
2.00007
2.00006
2.00004
2.00002
2.00001
2
2
2
2
2
2
2
2
2
2
2
2
2
2
2
2
2
2
2
2.00003
2.00004
2.00006
2.00008
2.00004
1.99991
1.99968
1.99936
1.99903
1.99878
1.99869
1.99878
1.99903
1.99936
1.99968
1.99991
2.00004
2.00008
2.00006
2.00004
2.00002
2.00001
2
2
2
2
2
2
2
2
2
2
2
2
2
2
2
2
2
2
2.00005
2.00006
2.00007
2.00004
1.99989
1.99955
1.99901
1.99834
1.99769
1.99723
1.99707
1.99723
1.99769
1.99834
1.99901
1.99955
1.99989
2.00004
2.00007
2.00006
2.00003
2.00001
2.00001
2
2
2
2
2
2
2
2
2
2
2
2
2
2
2
2
2
2.00007
2.00008
2.00005
1.99991
1.99955
1.99886
1.99787
1.99673
1.99572
1.99503
1.99479
1.99503
1.99572
1.99673
1.99787
1.99886
1.99955
1.99991
2.00005
2.00007
2.00005
2.00002
2.00001
2
2
2
2
2
2
2
2
2
2
2
2
2
2
2
2
2
2.00009
2.00007
1.99998
1.99968
1.99901
1.99787
1.99635
1.99476
1.99344
1.99263
1.99236
1.99263
1.99344
1.99476
1.99635
1.99787
1.99901
1.99968
1.99998
2.00006
2.00005
2.00003
2.00001
2
2
2
2
2
2
2
2
2
2
2
2
2
2
2
2
2
2.00009
2.00005
1.99987
1.99936
1.99834
1.99673
1.99476
1.99285
1.99146
1.99072
1.9905
1.99072
1.99146
1.99285
1.99476
1.99673
1.99834
1.99936
1.99986
2.00003
2.00006
2.00004
2.00002
2.00001
2
2
2
2
2
2
2
2
2
2
2
2
2
2
2
2
2.00009
2.00002
1.99973
1.99903
1.99769
1.99572
1.99344
1.99146
1.99024
1.98975
1.98965
1.98975
1.99024
1.99146
1.99344
1.99572
1.99769
1.99903
1.99972
1.99999
2.00005
2.00004
2.00002
2.00001
2
2
2
2
2
2
2
2
2
2
2
2
2
2
2
2
2.00009
1.99998
1.99963
1.99878
1.99723
1.99503
1.99263
1.99072
1.98975
1.98955
1.98958
1.98955
1.98975
1.99072
1.99263
1.99503
1.99723
1.99878
1.99962
1.99996
2.00005
2.00004
2.00002
2.00001
2
2
2
2
2
2
2
2
2
2
2
2
2
2
2
2
2.00009
1.99997
1.99959
1.99869
1.99707
1.99479
1.99236
1.9905
1.98965
1.98958
1.98967
1.98958
1.98965
1.9905
1.99236
1.99479
1.99707
1.99869
1.99958
1.99995
2.00004
2.00004
2.00002
2.00001
2
2
2
2
2
2
2
2
2
2
2
2
2
2
2
2
2.00009
1.99998
1.99963
1.99878
1.99723
1.99503
1.99263
1.99072
1.98975
1.98955
1.98958
1.98955
1.98975
1.99072
1.99263
1.99503
1.99723
1.99878
1.99962
1.99996
2.00005
2.00004
2.00002
2.00001
2
2
2
2
2
2
2
2
2
2
2
2
2
2
2
2
2.00009
2.00002
1.99973
1.99903
1.99769
1.99572
1.99344
1.99146
1.99024
1.98975
1.98965
1.98975
1.99024
1.99146
1.99344
1.99572
1.99769
1.99903
1.99972
1.99999
2.00005
2.00004
2.00002
2.00001
2
2
2
2
2
2
2
2
2
2
2
2
2
2
2
2
2.00009
2.00005
1.99987
1.99936
1.99834
1.99673
1.99476
1.99285
1.99146
1.99072
1.9905
1.99072
1.99146
1.99285
1.99476
1.99673
1.99834
1.99936
1.99986
2.00003
2.00006
2.00004
2.00002
2.00001
2
2
2
2
2
2
2
2
2
2
2
2
2
2
2
2
2.00009
2.00007
1.99998
1.99968
1.99901
1.99787
1.99635
1.99476
1.99344
1.99263
1.99236
1.99263
1.99344
1.99476
1.99635
1.99787
1.99901
1.99968
1.99998
2.00006
2.00005
2.00003
2.00001
2
2
2
2
2
2
2
2
2
2
2
2
2
2
2
2
2
2.00007
2.00008
2.00005
1.99991
1.99955
1.99886
1.99787
1.99673
1.99572
1.99503
1.99479
1.99503
1.99572
1.99673
1.99787
1.99886
1.99955
1.99991
2.00005
2.00007
2.00005
2.00002
2.00001
2
2
2
2
2
2
2
2
2
2
2
2
2
2
2
2
2
2.00005
2.00006
2.00007
2.00004
1.99989
1.99955
1.99901
1.99834
1.99769
1.99723
1.99707
1.99723
1.99769
1.99834
1.99901
1.99955
1.99989
2.00004
2.00007
2.00006
2.00003
2.00001
2.00001
2
2
2
2
2
2
2
2
2
2
2
2
2
2
2
2
2
2.00003
2.00004
2.00006
2.00008
2.00004
1.99991
1.99968
1.99936
1.99903
1.99878
1.99869
1.99878
1.99903
1.99936
1.99968
1.99991
2.00004
2.00008
2.00006
2.00004
2.00002
2.00001
2
2
2
2
2
2
2
2
2
2
2
2
2
2
2
2
2
2
2.00001
2.00002
2.00004
2.00006
2.00007
2.00005
1.99998
1.99986
1.99972
1.99962
1.99958
1.99962
1.99972
1.99986
1.99998
2.00005
2.00007
2.00006
2.00004
2.00002
2.00001
2
2
2
2
2
1.99999
1.99999
1.99999
1.99999
1.99999
1.99999
1.99999
1.99999
1.99999
2
2
2
2
2
2.00001
2.00001
2.00002
2.00004
2.00006
2.00007
2.00006
2.00003
1.99999
1.99996
1.99995
1.99996
1.99999
2.00003
2.00006
2.00007
2.00006
2.00004
2.00002
2.00001
2
2
2
2
1.99999
1.99999
1.99999
1.99998
1.99998
1.99998
1.99998
1.99998
1.99998
1.99998
1.99999
1.99999
1.99999
2
2
2
2
2
2.00001
2.00002
2.00003
2.00005
2.00005
2.00006
2.00005
2.00005
2.00004
2.00005
2.00005
2.00006
2.00005
2.00005
2.00003
2.00002
2.00001
2
2
2
2
1.99999
1.99999
1.99998
1.99997
1.99997
1.99997
1.99997
1.99997
1.99997
1.99997
1.99997
1.99997
1.99998
1.99999
1.99999
2
2
2
2
2
2.00001
2.00001
2.00002
2.00003
2.00004
2.00004
2.00004
2.00004
2.00004
2.00004
2.00004
2.00003
2.00002
2.00001
2.00001
2
2
2
2
1.99999
1.99998
1.99997
1.99996
1.99996
1.99997
1.99998
1.99999
1.99999
1.99999
1.99998
1.99997
1.99996
1.99996
1.99997
1.99998
1.99999
1.99999
2
2
2
2
2.00001
2.00001
2.00001
2.00002
2.00002
2.00002
2.00002
2.00002
2.00002
2.00002
2.00001
2.00001
2.00001
2
2
2
2
1.99999
1.99998
1.99997
1.99996
1.99996
1.99998
2.00001
2.00006
2.0001
2.00011
2.0001
2.00006
2.00001
1.99998
1.99996
1.99996
1.99997
1.99998
1.99999
2
2
2
2
2
2
2
2.00001
2.00001
2.00001
2.00001
2.00001
2.00001
2.00001
2
2
2
2
2
2
1.99999
1.99998
1.99997
1.99996
1.99996
1.99999
2.00007
2.00019
2.00031
2.00041
2.00045
2.00041
2.00031
2.00019
2.00007
1.99999
1.99996
1.99996
1.99997
1.99998
2
2
2
2
2
2
2
2
2
2
2
2
2
2
2
2
2
2
2
1.99999
1.99999
1.99997
1.99996
1.99996
2
2.00011
2.00031
2.00058
2.00086
2.00106
2.00113
2.00106
2.00086
2.00058
2.00031
2.00011
2
1.99996
1.99995
1.99996
2
2
2
2
2
2
2
2
2
2
2
2
2
2
2
2
2
2
2
1.99999
1.99998
1.99996
1.99996
1.99999
2.00011
2.00037
2.00077
2.00127
2.00174
2.00208
2.0022
2.00208
2.00174
2.00127
2.00077
2.00037
2.00011
1.99999
1.99995
1.99994
2
2
2
2
2
2
2
2
2
2
2
2
2
2
2
2
2
2
1.99999
1.99999
1.99997
1.99996
1.99998
2.00007
2.00031
2.00077
2.00144
2.0022
2.00289
2.00335
2.00351
2.00335
2.00289
2.0022
2.00144
2.00077
2.00031
2.00006
1.99996
1.99993
2
2
2
2
2
2
2
2
2
2
2
2
2
2
2
2
2
2
1.99999
1.99998
1.99997
1.99997
2.00001
2.00019
2.00058
2.00127
2.0022
2.0032
2.00405
2.00458
2.00476
2.00458
2.00405
2.0032
2.0022
2.00127
2.00058
2.00018
2
1.99994
2
2
2
2
2
2
2
2
2
2
2
2
2
2
2
2
2
2
1.99999
1.99998
1.99997
1.99998
2.00006
2.00031
2.00086
2.00174
2.00289
2.00405
2.00496
2.00549
2.00565
2.00549
2.00496
2.00405
2.00289
2.00174
2.00085
2.0003
2.00004
1.99994
2
2
2
2
2
2
2
2
2
2
2
2
2
2
2
2
2
2
1.99999
1.99998
1.99997
1.99999
2.0001
2.00041
2.00106
2.00208
2.00335
2.00458
2.00549
2.00597
2.0061
2.00597
2.00549
2.00458
2.00335
2.00208
2.00106
2.0004
2.00008
1.99995
2
2
2
2
2
2
2
2
2
2
2
2
2
2
2
2
2
2
1.99999
1.99998
1.99997
1.99999
2.00011
2.00045
2.00113
2.0022
2.00351
2.00476
2.00565
2.0061
2.00623
2.0061
2.00565
2.00476
2.00351
2.0022
2.00113
2.00044
2.00009
1.99996
2
2
2
2
2
2
2
2
2
2
2
2
2
2
2
2
2
2
1.99999
1.99998
1.99997
1.99999
2.0001
2.00041
2.00106
2.00208
2.00335
2.00458
2.00549
2.00597
2.0061
2.00597
2.00549
2.00458
2.00335
2.00208
2.00106
2.0004
2.00008
1.99995
2
2
2
2
2
2
2
2
2
2
2
2
2
2
2
2
2
2
1.99999
1.99998
1.99997
1.99998
2.00006
2.00031
2.00086
2.00174
2.00289
2.00405
2.00496
2.00549
2.00565
2.00549
2.00496
2.00405
2.00289
2.00174
2.00085
2.0003
2.00004
1.99994
2
2
2
2
2
2
2
2
2
2
2
2
2
2
2
2
2
2
1.99999
1.99998
1.99997
1.99997
2.00001
2.00019
2.00058
2.00127
2.0022
2.0032
2.00405
2.00458
2.00476
2.00458
2.00405
2.0032
2.0022
2.00127
2.00058
2.00018
2
1.99994
2
2
2
2
2
2
2
2
2
2
2
2
2
2
2
2
2
2
1.99999
1.99999
1.99997
1.99996
1.99998
2.00007
2.00031
2.00077
2.00144
2.0022
2.00289
2.00335
2.00351
2.00335
2.00289
2.0022
2.00144
2.00077
2.00031
2.00006
1.99996
1.99993
2
2
2
2
2
2
2
2
2
2
2
2
2
2
2
2
2
2
2
1.99999
1.99998
1.99996
1.99996
1.99999
2.00011
2.00037
2.00077
2.00127
2.00174
2.00208
2.0022
2.00208
2.00174
2.00127
2.00077
2.00037
2.00011
1.99999
1.99995
1.99994
2
2
2
2
2
2
2
2
2
2
2
2
2
2
2
2
2
2
2
1.99999
1.99999
1.99997
1.99996
1.99996
2
2.00011
2.00031
2.00058
2.00085
2.00106
2.00113
2.00106
2.00085
2.00058
2.00031
2.00011
2
1.99996
1.99995
1.99996
2
2
2
2
2
2
2
2
2
2
2
2
2
2
2
2
2
2
2
2
1.99999
1.99998
1.99997
1.99996
1.99996
1.99999
2.00006
2.00018
2.0003
2.0004
2.00044
2.0004
2.0003
2.00018
2.00006
1.99999
1.99996
1.99996
1.99997
1.99998
2
2
2
2
2
2
2
2
2
2
2
2
2
2
2
2
2
2
2
2
2
1.99999
1.99998
1.99997
1.99995
1.99995
1.99996
2
2.00004
2.00008
2.00009
2.00008
2.00004
2
1.99996
1.99995
1.99995
1.99997
1.99998
1.99999
2
2
2
2
2
2
2
2
2
2
2
2
2
2
2
2
2
2
2
2
2
1.99999
1.99999
1.99998
1.99996
1.99994
1.99993
1.99994
1.99994
1.99995
1.99996
1.99995
1.99994
1.99994
1.99993
1.99994
1.99996
1.99998
1.99999
1.99999
