# vtk DataFile Version 3.0
Brusselator Concentration Output
ASCII
DATASET STRUCTURED_POINTS
DIMENSIONS 40 40 1
ORIGIN 0.0 0.0 0.0
SPACING 0.005 0.005 1.0
POINT_DATA 1600
SCALARS C1 double 1
LOOKUP_TABLE default
1
1
1
1
1
1
0.999999
0.999997
0.999994
0.999992
0.999991
0.999992
0.999994
0.999997
0.999999
1
1
1
1
1
1
1
1
1
1
1
1
1
1
1
1
1
1
1
1
1
1
1
1
1
1
1
1
1
0.999999
0.999997
0.999993
0.999986
0.999979
0.999973
0.999971
0.999973
0.999979
0.999986
0.999993
0.999997
0.999999
1
1
1
1
1
1
1
1
1
1
1
1
1
1
1
1
1
1
1
1
1
1
1
1
1
1
0.999999
0.999996
0.999989
0.999974
0.999954
0.999935
0.999923
0.999919
0.999923
0.999935
0.999954
0.999974
0.999989
0.999996
0.999999
1
1
1
1
1
1
1
1
1
1
1
1
1
1
1
1
1
1
1
1
1
1
1
1
0.999999
0.999996
0.999985
0.999962
0.999924
0.999881
0.999853
0.999847
0.999849
0.999847
0.999853
0.999881
0.999924
0.999962
0.999985
0.999996
0.999999
1
1
1
1
1
1
1
1
1
1
1
1
1
1
1
1
1
1
1
1
1
1
0.999999
0.999996
0.999985
0.999957
0.999903
0.999833
0.999787
0.999813
0.999896
0.999943
0.999896
0.999813
0.999787
0.999833
0.999903
0.999957
0.999985
0.999996
0.999999
1
1
1
1
1
1
1
1
1
1
1
1
1
1
1
1
1
1
1
1
1
0.999997
0.999989
0.999962
0.999903
0.999813
0.99975
0.999841
1.00018
1.00063
1.00083
1.00063
1.00018
0.999841
0.99975
0.999813
0.999903
0.999962
0.999988
0.999997
1
1
1
1
1
1
1
1
1
1
1
1
1
1
1
1
1
1
1
1
0.999999
0.999993
0.999974
0.999924
0.999833
0.99975
0.999868
1.0005
1.00177
1.00316
1.00376
1.00316
1.00177
1.0005
0.999868
0.99975
0.999833
0.999924
0.999974
0.999993
0.999999
1
1
1
1
1
1
1
1
1
1
1
1
1
1
1
1
1
1
1
0.999997
0.999986
0.999954
0.999881
0.999787
0.999841
1.0005
1.00238
1.0055
1.00858
1.00981
1.00858
1.0055
1.00238
1.0005
0.999841
0.999787
0.999881
0.999954
0.999986
0.999997
1
1
1
1
1
1
1
1
1
1
1
1
1
1
1
1
1
1
1
0.999994
0.999979
0.999935
0.999853
0.999813
1.00018
1.00177
1.0055
1.01108
1.01611
1.01797
1.01611
1.01108
1.0055
1.00177
1.00018
0.999813
0.999853
0.999935
0.999979
0.999995
0.999999
1
1
1
1
1
1
1
1
1
1
1
1
1
1
1
1
1
1
0.999992
0.999973
0.999923
0.999847
0.999896
1.00063
1.00316
1.00858
1.01611
1.02235
1.02442
1.02235
1.01611
1.00858
1.00316
1.00063
0.999896
0.999847
0.999923
0.999973
0.999993
0.999999
1
1
1
1
1
1
1
1
1
1
1
1
1
1
1
1
1
1
0.999991
0.999971
0.999919
0.999849
0.999943
1.00083
1.00376
1.00981
1.01797
1.02442
1.02641
1.02442
1.01797
1.00981
1.00376
1.00083
0.999943
0.999849
0.999919
0.999971
0.999992
0.999998
1
1
1
1
1
1
1
1
1
1
1
1
1
1
1
1
1
1
0.999992
0.999973
0.999923
0.999847
0.999896
1.00063
1.00316
1.00858
1.01611
1.02235
1.02442
1.02235
1.01611
1.00858
1.00316
1.00063
0.999896
0.999847
0.999923
0.999973
0.999993
0.999999
1
1
1
1
1
1
1
1
1
1
1
1
1
1
1
1
1
1
0.999994
0.999979
0.999935
0.999853
0.999813
1.00018
1.00177
1.0055
1.01108
1.01611
1.01797
1.01611
1.01108
1.0055
1.00177
1.00018
0.999813
0.999853
0.999935
0.999979
0.999995
0.999999
1
1
1
1
1
1
1
1
1
1
1
1
1
1
1
1
1
1
0.999997
0.999986
0.999954
0.999881
0.999787
0.999841
1.0005
1.00238
1.0055
1.00858
1.00981
1.00858
1.0055
1.00238
1.0005
0.999841
0.999787
0.999881
0.999954
0.999986
0.999997
1
1
1
1
1
1
1
1
1
1
1
1
1
1
1
1
1
1
1
0.999999
0.999993
0.999974
0.999924
0.999833
0.99975
0.999868
1.0005
1.00177
1.00316
1.00376
1.00316
1.00177
1.0005
0.999868
0.99975
0.999833
0.999924
0.999974
0.999993
0.999999
1
1
1
1
1
1
1
1
1
1
1
1
1
1
1
1
1
1
1
1
0.999997
0.999989
0.999962
0.999903
0.999813
0.99975
0.999841
1.00018
1.00063
1.00083
1.00063
1.00018
0.999841
0.99975
0.999813
0.999903
0.999962
0.999988
0.999997
1
1
1
1
1
1
1
1
1
1
1
1
1
1
1
1
1
1
1
1
1
0.999999
0.999996
0.999985
0.999957
0.999903
0.999833
0.999787
0.999813
0.999896
0.999943
0.999896
0.999813
0.999787
0.999833
0.999903
0.999957
0.999985
0.999996
0.999999
1
1
1
1
1
1
1
1
1
1
1
1
1
1
1
1
1
1
1
1
1
1
0.999999
0.999996
0.999985
0.999962
0.999924
0.999881
0.999853
0.999847
0.999849
0.999847
0.999853
0.999881
0.999924
0.999962
0.999985
0.999996
0.999999
1
1
1
1
1
1
1
1
1
1
1
1
1
1
1
1
1
1
1
1
1
1
1
1
0.999999
0.999996
0.999988
0.999974
0.999954
0.999935
0.999923
0.999919
0.999923
0.999935
0.999954
0.999974
0.999988
0.999996
0.999999
1
1
1
1
1
1
1
1
1
1
1
1
1
1
1
1
1
1
1
1
1
1
1
1
1
1
0.999999
0.999997
0.999993
0.999986
0.999979
0.999973
0.999971
0.999973
0.999979
0.999986
0.999993
0.999997
0.999999
1
1
1
1
1
1
1
1
1
1
1
1
1
1
1
1
1
1
1
1
1
1
1
1
1
1
1
1
1
0.999999
0.999997
0.999995
0.999993
0.999992
0.999993
0.999995
0.999997
0.999999
1
1
1
1
1
1
1
1
1
1
1
1
1
1
1
1
1
1
1
1
1
1
1
1
1
1
1
1
1
1
1
1
1
0.999999
0.999999
0.999998
0.999999
0.999999
1
1
1
1
1
1
1
1
1
1
1
1
1
1
1.00001
1.00001
1.00001
1.00001
1.00001
1.00001
1.00001
1
1
1
1
1
1
1
1
1
1
1
1
1
1
1
1
1
1
1
1
1
1
1
1
1
1
1
1
1
1
1
1
1.00001
1.00002
1.00003
1.00003
1.00004
1.00003
1.00003
1.00002
1.00001
1
1
1
1
1
1
1
1
1
1
1
1
1
1
1
1
1
1
1
1
1
1
1
1
1
1
1
1
1
1.00001
1.00001
1.00003
1.00005
1.00007
1.00008
1.00008
1.00008
1.00007
1.00005
1.00003
1.00001
1.00001
1
1
1
1
1
1
1
1
1
1
1
1
1
1
1
1
1
1
1
1
1
1
1
1
1
1
1.00001
1.00002
1.00004
1.00007
1.00011
1.00012
1.0001
1.00009
1.0001
1.00012
1.00011
1.00007
1.00004
1.00002
1.00001
1
1
1
1
1
1
1
1
1
1
1
1
1
1
1
1
1
1
1
1
1
1
1
1
1
1.00001
1.00004
1.00008
1.00013
1.00014
1.00005
0.999905
0.999832
0.999905
1.00005
1.00014
1.00013
1.00008
1.00004
1.00001
1
1
1
1
1
1
1
1
1
1
1
1
1
1
1
1
1
1
1
1
1
1
1
1
1.00001
1.00003
1.00007
1.00013
1.00014
0.999969
0.999539
0.999016
0.998776
0.999016
0.999539
0.999969
1.00014
1.00013
1.00007
1.00003
1.00001
1
1
1
1
1
1
1
1
1
1
1
1
1
1
1
1
1
1
1
1
1
1
1.00001
1.00002
1.00005
1.00011
1.00014
0.999969
0.999336
0.998144
0.996857
0.996303
0.996857
0.998144
0.999336
0.999969
1.00014
1.00011
1.00005
1.00002
1.00001
1
1
1
1
1
1
1
1
1
1
1
1
1
1
1
1
1
1
1
1
1
1.00001
1.00003
1.00007
1.00012
1.00005
0.999539
0.998144
0.995823
0.993497
0.992545
0.993497
0.995823
0.998144
0.999539
1.00005
1.00012
1.00007
1.00003
1.00001
1
1
1
1
1
1
1
1
1
1
1
1
1
1
1
1
1
1
1
1
1
1.00001
1.00003
1.00008
1.0001
0.999905
0.999016
0.996857
0.993497
0.990301
0.989046
0.990301
0.993497
0.996857
0.999016
0.999905
1.0001
1.00008
1.00003
1.00001
1
1
1
1
1
1
1
1
1
1
1
1
1
1
1
1
1
1
1
1
1
1.00001
1.00004
1.00008
1.00009
0.999832
0.998776
0.996303
0.992545
0.989046
0.987701
0.989046
0.992545
0.996303
0.998776
0.999832
1.00009
1.00008
1.00004
1.00001
1
1
1
1
1
1
1
1
1
1
1
1
1
1
1
1
1
1
1
1
1
1.00001
1.00003
1.00008
1.0001
0.999905
0.999016
0.996857
0.993497
0.990301
0.989046
0.990301
0.993497
0.996857
0.999016
0.999905
1.0001
1.00008
1.00003
1.00001
1
1
1
1
1
1
1
1
1
1
1
1
1
1
1
1
1
1
1
1
1
1.00001
1.00003
1.00007
1.00012
1.00005
0.999539
0.998144
0.995823
0.993497
0.992545
0.993497
0.995823
0.998144
0.999539
1.00005
1.00012
1.00007
1.00003
1.00001
1
1
1
1
1
1
1
1
1
1
1
1
1
1
1
1
1
1
1
1
1
1.00001
1.00002
1.00005
1.00011
1.00014
0.999969
0.999336
0.998144
0.996857
0.996303
0.996857
0.998144
0.999336
0.999969
1.00014
1.00011
1.00005
1.00002
1.00001
1
1
1
1
1
1
1
1
1
1
1
1
1
1
1
1
1
1
1
1
1
1
1.00001
1.00003
1.00007
1.00013
1.00014
0.999969
0.999539
0.999016
0.998776
0.999016
0.999539
0.999969
1.00014
1.00013
1.00007
1.00003
1.00001
1
1
1
1
1
1
1
1
1
1
1
1
1
1
1
1
1
1
1
1
1
1
1
1
1.00001
1.00004
1.00008
1.00013
1.00014
1.00005
0.999905
0.999832
0.999905
1.00005
1.00014
1.00013
1.00008
1.00004
1.00001
1
1
1
1
1
1
1
1
1
1
1
1
1
1
1
1
1
1
1
1
1
1
1
1
1
1.00001
1.00002
1.00004
1.00007
1.00011
1.00012
1.0001
1.00009
1.0001
1.00012
1.00011
1.00007
1.00004
1.00002
1.00001
1
1
1
1
1
1
1
1
1
1
1
1
1
1
1
1
1
1
1
1
1
1
1
1
1
1
1.00001
1.00001
1.00003
1.00005
1.00007
1.00008
1.00008
1.00008
1.00007
1.00005
1.00003
1.00001
1.00001
1
1
1
1
1
1
1
1
1
1
1
1
1
1
1
1
1
1
1
1
1
1
1
1
1
1
1
1
1
1.00001
1.00002
1.00003
1.00003
1.00004
1.00003
1.00003
1.00002
1.00001
1
1
1
1
1
1
1
1
1
1
1
1
1
1
1
1
1
1
1
1
1
1
1
1
1
1
1
1
1
1
1
1
1.00001
1.00001
1.00001
1.00001
1.00001
1.00001
1.00001
1
1
1
1
1
1
SCALARS C2 double 1
LOOKUP_TABLE default
2
2
2
2
2
2
2
2
2
2
2.00001
2
2
2
2
2
2
2
2
2
2
2
2
2
2
2
2
2
2
2
2
2
2
2
2
2
2
2
2
2
2
2
2
2
2
2
2
2.00001
2.00002
2.00002
2.00003
2.00002
2.00002
2.00001
2
2
2
2
2
2
2
2
2
2
2
2
2
2
2
2
2
2
2
2
2
2
2
2
2
2
2
2
2
2
2
2.00001
2.00002
2.00004
2.00007
2.0001
2.00011
2.0001
2.00007
2.00004
2.00002
2.00001
2
2
2
2
2
2
2
2
2
2
2
2
2
2
2
2
2
2
2
2
2
2
2
2
2
2
2
2
2.00001
2.00003
2.00008
2.00015
2.00024
2.0003
2.00032
2.0003
2.00024
2.00015
2.00008
2.00003
2.00001
2
2
2
2
2
2
2
2
2
2
2
2
2
2
2
2
2
2
2
2
2
2
2
2
2
2
2.00001
2.00003
2.0001
2.00023
2.00041
2.00059
2.00068
2.0007
2.00068
2.00059
2.00041
2.00023
2.0001
2.00003
2.00001
2
2
2
2
2
2
2
2
2
2
2
2
2
2
2
2
2
2
2
2
2
2
2
2
2.00001
2.00003
2.0001
2.00027
2.00055
2.00086
2.00103
2.00097
2.00089
2.00097
2.00103
2.00086
2.00055
2.00027
2.0001
2.00003
2.00001
2
2
2
2
2
2
2
2
2
2
2
2
2
2
2
2
2
2
2
2
2
2
2
2.00002
2.00008
2.00023
2.00055
2.00097
2.00122
2.00088
2.00001
1.9995
2.00001
2.00088
2.00122
2.00097
2.00055
2.00023
2.00008
2.00002
2
2
2
2
2
2
2
2
2
2
2
2
2
2
2
2
2
2
2
2
2
2
2.00001
2.00004
2.00015
2.00041
2.00086
2.00122
2.00073
1.9986
1.99543
1.9938
1.99543
1.9986
2.00073
2.00122
2.00086
2.00041
2.00015
2.00004
2.00001
2
2
2
2
2
2
2
2
2
2
2
2
2
2
2
2
2
2
2
2
2
2.00002
2.00007
2.00024
2.00059
2.00103
2.00088
1.9986
1.99291
1.98556
1.98199
1.98556
1.99291
1.9986
2.00088
2.00103
2.00059
2.00024
2.00007
2.00002
2
2
2
2
2
2
2
2
2
2
2
2
2
2
2
2
2
2
2
2
2
2.00002
2.0001
2.0003
2.00068
2.00097
2.00001
1.99543
1.98556
1.97357
1.96789
1.97357
1.98556
1.99543
2.00001
2.00097
2.00068
2.0003
2.0001
2.00002
2
2
2
2
2
2
2
2
2
2
2
2
2
2
2
2
2
2
2
2
2.00001
2.00003
2.00011
2.00032
2.0007
2.00089
1.9995
1.9938
1.98199
1.96789
1.96129
1.96789
1.98199
1.9938
1.9995
2.00089
2.0007
2.00032
2.00011
2.00003
2.00001
2
2
2
2
2
2
2
2
2
2
2
2
2
2
2
2
2
2
2
2
2.00002
2.0001
2.0003
2.00068
2.00097
2.00001
1.99543
1.98556
1.97357
1.96789
1.97357
1.98556
1.99543
2.00001
2.00097
2.00068
2.0003
2.0001
2.00002
2
2
2
2
2
2
2
2
2
2
2
2
2
2
2
2
2
2
2
2
2
2.00002
2.00007
2.00024
2.00059
2.00103
2.00088
1.9986
1.99291
1.98556
1.98199
1.98556
1.99291
1.9986
2.00088
2.00103
2.00059
2.00024
2.00007
2.00002
2
2
2
2
2
2
2
2
2
2
2
2
2
2
2
2
2
2
2
2
2
2.00001
2.00004
2.00015
2.00041
2.00086
2.00122
2.00073
1.9986
1.99543
1.9938
1.99543
1.9986
2.00073
2.00122
2.00086
2.00041
2.00015
2.00004
2.00001
2
2
2
2
2
2
2
2
2
2
2
2
2
2
2
2
2
2
2
2
2
2
2.00002
2.00008
2.00023
2.00055
2.00097
2.00122
2.00088
2.00001
1.9995
2.00001
2.00088
2.00122
2.00097
2.00055
2.00023
2.00008
2.00002
2
2
2
2
2
2
2
2
2
2
2
2
2
2
2
2
2
2
2
2
2
2
2
2.00001
2.00003
2.0001
2.00027
2.00055
2.00086
2.00103
2.00097
2.00089
2.00097
2.00103
2.00086
2.00055
2.00027
2.0001
2.00003
2.00001
2
2
2
2
2
2
2
2
2
2
2
2
2
2
2
2
2
2
2
2
2
2
2
2
2.00001
2.00003
2.0001
2.00023
2.00041
2.00059
2.00068
2.0007
2.00068
2.00059
2.00041
2.00023
2.0001
2.00003
2.00001
2
2
2
2
2
2
2
2
2
2
2
2
2
2
2
2
2
2
2
2
2
2
2
2
2
2
2.00001
2.00003
2.00008
2.00015
2.00024
2.0003
2.00032
2.0003
2.00024
2.00015
2.00008
2.00003
2.00001
2
2
2
2
2
2
2
2
2
2
2
2
2
2
2
2
2
2
2
2
2
2
2
2
2
2
2
2
2.00001
2.00002
2.00004
2.00007
2.0001
2.00011
2.0001
2.00007
2.00004
2.00002
2.00001
2
2
2
2
2
2
2
2
2
2
2
2
2
2
2
2
2
2
2
2
2
2
2
2
2
2
2
2
2
2
2
2.00001
2.00002
2.00002
2.00003
2.00002
2.00002
2.00001
2
2
2
2
2
2
2
2
2
2
2
2
2
2
2
2
2
2
2
2
2
2
2
2
2
2
2
2
2
2
2
2
2
2
2
2
2.00001
2
2
2
2
2
2
2
2
2
2
2
2
2
2
2
2
2
2
2
2
2
2
2
2
2
2
2
2
2
2
2
2
2
2
2
2
2
2
2
2
2
2
2
2
2
2
2
2
2
2
2
2
2
2
2
2
2
1.99999
1.99999
1.99999
1.99999
1.99999
2
2
2
2
2
2
2
2
2
2
2
2
2
2
2
2
2
2
2
2
2
2
2
2
2
2
2
2
2
2
2
2
2
1.99999
1.99998
1.99997
1.99996
1.99996
1.99996
1.99997
1.99998
1.99999
2
2
2
2
2
2
2
2
2
2
2
2
2
2
2
2
2
2
2
2
2
2
2
2
2
2
2
2
2
2
1.99999
1.99997
1.99994
1.9999
1.99987
1.99986
1.99987
1.9999
1.99994
1.99997
1.99999
2
2
2
2
2
2
2
2
2
2
2
2
2
2
2
2
2
2
2
2
2
2
2
2
2
2
2
2
1.99999
1.99996
1.99991
1.99983
1.99974
1.99968
1.99966
1.99968
1.99974
1.99983
1.99991
1.99996
1.99999
2
2
2
2
2
2
2
2
2
2
2
2
2
2
2
2
2
2
2
2
2
2
2
2
2
2
1.99999
1.99996
1.99989
1.99977
1.9996
1.99947
1.99942
1.99943
1.99942
1.99947
1.9996
1.99977
1.99989
1.99996
1.99999
2
2
2
2
2
2
2
2
2
2
2
2
2
2
2
2
2
2
2
2
2
2
2
2
1.99999
1.99997
1.99991
1.99977
1.99955
1.99933
1.99928
1.99947
1.99961
1.99947
1.99928
1.99933
1.99955
1.99977
1.99991
1.99997
1.99999
2
2
2
2
2
2
2
2
2
2
2
2
2
2
2
2
2
2
2
2
2
2
2
1.99998
1.99994
1.99983
1.9996
1.99933
1.99926
1.99976
2.00074
2.0013
2.00074
1.99976
1.99926
1.99933
1.9996
1.99983
1.99994
1.99998
2
2
2
2
2
2
2
2
2
2
2
2
2
2
2
2
2
2
2
2
2
2
1.99999
1.99997
1.9999
1.99974
1.99947
1.99928
1.99976
2.0015
2.00408
2.00544
2.00408
2.0015
1.99976
1.99928
1.99947
1.99974
1.9999
1.99997
1.99999
2
2
2
2
2
2
2
2
2
2
2
2
2
2
2
2
2
2
2
2
2
1.99999
1.99996
1.99987
1.99968
1.99942
1.99947
2.00074
2.00408
2.0086
2.01091
2.0086
2.00408
2.00074
1.99947
1.99942
1.99968
1.99987
1.99996
1.99999
2
2
2
2
2
2
2
2
2
2
2
2
2
2
2
2
2
2
2
2
2
1.99999
1.99996
1.99986
1.99966
1.99943
1.99961
2.0013
2.00544
2.01091
2.0137
2.01091
2.00544
2.0013
1.99961
1.99943
1.99966
1.99986
1.99996
1.99999
2
2
2
2
2
2
2
2
2
2
2
2
2
2
2
2
2
2
2
2
2
1.99999
1.99996
1.99987
1.99968
1.99942
1.99947
2.00074
2.00408
2.0086
2.01091
2.0086
2.00408
2.00074
1.99947
1.99942
1.99968
1.99987
1.99996
1.99999
2
2
2
2
2
2
2
2
2
2
2
2
2
2
2
2
2
2
2
2
2
1.99999
1.99997
1.9999
1.99974
1.99947
1.99928
1.99976
2.0015
2.00408
2.00544
2.00408
2.0015
1.99976
1.99928
1.99947
1.99974
1.9999
1.99997
1.99999
2
2
2
2
2
2
2
2
2
2
2
2
2
2
2
2
2
2
2
2
2
2
1.99998
1.99994
1.99983
1.9996
1.99933
1.99926
1.99976
2.00074
2.0013
2.00074
1.99976
1.99926
1.99933
1.9996
1.99983
1.99994
1.99998
2
2
2
2
2
2
2
2
2
2
2
2
2
2
2
2
2
2
2
2
2
2
2
1.99999
1.99997
1.99991
1.99977
1.99955
1.99933
1.99928
1.99947
1.99961
1.99947
1.99928
1.99933
1.99955
1.99977
1.99991
1.99997
1.99999
2
2
2
2
2
2
2
2
2
2
2
2
2
2
2
2
2
2
2
2
2
2
2
2
1.99999
1.99996
1.99989
1.99977
1.9996
1.99947
1.99942
1.99943
1.99942
1.99947
1.9996
1.99977
1.99989
1.99996
1.99999
2
2
2
2
2
2
2
2
2
2
2
2
2
2
2
2
2
2
2
2
2
2
2
2
2
2
1.99999
1.99996
1.99991
1.99983
1.99974
1.99968
1.99966
1.99968
1.99974
1.99983
1.99991
1.99996
1.99999
2
2
2
2
2
2
2
2
2
2
2
2
2
2
2
2
2
2
2
2
2
2
2
2
2
2
2
2
1.99999
1.99997
1.99994
1.9999
1.99987
1.99986
1.99987
1.9999
1.99994
1.99997
1.99999
2
2
2
2
2
2
2
2
2
2
2
2
2
2
2
2
2
2
2
2
2
2
2
2
2
2
2
2
2
2
1.99999
1.99998
1.99997
1.99996
1.99996
1.99996
1.99997
1.99998
1.99999
2
2
2
2
2
2
2
2
2
2
2
2
2
2
2
2
2
2
2
2
2
2
2
2
2
2
2
2
2
2
2
2
2
1.99999
1.99999
1.99999
1.99999
1.99999
2
2
2
2
2
2
2
