# vtk DataFile Version 3.0
Brusselator Concentration Output
ASCII
DATASET STRUCTURED_POINTS
DIMENSIONS 40 40 1
ORIGIN 0.0 0.0 0.0
SPACING 0.005 0.005 1.0
POINT_DATA 1600
SCALARS C1 double 1
LOOKUP_TABLE default
1.00001
1.00003
1.00007
1.00013
1.0002
1.00027
1.00033
1.00037
1.00039
1.00041
1.00041
1.00041
1.00039
1.00037
1.00033
1.00027
1.0002
1.00013
1.00007
1.00004
1.00001
1
0.999997
0.999997
0.999998
0.999999
1
1
1
1
1
1
1
1
1
1
1
1
1
1
1.00003
1.00006
1.0001
1.00017
1.00023
1.00029
1.00032
1.00033
1.00032
1.0003
1.0003
1.0003
1.00032
1.00033
1.00032
1.00029
1.00023
1.00017
1.00011
1.00006
1.00003
1.00001
1
0.999998
0.999998
0.999999
0.999999
1
1
1
1
1
1
1
1
1
1
1
1
1
1.00007
1.0001
1.00016
1.00022
1.00027
1.00028
1.00024
1.00017
1.00008
1.00001
0.999986
1.00001
1.00008
1.00017
1.00024
1.00028
1.00027
1.00022
1.00016
1.0001
1.00005
1.00002
1.00001
1
0.999998
0.999999
0.999999
1
1
1
1
1
1
1
1
1
1
1
1
1
1.00013
1.00017
1.00022
1.00027
1.00026
1.00017
1.00001
0.999786
0.999566
0.999403
0.999344
0.999403
0.999566
0.999786
1.00001
1.00017
1.00026
1.00027
1.00022
1.00015
1.00009
1.00004
1.00002
1
0.999999
0.999999
0.999999
1
1
1
1
1
1
1
1
1
1
1
1
1
1.0002
1.00023
1.00027
1.00026
1.00015
0.999898
0.999526
0.999092
0.998685
0.998396
0.998292
0.998396
0.998685
0.999092
0.999527
0.999899
1.00015
1.00026
1.00026
1.0002
1.00013
1.00007
1.00003
1.00001
1
0.999999
0.999999
0.999999
1
1
1
1
1
1
1
1
1
1
1
1
1.00027
1.00029
1.00028
1.00017
0.999898
0.999422
0.998785
0.998086
0.997457
0.997024
0.996869
0.997024
0.997457
0.998086
0.998786
0.999424
0.999898
1.00017
1.00026
1.00024
1.00017
1.0001
1.00005
1.00002
1
0.999999
0.999999
0.999999
1
1
1
1
1
1
1
1
1
1
1
1
1.00033
1.00032
1.00024
1.00001
0.999526
0.998785
0.997852
0.996875
0.996025
0.995451
0.99525
0.995451
0.996025
0.996875
0.997853
0.998786
0.999526
0.999999
1.00022
1.00025
1.0002
1.00012
1.00006
1.00003
1.00001
1
0.999999
0.999999
1
1
1
1
1
1
1
1
1
1
1
1
1.00037
1.00033
1.00017
0.999786
0.999092
0.998086
0.996875
0.995648
0.99461
0.993924
0.993685
0.993924
0.99461
0.995648
0.996876
0.998086
0.99909
0.999775
1.00014
1.00025
1.00022
1.00015
1.00008
1.00003
1.00001
1
0.999999
0.999999
0.999999
1
1
1
1
1
1
1
1
1
1
1
1.00039
1.00032
1.00008
0.999566
0.998685
0.997457
0.996025
0.99461
0.993438
0.992676
0.992413
0.992676
0.993439
0.99461
0.996026
0.997458
0.998682
0.999552
1.00004
1.00023
1.00023
1.00016
1.00009
1.00004
1.00001
1
0.999999
0.999999
0.999999
1
1
1
1
1
1
1
1
1
1
1
1.00041
1.0003
1.00001
0.999403
0.998396
0.997024
0.995451
0.993924
0.992676
0.991874
0.991599
0.991874
0.992677
0.993924
0.995452
0.997024
0.998392
0.999387
0.999967
1.00021
1.00023
1.00017
1.0001
1.00005
1.00002
1
1
0.999999
0.999999
1
1
1
1
1
1
1
1
1
1
1
1.00041
1.0003
0.999986
0.999344
0.998292
0.996869
0.99525
0.993685
0.992413
0.991599
0.99132
0.991599
0.992414
0.993685
0.995251
0.99687
0.998288
0.999327
0.999938
1.0002
1.00023
1.00018
1.0001
1.00005
1.00002
1
1
0.999999
0.999999
1
1
1
1
1
1
1
1
1
1
1
1.00041
1.0003
1.00001
0.999403
0.998396
0.997024
0.995451
0.993924
0.992676
0.991874
0.991599
0.991874
0.992677
0.993924
0.995452
0.997024
0.998392
0.999387
0.999967
1.00021
1.00023
1.00017
1.0001
1.00005
1.00002
1
1
0.999999
0.999999
1
1
1
1
1
1
1
1
1
1
1
1.00039
1.00032
1.00008
0.999566
0.998685
0.997457
0.996025
0.99461
0.993439
0.992677
0.992414
0.992677
0.993439
0.994611
0.996026
0.997458
0.998682
0.999552
1.00004
1.00023
1.00023
1.00016
1.00009
1.00004
1.00001
1
1
0.999999
1
1
1
1
1
1
1
1
1
1
1
1
1.00037
1.00033
1.00017
0.999786
0.999092
0.998086
0.996875
0.995648
0.99461
0.993924
0.993685
0.993924
0.994611
0.995649
0.996876
0.998087
0.999091
0.999776
1.00014
1.00025
1.00022
1.00015
1.00008
1.00003
1.00001
1
1
1
1
1
1
1
1
1
1
1
1
1
1
1
1.00033
1.00032
1.00024
1.00001
0.999527
0.998786
0.997853
0.996876
0.996026
0.995452
0.995251
0.995452
0.996026
0.996876
0.997854
0.998787
0.999527
0.999999
1.00022
1.00026
1.0002
1.00012
1.00006
1.00003
1.00001
1
1
1
1
1
1
1
1
1
1
1
1
1
1
1
1.00027
1.00029
1.00028
1.00017
0.999899
0.999424
0.998786
0.998086
0.997458
0.997024
0.99687
0.997024
0.997458
0.998087
0.998787
0.999425
0.999899
1.00017
1.00026
1.00024
1.00017
1.0001
1.00005
1.00002
1
1
0.999999
0.999999
0.999999
0.999999
0.999999
0.999999
1
1
1
1
1
1
1
1
1.0002
1.00023
1.00027
1.00026
1.00015
0.999898
0.999526
0.99909
0.998682
0.998392
0.998288
0.998392
0.998682
0.999091
0.999527
0.999899
1.00015
1.00026
1.00026
1.0002
1.00013
1.00007
1.00003
1.00001
1
0.999998
0.999997
0.999996
0.999995
0.999995
0.999994
0.999995
0.999996
0.999997
0.999998
0.999999
1
1
1
1
1.00013
1.00017
1.00022
1.00027
1.00026
1.00017
0.999999
0.999775
0.999552
0.999387
0.999327
0.999387
0.999552
0.999776
0.999999
1.00017
1.00026
1.00027
1.00022
1.00015
1.00009
1.00004
1.00002
1
0.999997
0.999993
0.99999
0.999987
0.999985
0.999983
0.999982
0.999983
0.999985
0.999988
0.999991
0.999995
0.999998
1
1
1
1.00007
1.00011
1.00016
1.00022
1.00026
1.00026
1.00022
1.00014
1.00004
0.999967
0.999938
0.999967
1.00004
1.00014
1.00022
1.00026
1.00026
1.00022
1.00016
1.0001
1.00005
1.00002
1.00001
0.999995
0.999989
0.999982
0.999975
0.999968
0.999963
0.999959
0.999958
0.999959
0.999963
0.999969
0.999976
0.999983
0.99999
0.999996
1
1
1.00004
1.00006
1.0001
1.00015
1.0002
1.00024
1.00025
1.00025
1.00023
1.00021
1.0002
1.00021
1.00023
1.00025
1.00026
1.00024
1.0002
1.00015
1.0001
1.00006
1.00003
1.00001
0.999994
0.999983
0.999972
0.99996
0.999947
0.999935
0.999926
0.999921
0.999919
0.999921
0.999926
0.999936
0.999948
0.999961
0.999974
0.999986
0.999994
0.999998
1.00001
1.00003
1.00005
1.00009
1.00013
1.00017
1.0002
1.00022
1.00023
1.00023
1.00023
1.00023
1.00023
1.00022
1.0002
1.00017
1.00013
1.00009
1.00005
1.00003
1.00001
0.999993
0.999979
0.999963
0.999945
0.999925
0.999906
0.999892
0.999882
0.999877
0.999876
0.999877
0.999882
0.999892
0.999907
0.999926
0.999947
0.999966
0.999981
0.999989
1
1.00001
1.00002
1.00004
1.00007
1.0001
1.00012
1.00015
1.00016
1.00017
1.00018
1.00017
1.00016
1.00015
1.00012
1.0001
1.00007
1.00004
1.00002
1.00001
0.999993
0.999978
0.999958
0.999934
0.999906
0.999882
0.999864
0.999855
0.999854
0.999855
0.999857
0.999855
0.999854
0.999855
0.999865
0.999883
0.999908
0.999935
0.999958
0.999971
0.999997
1
1.00001
1.00002
1.00003
1.00005
1.00006
1.00008
1.00009
1.0001
1.0001
1.0001
1.00009
1.00008
1.00006
1.00005
1.00003
1.00002
1.00001
0.999994
0.999979
0.999958
0.99993
0.999896
0.999866
0.999847
0.999846
0.99986
0.999884
0.999905
0.999913
0.999905
0.999884
0.999861
0.999846
0.999848
0.999867
0.999896
0.999924
0.999941
0.999997
0.999998
1
1
1.00001
1.00002
1.00003
1.00003
1.00004
1.00005
1.00005
1.00005
1.00004
1.00003
1.00003
1.00002
1.00001
1
0.999995
0.999983
0.999963
0.999934
0.999896
0.999861
0.999841
0.999849
0.99989
0.999957
1.00003
1.00009
1.00011
1.00009
1.00003
0.999957
0.999891
0.99985
0.99984
0.999857
0.999882
0.9999
0.999998
0.999998
0.999998
0.999999
1
1
1.00001
1.00001
1.00001
1.00002
1.00002
1.00002
1.00001
1.00001
1.00001
1
1
0.999997
0.999989
0.999972
0.999945
0.999906
0.999866
0.999841
0.999852
0.999916
1.00003
1.00019
1.00034
1.00045
1.00049
1.00045
1.00034
1.00019
1.00004
0.999916
0.99985
0.999831
0.99984
0.999853
0.999999
0.999999
0.999999
0.999999
0.999999
0.999999
1
1
1
1
1
1
1
1
1
1
0.999998
0.999993
0.999982
0.99996
0.999925
0.999882
0.999847
0.999849
0.999916
1.00007
1.0003
1.00057
1.00082
1.001
1.00107
1.001
1.00082
1.00057
1.0003
1.00007
0.999911
0.999832
0.999808
0.999807
1
0.999999
0.999999
0.999999
0.999999
0.999999
0.999999
0.999999
0.999999
1
1
1
1
1
1
0.999999
0.999997
0.99999
0.999975
0.999947
0.999906
0.999864
0.999846
0.99989
1.00003
1.0003
1.00066
1.00106
1.00143
1.00168
1.00178
1.00168
1.00143
1.00106
1.00066
1.0003
1.00003
0.999866
0.999793
0.999771
1
1
1
1
0.999999
0.999999
0.999999
0.999999
0.999999
0.999999
0.999999
0.999999
0.999999
1
1
0.999999
0.999996
0.999987
0.999968
0.999935
0.999892
0.999855
0.99986
0.999957
1.00019
1.00057
1.00106
1.00159
1.00207
1.00239
1.0025
1.00239
1.00207
1.00159
1.00106
1.00056
1.00018
0.999925
0.999796
0.999747
1
1
1
1
1
1
1
0.999999
0.999999
0.999999
0.999999
0.999999
1
1
1
0.999999
0.999995
0.999985
0.999963
0.999926
0.999882
0.999854
0.999884
1.00003
1.00034
1.00082
1.00143
1.00207
1.00262
1.003
1.00313
1.003
1.00262
1.00207
1.00143
1.00082
1.00032
0.999993
0.99981
0.999736
1
1
1
1
1
1
1
1
1
1
1
1
1
1
1
0.999999
0.999995
0.999983
0.999959
0.999921
0.999877
0.999855
0.999905
1.00009
1.00045
1.001
1.00168
1.00239
1.003
1.0034
1.00354
1.0034
1.003
1.00239
1.00168
1.001
1.00043
1.00005
0.999825
0.999733
1
1
1
1
1
1
1
1
1
1
1
1
1
1
1
0.999999
0.999994
0.999982
0.999958
0.999919
0.999876
0.999857
0.999913
1.00011
1.00049
1.00107
1.00178
1.0025
1.00313
1.00354
1.00369
1.00354
1.00313
1.0025
1.00177
1.00106
1.00047
1.00007
0.999832
0.999732
1
1
1
1
1
1
1
1
1
1
1
1
1
1
1
0.999999
0.999995
0.999983
0.999959
0.999921
0.999877
0.999855
0.999905
1.00009
1.00045
1.001
1.00168
1.00239
1.003
1.0034
1.00354
1.0034
1.003
1.00239
1.00168
1.001
1.00043
1.00005
0.999825
0.999733
1
1
1
1
1
1
1
1
1
1
1
1
1
1
1
1
0.999996
0.999985
0.999963
0.999926
0.999882
0.999854
0.999884
1.00003
1.00034
1.00082
1.00143
1.00207
1.00262
1.003
1.00313
1.003
1.00262
1.00207
1.00143
1.00082
1.00032
0.999993
0.99981
0.999736
1
1
1
1
1
1
1
1
1
1
1
1
1
1
1
1
0.999997
0.999988
0.999969
0.999936
0.999892
0.999855
0.999861
0.999957
1.00019
1.00057
1.00106
1.00159
1.00207
1.00239
1.0025
1.00239
1.00207
1.0016
1.00106
1.00056
1.00018
0.999926
0.999796
0.999747
1
1
1
1
1
1
1
1
1
1
1
1
1
1
1
1
0.999998
0.999991
0.999976
0.999948
0.999907
0.999865
0.999846
0.999891
1.00004
1.0003
1.00066
1.00106
1.00143
1.00168
1.00177
1.00168
1.00143
1.00106
1.00066
1.0003
1.00003
0.999867
0.999794
0.999771
1
1
1
1
1
1
1
1
1
1
1
1
1
1
1
1
0.999999
0.999995
0.999983
0.999961
0.999926
0.999883
0.999848
0.99985
0.999916
1.00007
1.0003
1.00056
1.00082
1.001
1.00106
1.001
1.00082
1.00056
1.0003
1.00007
0.999911
0.999833
0.999809
0.999809
1
1
1
1
1
1
1
1
1
1
1
1
1
1
1
1
1
0.999998
0.99999
0.999974
0.999947
0.999908
0.999867
0.99984
0.99985
0.999911
1.00003
1.00018
1.00032
1.00043
1.00047
1.00043
1.00032
1.00018
1.00003
0.999911
0.999847
0.999831
0.999842
0.999855
1
1
1
1
1
1
1
1
1
1
1
1
1
1
1
1
1
1
0.999996
0.999986
0.999966
0.999935
0.999896
0.999857
0.999831
0.999832
0.999866
0.999925
0.999993
1.00005
1.00007
1.00005
0.999993
0.999926
0.999867
0.999833
0.999831
0.999853
0.999882
0.999902
1
1
1
1
1
1
1
1
1
1
1
1
1
1
1
1
1
1
1
0.999994
0.999981
0.999958
0.999924
0.999882
0.99984
0.999808
0.999793
0.999796
0.99981
0.999825
0.999832
0.999825
0.99981
0.999796
0.999794
0.999809
0.999842
0.999882
0.999918
0.999939
1
1
1
1
1
1
1
1
1
1
1
1
1
1
1
1
1
1
1
0.999998
0.999989
0.999971
0.999941
0.9999
0.999853
0.999807
0.999771
0.999747
0.999736
0.999733
0.999732
0.999733
0.999736
0.999747
0.999771
0.999809
0.999855
0.999902
0.999939
0.99996
SCALARS C2 double 1
LOOKUP_TABLE default
2.00003
2.00001
1.99998
1.99991
1.99982
1.9997
1.99957
1.99944
1.99934
1.99928
1.99925
1.99928
1.99934
1.99944
1.99957
1.9997
1.99982
1.99991
1.99997
2
2.00001
2.00001
2.00001
2.00001
2
2
2
2
2
2
2
2
2
2
2
2
2
2
2
2
2.00001
1.99998
1.99993
1.99983
1.99971
1.99956
1.99941
1.99928
1.99919
1.99913
1.99911
1.99913
1.99919
1.99928
1.99941
1.99956
1.99971
1.99983
1.99992
1.99998
2
2.00001
2.00001
2.00001
2
2
2
2
2
2
2
2
2
2
2
2
2
2
2
2
1.99998
1.99993
1.99983
1.99968
1.99951
1.99932
1.99917
1.99905
1.99898
1.99895
1.99895
1.99895
1.99898
1.99905
1.99917
1.99932
1.9995
1.99968
1.99982
1.99992
1.99998
2
2.00001
2.00001
2
2
2
2
2
2
2
2
2
2
2
2
2
2
2
2
1.99991
1.99983
1.99968
1.99948
1.99926
1.99907
1.99895
1.99891
1.99894
1.99898
1.99901
1.99898
1.99894
1.99891
1.99895
1.99907
1.99926
1.99947
1.99968
1.99983
1.99993
1.99998
2
2.00001
2.00001
2
2
2
2
2
2
2
2
2
2
2
2
2
2
2
1.99982
1.99971
1.99951
1.99926
1.99903
1.9989
1.99891
1.99906
1.99928
1.99947
1.99955
1.99947
1.99928
1.99906
1.99891
1.9989
1.99903
1.99925
1.9995
1.99972
1.99987
1.99995
1.99999
2
2.00001
2
2
2
2
2
2
2
2
2
2
2
2
2
2
2
1.9997
1.99956
1.99932
1.99907
1.9989
1.99893
1.99919
1.99965
2.00017
2.00058
2.00073
2.00058
2.00017
1.99965
1.99919
1.99892
1.9989
1.99906
1.99932
1.99959
1.99979
1.99991
1.99998
2
2.00001
2
2
2
2
2
2
2
2
2
2
2
2
2
2
2
1.99957
1.99941
1.99917
1.99895
1.99891
1.99919
1.99982
2.00069
2.0016
2.00227
2.00252
2.00227
2.00159
2.00069
1.99982
1.99919
1.99891
1.99894
1.99917
1.99946
1.9997
1.99987
1.99995
1.99999
2
2
2
2
2
2
2
2
2
2
2
2
2
2
2
2
1.99944
1.99928
1.99905
1.99891
1.99906
1.99965
2.00069
2.00202
2.00333
2.00429
2.00464
2.00429
2.00333
2.00202
2.00069
1.99965
1.99906
1.99891
1.99907
1.99935
1.99962
1.99982
1.99993
1.99998
2
2
2
2
2
2
2
2
2
2
2
2
2
2
2
2
1.99934
1.99919
1.99898
1.99894
1.99928
2.00017
2.0016
2.00333
2.005
2.0062
2.00664
2.0062
2.005
2.00333
2.00159
2.00017
1.99928
1.99894
1.99901
1.99927
1.99956
1.99978
1.99991
1.99998
2
2
2
2
2
2
2
2
2
2
2
2
2
2
2
2
1.99928
1.99913
1.99895
1.99898
1.99947
2.00058
2.00227
2.00429
2.0062
2.00757
2.00806
2.00757
2.0062
2.00429
2.00227
2.00057
1.99947
1.99899
1.99898
1.99923
1.99952
1.99976
1.9999
1.99997
2
2
2
2
2
2
2
2
2
2
2
2
2
2
2
2
1.99925
1.99911
1.99895
1.99901
1.99955
2.00073
2.00252
2.00464
2.00664
2.00806
2.00858
2.00806
2.00664
2.00464
2.00252
2.00073
1.99954
1.99901
1.99898
1.99921
1.99951
1.99975
1.9999
1.99997
2
2
2
2
2
2
2
2
2
2
2
2
2
2
2
2
1.99928
1.99913
1.99895
1.99898
1.99947
2.00058
2.00227
2.00429
2.0062
2.00757
2.00806
2.00757
2.0062
2.00429
2.00227
2.00057
1.99947
1.99899
1.99898
1.99923
1.99952
1.99976
1.9999
1.99997
2
2
2
2
2
2
2
2
2
2
2
2
2
2
2
2
1.99934
1.99919
1.99898
1.99894
1.99928
2.00017
2.00159
2.00333
2.005
2.0062
2.00664
2.0062
2.005
2.00333
2.00159
2.00017
1.99928
1.99894
1.99901
1.99927
1.99956
1.99978
1.99991
1.99998
2
2
2
2
2
2
2
2
2
2
2
2
2
2
2
2
1.99944
1.99928
1.99905
1.99891
1.99906
1.99965
2.00069
2.00202
2.00333
2.00429
2.00464
2.00429
2.00333
2.00202
2.00069
1.99965
1.99906
1.99891
1.99907
1.99935
1.99962
1.99982
1.99993
1.99998
2
2
2
2
2
2
2
2
2
2
2
2
2
2
2
2
1.99957
1.99941
1.99917
1.99895
1.99891
1.99919
1.99982
2.00069
2.00159
2.00227
2.00252
2.00227
2.00159
2.00069
1.99982
1.99919
1.99891
1.99894
1.99917
1.99946
1.9997
1.99987
1.99995
1.99999
2
2
2
2
2
2
2
2
2
2
2
2
2
2
2
2
1.9997
1.99956
1.99932
1.99907
1.9989
1.99892
1.99919
1.99965
2.00017
2.00057
2.00073
2.00057
2.00017
1.99965
1.99919
1.99892
1.99889
1.99906
1.99932
1.99959
1.99979
1.99991
1.99997
2
2
2
2
2
2
2
2
2
2
2
2
2
2
2
2
2
1.99982
1.99971
1.9995
1.99926
1.99903
1.9989
1.99891
1.99906
1.99928
1.99947
1.99954
1.99947
1.99928
1.99906
1.99891
1.99889
1.99902
1.99925
1.9995
1.99971
1.99986
1.99995
1.99999
2
2
2
2
2
2
2
2
2
2
2
2
2
2
2
2
2
1.99991
1.99983
1.99968
1.99947
1.99925
1.99906
1.99894
1.99891
1.99894
1.99899
1.99901
1.99899
1.99894
1.99891
1.99894
1.99906
1.99925
1.99947
1.99967
1.99983
1.99993
1.99998
2
2
2
2
2
2
2.00001
2.00001
2.00001
2.00001
2
2
2
2
2
2
2
2
1.99997
1.99992
1.99982
1.99968
1.9995
1.99932
1.99917
1.99907
1.99901
1.99898
1.99898
1.99898
1.99901
1.99907
1.99917
1.99932
1.9995
1.99967
1.99981
1.99991
1.99997
1.99999
2
2
2
2.00001
2.00001
2.00002
2.00003
2.00003
2.00004
2.00003
2.00003
2.00002
2.00001
2
2
2
1.99999
1.99999
2
1.99998
1.99992
1.99983
1.99972
1.99959
1.99946
1.99935
1.99927
1.99923
1.99921
1.99923
1.99927
1.99935
1.99946
1.99959
1.99971
1.99983
1.99991
1.99997
1.99999
2
2
2.00001
2.00002
2.00003
2.00005
2.00007
2.00008
2.00009
2.0001
2.00009
2.00008
2.00007
2.00005
2.00003
2.00001
2
1.99999
1.99999
2.00001
2
1.99998
1.99993
1.99987
1.99979
1.9997
1.99962
1.99956
1.99952
1.99951
1.99952
1.99956
1.99962
1.9997
1.99979
1.99986
1.99993
1.99997
1.99999
2
2.00001
2.00001
2.00002
2.00005
2.00008
2.00012
2.00015
2.00018
2.0002
2.00021
2.0002
2.00018
2.00015
2.00012
2.00008
2.00004
2.00002
2
1.99999
2.00001
2.00001
2
1.99998
1.99995
1.99991
1.99987
1.99982
1.99978
1.99976
1.99975
1.99976
1.99978
1.99982
1.99987
1.99991
1.99995
1.99998
1.99999
2
2.00001
2.00001
2.00003
2.00006
2.00011
2.00017
2.00023
2.00029
2.00033
2.00036
2.00037
2.00036
2.00033
2.00029
2.00023
2.00017
2.00011
2.00006
2.00002
2
2.00001
2.00001
2.00001
2
1.99999
1.99998
1.99995
1.99993
1.99991
1.9999
1.9999
1.9999
1.99991
1.99993
1.99995
1.99997
1.99999
2
2
2
2.00001
2.00003
2.00007
2.00013
2.00021
2.0003
2.00038
2.00045
2.0005
2.00053
2.00054
2.00053
2.0005
2.00045
2.00038
2.00029
2.0002
2.00012
2.00006
2.00003
2.00001
2.00001
2.00001
2.00001
2
2
1.99999
1.99998
1.99998
1.99997
1.99997
1.99997
1.99998
1.99998
1.99999
2
2
2
2
2.00001
2.00002
2.00006
2.00013
2.00022
2.00033
2.00045
2.00054
2.0006
2.00063
2.00064
2.00064
2.00064
2.00063
2.0006
2.00054
2.00045
2.00033
2.00022
2.00013
2.00008
2
2
2
2.00001
2.00001
2.00001
2
2
2
2
2
2
2
2
2
2
2
2
2
2.00002
2.00005
2.00011
2.00021
2.00033
2.00047
2.00059
2.00065
2.00066
2.00063
2.00059
2.00058
2.00059
2.00063
2.00066
2.00065
2.00058
2.00047
2.00033
2.00022
2.00015
2
2
2
2
2
2
2
2
2
2
2
2
2
2
2
2
2
2
2.00001
2.00003
2.00008
2.00017
2.0003
2.00045
2.00059
2.00067
2.00066
2.00056
2.00043
2.0003
2.00026
2.0003
2.00043
2.00056
2.00066
2.00066
2.00058
2.00045
2.00032
2.00025
2
2
2
2
2
2
2
2
2
2
2
2
2
2
2
2
2
2
2.00001
2.00005
2.00012
2.00023
2.00038
2.00054
2.00065
2.00066
2.00053
2.00028
1.99999
1.99975
1.99967
1.99975
1.99998
2.00027
2.00052
2.00065
2.00065
2.00055
2.00043
2.00035
2
2
2
2
2
2
2
2
2
2
2
2
2
2
2
2
2
2
2.00002
2.00007
2.00015
2.00029
2.00045
2.0006
2.00066
2.00056
2.00028
1.99984
1.99938
1.99903
1.99889
1.99902
1.99938
1.99984
2.00027
2.00056
2.00067
2.00062
2.00052
2.00044
2
2
2
2
2
2
2
2
2
2
2
2
2
2
2
2
2
2.00001
2.00003
2.00008
2.00018
2.00033
2.0005
2.00063
2.00063
2.00043
1.99999
1.99938
1.99876
1.99829
1.99812
1.99829
1.99876
1.99938
1.99998
2.00042
2.00064
2.00066
2.00058
2.00051
2
2
2
2
2
2
2
2
2
2
2
2
2
2
2
2
2
2.00001
2.00003
2.00009
2.0002
2.00036
2.00053
2.00064
2.00059
2.0003
1.99975
1.99903
1.99829
1.99774
1.99754
1.99774
1.99829
1.99902
1.99975
2.0003
2.0006
2.00067
2.00062
2.00056
2
2
2
2
2
2
2
2
2
2
2
2
2
2
2
2
2
2.00001
2.00004
2.0001
2.00021
2.00037
2.00054
2.00064
2.00058
2.00026
1.99967
1.99889
1.99812
1.99754
1.99733
1.99754
1.99811
1.99889
1.99966
2.00026
2.00059
2.00068
2.00063
2.00057
2
2
2
2
2
2
2
2
2
2
2
2
2
2
2
2
2
2.00001
2.00003
2.00009
2.0002
2.00036
2.00053
2.00064
2.00059
2.0003
1.99975
1.99902
1.99829
1.99774
1.99754
1.99774
1.99829
1.99902
1.99975
2.0003
2.0006
2.00067
2.00062
2.00056
2
2
2
2
2
2
2
2
2
2
2
2
2
2
2
2
2
2
2.00003
2.00008
2.00018
2.00033
2.0005
2.00063
2.00063
2.00043
1.99998
1.99938
1.99876
1.99829
1.99811
1.99829
1.99876
1.99938
1.99998
2.00042
2.00064
2.00066
2.00058
2.00051
2
2
2
2
2
2
2
2
2
2
2
2
2
2
2
2
2
2
2.00002
2.00007
2.00015
2.00029
2.00045
2.0006
2.00066
2.00056
2.00027
1.99984
1.99938
1.99902
1.99889
1.99902
1.99938
1.99984
2.00027
2.00056
2.00066
2.00062
2.00052
2.00044
2
2
2
2
2
2
2
2
2
2
2
2
2
2
2
2
2
2
2.00001
2.00005
2.00012
2.00023
2.00038
2.00054
2.00065
2.00066
2.00052
2.00027
1.99998
1.99975
1.99966
1.99975
1.99998
2.00027
2.00052
2.00065
2.00065
2.00055
2.00043
2.00034
2
2
2
2
2
2
2
2
2
2
2
2
2
2
2
2
2
2
2
2.00003
2.00008
2.00017
2.00029
2.00045
2.00058
2.00066
2.00065
2.00056
2.00042
2.0003
2.00026
2.0003
2.00042
2.00056
2.00065
2.00066
2.00058
2.00045
2.00032
2.00024
2
2
2
2
2
2
2
2
2
2
2
2
2
2
2
2
2
2
2
2.00001
2.00004
2.00011
2.0002
2.00033
2.00047
2.00058
2.00065
2.00067
2.00064
2.0006
2.00059
2.0006
2.00064
2.00066
2.00065
2.00058
2.00046
2.00033
2.00022
2.00015
2
2
2
2
2
2
2
2
2
2
2
2
2
2
2
2
2
2
2
2
2.00002
2.00006
2.00012
2.00022
2.00033
2.00045
2.00055
2.00062
2.00066
2.00067
2.00068
2.00067
2.00066
2.00062
2.00055
2.00045
2.00033
2.00021
2.00012
2.00008
2
2
2
2
2
2
2
2
2
2
2
2
2
2
2
2
2
2
1.99999
1.99999
2
2.00002
2.00006
2.00013
2.00022
2.00032
2.00043
2.00052
2.00058
2.00062
2.00063
2.00062
2.00058
2.00052
2.00043
2.00032
2.00022
2.00012
2.00006
2.00002
2
2
2
2
2
2
2
2
2
2
2
2
2
2
2
2
2
2
1.99999
1.99999
1.99999
2
2.00003
2.00008
2.00015
2.00025
2.00035
2.00044
2.00051
2.00056
2.00057
2.00056
2.00051
2.00044
2.00034
2.00024
2.00015
2.00008
2.00002
2
