# vtk DataFile Version 3.0
Brusselator Concentration Output
ASCII
DATASET STRUCTURED_POINTS
DIMENSIONS 40 40 1
ORIGIN 0.0 0.0 0.0
SPACING 0.005 0.005 1.0
POINT_DATA 1600
SCALARS C1 double 1
LOOKUP_TABLE default
1
1
1
1
0.999999
0.999997
0.999995
0.999991
0.999988
0.999986
0.999985
0.999986
0.999988
0.999991
0.999995
0.999997
0.999999
1
1
1
1
1
1
1
1
1
1
1
1
1
1
1
1
1
1
1
1
1
1
1
1
1
1
0.999999
0.999997
0.999993
0.999987
0.999981
0.999977
0.999976
0.999976
0.999976
0.999977
0.999981
0.999987
0.999993
0.999997
0.999999
1
1
1
1
1
1
1
1
1
1
1
1
1
1
1
1
1
1
1
1
1
1
1
1
0.999999
0.999996
0.99999
0.99998
0.99997
0.999965
0.99997
0.99998
0.999986
0.99998
0.99997
0.999965
0.99997
0.99998
0.99999
0.999996
0.999999
1
1
1
1
1
1
1
1
1
1
1
1
1
1
1
1
1
1
1
1
1
1
0.999999
0.999996
0.999989
0.999976
0.999961
0.999956
0.99998
1.00004
1.00011
1.00014
1.00011
1.00004
0.99998
0.999956
0.999961
0.999976
0.999989
0.999996
0.999999
1
1
1
1
1
1
1
1
1
1
1
1
1
1
1
1
1
1
1
1
0.999999
0.999997
0.99999
0.999976
0.999957
0.999952
1
1.00016
1.00041
1.00065
1.00075
1.00065
1.00041
1.00016
1
0.999952
0.999957
0.999976
0.99999
0.999997
0.999999
1
1
1
1
1
1
1
1
1
1
1
1
1
1
1
1
1
1
1
0.999997
0.999993
0.99998
0.999961
0.999952
1.00002
1.00027
1.00079
1.00151
1.00212
1.00236
1.00212
1.00151
1.00079
1.00027
1.00002
0.999952
0.999961
0.99998
0.999993
0.999998
1
1
1
1
1
1
1
1
1
1
1
1
1
1
1
1
1
1
1
0.999995
0.999987
0.99997
0.999956
1
1.00027
1.00098
1.00223
1.00374
1.0049
1.0053
1.0049
1.00374
1.00223
1.00098
1.00027
1
0.999956
0.99997
0.999987
0.999996
0.999999
1
1
1
1
1
1
1
1
1
1
1
1
1
1
1
1
1
1
0.999991
0.999981
0.999965
0.99998
1.00016
1.00079
1.00223
1.00448
1.00685
1.00835
1.00876
1.00835
1.00685
1.00448
1.00223
1.00079
1.00016
0.99998
0.999965
0.999981
0.999993
0.999998
1
1
1
1
1
1
1
1
1
1
1
1
1
1
1
1
1
1
0.999988
0.999977
0.99997
1.00004
1.00041
1.00151
1.00374
1.00685
1.00954
1.01059
1.0106
1.01059
1.00954
1.00685
1.00374
1.00151
1.00041
1.00004
0.99997
0.999978
0.999991
0.999997
0.999999
1
1
1
1
1
1
1
1
1
1
1
1
1
1
1
1
1
0.999986
0.999976
0.99998
1.00011
1.00065
1.00212
1.0049
1.00835
1.01059
1.01044
1.00974
1.01044
1.01059
1.00835
1.0049
1.00212
1.00065
1.00011
0.99998
0.999977
0.999989
0.999996
0.999999
1
1
1
1
1
1
1
1
1
1
1
1
1
1
1
1
1
0.999985
0.999976
0.999986
1.00014
1.00075
1.00236
1.0053
1.00876
1.0106
1.00974
1.00865
1.00974
1.0106
1.00876
1.0053
1.00236
1.00075
1.00014
0.999986
0.999977
0.999989
0.999996
0.999999
1
1
1
1
1
1
1
1
1
1
1
1
1
1
1
1
1
0.999986
0.999976
0.99998
1.00011
1.00065
1.00212
1.0049
1.00835
1.01059
1.01044
1.00974
1.01044
1.01059
1.00835
1.0049
1.00212
1.00065
1.00011
0.99998
0.999977
0.999989
0.999996
0.999999
1
1
1
1
1
1
1
1
1
1
1
1
1
1
1
1
1
0.999988
0.999977
0.99997
1.00004
1.00041
1.00151
1.00374
1.00685
1.00954
1.01059
1.0106
1.01059
1.00954
1.00685
1.00374
1.00151
1.00041
1.00004
0.99997
0.999978
0.999991
0.999997
0.999999
1
1
1
1
1
1
1
1
1
1
1
1
1
1
1
1
1
0.999991
0.999981
0.999965
0.99998
1.00016
1.00079
1.00223
1.00448
1.00685
1.00835
1.00876
1.00835
1.00685
1.00448
1.00223
1.00079
1.00016
0.99998
0.999965
0.999981
0.999993
0.999998
1
1
1
1
1
1
1
1
1
1
1
1
1
1
1
1
1
1
0.999995
0.999987
0.99997
0.999956
1
1.00027
1.00098
1.00223
1.00374
1.0049
1.0053
1.0049
1.00374
1.00223
1.00098
1.00027
1
0.999956
0.99997
0.999987
0.999996
0.999999
1
1
1
1
1
1
1
1
1
1
1
1
1
1
1
1
1
1
0.999997
0.999993
0.99998
0.999961
0.999952
1.00002
1.00027
1.00079
1.00151
1.00212
1.00236
1.00212
1.00151
1.00079
1.00027
1.00002
0.999952
0.999961
0.99998
0.999993
0.999998
1
1
1
1
1
1
1
1
1
1
1
1
1
1
1
1
1
1
1
0.999999
0.999997
0.99999
0.999976
0.999957
0.999952
1
1.00016
1.00041
1.00065
1.00075
1.00065
1.00041
1.00016
1
0.999952
0.999957
0.999976
0.99999
0.999997
0.999999
1
1
1
1
1
1
1
1
1
1
1
1
1
1
1
1
1
1
1
1
0.999999
0.999996
0.999989
0.999976
0.999961
0.999956
0.99998
1.00004
1.00011
1.00014
1.00011
1.00004
0.99998
0.999956
0.999961
0.999976
0.999989
0.999996
0.999999
1
1
1
1
1
1
1
1
1
1
1
1
1
1
1
1
1
1
1
1
1
1
0.999999
0.999996
0.99999
0.99998
0.99997
0.999965
0.99997
0.99998
0.999986
0.99998
0.99997
0.999965
0.99997
0.99998
0.99999
0.999996
0.999999
1
1
1
1
1
1
1
1
1
1
1
1
1
1
1
1
1
1
1
1
1
1
1
1
0.999999
0.999997
0.999993
0.999987
0.999981
0.999978
0.999977
0.999977
0.999977
0.999978
0.999981
0.999987
0.999993
0.999997
0.999999
1
1
1
1
1
1
1
1
1
1
1
1
1
1
1
1
1
1
1
1
1
1
1
1
1
1
0.999999
0.999998
0.999996
0.999993
0.999991
0.999989
0.999989
0.999989
0.999991
0.999993
0.999996
0.999998
0.999999
1
1
1
1
1
1
1
1
1
1
1
1
1
1
1
1
1
1
1
1
1
1
1
1
1
1
1
1
1
0.999999
0.999998
0.999997
0.999996
0.999996
0.999996
0.999997
0.999998
0.999999
1
1
1
1
1
1
1
1
1
1
1
1.00001
1.00001
1.00001
1.00001
1.00001
1.00001
1.00001
1.00001
1.00001
1
1
1
1
1
1
1
1
1
1
1
1
1
0.999999
0.999999
0.999999
0.999999
0.999999
1
1
1
1
1
1
1
1
1
1
1
1
1.00001
1.00001
1.00002
1.00002
1.00002
1.00001
1.00002
1.00002
1.00002
1.00001
1.00001
1
1
1
1
1
1
1
1
1
1
1
1
1
1
1
1
1
1
1
1
1
1
1
1
1
1
1
1
1.00001
1.00002
1.00002
1.00002
1
0.999983
0.999973
0.999983
1
1.00002
1.00002
1.00002
1.00001
1
1
1
1
1
1
1
1
1
1
1
1
1
1
1
1
1
1
1
1
1
1
1
1
1
1
1.00001
1.00002
1.00003
1.00002
0.999971
0.999884
0.999793
0.999755
0.999793
0.999884
0.999971
1.00002
1.00003
1.00002
1.00001
1
1
1
1
1
1
1
1
1
1
1
1
1
1
1
1
1
1
1
1
1
1
1
1
1.00001
1.00002
1.00003
1.00002
0.999939
0.999751
0.999469
0.999209
0.999105
0.999209
0.999469
0.999751
0.999939
1.00002
1.00003
1.00002
1.00001
1
1
1
1
1
1
1
1
1
1
1
1
1
1
1
1
1
1
1
1
1
1
1.00001
1.00001
1.00002
1.00002
0.999939
0.999686
0.999189
0.99853
0.997973
0.997766
0.997973
0.99853
0.999189
0.999686
0.999939
1.00002
1.00002
1.00001
1.00001
1
1
1
1
1
1
1
1
1
1
1
1
1
1
1
1
1
1
1
1
1
1.00001
1.00002
1.00002
0.999971
0.999751
0.999189
0.998209
0.997039
0.996152
0.995855
0.996152
0.997039
0.998209
0.999189
0.999751
0.999971
1.00002
1.00002
1.00001
1
1
1
1
1
1
1
1
1
1
1
1
1
1
1
1
1
1
1
1
1
1.00001
1.00002
1
0.999884
0.999469
0.99853
0.997039
0.995444
0.994416
0.994138
0.994416
0.995444
0.997039
0.99853
0.999469
0.999884
1
1.00002
1.00001
1
1
1
1
1
1
1
1
1
1
1
1
1
1
1
1
1
1
1
1
1
1.00001
1.00002
0.999983
0.999793
0.999209
0.997973
0.996152
0.994416
0.993534
0.993405
0.993534
0.994416
0.996152
0.997973
0.999209
0.999793
0.999983
1.00002
1.00002
1
1
1
1
1
1
1
1
1
1
1
1
1
1
1
1
1
1
1
1
1
1.00001
1.00001
0.999973
0.999755
0.999105
0.997766
0.995855
0.994138
0.993405
0.993379
0.993405
0.994138
0.995855
0.997766
0.999105
0.999755
0.999973
1.00002
1.00002
1
1
1
1
1
1
1
1
1
1
1
1
1
1
1
1
1
1
1
1
1
1.00001
1.00002
0.999983
0.999793
0.999209
0.997973
0.996152
0.994416
0.993534
0.993405
0.993534
0.994416
0.996152
0.997973
0.999209
0.999793
0.999983
1.00002
1.00002
1
1
1
1
1
1
1
1
1
1
1
1
1
1
1
1
1
1
1
1
1
1.00001
1.00002
1
0.999884
0.999469
0.99853
0.997039
0.995444
0.994416
0.994138
0.994416
0.995444
0.997039
0.99853
0.999469
0.999884
1
1.00002
1.00001
1
1
1
1
1
1
1
1
1
1
1
1
1
1
1
1
1
1
1
1
1
1.00001
1.00002
1.00002
0.999971
0.999751
0.999189
0.998209
0.997039
0.996152
0.995855
0.996152
0.997039
0.998209
0.999189
0.999751
0.999971
1.00002
1.00002
1.00001
1
1
1
1
1
1
1
1
1
1
1
1
1
1
1
1
1
1
1
1
1
1.00001
1.00001
1.00002
1.00002
0.999939
0.999686
0.999189
0.99853
0.997973
0.997766
0.997973
0.99853
0.999189
0.999686
0.999939
1.00002
1.00002
1.00001
1.00001
1
1
1
1
1
1
1
1
1
1
1
1
1
1
1
1
1
1
1
1
1
1
1.00001
1.00002
1.00003
1.00002
0.999939
0.999751
0.999469
0.999209
0.999105
0.999209
0.999469
0.999751
0.999939
1.00002
1.00003
1.00002
1.00001
1
1
1
1
1
1
1
1
1
1
1
1
1
1
1
1
1
1
1
1
1
1
1
1
1.00001
1.00002
1.00003
1.00002
0.999971
0.999884
0.999793
0.999755
0.999793
0.999884
0.999971
1.00002
1.00003
1.00002
1.00001
1
1
1
1
1
1
1
1
1
1
1
1
1
1
1
1
1
1
1
1
1
1
1
1
1
1
1.00001
1.00002
1.00002
1.00002
1
0.999983
0.999973
0.999983
1
1.00002
1.00002
1.00002
1.00001
1
1
1
1
1
1
1
1
1
1
1
1
1
1
1
1
1
1
1
1
1
1
1
1
1
1
1
1
1.00001
1.00001
1.00002
1.00002
1.00002
1.00002
1.00002
1.00002
1.00002
1.00001
1.00001
1
1
1
1
1
1
1
1
1
1
1
1
1
1
1
1
1
1
1
1
1
1
1
1
1
1
1
1
1
1
1.00001
1.00001
1.00001
1.00002
1.00002
1.00002
1.00001
1.00001
1.00001
1
1
1
1
1
SCALARS C2 double 1
LOOKUP_TABLE default
2
2
2
2
2
2
2
2.00001
2.00001
2.00002
2.00002
2.00002
2.00001
2.00001
2
2
2
2
2
2
2
2
2
2
2
2
2
2
2
2
2
2
2
2
2
2
2
2
2
2
2
2
2
2
2
2.00001
2.00001
2.00002
2.00004
2.00004
2.00005
2.00004
2.00004
2.00002
2.00001
2.00001
2
2
2
2
2
2
2
2
2
2
2
2
2
2
2
2
2
2
2
2
2
2
2
2
2
2
2
2
2.00001
2.00002
2.00004
2.00007
2.00009
2.0001
2.00011
2.0001
2.00009
2.00007
2.00004
2.00002
2.00001
2
2
2
2
2
2
2
2
2
2
2
2
2
2
2
2
2
2
2
2
2
2
2
2
2
2
2.00001
2.00003
2.00006
2.00011
2.00015
2.00017
2.00015
2.00014
2.00015
2.00017
2.00015
2.00011
2.00006
2.00003
2.00001
2
2
2
2
2
2
2
2
2
2
2
2
2
2
2
2
2
2
2
2
2
2
2
2
2.00001
2.00003
2.00007
2.00014
2.0002
2.00021
2.0001
1.99994
1.99986
1.99994
2.0001
2.00021
2.0002
2.00014
2.00007
2.00003
2.00001
2
2
2
2
2
2
2
2
2
2
2
2
2
2
2
2
2
2
2
2
2
2
2.00001
2.00002
2.00006
2.00014
2.00022
2.00022
1.99995
1.99937
1.99869
1.99839
1.99869
1.99937
1.99995
2.00022
2.00022
2.00014
2.00006
2.00002
2.00001
2
2
2
2
2
2
2
2
2
2
2
2
2
2
2
2
2
2
2
2
2
2.00001
2.00004
2.00011
2.0002
2.00022
1.99987
1.99879
1.99695
1.99506
1.99426
1.99506
1.99695
1.99879
1.99987
2.00022
2.0002
2.00011
2.00004
2.00001
2
2
2
2
2
2
2
2
2
2
2
2
2
2
2
2
2
2
2
2
2.00001
2.00002
2.00007
2.00015
2.00021
1.99995
1.99879
1.99606
1.9919
1.98795
1.98636
1.98795
1.9919
1.99606
1.99879
1.99995
2.00021
2.00015
2.00007
2.00002
2.00001
2
2
2
2
2
2
2
2
2
2
2
2
2
2
2
2
2
2
2
2.00001
2.00004
2.00009
2.00017
2.0001
1.99937
1.99695
1.9919
1.98479
1.97848
1.97607
1.97848
1.98479
1.9919
1.99695
1.99937
2.0001
2.00017
2.00009
2.00003
2.00001
2
2
2
2
2
2
2
2
2
2
2
2
2
2
2
2
2
2
2
2.00002
2.00004
2.0001
2.00015
1.99994
1.99869
1.99506
1.98795
1.97848
1.97055
1.96769
1.97055
1.97848
1.98795
1.99506
1.99869
1.99994
2.00015
2.0001
2.00004
2.00001
2
2
2
2
2
2
2
2
2
2
2
2
2
2
2
2
2
2
2
2.00002
2.00005
2.00011
2.00014
1.99986
1.99839
1.99426
1.98636
1.97607
1.96769
1.96474
1.96769
1.97607
1.98636
1.99426
1.99839
1.99986
2.00014
2.00011
2.00004
2.00001
2
2
2
2
2
2
2
2
2
2
2
2
2
2
2
2
2
2
2
2.00002
2.00004
2.0001
2.00015
1.99994
1.99869
1.99506
1.98795
1.97848
1.97055
1.96769
1.97055
1.97848
1.98795
1.99506
1.99869
1.99994
2.00015
2.0001
2.00004
2.00001
2
2
2
2
2
2
2
2
2
2
2
2
2
2
2
2
2
2
2
2.00001
2.00004
2.00009
2.00017
2.0001
1.99937
1.99695
1.9919
1.98479
1.97848
1.97607
1.97848
1.98479
1.9919
1.99695
1.99937
2.0001
2.00017
2.00009
2.00003
2.00001
2
2
2
2
2
2
2
2
2
2
2
2
2
2
2
2
2
2
2
2.00001
2.00002
2.00007
2.00015
2.00021
1.99995
1.99879
1.99606
1.9919
1.98795
1.98636
1.98795
1.9919
1.99606
1.99879
1.99995
2.00021
2.00015
2.00007
2.00002
2.00001
2
2
2
2
2
2
2
2
2
2
2
2
2
2
2
2
2
2
2
2
2.00001
2.00004
2.00011
2.0002
2.00022
1.99987
1.99879
1.99695
1.99506
1.99426
1.99506
1.99695
1.99879
1.99987
2.00022
2.0002
2.00011
2.00004
2.00001
2
2
2
2
2
2
2
2
2
2
2
2
2
2
2
2
2
2
2
2
2
2.00001
2.00002
2.00006
2.00014
2.00022
2.00022
1.99995
1.99937
1.99869
1.99839
1.99869
1.99937
1.99995
2.00022
2.00022
2.00014
2.00006
2.00002
2.00001
2
2
2
2
2
2
2
2
2
2
2
2
2
2
2
2
2
2
2
2
2
2
2.00001
2.00003
2.00007
2.00014
2.0002
2.00021
2.0001
1.99994
1.99986
1.99994
2.0001
2.00021
2.0002
2.00014
2.00007
2.00003
2.00001
2
2
2
2
2
2
2
2
2
2
2
2
2
2
2
2
2
2
2
2
2
2
2
2
2.00001
2.00003
2.00006
2.00011
2.00015
2.00017
2.00015
2.00014
2.00015
2.00017
2.00015
2.00011
2.00006
2.00003
2.00001
2
2
2
2
2
2
2
2
2
2
2
2
2
2
2
2
2
2
2
2
2
2
2
2
2
2
2.00001
2.00002
2.00004
2.00007
2.00009
2.0001
2.00011
2.0001
2.00009
2.00007
2.00004
2.00002
2.00001
2
2
2
2
2
2
2
2
2
2
2
2
2
2
2
2
2
2
2
2
2
2
2
2
2
2
2
2
2.00001
2.00001
2.00002
2.00003
2.00004
2.00004
2.00004
2.00003
2.00002
2.00001
2.00001
2
2
2
2
2
2
2
2
2
2
2
2
2
2
2
2
2
2
2
2
2
2
2
2
2
2
2
2
2
2
2
2.00001
2.00001
2.00001
2.00001
2.00001
2.00001
2.00001
2
2
2
2
2
2
2
2
2
2
2
2
2
2
2
1.99999
1.99999
1.99999
2
2
2
2
2
2
2
2
2
2
2
2
2
2
2
2
2
2
2
2
2
2
2
2
2
2
2
2
2
2
2
2
2
2
1.99999
1.99999
1.99999
1.99998
1.99998
1.99998
1.99999
1.99999
1.99999
2
2
2
2
2
2
2
2
2
2
2
2
2
2
2
2
2
2
2
2
2
2
2
2
2
2
2
2
2
2
1.99999
1.99998
1.99997
1.99996
1.99995
1.99995
1.99995
1.99996
1.99997
1.99998
1.99999
2
2
2
2
2
2
2
2
2
2
2
2
2
2
2
2
2
2
2
2
2
2
2
2
2
2
2
2
1.99999
1.99997
1.99995
1.99993
1.99991
1.99991
1.99991
1.99991
1.99991
1.99993
1.99995
1.99997
1.99999
2
2
2
2
2
2
2
2
2
2
2
2
2
2
2
2
2
2
2
2
2
2
2
2
2
2
1.99999
1.99997
1.99994
1.9999
1.99988
1.99989
1.99993
1.99996
1.99993
1.99989
1.99988
1.9999
1.99994
1.99997
1.99999
2
2
2
2
2
2
2
2
2
2
2
2
2
2
2
2
2
2
2
2
2
2
2
2
1.99999
1.99997
1.99994
1.99989
1.99986
1.99991
2.00008
2.00031
2.00042
2.00031
2.00008
1.99991
1.99986
1.99989
1.99994
1.99997
1.99999
2
2
2
2
2
2
2
2
2
2
2
2
2
2
2
2
2
2
2
2
2
2
1.99999
1.99998
1.99995
1.9999
1.99986
1.99992
2.00025
2.0009
2.00163
2.00195
2.00163
2.0009
2.00025
1.99992
1.99986
1.9999
1.99995
1.99998
1.99999
2
2
2
2
2
2
2
2
2
2
2
2
2
2
2
2
2
2
2
2
2
1.99999
1.99997
1.99993
1.99988
1.99991
2.00025
2.00121
2.00284
2.00451
2.00523
2.00451
2.00284
2.00121
2.00025
1.99991
1.99988
1.99993
1.99997
1.99999
2
2
2
2
2
2
2
2
2
2
2
2
2
2
2
2
2
2
2
2
2
1.99999
1.99996
1.99991
1.99989
2.00008
2.0009
2.00284
2.00585
2.00881
2.01005
2.00881
2.00585
2.00284
2.0009
2.00008
1.99989
1.99991
1.99996
1.99998
2
2
2
2
2
2
2
2
2
2
2
2
2
2
2
2
2
2
2
2
1.99999
1.99998
1.99995
1.99991
1.99993
2.00031
2.00163
2.00451
2.00881
2.01292
2.01461
2.01292
2.00881
2.00451
2.00163
2.00031
1.99993
1.99991
1.99995
1.99998
2
2
2
2
2
2
2
2
2
2
2
2
2
2
2
2
2
2
2
2
1.99999
1.99998
1.99995
1.99991
1.99996
2.00042
2.00195
2.00523
2.01005
2.01461
2.01647
2.01461
2.01005
2.00523
2.00195
2.00042
1.99996
1.99991
1.99995
1.99998
2
2
2
2
2
2
2
2
2
2
2
2
2
2
2
2
2
2
2
2
1.99999
1.99998
1.99995
1.99991
1.99993
2.00031
2.00163
2.00451
2.00881
2.01292
2.01461
2.01292
2.00881
2.00451
2.00163
2.00031
1.99993
1.99991
1.99995
1.99998
2
2
2
2
2
2
2
2
2
2
2
2
2
2
2
2
2
2
2
2
2
1.99999
1.99996
1.99991
1.99989
2.00008
2.0009
2.00284
2.00585
2.00881
2.01005
2.00881
2.00585
2.00284
2.0009
2.00008
1.99989
1.99991
1.99996
1.99998
2
2
2
2
2
2
2
2
2
2
2
2
2
2
2
2
2
2
2
2
2
1.99999
1.99997
1.99993
1.99988
1.99991
2.00025
2.00121
2.00284
2.00451
2.00523
2.00451
2.00284
2.00121
2.00025
1.99991
1.99988
1.99993
1.99997
1.99999
2
2
2
2
2
2
2
2
2
2
2
2
2
2
2
2
2
2
2
2
2
1.99999
1.99998
1.99995
1.9999
1.99986
1.99992
2.00025
2.0009
2.00163
2.00195
2.00163
2.0009
2.00025
1.99992
1.99986
1.9999
1.99995
1.99998
1.99999
2
2
2
2
2
2
2
2
2
2
2
2
2
2
2
2
2
2
2
2
2
2
1.99999
1.99997
1.99994
1.99989
1.99986
1.99991
2.00008
2.00031
2.00042
2.00031
2.00008
1.99991
1.99986
1.99989
1.99994
1.99997
1.99999
2
2
2
2
2
2
2
2
2
2
2
2
2
2
2
2
2
2
2
2
2
2
2
2
1.99999
1.99997
1.99994
1.9999
1.99988
1.99989
1.99993
1.99996
1.99993
1.99989
1.99988
1.9999
1.99994
1.99997
1.99999
2
2
2
2
2
2
2
2
2
2
2
2
2
2
2
2
2
2
2
2
2
2
2
2
2
2
1.99999
1.99997
1.99995
1.99993
1.99991
1.99991
1.99991
1.99991
1.99991
1.99993
1.99995
1.99997
1.99999
2
2
2
2
2
2
2
2
2
2
2
2
2
2
2
2
2
2
2
2
2
2
2
2
2
2
2
2
1.99999
1.99998
1.99997
1.99996
1.99995
1.99995
1.99995
1.99996
1.99997
1.99998
1.99999
2
2
2
2
2
2
2
2
2
2
2
2
2
2
2
2
2
2
2
2
2
2
2
2
2
2
2
2
2
2
1.99999
1.99999
1.99998
1.99998
1.99998
1.99998
1.99998
1.99999
1.99999
2
2
2
2
2
