# vtk DataFile Version 3.0
Brusselator Concentration Output
ASCII
DATASET STRUCTURED_POINTS
DIMENSIONS 40 40 1
ORIGIN 0.0 0.0 0.0
SPACING 0.005 0.005 1.0
POINT_DATA 1600
SCALARS C1 double 1
LOOKUP_TABLE default
1
1
1
0.999999
0.999997
0.999995
0.999994
0.999993
0.999994
0.999996
0.999996
0.999996
0.999994
0.999993
0.999994
0.999995
0.999997
0.999999
1
1
1
1
1
1
1
1
1
1
1
1
1
1
1
1
1
1
1
1
1
1
1
1
0.999999
0.999997
0.999995
0.999994
0.999995
1
1.00001
1.00002
1.00003
1.00002
1.00001
1
0.999995
0.999994
0.999995
0.999997
0.999999
1
1
1
1
1
1
1
1
1
1
1
1
1
1
1
1
1
1
1
1
1
1
0.999999
0.999997
0.999995
0.999993
0.999996
1.00001
1.00005
1.00009
1.00013
1.00014
1.00013
1.00009
1.00005
1.00001
0.999996
0.999993
0.999995
0.999997
0.999999
1
1
1
1
1
1
1
1
1
1
1
1
1
1
1
1
1
1
1
1
0.999999
0.999997
0.999995
0.999992
0.999998
1.00003
1.00009
1.00021
1.00034
1.00044
1.00048
1.00044
1.00034
1.00021
1.00009
1.00003
0.999998
0.999992
0.999995
0.999997
0.999999
1
1
1
1
1
1
1
1
1
1
1
1
1
1
1
1
1
1
1
0.999997
0.999995
0.999993
0.999998
1.00003
1.00013
1.00033
1.00061
1.0009
1.0011
1.00116
1.0011
1.0009
1.00061
1.00033
1.00013
1.00003
0.999998
0.999993
0.999995
0.999998
0.999999
1
1
1
1
1
1
1
1
1
1
1
1
1
1
1
1
1
1
0.999995
0.999994
0.999996
1.00003
1.00013
1.00038
1.00082
1.00135
1.00179
1.00202
1.00207
1.00202
1.00179
1.00135
1.00082
1.00038
1.00013
1.00003
0.999996
0.999994
0.999997
0.999999
1
1
1
1
1
1
1
1
1
1
1
1
1
1
1
1
1
1
0.999994
0.999995
1.00001
1.00009
1.00033
1.00082
1.00154
1.00224
1.00257
1.00248
1.00236
1.00248
1.00257
1.00224
1.00154
1.00082
1.00033
1.00009
1.00001
0.999995
0.999996
0.999998
0.999999
1
1
1
1
1
1
1
1
1
1
1
1
1
1
1
1
1
0.999993
1
1.00005
1.00021
1.00061
1.00135
1.00224
1.00273
1.00226
1.00114
1.00054
1.00114
1.00226
1.00273
1.00224
1.00135
1.00061
1.00021
1.00005
1
0.999996
0.999997
0.999999
1
1
1
1
1
1
1
1
1
1
1
1
1
1
1
1
1
0.999994
1.00001
1.00009
1.00034
1.0009
1.00179
1.00257
1.00226
1.00019
0.997324
0.995968
0.997324
1.00019
1.00226
1.00257
1.00179
1.0009
1.00034
1.00009
1.00001
0.999997
0.999997
0.999999
1
1
1
1
1
1
1
1
1
1
1
1
1
1
1
1
1
0.999996
1.00002
1.00013
1.00044
1.0011
1.00202
1.00248
1.00114
0.997324
0.992719
0.990636
0.992719
0.997324
1.00114
1.00248
1.00202
1.0011
1.00044
1.00013
1.00002
0.999999
0.999997
0.999999
1
1
1
1
1
1
1
1
1
1
1
1
1
1
1
1
1
0.999996
1.00003
1.00014
1.00048
1.00116
1.00207
1.00236
1.00054
0.995968
0.990636
0.988255
0.990636
0.995968
1.00054
1.00236
1.00207
1.00116
1.00048
1.00014
1.00003
0.999999
0.999997
0.999999
0.999999
1
1
1
1
1
1
1
1
1
1
1
1
1
1
1
1
0.999996
1.00002
1.00013
1.00044
1.0011
1.00202
1.00248
1.00114
0.997324
0.992719
0.990636
0.992719
0.997324
1.00114
1.00248
1.00202
1.0011
1.00044
1.00013
1.00002
0.999999
0.999997
0.999999
1
1
1
1
1
1
1
1
1
1
1
1
1
1
1
1
1
0.999994
1.00001
1.00009
1.00034
1.0009
1.00179
1.00257
1.00226
1.00019
0.997324
0.995968
0.997324
1.00019
1.00226
1.00257
1.00179
1.0009
1.00034
1.00009
1.00001
0.999997
0.999997
0.999999
1
1
1
1
1
1
1
1
1
1
1
1
1
1
1
1
1
0.999993
1
1.00005
1.00021
1.00061
1.00135
1.00224
1.00273
1.00226
1.00114
1.00054
1.00114
1.00226
1.00273
1.00224
1.00135
1.00061
1.00021
1.00005
1
0.999996
0.999997
0.999999
1
1
1
1
1
1
1
1
1
1
1
1
1
1
1
1
1
0.999994
0.999995
1.00001
1.00009
1.00033
1.00082
1.00154
1.00224
1.00257
1.00248
1.00236
1.00248
1.00257
1.00224
1.00154
1.00082
1.00033
1.00009
1.00001
0.999995
0.999996
0.999998
0.999999
1
1
1
1
1
1
1
1
1
1
1
1
1
1
1
1
1
0.999995
0.999994
0.999996
1.00003
1.00013
1.00038
1.00082
1.00135
1.00179
1.00202
1.00207
1.00202
1.00179
1.00135
1.00082
1.00038
1.00013
1.00003
0.999996
0.999994
0.999997
0.999999
1
1
1
1
1
1
1
1
1
1
1
1
1
1
1
1
1
1
0.999997
0.999995
0.999993
0.999998
1.00003
1.00013
1.00033
1.00061
1.0009
1.0011
1.00116
1.0011
1.0009
1.00061
1.00033
1.00013
1.00003
0.999998
0.999993
0.999995
0.999998
0.999999
1
1
1
1
1
1
1
1
1
1
1
1
1
1
1
1
1
1
0.999999
0.999997
0.999995
0.999992
0.999998
1.00003
1.00009
1.00021
1.00034
1.00044
1.00048
1.00044
1.00034
1.00021
1.00009
1.00003
0.999998
0.999992
0.999995
0.999997
0.999999
1
1
1
1
1
1
1
1
1
1
1
1
1
1
1
1
1
1
1
1
0.999999
0.999997
0.999995
0.999993
0.999996
1.00001
1.00005
1.00009
1.00013
1.00014
1.00013
1.00009
1.00005
1.00001
0.999996
0.999993
0.999995
0.999997
0.999999
1
1
1
1
1
1
1
1
1
1
1
1
1
1
1
1
1
1
1
1
1
1
0.999999
0.999997
0.999995
0.999994
0.999995
1
1.00001
1.00002
1.00003
1.00002
1.00001
1
0.999995
0.999994
0.999995
0.999997
0.999999
1
1
1
1
1
1
1
1
1
1
1
1
1
1
1
1
1
1
1
1
1
1
1
1
0.999999
0.999998
0.999997
0.999996
0.999996
0.999997
0.999999
0.999999
0.999999
0.999997
0.999996
0.999996
0.999997
0.999998
0.999999
1
1
1
1
1
1
1
1
1
1
1
1
1
1
1
1
1
1
1
1
1
1
1
1
1
1
0.999999
0.999999
0.999998
0.999997
0.999997
0.999997
0.999997
0.999997
0.999997
0.999997
0.999998
0.999999
0.999999
1
1
1
1
1
1
1
1
1
1
1
0.999998
0.999995
0.999993
0.999995
0.999998
1
1
1
1
1
1
1
1
1
1
1
1
1
0.999999
0.999999
0.999999
0.999999
0.999999
0.999999
0.999999
0.999999
0.999999
1
1
1
1
1
1
1
1
1
1
1
0.999999
0.999988
0.999972
0.999957
0.999951
0.999957
0.999972
0.999988
0.999999
1
1
1
1
1
1
1
1
1
1
1
1
1
1
1
0.999999
1
1
1
1
1
1
1
1
1
1
1
1
1
1
0.999995
0.999971
0.999929
0.999876
0.999832
0.999816
0.999832
0.999876
0.999929
0.999971
0.999995
1
1
1
1
1
1
1
1
1
1
1
1
1
1
1
1
1
1
1
1
1
1
1
1
1
1
1
1
0.999993
0.999959
0.999883
0.999765
0.999634
0.999536
0.999502
0.999536
0.999634
0.999765
0.999883
0.999959
0.999994
1
1
1
1
1
1
1
1
1
1
1
1
1
1
1
1
1
1
1
1
1
1
1
1
1
1
0.999995
0.999959
0.999862
0.999681
0.999432
0.999191
0.999038
0.998991
0.999038
0.999191
0.999432
0.999681
0.999862
0.999959
0.999995
1
1
1
1
1
1
1
1
1
1
1
1
1
1
1
1
1
1
1
1
1
1
1
1
0.999999
0.999971
0.999883
0.999681
0.999345
0.998949
0.998649
0.998534
0.998523
0.998534
0.998649
0.998949
0.999345
0.999681
0.999883
0.999972
1
1.00001
1
1
1
1
1
1
1
1
1
1
1
1
1
1
1
1
1
1
1
1
1
1
0.999988
0.999929
0.999765
0.999432
0.998949
0.998504
0.998359
0.998531
0.998671
0.998531
0.998359
0.998504
0.998949
0.999432
0.999765
0.999929
0.999989
1
1
1
1
1
1
1
1
1
1
1
1
1
1
1
1
1
1
1
1
1
1
0.999998
0.999972
0.999876
0.999634
0.999191
0.998649
0.998359
0.998688
0.999468
0.999898
0.999468
0.998688
0.998359
0.998649
0.999191
0.999634
0.999876
0.999973
1
1
1
1
1
1
1
1
1
1
1
1
1
1
1
1
1
1
1
1
1
1
0.999995
0.999957
0.999832
0.999536
0.999038
0.998534
0.998531
0.999468
1.00095
1.0017
1.00095
0.999468
0.998531
0.998534
0.999038
0.999537
0.999833
0.999959
0.999997
1
1
1
1
1
1
1
1
1
1
1
1
1
1
1
1
1
1
1
1
1
0.999993
0.999951
0.999816
0.999502
0.998991
0.998523
0.998671
0.999898
1.0017
1.0026
1.0017
0.999898
0.998671
0.998523
0.998991
0.999502
0.999816
0.999953
0.999995
1
1
1
1
1
1
1
1
1
1
1
1
1
1
1
1
1
1
1
1
1
0.999995
0.999957
0.999832
0.999536
0.999038
0.998534
0.998531
0.999468
1.00095
1.0017
1.00095
0.999468
0.998531
0.998534
0.999038
0.999537
0.999833
0.999959
0.999997
1
1
1
1
1
1
1
1
1
1
1
1
1
1
1
1
1
1
1
1
1
0.999998
0.999972
0.999876
0.999634
0.999191
0.998649
0.998359
0.998688
0.999468
0.999898
0.999468
0.998688
0.998359
0.998649
0.999191
0.999634
0.999876
0.999973
1
1
1
1
1
1
1
1
1
1
1
1
1
1
1
1
1
1
1
1
1
1
1
0.999988
0.999929
0.999765
0.999432
0.998949
0.998504
0.998359
0.998531
0.998671
0.998531
0.998359
0.998504
0.998949
0.999432
0.999765
0.999929
0.999989
1
1
1
1
1
1
1
1
1
1
1
1
1
1
1
1
1
1
1
1
1
1
1
0.999999
0.999971
0.999883
0.999681
0.999345
0.998949
0.998649
0.998534
0.998523
0.998534
0.998649
0.998949
0.999345
0.999681
0.999883
0.999972
1
1.00001
1
1
1
1
1
1
1
1
1
1
1
1
1
1
1
1
1
1
1
1
1
1
1
0.999995
0.999959
0.999862
0.999681
0.999432
0.999191
0.999038
0.998991
0.999038
0.999191
0.999432
0.999681
0.999862
0.999959
0.999995
1
1
1
1
1
1
1
1
1
1
1
1
1
1
1
1
1
1
1
1
1
1
1
1
1
1
0.999994
0.999959
0.999883
0.999765
0.999634
0.999537
0.999502
0.999537
0.999634
0.999765
0.999883
0.999959
0.999994
1
1
1
1
1
1
1
1
1
1
1
1
1
1
1
1
1
1
1
1
1
1
1
1
1
1
1
1
0.999995
0.999972
0.999929
0.999876
0.999833
0.999816
0.999833
0.999876
0.999929
0.999972
0.999995
1
1
1
1
1
1
1
1
1
1
1
1
1
1
1
1
1
1
1
1
1
1
1
1
1
1
1
1
1
1
1
0.999989
0.999973
0.999959
0.999953
0.999959
0.999973
0.999989
1
1
1
1
1
1
1
1
1
1
1
1
1
1
1
1
1
1
1
1
1
1
1
1
1
1
1
1
1
1
1
1
1.00001
1
1
0.999997
0.999995
0.999997
1
1
1.00001
1
1
1
1
1
SCALARS C2 double 1
LOOKUP_TABLE default
2
2
2
2
2
2.00001
2.00001
2.00001
2.00002
2.00002
2.00002
2.00002
2.00002
2.00001
2.00001
2.00001
2
2
2
2
2
2
2
2
2
2
2
2
2
2
2
2
2
2
2
2
2
2
2
2
2
2
2
2
2.00001
2.00001
2.00002
2.00002
2.00002
2.00002
2.00002
2.00002
2.00002
2.00002
2.00002
2.00001
2.00001
2
2
2
2
2
2
2
2
2
2
2
2
2
2
2
2
2
2
2
2
2
2
2
2
2
2
2.00001
2.00002
2.00003
2.00003
2.00002
1.99999
1.99997
1.99995
1.99997
1.99999
2.00002
2.00003
2.00003
2.00002
2.00001
2
2
2
2
2
2
2
2
2
2
2
2
2
2
2
2
2
2
2
2
2
2
2
2
2.00001
2.00002
2.00003
2.00003
2.00001
1.99993
1.9998
1.99968
1.99963
1.99968
1.9998
1.99993
2.00001
2.00003
2.00003
2.00002
2.00001
2
2
2
2
2
2
2
2
2
2
2
2
2
2
2
2
2
2
2
2
2
2
2.00001
2.00002
2.00003
2.00003
1.99999
1.99984
1.99954
1.99914
1.99879
1.99865
1.99879
1.99914
1.99954
1.99984
1.99999
2.00003
2.00003
2.00002
2.00001
2
2
2
2
2
2
2
2
2
2
2
2
2
2
2
2
2
2
2
2
2.00001
2.00001
2.00003
2.00003
1.99999
1.9998
1.99933
1.99852
1.99753
1.99674
1.99645
1.99674
1.99753
1.99852
1.99933
1.9998
1.99999
2.00003
2.00003
2.00001
2
2
2
2
2
2
2
2
2
2
2
2
2
2
2
2
2
2
2
2
2.00001
2.00002
2.00003
2.00001
1.99984
1.99933
1.99823
1.99655
1.99471
1.99339
1.99295
1.99339
1.99471
1.99655
1.99823
1.99933
1.99984
2.00001
2.00003
2.00002
2.00001
2
2
2
2
2
2
2
2
2
2
2
2
2
2
2
2
2
2
2
2.00001
2.00002
2.00002
1.99993
1.99954
1.99852
1.99655
1.99382
1.99123
1.98973
1.98934
1.98973
1.99123
1.99382
1.99655
1.99852
1.99954
1.99993
2.00002
2.00002
2.00001
2
2
2
2
2
2
2
2
2
2
2
2
2
2
2
2
2
2
2
2.00002
2.00002
1.99999
1.9998
1.99914
1.99753
1.99471
1.99123
1.98858
1.98772
1.98778
1.98772
1.98858
1.99123
1.99471
1.99753
1.99914
1.9998
1.99999
2.00002
2.00001
2
2
2
2
2
2
2
2
2
2
2
2
2
2
2
2
2
2
2
2.00002
2.00002
1.99997
1.99968
1.99879
1.99674
1.99339
1.98973
1.98772
1.98812
1.98887
1.98812
1.98772
1.98973
1.99339
1.99674
1.99879
1.99968
1.99996
2.00002
2.00001
2.00001
2
2
2
2
2
2
2
2
2
2
2
2
2
2
2
2
2
2
2.00002
2.00002
1.99995
1.99963
1.99865
1.99645
1.99295
1.98934
1.98778
1.98887
1.98997
1.98887
1.98778
1.98934
1.99295
1.99645
1.99865
1.99963
1.99995
2.00002
2.00001
2.00001
2
2
2
2
2
2
2
2
2
2
2
2
2
2
2
2
2
2
2.00002
2.00002
1.99997
1.99968
1.99879
1.99674
1.99339
1.98973
1.98772
1.98812
1.98887
1.98812
1.98772
1.98973
1.99339
1.99674
1.99879
1.99968
1.99996
2.00002
2.00001
2.00001
2
2
2
2
2
2
2
2
2
2
2
2
2
2
2
2
2
2
2.00002
2.00002
1.99999
1.9998
1.99914
1.99753
1.99471
1.99123
1.98858
1.98772
1.98778
1.98772
1.98858
1.99123
1.99471
1.99753
1.99914
1.9998
1.99999
2.00002
2.00001
2
2
2
2
2
2
2
2
2
2
2
2
2
2
2
2
2
2
2
2.00001
2.00002
2.00002
1.99993
1.99954
1.99852
1.99655
1.99382
1.99123
1.98973
1.98934
1.98973
1.99123
1.99382
1.99655
1.99852
1.99954
1.99993
2.00002
2.00002
2.00001
2
2
2
2
2
2
2
2
2
2
2
2
2
2
2
2
2
2
2
2.00001
2.00002
2.00003
2.00001
1.99984
1.99933
1.99823
1.99655
1.99471
1.99339
1.99295
1.99339
1.99471
1.99655
1.99823
1.99933
1.99984
2.00001
2.00003
2.00002
2.00001
2
2
2
2
2
2
2
2
2
2
2
2
2
2
2
2
2
2
2
2.00001
2.00001
2.00003
2.00003
1.99999
1.9998
1.99933
1.99852
1.99753
1.99674
1.99645
1.99674
1.99753
1.99852
1.99933
1.9998
1.99999
2.00003
2.00003
2.00001
2
2
2
2
2
2
2
2
2
2
2
2
2
2
2
2
2
2
2
2
2
2.00001
2.00002
2.00003
2.00003
1.99999
1.99984
1.99954
1.99914
1.99879
1.99865
1.99879
1.99914
1.99954
1.99984
1.99999
2.00003
2.00003
2.00002
2.00001
2
2
2
2
2
2
2
2
2
2
2
2
2
2
2
2
2
2
2
2
2
2
2.00001
2.00002
2.00003
2.00003
2.00001
1.99993
1.9998
1.99968
1.99963
1.99968
1.9998
1.99993
2.00001
2.00003
2.00003
2.00002
2.00001
2
2
2
2
2
2
2
2
2
2
2
2
2
2
2
2
2
2
2
2
2
2
2
2
2.00001
2.00002
2.00003
2.00003
2.00002
1.99999
1.99996
1.99995
1.99996
1.99999
2.00002
2.00003
2.00003
2.00002
2.00001
2
2
2
2
2
2
2
2
2
2
2
2
2
2
2
2
2
2
2
2
2
2
2
2
2
2
2.00001
2.00001
2.00002
2.00002
2.00002
2.00002
2.00002
2.00002
2.00002
2.00002
2.00002
2.00001
2.00001
2
2
2
2
2
2
2
2
2
2
2
2
2
2
2
2
2
2
2
2
2
2
2
2
2
2
2
2
2
2.00001
2.00001
2.00001
2.00001
2.00001
2.00001
2.00001
2.00001
2.00001
2
2
2
2
2
2
2
2
2
2
2
2
2
1.99999
1.99999
1.99999
1.99999
1.99999
2
2
2
2
2
2
2
2
2
2
2
2
2
2
2
2
2.00001
2.00001
2.00001
2
2
2
2
2
2
2
2
2
2
2
2
2
1.99999
1.99999
1.99999
1.99999
1.99999
1.99999
1.99999
1.99999
1.99999
1.99999
1.99999
2
2
2
2
2
2
2
2
2
2
2
2
2
2
2
2
2
2
2
2
2
2
2
2
2
2
2
2
1.99999
1.99999
1.99998
1.99998
1.99999
2
2
2
1.99999
1.99998
1.99998
1.99999
1.99999
2
2
2
2
2
2
2
2
2
2
2
2
2
2
2
2
2
2
2
2
2
2
2
2
2
2
1.99999
1.99999
1.99998
1.99998
2.00001
2.00005
2.00009
2.00011
2.00009
2.00005
2.00001
1.99998
1.99998
1.99999
1.99999
2
2
2
2
2
2
2
2
2
2
2
2
2
2
2
2
2
2
2
2
2
2
2
2
1.99999
1.99999
1.99998
1.99999
2.00003
2.00014
2.00029
2.00043
2.00049
2.00043
2.00029
2.00014
2.00003
1.99999
1.99998
1.99999
1.99999
2
2
2
2
2
2
2
2
2
2
2
2
2
2
2
2
2
2
2
2
2
2
1.99999
1.99999
1.99998
1.99999
2.00004
2.00021
2.00053
2.00094
2.00129
2.00143
2.00129
2.00094
2.00053
2.00021
2.00004
1.99999
1.99998
1.99999
1.99999
2
2
2
2
2
2
2
2
2
2
2
2
2
2
2
2
2
2
2
2
2
1.99999
1.99998
1.99998
2.00003
2.00021
2.00064
2.00135
2.00221
2.00289
2.00314
2.00289
2.00221
2.00135
2.00064
2.00021
2.00003
1.99998
1.99998
1.99999
2
2
2
2
2
2
2
2
2
2
2
2
2
2
2
2
2
2
2
2
2
1.99999
1.99998
2.00001
2.00014
2.00053
2.00135
2.00262
2.00403
2.00504
2.00538
2.00504
2.00403
2.00262
2.00135
2.00053
2.00014
2.00001
1.99998
1.99998
2
2
2
2
2
2
2
2
2
2
2
2
2
2
2
2
2
2
2
2
1.99999
1.99999
1.99999
2.00005
2.00029
2.00094
2.00221
2.00403
2.00584
2.00697
2.00728
2.00697
2.00584
2.00403
2.00221
2.00094
2.00029
2.00005
1.99999
1.99998
2
2
2
2
2
2
2
2
2
2
2
2
2
2
2
2
2
2
2
2
1.99999
1.99999
2
2.00009
2.00043
2.00129
2.00289
2.00504
2.00697
2.00793
2.0081
2.00793
2.00697
2.00504
2.00289
2.00129
2.00043
2.00009
2
1.99998
2
2
2
2
2
2
2
2
2
2
2
2
2
2
2
2
2
2
2
2
1.99999
1.99999
2
2.00011
2.00049
2.00143
2.00314
2.00538
2.00728
2.0081
2.00817
2.0081
2.00728
2.00538
2.00314
2.00143
2.00049
2.00011
2
1.99998
2
2
2
2
2
2
2
2
2
2
2
2
2
2
2
2
2
2
2
2
1.99999
1.99999
2
2.00009
2.00043
2.00129
2.00289
2.00504
2.00697
2.00793
2.0081
2.00793
2.00697
2.00504
2.00289
2.00129
2.00043
2.00009
2
1.99998
2
2
2
2
2
2
2
2
2
2
2
2
2
2
2
2
2
2
2
2
1.99999
1.99999
1.99999
2.00005
2.00029
2.00094
2.00221
2.00403
2.00584
2.00697
2.00728
2.00697
2.00584
2.00403
2.00221
2.00094
2.00029
2.00005
1.99999
1.99998
2
2
2
2
2
2
2
2
2
2
2
2
2
2
2
2
2
2
2
2
2
1.99999
1.99998
2.00001
2.00014
2.00053
2.00135
2.00262
2.00403
2.00504
2.00538
2.00504
2.00403
2.00262
2.00135
2.00053
2.00014
2.00001
1.99998
1.99998
2
2
2
2
2
2
2
2
2
2
2
2
2
2
2
2
2
2
2
2
2
1.99999
1.99998
1.99998
2.00003
2.00021
2.00064
2.00135
2.00221
2.00289
2.00314
2.00289
2.00221
2.00135
2.00064
2.00021
2.00003
1.99998
1.99998
1.99999
2
2
2
2
2
2
2
2
2
2
2
2
2
2
2
2
2
2
2
2
2
1.99999
1.99999
1.99998
1.99999
2.00004
2.00021
2.00053
2.00094
2.00129
2.00143
2.00129
2.00094
2.00053
2.00021
2.00004
1.99999
1.99998
1.99999
1.99999
2
2
2
2
2
2
2
2
2
2
2
2
2
2
2
2
2
2
2
2
2
2
1.99999
1.99999
1.99998
1.99999
2.00003
2.00014
2.00029
2.00043
2.00049
2.00043
2.00029
2.00014
2.00003
1.99999
1.99998
1.99999
1.99999
2
2
2
2
2
2
2
2
2
2
2
2
2
2
2
2
2
2
2
2
2
2
2
2
1.99999
1.99999
1.99998
1.99998
2.00001
2.00005
2.00009
2.00011
2.00009
2.00005
2.00001
1.99998
1.99998
1.99999
1.99999
2
2
2
2
2
2
2
2
2
2
2
2
2
2
2
2
2
2
2
2
2
2
2
2
2
2
1.99999
1.99999
1.99998
1.99998
1.99999
2
2
2
1.99999
1.99998
1.99998
1.99999
1.99999
2
2
2
2
2
2
2
2
2
2
2
2
2
2
2
2
2
2
2
2
2
2
2
2
2
2
2
2
1.99999
1.99999
1.99998
1.99998
1.99998
1.99998
1.99998
1.99998
1.99998
1.99999
1.99999
2
2
2
2
