# vtk DataFile Version 3.0
Brusselator Concentration Output
ASCII
DATASET STRUCTURED_POINTS
DIMENSIONS 40 40 1
ORIGIN 0.0 0.0 0.0
SPACING 0.005 0.005 1.0
POINT_DATA 1600
SCALARS C1 double 1
LOOKUP_TABLE default
0.999902
0.999907
0.999923
0.99996
1.00003
1.00012
1.00024
1.00036
1.00046
1.00053
1.00056
1.00053
1.00046
1.00036
1.00024
1.00012
1.00003
0.999965
0.999935
0.999931
0.999942
0.99996
0.999976
0.999988
0.999995
0.999999
1
1
1
1
1
1
1
1
1
1
1
1
1
1
0.999907
0.999923
0.999962
1.00003
1.00014
1.00028
1.00043
1.00059
1.00072
1.0008
1.00083
1.0008
1.00072
1.00059
1.00043
1.00028
1.00014
1.00004
0.999977
0.99995
0.999948
0.999959
0.999973
0.999985
0.999993
0.999998
1
1
1
1
1
1
1
1
1
1
1
1
1
1
0.999923
0.999962
1.00005
1.00018
1.00036
1.00057
1.0008
1.00101
1.00117
1.00128
1.00131
1.00128
1.00117
1.00101
1.0008
1.00057
1.00036
1.00019
1.00006
0.999993
0.999963
0.99996
0.999969
0.99998
0.99999
0.999996
0.999999
1
1
1
1
1
1
1
1
1
1
1
1
1
0.99996
1.00003
1.00018
1.0004
1.00067
1.00098
1.00128
1.00154
1.00173
1.00185
1.00189
1.00185
1.00173
1.00154
1.00128
1.00098
1.00068
1.00041
1.0002
1.00007
0.999993
0.999966
0.999966
0.999975
0.999986
0.999993
0.999997
0.999999
1
1
1
1
1
1
1
1
1
1
1
1
1.00003
1.00014
1.00036
1.00067
1.00105
1.00144
1.0018
1.00208
1.00228
1.0024
1.00243
1.0024
1.00228
1.00208
1.0018
1.00144
1.00106
1.00069
1.00039
1.00017
1.00004
0.999983
0.999966
0.999971
0.999981
0.99999
0.999996
0.999999
1
1
1
1
1
1
1
1
1
1
1
1
1.00012
1.00028
1.00057
1.00098
1.00144
1.00189
1.00226
1.00253
1.0027
1.00277
1.00279
1.00277
1.0027
1.00253
1.00227
1.00189
1.00145
1.001
1.0006
1.0003
1.00011
1.00001
0.999973
0.999968
0.999977
0.999987
0.999994
0.999998
1
1
1
1
1
1
1
1
1
1
1
1
1.00024
1.00043
1.0008
1.00128
1.0018
1.00226
1.00261
1.00282
1.0029
1.00291
1.00291
1.00291
1.0029
1.00282
1.00262
1.00227
1.00181
1.0013
1.00083
1.00045
1.00019
1.00005
0.999984
0.999969
0.999974
0.999984
0.999992
0.999997
0.999999
1
1
1
1
1
1
1
1
1
1
1
1.00036
1.00059
1.00101
1.00154
1.00208
1.00253
1.00282
1.00292
1.0029
1.00283
1.0028
1.00283
1.0029
1.00292
1.00282
1.00254
1.0021
1.00157
1.00103
1.00059
1.00027
1.00009
0.999998
0.999971
0.999973
0.999982
0.999991
0.999996
0.999999
1
1
1
1
1
1
1
1
1
1
1
1.00046
1.00072
1.00117
1.00173
1.00228
1.0027
1.0029
1.0029
1.00276
1.00262
1.00256
1.00262
1.00276
1.0029
1.0029
1.00271
1.0023
1.00176
1.0012
1.0007
1.00034
1.00012
1.00001
0.999975
0.999972
0.999981
0.99999
0.999996
0.999999
1
1
1
1
1
1
1
1
1
1
1
1.00053
1.0008
1.00128
1.00185
1.0024
1.00277
1.00291
1.00283
1.00262
1.00241
1.00233
1.00241
1.00262
1.00283
1.00292
1.00278
1.00242
1.00188
1.0013
1.00078
1.00039
1.00015
1.00002
0.999978
0.999972
0.99998
0.999989
0.999995
0.999998
1
1
1
1
1
1
1
1
1
1
1
1.00056
1.00083
1.00131
1.00189
1.00243
1.00279
1.00291
1.0028
1.00256
1.00233
1.00224
1.00233
1.00256
1.0028
1.00291
1.00281
1.00245
1.00192
1.00133
1.0008
1.00041
1.00015
1.00003
0.999979
0.999972
0.999979
0.999989
0.999995
0.999998
1
1
1
1
1
1
1
1
1
1
1
1.00053
1.0008
1.00128
1.00185
1.0024
1.00277
1.00291
1.00283
1.00262
1.00241
1.00233
1.00241
1.00262
1.00283
1.00292
1.00278
1.00242
1.00188
1.0013
1.00078
1.00039
1.00015
1.00002
0.999977
0.999972
0.99998
0.999989
0.999995
0.999998
1
1
1
1
1
1
1
1
1
1
1
1.00046
1.00072
1.00117
1.00173
1.00228
1.0027
1.0029
1.0029
1.00276
1.00262
1.00256
1.00262
1.00276
1.0029
1.0029
1.00271
1.0023
1.00176
1.0012
1.0007
1.00034
1.00012
1.00001
0.999975
0.999972
0.999981
0.99999
0.999996
0.999999
1
1
1
1
1
1
1
1
1
1
1
1.00036
1.00059
1.00101
1.00154
1.00208
1.00253
1.00282
1.00292
1.0029
1.00283
1.0028
1.00283
1.0029
1.00292
1.00282
1.00254
1.0021
1.00157
1.00103
1.00059
1.00027
1.00009
0.999998
0.999971
0.999973
0.999983
0.999992
0.999998
1
1
1
1
1
1
1
1
1
1
1
1
1.00024
1.00043
1.0008
1.00128
1.0018
1.00227
1.00262
1.00282
1.0029
1.00292
1.00291
1.00292
1.0029
1.00282
1.00262
1.00227
1.00181
1.00131
1.00083
1.00045
1.00019
1.00005
0.999984
0.99997
0.999976
0.999987
0.999995
1
1
1
1
1
1
1
1
1
1
1
1
1
1.00012
1.00028
1.00057
1.00098
1.00144
1.00189
1.00227
1.00254
1.00271
1.00278
1.00281
1.00278
1.00271
1.00254
1.00227
1.0019
1.00146
1.001
1.00061
1.0003
1.00011
1.00001
0.999974
0.999971
0.999981
0.999992
1
1.00001
1.00001
1.00001
1.00001
1.00001
1.00001
1.00001
1.00001
1.00001
1
1
1
1
1.00003
1.00014
1.00036
1.00068
1.00106
1.00145
1.00181
1.0021
1.0023
1.00242
1.00245
1.00242
1.0023
1.0021
1.00181
1.00146
1.00107
1.0007
1.00039
1.00017
1.00005
0.999986
0.99997
0.999977
0.999989
1
1.00001
1.00001
1.00001
1.00001
1.00002
1.00001
1.00001
1.00001
1.00001
1.00001
1.00001
1.00001
1
1
0.999965
1.00004
1.00019
1.00041
1.00069
1.001
1.0013
1.00157
1.00176
1.00188
1.00192
1.00188
1.00176
1.00157
1.00131
1.001
1.0007
1.00043
1.00021
1.00007
1
0.999973
0.999974
0.999986
1
1.00001
1.00001
1.00002
1.00002
1.00002
1.00002
1.00002
1.00002
1.00002
1.00002
1.00002
1.00001
1.00001
1.00001
1.00001
0.999935
0.999977
1.00006
1.0002
1.00039
1.0006
1.00083
1.00103
1.0012
1.0013
1.00133
1.0013
1.0012
1.00103
1.00083
1.00061
1.00039
1.00021
1.00009
1.00001
0.999977
0.999974
0.999984
0.999998
1.00001
1.00002
1.00002
1.00001
1.00001
1.00001
1.00001
1.00001
1.00001
1.00001
1.00002
1.00002
1.00002
1.00002
1.00002
1.00002
0.999931
0.99995
0.999993
1.00007
1.00017
1.0003
1.00045
1.00059
1.0007
1.00078
1.0008
1.00078
1.0007
1.00059
1.00045
1.0003
1.00017
1.00007
1.00001
0.999979
0.999974
0.999983
0.999997
1.00001
1.00001
1.00001
0.999999
0.999987
0.999974
0.999965
0.999962
0.999965
0.999974
0.999986
1
1.00001
1.00002
1.00002
1.00003
1.00003
0.999942
0.999948
0.999963
0.999993
1.00004
1.00011
1.00019
1.00027
1.00034
1.00039
1.00041
1.00039
1.00034
1.00027
1.00019
1.00011
1.00005
1
0.999977
0.999974
0.999983
0.999996
1.00001
1.00001
0.999998
0.999978
0.999949
0.999918
0.999891
0.999872
0.999865
0.999872
0.999891
0.999918
0.99995
0.99998
1
1.00002
1.00003
1.00004
0.99996
0.999959
0.99996
0.999966
0.999983
1.00001
1.00005
1.00009
1.00012
1.00015
1.00015
1.00015
1.00012
1.00009
1.00005
1.00001
0.999986
0.999973
0.999974
0.999983
0.999996
1.00001
1
0.999989
0.999955
0.999907
0.999849
0.999791
0.999741
0.999708
0.999696
0.999708
0.999741
0.999791
0.99985
0.999909
0.999962
1
1.00003
1.00004
0.999976
0.999973
0.999969
0.999966
0.999966
0.999973
0.999984
0.999998
1.00001
1.00002
1.00003
1.00002
1.00001
0.999998
0.999984
0.999974
0.99997
0.999974
0.999984
0.999997
1.00001
1
0.999985
0.999941
0.999873
0.999785
0.999688
0.999595
0.999519
0.999469
0.999452
0.999469
0.999519
0.999595
0.999689
0.999789
0.999881
0.999957
1.00001
1.00003
0.999988
0.999985
0.99998
0.999975
0.999971
0.999968
0.999969
0.999971
0.999975
0.999978
0.999979
0.999977
0.999975
0.999971
0.99997
0.999971
0.999977
0.999986
0.999998
1.00001
1.00001
0.999989
0.999941
0.99986
0.999746
0.999611
0.99947
0.999341
0.999239
0.999174
0.999152
0.999174
0.999239
0.999341
0.999472
0.999617
0.999757
0.999877
0.999964
1.00001
0.999995
0.999993
0.99999
0.999986
0.999981
0.999977
0.999974
0.999973
0.999972
0.999972
0.999972
0.999972
0.999972
0.999973
0.999976
0.999981
0.999989
1
1.00001
1.00001
0.999998
0.999955
0.999873
0.999746
0.999582
0.999398
0.999215
0.999057
0.998937
0.998865
0.99884
0.998865
0.998938
0.999058
0.999219
0.999406
0.999596
0.999766
0.999891
0.999958
0.999999
0.999998
0.999996
0.999993
0.99999
0.999987
0.999984
0.999982
0.999981
0.99998
0.999979
0.99998
0.999981
0.999983
0.999987
0.999992
1
1.00001
1.00002
1.00001
0.999978
0.999907
0.999785
0.999611
0.999398
0.99917
0.998958
0.998785
0.998663
0.998593
0.99857
0.998593
0.998664
0.998787
0.998964
0.999181
0.999414
0.99963
0.999796
0.999886
1
1
0.999999
0.999997
0.999996
0.999994
0.999992
0.999991
0.99999
0.999989
0.999989
0.999989
0.99999
0.999992
0.999995
1
1.00001
1.00001
1.00002
0.999999
0.999949
0.999849
0.999688
0.99947
0.999215
0.998958
0.998734
0.998565
0.998457
0.998401
0.998384
0.998401
0.998458
0.998568
0.998741
0.99897
0.999233
0.999487
0.999688
0.999798
1
1
1
0.999999
0.999999
0.999998
0.999997
0.999996
0.999996
0.999995
0.999995
0.999995
0.999996
0.999998
1
1.00001
1.00001
1.00002
1.00001
0.999987
0.999918
0.999791
0.999595
0.999341
0.999057
0.998785
0.998565
0.998416
0.998335
0.998301
0.998293
0.998302
0.998336
0.99842
0.998573
0.998799
0.999075
0.999354
0.999582
0.999709
1
1
1
1
1
1
0.999999
0.999999
0.999999
0.999998
0.999998
0.999998
0.999999
1
1
1.00001
1.00001
1.00002
1.00001
0.999974
0.999891
0.999741
0.999519
0.999239
0.998937
0.998663
0.998457
0.998335
0.998285
0.998276
0.998277
0.998277
0.998287
0.998339
0.998465
0.998678
0.998955
0.999248
0.999493
0.999632
1
1
1
1
1
1
1
1
1
1
1
1
1
1
1
1.00001
1.00001
1.00002
1.00001
0.999965
0.999872
0.999708
0.999469
0.999174
0.998865
0.998593
0.998401
0.998301
0.998276
0.998286
0.998294
0.998287
0.998278
0.998306
0.99841
0.998608
0.998882
0.999181
0.999434
0.99958
1
1
1
1
1
1
1
1
1
1
1
1
1
1
1
1.00001
1.00002
1.00002
1.00001
0.999962
0.999865
0.999696
0.999452
0.999152
0.99884
0.99857
0.998384
0.998293
0.998277
0.998294
0.998305
0.998295
0.998279
0.998298
0.998393
0.998585
0.998858
0.999157
0.999414
0.999561
1
1
1
1
1
1
1
1
1
1
1
1
1
1
1
1.00001
1.00001
1.00002
1.00001
0.999965
0.999872
0.999708
0.999469
0.999174
0.998865
0.998593
0.998401
0.998302
0.998277
0.998287
0.998295
0.998287
0.998278
0.998306
0.99841
0.998608
0.998882
0.999181
0.999434
0.99958
1
1
1
1
1
1
1
1
1
1
1
1
1
1
1
1.00001
1.00001
1.00002
1.00001
0.999974
0.999891
0.999741
0.999519
0.999239
0.998938
0.998664
0.998458
0.998336
0.998287
0.998278
0.998279
0.998278
0.998288
0.99834
0.998467
0.998678
0.998955
0.999248
0.999493
0.999632
1
1
1
1
1
1
1
1
1
1
1
1
1
1
1
1.00001
1.00001
1.00002
1.00001
0.999986
0.999918
0.999791
0.999595
0.999341
0.999058
0.998787
0.998568
0.99842
0.998339
0.998306
0.998298
0.998306
0.99834
0.998423
0.998576
0.998801
0.999076
0.999355
0.999582
0.999709
1
1
1
1
1
1
1
1
1
1
1
1
1
1
1
1.00001
1.00001
1.00002
1.00002
1
0.99995
0.99985
0.999689
0.999472
0.999219
0.998964
0.998741
0.998573
0.998465
0.99841
0.998393
0.99841
0.998467
0.998576
0.998747
0.998976
0.999237
0.999489
0.999689
0.999799
1
1
1
1
1
1
1
1
1
1
1
1
1
1
1
1.00001
1.00001
1.00002
1.00002
1.00001
0.99998
0.999909
0.999789
0.999617
0.999406
0.999181
0.99897
0.998799
0.998678
0.998608
0.998585
0.998608
0.998678
0.998801
0.998976
0.999191
0.999422
0.999636
0.9998
0.999889
1
1
1
1
1
1
1
1
1
1
1
1
1
1
1
1
1.00001
1.00001
1.00002
1.00002
1
0.999962
0.999881
0.999757
0.999596
0.999414
0.999233
0.999075
0.998955
0.998882
0.998858
0.998882
0.998955
0.999076
0.999237
0.999422
0.999611
0.999777
0.999901
0.999966
1
1
1
1
1
1
1
1
1
1
1
1
1
1
1
1
1.00001
1.00001
1.00002
1.00002
1.00002
1
0.999957
0.999877
0.999766
0.99963
0.999487
0.999354
0.999248
0.999181
0.999157
0.999181
0.999248
0.999355
0.999489
0.999636
0.999777
0.999896
0.999981
1.00002
1
1
1
1
1
1
1
1
1
1
1
1
1
1
1
1
1
1.00001
1.00002
1.00003
1.00003
1.00003
1.00001
0.999964
0.999891
0.999796
0.999688
0.999582
0.999493
0.999434
0.999414
0.999434
0.999493
0.999582
0.999689
0.9998
0.999901
0.999981
1.00003
1.00006
1
1
1
1
1
1
1
1
1
1
1
1
1
1
1
1
1
1.00001
1.00002
1.00003
1.00004
1.00004
1.00003
1.00001
0.999958
0.999886
0.999798
0.999709
0.999632
0.99958
0.999561
0.99958
0.999632
0.999709
0.999799
0.999889
0.999966
1.00002
1.00006
1.00008
SCALARS C2 double 1
LOOKUP_TABLE default
2.00013
2.00016
2.0002
2.00025
2.00028
2.00027
2.00023
2.00017
2.0001
2.00004
2.00002
2.00004
2.0001
2.00017
2.00023
2.00027
2.00028
2.00025
2.0002
2.00014
2.00009
2.00005
2.00002
2.00001
2
2
2
2
2
2
2
2
2
2
2
2
2
2
2
2
2.00016
2.00018
2.00021
2.00022
2.0002
2.00013
2.00002
1.99989
1.99976
1.99967
1.99964
1.99967
1.99976
1.99989
2.00002
2.00013
2.0002
2.00022
2.00019
2.00015
2.0001
2.00006
2.00003
2.00001
2
2
2
2
2
2
2
2
2
2
2
2
2
2
2
2
2.0002
2.00021
2.00019
2.00013
2.00001
1.99982
1.99958
1.99932
1.99908
1.99892
1.99887
1.99892
1.99908
1.99932
1.99958
1.99982
2.00001
2.00013
2.00017
2.00016
2.00012
2.00008
2.00004
2.00002
2.00001
2
2
2
2
2
2
2
2
2
2
2
2
2
2
2
2.00025
2.00022
2.00013
1.99997
1.99969
1.99932
1.99888
1.99844
1.99806
1.99781
1.99772
1.99781
1.99806
1.99844
1.99888
1.99932
1.99969
1.99995
2.0001
2.00015
2.00014
2.00011
2.00007
2.00003
2.00001
2
2
2
2
2
2
2
2
2
2
2
2
2
2
2
2.00028
2.0002
2.00001
1.99969
1.99922
1.99862
1.99795
1.99731
1.99677
1.99642
1.9963
1.99642
1.99677
1.99731
1.99795
1.99862
1.99921
1.99967
1.99997
2.00011
2.00015
2.00013
2.00009
2.00005
2.00002
2.00001
2
2
2
2
2
2
2
2
2
2
2
2
2
2
2.00027
2.00013
1.99982
1.99932
1.99862
1.99777
1.99687
1.99602
1.99535
1.99491
1.99476
1.99491
1.99535
1.99602
1.99687
1.99777
1.99861
1.99929
1.99976
2.00002
2.00013
2.00014
2.0001
2.00006
2.00003
2.00001
2
2
2
2
2
2
2
2
2
2
2
2
2
2
2.00023
2.00002
1.99958
1.99888
1.99795
1.99687
1.99575
1.99475
1.99397
1.99348
1.99331
1.99348
1.99397
1.99475
1.99575
1.99686
1.99794
1.99884
1.9995
1.9999
2.00009
2.00014
2.00012
2.00008
2.00004
2.00002
2.00001
2
2
2
2
2
2
2
2
2
2
2
2
2
2.00017
1.99989
1.99932
1.99844
1.99731
1.99602
1.99475
1.99363
1.99279
1.99228
1.99211
1.99228
1.99279
1.99363
1.99475
1.99602
1.99728
1.99839
1.99923
1.99976
2.00004
2.00013
2.00013
2.00009
2.00005
2.00002
2.00001
2
2
2
2
2
2
2
2
2
2
2
2
2
2.0001
1.99976
1.99908
1.99806
1.99677
1.99535
1.99397
1.99279
1.99193
1.99142
1.99126
1.99142
1.99194
1.99279
1.99396
1.99534
1.99675
1.99801
1.99899
1.99963
1.99998
2.00012
2.00013
2.0001
2.00006
2.00003
2.00001
2
2
2
2
2
2
2
2
2
2
2
2
2
2.00004
1.99967
1.99892
1.99781
1.99642
1.99491
1.99348
1.99228
1.99142
1.99092
1.99076
1.99092
1.99142
1.99228
1.99347
1.9949
1.99639
1.99775
1.99882
1.99954
1.99994
2.0001
2.00013
2.0001
2.00006
2.00003
2.00001
2
2
2
2
2
2
2
2
2
2
2
2
2
2.00002
1.99964
1.99887
1.99772
1.9963
1.99476
1.99331
1.99211
1.99126
1.99076
1.9906
1.99076
1.99126
1.99211
1.99331
1.99475
1.99627
1.99766
1.99876
1.99951
1.99993
2.0001
2.00013
2.0001
2.00006
2.00003
2.00001
2
2
2
2
2
2
2
2
2
2
2
2
2
2.00004
1.99967
1.99892
1.99781
1.99642
1.99491
1.99348
1.99228
1.99142
1.99092
1.99076
1.99092
1.99142
1.99228
1.99347
1.9949
1.99639
1.99775
1.99882
1.99954
1.99994
2.0001
2.00013
2.0001
2.00006
2.00003
2.00001
2
2
2
2
2
2
2
2
2
2
2
2
2
2.0001
1.99976
1.99908
1.99806
1.99677
1.99535
1.99397
1.99279
1.99194
1.99142
1.99126
1.99142
1.99194
1.99279
1.99396
1.99534
1.99675
1.99801
1.99899
1.99963
1.99998
2.00012
2.00013
2.0001
2.00006
2.00003
2.00001
2
2
2
2
2
2
2
2
2
2
2
2
2
2.00017
1.99989
1.99932
1.99844
1.99731
1.99602
1.99475
1.99363
1.99279
1.99228
1.99211
1.99228
1.99279
1.99363
1.99475
1.99602
1.99729
1.99839
1.99923
1.99976
2.00004
2.00013
2.00013
2.00009
2.00005
2.00002
2.00001
2
2
2
2
2
2
2
2
2
2
2
2
2
2.00023
2.00002
1.99958
1.99888
1.99795
1.99687
1.99575
1.99475
1.99396
1.99347
1.99331
1.99347
1.99396
1.99475
1.99575
1.99686
1.99794
1.99884
1.9995
1.9999
2.00009
2.00014
2.00012
2.00008
2.00004
2.00002
2
2
2
2
2
2
2
2
2
2
2
2
2
2
2.00027
2.00013
1.99982
1.99932
1.99862
1.99777
1.99686
1.99602
1.99534
1.9949
1.99475
1.9949
1.99534
1.99602
1.99686
1.99776
1.99861
1.99929
1.99976
2.00003
2.00013
2.00014
2.00011
2.00006
2.00003
2.00001
2
1.99999
1.99999
1.99999
1.99999
1.99999
1.99999
1.99999
1.99999
2
2
2
2
2
2.00028
2.0002
2.00001
1.99969
1.99921
1.99861
1.99794
1.99728
1.99675
1.99639
1.99627
1.99639
1.99675
1.99729
1.99794
1.99861
1.99921
1.99967
1.99996
2.00011
2.00015
2.00013
2.00008
2.00004
2.00001
2
1.99999
1.99998
1.99998
1.99997
1.99997
1.99997
1.99998
1.99998
1.99998
1.99999
1.99999
2
2
2
2.00025
2.00022
2.00013
1.99995
1.99967
1.99929
1.99884
1.99839
1.99801
1.99775
1.99766
1.99775
1.99801
1.99839
1.99884
1.99929
1.99967
1.99994
2.00009
2.00015
2.00014
2.0001
2.00006
2.00002
1.99999
1.99998
1.99997
1.99996
1.99996
1.99995
1.99995
1.99995
1.99996
1.99996
1.99997
1.99997
1.99998
1.99999
1.99999
2
2.0002
2.00019
2.00017
2.0001
1.99997
1.99976
1.9995
1.99923
1.99899
1.99882
1.99876
1.99882
1.99899
1.99923
1.9995
1.99976
1.99996
2.00009
2.00015
2.00015
2.00011
2.00007
2.00003
1.99999
1.99997
1.99995
1.99994
1.99994
1.99993
1.99993
1.99993
1.99993
1.99993
1.99994
1.99994
1.99995
1.99996
1.99997
1.99998
1.99999
2.00014
2.00015
2.00016
2.00015
2.00011
2.00002
1.9999
1.99976
1.99963
1.99954
1.99951
1.99954
1.99963
1.99976
1.9999
2.00003
2.00011
2.00015
2.00015
2.00012
2.00008
2.00003
1.99999
1.99996
1.99994
1.99993
1.99992
1.99992
1.99992
1.99992
1.99992
1.99992
1.99992
1.99992
1.99992
1.99993
1.99994
1.99995
1.99996
1.99997
2.00009
2.0001
2.00012
2.00014
2.00015
2.00013
2.00009
2.00004
1.99998
1.99994
1.99993
1.99994
1.99998
2.00004
2.00009
2.00013
2.00015
2.00014
2.00011
2.00008
2.00003
1.99999
1.99996
1.99993
1.99992
1.99991
1.99992
1.99993
1.99995
1.99996
1.99996
1.99996
1.99995
1.99993
1.99992
1.99991
1.99992
1.99992
1.99993
1.99994
2.00005
2.00006
2.00008
2.00011
2.00013
2.00014
2.00014
2.00013
2.00012
2.0001
2.0001
2.0001
2.00012
2.00013
2.00014
2.00014
2.00013
2.0001
2.00007
2.00003
1.99999
1.99996
1.99993
1.99991
1.99991
1.99993
1.99997
2.00001
2.00005
2.00009
2.0001
2.00009
2.00006
2.00001
1.99997
1.99993
1.99991
1.9999
1.9999
1.99991
2.00002
2.00003
2.00004
2.00007
2.00009
2.0001
2.00012
2.00013
2.00013
2.00013
2.00013
2.00013
2.00013
2.00013
2.00012
2.00011
2.00008
2.00006
2.00003
1.99999
1.99996
1.99993
1.99991
1.99991
1.99995
2.00001
2.0001
2.0002
2.00029
2.00035
2.00038
2.00035
2.00029
2.0002
2.0001
2.00001
1.99994
1.9999
1.99988
1.99987
2.00001
2.00001
2.00002
2.00003
2.00005
2.00006
2.00008
2.00009
2.0001
2.0001
2.0001
2.0001
2.0001
2.00009
2.00008
2.00006
2.00004
2.00002
1.99999
1.99996
1.99993
1.99991
1.99991
1.99995
2.00004
2.00017
2.00034
2.00052
2.00068
2.00079
2.00083
2.00079
2.00068
2.00052
2.00034
2.00017
2.00003
1.99993
1.99987
1.99984
2
2
2.00001
2.00001
2.00002
2.00003
2.00004
2.00005
2.00006
2.00006
2.00006
2.00006
2.00006
2.00005
2.00004
2.00003
2.00001
1.99999
1.99997
1.99994
1.99992
1.99991
1.99995
2.00004
2.0002
2.00043
2.00071
2.00099
2.00122
2.00138
2.00144
2.00138
2.00122
2.00098
2.00071
2.00043
2.00018
2
1.99988
1.99983
2
2
2
2
2.00001
2.00001
2.00002
2.00002
2.00003
2.00003
2.00003
2.00003
2.00003
2.00002
2.00002
2.00001
2
1.99998
1.99995
1.99993
1.99991
1.99993
2.00001
2.00017
2.00043
2.00078
2.00117
2.00155
2.00187
2.00208
2.00215
2.00208
2.00187
2.00155
2.00116
2.00077
2.00041
2.00013
1.99994
1.99984
2
2
2
2
2
2
2.00001
2.00001
2.00001
2.00001
2.00001
2.00001
2.00001
2.00001
2
2
1.99999
1.99997
1.99994
1.99992
1.99992
1.99997
2.0001
2.00034
2.00071
2.00117
2.00167
2.00215
2.00254
2.00279
2.00288
2.00279
2.00254
2.00215
2.00167
2.00115
2.00067
2.00029
2.00002
1.99988
2
2
2
2
2
2
2
2
2
2
2
2
2
2
2
1.99999
1.99998
1.99996
1.99994
1.99992
1.99993
2.00001
2.0002
2.00052
2.00099
2.00155
2.00215
2.00271
2.00315
2.00344
2.00353
2.00344
2.00315
2.00271
2.00214
2.00153
2.00095
2.00046
2.00012
1.99994
2
2
2
2
2
2
2
2
2
2
2
2
2
2
2
1.99999
1.99998
1.99996
1.99993
1.99992
1.99995
2.00005
2.00029
2.00068
2.00122
2.00187
2.00254
2.00315
2.00363
2.00393
2.00403
2.00393
2.00363
2.00315
2.00253
2.00185
2.00118
2.00061
2.00021
2
2
2
2
2
2
2
2
2
2
2
2
2
2
2
2
1.99999
1.99997
1.99995
1.99993
1.99992
1.99996
2.00009
2.00035
2.00079
2.00138
2.00208
2.00279
2.00344
2.00393
2.00424
2.00435
2.00424
2.00393
2.00343
2.00278
2.00205
2.00133
2.00072
2.00028
2.00005
2
2
2
2
2
2
2
2
2
2
2
2
2
2
2
1.99999
1.99997
1.99995
1.99993
1.99992
1.99996
2.0001
2.00038
2.00083
2.00144
2.00215
2.00288
2.00353
2.00403
2.00435
2.00445
2.00435
2.00403
2.00353
2.00287
2.00213
2.00139
2.00076
2.0003
2.00006
2
2
2
2
2
2
2
2
2
2
2
2
2
2
2
1.99999
1.99997
1.99995
1.99993
1.99992
1.99996
2.00009
2.00035
2.00079
2.00138
2.00208
2.00279
2.00344
2.00393
2.00424
2.00435
2.00424
2.00393
2.00343
2.00278
2.00205
2.00134
2.00072
2.00028
2.00005
2
2
2
2
2
2
2
2
2
2
2
2
2
2
2
1.99999
1.99998
1.99996
1.99993
1.99992
1.99995
2.00006
2.00029
2.00068
2.00122
2.00187
2.00254
2.00315
2.00363
2.00393
2.00403
2.00393
2.00363
2.00315
2.00253
2.00185
2.00118
2.00061
2.00021
2
2
2
2
2
2
2
2
2
2
2
2
2
2
2
2
1.99999
1.99998
1.99996
1.99994
1.99992
1.99993
2.00001
2.0002
2.00052
2.00098
2.00155
2.00215
2.00271
2.00315
2.00343
2.00353
2.00343
2.00315
2.0027
2.00214
2.00153
2.00095
2.00046
2.00012
1.99994
2
2
2
2
2
2
2
2
2
2
2
2
2
2
2
1.99999
1.99998
1.99997
1.99994
1.99992
1.99992
1.99997
2.0001
2.00034
2.00071
2.00116
2.00167
2.00214
2.00253
2.00278
2.00287
2.00278
2.00253
2.00214
2.00166
2.00115
2.00067
2.00029
2.00002
1.99989
2
2
2
2
2
2
2
2
2
2
2
2
2
2
2
2
1.99999
1.99997
1.99995
1.99993
1.99991
1.99993
2.00001
2.00017
2.00043
2.00077
2.00115
2.00153
2.00185
2.00205
2.00213
2.00205
2.00185
2.00153
2.00115
2.00075
2.0004
2.00012
1.99993
1.99984
2
2
2
2
2
2
2
2
2
2
2
2
2
2
2
2
1.99999
1.99998
1.99996
1.99994
1.99992
1.99991
1.99994
2.00003
2.00018
2.00041
2.00067
2.00095
2.00118
2.00133
2.00139
2.00134
2.00118
2.00095
2.00067
2.0004
2.00016
1.99999
1.99988
1.99982
2
2
2
2
2
2
2
2
2
2
2
2
2
2
2
2
2
1.99999
1.99997
1.99995
1.99992
1.9999
1.9999
1.99993
2
2.00013
2.00029
2.00046
2.00061
2.00072
2.00076
2.00072
2.00061
2.00046
2.00029
2.00012
1.99999
1.9999
1.99985
1.99983
2
2
2
2
2
2
2
2
2
2
2
2
2
2
2
2
2
1.99999
1.99998
1.99996
1.99993
1.9999
1.99988
1.99987
1.99988
1.99994
2.00002
2.00012
2.00021
2.00028
2.0003
2.00028
2.00021
2.00012
2.00002
1.99993
1.99988
1.99985
1.99984
1.99984
2
2
2
2
2
2
2
2
2
2
2
2
2
2
2
2
2
2
1.99999
1.99997
1.99994
1.99991
1.99987
1.99984
1.99983
1.99984
1.99988
1.99994
2
2.00005
2.00006
2.00005
2
1.99994
1.99989
1.99984
1.99982
1.99983
1.99984
1.99985
