# vtk DataFile Version 3.0
Brusselator Concentration Output
ASCII
DATASET STRUCTURED_POINTS
DIMENSIONS 40 40 1
ORIGIN 0.0 0.0 0.0
SPACING 0.005 0.005 1.0
POINT_DATA 1600
SCALARS C1 double 1
LOOKUP_TABLE default
0.999994
0.999993
0.999993
0.999998
1.00001
1.00004
1.00008
1.00012
1.00016
1.00019
1.0002
1.00019
1.00016
1.00012
1.00008
1.00004
1.00001
0.999998
0.999993
0.999994
0.999996
0.999998
0.999999
1
1
1
1
1
1
1
1
1
1
1
1
1
1
1
1
1
0.999993
0.999994
1
1.00002
1.00005
1.0001
1.00016
1.00023
1.00029
1.00032
1.00034
1.00032
1.00029
1.00023
1.00016
1.0001
1.00005
1.00002
1
0.999995
0.999996
0.999997
0.999999
0.999999
1
1
1
1
1
1
1
1
1
1
1
1
1
1
1
1
0.999993
1
1.00002
1.00006
1.00014
1.00023
1.00034
1.00044
1.00051
1.00054
1.00056
1.00054
1.00051
1.00044
1.00034
1.00023
1.00014
1.00006
1.00002
1
0.999996
0.999996
0.999998
0.999999
1
1
1
1
1
1
1
1
1
1
1
1
1
1
1
1
0.999998
1.00002
1.00006
1.00015
1.00028
1.00043
1.00057
1.00066
1.0007
1.00069
1.00068
1.00069
1.0007
1.00066
1.00057
1.00043
1.00028
1.00015
1.00006
1.00002
1
0.999997
0.999997
0.999998
0.999999
1
1
1
1
1
1
1
1
1
1
1
1
1
1
1
1.00001
1.00005
1.00014
1.00028
1.00047
1.00065
1.00075
1.00073
1.00061
1.00047
1.00041
1.00047
1.00061
1.00073
1.00075
1.00065
1.00047
1.00028
1.00014
1.00005
1.00001
0.999999
0.999997
0.999998
0.999999
1
1
1
1
1
1
1
1
1
1
1
1
1
1
1
1.00004
1.0001
1.00023
1.00043
1.00065
1.00077
1.0007
1.00038
0.999926
0.999524
0.999365
0.999524
0.999926
1.00038
1.0007
1.00077
1.00065
1.00043
1.00024
1.0001
1.00003
1.00001
0.999998
0.999997
0.999999
0.999999
1
1
1
1
1
1
1
1
1
1
1
1
1
1
1.00008
1.00016
1.00034
1.00057
1.00075
1.0007
1.00026
0.999446
0.998465
0.997669
0.997364
0.997669
0.998465
0.999446
1.00026
1.0007
1.00075
1.00057
1.00034
1.00016
1.00006
1.00001
1
0.999998
0.999998
0.999999
1
1
1
1
1
1
1
1
1
1
1
1
1
1
1.00012
1.00023
1.00044
1.00066
1.00073
1.00038
0.999446
0.997987
0.996374
0.995123
0.994653
0.995123
0.996374
0.997987
0.999446
1.00038
1.00073
1.00066
1.00044
1.00023
1.00009
1.00003
1
0.999998
0.999998
0.999999
1
1
1
1
1
1
1
1
1
1
1
1
1
1
1.00016
1.00029
1.00051
1.0007
1.00061
0.999926
0.998465
0.996374
0.99417
0.992508
0.991894
0.992508
0.99417
0.996374
0.998465
0.999927
1.00061
1.0007
1.00051
1.00028
1.00012
1.00004
1.00001
0.999999
0.999998
0.999999
1
1
1
1
1
1
1
1
1
1
1
1
1
1
1.00019
1.00032
1.00054
1.00069
1.00047
0.999524
0.997669
0.995123
0.992508
0.990573
0.989864
0.990573
0.992508
0.995123
0.997669
0.999525
1.00047
1.00069
1.00054
1.00031
1.00014
1.00005
1.00001
0.999999
0.999998
0.999999
1
1
1
1
1
1
1
1
1
1
1
1
1
1
1.0002
1.00034
1.00056
1.00068
1.00041
0.999365
0.997364
0.994653
0.991894
0.989864
0.989122
0.989864
0.991894
0.994653
0.997364
0.999366
1.00041
1.00069
1.00056
1.00033
1.00015
1.00005
1.00001
1
0.999998
0.999999
1
1
1
1
1
1
1
1
1
1
1
1
1
1
1.00019
1.00032
1.00054
1.00069
1.00047
0.999524
0.997669
0.995123
0.992508
0.990573
0.989864
0.990573
0.992508
0.995123
0.997669
0.999525
1.00047
1.00069
1.00054
1.00031
1.00014
1.00005
1.00001
0.999999
0.999998
0.999999
1
1
1
1
1
1
1
1
1
1
1
1
1
1
1.00016
1.00029
1.00051
1.0007
1.00061
0.999926
0.998465
0.996374
0.99417
0.992508
0.991894
0.992508
0.99417
0.996374
0.998465
0.999927
1.00061
1.0007
1.00051
1.00028
1.00012
1.00004
1.00001
0.999999
0.999998
0.999999
1
1
1
1
1
1
1
1
1
1
1
1
1
1
1.00012
1.00023
1.00044
1.00066
1.00073
1.00038
0.999446
0.997987
0.996374
0.995123
0.994653
0.995123
0.996374
0.997988
0.999446
1.00038
1.00073
1.00066
1.00044
1.00023
1.00009
1.00003
1
0.999998
0.999998
0.999999
1
1
1
1
1
1
1
1
1
1
1
1
1
1
1.00008
1.00016
1.00034
1.00057
1.00075
1.0007
1.00026
0.999446
0.998465
0.997669
0.997364
0.997669
0.998465
0.999446
1.00026
1.0007
1.00075
1.00057
1.00034
1.00016
1.00006
1.00001
1
0.999998
0.999998
0.999999
1
1
1
1
1
1
1
1
1
1
1
1
1
1
1.00004
1.0001
1.00023
1.00043
1.00065
1.00077
1.0007
1.00038
0.999927
0.999525
0.999366
0.999525
0.999927
1.00038
1.0007
1.00077
1.00065
1.00043
1.00024
1.0001
1.00003
1.00001
0.999998
0.999998
0.999999
1
1
1
1
1
1
1
1
1
1
1
1
1
1
1
1.00001
1.00005
1.00014
1.00028
1.00047
1.00065
1.00075
1.00073
1.00061
1.00047
1.00041
1.00047
1.00061
1.00073
1.00075
1.00065
1.00047
1.00028
1.00014
1.00005
1.00001
0.999999
0.999997
0.999998
0.999999
1
1
1
1
1
1
1
1
1
1
1
1
1
1
1
0.999998
1.00002
1.00006
1.00015
1.00028
1.00043
1.00057
1.00066
1.0007
1.00069
1.00069
1.00069
1.0007
1.00066
1.00057
1.00043
1.00028
1.00015
1.00006
1.00002
1
0.999997
0.999997
0.999999
1
1
1
1
1
1
1
1
1
1
1
1
1
1
1
1
0.999993
1
1.00002
1.00006
1.00014
1.00024
1.00034
1.00044
1.00051
1.00054
1.00056
1.00054
1.00051
1.00044
1.00034
1.00024
1.00014
1.00006
1.00002
1
0.999997
0.999997
0.999999
1
1
1
1
1
0.999999
0.999998
0.999997
0.999998
0.999999
1
1
1
1
1
1
1
0.999994
0.999995
1
1.00002
1.00005
1.0001
1.00016
1.00023
1.00028
1.00031
1.00033
1.00031
1.00028
1.00023
1.00016
1.0001
1.00005
1.00002
1
0.999997
0.999997
0.999999
1
1
1
1
0.999997
0.999992
0.999987
0.999984
0.999983
0.999984
0.999987
0.999992
0.999997
1
1
1
1
1
0.999996
0.999996
0.999996
1
1.00001
1.00003
1.00006
1.00009
1.00012
1.00014
1.00015
1.00014
1.00012
1.00009
1.00006
1.00003
1.00001
1
0.999997
0.999997
0.999999
1
1
1
0.999998
0.99999
0.99998
0.999967
0.999955
0.999946
0.999943
0.999946
0.999955
0.999967
0.99998
0.99999
0.999998
1
1
1
0.999998
0.999997
0.999996
0.999997
0.999999
1.00001
1.00001
1.00003
1.00004
1.00005
1.00005
1.00005
1.00004
1.00003
1.00001
1.00001
0.999999
0.999997
0.999997
0.999999
1
1
1
0.999996
0.999984
0.999964
0.999937
0.999909
0.999884
0.999868
0.999862
0.999868
0.999884
0.999909
0.999937
0.999964
0.999984
0.999996
1
1
0.999999
0.999999
0.999998
0.999997
0.999997
0.999998
1
1
1.00001
1.00001
1.00001
1.00001
1.00001
1
1
0.999998
0.999997
0.999997
0.999999
1
1
1
0.999995
0.999979
0.99995
0.999907
0.999856
0.999807
0.999768
0.999744
0.999737
0.999744
0.999768
0.999807
0.999857
0.999907
0.99995
0.99998
0.999996
1
1
0.999999
0.999999
0.999998
0.999998
0.999997
0.999998
0.999998
0.999999
0.999999
1
0.999999
0.999999
0.999998
0.999998
0.999998
0.999998
0.999999
1
1
1
0.999996
0.999979
0.999944
0.999888
0.999814
0.999737
0.999673
0.999633
0.999615
0.999611
0.999615
0.999633
0.999673
0.999737
0.999814
0.999889
0.999946
0.999981
0.999997
1
1
1
0.999999
0.999999
0.999999
0.999998
0.999998
0.999998
0.999998
0.999998
0.999998
0.999998
0.999998
0.999998
0.999999
0.999999
1
1
1
0.999998
0.999984
0.99995
0.999888
0.999798
0.999696
0.99961
0.999565
0.999566
0.999587
0.999599
0.999587
0.999566
0.999565
0.99961
0.999696
0.999799
0.99989
0.999952
0.999981
1
1
1
1
1
0.999999
0.999999
0.999999
0.999999
0.999999
0.999999
0.999999
0.999999
0.999999
0.999999
1
1
1
1
1
0.99999
0.999964
0.999907
0.999814
0.999696
0.999588
0.999541
0.999585
0.999699
0.999817
0.999867
0.999817
0.999699
0.999585
0.999542
0.999589
0.999697
0.999816
0.999907
0.999954
1
1
1
1
1
1
1
1
1
1
1
1
1
1
1
1
1
1
1
0.999997
0.99998
0.999937
0.999856
0.999737
0.99961
0.999541
0.999606
0.999828
1.00015
1.00043
1.00054
1.00043
1.00015
0.999828
0.999606
0.999542
0.999611
0.999738
0.999853
0.999917
1
1
1
1
1
1
1
1
1
1
1
1
1
1
1
1
1
1
1
0.999992
0.999967
0.999909
0.999807
0.999673
0.999565
0.999585
0.999828
1.00031
1.00089
1.00138
1.00157
1.00138
1.00089
1.00031
0.999829
0.999586
0.999567
0.999673
0.999799
0.999876
1
1
1
1
1
1
1
1
1
1
1
1
1
1
1
1
1
1
0.999999
0.999987
0.999955
0.999884
0.999768
0.999633
0.999566
0.999699
1.00015
1.00089
1.00176
1.00245
1.00271
1.00245
1.00176
1.00089
1.00015
0.9997
0.999567
0.999632
0.999756
0.999839
1
1
1
1
1
1
1
1
1
1
1
1
1
1
1
1
1
1
0.999998
0.999984
0.999946
0.999868
0.999744
0.999615
0.999587
0.999817
1.00043
1.00138
1.00245
1.00328
1.0036
1.00328
1.00245
1.00138
1.00043
0.999818
0.999588
0.999613
0.999728
0.999814
1
1
1
1
1
1
1
1
1
1
1
1
1
1
1
1
1
1
0.999997
0.999983
0.999943
0.999862
0.999737
0.999611
0.999599
0.999867
1.00054
1.00157
1.00271
1.0036
1.00393
1.0036
1.00271
1.00157
1.00054
0.999868
0.9996
0.999608
0.999719
0.999805
1
1
1
1
1
1
1
1
1
1
1
1
1
1
1
1
1
1
0.999998
0.999984
0.999946
0.999868
0.999744
0.999615
0.999587
0.999817
1.00043
1.00138
1.00245
1.00328
1.0036
1.00328
1.00245
1.00138
1.00043
0.999818
0.999588
0.999613
0.999728
0.999814
1
1
1
1
1
1
1
1
1
1
1
1
1
1
1
1
1
1
0.999999
0.999987
0.999955
0.999884
0.999768
0.999633
0.999566
0.999699
1.00015
1.00089
1.00176
1.00245
1.00271
1.00245
1.00176
1.00089
1.00015
0.9997
0.999567
0.999632
0.999756
0.999839
1
1
1
1
1
1
1
1
1
1
1
1
1
1
1
1
1
1
1
0.999992
0.999967
0.999909
0.999807
0.999673
0.999565
0.999585
0.999828
1.00031
1.00089
1.00138
1.00157
1.00138
1.00089
1.00031
0.999829
0.999586
0.999567
0.999673
0.999799
0.999876
1
1
1
1
1
1
1
1
1
1
1
1
1
1
1
1
1
1
1
0.999997
0.99998
0.999937
0.999857
0.999737
0.99961
0.999542
0.999606
0.999829
1.00015
1.00043
1.00054
1.00043
1.00015
0.999829
0.999606
0.999542
0.999611
0.999738
0.999853
0.999917
1
1
1
1
1
1
1
1
1
1
1
1
1
1
1
1
1
1
1
1
0.99999
0.999964
0.999907
0.999814
0.999696
0.999589
0.999542
0.999586
0.9997
0.999818
0.999868
0.999818
0.9997
0.999586
0.999542
0.999589
0.999697
0.999816
0.999907
0.999954
1
1
1
1
1
1
1
1
1
1
1
1
1
1
1
1
1
1
1
1
0.999998
0.999984
0.99995
0.999889
0.999799
0.999697
0.999611
0.999567
0.999567
0.999588
0.9996
0.999588
0.999567
0.999567
0.999611
0.999697
0.9998
0.99989
0.999952
0.999982
1
1
1
1
1
1
1
1
1
1
1
1
1
1
1
1
1
1
1
1
1
0.999996
0.99998
0.999946
0.99989
0.999816
0.999738
0.999673
0.999632
0.999613
0.999608
0.999613
0.999632
0.999673
0.999738
0.999816
0.99989
0.999947
0.999982
0.999998
1
1
1
1
1
1
1
1
1
1
1
1
1
1
1
1
1
1
1
1
1
1
0.999996
0.999981
0.999952
0.999907
0.999853
0.999799
0.999756
0.999728
0.999719
0.999728
0.999756
0.999799
0.999853
0.999907
0.999952
0.999982
0.999998
1
1
1
1
1
1
1
1
1
1
1
1
1
1
1
1
1
1
1
1
1
1
1
1
0.999997
0.999981
0.999954
0.999917
0.999876
0.999839
0.999814
0.999805
0.999814
0.999839
0.999876
0.999917
0.999954
0.999982
0.999998
1
1.00001
SCALARS C2 double 1
LOOKUP_TABLE default
2.00001
2.00001
2.00002
2.00003
2.00003
2.00002
2
1.99996
1.99992
1.99989
1.99988
1.99989
1.99992
1.99996
2
2.00002
2.00003
2.00003
2.00002
2.00001
2
2
2
2
2
2
2
2
2
2
2
2
2
2
2
2
2
2
2
2
2.00001
2.00001
2.00002
2.00002
2
1.99997
1.9999
1.99981
1.99973
1.99967
1.99965
1.99967
1.99973
1.99981
1.9999
1.99997
2
2.00002
2.00002
2.00001
2.00001
2
2
2
2
2
2
2
2
2
2
2
2
2
2
2
2
2
2
2
2.00002
2.00002
2.00002
1.99999
1.99993
1.99981
1.99965
1.99946
1.99929
1.99917
1.99913
1.99917
1.99929
1.99946
1.99965
1.99981
1.99993
1.99999
2.00002
2.00002
2.00001
2.00001
2
2
2
2
2
2
2
2
2
2
2
2
2
2
2
2
2
2
2.00003
2.00002
1.99999
1.99991
1.99976
1.99951
1.99918
1.99885
1.99857
1.99839
1.99832
1.99839
1.99857
1.99885
1.99918
1.99951
1.99976
1.99991
1.99999
2.00001
2.00002
2.00001
2
2
2
2
2
2
2
2
2
2
2
2
2
2
2
2
2
2
2.00003
2
1.99993
1.99976
1.99945
1.99901
1.99849
1.99801
1.99767
1.99747
1.99741
1.99747
1.99767
1.99801
1.99849
1.99901
1.99945
1.99976
1.99993
2
2.00002
2.00001
2.00001
2
2
2
2
2
2
2
2
2
2
2
2
2
2
2
2
2
2.00002
1.99997
1.99981
1.99951
1.99901
1.99836
1.99769
1.99719
1.99693
1.99686
1.99686
1.99686
1.99693
1.99719
1.99769
1.99836
1.999
1.9995
1.99981
1.99996
2.00001
2.00001
2.00001
2
2
2
2
2
2
2
2
2
2
2
2
2
2
2
2
2
2
1.9999
1.99965
1.99918
1.99849
1.99769
1.99704
1.99674
1.99684
1.99711
1.99725
1.99711
1.99684
1.99674
1.99704
1.99769
1.99849
1.99918
1.99964
1.99989
1.99999
2.00001
2.00001
2.00001
2
2
2
2
2
2
2
2
2
2
2
2
2
2
2
2
1.99996
1.99981
1.99946
1.99885
1.99801
1.99719
1.99674
1.99693
1.99766
1.99848
1.99883
1.99848
1.99766
1.99693
1.99674
1.99719
1.99801
1.99885
1.99946
1.9998
1.99996
2
2.00001
2.00001
2
2
2
2
2
2
2
2
2
2
2
2
2
2
2
2
1.99992
1.99973
1.99929
1.99857
1.99767
1.99693
1.99684
1.99766
1.99916
2.00059
2.00118
2.00059
1.99916
1.99766
1.99684
1.99693
1.99766
1.99856
1.99928
1.99972
1.99993
2
2.00001
2.00001
2
2
2
2
2
2
2
2
2
2
2
2
2
2
2
2
1.99989
1.99967
1.99917
1.99839
1.99747
1.99686
1.99711
1.99848
2.00059
2.00252
2.0033
2.00252
2.00059
1.99848
1.99711
1.99686
1.99747
1.99838
1.99917
1.99966
1.9999
1.99999
2.00001
2.00001
2
2
2
2
2
2
2
2
2
2
2
2
2
2
2
2
1.99988
1.99965
1.99913
1.99832
1.99741
1.99686
1.99725
1.99883
2.00118
2.0033
2.00415
2.0033
2.00118
1.99883
1.99725
1.99686
1.99741
1.99832
1.99912
1.99964
1.99989
1.99999
2.00001
2.00001
2
2
2
2
2
2
2
2
2
2
2
2
2
2
2
2
1.99989
1.99967
1.99917
1.99839
1.99747
1.99686
1.99711
1.99848
2.00059
2.00252
2.0033
2.00252
2.00059
1.99848
1.99711
1.99686
1.99747
1.99838
1.99917
1.99966
1.9999
1.99999
2.00001
2.00001
2
2
2
2
2
2
2
2
2
2
2
2
2
2
2
2
1.99992
1.99973
1.99929
1.99857
1.99767
1.99693
1.99684
1.99766
1.99916
2.00059
2.00118
2.00059
1.99916
1.99766
1.99684
1.99693
1.99766
1.99856
1.99928
1.99972
1.99993
2
2.00001
2.00001
2
2
2
2
2
2
2
2
2
2
2
2
2
2
2
2
1.99996
1.99981
1.99946
1.99885
1.99801
1.99719
1.99674
1.99693
1.99766
1.99848
1.99883
1.99848
1.99766
1.99693
1.99674
1.99719
1.99801
1.99885
1.99946
1.9998
1.99996
2
2.00001
2.00001
2
2
2
2
2
2
2
2
2
2
2
2
2
2
2
2
2
1.9999
1.99965
1.99918
1.99849
1.99769
1.99704
1.99674
1.99684
1.99711
1.99725
1.99711
1.99684
1.99674
1.99704
1.99769
1.99849
1.99918
1.99964
1.99989
1.99999
2.00001
2.00001
2.00001
2
2
2
2
2
2
2
2
2
2
2
2
2
2
2
2
2.00002
1.99997
1.99981
1.99951
1.99901
1.99836
1.99769
1.99719
1.99693
1.99686
1.99686
1.99686
1.99693
1.99719
1.99769
1.99836
1.999
1.9995
1.99981
1.99996
2.00001
2.00001
2.00001
2
2
2
2
2
2
2
2
2
2
2
2
2
2
2
2
2
2.00003
2
1.99993
1.99976
1.99945
1.999
1.99849
1.99801
1.99766
1.99747
1.99741
1.99747
1.99766
1.99801
1.99849
1.999
1.99945
1.99976
1.99993
2
2.00002
2.00001
2.00001
2
2
2
2
2
2
2
2
2
2
2
2
2
2
2
2
2
2.00003
2.00002
1.99999
1.99991
1.99976
1.9995
1.99918
1.99885
1.99856
1.99838
1.99832
1.99838
1.99856
1.99885
1.99918
1.9995
1.99976
1.99991
1.99999
2.00001
2.00002
2.00001
2
2
2
2
2
2
2
2
2
2
2
2
2
2
2
2
2
2
2.00002
2.00002
2.00002
1.99999
1.99993
1.99981
1.99964
1.99946
1.99928
1.99917
1.99912
1.99917
1.99928
1.99946
1.99964
1.99981
1.99993
1.99999
2.00001
2.00002
2.00001
2.00001
2
2
2
2
1.99999
1.99999
1.99999
1.99999
1.99999
1.99999
1.99999
1.99999
1.99999
2
2
2
2
2
2.00001
2.00001
2.00002
2.00001
2
1.99996
1.99989
1.9998
1.99972
1.99966
1.99964
1.99966
1.99972
1.9998
1.99989
1.99996
2
2.00001
2.00002
2.00001
2.00001
2
2
2
1.99999
1.99999
1.99999
1.99999
2
2
2
2
2
1.99999
1.99999
1.99999
1.99999
2
2
2
2
2.00001
2.00001
2.00002
2.00002
2.00001
1.99999
1.99996
1.99993
1.9999
1.99989
1.9999
1.99993
1.99996
1.99999
2.00001
2.00002
2.00002
2.00001
2.00001
2
2
2
1.99999
1.99999
1.99999
2
2.00001
2.00002
2.00003
2.00003
2.00003
2.00002
2.00001
2
1.99999
1.99999
1.99999
1.99999
2
2
2
2.00001
2.00001
2.00001
2.00001
2.00001
2
2
1.99999
1.99999
1.99999
2
2
2.00001
2.00001
2.00001
2.00001
2.00001
2
2
1.99999
1.99999
1.99999
1.99999
2.00001
2.00003
2.00006
2.00009
2.00012
2.00013
2.00012
2.00009
2.00006
2.00003
2.00001
1.99999
1.99999
1.99999
1.99999
2
2
2
2
2.00001
2.00001
2.00001
2.00001
2.00001
2.00001
2.00001
2.00001
2.00001
2.00001
2.00001
2.00001
2.00001
2
2
2
2
1.99999
1.99999
2
2.00002
2.00006
2.00012
2.0002
2.00027
2.00033
2.00035
2.00033
2.00027
2.0002
2.00012
2.00006
2.00002
1.99999
1.99999
1.99999
2
2
2
2
2
2
2.00001
2.00001
2.00001
2.00001
2.00001
2.00001
2.00001
2.00001
2.00001
2
2
2
2
2
1.99999
1.99999
2
2.00002
2.00008
2.00018
2.00031
2.00047
2.0006
2.0007
2.00073
2.0007
2.0006
2.00047
2.00031
2.00018
2.00008
2.00002
1.99999
1.99998
2
2
2
2
2
2
2
2
2
2
2
2
2
2
2
2
2
2
2
1.99999
1.99999
1.99999
2.00002
2.00008
2.0002
2.00039
2.00063
2.00088
2.00108
2.0012
2.00125
2.0012
2.00108
2.00088
2.00063
2.00039
2.0002
2.00007
2.00001
1.99998
2
2
2
2
2
2
2
2
2
2
2
2
2
2
2
2
2
2
2
1.99999
1.99999
2.00001
2.00006
2.00018
2.00039
2.00069
2.00104
2.00136
2.00159
2.00171
2.00174
2.00171
2.00159
2.00136
2.00104
2.00069
2.00039
2.00017
2.00005
2
2
2
2
2
2
2
2
2
2
2
2
2
2
2
2
2
2
2
1.99999
1.99999
2
2.00003
2.00012
2.00031
2.00063
2.00104
2.00147
2.00178
2.00194
2.00197
2.00197
2.00197
2.00194
2.00178
2.00147
2.00104
2.00063
2.00031
2.00011
2.00003
2
2
2
2
2
2
2
2
2
2
2
2
2
2
2
2
2
2
1.99999
1.99999
2.00001
2.00006
2.0002
2.00047
2.00088
2.00136
2.00178
2.002
2.00197
2.00182
2.00174
2.00182
2.00197
2.002
2.00178
2.00136
2.00087
2.00046
2.00019
2.00007
2
2
2
2
2
2
2
2
2
2
2
2
2
2
2
2
2
2
1.99999
2
2.00002
2.00009
2.00027
2.0006
2.00108
2.00159
2.00194
2.00197
2.00168
2.0013
2.00113
2.0013
2.00168
2.00197
2.00194
2.00159
2.00107
2.0006
2.00027
2.00011
2
2
2
2
2
2
2
2
2
2
2
2
2
2
2
2
2
2
1.99999
2
2.00003
2.00012
2.00033
2.0007
2.0012
2.00171
2.00197
2.00182
2.0013
2.00073
2.00048
2.00073
2.0013
2.00182
2.00197
2.00171
2.0012
2.00069
2.00033
2.00015
2
2
2
2
2
2
2
2
2
2
2
2
2
2
2
2
2
2
1.99999
2
2.00003
2.00013
2.00035
2.00073
2.00125
2.00174
2.00197
2.00174
2.00113
2.00048
2.0002
2.00048
2.00113
2.00174
2.00197
2.00174
2.00124
2.00072
2.00035
2.00016
2
2
2
2
2
2
2
2
2
2
2
2
2
2
2
2
2
2
1.99999
2
2.00003
2.00012
2.00033
2.0007
2.0012
2.00171
2.00197
2.00182
2.0013
2.00073
2.00048
2.00073
2.0013
2.00182
2.00197
2.00171
2.0012
2.00069
2.00033
2.00015
2
2
2
2
2
2
2
2
2
2
2
2
2
2
2
2
2
2
1.99999
2
2.00002
2.00009
2.00027
2.0006
2.00108
2.00159
2.00194
2.00197
2.00168
2.0013
2.00113
2.0013
2.00168
2.00197
2.00194
2.00159
2.00107
2.0006
2.00027
2.00011
2
2
2
2
2
2
2
2
2
2
2
2
2
2
2
2
2
2
1.99999
1.99999
2.00001
2.00006
2.0002
2.00047
2.00088
2.00136
2.00178
2.002
2.00197
2.00182
2.00174
2.00182
2.00197
2.002
2.00178
2.00136
2.00087
2.00046
2.00019
2.00007
2
2
2
2
2
2
2
2
2
2
2
2
2
2
2
2
2
2
1.99999
1.99999
2
2.00003
2.00012
2.00031
2.00063
2.00104
2.00147
2.00178
2.00194
2.00197
2.00197
2.00197
2.00194
2.00178
2.00146
2.00104
2.00063
2.00031
2.00011
2.00003
2
2
2
2
2
2
2
2
2
2
2
2
2
2
2
2
2
2
2
1.99999
1.99999
2.00001
2.00006
2.00018
2.00039
2.00069
2.00104
2.00136
2.00159
2.00171
2.00174
2.00171
2.00159
2.00136
2.00104
2.00069
2.00039
2.00017
2.00005
2
2
2
2
2
2
2
2
2
2
2
2
2
2
2
2
2
2
2
2
1.99999
1.99999
1.99999
2.00002
2.00008
2.0002
2.00039
2.00063
2.00087
2.00107
2.0012
2.00124
2.0012
2.00107
2.00087
2.00063
2.00039
2.0002
2.00007
2.00001
1.99998
2
2
2
2
2
2
2
2
2
2
2
2
2
2
2
2
2
2
2
2
1.99999
1.99999
1.99999
2.00002
2.00007
2.00017
2.00031
2.00046
2.0006
2.00069
2.00072
2.00069
2.0006
2.00046
2.00031
2.00017
2.00007
2.00002
1.99999
1.99998
2
2
2
2
2
2
2
2
2
2
2
2
2
2
2
2
2
2
2
2
1.99999
1.99999
1.99999
1.99999
2.00001
2.00005
2.00011
2.00019
2.00027
2.00033
2.00035
2.00033
2.00027
2.00019
2.00011
2.00005
2.00001
1.99999
1.99998
1.99998
2
2
2
2
2
2
2
2
2
2
2
2
2
2
2
2
2
2
2
2
2
1.99999
1.99999
1.99998
1.99998
2
2.00003
2.00007
2.00011
2.00015
2.00016
2.00015
2.00011
2.00007
2.00003
2
1.99998
1.99998
1.99998
1.99999
