# vtk DataFile Version 3.0
Brusselator Concentration Output
ASCII
DATASET STRUCTURED_POINTS
DIMENSIONS 40 40 1
ORIGIN 0.0 0.0 0.0
SPACING 0.005 0.005 1.0
POINT_DATA 1600
SCALARS C1 double 1
LOOKUP_TABLE default
1
1
1
1
1.00001
1.00002
1.00003
1.00004
1.00004
1.00005
1.00005
1.00005
1.00004
1.00004
1.00003
1.00002
1.00001
1
1
1
1
1
1
1
1
1
1
1
1
1
1
1
1
1
1
1
1
1
1
1
1
1
1
1.00001
1.00002
1.00003
1.00004
1.00005
1.00005
1.00005
1.00004
1.00005
1.00005
1.00005
1.00004
1.00003
1.00002
1.00001
1
1
1
1
1
1
1
1
1
1
1
1
1
1
1
1
1
1
1
1
1
1
1
1
1.00001
1.00002
1.00004
1.00005
1.00006
1.00004
1.00001
0.999972
0.999957
0.999972
1.00001
1.00004
1.00006
1.00005
1.00004
1.00002
1.00001
1
1
1
1
1
1
1
1
1
1
1
1
1
1
1
1
1
1
1
1
1
1
1.00001
1.00002
1.00004
1.00006
1.00006
1.00002
0.999909
0.999761
0.999632
0.999581
0.999632
0.999761
0.999909
1.00002
1.00006
1.00006
1.00004
1.00002
1.00001
1
1
1
1
1
1
1
1
1
1
1
1
1
1
1
1
1
1
1
1
1.00001
1.00002
1.00004
1.00006
1.00006
0.999992
0.999788
0.999443
0.999038
0.998716
0.998594
0.998716
0.999038
0.999443
0.999788
0.999992
1.00006
1.00006
1.00004
1.00002
1.00001
1
1
1
1
1
1
1
1
1
1
1
1
1
1
1
1
1
1
1
1.00002
1.00003
1.00005
1.00006
0.999992
0.999732
0.999194
0.99841
0.997579
0.996965
0.996744
0.996965
0.997579
0.99841
0.999194
0.999732
0.999992
1.00006
1.00005
1.00003
1.00001
1
1
1
1
1
1
1
1
1
1
1
1
1
1
1
1
1
1
1
1.00003
1.00004
1.00006
1.00002
0.999788
0.999194
0.998136
0.996752
0.995427
0.994541
0.994242
0.994541
0.995427
0.996752
0.998136
0.999194
0.999788
1.00002
1.00006
1.00004
1.00002
1.00001
1
1
1
1
1
1
1
1
1
1
1
1
1
1
1
1
1
1
1.00004
1.00005
1.00004
0.999909
0.999443
0.99841
0.996752
0.994799
0.993153
0.992215
0.991943
0.992215
0.993153
0.994799
0.996752
0.99841
0.999443
0.999909
1.00004
1.00005
1.00003
1.00001
1
1
1
1
1
1
1
1
1
1
1
1
1
1
1
1
1
1
1.00004
1.00005
1.00001
0.999761
0.999038
0.997579
0.995427
0.993153
0.991546
0.990895
0.990789
0.990895
0.991546
0.993153
0.995427
0.997579
0.999038
0.999761
1.00001
1.00005
1.00003
1.00001
1
1
1
1
1
1
1
1
1
1
1
1
1
1
1
1
1
1
1.00005
1.00005
0.999972
0.999632
0.998716
0.996965
0.994541
0.992215
0.990895
0.990693
0.990806
0.990693
0.990895
0.992215
0.994541
0.996965
0.998716
0.999632
0.999971
1.00004
1.00003
1.00001
1
1
1
1
1
1
1
1
1
1
1
1
1
1
1
1
1
1
1.00005
1.00004
0.999957
0.999581
0.998594
0.996744
0.994242
0.991943
0.990789
0.990806
0.991022
0.990806
0.990789
0.991943
0.994242
0.996744
0.998594
0.999581
0.999956
1.00004
1.00003
1.00002
1.00001
1
1
1
1
1
1
1
1
1
1
1
1
1
1
1
1
1
1.00005
1.00005
0.999972
0.999632
0.998716
0.996965
0.994541
0.992215
0.990895
0.990693
0.990806
0.990693
0.990895
0.992215
0.994541
0.996965
0.998716
0.999632
0.999971
1.00004
1.00003
1.00001
1
1
1
1
1
1
1
1
1
1
1
1
1
1
1
1
1
1
1.00004
1.00005
1.00001
0.999761
0.999038
0.997579
0.995427
0.993153
0.991546
0.990895
0.990789
0.990895
0.991546
0.993153
0.995427
0.997579
0.999038
0.999761
1.00001
1.00005
1.00003
1.00001
1
1
1
1
1
1
1
1
1
1
1
1
1
1
1
1
1
1
1.00004
1.00005
1.00004
0.999909
0.999443
0.99841
0.996752
0.994799
0.993153
0.992215
0.991943
0.992215
0.993153
0.994799
0.996752
0.99841
0.999443
0.999909
1.00004
1.00005
1.00003
1.00001
1
1
1
1
1
1
1
1
1
1
1
1
1
1
1
1
1
1
1.00003
1.00004
1.00006
1.00002
0.999788
0.999194
0.998136
0.996752
0.995427
0.994541
0.994242
0.994541
0.995427
0.996752
0.998136
0.999194
0.999788
1.00002
1.00006
1.00004
1.00002
1.00001
1
1
1
1
1
1
1
1
1
1
1
1
1
1
1
1
1
1
1.00002
1.00003
1.00005
1.00006
0.999992
0.999732
0.999194
0.99841
0.997579
0.996965
0.996744
0.996965
0.997579
0.99841
0.999194
0.999732
0.999992
1.00006
1.00005
1.00003
1.00001
1
1
1
1
1
1
1
1
1
1
1
1
1
1
1
1
1
1
1
1.00001
1.00002
1.00004
1.00006
1.00006
0.999992
0.999788
0.999443
0.999038
0.998716
0.998594
0.998716
0.999038
0.999443
0.999788
0.999992
1.00006
1.00006
1.00004
1.00002
1.00001
1
1
1
1
1
1
1
1
1
1
1
1
1
1
1
1
1
1
1
1
1.00001
1.00002
1.00004
1.00006
1.00006
1.00002
0.999909
0.999761
0.999632
0.999581
0.999632
0.999761
0.999909
1.00002
1.00006
1.00006
1.00004
1.00002
1.00001
1
1
1
1
1
1
1
1
1
1
1
1
1
1
1
1
1
1
1
1
1
1
1.00001
1.00002
1.00004
1.00005
1.00006
1.00004
1.00001
0.999971
0.999956
0.999971
1.00001
1.00004
1.00006
1.00005
1.00004
1.00002
1.00001
1
1
1
1
1
1
1
0.999999
0.999999
0.999998
0.999998
0.999998
0.999998
0.999998
0.999999
0.999999
1
1
1
1
1
1
1
1
1.00001
1.00002
1.00003
1.00004
1.00005
1.00005
1.00004
1.00004
1.00004
1.00005
1.00005
1.00004
1.00003
1.00002
1.00001
1
1
1
1
1
1
0.999999
0.999999
0.999997
0.999996
0.999995
0.999994
0.999994
0.999994
0.999995
0.999996
0.999997
0.999999
0.999999
1
1
1
1
1
1
1
1.00001
1.00001
1.00002
1.00003
1.00003
1.00003
1.00003
1.00003
1.00003
1.00003
1.00002
1.00001
1.00001
1
1
1
1
1
1
0.999999
0.999998
0.999995
0.999992
0.999989
0.999986
0.999985
0.999985
0.999985
0.999986
0.999989
0.999992
0.999995
0.999998
0.999999
1
1
1
1
1
1
1
1
1.00001
1.00001
1.00001
1.00001
1.00002
1.00001
1.00001
1.00001
1.00001
1
1
1
1
1
1
1
0.999999
0.999997
0.999993
0.999988
0.999982
0.999977
0.999975
0.999975
0.999975
0.999975
0.999975
0.999977
0.999982
0.999988
0.999993
0.999997
0.999999
1
1
1
1
1
1
1
1
1
1
1
1.00001
1
1
1
1
1
1
1
1
1
1
0.999999
0.999997
0.999992
0.999984
0.999974
0.999968
0.999968
0.999977
0.999987
0.999992
0.999987
0.999977
0.999968
0.999968
0.999974
0.999984
0.999992
0.999997
0.999999
1
1
1
1
1
1
1
1
1
1
1
1
1
1
1
1
1
1
1
1
0.999999
0.999997
0.999992
0.999982
0.99997
0.999962
0.999969
1
1.00005
1.0001
1.00011
1.0001
1.00005
1
0.999969
0.999962
0.99997
0.999982
0.999992
0.999996
1
1
1
1
1
1
1
1
1
1
1
1
1
1
1
1
1
1
1
0.999999
0.999998
0.999993
0.999984
0.99997
0.99996
0.999973
1.00003
1.00016
1.00031
1.00044
1.00049
1.00044
1.00031
1.00016
1.00003
0.999973
0.99996
0.99997
0.999983
0.999991
1
1
1
1
1
1
1
1
1
1
1
1
1
1
1
1
1
1
1
0.999999
0.999995
0.999988
0.999974
0.999962
0.999973
1.00005
1.00024
1.00056
1.00091
1.00119
1.0013
1.00119
1.00091
1.00056
1.00024
1.00005
0.999973
0.999962
0.999973
0.999983
1
1
1
1
1
1
1
1
1
1
1
1
1
1
1
1
1
1
0.999999
0.999997
0.999992
0.999982
0.999968
0.999969
1.00003
1.00024
1.00066
1.00127
1.00191
1.00238
1.00254
1.00238
1.00191
1.00127
1.00066
1.00024
1.00003
0.999969
0.999965
0.999974
1
1
1
1
1
1
1
1
1
1
1
1
1
1
1
1
1
1
0.999999
0.999996
0.999989
0.999977
0.999968
1
1.00016
1.00056
1.00127
1.00222
1.00313
1.00373
1.00394
1.00373
1.00313
1.00222
1.00127
1.00056
1.00016
0.999999
0.999964
0.999966
1
1
1
1
1
1
1
1
1
1
1
1
1
1
1
1
1
1
0.999998
0.999995
0.999986
0.999975
0.999977
1.00005
1.00031
1.00091
1.00191
1.00313
1.00419
1.0048
1.00498
1.0048
1.00419
1.00313
1.00191
1.00091
1.00031
1.00005
0.999971
0.999961
1
1
1
1
1
1
1
1
1
1
1
1
1
1
1
1
1
1
0.999998
0.999994
0.999985
0.999975
0.999987
1.0001
1.00044
1.00119
1.00238
1.00373
1.0048
1.00533
1.00545
1.00533
1.0048
1.00373
1.00238
1.00119
1.00044
1.00009
0.999981
0.99996
1
1
1
1
1
1
1
1
1
1
1
1
1
1
1
1
1
1
0.999998
0.999994
0.999985
0.999975
0.999992
1.00011
1.00049
1.0013
1.00254
1.00394
1.00498
1.00545
1.00553
1.00545
1.00498
1.00394
1.00254
1.0013
1.00049
1.00011
0.999985
0.999959
1
1
1
1
1
1
1
1
1
1
1
1
1
1
1
1
1
1
0.999998
0.999994
0.999985
0.999975
0.999987
1.0001
1.00044
1.00119
1.00238
1.00373
1.0048
1.00533
1.00545
1.00533
1.0048
1.00373
1.00238
1.00119
1.00044
1.00009
0.999981
0.99996
1
1
1
1
1
1
1
1
1
1
1
1
1
1
1
1
1
1
0.999998
0.999995
0.999986
0.999975
0.999977
1.00005
1.00031
1.00091
1.00191
1.00313
1.00419
1.0048
1.00498
1.0048
1.00419
1.00313
1.00191
1.00091
1.00031
1.00005
0.999971
0.999961
1
1
1
1
1
1
1
1
1
1
1
1
1
1
1
1
1
1
0.999999
0.999996
0.999989
0.999977
0.999968
1
1.00016
1.00056
1.00127
1.00222
1.00313
1.00373
1.00394
1.00373
1.00313
1.00222
1.00127
1.00056
1.00016
0.999999
0.999964
0.999966
1
1
1
1
1
1
1
1
1
1
1
1
1
1
1
1
1
1
0.999999
0.999997
0.999992
0.999982
0.999968
0.999969
1.00003
1.00024
1.00066
1.00127
1.00191
1.00238
1.00254
1.00238
1.00191
1.00127
1.00066
1.00024
1.00003
0.999969
0.999965
0.999974
1
1
1
1
1
1
1
1
1
1
1
1
1
1
1
1
1
1
1
0.999999
0.999995
0.999988
0.999974
0.999962
0.999973
1.00005
1.00024
1.00056
1.00091
1.00119
1.0013
1.00119
1.00091
1.00056
1.00024
1.00005
0.999973
0.999962
0.999973
0.999983
1
1
1
1
1
1
1
1
1
1
1
1
1
1
1
1
1
1
1
0.999999
0.999998
0.999993
0.999984
0.99997
0.99996
0.999973
1.00003
1.00016
1.00031
1.00044
1.00049
1.00044
1.00031
1.00016
1.00003
0.999973
0.99996
0.99997
0.999983
0.999991
1
1
1
1
1
1
1
1
1
1
1
1
1
1
1
1
1
1
1
1
0.999999
0.999997
0.999992
0.999982
0.99997
0.999962
0.999969
0.999999
1.00005
1.00009
1.00011
1.00009
1.00005
0.999999
0.999969
0.999962
0.99997
0.999982
0.999992
0.999996
1
1
1
1
1
1
1
1
1
1
1
1
1
1
1
1
1
1
1
1
1
0.999999
0.999997
0.999992
0.999983
0.999973
0.999965
0.999964
0.999971
0.999981
0.999985
0.999981
0.999971
0.999964
0.999965
0.999973
0.999983
0.999992
0.999997
0.999999
1
1
1
1
1
1
1
1
1
1
1
1
1
1
1
1
1
1
1
1
1
1
0.999999
0.999996
0.999991
0.999983
0.999974
0.999966
0.999961
0.99996
0.999959
0.99996
0.999961
0.999966
0.999974
0.999983
0.999991
0.999996
0.999999
1
SCALARS C2 double 1
LOOKUP_TABLE default
2
2
2
2
2
1.99999
1.99998
1.99996
1.99994
1.99993
1.99993
1.99993
1.99994
1.99996
1.99998
1.99999
2
2
2
2
2
2
2
2
2
2
2
2
2
2
2
2
2
2
2
2
2
2
2
2
2
2
2
1.99999
1.99998
1.99997
1.99994
1.99991
1.99989
1.99987
1.99987
1.99987
1.99989
1.99991
1.99994
1.99997
1.99998
1.99999
2
2
2
2
2
2
2
2
2
2
2
2
2
2
2
2
2
2
2
2
2
2
2
2
1.99999
1.99998
1.99995
1.99991
1.99986
1.99982
1.99979
1.99979
1.99979
1.99979
1.99979
1.99982
1.99986
1.99991
1.99995
1.99998
1.99999
2
2
2
2
2
2
2
2
2
2
2
2
2
2
2
2
2
2
2
2
2
2
1.99999
1.99998
1.99995
1.99989
1.99982
1.99975
1.99973
1.99977
1.99983
1.99986
1.99983
1.99977
1.99973
1.99975
1.99982
1.99989
1.99995
1.99998
1.99999
2
2
2
2
2
2
2
2
2
2
2
2
2
2
2
2
2
2
2
2
2
1.99998
1.99995
1.99989
1.9998
1.99971
1.99971
1.99985
2.00014
2.00044
2.00056
2.00044
2.00014
1.99985
1.99971
1.99971
1.9998
1.99989
1.99995
1.99998
2
2
2
2
2
2
2
2
2
2
2
2
2
2
2
2
2
2
2
2
1.99999
1.99997
1.99991
1.99982
1.99971
1.99971
1.99996
2.0006
2.00151
2.00234
2.00267
2.00234
2.00151
2.0006
1.99996
1.99971
1.99971
1.99982
1.99991
1.99997
1.99999
2
2
2
2
2
2
2
2
2
2
2
2
2
2
2
2
2
2
2
1.99998
1.99994
1.99986
1.99975
1.99971
1.99996
2.00082
2.00244
2.00449
2.00622
2.00689
2.00622
2.00449
2.00244
2.00082
1.99996
1.99971
1.99975
1.99986
1.99994
1.99998
2
2
2
2
2
2
2
2
2
2
2
2
2
2
2
2
2
2
2
1.99996
1.99991
1.99982
1.99973
1.99985
2.0006
2.00244
2.00549
2.00907
2.01194
2.01303
2.01194
2.00907
2.00549
2.00244
2.0006
1.99985
1.99973
1.99982
1.99991
1.99997
1.99999
2
2
2
2
2
2
2
2
2
2
2
2
2
2
2
2
2
2
1.99994
1.99989
1.99979
1.99977
2.00014
2.00151
2.00449
2.00907
2.01418
2.0181
2.01954
2.0181
2.01418
2.00907
2.00449
2.00151
2.00014
1.99977
1.99979
1.99989
1.99996
1.99999
2
2
2
2
2
2
2
2
2
2
2
2
2
2
2
2
2
2
1.99993
1.99987
1.99979
1.99983
2.00044
2.00234
2.00622
2.01194
2.0181
2.02267
2.0243
2.02267
2.0181
2.01194
2.00622
2.00234
2.00044
1.99983
1.99979
1.99988
1.99995
1.99998
2
2
2
2
2
2
2
2
2
2
2
2
2
2
2
2
2
2
1.99993
1.99987
1.99979
1.99986
2.00056
2.00267
2.00689
2.01303
2.01954
2.0243
2.02599
2.0243
2.01954
2.01303
2.00689
2.00267
2.00056
1.99986
1.99979
1.99987
1.99995
1.99998
2
2
2
2
2
2
2
2
2
2
2
2
2
2
2
2
2
2
1.99993
1.99987
1.99979
1.99983
2.00044
2.00234
2.00622
2.01194
2.0181
2.02267
2.0243
2.02267
2.0181
2.01194
2.00622
2.00234
2.00044
1.99983
1.99979
1.99988
1.99995
1.99998
2
2
2
2
2
2
2
2
2
2
2
2
2
2
2
2
2
2
1.99994
1.99989
1.99979
1.99977
2.00014
2.00151
2.00449
2.00907
2.01418
2.0181
2.01954
2.0181
2.01418
2.00907
2.00449
2.00151
2.00014
1.99977
1.99979
1.99989
1.99996
1.99999
2
2
2
2
2
2
2
2
2
2
2
2
2
2
2
2
2
2
1.99996
1.99991
1.99982
1.99973
1.99985
2.0006
2.00244
2.00549
2.00907
2.01194
2.01303
2.01194
2.00907
2.00549
2.00244
2.0006
1.99985
1.99973
1.99982
1.99991
1.99997
1.99999
2
2
2
2
2
2
2
2
2
2
2
2
2
2
2
2
2
2
1.99998
1.99994
1.99986
1.99975
1.99971
1.99996
2.00082
2.00244
2.00449
2.00622
2.00689
2.00622
2.00449
2.00244
2.00082
1.99996
1.99971
1.99975
1.99986
1.99994
1.99998
2
2
2
2
2
2
2
2
2
2
2
2
2
2
2
2
2
2
2
1.99999
1.99997
1.99991
1.99982
1.99971
1.99971
1.99996
2.0006
2.00151
2.00234
2.00267
2.00234
2.00151
2.0006
1.99996
1.99971
1.99971
1.99982
1.99991
1.99997
1.99999
2
2
2
2
2
2
2
2
2
2
2
2
2
2
2
2
2
2
2
2
1.99998
1.99995
1.99989
1.9998
1.99971
1.99971
1.99985
2.00014
2.00044
2.00056
2.00044
2.00014
1.99985
1.99971
1.99971
1.9998
1.99989
1.99995
1.99998
2
2
2
2
2
2
2
2
2
2
2
2
2
2
2
2
2
2
2
2
2
1.99999
1.99998
1.99995
1.99989
1.99982
1.99975
1.99973
1.99977
1.99983
1.99986
1.99983
1.99977
1.99973
1.99975
1.99982
1.99989
1.99995
1.99998
1.99999
2
2
2
2
2
2
2
2
2
2
2
2
2
2
2
2
2
2
2
2
2
2
1.99999
1.99998
1.99995
1.99991
1.99986
1.99982
1.99979
1.99979
1.99979
1.99979
1.99979
1.99982
1.99986
1.99991
1.99995
1.99998
1.99999
2
2
2
2
2
2
2
2
2
2
2
2
2
2
2
2
2
2
2
2
2
2
2
2
1.99999
1.99998
1.99997
1.99994
1.99991
1.99989
1.99988
1.99987
1.99988
1.99989
1.99991
1.99994
1.99997
1.99998
1.99999
2
2
2
2
2
2
2
2
2
2
2
2.00001
2.00001
2.00001
2
2
2
2
2
2
2
2
2
2
2
2
2
1.99999
1.99998
1.99997
1.99996
1.99995
1.99995
1.99995
1.99996
1.99997
1.99998
1.99999
2
2
2
2
2
2
2
2
2
2
2.00001
2.00001
2.00002
2.00002
2.00002
2.00002
2.00002
2.00001
2.00001
2
2
2
2
2
2
2
2
2
2
2
2
1.99999
1.99999
1.99998
1.99998
1.99998
1.99999
1.99999
2
2
2
2
2
2
2
2
2
2
2.00001
2.00001
2.00002
2.00004
2.00005
2.00005
2.00006
2.00005
2.00005
2.00004
2.00002
2.00001
2.00001
2
2
2
2
2
2
2
2
2
2
2
2
2
2
2
2
2
2
2
2
2
2
2
2
2
2
2.00001
2.00002
2.00004
2.00006
2.00008
2.0001
2.00011
2.00011
2.00011
2.0001
2.00008
2.00006
2.00004
2.00002
2.00001
2
2
2
2
2
2
2
2
2
2
2
2
2
2
2
2
2
2
2
2
2
2
2
2
2.00001
2.00002
2.00004
2.00008
2.00012
2.00015
2.00015
2.00014
2.00014
2.00014
2.00015
2.00015
2.00012
2.00008
2.00004
2.00002
2.00001
2
2
2
2
2
2
2
2
2
2
2
2
2
2
2
2
2
2
2
2
2
2
2.00001
2.00002
2.00004
2.00009
2.00014
2.00018
2.00016
2.00009
2
1.99996
2
2.00009
2.00016
2.00018
2.00014
2.00009
2.00004
2.00002
2.00001
2
2
2
2
2
2
2
2
2
2
2
2
2
2
2
2
2
2
2
2
2
2.00001
2.00004
2.00008
2.00014
2.00019
2.00015
1.99997
1.99966
1.99936
1.99923
1.99936
1.99966
1.99997
2.00015
2.00019
2.00014
2.00008
2.00004
2.00002
2
2
2
2
2
2
2
2
2
2
2
2
2
2
2
2
2
2
2
2
2.00001
2.00002
2.00006
2.00012
2.00018
2.00015
1.99991
1.99935
1.99856
1.99785
1.99756
1.99785
1.99856
1.99935
1.99991
2.00015
2.00018
2.00012
2.00006
2.00003
2
2
2
2
2
2
2
2
2
2
2
2
2
2
2
2
2
2
2
2
2.00001
2.00004
2.00008
2.00015
2.00016
1.99997
1.99935
1.99817
1.99667
1.99538
1.99487
1.99538
1.99667
1.99817
1.99935
1.99997
2.00016
2.00015
2.00009
2.00005
2
2
2
2
2
2
2
2
2
2
2
2
2
2
2
2
2
2
2
2
2.00002
2.00005
2.0001
2.00015
2.00009
1.99966
1.99856
1.99667
1.99436
1.99246
1.99174
1.99246
1.99436
1.99667
1.99856
1.99966
2.00009
2.00015
2.00011
2.00006
2
2
2
2
2
2
2
2
2
2
2
2
2
2
2
2
2
2
2
2.00001
2.00002
2.00005
2.00011
2.00014
2
1.99936
1.99785
1.99538
1.99246
1.99013
1.98925
1.99013
1.99246
1.99538
1.99785
1.99936
2
2.00014
2.00012
2.00008
2
2
2
2
2
2
2
2
2
2
2
2
2
2
2
2
2
2
2
2.00001
2.00002
2.00006
2.00011
2.00014
1.99996
1.99923
1.99756
1.99487
1.99174
1.98925
1.98832
1.98925
1.99174
1.99487
1.99756
1.99923
1.99996
2.00014
2.00012
2.00008
2
2
2
2
2
2
2
2
2
2
2
2
2
2
2
2
2
2
2
2.00001
2.00002
2.00005
2.00011
2.00014
2
1.99936
1.99785
1.99538
1.99246
1.99013
1.98925
1.99013
1.99246
1.99538
1.99785
1.99936
2
2.00014
2.00012
2.00008
2
2
2
2
2
2
2
2
2
2
2
2
2
2
2
2
2
2
2
2
2.00002
2.00005
2.0001
2.00015
2.00009
1.99966
1.99856
1.99667
1.99436
1.99246
1.99174
1.99246
1.99436
1.99667
1.99856
1.99966
2.00009
2.00015
2.00011
2.00006
2
2
2
2
2
2
2
2
2
2
2
2
2
2
2
2
2
2
2
2
2.00001
2.00004
2.00008
2.00015
2.00016
1.99997
1.99935
1.99817
1.99667
1.99538
1.99487
1.99538
1.99667
1.99817
1.99935
1.99997
2.00016
2.00015
2.00009
2.00005
2
2
2
2
2
2
2
2
2
2
2
2
2
2
2
2
2
2
2
2
2.00001
2.00002
2.00006
2.00012
2.00018
2.00015
1.99991
1.99935
1.99856
1.99785
1.99756
1.99785
1.99856
1.99935
1.99991
2.00015
2.00018
2.00012
2.00006
2.00003
2
2
2
2
2
2
2
2
2
2
2
2
2
2
2
2
2
2
2
2
2
2.00001
2.00004
2.00008
2.00014
2.00019
2.00015
1.99997
1.99966
1.99936
1.99923
1.99936
1.99966
1.99997
2.00015
2.00019
2.00014
2.00008
2.00004
2.00002
2
2
2
2
2
2
2
2
2
2
2
2
2
2
2
2
2
2
2
2
2
2.00001
2.00002
2.00004
2.00009
2.00014
2.00018
2.00016
2.00009
2
1.99996
2
2.00009
2.00016
2.00018
2.00014
2.00009
2.00004
2.00002
2.00001
2
2
2
2
2
2
2
2
2
2
2
2
2
2
2
2
2
2
2
2
2
2
2.00001
2.00002
2.00004
2.00008
2.00012
2.00015
2.00015
2.00014
2.00014
2.00014
2.00015
2.00015
2.00012
2.00008
2.00004
2.00002
2.00001
2
2
2
2
2
2
2
2
2
2
2
2
2
2
2
2
2
2
2
2
2
2
2
2
2.00001
2.00002
2.00004
2.00006
2.00009
2.00011
2.00012
2.00012
2.00012
2.00011
2.00009
2.00006
2.00004
2.00002
2.00001
2
2
2
2
2
2
2
2
2
2
2
2
2
2
2
2
2
2
2
2
2
2
2
2
2
2
2.00001
2.00002
2.00003
2.00005
2.00006
2.00008
2.00008
2.00008
2.00006
2.00005
2.00003
2.00002
2.00001
2
2
2
