# vtk DataFile Version 3.0
Brusselator Concentration Output
ASCII
DATASET STRUCTURED_POINTS
DIMENSIONS 40 40 1
ORIGIN 0.0 0.0 0.0
SPACING 0.005 0.005 1.0
POINT_DATA 1600
SCALARS C1 double 1
LOOKUP_TABLE default
1
1
1
1.00001
1.00001
1.00002
1.00002
1.00003
1.00003
1.00003
1.00002
1.00003
1.00003
1.00003
1.00002
1.00002
1.00001
1.00001
1
1
1
1
1
1
1
1
1
1
1
1
1
1
1
1
1
1
1
1
1
1
1
1
1.00001
1.00001
1.00002
1.00002
1.00002
1.00001
0.999995
0.999979
0.999972
0.999979
0.999995
1.00001
1.00002
1.00002
1.00002
1.00001
1.00001
1
1
1
1
1
1
1
1
1
1
1
1
1
1
1
1
1
1
1
1
1
1
1.00001
1.00001
1.00002
1.00003
1.00002
0.999987
0.999929
0.999857
0.999798
0.999775
0.999798
0.999857
0.999929
0.999987
1.00002
1.00003
1.00002
1.00001
1.00001
1
1
1
1
1
1
1
1
1
1
1
1
1
1
1
1
1
1
1
1
1.00001
1.00001
1.00002
1.00003
1.00002
0.99996
0.999839
0.999659
0.999463
0.999314
0.999259
0.999314
0.999463
0.999659
0.999839
0.99996
1.00002
1.00003
1.00002
1.00001
1
1
1
1
1
1
1
1
1
1
1
1
1
1
1
1
1
1
1
1
1.00001
1.00002
1.00003
1.00002
0.999947
0.999771
0.999459
0.99905
0.998648
0.998365
0.998266
0.998365
0.998648
0.99905
0.999459
0.999771
0.999947
1.00002
1.00003
1.00002
1.00001
1
1
1
1
1
1
1
1
1
1
1
1
1
1
1
1
1
1
1
1.00002
1.00002
1.00002
0.99996
0.999771
0.999374
0.998757
0.998036
0.997408
0.99702
0.996895
0.99702
0.997408
0.998036
0.998757
0.999374
0.999771
0.99996
1.00002
1.00002
1.00001
1.00001
1
1
1
1
1
1
1
1
1
1
1
1
1
1
1
1
1
1
1.00002
1.00002
0.999987
0.999839
0.999459
0.998757
0.997786
0.996801
0.996105
0.995794
0.995725
0.995794
0.996105
0.996801
0.997786
0.998757
0.999459
0.999839
0.999987
1.00002
1.00002
1.00001
1
1
1
1
1
1
1
1
1
1
1
1
1
1
1
1
1
1
1.00003
1.00001
0.999929
0.999659
0.99905
0.998036
0.996801
0.995792
0.995387
0.99549
0.995616
0.99549
0.995387
0.995792
0.996801
0.998036
0.99905
0.999658
0.999928
1.00001
1.00002
1.00001
1
1
1
1
1
1
1
1
1
1
1
1
1
1
1
1
1
1
1.00003
0.999995
0.999857
0.999463
0.998648
0.997408
0.996105
0.995387
0.995647
0.996472
0.996913
0.996472
0.995647
0.995387
0.996105
0.997408
0.998648
0.999463
0.999855
0.99999
1.00002
1.00001
1.00001
1
1
1
1
1
1
1
1
1
1
1
1
1
1
1
1
1
1.00003
0.999979
0.999798
0.999314
0.998365
0.99702
0.995794
0.99549
0.996472
0.998022
0.998769
0.998022
0.996472
0.99549
0.995794
0.99702
0.998365
0.999313
0.999796
0.999973
1.00001
1.00001
1.00001
1
1
1
1
1
1
1
1
1
1
1
1
1
1
1
1
1
1.00002
0.999972
0.999775
0.999259
0.998266
0.996895
0.995725
0.995616
0.996913
0.998769
0.999643
0.998769
0.996913
0.995616
0.995725
0.996895
0.998266
0.999258
0.999773
0.999966
1.00001
1.00001
1.00001
1
1
1
1
1
1
1
1
1
1
1
1
1
1
1
1
1
1.00003
0.999979
0.999798
0.999314
0.998365
0.99702
0.995794
0.99549
0.996472
0.998022
0.998769
0.998022
0.996472
0.99549
0.995794
0.99702
0.998365
0.999313
0.999796
0.999973
1.00001
1.00001
1.00001
1
1
1
1
1
1
1
1
1
1
1
1
1
1
1
1
1
1.00003
0.999995
0.999857
0.999463
0.998648
0.997408
0.996105
0.995387
0.995647
0.996472
0.996913
0.996472
0.995647
0.995387
0.996105
0.997408
0.998648
0.999463
0.999855
0.99999
1.00002
1.00001
1.00001
1
1
1
1
1
1
1
1
1
1
1
1
1
1
1
1
1
1.00003
1.00001
0.999929
0.999659
0.99905
0.998036
0.996801
0.995792
0.995387
0.99549
0.995616
0.99549
0.995387
0.995792
0.996801
0.998036
0.99905
0.999658
0.999928
1.00001
1.00002
1.00001
1
1
1
1
1
1
1
1
1
1
1
1
1
1
1
1
1
1
1.00002
1.00002
0.999987
0.999839
0.999459
0.998757
0.997786
0.996801
0.996105
0.995794
0.995725
0.995794
0.996105
0.996801
0.997786
0.998757
0.999459
0.999839
0.999987
1.00002
1.00002
1.00001
1
1
1
1
1
1
1
1
1
1
1
1
1
1
1
1
1
1
1.00002
1.00002
1.00002
0.99996
0.999771
0.999374
0.998757
0.998036
0.997408
0.99702
0.996895
0.99702
0.997408
0.998036
0.998757
0.999374
0.999771
0.99996
1.00002
1.00002
1.00001
1.00001
1
1
1
1
1
1
1
1
1
1
1
1
1
1
1
1
1
1
1.00001
1.00002
1.00003
1.00002
0.999947
0.999771
0.999459
0.99905
0.998648
0.998365
0.998266
0.998365
0.998648
0.99905
0.999459
0.999771
0.999947
1.00002
1.00003
1.00002
1.00001
1
1
1
1
1
1
1
1
1
1
1
1
1
1
1
1
1
1
1
1.00001
1.00001
1.00002
1.00003
1.00002
0.99996
0.999839
0.999658
0.999463
0.999313
0.999258
0.999313
0.999463
0.999658
0.999839
0.99996
1.00002
1.00003
1.00002
1.00001
1
1
1
1
1
1
1
1
0.999999
0.999999
0.999999
0.999999
0.999999
1
1
1
1
1
1
1
1
1.00001
1.00001
1.00002
1.00003
1.00002
0.999987
0.999928
0.999855
0.999796
0.999773
0.999796
0.999855
0.999928
0.999987
1.00002
1.00003
1.00002
1.00001
1.00001
1
1
1
1
1
0.999999
0.999999
0.999998
0.999998
0.999998
0.999997
0.999998
0.999998
0.999998
0.999999
0.999999
1
1
1
1
1
1
1.00001
1.00001
1.00002
1.00002
1.00002
1.00001
0.99999
0.999973
0.999966
0.999973
0.99999
1.00001
1.00002
1.00002
1.00002
1.00001
1.00001
1
1
1
1
0.999999
0.999999
0.999998
0.999997
0.999995
0.999995
0.999994
0.999994
0.999994
0.999995
0.999995
0.999997
0.999998
0.999999
0.999999
1
1
1
1
1
1
1.00001
1.00001
1.00002
1.00002
1.00002
1.00001
1.00001
1.00001
1.00002
1.00002
1.00002
1.00001
1.00001
1
1
1
1
1
0.999999
0.999998
0.999997
0.999994
0.999992
0.999991
0.999991
0.999991
0.999991
0.999991
0.999991
0.999991
0.999992
0.999994
0.999997
0.999998
0.999999
1
1
1
1
1
1
1.00001
1.00001
1.00001
1.00001
1.00001
1.00001
1.00001
1.00001
1.00001
1.00001
1.00001
1
1
1
1
1
0.999999
0.999998
0.999996
0.999992
0.999989
0.999988
0.99999
0.999995
1
1
1
0.999995
0.99999
0.999988
0.999989
0.999992
0.999996
0.999998
0.999999
1
1
1
1
1
1
1
1
1.00001
1.00001
1.00001
1.00001
1.00001
1
1
1
1
1
1
1
0.999999
0.999998
0.999995
0.999991
0.999987
0.999986
0.999994
1.00001
1.00004
1.00006
1.00007
1.00006
1.00004
1.00001
0.999994
0.999986
0.999987
0.999991
0.999995
0.999997
1
1
1
1
1
1
1
1
1
1
1
1
1
1
1
1
1
1
1
0.999999
0.999998
0.999996
0.999991
0.999986
0.999986
1
1.00004
1.00011
1.00019
1.00025
1.00027
1.00025
1.00019
1.00011
1.00004
1
0.999986
0.999986
0.999991
0.999994
1
1
1
1
1
1
1
1
1
1
1
1
1
1
1
1
1
1
1
0.999999
0.999997
0.999992
0.999987
0.999986
1
1.00006
1.00018
1.00035
1.00053
1.00066
1.00071
1.00066
1.00053
1.00035
1.00018
1.00006
1
0.999985
0.999986
0.999989
1
1
1
1
1
1
1
1
1
1
1
1
1
1
1
1
1
1
0.999999
0.999998
0.999994
0.999989
0.999986
1
1.00006
1.00021
1.00047
1.0008
1.00112
1.00134
1.00141
1.00134
1.00112
1.0008
1.00047
1.00021
1.00006
1
0.999984
0.999983
1
1
1
1
1
1
1
1
1
1
1
1
1
1
1
1
1
1
0.999999
0.999997
0.999992
0.999988
0.999994
1.00004
1.00018
1.00047
1.00092
1.00143
1.00187
1.00213
1.0022
1.00213
1.00187
1.00143
1.00092
1.00047
1.00018
1.00004
0.99999
0.99998
1
1
1
1
1
1
1
1
1
1
1
1
1
1
1
1
1
1
0.999998
0.999995
0.999991
0.99999
1.00001
1.00011
1.00035
1.0008
1.00143
1.00207
1.00251
1.00268
1.00271
1.00268
1.00251
1.00207
1.00143
1.0008
1.00035
1.00011
1.00001
0.999981
1
1
1
1
1
1
1
1
1
1
1
1
1
1
1
1
1
0.999999
0.999998
0.999995
0.999991
0.999995
1.00004
1.00019
1.00053
1.00112
1.00187
1.00251
1.00278
1.00273
1.00265
1.00273
1.00278
1.00251
1.00187
1.00112
1.00053
1.00018
1.00003
0.999985
1
1
1
1
1
1
1
1
1
1
1
1
1
1
1
1
1
0.999999
0.999998
0.999994
0.999991
1
1.00006
1.00025
1.00066
1.00134
1.00213
1.00268
1.00273
1.00241
1.00222
1.00241
1.00273
1.00268
1.00213
1.00134
1.00066
1.00025
1.00005
0.999991
1
1
1
1
1
1
1
1
1
1
1
1
1
1
1
1
1
0.999999
0.999997
0.999994
0.999991
1
1.00007
1.00027
1.00071
1.00141
1.0022
1.00271
1.00265
1.00222
1.00197
1.00222
1.00265
1.00271
1.0022
1.00141
1.00071
1.00027
1.00006
0.999994
1
1
1
1
1
1
1
1
1
1
1
1
1
1
1
1
1
0.999999
0.999998
0.999994
0.999991
1
1.00006
1.00025
1.00066
1.00134
1.00213
1.00268
1.00273
1.00241
1.00222
1.00241
1.00273
1.00268
1.00213
1.00134
1.00066
1.00025
1.00005
0.999991
1
1
1
1
1
1
1
1
1
1
1
1
1
1
1
1
1
0.999999
0.999998
0.999995
0.999991
0.999995
1.00004
1.00019
1.00053
1.00112
1.00187
1.00251
1.00278
1.00273
1.00265
1.00273
1.00278
1.00251
1.00187
1.00112
1.00053
1.00018
1.00003
0.999985
1
1
1
1
1
1
1
1
1
1
1
1
1
1
1
1
1
1
0.999998
0.999995
0.999991
0.99999
1.00001
1.00011
1.00035
1.0008
1.00143
1.00207
1.00251
1.00268
1.00271
1.00268
1.00251
1.00207
1.00143
1.0008
1.00035
1.00011
1.00001
0.999981
1
1
1
1
1
1
1
1
1
1
1
1
1
1
1
1
1
1
0.999999
0.999997
0.999992
0.999988
0.999994
1.00004
1.00018
1.00047
1.00092
1.00143
1.00187
1.00213
1.0022
1.00213
1.00187
1.00143
1.00092
1.00047
1.00018
1.00004
0.99999
0.99998
1
1
1
1
1
1
1
1
1
1
1
1
1
1
1
1
1
1
0.999999
0.999998
0.999994
0.999989
0.999986
1
1.00006
1.00021
1.00047
1.0008
1.00112
1.00134
1.00141
1.00134
1.00112
1.0008
1.00047
1.00021
1.00006
1
0.999984
0.999983
1
1
1
1
1
1
1
1
1
1
1
1
1
1
1
1
1
1
1
0.999999
0.999997
0.999992
0.999987
0.999986
1
1.00006
1.00018
1.00035
1.00053
1.00066
1.00071
1.00066
1.00053
1.00035
1.00018
1.00006
1
0.999985
0.999986
0.999989
1
1
1
1
1
1
1
1
1
1
1
1
1
1
1
1
1
1
1
0.999999
0.999998
0.999996
0.999991
0.999986
0.999985
1
1.00004
1.00011
1.00018
1.00025
1.00027
1.00025
1.00018
1.00011
1.00004
1
0.999985
0.999986
0.999991
0.999994
1
1
1
1
1
1
1
1
1
1
1
1
1
1
1
1
1
1
1
1
0.999999
0.999998
0.999995
0.999991
0.999986
0.999984
0.99999
1.00001
1.00003
1.00005
1.00006
1.00005
1.00003
1.00001
0.99999
0.999984
0.999986
0.999991
0.999995
0.999997
1
1
1
1
1
1
1
1
1
1
1
1
1
1
1
1
1
1
1
1
1
0.999999
0.999997
0.999994
0.999989
0.999983
0.99998
0.999981
0.999985
0.999991
0.999994
0.999991
0.999985
0.999981
0.99998
0.999983
0.999989
0.999994
0.999997
0.999999
SCALARS C2 double 1
LOOKUP_TABLE default
2
2
2
2
1.99999
1.99998
1.99996
1.99995
1.99994
1.99993
1.99993
1.99993
1.99994
1.99995
1.99996
1.99998
1.99999
2
2
2
2
2
2
2
2
2
2
2
2
2
2
2
2
2
2
2
2
2
2
2
2
2
2
1.99999
1.99998
1.99996
1.99994
1.99992
1.99991
1.99991
1.99991
1.99991
1.99991
1.99992
1.99994
1.99996
1.99998
1.99999
2
2
2
2
2
2
2
2
2
2
2
2
2
2
2
2
2
2
2
2
2
2
2
2
1.99999
1.99997
1.99995
1.99992
1.9999
1.9999
1.99993
1.99997
1.99999
1.99997
1.99993
1.9999
1.9999
1.99992
1.99995
1.99997
1.99999
2
2
2
2
2
2
2
2
2
2
2
2
2
2
2
2
2
2
2
2
2
2
1.99999
1.99997
1.99994
1.9999
1.99988
1.99991
2.00002
2.00019
2.00034
2.0004
2.00034
2.00019
2.00002
1.99991
1.99988
1.9999
1.99994
1.99997
1.99999
2
2
2
2
2
2
2
2
2
2
2
2
2
2
2
2
2
2
2
2
1.99999
1.99998
1.99995
1.9999
1.99988
1.99993
2.00014
2.00054
2.00105
2.00147
2.00163
2.00147
2.00105
2.00054
2.00014
1.99993
1.99988
1.9999
1.99995
1.99998
1.99999
2
2
2
2
2
2
2
2
2
2
2
2
2
2
2
2
2
2
2
1.99998
1.99996
1.99992
1.99988
1.99993
2.0002
2.00083
2.00183
2.00297
2.00386
2.0042
2.00386
2.00297
2.00183
2.00083
2.0002
1.99993
1.99988
1.99992
1.99996
1.99998
1.99999
2
2
2
2
2
2
2
2
2
2
2
2
2
2
2
2
2
2
1.99996
1.99994
1.9999
1.99991
2.00014
2.00083
2.00218
2.0041
2.00613
2.00764
2.00818
2.00764
2.00613
2.0041
2.00218
2.00083
2.00014
1.99991
1.9999
1.99994
1.99997
1.99999
2
2
2
2
2
2
2
2
2
2
2
2
2
2
2
2
2
2
1.99995
1.99992
1.9999
2.00002
2.00054
2.00183
2.0041
2.0071
2.01005
2.01208
2.01278
2.01208
2.01005
2.0071
2.0041
2.00183
2.00054
2.00002
1.9999
1.99993
1.99996
1.99999
2
2
2
2
2
2
2
2
2
2
2
2
2
2
2
2
2
2
1.99994
1.99991
1.99993
2.00019
2.00105
2.00297
2.00613
2.01005
2.01361
2.01585
2.01657
2.01585
2.01361
2.01005
2.00613
2.00297
2.00105
2.00019
1.99994
1.99992
1.99996
1.99998
1.99999
2
2
2
2
2
2
2
2
2
2
2
2
2
2
2
2
2
1.99993
1.99991
1.99997
2.00034
2.00147
2.00386
2.00764
2.01208
2.01585
2.01801
2.01863
2.01801
2.01585
2.01208
2.00764
2.00386
2.00147
2.00034
1.99997
1.99992
1.99995
1.99998
1.99999
2
2
2
2
2
2
2
2
2
2
2
2
2
2
2
2
2
1.99993
1.99991
1.99999
2.0004
2.00163
2.0042
2.00818
2.01278
2.01657
2.01863
2.01918
2.01863
2.01657
2.01278
2.00818
2.0042
2.00163
2.0004
1.99999
1.99992
1.99995
1.99998
1.99999
2
2
2
2
2
2
2
2
2
2
2
2
2
2
2
2
2
1.99993
1.99991
1.99997
2.00034
2.00147
2.00386
2.00764
2.01208
2.01585
2.01801
2.01863
2.01801
2.01585
2.01208
2.00764
2.00386
2.00147
2.00034
1.99997
1.99992
1.99995
1.99998
1.99999
2
2
2
2
2
2
2
2
2
2
2
2
2
2
2
2
2
1.99994
1.99991
1.99993
2.00019
2.00105
2.00297
2.00613
2.01005
2.01361
2.01585
2.01657
2.01585
2.01361
2.01005
2.00613
2.00297
2.00105
2.00019
1.99994
1.99992
1.99996
1.99998
1.99999
2
2
2
2
2
2
2
2
2
2
2
2
2
2
2
2
2
1.99995
1.99992
1.9999
2.00002
2.00054
2.00183
2.0041
2.0071
2.01005
2.01208
2.01278
2.01208
2.01005
2.0071
2.0041
2.00183
2.00054
2.00002
1.9999
1.99993
1.99996
1.99999
2
2
2
2
2
2
2
2
2
2
2
2
2
2
2
2
2
2
1.99996
1.99994
1.9999
1.99991
2.00014
2.00083
2.00218
2.0041
2.00613
2.00764
2.00818
2.00764
2.00613
2.0041
2.00218
2.00083
2.00014
1.99991
1.9999
1.99994
1.99997
1.99999
2
2
2
2
2
2
2
2
2
2
2
2
2
2
2
2
2
2
1.99998
1.99996
1.99992
1.99988
1.99993
2.0002
2.00083
2.00183
2.00297
2.00386
2.0042
2.00386
2.00297
2.00183
2.00083
2.0002
1.99993
1.99988
1.99992
1.99996
1.99998
1.99999
2
2
2
2
2
2
2
2
2
2
2
2
2
2
2
2
2
2
1.99999
1.99998
1.99995
1.9999
1.99988
1.99993
2.00014
2.00054
2.00105
2.00147
2.00163
2.00147
2.00105
2.00054
2.00014
1.99993
1.99988
1.9999
1.99995
1.99998
1.99999
2
2
2
2
2
2
2
2
2
2
2
2
2
2
2
2
2
2
2
2
1.99999
1.99997
1.99994
1.9999
1.99988
1.99991
2.00002
2.00019
2.00034
2.0004
2.00034
2.00019
2.00002
1.99991
1.99988
1.9999
1.99994
1.99997
1.99999
2
2
2
2
2
2
2
2
2
2
2
2
2
2
2
2
2
2
2
2
2
2
1.99999
1.99997
1.99995
1.99992
1.9999
1.9999
1.99994
1.99997
1.99999
1.99997
1.99994
1.9999
1.9999
1.99992
1.99995
1.99997
1.99999
2
2
2
2
2
2
2
2
2
2
2
2
2
2
2
2
2
2
2
2
2
2
2
2
1.99999
1.99998
1.99996
1.99994
1.99993
1.99992
1.99992
1.99992
1.99992
1.99992
1.99993
1.99994
1.99996
1.99998
1.99999
2
2
2
2
2
2
2
2
2
2.00001
2.00001
2.00001
2.00001
2.00001
2.00001
2.00001
2
2
2
2
2
2
2
2
2
2
1.99999
1.99998
1.99997
1.99996
1.99996
1.99995
1.99995
1.99995
1.99996
1.99996
1.99997
1.99998
1.99999
2
2
2
2
2
2
2
2
2.00001
2.00001
2.00002
2.00002
2.00002
2.00002
2.00002
2.00002
2.00002
2.00001
2.00001
2
2
2
2
2
2
2
2
2
1.99999
1.99999
1.99999
1.99998
1.99998
1.99998
1.99998
1.99998
1.99999
1.99999
1.99999
2
2
2
2
2
2
2
2
2.00001
2.00002
2.00003
2.00004
2.00004
2.00004
2.00004
2.00004
2.00004
2.00004
2.00003
2.00002
2.00001
2
2
2
2
2
2
2
2
2
2
2
1.99999
1.99999
1.99999
1.99999
1.99999
2
2
2
2
2
2
2
2
2
2
2.00001
2.00002
2.00004
2.00005
2.00006
2.00005
2.00005
2.00004
2.00005
2.00005
2.00006
2.00005
2.00004
2.00002
2.00001
2
2
2
2
2
2
2
2
2
2
2
2
2
2
2
2
2
2
2
2
2
2
2
2
2.00001
2.00003
2.00004
2.00006
2.00007
2.00004
1.99999
1.99994
1.99992
1.99994
1.99999
2.00004
2.00007
2.00006
2.00004
2.00003
2.00001
2.00001
2
2
2
2
2
2
2
2
2
2
2
2
2
2
2
2
2
2
2
2
2
2.00001
2.00002
2.00004
2.00007
2.00007
2.00001
1.99988
1.9997
1.99954
1.99947
1.99954
1.9997
1.99988
2.00001
2.00007
2.00007
2.00004
2.00002
2.00001
2
2
2
2
2
2
2
2
2
2
2
2
2
2
2
2
2
2
2
2
2.00001
2.00002
2.00004
2.00006
2.00007
2
1.99979
1.99942
1.99896
1.99858
1.99843
1.99858
1.99896
1.99942
1.99979
2
2.00007
2.00006
2.00004
2.00002
2
2
2
2
2
2
2
2
2
2
2
2
2
2
2
2
2
2
2
2
2.00001
2.00003
2.00005
2.00007
2.00001
1.99979
1.99929
1.9985
1.9976
1.99688
1.99662
1.99688
1.9976
1.9985
1.99929
1.99979
2.00001
2.00007
2.00005
2.00004
2
2
2
2
2
2
2
2
2
2
2
2
2
2
2
2
2
2
2
2.00001
2.00002
2.00004
2.00006
2.00004
1.99988
1.99942
1.9985
1.99716
1.99573
1.99466
1.99427
1.99466
1.99573
1.99716
1.9985
1.99942
1.99988
2.00004
2.00006
2.00005
2
2
2
2
2
2
2
2
2
2
2
2
2
2
2
2
2
2
2
2.00001
2.00002
2.00004
2.00005
1.99999
1.9997
1.99896
1.9976
1.99573
1.99385
1.99251
1.99205
1.99251
1.99385
1.99573
1.9976
1.99896
1.9997
1.99999
2.00006
2.00006
2
2
2
2
2
2
2
2
2
2
2
2
2
2
2
2
2
2
2
2.00001
2.00002
2.00004
2.00005
1.99994
1.99954
1.99858
1.99688
1.99466
1.99251
1.99107
1.99058
1.99107
1.99251
1.99466
1.99688
1.99858
1.99954
1.99994
2.00005
2.00007
2
2
2
2
2
2
2
2
2
2
2
2
2
2
2
2
2
2
2
2.00001
2.00002
2.00004
2.00004
1.99992
1.99947
1.99843
1.99662
1.99427
1.99205
1.99058
1.9901
1.99058
1.99205
1.99427
1.99662
1.99843
1.99948
1.99992
2.00005
2.00007
2
2
2
2
2
2
2
2
2
2
2
2
2
2
2
2
2
2
2
2.00001
2.00002
2.00004
2.00005
1.99994
1.99954
1.99858
1.99688
1.99466
1.99251
1.99107
1.99058
1.99107
1.99251
1.99466
1.99688
1.99858
1.99954
1.99994
2.00005
2.00007
2
2
2
2
2
2
2
2
2
2
2
2
2
2
2
2
2
2
2
2.00001
2.00002
2.00004
2.00005
1.99999
1.9997
1.99896
1.9976
1.99573
1.99385
1.99251
1.99205
1.99251
1.99385
1.99573
1.9976
1.99896
1.9997
1.99999
2.00006
2.00006
2
2
2
2
2
2
2
2
2
2
2
2
2
2
2
2
2
2
2
2.00001
2.00002
2.00004
2.00006
2.00004
1.99988
1.99942
1.9985
1.99716
1.99573
1.99466
1.99427
1.99466
1.99573
1.99716
1.9985
1.99942
1.99988
2.00004
2.00006
2.00005
2
2
2
2
2
2
2
2
2
2
2
2
2
2
2
2
2
2
2
2
2.00001
2.00003
2.00005
2.00007
2.00001
1.99979
1.99929
1.9985
1.9976
1.99688
1.99662
1.99688
1.9976
1.9985
1.99929
1.99979
2.00001
2.00007
2.00005
2.00004
2
2
2
2
2
2
2
2
2
2
2
2
2
2
2
2
2
2
2
2
2.00001
2.00002
2.00004
2.00006
2.00007
2
1.99979
1.99942
1.99896
1.99858
1.99843
1.99858
1.99896
1.99942
1.99979
2
2.00007
2.00006
2.00004
2.00002
2
2
2
2
2
2
2
2
2
2
2
2
2
2
2
2
2
2
2
2
2
2.00001
2.00002
2.00004
2.00007
2.00007
2.00001
1.99988
1.9997
1.99954
1.99948
1.99954
1.9997
1.99988
2.00001
2.00007
2.00007
2.00004
2.00002
2.00001
2
2
2
2
2
2
2
2
2
2
2
2
2
2
2
2
2
2
2
2
2
2
2.00001
2.00003
2.00004
2.00006
2.00007
2.00004
1.99999
1.99994
1.99992
1.99994
1.99999
2.00004
2.00007
2.00006
2.00004
2.00002
2.00001
2.00001
2
2
2
2
2
2
2
2
2
2
2
2
2
2
2
2
2
2
2
2
2
2
2
2.00001
2.00002
2.00004
2.00005
2.00006
2.00006
2.00005
2.00005
2.00005
2.00006
2.00006
2.00005
2.00004
2.00002
2.00001
2
2
2
2
2
2
2
2
2
2
2
2
2
2
2
2
2
2
2
2
2
2
2
2
2
2.00001
2.00001
2.00002
2.00004
2.00005
2.00006
2.00007
2.00007
2.00007
2.00006
2.00005
2.00004
2.00002
2.00001
2.00001
2
2
