# vtk DataFile Version 3.0
Brusselator Concentration Output
ASCII
DATASET STRUCTURED_POINTS
DIMENSIONS 40 40 1
ORIGIN 0.0 0.0 0.0
SPACING 0.005 0.005 1.0
POINT_DATA 1600
SCALARS C1 double 1
LOOKUP_TABLE default
1
1
1
0.999999
0.999998
0.999995
0.999993
0.999991
0.999991
0.999991
0.999992
0.999991
0.999991
0.999991
0.999993
0.999995
0.999998
0.999999
1
1
1
1
1
1
1
1
1
1
1
1
1
1
1
1
1
1
1
1
1
1
1
1
0.999999
0.999998
0.999995
0.999992
0.999991
0.999993
1
1.00001
1.00001
1.00001
1
0.999993
0.999991
0.999992
0.999995
0.999998
0.999999
1
1
1
1
1
1
1
1
1
1
1
1
1
1
1
1
1
1
1
1
1
1
0.999999
0.999997
0.999994
0.999991
0.99999
0.999999
1.00002
1.00006
1.00009
1.00011
1.00009
1.00006
1.00002
0.999999
0.99999
0.999991
0.999994
0.999997
0.999999
1
1
1
1
1
1
1
1
1
1
1
1
1
1
1
1
1
1
1
1
0.999999
0.999998
0.999994
0.99999
0.999989
1.00001
1.00006
1.00016
1.00028
1.00038
1.00042
1.00038
1.00028
1.00016
1.00006
1.00001
0.999989
0.99999
0.999994
0.999998
0.999999
1
1
1
1
1
1
1
1
1
1
1
1
1
1
1
1
1
1
1
0.999998
0.999995
0.999991
0.999989
1.00001
1.00009
1.00026
1.00054
1.00085
1.00108
1.00116
1.00108
1.00085
1.00054
1.00026
1.00009
1.00001
0.999989
0.999991
0.999995
0.999998
0.999999
1
1
1
1
1
1
1
1
1
1
1
1
1
1
1
1
1
1
0.999995
0.999992
0.99999
1.00001
1.00009
1.00031
1.00074
1.00133
1.0019
1.00226
1.00236
1.00226
1.0019
1.00133
1.00074
1.00031
1.00009
1.00001
0.99999
0.999992
0.999997
0.999999
1
1
1
1
1
1
1
1
1
1
1
1
1
1
1
1
1
1
0.999993
0.999991
0.999999
1.00006
1.00026
1.00074
1.00154
1.00248
1.00316
1.00338
1.00338
1.00338
1.00316
1.00248
1.00154
1.00074
1.00026
1.00006
0.999999
0.999991
0.999995
0.999998
0.999999
1
1
1
1
1
1
1
1
1
1
1
1
1
1
1
1
1
0.999991
0.999993
1.00002
1.00016
1.00054
1.00133
1.00248
1.00349
1.00369
1.0031
1.00268
1.0031
1.00369
1.00349
1.00248
1.00133
1.00054
1.00016
1.00002
0.999994
0.999994
0.999997
0.999999
1
1
1
1
1
1
1
1
1
1
1
1
1
1
1
1
1
0.999991
1
1.00006
1.00028
1.00085
1.0019
1.00316
1.00369
1.00256
1.00033
0.999157
1.00033
1.00256
1.00369
1.00316
1.0019
1.00085
1.00028
1.00006
1
0.999994
0.999997
0.999999
1
1
1
1
1
1
1
1
1
1
1
1
1
1
1
1
1
0.999991
1.00001
1.00009
1.00038
1.00108
1.00226
1.00338
1.0031
1.00033
0.9963
0.994344
0.9963
1.00033
1.0031
1.00338
1.00226
1.00108
1.00038
1.00009
1.00001
0.999995
0.999996
0.999999
1
1
1
1
1
1
1
1
1
1
1
1
1
1
1
1
1
0.999992
1.00001
1.00011
1.00042
1.00116
1.00236
1.00338
1.00268
0.999157
0.994344
0.992052
0.994344
0.999157
1.00268
1.00338
1.00236
1.00116
1.00042
1.00011
1.00001
0.999995
0.999996
0.999999
1
1
1
1
1
1
1
1
1
1
1
1
1
1
1
1
1
0.999991
1.00001
1.00009
1.00038
1.00108
1.00226
1.00338
1.0031
1.00033
0.9963
0.994344
0.9963
1.00033
1.0031
1.00338
1.00226
1.00108
1.00038
1.00009
1.00001
0.999995
0.999996
0.999999
1
1
1
1
1
1
1
1
1
1
1
1
1
1
1
1
1
0.999991
1
1.00006
1.00028
1.00085
1.0019
1.00316
1.00369
1.00256
1.00033
0.999157
1.00033
1.00256
1.00369
1.00316
1.0019
1.00085
1.00028
1.00006
1
0.999994
0.999997
0.999999
1
1
1
1
1
1
1
1
1
1
1
1
1
1
1
1
1
0.999991
0.999993
1.00002
1.00016
1.00054
1.00133
1.00248
1.00349
1.00369
1.0031
1.00268
1.0031
1.00369
1.00349
1.00248
1.00133
1.00054
1.00016
1.00002
0.999994
0.999994
0.999997
0.999999
1
1
1
1
1
1
1
1
1
1
1
1
1
1
1
1
1
0.999993
0.999991
0.999999
1.00006
1.00026
1.00074
1.00154
1.00248
1.00316
1.00338
1.00338
1.00338
1.00316
1.00248
1.00154
1.00074
1.00026
1.00006
0.999999
0.999991
0.999995
0.999998
0.999999
1
1
1
1
1
1
1
1
1
1
1
1
1
1
1
1
1
0.999995
0.999992
0.99999
1.00001
1.00009
1.00031
1.00074
1.00133
1.0019
1.00226
1.00236
1.00226
1.0019
1.00133
1.00074
1.00031
1.00009
1.00001
0.99999
0.999992
0.999997
0.999999
1
1
1
1
1
1
1
1
1
1
1
1
1
1
1
1
1
1
0.999998
0.999995
0.999991
0.999989
1.00001
1.00009
1.00026
1.00054
1.00085
1.00108
1.00116
1.00108
1.00085
1.00054
1.00026
1.00009
1.00001
0.999989
0.999991
0.999995
0.999998
0.999999
1
1
1
1
1
1
1
1
1
1
1
1
1
1
1
1
1
1
0.999999
0.999998
0.999994
0.99999
0.999989
1.00001
1.00006
1.00016
1.00028
1.00038
1.00042
1.00038
1.00028
1.00016
1.00006
1.00001
0.999989
0.99999
0.999994
0.999998
0.999999
1
1
1
1
1
1
1
1
1
1
1
1
1
1
1
1
1
1
1
1
0.999999
0.999997
0.999994
0.999991
0.99999
0.999999
1.00002
1.00006
1.00009
1.00011
1.00009
1.00006
1.00002
0.999999
0.99999
0.999991
0.999994
0.999997
0.999999
1
1
1
1
1
1
1
1
1
1
1
1
1
1
1
1
1
1
1
1
1
1
0.999999
0.999998
0.999995
0.999992
0.999991
0.999994
1
1.00001
1.00001
1.00001
1
0.999994
0.999991
0.999992
0.999995
0.999998
0.999999
1
1
1
1
1
1
1
1
1
1
1
1
1
1
1
1
1
1
1
1
1
1
1
1
0.999999
0.999998
0.999997
0.999995
0.999994
0.999994
0.999995
0.999995
0.999995
0.999994
0.999994
0.999995
0.999997
0.999998
0.999999
1
1
1
1
1
1
1
1
1
1
1
1
1
1
1
1
1
1
1
1
1
1
1
1
1
1
0.999999
0.999999
0.999998
0.999997
0.999997
0.999996
0.999996
0.999996
0.999997
0.999997
0.999998
0.999999
0.999999
1
1
1
1
1
1
1
1
1
1
1
1
1
0.999999
1
1
1
1
1
1
1
1
1
1
1
1
1
1
1
0.999999
0.999999
0.999999
0.999999
0.999999
0.999999
0.999999
0.999999
0.999999
1
1
1
1
1
1
1
1
1
1
1.00001
1
0.999997
0.999984
0.999972
0.999967
0.999972
0.999984
0.999997
1
1.00001
1
1
1
1
1
1
1
1
1
1
1
1
1
1
1
1
1
1
1
1
1
1
1
1
1
1
1
1
1.00001
1
0.999986
0.999951
0.999903
0.999862
0.999845
0.999862
0.999903
0.999951
0.999986
1
1.00001
1
1
1
1
1
1
1
1
1
1
1
1
1
1
1
1
1
1
1
1
1
1
1
1
1
1
1.00001
1
0.999977
0.999913
0.999803
0.999671
0.999565
0.999525
0.999565
0.999671
0.999803
0.999913
0.999977
1
1.00001
1
1
1
1
1
1
1
1
1
1
1
1
1
1
1
1
1
1
1
1
1
1
1
1
1.00001
1
0.999977
0.999896
0.999725
0.999466
0.999188
0.99899
0.998923
0.99899
0.999188
0.999466
0.999725
0.999896
0.999977
1
1.00001
1
1
1
1
1
1
1
1
1
1
1
1
1
1
1
1
1
1
1
1
1
1
1
1
0.999986
0.999913
0.999725
0.999375
0.998908
0.998481
0.998242
0.998181
0.998242
0.998481
0.998908
0.999375
0.999725
0.999914
0.999987
1
1.00001
1
1
1
1
1
1
1
1
1
1
1
1
1
1
1
1
1
1
1
1
1
1
0.999997
0.999951
0.999803
0.999466
0.998908
0.998274
0.997854
0.997785
0.997833
0.997785
0.997854
0.998274
0.998908
0.999466
0.999803
0.999952
0.999998
1.00001
1
1
1
1
1
1
1
1
1
1
1
1
1
1
1
1
1
1
1
1
1
1
0.999984
0.999903
0.999671
0.999188
0.998481
0.997854
0.997746
0.998174
0.998479
0.998174
0.997746
0.997854
0.998481
0.999188
0.999671
0.999904
0.999986
1.00001
1
1
1
1
1
1
1
1
1
1
1
1
1
1
1
1
1
1
1
1
1
1
0.999972
0.999862
0.999565
0.99899
0.998242
0.997785
0.998174
0.999251
0.999869
0.999251
0.998174
0.997785
0.998242
0.99899
0.999565
0.999862
0.999974
1
1
1
1
1
1
1
1
1
1
1
1
1
1
1
1
1
1
1
1
1
1
0.999999
0.999967
0.999845
0.999525
0.998923
0.998181
0.997833
0.998479
0.999869
1.00064
0.999869
0.998479
0.997833
0.998181
0.998923
0.999526
0.999846
0.999969
1
1
1
1
1
1
1
1
1
1
1
1
1
1
1
1
1
1
1
1
1
1
1
0.999972
0.999862
0.999565
0.99899
0.998242
0.997785
0.998174
0.999251
0.999869
0.999251
0.998174
0.997785
0.998242
0.99899
0.999565
0.999862
0.999974
1
1
1
1
1
1
1
1
1
1
1
1
1
1
1
1
1
1
1
1
1
1
1
0.999984
0.999903
0.999671
0.999188
0.998481
0.997854
0.997746
0.998174
0.998479
0.998174
0.997746
0.997854
0.998481
0.999188
0.999671
0.999904
0.999986
1.00001
1
1
1
1
1
1
1
1
1
1
1
1
1
1
1
1
1
1
1
1
1
1
0.999997
0.999951
0.999803
0.999466
0.998908
0.998274
0.997854
0.997785
0.997833
0.997785
0.997854
0.998274
0.998908
0.999466
0.999803
0.999952
0.999998
1.00001
1
1
1
1
1
1
1
1
1
1
1
1
1
1
1
1
1
1
1
1
1
1
1
0.999986
0.999913
0.999725
0.999375
0.998908
0.998481
0.998242
0.998181
0.998242
0.998481
0.998908
0.999375
0.999725
0.999914
0.999987
1
1.00001
1
1
1
1
1
1
1
1
1
1
1
1
1
1
1
1
1
1
1
1
1
1
1.00001
1
0.999977
0.999896
0.999725
0.999466
0.999188
0.99899
0.998923
0.99899
0.999188
0.999466
0.999725
0.999896
0.999977
1
1.00001
1
1
1
1
1
1
1
1
1
1
1
1
1
1
1
1
1
1
1
1
1
1
1
1
1.00001
1
0.999977
0.999914
0.999803
0.999671
0.999565
0.999526
0.999565
0.999671
0.999803
0.999914
0.999977
1
1.00001
1
1
1
1
1
1
1
1
1
1
1
1
1
1
1
1
1
1
1
1
1
1
1
1
1
1
1.00001
1
0.999987
0.999952
0.999904
0.999862
0.999846
0.999862
0.999904
0.999952
0.999987
1
1.00001
1
1
1
1
1
1
1
1
1
1
1
1
1
1
1
1
1
1
1
1
1
1
1
1
1
1
1
1
1.00001
1
0.999998
0.999986
0.999974
0.999969
0.999974
0.999986
0.999998
1
1.00001
1
1
1
1
1
1
1
1
1
1
1
1
1
1
1
1
1
1
1
1
1
1
1
1
1
1
1
1
1
1
1.00001
1.00001
1.00001
1
1
1
1.00001
1.00001
1.00001
1
1
1
1
1
SCALARS C2 double 1
LOOKUP_TABLE default
2
2
2
2
2
2
2.00001
2.00001
2.00002
2.00002
2.00002
2.00002
2.00002
2.00001
2.00001
2
2
2
2
2
2
2
2
2
2
2
2
2
2
2
2
2
2
2
2
2
2
2
2
2
2
2
2
2
2.00001
2.00001
2.00002
2.00003
2.00003
2.00003
2.00003
2.00003
2.00003
2.00003
2.00002
2.00001
2.00001
2
2
2
2
2
2
2
2
2
2
2
2
2
2
2
2
2
2
2
2
2
2
2
2
2
2
2.00001
2.00002
2.00003
2.00004
2.00004
2.00003
2.00001
2
2.00001
2.00003
2.00004
2.00004
2.00003
2.00002
2.00001
2
2
2
2
2
2
2
2
2
2
2
2
2
2
2
2
2
2
2
2
2
2
2
2
2.00001
2.00002
2.00003
2.00005
2.00004
2
1.9999
1.9998
1.99976
1.9998
1.9999
2
2.00004
2.00005
2.00003
2.00002
2.00001
2
2
2
2
2
2
2
2
2
2
2
2
2
2
2
2
2
2
2
2
2
2
2.00001
2.00002
2.00003
2.00005
2.00004
1.99995
1.9997
1.99935
1.99901
1.99888
1.99901
1.99935
1.9997
1.99995
2.00004
2.00005
2.00003
2.00002
2.00001
2
2
2
2
2
2
2
2
2
2
2
2
2
2
2
2
2
2
2
2
2
2.00001
2.00003
2.00005
2.00004
1.99992
1.99954
1.99879
1.99782
1.99698
1.99666
1.99698
1.99782
1.99879
1.99954
1.99992
2.00004
2.00005
2.00003
2.00001
2
2
2
2
2
2
2
2
2
2
2
2
2
2
2
2
2
2
2
2
2.00001
2.00002
2.00004
2.00004
1.99995
1.99954
1.99854
1.99684
1.99481
1.99322
1.99265
1.99322
1.99481
1.99684
1.99854
1.99954
1.99995
2.00004
2.00004
2.00002
2.00001
2
2
2
2
2
2
2
2
2
2
2
2
2
2
2
2
2
2
2
2.00001
2.00003
2.00004
2
1.9997
1.99879
1.99684
1.99382
1.99058
1.98834
1.98764
1.98834
1.99058
1.99382
1.99684
1.99879
1.9997
2
2.00004
2.00003
2.00001
2
2
2
2
2
2
2
2
2
2
2
2
2
2
2
2
2
2
2
2.00002
2.00003
2.00003
1.9999
1.99935
1.99782
1.99481
1.99058
1.9866
1.98443
1.98395
1.98443
1.9866
1.99058
1.99481
1.99782
1.99935
1.9999
2.00003
2.00003
2.00001
2
2
2
2
2
2
2
2
2
2
2
2
2
2
2
2
2
2
2
2.00002
2.00003
2.00001
1.9998
1.99901
1.99698
1.99322
1.98834
1.98443
1.98305
1.98311
1.98305
1.98443
1.98834
1.99322
1.99698
1.99901
1.9998
2.00001
2.00003
2.00002
2.00001
2
2
2
2
2
2
2
2
2
2
2
2
2
2
2
2
2
2
2.00002
2.00003
2
1.99976
1.99888
1.99666
1.99265
1.98764
1.98395
1.98311
1.98346
1.98311
1.98395
1.98764
1.99265
1.99666
1.99888
1.99976
2
2.00003
2.00002
2.00001
2
2
2
2
2
2
2
2
2
2
2
2
2
2
2
2
2
2
2.00002
2.00003
2.00001
1.9998
1.99901
1.99698
1.99322
1.98834
1.98443
1.98305
1.98311
1.98305
1.98443
1.98834
1.99322
1.99698
1.99901
1.9998
2.00001
2.00003
2.00002
2.00001
2
2
2
2
2
2
2
2
2
2
2
2
2
2
2
2
2
2
2.00002
2.00003
2.00003
1.9999
1.99935
1.99782
1.99481
1.99058
1.9866
1.98443
1.98395
1.98443
1.9866
1.99058
1.99481
1.99782
1.99935
1.9999
2.00003
2.00003
2.00001
2
2
2
2
2
2
2
2
2
2
2
2
2
2
2
2
2
2
2
2.00001
2.00003
2.00004
2
1.9997
1.99879
1.99684
1.99382
1.99058
1.98834
1.98764
1.98834
1.99058
1.99382
1.99684
1.99879
1.9997
2
2.00004
2.00003
2.00001
2
2
2
2
2
2
2
2
2
2
2
2
2
2
2
2
2
2
2
2.00001
2.00002
2.00004
2.00004
1.99995
1.99954
1.99854
1.99684
1.99481
1.99322
1.99265
1.99322
1.99481
1.99684
1.99854
1.99954
1.99995
2.00004
2.00004
2.00002
2.00001
2
2
2
2
2
2
2
2
2
2
2
2
2
2
2
2
2
2
2
2
2.00001
2.00003
2.00005
2.00004
1.99992
1.99954
1.99879
1.99782
1.99698
1.99666
1.99698
1.99782
1.99879
1.99954
1.99992
2.00004
2.00005
2.00003
2.00001
2
2
2
2
2
2
2
2
2
2
2
2
2
2
2
2
2
2
2
2
2
2.00001
2.00002
2.00003
2.00005
2.00004
1.99995
1.9997
1.99935
1.99901
1.99888
1.99901
1.99935
1.9997
1.99995
2.00004
2.00005
2.00003
2.00002
2.00001
2
2
2
2
2
2
2
2
2
2
2
2
2
2
2
2
2
2
2
2
2
2
2.00001
2.00002
2.00003
2.00005
2.00004
2
1.9999
1.9998
1.99976
1.9998
1.9999
2
2.00004
2.00005
2.00003
2.00002
2.00001
2
2
2
2
2
2
2
2
2
2
2
2
2
2
2
2
2
2
2
2
2
2
2
2
2.00001
2.00002
2.00003
2.00004
2.00004
2.00003
2.00001
2
2.00001
2.00003
2.00004
2.00004
2.00003
2.00002
2.00001
2
2
2
2
2
2
2
2
2
2
2
2
2
2
2
2
2
2
2
2
2
2
2
2
2
2
2.00001
2.00001
2.00002
2.00003
2.00003
2.00003
2.00003
2.00003
2.00003
2.00003
2.00002
2.00001
2.00001
2
2
2
2
2
2
2
2
2
2
2
2
2
2
2
2
2
2
2
2
2
2
2
2
2
2
2
2
2
2.00001
2.00001
2.00001
2.00002
2.00002
2.00002
2.00001
2.00001
2.00001
2
2
2
2
2
2
2
2
2
2
2
2
2
1.99999
1.99999
1.99999
1.99999
1.99999
2
2
2
2
2
2
2
2
2
2
2
2
2
2
2
2
2.00001
2.00001
2.00001
2
2
2
2
2
2
2
2
2
2
2
2
2
2
1.99999
1.99999
1.99999
1.99999
1.99998
1.99999
1.99999
1.99999
1.99999
2
2
2
2
2
2
2
2
2
2
2
2
2
2
2
2
2
2
2
2
2
2
2
2
2
2
2
2
2
1.99999
1.99999
1.99998
1.99998
1.99998
1.99998
1.99999
1.99998
1.99998
1.99998
1.99998
1.99999
1.99999
2
2
2
2
2
2
2
2
2
2
2
2
2
2
2
2
2
2
2
2
2
2
2
2
2
2
1.99999
1.99999
1.99998
1.99997
1.99998
2.00001
2.00004
2.00006
2.00004
2.00001
1.99998
1.99997
1.99998
1.99999
1.99999
2
2
2
2
2
2
2
2
2
2
2
2
2
2
2
2
2
2
2
2
2
2
2
2
1.99999
1.99999
1.99997
1.99997
1.99999
2.00007
2.0002
2.00033
2.00038
2.00033
2.0002
2.00007
1.99999
1.99997
1.99997
1.99999
1.99999
2
2
2
2
2
2
2
2
2
2
2
2
2
2
2
2
2
2
2
2
2
2
2
1.99999
1.99998
1.99997
2
2.00012
2.00039
2.00078
2.00114
2.00128
2.00114
2.00078
2.00039
2.00012
2
1.99997
1.99998
1.99999
1.99999
2
2
2
2
2
2
2
2
2
2
2
2
2
2
2
2
2
2
2
2
2
1.99999
1.99998
1.99997
1.99999
2.00012
2.00049
2.00117
2.00206
2.00282
2.00311
2.00282
2.00206
2.00117
2.00049
2.00012
1.99999
1.99997
1.99998
1.99999
2
2
2
2
2
2
2
2
2
2
2
2
2
2
2
2
2
2
2
2
2
1.99999
1.99998
1.99998
2.00007
2.00039
2.00117
2.00249
2.00408
2.00535
2.00581
2.00535
2.00408
2.00249
2.00117
2.00039
2.00007
1.99998
1.99998
1.99998
2
2
2
2
2
2
2
2
2
2
2
2
2
2
2
2
2
2
2
2
1.99999
1.99999
1.99998
2.00001
2.0002
2.00078
2.00206
2.00408
2.00635
2.00801
2.00856
2.00801
2.00635
2.00408
2.00206
2.00078
2.0002
2.00001
1.99998
1.99998
2
2
2
2
2
2
2
2
2
2
2
2
2
2
2
2
2
2
2
2
1.99999
1.99999
1.99998
2.00004
2.00033
2.00114
2.00282
2.00535
2.00801
2.00976
2.01027
2.00976
2.00801
2.00535
2.00282
2.00114
2.00033
2.00004
1.99998
1.99998
2
2
2
2
2
2
2
2
2
2
2
2
2
2
2
2
2
2
2
2
1.99999
1.99998
1.99999
2.00006
2.00038
2.00128
2.00311
2.00581
2.00856
2.01027
2.01073
2.01027
2.00856
2.00581
2.00311
2.00128
2.00038
2.00006
1.99998
1.99998
2
2
2
2
2
2
2
2
2
2
2
2
2
2
2
2
2
2
2
2
1.99999
1.99999
1.99998
2.00004
2.00033
2.00114
2.00282
2.00535
2.00801
2.00976
2.01027
2.00976
2.00801
2.00535
2.00282
2.00114
2.00033
2.00004
1.99998
1.99998
2
2
2
2
2
2
2
2
2
2
2
2
2
2
2
2
2
2
2
2
1.99999
1.99999
1.99998
2.00001
2.0002
2.00078
2.00206
2.00408
2.00635
2.00801
2.00856
2.00801
2.00635
2.00408
2.00206
2.00078
2.0002
2.00001
1.99998
1.99998
2
2
2
2
2
2
2
2
2
2
2
2
2
2
2
2
2
2
2
2
2
1.99999
1.99998
1.99998
2.00007
2.00039
2.00117
2.00249
2.00408
2.00535
2.00581
2.00535
2.00408
2.00249
2.00117
2.00039
2.00007
1.99998
1.99998
1.99998
2
2
2
2
2
2
2
2
2
2
2
2
2
2
2
2
2
2
2
2
2
1.99999
1.99998
1.99997
1.99999
2.00012
2.00049
2.00117
2.00206
2.00282
2.00311
2.00282
2.00206
2.00117
2.00049
2.00012
1.99999
1.99997
1.99998
1.99999
2
2
2
2
2
2
2
2
2
2
2
2
2
2
2
2
2
2
2
2
2
2
1.99999
1.99998
1.99997
2
2.00012
2.00039
2.00078
2.00114
2.00128
2.00114
2.00078
2.00039
2.00012
2
1.99997
1.99998
1.99999
1.99999
2
2
2
2
2
2
2
2
2
2
2
2
2
2
2
2
2
2
2
2
2
2
1.99999
1.99999
1.99997
1.99997
1.99999
2.00007
2.0002
2.00033
2.00038
2.00033
2.0002
2.00007
1.99999
1.99997
1.99997
1.99999
1.99999
2
2
2
2
2
2
2
2
2
2
2
2
2
2
2
2
2
2
2
2
2
2
2
2
1.99999
1.99999
1.99998
1.99997
1.99998
2.00001
2.00004
2.00006
2.00004
2.00001
1.99998
1.99997
1.99998
1.99999
1.99999
2
2
2
2
2
2
2
2
2
2
2
2
2
2
2
2
2
2
2
2
2
2
2
2
2
2
1.99999
1.99999
1.99998
1.99998
1.99998
1.99998
1.99998
1.99998
1.99998
1.99998
1.99998
1.99999
1.99999
2
2
2
2
2
2
2
2
2
2
2
2
2
2
2
2
2
2
2
2
2
2
2
2
2
2
2
2
1.99999
1.99999
1.99998
1.99998
1.99998
1.99998
1.99998
1.99998
1.99998
1.99999
1.99999
2
2
2
2
