# vtk DataFile Version 3.0
Brusselator Concentration Output
ASCII
DATASET STRUCTURED_POINTS
DIMENSIONS 40 40 1
ORIGIN 0.0 0.0 0.0
SPACING 0.005 0.005 1.0
POINT_DATA 1600
SCALARS C1 double 1
LOOKUP_TABLE default
1
1
1
1.00001
1.00001
1.00001
1
0.999993
0.999978
0.999966
0.999962
0.999966
0.999978
0.999993
1
1.00001
1.00001
1.00001
1
1
1
1
1
1
1
1
1
1
1
1
1
1
1
1
1
1
1
1
1
1
1
1
1.00001
1.00001
1.00001
0.999994
0.999969
0.999934
0.999897
0.999868
0.999858
0.999868
0.999897
0.999934
0.999969
0.999994
1.00001
1.00001
1.00001
1
1
1
1
1
1
1
1
1
1
1
1
1
1
1
1
1
1
1
1
1
1
1.00001
1.00001
1
0.999983
0.999938
0.999865
0.999772
0.999683
0.99962
0.999598
0.99962
0.999683
0.999772
0.999865
0.999938
0.999983
1
1.00001
1.00001
1
1
1
1
1
1
1
1
1
1
1
1
1
1
1
1
1
1
1
1
1.00001
1.00001
1
0.999979
0.999917
0.9998
0.999632
0.999445
0.999286
0.999185
0.999152
0.999185
0.999286
0.999445
0.999632
0.9998
0.999917
0.999979
1
1.00001
1
1
1
1
1
1
1
1
1
1
1
1
1
1
1
1
1
1
1
1
1.00001
1.00001
0.999983
0.999917
0.999774
0.999538
0.999241
0.998961
0.99877
0.998684
0.998663
0.998684
0.99877
0.998961
0.999241
0.999538
0.999774
0.999917
0.999983
1
1.00001
1
1
1
1
1
1
1
1
1
1
1
1
1
1
1
1
1
1
1
1.00001
0.999994
0.999938
0.9998
0.999538
0.999161
0.998765
0.998501
0.998451
0.998538
0.998595
0.998538
0.998451
0.998501
0.998765
0.999161
0.999538
0.9998
0.999938
0.999991
1
1
1
1
1
1
1
1
1
1
1
1
1
1
1
1
1
1
1
1
1
0.999969
0.999865
0.999632
0.999241
0.998765
0.998416
0.998434
0.998858
0.999401
0.999646
0.999401
0.998858
0.998434
0.998416
0.998765
0.999241
0.999632
0.999863
0.999966
0.999999
1
1
1
1
1
1
1
1
1
1
1
1
1
1
1
1
1
1
1
0.999993
0.999934
0.999772
0.999445
0.998961
0.998501
0.998434
0.99909
1.00038
1.00169
1.00224
1.00169
1.00038
0.99909
0.998434
0.998501
0.998961
0.999445
0.99977
0.999931
0.999989
1
1
1
1
1
1
1
1
1
1
1
1
1
1
1
1
1
1
1
0.999978
0.999897
0.999683
0.999286
0.99877
0.998451
0.998858
1.00038
1.00276
1.00497
1.00587
1.00497
1.00276
1.00038
0.998858
0.998451
0.99877
0.999285
0.999681
0.999893
0.999978
1
1
1
1
1
1
1
1
1
1
1
1
1
1
1
1
1
1
1
0.999966
0.999868
0.99962
0.999185
0.998684
0.998538
0.999401
1.00169
1.00497
1.00792
1.0091
1.00792
1.00497
1.00169
0.999401
0.998538
0.998683
0.999184
0.999618
0.999865
0.999968
0.999999
1
1
1
1
1
1
1
1
1
1
1
1
1
1
1
1
1
1
0.999962
0.999858
0.999598
0.999152
0.998663
0.998595
0.999646
1.00224
1.00587
1.0091
1.01039
1.0091
1.00587
1.00224
0.999646
0.998595
0.998663
0.999151
0.999596
0.999854
0.999964
0.999998
1
1
1
1
1
1
1
1
1
1
1
1
1
1
1
1
1
1
0.999966
0.999868
0.99962
0.999185
0.998684
0.998538
0.999401
1.00169
1.00497
1.00792
1.0091
1.00792
1.00497
1.00169
0.999401
0.998538
0.998683
0.999184
0.999618
0.999865
0.999968
0.999999
1
1
1
1
1
1
1
1
1
1
1
1
1
1
1
1
1
1
0.999978
0.999897
0.999683
0.999286
0.99877
0.998451
0.998858
1.00038
1.00276
1.00497
1.00587
1.00497
1.00276
1.00038
0.998858
0.998451
0.99877
0.999285
0.999681
0.999893
0.999978
1
1
1
1
1
1
1
1
1
1
1
1
1
1
1
1
1
1
1
0.999993
0.999934
0.999772
0.999445
0.998961
0.998501
0.998434
0.99909
1.00038
1.00169
1.00224
1.00169
1.00038
0.99909
0.998434
0.998501
0.998961
0.999445
0.99977
0.999931
0.999989
1
1
1
1
1
1
1
1
1
1
1
1
1
1
1
1
1
1
1
1
0.999969
0.999865
0.999632
0.999241
0.998765
0.998416
0.998434
0.998858
0.999401
0.999646
0.999401
0.998858
0.998434
0.998416
0.998765
0.999241
0.999632
0.999863
0.999966
0.999999
1
1
1
1
1
1
1
1
1
1
1
1
1
1
1
1
1
1
1
1.00001
0.999994
0.999938
0.9998
0.999538
0.999161
0.998765
0.998501
0.998451
0.998538
0.998595
0.998538
0.998451
0.998501
0.998765
0.999161
0.999538
0.9998
0.999938
0.999991
1
1
1
1
1
1
1
1
1
1
1
1
1
1
1
1
1
1
1
1
1.00001
1.00001
0.999983
0.999917
0.999774
0.999538
0.999241
0.998961
0.99877
0.998683
0.998663
0.998683
0.99877
0.998961
0.999241
0.999538
0.999774
0.999917
0.999983
1
1.00001
1
1
1
1
1
1
1
1
1
1
1
1
1
1
1
1
1
1
1
1.00001
1.00001
1
0.999979
0.999917
0.9998
0.999632
0.999445
0.999285
0.999184
0.999151
0.999184
0.999285
0.999445
0.999632
0.9998
0.999917
0.999979
1
1.00001
1
1
1
1
1
1
0.999999
0.999999
0.999999
0.999999
0.999999
0.999999
0.999999
0.999999
0.999999
1
1
1
1
1
1
1.00001
1.00001
1
0.999983
0.999938
0.999863
0.99977
0.999681
0.999618
0.999596
0.999618
0.999681
0.99977
0.999863
0.999938
0.999983
1
1.00001
1.00001
1
1
1
1
0.999999
0.999999
0.999999
0.999998
0.999998
0.999998
0.999998
0.999998
0.999998
0.999998
0.999999
0.999999
0.999999
1
1
1
1
1
1.00001
1.00001
1
0.999991
0.999966
0.999931
0.999893
0.999865
0.999854
0.999865
0.999893
0.999931
0.999966
0.999991
1
1.00001
1.00001
1
1
1
1
0.999999
0.999998
0.999998
0.999997
0.999998
0.999998
0.999999
0.999999
0.999999
0.999998
0.999998
0.999997
0.999998
0.999998
0.999999
1
1
1
1
1
1
1.00001
1
0.999999
0.999989
0.999978
0.999968
0.999964
0.999968
0.999978
0.999989
0.999999
1
1.00001
1
1
1
1
1
0.999999
0.999998
0.999997
0.999997
0.999998
1
1.00001
1.00001
1.00001
1.00001
1.00001
1
0.999998
0.999997
0.999997
0.999998
0.999999
0.999999
1
1
1
1
1
1
1
1
1
0.999999
0.999998
0.999999
1
1
1
1
1
1
1
1
1
0.999999
0.999998
0.999996
0.999997
1
1.00001
1.00002
1.00004
1.00005
1.00005
1.00005
1.00004
1.00002
1.00001
1
0.999997
0.999996
0.999997
0.999998
1
1
1
1
1
1
1
1
1
1
1
1
1
1
1
1
1
1
1
1
0.999999
0.999998
0.999996
0.999997
1
1.00002
1.00005
1.00008
1.00012
1.00015
1.00016
1.00015
1.00012
1.00008
1.00005
1.00002
1
0.999996
0.999996
0.999996
1
1
1
1
1
1
1
1
1
1
1
1
1
1
1
1
1
1
1
0.999999
0.999998
0.999996
0.999997
1
1.00002
1.00007
1.00014
1.00022
1.0003
1.00036
1.00037
1.00036
1.0003
1.00022
1.00014
1.00007
1.00002
1
0.999996
0.999994
1
1
1
1
1
1
1
1
1
1
1
1
1
1
1
1
1
1
0.999999
0.999998
0.999997
0.999997
1
1.00002
1.00008
1.00018
1.00032
1.00046
1.00058
1.00065
1.00067
1.00065
1.00058
1.00046
1.00032
1.00018
1.00008
1.00002
1
0.999994
1
1
1
1
1
1
1
1
1
1
1
1
1
1
1
1
1
1
0.999999
0.999998
0.999997
1
1.00002
1.00007
1.00018
1.00035
1.00057
1.00075
1.00086
1.00089
1.0009
1.00089
1.00086
1.00075
1.00057
1.00035
1.00018
1.00007
1.00002
0.999997
1
1
1
1
1
1
1
1
1
1
1
1
1
1
1
1
1
0.999999
0.999999
0.999997
0.999998
1.00001
1.00005
1.00014
1.00032
1.00057
1.00082
1.00096
1.00093
1.00081
1.00075
1.00081
1.00093
1.00096
1.00082
1.00057
1.00032
1.00014
1.00004
1.00001
1
1
1
1
1
1
1
1
1
1
1
1
1
1
1
1
1
0.999999
0.999998
0.999998
1
1.00002
1.00008
1.00022
1.00046
1.00075
1.00096
1.00091
1.00058
1.00017
0.999986
1.00017
1.00058
1.00091
1.00096
1.00075
1.00046
1.00022
1.00008
1.00002
1
1
1
1
1
1
1
1
1
1
1
1
1
1
1
1
1
0.999999
0.999998
0.999998
1.00001
1.00004
1.00012
1.0003
1.00058
1.00086
1.00093
1.00058
0.999824
0.999041
0.998708
0.999041
0.999824
1.00058
1.00093
1.00086
1.00058
1.0003
1.00012
1.00004
1
1
1
1
1
1
1
1
1
1
1
1
1
1
1
1
1
0.999999
0.999998
0.999999
1.00001
1.00005
1.00015
1.00036
1.00065
1.00089
1.00081
1.00017
0.999041
0.997938
0.99748
0.997938
0.999041
1.00017
1.00081
1.00089
1.00065
1.00035
1.00015
1.00006
1
1
1
1
1
1
1
1
1
1
1
1
1
1
1
1
1
0.999999
0.999998
0.999999
1.00001
1.00005
1.00016
1.00037
1.00067
1.0009
1.00075
0.999986
0.998708
0.99748
0.996974
0.99748
0.998708
0.999986
1.00075
1.00089
1.00067
1.00037
1.00016
1.00006
1
1
1
1
1
1
1
1
1
1
1
1
1
1
1
1
1
0.999999
0.999998
0.999999
1.00001
1.00005
1.00015
1.00036
1.00065
1.00089
1.00081
1.00017
0.999041
0.997938
0.99748
0.997938
0.999041
1.00017
1.00081
1.00089
1.00065
1.00035
1.00015
1.00006
1
1
1
1
1
1
1
1
1
1
1
1
1
1
1
1
1
0.999999
0.999998
0.999998
1.00001
1.00004
1.00012
1.0003
1.00058
1.00086
1.00093
1.00058
0.999824
0.999041
0.998708
0.999041
0.999824
1.00058
1.00093
1.00086
1.00058
1.0003
1.00012
1.00004
1
1
1
1
1
1
1
1
1
1
1
1
1
1
1
1
1
0.999999
0.999998
0.999998
1
1.00002
1.00008
1.00022
1.00046
1.00075
1.00096
1.00091
1.00058
1.00017
0.999986
1.00017
1.00058
1.00091
1.00096
1.00075
1.00046
1.00022
1.00008
1.00002
1
1
1
1
1
1
1
1
1
1
1
1
1
1
1
1
1
0.999999
0.999999
0.999997
0.999998
1.00001
1.00005
1.00014
1.00032
1.00057
1.00082
1.00096
1.00093
1.00081
1.00075
1.00081
1.00093
1.00096
1.00082
1.00057
1.00032
1.00014
1.00004
1.00001
1
1
1
1
1
1
1
1
1
1
1
1
1
1
1
1
1
1
0.999999
0.999998
0.999997
1
1.00002
1.00007
1.00018
1.00035
1.00057
1.00075
1.00086
1.00089
1.00089
1.00089
1.00086
1.00075
1.00057
1.00035
1.00018
1.00007
1.00002
0.999997
1
1
1
1
1
1
1
1
1
1
1
1
1
1
1
1
1
1
0.999999
0.999998
0.999997
0.999997
1
1.00002
1.00008
1.00018
1.00032
1.00046
1.00058
1.00065
1.00067
1.00065
1.00058
1.00046
1.00032
1.00018
1.00008
1.00002
1
0.999994
1
1
1
1
1
1
1
1
1
1
1
1
1
1
1
1
1
1
1
0.999999
0.999998
0.999996
0.999996
1
1.00002
1.00007
1.00014
1.00022
1.0003
1.00035
1.00037
1.00035
1.0003
1.00022
1.00014
1.00007
1.00002
1
0.999996
0.999994
1
1
1
1
1
1
1
1
1
1
1
1
1
1
1
1
1
1
1
1
0.999999
0.999997
0.999996
0.999996
1
1.00002
1.00004
1.00008
1.00012
1.00015
1.00016
1.00015
1.00012
1.00008
1.00004
1.00002
1
0.999996
0.999995
0.999996
1
1
1
1
1
1
1
1
1
1
1
1
1
1
1
1
1
1
1
1
0.999999
0.999998
0.999996
0.999994
0.999994
0.999997
1.00001
1.00002
1.00004
1.00006
1.00006
1.00006
1.00004
1.00002
1.00001
0.999997
0.999994
0.999994
0.999996
0.999997
SCALARS C2 double 1
LOOKUP_TABLE default
2
2
2
1.99999
1.99998
1.99997
1.99997
1.99996
1.99997
1.99997
1.99997
1.99997
1.99997
1.99996
1.99997
1.99997
1.99998
1.99999
2
2
2
2
2
2
2
2
2
2
2
2
2
2
2
2
2
2
2
2
2
2
2
2
1.99999
1.99998
1.99998
1.99997
1.99997
1.99999
2.00002
2.00004
2.00005
2.00004
2.00002
1.99999
1.99997
1.99997
1.99998
1.99998
1.99999
2
2
2
2
2
2
2
2
2
2
2
2
2
2
2
2
2
2
2
2
2
2
1.99999
1.99998
1.99997
1.99997
1.99999
2.00003
2.00012
2.00022
2.00031
2.00034
2.00031
2.00022
2.00012
2.00003
1.99999
1.99997
1.99997
1.99998
1.99999
2
2
2
2
2
2
2
2
2
2
2
2
2
2
2
2
2
2
2
2
1.99999
1.99998
1.99997
1.99997
1.99999
2.00008
2.00025
2.00051
2.00078
2.00098
2.00106
2.00098
2.00078
2.00051
2.00025
2.00008
1.99999
1.99997
1.99997
1.99998
1.99999
2
2
2
2
2
2
2
2
2
2
2
2
2
2
2
2
2
2
2
1.99998
1.99998
1.99997
1.99999
2.0001
2.00035
2.00078
2.00134
2.0019
2.00229
2.00243
2.00229
2.0019
2.00134
2.00078
2.00035
2.0001
1.99999
1.99997
1.99998
1.99999
2
2
2
2
2
2
2
2
2
2
2
2
2
2
2
2
2
2
2
1.99997
1.99997
1.99999
2.00008
2.00035
2.0009
2.00174
2.00274
2.00362
2.0042
2.00439
2.0042
2.00362
2.00274
2.00174
2.0009
2.00035
2.00008
1.99999
1.99997
1.99998
1.99999
2
2
2
2
2
2
2
2
2
2
2
2
2
2
2
2
2
2
1.99997
1.99997
2.00003
2.00025
2.00078
2.00174
2.00308
2.00448
2.00555
2.00611
2.00627
2.00611
2.00555
2.00448
2.00308
2.00174
2.00078
2.00025
2.00004
1.99998
1.99998
1.99999
2
2
2
2
2
2
2
2
2
2
2
2
2
2
2
2
2
2
1.99996
1.99999
2.00012
2.00051
2.00134
2.00274
2.00448
2.00604
2.0069
2.00708
2.00703
2.00708
2.0069
2.00604
2.00448
2.00274
2.00134
2.00051
2.00012
2
1.99998
1.99999
1.99999
2
2
2
2
2
2
2
2
2
2
2
2
2
2
2
2
2
1.99997
2.00002
2.00022
2.00078
2.0019
2.00362
2.00555
2.0069
2.00711
2.00651
2.00612
2.00651
2.00711
2.0069
2.00555
2.00362
2.0019
2.00078
2.00023
2.00003
1.99998
1.99998
1.99999
2
2
2
2
2
2
2
2
2
2
2
2
2
2
2
2
2
1.99997
2.00004
2.00031
2.00098
2.00229
2.0042
2.00611
2.00708
2.00651
2.0051
2.00435
2.0051
2.00651
2.00708
2.00611
2.0042
2.00229
2.00098
2.00031
2.00005
1.99999
1.99998
1.99999
2
2
2
2
2
2
2
2
2
2
2
2
2
2
2
2
2
1.99997
2.00005
2.00034
2.00106
2.00243
2.00439
2.00627
2.00703
2.00612
2.00435
2.00346
2.00435
2.00612
2.00703
2.00627
2.00439
2.00243
2.00106
2.00034
2.00006
1.99999
1.99998
1.99999
2
2
2
2
2
2
2
2
2
2
2
2
2
2
2
2
2
1.99997
2.00004
2.00031
2.00098
2.00229
2.0042
2.00611
2.00708
2.00651
2.0051
2.00435
2.0051
2.00651
2.00708
2.00611
2.0042
2.00229
2.00098
2.00031
2.00005
1.99999
1.99998
1.99999
2
2
2
2
2
2
2
2
2
2
2
2
2
2
2
2
2
1.99997
2.00002
2.00022
2.00078
2.0019
2.00362
2.00555
2.0069
2.00711
2.00651
2.00612
2.00651
2.00711
2.0069
2.00555
2.00362
2.0019
2.00078
2.00023
2.00003
1.99998
1.99998
1.99999
2
2
2
2
2
2
2
2
2
2
2
2
2
2
2
2
2
1.99996
1.99999
2.00012
2.00051
2.00134
2.00274
2.00448
2.00604
2.0069
2.00708
2.00703
2.00708
2.0069
2.00604
2.00448
2.00274
2.00134
2.00051
2.00012
2
1.99998
1.99999
1.99999
2
2
2
2
2
2
2
2
2
2
2
2
2
2
2
2
2
1.99997
1.99997
2.00003
2.00025
2.00078
2.00174
2.00308
2.00448
2.00555
2.00611
2.00627
2.00611
2.00555
2.00448
2.00308
2.00174
2.00078
2.00025
2.00004
1.99998
1.99998
1.99999
2
2
2
2
2
2
2
2
2
2
2
2
2
2
2
2
2
2
1.99997
1.99997
1.99999
2.00008
2.00035
2.0009
2.00174
2.00274
2.00362
2.0042
2.00439
2.0042
2.00362
2.00274
2.00174
2.0009
2.00035
2.00008
1.99999
1.99997
1.99998
1.99999
2
2
2
2
2
2
2
2
2
2
2
2
2
2
2
2
2
2
1.99998
1.99998
1.99997
1.99999
2.0001
2.00035
2.00078
2.00134
2.0019
2.00229
2.00243
2.00229
2.0019
2.00134
2.00078
2.00035
2.0001
1.99999
1.99997
1.99998
1.99999
2
2
2
2
2
2
2
2
2
2
2
2
2
2
2
2
2
2
2
1.99999
1.99998
1.99997
1.99997
1.99999
2.00008
2.00025
2.00051
2.00078
2.00098
2.00106
2.00098
2.00078
2.00051
2.00025
2.00008
1.99999
1.99997
1.99997
1.99998
1.99999
2
2
2
2
2
2
2
2
2
2
2
2
2
2
2
2
2
2
2
2
1.99999
1.99998
1.99997
1.99997
1.99999
2.00004
2.00012
2.00023
2.00031
2.00034
2.00031
2.00023
2.00012
2.00004
1.99999
1.99997
1.99997
1.99998
1.99999
2
2
2
2
2
2
2
2
2
2
2
2
2
2
2
2
2
2
2
2
2
2
1.99999
1.99998
1.99998
1.99997
1.99998
2
2.00003
2.00005
2.00006
2.00005
2.00003
2
1.99998
1.99997
1.99998
1.99998
1.99999
2
2
2
2
2
2
2
2.00001
2.00001
2.00001
2.00001
2.00001
2.00001
2.00001
2.00001
2.00001
2
2
2
2
2
2
2
2
1.99999
1.99999
1.99998
1.99998
1.99998
1.99998
1.99999
1.99999
1.99999
1.99998
1.99998
1.99998
1.99998
1.99999
1.99999
2
2
2
2
2
2
2.00001
2.00001
2.00001
2.00001
2.00001
2.00001
2.00001
2.00001
2.00001
2.00001
2.00001
2.00001
2.00001
2
2
2
2
2
2
2
2
1.99999
1.99999
1.99999
1.99998
1.99998
1.99998
1.99998
1.99998
1.99999
1.99999
1.99999
2
2
2
2
2
2
2
2.00001
2.00001
2.00001
2.00001
2.00001
2
1.99999
1.99999
1.99999
2
2.00001
2.00001
2.00001
2.00001
2.00001
2
2
2
2
2
2
2
2
2
1.99999
1.99999
1.99999
1.99999
1.99999
1.99999
1.99999
2
2
2
2
2
2
2
2
2.00001
2.00001
2.00002
2.00002
2
1.99997
1.99994
1.9999
1.99989
1.9999
1.99994
1.99997
2
2.00002
2.00002
2.00001
2.00001
2
2
2
2
2
2
2
2
2
2
2
2
2
2
2
2
2
2
2
2
2
2
2.00001
2.00001
2.00002
2.00002
1.99999
1.99993
1.99984
1.99973
1.99964
1.99961
1.99964
1.99973
1.99984
1.99993
1.99999
2.00002
2.00002
2.00001
2.00001
2
2
2
2
2
2
2
2
2
2
2
2
2
2
2
2
2
2
2
2
2.00001
2.00001
2.00002
2.00002
1.99998
1.9999
1.99973
1.9995
1.99925
1.99907
1.999
1.99907
1.99925
1.9995
1.99973
1.9999
1.99999
2.00002
2.00002
2.00002
2
2
2
2
2
2
2
2
2
2
2
2
2
2
2
2
2
2
2
2
2.00001
2.00001
2.00002
1.99999
1.9999
1.99969
1.99933
1.99888
1.99844
1.99813
1.99802
1.99813
1.99844
1.99888
1.99933
1.99969
1.9999
1.99999
2.00002
2.00002
2
2
2
2
2
2
2
2
2
2
2
2
2
2
2
2
2
2
2
2.00001
2.00001
2.00001
2
1.99993
1.99973
1.99933
1.99872
1.99801
1.99738
1.99698
1.99685
1.99698
1.99738
1.99801
1.99872
1.99933
1.99973
1.99993
2.00001
2.00003
2
2
2
2
2
2
2
2
2
2
2
2
2
2
2
2
2
2
2
2.00001
2.00001
2.00001
1.99997
1.99984
1.9995
1.99888
1.99801
1.99709
1.99639
1.99603
1.99593
1.99603
1.99639
1.99709
1.99801
1.99888
1.9995
1.99984
1.99998
2.00002
2
2
2
2
2
2
2
2
2
2
2
2
2
2
2
2
2
2
2
2.00001
2.00001
2
1.99994
1.99973
1.99925
1.99844
1.99738
1.99639
1.99579
1.99562
1.99563
1.99562
1.99579
1.99639
1.99738
1.99844
1.99925
1.99973
1.99994
2.00001
2
2
2
2
2
2
2
2
2
2
2
2
2
2
2
2
2
2
2
2.00001
2.00001
1.99999
1.9999
1.99964
1.99907
1.99813
1.99698
1.99603
1.99562
1.9957
1.99582
1.9957
1.99562
1.99603
1.99698
1.99813
1.99907
1.99964
1.99991
2
2
2
2
2
2
2
2
2
2
2
2
2
2
2
2
2
2
2
2
2.00001
2.00001
1.99999
1.99989
1.99961
1.999
1.99802
1.99685
1.99593
1.99563
1.99582
1.99599
1.99582
1.99563
1.99593
1.99685
1.99802
1.999
1.99961
1.9999
2
2
2
2
2
2
2
2
2
2
2
2
2
2
2
2
2
2
2
2
2.00001
2.00001
1.99999
1.9999
1.99964
1.99907
1.99813
1.99698
1.99603
1.99562
1.9957
1.99582
1.9957
1.99562
1.99603
1.99698
1.99813
1.99907
1.99964
1.99991
2
2
2
2
2
2
2
2
2
2
2
2
2
2
2
2
2
2
2
2
2.00001
2.00001
2
1.99994
1.99973
1.99925
1.99844
1.99738
1.99639
1.99579
1.99562
1.99563
1.99562
1.99579
1.99639
1.99738
1.99844
1.99925
1.99973
1.99994
2.00001
2
2
2
2
2
2
2
2
2
2
2
2
2
2
2
2
2
2
2
2.00001
2.00001
2.00001
1.99997
1.99984
1.9995
1.99888
1.99801
1.99709
1.99639
1.99603
1.99593
1.99603
1.99639
1.99709
1.99801
1.99888
1.9995
1.99984
1.99998
2.00002
2
2
2
2
2
2
2
2
2
2
2
2
2
2
2
2
2
2
2
2.00001
2.00001
2.00001
2
1.99993
1.99973
1.99933
1.99872
1.99801
1.99738
1.99698
1.99685
1.99698
1.99738
1.99801
1.99872
1.99933
1.99973
1.99993
2.00001
2.00003
2
2
2
2
2
2
2
2
2
2
2
2
2
2
2
2
2
2
2
2
2.00001
2.00001
2.00002
1.99999
1.9999
1.99969
1.99933
1.99888
1.99844
1.99813
1.99802
1.99813
1.99844
1.99888
1.99933
1.99969
1.9999
1.99999
2.00002
2.00002
2
2
2
2
2
2
2
2
2
2
2
2
2
2
2
2
2
2
2
2
2.00001
2.00001
2.00002
2.00002
1.99999
1.9999
1.99973
1.9995
1.99925
1.99907
1.999
1.99907
1.99925
1.9995
1.99973
1.9999
1.99999
2.00002
2.00002
2.00002
2
2
2
2
2
2
2
2
2
2
2
2
2
2
2
2
2
2
2
2
2
2.00001
2.00001
2.00002
2.00002
1.99999
1.99993
1.99984
1.99973
1.99964
1.99961
1.99964
1.99973
1.99984
1.99993
1.99999
2.00002
2.00002
2.00001
2.00001
2
2
2
2
2
2
2
2
2
2
2
2
2
2
2
2
2
2
2
2
2
2
2.00001
2.00001
2.00002
2.00002
2.00001
1.99998
1.99994
1.99991
1.9999
1.99991
1.99994
1.99998
2.00001
2.00002
2.00002
2.00001
2.00001
2
2
2
2
2
2
2
2
2
2
2
2
2
2
2
2
2
2
2
2
2
2
2
2
2.00001
2.00002
2.00002
2.00003
2.00002
2.00001
2
2
2
2.00001
2.00002
2.00003
2.00002
2.00002
2.00001
2
2
