# vtk DataFile Version 3.0
Brusselator Concentration Output
ASCII
DATASET STRUCTURED_POINTS
DIMENSIONS 40 40 1
ORIGIN 0.0 0.0 0.0
SPACING 0.005 0.005 1.0
POINT_DATA 1600
SCALARS C1 double 1
LOOKUP_TABLE default
1
1
1
1.00001
1.00001
1.00001
1.00001
1.00001
0.999995
0.999986
0.999982
0.999986
0.999995
1.00001
1.00001
1.00001
1.00001
1.00001
1
1
1
1
1
1
1
1
1
1
1
1
1
1
1
1
1
1
1
1
1
1
1
1
1.00001
1.00001
1.00001
1
0.999987
0.999958
0.999925
0.999898
0.999888
0.999898
0.999925
0.999958
0.999987
1
1.00001
1.00001
1.00001
1
1
1
1
1
1
1
1
1
1
1
1
1
1
1
1
1
1
1
1
1
1
1.00001
1.00001
1.00001
0.999998
0.999963
0.999898
0.99981
0.999721
0.999655
0.999631
0.999655
0.999721
0.99981
0.999898
0.999963
0.999998
1.00001
1.00001
1.00001
1
1
1
1
1
1
1
1
1
1
1
1
1
1
1
1
1
1
1
1
1.00001
1.00001
1.00001
0.999995
0.999946
0.999842
0.999677
0.999479
0.999296
0.999173
0.999131
0.999173
0.999296
0.999479
0.999677
0.999842
0.999946
0.999995
1.00001
1.00001
1
1
1
1
1
1
1
1
1
1
1
1
1
1
1
1
1
1
1
1
1.00001
1.00001
0.999998
0.999946
0.999818
0.999585
0.999261
0.998919
0.998647
0.998493
0.998446
0.998493
0.998647
0.998919
0.999261
0.999585
0.999818
0.999946
0.999997
1.00001
1.00001
1
1
1
1
1
1
1
1
1
1
1
1
1
1
1
1
1
1
1
1.00001
1
0.999963
0.999842
0.999585
0.999173
0.998678
0.998249
0.998014
0.997959
0.997964
0.997959
0.998014
0.998249
0.998678
0.999173
0.999585
0.999842
0.999962
1
1.00001
1.00001
1
1
1
1
1
1
1
1
1
1
1
1
1
1
1
1
1
1
1.00001
0.999987
0.999898
0.999677
0.999261
0.998678
0.998106
0.997812
0.997918
0.998234
0.998399
0.998234
0.997918
0.997812
0.998106
0.998678
0.999261
0.999677
0.999897
0.999984
1.00001
1.00001
1
1
1
1
1
1
1
1
1
1
1
1
1
1
1
1
1
1
1.00001
0.999958
0.99981
0.999479
0.998919
0.998249
0.997812
0.997997
0.998856
0.999881
1.00034
0.999881
0.998856
0.997997
0.997812
0.998249
0.998919
0.999478
0.999809
0.999954
0.999999
1.00001
1
1
1
1
1
1
1
1
1
1
1
1
1
1
1
1
1
1
0.999995
0.999925
0.999721
0.999296
0.998647
0.998014
0.997918
0.998856
1.00074
1.00268
1.00349
1.00268
1.00074
0.998856
0.997918
0.998014
0.998647
0.999295
0.999719
0.99992
0.99999
1.00001
1
1
1
1
1
1
1
1
1
1
1
1
1
1
1
1
1
1
0.999986
0.999898
0.999655
0.999173
0.998493
0.997959
0.998234
0.999881
1.00268
1.00538
1.0065
1.00538
1.00268
0.999881
0.998234
0.997959
0.998492
0.999172
0.999652
0.999893
0.999982
1
1
1
1
1
1
1
1
1
1
1
1
1
1
1
1
1
1
1
0.999982
0.999888
0.999631
0.999131
0.998446
0.997964
0.998399
1.00034
1.00349
1.0065
1.00774
1.0065
1.00349
1.00034
0.998399
0.997964
0.998445
0.99913
0.999628
0.999883
0.999979
1
1
1
1
1
1
1
1
1
1
1
1
1
1
1
1
1
1
1
0.999986
0.999898
0.999655
0.999173
0.998493
0.997959
0.998234
0.999881
1.00268
1.00538
1.0065
1.00538
1.00268
0.999881
0.998234
0.997959
0.998492
0.999172
0.999652
0.999893
0.999982
1
1
1
1
1
1
1
1
1
1
1
1
1
1
1
1
1
1
1
0.999995
0.999925
0.999721
0.999296
0.998647
0.998014
0.997918
0.998856
1.00074
1.00268
1.00349
1.00268
1.00074
0.998856
0.997918
0.998014
0.998647
0.999295
0.999719
0.99992
0.99999
1.00001
1
1
1
1
1
1
1
1
1
1
1
1
1
1
1
1
1
1
1.00001
0.999958
0.99981
0.999479
0.998919
0.998249
0.997812
0.997997
0.998856
0.999881
1.00034
0.999881
0.998856
0.997997
0.997812
0.998249
0.998919
0.999478
0.999809
0.999954
0.999999
1.00001
1
1
1
1
1
1
1
1
1
1
1
1
1
1
1
1
1
1
1.00001
0.999987
0.999898
0.999677
0.999261
0.998678
0.998106
0.997812
0.997918
0.998234
0.998399
0.998234
0.997918
0.997812
0.998106
0.998678
0.999261
0.999677
0.999897
0.999984
1.00001
1.00001
1
1
1
1
1
1
1
1
1
1
1
1
1
1
1
1
1
1
1.00001
1
0.999963
0.999842
0.999585
0.999173
0.998678
0.998249
0.998014
0.997959
0.997964
0.997959
0.998014
0.998249
0.998678
0.999173
0.999585
0.999842
0.999962
1
1.00001
1.00001
1
1
1
1
1
1
1
1
1
1
1
1
1
1
1
1
1
1
1.00001
1.00001
0.999998
0.999946
0.999818
0.999585
0.999261
0.998919
0.998647
0.998492
0.998445
0.998492
0.998647
0.998919
0.999261
0.999585
0.999818
0.999946
0.999997
1.00001
1.00001
1
1
1
1
1
1
1
1
1
1
1
1
1
1
1
1
1
1
1
1.00001
1.00001
1.00001
0.999995
0.999946
0.999842
0.999677
0.999478
0.999295
0.999172
0.99913
0.999172
0.999295
0.999478
0.999677
0.999842
0.999946
0.999995
1.00001
1.00001
1.00001
1
1
1
1
1
0.999999
0.999999
0.999999
0.999999
0.999999
0.999999
0.999999
0.999999
0.999999
1
1
1
1
1
1
1.00001
1.00001
1.00001
0.999997
0.999962
0.999897
0.999809
0.999719
0.999652
0.999628
0.999652
0.999719
0.999809
0.999897
0.999962
0.999997
1.00001
1.00001
1.00001
1
1
1
1
0.999999
0.999999
0.999999
0.999998
0.999998
0.999998
0.999998
0.999998
0.999998
0.999998
0.999999
0.999999
0.999999
1
1
1
1
1
1.00001
1.00001
1.00001
1
0.999984
0.999954
0.99992
0.999893
0.999883
0.999893
0.99992
0.999954
0.999984
1
1.00001
1.00001
1.00001
1
1
1
1
0.999999
0.999998
0.999998
0.999997
0.999997
0.999997
0.999997
0.999997
0.999997
0.999997
0.999997
0.999997
0.999998
0.999998
0.999999
1
1
1
1
1
1
1.00001
1.00001
1.00001
0.999999
0.99999
0.999982
0.999979
0.999982
0.99999
0.999999
1.00001
1.00001
1.00001
1.00001
1
1
1
1
0.999999
0.999998
0.999997
0.999996
0.999996
0.999997
1
1
1
1
1
0.999997
0.999996
0.999996
0.999997
0.999998
0.999999
0.999999
1
1
1
1
1
1.00001
1.00001
1.00001
1.00001
1
1
1
1.00001
1.00001
1.00001
1.00001
1
1
1
1
1
0.999999
0.999998
0.999996
0.999995
0.999996
1
1.00001
1.00002
1.00003
1.00004
1.00003
1.00002
1.00001
1
0.999996
0.999995
0.999996
0.999997
0.999998
1
1
1
1
1
1
1
1
1
1
1
1
1
1
1
1
1
1
1
1
0.999999
0.999998
0.999996
0.999994
0.999997
1.00001
1.00003
1.00006
1.0001
1.00013
1.00014
1.00013
1.0001
1.00006
1.00003
1.00001
0.999997
0.999994
0.999995
0.999996
1
1
1
1
1
1
1
1
1
1
1
1
1
1
1
1
1
1
1
0.999999
0.999998
0.999996
0.999994
0.999997
1.00001
1.00005
1.00012
1.0002
1.00028
1.00034
1.00036
1.00034
1.00028
1.0002
1.00012
1.00005
1.00001
0.999997
0.999993
0.999994
1
1
1
1
1
1
1
1
1
1
1
1
1
1
1
1
1
1
0.999999
0.999998
0.999997
0.999995
0.999997
1.00001
1.00006
1.00015
1.00029
1.00046
1.0006
1.0007
1.00073
1.0007
1.0006
1.00046
1.00029
1.00015
1.00006
1.00001
0.999995
0.999991
1
1
1
1
1
1
1
1
1
1
1
1
1
1
1
1
1
1
0.999999
0.999998
0.999996
0.999996
1.00001
1.00005
1.00015
1.00033
1.00057
1.00082
1.001
1.00109
1.00112
1.00109
1.001
1.00082
1.00057
1.00033
1.00015
1.00005
1.00001
0.999991
1
1
1
1
1
1
1
1
1
1
1
1
1
1
1
1
1
0.999999
0.999999
0.999997
0.999996
1
1.00003
1.00012
1.00029
1.00057
1.0009
1.00117
1.00129
1.00127
1.00125
1.00127
1.00129
1.00117
1.0009
1.00057
1.00029
1.00011
1.00003
0.999997
1
1
1
1
1
1
1
1
1
1
1
1
1
1
1
1
1
0.999999
0.999998
0.999997
0.999997
1.00001
1.00006
1.0002
1.00046
1.00082
1.00117
1.00133
1.00121
1.00095
1.00081
1.00095
1.00121
1.00133
1.00117
1.00082
1.00046
1.0002
1.00006
1.00001
1
1
1
1
1
1
1
1
1
1
1
1
1
1
1
1
1
0.999999
0.999998
0.999997
1
1.00002
1.0001
1.00028
1.0006
1.001
1.00129
1.00121
1.00071
1.00009
0.999816
1.00009
1.00071
1.00121
1.00129
1.001
1.0006
1.00028
1.0001
1.00002
1
1
1
1
1
1
1
1
1
1
1
1
1
1
1
1
1
0.999999
0.999998
0.999997
1
1.00003
1.00013
1.00034
1.0007
1.00109
1.00127
1.00095
1.00009
0.999155
0.998746
0.999155
1.00009
1.00095
1.00127
1.00109
1.0007
1.00034
1.00013
1.00004
1
1
1
1
1
1
1
1
1
1
1
1
1
1
1
1
1
0.999999
0.999998
0.999997
1
1.00004
1.00014
1.00036
1.00073
1.00112
1.00125
1.00081
0.999816
0.998746
0.998286
0.998746
0.999816
1.00081
1.00125
1.00112
1.00073
1.00036
1.00014
1.00004
1
1
1
1
1
1
1
1
1
1
1
1
1
1
1
1
1
0.999999
0.999998
0.999997
1
1.00003
1.00013
1.00034
1.0007
1.00109
1.00127
1.00095
1.00009
0.999155
0.998746
0.999155
1.00009
1.00095
1.00127
1.00109
1.0007
1.00034
1.00013
1.00004
1
1
1
1
1
1
1
1
1
1
1
1
1
1
1
1
1
0.999999
0.999998
0.999997
1
1.00002
1.0001
1.00028
1.0006
1.001
1.00129
1.00121
1.00071
1.00009
0.999816
1.00009
1.00071
1.00121
1.00129
1.001
1.0006
1.00028
1.0001
1.00002
1
1
1
1
1
1
1
1
1
1
1
1
1
1
1
1
1
0.999999
0.999998
0.999997
0.999997
1.00001
1.00006
1.0002
1.00046
1.00082
1.00117
1.00133
1.00121
1.00095
1.00081
1.00095
1.00121
1.00133
1.00117
1.00082
1.00046
1.0002
1.00006
1.00001
1
1
1
1
1
1
1
1
1
1
1
1
1
1
1
1
1
0.999999
0.999999
0.999997
0.999996
1
1.00003
1.00012
1.00029
1.00057
1.0009
1.00117
1.00129
1.00127
1.00125
1.00127
1.00129
1.00117
1.0009
1.00057
1.00029
1.00011
1.00003
0.999997
1
1
1
1
1
1
1
1
1
1
1
1
1
1
1
1
1
1
0.999999
0.999998
0.999996
0.999996
1.00001
1.00005
1.00015
1.00033
1.00057
1.00082
1.001
1.00109
1.00112
1.00109
1.001
1.00082
1.00057
1.00033
1.00015
1.00005
1.00001
0.999991
1
1
1
1
1
1
1
1
1
1
1
1
1
1
1
1
1
1
0.999999
0.999998
0.999997
0.999995
0.999997
1.00001
1.00006
1.00015
1.00029
1.00046
1.0006
1.0007
1.00073
1.0007
1.0006
1.00046
1.00029
1.00015
1.00006
1.00001
0.999995
0.999991
1
1
1
1
1
1
1
1
1
1
1
1
1
1
1
1
1
1
1
0.999999
0.999998
0.999996
0.999994
0.999997
1.00001
1.00005
1.00011
1.0002
1.00028
1.00034
1.00036
1.00034
1.00028
1.0002
1.00011
1.00005
1.00001
0.999996
0.999993
0.999994
1
1
1
1
1
1
1
1
1
1
1
1
1
1
1
1
1
1
1
1
0.999999
0.999997
0.999995
0.999993
0.999995
1.00001
1.00003
1.00006
1.0001
1.00013
1.00014
1.00013
1.0001
1.00006
1.00003
1.00001
0.999995
0.999993
0.999995
0.999996
1
1
1
1
1
1
1
1
1
1
1
1
1
1
1
1
1
1
1
1
0.999999
0.999998
0.999996
0.999994
0.999991
0.999991
0.999997
1.00001
1.00002
1.00004
1.00004
1.00004
1.00002
1.00001
0.999997
0.999991
0.999991
0.999994
0.999996
0.999998
SCALARS C2 double 1
LOOKUP_TABLE default
2
2
2
1.99999
1.99998
1.99997
1.99996
1.99996
1.99995
1.99995
1.99995
1.99995
1.99995
1.99996
1.99996
1.99997
1.99998
1.99999
2
2
2
2
2
2
2
2
2
2
2
2
2
2
2
2
2
2
2
2
2
2
2
2
1.99999
1.99998
1.99997
1.99996
1.99996
1.99997
1.99998
2
2.00001
2
1.99998
1.99997
1.99996
1.99996
1.99997
1.99998
1.99999
2
2
2
2
2
2
2
2
2
2
2
2
2
2
2
2
2
2
2
2
2
2
1.99999
1.99998
1.99997
1.99996
1.99996
1.99999
2.00005
2.00014
2.00021
2.00024
2.00021
2.00014
2.00005
1.99999
1.99996
1.99996
1.99997
1.99998
1.99999
2
2
2
2
2
2
2
2
2
2
2
2
2
2
2
2
2
2
2
2
1.99999
1.99998
1.99997
1.99996
1.99996
2.00001
2.00015
2.00037
2.00063
2.00083
2.00091
2.00083
2.00063
2.00037
2.00015
2.00001
1.99996
1.99996
1.99997
1.99999
1.99999
2
2
2
2
2
2
2
2
2
2
2
2
2
2
2
2
2
2
2
1.99998
1.99997
1.99996
1.99996
2.00003
2.00023
2.00062
2.00117
2.00174
2.00217
2.00233
2.00217
2.00174
2.00117
2.00062
2.00023
2.00003
1.99996
1.99996
1.99997
1.99999
2
2
2
2
2
2
2
2
2
2
2
2
2
2
2
2
2
2
2
1.99997
1.99996
1.99996
2.00001
2.00023
2.00073
2.00156
2.00262
2.00364
2.00435
2.0046
2.00435
2.00364
2.00262
2.00156
2.00073
2.00023
2.00001
1.99996
1.99997
1.99998
1.99999
2
2
2
2
2
2
2
2
2
2
2
2
2
2
2
2
2
2
1.99996
1.99996
1.99999
2.00015
2.00062
2.00156
2.00298
2.00464
2.00608
2.00696
2.00724
2.00696
2.00608
2.00464
2.00298
2.00156
2.00062
2.00015
1.99999
1.99996
1.99997
1.99999
2
2
2
2
2
2
2
2
2
2
2
2
2
2
2
2
2
2
1.99996
1.99997
2.00005
2.00037
2.00117
2.00262
2.00464
2.00674
2.00829
2.00902
2.0092
2.00902
2.00829
2.00674
2.00464
2.00262
2.00117
2.00037
2.00005
1.99997
1.99997
1.99998
1.99999
2
2
2
2
2
2
2
2
2
2
2
2
2
2
2
2
2
1.99995
1.99998
2.00014
2.00063
2.00174
2.00364
2.00608
2.00829
2.0095
2.0097
2.00961
2.0097
2.0095
2.00829
2.00608
2.00364
2.00174
2.00063
2.00014
1.99999
1.99997
1.99998
1.99999
2
2
2
2
2
2
2
2
2
2
2
2
2
2
2
2
2
1.99995
2
2.00021
2.00083
2.00217
2.00435
2.00696
2.00902
2.0097
2.00924
2.00884
2.00924
2.0097
2.00902
2.00696
2.00435
2.00217
2.00083
2.00021
2.00001
1.99997
1.99998
1.99999
2
2
2
2
2
2
2
2
2
2
2
2
2
2
2
2
2
1.99995
2.00001
2.00024
2.00091
2.00233
2.0046
2.00724
2.0092
2.00961
2.00884
2.00831
2.00884
2.00961
2.0092
2.00724
2.0046
2.00233
2.00091
2.00024
2.00002
1.99997
1.99998
1.99999
2
2
2
2
2
2
2
2
2
2
2
2
2
2
2
2
2
1.99995
2
2.00021
2.00083
2.00217
2.00435
2.00696
2.00902
2.0097
2.00924
2.00884
2.00924
2.0097
2.00902
2.00696
2.00435
2.00217
2.00083
2.00021
2.00001
1.99997
1.99998
1.99999
2
2
2
2
2
2
2
2
2
2
2
2
2
2
2
2
2
1.99995
1.99998
2.00014
2.00063
2.00174
2.00364
2.00608
2.00829
2.0095
2.0097
2.00961
2.0097
2.0095
2.00829
2.00608
2.00364
2.00174
2.00063
2.00014
1.99999
1.99997
1.99998
1.99999
2
2
2
2
2
2
2
2
2
2
2
2
2
2
2
2
2
1.99996
1.99997
2.00005
2.00037
2.00117
2.00262
2.00464
2.00674
2.00829
2.00902
2.0092
2.00902
2.00829
2.00674
2.00464
2.00262
2.00117
2.00037
2.00005
1.99997
1.99997
1.99998
1.99999
2
2
2
2
2
2
2
2
2
2
2
2
2
2
2
2
2
1.99996
1.99996
1.99999
2.00015
2.00062
2.00156
2.00298
2.00464
2.00608
2.00696
2.00724
2.00696
2.00608
2.00464
2.00298
2.00156
2.00062
2.00015
1.99999
1.99996
1.99997
1.99999
2
2
2
2
2
2
2
2
2
2
2
2
2
2
2
2
2
2
1.99997
1.99996
1.99996
2.00001
2.00023
2.00073
2.00156
2.00262
2.00364
2.00435
2.0046
2.00435
2.00364
2.00262
2.00156
2.00073
2.00023
2.00001
1.99996
1.99997
1.99998
1.99999
2
2
2
2
2
2
2
2
2
2
2
2
2
2
2
2
2
2
1.99998
1.99997
1.99996
1.99996
2.00003
2.00023
2.00062
2.00117
2.00174
2.00217
2.00233
2.00217
2.00174
2.00117
2.00062
2.00023
2.00003
1.99996
1.99996
1.99997
1.99999
2
2
2
2
2
2
2
2
2
2
2
2
2
2
2
2
2
2
2
1.99999
1.99998
1.99997
1.99996
1.99996
2.00001
2.00015
2.00037
2.00063
2.00083
2.00091
2.00083
2.00063
2.00037
2.00015
2.00001
1.99996
1.99996
1.99997
1.99999
1.99999
2
2
2
2
2
2
2
2
2
2
2
2
2
2
2
2
2
2
2
2
1.99999
1.99998
1.99997
1.99996
1.99996
1.99999
2.00005
2.00014
2.00021
2.00024
2.00021
2.00014
2.00005
1.99999
1.99996
1.99996
1.99997
1.99998
1.99999
2
2
2
2
2
2
2
2
2
2
2
2
2
2
2
2
2
2
2
2
2
2
1.99999
1.99999
1.99997
1.99997
1.99996
1.99997
1.99999
2.00001
2.00002
2.00001
1.99999
1.99997
1.99996
1.99997
1.99997
1.99999
1.99999
2
2
2
2
2
2
2
2
2.00001
2.00001
2.00001
2.00001
2.00001
2.00001
2.00001
2
2
2
2
2
2
2
2
2
1.99999
1.99999
1.99998
1.99997
1.99997
1.99997
1.99997
1.99997
1.99997
1.99997
1.99997
1.99997
1.99998
1.99999
1.99999
2
2
2
2
2
2
2
2.00001
2.00001
2.00001
2.00002
2.00002
2.00002
2.00002
2.00002
2.00001
2.00001
2.00001
2
2
2
2
2
2
2
2
2
1.99999
1.99999
1.99998
1.99998
1.99998
1.99998
1.99998
1.99998
1.99998
1.99999
1.99999
2
2
2
2
2
2
2
2.00001
2.00001
2.00002
2.00002
2.00002
2.00002
2.00001
2.00001
2.00001
2.00002
2.00002
2.00002
2.00002
2.00001
2.00001
2
2
2
2
2
2
2
2
2
1.99999
1.99999
1.99999
1.99999
1.99999
1.99999
1.99999
2
2
2
2
2
2
2
2
2.00001
2.00001
2.00002
2.00003
2.00002
2
1.99997
1.99995
1.99994
1.99995
1.99997
2
2.00002
2.00003
2.00002
2.00001
2.00001
2
2
2
2
2
2
2
2
2
2
2
2
2
2
2
2
2
2
2
2
2
2
2.00001
2.00001
2.00002
2.00003
2.00002
1.99997
1.9999
1.9998
1.99972
1.99969
1.99972
1.9998
1.9999
1.99997
2.00002
2.00003
2.00002
2.00001
2.00001
2
2
2
2
2
2
2
2
2
2
2
2
2
2
2
2
2
2
2
2
2
2.00001
2.00002
2.00003
2.00001
1.99995
1.99981
1.9996
1.99935
1.99916
1.99909
1.99916
1.99935
1.9996
1.99981
1.99995
2.00001
2.00003
2.00002
2.00002
2
2
2
2
2
2
2
2
2
2
2
2
2
2
2
2
2
2
2
2
2.00001
2.00002
2.00003
2.00002
1.99995
1.99977
1.99944
1.99898
1.99851
1.99816
1.99803
1.99816
1.99851
1.99898
1.99944
1.99977
1.99995
2.00002
2.00003
2.00002
2
2
2
2
2
2
2
2
2
2
2
2
2
2
2
2
2
2
2
2
2.00001
2.00002
2.00002
1.99997
1.99981
1.99944
1.99883
1.99804
1.99729
1.99677
1.99659
1.99677
1.99729
1.99804
1.99883
1.99944
1.99981
1.99998
2.00002
2.00003
2
2
2
2
2
2
2
2
2
2
2
2
2
2
2
2
2
2
2
2.00001
2.00001
2.00002
2
1.9999
1.9996
1.99898
1.99804
1.99693
1.99597
1.99538
1.99519
1.99538
1.99597
1.99693
1.99804
1.99898
1.9996
1.9999
2.00001
2.00003
2
2
2
2
2
2
2
2
2
2
2
2
2
2
2
2
2
2
2
2.00001
2.00002
2.00002
1.99997
1.9998
1.99935
1.99851
1.99729
1.99597
1.99496
1.99445
1.99432
1.99445
1.99496
1.99597
1.99729
1.99851
1.99935
1.9998
1.99998
2.00003
2
2
2
2
2
2
2
2
2
2
2
2
2
2
2
2
2
2
2
2.00001
2.00002
2.00001
1.99995
1.99972
1.99916
1.99816
1.99677
1.99538
1.99445
1.9941
1.99405
1.9941
1.99445
1.99538
1.99677
1.99816
1.99917
1.99972
1.99996
2.00003
2
2
2
2
2
2
2
2
2
2
2
2
2
2
2
2
2
2
2
2.00001
2.00002
2.00001
1.99994
1.99969
1.99909
1.99803
1.99659
1.99519
1.99432
1.99405
1.99405
1.99405
1.99432
1.99519
1.99659
1.99803
1.99909
1.99969
1.99995
2.00002
2
2
2
2
2
2
2
2
2
2
2
2
2
2
2
2
2
2
2
2.00001
2.00002
2.00001
1.99995
1.99972
1.99916
1.99816
1.99677
1.99538
1.99445
1.9941
1.99405
1.9941
1.99445
1.99538
1.99677
1.99816
1.99917
1.99972
1.99996
2.00003
2
2
2
2
2
2
2
2
2
2
2
2
2
2
2
2
2
2
2
2.00001
2.00002
2.00002
1.99997
1.9998
1.99935
1.99851
1.99729
1.99597
1.99496
1.99445
1.99432
1.99445
1.99496
1.99597
1.99729
1.99851
1.99935
1.9998
1.99998
2.00003
2
2
2
2
2
2
2
2
2
2
2
2
2
2
2
2
2
2
2
2.00001
2.00001
2.00002
2
1.9999
1.9996
1.99898
1.99804
1.99693
1.99597
1.99538
1.99519
1.99538
1.99597
1.99693
1.99804
1.99898
1.9996
1.9999
2.00001
2.00003
2
2
2
2
2
2
2
2
2
2
2
2
2
2
2
2
2
2
2
2
2.00001
2.00002
2.00002
1.99997
1.99981
1.99944
1.99883
1.99804
1.99729
1.99677
1.99659
1.99677
1.99729
1.99804
1.99883
1.99944
1.99981
1.99998
2.00002
2.00003
2
2
2
2
2
2
2
2
2
2
2
2
2
2
2
2
2
2
2
2
2.00001
2.00002
2.00003
2.00002
1.99995
1.99977
1.99944
1.99898
1.99851
1.99816
1.99803
1.99816
1.99851
1.99898
1.99944
1.99977
1.99995
2.00002
2.00003
2.00002
2
2
2
2
2
2
2
2
2
2
2
2
2
2
2
2
2
2
2
2
2
2.00001
2.00002
2.00003
2.00001
1.99995
1.99981
1.9996
1.99935
1.99917
1.99909
1.99917
1.99935
1.9996
1.99981
1.99995
2.00001
2.00003
2.00002
2.00002
2
2
2
2
2
2
2
2
2
2
2
2
2
2
2
2
2
2
2
2
2
2.00001
2.00001
2.00002
2.00003
2.00002
1.99998
1.9999
1.9998
1.99972
1.99969
1.99972
1.9998
1.9999
1.99998
2.00002
2.00003
2.00002
2.00001
2.00001
2
2
2
2
2
2
2
2
2
2
2
2
2
2
2
2
2
2
2
2
2
2
2.00001
2.00001
2.00002
2.00003
2.00002
2.00001
1.99998
1.99996
1.99995
1.99996
1.99998
2.00001
2.00002
2.00003
2.00002
2.00001
2.00001
2
2
2
2
2
2
2
2
2
2
2
2
2
2
2
2
2
2
2
2
2
2
2
2
2.00001
2.00002
2.00002
2.00003
2.00003
2.00003
2.00003
2.00002
2.00003
2.00003
2.00003
2.00003
2.00002
2.00002
2.00001
2
2
