# vtk DataFile Version 3.0
Brusselator Concentration Output
ASCII
DATASET STRUCTURED_POINTS
DIMENSIONS 40 40 1
ORIGIN 0.0 0.0 0.0
SPACING 0.005 0.005 1.0
POINT_DATA 1600
SCALARS C1 double 1
LOOKUP_TABLE default
0.9999
0.999886
0.999866
0.999853
0.99986
0.999895
0.999955
1.00003
1.0001
1.00015
1.00017
1.00015
1.0001
1.00003
0.999954
0.999894
0.99986
0.999854
0.999873
0.999903
0.999936
0.999964
0.999983
0.999994
0.999999
1
1
1
1
1
1
1
1
1
1
1
1
1
1
1
0.999886
0.99988
0.999878
0.999894
0.999941
1.00002
1.00013
1.00026
1.00037
1.00045
1.00047
1.00045
1.00037
1.00026
1.00013
1.00002
0.999941
0.999897
0.999888
0.999903
0.99993
0.999956
0.999977
0.99999
0.999997
1
1
1
1
1
1
1
1
1
1
1
1
1
1
1
0.999866
0.999878
0.999914
0.999989
1.00011
1.00029
1.0005
1.00071
1.00089
1.00101
1.00105
1.00101
1.00089
1.00071
1.0005
1.00029
1.00012
0.999995
0.99993
0.999912
0.999922
0.999944
0.999967
0.999983
0.999993
0.999998
1
1
1
1
1
1
1
1
1
1
1
1
1
1
0.999853
0.999894
0.999989
1.00015
1.00039
1.0007
1.00103
1.00136
1.00162
1.00179
1.00185
1.00179
1.00162
1.00135
1.00103
1.0007
1.0004
1.00016
1.00001
0.99994
0.999921
0.999932
0.999954
0.999975
0.999988
0.999996
0.999999
1
1
1
1
1
1
1
1
1
1
1
1
1
0.99986
0.999941
1.00011
1.00039
1.00077
1.00123
1.0017
1.00214
1.00248
1.0027
1.00277
1.0027
1.00248
1.00214
1.0017
1.00123
1.00078
1.00041
1.00015
0.999998
0.999934
0.999926
0.999943
0.999965
0.999982
0.999993
0.999998
1
1
1
1
1
1
1
1
1
1
1
1
1
0.999895
1.00002
1.00029
1.0007
1.00123
1.00183
1.00243
1.00295
1.00335
1.00359
1.00367
1.00359
1.00335
1.00295
1.00243
1.00183
1.00124
1.00072
1.00033
1.00009
0.999966
0.999928
0.999935
0.999956
0.999976
0.999989
0.999996
0.999999
1
1
1
1
1
1
1
1
1
1
1
1
0.999955
1.00013
1.0005
1.00103
1.0017
1.00243
1.00312
1.00369
1.0041
1.00435
1.00442
1.00435
1.0041
1.00369
1.00312
1.00243
1.00172
1.00106
1.00055
1.0002
1.00001
0.99994
0.999931
0.999949
0.99997
0.999986
0.999995
0.999999
1
1
1
1
1
1
1
1
1
1
1
1
1.00003
1.00026
1.00071
1.00136
1.00214
1.00295
1.00369
1.00427
1.00467
1.00488
1.00495
1.00488
1.00467
1.00427
1.00369
1.00296
1.00215
1.00139
1.00076
1.00033
1.00007
0.999958
0.999932
0.999944
0.999965
0.999983
0.999993
0.999998
1
1
1
1
1
1
1
1
1
1
1
1
1.0001
1.00037
1.00089
1.00162
1.00248
1.00335
1.0041
1.00467
1.00502
1.0052
1.00525
1.0052
1.00502
1.00467
1.00411
1.00336
1.0025
1.00166
1.00095
1.00043
1.00012
0.999978
0.999935
0.999941
0.999962
0.99998
0.999992
0.999998
1
1
1
1
1
1
1
1
1
1
1
1
1.00015
1.00045
1.00101
1.00179
1.0027
1.00359
1.00435
1.00488
1.0052
1.00534
1.00538
1.00534
1.0052
1.00488
1.00435
1.0036
1.00272
1.00183
1.00107
1.00051
1.00016
0.999993
0.999938
0.99994
0.99996
0.999979
0.999991
0.999997
0.999999
1
1
1
1
1
1
1
1
1
1
1
1.00017
1.00047
1.00105
1.00185
1.00277
1.00367
1.00442
1.00495
1.00525
1.00538
1.00541
1.00538
1.00525
1.00495
1.00443
1.00368
1.00279
1.00189
1.00111
1.00053
1.00018
0.999998
0.999939
0.999939
0.999959
0.999978
0.999991
0.999997
0.999999
1
1
1
1
1
1
1
1
1
1
1
1.00015
1.00045
1.00101
1.00179
1.0027
1.00359
1.00435
1.00488
1.0052
1.00534
1.00538
1.00534
1.00519
1.00488
1.00435
1.0036
1.00272
1.00183
1.00107
1.00051
1.00016
0.999993
0.999938
0.999939
0.99996
0.999979
0.999991
0.999997
0.999999
1
1
1
1
1
1
1
1
1
1
1
1.0001
1.00037
1.00089
1.00162
1.00248
1.00335
1.0041
1.00467
1.00502
1.0052
1.00525
1.00519
1.00502
1.00467
1.00411
1.00336
1.0025
1.00166
1.00095
1.00043
1.00012
0.999978
0.999934
0.999941
0.999962
0.99998
0.999992
0.999997
1
1
1
1
1
1
1
1
1
1
1
1
1.00003
1.00026
1.00071
1.00135
1.00214
1.00295
1.00369
1.00427
1.00467
1.00488
1.00495
1.00488
1.00467
1.00427
1.00369
1.00296
1.00215
1.00139
1.00076
1.00033
1.00007
0.999958
0.999931
0.999944
0.999965
0.999983
0.999993
0.999999
1
1
1
1
1
1
1
1
1
1
1
1
0.999954
1.00013
1.0005
1.00103
1.0017
1.00243
1.00312
1.00369
1.00411
1.00435
1.00443
1.00435
1.00411
1.00369
1.00312
1.00243
1.00172
1.00106
1.00055
1.0002
1.00001
0.99994
0.999931
0.999949
0.999971
0.999987
0.999996
1
1
1
1
1
1
1
1
1
1
1
1
1
0.999894
1.00002
1.00029
1.0007
1.00123
1.00183
1.00243
1.00296
1.00336
1.0036
1.00368
1.0036
1.00336
1.00296
1.00243
1.00184
1.00124
1.00072
1.00033
1.00009
0.999966
0.999928
0.999935
0.999957
0.999978
0.999993
1
1.00001
1.00001
1.00001
1.00001
1.00001
1.00001
1.00001
1.00001
1
1
1
1
1
0.99986
0.999941
1.00012
1.0004
1.00078
1.00124
1.00172
1.00215
1.0025
1.00272
1.00279
1.00272
1.0025
1.00215
1.00172
1.00124
1.00079
1.00042
1.00015
0.999998
0.999934
0.999927
0.999945
0.999969
0.999989
1
1.00001
1.00001
1.00002
1.00002
1.00002
1.00002
1.00002
1.00001
1.00001
1.00001
1.00001
1
1
1
0.999854
0.999897
0.999995
1.00016
1.00041
1.00072
1.00106
1.00139
1.00166
1.00183
1.00189
1.00183
1.00166
1.00139
1.00106
1.00072
1.00042
1.00018
1.00002
0.999944
0.999923
0.999936
0.99996
0.999984
1
1.00002
1.00002
1.00003
1.00003
1.00003
1.00003
1.00003
1.00003
1.00003
1.00002
1.00002
1.00001
1.00001
1.00001
1
0.999873
0.999888
0.99993
1.00001
1.00015
1.00033
1.00055
1.00076
1.00095
1.00107
1.00111
1.00107
1.00095
1.00076
1.00055
1.00033
1.00015
1.00002
0.999948
0.999923
0.999931
0.999954
0.99998
1
1.00002
1.00003
1.00004
1.00004
1.00004
1.00004
1.00004
1.00004
1.00004
1.00004
1.00004
1.00003
1.00003
1.00002
1.00002
1.00001
0.999903
0.999903
0.999912
0.99994
0.999998
1.00009
1.0002
1.00033
1.00043
1.00051
1.00053
1.00051
1.00043
1.00033
1.0002
1.00009
0.999998
0.999944
0.999923
0.999929
0.999951
0.999978
1
1.00002
1.00004
1.00004
1.00004
1.00004
1.00003
1.00003
1.00003
1.00003
1.00003
1.00004
1.00004
1.00004
1.00004
1.00003
1.00003
1.00003
0.999936
0.99993
0.999922
0.999921
0.999934
0.999966
1.00001
1.00007
1.00012
1.00016
1.00018
1.00016
1.00012
1.00007
1.00001
0.999966
0.999934
0.999923
0.999931
0.999951
0.999977
1
1.00002
1.00004
1.00004
1.00004
1.00003
1.00001
0.999992
0.999979
0.999974
0.999978
0.999991
1.00001
1.00003
1.00004
1.00005
1.00005
1.00005
1.00004
0.999964
0.999956
0.999944
0.999932
0.999926
0.999928
0.99994
0.999958
0.999978
0.999993
0.999998
0.999993
0.999978
0.999958
0.99994
0.999928
0.999927
0.999936
0.999954
0.999978
1
1.00002
1.00004
1.00004
1.00003
1.00001
0.999967
0.999923
0.999882
0.999853
0.999842
0.999853
0.999881
0.999922
0.999966
1.00001
1.00004
1.00005
1.00006
1.00006
0.999983
0.999977
0.999967
0.999954
0.999943
0.999935
0.999931
0.999932
0.999935
0.999938
0.999939
0.999938
0.999934
0.999931
0.999931
0.999935
0.999945
0.99996
0.99998
1
1.00002
1.00004
1.00004
1.00003
0.999986
0.999921
0.99984
0.999754
0.999679
0.999627
0.999609
0.999627
0.999678
0.999754
0.99984
0.999923
0.999992
1.00004
1.00007
1.00008
0.999994
0.99999
0.999983
0.999975
0.999965
0.999956
0.999949
0.999944
0.999941
0.99994
0.999939
0.999939
0.999941
0.999944
0.999949
0.999957
0.999969
0.999984
1
1.00002
1.00004
1.00004
1.00003
0.999978
0.999892
0.999772
0.999633
0.999493
0.999374
0.999294
0.999266
0.999294
0.999373
0.999493
0.999634
0.999776
0.999902
0.999997
1.00006
1.00009
0.999999
0.999997
0.999993
0.999988
0.999982
0.999976
0.99997
0.999965
0.999962
0.99996
0.999959
0.99996
0.999962
0.999965
0.999971
0.999978
0.999989
1
1.00002
1.00004
1.00004
1.00003
0.999986
0.999892
0.999746
0.999559
0.99935
0.99915
0.998985
0.998877
0.99884
0.998877
0.998985
0.99915
0.999353
0.999565
0.999761
0.999918
1.00002
1.00008
1
1
0.999998
0.999996
0.999993
0.999989
0.999986
0.999983
0.99998
0.999979
0.999978
0.999979
0.99998
0.999983
0.999987
0.999993
1
1.00002
1.00003
1.00004
1.00004
1.00001
0.999921
0.999772
0.999559
0.999297
0.999019
0.998762
0.998557
0.998426
0.998381
0.998426
0.998557
0.998763
0.999023
0.999307
0.999578
0.999804
0.999963
1.00004
1
1
1
0.999999
0.999998
0.999996
0.999995
0.999993
0.999992
0.999991
0.999991
0.999991
0.999992
0.999993
0.999996
1
1.00001
1.00002
1.00004
1.00004
1.00003
0.999967
0.99984
0.999633
0.99935
0.999019
0.998681
0.998379
0.998146
0.998001
0.997953
0.998001
0.998146
0.998381
0.998686
0.999032
0.999374
0.999669
0.999882
0.999993
1
1
1
1
1
0.999999
0.999999
0.999998
0.999998
0.999997
0.999997
0.999997
0.999997
0.999999
1
1.00001
1.00001
1.00003
1.00004
1.00004
1.00001
0.999923
0.999754
0.999493
0.99915
0.998762
0.998379
0.998048
0.997802
0.997654
0.997605
0.997654
0.997803
0.998051
0.998385
0.998777
0.999176
0.999531
0.999793
0.999931
1
1
1
1
1
1
1
1
1
0.999999
0.999999
0.999999
1
1
1
1.00001
1.00002
1.00003
1.00004
1.00003
0.999992
0.999882
0.999679
0.999374
0.998985
0.998557
0.998146
0.997802
0.997555
0.99741
0.997363
0.99741
0.997556
0.997805
0.998154
0.998573
0.999014
0.999413
0.999713
0.999873
1
1
1
1
1
1
1
1
1
1
1
1
1
1
1
1.00001
1.00002
1.00003
1.00004
1.00003
0.999979
0.999853
0.999627
0.999294
0.998877
0.998426
0.998001
0.997654
0.99741
0.99727
0.997226
0.99727
0.997411
0.997657
0.99801
0.998444
0.998908
0.999334
0.999657
0.999831
1
1
1
1
1
1
1
1
1
1
1
1
1
1
1
1.00001
1.00002
1.00003
1.00004
1.00003
0.999974
0.999842
0.999609
0.999266
0.99884
0.998381
0.997953
0.997605
0.997363
0.997226
0.997182
0.997226
0.997364
0.997608
0.997962
0.9984
0.998871
0.999306
0.999637
0.999816
1
1
1
1
1
1
1
1
1
1
1
1
1
1
1
1.00001
1.00002
1.00003
1.00004
1.00003
0.999978
0.999853
0.999627
0.999294
0.998877
0.998426
0.998001
0.997654
0.99741
0.99727
0.997226
0.997271
0.997411
0.997657
0.99801
0.998444
0.998907
0.999333
0.999657
0.999831
1
1
1
1
1
1
1
1
1
1
1
1
1
1
1
1.00001
1.00002
1.00003
1.00004
1.00003
0.999991
0.999881
0.999678
0.999373
0.998985
0.998557
0.998146
0.997803
0.997556
0.997411
0.997364
0.997411
0.997556
0.997806
0.998154
0.998574
0.999014
0.999413
0.999712
0.999872
1
1
1
1
1
1
1
1
1
1
1
1
1
1
1
1.00001
1.00001
1.00003
1.00004
1.00004
1.00001
0.999922
0.999754
0.999493
0.99915
0.998763
0.998381
0.998051
0.997805
0.997657
0.997608
0.997657
0.997806
0.998053
0.998387
0.998778
0.999177
0.999531
0.999793
0.999931
1
1
1
1
1
1
1
1
1
1
1
1
1
1
1
1.00001
1.00001
1.00002
1.00004
1.00004
1.00003
0.999966
0.99984
0.999634
0.999353
0.999023
0.998686
0.998385
0.998154
0.99801
0.997962
0.99801
0.998154
0.998387
0.998692
0.999036
0.999376
0.99967
0.999882
0.999993
1
1
1
1
1
1
1
1
1
1
1
1
1
1
1
1
1.00001
1.00002
1.00003
1.00004
1.00004
1.00001
0.999923
0.999776
0.999565
0.999307
0.999032
0.998777
0.998573
0.998444
0.9984
0.998444
0.998574
0.998778
0.999036
0.999316
0.999585
0.999808
0.999966
1.00005
1
1
1
1
1
1
1
1
1
1
1
1
1
1
1
1
1.00001
1.00001
1.00003
1.00004
1.00005
1.00004
0.999992
0.999902
0.999761
0.999578
0.999374
0.999176
0.999014
0.998908
0.998871
0.998907
0.999014
0.999177
0.999376
0.999585
0.999776
0.999928
1.00003
1.00008
1
1
1
1
1
1
1
1
1
1
1
1
1
1
1
1
1
1.00001
1.00002
1.00003
1.00005
1.00005
1.00004
0.999997
0.999918
0.999804
0.999669
0.999531
0.999413
0.999334
0.999306
0.999333
0.999413
0.999531
0.99967
0.999808
0.999928
1.00002
1.00007
1.0001
1
1
1
1
1
1
1
1
1
1
1
1
1
1
1
1
1
1.00001
1.00002
1.00003
1.00005
1.00006
1.00007
1.00006
1.00002
0.999963
0.999882
0.999793
0.999713
0.999657
0.999637
0.999657
0.999712
0.999793
0.999882
0.999966
1.00003
1.00007
1.0001
1.00011
1
1
1
1
1
1
1
1
1
1
1
1
1
1
1
1
1
1
1.00001
1.00003
1.00004
1.00006
1.00008
1.00009
1.00008
1.00004
0.999993
0.999931
0.999873
0.999831
0.999816
0.999831
0.999872
0.999931
0.999993
1.00005
1.00008
1.0001
1.00011
1.00011
SCALARS C2 double 1
LOOKUP_TABLE default
2.00008
2.00012
2.0002
2.00029
2.00039
2.00047
2.00053
2.00055
2.00056
2.00056
2.00055
2.00056
2.00056
2.00055
2.00053
2.00047
2.00039
2.00029
2.0002
2.00012
2.00006
2.00002
2
2
2
2
2
2
2
2
2
2
2
2
2
2
2
2
2
2
2.00012
2.00016
2.00024
2.00032
2.00039
2.00043
2.00043
2.0004
2.00035
2.00031
2.0003
2.00031
2.00035
2.0004
2.00043
2.00043
2.00039
2.00032
2.00023
2.00015
2.00008
2.00004
2.00001
2
2
2
2
2
2
2
2
2
2
2
2
2
2
2
2
2
2.0002
2.00024
2.00029
2.00034
2.00035
2.0003
2.00019
2.00003
1.99988
1.99976
1.99972
1.99976
1.99988
2.00003
2.00019
2.0003
2.00036
2.00034
2.00028
2.00021
2.00013
2.00007
2.00003
2.00001
2
2
2
2
2
2
2
2
2
2
2
2
2
2
2
2
2.00029
2.00032
2.00034
2.00033
2.00022
2.00002
1.99971
1.99937
1.99905
1.99882
1.99874
1.99882
1.99905
1.99937
1.99972
2.00002
2.00022
2.00032
2.00032
2.00026
2.00018
2.00011
2.00005
2.00002
2.00001
2
2
2
2
2
2
2
2
2
2
2
2
2
2
2
2.00039
2.00039
2.00035
2.00022
1.99995
1.99952
1.99896
1.99836
1.99783
1.99746
1.99733
1.99746
1.99783
1.99836
1.99896
1.99952
1.99995
2.00021
2.00032
2.00031
2.00024
2.00015
2.00008
2.00004
2.00001
2
2
2
2
2
2
2
2
2
2
2
2
2
2
2
2.00047
2.00043
2.0003
2.00002
1.99952
1.9988
1.99794
1.99706
1.99629
1.99578
1.99559
1.99578
1.99629
1.99706
1.99794
1.9988
1.99951
1.99999
2.00025
2.00032
2.00028
2.00019
2.00011
2.00005
2.00002
2.00001
2
2
2
2
2
2
2
2
2
2
2
2
2
2
2.00053
2.00043
2.00019
1.99971
1.99896
1.99794
1.99676
1.99559
1.9946
1.99395
1.99372
1.99395
1.9946
1.99559
1.99676
1.99794
1.99895
1.99968
2.00012
2.00029
2.0003
2.00023
2.00014
2.00007
2.00003
2.00001
2
2
2
2
2
2
2
2
2
2
2
2
2
2
2.00055
2.0004
2.00003
1.99937
1.99836
1.99706
1.99559
1.99417
1.993
1.99223
1.99196
1.99223
1.993
1.99417
1.99559
1.99705
1.99835
1.99933
1.99994
2.00024
2.0003
2.00025
2.00016
2.00009
2.00004
2.00001
2
2
2
2
2
2
2
2
2
2
2
2
2
2
2.00056
2.00035
1.99988
1.99905
1.99783
1.99629
1.9946
1.993
1.99169
1.99084
1.99055
1.99084
1.99169
1.993
1.9946
1.99629
1.99781
1.999
1.99978
2.00017
2.0003
2.00027
2.00018
2.0001
2.00005
2.00002
2
2
2
2
2
2
2
2
2
2
2
2
2
2
2.00056
2.00031
1.99976
1.99882
1.99746
1.99578
1.99395
1.99223
1.99084
1.98995
1.98965
1.98995
1.99084
1.99223
1.99395
1.99577
1.99744
1.99877
1.99965
2.00012
2.00028
2.00027
2.00019
2.00011
2.00005
2.00002
2
2
2
2
2
2
2
2
2
2
2
2
2
2
2.00055
2.0003
1.99972
1.99874
1.99733
1.99559
1.99372
1.99196
1.99055
1.98965
1.98934
1.98965
1.99055
1.99196
1.99372
1.99559
1.99731
1.99869
1.99961
2.0001
2.00028
2.00027
2.0002
2.00011
2.00005
2.00002
2
2
2
2
2
2
2
2
2
2
2
2
2
2
2.00056
2.00031
1.99976
1.99882
1.99746
1.99578
1.99395
1.99223
1.99084
1.98995
1.98965
1.98995
1.99084
1.99223
1.99395
1.99577
1.99744
1.99877
1.99965
2.00012
2.00028
2.00027
2.00019
2.00011
2.00005
2.00002
2
2
2
2
2
2
2
2
2
2
2
2
2
2
2.00056
2.00035
1.99988
1.99905
1.99783
1.99629
1.9946
1.993
1.99169
1.99084
1.99055
1.99084
1.99169
1.993
1.99461
1.99629
1.99781
1.999
1.99978
2.00017
2.0003
2.00027
2.00018
2.0001
2.00005
2.00002
2
2
2
2
2
2
2
2
2
2
2
2
2
2
2.00055
2.0004
2.00003
1.99937
1.99836
1.99706
1.99559
1.99417
1.993
1.99223
1.99196
1.99223
1.993
1.99417
1.99559
1.99705
1.99835
1.99933
1.99995
2.00024
2.0003
2.00025
2.00017
2.00009
2.00004
2.00001
2
2
2
2
2
2
2
2
2
2
2
2
2
2
2.00053
2.00043
2.00019
1.99972
1.99896
1.99794
1.99676
1.99559
1.9946
1.99395
1.99372
1.99395
1.99461
1.99559
1.99677
1.99794
1.99895
1.99968
2.00012
2.00029
2.0003
2.00023
2.00014
2.00007
2.00003
2.00001
2
2
2
2
2
2
2
2
2
2
2
2
2
2
2.00047
2.00043
2.0003
2.00002
1.99952
1.9988
1.99794
1.99705
1.99629
1.99577
1.99559
1.99577
1.99629
1.99705
1.99794
1.9988
1.99951
2
2.00025
2.00032
2.00028
2.00019
2.00011
2.00006
2.00002
2
2
1.99999
1.99999
1.99999
1.99999
1.99999
1.99999
2
2
2
2
2
2
2
2.00039
2.00039
2.00036
2.00022
1.99995
1.99951
1.99895
1.99835
1.99781
1.99744
1.99731
1.99744
1.99781
1.99835
1.99895
1.99951
1.99995
2.00021
2.00032
2.00031
2.00024
2.00015
2.00008
2.00004
2.00001
2
1.99999
1.99998
1.99998
1.99998
1.99998
1.99998
1.99998
1.99999
1.99999
1.99999
2
2
2
2
2.00029
2.00032
2.00034
2.00032
2.00021
1.99999
1.99968
1.99933
1.999
1.99877
1.99869
1.99877
1.999
1.99933
1.99968
2
2.00021
2.00032
2.00032
2.00027
2.00019
2.00011
2.00005
2.00002
1.99999
1.99998
1.99997
1.99996
1.99996
1.99995
1.99995
1.99995
1.99996
1.99996
1.99997
1.99998
1.99999
1.99999
2
2
2.0002
2.00023
2.00028
2.00032
2.00032
2.00025
2.00012
1.99994
1.99978
1.99965
1.99961
1.99965
1.99978
1.99995
2.00012
2.00025
2.00032
2.00032
2.00027
2.0002
2.00013
2.00007
2.00002
1.99999
1.99997
1.99995
1.99994
1.99993
1.99992
1.99991
1.99991
1.99991
1.99992
1.99993
1.99994
1.99995
1.99997
1.99998
1.99999
2
2.00012
2.00015
2.00021
2.00026
2.00031
2.00032
2.00029
2.00024
2.00017
2.00012
2.0001
2.00012
2.00017
2.00024
2.00029
2.00032
2.00031
2.00027
2.0002
2.00013
2.00007
2.00003
1.99999
1.99996
1.99993
1.99991
1.99989
1.99988
1.99987
1.99986
1.99986
1.99986
1.99987
1.99988
1.9999
1.99992
1.99994
1.99996
1.99997
1.99998
2.00006
2.00008
2.00013
2.00018
2.00024
2.00028
2.0003
2.0003
2.0003
2.00028
2.00028
2.00028
2.0003
2.0003
2.0003
2.00028
2.00024
2.00019
2.00013
2.00007
2.00003
1.99999
1.99995
1.99992
1.99989
1.99986
1.99984
1.99983
1.99983
1.99982
1.99982
1.99982
1.99983
1.99983
1.99985
1.99987
1.99989
1.99992
1.99994
1.99996
2.00002
2.00004
2.00007
2.00011
2.00015
2.00019
2.00023
2.00025
2.00027
2.00027
2.00027
2.00027
2.00027
2.00025
2.00023
2.00019
2.00015
2.00011
2.00007
2.00003
1.99999
1.99995
1.99991
1.99987
1.99984
1.99982
1.99981
1.99982
1.99983
1.99984
1.99985
1.99984
1.99983
1.99982
1.99981
1.99982
1.99984
1.99987
1.9999
1.99991
2
2.00001
2.00003
2.00005
2.00008
2.00011
2.00014
2.00016
2.00018
2.00019
2.0002
2.00019
2.00018
2.00017
2.00014
2.00011
2.00008
2.00005
2.00002
1.99999
1.99995
1.99991
1.99987
1.99983
1.99981
1.99981
1.99984
1.99988
1.99993
1.99997
1.99999
1.99997
1.99993
1.99988
1.99984
1.99981
1.99981
1.99982
1.99984
1.99986
2
2
2.00001
2.00002
2.00004
2.00005
2.00007
2.00009
2.0001
2.00011
2.00011
2.00011
2.0001
2.00009
2.00007
2.00006
2.00004
2.00002
1.99999
1.99996
1.99992
1.99987
1.99983
1.99981
1.99981
1.99986
1.99996
2.00008
2.00019
2.00028
2.00031
2.00028
2.00019
2.00008
1.99996
1.99986
1.99981
1.99979
1.99979
1.9998
2
2
2
2.00001
2.00001
2.00002
2.00003
2.00004
2.00005
2.00005
2.00005
2.00005
2.00005
2.00004
2.00003
2.00002
2.00001
1.99999
1.99997
1.99993
1.99989
1.99984
1.99981
1.99981
1.99988
2.00001
2.00021
2.00043
2.00063
2.00078
2.00083
2.00078
2.00063
2.00043
2.00021
2.00001
1.99987
1.99978
1.99975
1.99974
2
2
2
2
2
2.00001
2.00001
2.00001
2.00002
2.00002
2.00002
2.00002
2.00002
2.00001
2.00001
2
2
1.99998
1.99995
1.99991
1.99986
1.99982
1.99981
1.99986
2.00001
2.00026
2.00058
2.00093
2.00124
2.00146
2.00154
2.00146
2.00124
2.00093
2.00058
2.00025
1.99999
1.99982
1.99973
1.99969
2
2
2
2
2
2
2
2
2
2
2
2
2
2
2
2
1.99999
1.99997
1.99994
1.99989
1.99984
1.99981
1.99984
1.99996
2.00021
2.00058
2.00105
2.00153
2.00196
2.00225
2.00235
2.00225
2.00196
2.00153
2.00104
2.00057
2.00018
1.9999
1.99973
1.99966
2
2
2
2
2
2
2
2
2
2
2
2
2
2
2
1.99999
1.99998
1.99996
1.99993
1.99988
1.99983
1.99982
1.99988
2.00008
2.00043
2.00093
2.00153
2.00215
2.00267
2.00303
2.00315
2.00303
2.00267
2.00215
2.00153
2.00092
2.00039
2
1.99976
1.99965
2
2
2
2
2
2
2
2
2
2
2
2
2
2
2
1.99999
1.99998
1.99996
1.99992
1.99987
1.99983
1.99983
1.99993
2.00019
2.00063
2.00124
2.00196
2.00267
2.00328
2.00368
2.00382
2.00368
2.00328
2.00267
2.00195
2.00123
2.00059
2.00011
1.9998
1.99966
2
2
2
2
2
2
2
2
2
2
2
2
2
2
2
1.99999
1.99998
1.99995
1.99991
1.99986
1.99982
1.99984
1.99997
2.00028
2.00078
2.00146
2.00225
2.00303
2.00368
2.00412
2.00427
2.00412
2.00368
2.00303
2.00224
2.00144
2.00073
2.00019
1.99984
1.99967
2
2
2
2
2
2
2
2
2
2
2
2
2
2
2
1.99999
1.99998
1.99995
1.99991
1.99986
1.99982
1.99985
1.99999
2.00031
2.00083
2.00154
2.00235
2.00315
2.00382
2.00427
2.00442
2.00427
2.00382
2.00315
2.00234
2.00152
2.00078
2.00022
1.99985
1.99967
2
2
2
2
2
2
2
2
2
2
2
2
2
2
2
1.99999
1.99998
1.99995
1.99991
1.99986
1.99982
1.99984
1.99997
2.00028
2.00078
2.00146
2.00225
2.00303
2.00368
2.00412
2.00427
2.00412
2.00368
2.00303
2.00224
2.00144
2.00073
2.00019
1.99984
1.99967
2
2
2
2
2
2
2
2
2
2
2
2
2
2
2
1.99999
1.99998
1.99996
1.99992
1.99987
1.99983
1.99983
1.99993
2.00019
2.00063
2.00124
2.00196
2.00267
2.00328
2.00368
2.00382
2.00368
2.00328
2.00267
2.00195
2.00123
2.00059
2.00011
1.9998
1.99966
2
2
2
2
2
2
2
2
2
2
2
2
2
2
2
2
1.99999
1.99996
1.99993
1.99988
1.99983
1.99982
1.99988
2.00008
2.00043
2.00093
2.00153
2.00215
2.00267
2.00303
2.00315
2.00303
2.00267
2.00215
2.00153
2.00092
2.00039
2.00001
1.99976
1.99965
2
2
2
2
2
2
2
2
2
2
2
2
2
2
2
2
1.99999
1.99997
1.99994
1.9999
1.99985
1.99981
1.99984
1.99996
2.00021
2.00058
2.00104
2.00153
2.00195
2.00224
2.00234
2.00224
2.00195
2.00153
2.00104
2.00057
2.00018
1.9999
1.99973
1.99966
2
2
2
2
2
2
2
2
2
2
2
2
2
2
2
2
1.99999
1.99998
1.99995
1.99992
1.99987
1.99982
1.99981
1.99986
2.00001
2.00025
2.00057
2.00092
2.00123
2.00144
2.00152
2.00144
2.00123
2.00092
2.00057
2.00024
1.99999
1.99982
1.99973
1.99969
2
2
2
2
2
2
2
2
2
2
2
2
2
2
2
2
2
1.99999
1.99997
1.99994
1.99989
1.99984
1.99981
1.99981
1.99987
1.99999
2.00018
2.00039
2.00059
2.00073
2.00078
2.00073
2.00059
2.00039
2.00018
1.99999
1.99985
1.99978
1.99974
1.99974
2
2
2
2
2
2
2
2
2
2
2
2
2
2
2
2
2
1.99999
1.99998
1.99996
1.99992
1.99987
1.99982
1.99979
1.99978
1.99982
1.9999
2
2.00011
2.00019
2.00022
2.00019
2.00011
2.00001
1.9999
1.99982
1.99978
1.99977
1.99978
1.99979
2
2
2
2
2
2
2
2
2
2
2
2
2
2
2
2
2
2
1.99999
1.99997
1.99994
1.9999
1.99984
1.99979
1.99975
1.99973
1.99973
1.99976
1.9998
1.99984
1.99985
1.99984
1.9998
1.99976
1.99973
1.99973
1.99974
1.99978
1.99982
1.99984
2
2
2
2
2
2
2
2
2
2
2
2
2
2
2
2
2
2
2
1.99998
1.99996
1.99991
1.99986
1.9998
1.99974
1.99969
1.99966
1.99965
1.99966
1.99967
1.99967
1.99967
1.99966
1.99965
1.99966
1.99969
1.99974
1.99979
1.99984
1.99987
