# vtk DataFile Version 3.0
Brusselator Concentration Output
ASCII
DATASET STRUCTURED_POINTS
DIMENSIONS 40 40 1
ORIGIN 0.0 0.0 0.0
SPACING 0.005 0.005 1.0
POINT_DATA 1600
SCALARS C1 double 1
LOOKUP_TABLE default
0.999971
0.999975
0.99999
1.00002
1.00008
1.00015
1.00024
1.00034
1.00042
1.00047
1.00049
1.00047
1.00042
1.00034
1.00024
1.00015
1.00008
1.00002
0.999993
0.999982
0.999983
0.999988
0.999993
0.999997
0.999999
1
1
1
1
1
1
1
1
1
1
1
1
1
1
1
0.999975
0.999988
1.00002
1.00008
1.00016
1.00027
1.00039
1.0005
1.00059
1.00064
1.00066
1.00064
1.00059
1.0005
1.00039
1.00027
1.00016
1.00008
1.00002
0.999996
0.999987
0.999988
0.999992
0.999996
0.999998
0.999999
1
1
1
1
1
1
1
1
1
1
1
1
1
1
0.99999
1.00002
1.00008
1.00019
1.00032
1.00048
1.00064
1.00076
1.00085
1.0009
1.00092
1.0009
1.00085
1.00076
1.00064
1.00048
1.00033
1.00019
1.00009
1.00003
0.999999
0.99999
0.999991
0.999994
0.999997
0.999999
1
1
1
1
1
1
1
1
1
1
1
1
1
1
1.00002
1.00008
1.00019
1.00035
1.00055
1.00075
1.00092
1.00103
1.00108
1.00109
1.00109
1.00109
1.00108
1.00103
1.00092
1.00075
1.00055
1.00035
1.00019
1.00008
1.00002
0.999998
0.999991
0.999993
0.999996
0.999998
0.999999
1
1
1
1
1
1
1
1
1
1
1
1
1
1.00008
1.00016
1.00032
1.00055
1.00079
1.001
1.00112
1.00113
1.00107
1.001
1.00096
1.001
1.00107
1.00113
1.00112
1.001
1.0008
1.00056
1.00033
1.00017
1.00006
1.00001
0.999995
0.999992
0.999994
0.999997
0.999999
1
1
1
1
1
1
1
1
1
1
1
1
1
1.00015
1.00027
1.00048
1.00075
1.001
1.00114
1.00112
1.00094
1.00068
1.00045
1.00036
1.00045
1.00068
1.00094
1.00112
1.00114
1.001
1.00076
1.00049
1.00027
1.00012
1.00004
1
0.999993
0.999993
0.999996
0.999998
0.999999
1
1
1
1
1
1
1
1
1
1
1
1
1.00024
1.00039
1.00064
1.00092
1.00112
1.00112
1.00087
1.0004
0.999858
0.999431
0.999269
0.999431
0.999858
1.0004
1.00087
1.00112
1.00112
1.00092
1.00064
1.00037
1.00018
1.00007
1.00001
0.999995
0.999993
0.999995
0.999998
0.999999
1
1
1
1
1
1
1
1
1
1
1
1
1.00034
1.0005
1.00076
1.00103
1.00113
1.00094
1.0004
0.999597
0.998746
0.998101
0.99786
0.998101
0.998747
0.999597
1.0004
1.00094
1.00114
1.00103
1.00077
1.00047
1.00024
1.0001
1.00003
0.999999
0.999993
0.999995
0.999997
0.999999
1
1
1
1
1
1
1
1
1
1
1
1
1.00042
1.00059
1.00085
1.00108
1.00107
1.00068
0.999858
0.998746
0.997615
0.996775
0.996465
0.996775
0.997615
0.998747
0.999859
1.00068
1.00108
1.00108
1.00085
1.00055
1.00029
1.00012
1.00004
1
0.999994
0.999995
0.999997
0.999999
1
1
1
1
1
1
1
1
1
1
1
1
1.00047
1.00064
1.0009
1.00109
1.001
1.00045
0.999431
0.998101
0.996775
0.995803
0.995446
0.995803
0.996775
0.998101
0.999432
1.00045
1.001
1.0011
1.0009
1.0006
1.00033
1.00014
1.00005
1.00001
0.999994
0.999995
0.999997
0.999999
1
1
1
1
1
1
1
1
1
1
1
1
1.00049
1.00066
1.00092
1.00109
1.00096
1.00036
0.999269
0.99786
0.996465
0.995446
0.995074
0.995446
0.996465
0.997861
0.999271
1.00037
1.00097
1.0011
1.00091
1.00061
1.00034
1.00015
1.00005
1.00001
0.999995
0.999994
0.999997
0.999999
1
1
1
1
1
1
1
1
1
1
1
1
1.00047
1.00064
1.0009
1.00109
1.001
1.00045
0.999431
0.998101
0.996775
0.995803
0.995446
0.995803
0.996775
0.998101
0.999432
1.00045
1.001
1.0011
1.0009
1.0006
1.00033
1.00014
1.00005
1.00001
0.999994
0.999995
0.999997
0.999999
1
1
1
1
1
1
1
1
1
1
1
1
1.00042
1.00059
1.00085
1.00108
1.00107
1.00068
0.999858
0.998747
0.997615
0.996775
0.996465
0.996775
0.997615
0.998747
0.999859
1.00068
1.00108
1.00108
1.00085
1.00055
1.00029
1.00012
1.00004
1
0.999994
0.999995
0.999997
0.999999
1
1
1
1
1
1
1
1
1
1
1
1
1.00034
1.0005
1.00076
1.00103
1.00113
1.00094
1.0004
0.999597
0.998747
0.998101
0.997861
0.998101
0.998747
0.999598
1.0004
1.00094
1.00114
1.00103
1.00077
1.00047
1.00024
1.0001
1.00003
0.999999
0.999993
0.999995
0.999998
0.999999
1
1
1
1
1
1
1
1
1
1
1
1
1.00024
1.00039
1.00064
1.00092
1.00112
1.00112
1.00087
1.0004
0.999859
0.999432
0.999271
0.999432
0.999859
1.0004
1.00087
1.00112
1.00112
1.00092
1.00064
1.00037
1.00018
1.00007
1.00001
0.999995
0.999994
0.999996
0.999999
1
1
1
1
1
1
1
1
1
1
1
1
1
1.00015
1.00027
1.00048
1.00075
1.001
1.00114
1.00112
1.00094
1.00068
1.00045
1.00037
1.00045
1.00068
1.00094
1.00112
1.00114
1.001
1.00076
1.00049
1.00027
1.00012
1.00004
1
0.999994
0.999995
0.999998
1
1
1
1
1
1
1
1
1
1
1
1
1
1
1.00008
1.00016
1.00033
1.00055
1.0008
1.001
1.00112
1.00114
1.00108
1.001
1.00097
1.001
1.00108
1.00114
1.00112
1.001
1.0008
1.00056
1.00033
1.00017
1.00006
1.00001
0.999996
0.999994
0.999997
1
1
1
1
1
1
1
1
1
1
1
1
1
1
1
1.00002
1.00008
1.00019
1.00035
1.00056
1.00076
1.00092
1.00103
1.00108
1.0011
1.0011
1.0011
1.00108
1.00103
1.00092
1.00076
1.00056
1.00036
1.0002
1.00009
1.00003
1
0.999994
0.999996
1
1
1
1
1
1
1
1
1
1
1
1
1
1
1
1
0.999993
1.00002
1.00009
1.00019
1.00033
1.00049
1.00064
1.00077
1.00085
1.0009
1.00091
1.0009
1.00085
1.00077
1.00064
1.00049
1.00033
1.0002
1.0001
1.00003
1
0.999995
0.999996
0.999999
1
1
0.999999
0.999995
0.999991
0.999988
0.999987
0.999988
0.999991
0.999995
1
1
1
1.00001
1.00001
1
0.999982
0.999996
1.00003
1.00008
1.00017
1.00027
1.00037
1.00047
1.00055
1.0006
1.00061
1.0006
1.00055
1.00047
1.00037
1.00027
1.00017
1.00009
1.00003
1.00001
0.999995
0.999995
0.999999
1
0.999998
0.999992
0.999981
0.999969
0.999958
0.999951
0.999948
0.999951
0.999958
0.999969
0.999981
0.999992
1
1.00001
1.00001
1.00001
0.999983
0.999987
0.999999
1.00002
1.00006
1.00012
1.00018
1.00024
1.00029
1.00033
1.00034
1.00033
1.00029
1.00024
1.00018
1.00012
1.00006
1.00003
1
0.999995
0.999995
0.999998
0.999999
0.999994
0.999982
0.999962
0.999937
0.999911
0.999888
0.999873
0.999867
0.999873
0.999888
0.999911
0.999937
0.999962
0.999983
0.999998
1.00001
1.00001
0.999988
0.999988
0.99999
0.999998
1.00001
1.00004
1.00007
1.0001
1.00012
1.00014
1.00015
1.00014
1.00012
1.0001
1.00007
1.00004
1.00001
1
0.999995
0.999995
0.999998
0.999998
0.999991
0.999973
0.999942
0.999901
0.999853
0.999807
0.999769
0.999744
0.999736
0.999744
0.999769
0.999807
0.999853
0.999901
0.999944
0.999977
0.999999
1.00001
0.999993
0.999992
0.999991
0.999991
0.999995
1
1.00001
1.00003
1.00004
1.00005
1.00005
1.00005
1.00004
1.00003
1.00001
1
0.999996
0.999994
0.999996
0.999999
0.999999
0.999991
0.99997
0.99993
0.999872
0.9998
0.999726
0.999658
0.999607
0.999576
0.999566
0.999576
0.999607
0.999659
0.999726
0.999802
0.999875
0.999935
0.999977
0.999997
0.999997
0.999996
0.999994
0.999993
0.999992
0.999993
0.999995
0.999999
1
1.00001
1.00001
1.00001
1
0.999999
0.999995
0.999994
0.999994
0.999996
0.999999
1
0.999994
0.999973
0.99993
0.999861
0.999769
0.999666
0.999569
0.999492
0.999441
0.999414
0.999406
0.999414
0.999441
0.999492
0.99957
0.999668
0.999773
0.999866
0.999935
0.999971
0.999999
0.999998
0.999997
0.999996
0.999994
0.999993
0.999993
0.999993
0.999994
0.999994
0.999995
0.999994
0.999994
0.999993
0.999994
0.999995
0.999997
1
1
0.999998
0.999982
0.999942
0.999872
0.999769
0.999645
0.99952
0.99942
0.99936
0.999336
0.999334
0.999336
0.999334
0.999336
0.99936
0.999421
0.999523
0.999649
0.999774
0.999872
0.999925
1
0.999999
0.999999
0.999998
0.999997
0.999996
0.999995
0.999995
0.999995
0.999995
0.999994
0.999995
0.999995
0.999995
0.999996
0.999998
1
1
1
0.999992
0.999962
0.999901
0.9998
0.999666
0.99952
0.999397
0.999328
0.999324
0.999365
0.999415
0.999437
0.999415
0.999365
0.999324
0.99933
0.9994
0.999525
0.999669
0.999793
0.999863
1
1
1
0.999999
0.999999
0.999998
0.999998
0.999997
0.999997
0.999997
0.999997
0.999997
0.999997
0.999998
0.999999
1
1
1
0.999999
0.999981
0.999937
0.999853
0.999726
0.999569
0.99942
0.999328
0.999328
0.999421
0.999565
0.999691
0.999741
0.999691
0.999565
0.999422
0.99933
0.999332
0.999424
0.999569
0.999707
0.99979
1
1
1
1
1
0.999999
0.999999
0.999999
0.999999
0.999999
0.999999
0.999999
0.999999
0.999999
1
1
1
1
0.999995
0.999969
0.999911
0.999807
0.999658
0.999492
0.99936
0.999324
0.999421
0.999639
0.999905
1.00012
1.00021
1.00012
0.999905
0.99964
0.999424
0.999327
0.999363
0.999487
0.999628
0.999718
1
1
1
1
1
1
1
1
1
1
1
1
1
1
1
1
1
1
0.999991
0.999958
0.999888
0.999769
0.999607
0.999441
0.999336
0.999365
0.999565
0.999905
1.00029
1.00059
1.00071
1.00059
1.00029
0.999906
0.999567
0.999369
0.999338
0.999432
0.999566
0.999657
1
1
1
1
1
1
1
1
1
1
1
1
1
1
1
1
1
1
0.999988
0.999951
0.999873
0.999744
0.999576
0.999414
0.999334
0.999415
0.999691
1.00012
1.00059
1.00095
1.00109
1.00095
1.00059
1.00012
0.999694
0.999419
0.999336
0.999402
0.999527
0.999617
1
1
1
1
1
1
1
1
1
1
1
1
1
1
1
1
1
1
0.999987
0.999948
0.999867
0.999736
0.999566
0.999406
0.999336
0.999437
0.999741
1.00021
1.00071
1.00109
1.00123
1.00109
1.00071
1.00021
0.999744
0.99944
0.999337
0.999393
0.999514
0.999603
1
1
1
1
1
1
1
1
1
1
1
1
1
1
1
1
1
1
0.999988
0.999951
0.999873
0.999744
0.999576
0.999414
0.999334
0.999415
0.999691
1.00012
1.00059
1.00095
1.00109
1.00095
1.00059
1.00012
0.999694
0.999419
0.999336
0.999402
0.999527
0.999617
1
1
1
1
1
1
1
1
1
1
1
1
1
1
1
1
1
1
0.999991
0.999958
0.999888
0.999769
0.999607
0.999441
0.999336
0.999365
0.999565
0.999905
1.00029
1.00059
1.00071
1.00059
1.00029
0.999907
0.999568
0.999369
0.999339
0.999432
0.999566
0.999657
1
1
1
1
1
1
1
1
1
1
1
1
1
1
1
1
1
1
0.999995
0.999969
0.999911
0.999807
0.999659
0.999492
0.99936
0.999324
0.999422
0.99964
0.999906
1.00012
1.00021
1.00012
0.999907
0.999641
0.999425
0.999328
0.999363
0.999487
0.999628
0.999718
1
1
1
1
1
1
1
1
1
1
1
1
1
1
1
1
1
1
1
0.999981
0.999937
0.999853
0.999726
0.99957
0.999421
0.99933
0.99933
0.999424
0.999567
0.999694
0.999744
0.999694
0.999568
0.999425
0.999332
0.999333
0.999426
0.999569
0.999707
0.99979
1
1
1
1
1
1
1
1
1
1
1
1
1
1
1
1
1
1
1
0.999992
0.999962
0.999901
0.999802
0.999668
0.999523
0.9994
0.999332
0.999327
0.999369
0.999419
0.99944
0.999419
0.999369
0.999328
0.999333
0.999403
0.999527
0.999671
0.999794
0.999864
1
1
1
1
1
1
1
1
1
1
1
1
1
1
1
1
1
1
1
1
0.999983
0.999944
0.999875
0.999773
0.999649
0.999525
0.999424
0.999363
0.999338
0.999336
0.999337
0.999336
0.999339
0.999363
0.999426
0.999527
0.999653
0.999778
0.999875
0.999928
1
1
1
1
1
1
1
1
1
1
1
1
1
1
1
1
1
1
1.00001
1.00001
0.999998
0.999977
0.999935
0.999866
0.999774
0.999669
0.999569
0.999487
0.999432
0.999402
0.999393
0.999402
0.999432
0.999487
0.999569
0.999671
0.999778
0.999872
0.99994
0.999976
1
1
1
1
1
1
1
1
1
1
1
1
1
1
1
1
1
1
1.00001
1.00001
1.00001
0.999999
0.999977
0.999935
0.999872
0.999793
0.999707
0.999628
0.999566
0.999527
0.999514
0.999527
0.999566
0.999628
0.999707
0.999794
0.999875
0.99994
0.999984
1.00001
1
1
1
1
1
1
1
1
1
1
1
1
1
1
1
1
1
1
1
1.00001
1.00001
1.00001
0.999997
0.999971
0.999925
0.999863
0.99979
0.999718
0.999657
0.999617
0.999603
0.999617
0.999657
0.999718
0.99979
0.999864
0.999928
0.999976
1.00001
1.00002
SCALARS C2 double 1
LOOKUP_TABLE default
2.00005
2.00006
2.00007
2.00008
2.00006
2.00002
1.99994
1.99986
1.99977
1.99971
1.99968
1.99971
1.99977
1.99986
1.99995
2.00002
2.00006
2.00007
2.00007
2.00005
2.00003
2.00002
2.00001
2
2
2
2
2
2
2
2
2
2
2
2
2
2
2
2
2
2.00006
2.00006
2.00006
2.00004
1.99998
1.99988
1.99974
1.99959
1.99945
1.99935
1.99932
1.99935
1.99945
1.99959
1.99974
1.99988
1.99998
2.00004
2.00005
2.00005
2.00004
2.00002
2.00001
2
2
2
2
2
2
2
2
2
2
2
2
2
2
2
2
2
2.00007
2.00006
2.00002
1.99994
1.99979
1.99957
1.99931
1.99904
1.99881
1.99866
1.99861
1.99866
1.99881
1.99904
1.99931
1.99957
1.99979
1.99994
2.00001
2.00004
2.00004
2.00003
2.00002
2.00001
2
2
2
2
2
2
2
2
2
2
2
2
2
2
2
2
2.00008
2.00004
1.99994
1.99975
1.99946
1.99908
1.99865
1.99824
1.99791
1.9977
1.99763
1.9977
1.99791
1.99824
1.99865
1.99908
1.99946
1.99975
1.99993
2.00001
2.00004
2.00004
2.00002
2.00001
2
2
2
2
2
2
2
2
2
2
2
2
2
2
2
2
2.00006
1.99998
1.99979
1.99946
1.99899
1.99841
1.99782
1.99728
1.99689
1.99665
1.99657
1.99665
1.99689
1.99728
1.99782
1.99841
1.99899
1.99945
1.99977
1.99995
2.00002
2.00004
2.00003
2.00002
2.00001
2
2
2
2
2
2
2
2
2
2
2
2
2
2
2
2.00002
1.99988
1.99957
1.99908
1.99841
1.99766
1.99694
1.99636
1.99599
1.99579
1.99573
1.99579
1.99599
1.99636
1.99694
1.99766
1.99841
1.99907
1.99955
1.99984
1.99999
2.00003
2.00003
2.00002
2.00001
2
2
2
2
2
2
2
2
2
2
2
2
2
2
2
1.99994
1.99974
1.99931
1.99865
1.99782
1.99694
1.99619
1.99569
1.99544
1.99537
1.99537
1.99537
1.99544
1.99569
1.99619
1.99694
1.99781
1.99864
1.99929
1.99971
1.99993
2.00002
2.00003
2.00003
2.00001
2.00001
2
2
2
2
2
2
2
2
2
2
2
2
2
2
1.99986
1.99959
1.99904
1.99824
1.99728
1.99636
1.99569
1.99537
1.99536
1.99548
1.99554
1.99548
1.99536
1.99537
1.99569
1.99636
1.99728
1.99822
1.99902
1.99956
1.99986
1.99999
2.00003
2.00003
2.00002
2.00001
2
2
2
2
2
2
2
2
2
2
2
2
2
2
1.99977
1.99945
1.99881
1.99791
1.99689
1.99599
1.99544
1.99536
1.99561
1.99594
1.99609
1.99594
1.99561
1.99536
1.99544
1.99598
1.99688
1.99789
1.99879
1.99943
1.9998
1.99997
2.00003
2.00003
2.00002
2.00001
2
2
2
2
2
2
2
2
2
2
2
2
2
2
1.99971
1.99935
1.99866
1.9977
1.99665
1.99579
1.99537
1.99548
1.99594
1.99643
1.99664
1.99643
1.99594
1.99548
1.99537
1.99579
1.99664
1.99768
1.99863
1.99933
1.99975
1.99995
2.00002
2.00003
2.00002
2.00001
2
2
2
2
2
2
2
2
2
2
2
2
2
2
1.99968
1.99932
1.99861
1.99763
1.99657
1.99573
1.99537
1.99554
1.99609
1.99664
1.99687
1.99664
1.99609
1.99554
1.99537
1.99573
1.99656
1.99761
1.99858
1.9993
1.99974
1.99995
2.00002
2.00003
2.00002
2.00001
2
2
2
2
2
2
2
2
2
2
2
2
2
2
1.99971
1.99935
1.99866
1.9977
1.99665
1.99579
1.99537
1.99548
1.99594
1.99643
1.99664
1.99643
1.99594
1.99548
1.99537
1.99579
1.99664
1.99768
1.99863
1.99933
1.99975
1.99995
2.00002
2.00003
2.00002
2.00001
2
2
2
2
2
2
2
2
2
2
2
2
2
2
1.99977
1.99945
1.99881
1.99791
1.99689
1.99599
1.99544
1.99536
1.99561
1.99594
1.99609
1.99594
1.99561
1.99536
1.99544
1.99598
1.99688
1.99789
1.99879
1.99943
1.9998
1.99997
2.00003
2.00003
2.00002
2.00001
2
2
2
2
2
2
2
2
2
2
2
2
2
2
1.99986
1.99959
1.99904
1.99824
1.99728
1.99636
1.99569
1.99537
1.99536
1.99548
1.99554
1.99548
1.99536
1.99537
1.99569
1.99636
1.99728
1.99822
1.99902
1.99956
1.99986
1.99999
2.00003
2.00003
2.00002
2.00001
2
2
2
2
2
2
2
2
2
2
2
2
2
2
1.99995
1.99974
1.99931
1.99865
1.99782
1.99694
1.99619
1.99569
1.99544
1.99537
1.99537
1.99537
1.99544
1.99569
1.99619
1.99694
1.99781
1.99864
1.99929
1.99971
1.99993
2.00002
2.00003
2.00003
2.00001
2.00001
2
2
2
2
2
2
2
2
2
2
2
2
2
2
2.00002
1.99988
1.99957
1.99908
1.99841
1.99766
1.99694
1.99636
1.99598
1.99579
1.99573
1.99579
1.99598
1.99636
1.99694
1.99766
1.99841
1.99907
1.99955
1.99984
1.99999
2.00003
2.00003
2.00002
2.00001
2
2
2
2
2
2
2
2
2
2
2
2
2
2
2
2.00006
1.99998
1.99979
1.99946
1.99899
1.99841
1.99781
1.99728
1.99688
1.99664
1.99656
1.99664
1.99688
1.99728
1.99781
1.99841
1.99898
1.99945
1.99977
1.99995
2.00002
2.00004
2.00003
2.00002
2
2
1.99999
1.99999
1.99999
1.99999
1.99999
1.99999
1.99999
1.99999
1.99999
2
2
2
2
2
2.00007
2.00004
1.99994
1.99975
1.99945
1.99907
1.99864
1.99822
1.99789
1.99768
1.99761
1.99768
1.99789
1.99822
1.99864
1.99907
1.99945
1.99974
1.99992
2.00001
2.00004
2.00003
2.00002
2.00001
2
1.99999
1.99999
1.99999
1.99999
1.99998
1.99998
1.99998
1.99999
1.99999
1.99999
1.99999
1.99999
2
2
2
2.00007
2.00005
2.00001
1.99993
1.99977
1.99955
1.99929
1.99902
1.99879
1.99863
1.99858
1.99863
1.99879
1.99902
1.99929
1.99955
1.99977
1.99992
2.00001
2.00004
2.00004
2.00002
2.00001
2
1.99999
1.99998
1.99998
1.99998
1.99998
1.99998
1.99998
1.99998
1.99998
1.99998
1.99998
1.99998
1.99999
1.99999
1.99999
1.99999
2.00005
2.00005
2.00004
2.00001
1.99995
1.99984
1.99971
1.99956
1.99943
1.99933
1.9993
1.99933
1.99943
1.99956
1.99971
1.99984
1.99995
2.00001
2.00004
2.00004
2.00003
2.00001
2
1.99999
1.99998
1.99998
1.99998
1.99999
1.99999
2
2
2
1.99999
1.99999
1.99998
1.99998
1.99998
1.99998
1.99999
1.99999
2.00003
2.00004
2.00004
2.00004
2.00002
1.99999
1.99993
1.99986
1.9998
1.99975
1.99974
1.99975
1.9998
1.99986
1.99993
1.99999
2.00002
2.00004
2.00004
2.00003
2.00001
2
1.99998
1.99998
1.99998
1.99999
2.00001
2.00003
2.00005
2.00007
2.00007
2.00007
2.00005
2.00003
2.00001
1.99999
1.99998
1.99997
1.99998
1.99998
2.00002
2.00002
2.00003
2.00004
2.00004
2.00003
2.00002
1.99999
1.99997
1.99995
1.99995
1.99995
1.99997
1.99999
2.00002
2.00003
2.00004
2.00003
2.00002
2.00001
2
1.99998
1.99998
1.99998
2
2.00003
2.00008
2.00014
2.00019
2.00023
2.00025
2.00023
2.00019
2.00014
2.00008
2.00003
2
1.99998
1.99997
1.99997
2.00001
2.00001
2.00002
2.00002
2.00003
2.00003
2.00003
2.00003
2.00003
2.00002
2.00002
2.00002
2.00003
2.00003
2.00003
2.00003
2.00003
2.00002
2.00001
2
1.99998
1.99998
1.99998
2
2.00006
2.00014
2.00025
2.00036
2.00046
2.00053
2.00056
2.00053
2.00046
2.00036
2.00025
2.00014
2.00005
2
1.99997
1.99996
2
2
2.00001
2.00001
2.00002
2.00002
2.00003
2.00003
2.00003
2.00003
2.00003
2.00003
2.00003
2.00003
2.00003
2.00002
2.00002
2.00001
2
1.99999
1.99998
1.99998
2
2.00007
2.00018
2.00034
2.00052
2.00071
2.00087
2.00098
2.00102
2.00098
2.00087
2.00071
2.00052
2.00033
2.00017
2.00006
1.99999
1.99996
2
2
2
2
2.00001
2.00001
2.00001
2.00002
2.00002
2.00002
2.00002
2.00002
2.00002
2.00002
2.00001
2.00001
2
2
1.99999
1.99998
1.99998
2
2.00006
2.00018
2.00037
2.00062
2.00091
2.00118
2.0014
2.00154
2.00158
2.00154
2.0014
2.00118
2.00091
2.00062
2.00036
2.00016
2.00004
1.99998
2
2
2
2
2
2
2.00001
2.00001
2.00001
2.00001
2.00001
2.00001
2.00001
2.00001
2.00001
2
2
1.99999
1.99998
1.99998
1.99999
2.00003
2.00014
2.00034
2.00062
2.00098
2.00136
2.00169
2.00194
2.00209
2.00214
2.00209
2.00194
2.00169
2.00136
2.00098
2.00061
2.00032
2.00012
2.00002
2
2
2
2
2
2
2
2
2
2
2
2
2
2
2
2
1.99999
1.99999
1.99998
1.99998
2.00001
2.00008
2.00025
2.00052
2.00091
2.00136
2.0018
2.00216
2.0024
2.00253
2.00257
2.00253
2.0024
2.00215
2.00179
2.00135
2.0009
2.00051
2.00023
2.00009
2
2
2
2
2
2
2
2
2
2
2
2
2
2
2
2
1.99999
1.99999
1.99998
1.99999
2.00003
2.00014
2.00036
2.00071
2.00118
2.00169
2.00216
2.0025
2.00269
2.00277
2.00279
2.00277
2.00269
2.00249
2.00215
2.00168
2.00117
2.00069
2.00035
2.00017
2
2
2
2
2
2
2
2
2
2
2
2
2
2
2
2
1.99999
1.99999
1.99998
1.99999
2.00005
2.00019
2.00046
2.00087
2.0014
2.00194
2.0024
2.00269
2.00281
2.00283
2.00282
2.00283
2.00281
2.00269
2.0024
2.00193
2.00138
2.00086
2.00046
2.00024
2
2
2
2
2
2
2
2
2
2
2
2
2
2
2
2
1.99999
1.99998
1.99998
2
2.00007
2.00023
2.00053
2.00098
2.00154
2.00209
2.00253
2.00277
2.00283
2.00279
2.00276
2.00279
2.00283
2.00277
2.00252
2.00208
2.00152
2.00096
2.00053
2.0003
2
2
2
2
2
2
2
2
2
2
2
2
2
2
2
2
1.99999
1.99998
1.99998
2
2.00007
2.00025
2.00056
2.00102
2.00158
2.00214
2.00257
2.00279
2.00282
2.00276
2.00273
2.00276
2.00282
2.00279
2.00256
2.00213
2.00157
2.001
2.00056
2.00032
2
2
2
2
2
2
2
2
2
2
2
2
2
2
2
2
1.99999
1.99998
1.99998
2
2.00007
2.00023
2.00053
2.00098
2.00154
2.00209
2.00253
2.00277
2.00283
2.00279
2.00276
2.00279
2.00283
2.00277
2.00252
2.00208
2.00152
2.00096
2.00053
2.0003
2
2
2
2
2
2
2
2
2
2
2
2
2
2
2
2
1.99999
1.99999
1.99998
1.99999
2.00005
2.00019
2.00046
2.00087
2.0014
2.00194
2.0024
2.00269
2.00281
2.00283
2.00282
2.00283
2.00281
2.00269
2.0024
2.00193
2.00138
2.00086
2.00046
2.00024
2
2
2
2
2
2
2
2
2
2
2
2
2
2
2
2
1.99999
1.99999
1.99998
1.99999
2.00003
2.00014
2.00036
2.00071
2.00118
2.00169
2.00215
2.00249
2.00269
2.00277
2.00279
2.00277
2.00269
2.00249
2.00215
2.00168
2.00117
2.00069
2.00035
2.00017
2
2
2
2
2
2
2
2
2
2
2
2
2
2
2
2
1.99999
1.99999
1.99998
1.99998
2.00001
2.00008
2.00025
2.00052
2.00091
2.00136
2.00179
2.00215
2.0024
2.00252
2.00256
2.00252
2.0024
2.00215
2.00179
2.00135
2.0009
2.0005
2.00023
2.00009
2
2
2
2
2
2
2
2
2
2
2
2
2
2
2
2
2
1.99999
1.99998
1.99998
1.99999
2.00003
2.00014
2.00033
2.00062
2.00098
2.00135
2.00168
2.00193
2.00208
2.00213
2.00208
2.00193
2.00168
2.00135
2.00097
2.00061
2.00032
2.00012
2.00002
2
2
2
2
2
2
2
2
2
2
2
2
2
2
2
2
2
1.99999
1.99999
1.99998
1.99998
2
2.00005
2.00017
2.00036
2.00061
2.0009
2.00117
2.00138
2.00152
2.00157
2.00152
2.00138
2.00117
2.0009
2.00061
2.00036
2.00016
2.00003
1.99997
2
2
2
2
2
2
2
2
2
2
2
2
2
2
2
2
2
2
1.99999
1.99998
1.99997
1.99998
2
2.00006
2.00016
2.00032
2.00051
2.00069
2.00086
2.00096
2.001
2.00096
2.00086
2.00069
2.0005
2.00032
2.00016
2.00005
1.99998
1.99995
2
2
2
2
2
2
2
2
2
2
2
2
2
2
2
2
2
2
1.99999
1.99999
1.99998
1.99997
1.99997
1.99999
2.00004
2.00012
2.00023
2.00035
2.00046
2.00053
2.00056
2.00053
2.00046
2.00035
2.00023
2.00012
2.00003
1.99998
1.99995
1.99994
2
2
2
2
2
2
2
2
2
2
2
2
2
2
2
2
2
2
1.99999
1.99999
1.99998
1.99997
1.99996
1.99996
1.99998
2.00002
2.00009
2.00017
2.00024
2.0003
2.00032
2.0003
2.00024
2.00017
2.00009
2.00002
1.99997
1.99995
1.99994
1.99994
