# vtk DataFile Version 3.0
Brusselator Concentration Output
ASCII
DATASET STRUCTURED_POINTS
DIMENSIONS 40 40 1
ORIGIN 0.0 0.0 0.0
SPACING 0.005 0.005 1.0
POINT_DATA 1600
SCALARS C1 double 1
LOOKUP_TABLE default
1
1
1
0.999995
0.999984
0.999966
0.999942
0.999917
0.999895
0.999882
0.999877
0.999882
0.999895
0.999917
0.999942
0.999966
0.999984
0.999995
1
1
1
1
1
1
1
1
1
1
1
1
1
1
1
1
1
1
1
1
1
1
1
1
0.999994
0.999982
0.999961
0.999931
0.999896
0.999866
0.999846
0.999836
0.999834
0.999836
0.999846
0.999866
0.999896
0.999931
0.999961
0.999982
0.999994
0.999999
1
1
1
1
1
1
1
1
1
1
1
1
1
1
1
1
1
1
1
1
1
0.999994
0.99998
0.999953
0.999912
0.999863
0.999822
0.999803
0.999809
0.999826
0.999834
0.999826
0.999809
0.999803
0.999822
0.999863
0.999912
0.999953
0.99998
0.999994
0.999999
1
1
1
1
1
1
1
1
1
1
1
1
1
1
1
1
1
1
1
0.999995
0.999982
0.999953
0.999904
0.999841
0.999789
0.999782
0.999842
0.99995
1.00005
1.0001
1.00005
0.99995
0.999842
0.999782
0.999789
0.999841
0.999904
0.999953
0.999982
0.999995
1
1
1
1
1
1
1
1
1
1
1
1
1
1
1
1
1
1
1
0.999984
0.999961
0.999912
0.999841
0.999778
0.99978
0.999914
1.0002
1.00056
1.00086
1.00098
1.00086
1.00056
1.0002
0.999914
0.99978
0.999778
0.999841
0.999912
0.999961
0.999987
0.999997
1
1
1
1
1
1
1
1
1
1
1
1
1
1
1
1
1
1
0.999966
0.999931
0.999863
0.999789
0.99978
0.999953
1.00041
1.00113
1.00194
1.00258
1.00282
1.00258
1.00194
1.00113
1.00041
0.999953
0.99978
0.999789
0.999863
0.999932
0.999973
0.999992
0.999999
1
1
1
1
1
1
1
1
1
1
1
1
1
1
1
1
1
0.999942
0.999896
0.999822
0.999782
0.999914
1.00041
1.00138
1.00276
1.00419
1.00526
1.00565
1.00526
1.00419
1.00276
1.00138
1.00041
0.999914
0.999782
0.999822
0.9999
0.999956
0.999986
0.999997
1
1
1
1
1
1
1
1
1
1
1
1
1
1
1
1
1
0.999917
0.999866
0.999803
0.999842
1.0002
1.00113
1.00276
1.00487
1.00695
1.00841
1.00893
1.00841
1.00695
1.00487
1.00276
1.00113
1.0002
0.999841
0.999804
0.999872
0.999939
0.999978
0.999994
0.999999
1
1
1
1
1
1
1
1
1
1
1
1
1
1
1
1
0.999895
0.999846
0.999809
0.99995
1.00056
1.00194
1.00419
1.00695
1.0095
1.01122
1.01181
1.01122
1.0095
1.00695
1.00419
1.00194
1.00056
0.99995
0.999811
0.999855
0.999925
0.999971
0.999991
0.999998
1
1
1
1
1
1
1
1
1
1
1
1
1
1
1
1
0.999882
0.999836
0.999826
1.00005
1.00086
1.00258
1.00526
1.00841
1.01122
1.01302
1.01362
1.01302
1.01122
1.00841
1.00526
1.00258
1.00086
1.00005
0.999828
0.999847
0.999916
0.999966
0.999989
0.999998
1
1
1
1
1
1
1
1
1
1
1
1
1
1
1
1
0.999877
0.999834
0.999834
1.0001
1.00098
1.00282
1.00565
1.00893
1.01181
1.01362
1.01421
1.01362
1.01181
1.00893
1.00565
1.00282
1.00098
1.0001
0.999837
0.999845
0.999913
0.999964
0.999989
0.999998
1
1
1
1
1
1
1
1
1
1
1
1
1
1
1
1
0.999882
0.999836
0.999826
1.00005
1.00086
1.00258
1.00526
1.00841
1.01122
1.01302
1.01362
1.01302
1.01122
1.00841
1.00526
1.00258
1.00086
1.00005
0.999828
0.999847
0.999916
0.999966
0.999989
0.999998
1
1
1
1
1
1
1
1
1
1
1
1
1
1
1
1
0.999895
0.999846
0.999809
0.99995
1.00056
1.00194
1.00419
1.00695
1.0095
1.01122
1.01181
1.01122
1.0095
1.00695
1.00419
1.00194
1.00056
0.99995
0.999811
0.999855
0.999925
0.999971
0.999991
0.999998
1
1
1
1
1
1
1
1
1
1
1
1
1
1
1
1
0.999917
0.999866
0.999803
0.999842
1.0002
1.00113
1.00276
1.00487
1.00695
1.00841
1.00893
1.00841
1.00695
1.00487
1.00276
1.00113
1.0002
0.999841
0.999804
0.999872
0.999939
0.999978
0.999994
0.999999
1
1
1
1
1
1
1
1
1
1
1
1
1
1
1
1
0.999942
0.999896
0.999822
0.999782
0.999914
1.00041
1.00138
1.00276
1.00419
1.00526
1.00565
1.00526
1.00419
1.00276
1.00138
1.00041
0.999914
0.999782
0.999822
0.9999
0.999956
0.999986
0.999997
1
1
1
1
1
1
1
1
1
1
1
1
1
1
1
1
1
0.999966
0.999931
0.999863
0.999789
0.99978
0.999953
1.00041
1.00113
1.00194
1.00258
1.00282
1.00258
1.00194
1.00113
1.00041
0.999953
0.99978
0.999789
0.999863
0.999932
0.999973
0.999992
0.999999
1
1
1
1
1
1
1
1
1
1
1
1
1
1
1
1
1
0.999984
0.999961
0.999912
0.999841
0.999778
0.99978
0.999914
1.0002
1.00056
1.00086
1.00098
1.00086
1.00056
1.0002
0.999914
0.99978
0.999777
0.999841
0.999912
0.999961
0.999987
0.999997
1
1
1
1
1
1
1
1
1
1
1
1
1
1
1
1
1
1
0.999995
0.999982
0.999953
0.999904
0.999841
0.999789
0.999782
0.999841
0.99995
1.00005
1.0001
1.00005
0.99995
0.999841
0.999782
0.999789
0.999841
0.999904
0.999953
0.999982
0.999995
1
1
1
1
1
1
1
1
1
1
1
1
1
1
1
1
1
1
1
1
0.999994
0.99998
0.999953
0.999912
0.999863
0.999822
0.999804
0.999811
0.999828
0.999837
0.999828
0.999811
0.999804
0.999822
0.999863
0.999912
0.999953
0.99998
0.999994
0.999999
1
1
1
1
1
1
1
1
1
1
1
1
1
1
1
1
1
1
1
1
0.999999
0.999994
0.999982
0.999961
0.999932
0.9999
0.999872
0.999855
0.999847
0.999845
0.999847
0.999855
0.999872
0.9999
0.999932
0.999961
0.999982
0.999994
0.999999
1
1
1
1
1
1
1.00001
1.00001
1.00001
1.00001
1.00001
1.00001
1.00001
1.00001
1.00001
1
1
1
1
1
1
1
0.999999
0.999995
0.999987
0.999973
0.999956
0.999939
0.999925
0.999916
0.999913
0.999916
0.999925
0.999939
0.999956
0.999973
0.999987
0.999995
0.999999
1
1
1
1
1
1
1.00001
1.00002
1.00002
1.00003
1.00004
1.00004
1.00004
1.00003
1.00002
1.00002
1.00001
1
1
1
0.999999
1
1
1
1
0.999997
0.999992
0.999986
0.999978
0.999971
0.999966
0.999964
0.999966
0.999971
0.999978
0.999986
0.999992
0.999997
1
1
1
1
1
1
1.00001
1.00001
1.00003
1.00004
1.00006
1.00007
1.00007
1.00008
1.00007
1.00007
1.00006
1.00004
1.00003
1.00001
1.00001
1
1
1
1
1
1
1
0.999999
0.999997
0.999994
0.999991
0.999989
0.999989
0.999989
0.999991
0.999994
0.999997
0.999999
1
1
1
1
1
1
1.00001
1.00002
1.00004
1.00006
1.00008
1.0001
1.00011
1.00011
1.00011
1.00011
1.00011
1.0001
1.00008
1.00006
1.00004
1.00002
1.00001
1
1
1
1
1
1
1
1
0.999999
0.999998
0.999998
0.999998
0.999998
0.999998
0.999999
1
1
1
1
1
1
1
1.00001
1.00002
1.00004
1.00007
1.0001
1.00013
1.00012
1.0001
1.00007
1.00006
1.00007
1.0001
1.00012
1.00013
1.0001
1.00007
1.00004
1.00002
1.00001
1
1
1
1
1
1
1
1
1
1
1
1
1
1
1
1
1
1
1
1
1
1.00001
1.00004
1.00007
1.00011
1.00014
1.00012
1.00004
0.999921
0.999814
0.999771
0.999814
0.999921
1.00004
1.00012
1.00014
1.00011
1.00007
1.00004
1.00002
1
1
1
1
1
1
1
1
1
1
1
1
1
1
1
1
1
1
1
1
1.00001
1.00003
1.00006
1.0001
1.00014
1.00011
0.999979
0.99973
0.999423
0.99917
0.999072
0.99917
0.999423
0.99973
0.999979
1.00011
1.00014
1.0001
1.00006
1.00004
1
1
1
1
1
1
1
1
1
1
1
1
1
1
1
1
1
1
1
1.00001
1.00002
1.00004
1.00008
1.00013
1.00012
0.999979
0.999641
0.999112
0.99852
0.998058
0.997884
0.998058
0.99852
0.999112
0.999641
0.999979
1.00012
1.00013
1.00009
1.00006
1
1
1
1
1
1
1
1
1
1
1
1
1
1
1
1
1
1
1
1.00001
1.00002
1.00006
1.0001
1.00012
1.00004
0.99973
0.999112
0.998236
0.997315
0.996626
0.996373
0.996626
0.997315
0.998236
0.999112
0.99973
1.00004
1.00013
1.00011
1.00008
1
1
1
1
1
1
1
1
1
1
1
1
1
1
1
1
1
1
1
1.00001
1.00003
1.00007
1.00011
1.0001
0.999921
0.999423
0.99852
0.997315
0.996105
0.995232
0.99492
0.995232
0.996105
0.997315
0.99852
0.999423
0.999921
1.0001
1.00012
1.0001
1
1
1
1
1
1
1
1
1
1
1
1
1
1
1
1
1
1
1
1.00001
1.00004
1.00007
1.00011
1.00007
0.999814
0.99917
0.998058
0.996626
0.995232
0.994256
0.993912
0.994256
0.995232
0.996625
0.998058
0.99917
0.999814
1.00007
1.00012
1.00011
1
1
1
1
1
1
1
1
1
1
1
1
1
1
1
1
1
1
1
1.00001
1.00004
1.00008
1.00011
1.00006
0.999771
0.999072
0.997884
0.996373
0.99492
0.993912
0.993559
0.993912
0.99492
0.996373
0.997884
0.999072
0.999772
1.00006
1.00012
1.00011
1
1
1
1
1
1
1
1
1
1
1
1
1
1
1
1
1
1
1
1.00001
1.00004
1.00007
1.00011
1.00007
0.999814
0.99917
0.998058
0.996626
0.995232
0.994256
0.993912
0.994256
0.995232
0.996625
0.998058
0.999169
0.999814
1.00007
1.00012
1.00011
1
1
1
1
1
1
1
1
1
1
1
1
1
1
1
1
1
1
1
1.00001
1.00003
1.00007
1.00011
1.0001
0.999921
0.999423
0.99852
0.997315
0.996105
0.995232
0.99492
0.995232
0.996105
0.997315
0.99852
0.999423
0.999921
1.0001
1.00012
1.0001
1
1
1
1
1
1
1
1
1
1
1
1
1
1
1
1
1
1
1
1.00001
1.00002
1.00006
1.0001
1.00012
1.00004
0.99973
0.999112
0.998236
0.997315
0.996625
0.996373
0.996625
0.997315
0.998236
0.999112
0.99973
1.00004
1.00013
1.00011
1.00008
1
1
1
1
1
1
1
1
1
1
1
1
1
1
1
1
1
1
1
1.00001
1.00002
1.00004
1.00008
1.00013
1.00012
0.999979
0.999641
0.999112
0.99852
0.998058
0.997884
0.998058
0.99852
0.999112
0.999641
0.999979
1.00012
1.00013
1.00009
1.00006
1
1
1
1
1
1
1
1
1
1
1
1
1
1
1
1
1
1
1
1
1.00001
1.00003
1.00006
1.0001
1.00014
1.00011
0.999979
0.99973
0.999423
0.99917
0.999072
0.999169
0.999423
0.99973
0.999979
1.00011
1.00014
1.0001
1.00006
1.00004
1
1
1
1
1
1
1
1
1
1
1
1
1
1
1
1
1
1
1
1
1
1.00001
1.00004
1.00007
1.00011
1.00014
1.00012
1.00004
0.999921
0.999814
0.999772
0.999814
0.999921
1.00004
1.00012
1.00014
1.00011
1.00007
1.00004
1.00002
1
1
1
1
1
1
1
1
1
1
1
1
1
1
1
1
1
1
1
1
1
1.00001
1.00002
1.00004
1.00007
1.0001
1.00013
1.00013
1.0001
1.00007
1.00006
1.00007
1.0001
1.00013
1.00013
1.0001
1.00007
1.00004
1.00002
1.00001
1
1
1
1
1
1
1
1
1
1
1
1
1
1
1
1
1
1
1
1
1
1
1.00001
1.00002
1.00004
1.00006
1.00009
1.00011
1.00012
1.00012
1.00012
1.00012
1.00012
1.00011
1.00009
1.00006
1.00004
1.00002
1.00001
1
1
1
1
1
1
1
1
1
1
1
1
1
1
1
1
1
1
1
1
1
0.999999
1
1
1.00001
1.00002
1.00004
1.00006
1.00008
1.0001
1.00011
1.00011
1.00011
1.0001
1.00008
1.00006
1.00004
1.00002
1.00001
1
0.999999
SCALARS C2 double 1
LOOKUP_TABLE default
2
2
2
2
2
2.00002
2.00004
2.00007
2.0001
2.00013
2.00013
2.00013
2.0001
2.00007
2.00004
2.00002
2
2
2
2
2
2
2
2
2
2
2
2
2
2
2
2
2
2
2
2
2
2
2
2
2
2
2
2
2.00002
2.00006
2.00011
2.00017
2.00023
2.00027
2.00028
2.00027
2.00023
2.00017
2.00011
2.00006
2.00002
2
2
2
2
2
2
2
2
2
2
2
2
2
2
2
2
2
2
2
2
2
2
2
2
2
2.00001
2.00003
2.00008
2.00017
2.00028
2.00039
2.00048
2.00054
2.00056
2.00054
2.00048
2.00039
2.00028
2.00017
2.00008
2.00003
2.00001
2
2
2
2
2
2
2
2
2
2
2
2
2
2
2
2
2
2
2
2
2
2
2
2.00003
2.0001
2.00021
2.00037
2.00056
2.00071
2.0008
2.00084
2.00084
2.00084
2.0008
2.00071
2.00056
2.00037
2.00021
2.0001
2.00003
2.00001
2
2
2
2
2
2
2
2
2
2
2
2
2
2
2
2
2
2
2
2
2
2.00002
2.00008
2.00021
2.00041
2.00066
2.00088
2.00097
2.00092
2.00081
2.00075
2.00081
2.00092
2.00097
2.00088
2.00066
2.00041
2.00021
2.00009
2.00003
2
2
2
2
2
2
2
2
2
2
2
2
2
2
2
2
2
2
2
2
2.00002
2.00006
2.00017
2.00037
2.00066
2.00093
2.00103
2.00081
2.00032
1.99981
1.9996
1.99981
2.00032
2.00081
2.00103
2.00093
2.00066
2.00038
2.00017
2.00006
2.00001
2
2
2
2
2
2
2
2
2
2
2
2
2
2
2
2
2
2
2
2.00004
2.00011
2.00028
2.00056
2.00088
2.00103
2.00072
1.99979
1.99843
1.99721
1.99672
1.99721
1.99843
1.99979
2.00072
2.00103
2.00088
2.00056
2.00028
2.00011
2.00003
2.00001
2
2
2
2
2
2
2
2
2
2
2
2
2
2
2
2
2
2
2.00007
2.00017
2.00039
2.00071
2.00097
2.00081
1.99979
1.99776
1.99516
1.99295
1.99209
1.99295
1.99516
1.99776
1.99979
2.00081
2.00097
2.00071
2.0004
2.00017
2.00006
2.00001
2
2
2
2
2
2
2
2
2
2
2
2
2
2
2
2
2
2
2.0001
2.00023
2.00048
2.0008
2.00092
2.00032
1.99843
1.99516
1.99122
1.988
1.98676
1.988
1.99122
1.99516
1.99843
2.00032
2.00092
2.00081
2.00049
2.00023
2.00008
2.00002
2
2
2
2
2
2
2
2
2
2
2
2
2
2
2
2
2
2
2.00013
2.00027
2.00054
2.00084
2.00081
1.99981
1.99721
1.99295
1.988
1.98403
1.98252
1.98403
1.988
1.99295
1.99721
1.99981
2.00081
2.00084
2.00054
2.00026
2.0001
2.00003
2
2
2
2
2
2
2
2
2
2
2
2
2
2
2
2
2
2
2.00013
2.00028
2.00056
2.00084
2.00075
1.9996
1.99672
1.99209
1.98676
1.98252
1.98092
1.98252
1.98676
1.99209
1.99672
1.9996
2.00075
2.00084
2.00056
2.00027
2.0001
2.00003
2
2
2
2
2
2
2
2
2
2
2
2
2
2
2
2
2
2
2.00013
2.00027
2.00054
2.00084
2.00081
1.99981
1.99721
1.99295
1.988
1.98403
1.98252
1.98403
1.988
1.99295
1.99721
1.99981
2.00081
2.00084
2.00054
2.00026
2.0001
2.00003
2
2
2
2
2
2
2
2
2
2
2
2
2
2
2
2
2
2
2.0001
2.00023
2.00048
2.0008
2.00092
2.00032
1.99843
1.99516
1.99122
1.988
1.98676
1.988
1.99122
1.99516
1.99843
2.00032
2.00092
2.00081
2.00049
2.00023
2.00008
2.00002
2
2
2
2
2
2
2
2
2
2
2
2
2
2
2
2
2
2
2.00007
2.00017
2.00039
2.00071
2.00097
2.00081
1.99979
1.99776
1.99516
1.99295
1.99209
1.99295
1.99516
1.99776
1.99979
2.00081
2.00097
2.00071
2.0004
2.00017
2.00006
2.00001
2
2
2
2
2
2
2
2
2
2
2
2
2
2
2
2
2
2
2.00004
2.00011
2.00028
2.00056
2.00088
2.00103
2.00072
1.99979
1.99843
1.99721
1.99672
1.99721
1.99843
1.99979
2.00072
2.00103
2.00088
2.00056
2.00028
2.00011
2.00003
2.00001
2
2
2
2
2
2
2
2
2
2
2
2
2
2
2
2
2
2
2.00002
2.00006
2.00017
2.00037
2.00066
2.00093
2.00103
2.00081
2.00032
1.99981
1.9996
1.99981
2.00032
2.00081
2.00103
2.00093
2.00066
2.00038
2.00017
2.00006
2.00001
2
2
2
2
2
2
2
2
2
2
2
2
2
2
2
2
2
2
2
2
2.00002
2.00008
2.00021
2.00041
2.00066
2.00088
2.00097
2.00092
2.00081
2.00075
2.00081
2.00092
2.00097
2.00088
2.00066
2.00041
2.00021
2.00009
2.00003
2
2
2
2
2
2
2
2
2
2
2
2
2
2
2
2
2
2
2
2
2
2
2.00003
2.0001
2.00021
2.00038
2.00056
2.00071
2.00081
2.00084
2.00084
2.00084
2.00081
2.00071
2.00056
2.00038
2.00021
2.0001
2.00003
2.00001
2
2
2
2
2
2
2
2
2
2
2
2
2
2
2
2
2
2
2
2
2
2
2.00001
2.00003
2.00009
2.00017
2.00028
2.0004
2.00049
2.00054
2.00056
2.00054
2.00049
2.0004
2.00028
2.00017
2.00009
2.00003
2.00001
2
2
2
2
2
2
2
2
2
2
2
2
2
2
2
2
2
2
2
2
2
2
2
2
2.00001
2.00003
2.00006
2.00011
2.00017
2.00023
2.00026
2.00027
2.00026
2.00023
2.00017
2.00011
2.00006
2.00003
2.00001
2
2
2
2
2
2
2
2
2
2
1.99999
1.99999
1.99999
1.99999
1.99999
2
2
2
2
2
2
2
2
2
2
2
2
2.00001
2.00003
2.00006
2.00008
2.0001
2.0001
2.0001
2.00008
2.00006
2.00003
2.00001
2
2
2
2
2
2
2
2
2
2
1.99999
1.99998
1.99997
1.99996
1.99996
1.99996
1.99997
1.99998
1.99999
2
2
2
2
2
2
2
2
2
2
2
2.00001
2.00001
2.00002
2.00003
2.00003
2.00003
2.00002
2.00001
2.00001
2
2
2
2
2
2
2
2
2
1.99999
1.99998
1.99996
1.99993
1.99991
1.99989
1.99989
1.99989
1.99991
1.99993
1.99996
1.99998
1.99999
2
2
2
2
2
2
2
2
2
2
2
2
2
2
2
2
2
2
2
2
2
2
2
2
2
2
1.99999
1.99997
1.99994
1.99989
1.99983
1.99979
1.99976
1.99975
1.99976
1.99979
1.99983
1.99989
1.99994
1.99997
1.99999
2
2
2
2
2
2
2
2
2
2
2
2
2
2
2
2
2
2
2
2
2
2
2
2
1.99999
1.99997
1.99992
1.99985
1.99976
1.99967
1.9996
1.99957
1.99956
1.99957
1.9996
1.99967
1.99976
1.99985
1.99992
1.99997
1.99999
2
2
2
2
2
2
2
2
2
2
2
2
2
2
2
2
2
2
2
2
2
2
1.99999
1.99997
1.99992
1.99983
1.99971
1.99958
1.99948
1.99944
1.99944
1.99944
1.99944
1.99944
1.99948
1.99958
1.99971
1.99983
1.99992
1.99997
1.99999
2
2
2
2
2
2
2
2
2
2
2
2
2
2
2
2
2
2
2
2
2
1.99998
1.99994
1.99985
1.99971
1.99954
1.99941
1.99939
1.99948
1.99961
1.99968
1.99961
1.99948
1.99939
1.99941
1.99954
1.99971
1.99985
1.99994
1.99998
2
2
2
2
2
2
2
2
2
2
2
2
2
2
2
2
2
2
2
2
1.99999
1.99996
1.99989
1.99976
1.99958
1.99941
1.99939
1.99959
2
2.0004
2.00057
2.0004
2
1.99959
1.99939
1.99941
1.99958
1.99976
1.99989
1.99995
2
2
2
2
2
2
2
2
2
2
2
2
2
2
2
2
2
2
2
2
1.99998
1.99993
1.99983
1.99967
1.99948
1.99939
1.99959
2.0002
2.0011
2.00191
2.00224
2.00191
2.0011
2.0002
1.99959
1.99939
1.99948
1.99967
1.99983
1.99991
2
2
2
2
2
2
2
2
2
2
2
2
2
2
2
2
2
2
2
1.99999
1.99997
1.99991
1.99979
1.9996
1.99944
1.99948
2
2.0011
2.00256
2.00383
2.00434
2.00383
2.00256
2.0011
2
1.99948
1.99944
1.9996
1.99978
1.99988
2
2
2
2
2
2
2
2
2
2
2
2
2
2
2
2
2
2
2
1.99999
1.99996
1.99989
1.99976
1.99957
1.99944
1.99961
2.0004
2.00191
2.00383
2.00546
2.0061
2.00546
2.00383
2.00191
2.0004
1.99961
1.99944
1.99957
1.99975
1.99986
2
2
2
2
2
2
2
2
2
2
2
2
2
2
2
2
2
2
2
1.99999
1.99996
1.99989
1.99975
1.99956
1.99944
1.99968
2.00057
2.00224
2.00434
2.0061
2.00679
2.0061
2.00434
2.00224
2.00057
1.99968
1.99944
1.99956
1.99974
1.99985
2
2
2
2
2
2
2
2
2
2
2
2
2
2
2
2
2
2
2
1.99999
1.99996
1.99989
1.99976
1.99957
1.99944
1.99961
2.0004
2.00191
2.00383
2.00546
2.0061
2.00546
2.00383
2.00191
2.0004
1.99961
1.99944
1.99957
1.99975
1.99986
2
2
2
2
2
2
2
2
2
2
2
2
2
2
2
2
2
2
2
1.99999
1.99997
1.99991
1.99979
1.9996
1.99944
1.99948
2
2.0011
2.00256
2.00383
2.00434
2.00383
2.00256
2.0011
2
1.99948
1.99944
1.9996
1.99978
1.99988
2
2
2
2
2
2
2
2
2
2
2
2
2
2
2
2
2
2
2
2
1.99998
1.99993
1.99983
1.99967
1.99948
1.99939
1.99959
2.0002
2.0011
2.00191
2.00224
2.00191
2.0011
2.0002
1.99959
1.99939
1.99948
1.99967
1.99983
1.99991
2
2
2
2
2
2
2
2
2
2
2
2
2
2
2
2
2
2
2
2
1.99999
1.99996
1.99989
1.99976
1.99958
1.99941
1.99939
1.99959
2
2.0004
2.00057
2.0004
2
1.99959
1.99939
1.99941
1.99958
1.99976
1.99989
1.99995
2
2
2
2
2
2
2
2
2
2
2
2
2
2
2
2
2
2
2
2
2
1.99998
1.99994
1.99985
1.99971
1.99954
1.99941
1.99939
1.99948
1.99961
1.99968
1.99961
1.99948
1.99939
1.99941
1.99954
1.99971
1.99985
1.99994
1.99998
2
2
2
2
2
2
2
2
2
2
2
2
2
2
2
2
2
2
2
2
2
1.99999
1.99997
1.99992
1.99983
1.99971
1.99958
1.99948
1.99944
1.99944
1.99944
1.99944
1.99944
1.99948
1.99958
1.99971
1.99983
1.99992
1.99997
1.99999
2
2
2
2
2
2
2
2
2
2
2
2
2
2
2
2
2
2
2
2
2
2
1.99999
1.99997
1.99992
1.99985
1.99976
1.99967
1.9996
1.99957
1.99956
1.99957
1.9996
1.99967
1.99976
1.99985
1.99992
1.99997
1.99999
2
2
2
2
2
2
2
2
2
2
2
2
2
2
2
2
2
2
2
2
2
2
2
2
1.99999
1.99997
1.99994
1.99989
1.99983
1.99978
1.99975
1.99974
1.99975
1.99978
1.99983
1.99989
1.99994
1.99997
1.99999
2
2
2
2
2
2
2
2
2
2
2
2
2
2
2
2
2
2
2
2
2
2
2
2
2
2
1.99999
1.99998
1.99995
1.99991
1.99988
1.99986
1.99985
1.99986
1.99988
1.99991
1.99995
1.99998
1.99999
2
2
2
