# vtk DataFile Version 3.0
Brusselator Concentration Output
ASCII
DATASET STRUCTURED_POINTS
DIMENSIONS 40 40 1
ORIGIN 0.0 0.0 0.0
SPACING 0.005 0.005 1.0
POINT_DATA 1600
SCALARS C1 double 1
LOOKUP_TABLE default
0.999967
0.999961
0.999953
0.999953
0.999969
1.00001
1.00007
1.00014
1.00021
1.00026
1.00027
1.00026
1.00021
1.00014
1.00007
1.00001
0.999969
0.999953
0.999955
0.999966
0.999978
0.999989
0.999995
0.999998
1
1
1
1
1
1
1
1
1
1
1
1
1
1
1
1
0.999961
0.99996
0.999964
0.999986
1.00004
1.00012
1.00022
1.00034
1.00044
1.00051
1.00053
1.00051
1.00044
1.00034
1.00022
1.00012
1.00004
0.999987
0.999967
0.999967
0.999975
0.999985
0.999993
0.999997
0.999999
1
1
1
1
1
1
1
1
1
1
1
1
1
1
1
0.999953
0.999964
0.999997
1.00007
1.00018
1.00035
1.00054
1.00073
1.00089
1.00099
1.00103
1.00099
1.00089
1.00073
1.00054
1.00035
1.00018
1.00007
1
0.999976
0.999973
0.99998
0.999989
0.999995
0.999998
1
1
1
1
1
1
1
1
1
1
1
1
1
1
1
0.999953
0.999986
1.00007
1.00021
1.00043
1.00071
1.001
1.00128
1.00149
1.00162
1.00166
1.00162
1.00149
1.00128
1.001
1.00071
1.00043
1.00021
1.00007
1
0.999977
0.999976
0.999984
0.999992
0.999996
0.999999
1
1
1
1
1
1
1
1
1
1
1
1
1
1
0.999969
1.00004
1.00018
1.00043
1.00077
1.00117
1.00155
1.00188
1.0021
1.00221
1.00225
1.00221
1.0021
1.00188
1.00155
1.00117
1.00077
1.00044
1.0002
1.00006
0.999993
0.999976
0.99998
0.999988
0.999994
0.999998
0.999999
1
1
1
1
1
1
1
1
1
1
1
1
1
1.00001
1.00012
1.00035
1.00071
1.00117
1.00165
1.00208
1.00237
1.00252
1.00257
1.00258
1.00257
1.00252
1.00237
1.00208
1.00165
1.00117
1.00071
1.00036
1.00014
1.00002
0.999983
0.999978
0.999985
0.999992
0.999997
0.999999
1
1
1
1
1
1
1
1
1
1
1
1
1
1.00007
1.00022
1.00054
1.001
1.00155
1.00208
1.00245
1.00262
1.0026
1.00251
1.00247
1.00251
1.0026
1.00262
1.00245
1.00208
1.00156
1.00101
1.00056
1.00024
1.00007
0.999998
0.999979
0.999983
0.99999
0.999996
0.999998
1
1
1
1
1
1
1
1
1
1
1
1
1
1.00014
1.00034
1.00073
1.00128
1.00188
1.00237
1.00262
1.00257
1.00231
1.00204
1.00193
1.00204
1.00231
1.00257
1.00262
1.00237
1.00188
1.00129
1.00075
1.00035
1.00012
1.00002
0.999983
0.999981
0.999988
0.999995
0.999998
0.999999
1
1
1
1
1
1
1
1
1
1
1
1
1.00021
1.00044
1.00089
1.00149
1.0021
1.00252
1.0026
1.00231
1.00181
1.00135
1.00117
1.00135
1.00181
1.00231
1.0026
1.00252
1.0021
1.0015
1.00091
1.00045
1.00017
1.00004
0.999988
0.999981
0.999987
0.999994
0.999998
0.999999
1
1
1
1
1
1
1
1
1
1
1
1
1.00026
1.00051
1.00099
1.00162
1.00221
1.00257
1.00251
1.00204
1.00135
1.00075
1.00052
1.00075
1.00135
1.00204
1.00251
1.00257
1.00222
1.00163
1.00101
1.00052
1.00021
1.00005
0.999992
0.999982
0.999987
0.999993
0.999997
0.999999
1
1
1
1
1
1
1
1
1
1
1
1
1.00027
1.00053
1.00103
1.00166
1.00225
1.00258
1.00247
1.00193
1.00117
1.00052
1.00026
1.00052
1.00117
1.00193
1.00247
1.00258
1.00226
1.00167
1.00104
1.00054
1.00022
1.00006
0.999994
0.999982
0.999986
0.999993
0.999997
0.999999
1
1
1
1
1
1
1
1
1
1
1
1
1.00026
1.00051
1.00099
1.00162
1.00221
1.00257
1.00251
1.00204
1.00135
1.00075
1.00052
1.00075
1.00135
1.00204
1.00251
1.00257
1.00222
1.00163
1.00101
1.00052
1.00021
1.00005
0.999992
0.999982
0.999987
0.999993
0.999997
0.999999
1
1
1
1
1
1
1
1
1
1
1
1
1.00021
1.00044
1.00089
1.00149
1.0021
1.00252
1.0026
1.00231
1.00181
1.00135
1.00117
1.00135
1.00181
1.00231
1.0026
1.00252
1.0021
1.0015
1.00091
1.00045
1.00017
1.00004
0.999988
0.999981
0.999987
0.999994
0.999998
0.999999
1
1
1
1
1
1
1
1
1
1
1
1
1.00014
1.00034
1.00073
1.00128
1.00188
1.00237
1.00262
1.00257
1.00231
1.00204
1.00193
1.00204
1.00231
1.00257
1.00262
1.00237
1.00188
1.00129
1.00075
1.00035
1.00012
1.00002
0.999983
0.999981
0.999988
0.999995
0.999998
1
1
1
1
1
1
1
1
1
1
1
1
1
1.00007
1.00022
1.00054
1.001
1.00155
1.00208
1.00245
1.00262
1.0026
1.00251
1.00247
1.00251
1.0026
1.00262
1.00245
1.00208
1.00156
1.00101
1.00056
1.00024
1.00007
0.999997
0.999979
0.999983
0.99999
0.999996
0.999999
1
1
1
1
1
1
1
1
1
1
1
1
1
1.00001
1.00012
1.00035
1.00071
1.00117
1.00165
1.00208
1.00237
1.00252
1.00257
1.00258
1.00257
1.00252
1.00237
1.00208
1.00166
1.00117
1.00071
1.00036
1.00014
1.00002
0.999983
0.999978
0.999985
0.999993
0.999998
1
1
1
1
1
1
1
1
1
1
1
1
1
1
0.999969
1.00004
1.00018
1.00043
1.00077
1.00117
1.00156
1.00188
1.0021
1.00222
1.00226
1.00222
1.0021
1.00188
1.00156
1.00117
1.00077
1.00044
1.0002
1.00006
0.999993
0.999977
0.999981
0.999989
0.999997
1
1
1.00001
1.00001
1.00001
1.00001
1.00001
1.00001
1.00001
1
1
1
1
1
1
0.999953
0.999987
1.00007
1.00021
1.00044
1.00071
1.00101
1.00129
1.0015
1.00163
1.00167
1.00163
1.0015
1.00129
1.00101
1.00071
1.00044
1.00022
1.00008
1
0.999977
0.999977
0.999986
0.999995
1
1.00001
1.00001
1.00001
1.00001
1.00001
1.00001
1.00001
1.00001
1.00001
1.00001
1.00001
1.00001
1
1
1
0.999955
0.999967
1
1.00007
1.0002
1.00036
1.00056
1.00075
1.00091
1.00101
1.00104
1.00101
1.00091
1.00075
1.00056
1.00036
1.0002
1.00008
1.00001
0.999979
0.999976
0.999983
0.999993
1
1.00001
1.00001
1.00001
1.00001
1.00001
1.00001
1.00001
1.00001
1.00001
1.00001
1.00001
1.00001
1.00001
1.00001
1.00001
1
0.999966
0.999967
0.999976
1
1.00006
1.00014
1.00024
1.00035
1.00045
1.00052
1.00054
1.00052
1.00045
1.00035
1.00024
1.00014
1.00006
1
0.999979
0.999975
0.999982
0.999992
1
1.00001
1.00001
1.00001
1.00001
1
0.999998
0.999993
0.999992
0.999993
0.999998
1
1.00001
1.00001
1.00001
1.00001
1.00001
1.00001
0.999978
0.999975
0.999973
0.999977
0.999993
1.00002
1.00007
1.00012
1.00017
1.00021
1.00022
1.00021
1.00017
1.00012
1.00007
1.00002
0.999993
0.999977
0.999976
0.999982
0.999992
1
1.00001
1.00001
1.00001
1
0.999988
0.999969
0.999951
0.999938
0.999933
0.999938
0.999951
0.999969
0.999988
1
1.00001
1.00002
1.00002
1.00002
0.999989
0.999985
0.99998
0.999976
0.999976
0.999983
0.999998
1.00002
1.00004
1.00005
1.00006
1.00005
1.00004
1.00002
0.999997
0.999983
0.999977
0.999977
0.999983
0.999992
1
1.00001
1.00001
1.00001
0.999994
0.999965
0.999925
0.999881
0.99984
0.999812
0.999802
0.999812
0.99984
0.999881
0.999925
0.999965
0.999995
1.00001
1.00002
1.00002
0.999995
0.999993
0.999989
0.999984
0.99998
0.999978
0.999979
0.999983
0.999988
0.999992
0.999994
0.999992
0.999988
0.999983
0.999979
0.999978
0.999981
0.999986
0.999993
1
1.00001
1.00001
1.00001
0.999987
0.999944
0.999879
0.999799
0.999715
0.999643
0.999594
0.999577
0.999594
0.999643
0.999715
0.999799
0.99988
0.999946
0.999992
1.00002
1.00003
0.999998
0.999997
0.999995
0.999992
0.999988
0.999985
0.999983
0.999981
0.999981
0.999982
0.999982
0.999982
0.999981
0.999981
0.999983
0.999985
0.999989
0.999995
1
1.00001
1.00001
1.00001
0.999987
0.999936
0.99985
0.999732
0.999597
0.999464
0.999356
0.999287
0.999263
0.999287
0.999356
0.999464
0.999597
0.999733
0.999853
0.999943
0.999999
1.00003
1
0.999999
0.999998
0.999996
0.999994
0.999992
0.99999
0.999988
0.999987
0.999987
0.999986
0.999987
0.999987
0.999988
0.99999
0.999993
0.999997
1
1.00001
1.00001
1.00001
0.999994
0.999944
0.99985
0.999706
0.999525
0.999331
0.999155
0.999021
0.998939
0.998912
0.998939
0.999021
0.999155
0.999331
0.999527
0.999711
0.999859
0.999958
1.00001
1
1
1
0.999999
0.999998
0.999997
0.999996
0.999995
0.999994
0.999993
0.999993
0.999993
0.999994
0.999995
0.999996
0.999998
1
1.00001
1.00001
1.00001
1
0.999965
0.999879
0.999732
0.999525
0.999281
0.999042
0.998844
0.99871
0.998638
0.998616
0.998638
0.99871
0.998845
0.999043
0.999284
0.999531
0.999743
0.999893
0.999968
1
1
1
1
0.999999
0.999999
0.999998
0.999998
0.999998
0.999997
0.999997
0.999997
0.999998
0.999998
0.999999
1
1
1.00001
1.00001
1.00001
0.999988
0.999925
0.999799
0.999597
0.999331
0.999042
0.998784
0.998602
0.998504
0.998468
0.998461
0.998468
0.998504
0.998603
0.998786
0.999046
0.999339
0.999609
0.999809
0.999913
1
1
1
1
1
1
1
0.999999
0.999999
0.999999
0.999999
0.999999
0.999999
1
1
1
1.00001
1.00001
1.00001
1
0.999969
0.999881
0.999715
0.999464
0.999155
0.998844
0.998602
0.998471
0.998441
0.998463
0.998479
0.998463
0.998441
0.998471
0.998604
0.998849
0.999164
0.999476
0.999719
0.99985
1
1
1
1
1
1
1
1
1
1
1
1
1
1
1
1
1.00001
1.00001
1.00001
0.999998
0.999951
0.99984
0.999643
0.999356
0.999021
0.99871
0.998504
0.998441
0.998493
0.99858
0.998621
0.99858
0.998493
0.998442
0.998507
0.998716
0.99903
0.999367
0.999641
0.999791
1
1
1
1
1
1
1
1
1
1
1
1
1
1
1
1
1.00001
1.00001
1.00001
0.999993
0.999938
0.999812
0.999594
0.999287
0.998939
0.998638
0.998468
0.998463
0.99858
0.998719
0.998778
0.998719
0.998581
0.998464
0.998471
0.998644
0.998949
0.999297
0.999587
0.99975
1
1
1
1
1
1
1
1
1
1
1
1
1
1
1
1
1.00001
1.00001
1.00001
0.999992
0.999933
0.999802
0.999577
0.999263
0.998912
0.998616
0.998461
0.998479
0.998621
0.998778
0.998845
0.998778
0.998621
0.99848
0.998464
0.998622
0.998923
0.999272
0.999569
0.999735
1
1
1
1
1
1
1
1
1
1
1
1
1
1
1
1
1.00001
1.00001
1.00001
0.999993
0.999938
0.999812
0.999594
0.999287
0.998939
0.998638
0.998468
0.998463
0.99858
0.998719
0.998778
0.998719
0.998581
0.998464
0.998471
0.998644
0.998949
0.999297
0.999587
0.99975
1
1
1
1
1
1
1
1
1
1
1
1
1
1
1
1
1.00001
1.00001
1.00001
0.999998
0.999951
0.99984
0.999643
0.999356
0.999021
0.99871
0.998504
0.998441
0.998493
0.998581
0.998621
0.998581
0.998494
0.998442
0.998507
0.998716
0.99903
0.999367
0.999641
0.999791
1
1
1
1
1
1
1
1
1
1
1
1
1
1
1
1
1.00001
1.00001
1.00001
1
0.999969
0.999881
0.999715
0.999464
0.999155
0.998845
0.998603
0.998471
0.998442
0.998464
0.99848
0.998464
0.998442
0.998472
0.998605
0.99885
0.999164
0.999476
0.999719
0.99985
1
1
1
1
1
1
1
1
1
1
1
1
1
1
1
1
1
1.00001
1.00001
1.00001
0.999988
0.999925
0.999799
0.999597
0.999331
0.999043
0.998786
0.998604
0.998507
0.998471
0.998464
0.998471
0.998507
0.998605
0.998788
0.999047
0.99934
0.999609
0.999809
0.999913
1
1
1
1
1
1
1
1
1
1
1
1
1
1
1
1
1
1.00001
1.00001
1.00001
1
0.999965
0.99988
0.999733
0.999527
0.999284
0.999046
0.998849
0.998716
0.998644
0.998622
0.998644
0.998716
0.99885
0.999047
0.999288
0.999534
0.999745
0.999893
0.999968
1
1
1
1
1
1
1
1
1
1
1
1
1
1
1
1
1
1.00001
1.00001
1.00001
1.00001
0.999995
0.999946
0.999853
0.999711
0.999531
0.999339
0.999164
0.99903
0.998949
0.998923
0.998949
0.99903
0.999164
0.99934
0.999534
0.999717
0.999863
0.99996
1.00001
1
1
1
1
1
1
1
1
1
1
1
1
1
1
1
1
1
1
1.00001
1.00001
1.00002
1.00001
0.999992
0.999943
0.999859
0.999743
0.999609
0.999476
0.999367
0.999297
0.999272
0.999297
0.999367
0.999476
0.999609
0.999745
0.999863
0.99995
1
1.00003
1
1
1
1
1
1
1
1
1
1
1
1
1
1
1
1
1
1
1.00001
1.00001
1.00002
1.00002
1.00002
0.999999
0.999958
0.999893
0.999809
0.999719
0.999641
0.999587
0.999569
0.999587
0.999641
0.999719
0.999809
0.999893
0.99996
1
1.00003
1.00004
1
1
1
1
1
1
1
1
1
1
1
1
1
1
1
1
1
1
1
1.00001
1.00002
1.00002
1.00003
1.00003
1.00001
0.999968
0.999913
0.99985
0.999791
0.99975
0.999735
0.99975
0.999791
0.99985
0.999913
0.999968
1.00001
1.00003
1.00004
1.00004
SCALARS C2 double 1
LOOKUP_TABLE default
2.00003
2.00005
2.00008
2.00012
2.00016
2.00018
2.00018
2.00016
2.00013
2.0001
2.00009
2.0001
2.00013
2.00016
2.00018
2.00018
2.00016
2.00012
2.00008
2.00005
2.00002
2.00001
2
2
2
2
2
2
2
2
2
2
2
2
2
2
2
2
2
2
2.00005
2.00007
2.0001
2.00013
2.00014
2.00012
2.00007
1.99998
1.99989
1.99982
1.9998
1.99982
1.99989
1.99998
2.00007
2.00012
2.00014
2.00013
2.0001
2.00006
2.00003
2.00001
2
2
2
2
2
2
2
2
2
2
2
2
2
2
2
2
2
2
2.00008
2.0001
2.00012
2.00012
2.00006
1.99995
1.99976
1.99954
1.99933
1.99917
1.99912
1.99917
1.99933
1.99954
1.99976
1.99995
2.00006
2.00011
2.00011
2.00009
2.00005
2.00003
2.00001
2
2
2
2
2
2
2
2
2
2
2
2
2
2
2
2
2
2.00012
2.00013
2.00012
2.00004
1.99987
1.99958
1.99918
1.99874
1.99834
1.99807
1.99797
1.99807
1.99834
1.99874
1.99918
1.99958
1.99987
2.00004
2.00011
2.00011
2.00008
2.00004
2.00002
2.00001
2
2
2
2
2
2
2
2
2
2
2
2
2
2
2
2
2.00016
2.00014
2.00006
1.99987
1.9995
1.99895
1.99826
1.99755
1.99693
1.99652
1.99637
1.99652
1.99693
1.99755
1.99826
1.99895
1.9995
1.99987
2.00005
2.00011
2.0001
2.00006
2.00003
2.00001
2
2
2
2
2
2
2
2
2
2
2
2
2
2
2
2
2.00018
2.00012
1.99995
1.99958
1.99895
1.99808
1.99706
1.99606
1.99523
1.9947
1.99451
1.9947
1.99523
1.99606
1.99706
1.99808
1.99895
1.99957
1.99993
2.00008
2.0001
2.00008
2.00005
2.00002
2.00001
2
2
2
2
2
2
2
2
2
2
2
2
2
2
2
2.00018
2.00007
1.99976
1.99918
1.99826
1.99706
1.99573
1.99449
1.99352
1.99292
1.99273
1.99292
1.99352
1.99449
1.99573
1.99706
1.99826
1.99917
1.99973
2.00001
2.00009
2.00009
2.00006
2.00003
2.00001
2
2
2
2
2
2
2
2
2
2
2
2
2
2
2
2.00016
1.99998
1.99954
1.99874
1.99755
1.99606
1.99449
1.99311
1.9921
1.99151
1.99133
1.99151
1.9921
1.99311
1.99449
1.99605
1.99754
1.99873
1.9995
1.99992
2.00007
2.00009
2.00007
2.00004
2.00001
2
2
2
2
2
2
2
2
2
2
2
2
2
2
2
2.00013
1.99989
1.99933
1.99834
1.99693
1.99523
1.99352
1.9921
1.99113
1.99061
1.99045
1.99061
1.99113
1.9921
1.99352
1.99523
1.99692
1.99833
1.99929
1.99982
2.00004
2.00009
2.00007
2.00004
2.00002
2.00001
2
2
2
2
2
2
2
2
2
2
2
2
2
2
2.0001
1.99982
1.99917
1.99807
1.99652
1.9947
1.99292
1.99151
1.99061
1.99016
1.99003
1.99016
1.99061
1.99151
1.99292
1.99469
1.99651
1.99805
1.99913
1.99975
2.00002
2.00009
2.00007
2.00004
2.00002
2.00001
2
2
2
2
2
2
2
2
2
2
2
2
2
2
2.00009
1.9998
1.99912
1.99797
1.99637
1.99451
1.99273
1.99133
1.99045
1.99003
1.98991
1.99003
1.99045
1.99133
1.99273
1.99451
1.99636
1.99795
1.99907
1.99972
2.00001
2.00009
2.00007
2.00004
2.00002
2.00001
2
2
2
2
2
2
2
2
2
2
2
2
2
2
2.0001
1.99982
1.99917
1.99807
1.99652
1.9947
1.99292
1.99151
1.99061
1.99016
1.99003
1.99016
1.99061
1.99151
1.99292
1.99469
1.99651
1.99805
1.99913
1.99975
2.00002
2.00009
2.00007
2.00004
2.00002
2.00001
2
2
2
2
2
2
2
2
2
2
2
2
2
2
2.00013
1.99989
1.99933
1.99834
1.99693
1.99523
1.99352
1.9921
1.99113
1.99061
1.99045
1.99061
1.99113
1.9921
1.99352
1.99523
1.99692
1.99833
1.99929
1.99982
2.00004
2.00009
2.00007
2.00004
2.00002
2.00001
2
2
2
2
2
2
2
2
2
2
2
2
2
2
2.00016
1.99998
1.99954
1.99874
1.99755
1.99606
1.99449
1.99311
1.9921
1.99151
1.99133
1.99151
1.9921
1.99311
1.99449
1.99605
1.99754
1.99873
1.9995
1.99992
2.00007
2.00009
2.00007
2.00004
2.00002
2.00001
2
2
2
2
2
2
2
2
2
2
2
2
2
2
2.00018
2.00007
1.99976
1.99918
1.99826
1.99706
1.99573
1.99449
1.99352
1.99292
1.99273
1.99292
1.99352
1.99449
1.99573
1.99706
1.99826
1.99917
1.99973
2.00001
2.00009
2.00009
2.00006
2.00003
2.00001
2
2
2
2
2
2
2
2
2
2
2
2
2
2
2
2.00018
2.00012
1.99995
1.99958
1.99895
1.99808
1.99706
1.99605
1.99523
1.99469
1.99451
1.99469
1.99523
1.99605
1.99706
1.99808
1.99895
1.99957
1.99993
2.00008
2.0001
2.00008
2.00005
2.00002
2.00001
2
2
2
2
2
2
2
2
2
2
2
2
2
2
2
2.00016
2.00014
2.00006
1.99987
1.9995
1.99895
1.99826
1.99754
1.99692
1.99651
1.99636
1.99651
1.99692
1.99754
1.99826
1.99895
1.9995
1.99987
2.00005
2.00011
2.0001
2.00006
2.00003
2.00001
2
2
2
1.99999
1.99999
1.99999
1.99999
1.99999
1.99999
1.99999
2
2
2
2
2
2
2.00012
2.00013
2.00011
2.00004
1.99987
1.99957
1.99917
1.99873
1.99833
1.99805
1.99795
1.99805
1.99833
1.99873
1.99917
1.99957
1.99987
2.00004
2.00011
2.00011
2.00008
2.00004
2.00002
2.00001
2
1.99999
1.99999
1.99999
1.99998
1.99998
1.99998
1.99998
1.99998
1.99999
1.99999
1.99999
1.99999
2
2
2
2.00008
2.0001
2.00011
2.00011
2.00005
1.99993
1.99973
1.9995
1.99929
1.99913
1.99907
1.99913
1.99929
1.9995
1.99973
1.99993
2.00005
2.00011
2.00011
2.00008
2.00005
2.00003
2.00001
2
1.99999
1.99998
1.99997
1.99997
1.99997
1.99996
1.99996
1.99996
1.99997
1.99997
1.99997
1.99998
1.99999
1.99999
2
2
2.00005
2.00006
2.00009
2.00011
2.00011
2.00008
2.00001
1.99992
1.99982
1.99975
1.99972
1.99975
1.99982
1.99992
2.00001
2.00008
2.00011
2.00011
2.00008
2.00006
2.00003
2.00001
1.99999
1.99998
1.99997
1.99996
1.99996
1.99995
1.99995
1.99995
1.99995
1.99995
1.99995
1.99995
1.99996
1.99996
1.99997
1.99998
1.99999
1.99999
2.00002
2.00003
2.00005
2.00008
2.0001
2.0001
2.00009
2.00007
2.00004
2.00002
2.00001
2.00002
2.00004
2.00007
2.00009
2.0001
2.0001
2.00008
2.00005
2.00003
2.00001
1.99999
1.99998
1.99997
1.99995
1.99994
1.99994
1.99994
1.99995
1.99996
1.99996
1.99996
1.99995
1.99994
1.99994
1.99994
1.99995
1.99997
1.99998
1.99998
2.00001
2.00001
2.00003
2.00004
2.00006
2.00008
2.00009
2.00009
2.00009
2.00009
2.00009
2.00009
2.00009
2.00009
2.00009
2.00008
2.00006
2.00004
2.00003
2.00001
1.99999
1.99998
1.99996
1.99995
1.99994
1.99994
1.99995
1.99998
2.00001
2.00004
2.00004
2.00004
2.00001
1.99998
1.99995
1.99994
1.99994
1.99994
1.99996
1.99996
2
2
2.00001
2.00002
2.00003
2.00005
2.00006
2.00007
2.00007
2.00007
2.00007
2.00007
2.00007
2.00007
2.00006
2.00005
2.00003
2.00002
2.00001
1.99999
1.99998
1.99996
1.99994
1.99993
1.99994
1.99997
2.00004
2.00012
2.0002
2.00026
2.00028
2.00026
2.0002
2.00012
2.00004
1.99997
1.99994
1.99993
1.99993
1.99994
2
2
2
2.00001
2.00001
2.00002
2.00003
2.00004
2.00004
2.00004
2.00004
2.00004
2.00004
2.00004
2.00003
2.00002
2.00001
2.00001
2
1.99998
1.99997
1.99995
1.99993
1.99994
1.99999
2.00009
2.00024
2.00041
2.00057
2.00069
2.00073
2.00069
2.00057
2.00041
2.00024
2.00009
1.99999
1.99993
1.99992
1.99991
2
2
2
2
2
2.00001
2.00001
2.00001
2.00002
2.00002
2.00002
2.00002
2.00002
2.00002
2.00001
2.00001
2
2
1.99999
1.99997
1.99995
1.99994
1.99994
1.99999
2.00011
2.00032
2.0006
2.0009
2.00117
2.00136
2.00143
2.00136
2.00117
2.0009
2.0006
2.00032
2.00011
1.99998
1.99991
1.99989
2
2
2
2
2
2
2
2
2.00001
2.00001
2.00001
2.00001
2.00001
2.00001
2
2
2
1.99999
1.99998
1.99996
1.99994
1.99994
1.99997
2.00009
2.00032
2.00067
2.00111
2.00156
2.00196
2.00223
2.00232
2.00223
2.00196
2.00156
2.00111
2.00067
2.00031
2.00007
1.99994
1.99988
2
2
2
2
2
2
2
2
2
2
2
2
2
2
2
2
2
1.99999
1.99997
1.99996
1.99994
1.99995
2.00004
2.00024
2.0006
2.00111
2.00171
2.00232
2.00283
2.00316
2.00327
2.00316
2.00283
2.00232
2.00171
2.0011
2.00058
2.00021
1.99999
1.99989
2
2
2
2
2
2
2
2
2
2
2
2
2
2
2
2
1.99999
1.99999
1.99997
1.99995
1.99994
1.99998
2.00012
2.00041
2.0009
2.00156
2.00232
2.00305
2.00363
2.004
2.00412
2.004
2.00363
2.00305
2.00232
2.00156
2.00088
2.00038
2.00007
1.99992
2
2
2
2
2
2
2
2
2
2
2
2
2
2
2
2
1.99999
1.99998
1.99997
1.99995
1.99995
2.00001
2.0002
2.00057
2.00117
2.00196
2.00283
2.00363
2.00425
2.00463
2.00476
2.00463
2.00425
2.00363
2.00283
2.00195
2.00116
2.00054
2.00015
1.99996
2
2
2
2
2
2
2
2
2
2
2
2
2
2
2
2
1.99999
1.99998
1.99996
1.99995
1.99996
2.00004
2.00026
2.00069
2.00136
2.00223
2.00316
2.004
2.00463
2.00501
2.00513
2.00501
2.00463
2.004
2.00315
2.00222
2.00134
2.00065
2.0002
1.99999
2
2
2
2
2
2
2
2
2
2
2
2
2
2
2
2
1.99999
1.99998
1.99996
1.99995
1.99996
2.00004
2.00028
2.00073
2.00143
2.00232
2.00327
2.00412
2.00476
2.00513
2.00525
2.00513
2.00476
2.00412
2.00327
2.00231
2.00141
2.00069
2.00023
2
2
2
2
2
2
2
2
2
2
2
2
2
2
2
2
2
1.99999
1.99998
1.99996
1.99995
1.99996
2.00004
2.00026
2.00069
2.00136
2.00223
2.00316
2.004
2.00463
2.00501
2.00513
2.00501
2.00463
2.004
2.00315
2.00222
2.00134
2.00065
2.0002
1.99999
2
2
2
2
2
2
2
2
2
2
2
2
2
2
2
2
1.99999
1.99998
1.99997
1.99995
1.99995
2.00001
2.0002
2.00057
2.00117
2.00196
2.00283
2.00363
2.00425
2.00463
2.00476
2.00463
2.00425
2.00363
2.00283
2.00195
2.00116
2.00054
2.00015
1.99996
2
2
2
2
2
2
2
2
2
2
2
2
2
2
2
2
1.99999
1.99999
1.99997
1.99995
1.99994
1.99998
2.00012
2.00041
2.0009
2.00156
2.00232
2.00305
2.00363
2.004
2.00412
2.004
2.00363
2.00305
2.00232
2.00156
2.00089
2.00038
2.00007
1.99992
2
2
2
2
2
2
2
2
2
2
2
2
2
2
2
2
2
1.99999
1.99997
1.99996
1.99994
1.99995
2.00004
2.00024
2.0006
2.00111
2.00171
2.00232
2.00283
2.00315
2.00327
2.00315
2.00283
2.00232
2.00171
2.0011
2.00058
2.00021
1.99999
1.99989
2
2
2
2
2
2
2
2
2
2
2
2
2
2
2
2
2
1.99999
1.99998
1.99996
1.99994
1.99994
1.99997
2.00009
2.00032
2.00067
2.0011
2.00156
2.00195
2.00222
2.00231
2.00222
2.00195
2.00156
2.0011
2.00066
2.00031
2.00007
1.99994
1.99988
2
2
2
2
2
2
2
2
2
2
2
2
2
2
2
2
2
1.99999
1.99999
1.99997
1.99995
1.99994
1.99994
1.99999
2.00011
2.00031
2.00058
2.00088
2.00116
2.00134
2.00141
2.00134
2.00116
2.00089
2.00058
2.00031
2.0001
1.99997
1.99991
1.99989
2
2
2
2
2
2
2
2
2
2
2
2
2
2
2
2
2
2
1.99999
1.99998
1.99997
1.99994
1.99993
1.99993
1.99998
2.00007
2.00021
2.00038
2.00054
2.00065
2.00069
2.00065
2.00054
2.00038
2.00021
2.00007
1.99997
1.99993
1.99991
1.99991
2
2
2
2
2
2
2
2
2
2
2
2
2
2
2
2
2
2
2
1.99999
1.99998
1.99996
1.99993
1.99992
1.99991
1.99994
1.99999
2.00007
2.00015
2.0002
2.00023
2.0002
2.00015
2.00007
1.99999
1.99994
1.99991
1.99991
1.99992
1.99993
2
2
2
2
2
2
2
2
2
2
2
2
2
2
2
2
2
2
2
1.99999
1.99998
1.99996
1.99994
1.99991
1.99989
1.99988
1.99989
1.99992
1.99996
1.99999
2
1.99999
1.99996
1.99992
1.99989
1.99988
1.99989
1.99991
1.99993
1.99995
