# vtk DataFile Version 3.0
Brusselator Concentration Output
ASCII
DATASET STRUCTURED_POINTS
DIMENSIONS 40 40 1
ORIGIN 0.0 0.0 0.0
SPACING 0.005 0.005 1.0
POINT_DATA 1600
SCALARS C1 double 1
LOOKUP_TABLE default
1
1
1
1
1
1
1
1
1
1
0.999999
1
1
1
1
1
1
1
1
1
1
1
1
1
1
1
1
1
1
1
1
1
1
1
1
1
1
1
1
1
1
1
1
1
1
1
1
0.999999
0.999995
0.999991
0.99999
0.999991
0.999995
0.999999
1
1
1
1
1
1
1
1
1
1
1
1
1
1
1
1
1
1
1
1
1
1
1
1
1
1
1
1
1
1
1
1
0.999995
0.999984
0.999967
0.999951
0.999944
0.999951
0.999967
0.999984
0.999995
1
1
1
1
1
1
1
1
1
1
1
1
1
1
1
1
1
1
1
1
1
1
1
1
1
1
1
1
1
1
0.999992
0.999968
0.999922
0.999862
0.999811
0.999793
0.999811
0.999862
0.999922
0.999968
0.999992
1
1
1
1
1
1
1
1
1
1
1
1
1
1
1
1
1
1
1
1
1
1
1
1
1
1
1
1
0.99999
0.999956
0.999874
0.999736
0.999577
0.999467
0.999435
0.999467
0.999577
0.999736
0.999874
0.999956
0.99999
1
1
1
1
1
1
1
1
1
1
1
1
1
1
1
1
1
1
1
1
1
1
1
1
1
1
0.999992
0.999956
0.999853
0.999638
0.999329
0.999057
0.998958
0.998968
0.998958
0.999057
0.999329
0.999638
0.999853
0.999956
0.999992
1
1
1
1
1
1
1
1
1
1
1
1
1
1
1
1
1
1
1
1
1
1
1
1
0.999995
0.999968
0.999874
0.999638
0.999219
0.998766
0.998647
0.999013
0.999309
0.999013
0.998647
0.998766
0.999219
0.999638
0.999874
0.999968
0.999995
1
1
1
1
1
1
1
1
1
1
1
1
1
1
1
1
1
1
1
1
1
1
0.999999
0.999984
0.999922
0.999736
0.999329
0.998766
0.998564
0.999542
1.0016
1.00278
1.0016
0.999542
0.998564
0.998766
0.999329
0.999736
0.999922
0.999984
0.999998
1
1
1
1
1
1
1
1
1
1
1
1
1
1
1
1
1
1
1
1
1
0.999995
0.999967
0.999862
0.999577
0.999057
0.998647
0.999542
1.0032
1.00877
1.01169
1.00877
1.0032
0.999542
0.998647
0.999056
0.999577
0.999862
0.999967
0.999995
1
1
1
1
1
1
1
1
1
1
1
1
1
1
1
1
1
1
1
1
1
0.999991
0.999951
0.999811
0.999467
0.998958
0.999013
1.0016
1.00877
1.01864
1.0236
1.01864
1.00877
1.0016
0.999013
0.998958
0.999467
0.999811
0.999951
0.999991
0.999999
1
1
1
1
1
1
1
1
1
1
1
1
1
1
1
1
1
1
1
0.999999
0.99999
0.999944
0.999793
0.999435
0.998968
0.999309
1.00278
1.01169
1.0236
1.02949
1.0236
1.01169
1.00278
0.999309
0.998968
0.999435
0.999793
0.999944
0.999989
0.999999
1
1
1
1
1
1
1
1
1
1
1
1
1
1
1
1
1
1
1
1
0.999991
0.999951
0.999811
0.999467
0.998958
0.999013
1.0016
1.00877
1.01864
1.0236
1.01864
1.00877
1.0016
0.999013
0.998958
0.999467
0.999811
0.999951
0.999991
0.999999
1
1
1
1
1
1
1
1
1
1
1
1
1
1
1
1
1
1
1
1
0.999995
0.999967
0.999862
0.999577
0.999057
0.998647
0.999542
1.0032
1.00877
1.01169
1.00877
1.0032
0.999542
0.998647
0.999056
0.999577
0.999862
0.999967
0.999995
1
1
1
1
1
1
1
1
1
1
1
1
1
1
1
1
1
1
1
1
1
0.999999
0.999984
0.999922
0.999736
0.999329
0.998766
0.998564
0.999542
1.0016
1.00278
1.0016
0.999542
0.998564
0.998766
0.999329
0.999736
0.999922
0.999984
0.999998
1
1
1
1
1
1
1
1
1
1
1
1
1
1
1
1
1
1
1
1
1
1
0.999995
0.999968
0.999874
0.999638
0.999219
0.998766
0.998647
0.999013
0.999309
0.999013
0.998647
0.998766
0.999219
0.999638
0.999874
0.999968
0.999995
1
1
1
1
1
1
1
1
1
1
1
1
1
1
1
1
1
1
1
1
1
1
1
1
0.999992
0.999956
0.999853
0.999638
0.999329
0.999056
0.998958
0.998968
0.998958
0.999056
0.999329
0.999638
0.999853
0.999956
0.999992
1
1
1
1
1
1
1
1
1
1
1
1
1
1
1
1
1
1
1
1
1
1
1
1
1
1
0.99999
0.999956
0.999874
0.999736
0.999577
0.999467
0.999435
0.999467
0.999577
0.999736
0.999874
0.999956
0.99999
1
1
1
1
1
1
1
1
1
1
1
1
1
1
1
1
1
1
1
1
1
1
1
1
1
1
1
1
0.999992
0.999968
0.999922
0.999862
0.999811
0.999793
0.999811
0.999862
0.999922
0.999968
0.999992
1
1
1
1
1
1
1
1
1
1
1
1
1
1
1
1
1
1
1
1
1
1
1
1
1
1
1
1
1
1
0.999995
0.999984
0.999967
0.999951
0.999944
0.999951
0.999967
0.999984
0.999995
1
1
1
1
1
1
1
1
1
1
1
1
1
1
1
1
1
1
1
1
1
1
1
1
1
1
1
1
1
1
1
1
0.999998
0.999995
0.999991
0.999989
0.999991
0.999995
0.999998
1
1
1
1
1
1
1
1
1
1
1
1
1
1
1
1
1
1
1
1
1
1
1
1
1
1
1
1
1
1
1
1
1
1
1
0.999999
0.999999
0.999999
1
1
1
1
1
1
1
1
1
1
1
1
1
1
1
1
1
1
1
1
1
1
1
1
1
1
1
1
1
1
1
1
1
1
1
1
1
1
1
1
1
1
1
1
1
1
1
1
1
1
1
1
1
1
1
1
1
1
1
1
1
1
1
1
1
1
1
1
1
1
1
1
1
1
1
1
1
1
1
1
1
1
1
1
1
1
1
1
1
1
1
1
1
1
1
1.00001
1.00001
1.00002
1.00002
1.00002
1.00001
1.00001
1
1
1
1
1
1
1
1
1
1
1
1
1
1
1
1
1
1
1
1
1
1
1
1
1
1
1
1
1
0.999999
1
1
1.00001
1.00003
1.00005
1.00007
1.00008
1.00007
1.00005
1.00003
1.00001
1
1
0.999999
1
1
1
1
1
1
1
1
1
1
1
1
1
1
1
1
1
1
1
1
1
1
1
1
1
1
1
1.00001
1.00005
1.0001
1.00017
1.00023
1.00025
1.00023
1.00017
1.0001
1.00005
1.00001
1
1
0.999999
1
1
1
1
1
1
1
1
1
1
1
1
1
1
1
1
1
1
1
1
1
1
1
1
1
1.00001
1.00005
1.00014
1.00028
1.00043
1.00052
1.00054
1.00052
1.00043
1.00028
1.00014
1.00005
1.00001
1
1
0.999999
1
1
1
1
1
1
1
1
1
1
1
1
1
1
1
1
1
1
1
1
1
1
1
1.00001
1.00005
1.00014
1.00033
1.00059
1.00076
1.00075
1.00068
1.00075
1.00076
1.00059
1.00033
1.00014
1.00005
1.00001
1
0.999999
1
1
1
1
1
1
1
1
1
1
1
1
1
1
1
1
1
1
1
1
1
1
1.00001
1.00003
1.0001
1.00028
1.00059
1.00086
1.00076
1.00018
0.999775
1.00018
1.00076
1.00086
1.00059
1.00028
1.0001
1.00003
1.00001
1
1
1
1
1
1
1
1
1
1
1
1
1
1
1
1
1
1
1
1
1
1
1
1.00001
1.00005
1.00017
1.00043
1.00076
1.00076
0.99974
0.99781
0.996686
0.99781
0.99974
1.00076
1.00076
1.00043
1.00017
1.00005
1.00001
1
1
1
1
1
1
1
1
1
1
1
1
1
1
1
1
1
1
1
1
1
1
1
1.00002
1.00007
1.00023
1.00052
1.00075
1.00018
0.99781
0.994078
0.992033
0.994078
0.99781
1.00018
1.00075
1.00052
1.00023
1.00007
1.00002
1
1
1
1
1
1
1
1
1
1
1
1
1
1
1
1
1
1
1
1
1
1
1
1.00002
1.00008
1.00025
1.00054
1.00068
0.999775
0.996686
0.992033
0.989523
0.992033
0.996686
0.999775
1.00068
1.00054
1.00025
1.00008
1.00002
1
1
1
1
1
1
1
1
1
1
1
1
1
1
1
1
1
1
1
1
1
1
1
1.00002
1.00007
1.00023
1.00052
1.00075
1.00018
0.99781
0.994078
0.992033
0.994078
0.99781
1.00018
1.00075
1.00052
1.00023
1.00007
1.00002
1
1
1
1
1
1
1
1
1
1
1
1
1
1
1
1
1
1
1
1
1
1
1
1.00001
1.00005
1.00017
1.00043
1.00076
1.00076
0.99974
0.99781
0.996686
0.99781
0.99974
1.00076
1.00076
1.00043
1.00017
1.00005
1.00001
1
1
1
1
1
1
1
1
1
1
1
1
1
1
1
1
1
1
1
1
1
1
1
1.00001
1.00003
1.0001
1.00028
1.00059
1.00086
1.00076
1.00018
0.999775
1.00018
1.00076
1.00086
1.00059
1.00028
1.0001
1.00003
1.00001
1
1
1
1
1
1
1
1
1
1
1
1
1
1
1
1
1
1
1
1
1
1
1
1
1.00001
1.00005
1.00014
1.00033
1.00059
1.00076
1.00075
1.00068
1.00075
1.00076
1.00059
1.00033
1.00014
1.00005
1.00001
1
0.999999
1
1
1
1
1
1
1
1
1
1
1
1
1
1
1
1
1
1
1
1
1
1
1
1
1.00001
1.00005
1.00014
1.00028
1.00043
1.00052
1.00054
1.00052
1.00043
1.00028
1.00014
1.00005
1.00001
1
1
0.999999
1
1
1
1
1
1
1
1
1
1
1
1
1
1
1
1
1
1
1
1
1
1
1
1
1
1.00001
1.00005
1.0001
1.00017
1.00023
1.00025
1.00023
1.00017
1.0001
1.00005
1.00001
1
1
0.999999
1
1
1
1
1
1
1
1
1
1
1
1
1
1
1
1
1
1
1
1
1
1
1
1
0.999999
1
1
1.00001
1.00003
1.00005
1.00007
1.00008
1.00007
1.00005
1.00003
1.00001
1
1
0.999999
1
1
1
1
1
1
1
1
1
1
1
1
1
1
1
1
1
1
1
1
1
1
1
1
1
1
0.999999
1
1
1.00001
1.00001
1.00002
1.00002
1.00002
1.00001
1.00001
1
1
0.999999
1
1
1
1
1
1
1
1
1
1
1
1
1
1
1
1
1
1
1
1
1
1
1
1
1
1
1
1
0.999999
0.999999
1
1
1
1
1
1
1
0.999999
0.999999
1
1
1
1
SCALARS C2 double 1
LOOKUP_TABLE default
2
2
2
2
2
2
2
2
2
2
2
2
2
2
2
2
2
2
2
2
2
2
2
2
2
2
2
2
2
2
2
2
2
2
2
2
2
2
2
2
2
2
2
2
2
2
2
2
2
2
2
2
2
2
2
2
2
2
2
2
2
2
2
2
2
2
2
2
2
2
2
2
2
2
2
2
2
2
2
2
2
2
2
2
2
2
2
2
2.00001
2.00003
2.00003
2.00003
2.00001
2
2
2
2
2
2
2
2
2
2
2
2
2
2
2
2
2
2
2
2
2
2
2
2
2
2
2
2
2
2
2
2
2
2.00001
2.00004
2.0001
2.00016
2.00019
2.00016
2.0001
2.00004
2.00001
2
2
2
2
2
2
2
2
2
2
2
2
2
2
2
2
2
2
2
2
2
2
2
2
2
2
2
2
2
2
2.00001
2.00007
2.00022
2.00044
2.00065
2.00074
2.00065
2.00044
2.00022
2.00007
2.00001
2
2
2
2
2
2
2
2
2
2
2
2
2
2
2
2
2
2
2
2
2
2
2
2
2
2
2
2
2.00001
2.00009
2.00032
2.00077
2.0014
2.00194
2.00213
2.00194
2.0014
2.00077
2.00032
2.00009
2.00001
2
2
2
2
2
2
2
2
2
2
2
2
2
2
2
2
2
2
2
2
2
2
2
2
2
2
2.00001
2.00007
2.00032
2.00093
2.00203
2.00336
2.00431
2.00456
2.00431
2.00336
2.00203
2.00093
2.00032
2.00007
2.00001
2
2
2
2
2
2
2
2
2
2
2
2
2
2
2
2
2
2
2
2
2
2
2
2
2
2.00004
2.00022
2.00077
2.00203
2.00402
2.00599
2.00676
2.00661
2.00676
2.00599
2.00402
2.00203
2.00077
2.00022
2.00004
2
2
2
2
2
2
2
2
2
2
2
2
2
2
2
2
2
2
2
2
2
2
2
2
2.00001
2.0001
2.00044
2.0014
2.00336
2.00599
2.00748
2.00618
2.00447
2.00618
2.00748
2.00599
2.00336
2.0014
2.00044
2.0001
2.00001
2
2
2
2
2
2
2
2
2
2
2
2
2
2
2
2
2
2
2
2
2
2
2
2.00003
2.00016
2.00065
2.00194
2.00431
2.00676
2.00618
2.00067
1.99621
2.00067
2.00618
2.00676
2.00431
2.00194
2.00065
2.00016
2.00003
2
2
2
2
2
2
2
2
2
2
2
2
2
2
2
2
2
2
2
2
2
2
2
2.00003
2.00019
2.00074
2.00213
2.00456
2.00661
2.00447
1.99621
1.99006
1.99621
2.00447
2.00661
2.00456
2.00213
2.00074
2.00019
2.00003
2
2
2
2
2
2
2
2
2
2
2
2
2
2
2
2
2
2
2
2
2
2
2
2.00003
2.00016
2.00065
2.00194
2.00431
2.00676
2.00618
2.00067
1.99621
2.00067
2.00618
2.00676
2.00431
2.00194
2.00065
2.00016
2.00003
2
2
2
2
2
2
2
2
2
2
2
2
2
2
2
2
2
2
2
2
2
2
2
2.00001
2.0001
2.00044
2.0014
2.00336
2.00599
2.00748
2.00618
2.00447
2.00618
2.00748
2.00599
2.00336
2.0014
2.00044
2.0001
2.00001
2
2
2
2
2
2
2
2
2
2
2
2
2
2
2
2
2
2
2
2
2
2
2
2
2.00004
2.00022
2.00077
2.00203
2.00402
2.00599
2.00676
2.00661
2.00676
2.00599
2.00402
2.00203
2.00077
2.00022
2.00004
2
2
2
2
2
2
2
2
2
2
2
2
2
2
2
2
2
2
2
2
2
2
2
2
2
2.00001
2.00007
2.00032
2.00093
2.00203
2.00336
2.00431
2.00456
2.00431
2.00336
2.00203
2.00093
2.00032
2.00007
2.00001
2
2
2
2
2
2
2
2
2
2
2
2
2
2
2
2
2
2
2
2
2
2
2
2
2
2
2.00001
2.00009
2.00032
2.00077
2.0014
2.00194
2.00213
2.00194
2.0014
2.00077
2.00032
2.00009
2.00001
2
2
2
2
2
2
2
2
2
2
2
2
2
2
2
2
2
2
2
2
2
2
2
2
2
2
2
2
2.00001
2.00007
2.00022
2.00044
2.00065
2.00074
2.00065
2.00044
2.00022
2.00007
2.00001
2
2
2
2
2
2
2
2
2
2
2
2
2
2
2
2
2
2
2
2
2
2
2
2
2
2
2
2
2
2
2.00001
2.00004
2.0001
2.00016
2.00019
2.00016
2.0001
2.00004
2.00001
2
2
2
2
2
2
2
2
2
2
2
2
2
2
2
2
2
2
2
2
2
2
2
2
2
2
2
2
2
2
2
2
2
2.00001
2.00003
2.00003
2.00003
2.00001
2
2
2
2
2
2
2
2
2
2
2
2
2
2
2
2
2
2
2
2
2
2
2
2
2
2
2
2
2
2
2
2
2
2
2
2
2
2
2
2
2
2
2
2
2
2
2
2
2
2
2
2
2
2
2
2
2
2
2
2
2
2
2
2
2
2
2
2
2
2
2
2
2
2
2
2
2
2
2
2
2
2
2
2
2
2
2
2
2
2
2
2
2
2
2
2
2
2
2
2
2
2
2
2
2
2
2
2
2
2
2
2
2
2
2
2
2
2
2
2
2
2
2
2
2
2
2
2
2
2
2
2
2
2
2
2
2
2
2
2
2
2
2
2
2
2
2
2
2
2
2
2
2
2
2
2
2
2
2
2
2
2
2
2
2
2
2
2
2
2
2
2
2
2
2
2
1.99999
1.99999
1.99999
2
2
2
2
2
2
2
2
2
2
2
2
2
2
2
2
2
2
2
2
2
2
2
2
2
2
2
2
2
2
2
2
2
2
2
1.99999
1.99997
1.99994
1.99993
1.99994
1.99997
1.99999
2
2
2
2
2
2
2
2
2
2
2
2
2
2
2
2
2
2
2
2
2
2
2
2
2
2
2
2
2
2
2
2
1.99998
1.99993
1.99984
1.99975
1.99971
1.99975
1.99984
1.99993
1.99998
2
2
2
2
2
2
2
2
2
2
2
2
2
2
2
2
2
2
2
2
2
2
2
2
2
2
2
2
2
2
1.99997
1.99989
1.99971
1.99944
1.99919
1.99909
1.99919
1.99944
1.99971
1.99989
1.99997
2
2
2
2
2
2
2
2
2
2
2
2
2
2
2
2
2
2
2
2
2
2
2
2
2
2
2
2
1.99998
1.99989
1.99965
1.99918
1.99854
1.998
1.99782
1.998
1.99854
1.99918
1.99965
1.99989
1.99998
2
2
2
2
2
2
2
2
2
2
2
2
2
2
2
2
2
2
2
2
2
2
2
2
2
2
1.99999
1.99993
1.99971
1.99918
1.99823
1.99709
1.99632
1.99616
1.99632
1.99709
1.99823
1.99918
1.99971
1.99993
1.99999
2
2
2
2
2
2
2
2
2
2
2
2
2
2
2
2
2
2
2
2
2
2
2
2
2
1.99997
1.99984
1.99944
1.99854
1.99709
1.99568
1.99521
1.99542
1.99521
1.99568
1.99709
1.99854
1.99944
1.99984
1.99997
2
2
2
2
2
2
2
2
2
2
2
2
2
2
2
2
2
2
2
2
2
2
2
2
1.99999
1.99994
1.99975
1.99919
1.998
1.99632
1.99521
1.9958
1.99679
1.9958
1.99521
1.99632
1.998
1.99919
1.99975
1.99994
1.99999
2
2
2
2
2
2
2
2
2
2
2
2
2
2
2
2
2
2
2
2
2
2
2
1.99999
1.99993
1.99971
1.99909
1.99782
1.99616
1.99542
1.99679
1.9983
1.99679
1.99542
1.99616
1.99782
1.99909
1.99971
1.99993
1.99999
2
2
2
2
2
2
2
2
2
2
2
2
2
2
2
2
2
2
2
2
2
2
2
1.99999
1.99994
1.99975
1.99919
1.998
1.99632
1.99521
1.9958
1.99679
1.9958
1.99521
1.99632
1.998
1.99919
1.99975
1.99994
1.99999
2
2
2
2
2
2
2
2
2
2
2
2
2
2
2
2
2
2
2
2
2
2
2
2
1.99997
1.99984
1.99944
1.99854
1.99709
1.99568
1.99521
1.99542
1.99521
1.99568
1.99709
1.99854
1.99944
1.99984
1.99997
2
2
2
2
2
2
2
2
2
2
2
2
2
2
2
2
2
2
2
2
2
2
2
2
2
1.99999
1.99993
1.99971
1.99918
1.99823
1.99709
1.99632
1.99616
1.99632
1.99709
1.99823
1.99918
1.99971
1.99993
1.99999
2
2
2
2
2
2
2
2
2
2
2
2
2
2
2
2
2
2
2
2
2
2
2
2
2
2
1.99998
1.99989
1.99965
1.99918
1.99854
1.998
1.99782
1.998
1.99854
1.99918
1.99965
1.99989
1.99998
2
2
2
2
2
2
2
2
2
2
2
2
2
2
2
2
2
2
2
2
2
2
2
2
2
2
2
2
1.99997
1.99989
1.99971
1.99944
1.99919
1.99909
1.99919
1.99944
1.99971
1.99989
1.99997
2
2
2
2
2
2
2
2
2
2
2
2
2
2
2
2
2
2
2
2
2
2
2
2
2
2
2
2
2
2
1.99998
1.99993
1.99984
1.99975
1.99971
1.99975
1.99984
1.99993
1.99998
2
2
2
2
2
2
2
2
2
2
2
2
2
2
2
2
2
2
2
2
2
2
2
2
2
2
2
2
2
2
2
2
1.99999
1.99997
1.99994
1.99993
1.99994
1.99997
1.99999
2
2
2
2
2
2
2
2
2
2
2
2
2
2
2
2
2
2
2
2
2
2
2
2
2
2
2
2
2
2
2
2
2
2
2
1.99999
1.99999
1.99999
2
2
2
2
2
2
2
2
2
2
2
2
2
2
2
2
2
2
2
2
2
2
2
2
2
2
2
2
2
2
2
2
2
2
2
2
2
2
2
2
2
2
2
2
2
2
2
2
