# vtk DataFile Version 3.0
Brusselator Concentration Output
ASCII
DATASET STRUCTURED_POINTS
DIMENSIONS 40 40 1
ORIGIN 0.0 0.0 0.0
SPACING 0.005 0.005 1.0
POINT_DATA 1600
SCALARS C1 double 1
LOOKUP_TABLE default
0.999972
1
1.00007
1.00017
1.00029
1.00043
1.00056
1.00069
1.00078
1.00084
1.00086
1.00084
1.00078
1.00069
1.00056
1.00043
1.00029
1.00017
1.00008
1.00002
0.999992
0.99998
0.999981
0.999986
0.999992
0.999996
0.999998
1
1
1
1
1
1
1
1
1
1
1
1
1
1
1.00005
1.00013
1.00024
1.00038
1.00053
1.00067
1.00079
1.00087
1.00092
1.00094
1.00092
1.00087
1.00079
1.00067
1.00053
1.00039
1.00025
1.00014
1.00006
1.00001
0.999991
0.999985
0.999987
0.999991
0.999995
0.999998
0.999999
1
1
1
1
1
1
1
1
1
1
1
1
1.00007
1.00013
1.00024
1.00038
1.00055
1.0007
1.00083
1.00092
1.00098
1.00101
1.00102
1.00101
1.00098
1.00093
1.00083
1.00071
1.00055
1.00039
1.00025
1.00013
1.00006
1.00001
0.999993
0.999988
0.99999
0.999994
0.999997
0.999999
1
1
1
1
1
1
1
1
1
1
1
1
1.00017
1.00024
1.00038
1.00056
1.00074
1.00088
1.00097
1.001
1.001
1.00098
1.00097
1.00098
1.001
1.001
1.00097
1.00088
1.00074
1.00057
1.00039
1.00024
1.00012
1.00005
1.00001
0.999993
0.99999
0.999993
0.999996
0.999998
0.999999
1
1
1
1
1
1
1
1
1
1
1
1.00029
1.00038
1.00055
1.00074
1.0009
1.00099
1.00099
1.00092
1.00081
1.00072
1.00068
1.00072
1.00081
1.00092
1.00099
1.00099
1.00091
1.00075
1.00055
1.00035
1.0002
1.00009
1.00003
1
0.999992
0.999992
0.999995
0.999997
0.999999
1
1
1
1
1
1
1
1
1
1
1
1.00043
1.00053
1.0007
1.00088
1.00099
1.00098
1.00085
1.00062
1.00037
1.00018
1.00011
1.00018
1.00037
1.00062
1.00085
1.00099
1.001
1.00089
1.00069
1.00048
1.00028
1.00014
1.00005
1.00001
0.999994
0.999992
0.999994
0.999997
0.999998
0.999999
1
1
1
1
1
1
1
1
1
1
1.00056
1.00067
1.00083
1.00097
1.00099
1.00085
1.00054
1.00012
0.999706
0.999401
0.999289
0.999401
0.999707
1.00012
1.00054
1.00085
1.001
1.00097
1.00081
1.00059
1.00037
1.0002
1.00008
1.00002
0.999998
0.999992
0.999993
0.999996
0.999998
0.999999
1
1
1
1
1
1
1
1
1
1
1.00069
1.00079
1.00092
1.001
1.00092
1.00062
1.00012
0.999514
0.998932
0.998514
0.998362
0.998514
0.998933
0.999516
1.00013
1.00063
1.00093
1.001
1.00089
1.00067
1.00044
1.00025
1.00011
1.00004
1
0.999993
0.999993
0.999995
0.999998
0.999999
1
1
1
1
1
1
1
1
1
1
1.00078
1.00087
1.00098
1.001
1.00081
1.00037
0.999706
0.998932
0.998208
0.997695
0.997511
0.997696
0.998209
0.998934
0.999711
1.00038
1.00082
1.00099
1.00093
1.00074
1.0005
1.00029
1.00014
1.00005
1.00001
0.999994
0.999993
0.999995
0.999997
0.999999
1
1
1
1
1
1
1
1
1
1
1.00084
1.00092
1.00101
1.00098
1.00072
1.00018
0.999401
0.998514
0.997695
0.99712
0.996914
0.997121
0.997696
0.998517
0.999406
1.00019
1.00072
1.00097
1.00095
1.00077
1.00053
1.00031
1.00015
1.00006
1.00001
0.999995
0.999993
0.999995
0.999997
0.999999
1
1
1
1
1
1
1
1
1
1
1.00086
1.00094
1.00102
1.00097
1.00068
1.00011
0.999289
0.998362
0.997511
0.996914
0.996699
0.996914
0.997512
0.998365
0.999295
1.00011
1.00069
1.00096
1.00096
1.00078
1.00054
1.00032
1.00016
1.00006
1.00001
0.999995
0.999993
0.999995
0.999997
0.999999
1
1
1
1
1
1
1
1
1
1
1.00084
1.00092
1.00101
1.00098
1.00072
1.00018
0.999401
0.998514
0.997696
0.997121
0.996914
0.997121
0.997697
0.998517
0.999407
1.00019
1.00072
1.00097
1.00095
1.00077
1.00053
1.00031
1.00015
1.00006
1.00001
0.999995
0.999993
0.999995
0.999998
0.999999
1
1
1
1
1
1
1
1
1
1
1.00078
1.00087
1.00098
1.001
1.00081
1.00037
0.999707
0.998933
0.998209
0.997696
0.997512
0.997697
0.99821
0.998935
0.999712
1.00038
1.00082
1.00099
1.00093
1.00074
1.0005
1.00029
1.00014
1.00005
1.00001
0.999995
0.999993
0.999996
0.999998
1
1
1
1
1
1
1
1
1
1
1
1.00069
1.00079
1.00093
1.001
1.00092
1.00062
1.00012
0.999516
0.998934
0.998517
0.998365
0.998517
0.998935
0.999519
1.00013
1.00063
1.00093
1.001
1.00089
1.00067
1.00044
1.00025
1.00011
1.00004
1
0.999994
0.999995
0.999997
1
1
1
1
1
1
1
1
1
1
1
1
1.00056
1.00067
1.00083
1.00097
1.00099
1.00085
1.00054
1.00013
0.999711
0.999406
0.999295
0.999407
0.999712
1.00013
1.00054
1.00086
1.001
1.00097
1.00081
1.00059
1.00037
1.0002
1.00009
1.00003
1
0.999995
0.999996
1
1
1
1
1
1
1
1
1
1
1
1
1
1.00043
1.00053
1.00071
1.00088
1.00099
1.00099
1.00085
1.00063
1.00038
1.00019
1.00011
1.00019
1.00038
1.00063
1.00086
1.00099
1.001
1.00089
1.0007
1.00048
1.00029
1.00014
1.00006
1.00001
0.999998
0.999996
0.999999
1
1
1
1
1
1
1
1
1
1
1
1
1
1.00029
1.00039
1.00055
1.00074
1.00091
1.001
1.001
1.00093
1.00082
1.00072
1.00069
1.00072
1.00082
1.00093
1.001
1.001
1.00091
1.00075
1.00055
1.00036
1.0002
1.00009
1.00003
1.00001
0.999997
0.999997
0.999999
1
1
1
1
1
1
1
1
1.00001
1.00001
1.00001
1.00001
1.00001
1.00017
1.00025
1.00039
1.00057
1.00075
1.00089
1.00097
1.001
1.00099
1.00097
1.00096
1.00097
1.00099
1.001
1.00097
1.00089
1.00075
1.00058
1.0004
1.00025
1.00013
1.00005
1.00001
0.999999
0.999994
0.999993
0.999992
0.99999
0.999987
0.999984
0.999983
0.999984
0.999987
0.999992
0.999996
1
1
1.00001
1.00001
1.00001
1.00008
1.00014
1.00025
1.00039
1.00055
1.00069
1.00081
1.00089
1.00093
1.00095
1.00096
1.00095
1.00093
1.00089
1.00081
1.0007
1.00055
1.0004
1.00026
1.00015
1.00007
1.00002
1
0.999992
0.999986
0.99998
0.999971
0.999962
0.999953
0.999947
0.999945
0.999947
0.999953
0.999963
0.999975
0.999986
0.999996
1
1.00001
1.00001
1.00002
1.00006
1.00013
1.00024
1.00035
1.00048
1.00059
1.00067
1.00074
1.00077
1.00078
1.00077
1.00074
1.00067
1.00059
1.00048
1.00036
1.00025
1.00015
1.00008
1.00003
1
0.999989
0.999978
0.999965
0.999948
0.999927
0.999907
0.99989
0.999878
0.999874
0.999878
0.99989
0.999908
0.99993
0.999953
0.999974
0.999992
1
1.00001
0.999992
1.00001
1.00006
1.00012
1.0002
1.00028
1.00037
1.00044
1.0005
1.00053
1.00054
1.00053
1.0005
1.00044
1.00037
1.00029
1.0002
1.00013
1.00007
1.00003
1
0.999988
0.999972
0.999951
0.999923
0.999889
0.999852
0.999818
0.999791
0.999773
0.999767
0.999773
0.999791
0.999819
0.999854
0.999894
0.999932
0.999965
0.999989
1
0.99998
0.999991
1.00001
1.00005
1.00009
1.00014
1.0002
1.00025
1.00029
1.00031
1.00032
1.00031
1.00029
1.00025
1.0002
1.00014
1.00009
1.00005
1.00002
1
0.999988
0.99997
0.999943
0.999905
0.999856
0.999801
0.999746
0.999699
0.999664
0.999642
0.999635
0.999642
0.999664
0.9997
0.999749
0.999805
0.999864
0.999916
0.999956
0.999977
0.999981
0.999985
0.999993
1.00001
1.00003
1.00005
1.00008
1.00011
1.00014
1.00015
1.00016
1.00015
1.00014
1.00011
1.00009
1.00006
1.00003
1.00001
1
0.999989
0.999972
0.999943
0.999898
0.999836
0.999764
0.99969
0.999622
0.999569
0.999532
0.999512
0.999505
0.999512
0.999533
0.99957
0.999625
0.999695
0.999772
0.999845
0.999902
0.999934
0.999986
0.999987
0.999988
0.999993
1
1.00001
1.00002
1.00004
1.00005
1.00006
1.00006
1.00006
1.00005
1.00004
1.00003
1.00001
1.00001
0.999999
0.999992
0.999978
0.999951
0.999905
0.999836
0.999751
0.999659
0.999573
0.999504
0.999459
0.999435
0.999425
0.999423
0.999425
0.999436
0.999461
0.999508
0.999578
0.999665
0.999754
0.999828
0.99987
0.999992
0.999991
0.99999
0.99999
0.999992
0.999994
0.999998
1
1.00001
1.00001
1.00001
1.00001
1.00001
1
1
0.999998
0.999997
0.999994
0.999986
0.999965
0.999923
0.999856
0.999764
0.999659
0.999556
0.999473
0.999423
0.999407
0.999413
0.999426
0.999433
0.999427
0.999414
0.999409
0.999427
0.999479
0.99956
0.999654
0.999738
0.999787
0.999996
0.999995
0.999994
0.999993
0.999992
0.999992
0.999992
0.999993
0.999994
0.999995
0.999995
0.999995
0.999995
0.999994
0.999995
0.999996
0.999997
0.999993
0.99998
0.999948
0.999889
0.999801
0.99969
0.999573
0.999473
0.999414
0.999404
0.999438
0.999494
0.999543
0.999562
0.999544
0.999495
0.999441
0.999409
0.999419
0.999474
0.999558
0.999642
0.999694
0.999998
0.999998
0.999997
0.999996
0.999995
0.999994
0.999993
0.999993
0.999993
0.999993
0.999993
0.999993
0.999993
0.999995
0.999996
0.999999
0.999999
0.999992
0.999971
0.999927
0.999852
0.999746
0.999622
0.999504
0.999423
0.999404
0.999454
0.999556
0.999675
0.999769
0.999804
0.999769
0.999677
0.999559
0.999459
0.999408
0.99942
0.999479
0.999552
0.9996
1
0.999999
0.999999
0.999998
0.999997
0.999997
0.999996
0.999995
0.999995
0.999995
0.999995
0.999995
0.999996
0.999997
1
1
1
0.99999
0.999962
0.999907
0.999818
0.999699
0.999569
0.999459
0.999407
0.999438
0.999556
0.999733
0.999919
1.00006
1.00011
1.00006
0.999921
0.999736
0.999561
0.999441
0.999398
0.999422
0.999477
0.999518
1
1
1
0.999999
0.999999
0.999998
0.999998
0.999998
0.999997
0.999997
0.999997
0.999998
0.999998
1
1
1
1
0.999987
0.999953
0.99989
0.999791
0.999664
0.999532
0.999435
0.999413
0.999494
0.999675
0.999919
1.00017
1.00035
1.00041
1.00035
1.00017
0.999923
0.999679
0.999495
0.9994
0.999388
0.999422
0.999455
1
1
1
1
1
0.999999
0.999999
0.999999
0.999999
0.999999
0.999999
0.999999
1
1
1
1
1
0.999984
0.999947
0.999878
0.999773
0.999642
0.999512
0.999425
0.999426
0.999543
0.999769
1.00006
1.00035
1.00056
1.00063
1.00056
1.00035
1.00006
0.999773
0.999543
0.999411
0.999372
0.99939
0.999415
1
1
1
1
1
1
1
1
1
1
1
1
1
1
1
1
1
0.999983
0.999945
0.999874
0.999767
0.999635
0.999505
0.999423
0.999433
0.999562
0.999804
1.00011
1.00041
1.00063
1.00072
1.00064
1.00042
1.00012
0.999809
0.999562
0.999416
0.999367
0.999379
0.999402
1
1
1
1
1
1
1
1
1
1
1
1
1
1
1
1
1
0.999984
0.999947
0.999878
0.999773
0.999642
0.999512
0.999425
0.999427
0.999544
0.999769
1.00006
1.00035
1.00056
1.00064
1.00056
1.00035
1.00006
0.999774
0.999544
0.999411
0.999372
0.99939
0.999416
1
1
1
1
1
1
1
1
1
1
1
1
1
1
1
1
1
0.999987
0.999953
0.99989
0.999791
0.999664
0.999533
0.999436
0.999414
0.999495
0.999677
0.999921
1.00017
1.00035
1.00042
1.00035
1.00017
0.999925
0.999681
0.999496
0.999401
0.999389
0.999423
0.999455
1
1
1
1
1
1
1
1
1
1
1
1
1
1
1
1
1
0.999992
0.999963
0.999908
0.999819
0.9997
0.99957
0.999461
0.999409
0.999441
0.999559
0.999736
0.999923
1.00006
1.00012
1.00006
0.999925
0.99974
0.999564
0.999444
0.999401
0.999424
0.999478
0.999519
1
1
1
1
1
1
1
1
1
1
1
1
1
1
1
1
1
0.999996
0.999975
0.99993
0.999854
0.999749
0.999625
0.999508
0.999427
0.999409
0.999459
0.999561
0.999679
0.999773
0.999809
0.999774
0.999681
0.999564
0.999463
0.999413
0.999424
0.999482
0.999555
0.999603
1
1
1
1
1
1
1
1
1
1
1
1
1
1
1
1
1.00001
1
0.999986
0.999953
0.999894
0.999805
0.999695
0.999578
0.999479
0.999419
0.999408
0.999441
0.999495
0.999543
0.999562
0.999544
0.999496
0.999444
0.999413
0.999424
0.99948
0.999564
0.999647
0.999699
1
1
1
1
1
1
1
1
1
1
1
1
1
1
1
1
1.00001
1
0.999996
0.999974
0.999932
0.999864
0.999772
0.999665
0.99956
0.999474
0.99942
0.999398
0.9994
0.999411
0.999416
0.999411
0.999401
0.999401
0.999424
0.99948
0.999564
0.999661
0.999746
0.999796
1
1
1
1
1
1
1
1
1
1
1
1
1
1
1
1
1.00001
1.00001
1
0.999992
0.999965
0.999916
0.999845
0.999754
0.999654
0.999558
0.999479
0.999422
0.999388
0.999372
0.999367
0.999372
0.999389
0.999424
0.999482
0.999564
0.999661
0.999758
0.999837
0.999881
1
1
1
1
1
1
1
1
1
1
1
1
1
1
1
1
1.00001
1.00001
1.00001
1
0.999989
0.999956
0.999902
0.999828
0.999738
0.999642
0.999552
0.999477
0.999422
0.99939
0.999379
0.99939
0.999423
0.999478
0.999555
0.999647
0.999746
0.999837
0.999907
0.999945
1
1
1
1
1
1
1
1
1
1
1
1
1
1
1
1
1.00001
1.00001
1.00001
1.00001
1
0.999977
0.999934
0.99987
0.999787
0.999694
0.9996
0.999518
0.999455
0.999415
0.999402
0.999416
0.999455
0.999519
0.999603
0.999699
0.999796
0.999881
0.999945
0.999979
SCALARS C2 double 1
LOOKUP_TABLE default
2.00013
2.00012
2.00009
2.00002
1.99992
1.99978
1.99961
1.99943
1.99929
1.99918
1.99915
1.99918
1.99929
1.99943
1.99961
1.99978
1.99992
2.00002
2.00007
2.00008
2.00008
2.00006
2.00003
2.00002
2.00001
2
2
2
2
2
2
2
2
2
2
2
2
2
2
2
2.00012
2.00009
2.00003
1.99992
1.99976
1.99956
1.99934
1.99913
1.99895
1.99883
1.99879
1.99883
1.99895
1.99913
1.99934
1.99956
1.99976
1.99991
2.00001
2.00005
2.00006
2.00005
2.00004
2.00002
2.00001
2
2
2
2
2
2
2
2
2
2
2
2
2
2
2
2.00009
2.00003
1.99991
1.99971
1.99946
1.99916
1.99885
1.99857
1.99834
1.9982
1.99815
1.9982
1.99834
1.99857
1.99885
1.99916
1.99945
1.9997
1.99988
1.99999
2.00004
2.00005
2.00004
2.00003
2.00002
2.00001
2
2
2
2
2
2
2
2
2
2
2
2
2
2
2.00002
1.99992
1.99971
1.99941
1.99903
1.99861
1.9982
1.99785
1.99759
1.99743
1.99737
1.99743
1.99759
1.99785
1.9982
1.99861
1.99902
1.99939
1.99968
1.99988
1.99999
2.00004
2.00004
2.00003
2.00002
2.00001
2
2
2
2
2
2
2
2
2
2
2
2
2
2
1.99992
1.99976
1.99946
1.99903
1.99852
1.99799
1.99751
1.99713
1.99686
1.99671
1.99666
1.99671
1.99686
1.99713
1.99751
1.99799
1.9985
1.999
1.99942
1.99973
1.99991
2.00001
2.00004
2.00004
2.00003
2.00001
2.00001
2
2
2
2
2
2
2
2
2
2
2
2
2
1.99978
1.99956
1.99916
1.99861
1.99799
1.99739
1.99689
1.99653
1.99631
1.9962
1.99617
1.9962
1.99631
1.99653
1.99688
1.99738
1.99797
1.99858
1.99912
1.99954
1.99981
1.99996
2.00003
2.00004
2.00003
2.00002
2.00001
2
2
2
2
2
2
2
2
2
2
2
2
2
1.99961
1.99934
1.99885
1.9982
1.99751
1.99689
1.99642
1.99615
1.99603
1.99601
1.99601
1.99601
1.99603
1.99614
1.99642
1.99688
1.99749
1.99817
1.99881
1.99934
1.9997
1.99991
2.00001
2.00004
2.00003
2.00002
2.00001
2
2
2
2
2
2
2
2
2
2
2
2
2
1.99943
1.99913
1.99857
1.99785
1.99713
1.99653
1.99615
1.996
1.99602
1.9961
1.99614
1.9961
1.99602
1.996
1.99614
1.99651
1.9971
1.99782
1.99854
1.99914
1.99958
1.99985
1.99998
2.00003
2.00003
2.00002
2.00001
2.00001
2
2
2
2
2
2
2
2
2
2
2
2
1.99929
1.99895
1.99834
1.99759
1.99686
1.99631
1.99603
1.99602
1.99618
1.99636
1.99644
1.99636
1.99618
1.99602
1.99602
1.99629
1.99683
1.99755
1.99832
1.99899
1.99949
1.9998
1.99996
2.00002
2.00003
2.00003
2.00001
2.00001
2
2
2
2
2
2
2
2
2
2
2
2
1.99918
1.99883
1.9982
1.99743
1.99671
1.9962
1.99601
1.9961
1.99636
1.99661
1.99672
1.99661
1.99636
1.9961
1.996
1.99619
1.99668
1.99739
1.99818
1.99888
1.99942
1.99976
1.99995
2.00002
2.00003
2.00003
2.00002
2.00001
2
2
2
2
2
2
2
2
2
2
2
2
1.99915
1.99879
1.99815
1.99737
1.99666
1.99617
1.99601
1.99614
1.99644
1.99672
1.99683
1.99672
1.99644
1.99614
1.996
1.99616
1.99663
1.99734
1.99813
1.99885
1.9994
1.99975
1.99994
2.00002
2.00003
2.00003
2.00002
2.00001
2
2
2
2
2
2
2
2
2
2
2
2
1.99918
1.99883
1.9982
1.99743
1.99671
1.9962
1.99601
1.9961
1.99636
1.99661
1.99672
1.99661
1.99636
1.9961
1.996
1.99619
1.99668
1.99739
1.99818
1.99888
1.99942
1.99976
1.99995
2.00002
2.00003
2.00003
2.00002
2.00001
2
2
2
2
2
2
2
2
2
2
2
2
1.99929
1.99895
1.99834
1.99759
1.99686
1.99631
1.99603
1.99602
1.99618
1.99636
1.99644
1.99636
1.99618
1.99602
1.99602
1.99629
1.99683
1.99755
1.99832
1.99899
1.99949
1.9998
1.99996
2.00002
2.00003
2.00003
2.00001
2.00001
2
2
2
2
2
2
2
2
2
2
2
2
1.99943
1.99913
1.99857
1.99785
1.99713
1.99653
1.99614
1.996
1.99602
1.9961
1.99614
1.9961
1.99602
1.99599
1.99614
1.99651
1.9971
1.99782
1.99854
1.99914
1.99958
1.99985
1.99998
2.00003
2.00003
2.00002
2.00001
2
2
2
2
2
2
2
2
2
2
2
2
2
1.99961
1.99934
1.99885
1.9982
1.99751
1.99688
1.99642
1.99614
1.99602
1.996
1.996
1.996
1.99602
1.99614
1.99641
1.99687
1.99749
1.99817
1.99881
1.99934
1.9997
1.99991
2.00001
2.00003
2.00003
2.00002
2.00001
2
2
1.99999
1.99999
1.99999
1.99999
1.99999
2
2
2
2
2
2
1.99978
1.99956
1.99916
1.99861
1.99799
1.99738
1.99688
1.99651
1.99629
1.99619
1.99616
1.99619
1.99629
1.99651
1.99687
1.99737
1.99797
1.99858
1.99912
1.99954
1.99981
1.99996
2.00002
2.00003
2.00002
2.00001
2
1.99999
1.99999
1.99999
1.99999
1.99999
1.99999
1.99999
1.99999
1.99999
1.99999
2
2
2
1.99992
1.99976
1.99945
1.99902
1.9985
1.99797
1.99749
1.9971
1.99683
1.99668
1.99663
1.99668
1.99683
1.9971
1.99749
1.99797
1.99849
1.99899
1.99941
1.99972
1.99991
2
2.00003
2.00003
2.00001
2
1.99999
1.99998
1.99998
1.99998
1.99998
1.99998
1.99998
1.99998
1.99998
1.99999
1.99999
1.99999
1.99999
1.99999
2.00002
1.99991
1.9997
1.99939
1.999
1.99858
1.99817
1.99782
1.99755
1.99739
1.99734
1.99739
1.99755
1.99782
1.99817
1.99858
1.99899
1.99937
1.99966
1.99987
1.99998
2.00002
2.00003
2.00002
2
1.99999
1.99998
1.99998
1.99998
1.99998
1.99998
1.99998
1.99998
1.99998
1.99998
1.99998
1.99998
1.99998
1.99999
1.99999
2.00007
2.00001
1.99988
1.99968
1.99942
1.99912
1.99881
1.99854
1.99832
1.99818
1.99813
1.99818
1.99832
1.99854
1.99881
1.99912
1.99941
1.99966
1.99985
1.99996
2.00002
2.00003
2.00002
2
1.99999
1.99998
1.99998
1.99999
2
2
2
2
2
1.99999
1.99998
1.99998
1.99997
1.99997
1.99998
1.99998
2.00008
2.00005
1.99999
1.99988
1.99973
1.99954
1.99934
1.99914
1.99899
1.99888
1.99885
1.99888
1.99899
1.99914
1.99934
1.99954
1.99972
1.99987
1.99996
2.00001
2.00003
2.00002
2.00001
1.99999
1.99999
2
2.00001
2.00003
2.00005
2.00006
2.00007
2.00006
2.00005
2.00003
2.00001
1.99999
1.99998
1.99997
1.99997
1.99996
2.00008
2.00006
2.00004
1.99999
1.99991
1.99981
1.9997
1.99958
1.99949
1.99942
1.9994
1.99942
1.99949
1.99958
1.9997
1.99981
1.99991
1.99998
2.00002
2.00003
2.00002
2.00001
2
2
2.00001
2.00005
2.00009
2.00013
2.00017
2.0002
2.00021
2.0002
2.00017
2.00013
2.00009
2.00004
2
1.99998
1.99996
1.99995
2.00006
2.00005
2.00005
2.00004
2.00001
1.99996
1.99991
1.99985
1.9998
1.99976
1.99975
1.99976
1.9998
1.99985
1.99991
1.99996
2
2.00002
2.00003
2.00002
2.00001
2
2
2.00003
2.00008
2.00015
2.00023
2.00031
2.00038
2.00043
2.00044
2.00043
2.00038
2.00031
2.00023
2.00014
2.00007
2.00001
1.99997
1.99995
2.00003
2.00004
2.00004
2.00004
2.00004
2.00003
2.00001
1.99998
1.99996
1.99995
1.99994
1.99995
1.99996
1.99998
2.00001
2.00002
2.00003
2.00003
2.00002
2.00001
2
2
2.00004
2.0001
2.0002
2.00032
2.00045
2.00058
2.00069
2.00075
2.00078
2.00075
2.00069
2.00058
2.00045
2.00031
2.00018
2.00008
2
1.99997
2.00002
2.00002
2.00003
2.00003
2.00004
2.00004
2.00004
2.00003
2.00002
2.00002
2.00002
2.00002
2.00002
2.00003
2.00003
2.00003
2.00003
2.00002
2
1.99999
2
2.00003
2.0001
2.00022
2.00037
2.00056
2.00075
2.00093
2.00107
2.00116
2.00119
2.00116
2.00107
2.00093
2.00075
2.00055
2.00036
2.00019
2.00007
2.00001
2.00001
2.00001
2.00002
2.00002
2.00003
2.00003
2.00003
2.00003
2.00003
2.00003
2.00003
2.00003
2.00003
2.00003
2.00003
2.00002
2.00001
2
1.99999
1.99999
2.00001
2.00008
2.0002
2.00037
2.0006
2.00085
2.0011
2.00131
2.00148
2.00158
2.00161
2.00158
2.00148
2.00131
2.00109
2.00084
2.00058
2.00035
2.00018
2.00009
2
2
2.00001
2.00001
2.00001
2.00002
2.00002
2.00002
2.00003
2.00003
2.00003
2.00003
2.00003
2.00002
2.00002
2.00001
2
1.99999
1.99998
2
2.00005
2.00015
2.00032
2.00056
2.00085
2.00116
2.00145
2.00168
2.00185
2.00195
2.00198
2.00195
2.00185
2.00168
2.00144
2.00115
2.00083
2.00054
2.00031
2.00019
2
2
2
2
2.00001
2.00001
2.00001
2.00001
2.00001
2.00002
2.00002
2.00002
2.00001
2.00001
2.00001
2
1.99999
1.99998
1.99998
2.00001
2.00009
2.00023
2.00045
2.00075
2.0011
2.00145
2.00175
2.00199
2.00213
2.00221
2.00224
2.00221
2.00213
2.00198
2.00174
2.00143
2.00108
2.00074
2.00047
2.00032
2
2
2
2
2
2
2
2.00001
2.00001
2.00001
2.00001
2.00001
2.00001
2
2
1.99999
1.99998
1.99998
1.99999
2.00003
2.00013
2.00031
2.00058
2.00093
2.00131
2.00168
2.00199
2.00219
2.00231
2.00236
2.00237
2.00236
2.00231
2.00219
2.00197
2.00167
2.00129
2.00092
2.00061
2.00044
2
2
2
2
2
2
2
2
2
2
2
2
2
2
2
1.99999
1.99998
1.99998
2
2.00005
2.00017
2.00038
2.00069
2.00107
2.00148
2.00185
2.00213
2.00231
2.00238
2.0024
2.0024
2.0024
2.00238
2.0023
2.00212
2.00183
2.00146
2.00106
2.00074
2.00055
2
2
2
2
2
2
2
2
2
2
2
2
2
2
1.99999
1.99999
1.99998
1.99998
2
2.00006
2.0002
2.00043
2.00075
2.00116
2.00158
2.00195
2.00221
2.00236
2.0024
2.0024
2.00239
2.0024
2.0024
2.00235
2.0022
2.00193
2.00156
2.00116
2.00082
2.00062
2
2
2
2
2
2
2
2
2
2
2
2
2
2
1.99999
1.99999
1.99998
1.99998
2
2.00007
2.00021
2.00044
2.00078
2.00119
2.00161
2.00198
2.00224
2.00237
2.0024
2.00239
2.00238
2.00239
2.0024
2.00236
2.00222
2.00196
2.00159
2.00119
2.00085
2.00065
2
2
2
2
2
2
2
2
2
2
2
2
2
2
1.99999
1.99999
1.99998
1.99998
2
2.00006
2.0002
2.00043
2.00075
2.00116
2.00158
2.00195
2.00221
2.00236
2.0024
2.0024
2.00239
2.0024
2.0024
2.00235
2.0022
2.00193
2.00156
2.00116
2.00082
2.00062
2
2
2
2
2
2
2
2
2
2
2
2
2
2
1.99999
1.99999
1.99998
1.99998
2
2.00005
2.00017
2.00038
2.00069
2.00107
2.00148
2.00185
2.00213
2.00231
2.00238
2.0024
2.0024
2.0024
2.00238
2.0023
2.00212
2.00183
2.00146
2.00106
2.00074
2.00055
2
2
2
2
2
2
2
2
2
2
2
2
2
2
1.99999
1.99999
1.99998
1.99998
1.99999
2.00003
2.00013
2.00031
2.00058
2.00093
2.00131
2.00168
2.00198
2.00219
2.0023
2.00235
2.00236
2.00235
2.0023
2.00218
2.00197
2.00166
2.00129
2.00092
2.00061
2.00044
2
2
2
2
2
2
2
2
2
2
2
2
2
2
2
1.99999
1.99998
1.99998
1.99998
2.00001
2.00009
2.00023
2.00045
2.00075
2.00109
2.00144
2.00174
2.00197
2.00212
2.0022
2.00222
2.0022
2.00212
2.00197
2.00173
2.00142
2.00107
2.00073
2.00046
2.00031
2
2
2
2
2
2
2
2
2
2
2
2
2
2
2
1.99999
1.99999
1.99998
1.99998
1.99999
2.00004
2.00014
2.00031
2.00055
2.00084
2.00115
2.00143
2.00167
2.00183
2.00193
2.00196
2.00193
2.00183
2.00166
2.00142
2.00113
2.00082
2.00053
2.00031
2.00019
2
2
2
2
2
2
2
2
2
2
2
2
2
2
2
1.99999
1.99999
1.99998
1.99997
1.99998
2
2.00007
2.00018
2.00036
2.00058
2.00083
2.00108
2.00129
2.00146
2.00156
2.00159
2.00156
2.00146
2.00129
2.00107
2.00082
2.00056
2.00033
2.00016
2.00007
2
2
2
2
2
2
2
2
2
2
2
2
2
2
2
2
1.99999
1.99998
1.99997
1.99997
1.99998
2.00001
2.00008
2.00019
2.00035
2.00054
2.00074
2.00092
2.00106
2.00116
2.00119
2.00116
2.00106
2.00092
2.00073
2.00053
2.00033
2.00017
2.00005
1.99999
2
2
2
2
2
2
2
2
2
2
2
2
2
2
2
2
1.99999
1.99999
1.99998
1.99997
1.99996
1.99997
2
2.00007
2.00018
2.00031
2.00047
2.00061
2.00074
2.00082
2.00085
2.00082
2.00074
2.00061
2.00046
2.00031
2.00016
2.00005
1.99997
1.99993
2
2
2
2
2
2
2
2
2
2
2
2
2
2
2
2
1.99999
1.99999
1.99998
1.99996
1.99995
1.99995
1.99997
2.00001
2.00009
2.00019
2.00032
2.00044
2.00055
2.00062
2.00065
2.00062
2.00055
2.00044
2.00031
2.00019
2.00007
1.99999
1.99993
1.9999
