# vtk DataFile Version 3.0
Brusselator Concentration Output
ASCII
DATASET STRUCTURED_POINTS
DIMENSIONS 40 40 1
ORIGIN 0.0 0.0 0.0
SPACING 0.005 0.005 1.0
POINT_DATA 1600
SCALARS C1 double 1
LOOKUP_TABLE default
1.00005
1.0001
1.0002
1.00037
1.00054
1.00057
1.00025
0.999514
0.998532
0.9977
0.997376
0.9977
0.998532
0.999514
1.00025
1.00057
1.00054
1.00037
1.0002
1.00009
1.00004
1.00001
1
1
1
1
1
1
1
1
1
1
1
1
1
1
1
1
1
1
1.0001
1.00017
1.00031
1.00045
1.00036
0.999661
0.998019
0.995525
0.992843
0.990839
0.990108
0.990839
0.992843
0.995525
0.998019
0.999661
1.00036
1.00045
1.00031
1.00016
1.00007
1.00003
1.00001
1
1
1
1
1
1
1
1
1
1
1
1
1
1
1
1
1
1.0002
1.00031
1.00044
1.00026
0.999079
0.996021
0.990726
0.98408
0.977928
0.973848
0.972455
0.973848
0.977928
0.98408
0.990726
0.996021
0.999079
1.00026
1.00043
1.00029
1.00014
1.00006
1.00002
1.00001
1
1
1
1
1
1
1
1
1
1
1
1
1
1
1
1
1.00037
1.00045
1.00026
0.998846
0.99463
0.986256
0.974229
0.961543
0.951798
0.946515
0.944963
0.946515
0.951798
0.961543
0.974229
0.986255
0.994629
0.998842
1.00025
1.00041
1.00025
1.00011
1.00004
1.00001
1
1
1
1
1
1
1
1
1
1
1
1
1
1
1
1
1.00054
1.00036
0.999079
0.99463
0.984413
0.967612
0.947632
0.931109
0.922976
0.922091
0.922808
0.922091
0.922976
0.931109
0.947632
0.967611
0.984411
0.994622
0.999053
1.00028
1.00035
1.00019
1.00008
1.00003
1.00001
1
1
1
1
1
1
1
1
1
1
1
1
1
1
1
1.00057
0.999661
0.996021
0.986256
0.967612
0.942167
0.918805
0.909041
0.918546
0.938931
0.94952
0.938931
0.918546
0.909041
0.918805
0.942166
0.967608
0.986241
0.995975
0.999537
1.00031
1.00026
1.00012
1.00005
1.00001
1
1
1
1
1
1
1
1
1
1
1
1
1
1
1
1.00025
0.998019
0.990726
0.974229
0.947632
0.918805
0.904853
0.926562
0.997437
1.09426
1.14095
1.09426
0.997437
0.926562
0.904852
0.918803
0.947626
0.974207
0.990658
0.997852
0.999981
1.00027
1.00017
1.00007
1.00002
1.00001
1
1
1
1
1
1
1
1
1
1
1
1
1
1
0.999514
0.995525
0.98408
0.961543
0.931109
0.909041
0.926562
1.03478
1.29383
1.61312
1.74012
1.61312
1.29383
1.03478
0.926561
0.909038
0.9311
0.961512
0.983991
0.995335
0.999325
1.00019
1.00019
1.00009
1.00003
1.00001
1
1
1
1
1
1
1
1
1
1
1
1
1
1
0.998532
0.992843
0.977928
0.951798
0.922976
0.918546
0.997437
1.29383
1.90106
2.22904
2.24576
2.22904
1.90106
1.29383
0.997436
0.918543
0.922965
0.951759
0.977824
0.992653
0.998501
1.00003
1.00019
1.00011
1.00004
1.00001
1
1
1
1
1
1
1
1
1
1
1
1
1
1
0.9977
0.990839
0.973848
0.946515
0.922091
0.938931
1.09426
1.61312
2.22904
2.18212
2.10738
2.18212
2.22904
1.61312
1.09426
0.938927
0.922077
0.946471
0.973736
0.990662
0.997823
0.999878
1.00018
1.00011
1.00005
1.00001
1
1
1
1
1
1
1
1
1
1
1
1
1
1
0.997376
0.990108
0.972455
0.944963
0.922808
0.94952
1.14095
1.74012
2.24576
2.10738
2.01923
2.10738
2.24576
1.74012
1.14095
0.949516
0.922793
0.944918
0.972342
0.989938
0.997563
0.999814
1.00017
1.00012
1.00005
1.00002
1
1
1
1
1
1
1
1
1
1
1
1
1
1
0.9977
0.990839
0.973848
0.946515
0.922091
0.938931
1.09426
1.61312
2.22904
2.18212
2.10738
2.18212
2.22904
1.61312
1.09426
0.938927
0.922077
0.946471
0.973736
0.990662
0.997823
0.999878
1.00018
1.00011
1.00005
1.00001
1
1
1
1
1
1
1
1
1
1
1
1
1
1
0.998532
0.992843
0.977928
0.951798
0.922976
0.918546
0.997437
1.29383
1.90106
2.22904
2.24576
2.22904
1.90106
1.29383
0.997436
0.918543
0.922965
0.951759
0.977824
0.992653
0.998501
1.00003
1.00019
1.00011
1.00004
1.00001
1
1
1
1
1
1
1
1
1
1
1
1
1
1
0.999514
0.995525
0.98408
0.961543
0.931109
0.909041
0.926562
1.03478
1.29383
1.61312
1.74012
1.61312
1.29383
1.03478
0.926561
0.909038
0.9311
0.961512
0.983991
0.995335
0.999325
1.00019
1.00019
1.00009
1.00003
1.00001
1
1
1
1
1
1
1
1
1
1
1
1
1
1
1.00025
0.998019
0.990726
0.974229
0.947632
0.918805
0.904852
0.926561
0.997436
1.09426
1.14095
1.09426
0.997436
0.926561
0.904852
0.918803
0.947626
0.974207
0.990658
0.997852
0.999981
1.00027
1.00017
1.00007
1.00002
1.00001
1
1
0.999999
0.999999
0.999999
0.999999
0.999999
0.999999
1
1
1
1
1
1
1.00057
0.999661
0.996021
0.986255
0.967611
0.942166
0.918803
0.909038
0.918543
0.938927
0.949516
0.938927
0.918543
0.909038
0.918803
0.942165
0.967607
0.986241
0.995975
0.999537
1.00031
1.00026
1.00012
1.00005
1.00001
1
0.999999
0.999997
0.999996
0.999996
0.999995
0.999995
0.999996
0.999997
0.999998
0.999999
0.999999
1
1
1
1.00054
1.00036
0.999079
0.994629
0.984411
0.967608
0.947626
0.9311
0.922965
0.922077
0.922793
0.922077
0.922965
0.9311
0.947626
0.967607
0.984409
0.994621
0.999052
1.00028
1.00035
1.00019
1.00008
1.00003
1.00001
0.999998
0.999993
0.99999
0.999987
0.999985
0.999985
0.999985
0.999987
0.99999
0.999993
0.999996
0.999998
0.999999
0.999999
1
1.00037
1.00045
1.00026
0.998842
0.994622
0.986241
0.974207
0.961512
0.951759
0.946471
0.944918
0.946471
0.951759
0.961512
0.974207
0.986241
0.994621
0.998839
1.00024
1.00041
1.00025
1.00011
1.00004
1.00001
0.999996
0.999987
0.999978
0.99997
0.999964
0.99996
0.999959
0.99996
0.999964
0.99997
0.999978
0.999986
0.999992
0.999996
0.999998
0.999999
1.0002
1.00031
1.00043
1.00025
0.999053
0.995975
0.990658
0.983991
0.977824
0.973736
0.972342
0.973736
0.977824
0.983991
0.990658
0.995975
0.999052
1.00024
1.00043
1.00029
1.00014
1.00005
1.00001
0.999993
0.999977
0.99996
0.999943
0.99993
0.999924
0.999923
0.999924
0.999923
0.999924
0.99993
0.999943
0.99996
0.999976
0.999987
0.999994
0.999997
1.00009
1.00016
1.00029
1.00041
1.00028
0.999537
0.997852
0.995335
0.992653
0.990662
0.989938
0.990662
0.992653
0.995335
0.997852
0.999537
1.00028
1.00041
1.00029
1.00015
1.00006
1.00002
0.999991
0.999967
0.999938
0.999907
0.999888
0.999895
0.999927
0.999964
0.999981
0.999964
0.999927
0.999895
0.999888
0.999907
0.999937
0.999964
0.999982
0.99999
1.00004
1.00007
1.00014
1.00025
1.00035
1.00031
0.999981
0.999325
0.998501
0.997823
0.997563
0.997823
0.998501
0.999325
0.999981
1.00031
1.00035
1.00025
1.00014
1.00006
1.00002
0.999989
0.999958
0.999916
0.999871
0.999852
0.999909
1.00007
1.00031
1.00052
1.00061
1.00052
1.00031
1.00007
0.999909
0.999852
0.99987
0.999915
0.999952
0.999972
1.00001
1.00003
1.00006
1.00011
1.00019
1.00026
1.00027
1.00019
1.00003
0.999878
0.999814
0.999878
1.00003
1.00019
1.00027
1.00026
1.00019
1.00011
1.00005
1.00002
0.999989
0.999955
0.999903
0.999844
0.999831
0.999984
1.00044
1.00124
1.0022
1.00296
1.00325
1.00296
1.0022
1.00124
1.00044
0.999984
0.999831
0.999841
0.999895
0.999931
1
1.00001
1.00002
1.00004
1.00008
1.00012
1.00017
1.00019
1.00019
1.00018
1.00017
1.00018
1.00019
1.00019
1.00017
1.00012
1.00008
1.00004
1.00001
0.999991
0.999958
0.999903
0.999834
0.999824
1.00008
1.00096
1.00275
1.00537
1.00811
1.01008
1.01078
1.01008
1.00811
1.00537
1.00275
1.00096
1.00008
0.999818
0.999816
0.999857
1
1
1.00001
1.00001
1.00003
1.00005
1.00007
1.00009
1.00011
1.00011
1.00012
1.00011
1.00011
1.00009
1.00007
1.00005
1.00003
1.00001
0.999993
0.999967
0.999916
0.999844
0.999824
1.00013
1.00134
1.00428
1.00933
1.01561
1.02107
1.02424
1.0252
1.02424
1.02107
1.01561
1.00933
1.00428
1.00134
1.00011
0.999788
0.999759
1
1
1
1
1.00001
1.00001
1.00002
1.00003
1.00004
1.00005
1.00005
1.00005
1.00004
1.00003
1.00002
1.00001
1.00001
0.999996
0.999977
0.999938
0.999871
0.999831
1.00008
1.00134
1.00493
1.01218
1.02265
1.03264
1.03772
1.03796
1.03737
1.03796
1.03772
1.03264
1.02265
1.01218
1.00492
1.00132
1.00002
0.999702
1
1
1
1
1
1
1.00001
1.00001
1.00001
1.00001
1.00002
1.00001
1.00001
1.00001
1.00001
1
0.999998
0.999987
0.99996
0.999907
0.999852
0.999984
1.00096
1.00428
1.01218
1.02556
1.03985
1.04479
1.03548
1.02115
1.0148
1.02115
1.03548
1.04479
1.03985
1.02555
1.01216
1.00424
1.00086
0.999836
1
1
1
1
1
1
1
1
1
1
1
1
1
1
1
0.999999
0.999993
0.999978
0.999943
0.999888
0.999909
1.00044
1.00275
1.00933
1.02265
1.03985
1.04625
1.02468
0.981036
0.941982
0.927377
0.941982
0.981036
1.02468
1.04625
1.03985
1.02263
1.00927
1.00264
1.00035
1
1
1
1
1
1
1
1
1
1
1
1
1
1
1
0.999997
0.99999
0.99997
0.99993
0.999895
1.00007
1.00124
1.00537
1.01561
1.03264
1.04479
1.02468
0.959731
0.878945
0.820793
0.801132
0.820793
0.878945
0.95973
1.02468
1.04478
1.03261
1.01554
1.00527
1.00131
1
1
1
1
1
1
1
1
1
1
1
1
1
1
0.999999
0.999996
0.999987
0.999964
0.999924
0.999927
1.00031
1.0022
1.00811
1.02107
1.03772
1.03548
0.981036
0.878945
0.777498
0.713887
0.694021
0.713887
0.777498
0.878944
0.981033
1.03547
1.03768
1.02099
1.00804
1.00251
1
1
1
1
1
1
1
1
1
1
1
1
1
1
0.999999
0.999996
0.999985
0.99996
0.999923
0.999964
1.00052
1.00296
1.01008
1.02424
1.03796
1.02115
0.941982
0.820793
0.713887
0.652485
0.634513
0.652485
0.713887
0.820792
0.941978
1.02114
1.03792
1.02416
1.01005
1.00348
1
1
1
1
1
1
1
1
1
1
1
1
1
1
0.999999
0.999995
0.999985
0.999959
0.999924
0.999981
1.00061
1.00325
1.01078
1.0252
1.03737
1.0148
0.927377
0.801132
0.694021
0.634513
0.617613
0.634513
0.694021
0.801131
0.927373
1.01479
1.03732
1.02512
1.01076
1.00386
1
1
1
1
1
1
1
1
1
1
1
1
1
1
0.999999
0.999995
0.999985
0.99996
0.999923
0.999964
1.00052
1.00296
1.01008
1.02424
1.03796
1.02115
0.941982
0.820793
0.713887
0.652485
0.634513
0.652485
0.713887
0.820792
0.941978
1.02114
1.03792
1.02416
1.01005
1.00348
1
1
1
1
1
1
1
1
1
1
1
1
1
1
0.999999
0.999996
0.999987
0.999964
0.999924
0.999927
1.00031
1.0022
1.00811
1.02107
1.03772
1.03548
0.981036
0.878945
0.777498
0.713887
0.694021
0.713887
0.777498
0.878944
0.981033
1.03547
1.03768
1.02099
1.00804
1.00251
1
1
1
1
1
1
1
1
1
1
1
1
1
1
0.999999
0.999997
0.99999
0.99997
0.99993
0.999895
1.00007
1.00124
1.00537
1.01561
1.03264
1.04479
1.02468
0.95973
0.878944
0.820792
0.801131
0.820792
0.878944
0.95973
1.02468
1.04478
1.03261
1.01554
1.00527
1.00131
1
1
1
1
1
1
1
1
1
1
1
1
1
1
1
0.999998
0.999993
0.999978
0.999943
0.999888
0.999909
1.00044
1.00275
1.00933
1.02265
1.03985
1.04625
1.02468
0.981033
0.941978
0.927373
0.941978
0.981033
1.02468
1.04625
1.03984
1.02263
1.00927
1.00264
1.00035
1
1
1
1
1
1
1
1
1
1
1
1
1
1
1
0.999999
0.999996
0.999986
0.99996
0.999907
0.999852
0.999984
1.00096
1.00428
1.01218
1.02555
1.03985
1.04478
1.03547
1.02114
1.01479
1.02114
1.03547
1.04478
1.03984
1.02555
1.01216
1.00424
1.00086
0.999836
1
1
1
1
1
1
1
1
1
1
1
1
1
1
1
0.999999
0.999998
0.999992
0.999976
0.999937
0.99987
0.999831
1.00008
1.00134
1.00492
1.01216
1.02263
1.03261
1.03768
1.03792
1.03732
1.03792
1.03768
1.03261
1.02263
1.01216
1.00492
1.00132
1.00002
0.999701
1
1
1
1
1
1
1
1
1
1
1
1
1
1
1
1
0.999999
0.999996
0.999987
0.999964
0.999915
0.999841
0.999818
1.00011
1.00132
1.00424
1.00927
1.01554
1.02099
1.02416
1.02512
1.02416
1.02099
1.01554
1.00927
1.00424
1.00132
1.0001
0.999782
0.999756
1
1
1
1
1
1
1
1
1
1
1
1
1
1
1
1
0.999999
0.999998
0.999994
0.999982
0.999952
0.999895
0.999816
0.999788
1.00002
1.00086
1.00264
1.00527
1.00804
1.01005
1.01076
1.01005
1.00804
1.00527
1.00264
1.00086
1.00002
0.999782
0.999798
0.999847
1
1
1
1
1
1
1
1
1
1
1
1
1
1
1
1
1
0.999999
0.999997
0.99999
0.999972
0.999931
0.999857
0.999759
0.999702
0.999836
1.00035
1.00131
1.00251
1.00348
1.00386
1.00348
1.00251
1.00131
1.00035
0.999836
0.999701
0.999756
0.999847
0.999903
SCALARS C2 double 1
LOOKUP_TABLE default
2.99995
2.99989
2.99974
2.99946
2.99904
2.9986
2.99838
2.99863
2.99931
3.00004
3.00035
3.00004
2.99931
2.99863
2.99838
2.9986
2.99904
2.99946
2.99974
2.99989
2.99996
2.99999
3
3
3
3
3
3
3
3
3
3
3
3
3
3
3
3
3
3
2.99989
2.99978
2.99952
2.99911
2.9987
2.99873
2.9998
3.00219
3.00534
3.008
3.00903
3.008
3.00534
3.00219
2.9998
2.99873
2.9987
2.99911
2.99952
2.99978
2.99992
2.99997
2.99999
3
3
3
3
3
3
3
3
3
3
3
3
3
3
3
3
3
2.99974
2.99952
2.99908
2.99864
2.99891
3.00124
3.00696
3.01592
3.02582
3.03333
3.03609
3.03333
3.02582
3.01592
3.00696
3.00124
2.99891
2.99864
2.99909
2.99954
2.99981
2.99993
2.99998
2.99999
3
3
3
3
3
3
3
3
3
3
3
3
3
3
3
3
2.99946
2.99911
2.99864
2.99897
3.00229
3.0117
3.02904
3.05203
3.07441
3.08977
3.09508
3.08977
3.07441
3.05203
3.02904
3.0117
3.00229
2.99898
2.99865
2.99916
2.99961
2.99985
2.99995
2.99999
3
3
3
3
3
3
3
3
3
3
3
3
3
3
3
3
2.99904
2.9987
2.99891
3.00229
3.01374
3.0384
3.07675
3.12104
3.15862
3.18085
3.18767
3.18085
3.15862
3.12104
3.07675
3.0384
3.01374
3.0023
2.99894
2.9988
2.99933
2.99971
2.9999
2.99997
2.99999
3
3
3
3
3
3
3
3
3
3
3
3
3
3
3
2.9986
2.99873
3.00124
3.0117
3.0384
3.087
3.15267
3.2178
3.26105
3.27533
3.27605
3.27533
3.26105
3.2178
3.15267
3.087
3.03841
3.01172
3.0013
2.99891
2.99906
2.99954
2.99982
2.99994
2.99998
3
3
3
3
3
3
3
3
3
3
3
3
3
3
3
2.99838
2.9998
3.00696
3.02904
3.07675
3.15267
3.24128
3.30756
3.31104
3.25158
3.21167
3.25158
3.31104
3.30756
3.24128
3.15267
3.07676
3.02906
3.00705
3.00007
2.99901
2.99937
2.99973
2.99991
2.99997
2.99999
3
3
3
3
3
3
3
3
3
3
3
3
3
3
2.99863
3.00219
3.01592
3.05203
3.12104
3.2178
3.30756
3.31192
3.11101
2.73739
2.55547
2.73739
3.11101
3.31192
3.30756
3.2178
3.12105
3.05207
3.01605
3.00254
2.99935
2.99928
2.99964
2.99987
2.99996
2.99999
3
3
3
3
3
3
3
3
3
3
3
3
3
3
2.99931
3.00534
3.02582
3.07441
3.15862
3.26105
3.31104
3.11101
2.3782
1.72939
1.58771
1.72939
2.3782
3.11101
3.31104
3.26105
3.15864
3.07446
3.02598
3.00575
3.00002
2.99929
2.99958
2.99983
2.99995
2.99999
3
3
3
3
3
3
3
3
3
3
3
3
3
3
3.00004
3.008
3.03333
3.08977
3.18085
3.27533
3.25158
2.73739
1.72939
1.41957
1.40067
1.41957
1.72939
2.73739
3.25158
3.27533
3.18087
3.08983
3.03352
3.00845
3.00067
2.99936
2.99955
2.99981
2.99994
2.99998
3
3
3
3
3
3
3
3
3
3
3
3
3
3
3.00035
3.00903
3.03609
3.09508
3.18767
3.27605
3.21167
2.55547
1.58771
1.40067
1.40641
1.40067
1.58771
2.55547
3.21167
3.27605
3.18769
3.09514
3.03628
3.00948
3.00095
2.9994
2.99955
2.9998
2.99993
2.99998
3
3
3
3
3
3
3
3
3
3
3
3
3
3
3.00004
3.008
3.03333
3.08977
3.18085
3.27533
3.25158
2.73739
1.72939
1.41957
1.40067
1.41957
1.72939
2.73739
3.25158
3.27533
3.18087
3.08983
3.03352
3.00845
3.00067
2.99936
2.99955
2.99981
2.99994
2.99998
3
3
3
3
3
3
3
3
3
3
3
3
3
3
2.99931
3.00534
3.02582
3.07441
3.15862
3.26105
3.31104
3.11101
2.3782
1.72939
1.58771
1.72939
2.3782
3.11101
3.31104
3.26105
3.15864
3.07446
3.02598
3.00575
3.00002
2.99929
2.99958
2.99983
2.99995
2.99999
3
3
3
3
3
3
3
3
3
3
3
3
3
3
2.99863
3.00219
3.01592
3.05203
3.12104
3.2178
3.30756
3.31192
3.11101
2.73739
2.55547
2.73739
3.11101
3.31192
3.30756
3.2178
3.12105
3.05207
3.01605
3.00254
2.99935
2.99928
2.99964
2.99987
2.99996
2.99999
3
3
3
3
3
3
3
3
3
3
3
3
3
3
2.99838
2.9998
3.00696
3.02904
3.07675
3.15267
3.24128
3.30756
3.31104
3.25158
3.21167
3.25158
3.31104
3.30756
3.24128
3.15267
3.07676
3.02906
3.00705
3.00007
2.99901
2.99937
2.99973
2.99991
2.99997
2.99999
3
3
3
3
3
3
3
3
3
3
3
3
3
3
2.9986
2.99873
3.00124
3.0117
3.0384
3.087
3.15267
3.2178
3.26105
3.27533
3.27605
3.27533
3.26105
3.2178
3.15267
3.08701
3.03841
3.01172
3.0013
2.99891
2.99906
2.99954
2.99982
2.99994
2.99998
3
3
3
3
3.00001
3.00001
3.00001
3
3
3
3
3
3
3
3
2.99904
2.9987
2.99891
3.00229
3.01374
3.03841
3.07676
3.12105
3.15864
3.18087
3.18769
3.18087
3.15864
3.12105
3.07676
3.03841
3.01374
3.0023
2.99894
2.9988
2.99933
2.99971
2.9999
2.99997
2.99999
3
3.00001
3.00001
3.00002
3.00002
3.00002
3.00002
3.00002
3.00001
3.00001
3
3
3
3
3
2.99946
2.99911
2.99864
2.99898
3.0023
3.01172
3.02906
3.05207
3.07446
3.08983
3.09514
3.08983
3.07446
3.05207
3.02906
3.01172
3.0023
2.99898
2.99866
2.99916
2.99961
2.99985
2.99995
2.99999
3.00001
3.00002
3.00003
3.00004
3.00005
3.00006
3.00006
3.00006
3.00005
3.00004
3.00003
3.00002
3.00001
3
3
3
2.99974
2.99952
2.99909
2.99865
2.99894
3.0013
3.00705
3.01605
3.02598
3.03352
3.03628
3.03352
3.02598
3.01605
3.00705
3.0013
2.99894
2.99866
2.9991
2.99954
2.99981
2.99993
2.99998
3.00001
3.00003
3.00005
3.00009
3.00012
3.00014
3.00016
3.00016
3.00016
3.00014
3.00012
3.00009
3.00006
3.00003
3.00002
3.00001
3
2.99989
2.99978
2.99954
2.99916
2.9988
2.99891
3.00007
3.00254
3.00575
3.00845
3.00948
3.00845
3.00575
3.00254
3.00007
2.99891
2.9988
2.99916
2.99954
2.99979
2.99992
2.99998
3.00001
3.00004
3.00009
3.00015
3.00022
3.00027
3.00029
3.00029
3.00029
3.00029
3.00029
3.00027
3.00022
3.00015
3.00009
3.00005
3.00002
3.00001
2.99996
2.99992
2.99981
2.99961
2.99933
2.99906
2.99901
2.99935
3.00002
3.00067
3.00095
3.00067
3.00002
2.99935
2.99901
2.99906
2.99933
2.99961
2.99981
2.99992
2.99998
3.00001
3.00006
3.00012
3.00022
3.00034
3.00042
3.00039
3.00024
3.00008
3
3.00008
3.00024
3.00039
3.00042
3.00034
3.00022
3.00012
3.00006
3.00003
2.99999
2.99997
2.99993
2.99985
2.99971
2.99954
2.99937
2.99928
2.99929
2.99936
2.9994
2.99936
2.99929
2.99928
2.99937
2.99954
2.99971
2.99985
2.99993
2.99998
3.00001
3.00006
3.00014
3.00028
3.00045
3.00053
3.00033
2.9997
2.99873
2.99784
2.99748
2.99784
2.99873
2.9997
3.00033
3.00053
3.00045
3.00029
3.00015
3.00009
3
2.99999
2.99998
2.99995
2.9999
2.99982
2.99973
2.99964
2.99958
2.99955
2.99955
2.99955
2.99958
2.99964
2.99973
2.99982
2.9999
2.99995
2.99998
3.00001
3.00006
3.00014
3.00031
3.00052
3.0006
3.00012
2.99852
2.99553
2.99181
2.98875
2.98759
2.98875
2.99181
2.99553
2.99852
3.00012
3.0006
3.00052
3.00033
3.0002
3
3
2.99999
2.99999
2.99997
2.99994
2.99991
2.99987
2.99983
2.99981
2.9998
2.99981
2.99983
2.99987
2.99991
2.99994
2.99997
2.99999
3.00001
3.00004
3.00012
3.00028
3.00052
3.00062
2.99993
2.99719
2.99108
2.98164
2.9714
2.96393
2.9613
2.96393
2.9714
2.98164
2.99108
2.99719
2.99993
3.00063
3.00056
3.00041
3
3
3
3
2.99999
2.99998
2.99997
2.99996
2.99995
2.99994
2.99993
2.99994
2.99995
2.99996
2.99997
2.99998
2.99999
3.00001
3.00003
3.00009
3.00022
3.00045
3.0006
2.99993
2.99659
2.98768
2.97114
2.94943
2.93006
2.91894
2.91572
2.91894
2.93006
2.94943
2.97114
2.98768
2.9966
2.99996
3.00069
3.00067
3
3
3
3
3
3
2.99999
2.99999
2.99999
2.99998
2.99998
2.99998
2.99999
2.99999
2.99999
3
3
3.00002
3.00005
3.00015
3.00034
3.00053
3.00012
2.99719
2.98768
2.96658
2.93366
2.90031
2.88238
2.88099
2.88293
2.88099
2.88238
2.90031
2.93366
2.96659
2.9877
2.99724
3.00028
3.00087
3
3
3
3
3
3
3
3
3
3
3
3
3
3
3
3
3.00001
3.00003
3.00009
3.00022
3.00042
3.00033
2.99852
2.99108
2.97114
2.93366
2.88875
2.86582
2.88225
2.91653
2.93271
2.91653
2.88225
2.86582
2.88875
2.93367
2.97117
2.99117
2.99874
3.00075
3
3
3
3
3
3
3
3
3
3
3
3
3
3
3
3
3.00001
3.00004
3.00012
3.00027
3.00039
2.9997
2.99553
2.98164
2.94943
2.90031
2.86582
2.89066
2.97294
3.05875
3.09343
3.05875
2.97294
2.89066
2.86582
2.90032
2.94947
2.98176
2.99581
3.00008
3
3
3
3
3
3
3
3
3
3
3
3
3
3
3
3
3.00002
3.00005
3.00014
3.00029
3.00024
2.99873
2.99181
2.9714
2.93006
2.88238
2.88225
2.97294
3.12308
3.25572
3.30673
3.25572
3.12308
2.97294
2.88226
2.8824
2.93012
2.97154
2.9921
2.99897
3
3
3
3
3
3
3
3
3
3
3
3
3
3
3
3.00001
3.00002
3.00006
3.00016
3.00029
3.00008
2.99784
2.98875
2.96393
2.91894
2.88099
2.91653
3.05875
3.25572
3.42011
3.48272
3.42011
3.25572
3.05875
2.91654
2.88101
2.919
2.96409
2.98905
2.99792
3
3
3
3
3
3
3
3
3
3
3
3
3
3
3
3.00001
3.00002
3.00006
3.00016
3.00029
3
2.99748
2.98759
2.9613
2.91572
2.88293
2.93271
3.09343
3.30673
3.48272
3.54987
3.48272
3.30673
3.09343
2.93272
2.88295
2.91578
2.96146
2.98788
2.99749
3
3
3
3
3
3
3
3
3
3
3
3
3
3
3
3.00001
3.00002
3.00006
3.00016
3.00029
3.00008
2.99784
2.98875
2.96393
2.91894
2.88099
2.91653
3.05875
3.25572
3.42011
3.48272
3.42011
3.25572
3.05875
2.91654
2.88101
2.919
2.96409
2.98905
2.99792
3
3
3
3
3
3
3
3
3
3
3
3
3
3
3
3
3.00002
3.00005
3.00014
3.00029
3.00024
2.99873
2.99181
2.9714
2.93006
2.88238
2.88225
2.97294
3.12308
3.25572
3.30673
3.25572
3.12308
2.97294
2.88226
2.8824
2.93012
2.97154
2.9921
2.99897
3
3
3
3
3
3
3
3
3
3
3
3
3
3
3
3
3.00001
3.00004
3.00012
3.00027
3.00039
2.9997
2.99553
2.98164
2.94943
2.90031
2.86582
2.89066
2.97294
3.05875
3.09343
3.05875
2.97294
2.89066
2.86583
2.90032
2.94947
2.98176
2.99581
3.00008
3
3
3
3
3
3
3
3
3
3
3
3
3
3
3
3
3.00001
3.00003
3.00009
3.00022
3.00042
3.00033
2.99852
2.99108
2.97114
2.93366
2.88875
2.86582
2.88226
2.91654
2.93272
2.91654
2.88226
2.86583
2.88875
2.93367
2.97117
2.99117
2.99874
3.00075
3
3
3
3
3
3
3
3
3
3
3
3
3
3
3
3
3
3.00002
3.00006
3.00015
3.00034
3.00053
3.00012
2.99719
2.98768
2.96659
2.93367
2.90032
2.8824
2.88101
2.88295
2.88101
2.8824
2.90032
2.93367
2.96659
2.9877
2.99725
3.00028
3.00087
3
3
3
3
3
3
3
3
3
3
3
3
3
3
3
3
3
3.00001
3.00003
3.00009
3.00022
3.00045
3.0006
2.99993
2.9966
2.9877
2.97117
2.94947
2.93012
2.919
2.91578
2.919
2.93012
2.94947
2.97117
2.9877
2.99661
2.99996
3.00069
3.00068
3
3
3
3
3
3
3
3
3
3
3
3
3
3
3
3
3
3
3.00002
3.00005
3.00012
3.00029
3.00052
3.00063
2.99996
2.99724
2.99117
2.98176
2.97154
2.96409
2.96146
2.96409
2.97154
2.98176
2.99117
2.99725
2.99996
3.00065
3.00057
3.00041
3
3
3
3
3
3
3
3
3
3
3
3
3
3
3
3
3
3
3.00001
3.00002
3.00006
3.00015
3.00033
3.00056
3.00069
3.00028
2.99874
2.99581
2.9921
2.98905
2.98788
2.98905
2.9921
2.99581
2.99874
3.00028
3.00069
3.00057
3.00035
3.00021
3
3
3
3
3
3
3
3
3
3
3
3
3
3
3
3
3
3
3
3.00001
3.00003
3.00009
3.0002
3.00041
3.00067
3.00087
3.00075
3.00008
2.99897
2.99792
2.99749
2.99792
2.99897
3.00008
3.00075
3.00087
3.00068
3.00041
3.00021
3.00012
