# vtk DataFile Version 3.0
Brusselator Concentration Output
ASCII
DATASET STRUCTURED_POINTS
DIMENSIONS 40 40 1
ORIGIN 0.0 0.0 0.0
SPACING 0.005 0.005 1.0
POINT_DATA 1600
SCALARS C1 double 1
LOOKUP_TABLE default
2.77988
2.13603
1.57031
1.1764
0.911537
0.736891
0.624539
0.554361
0.51261
0.490654
0.483836
0.490709
0.512786
0.554809
0.62545
0.738019
0.910383
1.16346
1.51988
2.00713
2.66434
3.59634
2.17098
0.743033
0.527701
0.466926
0.439514
0.435383
0.464382
0.551454
0.725344
0.960901
1.12667
1.13251
1.06989
1.02474
1.00542
0.999651
0.998778
0.998976
2.13603
1.71308
1.29029
0.982719
0.777205
0.6441
0.559744
0.50757
0.476713
0.460542
0.45553
0.460587
0.476851
0.507911
0.560399
0.644752
0.775544
0.970506
1.2483
1.62781
2.132
2.78208
3.55905
1.31234
0.614172
0.494648
0.455752
0.446204
0.469771
0.547404
0.70435
0.921576
1.08974
1.11904
1.07089
1.02794
1.00741
1.00056
0.999167
0.999188
1.57031
1.29029
0.986948
0.764729
0.622675
0.53544
0.482552
0.450936
0.432718
0.423349
0.420476
0.423381
0.432812
0.451154
0.482923
0.535607
0.620637
0.753857
0.954412
1.24219
1.63728
2.16588
2.84838
3.21403
0.968543
0.565815
0.487988
0.465534
0.477855
0.537992
0.666419
0.855301
1.02746
1.09362
1.07097
1.03303
1.01073
1.00204
0.999753
0.999477
1.1764
0.982719
0.764729
0.607879
0.51333
0.459191
0.428528
0.411364
0.402083
0.397566
0.396228
0.397587
0.402143
0.411493
0.428707
0.459075
0.5113
0.598952
0.741236
0.961375
1.28281
1.72898
2.33125
3.16232
2.08973
0.735193
0.535379
0.488411
0.484906
0.524061
0.621743
0.781515
0.955756
1.05881
1.067
1.03736
1.0138
1.00309
0.999816
0.999236
0.911537
0.777205
0.622675
0.51333
0.450644
0.417267
0.40005
0.391527
0.387605
0.386022
0.385619
0.386037
0.387644
0.391601
0.400119
0.417022
0.448821
0.506406
0.606981
0.774542
1.03642
1.41802
1.94607
2.64907
3.47983
1.13079
0.60386
0.511684
0.490214
0.510127
0.581799
0.715966
0.887017
1.01784
1.05597
1.03732
1.01384
1.00157
0.9975
0.996722
0.736891
0.6441
0.53544
0.459191
0.417267
0.396746
0.387668
0.384378
0.383748
0.383999
0.384186
0.38401
0.383774
0.38442
0.387674
0.396444
0.41568
0.453931
0.525666
0.653353
0.866276
1.194
1.6626
2.3034
3.22818
1.87937
0.710691
0.536513
0.495677
0.500142
0.552245
0.665383
0.828537
0.975536
1.03744
1.02988
1.0075
0.994122
0.98941
0.988473
0.624539
0.559744
0.482552
0.428528
0.40005
0.387668
0.383752
0.383857
0.385432
0.386947
0.387548
0.386955
0.385451
0.38388
0.38372
0.38734
0.39866
0.424499
0.476862
0.575805
0.750454
1.03385
1.45474
2.04309
2.84856
2.93394
0.87801
0.565374
0.502701
0.495324
0.533885
0.631782
0.786677
0.941232
1.01757
1.0166
0.993597
0.978045
0.971808
0.970183
0.554361
0.50757
0.450936
0.411364
0.391527
0.384378
0.383857
0.386283
0.389429
0.391878
0.39279
0.391885
0.389444
0.386293
0.383802
0.384037
0.390281
0.408182
0.447877
0.527123
0.673757
0.922696
1.30615
1.85301
2.59464
3.47599
1.10051
0.599011
0.511912
0.496389
0.528126
0.620228
0.774872
0.936251
1.01694
1.01104
0.979207
0.956094
0.944786
0.940626
0.51261
0.476713
0.432718
0.402083
0.387605
0.383748
0.385432
0.389429
0.393685
0.396813
0.397956
0.396819
0.393697
0.389432
0.385361
0.383399
0.386455
0.399441
0.431244
0.497875
0.625722
0.85034
1.20677
1.72426
2.43279
3.48281
1.33631
0.635764
0.52537
0.507676
0.544157
0.650792
0.831027
1.01542
1.09359
1.05817
0.993043
0.945637
0.91943
0.908203
0.490654
0.460542
0.423349
0.397566
0.386022
0.383999
0.386947
0.391878
0.396813
0.400365
0.401654
0.400372
0.396823
0.391876
0.386869
0.383646
0.384926
0.395223
0.422714
0.48236
0.59952
0.809849
1.15015
1.65057
2.34213
3.39755
1.54443
0.676697
0.551605
0.544815
0.611238
0.773962
1.02633
1.27229
1.3729
1.28632
1.13061
1.00748
0.934908
0.902764
0.483836
0.45553
0.420476
0.396228
0.385619
0.384186
0.387548
0.39279
0.397956
0.401654
0.402994
0.40166
0.397966
0.392788
0.387467
0.383832
0.38454
0.393982
0.420112
0.477555
0.591346
0.79721
1.13268
1.62848
2.31691
3.36046
1.71651
0.737623
0.613618
0.638064
0.754927
0.957964
1.20891
1.47222
1.68645
1.74366
1.58898
1.33928
1.1379
1.0365
0.490709
0.460587
0.423381
0.397587
0.386037
0.38401
0.386955
0.391885
0.396819
0.400372
0.40166
0.400378
0.39683
0.391883
0.386877
0.383657
0.384942
0.395255
0.422789
0.482565
0.600086
0.811295
1.15336
1.65658
2.35388
3.3802
1.91392
0.853266
0.722847
0.733719
0.772813
0.847275
0.988575
1.18365
1.40413
1.62923
1.83846
1.95293
1.86879
1.71653
0.512786
0.476851
0.432812
0.402143
0.387644
0.383774
0.385451
0.389444
0.393697
0.396823
0.397966
0.39683
0.393709
0.389446
0.38538
0.383427
0.386503
0.399541
0.431479
0.498472
0.627214
0.853675
1.21282
1.73162
2.43739
3.39036
2.13738
0.968888
0.724147
0.616079
0.587669
0.626294
0.714301
0.836503
0.982808
1.15728
1.37831
1.66295
1.99132
2.24031
0.554809
0.507911
0.451154
0.411493
0.391601
0.38442
0.38388
0.386293
0.389432
0.391876
0.392788
0.391883
0.389446
0.386303
0.383826
0.384089
0.390393
0.408433
0.448466
0.528496
0.676651
0.927384
1.30925
1.83791
2.51455
3.2787
1.95829
0.819131
0.552417
0.475173
0.464558
0.489388
0.537127
0.601042
0.680905
0.787044
0.937846
1.14466
1.3806
1.55364
0.62545
0.560399
0.482923
0.428707
0.400119
0.387674
0.38372
0.383802
0.385361
0.386869
0.387467
0.386877
0.38538
0.383826
0.383698
0.387383
0.398844
0.425003
0.478054
0.578207
0.753799
1.03327
1.43128
1.94181
2.52538
3.04397
1.24711
0.572091
0.440564
0.408737
0.407678
0.421675
0.444568
0.473741
0.511488
0.566422
0.651457
0.774402
0.917025
1.02137
0.738019
0.644752
0.535607
0.459075
0.417022
0.396444
0.38734
0.384037
0.383399
0.383646
0.383832
0.383657
0.383427
0.384089
0.387383
0.396257
0.415744
0.45454
0.527156
0.655075
0.862676
1.16554
1.56024
2.02652
2.53392
2.27243
0.710267
0.447195
0.397036
0.385599
0.387071
0.394505
0.404563
0.416371
0.432168
0.457185
0.498398
0.559821
0.631797
0.684608
0.910383
0.775544
0.620637
0.5113
0.448821
0.41568
0.39866
0.390281
0.386455
0.384926
0.38454
0.384942
0.386503
0.390393
0.398844
0.415744
0.447698
0.505545
0.605372
0.766313
1.00267
1.31558
1.69629
2.14734
2.79227
1.05309
0.489737
0.40466
0.386738
0.383753
0.386172
0.390148
0.393817
0.397265
0.402215
0.411466
0.428176
0.453686
0.483358
0.50494
1.16346
0.970506
0.753857
0.598952
0.506406
0.453931
0.424499
0.408182
0.399441
0.395223
0.393982
0.395255
0.399541
0.408433
0.425003
0.45454
0.505545
0.590308
0.723257
0.915765
1.17127
1.49017
1.89543
2.44951
1.67137
0.582066
0.423854
0.39758
0.39303
0.394651
0.397648
0.399564
0.399705
0.398686
0.397771
0.398427
0.401912
0.408404
0.416152
0.421815
1.51988
1.2483
0.954412
0.741236
0.606981
0.525666
0.476862
0.447877
0.431244
0.422714
0.420112
0.422789
0.431479
0.448466
0.478054
0.527156
0.605372
0.723257
0.888595
1.10464
1.3771
1.73304
2.19387
2.41119
0.742233
0.453345
0.412896
0.407779
0.410806
0.415508
0.418679
0.419049
0.416755
0.412627
0.407667
0.40275
0.398347
0.394374
0.390876
0.38879
2.00713
1.62781
1.24219
0.961375
0.774542
0.653353
0.575805
0.527123
0.497875
0.48236
0.477555
0.482565
0.498472
0.528496
0.578207
0.655075
0.766313
0.915765
1.10464
1.34104
1.6548
2.07661
2.74518
0.956574
0.492009
0.429987
0.424585
0.430692
0.439357
0.446339
0.449555
0.44857
0.443934
0.436634
0.427712
0.417942
0.407592
0.396723
0.386594
0.380295
2.66434
2.132
1.63728
1.28281
1.03642
0.866276
0.750454
0.673757
0.625722
0.59952
0.591346
0.600086
0.627214
0.676651
0.753799
0.862676
1.00267
1.17127
1.3771
1.6548
2.04209
2.77057
1.15225
0.532672
0.446295
0.440893
0.45161
0.466699
0.480759
0.490472
0.49421
0.491718
0.483807
0.471938
0.45767
0.442108
0.425676
0.408751
0.393488
0.384208
3.59634
2.78208
2.16588
1.72898
1.41802
1.194
1.03385
0.922696
0.85034
0.809849
0.79721
0.811295
0.853675
0.927384
1.03327
1.16554
1.31558
1.49017
1.73304
2.07661
2.77057
1.23224
0.560135
0.458468
0.454073
0.470594
0.494577
0.520034
0.542374
0.557768
0.563415
0.558426
0.544262
0.523947
0.500586
0.476242
0.451752
0.427817
0.407241
0.395103
2.17098
3.55905
2.84838
2.33125
1.94607
1.6626
1.45474
1.30615
1.20677
1.15015
1.13268
1.15336
1.21282
1.30925
1.43128
1.56024
1.69629
1.89543
2.19387
2.74518
1.15225
0.560135
0.463042
0.461526
0.484146
0.518432
0.559662
0.603839
0.645511
0.676575
0.688332
0.676972
0.646789
0.60672
0.564538
0.524289
0.487059
0.453368
0.426106
0.410603
0.743033
1.31234
3.21403
3.16232
2.64907
2.3034
2.04309
1.85301
1.72426
1.65057
1.62848
1.65658
1.73162
1.83791
1.94181
2.02652
2.14734
2.44951
2.41119
0.956574
0.532672
0.458468
0.461526
0.489102
0.532531
0.59088
0.665825
0.758803
0.863504
0.954424
0.991747
0.954924
0.864894
0.761492
0.669813
0.595263
0.535009
0.486115
0.44954
0.429666
0.527701
0.614172
0.968543
2.08973
3.47983
3.22818
2.84856
2.59464
2.43279
2.34213
2.31691
2.35388
2.43739
2.51455
2.52538
2.53392
2.79227
1.67137
0.742233
0.492009
0.446295
0.454073
0.484146
0.532531
0.603001
0.70759
0.872775
1.14272
1.52823
1.8991
2.05246
1.90077
1.53179
1.1474
0.877129
0.71024
0.602369
0.527763
0.477519
0.451754
0.466926
0.494648
0.565815
0.735193
1.13079
1.87937
2.93394
3.47599
3.48281
3.39755
3.36046
3.3802
3.39036
3.2787
3.04397
2.27243
1.05309
0.582066
0.453345
0.429987
0.440893
0.470594
0.518432
0.59088
0.70759
0.924397
1.39986
2.35337
3.29417
3.5959
3.63304
3.59672
3.29893
2.36541
1.40848
0.925591
0.702282
0.580894
0.510066
0.476334
0.439514
0.455752
0.487988
0.535379
0.60386
0.710691
0.87801
1.10051
1.33631
1.54443
1.71651
1.91392
2.13738
1.95829
1.24711
0.710267
0.489737
0.423854
0.412896
0.424585
0.45161
0.494577
0.559662
0.665825
0.872775
1.39986
2.73838
3.63185
3.52667
3.37101
3.3141
3.37058
3.52558
3.63263
2.75409
1.40025
0.860691
0.648557
0.546677
0.502447
0.435383
0.446204
0.465534
0.488411
0.511684
0.536513
0.565374
0.599011
0.635764
0.676697
0.737623
0.853266
0.968888
0.819131
0.572091
0.447195
0.40466
0.39758
0.407779
0.430692
0.466699
0.520034
0.603839
0.758803
1.14272
2.35337
3.63185
3.4275
3.14434
2.96756
2.90879
2.96707
3.14282
3.42407
3.63096
2.35284
1.12004
0.732425
0.585468
0.528298
0.464382
0.469771
0.477855
0.484906
0.490214
0.495677
0.502701
0.511912
0.52537
0.551605
0.613618
0.722847
0.724147
0.552417
0.440564
0.397036
0.386738
0.39303
0.410806
0.439357
0.480759
0.542374
0.645511
0.863504
1.52823
3.29417
3.52667
3.14434
2.85259
2.68139
2.62522
2.68091
2.85108
3.14063
3.52019
3.29165
1.49054
0.82673
0.622117
0.551004
0.551454
0.547404
0.537992
0.524061
0.510127
0.500142
0.495324
0.496389
0.507676
0.544815
0.638064
0.733719
0.616079
0.475173
0.408737
0.385599
0.383753
0.394651
0.415508
0.446339
0.490472
0.557768
0.676575
0.954424
1.8991
3.5959
3.37101
2.96756
2.68139
2.5156
2.46137
2.51514
2.67992
2.96391
3.36388
3.59172
1.84783
0.90847
0.64949
0.566898
0.725344
0.70435
0.666419
0.621743
0.581799
0.552245
0.533885
0.528126
0.544157
0.611238
0.754927
0.772813
0.587669
0.464558
0.407678
0.387071
0.386172
0.397648
0.418679
0.449555
0.49421
0.563415
0.688332
0.991747
2.05246
3.63304
3.3141
2.90879
2.62522
2.46137
2.40782
2.46092
2.62377
2.90517
3.30693
3.62829
1.99639
0.942019
0.659835
0.572674
0.960901
0.921576
0.855301
0.781515
0.715966
0.665383
0.631782
0.620228
0.650792
0.773962
0.957964
0.847275
0.626294
0.489388
0.421675
0.394505
0.390148
0.399564
0.419049
0.44857
0.491718
0.558426
0.676972
0.954924
1.90077
3.59672
3.37058
2.96707
2.68091
2.51514
2.46092
2.51467
2.67945
2.96341
3.36343
3.59259
1.84975
0.908938
0.649648
0.566989
1.12667
1.08974
1.02746
0.955756
0.887017
0.828537
0.786677
0.774872
0.831027
1.02633
1.20891
0.988575
0.714301
0.537127
0.444568
0.404563
0.393817
0.399705
0.416755
0.443934
0.483807
0.544262
0.646789
0.864894
1.53179
3.29893
3.52558
3.14282
2.85108
2.67992
2.62377
2.67945
2.84957
3.13909
3.51901
3.29674
1.49418
0.82769
0.62249
0.551234
1.13251
1.11904
1.09362
1.05881
1.01784
0.975536
0.941232
0.936251
1.01542
1.27229
1.47222
1.18365
0.836503
0.601042
0.473741
0.416371
0.397265
0.398686
0.412627
0.436634
0.471938
0.523947
0.60672
0.761492
1.1474
2.36541
3.63263
3.42407
3.14063
2.96391
2.90517
2.96341
3.13909
3.42054
3.63154
2.36528
1.12406
0.73372
0.586071
0.528705
1.06989
1.07089
1.07097
1.067
1.05597
1.03744
1.01757
1.01694
1.09359
1.3729
1.68645
1.40413
0.982808
0.680905
0.511488
0.432168
0.402215
0.397771
0.407667
0.427712
0.45767
0.500586
0.564538
0.669813
0.877129
1.40848
2.75409
3.63096
3.52019
3.36388
3.30693
3.36343
3.51901
3.63154
2.77012
1.4082
0.863238
0.649619
0.547278
0.502907
1.02474
1.02794
1.03303
1.03736
1.03732
1.02988
1.0166
1.01104
1.05817
1.28632
1.74366
1.62923
1.15728
0.787044
0.566422
0.457185
0.411466
0.398427
0.40275
0.417942
0.442108
0.476242
0.524289
0.595263
0.71024
0.925591
1.40025
2.35284
3.29165
3.59172
3.62829
3.59259
3.29674
2.36528
1.4082
0.924869
0.701681
0.580516
0.509891
0.476282
1.00542
1.00741
1.01073
1.0138
1.01384
1.0075
0.993597
0.979207
0.993043
1.13061
1.58898
1.83846
1.37831
0.937846
0.651457
0.498398
0.428176
0.401912
0.398347
0.407592
0.425676
0.451752
0.487059
0.535009
0.602369
0.702282
0.860691
1.12004
1.49054
1.84783
1.99639
1.84975
1.49418
1.12406
0.863238
0.701681
0.596866
0.524146
0.475094
0.449918
0.999651
1.00056
1.00204
1.00309
1.00157
0.994122
0.978045
0.956094
0.945637
1.00748
1.33928
1.95293
1.66295
1.14466
0.774402
0.559821
0.453686
0.408404
0.394374
0.396723
0.408751
0.427817
0.453368
0.486115
0.527763
0.580894
0.648557
0.732425
0.82673
0.90847
0.942019
0.908938
0.82769
0.73372
0.649619
0.580516
0.524146
0.478077
0.443406
0.424466
0.998778
0.999167
0.999753
0.999816
0.9975
0.98941
0.971808
0.944786
0.91943
0.934908
1.1379
1.86879
1.99132
1.3806
0.917025
0.631797
0.483358
0.416152
0.390876
0.386594
0.393488
0.407241
0.426106
0.44954
0.477519
0.510066
0.546677
0.585468
0.622117
0.64949
0.659835
0.649648
0.62249
0.586071
0.547278
0.509891
0.475094
0.443406
0.417449
0.402484
0.998976
0.999188
0.999477
0.999236
0.996722
0.988473
0.970183
0.940626
0.908203
0.902764
1.0365
1.71653
2.24031
1.55364
1.02137
0.684608
0.50494
0.421815
0.38879
0.380295
0.384208
0.395103
0.410603
0.429666
0.451754
0.476334
0.502447
0.528298
0.551004
0.566898
0.572674
0.566989
0.551234
0.528705
0.502907
0.476282
0.449918
0.424466
0.402484
0.389384
SCALARS C2 double 1
LOOKUP_TABLE default
0.968066
1.20696
1.50407
1.78544
2.03087
2.2336
2.3939
2.51472
2.599
2.6488
2.66527
2.64874
2.59878
2.5141
2.39247
2.23136
2.02982
1.7922
1.53116
1.26617
1.02014
0.864918
3.42903
4.58161
4.52692
4.35098
4.12789
3.87008
3.5797
3.25754
2.92768
2.68405
2.65228
2.79087
2.92138
2.98259
3.00133
3.00399
3.00271
3.00158
1.20696
1.43487
1.73294
2.01251
2.24962
2.44231
2.59423
2.70931
2.79018
2.83826
2.85422
2.83821
2.78998
2.70873
2.59289
2.44023
2.24889
2.02025
1.76261
1.49241
1.23083
1.00873
1.21816
4.21905
4.56282
4.42367
4.20953
3.95413
3.66412
3.34302
3.0138
2.75828
2.68951
2.79112
2.91162
2.97599
2.99834
3.00284
3.00223
3.00128
1.50407
1.73294
2.03788
2.31619
2.54334
2.72459
2.86754
2.97683
3.05445
3.10099
3.1165
3.10095
3.05429
2.97631
2.86629
2.72261
2.54274
2.32455
2.06968
1.78786
1.49776
1.22295
1.00148
1.92299
4.44666
4.51772
4.33592
4.09192
3.80709
3.48985
3.16058
2.88274
2.75395
2.79469
2.89565
2.96433
2.99293
3.00071
3.0013
3.00066
1.78544
2.01251
2.31619
2.58652
2.80214
2.97359
3.11004
3.21563
3.29138
3.33712
3.35242
3.33709
3.29125
3.21517
3.10888
2.97163
2.80128
2.59432
2.34751
2.0627
1.75253
1.44048
1.15592
0.968479
3.37796
4.53615
4.44996
4.23254
3.96144
3.65284
3.32441
3.02281
2.8326
2.80638
2.88002
2.95117
2.98683
2.9985
3.00043
3.00006
2.03087
2.24962
2.54334
2.80214
3.00787
3.17299
3.30615
3.41034
3.48569
3.5314
3.54672
3.53138
3.4856
3.40996
3.30508
3.17105
3.00667
2.80882
2.57257
2.29421
1.97833
1.64424
1.3218
1.0472
1.34778
4.31667
4.51953
4.34468
4.09256
3.7957
3.47129
3.15403
2.91651
2.83092
2.8732
2.94267
2.984
2.99897
3.00175
3.00135
2.2336
2.44231
2.72459
2.97359
3.17299
3.3351
3.46737
3.57173
3.64759
3.69373
3.70922
3.69372
3.64751
3.57139
3.46638
3.33318
3.17152
2.97924
2.75162
2.48246
2.16973
1.8254
1.47819
1.16387
0.958186
3.5762
4.53302
4.42508
4.19343
3.90895
3.5916
3.26869
3.00161
2.87095
2.88331
2.94725
2.99145
3.00809
3.01069
3.00973
2.3939
2.59423
2.86754
3.11004
3.30615
3.46737
3.60004
3.70528
3.78199
3.82871
3.84441
3.82871
3.78193
3.70498
3.59911
3.46547
3.30449
3.11493
2.89293
2.63179
2.32552
1.97881
1.61613
1.27447
0.992525
2.26795
4.47423
4.47925
4.26936
3.99733
3.68907
3.36721
3.08396
2.92323
2.9132
2.97194
3.01759
3.03486
3.03675
3.03502
2.51472
2.70931
2.97683
3.21563
3.41034
3.57173
3.70528
3.81153
3.88908
3.93633
3.95221
3.93633
3.88903
3.81125
3.70438
3.56985
3.40855
3.21999
3.00118
2.74579
2.44592
2.10086
1.7296
1.36916
1.05888
1.34656
4.33007
4.51223
4.32615
4.06684
3.7678
3.44685
3.15004
2.9687
2.94937
3.01262
3.06522
3.08658
3.09022
3.08907
2.599
2.79018
3.05445
3.29138
3.48569
3.64759
3.78199
3.88908
3.96727
4.0149
4.0309
4.0149
3.96722
3.88882
3.78112
3.64571
3.48381
3.29541
3.07821
2.8264
2.53143
2.18915
1.81377
1.44119
1.11314
1.05215
4.12509
4.52794
4.36678
4.1189
3.82207
3.48352
3.14855
2.93797
2.92848
3.02844
3.1143
3.1569
3.17273
3.17723
2.6488
2.83826
3.10099
3.33712
3.5314
3.69373
3.82871
3.93633
4.0149
4.06274
4.07881
4.06275
4.01486
3.93608
3.82786
3.69186
3.52946
3.34095
3.12444
2.87454
2.58248
2.24233
1.86518
1.48569
1.14692
0.975729
3.91723
4.52666
4.38701
4.13908
3.807
3.37201
2.91118
2.62623
2.63686
2.84955
3.06235
3.19225
3.25667
3.28235
2.66527
2.85422
3.1165
3.35242
3.54672
3.70922
3.84441
3.95221
4.0309
4.07881
4.0949
4.07882
4.03086
3.95196
3.84356
3.70735
3.54477
3.3562
3.13988
2.89054
2.59936
2.25978
1.88178
1.49959
1.15656
0.952935
3.73464
4.49156
4.35562
4.05172
3.55976
2.91589
2.3678
2.05224
1.9746
2.1567
2.54494
2.93809
3.19255
3.30392
2.64874
2.83821
3.10095
3.33709
3.53138
3.69372
3.82871
3.93633
4.0149
4.06275
4.07882
4.06275
4.01486
3.93608
3.82786
3.69185
3.52945
3.34095
3.12443
2.87442
2.58202
2.24105
1.86261
1.48179
1.14133
0.940389
3.49901
4.35736
4.17178
3.70803
3.08482
2.57265
2.23066
1.9922
1.82912
1.7412
1.75785
1.95874
2.35445
2.67723
2.59878
2.78998
3.05429
3.29125
3.4856
3.64751
3.78193
3.88903
3.96722
4.01486
4.03086
4.01486
3.96718
3.88877
3.78106
3.64565
3.48374
3.29532
3.07803
2.82588
2.52995
2.18582
1.80822
1.43483
1.10754
0.937384
3.12485
4.06672
3.84023
3.37019
2.95552
2.67117
2.45794
2.28166
2.12594
1.97355
1.81086
1.64288
1.50391
1.43701
2.5141
2.70873
2.97631
3.21517
3.40996
3.57139
3.70498
3.81125
3.88882
3.93608
3.95196
3.93608
3.88877
3.81097
3.70409
3.56954
3.40821
3.21956
3.00043
2.74411
2.44228
2.09469
1.72327
1.36991
1.07721
0.988197
3.06026
3.91422
3.65427
3.30661
3.06454
2.89248
2.7572
2.63903
2.51777
2.37132
2.1823
1.95287
1.72507
1.57844
2.39247
2.59289
2.86629
3.10888
3.30508
3.46638
3.59911
3.70438
3.78112
3.82786
3.84356
3.82786
3.78106
3.70409
3.5982
3.46453
3.30346
3.1136
2.89073
2.62766
2.3188
1.97267
1.62184
1.31016
1.07958
1.24289
3.6828
3.88786
3.60013
3.38417
3.24011
3.13931
3.06098
2.98486
2.89184
2.76455
2.58806
2.36275
2.13289
1.98474
2.23136
2.44023
2.72261
2.97163
3.17105
3.33318
3.46547
3.56985
3.64571
3.69186
3.70735
3.69185
3.64565
3.56954
3.46453
3.3313
3.16943
2.9764
2.74702
2.4754
2.16376
1.83445
1.5261
1.27282
1.11919
2.52446
4.02707
3.84231
3.64817
3.52474
3.44978
3.40141
3.35781
3.3018
3.22215
3.10891
2.95082
2.74673
2.53539
2.39771
2.02982
2.24889
2.54274
2.80128
3.00667
3.17152
3.30449
3.40855
3.48381
3.52946
3.54477
3.52945
3.48374
3.40821
3.30346
3.16943
3.00462
2.80542
2.56717
2.29045
1.99131
1.70067
1.4458
1.24497
1.35355
3.93853
4.03367
3.86661
3.76215
3.70988
3.68703
3.6694
3.63943
3.58892
3.51388
3.40857
3.26394
3.07803
2.88433
2.75725
1.7922
2.02025
2.32455
2.59432
2.80882
2.97924
3.11493
3.21999
3.29541
3.34095
3.3562
3.34095
3.29532
3.21956
3.1136
2.9764
2.80542
2.59735
2.35312
2.0861
1.82115
1.57806
1.35975
1.20577
3.36976
4.16296
4.0428
3.95801
3.9274
3.92831
3.93428
3.92682
3.89879
3.84882
3.77576
3.67536
3.53962
3.36571
3.18291
3.06165
1.53116
1.76261
2.06968
2.34751
2.57257
2.75162
2.89293
3.00118
3.07821
3.12444
3.13988
3.12443
3.07803
3.00043
2.89073
2.74702
2.56717
2.35312
2.11768
1.8822
1.6601
1.4449
1.25667
2.36961
4.20479
4.1773
4.11421
4.10451
4.12761
4.15539
4.16875
4.16138
4.13282
4.08347
4.01249
3.91615
3.78709
3.62157
3.4452
3.32631
1.26617
1.49241
1.78786
2.0627
2.29421
2.48246
2.63179
2.74579
2.8264
2.87454
2.89054
2.87442
2.82588
2.74411
2.62766
2.4754
2.29045
2.0861
1.8822
1.68784
1.49003
1.30153
1.68858
4.14078
4.27043
4.23198
4.2421
4.28524
4.33216
4.36383
4.37523
4.36678
4.33912
4.29208
4.22447
4.13277
4.01011
3.85184
3.68027
3.56244
1.02014
1.23083
1.49776
1.75253
1.97833
2.16973
2.32552
2.44592
2.53143
2.58248
2.59936
2.58202
2.52995
2.44228
2.3188
2.16376
1.99131
1.82115
1.6601
1.49003
1.31705
1.46639
4.01812
4.32495
4.31309
4.34163
4.40208
4.46436
4.5099
4.53574
4.54404
4.53619
4.51197
4.47011
4.40857
4.32366
4.20876
4.0584
3.89182
3.77506
0.864918
1.00873
1.22295
1.44048
1.64424
1.8254
1.97881
2.10086
2.18915
2.24233
2.25978
2.24105
2.18582
2.09469
1.97267
1.83445
1.70067
1.57806
1.4449
1.30153
1.46639
3.95484
4.34823
4.36004
4.4055
4.48069
4.55413
4.60717
4.63905
4.65513
4.65989
4.65491
4.6387
4.60776
4.55794
4.48455
4.38085
4.24065
4.0805
3.96559
3.42903
1.21816
1.00148
1.15592
1.3218
1.47819
1.61613
1.7296
1.81377
1.86518
1.88178
1.86261
1.80822
1.72327
1.62184
1.5261
1.4458
1.35975
1.25667
1.68858
4.01812
4.34823
4.37534
4.43647
4.52512
4.60693
4.661
4.68643
4.69136
4.68697
4.68393
4.68673
4.69054
4.68488
4.65976
4.60786
4.52227
4.39663
4.24555
4.13382
4.58161
4.21905
1.92299
0.968479
1.0472
1.16387
1.27447
1.36916
1.44119
1.48569
1.49959
1.48179
1.43483
1.36991
1.31016
1.27282
1.24497
1.20577
2.36961
4.14078
4.32495
4.36004
4.43647
4.53937
4.6304
4.68328
4.69068
4.65426
4.5852
4.51323
4.48166
4.51285
4.58403
4.65195
4.68755
4.68033
4.62671
4.52347
4.38559
4.27889
4.52692
4.56282
4.44666
3.37796
1.34778
0.958186
0.992525
1.05888
1.11314
1.14692
1.15656
1.14133
1.10754
1.07721
1.07958
1.11919
1.35355
3.36976
4.20479
4.27043
4.31309
4.4055
4.52512
4.6304
4.68842
4.67921
4.57775
4.34355
3.95808
3.55067
3.37392
3.5489
3.95434
4.33876
4.57338
4.67609
4.68452
4.61758
4.49915
4.39992
4.35098
4.42367
4.51772
4.53615
4.31667
3.5762
2.26795
1.34656
1.05215
0.975729
0.952935
0.940389
0.937384
0.988197
1.24289
2.52446
3.93853
4.16296
4.1773
4.23198
4.34163
4.48069
4.60693
4.68328
4.67921
4.53663
4.09205
3.04332
1.82193
1.28287
1.16606
1.28135
1.81503
3.02861
4.08252
4.53495
4.68024
4.67502
4.58513
4.49639
4.12789
4.20953
4.33592
4.44996
4.51953
4.53302
4.47423
4.33007
4.12509
3.91723
3.73464
3.49901
3.12485
3.06026
3.6828
4.02707
4.03367
4.0428
4.11421
4.2421
4.40208
4.55413
4.661
4.69068
4.57775
4.09205
2.58518
1.17629
0.914528
0.89097
0.892613
0.89091
0.913921
1.17032
2.56411
4.09171
4.58805
4.69239
4.64353
4.56861
3.87008
3.95413
4.09192
4.23254
4.34468
4.42508
4.47925
4.51223
4.52794
4.52666
4.49156
4.35736
4.06672
3.91422
3.88786
3.84231
3.86661
3.95801
4.10451
4.28524
4.46436
4.60717
4.68643
4.65426
4.34355
3.04332
1.17629
0.893904
0.912727
0.947759
0.961618
0.947854
0.912943
0.893752
1.16909
3.04338
4.36821
4.66956
4.6765
4.61824
3.5797
3.66412
3.80709
3.96144
4.09256
4.19343
4.26936
4.32615
4.36678
4.38701
4.35562
4.17178
3.84023
3.65427
3.60013
3.64817
3.76215
3.9274
4.12761
4.33216
4.5099
4.63905
4.69136
4.5852
3.95808
1.82193
0.914528
0.912727
0.975759
1.02359
1.04078
1.02372
0.976126
0.913381
0.914059
1.82249
4.00254
4.61554
4.68943
4.64852
3.25754
3.34302
3.48985
3.65284
3.7957
3.90895
3.99733
4.06684
4.1189
4.13908
4.05172
3.70803
3.37019
3.30661
3.38417
3.52474
3.70988
3.92831
4.15539
4.36383
4.53574
4.65513
4.68697
4.51323
3.55067
1.28287
0.89097
0.947759
1.02359
1.07643
1.09509
1.07657
1.02401
0.948608
0.891806
1.28391
3.61316
4.55637
4.691
4.66392
2.92768
3.0138
3.16058
3.32441
3.47129
3.5916
3.68907
3.7678
3.82207
3.807
3.55976
3.08482
2.95552
3.06454
3.24011
3.44978
3.68703
3.93428
4.16875
4.37523
4.54404
4.65989
4.68393
4.48166
3.37392
1.16606
0.892613
0.961618
1.04078
1.09509
1.11422
1.09524
1.0412
0.962512
0.893692
1.16721
3.44294
4.52997
4.69018
4.66849
2.68405
2.75828
2.88274
3.02281
3.15403
3.26869
3.36721
3.44685
3.48352
3.37201
2.91589
2.57265
2.67117
2.89248
3.13931
3.40141
3.6694
3.92682
4.16138
4.36678
4.53619
4.65491
4.68673
4.51285
3.5489
1.28135
0.89091
0.947854
1.02372
1.07657
1.09524
1.07671
1.02414
0.948703
0.891744
1.28219
3.61101
4.55598
4.69095
4.66395
2.65228
2.68951
2.75395
2.8326
2.91651
3.00161
3.08396
3.15004
3.14855
2.91118
2.3678
2.23066
2.45794
2.7572
3.06098
3.35781
3.63943
3.89879
4.13282
4.33912
4.51197
4.6387
4.69054
4.58403
3.95434
1.81503
0.913921
0.912943
0.976126
1.02401
1.0412
1.02414
0.976493
0.913599
0.913439
1.81492
3.99861
4.61479
4.68938
4.64866
2.79087
2.79112
2.79469
2.80638
2.83092
2.87095
2.92323
2.9687
2.93797
2.62623
2.05224
1.9922
2.28166
2.63903
2.98486
3.3018
3.58892
3.84882
4.08347
4.29208
4.47011
4.60776
4.68488
4.65195
4.33876
3.02861
1.17032
0.893752
0.913381
0.948608
0.962512
0.948703
0.913599
0.893605
1.16298
3.02796
4.36412
4.66874
4.67663
4.61866
2.92138
2.91162
2.89565
2.88002
2.8732
2.88331
2.9132
2.94937
2.92848
2.63686
1.9746
1.82912
2.12594
2.51777
2.89184
3.22215
3.51388
3.77576
4.01249
4.22447
4.40857
4.55794
4.65976
4.68755
4.57338
4.08252
2.56411
1.16909
0.914059
0.891806
0.893692
0.891744
0.913439
1.16298
2.54227
4.08283
4.5857
4.69207
4.64403
4.56947
2.98259
2.97599
2.96433
2.95117
2.94267
2.94725
2.97194
3.01262
3.02844
2.84955
2.1567
1.7412
1.97355
2.37132
2.76455
3.10891
3.40857
3.67536
3.91615
4.13277
4.32366
4.48455
4.60786
4.68033
4.67609
4.53495
4.09171
3.04338
1.82249
1.28391
1.16721
1.28219
1.81492
3.02796
4.08283
4.53543
4.68041
4.67491
4.58508
4.49665
3.00133
2.99834
2.99293
2.98683
2.984
2.99145
3.01759
3.06522
3.1143
3.06235
2.54494
1.75785
1.81086
2.1823
2.58806
2.95082
3.26394
3.53962
3.78709
4.01011
4.20876
4.38085
4.52227
4.62671
4.68452
4.68024
4.58805
4.36821
4.00254
3.61316
3.44294
3.61101
3.99861
4.36412
4.5857
4.68041
4.68365
4.61331
4.49345
4.39425
3.00399
3.00284
3.00071
2.9985
2.99897
3.00809
3.03486
3.08658
3.1569
3.19225
2.93809
1.95874
1.64288
1.95287
2.36275
2.74673
3.07803
3.36571
3.62157
3.85184
4.0584
4.24065
4.39663
4.52347
4.61758
4.67502
4.69239
4.66956
4.61554
4.55637
4.52997
4.55598
4.61479
4.66874
4.69207
4.67491
4.61331
4.50405
4.36256
4.25438
3.00271
3.00223
3.0013
3.00043
3.00175
3.01069
3.03675
3.09022
3.17273
3.25667
3.19255
2.35445
1.50391
1.72507
2.13289
2.53539
2.88433
3.18291
3.4452
3.68027
3.89182
4.0805
4.24555
4.38559
4.49915
4.58513
4.64353
4.6765
4.68943
4.691
4.69018
4.69095
4.68938
4.67663
4.64403
4.58508
4.49345
4.36256
4.20528
4.08763
3.00158
3.00128
3.00066
3.00006
3.00135
3.00973
3.03502
3.08907
3.17723
3.28235
3.30392
2.67723
1.43701
1.57844
1.98474
2.39771
2.75725
3.06165
3.32631
3.56244
3.77506
3.96559
4.13382
4.27889
4.39992
4.49639
4.56861
4.61824
4.64852
4.66392
4.66849
4.66395
4.64866
4.61866
4.56947
4.49665
4.39425
4.25438
4.08763
3.96299
