# vtk DataFile Version 3.0
Brusselator Concentration Output
ASCII
DATASET STRUCTURED_POINTS
DIMENSIONS 40 40 1
ORIGIN 0.0 0.0 0.0
SPACING 0.005 0.005 1.0
POINT_DATA 1600
SCALARS C1 double 1
LOOKUP_TABLE default
0.394302
0.41188
0.443477
0.482753
0.528514
0.585889
0.664535
0.774366
0.910489
1.03489
1.08657
1.0348
0.910206
0.773741
0.663492
0.584593
0.527835
0.484917
0.451402
0.425108
0.405222
0.392411
0.389936
0.406651
0.463593
0.603191
0.880183
1.27967
1.51386
1.29807
1.08204
1.00354
0.9871
0.989075
0.993953
0.997426
0.99916
0.999822
1.00001
1.00004
0.41188
0.432877
0.472967
0.52895
0.609301
0.754547
1.05742
1.5888
2.2775
2.82094
3.00166
2.82055
2.27612
1.58603
1.05376
0.751524
0.608364
0.532419
0.483349
0.448154
0.422508
0.405465
0.399066
0.410411
0.456892
0.573891
0.809021
1.1573
1.41693
1.31232
1.11123
1.0176
0.992002
0.990292
0.993991
0.99724
0.99902
0.999754
0.999983
1.00003
0.443477
0.472967
0.536016
0.651772
0.934584
1.76042
3.27434
3.60808
3.35806
3.17601
3.11607
3.17601
3.35818
3.60829
3.26539
1.74584
0.931055
0.658519
0.55197
0.492881
0.454091
0.428261
0.414283
0.416037
0.445243
0.527058
0.699855
0.978825
1.26291
1.3138
1.15942
1.04425
1.00174
0.992861
0.994211
0.996968
0.998803
0.999656
0.999955
1.00003
0.482753
0.52895
0.651772
1.03919
2.50795
3.61391
3.14928
2.79056
2.54816
2.40708
2.3608
2.40707
2.54828
2.79128
3.15203
3.6195
2.49359
1.05583
0.679255
0.556661
0.49354
0.454266
0.430217
0.420922
0.432674
0.482022
0.599581
0.816683
1.10283
1.28108
1.20906
1.07993
1.01595
0.996976
0.994869
0.996815
0.998647
0.999624
0.999999
1.0001
0.528514
0.609301
0.934584
2.50795
3.51924
2.94973
2.51703
2.20066
1.98788
1.86548
1.82554
1.86548
1.98801
2.20135
2.51951
2.95637
3.53166
2.55989
0.995085
0.650682
0.53915
0.480929
0.445531
0.426153
0.424554
0.451358
0.530734
0.699187
0.96631
1.21836
1.24343
1.11899
1.03369
1.00273
0.996243
0.997048
0.998778
0.999851
1.00029
1.00041
0.585889
0.754547
1.76042
3.61391
2.94973
2.43002
2.04163
1.76381
1.57796
1.47147
1.43682
1.47148
1.57809
1.76446
2.04385
2.43592
2.96186
3.61852
1.93268
0.826714
0.59645
0.509582
0.461459
0.433238
0.422144
0.434546
0.489287
0.621438
0.860396
1.14297
1.25454
1.1548
1.05302
1.00969
0.998342
0.997815
0.99941
1.0006
1.00114
1.0013
0.664535
1.05742
3.27434
3.14928
2.51703
2.04163
1.69333
1.44587
1.28167
1.18838
1.15818
1.18839
1.2818
1.44648
1.69536
2.04682
2.5266
3.15808
3.44047
1.20555
0.676692
0.541456
0.478297
0.441879
0.423677
0.426584
0.465229
0.571067
0.781634
1.06883
1.2432
1.18038
1.07009
1.01597
1.00009
0.998506
1.00029
1.00192
1.0028
1.00314
0.774366
1.5888
3.60808
2.79056
2.20066
1.76381
1.44587
1.22213
1.07551
0.99318
0.966721
0.993196
1.07564
1.22272
1.44776
1.76849
2.20893
2.79906
3.57567
1.88071
0.791971
0.575987
0.494951
0.450778
0.426975
0.423309
0.451136
0.538103
0.723786
1.00215
1.21353
1.18793
1.07756
1.01646
0.997768
0.996348
0.99948
1.00263
1.00471
1.00569
0.910489
2.2775
3.35806
2.54816
1.98788
1.57796
1.28167
1.07551
0.942236
0.868296
0.844702
0.868313
0.942365
1.07608
1.28346
1.58229
1.99529
2.55361
3.30765
2.70565
0.937325
0.609773
0.50944
0.458432
0.430313
0.422047
0.442489
0.515958
0.681173
0.944474
1.16965
1.16954
1.06466
1.00213
0.98382
0.984884
0.991568
0.998389
1.00344
1.00609
1.03489
2.82094
3.17601
2.40708
1.86548
1.47147
1.18838
0.99318
0.868296
0.799627
0.777826
0.799645
0.868423
0.993727
1.1901
1.4756
1.87238
2.41089
3.13235
3.22434
1.06865
0.635783
0.519402
0.463473
0.432447
0.421169
0.436755
0.501015
0.650945
0.898353
1.1182
1.12264
1.02316
0.964441
0.949816
0.955476
0.967707
0.980334
0.990308
0.995792
1.08657
3.00166
3.11607
2.3608
1.82554
1.43682
1.15818
0.966721
0.844702
0.777826
0.756634
0.777844
0.844829
0.967262
1.15988
1.44088
1.83227
2.36412
3.07529
3.3618
1.12208
0.645599
0.52276
0.464888
0.432621
0.419945
0.433215
0.493153
0.636052
0.873663
1.07331
1.0571
0.95819
0.905635
0.895457
0.904914
0.921443
0.938779
0.952917
0.960856
1.0348
2.82055
3.17601
2.40707
1.86548
1.47148
1.18839
0.993196
0.868313
0.799645
0.777844
0.799663
0.868441
0.993743
1.19011
1.4756
1.87237
2.41084
3.13223
3.22354
1.06802
0.635197
0.518598
0.462315
0.430826
0.418968
0.433901
0.498272
0.651445
0.897146
1.06226
0.99918
0.89404
0.845595
0.836181
0.84397
0.858212
0.873349
0.885618
0.89241
0.910206
2.27612
3.35818
2.54828
1.98801
1.57809
1.2818
1.07564
0.942365
0.868423
0.844829
0.868441
0.942495
1.07621
1.28359
1.5824
1.99538
2.55362
3.30754
2.7023
0.935626
0.608336
0.50775
0.456484
0.4285
0.421607
0.447449
0.539238
0.750028
1.05187
1.16076
1.01252
0.883128
0.825762
0.804845
0.798734
0.798505
0.79989
0.800834
0.801072
0.773741
1.58603
3.60829
2.79128
2.20135
1.76446
1.44648
1.22272
1.07608
0.993727
0.967262
0.993743
1.07621
1.2233
1.44836
1.76909
2.20951
2.79956
3.57583
1.87307
0.788795
0.57352
0.49283
0.449978
0.430429
0.439533
0.506356
0.703372
1.11454
1.60655
1.68548
1.36885
1.12413
0.985684
0.894032
0.827275
0.779722
0.747139
0.725828
0.714878
0.663492
1.05376
3.26539
3.15203
2.51951
2.04385
1.69536
1.44776
1.28346
1.1901
1.15988
1.19011
1.28359
1.44836
1.69735
2.04893
2.52886
3.16039
3.43031
1.19564
0.672251
0.538735
0.478396
0.449352
0.451412
0.512851
0.714245
1.1645
1.7556
2.31169
2.66017
2.62036
2.33291
1.96559
1.57006
1.20674
0.93368
0.773345
0.694695
0.663153
0.584593
0.751524
1.74584
3.6195
2.95637
2.43592
2.04682
1.76849
1.58229
1.4756
1.44088
1.4756
1.5824
1.76909
2.04893
2.44159
2.96813
3.62431
1.90612
0.817929
0.592508
0.51035
0.472816
0.471599
0.532186
0.719875
1.04929
1.33366
1.66635
1.97928
2.15848
2.2391
2.32597
2.46655
2.62844
2.58221
1.91591
1.1789
0.808905
0.688613
0.527835
0.608364
0.931055
2.49359
3.53166
2.96186
2.5266
2.20893
1.99529
1.87238
1.83227
1.87237
1.99538
2.20951
2.52886
2.96813
3.54409
2.53281
0.983949
0.646751
0.541413
0.496582
0.493406
0.550357
0.697761
0.859384
0.966247
1.1496
1.34366
1.46522
1.51001
1.53864
1.60009
1.71328
1.88806
2.14368
2.51589
2.70759
1.70248
1.07316
0.484917
0.532419
0.658519
1.05583
2.55989
3.61852
3.15808
2.79906
2.55361
2.41089
2.36412
2.41084
2.55362
2.79956
3.16039
3.62431
2.53281
1.06465
0.683579
0.565005
0.516289
0.512374
0.563206
0.664161
0.713305
0.739614
0.824673
0.932658
1.00645
1.02802
1.02684
1.0402
1.08693
1.17494
1.31298
1.51738
1.81586
2.24831
2.89927
3.12509
0.451402
0.483349
0.55197
0.679255
0.995085
1.93268
3.44047
3.57567
3.30765
3.13235
3.07529
3.13223
3.30754
3.57583
3.43031
1.90612
0.983949
0.683579
0.573966
0.527601
0.525262
0.571166
0.636319
0.625312
0.609413
0.638736
0.690615
0.728499
0.734579
0.720499
0.710063
0.717955
0.749885
0.810554
0.908527
1.05956
1.28993
1.63697
2.12378
2.6238
0.425108
0.448154
0.492881
0.556661
0.650682
0.826714
1.20555
1.88071
2.70565
3.22434
3.3618
3.22354
2.7023
1.87307
1.19564
0.817929
0.646751
0.565005
0.527601
0.529839
0.575042
0.619823
0.5783
0.539452
0.539395
0.558988
0.574224
0.571731
0.555155
0.538093
0.530317
0.535159
0.554263
0.591109
0.653097
0.754123
0.917633
1.1741
1.52872
1.86132
0.405222
0.422508
0.454091
0.49354
0.53915
0.59645
0.676692
0.791971
0.937325
1.06865
1.12208
1.06802
0.935626
0.788795
0.672251
0.592508
0.541413
0.516289
0.525262
0.575042
0.614516
0.558156
0.505826
0.489665
0.491574
0.493873
0.487132
0.472009
0.45598
0.445064
0.440952
0.443644
0.453797
0.473865
0.509247
0.570456
0.67614
0.850644
1.09286
1.30883
0.392411
0.405465
0.428261
0.454266
0.480929
0.509582
0.541456
0.575987
0.609773
0.635783
0.645599
0.635197
0.608336
0.57352
0.538735
0.51035
0.496582
0.512374
0.571166
0.619823
0.558156
0.495895
0.469113
0.460192
0.454475
0.445106
0.431781
0.418601
0.409058
0.403766
0.401985
0.403224
0.407888
0.41764
0.436097
0.470393
0.533465
0.642227
0.794494
0.926434
0.389936
0.399066
0.414283
0.430217
0.445531
0.461459
0.478297
0.494951
0.50944
0.519402
0.52276
0.518598
0.50775
0.49283
0.478396
0.472816
0.493406
0.563206
0.636319
0.5783
0.505826
0.469113
0.45107
0.438418
0.425957
0.413185
0.402309
0.395079
0.391248
0.38961
0.389137
0.389423
0.390782
0.394386
0.402679
0.420335
0.455592
0.518571
0.606437
0.680468
0.406651
0.410411
0.416037
0.420922
0.426153
0.433238
0.441879
0.450778
0.458432
0.463473
0.464888
0.462315
0.456484
0.449978
0.449352
0.471599
0.550357
0.664161
0.625312
0.539452
0.489665
0.460192
0.438418
0.420459
0.405941
0.395817
0.390425
0.388664
0.388854
0.389557
0.389875
0.389497
0.388702
0.388421
0.390443
0.397918
0.415943
0.449911
0.496704
0.534759
0.463593
0.456892
0.445243
0.432674
0.424554
0.422144
0.423677
0.426975
0.430313
0.432447
0.432621
0.430826
0.4285
0.430429
0.451412
0.532186
0.697761
0.713305
0.609413
0.539395
0.491574
0.454475
0.425957
0.405941
0.394128
0.389268
0.389192
0.391632
0.394728
0.397135
0.398026
0.397118
0.394699
0.391633
0.389413
0.390337
0.397609
0.413837
0.436196
0.453686
0.603191
0.573891
0.527058
0.482022
0.451358
0.434546
0.426584
0.423309
0.422047
0.421169
0.419945
0.418968
0.421607
0.439533
0.512851
0.719875
0.859384
0.739614
0.638736
0.558988
0.493873
0.445106
0.413185
0.395817
0.389268
0.389682
0.39392
0.39965
0.405116
0.408986
0.410379
0.408985
0.405134
0.399758
0.394291
0.390612
0.390847
0.396114
0.404196
0.410322
0.880183
0.809021
0.699855
0.599581
0.530734
0.489287
0.465229
0.451136
0.442489
0.436755
0.433215
0.433901
0.447449
0.506356
0.714245
1.04929
0.966247
0.824673
0.690615
0.574224
0.487132
0.431781
0.402309
0.390425
0.389192
0.39392
0.401596
0.410101
0.417719
0.422994
0.424882
0.422999
0.417756
0.410255
0.402034
0.394818
0.390152
0.388396
0.387984
0.38778
1.27967
1.1573
0.978825
0.816683
0.699187
0.621438
0.571067
0.538103
0.515958
0.501015
0.493153
0.498272
0.539238
0.703372
1.1645
1.33366
1.1496
0.932658
0.728499
0.571731
0.472009
0.418601
0.395079
0.388664
0.391632
0.39965
0.410101
0.421034
0.430664
0.437312
0.439692
0.437319
0.430711
0.421211
0.410566
0.400506
0.392278
0.385871
0.380263
0.376436
1.51386
1.41693
1.26291
1.10283
0.96631
0.860396
0.781634
0.723786
0.681173
0.650945
0.636052
0.651445
0.750028
1.11454
1.7556
1.66635
1.34366
1.00645
0.734579
0.555155
0.45598
0.409058
0.391248
0.388854
0.394728
0.405116
0.417719
0.430664
0.442044
0.449924
0.452753
0.449934
0.442098
0.430855
0.418197
0.405932
0.395164
0.385706
0.376926
0.371012
1.29807
1.31232
1.3138
1.28108
1.21836
1.14297
1.06883
1.00215
0.944474
0.898353
0.873663
0.897146
1.05187
1.60655
2.31169
1.97928
1.46522
1.02802
0.720499
0.538093
0.445064
0.403766
0.38961
0.389557
0.397135
0.408986
0.422994
0.437312
0.449924
0.458689
0.461843
0.458699
0.449982
0.437512
0.42348
0.409776
0.397444
0.386218
0.375691
0.368675
1.08204
1.11123
1.15942
1.20906
1.24343
1.25454
1.2432
1.21353
1.16965
1.1182
1.07331
1.06226
1.16076
1.68548
2.66017
2.15848
1.51001
1.02684
0.710063
0.530317
0.440952
0.401985
0.389137
0.389875
0.398026
0.410379
0.424882
0.439692
0.452753
0.461843
0.465118
0.461854
0.452813
0.439895
0.42537
0.41116
0.398295
0.386483
0.375393
0.36803
1.00354
1.0176
1.04425
1.07993
1.11899
1.1548
1.18038
1.18793
1.16954
1.12264
1.0571
0.99918
1.01252
1.36885
2.62036
2.2391
1.53864
1.0402
0.717955
0.535159
0.443644
0.403224
0.389423
0.389497
0.397118
0.408985
0.422999
0.437319
0.449934
0.458699
0.461854
0.458709
0.449991
0.437519
0.423484
0.409777
0.397441
0.386208
0.375674
0.368653
0.9871
0.992002
1.00174
1.01595
1.03369
1.05302
1.07009
1.07756
1.06466
1.02316
0.95819
0.89404
0.883128
1.12413
2.33291
2.32597
1.60009
1.08693
0.749885
0.554263
0.453797
0.407888
0.390782
0.388702
0.394699
0.405134
0.417756
0.430711
0.442098
0.449982
0.452813
0.449991
0.442152
0.430903
0.418237
0.405963
0.395184
0.385708
0.376906
0.370976
0.989075
0.990292
0.992861
0.996976
1.00273
1.00969
1.01597
1.01646
1.00213
0.964441
0.905635
0.845595
0.825762
0.985684
1.96559
2.46655
1.71328
1.17494
0.810554
0.591109
0.473865
0.41764
0.394386
0.388421
0.391633
0.399758
0.410255
0.421211
0.430855
0.437512
0.439895
0.437519
0.430903
0.421391
0.410735
0.400663
0.392418
0.385983
0.380333
0.376474
0.993953
0.993991
0.994211
0.994869
0.996243
0.998342
1.00009
0.997768
0.98382
0.949816
0.895457
0.836181
0.804845
0.894032
1.57006
2.62844
1.88806
1.31298
0.908527
0.653097
0.509247
0.436097
0.402679
0.390443
0.389413
0.394291
0.402034
0.410566
0.418197
0.42348
0.42537
0.423484
0.418237
0.410735
0.402521
0.395326
0.390691
0.388957
0.38854
0.388321
0.997426
0.99724
0.996968
0.996815
0.997048
0.997815
0.998506
0.996348
0.984884
0.955476
0.904914
0.84397
0.798734
0.827275
1.20674
2.58221
2.14368
1.51738
1.05956
0.754123
0.570456
0.470393
0.420335
0.397918
0.390337
0.390612
0.394818
0.400506
0.405932
0.409776
0.41116
0.409777
0.405963
0.400663
0.395326
0.391856
0.392401
0.398069
0.406569
0.412994
0.99916
0.99902
0.998803
0.998647
0.998778
0.99941
1.00029
0.99948
0.991568
0.967707
0.921443
0.858212
0.798505
0.779722
0.93368
1.91591
2.51589
1.81586
1.28993
0.917633
0.67614
0.533465
0.455592
0.415943
0.397609
0.390847
0.390152
0.392278
0.395164
0.397444
0.398295
0.397441
0.395184
0.392418
0.390691
0.392401
0.40091
0.419003
0.443733
0.463183
0.999822
0.999754
0.999656
0.999624
0.999851
1.0006
1.00192
1.00263
0.998389
0.980334
0.938779
0.873349
0.79989
0.747139
0.773345
1.1789
2.70759
2.24831
1.63697
1.1741
0.850644
0.642227
0.518571
0.449911
0.413837
0.396114
0.388396
0.385871
0.385706
0.386218
0.386483
0.386208
0.385708
0.385983
0.388957
0.398069
0.419003
0.458137
0.512754
0.558145
1.00001
0.999983
0.999955
0.999999
1.00029
1.00114
1.0028
1.00471
1.00344
0.990308
0.952917
0.885618
0.800834
0.725828
0.694695
0.808905
1.70248
2.89927
2.12378
1.52872
1.09286
0.794494
0.606437
0.496704
0.436196
0.404196
0.387984
0.380263
0.376926
0.375691
0.375393
0.375674
0.376906
0.380333
0.38854
0.406569
0.443733
0.512754
0.613495
0.701726
1.00004
1.00003
1.00003
1.0001
1.00041
1.0013
1.00314
1.00569
1.00609
0.995792
0.960856
0.89241
0.801072
0.714878
0.663153
0.688613
1.07316
3.12509
2.6238
1.86132
1.30883
0.926434
0.680468
0.534759
0.453686
0.410322
0.38778
0.376436
0.371012
0.368675
0.36803
0.368653
0.370976
0.376474
0.388321
0.412994
0.463183
0.558145
0.701726
0.831594
SCALARS C2 double 1
LOOKUP_TABLE default
3.99935
4.14808
4.34622
4.49842
4.59615
4.65125
4.66437
4.63027
4.55254
4.46408
4.42387
4.46414
4.55275
4.63069
4.66481
4.65104
4.59505
4.50224
4.37676
4.22194
4.04045
3.83413
3.6034
3.34577
3.05335
2.71445
2.34395
2.07321
2.22546
2.72839
2.98659
3.04074
3.03435
3.01913
3.00826
3.00275
3.00059
2.99998
2.99989
2.99991
4.14808
4.2839
4.46351
4.59373
4.65531
4.63449
4.45324
3.96647
3.18694
2.50673
2.26561
2.50716
3.18852
3.96945
4.45639
4.63626
4.65538
4.5977
4.4917
4.34831
4.17333
3.97033
3.74104
3.4845
3.19521
2.86429
2.50305
2.21501
2.25119
2.6524
2.94024
3.02479
3.03062
3.01914
3.00895
3.00326
3.00085
3.00008
2.99993
2.99993
4.34622
4.46351
4.6043
4.66256
4.53925
3.81031
1.94053
1.02044
0.913378
0.920118
0.927588
0.920141
0.913499
1.02178
1.9545
3.82733
4.54264
4.66263
4.62213
4.51296
4.35869
4.16908
3.949
3.70001
3.41988
3.10295
2.75321
2.4322
2.31334
2.54504
2.85485
2.99275
3.02258
3.01871
3.01005
3.00413
3.00128
3.00025
2.99998
2.99995
4.49842
4.59373
4.66256
4.46592
2.97484
1.03969
0.925649
0.998401
1.07071
1.11957
1.13669
1.11958
1.07069
0.998259
0.925394
1.04472
2.99572
4.45251
4.6598
4.62466
4.50658
4.33893
4.13412
3.89759
3.63033
3.32912
2.99183
2.64587
2.40626
2.4607
2.74809
2.94581
3.00947
3.01709
3.01102
3.00503
3.00171
3.00037
2.99998
2.99992
4.59615
4.65531
4.53925
2.97484
0.957723
0.960135
1.0801
1.19896
1.295
1.357
1.3784
1.35701
1.29496
1.19872
1.07934
0.958539
0.957335
2.91361
4.49266
4.66184
4.60105
4.46047
4.27183
4.04694
3.79032
3.50132
3.17596
2.82252
2.5128
2.42443
2.64393
2.88789
2.99089
3.01339
3.01113
3.00544
3.00175
3.00015
2.99968
2.99961
4.65125
4.63449
3.81031
1.03969
0.960135
1.10974
1.26897
1.41212
1.52486
1.59671
1.62135
1.59671
1.52481
1.41182
1.26802
1.10764
0.956641
1.02338
3.6197
4.59955
4.6518
4.54646
4.37478
4.16005
3.91118
3.63026
3.31407
2.96251
2.61819
2.43049
2.56164
2.82584
2.96752
3.00704
3.00964
3.00468
3.00078
2.99901
2.99852
2.99848
4.66437
4.45324
1.94053
0.925649
1.0801
1.26897
1.45296
1.61464
1.73993
1.81881
1.84568
1.81881
1.73986
1.61429
1.45188
1.2666
1.07646
0.921566
1.6823
4.32493
4.65954
4.60521
4.45272
4.24773
4.00501
3.72948
3.41967
3.07265
2.71353
2.46287
2.51008
2.76912
2.94253
2.99894
3.00668
3.00249
2.99827
2.99619
2.99556
2.9955
4.63027
3.96647
1.02044
0.998401
1.19896
1.41212
1.61464
1.78953
1.92295
2.00594
2.03404
2.00594
1.92289
1.78916
1.61346
1.40955
1.1952
0.994785
0.969568
3.64372
4.61811
4.64057
4.50956
4.31411
4.07662
3.80494
3.49957
3.15762
2.79496
2.50928
2.49229
2.73134
2.92477
2.9944
3.00571
3.00102
2.99525
2.9917
2.99009
2.98953
4.55254
3.18694
0.913378
1.07071
1.295
1.52486
1.73993
1.92295
2.06073
2.14559
2.17418
2.1456
2.06066
1.92257
1.73869
1.52214
1.29111
1.0676
0.907973
2.65603
4.53026
4.65699
4.54756
4.36058
4.12729
3.85841
3.55659
3.22078
2.86312
2.56548
2.51289
2.73239
2.9325
3.00729
3.01761
3.00875
2.9978
2.9894
2.98408
2.98154
4.46408
2.50673
0.920118
1.11957
1.357
1.59671
1.81881
2.00594
2.14559
2.2311
2.25981
2.2311
2.14553
2.00556
1.81754
1.59391
1.35302
1.1168
0.922929
1.95231
4.43211
4.66152
4.56901
4.38794
4.15739
3.89061
3.59298
3.26656
2.92264
2.6339
2.58017
2.79555
2.99112
3.05992
3.06221
3.0433
3.02113
3.00177
2.98762
2.98011
4.42387
2.26561
0.927588
1.13669
1.3784
1.62135
1.84568
2.03404
2.17418
2.25981
2.28854
2.25982
2.17412
2.03365
1.84441
1.61853
1.3744
1.13403
0.931802
1.74191
4.38814
4.66196
4.57592
4.39682
4.1673
3.90299
3.61279
3.30161
2.97965
2.71777
2.70112
2.93585
3.11883
3.17164
3.15993
3.12621
3.08751
3.0514
3.02321
3.00762
4.46414
2.50716
0.920141
1.11958
1.35701
1.59671
1.81881
2.00594
2.1456
2.2311
2.25982
2.23111
2.14553
2.00556
1.81754
1.59391
1.35304
1.11682
0.922977
1.95317
4.43272
4.66193
4.56908
4.38754
4.15819
3.89937
3.62298
3.33276
3.034
2.80881
2.8686
3.14283
3.30777
3.34096
3.31526
3.26779
3.21341
3.16093
3.11892
3.09542
4.55275
3.18852
0.913499
1.07069
1.29496
1.52481
1.73986
1.92289
2.06066
2.14553
2.17412
2.14553
2.0606
1.9225
1.73863
1.52209
1.29108
1.06762
0.908141
2.66003
4.53192
4.65788
4.54757
4.36055
4.13356
3.88709
3.63082
3.35509
3.0481
2.83816
3.01358
3.35064
3.50744
3.53223
3.50387
3.45374
3.39442
3.33573
3.28844
3.2621
4.63069
3.96945
1.02178
0.998259
1.19872
1.41182
1.61429
1.78916
1.92257
2.00556
2.03365
2.00556
1.9225
1.78879
1.61312
1.40927
1.195
0.994721
0.970942
3.65272
4.62108
4.6417
4.50957
4.3183
4.10072
3.87352
3.62482
3.28137
2.77791
2.43697
2.73778
3.25925
3.51744
3.61042
3.63734
3.62863
3.59663
3.55466
3.51725
3.49567
4.66481
4.45639
1.9545
0.925394
1.07934
1.26802
1.45188
1.61346
1.73869
1.81754
1.84441
1.81754
1.73863
1.61312
1.45082
1.2657
1.07578
0.921478
1.69988
4.33565
4.66304
4.60586
4.45529
4.26736
4.06603
3.83637
3.44735
2.65359
1.80787
1.41335
1.41169
1.73578
2.19725
2.68533
3.15358
3.50886
3.69825
3.76027
3.76549
3.75912
4.65104
4.63626
3.82733
1.04472
0.958539
1.10764
1.2666
1.40955
1.52214
1.59391
1.61853
1.59391
1.52209
1.40927
1.2657
1.10565
0.955222
1.02953
3.6523
4.60806
4.65397
4.54788
4.38986
4.21185
3.99282
3.55237
2.62746
1.86569
1.49829
1.31433
1.24768
1.23432
1.22621
1.22767
1.31579
1.75924
2.82649
3.66414
3.94004
3.99692
4.59505
4.65538
4.54264
2.99572
0.957335
0.956641
1.07646
1.1952
1.29111
1.35302
1.3744
1.35304
1.29108
1.195
1.07578
0.955222
0.957981
2.9516
4.50504
4.66579
4.60258
4.47263
4.31522
4.10268
3.63423
2.7521
2.14749
1.83767
1.66409
1.59446
1.58271
1.57198
1.53432
1.46712
1.37683
1.27746
1.23328
1.73835
3.32196
3.97667
4.50224
4.5977
4.66263
4.45251
2.91361
1.02338
0.921566
0.994785
1.0676
1.1168
1.13403
1.11682
1.06762
0.994721
0.921478
1.02953
2.9516
4.44784
4.66198
4.62888
4.5219
4.38208
4.17651
3.71126
2.92302
2.41701
2.15733
2.01517
1.96711
1.97904
1.99711
1.98666
1.93902
1.85554
1.73892
1.5912
1.41657
1.23337
1.15883
1.72196
4.37676
4.4917
4.62213
4.6598
4.49266
3.6197
1.6823
0.969568
0.907973
0.922929
0.931802
0.922977
0.908141
0.970942
1.69988
3.6523
4.50504
4.66198
4.63626
4.54433
4.41886
4.22226
3.77679
3.0708
2.62626
2.4083
2.30339
2.28767
2.33087
2.38253
2.40682
2.39376
2.34348
2.25696
2.13369
1.9706
1.76342
1.51541
1.25251
1.05141
4.22194
4.34831
4.51296
4.62466
4.66184
4.59955
4.32493
3.64372
2.65603
1.95231
1.74191
1.95317
2.66003
3.65272
4.33565
4.60806
4.66579
4.62888
4.54433
4.4305
4.24424
3.82015
3.17288
2.77073
2.58593
2.51493
2.53241
2.6076
2.69081
2.74687
2.76708
2.75235
2.70395
2.62187
2.50404
2.34446
2.13282
1.86357
1.56572
1.34568
4.04045
4.17333
4.35869
4.50658
4.60105
4.6518
4.65954
4.61811
4.53026
4.43211
4.38814
4.43272
4.53192
4.62108
4.66304
4.65397
4.60258
4.5219
4.41886
4.24424
3.8352
3.22423
2.85482
2.6984
2.65704
2.70502
2.81053
2.92295
3.00757
3.05728
3.07385
3.05884
3.01291
2.93595
2.82621
2.67771
2.4778
2.21372
1.91161
1.6881
3.83413
3.97033
4.16908
4.33893
4.46047
4.54646
4.60521
4.64057
4.65699
4.66152
4.66196
4.66193
4.65788
4.6417
4.60586
4.54788
4.47263
4.38208
4.22226
3.82015
3.22423
2.8824
2.75291
2.73884
2.81497
2.9491
3.08944
3.20139
3.27911
3.32483
3.34
3.32512
3.28054
3.20651
3.10221
2.96324
2.778
2.53135
2.2441
2.03078
3.6034
3.74104
3.949
4.13412
4.27183
4.37478
4.45272
4.50956
4.54756
4.56901
4.57592
4.56908
4.54757
4.50957
4.45529
4.38986
4.31522
4.17651
3.77679
3.17288
2.85482
2.75291
2.76557
2.86859
3.03013
3.19766
3.33655
3.44192
3.51635
3.56099
3.57589
3.56105
3.51677
3.44365
3.34171
3.20812
3.03351
2.8036
2.53593
2.33789
3.34577
3.4845
3.70001
3.89759
4.04694
4.16005
4.24773
4.31411
4.36058
4.38794
4.39682
4.38754
4.36055
4.3183
4.26736
4.21185
4.10268
3.71126
3.0708
2.77073
2.6984
2.73884
2.86859
3.05685
3.25114
3.41675
3.54948
3.65233
3.72632
3.77108
3.78608
3.77114
3.72661
3.65329
3.55176
3.42033
3.25159
3.03285
2.78007
2.59445
3.05335
3.19521
3.41988
3.63033
3.79032
3.91118
4.00501
4.07662
4.12729
4.15739
4.1673
4.15819
4.13356
4.10072
4.06603
3.99282
3.63423
2.92302
2.62626
2.58593
2.65704
2.81497
3.03013
3.25114
3.44336
3.60306
3.73377
3.83662
3.91107
3.95621
3.97135
3.95628
3.91137
3.83748
3.73548
3.60444
3.43829
3.22564
2.98141
2.803
2.71445
2.86429
3.10295
3.32912
3.50132
3.63026
3.72948
3.80494
3.85841
3.89061
3.90299
3.89937
3.88709
3.87352
3.83637
3.55237
2.7521
2.41701
2.4083
2.51493
2.70502
2.9491
3.19766
3.41675
3.60306
3.76089
3.89178
3.99522
4.07011
4.11548
4.13068
4.11555
4.07039
3.99604
3.89344
3.76207
3.59676
3.38693
3.14659
2.97137
2.34395
2.50305
2.75321
2.99183
3.17596
3.31407
3.41967
3.49957
3.55659
3.59298
3.61279
3.62298
3.63082
3.62482
3.44735
2.62746
2.14749
2.15733
2.30339
2.53241
2.81053
3.08944
3.33655
3.54948
3.73377
3.89178
4.02326
4.12707
4.20204
4.24732
4.26246
4.24738
4.20229
4.12785
4.02489
3.89312
3.72792
3.51914
3.28001
3.10566
2.07321
2.21501
2.4322
2.64587
2.82252
2.96251
3.07265
3.15762
3.22078
3.26656
3.30161
3.33276
3.35509
3.28137
2.65359
1.86569
1.83767
2.01517
2.28767
2.6076
2.92295
3.20139
3.44192
3.65233
3.83662
3.99522
4.12707
4.23084
4.30544
4.35029
4.36524
4.35033
4.30566
4.23155
4.12865
3.99669
3.8314
3.6229
3.38369
3.20907
2.22546
2.25119
2.31334
2.40626
2.5128
2.61819
2.71353
2.79496
2.86312
2.92264
2.97965
3.034
3.0481
2.77791
1.80787
1.49829
1.66409
1.96711
2.33087
2.69081
3.00757
3.27911
3.51635
3.72632
3.91107
4.07011
4.20204
4.30544
4.37937
4.42358
4.43827
4.42362
4.37956
4.30609
4.20356
4.07165
3.90632
3.69781
3.45807
3.28284
2.72839
2.6524
2.54504
2.4607
2.42443
2.43049
2.46287
2.50928
2.56548
2.6339
2.71777
2.80881
2.83816
2.43697
1.41335
1.31433
1.59446
1.97904
2.38253
2.74687
3.05728
3.32483
3.56099
3.77108
3.95621
4.11548
4.24732
4.35029
4.42358
4.46721
4.48166
4.46724
4.42375
4.35091
4.2488
4.11705
3.95173
3.74316
3.50294
3.32719
2.98659
2.94024
2.85485
2.74809
2.64393
2.56164
2.51008
2.49229
2.51289
2.58017
2.70112
2.8686
3.01358
2.73778
1.41169
1.24768
1.58271
1.99711
2.40682
2.76708
3.07385
3.34
3.57589
3.78608
3.97135
4.13068
4.26246
4.36524
4.43827
4.48166
4.49601
4.48169
4.43844
4.36585
4.26392
4.13226
3.96697
3.75838
3.51798
3.34202
3.04074
3.02479
2.99275
2.94581
2.88789
2.82584
2.76912
2.73134
2.73239
2.79555
2.93585
3.14283
3.35064
3.25925
1.73578
1.23432
1.57198
1.98666
2.39376
2.75235
3.05884
3.32512
3.56105
3.77114
3.95628
4.11555
4.24738
4.35033
4.42362
4.46724
4.48169
4.46728
4.42379
4.35095
4.24885
4.11712
3.95183
3.74329
3.50308
3.32733
3.03435
3.03062
3.02258
3.00947
2.99089
2.96752
2.94253
2.92477
2.9325
2.99112
3.11883
3.30777
3.50744
3.51744
2.19725
1.22621
1.53432
1.93902
2.34348
2.70395
3.01291
3.28054
3.51677
3.72661
3.91137
4.07039
4.20229
4.30566
4.37956
4.42375
4.43844
4.42379
4.37975
4.30631
4.20381
4.07195
3.90668
3.69824
3.45853
3.2833
3.01913
3.01914
3.01871
3.01709
3.01339
3.00704
2.99894
2.9944
3.00729
3.05992
3.17164
3.34096
3.53223
3.61042
2.68533
1.22767
1.46712
1.85554
2.25696
2.62187
2.93595
3.20651
3.44365
3.65329
3.83748
3.99604
4.12785
4.23155
4.30609
4.35091
4.36585
4.35095
4.30631
4.23226
4.12944
3.99758
3.8324
3.62399
3.3848
3.21017
3.00826
3.00895
3.01005
3.01102
3.01113
3.00964
3.00668
3.00571
3.01761
3.06221
3.15993
3.31526
3.50387
3.63734
3.15358
1.31579
1.37683
1.73892
2.13369
2.50404
2.82621
3.10221
3.34171
3.55176
3.73548
3.89344
4.02489
4.12865
4.20356
4.2488
4.26392
4.24885
4.20381
4.12944
4.02658
3.89492
3.72978
3.52099
3.28182
3.10747
3.00275
3.00326
3.00413
3.00503
3.00544
3.00468
3.00249
3.00102
3.00875
3.0433
3.12621
3.26779
3.45374
3.62863
3.50886
1.75924
1.27746
1.5912
1.9706
2.34446
2.67771
2.96324
3.20812
3.42033
3.60444
3.76207
3.89312
3.99669
4.07165
4.11705
4.13226
4.11712
4.07195
3.99758
3.89492
3.76341
3.59776
3.38744
3.1469
2.97184
3.00059
3.00085
3.00128
3.00171
3.00175
3.00078
2.99827
2.99525
2.9978
3.02113
3.08751
3.21341
3.39442
3.59663
3.69825
2.82649
1.23328
1.41657
1.76342
2.13282
2.4778
2.778
3.03351
3.25159
3.43829
3.59676
3.72792
3.8314
3.90632
3.95173
3.96697
3.95183
3.90668
3.8324
3.72978
3.59776
3.43017
3.21599
2.97127
2.79326
2.99998
3.00008
3.00025
3.00037
3.00015
2.99901
2.99619
2.9917
2.9894
3.00177
3.0514
3.16093
3.33573
3.55466
3.76027
3.66414
1.73835
1.23337
1.51541
1.86357
2.21372
2.53135
2.8036
3.03285
3.22564
3.38693
3.51914
3.6229
3.69781
3.74316
3.75838
3.74329
3.69824
3.62399
3.52099
3.38744
3.21599
2.99461
2.74015
2.55347
2.99989
2.99993
2.99998
2.99998
2.99968
2.99852
2.99556
2.99009
2.98408
2.98762
3.02321
3.11892
3.28844
3.51725
3.76549
3.94004
3.32196
1.15883
1.25251
1.56572
1.91161
2.2441
2.53593
2.78007
2.98141
3.14659
3.28001
3.38369
3.45807
3.50294
3.51798
3.50308
3.45853
3.3848
3.28182
3.1469
2.97127
2.74015
2.46752
2.26162
2.99991
2.99993
2.99995
2.99992
2.99961
2.99848
2.9955
2.98953
2.98154
2.98011
3.00762
3.09542
3.2621
3.49567
3.75912
3.99692
3.97667
1.72196
1.05141
1.34568
1.6881
2.03078
2.33789
2.59445
2.803
2.97137
3.10566
3.20907
3.28284
3.32719
3.34202
3.32733
3.2833
3.21017
3.10747
2.97184
2.79326
2.55347
2.26162
2.03652
