# vtk DataFile Version 3.0
Brusselator Concentration Output
ASCII
DATASET STRUCTURED_POINTS
DIMENSIONS 40 40 1
ORIGIN 0.0 0.0 0.0
SPACING 0.005 0.005 1.0
POINT_DATA 1600
SCALARS C1 double 1
LOOKUP_TABLE default
1
1
1
1
1
1
1
1.00001
1.00002
1.00003
1.00003
1.00003
1.00002
1.00001
1
1
1
1
1
1
1
1
1
1
1
1
1
1
1
1
1
1
1
1
1
1
1
1
1
1
1
1
1
1
1
1.00001
1.00002
1.00004
1.00009
1.00013
1.00015
1.00013
1.00009
1.00004
1.00002
1.00001
1
1
1
1
1
1
1
1
1
1
1
1
1
1
1
1
1
1
1
1
1
1
1
1
1
1
1
1
1.00001
1.00003
1.00009
1.00021
1.00041
1.0006
1.00067
1.0006
1.00041
1.00021
1.00009
1.00003
1.00001
1
1
1
1
1
1
1
1
1
1
1
1
1
1
1
1
1
1
1
1
1
1
1
1
1
1
1.00001
1.00004
1.00013
1.00038
1.00089
1.00163
1.00229
1.00252
1.00229
1.00163
1.00089
1.00038
1.00013
1.00004
1.00001
1
1
1
1
1
1
1
1
1
1
1
1
1
1
1
1
1
1
1
1
1
1
1
1
1.00001
1.00004
1.00015
1.00051
1.00142
1.00313
1.00529
1.00685
1.00724
1.00685
1.00529
1.00313
1.00142
1.00051
1.00015
1.00004
1.00001
1
1
1
1
1
1
1
1
1
1
1
1
1
1
1
1
1
1
1
1
1
1
1.00001
1.00003
1.00013
1.00051
1.00166
1.00431
1.00866
1.01277
1.01383
1.0132
1.01383
1.01277
1.00866
1.00431
1.00166
1.00051
1.00013
1.00003
1.00001
1
1
1
1
1
1
1
1
1
1
1
1
1
1
1
1
1
1
1
1
1
1.00002
1.00009
1.00038
1.00142
1.00431
1.01018
1.01718
1.01798
1.00889
1.00252
1.00889
1.01798
1.01718
1.01018
1.00431
1.00142
1.00038
1.00009
1.00002
1
1
1
1
1
1
1
1
1
1
1
1
1
1
1
1
1
1
1
1
1.00001
1.00004
1.00021
1.00089
1.00313
1.00866
1.01718
1.01893
0.996371
0.955838
0.936837
0.955838
0.996371
1.01893
1.01718
1.00866
1.00313
1.00089
1.00021
1.00004
1.00001
1
1
1
1
1
1
1
1
1
1
1
1
1
1
1
1
1
1
1
1.00002
1.00009
1.00041
1.00163
1.00529
1.01277
1.01798
0.996371
0.926161
0.843173
0.812074
0.843173
0.926161
0.996371
1.01798
1.01277
1.00529
1.00163
1.00041
1.00009
1.00002
1
1
1
1
1
1
1
1
1
1
1
1
1
1
1
1
1
1
1
1.00003
1.00013
1.0006
1.00229
1.00685
1.01383
1.00889
0.955838
0.843173
0.734913
0.69937
0.734913
0.843173
0.955838
1.00889
1.01383
1.00685
1.00229
1.0006
1.00013
1.00002
1
1
1
1
1
1
1
1
1
1
1
1
1
1
1
1
1
1
1
1.00003
1.00015
1.00067
1.00252
1.00724
1.0132
1.00252
0.936837
0.812074
0.69937
0.663077
0.69937
0.812074
0.936837
1.00252
1.0132
1.00724
1.00252
1.00067
1.00015
1.00003
1
1
1
1
1
1
1
1
1
1
1
1
1
1
1
1
1
1
1
1.00003
1.00013
1.0006
1.00229
1.00685
1.01383
1.00889
0.955838
0.843173
0.734913
0.69937
0.734913
0.843173
0.955838
1.00889
1.01383
1.00685
1.00229
1.0006
1.00013
1.00002
1
1
1
1
1
1
1
1
1
1
1
1
1
1
1
1
1
1
1
1.00002
1.00009
1.00041
1.00163
1.00529
1.01277
1.01798
0.996371
0.926161
0.843173
0.812074
0.843173
0.926161
0.996371
1.01798
1.01277
1.00529
1.00163
1.00041
1.00009
1.00002
1
1
1
1
1
1
1
1
1
1
1
1
1
1
1
1
1
1
1
1.00001
1.00004
1.00021
1.00089
1.00313
1.00866
1.01718
1.01893
0.996371
0.955838
0.936837
0.955838
0.996371
1.01893
1.01718
1.00866
1.00313
1.00089
1.00021
1.00004
1.00001
1
1
1
1
1
1
1
1
1
1
1
1
1
1
1
1
1
1
1
1
1.00002
1.00009
1.00038
1.00142
1.00431
1.01018
1.01718
1.01798
1.00889
1.00252
1.00889
1.01798
1.01718
1.01018
1.00431
1.00142
1.00038
1.00009
1.00002
1
1
1
1
1
1
1
1
1
1
1
1
1
1
1
1
1
1
1
1
1
1.00001
1.00003
1.00013
1.00051
1.00166
1.00431
1.00866
1.01277
1.01383
1.0132
1.01383
1.01277
1.00866
1.00431
1.00166
1.00051
1.00013
1.00003
1.00001
1
1
1
1
1
1
1
1
1
1
1
1
1
1
1
1
1
1
1
1
1
1
1.00001
1.00004
1.00015
1.00051
1.00142
1.00313
1.00529
1.00685
1.00724
1.00685
1.00529
1.00313
1.00142
1.00051
1.00015
1.00004
1.00001
1
1
1
1
1
1
1
1
1
1
1
1
1
1
1
1
1
1
1
1
1
1
1
1
1.00001
1.00004
1.00013
1.00038
1.00089
1.00163
1.00229
1.00252
1.00229
1.00163
1.00089
1.00038
1.00013
1.00004
1.00001
1
1
1
1
1
1
1
1
1
1
1
1
1
1
1
1
1
1
1
1
1
1
1
1
1
1
1.00001
1.00003
1.00009
1.00021
1.00041
1.0006
1.00067
1.0006
1.00041
1.00021
1.00009
1.00003
1.00001
1
1
1
1
1
1
1
1
1
1
1
1
1
1
1
1
1
1
1
1
1
1
1
1
1
1
1
1
1.00001
1.00002
1.00004
1.00009
1.00013
1.00015
1.00013
1.00009
1.00004
1.00002
1.00001
1
1
1
1
1
1
1
1
1
1
1
1
0.999999
0.999999
0.999999
0.999999
0.999999
1
1
1
1
1
1
1
1
1
1
1
1
1
1
1.00001
1.00002
1.00002
1.00003
1.00002
1.00002
1.00001
1
1
1
1
1
1
1
1
1
1
1
1
0.999999
0.999998
0.999995
0.999993
0.999992
0.999993
0.999995
0.999998
0.999999
1
1
1
1
1
1
1
1
1
1
1
1
1
1
1
1
1
1
1
1
1
1
1
1
1
1
1
1
1
1
0.999998
0.999995
0.999987
0.999975
0.999962
0.999957
0.999962
0.999975
0.999987
0.999995
0.999998
1
1
1
1
1
1
1
1
1
1
1
1
1
1
1
1
1
1
1
1
1
1
1
1
1
1
1
0.999999
0.999998
0.999991
0.999975
0.999939
0.999883
0.999826
0.999802
0.999826
0.999883
0.999939
0.999975
0.999991
0.999998
0.999999
1
1
1
1
1
1
1
1
1
1
1
1
1
1
1
1
1
1
1
1
1
1
1
1
0.999999
0.999997
0.999989
0.999962
0.99989
0.999743
0.999524
0.999315
0.999234
0.999315
0.999524
0.999743
0.99989
0.999962
0.999989
0.999997
0.999999
1
1
1
1
1
1
1
1
1
1
1
1
1
1
1
1
1
1
1
1
1
1
1
0.999998
0.999989
0.999956
0.999853
0.999592
0.999086
0.998389
0.997797
0.997601
0.997797
0.998389
0.999086
0.999592
0.999853
0.999956
0.999989
0.999997
0.999999
1
1
1
1
1
1
1
1
1
1
1
1
1
1
1
1
1
1
1
1
1
0.999998
0.999991
0.999962
0.999853
0.999525
0.998741
0.997338
0.995658
0.994578
0.994405
0.994578
0.995658
0.997338
0.998741
0.999525
0.999853
0.999962
0.999991
0.999998
1
1
1
1
1
1
1
1
1
1
1
1
1
1
1
1
1
1
1
1
0.999999
0.999995
0.999975
0.99989
0.999592
0.998741
0.99686
0.993948
0.991461
0.991456
0.992599
0.991456
0.991461
0.993948
0.99686
0.998741
0.999592
0.99989
0.999974
0.999994
1
1
1
1
1
1
1
1
1
1
1
1
1
1
1
1
1
1
1
1
0.999998
0.999987
0.999939
0.999743
0.999086
0.997338
0.993948
0.990126
0.990583
0.9991
1.00641
0.9991
0.990583
0.990126
0.993948
0.997338
0.999086
0.999743
0.999938
0.999985
1
1
1
1
1
1
1
1
1
1
1
1
1
1
1
1
1
1
1
0.999999
0.999995
0.999975
0.999883
0.999524
0.998389
0.995658
0.991461
0.990583
1.00496
1.04034
1.06473
1.04034
1.00496
0.990583
0.991461
0.995658
0.998389
0.999524
0.999882
0.999971
1
1
1
1
1
1
1
1
1
1
1
1
1
1
1
1
1
1
1
0.999999
0.999993
0.999962
0.999826
0.999315
0.997797
0.994578
0.991456
0.9991
1.04034
1.12186
1.17112
1.12186
1.04034
0.9991
0.991456
0.994578
0.997797
0.999315
0.999825
0.999955
1
1
1
1
1
1
1
1
1
1
1
1
1
1
1
1
1
1
1
0.999999
0.999992
0.999957
0.999802
0.999234
0.997601
0.994405
0.992599
1.00641
1.06473
1.17112
1.22705
1.17112
1.06473
1.00641
0.992599
0.994405
0.997601
0.999234
0.9998
0.999948
1
1
1
1
1
1
1
1
1
1
1
1
1
1
1
1
1
1
1
0.999999
0.999993
0.999962
0.999826
0.999315
0.997797
0.994578
0.991456
0.9991
1.04034
1.12186
1.17112
1.12186
1.04034
0.9991
0.991456
0.994578
0.997797
0.999315
0.999825
0.999955
1
1
1
1
1
1
1
1
1
1
1
1
1
1
1
1
1
1
1
0.999999
0.999995
0.999975
0.999883
0.999524
0.998389
0.995658
0.991461
0.990583
1.00496
1.04034
1.06473
1.04034
1.00496
0.990583
0.991461
0.995658
0.998389
0.999524
0.999882
0.999971
1
1
1
1
1
1
1
1
1
1
1
1
1
1
1
1
1
1
1
1
0.999998
0.999987
0.999939
0.999743
0.999086
0.997338
0.993948
0.990126
0.990583
0.9991
1.00641
0.9991
0.990583
0.990126
0.993948
0.997338
0.999086
0.999743
0.999938
0.999985
1
1
1
1
1
1
1
1
1
1
1
1
1
1
1
1
1
1
1
1
0.999999
0.999995
0.999975
0.99989
0.999592
0.998741
0.99686
0.993948
0.991461
0.991456
0.992599
0.991456
0.991461
0.993948
0.99686
0.998741
0.999592
0.99989
0.999974
0.999994
1
1
1
1
1
1
1
1
1
1
1
1
1
1
1
1
1
1
1
1
1
0.999998
0.999991
0.999962
0.999853
0.999525
0.998741
0.997338
0.995658
0.994578
0.994405
0.994578
0.995658
0.997338
0.998741
0.999525
0.999853
0.999962
0.999991
0.999998
1
1
1
1
1
1
1
1
1
1
1
1
1
1
1
1
1
1
1
1
1
1
0.999998
0.999989
0.999956
0.999853
0.999592
0.999086
0.998389
0.997797
0.997601
0.997797
0.998389
0.999086
0.999592
0.999853
0.999956
0.999989
0.999997
0.999999
1
1
1
1
1
1
1
1
1
1
1
1
1
1
1
1
1
1
1
1
1
1
0.999999
0.999997
0.999989
0.999962
0.99989
0.999743
0.999524
0.999315
0.999234
0.999315
0.999524
0.999743
0.99989
0.999962
0.999989
0.999997
0.999999
1
1
1
1
1
1
1
1
1
1
1
1
1
1
1
1
1
1
1
1
1
1
1
1
0.999999
0.999997
0.999991
0.999974
0.999938
0.999882
0.999825
0.9998
0.999825
0.999882
0.999938
0.999974
0.999991
0.999997
0.999999
1
1
1
1
1
1
1
1
1
1
1
1
1
1
1
1
1
1
1
1
1
1
1
1
1
1
0.999999
0.999998
0.999994
0.999985
0.999971
0.999955
0.999948
0.999955
0.999971
0.999985
0.999994
0.999998
0.999999
1
1
1
SCALARS C2 double 1
LOOKUP_TABLE default
3
3
3
3
3
3
3
2.99999
2.99999
2.99998
2.99997
2.99998
2.99999
2.99999
3
3
3
3
3
3
3
3
3
3
3
3
3
3
3
3
3
3
3
3
3
3
3
3
3
3
3
3
3
3
3
3
2.99999
2.99996
2.99992
2.99988
2.99986
2.99988
2.99992
2.99996
2.99999
3
3
3
3
3
3
3
3
3
3
3
3
3
3
3
3
3
3
3
3
3
3
3
3
3
3
3
3
3
2.99999
2.99998
2.99993
2.99981
2.99961
2.99939
2.99929
2.99939
2.99961
2.99981
2.99993
2.99998
2.99999
3
3
3
3
3
3
3
3
3
3
3
3
3
3
3
3
3
3
3
3
3
3
3
3
3
3
2.99999
2.99997
2.99989
2.99965
2.99911
2.99822
2.9973
2.99691
2.9973
2.99822
2.99911
2.99965
2.99989
2.99997
2.99999
3
3
3
3
3
3
3
3
3
3
3
3
3
3
3
3
3
3
3
3
3
3
3
3
2.99999
2.99997
2.99987
2.99953
2.99857
2.99647
2.99322
2.99016
2.98906
2.99016
2.99322
2.99647
2.99857
2.99953
2.99987
2.99997
2.99999
3
3
3
3
3
3
3
3
3
3
3
3
3
3
3
3
3
3
3
3
3
3
3
2.99998
2.99989
2.99953
2.99832
2.99505
2.98839
2.97927
2.97238
2.9708
2.97238
2.97927
2.98839
2.99505
2.99832
2.99953
2.99989
2.99998
3
3
3
3
3
3
3
3
3
3
3
3
3
3
3
3
3
3
3
3
3
3
2.99999
2.99993
2.99965
2.99857
2.99505
2.98614
2.97015
2.95341
2.94838
2.95173
2.94838
2.95341
2.97015
2.98614
2.99505
2.99857
2.99965
2.99993
2.99999
3
3
3
3
3
3
3
3
3
3
3
3
3
3
3
3
3
3
3
3
2.99999
2.99996
2.99981
2.99911
2.99647
2.98839
2.97015
2.94489
2.93615
2.9628
2.9878
2.9628
2.93615
2.94489
2.97015
2.98839
2.99647
2.99911
2.99981
2.99996
2.99999
3
3
3
3
3
3
3
3
3
3
3
3
3
3
3
3
3
3
3
2.99999
2.99992
2.99961
2.99822
2.99322
2.97927
2.95341
2.93615
2.97743
3.08159
3.14912
3.08159
2.97743
2.93615
2.95341
2.97927
2.99322
2.99822
2.99961
2.99993
2.99999
3
3
3
3
3
3
3
3
3
3
3
3
3
3
3
3
3
3
3
2.99998
2.99988
2.99939
2.9973
2.99016
2.97238
2.94838
2.9628
3.08159
3.27655
3.39317
3.27655
3.08159
2.9628
2.94838
2.97238
2.99016
2.9973
2.99939
2.99988
2.99998
3
3
3
3
3
3
3
3
3
3
3
3
3
3
3
3
3
3
3
2.99997
2.99986
2.99929
2.99691
2.98906
2.9708
2.95173
2.9878
3.14912
3.39317
3.53503
3.39317
3.14912
2.9878
2.95173
2.9708
2.98906
2.99691
2.99929
2.99986
2.99998
3
3
3
3
3
3
3
3
3
3
3
3
3
3
3
3
3
3
3
2.99998
2.99988
2.99939
2.9973
2.99016
2.97238
2.94838
2.9628
3.08159
3.27655
3.39317
3.27655
3.08159
2.9628
2.94838
2.97238
2.99016
2.9973
2.99939
2.99988
2.99998
3
3
3
3
3
3
3
3
3
3
3
3
3
3
3
3
3
3
3
2.99999
2.99992
2.99961
2.99822
2.99322
2.97927
2.95341
2.93615
2.97743
3.08159
3.14912
3.08159
2.97743
2.93615
2.95341
2.97927
2.99322
2.99822
2.99961
2.99993
2.99999
3
3
3
3
3
3
3
3
3
3
3
3
3
3
3
3
3
3
3
2.99999
2.99996
2.99981
2.99911
2.99647
2.98839
2.97015
2.94489
2.93615
2.9628
2.9878
2.9628
2.93615
2.94489
2.97015
2.98839
2.99647
2.99911
2.99981
2.99996
2.99999
3
3
3
3
3
3
3
3
3
3
3
3
3
3
3
3
3
3
3
3
2.99999
2.99993
2.99965
2.99857
2.99505
2.98614
2.97015
2.95341
2.94838
2.95173
2.94838
2.95341
2.97015
2.98614
2.99505
2.99857
2.99965
2.99993
2.99999
3
3
3
3
3
3
3
3
3
3
3
3
3
3
3
3
3
3
3
3
3
3
2.99998
2.99989
2.99953
2.99832
2.99505
2.98839
2.97927
2.97238
2.9708
2.97238
2.97927
2.98839
2.99505
2.99832
2.99953
2.99989
2.99998
3
3
3
3
3
3
3
3
3
3
3
3
3
3
3
3
3
3
3
3
3
3
3
2.99999
2.99997
2.99987
2.99953
2.99857
2.99647
2.99322
2.99016
2.98906
2.99016
2.99322
2.99647
2.99857
2.99953
2.99987
2.99997
2.99999
3
3
3
3
3
3
3
3
3
3
3
3
3
3
3
3
3
3
3
3
3
3
3
3
2.99999
2.99997
2.99989
2.99965
2.99911
2.99822
2.9973
2.99691
2.9973
2.99822
2.99911
2.99965
2.99989
2.99997
2.99999
3
3
3
3
3
3
3
3
3
3
3
3
3
3
3
3
3
3
3
3
3
3
3
3
3
3
2.99999
2.99998
2.99993
2.99981
2.99961
2.99939
2.99929
2.99939
2.99961
2.99981
2.99993
2.99998
2.99999
3
3
3
3
3
3
3
3
3
3
3
3
3
3
3
3
3
3
3
3
3
3
3
3
3
3
3
3
3
2.99999
2.99996
2.99993
2.99988
2.99986
2.99988
2.99993
2.99996
2.99999
3
3
3
3
3
3
3
3
3
3
3
3
3
3
3
3
3
3
3
3
3
3
3
3
3
3
3
3
3
3
3
3
2.99999
2.99999
2.99998
2.99998
2.99998
2.99999
2.99999
3
3
3
3
3
3
3
3
3
3
3
3
3
3
3
3.00001
3.00001
3.00001
3
3
3
3
3
3
3
3
3
3
3
3
3
3
3
3
3
3
3
3
3
3
3
3
3
3
3
3
3
3
3
3
3
3
3
3.00001
3.00002
3.00003
3.00004
3.00003
3.00002
3.00001
3
3
3
3
3
3
3
3
3
3
3
3
3
3
3
3
3
3
3
3
3
3
3
3
3
3
3
3
3
3
3
3.00001
3.00002
3.00006
3.00011
3.00018
3.00021
3.00018
3.00011
3.00006
3.00002
3.00001
3
3
3
3
3
3
3
3
3
3
3
3
3
3
3
3
3
3
3
3
3
3
3
3
3
3
3
3
3.00001
3.00003
3.0001
3.00026
3.00051
3.00079
3.00091
3.00079
3.00051
3.00026
3.0001
3.00003
3.00001
3
3
3
3
3
3
3
3
3
3
3
3
3
3
3
3
3
3
3
3
3
3
3
3
3
3
3.00001
3.00004
3.00014
3.00041
3.00102
3.00199
3.00298
3.00339
3.00298
3.00199
3.00102
3.00041
3.00014
3.00004
3.00001
3
3
3
3
3
3
3
3
3
3
3
3
3
3
3
3
3
3
3
3
3
3
3
3
3.00001
3.00003
3.00014
3.00048
3.00142
3.00341
3.0064
3.00918
3.01014
3.00918
3.0064
3.00341
3.00142
3.00048
3.00014
3.00003
3.00001
3
3
3
3
3
3
3
3
3
3
3
3
3
3
3
3
3
3
3
3
3
3
3
3.00002
3.0001
3.00041
3.00142
3.00407
3.00931
3.01642
3.02175
3.02273
3.02175
3.01642
3.00931
3.00407
3.00142
3.00041
3.0001
3.00002
3
3
3
3
3
3
3
3
3
3
3
3
3
3
3
3
3
3
3
3
3
3
3.00001
3.00006
3.00026
3.00102
3.00341
3.00931
3.01988
3.0314
3.03469
3.03041
3.03469
3.0314
3.01988
3.00931
3.00341
3.00102
3.00026
3.00006
3.00001
3
3
3
3
3
3
3
3
3
3
3
3
3
3
3
3
3
3
3
3
3
3.00002
3.00011
3.00051
3.00199
3.0064
3.01642
3.0314
3.03873
3.01761
2.9888
3.01761
3.03873
3.0314
3.01642
3.0064
3.00199
3.00051
3.00011
3.00003
3
3
3
3
3
3
3
3
3
3
3
3
3
3
3
3
3
3
3
3
3.00001
3.00003
3.00018
3.00079
3.00298
3.00918
3.02175
3.03469
3.01761
2.92924
2.84283
2.92924
3.01761
3.03469
3.02175
3.00918
3.00298
3.00079
3.00018
3.00004
3
3
3
3
3
3
3
3
3
3
3
3
3
3
3
3
3
3
3
3
3.00001
3.00004
3.00021
3.00091
3.00339
3.01014
3.02273
3.03041
2.9888
2.84283
2.71351
2.84283
2.9888
3.03041
3.02273
3.01014
3.00339
3.00091
3.00021
3.00005
3
3
3
3
3
3
3
3
3
3
3
3
3
3
3
3
3
3
3
3
3.00001
3.00003
3.00018
3.00079
3.00298
3.00918
3.02175
3.03469
3.01761
2.92924
2.84283
2.92924
3.01761
3.03469
3.02175
3.00918
3.00298
3.00079
3.00018
3.00004
3
3
3
3
3
3
3
3
3
3
3
3
3
3
3
3
3
3
3
3
3
3.00002
3.00011
3.00051
3.00199
3.0064
3.01642
3.0314
3.03873
3.01761
2.9888
3.01761
3.03873
3.0314
3.01642
3.0064
3.00199
3.00051
3.00011
3.00003
3
3
3
3
3
3
3
3
3
3
3
3
3
3
3
3
3
3
3
3
3
3.00001
3.00006
3.00026
3.00102
3.00341
3.00931
3.01988
3.0314
3.03469
3.03041
3.03469
3.0314
3.01988
3.00931
3.00341
3.00102
3.00026
3.00006
3.00001
3
3
3
3
3
3
3
3
3
3
3
3
3
3
3
3
3
3
3
3
3
3
3.00002
3.0001
3.00041
3.00142
3.00407
3.00931
3.01642
3.02175
3.02273
3.02175
3.01642
3.00931
3.00407
3.00142
3.00041
3.0001
3.00002
3
3
3
3
3
3
3
3
3
3
3
3
3
3
3
3
3
3
3
3
3
3
3
3.00001
3.00003
3.00014
3.00048
3.00142
3.00341
3.0064
3.00918
3.01014
3.00918
3.0064
3.00341
3.00142
3.00048
3.00014
3.00003
3.00001
3
3
3
3
3
3
3
3
3
3
3
3
3
3
3
3
3
3
3
3
3
3
3
3
3.00001
3.00004
3.00014
3.00041
3.00102
3.00199
3.00298
3.00339
3.00298
3.00199
3.00102
3.00041
3.00014
3.00004
3.00001
3
3
3
3
3
3
3
3
3
3
3
3
3
3
3
3
3
3
3
3
3
3
3
3
3
3
3.00001
3.00003
3.0001
3.00026
3.00051
3.00079
3.00091
3.00079
3.00051
3.00026
3.0001
3.00003
3.00001
3
3
3
3
3
3
3
3
3
3
3
3
3
3
3
3
3
3
3
3
3
3
3
3
3
3
3
3
3.00001
3.00002
3.00006
3.00011
3.00018
3.00021
3.00018
3.00011
3.00006
3.00002
3.00001
3
3
3
3
3
3
3
3
3
3
3
3
3
3
3
3
3
3
3
3
3
3
3
3
3
3
3
3
3
3
3
3.00001
3.00003
3.00004
3.00005
3.00004
3.00003
3.00001
3
3
3
3
3
3
