# vtk DataFile Version 3.0
Brusselator Concentration Output
ASCII
DATASET STRUCTURED_POINTS
DIMENSIONS 40 40 1
ORIGIN 0.0 0.0 0.0
SPACING 0.005 0.005 1.0
POINT_DATA 1600
SCALARS C1 double 1
LOOKUP_TABLE default
0.490791
0.542867
0.707096
1.33603
3.36867
3.82283
3.33423
2.94614
2.68287
2.53144
2.48208
2.53153
2.68327
2.94751
3.33805
3.8304
3.36168
1.36828
0.7434
0.571993
0.498642
0.454413
0.424841
0.406719
0.402245
0.421052
0.486879
0.643322
0.924687
1.24155
1.31751
1.16607
1.04983
1.00552
0.994906
0.995066
0.997205
0.998805
0.99961
0.999904
0.542867
0.668344
1.33985
3.43703
3.29203
2.81884
2.45527
2.18813
2.00603
1.90028
1.86562
1.90035
2.00633
2.18914
2.45807
2.82502
3.30299
3.48437
1.47057
0.72694
0.551097
0.483353
0.444311
0.420737
0.412058
0.425748
0.481859
0.617703
0.864883
1.15751
1.27614
1.17367
1.06237
1.01201
0.997357
0.995772
0.997326
0.998796
0.999602
0.999911
0.707096
1.33985
3.55358
2.9996
2.48035
2.08372
1.79047
1.57971
1.43806
1.35664
1.3301
1.35669
1.43832
1.58057
1.79281
2.08874
2.48761
3.00378
3.6114
1.59116
0.725215
0.548055
0.482189
0.446282
0.428902
0.432747
0.471671
0.573716
0.768634
1.02772
1.20304
1.18051
1.08387
1.02418
1.00214
0.997239
0.997657
0.998862
0.999661
0.999997
1.33603
3.43703
2.9996
2.38283
1.92209
1.58469
1.33872
1.16519
1.05092
0.986379
0.965564
0.986431
1.05114
1.16594
1.34072
1.58878
1.92747
2.38069
2.96221
3.59544
1.37984
0.679433
0.53532
0.477207
0.447222
0.43872
0.458762
0.527106
0.672454
0.897889
1.11463
1.17671
1.10818
1.04026
1.0089
0.999481
0.998314
0.999143
0.999935
1.00031
3.36867
3.29203
2.48035
1.92209
1.52204
1.2331
1.02756
0.886942
0.797184
0.747727
0.731991
0.747771
0.797376
0.887576
1.02921
1.23637
1.52575
1.9179
2.44134
3.12106
3.14417
1.00832
0.610282
0.510366
0.464643
0.444044
0.448529
0.491482
0.599121
0.792407
1.02608
1.15747
1.12816
1.05732
1.01661
1.00215
0.999215
0.999692
1.00055
1.00103
3.82283
2.81884
2.08372
1.58469
1.2331
0.985818
0.81637
0.705126
0.636701
0.600019
0.588517
0.600056
0.636858
0.705639
0.817706
0.988373
1.2355
1.57875
2.04251
2.65852
3.50017
1.80171
0.736685
0.548072
0.482201
0.450539
0.443503
0.46919
0.550082
0.714248
0.946003
1.12385
1.13727
1.07075
1.02281
1.00383
0.999485
0.999991
1.00125
1.00201
3.33423
2.45527
1.79047
1.33872
1.02756
0.81637
0.677835
0.590725
0.539062
0.512079
0.503733
0.51211
0.539189
0.591138
0.678899
0.818339
1.02894
1.33146
1.74833
2.31007
3.05853
3.10972
0.966691
0.594724
0.500658
0.458428
0.442678
0.456518
0.518448
0.657831
0.877249
1.07979
1.13041
1.07407
1.02269
1.001
0.996422
0.99794
1.00038
1.00185
2.94614
2.18813
1.57971
1.16519
0.886942
0.705126
0.590725
0.521522
0.48177
0.461483
0.455286
0.461509
0.481876
0.52186
0.591585
0.706658
0.887604
1.15701
1.5374
2.05595
2.74574
3.61398
1.3202
0.652452
0.519263
0.466614
0.444003
0.449447
0.497836
0.617333
0.820652
1.031
1.10597
1.06071
1.00972
0.987903
0.984826
0.988706
0.993364
0.996158
2.68287
2.00603
1.43806
1.05092
0.797184
0.636701
0.539062
0.48177
0.449692
0.433632
0.428778
0.433655
0.449783
0.482058
0.539784
0.637941
0.797376
1.0422
1.396
1.88415
2.54006
3.47966
1.73661
0.715096
0.535857
0.473596
0.445764
0.44545
0.484754
0.590249
0.779611
0.987522
1.07007
1.02977
0.98029
0.959864
0.958964
0.96546
0.972464
0.976642
2.53144
1.90028
1.35664
0.986379
0.747727
0.600019
0.512079
0.461483
0.433632
0.419874
0.415747
0.419895
0.433715
0.461743
0.512724
0.601093
0.747657
0.977389
1.3149
1.78496
2.42079
3.32956
2.08461
0.766132
0.54738
0.478123
0.447168
0.444002
0.479509
0.580278
0.766197
0.970223
1.04231
0.993678
0.941515
0.920179
0.918587
0.924481
0.931023
0.934939
2.48208
1.86562
1.3301
0.965564
0.731991
0.588517
0.503733
0.455286
0.428778
0.415747
0.411851
0.415768
0.428859
0.455537
0.504353
0.589536
0.731835
0.956485
1.28849
1.75253
2.38165
3.27619
2.21568
0.785246
0.551227
0.479947
0.449129
0.447919
0.489604
0.606393
0.819463
1.03404
1.07417
0.990831
0.920482
0.887603
0.8759
0.872678
0.872049
0.871957
2.53153
1.90035
1.35669
0.986431
0.747771
0.600056
0.51211
0.461509
0.433655
0.419895
0.415768
0.419916
0.433738
0.461769
0.512753
0.601125
0.747688
0.977412
1.31492
1.78501
2.42103
3.33122
2.07513
0.76384
0.547498
0.481206
0.456604
0.469089
0.545032
0.738382
1.06591
1.35246
1.34364
1.15515
1.00534
0.917815
0.865698
0.833213
0.813505
0.803959
2.68327
2.00633
1.43832
1.05114
0.797376
0.636858
0.539189
0.481876
0.449783
0.433715
0.428859
0.433738
0.449874
0.482162
0.539907
0.638084
0.797537
1.04238
1.39624
1.88464
2.54126
3.48411
1.72317
0.71429
0.541375
0.489695
0.48612
0.546425
0.730525
1.09949
1.57124
1.97945
2.12107
1.89106
1.53743
1.23728
1.01475
0.871355
0.793609
0.761
2.94751
2.18914
1.58057
1.16594
0.887576
0.705639
0.591138
0.52186
0.482058
0.461743
0.455537
0.461769
0.482162
0.522193
0.591985
0.707144
0.888197
1.15776
1.5385
2.05799
2.75012
3.61828
1.31544
0.663044
0.545867
0.5258
0.575754
0.729141
0.975811
1.21392
1.49795
1.80032
2.04744
2.22173
2.31637
2.21791
1.79177
1.2787
0.950979
0.819475
3.33805
2.45807
1.79281
1.34072
1.02921
0.817706
0.678899
0.591585
0.539784
0.512724
0.504353
0.512753
0.539907
0.591985
0.679935
0.819636
1.0306
1.33372
1.7518
2.31629
3.07221
3.1041
0.9885
0.638336
0.583192
0.612675
0.69764
0.762293
0.821379
0.960161
1.14234
1.31299
1.44886
1.57365
1.72769
1.94584
2.24214
2.42139
1.92808
1.42084
3.8304
2.82502
2.08874
1.58878
1.23637
0.988373
0.818339
0.706658
0.637941
0.601093
0.589536
0.601125
0.638084
0.707144
0.819636
0.990931
1.23903
1.58397
2.05109
2.67392
3.52844
1.85998
0.810502
0.659756
0.650792
0.655142
0.610921
0.598325
0.64595
0.734707
0.831286
0.91214
0.98119
1.06152
1.17762
1.35234
1.61218
1.98895
2.51476
2.9566
3.36168
3.30299
2.48761
1.92747
1.52575
1.2355
1.02894
0.887604
0.797376
0.747657
0.731835
0.747688
0.797537
0.888197
1.0306
1.23903
1.53057
1.92672
2.45777
3.15642
3.24795
1.14716
0.762013
0.691756
0.626265
0.532546
0.487988
0.491481
0.525856
0.571669
0.612656
0.644721
0.677559
0.725453
0.80232
0.925075
1.11762
1.40592
1.78261
2.11083
1.36828
3.48437
3.00378
2.38069
1.9179
1.57875
1.33146
1.15701
1.0422
0.977389
0.956485
0.977412
1.04238
1.15776
1.33372
1.58397
1.92672
2.38756
2.99026
3.66351
1.6617
0.892364
0.73668
0.615374
0.496602
0.437757
0.422923
0.431909
0.45131
0.470587
0.484412
0.495355
0.51029
0.536194
0.580823
0.65624
0.781592
0.977339
1.2324
1.44641
0.7434
1.47057
3.6114
2.96221
2.44134
2.04251
1.74833
1.5374
1.396
1.3149
1.28849
1.31492
1.39624
1.5385
1.7518
2.05109
2.45777
2.99026
3.65241
2.09466
1.02195
0.780008
0.616373
0.4821
0.416437
0.394069
0.392572
0.400493
0.410321
0.417245
0.420903
0.424263
0.430692
0.443303
0.466397
0.507665
0.580051
0.697713
0.852453
0.979622
0.571993
0.72694
1.59116
3.59544
3.12106
2.65852
2.31007
2.05595
1.88415
1.78496
1.75253
1.78501
1.88464
2.05799
2.31629
2.67392
3.15642
3.66351
2.09466
1.07993
0.808267
0.621319
0.477533
0.408222
0.382682
0.377095
0.380632
0.387183
0.392465
0.394958
0.395745
0.396535
0.398714
0.403758
0.414136
0.434409
0.472119
0.535053
0.617641
0.684261
0.498642
0.551097
0.725215
1.37984
3.14417
3.50017
3.05853
2.74574
2.54006
2.42079
2.38165
2.42103
2.54126
2.75012
3.07221
3.52844
3.24795
1.6617
1.02195
0.808267
0.623809
0.476675
0.405556
0.378692
0.371657
0.373886
0.37995
0.385879
0.389629
0.391286
0.391678
0.391468
0.391219
0.391793
0.394746
0.402781
0.419939
0.449651
0.488004
0.518004
0.454413
0.483353
0.548055
0.679433
1.00832
1.80171
3.10972
3.61398
3.47966
3.32956
3.27619
3.33122
3.48411
3.61828
3.1041
1.85998
1.14716
0.892364
0.780008
0.621319
0.476675
0.405002
0.377583
0.37013
0.372276
0.378998
0.386543
0.3926
0.396664
0.398962
0.399666
0.398886
0.396923
0.394455
0.392642
0.393211
0.398277
0.408988
0.422868
0.433353
0.424841
0.444311
0.482189
0.53532
0.610282
0.736685
0.966691
1.3202
1.73661
2.08461
2.21568
2.07513
1.72317
1.31544
0.9885
0.810502
0.762013
0.73668
0.616373
0.477533
0.405556
0.377583
0.369871
0.372193
0.379813
0.389194
0.397948
0.405227
0.410809
0.41439
0.415608
0.414319
0.410791
0.405741
0.400251
0.395621
0.393009
0.39259
0.393162
0.393703
0.406719
0.420737
0.446282
0.477207
0.510366
0.548072
0.594724
0.652452
0.715096
0.766132
0.785246
0.76384
0.71429
0.663044
0.638336
0.659756
0.691756
0.615374
0.4821
0.408222
0.378692
0.37013
0.372193
0.380294
0.391129
0.40239
0.413117
0.422825
0.430802
0.436121
0.437986
0.43609
0.430786
0.423007
0.414006
0.40501
0.396774
0.389156
0.382002
0.377252
0.402245
0.412058
0.428902
0.447222
0.464643
0.482201
0.500658
0.519263
0.535857
0.54738
0.551227
0.547498
0.541375
0.545867
0.583192
0.650792
0.626265
0.496602
0.416437
0.382682
0.371657
0.372276
0.379813
0.391129
0.404078
0.417763
0.43168
0.444952
0.456208
0.463852
0.466568
0.463852
0.456245
0.445121
0.43217
0.418812
0.405709
0.392697
0.380426
0.372496
0.421052
0.425748
0.432747
0.43872
0.444044
0.450539
0.458428
0.466614
0.473596
0.478123
0.479947
0.481206
0.489695
0.5258
0.612675
0.655142
0.532546
0.437757
0.394069
0.377095
0.373886
0.378998
0.389194
0.40239
0.417763
0.434941
0.453216
0.471217
0.486868
0.497698
0.501594
0.497719
0.486953
0.471452
0.453672
0.435467
0.417579
0.399912
0.383703
0.373528
0.486879
0.481859
0.471671
0.458762
0.448529
0.443503
0.442678
0.444003
0.445764
0.447168
0.449129
0.456604
0.48612
0.575754
0.69764
0.610921
0.487988
0.422923
0.392572
0.380632
0.37995
0.386543
0.397948
0.413117
0.43168
0.453216
0.476833
0.500784
0.522204
0.537377
0.54291
0.537414
0.522333
0.501097
0.477359
0.453619
0.430766
0.408745
0.389167
0.377193
0.643322
0.617703
0.573716
0.527106
0.491482
0.46919
0.456518
0.449447
0.44545
0.444002
0.447919
0.469089
0.546425
0.729141
0.762293
0.598325
0.491481
0.431909
0.400493
0.387183
0.385879
0.3926
0.405227
0.422825
0.444952
0.471217
0.500784
0.531695
0.560213
0.580943
0.588617
0.580995
0.560383
0.532087
0.501401
0.471618
0.44374
0.417647
0.395119
0.381638
0.924687
0.864883
0.768634
0.672454
0.599121
0.550082
0.518448
0.497836
0.484754
0.479509
0.489604
0.545032
0.730525
0.975811
0.821379
0.64595
0.525856
0.45131
0.410321
0.392465
0.389629
0.396664
0.410809
0.430802
0.456208
0.486868
0.522204
0.560213
0.596318
0.623212
0.633308
0.623277
0.596527
0.560678
0.522906
0.48729
0.454844
0.425264
0.400325
0.385649
1.24155
1.15751
1.02772
0.897889
0.792407
0.714248
0.657831
0.617333
0.590249
0.580278
0.606393
0.738382
1.09949
1.21392
0.960161
0.734707
0.571669
0.470587
0.417245
0.394958
0.391286
0.398962
0.41439
0.436121
0.463852
0.497698
0.537377
0.580943
0.623212
0.655263
0.667418
0.655339
0.623452
0.581463
0.53814
0.498138
0.462402
0.43041
0.403857
0.388397
1.31751
1.27614
1.20304
1.11463
1.02608
0.946003
0.877249
0.820652
0.779611
0.766197
0.819463
1.06591
1.57124
1.49795
1.14234
0.831286
0.612656
0.484412
0.420903
0.395745
0.391678
0.399666
0.415608
0.437986
0.466568
0.501594
0.54291
0.588617
0.633308
0.667418
0.680402
0.667498
0.633559
0.589157
0.543696
0.502042
0.465095
0.432233
0.405108
0.389373
1.16607
1.17367
1.18051
1.17671
1.15747
1.12385
1.07979
1.031
0.987522
0.970223
1.03404
1.35246
1.97945
1.80032
1.31299
0.91214
0.644721
0.495355
0.424263
0.396535
0.391468
0.398886
0.414319
0.43609
0.463852
0.497719
0.537414
0.580995
0.623277
0.655339
0.667498
0.655415
0.623517
0.581515
0.53818
0.49817
0.462427
0.430428
0.40387
0.388408
1.04983
1.06237
1.08387
1.10818
1.12816
1.13727
1.13041
1.10597
1.07007
1.04231
1.07417
1.34364
2.12107
2.04744
1.44886
0.98119
0.677559
0.51029
0.430692
0.398714
0.391219
0.396923
0.410791
0.430786
0.456245
0.486953
0.522333
0.560383
0.596527
0.623452
0.633559
0.623517
0.596737
0.560852
0.523047
0.487405
0.454938
0.425338
0.400381
0.385696
1.00552
1.01201
1.02418
1.04026
1.05732
1.07075
1.07407
1.06071
1.02977
0.993678
0.990831
1.15515
1.89106
2.22173
1.57365
1.06152
0.725453
0.536194
0.443303
0.403758
0.391793
0.394455
0.405741
0.423007
0.445121
0.471452
0.501097
0.532087
0.560678
0.581463
0.589157
0.581515
0.560852
0.532493
0.501746
0.471914
0.443994
0.41786
0.395294
0.381791
0.994906
0.997357
1.00214
1.0089
1.01661
1.02281
1.02269
1.00972
0.98029
0.941515
0.920482
1.00534
1.53743
2.31637
1.72769
1.17762
0.80232
0.580823
0.466397
0.414136
0.394746
0.392642
0.400251
0.414006
0.43217
0.453672
0.477359
0.501401
0.522906
0.53814
0.543696
0.53818
0.523047
0.501746
0.477949
0.454162
0.43127
0.409209
0.389595
0.377602
0.995066
0.995772
0.997239
0.999481
1.00215
1.00383
1.001
0.987903
0.959864
0.920179
0.887603
0.917815
1.23728
2.21791
1.94584
1.35234
0.925075
0.65624
0.507665
0.434409
0.402781
0.393211
0.395621
0.40501
0.418812
0.435467
0.453619
0.471618
0.48729
0.498138
0.502042
0.49817
0.487405
0.471914
0.454162
0.436007
0.418188
0.40061
0.384502
0.374402
0.997205
0.997326
0.997657
0.998314
0.999215
0.999485
0.996422
0.984826
0.958964
0.918587
0.8759
0.865698
1.01475
1.79177
2.24214
1.61218
1.11762
0.781592
0.580051
0.472119
0.419939
0.398277
0.393009
0.396774
0.405709
0.417579
0.430766
0.44374
0.454844
0.462402
0.465095
0.462427
0.454938
0.443994
0.43127
0.418188
0.405442
0.392908
0.381196
0.373669
0.998805
0.998796
0.998862
0.999143
0.999692
0.999991
0.99794
0.988706
0.96546
0.924481
0.872678
0.833213
0.871355
1.2787
2.42139
1.98895
1.40592
0.977339
0.697713
0.535053
0.449651
0.408988
0.39259
0.389156
0.392697
0.399912
0.408745
0.417647
0.425264
0.43041
0.432233
0.430428
0.425338
0.41786
0.409209
0.40061
0.392908
0.386121
0.380059
0.376137
0.99961
0.999602
0.999661
0.999935
1.00055
1.00125
1.00038
0.993364
0.972464
0.931023
0.872049
0.813505
0.793609
0.950979
1.92808
2.51476
1.78261
1.2324
0.852453
0.617641
0.488004
0.422868
0.393162
0.382002
0.380426
0.383703
0.389167
0.395119
0.400325
0.403857
0.405108
0.40387
0.400381
0.395294
0.389595
0.384502
0.381196
0.380059
0.38012
0.380365
0.999904
0.999911
0.999997
1.00031
1.00103
1.00201
1.00185
0.996158
0.976642
0.934939
0.871957
0.803959
0.761
0.819475
1.42084
2.9566
2.11083
1.44641
0.979622
0.684261
0.518004
0.433353
0.393703
0.377252
0.372496
0.373528
0.377193
0.381638
0.385649
0.388397
0.389373
0.388408
0.385696
0.381791
0.377602
0.374402
0.373669
0.376137
0.380365
0.383606
SCALARS C2 double 1
LOOKUP_TABLE default
4.50114
4.59094
4.63709
4.25661
2.0534
0.847002
0.853598
0.935009
1.00698
1.05425
1.07063
1.05422
1.00688
0.934694
0.852987
0.848137
2.06573
4.22702
4.62921
4.62552
4.52275
4.36984
4.1812
3.96348
3.71936
3.44733
3.14045
2.7947
2.45759
2.30877
2.52767
2.83917
2.98163
3.01625
3.01586
3.00911
3.00399
3.00136
3.00031
3
4.59094
4.62441
4.24278
1.70204
0.920017
0.991851
1.10258
1.20547
1.28694
1.33899
1.35687
1.33896
1.28682
1.20508
1.10163
0.990115
0.917321
1.6295
4.12482
4.6238
4.5975
4.46885
4.29127
4.07859
3.83634
3.56508
3.26044
2.9202
2.58388
2.39845
2.5287
2.80389
2.96054
3.00831
3.0137
3.00886
3.00415
3.0015
3.00037
3.00001
4.63709
4.24278
1.41958
0.961215
1.09786
1.25494
1.40382
1.53204
1.6303
1.69186
1.71279
1.69183
1.63015
1.53155
1.40258
1.25261
1.09479
0.957428
1.24308
4.00822
4.62392
4.59016
4.44685
4.25186
4.01959
3.75493
3.45734
3.12624
2.787
2.54173
2.54115
2.74728
2.92158
2.99276
3.0092
3.00812
3.00428
3.00163
3.00038
2.99995
4.25661
1.70204
0.961215
1.1325
1.33138
1.52551
1.70153
1.84869
1.95869
2.02638
2.04919
2.02636
1.95854
1.84814
1.70009
1.5228
1.32815
1.13165
0.965019
1.31464
4.19077
4.63249
4.56682
4.40403
4.19069
3.93952
3.65409
3.33463
2.99335
2.69453
2.57277
2.68991
2.8713
2.97058
3.00214
3.00649
3.00401
3.00145
3.00006
2.99954
2.0534
0.920017
1.09786
1.33138
1.56624
1.78601
1.97865
2.13482
2.24873
2.31769
2.34075
2.31767
2.24859
2.13427
1.97715
1.78312
1.56297
1.33195
1.10898
0.937889
2.13039
4.47467
4.62655
4.51059
4.31953
4.0829
3.80952
3.50119
3.16273
2.83245
2.6225
2.64878
2.81897
2.94411
2.99284
3.00376
3.00299
3.00054
2.99897
2.99832
0.847002
0.991851
1.25494
1.52551
1.78601
2.02135
2.22086
2.37829
2.49107
2.55867
2.58118
2.55866
2.49095
2.37778
2.21941
2.01847
1.78283
1.52711
1.27068
1.03809
0.966437
3.74491
4.61717
4.57999
4.41354
4.19015
3.92636
3.62674
3.29371
2.95007
2.68454
2.63248
2.77551
2.91842
2.9834
3.00088
3.00157
2.99887
2.99676
2.9958
0.853598
1.10258
1.40382
1.70153
1.97865
2.22086
2.42063
2.57553
2.68555
2.7513
2.77318
2.75129
2.68545
2.57507
2.41926
2.21806
1.97563
1.70404
1.42325
1.15684
0.942114
2.142
4.49813
4.61927
4.48222
4.27134
4.01524
3.72227
3.39538
3.04943
2.75372
2.6438
2.7533
2.90331
2.9801
3.00205
3.00259
2.99819
2.99441
2.99249
0.935009
1.20547
1.53204
1.84869
2.13482
2.37829
2.57553
2.72723
2.83483
2.89921
2.92066
2.89921
2.83475
2.72683
2.57424
2.37559
2.13194
1.85189
1.55439
1.26449
1.01123
1.14918
4.2104
4.63142
4.53055
4.33171
4.08217
3.79492
3.47514
3.13438
2.82788
2.68386
2.7656
2.9142
2.99546
3.01721
3.01403
3.00486
2.997
2.99276
1.00698
1.28694
1.6303
1.95869
2.24873
2.49107
2.68555
2.83483
2.94091
3.00453
3.02576
3.00453
2.94084
2.83446
2.68433
2.48845
2.24595
1.96235
1.65468
1.34895
1.07391
0.946161
3.77891
4.62218
4.56176
4.37366
4.1299
3.84884
3.5386
3.20919
2.90627
2.75183
2.82228
2.96737
3.04565
3.06139
3.05005
3.0323
3.01731
3.00902
1.05425
1.33899
1.69186
2.02638
2.31769
2.55867
2.7513
2.89921
3.00453
3.06782
3.08897
3.06783
3.00447
2.89887
2.75012
2.5561
2.31496
2.03028
1.71742
1.40261
1.11524
0.919708
3.37799
4.60513
4.57899
4.39881
4.16061
3.88794
3.59079
3.27599
2.98291
2.83726
2.91991
3.06777
3.13998
3.14681
3.1256
3.09812
3.07518
3.0624
1.07063
1.35687
1.71279
2.04919
2.34075
2.58118
2.77318
2.92066
3.02576
3.08897
3.11009
3.08897
3.02571
2.92032
2.77201
2.57862
2.33803
2.05317
1.73875
1.421
1.1296
0.919033
3.22076
4.59771
4.58492
4.40887
4.17743
3.91681
3.63372
3.32404
3.02365
2.89135
3.01697
3.18888
3.26433
3.26894
3.24441
3.21343
3.1876
3.17322
1.05422
1.33896
1.69183
2.02636
2.31767
2.55866
2.75129
2.89921
3.00453
3.06783
3.08897
3.06783
3.00447
2.89886
2.75011
2.55609
2.31495
2.03028
1.71743
1.40261
1.1152
0.919947
3.3903
4.60764
4.58069
4.40618
4.18434
3.93609
3.64706
3.27213
2.85714
2.68903
2.91092
3.19583
3.33756
3.38133
3.38279
3.36919
3.35422
3.34518
1.00688
1.28682
1.63015
1.95854
2.24859
2.49095
2.68545
2.83475
2.94084
3.00447
3.02571
3.00447
2.94078
2.83439
2.68424
2.48835
2.24584
1.96225
1.65458
1.34879
1.07361
0.947728
3.79656
4.62452
4.56554
4.39259
4.17831
3.90886
3.4745
2.76678
2.09562
1.81273
1.97303
2.45533
2.92256
3.23868
3.42241
3.51105
3.54552
3.556
0.934694
1.20508
1.53155
1.84814
2.13427
2.37778
2.57507
2.72683
2.83446
2.89887
2.92032
2.89886
2.83439
2.72642
2.5738
2.37512
2.13146
1.85139
1.55383
1.26373
1.01013
1.15916
4.2184
4.62837
4.53567
4.35761
4.09909
3.60892
2.7643
2.06383
1.685
1.47714
1.38809
1.40011
1.54435
1.95252
2.67916
3.32817
3.63944
3.73716
0.852987
1.10163
1.40258
1.70009
1.97715
2.21941
2.41926
2.57424
2.68433
2.75012
2.77201
2.75011
2.68424
2.5738
2.41793
2.21667
1.9742
1.70253
1.42152
1.15467
0.939351
2.1625
4.48036
4.60085
4.47059
4.22241
3.71955
2.94415
2.39218
2.07552
1.8659
1.73165
1.64722
1.57736
1.50056
1.42265
1.40812
1.75098
2.77025
3.44326
0.848137
0.990115
1.25261
1.5228
1.78312
2.01847
2.21806
2.37559
2.48845
2.5561
2.57862
2.55609
2.48835
2.37512
2.21667
2.01566
1.7799
1.5239
1.26691
1.03331
0.962528
3.68451
4.55759
4.51606
4.29387
3.83801
3.18839
2.73296
2.46968
2.29637
2.1847
2.11519
2.05604
1.97993
1.87387
1.73369
1.56131
1.37379
1.23509
1.28173
2.06573
0.917321
1.09479
1.32815
1.56297
1.78283
1.97563
2.13194
2.24595
2.31496
2.33803
2.31495
2.24584
2.13146
1.9742
1.7799
1.55922
1.32727
1.10279
0.927869
2.00947
4.33385
4.49642
4.32816
3.95515
3.41117
3.0111
2.78462
2.6497
2.57596
2.54127
2.51498
2.47121
2.39731
2.28758
2.13563
1.93411
1.68619
1.42708
1.24465
4.22702
1.6295
0.957428
1.13165
1.33195
1.52711
1.70404
1.85189
1.96235
2.03028
2.05317
2.03028
1.96225
1.85139
1.70253
1.5239
1.32727
1.12776
0.95431
1.19679
3.87852
4.4221
4.33546
4.05328
3.59029
3.22645
3.02458
2.9192
2.87993
2.88056
2.88812
2.87752
2.83873
2.76935
2.66666
2.52321
2.32645
2.071
1.79388
1.60074
4.62921
4.12482
1.24308
0.965019
1.10898
1.27068
1.42325
1.55439
1.65468
1.71742
1.73875
1.71743
1.65458
1.55383
1.42152
1.26691
1.10279
0.95431
1.06627
3.43603
4.32863
4.32631
4.12319
3.72278
3.38752
3.20551
3.12389
3.11356
3.14549
3.18339
3.20158
3.19179
3.15377
3.08805
2.99303
2.86226
2.68283
2.44456
2.1789
1.99137
4.62552
4.6238
4.00822
1.31464
0.937889
1.03809
1.15684
1.26449
1.34895
1.40261
1.421
1.40261
1.34879
1.26373
1.15467
1.03331
0.927869
1.19679
3.43603
4.28378
4.31536
4.1636
3.80961
3.4998
3.33686
3.27686
3.29235
3.35269
3.41854
3.46318
3.47939
3.46783
3.42986
3.36614
3.27578
3.15404
2.99007
2.77328
2.52981
2.3571
4.52275
4.5975
4.62392
4.19077
2.13039
0.966437
0.942114
1.01123
1.07391
1.11524
1.1296
1.1152
1.07361
1.01013
0.939351
0.962528
2.00947
3.87852
4.32863
4.31536
4.17663
3.85244
3.56618
3.42296
3.38408
3.42373
3.51059
3.60291
3.67297
3.71435
3.72816
3.71571
3.67776
3.61483
3.52656
3.40967
3.25544
3.05431
2.82905
2.66942
4.36984
4.46885
4.59016
4.63249
4.47467
3.74491
2.142
1.14918
0.946161
0.919708
0.919033
0.919947
0.947728
1.15916
2.1625
3.68451
4.33385
4.4221
4.32631
4.1636
3.85244
3.58815
3.46565
3.44787
3.51057
3.62244
3.73995
3.83461
3.90069
3.93963
3.95254
3.93989
3.90202
3.83938
3.75193
3.63734
3.48848
3.29663
3.0821
2.92985
4.1812
4.29127
4.44685
4.56682
4.62655
4.61717
4.49813
4.2104
3.77891
3.37799
3.22076
3.3903
3.79656
4.2184
4.48036
4.55759
4.49642
4.33546
4.12319
3.80961
3.56618
3.46565
3.46907
3.55387
3.68933
3.83086
3.94928
4.0393
4.1027
4.14057
4.15319
4.14065
4.10311
4.0409
3.95406
3.84079
3.69497
3.50836
3.2992
3.14998
3.96348
4.07859
4.25186
4.40403
4.51059
4.57999
4.61927
4.63142
4.62218
4.60513
4.59771
4.60764
4.62452
4.62837
4.60085
4.51606
4.32816
4.05328
3.72278
3.4998
3.42296
3.44787
3.55387
3.7116
3.87619
4.01765
4.13077
4.21752
4.27911
4.31592
4.32817
4.31599
4.27939
4.21837
4.13273
4.02087
3.8773
3.69395
3.48734
3.33888
3.71936
3.83634
4.01959
4.19069
4.31953
4.41354
4.48222
4.53055
4.56176
4.57899
4.58492
4.58069
4.56554
4.53567
4.47059
4.29387
3.95515
3.59029
3.38752
3.33686
3.38408
3.51057
3.68933
3.87619
4.04035
4.17608
4.28525
4.36902
4.42795
4.46277
4.47428
4.46284
4.4282
4.36971
4.28658
4.17701
4.03587
3.85515
3.64989
3.50127
3.44733
3.56508
3.75493
3.93952
4.0829
4.19015
4.27134
4.33171
4.37366
4.39881
4.40887
4.40618
4.39259
4.35761
4.22241
3.83801
3.41117
3.22645
3.20551
3.27686
3.42373
3.62244
3.83086
4.01765
4.17608
4.30756
4.41283
4.49216
4.54653
4.57781
4.58796
4.57786
4.54672
4.49274
4.41399
4.30817
4.17027
3.99228
3.78804
3.63901
3.14045
3.26044
3.45734
3.65409
3.80952
3.92636
4.01524
4.08217
4.1299
4.16061
4.17743
4.18434
4.17831
4.09909
3.71955
3.18839
3.0111
3.02458
3.12389
3.29235
3.51059
3.73995
3.94928
4.13077
4.28525
4.41283
4.51285
4.58552
4.63285
4.65857
4.66658
4.6586
4.63297
4.58596
4.51385
4.41348
4.27986
4.10502
3.90188
3.75249
2.7947
2.9202
3.12624
3.33463
3.50119
3.62674
3.72227
3.79492
3.84884
3.88794
3.91681
3.93609
3.90886
3.60892
2.94415
2.73296
2.78462
2.9192
3.11356
3.35269
3.60291
3.83461
4.0393
4.21752
4.36902
4.49216
4.58552
4.64946
4.68732
4.70538
4.7104
4.70538
4.68737
4.64974
4.58633
4.49283
4.3643
4.19294
3.99106
3.84145
2.45759
2.58388
2.787
2.99335
3.16273
3.29371
3.39538
3.47514
3.5386
3.59079
3.63372
3.64706
3.4745
2.7643
2.39218
2.46968
2.6497
2.87993
3.14549
3.41854
3.67297
3.90069
4.1027
4.27911
4.42795
4.54653
4.63285
4.68732
4.71457
4.72382
4.72535
4.7238
4.71455
4.68745
4.63347
4.54718
4.42376
4.25575
4.05511
3.90542
2.30877
2.39845
2.54173
2.69453
2.83245
2.95007
3.04943
3.13438
3.20919
3.27599
3.32404
3.27213
2.76678
2.06383
2.07552
2.29637
2.57596
2.88056
3.18339
3.46318
3.71435
3.93963
4.14057
4.31592
4.46277
4.57781
4.65857
4.70538
4.72382
4.72558
4.7241
4.72554
4.72374
4.7054
4.65906
4.57844
4.45892
4.29338
4.09368
3.94399
2.52767
2.5287
2.54115
2.57277
2.6225
2.68454
2.75372
2.82788
2.90627
2.98291
3.02365
2.85714
2.09562
1.685
1.8659
2.1847
2.54127
2.88812
3.20158
3.47939
3.72816
3.95254
4.15319
4.32817
4.47428
4.58796
4.66658
4.7104
4.72535
4.7241
4.7214
4.72406
4.72525
4.71039
4.66702
4.58859
4.47054
4.30592
4.10659
3.9569
2.83917
2.80389
2.74728
2.68991
2.64878
2.63248
2.6438
2.68386
2.75183
2.83726
2.89135
2.68903
1.81273
1.47714
1.73165
2.11519
2.51498
2.87752
3.19179
3.46783
3.71571
3.93989
4.14065
4.31599
4.46284
4.57786
4.6586
4.70538
4.7238
4.72554
4.72406
4.72551
4.72372
4.70541
4.65908
4.57849
4.459
4.29349
4.09381
3.94412
2.98163
2.96054
2.92158
2.8713
2.81897
2.77551
2.7533
2.7656
2.82228
2.91991
3.01697
2.91092
1.97303
1.38809
1.64722
2.05604
2.47121
2.83873
3.15377
3.42986
3.67776
3.90202
4.10311
4.27939
4.4282
4.54672
4.63297
4.68737
4.71455
4.72374
4.72525
4.72372
4.71452
4.6875
4.63359
4.54738
4.42405
4.25611
4.05551
3.90583
3.01625
3.00831
2.99276
2.97058
2.94411
2.91842
2.90331
2.9142
2.96737
3.06777
3.18888
3.19583
2.45533
1.40011
1.57736
1.97993
2.39731
2.76935
3.08805
3.36614
3.61483
3.83938
4.0409
4.21837
4.36971
4.49274
4.58596
4.64974
4.68745
4.7054
4.71039
4.70541
4.6875
4.65002
4.58676
4.49343
4.36506
4.19385
3.99204
3.84244
3.01586
3.0137
3.0092
3.00214
2.99284
2.9834
2.9801
2.99546
3.04565
3.13998
3.26433
3.33756
2.92256
1.54435
1.50056
1.87387
2.28758
2.66666
2.99303
3.27578
3.52656
3.75193
3.95406
4.13273
4.28658
4.41399
4.51385
4.58633
4.63347
4.65906
4.66702
4.65908
4.63359
4.58676
4.51486
4.4147
4.28125
4.10653
3.90349
3.75419
3.00911
3.00886
3.00812
3.00649
3.00376
3.00088
3.00205
3.01721
3.06139
3.14681
3.26894
3.38133
3.23868
1.95252
1.42265
1.73369
2.13563
2.52321
2.86226
3.15404
3.40967
3.63734
3.84079
4.02087
4.17701
4.30817
4.41348
4.49283
4.54718
4.57844
4.58859
4.57849
4.54738
4.49343
4.4147
4.30884
4.17078
3.99259
3.78851
3.63988
3.00399
3.00415
3.00428
3.00401
3.00299
3.00157
3.00259
3.01403
3.05005
3.1256
3.24441
3.38279
3.42241
2.67916
1.40812
1.56131
1.93411
2.32645
2.68283
2.99007
3.25544
3.48848
3.69497
3.8773
4.03587
4.17027
4.27986
4.3643
4.42376
4.45892
4.47054
4.459
4.42405
4.36506
4.28125
4.17078
4.0285
3.84685
3.64188
3.4943
3.00136
3.0015
3.00163
3.00145
3.00054
2.99887
2.99819
3.00486
3.0323
3.09812
3.21343
3.36919
3.51105
3.32817
1.75098
1.37379
1.68619
2.071
2.44456
2.77328
3.05431
3.29663
3.50836
3.69395
3.85515
3.99228
4.10502
4.19294
4.25575
4.29338
4.30592
4.29349
4.25611
4.19385
4.10653
3.99259
3.84685
3.66198
3.45528
3.30734
3.00031
3.00037
3.00038
3.00006
2.99897
2.99676
2.99441
2.997
3.01731
3.07518
3.1876
3.35422
3.54552
3.63944
2.77025
1.23509
1.42708
1.79388
2.1789
2.52981
2.82905
3.0821
3.2992
3.48734
3.64989
3.78804
3.90188
3.99106
4.05511
4.09368
4.10659
4.09381
4.05551
3.99204
3.90349
3.78851
3.64188
3.45528
3.24401
3.09055
3
3.00001
2.99995
2.99954
2.99832
2.9958
2.99249
2.99276
3.00902
3.0624
3.17322
3.34518
3.556
3.73716
3.44326
1.28173
1.24465
1.60074
1.99137
2.3571
2.66942
2.92985
3.14998
3.33888
3.50127
3.63901
3.75249
3.84145
3.90542
3.94399
3.9569
3.94412
3.90583
3.84244
3.75419
3.63988
3.4943
3.30734
3.09055
2.9309
