# vtk DataFile Version 3.0
Brusselator Concentration Output
ASCII
DATASET STRUCTURED_POINTS
DIMENSIONS 40 40 1
ORIGIN 0.0 0.0 0.0
SPACING 0.005 0.005 1.0
POINT_DATA 1600
SCALARS C1 double 1
LOOKUP_TABLE default
0.937007
0.789809
0.622385
0.5056
0.439307
0.404004
0.385484
0.375914
0.371153
0.36901
0.368408
0.369024
0.371189
0.375979
0.385529
0.403703
0.437323
0.49815
0.605203
0.7855
1.0702
1.48883
2.07442
2.87024
3.65021
1.0382
0.566068
0.484401
0.461357
0.472277
0.5302
0.656914
0.846312
1.01928
1.08554
1.06559
1.03106
1.01049
1.00208
0.999551
0.789809
0.685309
0.563163
0.475797
0.425557
0.398959
0.385373
0.378713
0.375673
0.374451
0.37414
0.374463
0.375702
0.37876
0.385379
0.398624
0.423795
0.469943
0.551876
0.691477
0.915715
1.2507
1.71956
2.35068
3.21547
1.98085
0.697771
0.514676
0.476778
0.481649
0.532729
0.648081
0.823107
0.990738
1.06793
1.06082
1.0314
1.01141
1.00256
0.999732
0.622385
0.563163
0.491139
0.438053
0.407599
0.392335
0.38554
0.38311
0.382688
0.382916
0.383071
0.382925
0.382707
0.383129
0.385494
0.391968
0.406151
0.434137
0.486188
0.57873
0.735137
0.982607
1.34621
1.84985
2.51536
3.41515
1.20795
0.598786
0.507936
0.498026
0.535355
0.630441
0.782
0.941605
1.03627
1.05075
1.03076
1.01215
1.00267
0.999334
0.5056
0.475797
0.438053
0.409754
0.394406
0.388297
0.387349
0.388808
0.39094
0.392644
0.393285
0.392651
0.390951
0.388806
0.387264
0.387923
0.393261
0.40737
0.437283
0.495095
0.600378
0.780624
1.06639
1.4847
2.06473
2.85065
2.57701
0.808633
0.556074
0.517183
0.535599
0.60697
0.733351
0.884234
0.996398
1.03498
1.02696
1.01061
1.00051
0.996569
0.439307
0.425557
0.407599
0.394406
0.388745
0.388862
0.392191
0.39673
0.40103
0.404052
0.405137
0.404057
0.401035
0.396713
0.392082
0.388495
0.38784
0.39305
0.409131
0.445032
0.516466
0.648554
0.874366
1.22647
1.73264
2.41977
3.38941
1.26433
0.628609
0.536733
0.534211
0.584062
0.688714
0.830727
0.955649
1.01502
1.01855
1.00445
0.993482
0.988731
0.404004
0.398959
0.392335
0.388297
0.388862
0.393283
0.399846
0.406931
0.41316
0.417415
0.418927
0.417418
0.413161
0.406902
0.399721
0.392925
0.388126
0.387601
0.395095
0.41738
0.466927
0.565435
0.745365
1.04371
1.4915
2.11877
3.0237
2.05486
0.740625
0.558436
0.534686
0.568158
0.657154
0.792003
0.924667
0.997972
1.00847
0.993889
0.980345
0.973912
0.385484
0.385373
0.38554
0.387349
0.392191
0.399846
0.409084
0.418458
0.426538
0.432026
0.433973
0.432029
0.426536
0.418422
0.408944
0.39949
0.391569
0.387078
0.388971
0.402555
0.437885
0.513457
0.659559
0.915313
1.31648
1.8937
2.6893
3.00612
0.910361
0.586632
0.541483
0.565409
0.648243
0.783626
0.924392
1.00428
1.01148
0.987797
0.966203
0.955513
0.375914
0.378713
0.38311
0.388808
0.39673
0.406931
0.418458
0.429932
0.439791
0.446501
0.448887
0.446503
0.439787
0.429888
0.418305
0.406571
0.396178
0.388811
0.386916
0.39484
0.420957
0.481251
0.603571
0.827384
1.19248
1.73064
2.47096
3.41483
1.13906
0.628357
0.562658
0.587949
0.682369
0.838478
1.00048
1.08558
1.07285
1.01888
0.973907
0.951669
0.371153
0.375673
0.382688
0.39094
0.40103
0.41316
0.426538
0.439791
0.45121
0.459015
0.461799
0.459018
0.451204
0.439742
0.426374
0.412793
0.40052
0.391112
0.386704
0.391037
0.411397
0.462041
0.568826
0.770766
1.11032
1.62097
2.33227
3.39307
1.44142
0.701146
0.617375
0.660729
0.789732
0.987077
1.19108
1.3119
1.29269
1.18445
1.0817
1.02748
0.36901
0.374451
0.382916
0.392644
0.404052
0.417415
0.432026
0.446501
0.459015
0.4676
0.470669
0.467602
0.459008
0.446448
0.431854
0.417042
0.403563
0.39291
0.387044
0.389372
0.406579
0.45194
0.550088
0.739509
1.06391
1.55745
2.24986
3.26297
1.90664
0.843905
0.723609
0.76806
0.882702
1.04938
1.2548
1.46113
1.59677
1.59382
1.4872
1.39587
0.368408
0.37414
0.383071
0.393285
0.405137
0.418927
0.433973
0.448887
0.461799
0.470669
0.473842
0.470671
0.461792
0.448833
0.433799
0.418552
0.404655
0.393584
0.387243
0.388939
0.405179
0.448945
0.544458
0.729753
1.04774
1.52922
2.19486
3.08512
2.49346
1.03126
0.769644
0.71201
0.733853
0.827344
0.981982
1.18384
1.41776
1.66327
1.87484
1.99054
0.369024
0.374463
0.382925
0.392651
0.404057
0.417418
0.432029
0.446503
0.459018
0.467602
0.470671
0.467605
0.459011
0.446451
0.431857
0.417047
0.403572
0.392929
0.387086
0.389469
0.406795
0.452354
0.550504
0.738045
1.05287
1.51415
2.11779
2.82749
2.48743
0.948384
0.612408
0.539946
0.547946
0.603619
0.698997
0.832938
1.00723
1.21773
1.43296
1.5794
0.371189
0.375702
0.382707
0.390951
0.401035
0.413161
0.426536
0.439787
0.451204
0.459008
0.461792
0.459011
0.451198
0.439738
0.426373
0.412799
0.400538
0.391157
0.386803
0.391241
0.411747
0.462283
0.567033
0.758891
1.06468
1.48594
1.99613
2.57117
1.73163
0.660968
0.473813
0.439584
0.446045
0.475159
0.524002
0.595069
0.693923
0.820335
0.951662
1.0398
0.375979
0.37876
0.383129
0.388806
0.396713
0.406902
0.418422
0.429888
0.439742
0.446448
0.448833
0.446451
0.439738
0.429846
0.418274
0.406556
0.396193
0.388876
0.387061
0.395052
0.420887
0.479018
0.591936
0.785332
1.07399
1.45344
1.91264
2.54421
0.981089
0.49099
0.413586
0.399779
0.403441
0.416837
0.438643
0.470748
0.517068
0.578239
0.642932
0.686863
0.385529
0.385379
0.385494
0.387264
0.392082
0.399721
0.408944
0.418305
0.426374
0.431854
0.433799
0.431857
0.426373
0.418274
0.408818
0.399396
0.391523
0.387092
0.388988
0.402174
0.435354
0.502702
0.623634
0.817863
1.09966
1.48892
2.02071
1.79549
0.610905
0.427406
0.397086
0.391188
0.392681
0.397847
0.405854
0.417756
0.435495
0.459249
0.484362
0.501481
0.403703
0.398624
0.391968
0.387923
0.388495
0.392925
0.39949
0.406571
0.412793
0.417042
0.418552
0.417047
0.412799
0.406556
0.399396
0.392629
0.38785
0.387247
0.394213
0.414332
0.456656
0.534783
0.666881
0.875351
1.1905
1.65536
2.48624
0.94156
0.479236
0.414241
0.402176
0.399726
0.399841
0.400406
0.401082
0.402572
0.405711
0.410473
0.415652
0.419311
0.437323
0.423795
0.406151
0.393261
0.38784
0.388126
0.391569
0.396178
0.40052
0.403563
0.404655
0.403572
0.400538
0.396193
0.391523
0.38785
0.386949
0.391368
0.405004
0.433981
0.48793
0.581765
0.738515
0.994222
1.41113
2.0837
1.67656
0.602857
0.447387
0.425192
0.421434
0.420707
0.419412
0.416567
0.412421
0.407585
0.402426
0.397051
0.392165
0.389285
0.49815
0.469943
0.434137
0.40737
0.39305
0.387601
0.387078
0.388811
0.391112
0.39291
0.393584
0.392929
0.391157
0.388876
0.387092
0.387247
0.391368
0.402373
0.424687
0.465441
0.536692
0.659359
0.869465
1.22575
1.78222
2.59865
0.885963
0.505139
0.458124
0.453709
0.454739
0.454416
0.450948
0.444451
0.435751
0.425552
0.414139
0.401949
0.390912
0.384298
0.605203
0.551876
0.486188
0.437283
0.409131
0.395095
0.388971
0.386916
0.386704
0.387044
0.387243
0.387086
0.386803
0.387061
0.388988
0.394213
0.405004
0.424687
0.458781
0.517266
0.618644
0.796299
1.10475
1.61529
2.50674
1.448
0.609879
0.503118
0.497197
0.503579
0.507998
0.506668
0.499287
0.48722
0.472145
0.455202
0.436915
0.418176
0.401844
0.392251
0.7855
0.691477
0.57873
0.495095
0.445032
0.41738
0.402555
0.39484
0.391037
0.389372
0.388939
0.389469
0.391241
0.395052
0.402174
0.414332
0.433981
0.465441
0.517266
0.606128
0.762674
1.03754
1.50138
2.23131
2.30699
0.796825
0.564945
0.555145
0.5751
0.594501
0.603444
0.598496
0.58145
0.556861
0.528963
0.500148
0.471383
0.443918
0.42124
0.408318
1.0702
0.915715
0.735137
0.600378
0.516466
0.466927
0.437885
0.420957
0.411397
0.406579
0.405179
0.406795
0.411747
0.420887
0.435354
0.456656
0.48793
0.536692
0.618644
0.762674
1.01595
1.44337
2.09833
2.86837
1.07905
0.646947
0.632002
0.688955
0.764029
0.829579
0.857524
0.834837
0.773909
0.699946
0.631218
0.57277
0.52298
0.480777
0.448628
0.431104
1.48883
1.2507
0.982607
0.780624
0.648554
0.565435
0.513457
0.481251
0.462041
0.45194
0.448945
0.452354
0.462283
0.479018
0.502702
0.534783
0.581765
0.659359
0.796299
1.03754
1.44337
2.06082
2.9666
1.37434
0.73915
0.727297
0.883051
1.17691
1.56912
1.91932
2.06249
1.93041
1.59068
1.20327
0.902704
0.718974
0.608218
0.534623
0.485889
0.461132
2.07442
1.71956
1.34621
1.06639
0.874366
0.745365
0.659559
0.603571
0.568826
0.550088
0.544458
0.550504
0.567033
0.591936
0.623634
0.666881
0.738515
0.869465
1.10475
1.50138
2.09833
2.9666
1.50569
0.806052
0.819435
1.17464
2.06713
3.26506
3.65514
3.62035
3.58448
3.62031
3.65795
3.29641
2.12565
1.19938
0.791892
0.621999
0.538033
0.500544
2.87024
2.35068
1.84985
1.4847
1.22647
1.04371
0.915313
0.827384
0.770766
0.739509
0.729753
0.738045
0.758891
0.785332
0.817863
0.875351
0.994222
1.22575
1.61529
2.23131
2.86837
1.37434
0.806052
0.860083
1.43673
3.05921
3.62711
3.2966
3.03935
2.88988
2.84081
2.88954
3.03788
3.29183
3.61806
3.09469
1.42849
0.804281
0.617453
0.553706
3.65021
3.21547
2.51536
2.06473
1.73264
1.4915
1.31648
1.19248
1.11032
1.06391
1.04774
1.05287
1.06468
1.07399
1.09966
1.1905
1.41113
1.78222
2.50674
2.30699
1.07905
0.73915
0.819435
1.43673
3.36
3.45585
3.0088
2.67164
2.44226
2.30999
2.26672
2.30958
2.44093
2.66826
3.00207
3.44538
3.32784
1.35726
0.762052
0.629363
1.0382
1.98085
3.41515
2.85065
2.41977
2.11877
1.8937
1.73064
1.62097
1.55745
1.52922
1.51415
1.48594
1.45344
1.48892
1.65536
2.0837
2.59865
1.448
0.796825
0.646947
0.727297
1.17464
3.05921
3.45585
2.91693
2.49679
2.19446
1.99187
1.87547
1.83741
1.87504
1.99063
2.19164
2.49181
2.91155
3.46262
2.88253
1.09609
0.74681
0.566068
0.697771
1.20795
2.57701
3.38941
3.0237
2.6893
2.47096
2.33227
2.24986
2.19486
2.11779
1.99613
1.91264
2.02071
2.48624
1.67656
0.885963
0.609879
0.564945
0.632002
0.883051
2.06713
3.62711
3.0088
2.49679
2.11557
1.84361
1.66192
1.55777
1.52377
1.55735
1.66074
1.84109
2.11151
2.49374
3.01663
3.65893
1.86652
0.947463
0.484401
0.514676
0.598786
0.808633
1.26433
2.05486
3.00612
3.41483
3.39307
3.26297
3.08512
2.82749
2.57117
2.54421
1.79549
0.94156
0.602857
0.505139
0.503118
0.555145
0.688955
1.17691
3.26506
3.2966
2.67164
2.19446
1.84361
1.59416
1.42815
1.33339
1.30252
1.33298
1.42703
1.59184
1.84006
2.19242
2.68209
3.35692
3.03843
1.29038
0.461357
0.476778
0.507936
0.556074
0.628609
0.740625
0.910361
1.13906
1.44142
1.90664
2.49346
2.48743
1.73163
0.981089
0.610905
0.479236
0.447387
0.458124
0.497197
0.5751
0.764029
1.56912
3.65514
3.03935
2.44226
1.99187
1.66192
1.42815
1.27334
1.18542
1.15686
1.18503
1.27229
1.42598
1.65868
1.99035
2.45356
3.09517
3.64315
1.7695
0.472277
0.481649
0.498026
0.517183
0.536733
0.558436
0.586632
0.628357
0.701146
0.843905
1.03126
0.948384
0.660968
0.49099
0.427406
0.414241
0.425192
0.453709
0.503579
0.594501
0.829579
1.91932
3.62035
2.88988
2.30999
1.87547
1.55777
1.33339
1.18542
1.10171
1.07459
1.10134
1.18441
1.33132
1.55472
1.8742
2.32148
2.94351
3.70323
2.21269
0.5302
0.532729
0.535355
0.535599
0.534211
0.534686
0.541483
0.562658
0.617375
0.723609
0.769644
0.612408
0.473813
0.413586
0.397086
0.402176
0.421434
0.454739
0.507998
0.603444
0.857524
2.06249
3.58448
2.84081
2.26672
1.83741
1.52377
1.30252
1.15686
1.07459
1.04796
1.07422
1.15587
1.30048
1.52076
1.8362
2.27818
2.89373
3.68778
2.39106
0.656914
0.648081
0.630441
0.60697
0.584062
0.568158
0.565409
0.587949
0.660729
0.76806
0.71201
0.539946
0.439584
0.399779
0.391188
0.399726
0.420707
0.454416
0.506668
0.598496
0.834837
1.93041
3.62031
2.88954
2.30958
1.87504
1.55735
1.33298
1.18503
1.10134
1.07422
1.10097
1.18402
1.33089
1.55425
1.87367
2.32086
2.94279
3.70325
2.21573
0.846312
0.823107
0.782
0.733351
0.688714
0.657154
0.648243
0.682369
0.789732
0.882702
0.733853
0.547946
0.446045
0.403441
0.392681
0.399841
0.419412
0.450948
0.499287
0.58145
0.773909
1.59068
3.65795
3.03788
2.44093
1.99063
1.66074
1.42703
1.27229
1.18441
1.15587
1.18402
1.27123
1.42482
1.65738
1.98887
2.45183
3.09316
3.64541
1.77491
1.01928
0.990738
0.941605
0.884234
0.830727
0.792003
0.783626
0.838478
0.987077
1.04938
0.827344
0.603619
0.475159
0.416837
0.397847
0.400406
0.416567
0.444451
0.48722
0.556861
0.699946
1.20327
3.29641
3.29183
2.66826
2.19164
1.84109
1.59184
1.42598
1.33132
1.30048
1.33089
1.42482
1.58941
1.83731
2.18924
2.67836
3.35253
3.05042
1.29578
1.08554
1.06793
1.03627
0.996398
0.955649
0.924667
0.924392
1.00048
1.19108
1.2548
0.981982
0.698997
0.524002
0.438643
0.405854
0.401082
0.412421
0.435751
0.472145
0.528963
0.631218
0.902704
2.12565
3.61806
3.00207
2.49181
2.11151
1.84006
1.65868
1.55472
1.52076
1.55425
1.65738
1.83731
2.10709
2.48845
3.01032
3.65425
1.87632
0.950166
1.06559
1.06082
1.05075
1.03498
1.01502
0.997972
1.00428
1.08558
1.3119
1.46113
1.18384
0.832938
0.595069
0.470748
0.417756
0.402572
0.407585
0.425552
0.455202
0.500148
0.57277
0.718974
1.19938
3.09469
3.44538
2.91155
2.49374
2.19242
1.99035
1.8742
1.8362
1.87367
1.98887
2.18924
2.48845
2.90671
3.45638
2.87139
1.09267
0.745367
1.03106
1.0314
1.03076
1.02696
1.01855
1.00847
1.01148
1.07285
1.29269
1.59677
1.41776
1.00723
0.693923
0.517068
0.435495
0.405711
0.402426
0.414139
0.436915
0.471383
0.52298
0.608218
0.791892
1.42849
3.32784
3.46262
3.01663
2.68209
2.45356
2.32148
2.27818
2.32086
2.45183
2.67836
3.01032
3.45638
3.25773
1.31597
0.749866
0.622807
1.01049
1.01141
1.01215
1.01061
1.00445
0.993889
0.987797
1.01888
1.18445
1.59382
1.66327
1.21773
0.820335
0.578239
0.459249
0.410473
0.397051
0.401949
0.418176
0.443918
0.480777
0.534623
0.621999
0.804281
1.35726
2.88253
3.65893
3.35692
3.09517
2.94351
2.89373
2.94279
3.09316
3.35253
3.65425
2.87139
1.31597
0.769034
0.60094
0.542267
1.00208
1.00256
1.00267
1.00051
0.993482
0.980345
0.966203
0.973907
1.0817
1.4872
1.87484
1.43296
0.951662
0.642932
0.484362
0.415652
0.392165
0.390912
0.401844
0.42124
0.448628
0.485889
0.538033
0.617453
0.762052
1.09609
1.86652
3.03843
3.64315
3.70323
3.68778
3.70325
3.64541
3.05042
1.87632
1.09267
0.749866
0.60094
0.524279
0.489142
0.999551
0.999732
0.999334
0.996569
0.988731
0.973912
0.955513
0.951669
1.02748
1.39587
1.99054
1.5794
1.0398
0.686863
0.501481
0.419311
0.389285
0.384298
0.392251
0.408318
0.431104
0.461132
0.500544
0.553706
0.629363
0.74681
0.947463
1.29038
1.7695
2.21269
2.39106
2.21573
1.77491
1.29578
0.950166
0.745367
0.622807
0.542267
0.489142
0.462064
SCALARS C2 double 1
LOOKUP_TABLE default
1.9363
2.14719
2.4263
2.66673
2.85348
3.00028
3.11649
3.20607
3.27011
3.30865
3.32153
3.30862
3.26996
3.20561
3.11543
2.99857
2.85282
2.67385
2.45522
2.19142
1.88588
1.55842
1.24061
0.965732
1.4582
4.40449
4.5124
4.33298
4.0933
3.81396
3.50194
3.17618
2.9001
2.77242
2.80991
2.90294
2.96584
2.99261
3.00069
3.00225
2.14719
2.34129
2.60193
2.83148
3.013
3.15756
3.27312
3.36282
3.42725
3.46614
3.47915
3.4661
3.4271
3.36237
3.27207
3.1559
3.01249
2.83871
2.62934
2.37859
2.08577
1.76357
1.43906
1.14589
0.967237
3.49673
4.50856
4.38782
4.15691
3.87955
3.56843
3.24361
2.96261
2.81456
2.82391
2.90145
2.96197
2.99023
2.9996
3.00172
2.4263
2.60193
2.84344
3.06116
3.23676
3.37887
3.49388
3.58389
3.6489
3.68826
3.70145
3.68823
3.64876
3.58345
3.49284
3.37721
3.23619
3.06808
2.8692
2.63391
2.35715
2.04145
1.70446
1.3764
1.09602
1.23262
4.21793
4.45444
4.25895
3.99144
3.68504
3.36214
3.0711
2.88819
2.8509
2.90122
2.95651
2.98692
2.99844
3.00149
2.66673
2.83148
3.06116
3.27071
3.44198
3.58232
3.69691
3.78709
3.8524
3.89201
3.90528
3.89199
3.85229
3.7867
3.69591
3.58061
3.4411
3.27678
3.08541
2.86242
2.6011
2.29656
1.955
1.60073
1.26976
1.01193
2.69474
4.43292
4.358
4.11552
3.82063
3.50175
3.19904
2.97808
2.88963
2.90705
2.95408
2.98616
2.99995
3.00403
2.85348
3.013
3.23676
3.44198
3.6111
3.7508
3.86547
3.95592
4.02143
4.06113
4.07443
4.06112
4.02134
3.95557
3.86453
3.74908
3.60993
3.4472
3.25981
3.04454
2.7952
2.50385
2.16779
1.80168
1.43971
1.12454
1.1483
4.12897
4.42212
4.22399
3.94625
3.63432
3.32342
3.07126
2.93814
2.92356
2.96072
2.99361
3.00947
3.01452
3.00028
3.15756
3.37887
3.58232
3.7508
3.89063
4.00563
4.09628
4.16181
4.20143
4.21468
4.20142
4.16174
4.09598
4.00476
3.88894
3.74946
3.58692
3.40105
3.18981
2.94822
2.66798
2.34139
1.97352
1.59299
1.24304
0.984566
3.29154
4.43306
4.30714
4.04946
3.74641
3.43161
3.1571
2.98998
2.95017
2.98015
3.01517
3.03398
3.0405
3.11649
3.27312
3.49388
3.69691
3.86547
4.00563
4.12084
4.2114
4.27658
4.31582
4.32891
4.31582
4.27652
4.21113
4.12003
4.00399
3.86404
3.7011
3.51547
3.30601
3.06891
2.79656
2.47917
2.11467
1.72416
1.35031
1.03721
2.06204
4.37256
4.36506
4.12897
3.83368
3.5132
3.21713
3.02288
2.96938
3.00383
3.04971
3.07693
3.08753
3.20607
3.36282
3.58389
3.78709
3.95592
4.09628
4.2114
4.30146
4.36591
4.40448
4.41731
4.40448
4.36586
4.30122
4.21063
4.09468
3.95443
3.791
3.60511
3.39626
3.16157
2.89433
2.5842
2.22461
1.82962
1.43974
1.10181
1.29759
4.22101
4.39633
4.18121
3.88338
3.53677
3.19634
2.96688
2.91449
2.98385
3.06974
3.12411
3.1474
3.27011
3.42725
3.6489
3.8524
4.02143
4.16181
4.27658
4.36591
4.4294
4.46716
4.47967
4.46716
4.42936
4.36568
4.27585
4.16025
4.01991
3.85612
3.66988
3.46113
3.22765
2.96346
2.65825
2.30293
1.90632
1.50628
1.15196
1.03985
3.94665
4.38355
4.17937
3.83958
3.40231
2.96196
2.67116
2.61557
2.75817
2.95573
3.09665
3.16172
3.30865
3.46614
3.68826
3.89201
4.06113
4.20143
4.31582
4.40448
4.46716
4.50425
4.51648
4.50425
4.46713
4.40427
4.31511
4.19988
4.05959
3.89561
3.70912
3.50032
3.26736
3.00468
2.70211
2.34929
1.9521
1.54675
1.18344
0.964686
3.43071
4.25924
4.03558
3.58105
3.03231
2.56768
2.26386
2.12754
2.17843
2.40522
2.68184
2.85269
3.32153
3.47915
3.70145
3.90528
4.07443
4.21468
4.32891
4.41731
4.47967
4.51648
4.52862
4.51648
4.47963
4.4171
4.32821
4.21314
4.07288
3.90884
3.72227
3.51343
3.28054
3.01813
2.71599
2.36355
1.96665
1.56249
1.20243
0.959695
2.59858
3.93538
3.72149
3.26197
2.84137
2.52461
2.27787
2.0793
1.92777
1.83545
1.81838
1.84941
3.30862
3.4661
3.68823
3.89199
4.06112
4.20142
4.31582
4.40448
4.46716
4.50425
4.51648
4.50425
4.46713
4.40427
4.31511
4.19988
4.05958
3.89561
3.70911
3.50025
3.26701
3.00362
2.69984
2.34672
1.95454
1.56506
1.23063
1.0171
2.24336
3.73489
3.56357
3.228
2.96295
2.75212
2.56331
2.3758
2.17577
1.96422
1.77131
1.65241
3.26996
3.4271
3.64876
3.85229
4.02134
4.16174
4.27652
4.36586
4.42936
4.46713
4.47963
4.46713
4.42932
4.36563
4.27579
4.16018
4.01984
3.85605
3.66975
3.46075
3.2265
2.96076
2.65437
2.30412
1.92992
1.57641
1.28947
1.14594
3.00064
3.81513
3.57595
3.34778
3.17561
3.03297
2.89755
2.74731
2.56335
2.34667
2.1397
2.0124
3.20561
3.36237
3.58345
3.7867
3.95557
4.09598
4.21113
4.30122
4.36568
4.40427
4.4171
4.40427
4.36563
4.30098
4.21037
4.0944
3.95412
3.79063
3.60451
3.39494
3.15869
2.88991
2.58424
2.24931
1.91152
1.60443
1.35741
1.46938
3.82235
3.86525
3.66905
3.52184
3.41069
3.31634
3.21927
3.09953
2.94087
2.74494
2.55304
2.43384
3.11543
3.27207
3.49284
3.69591
3.86453
4.00476
4.12003
4.21063
4.27585
4.31511
4.32821
4.31511
4.27579
4.21037
4.11923
4.00316
3.86313
3.69997
3.51366
3.30267
3.06383
2.79509
2.50152
2.19729
1.89777
1.60979
1.36178
2.99664
4.06956
3.93933
3.81346
3.72562
3.6591
3.59577
3.5193
3.41573
3.27389
3.09608
2.91963
2.809
2.99857
3.1559
3.37721
3.58061
3.74908
3.88894
4.00399
4.09468
4.16025
4.19988
4.21314
4.19988
4.16018
4.0944
4.00316
3.88729
3.74763
3.58449
3.3972
3.18419
2.94555
2.68718
2.41866
2.14208
1.84583
1.54055
1.57799
4.04236
4.15783
4.05977
3.99372
3.9507
3.91231
3.8638
3.79556
3.69957
3.56774
3.4016
3.23437
3.12805
2.85282
3.01249
3.23619
3.4411
3.60993
3.74946
3.86404
3.95443
4.01991
4.05959
4.07288
4.05958
4.01984
3.95412
3.86313
3.74763
3.60804
3.44413
3.25523
3.04277
2.81387
2.5771
2.32819
2.04315
1.70814
1.37612
3.33034
4.29904
4.2612
4.21823
4.19738
4.18097
4.15455
4.1109
4.04616
3.95528
3.83115
3.67364
3.51203
3.40724
2.67385
2.83871
3.06808
3.27678
3.4472
3.58692
3.7011
3.791
3.85612
3.89561
3.90884
3.89561
3.85605
3.79063
3.69997
3.58449
3.44413
3.27875
3.09061
2.88773
2.67875
2.45699
2.19201
1.85474
1.48255
1.8567
4.26434
4.41216
4.39777
4.39759
4.40073
4.39365
4.37057
4.32963
4.26891
4.18407
4.06808
3.91905
3.76246
3.65853
2.45522
2.62934
2.8692
3.08541
3.25981
3.40105
3.51547
3.60511
3.66988
3.70912
3.72227
3.70911
3.66975
3.60451
3.51366
3.3972
3.25523
3.09061
2.91202
2.72841
2.53231
2.29061
1.96702
1.58294
1.31986
3.80621
4.49662
4.52944
4.54723
4.56482
4.57243
4.56672
4.547
4.51196
4.459
4.38344
4.27811
4.13944
3.9892
3.88678
2.19142
2.37859
2.63391
2.86242
3.04454
3.18981
3.30601
3.39626
3.46113
3.50032
3.51343
3.50025
3.46075
3.39494
3.30267
3.18419
3.04277
2.88773
2.72841
2.55707
2.33955
2.03639
1.65641
1.2991
2.74535
4.47966
4.60999
4.64168
4.66239
4.67191
4.67353
4.67043
4.66125
4.64126
4.60485
4.54596
4.457
4.33292
4.19198
4.09263
1.88588
2.08577
2.35715
2.6011
2.7952
2.94822
3.06891
3.16157
3.22765
3.26736
3.28054
3.26701
3.2265
3.15869
3.06383
2.94555
2.81387
2.67875
2.53231
2.33955
2.05976
1.6959
1.33112
1.81542
4.32364
4.63849
4.6781
4.67615
4.64625
4.6082
4.58934
4.60301
4.63726
4.66787
4.67662
4.65458
4.59546
4.49463
4.36826
4.27453
1.55842
1.76357
2.04145
2.29656
2.50385
2.66798
2.79656
2.89433
2.96346
3.00468
3.01813
3.00362
2.96076
2.88991
2.79509
2.68718
2.5771
2.45699
2.29061
2.03639
1.6959
1.34427
1.48859
4.08207
4.62474
4.66148
4.5784
4.34725
3.96392
3.57711
3.41097
3.56387
3.93845
4.31765
4.55764
4.66136
4.67302
4.61544
4.51349
4.42951
1.24061
1.43906
1.70446
1.955
2.16779
2.34139
2.47917
2.5842
2.65825
2.70211
2.71599
2.69984
2.65437
2.58424
2.50152
2.41866
2.32819
2.19201
1.96702
1.65641
1.33112
1.48859
3.95767
4.59957
4.61718
4.35623
3.45106
1.93666
1.16585
0.980193
0.947217
0.978396
1.15596
1.88768
3.37636
4.32525
4.62816
4.67634
4.6202
4.55325
0.965732
1.14589
1.3764
1.60073
1.80168
1.97352
2.11467
2.22461
2.30293
2.34929
2.36355
2.34672
2.30412
2.24931
2.19729
2.14208
2.04315
1.85474
1.58294
1.2991
1.81542
4.08207
4.59957
4.59295
4.12638
2.26558
1.00063
0.902351
0.935871
0.968867
0.981181
0.968896
0.935991
0.902177
0.992296
2.20707
4.12682
4.62277
4.67467
4.63942
1.4582
0.967237
1.09602
1.26976
1.43971
1.59299
1.72416
1.82962
1.90632
1.9521
1.96665
1.95454
1.92992
1.91152
1.89777
1.84583
1.70814
1.48255
1.31986
2.74535
4.32364
4.62474
4.61718
4.12638
1.8438
0.91265
0.942928
1.02877
1.10372
1.15286
1.16993
1.153
1.10415
1.02972
0.944371
0.913565
1.88421
4.19883
4.64423
4.67812
4.40449
3.49673
1.23262
1.01193
1.12454
1.24304
1.35031
1.43974
1.50628
1.54675
1.56249
1.56506
1.57641
1.60443
1.60979
1.54055
1.37612
1.8567
3.80621
4.47966
4.63849
4.66148
4.35623
2.26558
0.91265
0.963293
1.08473
1.1996
1.29085
1.34925
1.36938
1.34946
1.29142
1.20076
1.0865
0.965072
0.917935
2.4999
4.42024
4.65176
4.5124
4.50856
4.21793
2.69474
1.1483
0.984566
1.03721
1.10181
1.15196
1.18344
1.20243
1.23063
1.28947
1.35741
1.36178
1.57799
3.33034
4.26434
4.49662
4.60999
4.6781
4.5784
3.45106
1.00063
0.942928
1.08473
1.23366
1.36606
1.46945
1.53501
1.55751
1.53527
1.47012
1.3674
1.23557
1.08615
0.9424
1.05454
3.67998
4.52492
4.33298
4.38782
4.45444
4.43292
4.12897
3.29154
2.06204
1.29759
1.03985
0.964686
0.959695
1.0171
1.14594
1.46938
2.99664
4.04236
4.29904
4.41216
4.52944
4.64168
4.67615
4.34725
1.93666
0.902351
1.02877
1.1996
1.36606
1.51154
1.62391
1.69462
1.71877
1.6949
1.62466
1.51301
1.36812
1.20088
1.02655
0.900466
2.27653
4.23707
4.0933
4.15691
4.25895
4.358
4.42212
4.43306
4.37256
4.22101
3.94665
3.43071
2.59858
2.24336
3.00064
3.82235
4.06956
4.15783
4.2612
4.39777
4.54723
4.66239
4.64625
3.96392
1.16585
0.935871
1.10372
1.29085
1.46945
1.62391
1.74218
1.81607
1.84122
1.81636
1.74296
1.62546
1.47161
1.29211
1.10067
0.9254
1.32409
3.76731
3.81396
3.87955
3.99144
4.11552
4.22399
4.30714
4.36506
4.39633
4.38355
4.25924
3.93538
3.73489
3.81513
3.86525
3.93933
4.05977
4.21823
4.39759
4.56482
4.67191
4.6082
3.57711
0.980193
0.968867
1.15286
1.34925
1.53501
1.69462
1.81607
1.8916
1.91724
1.8919
1.81687
1.6962
1.53724
1.3505
1.14942
0.956163
1.04342
3.28919
3.50194
3.56843
3.68504
3.82063
3.94625
4.04946
4.12897
4.18121
4.17937
4.03558
3.72149
3.56357
3.57595
3.66905
3.81346
3.99372
4.19738
4.40073
4.57243
4.67353
4.58934
3.41097
0.947217
0.981181
1.16993
1.36938
1.55751
1.71877
1.84122
1.91724
1.94303
1.91754
1.84202
1.72037
1.55976
1.37064
1.16639
0.967968
0.989082
3.08848
3.17618
3.24361
3.36214
3.50175
3.63432
3.74641
3.83368
3.88338
3.83958
3.58105
3.26197
3.228
3.34778
3.52184
3.72562
3.9507
4.18097
4.39365
4.56672
4.67043
4.60301
3.56387
0.978396
0.968896
1.153
1.34946
1.53527
1.6949
1.81636
1.8919
1.91754
1.89219
1.81716
1.69649
1.53751
1.35076
1.14965
0.956314
1.0423
3.28584
2.9001
2.96261
3.0711
3.19904
3.32342
3.43161
3.5132
3.53677
3.40231
3.03231
2.84137
2.96295
3.17561
3.41069
3.6591
3.91231
4.15455
4.37057
4.547
4.66125
4.63726
3.93845
1.15596
0.935991
1.10415
1.29142
1.47012
1.62466
1.74296
1.81687
1.84202
1.81716
1.74375
1.62624
1.47235
1.29279
1.10125
0.925733
1.31872
3.76158
2.77242
2.81456
2.88819
2.97808
3.07126
3.1571
3.21713
3.19634
2.96196
2.56768
2.52461
2.75212
3.03297
3.31634
3.59577
3.8638
4.1109
4.32963
4.51196
4.64126
4.66787
4.31765
1.88768
0.902177
1.02972
1.20076
1.3674
1.51301
1.62546
1.6962
1.72037
1.69649
1.62624
1.51454
1.36958
1.20222
1.02768
0.900667
2.25985
4.23186
2.80991
2.82391
2.8509
2.88963
2.93814
2.98998
3.02288
2.96688
2.67116
2.26386
2.27787
2.56331
2.89755
3.21927
3.5193
3.79556
4.04616
4.26891
4.459
4.60485
4.67662
4.55764
3.37636
0.992296
0.944371
1.0865
1.23557
1.36812
1.47161
1.53724
1.55976
1.53751
1.47235
1.36958
1.23766
1.08809
0.944036
1.05134
3.66867
4.52276
2.90294
2.90145
2.90122
2.90705
2.92356
2.95017
2.96938
2.91449
2.61557
2.12754
2.0793
2.3758
2.74731
3.09953
3.41573
3.69957
3.95528
4.18407
4.38344
4.54596
4.65458
4.66136
4.32525
2.20707
0.913565
0.965072
1.08615
1.20088
1.29211
1.3505
1.37064
1.35076
1.29279
1.20222
1.08809
0.96699
0.92085
2.5127
4.4235
4.65299
2.96584
2.96197
2.95651
2.95408
2.96072
2.98015
3.00383
2.98385
2.75817
2.17843
1.92777
2.17577
2.56335
2.94087
3.27389
3.56774
3.83115
4.06808
4.27811
4.457
4.59546
4.67302
4.62816
4.12682
1.88421
0.917935
0.9424
1.02655
1.10067
1.14942
1.16639
1.14965
1.10125
1.02768
0.944036
0.92085
1.98909
4.24018
4.6511
4.67887
2.99261
2.99023
2.98692
2.98616
2.99361
3.01517
3.04971
3.06974
2.95573
2.40522
1.83545
1.96422
2.34667
2.74494
3.09608
3.4016
3.67364
3.91905
4.13944
4.33292
4.49463
4.61544
4.67634
4.62277
4.19883
2.4999
1.05454
0.900466
0.9254
0.956163
0.967968
0.956314
0.925733
0.900667
1.05134
2.5127
4.24018
4.64316
4.67074
4.6279
3.00069
2.9996
2.99844
2.99995
3.00947
3.03398
3.07693
3.12411
3.09665
2.68184
1.81838
1.77131
2.1397
2.55304
2.91963
3.23437
3.51203
3.76246
3.9892
4.19198
4.36826
4.51349
4.6202
4.67467
4.64423
4.42024
3.67998
2.27653
1.32409
1.04342
0.989082
1.0423
1.31872
2.25985
3.66867
4.4235
4.6511
4.67074
4.59935
4.52361
3.00225
3.00172
3.00149
3.00403
3.01452
3.0405
3.08753
3.1474
3.16172
2.85269
1.84941
1.65241
2.0124
2.43384
2.809
3.12805
3.40724
3.65853
3.88678
4.09263
4.27453
4.42951
4.55325
4.63942
4.67812
4.65176
4.52492
4.23707
3.76731
3.28919
3.08848
3.28584
3.76158
4.23186
4.52276
4.65299
4.67887
4.6279
4.52361
4.43272
