# vtk DataFile Version 3.0
Brusselator Concentration Output
ASCII
DATASET STRUCTURED_POINTS
DIMENSIONS 40 40 1
ORIGIN 0.0 0.0 0.0
SPACING 0.005 0.005 1.0
POINT_DATA 1600
SCALARS C1 double 1
LOOKUP_TABLE default
1
1
1
1
1.00001
1.00003
1.00007
1.00013
1.00021
1.00027
1.0003
1.00027
1.00021
1.00013
1.00007
1.00003
1.00001
1
1
1
1
1
1
1
1
1
1
1
1
1
1
1
1
1
1
1
1
1
1
1
1
1
1
1.00001
1.00004
1.0001
1.00022
1.00041
1.00062
1.00078
1.00084
1.00078
1.00062
1.00041
1.00022
1.0001
1.00004
1.00001
1
1
1
1
1
1
1
1
1
1
1
1
1
1
1
1
1
1
1
1
1
1
1
1
1.00001
1.00005
1.00014
1.00035
1.00074
1.00129
1.00183
1.00215
1.00224
1.00215
1.00183
1.00129
1.00074
1.00035
1.00014
1.00005
1.00001
1
1
1
1
1
1
1
1
1
1
1
1
1
1
1
1
1
1
1
1
1
1
1.00001
1.00005
1.00015
1.00044
1.00107
1.00211
1.00329
1.00401
1.00402
1.00389
1.00402
1.00401
1.00329
1.00211
1.00107
1.00044
1.00015
1.00005
1.00001
1
1
1
1
1
1
1
1
1
1
1
1
1
1
1
1
1
1
1
1
1.00001
1.00004
1.00014
1.00044
1.00121
1.00269
1.00463
1.0057
1.00438
1.00144
0.999979
1.00144
1.00438
1.0057
1.00463
1.00269
1.00121
1.00044
1.00014
1.00004
1.00001
1
1
1
1
1
1
1
1
1
1
1
1
1
1
1
1
1
1
1
1.00003
1.0001
1.00035
1.00107
1.00269
1.00517
1.00662
1.00281
0.991601
0.978818
0.973652
0.978818
0.991601
1.00281
1.00662
1.00517
1.00269
1.00107
1.00035
1.0001
1.00002
1.00001
1
1
1
1
1
1
1
1
1
1
1
1
1
1
1
1
1
1
1.00007
1.00022
1.00074
1.00211
1.00463
1.00662
1.00168
0.981161
0.946898
0.916552
0.905977
0.916552
0.946898
0.981161
1.00168
1.00662
1.00463
1.00211
1.00074
1.00022
1.00005
1.00001
1
1
1
1
1
1
1
1
1
1
1
1
1
1
1
1
1
1
1.00013
1.00041
1.00129
1.00329
1.0057
1.00281
0.981161
0.931046
0.867176
0.820827
0.807187
0.820827
0.867176
0.931046
0.981161
1.00281
1.0057
1.00329
1.00129
1.0004
1.00011
1.00002
1
1
1
1
1
1
1
1
1
1
1
1
1
1
1
1
1
1
1.00021
1.00062
1.00183
1.00401
1.00438
0.991601
0.946898
0.867176
0.78341
0.732743
0.721393
0.732743
0.78341
0.867176
0.946898
0.991601
1.00438
1.00401
1.00183
1.00061
1.00017
1.00004
1.00001
1
1
1
1
1
1
1
1
1
1
1
1
1
1
1
1
1
1.00027
1.00078
1.00215
1.00402
1.00144
0.978818
0.916552
0.820827
0.732743
0.688066
0.682834
0.688066
0.732743
0.820827
0.916552
0.978818
1.00144
1.00402
1.00214
1.00077
1.00022
1.00005
1.00001
1
1
1
1
1
1
1
1
1
1
1
1
1
1
1
1
1
1.0003
1.00084
1.00224
1.00389
0.999979
0.973652
0.905977
0.807187
0.721393
0.682834
0.681858
0.682834
0.721393
0.807187
0.905977
0.973652
0.999979
1.00389
1.00223
1.00083
1.00024
1.00006
1.00001
1
1
1
1
1
1
1
1
1
1
1
1
1
1
1
1
1
1.00027
1.00078
1.00215
1.00402
1.00144
0.978818
0.916552
0.820827
0.732743
0.688066
0.682834
0.688066
0.732743
0.820827
0.916552
0.978818
1.00144
1.00402
1.00214
1.00077
1.00022
1.00005
1.00001
1
1
1
1
1
1
1
1
1
1
1
1
1
1
1
1
1
1.00021
1.00062
1.00183
1.00401
1.00438
0.991601
0.946898
0.867176
0.78341
0.732743
0.721393
0.732743
0.78341
0.867176
0.946898
0.991601
1.00438
1.00401
1.00183
1.00061
1.00017
1.00004
1.00001
1
1
1
1
1
1
1
1
1
1
1
1
1
1
1
1
1
1.00013
1.00041
1.00129
1.00329
1.0057
1.00281
0.981161
0.931046
0.867176
0.820827
0.807187
0.820827
0.867176
0.931046
0.981161
1.00281
1.0057
1.00329
1.00129
1.0004
1.00011
1.00002
1
1
1
1
1
1
1
1
1
1
1
1
1
1
1
1
1
1
1.00007
1.00022
1.00074
1.00211
1.00463
1.00662
1.00168
0.981161
0.946898
0.916552
0.905977
0.916552
0.946898
0.981161
1.00168
1.00662
1.00463
1.00211
1.00074
1.00022
1.00005
1.00001
1
1
1
1
1
1
1
1
1
1
1
1
1
1
1
1
1
1
1.00003
1.0001
1.00035
1.00107
1.00269
1.00517
1.00662
1.00281
0.991601
0.978818
0.973652
0.978818
0.991601
1.00281
1.00662
1.00517
1.00269
1.00107
1.00035
1.0001
1.00002
1.00001
1
1
1
1
1
1
1
1
1
1
1
1
1
1
1
1
1
1
1.00001
1.00004
1.00014
1.00044
1.00121
1.00269
1.00463
1.0057
1.00438
1.00144
0.999979
1.00144
1.00438
1.0057
1.00463
1.00269
1.00121
1.00044
1.00014
1.00004
1.00001
1
1
1
1
1
1
1
1
1
1
1
1
1
1
1
1
1
1
1
1
1.00001
1.00005
1.00015
1.00044
1.00107
1.00211
1.00329
1.00401
1.00402
1.00389
1.00402
1.00401
1.00329
1.00211
1.00107
1.00044
1.00015
1.00005
1.00001
1
1
1
1
1
1
1
1
1
0.999999
0.999999
0.999999
1
1
1
1
1
1
1
1
1
1
1.00001
1.00005
1.00014
1.00035
1.00074
1.00129
1.00183
1.00214
1.00223
1.00214
1.00183
1.00129
1.00074
1.00035
1.00014
1.00005
1.00001
1
1
1
1
1
1
1
0.999999
0.999999
0.999998
0.999997
0.999996
0.999997
0.999998
0.999999
0.999999
1
1
1
1
1
1
1
1
1.00001
1.00004
1.0001
1.00022
1.0004
1.00061
1.00077
1.00083
1.00077
1.00061
1.0004
1.00022
1.0001
1.00004
1.00001
1
1
1
1
1
1
0.999999
0.999999
0.999997
0.999993
0.999989
0.999984
0.999983
0.999984
0.999989
0.999993
0.999997
0.999999
0.999999
1
1
1
1
1
1
1
1.00001
1.00002
1.00005
1.00011
1.00017
1.00022
1.00024
1.00022
1.00017
1.00011
1.00005
1.00002
1.00001
1
1
1
1
1
1
0.999999
0.999998
0.999993
0.999984
0.999969
0.999951
0.999934
0.999928
0.999934
0.999951
0.999969
0.999984
0.999993
0.999998
0.999999
1
1
1
1
1
1
1
1.00001
1.00001
1.00002
1.00004
1.00005
1.00006
1.00005
1.00004
1.00002
1.00001
1.00001
1
1
1
1
1
1
0.999999
0.999997
0.999989
0.999972
0.999937
0.999881
0.999815
0.999762
0.999742
0.999762
0.999815
0.999881
0.999937
0.999972
0.999989
0.999997
0.999999
1
1
1
1
1
1
1
1
1
1.00001
1.00001
1.00001
1.00001
1.00001
1
1
1
1
1
1
1
1
0.999999
0.999996
0.999987
0.999961
0.999898
0.999779
0.999604
0.999416
0.999284
0.999241
0.999284
0.999416
0.999604
0.999779
0.999898
0.999961
0.999987
0.999996
0.999999
1
1
1
1
1
1
1
1
1
1
1
1
1
1
1
1
1
1
1
1
0.999999
0.999997
0.999987
0.999956
0.999871
0.999682
0.999348
0.998911
0.998535
0.998363
0.998338
0.998363
0.998535
0.998911
0.999348
0.999682
0.999871
0.999956
0.999987
0.999996
1
1
1
1
1
1
1
1
1
1
1
1
1
1
1
1
1
1
1
0.999999
0.999998
0.999989
0.999961
0.999871
0.999641
0.999165
0.998431
0.997705
0.99749
0.997902
0.998219
0.997902
0.99749
0.997705
0.998431
0.999165
0.999641
0.999871
0.99996
0.999987
1
1
1
1
1
1
1
1
1
1
1
1
1
1
1
1
1
1
1
0.999999
0.999993
0.999972
0.999898
0.999682
0.999165
0.998229
0.997155
0.997021
0.999126
1.00281
1.00468
1.00281
0.999126
0.997021
0.997155
0.998229
0.999165
0.999682
0.999897
0.999965
1
1
1
1
1
1
1
1
1
1
1
1
1
1
1
1
1
1
0.999999
0.999997
0.999984
0.999937
0.999779
0.999348
0.998431
0.997155
0.996916
1.001
1.01218
1.02639
1.03263
1.02639
1.01218
1.001
0.996916
0.997155
0.99843
0.999347
0.999776
0.999921
1
1
1
1
1
1
1
1
1
1
1
1
1
1
1
1
1
1
0.999999
0.999993
0.999969
0.999881
0.999604
0.998911
0.997705
0.997021
1.001
1.01751
1.05089
1.08661
1.09943
1.08661
1.05089
1.01751
1.001
0.997021
0.997705
0.99891
0.999597
0.99985
1
1
1
1
1
1
1
1
1
1
1
1
1
1
1
1
1
1
0.999998
0.999989
0.999951
0.999815
0.999416
0.998535
0.99749
0.999126
1.01218
1.05089
1.11675
1.17016
1.17994
1.17016
1.11675
1.05089
1.01218
0.999126
0.99749
0.998532
0.999404
0.999765
1
1
1
1
1
1
1
1
1
1
1
1
1
1
1
1
1
0.999999
0.999997
0.999984
0.999934
0.999762
0.999284
0.998363
0.997902
1.00281
1.02639
1.08661
1.17016
1.205
1.19223
1.205
1.17016
1.08661
1.02639
1.00281
0.997901
0.99836
0.999268
0.999696
1
1
1
1
1
1
1
1
1
1
1
1
1
1
1
1
1
0.999999
0.999996
0.999983
0.999928
0.999742
0.999241
0.998338
0.998219
1.00468
1.03263
1.09943
1.17994
1.19223
1.16579
1.19223
1.17994
1.09943
1.03263
1.00468
0.998218
0.998335
0.999224
0.999671
1
1
1
1
1
1
1
1
1
1
1
1
1
1
1
1
1
0.999999
0.999997
0.999984
0.999934
0.999762
0.999284
0.998363
0.997902
1.00281
1.02639
1.08661
1.17016
1.205
1.19223
1.205
1.17016
1.08661
1.02639
1.00281
0.997901
0.99836
0.999268
0.999696
1
1
1
1
1
1
1
1
1
1
1
1
1
1
1
1
1
1
0.999998
0.999989
0.999951
0.999815
0.999416
0.998535
0.99749
0.999126
1.01218
1.05089
1.11675
1.17016
1.17994
1.17016
1.11675
1.05089
1.01218
0.999126
0.99749
0.998532
0.999404
0.999765
1
1
1
1
1
1
1
1
1
1
1
1
1
1
1
1
1
1
0.999999
0.999993
0.999969
0.999881
0.999604
0.998911
0.997705
0.997021
1.001
1.01751
1.05089
1.08661
1.09943
1.08661
1.05089
1.01751
1.001
0.997021
0.997705
0.99891
0.999597
0.99985
1
1
1
1
1
1
1
1
1
1
1
1
1
1
1
1
1
1
0.999999
0.999997
0.999984
0.999937
0.999779
0.999348
0.998431
0.997155
0.996916
1.001
1.01218
1.02639
1.03263
1.02639
1.01218
1.001
0.996916
0.997155
0.99843
0.999347
0.999776
0.999921
1
1
1
1
1
1
1
1
1
1
1
1
1
1
1
1
1
1
1
0.999999
0.999993
0.999972
0.999898
0.999682
0.999165
0.998229
0.997155
0.997021
0.999126
1.00281
1.00468
1.00281
0.999126
0.997021
0.997155
0.998229
0.999165
0.999682
0.999897
0.999965
1
1
1
1
1
1
1
1
1
1
1
1
1
1
1
1
1
1
1
0.999999
0.999998
0.999989
0.999961
0.999871
0.999641
0.999165
0.99843
0.997705
0.99749
0.997901
0.998218
0.997901
0.99749
0.997705
0.99843
0.999165
0.999641
0.999871
0.99996
0.999987
1
1
1
1
1
1
1
1
1
1
1
1
1
1
1
1
1
1
1
1
0.999999
0.999997
0.999987
0.999956
0.999871
0.999682
0.999347
0.99891
0.998532
0.99836
0.998335
0.99836
0.998532
0.99891
0.999347
0.999682
0.999871
0.999956
0.999987
0.999996
1
1
1
1
1
1
1
1
1
1
1
1
1
1
1
1
1
1
1
1
1
0.999999
0.999996
0.999987
0.99996
0.999897
0.999776
0.999597
0.999404
0.999268
0.999224
0.999268
0.999404
0.999597
0.999776
0.999897
0.99996
0.999987
0.999996
0.999999
1
1
1
1
1
1
1
1
1
1
1
1
1
1
1
1
1
1
1
1
1
1
0.999999
0.999996
0.999987
0.999965
0.999921
0.99985
0.999765
0.999696
0.999671
0.999696
0.999765
0.99985
0.999921
0.999965
0.999987
0.999996
0.999999
1
SCALARS C2 double 1
LOOKUP_TABLE default
3
3
3
3
2.99999
2.99998
2.99994
2.99987
2.99979
2.99971
2.99967
2.99971
2.99979
2.99987
2.99994
2.99998
2.99999
3
3
3
3
3
3
3
3
3
3
3
3
3
3
3
3
3
3
3
3
3
3
3
3
3
3
2.99999
2.99997
2.99991
2.99978
2.99955
2.99927
2.99902
2.99893
2.99902
2.99927
2.99955
2.99978
2.99991
2.99997
2.99999
3
3
3
3
3
3
3
3
3
3
3
3
3
3
3
3
3
3
3
3
3
3
3
3
2.99999
2.99996
2.99987
2.99964
2.99915
2.99837
2.99745
2.99675
2.9965
2.99675
2.99745
2.99837
2.99915
2.99964
2.99987
2.99996
2.99999
3
3
3
3
3
3
3
3
3
3
3
3
3
3
3
3
3
3
3
3
3
3
2.99999
2.99996
2.99985
2.99954
2.99876
2.99724
2.99501
2.99277
2.99145
2.99111
2.99145
2.99277
2.99501
2.99724
2.99876
2.99954
2.99985
2.99996
2.99999
3
3
3
3
3
3
3
3
3
3
3
3
3
3
3
3
3
3
3
3
2.99999
2.99997
2.99987
2.99954
2.9986
2.99642
2.99258
2.98795
2.98501
2.9851
2.98582
2.9851
2.98501
2.98795
2.99258
2.99642
2.9986
2.99954
2.99987
2.99997
2.99999
3
3
3
3
3
3
3
3
3
3
3
3
3
3
3
3
3
3
3
2.99998
2.99991
2.99964
2.99876
2.99642
2.99154
2.98455
2.97992
2.98403
2.99528
3.00136
2.99528
2.98403
2.97992
2.98455
2.99154
2.99642
2.99876
2.99964
2.99991
2.99998
3
3
3
3
3
3
3
3
3
3
3
3
3
3
3
3
3
3
3
2.99994
2.99978
2.99915
2.99724
2.99258
2.98455
2.97807
2.98676
3.02066
3.06446
3.08393
3.06446
3.02066
2.98676
2.97807
2.98455
2.99258
2.99724
2.99915
2.99978
2.99995
2.99999
3
3
3
3
3
3
3
3
3
3
3
3
3
3
3
3
3
3
2.99987
2.99955
2.99837
2.99501
2.98795
2.97992
2.98676
3.03513
3.1305
3.2304
3.2714
3.2304
3.1305
3.03513
2.98676
2.97992
2.98795
2.99501
2.99837
2.99956
2.9999
2.99998
3
3
3
3
3
3
3
3
3
3
3
3
3
3
3
3
3
3
2.99979
2.99927
2.99745
2.99277
2.98501
2.98403
3.02066
3.1305
3.30442
3.47098
3.53868
3.47098
3.30442
3.1305
3.02066
2.98403
2.98501
2.99277
2.99745
2.99927
2.99982
2.99996
2.99999
3
3
3
3
3
3
3
3
3
3
3
3
3
3
3
3
3
2.99971
2.99902
2.99675
2.99145
2.9851
2.99528
3.06446
3.2304
3.47098
3.69591
3.7905
3.69591
3.47098
3.2304
3.06446
2.99528
2.9851
2.99145
2.99675
2.99903
2.99976
2.99995
2.99999
3
3
3
3
3
3
3
3
3
3
3
3
3
3
3
3
3
2.99967
2.99893
2.9965
2.99111
2.98582
3.00136
3.08393
3.2714
3.53868
3.7905
3.89796
3.7905
3.53868
3.2714
3.08393
3.00136
2.98582
2.99111
2.9965
2.99894
2.99973
2.99994
2.99999
3
3
3
3
3
3
3
3
3
3
3
3
3
3
3
3
3
2.99971
2.99902
2.99675
2.99145
2.9851
2.99528
3.06446
3.2304
3.47098
3.69591
3.7905
3.69591
3.47098
3.2304
3.06446
2.99528
2.9851
2.99145
2.99675
2.99903
2.99976
2.99995
2.99999
3
3
3
3
3
3
3
3
3
3
3
3
3
3
3
3
3
2.99979
2.99927
2.99745
2.99277
2.98501
2.98403
3.02066
3.1305
3.30442
3.47098
3.53868
3.47098
3.30442
3.1305
3.02066
2.98403
2.98501
2.99277
2.99745
2.99927
2.99982
2.99996
2.99999
3
3
3
3
3
3
3
3
3
3
3
3
3
3
3
3
3
2.99987
2.99955
2.99837
2.99501
2.98795
2.97992
2.98676
3.03513
3.1305
3.2304
3.2714
3.2304
3.1305
3.03513
2.98676
2.97992
2.98795
2.99501
2.99837
2.99956
2.9999
2.99998
3
3
3
3
3
3
3
3
3
3
3
3
3
3
3
3
3
3
2.99994
2.99978
2.99915
2.99724
2.99258
2.98455
2.97807
2.98676
3.02066
3.06446
3.08393
3.06446
3.02066
2.98676
2.97807
2.98455
2.99258
2.99724
2.99915
2.99978
2.99995
2.99999
3
3
3
3
3
3
3
3
3
3
3
3
3
3
3
3
3
3
2.99998
2.99991
2.99964
2.99876
2.99642
2.99154
2.98455
2.97992
2.98403
2.99528
3.00136
2.99528
2.98403
2.97992
2.98455
2.99154
2.99642
2.99876
2.99964
2.99991
2.99998
3
3
3
3
3
3
3
3
3
3
3
3
3
3
3
3
3
3
3
2.99999
2.99997
2.99987
2.99954
2.9986
2.99642
2.99258
2.98795
2.98501
2.9851
2.98582
2.9851
2.98501
2.98795
2.99258
2.99642
2.9986
2.99954
2.99987
2.99997
2.99999
3
3
3
3
3
3
3
3
3
3
3
3
3
3
3
3
3
3
3
3
2.99999
2.99996
2.99985
2.99954
2.99876
2.99724
2.99501
2.99277
2.99145
2.99111
2.99145
2.99277
2.99501
2.99724
2.99876
2.99954
2.99985
2.99996
2.99999
3
3
3
3
3
3
3
3
3
3
3
3
3
3
3
3
3
3
3
3
3
3
2.99999
2.99996
2.99987
2.99964
2.99915
2.99837
2.99745
2.99675
2.9965
2.99675
2.99745
2.99837
2.99915
2.99964
2.99987
2.99996
2.99999
3
3
3
3
3
3
3
3
3
3
3
3
3
3
3
3
3
3
3
3
3
3
3
3
2.99999
2.99997
2.99991
2.99978
2.99956
2.99927
2.99903
2.99894
2.99903
2.99927
2.99956
2.99978
2.99991
2.99997
2.99999
3
3
3
3
3
3
3
3
3
3.00001
3.00001
3.00002
3.00002
3.00002
3.00001
3.00001
3
3
3
3
3
3
3
3
3
3
2.99999
2.99998
2.99995
2.9999
2.99982
2.99976
2.99973
2.99976
2.99982
2.9999
2.99995
2.99998
2.99999
3
3
3
3
3
3
3
3
3.00001
3.00001
3.00003
3.00005
3.00007
3.00008
3.00007
3.00005
3.00003
3.00001
3.00001
3
3
3
3
3
3
3
3
3
3
2.99999
2.99998
2.99996
2.99995
2.99994
2.99995
2.99996
2.99998
2.99999
3
3
3
3
3
3
3
3
3
3.00001
3.00003
3.00006
3.00013
3.00022
3.00029
3.00032
3.00029
3.00022
3.00013
3.00006
3.00003
3.00001
3
3
3
3
3
3
3
3
3
3
3
2.99999
2.99999
2.99999
2.99999
2.99999
3
3
3
3
3
3
3
3
3
3
3.00001
3.00004
3.0001
3.00025
3.00048
3.00078
3.00102
3.00111
3.00102
3.00078
3.00048
3.00025
3.0001
3.00004
3.00001
3
3
3
3
3
3
3
3
3
3
3
3
3
3
3
3
3
3
3
3
3
3
3
3
3.00001
3.00004
3.00013
3.00036
3.00082
3.00154
3.00236
3.00295
3.00313
3.00295
3.00236
3.00154
3.00082
3.00036
3.00013
3.00004
3.00001
3
3
3
3
3
3
3
3
3
3
3
3
3
3
3
3
3
3
3
3
3
3
3.00001
3.00004
3.00013
3.00041
3.00107
3.00232
3.00407
3.00569
3.00646
3.00654
3.00646
3.00569
3.00407
3.00232
3.00107
3.00041
3.00013
3.00004
3.00001
3
3
3
3
3
3
3
3
3
3
3
3
3
3
3
3
3
3
3
3
3.00001
3.00003
3.0001
3.00036
3.00107
3.00265
3.00532
3.0083
3.00955
3.00803
3.00656
3.00803
3.00955
3.0083
3.00532
3.00265
3.00107
3.00036
3.00011
3.00003
3
3
3
3
3
3
3
3
3
3
3
3
3
3
3
3
3
3
3
3
3.00001
3.00006
3.00025
3.00082
3.00232
3.00532
3.00938
3.01113
3.00488
2.99078
2.98261
2.99078
3.00488
3.01113
3.00938
3.00532
3.00232
3.00082
3.00025
3.00008
3
3
3
3
3
3
3
3
3
3
3
3
3
3
3
3
3
3
3
3.00001
3.00003
3.00013
3.00048
3.00154
3.00407
3.0083
3.01113
3.00219
2.96762
2.91519
2.88943
2.91519
2.96762
3.00219
3.01113
3.0083
3.00407
3.00155
3.00049
3.00016
3
3
3
3
3
3
3
3
3
3
3
3
3
3
3
3
3
3
3
3.00001
3.00005
3.00022
3.00078
3.00236
3.00569
3.00955
3.00488
2.96762
2.8722
2.75361
2.70688
2.75361
2.8722
2.96762
3.00488
3.00955
3.00569
3.00236
3.00079
3.00027
3
3
3
3
3
3
3
3
3
3
3
3
3
3
3
3
3
3
3
3.00002
3.00007
3.00029
3.00102
3.00295
3.00646
3.00803
2.99078
2.91519
2.75361
2.59487
2.55279
2.59487
2.75361
2.91519
2.99078
3.00803
3.00646
3.00295
3.00104
3.00036
3
3
3
3
3
3
3
3
3
3
3
3
3
3
3
3
3
3
3
3.00002
3.00008
3.00032
3.00111
3.00313
3.00654
3.00656
2.98261
2.88943
2.70688
2.55279
2.52473
2.55279
2.70688
2.88943
2.98261
3.00656
3.00654
3.00314
3.00113
3.0004
3
3
3
3
3
3
3
3
3
3
3
3
3
3
3
3
3
3
3
3.00002
3.00007
3.00029
3.00102
3.00295
3.00646
3.00803
2.99078
2.91519
2.75361
2.59487
2.55279
2.59487
2.75361
2.91519
2.99078
3.00803
3.00646
3.00295
3.00104
3.00036
3
3
3
3
3
3
3
3
3
3
3
3
3
3
3
3
3
3
3
3.00001
3.00005
3.00022
3.00078
3.00236
3.00569
3.00955
3.00488
2.96762
2.8722
2.75361
2.70688
2.75361
2.8722
2.96762
3.00488
3.00955
3.00569
3.00236
3.00079
3.00027
3
3
3
3
3
3
3
3
3
3
3
3
3
3
3
3
3
3
3
3.00001
3.00003
3.00013
3.00048
3.00154
3.00407
3.0083
3.01113
3.00219
2.96762
2.91519
2.88943
2.91519
2.96762
3.00219
3.01113
3.0083
3.00407
3.00155
3.00049
3.00016
3
3
3
3
3
3
3
3
3
3
3
3
3
3
3
3
3
3
3
3
3.00001
3.00006
3.00025
3.00082
3.00232
3.00532
3.00938
3.01113
3.00488
2.99078
2.98261
2.99078
3.00488
3.01113
3.00938
3.00532
3.00232
3.00082
3.00025
3.00008
3
3
3
3
3
3
3
3
3
3
3
3
3
3
3
3
3
3
3
3
3.00001
3.00003
3.0001
3.00036
3.00107
3.00265
3.00532
3.0083
3.00955
3.00803
3.00656
3.00803
3.00955
3.0083
3.00532
3.00265
3.00107
3.00036
3.00011
3.00003
3
3
3
3
3
3
3
3
3
3
3
3
3
3
3
3
3
3
3
3
3
3.00001
3.00004
3.00013
3.00041
3.00107
3.00232
3.00407
3.00569
3.00646
3.00654
3.00646
3.00569
3.00407
3.00232
3.00107
3.00041
3.00013
3.00004
3.00001
3
3
3
3
3
3
3
3
3
3
3
3
3
3
3
3
3
3
3
3
3
3
3.00001
3.00004
3.00013
3.00036
3.00082
3.00155
3.00236
3.00295
3.00314
3.00295
3.00236
3.00155
3.00082
3.00036
3.00013
3.00004
3.00001
3
3
3
3
3
3
3
3
3
3
3
3
3
3
3
3
3
3
3
3
3
3
3
3
3.00001
3.00004
3.00011
3.00025
3.00049
3.00079
3.00104
3.00113
3.00104
3.00079
3.00049
3.00025
3.00011
3.00004
3.00001
3
3
3
3
3
3
3
3
3
3
3
3
3
3
3
3
3
3
3
3
3
3
3
3
3
3
3.00001
3.00003
3.00008
3.00016
3.00027
3.00036
3.0004
3.00036
3.00027
3.00016
3.00008
3.00003
3.00001
3
3
3
