# vtk DataFile Version 3.0
Brusselator Concentration Output
ASCII
DATASET STRUCTURED_POINTS
DIMENSIONS 40 40 1
ORIGIN 0.0 0.0 0.0
SPACING 0.005 0.005 1.0
POINT_DATA 1600
SCALARS C1 double 1
LOOKUP_TABLE default
1.12532
1.1088
1.05
0.942386
0.814676
0.700536
0.615972
0.560842
0.528401
0.511858
0.506833
0.51186
0.52841
0.560872
0.616047
0.700642
0.814477
0.940349
1.04178
1.08569
1.07606
1.04615
1.02121
1.00735
1.00154
0.999779
0.99955
0.999705
0.999859
0.999946
0.999983
0.999996
0.999999
1
1
1
1
1
1
1
1.1088
1.05515
0.956481
0.837634
0.726882
0.640741
0.582128
0.546244
0.526353
0.516793
0.514008
0.516796
0.526361
0.546269
0.58218
0.640754
0.726358
0.834593
0.945729
1.02799
1.05951
1.05039
1.02875
1.01224
1.00379
1.00058
0.999758
0.999726
0.999843
0.999932
0.999976
0.999993
0.999999
1
1
1
1
1
1
1
1.05
0.956481
0.82428
0.705614
0.620747
0.568449
0.540513
0.528487
0.525404
0.525928
0.526527
0.52593
0.525411
0.528504
0.540531
0.568338
0.619828
0.701436
0.811032
0.927948
1.01472
1.04682
1.03883
1.02086
1.00825
1.00232
1.00026
0.999809
0.999827
0.99991
0.999964
0.999988
0.999997
0.999999
1
1
1
1
1
1
0.942386
0.837634
0.705614
0.606621
0.550442
0.526297
0.522706
0.531084
0.544457
0.556273
0.560982
0.556275
0.544463
0.531093
0.522692
0.526083
0.549238
0.601846
0.692069
0.815324
0.940721
1.02205
1.04284
1.0304
1.01447
1.00507
1.00118
1.00002
0.999834
0.999887
0.999948
0.999981
0.999994
0.999999
1
1
1
1
1
1
0.814676
0.726882
0.620747
0.550442
0.520673
0.519728
0.538031
0.569133
0.606135
0.638131
0.651183
0.638133
0.606141
0.569137
0.537989
0.519421
0.519274
0.545607
0.609202
0.716856
0.853985
0.974336
1.03336
1.03683
1.02128
1.00868
1.00256
1.0004
0.999893
0.999873
0.999932
0.999973
0.999991
0.999998
1
1
1
1
1
1
0.700536
0.640741
0.568449
0.526297
0.519728
0.541612
0.588377
0.660967
0.758274
0.858136
0.90374
0.858141
0.758282
0.660964
0.588297
0.541196
0.518152
0.52169
0.560079
0.64429
0.773693
0.914429
1.00951
1.03689
1.02705
1.01267
1.00431
1.00097
1.00002
0.999876
0.999918
0.999964
0.999988
0.999997
0.999999
1
1
1
1
1
0.615972
0.582128
0.540513
0.522706
0.538031
0.588377
0.68639
0.870252
1.20539
1.63465
1.84119
1.63466
1.20541
0.870235
0.686245
0.587807
0.536244
0.5184
0.53543
0.597082
0.710458
0.855829
0.977044
1.03013
1.0305
1.01639
1.00622
1.00166
1.0002
0.999899
0.99991
0.999957
0.999984
0.999996
0.999999
1
1
1
1
1
0.560842
0.546244
0.528487
0.531084
0.569133
0.660967
0.870252
1.42399
2.61586
3.38463
3.48926
3.38464
2.6159
1.42393
0.869978
0.660165
0.567073
0.527036
0.526222
0.569406
0.666205
0.80753
0.944015
1.01908
1.03141
1.01933
1.008
1.00238
1.00041
0.999938
0.999909
0.999952
0.999983
0.999996
1
1
1
1
1
1
0.528401
0.526353
0.525404
0.544457
0.606135
0.758274
1.20539
2.61586
3.52302
3.36554
3.28128
3.36553
3.52299
2.61572
1.20486
0.757147
0.603754
0.540579
0.525257
0.554832
0.638367
0.773121
0.916899
1.00763
1.03061
1.02126
1.00942
1.003
1.00061
0.999984
0.999915
0.999954
0.999985
0.999999
1
1
1
1
1
1
0.511858
0.516793
0.525928
0.556273
0.638131
0.858136
1.63465
3.38463
3.36554
3.09818
3.00166
3.09817
3.36551
3.38449
1.63378
0.856664
0.635465
0.552481
0.527097
0.548237
0.623419
0.752951
0.899507
0.99926
1.0294
1.02231
1.01032
1.00343
1.00076
1.00003
0.999931
0.999964
0.999996
1.00001
1.00001
1.00001
1.00001
1.00001
1
1
0.506833
0.514008
0.526527
0.560982
0.651183
0.90374
1.84119
3.48926
3.28128
3.00166
2.90435
3.00165
3.28125
3.48913
1.84016
0.902107
0.648399
0.557215
0.528143
0.546405
0.618749
0.746351
0.893562
0.99623
1.02887
1.02264
1.01065
1.0036
1.00083
1.00006
0.999951
0.999983
1.00002
1.00003
1.00003
1.00003
1.00002
1.00002
1.00001
1.00001
0.51186
0.516796
0.52593
0.556275
0.638133
0.858141
1.63466
3.38464
3.36553
3.09817
3.00165
3.09816
3.3655
3.3845
1.63379
0.856668
0.635467
0.552483
0.527099
0.548241
0.623426
0.752964
0.89953
0.999294
1.02944
1.02235
1.01036
1.00346
1.00078
1.00004
0.999939
0.999976
1.00002
1.00004
1.00005
1.00006
1.00005
1.00004
1.00004
1.00003
0.52841
0.526361
0.525411
0.544463
0.606141
0.758282
1.20541
2.6159
3.52299
3.36551
3.28125
3.3655
3.52297
2.61576
1.20488
0.757155
0.60376
0.540585
0.525265
0.554845
0.63839
0.77316
0.916956
1.00769
1.03068
1.0213
1.00941
1.00294
1.00049
0.999823
0.999739
0.999792
0.999865
0.999936
0.999998
1.00005
1.00007
1.00008
1.00008
1.00008
0.560872
0.546269
0.528504
0.531093
0.569137
0.660964
0.870235
1.42393
2.61572
3.38449
3.48913
3.3845
2.61576
1.42388
0.869961
0.660162
0.567077
0.527046
0.526241
0.569441
0.666264
0.807613
0.944103
1.01913
1.03137
1.01912
1.0076
1.00175
0.999585
0.99898
0.998903
0.998995
0.999161
0.999372
0.9996
0.999809
0.999973
1.00008
1.00013
1.00016
0.616047
0.58218
0.540531
0.522692
0.537989
0.588297
0.686245
0.869978
1.20486
1.63378
1.84016
1.63379
1.20488
0.869961
0.686101
0.587728
0.536203
0.518388
0.535452
0.597148
0.710571
0.855946
0.977056
1.02988
1.02985
1.0152
1.0044
0.999243
0.997271
0.996641
0.996537
0.996699
0.99706
0.997581
0.998201
0.998834
0.999391
0.999813
1.00008
1.00021
0.700642
0.640754
0.568338
0.526083
0.519421
0.541196
0.587807
0.660165
0.757147
0.856664
0.902107
0.856668
0.757155
0.660162
0.587728
0.540783
0.517849
0.521483
0.559979
0.644309
0.773782
0.914391
1.00899
1.03551
1.02448
1.00874
0.998979
0.994398
0.992499
0.991779
0.991628
0.991868
0.992473
0.993437
0.994701
0.996131
0.997533
0.998717
0.999549
0.99997
0.814477
0.726358
0.619828
0.549238
0.519274
0.518152
0.536244
0.567073
0.603754
0.635465
0.648399
0.635467
0.60376
0.567077
0.536203
0.517849
0.517886
0.544427
0.608298
0.716264
0.853512
0.973392
1.03109
1.03245
1.01434
0.999153
0.990776
0.986964
0.985444
0.984936
0.984859
0.985037
0.985547
0.986578
0.988271
0.990578
0.993215
0.995737
0.997694
0.998754
0.940349
0.834593
0.701436
0.601846
0.545607
0.52169
0.5184
0.527036
0.540579
0.552481
0.557215
0.552483
0.540585
0.527046
0.518388
0.521483
0.544427
0.59711
0.687872
0.811971
0.937797
1.01819
1.03631
1.02002
1.00009
0.987496
0.981903
0.980647
0.981466
0.982701
0.983272
0.982798
0.981636
0.980655
0.980786
0.982545
0.985771
0.989679
0.993166
0.995209
1.04178
0.945729
0.811032
0.692069
0.609202
0.560079
0.53543
0.526222
0.525257
0.527097
0.528143
0.527099
0.525265
0.526241
0.535452
0.559979
0.608298
0.687872
0.797531
0.916315
1.00477
1.03609
1.02446
1.00173
0.985711
0.979801
0.982268
0.990195
1.00002
1.00794
1.01098
1.00802
1.00021
0.990426
0.982066
0.977551
0.977459
0.980607
0.984759
0.987579
1.08569
1.02799
0.927948
0.815324
0.716856
0.64429
0.597082
0.569406
0.554832
0.548237
0.546405
0.548241
0.554845
0.569441
0.597148
0.644309
0.716264
0.811971
0.916315
0.999169
1.03459
1.027
1.00354
0.985748
0.982012
0.994288
1.02156
1.05868
1.0961
1.1234
1.13335
1.12349
1.0963
1.05902
1.02186
0.99364
0.97784
0.972548
0.973147
0.974918
1.07606
1.05951
1.01472
0.940721
0.853985
0.773693
0.710458
0.666205
0.638367
0.623419
0.618749
0.623426
0.63839
0.666264
0.710571
0.773782
0.853512
0.937797
1.00477
1.03459
1.02779
1.00473
0.986742
0.987189
1.01572
1.07986
1.1757
1.28007
1.36404
1.41348
1.42914
1.41356
1.36425
1.28046
1.17617
1.07974
1.0131
0.977887
0.963504
0.959255
1.04615
1.05039
1.04682
1.02205
0.974336
0.914429
0.855829
0.80753
0.773121
0.752951
0.746351
0.752964
0.77316
0.807613
0.855946
0.914391
0.973392
1.01819
1.03609
1.027
1.00473
0.987299
0.991523
1.03774
1.15136
1.33148
1.50546
1.59027
1.59276
1.56864
1.55666
1.56867
1.59283
1.59037
1.50543
1.33046
1.14723
1.02703
0.969167
0.947831
1.02121
1.02875
1.03883
1.04284
1.03336
1.00951
0.977044
0.944015
0.916899
0.899507
0.893562
0.89953
0.916956
0.944103
0.977056
1.00899
1.03109
1.03631
1.02446
1.00354
0.986742
0.991523
1.04725
1.20244
1.45962
1.63317
1.58697
1.4449
1.31548
1.23349
1.20595
1.23348
1.31541
1.44462
1.58595
1.62998
1.45071
1.18416
1.01901
0.955409
1.00735
1.01224
1.02086
1.0304
1.03683
1.03689
1.03013
1.01908
1.00763
0.99926
0.99623
0.999294
1.00769
1.01913
1.02988
1.03551
1.03245
1.02002
1.00173
0.985748
0.987189
1.03774
1.20244
1.50611
1.65525
1.48945
1.25384
1.0621
0.932764
0.860435
0.837364
0.860418
0.932679
1.06175
1.25265
1.48611
1.64629
1.48119
1.16508
1.00913
1.00154
1.00379
1.00825
1.01447
1.02128
1.02705
1.0305
1.03141
1.03061
1.0294
1.02887
1.02944
1.03068
1.03137
1.02985
1.02448
1.01434
1.00009
0.985711
0.982012
1.01572
1.15136
1.45962
1.65525
1.44665
1.15243
0.917999
0.760496
0.665698
0.616406
0.601244
0.616391
0.665621
0.760179
0.916952
1.14983
1.44226
1.64711
1.43234
1.15424
0.999779
1.00058
1.00232
1.00507
1.00868
1.01267
1.01639
1.01933
1.02126
1.02231
1.02264
1.02235
1.0213
1.01912
1.0152
1.00874
0.999153
0.987496
0.979801
0.994288
1.07986
1.33148
1.63317
1.48945
1.15243
0.873153
0.687528
0.577223
0.516635
0.48705
0.478241
0.487039
0.516576
0.576974
0.686711
0.871348
1.15153
1.50065
1.66584
1.43024
0.99955
0.999758
1.00026
1.00118
1.00256
1.00431
1.00622
1.008
1.00942
1.01032
1.01065
1.01036
1.00941
1.0076
1.0044
0.998979
0.990776
0.981903
0.982268
1.02156
1.1757
1.50546
1.58697
1.25384
0.917999
0.687528
0.552443
0.479867
0.443145
0.426329
0.421508
0.42632
0.4431
0.479679
0.551846
0.686422
0.919602
1.27609
1.68263
1.76472
0.999705
0.999726
0.999809
1.00002
1.0004
1.00097
1.00166
1.00238
1.003
1.00343
1.0036
1.00346
1.00294
1.00175
0.999243
0.994398
0.986964
0.980647
0.990195
1.05868
1.28007
1.59027
1.4449
1.0621
0.760496
0.577223
0.479867
0.43193
0.4097
0.400382
0.397876
0.400375
0.409663
0.431785
0.479434
0.576645
0.763779
1.09135
1.57408
1.95567
0.999859
0.999843
0.999827
0.999834
0.999893
1.00002
1.0002
1.00041
1.00061
1.00076
1.00083
1.00078
1.00049
0.999585
0.997271
0.992499
0.985444
0.981466
1.00002
1.0961
1.36404
1.59276
1.31548
0.932764
0.665698
0.516635
0.443145
0.4097
0.39574
0.390688
0.389506
0.390682
0.395709
0.409581
0.442818
0.516401
0.67001
0.966027
1.45855
1.96964
0.999946
0.999932
0.99991
0.999887
0.999873
0.999876
0.999899
0.999938
0.999984
1.00003
1.00006
1.00004
0.999823
0.99898
0.996641
0.991779
0.984936
0.982701
1.00794
1.1234
1.41348
1.56864
1.23349
0.860435
0.616406
0.48705
0.426329
0.400382
0.390688
0.387867
0.387387
0.387861
0.39066
0.400278
0.42606
0.487004
0.621256
0.895584
1.38078
1.92656
0.999983
0.999976
0.999964
0.999948
0.999932
0.999918
0.99991
0.999909
0.999915
0.999931
0.999951
0.999939
0.999739
0.998903
0.996537
0.991628
0.984859
0.983272
1.01098
1.13335
1.42914
1.55666
1.20595
0.837364
0.601244
0.478241
0.421508
0.397876
0.389506
0.387387
0.387131
0.387382
0.389479
0.397776
0.421256
0.478255
0.606258
0.873041
1.35396
1.90503
0.999996
0.999993
0.999988
0.999981
0.999973
0.999964
0.999957
0.999952
0.999954
0.999964
0.999983
0.999976
0.999792
0.998995
0.996699
0.991868
0.985037
0.982798
1.00802
1.12349
1.41356
1.56867
1.23348
0.860418
0.616391
0.487039
0.42632
0.400375
0.390682
0.387861
0.387382
0.387855
0.390654
0.40027
0.426051
0.486993
0.621241
0.895568
1.38077
1.92657
0.999999
0.999999
0.999997
0.999994
0.999991
0.999988
0.999984
0.999983
0.999985
0.999996
1.00002
1.00002
0.999865
0.999161
0.99706
0.992473
0.985547
0.981636
1.00021
1.0963
1.36425
1.59283
1.31541
0.932679
0.665621
0.516576
0.4431
0.409663
0.395709
0.39066
0.389479
0.390654
0.395678
0.409545
0.442773
0.516342
0.669935
0.965941
1.45849
1.96965
1
1
0.999999
0.999999
0.999998
0.999997
0.999996
0.999996
0.999999
1.00001
1.00003
1.00004
0.999936
0.999372
0.997581
0.993437
0.986578
0.980655
0.990426
1.05902
1.28046
1.59037
1.44462
1.06175
0.760179
0.576974
0.479679
0.431785
0.409581
0.400278
0.397776
0.40027
0.409545
0.43164
0.479247
0.576397
0.763461
1.09099
1.57377
1.95568
1
1
1
1
1
0.999999
0.999999
1
1
1.00001
1.00003
1.00005
0.999998
0.9996
0.998201
0.994701
0.988271
0.980786
0.982066
1.02186
1.17617
1.50543
1.58595
1.25265
0.916952
0.686711
0.551846
0.479434
0.442818
0.42606
0.421256
0.426051
0.442773
0.479247
0.55125
0.685605
0.918542
1.27485
1.68152
1.76456
1
1
1
1
1
1
1
1
1
1.00001
1.00003
1.00006
1.00005
0.999809
0.998834
0.996131
0.990578
0.982545
0.977551
0.99364
1.07974
1.33046
1.62998
1.48611
1.14983
0.871348
0.686422
0.576645
0.516401
0.487004
0.478255
0.486993
0.516342
0.576397
0.685605
0.869529
1.14887
1.4971
1.66231
1.42872
1
1
1
1
1
1
1
1
1
1.00001
1.00002
1.00005
1.00007
0.999973
0.999391
0.997533
0.993215
0.985771
0.977459
0.97784
1.0131
1.14723
1.45071
1.64629
1.44226
1.15153
0.919602
0.763779
0.67001
0.621256
0.606258
0.621241
0.669935
0.763461
0.918542
1.14887
1.43763
1.63743
1.42258
1.14885
1
1
1
1
1
1
1
1
1
1.00001
1.00002
1.00004
1.00008
1.00008
0.999813
0.998717
0.995737
0.989679
0.980607
0.972548
0.977887
1.02703
1.18416
1.48119
1.64711
1.50065
1.27609
1.09135
0.966027
0.895584
0.873041
0.895568
0.965941
1.09099
1.27485
1.4971
1.63743
1.45507
1.14563
0.996485
1
1
1
1
1
1
1
1
1
1
1.00001
1.00004
1.00008
1.00013
1.00008
0.999549
0.997694
0.993166
0.984759
0.973147
0.963504
0.969167
1.01901
1.16508
1.43234
1.66584
1.68263
1.57408
1.45855
1.38078
1.35396
1.38077
1.45849
1.57377
1.68152
1.66231
1.42258
1.14563
0.989101
0.93114
1
1
1
1
1
1
1
1
1
1
1.00001
1.00003
1.00008
1.00016
1.00021
0.99997
0.998754
0.995209
0.987579
0.974918
0.959255
0.947831
0.955409
1.00913
1.15424
1.43024
1.76472
1.95567
1.96964
1.92656
1.90503
1.92657
1.96965
1.95568
1.76456
1.42872
1.14885
0.996485
0.93114
0.90876
SCALARS C2 double 1
LOOKUP_TABLE default
2.81542
2.7816
2.76605
2.81927
2.94245
3.10062
3.25746
3.39044
3.48904
3.54913
3.56927
3.54913
3.48903
3.39039
3.2573
3.10017
2.94165
2.81922
2.77154
2.80494
2.87821
2.94248
2.97984
2.99593
3.00086
3.00146
3.00096
3.00047
3.00018
3.00006
3.00002
3
3
3
3
3
3
3
3
3
2.7816
2.80064
2.86822
2.99669
3.16613
3.34519
3.50903
3.64341
3.74166
3.80114
3.82102
3.80114
3.74165
3.64337
3.50888
3.34482
3.1657
2.99813
2.87865
2.83614
2.86408
2.9198
2.96477
2.98887
2.99832
3.00081
3.0009
3.00052
3.00023
3.00008
3.00002
3.00001
3
3
3
3
3
3
3
3
2.76605
2.86822
3.04465
3.25737
3.47425
3.67348
3.84239
3.97482
4.06868
4.12422
4.14254
4.12422
4.06868
3.97479
3.84228
3.67324
3.47425
3.2606
3.06167
2.91958
2.8665
2.88965
2.93824
2.97472
2.99272
2.99916
3.00063
3.00059
3.00031
3.00013
3.00004
3.00001
3
3
3
3
3
3
3
3
2.81927
2.99669
3.25737
3.52171
3.76063
3.965
4.13008
4.25379
4.33706
4.38369
4.39849
4.38369
4.33705
4.25377
4.13001
3.96486
3.76092
3.52611
3.27939
3.05866
2.91519
2.87635
2.90932
2.95485
2.98363
2.99607
2.99992
3.00056
3.0004
3.00019
3.00007
3.00002
3.00001
3
3
3
3
3
3
3
2.94245
3.16613
3.47425
3.76063
4.00346
4.20187
4.35368
4.45738
4.51611
4.54054
4.54604
4.54054
4.5161
4.45737
4.35364
4.20184
4.004
3.76563
3.49868
3.23056
3.01207
2.89745
2.89058
2.93332
2.97157
2.99132
2.99855
3.00034
3.00044
3.00025
3.0001
3.00003
3.00001
3
3
3
3
3
3
3
3.10062
3.34519
3.67348
3.965
4.20187
4.38468
4.50782
4.56389
4.55288
4.50097
4.47026
4.50096
4.55287
4.56388
4.50783
4.38481
4.20272
3.97037
3.69827
3.40625
3.13651
2.9522
2.89078
2.91571
2.95828
2.9852
2.99651
2.99988
3.00043
3.00029
3.00013
3.00005
3.00001
3
3
3
3
3
3
3
3.25746
3.50903
3.84239
4.13008
4.35368
4.50782
4.57086
4.49797
4.22027
3.77922
3.545
3.7792
4.22024
4.49797
4.57095
4.50818
4.35496
4.1358
3.8664
3.56432
3.26374
3.02598
2.90953
2.90601
2.9461
2.97853
2.99398
2.9992
3.00033
3.00032
3.00016
3.00006
3.00002
3
3
3
3
3
3
3
3.39044
3.64341
3.97482
4.25379
4.45738
4.56389
4.49797
4.00843
2.64711
1.52263
1.2801
1.52261
2.64705
4.00846
4.49821
4.56458
4.45923
4.25992
3.99761
3.69278
3.3752
3.10111
2.93892
2.90441
2.93681
2.97232
2.99137
2.9984
3.00018
3.00033
3.00018
3.00007
3.00002
3
3
3
3
3
3
3
3.48904
3.74166
4.06868
4.33706
4.51611
4.55288
4.22027
2.64711
1.11892
0.931747
0.921333
0.931746
1.11891
2.64723
4.22081
4.55402
4.51859
4.3436
4.09025
3.78613
3.45989
3.16345
2.96868
2.90786
2.93093
2.96745
2.9891
2.99765
3
3.00031
3.00019
3.00008
3.00002
3
3
3
3
3
3
3
3.54913
3.80114
4.12422
4.38369
4.54054
4.50097
3.77922
1.52263
0.931747
0.933575
0.949775
0.933576
0.931752
1.52274
3.78018
4.50258
4.54354
4.39055
4.1449
3.84238
3.51226
3.20397
2.99013
2.91214
2.92794
2.96439
2.98757
2.99711
2.99986
3.00028
3.00018
3.00006
3
2.99998
2.99998
2.99999
2.99999
2.99999
3
3
3.56927
3.82102
4.14254
4.39849
4.54604
4.47026
3.545
1.2801
0.921333
0.949775
0.970296
0.949776
0.921339
1.2802
3.54616
4.47209
4.54926
4.40547
4.16289
3.86113
3.52993
3.21795
2.99787
2.91395
2.92704
2.96333
2.987
2.99687
2.99976
3.00023
3.00013
3.00001
2.99996
2.99994
2.99994
2.99995
2.99997
2.99998
2.99999
2.99999
3.54913
3.80114
4.12422
4.38369
4.54054
4.50096
3.7792
1.52261
0.931746
0.933576
0.949776
0.933577
0.931751
1.52272
3.78016
4.50257
4.54354
4.39055
4.1449
3.84238
3.51226
3.20395
2.9901
2.91208
2.92786
2.96429
2.98746
2.99699
2.99974
3.00017
3.00006
2.99995
2.99989
2.99987
2.99987
2.99989
2.99991
2.99993
2.99995
2.99996
3.48903
3.74165
4.06868
4.33705
4.5161
4.55287
4.22024
2.64705
1.11891
0.931752
0.921339
0.931751
1.11891
2.64717
4.22078
4.55401
4.51858
4.34359
4.09024
3.78612
3.45986
3.1634
2.96858
2.90771
2.93075
2.96725
2.98892
2.99749
2.99988
3.00022
3.00012
2.99999
2.9999
2.99984
2.99981
2.9998
2.99981
2.99984
2.99987
2.99989
3.39039
3.64337
3.97479
4.25377
4.45737
4.56388
4.49797
4.00846
2.64723
1.52274
1.2802
1.52272
2.64717
4.0085
4.49821
4.56456
4.45921
4.25989
3.99758
3.69273
3.37511
3.10096
2.93871
2.90416
2.93657
2.97218
2.9914
2.99865
3.00063
3.00094
3.00085
3.00069
3.00048
3.00025
3.00003
2.99985
2.99975
2.99971
2.99972
2.99973
3.2573
3.50888
3.84228
4.13001
4.35364
4.50783
4.57095
4.49821
4.22081
3.78018
3.54616
3.78016
4.22078
4.49821
4.57103
4.50819
4.35492
4.13573
3.86629
3.56414
3.26348
3.02564
2.90918
2.90581
2.94626
2.97925
2.99544
3.00145
3.0033
3.00379
3.00381
3.00353
3.00299
3.00225
3.00144
3.00069
3.0001
2.99974
2.99955
2.99948
3.10017
3.34482
3.67324
3.96486
4.20184
4.38481
4.50818
4.56458
4.55402
4.50258
4.47209
4.50257
4.55401
4.56456
4.50819
4.38494
4.20269
3.97022
3.698
3.40583
3.13594
2.95165
2.89063
2.91647
2.96045
2.98924
3.00271
3.00823
3.01057
3.01163
3.01188
3.01138
3.01016
3.00834
3.00617
3.00396
3.00203
3.0006
2.99971
2.99931
2.94165
3.1657
3.47425
3.76092
4.004
4.20272
4.35496
4.45923
4.51859
4.54354
4.54926
4.54354
4.51858
4.45921
4.35492
4.20269
4.00452
3.76588
3.49861
3.23009
3.01138
2.89726
2.89203
2.93764
2.97979
3.00417
3.01621
3.02232
3.02573
3.02756
3.02809
3.02735
3.02529
3.02196
3.01759
3.0127
3.00797
3.00404
3.00133
2.99997
2.81922
2.99813
3.2606
3.52611
3.76563
3.97037
4.1358
4.25992
4.3436
4.39055
4.40547
4.39055
4.34359
4.25989
4.13573
3.97022
3.76588
3.53039
3.28247
3.06025
2.9161
2.87875
2.91601
2.96826
3.00533
3.0265
3.03818
3.04473
3.04821
3.04977
3.05015
3.0496
3.04781
3.04414
3.03818
3.03024
3.02137
3.01308
3.00678
3.00341
2.77154
2.87865
3.06167
3.27939
3.49868
3.69827
3.8664
3.99761
4.09025
4.1449
4.16289
4.1449
4.09024
3.99758
3.86629
3.698
3.49861
3.28247
3.0787
2.93098
2.87477
2.90029
2.95712
3.00582
3.03722
3.0551
3.06338
3.06449
3.06115
3.05691
3.05502
3.05678
3.06082
3.06386
3.06266
3.05578
3.0443
3.0311
3.01973
3.0132
2.80494
2.83614
2.91958
3.05866
3.23056
3.40625
3.56432
3.69278
3.78613
3.84238
3.86113
3.84238
3.78612
3.69273
3.56414
3.40583
3.23009
3.06025
2.93098
2.87441
2.89241
2.94915
3.00569
3.0462
3.06926
3.07479
3.06184
3.03278
2.99673
2.96722
2.95588
2.96712
2.99643
3.03215
3.06081
3.07394
3.07119
3.05834
3.04346
3.03386
2.87821
2.86408
2.8665
2.91519
3.01207
3.13651
3.26374
3.3752
3.45989
3.51226
3.52993
3.51226
3.45986
3.37511
3.26348
3.13594
3.01138
2.9161
2.87477
2.89241
2.94628
3.0054
3.05193
3.07827
3.07526
3.02875
2.93029
2.7961
2.66635
2.57774
2.54702
2.57763
2.66604
2.79542
2.92914
3.02748
3.07556
3.08521
3.07701
3.06816
2.94248
2.9198
2.88965
2.87635
2.89745
2.9522
3.02598
3.10111
3.16345
3.20397
3.21795
3.20395
3.1634
3.10096
3.02564
2.95165
2.89726
2.87875
2.90029
2.94915
3.0054
3.05387
3.08221
3.06871
2.97224
2.75383
2.45923
2.21611
2.08245
2.0283
2.01497
2.02823
2.08226
2.21566
2.45847
2.75351
2.97464
3.07861
3.10908
3.1128
2.97984
2.96477
2.93824
2.90932
2.89058
2.89078
2.90953
2.93892
2.96868
2.99013
2.99787
2.9901
2.96858
2.93871
2.90918
2.89063
2.89203
2.91601
2.95712
3.00569
3.05193
3.08221
3.06474
2.9259
2.58029
2.16551
1.95542
1.9316
1.97583
2.02097
2.03859
2.02096
1.97581
1.93165
1.95589
2.16808
2.59002
2.94871
3.10725
3.15361
2.99593
2.98887
2.97472
2.95485
2.93332
2.91571
2.90601
2.90441
2.90786
2.91214
2.91395
2.91208
2.90771
2.90416
2.90581
2.91647
2.93764
2.96826
3.00582
3.0462
3.07827
3.06871
2.9259
2.50966
2.03331
1.90002
1.98611
2.12666
2.2516
2.33321
2.36126
2.33321
2.25164
2.12688
1.98708
1.90363
2.04716
2.55192
2.99615
3.15817
3.00086
2.99832
2.99272
2.98363
2.97157
2.95828
2.9461
2.93681
2.93093
2.92794
2.92704
2.92786
2.93075
2.93657
2.94626
2.96045
2.97979
3.00533
3.03722
3.06926
3.07526
2.97224
2.58029
2.03331
1.89885
2.04507
2.25644
2.44952
2.59473
2.68319
2.71278
2.68319
2.59477
2.44977
2.25749
2.04847
1.90868
2.06894
2.66954
3.0623
3.00146
3.00081
2.99916
2.99607
2.99132
2.9852
2.97853
2.97232
2.96745
2.96439
2.96333
2.96429
2.96725
2.97218
2.97925
2.98924
3.00417
3.0265
3.0551
3.07479
3.02875
2.75383
2.16551
1.90002
2.04507
2.3034
2.55288
2.7542
2.8985
2.98503
3.01388
2.98503
2.89852
2.7544
2.55384
2.30649
2.05182
1.91338
2.21279
2.7743
3.00096
3.0009
3.00063
2.99992
2.99855
2.99651
2.99398
2.99137
2.9891
2.98757
2.987
2.98746
2.98892
2.9914
2.99544
3.00271
3.01621
3.03818
3.06338
3.06184
2.93029
2.45923
1.95542
1.98611
2.25644
2.55288
2.80667
3.00361
3.14418
3.22907
3.25754
3.22907
3.14419
3.00375
2.80748
2.55566
2.26137
1.98548
1.93171
2.30616
3.00047
3.00052
3.00059
3.00056
3.00034
2.99988
2.9992
2.9984
2.99765
2.99711
2.99687
2.99699
2.99749
2.99865
3.00145
3.00823
3.02232
3.04473
3.06449
3.03278
2.7961
2.21611
1.9316
2.12666
2.44952
2.7542
3.00361
3.19655
3.33593
3.42118
3.45
3.42118
3.33592
3.19665
3.00428
2.75671
2.45345
2.11788
1.86038
1.90286
3.00018
3.00023
3.00031
3.0004
3.00044
3.00043
3.00033
3.00018
3
2.99986
2.99976
2.99974
2.99988
3.00063
3.0033
3.01057
3.02573
3.04821
3.06115
2.99673
2.66635
2.08245
1.97583
2.2516
2.59473
2.8985
3.14418
3.33593
3.47633
3.56322
3.59276
3.56321
3.47632
3.33599
3.14475
2.90083
2.5982
2.23823
1.87834
1.70602
3.00006
3.00008
3.00013
3.00019
3.00025
3.00029
3.00032
3.00033
3.00031
3.00028
3.00023
3.00017
3.00022
3.00094
3.00379
3.01163
3.02756
3.04977
3.05691
2.96722
2.57774
2.0283
2.02097
2.33321
2.68319
2.98503
3.22907
3.42118
3.56322
3.65178
3.68203
3.65178
3.56321
3.42123
3.22959
2.98726
2.68648
2.31761
1.91049
1.64008
3.00002
3.00002
3.00004
3.00007
3.0001
3.00013
3.00016
3.00018
3.00019
3.00018
3.00013
3.00006
3.00012
3.00085
3.00381
3.01188
3.02809
3.05015
3.05502
2.95588
2.54702
2.01497
2.03859
2.36126
2.71278
3.01388
3.25754
3.45
3.59276
3.68203
3.71257
3.68203
3.59275
3.45004
3.25804
3.01608
2.71604
2.34501
1.92421
1.62638
3
3.00001
3.00001
3.00002
3.00003
3.00005
3.00006
3.00007
3.00008
3.00006
3.00001
2.99995
2.99999
3.00069
3.00353
3.01138
3.02735
3.0496
3.05678
2.96712
2.57763
2.02823
2.02096
2.33321
2.68319
2.98503
3.22907
3.42118
3.56321
3.65178
3.68203
3.65177
3.5632
3.42123
3.22958
2.98726
2.68648
2.31761
1.91047
1.64003
3
3
3
3.00001
3.00001
3.00001
3.00002
3.00002
3.00002
3
2.99996
2.99989
2.9999
3.00048
3.00299
3.01016
3.02529
3.04781
3.06082
2.99643
2.66604
2.08226
1.97581
2.25164
2.59477
2.89852
3.14419
3.33592
3.47632
3.56321
3.59275
3.5632
3.47632
3.33599
3.14476
2.90086
2.59824
2.23827
1.87831
1.70585
3
3
3
3
3
3
3
3
3
2.99998
2.99994
2.99987
2.99984
3.00025
3.00225
3.00834
3.02196
3.04414
3.06386
3.03215
2.79542
2.21566
1.93165
2.12688
2.44977
2.7544
3.00375
3.19665
3.33599
3.42123
3.45004
3.42123
3.33599
3.19674
3.00442
2.75691
2.45369
2.11811
1.86041
1.9024
3
3
3
3
3
3
3
3
3
2.99998
2.99994
2.99987
2.99981
3.00003
3.00144
3.00617
3.01759
3.03818
3.06266
3.06081
2.92914
2.45847
1.95589
1.98708
2.25749
2.55384
2.80748
3.00428
3.14475
3.22959
3.25804
3.22958
3.14476
3.00442
2.80828
2.55662
2.26243
1.98647
1.93216
2.30534
3
3
3
3
3
3
3
3
3
2.99999
2.99995
2.99989
2.9998
2.99985
3.00069
3.00396
3.0127
3.03024
3.05578
3.07394
3.02748
2.75351
2.16808
1.90363
2.04847
2.30649
2.55566
2.75671
2.90083
2.98726
3.01608
2.98726
2.90086
2.75691
2.55662
2.30959
2.05528
1.91717
2.21558
2.77435
3
3
3
3
3
3
3
3
3
2.99999
2.99997
2.99991
2.99981
2.99975
3.0001
3.00203
3.00797
3.02137
3.0443
3.07119
3.07556
2.97464
2.59002
2.04716
1.90868
2.05182
2.26137
2.45345
2.5982
2.68648
2.71604
2.68648
2.59824
2.45369
2.26243
2.05528
1.91878
2.0836
2.67999
3.06604
3
3
3
3
3
3
3
3
3
2.99999
2.99998
2.99993
2.99984
2.99971
2.99974
3.0006
3.00404
3.01308
3.0311
3.05834
3.08521
3.07861
2.94871
2.55192
2.06894
1.91338
1.98548
2.11788
2.23823
2.31761
2.34501
2.31761
2.23827
2.11811
1.98647
1.91717
2.0836
2.59523
3.02005
3.17077
3
3
3
3
3
3
3
3
3
3
2.99999
2.99995
2.99987
2.99972
2.99955
2.99971
3.00133
3.00678
3.01973
3.04346
3.07701
3.10908
3.10725
2.99615
2.66954
2.21279
1.93171
1.86038
1.87834
1.91049
1.92421
1.91047
1.87831
1.86041
1.93216
2.21558
2.67999
3.02005
3.15211
3.18493
3
3
3
3
3
3
3
3
3
3
2.99999
2.99996
2.99989
2.99973
2.99948
2.99931
2.99997
3.00341
3.0132
3.03386
3.06816
3.1128
3.15361
3.15817
3.0623
2.7743
2.30616
1.90286
1.70602
1.64008
1.62638
1.64003
1.70585
1.9024
2.30534
2.77435
3.06604
3.17077
3.18493
3.17685
