# vtk DataFile Version 3.0
Brusselator Concentration Output
ASCII
DATASET STRUCTURED_POINTS
DIMENSIONS 40 40 1
ORIGIN 0.0 0.0 0.0
SPACING 0.005 0.005 1.0
POINT_DATA 1600
SCALARS C1 double 1
LOOKUP_TABLE default
0.99263
0.992474
0.994879
1.005
1.02894
1.06968
1.12196
1.17281
1.21044
1.2313
1.23767
1.2313
1.21044
1.17281
1.12196
1.06968
1.02896
1.00513
0.995331
0.993688
0.995286
0.997331
0.998778
0.999545
0.999869
0.999978
1
1.00001
1
1
1
1
1
1
1
1
1
1
1
1
0.992474
0.99574
1.00698
1.03422
1.08275
1.14362
1.19242
1.21175
1.20708
1.19534
1.18989
1.19534
1.20708
1.21175
1.19242
1.14363
1.08282
1.03449
1.00773
0.997461
0.995658
0.996813
0.998286
0.999265
0.999747
0.999934
0.999991
1
1
1
1
1
1
1
1
1
1
1
1
1
0.994879
1.00698
1.03977
1.1023
1.17946
1.21909
1.18874
1.11607
1.04328
0.994231
0.977311
0.99423
1.04328
1.11607
1.18875
1.21914
1.17966
1.10287
1.04111
1.00952
0.998392
0.996535
0.997534
0.998746
0.999496
0.999839
0.999962
0.999996
1
1
1
1
1
1
1
1
1
1
1
1
1.005
1.03422
1.1023
1.1939
1.22679
1.14418
1.00378
0.874712
0.783656
0.73222
0.715818
0.73222
0.783656
0.874716
1.0038
1.14429
1.22715
1.19491
1.10442
1.03741
1.00717
0.997988
0.997027
0.998119
0.999132
0.999683
0.999909
0.999982
1
1
1
1
1
1
1
1
1
1
1
1
1.02894
1.08275
1.17946
1.22679
1.12294
0.936444
0.76852
0.652906
0.584613
0.550143
0.539753
0.550143
0.584613
0.652911
0.768548
0.936572
1.12339
1.22806
1.18205
1.0855
1.02598
1.00307
0.997512
0.997625
0.998711
0.999472
0.999829
0.999958
0.999994
1
1
1
1
1
1
1
1
1
1
1
1.06968
1.14362
1.21909
1.14418
0.936444
0.734361
0.596646
0.51814
0.478043
0.459959
0.454861
0.459959
0.478043
0.518145
0.596674
0.734491
0.936899
1.14533
1.22103
1.14353
1.05583
1.01319
0.999711
0.997564
0.998337
0.999233
0.999725
0.999923
0.999985
0.999999
1
1
1
1
1
1
1
1
1
1
1.12196
1.19242
1.18874
1.00378
0.76852
0.596646
0.499893
0.453076
0.433072
0.425818
0.424133
0.425818
0.433072
0.453081
0.499919
0.596764
0.768921
1.00459
1.18893
1.18652
1.09132
1.0279
1.00386
0.998138
0.998114
0.999007
0.999612
0.999881
0.999973
0.999997
1
1
1
1
1
1
1
1
1
1
1.17281
1.21175
1.11607
0.874712
0.652906
0.51814
0.453076
0.427063
0.41959
0.419158
0.419672
0.419158
0.419591
0.427068
0.453099
0.518243
0.653234
0.875145
1.11422
1.1985
1.12278
1.04443
1.00934
0.999289
0.998087
0.998833
0.999506
0.999838
0.999959
0.999993
1
1
1
1
1
1
1
1
1
1
1.21044
1.20708
1.04328
0.783656
0.584613
0.478043
0.433072
0.41959
0.419911
0.424047
0.426122
0.424047
0.419912
0.419594
0.433093
0.478133
0.584875
0.783765
1.03973
1.18725
1.14364
1.05895
1.01482
1.00067
0.998208
0.998724
0.999423
0.999801
0.999947
0.99999
1
1
1
1
1
1
1
1
1
1
1.2313
1.19534
0.994231
0.73222
0.550143
0.459959
0.425818
0.419158
0.424047
0.431121
0.434262
0.431121
0.424048
0.419162
0.425838
0.460041
0.550362
0.732117
0.989601
1.17123
1.15392
1.06855
1.01882
1.00178
0.998358
0.998671
0.999371
0.999776
0.999938
0.999988
0.999999
1
1
1
1
1
1
1
1
1
1.23767
1.18989
0.977311
0.715818
0.539753
0.454861
0.424133
0.419672
0.426122
0.434262
0.437803
0.434262
0.426123
0.419676
0.424153
0.454941
0.539958
0.715642
0.972313
1.16433
1.15679
1.07186
1.02028
1.0022
0.998424
0.998656
0.999354
0.999767
0.999935
0.999987
0.999999
1
1
1
1
1
1
1
1
1
1.2313
1.19534
0.99423
0.73222
0.550143
0.459959
0.425818
0.419158
0.424047
0.431121
0.434262
0.431121
0.424048
0.419162
0.425839
0.460041
0.550362
0.732117
0.989601
1.17123
1.15392
1.06855
1.01882
1.00177
0.998358
0.998671
0.999372
0.999778
0.99994
0.999991
1
1
1
1
1
1
0.999999
0.999999
0.999999
0.999999
1.21044
1.20708
1.04328
0.783656
0.584613
0.478043
0.433072
0.419591
0.419912
0.424048
0.426123
0.424048
0.419912
0.419595
0.433094
0.478133
0.584876
0.783765
1.03973
1.18725
1.14364
1.05895
1.01482
1.00067
0.998209
0.998727
0.99943
0.999812
0.999962
1.00001
1.00002
1.00002
1.00002
1.00001
1.00001
1
1
0.999999
0.999999
0.999999
1.17281
1.21175
1.11607
0.874716
0.652911
0.518145
0.453081
0.427068
0.419594
0.419162
0.419676
0.419162
0.419595
0.427072
0.453104
0.518248
0.653239
0.875149
1.11422
1.19849
1.12277
1.04443
1.00934
0.999293
0.998098
0.998855
0.999542
0.999888
1.00002
1.00007
1.00008
1.00007
1.00006
1.00005
1.00004
1.00002
1.00001
1
1
0.999998
1.12196
1.19242
1.18875
1.0038
0.768548
0.596674
0.499919
0.453099
0.433093
0.425838
0.424153
0.425839
0.433094
0.453104
0.499945
0.596793
0.76895
1.00461
1.18894
1.18652
1.09132
1.0279
1.00387
0.998163
0.998165
0.999094
0.99974
1.00005
1.00017
1.00022
1.00023
1.00022
1.0002
1.00017
1.00013
1.00009
1.00005
1.00002
1.00001
1
1.06968
1.14363
1.21914
1.14429
0.936572
0.734491
0.596764
0.518243
0.478133
0.460041
0.454941
0.460041
0.478133
0.518248
0.596793
0.734622
0.937027
1.14543
1.22109
1.14355
1.05584
1.01321
0.999756
0.997662
0.99851
0.999498
1.00008
1.00036
1.00048
1.00053
1.00054
1.00053
1.0005
1.00044
1.00036
1.00027
1.00017
1.0001
1.00005
1.00002
1.02896
1.08282
1.17966
1.22715
1.12339
0.936899
0.768921
0.653234
0.584875
0.550362
0.539958
0.550362
0.584876
0.653239
0.76895
0.937027
1.12384
1.22842
1.18226
1.08558
1.02603
1.00315
0.997671
0.997918
0.999176
1.00011
1.00061
1.00081
1.00086
1.00086
1.00085
1.00086
1.00087
1.00085
1.00078
1.00064
1.00047
1.0003
1.00017
1.0001
1.00513
1.03449
1.10287
1.19491
1.22806
1.14533
1.00459
0.875145
0.783765
0.732117
0.715642
0.732117
0.783765
0.875149
1.00461
1.14543
1.22842
1.19592
1.10501
1.03771
1.00737
0.998246
0.997466
0.998824
1.00011
1.00082
1.00101
1.00084
1.00052
1.00022
1.00011
1.00022
1.00052
1.00086
1.0011
1.00114
1.00098
1.00072
1.00047
1.00033
0.995331
1.00773
1.04111
1.10442
1.18205
1.22103
1.18893
1.11422
1.03973
0.989601
0.972313
0.989601
1.03973
1.11422
1.18894
1.22109
1.18226
1.10501
1.0425
1.01036
0.999001
0.997221
0.998512
1.00005
1.00089
1.00079
0.999852
0.998359
0.996782
0.995602
0.995167
0.995601
0.99678
0.998363
0.99989
1.00096
1.0014
1.00134
1.00106
1.00084
0.993688
0.997461
1.00952
1.03741
1.0855
1.14353
1.18652
1.1985
1.18725
1.17123
1.16433
1.17123
1.18725
1.19849
1.18652
1.14355
1.08558
1.03771
1.01036
0.999347
0.997137
0.998301
0.999965
1.00078
1.00005
0.997505
0.99343
0.988667
0.984316
0.981323
0.980262
0.981321
0.984313
0.988665
0.993441
0.997581
1.00033
1.00159
1.00184
1.00175
0.995286
0.995658
0.998392
1.00717
1.02598
1.05583
1.09132
1.12278
1.14364
1.15392
1.15679
1.15392
1.14364
1.12277
1.09132
1.05584
1.02603
1.00737
0.999001
0.997137
0.998227
0.9999
1.00059
0.999022
0.994214
0.986106
0.975919
0.965696
0.957347
0.952038
0.950236
0.952037
0.957344
0.965693
0.975923
0.986154
0.994414
0.999628
1.00208
1.00285
0.997331
0.996813
0.996535
0.997988
1.00307
1.01319
1.0279
1.04443
1.05895
1.06855
1.07186
1.06855
1.05895
1.04443
1.0279
1.01321
1.00315
0.998246
0.997221
0.998301
0.9999
1.0005
0.998275
0.991252
0.978535
0.961473
0.943367
0.927711
0.916564
0.910259
0.908266
0.910258
0.916563
0.927711
0.94338
0.961544
0.978783
0.991927
0.999756
1.00307
0.998778
0.998286
0.997534
0.997027
0.997512
0.999711
1.00386
1.00934
1.01482
1.01882
1.02028
1.01882
1.01482
1.00934
1.00387
0.999756
0.997671
0.997466
0.998512
0.999965
1.00059
0.998275
0.990056
0.973694
0.950024
0.923559
0.900184
0.883955
0.875466
0.872448
0.871895
0.872447
0.875465
0.883961
0.90022
0.923696
0.950427
0.974625
0.991691
1.00006
0.999545
0.999265
0.998746
0.998119
0.997625
0.997564
0.998138
0.999289
1.00067
1.00178
1.0022
1.00177
1.00067
0.999293
0.998163
0.997662
0.997918
0.998824
1.00005
1.00078
0.999022
0.991252
0.973694
0.945677
0.912035
0.881342
0.861367
0.855464
0.861234
0.871115
0.875859
0.871115
0.861236
0.855481
0.861441
0.881582
0.91265
0.946874
0.975117
0.990673
0.999869
0.999747
0.999496
0.999132
0.998711
0.998337
0.998114
0.998087
0.998208
0.998358
0.998424
0.998358
0.998209
0.998098
0.998165
0.99851
0.999176
1.00011
1.00089
1.00005
0.994214
0.978535
0.950024
0.912035
0.874726
0.8505
0.849148
0.875414
0.925561
0.979226
1.00293
0.979226
0.925568
0.875451
0.849279
0.850871
0.875556
0.913291
0.950295
0.972967
0.999978
0.999934
0.999839
0.999683
0.999472
0.999233
0.999007
0.998833
0.998724
0.998671
0.998656
0.998671
0.998727
0.998855
0.999094
0.999498
1.00011
1.00082
1.00079
0.997505
0.986106
0.961473
0.923559
0.881342
0.8505
0.848576
0.895238
1.0174
1.22813
1.4481
1.54054
1.4481
1.22816
1.01748
0.895466
0.849116
0.851503
0.88229
0.92145
0.948235
1
0.999991
0.999962
0.999909
0.999829
0.999725
0.999612
0.999506
0.999423
0.999371
0.999354
0.999372
0.99943
0.999542
0.99974
1.00008
1.00061
1.00101
0.999852
0.99343
0.975919
0.943367
0.900184
0.861367
0.849148
0.895238
1.06752
1.50479
2.13536
2.4677
2.52733
2.46771
2.13542
1.50499
1.06794
0.896016
0.850264
0.861603
0.894663
0.920949
1.00001
1
0.999996
0.999982
0.999958
0.999923
0.999881
0.999838
0.999801
0.999776
0.999767
0.999778
0.999812
0.999888
1.00005
1.00036
1.00081
1.00084
0.998359
0.988667
0.965696
0.927711
0.883955
0.855464
0.875414
1.0174
1.50479
2.40574
2.57015
2.41363
2.34637
2.41364
2.57019
2.40599
1.5056
1.01854
0.87659
0.854689
0.874588
0.896341
1
1
1
1
0.999994
0.999985
0.999973
0.999959
0.999947
0.999938
0.999935
0.99994
0.999962
1.00002
1.00017
1.00048
1.00086
1.00052
0.996782
0.984316
0.957347
0.916564
0.875466
0.861234
0.925561
1.22813
2.13536
2.57015
2.28252
2.06174
1.98589
2.06175
2.28255
2.57025
2.13634
1.22976
0.926765
0.859375
0.862579
0.877966
1
1
1
1
1
0.999999
0.999997
0.999993
0.99999
0.999988
0.999987
0.999991
1.00001
1.00007
1.00022
1.00053
1.00086
1.00022
0.995602
0.981323
0.952038
0.910259
0.872448
0.871115
0.979226
1.4481
2.4677
2.41363
2.06174
1.83642
1.76148
1.83642
2.06176
2.41371
2.46832
1.4501
0.980436
0.868404
0.857093
0.86706
1
1
1
1
1
1
1
1
1
0.999999
0.999999
1
1.00002
1.00008
1.00023
1.00054
1.00085
1.00011
0.995167
0.980262
0.950236
0.908266
0.871895
0.875859
1.00293
1.54054
2.52733
2.34637
1.98589
1.76148
1.6873
1.76149
1.98591
2.34645
2.52778
1.54266
1.00414
0.872821
0.855652
0.863498
1
1
1
1
1
1
1
1
1
1
1
1
1.00002
1.00007
1.00022
1.00053
1.00086
1.00022
0.995601
0.981321
0.952037
0.910258
0.872447
0.871115
0.979226
1.4481
2.46771
2.41364
2.06175
1.83642
1.76149
1.83643
2.06177
2.41372
2.46833
1.4501
0.980436
0.868403
0.857092
0.867059
1
1
1
1
1
1
1
1
1
1
1
1
1.00002
1.00006
1.0002
1.0005
1.00087
1.00052
0.99678
0.984313
0.957344
0.916563
0.875465
0.861236
0.925568
1.22816
2.13542
2.57019
2.28255
2.06176
1.98591
2.06177
2.28258
2.57029
2.1364
1.22978
0.926772
0.859377
0.862579
0.877964
1
1
1
1
1
1
1
1
1
1
1
1
1.00001
1.00005
1.00017
1.00044
1.00085
1.00086
0.998363
0.988665
0.965693
0.927711
0.883961
0.855481
0.875451
1.01748
1.50499
2.40599
2.57025
2.41371
2.34645
2.41372
2.57029
2.40623
1.5058
1.01862
0.876627
0.854706
0.874594
0.896342
1
1
1
1
1
1
1
1
1
1
1
1
1.00001
1.00004
1.00013
1.00036
1.00078
1.0011
0.99989
0.993441
0.975923
0.94338
0.90022
0.861441
0.849279
0.895466
1.06794
1.5056
2.13634
2.46832
2.52778
2.46833
2.1364
1.5058
1.06837
0.896244
0.850394
0.861677
0.894701
0.920969
1
1
1
1
1
1
1
1
1
1
1
1
1
1.00002
1.00009
1.00027
1.00064
1.00114
1.00096
0.997581
0.986154
0.961544
0.923696
0.881582
0.850871
0.849116
0.896016
1.01854
1.22976
1.4501
1.54266
1.4501
1.22978
1.01862
0.896244
0.849657
0.851875
0.882532
0.921596
0.94833
1
1
1
1
1
1
1
1
1
1
1
0.999999
1
1.00001
1.00005
1.00017
1.00047
1.00098
1.0014
1.00033
0.994414
0.978783
0.950427
0.91265
0.875556
0.851503
0.850264
0.87659
0.926765
0.980436
1.00414
0.980436
0.926772
0.876627
0.850394
0.851875
0.87639
0.913918
0.950728
0.973281
1
1
1
1
1
1
1
1
1
1
1
0.999999
0.999999
1
1.00002
1.0001
1.0003
1.00072
1.00134
1.00159
0.999628
0.991927
0.974625
0.946874
0.913291
0.88229
0.861603
0.854689
0.859375
0.868404
0.872821
0.868403
0.859377
0.854706
0.861677
0.882532
0.913918
0.948104
0.976127
0.991497
1
1
1
1
1
1
1
1
1
1
1
0.999999
0.999999
1
1.00001
1.00005
1.00017
1.00047
1.00106
1.00184
1.00208
0.999756
0.991691
0.975117
0.950295
0.92145
0.894663
0.874588
0.862579
0.857093
0.855652
0.857092
0.862579
0.874594
0.894701
0.921596
0.950728
0.976127
0.993488
1.00179
1
1
1
1
1
1
1
1
1
1
1
0.999999
0.999999
0.999998
1
1.00002
1.0001
1.00033
1.00084
1.00175
1.00285
1.00307
1.00006
0.990673
0.972967
0.948235
0.920949
0.896341
0.877966
0.86706
0.863498
0.867059
0.877964
0.896342
0.920969
0.94833
0.973281
0.991497
1.00179
1.00592
SCALARS C2 double 1
LOOKUP_TABLE default
3.01106
3.0146
3.01879
3.01724
3.00025
2.95844
2.89087
2.81092
2.73976
2.69315
2.67727
2.69315
2.73976
2.81093
2.89088
2.95846
3.00026
3.01717
3.0184
3.01327
3.00756
3.00353
3.00134
3.00039
3.00007
2.99999
2.99998
2.99999
3
3
3
3
3
3
3
3
3
3
3
3
3.0146
3.01547
3.01097
2.98833
2.93181
2.83699
2.7269
2.63762
2.58533
2.56273
2.55701
2.56273
2.58533
2.63762
2.72692
2.837
2.93177
2.98811
3.01016
3.01321
3.00947
3.00515
3.00226
3.0008
3.00021
3.00003
2.99999
2.99999
2.99999
3
3
3
3
3
3
3
3
3
3
3
3.01879
3.01097
2.98087
2.90295
2.7656
2.61589
2.5292
2.52064
2.5532
2.58787
2.6018
2.58787
2.5532
2.52064
2.5292
2.61586
2.76542
2.90232
2.97913
3.00692
3.01103
3.00773
3.00399
3.00164
3.00054
3.00013
3.00001
2.99999
2.99999
3
3
3
3
3
3
3
3
3
3
3
3.01724
2.98833
2.90295
2.7364
2.55389
2.48415
2.54234
2.65774
2.76964
2.84571
2.87228
2.84571
2.76965
2.65774
2.54233
2.48407
2.55349
2.73509
2.89971
2.98191
3.00739
3.00969
3.00615
3.0029
3.00109
3.00032
3.00007
3
2.99999
3
3
3
3
3
3
3
3
3
3
3
3.00025
2.93181
2.7656
2.55389
2.47626
2.57842
2.76284
2.94686
3.0912
3.18105
3.2114
3.18105
3.09121
2.94686
2.76282
2.57829
2.47569
2.5519
2.76068
2.92337
2.9916
3.00843
3.00793
3.00438
3.00185
3.00062
3.00016
3.00002
3
3
3
3
3
3
3
3
3
3
3
3
2.95844
2.83699
2.61589
2.48415
2.57842
2.80323
3.04443
3.24905
3.40035
3.49284
3.52395
3.49284
3.40035
3.24905
3.04441
2.8031
2.57777
2.48191
2.61021
2.82868
2.95782
3.00111
3.00821
3.00572
3.00271
3.001
3.00029
3.00006
3
3
3
3
3
3
3
3
3
3
3
3
2.89087
2.7269
2.5292
2.54234
2.76284
3.04443
3.30197
3.51017
3.66327
3.7575
3.78935
3.7575
3.66327
3.51017
3.30196
3.04431
2.76219
2.54017
2.52427
2.72246
2.90735
2.98645
3.00614
3.00651
3.00354
3.00143
3.00045
3.00011
3.00001
3
3
3
3
3
3
3
3
3
3
3
2.81092
2.63762
2.52064
2.65774
2.94686
3.24905
3.51017
3.72003
3.87588
3.97291
4.00591
3.97291
3.87588
3.72003
3.51016
3.24895
2.94625
2.65572
2.51722
2.64006
2.85128
2.96654
3.00183
3.00655
3.00417
3.00183
3.00062
3.00016
3.00003
3
3
3
3
3
3
3
3
3
3
3
2.73976
2.58533
2.5532
2.76964
3.0912
3.40035
3.66327
3.87588
4.03534
4.13554
4.16981
4.13554
4.03534
3.87588
3.66326
3.40027
3.09063
2.76778
2.55123
2.59497
2.80389
2.94643
2.99657
3.00602
3.00455
3.00214
3.00077
3.00021
3.00004
3
3
3
3
3
3
3
3
3
3
3
2.69315
2.56273
2.58787
2.84571
3.18105
3.49284
3.7575
3.97291
4.13554
4.23832
4.27362
4.23832
4.13554
3.97291
3.7575
3.49276
3.18051
2.84395
2.58687
2.57748
2.774
2.93178
2.9923
3.00538
3.00472
3.00233
3.00086
3.00025
3.00005
3
3
3
3
3
3
3
3
3
3
3
2.67727
2.55701
2.6018
2.87228
3.2114
3.52395
3.78935
4.00591
4.16981
4.27362
4.30933
4.27362
4.16981
4.00591
3.78934
3.52387
3.21087
2.87055
2.60114
2.57358
2.76402
2.92646
2.99067
3.00511
3.00477
3.0024
3.0009
3.00026
3.00006
3.00001
3
3
3
3
3
3
3
3
3
3
2.69315
2.56273
2.58787
2.84571
3.18105
3.49284
3.7575
3.97291
4.13554
4.23832
4.27362
4.23832
4.13554
3.97291
3.7575
3.49276
3.18051
2.84395
2.58687
2.57748
2.774
2.93178
2.9923
3.00539
3.00473
3.00233
3.00086
3.00025
3.00005
3
3
3
3
3
3
3
3
3
3
3
2.73976
2.58533
2.5532
2.76965
3.09121
3.40035
3.66327
3.87588
4.03534
4.13554
4.16981
4.13554
4.03534
3.87588
3.66326
3.40027
3.09063
2.76778
2.55123
2.59497
2.80389
2.94643
2.99657
3.00602
3.00455
3.00214
3.00076
3.00021
3.00003
2.99999
2.99998
2.99998
2.99999
2.99999
3
3
3
3
3
3
2.81093
2.63762
2.52064
2.65774
2.94686
3.24905
3.51017
3.72003
3.87588
3.97291
4.00591
3.97291
3.87588
3.72003
3.51016
3.24895
2.94625
2.65572
2.51723
2.64006
2.85128
2.96654
3.00184
3.00655
3.00416
3.00181
3.00059
3.00012
2.99997
2.99992
2.99992
2.99992
2.99994
2.99995
2.99997
2.99999
3
3
3
3.00001
2.89088
2.72692
2.5292
2.54233
2.76282
3.04441
3.30196
3.51016
3.66326
3.7575
3.78934
3.7575
3.66326
3.51016
3.30195
3.04429
2.76217
2.54016
2.52427
2.72247
2.90736
2.98646
3.00614
3.00649
3.00349
3.00134
3.00031
2.99991
2.99977
2.99971
2.9997
2.99971
2.99975
2.9998
2.99986
2.99992
2.99996
2.99999
3
3.00001
2.95846
2.837
2.61586
2.48407
2.57829
2.8031
3.04431
3.24895
3.40027
3.49276
3.52387
3.49276
3.40027
3.24895
3.04429
2.80296
2.57765
2.48183
2.61018
2.82868
2.95783
3.00111
3.00818
3.00563
3.00253
3.00068
2.99981
2.99943
2.99924
2.99916
2.99913
2.99916
2.99924
2.99937
2.99952
2.99968
2.99981
2.99991
2.99997
3
3.00026
2.93177
2.76542
2.55349
2.47569
2.57777
2.76219
2.94625
3.09063
3.18051
3.21087
3.18051
3.09063
2.94625
2.76217
2.57765
2.47512
2.5515
2.7605
2.92332
2.99158
3.00838
3.00778
3.00404
3.00123
2.99966
2.99886
2.99843
2.99819
2.99807
2.99804
2.99808
2.99819
2.9984
2.9987
2.99905
2.99939
2.99966
2.99984
2.99993
3.01717
2.98811
2.90232
2.73509
2.5519
2.48191
2.54017
2.65572
2.76778
2.84395
2.87055
2.84395
2.76778
2.65572
2.54016
2.48183
2.5515
2.73377
2.89907
2.98165
3.00724
3.00945
3.00563
3.00191
2.99949
2.99809
2.99734
2.99701
2.99697
2.99704
2.99709
2.99705
2.99698
2.99701
2.99727
2.99777
2.9984
2.999
2.99944
2.99967
3.0184
3.01016
2.97913
2.89971
2.76068
2.61021
2.52427
2.51722
2.55123
2.58687
2.60114
2.58687
2.55123
2.51723
2.52427
2.61018
2.7605
2.89907
2.97735
3.00601
3.01042
3.00694
3.00258
2.99932
2.99726
2.99627
2.99627
2.99711
2.99838
2.99948
2.99992
2.99949
2.99839
2.99712
2.99625
2.99613
2.99671
2.99764
2.99849
2.99899
3.01327
3.01321
3.00692
2.98191
2.92337
2.82868
2.72246
2.64006
2.59497
2.57748
2.57358
2.57748
2.59497
2.64006
2.72247
2.82868
2.92332
2.98165
3.00601
3.01072
3.00767
3.00308
2.99919
2.99657
2.99555
2.99668
3.00014
3.00532
3.01077
3.01487
3.01638
3.01487
3.01078
3.00533
3.00015
2.99664
2.99531
2.99567
2.9967
2.99747
3.00756
3.00947
3.01103
3.00739
2.9916
2.95782
2.90735
2.85128
2.80389
2.774
2.76402
2.774
2.80389
2.85128
2.90736
2.95783
2.99158
3.00724
3.01042
3.00767
3.00327
2.99913
2.99612
2.99531
2.99832
3.0065
3.01951
3.03496
3.0493
3.05928
3.06283
3.05928
3.0493
3.03497
3.01953
3.00649
2.99817
2.9947
2.99431
2.99482
3.00353
3.00515
3.00773
3.00969
3.00843
3.00111
2.98645
2.96654
2.94643
2.93178
2.92646
2.93178
2.94643
2.96654
2.98646
3.00111
3.00838
3.00945
3.00694
3.00308
2.99913
2.99597
2.99531
3.00026
3.01418
3.03821
3.06948
3.10203
3.12955
3.14751
3.1537
3.14751
3.12955
3.10204
3.06948
3.03817
3.01395
2.99947
2.99325
2.99157
3.00134
3.00226
3.00399
3.00615
3.00793
3.00821
3.00614
3.00183
2.99657
2.9923
2.99067
2.9923
2.99657
3.00184
3.00614
3.00818
3.00778
3.00563
3.00258
2.99919
2.99612
2.99531
3.00112
3.01949
3.05444
3.10414
3.1606
3.21329
3.25382
3.27831
3.28637
3.27831
3.25383
3.21329
3.16058
3.10401
3.05396
3.01814
2.9981
2.99012
3.00039
3.0008
3.00164
3.0029
3.00438
3.00572
3.00651
3.00655
3.00602
3.00538
3.00511
3.00539
3.00602
3.00655
3.00649
3.00563
3.00404
3.00191
2.99932
2.99657
2.99531
3.00026
3.01949
3.06089
3.12593
3.2065
3.28775
3.35471
3.39878
3.42059
3.42661
3.42059
3.39878
3.35471
3.28769
3.20623
3.12507
3.05872
3.01539
2.99525
3.00007
3.00021
3.00054
3.00109
3.00185
3.00271
3.00354
3.00417
3.00455
3.00472
3.00477
3.00473
3.00455
3.00416
3.00349
3.00253
3.00123
2.99949
2.99726
2.99555
2.99832
3.01418
3.05444
3.12593
3.22387
3.33135
3.42513
3.48387
3.4983
3.48263
3.4709
3.48263
3.4983
3.48385
3.425
3.33088
3.22252
3.12294
3.04994
3.01242
2.99999
3.00003
3.00013
3.00032
3.00062
3.001
3.00143
3.00183
3.00214
3.00233
3.0024
3.00233
3.00214
3.00181
3.00134
3.00068
2.99966
2.99809
2.99627
2.99668
3.0065
3.03821
3.10414
3.2065
3.33135
3.4501
3.52306
3.50152
3.349
3.13114
3.02713
3.13114
3.34898
3.50144
3.52281
3.44936
3.32948
3.20293
3.10065
3.04409
2.99998
2.99999
3.00001
3.00007
3.00016
3.00029
3.00045
3.00062
3.00077
3.00086
3.0009
3.00086
3.00076
3.00059
3.00031
2.99981
2.99886
2.99734
2.99627
3.00014
3.01951
3.06948
3.1606
3.28775
3.42513
3.52306
3.48532
3.11045
2.33361
1.76878
1.61816
1.76877
2.33355
3.11024
3.48482
3.52193
3.42273
3.28402
3.15976
3.08699
2.99999
2.99999
2.99999
3
3.00002
3.00006
3.00011
3.00016
3.00021
3.00025
3.00026
3.00025
3.00021
3.00012
2.99991
2.99943
2.99843
2.99701
2.99711
3.00532
3.03496
3.10203
3.21329
3.35471
3.48387
3.50152
3.11045
1.94892
1.31365
1.23408
1.23471
1.23407
1.31361
1.9486
3.10942
3.4998
3.48097
3.35131
3.21634
3.13301
3
2.99999
2.99999
2.99999
3
3
3.00001
3.00003
3.00004
3.00005
3.00006
3.00005
3.00003
2.99997
2.99977
2.99924
2.99819
2.99697
2.99838
3.01077
3.0493
3.12955
3.25382
3.39878
3.4983
3.349
2.33361
1.31365
1.24022
1.30316
1.3332
1.30316
1.24021
1.31351
2.33216
3.34649
3.49497
3.39602
3.26101
3.1729
3
3
3
3
3
3
3
3
3
3
3.00001
3
2.99999
2.99992
2.99971
2.99916
2.99807
2.99704
2.99948
3.01487
3.05928
3.14751
3.27831
3.42059
3.48263
3.13114
1.76878
1.23408
1.30316
1.40181
1.44087
1.40181
1.30315
1.234
1.76763
3.12795
3.479
3.41849
3.28868
3.19947
3
3
3
3
3
3
3
3
3
3
3
3
2.99998
2.99992
2.9997
2.99913
2.99804
2.99709
2.99992
3.01638
3.06283
3.1537
3.28637
3.42661
3.4709
3.02713
1.61816
1.23471
1.3332
1.44087
1.48246
1.44087
1.33319
1.23465
1.6172
3.0237
3.46717
3.42479
3.29793
3.20873
3
3
3
3
3
3
3
3
3
3
3
3
2.99998
2.99992
2.99971
2.99916
2.99808
2.99705
2.99949
3.01487
3.05928
3.14751
3.27831
3.42059
3.48263
3.13114
1.76877
1.23407
1.30316
1.40181
1.44087
1.4018
1.30314
1.23399
1.76763
3.12795
3.47901
3.41849
3.28868
3.19947
3
3
3
3
3
3
3
3
3
3
3
3
2.99999
2.99994
2.99975
2.99924
2.99819
2.99698
2.99839
3.01078
3.0493
3.12955
3.25383
3.39878
3.4983
3.34898
2.33355
1.31361
1.24021
1.30315
1.33319
1.30314
1.24019
1.31348
2.33211
3.34648
3.49497
3.39602
3.26101
3.1729
3
3
3
3
3
3
3
3
3
3
3
3
2.99999
2.99995
2.9998
2.99937
2.9984
2.99701
2.99712
3.00533
3.03497
3.10204
3.21329
3.35471
3.48385
3.50144
3.11024
1.9486
1.31351
1.234
1.23465
1.23399
1.31348
1.94828
3.1092
3.49972
3.48094
3.3513
3.21634
3.13301
3
3
3
3
3
3
3
3
3
3
3
3
3
2.99997
2.99986
2.99952
2.9987
2.99727
2.99625
3.00015
3.01953
3.06948
3.16058
3.28769
3.425
3.52281
3.48482
3.10942
2.33216
1.76763
1.6172
1.76763
2.33211
3.1092
3.48432
3.52168
3.4226
3.28396
3.15974
3.08698
3
3
3
3
3
3
3
3
3
3
3
3
3
2.99999
2.99992
2.99968
2.99905
2.99777
2.99613
2.99664
3.00649
3.03817
3.10401
3.20623
3.33088
3.44936
3.52193
3.4998
3.34649
3.12795
3.0237
3.12795
3.34648
3.49972
3.52168
3.44862
3.32901
3.20266
3.10051
3.04403
3
3
3
3
3
3
3
3
3
3
3
3
3
3
2.99996
2.99981
2.99939
2.9984
2.99671
2.99531
2.99817
3.01395
3.05396
3.12507
3.22252
3.32948
3.42273
3.48097
3.49497
3.479
3.46717
3.47901
3.49497
3.48094
3.4226
3.32901
3.22117
3.12207
3.04943
3.01211
3
3
3
3
3
3
3
3
3
3
3
3
3
3
2.99999
2.99991
2.99966
2.999
2.99764
2.99567
2.9947
2.99947
3.01814
3.05872
3.12294
3.20293
3.28402
3.35131
3.39602
3.41849
3.42479
3.41849
3.39602
3.3513
3.28396
3.20266
3.12207
3.05652
3.01394
2.99425
3
3
3
3
3
3
3
3
3
3
3
3
3
3
3
2.99997
2.99984
2.99944
2.99849
2.9967
2.99431
2.99325
2.9981
3.01539
3.04994
3.10065
3.15976
3.21634
3.26101
3.28868
3.29793
3.28868
3.26101
3.21634
3.15974
3.10051
3.04943
3.01394
2.99485
2.98759
3
3
3
3
3
3
3
3
3
3
3
3
3
3.00001
3.00001
3
2.99993
2.99967
2.99899
2.99747
2.99482
2.99157
2.99012
2.99525
3.01242
3.04409
3.08699
3.13301
3.1729
3.19947
3.20873
3.19947
3.1729
3.13301
3.08698
3.04403
3.01211
2.99425
2.98759
2.98638
