# vtk DataFile Version 3.0
Brusselator Concentration Output
ASCII
DATASET STRUCTURED_POINTS
DIMENSIONS 40 40 1
ORIGIN 0.0 0.0 0.0
SPACING 0.005 0.005 1.0
POINT_DATA 1600
SCALARS C1 double 1
LOOKUP_TABLE default
2.01297
3.16078
2.25503
1.63825
1.22407
0.946484
0.764316
0.649647
0.581718
0.546308
0.535366
0.54633
0.581825
0.650069
0.765675
0.949754
1.22816
1.62919
2.18135
2.88988
2.11418
0.995295
0.779492
0.77405
0.823042
0.886702
0.942791
0.979384
0.996684
1.00194
1.00219
1.0013
1.00058
1.0002
1.00006
1.00001
0.999998
0.999998
0.999999
0.999999
3.16078
2.36973
1.69543
1.25047
0.95795
0.765701
0.641725
0.564459
0.518868
0.495126
0.487792
0.495145
0.518954
0.564787
0.642725
0.767867
0.959409
1.23748
1.61846
2.09765
2.52661
1.61192
0.943053
0.817455
0.832902
0.88284
0.934342
0.972045
0.99245
1.0002
1.00172
1.00126
1.00063
1.00024
1.00007
1.00002
1
0.999998
0.999999
1
2.25503
1.69543
1.19783
0.881646
0.69288
0.579884
0.512016
0.471764
0.448825
0.437167
0.433613
0.437179
0.448884
0.471978
0.512621
0.580955
0.692135
0.866082
1.12443
1.485
1.94531
2.33685
1.45718
0.944709
0.859006
0.878478
0.920686
0.959464
0.984796
0.996865
1.00072
1.00114
1.0007
1.00031
1.00011
1.00003
1
1
0.999999
1
1.63825
1.25047
0.881646
0.654951
0.533822
0.469558
0.434961
0.416439
0.406905
0.402497
0.401234
0.402506
0.406944
0.41657
0.435288
0.469921
0.531957
0.639636
0.818572
1.09772
1.50036
2.01769
2.18271
1.24507
0.919517
0.880031
0.906742
0.944818
0.975075
0.992237
0.999168
1.00085
1.00076
1.0004
1.00016
1.00005
1.00001
1
1
1
1.22407
0.95795
0.69288
0.533822
0.455569
0.418589
0.40148
0.394162
0.391587
0.391005
0.390967
0.391012
0.391614
0.394245
0.40165
0.418579
0.453328
0.520325
0.643055
0.853975
1.18653
1.65922
2.22312
1.74645
1.04473
0.895813
0.897082
0.931089
0.964768
0.986783
0.997093
1.00035
1.00076
1.00047
1.0002
1.00006
1.00001
1
0.999999
1
0.946484
0.765701
0.579884
0.469558
0.418589
0.397559
0.390372
0.389485
0.391048
0.392835
0.393574
0.392841
0.391069
0.389541
0.390455
0.397358
0.416303
0.458176
0.542289
0.699454
0.968526
1.3821
1.94311
2.18222
1.25697
0.93353
0.894613
0.920259
0.955136
0.981066
0.994645
0.999626
1.00065
1.00049
1.00022
1.00007
1.00001
0.999991
0.999992
0.999994
0.764316
0.641725
0.512016
0.434961
0.40148
0.390372
0.389484
0.392924
0.397483
0.401095
0.402455
0.4011
0.397501
0.392965
0.389517
0.390069
0.399267
0.425413
0.483949
0.601966
0.819164
1.17676
1.69377
2.25047
1.53303
0.995859
0.900056
0.91311
0.947017
0.975644
0.992057
0.998725
1.00043
1.00045
1.0002
1.00003
0.999967
0.999957
0.999963
0.999969
0.649647
0.564459
0.471764
0.416439
0.394162
0.389485
0.392924
0.399604
0.406607
0.411807
0.413725
0.411812
0.406623
0.399637
0.392926
0.389125
0.392041
0.408278
0.450379
0.541731
0.720342
1.03213
1.50795
2.12596
1.79977
1.07561
0.911736
0.909387
0.940815
0.971001
0.989633
0.997777
1.00013
1.00034
1.00011
0.999933
0.999868
0.999864
0.99988
0.999893
0.581718
0.518868
0.448825
0.406905
0.391587
0.391048
0.397483
0.406607
0.415593
0.422147
0.424553
0.422152
0.415608
0.406635
0.397468
0.390655
0.389541
0.399681
0.43171
0.506207
0.658911
0.937652
1.38125
1.99286
1.9845
1.15524
0.925784
0.908191
0.936692
0.967632
0.987827
0.997098
0.999953
1.00029
1.00003
0.999806
0.999704
0.999683
0.999695
0.999708
0.546308
0.495126
0.437167
0.402497
0.391005
0.392835
0.401095
0.411807
0.422147
0.429657
0.432414
0.429662
0.422162
0.411832
0.40107
0.392424
0.389005
0.395805
0.422394
0.487662
0.625661
0.884713
1.30807
1.90668
2.07548
1.21381
0.937429
0.908683
0.935044
0.966403
0.987578
0.997531
1.00061
1.00087
1.0004
0.999949
0.999647
0.999477
0.999393
0.999361
0.535366
0.487792
0.433613
0.401234
0.390967
0.393574
0.402455
0.413725
0.424553
0.432414
0.435301
0.432419
0.424568
0.413749
0.402426
0.393158
0.388982
0.394715
0.419582
0.481922
0.615187
0.867783
1.28443
1.87829
2.10202
1.2366
0.943527
0.911187
0.937317
0.96924
0.990959
1.0011
1.00397
1.00372
1.00258
1.00141
1.00042
0.999685
0.999204
0.998968
0.54633
0.495145
0.437179
0.402506
0.391012
0.392841
0.4011
0.411812
0.422152
0.429662
0.432419
0.429667
0.422167
0.411837
0.401075
0.39243
0.389011
0.395813
0.422405
0.487692
0.62577
0.885098
1.3092
1.90954
2.08219
1.22112
0.94529
0.918374
0.946738
0.979645
1.00159
1.01142
1.01356
1.01219
1.00959
1.00672
1.00402
1.00175
1.00012
0.999272
0.581825
0.518954
0.448884
0.406944
0.391614
0.391069
0.397501
0.406623
0.415608
0.422162
0.424568
0.422167
0.415623
0.406651
0.397485
0.390676
0.389566
0.399717
0.431775
0.506364
0.65937
0.938983
1.38461
2.00027
2.00632
1.17832
0.9489
0.934571
0.966626
1.00025
1.02183
1.03107
1.03248
1.02997
1.02556
1.02014
1.01436
1.009
1.00487
1.00262
0.650069
0.564787
0.471978
0.41657
0.394245
0.389541
0.392965
0.399637
0.406635
0.411832
0.413749
0.411837
0.406651
0.399669
0.392967
0.38918
0.392123
0.408412
0.450642
0.542342
0.721887
1.03582
1.51568
2.14016
1.85569
1.12711
0.959028
0.957392
0.989761
1.0206
1.03995
1.04895
1.05186
1.05155
1.04875
1.04331
1.03552
1.02671
1.019
1.0145
0.765675
0.642725
0.512621
0.435288
0.40165
0.390455
0.389517
0.392926
0.397468
0.40107
0.402426
0.401075
0.397485
0.392967
0.389549
0.390152
0.399443
0.425785
0.484773
0.603872
0.823414
1.18492
1.70668
2.27375
1.63733
1.07413
0.959162
0.957881
0.979244
0.999325
1.01294
1.02266
1.03216
1.04269
1.0528
1.05965
1.06088
1.05647
1.04937
1.04415
0.949754
0.767867
0.580955
0.469921
0.418579
0.397358
0.390069
0.389125
0.390655
0.392424
0.393158
0.39243
0.390676
0.38918
0.390152
0.397165
0.416347
0.45876
0.54413
0.703944
0.97723
1.39377
1.94811
2.23783
1.37412
0.988975
0.901931
0.886482
0.88847
0.893418
0.899405
0.909539
0.927032
0.952904
0.985579
1.02106
1.05365
1.07786
1.09143
1.09651
1.22816
0.959409
0.692135
0.531957
0.453328
0.416303
0.399267
0.392041
0.389541
0.389005
0.388982
0.389011
0.389566
0.392123
0.399443
0.416347
0.451324
0.519269
0.644468
0.859648
1.19461
1.65565
2.17139
1.84066
1.07892
0.841337
0.772166
0.748008
0.738176
0.733798
0.734407
0.742639
0.761278
0.792406
0.837296
0.895876
0.965375
1.0384
1.1018
1.13933
1.62919
1.23748
0.866082
0.639636
0.520325
0.458176
0.425413
0.408278
0.399681
0.395805
0.394715
0.395813
0.399717
0.408412
0.425785
0.45876
0.519269
0.626559
0.807084
1.08645
1.47256
1.92877
2.11428
1.24243
0.803719
0.676275
0.631512
0.61238
0.602426
0.596874
0.595744
0.600618
0.613503
0.636981
0.674622
0.730984
0.810163
0.910505
1.01423
1.08355
2.18135
1.61846
1.12443
0.818572
0.643055
0.542289
0.483949
0.450379
0.43171
0.422394
0.419582
0.422405
0.431775
0.450642
0.484773
0.54413
0.644468
0.807084
1.05235
1.38529
1.77751
2.08898
1.42833
0.800578
0.615116
0.55711
0.535545
0.526493
0.521889
0.519345
0.51871
0.520616
0.526319
0.538083
0.559727
0.597133
0.657528
0.743373
0.837722
0.900914
2.88988
2.09765
1.485
1.09772
0.853975
0.699454
0.601966
0.541731
0.506207
0.487662
0.481922
0.487692
0.506364
0.542342
0.603872
0.703944
0.859648
1.08645
1.38529
1.72804
2.0207
1.55768
0.820091
0.584015
0.516753
0.496122
0.491233
0.491764
0.493625
0.495192
0.495826
0.495543
0.495209
0.496776
0.503555
0.520502
0.553488
0.603909
0.658059
0.691601
2.11418
2.52661
1.94531
1.50036
1.18653
0.968526
0.819164
0.720342
0.658911
0.625661
0.615187
0.62577
0.65937
0.721887
0.823414
0.97723
1.19461
1.47256
1.77751
2.0207
1.60024
0.838633
0.5717
0.497537
0.478437
0.478501
0.486016
0.495861
0.505187
0.511867
0.514297
0.511934
0.505728
0.498028
0.492182
0.492162
0.501363
0.518638
0.534853
0.542463
0.995295
1.61192
2.33685
2.01769
1.65922
1.3821
1.17676
1.03213
0.937652
0.884713
0.867783
0.885098
0.938983
1.03582
1.18492
1.39377
1.65565
1.92877
2.08898
1.55768
0.838633
0.568786
0.490188
0.471674
0.475957
0.490892
0.511316
0.534083
0.555822
0.57204
0.578122
0.572042
0.556049
0.535182
0.514647
0.498363
0.487845
0.48034
0.47121
0.463455
0.779492
0.943053
1.45718
2.18271
2.22312
1.94311
1.69377
1.50795
1.38125
1.30807
1.28443
1.3092
1.38461
1.51568
1.70668
1.94811
2.17139
2.11428
1.42833
0.820091
0.5717
0.490188
0.470024
0.476382
0.497528
0.529536
0.571618
0.623534
0.681574
0.731932
0.752576
0.731965
0.681833
0.624461
0.573942
0.533805
0.50214
0.474134
0.447888
0.431212
0.77405
0.817455
0.944709
1.24507
1.74645
2.18222
2.25047
2.12596
1.99286
1.90668
1.87829
1.90954
2.00027
2.14016
2.27375
2.23783
1.84066
1.24243
0.800578
0.584015
0.497537
0.471674
0.476382
0.500398
0.541627
0.604999
0.705993
0.876607
1.13506
1.39832
1.51181
1.39864
1.13604
0.878493
0.708754
0.607937
0.54151
0.489969
0.448439
0.424858
0.823042
0.832902
0.859006
0.919517
1.04473
1.25697
1.53303
1.79977
1.9845
2.07548
2.10202
2.08219
2.00632
1.85569
1.63733
1.37412
1.07892
0.803719
0.615116
0.516753
0.478437
0.475957
0.497528
0.541627
0.618724
0.769934
1.14302
2.01405
3.11684
3.53642
3.5856
3.53685
3.11956
2.02133
1.1501
0.773266
0.614912
0.524295
0.463658
0.432478
0.886702
0.88284
0.878478
0.880031
0.895813
0.93353
0.995859
1.07561
1.15524
1.21381
1.2366
1.22112
1.17832
1.12711
1.07413
0.988975
0.841337
0.676275
0.55711
0.496122
0.478501
0.490892
0.529536
0.604999
0.769934
1.28842
2.87076
3.58511
3.28891
3.0805
3.0116
3.08046
3.28858
3.58423
2.8872
1.29668
0.761697
0.579957
0.489267
0.447994
0.942791
0.934342
0.920686
0.906742
0.897082
0.894613
0.900056
0.911736
0.925784
0.937429
0.943527
0.94529
0.9489
0.959028
0.959162
0.901931
0.772166
0.631512
0.535545
0.491233
0.486016
0.511316
0.571618
0.705993
1.14302
2.87076
3.48629
3.02905
2.70025
2.50838
2.44571
2.50832
2.69986
3.02732
3.48011
2.88353
1.12573
0.669625
0.523494
0.467972
0.979384
0.972045
0.959464
0.944818
0.931089
0.920259
0.91311
0.909387
0.908191
0.908683
0.911187
0.918374
0.934571
0.957392
0.957881
0.886482
0.748008
0.61238
0.526493
0.491764
0.495861
0.534083
0.623534
0.876607
2.01405
3.58511
3.02905
2.5779
2.27269
2.0981
2.04132
2.09804
2.27231
2.57616
3.02321
3.574
1.97276
0.820905
0.565281
0.489672
0.996684
0.99245
0.984796
0.975075
0.964768
0.955136
0.947017
0.940815
0.936692
0.935044
0.937317
0.946738
0.966626
0.989761
0.979244
0.88847
0.738176
0.602426
0.521889
0.493625
0.505187
0.555822
0.681574
1.13506
3.11684
3.28891
2.70025
2.27269
1.98851
1.82644
1.77379
1.82638
1.98813
2.27103
2.69476
3.27447
3.06735
1.04854
0.611254
0.509923
1.00194
1.0002
0.996865
0.992237
0.986783
0.981066
0.975644
0.971001
0.967632
0.966403
0.96924
0.979645
1.00025
1.0206
0.999325
0.893418
0.733798
0.596874
0.519345
0.495192
0.511867
0.57204
0.731932
1.39832
3.53642
3.0805
2.50838
2.0981
1.82644
1.67174
1.62153
1.67168
1.82606
2.09648
2.50309
3.06619
3.50963
1.27852
0.650604
0.524752
1.00219
1.00172
1.00072
0.999168
0.997093
0.994645
0.992057
0.989633
0.987827
0.987578
0.990959
1.00159
1.02183
1.03995
1.01294
0.899405
0.734407
0.595744
0.51871
0.495826
0.514297
0.578122
0.752576
1.51181
3.5856
3.0116
2.44571
2.04132
1.77379
1.62153
1.57214
1.62147
1.77342
2.03972
2.4405
2.99757
3.56617
1.3772
0.66662
0.530268
1.0013
1.00126
1.00114
1.00085
1.00035
0.999626
0.998725
0.997777
0.997098
0.997531
1.0011
1.01142
1.03107
1.04895
1.02266
0.909539
0.742639
0.600618
0.520616
0.495543
0.511934
0.572042
0.731965
1.39864
3.53685
3.08046
2.50832
2.09804
1.82638
1.67168
1.62147
1.67162
1.826
2.09642
2.50304
3.06616
3.51012
1.27888
0.650673
0.52478
1.00058
1.00063
1.0007
1.00076
1.00076
1.00065
1.00043
1.00013
0.999953
1.00061
1.00397
1.01356
1.03248
1.05186
1.03216
0.927032
0.761278
0.613503
0.526319
0.495209
0.505728
0.556049
0.681833
1.13604
3.11956
3.28858
2.69986
2.27231
1.98813
1.82606
1.77342
1.826
1.98775
2.27064
2.69438
3.27415
3.07034
1.04954
0.611491
0.510038
1.0002
1.00024
1.00031
1.0004
1.00047
1.00049
1.00045
1.00034
1.00029
1.00087
1.00372
1.01219
1.02997
1.05155
1.04269
0.952904
0.792406
0.636981
0.538083
0.496776
0.498028
0.535182
0.624461
0.878493
2.02133
3.58423
3.02732
2.57616
2.27103
2.09648
2.03972
2.09642
2.27064
2.57443
3.02149
3.57308
1.98031
0.822667
0.565885
0.490028
1.00006
1.00007
1.00011
1.00016
1.0002
1.00022
1.0002
1.00011
1.00003
1.0004
1.00258
1.00959
1.02556
1.04875
1.0528
0.985579
0.837296
0.674622
0.559727
0.503555
0.492182
0.514647
0.573942
0.708754
1.1501
2.8872
3.48011
3.02321
2.69476
2.50309
2.4405
2.50304
2.69438
3.02149
3.4739
2.90042
1.13298
0.671973
0.524692
0.468821
1.00001
1.00002
1.00003
1.00005
1.00006
1.00007
1.00003
0.999933
0.999806
0.999949
1.00141
1.00672
1.02014
1.04331
1.05965
1.02106
0.895876
0.730984
0.597133
0.520502
0.492162
0.498363
0.533805
0.607937
0.773266
1.29668
2.88353
3.574
3.27447
3.06619
2.99757
3.06616
3.27415
3.57308
2.90042
1.3056
0.765001
0.581925
0.490793
0.449344
0.999998
1
1
1.00001
1.00001
1.00001
0.999967
0.999868
0.999704
0.999647
1.00042
1.00402
1.01436
1.03552
1.06088
1.05365
0.965375
0.810163
0.657528
0.553488
0.501363
0.487845
0.50214
0.54151
0.614912
0.761697
1.12573
1.97276
3.06735
3.50963
3.56617
3.51012
3.07034
1.98031
1.13298
0.765001
0.610524
0.522176
0.462993
0.432555
0.999998
0.999998
1
1
1
0.999991
0.999957
0.999864
0.999683
0.999477
0.999685
1.00175
1.009
1.02671
1.05647
1.07786
1.0384
0.910505
0.743373
0.603909
0.518638
0.48034
0.474134
0.489969
0.524295
0.579957
0.669625
0.820905
1.04854
1.27852
1.3772
1.27888
1.04954
0.822667
0.671973
0.581925
0.522176
0.475501
0.43782
0.416549
0.999999
0.999999
0.999999
1
0.999999
0.999992
0.999963
0.99988
0.999695
0.999393
0.999204
1.00012
1.00487
1.019
1.04937
1.09143
1.1018
1.01423
0.837722
0.658059
0.534853
0.47121
0.447888
0.448439
0.463658
0.489267
0.523494
0.565281
0.611254
0.650604
0.66662
0.650673
0.611491
0.565885
0.524692
0.490793
0.462993
0.43782
0.414334
0.399769
0.999999
1
1
1
1
0.999994
0.999969
0.999893
0.999708
0.999361
0.998968
0.999272
1.00262
1.0145
1.04415
1.09651
1.13933
1.08355
0.900914
0.691601
0.542463
0.463455
0.431212
0.424858
0.432478
0.447994
0.467972
0.489672
0.509923
0.524752
0.530268
0.52478
0.510038
0.490028
0.468821
0.449344
0.432555
0.416549
0.399769
0.388361
SCALARS C2 double 1
LOOKUP_TABLE default
3.24669
1.18221
1.18848
1.46682
1.74128
1.98528
2.18711
2.34203
2.45029
2.51403
2.53506
2.51402
2.45022
2.34171
2.18591
1.98209
1.73634
1.46683
1.20908
1.11655
2.73487
3.71176
3.66255
3.47825
3.29327
3.1466
3.053
3.00767
2.99345
2.99295
2.99578
2.99809
2.99931
2.99981
2.99997
3.00001
3.00001
3
3
3
1.18221
1.22056
1.50306
1.80191
2.07126
2.30049
2.48694
2.63012
2.73102
2.79096
2.81084
2.79096
2.73097
2.62984
2.4858
2.29738
2.06658
1.80437
1.53666
1.32351
1.50921
3.06357
3.56802
3.4817
3.3197
3.1757
3.07528
3.02042
2.99882
2.99445
2.99588
2.99791
2.99917
2.99974
2.99994
3
3.00001
3
3
3
1.18848
1.50306
1.89096
2.22204
2.48694
2.69987
2.87038
3.00205
3.09599
3.15243
3.17127
3.15243
3.09597
3.00185
2.86945
2.6971
2.48271
2.22692
1.93962
1.64836
1.42212
1.69061
3.0936
3.44295
3.35823
3.22457
3.11407
3.04353
3.00912
2.99762
2.99627
2.99764
2.99892
2.99961
2.99989
2.99998
3
3
3
3
1.46682
1.80191
2.22204
2.55764
2.80927
3.00776
3.16783
3.29318
3.38378
3.43873
3.45717
3.43874
3.38378
3.29307
3.16716
3.00547
2.80544
2.56291
2.27598
1.95458
1.63418
1.41847
2.02226
3.22965
3.37925
3.2782
3.16058
3.07315
3.02344
3.00259
2.99721
2.99744
2.99863
2.99944
2.99982
2.99996
3
3
3
3
1.74128
2.07126
2.48694
2.80927
3.04722
3.23719
3.39318
3.51711
3.60763
3.66289
3.68149
3.6629
3.60763
3.51705
3.39267
3.23524
3.04353
2.81344
2.53869
2.21717
1.86547
1.53876
1.46136
2.66785
3.33671
3.32078
3.20622
3.10505
3.04038
3.00924
2.99888
2.99745
2.99836
2.99927
2.99975
2.99993
2.99999
3
3
3
1.98528
2.30049
2.69987
3.00776
3.23719
3.42406
3.57999
3.70518
3.79723
3.85365
3.87268
3.85366
3.79724
3.70514
3.57958
3.42231
3.23351
3.01055
2.74703
2.43528
2.07794
1.70877
1.43131
1.95295
3.17638
3.33895
3.24459
3.13558
3.05823
3.01709
3.00127
2.99776
2.99821
2.99913
2.99969
2.99993
3
3.00001
3
3
2.18711
2.48694
2.87038
3.16783
3.39318
3.57999
3.73766
3.86506
3.95906
4.01678
4.03626
4.01679
3.95907
3.86504
3.73731
3.57836
3.38946
3.16943
2.91317
2.61161
2.25892
1.87293
1.52293
1.55845
2.8805
3.32448
3.27213
3.16203
3.07528
3.02535
3.0042
2.99842
2.99823
2.99909
2.9997
2.99997
3.00005
3.00005
3.00003
3.00002
2.34203
2.63012
3.00205
3.29318
3.51711
3.70518
3.86506
3.99466
4.09038
4.14915
4.16898
4.14916
4.09039
3.99465
3.86476
3.70364
3.51336
3.29389
3.04148
2.74748
2.40197
2.01129
1.62696
1.44893
2.52312
3.279
3.28826
3.18287
3.09007
3.03316
3.00732
2.99937
2.99849
2.99924
2.99987
3.00015
3.0002
3.00018
3.00013
3.00011
2.45029
2.73102
3.09599
3.38378
3.60763
3.79723
3.95906
4.09038
4.18729
4.24671
4.26674
4.24672
4.1873
4.09037
3.95879
3.79576
3.60386
3.38388
3.13315
2.84381
2.50441
2.11411
1.7126
1.44319
2.22581
3.21786
3.29521
3.1976
3.10145
3.03958
3.01013
3.00039
2.99892
2.99958
3.00023
3.00052
3.00057
3.0005
3.00042
3.00036
2.51403
2.79096
3.15243
3.43873
3.66289
3.85365
4.01678
4.14915
4.24671
4.30643
4.32652
4.30643
4.24673
4.14915
4.01654
3.85223
3.65913
3.43848
3.18829
2.90134
2.56574
2.17691
1.76752
1.45858
2.05085
3.16608
3.29686
3.20611
3.10828
3.04332
3.01153
3.00065
2.99889
2.99964
3.00049
3.00096
3.00112
3.00111
3.00103
3.00098
2.53506
2.81084
3.17127
3.45717
3.68149
3.87268
4.03626
4.16898
4.26674
4.32652
4.34662
4.32652
4.26675
4.16898
4.03603
3.87127
3.67773
3.45681
3.20671
2.92049
2.58615
2.19796
1.78621
1.46578
1.9949
3.14523
3.29592
3.20723
3.10816
3.04155
3.00868
2.9975
2.99604
2.99746
2.99914
3.00042
3.00126
3.00176
3.00201
3.00211
2.51402
2.79096
3.15243
3.43874
3.6629
3.85366
4.01679
4.14916
4.24672
4.30643
4.32652
4.30644
4.24673
4.14916
4.01655
3.85223
3.65913
3.43849
3.1883
2.90136
2.56573
2.17673
1.76687
1.45704
2.0457
3.16031
3.29001
3.19635
3.09532
3.02789
2.99496
2.98441
2.98427
2.98762
2.99164
2.99541
2.99859
3.00101
3.0026
3.00337
2.45022
2.73097
3.09597
3.38378
3.60763
3.79724
3.95907
4.09039
4.1873
4.24673
4.26675
4.24673
4.18732
4.09039
3.9588
3.79577
3.60387
3.38389
3.13315
2.84379
2.50422
2.11329
1.71046
1.43813
2.20282
3.19387
3.26852
3.16327
3.05925
2.99162
2.95956
2.95053
2.95279
2.95971
2.96847
2.9778
2.98672
2.99427
2.99968
3.00248
2.34171
2.62984
3.00185
3.29307
3.51705
3.70514
3.86504
3.99465
4.09037
4.14915
4.16898
4.14916
4.09039
3.99464
3.86474
3.70361
3.5133
3.2938
3.04135
2.74714
2.40093
2.00856
1.62138
1.43361
2.45067
3.21154
3.21538
3.09726
2.99325
2.92899
2.89985
2.89248
2.89606
2.9054
2.91883
2.93554
2.95391
2.97132
2.98488
2.99226
2.18591
2.4858
2.86945
3.16716
3.39267
3.57958
3.73731
3.86476
3.95879
4.01654
4.03603
4.01655
3.9588
3.86474
3.73697
3.57795
3.38897
3.16883
2.9123
2.60992
2.25522
1.86588
1.51111
1.50758
2.72141
3.18692
3.13201
3.01653
2.92874
2.87964
2.85843
2.85102
2.84876
2.84967
2.85575
2.86959
2.89151
2.91794
2.94199
2.95631
1.98209
2.29738
2.6971
3.00547
3.23524
3.42231
3.57836
3.70364
3.79576
3.85223
3.87127
3.85223
3.79577
3.70361
3.57795
3.42056
3.2316
3.00832
2.74392
2.42989
2.06854
1.69536
1.41073
1.78849
2.94045
3.14818
3.08003
3.00214
2.95587
2.93653
2.92853
2.91871
2.9012
2.87697
2.85156
2.83271
2.82728
2.83704
2.85546
2.86984
1.73634
2.06658
2.48271
2.80544
3.04353
3.23351
3.38946
3.51336
3.60386
3.65913
3.67773
3.65913
3.60387
3.5133
3.38897
3.2316
3.03988
2.80925
2.53242
2.20644
1.85034
1.52335
1.41352
2.3673
3.11586
3.18156
3.14877
3.13082
3.13514
3.14765
3.15267
3.14032
3.10731
3.05511
2.98862
2.9156
2.84586
2.78914
2.75172
2.7342
1.46683
1.80437
2.22692
2.56291
2.81344
3.01055
3.16943
3.29389
3.38388
3.43848
3.45681
3.43849
3.38389
3.2938
3.16883
3.00832
2.80925
2.56612
2.27531
1.94842
1.62845
1.41454
1.81285
2.99925
3.29409
3.3242
3.34378
3.38101
3.42461
3.45836
3.47101
3.45744
3.41637
3.34847
3.25557
3.14046
3.00726
2.86419
2.73171
2.64788
1.20908
1.53666
1.93962
2.27598
2.53869
2.74703
2.91317
3.04148
3.13315
3.18829
3.20671
3.1883
3.13315
3.04135
2.9123
2.74392
2.53242
2.27531
1.98166
1.68641
1.46325
1.58763
2.8124
3.38669
3.48332
3.53807
3.60762
3.68285
3.74699
3.78883
3.80353
3.78964
3.74687
3.67514
3.57404
3.44202
3.27568
3.07563
2.87079
2.73509
1.11655
1.32351
1.64836
1.95458
2.21717
2.43528
2.61161
2.74748
2.84381
2.90134
2.92049
2.90136
2.84379
2.74714
2.60992
2.42989
2.20644
1.94842
1.68641
1.48395
1.53536
2.64541
3.44364
3.60222
3.68765
3.7866
3.89098
3.98282
4.05136
4.09289
4.1069
4.09346
4.05235
3.98283
3.88344
3.75083
3.5777
3.35898
3.12692
2.97361
2.73487
1.50921
1.42212
1.63418
1.86547
2.07794
2.25892
2.40197
2.50441
2.56574
2.58615
2.56573
2.50422
2.40093
2.25522
2.06854
1.85034
1.62845
1.46325
1.53536
2.58153
3.46763
3.67361
3.78634
3.91208
4.04282
4.15885
4.24957
4.31272
4.34949
4.36158
4.34973
4.31321
4.25015
4.15791
4.03242
3.86557
3.64964
3.41516
3.25965
3.71176
3.06357
1.69061
1.41847
1.53876
1.70877
1.87293
2.01129
2.11411
2.17691
2.19796
2.17673
2.11329
2.00856
1.86588
1.69536
1.52335
1.41454
1.58763
2.64541
3.46763
3.69721
3.83492
3.98564
4.14058
4.27773
4.38562
4.46243
4.51109
4.53673
4.54455
4.53683
4.51125
4.46249
4.38495
4.27338
4.12009
3.91608
3.6861
3.52941
3.66255
3.56802
3.0936
2.02226
1.46136
1.43131
1.52293
1.62696
1.7126
1.76752
1.78621
1.76687
1.71046
1.62138
1.51111
1.41073
1.41352
1.81285
2.8124
3.44364
3.67361
3.83492
4.00981
4.18813
4.34527
4.467
4.54875
4.59093
4.59945
4.58936
4.58226
4.58939
4.59939
4.5905
4.54744
4.46337
4.33301
4.14787
3.92548
3.76663
3.47825
3.4817
3.44295
3.22965
2.66785
1.95295
1.55845
1.44893
1.44319
1.45858
1.46578
1.45704
1.43813
1.43361
1.50758
1.78849
2.3673
2.99925
3.38669
3.60222
3.78634
3.98564
4.18813
4.36702
4.50385
4.58691
4.60186
4.52371
4.33007
4.08539
3.96899
4.08512
4.3292
4.52201
4.59922
4.58312
4.49587
4.34053
4.13117
3.97133
3.29327
3.3197
3.35823
3.37925
3.33671
3.17638
2.8805
2.52312
2.22581
2.05085
1.9949
2.0457
2.20282
2.45067
2.72141
2.94045
3.11586
3.29409
3.48332
3.68765
3.91208
4.14058
4.34527
4.50385
4.59642
4.58317
4.32951
3.4558
2.07133
1.35921
1.20911
1.35861
2.0677
3.447
4.32157
4.57812
4.59301
4.48921
4.30233
4.14483
3.1466
3.1757
3.22457
3.2782
3.32078
3.33895
3.32448
3.279
3.21786
3.16608
3.14523
3.16031
3.19387
3.21154
3.18692
3.14818
3.18156
3.3242
3.53807
3.7866
4.04282
4.27773
4.467
4.58691
4.58317
4.20752
2.45381
1.03727
0.913868
0.933139
0.94533
0.933119
0.913727
1.03495
2.42955
4.19633
4.58614
4.58668
4.43759
4.28741
3.053
3.07528
3.11407
3.16058
3.20622
3.24459
3.27213
3.28826
3.29521
3.29686
3.29592
3.29001
3.26852
3.21538
3.13201
3.08003
3.14877
3.34378
3.60762
3.89098
4.15885
4.38562
4.54875
4.60186
4.32951
2.45381
0.949952
0.943041
1.0222
1.08234
1.10398
1.08234
1.02228
0.943286
0.948775
2.43056
4.3448
4.62114
4.53579
4.39902
3.00767
3.02042
3.04353
3.07315
3.10505
3.13558
3.16203
3.18287
3.1976
3.20611
3.20723
3.19635
3.16327
3.09726
3.01653
3.00214
3.13082
3.38101
3.68285
3.98282
4.24957
4.46243
4.59093
4.52371
3.4558
1.03727
0.943041
1.0594
1.16898
1.24299
1.26901
1.243
1.1691
1.05989
0.944308
1.03568
3.50061
4.57187
4.59736
4.48046
2.99345
2.99882
3.00912
3.02344
3.04038
3.05823
3.07528
3.09007
3.10145
3.10828
3.10816
3.09532
3.05925
2.99325
2.92874
2.95587
3.13514
3.42461
3.74699
4.05136
4.31272
4.51109
4.59945
4.33007
2.07133
0.913868
1.0222
1.16898
1.29414
1.37722
1.40628
1.37724
1.29428
1.16957
1.02382
0.916772
2.13228
4.42056
4.6265
4.53403
2.99295
2.99445
2.99762
3.00259
3.00924
3.01709
3.02535
3.03316
3.03958
3.04332
3.04155
3.02789
2.99162
2.92899
2.87964
2.93653
3.14765
3.45836
3.78883
4.09289
4.34949
4.53673
4.58936
4.08539
1.35921
0.933139
1.08234
1.24299
1.37722
1.46579
1.4967
1.46582
1.37737
1.24363
1.08409
0.936795
1.39795
4.22143
4.63361
4.56353
2.99578
2.99588
2.99627
2.99721
2.99888
3.00127
3.0042
3.00732
3.01013
3.01153
3.00868
2.99496
2.95956
2.89985
2.85843
2.92853
3.15267
3.47101
3.80353
4.1069
4.36158
4.54455
4.58226
3.96899
1.20911
0.94533
1.10398
1.26901
1.40628
1.4967
1.52823
1.49672
1.40644
1.26967
1.10578
0.949121
1.23937
4.12541
4.63344
4.5728
2.99809
2.99791
2.99764
2.99744
2.99745
2.99776
2.99842
2.99937
3.00039
3.00065
2.9975
2.98441
2.95053
2.89248
2.85102
2.91871
3.14032
3.45744
3.78964
4.09346
4.34973
4.53683
4.58939
4.08512
1.35861
0.933119
1.08234
1.243
1.37724
1.46582
1.49672
1.46584
1.37739
1.24364
1.0841
0.936771
1.39726
4.2211
4.63359
4.56354
2.99931
2.99917
2.99892
2.99863
2.99836
2.99821
2.99823
2.99849
2.99892
2.99889
2.99604
2.98427
2.95279
2.89606
2.84876
2.9012
3.10731
3.41637
3.74687
4.05235
4.31321
4.51125
4.59939
4.3292
2.0677
0.913727
1.02228
1.1691
1.29428
1.37737
1.40644
1.37739
1.29443
1.16969
1.02389
0.916626
2.12829
4.41968
4.62641
4.53407
2.99981
2.99974
2.99961
2.99944
2.99927
2.99913
2.99909
2.99924
2.99958
2.99964
2.99746
2.98762
2.95971
2.9054
2.84967
2.87697
3.05511
3.34847
3.67514
3.98283
4.25015
4.46249
4.5905
4.52201
3.447
1.03495
0.943286
1.05989
1.16957
1.24363
1.26967
1.24364
1.16969
1.06038
0.944548
1.03334
3.49144
4.57031
4.59721
4.48065
2.99997
2.99994
2.99989
2.99982
2.99975
2.99969
2.9997
2.99987
3.00023
3.00049
2.99914
2.99164
2.96847
2.91883
2.85575
2.85156
2.98862
3.25557
3.57404
3.88344
4.15791
4.38495
4.54744
4.59922
4.32157
2.42955
0.948775
0.944308
1.02382
1.08409
1.10578
1.0841
1.02389
0.944548
0.947613
2.40543
4.33654
4.61893
4.53559
4.39961
3.00001
3
2.99998
2.99996
2.99993
2.99993
2.99997
3.00015
3.00052
3.00096
3.00042
2.99541
2.9778
2.93554
2.86959
2.83271
2.9156
3.14046
3.44202
3.75083
4.03242
4.27338
4.46337
4.58312
4.57812
4.19633
2.43056
1.03568
0.916772
0.936795
0.949121
0.936771
0.916626
1.03334
2.40543
4.1841
4.58072
4.58355
4.43651
4.2878
3.00001
3.00001
3
3
2.99999
3
3.00005
3.0002
3.00057
3.00112
3.00126
2.99859
2.98672
2.95391
2.89151
2.82728
2.84586
3.00726
3.27568
3.5777
3.86557
4.12009
4.33301
4.49587
4.59301
4.58614
4.3448
3.50061
2.13228
1.39795
1.23937
1.39726
2.12829
3.49144
4.33654
4.58072
4.58909
4.48112
4.29342
4.13773
3
3
3
3
3
3.00001
3.00005
3.00018
3.0005
3.00111
3.00176
3.00101
2.99427
2.97132
2.91794
2.83704
2.78914
2.86419
3.07563
3.35898
3.64964
3.91608
4.14787
4.34053
4.48921
4.58668
4.62114
4.57187
4.42056
4.22143
4.12541
4.2211
4.41968
4.57031
4.61893
4.58355
4.48112
4.31147
4.09147
3.92958
3
3
3
3
3
3
3.00003
3.00013
3.00042
3.00103
3.00201
3.0026
2.99968
2.98488
2.94199
2.85546
2.75172
2.73171
2.87079
3.12692
3.41516
3.6861
3.92548
4.13117
4.30233
4.43759
4.53579
4.59736
4.6265
4.63361
4.63344
4.63359
4.62641
4.59721
4.53559
4.43651
4.29342
4.09147
3.84369
3.66724
3
3
3
3
3
3
3.00002
3.00011
3.00036
3.00098
3.00211
3.00337
3.00248
2.99226
2.95631
2.86984
2.7342
2.64788
2.73509
2.97361
3.25965
3.52941
3.76663
3.97133
4.14483
4.28741
4.39902
4.48046
4.53403
4.56353
4.5728
4.56354
4.53407
4.48065
4.39961
4.2878
4.13773
3.92958
3.66724
3.47555
