# vtk DataFile Version 3.0
Brusselator Concentration Output
ASCII
DATASET STRUCTURED_POINTS
DIMENSIONS 40 40 1
ORIGIN 0.0 0.0 0.0
SPACING 0.005 0.005 1.0
POINT_DATA 1600
SCALARS C1 double 1
LOOKUP_TABLE default
1
1
1
1.00001
1.00003
1.00008
1.00018
1.00031
1.00045
1.00055
1.00059
1.00055
1.00045
1.00031
1.00018
1.00008
1.00003
1.00001
1
1
1
1
1
1
1
1
1
1
1
1
1
1
1
1
1
1
1
1
1
1
1
1
1.00001
1.00004
1.0001
1.00024
1.00048
1.00078
1.00105
1.00121
1.00125
1.00121
1.00105
1.00078
1.00048
1.00024
1.0001
1.00004
1.00001
1
1
1
1
1
1
1
1
1
1
1
1
1
1
1
1
1
1
1
1
1
1
1.00001
1.00004
1.00013
1.00033
1.00073
1.00131
1.0019
1.00222
1.00223
1.00217
1.00223
1.00222
1.0019
1.00131
1.00073
1.00033
1.00013
1.00004
1.00001
1
1
1
1
1
1
1
1
1
1
1
1
1
1
1
1
1
1
1
1
1.00001
1.00004
1.00013
1.00037
1.00091
1.00181
1.00281
1.00318
1.00232
1.00082
1.00012
1.00082
1.00232
1.00318
1.00281
1.00181
1.00091
1.00037
1.00013
1.00004
1.00001
1
1
1
1
1
1
1
1
1
1
1
1
1
1
1
1
1
1
1
1.00003
1.0001
1.00033
1.00091
1.00201
1.00339
1.0037
1.00078
0.994216
0.98739
0.984655
0.98739
0.994216
1.00078
1.0037
1.00339
1.00201
1.00091
1.00033
1.0001
1.00003
1.00001
1
1
1
1
1
1
1
1
1
1
1
1
1
1
1
1
1
1
1.00008
1.00024
1.00073
1.00181
1.00339
1.00383
0.998924
0.984631
0.963649
0.946007
0.939711
0.946007
0.963649
0.984631
0.998924
1.00383
1.00339
1.00181
1.00073
1.00024
1.00007
1.00002
1
1
1
1
1
1
1
1
1
1
1
1
1
1
1
1
1
1
1.00018
1.00048
1.00131
1.00281
1.0037
0.998924
0.979909
0.943437
0.901195
0.871628
0.862421
0.871628
0.901195
0.943437
0.979909
0.998924
1.0037
1.00281
1.00131
1.00047
1.00014
1.00004
1.00001
1
1
1
1
1
1
1
1
1
1
1
1
1
1
1
1
1
1.00031
1.00078
1.0019
1.00318
1.00078
0.984631
0.943437
0.881193
0.822038
0.788297
0.780152
0.788297
0.822038
0.881193
0.943437
0.984631
1.00078
1.00318
1.0019
1.00076
1.00024
1.00006
1.00002
1
1
1
1
1
1
1
1
1
1
1
1
1
1
1
1
1
1.00045
1.00105
1.00222
1.00232
0.994216
0.963649
0.901195
0.822038
0.759404
0.733369
0.731862
0.733369
0.759404
0.822038
0.901195
0.963649
0.994216
1.00232
1.00222
1.00102
1.00035
1.0001
1.00002
1
1
1
1
1
1
1
1
1
1
1
1
1
1
1
1
1
1.00055
1.00121
1.00223
1.00082
0.98739
0.946007
0.871628
0.788297
0.733369
0.723378
0.733073
0.723378
0.733369
0.788297
0.871628
0.946007
0.98739
1.00082
1.00222
1.00118
1.00043
1.00012
1.00003
1.00001
1
1
1
1
1
1
1
1
1
1
1
1
1
1
1
1
1.00059
1.00125
1.00217
1.00012
0.984655
0.939711
0.862421
0.780152
0.731862
0.733073
0.750415
0.733073
0.731862
0.780152
0.862421
0.939711
0.984654
1.00011
1.00217
1.00122
1.00045
1.00013
1.00003
1.00001
1
1
1
1
1
1
1
1
1
1
1
1
1
1
1
1
1.00055
1.00121
1.00223
1.00082
0.98739
0.946007
0.871628
0.788297
0.733369
0.723378
0.733073
0.723378
0.733369
0.788297
0.871628
0.946007
0.98739
1.00082
1.00222
1.00118
1.00043
1.00012
1.00003
1.00001
1
1
1
1
1
1
1
1
1
1
1
1
1
1
1
1
1.00045
1.00105
1.00222
1.00232
0.994216
0.963649
0.901195
0.822038
0.759404
0.733369
0.731862
0.733369
0.759404
0.822038
0.901195
0.963649
0.994216
1.00232
1.00222
1.00102
1.00035
1.0001
1.00002
1
1
1
1
1
1
1
1
1
1
1
1
1
1
1
1
1
1.00031
1.00078
1.0019
1.00318
1.00078
0.984631
0.943437
0.881193
0.822038
0.788297
0.780152
0.788297
0.822038
0.881193
0.943437
0.984631
1.00078
1.00318
1.0019
1.00076
1.00024
1.00006
1.00002
1
1
1
1
1
1
1
1
1
1
1
1
1
1
1
1
1
1.00018
1.00048
1.00131
1.00281
1.0037
0.998924
0.979909
0.943437
0.901195
0.871628
0.862421
0.871628
0.901195
0.943437
0.979909
0.998924
1.0037
1.00281
1.00131
1.00047
1.00014
1.00004
1.00001
1
1
1
1
1
1
1
1
1
1
1
1
1
1
1
1
1
1.00008
1.00024
1.00073
1.00181
1.00339
1.00383
0.998924
0.984631
0.963649
0.946007
0.939711
0.946007
0.963649
0.984631
0.998924
1.00383
1.00339
1.00181
1.00073
1.00024
1.00007
1.00002
1
1
1
1
1
1
1
1
1
1
1
1
1
1
1
1
1
1
1.00003
1.0001
1.00033
1.00091
1.00201
1.00339
1.0037
1.00078
0.994216
0.98739
0.984654
0.98739
0.994216
1.00078
1.0037
1.00339
1.00201
1.00091
1.00033
1.0001
1.00003
1.00001
1
1
1
1
1
1
1
1
1
1
1
1
1
1
1
1
1
1
1.00001
1.00004
1.00013
1.00037
1.00091
1.00181
1.00281
1.00318
1.00232
1.00082
1.00011
1.00082
1.00232
1.00318
1.00281
1.00181
1.00091
1.00037
1.00013
1.00004
1.00001
1
1
1
1
1
1
0.999999
0.999999
0.999998
0.999998
0.999998
0.999999
0.999999
1
1
1
1
1
1
1
1.00001
1.00004
1.00013
1.00033
1.00073
1.00131
1.0019
1.00222
1.00222
1.00217
1.00222
1.00222
1.0019
1.00131
1.00073
1.00033
1.00013
1.00004
1.00001
1
1
1
1
1
0.999999
0.999998
0.999996
0.999993
0.999991
0.99999
0.999991
0.999993
0.999996
0.999998
0.999999
1
1
1
1
1
1
1.00001
1.00004
1.0001
1.00024
1.00047
1.00076
1.00102
1.00118
1.00122
1.00118
1.00102
1.00076
1.00047
1.00024
1.0001
1.00004
1.00001
1
1
1
1
0.999999
0.999998
0.999995
0.99999
0.999981
0.999971
0.999963
0.99996
0.999963
0.999971
0.999981
0.99999
0.999995
0.999998
0.999999
1
1
1
1
1
1.00001
1.00003
1.00007
1.00014
1.00024
1.00035
1.00043
1.00045
1.00043
1.00035
1.00024
1.00014
1.00007
1.00003
1.00001
1
1
1
1
0.999999
0.999997
0.999992
0.99998
0.999959
0.999928
0.999894
0.999867
0.999858
0.999867
0.999894
0.999928
0.999959
0.99998
0.999992
0.999997
0.999999
1
1
1
1
1
1.00001
1.00002
1.00004
1.00006
1.0001
1.00012
1.00013
1.00012
1.0001
1.00006
1.00004
1.00002
1.00001
1
1
1
1
0.999999
0.999996
0.999989
0.99997
0.999929
0.999859
0.999764
0.999669
0.999606
0.999585
0.999606
0.999669
0.999764
0.999859
0.999929
0.99997
0.999989
0.999996
0.999999
1
1
1
1
1
1
1.00001
1.00002
1.00002
1.00003
1.00003
1.00003
1.00002
1.00002
1.00001
1
1
1
1
1
0.999999
0.999996
0.999988
0.999963
0.999902
0.99978
0.999587
0.99936
0.999182
0.999106
0.999093
0.999106
0.999182
0.99936
0.999587
0.99978
0.999902
0.999963
0.999988
0.999996
1
1
1
1
1
1
1
1
1
1.00001
1.00001
1.00001
1
1
1
1
1
1
1
0.999999
0.999997
0.999989
0.999963
0.999891
0.999726
0.999425
0.999018
0.998683
0.998651
0.998895
0.99905
0.998895
0.998651
0.998683
0.999018
0.999425
0.999726
0.999891
0.999962
0.999986
1
1
1
1
1
1
1
1
1
1
1
1
1
1
1
1
1
1
1
0.999998
0.999992
0.99997
0.999902
0.999726
0.999358
0.998788
0.998288
0.998501
0.999932
1.00194
1.00287
1.00194
0.999932
0.998501
0.998288
0.998788
0.999358
0.999726
0.9999
0.999962
1
1
1
1
1
1
1
1
1
1
1
1
1
1
1
1
1
1
0.999999
0.999995
0.99998
0.999929
0.99978
0.999425
0.998788
0.99814
0.998586
1.00199
1.00913
1.01692
1.02013
1.01692
1.00913
1.00199
0.998586
0.99814
0.998788
0.999423
0.999775
0.999909
1
1
1
1
1
1
1
1
1
1
1
1
1
1
1
1
1
1
0.999998
0.99999
0.999959
0.999859
0.999587
0.999018
0.998288
0.998586
1.00312
1.01625
1.03797
1.05807
1.06512
1.05807
1.03797
1.01625
1.00312
0.998586
0.998288
0.999015
0.999576
0.999818
1
1
1
1
1
1
1
1
1
1
1
1
1
1
1
1
1
0.999999
0.999996
0.999981
0.999928
0.999764
0.99936
0.998683
0.998501
1.00199
1.01625
1.04882
1.09361
1.1243
1.13065
1.1243
1.09361
1.04882
1.01625
1.00199
0.9985
0.998679
0.999341
0.999691
1
1
1
1
1
1
1
1
1
1
1
1
1
1
1
1
1
0.999999
0.999993
0.999971
0.999894
0.999669
0.999182
0.998651
0.999932
1.00913
1.03797
1.09361
1.1495
1.15999
1.14982
1.15999
1.1495
1.09361
1.03797
1.00913
0.999931
0.998644
0.999153
0.999563
1
1
1
1
1
1
1
1
1
1
1
1
1
1
1
1
1
0.999998
0.999991
0.999963
0.999867
0.999606
0.999106
0.998895
1.00194
1.01692
1.05807
1.1243
1.15999
1.12281
1.09105
1.12281
1.15999
1.1243
1.05807
1.01692
1.00194
0.998886
0.999069
0.999473
1
1
1
1
1
1
1
1
1
1
1
1
1
1
1
1
1
0.999998
0.99999
0.99996
0.999858
0.999585
0.999093
0.99905
1.00287
1.02013
1.06512
1.13065
1.14982
1.09105
1.05181
1.09105
1.14982
1.13065
1.06512
1.02013
1.00287
0.99904
0.999053
0.999442
1
1
1
1
1
1
1
1
1
1
1
1
1
1
1
1
1
0.999998
0.999991
0.999963
0.999867
0.999606
0.999106
0.998895
1.00194
1.01692
1.05807
1.1243
1.15999
1.12281
1.09105
1.12281
1.15999
1.1243
1.05807
1.01692
1.00194
0.998886
0.999069
0.999473
1
1
1
1
1
1
1
1
1
1
1
1
1
1
1
1
1
0.999999
0.999993
0.999971
0.999894
0.999669
0.999182
0.998651
0.999932
1.00913
1.03797
1.09361
1.1495
1.15999
1.14982
1.15999
1.1495
1.09361
1.03797
1.00913
0.999931
0.998644
0.999153
0.999563
1
1
1
1
1
1
1
1
1
1
1
1
1
1
1
1
1
0.999999
0.999996
0.999981
0.999928
0.999764
0.99936
0.998683
0.998501
1.00199
1.01625
1.04882
1.09361
1.1243
1.13065
1.1243
1.09361
1.04882
1.01625
1.00199
0.9985
0.998679
0.999341
0.999691
1
1
1
1
1
1
1
1
1
1
1
1
1
1
1
1
1
1
0.999998
0.99999
0.999959
0.999859
0.999587
0.999018
0.998288
0.998586
1.00312
1.01625
1.03797
1.05807
1.06512
1.05807
1.03797
1.01625
1.00312
0.998586
0.998288
0.999015
0.999576
0.999818
1
1
1
1
1
1
1
1
1
1
1
1
1
1
1
1
1
1
0.999999
0.999995
0.99998
0.999929
0.99978
0.999425
0.998788
0.99814
0.998586
1.00199
1.00913
1.01692
1.02013
1.01692
1.00913
1.00199
0.998586
0.99814
0.998788
0.999423
0.999775
0.999909
1
1
1
1
1
1
1
1
1
1
1
1
1
1
1
1
1
1
1
0.999998
0.999992
0.99997
0.999902
0.999726
0.999358
0.998788
0.998288
0.9985
0.999931
1.00194
1.00287
1.00194
0.999931
0.9985
0.998288
0.998788
0.999358
0.999726
0.9999
0.999962
1
1
1
1
1
1
1
1
1
1
1
1
1
1
1
1
1
1
1
0.999999
0.999997
0.999989
0.999963
0.999891
0.999726
0.999423
0.999015
0.998679
0.998644
0.998886
0.99904
0.998886
0.998644
0.998679
0.999015
0.999423
0.999726
0.999891
0.999962
0.999986
1
1
1
1
1
1
1
1
1
1
1
1
1
1
1
1
1
1
1
1
0.999999
0.999996
0.999988
0.999962
0.9999
0.999775
0.999576
0.999341
0.999153
0.999069
0.999053
0.999069
0.999153
0.999341
0.999576
0.999775
0.9999
0.999962
0.999987
0.999996
1
1
1
1
1
1
1
1
1
1
1
1
1
1
1
1
1
1
1
1
1
0.999999
0.999996
0.999986
0.999962
0.999909
0.999818
0.999691
0.999563
0.999473
0.999442
0.999473
0.999563
0.999691
0.999818
0.999909
0.999962
0.999986
0.999996
0.999998
SCALARS C2 double 1
LOOKUP_TABLE default
3
3
3
2.99999
2.99997
2.99992
2.99982
2.99966
2.99947
2.99932
2.99926
2.99932
2.99947
2.99966
2.99982
2.99992
2.99997
2.99999
3
3
3
3
3
3
3
3
3
3
3
3
3
3
3
3
3
3
3
3
3
3
3
3
2.99999
2.99996
2.9999
2.99974
2.99944
2.999
2.99853
2.99818
2.99806
2.99818
2.99853
2.999
2.99944
2.99974
2.9999
2.99996
2.99999
3
3
3
3
3
3
3
3
3
3
3
3
3
3
3
3
3
3
3
3
3
3
2.99999
2.99996
2.99987
2.99964
2.99912
2.99822
2.99703
2.99593
2.9953
2.99513
2.9953
2.99593
2.99703
2.99822
2.99912
2.99964
2.99987
2.99996
2.99999
3
3
3
3
3
3
3
3
3
3
3
3
3
3
3
3
3
3
3
3
2.99999
2.99996
2.99987
2.9996
2.9989
2.99747
2.99526
2.99293
2.99165
2.99176
2.99207
2.99176
2.99165
2.99293
2.99526
2.99747
2.9989
2.9996
2.99987
2.99996
2.99999
3
3
3
3
3
3
3
3
3
3
3
3
3
3
3
3
3
3
3
2.99997
2.9999
2.99964
2.9989
2.99716
2.99403
2.99028
2.98862
2.99172
2.99775
3.00073
2.99775
2.99172
2.98862
2.99028
2.99403
2.99716
2.9989
2.99964
2.9999
2.99997
2.99999
3
3
3
3
3
3
3
3
3
3
3
3
3
3
3
3
3
3
2.99992
2.99974
2.99912
2.99747
2.99403
2.98922
2.98713
2.99551
3.01744
3.04228
3.05271
3.04228
3.01744
2.99551
2.98713
2.98922
2.99403
2.99747
2.99912
2.99974
2.99993
2.99998
3
3
3
3
3
3
3
3
3
3
3
3
3
3
3
3
3
3
2.99982
2.99944
2.99822
2.99526
2.99028
2.98713
2.99797
3.03735
3.10244
3.16379
3.18738
3.16379
3.10244
3.03735
2.99797
2.98713
2.99028
2.99526
2.99822
2.99945
2.99985
2.99997
2.99999
3
3
3
3
3
3
3
3
3
3
3
3
3
3
3
3
3
2.99966
2.999
2.99703
2.99293
2.98862
2.99551
3.03735
3.13177
3.26086
3.37125
3.41157
3.37125
3.26086
3.13177
3.03735
2.99551
2.98862
2.99293
2.99703
2.99902
2.99973
2.99993
2.99999
3
3
3
3
3
3
3
3
3
3
3
3
3
3
3
3
3
2.99947
2.99853
2.99593
2.99165
2.99172
3.01744
3.10244
3.26086
3.45734
3.61799
3.67562
3.61799
3.45734
3.26086
3.10244
3.01744
2.99172
2.99165
2.99594
2.99855
2.99958
2.99989
2.99998
3
3
3
3
3
3
3
3
3
3
3
3
3
3
3
3
3
2.99932
2.99818
2.9953
2.99176
2.99775
3.04228
3.16379
3.37125
3.61799
3.8163
3.88684
3.8163
3.61799
3.37125
3.16379
3.04228
2.99775
2.99177
2.99531
2.99821
2.99946
2.99986
2.99997
2.99999
3
3
3
3
3
3
3
3
3
3
3
3
3
3
3
3
2.99926
2.99806
2.99513
2.99207
3.00073
3.05271
3.18738
3.41157
3.67562
3.88684
3.96024
3.88684
3.67562
3.41157
3.18738
3.05271
3.00073
2.99207
2.99514
2.99809
2.99941
2.99985
2.99997
2.99999
3
3
3
3
3
3
3
3
3
3
3
3
3
3
3
3
2.99932
2.99818
2.9953
2.99176
2.99775
3.04228
3.16379
3.37125
3.61799
3.8163
3.88684
3.8163
3.61799
3.37125
3.16379
3.04228
2.99775
2.99177
2.99531
2.99821
2.99946
2.99986
2.99997
2.99999
3
3
3
3
3
3
3
3
3
3
3
3
3
3
3
3
2.99947
2.99853
2.99593
2.99165
2.99172
3.01744
3.10244
3.26086
3.45734
3.61799
3.67562
3.61799
3.45734
3.26086
3.10244
3.01744
2.99172
2.99165
2.99594
2.99855
2.99958
2.99989
2.99998
3
3
3
3
3
3
3
3
3
3
3
3
3
3
3
3
3
2.99966
2.999
2.99703
2.99293
2.98862
2.99551
3.03735
3.13177
3.26086
3.37125
3.41157
3.37125
3.26086
3.13177
3.03735
2.99551
2.98862
2.99293
2.99703
2.99902
2.99973
2.99993
2.99999
3
3
3
3
3
3
3
3
3
3
3
3
3
3
3
3
3
2.99982
2.99944
2.99822
2.99526
2.99028
2.98713
2.99797
3.03735
3.10244
3.16379
3.18738
3.16379
3.10244
3.03735
2.99797
2.98713
2.99028
2.99526
2.99822
2.99945
2.99985
2.99997
2.99999
3
3
3
3
3
3
3
3
3
3
3
3
3
3
3
3
3
2.99992
2.99974
2.99912
2.99747
2.99403
2.98922
2.98713
2.99551
3.01744
3.04228
3.05271
3.04228
3.01744
2.99551
2.98713
2.98922
2.99403
2.99747
2.99912
2.99974
2.99993
2.99998
3
3
3
3
3
3
3
3
3
3
3
3
3
3
3
3
3
3
2.99997
2.9999
2.99964
2.9989
2.99716
2.99403
2.99028
2.98862
2.99172
2.99775
3.00073
2.99775
2.99172
2.98862
2.99028
2.99403
2.99716
2.9989
2.99964
2.9999
2.99997
2.99999
3
3
3
3
3
3
3
3
3
3
3
3
3
3
3
3
3
3
2.99999
2.99996
2.99987
2.9996
2.9989
2.99747
2.99526
2.99293
2.99165
2.99177
2.99207
2.99177
2.99165
2.99293
2.99526
2.99747
2.9989
2.9996
2.99987
2.99996
2.99999
3
3
3
3
3
3
3
3
3
3
3
3
3
3
3
3
3
3
3
3
2.99999
2.99996
2.99987
2.99964
2.99912
2.99822
2.99703
2.99594
2.99531
2.99514
2.99531
2.99594
2.99703
2.99822
2.99912
2.99964
2.99987
2.99996
2.99999
3
3
3
3
3
3
3
3
3.00001
3.00001
3.00001
3.00001
3.00001
3
3
3
3
3
3
3
3
3
2.99999
2.99996
2.9999
2.99974
2.99945
2.99902
2.99855
2.99821
2.99809
2.99821
2.99855
2.99902
2.99945
2.99974
2.9999
2.99996
2.99999
3
3
3
3
3
3
3
3.00001
3.00002
3.00003
3.00004
3.00005
3.00004
3.00003
3.00002
3.00001
3
3
3
3
3
3
3
3
2.99999
2.99997
2.99993
2.99985
2.99973
2.99958
2.99946
2.99941
2.99946
2.99958
2.99973
2.99985
2.99993
2.99997
2.99999
3
3
3
3
3
3
3.00001
3.00002
3.00004
3.00008
3.00013
3.00016
3.00018
3.00016
3.00013
3.00008
3.00004
3.00002
3.00001
3
3
3
3
3
3
3
2.99999
2.99998
2.99997
2.99993
2.99989
2.99986
2.99985
2.99986
2.99989
2.99993
2.99997
2.99998
2.99999
3
3
3
3
3
3
3.00001
3.00003
3.00008
3.00016
3.0003
3.00045
3.00057
3.00061
3.00057
3.00045
3.0003
3.00016
3.00008
3.00003
3.00001
3
3
3
3
3
3
3
3
2.99999
2.99999
2.99998
2.99997
2.99997
2.99997
2.99998
2.99999
2.99999
3
3
3
3
3
3
3
3.00001
3.00004
3.00011
3.00026
3.00054
3.00093
3.00134
3.00162
3.00171
3.00162
3.00134
3.00093
3.00054
3.00026
3.00011
3.00004
3.00001
3
3
3
3
3
3
3
3
3
3
2.99999
2.99999
2.99999
3
3
3
3
3
3
3
3
3
3.00001
3.00004
3.00012
3.00033
3.00077
3.00151
3.00243
3.00319
3.00351
3.00354
3.00351
3.00319
3.00243
3.00151
3.00077
3.00033
3.00012
3.00004
3.00001
3
3
3
3
3
3
3
3
3
3
3
3
3
3
3
3
3
3
3
3
3.00001
3.00003
3.00011
3.00033
3.00086
3.00192
3.00345
3.00485
3.00511
3.00409
3.00337
3.00409
3.00511
3.00485
3.00345
3.00192
3.00086
3.00033
3.00011
3.00004
3
3
3
3
3
3
3
3
3
3
3
3
3
3
3
3
3
3
3
3
3.00002
3.00008
3.00026
3.00077
3.00192
3.00387
3.00592
3.00574
3.00079
2.99272
2.98868
2.99272
3.00079
3.00574
3.00592
3.00387
3.00192
3.00077
3.00026
3.00009
3
3
3
3
3
3
3
3
3
3
3
3
3
3
3
3
3
3
3
3.00001
3.00004
3.00016
3.00054
3.00151
3.00345
3.00592
3.00578
2.99615
2.97166
2.94155
2.92839
2.94155
2.97166
2.99615
3.00578
3.00592
3.00345
3.00151
3.00055
3.00021
3
3
3
3
3
3
3
3
3
3
3
3
3
3
3
3
3
3
3
3.00002
3.00008
3.0003
3.00093
3.00243
3.00485
3.00574
2.99615
2.95975
2.88939
2.81771
2.79195
2.81771
2.88939
2.95975
2.99615
3.00574
3.00486
3.00244
3.00095
3.00038
3
3
3
3
3
3
3
3
3
3
3
3
3
3
3
3
3
3
3.00001
3.00003
3.00013
3.00045
3.00134
3.00319
3.00511
3.00079
2.97166
2.88939
2.75901
2.66051
2.63875
2.66051
2.75901
2.88939
2.97166
3.00079
3.00511
3.0032
3.00137
3.00057
3
3
3
3
3
3
3
3
3
3
3
3
3
3
3
3
3
3
3.00001
3.00004
3.00016
3.00057
3.00162
3.00351
3.00409
2.99272
2.94155
2.81771
2.66051
2.58762
2.59145
2.58762
2.66051
2.81771
2.94155
2.99272
3.00409
3.00352
3.00166
3.00073
3
3
3
3
3
3
3
3
3
3
3
3
3
3
3
3
3
3
3.00001
3.00005
3.00018
3.00061
3.00171
3.00354
3.00337
2.98868
2.92839
2.79195
2.63875
2.59145
2.61053
2.59145
2.63875
2.79195
2.92839
2.98868
3.00337
3.00355
3.00175
3.00079
3
3
3
3
3
3
3
3
3
3
3
3
3
3
3
3
3
3
3.00001
3.00004
3.00016
3.00057
3.00162
3.00351
3.00409
2.99272
2.94155
2.81771
2.66051
2.58762
2.59145
2.58762
2.66051
2.81771
2.94155
2.99272
3.00409
3.00352
3.00166
3.00073
3
3
3
3
3
3
3
3
3
3
3
3
3
3
3
3
3
3
3.00001
3.00003
3.00013
3.00045
3.00134
3.00319
3.00511
3.00079
2.97166
2.88939
2.75901
2.66051
2.63875
2.66051
2.75901
2.88939
2.97166
3.00079
3.00511
3.0032
3.00137
3.00057
3
3
3
3
3
3
3
3
3
3
3
3
3
3
3
3
3
3
3
3.00002
3.00008
3.0003
3.00093
3.00243
3.00485
3.00574
2.99615
2.95975
2.88939
2.81771
2.79195
2.81771
2.88939
2.95975
2.99615
3.00574
3.00486
3.00244
3.00095
3.00038
3
3
3
3
3
3
3
3
3
3
3
3
3
3
3
3
3
3
3
3.00001
3.00004
3.00016
3.00054
3.00151
3.00345
3.00592
3.00578
2.99615
2.97166
2.94155
2.92839
2.94155
2.97166
2.99615
3.00578
3.00592
3.00345
3.00151
3.00055
3.00021
3
3
3
3
3
3
3
3
3
3
3
3
3
3
3
3
3
3
3
3
3.00002
3.00008
3.00026
3.00077
3.00192
3.00387
3.00592
3.00574
3.00079
2.99272
2.98868
2.99272
3.00079
3.00574
3.00592
3.00387
3.00192
3.00077
3.00026
3.00009
3
3
3
3
3
3
3
3
3
3
3
3
3
3
3
3
3
3
3
3
3.00001
3.00003
3.00011
3.00033
3.00086
3.00192
3.00345
3.00486
3.00511
3.00409
3.00337
3.00409
3.00511
3.00486
3.00345
3.00192
3.00086
3.00033
3.00011
3.00004
3
3
3
3
3
3
3
3
3
3
3
3
3
3
3
3
3
3
3
3
3
3.00001
3.00004
3.00012
3.00033
3.00077
3.00151
3.00244
3.0032
3.00352
3.00355
3.00352
3.0032
3.00244
3.00151
3.00077
3.00033
3.00012
3.00004
3.00001
3
3
3
3
3
3
3
3
3
3
3
3
3
3
3
3
3
3
3
3
3
3
3.00001
3.00004
3.00011
3.00026
3.00055
3.00095
3.00137
3.00166
3.00175
3.00166
3.00137
3.00095
3.00055
3.00026
3.00011
3.00004
3.00001
3
3
3
3
3
3
3
3
3
3
3
3
3
3
3
3
3
3
3
3
3
3
3
3
3.00001
3.00004
3.00009
3.00021
3.00038
3.00057
3.00073
3.00079
3.00073
3.00057
3.00038
3.00021
3.00009
3.00004
3.00001
3
3
