# vtk DataFile Version 3.0
Brusselator Concentration Output
ASCII
DATASET STRUCTURED_POINTS
DIMENSIONS 40 40 1
ORIGIN 0.0 0.0 0.0
SPACING 0.005 0.005 1.0
POINT_DATA 1600
SCALARS C1 double 1
LOOKUP_TABLE default
0.998613
1.01141
1.04153
1.092
1.15301
1.19812
1.2046
1.17609
1.13485
1.10209
1.08994
1.10208
1.13485
1.17609
1.20462
1.19823
1.15333
1.09279
1.04311
1.01391
1.00115
0.997518
0.997582
0.998523
0.999298
0.999728
0.999915
0.999981
0.999998
1
1
1
1
1
1
1
1
1
1
1
1.01141
1.03316
1.07628
1.12637
1.14947
1.12235
1.05798
0.98524
0.925092
0.887103
0.874265
0.887103
0.925093
0.98525
1.05802
1.12249
1.14989
1.12732
1.07794
1.03495
1.01064
1.00081
0.998313
0.998471
0.99913
0.999615
0.999862
0.999961
0.999993
1
1
1
1
1
1
1
1
1
1
1
1.04153
1.07628
1.1239
1.13127
1.06281
0.947786
0.833946
0.746043
0.688198
0.656426
0.646392
0.656426
0.6882
0.746055
0.833996
0.947955
1.06328
1.13221
1.12505
1.0754
1.03198
1.00913
1.00065
0.998723
0.998915
0.999421
0.999761
0.99992
0.999979
0.999997
1
1
1
1
1
1
1
1
1
1
1.092
1.12637
1.13127
1.04333
0.893031
0.748345
0.642159
0.575345
0.53759
0.518998
0.513467
0.518998
0.537592
0.575356
0.642206
0.748504
0.893414
1.04379
1.13038
1.11889
1.06513
1.02466
1.00595
0.999898
0.99888
0.999213
0.999624
0.999859
0.999958
0.999991
0.999999
1
1
1
1
1
1
1
1
1
1.15301
1.14947
1.06281
0.893031
0.721987
0.59865
0.525162
0.486495
0.468245
0.460792
0.458865
0.460792
0.468247
0.486504
0.525201
0.598773
0.722205
0.892674
1.05844
1.13101
1.10055
1.04728
1.01523
1.00263
0.999303
0.999088
0.99948
0.999782
0.999927
0.999981
0.999997
1
1
1
1
1
1
1
1
1
1.19812
1.12235
0.947786
0.748345
0.59865
0.511274
0.468525
0.451432
0.447085
0.447508
0.448156
0.447508
0.447087
0.451441
0.468555
0.511355
0.598683
0.747132
0.939663
1.09178
1.12052
1.07227
1.02813
1.00717
1.00039
0.999143
0.999363
0.9997
0.999891
0.999968
0.999993
0.999999
1
1
1
1
1
1
1
1
1.2046
1.05798
0.833946
0.642159
0.525162
0.468525
0.447767
0.445617
0.451473
0.458224
0.461073
0.458224
0.451475
0.445624
0.44779
0.46857
0.525033
0.640239
0.82282
1.01833
1.11442
1.09216
1.04243
1.01312
1.00212
0.999422
0.999304
0.999626
0.999852
0.999954
0.999989
0.999998
1
1
1
1
1
1
1
1
1.17609
0.98524
0.746043
0.575345
0.486495
0.451432
0.445617
0.454547
0.469221
0.482284
0.487514
0.482285
0.469223
0.454554
0.445636
0.45145
0.486241
0.572924
0.73301
0.941
1.08835
1.10229
1.0552
1.01943
1.00423
0.999881
0.99931
0.99957
0.999818
0.999939
0.999984
0.999997
1
1
1
1
1
1
1
1
1.13485
0.925092
0.688198
0.53759
0.468245
0.447085
0.451473
0.469221
0.492225
0.512073
0.520041
0.512074
0.492227
0.469228
0.451488
0.447083
0.467905
0.534853
0.674196
0.879674
1.05721
1.10389
1.06441
1.02486
1.00624
1.00039
0.99936
0.999536
0.999791
0.999928
0.99998
0.999996
1
1
1
1
1
1
1
1
1.10209
0.887103
0.656426
0.518998
0.460792
0.447508
0.458224
0.482284
0.512073
0.537963
0.548486
0.537963
0.512075
0.482291
0.458238
0.447494
0.460399
0.516091
0.642036
0.841986
1.03381
1.1018
1.0696
1.02846
1.00767
1.00078
0.999416
0.99952
0.999775
0.999921
0.999979
0.999997
1
1
1
1
1
1
1
1
1.08994
0.874265
0.646392
0.513467
0.458865
0.448156
0.461073
0.487514
0.520041
0.548486
0.560117
0.548486
0.520043
0.487521
0.461086
0.448138
0.458455
0.510507
0.631908
0.829426
1.02529
1.10052
1.07124
1.02971
1.00819
1.00093
0.999441
0.99952
0.999774
0.999924
0.999983
1
1.00001
1
1
1
1
1
1
1
1.10208
0.887103
0.656426
0.518998
0.460792
0.447508
0.458224
0.482285
0.512074
0.537963
0.548486
0.537964
0.512076
0.482291
0.458238
0.447494
0.460399
0.516091
0.642037
0.841986
1.03381
1.10179
1.06961
1.02846
1.00768
1.00079
0.999429
0.999539
0.999797
0.999946
1
1.00002
1.00002
1.00002
1.00001
1.00001
1.00001
1
1
1
1.13485
0.925093
0.6882
0.537592
0.468247
0.447087
0.451475
0.469223
0.492227
0.512075
0.520043
0.512076
0.492229
0.469229
0.45149
0.447084
0.467907
0.534856
0.674199
0.879676
1.05721
1.10389
1.06441
1.02487
1.00626
1.00042
0.999409
0.999598
0.999863
1.00001
1.00006
1.00008
1.00007
1.00006
1.00005
1.00003
1.00002
1.00001
1.00001
1
1.17609
0.98525
0.746055
0.575356
0.486504
0.451441
0.445624
0.454554
0.469228
0.482291
0.487521
0.482291
0.469229
0.45456
0.445643
0.451458
0.486251
0.572935
0.733022
0.94101
1.08836
1.1023
1.05523
1.01947
1.0043
0.999986
0.999445
0.999731
0.999996
1.00013
1.00018
1.00019
1.00018
1.00016
1.00014
1.0001
1.00007
1.00004
1.00003
1.00002
1.20462
1.05802
0.833996
0.642206
0.525201
0.468555
0.44779
0.445636
0.451488
0.458238
0.461086
0.458238
0.45149
0.445643
0.447813
0.4686
0.525072
0.640287
0.82287
1.01838
1.11446
1.09221
1.04251
1.01325
1.00231
0.999669
0.999593
0.999935
1.00016
1.00026
1.00029
1.00031
1.00031
1.00031
1.00029
1.00025
1.00019
1.00013
1.00008
1.00006
1.19823
1.12249
0.947955
0.748504
0.598773
0.511355
0.46857
0.45145
0.447083
0.447494
0.448138
0.447494
0.447084
0.451458
0.4686
0.511436
0.598806
0.747293
0.939838
1.09194
1.12066
1.07242
1.02834
1.00748
1.00077
0.999562
0.999748
0.999988
1.00005
1.00003
1.00001
1.00006
1.00016
1.00029
1.00039
1.00042
1.00039
1.00031
1.00023
1.00018
1.15333
1.14989
1.06328
0.893414
0.722205
0.598683
0.525033
0.486241
0.467905
0.460399
0.458455
0.460399
0.467907
0.486251
0.525072
0.598806
0.722425
0.893063
1.05891
1.13147
1.10093
1.04767
1.0157
1.00316
0.999793
0.999339
0.999278
0.998987
0.998543
0.998166
0.998024
0.998184
0.998616
0.999205
0.999798
1.00025
1.0005
1.00055
1.0005
1.00044
1.09279
1.12732
1.13221
1.04379
0.892674
0.747132
0.640239
0.572924
0.534853
0.516091
0.510507
0.516091
0.534856
0.572935
0.640287
0.747293
0.893063
1.04427
1.13137
1.11993
1.06601
1.02546
1.00668
1.00037
0.998657
0.997724
0.996393
0.994703
0.99308
0.991935
0.991527
0.991945
0.993122
0.994844
0.99677
0.998518
0.999797
1.00052
1.00081
1.00087
1.04311
1.07794
1.12505
1.13038
1.05844
0.939663
0.82282
0.73301
0.674196
0.642036
0.631908
0.642037
0.674199
0.733022
0.82287
0.939838
1.05891
1.13137
1.1263
1.07717
1.03359
1.01038
1.00119
0.997779
0.995309
0.991991
0.987831
0.983584
0.980054
0.977776
0.976995
0.977779
0.980075
0.983665
0.988075
0.992587
0.996437
0.999138
1.00066
1.00128
1.01391
1.03495
1.0754
1.11889
1.13101
1.09178
1.01833
0.941
0.879674
0.841986
0.829426
0.841986
0.879676
0.94101
1.01838
1.09194
1.13147
1.11993
1.07717
1.03677
1.0128
1.00194
0.996931
0.992521
0.986393
0.97856
0.97033
0.963183
0.958028
0.955065
0.954117
0.955065
0.958037
0.963226
0.970481
0.978978
0.987332
0.994149
0.998649
1.00078
1.00115
1.01064
1.03198
1.06513
1.10055
1.12052
1.11442
1.08835
1.05721
1.03381
1.02529
1.03381
1.05721
1.08836
1.11446
1.12066
1.10093
1.06601
1.03359
1.0128
1.00225
0.996405
0.990254
0.981091
0.968955
0.955977
0.944886
0.937468
0.933842
0.932752
0.932622
0.932752
0.933847
0.937497
0.944996
0.956301
0.969732
0.982581
0.992312
0.997427
0.997518
1.00081
1.00913
1.02466
1.04728
1.07227
1.09216
1.10229
1.10389
1.1018
1.10052
1.10179
1.10389
1.1023
1.09221
1.07242
1.04767
1.02546
1.01038
1.00194
0.996405
0.989378
0.977852
0.961712
0.943996
0.929391
0.921883
0.922868
0.930214
0.938636
0.9423
0.938637
0.930222
0.922906
0.922006
0.929718
0.944705
0.96288
0.978938
0.98825
0.997582
0.998313
1.00065
1.00595
1.01523
1.02813
1.04243
1.0552
1.06441
1.0696
1.07124
1.06961
1.06441
1.05523
1.04251
1.02834
1.0157
1.00668
1.00119
0.996931
0.990254
0.977852
0.959022
0.937247
0.919473
0.913631
0.926313
0.96026
1.00892
1.05323
1.07118
1.05323
1.00895
0.960333
0.926504
0.914045
0.920156
0.937804
0.95777
0.970762
0.998523
0.998471
0.998723
0.999898
1.00263
1.00717
1.01312
1.01943
1.02486
1.02846
1.02971
1.02846
1.02487
1.01947
1.01325
1.00748
1.00316
1.00037
0.997779
0.992521
0.981091
0.961712
0.937247
0.916122
0.910909
0.938044
1.02012
1.17382
1.36683
1.51962
1.57532
1.51964
1.3669
1.17399
1.02048
0.938622
0.911485
0.915491
0.931971
0.945255
0.999298
0.99913
0.998915
0.99888
0.999303
1.00039
1.00212
1.00423
1.00624
1.00767
1.00819
1.00768
1.00626
1.0043
1.00231
1.00077
0.999793
0.998657
0.995309
0.986393
0.968955
0.943996
0.919473
0.910909
0.944485
1.07419
1.38789
1.83312
2.1067
2.15994
2.15667
2.15996
2.10679
1.83345
1.38861
1.07506
0.944719
0.908191
0.90837
0.9159
0.999728
0.999615
0.999421
0.999213
0.999088
0.999143
0.999422
0.999881
1.00039
1.00078
1.00093
1.00079
1.00042
0.999986
0.999669
0.999562
0.999339
0.997724
0.991991
0.97856
0.955977
0.929391
0.913631
0.938044
1.07419
1.49285
2.10392
2.16777
1.97088
1.82213
1.77074
1.82214
1.9709
2.16782
2.10437
1.49393
1.07356
0.931991
0.895115
0.889165
0.999915
0.999862
0.999761
0.999624
0.99948
0.999363
0.999304
0.99931
0.99936
0.999416
0.999441
0.999429
0.999409
0.999445
0.999593
0.999748
0.999278
0.996393
0.987831
0.97033
0.944886
0.921883
0.926313
1.02012
1.38789
2.10392
2.1116
1.79006
1.53692
1.38723
1.33833
1.38723
1.53693
1.79001
2.1112
2.1033
1.38496
1.00898
0.899218
0.870742
0.999981
0.999961
0.99992
0.999859
0.999782
0.9997
0.999626
0.99957
0.999536
0.99952
0.99952
0.999539
0.999598
0.999731
0.999935
0.999988
0.998987
0.994703
0.983584
0.963183
0.937468
0.922868
0.96026
1.17382
1.83312
2.16777
1.79006
1.44371
1.20709
1.07405
1.03151
1.07405
1.20709
1.44363
1.78952
2.16533
1.82602
1.15536
0.923989
0.863116
0.999998
0.999993
0.999979
0.999958
0.999927
0.999891
0.999852
0.999818
0.999791
0.999775
0.999774
0.999797
0.999863
0.999996
1.00016
1.00005
0.998543
0.99308
0.980054
0.958028
0.933842
0.930214
1.00892
1.36683
2.1067
1.97088
1.53692
1.20709
0.993339
0.876834
0.840212
0.876838
0.993338
1.207
1.53632
1.96806
2.09723
1.34011
0.963929
0.864546
1
1
0.999997
0.999991
0.999981
0.999968
0.999954
0.999939
0.999928
0.999921
0.999924
0.999946
1.00001
1.00013
1.00026
1.00003
0.998166
0.991935
0.977776
0.955065
0.932752
0.938636
1.05323
1.51962
2.15994
1.82213
1.38723
1.07405
0.876834
0.771673
0.739033
0.771677
0.876832
1.07395
1.3866
1.81923
2.15027
1.48708
1.00177
0.869645
1
1
1
0.999999
0.999997
0.999993
0.999989
0.999984
0.99998
0.999979
0.999983
1
1.00006
1.00018
1.00029
1.00001
0.998024
0.991527
0.976995
0.954117
0.932622
0.9423
1.07118
1.57532
2.15667
1.77074
1.33833
1.03151
0.840212
0.739033
0.707775
0.739036
0.840209
1.03141
1.3377
1.76783
2.14706
1.54091
1.01733
0.872258
1
1
1
1
1
0.999999
0.999998
0.999997
0.999996
0.999997
1
1.00002
1.00008
1.00019
1.00031
1.00006
0.998184
0.991945
0.977779
0.955065
0.932752
0.938637
1.05323
1.51964
2.15996
1.82214
1.38723
1.07405
0.876838
0.771677
0.739036
0.771681
0.876836
1.07396
1.38661
1.81924
2.15029
1.4871
1.00178
0.869646
1
1
1
1
1
1
1
1
1
1
1.00001
1.00002
1.00007
1.00018
1.00031
1.00016
0.998616
0.993122
0.980075
0.958037
0.933847
0.930222
1.00895
1.3669
2.10679
1.9709
1.53693
1.20709
0.993338
0.876832
0.840209
0.876836
0.993337
1.207
1.53633
1.96808
2.09732
1.34018
0.963952
0.864557
1
1
1
1
1
1
1
1
1
1
1
1.00002
1.00006
1.00016
1.00031
1.00029
0.999205
0.994844
0.983665
0.963226
0.937497
0.922906
0.960333
1.17399
1.83345
2.16782
1.79001
1.44363
1.207
1.07395
1.03141
1.07396
1.207
1.44356
1.78948
2.16538
1.82634
1.15553
0.924064
0.86316
1
1
1
1
1
1
1
1
1
1
1
1.00001
1.00005
1.00014
1.00029
1.00039
0.999798
0.99677
0.988075
0.970481
0.944996
0.922006
0.926504
1.02048
1.38861
2.10437
2.1112
1.78952
1.53632
1.3866
1.3377
1.38661
1.53633
1.78948
2.11081
2.10375
1.38567
1.00934
0.899418
0.870884
1
1
1
1
1
1
1
1
1
1
1
1.00001
1.00003
1.0001
1.00025
1.00042
1.00025
0.998518
0.992587
0.978978
0.956301
0.929718
0.914045
0.938622
1.07506
1.49393
2.1033
2.16533
1.96806
1.81923
1.76783
1.81924
1.96808
2.16538
2.10375
1.49502
1.07443
0.932584
0.895557
0.889536
1
1
1
1
1
1
1
1
1
1
1
1.00001
1.00002
1.00007
1.00019
1.00039
1.0005
0.999797
0.996437
0.987332
0.969732
0.944705
0.920156
0.911485
0.944719
1.07356
1.38496
1.82602
2.09723
2.15027
2.14706
2.15029
2.09732
1.82634
1.38567
1.07443
0.944973
0.908808
0.909118
0.916678
1
1
1
1
1
1
1
1
1
1
1
1
1.00001
1.00004
1.00013
1.00031
1.00055
1.00052
0.999138
0.994149
0.982581
0.96288
0.937804
0.915491
0.908191
0.931991
1.00898
1.15536
1.34011
1.48708
1.54091
1.4871
1.34018
1.15553
1.00934
0.932584
0.908808
0.91494
0.932626
0.946437
1
1
1
1
1
1
1
1
1
1
1
1
1.00001
1.00003
1.00008
1.00023
1.0005
1.00081
1.00066
0.998649
0.992312
0.978938
0.95777
0.931971
0.90837
0.895115
0.899218
0.923989
0.963929
1.00177
1.01733
1.00178
0.963952
0.924064
0.899418
0.895557
0.909118
0.932626
0.956548
0.971495
1
1
1
1
1
1
1
1
1
1
1
1
1
1.00002
1.00006
1.00018
1.00044
1.00087
1.00128
1.00078
0.997427
0.98825
0.970762
0.945255
0.9159
0.889165
0.870742
0.863116
0.864546
0.869645
0.872258
0.869646
0.864557
0.86316
0.870884
0.889536
0.916678
0.946437
0.971495
0.985673
SCALARS C2 double 1
LOOKUP_TABLE default
3.01554
3.00481
2.97364
2.90788
2.80389
2.68579
2.59428
2.54978
2.54188
2.54853
2.55275
2.54853
2.54189
2.54978
2.59427
2.6857
2.80356
2.90692
2.97137
3.00026
3.00817
3.00732
3.00446
3.00215
3.00085
3.00027
3.00006
3.00001
2.99999
3
3
3
3
3
3
3
3
3
3
3
3.00481
2.97924
2.91786
2.81856
2.71333
2.65284
2.65515
2.69923
2.75388
2.79538
2.81058
2.79538
2.75388
2.69922
2.65512
2.65269
2.71281
2.81716
2.91489
2.9743
2.99924
3.00549
3.00478
3.00274
3.00124
3.00046
3.00013
3.00003
3
3
3
3
3
3
3
3
3
3
3
3
2.97364
2.91786
2.81009
2.69935
2.66527
2.72876
2.84853
2.97676
3.08259
3.15044
3.17366
3.15044
3.08259
2.97675
2.84848
2.72854
2.66454
2.69743
2.80644
2.91366
2.97511
2.99883
3.00422
3.00353
3.00191
3.00081
3.00028
3.00007
3.00001
3
3
3
3
3
3
3
3
3
3
3
2.90788
2.81856
2.69935
2.66647
2.76562
2.94307
3.13358
3.29904
3.4229
3.49874
3.52423
3.49874
3.4229
3.29903
3.13353
2.94283
2.76481
2.66449
2.69644
2.81936
2.92787
2.9824
3.00063
3.00373
3.00265
3.00129
3.0005
3.00015
3.00004
3
3
3
3
3
3
3
3
3
3
3
2.80389
2.71333
2.66527
2.76562
2.97561
3.21316
3.42875
3.60333
3.73057
3.80779
3.83366
3.80779
3.73057
3.60333
3.42871
3.21294
2.97483
2.76405
2.66517
2.72583
2.85872
2.95226
2.99162
3.00234
3.0031
3.00181
3.00078
3.00027
3.00007
3.00001
3
3
3
3
3
3
3
3
3
3
2.68579
2.65284
2.72876
2.94307
3.21316
3.47183
3.69258
3.86815
3.99575
4.07322
4.09916
4.07322
3.99575
3.86814
3.69255
3.47165
3.21248
2.94203
2.73246
2.68168
2.78634
2.90991
2.97601
2.99853
3.00289
3.00222
3.00108
3.00041
3.00012
3.00003
3
3
3
3
3
3
3
3
3
3
2.59428
2.65515
2.84853
3.13358
3.42875
3.69258
3.91354
4.08872
4.21589
4.29285
4.31853
4.29285
4.21589
4.08872
3.91351
3.69243
3.42817
3.133
2.85574
2.69995
2.73545
2.86399
2.95525
2.99226
3.00182
3.00242
3.00135
3.00055
3.00018
3.00004
3.00001
3
3
3
3
3
3
3
3
3
2.54978
2.69923
2.97676
3.29904
3.60333
3.86815
4.08872
4.26287
4.38808
4.46283
4.48748
4.46283
4.38808
4.26286
4.08871
3.86803
3.60283
3.29876
2.98654
2.75629
2.71548
2.82515
2.93328
2.98454
3.00006
3.00236
3.00155
3.00068
3.00023
3.00006
3.00001
3
3
3
3
3
3
3
3
3
2.54188
2.75388
3.08259
3.4229
3.73057
3.99575
4.21589
4.38808
4.50941
4.5797
4.60228
4.5797
4.50941
4.38808
4.21587
3.99566
3.73013
3.4228
3.09395
2.81878
2.71758
2.79916
2.91462
2.97713
2.9981
3.00214
3.00167
3.00078
3.00028
3.00008
3.00002
3
3
3
3
3
3
3
3
3
2.54853
2.79538
3.15044
3.49874
3.80779
4.07322
4.29285
4.46283
4.5797
4.64474
4.66484
4.64474
4.5797
4.46283
4.29284
4.07313
3.80739
3.49875
3.16262
2.86439
2.72658
2.78559
2.90246
2.97184
2.99658
3.0019
3.00172
3.00085
3.00031
3.00009
3.00002
3
3
3
3
3
3
3
3
3
2.55275
2.81058
3.17366
3.52423
3.83366
4.09916
4.31853
4.48748
4.60228
4.66484
4.68376
4.66484
4.60228
4.48748
4.31852
4.09908
3.83327
3.52427
3.18609
2.88084
2.73094
2.78155
2.89829
2.96993
2.996
3.0018
3.00173
3.00086
3.00032
3.00009
3.00002
3
2.99999
3
3
3
3
3
3
3
2.54853
2.79538
3.15044
3.49874
3.80779
4.07322
4.29285
4.46283
4.5797
4.64474
4.66484
4.64474
4.5797
4.46283
4.29284
4.07313
3.80739
3.49875
3.16262
2.86439
2.72658
2.78559
2.90246
2.97184
2.99657
3.00189
3.00171
3.00083
3.00029
3.00006
2.99999
2.99997
2.99998
2.99998
2.99999
2.99999
3
3
3
3
2.54189
2.75388
3.08259
3.4229
3.73057
3.99575
4.21589
4.38808
4.50941
4.5797
4.60228
4.5797
4.50941
4.38808
4.21587
3.99566
3.73013
3.4228
3.09395
2.81878
2.71758
2.79916
2.91461
2.97712
2.99808
3.0021
3.00161
3.00071
3.00019
2.99998
2.99991
2.9999
2.99991
2.99992
2.99994
2.99996
2.99998
2.99999
3
3
2.54978
2.69922
2.97675
3.29903
3.60333
3.86814
4.08872
4.26286
4.38808
4.46283
4.48748
4.46283
4.38808
4.26286
4.0887
3.86803
3.60283
3.29876
2.98653
2.75629
2.71548
2.82515
2.93326
2.98449
2.99998
3.00223
3.00136
3.00045
2.99996
2.99976
2.9997
2.9997
2.99972
2.99976
2.99982
2.99987
2.99992
2.99996
2.99998
2.99999
2.59427
2.65512
2.84848
3.13353
3.42871
3.69255
3.91351
4.08871
4.21587
4.29284
4.31852
4.29284
4.21587
4.0887
3.91349
3.6924
3.42813
3.13295
2.85569
2.69992
2.73542
2.86395
2.95516
2.9921
3.00156
3.00204
3.00085
2.99996
2.99952
2.99935
2.9993
2.99931
2.99934
2.99941
2.9995
2.99962
2.99974
2.99984
2.99991
2.99995
2.6857
2.65269
2.72854
2.94283
3.21294
3.47165
3.69243
3.86803
3.99566
4.07313
4.09908
4.07313
3.99566
3.86803
3.6924
3.47147
3.21226
2.9418
2.73224
2.68151
2.78621
2.90975
2.97573
2.99808
3.00222
3.00135
3.00006
2.99931
2.99903
2.99896
2.99895
2.99893
2.99891
2.99891
2.99898
2.99913
2.99933
2.99954
2.99971
2.9998
2.80356
2.71281
2.66454
2.76481
2.97483
3.21248
3.42817
3.60283
3.73013
3.80739
3.83327
3.80739
3.73013
3.60283
3.42813
3.21226
2.97406
2.76323
2.66442
2.72525
2.85828
2.95177
2.99091
3.00131
3.00178
3.00036
2.99946
2.99933
2.99961
2.99995
3.00009
2.99993
2.99954
2.99906
2.99869
2.99855
2.99867
2.99895
2.99924
2.99942
2.90692
2.81716
2.69743
2.66449
2.76405
2.94203
3.133
3.29876
3.4228
3.49875
3.52427
3.49875
3.4228
3.29876
3.13295
2.9418
2.76323
2.66249
2.69446
2.81782
2.9267
2.98121
2.99915
3.00196
3.00098
3.00042
3.00121
3.00297
3.00497
3.00649
3.00706
3.00649
3.00494
3.00282
3.00071
2.99913
2.99831
2.99817
2.99839
2.99861
2.97137
2.91489
2.80644
2.69644
2.66517
2.73246
2.85574
2.98654
3.09395
3.16262
3.18609
3.16262
3.09395
2.98653
2.85569
2.73224
2.66442
2.69446
2.80264
2.91043
2.97251
2.99642
3.00187
3.00187
3.00242
3.00544
3.01074
3.01709
3.02294
3.02701
3.02845
3.02701
3.02293
3.01701
3.01046
3.00461
3.00045
2.9982
2.9974
2.99727
3.00026
2.9743
2.91366
2.81936
2.72583
2.68168
2.69995
2.75629
2.81878
2.86439
2.88084
2.86439
2.81878
2.75629
2.69992
2.68151
2.72525
2.81782
2.91043
2.96899
2.99448
3.00164
3.00279
3.00507
3.01168
3.02299
3.03729
3.05184
3.06397
3.07184
3.07455
3.07185
3.06397
3.05181
3.03714
3.02249
3.01033
3.00209
2.99767
2.99595
3.00817
2.99924
2.97511
2.92787
2.85872
2.78634
2.73545
2.71548
2.71758
2.72658
2.73094
2.72658
2.71758
2.71548
2.73542
2.78621
2.85828
2.9267
2.97251
2.99448
3.00153
3.00339
3.0074
3.01815
3.03713
3.0625
3.08996
3.11466
3.13316
3.14413
3.14771
3.14414
3.13316
3.11464
3.08986
3.06214
3.03609
3.01571
3.00277
2.99683
3.00732
3.00549
2.99883
2.9824
2.95226
2.90991
2.86399
2.82515
2.79916
2.78559
2.78155
2.78559
2.79916
2.82515
2.86395
2.90975
2.95177
2.98121
2.99642
3.00164
3.00339
3.00834
3.02231
3.04858
3.086
3.12874
3.1686
3.19859
3.216
3.22316
3.22477
3.22316
3.216
3.19856
3.16848
3.12833
3.08493
3.0463
3.01855
3.00445
3.00446
3.00478
3.00422
3.00063
2.99162
2.97601
2.95525
2.93328
2.91462
2.90246
2.89829
2.90246
2.91461
2.93326
2.95516
2.97573
2.99091
2.99915
3.00187
3.00279
3.0074
3.02231
3.05299
3.10021
3.15764
3.21299
3.25184
3.26323
3.24723
3.22049
3.20762
3.22049
3.24721
3.26316
3.25161
3.21238
3.15629
3.09795
3.05096
3.02506
3.00215
3.00274
3.00353
3.00373
3.00234
2.99853
2.99226
2.98454
2.97713
2.97184
2.96993
2.97184
2.97712
2.98449
2.9921
2.99808
3.00131
3.00196
3.00187
3.00507
3.01815
3.04858
3.10021
3.16833
3.23774
3.28336
3.27044
3.16291
2.97013
2.78544
2.71158
2.78542
2.97006
3.16271
3.26997
3.28238
3.23603
3.16649
3.10186
3.06345
3.00085
3.00124
3.00191
3.00265
3.0031
3.00289
3.00182
3.00006
2.9981
2.99658
2.996
2.99657
2.99808
2.99998
3.00156
3.00222
3.00178
3.00098
3.00242
3.01168
3.03713
3.086
3.15764
3.23774
3.29316
3.25534
2.98658
2.42268
1.91217
1.68205
1.62621
1.68203
1.91206
2.42222
2.98555
3.25374
3.29121
3.23738
3.16601
3.11912
3.00027
3.00046
3.00081
3.00129
3.00181
3.00222
3.00242
3.00236
3.00214
3.0019
3.0018
3.00189
3.0021
3.00223
3.00204
3.00135
3.00036
3.00042
3.00544
3.02299
3.0625
3.12874
3.21299
3.28336
3.25534
2.88645
2.00903
1.51028
1.45181
1.48488
1.50319
1.48487
1.45178
1.51009
2.00782
2.88394
3.25364
3.28627
3.2316
3.18506
3.00006
3.00013
3.00028
3.0005
3.00078
3.00108
3.00135
3.00155
3.00167
3.00172
3.00173
3.00171
3.00161
3.00136
3.00085
3.00006
2.99946
3.00121
3.01074
3.03729
3.08996
3.1686
3.25184
3.27044
2.98658
2.00903
1.45518
1.48801
1.61178
1.70899
1.74442
1.70899
1.61177
1.48797
1.45503
2.00748
2.9867
3.27934
3.28399
3.25033
3.00001
3.00003
3.00007
3.00015
3.00027
3.00041
3.00055
3.00068
3.00078
3.00085
3.00086
3.00083
3.00071
3.00045
2.99996
2.99931
2.99933
3.00297
3.01709
3.05184
3.11466
3.19859
3.26323
3.16291
2.42268
1.51028
1.48801
1.66859
1.84646
1.96731
2.0096
1.9673
1.84644
1.66859
1.48815
1.51084
2.4272
3.18135
3.31113
3.30452
2.99999
3
3.00001
3.00004
3.00007
3.00012
3.00018
3.00023
3.00028
3.00031
3.00032
3.00029
3.00019
2.99996
2.99952
2.99903
2.99961
3.00497
3.02294
3.06397
3.13316
3.216
3.24723
2.97013
1.91217
1.45181
1.61178
1.84646
2.04849
2.18018
2.22556
2.18018
2.04848
1.84647
1.61202
1.45305
1.91981
3.0003
3.31078
3.34169
3
3
3
3
3.00001
3.00003
3.00004
3.00006
3.00008
3.00009
3.00009
3.00006
2.99998
2.99976
2.99935
2.99896
2.99995
3.00649
3.02701
3.07184
3.14413
3.22316
3.22049
2.78544
1.68205
1.48488
1.70899
1.96731
2.18018
2.31652
2.36318
2.31652
2.18017
1.96733
1.70927
1.48633
1.69013
2.82469
3.29592
3.36169
3
3
3
3
3
3
3.00001
3.00001
3.00002
3.00002
3.00002
2.99999
2.99991
2.9997
2.9993
2.99895
3.00009
3.00706
3.02845
3.07455
3.14771
3.22477
3.20762
2.71158
1.62621
1.50319
1.74442
2.0096
2.22556
2.36318
2.4102
2.36318
2.22554
2.00962
1.74471
1.50471
1.63424
2.75398
3.28751
3.36773
3
3
3
3
3
3
3
3
3
3
3
2.99997
2.9999
2.9997
2.99931
2.99893
2.99993
3.00649
3.02701
3.07185
3.14414
3.22316
3.22049
2.78542
1.68203
1.48487
1.70899
1.9673
2.18018
2.31652
2.36318
2.31651
2.18017
1.96732
1.70927
1.48632
1.69011
2.82468
3.29591
3.36169
3
3
3
3
3
3
3
3
3
3
2.99999
2.99998
2.99991
2.99972
2.99934
2.99891
2.99954
3.00494
3.02293
3.06397
3.13316
3.216
3.24721
2.97006
1.91206
1.45178
1.61177
1.84644
2.04848
2.18017
2.22554
2.18017
2.04847
1.84646
1.61201
1.45301
1.91969
3.00024
3.31076
3.34169
3
3
3
3
3
3
3
3
3
3
3
2.99998
2.99992
2.99976
2.99941
2.99891
2.99906
3.00282
3.01701
3.05181
3.11464
3.19856
3.26316
3.16271
2.42222
1.51009
1.48797
1.66859
1.84647
1.96733
2.00962
1.96732
1.84646
1.66859
1.48811
1.51064
2.42674
3.18116
3.31106
3.30448
3
3
3
3
3
3
3
3
3
3
3
2.99999
2.99994
2.99982
2.9995
2.99898
2.99869
3.00071
3.01046
3.03714
3.08986
3.16848
3.25161
3.26997
2.98555
2.00782
1.45503
1.48815
1.61202
1.70927
1.74471
1.70927
1.61201
1.48811
1.45487
2.00627
2.98566
3.27887
3.28376
3.25018
3
3
3
3
3
3
3
3
3
3
3
2.99999
2.99996
2.99987
2.99962
2.99913
2.99855
2.99913
3.00461
3.02249
3.06214
3.12833
3.21238
3.28238
3.25374
2.88394
2.00748
1.51084
1.45305
1.48633
1.50471
1.48632
1.45301
1.51064
2.00627
2.88143
3.25204
3.28528
3.23096
3.18458
3
3
3
3
3
3
3
3
3
3
3
3
2.99998
2.99992
2.99974
2.99933
2.99867
2.99831
3.00045
3.01033
3.03609
3.08493
3.15629
3.23603
3.29121
3.25364
2.9867
2.4272
1.91981
1.69013
1.63424
1.69011
1.91969
2.42674
2.98566
3.25204
3.28923
3.23561
3.16456
3.11787
3
3
3
3
3
3
3
3
3
3
3
3
2.99999
2.99996
2.99984
2.99954
2.99895
2.99817
2.9982
3.00209
3.01571
3.0463
3.09795
3.16649
3.23738
3.28627
3.27934
3.18135
3.0003
2.82469
2.75398
2.82468
3.00024
3.18116
3.27887
3.28528
3.23561
3.16453
3.09937
3.06087
3
3
3
3
3
3
3
3
3
3
3
3
3
2.99998
2.99991
2.99971
2.99924
2.99839
2.9974
2.99767
3.00277
3.01855
3.05096
3.10186
3.16601
3.2316
3.28399
3.31113
3.31078
3.29592
3.28751
3.29591
3.31076
3.31106
3.28376
3.23096
3.16456
3.09937
3.04859
3.02112
3
3
3
3
3
3
3
3
3
3
3
3
3
2.99999
2.99995
2.9998
2.99942
2.99861
2.99727
2.99595
2.99683
3.00445
3.02506
3.06345
3.11912
3.18506
3.25033
3.30452
3.34169
3.36169
3.36773
3.36169
3.34169
3.30448
3.25018
3.18458
3.11787
3.06087
3.02112
3.00131
