# vtk DataFile Version 3.0
Brusselator Concentration Output
ASCII
DATASET STRUCTURED_POINTS
DIMENSIONS 40 40 1
ORIGIN 0.0 0.0 0.0
SPACING 0.005 0.005 1.0
POINT_DATA 1600
SCALARS C1 double 1
LOOKUP_TABLE default
4.1832
3.15031
2.33863
1.792
1.40673
1.13345
0.942889
0.814842
0.734188
0.690117
0.67616
0.690201
0.734468
0.815594
0.944548
1.1361
1.40805
1.78187
2.28685
2.96155
3.85667
1.68815
0.692509
0.522638
0.464552
0.434612
0.424171
0.440023
0.503182
0.648367
0.886614
1.11812
1.17901
1.10787
1.04076
1.00971
0.999874
0.998217
0.998707
0.999225
3.15031
2.46228
1.86746
1.44612
1.1476
0.937289
0.792463
0.696372
0.636431
0.603878
0.5936
0.603945
0.636652
0.696955
0.793707
0.939096
1.14766
1.43525
1.8197
2.32432
2.96335
3.49208
1.17456
0.602664
0.493133
0.451842
0.435955
0.446936
0.502221
0.631905
0.847375
1.06885
1.15357
1.10698
1.04554
1.01297
1.00137
0.998808
0.998951
0.999372
2.33863
1.86746
1.41565
1.08976
0.867802
0.719605
0.622664
0.560986
0.523673
0.503806
0.497596
0.503854
0.523826
0.561381
0.623465
0.720577
0.866708
1.07826
1.37271
1.76956
2.29591
2.97512
3.06076
0.935848
0.565474
0.486103
0.457283
0.458057
0.498429
0.601468
0.781002
0.988064
1.1085
1.10297
1.05324
1.0187
1.00407
0.999878
0.999412
0.999671
1.792
1.44612
1.08976
0.833803
0.669751
0.568127
0.506071
0.468789
0.447231
0.436116
0.432701
0.436148
0.447332
0.469042
0.506549
0.568538
0.668065
0.822711
1.05292
1.37967
1.82588
2.42313
3.24426
2.0588
0.738604
0.536523
0.482901
0.469045
0.491198
0.565278
0.70831
0.899629
1.05234
1.09264
1.0604
1.02511
1.00706
1.00094
0.999795
0.999906
1.40673
1.1476
0.867802
0.669751
0.550098
0.48104
0.441649
0.419453
0.40736
0.401427
0.399659
0.401449
0.407427
0.419614
0.441923
0.481124
0.548246
0.659926
0.838184
1.10722
1.49021
2.01372
2.70661
3.51743
1.15987
0.610699
0.509525
0.478456
0.483661
0.533554
0.646211
0.820128
0.992722
1.07353
1.06255
1.02908
1.00835
1.00057
0.998969
0.999075
1.13345
0.937289
0.719605
0.568127
0.48104
0.43386
0.408799
0.395805
0.389386
0.386541
0.385752
0.386557
0.389433
0.395909
0.408948
0.433761
0.479227
0.559822
0.696964
0.917284
1.24721
1.71153
2.34211
3.23716
2.00001
0.731398
0.538595
0.487748
0.478985
0.51093
0.60015
0.755805
0.935378
1.04564
1.05568
1.0265
1.00451
0.995802
0.994162
0.994478
0.942889
0.792463
0.622664
0.506071
0.441649
0.408799
0.392802
0.385553
0.382678
0.381775
0.381606
0.381787
0.382712
0.385621
0.392874
0.408598
0.439943
0.499136
0.605769
0.787036
1.07279
1.4895
2.06668
2.84721
3.13394
0.92917
0.573025
0.497952
0.477769
0.496898
0.568948
0.708186
0.886483
1.01391
1.03958
1.01458
0.991942
0.982542
0.980851
0.981319
0.814842
0.696372
0.560986
0.468789
0.419453
0.395805
0.385553
0.381962
0.38138
0.381755
0.381998
0.381766
0.381407
0.382009
0.385579
0.395548
0.417857
0.462916
0.548303
0.700472
0.951448
1.33066
1.86581
2.58812
3.54026
1.1972
0.613225
0.508844
0.479463
0.490288
0.551911
0.681105
0.857713
0.992747
1.02363
0.997131
0.970953
0.958692
0.955194
0.954792
0.734188
0.636431
0.523673
0.447231
0.40736
0.389386
0.382678
0.38138
0.382269
0.38348
0.383997
0.383489
0.382291
0.381415
0.382678
0.389098
0.40585
0.442088
0.513767
0.646207
0.872377
1.22433
1.72972
2.41958
3.4537
1.48322
0.654677
0.520077
0.484729
0.493155
0.555073
0.690359
0.878989
1.01961
1.0392
0.994472
0.953256
0.930322
0.919757
0.915751
0.690117
0.603878
0.503806
0.436116
0.401427
0.386541
0.381775
0.381755
0.38348
0.385176
0.385852
0.385185
0.383501
0.381784
0.38176
0.386238
0.399971
0.431395
0.495455
0.616589
0.828033
1.16352
1.65133
2.3231
3.33632
1.71593
0.690526
0.533597
0.498959
0.517163
0.604028
0.786539
1.03061
1.19592
1.1822
1.07482
0.980946
0.922928
0.891387
0.877575
0.67616
0.5936
0.497596
0.432701
0.399659
0.385752
0.381606
0.381998
0.383997
0.385852
0.386581
0.38586
0.384016
0.382025
0.381586
0.385444
0.39822
0.428118
0.489749
0.607245
0.813917
1.14416
1.62672
2.29388
3.29573
1.8332
0.719962
0.55902
0.540132
0.596057
0.755389
1.03419
1.36085
1.60527
1.62846
1.43497
1.20009
1.02663
0.925029
0.880299
0.690201
0.603945
0.503854
0.436148
0.401449
0.386557
0.381787
0.381766
0.383489
0.385185
0.38586
0.385193
0.383509
0.381794
0.381772
0.386253
0.399992
0.431433
0.495542
0.616825
0.828681
1.16517
1.65512
2.33178
3.34509
1.84426
0.761545
0.620798
0.638053
0.741718
0.90927
1.10582
1.34488
1.60555
1.8295
1.93627
1.82737
1.52979
1.241
1.08701
0.734468
0.636652
0.523826
0.447332
0.407427
0.389433
0.382712
0.381407
0.382291
0.383501
0.384016
0.383509
0.382314
0.381441
0.382711
0.389144
0.405923
0.442225
0.514072
0.646964
0.874248
1.2286
1.73853
2.43837
3.46084
1.83906
0.849617
0.722923
0.714024
0.708705
0.738636
0.840876
0.997494
1.17968
1.37032
1.57819
1.8244
2.0805
2.17172
2.05416
0.815594
0.696955
0.561381
0.469042
0.419614
0.395909
0.385621
0.382009
0.381415
0.381784
0.382025
0.381794
0.381441
0.382056
0.385647
0.395657
0.418051
0.463305
0.549163
0.702437
0.955712
1.33883
1.87851
2.60619
3.55376
1.85014
0.921509
0.699478
0.57902
0.537671
0.558023
0.621451
0.711562
0.815681
0.934152
1.08445
1.29312
1.57991
1.92963
2.21801
0.944548
0.793707
0.623465
0.506549
0.441923
0.408948
0.392874
0.385579
0.382678
0.38176
0.381586
0.381772
0.382711
0.385647
0.392953
0.40878
0.440348
0.500041
0.60778
0.791234
1.08027
1.49894
2.06563
2.78674
3.45803
1.59349
0.758086
0.530571
0.454997
0.439885
0.455991
0.490267
0.534434
0.585182
0.648278
0.738968
0.877772
1.07836
1.31688
1.49774
1.1361
0.939096
0.720577
0.568538
0.481124
0.433761
0.408598
0.395548
0.389098
0.386238
0.385444
0.386253
0.389144
0.395657
0.40878
0.433791
0.479723
0.561358
0.700516
0.923568
1.25345
1.70215
2.26603
2.89587
2.94573
1.01004
0.538533
0.429687
0.399644
0.396902
0.407193
0.423891
0.443153
0.46512
0.494985
0.54248
0.620588
0.738525
0.880707
0.988186
1.40805
1.14766
0.866708
0.668065
0.548246
0.479227
0.439943
0.417857
0.40585
0.399971
0.39822
0.399992
0.405923
0.418051
0.440348
0.479723
0.547492
0.660651
0.840813
1.10816
1.47234
1.92646
2.44143
2.97621
1.61891
0.607106
0.432271
0.391294
0.381132
0.382556
0.389023
0.396766
0.404221
0.412523
0.425059
0.447064
0.485333
0.544548
0.616278
0.670356
1.78187
1.43525
1.07826
0.822711
0.659926
0.559822
0.499136
0.462916
0.442088
0.431395
0.428118
0.431433
0.442225
0.463305
0.500041
0.561358
0.660651
0.8151
1.04106
1.34601
1.72316
2.15428
2.61105
2.52986
0.76481
0.452808
0.396288
0.382348
0.380885
0.384342
0.388798
0.392097
0.394022
0.395794
0.399416
0.407533
0.423256
0.44823
0.478129
0.500319
2.28685
1.8197
1.37271
1.05292
0.838184
0.696964
0.605769
0.548303
0.513767
0.495455
0.489749
0.495542
0.514072
0.549163
0.60778
0.700516
0.840813
1.04106
1.30581
1.62797
1.99482
2.405
2.93612
1.01877
0.489201
0.40722
0.390204
0.388332
0.391973
0.396747
0.400022
0.400947
0.399966
0.398094
0.396565
0.396767
0.400004
0.40656
0.414614
0.42056
2.96155
2.32432
1.76956
1.37967
1.10722
0.917284
0.787036
0.700472
0.646207
0.616589
0.607245
0.616825
0.646964
0.702437
0.791234
0.923568
1.10816
1.34601
1.62797
1.94397
2.3125
2.89185
1.30394
0.536701
0.420387
0.400092
0.399062
0.404671
0.411887
0.417509
0.420105
0.419604
0.416604
0.411962
0.406623
0.401474
0.397061
0.393288
0.389998
0.387994
3.85667
2.96335
2.29591
1.82588
1.49021
1.24721
1.07279
0.951448
0.872377
0.828033
0.813917
0.828681
0.874248
0.955712
1.08027
1.25345
1.47234
1.72316
1.99482
2.3125
2.84467
1.49584
0.580208
0.43255
0.409308
0.409929
0.418723
0.430067
0.440156
0.446844
0.449357
0.44777
0.442677
0.435004
0.425796
0.415899
0.405655
0.395034
0.385047
0.378738
1.68815
3.49208
2.97512
2.42313
2.01372
1.71153
1.4895
1.33066
1.22433
1.16352
1.14416
1.16517
1.2286
1.33883
1.49894
1.70215
1.92646
2.15428
2.405
2.89185
1.49584
0.598289
0.440038
0.415828
0.418678
0.431406
0.448219
0.464958
0.478746
0.48776
0.490957
0.488124
0.479972
0.46792
0.453569
0.438117
0.422029
0.405529
0.390491
0.381227
0.692509
1.17456
3.06076
3.24426
2.70661
2.34211
2.06668
1.86581
1.72972
1.65133
1.62672
1.65512
1.73853
1.87851
2.06563
2.26603
2.44143
2.61105
2.93612
1.30394
0.580208
0.440038
0.418187
0.423563
0.440292
0.463154
0.488301
0.512666
0.533423
0.547611
0.552701
0.54775
0.534024
0.514362
0.491792
0.468387
0.444963
0.422011
0.402019
0.390077
0.522638
0.602664
0.935848
2.0588
3.51743
3.23716
2.84721
2.58812
2.41958
2.3231
2.29388
2.33178
2.43837
2.60619
2.78674
2.89587
2.97621
2.52986
1.01877
0.536701
0.43255
0.415828
0.423563
0.443497
0.471688
0.505463
0.542877
0.581606
0.617392
0.643616
0.653388
0.643712
0.617801
0.582723
0.545087
0.508676
0.474633
0.443382
0.417603
0.402724
0.464552
0.493133
0.565474
0.738604
1.15987
2.00001
3.13394
3.54026
3.4537
3.33632
3.29573
3.34509
3.46084
3.55376
3.45803
2.94573
1.61891
0.76481
0.489201
0.420387
0.409308
0.418678
0.440292
0.471688
0.511846
0.561273
0.621132
0.690719
0.763295
0.82228
0.845643
0.822481
0.763866
0.691852
0.622789
0.562872
0.512101
0.469285
0.436173
0.41779
0.434612
0.451842
0.486103
0.536523
0.610699
0.731398
0.92917
1.1972
1.48322
1.71593
1.8332
1.84426
1.83906
1.85014
1.59349
1.01004
0.607106
0.452808
0.40722
0.400092
0.409929
0.431406
0.463154
0.505463
0.561273
0.636862
0.741768
0.885808
1.06511
1.23346
1.30533
1.23412
1.0665
0.887747
0.743624
0.637433
0.558939
0.499503
0.456913
0.43429
0.424171
0.435955
0.457283
0.482901
0.509525
0.538595
0.573025
0.613225
0.654677
0.690526
0.719962
0.761545
0.849617
0.921509
0.758086
0.538533
0.432271
0.396288
0.390204
0.399062
0.418723
0.448219
0.488301
0.542877
0.621132
0.741768
0.941926
1.28407
1.795
2.28825
2.48301
2.29019
1.79901
1.28863
0.945047
0.741795
0.616466
0.533346
0.478792
0.451193
0.440023
0.446936
0.458057
0.469045
0.478456
0.487748
0.497952
0.508844
0.520077
0.533597
0.55902
0.620798
0.722923
0.699478
0.530571
0.429687
0.391294
0.382348
0.388332
0.404671
0.430067
0.464958
0.512666
0.581606
0.690719
0.885808
1.28407
2.095
3.07324
3.49456
3.56672
3.49565
3.07848
2.10515
1.29036
0.885702
0.68383
0.568843
0.5002
0.467176
0.503182
0.502221
0.498429
0.491198
0.483661
0.478985
0.477769
0.479463
0.484729
0.498959
0.540132
0.638053
0.714024
0.57902
0.454997
0.399644
0.381132
0.380885
0.391973
0.411887
0.440156
0.478746
0.533423
0.617392
0.763295
1.06511
1.795
3.07324
3.60544
3.58721
3.55165
3.58715
3.60639
3.08348
1.80643
1.06527
0.754282
0.60188
0.518768
0.480577
0.648367
0.631905
0.601468
0.565278
0.533554
0.51093
0.496898
0.490288
0.493155
0.517163
0.596057
0.741718
0.708705
0.537671
0.439885
0.396902
0.382556
0.384342
0.396747
0.417509
0.446844
0.48776
0.547611
0.643616
0.82228
1.23346
2.28825
3.49456
3.58721
3.45653
3.40096
3.45625
3.58671
3.49911
2.30329
1.2341
0.811598
0.62616
0.531626
0.4896
0.886614
0.847375
0.781002
0.70831
0.646211
0.60015
0.568948
0.551911
0.555073
0.604028
0.755389
0.90927
0.738636
0.558023
0.455991
0.407193
0.389023
0.388798
0.400022
0.420105
0.449357
0.490957
0.552701
0.653388
0.845643
1.30533
2.48301
3.56672
3.55165
3.40096
3.3421
3.40064
3.5509
3.56935
2.49875
1.30624
0.834336
0.635233
0.536269
0.492807
1.11812
1.06885
0.988064
0.899629
0.820128
0.755805
0.708186
0.681105
0.690359
0.786539
1.03419
1.10582
0.840876
0.621451
0.490267
0.423891
0.396766
0.392097
0.400947
0.419604
0.44777
0.488124
0.54775
0.643712
0.822481
1.23412
2.29019
3.49565
3.58715
3.45625
3.40064
3.45596
3.58667
3.50021
2.30537
1.23488
0.811878
0.626285
0.531695
0.489649
1.17901
1.15357
1.1085
1.05234
0.992722
0.935378
0.886483
0.857713
0.878989
1.03061
1.36085
1.34488
0.997494
0.711562
0.534434
0.443153
0.404221
0.394022
0.399966
0.416604
0.442677
0.479972
0.534024
0.617801
0.763866
1.0665
1.79901
3.07848
3.60639
3.58671
3.5509
3.58667
3.60734
3.08884
1.81074
1.06686
0.75493
0.6022
0.518954
0.480711
1.10787
1.10698
1.10297
1.09264
1.07353
1.04564
1.01391
0.992747
1.01961
1.19592
1.60527
1.60555
1.17968
0.815681
0.585182
0.46512
0.412523
0.395794
0.398094
0.411962
0.435004
0.46792
0.514362
0.582723
0.691852
0.887747
1.28863
2.10515
3.08348
3.49911
3.56935
3.50021
3.08884
2.11567
1.29526
0.887788
0.684849
0.569408
0.500556
0.467449
1.04076
1.04554
1.05324
1.0604
1.06255
1.05568
1.03958
1.02363
1.0392
1.1822
1.62846
1.8295
1.37032
0.934152
0.648278
0.494985
0.425059
0.399416
0.396565
0.406623
0.425796
0.453569
0.491792
0.545087
0.622789
0.743624
0.945047
1.29036
1.80643
2.30329
2.49875
2.30537
1.81074
1.29526
0.948364
0.74355
0.617483
0.533985
0.479243
0.451571
1.00971
1.01297
1.0187
1.02511
1.02908
1.0265
1.01458
0.997131
0.994472
1.07482
1.43497
1.93627
1.57819
1.08445
0.738968
0.54248
0.447064
0.407533
0.396767
0.401474
0.415899
0.438117
0.468387
0.508676
0.562872
0.637433
0.741795
0.885702
1.06527
1.2341
1.30624
1.23488
1.06686
0.887788
0.74355
0.637349
0.558877
0.499488
0.456976
0.434415
0.999874
1.00137
1.00407
1.00706
1.00835
1.00451
0.991942
0.970953
0.953256
0.980946
1.20009
1.82737
1.8244
1.29312
0.877772
0.620588
0.485333
0.423256
0.400004
0.397061
0.405655
0.422029
0.444963
0.474633
0.512101
0.558939
0.616466
0.68383
0.754282
0.811598
0.834336
0.811878
0.75493
0.684849
0.617483
0.558877
0.509101
0.46709
0.434616
0.416597
0.998217
0.998808
0.999878
1.00094
1.00057
0.995802
0.982542
0.958692
0.930322
0.922928
1.02663
1.52979
2.0805
1.57991
1.07836
0.738525
0.544548
0.44823
0.40656
0.393288
0.395034
0.405529
0.422011
0.443382
0.469285
0.499503
0.533346
0.568843
0.60188
0.62616
0.635233
0.626285
0.6022
0.569408
0.533985
0.499488
0.46709
0.437287
0.412655
0.398396
0.998707
0.998951
0.999412
0.999795
0.998969
0.994162
0.980851
0.955194
0.919757
0.891387
0.925029
1.241
2.17172
1.92963
1.31688
0.880707
0.616278
0.478129
0.414614
0.389998
0.385047
0.390491
0.402019
0.417603
0.436173
0.456913
0.478792
0.5002
0.518768
0.531626
0.536269
0.531695
0.518954
0.500556
0.479243
0.456976
0.434616
0.412655
0.393358
0.381694
0.999225
0.999372
0.999671
0.999906
0.999075
0.994478
0.981319
0.954792
0.915751
0.877575
0.880299
1.08701
2.05416
2.21801
1.49774
0.988186
0.670356
0.500319
0.42056
0.387994
0.378738
0.381227
0.390077
0.402724
0.41779
0.43429
0.451193
0.467176
0.480577
0.4896
0.492807
0.489649
0.480711
0.467449
0.451571
0.434415
0.416597
0.398396
0.381694
0.371301
SCALARS C2 double 1
LOOKUP_TABLE default
0.829089
0.894055
1.1295
1.37165
1.60361
1.81218
1.98813
2.12622
2.22456
2.28316
2.30259
2.2831
2.22431
2.12552
1.98654
1.80963
1.6017
1.37525
1.14663
0.937617
0.949637
3.93919
4.60783
4.53712
4.36847
4.15509
3.90858
3.63129
3.32088
2.98412
2.68333
2.56517
2.69099
2.87169
2.96871
3.00057
3.00602
3.00433
3.00213
3.00098
0.894055
1.09993
1.35925
1.614
1.84879
2.05362
2.22283
2.35413
2.44725
2.50273
2.52114
2.50267
2.44703
2.35347
2.22132
2.05121
1.84728
1.61908
1.38138
1.15233
0.966316
1.52666
4.3446
4.58093
4.44727
4.24397
4.00069
3.72397
3.41436
3.07979
2.77455
2.62506
2.70022
2.85858
2.95821
2.99569
3.00423
3.00374
3.0019
3.00082
1.1295
1.35925
1.65308
1.93119
2.17308
2.37449
2.53619
2.6601
2.74776
2.80007
2.81746
2.80003
2.74757
2.6595
2.53477
2.37219
2.1719
1.93798
1.68105
1.4178
1.16888
0.974976
2.19544
4.48669
4.54685
4.37833
4.14849
3.87803
3.57286
3.24195
2.9263
2.72481
2.71969
2.83772
2.93947
2.98658
3.00077
3.00251
3.0013
3.00033
1.37165
1.614
1.93119
2.222
2.46262
2.65635
2.80977
2.92728
3.0108
3.0609
3.07761
3.06087
3.01066
2.92678
2.80848
2.65413
2.46147
2.2295
1.9625
1.6738
1.3845
1.12104
0.961439
3.4427
4.56306
4.49366
4.29307
4.03811
3.74338
3.41855
3.09192
2.83843
2.75058
2.81789
2.91716
2.97506
2.99631
3.00084
3.00034
2.99943
1.60361
1.84879
2.17308
2.46262
2.69501
2.88001
3.02702
3.14059
3.22201
3.27114
3.28758
3.27112
3.2219
3.14017
3.02585
2.87789
2.69371
2.46979
2.20479
1.90553
1.59095
1.28768
1.02937
1.32976
4.31902
4.55817
4.40352
4.16897
3.88748
3.57094
3.2393
2.94905
2.79373
2.80871
2.89863
2.96512
2.99309
3.00009
2.99992
2.99881
1.81218
2.05362
2.37449
2.65635
2.88001
3.05875
3.20231
3.31438
3.39535
3.44446
3.46093
3.44445
3.39527
3.31402
3.20124
3.0567
2.87852
2.66277
2.40496
2.10547
1.77749
1.44766
1.14799
0.947604
3.46948
4.55952
4.48008
4.26729
3.99859
3.69114
3.36109
3.05142
2.8494
2.81845
2.89357
2.96409
2.99646
3.00443
3.00349
3.00159
1.98813
2.22283
2.53619
2.80977
3.02702
3.20231
3.34465
3.45673
3.53818
3.58773
3.60438
3.58773
3.53811
3.45642
3.34366
3.20031
3.02536
2.81545
2.56504
2.27017
1.93741
1.59036
1.26249
0.990079
2.02332
4.47288
4.52932
4.34006
4.08337
3.7855
3.46173
3.1456
2.91588
2.85124
2.91137
2.98185
3.0154
3.0222
3.01909
3.01567
2.12622
2.35413
2.6601
2.92728
3.14059
3.31438
3.45673
3.5695
3.65174
3.70188
3.71874
3.70188
3.65169
3.56921
3.45579
3.3124
3.13879
2.93235
2.6876
2.39831
2.06568
1.70867
1.36131
1.06023
1.1961
4.27584
4.55618
4.39323
4.14852
3.86118
3.54614
3.22967
2.98464
2.90086
2.95375
3.02519
3.05919
3.06439
3.05907
3.05418
2.22456
2.44725
2.74776
3.0108
3.22201
3.39535
3.53818
3.65174
3.73473
3.78538
3.80241
3.78538
3.73469
3.65147
3.53726
3.39338
3.22009
3.01544
2.77434
2.4896
2.15892
1.79692
1.43695
1.11754
0.988084
4.00278
4.56599
4.4307
4.19838
3.92181
3.6123
3.28772
3.02379
2.93248
2.99759
3.08437
3.12757
3.13734
3.13426
3.13035
2.28316
2.50273
2.80007
3.0609
3.27114
3.44446
3.58773
3.70188
3.78538
3.83635
3.8535
3.83636
3.78534
3.70162
3.58684
3.4425
3.26915
3.06528
2.82613
2.54421
2.21533
1.85119
1.48413
1.15388
0.946805
3.7535
4.56516
4.45428
4.23335
3.96076
3.63102
3.2462
2.91424
2.81181
2.93511
3.09422
3.1875
3.22748
3.2419
3.24617
2.30259
2.52114
2.81746
3.07761
3.28758
3.46093
3.60438
3.71874
3.80241
3.8535
3.87069
3.85351
3.80238
3.71848
3.60349
3.45897
3.28557
3.08191
2.84336
2.56236
2.2341
1.86922
1.49963
1.16539
0.93917
3.62524
4.5553
4.45914
4.23791
3.92537
3.46243
2.87075
2.39505
2.23545
2.41772
2.77544
3.07455
3.2514
3.33934
3.37428
2.2831
2.50267
2.80003
3.06087
3.27112
3.44445
3.58773
3.70188
3.78538
3.83636
3.85351
3.83636
3.78534
3.70162
3.58684
3.44249
3.26915
3.06528
2.8261
2.54408
2.21488
1.85008
1.48206
1.1504
0.937096
3.61746
4.51785
4.41271
4.12872
3.6252
2.91565
2.3171
1.95035
1.75118
1.70705
1.8637
2.26972
2.79835
3.19029
3.36487
2.22431
2.44703
2.74757
3.01066
3.2219
3.39527
3.53811
3.65169
3.73469
3.78534
3.80238
3.78534
3.73464
3.65142
3.5372
3.39331
3.22001
3.01534
2.77413
2.48903
2.15747
1.79392
1.43202
1.10983
0.944899
3.60628
4.38998
4.21583
3.76147
3.13713
2.64323
2.32256
2.09154
1.91699
1.78461
1.68151
1.6174
1.67009
1.97558
2.36005
2.12552
2.35347
2.6595
2.92678
3.14017
3.31402
3.45642
3.56921
3.65147
3.70162
3.71848
3.70162
3.65142
3.56893
3.45548
3.31207
3.13841
2.93186
2.68674
2.39649
2.06201
1.70255
1.35336
1.05076
0.986447
3.48075
4.1316
3.8935
3.42372
3.01832
2.75304
2.56176
2.41027
2.28179
2.15622
2.01177
1.83517
1.63253
1.43865
1.31701
1.98654
2.22132
2.53477
2.80848
3.02585
3.20124
3.34366
3.45579
3.53726
3.58684
3.60349
3.58684
3.5372
3.45548
3.34269
3.19929
3.02422
2.81395
2.56256
2.26568
1.93015
1.58171
1.25733
0.995763
1.13876
3.52045
3.9885
3.68656
3.33745
3.10679
2.95216
2.84086
2.75287
2.66754
2.56416
2.42427
2.23369
1.99489
1.75194
1.59326
1.80963
2.05121
2.37219
2.65413
2.87789
3.0567
3.20031
3.3124
3.39338
3.4425
3.45897
3.44249
3.39331
3.31207
3.19929
3.05469
2.87622
2.65957
2.39976
2.09737
1.76836
1.44571
1.16686
0.983354
1.78376
3.93123
3.90159
3.59996
3.39147
3.26179
3.18188
3.1293
3.0814
3.01979
2.93194
2.80647
2.63049
2.40214
2.16334
2.00589
1.6017
1.84728
2.1719
2.46147
2.69371
2.87852
3.02536
3.13879
3.22009
3.26915
3.28557
3.26915
3.22001
3.13841
3.02422
2.87622
2.69145
2.46583
2.19806
1.89802
1.59271
1.31781
1.10644
1.08703
3.42859
4.05492
3.8136
3.62424
3.51445
3.45977
3.43588
3.41723
3.38519
3.33099
3.2502
3.13612
2.97793
2.77185
2.55358
2.40818
1.37525
1.61908
1.93798
2.2295
2.46979
2.66277
2.81545
2.93235
3.01544
3.06528
3.08191
3.06528
3.01534
2.93186
2.81395
2.65957
2.46583
2.23154
1.9639
1.68508
1.42692
1.21554
1.09151
2.30193
4.11586
3.98152
3.81298
3.72201
3.69025
3.69205
3.69903
3.69138
3.6616
3.60839
3.53059
3.42351
3.27793
3.08963
2.88937
2.75522
1.14663
1.38138
1.68105
1.9625
2.20479
2.40496
2.56504
2.6876
2.77434
2.82613
2.84336
2.8261
2.77413
2.68674
2.56256
2.39976
2.19806
1.9639
1.71646
1.48372
1.28685
1.14648
1.48349
4.04051
4.10404
3.9607
3.88875
3.87888
3.90476
3.9356
3.95055
3.94277
3.912
3.85894
3.78297
3.68026
3.54279
3.36593
3.17658
3.04853
0.937617
1.15233
1.4178
1.6738
1.90553
2.10547
2.27017
2.39831
2.4896
2.54421
2.56236
2.54408
2.48903
2.39649
2.26568
2.09737
1.89802
1.68508
1.48372
1.31146
1.17835
1.24765
3.84271
4.18196
4.06899
4.01639
4.02748
4.07584
4.12875
4.16475
4.17789
4.16853
4.13761
4.0855
4.01148
3.91224
3.78061
3.61146
3.42837
3.30281
0.949637
0.966316
1.16888
1.3845
1.59095
1.77749
1.93741
2.06568
2.15892
2.21533
2.2341
2.21488
2.15747
2.06201
1.93015
1.76836
1.59271
1.42692
1.28685
1.17835
1.20637
3.66488
4.22095
4.13947
4.10615
4.13711
4.20608
4.27874
4.3334
4.36537
4.37596
4.36635
4.33682
4.28708
4.21607
4.12076
3.99455
3.83178
3.65304
3.52848
3.93919
1.52666
0.974976
1.12104
1.28768
1.44766
1.59036
1.70867
1.79692
1.85119
1.86922
1.85008
1.79392
1.70255
1.58171
1.44571
1.31781
1.21554
1.14648
1.24765
3.66488
4.23187
4.17402
4.15929
4.20902
4.29679
4.38671
4.45681
4.50374
4.53035
4.53898
4.53046
4.50437
4.45946
4.3939
4.30442
4.18473
4.02863
3.8541
3.73034
4.60783
4.3446
2.19544
0.961439
1.02937
1.14799
1.26249
1.36131
1.43695
1.48413
1.49963
1.48206
1.43202
1.35336
1.25733
1.16686
1.10644
1.09151
1.48349
3.84271
4.22095
4.17402
4.17686
4.24453
4.34993
4.45539
4.53789
4.59465
4.63007
4.64892
4.65475
4.64893
4.63008
4.59491
4.53961
4.45992
4.34954
4.2018
4.0324
3.90993
4.53712
4.58093
4.48669
3.4427
1.32976
0.947604
0.990079
1.06023
1.11754
1.15388
1.16539
1.1504
1.10983
1.05076
0.995763
0.983354
1.08703
2.30193
4.04051
4.18196
4.13947
4.15929
4.24453
4.36738
4.4884
4.58232
4.6449
4.68016
4.6947
4.69739
4.69702
4.6974
4.69462
4.67991
4.64463
4.58226
4.48631
4.35008
4.18762
4.06736
4.36847
4.44727
4.54685
4.56306
4.31902
3.46948
2.02332
1.1961
0.988084
0.946805
0.93917
0.937096
0.944899
0.986447
1.13876
1.78376
3.42859
4.11586
4.10404
4.06899
4.10615
4.20902
4.34993
4.4884
4.59622
4.66548
4.69574
4.68951
4.65652
4.61804
4.60084
4.61791
4.65616
4.68888
4.69502
4.6644
4.59173
4.47199
4.31908
4.20224
4.15509
4.24397
4.37833
4.49366
4.55817
4.55952
4.47288
4.27584
4.00278
3.7535
3.62524
3.61746
3.60628
3.48075
3.52045
3.93123
4.05492
3.98152
3.9607
4.01639
4.13711
4.29679
4.45539
4.58232
4.66548
4.69748
4.66813
4.56821
4.40607
4.23759
4.16277
4.23693
4.40469
4.56642
4.66675
4.69687
4.66231
4.56632
4.42629
4.31421
3.90858
4.00069
4.14849
4.29307
4.40352
4.48008
4.52932
4.55618
4.56599
4.56516
4.5553
4.51785
4.38998
4.1316
3.9885
3.90159
3.8136
3.81298
3.88875
4.02748
4.20608
4.38671
4.53789
4.6449
4.69574
4.66813
4.51995
4.18354
3.62519
3.0484
2.81058
3.04614
3.62061
4.17844
4.51673
4.66801
4.69562
4.63284
4.50932
4.40326
3.63129
3.72397
3.87803
4.03811
4.16897
4.26729
4.34006
4.39323
4.4307
4.45428
4.45914
4.41271
4.21583
3.8935
3.68656
3.59996
3.62424
3.72201
3.87888
4.07584
4.27874
4.45681
4.59465
4.68016
4.68951
4.56821
4.18354
3.28262
2.06515
1.41721
1.26619
1.41548
2.05804
3.2703
4.17623
4.56821
4.69283
4.67338
4.56925
4.47002
3.32088
3.41436
3.57286
3.74338
3.88748
3.99859
4.08337
4.14852
4.19838
4.23335
4.23791
4.12872
3.76147
3.42372
3.33745
3.39147
3.51445
3.69025
3.90476
4.12875
4.3334
4.50374
4.63007
4.6947
4.65652
4.40607
3.62519
2.06515
1.15127
0.952907
0.922039
0.952469
1.14841
2.05056
3.61121
4.40578
4.66317
4.69284
4.60837
4.51574
2.98412
3.07979
3.24195
3.41855
3.57094
3.69114
3.7855
3.86118
3.92181
3.96076
3.92537
3.6252
3.13713
3.01832
3.10679
3.26179
3.45977
3.69205
3.9356
4.16475
4.36537
4.53035
4.64892
4.69739
4.61804
4.23759
3.0484
1.41721
0.952907
0.891814
0.887325
0.891675
0.951816
1.40787
3.02908
4.23678
4.62727
4.69902
4.62986
4.54216
2.68333
2.77455
2.9263
3.09192
3.2393
3.36109
3.46173
3.54614
3.6123
3.63102
3.46243
2.91565
2.64323
2.75304
2.95216
3.18188
3.43588
3.69903
3.95055
4.17789
4.37596
4.53898
4.65475
4.69702
4.60084
4.16277
2.81058
1.26619
0.922039
0.887325
0.887818
0.887242
0.921294
1.25887
2.78986
4.16165
4.61104
4.69992
4.63664
4.55078
2.56517
2.62506
2.72481
2.83843
2.94905
3.05142
3.1456
3.22967
3.28772
3.2462
2.87075
2.3171
2.32256
2.56176
2.84086
3.1293
3.41723
3.69138
3.94277
4.16853
4.36635
4.53046
4.64893
4.6974
4.61791
4.23693
3.04614
1.41548
0.952469
0.891675
0.887242
0.891537
0.951377
1.40612
3.02664
4.23596
4.62705
4.699
4.62992
4.54224
2.69099
2.70022
2.71969
2.75058
2.79373
2.8494
2.91588
2.98464
3.02379
2.91424
2.39505
1.95035
2.09154
2.41027
2.75287
3.0814
3.38519
3.6616
3.912
4.13761
4.33682
4.50437
4.63008
4.69462
4.65616
4.40469
3.62061
2.05804
1.14841
0.951816
0.921294
0.951377
1.14555
2.04329
3.60624
4.40414
4.6627
4.69283
4.60857
4.51602
2.87169
2.85858
2.83772
2.81789
2.80871
2.81845
2.85124
2.90086
2.93248
2.81181
2.23545
1.75118
1.91699
2.28179
2.66754
3.01979
3.33099
3.60839
3.85894
4.0855
4.28708
4.45946
4.59491
4.67991
4.68888
4.56642
4.17844
3.2703
2.05056
1.40787
1.25887
1.40612
2.04329
3.2575
4.17069
4.56619
4.69228
4.67356
4.56979
4.4707
2.96871
2.95821
2.93947
2.91716
2.89863
2.89357
2.91137
2.95375
2.99759
2.93511
2.41772
1.70705
1.78461
2.15622
2.56416
2.93194
3.2502
3.53059
3.78297
4.01148
4.21607
4.3939
4.53961
4.64463
4.69502
4.66675
4.51673
4.17623
3.61121
3.02908
2.78986
3.02664
3.60624
4.17069
4.51321
4.66667
4.69545
4.63336
4.51026
4.40445
3.00057
2.99569
2.98658
2.97506
2.96512
2.96409
2.98185
3.02519
3.08437
3.09422
2.77544
1.8637
1.68151
2.01177
2.42427
2.80647
3.13612
3.42351
3.68026
3.91224
4.12076
4.30442
4.45992
4.58226
4.6644
4.69687
4.66801
4.56821
4.40578
4.23678
4.16165
4.23596
4.40414
4.56619
4.66667
4.69682
4.66219
4.56612
4.42629
4.31461
3.00602
3.00423
3.00077
2.99631
2.99309
2.99646
3.0154
3.05919
3.12757
3.1875
3.07455
2.26972
1.6174
1.83517
2.23369
2.63049
2.97793
3.27793
3.54279
3.78061
3.99455
4.18473
4.34954
4.48631
4.59173
4.66231
4.69562
4.69283
4.66317
4.62727
4.61104
4.62705
4.6627
4.69228
4.69545
4.66219
4.58716
4.46562
4.31224
4.1959
3.00433
3.00374
3.00251
3.00084
3.00009
3.00443
3.0222
3.06439
3.13734
3.22748
3.2514
2.79835
1.67009
1.63253
1.99489
2.40214
2.77185
3.08963
3.36593
3.61146
3.83178
4.02863
4.2018
4.35008
4.47199
4.56632
4.63284
4.67338
4.69284
4.69902
4.69992
4.699
4.69283
4.67356
4.63336
4.56612
4.46562
4.32572
4.16123
4.04028
3.00213
3.0019
3.0013
3.00034
2.99992
3.00349
3.01909
3.05907
3.13426
3.2419
3.33934
3.19029
1.97558
1.43865
1.75194
2.16334
2.55358
2.88937
3.17658
3.42837
3.65304
3.8541
4.0324
4.18762
4.31908
4.42629
4.50932
4.56925
4.60837
4.62986
4.63664
4.62992
4.60857
4.56979
4.51026
4.42629
4.31224
4.16123
3.98692
3.859
3.00098
3.00082
3.00033
2.99943
2.99881
3.00159
3.01567
3.05418
3.13035
3.24617
3.37428
3.36487
2.36005
1.31701
1.59326
2.00589
2.40818
2.75522
3.04853
3.30281
3.52848
3.73034
3.90993
4.06736
4.20224
4.31421
4.40326
4.47002
4.51574
4.54216
4.55078
4.54224
4.51602
4.4707
4.40445
4.31461
4.1959
4.04028
3.859
3.7251
