# vtk DataFile Version 3.0
Brusselator Concentration Output
ASCII
DATASET STRUCTURED_POINTS
DIMENSIONS 40 40 1
ORIGIN 0.0 0.0 0.0
SPACING 0.005 0.005 1.0
POINT_DATA 1600
SCALARS C1 double 1
LOOKUP_TABLE default
0.998922
0.997604
0.994834
0.990777
0.986425
0.983683
0.98459
0.989862
0.997803
1.00487
1.00767
1.00487
0.997803
0.989861
0.984588
0.983679
0.986413
0.990753
0.994801
0.997607
0.999134
0.999788
0.999996
1.00003
1.00002
1.00001
1
1
1
1
1
1
1
1
1
1
1
1
1
1
0.997604
0.995741
0.99235
0.988674
0.987433
0.992567
1.00739
1.0312
1.05754
1.07754
1.0849
1.07754
1.05754
1.0312
1.00739
0.99256
0.987419
0.988653
0.992349
0.995876
0.998208
0.999394
0.999863
1
1.00002
1.00001
1.00001
1
1
1
1
1
1
1
1
1
1
1
1
1
0.994834
0.99235
0.989027
0.988997
0.999699
1.03086
1.08754
1.15851
1.21989
1.2566
1.26813
1.2566
1.21988
1.1585
1.08754
1.03085
0.999684
0.988993
0.989121
0.992814
0.996323
0.998503
0.99953
0.999904
1
1.00001
1.00001
1
1
1
1
1
1
1
1
1
1
1
1
1
0.990777
0.988674
0.988997
1.00243
1.04763
1.14354
1.27341
1.36921
1.39539
1.38451
1.37617
1.3845
1.39539
1.3692
1.2734
1.14353
1.04762
1.00248
0.989295
0.989752
0.99371
0.997045
0.998907
0.999695
0.99995
1.00001
1.00001
1.00001
1
1
1
1
1
1
1
1
1
1
1
1
0.986425
0.987433
0.999699
1.04763
1.16751
1.34574
1.43417
1.36526
1.24752
1.16109
1.13084
1.16109
1.24751
1.36526
1.43416
1.34573
1.16753
1.04779
1.00037
0.989449
0.991218
0.995173
0.997966
0.999333
0.999843
0.999985
1.00001
1.00001
1
1
1
1
1
1
1
1
1
1
1
1
0.983683
0.992567
1.03086
1.14354
1.34574
1.44083
1.29144
1.08244
0.92371
0.833134
0.804319
0.833134
0.92371
1.08244
1.29144
1.44085
1.34582
1.14392
1.03209
0.995771
0.990307
0.993361
0.996815
0.998822
0.999669
0.99994
1
1.00001
1
1
1
1
1
1
1
1
1
1
1
1
0.98459
1.00739
1.08754
1.27341
1.43417
1.29144
1.02224
0.807143
0.674668
0.607568
0.587435
0.607568
0.674668
0.807143
1.02225
1.29148
1.43435
1.27411
1.0895
1.01184
0.99242
0.992241
0.995688
0.99823
0.999441
0.999873
0.999988
1.00001
1
1
1
1
1
1
1
1
1
1
1
1
0.989862
1.0312
1.15851
1.36921
1.36526
1.08244
0.807143
0.62907
0.533454
0.489424
0.476878
0.489424
0.533454
0.62907
0.80715
1.08249
1.36552
1.37021
1.16122
1.03671
0.997879
0.992204
0.994828
0.997664
0.999197
0.999793
0.999969
1
1.00001
1
1
1
1
1
1
1
1
1
1
1
0.997803
1.05754
1.21989
1.39539
1.24752
0.92371
0.674668
0.533454
0.465066
0.436108
0.42829
0.436108
0.465065
0.533454
0.674676
0.923768
1.24781
1.39656
1.22318
1.06373
1.00512
0.993061
0.994339
0.997222
0.998983
0.999718
0.999948
1
1.00001
1
1
1
1
1
1
1
1
1
1
1
1.00487
1.07754
1.2566
1.38451
1.16109
0.833134
0.607568
0.489424
0.436108
0.41507
0.4097
0.41507
0.436108
0.489425
0.607577
0.833196
1.16141
1.38574
1.2602
1.08405
1.01124
0.9941
0.994147
0.996952
0.998839
0.999664
0.999933
0.999997
1
1
1
1
1
1
1
1
1
1
1
1
1.00767
1.0849
1.26813
1.37617
1.13084
0.804319
0.587435
0.476878
0.42829
0.4097
0.405087
0.4097
0.42829
0.476879
0.587443
0.804382
1.13117
1.37742
1.27182
1.09149
1.01362
0.994555
0.994107
0.996862
0.998788
0.999644
0.999927
0.999996
1
1
1
1
1
1
1
1
1
1
1
1
1.00487
1.07754
1.2566
1.3845
1.16109
0.833134
0.607568
0.489424
0.436108
0.41507
0.4097
0.41507
0.436108
0.489425
0.607577
0.833196
1.16141
1.38574
1.2602
1.08405
1.01124
0.9941
0.994147
0.996951
0.998838
0.999663
0.999932
0.999996
1
1
1
0.999999
0.999999
0.999999
0.999999
0.999999
1
1
1
1
0.997803
1.05754
1.21988
1.39539
1.24751
0.92371
0.674668
0.533454
0.465065
0.436108
0.42829
0.436108
0.465065
0.533454
0.674675
0.923768
1.24781
1.39656
1.22318
1.06373
1.00512
0.993061
0.994338
0.997221
0.998982
0.999716
0.999947
0.999998
1
1
0.999999
0.999998
0.999998
0.999998
0.999998
0.999999
0.999999
0.999999
1
1
0.989861
1.0312
1.1585
1.3692
1.36526
1.08244
0.807143
0.62907
0.533454
0.489425
0.476879
0.489425
0.533454
0.629071
0.80715
1.08249
1.36552
1.3702
1.16122
1.03671
0.997879
0.992203
0.994827
0.997662
0.999194
0.999791
0.999966
1
1
1
1
1
0.999999
0.999998
0.999997
0.999997
0.999997
0.999998
0.999999
0.999999
0.984588
1.00739
1.08754
1.2734
1.43416
1.29144
1.02225
0.80715
0.674676
0.607577
0.587443
0.607577
0.674675
0.80715
1.02225
1.29148
1.43435
1.2741
1.08949
1.01184
0.992418
0.992239
0.995685
0.998226
0.999437
0.99987
0.999989
1.00001
1.00002
1.00002
1.00002
1.00002
1.00001
1.00001
1
0.999997
0.999996
0.999996
0.999997
0.999997
0.983679
0.99256
1.03085
1.14353
1.34573
1.44085
1.29148
1.08249
0.923768
0.833196
0.804382
0.833196
0.923768
1.08249
1.29148
1.44086
1.34582
1.14391
1.03208
0.995763
0.990302
0.993355
0.996809
0.998817
0.999669
0.999953
1.00003
1.00007
1.00009
1.0001
1.00011
1.0001
1.00008
1.00006
1.00003
1.00001
1
0.999995
0.999993
0.999993
0.986413
0.987419
0.999684
1.04762
1.16753
1.34582
1.43435
1.36552
1.24781
1.16141
1.13117
1.16141
1.24781
1.36552
1.43435
1.34582
1.16754
1.04778
1.00035
0.989434
0.991205
0.995162
0.99796
0.999341
0.999882
1.00008
1.00018
1.00026
1.00033
1.00039
1.0004
1.00038
1.00033
1.00025
1.00017
1.00009
1.00004
1.00001
0.999993
0.999988
0.990753
0.988653
0.988993
1.00248
1.04779
1.14392
1.27411
1.37021
1.39656
1.38574
1.37742
1.38574
1.39656
1.3702
1.2741
1.14391
1.04778
1.00252
0.98929
0.989731
0.993688
0.997033
0.998924
0.999775
1.00015
1.00038
1.0006
1.00082
1.00101
1.00113
1.00117
1.00113
1.00101
1.00082
1.00059
1.00037
1.0002
1.00008
1.00002
0.999991
0.994801
0.992349
0.989121
0.989295
1.00037
1.03209
1.0895
1.16122
1.22318
1.2602
1.27182
1.2602
1.22318
1.16122
1.08949
1.03208
1.00035
0.98929
0.989213
0.992816
0.996306
0.998522
0.999653
1.00023
1.00067
1.00114
1.00162
1.00204
1.00232
1.00247
1.00251
1.00247
1.00232
1.00204
1.00161
1.00112
1.00067
1.00033
1.00013
1.00004
0.997607
0.995876
0.992814
0.989752
0.989449
0.995771
1.01184
1.03671
1.06373
1.08405
1.09149
1.08405
1.06373
1.03671
1.01184
0.995763
0.989434
0.989731
0.992816
0.99603
0.998273
0.999553
1.00032
1.001
1.00179
1.00265
1.00333
1.00364
1.00359
1.00339
1.00328
1.00339
1.00359
1.00364
1.00332
1.00263
1.00177
1.001
1.00047
1.00022
0.999134
0.998208
0.996323
0.99371
0.991218
0.990307
0.99242
0.997879
1.00512
1.01124
1.01362
1.01124
1.00512
0.997879
0.992418
0.990302
0.991205
0.993688
0.996306
0.998273
0.999515
1.00037
1.00126
1.0024
1.00367
1.00452
1.00436
1.00299
1.00095
0.999167
0.998469
0.999167
1.00095
1.00299
1.00435
1.00451
1.00364
1.00239
1.00132
1.00075
0.999788
0.999394
0.998503
0.997045
0.995173
0.993361
0.992241
0.992204
0.993061
0.9941
0.994555
0.9941
0.993061
0.992203
0.992239
0.993355
0.995162
0.997033
0.998522
0.999553
1.00037
1.00136
1.00277
1.00441
1.00532
1.00402
0.999552
0.992528
0.985034
0.979446
0.977399
0.979446
0.985033
0.992525
0.999547
1.00401
1.00531
1.00443
1.00293
1.00194
0.999996
0.999863
0.99953
0.998907
0.997966
0.996815
0.995688
0.994828
0.994339
0.994147
0.994107
0.994147
0.994338
0.994827
0.995685
0.996809
0.99796
0.998924
0.999653
1.00032
1.00126
1.00277
1.00468
1.00567
1.00307
0.994278
0.979141
0.960938
0.944433
0.933329
0.929462
0.933329
0.944432
0.960936
0.979135
0.994273
1.00309
1.00579
1.00514
1.00404
1.00003
1
0.999904
0.999695
0.999333
0.998822
0.99823
0.997664
0.997222
0.996952
0.996862
0.996951
0.997221
0.997662
0.998226
0.998817
0.999341
0.999775
1.00023
1.001
1.0024
1.00441
1.00567
1.00257
0.99026
0.966474
0.93487
0.903187
0.878222
0.863062
0.858069
0.863062
0.878221
0.903184
0.934866
0.966483
0.99034
1.0029
1.00667
1.00679
1.00002
1.00002
1
0.99995
0.999843
0.999669
0.999441
0.999197
0.998983
0.998839
0.998788
0.998838
0.998982
0.999194
0.999437
0.999669
0.999882
1.00015
1.00067
1.00179
1.00367
1.00532
1.00307
0.99026
0.961272
0.918072
0.870817
0.830805
0.803887
0.789744
0.785509
0.789743
0.803885
0.830802
0.870818
0.918107
0.96146
0.990918
1.00484
1.00897
1.00001
1.00001
1.00001
1.00001
0.999985
0.99994
0.999873
0.999793
0.999718
0.999664
0.999644
0.999663
0.999716
0.999791
0.99987
0.999953
1.00008
1.00038
1.00114
1.00265
1.00452
1.00402
0.994278
0.966474
0.918072
0.858716
0.804385
0.766561
0.747261
0.740906
0.739915
0.740905
0.747259
0.766559
0.804394
0.858791
0.918405
0.967541
0.996857
1.0085
1
1.00001
1.00001
1.00001
1.00001
1
0.999988
0.999969
0.999948
0.999933
0.999927
0.999932
0.999947
0.999966
0.999989
1.00003
1.00018
1.0006
1.00162
1.00333
1.00436
0.999552
0.979141
0.93487
0.870817
0.804385
0.754217
0.729558
0.728087
0.737957
0.743708
0.737956
0.728085
0.729557
0.754237
0.804509
0.871315
0.936343
0.982319
1.00379
1
1
1
1.00001
1.00001
1.00001
1.00001
1
1
0.999997
0.999996
0.999996
0.999998
1
1.00001
1.00007
1.00026
1.00082
1.00204
1.00364
1.00299
0.992528
0.960938
0.903187
0.830805
0.766561
0.729558
0.727641
0.756677
0.797288
0.816894
0.797287
0.756675
0.727643
0.72959
0.766735
0.831457
0.904981
0.964333
0.995317
1
1
1
1
1
1
1
1.00001
1.00001
1
1
1
1
1
1.00002
1.00009
1.00033
1.00101
1.00232
1.00359
1.00095
0.985034
0.944433
0.878222
0.803887
0.747261
0.728087
0.756677
0.833153
0.93013
0.977827
0.930129
0.833151
0.756681
0.728133
0.747481
0.804663
0.880222
0.947713
0.985746
1
1
1
1
1
1
1
1
1
1
1
1
1
1
1.00002
1.0001
1.00039
1.00113
1.00247
1.00339
0.999167
0.979446
0.933329
0.863062
0.789744
0.740906
0.737957
0.797288
0.93013
1.10416
1.19294
1.10415
0.930128
0.797294
0.738014
0.74116
0.7906
0.865164
0.936386
0.978391
1
1
1
1
1
1
1
1
1
1
1
1
0.999999
1
1.00002
1.00011
1.0004
1.00117
1.00251
1.00328
0.998469
0.977399
0.929462
0.858069
0.785509
0.739915
0.743708
0.816894
0.977827
1.19294
1.30387
1.19294
0.977824
0.816901
0.743768
0.740182
0.786393
0.8602
0.932415
0.975659
1
1
1
1
1
1
1
1
1
1
1
0.999999
0.999998
1
1.00002
1.0001
1.00038
1.00113
1.00247
1.00339
0.999167
0.979446
0.933329
0.863062
0.789743
0.740905
0.737956
0.797287
0.930129
1.10415
1.19294
1.10415
0.930126
0.797293
0.738013
0.74116
0.790599
0.865164
0.936386
0.978391
1
1
1
1
1
1
1
1
1
1
1
0.999999
0.999998
0.999999
1.00001
1.00008
1.00033
1.00101
1.00232
1.00359
1.00095
0.985033
0.944432
0.878221
0.803885
0.747259
0.728085
0.756675
0.833151
0.930128
0.977824
0.930126
0.833148
0.756679
0.728131
0.747479
0.804661
0.88022
0.947712
0.985745
1
1
1
1
1
1
1
1
1
1
1
0.999999
0.999998
0.999998
1.00001
1.00006
1.00025
1.00082
1.00204
1.00364
1.00299
0.992525
0.960936
0.903184
0.830802
0.766559
0.729557
0.727643
0.756681
0.797294
0.816901
0.797293
0.756679
0.727645
0.72959
0.766733
0.831454
0.904978
0.96433
0.995314
1
1
1
1
1
1
1
1
1
1
1
0.999999
0.999998
0.999997
1
1.00003
1.00017
1.00059
1.00161
1.00332
1.00435
0.999547
0.979135
0.934866
0.870818
0.804394
0.754237
0.72959
0.728133
0.738014
0.743768
0.738013
0.728131
0.72959
0.754256
0.804518
0.871315
0.936338
0.982313
1.00378
1
1
1
1
1
1
1
1
1
1
1
0.999999
0.999999
0.999997
0.999997
1.00001
1.00009
1.00037
1.00112
1.00263
1.00451
1.00401
0.994273
0.966483
0.918107
0.858791
0.804509
0.766735
0.747481
0.74116
0.740182
0.74116
0.747479
0.766733
0.804518
0.858866
0.918441
0.967549
0.996851
1.00849
1
1
1
1
1
1
1
1
1
1
1
1
0.999999
0.999997
0.999996
1
1.00004
1.0002
1.00067
1.00177
1.00364
1.00531
1.00309
0.99034
0.96146
0.918405
0.871315
0.831457
0.804663
0.7906
0.786393
0.790599
0.804661
0.831454
0.871315
0.918441
0.961646
0.990997
1.00486
1.00896
1
1
1
1
1
1
1
1
1
1
1
1
0.999999
0.999998
0.999996
0.999995
1.00001
1.00008
1.00033
1.001
1.00239
1.00443
1.00579
1.0029
0.990918
0.967541
0.936343
0.904981
0.880222
0.865164
0.8602
0.865164
0.88022
0.904978
0.936338
0.967549
0.990997
1.00324
1.0068
1.00683
1
1
1
1
1
1
1
1
1
1
1
1
1
0.999999
0.999997
0.999993
0.999993
1.00002
1.00013
1.00047
1.00132
1.00293
1.00514
1.00667
1.00484
0.996857
0.982319
0.964333
0.947713
0.936386
0.932415
0.936386
0.947712
0.96433
0.982313
0.996851
1.00486
1.0068
1.00562
1.00426
1
1
1
1
1
1
1
1
1
1
1
1
1
0.999999
0.999997
0.999993
0.999988
0.999991
1.00004
1.00022
1.00075
1.00194
1.00404
1.00679
1.00897
1.0085
1.00379
0.995317
0.985746
0.978391
0.975659
0.978391
0.985745
0.995314
1.00378
1.00849
1.00896
1.00683
1.00426
1.0027
SCALARS C2 double 1
LOOKUP_TABLE default
3.00053
3.00211
3.00592
3.01267
3.02218
3.03267
3.04105
3.04467
3.0434
3.04012
3.03848
3.04012
3.0434
3.04467
3.04105
3.03267
3.0222
3.01271
3.006
3.00222
3.00054
2.99999
2.99989
2.99992
2.99996
2.99998
2.99999
3
3
3
3
3
3
3
3
3
3
3
3
3
3.00211
3.00494
3.01101
3.02018
3.03025
3.03636
3.03239
3.01537
2.99003
2.96761
2.95876
2.96761
2.99003
3.01537
3.03239
3.03636
3.03027
3.02022
3.01108
3.00495
3.00172
3.00039
2.99999
2.99993
2.99995
2.99998
2.99999
3
3
3
3
3
3
3
3
3
3
3
3
3
3.00592
3.01101
3.0206
3.03156
3.03569
3.01867
2.9656
2.8775
2.78202
2.71317
2.68888
2.71317
2.78202
2.8775
2.9656
3.01869
3.03572
3.03162
3.02061
3.01072
3.00448
3.00145
3.0003
2.99999
2.99995
2.99997
2.99999
2.99999
3
3
3
3
3
3
3
3
3
3
3
3
3.01267
3.02018
3.03156
3.03581
3.0084
2.91043
2.72366
2.51341
2.36989
2.30484
2.28812
2.30484
2.36989
2.51341
2.72367
2.91046
3.00844
3.03584
3.0314
3.01919
3.0092
3.0035
3.00101
3.00017
2.99997
2.99996
2.99998
2.99999
3
3
3
3
3
3
3
3
3
3
3
3
3.02218
3.03025
3.03569
3.0084
2.88522
2.61054
2.31165
2.18079
2.18454
2.2232
2.24133
2.2232
2.18454
2.1808
2.31166
2.61057
2.88526
3.00834
3.03514
3.02801
3.01553
3.00671
3.00228
3.00056
3.00006
2.99997
2.99997
2.99999
3
3
3
3
3
3
3
3
3
3
3
3
3.03267
3.03636
3.01867
2.91043
2.61054
2.24773
2.14411
2.24012
2.37839
2.48068
2.51718
2.48068
2.37839
2.24013
2.14412
2.24774
2.61052
2.91015
3.01742
3.03226
3.02197
3.01077
3.00411
3.0012
3.00023
3
2.99997
2.99998
2.99999
3
3
3
3
3
3
3
3
3
3
3
3.04105
3.03239
2.9656
2.72366
2.31165
2.14411
2.27698
2.49505
2.68567
2.80819
2.84991
2.80819
2.68567
2.49505
2.27699
2.1441
2.31153
2.72299
2.96332
3.02599
3.02622
3.01483
3.00628
3.00206
3.00049
3.00005
2.99998
2.99998
2.99999
3
3
3
3
3
3
3
3
3
3
3
3.04467
3.01537
2.8775
2.51341
2.18079
2.24012
2.49505
2.75841
2.96287
3.08987
3.13284
3.08987
2.96287
2.75841
2.49505
2.2401
2.18059
2.51232
2.874
3.00662
3.02652
3.01798
3.00838
3.00299
3.00081
3.00013
2.99999
2.99998
2.99999
3
3
3
3
3
3
3
3
3
3
3
3.0434
2.99003
2.78202
2.36989
2.18454
2.37839
2.68567
2.96287
3.17091
3.30053
3.34478
3.30053
3.17091
2.96287
2.68567
2.37836
2.18429
2.36852
2.77744
2.97933
3.02329
3.01974
3.01002
3.00382
3.00111
3.00022
3.00001
2.99998
2.99999
3
3
3
3
3
3
3
3
3
3
3
3.04012
2.96761
2.71317
2.30484
2.2232
2.48068
2.80819
3.08987
3.30053
3.43332
3.47913
3.43332
3.30053
3.08988
2.80819
2.48064
2.22292
2.30334
2.70792
2.9557
3.01921
3.02039
3.01102
3.00437
3.00132
3.00028
3.00002
2.99998
2.99999
3
3
3
3
3
3
3
3
3
3
3
3.03848
2.95876
2.68888
2.28812
2.24133
2.51718
2.84991
3.13284
3.34478
3.47913
3.5257
3.47913
3.34478
3.13284
2.84991
2.51715
2.24105
2.28659
2.68341
2.94644
3.0174
3.02051
3.01135
3.00456
3.0014
3.00031
3.00003
2.99998
2.99999
3
3
3
3
3
3
3
3
3
3
3
3.04012
2.96761
2.71317
2.30484
2.2232
2.48068
2.80819
3.08987
3.30053
3.43332
3.47913
3.43332
3.30053
3.08988
2.80819
2.48064
2.22292
2.30334
2.70792
2.9557
3.01921
3.02039
3.01102
3.00437
3.00132
3.00028
3.00002
2.99998
2.99999
3
3
3
3
3
3
3
3
3
3
3
3.0434
2.99003
2.78202
2.36989
2.18454
2.37839
2.68567
2.96287
3.17091
3.30053
3.34478
3.30053
3.17091
2.96287
2.68567
2.37836
2.1843
2.36852
2.77744
2.97933
3.02329
3.01974
3.01002
3.00382
3.00111
3.00022
3.00001
2.99998
2.99999
3
3
3
3
3
3
3
3
3
3
3
3.04467
3.01537
2.8775
2.51341
2.1808
2.24013
2.49505
2.75841
2.96287
3.08988
3.13284
3.08988
2.96287
2.75841
2.49505
2.2401
2.1806
2.51233
2.874
3.00662
3.02652
3.01798
3.00838
3.003
3.00081
3.00014
3
2.99999
3
3
3.00001
3.00001
3.00001
3.00001
3.00001
3.00001
3
3
3
3
3.04105
3.03239
2.9656
2.72367
2.31166
2.14412
2.27699
2.49505
2.68567
2.80819
2.84991
2.80819
2.68567
2.49505
2.27699
2.14411
2.31154
2.723
2.96332
3.026
3.02622
3.01484
3.00628
3.00207
3.0005
3.00007
2.99999
2.99999
3
3
3
3
3
3.00001
3.00001
3.00001
3.00001
3.00001
3.00001
3
3.03267
3.03636
3.01869
2.91046
2.61057
2.24774
2.1441
2.2401
2.37836
2.48064
2.51715
2.48064
2.37836
2.2401
2.14411
2.24776
2.61055
2.91018
3.01744
3.03227
3.02198
3.01077
3.00412
3.00122
3.00025
3.00001
2.99997
2.99996
2.99994
2.99993
2.99992
2.99993
2.99995
2.99997
2.99999
3.00001
3.00002
3.00002
3.00001
3.00001
3.0222
3.03027
3.03572
3.00844
2.88526
2.61052
2.31153
2.18059
2.18429
2.22292
2.24105
2.22292
2.1843
2.1806
2.31154
2.61055
2.88529
3.00838
3.03517
3.02803
3.01555
3.00673
3.0023
3.00058
3.00006
2.99992
2.99984
2.99976
2.99967
2.9996
2.99957
2.9996
2.99967
2.99977
2.99987
2.99995
3
3.00002
3.00002
3.00002
3.01271
3.02022
3.03162
3.03584
3.00834
2.91015
2.72299
2.51232
2.36852
2.30334
2.28659
2.30334
2.36852
2.51233
2.723
2.91018
3.00838
3.03587
3.03146
3.01924
3.00924
3.00354
3.00103
3.00014
2.99983
2.99962
2.99935
2.99903
2.99873
2.99852
2.99844
2.99852
2.99873
2.99904
2.99937
2.99966
2.99986
2.99997
3.00002
3.00004
3.006
3.01108
3.02061
3.0314
3.03514
3.01742
2.96332
2.874
2.77744
2.70792
2.68341
2.70792
2.77744
2.874
2.96332
3.01744
3.03517
3.03146
3.02063
3.01079
3.00456
3.00149
3.00025
2.99972
2.99927
2.99864
2.99784
2.997
2.99629
2.99584
2.99569
2.99584
2.99629
2.997
2.99785
2.99867
2.99932
2.99974
2.99995
3.00004
3.00222
3.00495
3.01072
3.01919
3.02801
3.03226
3.02599
3.00662
2.97933
2.9557
2.94644
2.9557
2.97933
3.00662
3.026
3.03227
3.02803
3.01924
3.01079
3.00495
3.00178
3.00035
2.99961
2.99885
2.9977
2.99611
2.99435
2.99281
2.99179
2.99127
2.99113
2.99128
2.99179
2.99282
2.99436
2.99614
2.99775
2.99893
2.99961
2.99991
3.00054
3.00172
3.00448
3.0092
3.01553
3.02197
3.02622
3.02652
3.02329
3.01921
3.0174
3.01921
3.02329
3.02652
3.02622
3.02198
3.01555
3.00924
3.00456
3.00178
3.00038
2.99954
2.99851
2.99678
2.99419
2.99121
2.98875
2.98762
2.98785
2.98864
2.98905
2.98864
2.98785
2.98762
2.98876
2.99123
2.99424
2.99685
2.99857
2.99938
2.99999
3.00039
3.00145
3.0035
3.00671
3.01077
3.01483
3.01798
3.01974
3.02039
3.02051
3.02039
3.01974
3.01798
3.01484
3.01077
3.00673
3.00354
3.00149
3.00035
2.99954
2.99838
2.99619
2.99266
2.9884
2.98524
2.9854
2.98971
2.99649
3.00251
3.00488
3.00251
2.99649
2.98971
2.9854
2.98526
2.98844
2.9927
2.99614
2.99793
2.99989
2.99999
3.0003
3.00101
3.00228
3.00411
3.00628
3.00838
3.01002
3.01102
3.01135
3.01102
3.01002
3.00838
3.00628
3.00412
3.0023
3.00103
3.00025
2.99961
2.99851
2.99619
2.99208
2.98675
2.98307
2.98577
2.99832
3.01934
3.0425
3.06009
3.06659
3.06009
3.0425
3.01935
2.99834
2.98579
2.98309
2.9867
2.99169
2.99481
2.99992
2.99993
2.99999
3.00017
3.00056
3.0012
3.00206
3.00299
3.00382
3.00437
3.00456
3.00437
3.00382
3.003
3.00207
3.00122
3.00058
3.00014
2.99972
2.99885
2.99678
2.99266
2.98675
2.98238
2.98704
3.00895
3.04998
3.10213
3.15172
3.18631
3.19859
3.18631
3.15172
3.10214
3.04999
3.00897
2.98701
2.98211
2.98567
2.9895
2.99996
2.99995
2.99995
2.99997
3.00006
3.00023
3.00049
3.00081
3.00111
3.00132
3.0014
3.00132
3.00111
3.00081
3.0005
3.00025
3.00006
2.99983
2.99927
2.9977
2.99419
2.9884
2.98307
2.98704
3.01376
3.07195
3.15627
3.24874
3.32854
3.38081
3.39878
3.38081
3.32855
3.24875
3.15629
3.07195
3.01362
2.98636
2.98082
2.98261
2.99998
2.99998
2.99997
2.99996
2.99997
3
3.00005
3.00013
3.00022
3.00028
3.00031
3.00028
3.00022
3.00014
3.00007
3.00001
2.99992
2.99962
2.99864
2.99611
2.99121
2.98524
2.98577
3.00895
3.07195
3.17804
3.31062
3.44211
3.54739
3.61235
3.63387
3.61235
3.5474
3.44212
3.31062
3.17801
3.07165
3.00769
2.98195
2.97647
2.99999
2.99999
2.99999
2.99998
2.99997
2.99997
2.99998
2.99999
3.00001
3.00002
3.00003
3.00002
3.00001
3
2.99999
2.99997
2.99984
2.99935
2.99784
2.99435
2.98875
2.9854
2.99832
3.04998
3.15627
3.31062
3.48519
3.6453
3.76362
3.82982
3.84994
3.82982
3.76362
3.64531
3.48519
3.31053
3.15576
3.04801
2.99285
2.97426
3
3
2.99999
2.99999
2.99999
2.99998
2.99998
2.99998
2.99998
2.99998
2.99998
2.99998
2.99998
2.99999
2.99999
2.99996
2.99976
2.99903
2.997
2.99281
2.98762
2.98971
3.01934
3.10213
3.24874
3.44211
3.6453
3.81717
3.92683
3.97074
3.97819
3.97074
3.92683
3.81718
3.64529
3.44198
3.24801
3.09949
3.0125
2.97757
3
3
3
3
3
2.99999
2.99999
2.99999
2.99999
2.99999
2.99999
2.99999
2.99999
3
3
2.99994
2.99967
2.99873
2.99629
2.99179
2.98785
2.99649
3.0425
3.15172
3.32854
3.54739
3.76362
3.92683
3.99534
3.97354
3.94492
3.97354
3.99534
3.92683
3.7636
3.54721
3.32761
3.14853
3.03476
2.98466
3
3
3
3
3
3
3
3
3
3
3
3
3
3
3
2.99993
2.9996
2.99852
2.99584
2.99127
2.98864
3.00251
3.06009
3.18631
3.38081
3.61235
3.82982
3.97074
3.97354
3.84569
3.75701
3.84569
3.97355
3.97075
3.82979
3.61212
3.37975
3.18277
3.05192
2.99149
3
3
3
3
3
3
3
3
3
3
3
3
3
3.00001
3
2.99992
2.99957
2.99844
2.99569
2.99113
2.98905
3.00488
3.06659
3.19859
3.39878
3.63387
3.84994
3.97819
3.94492
3.75701
3.63411
3.75701
3.94493
3.97819
3.8499
3.63362
3.39767
3.19493
3.0583
2.99426
3
3
3
3
3
3
3
3
3
3
3
3
3
3.00001
3
2.99993
2.9996
2.99852
2.99584
2.99128
2.98864
3.00251
3.06009
3.18631
3.38081
3.61235
3.82982
3.97074
3.97354
3.84569
3.75701
3.8457
3.97355
3.97075
3.82979
3.61212
3.37975
3.18277
3.05192
2.99149
3
3
3
3
3
3
3
3
3
3
3
3
3
3.00001
3
2.99995
2.99967
2.99873
2.99629
2.99179
2.98785
2.99649
3.0425
3.15172
3.32855
3.5474
3.76362
3.92683
3.99534
3.97355
3.94493
3.97355
3.99535
3.92684
3.76361
3.54721
3.32762
3.14853
3.03477
2.98467
3
3
3
3
3
3
3
3
3
3
3
3
3
3.00001
3.00001
2.99997
2.99977
2.99904
2.997
2.99282
2.98762
2.98971
3.01935
3.10214
3.24875
3.44212
3.64531
3.81718
3.92683
3.97075
3.97819
3.97075
3.92684
3.81719
3.6453
3.44198
3.24801
3.09949
3.0125
2.97757
3
3
3
3
3
3
3
3
3
3
3
3
3
3.00001
3.00001
2.99999
2.99987
2.99937
2.99785
2.99436
2.98876
2.9854
2.99834
3.04999
3.15629
3.31062
3.48519
3.64529
3.7636
3.82979
3.8499
3.82979
3.76361
3.6453
3.48519
3.31054
3.15578
3.04802
2.99287
2.97427
3
3
3
3
3
3
3
3
3
3
3
3
3
3.00001
3.00001
3.00001
2.99995
2.99966
2.99867
2.99614
2.99123
2.98526
2.98579
3.00897
3.07195
3.17801
3.31053
3.44198
3.54721
3.61212
3.63362
3.61212
3.54721
3.44198
3.31054
3.17797
3.07165
3.0077
2.98197
2.9765
3
3
3
3
3
3
3
3
3
3
3
3
3
3
3.00001
3.00002
3
2.99986
2.99932
2.99775
2.99424
2.98844
2.98309
2.98701
3.01362
3.07165
3.15576
3.24801
3.32761
3.37975
3.39767
3.37975
3.32762
3.24801
3.15578
3.07165
3.01349
2.98634
2.98084
2.98265
3
3
3
3
3
3
3
3
3
3
3
3
3
3
3.00001
3.00002
3.00002
2.99997
2.99974
2.99893
2.99685
2.9927
2.9867
2.98211
2.98636
3.00769
3.04801
3.09949
3.14853
3.18277
3.19493
3.18277
3.14853
3.09949
3.04802
3.0077
2.98634
2.98184
2.98562
2.98954
3
3
3
3
3
3
3
3
3
3
3
3
3
3
3.00001
3.00001
3.00002
3.00002
2.99995
2.99961
2.99857
2.99614
2.99169
2.98567
2.98082
2.98195
2.99285
3.0125
3.03476
3.05192
3.0583
3.05192
3.03477
3.0125
2.99287
2.98197
2.98084
2.98562
2.9913
2.99471
3
3
3
3
3
3
3
3
3
3
3
3
3
3
3
3.00001
3.00002
3.00004
3.00004
2.99991
2.99938
2.99793
2.99481
2.9895
2.98261
2.97647
2.97426
2.97757
2.98466
2.99149
2.99426
2.99149
2.98467
2.97757
2.97427
2.9765
2.98265
2.98954
2.99471
2.99731
