# vtk DataFile Version 3.0
Brusselator Concentration Output
ASCII
DATASET STRUCTURED_POINTS
DIMENSIONS 40 40 1
ORIGIN 0.0 0.0 0.0
SPACING 0.005 0.005 1.0
POINT_DATA 1600
SCALARS C1 double 1
LOOKUP_TABLE default
0.384578
0.380874
0.375931
0.372822
0.373042
0.375985
0.380324
0.384888
0.388791
0.391398
0.392312
0.391397
0.388784
0.384852
0.380209
0.375695
0.372493
0.372434
0.378684
0.397135
0.43903
0.525018
0.688645
0.972578
1.41562
2.05357
2.96346
2.71852
0.792318
0.541184
0.505521
0.525135
0.598138
0.72902
0.886014
1.00118
1.03972
1.03161
1.01567
1.00684
0.380874
0.379815
0.378548
0.37865
0.381209
0.385904
0.391684
0.397469
0.402343
0.405584
0.40672
0.405583
0.402332
0.397425
0.391554
0.385608
0.380728
0.378539
0.381681
0.394896
0.427051
0.494397
0.623993
0.852539
1.21597
1.74238
2.45618
3.3889
1.1835
0.599256
0.52407
0.534785
0.600216
0.721125
0.869353
0.984058
1.0294
1.02736
1.01395
1.0057
0.375931
0.378548
0.382675
0.387796
0.394314
0.402208
0.410766
0.418994
0.425855
0.430417
0.432019
0.430415
0.425839
0.418935
0.410609
0.401895
0.393926
0.388068
0.386293
0.391914
0.410995
0.454759
0.542942
0.7058
0.979346
1.39432
1.97765
2.77363
2.38784
0.785496
0.566177
0.552457
0.602695
0.706163
0.840233
0.954449
1.01081
1.01883
1.00966
1.00236
0.372822
0.37865
0.387796
0.39804
0.409071
0.421007
0.433357
0.445108
0.45495
0.461548
0.463878
0.461546
0.454929
0.445032
0.433168
0.420669
0.408761
0.398641
0.391753
0.390324
0.398353
0.423407
0.479629
0.591383
0.793792
1.12429
1.61287
2.28279
3.22506
1.26095
0.646158
0.576067
0.604521
0.687915
0.807263
0.921248
0.989061
1.00756
1.00261
0.99601
0.373042
0.381209
0.394314
0.409071
0.424614
0.441078
0.458076
0.474442
0.488392
0.497894
0.50128
0.49789
0.488365
0.474347
0.45785
0.440709
0.424359
0.409918
0.398471
0.391527
0.391779
0.404478
0.439951
0.517534
0.669077
0.935408
1.35285
1.95068
2.799
2.18798
0.792443
0.606801
0.608672
0.674789
0.783327
0.898118
0.975016
1.0006
0.997052
0.989602
0.375985
0.385904
0.402208
0.421007
0.441078
0.462593
0.485232
0.507592
0.527171
0.540808
0.545729
0.540803
0.527135
0.507472
0.484962
0.462185
0.440862
0.422047
0.406525
0.395281
0.390147
0.39489
0.417281
0.472744
0.589054
0.806999
1.16879
1.70677
2.44849
3.13287
1.05014
0.654032
0.624541
0.680742
0.787193
0.907549
0.992256
1.01917
1.01035
0.997946
0.380324
0.391684
0.410766
0.433357
0.458076
0.485232
0.514653
0.544698
0.571893
0.591358
0.59849
0.59135
0.571846
0.544547
0.514329
0.484774
0.457884
0.434568
0.415258
0.400476
0.391412
0.390831
0.404782
0.445843
0.538105
0.720491
1.03882
1.5291
2.21723
3.21031
1.47677
0.742091
0.670324
0.726263
0.84364
0.981705
1.08391
1.1146
1.09423
1.07009
0.384888
0.397469
0.418994
0.445108
0.474442
0.507592
0.544698
0.583986
0.620845
0.648011
0.658132
0.648
0.620783
0.583797
0.544312
0.507075
0.474263
0.446469
0.423676
0.405933
0.393911
0.389664
0.39808
0.429763
0.505902
0.662979
0.947935
1.39939
2.04293
2.94933
2.20074
0.920175
0.762528
0.809892
0.93255
1.09311
1.24477
1.33379
1.34478
1.32479
0.388791
0.402343
0.425855
0.45495
0.488392
0.527171
0.571893
0.620845
0.668306
0.704249
0.717848
0.704235
0.668228
0.620616
0.571444
0.526595
0.488217
0.456436
0.430714
0.410645
0.396479
0.389773
0.394655
0.420412
0.486097
0.625583
0.88428
1.2992
1.88656
2.64985
2.859
1.1712
0.825549
0.804304
0.881543
1.02736
1.22033
1.42291
1.58512
1.66986
0.391398
0.405584
0.430417
0.461548
0.497894
0.540808
0.591358
0.648011
0.704249
0.747678
0.764293
0.747661
0.704158
0.64775
0.59086
0.540187
0.49772
0.463119
0.435405
0.413823
0.398335
0.390189
0.393052
0.415356
0.474448
0.601031
0.835485
1.20703
1.7157
2.32561
2.69076
1.13729
0.699886
0.636935
0.676126
0.779049
0.934914
1.12292
1.30063
1.41134
0.392312
0.40672
0.432019
0.463878
0.50128
0.545729
0.59849
0.658132
0.717848
0.764293
0.782135
0.764275
0.717752
0.657858
0.597974
0.545092
0.501107
0.465482
0.437059
0.414951
0.399007
0.390345
0.39238
0.412895
0.467465
0.582423
0.790082
1.11005
1.53562
2.04039
2.13419
0.807833
0.532028
0.494656
0.516353
0.574408
0.664996
0.776961
0.882813
0.94766
0.391397
0.405583
0.430415
0.461546
0.49789
0.540803
0.59135
0.648
0.704235
0.747661
0.764275
0.747643
0.704143
0.64774
0.590854
0.540186
0.497724
0.463129
0.435419
0.413831
0.39829
0.389925
0.391997
0.411623
0.462325
0.565747
0.747951
1.02912
1.42472
2.00383
1.33664
0.570765
0.4446
0.42728
0.437138
0.463863
0.505406
0.556292
0.604012
0.633241
0.388784
0.402332
0.425839
0.454929
0.488365
0.527135
0.571846
0.620783
0.668228
0.704158
0.717752
0.704143
0.66815
0.620556
0.571402
0.526569
0.488207
0.456437
0.430711
0.410586
0.3962
0.388777
0.391468
0.410809
0.458855
0.555432
0.72955
1.02082
1.46925
2.18936
0.829425
0.470858
0.41564
0.406272
0.408807
0.418215
0.43277
0.449851
0.465291
0.474664
0.384852
0.397425
0.418935
0.445032
0.474347
0.507472
0.544547
0.583797
0.620616
0.64775
0.657858
0.64774
0.620556
0.583614
0.544172
0.506975
0.474191
0.446403
0.423555
0.405594
0.392935
0.386984
0.391013
0.411699
0.461928
0.56613
0.769138
1.14834
1.81009
1.57158
0.598489
0.443172
0.416976
0.410185
0.408297
0.408372
0.40912
0.409642
0.409738
0.409793
0.380209
0.391554
0.410609
0.433168
0.45785
0.484962
0.514329
0.544312
0.571444
0.59086
0.597974
0.590854
0.571402
0.544172
0.514026
0.484529
0.457666
0.434304
0.414781
0.39941
0.388949
0.385245
0.392321
0.418553
0.481731
0.620008
0.906321
1.42818
2.43496
1.01822
0.52259
0.451814
0.437165
0.430606
0.425124
0.41896
0.411475
0.402945
0.395155
0.390589
0.375695
0.385608
0.401895
0.420669
0.440709
0.462185
0.484774
0.507075
0.526595
0.540187
0.545092
0.540186
0.526569
0.506975
0.484529
0.461786
0.440416
0.421378
0.405277
0.392792
0.385241
0.385402
0.399069
0.438902
0.533838
0.745314
1.17528
1.93344
2.30472
0.76553
0.521631
0.486749
0.476214
0.46749
0.457161
0.444623
0.430001
0.414485
0.401081
0.393393
0.372493
0.380728
0.393926
0.408761
0.424359
0.440862
0.457884
0.474263
0.488217
0.49772
0.501107
0.497724
0.488207
0.474191
0.457666
0.440416
0.423774
0.408688
0.396004
0.386936
0.383734
0.390769
0.417325
0.484888
0.641654
0.974756
1.58553
2.68484
1.64163
0.702145
0.581781
0.5617
0.548243
0.531132
0.51052
0.487536
0.463135
0.439219
0.419648
0.408717
0.372434
0.378539
0.388068
0.398641
0.409918
0.422047
0.434568
0.446469
0.456436
0.463119
0.465482
0.463129
0.456437
0.446403
0.434304
0.421378
0.408688
0.397222
0.388246
0.38382
0.387572
0.406696
0.457487
0.577037
0.836598
1.33122
2.14715
3.35054
1.43187
0.872057
0.816986
0.791657
0.7425
0.679377
0.617434
0.563579
0.517536
0.47868
0.449567
0.433995
0.378684
0.381681
0.386293
0.391753
0.398471
0.406525
0.415258
0.423676
0.430714
0.435405
0.437059
0.435419
0.430711
0.423555
0.414781
0.405277
0.396004
0.388246
0.384014
0.386571
0.401893
0.44292
0.53881
0.746882
1.14884
1.82566
2.88007
3.78397
2.40833
2.17242
2.23209
2.11457
1.78997
1.38003
1.01655
0.768648
0.626695
0.544223
0.494843
0.470901
0.397135
0.394896
0.391914
0.390324
0.391527
0.395281
0.400476
0.405933
0.410645
0.413823
0.414951
0.413831
0.410586
0.405594
0.39941
0.392792
0.386936
0.38382
0.386571
0.400527
0.436619
0.518802
0.693924
1.03102
1.5992
2.45046
3.52393
3.93888
3.64527
3.4334
3.36318
3.40427
3.53452
3.64215
3.159
1.86194
1.03341
0.695209
0.571541
0.526582
0.43903
0.427051
0.410995
0.398353
0.391779
0.390147
0.391412
0.393911
0.396479
0.398335
0.399007
0.39829
0.3962
0.392935
0.388949
0.385241
0.383734
0.387572
0.401893
0.436619
0.512595
0.669503
0.965531
1.45711
2.16096
2.95425
3.26731
2.96065
2.67335
2.53149
2.48664
2.5219
2.63558
2.83283
3.13217
3.54654
3.11638
1.37459
0.765802
0.625717
0.525018
0.494397
0.454759
0.423407
0.404478
0.39489
0.390831
0.389664
0.389773
0.390189
0.390345
0.389925
0.388777
0.386984
0.385245
0.385402
0.390769
0.406696
0.44292
0.518802
0.669503
0.944583
1.38884
1.99439
2.60483
2.7888
2.50602
2.19758
2.00191
1.89723
1.86318
1.89373
1.9895
2.15584
2.40326
2.74745
3.2148
3.60032
1.65775
0.900096
0.688645
0.623993
0.542942
0.479629
0.439951
0.417281
0.404782
0.39808
0.394655
0.393052
0.39238
0.391997
0.391468
0.391013
0.392321
0.399069
0.417325
0.457487
0.53881
0.693924
0.965531
1.38884
1.94023
2.44188
2.52775
2.2267
1.89344
1.65739
1.50887
1.42606
1.39903
1.4247
1.50433
1.64318
1.85109
2.14469
2.55103
3.09691
3.69523
2.16124
0.972578
0.852539
0.7058
0.591383
0.517534
0.472744
0.445843
0.429763
0.420412
0.415356
0.412895
0.411623
0.410809
0.411699
0.418553
0.438902
0.484888
0.577037
0.746882
1.03102
1.45711
1.99439
2.44188
2.44503
2.09413
1.72491
1.45186
1.26747
1.14872
1.08195
1.06028
1.08134
1.1468
1.26221
1.43733
1.68743
2.03631
2.52117
3.19341
3.94188
1.41562
1.21597
0.979346
0.793792
0.669077
0.589054
0.538105
0.505902
0.486097
0.474448
0.467465
0.462325
0.458855
0.461928
0.481731
0.533838
0.641654
0.836598
1.14884
1.5992
2.16096
2.60483
2.52775
2.09413
1.67098
1.35611
1.13697
0.988299
0.892893
0.83985
0.822791
0.839506
0.891904
0.986013
1.13213
1.34544
1.64789
2.07218
2.66281
3.33993
2.05357
1.74238
1.39432
1.12429
0.935408
0.806999
0.720491
0.662979
0.625583
0.601031
0.582423
0.565747
0.555432
0.56613
0.620008
0.745314
0.974756
1.33122
1.82566
2.45046
2.95425
2.7888
2.2267
1.72491
1.35611
1.0959
0.915663
0.795055
0.719314
0.677993
0.664844
0.677755
0.718692
0.793851
0.913995
1.09495
1.35842
1.73354
2.24767
2.79967
2.96346
2.45618
1.97765
1.61287
1.35285
1.16879
1.03882
0.947935
0.88428
0.835485
0.790082
0.747951
0.72955
0.769138
0.906321
1.17528
1.58553
2.14715
2.88007
3.52393
3.26731
2.50602
1.89344
1.45186
1.13697
0.915663
0.765084
0.66704
0.607088
0.575025
0.564928
0.574842
0.606639
0.666287
0.764523
0.917663
1.14804
1.48292
1.9369
2.39729
2.71852
3.3889
2.77363
2.28279
1.95068
1.70677
1.5291
1.39939
1.2992
1.20703
1.11005
1.02912
1.02082
1.14834
1.42818
1.93344
2.68484
3.35054
3.78397
3.93888
2.96065
2.19758
1.65739
1.26747
0.988299
0.795055
0.66704
0.586037
0.537708
0.512317
0.504392
0.512168
0.537357
0.5855
0.666904
0.797887
1.0014
1.30409
1.71263
2.11027
0.792318
1.1835
2.38784
3.22506
2.799
2.44849
2.21723
2.04293
1.88656
1.7157
1.53562
1.42472
1.46925
1.81009
2.43496
2.30472
1.64163
1.43187
2.40833
3.64527
2.67335
2.00191
1.50887
1.14872
0.892893
0.719314
0.607088
0.537708
0.497111
0.476076
0.469558
0.47595
0.496818
0.537287
0.607126
0.722335
0.906125
1.18507
1.56155
1.91838
0.541184
0.599256
0.785496
1.26095
2.18798
3.13287
3.21031
2.94933
2.64985
2.32561
2.04039
2.00383
2.18936
1.57158
1.01822
0.76553
0.702145
0.872057
2.17242
3.4334
2.53149
1.89723
1.42606
1.08195
0.83985
0.677993
0.575025
0.512317
0.476076
0.457468
0.451729
0.457355
0.475815
0.511952
0.575132
0.68102
0.852841
1.11719
1.47448
1.8082
0.505521
0.52407
0.566177
0.646158
0.792443
1.05014
1.47677
2.20074
2.859
2.69076
2.13419
1.33664
0.829425
0.598489
0.52259
0.521631
0.581781
0.816986
2.23209
3.36318
2.48664
1.86318
1.39903
1.06028
0.822791
0.664844
0.564928
0.504392
0.469558
0.451729
0.44624
0.45162
0.469306
0.504042
0.565047
0.667849
0.835648
1.09505
1.44591
1.7721
0.525135
0.534785
0.552457
0.576067
0.606801
0.654032
0.742091
0.920175
1.1712
1.13729
0.807833
0.570765
0.470858
0.443172
0.451814
0.486749
0.5617
0.791657
2.11457
3.40427
2.5219
1.89373
1.4247
1.08134
0.839506
0.677755
0.574842
0.512168
0.47595
0.457355
0.45162
0.45724
0.475685
0.511793
0.574928
0.680751
0.852489
1.11674
1.4739
1.80748
0.598138
0.600216
0.602695
0.604521
0.608672
0.624541
0.670324
0.762528
0.825549
0.699886
0.532028
0.4446
0.41564
0.416976
0.437165
0.476214
0.548243
0.7425
1.78997
3.53452
2.63558
1.9895
1.50433
1.1468
0.891904
0.718692
0.606639
0.537357
0.496818
0.475815
0.469306
0.475685
0.496514
0.536912
0.60664
0.721694
0.905283
1.18399
1.56016
1.91661
0.72902
0.721125
0.706163
0.687915
0.674789
0.680742
0.726263
0.809892
0.804304
0.636935
0.494656
0.42728
0.406272
0.410185
0.430606
0.46749
0.531132
0.679377
1.38003
3.64215
2.83283
2.15584
1.64318
1.26221
0.986013
0.793851
0.666287
0.5855
0.537287
0.511952
0.504042
0.511793
0.536912
0.584927
0.666133
0.796838
0.999989
1.30224
1.71019
2.10707
0.886014
0.869353
0.840233
0.807263
0.783327
0.787193
0.84364
0.93255
0.881543
0.676126
0.516353
0.437138
0.408807
0.408297
0.425124
0.457161
0.51052
0.617434
1.01655
3.159
3.13217
2.40326
1.85109
1.43733
1.13213
0.913995
0.764523
0.666904
0.607126
0.575132
0.565047
0.574928
0.60664
0.666133
0.764121
0.916896
1.14677
1.48098
1.934
2.39313
1.00118
0.984058
0.954449
0.921248
0.898118
0.907549
0.981705
1.09311
1.02736
0.779049
0.574408
0.463863
0.418215
0.408372
0.41896
0.444623
0.487536
0.563579
0.768648
1.86194
3.54654
2.74745
2.14469
1.68743
1.34544
1.09495
0.917663
0.797887
0.722335
0.68102
0.667849
0.680751
0.721694
0.796838
0.916896
1.09762
1.36065
1.73503
2.24806
2.79879
1.03972
1.0294
1.01081
0.989061
0.975016
0.992256
1.08391
1.24477
1.22033
0.934914
0.664996
0.505406
0.43277
0.40912
0.411475
0.430001
0.463135
0.517536
0.626695
1.03341
3.11638
3.2148
2.55103
2.03631
1.64789
1.35842
1.14804
1.0014
0.906125
0.852841
0.835648
0.852489
0.905283
0.999989
1.14677
1.36065
1.66339
2.08762
2.67819
3.3555
1.03161
1.02736
1.01883
1.00756
1.0006
1.01917
1.1146
1.33379
1.42291
1.12292
0.776961
0.556292
0.449851
0.409642
0.402945
0.414485
0.439219
0.47868
0.544223
0.695209
1.37459
3.60032
3.09691
2.52117
2.07218
1.73354
1.48292
1.30409
1.18507
1.11719
1.09505
1.11674
1.18399
1.30224
1.48098
1.73503
2.08762
2.57493
3.24978
3.95528
1.01567
1.01395
1.00966
1.00261
0.997052
1.01035
1.09423
1.34478
1.58512
1.30063
0.882813
0.604012
0.465291
0.409738
0.395155
0.401081
0.419648
0.449567
0.494843
0.571541
0.765802
1.65775
3.69523
3.19341
2.66281
2.24767
1.9369
1.71263
1.56155
1.47448
1.44591
1.4739
1.56016
1.71019
1.934
2.24806
2.67819
3.24978
3.66971
1.89961
1.00684
1.0057
1.00236
0.99601
0.989602
0.997946
1.07009
1.32479
1.66986
1.41134
0.94766
0.633241
0.474664
0.409793
0.390589
0.393393
0.408717
0.433995
0.470901
0.526582
0.625717
0.900096
2.16124
3.94188
3.33993
2.79967
2.39729
2.11027
1.91838
1.8082
1.7721
1.80748
1.91661
2.10707
2.39313
2.79879
3.3555
3.95528
1.89961
0.950931
SCALARS C2 double 1
LOOKUP_TABLE default
2.9382
3.08119
3.27925
3.45809
3.60391
3.72342
3.82068
3.89675
3.95149
3.98451
3.99554
3.98448
3.95136
3.89635
3.81974
3.72186
3.60298
3.46306
3.30132
3.1155
2.90061
2.64781
2.34638
1.99471
1.61611
1.25525
0.953946
2.62426
4.43481
4.34471
4.10183
3.8099
3.49287
3.18988
2.96926
2.88323
2.90201
2.94882
2.98097
2.99447
3.08119
3.21908
3.41205
3.5896
3.73573
3.85558
3.95298
4.02904
4.08368
4.11661
4.1276
4.11658
4.08355
4.02864
3.95206
3.85412
3.73511
3.59514
3.43376
3.24938
3.03825
2.7933
2.50487
2.16786
1.79646
1.42829
1.11109
1.23025
4.17341
4.36364
4.14173
3.8544
3.54004
3.23777
3.01072
2.90918
2.91232
2.95134
2.98167
2.99518
3.27925
3.41205
3.60049
3.77631
3.92186
4.04112
4.1377
4.21275
4.26638
4.29855
4.30926
4.29852
4.26627
4.21238
4.13683
4.03974
3.9214
3.78207
3.62174
3.43965
3.23356
2.99862
2.72673
2.40947
2.04885
1.66976
1.31535
1.04467
2.82913
4.33106
4.2044
3.93296
3.62546
3.32389
3.08442
2.95618
2.93291
2.95848
2.98556
2.9991
3.45809
3.5896
3.77631
3.95015
4.09364
4.21061
4.30452
4.37666
4.42755
4.45771
4.46768
4.45769
4.42746
4.37635
4.30372
4.20927
4.09308
3.95549
3.79686
3.61716
3.41534
3.18838
2.93012
2.63131
2.28535
1.90254
1.5183
1.18286
1.20063
4.01016
4.25676
4.0259
3.7309
3.42959
3.174
3.01498
2.96217
2.97267
2.99644
3.01039
3.60391
3.73573
3.92186
4.09364
4.23429
4.34774
4.43738
4.50473
4.55097
4.57767
4.58636
4.57766
4.5509
4.50448
4.4367
4.34648
4.23357
4.09836
3.94152
3.7636
3.56444
3.34239
3.09308
2.80824
2.47772
2.1005
1.70109
1.32705
1.04471
2.99209
4.25335
4.1113
3.83387
3.53167
3.25848
3.07033
2.99196
2.99153
3.0153
3.0315
3.72342
3.85558
4.04112
4.21061
4.34774
4.45647
4.54005
4.60027
4.63939
4.66067
4.66732
4.66066
4.63934
4.60009
4.53949
4.45533
4.34693
4.21475
4.05983
3.88325
3.68556
3.46611
3.22196
2.94633
2.62845
2.26059
1.85609
1.45776
1.11911
1.63134
4.12719
4.1693
3.91221
3.60353
3.30742
3.09094
2.99483
2.99501
3.02914
3.05331
3.82068
3.95298
4.1377
4.30452
4.43738
4.54005
4.61545
4.66568
4.69447
4.70768
4.71123
4.70768
4.69445
4.66557
4.61502
4.53905
4.43655
4.30819
4.15552
3.9802
3.78341
3.5653
3.32396
3.05395
2.74511
2.38637
1.98227
1.56934
1.20235
1.09371
3.75946
4.16977
3.93338
3.59929
3.26065
3.00607
2.89519
2.91215
2.97872
3.02542
3.89675
4.02904
4.21275
4.37666
4.50473
4.60027
4.66568
4.70325
4.71844
4.72069
4.71997
4.72069
4.71845
4.70321
4.66538
4.59941
4.50388
4.37994
4.22982
4.05582
3.85974
3.64234
3.40249
3.13578
2.83287
2.48143
2.08031
1.66029
1.27636
1.01358
2.92351
4.03517
3.82966
3.44264
3.04577
2.74339
2.59076
2.59237
2.68564
2.76609
3.95149
4.08368
4.26638
4.42755
4.55097
4.63939
4.69447
4.71844
4.71847
4.7081
4.70237
4.7081
4.71851
4.71848
4.69429
4.63866
4.55013
4.43052
4.28286
4.11013
3.91466
3.69766
3.45855
3.19359
2.89421
2.54815
2.15211
1.73385
1.34828
1.0584
1.85565
3.67799
3.58473
3.20327
2.83209
2.53082
2.30664
2.16762
2.11397
2.11173
3.98451
4.11661
4.29855
4.45771
4.57767
4.66067
4.70768
4.72069
4.7081
4.68694
4.67688
4.68695
4.70815
4.72077
4.7076
4.66004
4.57684
4.46048
4.31465
4.14285
3.94779
3.73098
3.49208
3.22774
2.93025
2.58918
2.20367
1.80196
1.43676
1.16421
1.59389
3.46935
3.47534
3.18184
2.90263
2.64818
2.40488
2.17839
1.99597
1.89293
3.99554
4.1276
4.30926
4.46768
4.58636
4.66732
4.71123
4.71997
4.70237
4.67688
4.66504
4.67689
4.70243
4.72007
4.71118
4.66672
4.58552
4.47038
4.32523
4.15377
3.95881
3.74189
3.5027
3.23823
2.9426
2.6106
2.24794
1.88172
1.55346
1.31179
2.18517
3.6836
3.56413
3.33636
3.13133
2.93141
2.7187
2.49803
2.30753
2.19754
3.98448
4.11658
4.29852
4.45769
4.57766
4.66066
4.70768
4.72069
4.7081
4.68695
4.67689
4.68697
4.70816
4.72078
4.70759
4.66003
4.57683
4.46047
4.31463
4.14277
3.94748
3.73006
3.49014
3.22592
2.93625
2.62415
2.29846
1.9727
1.66543
1.45217
3.35056
3.87729
3.70687
3.53975
3.39003
3.23725
3.06435
2.87432
2.70423
2.60459
3.95136
4.08355
4.26627
4.42746
4.5509
4.63934
4.69445
4.71845
4.71851
4.70815
4.70243
4.70816
4.71854
4.71848
4.69427
4.63862
4.55007
4.43045
4.28273
4.10978
3.91364
3.69527
3.45506
3.19515
2.92181
2.64123
2.3492
2.02836
1.68916
1.9152
3.98806
4.01394
3.87823
3.76081
3.65165
3.53243
3.388
3.22122
3.06709
2.97525
3.89635
4.02864
4.21238
4.37635
4.50448
4.60009
4.66557
4.70321
4.71848
4.72077
4.72007
4.72078
4.71848
4.70317
4.66527
4.59923
4.50365
4.37963
4.22928
4.05465
3.85717
3.63822
3.40159
3.15603
2.90983
2.65482
2.35402
1.97055
1.55226
3.29794
4.22887
4.16173
4.07099
3.99174
3.91075
3.81236
3.68459
3.53084
3.3843
3.29517
3.81974
3.95206
4.13683
4.30372
4.4367
4.53949
4.61502
4.66538
4.69429
4.7076
4.71118
4.70759
4.69427
4.66527
4.61458
4.5385
4.43587
4.30727
4.15398
3.97727
3.77878
3.56291
3.33953
3.11864
2.89317
2.62141
2.23926
1.75323
1.59662
4.11404
4.37928
4.32789
4.27447
4.22165
4.1578
4.07174
3.95477
3.80982
3.66748
3.5788
3.72186
3.85412
4.03974
4.20927
4.34648
4.45533
4.53905
4.59941
4.63866
4.66004
4.66672
4.66003
4.63862
4.59923
4.5385
4.4542
4.34556
4.21279
4.05656
3.87826
3.68233
3.47887
3.27857
3.07591
2.83127
2.47428
1.97236
1.434
2.59292
4.43711
4.52018
4.4975
4.46911
4.43194
4.37893
4.30295
4.19679
4.06143
3.92398
3.8359
3.60298
3.73511
3.9214
4.09308
4.23357
4.34693
4.43655
4.50388
4.55013
4.57684
4.58552
4.57683
4.55007
4.50365
4.43587
4.34556
4.23223
4.09592
3.93757
3.76134
3.5771
3.39549
3.21195
2.99045
2.66421
2.18253
1.61572
1.204
3.70917
4.58855
4.63718
4.63382
4.62065
4.59661
4.55717
4.4961
4.40573
4.2844
4.15515
4.06933
3.46306
3.59514
3.78207
3.95549
4.09836
4.21475
4.30819
4.37994
4.43052
4.46048
4.47038
4.46047
4.43045
4.37963
4.30727
4.21279
4.09592
3.95727
3.80068
3.63563
3.47234
3.30654
3.10531
2.80829
2.36144
1.80098
1.2756
1.29025
4.10653
4.57405
4.60797
4.61995
4.64014
4.65747
4.65763
4.63105
4.57036
4.47275
4.35799
4.27749
3.30132
3.43376
3.62174
3.79686
3.94152
4.05983
4.15552
4.22982
4.28286
4.31465
4.32523
4.31463
4.28273
4.22928
4.15398
4.05656
3.93757
3.80068
3.65508
3.51049
3.36245
3.18003
2.90878
2.49778
1.96437
1.4269
1.00485
1.37916
3.17603
3.32899
3.22841
3.36278
3.73531
4.16597
4.47849
4.62775
4.6582
4.61177
4.52478
4.45521
3.1155
3.24938
3.43965
3.61716
3.7636
3.88325
3.9802
4.05582
4.11013
4.14285
4.15377
4.14277
4.10978
4.05465
3.97727
3.87826
3.76134
3.63563
3.51049
3.38097
3.21691
2.96807
2.58855
2.08769
1.561
1.11266
0.828008
0.844118
0.908188
0.90876
0.909209
0.91278
0.945604
1.15062
2.09224
3.69064
4.47226
4.65246
4.63762
4.59188
2.90061
3.03825
3.23356
3.41534
3.56444
3.68556
3.78341
3.85974
3.91466
3.94779
3.95881
3.94748
3.91364
3.85717
3.77878
3.68233
3.5771
3.47234
3.36245
3.21691
2.98767
2.63371
2.16335
1.6584
1.21895
0.927936
0.858567
0.947817
1.03119
1.07578
1.09073
1.0786
1.04189
0.986174
0.926836
0.969496
2.19304
4.20719
4.63046
4.66239
2.64781
2.7933
2.99862
3.18838
3.34239
3.46611
3.5653
3.64234
3.69766
3.73098
3.74189
3.73006
3.69527
3.63822
3.56291
3.47887
3.39549
3.30654
3.18003
2.96807
2.63371
2.18876
1.70914
1.29072
1.02378
0.971622
1.08011
1.20331
1.28966
1.34094
1.35847
1.34238
1.2944
1.21837
1.12042
1.0109
0.922611
1.40719
3.95165
4.56368
2.34638
2.50487
2.72673
2.93012
3.09308
3.22196
3.32396
3.40249
3.45855
3.49208
3.5027
3.49014
3.45506
3.40159
3.33953
3.27857
3.21195
3.10531
2.90878
2.58855
2.16335
1.70914
1.31585
1.0764
1.05051
1.18379
1.34629
1.47763
1.57227
1.63017
1.64986
1.63089
1.57459
1.48422
1.36493
1.22361
1.0705
0.934256
1.22591
3.45946
1.99471
2.16786
2.40947
2.63131
2.80824
2.94633
3.05395
3.13578
3.19359
3.22774
3.23823
3.22592
3.19515
3.15603
3.11864
3.07591
2.99045
2.80829
2.49778
2.08769
1.6584
1.29072
1.0764
1.07824
1.23975
1.43937
1.61437
1.7539
1.85616
1.91865
1.93973
1.91905
1.85744
1.75713
1.62204
1.45801
1.27319
1.08016
0.908827
0.963296
1.61611
1.79646
2.04885
2.28535
2.47772
2.62845
2.74511
2.83287
2.89421
2.93025
2.9426
2.93625
2.92181
2.90983
2.89317
2.83127
2.66421
2.36144
1.96437
1.561
1.21895
1.02378
1.05051
1.23975
1.47156
1.68576
1.86798
2.01388
2.11985
2.18391
2.20538
2.18421
2.12073
2.01583
1.87149
1.69157
1.48299
1.25706
1.03057
0.855296
1.25525
1.42829
1.66976
1.90254
2.1005
2.26059
2.38637
2.48143
2.54815
2.58918
2.6106
2.62415
2.64123
2.65482
2.62141
2.47428
2.18253
1.80098
1.4269
1.11266
0.927936
0.971622
1.18379
1.43937
1.68576
1.90666
2.09389
2.24168
2.34747
2.4108
2.43193
2.41108
2.34823
2.24318
2.09594
1.90768
1.68289
1.4322
1.17623
0.975999
0.953946
1.11109
1.31535
1.5183
1.70109
1.85609
1.98227
2.08031
2.15211
2.20367
2.24794
2.29846
2.3492
2.35402
2.23926
1.97236
1.61572
1.2756
1.00485
0.828008
0.858567
1.08011
1.34629
1.61437
1.86798
2.09389
2.28221
2.42849
2.5321
2.59379
2.61433
2.59407
2.53283
2.42986
2.2838
2.09333
1.85974
1.59185
1.31502
1.10339
2.62426
1.23025
1.04467
1.18286
1.32705
1.45776
1.56934
1.66029
1.73385
1.80196
1.88172
1.9727
2.02836
1.97055
1.75323
1.434
1.204
1.29025
1.37916
0.844118
0.947817
1.20331
1.47763
1.7539
2.01388
2.24168
2.42849
2.57205
2.67321
2.73334
2.75335
2.7336
2.67391
2.57338
2.42998
2.24068
2.0038
1.72557
1.43461
1.21581
4.43481
4.17341
2.82913
1.20063
1.04471
1.11911
1.20235
1.27636
1.34828
1.43676
1.55346
1.66543
1.68916
1.55226
1.59662
2.59292
3.70917
4.10653
3.17603
0.908188
1.03119
1.28966
1.57227
1.85616
2.11985
2.34747
2.5321
2.67321
2.77249
2.83151
2.85117
2.83177
2.77317
2.67452
2.53359
2.34642
2.10922
1.8257
1.52619
1.30307
4.34471
4.36364
4.33106
4.01016
2.99209
1.63134
1.09371
1.01358
1.0584
1.16421
1.31179
1.45217
1.9152
3.29794
4.11404
4.43711
4.58855
4.57405
3.32899
0.90876
1.07578
1.34094
1.63017
1.91865
2.18391
2.4108
2.59379
2.73334
2.83151
2.88992
2.90938
2.89017
2.83218
2.73464
2.5953
2.40981
2.17318
1.88745
1.58356
1.35822
4.10183
4.14173
4.2044
4.25676
4.25335
4.12719
3.75946
2.92351
1.85565
1.59389
2.18517
3.35056
3.98806
4.22887
4.37928
4.52018
4.63718
4.60797
3.22841
0.909209
1.09073
1.35847
1.64986
1.93973
2.20538
2.43193
2.61433
2.75335
2.85117
2.90938
2.92877
2.90962
2.85183
2.75465
2.61586
2.43099
2.19468
1.90838
1.60317
1.37717
3.8099
3.8544
3.93296
4.0259
4.1113
4.1693
4.16977
4.03517
3.67799
3.46935
3.6836
3.87729
4.01394
4.16173
4.32789
4.4975
4.63382
4.61995
3.36278
0.91278
1.0786
1.34238
1.63089
1.91905
2.18421
2.41108
2.59407
2.7336
2.83177
2.89017
2.90962
2.89041
2.83244
2.73491
2.59561
2.41016
2.17355
1.88783
1.58393
1.35858
3.49287
3.54004
3.62546
3.7309
3.83387
3.91221
3.93338
3.82966
3.58473
3.47534
3.56413
3.70687
3.87823
4.07099
4.27447
4.46911
4.62065
4.64014
3.73531
0.945604
1.04189
1.2944
1.57459
1.85744
2.12073
2.34823
2.53283
2.67391
2.77317
2.83218
2.85183
2.83244
2.77387
2.67526
2.53439
2.34729
2.11014
1.82662
1.52705
1.3039
3.18988
3.23777
3.32389
3.42959
3.53167
3.60353
3.59929
3.44264
3.20327
3.18184
3.33636
3.53975
3.76081
3.99174
4.22165
4.43194
4.59661
4.65747
4.16597
1.15062
0.986174
1.21837
1.48422
1.75713
2.01583
2.24318
2.42986
2.57338
2.67452
2.73464
2.75465
2.73491
2.67526
2.57478
2.43146
2.24225
2.00541
1.72712
1.43606
1.2172
2.96926
3.01072
3.08442
3.174
3.25848
3.30742
3.26065
3.04577
2.83209
2.90263
3.13133
3.39003
3.65165
3.91075
4.1578
4.37893
4.55717
4.65763
4.47849
2.09224
0.926836
1.12042
1.36493
1.62204
1.87149
2.09594
2.2838
2.42998
2.53359
2.5953
2.61586
2.59561
2.53439
2.43146
2.28546
2.09505
1.86148
1.59355
1.31664
1.10501
2.88323
2.90918
2.95618
3.01498
3.07033
3.09094
3.00607
2.74339
2.53082
2.64818
2.93141
3.23725
3.53243
3.81236
4.07174
4.30295
4.4961
4.63105
4.62775
3.69064
0.969496
1.0109
1.22361
1.45801
1.69157
1.90768
2.09333
2.24068
2.34642
2.40981
2.43099
2.41016
2.34729
2.24225
2.09505
1.90692
1.68237
1.43205
1.17649
0.976604
2.90201
2.91232
2.93291
2.96217
2.99196
2.99483
2.89519
2.59076
2.30664
2.40488
2.7187
3.06435
3.388
3.68459
3.95477
4.19679
4.40573
4.57036
4.6582
4.47226
2.19304
0.922611
1.0705
1.27319
1.48299
1.68289
1.85974
2.0038
2.10922
2.17318
2.19468
2.17355
2.11014
2.00541
1.86148
1.68237
1.47512
1.25102
1.0268
0.853993
2.94882
2.95134
2.95848
2.97267
2.99153
2.99501
2.91215
2.59237
2.16762
2.17839
2.49803
2.87432
3.22122
3.53084
3.80982
4.06143
4.2844
4.47275
4.61177
4.65246
4.20719
1.40719
0.934256
1.08016
1.25706
1.4322
1.59185
1.72557
1.8257
1.88745
1.90838
1.88783
1.82662
1.72712
1.59355
1.43205
1.25102
1.06339
0.902526
1.04867
2.98097
2.98167
2.98556
2.99644
3.0153
3.02914
2.97872
2.68564
2.11397
1.99597
2.30753
2.70423
3.06709
3.3843
3.66748
3.92398
4.15515
4.35799
4.52478
4.63762
4.63046
3.95165
1.22591
0.908827
1.03057
1.17623
1.31502
1.43461
1.52619
1.58356
1.60317
1.58393
1.52705
1.43606
1.31664
1.17649
1.0268
0.902526
1.40601
3.73879
2.99447
2.99518
2.9991
3.01039
3.0315
3.05331
3.02542
2.76609
2.11173
1.89293
2.19754
2.60459
2.97525
3.29517
3.5788
3.8359
4.06933
4.27749
4.45521
4.59188
4.66239
4.56368
3.45946
0.963296
0.855296
0.975999
1.10339
1.21581
1.30307
1.35822
1.37717
1.35858
1.3039
1.2172
1.10501
0.976604
0.853993
1.04867
3.73879
4.52514
