# vtk DataFile Version 3.0
Brusselator Concentration Output
ASCII
DATASET STRUCTURED_POINTS
DIMENSIONS 40 40 1
ORIGIN 0.0 0.0 0.0
SPACING 0.005 0.005 1.0
POINT_DATA 1600
SCALARS C1 double 1
LOOKUP_TABLE default
1.00012
1.00019
1.0003
1.00036
1.00014
0.999351
0.997787
0.995616
0.993388
0.991753
0.991158
0.991753
0.993388
0.995616
0.997787
0.999351
1.00014
1.00036
1.0003
1.00017
1.00008
1.00003
1.00001
1
1
1
1
1
1
1
1
1
1
1
1
1
1
1
1
1
1.00019
1.00025
1.00025
0.999924
0.998776
0.996338
0.992585
0.988222
0.984354
0.98183
0.980972
0.98183
0.984354
0.988222
0.992585
0.996338
0.998776
0.999921
1.00024
1.00022
1.00013
1.00006
1.00002
1.00001
1
1
1
1
1
1
1
1
1
1
1
1
1
1
1
1
1.0003
1.00025
0.999819
0.998254
0.994588
0.988322
0.980267
0.972478
0.966902
0.964049
0.963246
0.964049
0.966902
0.972478
0.980267
0.988322
0.994587
0.998249
0.999802
1.00021
1.00019
1.00011
1.00005
1.00002
1.00001
1
1
1
1
1
1
1
1
1
1
1
1
1
1
1
1.00036
0.999924
0.998254
0.993873
0.985452
0.973399
0.960802
0.951995
0.949272
0.950706
0.951917
0.950706
0.949272
0.951994
0.960802
0.973398
0.985449
0.993862
0.998222
0.999843
1.0002
1.00016
1.00008
1.00003
1.00001
1
1
1
1
1
1
1
1
1
1
1
1
1
1
1
1.00014
0.998776
0.994588
0.985452
0.970699
0.95366
0.94179
0.942927
0.959081
0.980704
0.990711
0.980704
0.959081
0.942927
0.94179
0.953659
0.970693
0.985432
0.994534
0.998656
0.999965
1.00018
1.00012
1.00005
1.00002
1.00001
1
1
1
1
1
1
1
1
1
1
1
1
1
1
0.999351
0.996338
0.988322
0.973399
0.95366
0.938277
0.942869
0.985334
1.07208
1.1671
1.20757
1.1671
1.07208
0.985334
0.942868
0.938274
0.95365
0.973369
0.988245
0.996196
0.999276
1.00008
1.00014
1.00008
1.00003
1.00001
1
1
1
1
1
1
1
1
1
1
1
1
1
1
0.997787
0.992585
0.980267
0.960802
0.94179
0.942869
1.0008
1.17486
1.47294
1.7136
1.78704
1.7136
1.47294
1.17486
1.0008
0.942864
0.941775
0.96076
0.980173
0.992468
0.998007
0.99978
1.00012
1.0001
1.00004
1.00002
1
1
1
1
1
1
1
1
1
1
1
1
1
1
0.995616
0.988222
0.972478
0.951995
0.942927
0.985334
1.17486
1.64152
2.02525
2.01085
1.96833
2.01085
2.02525
1.64152
1.17486
0.985328
0.942906
0.951942
0.972379
0.988186
0.996316
0.999299
1.00004
1.0001
1.00005
1.00002
1.00001
1
1
1
1
1
1
1
1
1
1
1
1
1
0.993388
0.984354
0.966902
0.949272
0.959081
1.07208
1.47294
2.02525
1.92687
1.716
1.63795
1.716
1.92687
2.02524
1.47293
1.07207
0.959056
0.949212
0.966811
0.984437
0.99463
0.998752
0.999915
1.00009
1.00006
1.00003
1.00001
1
1
1
1
1
1
1
1
1
1
1
1
1
0.991753
0.98183
0.964049
0.950706
0.980704
1.1671
1.7136
2.01085
1.716
1.47959
1.39904
1.47959
1.716
2.01085
1.7136
1.16709
0.980675
0.950642
0.96397
0.982016
0.993419
0.998324
0.999809
1.00008
1.00006
1.00003
1.00001
1
1
1
1
1
1
1
1
1
1
1
1
1
0.991158
0.980972
0.963246
0.951917
0.990711
1.20757
1.78704
1.96833
1.63795
1.39904
1.319
1.39904
1.63795
1.96833
1.78704
1.20755
0.990681
0.951852
0.963173
0.981199
0.992983
0.998163
0.999767
1.00007
1.00006
1.00003
1.00001
1
1
1
1
1
1
1
1
1
1
1
1
1
0.991753
0.98183
0.964049
0.950706
0.980704
1.1671
1.7136
2.01085
1.716
1.47959
1.39904
1.47959
1.716
2.01085
1.71359
1.16709
0.980675
0.950642
0.96397
0.982016
0.993419
0.998324
0.999809
1.00008
1.00006
1.00003
1.00001
1
1
1
1
1
1
1
1
1
1
1
1
1
0.993388
0.984354
0.966902
0.949272
0.959081
1.07208
1.47294
2.02525
1.92687
1.716
1.63795
1.716
1.92687
2.02524
1.47293
1.07207
0.959056
0.949212
0.966811
0.984437
0.99463
0.998752
0.999915
1.00009
1.00006
1.00002
1.00001
1
1
1
1
1
1
1
1
1
1
1
1
1
0.995616
0.988222
0.972478
0.951994
0.942927
0.985334
1.17486
1.64152
2.02524
2.01085
1.96833
2.01085
2.02524
1.64152
1.17486
0.985327
0.942906
0.951941
0.972379
0.988186
0.996316
0.999299
1.00004
1.0001
1.00005
1.00002
1.00001
1
1
0.999999
0.999999
0.999999
0.999999
0.999999
1
1
1
1
1
1
0.997787
0.992585
0.980267
0.960802
0.94179
0.942868
1.0008
1.17486
1.47293
1.7136
1.78704
1.71359
1.47293
1.17486
1.0008
0.942864
0.941775
0.96076
0.980172
0.992468
0.998007
0.99978
1.00012
1.0001
1.00004
1.00001
1
0.999999
0.999998
0.999997
0.999997
0.999997
0.999997
0.999998
0.999999
0.999999
0.999999
1
1
1
0.999351
0.996338
0.988322
0.973398
0.953659
0.938274
0.942864
0.985328
1.07207
1.16709
1.20755
1.16709
1.07207
0.985327
0.942864
0.938272
0.953649
0.973368
0.988244
0.996196
0.999276
1.00007
1.00014
1.00008
1.00003
1.00001
0.999998
0.999994
0.999992
0.999991
0.999991
0.999991
0.999992
0.999993
0.999995
0.999997
0.999998
0.999999
1
1
1.00014
0.998776
0.994587
0.985449
0.970693
0.95365
0.941775
0.942906
0.959056
0.980675
0.990681
0.980675
0.959056
0.942906
0.941775
0.953649
0.970687
0.985429
0.994533
0.998656
0.999965
1.00018
1.00012
1.00005
1.00001
0.999996
0.999987
0.999982
0.999979
0.999977
0.999977
0.999977
0.999979
0.999982
0.999986
0.99999
0.999994
0.999997
0.999998
0.999999
1.00036
0.999921
0.998249
0.993862
0.985432
0.973369
0.96076
0.951942
0.949212
0.950642
0.951852
0.950642
0.949212
0.951941
0.96076
0.973368
0.985429
0.993851
0.998217
0.999841
1.00019
1.00016
1.00008
1.00002
0.999993
0.999977
0.999966
0.999961
0.99996
0.999962
0.999963
0.999962
0.99996
0.999961
0.999966
0.999974
0.999983
0.99999
0.999995
0.999997
1.0003
1.00024
0.999802
0.998222
0.994534
0.988245
0.980173
0.972379
0.966811
0.96397
0.963173
0.96397
0.966811
0.972379
0.980172
0.988244
0.994533
0.998217
0.999786
1.0002
1.00019
1.0001
1.00003
0.99999
0.999964
0.999947
0.999944
0.999959
0.999988
1.00002
1.00003
1.00002
0.999988
0.999959
0.999944
0.999946
0.999958
0.999974
0.999985
0.999991
1.00017
1.00022
1.00021
0.999843
0.998656
0.996196
0.992468
0.988186
0.984437
0.982016
0.981199
0.982016
0.984437
0.988186
0.992468
0.996196
0.998656
0.999841
1.0002
1.0002
1.00011
1.00004
0.999987
0.999951
0.999928
0.999939
1.00001
1.00014
1.00031
1.00044
1.0005
1.00044
1.00031
1.00014
1.00001
0.999938
0.999926
0.999942
0.999963
0.999975
1.00008
1.00013
1.00019
1.0002
0.999965
0.999276
0.998007
0.996316
0.99463
0.993419
0.992983
0.993419
0.99463
0.996316
0.998007
0.999276
0.999965
1.00019
1.00019
1.00011
1.00004
0.999986
0.999941
0.999915
0.99995
1.00012
1.0005
1.00106
1.00167
1.00214
1.00231
1.00214
1.00167
1.00106
1.0005
1.00012
0.999948
0.999909
0.999924
0.999942
1.00003
1.00006
1.00011
1.00016
1.00018
1.00008
0.99978
0.999299
0.998752
0.998324
0.998163
0.998324
0.998752
0.999299
0.99978
1.00007
1.00018
1.00016
1.0001
1.00004
0.999986
0.999937
0.999908
0.99997
1.00028
1.00104
1.00237
1.00408
1.00573
1.00687
1.00727
1.00687
1.00573
1.00408
1.00237
1.00104
1.00028
0.999962
0.999887
0.999888
1.00001
1.00002
1.00005
1.00008
1.00012
1.00014
1.00012
1.00004
0.999915
0.999809
0.999767
0.999809
0.999915
1.00004
1.00012
1.00014
1.00012
1.00008
1.00003
0.999987
0.999941
0.999908
0.999979
1.00039
1.00156
1.0039
1.00737
1.01119
1.01423
1.01592
1.01641
1.01592
1.01423
1.01119
1.00737
1.00389
1.00156
1.00038
0.999944
0.999836
1
1.00001
1.00002
1.00003
1.00005
1.00008
1.0001
1.0001
1.00009
1.00008
1.00007
1.00008
1.00009
1.0001
1.0001
1.00008
1.00005
1.00002
0.99999
0.999951
0.999915
0.99997
1.00039
1.00178
1.00496
1.01035
1.01697
1.02226
1.02426
1.0238
1.02327
1.0238
1.02426
1.02226
1.01697
1.01035
1.00495
1.00176
1.00034
0.99988
1
1
1.00001
1.00001
1.00002
1.00003
1.00004
1.00005
1.00006
1.00006
1.00006
1.00006
1.00006
1.00005
1.00004
1.00003
1.00001
0.999993
0.999964
0.999928
0.99995
1.00028
1.00156
1.00496
1.01158
1.02071
1.02799
1.02757
1.01892
1.00873
1.00443
1.00873
1.01892
1.02757
1.02799
1.02071
1.01156
1.00492
1.00149
1.00023
1
1
1
1
1.00001
1.00001
1.00002
1.00002
1.00003
1.00003
1.00003
1.00003
1.00002
1.00002
1.00001
1.00001
0.999996
0.999977
0.999947
0.999939
1.00012
1.00104
1.0039
1.01035
1.02071
1.02995
1.02682
1.00413
0.970328
0.942554
0.932264
0.942554
0.970328
1.00412
1.02682
1.02994
1.02068
1.0103
1.00383
1.00117
1
1
1
1
1
1
1
1.00001
1.00001
1.00001
1.00001
1.00001
1.00001
1.00001
1
0.999998
0.999987
0.999966
0.999944
1.00001
1.0005
1.00237
1.00737
1.01697
1.02799
1.02682
0.995937
0.936811
0.874036
0.831025
0.816412
0.831025
0.874036
0.93681
0.995933
1.02681
1.02796
1.01692
1.00737
1.00287
1
1
1
1
1
1
1
1
1
1
1
1
1
1
0.999999
0.999994
0.999982
0.999961
0.999959
1.00014
1.00106
1.00408
1.01119
1.02226
1.02757
1.00413
0.936811
0.845339
0.76602
0.718653
0.703763
0.718653
0.766019
0.845337
0.936806
1.00411
1.02754
1.02222
1.01133
1.00514
1
1
1
1
1
1
1
1
1
1
1
1
1
1
0.999998
0.999992
0.999979
0.99996
0.999988
1.00031
1.00167
1.00573
1.01423
1.02426
1.01892
0.970328
0.874036
0.76602
0.684684
0.641505
0.629049
0.641505
0.684684
0.766018
0.87403
0.970309
1.01888
1.02426
1.01454
1.00741
1
1
1
1
1
1
1
1
1
1
1
1
1
0.999999
0.999997
0.999991
0.999977
0.999962
1.00002
1.00044
1.00214
1.00687
1.01592
1.0238
1.00873
0.942554
0.831025
0.718653
0.641505
0.604417
0.594742
0.604417
0.641504
0.718651
0.831018
0.942534
1.0087
1.02382
1.01637
1.00902
1
1
1
1
1
1
1
1
1
1
1
1
1
0.999999
0.999997
0.999991
0.999977
0.999963
1.00003
1.0005
1.00231
1.00727
1.01641
1.02327
1.00443
0.932264
0.816412
0.703763
0.629049
0.594742
0.586309
0.594742
0.629048
0.703761
0.816405
0.932244
1.0044
1.0233
1.01692
1.0096
1
1
1
1
1
1
1
1
1
1
1
1
1
0.999999
0.999997
0.999991
0.999977
0.999962
1.00002
1.00044
1.00214
1.00687
1.01592
1.0238
1.00873
0.942554
0.831025
0.718653
0.641505
0.604417
0.594742
0.604417
0.641504
0.718651
0.831018
0.942534
1.0087
1.02382
1.01637
1.00902
1
1
1
1
1
1
1
1
1
1
1
1
1
0.999999
0.999997
0.999992
0.999979
0.99996
0.999988
1.00031
1.00167
1.00573
1.01423
1.02426
1.01892
0.970328
0.874036
0.766019
0.684684
0.641504
0.629048
0.641504
0.684683
0.766018
0.874029
0.970309
1.01888
1.02426
1.01454
1.00741
1
1
1
1
1
1
1
1
1
1
1
1
1
0.999999
0.999998
0.999993
0.999982
0.999961
0.999959
1.00014
1.00106
1.00408
1.01119
1.02226
1.02757
1.00412
0.93681
0.845337
0.766018
0.718651
0.703761
0.718651
0.766018
0.845336
0.936804
1.00411
1.02754
1.02222
1.01133
1.00514
1
1
1
1
1
1
1
1
1
1
1
1
1
1
0.999999
0.999995
0.999986
0.999966
0.999944
1.00001
1.0005
1.00237
1.00737
1.01697
1.02799
1.02682
0.995933
0.936806
0.87403
0.831018
0.816405
0.831018
0.874029
0.936804
0.995928
1.02681
1.02796
1.01692
1.00737
1.00287
1
1
1
1
1
1
1
1
1
1
1
1
1
1
0.999999
0.999997
0.99999
0.999974
0.999946
0.999938
1.00012
1.00104
1.00389
1.01035
1.02071
1.02994
1.02681
1.00411
0.970309
0.942534
0.932244
0.942534
0.970309
1.00411
1.02681
1.02993
1.02068
1.0103
1.00383
1.00116
1
1
1
1
1
1
1
1
1
1
1
1
1
1
0.999999
0.999998
0.999994
0.999983
0.999958
0.999926
0.999948
1.00028
1.00156
1.00495
1.01156
1.02068
1.02796
1.02754
1.01888
1.0087
1.0044
1.0087
1.01888
1.02754
1.02796
1.02068
1.01154
1.00491
1.00148
1.00023
1
1
1
1
1
1
1
1
1
1
1
1
1
1
1
0.999999
0.999997
0.99999
0.999974
0.999942
0.999909
0.999962
1.00038
1.00176
1.00492
1.0103
1.01692
1.02222
1.02426
1.02382
1.0233
1.02382
1.02426
1.02222
1.01692
1.0103
1.00491
1.00173
1.00032
0.999871
1
1
1
1
1
1
1
1
1
1
1
1
1
1
1
1
0.999998
0.999995
0.999985
0.999963
0.999924
0.999887
0.999944
1.00034
1.00149
1.00383
1.00737
1.01133
1.01454
1.01637
1.01692
1.01637
1.01454
1.01133
1.00737
1.00383
1.00148
1.00032
0.999907
0.999811
1
1
1
1
1
1
1
1
1
1
1
1
1
1
1
1
0.999999
0.999997
0.999991
0.999975
0.999942
0.999888
0.999836
0.99988
1.00023
1.00117
1.00287
1.00514
1.00741
1.00902
1.0096
1.00902
1.00741
1.00514
1.00287
1.00116
1.00023
0.999871
0.999811
0.99983
SCALARS C2 double 1
LOOKUP_TABLE default
2.99985
2.99974
2.9995
2.99917
2.99894
2.99921
3.0004
3.00259
3.00523
3.00737
3.00819
3.00737
3.00523
3.00259
3.0004
2.99921
2.99894
2.99917
2.9995
2.99975
2.99989
2.99996
2.99999
3
3
3
3
3
3
3
3
3
3
3
3
3
3
3
3
3
2.99974
2.99958
2.99931
2.9992
2.99983
3.00205
3.00646
3.01263
3.019
3.02367
3.02537
3.02367
3.019
3.01263
3.00646
3.00205
2.99983
2.9992
2.99932
2.9996
2.99981
2.99993
2.99997
2.99999
3
3
3
3
3
3
3
3
3
3
3
3
3
3
3
3
2.9995
2.99931
2.99927
3.00023
3.00379
3.0117
3.02431
3.03947
3.05325
3.06236
3.06546
3.06236
3.05325
3.03947
3.02431
3.0117
3.0038
3.00023
2.99928
2.99937
2.99965
2.99985
2.99994
2.99998
2.99999
3
3
3
3
3
3
3
3
3
3
3
3
3
3
3
2.99917
2.9992
3.00023
3.0045
3.01529
3.03495
3.06196
3.09005
3.11171
3.12346
3.12686
3.12346
3.11171
3.09005
3.06196
3.03495
3.01529
3.00451
3.00027
2.99932
2.99945
2.99972
2.99988
2.99996
2.99999
3
3
3
3
3
3
3
3
3
3
3
3
3
3
3
2.99894
2.99983
3.00379
3.01529
3.03929
3.07689
3.12114
3.15811
3.17545
3.17459
3.17116
3.17459
3.17545
3.15811
3.12114
3.07689
3.03929
3.01531
3.00387
3.00002
2.99937
2.99957
2.9998
2.99993
2.99998
2.99999
3
3
3
3
3
3
3
3
3
3
3
3
3
3
2.99921
3.00205
3.0117
3.03495
3.07689
3.13337
3.18582
3.20319
3.15938
3.07721
3.03556
3.07721
3.15938
3.20319
3.18582
3.13338
3.0769
3.03499
3.01181
3.00234
2.99973
2.99949
2.99971
2.99988
2.99996
2.99999
3
3
3
3
3
3
3
3
3
3
3
3
3
3
3.0004
3.00646
3.02431
3.06196
3.12114
3.18582
3.20971
3.10155
2.78113
2.42725
2.29493
2.42725
2.78113
3.10155
3.20972
3.18582
3.12116
3.06202
3.02448
3.00682
3.00082
2.99958
2.99964
2.99983
2.99994
2.99998
2.99999
3
3
3
3
3
3
3
3
3
3
3
3
3
3.00259
3.01263
3.03947
3.09005
3.15811
3.20319
3.10155
2.58792
1.8769
1.61752
1.57961
1.61752
1.8769
2.58792
3.10155
3.2032
3.15813
3.09013
3.03968
3.013
3.00266
2.99992
2.99963
2.99979
2.99992
2.99997
2.99999
3
3
3
3
3
3
3
3
3
3
3
3
3
3.00523
3.019
3.05325
3.11171
3.17545
3.15938
2.78113
1.8769
1.53613
1.56539
1.59774
1.56539
1.53613
1.8769
2.78113
3.15939
3.17548
3.11181
3.05349
3.01933
3.00481
3.00043
2.99967
2.99976
2.9999
2.99997
2.99999
3
3
3
3
3
3
3
3
3
3
3
3
3
3.00737
3.02367
3.06236
3.12346
3.17459
3.07721
2.42725
1.61752
1.56539
1.68065
1.73404
1.68065
1.56539
1.61752
2.42726
3.07723
3.17463
3.12357
3.0626
3.02394
3.00651
3.00087
2.99974
2.99975
2.99989
2.99996
2.99999
3
3
3
3
3
3
3
3
3
3
3
3
3
3.00819
3.02537
3.06546
3.12686
3.17116
3.03556
2.29493
1.57961
1.59774
1.73404
1.7931
1.73404
1.59774
1.57961
2.29494
3.03557
3.17121
3.12698
3.06571
3.0256
3.00715
3.00105
2.99977
2.99975
2.99988
2.99996
2.99999
3
3
3
3
3
3
3
3
3
3
3
3
3
3.00737
3.02367
3.06236
3.12346
3.17459
3.07721
2.42725
1.61752
1.56539
1.68065
1.73404
1.68065
1.56539
1.61752
2.42726
3.07723
3.17463
3.12357
3.0626
3.02394
3.00651
3.00087
2.99974
2.99975
2.99989
2.99996
2.99999
3
3
3
3
3
3
3
3
3
3
3
3
3
3.00523
3.019
3.05325
3.11171
3.17545
3.15938
2.78113
1.8769
1.53613
1.56539
1.59774
1.56539
1.53613
1.8769
2.78113
3.15939
3.17548
3.11181
3.05349
3.01933
3.00481
3.00043
2.99967
2.99976
2.9999
2.99997
2.99999
3
3
3
3
3
3
3
3
3
3
3
3
3
3.00259
3.01263
3.03947
3.09005
3.15811
3.20319
3.10155
2.58792
1.8769
1.61752
1.57961
1.61752
1.8769
2.58793
3.10155
3.2032
3.15813
3.09013
3.03968
3.013
3.00266
2.99992
2.99963
2.99979
2.99992
2.99997
2.99999
3
3
3
3
3
3
3
3
3
3
3
3
3
3.0004
3.00646
3.02431
3.06196
3.12114
3.18582
3.20972
3.10155
2.78113
2.42726
2.29494
2.42726
2.78113
3.10155
3.20972
3.18582
3.12116
3.06202
3.02448
3.00682
3.00082
2.99958
2.99964
2.99983
2.99994
2.99998
3
3
3
3
3
3
3
3
3
3
3
3
3
3
2.99921
3.00205
3.0117
3.03495
3.07689
3.13338
3.18582
3.2032
3.15939
3.07723
3.03557
3.07723
3.15939
3.2032
3.18582
3.13338
3.0769
3.03499
3.01181
3.00234
2.99973
2.99949
2.99971
2.99988
2.99996
2.99999
3
3.00001
3.00001
3.00001
3.00001
3.00001
3.00001
3.00001
3.00001
3
3
3
3
3
2.99894
2.99983
3.0038
3.01529
3.03929
3.0769
3.12116
3.15813
3.17548
3.17463
3.17121
3.17463
3.17548
3.15813
3.12116
3.0769
3.0393
3.01532
3.00387
3.00002
2.99937
2.99957
2.9998
2.99993
2.99998
3.00001
3.00002
3.00003
3.00003
3.00004
3.00004
3.00004
3.00003
3.00003
3.00002
3.00001
3.00001
3
3
3
2.99917
2.9992
3.00023
3.00451
3.01531
3.03499
3.06202
3.09013
3.11181
3.12357
3.12698
3.12357
3.11181
3.09013
3.06202
3.03499
3.01532
3.00452
3.00027
2.99932
2.99945
2.99972
2.99989
2.99997
3.00001
3.00003
3.00006
3.00007
3.00008
3.00009
3.00009
3.00009
3.00008
3.00007
3.00006
3.00004
3.00002
3.00001
3.00001
3
2.9995
2.99932
2.99928
3.00027
3.00387
3.01181
3.02448
3.03968
3.05349
3.0626
3.06571
3.0626
3.05349
3.03968
3.02448
3.01181
3.00387
3.00027
2.9993
2.99938
2.99966
2.99985
2.99996
3.00002
3.00006
3.0001
3.00013
3.00015
3.00015
3.00014
3.00013
3.00014
3.00015
3.00015
3.00013
3.0001
3.00006
3.00004
3.00002
3.00001
2.99975
2.9996
2.99937
2.99932
3.00002
3.00234
3.00682
3.013
3.01933
3.02394
3.0256
3.02394
3.01933
3.013
3.00682
3.00234
3.00002
2.99932
2.99938
2.99963
2.99983
2.99995
3.00002
3.00008
3.00015
3.0002
3.00021
3.00014
3.00002
2.99989
2.99984
2.99989
3.00002
3.00014
3.00021
3.0002
3.00015
3.00009
3.00005
3.00003
2.99989
2.99981
2.99965
2.99945
2.99937
2.99973
3.00082
3.00266
3.00481
3.00651
3.00715
3.00651
3.00481
3.00266
3.00082
2.99973
2.99937
2.99945
2.99966
2.99983
2.99995
3.00003
3.0001
3.00019
3.00026
3.00022
2.99997
2.99944
2.99877
2.99819
2.99797
2.99819
2.99877
2.99944
2.99997
3.00023
3.00026
3.0002
3.00012
3.00008
2.99996
2.99993
2.99985
2.99972
2.99957
2.99949
2.99958
2.99992
3.00043
3.00087
3.00105
3.00087
3.00043
2.99992
2.99958
2.99949
2.99957
2.99972
2.99985
2.99995
3.00003
3.00011
3.00022
3.0003
3.0002
2.99961
2.99824
2.9961
2.99371
2.99185
2.99116
2.99185
2.99371
2.9961
2.99824
2.99961
3.0002
3.00031
3.00024
3.00018
2.99999
2.99997
2.99994
2.99988
2.9998
2.99971
2.99964
2.99963
2.99967
2.99974
2.99977
2.99974
2.99967
2.99963
2.99964
2.99971
2.9998
2.99989
2.99996
3.00002
3.0001
3.00022
3.00032
3.00016
2.99921
2.99668
2.99203
2.98575
2.97954
2.97524
2.97375
2.97524
2.97954
2.98575
2.99203
2.99668
2.99922
3.00018
3.00037
3.00034
3
2.99999
2.99998
2.99996
2.99993
2.99988
2.99983
2.99979
2.99976
2.99975
2.99975
2.99975
2.99976
2.99979
2.99983
2.99988
2.99993
2.99997
3.00002
3.00008
3.00019
3.0003
3.00016
2.99904
2.99555
2.98806
2.97627
2.96276
2.95189
2.946
2.94431
2.946
2.95189
2.96276
2.97627
2.98806
2.99556
2.99908
3.00025
3.0005
3
3
2.99999
2.99999
2.99998
2.99996
2.99994
2.99992
2.9999
2.99989
2.99988
2.99989
2.9999
2.99992
2.99994
2.99996
2.99998
3.00001
3.00006
3.00015
3.00026
3.0002
2.99921
2.99555
2.98638
2.96964
2.94783
2.92953
2.92219
2.92358
2.92538
2.92358
2.92219
2.92953
2.94783
2.96964
2.9864
2.99561
2.99936
3.00046
3
3
3
3
2.99999
2.99999
2.99998
2.99997
2.99997
2.99996
2.99996
2.99996
2.99997
2.99997
2.99998
2.99999
3.00001
3.00003
3.0001
3.0002
3.00022
2.99961
2.99668
2.98806
2.96964
2.94185
2.9167
2.91256
2.93325
2.96063
2.97255
2.96063
2.93325
2.91256
2.9167
2.94186
2.96968
2.98816
2.99688
2.99983
3
3
3
3
3
3
2.99999
2.99999
2.99999
2.99999
2.99999
2.99999
2.99999
2.99999
3
3
3.00002
3.00006
3.00013
3.00021
2.99997
2.99824
2.99203
2.97627
2.94783
2.9167
2.91145
2.95434
3.03054
3.09911
3.12561
3.09911
3.03054
2.95434
2.91146
2.91672
2.94789
2.9764
2.99224
2.99821
3
3
3
3
3
3
3
3
3
3
3
3
3
3
3
3.00001
3.00003
3.00007
3.00015
3.00014
2.99944
2.9961
2.98575
2.96276
2.92953
2.91256
2.95434
3.06541
3.20503
3.31538
3.35598
3.31538
3.20503
3.06542
2.95434
2.91258
2.9296
2.96291
2.98589
2.99554
3
3
3
3
3
3
3
3
3
3
3
3
3
3
3
3.00001
3.00003
3.00008
3.00015
3.00002
2.99877
2.99371
2.97954
2.95189
2.92219
2.93325
3.03054
3.20503
3.39666
3.54008
3.59193
3.54008
3.39666
3.20503
3.03054
2.93328
2.92227
2.95204
2.97955
2.99246
3
3
3
3
3
3
3
3
3
3
3
3
3
3
3
3.00001
3.00004
3.00009
3.00014
2.99989
2.99819
2.99185
2.97524
2.946
2.92358
2.96063
3.09911
3.31538
3.54008
3.70537
3.76515
3.70537
3.54008
3.31539
3.09912
2.96067
2.92367
2.94613
2.97513
2.99003
3
3
3
3
3
3
3
3
3
3
3
3
3
3
3
3.00001
3.00004
3.00009
3.00013
2.99984
2.99797
2.99116
2.97375
2.94431
2.92538
2.97255
3.12561
3.35598
3.59193
3.76515
3.82799
3.76515
3.59193
3.35598
3.12562
2.97258
2.92547
2.94444
2.97358
2.98911
3
3
3
3
3
3
3
3
3
3
3
3
3
3
3
3.00001
3.00004
3.00009
3.00014
2.99989
2.99819
2.99185
2.97524
2.946
2.92358
2.96063
3.09911
3.31538
3.54008
3.70537
3.76515
3.70537
3.54008
3.31539
3.09912
2.96067
2.92367
2.94613
2.97513
2.99003
3
3
3
3
3
3
3
3
3
3
3
3
3
3
3
3.00001
3.00003
3.00008
3.00015
3.00002
2.99877
2.99371
2.97954
2.95189
2.92219
2.93325
3.03054
3.20503
3.39666
3.54008
3.59193
3.54008
3.39666
3.20503
3.03054
2.93328
2.92227
2.95204
2.97955
2.99246
3
3
3
3
3
3
3
3
3
3
3
3
3
3
3
3.00001
3.00003
3.00007
3.00015
3.00014
2.99944
2.9961
2.98575
2.96276
2.92953
2.91256
2.95434
3.06542
3.20503
3.31539
3.35598
3.31539
3.20503
3.06542
2.95435
2.91258
2.9296
2.96291
2.98589
2.99554
3
3
3
3
3
3
3
3
3
3
3
3
3
3
3
3.00001
3.00002
3.00006
3.00013
3.00021
2.99997
2.99824
2.99203
2.97627
2.94783
2.9167
2.91146
2.95434
3.03054
3.09912
3.12562
3.09912
3.03054
2.95435
2.91146
2.91672
2.94789
2.9764
2.99224
2.99821
3
3
3
3
3
3
3
3
3
3
3
3
3
3
3
3
3.00001
3.00004
3.0001
3.0002
3.00023
2.99961
2.99668
2.98806
2.96964
2.94186
2.91672
2.91258
2.93328
2.96067
2.97258
2.96067
2.93328
2.91258
2.91672
2.94187
2.96968
2.98816
2.99689
2.99983
3
3
3
3
3
3
3
3
3
3
3
3
3
3
3
3
3.00001
3.00002
3.00006
3.00015
3.00026
3.0002
2.99922
2.99556
2.9864
2.96968
2.94789
2.9296
2.92227
2.92367
2.92547
2.92367
2.92227
2.9296
2.94789
2.96968
2.98643
2.99562
2.99937
3.00046
3
3
3
3
3
3
3
3
3
3
3
3
3
3
3
3
3
3.00001
3.00004
3.00009
3.0002
3.00031
3.00018
2.99908
2.99561
2.98816
2.9764
2.96291
2.95204
2.94613
2.94444
2.94613
2.95204
2.96291
2.9764
2.98816
2.99562
2.99911
3.00027
3.00051
3
3
3
3
3
3
3
3
3
3
3
3
3
3
3
3
3
3.00001
3.00002
3.00005
3.00012
3.00024
3.00037
3.00025
2.99936
2.99688
2.99224
2.98589
2.97955
2.97513
2.97358
2.97513
2.97955
2.98589
2.99224
2.99689
2.99937
3.00027
3.00042
3.00037
3
3
3
3
3
3
3
3
3
3
3
3
3
3
3
3
3
3
3.00001
3.00003
3.00008
3.00018
3.00034
3.0005
3.00046
2.99983
2.99821
2.99554
2.99246
2.99003
2.98911
2.99003
2.99246
2.99554
2.99821
2.99983
3.00046
3.00051
3.00037
3.00026
