# vtk DataFile Version 3.0
Brusselator Concentration Output
ASCII
DATASET STRUCTURED_POINTS
DIMENSIONS 40 40 1
ORIGIN 0.0 0.0 0.0
SPACING 0.005 0.005 1.0
POINT_DATA 1600
SCALARS C1 double 1
LOOKUP_TABLE default
1
1
1
1
1
1
1
1
1
1
1
1
1
1
1
1
1
1
1
1
1
1
1
1
1
1
1
1
1
1
1
1
1
1
1
1
1
1
1
1
1
1
1
1
1
1
1
1.00001
1.00001
1.00002
1.00003
1.00002
1.00001
1.00001
1
1
1
1
1
1
1
1
1
1
1
1
1
1
1
1
1
1
1
1
1
1
1
1
1
1
1
1
1
1
1
1
1.00001
1.00003
1.00008
1.00014
1.00017
1.00014
1.00008
1.00003
1.00001
1
1
1
1
1
1
1
1
1
1
1
1
1
1
1
1
1
1
1
1
1
1
1
1
1
1
1
1
1
1
1.00002
1.00007
1.00019
1.00044
1.00074
1.00087
1.00074
1.00044
1.00019
1.00007
1.00002
1
1
1
1
1
1
1
1
1
1
1
1
1
1
1
1
1
1
1
1
1
1
1
1
1
1
1
1
1.00002
1.00009
1.00032
1.00091
1.00199
1.00321
1.0037
1.00321
1.00199
1.00091
1.00032
1.00009
1.00002
1
1
1
1
1
1
1
1
1
1
1
1
1
1
1
1
1
1
1
1
1
1
1
1
1
1
1.00002
1.00009
1.00037
1.00129
1.00356
1.00738
1.01101
1.01206
1.01101
1.00738
1.00356
1.00129
1.00037
1.00009
1.00002
1
1
1
1
1
1
1
1
1
1
1
1
1
1
1
1
1
1
1
1
1
1
1
1
1.00001
1.00007
1.00032
1.00129
1.0043
1.01108
1.02066
1.02644
1.02587
1.02644
1.02066
1.01108
1.0043
1.00129
1.00032
1.00007
1.00001
1
1
1
1
1
1
1
1
1
1
1
1
1
1
1
1
1
1
1
1
1
1
1.00001
1.00003
1.00019
1.00091
1.00356
1.01108
1.02538
1.03774
1.03061
1.01768
1.03061
1.03774
1.02538
1.01108
1.00356
1.00091
1.00019
1.00003
1.00001
1
1
1
1
1
1
1
1
1
1
1
1
1
1
1
1
1
1
1
1
1
1.00001
1.00008
1.00044
1.00199
1.00738
1.02066
1.03774
1.02782
0.969051
0.928875
0.969051
1.02782
1.03774
1.02066
1.00738
1.00199
1.00044
1.00008
1.00001
1
1
1
1
1
1
1
1
1
1
1
1
1
1
1
1
1
1
1
1
1
1.00002
1.00014
1.00074
1.00321
1.01101
1.02644
1.03061
0.969051
0.845599
0.782863
0.845599
0.969051
1.03061
1.02644
1.01101
1.00321
1.00074
1.00014
1.00002
1
1
1
1
1
1
1
1
1
1
1
1
1
1
1
1
1
1
1
1
1
1.00003
1.00017
1.00087
1.0037
1.01206
1.02587
1.01768
0.928875
0.782863
0.71296
0.782863
0.928875
1.01768
1.02587
1.01206
1.0037
1.00087
1.00017
1.00003
1
1
1
1
1
1
1
1
1
1
1
1
1
1
1
1
1
1
1
1
1
1.00002
1.00014
1.00074
1.00321
1.01101
1.02644
1.03061
0.969051
0.845599
0.782863
0.845599
0.969051
1.03061
1.02644
1.01101
1.00321
1.00074
1.00014
1.00002
1
1
1
1
1
1
1
1
1
1
1
1
1
1
1
1
1
1
1
1
1
1.00001
1.00008
1.00044
1.00199
1.00738
1.02066
1.03774
1.02782
0.969051
0.928875
0.969051
1.02782
1.03774
1.02066
1.00738
1.00199
1.00044
1.00008
1.00001
1
1
1
1
1
1
1
1
1
1
1
1
1
1
1
1
1
1
1
1
1
1.00001
1.00003
1.00019
1.00091
1.00356
1.01108
1.02538
1.03774
1.03061
1.01768
1.03061
1.03774
1.02538
1.01108
1.00356
1.00091
1.00019
1.00003
1.00001
1
1
1
1
1
1
1
1
1
1
1
1
1
1
1
1
1
1
1
1
1
1
1.00001
1.00007
1.00032
1.00129
1.0043
1.01108
1.02066
1.02644
1.02587
1.02644
1.02066
1.01108
1.0043
1.00129
1.00032
1.00007
1.00001
1
1
1
1
1
1
1
1
1
1
1
1
1
1
1
1
1
1
1
1
1
1
1
1
1.00002
1.00009
1.00037
1.00129
1.00356
1.00738
1.01101
1.01206
1.01101
1.00738
1.00356
1.00129
1.00037
1.00009
1.00002
1
1
1
1
1
1
1
1
1
1
1
1
1
1
1
1
1
1
1
1
1
1
1
1
1
1
1.00002
1.00009
1.00032
1.00091
1.00199
1.00321
1.0037
1.00321
1.00199
1.00091
1.00032
1.00009
1.00002
1
1
1
1
1
1
1
1
1
1
1
1
1
1
1
1
1
1
1
1
1
1
1
1
1
1
1
1
1.00002
1.00007
1.00019
1.00044
1.00074
1.00087
1.00074
1.00044
1.00019
1.00007
1.00002
1
1
1
1
1
1
1
1
1
1
1
1
1
1
1
1
1
1
1
1
1
1
1
1
1
1
1
1
1
1
1.00001
1.00003
1.00008
1.00014
1.00017
1.00014
1.00008
1.00003
1.00001
1
1
1
1
1
1
1
1
1
1
1
1
1
1
1
1
1
1
1
1
1
1
1
1
1
1
1
1
1
1
1
1
1.00001
1.00001
1.00002
1.00003
1.00002
1.00001
1.00001
1
1
1
1
1
1
1
1
1
1
1
1
1
1
1
1
1
1
1
1
1
1
1
1
1
1
1
1
1
1
1
1
1
1
1
1
1
1
1
1
1
1
1
1
1
1
1
1
1
1
1
1
1
1
0.999999
0.999999
0.999999
0.999999
0.999999
1
1
1
1
1
1
1
1
1
1
1
1
1
1
1
1
1
1
1
1
1
1
1
1
1
1
1
1
1
1
1
1
1
0.999999
0.999998
0.999996
0.999993
0.999992
0.999993
0.999996
0.999998
0.999999
1
1
1
1
1
1
1
1
1
1
1
1
1
1
1
1
1
1
1
1
1
1
1
1
1
1
1
1
1
1
0.999999
0.999997
0.99999
0.999976
0.999959
0.999951
0.999959
0.999976
0.99999
0.999997
0.999999
1
1
1
1
1
1
1
1
1
1
1
1
1
1
1
1
1
1
1
1
1
1
1
1
1
1
1
1
0.999999
0.999995
0.999981
0.999945
0.999874
0.999789
0.999747
0.999789
0.999874
0.999945
0.999981
0.999995
0.999999
1
1
1
1
1
1
1
1
1
1
1
1
1
1
1
1
1
1
1
1
1
1
1
1
1
1
0.999999
0.999994
0.999974
0.999909
0.999742
0.999431
0.99907
0.998909
0.99907
0.999431
0.999742
0.999909
0.999974
0.999994
0.999999
1
1
1
1
1
1
1
1
1
1
1
1
1
1
1
1
1
1
1
1
1
1
1
1
0.999999
0.999995
0.999974
0.999893
0.999633
0.998991
0.997865
0.996662
0.996196
0.996662
0.997865
0.998991
0.999633
0.999893
0.999974
0.999995
0.999999
1
1
1
1
1
1
1
1
1
1
1
1
1
1
1
1
1
1
1
1
1
1
0.999999
0.999997
0.999981
0.999909
0.999633
0.998782
0.996799
0.993621
0.990729
0.989986
0.990729
0.993621
0.996799
0.998782
0.999633
0.999909
0.999981
0.999997
0.999999
1
1
1
1
1
1
1
1
1
1
1
1
1
1
1
1
1
1
1
1
1
0.999998
0.99999
0.999945
0.999742
0.998991
0.996799
0.992114
0.985715
0.981988
0.982971
0.981988
0.985715
0.992114
0.996799
0.998991
0.999742
0.999945
0.99999
0.999998
1
1
1
1
1
1
1
1
1
1
1
1
1
1
1
1
1
1
1
1
0.999999
0.999996
0.999976
0.999874
0.999431
0.997865
0.993621
0.985715
0.978344
0.982061
0.993294
0.982061
0.978344
0.985715
0.993621
0.997865
0.999431
0.999874
0.999976
0.999996
1
1
1
1
1
1
1
1
1
1
1
1
1
1
1
1
1
1
1
1
0.999999
0.999993
0.999959
0.999789
0.99907
0.996662
0.990729
0.981988
0.982061
1.01215
1.05188
1.01215
0.982061
0.981988
0.990729
0.996662
0.99907
0.999789
0.999959
0.999992
1
1
1
1
1
1
1
1
1
1
1
1
1
1
1
1
1
1
1
1
0.999999
0.999992
0.999951
0.999747
0.998909
0.996196
0.989986
0.982971
0.993294
1.05188
1.12191
1.05188
0.993294
0.982971
0.989986
0.996196
0.998909
0.999747
0.999951
0.99999
1
1
1
1
1
1
1
1
1
1
1
1
1
1
1
1
1
1
1
1
0.999999
0.999993
0.999959
0.999789
0.99907
0.996662
0.990729
0.981988
0.982061
1.01215
1.05188
1.01215
0.982061
0.981988
0.990729
0.996662
0.99907
0.999789
0.999959
0.999992
1
1
1
1
1
1
1
1
1
1
1
1
1
1
1
1
1
1
1
1
0.999999
0.999996
0.999976
0.999874
0.999431
0.997865
0.993621
0.985715
0.978344
0.982061
0.993294
0.982061
0.978344
0.985715
0.993621
0.997865
0.999431
0.999874
0.999976
0.999996
1
1
1
1
1
1
1
1
1
1
1
1
1
1
1
1
1
1
1
1
1
0.999998
0.99999
0.999945
0.999742
0.998991
0.996799
0.992114
0.985715
0.981988
0.982971
0.981988
0.985715
0.992114
0.996799
0.998991
0.999742
0.999945
0.99999
0.999998
1
1
1
1
1
1
1
1
1
1
1
1
1
1
1
1
1
1
1
1
1
0.999999
0.999997
0.999981
0.999909
0.999633
0.998782
0.996799
0.993621
0.990729
0.989986
0.990729
0.993621
0.996799
0.998782
0.999633
0.999909
0.999981
0.999997
0.999999
1
1
1
1
1
1
1
1
1
1
1
1
1
1
1
1
1
1
1
1
1
1
0.999999
0.999995
0.999974
0.999893
0.999633
0.998991
0.997865
0.996662
0.996196
0.996662
0.997865
0.998991
0.999633
0.999893
0.999974
0.999995
0.999999
1
1
1
1
1
1
1
1
1
1
1
1
1
1
1
1
1
1
1
1
1
1
1
1
0.999999
0.999994
0.999974
0.999909
0.999742
0.999431
0.99907
0.998909
0.99907
0.999431
0.999742
0.999909
0.999974
0.999994
0.999999
1
1
1
1
1
1
1
1
1
1
1
1
1
1
1
1
1
1
1
1
1
1
1
1
1
1
0.999999
0.999995
0.999981
0.999945
0.999874
0.999789
0.999747
0.999789
0.999874
0.999945
0.999981
0.999995
0.999999
1
1
1
1
1
1
1
1
1
1
1
1
1
1
1
1
1
1
1
1
1
1
1
1
1
1
1
1
0.999999
0.999997
0.99999
0.999976
0.999959
0.999951
0.999959
0.999976
0.99999
0.999997
0.999999
1
1
1
1
1
1
1
1
1
1
1
1
1
1
1
1
1
1
1
1
1
1
1
1
1
1
1
1
1
1
0.999999
0.999998
0.999996
0.999992
0.99999
0.999992
0.999996
0.999998
0.999999
1
1
1
1
1
SCALARS C2 double 1
LOOKUP_TABLE default
3
3
3
3
3
3
3
3
3
3
3
3
3
3
3
3
3
3
3
3
3
3
3
3
3
3
3
3
3
3
3
3
3
3
3
3
3
3
3
3
3
3
3
3
3
3
3
3
2.99999
2.99998
2.99998
2.99998
2.99999
3
3
3
3
3
3
3
3
3
3
3
3
3
3
3
3
3
3
3
3
3
3
3
3
3
3
3
3
3
3
3
3
3
2.99999
2.99997
2.99994
2.99988
2.99985
2.99988
2.99994
2.99997
2.99999
3
3
3
3
3
3
3
3
3
3
3
3
3
3
3
3
3
3
3
3
3
3
3
3
3
3
3
3
3
3
2.99999
2.99995
2.99985
2.99962
2.99931
2.99915
2.99931
2.99962
2.99985
2.99995
2.99999
3
3
3
3
3
3
3
3
3
3
3
3
3
3
3
3
3
3
3
3
3
3
3
3
3
3
3
3
2.99999
2.99993
2.99975
2.9992
2.99806
2.99656
2.99582
2.99656
2.99806
2.9992
2.99975
2.99993
2.99999
3
3
3
3
3
3
3
3
3
3
3
3
3
3
3
3
3
3
3
3
3
3
3
3
3
3
2.99999
2.99993
2.9997
2.99885
2.99646
2.99164
2.98577
2.98323
2.98577
2.99164
2.99646
2.99885
2.9997
2.99993
2.99999
3
3
3
3
3
3
3
3
3
3
3
3
3
3
3
3
3
3
3
3
3
3
3
3
2.99999
2.99995
2.99975
2.99885
2.99569
2.98714
2.97118
2.95443
2.94936
2.95443
2.97118
2.98714
2.99569
2.99885
2.99975
2.99995
2.99999
3
3
3
3
3
3
3
3
3
3
3
3
3
3
3
3
3
3
3
3
3
3
3
2.99997
2.99985
2.9992
2.99646
2.98714
2.9637
2.92631
2.90009
2.90232
2.90009
2.92631
2.9637
2.98714
2.99646
2.9992
2.99985
2.99997
3
3
3
3
3
3
3
3
3
3
3
3
3
3
3
3
3
3
3
3
3
3
2.99999
2.99994
2.99962
2.99806
2.99164
2.97118
2.92631
2.8768
2.88273
2.92517
2.88273
2.8768
2.92631
2.97118
2.99164
2.99806
2.99962
2.99994
2.99999
3
3
3
3
3
3
3
3
3
3
3
3
3
3
3
3
3
3
3
3
3
2.99998
2.99988
2.99931
2.99656
2.98577
2.95443
2.90009
2.88273
2.97748
3.08386
2.97748
2.88273
2.90009
2.95443
2.98577
2.99656
2.99931
2.99988
2.99998
3
3
3
3
3
3
3
3
3
3
3
3
3
3
3
3
3
3
3
3
3
2.99998
2.99985
2.99915
2.99582
2.98323
2.94936
2.90232
2.92517
3.08386
3.22201
3.08386
2.92517
2.90232
2.94936
2.98323
2.99582
2.99915
2.99985
2.99998
3
3
3
3
3
3
3
3
3
3
3
3
3
3
3
3
3
3
3
3
3
2.99998
2.99988
2.99931
2.99656
2.98577
2.95443
2.90009
2.88273
2.97748
3.08386
2.97748
2.88273
2.90009
2.95443
2.98577
2.99656
2.99931
2.99988
2.99998
3
3
3
3
3
3
3
3
3
3
3
3
3
3
3
3
3
3
3
3
3
2.99999
2.99994
2.99962
2.99806
2.99164
2.97118
2.92631
2.8768
2.88273
2.92517
2.88273
2.8768
2.92631
2.97118
2.99164
2.99806
2.99962
2.99994
2.99999
3
3
3
3
3
3
3
3
3
3
3
3
3
3
3
3
3
3
3
3
3
3
2.99997
2.99985
2.9992
2.99646
2.98714
2.9637
2.92631
2.90009
2.90232
2.90009
2.92631
2.9637
2.98714
2.99646
2.9992
2.99985
2.99997
3
3
3
3
3
3
3
3
3
3
3
3
3
3
3
3
3
3
3
3
3
3
3
2.99999
2.99995
2.99975
2.99885
2.99569
2.98714
2.97118
2.95443
2.94936
2.95443
2.97118
2.98714
2.99569
2.99885
2.99975
2.99995
2.99999
3
3
3
3
3
3
3
3
3
3
3
3
3
3
3
3
3
3
3
3
3
3
3
3
2.99999
2.99993
2.9997
2.99885
2.99646
2.99164
2.98577
2.98323
2.98577
2.99164
2.99646
2.99885
2.9997
2.99993
2.99999
3
3
3
3
3
3
3
3
3
3
3
3
3
3
3
3
3
3
3
3
3
3
3
3
3
3
2.99999
2.99993
2.99975
2.9992
2.99806
2.99656
2.99582
2.99656
2.99806
2.9992
2.99975
2.99993
2.99999
3
3
3
3
3
3
3
3
3
3
3
3
3
3
3
3
3
3
3
3
3
3
3
3
3
3
3
3
2.99999
2.99995
2.99985
2.99962
2.99931
2.99915
2.99931
2.99962
2.99985
2.99995
2.99999
3
3
3
3
3
3
3
3
3
3
3
3
3
3
3
3
3
3
3
3
3
3
3
3
3
3
3
3
3
3
2.99999
2.99997
2.99994
2.99988
2.99985
2.99988
2.99994
2.99997
2.99999
3
3
3
3
3
3
3
3
3
3
3
3
3
3
3
3
3
3
3
3
3
3
3
3
3
3
3
3
3
3
3
3
3
2.99999
2.99998
2.99998
2.99998
2.99999
3
3
3
3
3
3
3
3
3
3
3
3
3
3
3
3
3
3
3
3
3
3
3
3
3
3
3
3
3
3
3
3
3
3
3
3
3
3
3
3
3
3
3
3
3
3
3
3
3
3
3
3
3
3
3
3
3
3
3
3
3
3
3
3
3
3
3
3
3
3
3
3
3
3
3
3
3
3
3
3
3
3
3
3
3
3
3
3
3
3
3
3
3
3
3
3
3.00001
3.00001
3.00001
3
3
3
3
3
3
3
3
3
3
3
3
3
3
3
3
3
3
3
3
3
3
3
3
3
3
3
3
3
3
3
3
3
3
3
3.00001
3.00002
3.00003
3.00004
3.00003
3.00002
3.00001
3
3
3
3
3
3
3
3
3
3
3
3
3
3
3
3
3
3
3
3
3
3
3
3
3
3
3
3
3
3
3
3
3.00001
3.00004
3.00011
3.0002
3.00025
3.0002
3.00011
3.00004
3.00001
3
3
3
3
3
3
3
3
3
3
3
3
3
3
3
3
3
3
3
3
3
3
3
3
3
3
3
3
3
3
3.00002
3.00007
3.00023
3.00056
3.00099
3.00122
3.00099
3.00056
3.00023
3.00007
3.00002
3
3
3
3
3
3
3
3
3
3
3
3
3
3
3
3
3
3
3
3
3
3
3
3
3
3
3
3
3.00002
3.00009
3.00033
3.00101
3.00238
3.00414
3.00502
3.00414
3.00238
3.00101
3.00033
3.00009
3.00002
3
3
3
3
3
3
3
3
3
3
3
3
3
3
3
3
3
3
3
3
3
3
3
3
3
3
3.00001
3.00007
3.00033
3.00122
3.00364
3.00838
3.01413
3.01669
3.01413
3.00838
3.00364
3.00122
3.00033
3.00007
3.00001
3
3
3
3
3
3
3
3
3
3
3
3
3
3
3
3
3
3
3
3
3
3
3
3
3.00001
3.00004
3.00023
3.00101
3.00364
3.01054
3.02332
3.03745
3.04247
3.03745
3.02332
3.01054
3.00364
3.00101
3.00023
3.00004
3.00001
3
3
3
3
3
3
3
3
3
3
3
3
3
3
3
3
3
3
3
3
3
3
3
3.00002
3.00011
3.00056
3.00238
3.00838
3.02332
3.0488
3.07226
3.07497
3.07226
3.0488
3.02332
3.00838
3.00238
3.00056
3.00011
3.00002
3
3
3
3
3
3
3
3
3
3
3
3
3
3
3
3
3
3
3
3
3
3
3.00001
3.00003
3.0002
3.00099
3.00414
3.01413
3.03745
3.07226
3.09017
3.06958
3.09017
3.07226
3.03745
3.01413
3.00414
3.00099
3.0002
3.00003
3.00001
3
3
3
3
3
3
3
3
3
3
3
3
3
3
3
3
3
3
3
3
3
3.00001
3.00004
3.00025
3.00122
3.00502
3.01669
3.04247
3.07497
3.06958
3.01019
3.06958
3.07497
3.04247
3.01669
3.00502
3.00122
3.00025
3.00004
3.00001
3
3
3
3
3
3
3
3
3
3
3
3
3
3
3
3
3
3
3
3
3
3.00001
3.00003
3.0002
3.00099
3.00414
3.01413
3.03745
3.07226
3.09017
3.06958
3.09017
3.07226
3.03745
3.01413
3.00414
3.00099
3.0002
3.00003
3.00001
3
3
3
3
3
3
3
3
3
3
3
3
3
3
3
3
3
3
3
3
3
3
3.00002
3.00011
3.00056
3.00238
3.00838
3.02332
3.0488
3.07226
3.07497
3.07226
3.0488
3.02332
3.00838
3.00238
3.00056
3.00011
3.00002
3
3
3
3
3
3
3
3
3
3
3
3
3
3
3
3
3
3
3
3
3
3
3
3.00001
3.00004
3.00023
3.00101
3.00364
3.01054
3.02332
3.03745
3.04247
3.03745
3.02332
3.01054
3.00364
3.00101
3.00023
3.00004
3.00001
3
3
3
3
3
3
3
3
3
3
3
3
3
3
3
3
3
3
3
3
3
3
3
3
3.00001
3.00007
3.00033
3.00122
3.00364
3.00838
3.01413
3.01669
3.01413
3.00838
3.00364
3.00122
3.00033
3.00007
3.00001
3
3
3
3
3
3
3
3
3
3
3
3
3
3
3
3
3
3
3
3
3
3
3
3
3
3
3.00002
3.00009
3.00033
3.00101
3.00238
3.00414
3.00502
3.00414
3.00238
3.00101
3.00033
3.00009
3.00002
3
3
3
3
3
3
3
3
3
3
3
3
3
3
3
3
3
3
3
3
3
3
3
3
3
3
3
3
3.00002
3.00007
3.00023
3.00056
3.00099
3.00122
3.00099
3.00056
3.00023
3.00007
3.00002
3
3
3
3
3
3
3
3
3
3
3
3
3
3
3
3
3
3
3
3
3
3
3
3
3
3
3
3
3
3
3.00001
3.00004
3.00011
3.0002
3.00025
3.0002
3.00011
3.00004
3.00001
3
3
3
3
3
3
3
3
3
3
3
3
3
3
3
3
3
3
3
3
3
3
3
3
3
3
3
3
3
3
3
3
3.00001
3.00002
3.00003
3.00004
3.00003
3.00002
3.00001
3
3
3
3
3
3
3
3
3
3
3
3
3
3
3
3
3
3
3
3
3
3
3
3
3
3
3
3
3
3
3
3
3
3
3
3.00001
3.00001
3.00001
3
3
3
3
3
3
3
3
