# vtk DataFile Version 3.0
Brusselator Concentration Output
ASCII
DATASET STRUCTURED_POINTS
DIMENSIONS 40 40 1
ORIGIN 0.0 0.0 0.0
SPACING 0.005 0.005 1.0
POINT_DATA 1600
SCALARS C1 double 1
LOOKUP_TABLE default
1.12928
1.10199
1.0281
0.910605
0.781848
0.672495
0.594333
0.544731
0.516162
0.501834
0.497524
0.501836
0.516171
0.54476
0.5944
0.672564
0.781502
0.908078
1.01856
1.07624
1.07666
1.04991
1.02428
1.00902
1.00224
0.999999
0.999589
0.999695
0.999846
0.999938
0.999979
0.999994
0.999999
1
1
1
1
1
1
1
1.10199
1.04027
0.933615
0.812409
0.704408
0.623275
0.569679
0.537812
0.520721
0.512796
0.510548
0.512799
0.52073
0.537836
0.569722
0.623251
0.703747
0.808952
0.921929
1.01197
1.05361
1.05112
1.03123
1.0141
1.00473
1.00094
0.999856
0.999736
0.999835
0.999925
0.999972
0.999992
0.999998
1
1
1
1
1
1
1
1.0281
0.933615
0.802951
0.688955
0.609798
0.562625
0.538778
0.529902
0.529158
0.531182
0.532307
0.531184
0.529165
0.529918
0.538787
0.562477
0.608756
0.684495
0.789447
0.906414
0.999982
1.04158
1.03939
1.02272
1.00955
1.00293
1.00048
0.999861
0.999829
0.999904
0.99996
0.999986
0.999996
0.999999
1
1
1
1
1
1
0.910605
0.812409
0.688955
0.597752
0.547774
0.528469
0.528949
0.541098
0.557998
0.572577
0.578374
0.572579
0.558005
0.541106
0.528925
0.528214
0.546462
0.592845
0.675894
0.793708
0.919998
1.00964
1.03963
1.03148
1.01601
1.00598
1.00156
1.00013
0.999856
0.999884
0.999944
0.999979
0.999993
0.999998
1
1
1
1
1
1
0.781848
0.704408
0.609798
0.547774
0.523875
0.527992
0.551871
0.590121
0.636236
0.677419
0.69463
0.677422
0.636242
0.590122
0.551814
0.527637
0.522373
0.542926
0.599285
0.699133
0.831992
0.956326
1.02518
1.03601
1.02268
1.00984
1.00312
1.00061
0.999944
0.999877
0.999928
0.99997
0.99999
0.999997
0.999999
1
1
1
1
1
0.672495
0.623275
0.562625
0.528469
0.527992
0.556805
0.614582
0.707922
0.843959
0.99485
1.0661
0.994857
0.843968
0.707914
0.614477
0.556322
0.526302
0.523923
0.555583
0.631616
0.753747
0.893726
0.996634
1.03329
1.02779
1.01395
1.00506
1.00127
1.0001
0.999891
0.999916
0.999961
0.999986
0.999996
0.999999
1
1
1
1
1
0.594333
0.569679
0.538778
0.528949
0.551871
0.614582
0.742125
1.01345
1.56817
2.25038
2.53951
2.2504
1.5682
1.01342
0.741928
0.613904
0.549936
0.524746
0.535157
0.588942
0.693819
0.834875
0.960803
1.02356
1.03016
1.0176
1.0071
1.00206
1.00033
0.999928
0.999911
0.999954
0.999983
0.999995
0.999999
1
1
1
1
1
0.544731
0.537812
0.529902
0.541098
0.590121
0.707922
1.01345
1.94912
3.33234
3.51847
3.47423
3.51846
3.33234
1.94901
1.01304
0.706925
0.587851
0.537174
0.529169
0.564758
0.652757
0.787597
0.925876
1.00995
1.02983
1.02031
1.00896
1.00286
1.00058
0.999981
0.999914
0.99995
0.999981
0.999995
1
1
1
1
1
1
0.516162
0.520721
0.529158
0.557998
0.636236
0.843959
1.56817
3.33234
3.40122
3.14783
3.05495
3.14782
3.40119
3.33218
1.56728
0.842473
0.633554
0.554253
0.530596
0.552613
0.627367
0.754486
0.897924
0.99666
1.02793
1.02198
1.01041
1.00354
1.00081
1.00004
0.999924
0.999952
0.999984
0.999999
1
1
1
1
1
1
0.501834
0.512796
0.531182
0.572577
0.677419
0.99485
2.25038
3.51847
3.14783
2.86873
2.77459
2.86872
3.14779
3.51835
2.24898
0.992801
0.674355
0.568917
0.53398
0.547454
0.613916
0.735286
0.88026
0.987239
1.02597
1.0228
1.01132
1.004
1.00098
1.00009
0.999942
0.999964
0.999995
1.00001
1.00001
1.00001
1.00001
1.00001
1
1
0.497524
0.510548
0.532307
0.578374
0.69463
1.0661
2.53951
3.47423
3.05495
2.77459
2.6812
2.77458
3.05492
3.47411
2.53801
1.06378
0.691403
0.574737
0.53557
0.546099
0.609748
0.729038
0.874264
0.983869
1.02518
1.02305
1.01164
1.00418
1.00106
1.00012
0.99996
0.99998
1.00001
1.00003
1.00003
1.00003
1.00003
1.00002
1.00002
1.00001
0.501836
0.512799
0.531184
0.572579
0.677422
0.994857
2.2504
3.51846
3.14782
2.86872
2.77458
2.86872
3.14778
3.51835
2.249
0.992807
0.674358
0.56892
0.533983
0.547458
0.613924
0.735301
0.880284
0.987273
1.02601
1.02284
1.01135
1.00402
1.00099
1.00009
0.999931
0.999957
1
1.00003
1.00005
1.00005
1.00005
1.00005
1.00004
1.00004
0.516171
0.52073
0.529165
0.558005
0.636242
0.843968
1.5682
3.33234
3.40119
3.14779
3.05492
3.14778
3.40115
3.33218
1.56731
0.842482
0.633561
0.554259
0.530604
0.552627
0.627391
0.754526
0.89798
0.996723
1.02798
1.02199
1.01037
1.00343
1.00063
0.999809
0.999675
0.999721
0.999801
0.999884
0.999961
1.00002
1.00006
1.00008
1.00009
1.00008
0.54476
0.537836
0.529918
0.541106
0.590122
0.707914
1.01342
1.94901
3.33218
3.51835
3.47411
3.51835
3.33218
1.94889
1.01301
0.706916
0.587852
0.537183
0.529187
0.564792
0.652815
0.787676
0.92595
1.00996
1.02973
1.02001
1.00843
1.00208
0.999576
0.998828
0.998708
0.998797
0.998979
0.999215
0.999474
0.999718
0.999915
1.00005
1.00013
1.00016
0.5944
0.569722
0.538787
0.528925
0.551814
0.614477
0.741928
1.01304
1.56728
2.24898
2.53801
2.249
1.56731
1.01301
0.74173
0.613799
0.54988
0.524725
0.535171
0.589
0.69392
0.834965
0.960755
1.0232
1.02932
1.01615
1.00497
0.999282
0.997015
0.996268
0.996132
0.996295
0.996672
0.997225
0.997892
0.998586
0.999213
0.999701
1.00002
1.00017
0.672564
0.623251
0.562477
0.528214
0.527637
0.556322
0.613904
0.706925
0.842473
0.992801
1.06378
0.992807
0.842482
0.706916
0.613799
0.555841
0.525952
0.523677
0.555445
0.631592
0.753777
0.893587
0.995938
1.03162
1.02481
1.0095
0.999167
0.994134
0.992041
0.991272
0.991113
0.991342
0.991927
0.992875
0.994151
0.995632
0.997125
0.998417
0.999347
0.999826
0.781502
0.703747
0.608756
0.546462
0.522373
0.526302
0.549936
0.587851
0.633554
0.674355
0.691403
0.674358
0.633561
0.587852
0.54988
0.525952
0.520884
0.54164
0.598256
0.698383
0.831307
0.955082
1.02247
1.03103
1.01505
0.999632
0.990785
0.986817
0.985373
0.984996
0.984976
0.985089
0.985426
0.986232
0.987722
0.989908
0.992532
0.995133
0.997202
0.998342
0.908078
0.808952
0.684495
0.592845
0.542926
0.523923
0.524746
0.537174
0.554253
0.568917
0.574737
0.56892
0.554259
0.537183
0.524725
0.523677
0.54164
0.587979
0.671406
0.789897
0.916475
1.00507
1.03229
1.02027
1.00098
0.988228
0.982833
0.982195
0.983769
0.985594
0.986388
0.985693
0.983918
0.982091
0.981345
0.982376
0.985124
0.98881
0.992254
0.994319
1.01856
0.921929
0.789447
0.675894
0.599285
0.555583
0.535157
0.529169
0.530596
0.53398
0.53557
0.533983
0.530604
0.529187
0.535171
0.555445
0.598256
0.671406
0.77567
0.893809
0.98867
1.02948
1.02392
1.00309
0.987632
0.98282
0.987296
0.99778
1.01006
1.01973
1.02339
1.01982
1.01026
0.997965
0.986882
0.97995
0.978045
0.980026
0.983545
0.986106
1.07624
1.01197
0.906414
0.793708
0.699133
0.631616
0.588942
0.564758
0.552613
0.547454
0.546099
0.547458
0.552627
0.564792
0.589
0.631592
0.698383
0.789897
0.893809
0.982063
1.02641
1.02572
1.00528
0.989093
0.988013
1.00505
1.03888
1.08287
1.12575
1.15624
1.16718
1.15633
1.12597
1.08322
1.03907
1.00399
0.982802
0.97391
0.972395
0.973194
1.07666
1.05361
0.999982
0.919998
0.831992
0.753747
0.693819
0.652757
0.627367
0.613916
0.609748
0.613924
0.627391
0.652815
0.69392
0.753777
0.831307
0.916475
0.98867
1.02641
1.02619
1.00669
0.99128
0.996354
1.03383
1.11112
1.21933
1.3284
1.4086
1.45169
1.4645
1.45177
1.40881
1.32877
1.21969
1.11063
1.03029
0.985212
0.965216
0.958483
1.04991
1.05112
1.04158
1.00964
0.956326
0.893726
0.834875
0.787597
0.754486
0.735286
0.729038
0.735301
0.754526
0.787676
0.834965
0.893587
0.955082
1.00507
1.02948
1.02572
1.00669
0.992308
1.0028
1.06248
1.19666
1.38737
1.53908
1.58266
1.55396
1.51438
1.49802
1.5144
1.554
1.58267
1.53878
1.38577
1.19132
1.04976
0.977848
0.950616
1.02428
1.03123
1.03939
1.03963
1.02518
0.996634
0.960803
0.925876
0.897924
0.88026
0.874264
0.880284
0.89798
0.92595
0.960755
0.995938
1.02247
1.03229
1.02392
1.00528
0.99128
1.0028
1.07473
1.25609
1.51146
1.61912
1.51889
1.36063
1.23016
1.1502
1.12366
1.15019
1.23009
1.36031
1.51776
1.61564
1.5017
1.23568
1.04434
0.966989
1.00902
1.0141
1.02272
1.03148
1.03601
1.03329
1.02356
1.00995
0.99666
0.987239
0.983869
0.987273
0.996723
1.00996
1.0232
1.03162
1.03103
1.02027
1.00309
0.989093
0.996354
1.06248
1.25609
1.55234
1.61151
1.40383
1.16822
0.985762
0.865545
0.799238
0.778229
0.79922
0.865455
0.985401
1.16704
1.40065
1.60374
1.52997
1.21992
1.04027
1.00224
1.00473
1.00955
1.01601
1.02268
1.02779
1.03016
1.02983
1.02793
1.02597
1.02518
1.02601
1.02798
1.02973
1.02932
1.02481
1.01505
1.00098
0.987632
0.988013
1.03383
1.19666
1.51146
1.61151
1.35869
1.07039
0.851413
0.708285
0.62376
0.580344
0.567068
0.580328
0.623683
0.707976
0.850417
1.06806
1.35559
1.61012
1.4994
1.22267
0.999999
1.00094
1.00293
1.00598
1.00984
1.01395
1.0176
1.02031
1.02198
1.0228
1.02305
1.02284
1.02199
1.02001
1.01615
1.0095
0.999632
0.988228
0.98282
1.00505
1.11112
1.38737
1.61912
1.40383
1.07039
0.810193
0.642931
0.545927
0.493579
0.468328
0.460858
0.468316
0.493521
0.545691
0.642186
0.808698
1.07072
1.41981
1.67643
1.54011
0.999589
0.999856
1.00048
1.00156
1.00312
1.00506
1.0071
1.00896
1.01041
1.01132
1.01164
1.01135
1.01037
1.00843
1.00497
0.999167
0.990785
0.982833
0.987296
1.03888
1.21933
1.53908
1.51889
1.16822
0.851413
0.642931
0.52437
0.462147
0.43129
0.417412
0.41348
0.417403
0.431246
0.461972
0.523846
0.642131
0.85412
1.19448
1.63123
1.85272
0.999695
0.999736
0.999861
1.00013
1.00061
1.00127
1.00206
1.00286
1.00354
1.004
1.00418
1.00402
1.00343
1.00208
0.999282
0.994134
0.986817
0.982195
0.99778
1.08287
1.3284
1.58266
1.36063
0.985762
0.708285
0.545927
0.462147
0.421978
0.403938
0.396675
0.394787
0.396668
0.403903
0.421845
0.461781
0.545627
0.712534
1.01829
1.49862
1.95473
0.999846
0.999835
0.999829
0.999856
0.999944
1.0001
1.00033
1.00058
1.00081
1.00098
1.00106
1.00099
1.00063
0.999576
0.997015
0.992041
0.985373
0.983769
1.01006
1.12575
1.4086
1.55396
1.23016
0.865545
0.62376
0.493579
0.43129
0.403938
0.393197
0.38972
0.389014
0.389714
0.393167
0.40383
0.431023
0.493595
0.62891
0.901339
1.37638
1.90288
0.999938
0.999925
0.999904
0.999884
0.999877
0.999891
0.999928
0.999981
1.00004
1.00009
1.00012
1.00009
0.999809
0.998828
0.996268
0.991272
0.984996
0.985594
1.01973
1.15624
1.45169
1.51438
1.1502
0.799238
0.580344
0.468328
0.417412
0.396675
0.38972
0.388249
0.38818
0.388243
0.389693
0.39658
0.417199
0.468513
0.585944
0.836373
1.29731
1.83114
0.999979
0.999972
0.99996
0.999944
0.999928
0.999916
0.999911
0.999914
0.999924
0.999942
0.99996
0.999931
0.999675
0.998708
0.996132
0.991113
0.984976
0.986388
1.02339
1.16718
1.4645
1.49802
1.12366
0.778229
0.567068
0.460858
0.41348
0.394787
0.389014
0.38818
0.388317
0.388175
0.388988
0.394697
0.413283
0.461097
0.572802
0.815695
1.27041
1.80212
0.999994
0.999992
0.999986
0.999979
0.99997
0.999961
0.999954
0.99995
0.999952
0.999964
0.99998
0.999957
0.999721
0.998797
0.996295
0.991342
0.985089
0.985693
1.01982
1.15633
1.45177
1.5144
1.15019
0.79922
0.580328
0.468316
0.417403
0.396668
0.389714
0.388243
0.388175
0.388237
0.389687
0.396573
0.41719
0.468502
0.585929
0.836355
1.29729
1.83113
0.999999
0.999998
0.999996
0.999993
0.99999
0.999986
0.999983
0.999981
0.999984
0.999995
1.00001
1
0.999801
0.998979
0.996672
0.991927
0.985426
0.983918
1.01026
1.12597
1.40881
1.554
1.23009
0.865455
0.623683
0.493521
0.431246
0.403903
0.393167
0.389693
0.388988
0.389687
0.393137
0.403795
0.430979
0.493537
0.628834
0.901247
1.37629
1.90283
1
1
0.999999
0.999998
0.999997
0.999996
0.999995
0.999995
0.999999
1.00001
1.00003
1.00003
0.999884
0.999215
0.997225
0.992875
0.986232
0.982091
0.997965
1.08322
1.32877
1.58267
1.36031
0.985401
0.707976
0.545691
0.461972
0.421845
0.40383
0.39658
0.394697
0.396573
0.403795
0.421713
0.461607
0.545391
0.712221
1.01792
1.49825
1.95455
1
1
1
1
0.999999
0.999999
0.999999
1
1
1.00001
1.00003
1.00005
0.999961
0.999474
0.997892
0.994151
0.987722
0.981345
0.986882
1.03907
1.21969
1.53878
1.51776
1.16704
0.850417
0.642186
0.523846
0.461781
0.431023
0.417199
0.413283
0.41719
0.430979
0.461607
0.523323
0.641385
0.853107
1.19324
1.62996
1.85213
1
1
1
1
1
1
1
1
1
1.00001
1.00003
1.00005
1.00002
0.999718
0.998586
0.995632
0.989908
0.982376
0.97995
1.00399
1.11063
1.38577
1.61564
1.40065
1.06806
0.808698
0.642131
0.545627
0.493595
0.468513
0.461097
0.468502
0.493537
0.545391
0.641385
0.807187
1.06832
1.4164
1.6725
1.53774
1
1
1
1
1
1
1
1
1
1.00001
1.00003
1.00005
1.00006
0.999915
0.999213
0.997125
0.992532
0.985124
0.978045
0.982802
1.03029
1.19132
1.5017
1.60374
1.35559
1.07072
0.85412
0.712534
0.62891
0.585944
0.572802
0.585929
0.628834
0.712221
0.853107
1.06832
1.35223
1.60156
1.48842
1.21568
1
1
1
1
1
1
1
1
1
1.00001
1.00002
1.00005
1.00008
1.00005
0.999701
0.998417
0.995133
0.98881
0.980026
0.97391
0.985212
1.04976
1.23568
1.52997
1.61012
1.41981
1.19448
1.01829
0.901339
0.836373
0.815695
0.836355
0.901247
1.01792
1.19324
1.4164
1.60156
1.50593
1.19794
1.02533
1
1
1
1
1
1
1
1
1
1
1.00002
1.00004
1.00009
1.00013
1.00002
0.999347
0.997202
0.992254
0.983545
0.972395
0.965216
0.977848
1.04434
1.21992
1.4994
1.67643
1.63123
1.49862
1.37638
1.29731
1.27041
1.29729
1.37629
1.49825
1.62996
1.6725
1.48842
1.19794
1.01216
0.9403
1
1
1
1
1
1
1
1
1
1
1.00001
1.00004
1.00008
1.00016
1.00017
0.999826
0.998342
0.994319
0.986106
0.973194
0.958483
0.950616
0.966989
1.04027
1.22267
1.54011
1.85272
1.95473
1.90288
1.83114
1.80212
1.83113
1.90283
1.95455
1.85213
1.53774
1.21568
1.02533
0.9403
0.91022
SCALARS C2 double 1
LOOKUP_TABLE default
2.79673
2.77395
2.77912
2.85471
2.99384
3.16003
3.3195
3.4526
3.55057
3.61007
3.62999
3.61007
3.55056
3.45255
3.31933
3.15958
2.99314
2.85518
2.78645
2.80195
2.86816
2.93396
2.97507
2.9939
3.00021
3.00135
3.00099
3.00051
3.00021
3.00007
3.00002
3
3
3
3
3
3
3
3
3
2.77395
2.80754
2.89492
3.03928
3.21774
3.40036
3.56472
3.69835
3.79558
3.85427
3.87386
3.85427
3.79556
3.6983
3.56457
3.40001
3.21743
3.04127
2.90715
2.84701
2.86165
2.91296
2.95939
2.98607
2.99722
3.0005
3.00087
3.00055
3.00026
3.0001
3.00003
3.00001
3
3
3
3
3
3
3
3
2.77912
2.89492
3.0861
3.307
3.52618
3.72458
3.89136
4.02126
4.11275
4.16658
4.18427
4.16658
4.11275
4.02123
3.89125
3.72436
3.52632
3.31078
3.10466
2.9485
2.87775
2.88809
2.93294
2.97078
2.9908
2.99846
3.00046
3.00058
3.00033
3.00014
3.00005
3.00001
3
3
3
3
3
3
3
3
2.85471
3.03928
3.307
3.57351
3.8109
4.01191
4.17262
4.29137
4.36964
4.41237
4.42565
4.41237
4.36964
4.29134
4.17256
4.0118
3.81135
3.57841
3.33009
3.1011
2.94145
2.88431
2.90652
2.95025
2.98075
2.99482
2.99952
3.00048
3.0004
3.0002
3.00008
3.00002
3.00001
3
3
3
3
3
3
3
2.99384
3.21774
3.52618
3.8109
4.04995
4.24275
4.3869
4.48056
4.52729
4.54059
4.54128
4.54058
4.52728
4.48054
4.38687
4.24277
4.05066
3.81636
3.55117
3.28
3.05009
2.91672
2.89327
2.92937
2.96791
2.98944
2.99785
3.00016
3.00042
3.00026
3.00011
3.00004
3.00001
3
3
3
3
3
3
3
3.16003
3.40036
3.72458
4.01191
4.24275
4.41622
4.52426
4.55475
4.50137
4.39541
4.33681
4.3954
4.50135
4.55474
4.52429
4.41644
4.24382
4.01773
3.74954
3.45797
3.18172
2.98149
2.90077
2.91404
2.95438
2.98273
2.99547
2.99956
3.00036
3.0003
3.00014
3.00005
3.00002
3
3
3
3
3
3
3
3.3195
3.56472
3.89136
4.17262
4.3869
4.52426
4.55148
4.3852
3.8608
3.07864
2.71435
3.07861
3.86077
4.38521
4.55162
4.52475
4.38849
4.17881
3.91523
3.61586
3.31247
3.06253
2.92675
2.90777
2.94261
2.97564
2.99261
2.99873
3.00022
3.00032
3.00017
3.00007
3.00002
3.00001
3
3
3
3
3
3
3.4526
3.69835
4.02126
4.29137
4.48056
4.55475
4.3852
3.4584
1.65613
1.05936
0.984314
1.05936
1.6561
3.4585
4.38559
4.55569
4.48282
4.29798
4.04364
3.74316
3.42523
3.14221
2.96202
2.90985
2.93422
2.96924
2.98971
2.99778
3.00001
3.00031
3.00019
3.00008
3.00003
3.00001
3
3
3
3
3
3
3.55057
3.79558
4.11275
4.36964
4.52729
4.50137
3.8608
1.65613
0.945895
0.928672
0.941132
0.928673
0.9459
1.65627
3.86177
4.50297
4.53033
4.3767
4.13367
3.83518
3.51016
3.20709
2.99585
2.91638
2.92936
2.96433
2.98725
2.99691
2.99979
3.00028
3.0002
3.00008
3.00002
3
3
3
3
3
3
3
3.61007
3.85427
4.16658
4.41237
4.54059
4.39541
3.07864
1.05936
0.928672
0.979043
1.00293
0.979045
0.928681
1.05944
3.08027
4.39776
4.5443
4.41977
4.18643
3.89043
3.56242
3.24883
3.01964
2.92267
2.92715
2.96131
2.98561
2.99629
2.99961
3.00023
3.00018
3.00006
3
2.99998
2.99998
2.99998
2.99999
2.99999
3
3
3.62999
3.87386
4.18427
4.42565
4.54128
4.33681
2.71435
0.984314
0.941132
1.00293
1.02916
1.00293
0.941141
0.984375
2.71615
4.33953
4.54527
4.43318
4.20373
3.90882
3.58002
3.26317
3.02813
2.92517
2.92654
2.96027
2.985
2.99603
2.99951
3.00018
3.00013
3.00002
2.99996
2.99994
2.99994
2.99995
2.99996
2.99997
2.99998
2.99999
3.61007
3.85427
4.16658
4.41237
4.54058
4.3954
3.07861
1.05936
0.928673
0.979045
1.00293
0.979047
0.928682
1.05943
3.08024
4.39775
4.5443
4.41976
4.18643
3.89043
3.56242
3.24881
3.0196
2.92261
2.92707
2.96121
2.9855
2.99618
2.9995
3.00013
3.00008
2.99996
2.9999
2.99987
2.99987
2.99988
2.9999
2.99993
2.99995
2.99996
3.55056
3.79556
4.11275
4.36964
4.52728
4.50135
3.86077
1.6561
0.9459
0.928681
0.941141
0.928682
0.945905
1.65624
3.86173
4.50296
4.53032
4.37669
4.13366
3.83516
3.51013
3.20703
2.99575
2.91623
2.92918
2.96414
2.98709
2.9968
2.99973
3.00026
3.00019
3.00006
2.99996
2.99989
2.99983
2.99981
2.99981
2.99983
2.99986
2.99988
3.45255
3.6983
4.02123
4.29134
4.48054
4.55474
4.38521
3.4585
1.65627
1.05944
0.984375
1.05943
1.65624
3.45859
4.3856
4.55568
4.4828
4.29796
4.0436
3.7431
3.42513
3.14205
2.9618
2.90961
2.93403
2.96919
2.98988
2.99821
3.0007
3.00117
3.00112
3.00094
3.00071
3.00043
3.00016
2.99994
2.99979
2.99972
2.99971
2.99972
3.31933
3.56457
3.89125
4.17256
4.38687
4.52429
4.55162
4.38559
3.86177
3.08027
2.71615
3.08024
3.86173
4.3856
4.55176
4.52478
4.38846
4.17874
3.91512
3.61569
3.3122
3.06219
2.92644
2.90769
2.94298
2.97669
2.99451
3.00153
3.00382
3.00446
3.00451
3.00422
3.00362
3.0028
3.00187
3.001
3.0003
2.99983
2.99958
2.99948
3.15958
3.40001
3.72436
4.0118
4.24277
4.41644
4.52475
4.55569
4.50297
4.39776
4.33953
4.39775
4.50296
4.55568
4.52478
4.41664
4.24384
4.01761
3.7493
3.45757
3.18117
2.98102
2.90081
2.91517
2.95716
2.98762
3.00271
3.0091
3.0118
3.01297
3.01324
3.01272
3.01145
3.00953
3.0072
3.00478
3.00262
3.00097
2.99991
2.99941
2.99314
3.21743
3.52632
3.81135
4.05066
4.24382
4.38849
4.48282
4.53033
4.5443
4.54527
4.5443
4.53032
4.4828
4.38846
4.24384
4.05135
3.81676
3.55124
3.27966
3.04958
2.91683
2.89529
2.93464
2.97747
3.00393
3.01731
3.02397
3.02748
3.02927
3.02976
3.02905
3.02706
3.02378
3.01938
3.01431
3.00927
3.00498
3.00195
3.0004
2.85518
3.04127
3.31078
3.57841
3.81636
4.01773
4.17881
4.29798
4.3767
4.41977
4.43318
4.41976
4.37669
4.29796
4.17874
4.01761
3.81676
3.58317
3.33371
3.10331
2.94307
2.88764
2.91457
2.96551
3.00463
3.02745
3.03962
3.04581
3.04861
3.04957
3.04971
3.04939
3.0482
3.0453
3.04
3.03241
3.02353
3.01495
3.00825
3.00461
2.78645
2.90715
3.10466
3.33009
3.55117
3.74954
3.91523
4.04364
4.13367
4.18643
4.20373
4.18643
4.13366
4.0436
3.91512
3.7493
3.55124
3.33371
3.12326
2.96181
2.88811
2.90097
2.95433
3.00452
3.03747
3.05522
3.06167
3.05991
3.05352
3.04697
3.04423
3.04683
3.05316
3.05927
3.06111
3.05659
3.04649
3.03382
3.02243
3.01576
2.80195
2.84701
2.9485
3.1011
3.28
3.45797
3.61586
3.74316
3.83518
3.89043
3.90882
3.89043
3.83516
3.7431
3.61569
3.45757
3.27966
3.10331
2.96181
2.88939
2.8946
2.94656
3.00381
3.04535
3.0669
3.06744
3.04616
3.0069
2.96129
2.92525
2.91163
2.92513
2.96096
3.00622
3.04516
3.06693
3.07005
3.06052
3.04718
3.03813
2.86816
2.86165
2.87775
2.94145
3.05009
3.18172
3.31247
3.42523
3.51016
3.56242
3.58002
3.56242
3.51013
3.42513
3.3122
3.18117
3.04958
2.94307
2.88811
2.8946
2.94381
3.00317
3.05006
3.07299
3.05991
2.9948
2.87199
2.71712
2.5775
2.48735
2.45706
2.48723
2.57717
2.7164
2.87085
2.99379
3.06118
3.08236
3.08001
3.07355
2.93396
2.91296
2.88809
2.88431
2.91672
2.98149
3.06253
3.14221
3.20709
3.24883
3.26317
3.24881
3.20703
3.14205
3.06219
2.98102
2.91683
2.88764
2.90097
2.94656
3.00317
3.05157
3.07488
3.04572
2.91691
2.65989
2.35787
2.14486
2.04572
2.01293
2.00645
2.01288
2.04556
2.14449
2.35733
2.66016
2.92077
3.05844
3.10636
3.11688
2.97507
2.95939
2.93294
2.90652
2.89327
2.90077
2.92675
2.96202
2.99585
3.01964
3.02813
3.0196
2.99575
2.9618
2.92644
2.90081
2.89529
2.91457
2.95433
3.00381
3.05006
3.07488
3.03851
2.8559
2.46805
2.09251
1.95291
1.97066
2.03435
2.08785
2.10779
2.08784
2.03435
1.97077
1.95358
2.09565
2.47965
2.88294
3.08623
3.15041
2.9939
2.98607
2.97078
2.95025
2.92937
2.91404
2.90777
2.90985
2.91638
2.92267
2.92517
2.92261
2.91623
2.90961
2.90769
2.91517
2.93464
2.96551
3.00452
3.04535
3.07299
3.04572
2.8559
2.39456
1.98973
1.93517
2.05429
2.2071
2.336
2.41849
2.44662
2.41849
2.33604
2.20735
2.05535
1.93887
2.00301
2.43756
2.93049
3.13415
3.00021
2.99722
2.9908
2.98075
2.96791
2.95438
2.94261
2.93422
2.92936
2.92715
2.92654
2.92707
2.92918
2.93403
2.94298
2.95716
2.97747
3.00463
3.03747
3.0669
3.05991
2.91691
2.46805
1.98973
1.94382
2.12185
2.34193
2.53515
2.67818
2.76474
2.79364
2.76474
2.67822
2.53541
2.34301
2.12525
1.95277
2.01855
2.54751
2.98914
3.00135
3.0005
2.99846
2.99482
2.98944
2.98273
2.97564
2.96924
2.96433
2.96131
2.96027
2.96121
2.96414
2.96919
2.97669
2.98762
3.00393
3.02745
3.05522
3.06744
2.9948
2.65989
2.09251
1.93517
2.12185
2.3896
2.63725
2.8341
2.97465
3.05892
3.08703
3.05892
2.97467
2.8343
2.6382
2.39264
2.12786
1.9429
2.11201
2.62185
3.00099
3.00087
3.00046
2.99952
2.99785
2.99547
2.99261
2.98971
2.98725
2.98561
2.985
2.9855
2.98709
2.98988
2.99451
3.00271
3.01731
3.03962
3.06167
3.04616
2.87199
2.35787
1.95291
2.05429
2.34193
2.63725
2.88524
3.07701
3.21414
3.29713
3.32499
3.29712
3.21415
3.07715
2.88603
2.63995
2.34623
2.0493
1.90464
2.12298
3.00051
3.00055
3.00058
3.00048
3.00016
2.99956
2.99873
2.99778
2.99691
2.99629
2.99603
2.99618
2.9968
2.99821
3.00153
3.0091
3.02397
3.04581
3.05991
3.0069
2.71712
2.14486
1.97066
2.2071
2.53515
2.8341
3.07701
3.26532
3.4018
3.48547
3.51378
3.48547
3.40179
3.26541
3.07767
2.83654
2.53857
2.19466
1.8812
1.78524
3.00021
3.00026
3.00033
3.0004
3.00042
3.00036
3.00022
3.00001
2.99979
2.99961
2.99951
2.9995
2.99973
3.0007
3.00382
3.0118
3.02748
3.04861
3.05352
2.96129
2.5775
2.04572
2.03435
2.336
2.67818
2.97465
3.21414
3.4018
3.53966
3.62511
3.65419
3.62511
3.53965
3.40186
3.2147
2.97692
2.68124
2.3195
1.92254
1.65782
3.00007
3.0001
3.00014
3.0002
3.00026
3.0003
3.00032
3.00031
3.00028
3.00023
3.00018
3.00013
3.00026
3.00117
3.00446
3.01297
3.02927
3.04957
3.04697
2.92525
2.48735
2.01293
2.08785
2.41849
2.76474
3.05892
3.29713
3.48547
3.62511
3.71229
3.74207
3.71228
3.6251
3.48552
3.29763
3.0611
2.7677
2.40014
1.96523
1.62845
3.00002
3.00003
3.00005
3.00008
3.00011
3.00014
3.00017
3.00019
3.0002
3.00018
3.00013
3.00008
3.00019
3.00112
3.00451
3.01324
3.02976
3.04971
3.04423
2.91163
2.45706
2.00645
2.10779
2.44662
2.79364
3.08703
3.32499
3.51378
3.65419
3.74207
3.77214
3.74207
3.65418
3.51382
3.32548
3.08919
2.79658
2.42775
1.98199
1.62547
3
3.00001
3.00001
3.00002
3.00004
3.00005
3.00007
3.00008
3.00008
3.00006
3.00002
2.99996
3.00006
3.00094
3.00422
3.01272
3.02905
3.04939
3.04683
2.92513
2.48723
2.01288
2.08784
2.41849
2.76474
3.05892
3.29712
3.48547
3.62511
3.71228
3.74207
3.71228
3.6251
3.48551
3.29763
3.0611
2.7677
2.40014
1.96522
1.62841
3
3
3
3.00001
3.00001
3.00002
3.00002
3.00003
3.00002
3
2.99996
2.9999
2.99996
3.00071
3.00362
3.01145
3.02706
3.0482
3.05316
2.96096
2.57717
2.04556
2.03435
2.33604
2.67822
2.97467
3.21415
3.40179
3.53965
3.6251
3.65418
3.6251
3.53964
3.40186
3.21471
2.97694
2.68128
2.31954
1.92253
1.65771
3
3
3
3
3
3
3.00001
3.00001
3
2.99998
2.99994
2.99987
2.99989
3.00043
3.0028
3.00953
3.02378
3.0453
3.05927
3.00622
2.7164
2.14449
1.97077
2.20735
2.53541
2.8343
3.07715
3.26541
3.40186
3.48552
3.51382
3.48551
3.40186
3.2655
3.07781
2.83674
2.53883
2.19491
1.8813
1.78496
3
3
3
3
3
3
3
3
3
2.99998
2.99994
2.99987
2.99983
3.00016
3.00187
3.0072
3.01938
3.04
3.06111
3.04516
2.87085
2.35733
1.95358
2.05535
2.34301
2.6382
2.88603
3.07767
3.2147
3.29763
3.32548
3.29763
3.21471
3.07781
2.88682
2.6409
2.34732
2.05039
1.90534
2.12256
3
3
3
3
3
3
3
3
3
2.99998
2.99995
2.99988
2.99981
2.99994
3.001
3.00478
3.01431
3.03241
3.05659
3.06693
2.99379
2.66016
2.09565
1.93887
2.12525
2.39264
2.63995
2.83654
2.97692
3.0611
3.08919
3.0611
2.97694
2.83674
2.6409
2.39569
2.13132
1.94681
2.11551
2.62279
3
3
3
3
3
3
3
3
3
2.99999
2.99996
2.9999
2.99981
2.99979
3.0003
3.00262
3.00927
3.02353
3.04649
3.07005
3.06118
2.92077
2.47965
2.00301
1.95277
2.12786
2.34623
2.53857
2.68124
2.7677
2.79658
2.7677
2.68128
2.53883
2.34732
2.13132
1.96203
2.03278
2.56031
2.99485
3
3
3
3
3
3
3
3
3
2.99999
2.99997
2.99993
2.99983
2.99972
2.99983
3.00097
3.00498
3.01495
3.03382
3.06052
3.08236
3.05844
2.88294
2.43756
2.01855
1.9429
2.0493
2.19466
2.3195
2.40014
2.42775
2.40014
2.31954
2.19491
2.05039
1.94681
2.03278
2.48229
2.95914
3.15007
3
3
3
3
3
3
3
3
3
3
2.99998
2.99995
2.99986
2.99971
2.99958
2.99991
3.00195
3.00825
3.02243
3.04718
3.08001
3.10636
3.08623
2.93049
2.54751
2.11201
1.90464
1.8812
1.92254
1.96523
1.98199
1.96522
1.92253
1.8813
1.90534
2.11551
2.56031
2.95914
3.13664
3.18649
3
3
3
3
3
3
3
3
3
3
2.99999
2.99996
2.99988
2.99972
2.99948
2.99941
3.0004
3.00461
3.01576
3.03813
3.07355
3.11688
3.15041
3.13415
2.98914
2.62185
2.12298
1.78524
1.65782
1.62845
1.62547
1.62841
1.65771
1.78496
2.12256
2.62279
2.99485
3.15007
3.18649
3.18657
