# vtk DataFile Version 3.0
Brusselator Concentration Output
ASCII
DATASET STRUCTURED_POINTS
DIMENSIONS 40 40 1
ORIGIN 0.0 0.0 0.0
SPACING 0.005 0.005 1.0
POINT_DATA 1600
SCALARS C1 double 1
LOOKUP_TABLE default
0.375383
0.374266
0.372817
0.372594
0.374742
0.378944
0.384161
0.389365
0.393724
0.39661
0.397618
0.396608
0.393715
0.389324
0.38404
0.378663
0.374267
0.372439
0.375843
0.389391
0.422516
0.492996
0.631261
0.879462
1.27942
1.8667
2.67959
3.46947
0.977736
0.567411
0.512011
0.523386
0.587137
0.708495
0.862475
0.985293
1.03459
1.03202
1.0171
1.008
0.374266
0.375206
0.376745
0.379297
0.383604
0.389524
0.396217
0.40271
0.408109
0.411681
0.412931
0.41168
0.408096
0.402661
0.396081
0.389235
0.383189
0.379382
0.38007
0.38924
0.414375
0.469473
0.57886
0.778056
1.10536
1.5908
2.2612
3.22773
1.57007
0.652184
0.534088
0.534378
0.590744
0.702634
0.84749
0.968341
1.0234
1.02701
1.01497
1.00663
0.372817
0.376745
0.382856
0.389904
0.397975
0.407103
0.416695
0.425802
0.433364
0.438388
0.440152
0.438386
0.433346
0.425737
0.41653
0.406794
0.397641
0.390329
0.386578
0.389207
0.40335
0.438627
0.512435
0.652861
0.896151
1.27579
1.8188
2.54535
3.01836
0.936254
0.588016
0.555274
0.596208
0.691272
0.821238
0.939202
1.0036
1.01732
1.01005
1.00294
0.372594
0.379297
0.389904
0.401764
0.414305
0.427627
0.441292
0.454273
0.465168
0.472491
0.475081
0.472487
0.465143
0.454189
0.44109
0.427287
0.414038
0.402489
0.393921
0.390235
0.394805
0.414051
0.460179
0.554951
0.731684
1.02909
1.47926
2.109
3.02655
1.637
0.700186
0.585098
0.602166
0.677409
0.791775
0.907126
0.981226
1.00534
1.00276
0.996592
0.374742
0.383604
0.397975
0.414305
0.43152
0.449728
0.468561
0.48679
0.502434
0.513154
0.516986
0.513148
0.502401
0.486683
0.468316
0.449349
0.431301
0.415261
0.402187
0.393341
0.390957
0.399432
0.427535
0.492089
0.622106
0.857758
1.23811
1.7937
2.55847
2.81391
0.921304
0.626996
0.611286
0.66891
0.771859
0.886483
0.968542
0.999717
0.998769
0.991815
0.378944
0.389524
0.407103
0.427627
0.449728
0.473576
0.49889
0.52417
0.546562
0.562311
0.568024
0.562303
0.546519
0.524033
0.498594
0.47315
0.449541
0.428775
0.411491
0.398442
0.39108
0.3925
0.409211
0.454412
0.552746
0.742835
1.06867
1.56473
2.25541
3.21739
1.30493
0.694056
0.633435
0.679899
0.780558
0.900546
0.990955
1.02456
1.0188
1.00676
0.384161
0.396217
0.416695
0.441292
0.468561
0.49889
0.532229
0.566849
0.59872
0.621854
0.630399
0.621843
0.598662
0.566673
0.531868
0.498403
0.468394
0.442618
0.421283
0.404642
0.393528
0.390132
0.399454
0.432132
0.509177
0.666449
0.950135
1.39936
2.04204
2.97711
1.94214
0.819943
0.688408
0.730518
0.84075
0.978533
1.08982
1.13357
1.12104
1.09881
0.389365
0.40271
0.425802
0.454273
0.48679
0.52417
0.566849
0.613071
0.657431
0.690753
0.703302
0.690737
0.657352
0.612845
0.56641
0.523611
0.486635
0.455763
0.43061
0.410874
0.396851
0.390071
0.394504
0.419039
0.481939
0.616174
0.867804
1.2786
1.87497
2.69207
2.80803
1.07077
0.79135
0.811771
0.919875
1.07459
1.23507
1.34893
1.38808
1.38389
0.393724
0.408109
0.433364
0.465168
0.502434
0.546562
0.59872
0.657431
0.715993
0.761409
0.778827
0.761388
0.715891
0.657152
0.5982
0.54593
0.502282
0.466796
0.438377
0.416161
0.399982
0.390888
0.392166
0.411538
0.465275
0.583547
0.809987
1.18437
1.72412
2.4234
3.05113
1.37906
0.8498
0.788168
0.846299
0.978421
1.16438
1.3708
1.54857
1.64975
0.39661
0.411681
0.438388
0.472491
0.513154
0.562311
0.621854
0.690753
0.761409
0.817477
0.839265
0.817451
0.761287
0.690429
0.62127
0.561623
0.513001
0.474214
0.443549
0.4197
0.402171
0.3917
0.391151
0.407474
0.455354
0.561797
0.765072
1.09723
1.56222
2.12734
2.68625
1.27772
0.707012
0.618042
0.644688
0.734261
0.875252
1.04796
1.21131
1.31229
0.397618
0.412931
0.440152
0.475081
0.516986
0.568024
0.630399
0.703302
0.778827
0.839265
0.862863
0.839237
0.778698
0.702961
0.62979
0.567317
0.516835
0.476842
0.445372
0.42095
0.40295
0.391975
0.390652
0.405335
0.449087
0.544892
0.72344
1.00811
1.39941
1.87375
2.25816
0.878391
0.534819
0.484996
0.499457
0.548367
0.626913
0.724638
0.816822
0.873048
0.396608
0.41168
0.438386
0.472487
0.513148
0.562303
0.621843
0.690737
0.761388
0.817451
0.839237
0.817426
0.761266
0.690414
0.621261
0.56162
0.513004
0.474223
0.443561
0.419701
0.402112
0.391411
0.390086
0.403904
0.444182
0.529951
0.686634
0.938881
1.31062
1.84832
1.52033
0.604155
0.447709
0.424625
0.43063
0.452323
0.486952
0.529286
0.568615
0.59252
0.393715
0.408096
0.433346
0.465143
0.502401
0.546519
0.598662
0.657352
0.715891
0.761287
0.778698
0.761266
0.71579
0.657075
0.598147
0.545898
0.502267
0.466792
0.438365
0.416085
0.399676
0.389874
0.3891
0.402692
0.440916
0.521686
0.673745
0.939909
1.37346
2.1667
0.932558
0.488567
0.419979
0.40773
0.408191
0.414986
0.426032
0.438845
0.450163
0.456942
0.389324
0.402661
0.425737
0.454189
0.486683
0.524033
0.566673
0.612845
0.657152
0.690429
0.702961
0.690414
0.657075
0.612625
0.566246
0.523494
0.48655
0.455683
0.430468
0.410506
0.395857
0.387488
0.388011
0.40306
0.443952
0.53326
0.715141
1.06892
1.67825
1.84666
0.657127
0.455463
0.42291
0.414461
0.411291
0.409838
0.408655
0.406968
0.405056
0.403897
0.38404
0.396081
0.41653
0.44109
0.468316
0.498594
0.531868
0.56641
0.5982
0.62127
0.62979
0.621261
0.598147
0.566246
0.531528
0.498132
0.468153
0.442327
0.420773
0.403556
0.391143
0.384992
0.388504
0.408976
0.462364
0.584229
0.845655
1.34533
2.33478
1.21328
0.557705
0.463647
0.445534
0.437733
0.431157
0.423738
0.414796
0.404761
0.39573
0.390469
0.378663
0.389235
0.406794
0.427287
0.449349
0.47315
0.498403
0.523611
0.54593
0.561623
0.567317
0.56162
0.545898
0.523494
0.498132
0.472727
0.449071
0.428079
0.410231
0.396032
0.386556
0.384188
0.393979
0.427129
0.509888
0.700203
1.09869
1.80217
2.69494
0.901547
0.55045
0.502409
0.489333
0.479063
0.467151
0.452907
0.436528
0.41941
0.404819
0.396515
0.374267
0.383189
0.397641
0.414038
0.431301
0.449541
0.468394
0.486635
0.502282
0.513001
0.516835
0.513004
0.502267
0.48655
0.468153
0.449071
0.430726
0.414058
0.399838
0.389143
0.383961
0.388134
0.409817
0.468191
0.60749
0.911209
1.4845
2.48045
2.21165
0.812681
0.623417
0.593919
0.57583
0.553912
0.528666
0.50164
0.473892
0.447392
0.426107
0.414348
0.372439
0.379382
0.390329
0.402489
0.415261
0.428775
0.442618
0.455763
0.466796
0.474214
0.476842
0.474223
0.466792
0.455683
0.442327
0.428079
0.414058
0.401253
0.390867
0.384792
0.386257
0.401567
0.445115
0.550365
0.78394
1.23917
2.00404
3.25876
2.06954
1.09518
0.985735
0.941536
0.861043
0.761071
0.668755
0.594753
0.537207
0.492019
0.459522
0.442478
0.375843
0.38007
0.386578
0.393921
0.402187
0.411491
0.421283
0.43061
0.438377
0.443549
0.445372
0.443561
0.438365
0.430468
0.420773
0.410231
0.399838
0.390867
0.385217
0.385841
0.397978
0.432981
0.516856
0.702246
1.06802
1.6939
2.65882
3.86386
3.49908
3.09782
3.10047
2.96433
2.54513
1.90772
1.31588
0.906984
0.68379
0.571061
0.511231
0.483828
0.389391
0.38924
0.389207
0.390235
0.393341
0.398442
0.404642
0.410874
0.416161
0.4197
0.42095
0.419701
0.416085
0.410506
0.403556
0.396032
0.389143
0.384792
0.385841
0.396985
0.427777
0.499423
0.654449
0.958329
1.47744
2.24649
3.18328
3.63218
3.3736
3.14642
3.07446
3.11362
3.25474
3.48793
3.62759
2.69213
1.36681
0.794269
0.60751
0.548869
0.422516
0.414375
0.40335
0.394805
0.390957
0.39108
0.393528
0.396851
0.399982
0.402171
0.40295
0.402112
0.399676
0.395857
0.391143
0.386556
0.383961
0.386257
0.397978
0.427777
0.494032
0.63252
0.897709
1.34236
1.96997
2.65169
2.94525
2.72223
2.46532
2.32936
2.28611
2.31886
2.42542
2.60978
2.88214
3.27571
3.62615
1.97013
0.915582
0.680218
0.492996
0.469473
0.438627
0.414051
0.399432
0.3925
0.390132
0.390071
0.390888
0.3917
0.391975
0.391411
0.389874
0.387488
0.384992
0.384188
0.388134
0.401567
0.432981
0.499423
0.63252
0.878375
1.27767
1.8124
2.334
2.50823
2.29265
2.01901
1.83509
1.73649
1.7045
1.73273
1.82163
1.97625
2.20684
2.53043
2.96643
3.57898
2.44525
1.14995
0.631261
0.57886
0.512435
0.460179
0.427535
0.409211
0.399454
0.394504
0.392166
0.391151
0.390652
0.390086
0.3891
0.388011
0.388504
0.393979
0.409817
0.445115
0.516856
0.654449
0.897709
1.27767
1.76138
2.18611
2.27081
2.03004
1.73471
1.51535
1.37659
1.29971
1.27467
1.29827
1.37176
1.50026
1.6933
1.96659
2.34566
2.86392
3.57911
3.24612
0.879462
0.778056
0.652861
0.554951
0.492089
0.454412
0.432132
0.419039
0.411538
0.407474
0.405335
0.403904
0.402692
0.40306
0.408976
0.427129
0.468191
0.550365
0.702246
0.958329
1.34236
1.8124
2.18611
2.19555
1.90579
1.57732
1.32515
1.15435
1.04534
0.984515
0.964826
0.983895
1.04339
1.14889
1.31009
1.54181
1.86651
2.31887
2.94953
3.69505
1.27942
1.10536
0.896151
0.731684
0.622106
0.552746
0.509177
0.481939
0.465275
0.455354
0.449087
0.444182
0.440916
0.443952
0.462364
0.509888
0.60749
0.78394
1.06802
1.47744
1.96997
2.334
2.27081
1.90579
1.527
1.23683
1.03512
0.899998
0.814325
0.767087
0.751953
0.766758
0.81338
0.897779
1.03022
1.22581
1.50579
1.90032
2.44351
3.04217
1.8667
1.5908
1.27579
1.02909
0.857758
0.742835
0.666449
0.616174
0.583547
0.561797
0.544892
0.529951
0.521686
0.53326
0.584229
0.700203
0.911209
1.23917
1.6939
2.24649
2.65169
2.50823
2.03004
1.57732
1.23683
0.997783
0.834811
0.727505
0.660988
0.625018
0.613621
0.624803
0.660428
0.726425
0.833295
0.996754
1.2383
1.5851
2.05523
2.53933
2.67959
2.2612
1.8188
1.47926
1.23811
1.06867
0.950135
0.867804
0.809987
0.765072
0.72344
0.686634
0.673745
0.715141
0.845655
1.09869
1.4845
2.00404
2.65882
3.18328
2.94525
2.29265
1.73471
1.32515
1.03512
0.834811
0.70112
0.615548
0.563911
0.536541
0.527959
0.536381
0.563524
0.614917
0.700733
0.836873
1.0455
1.35254
1.76539
2.16872
3.46947
3.22773
2.54535
2.109
1.7937
1.56473
1.39936
1.2786
1.18437
1.09723
1.00811
0.938881
0.939909
1.06892
1.34533
1.80217
2.48045
3.25876
3.86386
3.63218
2.72223
2.01901
1.51535
1.15435
0.899998
0.727505
0.615548
0.545927
0.504937
0.483592
0.476959
0.483464
0.504642
0.545501
0.615565
0.730384
0.912465
1.18743
1.55671
1.90457
0.977736
1.57007
3.01836
3.02655
2.55847
2.25541
2.04204
1.87497
1.72412
1.56222
1.39941
1.31062
1.37346
1.67825
2.33478
2.69494
2.21165
2.06954
3.49908
3.3736
2.46532
1.83509
1.37659
1.04534
0.814325
0.660988
0.563911
0.504937
0.470884
0.453401
0.448008
0.453294
0.470642
0.504614
0.564082
0.664018
0.826859
1.07818
1.41652
1.72804
0.567411
0.652184
0.936254
1.637
2.81391
3.21739
2.97711
2.69207
2.4234
2.12734
1.87375
1.84832
2.1667
1.84666
1.21328
0.901547
0.812681
1.09518
3.09782
3.14642
2.32936
1.73649
1.29971
0.984515
0.767087
0.625018
0.536541
0.483592
0.453401
0.438046
0.433333
0.43795
0.453187
0.483319
0.536768
0.628031
0.779325
1.01617
1.33595
1.62677
0.512011
0.534088
0.588016
0.700186
0.921304
1.30493
1.94214
2.80803
3.05113
2.68625
2.25816
1.52033
0.932558
0.657127
0.557705
0.55045
0.623417
0.985735
3.10047
3.07446
2.28611
1.7045
1.27467
0.964826
0.751953
0.613621
0.527959
0.476959
0.448008
0.433333
0.428836
0.433241
0.447802
0.476699
0.528195
0.616605
0.764043
0.996001
1.30955
1.59361
0.523386
0.534378
0.555274
0.585098
0.626996
0.694056
0.819943
1.07077
1.37906
1.27772
0.878391
0.604155
0.488567
0.455463
0.463647
0.502409
0.593919
0.941536
2.96433
3.11362
2.31886
1.73273
1.29827
0.983895
0.766758
0.624803
0.536381
0.483464
0.453294
0.43795
0.433241
0.437853
0.453077
0.483183
0.53659
0.627792
0.779005
1.01575
1.3354
1.62609
0.587137
0.590744
0.596208
0.602166
0.611286
0.633435
0.688408
0.79135
0.8498
0.707012
0.534819
0.447709
0.419979
0.42291
0.445534
0.489333
0.57583
0.861043
2.54513
3.25474
2.42542
1.82163
1.37176
1.04339
0.81338
0.660428
0.563524
0.504642
0.470642
0.453187
0.447802
0.453077
0.47039
0.504299
0.563667
0.663457
0.826104
1.07718
1.41522
1.72641
0.708495
0.702634
0.691272
0.677409
0.66891
0.679899
0.730518
0.811771
0.788168
0.618042
0.484996
0.424625
0.40773
0.414461
0.437733
0.479063
0.553912
0.761071
1.90772
3.48793
2.60978
1.97625
1.50026
1.14889
0.897779
0.726425
0.614917
0.545501
0.504614
0.483319
0.476699
0.483183
0.504299
0.545047
0.614935
0.729498
0.911238
1.18578
1.55448
1.90167
0.862475
0.84749
0.821238
0.791775
0.771859
0.780558
0.84075
0.919875
0.846299
0.644688
0.499457
0.43063
0.408191
0.411291
0.431157
0.467151
0.528666
0.668755
1.31588
3.62759
2.88214
2.20684
1.6933
1.31009
1.03022
0.833295
0.700733
0.615565
0.564082
0.536768
0.528195
0.53659
0.563667
0.614935
0.700545
0.836368
1.04454
1.35095
1.7629
2.16515
0.985293
0.968341
0.939202
0.907126
0.886483
0.900546
0.978533
1.07459
0.978421
0.734261
0.548367
0.452323
0.414986
0.409838
0.423738
0.452907
0.50164
0.594753
0.906984
2.69213
3.27571
2.53043
1.96659
1.54181
1.22581
0.996754
0.836873
0.730384
0.664018
0.628031
0.616605
0.627792
0.663457
0.729498
0.836368
0.999705
1.24091
1.58706
2.05623
2.5393
1.03459
1.0234
1.0036
0.981226
0.968542
0.990955
1.08982
1.23507
1.16438
0.875252
0.626913
0.486952
0.426032
0.408655
0.414796
0.436528
0.473892
0.537207
0.68379
1.36681
3.62615
2.96643
2.34566
1.86651
1.50579
1.2383
1.0455
0.912465
0.826859
0.779325
0.764043
0.779005
0.826104
0.911238
1.04454
1.24091
1.52136
1.91598
2.45936
3.05882
1.03202
1.02701
1.01732
1.00534
0.999717
1.02456
1.13357
1.34893
1.3708
1.04796
0.724638
0.529286
0.438845
0.406968
0.404761
0.41941
0.447392
0.492019
0.571061
0.794269
1.97013
3.57898
2.86392
2.31887
1.90032
1.5851
1.35254
1.18743
1.07818
1.01617
0.996001
1.01575
1.07718
1.18578
1.35095
1.58706
1.91598
2.3717
3.00495
3.76506
1.0171
1.01497
1.01005
1.00276
0.998769
1.0188
1.12104
1.38808
1.54857
1.21131
0.816822
0.568615
0.450163
0.405056
0.39573
0.404819
0.426107
0.459522
0.511231
0.60751
0.915582
2.44525
3.57911
2.94953
2.44351
2.05523
1.76539
1.55671
1.41652
1.33595
1.30955
1.3354
1.41522
1.55448
1.7629
2.05623
2.45936
3.00495
3.69947
2.92215
1.008
1.00663
1.00294
0.996592
0.991815
1.00676
1.09881
1.38389
1.64975
1.31229
0.873048
0.59252
0.456942
0.403897
0.390469
0.396515
0.414348
0.442478
0.483828
0.548869
0.680218
1.14995
3.24612
3.69505
3.04217
2.53933
2.16872
1.90457
1.72804
1.62677
1.59361
1.62609
1.72641
1.90167
2.16515
2.5393
3.05882
3.76506
2.92215
1.24244
SCALARS C2 double 1
LOOKUP_TABLE default
3.01037
3.15079
3.34558
3.52181
3.66568
3.78361
3.87953
3.95449
4.00838
4.04085
4.0517
4.04082
4.00825
3.9541
3.87861
3.78208
3.66477
3.52675
3.36747
3.18517
2.97571
2.7312
2.44054
2.09767
1.71861
1.3452
1.02238
1.56599
4.34727
4.37637
4.14765
3.86182
3.54728
3.23994
3.00398
2.89664
2.90119
2.9446
2.97802
2.99282
3.15079
3.28641
3.47638
3.65139
3.7955
3.91362
4.00949
4.08424
4.13786
4.17012
4.18088
4.17009
4.13773
4.08385
4.00859
3.91218
3.7949
3.65688
3.49787
3.31665
3.11013
2.87214
2.59314
2.26527
1.89634
1.51969
1.1827
1.02235
3.81922
4.37795
4.18373
3.90395
3.59243
3.28648
3.04574
2.92459
2.91355
2.94824
2.97922
2.99384
3.34558
3.47638
3.66201
3.83524
3.97855
4.09574
4.19038
4.26368
4.31589
4.34712
4.3575
4.34709
4.31578
4.26332
4.18953
4.0944
3.97812
3.84095
3.68299
3.50372
3.30137
3.07185
2.80772
2.49975
2.14566
1.76446
1.3969
1.09504
1.91569
4.26256
4.23626
3.97769
3.67424
3.37043
3.12006
2.97485
2.93754
2.95736
2.98409
2.9984
3.52181
3.65139
3.83524
4.00625
4.14708
4.26141
4.3527
4.42237
4.47116
4.49989
4.50935
4.49987
4.47107
4.42207
4.35194
4.26013
4.14656
4.01153
3.85546
3.67847
3.47986
3.25722
3.00524
2.71507
2.3782
1.99932
1.60876
1.2553
1.06073
3.63503
4.26316
4.06344
3.77525
3.47371
3.21018
3.03677
2.9701
2.97353
2.99601
3.01045
3.66568
3.7955
3.97855
4.14708
4.28444
4.39443
4.48045
4.54418
4.58723
4.6117
4.61957
4.61168
4.58717
4.54395
4.4798
4.39324
4.28377
4.15172
3.99781
3.82272
3.62657
3.40821
3.16406
2.88678
2.56594
2.19656
1.7964
1.40974
1.09191
2.14224
4.19376
4.13868
3.87328
3.57288
3.29386
3.09297
3.00073
2.99233
3.01439
3.03113
3.78361
3.91362
4.09574
4.26141
4.39443
4.49859
4.57709
4.63198
4.66615
4.68382
4.68912
4.68381
4.66612
4.63183
4.57658
4.49753
4.39368
4.26545
4.11399
3.94052
3.74587
3.52981
3.2901
3.021
2.71235
2.35424
1.95333
1.54697
1.1894
1.19081
3.9142
4.18023
3.94503
3.63974
3.33833
3.10885
2.99767
2.98892
3.02177
3.04724
3.87953
4.00949
4.19038
4.3527
4.48045
4.57709
4.64542
4.68778
4.70884
4.71616
4.71748
4.71616
4.70884
4.68771
4.64506
4.57619
4.47967
4.35624
4.20766
4.03584
3.84225
3.62743
3.3901
3.12585
2.82551
2.47717
2.07966
1.66249
1.27965
1.02678
3.24639
4.147
3.95426
3.62552
3.28098
3.01096
2.87984
2.88251
2.94647
2.99556
3.95449
4.08424
4.26368
4.42237
4.54418
4.63198
4.68778
4.714
4.71741
4.71025
4.70586
4.71025
4.71744
4.71402
4.68758
4.63125
4.5434
4.42549
4.28014
4.11006
3.9174
3.7033
3.46724
3.20575
2.91068
2.56968
2.17707
1.75599
1.35921
1.04953
2.10324
3.93303
3.83028
3.4587
3.06207
2.74689
2.56697
2.53359
2.60088
2.67178
4.00838
4.13786
4.31589
4.47116
4.58723
4.66615
4.70884
4.71741
4.70061
4.67623
4.66493
4.67625
4.70067
4.71752
4.70879
4.66557
4.58645
4.47394
4.3317
4.16327
3.97142
3.75779
3.52236
3.2623
2.97027
2.6345
2.24821
1.83173
1.43685
1.12253
1.35778
3.47344
3.58387
3.23885
2.87953
2.57646
2.33617
2.16598
2.07221
2.03962
4.04085
4.17012
4.34712
4.49989
4.6117
4.68382
4.71616
4.71025
4.67623
4.63675
4.61927
4.63677
4.67632
4.71042
4.71622
4.68335
4.61092
4.50245
4.36251
4.19528
4.00399
3.7906
3.55534
3.29573
3.0053
2.67438
2.29948
1.90207
1.53071
1.23954
1.35003
3.33064
3.51284
3.24428
2.97332
2.72212
2.47734
2.24485
2.05526
1.94785
4.0517
4.18088
4.3575
4.50935
4.61957
4.68912
4.71748
4.70586
4.66493
4.61927
4.59923
4.61929
4.66503
4.70607
4.71758
4.68869
4.61879
4.51183
4.37274
4.20595
4.01482
3.80135
3.56579
3.30598
3.01728
2.69525
2.34351
1.98298
1.64939
1.38648
1.87145
3.66819
3.62157
3.40273
3.20214
3.00629
2.79749
2.58046
2.39337
2.28571
4.04082
4.17009
4.34709
4.49987
4.61168
4.68381
4.71616
4.71025
4.67625
4.63677
4.61929
4.63679
4.67634
4.71043
4.71622
4.68334
4.61091
4.50243
4.36249
4.1952
4.00369
3.78969
3.55341
3.29387
3.01101
2.70843
2.39296
2.07207
1.75587
1.49339
3.11343
3.91552
3.76643
3.60288
3.45576
3.3059
3.13671
2.95129
2.78589
2.68927
4.00825
4.13773
4.31578
4.47107
4.58717
4.66612
4.70884
4.71744
4.70067
4.67632
4.66503
4.67634
4.70073
4.71754
4.70878
4.66553
4.5864
4.47386
4.33157
4.16292
3.97041
3.75542
3.51888
3.26366
2.99685
2.72491
2.44146
2.1225
1.76763
1.71899
3.93488
4.06411
3.93552
3.82019
3.7127
3.59539
3.45355
3.29015
3.13945
3.04979
3.9541
4.08385
4.26332
4.42207
4.54395
4.63183
4.68771
4.71402
4.71752
4.71042
4.70607
4.71043
4.71754
4.71403
4.6875
4.63109
4.54318
4.42518
4.27962
4.10892
3.91487
3.69923
3.46627
3.2253
2.98518
2.73787
2.44373
2.05501
1.60432
2.9026
4.24515
4.21192
4.12479
4.04708
3.96742
3.8706
3.74494
3.59385
3.4499
3.36234
3.87861
4.00859
4.18953
4.35194
4.4798
4.57658
4.64506
4.68758
4.70879
4.71622
4.71758
4.71622
4.70878
4.6875
4.64469
4.57569
4.47902
4.35536
4.20617
4.03298
3.83771
3.62507
3.40526
3.18874
2.9691
2.7046
2.32589
1.82573
1.45952
3.938
4.41145
4.37403
4.32309
4.27172
4.20935
4.12514
4.01051
3.86826
3.7284
3.64115
3.78208
3.91218
4.0944
4.26013
4.39324
4.49753
4.57619
4.63125
4.66557
4.68335
4.68869
4.68334
4.66553
4.63109
4.57569
4.49647
4.39237
4.26357
4.11081
3.93566
3.74274
3.54234
3.34542
3.14713
2.90879
2.55849
2.05282
1.49058
1.9359
4.373
4.55004
4.53522
4.50909
4.47392
4.4233
4.35017
4.24726
4.11531
3.98078
3.89435
3.66477
3.7949
3.97812
4.14656
4.28377
4.39368
4.47967
4.5434
4.58645
4.61092
4.61879
4.61091
4.5864
4.54318
4.47902
4.39237
4.28251
4.14938
3.994
3.8206
3.63911
3.4603
3.28019
3.06387
2.74492
2.26693
1.68773
1.19374
3.03861
4.54941
4.64852
4.65147
4.64236
4.62318
4.58917
4.53367
4.44879
4.33255
4.20729
4.12364
3.52675
3.65688
3.84095
4.01153
4.15172
4.26545
4.35624
4.42549
4.47394
4.50245
4.51183
4.50243
4.47386
4.42518
4.35536
4.26357
4.14938
4.01337
3.85935
3.69678
3.53592
3.37294
3.176
2.88583
2.44589
1.8826
1.33762
1.03851
3.47345
4.42856
4.50338
4.53168
4.58062
4.63026
4.65666
4.64845
4.60057
4.51224
4.40382
4.32653
3.36747
3.49787
3.68299
3.85546
3.99781
4.11399
4.20766
4.28014
4.3317
4.36251
4.37274
4.36249
4.33157
4.27962
4.20617
4.11081
3.994
3.85935
3.71595
3.57349
3.42785
3.24907
2.984
2.58096
2.0503
1.50225
1.05131
0.909727
1.87876
2.21463
2.13964
2.31287
2.85266
3.61147
4.23033
4.55286
4.65341
4.63471
4.56057
4.49652
3.18517
3.31665
3.50372
3.67847
3.82272
3.94052
4.03584
4.11006
4.16327
4.19528
4.20595
4.1952
4.16292
4.10892
4.03298
3.93566
3.8206
3.69678
3.57349
3.44605
3.28518
3.04191
2.67039
2.17508
1.64406
1.1854
0.879456
0.810035
0.878192
0.920182
0.933238
0.927476
0.913106
0.93329
1.23834
2.72379
4.20121
4.61604
4.6524
4.61991
2.97571
3.11013
3.30137
3.47986
3.62657
3.74587
3.84225
3.9174
3.97142
4.00399
4.01482
4.00369
3.97041
3.91487
3.83771
3.74274
3.63911
3.53592
3.42785
3.28518
3.06106
2.71478
2.25105
1.74555
1.30253
1.01065
0.930633
1.01104
1.09965
1.14878
1.16516
1.1522
1.11243
1.05044
0.975073
0.91849
1.27764
3.61418
4.55403
4.65879
2.7312
2.87214
3.07185
3.25722
3.40821
3.52981
3.62743
3.7033
3.75779
3.7906
3.80135
3.78969
3.75542
3.69923
3.62507
3.54234
3.4603
3.37294
3.24907
3.04191
2.71478
2.27647
1.79806
1.37975
1.1153
1.05721
1.15701
1.28357
1.37521
1.42917
1.44753
1.43084
1.38082
1.30106
1.19707
1.07699
0.959081
0.992926
3.09202
4.39622
2.44054
2.59314
2.80772
3.00524
3.16406
3.2901
3.3901
3.46724
3.52236
3.55534
3.56579
3.55341
3.51888
3.46627
3.40526
3.34542
3.28019
3.176
2.984
2.67039
2.25105
1.79806
1.40655
1.1715
1.14166
1.26793
1.43342
1.5702
1.66796
1.72727
1.74738
1.72808
1.67057
1.57775
1.45424
1.30634
1.14268
0.981642
0.935873
2.21478
2.09767
2.26527
2.49975
2.71507
2.88678
3.021
3.12585
3.20575
3.2623
3.29573
3.30598
3.29387
3.26366
3.2253
3.18874
3.14713
3.06387
2.88583
2.58096
2.17508
1.74555
1.37975
1.1715
1.17109
1.32727
1.53014
1.71043
1.85268
1.95576
2.0183
2.03933
2.01872
1.95711
1.85617
1.71898
1.55047
1.35809
1.15312
0.954719
0.832605
1.71861
1.89634
2.14566
2.3782
2.56594
2.71235
2.82551
2.91068
2.97027
3.0053
3.01728
3.01101
2.99685
2.98518
2.9691
2.90879
2.74492
2.44589
2.0503
1.64406
1.30253
1.1153
1.14166
1.32727
1.56344
1.78311
1.96744
2.11295
2.21763
2.28055
2.30158
2.28085
2.21852
2.11494
1.97111
1.78956
1.57594
1.34094
1.10245
0.914775
1.3452
1.51969
1.76446
1.99932
2.19656
2.35424
2.47717
2.56968
2.6345
2.67438
2.69525
2.70843
2.72491
2.73787
2.7046
2.55849
2.26693
1.8826
1.50225
1.1854
1.01065
1.05721
1.26793
1.53014
1.78311
2.00613
2.19203
2.33707
2.44015
2.50165
2.52214
2.50192
2.4409
2.33854
2.19405
2.00715
1.78046
1.52337
1.25891
1.05512
1.02238
1.1827
1.3969
1.60876
1.7964
1.95333
2.07966
2.17707
2.24821
2.29948
2.34351
2.39296
2.44146
2.44373
2.32589
2.05282
1.68773
1.33762
1.05131
0.879456
0.930633
1.15701
1.43342
1.71043
1.96744
2.19203
2.37662
2.5188
2.6191
2.67874
2.6986
2.67901
2.61981
2.52013
2.37814
2.19135
1.95893
1.68767
1.40498
1.19179
1.56599
1.02235
1.09504
1.2553
1.40974
1.54697
1.66249
1.75599
1.83173
1.90207
1.98298
2.07207
2.1225
2.05501
1.82573
1.49058
1.19374
1.03851
0.909727
0.810035
1.01104
1.28357
1.5702
1.85268
2.11295
2.33707
2.5188
2.65773
2.75549
2.81362
2.83297
2.81387
2.75618
2.65902
2.52022
2.33596
2.10261
1.82385
1.52952
1.31046
4.34727
3.81922
1.91569
1.06073
1.09191
1.1894
1.27965
1.35921
1.43685
1.53071
1.64939
1.75587
1.76763
1.60432
1.45952
1.9359
3.03861
3.47345
1.87876
0.878192
1.09965
1.37521
1.66796
1.95576
2.21763
2.44015
2.6191
2.75549
2.85148
2.90862
2.92766
2.90886
2.85214
2.75676
2.62054
2.43904
2.20682
1.92494
1.62411
1.40177
4.37637
4.37795
4.26256
3.63503
2.14224
1.19081
1.02678
1.04953
1.12253
1.23954
1.38648
1.49339
1.71899
2.9026
3.938
4.373
4.54941
4.42856
2.21463
0.920182
1.14878
1.42917
1.72727
2.0183
2.28055
2.50165
2.67874
2.81362
2.90862
2.96523
2.98411
2.96547
2.90926
2.81488
2.6802
2.50062
2.26972
1.9869
1.68302
1.45916
4.14765
4.18373
4.23626
4.26316
4.19376
3.9142
3.24639
2.10324
1.35778
1.35003
1.87145
3.11343
3.93488
4.24515
4.41145
4.55004
4.64852
4.50338
2.13964
0.933238
1.16516
1.44753
1.74738
2.03933
2.30158
2.52214
2.6986
2.83297
2.92766
2.98411
3.00294
2.98434
2.9283
2.83423
2.70008
2.52116
2.29081
2.00784
1.7031
1.47881
3.86182
3.90395
3.97769
4.06344
4.13868
4.18023
4.147
3.93303
3.47344
3.33064
3.66819
3.91552
4.06411
4.21192
4.37403
4.53522
4.65147
4.53168
2.31287
0.927476
1.1522
1.43084
1.72808
2.01872
2.28085
2.50192
2.67901
2.81387
2.90886
2.96547
2.98434
2.96571
2.90951
2.81514
2.6805
2.50095
2.27009
1.98729
1.68341
1.45954
3.54728
3.59243
3.67424
3.77525
3.87328
3.94503
3.95426
3.83028
3.58387
3.51284
3.62157
3.76643
3.93552
4.12479
4.32309
4.50909
4.64236
4.58062
2.85266
0.913106
1.11243
1.38082
1.67057
1.95711
2.21852
2.4409
2.61981
2.75618
2.85214
2.90926
2.9283
2.90951
2.85282
2.75748
2.62131
2.43989
2.20774
1.92587
1.62501
1.40265
3.23994
3.28648
3.37043
3.47371
3.57288
3.63974
3.62552
3.4587
3.23885
3.24428
3.40273
3.60288
3.82019
4.04708
4.27172
4.47392
4.62318
4.63026
3.61147
0.93329
1.05044
1.30106
1.57775
1.85617
2.11494
2.33854
2.52013
2.65902
2.75676
2.81488
2.83423
2.81514
2.75748
2.66037
2.52166
2.33749
2.10419
1.82541
1.531
1.31191
3.00398
3.04574
3.12006
3.21018
3.29386
3.33833
3.28098
3.06207
2.87953
2.97332
3.20214
3.45576
3.7127
3.96742
4.20935
4.4233
4.58917
4.65666
4.23033
1.23834
0.975073
1.19707
1.45424
1.71898
1.97111
2.19405
2.37814
2.52022
2.62054
2.6802
2.70008
2.6805
2.62131
2.52166
2.37972
2.19298
1.96059
1.68932
1.40659
1.19342
2.89664
2.92459
2.97485
3.03677
3.09297
3.10885
3.01096
2.74689
2.57646
2.72212
3.00629
3.3059
3.59539
3.8706
4.12514
4.35017
4.53367
4.64845
4.55286
2.72379
0.91849
1.07699
1.30634
1.55047
1.78956
2.00715
2.19135
2.33596
2.43904
2.50062
2.52116
2.50095
2.43989
2.33749
2.19298
2.00615
1.77967
1.52295
1.25893
1.05548
2.90119
2.91355
2.93754
2.9701
3.00073
2.99767
2.87984
2.56697
2.33617
2.47734
2.79749
3.13671
3.45355
3.74494
4.01051
4.24726
4.44879
4.60057
4.65341
4.20121
1.27764
0.959081
1.14268
1.35809
1.57594
1.78046
1.95893
2.10261
2.20682
2.26972
2.29081
2.27009
2.20774
2.10419
1.96059
1.77967
1.56727
1.33408
1.09766
0.911697
2.9446
2.94824
2.95736
2.97353
2.99233
2.98892
2.88251
2.53359
2.16598
2.24485
2.58046
2.95129
3.29015
3.59385
3.86826
4.11531
4.33255
4.51224
4.63471
4.61604
3.61418
0.992926
0.981642
1.15312
1.34094
1.52337
1.68767
1.82385
1.92494
1.9869
2.00784
1.98729
1.92587
1.82541
1.68932
1.52295
1.33408
1.13416
0.942811
0.841392
2.97802
2.97922
2.98409
2.99601
3.01439
3.02177
2.94647
2.60088
2.07221
2.05526
2.39337
2.78589
3.13945
3.4499
3.7284
3.98078
4.20729
4.40382
4.56057
4.6524
4.55403
3.09202
0.935873
0.954719
1.10245
1.25891
1.40498
1.52952
1.62411
1.68302
1.7031
1.68341
1.62501
1.531
1.40659
1.25893
1.09766
0.942811
0.96217
2.62806
2.99282
2.99384
2.9984
3.01045
3.03113
3.04724
2.99556
2.67178
2.03962
1.94785
2.28571
2.68927
3.04979
3.36234
3.64115
3.89435
4.12364
4.32653
4.49652
4.61991
4.65879
4.39622
2.21478
0.832605
0.914775
1.05512
1.19179
1.31046
1.40177
1.45916
1.47881
1.45954
1.40265
1.31191
1.19342
1.05548
0.911697
0.841392
2.62806
4.31981
