# vtk DataFile Version 3.0
Brusselator Concentration Output
ASCII
DATASET STRUCTURED_POINTS
DIMENSIONS 40 40 1
ORIGIN 0.0 0.0 0.0
SPACING 0.005 0.005 1.0
POINT_DATA 1600
SCALARS C1 double 1
LOOKUP_TABLE default
0.622723
0.959172
2.58695
2.9437
2.30705
1.83143
1.48791
1.24961
1.0956
1.00999
0.982631
1.01001
1.09571
1.25012
1.48979
1.83703
2.31965
2.95544
2.85891
1.20775
0.767341
0.702401
0.730287
0.794879
0.871461
0.937838
0.980269
0.999246
1.00401
1.00335
1.0018
1.00075
1.00025
1.00006
1
0.999995
0.999996
0.999998
0.999999
1
0.959172
2.02839
2.58454
2.05866
1.64841
1.33774
1.11032
0.951918
0.849774
0.793205
0.775164
0.79322
0.849865
0.952329
1.11178
1.34181
1.65627
2.06383
2.54212
2.37669
1.15988
0.799786
0.759004
0.79875
0.862534
0.924886
0.969864
0.993556
1.00185
1.00286
1.00183
1.00085
1.00031
1.00009
1.00001
0.999998
0.999997
0.999998
0.999999
1
2.58695
2.58454
1.87335
1.42529
1.11844
0.906531
0.762533
0.668392
0.610617
0.579672
0.569966
0.579682
0.610684
0.668696
0.763599
0.90932
1.12267
1.42126
1.82095
2.32342
2.29304
1.1618
0.840617
0.810935
0.849318
0.903833
0.95206
0.983205
0.997609
1.00176
1.00181
1.00102
1.00043
1.00014
1.00003
1
0.999998
0.999999
0.999999
1
2.9437
2.05866
1.42529
1.03906
0.80083
0.653025
0.562211
0.507715
0.476463
0.460512
0.455636
0.46052
0.476511
0.507925
0.562924
0.654748
0.802433
1.02942
1.3595
1.81135
2.37532
2.03008
1.05713
0.845941
0.83977
0.881665
0.931297
0.969933
0.991551
0.999902
1.00159
1.00118
1.00057
1.00021
1.00006
1.00001
1
0.999999
1
1
2.30705
1.64841
1.11844
0.80083
0.621831
0.521302
0.464936
0.43379
0.417228
0.4093
0.40697
0.409307
0.417263
0.433935
0.465397
0.522265
0.621716
0.788403
1.05136
1.43716
1.95932
2.52035
1.53078
0.934031
0.842897
0.864332
0.911605
0.9557
0.984221
0.997272
1.00107
1.00126
1.00071
1.00029
1.00009
1.00002
1
1
1
1
1.83143
1.33774
0.906531
0.653025
0.521302
0.453772
0.419225
0.401996
0.393916
0.390562
0.389678
0.390567
0.393943
0.402101
0.419526
0.454253
0.520203
0.639845
0.844197
1.16626
1.63162
2.2483
2.1805
1.1138
0.866857
0.855199
0.895577
0.942231
0.976383
0.994042
1.00022
1.00123
1.00081
1.00036
1.00012
1.00003
1
0.999998
1
1
1.48791
1.11032
0.762533
0.562211
0.464936
0.419225
0.398351
0.389679
0.38684
0.386357
0.386394
0.386362
0.386862
0.389759
0.398552
0.419414
0.463329
0.549392
0.707383
0.97434
1.38336
1.95042
2.48624
1.39458
0.916426
0.855046
0.88424
0.930728
0.968849
0.990548
0.999106
1.00104
1.00084
1.00039
1.00012
1.00001
0.999982
0.999984
0.999991
0.999995
1.24961
0.951918
0.668392
0.507715
0.43379
0.401996
0.389679
0.386437
0.387038
0.388512
0.389189
0.388516
0.387058
0.386502
0.38982
0.402014
0.431947
0.495658
0.62031
0.844103
1.20591
1.72975
2.40341
1.71973
0.987899
0.86231
0.877364
0.921787
0.962307
0.987189
0.997859
1.00071
1.00076
1.00033
1.00005
0.999936
0.999919
0.999934
0.999954
0.999966
1.0956
0.849774
0.610617
0.476463
0.417228
0.393916
0.38684
0.387038
0.389926
0.39276
0.393895
0.392764
0.389944
0.387093
0.386945
0.393835
0.415285
0.465139
0.568062
0.761736
1.08872
1.57958
2.25264
1.99123
1.06559
0.873238
0.873886
0.915518
0.957255
0.984368
0.996676
1.00028
1.00057
1.00017
0.999871
0.999762
0.999761
0.9998
0.999842
0.999867
1.00999
0.793205
0.579672
0.460512
0.4093
0.390562
0.386357
0.388512
0.39276
0.396432
0.397855
0.396436
0.392777
0.388562
0.386444
0.390431
0.40732
0.449683
0.540525
0.716684
1.02252
1.4926
2.1492
2.14641
1.12577
0.882719
0.872475
0.911866
0.954158
0.982617
0.99597
1.00006
1.00046
1.00003
0.999668
0.999508
0.999483
0.999522
0.999576
0.999611
0.982631
0.775164
0.569966
0.455636
0.40697
0.389678
0.386394
0.389189
0.393895
0.397855
0.399379
0.39786
0.393912
0.389239
0.386474
0.389532
0.40498
0.444977
0.531959
0.702396
1.00117
1.46418
2.11415
2.19283
1.14805
0.886426
0.872381
0.911227
0.953965
0.98308
0.996869
1.00108
1.00135
1.00065
0.999982
0.99953
0.999268
0.999142
0.9991
0.999093
1.01001
0.79322
0.579682
0.46052
0.409307
0.390567
0.386362
0.388516
0.392764
0.396436
0.39786
0.396441
0.392782
0.388567
0.386449
0.390437
0.407325
0.449688
0.540528
0.716686
1.02255
1.49278
2.14995
2.14588
1.12546
0.883588
0.874636
0.915475
0.959106
0.988498
1.00221
1.00609
1.00578
1.00427
1.00264
1.00119
1.00001
0.99916
0.998624
0.998371
1.09571
0.849865
0.610684
0.476511
0.417263
0.393943
0.386862
0.387058
0.389944
0.392777
0.393912
0.392782
0.389963
0.387113
0.386967
0.393862
0.415318
0.46518
0.568115
0.761831
1.08899
1.58045
2.25537
1.99258
1.06838
0.878993
0.883412
0.929157
0.974523
1.00409
1.01736
1.02047
1.01897
1.01574
1.01191
1.00798
1.00435
1.00136
0.999276
0.998215
1.25012
0.952329
0.668696
0.507925
0.433935
0.402101
0.389759
0.386502
0.387093
0.388562
0.389239
0.388567
0.387113
0.386566
0.389899
0.402116
0.432086
0.495857
0.620617
0.844669
1.2072
1.73296
2.41122
1.73134
1.00229
0.882885
0.90602
0.958417
1.00531
1.03423
1.04653
1.04877
1.04617
1.04108
1.03425
1.02621
1.01779
1.01014
1.00439
1.00133
1.48979
1.11178
0.763599
0.562924
0.465397
0.419526
0.398552
0.38982
0.386945
0.386444
0.386474
0.386449
0.386967
0.389899
0.398752
0.419711
0.463784
0.550112
0.70859
0.976566
1.38788
1.96024
2.50754
1.43244
0.957059
0.905435
0.944844
0.99849
1.04046
1.06392
1.07339
1.07597
1.07588
1.07382
1.06873
1.05962
1.04698
1.03308
1.02123
1.01446
1.83703
1.34181
0.90932
0.654748
0.522265
0.454253
0.419414
0.402014
0.393835
0.390431
0.389532
0.390437
0.393862
0.402116
0.419711
0.454729
0.521181
0.641712
0.847703
1.17292
1.64436
2.27287
2.25286
1.19424
0.945559
0.93574
0.970346
1.00455
1.02537
1.03374
1.03712
1.04241
1.05243
1.06598
1.07908
1.08666
1.08495
1.0743
1.06014
1.05031
2.31965
1.65627
1.12267
0.802433
0.621716
0.520203
0.463329
0.431947
0.415285
0.40732
0.40498
0.407325
0.415318
0.432086
0.463784
0.521181
0.621752
0.790701
1.05802
1.45184
1.98811
2.57495
1.68764
1.05178
0.932213
0.915409
0.914626
0.911951
0.904204
0.895521
0.892568
0.900324
0.920875
0.953777
0.996088
1.04185
1.08229
1.10888
1.11929
1.12021
2.95544
2.06383
1.42126
1.02942
0.788403
0.639845
0.549392
0.495658
0.465139
0.449683
0.444977
0.449688
0.46518
0.495857
0.550112
0.641712
0.790701
1.02209
1.36159
1.82944
2.41512
2.27011
1.24333
0.939043
0.847577
0.801367
0.770389
0.745295
0.724051
0.709171
0.704007
0.710929
0.73165
0.767898
0.821322
0.892348
0.977861
1.06821
1.14602
1.19126
2.85891
2.54212
1.82095
1.3595
1.05136
0.844197
0.707383
0.62031
0.568062
0.540525
0.531959
0.540528
0.568115
0.620617
0.70859
0.847703
1.05802
1.36159
1.77784
2.30119
2.54404
1.47897
0.960216
0.788428
0.703917
0.653636
0.620126
0.595413
0.577309
0.566093
0.562285
0.566428
0.579758
0.604848
0.646018
0.709387
0.801522
0.923356
1.05539
1.14706
1.20775
2.37669
2.32342
1.81135
1.43716
1.16626
0.97434
0.844103
0.761736
0.716684
0.702396
0.716686
0.761831
0.844669
0.976566
1.17292
1.45184
1.82944
2.30119
2.58909
1.64305
0.987198
0.749822
0.638452
0.577846
0.542793
0.520886
0.506469
0.497333
0.492351
0.49074
0.492305
0.49787
0.509682
0.531971
0.5718
0.639214
0.741367
0.861744
0.94642
0.767341
1.15988
2.29304
2.37532
1.95932
1.63162
1.38336
1.20591
1.08872
1.02252
1.00117
1.02255
1.08899
1.2072
1.38788
1.64436
1.98811
2.41512
2.54404
1.64305
0.999935
0.73209
0.603134
0.536032
0.501278
0.483529
0.474862
0.471367
0.470729
0.471173
0.471439
0.471092
0.470774
0.472371
0.47932
0.497251
0.534149
0.595295
0.66706
0.71427
0.702401
0.799786
1.1618
2.03008
2.52035
2.2483
1.95042
1.72975
1.57958
1.4926
1.46418
1.49278
1.58045
1.73296
1.96024
2.27287
2.57495
2.27011
1.47897
0.987198
0.73209
0.592194
0.518003
0.481852
0.466769
0.463256
0.466258
0.472635
0.479764
0.48525
0.487288
0.485201
0.479746
0.473019
0.468243
0.469744
0.482385
0.507376
0.534484
0.549501
0.730287
0.759004
0.840617
1.05713
1.53078
2.1805
2.48624
2.40341
2.25264
2.1492
2.11415
2.14995
2.25537
2.41122
2.50754
2.25286
1.68764
1.24333
0.960216
0.749822
0.603134
0.518003
0.47625
0.460606
0.46017
0.469004
0.4836
0.501005
0.517848
0.530276
0.534879
0.530256
0.517868
0.501296
0.484817
0.472427
0.466778
0.46635
0.464642
0.460994
0.794879
0.79875
0.810935
0.845941
0.934031
1.1138
1.39458
1.71973
1.99123
2.14641
2.19283
2.14588
1.99258
1.73134
1.43244
1.19424
1.05178
0.939043
0.788428
0.638452
0.536032
0.481852
0.460606
0.459745
0.472175
0.494358
0.524155
0.55901
0.594207
0.621773
0.632434
0.621781
0.594298
0.559403
0.525279
0.49661
0.474375
0.455331
0.435882
0.422227
0.871461
0.862534
0.849318
0.83977
0.842897
0.866857
0.916426
0.987899
1.06559
1.12577
1.14805
1.12546
1.06838
1.00229
0.957059
0.945559
0.932213
0.847577
0.703917
0.577846
0.501278
0.466769
0.46017
0.472175
0.498721
0.539292
0.595453
0.668835
0.755726
0.835525
0.869522
0.835585
0.755974
0.669519
0.596865
0.541228
0.498685
0.462588
0.430106
0.410048
0.937838
0.924886
0.903833
0.881665
0.864332
0.855199
0.855046
0.86231
0.873238
0.882719
0.886426
0.883588
0.878993
0.882885
0.905435
0.93574
0.915409
0.801367
0.653636
0.542793
0.483529
0.463256
0.469004
0.494358
0.539292
0.610443
0.724625
0.915928
1.21931
1.55652
1.70878
1.55681
1.22016
0.917503
0.72688
0.612567
0.537869
0.481606
0.436686
0.411135
0.980269
0.969864
0.95206
0.931297
0.911605
0.895577
0.88424
0.877364
0.873886
0.872475
0.872381
0.874636
0.883412
0.90602
0.944844
0.970346
0.914626
0.770389
0.620126
0.520886
0.474862
0.466258
0.4836
0.524155
0.595453
0.724625
0.99716
1.65075
2.75172
3.39884
3.51521
3.39927
2.75404
1.65555
1.00182
0.727522
0.592837
0.508691
0.449705
0.418479
0.999246
0.993556
0.983205
0.969933
0.9557
0.942231
0.930728
0.921787
0.915518
0.911866
0.911227
0.915475
0.929157
0.958417
0.99849
1.00455
0.911951
0.745295
0.595413
0.506469
0.471367
0.472635
0.501005
0.55901
0.668835
0.915928
1.65075
3.22845
3.57209
3.40841
3.33774
3.40847
3.5723
3.23396
1.66197
0.92071
0.664951
0.540681
0.465305
0.428074
1.00401
1.00185
0.997609
0.991551
0.984221
0.976383
0.968849
0.962307
0.957255
0.954158
0.953965
0.959106
0.974523
1.00531
1.04046
1.02537
0.904204
0.724051
0.577309
0.497333
0.470729
0.479764
0.517848
0.594207
0.755726
1.21931
2.75172
3.57209
3.26708
3.03753
2.95957
3.03755
3.26698
3.57166
2.76775
1.22767
0.750512
0.572944
0.480151
0.43717
1.00335
1.00286
1.00176
0.999902
0.997272
0.994042
0.990548
0.987189
0.984368
0.982617
0.98308
0.988498
1.00409
1.03423
1.06392
1.03374
0.895521
0.709171
0.566093
0.492351
0.471173
0.48525
0.530276
0.621773
0.835525
1.55652
3.39884
3.40841
3.03753
2.80575
2.72924
2.80576
3.03737
3.40738
3.40636
1.56869
0.829202
0.59815
0.490941
0.443632
1.0018
1.00183
1.00181
1.00159
1.00107
1.00022
0.999106
0.997859
0.996676
0.99597
0.996869
1.00221
1.01736
1.04653
1.07339
1.03712
0.892568
0.704007
0.562285
0.49074
0.471439
0.487288
0.534879
0.632434
0.869522
1.70878
3.51521
3.33774
2.95957
2.72924
2.65355
2.72925
2.9594
3.33664
3.519
1.72249
0.862749
0.607889
0.494912
0.445971
1.00075
1.00085
1.00102
1.00118
1.00126
1.00123
1.00104
1.00071
1.00028
1.00006
1.00108
1.00609
1.02047
1.04877
1.07597
1.04241
0.900324
0.710929
0.566428
0.492305
0.471092
0.485201
0.530256
0.621781
0.835585
1.55681
3.39927
3.40847
3.03755
2.80576
2.72925
2.80577
3.03739
3.40744
3.40679
1.56899
0.829271
0.598174
0.490952
0.44364
1.00025
1.00031
1.00043
1.00057
1.00071
1.00081
1.00084
1.00076
1.00057
1.00046
1.00135
1.00578
1.01897
1.04617
1.07588
1.05243
0.920875
0.73165
0.579758
0.49787
0.470774
0.479746
0.517868
0.594298
0.755974
1.22016
2.75404
3.5723
3.26698
3.03737
2.9594
3.03739
3.26688
3.57188
2.77008
1.22855
0.750787
0.57307
0.480222
0.437219
1.00006
1.00009
1.00014
1.00021
1.00029
1.00036
1.00039
1.00033
1.00017
1.00003
1.00065
1.00427
1.01574
1.04108
1.07382
1.06598
0.953777
0.767898
0.604848
0.509682
0.472371
0.473019
0.501296
0.559403
0.669519
0.917503
1.65555
3.23396
3.57166
3.40738
3.33664
3.40744
3.57188
3.23944
1.66685
0.922358
0.665697
0.541118
0.465592
0.428289
1
1.00001
1.00003
1.00006
1.00009
1.00012
1.00012
1.00005
0.999871
0.999668
0.999982
1.00264
1.01191
1.03425
1.06873
1.07908
0.996088
0.821322
0.646018
0.531971
0.47932
0.468243
0.484817
0.525279
0.596865
0.72688
1.00182
1.66197
2.76775
3.40636
3.519
3.40679
2.77008
1.66685
1.00659
0.729907
0.594369
0.509824
0.450578
0.419203
0.999995
0.999998
1
1.00001
1.00002
1.00003
1.00001
0.999936
0.999762
0.999508
0.99953
1.00119
1.00798
1.02621
1.05962
1.08666
1.04185
0.892348
0.709387
0.5718
0.497251
0.469744
0.472427
0.49661
0.541228
0.612567
0.727522
0.92071
1.22767
1.56869
1.72249
1.56899
1.22855
0.922358
0.729907
0.614886
0.539988
0.483688
0.438686
0.413035
0.999996
0.999997
0.999998
1
1
1
0.999982
0.999919
0.999761
0.999483
0.999268
1.00001
1.00435
1.01779
1.04698
1.08495
1.08229
0.977861
0.801522
0.639214
0.534149
0.482385
0.466778
0.474375
0.498685
0.537869
0.592837
0.664951
0.750512
0.829202
0.862749
0.829271
0.750787
0.665697
0.594369
0.539988
0.498744
0.464013
0.432708
0.413294
0.999998
0.999998
0.999999
0.999999
1
0.999998
0.999984
0.999934
0.9998
0.999522
0.999142
0.99916
1.00136
1.01014
1.03308
1.0743
1.10888
1.06821
0.923356
0.741367
0.595295
0.507376
0.46635
0.455331
0.462588
0.481606
0.508691
0.540681
0.572944
0.59815
0.607889
0.598174
0.57307
0.541118
0.509824
0.483688
0.464013
0.44813
0.432355
0.421327
0.999999
0.999999
0.999999
1
1
1
0.999991
0.999954
0.999842
0.999576
0.9991
0.998624
0.999276
1.00439
1.02123
1.06014
1.11929
1.14602
1.05539
0.861744
0.66706
0.534484
0.464642
0.435882
0.430106
0.436686
0.449705
0.465305
0.480151
0.490941
0.494912
0.490952
0.480222
0.465592
0.450578
0.438686
0.432708
0.432355
0.432593
0.431487
1
1
1
1
1
1
0.999995
0.999966
0.999867
0.999611
0.999093
0.998371
0.998215
1.00133
1.01446
1.05031
1.12021
1.19126
1.14706
0.94642
0.71427
0.549501
0.460994
0.422227
0.410048
0.411135
0.418479
0.428074
0.43717
0.443632
0.445971
0.44364
0.437219
0.428289
0.419203
0.413035
0.413294
0.421327
0.431487
0.436885
SCALARS C2 double 1
LOOKUP_TABLE default
4.18512
4.05855
2.38099
1.02329
1.1492
1.34825
1.54219
1.70797
1.83238
1.90867
1.93429
1.90867
1.83233
1.7077
1.54119
1.34556
1.14364
1.00937
2.00215
3.77726
3.90723
3.7358
3.5184
3.31212
3.14937
3.04662
2.99921
2.98703
2.98937
2.9942
2.99754
2.99918
2.9998
2.99998
3.00002
3.00001
3.00001
3
3
3
4.05855
2.89229
1.26321
1.31332
1.51018
1.71969
1.91205
2.07137
2.18859
2.25974
2.28354
2.25974
2.18855
2.0711
1.91099
1.71669
1.50424
1.30427
1.22218
2.25566
3.63249
3.71852
3.54971
3.35613
3.19107
3.0769
3.01581
2.99355
2.99087
2.99407
2.99718
2.99895
2.9997
2.99995
3.00001
3.00001
3.00001
3
3
3
2.38099
1.26321
1.41821
1.67972
1.93642
2.16734
2.36308
2.51763
2.62843
2.6949
2.71705
2.6949
2.62841
2.51742
2.36208
2.16426
1.93054
1.67617
1.43205
1.29367
2.20201
3.5009
3.57834
3.42697
3.2615
3.12957
3.04607
3.00632
2.99428
2.99411
2.99661
2.99854
2.9995
2.99988
2.99999
3.00001
3.00001
3
3
3
1.02329
1.31332
1.67972
2.00999
2.29052
2.52373
2.71289
2.85937
2.96388
3.02667
3.04764
3.02668
2.96387
2.85923
2.71211
2.52104
2.28537
2.01006
1.71275
1.4335
1.31329
2.53159
3.5029
3.49361
3.34111
3.19294
3.08519
3.02458
3.00011
2.99482
2.99606
2.99803
2.99924
2.99978
2.99995
3
3
3
3
3
1.1492
1.51018
1.93642
2.29052
2.57006
2.79437
2.97496
3.11565
3.21704
3.27848
3.29909
3.27848
3.21704
3.11557
2.97437
2.79211
2.56559
2.2925
1.97922
1.65079
1.36492
1.47042
3.09695
3.51329
3.41142
3.2562
3.12792
3.04677
3.00841
2.99654
2.99577
2.99754
2.99895
2.99965
2.99991
2.99999
3
3
3
3
1.34825
1.71969
2.16734
2.52373
2.79437
3.01041
3.18633
3.32533
3.42671
3.48867
3.50954
3.48867
3.42672
3.32529
3.18587
3.00846
2.79026
2.52617
2.21409
1.86689
1.52433
1.29651
2.25478
3.42854
3.45835
3.3116
3.16952
3.0707
3.01861
2.99936
2.99589
2.99715
2.99867
2.99953
2.99988
2.99998
3
3
3
2.99999
1.54219
1.91205
2.36308
2.71289
2.97496
3.18633
3.36117
3.50116
3.60425
3.66765
3.68907
3.66765
3.60427
3.50114
3.36081
3.18457
2.971
2.71497
2.41007
2.05892
1.68919
1.36872
1.57573
3.1861
3.47261
3.35462
3.2063
3.0939
3.02962
3.00299
2.99646
2.99695
2.99848
2.99945
2.99987
3
3.00002
3.00001
3
2.99999
1.70797
2.07137
2.51763
2.85937
3.11565
3.32533
3.50116
3.64332
3.74869
3.81376
3.83579
3.81376
3.74871
3.64332
3.50086
3.3237
3.11172
2.86079
2.56312
2.21466
1.83248
1.47061
1.3511
2.81169
3.45243
3.38381
3.23588
3.11419
3.04012
3.00695
2.99743
2.99703
2.99846
2.9995
2.99996
3.00009
3.00009
3.00006
3.00003
3.00002
1.83238
2.18859
2.62843
2.96388
3.21704
3.42671
3.60425
3.74869
3.85618
3.9227
3.94525
3.92271
3.85619
3.7487
3.60398
3.42516
3.21309
2.96468
2.67212
2.32783
1.94104
1.55731
1.31621
2.43925
3.40899
3.4006
3.25722
3.12998
3.04892
3.01069
2.99867
2.99746
2.99876
2.99982
3.00028
3.00038
3.00033
3.00024
3.00016
3.00012
1.90867
2.25974
2.6949
3.02667
3.27848
3.48867
3.66765
3.81376
3.9227
3.9902
4.0131
3.99021
3.92272
3.81377
3.6674
3.48716
3.27451
3.02705
2.73729
2.3961
2.00816
1.61367
1.32497
2.19573
3.3663
3.40856
3.27026
3.14025
3.05504
3.01361
2.99994
2.99816
2.99937
3.00046
3.00094
3.001
3.00088
3.0007
3.00054
3.00045
1.93429
2.28354
2.71705
3.04764
3.29909
3.50954
3.68907
3.83579
3.94525
4.0131
4.03611
4.0131
3.94527
3.8358
3.68883
3.50805
3.29511
3.04787
2.75898
2.41889
2.03082
1.63311
1.33136
2.11633
3.34943
3.41138
3.2751
3.14405
3.05721
3.0145
3.00018
2.99825
2.99959
3.00091
3.00162
3.00185
3.0018
3.00162
3.00142
3.00129
1.90867
2.25974
2.6949
3.02668
3.27848
3.48867
3.66765
3.81376
3.92271
3.99021
4.0131
3.99021
3.92273
3.81377
3.66741
3.48717
3.27451
3.02706
2.7373
2.39613
2.00818
1.61365
1.3249
2.19831
3.36835
3.40978
3.27046
3.13903
3.05236
3.00988
2.99581
2.9943
2.99635
2.99864
3.00043
3.00168
3.00246
3.00284
3.00295
3.00296
1.83233
2.18855
2.62841
2.96387
3.21704
3.42672
3.60427
3.74871
3.85619
3.92272
3.94527
3.92273
3.85621
3.74871
3.604
3.42517
3.21309
2.96468
2.67213
2.32783
1.94098
1.55701
1.31568
2.44203
3.40981
3.39871
3.25111
3.11858
3.03254
2.99087
2.97754
2.97716
2.98113
2.98617
2.99127
2.99597
2.99987
3.0027
3.00446
3.00527
1.7077
2.0711
2.51742
2.85923
3.11557
3.32529
3.50114
3.64332
3.7487
3.81377
3.8358
3.81377
3.74871
3.64331
3.50083
3.32365
3.11164
2.86068
2.56296
2.21439
1.83186
1.46919
1.34842
2.80478
3.44214
3.36516
3.20439
3.06862
2.98257
2.94163
2.9292
2.93057
2.93793
2.94834
2.96059
2.97351
2.98563
2.99557
3.00244
3.00589
1.54119
1.91099
2.36208
2.71211
2.97437
3.18587
3.36081
3.50086
3.60398
3.6674
3.68883
3.66741
3.604
3.50083
3.36044
3.18411
2.97043
2.71425
2.40911
2.05746
1.68666
1.36403
1.55992
3.14864
3.42816
3.28802
3.11216
2.97511
2.8931
2.85618
2.84589
2.84828
2.85722
2.87157
2.89153
2.91629
2.94313
2.96795
2.98672
2.9967
1.34556
1.71669
2.16426
2.52104
2.79211
3.00846
3.18457
3.3237
3.42516
3.48716
3.50805
3.48717
3.42517
3.32365
3.18411
3.00652
2.78805
2.52354
2.2107
1.86205
1.51687
1.28215
2.17013
3.33093
3.3396
3.15543
2.98343
2.8693
2.81244
2.79271
2.78889
2.78845
2.78809
2.79043
2.80062
2.82303
2.85793
2.89923
2.93603
2.95753
1.14364
1.50424
1.93054
2.28537
2.56559
2.79026
2.971
3.11172
3.21309
3.27451
3.29511
3.27451
3.21309
3.11164
2.97043
2.78805
2.56116
2.28713
1.97181
1.63969
1.34627
1.40092
2.89148
3.32306
3.19343
3.02501
2.91326
2.86539
2.86001
2.87034
2.87664
2.86968
2.84856
2.81791
2.78642
2.76544
2.76548
2.78944
2.82616
2.85351
1.00937
1.30427
1.67617
2.01006
2.2925
2.52617
2.71497
2.86079
2.96468
3.02705
3.04787
3.02706
2.96468
2.86068
2.71425
2.52354
2.28713
2.00886
1.70535
1.41445
1.25565
2.17521
3.20529
3.2224
3.09913
3.02214
3.00887
3.03877
3.08322
3.11888
3.1328
3.12036
3.08174
3.02004
2.94138
2.85555
2.7759
2.71643
2.68456
2.67453
2.00215
1.22218
1.43205
1.71275
1.97922
2.21409
2.41007
2.56312
2.67212
2.73729
2.75898
2.7373
2.67213
2.56296
2.40911
2.2107
1.97181
1.70535
1.43993
1.25133
1.70089
3.00597
3.23823
3.18386
3.1527
3.18027
3.24965
3.33227
3.40367
3.45012
3.46647
3.45164
3.40595
3.33044
3.22699
3.09856
2.9496
2.78856
2.63719
2.53969
3.77726
2.25566
1.29367
1.4335
1.65079
1.86689
2.05892
2.21466
2.32783
2.3961
2.41889
2.39613
2.32783
2.21439
2.05746
1.86205
1.63969
1.41445
1.25133
1.57343
2.84407
3.24163
3.25355
3.26419
3.32814
3.43314
3.55051
3.65498
3.73309
3.78048
3.79646
3.78122
3.73489
3.6575
3.54875
3.40709
3.22779
3.00675
2.76987
2.60693
3.90723
3.63249
2.20201
1.31329
1.36492
1.52433
1.68919
1.83248
1.94104
2.00816
2.03082
2.00818
1.94098
1.83186
1.68666
1.51687
1.34627
1.25565
1.70089
2.84407
3.24087
3.29174
3.33565
3.43048
3.56674
3.7151
3.84917
3.95583
4.03163
4.07668
4.09166
4.07693
4.03239
3.95753
3.8514
3.7111
3.52825
3.29099
3.0251
2.84237
3.7358
3.71852
3.5009
2.53159
1.47042
1.29651
1.36872
1.47061
1.55731
1.61367
1.63311
1.61365
1.55701
1.46919
1.36403
1.28215
1.40092
2.17521
3.00597
3.24163
3.29174
3.35995
3.48186
3.64633
3.823
3.98411
4.11646
4.21726
4.28736
4.32843
4.34195
4.32853
4.28764
4.21797
4.11775
3.98388
3.80778
3.57515
3.30852
3.12491
3.5184
3.54971
3.57834
3.5029
3.09695
2.25478
1.57573
1.3511
1.31621
1.32497
1.33136
1.3249
1.31568
1.34842
1.55992
2.17013
2.89148
3.20529
3.23823
3.25355
3.33565
3.48186
3.67264
3.87609
4.06289
4.21905
4.34158
4.43141
4.4911
4.52441
4.53501
4.52446
4.49122
4.43166
4.34195
4.21833
4.05313
3.83173
3.57069
3.38704
3.31212
3.35613
3.42697
3.49361
3.51329
3.42854
3.1861
2.81169
2.43925
2.19573
2.11633
2.19831
2.44203
2.80478
3.14864
3.33093
3.32306
3.2224
3.18386
3.26419
3.43048
3.64633
3.87609
4.08872
4.26863
4.41147
4.51653
4.58509
4.62199
4.63661
4.6398
4.63663
4.622
4.58502
4.51629
4.41023
4.26068
4.05394
3.79955
3.6138
3.14937
3.19107
3.2615
3.34111
3.41142
3.45835
3.47261
3.45243
3.40899
3.3663
3.34943
3.36835
3.40981
3.44214
3.42816
3.3396
3.19343
3.09913
3.1527
3.32814
3.56674
3.823
4.06289
4.26863
4.43377
4.55431
4.6259
4.64615
4.62119
4.57598
4.55294
4.57594
4.621
4.64562
4.6249
4.55258
4.42762
4.24032
3.99477
3.80677
3.04662
3.0769
3.12957
3.19294
3.2562
3.3116
3.35462
3.38381
3.4006
3.40856
3.41138
3.40978
3.39871
3.36516
3.28802
3.15543
3.02501
3.02214
3.18027
3.43314
3.7151
3.98411
4.21905
4.41147
4.55431
4.6357
4.63509
4.51894
4.25344
3.91003
3.74286
3.90975
4.2526
4.51731
4.63271
4.63312
4.55004
4.38993
4.15705
3.96829
2.99921
3.01581
3.04607
3.08519
3.12792
3.16952
3.2063
3.23588
3.25722
3.27026
3.2751
3.27046
3.25111
3.20439
3.11216
2.98343
2.91326
3.00887
3.24965
3.55051
3.84917
4.11646
4.34158
4.51653
4.6259
4.63509
4.45319
3.81835
2.52748
1.59759
1.37301
1.59707
2.52463
3.81277
4.44763
4.63098
4.62353
4.50211
4.28665
4.09929
2.98703
2.99355
3.00632
3.02458
3.04677
3.0707
3.0939
3.11419
3.12998
3.14025
3.14405
3.13903
3.11858
3.06862
2.97511
2.8693
2.86539
3.03877
3.33227
3.65498
3.95583
4.21726
4.43141
4.58509
4.64615
4.51894
3.81835
1.89655
1.0095
0.909846
0.903942
0.909773
1.00885
1.88818
3.80442
4.51206
4.6458
4.57784
4.38404
4.20007
2.98937
2.99087
2.99428
3.00011
3.00841
3.01861
3.02962
3.04012
3.04892
3.05504
3.05721
3.05236
3.03254
2.98257
2.8931
2.81244
2.86001
3.08322
3.40367
3.73309
4.03163
4.28736
4.4911
4.62199
4.62119
4.25344
2.52748
1.0095
0.905665
0.936802
0.953061
0.936781
0.90556
1.00774
2.50492
4.2418
4.62294
4.62135
4.45066
4.27108
2.9942
2.99407
2.99411
2.99482
2.99654
2.99936
3.00299
3.00695
3.01069
3.01361
3.0145
3.00988
2.99087
2.94163
2.85618
2.79271
2.87034
3.11888
3.45012
3.78048
4.07668
4.32843
4.52441
4.63661
4.57598
3.91003
1.59759
0.909846
0.936802
0.990759
1.0119
0.990747
0.936783
0.909427
1.58207
3.89296
4.57949
4.64087
4.48894
4.31311
2.99754
2.99718
2.99661
2.99606
2.99577
2.99589
2.99646
2.99743
2.99867
2.99994
3.00018
2.99581
2.97754
2.9292
2.84589
2.78889
2.87664
3.1328
3.46647
3.79646
4.09166
4.34195
4.53501
4.6398
4.55294
3.74286
1.37301
0.903942
0.953061
1.0119
1.03425
1.01189
0.953058
0.903727
1.36135
3.72346
4.55717
4.64591
4.50135
4.327
2.99918
2.99895
2.99854
2.99803
2.99754
2.99715
2.99695
2.99703
2.99746
2.99816
2.99825
2.9943
2.97716
2.93057
2.84828
2.78845
2.86968
3.12036
3.45164
3.78122
4.07693
4.32853
4.52446
4.63663
4.57594
3.90975
1.59707
0.909773
0.936781
0.990747
1.01189
0.990734
0.936762
0.909355
1.58156
3.89268
4.57945
4.64088
4.48896
4.31313
2.9998
2.9997
2.9995
2.99924
2.99895
2.99867
2.99848
2.99846
2.99876
2.99937
2.99959
2.99635
2.98113
2.93793
2.85722
2.78809
2.84856
3.08174
3.40595
3.73489
4.03239
4.28764
4.49122
4.622
4.621
4.2526
2.52463
1.00885
0.90556
0.936783
0.953058
0.936762
0.905455
1.0071
2.50207
4.24092
4.62273
4.62133
4.45074
4.27118
2.99998
2.99995
2.99988
2.99978
2.99965
2.99953
2.99945
2.9995
2.99982
3.00046
3.00091
2.99864
2.98617
2.94834
2.87157
2.79043
2.81791
3.02004
3.33044
3.6575
3.95753
4.21797
4.43166
4.58502
4.64562
4.51731
3.81277
1.88818
1.00774
0.909427
0.903727
0.909355
1.0071
1.87984
3.79873
4.51034
4.64521
4.57777
4.38431
4.20046
3.00002
3.00001
2.99999
2.99995
2.99991
2.99988
2.99987
2.99996
3.00028
3.00094
3.00162
3.00043
2.99127
2.96059
2.89153
2.80062
2.78642
2.94138
3.22699
3.54875
3.8514
4.11775
4.34195
4.51629
4.6249
4.63271
4.44763
3.80442
2.50492
1.58207
1.36135
1.58156
2.50207
3.79873
4.44193
4.62843
4.62238
4.50191
4.2873
4.10037
3.00001
3.00001
3.00001
3
2.99999
2.99998
3
3.00009
3.00038
3.001
3.00185
3.00168
2.99597
2.97351
2.91629
2.82303
2.76544
2.85555
3.09856
3.40709
3.7111
3.98388
4.21833
4.41023
4.55258
4.63312
4.63098
4.51206
4.2418
3.89296
3.72346
3.89268
4.24092
4.51034
4.62843
4.63024
4.54794
4.38859
4.1571
3.9695
3.00001
3.00001
3.00001
3
3
3
3.00002
3.00009
3.00033
3.00088
3.0018
3.00246
2.99987
2.98563
2.94313
2.85793
2.76548
2.7759
2.9496
3.22779
3.52825
3.80778
4.05313
4.26068
4.42762
4.55004
4.62353
4.6458
4.62294
4.57949
4.55717
4.57945
4.62273
4.64521
4.62238
4.54794
4.42058
4.23101
3.98562
3.79993
3
3
3
3
3
3
3.00001
3.00006
3.00024
3.0007
3.00162
3.00284
3.0027
2.99557
2.96795
2.89923
2.78944
2.71643
2.78856
3.00675
3.29099
3.57515
3.83173
4.05394
4.24032
4.38993
4.50211
4.57784
4.62135
4.64087
4.64591
4.64088
4.62133
4.57777
4.50191
4.38859
4.23101
4.01459
3.75298
3.56744
3
3
3
3
3
3
3
3.00003
3.00016
3.00054
3.00142
3.00295
3.00446
3.00244
2.98672
2.93603
2.82616
2.68456
2.63719
2.76987
3.0251
3.30852
3.57069
3.79955
3.99477
4.15705
4.28665
4.38404
4.45066
4.48894
4.50135
4.48896
4.45074
4.38431
4.2873
4.1571
3.98562
3.75298
3.47114
3.27297
3
3
3
3
3
2.99999
2.99999
3.00002
3.00012
3.00045
3.00129
3.00296
3.00527
3.00589
2.9967
2.95753
2.85351
2.67453
2.53969
2.60693
2.84237
3.12491
3.38704
3.6138
3.80677
3.96829
4.09929
4.20007
4.27108
4.31311
4.327
4.31313
4.27118
4.20046
4.10037
3.9695
3.79993
3.56744
3.27297
3.05828
