# vtk DataFile Version 3.0
Brusselator Concentration Output
ASCII
DATASET STRUCTURED_POINTS
DIMENSIONS 40 40 1
ORIGIN 0.0 0.0 0.0
SPACING 0.005 0.005 1.0
POINT_DATA 1600
SCALARS C1 double 1
LOOKUP_TABLE default
0.359629
0.365974
0.375705
0.386067
0.396461
0.406974
0.417281
0.426673
0.434278
0.439255
0.440989
0.439249
0.434254
0.426603
0.417124
0.40672
0.396286
0.38674
0.379203
0.375395
0.378452
0.394588
0.436312
0.527584
0.708064
1.02689
1.52553
2.23627
3.35426
1.53992
0.653525
0.547199
0.555772
0.621033
0.736894
0.872916
0.975742
1.01851
1.02156
1.01561
0.365974
0.373178
0.384501
0.396915
0.409523
0.422325
0.434971
0.446639
0.456216
0.462555
0.464777
0.462547
0.456185
0.446553
0.434787
0.42205
0.409387
0.397756
0.388193
0.382169
0.382267
0.393501
0.425843
0.4984
0.643666
0.904841
1.32102
1.92184
2.75858
2.49961
0.807421
0.577148
0.568257
0.625571
0.732938
0.861761
0.963163
1.00968
1.01668
1.01257
0.375705
0.384501
0.398828
0.415149
0.432124
0.449654
0.467357
0.484145
0.498316
0.507913
0.511321
0.507902
0.498272
0.484026
0.467118
0.449331
0.43204
0.416257
0.402853
0.392893
0.388166
0.392119
0.411614
0.460038
0.561513
0.752538
1.07359
1.55594
2.21973
3.1451
1.28561
0.657524
0.593836
0.633868
0.726233
0.843445
0.942825
0.995347
1.00859
1.00733
0.386067
0.396915
0.415149
0.436731
0.459984
0.484843
0.510965
0.536864
0.559704
0.57573
0.581537
0.575713
0.559638
0.536691
0.510638
0.484439
0.459939
0.438124
0.419552
0.404775
0.394797
0.391742
0.400067
0.428861
0.495662
0.630577
0.874658
1.26675
1.83627
2.62983
2.33611
0.842102
0.636174
0.646715
0.7215
0.827185
0.925345
0.98424
1.00349
1.00469
0.396461
0.409523
0.432124
0.459984
0.491429
0.526802
0.566194
0.607822
0.64692
0.675815
0.6866
0.675786
0.646814
0.607563
0.565737
0.526281
0.491408
0.461668
0.436926
0.417009
0.402139
0.39342
0.393698
0.409269
0.453102
0.549636
0.737514
1.06118
1.55522
2.24119
3.09044
1.22195
0.708827
0.671049
0.730138
0.829389
0.929985
0.995853
1.01948
1.02139
0.406974
0.422325
0.449654
0.484843
0.526802
0.577169
0.637704
0.707398
0.778787
0.835539
0.857633
0.835486
0.778606
0.706988
0.637043
0.576483
0.526802
0.486845
0.45491
0.429624
0.410271
0.39707
0.391732
0.398734
0.427958
0.499312
0.647574
0.919043
1.35393
1.97825
2.86811
1.90721
0.848192
0.724271
0.77034
0.872162
0.985315
1.06732
1.10047
1.10409
0.417281
0.434971
0.467357
0.510965
0.566194
0.637704
0.732016
0.852973
0.99143
1.11212
1.16158
1.11201
0.991086
0.852284
0.731027
0.63678
0.566212
0.513331
0.473144
0.442263
0.418723
0.401841
0.392437
0.393736
0.413523
0.468309
0.588873
0.820397
1.2063
1.77237
2.53965
2.77775
1.12146
0.82155
0.840773
0.945501
1.0843
1.21296
1.29416
1.32464
0.426673
0.446639
0.484145
0.536864
0.607822
0.707398
0.852973
1.06383
1.33566
1.59244
1.70075
1.59221
1.33499
1.06264
0.851475
0.706146
0.60785
0.539626
0.490508
0.454052
0.426682
0.406754
0.39433
0.391734
0.405291
0.448967
0.54972
0.749114
1.08896
1.58895
2.24064
2.89624
1.44628
0.888834
0.838966
0.917778
1.06345
1.24104
1.40271
1.49844
0.434278
0.456216
0.498316
0.559704
0.64692
0.778787
0.99143
1.33566
1.81579
2.2623
2.43742
2.26191
1.81463
1.33373
0.989252
0.777144
0.646946
0.562841
0.505219
0.463806
0.433241
0.410946
0.39635
0.391112
0.400485
0.436347
0.521697
0.692049
0.982683
1.40514
1.93559
2.52148
1.36766
0.766816
0.68299
0.72818
0.838112
0.985387
1.12809
1.21627
0.439255
0.462555
0.507913
0.57573
0.675815
0.835539
1.11212
1.59244
2.2623
2.80421
2.98344
2.80376
2.26079
1.58979
1.10929
0.833549
0.675835
0.579146
0.515209
0.470296
0.437568
0.413729
0.397748
0.390793
0.39724
0.427
0.498827
0.641038
0.882155
1.23465
1.68632
2.17346
0.966354
0.579558
0.527228
0.551561
0.613452
0.696723
0.77633
0.824569
0.440989
0.464777
0.511321
0.581537
0.6866
0.857633
1.16158
1.70075
2.43742
2.98344
3.14883
2.983
2.43582
1.6978
1.15847
0.855505
0.686621
0.585062
0.518766
0.472574
0.439055
0.414614
0.397989
0.390001
0.394266
0.418933
0.479196
0.59891
0.808398
1.14269
1.63847
1.64787
0.662895
0.472814
0.446793
0.45656
0.483141
0.51819
0.550752
0.570162
0.439249
0.462547
0.507902
0.575713
0.675786
0.835486
1.11201
1.59221
2.26191
2.80376
2.983
2.8033
2.26039
1.58956
1.10919
0.833512
0.675824
0.579144
0.515201
0.470253
0.437425
0.413332
0.396737
0.388309
0.391226
0.412741
0.467205
0.581513
0.802869
1.20202
1.95661
1.06467
0.523159
0.434551
0.419551
0.420216
0.427199
0.436385
0.444374
0.448968
0.434254
0.456185
0.498272
0.559638
0.646814
0.778606
0.991086
1.33499
1.81463
2.26079
2.43582
2.26039
1.81349
1.33308
0.988936
0.776993
0.64687
0.562787
0.505137
0.463614
0.432778
0.409881
0.394009
0.386048
0.389437
0.412283
0.472875
0.612316
0.913248
1.46169
2.11299
0.764065
0.479194
0.433513
0.421875
0.41681
0.413238
0.409502
0.405887
0.403711
0.426603
0.446553
0.484026
0.536691
0.607563
0.706988
0.852284
1.06264
1.33373
1.58979
1.6978
1.58956
1.33308
1.06149
0.850828
0.705776
0.60761
0.539409
0.490201
0.453486
0.425579
0.404664
0.390503
0.384717
0.391999
0.42402
0.51006
0.71738
1.1629
2.03472
1.6576
0.639829
0.484589
0.455974
0.443906
0.433831
0.422905
0.411184
0.400963
0.395116
0.417124
0.434787
0.467118
0.510638
0.565737
0.637043
0.731027
0.851475
0.989252
1.10929
1.15847
1.10919
0.988936
0.850828
0.730083
0.636144
0.565708
0.512794
0.472378
0.441013
0.416683
0.398697
0.38781
0.386872
0.403308
0.456673
0.595967
0.919664
1.54322
2.74964
1.34376
0.629341
0.529109
0.503999
0.486848
0.469165
0.449822
0.430292
0.414194
0.405249
0.40672
0.42205
0.449331
0.484439
0.526281
0.576483
0.63678
0.706146
0.777144
0.833549
0.855505
0.833512
0.776993
0.705776
0.636144
0.575751
0.526062
0.485887
0.453489
0.427518
0.40742
0.393674
0.388164
0.395719
0.429214
0.522041
0.747335
1.21615
2.03257
3.33348
1.38815
0.766064
0.663887
0.615764
0.573335
0.533901
0.497493
0.465377
0.441
0.427984
0.396286
0.409387
0.43204
0.459939
0.491408
0.526802
0.566212
0.60785
0.646946
0.675835
0.686621
0.675824
0.64687
0.60761
0.565708
0.526062
0.490829
0.460519
0.43506
0.414528
0.399567
0.391656
0.3941
0.415501
0.478389
0.634272
0.971355
1.58625
2.56676
3.77262
2.6174
1.71261
1.39595
1.12926
0.886298
0.708483
0.596122
0.526566
0.484301
0.463861
0.38674
0.397756
0.416257
0.438124
0.461668
0.486845
0.513331
0.539626
0.562841
0.579146
0.585062
0.579144
0.562787
0.539409
0.512794
0.485887
0.460519
0.437767
0.418502
0.403784
0.395065
0.394827
0.409056
0.453311
0.563576
0.805679
1.25841
1.9635
2.86536
3.50748
3.57516
3.56585
3.61724
3.53659
2.80549
1.68795
0.996435
0.682797
0.563505
0.521298
0.379203
0.388193
0.402853
0.419552
0.436926
0.45491
0.473144
0.490508
0.505219
0.515209
0.518766
0.515201
0.505137
0.490201
0.472378
0.453489
0.43506
0.418502
0.405307
0.397083
0.39594
0.406329
0.43951
0.521232
0.699124
1.03179
1.53855
2.13985
2.57178
2.63022
2.55813
2.5618
2.65588
2.83523
3.12033
3.51583
3.21358
1.51728
0.816087
0.641679
0.375395
0.382169
0.392893
0.404775
0.417009
0.429624
0.442263
0.454052
0.463806
0.470296
0.472574
0.470253
0.463614
0.453486
0.441013
0.427518
0.414528
0.403784
0.397083
0.396418
0.405396
0.432704
0.497626
0.634699
0.884319
1.25183
1.66292
1.94493
1.98565
1.90562
1.85449
1.872
1.95428
2.10162
2.32176
2.62836
3.04935
3.61634
2.26789
1.14609
0.378452
0.382267
0.388166
0.394797
0.402139
0.410271
0.418723
0.426682
0.433241
0.437568
0.439055
0.437425
0.432778
0.425579
0.416683
0.40742
0.399567
0.395065
0.39594
0.405396
0.430665
0.487107
0.600526
0.797249
1.07177
1.35938
1.54056
1.55056
1.46029
1.37639
1.34348
1.36222
1.43008
1.55004
1.7303
1.98532
2.33861
2.81727
3.50082
3.60421
0.394588
0.393501
0.392119
0.391742
0.39342
0.39707
0.401841
0.406754
0.410946
0.413729
0.414614
0.413332
0.409881
0.404664
0.398697
0.393674
0.391656
0.394827
0.406329
0.432704
0.487107
0.589857
0.757162
0.974102
1.18148
1.29177
1.26923
1.16701
1.06428
1.00089
0.979438
0.995645
1.04938
1.14496
1.29084
1.50035
1.79365
2.20079
2.75733
3.3745
0.436312
0.425843
0.411614
0.400067
0.393698
0.391732
0.392437
0.39433
0.39635
0.397748
0.397989
0.396737
0.394009
0.390503
0.38781
0.388164
0.3941
0.409056
0.43951
0.497626
0.600526
0.757162
0.943315
1.09979
1.15794
1.10339
0.98665
0.871737
0.79158
0.747588
0.733393
0.745803
0.785864
0.858478
0.972543
1.14153
1.38437
1.72575
2.18164
2.64319
0.527584
0.4984
0.460038
0.428861
0.409269
0.398734
0.393736
0.391734
0.391112
0.390793
0.390001
0.388309
0.386048
0.384717
0.386872
0.395719
0.415501
0.453311
0.521232
0.634699
0.797249
0.974102
1.09979
1.11589
1.02716
0.890536
0.763603
0.673061
0.617399
0.58787
0.578515
0.587265
0.61544
0.667769
0.752977
0.884687
1.08194
1.36641
1.73971
2.09113
0.708064
0.643666
0.561513
0.495662
0.453102
0.427958
0.413523
0.405291
0.400485
0.39724
0.394266
0.391226
0.389437
0.391999
0.403308
0.429214
0.478389
0.563576
0.699124
0.884319
1.07177
1.18148
1.15794
1.02716
0.860558
0.7156
0.613958
0.55018
0.512703
0.49314
0.487019
0.492912
0.512021
0.548414
0.609887
0.709329
0.86562
1.09923
1.40476
1.67794
1.02689
0.904841
0.752538
0.630577
0.549636
0.499312
0.468309
0.448967
0.436347
0.427
0.418933
0.412741
0.412283
0.42402
0.456673
0.522041
0.634272
0.805679
1.03179
1.25183
1.35938
1.29177
1.10339
0.890536
0.7156
0.596174
0.521961
0.477722
0.452388
0.439397
0.435381
0.439291
0.452116
0.477171
0.521018
0.595074
0.717044
0.906423
1.15589
1.37179
1.52553
1.32102
1.07359
0.874658
0.737514
0.647574
0.588873
0.54972
0.521697
0.498827
0.479196
0.467205
0.472875
0.51006
0.595967
0.747335
0.971355
1.25841
1.53855
1.66292
1.54056
1.26923
0.98665
0.763603
0.613958
0.521961
0.467579
0.43616
0.418653
0.409881
0.407208
0.40982
0.418521
0.436
0.467687
0.52338
0.618956
0.772447
0.976864
1.15043
2.23627
1.92184
1.55594
1.26675
1.06118
0.919043
0.820397
0.749114
0.692049
0.641038
0.59891
0.581513
0.612316
0.71738
0.919664
1.21615
1.58625
1.9635
2.13985
1.94493
1.55056
1.16701
0.871737
0.673061
0.55018
0.477722
0.43616
0.412868
0.400299
0.394182
0.392351
0.394141
0.400223
0.412838
0.436564
0.479825
0.556658
0.683375
0.853809
0.99692
3.35426
2.75858
2.21973
1.83627
1.55522
1.35393
1.2063
1.08896
0.982683
0.882155
0.808398
0.802869
0.913248
1.1629
1.54322
2.03257
2.56676
2.86536
2.57178
1.98565
1.46029
1.06428
0.79158
0.617399
0.512703
0.452388
0.418653
0.400299
0.390723
0.386215
0.384893
0.386183
0.390673
0.400318
0.419126
0.454551
0.519181
0.627814
0.774939
0.897647
1.53992
2.49961
3.1451
2.62983
2.24119
1.97825
1.77237
1.58895
1.40514
1.23465
1.14269
1.20202
1.46169
2.03472
2.74964
3.33348
3.77262
3.50748
2.63022
1.90562
1.37639
1.00089
0.747588
0.58787
0.49314
0.439397
0.409881
0.394182
0.386215
0.38257
0.381523
0.382543
0.386175
0.394219
0.410365
0.441497
0.499315
0.597619
0.731271
0.842317
0.653525
0.807421
1.28561
2.33611
3.09044
2.86811
2.53965
2.24064
1.93559
1.68632
1.63847
1.95661
2.11299
1.6576
1.34376
1.38815
2.6174
3.57516
2.55813
1.85449
1.34348
0.979438
0.733393
0.578515
0.487019
0.435381
0.407208
0.392351
0.384893
0.381523
0.380562
0.381497
0.384856
0.392392
0.40769
0.437451
0.493071
0.588008
0.717243
0.824483
0.547199
0.577148
0.657524
0.842102
1.22195
1.90721
2.77775
2.89624
2.52148
2.17346
1.64787
1.06467
0.764065
0.639829
0.629341
0.766064
1.71261
3.56585
2.5618
1.872
1.36222
0.995645
0.745803
0.587265
0.492912
0.439291
0.40982
0.394141
0.386183
0.382543
0.381497
0.382516
0.386142
0.394175
0.410302
0.441403
0.49917
0.597398
0.730951
0.841913
0.555772
0.568257
0.593836
0.636174
0.708827
0.848192
1.12146
1.44628
1.36766
0.966354
0.662895
0.523159
0.479194
0.484589
0.529109
0.663887
1.39595
3.61724
2.65588
1.95428
1.43008
1.04938
0.785864
0.61544
0.512021
0.452116
0.418521
0.400223
0.390673
0.386175
0.384856
0.386142
0.390618
0.400238
0.419004
0.454358
0.518874
0.627333
0.774227
0.896735
0.621033
0.625571
0.633868
0.646715
0.671049
0.724271
0.82155
0.888834
0.766816
0.579558
0.472814
0.434551
0.433513
0.455974
0.503999
0.615764
1.12926
3.53659
2.83523
2.10162
1.55004
1.14496
0.858478
0.667769
0.548414
0.477171
0.436
0.412838
0.400318
0.394219
0.392392
0.394175
0.400238
0.412818
0.436482
0.479638
0.556294
0.682728
0.85277
0.995526
0.736894
0.732938
0.726233
0.7215
0.730138
0.77034
0.840773
0.838966
0.68299
0.527228
0.446793
0.419551
0.421875
0.443906
0.486848
0.573335
0.886298
2.80549
3.12033
2.32176
1.7303
1.29084
0.972543
0.752977
0.609887
0.521018
0.467687
0.436564
0.419126
0.410365
0.40769
0.410302
0.419004
0.436482
0.468156
0.5238
0.619242
0.772444
0.976387
1.14951
0.872916
0.861761
0.843445
0.827185
0.829389
0.872162
0.945501
0.917778
0.72818
0.551561
0.45656
0.420216
0.41681
0.433831
0.469165
0.533901
0.708483
1.68795
3.51583
2.62836
1.98532
1.50035
1.14153
0.884687
0.709329
0.595074
0.52338
0.479825
0.454551
0.441497
0.437451
0.441403
0.454358
0.479638
0.5238
0.598227
0.720527
0.910029
1.15936
1.37513
0.975742
0.963163
0.942825
0.925345
0.929985
0.985315
1.0843
1.06345
0.838112
0.613452
0.483141
0.427199
0.413238
0.422905
0.449822
0.497493
0.596122
0.996435
3.21358
3.04935
2.33861
1.79365
1.38437
1.08194
0.86562
0.717044
0.618956
0.556658
0.519181
0.499315
0.493071
0.49917
0.518874
0.556294
0.619242
0.720527
0.878769
1.11408
1.42113
1.69595
1.01851
1.00968
0.995347
0.98424
0.995853
1.06732
1.21296
1.24104
0.985387
0.696723
0.51819
0.436385
0.409502
0.411184
0.430292
0.465377
0.526566
0.682797
1.51728
3.61634
2.81727
2.20079
1.72575
1.36641
1.09923
0.906423
0.772447
0.683375
0.627814
0.597619
0.588008
0.597398
0.627333
0.682728
0.772444
0.910029
1.11408
1.40573
1.78703
2.14708
1.02156
1.01668
1.00859
1.00349
1.01948
1.10047
1.29416
1.40271
1.12809
0.77633
0.550752
0.444374
0.405887
0.400963
0.414194
0.441
0.484301
0.563505
0.816087
2.26789
3.50082
2.75733
2.18164
1.73971
1.40476
1.15589
0.976864
0.853809
0.774939
0.731271
0.717243
0.730951
0.774227
0.85277
0.976387
1.15936
1.42113
1.78703
2.27598
2.77727
1.01561
1.01257
1.00733
1.00469
1.02139
1.10409
1.32464
1.49844
1.21627
0.824569
0.570162
0.448968
0.403711
0.395116
0.405249
0.427984
0.463861
0.521298
0.641679
1.14609
3.60421
3.3745
2.64319
2.09113
1.67794
1.37179
1.15043
0.99692
0.897647
0.842317
0.824483
0.841913
0.896735
0.995526
1.14951
1.37513
1.69595
2.14708
2.77727
3.50634
SCALARS C2 double 1
LOOKUP_TABLE default
3.41621
3.54496
3.72396
3.88638
4.01869
4.12624
4.2127
4.27934
4.3266
4.35478
4.36413
4.35475
4.32649
4.27899
4.21188
4.12489
4.01797
3.8912
3.74466
3.57819
3.39087
3.18014
2.94026
2.66077
2.32932
1.94669
1.54536
1.17934
0.963248
3.83728
4.34463
4.14007
3.85466
3.54411
3.25197
3.03746
2.93944
2.93372
2.96021
2.97923
3.54496
3.66936
3.84363
4.00398
4.13511
4.24112
4.32556
4.39
4.43522
4.46193
4.47075
4.4619
4.43511
4.38967
4.3248
4.23989
4.13469
4.00921
3.86359
3.69785
3.51145
3.30256
3.06678
2.79566
2.47782
2.10932
1.71226
1.33486
1.03769
2.66769
4.28568
4.16101
3.88602
3.57993
3.28953
3.07095
2.96237
2.94561
2.96591
2.98294
3.72396
3.84363
4.01271
4.16916
4.29641
4.39766
4.47644
4.53474
4.57425
4.59683
4.60412
4.59681
4.57416
4.53447
4.47578
4.39659
4.29617
4.17441
4.03161
3.86813
3.68403
3.47845
3.24872
2.9889
2.68925
2.34099
1.95154
1.55674
1.21133
1.2108
3.93056
4.18003
3.94057
3.64491
3.35682
3.12979
3.00278
2.96768
2.97793
2.99185
3.88638
4.00398
4.16916
4.31987
4.43974
4.53179
4.59948
4.64544
4.67305
4.68676
4.69074
4.68675
4.67301
4.64528
4.59899
4.53088
4.43943
4.32449
4.18673
4.02706
3.84623
3.64436
3.42021
3.17002
2.88615
2.55794
2.18126
1.77638
1.3911
1.09549
2.70671
4.13411
4.00098
3.72385
3.43679
3.197
3.04791
2.99299
2.99352
3.0051
4.01869
4.13511
4.29641
4.43974
4.54908
4.62707
4.67662
4.70091
4.70615
4.70227
4.69948
4.70228
4.70618
4.7009
4.67638
4.62639
4.54865
4.44349
4.31246
4.15739
3.97994
3.78114
3.56089
3.31708
3.0441
2.7319
2.3704
1.96615
1.55733
1.20257
1.35913
3.87958
4.03886
3.79155
3.50112
3.2432
3.07086
2.99953
2.99565
3.00871
4.12624
4.24112
4.39766
4.53179
4.62707
4.6846
4.70521
4.69143
4.65352
4.61294
4.59538
4.61298
4.65366
4.69166
4.70534
4.68425
4.62657
4.53465
4.41208
4.26232
4.08826
3.89189
3.67411
3.43402
3.16766
2.86639
2.51819
2.12032
1.70037
1.31399
1.07681
3.16559
4.00135
3.80715
3.50325
3.21612
3.01474
2.92746
2.92521
2.94602
4.2127
4.32556
4.47644
4.59948
4.67662
4.70521
4.68025
4.59884
4.47443
4.35267
4.3006
4.35277
4.47476
4.59946
4.68089
4.70529
4.6761
4.60147
4.48923
4.34556
4.17504
3.98083
3.76471
3.52672
3.26414
2.96973
2.63155
2.24195
1.81989
1.41735
1.10337
1.9634
3.77247
3.70588
3.3823
3.05618
2.81006
2.67899
2.6505
2.66552
4.27934
4.39
4.53474
4.64544
4.70091
4.69143
4.59884
4.40222
4.11019
3.81816
3.69212
3.8184
4.11092
4.40349
4.60021
4.69205
4.70039
4.6466
4.54601
4.40887
4.24197
4.04977
3.83489
3.5981
3.33758
3.04731
2.71655
2.33682
1.92247
1.52154
1.19603
1.32181
3.3021
3.49648
3.19937
2.87348
2.59178
2.37611
2.23916
2.17788
4.3266
4.43522
4.57425
4.67305
4.70615
4.65352
4.47443
4.11019
3.55705
3.02023
2.80396
3.02066
3.55837
4.1124
4.47674
4.65475
4.70565
4.67346
4.58423
4.45319
4.28956
4.09908
3.8851
3.64894
3.38939
3.10176
2.77804
2.41316
2.02087
1.64259
1.33305
1.34626
3.15518
3.44413
3.20365
2.92708
2.65739
2.40731
2.20882
2.09896
4.35478
4.46193
4.59683
4.68676
4.70227
4.61294
4.35267
3.81816
3.02023
2.33921
2.10265
2.33972
3.02201
3.8213
4.35585
4.61468
4.70178
4.68664
4.60592
4.47931
4.31799
4.12866
3.91514
3.67908
3.41992
3.13525
2.82244
2.48286
2.1283
1.78509
1.49578
1.75507
3.54308
3.59306
3.37962
3.15692
2.92858
2.70215
2.51473
2.40972
4.36413
4.47075
4.60412
4.69074
4.69948
4.59538
4.3006
3.69212
2.80396
2.10265
1.87615
2.10315
2.80587
3.69565
4.30416
4.59732
4.699
4.69043
4.61291
4.48791
4.32739
4.13832
3.92465
3.68826
3.43017
3.15255
2.86008
2.55656
2.24054
1.91137
1.61163
2.81612
3.88533
3.77259
3.59824
3.42437
3.23998
3.05019
2.88924
2.7981
4.35475
4.4619
4.59681
4.68675
4.70228
4.61298
4.35277
3.8184
3.02066
2.33972
2.10315
2.34023
3.02244
3.82153
4.35594
4.6147
4.70178
4.68662
4.6059
4.47924
4.31773
4.12785
3.91337
3.67721
3.42425
3.1632
2.90093
2.62876
2.31363
1.93566
1.69459
3.78383
4.08294
3.95805
3.82617
3.6911
3.54026
3.37751
3.23454
3.1519
4.32649
4.43511
4.57416
4.67301
4.70618
4.65366
4.47476
4.11092
3.55837
3.02201
2.80587
3.02244
3.55967
4.11311
4.47704
4.65485
4.70565
4.67342
4.58414
4.45292
4.28872
4.09701
3.88197
3.64984
3.41146
3.17702
2.93983
2.65757
2.26195
1.76174
2.34614
4.21082
4.24827
4.15401
4.05766
3.95138
3.82337
3.67697
3.54264
3.46284
4.27899
4.38967
4.53447
4.64528
4.7009
4.69166
4.59946
4.40349
4.1124
3.8213
3.69565
3.82153
4.11311
4.40472
4.60079
4.69224
4.70037
4.64645
4.54567
4.408
4.23989
4.04632
3.83419
3.61522
3.40131
3.18854
2.93643
2.56296
2.02291
1.46134
3.39561
4.42227
4.41409
4.35247
4.28332
4.19767
4.08579
3.95068
3.82126
3.74208
4.21188
4.3248
4.47578
4.59899
4.67638
4.70534
4.68089
4.60021
4.47674
4.35585
4.30416
4.35594
4.47704
4.60079
4.68148
4.70539
4.67588
4.60097
4.48819
4.34334
4.17138
3.97924
3.77876
3.5824
3.3879
3.15933
2.81901
2.2938
1.66085
1.27851
3.9862
4.56438
4.56728
4.5327
4.4845
4.41615
4.31982
4.19695
4.07359
3.99555
4.12489
4.23989
4.39659
4.53088
4.62639
4.68425
4.70529
4.69205
4.65475
4.61468
4.59732
4.6147
4.65485
4.69224
4.70539
4.68391
4.6259
4.53345
4.40977
4.25859
4.08624
3.90406
3.72425
3.54533
3.33559
3.0273
2.54648
1.9212
1.32516
1.2431
4.12354
4.60874
4.64669
4.64531
4.62647
4.58489
4.51296
4.40972
4.29763
4.22324
4.01797
4.13469
4.29617
4.43943
4.54865
4.62657
4.6761
4.70039
4.70565
4.70178
4.699
4.70178
4.70565
4.70037
4.67588
4.6259
4.54795
4.44199
4.30982
4.15649
3.99242
3.82901
3.66486
3.47157
3.19116
2.75884
2.17719
1.57118
1.07788
0.99932
2.92862
3.84846
4.14887
4.3872
4.55794
4.63644
4.6354
4.57481
4.48589
4.4203
3.8912
4.00921
4.17441
4.32449
4.44349
4.53465
4.60147
4.6466
4.67346
4.68664
4.69043
4.68662
4.67342
4.64645
4.60097
4.53345
4.44199
4.32668
4.19123
4.04492
3.89807
3.74887
3.57114
3.31467
2.9253
2.39696
1.8163
1.3077
0.958298
0.835625
0.888205
0.951701
1.05826
1.43517
2.54288
3.86517
4.49137
4.63981
4.61863
4.5748
3.74466
3.86359
4.03161
4.18673
4.31246
4.41208
4.48923
4.54601
4.58423
4.60592
4.61291
4.6059
4.58414
4.54567
4.48819
4.40977
4.30982
4.19123
4.06232
3.93237
3.79878
3.63655
3.40101
3.04693
2.568
2.02937
1.54139
1.19641
1.03921
1.03633
1.06728
1.06646
1.03651
0.986847
0.933035
0.974973
2.02795
4.06907
4.59814
4.65149
3.57819
3.69785
3.86813
4.02706
4.15739
4.26232
4.34556
4.40887
4.45319
4.47931
4.48791
4.47924
4.45292
4.408
4.34334
4.25859
4.15649
4.04492
3.93237
3.81534
3.669
3.45214
3.12631
2.68823
2.19394
1.74367
1.42668
1.28257
1.28572
1.33867
1.36601
1.35572
1.3133
1.24378
1.15254
1.04731
0.947184
1.08952
3.29114
4.40306
3.39087
3.51145
3.68403
3.84623
3.97994
4.08826
4.17504
4.24197
4.28956
4.31799
4.32739
4.31773
4.28872
4.23989
4.17138
4.08624
3.99242
3.89807
3.79878
3.669
3.46908
3.16549
2.75918
2.30396
1.89529
1.61661
1.50036
1.52397
1.60698
1.67206
1.69578
1.68035
1.62929
1.54582
1.43385
1.29843
1.14694
0.995524
0.922341
1.72252
3.18014
3.30256
3.47845
3.64436
3.78114
3.89189
3.98083
4.04977
4.09908
4.12866
4.13832
4.12785
4.09701
4.04632
3.97924
3.90406
3.82901
3.74887
3.63655
3.45214
3.16549
2.7826
2.35868
1.98767
1.74882
1.66774
1.72132
1.83885
1.94394
2.00713
2.02843
2.01045
1.95472
1.86276
1.73684
1.58038
1.39894
1.20183
1.00535
0.856525
2.94026
3.06678
3.24872
3.42021
3.56089
3.67411
3.76471
3.83489
3.8851
3.91514
3.92465
3.91337
3.88197
3.83419
3.77876
3.72425
3.66486
3.57114
3.40101
3.12631
2.75918
2.35868
2.01854
1.81591
1.77137
1.85912
2.0124
2.15574
2.25722
2.31633
2.33601
2.31752
2.26127
2.16734
2.0358
1.86743
1.66533
1.4378
1.20425
1.02466
2.66077
2.79566
2.9889
3.17002
3.31708
3.43402
3.52672
3.5981
3.64894
3.67908
3.68826
3.67721
3.64984
3.61522
3.5824
3.54533
3.47157
3.31467
3.04693
2.68823
2.30396
1.98767
1.81591
1.80625
1.92915
2.11794
2.2972
2.43399
2.52817
2.58354
2.60194
2.58401
2.5297
2.43832
2.30834
2.13771
1.92573
1.67821
1.42043
1.22774
2.32932
2.47782
2.68925
2.88615
3.0441
3.16766
3.26414
3.33758
3.38939
3.41992
3.43017
3.42425
3.41146
3.40131
3.3879
3.33559
3.19116
2.9253
2.568
2.19394
1.89529
1.74882
1.77137
1.92915
2.15317
2.36734
2.53792
2.66516
2.75377
2.80626
2.82372
2.80653
2.75456
2.66702
2.54185
2.37523
2.16286
1.90647
1.63448
1.4345
1.94669
2.10932
2.34099
2.55794
2.7319
2.86639
2.96973
3.04731
3.10176
3.13525
3.15255
3.1632
3.17702
3.18854
3.15933
3.0273
2.75884
2.39696
2.02937
1.74367
1.61661
1.66774
1.85912
2.11794
2.36734
2.57212
2.73219
2.85309
2.9381
2.98874
3.00563
2.98897
2.93871
2.85431
2.73389
2.57317
2.36563
2.10905
1.83196
1.62966
1.54536
1.71226
1.95154
2.18126
2.3704
2.51819
2.63155
2.71655
2.77804
2.82244
2.86008
2.90093
2.93983
2.93643
2.81901
2.54648
2.17719
1.8163
1.54139
1.42668
1.50036
1.72132
2.0124
2.2972
2.53792
2.73219
2.88575
3.0029
3.08587
3.13554
3.15215
3.13576
3.08645
3.004
2.88698
2.73137
2.52984
2.27751
2.00149
1.80058
1.17934
1.33486
1.55674
1.77638
1.96615
2.12032
2.24195
2.33682
2.41316
2.48286
2.55656
2.62876
2.65757
2.56296
2.2938
1.9212
1.57118
1.3077
1.19641
1.28257
1.52397
1.83885
2.15574
2.43399
2.66516
2.85309
3.0029
3.11801
3.19999
3.24926
3.26576
3.24947
3.20057
3.1191
3.0041
2.85202
2.65553
2.40834
2.13608
1.93832
0.963248
1.03769
1.21133
1.3911
1.55733
1.70037
1.81989
1.92247
2.02087
2.1283
2.24054
2.31363
2.26195
2.02291
1.66085
1.32516
1.07788
0.958298
1.03921
1.28572
1.60698
1.94394
2.25722
2.52817
2.75377
2.9381
3.08587
3.19999
3.28159
3.33074
3.34722
3.33095
3.28216
3.20109
3.08712
2.93715
2.74409
2.50109
2.23267
2.03812
3.83728
2.66769
1.2108
1.09549
1.20257
1.31399
1.41735
1.52154
1.64259
1.78509
1.91137
1.93566
1.76174
1.46134
1.27851
1.2431
0.99932
0.835625
1.03633
1.33867
1.67206
2.00713
2.31633
2.58354
2.80626
2.98874
3.13554
3.24926
3.33074
3.37989
3.39637
3.38009
3.3313
3.25036
3.13684
2.98794
2.79679
2.55635
2.29057
2.09823
4.34463
4.28568
3.93056
2.70671
1.35913
1.07681
1.10337
1.19603
1.33305
1.49578
1.61163
1.69459
2.34614
3.39561
3.9862
4.12354
2.92862
0.888205
1.06728
1.36601
1.69578
2.02843
2.33601
2.60194
2.82372
3.00563
3.15215
3.26576
3.34722
3.39637
3.41286
3.39657
3.34778
3.26686
3.15348
3.0049
2.81437
2.5748
2.30993
2.11838
4.14007
4.16101
4.18003
4.13411
3.87958
3.16559
1.9634
1.32181
1.34626
1.75507
2.81612
3.78383
4.21082
4.42227
4.56438
4.60874
3.84846
0.951701
1.06646
1.35572
1.68035
2.01045
2.31752
2.58401
2.80653
2.98897
3.13576
3.24947
3.33095
3.38009
3.39657
3.3803
3.33151
3.25058
3.13709
2.98822
2.79711
2.55671
2.29096
2.09865
3.85466
3.88602
3.94057
4.00098
4.03886
4.00135
3.77247
3.3021
3.15518
3.54308
3.88533
4.08294
4.24827
4.41409
4.56728
4.64669
4.14887
1.05826
1.03651
1.3133
1.62929
1.95472
2.26127
2.5297
2.75456
2.93871
3.08645
3.20057
3.28216
3.3313
3.34778
3.33151
3.28274
3.2017
3.08777
2.93786
2.74487
2.50193
2.23358
2.03907
3.54411
3.57993
3.64491
3.72385
3.79155
3.80715
3.70588
3.49648
3.44413
3.59306
3.77259
3.95805
4.15401
4.35247
4.5327
4.64531
4.3872
1.43517
0.986847
1.24378
1.54582
1.86276
2.16734
2.43832
2.66702
2.85431
3.004
3.1191
3.20109
3.25036
3.26686
3.25058
3.2017
3.12025
3.00529
2.85327
2.65684
2.40972
2.13752
1.93983
3.25197
3.28953
3.35682
3.43679
3.50112
3.50325
3.3823
3.19937
3.20365
3.37962
3.59824
3.82617
4.05766
4.28332
4.4845
4.62647
4.55794
2.54288
0.933035
1.15254
1.43385
1.73684
2.0358
2.30834
2.54185
2.73389
2.88698
3.0041
3.08712
3.13684
3.15348
3.13709
3.08777
3.00529
2.88824
2.73258
2.531
2.27867
2.00274
1.80195
3.03746
3.07095
3.12979
3.197
3.2432
3.21612
3.05618
2.87348
2.92708
3.15692
3.42437
3.6911
3.95138
4.19767
4.41615
4.58489
4.63644
3.86517
0.974973
1.04731
1.29843
1.58038
1.86743
2.13771
2.37523
2.57317
2.73137
2.85202
2.93715
2.98794
3.0049
2.98822
2.93786
2.85327
2.73258
2.57153
2.36373
2.10716
1.8304
1.62842
2.93944
2.96237
3.00278
3.04791
3.07086
3.01474
2.81006
2.59178
2.65739
2.92858
3.23998
3.54026
3.82337
4.08579
4.31982
4.51296
4.6354
4.49137
2.02795
0.947184
1.14694
1.39894
1.66533
1.92573
2.16286
2.36563
2.52984
2.65553
2.74409
2.79679
2.81437
2.79711
2.74487
2.65684
2.531
2.36373
2.15112
1.89537
1.62477
1.42579
2.93372
2.94561
2.96768
2.99299
2.99953
2.92746
2.67899
2.37611
2.40731
2.70215
3.05019
3.37751
3.67697
3.95068
4.19695
4.40972
4.57481
4.63981
4.06907
1.08952
0.995524
1.20183
1.4378
1.67821
1.90647
2.10905
2.27751
2.40834
2.50109
2.55635
2.5748
2.55671
2.50193
2.40972
2.27867
2.10716
1.89537
1.64988
1.39547
1.2052
2.96021
2.96591
2.97793
2.99352
2.99565
2.92521
2.6505
2.23916
2.20882
2.51473
2.88924
3.23454
3.54264
3.82126
4.07359
4.29763
4.48589
4.61863
4.59814
3.29114
0.922341
1.00535
1.20425
1.42043
1.63448
1.83196
2.00149
2.13608
2.23267
2.29057
2.30993
2.29096
2.23358
2.13752
2.00274
1.8304
1.62477
1.39547
1.16198
0.982493
2.97923
2.98294
2.99185
3.0051
3.00871
2.94602
2.66552
2.17788
2.09896
2.40972
2.7981
3.1519
3.46284
3.74208
3.99555
4.22324
4.4203
4.5748
4.65149
4.40306
1.72252
0.856525
1.02466
1.22774
1.4345
1.62966
1.80058
1.93832
2.03812
2.09823
2.11838
2.09865
2.03907
1.93983
1.80195
1.62842
1.42579
1.2052
0.982493
0.806799
