# vtk DataFile Version 3.0
Brusselator Concentration Output
ASCII
DATASET STRUCTURED_POINTS
DIMENSIONS 40 40 1
ORIGIN 0.0 0.0 0.0
SPACING 0.005 0.005 1.0
POINT_DATA 1600
SCALARS C1 double 1
LOOKUP_TABLE default
1
1
1.00001
1.00002
1.00005
1.00012
1.00024
1.00041
1.00057
1.00068
1.00072
1.00068
1.00057
1.00041
1.00024
1.00012
1.00005
1.00002
1.00001
1
1
1
1
1
1
1
1
1
1
1
1
1
1
1
1
1
1
1
1
1
1
1.00001
1.00002
1.00006
1.00015
1.00033
1.00061
1.00093
1.00119
1.00131
1.00134
1.00131
1.00119
1.00093
1.00061
1.00033
1.00015
1.00006
1.00002
1.00001
1
1
1
1
1
1
1
1
1
1
1
1
1
1
1
1
1
1
1
1
1.00001
1.00002
1.00006
1.00018
1.00045
1.00091
1.00151
1.00199
1.00206
1.00181
1.00166
1.00181
1.00206
1.00199
1.00151
1.00091
1.00045
1.00018
1.00006
1.00002
1.00001
1
1
1
1
1
1
1
1
1
1
1
1
1
1
1
1
1
1
1
1.00002
1.00006
1.00018
1.00049
1.00112
1.00203
1.00275
1.00236
1.00048
0.998166
0.997169
0.998166
1.00048
1.00236
1.00275
1.00203
1.00112
1.00049
1.00018
1.00006
1.00002
1
1
1
1
1
1
1
1
1
1
1
1
1
1
1
1
1
1
1
1.00005
1.00015
1.00045
1.00112
1.00224
1.00318
1.00209
0.996798
0.987813
0.979504
0.976321
0.979504
0.987813
0.996798
1.00209
1.00318
1.00224
1.00112
1.00045
1.00015
1.00004
1.00001
1
1
1
1
1
1
1
1
1
1
1
1
1
1
1
1
1
1
1.00012
1.00033
1.00091
1.00203
1.00318
1.00186
0.993275
0.974504
0.950515
0.931997
0.925623
0.931997
0.950515
0.974504
0.993275
1.00186
1.00318
1.00203
1.00091
1.00033
1.0001
1.00003
1.00001
1
1
1
1
1
1
1
1
1
1
1
1
1
1
1
1
1
1.00024
1.00061
1.00151
1.00275
1.00209
0.993275
0.968233
0.927234
0.884697
0.85732
0.849196
0.85732
0.884697
0.927234
0.968233
0.993275
1.00209
1.00275
1.00151
1.0006
1.00019
1.00005
1.00001
1
1
1
1
1
1
1
1
1
1
1
1
1
1
1
1
1
1.00041
1.00093
1.00199
1.00236
0.996798
0.974504
0.927234
0.864325
0.810626
0.783584
0.778108
0.783584
0.810626
0.864325
0.927234
0.974504
0.996798
1.00236
1.00198
1.00091
1.00032
1.00009
1.00002
1
1
1
1
1
1
1
1
1
1
1
1
1
1
1
1
1
1.00057
1.00119
1.00206
1.00048
0.987813
0.950515
0.884697
0.810626
0.75953
0.745097
0.748375
0.745097
0.75953
0.810626
0.884697
0.950514
0.987813
1.00048
1.00205
1.00115
1.00044
1.00013
1.00003
1.00001
1
1
1
1
1
1
1
1
1
1
1
1
1
1
1
1
1.00068
1.00131
1.00181
0.998166
0.979504
0.931997
0.85732
0.783584
0.745097
0.752319
0.770098
0.752319
0.745097
0.783584
0.85732
0.931997
0.979503
0.998164
1.0018
1.00127
1.00052
1.00016
1.00004
1.00001
1
1
1
1
1
1
1
1
1
1
1
1
1
1
1
1
1.00072
1.00134
1.00166
0.997169
0.976321
0.925623
0.849196
0.778108
0.748375
0.770098
0.797823
0.770098
0.748375
0.778108
0.849196
0.925623
0.97632
0.997166
1.00165
1.0013
1.00055
1.00018
1.00005
1.00001
1
1
1
1
1
1
1
1
1
1
1
1
1
1
1
1
1.00068
1.00131
1.00181
0.998166
0.979504
0.931997
0.85732
0.783584
0.745097
0.752319
0.770098
0.752319
0.745097
0.783584
0.85732
0.931997
0.979503
0.998164
1.0018
1.00127
1.00052
1.00016
1.00004
1.00001
1
1
1
1
1
1
1
1
1
1
1
1
1
1
1
1
1.00057
1.00119
1.00206
1.00048
0.987813
0.950515
0.884697
0.810626
0.75953
0.745097
0.748375
0.745097
0.75953
0.810626
0.884697
0.950514
0.987813
1.00048
1.00205
1.00115
1.00044
1.00013
1.00003
1.00001
1
1
1
1
1
1
1
1
1
1
1
1
1
1
1
1
1.00041
1.00093
1.00199
1.00236
0.996798
0.974504
0.927234
0.864325
0.810626
0.783584
0.778108
0.783584
0.810626
0.864325
0.927234
0.974504
0.996798
1.00236
1.00198
1.00091
1.00032
1.00009
1.00002
1
1
1
1
1
1
1
1
1
1
1
1
1
1
1
1
1
1.00024
1.00061
1.00151
1.00275
1.00209
0.993275
0.968233
0.927234
0.884697
0.85732
0.849196
0.85732
0.884697
0.927234
0.968233
0.993275
1.00209
1.00275
1.00151
1.0006
1.00019
1.00005
1.00001
1
1
1
1
1
1
1
1
1
1
1
1
1
1
1
1
1
1.00012
1.00033
1.00091
1.00203
1.00318
1.00186
0.993275
0.974504
0.950514
0.931997
0.925623
0.931997
0.950514
0.974504
0.993275
1.00186
1.00318
1.00203
1.00091
1.00033
1.0001
1.00003
1.00001
1
1
1
1
1
1
1
1
1
1
1
1
1
1
1
1
1
1.00005
1.00015
1.00045
1.00112
1.00224
1.00318
1.00209
0.996798
0.987813
0.979503
0.97632
0.979503
0.987813
0.996798
1.00209
1.00318
1.00224
1.00112
1.00045
1.00015
1.00004
1.00001
1
1
1
1
1
1
1
0.999999
0.999999
0.999999
1
1
1
1
1
1
1
1
1.00002
1.00006
1.00018
1.00049
1.00112
1.00203
1.00275
1.00236
1.00048
0.998164
0.997166
0.998164
1.00048
1.00236
1.00275
1.00203
1.00112
1.00049
1.00018
1.00006
1.00002
1
1
1
1
1
0.999999
0.999999
0.999998
0.999997
0.999997
0.999997
0.999998
0.999999
0.999999
1
1
1
1
1
1.00001
1.00002
1.00006
1.00018
1.00045
1.00091
1.00151
1.00198
1.00205
1.0018
1.00165
1.0018
1.00205
1.00198
1.00151
1.00091
1.00045
1.00018
1.00006
1.00002
1.00001
1
1
1
0.999999
0.999998
0.999996
0.999993
0.99999
0.999987
0.999986
0.999987
0.99999
0.999993
0.999996
0.999998
0.999999
1
1
1
1
1.00001
1.00002
1.00006
1.00015
1.00033
1.0006
1.00091
1.00115
1.00127
1.0013
1.00127
1.00115
1.00091
1.0006
1.00033
1.00015
1.00006
1.00002
1.00001
1
1
1
0.999999
0.999997
0.999993
0.999985
0.999973
0.99996
0.99995
0.999946
0.99995
0.99996
0.999973
0.999985
0.999993
0.999997
0.999999
1
1
1
1
1.00001
1.00002
1.00004
1.0001
1.00019
1.00032
1.00044
1.00052
1.00055
1.00052
1.00044
1.00032
1.00019
1.0001
1.00004
1.00002
1.00001
1
1
1
0.999999
0.999995
0.999988
0.999971
0.999943
0.999904
0.999863
0.999834
0.999823
0.999834
0.999863
0.999904
0.999943
0.999971
0.999988
0.999995
0.999998
0.999999
1
1
1
1
1.00001
1.00003
1.00005
1.00009
1.00013
1.00016
1.00018
1.00016
1.00013
1.00009
1.00005
1.00003
1.00001
1
1
1
1
0.999998
0.999994
0.999983
0.999957
0.999903
0.999816
0.999708
0.99961
0.999551
0.999533
0.999551
0.99961
0.999708
0.999816
0.999903
0.999957
0.999983
0.999994
0.999998
1
1
1
1
1
1.00001
1.00001
1.00002
1.00003
1.00004
1.00005
1.00004
1.00003
1.00002
1.00001
1.00001
1
1
1
1
0.999999
0.999994
0.999982
0.999947
0.999867
0.999718
0.999504
0.999286
0.999157
0.999143
0.999159
0.999143
0.999157
0.999286
0.999504
0.999718
0.999867
0.999947
0.999981
0.999993
1
1
1
1
1
1
1
1
1.00001
1.00001
1.00001
1.00001
1.00001
1
1
1
1
1
1
0.999999
0.999995
0.999983
0.999947
0.999852
0.999652
0.999322
0.99895
0.998781
0.999041
0.999569
0.999836
0.999569
0.999041
0.998781
0.99895
0.999322
0.999652
0.999852
0.999946
0.999979
1
1
1
1
1
1
1
1
1
1
1
1
1
1
1
1
1
1
0.999999
0.999997
0.999988
0.999957
0.999867
0.999652
0.999249
0.998735
0.998556
0.999499
1.00195
1.0048
1.00603
1.0048
1.00195
0.999499
0.998556
0.998735
0.999249
0.999651
0.999864
0.999944
1
1
1
1
1
1
1
1
1
1
1
1
1
1
1
1
1
1
0.999998
0.999993
0.999971
0.999903
0.999718
0.999322
0.998735
0.998491
1.0001
1.00562
1.01521
1.0246
1.02823
1.0246
1.01521
1.00562
1.0001
0.998491
0.998735
0.999321
0.999711
0.999874
1
1
1
1
1
1
1
1
1
1
1
1
1
1
1
1
1
0.999999
0.999996
0.999985
0.999943
0.999816
0.999504
0.99895
0.998556
1.0001
1.0075
1.02495
1.05019
1.0707
1.07717
1.0707
1.05019
1.02495
1.0075
1.0001
0.998555
0.998947
0.999489
0.999759
1
1
1
1
1
1
1
1
1
1
1
1
1
1
1
1
1
0.999999
0.999993
0.999973
0.999904
0.999708
0.999286
0.998781
0.999499
1.00562
1.02495
1.0629
1.10668
1.12889
1.13093
1.12889
1.10668
1.0629
1.02495
1.00562
0.999498
0.998775
0.999259
0.999612
1
1
1
1
1
1
1
1
1
1
1
1
1
1
1
1
1
0.999998
0.99999
0.99996
0.999863
0.99961
0.999157
0.999041
1.00195
1.01521
1.05019
1.10668
1.14621
1.13468
1.11793
1.13468
1.14621
1.10668
1.05019
1.01521
1.00194
0.999031
0.999117
0.999473
1
1
1
1
1
1
1
1
1
1
1
1
1
1
1
1
0.999999
0.999997
0.999987
0.99995
0.999834
0.999551
0.999143
0.999569
1.0048
1.0246
1.0707
1.12889
1.13468
1.07476
1.03979
1.07476
1.13468
1.12889
1.0707
1.0246
1.0048
0.999556
0.999093
0.999385
1
1
1
1
1
1
1
1
1
1
1
1
1
1
1
1
0.999999
0.999997
0.999986
0.999946
0.999823
0.999533
0.999159
0.999836
1.00603
1.02823
1.07717
1.13093
1.11793
1.03979
0.999377
1.03979
1.11793
1.13093
1.07717
1.02823
1.00603
0.999822
0.999105
0.999357
1
1
1
1
1
1
1
1
1
1
1
1
1
1
1
1
0.999999
0.999997
0.999987
0.99995
0.999834
0.999551
0.999143
0.999569
1.0048
1.0246
1.0707
1.12889
1.13468
1.07476
1.03979
1.07476
1.13468
1.12889
1.0707
1.0246
1.0048
0.999556
0.999093
0.999385
1
1
1
1
1
1
1
1
1
1
1
1
1
1
1
1
1
0.999998
0.99999
0.99996
0.999863
0.99961
0.999157
0.999041
1.00195
1.01521
1.05019
1.10668
1.14621
1.13468
1.11793
1.13468
1.14621
1.10668
1.05019
1.01521
1.00194
0.999031
0.999117
0.999473
1
1
1
1
1
1
1
1
1
1
1
1
1
1
1
1
1
0.999999
0.999993
0.999973
0.999904
0.999708
0.999286
0.998781
0.999499
1.00562
1.02495
1.0629
1.10668
1.12889
1.13093
1.12889
1.10668
1.0629
1.02495
1.00562
0.999498
0.998775
0.999259
0.999612
1
1
1
1
1
1
1
1
1
1
1
1
1
1
1
1
1
0.999999
0.999996
0.999985
0.999943
0.999816
0.999504
0.99895
0.998556
1.0001
1.0075
1.02495
1.05019
1.0707
1.07717
1.0707
1.05019
1.02495
1.0075
1.0001
0.998555
0.998947
0.999489
0.999759
1
1
1
1
1
1
1
1
1
1
1
1
1
1
1
1
1
1
0.999998
0.999993
0.999971
0.999903
0.999718
0.999322
0.998735
0.998491
1.0001
1.00562
1.01521
1.0246
1.02823
1.0246
1.01521
1.00562
1.0001
0.99849
0.998735
0.999321
0.999711
0.999874
1
1
1
1
1
1
1
1
1
1
1
1
1
1
1
1
1
1
0.999999
0.999997
0.999988
0.999957
0.999867
0.999652
0.999249
0.998735
0.998555
0.999498
1.00194
1.0048
1.00603
1.0048
1.00194
0.999498
0.998555
0.998735
0.999248
0.999651
0.999864
0.999944
1
1
1
1
1
1
1
1
1
1
1
1
1
1
1
1
1
1
1
0.999999
0.999995
0.999983
0.999947
0.999852
0.999651
0.999321
0.998947
0.998775
0.999031
0.999556
0.999822
0.999556
0.999031
0.998775
0.998947
0.999321
0.999651
0.999852
0.999946
0.999979
1
1
1
1
1
1
1
1
1
1
1
1
1
1
1
1
1
1
1
1
0.999998
0.999994
0.999981
0.999946
0.999864
0.999711
0.999489
0.999259
0.999117
0.999093
0.999105
0.999093
0.999117
0.999259
0.999489
0.999711
0.999864
0.999946
0.999981
0.999993
1
1
1
1
1
1
1
1
1
1
1
1
1
1
1
1
1
1
1
1
0.999999
0.999998
0.999993
0.999979
0.999944
0.999874
0.999759
0.999612
0.999473
0.999385
0.999357
0.999385
0.999473
0.999612
0.999759
0.999874
0.999944
0.999979
0.999993
0.999997
SCALARS C2 double 1
LOOKUP_TABLE default
3
3
2.99999
2.99998
2.99995
2.99987
2.99973
2.99952
2.99928
2.9991
2.99903
2.9991
2.99928
2.99952
2.99973
2.99987
2.99995
2.99998
2.99999
3
3
3
3
3
3
3
3
3
3
3
3
3
3
3
3
3
3
3
3
3
3
3
2.99998
2.99994
2.99984
2.99962
2.99924
2.99871
2.99817
2.99781
2.99769
2.99781
2.99817
2.99871
2.99924
2.99962
2.99984
2.99994
2.99998
3
3
3
3
3
3
3
3
3
3
3
3
3
3
3
3
3
3
3
3
3
2.99999
2.99998
2.99994
2.99981
2.99949
2.99882
2.99776
2.99649
2.99549
2.99505
2.99497
2.99505
2.99549
2.99649
2.99776
2.99882
2.99949
2.99981
2.99994
2.99998
3
3
3
3
3
3
3
3
3
3
3
3
3
3
3
3
3
3
3
3
2.99998
2.99994
2.99981
2.99943
2.99853
2.99686
2.99459
2.99271
2.99245
2.9936
2.99433
2.9936
2.99245
2.99271
2.99459
2.99686
2.99853
2.99943
2.99981
2.99994
2.99999
3
3
3
3
3
3
3
3
3
3
3
3
3
3
3
3
3
3
3
2.99995
2.99984
2.99949
2.99853
2.99649
2.9933
2.99049
2.99146
2.99828
3.00733
3.01136
3.00733
2.99828
2.99146
2.99049
2.9933
2.99649
2.99853
2.99949
2.99985
2.99996
2.99999
3
3
3
3
3
3
3
3
3
3
3
3
3
3
3
3
3
3
2.99987
2.99962
2.99882
2.99686
2.9933
2.98966
2.99176
3.00762
3.03758
3.06752
3.07944
3.06752
3.03758
3.00762
2.99176
2.98966
2.9933
2.99686
2.99882
2.99963
2.9999
2.99998
2.99999
3
3
3
3
3
3
3
3
3
3
3
3
3
3
3
3
3
2.99973
2.99924
2.99776
2.99459
2.99049
2.99176
3.0126
3.06533
3.14101
3.20685
3.23119
3.20685
3.14101
3.06533
3.0126
2.99176
2.99049
2.99459
2.99776
2.99925
2.99979
2.99995
2.99999
3
3
3
3
3
3
3
3
3
3
3
3
3
3
3
3
3
2.99952
2.99871
2.99649
2.99271
2.99146
3.00762
3.06533
3.17561
3.31283
3.42299
3.4616
3.42299
3.31283
3.17561
3.06533
3.00762
2.99146
2.99271
2.99649
2.99873
2.99962
2.9999
2.99998
3
3
3
3
3
3
3
3
3
3
3
3
3
3
3
3
3
2.99928
2.99817
2.99549
2.99245
2.99828
3.03758
3.14101
3.31283
3.51064
3.6626
3.71376
3.6626
3.51064
3.31283
3.14101
3.03758
2.99828
2.99245
2.9955
2.99821
2.99944
2.99985
2.99996
2.99999
3
3
3
3
3
3
3
3
3
3
3
3
3
3
3
3
2.9991
2.99781
2.99505
2.9936
3.00733
3.06752
3.20685
3.42299
3.6626
3.8404
3.89634
3.8404
3.6626
3.42299
3.20685
3.06752
3.00733
2.99361
2.99506
2.99786
2.99929
2.99981
2.99995
2.99999
3
3
3
3
3
3
3
3
3
3
3
3
3
3
3
3
2.99903
2.99769
2.99497
2.99433
3.01136
3.07944
3.23119
3.4616
3.71376
3.89634
3.9491
3.89634
3.71376
3.4616
3.23119
3.07944
3.01136
2.99433
2.99498
2.99774
2.99924
2.99979
2.99995
2.99999
3
3
3
3
3
3
3
3
3
3
3
3
3
3
3
3
2.9991
2.99781
2.99505
2.9936
3.00733
3.06752
3.20685
3.42299
3.6626
3.8404
3.89634
3.8404
3.6626
3.42299
3.20685
3.06752
3.00733
2.99361
2.99506
2.99786
2.99929
2.99981
2.99995
2.99999
3
3
3
3
3
3
3
3
3
3
3
3
3
3
3
3
2.99928
2.99817
2.99549
2.99245
2.99828
3.03758
3.14101
3.31283
3.51064
3.6626
3.71376
3.6626
3.51064
3.31283
3.14101
3.03758
2.99828
2.99245
2.9955
2.99821
2.99944
2.99985
2.99996
2.99999
3
3
3
3
3
3
3
3
3
3
3
3
3
3
3
3
2.99952
2.99871
2.99649
2.99271
2.99146
3.00762
3.06533
3.17561
3.31283
3.42299
3.4616
3.42299
3.31283
3.17561
3.06533
3.00762
2.99146
2.99271
2.99649
2.99873
2.99962
2.9999
2.99998
3
3
3
3
3
3
3
3
3
3
3
3
3
3
3
3
3
2.99973
2.99924
2.99776
2.99459
2.99049
2.99176
3.0126
3.06533
3.14101
3.20685
3.23119
3.20685
3.14101
3.06533
3.0126
2.99176
2.99049
2.99459
2.99776
2.99925
2.99979
2.99995
2.99999
3
3
3
3
3
3
3
3
3
3
3
3
3
3
3
3
3
2.99987
2.99962
2.99882
2.99686
2.9933
2.98966
2.99176
3.00762
3.03758
3.06752
3.07944
3.06752
3.03758
3.00762
2.99176
2.98966
2.9933
2.99686
2.99882
2.99963
2.9999
2.99998
2.99999
3
3
3
3
3
3
3
3
3
3
3
3
3
3
3
3
3
2.99995
2.99984
2.99949
2.99853
2.99649
2.9933
2.99049
2.99146
2.99828
3.00733
3.01136
3.00733
2.99828
2.99146
2.99049
2.9933
2.99649
2.99853
2.99949
2.99985
2.99996
2.99999
3
3
3
3
3
3
3
3
3
3
3
3
3
3
3
3
3
3
2.99998
2.99994
2.99981
2.99943
2.99853
2.99686
2.99459
2.99271
2.99245
2.99361
2.99433
2.99361
2.99245
2.99271
2.99459
2.99686
2.99853
2.99943
2.99981
2.99994
2.99999
3
3
3
3
3
3
3
3
3
3
3
3
3
3
3
3
3
3
3
2.99999
2.99998
2.99994
2.99981
2.99949
2.99882
2.99776
2.99649
2.9955
2.99506
2.99498
2.99506
2.9955
2.99649
2.99776
2.99882
2.99949
2.99981
2.99994
2.99998
3
3
3
3
3
3
3
3.00001
3.00001
3.00001
3.00001
3.00001
3.00001
3.00001
3
3
3
3
3
3
3
3
2.99998
2.99994
2.99985
2.99963
2.99925
2.99873
2.99821
2.99786
2.99774
2.99786
2.99821
2.99873
2.99925
2.99963
2.99985
2.99994
2.99998
3
3
3
3
3
3
3.00001
3.00002
3.00003
3.00004
3.00006
3.00006
3.00006
3.00004
3.00003
3.00002
3.00001
3
3
3
3
3
3
3
2.99999
2.99996
2.9999
2.99979
2.99962
2.99944
2.99929
2.99924
2.99929
2.99944
2.99962
2.99979
2.9999
2.99996
2.99999
3
3
3
3
3
3
3.00001
3.00003
3.00006
3.00011
3.00017
3.00022
3.00024
3.00022
3.00017
3.00011
3.00006
3.00003
3.00001
3
3
3
3
3
3
3
2.99999
2.99998
2.99995
2.9999
2.99985
2.99981
2.99979
2.99981
2.99985
2.9999
2.99995
2.99998
2.99999
3
3
3
3
3
3.00001
3.00002
3.00005
3.00011
3.00022
3.00039
3.00057
3.0007
3.00074
3.0007
3.00057
3.00039
3.00022
3.00011
3.00005
3.00002
3.00001
3
3
3
3
3
3
2.99999
2.99999
2.99998
2.99996
2.99995
2.99995
2.99995
2.99996
2.99998
2.99999
2.99999
3
3
3
3
3
3.00001
3.00002
3.00006
3.00015
3.00035
3.00069
3.00114
3.00156
3.00181
3.00188
3.00181
3.00156
3.00114
3.00069
3.00035
3.00015
3.00006
3.00002
3.00001
3
3
3
3
3
3
3
3
2.99999
2.99999
2.99999
2.99999
2.99999
3
3
3
3
3
3
3
3
3.00002
3.00006
3.00017
3.00044
3.00098
3.0018
3.00269
3.00324
3.00328
3.00319
3.00328
3.00324
3.00269
3.0018
3.00098
3.00044
3.00017
3.00006
3.00002
3
3
3
3
3
3
3
3
3
3
3
3
3
3
3
3
3
3
3
3
3.00001
3.00005
3.00015
3.00044
3.0011
3.00226
3.00369
3.0045
3.00361
3.00142
3.00022
3.00142
3.00361
3.0045
3.00369
3.00226
3.0011
3.00044
3.00015
3.00006
3
3
3
3
3
3
3
3
3
3
3
3
3
3
3
3
3
3
3
3.00001
3.00003
3.00011
3.00035
3.00098
3.00226
3.00409
3.00517
3.0025
2.99373
2.9823
2.97709
2.9823
2.99373
3.0025
3.00517
3.00409
3.00226
3.00098
3.00036
3.00014
3
3
3
3
3
3
3
3
3
3
3
3
3
3
3
3
3
3
3
3.00002
3.00006
3.00022
3.00069
3.0018
3.00369
3.00517
3.00168
2.98513
2.95187
2.91604
2.90168
2.91604
2.95187
2.98513
3.00168
3.00517
3.00369
3.0018
3.00071
3.00029
3
3
3
3
3
3
3
3
3
3
3
3
3
3
3
3
3
3
3.00001
3.00003
3.00011
3.00039
3.00114
3.00269
3.0045
3.0025
2.98513
2.93544
2.85384
2.78278
2.76053
2.78278
2.85384
2.93544
2.98513
3.0025
3.0045
3.0027
3.00117
3.0005
3
3
3
3
3
3
3
3
3
3
3
3
3
3
3
3
3
3
3.00001
3.00004
3.00017
3.00057
3.00156
3.00324
3.00361
2.99373
2.95187
2.85384
2.72543
2.65083
2.64124
2.65083
2.72543
2.85384
2.95187
2.99373
3.00362
3.00325
3.0016
3.00074
3
3
3
3
3
3
3
3
3
3
3
3
3
3
3
3
3
3
3.00001
3.00006
3.00022
3.0007
3.00181
3.00328
3.00142
2.9823
2.91604
2.78278
2.65083
2.61931
2.63749
2.61931
2.65083
2.78278
2.91604
2.9823
3.00142
3.0033
3.00187
3.00092
3
3
3
3
3
3
3
3
3
3
3
3
3
3
3
3
3
3
3.00001
3.00006
3.00024
3.00074
3.00188
3.00319
3.00022
2.97709
2.90168
2.76053
2.64124
2.63749
2.66977
2.63749
2.64124
2.76053
2.90168
2.97709
3.00022
3.00321
3.00194
3.00098
3
3
3
3
3
3
3
3
3
3
3
3
3
3
3
3
3
3
3.00001
3.00006
3.00022
3.0007
3.00181
3.00328
3.00142
2.9823
2.91604
2.78278
2.65083
2.61931
2.63749
2.61931
2.65083
2.78278
2.91604
2.9823
3.00142
3.0033
3.00187
3.00092
3
3
3
3
3
3
3
3
3
3
3
3
3
3
3
3
3
3
3.00001
3.00004
3.00017
3.00057
3.00156
3.00324
3.00361
2.99373
2.95187
2.85384
2.72543
2.65083
2.64124
2.65083
2.72543
2.85384
2.95187
2.99373
3.00362
3.00325
3.0016
3.00074
3
3
3
3
3
3
3
3
3
3
3
3
3
3
3
3
3
3
3.00001
3.00003
3.00011
3.00039
3.00114
3.00269
3.0045
3.0025
2.98513
2.93544
2.85384
2.78278
2.76053
2.78278
2.85384
2.93544
2.98513
3.0025
3.0045
3.0027
3.00117
3.0005
3
3
3
3
3
3
3
3
3
3
3
3
3
3
3
3
3
3
3
3.00002
3.00006
3.00022
3.00069
3.0018
3.00369
3.00517
3.00168
2.98513
2.95187
2.91604
2.90168
2.91604
2.95187
2.98513
3.00168
3.00517
3.00369
3.0018
3.00071
3.00029
3
3
3
3
3
3
3
3
3
3
3
3
3
3
3
3
3
3
3
3.00001
3.00003
3.00011
3.00035
3.00098
3.00226
3.00409
3.00517
3.0025
2.99373
2.9823
2.97709
2.9823
2.99373
3.0025
3.00517
3.0041
3.00226
3.00098
3.00036
3.00014
3
3
3
3
3
3
3
3
3
3
3
3
3
3
3
3
3
3
3
3
3.00001
3.00005
3.00015
3.00044
3.0011
3.00226
3.00369
3.0045
3.00362
3.00142
3.00022
3.00142
3.00362
3.0045
3.00369
3.00226
3.0011
3.00044
3.00015
3.00006
3
3
3
3
3
3
3
3
3
3
3
3
3
3
3
3
3
3
3
3
3
3.00002
3.00006
3.00017
3.00044
3.00098
3.0018
3.0027
3.00325
3.0033
3.00321
3.0033
3.00325
3.0027
3.0018
3.00098
3.00044
3.00017
3.00006
3.00002
3
3
3
3
3
3
3
3
3
3
3
3
3
3
3
3
3
3
3
3
3
3.00001
3.00002
3.00006
3.00015
3.00036
3.00071
3.00117
3.0016
3.00187
3.00194
3.00187
3.0016
3.00117
3.00071
3.00036
3.00015
3.00006
3.00002
3.00001
3
3
3
3
3
3
3
3
3
3
3
3
3
3
3
3
3
3
3
3
3
3
3.00001
3.00002
3.00006
3.00014
3.00029
3.0005
3.00074
3.00092
3.00098
3.00092
3.00074
3.0005
3.00029
3.00014
3.00006
3.00002
3.00001
3
