# vtk DataFile Version 3.0
Brusselator Concentration Output
ASCII
DATASET STRUCTURED_POINTS
DIMENSIONS 40 40 1
ORIGIN 0.0 0.0 0.0
SPACING 0.005 0.005 1.0
POINT_DATA 1600
SCALARS C1 double 1
LOOKUP_TABLE default
0.992366
0.996703
1.00972
1.0383
1.08658
1.14776
1.20273
1.23445
1.24245
1.23896
1.23623
1.23896
1.24245
1.23444
1.20273
1.14779
1.0867
1.03868
1.01068
0.998739
0.995827
0.996542
0.997977
0.999057
0.999642
0.999892
0.999978
1
1
1
1
1
1
1
1
1
1
1
1
1
0.996703
1.00775
1.03534
1.08366
1.14141
1.17825
1.17325
1.13663
1.09278
1.06039
1.04874
1.06039
1.09278
1.13663
1.17327
1.17831
1.14163
1.08427
1.03666
1.01006
0.999548
0.997201
0.997756
0.998762
0.999461
0.999811
0.999948
0.999991
1
1
1
1
1
1
1
1
1
1
1
1
1.00972
1.03534
1.08919
1.15331
1.17389
1.11769
1.01646
0.916498
0.841596
0.7974
0.782978
0.7974
0.841596
0.916504
1.01649
1.11781
1.17427
1.15427
1.09102
1.03764
1.00993
0.99988
0.997847
0.998344
0.99914
0.99965
0.999886
0.999972
0.999996
1
1
1
1
1
1
1
1
1
1
1
1.0383
1.08366
1.15331
1.17257
1.08257
0.931918
0.791198
0.689267
0.626014
0.592815
0.582589
0.592815
0.626015
0.689275
0.791237
0.932069
1.08304
1.1737
1.15516
1.08441
1.03123
1.00689
0.999235
0.998151
0.998772
0.999424
0.999787
0.999938
0.999987
0.999999
1
1
1
1
1
1
1
1
1
1
1.08658
1.14141
1.17389
1.08257
0.902533
0.731489
0.611572
0.540117
0.501841
0.483826
0.478609
0.483826
0.501843
0.540125
0.61161
0.731636
0.902966
1.0834
1.17437
1.13724
1.06464
1.02032
1.00304
0.998644
0.998516
0.999176
0.999659
0.999888
0.999972
0.999995
1
1
1
1
1
1
1
1
1
1
1.14776
1.17825
1.11769
0.931918
0.731489
0.588594
0.506712
0.465746
0.447531
0.440605
0.438925
0.440606
0.447532
0.465753
0.506745
0.588718
0.731817
0.932175
1.11547
1.16515
1.10295
1.04011
1.0099
1.00021
0.998543
0.998965
0.999518
0.999826
0.99995
0.99999
0.999999
1
1
1
1
1
1
1
1
1
1.20273
1.17325
1.01646
0.791198
0.611572
0.506712
0.456472
0.436796
0.431833
0.432282
0.432998
0.432282
0.431835
0.436802
0.456499
0.506809
0.611772
0.790832
1.01124
1.14954
1.13248
1.06273
1.01931
1.00292
0.998952
0.998849
0.999389
0.99976
0.999926
0.999983
0.999998
1
1
1
1
1
1
1
1
1
1.23445
1.13663
0.916498
0.689267
0.540117
0.465746
0.436796
0.430924
0.435015
0.44097
0.443592
0.44097
0.435016
0.430929
0.436819
0.465819
0.540201
0.688361
0.908728
1.10382
1.14465
1.08288
1.02954
1.00633
0.999683
0.998847
0.99929
0.999699
0.999901
0.999975
0.999996
1
1
1
1
1
1
1
1
1
1.24245
1.09278
0.841596
0.626014
0.501841
0.447531
0.431833
0.435015
0.445815
0.456398
0.460747
0.456398
0.445816
0.43502
0.431854
0.447587
0.501841
0.624718
0.832051
1.05391
1.14259
1.09694
1.03844
1.00966
1.00052
0.998925
0.999228
0.999652
0.99988
0.999967
0.999994
1
1
1
1
1
1
1
1
1
1.23896
1.06039
0.7974
0.592815
0.483826
0.440605
0.432282
0.44097
0.456398
0.470522
0.476269
0.470523
0.456399
0.440975
0.432301
0.440652
0.483774
0.591288
0.786857
1.01835
1.13587
1.10449
1.04433
1.01205
1.00118
0.999016
0.999199
0.999622
0.999866
0.999963
0.999993
0.999999
1
1
1
1
1
1
1
1
1.23623
1.04874
0.782978
0.582589
0.478609
0.438925
0.432998
0.443592
0.460747
0.476269
0.482584
0.476269
0.460748
0.443597
0.433017
0.438968
0.47854
0.580987
0.772119
1.00574
1.13263
1.10677
1.04637
1.01292
1.00143
0.999055
0.999191
0.999614
0.999862
0.999963
0.999994
1
1
1
1
1
1
1
1
1
1.23896
1.06039
0.7974
0.592815
0.483826
0.440606
0.432282
0.44097
0.456398
0.470523
0.476269
0.470523
0.456399
0.440975
0.432301
0.440652
0.483774
0.591288
0.786857
1.01835
1.13586
1.10449
1.04433
1.01205
1.00118
0.999018
0.999204
0.99963
0.999875
0.999974
1
1.00001
1.00001
1.00001
1
1
1
1
0.999999
0.999999
1.24245
1.09278
0.841596
0.626015
0.501843
0.447532
0.431835
0.435016
0.445816
0.456399
0.460748
0.456399
0.445817
0.435021
0.431855
0.447588
0.501842
0.624719
0.832051
1.05391
1.14259
1.09694
1.03844
1.00966
1.00053
0.998939
0.999251
0.999683
0.999918
1.00001
1.00004
1.00004
1.00004
1.00003
1.00002
1.00001
1.00001
1
1
0.999999
1.23444
1.13663
0.916504
0.689275
0.540125
0.465753
0.436802
0.430929
0.43502
0.440975
0.443597
0.440975
0.435021
0.430935
0.436825
0.465826
0.540209
0.688369
0.908734
1.10383
1.14465
1.08288
1.02955
1.00635
0.999717
0.998902
0.999369
0.999801
1.00002
1.00011
1.00013
1.00013
1.00012
1.0001
1.00008
1.00006
1.00003
1.00002
1.00001
1
1.20273
1.17327
1.01649
0.791237
0.61161
0.506745
0.456499
0.436819
0.431854
0.432301
0.433017
0.432301
0.431855
0.436825
0.456526
0.506841
0.611809
0.79087
1.01127
1.14956
1.13249
1.06274
1.01934
1.00299
0.999064
0.999016
0.999609
1.00003
1.00022
1.0003
1.00032
1.00032
1.0003
1.00027
1.00022
1.00017
1.00011
1.00007
1.00004
1.00002
1.14779
1.17831
1.11781
0.932069
0.731636
0.588718
0.506809
0.465819
0.447587
0.440652
0.438968
0.440652
0.447588
0.465826
0.506841
0.588843
0.731965
0.932326
1.1156
1.16523
1.103
1.04017
1.01001
1.00041
0.998842
0.999364
0.999994
1.00034
1.00047
1.0005
1.00051
1.00052
1.00052
1.00052
1.00048
1.0004
1.0003
1.0002
1.00012
1.00008
1.0867
1.14163
1.17427
1.08304
0.902966
0.731817
0.611772
0.540201
0.501841
0.483774
0.47854
0.483774
0.501842
0.540209
0.611809
0.731965
0.903401
1.08387
1.17476
1.13749
1.06482
1.02052
1.00335
0.999109
0.999131
0.99987
1.00031
1.00039
1.00027
1.00012
1.00005
1.00012
1.00029
1.0005
1.00065
1.00069
1.00062
1.00047
1.00033
1.00025
1.03868
1.08427
1.15427
1.1737
1.0834
0.932175
0.790832
0.688361
0.624718
0.591288
0.580987
0.591288
0.624719
0.688369
0.79087
0.932326
1.08387
1.17483
1.15616
1.08508
1.03172
1.0074
0.999909
0.998988
0.999606
0.999929
0.999593
0.99879
0.997871
0.997169
0.996909
0.99717
0.997884
0.998852
0.999807
1.00051
1.00084
1.00087
1.00073
1.00062
1.01068
1.03666
1.09102
1.15516
1.17437
1.11547
1.01124
0.908728
0.832051
0.786857
0.772119
0.786857
0.832051
0.908734
1.01127
1.1156
1.17476
1.15616
1.09292
1.03909
1.01107
1.00097
0.998965
0.999212
0.999069
0.997703
0.995239
0.992278
0.989552
0.987669
0.987001
0.987668
0.989556
0.992307
0.995356
0.998062
0.999956
1.00093
1.00124
1.00126
0.998739
1.01006
1.03764
1.08441
1.13724
1.16515
1.14954
1.10382
1.05391
1.01835
1.00574
1.01835
1.05391
1.10383
1.14956
1.16523
1.13749
1.08508
1.03909
1.01257
1.00173
0.999013
0.998796
0.997885
0.994836
0.989526
0.982829
0.976106
0.970595
0.967071
0.96587
0.96707
0.970594
0.976116
0.982888
0.989737
0.995432
0.99924
1.00122
1.00195
0.995827
0.999548
1.00993
1.03123
1.06464
1.10295
1.13248
1.14465
1.14259
1.13587
1.13263
1.13586
1.14259
1.14465
1.13249
1.103
1.06482
1.03172
1.01107
1.00173
0.999043
0.998523
0.996826
0.99182
0.982864
0.971028
0.958586
0.947842
0.940153
0.93577
0.934377
0.935769
0.940152
0.947847
0.958624
0.971179
0.983318
0.992921
0.99898
1.00172
0.996542
0.997201
0.99988
1.00689
1.02032
1.04011
1.06273
1.08288
1.09694
1.10449
1.10677
1.10449
1.09694
1.08288
1.06274
1.04017
1.02052
1.0074
1.00097
0.999013
0.998523
0.996399
0.989866
0.977446
0.9601
0.941193
0.924805
0.913643
0.907987
0.906119
0.905829
0.906119
0.907987
0.913653
0.924855
0.941367
0.960575
0.978489
0.991637
0.998349
0.997977
0.997756
0.997847
0.999235
1.00304
1.0099
1.01931
1.02954
1.03844
1.04433
1.04637
1.04433
1.03844
1.02955
1.01934
1.01001
1.00335
0.999909
0.998965
0.998796
0.996826
0.989866
0.975358
0.953539
0.928559
0.906879
0.894111
0.892474
0.899675
0.909255
0.913607
0.909255
0.899679
0.892498
0.894201
0.90714
0.929161
0.954581
0.976346
0.988695
0.999057
0.998762
0.998344
0.998151
0.998644
1.00021
1.00292
1.00633
1.00966
1.01205
1.01292
1.01205
1.00966
1.00635
1.00299
1.00041
0.999109
0.998988
0.999212
0.997885
0.99182
0.977446
0.953539
0.923964
0.897309
0.883532
0.890754
0.923151
0.975909
1.02789
1.04982
1.02789
0.975924
0.923206
0.890917
0.883931
0.89806
0.924789
0.952742
0.97041
0.999642
0.999461
0.99914
0.998772
0.998516
0.998543
0.998952
0.999683
1.00052
1.00118
1.00143
1.00118
1.00053
0.999717
0.999064
0.998842
0.999131
0.999606
0.999069
0.994836
0.982864
0.9601
0.928559
0.897309
0.880401
0.894744
0.963267
1.11475
1.33827
1.53705
1.61343
1.53706
1.33831
1.11489
0.963574
0.895336
0.881234
0.897434
0.92451
0.944233
0.999892
0.999811
0.99965
0.999424
0.999176
0.998965
0.998849
0.998847
0.998925
0.999016
0.999055
0.999018
0.998939
0.998902
0.999016
0.999364
0.99987
0.999929
0.997703
0.989526
0.971028
0.941193
0.906879
0.883532
0.894744
0.984124
1.25149
1.77428
2.22949
2.35638
2.36332
2.35639
2.22957
1.77458
1.25213
0.985031
0.895538
0.882314
0.898118
0.914527
0.999978
0.999948
0.999886
0.999787
0.999659
0.999518
0.999389
0.99929
0.999228
0.999199
0.999191
0.999204
0.999251
0.999369
0.999609
0.999994
1.00031
0.999593
0.995239
0.982829
0.958586
0.924805
0.894111
0.890754
0.963267
1.25149
1.97828
2.40628
2.23709
2.06573
2.00467
2.06574
2.23712
2.40642
1.97922
1.25295
0.963861
0.88752
0.87965
0.887126
1
0.999991
0.999972
0.999938
0.999888
0.999826
0.99976
0.999699
0.999652
0.999622
0.999614
0.99963
0.999683
0.999801
1.00003
1.00034
1.00039
0.99879
0.992278
0.976106
0.947842
0.913643
0.892474
0.923151
1.11475
1.77428
2.40628
2.1342
1.83593
1.65176
1.59092
1.65177
1.83595
2.13424
2.40635
1.776
1.11489
0.91734
0.872066
0.866363
1
1
0.999996
0.999987
0.999972
0.99995
0.999926
0.999901
0.99988
0.999866
0.999862
0.999875
0.999918
1.00002
1.00022
1.00047
1.00027
0.997871
0.989552
0.970595
0.940153
0.907987
0.899675
0.975909
1.33827
2.22949
2.23709
1.83593
1.53616
1.36209
1.30559
1.3621
1.53618
1.83594
2.23687
2.22985
1.3375
0.967288
0.873952
0.853521
1
1
1
0.999999
0.999995
0.99999
0.999983
0.999975
0.999967
0.999963
0.999963
0.999974
1.00001
1.00011
1.0003
1.0005
1.00012
0.997169
0.987669
0.967071
0.93577
0.906119
0.909255
1.02789
1.53705
2.35638
2.06573
1.65176
1.36209
1.19725
1.14421
1.19726
1.36211
1.65176
2.06546
2.35544
1.53513
1.01693
0.879787
0.847292
1
1
1
1
1
0.999999
0.999998
0.999996
0.999994
0.999993
0.999994
1
1.00004
1.00013
1.00032
1.00051
1.00005
0.996909
0.987001
0.96587
0.934377
0.905829
0.913607
1.04982
1.61343
2.36332
2.00467
1.59092
1.30559
1.14421
1.09244
1.14422
1.30561
1.59091
2.00439
2.36203
1.61099
1.03794
0.882779
0.845548
1
1
1
1
1
1
1
1
1
0.999999
1
1.00001
1.00004
1.00013
1.00032
1.00052
1.00012
0.99717
0.987668
0.96707
0.935769
0.906119
0.909255
1.02789
1.53706
2.35639
2.06574
1.65177
1.3621
1.19726
1.14422
1.19727
1.36211
1.65176
2.06547
2.35546
1.53514
1.01693
0.879787
0.847291
1
1
1
1
1
1
1
1
1
1
1
1.00001
1.00004
1.00012
1.0003
1.00052
1.00029
0.997884
0.989556
0.970594
0.940152
0.907987
0.899679
0.975924
1.33831
2.22957
2.23712
1.83595
1.53618
1.36211
1.30561
1.36211
1.5362
1.83596
2.23691
2.22992
1.33754
0.967303
0.873957
0.853522
1
1
1
1
1
1
1
1
1
1
1
1.00001
1.00003
1.0001
1.00027
1.00052
1.0005
0.998852
0.992307
0.976116
0.947847
0.913653
0.892498
0.923206
1.11489
1.77458
2.40642
2.13424
1.83594
1.65176
1.59091
1.65176
1.83596
2.13427
2.40648
1.7763
1.11503
0.917396
0.872092
0.866377
1
1
1
1
1
1
1
1
1
1
1
1
1.00002
1.00008
1.00022
1.00048
1.00065
0.999807
0.995356
0.982888
0.958624
0.924855
0.894201
0.890917
0.963574
1.25213
1.97922
2.40635
2.23687
2.06546
2.00439
2.06547
2.23691
2.40648
1.98017
1.25359
0.964169
0.887686
0.879746
0.88719
1
1
1
1
1
1
1
1
1
1
1
1
1.00001
1.00006
1.00017
1.0004
1.00069
1.00051
0.998062
0.989737
0.971179
0.941367
0.90714
0.883931
0.895336
0.985031
1.25295
1.776
2.22985
2.35544
2.36203
2.35546
2.22992
1.7763
1.25359
0.98594
0.896133
0.88272
0.898398
0.91474
1
1
1
1
1
1
1
1
1
1
1
1
1.00001
1.00003
1.00011
1.0003
1.00062
1.00084
0.999956
0.995432
0.983318
0.960575
0.929161
0.89806
0.881234
0.895538
0.963861
1.11489
1.3375
1.53513
1.61099
1.53514
1.33754
1.11503
0.964169
0.896133
0.882077
0.898209
0.925164
0.944797
1
1
1
1
1
1
1
1
1
1
1
1
1
1.00002
1.00007
1.0002
1.00047
1.00087
1.00093
0.99924
0.992921
0.978489
0.954581
0.924789
0.897434
0.882314
0.88752
0.91734
0.967288
1.01693
1.03794
1.01693
0.967303
0.917396
0.887686
0.88272
0.898209
0.925673
0.953895
0.971604
1
1
1
1
1
1
1
1
1
1
1
0.999999
1
1.00001
1.00004
1.00012
1.00033
1.00073
1.00124
1.00122
0.99898
0.991637
0.976346
0.952742
0.92451
0.898118
0.87965
0.872066
0.873952
0.879787
0.882779
0.879787
0.873957
0.872092
0.879746
0.898398
0.925164
0.953895
0.977505
0.990589
1
1
1
1
1
1
1
1
1
1
1
0.999999
0.999999
1
1.00002
1.00008
1.00025
1.00062
1.00126
1.00195
1.00172
0.998349
0.988695
0.97041
0.944233
0.914527
0.887126
0.866363
0.853521
0.847292
0.845548
0.847291
0.853522
0.866377
0.88719
0.91474
0.944797
0.971604
0.990589
1.00002
SCALARS C2 double 1
LOOKUP_TABLE default
3.01604
3.01571
3.00887
2.98376
2.92719
2.83589
2.72769
2.63286
2.56992
2.53805
2.52881
2.53805
2.56992
2.63287
2.7277
2.83588
2.92711
2.9834
3.00776
3.0129
3.01013
3.00593
3.00281
3.00109
3.00034
3.00007
3
2.99999
2.99999
3
3
3
3
3
3
3
3
3
3
3
3.01571
3.00748
2.98047
2.91835
2.81629
2.70276
2.62276
2.59299
2.59725
2.61115
2.61771
2.61115
2.59725
2.59299
2.62275
2.70272
2.81607
2.91765
2.97868
3.0036
3.00883
3.00686
3.00382
3.0017
3.00061
3.00017
3.00003
3
2.99999
3
3
3
3
3
3
3
3
3
3
3
3.00887
2.98047
2.90668
2.77953
2.64769
2.59049
2.6236
2.70487
2.78934
2.84889
2.87002
2.84889
2.78934
2.70487
2.62358
2.59037
2.64723
2.77818
2.90361
2.97495
3.00175
3.007
3.0053
3.0028
3.00117
3.00039
3.0001
3.00001
3
3
3
3
3
3
3
3
3
3
3
3
2.98376
2.91835
2.77953
2.62568
2.57832
2.66461
2.81836
2.9757
3.1016
3.18085
3.20775
3.18085
3.1016
2.9757
2.81832
2.66444
2.57765
2.62366
2.77515
2.91201
2.98077
3.00304
3.00611
3.00408
3.00195
3.00074
3.00022
3.00005
3
3
3
3
3
3
3
3
3
3
3
3
2.92719
2.81629
2.64769
2.57832
2.68336
2.88696
3.10315
3.28792
3.425
3.50871
3.53682
3.50871
3.425
3.28792
3.10311
2.88678
2.68261
2.57613
2.64325
2.8125
2.93799
2.9908
3.00459
3.005
3.00284
3.00121
3.00041
3.00011
3.00002
3
3
3
3
3
3
3
3
3
3
3
2.83589
2.70276
2.59049
2.66461
2.88696
3.14721
3.38276
3.57298
3.71207
3.79695
3.82549
3.79695
3.71207
3.57298
3.38274
3.14705
2.88623
2.66263
2.58783
2.70703
2.87405
2.96755
2.9992
3.00491
3.00359
3.00172
3.00064
3.00019
3.00004
3
3
3
3
3
3
3
3
3
3
3
2.72769
2.62276
2.6236
2.81836
3.10315
3.38276
3.62202
3.8133
3.95381
4.04008
4.06917
4.04008
3.95381
3.8133
3.622
3.38262
3.10248
2.81672
2.6236
2.63921
2.8036
2.93499
2.98953
3.0034
3.00399
3.00219
3.00089
3.00029
3.00007
3.00001
3
3
3
3
3
3
3
3
3
3
2.63286
2.59299
2.70487
2.9757
3.28792
3.57298
3.8133
4.00601
4.14831
4.23604
4.26565
4.23604
4.14831
4.006
3.81329
3.57287
3.28732
2.97436
2.70739
2.62184
2.74595
2.89975
2.97708
3.00062
3.00395
3.00255
3.00112
3.00038
3.0001
3.00002
3
3
3
3
3
3
3
3
3
3
2.56992
2.59725
2.78934
3.1016
3.425
3.71207
3.95381
4.14831
4.2921
4.38066
4.41051
4.38066
4.2921
4.14831
3.9538
3.71197
3.42447
3.10047
2.79372
2.6358
2.71021
2.86981
2.96486
2.9974
3.0036
3.00276
3.0013
3.00047
3.00013
3.00003
3
3
3
3
3
3
3
3
3
3
2.53805
2.61115
2.84889
3.18085
3.50871
3.79695
4.04008
4.23604
4.38066
4.46938
4.49917
4.46938
4.38066
4.23604
4.04008
3.79686
3.5082
3.17984
2.85436
2.65561
2.69338
2.85053
2.95605
2.99485
3.00321
3.00286
3.00141
3.00052
3.00015
3.00003
3
3
3
3
3
3
3
3
3
3
2.52881
2.61771
2.87002
3.20775
3.53682
3.82549
4.06917
4.26565
4.41051
4.49917
4.52889
4.49917
4.41051
4.26565
4.06916
3.8254
3.53632
3.20677
2.87585
2.66412
2.68878
2.84397
2.95286
2.99388
3.00305
3.00288
3.00144
3.00054
3.00016
3.00003
3
3
3
3
3
3
3
3
3
3
2.53805
2.61115
2.84889
3.18085
3.50871
3.79695
4.04008
4.23604
4.38066
4.46938
4.49917
4.46938
4.38066
4.23604
4.04008
3.79686
3.5082
3.17984
2.85436
2.65561
2.69338
2.85053
2.95605
2.99485
3.00321
3.00286
3.0014
3.00052
3.00014
3.00002
2.99999
2.99999
2.99999
3
3
3
3
3
3
3
2.56992
2.59725
2.78934
3.1016
3.425
3.71207
3.95381
4.14831
4.2921
4.38066
4.41051
4.38066
4.2921
4.14831
3.9538
3.71197
3.42447
3.10047
2.79372
2.63581
2.71021
2.86981
2.96486
2.9974
3.0036
3.00275
3.00128
3.00044
3.00009
2.99998
2.99995
2.99995
2.99996
2.99997
2.99998
2.99999
3
3
3
3
2.63287
2.59299
2.70487
2.9757
3.28792
3.57298
3.8133
4.006
4.14831
4.23604
4.26565
4.23604
4.14831
4.006
3.81329
3.57287
3.28732
2.97436
2.70739
2.62184
2.74596
2.89975
2.97708
3.00061
3.00392
3.00249
3.00103
3.00026
2.99995
2.99985
2.99982
2.99983
2.99985
2.99988
2.99991
2.99994
2.99997
2.99999
3
3
2.7277
2.62275
2.62358
2.81832
3.10311
3.38274
3.622
3.81329
3.9538
4.04008
4.06916
4.04008
3.9538
3.81329
3.62198
3.3826
3.10245
2.81668
2.62358
2.63921
2.8036
2.93499
2.9895
3.00333
3.00386
3.00199
3.00059
2.9999
2.99961
2.99951
2.99948
2.99949
2.99954
2.99961
2.9997
2.99979
2.99987
2.99994
2.99997
2.99999
2.83588
2.70272
2.59037
2.66444
2.88678
3.14705
3.38262
3.57287
3.71197
3.79686
3.8254
3.79686
3.71197
3.57287
3.3826
3.14688
2.88605
2.66246
2.58771
2.70698
2.87403
2.9675
2.99908
3.00468
3.00318
3.00112
2.99984
2.99921
2.99895
2.99885
2.99882
2.99884
2.99891
2.99903
2.99919
2.9994
2.9996
2.99976
2.99988
2.99994
2.92711
2.81607
2.64723
2.57765
2.68261
2.88623
3.10248
3.28732
3.42447
3.5082
3.53632
3.5082
3.42447
3.28732
3.10245
2.88605
2.68186
2.57546
2.64278
2.81225
2.93784
2.9906
3.00421
3.00433
3.0018
2.9998
2.99873
2.99829
2.99819
2.99822
2.99824
2.99822
2.99817
2.99819
2.99832
2.9986
2.99896
2.99932
2.9996
2.99974
2.9834
2.91765
2.77818
2.62366
2.57613
2.66263
2.81672
2.97436
3.10047
3.17984
3.20677
3.17984
3.10047
2.97436
2.81668
2.66246
2.57546
2.62164
2.77375
2.91123
2.98025
3.00242
3.00511
3.00252
2.99986
2.99836
2.99799
2.99839
2.99912
2.99977
3.00003
2.99978
2.99912
2.99834
2.99776
2.99762
2.99789
2.99841
2.99892
2.99922
3.00776
2.97868
2.90361
2.77515
2.64325
2.58783
2.6236
2.70739
2.79372
2.85436
2.87585
2.85436
2.79372
2.70739
2.62358
2.58771
2.64278
2.77375
2.90045
2.97297
3.0003
3.00543
3.00315
3.00003
2.99834
2.99862
3.00071
3.00394
3.00733
3.00986
3.0108
3.00987
3.00733
3.00393
3.00061
2.99822
2.99715
2.99715
2.99766
2.99809
3.0129
3.0036
2.97495
2.91201
2.8125
2.70703
2.63921
2.62184
2.6358
2.65561
2.66412
2.65561
2.63581
2.62184
2.63921
2.70698
2.81225
2.91123
2.97297
2.99935
3.00547
3.00356
3.00026
2.99871
3.0004
3.00588
3.01453
3.02463
3.0339
3.04033
3.04261
3.04033
3.03391
3.02463
3.01449
3.00568
2.99971
2.99683
2.99609
2.99616
3.01013
3.00883
3.00175
2.98077
2.93799
2.87405
2.8036
2.74595
2.71021
2.69338
2.68878
2.69338
2.71021
2.74596
2.8036
2.87403
2.93784
2.98025
3.0003
3.00547
3.0037
3.00043
2.9992
3.00272
3.01293
3.02996
3.05152
3.07357
3.09203
3.10404
3.10818
3.10404
3.09204
3.07357
3.0515
3.02984
3.01245
3.00131
2.99586
2.994
3.00593
3.00686
3.007
3.00304
2.9908
2.96755
2.93499
2.89975
2.86981
2.85053
2.84397
2.85053
2.86981
2.89975
2.93499
2.9675
2.9906
3.00242
3.00543
3.00356
3.00043
2.99942
3.00437
3.01919
3.04578
3.08204
3.12203
3.15859
3.18629
3.20287
3.20829
3.20287
3.18629
3.15859
3.122
3.08187
3.0452
3.01766
3.00112
2.99395
3.00281
3.00382
3.0053
3.00611
3.00459
2.9992
2.98953
2.97708
2.96486
2.95605
2.95286
2.95605
2.96486
2.97708
2.9895
2.99908
3.00421
3.00511
3.00315
3.00026
2.9992
3.00437
3.0217
3.05586
3.10641
3.16627
3.22423
3.26989
3.29822
3.31114
3.31442
3.31115
3.29822
3.26988
3.22414
3.16595
3.10551
3.05383
3.01824
3.0008
3.00109
3.0017
3.0028
3.00408
3.005
3.00491
3.0034
3.00062
2.9974
2.99485
2.99388
2.99485
2.9974
3.00061
3.00333
3.00468
3.00433
3.00252
3.00003
2.99871
3.00272
3.01919
3.05586
3.11572
3.19265
3.27188
3.33476
3.36546
3.35981
3.33456
3.32073
3.33456
3.3598
3.36541
3.33458
3.27132
3.19128
3.11313
3.05289
3.02066
3.00034
3.00061
3.00117
3.00195
3.00284
3.00359
3.00399
3.00395
3.0036
3.00321
3.00305
3.00321
3.0036
3.00392
3.00386
3.00318
3.0018
2.99986
2.99834
3.0004
3.01293
3.04578
3.10641
3.19265
3.28922
3.36891
3.3935
3.31556
3.11746
2.89508
2.80004
2.89507
3.11742
3.31543
3.39313
3.36801
3.28733
3.18985
3.1057
3.05737
3.00007
3.00017
3.00039
3.00074
3.00121
3.00172
3.00219
3.00255
3.00276
3.00286
3.00288
3.00286
3.00275
3.00249
3.00199
3.00112
2.9998
2.99836
2.99862
3.00588
3.02996
3.08204
3.16627
3.27188
3.36891
3.39802
3.228
2.66415
1.96681
1.62216
1.54086
1.62215
1.96672
2.66377
3.22718
3.39656
3.36652
3.26959
3.17023
3.10904
3
3.00003
3.0001
3.00022
3.00041
3.00064
3.00089
3.00112
3.0013
3.00141
3.00144
3.0014
3.00128
3.00103
3.00059
2.99984
2.99873
2.99799
3.00071
3.01453
3.05152
3.12203
3.22423
3.33476
3.3935
3.228
2.41738
1.51753
1.33512
1.34933
1.36538
1.34932
1.33509
1.51729
2.41588
3.22556
3.39073
3.33396
3.23516
3.16798
2.99999
3
3.00001
3.00005
3.00011
3.00019
3.00029
3.00038
3.00047
3.00052
3.00054
3.00052
3.00044
3.00026
2.9999
2.99921
2.99829
2.99839
3.00394
3.02463
3.07357
3.15859
3.26989
3.36546
3.31556
2.66415
1.51753
1.33184
1.42459
1.51784
1.55343
1.51783
1.42457
1.33177
1.51684
2.66066
3.31269
3.36719
3.28922
3.22394
2.99999
2.99999
3
3
3.00002
3.00004
3.00007
3.0001
3.00013
3.00015
3.00016
3.00014
3.00009
2.99995
2.99961
2.99895
2.99819
2.99912
3.00733
3.0339
3.09203
3.18629
3.29822
3.35981
3.11746
1.96681
1.33512
1.42459
1.58656
1.70742
1.7511
1.70741
1.58655
1.42455
1.33497
1.96419
3.11503
3.36473
3.3258
3.26824
3
3
3
3
3
3
3.00001
3.00002
3.00003
3.00003
3.00003
3.00002
2.99998
2.99985
2.99951
2.99885
2.99822
2.99977
3.00986
3.04033
3.10404
3.20287
3.31114
3.33456
2.89508
1.62216
1.34933
1.51784
1.70742
1.8414
1.88911
1.84139
1.7074
1.51781
1.3493
1.62089
2.89353
3.34237
3.34488
3.29591
3
3
3
3
3
3
3
3
3
3
3
2.99999
2.99995
2.99982
2.99948
2.99882
2.99824
3.00003
3.0108
3.04261
3.10818
3.20829
3.31442
3.32073
2.80004
1.54086
1.36538
1.55343
1.7511
1.88911
1.93809
1.88911
1.75108
1.55341
1.36538
1.54002
2.79895
3.32972
3.35045
3.30523
3
3
3
3
3
3
3
3
3
3
3
2.99999
2.99995
2.99983
2.99949
2.99884
2.99822
2.99978
3.00987
3.04033
3.10404
3.20287
3.31115
3.33456
2.89507
1.62215
1.34932
1.51783
1.70741
1.84139
1.88911
1.84139
1.7074
1.51781
1.3493
1.62088
2.89352
3.34237
3.34488
3.29591
3
3
3
3
3
3
3
3
3
3
3
2.99999
2.99996
2.99985
2.99954
2.99891
2.99817
2.99912
3.00733
3.03391
3.09204
3.18629
3.29822
3.3598
3.11742
1.96672
1.33509
1.42457
1.58655
1.7074
1.75108
1.7074
1.58653
1.42453
1.33493
1.9641
3.11499
3.36472
3.3258
3.26824
3
3
3
3
3
3
3
3
3
3
3
3
2.99997
2.99988
2.99961
2.99903
2.99819
2.99834
3.00393
3.02463
3.07357
3.15859
3.26988
3.36541
3.31543
2.66377
1.51729
1.33177
1.42455
1.51781
1.55341
1.51781
1.42453
1.33169
1.5166
2.66028
3.31256
3.36714
3.2892
3.22393
3
3
3
3
3
3
3
3
3
3
3
3
2.99998
2.99991
2.9997
2.99919
2.99832
2.99776
3.00061
3.01449
3.0515
3.122
3.22414
3.33458
3.39313
3.22718
2.41588
1.51684
1.33497
1.3493
1.36538
1.3493
1.33493
1.5166
2.41437
3.22473
3.39036
3.33378
3.23507
3.16793
3
3
3
3
3
3
3
3
3
3
3
3
2.99999
2.99994
2.99979
2.9994
2.9986
2.99762
2.99822
3.00568
3.02984
3.08187
3.16595
3.27132
3.36801
3.39656
3.22556
2.66066
1.96419
1.62089
1.54002
1.62088
1.9641
2.66028
3.22473
3.39509
3.36562
3.26903
3.16989
3.10883
3
3
3
3
3
3
3
3
3
3
3
3
3
2.99997
2.99987
2.9996
2.99896
2.99789
2.99715
2.99971
3.01245
3.0452
3.10551
3.19128
3.28733
3.36652
3.39073
3.31269
3.11503
2.89353
2.79895
2.89352
3.11499
3.31256
3.39036
3.36562
3.28543
3.18845
3.10474
3.05665
3
3
3
3
3
3
3
3
3
3
3
3
3
2.99999
2.99994
2.99976
2.99932
2.99841
2.99715
2.99683
3.00131
3.01766
3.05383
3.11313
3.18985
3.26959
3.33396
3.36719
3.36473
3.34237
3.32972
3.34237
3.36472
3.36714
3.33378
3.26903
3.18845
3.11046
3.05069
3.01883
3
3
3
3
3
3
3
3
3
3
3
3
3
3
2.99997
2.99988
2.9996
2.99892
2.99766
2.99609
2.99586
3.00112
3.01824
3.05289
3.1057
3.17023
3.23516
3.28922
3.3258
3.34488
3.35045
3.34488
3.3258
3.2892
3.23507
3.16989
3.10474
3.05069
3.01443
2.99703
3
3
3
3
3
3
3
3
3
3
3
3
3
3
2.99999
2.99994
2.99974
2.99922
2.99809
2.99616
2.994
2.99395
3.0008
3.02066
3.05737
3.10904
3.16798
3.22394
3.26824
3.29591
3.30523
3.29591
3.26824
3.22393
3.16793
3.10883
3.05665
3.01883
2.99703
2.988
