# vtk DataFile Version 3.0
Brusselator Concentration Output
ASCII
DATASET STRUCTURED_POINTS
DIMENSIONS 40 40 1
ORIGIN 0.0 0.0 0.0
SPACING 0.005 0.005 1.0
POINT_DATA 1600
SCALARS C1 double 1
LOOKUP_TABLE default
1
1
1
1
1
1
1.00001
1.00002
1.00003
1.00005
1.00005
1.00005
1.00003
1.00002
1.00001
1
1
1
1
1
1
1
1
1
1
1
1
1
1
1
1
1
1
1
1
1
1
1
1
1
1
1
1
1
1
1.00001
1.00003
1.00007
1.00013
1.0002
1.00022
1.0002
1.00013
1.00007
1.00003
1.00001
1
1
1
1
1
1
1
1
1
1
1
1
1
1
1
1
1
1
1
1
1
1
1
1
1
1
1
1
1.00002
1.00005
1.00014
1.00032
1.00058
1.00083
1.00092
1.00083
1.00058
1.00032
1.00014
1.00005
1.00002
1
1
1
1
1
1
1
1
1
1
1
1
1
1
1
1
1
1
1
1
1
1
1
1
1
1
1.00002
1.00007
1.00021
1.00058
1.00125
1.00215
1.00287
1.00311
1.00287
1.00215
1.00125
1.00058
1.00021
1.00007
1.00002
1
1
1
1
1
1
1
1
1
1
1
1
1
1
1
1
1
1
1
1
1
1
1
1
1.00002
1.00007
1.00024
1.00077
1.00197
1.004
1.00625
1.00755
1.00777
1.00755
1.00625
1.004
1.00197
1.00077
1.00024
1.00007
1.00002
1
1
1
1
1
1
1
1
1
1
1
1
1
1
1
1
1
1
1
1
1
1
1.00001
1.00005
1.00021
1.00077
1.00228
1.00543
1.00982
1.01273
1.01189
1.01048
1.01189
1.01273
1.00982
1.00543
1.00228
1.00077
1.00021
1.00005
1.00001
1
1
1
1
1
1
1
1
1
1
1
1
1
1
1
1
1
1
1
1
1.00001
1.00003
1.00014
1.00058
1.00197
1.00543
1.01139
1.01608
1.01122
0.996796
0.988996
0.996796
1.01122
1.01608
1.01139
1.00543
1.00197
1.00058
1.00014
1.00003
1.00001
1
1
1
1
1
1
1
1
1
1
1
1
1
1
1
1
1
1
1
1.00002
1.00007
1.00032
1.00125
1.004
1.00982
1.01608
1.00952
0.975308
0.92901
0.909966
0.92901
0.975308
1.00952
1.01608
1.00982
1.004
1.00125
1.00032
1.00007
1.00001
1
1
1
1
1
1
1
1
1
1
1
1
1
1
1
1
1
1
1
1.00003
1.00013
1.00058
1.00215
1.00625
1.01273
1.01122
0.975308
0.894328
0.813161
0.785623
0.813161
0.894328
0.975308
1.01122
1.01273
1.00625
1.00215
1.00058
1.00013
1.00003
1
1
1
1
1
1
1
1
1
1
1
1
1
1
1
1
1
1
1
1.00005
1.0002
1.00083
1.00287
1.00755
1.01189
0.996796
0.92901
0.813161
0.7151
0.685858
0.7151
0.813161
0.92901
0.996796
1.01189
1.00755
1.00287
1.00082
1.00019
1.00004
1.00001
1
1
1
1
1
1
1
1
1
1
1
1
1
1
1
1
1
1
1.00005
1.00022
1.00092
1.00311
1.00777
1.01048
0.988996
0.909966
0.785623
0.685858
0.656936
0.685858
0.785623
0.909966
0.988996
1.01048
1.00777
1.00311
1.00092
1.00022
1.00004
1.00001
1
1
1
1
1
1
1
1
1
1
1
1
1
1
1
1
1
1
1.00005
1.0002
1.00083
1.00287
1.00755
1.01189
0.996796
0.92901
0.813161
0.7151
0.685858
0.7151
0.813161
0.92901
0.996796
1.01189
1.00755
1.00287
1.00082
1.00019
1.00004
1.00001
1
1
1
1
1
1
1
1
1
1
1
1
1
1
1
1
1
1
1.00003
1.00013
1.00058
1.00215
1.00625
1.01273
1.01122
0.975308
0.894328
0.813161
0.785623
0.813161
0.894328
0.975308
1.01122
1.01273
1.00625
1.00215
1.00058
1.00013
1.00003
1
1
1
1
1
1
1
1
1
1
1
1
1
1
1
1
1
1
1
1.00002
1.00007
1.00032
1.00125
1.004
1.00982
1.01608
1.00952
0.975308
0.92901
0.909966
0.92901
0.975308
1.00952
1.01608
1.00982
1.004
1.00125
1.00032
1.00007
1.00001
1
1
1
1
1
1
1
1
1
1
1
1
1
1
1
1
1
1
1
1.00001
1.00003
1.00014
1.00058
1.00197
1.00543
1.01139
1.01608
1.01122
0.996796
0.988996
0.996796
1.01122
1.01608
1.01139
1.00543
1.00197
1.00058
1.00014
1.00003
1.00001
1
1
1
1
1
1
1
1
1
1
1
1
1
1
1
1
1
1
1
1
1.00001
1.00005
1.00021
1.00077
1.00228
1.00543
1.00982
1.01273
1.01189
1.01048
1.01189
1.01273
1.00982
1.00543
1.00228
1.00077
1.00021
1.00005
1.00001
1
1
1
1
1
1
1
1
1
1
1
1
1
1
1
1
1
1
1
1
1
1
1.00002
1.00007
1.00024
1.00077
1.00197
1.004
1.00625
1.00755
1.00777
1.00755
1.00625
1.004
1.00197
1.00077
1.00024
1.00007
1.00002
1
1
1
1
1
1
1
1
1
1
1
1
1
1
1
1
1
1
1
1
1
1
1
1
1.00002
1.00007
1.00021
1.00058
1.00125
1.00215
1.00287
1.00311
1.00287
1.00215
1.00125
1.00058
1.00021
1.00007
1.00002
1
1
1
1
1
1
1
1
1
1
1
1
1
1
1
1
1
1
1
1
1
1
1
1
1
1
1.00002
1.00005
1.00014
1.00032
1.00058
1.00082
1.00092
1.00082
1.00058
1.00032
1.00014
1.00005
1.00002
1
1
1
1
1
1
1
1
1
1
1
1
1
1
1
1
1
1
1
1
1
1
1
1
1
1
1
1
1.00001
1.00003
1.00007
1.00013
1.00019
1.00022
1.00019
1.00013
1.00007
1.00003
1.00001
1
1
1
1
1
1
1
1
1
1
1
0.999999
0.999999
0.999998
0.999998
0.999998
0.999999
0.999999
1
1
1
1
1
1
1
1
1
1
1
1
1.00001
1.00001
1.00003
1.00004
1.00004
1.00004
1.00003
1.00001
1.00001
1
1
1
1
1
1
1
1
1
1
0.999999
0.999998
0.999996
0.999992
0.999989
0.999987
0.999989
0.999992
0.999996
0.999998
0.999999
1
1
1
1
1
1
1
1
1
1
1
1
1
1.00001
1.00001
1.00001
1
1
1
1
1
1
1
1
1
1
1
1
0.999999
0.999997
0.999991
0.999979
0.999961
0.999943
0.999936
0.999943
0.999961
0.999979
0.999991
0.999997
0.999999
1
1
1
1
1
1
1
1
1
1
1
1
1
1
1
1
1
1
1
1
1
1
1
1
1
1
0.999999
0.999996
0.999985
0.999959
0.999907
0.99983
0.999756
0.999727
0.999756
0.99983
0.999907
0.999959
0.999985
0.999996
0.999999
1
1
1
1
1
1
1
1
1
1
1
1
1
1
1
1
1
1
1
1
1
1
1
1
0.999999
0.999995
0.999981
0.999939
0.999834
0.999636
0.999361
0.999118
0.999028
0.999118
0.999361
0.999636
0.999834
0.999939
0.999981
0.999995
0.999999
1
1
1
1
1
1
1
1
1
1
1
1
1
1
1
1
1
1
1
1
1
1
0.999999
0.999996
0.999981
0.99993
0.99978
0.99943
0.998803
0.99802
0.997429
0.997256
0.997429
0.99802
0.998803
0.99943
0.99978
0.99993
0.999981
0.999995
0.999999
1
1
1
1
1
1
1
1
1
1
1
1
1
1
1
1
1
1
1
1
0.999999
0.999997
0.999985
0.999939
0.99978
0.999339
0.99837
0.996819
0.995234
0.994516
0.994557
0.994516
0.995234
0.996819
0.99837
0.999339
0.99978
0.999939
0.999985
0.999996
1
1
1
1
1
1
1
1
1
1
1
1
1
1
1
1
1
1
1
1
0.999998
0.999991
0.999959
0.999834
0.99943
0.99837
0.99628
0.99357
0.992223
0.993977
0.995941
0.993977
0.992223
0.99357
0.99628
0.99837
0.99943
0.999834
0.999959
0.99999
1
1
1
1
1
1
1
1
1
1
1
1
1
1
1
1
1
1
1
0.999999
0.999996
0.999979
0.999907
0.999636
0.998803
0.996819
0.99357
0.991388
0.995991
1.00966
1.01893
1.00966
0.995991
0.991388
0.99357
0.996819
0.998803
0.999636
0.999906
0.999975
1
1
1
1
1
1
1
1
1
1
1
1
1
1
1
1
1
1
1
0.999999
0.999992
0.999961
0.99983
0.999361
0.99802
0.995234
0.992223
0.995991
1.01988
1.06514
1.09137
1.06514
1.01988
0.995991
0.992223
0.995234
0.99802
0.999361
0.999829
0.999954
1
1
1
1
1
1
1
1
1
1
1
1
1
1
1
1
1
1
1
0.999998
0.999989
0.999943
0.999756
0.999118
0.997429
0.994516
0.993977
1.00966
1.06514
1.15562
1.19897
1.15562
1.06514
1.00966
0.993977
0.994516
0.997429
0.999118
0.999754
0.999932
1
1
1
1
1
1
1
1
1
1
1
1
1
1
1
1
1
1
1
0.999998
0.999987
0.999936
0.999727
0.999028
0.997256
0.994557
0.995941
1.01893
1.09137
1.19897
1.23967
1.19897
1.09137
1.01893
0.995941
0.994557
0.997256
0.999028
0.999724
0.999922
1
1
1
1
1
1
1
1
1
1
1
1
1
1
1
1
1
1
1
0.999998
0.999989
0.999943
0.999756
0.999118
0.997429
0.994516
0.993977
1.00966
1.06514
1.15562
1.19897
1.15562
1.06514
1.00966
0.993977
0.994516
0.997429
0.999118
0.999754
0.999932
1
1
1
1
1
1
1
1
1
1
1
1
1
1
1
1
1
1
1
0.999999
0.999992
0.999961
0.99983
0.999361
0.99802
0.995234
0.992223
0.995991
1.01988
1.06514
1.09137
1.06514
1.01988
0.995991
0.992223
0.995234
0.99802
0.999361
0.999829
0.999954
1
1
1
1
1
1
1
1
1
1
1
1
1
1
1
1
1
1
1
0.999999
0.999996
0.999979
0.999907
0.999636
0.998803
0.996819
0.99357
0.991388
0.995991
1.00966
1.01893
1.00966
0.995991
0.991388
0.99357
0.996819
0.998803
0.999636
0.999906
0.999975
1
1
1
1
1
1
1
1
1
1
1
1
1
1
1
1
1
1
1
1
0.999998
0.999991
0.999959
0.999834
0.99943
0.99837
0.99628
0.99357
0.992223
0.993977
0.995941
0.993977
0.992223
0.99357
0.99628
0.99837
0.99943
0.999834
0.999959
0.99999
1
1
1
1
1
1
1
1
1
1
1
1
1
1
1
1
1
1
1
1
0.999999
0.999997
0.999985
0.999939
0.99978
0.999339
0.99837
0.996819
0.995234
0.994516
0.994557
0.994516
0.995234
0.996819
0.99837
0.999339
0.99978
0.999939
0.999985
0.999996
1
1
1
1
1
1
1
1
1
1
1
1
1
1
1
1
1
1
1
1
1
0.999999
0.999996
0.999981
0.99993
0.99978
0.99943
0.998803
0.99802
0.997429
0.997256
0.997429
0.99802
0.998803
0.99943
0.99978
0.99993
0.999981
0.999995
0.999999
1
1
1
1
1
1
1
1
1
1
1
1
1
1
1
1
1
1
1
1
1
1
0.999999
0.999995
0.999981
0.999939
0.999834
0.999636
0.999361
0.999118
0.999028
0.999118
0.999361
0.999636
0.999834
0.999939
0.999981
0.999995
0.999999
1
1
1
1
1
1
1
1
1
1
1
1
1
1
1
1
1
1
1
1
1
1
1
1
0.999999
0.999995
0.999985
0.999959
0.999906
0.999829
0.999754
0.999724
0.999754
0.999829
0.999906
0.999959
0.999985
0.999995
0.999999
1
1
1
1
1
1
1
1
1
1
1
1
1
1
1
1
1
1
1
1
1
1
1
1
1
1
0.999999
0.999996
0.99999
0.999975
0.999954
0.999932
0.999922
0.999932
0.999954
0.999975
0.99999
0.999996
0.999999
1
1
1
SCALARS C2 double 1
LOOKUP_TABLE default
3
3
3
3
3
3
3
2.99999
2.99997
2.99996
2.99995
2.99996
2.99997
2.99999
3
3
3
3
3
3
3
3
3
3
3
3
3
3
3
3
3
3
3
3
3
3
3
3
3
3
3
3
3
3
3
2.99999
2.99998
2.99994
2.99988
2.99981
2.99978
2.99981
2.99988
2.99994
2.99998
2.99999
3
3
3
3
3
3
3
3
3
3
3
3
3
3
3
3
3
3
3
3
3
3
3
3
3
3
3
3
2.99999
2.99996
2.99988
2.99969
2.9994
2.9991
2.99897
2.9991
2.9994
2.99969
2.99988
2.99996
2.99999
3
3
3
3
3
3
3
3
3
3
3
3
3
3
3
3
3
3
3
3
3
3
3
3
3
3
2.99999
2.99995
2.99981
2.99944
2.99867
2.99749
2.99635
2.9959
2.99635
2.99749
2.99867
2.99944
2.99981
2.99995
2.99999
3
3
3
3
3
3
3
3
3
3
3
3
3
3
3
3
3
3
3
3
3
3
3
3
2.99999
2.99995
2.99978
2.99926
2.99787
2.99511
2.99123
2.98795
2.98689
2.98795
2.99123
2.99511
2.99787
2.99926
2.99978
2.99995
2.99999
3
3
3
3
3
3
3
3
3
3
3
3
3
3
3
3
3
3
3
3
3
3
2.99999
2.99996
2.99981
2.99926
2.99752
2.99321
2.98535
2.97601
2.97041
2.9697
2.97041
2.97601
2.98535
2.99321
2.99752
2.99926
2.99981
2.99996
2.99999
3
3
3
3
3
3
3
3
3
3
3
3
3
3
3
3
3
3
3
3
3
2.99998
2.99988
2.99944
2.99787
2.99321
2.98265
2.96646
2.95418
2.9566
2.9631
2.9566
2.95418
2.96646
2.98265
2.99321
2.99787
2.99944
2.99988
2.99998
3
3
3
3
3
3
3
3
3
3
3
3
3
3
3
3
3
3
3
3
2.99999
2.99994
2.99969
2.99867
2.99511
2.98535
2.96646
2.94755
2.95581
2.99957
3.02942
2.99957
2.95581
2.94755
2.96646
2.98535
2.99511
2.99867
2.99969
2.99994
2.99999
3
3
3
3
3
3
3
3
3
3
3
3
3
3
3
3
3
3
3
2.99997
2.99988
2.9994
2.99749
2.99123
2.97601
2.95418
2.95581
3.02714
3.15135
3.22153
3.15135
3.02714
2.95581
2.95418
2.97601
2.99123
2.99749
2.9994
2.99988
2.99998
3
3
3
3
3
3
3
3
3
3
3
3
3
3
3
3
3
3
3
2.99996
2.99981
2.9991
2.99635
2.98795
2.97041
2.9566
2.99957
3.15135
3.36141
3.47657
3.36141
3.15135
2.99957
2.9566
2.97041
2.98795
2.99635
2.9991
2.99981
2.99997
2.99999
3
3
3
3
3
3
3
3
3
3
3
3
3
3
3
3
3
3
2.99995
2.99978
2.99897
2.9959
2.98689
2.9697
2.9631
3.02942
3.22153
3.47657
3.61516
3.47657
3.22153
3.02942
2.9631
2.9697
2.98689
2.9959
2.99897
2.99978
2.99996
2.99999
3
3
3
3
3
3
3
3
3
3
3
3
3
3
3
3
3
3
2.99996
2.99981
2.9991
2.99635
2.98795
2.97041
2.9566
2.99957
3.15135
3.36141
3.47657
3.36141
3.15135
2.99957
2.9566
2.97041
2.98795
2.99635
2.9991
2.99981
2.99997
2.99999
3
3
3
3
3
3
3
3
3
3
3
3
3
3
3
3
3
3
2.99997
2.99988
2.9994
2.99749
2.99123
2.97601
2.95418
2.95581
3.02714
3.15135
3.22153
3.15135
3.02714
2.95581
2.95418
2.97601
2.99123
2.99749
2.9994
2.99988
2.99998
3
3
3
3
3
3
3
3
3
3
3
3
3
3
3
3
3
3
3
2.99999
2.99994
2.99969
2.99867
2.99511
2.98535
2.96646
2.94755
2.95581
2.99957
3.02942
2.99957
2.95581
2.94755
2.96646
2.98535
2.99511
2.99867
2.99969
2.99994
2.99999
3
3
3
3
3
3
3
3
3
3
3
3
3
3
3
3
3
3
3
3
2.99998
2.99988
2.99944
2.99787
2.99321
2.98265
2.96646
2.95418
2.9566
2.9631
2.9566
2.95418
2.96646
2.98265
2.99321
2.99787
2.99944
2.99988
2.99998
3
3
3
3
3
3
3
3
3
3
3
3
3
3
3
3
3
3
3
3
3
2.99999
2.99996
2.99981
2.99926
2.99752
2.99321
2.98535
2.97601
2.97041
2.9697
2.97041
2.97601
2.98535
2.99321
2.99752
2.99926
2.99981
2.99996
2.99999
3
3
3
3
3
3
3
3
3
3
3
3
3
3
3
3
3
3
3
3
3
3
2.99999
2.99995
2.99978
2.99926
2.99787
2.99511
2.99123
2.98795
2.98689
2.98795
2.99123
2.99511
2.99787
2.99926
2.99978
2.99995
2.99999
3
3
3
3
3
3
3
3
3
3
3
3
3
3
3
3
3
3
3
3
3
3
3
3
2.99999
2.99995
2.99981
2.99944
2.99867
2.99749
2.99635
2.9959
2.99635
2.99749
2.99867
2.99944
2.99981
2.99995
2.99999
3
3
3
3
3
3
3
3
3
3
3
3
3
3
3
3
3
3
3
3
3
3
3
3
3
3
2.99999
2.99996
2.99988
2.99969
2.9994
2.9991
2.99897
2.9991
2.9994
2.99969
2.99988
2.99996
2.99999
3
3
3
3
3
3
3
3
3
3
3
3
3
3
3
3
3
3
3
3
3
3
3
3
3
3
3
3
2.99999
2.99998
2.99994
2.99988
2.99981
2.99978
2.99981
2.99988
2.99994
2.99998
2.99999
3
3
3
3
3
3
3
3
3
3
3
3
3
3
3
3
3
3
3
3
3
3
3
3
3
3
3
3
3
3
3
2.99999
2.99998
2.99997
2.99996
2.99997
2.99998
2.99999
3
3
3
3
3
3
3
3
3
3
3
3
3
3
3.00001
3.00001
3.00001
3.00001
3.00001
3
3
3
3
3
3
3
3
3
3
3
3
3
3
3
3
2.99999
2.99999
2.99999
3
3
3
3
3
3
3
3
3
3
3
3
3
3
3.00001
3.00002
3.00004
3.00005
3.00006
3.00005
3.00004
3.00002
3.00001
3
3
3
3
3
3
3
3
3
3
3
3
3
3
3
3
3
3
3
3
3
3
3
3
3
3
3
3
3
3
3.00001
3.00004
3.00009
3.00017
3.00026
3.0003
3.00026
3.00017
3.00009
3.00004
3.00001
3
3
3
3
3
3
3
3
3
3
3
3
3
3
3
3
3
3
3
3
3
3
3
3
3
3
3
3
3.00002
3.00005
3.00016
3.00038
3.00073
3.00109
3.00123
3.00109
3.00073
3.00038
3.00016
3.00005
3.00002
3
3
3
3
3
3
3
3
3
3
3
3
3
3
3
3
3
3
3
3
3
3
3
3
3
3
3.00002
3.00006
3.00021
3.00061
3.00142
3.00263
3.00377
3.0042
3.00377
3.00263
3.00142
3.00061
3.00021
3.00006
3.00002
3
3
3
3
3
3
3
3
3
3
3
3
3
3
3
3
3
3
3
3
3
3
3
3
3.00001
3.00005
3.00021
3.00071
3.00197
3.00442
3.00777
3.01053
3.01135
3.01053
3.00777
3.00442
3.00197
3.00071
3.00021
3.00005
3.00001
3
3
3
3
3
3
3
3
3
3
3
3
3
3
3
3
3
3
3
3
3
3
3.00001
3.00004
3.00016
3.00061
3.00197
3.00524
3.01108
3.01793
3.02178
3.02171
3.02178
3.01793
3.01108
3.00524
3.00197
3.00061
3.00016
3.00004
3.00001
3
3
3
3
3
3
3
3
3
3
3
3
3
3
3
3
3
3
3
3
3
3.00002
3.00009
3.00038
3.00142
3.00442
3.01108
3.02135
3.0293
3.02567
3.01748
3.02567
3.0293
3.02135
3.01108
3.00442
3.00142
3.00038
3.00009
3.00002
3
3
3
3
3
3
3
3
3
3
3
3
3
3
3
3
3
3
3
3
3.00001
3.00004
3.00017
3.00073
3.00263
3.00777
3.01793
3.0293
3.02427
2.98353
2.94556
2.98353
3.02427
3.0293
3.01793
3.00777
3.00263
3.00073
3.00017
3.00004
3
3
3
3
3
3
3
3
3
3
3
3
3
3
3
3
3
3
3
3
3.00001
3.00005
3.00026
3.00109
3.00377
3.01053
3.02178
3.02567
2.98353
2.86156
2.76739
2.86156
2.98353
3.02567
3.02178
3.01053
3.00377
3.00109
3.00026
3.00007
3
3
3
3
3
3
3
3
3
3
3
3
3
3
3
3
3
3
3
3
3.00001
3.00006
3.0003
3.00123
3.0042
3.01135
3.02171
3.01748
2.94556
2.76739
2.6426
2.76739
2.94556
3.01748
3.02171
3.01135
3.0042
3.00123
3.0003
3.00008
3
3
3
3
3
3
3
3
3
3
3
3
3
3
3
3
3
3
3
3
3.00001
3.00005
3.00026
3.00109
3.00377
3.01053
3.02178
3.02567
2.98353
2.86156
2.76739
2.86156
2.98353
3.02567
3.02178
3.01053
3.00377
3.00109
3.00026
3.00007
3
3
3
3
3
3
3
3
3
3
3
3
3
3
3
3
3
3
3
3
3.00001
3.00004
3.00017
3.00073
3.00263
3.00777
3.01793
3.0293
3.02427
2.98353
2.94556
2.98353
3.02427
3.0293
3.01793
3.00777
3.00263
3.00073
3.00017
3.00004
3
3
3
3
3
3
3
3
3
3
3
3
3
3
3
3
3
3
3
3
3
3.00002
3.00009
3.00038
3.00142
3.00442
3.01108
3.02135
3.0293
3.02567
3.01748
3.02567
3.0293
3.02135
3.01108
3.00442
3.00142
3.00038
3.00009
3.00002
3
3
3
3
3
3
3
3
3
3
3
3
3
3
3
3
3
3
3
3
3
3.00001
3.00004
3.00016
3.00061
3.00197
3.00524
3.01108
3.01793
3.02178
3.02171
3.02178
3.01793
3.01108
3.00524
3.00197
3.00061
3.00016
3.00004
3.00001
3
3
3
3
3
3
3
3
3
3
3
3
3
3
3
3
3
3
3
3
3
3
3.00001
3.00005
3.00021
3.00071
3.00197
3.00442
3.00777
3.01053
3.01135
3.01053
3.00777
3.00442
3.00197
3.00071
3.00021
3.00005
3.00001
3
3
3
3
3
3
3
3
3
3
3
3
3
3
3
3
3
3
3
3
3
3
3
3
3.00002
3.00006
3.00021
3.00061
3.00142
3.00263
3.00377
3.0042
3.00377
3.00263
3.00142
3.00061
3.00021
3.00006
3.00002
3
3
3
3
3
3
3
3
3
3
3
3
3
3
3
3
3
3
3
3
3
3
3
3
3
3
3.00002
3.00005
3.00016
3.00038
3.00073
3.00109
3.00123
3.00109
3.00073
3.00038
3.00016
3.00005
3.00002
3
3
3
3
3
3
3
3
3
3
3
3
3
3
3
3
3
3
3
3
3
3
3
3
3
3
3
3
3.00001
3.00004
3.00009
3.00017
3.00026
3.0003
3.00026
3.00017
3.00009
3.00004
3.00001
3
3
3
3
3
3
3
3
3
3
3
3
3
3
3
3
3
3
3
3
3
3
3
3
3
3
3
3
3
3
3.00001
3.00002
3.00004
3.00007
3.00008
3.00007
3.00004
3.00002
3.00001
3
3
3
3
3
