# vtk DataFile Version 3.0
Brusselator Concentration Output
ASCII
DATASET STRUCTURED_POINTS
DIMENSIONS 40 40 1
ORIGIN 0.0 0.0 0.0
SPACING 0.005 0.005 1.0
POINT_DATA 1600
SCALARS C1 double 1
LOOKUP_TABLE default
1
1
1.00001
1.00002
1.00007
1.00015
1.00029
1.00046
1.00064
1.00075
1.00079
1.00075
1.00064
1.00046
1.00029
1.00015
1.00007
1.00002
1.00001
1
1
1
1
1
1
1
1
1
1
1
1
1
1
1
1
1
1
1
1
1
1
1.00001
1.00002
1.00007
1.00018
1.00038
1.00068
1.00101
1.00124
1.00134
1.00135
1.00134
1.00124
1.00101
1.00068
1.00038
1.00018
1.00007
1.00002
1.00001
1
1
1
1
1
1
1
1
1
1
1
1
1
1
1
1
1
1
1
1
1.00001
1.00002
1.00008
1.00021
1.00051
1.001
1.00159
1.00197
1.00187
1.00147
1.00126
1.00147
1.00187
1.00197
1.00159
1.001
1.00051
1.00021
1.00008
1.00002
1.00001
1
1
1
1
1
1
1
1
1
1
1
1
1
1
1
1
1
1
1
1.00002
1.00007
1.00021
1.00056
1.00122
1.0021
1.00259
1.00172
0.999252
0.996501
0.99535
0.996501
0.999252
1.00172
1.00259
1.0021
1.00122
1.00056
1.00021
1.00007
1.00002
1
1
1
1
1
1
1
1
1
1
1
1
1
1
1
1
1
1
1
1.00007
1.00018
1.00051
1.00122
1.0023
1.00291
1.00094
0.994338
0.984146
0.975164
0.971787
0.975164
0.984146
0.994338
1.00094
1.00291
1.0023
1.00122
1.00051
1.00017
1.00005
1.00001
1
1
1
1
1
1
1
1
1
1
1
1
1
1
1
1
1
1
1.00015
1.00038
1.001
1.0021
1.00291
1.00048
0.989891
0.968981
0.943804
0.925117
0.918795
0.925117
0.943804
0.968981
0.989891
1.00048
1.00291
1.0021
1.001
1.00037
1.00012
1.00003
1.00001
1
1
1
1
1
1
1
1
1
1
1
1
1
1
1
1
1
1.00029
1.00068
1.00159
1.00259
1.00094
0.989891
0.961967
0.919283
0.87723
0.851315
0.843842
0.851315
0.87723
0.919283
0.961967
0.989891
1.00094
1.00259
1.00159
1.00067
1.00022
1.00006
1.00002
1
1
1
1
1
1
1
1
1
1
1
1
1
1
1
1
1
1.00046
1.00101
1.00197
1.00172
0.994338
0.968981
0.919283
0.856954
0.806658
0.78333
0.779325
0.78333
0.806658
0.856954
0.919283
0.968981
0.994338
1.00172
1.00196
1.00098
1.00036
1.00011
1.00003
1.00001
1
1
1
1
1
1
1
1
1
1
1
1
1
1
1
1
1.00064
1.00124
1.00187
0.999252
0.984146
0.943804
0.87723
0.806658
0.762026
0.754027
0.76005
0.754027
0.762026
0.806658
0.87723
0.943804
0.984146
0.99925
1.00186
1.0012
1.00048
1.00015
1.00004
1.00001
1
1
1
1
1
1
1
1
1
1
1
1
1
1
1
1
1.00075
1.00134
1.00147
0.996501
0.975164
0.925117
0.851315
0.78333
0.754027
0.771235
0.793932
0.771235
0.754027
0.78333
0.851315
0.925117
0.975163
0.996498
1.00146
1.00128
1.00057
1.00019
1.00005
1.00001
1
1
1
1
1
1
1
1
1
1
1
1
1
1
1
1
1.00079
1.00135
1.00126
0.99535
0.971787
0.918795
0.843842
0.779325
0.76005
0.793932
0.8281
0.793932
0.76005
0.779325
0.843842
0.918795
0.971787
0.995348
1.00124
1.0013
1.00059
1.0002
1.00006
1.00001
1
1
1
1
1
1
1
1
1
1
1
1
1
1
1
1
1.00075
1.00134
1.00147
0.996501
0.975164
0.925117
0.851315
0.78333
0.754027
0.771235
0.793932
0.771235
0.754027
0.78333
0.851315
0.925117
0.975163
0.996498
1.00146
1.00128
1.00057
1.00019
1.00005
1.00001
1
1
1
1
1
1
1
1
1
1
1
1
1
1
1
1
1.00064
1.00124
1.00187
0.999252
0.984146
0.943804
0.87723
0.806658
0.762026
0.754027
0.76005
0.754027
0.762026
0.806658
0.87723
0.943804
0.984146
0.99925
1.00186
1.0012
1.00048
1.00015
1.00004
1.00001
1
1
1
1
1
1
1
1
1
1
1
1
1
1
1
1
1.00046
1.00101
1.00197
1.00172
0.994338
0.968981
0.919283
0.856954
0.806658
0.78333
0.779325
0.78333
0.806658
0.856954
0.919283
0.968981
0.994338
1.00172
1.00196
1.00098
1.00036
1.00011
1.00003
1.00001
1
1
1
1
1
1
1
1
1
1
1
1
1
1
1
1
1.00029
1.00068
1.00159
1.00259
1.00094
0.989891
0.961967
0.919283
0.87723
0.851315
0.843842
0.851315
0.87723
0.919283
0.961967
0.989891
1.00094
1.00259
1.00159
1.00067
1.00022
1.00006
1.00002
1
1
1
1
1
1
1
1
1
1
1
1
1
1
1
1
1
1.00015
1.00038
1.001
1.0021
1.00291
1.00048
0.989891
0.968981
0.943804
0.925117
0.918795
0.925117
0.943804
0.968981
0.989891
1.00048
1.00291
1.0021
1.001
1.00037
1.00012
1.00003
1.00001
1
1
1
1
1
1
1
1
1
1
1
1
1
1
1
1
1
1.00007
1.00018
1.00051
1.00122
1.0023
1.00291
1.00094
0.994338
0.984146
0.975163
0.971787
0.975163
0.984146
0.994338
1.00094
1.00291
1.0023
1.00122
1.00051
1.00017
1.00005
1.00001
1
1
1
1
1
1
0.999999
0.999999
0.999999
0.999999
0.999999
1
1
1
1
1
1
1
1.00002
1.00007
1.00021
1.00056
1.00122
1.0021
1.00259
1.00172
0.99925
0.996498
0.995348
0.996498
0.99925
1.00172
1.00259
1.0021
1.00122
1.00056
1.00021
1.00007
1.00002
1
1
1
1
1
0.999999
0.999998
0.999997
0.999996
0.999996
0.999996
0.999997
0.999998
0.999999
1
1
1
1
1
1.00001
1.00002
1.00008
1.00021
1.00051
1.001
1.00159
1.00196
1.00186
1.00146
1.00124
1.00146
1.00186
1.00196
1.00159
1.001
1.00051
1.00021
1.00008
1.00002
1.00001
1
1
1
0.999999
0.999998
0.999995
0.999992
0.999988
0.999985
0.999983
0.999985
0.999988
0.999992
0.999995
0.999998
0.999999
1
1
1
1
1.00001
1.00002
1.00007
1.00017
1.00037
1.00067
1.00098
1.0012
1.00128
1.0013
1.00128
1.0012
1.00098
1.00067
1.00037
1.00017
1.00007
1.00002
1.00001
1
1
1
0.999999
0.999996
0.999991
0.999981
0.999968
0.999954
0.999943
0.999938
0.999943
0.999954
0.999968
0.999981
0.999991
0.999996
0.999999
1
1
1
1
1.00001
1.00002
1.00005
1.00012
1.00022
1.00036
1.00048
1.00057
1.00059
1.00057
1.00048
1.00036
1.00022
1.00012
1.00005
1.00002
1.00001
1
1
1
0.999998
0.999994
0.999985
0.999966
0.999933
0.99989
0.999847
0.999816
0.999806
0.999816
0.999847
0.99989
0.999933
0.999966
0.999985
0.999994
0.999998
0.999999
1
1
1
1
1.00001
1.00003
1.00006
1.00011
1.00015
1.00019
1.0002
1.00019
1.00015
1.00011
1.00006
1.00003
1.00001
1
1
1
1
0.999998
0.999993
0.99998
0.999949
0.999888
0.999793
0.99968
0.999584
0.99953
0.999516
0.99953
0.999584
0.99968
0.999793
0.999888
0.999948
0.99998
0.999993
0.999997
1
1
1
1
1
1.00001
1.00002
1.00003
1.00004
1.00005
1.00006
1.00005
1.00004
1.00003
1.00002
1.00001
1
1
1
1
0.999998
0.999993
0.999978
0.999937
0.999847
0.999686
0.999466
0.999263
0.999173
0.999202
0.999236
0.999202
0.999173
0.999263
0.999466
0.999686
0.999847
0.999937
0.999977
0.999991
1
1
1
1
1
1
1
1.00001
1.00001
1.00001
1.00001
1.00001
1.00001
1.00001
1
1
1
1
1
0.999999
0.999994
0.99998
0.999937
0.99983
0.999614
0.999279
0.998946
0.998897
0.999343
1.00004
1.00037
1.00004
0.999343
0.998897
0.998946
0.999279
0.999614
0.99983
0.999936
0.999974
1
1
1
1
1
1
1
1
1
1
1
1
1
1
1
1
1
1
0.999999
0.999996
0.999985
0.999949
0.999847
0.999614
0.999203
0.998751
0.998798
1.0002
1.00322
1.00653
1.00792
1.00653
1.00322
1.0002
0.998798
0.998751
0.999203
0.999613
0.999843
0.999933
1
1
1
1
1
1
1
1
1
1
1
1
1
1
1
1
1
1
0.999998
0.999991
0.999966
0.999888
0.999686
0.999279
0.998751
0.998792
1.00112
1.00783
1.01866
1.02875
1.03254
1.02875
1.01866
1.00783
1.00112
0.998792
0.998751
0.999276
0.999677
0.999853
1
1
1
1
1
1
1
1
1
1
1
1
1
1
1
1
1
0.999999
0.999995
0.999981
0.999933
0.999793
0.999466
0.998946
0.998798
1.00112
1.01014
1.02976
1.0563
1.07635
1.08228
1.07635
1.0563
1.02976
1.01014
1.00112
0.998797
0.998942
0.999448
0.999726
1
1
1
1
1
1
1
1
1
1
1
1
1
1
1
1
1
0.999998
0.999992
0.999968
0.99989
0.99968
0.999263
0.998897
1.0002
1.00783
1.02976
1.06969
1.11123
1.12791
1.12759
1.12791
1.11123
1.06969
1.02976
1.00783
1.00019
0.998889
0.999231
0.99957
1
1
1
1
1
1
1
1
1
1
1
1
1
1
1
1
0.999999
0.999997
0.999988
0.999954
0.999847
0.999584
0.999173
0.999343
1.00322
1.01866
1.0563
1.11123
1.14025
1.11802
1.09854
1.11802
1.14025
1.11123
1.0563
1.01866
1.00322
0.999331
0.999127
0.999431
1
1
1
1
1
1
1
1
1
1
1
1
1
1
1
1
0.999999
0.999996
0.999985
0.999943
0.999816
0.99953
0.999202
1.00004
1.00653
1.02875
1.07635
1.12791
1.11802
1.04892
1.01307
1.04892
1.11802
1.12791
1.07635
1.02875
1.00652
1.00002
0.999145
0.999347
1
1
1
1
1
1
1
1
1
1
1
1
1
1
1
1
0.999999
0.999996
0.999983
0.999938
0.999806
0.999516
0.999236
1.00037
1.00792
1.03254
1.08228
1.12759
1.09854
1.01307
0.972639
1.01307
1.09854
1.12759
1.08228
1.03254
1.00791
1.00036
0.999174
0.999321
1
1
1
1
1
1
1
1
1
1
1
1
1
1
1
1
0.999999
0.999996
0.999985
0.999943
0.999816
0.99953
0.999202
1.00004
1.00653
1.02875
1.07635
1.12791
1.11802
1.04892
1.01307
1.04892
1.11802
1.12791
1.07635
1.02875
1.00652
1.00002
0.999145
0.999347
1
1
1
1
1
1
1
1
1
1
1
1
1
1
1
1
0.999999
0.999997
0.999988
0.999954
0.999847
0.999584
0.999173
0.999343
1.00322
1.01866
1.0563
1.11123
1.14025
1.11802
1.09854
1.11802
1.14025
1.11123
1.0563
1.01866
1.00322
0.999331
0.999127
0.999431
1
1
1
1
1
1
1
1
1
1
1
1
1
1
1
1
1
0.999998
0.999992
0.999968
0.99989
0.99968
0.999263
0.998897
1.0002
1.00783
1.02976
1.06969
1.11123
1.12791
1.12759
1.12791
1.11123
1.06969
1.02976
1.00783
1.00019
0.998889
0.999231
0.99957
1
1
1
1
1
1
1
1
1
1
1
1
1
1
1
1
1
0.999999
0.999995
0.999981
0.999933
0.999793
0.999466
0.998946
0.998798
1.00112
1.01014
1.02976
1.0563
1.07635
1.08228
1.07635
1.0563
1.02976
1.01014
1.00112
0.998797
0.998942
0.999448
0.999726
1
1
1
1
1
1
1
1
1
1
1
1
1
1
1
1
1
1
0.999998
0.999991
0.999966
0.999888
0.999686
0.999279
0.998751
0.998792
1.00112
1.00783
1.01866
1.02875
1.03254
1.02875
1.01866
1.00783
1.00112
0.998792
0.998751
0.999276
0.999677
0.999853
1
1
1
1
1
1
1
1
1
1
1
1
1
1
1
1
1
1
0.999999
0.999996
0.999985
0.999948
0.999847
0.999614
0.999203
0.998751
0.998797
1.00019
1.00322
1.00652
1.00791
1.00652
1.00322
1.00019
0.998797
0.998751
0.999203
0.999613
0.999843
0.999933
1
1
1
1
1
1
1
1
1
1
1
1
1
1
1
1
1
1
1
0.999999
0.999994
0.99998
0.999937
0.99983
0.999613
0.999276
0.998942
0.998889
0.999331
1.00002
1.00036
1.00002
0.999331
0.998889
0.998942
0.999276
0.999613
0.99983
0.999935
0.999974
1
1
1
1
1
1
1
1
1
1
1
1
1
1
1
1
1
1
1
1
0.999998
0.999993
0.999977
0.999936
0.999843
0.999677
0.999448
0.999231
0.999127
0.999145
0.999174
0.999145
0.999127
0.999231
0.999448
0.999677
0.999843
0.999935
0.999977
0.999991
1
1
1
1
1
1
1
1
1
1
1
1
1
1
1
1
1
1
1
1
0.999999
0.999997
0.999991
0.999974
0.999933
0.999853
0.999726
0.99957
0.999431
0.999347
0.999321
0.999347
0.999431
0.99957
0.999726
0.999853
0.999933
0.999974
0.999991
0.999997
SCALARS C2 double 1
LOOKUP_TABLE default
3
3
2.99999
2.99998
2.99994
2.99985
2.99968
2.99944
2.99918
2.99897
2.9989
2.99897
2.99918
2.99944
2.99968
2.99985
2.99994
2.99998
2.99999
3
3
3
3
3
3
3
3
3
3
3
3
3
3
3
3
3
3
3
3
3
3
2.99999
2.99998
2.99993
2.99981
2.99956
2.99912
2.99855
2.99799
2.99763
2.99752
2.99763
2.99799
2.99855
2.99912
2.99956
2.99981
2.99993
2.99998
2.99999
3
3
3
3
3
3
3
3
3
3
3
3
3
3
3
3
3
3
3
3
2.99999
2.99998
2.99992
2.99977
2.99939
2.99866
2.99752
2.99625
2.99536
2.99506
2.99504
2.99506
2.99536
2.99625
2.99752
2.99866
2.99939
2.99977
2.99992
2.99998
2.99999
3
3
3
3
3
3
3
3
3
3
3
3
3
3
3
3
3
3
3
2.99998
2.99993
2.99977
2.99933
2.99833
2.99656
2.99434
2.99284
2.99325
2.99503
2.99599
2.99503
2.99325
2.99284
2.99434
2.99656
2.99833
2.99933
2.99977
2.99993
2.99998
3
3
3
3
3
3
3
3
3
3
3
3
3
3
3
3
3
3
3
2.99994
2.99981
2.99939
2.99833
2.99617
2.99307
2.991
2.99362
3.00254
3.01316
3.01774
3.01316
3.00254
2.99362
2.991
2.99307
2.99617
2.99833
2.99939
2.99981
2.99995
2.99999
3
3
3
3
3
3
3
3
3
3
3
3
3
3
3
3
3
3
2.99985
2.99956
2.99866
2.99656
2.99307
2.99036
2.99505
3.01502
3.04898
3.08126
3.09384
3.08126
3.04898
3.01502
2.99505
2.99036
2.99307
2.99656
2.99866
2.99956
2.99988
2.99997
2.99999
3
3
3
3
3
3
3
3
3
3
3
3
3
3
3
3
3
2.99968
2.99912
2.99752
2.99434
2.991
2.99505
3.02139
3.08067
3.16099
3.22845
3.25294
3.22845
3.16099
3.08067
3.02139
2.99505
2.991
2.99434
2.99752
2.99914
2.99975
2.99993
2.99999
3
3
3
3
3
3
3
3
3
3
3
3
3
3
3
3
3
2.99944
2.99855
2.99625
2.99284
2.99362
3.01502
3.08067
3.19798
3.33797
3.447
3.4844
3.447
3.33797
3.19798
3.08067
3.01502
2.99362
2.99284
2.99626
2.99857
2.99956
2.99988
2.99997
2.99999
3
3
3
3
3
3
3
3
3
3
3
3
3
3
3
3
2.99918
2.99799
2.99536
2.99325
3.00254
3.04898
3.16099
3.33797
3.53462
3.68055
3.72771
3.68055
3.53462
3.33797
3.16099
3.04898
3.00254
2.99325
2.99537
2.99804
2.99935
2.99982
2.99996
2.99999
3
3
3
3
3
3
3
3
3
3
3
3
3
3
3
3
2.99897
2.99763
2.99506
2.99503
3.01316
3.08126
3.22845
3.447
3.68055
3.84502
3.89193
3.84502
3.68055
3.447
3.22845
3.08126
3.01316
2.99503
2.99507
2.99769
2.9992
2.99977
2.99994
2.99999
3
3
3
3
3
3
3
3
3
3
3
3
3
3
3
3
2.9989
2.99752
2.99504
2.99599
3.01774
3.09384
3.25294
3.4844
3.72771
3.89193
3.93188
3.89193
3.72771
3.4844
3.25294
3.09384
3.01774
2.996
2.99505
2.99758
2.99915
2.99975
2.99994
2.99999
3
3
3
3
3
3
3
3
3
3
3
3
3
3
3
3
2.99897
2.99763
2.99506
2.99503
3.01316
3.08126
3.22845
3.447
3.68055
3.84502
3.89193
3.84502
3.68055
3.447
3.22845
3.08126
3.01316
2.99503
2.99507
2.99769
2.9992
2.99977
2.99994
2.99999
3
3
3
3
3
3
3
3
3
3
3
3
3
3
3
3
2.99918
2.99799
2.99536
2.99325
3.00254
3.04898
3.16099
3.33797
3.53462
3.68055
3.72771
3.68055
3.53462
3.33797
3.16099
3.04898
3.00254
2.99325
2.99537
2.99804
2.99935
2.99982
2.99996
2.99999
3
3
3
3
3
3
3
3
3
3
3
3
3
3
3
3
2.99944
2.99855
2.99625
2.99284
2.99362
3.01502
3.08067
3.19798
3.33797
3.447
3.4844
3.447
3.33797
3.19798
3.08067
3.01502
2.99362
2.99284
2.99626
2.99857
2.99956
2.99988
2.99997
2.99999
3
3
3
3
3
3
3
3
3
3
3
3
3
3
3
3
2.99968
2.99912
2.99752
2.99434
2.991
2.99505
3.02139
3.08067
3.16099
3.22845
3.25294
3.22845
3.16099
3.08067
3.02139
2.99505
2.991
2.99434
2.99752
2.99914
2.99975
2.99993
2.99999
3
3
3
3
3
3
3
3
3
3
3
3
3
3
3
3
3
2.99985
2.99956
2.99866
2.99656
2.99307
2.99036
2.99505
3.01502
3.04898
3.08126
3.09384
3.08126
3.04898
3.01502
2.99505
2.99036
2.99307
2.99656
2.99866
2.99956
2.99988
2.99997
2.99999
3
3
3
3
3
3
3
3
3
3
3
3
3
3
3
3
3
2.99994
2.99981
2.99939
2.99833
2.99617
2.99307
2.991
2.99362
3.00254
3.01316
3.01774
3.01316
3.00254
2.99362
2.991
2.99307
2.99617
2.99833
2.99939
2.99981
2.99995
2.99999
3
3
3
3
3
3
3
3
3
3
3
3
3
3
3
3
3
3
2.99998
2.99993
2.99977
2.99933
2.99833
2.99656
2.99434
2.99284
2.99325
2.99503
2.996
2.99503
2.99325
2.99284
2.99434
2.99656
2.99833
2.99933
2.99977
2.99993
2.99998
3
3
3
3
3
3
3
3
3
3
3
3
3
3
3
3
3
3
3
2.99999
2.99998
2.99992
2.99977
2.99939
2.99866
2.99752
2.99626
2.99537
2.99507
2.99505
2.99507
2.99537
2.99626
2.99752
2.99866
2.99939
2.99977
2.99992
2.99998
2.99999
3
3
3
3
3
3
3.00001
3.00001
3.00002
3.00002
3.00002
3.00001
3.00001
3
3
3
3
3
3
3
2.99999
2.99998
2.99993
2.99981
2.99956
2.99914
2.99857
2.99804
2.99769
2.99758
2.99769
2.99804
2.99857
2.99914
2.99956
2.99981
2.99993
2.99998
2.99999
3
3
3
3
3
3.00001
3.00002
3.00003
3.00005
3.00007
3.00007
3.00007
3.00005
3.00003
3.00002
3.00001
3
3
3
3
3
3
2.99999
2.99998
2.99995
2.99988
2.99975
2.99956
2.99935
2.9992
2.99915
2.9992
2.99935
2.99956
2.99975
2.99988
2.99995
2.99998
2.99999
3
3
3
3
3.00001
3.00001
3.00004
3.00008
3.00013
3.0002
3.00025
3.00027
3.00025
3.0002
3.00013
3.00008
3.00004
3.00001
3.00001
3
3
3
3
3
3
2.99999
2.99997
2.99993
2.99988
2.99982
2.99977
2.99975
2.99977
2.99982
2.99988
2.99993
2.99997
2.99999
3
3
3
3
3
3.00001
3.00002
3.00005
3.00013
3.00026
3.00044
3.00063
3.00076
3.00081
3.00076
3.00063
3.00044
3.00026
3.00013
3.00005
3.00002
3.00001
3
3
3
3
3
3
2.99999
2.99999
2.99997
2.99996
2.99994
2.99994
2.99994
2.99996
2.99997
2.99999
2.99999
3
3
3
3
3
3.00001
3.00002
3.00007
3.00018
3.00041
3.00078
3.00124
3.00165
3.00187
3.00193
3.00187
3.00165
3.00124
3.00078
3.00041
3.00018
3.00007
3.00002
3.00001
3
3
3
3
3
3
3
2.99999
2.99999
2.99999
2.99999
2.99999
2.99999
2.99999
3
3
3
3
3
3
3.00001
3.00002
3.00007
3.0002
3.00051
3.00109
3.00193
3.00277
3.00315
3.00301
3.00284
3.00301
3.00315
3.00277
3.00193
3.00109
3.00051
3.0002
3.00007
3.00003
3
3
3
3
3
3
3
3
3
3
3
3
3
3
3
3
3
3
3
3
3.00001
3.00005
3.00018
3.00051
3.00122
3.0024
3.00371
3.0041
3.00248
2.99959
2.99812
2.99959
3.00248
3.0041
3.00371
3.0024
3.00122
3.00051
3.00018
3.00007
3
3
3
3
3
3
3
3
3
3
3
3
3
3
3
3
3
3
3
3.00001
3.00004
3.00013
3.00041
3.00109
3.0024
3.00409
3.00447
3.00024
2.9893
2.97611
2.97032
2.97611
2.9893
3.00024
3.00447
3.00409
3.0024
3.00109
3.00041
3.00017
3
3
3
3
3
3
3
3
3
3
3
3
3
3
3
3
3
3
3
3.00002
3.00008
3.00026
3.00078
3.00193
3.00371
3.00447
2.99887
2.97842
2.94076
2.90263
2.88797
2.90263
2.94076
2.97842
2.99887
3.00447
3.00372
3.00194
3.0008
3.00034
3
3
3
3
3
3
3
3
3
3
3
3
3
3
3
3
3
3
3.00001
3.00003
3.00013
3.00044
3.00124
3.00277
3.0041
3.00024
2.97842
2.92207
2.83655
2.7681
2.74831
2.7681
2.83655
2.92207
2.97842
3.00024
3.0041
3.00277
3.00128
3.00057
3
3
3
3
3
3
3
3
3
3
3
3
3
3
3
3
3
3
3.00001
3.00005
3.0002
3.00063
3.00165
3.00315
3.00248
2.9893
2.94076
2.83655
2.7134
2.65294
2.64933
2.65294
2.7134
2.83655
2.94076
2.9893
3.00248
3.00317
3.0017
3.00083
3
3
3
3
3
3
3
3
3
3
3
3
3
3
3
3
3
3
3.00002
3.00007
3.00025
3.00076
3.00187
3.00301
2.99959
2.97611
2.90263
2.7681
2.65294
2.64163
2.666
2.64163
2.65294
2.7681
2.90263
2.97611
2.99959
3.00303
3.00194
3.00101
3
3
3
3
3
3
3
3
3
3
3
3
3
3
3
3
3
3
3.00002
3.00007
3.00027
3.00081
3.00193
3.00284
2.99812
2.97032
2.88797
2.74831
2.64933
2.666
2.70382
2.666
2.64933
2.74831
2.88797
2.97032
2.99813
3.00286
3.002
3.00108
3
3
3
3
3
3
3
3
3
3
3
3
3
3
3
3
3
3
3.00002
3.00007
3.00025
3.00076
3.00187
3.00301
2.99959
2.97611
2.90263
2.7681
2.65294
2.64163
2.666
2.64163
2.65294
2.7681
2.90263
2.97611
2.99959
3.00303
3.00194
3.00101
3
3
3
3
3
3
3
3
3
3
3
3
3
3
3
3
3
3
3.00001
3.00005
3.0002
3.00063
3.00165
3.00315
3.00248
2.9893
2.94076
2.83655
2.7134
2.65294
2.64933
2.65294
2.7134
2.83655
2.94076
2.9893
3.00248
3.00317
3.0017
3.00083
3
3
3
3
3
3
3
3
3
3
3
3
3
3
3
3
3
3
3.00001
3.00003
3.00013
3.00044
3.00124
3.00277
3.0041
3.00024
2.97842
2.92207
2.83655
2.7681
2.74831
2.7681
2.83655
2.92207
2.97842
3.00024
3.0041
3.00277
3.00128
3.00057
3
3
3
3
3
3
3
3
3
3
3
3
3
3
3
3
3
3
3
3.00002
3.00008
3.00026
3.00078
3.00193
3.00371
3.00447
2.99887
2.97842
2.94076
2.90263
2.88797
2.90263
2.94076
2.97842
2.99887
3.00447
3.00372
3.00194
3.0008
3.00034
3
3
3
3
3
3
3
3
3
3
3
3
3
3
3
3
3
3
3
3.00001
3.00004
3.00013
3.00041
3.00109
3.0024
3.00409
3.00447
3.00024
2.9893
2.97611
2.97032
2.97611
2.9893
3.00024
3.00447
3.00409
3.0024
3.00109
3.00041
3.00017
3
3
3
3
3
3
3
3
3
3
3
3
3
3
3
3
3
3
3
3
3.00001
3.00005
3.00018
3.00051
3.00122
3.0024
3.00372
3.0041
3.00248
2.99959
2.99813
2.99959
3.00248
3.0041
3.00372
3.0024
3.00122
3.00051
3.00018
3.00007
3
3
3
3
3
3
3
3
3
3
3
3
3
3
3
3
3
3
3
3
3.00001
3.00002
3.00007
3.0002
3.00051
3.00109
3.00194
3.00277
3.00317
3.00303
3.00286
3.00303
3.00317
3.00277
3.00194
3.00109
3.00051
3.0002
3.00007
3.00003
3
3
3
3
3
3
3
3
3
3
3
3
3
3
3
3
3
3
3
3
3
3.00001
3.00002
3.00007
3.00018
3.00041
3.0008
3.00128
3.0017
3.00194
3.002
3.00194
3.0017
3.00128
3.0008
3.00041
3.00018
3.00007
3.00002
3.00001
3
3
3
3
3
3
3
3
3
3
3
3
3
3
3
3
3
3
3
3
3
3
3.00001
3.00003
3.00007
3.00017
3.00034
3.00057
3.00083
3.00101
3.00108
3.00101
3.00083
3.00057
3.00034
3.00017
3.00007
3.00003
3.00001
3
