# vtk DataFile Version 3.0
Brusselator Concentration Output
ASCII
DATASET STRUCTURED_POINTS
DIMENSIONS 40 40 1
ORIGIN 0.0 0.0 0.0
SPACING 0.005 0.005 1.0
POINT_DATA 1600
SCALARS C1 double 1
LOOKUP_TABLE default
1.09327
1.10992
1.11034
1.05815
0.954794
0.834661
0.729367
0.652121
0.60262
0.575846
0.567455
0.575848
0.602629
0.652153
0.729463
0.834881
0.955087
1.05786
1.10709
1.09776
1.0616
1.0293
1.01049
1.00228
0.999687
0.999317
0.999537
0.999774
0.999911
0.999971
0.999993
0.999999
1
1
1
1
1
1
1
1
1.10992
1.09303
1.03804
0.942122
0.829847
0.728018
0.650158
0.597511
0.565505
0.548794
0.543656
0.548796
0.565513
0.597538
0.650233
0.728152
0.829821
0.940737
1.03158
1.07361
1.06703
1.04047
1.01803
1.00585
1.00099
0.999665
0.999575
0.999747
0.999888
0.999959
0.999988
0.999997
1
1
1
1
1
1
1
1
1.11034
1.03804
0.916496
0.786734
0.679957
0.605778
0.560183
0.535041
0.522782
0.517748
0.516465
0.51775
0.522788
0.535061
0.560225
0.605795
0.679513
0.783901
0.905735
1.00958
1.05845
1.05427
1.03117
1.01297
1.00385
1.00053
0.999728
0.999723
0.999849
0.999938
0.999979
0.999994
0.999999
1
1
1
1
1
1
1
1.05815
0.942122
0.786734
0.658159
0.575057
0.52995
0.510282
0.505666
0.508401
0.512699
0.514617
0.5127
0.508406
0.505679
0.510298
0.52987
0.57428
0.654235
0.773022
0.910205
1.01707
1.05616
1.04488
1.02283
1.00844
1.00211
1.00011
0.999747
0.999812
0.99991
0.999966
0.99999
0.999998
1
1
1
1
1
1
1
0.954794
0.829847
0.679957
0.575057
0.5203
0.50005
0.500734
0.513174
0.530147
0.544608
0.550316
0.54461
0.530151
0.513182
0.500729
0.499893
0.519295
0.570599
0.665754
0.802957
0.94589
1.03529
1.05191
1.03324
1.01445
1.00453
1.00082
0.999869
0.999793
0.999882
0.999951
0.999984
0.999996
0.999999
1
1
1
1
1
1
0.834661
0.728018
0.605778
0.52995
0.50005
0.500435
0.520253
0.552864
0.591304
0.624335
0.637743
0.624337
0.591308
0.55287
0.52023
0.500209
0.498876
0.525373
0.593091
0.711857
0.864699
0.993565
1.04707
1.04113
1.02096
1.0076
1.00187
1.00011
0.999809
0.99986
0.999936
0.999977
0.999993
0.999999
1
1
1
1
1
1
0.729367
0.650158
0.560183
0.510282
0.500734
0.520253
0.563204
0.628532
0.712245
0.793534
0.829512
0.793537
0.712252
0.628535
0.563158
0.519952
0.49941
0.505793
0.549911
0.64581
0.791798
0.942695
1.03101
1.04436
1.02675
1.0109
1.00315
1.00047
0.999863
0.999849
0.999922
0.99997
0.999991
0.999998
1
1
1
1
1
1
0.652121
0.597511
0.535041
0.505666
0.513174
0.552864
0.628532
0.755541
0.951593
1.18314
1.29803
1.18315
0.951605
0.755541
0.628457
0.552474
0.511697
0.50132
0.527176
0.603014
0.735971
0.894941
1.00927
1.04301
1.03096
1.01393
1.00446
1.00088
0.999947
0.999849
0.999913
0.999965
0.999989
0.999998
1
1
1
1
1
1
0.60262
0.565505
0.522782
0.508401
0.530147
0.591304
0.712245
0.951593
1.41386
2.03819
2.33267
2.03821
1.41388
0.951588
0.712131
0.590815
0.528519
0.504172
0.516823
0.577883
0.698483
0.858031
0.988615
1.03916
1.03341
1.01628
1.00558
1.00126
1.00004
0.999858
0.999909
0.999964
0.999991
1
1
1
1
1
1
1
0.575846
0.548794
0.517748
0.512699
0.544608
0.624335
0.793534
1.18314
2.03819
2.95792
3.20931
2.95794
2.03823
1.18313
0.79338
0.623761
0.542861
0.508538
0.512987
0.565118
0.677412
0.8353
0.974269
1.03547
1.03453
1.01773
1.00634
1.00154
1.00011
0.999876
0.999916
0.999971
0.999999
1.00001
1.00001
1.00001
1.00001
1
1
1
0.567455
0.543656
0.516465
0.514617
0.550316
0.637743
0.829512
1.29803
2.33267
3.20931
3.376
3.20932
2.33271
1.29802
0.829341
0.637133
0.548522
0.510478
0.51211
0.561258
0.670666
0.827684
0.969184
1.034
1.03483
1.01823
1.00662
1.00166
1.00016
0.999902
0.999938
0.999993
1.00002
1.00003
1.00003
1.00002
1.00002
1.00001
1.00001
1
0.575848
0.548796
0.51775
0.5127
0.54461
0.624337
0.793537
1.18315
2.03821
2.95794
3.20932
2.95796
2.03825
1.18314
0.793384
0.623762
0.542863
0.50854
0.512989
0.565121
0.677417
0.83531
0.974286
1.0355
1.03457
1.01778
1.00639
1.00159
1.00017
0.999928
0.999967
1.00002
1.00005
1.00006
1.00006
1.00005
1.00004
1.00003
1.00002
1.00002
0.602629
0.565513
0.522788
0.508406
0.530151
0.591308
0.712252
0.951605
1.41388
2.03823
2.33271
2.03825
1.41391
0.9516
0.712138
0.59082
0.528524
0.504177
0.51683
0.577894
0.698501
0.858062
0.988666
1.03923
1.0335
1.01637
1.00567
1.00133
1.00008
0.999886
0.99993
0.999991
1.00004
1.00007
1.00009
1.00009
1.00009
1.00008
1.00006
1.00005
0.652153
0.597538
0.535061
0.505679
0.513182
0.55287
0.628535
0.755541
0.951588
1.18313
1.29802
1.18314
0.9516
0.75554
0.62846
0.55248
0.511706
0.501333
0.527196
0.603047
0.736025
0.895024
1.00938
1.04314
1.03106
1.01398
1.00442
1.00073
0.999679
0.999501
0.999535
0.999617
0.999721
0.999841
0.999958
1.00005
1.00011
1.00013
1.00013
1.00013
0.729463
0.650233
0.560225
0.510298
0.500729
0.52023
0.563158
0.628457
0.712131
0.79338
0.829341
0.793384
0.712138
0.62846
0.563113
0.519929
0.499406
0.50581
0.549957
0.645898
0.791934
0.942866
1.03117
1.04443
1.02664
1.01049
1.00236
0.999273
0.998302
0.998038
0.998023
0.99816
0.998429
0.9988
0.999215
0.999603
0.999907
1.00011
1.00021
1.00025
0.834881
0.728152
0.605795
0.52987
0.499893
0.500209
0.519952
0.552474
0.590815
0.623761
0.637133
0.623762
0.59082
0.55248
0.519929
0.499985
0.498722
0.525298
0.593118
0.712008
0.864951
0.993805
1.0471
1.0407
1.01981
1.00548
0.998672
0.995861
0.994685
0.994172
0.994052
0.994288
0.994869
0.995747
0.996813
0.997915
0.998891
0.999631
1.0001
1.00031
0.955087
0.829821
0.679513
0.57428
0.519295
0.498876
0.49941
0.511697
0.528519
0.542861
0.548522
0.542863
0.528524
0.511706
0.499406
0.498722
0.518297
0.569839
0.66533
0.802918
0.946085
1.03528
1.05108
1.03098
1.01024
0.998036
0.992035
0.989087
0.98753
0.986735
0.986514
0.986836
0.987732
0.989221
0.991233
0.993559
0.995874
0.997842
0.999226
0.999926
1.05786
0.940737
0.783901
0.654235
0.570599
0.525373
0.505793
0.50132
0.504172
0.508538
0.510478
0.50854
0.504177
0.501333
0.50581
0.525298
0.569839
0.650345
0.770193
0.908644
1.01623
1.05475
1.04137
1.01603
0.997646
0.987305
0.98191
0.979208
0.978004
0.977597
0.977538
0.977676
0.978192
0.979469
0.981828
0.985257
0.989321
0.993289
0.996399
0.998092
1.10709
1.03158
0.905735
0.773022
0.665754
0.593091
0.549911
0.527176
0.516823
0.512987
0.51211
0.512989
0.51683
0.527196
0.549957
0.593118
0.66533
0.770193
0.894807
1.00244
1.05368
1.04866
1.02162
0.997688
0.982651
0.974815
0.972049
0.972792
0.975429
0.978101
0.979218
0.97816
0.975585
0.973086
0.972356
0.974348
0.978851
0.984627
0.989905
0.993032
1.09776
1.07361
1.00958
0.910205
0.802957
0.711857
0.64581
0.603014
0.577883
0.565118
0.561258
0.565121
0.577894
0.603047
0.645898
0.712008
0.802918
0.908644
1.00244
1.05253
1.05214
1.02563
0.998055
0.979018
0.969491
0.969066
0.977341
0.992529
1.01026
1.02446
1.02988
1.02451
1.0104
0.992818
0.97781
0.969408
0.96834
0.972564
0.97856
0.98271
1.0616
1.06703
1.05845
1.01707
0.94589
0.864699
0.791798
0.735971
0.698483
0.677412
0.670666
0.677417
0.698501
0.736025
0.791934
0.864951
0.946085
1.01623
1.05368
1.05214
1.02707
0.998395
0.976856
0.96659
0.97109
0.995023
1.04116
1.10394
1.16748
1.2135
1.23008
1.21355
1.16762
1.10424
1.04169
0.99561
0.970846
0.962866
0.963815
0.96647
1.0293
1.04047
1.05427
1.05616
1.03529
0.993565
0.942695
0.894941
0.858031
0.8353
0.827684
0.83531
0.858062
0.895024
0.942866
0.993805
1.03528
1.05475
1.04866
1.02563
0.998395
0.976161
0.965553
0.975472
1.02107
1.12068
1.27243
1.43168
1.54518
1.6007
1.61571
1.60075
1.54533
1.432
1.27294
1.12101
1.02012
0.970705
0.952193
0.94725
1.01049
1.01803
1.03117
1.04488
1.05191
1.04707
1.03101
1.00927
0.988615
0.974269
0.969184
0.974286
0.988666
1.00938
1.03117
1.0471
1.05108
1.04137
1.02162
0.998055
0.976856
0.965553
0.977696
1.04123
1.202
1.46323
1.67717
1.71484
1.65127
1.58567
1.56049
1.58568
1.65128
1.71482
1.67698
1.46217
1.198
1.03136
0.95818
0.933039
1.00228
1.00585
1.01297
1.02283
1.03324
1.04113
1.04436
1.04301
1.03916
1.03547
1.034
1.0355
1.03923
1.04314
1.04443
1.0407
1.03098
1.01603
0.997688
0.979018
0.96659
0.975472
1.04123
1.23727
1.58019
1.75338
1.61932
1.41895
1.2616
1.16751
1.1366
1.1675
1.26154
1.41868
1.6183
1.75013
1.57052
1.21684
1.01049
0.937637
0.999687
1.00099
1.00385
1.00844
1.01445
1.02096
1.02675
1.03096
1.03341
1.03453
1.03483
1.03457
1.0335
1.03106
1.02664
1.01981
1.01024
0.997646
0.982651
0.969491
0.97109
1.02107
1.202
1.58019
1.75334
1.52345
1.2466
1.0337
0.894548
0.81829
0.794218
0.81828
0.894484
1.03339
1.24549
1.52009
1.74415
1.55086
1.15678
0.982703
0.999317
0.999665
1.00053
1.00211
1.00453
1.0076
1.0109
1.01393
1.01628
1.01773
1.01823
1.01778
1.01637
1.01398
1.01049
1.00548
0.998036
0.987305
0.974815
0.969066
0.995023
1.12068
1.46323
1.75338
1.52345
1.18922
0.928687
0.756724
0.65481
0.602481
0.5865
0.602471
0.654752
0.756451
0.927674
1.18638
1.5177
1.73991
1.41699
1.09817
0.999537
0.999575
0.999728
1.00011
1.00082
1.00187
1.00315
1.00446
1.00558
1.00634
1.00662
1.00639
1.00567
1.00442
1.00236
0.998672
0.992035
0.98191
0.972049
0.977341
1.04116
1.27243
1.67717
1.61932
1.2466
0.928687
0.716172
0.590034
0.521169
0.487792
0.477903
0.487784
0.521122
0.589806
0.715321
0.92642
1.24353
1.62361
1.67355
1.30421
0.999774
0.999747
0.999723
0.999747
0.999869
1.00011
1.00047
1.00088
1.00126
1.00154
1.00166
1.00159
1.00133
1.00073
0.999273
0.995861
0.989087
0.979208
0.972792
0.992529
1.10394
1.43168
1.71484
1.41895
1.0337
0.756724
0.590034
0.499279
0.453119
0.431939
0.425862
0.431933
0.45308
0.499092
0.58934
0.75498
1.03264
1.43233
1.77064
1.56693
0.999911
0.999888
0.999849
0.999812
0.999793
0.999809
0.999863
0.999947
1.00004
1.00011
1.00016
1.00017
1.00008
0.999679
0.998302
0.994685
0.98753
0.978004
0.975429
1.01026
1.16748
1.54518
1.65127
1.2616
0.894548
0.65481
0.521169
0.453119
0.420579
0.406479
0.402587
0.406473
0.420545
0.45296
0.520593
0.653465
0.894837
1.28055
1.74483
1.7912
0.999971
0.999959
0.999938
0.99991
0.999882
0.99986
0.999849
0.999849
0.999858
0.999876
0.999902
0.999928
0.999886
0.999501
0.998038
0.994172
0.986735
0.977597
0.978101
1.02446
1.2135
1.6007
1.58567
1.16751
0.81829
0.602481
0.487792
0.431939
0.406479
0.396018
0.393249
0.396013
0.406448
0.431796
0.487284
0.601374
0.819352
1.18962
1.69719
1.91445
0.999993
0.999988
0.999979
0.999966
0.999951
0.999936
0.999922
0.999913
0.999909
0.999916
0.999938
0.999967
0.99993
0.999535
0.998023
0.994052
0.986514
0.977538
0.979218
1.02988
1.23008
1.61571
1.56049
1.1366
0.794218
0.5865
0.477903
0.425862
0.402587
0.393249
0.390828
0.393244
0.402557
0.425724
0.477418
0.585473
0.79553
1.15973
1.67723
1.94967
0.999999
0.999997
0.999994
0.99999
0.999984
0.999977
0.99997
0.999965
0.999964
0.999971
0.999993
1.00002
0.999991
0.999617
0.99816
0.994288
0.986836
0.977676
0.97816
1.02451
1.21355
1.60075
1.58568
1.1675
0.81828
0.602471
0.487784
0.431933
0.406473
0.396013
0.393244
0.396008
0.406442
0.43179
0.487276
0.601365
0.819342
1.18961
1.69721
1.91453
1
1
0.999999
0.999998
0.999996
0.999993
0.999991
0.999989
0.999991
0.999999
1.00002
1.00005
1.00004
0.999721
0.998429
0.994869
0.987732
0.978192
0.975585
1.0104
1.16762
1.54533
1.65128
1.26154
0.894484
0.654752
0.521122
0.45308
0.420545
0.406448
0.402557
0.406442
0.420511
0.452921
0.520545
0.653407
0.894774
1.2805
1.74486
1.79141
1
1
1
1
0.999999
0.999999
0.999998
0.999998
1
1.00001
1.00003
1.00006
1.00007
0.999841
0.9988
0.995747
0.989221
0.979469
0.973086
0.992818
1.10424
1.432
1.71482
1.41868
1.03339
0.756451
0.589806
0.499092
0.45296
0.431796
0.425724
0.43179
0.452921
0.498905
0.589113
0.754709
1.03234
1.43206
1.77067
1.56739
1
1
1
1
1
1
1
1
1
1.00001
1.00003
1.00006
1.00009
0.999958
0.999215
0.996813
0.991233
0.981828
0.972356
0.97781
1.04169
1.27294
1.67698
1.6183
1.24549
0.927674
0.715321
0.58934
0.520593
0.487284
0.477418
0.487276
0.520545
0.589113
0.714472
0.925409
1.24242
1.62259
1.67348
1.30484
1
1
1
1
1
1
1
1
1
1.00001
1.00002
1.00005
1.00009
1.00005
0.999603
0.997915
0.993559
0.985257
0.974348
0.969408
0.99561
1.12101
1.46217
1.75013
1.52009
1.18638
0.92642
0.75498
0.653465
0.601374
0.585473
0.601365
0.653407
0.754709
0.925409
1.18355
1.51432
1.73662
1.41599
1.09842
1
1
1
1
1
1
1
1
1
1.00001
1.00002
1.00004
1.00009
1.00011
0.999907
0.998891
0.995874
0.989321
0.978851
0.96834
0.970846
1.02012
1.198
1.57052
1.74415
1.5177
1.24353
1.03264
0.894837
0.819352
0.79553
0.819342
0.894774
1.03234
1.24242
1.51432
1.73483
1.54111
1.15269
0.981237
1
1
1
1
1
1
1
1
1
1
1.00001
1.00003
1.00008
1.00013
1.00011
0.999631
0.997842
0.993289
0.984627
0.972564
0.962866
0.970705
1.03136
1.21684
1.55086
1.73991
1.62361
1.43233
1.28055
1.18962
1.15973
1.18961
1.2805
1.43206
1.62259
1.73662
1.54111
1.19635
1.00015
0.931576
1
1
1
1
1
1
1
1
1
1
1.00001
1.00002
1.00006
1.00013
1.00021
1.0001
0.999226
0.996399
0.989905
0.97856
0.963815
0.952193
0.95818
1.01049
1.15678
1.41699
1.67355
1.77064
1.74483
1.69719
1.67723
1.69721
1.74486
1.77067
1.67348
1.41599
1.15269
1.00015
0.937381
0.917384
1
1
1
1
1
1
1
1
1
1
1
1.00002
1.00005
1.00013
1.00025
1.00031
0.999926
0.998092
0.993032
0.98271
0.96647
0.94725
0.933039
0.937637
0.982703
1.09817
1.30421
1.56693
1.7912
1.91445
1.94967
1.91453
1.79141
1.56739
1.30484
1.09842
0.981237
0.931576
0.917384
0.915914
SCALARS C2 double 1
LOOKUP_TABLE default
2.89281
2.83613
2.75946
2.72471
2.76905
2.87784
3.01193
3.13775
3.23575
3.29688
3.31756
3.29688
3.23575
3.13771
3.01178
2.87738
2.76799
2.72309
2.75916
2.84377
2.92342
2.97231
2.99427
3.00128
3.00221
3.00149
3.00074
3.0003
3.0001
3.00003
3
3
3
3
3
3
3
3
3
3
2.83613
2.8061
2.79609
2.85172
2.97267
3.1276
3.28325
3.41724
3.51776
3.57945
3.60019
3.57945
3.51776
3.41721
3.28312
3.12721
2.97189
2.85129
2.79997
2.8253
2.89087
2.94965
2.98335
2.99725
3.00114
3.00138
3.00083
3.00038
3.00014
3.00004
3.00001
3
3
3
3
3
3
3
3
3
2.75946
2.79609
2.89745
3.06368
3.26287
3.46086
3.63556
3.77594
3.87732
3.93823
3.9585
3.93823
3.87731
3.77591
3.63546
3.46055
3.26243
3.06487
2.90785
2.83415
2.85075
2.91039
2.96126
2.9882
2.99839
3.00091
3.00093
3.00052
3.00022
3.00008
3.00002
3
3
3
3
3
3
3
3
3
2.72471
2.85172
3.06368
3.30842
3.54857
3.76323
3.94216
4.08102
4.17871
4.23614
4.255
4.23614
4.17871
4.081
3.94208
3.763
3.54838
3.3109
3.0803
2.90782
2.84104
2.87042
2.93051
2.97333
2.99312
2.99962
3.00085
3.00065
3.00032
3.00012
3.00004
3.00001
3
3
3
3
3
3
3
3
2.76905
2.97267
3.26287
3.54857
3.80264
4.01857
4.19277
4.3234
4.41125
4.46021
4.47565
4.4602
4.41124
4.32339
4.19271
4.01842
3.80264
3.55181
3.28368
3.0398
2.88345
2.85081
2.89878
2.95365
2.98492
2.99714
3.00041
3.00071
3.00042
3.00018
3.00006
3.00002
3
3
3
3
3
3
3
3
2.87784
3.1276
3.46086
3.76323
4.01857
4.22829
4.39029
4.50243
4.56693
4.59424
4.60051
4.59424
4.56692
4.50241
4.39026
4.22823
4.01876
3.76689
3.4836
3.19794
2.96953
2.8631
2.87611
2.93256
2.97437
2.99341
2.9995
3.00064
3.0005
3.00024
3.00009
3.00003
3.00001
3
3
3
3
3
3
3
3.01193
3.28325
3.63556
3.94216
4.19277
4.39029
4.52942
4.60286
4.61082
4.57761
4.55573
4.5776
4.61081
4.60284
4.52942
4.39034
4.1932
3.94613
3.65872
3.35177
3.0748
2.90239
2.86837
2.91439
2.96303
2.98882
2.99817
3.00043
3.00053
3.00029
3.00011
3.00004
3.00001
3
3
3
3
3
3
3
3.13775
3.41724
3.77594
4.08102
4.3234
4.50243
4.60286
4.59817
4.46392
4.24244
4.12147
4.24243
4.4639
4.59815
4.60288
4.50259
4.32413
4.08529
3.79879
3.48204
3.17572
2.95378
2.8739
2.90192
2.95276
2.98409
2.99663
3.0001
3.00053
3.00032
3.00014
3.00005
3.00001
3
3
3
3
3
3
3
3.23575
3.51776
3.87732
4.17871
4.41125
4.56693
4.61082
4.46392
3.99446
3.26441
2.89639
3.26438
3.99443
4.4639
4.61089
4.56724
4.41228
4.18329
3.89967
3.57894
3.25624
3.00177
2.88591
2.89525
2.94494
2.98004
2.9952
2.99974
3.00049
3.00034
3.00015
3.00005
3.00001
3
3
3
3
3
3
3
3.29688
3.57945
3.93823
4.23614
4.46021
4.59424
4.57761
4.24244
3.26441
2.06751
1.68422
2.06748
3.26435
4.24243
4.57772
4.59467
4.46148
4.24095
3.96017
3.63813
3.30736
3.03489
2.89676
2.89258
2.9402
2.97735
2.99418
2.99947
3.00045
3.00034
3.00015
3.00004
3
2.99999
2.99999
2.99999
3
3
3
3
3.31756
3.60019
3.9585
4.255
4.47565
4.60051
4.55573
4.12147
2.89639
1.68422
1.38382
1.6842
2.89633
4.12146
4.55587
4.60099
4.47702
4.2599
3.9803
3.65799
3.3248
3.04662
2.90101
2.89195
2.93862
2.97639
2.99379
2.99934
3.0004
3.00031
3.00011
3
2.99996
2.99996
2.99996
2.99997
2.99998
2.99999
2.99999
3
3.29688
3.57945
3.93823
4.23614
4.4602
4.59424
4.5776
4.24243
3.26438
2.06748
1.6842
2.06746
3.26433
4.24242
4.57772
4.59467
4.46147
4.24095
3.96017
3.63813
3.30735
3.03488
2.89674
2.89254
2.94014
2.97727
2.99409
2.99936
3.00033
3.00022
3.00002
2.99992
2.99988
2.99988
2.9999
2.99992
2.99994
2.99996
2.99997
2.99998
3.23575
3.51776
3.87731
4.17871
4.41124
4.56692
4.61081
4.4639
3.99443
3.26435
2.89633
3.26433
3.9944
4.46389
4.61088
4.56723
4.41227
4.18328
3.89966
3.57893
3.25622
3.00174
2.88584
2.89513
2.94478
2.97985
2.99498
2.99951
3.00026
3.00011
2.99992
2.99982
2.99978
2.99977
2.99978
2.99981
2.99985
2.99989
2.99992
2.99994
3.13771
3.41721
3.77591
4.081
4.32339
4.50241
4.60284
4.59815
4.4639
4.24243
4.12146
4.24242
4.46389
4.59814
4.60287
4.50258
4.32411
4.08527
3.79876
3.482
3.17565
2.95367
2.87371
2.90167
2.95245
2.98376
2.99634
2.99987
3.00039
3.00025
3.00009
2.99997
2.99987
2.99977
2.9997
2.99968
2.99969
2.99974
2.99979
2.99982
3.01178
3.28312
3.63546
3.94208
4.19271
4.39026
4.52942
4.60288
4.61089
4.57772
4.55587
4.57772
4.61088
4.60287
4.52941
4.3903
4.19315
3.94605
3.65861
3.35161
3.07458
2.90208
2.86797
2.91396
2.96267
2.98866
2.99836
3.00104
3.00156
3.00162
3.00155
3.00137
3.00104
3.00061
3.00018
2.99983
2.99962
2.99955
2.99955
2.99957
2.87738
3.12721
3.46055
3.763
4.01842
4.22823
4.39034
4.50259
4.56724
4.59467
4.60099
4.59467
4.56723
4.50258
4.3903
4.22817
4.01862
3.76666
3.48328
3.19749
2.96896
2.86245
2.87553
2.93228
2.97475
2.99482
3.00227
3.00488
3.00604
3.00668
3.00685
3.00647
3.00555
3.00423
3.00275
3.00138
3.00032
2.99964
2.99931
2.99919
2.76799
2.97189
3.26243
3.54838
3.80264
4.01876
4.1932
4.32413
4.41228
4.46148
4.47702
4.46147
4.41227
4.32411
4.19315
4.01862
3.80264
3.5516
3.28317
3.03894
2.88234
2.84983
2.89858
2.95497
2.98865
3.00411
3.01113
3.01512
3.01787
3.01962
3.02019
3.01946
3.01746
3.0144
3.0107
3.00691
3.0036
3.00115
2.99964
2.99895
2.72309
2.85129
3.06487
3.3109
3.55181
3.76689
3.94613
4.08529
4.18329
4.24095
4.2599
4.24095
4.18328
4.08527
3.94605
3.76666
3.5516
3.3133
3.08136
2.90739
2.83985
2.87005
2.93282
2.9802
3.00631
3.0204
3.02945
3.03615
3.04098
3.04389
3.04483
3.04378
3.04066
3.03549
3.02856
3.02069
3.013
3.0066
3.00219
2.99999
2.75916
2.79997
2.90785
3.0803
3.28368
3.4836
3.65872
3.79879
3.89967
3.96017
3.9803
3.96017
3.89966
3.79876
3.65861
3.48328
3.28317
3.08136
2.91819
2.83855
2.85228
2.91381
2.97117
3.0084
3.03148
3.04752
3.05941
3.0675
3.07201
3.07388
3.0743
3.07381
3.07179
3.06697
3.05843
3.04651
3.0329
3.02005
3.01023
3.00499
2.84377
2.8253
2.83415
2.90782
3.0398
3.19794
3.35177
3.48204
3.57894
3.63813
3.65799
3.63813
3.57893
3.482
3.35161
3.19749
3.03894
2.90739
2.83855
2.84646
2.90295
2.96417
3.00995
3.04207
3.06595
3.08285
3.09114
3.08993
3.08185
3.07281
3.06893
3.07276
3.08169
3.08951
3.09023
3.08138
3.06481
3.04525
3.02825
3.01845
2.92342
2.89087
2.85075
2.84104
2.88345
2.96953
3.0748
3.17572
3.25624
3.30736
3.3248
3.30735
3.25622
3.17565
3.07458
2.96896
2.88234
2.83985
2.85228
2.90295
2.96153
3.01073
3.04968
3.0808
3.10144
3.10356
3.0785
3.02565
2.95962
2.90548
2.88475
2.90543
2.95945
3.02523
3.07761
3.10204
3.09967
3.08119
3.05945
3.04539
2.97231
2.94965
2.91039
2.87042
2.85081
2.8631
2.90239
2.95378
3.00177
3.03489
3.04662
3.03488
3.00174
2.95367
2.90208
2.86245
2.84983
2.87005
2.91381
2.96417
3.01073
3.05244
3.089
3.11248
3.10289
3.02838
2.86518
2.64321
2.44204
2.31693
2.27637
2.31687
2.44183
2.64268
2.86419
3.02704
3.10203
3.11485
3.10146
3.08799
2.99427
2.98335
2.96126
2.93051
2.89878
2.87611
2.86837
2.8739
2.88591
2.89676
2.90101
2.89674
2.88584
2.87371
2.86797
2.87553
2.89858
2.93282
2.97117
3.00995
3.04968
3.089
3.11599
3.09723
2.9618
2.635
2.22474
1.96295
1.86797
1.84919
1.8486
1.84915
1.86788
1.96268
2.22419
2.63483
2.96435
3.10681
3.14085
3.14152
3.00128
2.99725
2.9882
2.97333
2.95365
2.93256
2.91439
2.90192
2.89525
2.89258
2.89195
2.89254
2.89513
2.90167
2.91396
2.93228
2.95497
2.9802
3.0084
3.04207
3.0808
3.11248
3.09723
2.92989
2.46853
1.96862
1.80801
1.84825
1.93404
2.00136
2.02592
2.00135
1.93404
1.84833
1.8085
1.9711
2.47914
2.9554
3.14426
3.19128
3.00221
3.00114
2.99839
2.99312
2.98492
2.97437
2.96303
2.95276
2.94494
2.9402
2.93862
2.94014
2.94478
2.95245
2.96267
2.97475
2.98865
3.00631
3.03148
3.06595
3.10144
3.10289
2.9618
2.46853
1.90032
1.79952
1.93053
2.10226
2.24692
2.33937
2.37087
2.33937
2.24694
2.10244
1.93135
1.80264
1.9134
2.51574
3.04181
3.20936
3.00149
3.00138
3.00091
2.99962
2.99714
2.99341
2.98882
2.98409
2.98004
2.97735
2.97639
2.97727
2.97985
2.98376
2.98866
2.99482
3.00411
3.0204
3.04752
3.08285
3.10356
3.02838
2.635
1.96862
1.79952
1.96767
2.20281
2.41456
2.57279
2.66894
2.70109
2.66894
2.57281
2.41474
2.20369
1.97075
1.80899
2.00944
2.74468
3.15056
3.00074
3.00083
3.00093
3.00085
3.00041
2.9995
2.99817
2.99663
2.9952
2.99418
2.99379
2.99409
2.99498
2.99634
2.99836
3.00227
3.01113
3.02945
3.05941
3.09114
3.0785
2.86518
2.22474
1.80801
1.93053
2.20281
2.47149
2.68959
2.84633
2.94057
2.97206
2.94057
2.84634
2.68973
2.47232
2.20575
1.93784
1.82779
2.31489
2.96338
3.0003
3.00038
3.00052
3.00065
3.00071
3.00064
3.00043
3.0001
2.99974
2.99947
2.99934
2.99936
2.99951
2.99987
3.00104
3.00488
3.01512
3.03615
3.0675
3.08993
3.02565
2.64321
1.96295
1.84825
2.10226
2.41456
2.68959
2.90455
3.05837
3.15154
3.18286
3.15153
3.05837
2.90465
2.69031
2.41733
2.10833
1.85573
1.99461
2.65182
3.0001
3.00014
3.00022
3.00032
3.00042
3.0005
3.00053
3.00053
3.00049
3.00045
3.0004
3.00033
3.00026
3.00039
3.00156
3.00604
3.01787
3.04098
3.07201
3.08185
2.95962
2.44204
1.86797
1.93404
2.24692
2.57279
2.84633
3.05837
3.21142
3.30521
3.33697
3.3052
3.21141
3.05844
2.84696
2.57539
2.25229
1.93498
1.85385
2.33014
3.00003
3.00004
3.00008
3.00012
3.00018
3.00024
3.00029
3.00032
3.00034
3.00034
3.00031
3.00022
3.00011
3.00025
3.00162
3.00668
3.01962
3.04389
3.07388
3.07281
2.90548
2.31693
1.84919
2.00136
2.33937
2.66894
2.94057
3.15154
3.30521
3.40023
3.43257
3.40022
3.3052
3.1516
2.94115
2.67143
2.34438
1.99898
1.811
2.12017
3
3.00001
3.00002
3.00004
3.00006
3.00009
3.00011
3.00014
3.00015
3.00015
3.00011
3.00002
2.99992
3.00009
3.00155
3.00685
3.02019
3.04483
3.0743
3.06893
2.88475
2.27637
1.8486
2.02592
2.37087
2.70109
2.97206
3.18286
3.33697
3.43257
3.46518
3.43257
3.33696
3.18291
2.97261
2.70354
2.37577
2.02251
1.8031
2.05195
3
3
3
3.00001
3.00002
3.00003
3.00004
3.00005
3.00005
3.00004
3
2.99992
2.99982
2.99997
3.00137
3.00647
3.01946
3.04378
3.07381
3.07276
2.90543
2.31687
1.84915
2.00135
2.33937
2.66894
2.94057
3.15153
3.3052
3.40022
3.43257
3.40022
3.3052
3.15159
2.94114
2.67143
2.34438
1.99897
1.81096
2.12008
3
3
3
3
3
3.00001
3.00001
3.00001
3.00001
3
2.99996
2.99988
2.99978
2.99987
3.00104
3.00555
3.01746
3.04066
3.07179
3.08169
2.95945
2.44183
1.86788
1.93404
2.24694
2.57281
2.84634
3.05837
3.21141
3.3052
3.33696
3.3052
3.21141
3.05844
2.84697
2.57541
2.25231
1.93498
1.85372
2.32984
3
3
3
3
3
3
3
3
3
2.99999
2.99996
2.99988
2.99977
2.99977
3.00061
3.00423
3.0144
3.03549
3.06697
3.08951
3.02523
2.64268
1.96268
1.84833
2.10244
2.41474
2.68973
2.90465
3.05844
3.1516
3.18291
3.15159
3.05844
2.90476
2.69046
2.41751
2.1085
1.85579
1.99424
2.65111
3
3
3
3
3
3
3
3
3
2.99999
2.99996
2.9999
2.99978
2.9997
3.00018
3.00275
3.0107
3.02856
3.05843
3.09023
3.07761
2.86419
2.22419
1.8085
1.93135
2.20369
2.47232
2.69031
2.84696
2.94115
2.97261
2.94114
2.84697
2.69046
2.47314
2.20663
1.93865
1.82825
2.31415
2.96221
3
3
3
3
3
3
3
3
3
2.99999
2.99997
2.99992
2.99981
2.99968
2.99983
3.00138
3.00691
3.02069
3.04651
3.08138
3.10204
3.02704
2.63483
1.9711
1.80264
1.97075
2.20575
2.41733
2.57539
2.67143
2.70354
2.67143
2.57541
2.41751
2.20663
1.97382
1.81214
2.0119
2.74433
3.1492
3
3
3
3
3
3
3
3
3
3
2.99998
2.99994
2.99985
2.99969
2.99962
3.00032
3.0036
3.013
3.0329
3.06481
3.09967
3.10203
2.96435
2.47914
1.9134
1.80899
1.93784
2.10833
2.25229
2.34438
2.37577
2.34438
2.25231
2.1085
1.93865
1.81214
1.92659
2.52626
3.04426
3.20889
3
3
3
3
3
3
3
3
3
3
2.99999
2.99996
2.99989
2.99974
2.99955
2.99964
3.00115
3.0066
3.02005
3.04525
3.08119
3.11485
3.10681
2.9554
2.51574
2.00944
1.82779
1.85573
1.93498
1.99898
2.02251
1.99897
1.93498
1.85579
1.82825
2.0119
2.52626
2.98065
3.15405
3.19507
3
3
3
3
3
3
3
3
3
3
2.99999
2.99997
2.99992
2.99979
2.99955
2.99931
2.99964
3.00219
3.01023
3.02825
3.05945
3.10146
3.14085
3.14426
3.04181
2.74468
2.31489
1.99461
1.85385
1.811
1.8031
1.81096
1.85372
1.99424
2.31415
2.74433
3.04426
3.15405
3.16705
3.15754
3
3
3
3
3
3
3
3
3
3
3
2.99998
2.99994
2.99982
2.99957
2.99919
2.99895
2.99999
3.00499
3.01845
3.04539
3.08799
3.14152
3.19128
3.20936
3.15056
2.96338
2.65182
2.33014
2.12017
2.05195
2.12008
2.32984
2.65111
2.96221
3.1492
3.20889
3.19507
3.15754
3.12997
