# vtk DataFile Version 3.0
Brusselator Concentration Output
ASCII
DATASET STRUCTURED_POINTS
DIMENSIONS 40 40 1
ORIGIN 0.0 0.0 0.0
SPACING 0.005 0.005 1.0
POINT_DATA 1600
SCALARS C1 double 1
LOOKUP_TABLE default
0.999574
0.99865
0.996517
0.99295
0.988302
0.983796
0.981128
0.981404
0.984131
0.987291
0.988659
0.987291
0.984131
0.981403
0.981127
0.983793
0.988293
0.992929
0.996479
0.998605
0.999608
0.999966
1.00005
1.00004
1.00002
1.00001
1
1
1
1
1
1
1
1
1
1
1
1
1
1
0.99865
0.99711
0.993962
0.989632
0.985705
0.985002
0.990482
1.00296
1.01911
1.03259
1.03779
1.03259
1.01911
1.00296
0.99048
0.984997
0.985694
0.989609
0.993933
0.997132
0.998931
0.999719
0.999977
1.00003
1.00002
1.00001
1
1
1
1
1
1
1
1
1
1
1
1
1
1
0.996517
0.993962
0.989561
0.985643
0.987119
1.00133
1.03489
1.08588
1.13928
1.17729
1.19064
1.17729
1.13928
1.08588
1.03489
1.00132
0.987103
0.985621
0.989573
0.994177
0.997412
0.999102
0.999782
0.999986
1.00002
1.00002
1.00001
1
1
1
1
1
1
1
1
1
1
1
1
1
0.99295
0.989632
0.985643
0.987766
1.00902
1.06819
1.17427
1.2951
1.37777
1.41153
1.41866
1.41153
1.37777
1.2951
1.17426
1.06818
1.009
0.987762
0.985768
0.990257
0.994975
0.997962
0.999365
0.99987
1
1.00002
1.00001
1
1
1
1
1
1
1
1
1
1
1
1
1
0.988302
0.985705
0.987119
1.00902
1.08298
1.24024
1.42177
1.48183
1.42733
1.35944
1.33241
1.35944
1.42733
1.48183
1.42177
1.24023
1.08297
1.00907
0.987472
0.98703
0.991991
0.99628
0.998654
0.999637
0.999946
1.00001
1.00001
1.00001
1
1
1
1
1
1
1
1
1
1
1
1
0.983796
0.985002
1.00133
1.06819
1.24024
1.46384
1.47291
1.29767
1.12551
1.01828
0.982964
1.01828
1.12551
1.29767
1.4729
1.46383
1.24025
1.06836
1.00206
0.987304
0.989439
0.994312
0.997675
0.999269
0.99984
0.99999
1.00001
1.00001
1
1
1
1
1
1
1
1
1
1
1
1
0.981128
0.990482
1.03489
1.17427
1.42177
1.47291
1.23759
0.989371
0.819551
0.72838
0.700264
0.72838
0.819551
0.98937
1.23759
1.47292
1.42185
1.17463
1.03614
0.993915
0.988556
0.992546
0.99658
0.998799
0.999687
0.999953
1.00001
1.00001
1
1
1
1
1
1
1
1
1
1
1
1
0.981404
1.00296
1.08588
1.2951
1.48183
1.29767
0.989371
0.758778
0.623952
0.558447
0.539263
0.558446
0.623952
0.758778
0.989373
1.2977
1.48198
1.29572
1.08773
1.00748
0.990016
0.991431
0.995589
0.998309
0.999508
0.999904
0.999998
1.00001
1.00001
1
1
1
1
1
1
1
1
1
1
1
0.984131
1.01911
1.13928
1.37777
1.42733
1.12551
0.819551
0.623952
0.521303
0.475218
0.462318
0.475218
0.521303
0.623952
0.819555
1.12555
1.42753
1.37861
1.14169
1.02449
0.993208
0.991068
0.994868
0.997892
0.999343
0.999854
0.999987
1.00001
1.00001
1
1
1
1
1
1
1
1
1
1
1
0.987291
1.03259
1.17729
1.41153
1.35944
1.01828
0.72838
0.558447
0.475218
0.439913
0.430393
0.439913
0.475218
0.558447
0.728385
1.01832
1.35967
1.41249
1.18007
1.03848
0.996372
0.991149
0.994462
0.997619
0.999226
0.999817
0.999979
1.00001
1.00001
1
1
1
1
1
1
1
1
1
1
1
0.988659
1.03779
1.19064
1.41866
1.33241
0.982964
0.700264
0.539263
0.462318
0.430393
0.421923
0.430393
0.462318
0.539264
0.700269
0.983007
1.33265
1.41966
1.19355
1.04385
0.997679
0.991242
0.994336
0.997525
0.999185
0.999804
0.999975
1.00001
1.00001
1
1
1
1
1
1
1
1
1
1
1
0.987291
1.03259
1.17729
1.41153
1.35944
1.01828
0.72838
0.558446
0.475218
0.439913
0.430393
0.439913
0.475218
0.558446
0.728385
1.01832
1.35967
1.41249
1.18007
1.03848
0.996372
0.991149
0.994462
0.997619
0.999226
0.999817
0.999978
1.00001
1
1
1
0.999999
0.999999
0.999999
0.999999
1
1
1
1
1
0.984131
1.01911
1.13928
1.37777
1.42733
1.12551
0.819551
0.623952
0.521303
0.475218
0.462318
0.475218
0.521303
0.623952
0.819555
1.12555
1.42753
1.37861
1.14169
1.02449
0.993208
0.991067
0.994868
0.997891
0.999342
0.999853
0.999986
1.00001
1
1
0.999999
0.999998
0.999998
0.999998
0.999999
0.999999
0.999999
0.999999
1
1
0.981403
1.00296
1.08588
1.2951
1.48183
1.29767
0.98937
0.758778
0.623952
0.558447
0.539264
0.558446
0.623952
0.758777
0.989372
1.2977
1.48198
1.29572
1.08773
1.00748
0.990016
0.99143
0.995588
0.998307
0.999506
0.999901
0.999995
1.00001
1
0.999999
0.999998
0.999997
0.999997
0.999997
0.999997
0.999997
0.999998
0.999999
0.999999
0.999999
0.981127
0.99048
1.03489
1.17426
1.42177
1.4729
1.23759
0.989373
0.819555
0.728385
0.700269
0.728385
0.819555
0.989372
1.23759
1.47292
1.42184
1.17462
1.03614
0.993913
0.988554
0.992544
0.996577
0.998796
0.999682
0.999948
1
1.00001
1.00001
1
1
1
1
0.999998
0.999996
0.999995
0.999995
0.999996
0.999997
0.999998
0.983793
0.984997
1.00132
1.06818
1.24023
1.46383
1.47292
1.2977
1.12555
1.01832
0.983007
1.01832
1.12555
1.2977
1.47292
1.46382
1.24024
1.06835
1.00205
0.987299
0.989435
0.994308
0.997669
0.999263
0.999834
0.999989
1.00002
1.00003
1.00004
1.00005
1.00005
1.00005
1.00004
1.00002
1.00001
0.999999
0.999994
0.999993
0.999994
0.999995
0.988293
0.985694
0.987103
1.009
1.08297
1.24025
1.42185
1.48198
1.42753
1.35967
1.33265
1.35967
1.42753
1.48198
1.42184
1.24024
1.08295
1.00905
0.987455
0.987018
0.99198
0.99627
0.998644
0.999632
0.999954
1.00005
1.0001
1.00015
1.0002
1.00024
1.00026
1.00024
1.0002
1.00014
1.00009
1.00004
1.00001
0.999994
0.999989
0.999989
0.992929
0.989609
0.985621
0.987762
1.00907
1.06836
1.17463
1.29572
1.37861
1.41249
1.41966
1.41249
1.37861
1.29572
1.17462
1.06835
1.00905
0.987758
0.985745
0.990233
0.994953
0.997945
0.99936
0.999897
1.0001
1.00023
1.00039
1.00056
1.00072
1.00083
1.00087
1.00083
1.00072
1.00056
1.00038
1.00021
1.0001
1.00003
0.999993
0.999982
0.996479
0.993933
0.989573
0.985768
0.987472
1.00206
1.03614
1.08773
1.14169
1.18007
1.19355
1.18007
1.14169
1.08773
1.03614
1.00205
0.987455
0.985745
0.989584
0.994147
0.997379
0.999088
0.999827
1.00016
1.00043
1.00078
1.00121
1.00163
1.00196
1.00216
1.00223
1.00216
1.00196
1.00162
1.0012
1.00077
1.00041
1.00017
1.00004
0.999992
0.998605
0.997132
0.994177
0.990257
0.98703
0.987304
0.993915
1.00748
1.02449
1.03848
1.04385
1.03848
1.02449
1.00748
0.993913
0.987299
0.987018
0.990233
0.994147
0.99716
0.998917
0.999769
1.00022
1.00067
1.0013
1.00211
1.00295
1.00359
1.00394
1.00406
1.00408
1.00406
1.00394
1.00359
1.00294
1.0021
1.00127
1.00064
1.00025
1.00008
0.999608
0.998931
0.997412
0.994975
0.991991
0.989439
0.988556
0.990016
0.993208
0.996372
0.997679
0.996372
0.993208
0.990016
0.988554
0.989435
0.99198
0.994953
0.997379
0.998917
0.999745
1.00026
1.00086
1.0018
1.0031
1.00444
1.00527
1.00524
1.00449
1.00362
1.00325
1.00362
1.00449
1.00524
1.00527
1.00443
1.00308
1.00177
1.00085
1.0004
0.999966
0.999719
0.999102
0.997962
0.99628
0.994312
0.992546
0.991431
0.991068
0.991149
0.991242
0.991149
0.991067
0.99143
0.992544
0.994308
0.99627
0.997945
0.999088
0.999769
1.00026
1.00094
1.00212
1.00387
1.0057
1.00644
1.00492
1.00101
0.996025
0.99197
0.990427
0.99197
0.996024
1.00101
1.00492
1.00643
1.00568
1.00386
1.00217
1.00124
1.00005
0.999977
0.999782
0.999365
0.998654
0.997675
0.99658
0.995589
0.994868
0.994462
0.994336
0.994462
0.994868
0.995588
0.996577
0.997669
0.998644
0.99936
0.999827
1.00022
1.00086
1.00212
1.00416
1.00641
1.00693
1.00303
0.993267
0.979352
0.965396
0.955429
0.951858
0.955429
0.965395
0.979349
0.993262
1.00302
1.00693
1.00645
1.00441
1.00294
1.00004
1.00003
0.999986
0.99987
0.999637
0.999269
0.998799
0.998309
0.997892
0.997619
0.997525
0.997619
0.997891
0.998307
0.998796
0.999263
0.999632
0.999897
1.00016
1.00067
1.0018
1.00387
1.00641
1.00703
1.0012
0.984912
0.95894
0.929596
0.904452
0.888296
0.882812
0.888295
0.904451
0.929593
0.958934
0.984907
1.00123
1.0072
1.00705
1.00564
1.00002
1.00002
1.00002
1
0.999946
0.99984
0.999687
0.999508
0.999343
0.999226
0.999185
0.999226
0.999342
0.999506
0.999682
0.999834
0.999954
1.0001
1.00043
1.0013
1.0031
1.0057
1.00693
1.0012
0.981289
0.944912
0.899191
0.85606
0.824177
0.805929
0.800136
0.805929
0.824175
0.856057
0.899186
0.944921
0.981385
1.00162
1.00822
1.00879
1.00001
1.00001
1.00002
1.00002
1.00001
0.99999
0.999953
0.999904
0.999854
0.999817
0.999804
0.999817
0.999853
0.999901
0.999948
0.999989
1.00005
1.00023
1.00078
1.00211
1.00444
1.00644
1.00303
0.984912
0.944912
0.887396
0.827543
0.780029
0.750689
0.736892
0.733135
0.736891
0.750687
0.780026
0.827542
0.88743
0.945113
0.985662
1.00512
1.01087
1
1
1.00001
1.00001
1.00001
1.00001
1.00001
0.999998
0.999987
0.999979
0.999975
0.999978
0.999986
0.999995
1
1.00002
1.0001
1.00039
1.00121
1.00295
1.00527
1.00492
0.993267
0.95894
0.899191
0.827543
0.764708
0.724124
0.706775
0.704113
0.704913
0.704113
0.706773
0.724121
0.764713
0.82761
0.899522
0.960072
0.996149
1.01015
1
1
1
1
1.00001
1.00001
1.00001
1.00001
1.00001
1.00001
1.00001
1.00001
1.00001
1.00001
1.00001
1.00003
1.00015
1.00056
1.00163
1.00359
1.00524
1.00101
0.979352
0.929596
0.85606
0.780029
0.724124
0.69907
0.701931
0.718093
0.726928
0.718093
0.701929
0.699068
0.724137
0.780132
0.856522
0.931075
0.982793
1.00613
1
1
1
1
1
1
1
1.00001
1.00001
1.00001
1.00001
1
1
1
1.00001
1.00004
1.0002
1.00072
1.00196
1.00394
1.00449
0.996025
0.965396
0.904452
0.824177
0.750689
0.706775
0.701931
0.732426
0.777661
0.800031
0.77766
0.732424
0.70193
0.706795
0.750824
0.824748
0.906189
0.969102
1.00032
1
1
1
1
1
1
1
1
1
1
1
1
1
0.999999
1
1.00005
1.00024
1.00083
1.00216
1.00406
1.00362
0.99197
0.955429
0.888296
0.805929
0.736892
0.704113
0.718093
0.777661
0.857774
0.89774
0.857773
0.777658
0.718093
0.704139
0.737051
0.806573
0.890183
0.9592
0.995351
1
1
1
1
1
1
1
1
1
1
1
1
0.999999
0.999998
1
1.00005
1.00026
1.00087
1.00223
1.00408
1.00325
0.990427
0.951858
0.882812
0.800136
0.733135
0.704913
0.726928
0.800031
0.89774
0.946987
0.897739
0.800029
0.726928
0.704941
0.733302
0.800805
0.884748
0.95563
0.993422
1
1
1
1
1
1
1
1
1
1
1
0.999999
0.999998
0.999997
1
1.00005
1.00024
1.00083
1.00216
1.00406
1.00362
0.99197
0.955429
0.888295
0.805929
0.736891
0.704113
0.718093
0.77766
0.857773
0.897739
0.857772
0.777657
0.718093
0.704139
0.73705
0.806573
0.890182
0.959199
0.995351
1
1
1
1
1
1
1
1
1
1
1
0.999999
0.999998
0.999997
1
1.00004
1.0002
1.00072
1.00196
1.00394
1.00449
0.996024
0.965395
0.904451
0.824175
0.750687
0.706773
0.701929
0.732424
0.777658
0.800029
0.777657
0.732422
0.701928
0.706793
0.750823
0.824747
0.906188
0.969101
1.00032
1
1
1
1
1
1
1
1
1
1
1
0.999999
0.999998
0.999997
0.999998
1.00002
1.00014
1.00056
1.00162
1.00359
1.00524
1.00101
0.979349
0.929593
0.856057
0.780026
0.724121
0.699068
0.70193
0.718093
0.726928
0.718093
0.701928
0.699067
0.724134
0.780129
0.856518
0.931072
0.98279
1.00613
1
1
1
1
1
1
1
1
1
1
1
0.999999
0.999999
0.999997
0.999996
1.00001
1.00009
1.00038
1.0012
1.00294
1.00527
1.00492
0.993262
0.958934
0.899186
0.827542
0.764713
0.724137
0.706795
0.704139
0.704941
0.704139
0.706793
0.724134
0.764719
0.82761
0.899517
0.960066
0.996143
1.01015
1
1
1
1
1
1
1
1
1
1
1
1
0.999999
0.999997
0.999995
0.999999
1.00004
1.00021
1.00077
1.0021
1.00443
1.00643
1.00302
0.984907
0.944921
0.88743
0.82761
0.780132
0.750824
0.737051
0.733302
0.73705
0.750823
0.780129
0.82761
0.887464
0.945122
0.985657
1.00511
1.01086
1
1
1
1
1
1
1
1
1
1
1
1
0.999999
0.999998
0.999995
0.999994
1.00001
1.0001
1.00041
1.00127
1.00308
1.00568
1.00693
1.00123
0.981385
0.945113
0.899522
0.856522
0.824748
0.806573
0.800805
0.806573
0.824747
0.856518
0.899517
0.945122
0.98148
1.00164
1.00821
1.00877
1
1
1
1
1
1
1
1
1
1
1
1
0.999999
0.999999
0.999996
0.999993
0.999994
1.00003
1.00017
1.00064
1.00177
1.00386
1.00645
1.0072
1.00162
0.985662
0.960072
0.931075
0.906189
0.890183
0.884748
0.890182
0.906188
0.931072
0.960066
0.985657
1.00164
1.00738
1.0071
1.00564
1
1
1
1
1
1
1
1
1
1
1
1
1
0.999999
0.999997
0.999994
0.999989
0.999993
1.00004
1.00025
1.00085
1.00217
1.00441
1.00705
1.00822
1.00512
0.996149
0.982793
0.969102
0.9592
0.95563
0.959199
0.969101
0.98279
0.996143
1.00511
1.00821
1.0071
1.00467
1.00302
1
1
1
1
1
1
1
1
1
1
1
1
1
0.999999
0.999998
0.999995
0.999989
0.999982
0.999992
1.00008
1.0004
1.00124
1.00294
1.00564
1.00879
1.01087
1.01015
1.00613
1.00032
0.995351
0.993422
0.995351
1.00032
1.00613
1.01015
1.01086
1.00877
1.00564
1.00302
1.00164
SCALARS C2 double 1
LOOKUP_TABLE default
2.99989
3.00083
3.00333
3.00835
3.01637
3.02664
3.03698
3.04485
3.04897
3.05016
3.05026
3.05016
3.04897
3.04485
3.03698
3.02664
3.01638
3.00838
3.0034
3.00095
3.00005
2.99985
2.99987
2.99993
2.99997
2.99999
3
3
3
3
3
3
3
3
3
3
3
3
3
3
3.00083
3.00281
3.00751
3.0156
3.02642
3.03706
3.04286
3.04019
3.03013
3.01904
3.0143
3.01904
3.03013
3.0402
3.04286
3.03706
3.02644
3.01564
3.00759
3.00291
3.00078
3.00005
2.9999
2.99992
2.99996
2.99998
2.99999
3
3
3
3
3
3
3
3
3
3
3
3
3
3.00333
3.00751
3.01632
3.02901
3.04122
3.04357
3.02388
2.97626
2.91294
2.86032
2.84027
2.86032
2.91294
2.97626
3.02388
3.04358
3.04124
3.02907
3.01639
3.00747
3.00267
3.00066
3.00004
2.99993
2.99994
2.99997
2.99999
3
3
3
3
3
3
3
3
3
3
3
3
3
3.00835
3.0156
3.02901
3.04324
3.04369
3.0026
2.88853
2.71093
2.54163
2.43798
2.40536
2.43798
2.54163
2.71094
2.88854
3.00262
3.04373
3.04331
3.02902
3.01518
3.00633
3.00204
3.00043
2.99999
2.99994
2.99996
2.99998
2.99999
3
3
3
3
3
3
3
3
3
3
3
3
3.01637
3.02642
3.04122
3.04369
2.99204
2.81438
2.5024
2.23789
2.13159
2.11557
2.11797
2.11557
2.13159
2.23789
2.50241
2.81442
2.99209
3.04373
3.04103
3.0252
3.01195
3.00446
3.00125
3.0002
2.99996
2.99995
2.99998
2.99999
3
3
3
3
3
3
3
3
3
3
3
3
3.02664
3.03706
3.04357
3.0026
2.81438
2.41808
2.11059
2.07987
2.1682
2.25366
2.28635
2.25366
2.1682
2.07988
2.1106
2.41812
2.81443
3.00255
3.04298
3.03452
3.01881
3.00791
3.00258
3.00059
3.00004
2.99996
2.99997
2.99999
3
3
3
3
3
3
3
3
3
3
3
3
3.03698
3.04286
3.02388
2.88853
2.5024
2.11059
2.09059
2.26019
2.4427
2.56769
2.6111
2.56769
2.4427
2.26019
2.0906
2.11061
2.5024
2.88828
3.02265
3.03856
3.02521
3.01186
3.00432
3.00118
3.00019
2.99998
2.99997
2.99998
2.99999
3
3
3
3
3
3
3
3
3
3
3
3.04485
3.04019
2.97626
2.71093
2.23789
2.07987
2.26019
2.51544
2.72957
2.86542
2.91155
2.86542
2.72957
2.51545
2.26019
2.07987
2.23781
2.71039
2.9742
3.03395
3.02938
3.0155
3.00616
3.00187
3.00039
3.00002
2.99997
2.99998
2.99999
3
3
3
3
3
3
3
3
3
3
3
3.04897
3.03013
2.91294
2.54163
2.13159
2.1682
2.4427
2.72957
2.95242
3.09161
3.13899
3.09161
2.95242
2.72958
2.4427
2.16819
2.13145
2.5408
2.91003
3.02214
3.03073
3.01816
3.00773
3.00252
3.00059
3.00006
2.99997
2.99998
2.99999
3
3
3
3
3
3
3
3
3
3
3
3.05016
3.01904
2.86032
2.43798
2.11557
2.25366
2.56769
2.86542
3.09161
3.23356
3.28232
3.23356
3.09161
2.86542
2.56769
2.25364
2.11541
2.43697
2.8568
3.00987
3.03034
3.01964
3.00877
3.00298
3.00074
3.0001
2.99998
2.99998
2.99999
3
3
3
3
3
3
3
3
3
3
3
3.05026
3.0143
2.84027
2.40536
2.11797
2.28635
2.6111
2.91155
3.13899
3.28232
3.33179
3.28232
3.13899
2.91155
2.6111
2.28634
2.1178
2.40429
2.83653
3.00471
3.02994
3.0201
3.00912
3.00314
3.0008
3.00012
2.99998
2.99998
2.99999
3
3
3
3
3
3
3
3
3
3
3
3.05016
3.01904
2.86032
2.43798
2.11557
2.25366
2.56769
2.86542
3.09161
3.23356
3.28232
3.23356
3.09161
2.86542
2.56769
2.25364
2.11541
2.43697
2.8568
3.00987
3.03034
3.01964
3.00877
3.00298
3.00074
3.0001
2.99998
2.99998
2.99999
3
3
3
3
3
3
3
3
3
3
3
3.04897
3.03013
2.91294
2.54163
2.13159
2.1682
2.4427
2.72957
2.95242
3.09161
3.13899
3.09161
2.95242
2.72958
2.4427
2.16819
2.13146
2.5408
2.91003
3.02214
3.03073
3.01816
3.00774
3.00252
3.00059
3.00007
2.99998
2.99998
2.99999
3
3
3
3
3
3
3
3
3
3
3
3.04485
3.0402
2.97626
2.71094
2.23789
2.07988
2.26019
2.51545
2.72958
2.86542
2.91155
2.86542
2.72958
2.51545
2.26019
2.07987
2.23781
2.71039
2.9742
3.03395
3.02938
3.0155
3.00616
3.00187
3.00039
3.00002
2.99997
2.99999
3
3.00001
3.00001
3.00001
3.00001
3.00001
3.00001
3
3
3
3
3
3.03698
3.04286
3.02388
2.88854
2.50241
2.1106
2.0906
2.26019
2.4427
2.56769
2.6111
2.56769
2.4427
2.26019
2.0906
2.11062
2.50241
2.88829
3.02266
3.03856
3.02521
3.01187
3.00432
3.00119
3.0002
2.99999
2.99998
3
3.00001
3.00001
3.00001
3.00001
3.00001
3.00001
3.00001
3.00001
3.00001
3.00001
3
3
3.02664
3.03706
3.04358
3.00262
2.81442
2.41812
2.11061
2.07987
2.16819
2.25364
2.28634
2.25364
2.16819
2.07987
2.11062
2.41815
2.81446
3.00257
3.04299
3.03453
3.01881
3.00792
3.00259
3.00061
3.00006
2.99998
2.99998
2.99999
2.99999
2.99998
2.99998
2.99998
2.99999
3.00001
3.00001
3.00002
3.00002
3.00001
3.00001
3.00001
3.01638
3.02644
3.04124
3.04373
2.99209
2.81443
2.5024
2.23781
2.13145
2.11541
2.1178
2.11541
2.13146
2.23781
2.50241
2.81446
2.99214
3.04378
3.04106
3.02522
3.01196
3.00448
3.00127
3.00022
2.99999
2.99996
2.99994
2.99989
2.99984
2.99979
2.99978
2.99979
2.99984
2.9999
2.99996
3
3.00002
3.00003
3.00002
3.00002
3.00838
3.01564
3.02907
3.04331
3.04373
3.00255
2.88828
2.71039
2.5408
2.43697
2.40429
2.43697
2.5408
2.71039
2.88829
3.00257
3.04378
3.04337
3.02908
3.01522
3.00636
3.00207
3.00046
3.00001
2.99991
2.99981
2.99965
2.99943
2.99921
2.99905
2.99899
2.99905
2.99921
2.99944
2.99967
2.99985
2.99997
3.00002
3.00004
3.00004
3.0034
3.00759
3.01639
3.02902
3.04103
3.04298
3.02265
2.9742
2.91003
2.8568
2.83653
2.8568
2.91003
2.9742
3.02266
3.04299
3.04106
3.02908
3.01647
3.00756
3.00275
3.00072
3.00006
2.99984
2.99961
2.9992
2.9986
2.99792
2.9973
2.99688
2.99673
2.99688
2.9973
2.99792
2.99861
2.99923
2.99967
2.99992
3.00003
3.00006
3.00095
3.00291
3.00747
3.01518
3.0252
3.03452
3.03856
3.03395
3.02214
3.00987
3.00471
3.00987
3.02214
3.03395
3.03856
3.03453
3.02522
3.01522
3.00756
3.00301
3.00089
3.0001
2.99977
2.99935
2.99857
2.99732
2.99574
2.99417
2.99293
2.99218
2.99194
2.99218
2.99293
2.99417
2.99575
2.99733
2.99861
2.99944
2.99987
3.00004
3.00005
3.00078
3.00267
3.00633
3.01195
3.01881
3.02521
3.02938
3.03073
3.03034
3.02994
3.03034
3.03073
3.02938
3.02521
3.01881
3.01196
3.00636
3.00275
3.00089
3.00012
2.99972
2.99914
2.99792
2.9958
2.99293
2.98993
2.98761
2.9864
2.98603
2.986
2.98603
2.9864
2.98762
2.98994
2.99295
2.99584
2.99799
2.99925
2.99979
2.99985
3.00005
3.00066
3.00204
3.00446
3.00791
3.01186
3.0155
3.01816
3.01964
3.0201
3.01964
3.01816
3.0155
3.01187
3.00792
3.00448
3.00207
3.00072
3.0001
2.99972
2.99905
2.9975
2.99455
2.99022
2.98557
2.9825
2.98246
2.98502
2.98809
2.98941
2.98809
2.98502
2.98246
2.98251
2.98559
2.99026
2.99461
2.99754
2.99892
2.99987
2.9999
3.00004
3.00043
3.00125
3.00258
3.00432
3.00616
3.00773
3.00877
3.00912
3.00877
3.00774
3.00616
3.00432
3.00259
3.00127
3.00046
3.00006
2.99977
2.99914
2.9975
2.99406
2.98854
2.98235
2.97911
2.9829
2.9946
3.01019
3.02312
3.02808
3.02313
3.01019
2.99461
2.98291
2.97913
2.98238
2.98856
2.99392
2.99676
2.99993
2.99992
2.99993
2.99999
3.0002
3.00059
3.00118
3.00187
3.00252
3.00298
3.00314
3.00298
3.00252
3.00187
3.00119
3.00061
3.00022
3.00001
2.99984
2.99935
2.99792
2.99455
2.98854
2.98117
2.97768
2.98629
3.01217
3.0515
3.09263
3.12288
3.13388
3.12288
3.09263
3.0515
3.01218
2.98631
2.9777
2.98108
2.98797
2.99252
2.99997
2.99996
2.99994
2.99994
2.99996
3.00004
3.00019
3.00039
3.00059
3.00074
3.0008
3.00074
3.00059
3.00039
3.0002
3.00006
2.99999
2.99991
2.99961
2.99857
2.9958
2.99022
2.98235
2.97768
2.98822
3.02624
3.09281
3.17401
3.24888
3.29995
3.31787
3.29995
3.24888
3.17401
3.09283
3.02626
2.98819
2.97734
2.98094
2.98603
2.99999
2.99998
2.99997
2.99996
2.99995
2.99996
2.99998
3.00002
3.00006
3.0001
3.00012
3.0001
3.00007
3.00002
2.99999
2.99998
2.99996
2.99981
2.9992
2.99732
2.99293
2.98557
2.97911
2.98629
3.02624
3.11009
3.22841
3.35535
3.46298
3.53239
3.556
3.53239
3.46299
3.35536
3.22842
3.1101
3.02611
2.98553
2.97644
2.97849
3
2.99999
2.99999
2.99998
2.99998
2.99997
2.99997
2.99997
2.99997
2.99998
2.99998
2.99998
2.99998
2.99997
2.99998
2.99998
2.99994
2.99965
2.9986
2.99574
2.98993
2.9825
2.9829
3.01217
3.09281
3.22841
3.39669
3.56242
3.69409
3.77429
3.80047
3.77429
3.69409
3.56243
3.39671
3.22839
3.09253
3.01086
2.97871
2.97245
3
3
3
2.99999
2.99999
2.99999
2.99998
2.99998
2.99998
2.99998
2.99998
2.99998
2.99998
2.99999
3
2.99999
2.99989
2.99943
2.99792
2.99417
2.98761
2.98246
2.9946
3.0515
3.17401
3.35535
3.56242
3.75356
3.89494
3.97271
3.99558
3.97271
3.89494
3.75357
3.56243
3.3553
3.17357
3.04961
2.98895
2.97018
3
3
3
3
3
3
2.99999
2.99999
2.99999
2.99999
2.99999
2.99999
2.99999
3
3.00001
2.99999
2.99984
2.99921
2.9973
2.99293
2.9864
2.98502
3.01019
3.09263
3.24888
3.46298
3.69409
3.89494
4.02732
4.08194
4.09117
4.08194
4.02732
3.89495
3.69409
3.4629
3.24829
3.09025
3.00343
2.97163
3
3
3
3
3
3
3
3
3
3
3
3
3
3.00001
3.00001
2.99998
2.99979
2.99905
2.99688
2.99218
2.98603
2.98809
3.02312
3.12288
3.29995
3.53239
3.77429
3.97271
4.08194
4.0958
4.08166
4.0958
4.08195
3.97272
3.77428
3.53228
3.29926
3.12017
3.01571
2.97441
3
3
3
3
3
3
3
3
3
3
3
3
3
3.00001
3.00001
2.99998
2.99978
2.99899
2.99673
2.99194
2.986
2.98941
3.02808
3.13388
3.31787
3.556
3.80047
3.99558
4.09117
4.08166
4.05391
4.08166
4.09117
3.99559
3.80047
3.55588
3.31714
3.13106
3.02047
2.97572
3
3
3
3
3
3
3
3
3
3
3
3
3
3.00001
3.00001
2.99998
2.99979
2.99905
2.99688
2.99218
2.98603
2.98809
3.02313
3.12288
3.29995
3.53239
3.77429
3.97271
4.08194
4.0958
4.08166
4.09581
4.08195
3.97272
3.77429
3.53229
3.29926
3.12017
3.01572
2.97441
3
3
3
3
3
3
3
3
3
3
3
3
3
3.00001
3.00001
2.99999
2.99984
2.99921
2.9973
2.99293
2.9864
2.98502
3.01019
3.09263
3.24888
3.46299
3.69409
3.89494
4.02732
4.08195
4.09117
4.08195
4.02732
3.89495
3.69409
3.4629
3.24829
3.09025
3.00344
2.97164
3
3
3
3
3
3
3
3
3
3
3
3
3
3.00001
3.00001
3.00001
2.9999
2.99944
2.99792
2.99417
2.98762
2.98246
2.99461
3.0515
3.17401
3.35536
3.56243
3.75357
3.89495
3.97272
3.99559
3.97272
3.89495
3.75358
3.56244
3.35531
3.17357
3.04962
2.98896
2.97018
3
3
3
3
3
3
3
3
3
3
3
3
3
3.00001
3.00001
3.00001
2.99996
2.99967
2.99861
2.99575
2.98994
2.98251
2.98291
3.01218
3.09283
3.22842
3.39671
3.56243
3.69409
3.77428
3.80047
3.77429
3.69409
3.56244
3.39672
3.2284
3.09255
3.01088
2.97872
2.97246
3
3
3
3
3
3
3
3
3
3
3
3
3
3
3.00001
3.00002
3
2.99985
2.99923
2.99733
2.99295
2.98559
2.97913
2.98631
3.02626
3.1101
3.22839
3.3553
3.4629
3.53228
3.55588
3.53229
3.4629
3.35531
3.2284
3.1101
3.02613
2.98556
2.97646
2.9785
3
3
3
3
3
3
3
3
3
3
3
3
3
3
3.00001
3.00002
3.00002
2.99997
2.99967
2.99861
2.99584
2.99026
2.98238
2.9777
2.98819
3.02611
3.09253
3.17357
3.24829
3.29926
3.31714
3.29926
3.24829
3.17357
3.09255
3.02613
2.98815
2.97736
2.98098
2.98607
3
3
3
3
3
3
3
3
3
3
3
3
3
3
3.00001
3.00001
3.00003
3.00002
2.99992
2.99944
2.99799
2.99461
2.98856
2.98108
2.97734
2.98553
3.01086
3.04961
3.09025
3.12017
3.13106
3.12017
3.09025
3.04962
3.01088
2.98556
2.97736
2.98099
2.98799
2.99258
3
3
3
3
3
3
3
3
3
3
3
3
3
3
3
3.00001
3.00002
3.00004
3.00003
2.99987
2.99925
2.99754
2.99392
2.98797
2.98094
2.97644
2.97871
2.98895
3.00343
3.01571
3.02047
3.01572
3.00344
2.98896
2.97872
2.97646
2.98098
2.98799
2.99379
2.99679
3
3
3
3
3
3
3
3
3
3
3
3
3
3
3
3.00001
3.00002
3.00004
3.00006
3.00004
2.99979
2.99892
2.99676
2.99252
2.98603
2.97849
2.97245
2.97018
2.97163
2.97441
2.97572
2.97441
2.97164
2.97018
2.97246
2.9785
2.98607
2.99258
2.99679
2.99871
