# vtk DataFile Version 3.0
Brusselator Concentration Output
ASCII
DATASET STRUCTURED_POINTS
DIMENSIONS 40 40 1
ORIGIN 0.0 0.0 0.0
SPACING 0.005 0.005 1.0
POINT_DATA 1600
SCALARS C1 double 1
LOOKUP_TABLE default
0.828587
0.709075
0.571515
0.475432
0.421446
0.393303
0.379014
0.371975
0.3687
0.367342
0.366985
0.367354
0.368729
0.372022
0.379026
0.392974
0.419611
0.469017
0.558098
0.712336
0.963459
1.34268
1.8808
2.61562
3.70739
1.40431
0.614924
0.497203
0.466473
0.471304
0.52036
0.634587
0.814564
0.993393
1.07702
1.06767
1.03447
1.01246
1.00287
0.999824
0.709075
0.624562
0.524689
0.453059
0.412262
0.391209
0.38095
0.37632
0.374496
0.373926
0.373821
0.373936
0.374519
0.376352
0.380929
0.390859
0.410645
0.448071
0.516234
0.635449
0.832597
1.13563
1.56865
2.15876
2.94185
2.77538
0.82717
0.536277
0.483658
0.481737
0.524357
0.628224
0.794214
0.965686
1.05776
1.06133
1.03418
1.01321
1.0033
0.999965
0.571515
0.524689
0.467054
0.424339
0.400139
0.388575
0.38405
0.383053
0.383522
0.384244
0.384557
0.384252
0.383537
0.383062
0.383987
0.388205
0.398822
0.421083
0.463936
0.542137
0.677756
0.898328
1.23066
1.69828
2.32788
3.23303
1.62572
0.656317
0.520123
0.500493
0.529811
0.614867
0.757699
0.917878
1.0235
1.04855
1.03232
1.01356
1.00322
0.999402
0.475432
0.453059
0.424339
0.402736
0.391484
0.387843
0.388467
0.390974
0.393797
0.395902
0.396674
0.395907
0.393805
0.390964
0.38837
0.387471
0.39045
0.400833
0.424677
0.472528
0.562003
0.719223
0.97544
1.35938
1.89852
2.61777
3.22761
0.982137
0.582208
0.523621
0.533713
0.596235
0.713929
0.862117
0.981181
1.02976
1.02695
1.01138
1.00066
0.996248
0.421446
0.412262
0.400139
0.391484
0.388712
0.390652
0.395222
0.400656
0.405593
0.409004
0.410221
0.409008
0.405595
0.400632
0.395103
0.390288
0.387895
0.390479
0.402324
0.431102
0.49054
0.603493
0.80214
1.12082
1.58818
2.23332
3.17724
1.67611
0.686279
0.548962
0.536035
0.577641
0.673667
0.810693
0.939223
1.0076
1.01726
1.00462
0.993159
0.987877
0.393303
0.391209
0.388575
0.387843
0.390652
0.3966
0.4043
0.412282
0.419196
0.423891
0.425557
0.423895
0.419195
0.412248
0.404166
0.396243
0.389987
0.38741
0.391722
0.408677
0.448985
0.531844
0.687615
0.95392
1.36422
1.94846
2.75465
2.78325
0.860773
0.578937
0.539972
0.565315
0.646034
0.774943
0.909303
0.990727
1.00757
0.994489
0.980189
0.972999
0.379014
0.38095
0.38405
0.388467
0.395222
0.4043
0.4147
0.425068
0.433953
0.439979
0.442117
0.439981
0.433949
0.425026
0.414551
0.403944
0.394658
0.388403
0.387716
0.397089
0.425067
0.487726
0.612614
0.838148
1.20267
1.73708
2.46918
3.38981
1.1224
0.619151
0.550407
0.565946
0.641225
0.771146
0.91376
1.00215
1.01561
0.99233
0.968783
0.956669
0.371975
0.37632
0.383053
0.390974
0.400656
0.412282
0.425068
0.437687
0.448516
0.455893
0.458519
0.455895
0.448509
0.437637
0.424905
0.411919
0.400155
0.39115
0.387012
0.391408
0.411407
0.460746
0.564289
0.75977
1.089
1.5853
2.27742
3.32648
1.46806
0.678463
0.576562
0.592674
0.680281
0.832247
0.998604
1.09659
1.09278
1.03734
0.987145
0.961539
0.3687
0.374496
0.383522
0.393797
0.405593
0.419196
0.433953
0.448516
0.461079
0.469688
0.472763
0.46969
0.461071
0.44846
0.433778
0.418825
0.405128
0.394123
0.387651
0.388854
0.403856
0.444825
0.534579
0.709753
1.01412
1.48358
2.1489
3.14111
1.94293
0.780747
0.639413
0.66977
0.788371
0.976677
1.18239
1.32455
1.33454
1.2375
1.12927
1.06852
0.367342
0.373926
0.384244
0.395902
0.409004
0.423891
0.439979
0.455893
0.469688
0.479183
0.482584
0.479185
0.469678
0.455833
0.439795
0.423513
0.408557
0.396312
0.388465
0.387868
0.400126
0.436523
0.518655
0.682277
0.971855
1.42424
2.06854
2.97812
2.60606
0.976825
0.753339
0.768749
0.858099
1.00216
1.1943
1.40595
1.5782
1.63871
1.58215
1.50882
0.366985
0.373821
0.384557
0.396674
0.410221
0.425557
0.442117
0.458519
0.472763
0.482584
0.486106
0.482586
0.472753
0.458458
0.44193
0.425175
0.409781
0.397114
0.388816
0.38765
0.399063
0.434074
0.513855
0.673548
0.956498
1.39603
2.01044
2.81268
3.06728
1.20695
0.786139
0.692586
0.696837
0.774313
0.91314
1.10217
1.32942
1.5786
1.81125
1.95587
0.367354
0.373936
0.384252
0.395907
0.409008
0.423895
0.439981
0.455895
0.46969
0.479185
0.482586
0.479187
0.46968
0.455835
0.439798
0.423517
0.408566
0.39633
0.388504
0.387955
0.400308
0.436835
0.518794
0.680132
0.959239
1.37802
1.9321
2.57931
2.80564
1.0621
0.615374
0.525743
0.524947
0.57037
0.653489
0.773884
0.933431
1.12683
1.32222
1.45261
0.368729
0.374519
0.383537
0.393805
0.405595
0.419195
0.433949
0.448509
0.461071
0.469678
0.472753
0.46968
0.461063
0.448454
0.433775
0.418828
0.405143
0.394163
0.387738
0.389024
0.404112
0.444826
0.532265
0.696944
0.967163
1.34906
1.8224
2.35708
2.04153
0.711539
0.475311
0.433464
0.435302
0.458764
0.500444
0.562394
0.649191
0.759897
0.873984
0.949973
0.372022
0.376352
0.383062
0.390964
0.400632
0.412248
0.425026
0.437637
0.44846
0.455833
0.458458
0.455835
0.448454
0.437589
0.424868
0.411899
0.400162
0.391201
0.387125
0.391538
0.411154
0.4582
0.552429
0.71847
0.974534
1.32287
1.76416
2.41307
1.13043
0.511562
0.415918
0.398662
0.399929
0.41051
0.428745
0.455956
0.495105
0.546254
0.599698
0.63569
0.379026
0.380929
0.383987
0.38837
0.395103
0.404166
0.414551
0.424905
0.433778
0.439795
0.44193
0.439798
0.433775
0.424868
0.414415
0.40384
0.394597
0.388385
0.387661
0.396566
0.422356
0.477134
0.57851
0.746925
1.00133
1.36586
1.86444
2.09622
0.676707
0.43784
0.40063
0.393066
0.393308
0.397089
0.403348
0.412753
0.426699
0.445118
0.464303
0.477274
0.392974
0.390859
0.388205
0.387471
0.390288
0.396243
0.403944
0.411919
0.418825
0.423513
0.425175
0.423517
0.418828
0.411899
0.40384
0.395944
0.389695
0.38701
0.390748
0.405556
0.439078
0.503343
0.615858
0.800708
1.09187
1.54356
2.36717
1.10635
0.506344
0.421916
0.407168
0.403857
0.403277
0.403071
0.402751
0.402803
0.403825
0.405775
0.408017
0.409712
0.419611
0.410645
0.398822
0.39045
0.387895
0.389987
0.394658
0.400155
0.405128
0.408557
0.409781
0.408566
0.405143
0.400162
0.394597
0.389695
0.387045
0.388828
0.398307
0.420666
0.464369
0.543333
0.680524
0.913697
1.30612
1.92137
2.03947
0.675079
0.462302
0.433284
0.428445
0.427251
0.425477
0.422016
0.417042
0.411087
0.40445
0.397332
0.390816
0.386933
0.469017
0.448071
0.421083
0.400833
0.390479
0.38741
0.388403
0.39115
0.394123
0.396312
0.397114
0.39633
0.394163
0.391201
0.388385
0.38701
0.388828
0.396304
0.41322
0.445883
0.505419
0.611949
0.801405
1.13254
1.67059
2.63108
1.06634
0.537209
0.470972
0.464417
0.465151
0.464539
0.460507
0.453161
0.443371
0.431873
0.41899
0.405307
0.393048
0.385752
0.558098
0.516234
0.463936
0.424677
0.402324
0.391722
0.387716
0.387012
0.387651
0.388465
0.388816
0.388504
0.387738
0.387125
0.387661
0.390748
0.398307
0.41322
0.440442
0.489202
0.576989
0.736231
1.02133
1.50782
2.31457
1.85673
0.684533
0.52504
0.514015
0.52072
0.525557
0.523828
0.515187
0.50129
0.48413
0.465043
0.444677
0.424103
0.406425
0.39614
0.712336
0.635449
0.542137
0.472528
0.431102
0.408677
0.397089
0.391408
0.388854
0.387868
0.38765
0.387955
0.389024
0.391538
0.396566
0.405556
0.420666
0.445883
0.489202
0.566289
0.706472
0.959585
1.39574
2.07719
2.77325
0.966461
0.605367
0.583658
0.607429
0.631979
0.643364
0.636605
0.614409
0.583493
0.549711
0.516
0.483301
0.452842
0.428185
0.414306
0.963459
0.832597
0.677756
0.562003
0.49054
0.448985
0.425067
0.411407
0.403856
0.400126
0.399063
0.400308
0.404112
0.411154
0.422356
0.439078
0.464369
0.505419
0.576989
0.706472
0.93978
1.34051
1.96922
2.95136
1.40665
0.722198
0.6845
0.764144
0.878212
0.982261
1.02712
0.989836
0.891756
0.777785
0.679341
0.602892
0.54269
0.494279
0.458597
0.439498
1.34268
1.13563
0.898328
0.719223
0.603493
0.531844
0.487726
0.460746
0.444825
0.436523
0.434074
0.436835
0.444826
0.4582
0.477134
0.503343
0.543333
0.611949
0.736231
0.959585
1.34051
1.93557
2.87421
1.86937
0.865489
0.824521
1.0777
1.57252
2.21466
2.72655
2.90591
2.74153
2.24826
1.6141
1.10581
0.805881
0.648558
0.556971
0.500589
0.472878
1.8808
1.56865
1.23066
0.97544
0.80214
0.687615
0.612614
0.564289
0.534579
0.518655
0.513855
0.518794
0.532265
0.552429
0.57851
0.615858
0.680524
0.801405
1.02133
1.39574
1.96922
2.87421
2.06921
0.976194
0.974758
1.59587
2.96257
3.65879
3.53587
3.38313
3.32893
3.38231
3.53295
3.66033
3.02367
1.63211
0.923691
0.66807
0.561622
0.517624
2.61562
2.15876
1.69828
1.35938
1.12082
0.95392
0.838148
0.75977
0.709753
0.682277
0.673548
0.680132
0.696944
0.71847
0.746925
0.800708
0.913697
1.13254
1.50782
2.07719
2.95136
1.86937
0.976194
1.04522
2.06787
3.63912
3.39729
3.0432
2.80112
2.66034
2.61413
2.65994
2.79955
3.03863
3.38554
3.6369
2.04612
0.948948
0.662687
0.580373
3.70739
2.94185
2.32788
1.89852
1.58818
1.36422
1.20267
1.089
1.01412
0.971855
0.956498
0.959239
0.967163
0.974534
1.00133
1.09187
1.30612
1.67059
2.31457
2.77325
1.40665
0.865489
0.974758
2.06787
3.67188
3.20383
2.77293
2.45482
2.24079
2.11769
2.07744
2.11728
2.23949
2.45154
2.76638
3.19413
3.66178
1.92772
0.879483
0.676186
1.40431
2.77538
3.23303
2.61777
2.23332
1.94846
1.73708
1.5853
1.48358
1.42424
1.39603
1.37802
1.34906
1.32287
1.36586
1.54356
1.92137
2.63108
1.85673
0.966461
0.722198
0.824521
1.59587
3.63912
3.20383
2.68525
2.29168
2.01028
1.82195
1.71382
1.67848
1.7134
1.82076
2.00763
2.28712
2.68076
3.20845
3.58647
1.45916
0.844007
0.614924
0.82717
1.62572
3.22761
3.17724
2.75465
2.46918
2.27742
2.1489
2.06854
2.01044
1.9321
1.8224
1.76416
1.86444
2.36717
2.03947
1.06634
0.684533
0.605367
0.6845
1.0777
2.96257
3.39729
2.77293
2.29168
1.93692
1.68423
1.51567
1.41922
1.38776
1.41881
1.51454
1.68188
1.93329
2.2894
2.78238
3.45443
2.71722
1.17596
0.497203
0.536277
0.656317
0.982137
1.67611
2.78325
3.38981
3.32648
3.14111
2.97812
2.81268
2.57931
2.35708
2.41307
2.09622
1.10635
0.675079
0.537209
0.52504
0.583658
0.764144
1.57252
3.65879
3.0432
2.45482
2.01028
1.68423
1.45289
1.29944
1.21214
1.18376
1.21175
1.29839
1.45075
1.68109
2.00899
2.46638
3.0979
3.65494
1.79444
0.466473
0.483658
0.520123
0.582208
0.686279
0.860773
1.1224
1.46806
1.94293
2.60606
3.06728
2.80564
2.04153
1.13043
0.676707
0.506344
0.462302
0.470972
0.514015
0.607429
0.878212
2.21466
3.53587
2.80112
2.24079
1.82195
1.51567
1.29944
1.15697
1.07644
1.05036
1.07607
1.15598
1.29745
1.51283
1.82116
2.25292
2.85405
3.65543
2.61893
0.471304
0.481737
0.500493
0.523621
0.548962
0.578937
0.619151
0.678463
0.780747
0.976825
1.20695
1.0621
0.711539
0.511562
0.43784
0.421916
0.433284
0.464417
0.52072
0.631979
0.982261
2.72655
3.38313
2.66034
2.11769
1.71382
1.41922
1.21214
1.07644
1.00012
0.975472
0.999766
1.0755
1.21024
1.41656
1.71326
2.12992
2.71245
3.53127
3.22289
0.52036
0.524357
0.529811
0.533713
0.536035
0.539972
0.550407
0.576562
0.639413
0.753339
0.786139
0.615374
0.475311
0.415918
0.40063
0.407168
0.428445
0.465151
0.525557
0.643364
1.02712
2.90591
3.32893
2.61413
2.07744
1.67848
1.38776
1.18376
1.05036
0.975472
0.951316
0.975127
1.04943
1.1819
1.38515
1.67796
2.08962
2.66588
3.48258
3.40805
0.634587
0.628224
0.614867
0.596235
0.577641
0.565315
0.565946
0.592674
0.66977
0.768749
0.692586
0.525743
0.433464
0.398662
0.393066
0.403857
0.427251
0.464539
0.523828
0.636605
0.989836
2.74153
3.38231
2.65994
2.11728
1.7134
1.41881
1.21175
1.07607
0.999766
0.975127
0.999414
1.07513
1.20984
1.41611
1.71274
2.12932
2.71175
3.53058
3.22642
0.814564
0.794214
0.757699
0.713929
0.673667
0.646034
0.641225
0.680281
0.788371
0.858099
0.696837
0.524947
0.435302
0.399929
0.393308
0.403277
0.425477
0.460507
0.515187
0.614409
0.891756
2.24826
3.53295
2.79955
2.23949
1.82076
1.51454
1.29839
1.15598
1.0755
1.04943
1.07513
1.15498
1.29635
1.5116
1.81974
2.25127
2.85213
3.65412
2.62741
0.993393
0.965686
0.917878
0.862117
0.810693
0.774943
0.771146
0.832247
0.976677
1.00216
0.774313
0.57037
0.458764
0.41051
0.397089
0.403071
0.422016
0.453161
0.50129
0.583493
0.777785
1.6141
3.66033
3.03863
2.45154
2.00763
1.68188
1.45075
1.29745
1.21024
1.1819
1.20984
1.29635
1.4485
1.67854
2.00602
2.46288
3.0938
3.6575
1.80393
1.07702
1.05776
1.0235
0.981181
0.939223
0.909303
0.91376
0.998604
1.18239
1.1943
0.91314
0.653489
0.500444
0.428745
0.403348
0.402751
0.417042
0.443371
0.48413
0.549711
0.679341
1.10581
3.02367
3.38554
2.76638
2.28712
1.93329
1.68109
1.51283
1.41656
1.38515
1.41611
1.5116
1.67854
1.92935
2.28465
2.77664
3.44735
2.72967
1.18048
1.06767
1.06133
1.04855
1.02976
1.0076
0.990727
1.00215
1.09659
1.32455
1.40595
1.10217
0.773884
0.562394
0.455956
0.412753
0.402803
0.411087
0.431873
0.465043
0.516
0.602892
0.805881
1.63211
3.6369
3.19413
2.68076
2.2894
2.00899
1.82116
1.71326
1.67796
1.71274
1.81974
2.00602
2.28465
2.67714
3.20247
3.57814
1.45355
0.841961
1.03447
1.03418
1.03232
1.02695
1.01726
1.00757
1.01561
1.09278
1.33454
1.5782
1.32942
0.933431
0.649191
0.495105
0.426699
0.403825
0.40445
0.41899
0.444677
0.483301
0.54269
0.648558
0.923691
2.04612
3.66178
3.20845
2.78238
2.46638
2.25292
2.12992
2.08962
2.12932
2.25127
2.46288
2.77664
3.20247
3.65489
1.8592
0.861788
0.667916
1.01246
1.01321
1.01356
1.01138
1.00462
0.994489
0.99233
1.03734
1.2375
1.63871
1.5786
1.12683
0.759897
0.546254
0.445118
0.405775
0.397332
0.405307
0.424103
0.452842
0.494279
0.556971
0.66807
0.948948
1.92772
3.58647
3.45443
3.0979
2.85405
2.71245
2.66588
2.71175
2.85213
3.0938
3.44735
3.57814
1.8592
0.896499
0.642203
0.567103
1.00287
1.0033
1.00322
1.00066
0.993159
0.980189
0.968783
0.987145
1.12927
1.58215
1.81125
1.32222
0.873984
0.599698
0.464303
0.408017
0.390816
0.393048
0.406425
0.428185
0.458597
0.500589
0.561622
0.662687
0.879483
1.45916
2.71722
3.65494
3.65543
3.53127
3.48258
3.53058
3.65412
3.6575
2.72967
1.45355
0.861788
0.642203
0.546175
0.50522
0.999824
0.999965
0.999402
0.996248
0.987877
0.972999
0.956669
0.961539
1.06852
1.50882
1.95587
1.45261
0.949973
0.63569
0.477274
0.409712
0.386933
0.385752
0.39614
0.414306
0.439498
0.472878
0.517624
0.580373
0.676186
0.844007
1.17596
1.79444
2.61893
3.22289
3.40805
3.22642
2.62741
1.80393
1.18048
0.841961
0.667916
0.567103
0.50522
0.474744
SCALARS C2 double 1
LOOKUP_TABLE default
2.04758
2.24957
2.51781
2.74915
2.92949
3.07211
3.18563
3.27346
3.3364
3.37433
3.387
3.37429
3.33625
3.27302
3.18459
3.07042
2.92877
2.75591
2.5456
2.29096
1.99127
1.66156
1.33232
1.03855
0.971789
4.12406
4.53043
4.37529
4.14392
3.87011
3.56228
3.23667
2.94841
2.79333
2.80627
2.89309
2.95951
2.98993
2.99989
3.00212
2.24957
2.43583
2.68699
2.90895
3.08526
3.22639
3.33968
3.42783
3.49125
3.52957
3.54239
3.52953
3.49111
3.42739
3.33864
3.22475
3.08471
2.91589
2.71345
2.47099
2.18504
1.86374
1.53153
1.2217
0.982406
2.51703
4.46972
4.42334
4.20452
3.93346
3.62664
3.30215
3.01062
2.83833
2.82408
2.89349
2.95604
2.98754
2.99877
3.00159
2.51781
2.68699
2.92082
3.13269
3.30436
3.44382
3.55695
3.64559
3.70965
3.74845
3.76144
3.74842
3.70952
3.64517
3.55592
3.44218
3.30378
3.1394
2.94585
2.71772
2.44889
2.1386
1.80023
1.46242
1.16219
1.0216
3.82647
4.46456
4.29976
4.041
3.73953
3.41772
3.11913
2.91686
2.85754
2.89676
2.95155
2.98442
2.99772
3.00153
2.74915
2.90895
3.13269
3.33775
3.50596
3.64408
3.75697
3.84581
3.91012
3.9491
3.96216
3.94908
3.91001
3.84542
3.75598
3.6424
3.50509
3.34369
3.15645
2.93932
2.68579
2.38944
2.05231
1.69438
1.3505
1.06459
1.72145
4.34112
4.38621
4.15931
3.87096
3.55458
3.24766
3.01222
2.90354
2.9071
2.95077
2.98429
2.99978
3.00469
2.92949
3.08526
3.30436
3.50596
3.67245
3.81008
3.92301
4.01198
4.07635
4.1153
4.12834
4.11529
4.07626
4.01164
3.92209
3.8084
3.67131
3.51111
3.32707
3.11656
2.87405
2.59146
2.26334
1.89892
1.52903
1.196
1.00363
3.71685
4.4256
4.26138
3.99289
3.68503
3.37259
3.10976
2.95823
2.92798
2.95943
2.99291
3.01049
3.01651
3.07211
3.22639
3.44382
3.64408
3.81008
3.94778
4.06085
4.14979
4.21392
4.25262
4.26554
4.25261
4.21385
4.14949
4.05999
3.94613
3.80878
3.64865
3.46573
3.25848
3.02271
2.75069
2.43347
2.07129
1.68722
1.32322
1.02491
2.36951
4.38477
4.33728
4.09284
3.79518
3.4804
3.19744
3.01312
2.95671
2.97979
3.01538
3.03643
3.0443
3.18563
3.33968
3.55695
3.75697
3.92301
4.06085
4.17385
4.26236
4.32583
4.36392
4.3766
4.36391
4.32577
4.26209
4.17305
4.05925
3.92162
3.76114
3.57829
3.37236
3.1403
2.87536
2.56758
2.21123
1.82093
1.43631
1.10383
1.32176
4.22466
4.38574
4.16874
3.87972
3.55948
3.25486
3.04262
2.97144
2.99941
3.04775
3.07901
3.09193
3.27346
3.42783
3.64559
3.84581
4.01198
4.14979
4.26236
4.34999
4.41236
4.44951
4.46182
4.44951
4.41231
4.34976
4.26161
4.14823
4.01054
3.8497
3.66656
3.461
3.23083
2.97029
2.66949
2.31935
1.92741
1.52947
1.17457
1.02338
3.91418
4.40253
4.21531
3.92386
3.57547
3.22256
2.96991
2.89547
2.95948
3.05385
3.11777
3.14614
3.3364
3.49125
3.70965
3.91012
4.07635
4.21392
4.32583
4.41236
4.47342
4.50949
4.52138
4.50949
4.47338
4.41214
4.32512
4.2124
4.07488
3.91382
3.73037
3.5248
3.29551
3.03752
2.74126
2.39598
2.00431
1.59829
1.22794
0.96957
3.40258
4.36246
4.20128
3.86736
3.42555
2.97055
2.6528
2.5613
2.68173
2.88852
3.05076
3.12905
3.37433
3.52957
3.74845
3.9491
4.1153
4.25262
4.36392
4.44951
4.50949
4.54468
4.55623
4.54468
4.50945
4.44931
4.36323
4.25112
4.11382
3.95269
3.76903
3.56337
3.33443
3.07766
2.78377
2.44121
2.05005
1.64016
1.26208
0.972543
2.58392
4.17788
4.03551
3.59907
3.06363
2.60533
2.29201
2.12333
2.11562
2.27848
2.52677
2.69954
3.387
3.54239
3.76144
3.96216
4.12834
4.26554
4.3766
4.46182
4.52138
4.55623
4.56764
4.55623
4.52135
4.46162
4.37592
4.26406
4.12685
3.96571
3.78199
3.57627
3.34737
3.09077
2.79722
2.45513
2.06479
1.65725
1.28449
1.00101
1.7598
3.78303
3.72909
3.31182
2.91043
2.60179
2.35538
2.14763
1.97397
1.84177
1.76614
1.74507
3.37429
3.52953
3.74842
3.94908
4.11529
4.25261
4.36391
4.44951
4.50949
4.54468
4.55623
4.54468
4.50945
4.4493
4.36323
4.25112
4.11381
3.95269
3.76902
3.56329
3.33409
3.07663
2.78157
2.43888
2.05355
1.66198
1.31694
1.07164
1.67556
3.65734
3.61235
3.29609
3.03809
2.83229
2.64723
2.46096
2.25862
2.04174
1.84355
1.72216
3.33625
3.49111
3.70952
3.91001
4.07626
4.21385
4.32577
4.41231
4.47338
4.50945
4.52135
4.50945
4.47334
4.4121
4.32506
4.21234
4.07481
3.91375
3.73024
3.52442
3.29439
3.03488
2.73754
2.39779
2.0305
1.67552
1.37722
1.18652
2.57326
3.83575
3.63737
3.41474
3.24567
3.10617
2.97407
2.82736
2.64715
2.43457
2.23192
2.10774
3.27302
3.42739
3.64517
3.84542
4.01164
4.14949
4.26209
4.34976
4.41214
4.44931
4.46162
4.4493
4.4121
4.34952
4.26135
4.14795
4.01024
3.84934
3.66597
3.4597
3.22799
2.96595
2.66972
2.34501
2.01314
1.7026
1.43777
1.36029
3.70814
3.91667
3.73022
3.58523
3.47575
3.38309
3.288
3.17093
3.01609
2.8254
2.6393
2.5241
3.18459
3.33864
3.55592
3.75598
3.92209
4.05999
4.17305
4.26161
4.32512
4.36323
4.37592
4.36323
4.32506
4.26135
4.17227
4.05843
3.92073
3.76002
3.5765
3.36906
3.13527
2.87387
2.58981
2.29454
1.99793
1.7008
1.42632
2.53221
4.08725
3.995
3.87227
3.78568
3.72005
3.65762
3.58235
3.48057
3.34145
3.16753
2.99543
2.8878
3.07042
3.22475
3.44218
3.6424
3.8084
3.94613
4.05925
4.14823
4.2124
4.25112
4.26406
4.25112
4.21234
4.14795
4.05843
3.94451
3.80697
3.64624
3.46191
3.25289
3.01994
2.76933
2.50964
2.2394
1.9413
1.6172
1.43696
3.91989
4.20303
4.11402
4.04945
4.00704
3.96915
3.92133
3.85413
3.75964
3.62995
3.4667
3.30258
3.19832
2.92877
3.08471
3.30378
3.50509
3.67131
3.80878
3.92162
4.01054
4.07488
4.11382
4.12685
4.11381
4.07481
4.01024
3.92073
3.80697
3.66945
3.50807
3.32248
3.11462
2.89197
2.66285
2.42117
2.13854
1.79242
1.42612
2.82311
4.30947
4.30904
4.26898
4.24861
4.23243
4.2065
4.16375
4.1003
4.0111
3.88911
3.73424
3.57528
3.47217
2.75591
2.91589
3.1394
3.34369
3.51111
3.64865
3.76114
3.8497
3.91382
3.95269
3.96571
3.95269
3.91375
3.84934
3.76002
3.64624
3.50807
3.34555
3.16131
2.96363
2.76111
2.54624
2.28575
1.94402
1.55094
1.50949
4.14483
4.44731
4.44184
4.44212
4.44497
4.43804
4.41581
4.37636
4.3176
4.23507
4.12175
3.97569
3.8219
3.71967
2.5456
2.71345
2.94585
3.15645
3.32707
3.46573
3.57829
3.66656
3.73037
3.76903
3.78199
3.76902
3.73024
3.66597
3.5765
3.46191
3.32248
3.16131
2.98723
2.80915
2.61922
2.38262
2.05798
1.65681
1.30015
3.32341
4.49859
4.56339
4.58207
4.598
4.60458
4.59928
4.58141
4.54927
4.49976
4.42793
4.32649
4.19174
4.04492
3.94451
2.29096
2.47099
2.71772
2.93932
3.11656
3.25848
3.37236
3.461
3.5248
3.56337
3.57627
3.56329
3.52442
3.4597
3.36906
3.25289
3.11462
2.96363
2.80915
2.64321
2.43053
2.12773
1.73529
1.34177
1.98863
4.3906
4.62673
4.66132
4.67596
4.67933
4.67808
4.67675
4.67317
4.66063
4.63191
4.58024
4.49787
4.37965
4.24336
4.14662
1.99127
2.18504
2.44889
2.68579
2.87405
3.02271
3.1403
3.23083
3.29551
3.33443
3.34737
3.33409
3.29439
3.22799
3.13527
3.01994
2.89197
2.76111
2.61922
2.43053
2.15115
1.77712
1.38396
1.36732
4.04034
4.62503
4.67221
4.64659
4.57924
4.50315
4.46684
4.49515
4.56566
4.63416
4.67166
4.66929
4.62402
4.53332
4.41398
4.32391
1.66156
1.86374
2.1386
2.38944
2.59146
2.75069
2.87536
2.97029
3.03752
3.07766
3.09077
3.07663
3.03488
2.96595
2.87387
2.76933
2.66285
2.54624
2.38262
2.12773
1.77712
1.39913
1.2329
3.55879
4.56647
4.61362
4.43619
3.97245
3.25058
2.61928
2.38591
2.60008
3.20846
3.92233
4.40403
4.61887
4.6762
4.64088
4.5511
4.47273
1.33232
1.53153
1.80023
2.05231
2.26334
2.43347
2.56758
2.66949
2.74126
2.78377
2.79722
2.78157
2.73754
2.66972
2.58981
2.50964
2.42117
2.28575
2.05798
1.73529
1.38396
1.2329
3.32833
4.50157
4.51684
3.97158
2.37783
1.16559
0.928264
0.900407
0.899826
0.899965
0.925757
1.14599
2.28724
3.92265
4.54582
4.67448
4.64483
4.58762
1.03855
1.2217
1.46242
1.69438
1.89892
2.07129
2.21123
2.31935
2.39598
2.44121
2.45513
2.43888
2.39779
2.34501
2.29454
2.2394
2.13854
1.94402
1.65681
1.34177
1.36732
3.55879
4.50157
4.4657
3.48736
1.30852
0.90522
0.936035
0.992197
1.03232
1.04653
1.0324
0.992505
0.936704
0.904832
1.28359
3.50046
4.53155
4.67451
4.65997
0.971789
0.982406
1.16219
1.3505
1.52903
1.68722
1.82093
1.92741
2.00431
2.05005
2.06479
2.05355
2.0305
2.01314
1.99793
1.9413
1.79242
1.55094
1.30015
1.98863
4.04034
4.56647
4.51684
3.48736
1.1213
0.91211
1.00019
1.09953
1.18063
1.23292
1.25098
1.23308
1.18112
1.10062
1.00198
0.914228
1.13996
3.63636
4.57787
4.67435
4.12406
2.51703
1.0216
1.06459
1.196
1.32322
1.43631
1.52947
1.59829
1.64016
1.65725
1.66198
1.67552
1.7026
1.7008
1.6172
1.42612
1.50949
3.32341
4.3906
4.62503
4.61362
3.97158
1.30852
0.91211
1.02509
1.16027
1.28228
1.37799
1.43887
1.45979
1.4391
1.3786
1.28352
1.16213
1.02677
0.913349
1.44226
4.10509
4.59694
4.53043
4.46972
3.82647
1.72145
1.00363
1.02491
1.10383
1.17457
1.22794
1.26208
1.28449
1.31694
1.37722
1.43777
1.42632
1.43696
2.82311
4.14483
4.49859
4.62673
4.67221
4.43619
2.37783
0.90522
1.00019
1.16027
1.3181
1.45636
1.56337
1.63084
1.65392
1.63111
1.56408
1.45775
1.32005
1.16155
0.998474
0.910734
2.70521
4.34251
4.37529
4.42334
4.46456
4.34112
3.71685
2.36951
1.32176
1.02338
0.96957
0.972543
1.00101
1.07164
1.18652
1.36029
2.53221
3.91989
4.30947
4.44731
4.56339
4.66132
4.64659
3.97245
1.16559
0.936035
1.09953
1.28228
1.45636
1.60672
1.72181
1.79374
1.81823
1.79403
1.72259
1.60824
1.45842
1.28339
1.09638
0.925865
1.31213
3.75377
4.14392
4.20452
4.29976
4.38621
4.4256
4.38477
4.22466
3.91418
3.40258
2.58392
1.7598
1.67556
2.57326
3.70814
4.08725
4.20303
4.30904
4.44184
4.58207
4.67596
4.57924
3.25058
0.928264
0.992197
1.18063
1.37799
1.56337
1.72181
1.84191
1.9164
1.94167
1.9167
1.84271
1.7234
1.56553
1.37905
1.17672
0.978486
0.95047
2.85013
3.87011
3.93346
4.041
4.15931
4.26138
4.33728
4.38574
4.40253
4.36246
4.17788
3.78303
3.65734
3.83575
3.91667
3.995
4.11402
4.26898
4.44212
4.598
4.67933
4.50315
2.61928
0.900407
1.03232
1.23292
1.43887
1.63084
1.79374
1.9164
1.99211
2.01772
1.99241
1.91722
1.79535
1.63305
1.43992
1.22865
1.01723
0.89108
2.12624
3.56228
3.62664
3.73953
3.87096
3.99289
4.09284
4.16874
4.21531
4.20128
4.03551
3.72909
3.61235
3.63737
3.73022
3.87227
4.04945
4.24861
4.44497
4.60458
4.67808
4.46684
2.38591
0.899826
1.04653
1.25098
1.45979
1.65392
1.81823
1.94167
2.01772
2.04342
2.01802
1.94248
1.81985
1.65615
1.46085
1.24663
1.03108
0.883879
1.88925
3.23667
3.30215
3.41772
3.55458
3.68503
3.79518
3.87972
3.92386
3.86736
3.59907
3.31182
3.29609
3.41474
3.58523
3.78568
4.00704
4.23243
4.43804
4.59928
4.67675
4.49515
2.60008
0.899965
1.0324
1.23308
1.4391
1.63111
1.79403
1.9167
1.99241
2.01802
1.99271
1.91752
1.79565
1.63335
1.4402
1.2289
1.01742
0.890869
2.12191
2.94841
3.01062
3.11913
3.24766
3.37259
3.4804
3.55948
3.57547
3.42555
3.06363
2.91043
3.03809
3.24567
3.47575
3.72005
3.96915
4.2065
4.41581
4.58141
4.67317
4.56566
3.20846
0.925757
0.992505
1.18112
1.3786
1.56408
1.72259
1.84271
1.91722
1.94248
1.91752
1.84353
1.7242
1.56631
1.37978
1.17737
0.978962
0.949099
2.84027
2.79333
2.83833
2.91686
3.01222
3.10976
3.19744
3.25486
3.22256
2.97055
2.60533
2.60179
2.83229
3.10617
3.38309
3.65762
3.92133
4.16375
4.37636
4.54927
4.66063
4.63416
3.92233
1.14599
0.936704
1.10062
1.28352
1.45775
1.60824
1.7234
1.79535
1.81985
1.79565
1.7242
1.60982
1.45994
1.2848
1.09761
0.92666
1.30358
3.74359
2.80627
2.82408
2.85754
2.90354
2.95823
3.01312
3.04262
2.96991
2.6528
2.29201
2.35538
2.64723
2.97407
3.288
3.58235
3.85413
4.1003
4.3176
4.49976
4.63191
4.67166
4.40403
2.28724
0.904832
1.00198
1.16213
1.32005
1.45842
1.56553
1.63305
1.65615
1.63335
1.56631
1.45994
1.32218
1.16355
1.00024
0.911228
2.68844
4.3384
2.89309
2.89349
2.89676
2.9071
2.92798
2.95671
2.97144
2.89547
2.5613
2.12333
2.14763
2.46096
2.82736
3.17093
3.48057
3.75964
4.0111
4.23507
4.42793
4.58024
4.66929
4.61887
3.92265
1.28359
0.914228
1.02677
1.16155
1.28339
1.37905
1.43992
1.46085
1.4402
1.37978
1.2848
1.16355
1.02839
0.915649
1.45217
4.11105
4.59881
2.95951
2.95604
2.95155
2.95077
2.95943
2.97979
2.99941
2.95948
2.68173
2.11562
1.97397
2.25862
2.64715
3.01609
3.34145
3.62995
3.88911
4.12175
4.32649
4.49787
4.62402
4.6762
4.54582
3.50046
1.13996
0.913349
0.998474
1.09638
1.17672
1.22865
1.24663
1.2289
1.17737
1.09761
1.00024
0.915649
1.18308
3.71432
4.5908
4.67727
2.98993
2.98754
2.98442
2.98429
2.99291
3.01538
3.04775
3.05385
2.88852
2.27848
1.84177
2.04174
2.43457
2.8254
3.16753
3.4667
3.73424
3.97569
4.19174
4.37965
4.53332
4.64088
4.67448
4.53155
3.63636
1.44226
0.910734
0.925865
0.978486
1.01723
1.03108
1.01742
0.978962
0.92666
0.911228
1.45217
3.71432
4.57097
4.67601
4.6515
2.99989
2.99877
2.99772
2.99978
3.01049
3.03643
3.07901
3.11777
3.05076
2.52677
1.76614
1.84355
2.23192
2.6393
2.99543
3.30258
3.57528
3.8219
4.04492
4.24336
4.41398
4.5511
4.64483
4.67451
4.57787
4.10509
2.70521
1.31213
0.95047
0.89108
0.883879
0.890869
0.949099
1.30358
2.68844
4.11105
4.5908
4.67601
4.6277
4.56082
3.00212
3.00159
3.00153
3.00469
3.01651
3.0443
3.09193
3.14614
3.12905
2.69954
1.74507
1.72216
2.10774
2.5241
2.8878
3.19832
3.47217
3.71967
3.94451
4.14662
4.32391
4.47273
4.58762
4.65997
4.67435
4.59694
4.34251
3.75377
2.85013
2.12624
1.88925
2.12191
2.84027
3.74359
4.3384
4.59881
4.67727
4.6515
4.56082
4.47621
