# vtk DataFile Version 3.0
Brusselator Concentration Output
ASCII
DATASET STRUCTURED_POINTS
DIMENSIONS 40 40 1
ORIGIN 0.0 0.0 0.0
SPACING 0.005 0.005 1.0
POINT_DATA 1600
SCALARS C1 double 1
LOOKUP_TABLE default
1.00011
0.999727
0.998653
0.99642
0.992758
0.988007
0.983197
0.979531
0.977582
0.976974
0.976903
0.976974
0.977582
0.979531
0.983197
0.988005
0.992753
0.996407
0.998623
0.999667
1.00002
1.00008
1.00006
1.00003
1.00001
1
1
1
1
1
1
1
1
1
1
1
1
1
1
1
0.999727
0.998857
0.996745
0.993029
0.987996
0.983013
0.980168
0.980998
0.985028
0.989577
0.99154
0.989577
0.985028
0.980998
0.980167
0.98301
0.987989
0.993012
0.996708
0.998803
0.999719
1.00001
1.00005
1.00004
1.00002
1.00001
1
1
1
1
1
1
1
1
1
1
1
1
1
1
0.998653
0.996745
0.992662
0.98672
0.980923
0.979318
0.986758
1.00563
1.03162
1.05405
1.06281
1.05405
1.03162
1.00563
0.986756
0.979314
0.980911
0.986694
0.992621
0.996737
0.998894
0.999759
1.00001
1.00004
1.00003
1.00001
1
1
1
1
1
1
1
1
1
1
1
1
1
1
0.99642
0.993029
0.98672
0.979922
0.978809
0.994028
1.03827
1.11438
1.19991
1.26169
1.2832
1.26169
1.19991
1.11438
1.03826
0.99402
0.978792
0.97989
0.9867
0.993177
0.99725
0.999167
0.999851
1.00002
1.00003
1.00002
1.00001
1
1
1
1
1
1
1
1
1
1
1
1
1
0.992758
0.987996
0.980923
0.978809
0.997581
1.06572
1.21103
1.39545
1.51568
1.55153
1.55492
1.55153
1.51568
1.39544
1.21102
1.06571
0.997556
0.978782
0.980979
0.988486
0.994662
0.998083
0.999502
0.99994
1.00003
1.00002
1.00001
1
1
1
1
1
1
1
1
1
1
1
1
1
0.988007
0.983013
0.979318
0.994028
1.06572
1.25583
1.52286
1.60659
1.50793
1.40374
1.36463
1.40374
1.50793
1.60659
1.52285
1.25581
1.06569
0.994026
0.979533
0.984077
0.991467
0.996508
0.998915
0.999775
0.999996
1.00002
1.00001
1.00001
1
1
1
1
1
1
1
1
1
1
1
1
0.983197
0.980168
0.986758
1.03827
1.21103
1.52286
1.59864
1.38191
1.16743
1.03636
0.993711
1.03636
1.16743
1.38191
1.59864
1.52284
1.211
1.03832
0.987222
0.982003
0.988462
0.994681
0.998131
0.999521
0.999936
1.00002
1.00002
1.00001
1
1
1
1
1
1
1
1
1
1
1
1
0.979531
0.980998
1.00563
1.11438
1.39545
1.60659
1.38191
1.08389
0.874929
0.762406
0.727792
0.762406
0.874929
1.08389
1.38191
1.60659
1.39544
1.11453
1.00641
0.983675
0.986477
0.99299
0.997291
0.999216
0.999853
1
1.00002
1.00001
1
1
1
1
1
1
1
1
1
1
1
1
0.977582
0.985028
1.03162
1.19991
1.51568
1.50793
1.16743
0.874929
0.695384
0.606287
0.58004
0.606287
0.695384
0.874928
1.16743
1.50794
1.51572
1.20017
1.03272
0.988449
0.985777
0.99175
0.996568
0.998926
0.999766
0.999984
1.00001
1.00001
1
1
1
1
1
1
1
1
1
1
1
1
0.976974
0.989577
1.05405
1.26169
1.55153
1.40374
1.03636
0.762406
0.606287
0.532846
0.511855
0.532846
0.606287
0.762405
1.03636
1.40375
1.5516
1.26205
1.05539
0.993503
0.985883
0.991056
0.996093
0.99872
0.999701
0.999968
1.00001
1.00001
1
1
1
1
1
1
1
1
1
1
1
1
0.976903
0.99154
1.06281
1.2832
1.55492
1.36463
0.993711
0.727792
0.58004
0.511855
0.492587
0.511855
0.58004
0.727791
0.99371
1.36464
1.555
1.28359
1.06425
0.995642
0.986036
0.990841
0.995929
0.998646
0.999677
0.999963
1.00001
1.00001
1
1
1
1
1
1
1
1
1
1
1
1
0.976974
0.989577
1.05405
1.26169
1.55153
1.40374
1.03636
0.762406
0.606287
0.532846
0.511855
0.532846
0.606287
0.762405
1.03636
1.40375
1.5516
1.26205
1.05539
0.993503
0.985883
0.991056
0.996093
0.99872
0.999701
0.999968
1.00001
1.00001
1
1
1
1
1
1
1
1
1
1
1
1
0.977582
0.985028
1.03162
1.19991
1.51568
1.50793
1.16743
0.874929
0.695384
0.606287
0.58004
0.606287
0.695384
0.874928
1.16743
1.50793
1.51571
1.20017
1.03272
0.988449
0.985777
0.99175
0.996568
0.998925
0.999766
0.999983
1.00001
1.00001
1
1
0.999999
0.999999
0.999999
0.999999
0.999999
0.999999
1
1
1
1
0.979531
0.980998
1.00563
1.11438
1.39544
1.60659
1.38191
1.08389
0.874928
0.762405
0.727791
0.762405
0.874928
1.08388
1.3819
1.60659
1.39544
1.11453
1.00641
0.983674
0.986477
0.99299
0.997291
0.999215
0.999852
1
1.00001
1.00001
1
0.999997
0.999997
0.999996
0.999997
0.999997
0.999997
0.999998
0.999999
0.999999
1
1
0.983197
0.980167
0.986756
1.03826
1.21102
1.52285
1.59864
1.38191
1.16743
1.03636
0.99371
1.03636
1.16743
1.3819
1.59863
1.52283
1.211
1.03832
0.987221
0.982002
0.988462
0.99468
0.99813
0.999519
0.999933
1.00001
1.00001
1
0.999996
0.999995
0.999994
0.999994
0.999994
0.999994
0.999994
0.999995
0.999996
0.999998
0.999999
0.999999
0.988005
0.98301
0.979314
0.99402
1.06571
1.25581
1.52284
1.60659
1.50794
1.40375
1.36464
1.40375
1.50793
1.60659
1.52283
1.25579
1.06568
0.994018
0.979528
0.984074
0.991465
0.996506
0.998911
0.999769
0.999988
1.00001
1.00001
1
1
1
1
1
0.999999
0.999995
0.999991
0.999991
0.999992
0.999994
0.999996
0.999997
0.992753
0.987989
0.980911
0.978792
0.997556
1.06569
1.211
1.39544
1.51572
1.5516
1.555
1.5516
1.51571
1.39544
1.211
1.06568
0.997531
0.978764
0.980967
0.988478
0.994656
0.998077
0.999493
0.999928
1.00001
1.00002
1.00002
1.00004
1.00006
1.00008
1.00009
1.00008
1.00006
1.00003
1.00001
0.999994
0.999987
0.999988
0.99999
0.999992
0.996407
0.993012
0.986694
0.97989
0.978782
0.994026
1.03832
1.11453
1.20017
1.26205
1.28359
1.26205
1.20017
1.11453
1.03832
0.994018
0.978764
0.979858
0.986674
0.993158
0.997235
0.999152
0.999834
1.00001
1.00004
1.00007
1.00013
1.00023
1.00033
1.0004
1.00043
1.0004
1.00033
1.00023
1.00013
1.00005
1
0.999985
0.999981
0.999982
0.998623
0.996708
0.992621
0.9867
0.980979
0.979533
0.987222
1.00641
1.03272
1.05539
1.06425
1.05539
1.03272
1.00641
0.987221
0.979528
0.980967
0.986674
0.992579
0.996698
0.998861
0.99973
0.999991
1.00007
1.00015
1.00032
1.00059
1.0009
1.00118
1.00137
1.00144
1.00137
1.00118
1.00089
1.00058
1.00031
1.00013
1.00002
0.999981
0.999969
0.999667
0.998803
0.996737
0.993177
0.988486
0.984077
0.982003
0.983675
0.988449
0.993503
0.995642
0.993503
0.988449
0.983674
0.982002
0.984074
0.988478
0.993158
0.996698
0.998746
0.999662
0.999977
1.00009
1.00026
1.0006
1.00116
1.00188
1.00261
1.0032
1.00356
1.00367
1.00356
1.0032
1.00261
1.00188
1.00115
1.00058
1.00022
1.00004
0.999971
1.00002
0.999719
0.998894
0.99725
0.994662
0.991467
0.988462
0.986477
0.985777
0.985883
0.986036
0.985883
0.985777
0.986477
0.988462
0.991465
0.994656
0.997235
0.998861
0.999662
0.999971
1.00011
1.00035
1.00088
1.00184
1.00318
1.00461
1.00574
1.00635
1.00653
1.00655
1.00653
1.00635
1.00574
1.00461
1.00317
1.00182
1.00084
1.00029
1.00006
1.00008
1.00001
0.999759
0.999167
0.998083
0.996508
0.994681
0.99299
0.99175
0.991056
0.990841
0.991056
0.99175
0.99299
0.99468
0.996506
0.998077
0.999152
0.99973
0.999977
1.00011
1.00038
1.00106
1.0024
1.00445
1.00671
1.00826
1.00832
1.00706
1.00553
1.00487
1.00553
1.00706
1.00832
1.00826
1.00671
1.00443
1.00238
1.00103
1.00041
1.00006
1.00005
1.00001
0.999851
0.999502
0.998915
0.998131
0.997291
0.996568
0.996093
0.995929
0.996093
0.996568
0.997291
0.99813
0.998911
0.999493
0.999834
0.999991
1.00009
1.00035
1.00106
1.00263
1.00524
1.0083
1.00999
1.00813
1.00213
0.994095
0.987471
0.984945
0.987471
0.994095
1.00213
1.00813
1.00998
1.00828
1.00522
1.00267
1.00135
1.00003
1.00004
1.00004
1.00002
0.99994
0.999775
0.999521
0.999216
0.998926
0.99872
0.998646
0.99872
0.998925
0.999215
0.999519
0.999769
0.999928
1.00001
1.00007
1.00026
1.00088
1.0024
1.00524
1.00888
1.01074
1.00639
0.992793
0.972169
0.951119
0.936115
0.930766
0.936115
0.951119
0.972167
0.992787
1.00638
1.01073
1.0089
1.00546
1.00326
1.00001
1.00002
1.00003
1.00003
1.00003
0.999996
0.999936
0.999853
0.999766
0.999701
0.999677
0.999701
0.999766
0.999852
0.999933
0.999988
1.00001
1.00004
1.00015
1.0006
1.00184
1.00445
1.0083
1.01074
1.00537
0.985164
0.949974
0.908998
0.873879
0.851608
0.84413
0.851608
0.873878
0.908995
0.949967
0.985153
1.00538
1.01087
1.00888
1.00628
1
1.00001
1.00001
1.00002
1.00002
1.00002
1.00002
1
0.999984
0.999968
0.999963
0.999968
0.999983
1
1.00001
1.00001
1.00002
1.00007
1.00032
1.00116
1.00318
1.00671
1.00999
1.00639
0.985164
0.940659
0.881371
0.824481
0.782752
0.75936
0.752052
0.75936
0.782751
0.824477
0.881364
0.940655
0.985217
1.0067
1.01115
1.0099
1
1
1
1.00001
1.00001
1.00001
1.00002
1.00002
1.00001
1.00001
1.00001
1.00001
1.00001
1.00001
1.00001
1.00001
1.00002
1.00013
1.00059
1.00188
1.00461
1.00826
1.00813
0.992793
0.949974
0.881371
0.806136
0.7452
0.707545
0.69009
0.685411
0.69009
0.707544
0.745196
0.806131
0.881381
0.950098
0.993371
1.01002
1.01289
1
1
1
1
1
1.00001
1.00001
1.00001
1.00001
1.00001
1.00001
1.00001
1.00001
1.00001
1
1
1.00004
1.00023
1.0009
1.00261
1.00574
1.00832
1.00213
0.972169
0.908998
0.824481
0.7452
0.69101
0.665343
0.659013
0.658898
0.659012
0.665341
0.691007
0.745197
0.824508
0.909204
0.973033
1.00472
1.01407
1
1
1
1
1
1
1
1
1
1
1
1
1
1
0.999996
1
1.00006
1.00033
1.00118
1.0032
1.00635
1.00706
0.994095
0.951119
0.873879
0.782752
0.707545
0.665343
0.655393
0.663622
0.669747
0.663621
0.655392
0.665339
0.707544
0.782796
0.874161
0.95223
0.997234
1.01337
1
1
1
1
1
1
1
1
1
1
1
1
1
0.999997
0.999995
1
1.00008
1.0004
1.00137
1.00356
1.00653
1.00553
0.987471
0.936115
0.851608
0.75936
0.69009
0.659013
0.663622
0.68654
0.699418
0.68654
0.66362
0.65901
0.690092
0.759418
0.851944
0.937387
0.990928
1.01199
1
1
1
1
1
1
1
1
1
1
1
1
0.999999
0.999997
0.999994
1
1.00009
1.00043
1.00144
1.00367
1.00655
1.00487
0.984945
0.930766
0.84413
0.752052
0.685411
0.658898
0.669747
0.699418
0.715551
0.699417
0.669746
0.658895
0.685413
0.752114
0.844484
0.932094
0.988503
1.01133
1
1
1
1
1
1
1
1
1
1
1
1
0.999999
0.999996
0.999994
1
1.00008
1.0004
1.00137
1.00356
1.00653
1.00553
0.987471
0.936115
0.851608
0.75936
0.69009
0.659012
0.663621
0.68654
0.699417
0.686539
0.66362
0.659009
0.690091
0.759417
0.851943
0.937387
0.990927
1.01199
1
1
1
1
1
1
1
1
1
1
1
1
0.999999
0.999997
0.999994
0.999999
1.00006
1.00033
1.00118
1.0032
1.00635
1.00706
0.994095
0.951119
0.873878
0.782751
0.707544
0.665341
0.655392
0.66362
0.669746
0.66362
0.65539
0.665338
0.707543
0.782795
0.87416
0.952229
0.997234
1.01337
1
1
1
1
1
1
1
1
1
1
1
1
0.999999
0.999997
0.999994
0.999995
1.00003
1.00023
1.00089
1.00261
1.00574
1.00832
1.00213
0.972167
0.908995
0.824477
0.745196
0.691007
0.665339
0.65901
0.658895
0.659009
0.665338
0.691003
0.745193
0.824505
0.909201
0.973031
1.00472
1.01407
1
1
1
1
1
1
1
1
1
1
1
1
0.999999
0.999997
0.999994
0.999991
1.00001
1.00013
1.00058
1.00188
1.00461
1.00826
1.00813
0.992787
0.949967
0.881364
0.806131
0.745197
0.707544
0.690092
0.685413
0.690091
0.707543
0.745193
0.806125
0.881374
0.950091
0.993366
1.01001
1.01289
1
1
1
1
1
1
1
1
1
1
1
1
0.999999
0.999998
0.999995
0.999991
0.999994
1.00005
1.00031
1.00115
1.00317
1.00671
1.00998
1.00638
0.985153
0.940655
0.881381
0.824508
0.782796
0.759418
0.752114
0.759417
0.782795
0.824505
0.881374
0.940651
0.985206
1.00669
1.01114
1.0099
1
1
1
1
1
1
1
1
1
1
1
1
1
0.999999
0.999996
0.999992
0.999987
1
1.00013
1.00058
1.00182
1.00443
1.00828
1.01073
1.00538
0.985217
0.950098
0.909204
0.874161
0.851944
0.844484
0.851943
0.87416
0.909201
0.950091
0.985206
1.00539
1.01086
1.00886
1.00626
1
1
1
1
1
1
1
1
1
1
1
1
1
0.999999
0.999998
0.999994
0.999988
0.999985
1.00002
1.00022
1.00084
1.00238
1.00522
1.0089
1.01087
1.0067
0.993371
0.973033
0.95223
0.937387
0.932094
0.937387
0.952229
0.973031
0.993366
1.00669
1.01086
1.00893
1.00544
1.00322
1
1
1
1
1
1
1
1
1
1
1
1
1
1
0.999999
0.999996
0.99999
0.999981
0.999981
1.00004
1.00029
1.00103
1.00267
1.00546
1.00888
1.01115
1.01002
1.00472
0.997234
0.990928
0.988503
0.990927
0.997234
1.00472
1.01001
1.01114
1.00886
1.00544
1.00271
1.00132
1
1
1
1
1
1
1
1
1
1
1
1
1
1
0.999999
0.999997
0.999992
0.999982
0.999969
0.999971
1.00006
1.00041
1.00135
1.00326
1.00628
1.0099
1.01289
1.01407
1.01337
1.01199
1.01133
1.01199
1.01337
1.01407
1.01289
1.0099
1.00626
1.00322
1.00132
1.00047
SCALARS C2 double 1
LOOKUP_TABLE default
2.99954
2.99976
3.00065
3.00304
3.00783
3.01532
3.02465
3.03393
3.04124
3.04562
3.04703
3.04562
3.04124
3.03393
3.02465
3.01532
3.00783
3.00306
3.00069
2.99986
2.99973
2.99981
2.9999
2.99996
2.99998
2.99999
3
3
3
3
3
3
3
3
3
3
3
3
3
3
2.99976
3.00059
3.00299
3.00815
3.01683
3.02835
3.04014
3.0489
3.05292
3.0534
3.0531
3.0534
3.05292
3.0489
3.04014
3.02835
3.01684
3.00817
3.00305
3.00071
2.99994
2.99982
2.99988
2.99994
2.99998
2.99999
3
3
3
3
3
3
3
3
3
3
3
3
3
3
3.00065
3.00299
3.00888
3.01968
3.035
3.05098
3.06047
3.05675
3.04008
3.02084
3.01246
3.02084
3.04008
3.05675
3.06047
3.05099
3.03502
3.01972
3.00897
3.00313
3.00069
2.99996
2.99986
2.99991
2.99996
2.99998
2.99999
3
3
3
3
3
3
3
3
3
3
3
3
3
3.00304
3.00815
3.01968
3.03788
3.0582
3.06812
3.04768
2.98075
2.88073
2.79382
2.76044
2.79382
2.88074
2.98075
3.04769
3.06813
3.05822
3.03794
3.01979
3.00822
3.00257
3.00047
2.99993
2.99989
2.99994
2.99997
2.99999
3
3
3
3
3
3
3
3
3
3
3
3
3
3.00783
3.01683
3.035
3.0582
3.07042
3.03431
2.89113
2.63038
2.37653
2.2339
2.19278
2.2339
2.37653
2.63038
2.89114
3.03433
3.07046
3.05828
3.0351
3.01663
3.00617
3.00167
3.00021
2.99991
2.99992
2.99996
2.99998
2.99999
3
3
3
3
3
3
3
3
3
3
3
3
3.01532
3.02835
3.05098
3.06812
3.03431
2.84512
2.42906
2.06695
1.95702
1.96258
1.97447
1.96258
1.95702
2.06695
2.42907
2.84515
3.03437
3.06821
3.05097
3.02756
3.01161
3.00375
3.00082
3.00002
2.99991
2.99995
2.99998
2.99999
3
3
3
3
3
3
3
3
3
3
3
3
3.02465
3.04014
3.06047
3.04768
2.89113
2.42906
1.98516
1.93714
2.0506
2.15792
2.19851
2.15792
2.0506
1.93715
1.98517
2.4291
2.89121
3.04775
3.06023
3.03841
3.01812
3.00661
3.00178
3.00026
2.99994
2.99994
2.99997
2.99999
3
3
3
3
3
3
3
3
3
3
3
3
3.03393
3.0489
3.05675
2.98075
2.63038
2.06695
1.93714
2.10682
2.31209
2.45636
2.50686
2.45636
2.31209
2.10682
1.93715
2.06698
2.63045
2.98074
3.05617
3.04601
3.02431
3.00973
3.00295
3.00059
3.00001
2.99994
2.99996
2.99999
3
3
3
3
3
3
3
3
3
3
3
3
3.04124
3.05292
3.04008
2.88073
2.37653
1.95702
2.0506
2.31209
2.55161
2.70812
2.76184
2.70812
2.55161
2.31209
2.0506
1.95704
2.37657
2.88062
3.03911
3.04888
3.02891
3.01245
3.00408
3.00095
3.00009
2.99995
2.99996
2.99998
2.99999
3
3
3
3
3
3
3
3
3
3
3
3.04562
3.0534
3.02084
2.79382
2.2339
1.96258
2.15792
2.45636
2.70812
2.86924
2.92453
2.86924
2.70812
2.45636
2.15792
1.96259
2.23391
2.79361
3.01955
3.04853
3.03149
3.01424
3.00488
3.00121
3.00015
2.99996
2.99996
2.99998
2.99999
3
3
3
3
3
3
3
3
3
3
3
3.04703
3.0531
3.01246
2.76044
2.19278
1.97447
2.19851
2.50686
2.76184
2.92453
2.98049
2.92453
2.76184
2.50686
2.19851
1.97448
2.19278
2.76019
3.01105
3.04793
3.03228
3.01486
3.00517
3.00131
3.00018
2.99996
2.99996
2.99998
2.99999
3
3
3
3
3
3
3
3
3
3
3
3.04562
3.0534
3.02084
2.79382
2.2339
1.96258
2.15792
2.45636
2.70812
2.86924
2.92453
2.86924
2.70812
2.45636
2.15792
1.96259
2.23391
2.79361
3.01955
3.04853
3.03149
3.01424
3.00488
3.00121
3.00015
2.99996
2.99996
2.99998
2.99999
3
3
3
3
3
3
3
3
3
3
3
3.04124
3.05292
3.04008
2.88074
2.37653
1.95702
2.0506
2.31209
2.55161
2.70812
2.76184
2.70812
2.55161
2.31209
2.0506
1.95704
2.37657
2.88062
3.03911
3.04888
3.02891
3.01245
3.00408
3.00095
3.00009
2.99995
2.99996
2.99998
3
3
3
3
3
3
3
3
3
3
3
3
3.03393
3.0489
3.05675
2.98075
2.63038
2.06695
1.93715
2.10682
2.31209
2.45636
2.50686
2.45636
2.31209
2.10682
1.93715
2.06698
2.63045
2.98074
3.05617
3.04601
3.02431
3.00973
3.00295
3.00059
3.00001
2.99994
2.99997
2.99999
3
3
3.00001
3.00001
3.00001
3
3
3
3
3
3
3
3.02465
3.04014
3.06047
3.04769
2.89114
2.42907
1.98517
1.93715
2.0506
2.15792
2.19851
2.15792
2.0506
1.93715
1.98518
2.42911
2.89122
3.04775
3.06023
3.03841
3.01812
3.00661
3.00178
3.00026
2.99995
2.99995
2.99998
3
3.00001
3.00001
3.00001
3.00001
3.00001
3.00001
3.00001
3.00001
3.00001
3
3
3
3.01532
3.02835
3.05099
3.06813
3.03433
2.84515
2.4291
2.06698
1.95704
1.96259
1.97448
1.96259
1.95704
2.06698
2.42911
2.84518
3.03439
3.06822
3.05097
3.02756
3.01161
3.00375
3.00082
3.00003
2.99993
2.99996
3
3.00002
3.00002
3.00002
3.00002
3.00002
3.00002
3.00002
3.00002
3.00002
3.00001
3.00001
3.00001
3
3.00783
3.01684
3.03502
3.05822
3.07046
3.03437
2.89121
2.63045
2.37657
2.23391
2.19278
2.23391
2.37657
2.63045
2.89122
3.03439
3.0705
3.05831
3.03511
3.01664
3.00618
3.00167
3.00022
2.99993
2.99995
2.99999
3.00002
3.00001
2.99999
2.99998
2.99997
2.99998
3
3.00002
3.00003
3.00004
3.00003
3.00002
3.00001
3.00001
3.00306
3.00817
3.01972
3.03794
3.05828
3.06821
3.04775
2.98074
2.88062
2.79361
2.76019
2.79361
2.88062
2.98074
3.04775
3.06822
3.05831
3.03801
3.01983
3.00825
3.00259
3.00049
2.99996
2.99993
2.99998
2.99999
2.99995
2.99986
2.99975
2.99967
2.99964
2.99967
2.99975
2.99986
2.99996
3.00002
3.00005
3.00004
3.00003
3.00003
3.00069
3.00305
3.00897
3.01979
3.0351
3.05097
3.06023
3.05617
3.03911
3.01955
3.01105
3.01955
3.03911
3.05617
3.06023
3.05097
3.03511
3.01983
3.00906
3.0032
3.00074
3.00001
2.99992
2.99996
2.99994
2.9998
2.99951
2.99912
2.99873
2.99843
2.99833
2.99843
2.99873
2.99912
2.99951
2.99981
2.99998
3.00005
3.00006
3.00006
2.99986
3.00071
3.00313
3.00822
3.01663
3.02756
3.03841
3.04601
3.04888
3.04853
3.04793
3.04853
3.04888
3.04601
3.03841
3.02756
3.01664
3.00825
3.0032
3.00084
3.00005
2.99991
2.99994
2.99986
2.99955
2.99889
2.99788
2.9967
2.9956
2.99485
2.99459
2.99485
2.99561
2.9967
2.99789
2.9989
2.99958
2.99993
3.00007
3.0001
2.99973
2.99994
3.00069
3.00257
3.00617
3.01161
3.01812
3.02431
3.02891
3.03149
3.03228
3.03149
3.02891
3.02431
3.01812
3.01161
3.00618
3.00259
3.00074
3.00005
2.99991
2.99992
2.99979
2.99927
2.99809
2.99609
2.99346
2.99075
2.98857
2.98727
2.98685
2.98727
2.98857
2.99075
2.99346
2.9961
2.99811
2.99932
2.9999
3.0001
2.99981
2.99982
2.99996
3.00047
3.00167
3.00375
3.00661
3.00973
3.01245
3.01424
3.01486
3.01424
3.01245
3.00973
3.00661
3.00375
3.00167
3.00049
3.00001
2.99991
2.99992
2.99976
2.99909
2.99739
2.99421
2.9896
2.98452
2.98048
2.97836
2.97779
2.97777
2.97779
2.97836
2.98048
2.98452
2.98961
2.99423
2.99744
2.99918
2.99987
2.9999
2.99988
2.99986
2.99993
3.00021
3.00082
3.00178
3.00295
3.00408
3.00488
3.00517
3.00488
3.00408
3.00295
3.00178
3.00082
3.00022
2.99996
2.99992
2.99994
2.99979
2.99909
2.99711
2.99298
2.98638
2.97868
2.97308
2.97245
2.97651
2.98166
2.98391
2.98166
2.97651
2.97245
2.97308
2.9787
2.98642
2.99304
2.99717
2.99898
2.99996
2.99994
2.99991
2.99989
2.99991
3.00002
3.00026
3.00059
3.00095
3.00121
3.00131
3.00121
3.00095
3.00059
3.00026
3.00003
2.99993
2.99993
2.99996
2.99986
2.99927
2.99739
2.99298
2.98513
2.97518
2.96844
2.9721
2.98876
3.0125
3.03262
3.04038
3.03262
3.0125
2.98876
2.97211
2.96846
2.97522
2.98518
2.9929
2.9967
2.99998
2.99998
2.99996
2.99994
2.99992
2.99991
2.99994
3.00001
3.00009
3.00015
3.00018
3.00015
3.00009
3.00001
2.99995
2.99993
2.99995
2.99998
2.99994
2.99955
2.99809
2.99421
2.98638
2.97518
2.96696
2.97428
3.007
3.06129
3.12001
3.1637
3.17961
3.1637
3.12002
3.06129
3.00702
2.97431
2.96701
2.97516
2.98595
2.9923
2.99999
2.99999
2.99998
2.99997
2.99996
2.99995
2.99994
2.99994
2.99995
2.99996
2.99996
2.99996
2.99995
2.99994
2.99995
2.99996
2.99999
2.99999
2.9998
2.99889
2.99609
2.9896
2.97868
2.96844
2.97428
3.01569
3.09821
3.20449
3.30507
3.37444
3.3988
3.37444
3.30507
3.2045
3.09823
3.01572
2.97429
2.96824
2.97756
2.98566
3
3
2.99999
2.99999
2.99998
2.99998
2.99997
2.99996
2.99996
2.99996
2.99996
2.99996
2.99996
2.99997
2.99998
3
3.00002
2.99995
2.99951
2.99788
2.99346
2.98452
2.97308
2.9721
3.007
3.09821
3.2391
3.3976
3.53595
3.62672
3.65776
3.62672
3.53595
3.3976
3.23911
3.09824
3.00696
2.97162
2.97094
2.97794
3
3
3
3
2.99999
2.99999
2.99999
2.99999
2.99998
2.99998
2.99998
2.99998
2.99998
2.99999
3
3.00002
3.00001
2.99986
2.99912
2.9967
2.99075
2.98048
2.97245
2.98876
3.06129
3.20449
3.3976
3.5979
3.76375
3.86831
3.90303
3.86831
3.76375
3.59791
3.39761
3.20451
3.06117
2.98791
2.96916
2.97118
3
3
3
3
3
3
3
3
2.99999
2.99999
2.99999
2.99999
3
3
3.00001
3.00002
2.99999
2.99975
2.99873
2.9956
2.98857
2.97836
2.97651
3.0125
3.12001
3.30507
3.53595
3.76375
3.94477
4.05345
4.08779
4.05345
3.94477
3.76376
3.53596
3.30508
3.11982
3.01131
2.97217
2.96693
3
3
3
3
3
3
3
3
3
3
3
3
3
3
3.00001
3.00002
2.99998
2.99967
2.99843
2.99485
2.98727
2.97779
2.98166
3.03262
3.1637
3.37444
3.62672
3.86831
4.05345
4.15748
4.18762
4.15748
4.05345
3.86832
3.62674
3.37443
3.16344
3.03119
2.97662
2.9651
3
3
3
3
3
3
3
3
3
3
3
3
3
3.00001
3.00001
3.00002
2.99997
2.99964
2.99833
2.99459
2.98685
2.97777
2.98391
3.04038
3.17961
3.3988
3.65776
3.90303
4.08779
4.18762
4.21484
4.18762
4.08779
3.90304
3.65778
3.3988
3.17934
3.03885
2.97864
2.96468
3
3
3
3
3
3
3
3
3
3
3
3
3
3.00001
3.00001
3.00002
2.99998
2.99967
2.99843
2.99485
2.98727
2.97779
2.98166
3.03262
3.1637
3.37444
3.62672
3.86831
4.05345
4.15748
4.18762
4.15748
4.05345
3.86832
3.62674
3.37443
3.16345
3.03119
2.97662
2.9651
3
3
3
3
3
3
3
3
3
3
3
3
3
3.00001
3.00001
3.00002
3
2.99975
2.99873
2.99561
2.98857
2.97836
2.97651
3.0125
3.12002
3.30507
3.53595
3.76375
3.94477
4.05345
4.08779
4.05345
3.94478
3.76376
3.53596
3.30508
3.11982
3.01131
2.97217
2.96693
3
3
3
3
3
3
3
3
3
3
3
3
3
3
3.00001
3.00002
3.00002
2.99986
2.99912
2.9967
2.99075
2.98048
2.97245
2.98876
3.06129
3.2045
3.3976
3.59791
3.76376
3.86832
3.90304
3.86832
3.76376
3.59791
3.39762
3.20451
3.06117
2.98792
2.96916
2.97119
3
3
3
3
3
3
3
3
3
3
3
3
3
3
3.00001
3.00002
3.00003
2.99996
2.99951
2.99789
2.99346
2.98452
2.97308
2.97211
3.00702
3.09823
3.23911
3.39761
3.53596
3.62674
3.65778
3.62674
3.53596
3.39762
3.23913
3.09826
3.00698
2.97162
2.97095
2.97794
3
3
3
3
3
3
3
3
3
3
3
3
3
3
3.00001
3.00002
3.00004
3.00002
2.99981
2.9989
2.9961
2.98961
2.9787
2.96846
2.97431
3.01572
3.09824
3.20451
3.30508
3.37443
3.3988
3.37443
3.30508
3.20451
3.09826
3.01576
2.97432
2.96827
2.97758
2.98567
3
3
3
3
3
3
3
3
3
3
3
3
3
3
3.00001
3.00001
3.00003
3.00005
2.99998
2.99958
2.99811
2.99423
2.98642
2.97522
2.96701
2.97429
3.00696
3.06117
3.11982
3.16344
3.17934
3.16345
3.11982
3.06117
3.00698
2.97432
2.96705
2.9752
2.98598
2.99233
3
3
3
3
3
3
3
3
3
3
3
3
3
3
3
3.00001
3.00002
3.00004
3.00005
2.99993
2.99932
2.99744
2.99304
2.98518
2.97516
2.96824
2.97162
2.98791
3.01131
3.03119
3.03885
3.03119
3.01131
2.98792
2.97162
2.96827
2.9752
2.98523
2.99296
2.99676
3
3
3
3
3
3
3
3
3
3
3
3
3
3
3
3.00001
3.00001
3.00003
3.00006
3.00007
2.9999
2.99918
2.99717
2.9929
2.98595
2.97756
2.97094
2.96916
2.97217
2.97662
2.97864
2.97662
2.97217
2.96916
2.97095
2.97758
2.98598
2.99296
2.99723
2.99908
3
3
3
3
3
3
3
3
3
3
3
3
3
3
3
3
3.00001
3.00003
3.00006
3.0001
3.0001
2.99987
2.99898
2.9967
2.9923
2.98566
2.97794
2.97118
2.96693
2.9651
2.96468
2.9651
2.96693
2.97119
2.97794
2.98567
2.99233
2.99676
2.99908
2.99998
