# vtk DataFile Version 3.0
Brusselator Concentration Output
ASCII
DATASET STRUCTURED_POINTS
DIMENSIONS 40 40 1
ORIGIN 0.0 0.0 0.0
SPACING 0.005 0.005 1.0
POINT_DATA 1600
SCALARS C1 double 1
LOOKUP_TABLE default
0.703332
0.661184
0.60286
0.558483
0.539371
0.543834
0.569634
0.616615
0.678477
0.735217
0.758844
0.735219
0.678464
0.616533
0.569333
0.542909
0.536945
0.553657
0.598812
0.677085
0.782891
0.893097
0.975952
1.01539
1.0217
1.01485
1.00738
1.00286
1.00083
1.00013
0.99996
0.999953
0.999974
0.999989
0.999996
0.999999
1
1
1
1
0.661184
0.639581
0.60869
0.588915
0.597032
0.654366
0.806606
1.09748
1.47534
1.81388
1.94998
1.81387
1.47525
1.09714
0.805779
0.652771
0.594116
0.584948
0.60974
0.666943
0.752849
0.852199
0.939493
0.99384
1.01385
1.01388
1.00827
1.00369
1.00127
1.0003
1.00001
0.999965
0.999974
0.999988
0.999995
0.999999
1
1
1
1
0.60286
0.60869
0.621362
0.658734
0.792301
1.24592
2.30834
3.17481
3.09073
2.90996
2.84346
2.90993
3.09064
3.17432
2.30481
1.24058
0.787346
0.656547
0.631241
0.652422
0.708595
0.791068
0.881706
0.955838
0.997551
1.0105
1.00927
1.00506
1.00207
1.00064
1.00013
0.999992
0.999977
0.999986
0.999994
0.999998
0.999999
1
1
1
0.558483
0.588915
0.658734
0.8644
1.71089
3.20313
2.88817
2.48748
2.23108
2.08335
2.03493
2.08333
2.23104
2.48743
2.88847
3.20154
1.69792
0.865344
0.68029
0.648041
0.671541
0.733752
0.821091
0.909557
0.973288
1.00301
1.00915
1.00648
1.0031
1.00113
1.0003
1.00004
0.999984
0.999985
0.999993
0.999997
0.999999
1
1
1
0.539371
0.597032
0.792301
1.71089
3.24816
2.68518
2.23068
1.89452
1.66973
1.54143
1.49977
1.54141
1.6697
1.89452
2.23111
2.68776
3.2575
1.72645
0.834542
0.672155
0.654519
0.693166
0.769766
0.863182
0.943761
0.990891
1.00697
1.00741
1.00416
1.0017
1.00053
1.00011
0.999999
0.999986
0.999992
0.999997
0.999999
1
1
1
0.543834
0.654366
1.24592
3.20313
2.68518
2.14726
1.7382
1.44899
1.25865
1.15138
1.11684
1.15137
1.25864
1.44903
1.73871
2.15012
2.69705
3.23302
1.35255
0.75558
0.661265
0.67136
0.7322
0.8226
0.913052
0.975335
1.00248
1.00749
1.00505
1.0023
1.00079
1.0002
1.00002
0.99999
0.999992
0.999997
1
1
1
1
0.569634
0.806606
2.30834
2.88817
2.23068
1.7382
1.37974
1.13081
0.970926
0.882912
0.854972
0.882904
0.970917
1.13087
1.38031
1.74107
2.24065
2.91075
2.53738
0.966219
0.69419
0.66549
0.708012
0.790704
0.885003
0.958646
0.996327
1.00666
1.00565
1.00285
1.00106
1.0003
1.00005
0.999996
0.999994
0.999998
1
1
1
1
0.616615
1.09748
3.17481
2.48748
1.89452
1.44899
1.13081
0.915867
0.782308
0.710898
0.688607
0.710892
0.782304
0.915947
1.13142
1.4518
1.90371
2.51356
3.22811
1.36871
0.756604
0.671334
0.694582
0.767934
0.862177
0.943272
0.98968
1.00522
1.00593
1.00328
1.0013
1.00039
1.00008
1
0.999995
1
1
1.00001
1.00001
1.00001
0.678477
1.47534
3.09073
2.23108
1.66973
1.25865
0.970926
0.782308
0.668893
0.609876
0.591731
0.609872
0.668893
0.782396
0.971546
1.26141
1.67848
2.25204
3.05737
1.89385
0.841722
0.683671
0.68854
0.753296
0.845753
0.931131
0.983832
1.00364
1.00596
1.00355
1.00147
1.00044
1.00008
0.999988
0.999983
0.999995
1
1.00001
1.00001
1.00001
0.735217
1.81388
2.90996
2.08335
1.54143
1.15138
0.882912
0.710898
0.609876
0.55829
0.542594
0.558287
0.609879
0.71099
0.883532
1.1541
1.54985
2.10071
2.87238
2.32604
0.921043
0.695755
0.686593
0.745315
0.835967
0.923407
0.979812
1.00236
1.0058
1.0036
1.00146
1.00037
0.999984
0.9999
0.999914
0.999948
0.999979
1
1.00002
1.00002
0.758844
1.94998
2.84346
2.03493
1.49977
1.11684
0.854972
0.688607
0.591731
0.542594
0.527699
0.542591
0.591734
0.6887
0.855592
1.11954
1.50807
2.05116
2.80827
2.47927
0.953989
0.700786
0.686245
0.742767
0.832648
0.920625
0.978184
1.00162
1.00542
1.00329
1.00112
1.00002
0.999646
0.999602
0.999671
0.999767
0.999858
0.999933
0.999985
1.00001
0.735219
1.81387
2.90993
2.08333
1.54141
1.15137
0.882904
0.710892
0.609872
0.558287
0.542591
0.558283
0.609874
0.710984
0.883525
1.15409
1.54983
2.10069
2.87235
2.32604
0.921045
0.69573
0.686511
0.745116
0.835581
0.92279
0.978968
1.00133
1.00465
1.00239
1.00022
0.99916
0.998841
0.99887
0.999039
0.999256
0.99948
0.999678
0.999825
0.999904
0.678464
1.47525
3.09064
2.23104
1.6697
1.25864
0.970917
0.782304
0.668893
0.609879
0.591734
0.609874
0.668893
0.782393
0.971537
1.26139
1.67845
2.252
3.05727
1.89372
0.841654
0.683535
0.688224
0.75265
0.844636
0.929499
0.981752
1.00125
1.0034
1.00092
0.998819
0.997818
0.997526
0.997581
0.997818
0.998167
0.998578
0.998985
0.999314
0.999497
0.616533
1.09714
3.17432
2.48743
1.89452
1.44903
1.13087
0.915947
0.782396
0.71099
0.6887
0.710984
0.782393
0.916027
1.13148
1.45184
1.90372
2.5135
3.2277
1.36811
0.756275
0.670839
0.693659
0.766334
0.85979
0.940229
0.986281
1.00179
1.00267
1.00022
0.998334
0.997334
0.996806
0.996508
0.996419
0.996583
0.996993
0.997546
0.998071
0.998389
0.569333
0.805779
2.30481
2.88847
2.23111
1.73871
1.38031
1.13142
0.971546
0.883532
0.855592
0.883525
0.971537
1.13148
1.38089
1.74158
2.24107
2.91098
2.53357
0.964737
0.693171
0.664104
0.705861
0.787663
0.881447
0.955371
0.994187
1.00624
1.00703
1.00559
1.0043
1.00302
1.00137
0.999415
0.997538
0.996148
0.995471
0.995442
0.995758
0.996043
0.542909
0.652771
1.24058
3.20154
2.68776
2.15012
1.74107
1.4518
1.26141
1.1541
1.11954
1.15409
1.26139
1.45184
1.74158
2.15296
2.69959
3.23145
1.34601
0.752777
0.658719
0.668208
0.728364
0.819027
0.911827
0.978933
1.01279
1.02518
1.02937
1.03119
1.03128
1.029
1.02412
1.01729
1.00974
1.00285
0.997638
0.994423
0.992862
0.992316
0.536945
0.594116
0.787346
1.69792
3.2575
2.69705
2.24065
1.90371
1.67848
1.54985
1.50807
1.54983
1.67845
1.90372
2.24107
2.69959
3.26653
1.71276
0.828417
0.667344
0.649282
0.687584
0.765813
0.865448
0.958576
1.02386
1.06083
1.08125
1.09401
1.1017
1.10393
1.09991
1.08939
1.07303
1.05284
1.03201
1.01391
1.00063
0.992538
0.988868
0.553657
0.584948
0.656547
0.865344
1.72645
3.23302
2.91075
2.51356
2.25204
2.10071
2.05116
2.10069
2.252
2.5135
2.91098
3.23145
1.71276
0.865638
0.677006
0.641997
0.663815
0.728063
0.826081
0.938705
1.04012
1.11423
1.16134
1.18886
1.20337
1.2097
1.21108
1.20837
1.19966
1.18131
1.15073
1.10996
1.06648
1.02936
1.00417
0.991963
0.598812
0.60974
0.631241
0.68029
0.834542
1.35255
2.53738
3.22811
3.05737
2.87238
2.80827
2.87235
3.05727
3.2277
2.53357
1.34601
0.828417
0.677006
0.640351
0.653258
0.706423
0.799139
0.923975
1.05909
1.17259
1.24026
1.25964
1.24666
1.22199
1.20141
1.19348
1.20059
1.21957
1.24113
1.2499
1.22966
1.1764
1.10736
1.04897
1.01767
0.677085
0.666943
0.652422
0.648041
0.672155
0.75558
0.966219
1.36871
1.89385
2.32604
2.47927
2.32604
1.89372
1.36811
0.964737
0.752777
0.667344
0.641997
0.653258
0.69947
0.785855
0.915758
1.07539
1.21583
1.27622
1.2459
1.16591
1.07983
1.01138
0.969094
0.954858
0.968678
1.01006
1.07656
1.15939
1.23659
1.27126
1.23637
1.15849
1.10033
0.782891
0.752849
0.708595
0.671541
0.654519
0.661265
0.69419
0.756604
0.841722
0.921043
0.953989
0.921045
0.841654
0.756275
0.693171
0.658719
0.649282
0.663815
0.706423
0.785855
0.913232
1.0844
1.23581
1.26732
1.17378
1.03188
0.90056
0.801473
0.736086
0.699718
0.688087
0.699544
0.73549
0.79984
0.89699
1.02656
1.17234
1.28777
1.31568
1.28347
0.893097
0.852199
0.791068
0.733752
0.693166
0.67136
0.66549
0.671334
0.683671
0.695755
0.700786
0.69573
0.683535
0.670839
0.664104
0.668208
0.687584
0.728063
0.799139
0.915758
1.0844
1.2404
1.24907
1.10772
0.924634
0.769192
0.659377
0.58934
0.548066
0.526718
0.52014
0.526652
0.54783
0.588676
0.657953
0.767675
0.929064
1.13962
1.3559
1.48739
0.975952
0.939493
0.881706
0.821091
0.769766
0.7322
0.708012
0.694582
0.68854
0.686593
0.686245
0.686511
0.688224
0.693659
0.705861
0.728364
0.765813
0.826081
0.923975
1.07539
1.23581
1.24907
1.08285
0.869892
0.697025
0.582379
0.514082
0.475843
0.455564
0.445905
0.443068
0.445877
0.455471
0.475613
0.513784
0.583284
0.705771
0.908176
1.18899
1.42982
1.01539
0.99384
0.955838
0.909557
0.863182
0.8226
0.790704
0.767934
0.753296
0.745315
0.742767
0.745116
0.75265
0.766334
0.787663
0.819027
0.865448
0.938705
1.05909
1.21583
1.26732
1.10772
0.869892
0.674615
0.549951
0.480518
0.444983
0.428146
0.420959
0.418358
0.417756
0.418344
0.420918
0.428086
0.44514
0.482375
0.559834
0.710251
0.945089
1.15023
1.0217
1.01385
0.997551
0.973288
0.943761
0.913052
0.885003
0.862177
0.845753
0.835967
0.832648
0.835581
0.844636
0.85979
0.881447
0.911827
0.958576
1.04012
1.17259
1.27622
1.17378
0.924634
0.697025
0.549951
0.471096
0.433879
0.418922
0.414987
0.415766
0.417589
0.418419
0.41758
0.415746
0.414994
0.419242
0.435916
0.47998
0.577071
0.73555
0.869376
1.01485
1.01388
1.0105
1.00301
0.990891
0.975335
0.958646
0.943272
0.931131
0.923407
0.920625
0.92279
0.929499
0.940229
0.955371
0.978933
1.02386
1.11423
1.24026
1.2459
1.03188
0.769192
0.582379
0.480518
0.433879
0.41686
0.414585
0.419032
0.425472
0.430724
0.432722
0.430717
0.425462
0.41907
0.414968
0.418813
0.441161
0.498631
0.592817
0.668191
1.00738
1.00827
1.00927
1.00915
1.00697
1.00248
0.996327
0.98968
0.983832
0.979812
0.978184
0.978968
0.981752
0.986281
0.994187
1.01279
1.06083
1.16134
1.25964
1.16591
0.90056
0.659377
0.514082
0.444983
0.418922
0.414585
0.420857
0.431733
0.443167
0.45179
0.455003
0.451785
0.443163
0.431791
0.421272
0.416415
0.42478
0.4562
0.507486
0.545471
1.00286
1.00369
1.00506
1.00648
1.00741
1.00749
1.00666
1.00522
1.00364
1.00236
1.00162
1.00133
1.00125
1.00179
1.00624
1.02518
1.08125
1.18886
1.24666
1.07983
0.801473
0.58934
0.475843
0.428146
0.414987
0.419032
0.431733
0.448271
0.464742
0.477092
0.481711
0.477087
0.464742
0.448344
0.432174
0.420768
0.419809
0.434814
0.460254
0.476956
1.00083
1.00127
1.00207
1.0031
1.00416
1.00505
1.00565
1.00593
1.00596
1.0058
1.00542
1.00465
1.0034
1.00267
1.00703
1.02937
1.09401
1.20337
1.22199
1.01138
0.736086
0.548066
0.455564
0.420959
0.415766
0.425472
0.443167
0.464742
0.486174
0.50245
0.508602
0.502445
0.486177
0.464828
0.443634
0.427155
0.41992
0.424893
0.435619
0.44093
1.00013
1.0003
1.00064
1.00113
1.0017
1.0023
1.00285
1.00328
1.00355
1.0036
1.00329
1.00239
1.00092
1.00022
1.00559
1.03119
1.1017
1.2097
1.20141
0.969094
0.699718
0.526718
0.445905
0.418358
0.417589
0.430724
0.45179
0.477092
0.50245
0.521977
0.529427
0.521972
0.502455
0.477187
0.452276
0.432383
0.421378
0.420856
0.42405
0.423827
0.99996
1.00001
1.00013
1.0003
1.00053
1.00079
1.00106
1.0013
1.00147
1.00146
1.00112
1.00022
0.998819
0.998334
1.0043
1.03128
1.10393
1.21108
1.19348
0.954858
0.688087
0.52014
0.443068
0.417756
0.418419
0.432722
0.455003
0.481711
0.508602
0.529427
0.537403
0.529422
0.508607
0.481809
0.455496
0.434375
0.422091
0.419806
0.420679
0.418801
0.999953
0.999965
0.999992
1.00004
1.00011
1.0002
1.0003
1.00039
1.00044
1.00037
1.00002
0.99916
0.997818
0.997334
1.00302
1.029
1.09991
1.20837
1.20059
0.968678
0.699544
0.526652
0.445877
0.418344
0.41758
0.430717
0.451785
0.477087
0.502445
0.521972
0.529422
0.521967
0.50245
0.477182
0.45227
0.432376
0.421367
0.420838
0.424023
0.423796
0.999974
0.999974
0.999977
0.999984
0.999999
1.00002
1.00005
1.00008
1.00008
0.999984
0.999646
0.998841
0.997526
0.996806
1.00137
1.02412
1.08939
1.19966
1.21957
1.01006
0.73549
0.54783
0.455471
0.420918
0.415746
0.425462
0.443163
0.464742
0.486177
0.502455
0.508607
0.50245
0.48618
0.464828
0.443629
0.427143
0.419896
0.424845
0.435541
0.440834
0.999989
0.999988
0.999986
0.999985
0.999986
0.99999
0.999996
1
0.999988
0.9999
0.999602
0.99887
0.997581
0.996508
0.999415
1.01729
1.07303
1.18131
1.24113
1.07656
0.79984
0.588676
0.475613
0.428086
0.414994
0.41907
0.431791
0.448344
0.464828
0.477187
0.481809
0.477182
0.464828
0.448417
0.432231
0.420803
0.419808
0.434749
0.460102
0.476744
0.999996
0.999995
0.999994
0.999993
0.999992
0.999992
0.999994
0.999995
0.999983
0.999914
0.999671
0.999039
0.997818
0.996419
0.997538
1.00974
1.05284
1.15073
1.2499
1.15939
0.89699
0.657953
0.513784
0.44514
0.419242
0.414968
0.421272
0.432174
0.443634
0.452276
0.455496
0.45227
0.443629
0.432231
0.421686
0.416796
0.425106
0.456412
0.507506
0.545326
0.999999
0.999999
0.999998
0.999997
0.999997
0.999997
0.999998
1
0.999995
0.999948
0.999767
0.999256
0.998167
0.996583
0.996148
1.00285
1.03201
1.10996
1.22966
1.23659
1.02656
0.767675
0.583284
0.482375
0.435916
0.418813
0.416415
0.420768
0.427155
0.432383
0.434375
0.432376
0.427143
0.420803
0.416796
0.420785
0.443305
0.50088
0.594923
0.670005
1
1
0.999999
0.999999
0.999999
1
1
1
1
0.999979
0.999858
0.99948
0.998578
0.996993
0.995471
0.997638
1.01391
1.06648
1.1764
1.27126
1.17234
0.929064
0.705771
0.559834
0.47998
0.441161
0.42478
0.419809
0.41992
0.421378
0.422091
0.421367
0.419896
0.419808
0.425106
0.443305
0.489381
0.588617
0.748295
0.882045
1
1
1
1
1
1
1
1.00001
1.00001
1
0.999933
0.999678
0.998985
0.997546
0.995442
0.994423
1.00063
1.02936
1.10736
1.23637
1.28777
1.13962
0.908176
0.710251
0.577071
0.498631
0.4562
0.434814
0.424893
0.420856
0.419806
0.420838
0.424845
0.434749
0.456412
0.50088
0.588617
0.750814
0.99381
1.20113
1
1
1
1
1
1
1
1.00001
1.00001
1.00002
0.999985
0.999825
0.999314
0.998071
0.995758
0.992862
0.992538
1.00417
1.04897
1.15849
1.31568
1.3559
1.18899
0.945089
0.73555
0.592817
0.507486
0.460254
0.435619
0.42405
0.420679
0.424023
0.435541
0.460102
0.507506
0.594923
0.748295
0.99381
1.31564
1.57587
1
1
1
1
1
1
1
1.00001
1.00001
1.00002
1.00001
0.999904
0.999497
0.998389
0.996043
0.992316
0.988868
0.991963
1.01767
1.10033
1.28347
1.48739
1.42982
1.15023
0.869376
0.668191
0.545471
0.476956
0.44093
0.423827
0.418801
0.423796
0.440834
0.476744
0.545326
0.670005
0.882045
1.20113
1.57587
1.81779
SCALARS C2 double 1
LOOKUP_TABLE default
3.17831
3.34124
3.58488
3.82355
4.02484
4.18484
4.30267
4.37648
4.40814
4.41098
4.40781
4.41098
4.40813
4.37649
4.30275
4.18537
4.02757
3.83435
3.61435
3.38449
3.17443
3.02092
2.94569
2.93589
2.956
2.97769
2.99118
2.99739
2.9996
3.00014
3.00016
3.00009
3.00004
3.00001
3
3
3
3
3
3
3.34124
3.48835
3.71501
3.94073
4.12516
4.24924
4.27504
4.12723
3.78397
3.40411
3.23984
3.4041
3.78403
4.1275
4.27563
4.25065
4.12929
3.9527
3.74054
3.51116
3.2904
3.11087
2.99888
2.95623
2.95826
2.97467
2.98843
2.99592
2.999
2.99995
3.00012
3.00009
3.00004
3.00002
3.00001
3
3
3
3
3
3.58488
3.71501
3.91334
4.09652
4.18399
3.9503
2.80944
1.42693
1.07545
1.03837
1.0398
1.03838
1.07552
1.42767
2.81398
3.95654
4.19145
4.10882
3.92986
3.70838
3.47381
3.25756
3.09232
2.99794
2.96708
2.97123
2.98388
2.99321
2.99783
2.99955
3.00002
3.00008
3.00005
3.00002
3.00001
3
3
3
3
3
3.82355
3.94073
4.09652
4.1462
3.5178
1.45211
1.03222
1.10729
1.19812
1.26094
1.28314
1.26095
1.19814
1.10734
1.03247
1.45965
3.53796
4.15641
4.09859
3.9059
3.66702
3.42176
3.20819
3.0597
2.98727
2.97121
2.9792
2.98973
2.99615
2.99894
2.99985
3.00005
3.00005
3.00003
3.00001
3
3
3
3
3
4.02484
4.12516
4.18399
3.5178
1.21787
1.05406
1.19663
1.34852
1.47424
1.55622
1.58463
1.55623
1.47426
1.34854
1.19654
1.05357
1.2219
3.51377
4.15961
4.06078
3.83689
3.57808
3.33045
3.13574
3.0202
2.9776
2.97619
2.98618
2.99415
2.99812
2.9996
3
3.00005
3.00003
3.00001
3
3
3
3
3
4.18484
4.24924
3.9503
1.45211
1.05406
1.22992
1.43331
1.62029
1.76856
1.86311
1.89552
1.86312
1.76858
1.62029
1.43313
1.22892
1.05042
1.42606
3.84682
4.14291
3.97014
3.71382
3.44657
3.2171
3.06265
2.99094
2.97606
2.98323
2.99208
2.99718
2.99927
2.99991
3.00004
3.00003
3.00002
3
3
3
3
3
4.30267
4.27504
2.80944
1.03222
1.19663
1.43331
1.6717
1.88247
2.04496
2.14649
2.18092
2.1465
2.04498
1.88247
1.67144
1.43199
1.19241
1.02198
2.52064
4.09045
4.05976
3.82269
3.5476
3.29451
3.10855
3.00921
2.97889
2.98132
2.9902
2.9962
2.9989
2.9998
3.00001
3.00003
3.00001
3
3
3
3
3
4.37648
4.12723
1.42693
1.10729
1.34852
1.62029
1.88247
2.1074
2.27652
2.38048
2.41547
2.38049
2.27654
2.10739
1.88217
1.61874
1.34393
1.09675
1.27352
3.78724
4.10051
3.90224
3.62804
3.36048
3.1513
3.02886
2.98369
2.98051
2.98871
2.99532
2.99854
2.99969
2.99998
3.00002
3.00001
3
2.99999
2.99999
2.99999
2.99999
4.40814
3.78397
1.07545
1.19812
1.47424
1.76856
2.04496
2.27652
2.44763
2.55183
2.58678
2.55184
2.44765
2.27652
2.04464
1.76686
1.46928
1.18752
1.03782
3.22415
4.0947
3.95353
3.6854
3.41009
3.18548
3.04605
2.98884
2.98048
2.9877
2.99465
2.99825
2.9996
2.99997
3.00002
3
2.99999
2.99998
2.99998
2.99998
2.99998
4.41098
3.40411
1.03837
1.26094
1.55622
1.86311
2.14649
2.38048
2.55183
2.6558
2.69064
2.6558
2.55185
2.38048
2.14616
1.86134
1.55104
1.25064
1.02616
2.68651
4.06447
3.98074
3.71937
3.44062
3.20736
3.05771
2.99277
2.98081
2.98722
2.99433
2.99817
2.99965
3.00005
3.00009
3.00005
3.00001
2.99998
2.99997
2.99996
2.99995
4.40781
3.23984
1.0398
1.28314
1.58463
1.89552
2.18092
2.41547
2.58678
2.69064
2.72545
2.69065
2.5868
2.41547
2.18059
1.89372
1.57937
1.27297
1.03212
2.48174
4.04766
3.989
3.73057
3.45092
3.21494
3.06197
2.99446
2.98129
2.98746
2.99465
2.99858
3.00008
3.00046
3.00043
3.00031
3.00018
3.00008
3
2.99995
2.99993
4.41098
3.4041
1.03838
1.26095
1.55623
1.86312
2.1465
2.38049
2.55184
2.6558
2.69065
2.65581
2.55186
2.38049
2.14617
1.86135
1.55105
1.25065
1.02617
2.68647
4.06444
3.98072
3.71939
3.44076
3.20775
3.05844
2.99387
2.98222
2.98887
2.99612
3
3.00143
3.00168
3.0015
3.00117
3.00082
3.0005
3.00024
3.00005
2.99996
4.40813
3.78403
1.07552
1.19814
1.47426
1.76858
2.04498
2.27654
2.44765
2.55185
2.5868
2.55186
2.44766
2.27653
2.04466
1.76688
1.4693
1.18754
1.03787
3.22423
4.0947
3.95356
3.68561
3.41074
3.1869
3.04841
2.9921
2.98447
2.99219
2.99943
3.00312
3.00437
3.00444
3.00401
3.00334
3.00257
3.00179
3.0011
3.00058
3.00031
4.37649
4.1275
1.42767
1.10734
1.34854
1.62029
1.88247
2.10739
2.27652
2.38048
2.41547
2.38049
2.27653
2.10739
1.88217
1.61874
1.34395
1.0968
1.27411
3.78777
4.10068
3.90257
3.62898
3.36267
3.15523
3.0346
2.99092
2.98874
2.99748
3.00433
3.00761
3.00868
3.00874
3.00826
3.0074
3.00619
3.00477
3.00336
3.00223
3.0016
4.30275
4.27563
2.81398
1.03247
1.19654
1.43313
1.67144
1.88217
2.04464
2.14616
2.18059
2.14617
2.04466
1.88217
1.67119
1.4318
1.19232
1.02224
2.52562
4.09175
4.06056
3.82407
3.55062
3.30015
3.11704
3.01984
2.99046
2.99274
3.00084
3.00605
3.00842
3.00966
3.01069
3.01155
3.01187
3.01131
3.00988
3.00795
3.00612
3.00502
4.18537
4.25065
3.95654
1.45965
1.05357
1.22892
1.43199
1.61874
1.76686
1.86134
1.89372
1.86135
1.76688
1.61874
1.4318
1.22793
1.04994
1.4335
3.85452
4.14582
3.97289
3.71819
3.45417
3.22831
3.07569
3.00264
2.98328
2.98399
2.98619
2.98633
2.98661
2.98915
2.99437
3.00119
3.00781
3.0126
3.01474
3.01458
3.01326
3.01215
4.02757
4.12929
4.19145
3.53796
1.2219
1.05042
1.19241
1.34393
1.46928
1.55104
1.57937
1.55105
1.4693
1.34395
1.19232
1.04994
1.22618
3.53457
4.16845
4.06778
3.84494
3.58932
3.34526
3.15027
3.02658
2.96691
2.94176
2.92572
2.91046
2.89852
2.8944
2.90061
2.91693
2.9406
2.96692
2.99065
3.00798
3.01798
3.02227
3.02349
3.83435
3.9527
4.10882
4.15641
3.51377
1.42606
1.02198
1.09675
1.18752
1.25064
1.27297
1.25065
1.18754
1.0968
1.02224
1.4335
3.53457
4.16706
4.11219
3.92211
3.68685
3.4446
3.22674
3.05735
2.94234
2.86557
2.80571
2.75407
2.71322
2.68754
2.67914
2.68895
2.71794
2.76602
2.82905
2.89695
2.95676
2.99956
3.02426
3.03478
3.61435
3.74054
3.92986
4.09859
4.15961
3.84682
2.52064
1.27352
1.03782
1.02616
1.03212
1.02617
1.03787
1.27411
2.52562
3.85452
4.16845
4.11219
3.94781
3.73733
3.50991
3.28781
3.08647
2.91186
2.76315
2.64223
2.55568
2.505
2.48208
2.47476
2.47361
2.47551
2.48484
2.51292
2.57394
2.67417
2.79851
2.91339
2.99204
3.02913
3.38449
3.51116
3.70838
3.9059
4.06078
4.14291
4.09045
3.78724
3.22415
2.68651
2.48174
2.68647
3.22423
3.78777
4.09175
4.14582
4.06778
3.92211
3.73733
3.53254
3.32128
3.10658
2.88296
2.66284
2.49511
2.41712
2.4161
2.45516
2.50226
2.53729
2.55005
2.5376
2.50354
2.45931
2.42709
2.4408
2.53376
2.69904
2.86547
2.96039
3.17443
3.2904
3.47381
3.66702
3.83689
3.97014
4.05976
4.10051
4.0947
4.06447
4.04766
4.06444
4.0947
4.10068
4.06056
3.97289
3.84494
3.68685
3.50991
3.32128
3.11365
2.86532
2.59458
2.40832
2.37429
2.45008
2.56835
2.68468
2.77667
2.83444
2.85406
2.83454
2.77718
2.68659
2.57407
2.46362
2.39895
2.43793
2.5903
2.73514
3.02092
3.11087
3.25756
3.42176
3.57808
3.71382
3.82269
3.90224
3.95353
3.98074
3.989
3.98072
3.95356
3.90257
3.82407
3.71819
3.58932
3.4446
3.28781
3.10658
2.86532
2.57129
2.37503
2.38028
2.52058
2.70386
2.87715
3.01864
3.12124
3.18308
3.20371
3.18311
3.12144
3.01948
2.8799
2.71042
2.53016
2.3786
2.31177
2.33116
2.94569
2.99888
3.09232
3.20819
3.33045
3.44657
3.5476
3.62804
3.6854
3.71937
3.73057
3.71939
3.68561
3.62898
3.55062
3.45417
3.34526
3.22674
3.08647
2.88296
2.59458
2.37503
2.38769
2.56742
2.79839
3.0161
3.19806
3.33957
3.44046
3.50096
3.52113
3.50097
3.44056
3.34002
3.19953
3.0191
2.79844
2.53978
2.2675
2.07309
2.93589
2.95623
2.99794
3.0597
3.13574
3.2171
3.29451
3.36048
3.41009
3.44062
3.45092
3.44076
3.41074
3.36267
3.30015
3.22831
3.15027
3.05735
2.91186
2.66284
2.40832
2.38028
2.56742
2.83126
3.08632
3.30444
3.48179
3.61945
3.71805
3.77743
3.79728
3.77744
3.71811
3.61976
3.48284
3.30633
3.08296
2.79126
2.42577
2.13502
2.956
2.95826
2.96708
2.98727
3.0202
3.06265
3.10855
3.1513
3.18548
3.20736
3.21494
3.20775
3.1869
3.15523
3.11704
3.07569
3.02658
2.94234
2.76315
2.49511
2.37429
2.52058
2.79839
3.08632
3.33948
3.55153
3.72455
3.85986
3.95733
4.01622
4.03592
4.01622
3.95737
3.86009
3.7254
3.55323
3.33626
3.04527
2.65886
2.34942
2.97769
2.97467
2.97123
2.97121
2.9776
2.99094
3.00921
3.02886
3.04605
3.05771
3.06197
3.05844
3.04841
3.0346
3.01984
3.00264
2.96691
2.86557
2.64223
2.41712
2.45008
2.70386
3.0161
3.30444
3.55153
3.75916
3.92975
4.06371
4.16029
4.21859
4.23807
4.21859
4.16031
4.06387
3.93045
3.76081
3.5494
3.26716
2.88669
2.58288
2.99118
2.98843
2.98388
2.9792
2.97619
2.97606
2.97889
2.98369
2.98884
2.99277
2.99446
2.99387
2.9921
2.99092
2.99046
2.98328
2.94176
2.80571
2.55568
2.4161
2.56835
2.87715
3.19806
3.48179
3.72455
3.92975
4.09879
4.23127
4.32628
4.38324
4.40219
4.38324
4.32629
4.23138
4.09935
3.93131
3.72336
3.44877
3.07795
2.78156
2.99739
2.99592
2.99321
2.98973
2.98618
2.98323
2.98132
2.98051
2.98048
2.98081
2.98129
2.98222
2.98447
2.98874
2.99274
2.98399
2.92572
2.75407
2.505
2.45516
2.68468
3.01864
3.33957
3.61945
3.85986
4.06371
4.23127
4.36159
4.45387
4.50838
4.52631
4.50838
4.45387
4.36165
4.2317
4.06513
3.85928
3.5898
3.22578
2.93315
2.9996
2.999
2.99783
2.99615
2.99415
2.99208
2.9902
2.98871
2.9877
2.98722
2.98746
2.98887
2.99219
2.99748
3.00084
2.98619
2.91046
2.71322
2.48208
2.50226
2.77667
3.12124
3.44046
3.71805
3.95733
4.16029
4.32628
4.45387
4.5425
4.59363
4.61014
4.59363
4.54251
4.4539
4.3266
4.16156
3.95709
3.6907
3.33047
3.03877
3.00014
2.99995
2.99955
2.99894
2.99812
2.99718
2.9962
2.99532
2.99465
2.99433
2.99465
2.99612
2.99943
3.00433
3.00605
2.98633
2.89852
2.68754
2.47476
2.53729
2.83444
3.18308
3.50096
3.77743
4.01622
4.21859
4.38324
4.50838
4.59363
4.64151
4.65664
4.64151
4.59363
4.5084
4.3835
4.21974
4.01615
3.75142
3.39299
3.1011
3.00016
3.00012
3.00002
2.99985
2.9996
2.99927
2.9989
2.99854
2.99825
2.99817
2.99858
3
3.00312
3.00761
3.00842
2.98661
2.8944
2.67914
2.47361
2.55005
2.85406
3.20371
3.52113
3.79728
4.03592
4.23807
4.40219
4.52631
4.61014
4.65664
4.67117
4.65664
4.61014
4.52632
4.40241
4.23919
4.03591
3.77171
3.4138
3.12173
3.00009
3.00009
3.00008
3.00005
3
2.99991
2.9998
2.99969
2.9996
2.99965
3.00008
3.00143
3.00437
3.00868
3.00966
2.98915
2.90061
2.68895
2.47551
2.5376
2.83454
3.18311
3.50097
3.77744
4.01622
4.21859
4.38324
4.50838
4.59363
4.64151
4.65664
4.64152
4.59363
4.5084
4.3835
4.21975
4.01616
3.75143
3.39302
3.10114
3.00004
3.00004
3.00005
3.00005
3.00005
3.00004
3.00001
2.99998
2.99997
3.00005
3.00046
3.00168
3.00444
3.00874
3.01069
2.99437
2.91693
2.71794
2.48484
2.50354
2.77718
3.12144
3.44056
3.71811
3.95737
4.16031
4.32629
4.45387
4.54251
4.59363
4.61014
4.59363
4.54251
4.45391
4.32662
4.16158
3.95714
3.69078
3.3306
3.03892
3.00001
3.00002
3.00002
3.00003
3.00003
3.00003
3.00003
3.00002
3.00002
3.00009
3.00043
3.0015
3.00401
3.00826
3.01155
3.00119
2.9406
2.76602
2.51292
2.45931
2.68659
3.01948
3.34002
3.61976
3.86009
4.06387
4.23138
4.36165
4.4539
4.5084
4.52632
4.5084
4.45391
4.36172
4.23181
4.06529
3.85952
3.59017
3.22631
2.93371
3
3.00001
3.00001
3.00001
3.00001
3.00002
3.00001
3.00001
3
3.00005
3.00031
3.00117
3.00334
3.0074
3.01187
3.00781
2.96692
2.82905
2.57394
2.42709
2.57407
2.8799
3.19953
3.48284
3.7254
3.93045
4.09935
4.2317
4.3266
4.3835
4.40241
4.3835
4.32662
4.23181
4.0999
3.93201
3.72423
3.44993
3.07947
2.78314
3
3
3
3
3
3
3
3
2.99999
3.00001
3.00018
3.00082
3.00257
3.00619
3.01131
3.0126
2.99065
2.89695
2.67417
2.4408
2.46362
2.71042
3.0191
3.30633
3.55323
3.76081
3.93131
4.06513
4.16156
4.21974
4.23919
4.21975
4.16158
4.06529
3.93201
3.76246
3.55109
3.26903
2.88907
2.58544
3
3
3
3
3
3
3
2.99999
2.99998
2.99998
3.00008
3.0005
3.00179
3.00477
3.00988
3.01474
3.00798
2.95676
2.79851
2.53376
2.39895
2.53016
2.79844
3.08296
3.33626
3.5494
3.72336
3.85928
3.95709
4.01615
4.03591
4.01616
3.95714
3.85952
3.72423
3.55109
3.33279
3.04082
2.6554
2.34755
3
3
3
3
3
3
3
2.99999
2.99998
2.99997
3
3.00024
3.0011
3.00336
3.00795
3.01458
3.01798
2.99956
2.91339
2.69904
2.43793
2.3786
2.53978
2.79126
3.04527
3.26716
3.44877
3.5898
3.6907
3.75142
3.77171
3.75143
3.69078
3.59017
3.44993
3.26903
3.04082
2.74706
2.38825
2.10745
3
3
3
3
3
3
3
2.99999
2.99998
2.99996
2.99995
3.00005
3.00058
3.00223
3.00612
3.01326
3.02227
3.02426
2.99204
2.86547
2.5903
2.31177
2.2675
2.42577
2.65886
2.88669
3.07795
3.22578
3.33047
3.39299
3.4138
3.39302
3.3306
3.22631
3.07947
2.88907
2.6554
2.38825
2.12846
1.96235
3
3
3
3
3
3
3
2.99999
2.99998
2.99995
2.99993
2.99996
3.00031
3.0016
3.00502
3.01215
3.02349
3.03478
3.02913
2.96039
2.73514
2.33116
2.07309
2.13502
2.34942
2.58288
2.78156
2.93315
3.03877
3.1011
3.12173
3.10114
3.03892
2.93371
2.78314
2.58544
2.34755
2.10745
1.96235
1.97961
