# vtk DataFile Version 3.0
Brusselator Concentration Output
ASCII
DATASET STRUCTURED_POINTS
DIMENSIONS 40 40 1
ORIGIN 0.0 0.0 0.0
SPACING 0.005 0.005 1.0
POINT_DATA 1600
SCALARS C1 double 1
LOOKUP_TABLE default
0.540401
0.557135
0.594056
0.687321
0.981117
1.85962
3.333
3.47319
3.19703
3.00302
2.93738
3.00301
3.19702
3.47318
3.32945
1.84916
0.975541
0.690066
0.613894
0.612798
0.653989
0.728662
0.823046
0.912774
0.974886
1.0036
1.00983
1.0073
1.00377
1.00152
1.00047
1.0001
0.999996
0.999984
0.99999
0.999995
0.999998
0.999999
1
1
0.557135
0.595592
0.728549
1.22624
2.53119
2.94838
2.55014
2.26111
2.06281
1.94656
1.90829
1.94655
2.06281
2.26126
2.55112
2.9528
2.53
1.24394
0.768606
0.665971
0.67359
0.726939
0.805638
0.888834
0.954715
0.992161
1.00555
1.00651
1.004
1.00182
1.00065
1.00017
1.00002
0.99999
0.99999
0.999995
0.999998
0.999999
1
1
0.594056
0.728549
1.41729
2.86282
2.48065
2.05843
1.74105
1.51078
1.3571
1.26947
1.24104
1.26946
1.35711
1.51096
1.74207
2.06252
2.49459
2.90262
1.56304
0.85317
0.721266
0.727059
0.779074
0.851073
0.92123
0.97161
0.996965
1.00446
1.00418
1.00231
1.00096
1.00031
1.00007
1
0.999993
0.999995
0.999998
0.999999
1
1
0.687321
1.22624
2.86282
2.35341
1.88188
1.5133
1.24485
1.0583
0.93811
0.871577
0.85036
0.871573
0.938129
1.05849
1.24586
1.51701
1.89188
2.37433
2.91272
1.54798
0.851696
0.741733
0.756208
0.812841
0.883782
0.945777
0.984488
1.00065
1.0039
1.00281
1.00135
1.0005
1.00014
1.00002
0.999997
0.999995
0.999998
0.999999
1
1
0.981117
2.53119
2.48065
1.88188
1.44809
1.13775
0.921061
0.77764
0.689534
0.642544
0.62786
0.642544
0.689559
0.777831
0.921974
1.14093
1.45586
1.89038
2.45451
2.81967
1.24524
0.80027
0.74851
0.783613
0.849793
0.918772
0.969296
0.994916
1.00284
1.00312
1.00175
1.00072
1.00023
1.00005
1
0.999997
0.999998
1
1
1
1.85962
2.94838
2.05843
1.5133
1.13775
0.881425
0.712813
0.607813
0.546664
0.515309
0.505713
0.51531
0.546691
0.607986
0.7136
0.884049
1.14349
1.51645
2.02751
2.70411
2.11465
0.958538
0.764516
0.767187
0.823178
0.893955
0.953162
0.987705
1.0009
1.00312
1.00208
1.00094
1.00033
1.00008
1.00001
0.999998
0.999999
1
1
1
3.333
2.55014
1.74105
1.24485
0.921061
0.712813
0.584576
0.509507
0.468022
0.447575
0.441453
0.447577
0.468048
0.509658
0.585233
0.714921
0.925186
1.24404
1.69796
2.30755
2.8559
1.27959
0.811611
0.763518
0.804904
0.873422
0.937937
0.979915
0.998324
1.00279
1.00229
1.00113
1.00042
1.00011
1.00002
0.999997
0.999998
1
1
1
3.47319
2.26111
1.51078
1.0583
0.77764
0.607813
0.509507
0.455137
0.42659
0.413114
0.409185
0.413117
0.426613
0.455267
0.510056
0.609502
0.780542
1.05462
1.46083
2.02334
2.78352
1.74226
0.891488
0.770267
0.794069
0.858004
0.925076
0.972583
0.995524
1.0022
1.00236
1.00125
1.00046
1.00011
0.999999
0.99998
0.999987
0.999996
1
1.00001
3.19703
2.06281
1.3571
0.93811
0.689534
0.546664
0.468022
0.42659
0.405892
0.396587
0.393963
0.396589
0.405914
0.426706
0.468495
0.548059
0.691604
0.932568
1.30329
1.83088
2.5635
2.20177
0.989833
0.782891
0.788757
0.847594
0.915454
0.966599
0.99296
1.00148
1.00224
1.00121
1.0004
1.00002
0.99991
0.999907
0.999935
0.999964
0.999986
0.999997
3.00302
1.94656
1.26947
0.871577
0.642544
0.515309
0.447575
0.413114
0.396587
0.389488
0.387556
0.389491
0.396608
0.413222
0.448003
0.516533
0.64414
0.865014
1.21382
1.7194
2.42014
2.47902
1.07309
0.794797
0.78671
0.841594
0.909424
0.962548
0.990993
1.00071
1.0019
1.00095
1.00012
0.999747
0.99966
0.999697
0.999773
0.999849
0.999908
0.999939
2.93738
1.90829
1.24104
0.85036
0.62786
0.505713
0.441453
0.409185
0.393963
0.387556
0.385841
0.387559
0.393984
0.40929
0.441867
0.506882
0.629303
0.843476
1.18487
1.68293
2.37285
2.55965
1.10559
0.799504
0.786036
0.83937
0.907049
0.960766
0.989897
1.00003
1.00137
1.00044
0.999607
0.99923
0.999161
0.999244
0.999387
0.999538
0.999663
0.999733
3.00301
1.94655
1.26946
0.871573
0.642544
0.51531
0.447577
0.413117
0.396589
0.389491
0.387559
0.389494
0.39661
0.413224
0.448005
0.516534
0.644139
0.865008
1.2138
1.71935
2.42004
2.47831
1.07245
0.794184
0.78596
0.840717
0.90851
0.961692
0.990238
1.00004
1.00126
1.00026
0.999316
0.998798
0.998595
0.998589
0.998708
0.998893
0.999073
0.999184
3.19702
2.06281
1.35711
0.938129
0.689559
0.546691
0.468048
0.426613
0.405914
0.396608
0.393984
0.39661
0.405936
0.426729
0.46852
0.548085
0.691627
0.932578
1.30327
1.8308
2.56335
2.19957
0.988319
0.781564
0.787414
0.846466
0.914895
0.966834
0.993969
1.00303
1.00397
1.00272
1.00132
1.00014
0.999205
0.99852
0.998118
0.997975
0.997993
0.998045
3.47318
2.26126
1.51096
1.05849
0.777831
0.607986
0.509658
0.455267
0.426706
0.413222
0.40929
0.413224
0.426729
0.455398
0.510206
0.609674
0.780726
1.05479
1.46095
2.02336
2.78346
1.7376
0.889026
0.768637
0.793547
0.859621
0.929801
0.980718
1.00659
1.01518
1.01596
1.01414
1.01145
1.00832
1.00503
1.00197
0.999484
0.997759
0.996761
0.99633
3.32945
2.55112
1.74207
1.24586
0.921974
0.7136
0.585233
0.510056
0.468495
0.448003
0.441867
0.448005
0.46852
0.510206
0.585888
0.715701
0.926076
1.24499
1.69893
2.30851
2.85352
1.27313
0.809221
0.764234
0.810828
0.88739
0.961701
1.01317
1.03903
1.04805
1.04902
1.04628
1.04115
1.034
1.02542
1.01643
1.0082
1.00169
0.997361
0.995247
1.84916
2.9528
2.06252
1.51701
1.14093
0.884049
0.714921
0.609502
0.548059
0.516533
0.506882
0.516534
0.548085
0.609674
0.715701
0.88665
1.14661
1.52007
2.03171
2.70997
2.10063
0.953265
0.766464
0.779083
0.850965
0.942322
1.02241
1.07394
1.0984
1.10656
1.10727
1.10434
1.09819
1.08799
1.07328
1.05497
1.03556
1.01827
1.0057
0.99921
0.975541
2.53
2.49459
1.89188
1.45586
1.14349
0.925186
0.780542
0.691604
0.64414
0.629303
0.644139
0.691627
0.780726
0.926076
1.14661
1.46352
1.90036
2.46865
2.82651
1.23734
0.803454
0.767157
0.82776
0.927481
1.02828
1.0997
1.13352
1.14105
1.13812
1.1352
1.13606
1.13964
1.14181
1.13696
1.12084
1.09377
1.06203
1.0348
1.01947
0.690066
1.24394
2.90262
2.37433
1.89038
1.51645
1.24404
1.05462
0.932568
0.865014
0.843476
0.865008
0.932578
1.05479
1.24499
1.52007
1.90036
2.39552
2.94774
1.5745
0.866032
0.770979
0.818129
0.917835
1.0206
1.08529
1.10084
1.08261
1.0534
1.0301
1.02102
1.02858
1.05174
1.08634
1.12412
1.15245
1.15814
1.13739
1.10334
1.07853
0.613894
0.768606
1.56304
2.91272
2.45451
2.02751
1.69796
1.46083
1.30329
1.21382
1.18487
1.2138
1.30327
1.46095
1.69893
2.03171
2.46865
2.94774
1.7307
0.918939
0.781123
0.817331
0.911343
0.996533
1.02604
1.00068
0.945237
0.884701
0.835559
0.804915
0.794364
0.803946
0.833991
0.885011
0.955959
1.04082
1.12454
1.18381
1.20357
1.19905
0.612798
0.665971
0.85317
1.54798
2.81967
2.70411
2.30755
2.02334
1.83088
1.7194
1.68293
1.71935
1.8308
2.02336
2.30851
2.70997
2.82651
1.5745
0.918939
0.786303
0.819083
0.906926
0.966905
0.952871
0.887459
0.804925
0.727898
0.667942
0.627701
0.605208
0.597911
0.604724
0.626683
0.667038
0.730904
0.823895
0.948345
1.09534
1.23457
1.31955
0.653989
0.67359
0.721266
0.851696
1.24524
2.11465
2.8559
2.78352
2.5635
2.42014
2.37285
2.42004
2.56335
2.78346
2.85352
2.10063
1.23734
0.866032
0.781123
0.819083
0.905255
0.947319
0.898635
0.803242
0.704619
0.622846
0.563914
0.525781
0.503336
0.491841
0.488289
0.491646
0.502863
0.525112
0.564406
0.630619
0.737805
0.898344
1.09646
1.24845
0.728662
0.726939
0.727059
0.741733
0.80027
0.958538
1.27959
1.74226
2.20177
2.47902
2.55965
2.47831
2.19957
1.7376
1.27313
0.953265
0.803454
0.770979
0.817331
0.906926
0.947319
0.879293
0.760869
0.648993
0.564532
0.509008
0.47622
0.458593
0.450003
0.446358
0.445369
0.446287
0.449824
0.458331
0.476473
0.512812
0.582153
0.702729
0.866121
0.991935
0.823046
0.805638
0.779074
0.756208
0.74851
0.764516
0.811611
0.891488
0.989833
1.07309
1.10559
1.07245
0.988319
0.889026
0.809221
0.766464
0.767157
0.818129
0.911343
0.966905
0.898635
0.760869
0.63155
0.539378
0.483705
0.454491
0.441724
0.438047
0.438553
0.440077
0.440782
0.440051
0.438497
0.438022
0.442152
0.457134
0.493764
0.564981
0.662733
0.733778
0.912774
0.888834
0.851073
0.812841
0.783613
0.767187
0.763518
0.770267
0.782891
0.794797
0.799504
0.794184
0.781564
0.768637
0.764234
0.779083
0.82776
0.917835
0.996533
0.952871
0.803242
0.648993
0.539378
0.476463
0.446569
0.436555
0.437478
0.443622
0.451052
0.456843
0.459012
0.456834
0.451047
0.443709
0.438039
0.438767
0.452791
0.486262
0.530642
0.559533
0.974886
0.954715
0.92123
0.883782
0.849793
0.823178
0.804904
0.794069
0.788757
0.78671
0.786036
0.78596
0.787414
0.793547
0.810828
0.850965
0.927481
1.0206
1.02604
0.887459
0.704619
0.564532
0.483705
0.446569
0.435564
0.439164
0.450633
0.465568
0.48025
0.491073
0.495075
0.49107
0.480267
0.465716
0.451271
0.441128
0.439599
0.448243
0.459405
0.464191
1.0036
0.992161
0.97161
0.945777
0.918772
0.893955
0.873422
0.858004
0.847594
0.841594
0.83937
0.840717
0.846466
0.859621
0.88739
0.942322
1.02828
1.08529
1.00068
0.804925
0.622846
0.509008
0.454491
0.436555
0.439164
0.453641
0.475281
0.500553
0.525246
0.543825
0.550814
0.543825
0.52528
0.50075
0.47599
0.455455
0.441841
0.434032
0.425866
0.418104
1.00983
1.00555
0.996965
0.984488
0.969296
0.953162
0.937937
0.925076
0.915454
0.909424
0.907049
0.90851
0.914895
0.929801
0.961701
1.02241
1.0997
1.10084
0.945237
0.727898
0.563914
0.47622
0.441724
0.437478
0.450633
0.475281
0.508649
0.548162
0.588701
0.620847
0.633352
0.62085
0.588756
0.54842
0.509455
0.477035
0.45243
0.432619
0.412577
0.397984
1.0073
1.00651
1.00446
1.00065
0.994916
0.987705
0.979915
0.972583
0.966599
0.962548
0.960766
0.961692
0.966834
0.980718
1.01317
1.07394
1.13352
1.08261
0.884701
0.667942
0.525781
0.458593
0.438047
0.443622
0.465568
0.500553
0.548162
0.607749
0.673684
0.729887
0.75275
0.729896
0.67377
0.608094
0.549104
0.502327
0.466788
0.437324
0.409229
0.390465
1.00377
1.004
1.00418
1.0039
1.00284
1.0009
0.998324
0.995524
0.99296
0.990993
0.989897
0.990238
0.993969
1.00659
1.03903
1.0984
1.14105
1.0534
0.835559
0.627701
0.503336
0.450003
0.438553
0.451052
0.48025
0.525246
0.588701
0.673684
0.775876
0.870018
0.910169
0.870036
0.776005
0.674138
0.589806
0.527094
0.481101
0.443821
0.410033
0.388533
1.00152
1.00182
1.00231
1.00281
1.00312
1.00312
1.00279
1.0022
1.00148
1.00071
1.00003
1.00004
1.00303
1.01518
1.04805
1.10656
1.13812
1.0301
0.804915
0.605208
0.491841
0.446358
0.440077
0.456843
0.491073
0.543825
0.620847
0.729887
0.870018
1.00718
1.06779
1.00721
0.870193
0.730445
0.622097
0.545752
0.491716
0.449058
0.411694
0.388547
1.00047
1.00065
1.00096
1.00135
1.00175
1.00208
1.00229
1.00236
1.00224
1.0019
1.00137
1.00126
1.00397
1.01596
1.04902
1.10727
1.1352
1.02102
0.794364
0.597911
0.488289
0.445369
0.440782
0.459012
0.495075
0.550814
0.633352
0.75275
0.910169
1.06779
1.13831
1.06782
0.910364
0.753352
0.634661
0.552775
0.49565
0.451041
0.412435
0.38873
1.0001
1.00017
1.00031
1.0005
1.00072
1.00094
1.00113
1.00125
1.00121
1.00095
1.00044
1.00026
1.00272
1.01414
1.04628
1.10434
1.13606
1.02858
0.803946
0.604724
0.491646
0.446287
0.440051
0.456834
0.49107
0.543825
0.62085
0.729896
0.870036
1.00721
1.06782
1.00724
0.87021
0.730454
0.6221
0.545751
0.491713
0.449052
0.411687
0.388541
0.999996
1.00002
1.00007
1.00014
1.00023
1.00033
1.00042
1.00046
1.0004
1.00012
0.999607
0.999316
1.00132
1.01145
1.04115
1.09819
1.13964
1.05174
0.833991
0.626683
0.502863
0.449824
0.438497
0.451047
0.480267
0.52528
0.588756
0.67377
0.776005
0.870193
0.910364
0.87021
0.776134
0.674223
0.589861
0.527127
0.481121
0.443829
0.410035
0.38853
0.999984
0.99999
1
1.00002
1.00005
1.00008
1.00011
1.00011
1.00002
0.999747
0.99923
0.998798
1.00014
1.00832
1.034
1.08799
1.14181
1.08634
0.885011
0.667038
0.525112
0.458331
0.438022
0.443709
0.465716
0.50075
0.54842
0.608094
0.674138
0.730445
0.753352
0.730454
0.674223
0.608438
0.549363
0.502529
0.466952
0.437458
0.409335
0.390548
0.99999
0.99999
0.999993
0.999997
1
1.00001
1.00002
0.999999
0.99991
0.99966
0.999161
0.998595
0.999205
1.00503
1.02542
1.07328
1.13696
1.12412
0.955959
0.730904
0.564406
0.476473
0.442152
0.438039
0.451271
0.47599
0.509455
0.549104
0.589806
0.622097
0.634661
0.6221
0.589861
0.549363
0.510268
0.477771
0.453139
0.433323
0.413245
0.398588
0.999995
0.999995
0.999995
0.999995
0.999997
0.999998
0.999997
0.99998
0.999907
0.999697
0.999244
0.998589
0.99852
1.00197
1.01643
1.05497
1.12084
1.15245
1.04082
0.823895
0.630619
0.512812
0.457134
0.438767
0.441128
0.455455
0.477035
0.502327
0.527094
0.545752
0.552775
0.545751
0.527127
0.502529
0.477771
0.457364
0.44405
0.436675
0.428821
0.421095
0.999998
0.999998
0.999998
0.999998
0.999998
0.999999
0.999998
0.999987
0.999935
0.999773
0.999387
0.998708
0.998118
0.999484
1.0082
1.03556
1.09377
1.15814
1.12454
0.948345
0.737805
0.582153
0.493764
0.452791
0.439599
0.441841
0.45243
0.466788
0.481101
0.491716
0.49565
0.491713
0.481121
0.466952
0.453139
0.44405
0.444296
0.455637
0.469646
0.475955
0.999999
0.999999
0.999999
0.999999
1
1
1
0.999996
0.999964
0.999849
0.999538
0.998893
0.997975
0.997759
1.00169
1.01827
1.06203
1.13739
1.18381
1.09534
0.898344
0.702729
0.564981
0.486262
0.448243
0.434032
0.432619
0.437324
0.443821
0.449058
0.451041
0.449052
0.443829
0.437458
0.433323
0.436675
0.455637
0.498234
0.555341
0.59359
1
1
1
1
1
1
1
1
0.999986
0.999908
0.999663
0.999073
0.997993
0.996761
0.997361
1.0057
1.0348
1.10334
1.20357
1.23457
1.09646
0.866121
0.662733
0.530642
0.459405
0.425866
0.412577
0.409229
0.410033
0.411694
0.412435
0.411687
0.410035
0.409335
0.413245
0.428821
0.469646
0.555341
0.682925
0.781965
1
1
1
1
1
1
1
1.00001
0.999997
0.999939
0.999733
0.999184
0.998045
0.99633
0.995247
0.99921
1.01947
1.07853
1.19905
1.31955
1.24845
0.991935
0.733778
0.559533
0.464191
0.418104
0.397984
0.390465
0.388533
0.388547
0.38873
0.388541
0.38853
0.390548
0.398588
0.421095
0.475955
0.59359
0.781965
0.93987
SCALARS C2 double 1
LOOKUP_TABLE default
3.74152
3.86182
4.03994
4.18456
4.14843
3.42485
1.61569
0.955091
0.914346
0.939772
0.952288
0.939781
0.914386
0.955482
1.62159
3.43818
4.15768
4.19426
4.04955
3.84241
3.60891
3.37741
3.18067
3.04701
2.9831
2.96946
2.9775
2.9882
2.99516
2.99846
2.99968
3.00001
3.00006
3.00004
3.00002
3.00001
3
3
3
3
3.86182
3.95251
4.05095
3.83662
2.35598
1.16364
1.11741
1.20175
1.2834
1.3385
1.35778
1.3385
1.28341
1.20174
1.11736
1.16495
2.36911
3.83262
4.03648
3.89646
3.68327
3.45731
3.25378
3.10163
3.01414
2.98156
2.97975
2.98737
2.99413
2.99786
2.99943
2.99993
3.00003
3.00003
3.00002
3.00001
3
3
3
3
4.03994
4.05095
3.60331
1.56861
1.16003
1.29049
1.45076
1.59778
1.71303
1.78593
1.81082
1.78594
1.71305
1.59772
1.45032
1.2888
1.15444
1.52339
3.44638
3.90848
3.79276
3.58683
3.37465
3.19435
3.06992
3.00569
2.98567
2.98666
2.99245
2.99678
2.99894
2.99976
2.99999
3.00003
3.00002
3.00001
3
3
3
3
4.18456
3.83662
1.56861
1.18966
1.36957
1.58517
1.7914
1.96681
2.09845
2.17942
2.20669
2.17943
2.09846
1.96673
1.79082
1.58299
1.36397
1.17692
1.40084
3.41822
3.85425
3.72001
3.50861
3.30289
3.14088
3.04072
2.9969
2.98745
2.99077
2.99543
2.99827
2.9995
2.99991
3.00001
3.00002
3.00001
3
3
3
3
4.14843
2.35598
1.16003
1.36957
1.62755
1.88179
2.10907
2.29386
2.42827
2.50944
2.53656
2.50945
2.42828
2.29378
2.10846
1.87942
1.62177
1.36108
1.15343
1.72134
3.65672
3.81087
3.62876
3.40943
3.21741
3.08367
3.01392
2.99083
2.98975
2.99407
2.99749
2.99918
2.99981
2.99999
3.00001
3.00001
3
3
3
3
3.42485
1.16364
1.29049
1.58517
1.88179
2.15456
2.3874
2.57106
2.70264
2.78171
2.8081
2.78172
2.70265
2.57099
2.38682
2.15218
1.87602
1.57903
1.29621
1.13731
2.74061
3.79985
3.71894
3.5029
3.29131
3.13
3.03541
2.99701
2.98982
2.99295
2.9967
2.99882
2.99968
2.99995
3.00001
3.00001
3
3
3
3
1.61569
1.11741
1.45076
1.7914
2.10907
2.3874
2.61789
2.79751
2.92621
3.00391
3.02994
3.00392
2.92622
2.79746
2.61739
2.38513
2.10347
1.78672
1.46492
1.18977
1.54502
3.58697
3.76825
3.57726
3.35638
3.17468
3.05871
3.00523
2.99099
2.99223
2.996
2.99846
2.99955
2.99991
3
3.00001
3
2.99999
2.99999
2.99999
0.955091
1.20175
1.59778
1.96681
2.29386
2.57106
2.79751
2.97418
3.10175
3.17938
3.20551
3.17939
3.10176
2.97416
2.79709
2.56895
2.2885
1.96321
1.61832
1.29766
1.17615
3.10992
3.77017
3.63017
3.40858
3.21333
3.08068
3.01406
2.99293
2.99193
2.99549
2.99818
2.99946
2.9999
3.00001
3.00002
3
2.99999
2.99999
2.99998
0.914346
1.2834
1.71303
2.09845
2.42827
2.70264
2.92621
3.10175
3.22959
3.30792
3.33439
3.30793
3.2296
3.10174
2.92585
2.70068
2.4231
2.09555
1.738
1.39148
1.14406
2.52716
3.73157
3.66272
3.44597
3.24281
3.09854
3.02195
2.99512
2.99206
2.99528
2.99811
2.99951
3.00001
3.00011
3.00009
3.00005
3.00001
2.99999
2.99998
0.939772
1.3385
1.78593
2.17942
2.50944
2.78171
3.00391
3.17938
3.30792
3.38705
3.41384
3.38705
3.30794
3.17938
3.00359
2.77983
2.50439
2.17689
1.81344
1.45313
1.16437
2.12198
3.68148
3.679
3.46826
3.26127
3.11033
3.02763
2.99712
2.99264
2.9956
2.99848
2.99993
3.00041
3.00046
3.00036
3.00023
3.00013
3.00005
3.00001
0.952288
1.35778
1.81082
2.20669
2.53656
2.8081
3.02994
3.20551
3.33439
3.41384
3.44077
3.41385
3.33441
3.20551
3.02963
2.80626
2.53155
2.20426
1.83914
1.47453
1.17497
1.99101
3.65885
3.68389
3.47593
3.26802
3.11508
3.03046
2.99877
2.99383
2.9967
2.99958
3.00101
3.00142
3.00135
3.00109
3.0008
3.00052
3.00032
3.00021
0.939781
1.3385
1.78594
2.17943
2.50945
2.78172
3.00392
3.17939
3.30793
3.38705
3.41385
3.38706
3.30795
3.17939
3.00359
2.77984
2.5044
2.1769
1.81345
1.45316
1.16443
2.12284
3.68219
3.67983
3.46954
3.26311
3.11265
3.03027
2.99993
2.99551
2.99849
3.00137
3.00279
3.00318
3.00303
3.00262
3.0021
3.00156
3.00113
3.00088
0.914386
1.28341
1.71305
2.09846
2.42828
2.70265
2.92622
3.10176
3.2296
3.30794
3.33441
3.30795
3.22962
3.10175
2.92586
2.70068
2.42311
2.09557
1.73803
1.39154
1.14426
2.53001
3.73348
3.66496
3.44913
3.2468
3.10291
3.02624
2.99908
2.99572
2.99883
3.00182
3.00358
3.00448
3.00483
3.00475
3.00432
3.00367
3.00303
3.00264
0.955482
1.20174
1.59772
1.96673
2.29378
2.57099
2.79746
2.97416
3.10174
3.17938
3.20551
3.17939
3.10175
2.97413
2.79704
2.56888
2.28841
1.96314
1.61829
1.29774
1.17711
3.11616
3.77402
3.63457
3.41371
3.21799
3.08327
3.01366
2.98961
2.98658
2.98945
2.99293
2.99627
2.99952
3.00251
3.00481
3.00616
3.00658
3.00645
3.00622
1.62159
1.11736
1.45032
1.79082
2.10846
2.38682
2.61739
2.79709
2.92585
3.00359
3.02963
3.00359
2.92586
2.79704
2.61688
2.38456
2.10288
1.78619
1.46454
1.18972
1.55228
3.59632
3.77454
3.58313
3.35939
3.17025
3.04307
2.9774
2.95282
2.94736
2.94892
2.95382
2.96153
2.97158
2.98271
2.9932
3.0016
3.00724
3.01034
3.0116
3.43818
1.16495
1.2888
1.58299
1.87942
2.15218
2.38513
2.56895
2.70068
2.77983
2.80626
2.77984
2.70068
2.56888
2.38456
2.14981
1.8737
1.57695
1.29457
1.1374
2.76458
3.81104
3.72596
3.50265
3.2737
3.08414
2.95624
2.88699
2.85641
2.84551
2.84476
2.85169
2.86635
2.88851
2.91633
2.94616
2.97355
2.99492
3.00877
3.01535
4.15768
2.36911
1.15444
1.36397
1.62177
1.87602
2.10347
2.2885
2.4231
2.50439
2.53155
2.5044
2.42311
2.28841
2.10288
1.8737
1.61611
1.35567
1.14802
1.73338
3.677
3.8211
3.62559
3.37466
3.12799
2.9279
2.79815
2.73174
2.70474
2.69642
2.69622
2.70151
2.71417
2.73816
2.77684
2.82949
2.88903
2.94396
2.98415
3.00471
4.19426
3.83262
1.52339
1.17692
1.36108
1.57903
1.78672
1.96321
2.09555
2.17689
2.20426
2.1769
2.09557
1.96314
1.78619
1.57695
1.35567
1.1647
1.3662
3.40985
3.86262
3.71444
3.45726
3.16598
2.90254
2.72527
2.6443
2.62869
2.64121
2.65694
2.66423
2.66029
2.64831
2.63671
2.63844
2.66763
2.73114
2.81777
2.89898
2.94654
4.04955
4.03648
3.44638
1.40084
1.15343
1.29621
1.46492
1.61832
1.738
1.81344
1.83914
1.81345
1.73803
1.61829
1.46454
1.29457
1.14802
1.3662
3.26243
3.86873
3.76547
3.51308
3.19382
2.89125
2.7024
2.6459
2.67659
2.74132
2.8038
2.846
2.8611
2.84779
2.80827
2.74866
2.68077
2.62393
2.60348
2.63852
2.71563
2.78007
3.84241
3.89646
3.90848
3.41822
1.72134
1.13731
1.18977
1.29766
1.39148
1.45313
1.47453
1.45316
1.39154
1.29774
1.18972
1.1374
1.73338
3.40985
3.86873
3.78168
3.54046
3.2106
2.8938
2.72146
2.70948
2.79616
2.91747
3.03126
3.11794
3.17103
3.18897
3.17173
3.12009
3.03618
2.92479
2.79569
2.6664
2.56258
2.50772
2.49661
3.60891
3.68327
3.79276
3.85425
3.65672
2.74061
1.54502
1.17615
1.14406
1.16437
1.17497
1.16443
1.14426
1.17711
1.55228
2.76458
3.677
3.86262
3.76547
3.54046
3.21621
2.89968
2.74997
2.78035
2.91559
3.08409
3.24063
3.3662
3.45606
3.50981
3.52772
3.51
3.45681
3.36848
3.24573
3.08974
2.90196
2.6866
2.46712
2.31547
3.37741
3.45731
3.58683
3.72001
3.81087
3.79985
3.58697
3.10992
2.52716
2.12198
1.99101
2.12284
2.53001
3.11616
3.59632
3.81104
3.8211
3.71444
3.51308
3.2106
2.89968
2.76233
2.82282
2.99602
3.20264
3.39464
3.55371
3.67665
3.76392
3.81612
3.8335
3.81617
3.76417
3.67753
3.55613
3.39835
3.19703
2.93697
2.63106
2.40492
3.18067
3.25378
3.37465
3.50861
3.62876
3.71894
3.76825
3.77017
3.73157
3.68148
3.65885
3.68219
3.73348
3.77402
3.77454
3.72596
3.62559
3.45726
3.19382
2.8938
2.74997
2.82282
3.02378
3.26269
3.48642
3.6763
3.83009
3.94886
4.03332
4.08383
4.10064
4.08385
4.03343
3.94929
3.83128
3.67787
3.48051
3.21644
2.89099
2.65065
3.04701
3.10163
3.19435
3.30289
3.40943
3.5029
3.57726
3.63017
3.66272
3.679
3.68389
3.67983
3.66496
3.63457
3.58313
3.50265
3.37466
3.16598
2.89125
2.72146
2.78035
2.99602
3.26269
3.51675
3.73653
3.91998
4.06857
4.18311
4.26406
4.31209
4.32799
4.31211
4.26412
4.18337
4.06932
3.92081
3.73049
3.47515
3.15517
2.91872
2.9831
3.01414
3.06992
3.14088
3.21741
3.29131
3.35638
3.40858
3.44597
3.46826
3.47593
3.46954
3.44913
3.41371
3.35939
3.2737
3.12799
2.90254
2.7024
2.70948
2.91559
3.20264
3.48642
3.73653
3.94953
4.12707
4.2699
4.37828
4.45311
4.49642
4.51051
4.49643
4.45315
4.37843
4.27039
4.12767
3.94441
3.69906
3.38736
3.15384
2.96946
2.98156
3.00569
3.04072
3.08367
3.13
3.17468
3.21333
3.24281
3.26127
3.26802
3.26311
3.2468
3.21799
3.17025
3.08414
2.9279
2.72527
2.6459
2.79616
3.08409
3.39464
3.6763
3.91998
4.12707
4.29816
4.43267
4.53055
4.59395
4.62787
4.63826
4.62788
4.59396
4.53058
4.43288
4.29852
4.12301
3.88696
3.58156
3.3474
2.9775
2.97975
2.98567
2.9969
3.01392
3.03541
3.05871
3.08068
3.09854
3.11033
3.11508
3.11265
3.10291
3.08327
3.04307
2.95624
2.79815
2.6443
2.67659
2.91747
3.24063
3.55371
3.83009
4.06857
4.2699
4.43267
4.5546
4.63498
4.67766
4.69336
4.69627
4.69337
4.67764
4.63489
4.55451
4.43269
4.26665
4.03964
3.73918
3.50267
2.9882
2.98737
2.98666
2.98745
2.99083
2.99701
3.00523
3.01406
3.02195
3.02763
3.03046
3.03027
3.02624
3.01366
2.9774
2.88699
2.73174
2.62869
2.74132
3.03126
3.3662
3.67665
3.94886
4.18311
4.37828
4.53055
4.63498
4.68858
4.69631
4.67858
4.66707
4.67858
4.69625
4.68834
4.63454
4.53015
4.37556
4.15757
3.86148
3.62248
2.99516
2.99413
2.99245
2.99077
2.98975
2.98982
2.99099
2.99293
2.99512
2.99712
2.99877
2.99993
2.99908
2.98961
2.95282
2.85641
2.70474
2.64121
2.8038
3.11794
3.45606
3.76392
4.03332
4.26406
4.45311
4.59395
4.67766
4.69631
4.65339
4.58255
4.54685
4.58255
4.65328
4.6959
4.67686
4.59314
4.45073
4.24108
3.94884
3.70794
2.99846
2.99786
2.99678
2.99543
2.99407
2.99295
2.99223
2.99193
2.99206
2.99264
2.99383
2.99551
2.99572
2.98658
2.94736
2.84551
2.69642
2.65694
2.846
3.17103
3.50981
3.81612
4.08383
4.31209
4.49642
4.62787
4.69336
4.67858
4.58255
4.45145
4.38709
4.45143
4.58239
4.67802
4.69228
4.62675
4.49422
4.29074
4.00128
3.75925
2.99968
2.99943
2.99894
2.99827
2.99749
2.9967
2.996
2.99549
2.99528
2.9956
2.9967
2.99849
2.99883
2.98945
2.94892
2.84476
2.69622
2.66423
2.8611
3.18897
3.52772
3.8335
4.10064
4.32799
4.51051
4.63826
4.69627
4.66707
4.54685
4.38709
4.30883
4.38707
4.54666
4.66644
4.69508
4.63701
4.50836
4.30719
4.01876
3.77637
3.00001
2.99993
2.99976
2.9995
2.99918
2.99882
2.99846
2.99818
2.99811
2.99848
2.99958
3.00137
3.00182
2.99293
2.95382
2.85169
2.70151
2.66029
2.84779
3.17173
3.51
3.81617
4.08385
4.31211
4.49643
4.62788
4.69337
4.67858
4.58255
4.45143
4.38707
4.45142
4.58238
4.67802
4.69228
4.62675
4.49423
4.29075
4.0013
3.75928
3.00006
3.00003
2.99999
2.99991
2.99981
2.99968
2.99955
2.99946
2.99951
2.99993
3.00101
3.00279
3.00358
2.99627
2.96153
2.86635
2.71417
2.64831
2.80827
3.12009
3.45681
3.76417
4.03343
4.26412
4.45315
4.59396
4.67764
4.69625
4.65328
4.58239
4.54666
4.58238
4.65317
4.69584
4.67684
4.59315
4.45077
4.24116
3.94896
3.70806
3.00004
3.00003
3.00003
3.00001
2.99999
2.99995
2.99991
2.9999
3.00001
3.00041
3.00142
3.00318
3.00448
2.99952
2.97158
2.88851
2.73816
2.63671
2.74866
3.03618
3.36848
3.67753
3.94929
4.18337
4.37843
4.53058
4.63489
4.68834
4.6959
4.67802
4.66644
4.67802
4.69584
4.6881
4.63445
4.53019
4.37571
4.15787
3.86193
3.62296
3.00002
3.00002
3.00002
3.00002
3.00001
3.00001
3
3.00001
3.00011
3.00046
3.00135
3.00303
3.00483
3.00251
2.98271
2.91633
2.77684
2.63844
2.68077
2.92479
3.24573
3.55613
3.83128
4.06932
4.27039
4.43288
4.55451
4.63454
4.67686
4.69228
4.69508
4.69228
4.67684
4.63445
4.55441
4.43288
4.26712
4.04044
3.74039
3.50402
3.00001
3.00001
3.00001
3.00001
3.00001
3.00001
3.00001
3.00002
3.00009
3.00036
3.00109
3.00262
3.00475
3.00481
2.9932
2.94616
2.82949
2.66763
2.62393
2.79569
3.08974
3.39835
3.67787
3.92081
4.12767
4.29852
4.43269
4.53015
4.59314
4.62675
4.63701
4.62675
4.59315
4.53019
4.43288
4.29882
4.12346
3.88757
3.5828
3.34917
3
3
3
3
3
3
3
3
3.00005
3.00023
3.0008
3.0021
3.00432
3.00616
3.0016
2.97355
2.88903
2.73114
2.60348
2.6664
2.90196
3.19703
3.48051
3.73049
3.94441
4.12301
4.26665
4.37556
4.45073
4.49422
4.50836
4.49423
4.45077
4.37571
4.26712
4.12346
3.93859
3.69114
3.37897
3.14692
3
3
3
3
3
3
2.99999
2.99999
3.00001
3.00013
3.00052
3.00156
3.00367
3.00658
3.00724
2.99492
2.94396
2.81777
2.63852
2.56258
2.6866
2.93697
3.21644
3.47515
3.69906
3.88696
4.03964
4.15757
4.24108
4.29074
4.30719
4.29075
4.24116
4.15787
4.04044
3.88757
3.69114
3.42707
3.10026
2.86432
3
3
3
3
3
3
2.99999
2.99999
2.99999
3.00005
3.00032
3.00113
3.00303
3.00645
3.01034
3.00877
2.98415
2.89898
2.71563
2.50772
2.46712
2.63106
2.89099
3.15517
3.38736
3.58156
3.73918
3.86148
3.94884
4.00128
4.01876
4.0013
3.94896
3.86193
3.74039
3.5828
3.37897
3.10026
2.74944
2.49248
3
3
3
3
3
3
2.99999
2.99998
2.99998
3.00001
3.00021
3.00088
3.00264
3.00622
3.0116
3.01535
3.00471
2.94654
2.78007
2.49661
2.31547
2.40492
2.65065
2.91872
3.15384
3.3474
3.50267
3.62248
3.70794
3.75925
3.77637
3.75928
3.70806
3.62296
3.50402
3.34917
3.14692
2.86432
2.49248
2.20681
