# vtk DataFile Version 3.0
Brusselator Concentration Output
ASCII
DATASET STRUCTURED_POINTS
DIMENSIONS 40 40 1
ORIGIN 0.0 0.0 0.0
SPACING 0.005 0.005 1.0
POINT_DATA 1600
SCALARS C1 double 1
LOOKUP_TABLE default
0.546937
0.558839
0.583811
0.644393
0.828013
1.37155
2.63128
3.54649
3.46169
3.29236
3.22874
3.29234
3.46162
3.54586
2.62536
1.36434
0.823406
0.645543
0.600293
0.610963
0.659963
0.74075
0.838002
0.92597
0.983117
1.007
1.01049
1.00704
1.00343
1.00131
1.00038
1.00006
0.999988
0.999983
0.99999
0.999996
0.999999
1
1
1
0.558839
0.588437
0.67954
1.00695
2.00405
3.04945
2.75369
2.43447
2.22514
2.10319
2.06305
2.10317
2.22512
2.43457
2.75462
3.0507
1.99695
1.01707
0.71035
0.652865
0.674095
0.734635
0.817293
0.900626
0.963325
0.996584
1.00697
1.00659
1.00376
1.00162
1.00054
1.00013
1.00001
0.999987
0.999991
0.999996
0.999998
0.999999
1
1
0.583811
0.67954
1.14603
2.62438
2.69597
2.22207
1.88631
1.64007
1.47476
1.3802
1.34948
1.38019
1.47476
1.64022
1.88727
2.22608
2.71071
2.67534
1.24984
0.782589
0.706826
0.726899
0.785517
0.860506
0.930134
0.97754
0.999677
1.00519
1.00414
1.00214
1.00084
1.00025
1.00005
0.999997
0.999992
0.999995
0.999998
0.999999
1
1
0.644393
1.00695
2.62438
2.54648
2.04337
1.65001
1.35981
1.15635
1.02408
0.950311
0.926691
0.950305
1.02409
1.15653
1.36077
1.65377
2.05398
2.56821
2.78992
1.24811
0.791786
0.729525
0.756678
0.819334
0.89239
0.95301
0.988654
1.00223
1.00419
1.00271
1.00123
1.00043
1.00011
1.00001
0.999995
0.999995
0.999998
0.999999
1
1
0.828013
2.00405
2.69597
2.04337
1.58128
1.24548
1.00746
0.847459
0.747814
0.694146
0.67729
0.694144
0.747835
0.847641
1.00837
1.24877
1.58983
2.05569
2.65935
2.47087
1.04977
0.763846
0.741808
0.786683
0.857334
0.926687
0.974745
0.997444
1.00355
1.00313
1.00163
1.00064
1.00019
1.00004
1
0.999996
0.999998
1
1
1
1.37155
3.04945
2.22207
1.65001
1.24548
0.963997
0.774816
0.654712
0.583705
0.546919
0.535602
0.546919
0.583729
0.654882
0.775625
0.966792
1.25202
1.65551
2.1999
2.89985
1.69056
0.86665
0.747128
0.766274
0.82902
0.901875
0.95953
0.991131
1.00209
1.0033
1.00199
1.00085
1.00028
1.00007
1.00001
0.999998
0.999999
1
1
1
2.63128
2.75369
1.88631
1.35981
1.00746
0.774816
0.627903
0.54013
0.490864
0.466308
0.458911
0.466309
0.490887
0.540282
0.628597
0.77713
1.01237
1.36124
1.85009
2.5048
2.61438
1.08694
0.776502
0.757889
0.808695
0.880847
0.944828
0.98409
0.999998
1.00316
1.00225
1.00104
1.00036
1.00009
1.00001
0.999997
0.999999
1
1
1
3.54649
2.43447
1.64007
1.15635
0.847459
0.654712
0.54013
0.475401
0.440807
0.424231
0.419352
0.424233
0.44083
0.475535
0.540721
0.656616
0.851117
1.15475
1.59546
2.1959
2.91166
1.42854
0.830133
0.759169
0.79575
0.864696
0.93218
0.977317
0.997623
1.00277
1.00237
1.00117
1.00041
1.00009
0.999998
0.999983
0.99999
0.999999
1
1.00001
3.46169
2.22514
1.47476
1.02408
0.747814
0.583705
0.490864
0.440807
0.415227
0.40346
0.400087
0.403462
0.415249
0.440928
0.491379
0.58531
0.7506
1.02042
1.4253
1.9904
2.77298
1.80687
0.897649
0.766143
0.788574
0.853564
0.922588
0.971705
0.99539
1.00221
1.00232
1.00115
1.00036
1.00001
0.999919
0.99992
0.999947
0.999973
0.999992
1
3.29236
2.10319
1.3802
0.950311
0.694146
0.546919
0.466308
0.424231
0.40346
0.394239
0.391662
0.394241
0.403481
0.424344
0.466778
0.548347
0.696424
0.945504
1.32826
1.87165
2.63486
2.08864
0.955913
0.773591
0.785227
0.847053
0.916527
0.967868
0.993635
1.00156
1.00202
1.00091
1.0001
0.999756
0.999688
0.99973
0.999803
0.999874
0.999928
0.999956
3.22874
2.06305
1.34948
0.926691
0.67729
0.535602
0.458911
0.419352
0.400087
0.391662
0.389335
0.391665
0.400108
0.419462
0.459366
0.536972
0.679403
0.921514
1.29678
1.83276
2.58562
2.18724
0.978986
0.776603
0.784097
0.844652
0.914131
0.966138
0.992585
1.00089
1.00148
1.00038
0.999565
0.999233
0.999196
0.999294
0.999442
0.999592
0.999713
0.99978
3.29234
2.10317
1.38019
0.950305
0.694144
0.546919
0.466309
0.424233
0.403462
0.394241
0.391665
0.394244
0.403483
0.424346
0.466779
0.548348
0.696422
0.945496
1.32824
1.8716
2.63476
2.08798
0.955425
0.773042
0.784502
0.846155
0.915533
0.966864
0.992677
1.00066
1.00114
0.999987
0.999094
0.998663
0.998538
0.998594
0.998759
0.998972
0.999168
0.999285
3.46162
2.22512
1.47476
1.02409
0.747835
0.583729
0.490887
0.44083
0.415249
0.403481
0.400108
0.403483
0.41527
0.440951
0.491402
0.585334
0.750618
1.02043
1.42527
1.99029
2.77277
1.80502
0.896434
0.764897
0.787175
0.852211
0.921592
0.971281
0.995557
1.00281
1.00306
1.00171
1.00044
0.999453
0.998719
0.998233
0.998006
0.997998
0.998105
0.998202
3.54586
2.43457
1.64022
1.15653
0.847641
0.654882
0.540282
0.475535
0.440928
0.424344
0.419462
0.424346
0.440951
0.47567
0.540873
0.656785
0.851292
1.1549
1.59555
2.19585
2.91088
1.42493
0.827999
0.757437
0.794758
0.865367
0.935395
0.983392
1.0062
1.013
1.01315
1.01132
1.00887
1.00612
1.0033
1.00073
0.998728
0.997413
0.996708
0.996428
2.62536
2.75462
1.88727
1.36077
1.00837
0.775625
0.628597
0.540721
0.491379
0.466778
0.459366
0.466779
0.491402
0.540873
0.629289
0.777932
1.01326
1.36215
1.85097
2.50566
2.60772
1.08176
0.774076
0.757794
0.812949
0.892101
0.96479
1.01263
1.03539
1.0428
1.04326
1.04054
1.03565
1.02894
1.02104
1.01294
1.00572
1.00017
0.996568
0.994845
1.36434
3.0507
2.22608
1.65377
1.24877
0.966792
0.77713
0.656616
0.58531
0.548347
0.536972
0.548348
0.585334
0.656785
0.777932
0.969564
1.25524
1.65916
2.2039
2.90455
1.67707
0.861841
0.747853
0.775575
0.852694
0.944768
1.02254
1.07108
1.09374
1.10137
1.102
1.09878
1.09199
1.08107
1.06599
1.04804
1.02976
1.01399
1.00282
0.997147
0.823406
1.99695
2.71071
2.05398
1.58983
1.25202
1.01237
0.851117
0.7506
0.696424
0.679403
0.696422
0.750618
0.851292
1.01326
1.25524
1.59825
2.06621
2.67432
2.46358
1.04175
0.765084
0.756637
0.825268
0.928822
1.03162
1.1043
1.13961
1.14907
1.14784
1.14555
1.14548
1.14646
1.14455
1.13493
1.11461
1.08524
1.05345
1.02748
1.01326
0.645543
1.01707
2.67534
2.56821
2.05569
1.65551
1.36124
1.15475
1.02042
0.945504
0.921514
0.945496
1.02043
1.1549
1.36215
1.65916
2.06621
2.59047
2.83544
1.26181
0.800767
0.752724
0.811247
0.918588
1.03044
1.1043
1.1266
1.11249
1.08566
1.06361
1.0549
1.06193
1.08328
1.11407
1.14517
1.16372
1.15827
1.12857
1.09013
1.06429
0.600293
0.71035
1.24984
2.78992
2.65935
2.1999
1.85009
1.59546
1.4253
1.32826
1.29678
1.32824
1.42527
1.59555
1.85097
2.2039
2.67432
2.83544
1.36798
0.83163
0.756153
0.806822
0.912339
1.01404
1.05888
1.04124
0.98707
0.924982
0.873833
0.841746
0.830676
0.840714
0.871963
0.924282
0.995252
1.07651
1.15014
1.19226
1.19355
1.17792
0.610963
0.652865
0.782589
1.24811
2.47087
2.89985
2.5048
2.1959
1.9904
1.87165
1.83276
1.8716
1.99029
2.19585
2.50566
2.90455
2.46358
1.26181
0.83163
0.758556
0.806498
0.908497
0.990209
0.993166
0.932302
0.846203
0.763067
0.697534
0.653273
0.628434
0.62037
0.62793
0.652144
0.696216
0.764902
0.862597
0.988737
1.12961
1.25201
1.31911
0.659963
0.674095
0.706826
0.791786
1.04977
1.69056
2.61438
2.91166
2.77298
2.63486
2.58562
2.63476
2.77277
2.91088
2.60772
1.67707
1.04175
0.800767
0.756153
0.806498
0.907101
0.973399
0.941252
0.846876
0.740931
0.650183
0.583828
0.540513
0.514806
0.501537
0.497424
0.501337
0.514298
0.539692
0.583837
0.656773
0.772008
0.940026
1.143
1.29742
0.74075
0.734635
0.726899
0.729525
0.763846
0.86665
1.08694
1.42854
1.80687
2.08864
2.18724
2.08798
1.80502
1.42493
1.08176
0.861841
0.765084
0.752724
0.806822
0.908497
0.973399
0.922259
0.802829
0.681191
0.586125
0.522432
0.484197
0.463145
0.452488
0.44773
0.446388
0.447658
0.452299
0.462832
0.484272
0.525801
0.603208
0.736135
0.916865
1.05845
0.838002
0.817293
0.785517
0.756678
0.741808
0.747128
0.776502
0.830133
0.897649
0.955913
0.978986
0.955425
0.896434
0.827999
0.774076
0.747853
0.756637
0.811247
0.912339
0.990209
0.941252
0.802829
0.662266
0.558171
0.493718
0.45888
0.442615
0.436718
0.435811
0.436528
0.436967
0.436502
0.435751
0.436672
0.442977
0.461419
0.504019
0.586163
0.701048
0.786827
0.92597
0.900626
0.860506
0.819334
0.786683
0.766274
0.757889
0.759169
0.766143
0.773591
0.776603
0.773042
0.764897
0.757437
0.757794
0.775575
0.825268
0.918588
1.01404
0.993166
0.846876
0.681191
0.558171
0.485431
0.449423
0.435655
0.434092
0.438437
0.444544
0.449485
0.451356
0.449475
0.444535
0.43851
0.434618
0.437873
0.456122
0.497484
0.553954
0.592443
0.983117
0.963325
0.930134
0.89239
0.857334
0.82902
0.808695
0.79575
0.788574
0.785227
0.784097
0.784502
0.787175
0.794758
0.812949
0.852694
0.928822
1.03044
1.05888
0.932302
0.740931
0.586125
0.493718
0.449423
0.43412
0.434831
0.444003
0.456894
0.469789
0.479322
0.482845
0.479318
0.469801
0.457024
0.444608
0.436823
0.438626
0.452837
0.471621
0.481821
1.007
0.996584
0.97754
0.95301
0.926687
0.901875
0.880847
0.864696
0.853564
0.847053
0.844652
0.846155
0.852211
0.865367
0.892101
0.944768
1.03162
1.1043
1.04124
0.846203
0.650183
0.522432
0.45888
0.435655
0.434831
0.446512
0.465353
0.487596
0.509226
0.525364
0.5314
0.525363
0.509252
0.48777
0.46602
0.448343
0.437915
0.434427
0.431235
0.426549
1.01049
1.00697
0.999677
0.988654
0.974745
0.95953
0.944828
0.93218
0.922588
0.916527
0.914131
0.915533
0.921592
0.935395
0.96479
1.02254
1.1043
1.1266
0.98707
0.763067
0.583828
0.484197
0.442615
0.434092
0.444003
0.465353
0.494688
0.529085
0.563748
0.590743
0.601125
0.590744
0.563791
0.529308
0.495433
0.467104
0.446152
0.430253
0.413917
0.401311
1.00704
1.00659
1.00519
1.00223
0.997444
0.991131
0.98409
0.977317
0.971705
0.967868
0.966138
0.966864
0.971281
0.983392
1.01263
1.07108
1.13961
1.11249
0.924982
0.697534
0.540513
0.463145
0.436718
0.438437
0.456894
0.487596
0.529085
0.579795
0.634207
0.679252
0.697246
0.679257
0.634272
0.580083
0.529937
0.489343
0.458434
0.433023
0.408166
0.390954
1.00343
1.00376
1.00414
1.00419
1.00355
1.00209
0.999998
0.997623
0.99539
0.993635
0.992585
0.992677
0.995557
1.0062
1.03539
1.09374
1.14907
1.08566
0.873833
0.653273
0.514806
0.452488
0.435811
0.444544
0.469789
0.509226
0.563748
0.634207
0.715315
0.787038
0.816871
0.787047
0.715408
0.634575
0.564727
0.511019
0.470945
0.438144
0.407527
0.387442
1.00131
1.00162
1.00214
1.00271
1.00313
1.0033
1.00316
1.00277
1.00221
1.00156
1.00089
1.00066
1.00281
1.013
1.0428
1.10137
1.14784
1.06361
0.841746
0.628434
0.501537
0.44773
0.436528
0.449485
0.479322
0.525364
0.590743
0.679252
0.787038
0.887453
0.930554
0.887467
0.78716
0.679693
0.591832
0.527215
0.480266
0.442521
0.408395
0.386645
1.00038
1.00054
1.00084
1.00123
1.00163
1.00199
1.00225
1.00237
1.00232
1.00202
1.00148
1.00114
1.00306
1.01315
1.04326
1.102
1.14555
1.0549
0.830676
0.62037
0.497424
0.446388
0.436967
0.451356
0.482845
0.5314
0.601125
0.697246
0.816871
0.930554
0.979926
0.930571
0.817006
0.697718
0.602259
0.533276
0.483721
0.444205
0.408882
0.386576
1.00006
1.00013
1.00025
1.00043
1.00064
1.00085
1.00104
1.00117
1.00115
1.00091
1.00038
0.999987
1.00171
1.01132
1.04054
1.09878
1.14548
1.06193
0.840714
0.62793
0.501337
0.447658
0.436502
0.449475
0.479318
0.525363
0.590744
0.679257
0.787047
0.887467
0.930571
0.887481
0.787169
0.679698
0.591833
0.527213
0.480262
0.442514
0.408387
0.386637
0.999988
1.00001
1.00005
1.00011
1.00019
1.00028
1.00036
1.00041
1.00036
1.0001
0.999565
0.999094
1.00044
1.00887
1.03565
1.09199
1.14646
1.08328
0.871963
0.652144
0.514298
0.452299
0.435751
0.444535
0.469801
0.509252
0.563791
0.634272
0.715408
0.78716
0.817006
0.787169
0.715501
0.634639
0.564769
0.511045
0.470958
0.438147
0.407522
0.387433
0.999983
0.999987
0.999997
1.00001
1.00004
1.00007
1.00009
1.00009
1.00001
0.999756
0.999233
0.998663
0.999453
1.00612
1.02894
1.08107
1.14455
1.11407
0.924282
0.696216
0.539692
0.462832
0.436672
0.43851
0.457024
0.48777
0.529308
0.580083
0.634575
0.679693
0.697718
0.679698
0.634639
0.580371
0.53016
0.489519
0.458577
0.433139
0.408254
0.39102
0.99999
0.999991
0.999992
0.999995
1
1.00001
1.00001
0.999998
0.999919
0.999688
0.999196
0.998538
0.998719
1.0033
1.02104
1.06599
1.13493
1.14517
0.995252
0.764902
0.583837
0.484272
0.442977
0.434618
0.444608
0.46602
0.495433
0.529937
0.564727
0.591832
0.602259
0.591833
0.564769
0.53016
0.496183
0.467794
0.446823
0.430924
0.414555
0.401888
0.999996
0.999996
0.999995
0.999995
0.999996
0.999998
0.999997
0.999983
0.99992
0.99973
0.999294
0.998594
0.998233
1.00073
1.01294
1.04804
1.11461
1.16372
1.07651
0.862597
0.656773
0.525801
0.461419
0.437873
0.436823
0.448343
0.467104
0.489343
0.511019
0.527215
0.533276
0.527213
0.511045
0.489519
0.467794
0.450261
0.440146
0.437109
0.434247
0.4296
0.999999
0.999998
0.999998
0.999998
0.999998
0.999999
0.999999
0.99999
0.999947
0.999803
0.999442
0.998759
0.998006
0.998728
1.00572
1.02976
1.08524
1.15827
1.15014
0.988737
0.772008
0.603208
0.504019
0.456122
0.438626
0.437915
0.446152
0.458434
0.470945
0.480266
0.483721
0.480262
0.470958
0.458577
0.446823
0.440146
0.44382
0.460878
0.482668
0.494445
1
0.999999
0.999999
0.999999
1
1
1
0.999999
0.999973
0.999874
0.999592
0.998972
0.997998
0.997413
1.00017
1.01399
1.05345
1.12857
1.19226
1.12961
0.940026
0.736135
0.586163
0.497484
0.452837
0.434427
0.430253
0.433023
0.438144
0.442521
0.444205
0.442514
0.438147
0.433139
0.430924
0.437109
0.460878
0.51233
0.582685
0.631231
1
1
1
1
1
1
1
1
0.999992
0.999928
0.999713
0.999168
0.998105
0.996708
0.996568
1.00282
1.02748
1.09013
1.19355
1.25201
1.143
0.916865
0.701048
0.553954
0.471621
0.431235
0.413917
0.408166
0.407527
0.408395
0.408882
0.408387
0.407522
0.408254
0.414555
0.434247
0.482668
0.582685
0.732639
0.850753
1
1
1
1
1
1
1
1.00001
1
0.999956
0.99978
0.999285
0.998202
0.996428
0.994845
0.997147
1.01326
1.06429
1.17792
1.31911
1.29742
1.05845
0.786827
0.592443
0.481821
0.426549
0.401311
0.390954
0.387442
0.386645
0.386576
0.386637
0.387433
0.39102
0.401888
0.4296
0.494445
0.631231
0.850753
1.03771
SCALARS C2 double 1
LOOKUP_TABLE default
3.6872
3.81326
4.00269
4.17136
4.22598
3.90135
2.57012
1.20804
0.928196
0.903889
0.906415
0.903904
0.928295
1.20917
2.57763
3.90984
4.23357
4.18205
4.0162
3.80177
3.56631
3.33774
3.14925
3.02741
2.9746
2.96778
2.97832
2.98925
2.99581
2.99876
2.99979
3.00004
3.00006
3.00003
3.00001
3.00001
3
3
3
3
3.81326
3.91253
4.0423
3.99998
3.07007
1.38529
1.08931
1.14131
1.21327
1.26406
1.28204
1.26407
1.2133
1.14135
1.08955
1.39088
3.08707
4.00409
4.03779
3.8677
3.64739
3.42143
3.22316
3.08023
3.00282
2.97771
2.97954
2.98811
2.99475
2.99819
2.99956
2.99997
3.00004
3.00003
3.00002
3.00001
3
3
3
3
4.00269
4.0423
3.84087
2.11968
1.14141
1.22197
1.37019
1.51084
1.62274
1.69408
1.71853
1.69409
1.62275
1.51079
1.36983
1.22051
1.13659
2.06824
3.74564
3.92798
3.77173
3.55748
3.34538
3.17037
3.05429
2.99822
2.98354
2.98675
2.99298
2.99716
2.99912
2.99982
3.00001
3.00003
3.00002
3.00001
3
3
3
3
4.17136
3.99998
2.11968
1.14788
1.29258
1.49572
1.69648
1.87004
2.00178
2.0834
2.11097
2.0834
2.00179
1.86997
1.69596
1.49372
1.28715
1.13389
1.84701
3.70384
3.87067
3.70042
3.48165
3.27697
3.12111
3.02919
2.99225
2.98652
2.99107
2.99583
2.9985
2.9996
2.99995
3.00002
3.00002
3.00001
3
3
3
3
4.22598
3.07007
1.14141
1.29258
1.53573
1.78465
2.0116
2.19876
2.33612
2.41946
2.44735
2.41947
2.33613
2.19869
2.01102
1.78239
1.53009
1.28285
1.12109
2.34163
3.81145
3.81048
3.60625
3.38315
3.19468
3.06847
3.00653
2.98857
2.98966
2.99444
2.99776
2.99931
2.99986
3
3.00002
3.00001
3
3
3
3
3.90135
1.38529
1.22197
1.49572
1.78465
2.05729
2.29412
2.48279
2.6185
2.70012
2.72736
2.70013
2.61851
2.48272
2.29355
2.05495
1.77888
1.4887
1.22357
1.19659
3.25937
3.84818
3.70472
3.47808
3.26707
3.11197
3.02544
2.99327
2.98917
2.99322
2.997
2.99898
2.99975
2.99997
3.00001
3.00001
3
3
3
3
2.57012
1.08931
1.37019
1.69648
2.0116
2.29412
2.53105
2.71642
2.84917
2.92918
2.95596
2.92919
2.84918
2.71637
2.53054
2.29184
2.0059
1.69091
1.37978
1.13593
2.06244
3.75243
3.76879
3.55554
3.33187
3.15476
3.04657
3.00002
2.98972
2.99234
2.9963
2.99865
2.99963
2.99994
3
3.00001
3
2.99999
2.99999
2.99999
1.20804
1.14131
1.51084
1.87004
2.19876
2.48279
2.71642
2.89858
3.02971
3.1093
3.13605
3.10931
3.02973
2.89855
2.71599
2.48064
2.19323
1.86554
1.52683
1.22425
1.31626
3.46503
3.79452
3.6128
3.38463
3.19231
3.0669
3.00759
2.99103
2.99185
2.99576
2.99838
2.99954
2.99993
3.00001
3.00001
3
2.99999
2.99999
2.99998
0.928196
1.21327
1.62274
2.00178
2.33612
2.6185
2.84917
3.02971
3.16068
3.24073
3.26774
3.24073
3.1607
3.0297
2.84879
2.61648
2.33076
1.998
1.64328
1.31065
1.14904
3.04559
3.78694
3.65015
3.42295
3.22124
3.08365
3.0145
2.99269
2.99178
2.99551
2.99829
2.99958
3.00001
3.00009
3.00007
3.00003
3
2.99998
2.99997
0.903889
1.26406
1.69408
2.0834
2.41946
2.70012
2.92918
3.1093
3.24073
3.32142
3.34872
3.32143
3.24074
3.1093
2.92884
2.69818
2.41422
2.08002
1.71731
1.36877
1.13121
2.68937
3.76489
3.67031
3.44601
3.23948
3.09478
3.01956
2.99431
2.99219
2.99575
2.99861
2.99996
3.00037
3.0004
3.0003
3.00019
3.00009
3.00003
2.99999
0.906415
1.28204
1.71853
2.11097
2.44735
2.72736
2.95596
3.13605
3.26774
3.34872
3.37613
3.34872
3.26775
3.13605
2.95563
2.72546
2.44215
2.10773
1.74264
1.38908
1.13325
2.55656
3.75364
3.6767
3.45396
3.24614
3.09929
3.02214
2.9958
2.9933
2.9968
2.99967
3.00099
3.00133
3.00123
3.00097
3.00069
3.00044
3.00025
3.00015
0.903904
1.26407
1.69409
2.0834
2.41947
2.70013
2.92919
3.10931
3.24073
3.32143
3.34872
3.32143
3.24075
3.1093
2.92885
2.69819
2.41423
2.08004
1.71733
1.36879
1.13128
2.69012
3.76542
3.67103
3.44719
3.24123
3.09705
3.02219
2.99715
2.99513
2.99872
3.00156
3.00284
3.00312
3.0029
3.00245
3.00191
3.00138
3.00096
3.00073
0.928295
1.2133
1.62275
2.00179
2.33613
2.61851
2.84918
3.02973
3.1607
3.24074
3.26775
3.24075
3.16072
3.02971
2.8488
2.61649
2.33077
1.99802
1.64331
1.31071
1.14935
3.04781
3.78844
3.65217
3.42596
3.22522
3.0882
3.01921
2.99728
2.9962
2.99986
3.00275
3.00427
3.00491
3.00503
3.00475
3.00416
3.00341
3.00272
3.00231
1.20917
1.14135
1.51079
1.86997
2.19869
2.48272
2.71637
2.89855
3.0297
3.1093
3.13605
3.1093
3.02971
2.89852
2.71594
2.48057
2.19316
1.86548
1.52682
1.22436
1.31815
3.46958
3.79782
3.61703
3.38993
3.19767
3.07092
3.0094
2.99056
2.98974
2.99309
2.99637
2.99922
3.00186
3.00416
3.0058
3.00655
3.00652
3.00609
3.00572
2.57763
1.08955
1.36983
1.69596
2.01102
2.29355
2.53054
2.71599
2.84879
2.92884
2.95563
2.92885
2.8488
2.71594
2.53004
2.29128
2.00534
1.69044
1.37948
1.13611
2.07358
3.75964
3.77474
3.56188
3.33644
3.15351
3.03604
2.97915
2.95988
2.95659
2.95859
2.96313
2.97004
2.9789
2.98851
2.99732
3.00408
3.00835
3.01048
3.01126
3.90984
1.39088
1.22051
1.49372
1.78239
2.05495
2.29184
2.48064
2.61648
2.69818
2.72546
2.69819
2.61649
2.48057
2.29128
2.05263
1.77667
1.4868
1.22221
1.1995
3.27985
3.85822
3.71256
3.48058
3.25506
3.07528
2.95877
2.89811
2.87189
2.86236
2.86174
2.8685
2.88281
2.90411
2.9302
2.95737
2.98152
2.99974
3.01116
3.01645
4.23357
3.08707
1.13659
1.28715
1.53009
1.77888
2.0059
2.19323
2.33076
2.41422
2.44215
2.41423
2.33077
2.19316
2.00534
1.77667
1.52458
1.27765
1.11647
2.36668
3.82985
3.8221
3.60734
3.35689
3.11874
2.92956
2.80778
2.74421
2.71631
2.70605
2.70492
2.7111
2.72639
2.75394
2.79564
2.84913
2.9065
2.95711
2.99285
3.01074
4.18205
4.00409
2.06824
1.13389
1.28285
1.4887
1.69091
1.86554
1.998
2.08002
2.10773
2.08004
1.99802
1.86548
1.69044
1.4868
1.27765
1.12065
1.80457
3.70918
3.8839
3.70174
3.44229
3.15725
2.89963
2.72253
2.63677
2.61426
2.62036
2.63177
2.63754
2.63508
2.62777
2.62417
2.63685
2.67819
2.75132
2.84142
2.9205
2.96502
4.0162
4.03779
3.74564
1.84701
1.12109
1.22357
1.37978
1.52683
1.64328
1.71731
1.74264
1.71733
1.64331
1.52682
1.37948
1.22221
1.11647
1.80457
3.63415
3.90719
3.75796
3.50137
3.18561
2.88053
2.68083
2.61236
2.63354
2.69149
2.74962
2.78949
2.80385
2.79123
2.75412
2.69944
2.6404
2.5979
2.59774
2.65525
2.74888
2.81987
3.80177
3.8677
3.92798
3.70384
2.34163
1.19659
1.13593
1.22425
1.31065
1.36877
1.38908
1.36879
1.31071
1.22436
1.13611
1.1995
2.36668
3.70918
3.90719
3.77634
3.5309
3.20254
2.87531
2.68383
2.6574
2.73625
2.85382
2.96608
3.05234
3.10542
3.12339
3.1061
3.05447
2.97111
2.86194
2.73891
2.62304
2.54379
2.52283
2.53894
3.56631
3.64739
3.77173
3.87067
3.81145
3.25937
2.06244
1.31626
1.14904
1.13121
1.13325
1.13128
1.14935
1.31815
2.07358
3.27985
3.82985
3.8839
3.75796
3.5309
3.20815
2.87662
2.70306
2.71887
2.8488
3.01663
3.17423
3.30124
3.39233
3.44687
3.46506
3.44706
3.39307
3.30353
3.17953
3.02329
2.83886
2.63507
2.43754
2.3064
3.33774
3.42143
3.55748
3.70042
3.81048
3.84818
3.75243
3.46503
3.04559
2.68937
2.55656
2.69012
3.04781
3.46958
3.75964
3.85822
3.8221
3.70174
3.50137
3.20254
2.87662
2.71254
2.75778
2.9271
3.13498
3.32958
3.49116
3.61613
3.70488
3.75798
3.77567
3.75803
3.70512
3.61701
3.49364
3.3336
3.13061
2.87147
2.56948
2.34533
3.14925
3.22316
3.34538
3.48165
3.60625
3.70472
3.76879
3.79452
3.78694
3.76489
3.75364
3.76542
3.78844
3.79782
3.77474
3.71256
3.60734
3.44229
3.18561
2.87531
2.70306
2.75778
2.95445
3.19539
3.42258
3.61563
3.77205
3.89294
3.97902
4.03057
4.04774
4.0306
3.97914
3.89337
3.77327
3.61735
3.41707
3.14953
2.81876
2.57238
3.02741
3.08023
3.17037
3.27697
3.38315
3.47808
3.55554
3.6128
3.65015
3.67031
3.6767
3.67103
3.65217
3.61703
3.56188
3.48058
3.35689
3.15725
2.88053
2.68383
2.71887
2.9271
3.19539
3.45335
3.67682
3.86345
4.01487
4.13195
4.21503
4.26451
4.28093
4.26452
4.2151
4.13223
4.01567
3.86441
3.67099
3.41129
3.084
2.84062
2.9746
3.00282
3.05429
3.12111
3.19468
3.26707
3.33187
3.38463
3.42295
3.44601
3.45396
3.44719
3.42596
3.38993
3.33644
3.25506
3.11874
2.89963
2.68083
2.6574
2.8488
3.13498
3.42258
3.67682
3.89351
4.07456
4.22095
4.33287
4.41093
4.45657
4.47152
4.45658
4.41097
4.33304
4.2215
4.07532
3.88858
3.63878
3.32022
3.08091
2.96778
2.97771
2.99822
3.02919
3.06847
3.11197
3.15476
3.19231
3.22124
3.23948
3.24614
3.24123
3.22522
3.19767
3.15351
3.07528
2.92956
2.72253
2.61236
2.73625
3.01663
3.32958
3.61563
3.86345
4.07456
4.25001
4.38945
4.49278
4.56158
4.59969
4.61168
4.59969
4.5616
4.49284
4.38975
4.25056
4.0707
3.82986
3.51805
3.27901
2.97832
2.97954
2.98354
2.99225
3.00653
3.02544
3.04657
3.0669
3.08365
3.09478
3.09929
3.09705
3.0882
3.07092
3.03604
2.95877
2.80778
2.63677
2.63354
2.85382
3.17423
3.49116
3.77205
4.01487
4.22095
4.38945
4.5186
4.6078
4.66014
4.68399
4.69019
4.68399
4.66013
4.60775
4.51862
4.38969
4.21788
3.98533
3.67842
3.43739
2.98925
2.98811
2.98675
2.98652
2.98857
2.99327
3.00002
3.00759
3.0145
3.01956
3.02214
3.02219
3.01921
3.0094
2.97915
2.89811
2.74421
2.61426
2.69149
2.96608
3.30124
3.61613
3.89294
4.13195
4.33287
4.49278
4.6078
4.67583
4.70128
4.70007
4.69563
4.70007
4.70124
4.67566
4.60752
4.49264
4.33032
4.10571
3.80279
3.55926
2.99581
2.99475
2.99298
2.99107
2.98966
2.98917
2.98972
2.99103
2.99269
2.99431
2.9958
2.99715
2.99728
2.99056
2.95988
2.87189
2.71631
2.62036
2.74962
3.05234
3.39233
3.70488
3.97902
4.21503
4.41093
4.56158
4.66014
4.70128
4.68931
4.65032
4.62907
4.65032
4.68924
4.70098
4.65956
4.56108
4.40869
4.19124
3.89165
3.64606
2.99876
2.99819
2.99716
2.99583
2.99444
2.99322
2.99234
2.99185
2.99178
2.99219
2.9933
2.99513
2.9962
2.98974
2.95659
2.86236
2.70605
2.63177
2.78949
3.10542
3.44687
3.75798
4.03057
4.26451
4.45657
4.59969
4.68399
4.70007
4.65032
4.57044
4.53024
4.57044
4.65022
4.69966
4.68318
4.5989
4.45449
4.24226
3.94502
3.69815
2.99979
2.99956
2.99912
2.9985
2.99776
2.997
2.9963
2.99576
2.99551
2.99575
2.9968
2.99872
2.99986
2.99309
2.95859
2.86174
2.70492
2.63754
2.80385
3.12339
3.46506
3.77567
4.04774
4.28093
4.47152
4.61168
4.69019
4.69563
4.62907
4.53024
4.48107
4.53024
4.62895
4.69518
4.68929
4.61079
4.4695
4.25921
3.96282
3.71553
3.00004
2.99997
2.99982
2.9996
2.99931
2.99898
2.99865
2.99838
2.99829
2.99861
2.99967
3.00156
3.00275
2.99637
2.96313
2.8685
2.7111
2.63508
2.79123
3.1061
3.44706
3.75803
4.0306
4.26452
4.45658
4.59969
4.68399
4.70007
4.65032
4.57044
4.53024
4.57043
4.65022
4.69967
4.68319
4.59891
4.4545
4.24228
3.94504
3.69818
3.00006
3.00004
3.00001
2.99995
2.99986
2.99975
2.99963
2.99954
2.99958
2.99996
3.00099
3.00284
3.00427
2.99922
2.97004
2.88281
2.72639
2.62777
2.75412
3.05447
3.39307
3.70512
3.97914
4.2151
4.41097
4.5616
4.66013
4.70124
4.68924
4.65022
4.62895
4.65022
4.68916
4.70094
4.65955
4.56109
4.40873
4.19132
3.89177
3.64619
3.00003
3.00003
3.00003
3.00002
3
2.99997
2.99994
2.99993
3.00001
3.00037
3.00133
3.00312
3.00491
3.00186
2.9789
2.90411
2.75394
2.62417
2.69944
2.97111
3.30353
3.61701
3.89337
4.13223
4.33304
4.49284
4.60775
4.67566
4.70098
4.69966
4.69518
4.69967
4.70094
4.6755
4.60748
4.49271
4.33049
4.10602
3.80325
3.55975
3.00001
3.00002
3.00002
3.00002
3.00002
3.00001
3
3.00001
3.00009
3.0004
3.00123
3.0029
3.00503
3.00416
2.98851
2.9302
2.79564
2.63685
2.6404
2.86194
3.17953
3.49364
3.77327
4.01567
4.2215
4.38975
4.51862
4.60752
4.65956
4.68318
4.68929
4.68319
4.65955
4.60748
4.51864
4.38997
4.21842
3.98619
3.67966
3.43875
3.00001
3.00001
3.00001
3.00001
3.00001
3.00001
3.00001
3.00001
3.00007
3.0003
3.00097
3.00245
3.00475
3.0058
2.99732
2.95737
2.84913
2.67819
2.5979
2.73891
3.02329
3.3336
3.61735
3.86441
4.07532
4.25056
4.38969
4.49264
4.56108
4.5989
4.61079
4.59891
4.56109
4.49271
4.38997
4.25105
4.07132
3.83062
3.51936
3.28079
3
3
3
3
3
3
3
3
3.00003
3.00019
3.00069
3.00191
3.00416
3.00655
3.00408
2.98152
2.9065
2.75132
2.59774
2.62304
2.83886
3.13061
3.41707
3.67099
3.88858
4.0707
4.21788
4.33032
4.40869
4.45449
4.4695
4.4545
4.40873
4.33049
4.21842
4.07132
3.88299
3.63108
3.31195
3.07397
3
3
3
3
3
3
2.99999
2.99999
3
3.00009
3.00044
3.00138
3.00341
3.00652
3.00835
2.99974
2.95711
2.84142
2.65525
2.54379
2.63507
2.87147
3.14953
3.41129
3.63878
3.82986
3.98533
4.10571
4.19124
4.24226
4.25921
4.24228
4.19132
4.10602
3.98619
3.83062
3.63108
3.36267
3.02869
2.78594
3
3
3
3
3
3
2.99999
2.99999
2.99998
3.00003
3.00025
3.00096
3.00272
3.00609
3.01048
3.01116
2.99285
2.9205
2.74888
2.52283
2.43754
2.56948
2.81876
3.084
3.32022
3.51805
3.67842
3.80279
3.89165
3.94502
3.96282
3.94504
3.89177
3.80325
3.67966
3.51936
3.31195
3.02869
2.67212
2.40949
3
3
3
3
3
3
2.99999
2.99998
2.99997
2.99999
3.00015
3.00073
3.00231
3.00572
3.01126
3.01645
3.01074
2.96502
2.81987
2.53894
2.3064
2.34533
2.57238
2.84062
3.08091
3.27901
3.43739
3.55926
3.64606
3.69815
3.71553
3.69818
3.64619
3.55975
3.43875
3.28079
3.07397
2.78594
2.40949
2.11926
