# vtk DataFile Version 3.0
Brusselator Concentration Output
ASCII
DATASET STRUCTURED_POINTS
DIMENSIONS 40 40 1
ORIGIN 0.0 0.0 0.0
SPACING 0.005 0.005 1.0
POINT_DATA 1600
SCALARS C1 double 1
LOOKUP_TABLE default
0.652659
0.62508
0.586039
0.557988
0.552872
0.574994
0.632283
0.734341
0.875454
1.00896
1.06457
1.00895
0.875409
0.734168
0.631805
0.573821
0.55032
0.553993
0.585933
0.650462
0.74588
0.855124
0.948097
1.00195
1.01851
1.01575
1.00883
1.0038
1.00127
1.00029
1
0.999959
0.999971
0.999987
0.999995
0.999998
1
1
1
1
0.62508
0.615108
0.601804
0.601963
0.643747
0.790496
1.1514
1.77002
2.50394
2.93407
3.03927
2.93403
2.50369
1.76918
1.1497
0.78787
0.640343
0.598997
0.607077
0.650726
0.725767
0.820537
0.912154
0.977081
1.00733
1.01307
1.00919
1.00457
1.00176
1.00051
1.00008
0.999978
0.999974
0.999986
0.999994
0.999998
0.999999
1
1
1
0.586039
0.601804
0.636508
0.730825
1.08067
2.12435
3.15033
2.9081
2.60165
2.43004
2.37623
2.43002
2.6016
2.90803
3.14943
2.11496
1.07293
0.730332
0.652101
0.653278
0.695888
0.768719
0.856163
0.934986
0.985852
1.00654
1.00904
1.00574
1.00262
1.00092
1.00023
1.00002
0.999982
0.999985
0.999993
0.999997
0.999999
1
1
1
0.557988
0.601963
0.730825
1.25107
2.87263
2.93044
2.44933
2.11837
1.89237
1.76145
1.71869
1.76143
1.89234
2.11837
2.44977
2.93393
2.86789
1.25949
0.7642
0.671098
0.673211
0.721158
0.799285
0.886413
0.95658
0.995109
1.00714
1.00671
1.00366
1.00148
1.00046
1.00009
0.999997
0.999986
0.999992
0.999997
0.999999
1
1
1
0.552872
0.643747
1.08067
2.87263
2.82188
2.29081
1.88255
1.59066
1.39731
1.2876
1.25211
1.28759
1.39729
1.59071
1.88313
2.29387
2.83478
2.91164
1.16584
0.738142
0.671485
0.690229
0.753413
0.84041
0.923617
0.979096
1.00271
1.00688
1.00462
1.00212
1.00074
1.00019
1.00002
0.99999
0.999991
0.999996
0.999999
1
1
1
0.574994
0.790496
2.12435
2.93044
2.29081
1.80906
1.4557
1.20825
1.04771
0.958454
0.929949
0.958447
1.0477
1.20833
1.45634
1.81214
2.30133
2.95162
2.34771
0.944632
0.701245
0.67851
0.722211
0.802281
0.891412
0.960351
0.995843
1.00595
1.00528
1.00274
1.00105
1.0003
1.00006
0.999997
0.999992
0.999996
0.999999
1
1
1
0.632283
1.1514
3.15033
2.44933
1.88255
1.4557
1.14959
0.941523
0.811136
0.740827
0.718763
0.740822
0.811136
0.941622
1.15026
1.45866
1.89188
2.47414
3.18286
1.4496
0.778885
0.684336
0.704556
0.773868
0.86341
0.941466
0.987501
1.00401
1.00555
1.00326
1.00136
1.00043
1.0001
1.00001
0.999995
0.999998
1
1
1
1
0.734341
1.77002
2.9081
2.11837
1.59066
1.20825
0.941523
0.767071
0.66211
0.607349
0.590475
0.607346
0.662115
0.767179
0.9422
1.21109
1.5992
2.13523
2.87073
2.27936
0.922048
0.704737
0.697325
0.754688
0.841493
0.924821
0.979103
1.00151
1.00546
1.00363
1.00162
1.00054
1.00013
1.00001
0.999995
0.999998
1
1.00001
1.00001
1.00001
0.875454
2.50394
2.60165
1.89237
1.39731
1.04771
0.811136
0.66211
0.575674
0.531848
0.518553
0.531846
0.575682
0.662221
0.811799
1.05042
1.40512
1.90446
2.5812
2.94278
1.11625
0.733878
0.696653
0.74308
0.826192
0.912071
0.972022
0.999062
1.00515
1.00382
1.00177
1.00059
1.00012
0.99999
0.999973
0.999985
0.999998
1.00001
1.00001
1.00001
1.00896
2.93407
2.43004
1.76145
1.2876
0.958454
0.740827
0.607349
0.531848
0.494301
0.483032
0.4943
0.531858
0.60746
0.741475
0.961073
1.29492
1.77146
2.41873
3.11975
1.28843
0.760481
0.698503
0.737108
0.817261
0.904103
0.967268
0.997207
1.00472
1.00378
1.00172
1.00049
0.999995
0.999868
0.999874
0.999914
0.999955
0.999986
1.00001
1.00002
1.06457
3.03927
2.37623
1.71869
1.25211
0.929949
0.718763
0.590475
0.518553
0.483032
0.472412
0.48303
0.518562
0.590585
0.719404
0.932532
1.25926
1.72811
2.36651
3.13327
1.35732
0.771355
0.699539
0.735248
0.814233
0.901228
0.965355
0.996217
1.00419
1.00337
1.00131
1.00007
0.999588
0.999502
0.999567
0.999676
0.999787
0.999882
0.99995
0.999985
1.00895
2.93403
2.43002
1.76143
1.28759
0.958447
0.740822
0.607346
0.531846
0.4943
0.48303
0.494298
0.531855
0.607457
0.741469
0.961066
1.29491
1.77145
2.41871
3.1197
1.2884
0.760432
0.698383
0.736851
0.816792
0.90338
0.966303
0.996054
1.00345
1.00245
1.00038
0.999162
0.998725
0.998698
0.998849
0.999074
0.99932
0.999546
0.99972
0.999815
0.875409
2.50369
2.6016
1.89234
1.39729
1.0477
0.811136
0.662115
0.575682
0.531858
0.518562
0.531855
0.57569
0.662226
0.8118
1.05041
1.4051
1.90442
2.58112
2.9425
1.11607
0.73366
0.696237
0.742307
0.824933
0.910308
0.969854
0.996648
1.00263
1.00129
0.999243
0.998062
0.9976
0.997524
0.997661
0.997942
0.998321
0.998726
0.999069
0.999266
0.734168
1.76918
2.90803
2.11837
1.59071
1.20833
0.941622
0.767179
0.662221
0.60746
0.590585
0.607457
0.662226
0.767287
0.942299
1.21117
1.59925
2.13522
2.87061
2.27798
0.921416
0.704054
0.696224
0.752946
0.839089
0.922002
0.976253
0.998968
1.0034
1.00198
1.00012
0.998876
0.998022
0.997357
0.996888
0.996706
0.996843
0.997216
0.997642
0.997921
0.631805
1.1497
3.14943
2.44977
1.88313
1.45634
1.15026
0.9422
0.811799
0.741475
0.719404
0.741469
0.8118
0.942299
1.15093
1.45929
1.89245
2.47454
3.18232
1.44644
0.777328
0.682636
0.702244
0.770997
0.860665
0.93997
0.98828
1.00759
1.01182
1.01144
1.01022
1.00855
1.00623
1.00335
1.0004
0.997913
0.996268
0.995493
0.995321
0.995369
0.573821
0.78787
2.11496
2.93393
2.29387
1.81214
1.45866
1.21109
1.05042
0.961073
0.932532
0.961066
1.05041
1.21117
1.45929
1.8152
2.30434
2.95487
2.3368
0.939867
0.698016
0.675086
0.718718
0.800265
0.89378
0.970258
1.01532
1.03524
1.04292
1.04592
1.04613
1.04333
1.03736
1.0288
1.01894
1.00943
1.00166
0.996314
0.993262
0.99196
0.55032
0.640343
1.07293
2.86789
2.83478
2.30133
1.89188
1.5992
1.40512
1.29492
1.25926
1.29491
1.4051
1.59925
1.89245
2.30434
2.84748
2.9062
1.15576
0.732204
0.665912
0.685183
0.751805
0.84837
0.949067
1.0282
1.07715
1.10372
1.1181
1.12549
1.12728
1.12329
1.11292
1.09599
1.07369
1.049
1.02596
1.00788
0.99616
0.990591
0.553993
0.598997
0.730332
1.25949
2.91164
2.95162
2.47414
2.13523
1.90446
1.77146
1.72811
1.77145
1.90442
2.13522
2.47454
2.95487
2.9062
1.2666
0.762304
0.666064
0.667112
0.719132
0.812327
0.930631
1.04588
1.13227
1.18231
1.20417
1.21001
1.20949
1.20826
1.20786
1.20585
1.19676
1.17469
1.13786
1.09204
1.04834
1.01634
1.00012
0.585933
0.607077
0.652101
0.7642
1.16584
2.34771
3.18286
2.87073
2.5812
2.41873
2.36651
2.41871
2.58112
2.87061
3.18232
2.3368
1.15576
0.762304
0.667301
0.65968
0.701153
0.789008
0.918421
1.06401
1.18056
1.2351
1.23164
1.19729
1.15809
1.12979
1.11947
1.12882
1.15544
1.19195
1.2241
1.23216
1.20175
1.14077
1.07841
1.04162
0.650462
0.650726
0.653278
0.671098
0.738142
0.944632
1.4496
2.27936
2.94278
3.11975
3.13327
3.1197
2.9425
2.27798
1.44644
0.939867
0.732204
0.666064
0.65968
0.695516
0.777968
0.912284
1.07696
1.20315
1.2293
1.16803
1.07206
0.981549
0.914032
0.873751
0.860378
0.873274
0.912619
0.978348
1.06668
1.16366
1.23838
1.25241
1.20505
1.15433
0.74588
0.725767
0.695888
0.673211
0.671485
0.701245
0.778885
0.922048
1.11625
1.28843
1.35732
1.2884
1.11607
0.921416
0.777328
0.698016
0.665912
0.667112
0.701153
0.777968
0.910524
1.08282
1.20382
1.18798
1.07026
0.928253
0.807324
0.720336
0.664736
0.634431
0.624824
0.63424
0.664119
0.718765
0.804293
0.925319
1.07697
1.2307
1.33043
1.35442
0.855124
0.820537
0.768719
0.721158
0.690229
0.67851
0.684336
0.704737
0.733878
0.760481
0.771355
0.760432
0.73366
0.704054
0.682636
0.675086
0.685183
0.719132
0.789008
0.912284
1.08282
1.20093
1.15514
0.996995
0.825926
0.69104
0.600136
0.544143
0.512005
0.495692
0.490712
0.495622
0.511772
0.543535
0.599004
0.690653
0.834099
1.03931
1.28248
1.46424
0.948097
0.912154
0.856163
0.799285
0.753413
0.722211
0.704556
0.697325
0.696653
0.698503
0.699539
0.698383
0.696237
0.696224
0.702244
0.718718
0.751805
0.812327
0.918421
1.07696
1.20382
1.15514
0.971113
0.776139
0.629985
0.537951
0.485334
0.457023
0.442653
0.436108
0.434242
0.43608
0.442567
0.456836
0.485199
0.539347
0.639842
0.81528
1.06779
1.28349
1.00195
0.977081
0.934986
0.886413
0.84041
0.802281
0.773868
0.754688
0.74308
0.737108
0.735248
0.736851
0.742307
0.752946
0.770997
0.800265
0.84837
0.930631
1.06401
1.20315
1.18798
0.996995
0.776139
0.611392
0.512381
0.459952
0.43477
0.424121
0.420577
0.419922
0.419935
0.419909
0.420544
0.424092
0.435028
0.461995
0.521961
0.642369
0.829428
0.98625
1.01851
1.00733
0.985852
0.95658
0.923617
0.891412
0.86341
0.841493
0.826192
0.817261
0.814233
0.816792
0.824933
0.839089
0.860665
0.89378
0.949067
1.04588
1.18056
1.2293
1.07026
0.825926
0.629985
0.512381
0.45296
0.427192
0.418979
0.419208
0.422622
0.425962
0.427293
0.425954
0.422609
0.419241
0.419371
0.429282
0.460991
0.533315
0.647602
0.738863
1.01575
1.01307
1.00654
0.995109
0.979096
0.960351
0.941466
0.924821
0.912071
0.904103
0.901228
0.90338
0.910308
0.922002
0.93997
0.970258
1.0282
1.13227
1.2351
1.16803
0.928253
0.69104
0.537951
0.459952
0.427192
0.418115
0.420792
0.428688
0.437634
0.444495
0.447058
0.44449
0.43763
0.428751
0.421236
0.42007
0.433513
0.47244
0.533318
0.578384
1.00883
1.00919
1.00904
1.00714
1.00271
0.995843
0.987501
0.979103
0.972022
0.967268
0.965355
0.966303
0.969854
0.976253
0.98828
1.01532
1.07715
1.18231
1.23164
1.07206
0.807324
0.600136
0.485334
0.43477
0.418979
0.420792
0.431431
0.445901
0.460357
0.471125
0.47513
0.47112
0.460359
0.445984
0.431905
0.42261
0.423932
0.441414
0.469081
0.487082
1.0038
1.00457
1.00574
1.00671
1.00688
1.00595
1.00401
1.00151
0.999062
0.997207
0.996217
0.996054
0.996648
0.998968
1.00759
1.03524
1.10372
1.20417
1.19729
0.981549
0.720336
0.544143
0.457023
0.424121
0.419208
0.428688
0.445901
0.466765
0.487318
0.502793
0.50861
0.502789
0.487325
0.466866
0.446405
0.430414
0.423211
0.4271
0.435344
0.438651
1.00127
1.00176
1.00262
1.00366
1.00462
1.00528
1.00555
1.00546
1.00515
1.00472
1.00419
1.00345
1.00263
1.0034
1.01182
1.04292
1.1181
1.21001
1.15809
0.914032
0.664736
0.512005
0.442653
0.420577
0.422622
0.437634
0.460357
0.487318
0.514261
0.534994
0.542905
0.53499
0.514271
0.487435
0.460892
0.439314
0.426028
0.421406
0.418618
0.414186
1.00029
1.00051
1.00092
1.00148
1.00212
1.00274
1.00326
1.00363
1.00382
1.00378
1.00337
1.00245
1.00129
1.00198
1.01144
1.04592
1.12549
1.20949
1.12979
0.873751
0.634431
0.495692
0.436108
0.419922
0.425962
0.444495
0.471125
0.502793
0.534994
0.560258
0.570016
0.560254
0.535007
0.502922
0.471685
0.446159
0.429044
0.419631
0.411134
0.402932
1
1.00008
1.00023
1.00046
1.00074
1.00105
1.00136
1.00162
1.00177
1.00172
1.00131
1.00038
0.999243
1.00012
1.01022
1.04613
1.12728
1.20826
1.11947
0.860378
0.624824
0.490712
0.434242
0.419935
0.427293
0.447058
0.47513
0.50861
0.542905
0.570016
0.580539
0.570012
0.542919
0.508744
0.4757
0.448719
0.430274
0.419296
0.409022
0.399686
0.999959
0.999978
1.00002
1.00009
1.00019
1.0003
1.00043
1.00054
1.00059
1.00049
1.00007
0.999162
0.998062
0.998876
1.00855
1.04333
1.12329
1.20786
1.12882
0.873274
0.63424
0.495622
0.43608
0.419909
0.425954
0.44449
0.47112
0.502789
0.53499
0.560254
0.570012
0.560249
0.535003
0.502918
0.47168
0.446153
0.429035
0.419616
0.411113
0.402908
0.999971
0.999974
0.999982
0.999997
1.00002
1.00006
1.0001
1.00013
1.00012
0.999995
0.999588
0.998725
0.9976
0.998022
1.00623
1.03736
1.11292
1.20585
1.15544
0.912619
0.664119
0.511772
0.442567
0.420544
0.422609
0.43763
0.460359
0.487325
0.514271
0.535007
0.542919
0.535003
0.514281
0.487441
0.460893
0.439308
0.426011
0.42137
0.41856
0.414116
0.999987
0.999986
0.999985
0.999986
0.99999
0.999997
1.00001
1.00001
0.99999
0.999868
0.999502
0.998698
0.997524
0.997357
1.00335
1.0288
1.09599
1.19676
1.19195
0.978348
0.718765
0.543535
0.456836
0.424092
0.419241
0.428751
0.445984
0.466866
0.487435
0.502922
0.508744
0.502918
0.487441
0.466966
0.446486
0.430474
0.42324
0.42708
0.435262
0.438527
0.999995
0.999994
0.999993
0.999992
0.999991
0.999992
0.999995
0.999995
0.999973
0.999874
0.999567
0.998849
0.997661
0.996888
1.0004
1.01894
1.07369
1.17469
1.2241
1.06668
0.804293
0.599004
0.485199
0.435028
0.419371
0.421236
0.431905
0.446405
0.460892
0.471685
0.4757
0.47168
0.460893
0.446486
0.432378
0.423056
0.424344
0.441761
0.469308
0.487193
0.999998
0.999998
0.999997
0.999997
0.999996
0.999996
0.999998
0.999998
0.999985
0.999914
0.999676
0.999074
0.997942
0.996706
0.997913
1.00943
1.049
1.13786
1.23216
1.16366
0.925319
0.690653
0.539347
0.461995
0.429282
0.42007
0.42261
0.430414
0.439314
0.446159
0.448719
0.446153
0.439308
0.430474
0.423056
0.422059
0.435752
0.474953
0.535924
0.580844
1
0.999999
0.999999
0.999999
0.999999
0.999999
1
1
0.999998
0.999955
0.999787
0.99932
0.998321
0.996843
0.996268
1.00166
1.02596
1.09204
1.20175
1.23838
1.07697
0.834099
0.639842
0.521961
0.460991
0.433513
0.423932
0.423211
0.426028
0.429044
0.430274
0.429035
0.426011
0.42324
0.424344
0.435752
0.469645
0.544736
0.661283
0.753194
1
1
1
1
1
1
1
1.00001
1.00001
0.999986
0.999882
0.999546
0.998726
0.997216
0.995493
0.996314
1.00788
1.04834
1.14077
1.25241
1.2307
1.03931
0.81528
0.642369
0.533315
0.47244
0.441414
0.4271
0.421406
0.419631
0.419296
0.419616
0.42137
0.42708
0.441761
0.474953
0.544736
0.678622
0.878579
1.04168
1
1
1
1
1
1
1
1.00001
1.00001
1.00001
0.99995
0.99972
0.999069
0.997642
0.995321
0.993262
0.99616
1.01634
1.07841
1.20505
1.33043
1.28248
1.06779
0.829428
0.647602
0.533318
0.469081
0.435344
0.418618
0.411134
0.409022
0.411113
0.41856
0.435262
0.469308
0.535924
0.661283
0.878579
1.18276
1.43463
1
1
1
1
1
1
1
1.00001
1.00001
1.00002
0.999985
0.999815
0.999266
0.997921
0.995369
0.99196
0.990591
1.00012
1.04162
1.15433
1.35442
1.46424
1.28349
0.98625
0.738863
0.578384
0.487082
0.438651
0.414186
0.402932
0.399686
0.402908
0.414116
0.438527
0.487193
0.580844
0.753194
1.04168
1.43463
1.75935
SCALARS C2 double 1
LOOKUP_TABLE default
3.29054
3.44827
3.68572
3.91792
4.11036
4.25651
4.35024
4.3803
4.34303
4.2711
4.23409
4.27109
4.34304
4.38037
4.35049
4.25738
4.11368
3.92928
3.71363
3.48152
3.2587
3.08065
2.97586
2.94332
2.95314
2.97331
2.98827
2.99601
2.99908
2.99999
3.00014
3.0001
3.00005
3.00002
3.00001
3
3
3
3
3
3.44827
3.58769
3.80339
4.01597
4.17722
4.23677
4.0572
3.44531
2.52737
1.89034
1.70507
1.89036
2.52763
3.44621
4.05886
4.23931
4.1824
4.0283
3.82595
3.5986
3.37089
3.17415
3.03787
2.97231
2.9603
2.97191
2.9857
2.99436
2.99834
2.99973
3.00007
3.00009
3.00005
3.00002
3.00001
3
3
3
3
3
3.68572
3.80339
3.97848
4.1161
4.02361
3.00793
1.37616
1.05904
1.0846
1.129
1.14617
1.12901
1.08463
1.05922
1.37873
3.02122
4.03528
4.12795
3.98851
3.7809
3.54916
3.32574
3.14366
3.02735
2.97781
2.97193
2.98179
2.99145
2.99691
2.9992
2.99992
3.00006
3.00005
3.00003
3.00001
3
3
3
3
3
3.91792
4.01597
4.1161
3.88309
2.00913
1.05485
1.12422
1.24768
1.35446
1.42517
1.44982
1.42518
1.35448
1.2477
1.12419
1.05509
2.02754
3.88707
4.10323
3.95899
3.73566
3.49262
3.26976
3.10239
3.00854
2.97716
2.97858
2.98797
2.99498
2.9984
2.99967
3
3.00005
3.00003
3.00001
3
3
3
3
3
4.11036
4.17722
4.02361
2.00913
1.04696
1.17647
1.35577
1.52464
1.65943
1.74573
1.77537
1.74574
1.65945
1.52464
1.35557
1.1755
1.04359
1.97458
3.94862
4.07829
3.89442
3.64743
3.39764
3.18871
3.05179
2.99
2.978
2.98478
2.99279
2.9974
2.99932
2.99991
3.00004
3.00003
3.00002
3.00001
3
3
3
3
4.25651
4.23677
3.00793
1.05485
1.17647
1.39429
1.61613
1.81262
1.96448
2.05959
2.09189
2.0596
1.96449
1.81261
1.61584
1.39291
1.17212
1.04278
2.73306
4.05868
4.00795
3.77735
3.51504
3.27661
3.10287
3.01004
2.98104
2.98264
2.99067
2.99629
2.99889
2.99979
3.00001
3.00003
3.00002
3.00001
3
3
3
3
4.35024
4.0572
1.37616
1.12422
1.35577
1.61613
1.86564
2.07888
2.239
2.33737
2.37047
2.33738
2.23901
2.07886
1.86529
1.61446
1.35103
1.11342
1.23922
3.68311
4.06001
3.87656
3.61424
3.35736
3.15513
3.03435
2.98731
2.98187
2.9889
2.9952
2.99842
2.99964
2.99997
3.00002
3.00001
3
3
3
3
3
4.3803
3.44531
1.05904
1.24768
1.52464
1.81262
2.07888
2.29963
2.4618
2.56028
2.59328
2.56029
2.46182
2.29961
2.07851
1.81078
1.51945
1.23754
1.04172
2.74063
4.02928
3.94311
3.6911
3.42447
3.2021
3.05882
2.99529
2.98231
2.98764
2.99426
2.99799
2.99948
2.99993
3.00001
3.00001
3
2.99999
2.99999
2.99999
2.99999
4.34303
2.52737
1.0846
1.35446
1.65943
1.96448
2.239
2.4618
2.62355
2.72137
2.75412
2.72137
2.62356
2.46178
2.23862
1.96254
1.65395
1.34519
1.08293
1.77876
3.91228
3.97948
3.74445
3.47401
3.23879
3.07942
3.00297
2.98341
2.98691
2.99358
2.99767
2.99939
2.99992
3.00002
3.00002
3
2.99998
2.99998
2.99998
2.99998
4.2711
1.89034
1.129
1.42517
1.74573
2.05959
2.33737
2.56028
2.72137
2.81877
2.85141
2.81877
2.72138
2.56027
2.337
2.05762
1.7401
1.41637
1.12909
1.367
3.76967
3.9938
3.77528
3.50413
3.26195
3.09309
3.00853
2.98455
2.98669
2.99332
2.99762
2.99947
3.00005
3.00014
3.0001
3.00005
3
2.99998
2.99996
2.99995
4.23409
1.70507
1.14617
1.44982
1.77537
2.09189
2.37047
2.59328
2.75412
2.85141
2.88403
2.85141
2.75414
2.59327
2.37011
2.08991
1.7697
1.44117
1.14648
1.27476
3.705
3.99683
3.78528
3.51424
3.26995
3.09806
3.01085
2.98542
2.98713
2.99378
2.99816
3.00004
3.00059
3.0006
3.00047
3.00031
3.00016
3.00005
2.99998
2.99994
4.27109
1.89036
1.12901
1.42518
1.74574
2.0596
2.33738
2.56029
2.72137
2.81877
2.85141
2.81878
2.72139
2.56028
2.33701
2.05763
1.74011
1.41638
1.1291
1.36701
3.76965
3.99381
3.77534
3.50435
3.26248
3.09404
3.00991
2.9863
2.9887
2.99549
2.99983
3.00163
3.00205
3.0019
3.00155
3.00114
3.00074
3.00041
3.00017
3.00005
4.34304
2.52763
1.08463
1.35448
1.65945
1.96449
2.23901
2.46182
2.62356
2.72138
2.75414
2.72139
2.62358
2.4618
2.23863
1.96255
1.65397
1.34521
1.08297
1.77901
3.91238
3.9796
3.74479
3.47489
3.24056
3.08225
3.00679
2.98798
2.99198
2.99891
3.00308
3.0047
3.00497
3.00463
3.00398
3.00318
3.00232
3.00153
3.00093
3.0006
4.38037
3.44621
1.05922
1.2477
1.52464
1.81261
2.07886
2.29961
2.46178
2.56027
2.59327
2.56028
2.4618
2.29959
2.07849
1.81076
1.51946
1.23757
1.04188
2.74218
4.02977
3.94369
3.69237
3.42711
3.2066
3.0651
3.0029
2.99065
2.99625
3.0029
3.00661
3.00812
3.00855
3.00844
3.00789
3.00691
3.0056
3.0042
3.00301
3.00233
4.35049
4.05886
1.37873
1.12419
1.35557
1.61584
1.86529
2.07851
2.23862
2.337
2.37011
2.33701
2.23863
2.07849
1.86494
1.61418
1.35084
1.11341
1.24127
3.68658
4.06147
3.8785
3.61787
3.3636
3.16387
3.04439
2.9971
2.99023
2.99535
3.00008
3.00272
3.00456
3.00653
3.0086
3.01022
3.01086
3.01035
3.009
3.00748
3.00649
4.25738
4.23931
3.02122
1.05509
1.1755
1.39291
1.61446
1.81078
1.96254
2.05762
2.08991
2.05763
1.96255
1.81076
1.61418
1.39154
1.17117
1.04306
2.74867
4.06397
4.01182
3.78267
3.52333
3.2876
3.11356
3.01602
2.97853
2.96981
2.96809
2.96679
2.96693
2.97046
2.97782
2.98778
2.99816
3.00673
3.01216
3.01444
3.01467
3.01428
4.11368
4.1824
4.03528
2.02754
1.04359
1.17212
1.35103
1.51945
1.65395
1.7401
1.7697
1.74011
1.65397
1.51946
1.35084
1.17117
1.04032
1.99384
3.96324
4.08746
3.90405
3.6597
3.41189
3.19874
3.04661
2.95845
2.9133
2.88649
2.8663
2.85242
2.84801
2.85528
2.87436
2.90301
2.93661
2.96906
2.99505
3.01217
3.02127
3.02486
3.92928
4.0283
4.12795
3.88707
1.97458
1.04278
1.11342
1.23754
1.34519
1.41637
1.44117
1.41638
1.34521
1.23757
1.11341
1.04306
1.99384
3.89232
4.11692
3.97619
3.75641
3.51457
3.28176
3.08185
2.92889
2.82099
2.74539
2.69148
2.65505
2.63439
2.62818
2.63635
2.66099
2.7051
2.76875
2.84474
2.91884
2.97715
3.01379
3.03049
3.71363
3.82595
3.98851
4.10323
3.94862
2.73306
1.23922
1.04172
1.08293
1.12909
1.14648
1.1291
1.08297
1.04188
1.24127
2.74867
3.96324
4.11692
3.99982
3.80594
3.58099
3.34599
3.11281
2.89378
2.71052
2.58408
2.51683
2.49341
2.49349
2.5004
2.50403
2.50142
2.4969
2.50227
2.5352
2.61156
2.72914
2.85721
2.95613
3.00629
3.48152
3.5986
3.7809
3.95899
4.07829
4.05868
3.68311
2.74063
1.77876
1.367
1.27476
1.36701
1.77901
2.74218
3.68658
4.06397
4.08746
3.97619
3.80594
3.60383
3.38056
3.13312
2.86242
2.6163
2.46929
2.43683
2.47749
2.54484
2.6083
2.65144
2.66663
2.65185
2.60987
2.54949
2.48872
2.45794
2.496
2.62106
2.78356
2.89104
3.2587
3.37089
3.54916
3.73566
3.89442
4.00795
4.06001
4.02928
3.91228
3.76967
3.705
3.76965
3.91238
4.02977
4.06147
4.01182
3.90405
3.75641
3.58099
3.38056
3.14007
2.84425
2.5604
2.4202
2.44404
2.5592
2.69802
2.82305
2.91791
2.97628
2.99593
2.9764
2.91849
2.82514
2.70393
2.57185
2.46193
2.42475
2.49352
2.59579
3.08065
3.17415
3.32574
3.49262
3.64743
3.77735
3.87656
3.94311
3.97948
3.9938
3.99683
3.99381
3.9796
3.94369
3.8785
3.78267
3.6597
3.51457
3.34599
3.13312
2.84425
2.543
2.40858
2.47675
2.65105
2.84651
3.02098
3.15985
3.25951
3.31933
3.33927
3.31936
3.25971
3.16072
3.02371
2.85261
2.65736
2.46041
2.30258
2.22452
2.97586
3.03787
3.14366
3.26976
3.39764
3.51504
3.61424
3.6911
3.74445
3.77528
3.78528
3.77534
3.74479
3.69237
3.61787
3.52333
3.41189
3.28176
3.11281
2.86242
2.5604
2.40858
2.49204
2.70521
2.94373
3.15802
3.33418
3.47064
3.56793
3.62631
3.64578
3.62633
3.56804
3.47109
3.3356
3.16071
2.94214
2.67061
2.35803
2.11993
2.94332
2.97231
3.02735
3.10239
3.18871
3.27661
3.35736
3.42447
3.47401
3.50413
3.51424
3.50435
3.47489
3.42711
3.3636
3.2876
3.19874
3.08185
2.89378
2.6163
2.4202
2.47675
2.70521
2.97683
3.22637
3.43689
3.60792
3.74087
3.83615
3.89354
3.91272
3.89355
3.83622
3.74117
3.60892
3.43859
3.22227
2.93465
2.56657
2.27658
2.95314
2.9603
2.97781
3.00854
3.05179
3.10287
3.15513
3.2021
3.23879
3.26195
3.26995
3.26248
3.24056
3.2066
3.16387
3.11356
3.04661
2.92889
2.71052
2.46929
2.44404
2.65105
2.94373
3.22637
3.47069
3.67528
3.84251
3.97325
4.06723
4.12386
4.14278
4.12387
4.06727
3.97347
3.84332
3.67683
3.46708
3.18539
2.81282
2.51982
2.97331
2.97191
2.97193
2.97716
2.99
3.01004
3.03435
3.05882
3.07942
3.09309
3.09806
3.09404
3.08225
3.0651
3.04439
3.01602
2.95845
2.82099
2.58408
2.43683
2.5592
2.84651
3.15802
3.43689
3.67528
3.87598
4.04072
4.16951
4.26176
4.31707
4.33548
4.31707
4.26178
4.16966
4.04137
3.87747
3.67281
3.40026
3.03709
2.7517
2.98827
2.9857
2.98179
2.97858
2.978
2.98104
2.98731
2.99529
3.00297
3.00853
3.01085
3.00991
3.00679
3.0029
2.9971
2.97853
2.9133
2.74539
2.51683
2.47749
2.69802
3.02098
3.33418
3.60792
3.84251
4.04072
4.20312
4.32911
4.41825
4.47095
4.48831
4.47095
4.41826
4.32921
4.20361
4.04208
3.84094
3.57553
3.221
2.94067
2.99601
2.99436
2.99145
2.98797
2.98478
2.98264
2.98187
2.98231
2.98341
2.98455
2.98542
2.9863
2.98798
2.99065
2.99023
2.96981
2.88649
2.69148
2.49341
2.54484
2.82305
3.15985
3.47064
3.74087
3.97325
4.16951
4.32911
4.45101
4.53518
4.58352
4.5991
4.58352
4.53519
4.45106
4.32946
4.17069
3.97224
3.71173
3.36256
3.08358
2.99908
2.99834
2.99691
2.99498
2.99279
2.99067
2.9889
2.98764
2.98691
2.98669
2.98713
2.9887
2.99198
2.99625
2.99535
2.96809
2.8663
2.65505
2.49349
2.6083
2.91791
3.25951
3.56793
3.83615
4.06723
4.26176
4.41825
4.53518
4.61299
4.65551
4.66866
4.65551
4.613
4.53519
4.41847
4.26275
4.06653
3.80926
3.46301
3.18343
2.99999
2.99973
2.9992
2.9984
2.9974
2.99629
2.9952
2.99426
2.99358
2.99332
2.99378
2.99549
2.99891
3.0029
3.00008
2.96679
2.85242
2.63439
2.5004
2.65144
2.97628
3.31933
3.62631
3.89354
4.12386
4.31707
4.47095
4.58352
4.65551
4.69252
4.70332
4.69252
4.65551
4.5835
4.47108
4.31792
4.12331
3.86796
3.52313
3.24262
3.00014
3.00007
2.99992
2.99967
2.99932
2.99889
2.99842
2.99799
2.99767
2.99762
2.99816
2.99983
3.00308
3.00661
3.00272
2.96693
2.84801
2.62818
2.50403
2.66663
2.99593
3.33927
3.64578
3.91272
4.14278
4.33548
4.48831
4.5991
4.66866
4.70332
4.71312
4.70333
4.66866
4.59907
4.48842
4.33628
4.14227
3.88757
3.54316
3.26226
3.0001
3.00009
3.00006
3
2.99991
2.99979
2.99964
2.99948
2.99939
2.99947
3.00004
3.00163
3.0047
3.00812
3.00456
2.97046
2.85528
2.63635
2.50142
2.65185
2.9764
3.31936
3.62633
3.89355
4.12387
4.31707
4.47095
4.58352
4.65551
4.69252
4.70333
4.69253
4.65551
4.58351
4.47109
4.31793
4.12332
3.86797
3.52315
3.24265
3.00005
3.00005
3.00005
3.00005
3.00004
3.00001
2.99997
2.99993
2.99992
3.00005
3.00059
3.00205
3.00497
3.00855
3.00653
2.97782
2.87436
2.66099
2.4969
2.60987
2.91849
3.25971
3.56804
3.83622
4.06727
4.26178
4.41826
4.53519
4.613
4.65551
4.66866
4.65551
4.613
4.5352
4.41848
4.26277
4.06657
3.80934
3.46313
3.18357
3.00002
3.00002
3.00003
3.00003
3.00003
3.00003
3.00002
3.00001
3.00002
3.00014
3.0006
3.0019
3.00463
3.00844
3.0086
2.98778
2.90301
2.7051
2.50227
2.54949
2.82514
3.16072
3.47109
3.74117
3.97347
4.16966
4.32921
4.45106
4.53519
4.5835
4.59907
4.58351
4.5352
4.45111
4.32956
4.17084
3.97247
3.71209
3.36307
3.08411
3.00001
3.00001
3.00001
3.00001
3.00002
3.00002
3.00001
3.00001
3.00002
3.0001
3.00047
3.00155
3.00398
3.00789
3.01022
2.99816
2.93661
2.76875
2.5352
2.48872
2.70393
3.02371
3.3356
3.60892
3.84332
4.04137
4.20361
4.32946
4.41847
4.47108
4.48842
4.47109
4.41848
4.32956
4.2041
4.04272
3.84176
3.57663
3.22244
2.94217
3
3
3
3
3.00001
3.00001
3
3
3
3.00005
3.00031
3.00114
3.00318
3.00691
3.01086
3.00673
2.96906
2.84474
2.61156
2.45794
2.57185
2.85261
3.16071
3.43859
3.67683
3.87747
4.04208
4.17069
4.26275
4.31792
4.33628
4.31793
4.26277
4.17084
4.04272
3.87894
3.67432
3.40187
3.03911
2.75389
3
3
3
3
3
3
3
2.99999
2.99998
3
3.00016
3.00074
3.00232
3.0056
3.01035
3.01216
2.99505
2.91884
2.72914
2.496
2.46193
2.65736
2.94214
3.22227
3.46708
3.67281
3.84094
3.97224
4.06653
4.12331
4.14227
4.12332
4.06657
3.97247
3.84176
3.67432
3.46311
3.17987
2.80741
2.51562
3
3
3
3
3
3
3
2.99999
2.99998
2.99998
3.00005
3.00041
3.00153
3.0042
3.009
3.01444
3.01217
2.97715
2.85721
2.62106
2.42475
2.46041
2.67061
2.93465
3.18539
3.40026
3.57553
3.71173
3.80926
3.86796
3.88757
3.86797
3.80934
3.71209
3.57663
3.40187
3.17987
2.88716
2.52066
2.2374
3
3
3
3
3
3
3
2.99999
2.99998
2.99996
2.99998
3.00017
3.00093
3.00301
3.00748
3.01467
3.02127
3.01379
2.95613
2.78356
2.49352
2.30258
2.35803
2.56657
2.81282
3.03709
3.221
3.36256
3.46301
3.52313
3.54316
3.52315
3.46313
3.36307
3.22244
3.03911
2.80741
2.52066
2.20373
1.97612
3
3
3
3
3
3
3
2.99999
2.99998
2.99995
2.99994
3.00005
3.0006
3.00233
3.00649
3.01428
3.02486
3.03049
3.00629
2.89104
2.59579
2.22452
2.11993
2.27658
2.51982
2.7517
2.94067
3.08358
3.18343
3.24262
3.26226
3.24265
3.18357
3.08411
2.94217
2.75389
2.51562
2.2374
1.97612
1.83242
