# vtk DataFile Version 3.0
Brusselator Concentration Output
ASCII
DATASET STRUCTURED_POINTS
DIMENSIONS 40 40 1
ORIGIN 0.0 0.0 0.0
SPACING 0.005 0.005 1.0
POINT_DATA 1600
SCALARS C1 double 1
LOOKUP_TABLE default
1.11928
1.11279
1.06946
0.973572
0.848825
0.730973
0.640292
0.579518
0.543
0.52409
0.518297
0.524092
0.543009
0.579549
0.640374
0.731114
0.848766
0.972012
1.06255
1.09245
1.074
1.04207
1.01826
1.00584
1.00094
0.999606
0.999529
0.999718
0.999872
0.999953
0.999986
0.999997
1
1
1
1
1
1
1
1
1.11279
1.06794
0.978619
0.863463
0.750804
0.659987
0.596374
0.556375
0.533585
0.522332
0.518991
0.522335
0.533594
0.5564
0.596433
0.660035
0.750415
0.860844
0.968883
1.04232
1.06372
1.04881
1.02611
1.01046
1.00295
1.00028
0.999684
0.999723
0.999853
0.999939
0.99998
0.999994
0.999999
1
1
1
1
1
1
1
1.06946
0.978619
0.846441
0.723737
0.633194
0.57563
0.5435
0.528305
0.522936
0.522033
0.522139
0.522035
0.522943
0.528323
0.543524
0.575555
0.632396
0.719867
0.83361
0.949302
1.0281
1.05064
1.03761
1.0189
1.00702
1.00177
1.00008
0.999771
0.999828
0.999916
0.999968
0.99999
0.999998
1
1
1
1
1
1
1
0.973572
0.863463
0.723737
0.61703
0.554451
0.525358
0.517786
0.522698
0.533016
0.54255
0.546387
0.542552
0.533022
0.522708
0.517781
0.52518
0.553354
0.612421
0.709882
0.837964
0.961067
1.033
1.04487
1.02891
1.01291
1.00422
1.00085
0.999922
0.99982
0.999891
0.999953
0.999984
0.999995
0.999999
1
1
1
1
1
1
0.848825
0.750804
0.633194
0.554451
0.518723
0.512909
0.526283
0.551587
0.581796
0.607425
0.617708
0.607428
0.581801
0.551592
0.526252
0.512645
0.517424
0.549662
0.62075
0.736152
0.876605
0.991468
1.04012
1.03686
1.01969
1.00755
1.00204
1.00023
0.999853
0.999871
0.999936
0.999976
0.999993
0.999998
1
1
1
1
1
1
0.730973
0.659987
0.57563
0.525358
0.512909
0.528717
0.566817
0.62495
0.698466
0.768997
0.799981
0.769
0.698473
0.624951
0.566756
0.528359
0.51144
0.520715
0.566018
0.658624
0.794893
0.935022
1.0211
1.03939
1.02591
1.01137
1.00361
1.0007
0.999943
0.999866
0.999922
0.999968
0.999989
0.999997
0.999999
1
1
1
1
1
0.640292
0.596374
0.5435
0.517786
0.526283
0.566817
0.644612
0.778034
0.992846
1.25441
1.38315
1.25442
0.992858
0.778026
0.644504
0.566335
0.524627
0.513399
0.537012
0.606783
0.728624
0.877309
0.99237
1.03547
1.03024
1.01508
1.00537
1.00131
1.00009
0.999877
0.999911
0.99996
0.999986
0.999996
0.999999
1
1
1
1
1
0.579518
0.556375
0.528305
0.522698
0.551587
0.62495
0.778034
1.12294
1.87475
2.74772
3.04097
2.74774
1.87478
1.12292
0.777843
0.624292
0.549703
0.518545
0.52456
0.575503
0.681249
0.8284
0.961642
1.02698
1.03223
1.01814
1.00706
1.00194
1.00026
0.999904
0.999907
0.999955
0.999984
0.999996
1
1
1
1
1
1
0.543
0.533585
0.522936
0.533016
0.581796
0.698466
0.992846
1.87475
3.29145
3.50727
3.46644
3.50726
3.29146
1.87468
0.992511
0.69758
0.579655
0.529024
0.521262
0.558429
0.650953
0.79292
0.935681
1.01743
1.03243
1.02028
1.00842
1.0025
1.00043
0.999939
0.99991
0.999956
0.999987
0.999999
1
1
1
1
1
1
0.52409
0.522332
0.522033
0.54255
0.607425
0.768997
1.25441
2.74772
3.50727
3.31876
3.22882
3.31875
3.50724
2.7476
1.25389
0.767884
0.605064
0.538642
0.521641
0.550367
0.634484
0.771886
0.918753
1.01018
1.03191
1.02149
1.00931
1.00289
1.00056
0.999976
0.999923
0.999965
0.999997
1.00001
1.00001
1.00001
1.00001
1.00001
1
1
0.518297
0.518991
0.522139
0.546387
0.617708
0.799981
1.38315
3.04097
3.46644
3.22882
3.13317
3.22881
3.46641
3.04084
1.38254
0.798767
0.615257
0.542504
0.522182
0.548051
0.629304
0.764965
0.912923
1.00752
1.03162
1.02189
1.00963
1.00305
1.00062
1.00001
0.999945
0.999986
1.00002
1.00003
1.00003
1.00003
1.00002
1.00002
1.00001
1.00001
0.524092
0.522335
0.522035
0.542552
0.607428
0.769
1.25442
2.74774
3.50726
3.31875
3.22881
3.31875
3.50724
2.74762
1.2539
0.767887
0.605067
0.538644
0.521644
0.550371
0.634491
0.771898
0.918775
1.01022
1.03195
1.02154
1.00935
1.00293
1.00059
1
0.999947
0.999992
1.00003
1.00005
1.00006
1.00006
1.00005
1.00004
1.00003
1.00003
0.543009
0.533594
0.522943
0.533022
0.581801
0.698473
0.992858
1.87478
3.29146
3.50724
3.46641
3.50724
3.29147
1.87471
0.992523
0.697586
0.579661
0.52903
0.521269
0.558441
0.650975
0.792957
0.935737
1.0175
1.03251
1.02034
1.00845
1.00248
1.00036
0.999838
0.999796
0.999854
0.99992
0.999979
1.00003
1.00006
1.00008
1.00008
1.00008
1.00007
0.579549
0.5564
0.528323
0.522708
0.551592
0.624951
0.778026
1.12292
1.87468
2.7476
3.04084
2.74762
1.87471
1.12289
0.777835
0.624293
0.549708
0.518556
0.52458
0.575538
0.681307
0.828485
0.96174
1.02706
1.03224
1.01802
1.00676
1.00146
0.999602
0.999125
0.999084
0.999176
0.999326
0.999513
0.99971
0.999887
1.00002
1.0001
1.00014
1.00015
0.640374
0.596433
0.543524
0.517781
0.526252
0.566756
0.644504
0.777843
0.992511
1.25389
1.38254
1.2539
0.992523
0.777835
0.644396
0.566274
0.524597
0.513396
0.537042
0.606857
0.728746
0.877447
0.992433
1.03533
1.02976
1.01412
1.00385
0.999225
0.997532
0.997009
0.996933
0.997092
0.997433
0.997919
0.998489
0.999059
0.999549
0.999908
1.00013
1.00023
0.731114
0.660035
0.575555
0.52518
0.512645
0.528359
0.566335
0.624292
0.69758
0.767884
0.798767
0.767887
0.697586
0.624293
0.566274
0.528002
0.51118
0.520545
0.565953
0.658681
0.795034
0.935073
1.02075
1.03829
1.02375
1.00793
0.99884
0.994715
0.993007
0.992339
0.992196
0.992441
0.993055
0.994017
0.995251
0.996613
0.997916
0.998988
0.999723
1.00009
0.848766
0.750415
0.632396
0.553354
0.517424
0.51144
0.524627
0.549703
0.579655
0.605064
0.615257
0.605067
0.579661
0.549708
0.524597
0.51118
0.516136
0.548587
0.61997
0.735712
0.876326
0.990799
1.03826
1.03305
1.01346
0.998758
0.990922
0.987297
0.985731
0.98512
0.984995
0.985225
0.985873
0.98708
0.988921
0.991296
0.993901
0.996315
0.998143
0.999117
0.972012
0.860844
0.719867
0.612421
0.549662
0.520715
0.513399
0.518545
0.529024
0.538642
0.542504
0.538644
0.52903
0.518556
0.513396
0.520545
0.548587
0.60785
0.705999
0.835071
0.958719
1.02982
1.03915
1.01941
0.999305
0.987077
0.981405
0.979647
0.979822
0.980545
0.980921
0.980639
0.980004
0.979745
0.980611
0.98296
0.986544
0.99058
0.994045
0.996035
1.06255
0.968883
0.83361
0.709882
0.62075
0.566018
0.537012
0.52456
0.521262
0.521641
0.522182
0.521644
0.521269
0.52458
0.537042
0.565953
0.61997
0.705999
0.820545
0.938725
1.0195
1.04127
1.02442
1.00051
0.984309
0.977592
0.978368
0.984072
0.991714
0.998064
1.00053
0.998144
0.9919
0.984333
0.978339
0.975889
0.977313
0.981399
0.986028
0.989027
1.09245
1.04232
0.949302
0.837964
0.736152
0.658624
0.606783
0.575503
0.558429
0.550367
0.548051
0.550371
0.558441
0.575538
0.606857
0.658681
0.735712
0.835071
0.938725
1.01498
1.04125
1.02755
1.00194
0.983146
0.977322
0.985551
1.00701
1.03771
1.06969
1.09359
1.10241
1.09367
1.06988
1.03805
1.00739
0.985237
0.974068
0.971825
0.974198
0.976777
1.074
1.06372
1.0281
0.961067
0.876605
0.794893
0.728624
0.681249
0.650953
0.634484
0.629304
0.634491
0.650975
0.681307
0.728746
0.795034
0.876326
0.958719
1.0195
1.04125
1.02859
1.0029
0.983128
0.979863
1.00075
1.05282
1.13545
1.23153
1.31468
1.36714
1.38452
1.36721
1.31488
1.23191
1.13597
1.05297
0.998903
0.972212
0.962634
0.960529
1.04207
1.04881
1.05064
1.033
0.991468
0.935022
0.877309
0.8284
0.79292
0.771886
0.764965
0.771898
0.792957
0.828485
0.877447
0.935073
0.990799
1.02982
1.04127
1.02755
1.0029
0.983286
0.982442
1.01709
1.11088
1.27392
1.45713
1.57689
1.61296
1.60785
1.60161
1.60789
1.61306
1.57708
1.45731
1.27338
1.10778
1.00817
0.962552
0.946285
1.01826
1.02611
1.03761
1.04487
1.04012
1.0211
0.99237
0.961642
0.935681
0.918753
0.912923
0.918775
0.935737
0.96174
0.992433
1.02075
1.03826
1.03915
1.02442
1.00194
0.983128
0.982442
1.02426
1.15325
1.39735
1.62305
1.64249
1.52695
1.40282
1.32036
1.29221
1.32035
1.40278
1.52672
1.64162
1.62029
1.3896
1.13725
0.998258
0.946644
1.00584
1.01046
1.0189
1.02891
1.03686
1.03939
1.03547
1.02698
1.01743
1.01018
1.00752
1.01022
1.0175
1.02706
1.03533
1.03829
1.03305
1.01941
1.00051
0.983146
0.979863
1.01709
1.15325
1.44536
1.67709
1.57229
1.34322
1.14406
1.00613
0.927874
0.902742
0.927859
1.00605
1.14372
1.34205
1.56883
1.66719
1.4197
1.11641
0.984225
1.00094
1.00295
1.00702
1.01291
1.01969
1.02591
1.03024
1.03223
1.03243
1.03191
1.03162
1.03195
1.03251
1.03224
1.02976
1.02375
1.01346
0.999305
0.984309
0.977322
1.00075
1.11088
1.39735
1.67709
1.53411
1.23954
0.990922
0.818953
0.713399
0.657817
0.640613
0.657803
0.713324
0.818634
0.989837
1.23671
1.52847
1.662
1.35968
1.09715
0.999606
1.00028
1.00177
1.00422
1.00755
1.01137
1.01508
1.01814
1.02028
1.02149
1.02189
1.02154
1.02034
1.01802
1.01412
1.00793
0.998758
0.987077
0.977592
0.985551
1.05282
1.27392
1.62305
1.57229
1.23954
0.942545
0.738079
0.613484
0.543793
0.509345
0.499024
0.509334
0.543733
0.613225
0.737198
0.940445
1.2374
1.57834
1.63058
1.32796
0.999529
0.999684
1.00008
1.00085
1.00204
1.00361
1.00537
1.00706
1.00842
1.00931
1.00963
1.00935
1.00845
1.00676
1.00385
0.99884
0.990922
0.981405
0.978368
1.00701
1.13545
1.45713
1.64249
1.34322
0.990922
0.738079
0.585172
0.501038
0.457645
0.43746
0.431616
0.437451
0.457598
0.500838
0.584504
0.736667
0.991384
1.36125
1.71757
1.65154
0.999718
0.999723
0.999771
0.999922
1.00023
1.0007
1.00131
1.00194
1.0025
1.00289
1.00305
1.00293
1.00248
1.00146
0.999225
0.994715
0.987297
0.979647
0.984072
1.03771
1.23153
1.57689
1.52695
1.14406
0.818953
0.613484
0.501038
0.444251
0.417201
0.405517
0.4023
0.40551
0.417163
0.444094
0.500538
0.612617
0.821206
1.16965
1.64361
1.90824
0.999872
0.999853
0.999828
0.99982
0.999853
0.999943
1.00009
1.00026
1.00043
1.00056
1.00062
1.00059
1.00036
0.999602
0.997532
0.993007
0.985731
0.979822
0.991714
1.06969
1.31468
1.61296
1.40282
1.00613
0.713399
0.543793
0.457645
0.417201
0.399537
0.392681
0.390957
0.392674
0.399505
0.417072
0.457256
0.543294
0.716791
1.03633
1.53901
1.9965
0.999953
0.999939
0.999916
0.999891
0.999871
0.999866
0.999877
0.999904
0.999939
0.999976
1.00001
1
0.999838
0.999125
0.997009
0.992339
0.98512
0.980545
0.998064
1.09359
1.36714
1.60785
1.32036
0.927874
0.657817
0.509345
0.43746
0.405517
0.392681
0.388326
0.387384
0.38832
0.392652
0.405402
0.437132
0.509052
0.661823
0.960419
1.46415
1.9927
0.999986
0.99998
0.999968
0.999953
0.999936
0.999922
0.999911
0.999907
0.99991
0.999923
0.999945
0.999947
0.999796
0.999084
0.996933
0.992196
0.984995
0.980921
1.00053
1.10241
1.38452
1.60161
1.29221
0.902742
0.640613
0.499024
0.431616
0.4023
0.390957
0.387384
0.386687
0.387378
0.390929
0.40219
0.431308
0.498797
0.644811
0.935987
1.43784
1.98229
0.999997
0.999994
0.99999
0.999984
0.999976
0.999968
0.99996
0.999955
0.999956
0.999965
0.999986
0.999992
0.999854
0.999176
0.997092
0.992441
0.985225
0.980639
0.998144
1.09367
1.36721
1.60789
1.32035
0.927859
0.657803
0.509334
0.437451
0.40551
0.392674
0.38832
0.387378
0.388315
0.392645
0.405395
0.437124
0.509041
0.661809
0.960406
1.46415
1.99272
1
0.999999
0.999998
0.999995
0.999993
0.999989
0.999986
0.999984
0.999987
0.999997
1.00002
1.00003
0.99992
0.999326
0.997433
0.993055
0.985873
0.980004
0.9919
1.06988
1.31488
1.61306
1.40278
1.00605
0.713324
0.543733
0.457598
0.417163
0.399505
0.392652
0.390929
0.392645
0.399473
0.417034
0.45721
0.543234
0.716717
1.03625
1.53896
1.99657
1
1
1
0.999999
0.999998
0.999997
0.999996
0.999996
0.999999
1.00001
1.00003
1.00005
0.999979
0.999513
0.997919
0.994017
0.98708
0.979745
0.984333
1.03805
1.23191
1.57708
1.52672
1.14372
0.818634
0.613225
0.500838
0.444094
0.417072
0.405402
0.40219
0.405395
0.417034
0.443938
0.500338
0.612359
0.820888
1.16931
1.64337
1.90844
1
1
1
1
1
0.999999
0.999999
1
1
1.00001
1.00003
1.00006
1.00003
0.99971
0.998489
0.995251
0.988921
0.980611
0.978339
1.00739
1.13597
1.45731
1.64162
1.34205
0.989837
0.737198
0.584504
0.500538
0.457256
0.437132
0.431308
0.437124
0.45721
0.500338
0.583838
0.735787
0.990289
1.36004
1.71667
1.65175
1
1
1
1
1
1
1
1
1
1.00001
1.00003
1.00006
1.00006
0.999887
0.999059
0.996613
0.991296
0.98296
0.975889
0.985237
1.05297
1.27338
1.62029
1.56883
1.23671
0.940445
0.736667
0.612617
0.543294
0.509052
0.498797
0.509041
0.543234
0.612359
0.735787
0.938334
1.23451
1.57471
1.62762
1.32711
1
1
1
1
1
1
1
1
1
1.00001
1.00002
1.00005
1.00008
1.00002
0.999549
0.997916
0.993901
0.986544
0.977313
0.974068
0.998903
1.10778
1.3896
1.66719
1.52847
1.2374
0.991384
0.821206
0.716791
0.661823
0.644811
0.661809
0.716717
0.820888
0.990289
1.23451
1.52261
1.65148
1.35139
1.09309
1
1
1
1
1
1
1
1
1
1.00001
1.00002
1.00004
1.00008
1.0001
0.999908
0.998988
0.996315
0.99058
0.981399
0.971825
0.972212
1.00817
1.13725
1.4197
1.662
1.57834
1.36125
1.16965
1.03633
0.960419
0.935987
0.960406
1.03625
1.16931
1.36004
1.57471
1.65148
1.39327
1.09951
0.973582
1
1
1
1
1
1
1
1
1
1
1.00001
1.00003
1.00008
1.00014
1.00013
0.999723
0.998143
0.994045
0.986028
0.974198
0.962634
0.962552
0.998258
1.11641
1.35968
1.63058
1.71757
1.64361
1.53901
1.46415
1.43784
1.46415
1.53896
1.64337
1.71667
1.62762
1.35139
1.09951
0.970704
0.92469
1
1
1
1
1
1
1
1
1
1
1.00001
1.00003
1.00007
1.00015
1.00023
1.00009
0.999117
0.996035
0.989027
0.976777
0.960529
0.946285
0.946644
0.984225
1.09715
1.32796
1.65154
1.90824
1.9965
1.9927
1.98229
1.99272
1.99657
1.90844
1.65175
1.32711
1.09309
0.973582
0.92469
0.908838
SCALARS C2 double 1
LOOKUP_TABLE default
2.83493
2.79217
2.75767
2.78819
2.89373
3.04223
3.19537
3.32768
3.42667
3.48725
3.50759
3.48725
3.42667
3.32764
3.19521
3.04176
2.89283
2.78767
2.76147
2.81108
2.88912
2.95069
2.98415
2.99767
3.00137
3.00153
3.00092
3.00042
3.00016
3.00005
3.00001
3
3
3
3
3
3
3
3
3
2.79217
2.79724
2.84482
2.95632
3.11552
3.29011
3.45289
3.58772
3.68683
3.74701
3.76715
3.74701
3.68682
3.58768
3.45275
3.28973
3.11498
2.95724
2.8535
2.82864
2.86852
2.92709
2.96991
2.99139
2.99925
3.00104
3.00091
3.00049
3.00021
3.00007
3.00002
3
3
3
3
3
3
3
3
3
2.75767
2.84482
3.00477
3.208
3.42183
3.62148
3.79225
3.92697
4.02297
4.08005
4.09893
4.08005
4.02296
3.92694
3.79214
3.62121
3.4217
3.21069
3.02018
2.89346
2.85824
2.8929
2.94387
2.97846
2.99443
2.99974
3.00076
3.00058
3.00029
3.00011
3.00004
3.00001
3
3
3
3
3
3
3
3
2.78819
2.95632
3.208
3.46917
3.70918
3.91657
4.0856
4.21371
4.30128
4.35121
4.36726
4.35121
4.30127
4.21368
4.08552
3.91641
3.70933
3.47309
3.22883
3.01778
2.89183
2.87112
2.91335
2.95956
2.98633
2.99717
3.00024
3.00061
3.00038
3.00017
3.00006
3.00002
3
3
3
3
3
3
3
3
2.89373
3.11552
3.42183
3.70918
3.95537
4.1588
4.31725
4.42932
4.49752
4.5303
4.53928
4.5303
4.49752
4.4293
4.31721
4.15874
3.95575
3.71373
3.44555
3.18156
2.97609
2.88116
2.88998
2.93789
2.97516
2.99303
2.99915
3.00049
3.00045
3.00023
3.00009
3.00003
3.00001
3
3
3
3
3
3
3
3.04223
3.29011
3.62148
3.91657
4.1588
4.34965
4.48511
4.56033
4.57754
4.55795
4.5431
4.55794
4.57753
4.56031
4.48511
4.34972
4.15945
3.9215
3.64595
3.35421
3.09239
2.92549
2.88341
2.9186
2.96232
2.98752
2.99743
3.00015
3.00047
3.00028
3.00012
3.00004
3.00001
3
3
3
3
3
3
3
3.19537
3.45289
3.79225
4.0856
4.31725
4.48511
4.57451
4.55941
4.41251
4.17241
4.04137
4.17239
4.4125
4.5594
4.57456
4.48536
4.31828
4.09086
3.81625
3.51201
3.21537
2.99142
2.89505
2.90597
2.95001
2.98132
2.99523
2.9996
3.00041
3.00032
3.00015
3.00005
3.00002
3
3
3
3
3
3
3
3.32768
3.58772
3.92697
4.21371
4.42932
4.56033
4.55941
4.29871
3.51353
2.4417
2.03295
2.44167
3.51348
4.29871
4.55956
4.56083
4.43082
4.21935
3.95
3.64138
3.32503
3.06144
2.91845
2.90105
2.94011
2.9754
2.99289
2.99894
3.00031
3.00034
3.00017
3.00007
3.00002
3
3
3
3
3
3
3
3.42667
3.68683
4.02297
4.30128
4.49752
4.57754
4.41251
3.51353
1.68286
1.05577
0.979292
1.05577
1.68282
3.51358
4.41283
4.57837
4.49954
4.3073
4.04499
3.73589
3.4092
3.12083
2.94393
2.90158
2.93343
2.97064
2.99083
2.9983
3.00018
3.00033
3.00018
3.00007
3.00002
3
3
3
3
3
3
3
3.48725
3.74701
4.08005
4.35121
4.5303
4.55795
4.17241
2.4417
1.05577
0.922089
0.919941
0.922088
1.05577
2.44179
4.17295
4.55909
4.53274
4.35753
4.10132
3.79303
3.46153
3.15989
2.9629
2.90393
2.9298
2.96761
2.98943
2.99783
3.00006
3.00031
3.00017
3.00006
3
2.99998
2.99998
2.99999
2.99999
2.99999
3
3
3.50759
3.76715
4.09893
4.36726
4.53928
4.5431
4.04137
2.03295
0.979292
0.919941
0.928036
0.919941
0.979291
2.03305
4.04203
4.54438
4.54189
4.3737
4.11993
3.8121
3.47923
3.17343
2.96983
2.90509
2.92866
2.96655
2.9889
2.99762
2.99998
3.00026
3.00013
3.00001
2.99996
2.99994
2.99995
2.99996
2.99997
2.99998
2.99999
2.99999
3.48725
3.74701
4.08005
4.35121
4.5303
4.55794
4.17239
2.44167
1.05577
0.922088
0.919941
0.922088
1.05576
2.44176
4.17294
4.55908
4.53274
4.35753
4.10131
3.79302
3.46152
3.15987
2.96287
2.90388
2.92973
2.96752
2.98932
2.99771
2.99994
3.00019
3.00005
2.99993
2.99988
2.99987
2.99988
2.99989
2.99992
2.99994
2.99996
2.99997
3.42667
3.68682
4.02296
4.30127
4.49752
4.57753
4.4125
3.51348
1.68282
1.05577
0.979291
1.05576
1.68278
3.51353
4.41281
4.57836
4.49953
4.3073
4.04498
3.73588
3.40918
3.12078
2.94384
2.90144
2.93325
2.97044
2.99063
2.99811
3.00001
3.00019
3.00005
2.99993
2.99985
2.99981
2.99979
2.99979
2.99982
2.99985
2.99988
2.9999
3.32764
3.58768
3.92694
4.21368
4.4293
4.56031
4.5594
4.29871
3.51358
2.44179
2.03305
2.44176
3.51353
4.29872
4.55955
4.56081
4.4308
4.21933
3.94996
3.64134
3.32495
3.06129
2.91823
2.90078
2.93984
2.97519
2.99281
2.99903
3.00057
3.00073
3.00062
3.00046
3.00028
3.00009
2.99992
2.99979
2.99972
2.99971
2.99973
2.99976
3.19521
3.45275
3.79214
4.08552
4.31721
4.48511
4.57456
4.55956
4.41283
4.17295
4.04203
4.17294
4.41281
4.55955
4.57461
4.48535
4.31823
4.09079
3.81614
3.51185
3.21511
2.99108
2.89468
2.90569
2.95
2.98176
2.99629
3.00136
3.00282
3.00317
3.00316
3.00291
3.00242
3.00177
3.00105
3.00042
2.99994
2.99966
2.99953
2.99949
3.04176
3.28973
3.62121
3.91641
4.15874
4.34972
4.48536
4.56083
4.57837
4.55909
4.54438
4.55908
4.57836
4.56081
4.48535
4.34978
4.15939
3.92133
3.64567
3.35378
3.09181
2.9249
2.88311
2.91903
2.96395
2.99079
3.00266
3.00736
3.00937
3.01031
3.01054
3.01007
3.00891
3.00721
3.0052
3.00321
3.00151
3.00029
2.99956
2.99924
2.89283
3.11498
3.4217
3.70933
3.95575
4.15945
4.31828
4.43082
4.49954
4.53274
4.54189
4.53274
4.49953
4.4308
4.31823
4.15939
3.95612
3.71385
3.44536
3.18097
2.97525
2.8807
2.89093
2.94134
2.98212
3.00429
3.015
3.02056
3.02384
3.02569
3.02625
3.02549
3.0234
3.02007
3.0158
3.01114
3.00674
3.00318
3.00079
2.99961
2.78767
2.95724
3.21069
3.47309
3.71373
3.9215
4.09086
4.21935
4.3073
4.35753
4.3737
4.35753
4.3073
4.21933
4.09079
3.92133
3.71385
3.47689
3.23138
3.0188
2.8921
2.87267
2.91878
2.97119
3.00583
3.02526
3.03636
3.04311
3.04712
3.04916
3.04974
3.04901
3.04674
3.04248
3.03605
3.02792
3.0192
3.0113
3.00543
3.00235
2.76147
2.8535
3.02018
3.22883
3.44555
3.64595
3.81625
3.95
4.04499
4.10132
4.11993
4.10131
4.04498
3.94996
3.81614
3.64567
3.44536
3.23138
3.03559
2.90299
2.86457
2.90146
2.96033
3.00684
3.0364
3.05413
3.0638
3.06728
3.0665
3.06422
3.06306
3.06411
3.06619
3.06666
3.06296
3.05423
3.04175
3.02832
3.01714
3.01084
2.81108
2.82864
2.89346
3.01778
3.18156
3.35421
3.51201
3.64138
3.73589
3.79303
3.8121
3.79302
3.73588
3.64134
3.51185
3.35378
3.18097
3.0188
2.90299
2.86264
2.89238
2.95237
3.00723
3.04616
3.0701
3.07964
3.07365
3.05342
3.02593
3.0025
2.99333
3.00241
3.02567
3.05283
3.07262
3.07852
3.07101
3.0556
3.03964
3.02972
2.88912
2.86852
2.85824
2.89183
2.97609
3.09239
3.21537
3.32503
3.4092
3.46153
3.47923
3.46152
3.40918
3.32495
3.21511
3.09181
2.97525
2.8921
2.86457
2.89238
2.94945
3.00727
3.05267
3.08135
3.08647
3.05576
2.97965
2.86744
2.7517
2.66853
2.63887
2.66844
2.75143
2.86682
2.97855
3.05434
3.08603
3.08621
3.07329
3.06253
2.95069
2.92709
2.8929
2.87112
2.88116
2.92549
2.99142
3.06144
3.12083
3.15989
3.17343
3.15987
3.12078
3.06129
2.99108
2.9249
2.8807
2.87267
2.90146
2.95237
3.00727
3.05493
3.08687
3.08604
3.01758
2.83943
2.56689
2.30719
2.14239
2.06601
2.0452
2.06595
2.14218
2.30667
2.56597
2.83866
3.01882
3.09354
3.10956
3.10764
2.98415
2.96991
2.94387
2.91335
2.88998
2.88341
2.89505
2.91845
2.94393
2.9629
2.96983
2.96287
2.94384
2.91823
2.89468
2.88311
2.89093
2.91878
2.96033
3.00723
3.05267
3.08687
3.08468
2.98435
2.69111
2.26256
1.98125
1.90709
1.92667
1.96107
1.97567
1.96105
1.92663
1.90706
1.98149
2.26445
2.69884
3.00319
3.12226
3.15377
2.99767
2.99139
2.97846
2.95956
2.93789
2.9186
2.90597
2.90105
2.90158
2.90393
2.90509
2.90388
2.90144
2.90078
2.90569
2.91903
2.94134
2.97119
3.00684
3.04616
3.08135
3.08604
2.98435
2.62762
2.10528
1.88087
1.92476
2.04912
2.16822
2.24806
2.27576
2.24805
2.16825
2.04932
1.92564
1.88434
2.11927
2.66712
3.04909
3.17454
3.00137
2.99925
2.99443
2.98633
2.97516
2.96232
2.95001
2.94011
2.93343
2.9298
2.92866
2.92973
2.93325
2.93984
2.95
2.96395
2.98212
3.00583
3.0364
3.0701
3.08647
3.01758
2.69111
2.10528
1.86732
1.97265
2.17163
2.36286
2.50957
2.59968
2.62992
2.59968
2.5096
2.3631
2.17264
1.97602
1.87803
2.14701
2.78401
3.11816
3.00153
3.00104
2.99974
2.99717
2.99303
2.98752
2.98132
2.9754
2.97064
2.96761
2.96655
2.96752
2.97044
2.97519
2.98176
2.99079
3.00429
3.02526
3.05413
3.07964
3.05576
2.83943
2.26256
1.88087
1.97265
2.21729
2.46689
2.6722
2.82029
2.90919
2.93883
2.90919
2.82031
2.6724
2.46784
2.22042
1.9801
1.90038
2.3351
2.90343
3.00092
3.00091
3.00076
3.00024
2.99915
2.99743
2.99523
2.99289
2.99083
2.98943
2.9889
2.98932
2.99063
2.99281
2.99629
3.00266
3.015
3.03636
3.0638
3.07365
2.97965
2.56689
1.98125
1.92476
2.17163
2.46689
2.72598
2.92828
3.07257
3.15953
3.18866
3.15953
3.07258
2.92842
2.7268
2.46973
2.17719
1.92869
1.98505
2.49651
3.00042
3.00049
3.00058
3.00061
3.00049
3.00015
2.9996
2.99894
2.9983
2.99783
2.99762
2.99771
2.99811
2.99903
3.00136
3.00736
3.02056
3.04311
3.06728
3.05342
2.86744
2.30719
1.90709
2.04912
2.36286
2.6722
2.92828
3.12624
3.26877
3.35575
3.38511
3.35575
3.26877
3.12634
2.92897
2.67479
2.36733
2.04419
1.85685
2.06369
3.00016
3.00021
3.00029
3.00038
3.00045
3.00047
3.00041
3.00031
3.00018
3.00006
2.99998
2.99994
3.00001
3.00057
3.00282
3.00937
3.02384
3.04712
3.0665
3.02593
2.7517
2.14239
1.92667
2.16822
2.50957
2.82029
3.07257
3.26877
3.41193
3.50034
3.53039
3.50034
3.41193
3.26884
3.07316
2.82269
2.51348
2.15821
1.84585
1.79934
3.00005
3.00007
3.00011
3.00017
3.00023
3.00028
3.00032
3.00034
3.00033
3.00031
3.00026
3.00019
3.00019
3.00073
3.00317
3.01031
3.02569
3.04916
3.06422
3.0025
2.66853
2.06601
1.96107
2.24806
2.59968
2.90919
3.15953
3.35575
3.50034
3.59037
3.6211
3.59036
3.50033
3.3558
3.16006
2.91148
2.60336
2.23549
1.86497
1.69032
3.00001
3.00002
3.00004
3.00006
3.00009
3.00012
3.00015
3.00017
3.00018
3.00017
3.00013
3.00005
3.00005
3.00062
3.00316
3.01054
3.02625
3.04974
3.06306
2.99333
2.63887
2.0452
1.97567
2.27576
2.62992
2.93883
3.18866
3.38511
3.53039
3.6211
3.65211
3.62109
3.53038
3.38516
3.18917
2.94109
2.63354
2.26242
1.87495
1.66328
3
3
3.00001
3.00002
3.00003
3.00004
3.00005
3.00007
3.00007
3.00006
3.00001
2.99993
2.99993
3.00046
3.00291
3.01007
3.02549
3.04901
3.06411
3.00241
2.66844
2.06595
1.96105
2.24805
2.59968
2.90919
3.15953
3.35575
3.50034
3.59036
3.62109
3.59036
3.50033
3.3558
3.16006
2.91148
2.60336
2.23549
1.86495
1.69025
3
3
3
3
3.00001
3.00001
3.00002
3.00002
3.00002
3
2.99996
2.99988
2.99985
3.00028
3.00242
3.00891
3.0234
3.04674
3.06619
3.02567
2.75143
2.14218
1.92663
2.16825
2.5096
2.82031
3.07258
3.26877
3.41193
3.50033
3.53038
3.50033
3.41192
3.26884
3.07317
2.82271
2.51352
2.15823
1.8458
1.79912
3
3
3
3
3
3
3
3
3
2.99998
2.99994
2.99987
2.99981
3.00009
3.00177
3.00721
3.02007
3.04248
3.06666
3.05283
2.86682
2.30667
1.90706
2.04932
2.3631
2.6724
2.92842
3.12634
3.26884
3.3558
3.38516
3.3558
3.26884
3.12644
2.92911
2.67499
2.36756
2.04437
1.85679
2.06307
3
3
3
3
3
3
3
3
3
2.99998
2.99995
2.99988
2.99979
2.99992
3.00105
3.0052
3.0158
3.03605
3.06296
3.07262
2.97855
2.56597
1.98149
1.92564
2.17264
2.46784
2.7268
2.92897
3.07316
3.16006
3.18917
3.16006
3.07317
2.92911
2.72762
2.47068
2.1782
1.92957
1.98522
2.49541
3
3
3
3
3
3
3
3
3
2.99999
2.99996
2.99989
2.99979
2.99979
3.00042
3.00321
3.01114
3.02792
3.05423
3.07852
3.05434
2.83866
2.26445
1.88434
1.97602
2.22042
2.46973
2.67479
2.82269
2.91148
2.94109
2.91148
2.82271
2.67499
2.47068
2.22355
1.98353
1.90399
2.33706
2.90285
3
3
3
3
3
3
3
3
3
2.99999
2.99997
2.99992
2.99982
2.99972
2.99994
3.00151
3.00674
3.0192
3.04175
3.07101
3.08603
3.01882
2.69884
2.11927
1.87803
1.9801
2.17719
2.36733
2.51348
2.60336
2.63354
2.60336
2.51352
2.36756
2.1782
1.98353
1.88898
2.16161
2.79208
3.12038
3
3
3
3
3
3
3
3
3
2.99999
2.99998
2.99994
2.99985
2.99971
2.99966
3.00029
3.00318
3.0113
3.02832
3.0556
3.08621
3.09354
3.00319
2.66712
2.14701
1.90038
1.92869
2.04419
2.15821
2.23549
2.26242
2.23549
2.15823
2.04437
1.92957
1.90399
2.16161
2.70711
3.06867
3.18433
3
3
3
3
3
3
3
3
3
3
2.99999
2.99996
2.99988
2.99973
2.99953
2.99956
3.00079
3.00543
3.01714
3.03964
3.07329
3.10956
3.12226
3.04909
2.78401
2.3351
1.98505
1.85685
1.84585
1.86497
1.87495
1.86495
1.8458
1.85679
1.98522
2.33706
2.79208
3.06867
3.1619
3.18074
3
3
3
3
3
3
3
3
3
3
2.99999
2.99997
2.9999
2.99976
2.99949
2.99924
2.99961
3.00235
3.01084
3.02972
3.06253
3.10764
3.15377
3.17454
3.11816
2.90343
2.49651
2.06369
1.79934
1.69032
1.66328
1.69025
1.79912
2.06307
2.49541
2.90285
3.12038
3.18433
3.18074
3.16602
