# vtk DataFile Version 3.0
Brusselator Concentration Output
ASCII
DATASET STRUCTURED_POINTS
DIMENSIONS 40 40 1
ORIGIN 0.0 0.0 0.0
SPACING 0.005 0.005 1.0
POINT_DATA 1600
SCALARS C1 double 1
LOOKUP_TABLE default
0.537389
0.593695
0.808554
1.68908
3.36497
3.03091
2.53121
2.16314
1.91842
1.77924
1.73413
1.77925
1.91849
2.16356
2.53308
3.03755
3.37677
1.73467
0.872441
0.677189
0.653659
0.690152
0.760896
0.847135
0.925286
0.977199
1.0008
1.00637
1.00498
1.00262
1.00107
1.00034
1.00008
1
0.999991
0.999994
0.999997
0.999999
1
1
0.593695
0.783649
1.66867
2.84478
2.42519
2.04308
1.73654
1.51048
1.3574
1.26935
1.24067
1.26935
1.35745
1.51081
1.73795
2.04785
2.43858
2.87577
1.86116
0.941219
0.72644
0.714199
0.762238
0.8344
0.907481
0.962585
0.992668
1.0033
1.00435
1.00272
1.00125
1.00045
1.00012
1.00002
0.999995
0.999994
0.999997
0.999999
1
1
0.808554
1.66867
2.67207
2.09062
1.6844
1.37592
1.15115
0.994514
0.893172
0.836823
0.818802
0.836825
0.893219
0.994801
1.15236
1.37977
1.69334
2.10387
2.64402
2.05416
1.00718
0.778946
0.768767
0.815056
0.878892
0.937909
0.977961
0.997221
1.00283
1.00276
1.00154
1.00064
1.00021
1.00005
1
0.999996
0.999997
0.999999
1
1
1.68908
2.84478
2.09062
1.58329
1.22518
0.976016
0.806552
0.696422
0.629453
0.593887
0.582786
0.593891
0.629496
0.696665
0.807544
0.979025
1.23114
1.585
2.05567
2.6452
1.8783
0.960018
0.794281
0.799168
0.849238
0.909658
0.959266
0.98847
1.00015
1.00251
1.00183
1.00088
1.00033
1.00009
1.00002
0.999999
0.999998
0.999999
1
1
3.36497
2.42519
1.6844
1.22518
0.927527
0.734732
0.613234
0.539658
0.497469
0.476003
0.469454
0.476007
0.497506
0.53985
0.613992
0.736916
0.9311
1.22131
1.63127
2.17442
2.72139
1.42969
0.871001
0.797125
0.826149
0.883371
0.939437
0.977842
0.996258
1.00176
1.002
1.00112
1.00046
1.00015
1.00003
1
0.999999
1
1
1
3.03091
2.04308
1.37592
0.976016
0.734732
0.590624
0.506588
0.459063
0.433372
0.420901
0.417201
0.420906
0.433403
0.459213
0.507149
0.592127
0.736502
0.968342
1.31574
1.80291
2.44738
2.23197
1.0508
0.817985
0.813395
0.862322
0.920911
0.966505
0.991419
1.00048
1.00198
1.00131
1.00059
1.0002
1.00005
1.00001
0.999999
1
1
1
2.53121
1.73654
1.15115
0.806552
0.613234
0.506588
0.448841
0.418432
0.403163
0.396265
0.394316
0.39627
0.403189
0.418552
0.449259
0.507597
0.613756
0.796583
1.08872
1.51897
2.10544
2.68619
1.36826
0.868521
0.811561
0.847608
0.905312
0.955697
0.98619
0.998805
1.00174
1.00142
1.00069
1.00024
1.00006
1
0.999992
0.999996
1
1
2.16314
1.51048
0.994514
0.696422
0.539658
0.459063
0.418432
0.398766
0.389948
0.386503
0.385643
0.386507
0.389971
0.398864
0.418754
0.459743
0.539388
0.685299
0.9328
1.31541
1.85671
2.57842
1.77392
0.947505
0.818806
0.83876
0.893382
0.946436
0.981218
0.996958
1.00132
1.0014
1.0007
1.00022
1.00001
0.999959
0.99996
0.999975
0.999988
0.999996
1.91842
1.3574
0.893172
0.629453
0.497469
0.433372
0.403163
0.389948
0.385028
0.383699
0.383514
0.383703
0.385049
0.390034
0.403425
0.433851
0.49674
0.617877
0.833367
1.1806
1.68784
2.39031
2.13501
1.0387
0.830915
0.834341
0.885153
0.939369
0.977072
0.995204
1.00075
1.00122
1.00057
1.00008
0.999869
0.999829
0.999856
0.999899
0.999934
0.999954
1.77924
1.26935
0.836823
0.593887
0.476003
0.420901
0.396265
0.386503
0.383699
0.383539
0.383733
0.383543
0.383719
0.386581
0.396496
0.421273
0.47504
0.582187
0.778717
1.10428
1.59005
2.26728
2.34095
1.11232
0.841853
0.832526
0.880273
0.934835
0.974203
0.993827
1.00016
1.00088
1.00028
0.999773
0.999563
0.999543
0.999607
0.999693
0.999768
0.99981
1.73413
1.24067
0.818802
0.582786
0.469454
0.417201
0.394316
0.385643
0.383514
0.383733
0.38405
0.383737
0.383534
0.385719
0.394537
0.417539
0.468421
0.571069
0.761349
1.07962
1.55805
2.22627
2.40049
1.14014
0.84596
0.831836
0.878473
0.933176
0.973172
0.993367
0.999996
1.00078
1.00012
0.999517
0.999214
0.99913
0.99917
0.999267
0.999369
0.999433
1.77925
1.26935
0.836825
0.593891
0.476007
0.420906
0.39627
0.386507
0.383703
0.383543
0.383737
0.383547
0.383723
0.386585
0.3965
0.421277
0.475044
0.582188
0.778708
1.10425
1.59
2.26728
2.33957
1.11104
0.841061
0.832059
0.88028
0.935443
0.975381
0.995394
1.00186
1.00244
1.00146
1.00043
0.99965
0.999122
0.99881
0.998673
0.998647
0.998659
1.91849
1.35745
0.893219
0.629496
0.497506
0.433403
0.403189
0.389971
0.385049
0.383719
0.383534
0.383723
0.38507
0.390057
0.403452
0.433882
0.496774
0.617911
0.833388
1.18061
1.68786
2.39071
2.13173
1.03674
0.830384
0.835317
0.888184
0.944731
0.9845
1.00399
1.01
1.01003
1.00816
1.00588
1.0036
1.00153
0.999832
0.998614
0.997872
0.997534
2.16356
1.51081
0.994801
0.696665
0.53985
0.459213
0.418552
0.398864
0.390034
0.386581
0.385719
0.386585
0.390057
0.398962
0.418873
0.459891
0.539574
0.685521
0.933053
1.31574
1.85734
2.58031
1.76966
0.947238
0.822366
0.847338
0.908253
0.967759
1.00784
1.02691
1.03241
1.03153
1.02798
1.02309
1.0174
1.01149
1.00602
1.00159
0.998555
0.997037
2.53308
1.73795
1.15236
0.807544
0.613992
0.507149
0.449259
0.418754
0.403425
0.396496
0.394537
0.3965
0.403452
0.418873
0.449675
0.508152
0.614497
0.797546
1.08997
1.52078
2.10874
2.69016
1.36859
0.876642
0.829384
0.878127
0.949671
1.01228
1.05158
1.06922
1.07382
1.07232
1.06763
1.06029
1.05026
1.03812
1.02531
1.01376
1.00518
1.00067
3.03755
2.04785
1.37977
0.979025
0.736916
0.592127
0.507597
0.459743
0.433851
0.421273
0.417539
0.421277
0.433882
0.459891
0.508152
0.593615
0.73866
0.971377
1.32003
1.80956
2.45998
2.23997
1.0669
0.849044
0.864649
0.934828
1.00987
1.06458
1.09275
1.10216
1.10368
1.10396
1.1045
1.10347
1.09784
1.08543
1.06678
1.04566
1.02758
1.01729
3.37677
2.43858
1.69334
1.23114
0.9311
0.736502
0.613756
0.539388
0.49674
0.47504
0.468421
0.475044
0.496774
0.539574
0.614497
0.73866
0.934689
1.22761
1.642
2.19358
2.75458
1.46808
0.921373
0.872112
0.923707
0.988052
1.03332
1.05116
1.04889
1.03998
1.03549
1.04072
1.0561
1.07841
1.10134
1.11658
1.11697
1.10182
1.07973
1.06401
1.73467
2.87577
2.10387
1.585
1.22131
0.968342
0.796583
0.685299
0.617877
0.582187
0.571069
0.582188
0.617911
0.685521
0.797546
0.971377
1.22761
1.58825
2.07286
2.68468
1.99499
1.05045
0.898428
0.914156
0.942736
0.950651
0.93661
0.908695
0.878366
0.855959
0.847611
0.855832
0.881283
0.923452
0.979753
1.04357
1.10282
1.14293
1.15748
1.15687
0.872441
1.86116
2.64402
2.05567
1.63127
1.31574
1.08872
0.9328
0.833367
0.778717
0.761349
0.778708
0.833388
0.933053
1.08997
1.32003
1.642
2.07286
2.62422
2.33235
1.1942
0.933887
0.905645
0.887091
0.849569
0.802916
0.754716
0.71092
0.677013
0.656083
0.648898
0.655657
0.677386
0.716409
0.775979
0.858813
0.963885
1.08109
1.18675
1.24972
0.677189
0.941219
2.05416
2.6452
2.17442
1.80291
1.51897
1.31541
1.1806
1.10428
1.07962
1.10425
1.18061
1.31574
1.52078
1.80956
2.19358
2.68468
2.33235
1.26024
0.960267
0.899726
0.840417
0.766132
0.697147
0.639577
0.593825
0.560096
0.537857
0.525536
0.521533
0.52523
0.53756
0.561378
0.601909
0.667213
0.767516
0.908811
1.07211
1.19105
0.653659
0.72644
1.00718
1.8783
2.72139
2.44738
2.10544
1.85671
1.68784
1.59005
1.55805
1.59
1.68786
1.85734
2.10874
2.45998
2.75458
1.99499
1.1942
0.960267
0.897661
0.814961
0.715434
0.631584
0.569914
0.526826
0.49828
0.480833
0.471225
0.466668
0.465313
0.466515
0.470976
0.480983
0.501
0.538886
0.607102
0.717955
0.857769
0.960273
0.690152
0.714199
0.778946
0.960018
1.42969
2.23197
2.68619
2.57842
2.39031
2.26728
2.22627
2.26728
2.39071
2.58031
2.69016
2.23997
1.46808
1.05045
0.933887
0.899726
0.814961
0.698829
0.601469
0.53469
0.49303
0.469238
0.457537
0.45338
0.453145
0.454131
0.454634
0.454066
0.453029
0.453404
0.458657
0.474715
0.510907
0.575956
0.658206
0.714719
0.760896
0.762238
0.768767
0.794281
0.871001
1.0508
1.36826
1.77392
2.13501
2.34095
2.40049
2.33957
2.13173
1.76966
1.36859
1.0669
0.921373
0.898428
0.905645
0.840417
0.715434
0.601469
0.524101
0.479256
0.457151
0.449753
0.451282
0.457432
0.46476
0.47047
0.472605
0.470445
0.46473
0.45753
0.452052
0.4528
0.465554
0.493615
0.52715
0.54713
0.847135
0.8344
0.815056
0.799168
0.797125
0.817985
0.868521
0.947505
1.0387
1.11232
1.14014
1.11104
1.03674
0.947238
0.876642
0.849044
0.872112
0.914156
0.887091
0.766132
0.631584
0.53469
0.479256
0.453929
0.447903
0.453812
0.466774
0.483009
0.498858
0.510538
0.514859
0.510532
0.49888
0.483195
0.467536
0.455986
0.451931
0.455073
0.458146
0.457422
0.925286
0.907481
0.878892
0.849238
0.826149
0.813395
0.811561
0.818806
0.830915
0.841853
0.84596
0.841061
0.830384
0.822366
0.829384
0.864649
0.923707
0.942736
0.849569
0.697147
0.569914
0.49303
0.457151
0.447903
0.455263
0.473486
0.499093
0.528901
0.558354
0.58082
0.58935
0.580825
0.558415
0.529182
0.499956
0.475351
0.457189
0.443066
0.42809
0.416568
0.977199
0.962585
0.937909
0.909658
0.883371
0.862322
0.847608
0.83876
0.834341
0.832526
0.831836
0.832059
0.835317
0.847338
0.878127
0.934828
0.988052
0.950651
0.802916
0.639577
0.526826
0.469238
0.449753
0.453812
0.473486
0.505481
0.548699
0.601637
0.658657
0.706145
0.725218
0.706165
0.658776
0.602057
0.549754
0.507286
0.47426
0.446092
0.419102
0.401282
1.0008
0.992668
0.977961
0.959266
0.939437
0.920911
0.905312
0.893382
0.885153
0.880273
0.878473
0.88028
0.888184
0.908253
0.949671
1.00987
1.03332
0.93661
0.754716
0.593825
0.49828
0.457537
0.451282
0.466774
0.499093
0.548699
0.61977
0.717625
0.839955
0.957511
1.00905
0.957566
0.840199
0.718306
0.621164
0.550613
0.499114
0.457303
0.42069
0.398329
1.00637
1.0033
0.997221
0.98847
0.977842
0.966505
0.955697
0.946436
0.939369
0.934835
0.933176
0.935443
0.944731
0.967759
1.01228
1.06458
1.05116
0.908695
0.71092
0.560096
0.480833
0.45338
0.457432
0.483009
0.528901
0.601637
0.717625
0.906171
1.19381
1.51903
1.6715
1.51919
1.19437
0.907376
0.719592
0.603815
0.528355
0.47217
0.4269
0.400744
1.00498
1.00435
1.00283
1.00015
0.996258
0.991419
0.98619
0.981218
0.977072
0.974203
0.973172
0.975381
0.9845
1.00784
1.05158
1.09275
1.04889
0.878366
0.677013
0.537857
0.471225
0.453145
0.46476
0.498858
0.558354
0.658657
0.839955
1.19381
1.83367
2.53493
2.80005
2.53526
1.83486
1.19597
0.842769
0.661221
0.557368
0.486875
0.434004
0.404695
1.00262
1.00272
1.00276
1.00251
1.00176
1.00048
0.998805
0.996958
0.995204
0.993827
0.993367
0.995394
1.00399
1.02691
1.06922
1.10216
1.03998
0.855959
0.656083
0.525536
0.466668
0.454131
0.47047
0.510538
0.58082
0.706145
0.957511
1.51903
2.53493
3.25813
3.40981
3.25844
2.53655
1.52233
0.961234
0.709089
0.579539
0.497745
0.439402
0.407918
1.00107
1.00125
1.00154
1.00183
1.002
1.00198
1.00174
1.00132
1.00075
1.00016
0.999996
1.00186
1.01
1.03241
1.07382
1.10368
1.03549
0.847611
0.648898
0.521533
0.465313
0.454634
0.472605
0.514859
0.58935
0.725218
1.00905
1.6715
2.80005
3.40981
3.50266
3.41007
2.80167
1.67531
1.01319
0.728327
0.587964
0.501769
0.441402
0.409134
1.00034
1.00045
1.00064
1.00088
1.00112
1.00131
1.00142
1.0014
1.00122
1.00088
1.00078
1.00244
1.01003
1.03153
1.07232
1.10396
1.04072
0.855832
0.655657
0.52523
0.466515
0.454066
0.470445
0.510532
0.580825
0.706165
0.957566
1.51919
2.53526
3.25844
3.41007
3.25875
2.53689
1.52249
0.961288
0.709108
0.579546
0.497747
0.439403
0.407918
1.00008
1.00012
1.00021
1.00033
1.00046
1.00059
1.00069
1.0007
1.00057
1.00028
1.00012
1.00146
1.00816
1.02798
1.06763
1.1045
1.0561
0.881283
0.677386
0.53756
0.470976
0.453029
0.46473
0.49888
0.558415
0.658776
0.840199
1.19437
1.83486
2.53655
2.80167
2.53689
1.83605
1.19652
0.843014
0.661343
0.557438
0.48692
0.434035
0.404717
1
1.00002
1.00005
1.00009
1.00015
1.0002
1.00024
1.00022
1.00008
0.999773
0.999517
1.00043
1.00588
1.02309
1.06029
1.10347
1.07841
0.923452
0.716409
0.561378
0.480983
0.453404
0.45753
0.483195
0.529182
0.602057
0.718306
0.907376
1.19597
1.52233
1.67531
1.52249
1.19652
0.908583
0.720281
0.604252
0.528668
0.472411
0.427087
0.400894
0.999991
0.999995
1
1.00002
1.00003
1.00005
1.00006
1.00001
0.999869
0.999563
0.999214
0.99965
1.0036
1.0174
1.05026
1.09784
1.10134
0.979753
0.775979
0.601909
0.501
0.458657
0.452052
0.467536
0.499956
0.549754
0.621164
0.719592
0.842769
0.961234
1.01319
0.961288
0.843014
0.720281
0.622583
0.551723
0.500073
0.458174
0.421462
0.399011
0.999994
0.999994
0.999996
0.999999
1
1.00001
1
0.999959
0.999829
0.999543
0.99913
0.999122
1.00153
1.01149
1.03812
1.08543
1.11658
1.04357
0.858813
0.667213
0.538886
0.474715
0.4528
0.455986
0.475351
0.507286
0.550613
0.603815
0.661221
0.709089
0.728327
0.709108
0.661343
0.604252
0.551723
0.509225
0.476363
0.448456
0.421604
0.403761
0.999997
0.999997
0.999997
0.999998
0.999999
0.999999
0.999992
0.99996
0.999856
0.999607
0.99917
0.99881
0.999832
1.00602
1.02531
1.06678
1.11697
1.10282
0.963885
0.767516
0.607102
0.510907
0.465554
0.451931
0.457189
0.47426
0.499114
0.528355
0.557368
0.579539
0.587964
0.579546
0.557438
0.528668
0.500073
0.476363
0.45955
0.447295
0.43417
0.423665
0.999999
0.999999
0.999999
0.999999
1
1
0.999996
0.999975
0.999899
0.999693
0.999267
0.998673
0.998614
1.00159
1.01376
1.04566
1.10182
1.14293
1.08109
0.908811
0.717955
0.575956
0.493615
0.455073
0.443066
0.446092
0.457303
0.47217
0.486875
0.497745
0.501769
0.497747
0.48692
0.472411
0.458174
0.448456
0.447295
0.45544
0.465352
0.469736
1
1
1
1
1
1
1
0.999988
0.999934
0.999768
0.999369
0.998647
0.997872
0.998555
1.00518
1.02758
1.07973
1.15748
1.18675
1.07211
0.857769
0.658206
0.52715
0.458146
0.42809
0.419102
0.42069
0.4269
0.434004
0.439402
0.441402
0.439403
0.434035
0.427087
0.421462
0.421604
0.43417
0.465352
0.508136
0.537708
1
1
1
1
1
1
1
0.999996
0.999954
0.99981
0.999433
0.998659
0.997534
0.997037
1.00067
1.01729
1.06401
1.15687
1.24972
1.19105
0.960273
0.714719
0.54713
0.457422
0.416568
0.401282
0.398329
0.400744
0.404695
0.407918
0.409134
0.407918
0.404717
0.400894
0.399011
0.403761
0.423665
0.469736
0.537708
0.588481
SCALARS C2 double 1
LOOKUP_TABLE default
3.99438
4.07436
4.11314
3.49858
1.33523
0.960321
1.06524
1.19345
1.29953
1.36815
1.3918
1.36815
1.29951
1.19331
1.06475
0.959117
1.33544
3.46273
4.07358
4.00072
3.80192
3.57203
3.34977
3.16795
3.049
2.99312
2.9798
2.98439
2.99166
2.99652
2.99886
2.99974
2.99999
3.00003
3.00002
3.00001
3
3
3
3
4.07436
4.05363
3.3339
1.38538
1.17492
1.29987
1.45325
1.59384
1.70402
1.77366
1.79742
1.77367
1.70401
1.59369
1.4526
1.29777
1.16873
1.34217
3.10095
3.87963
3.82156
3.62366
3.41028
3.2239
3.09013
3.01605
2.98877
2.98628
2.99128
2.99591
2.99849
2.99958
2.99994
3.00002
3.00002
3.00001
3
3
3
3
4.11314
3.3339
1.33148
1.3011
1.49276
1.70247
1.89701
2.05968
2.18052
2.25443
2.27926
2.25444
2.18051
2.05952
1.8962
1.6998
1.48659
1.28908
1.25936
2.7381
3.72341
3.69201
3.50878
3.31765
3.16091
3.05759
3.0065
2.99084
2.99108
2.99492
2.99782
2.99927
2.99983
2.99999
3.00001
3.00001
3
3
3
3
3.49858
1.38538
1.3011
1.55125
1.81508
2.06001
2.2711
2.43902
2.5598
2.63236
2.65656
2.63237
2.55979
2.43888
2.27031
2.05724
1.80904
1.54517
1.30517
1.27131
2.90322
3.68299
3.60778
3.42304
3.2451
3.11092
3.03204
2.999
2.99188
2.99394
2.99699
2.99885
2.99966
2.99994
3
3.00001
3.00001
3
3
3
1.33523
1.17492
1.49276
1.81508
2.10864
2.36264
2.57212
2.73494
2.85109
2.92083
2.94411
2.92083
2.85109
2.73484
2.57145
2.36009
2.10307
1.81192
1.51257
1.2585
1.48491
3.34842
3.66147
3.51737
3.3286
3.16887
3.06322
3.01096
2.99431
2.99338
2.99616
2.99837
2.99946
2.99987
2.99999
3.00001
3
3
3
3
0.960321
1.29987
1.70247
2.06001
2.36264
2.61323
2.81618
2.97383
3.08708
3.15563
3.17862
3.15564
3.08709
2.97377
2.81564
2.61097
2.35759
2.05878
1.73218
1.41527
1.20769
2.39308
3.60551
3.58494
3.40191
3.22511
3.09687
3.02586
2.99848
2.99348
2.99549
2.99789
2.99924
2.99979
2.99997
3
3
3
3
3
1.06524
1.45325
1.89701
2.2711
2.57212
2.81618
3.01406
3.16941
3.28234
3.35132
3.37457
3.35133
3.28236
3.16938
3.01363
2.81417
2.56746
2.27099
1.93332
1.58397
1.28087
1.5054
3.35693
3.61484
3.45964
3.27476
3.12944
3.04198
3.00394
2.99427
2.99508
2.99749
2.99905
2.99973
2.99996
3
3.00001
3
2.99999
2.99999
1.19345
1.59384
2.05968
2.43902
2.73494
2.97383
3.16941
3.32488
3.4391
3.50938
3.53316
3.50939
3.43912
3.32487
3.16906
2.97201
2.73052
2.43935
2.09974
1.73317
1.38813
1.24763
2.9086
3.60257
3.49983
3.31465
3.15775
3.05725
3.00982
2.99558
2.99498
2.99726
2.99896
2.99974
3
3.00005
3.00003
3.00001
3
2.99999
1.29953
1.70402
2.18052
2.5598
2.85109
3.08708
3.28234
3.4391
3.55514
3.62689
3.65122
3.6269
3.55515
3.4391
3.28205
3.08539
2.84678
2.56016
2.22225
1.84759
1.47934
1.22347
2.42754
3.55788
3.52375
3.34329
3.17953
3.06983
3.0152
2.99717
2.99527
2.99735
2.99911
2.99994
3.0002
3.00022
3.00016
3.00009
3.00004
3.00001
1.36815
1.77366
2.25443
2.63236
2.92083
3.15563
3.35132
3.50938
3.62689
3.69976
3.72451
3.69977
3.62691
3.50939
3.35106
3.15401
2.91657
2.63263
2.29671
1.9189
1.53873
1.24097
2.11077
3.50874
3.53533
3.36053
3.19345
3.07842
3.01933
2.99884
2.99604
2.99795
2.99971
3.00055
3.00076
3.00068
3.00052
3.00036
3.00023
3.00016
1.3918
1.79742
2.27926
2.65656
2.94411
3.17862
3.37457
3.53316
3.65122
3.72451
3.7494
3.72451
3.65124
3.53317
3.37432
3.17702
2.93986
2.65677
2.32164
1.94307
1.55926
1.25026
2.00903
3.48809
3.53911
3.3669
3.19896
3.08222
3.02163
3.00027
2.99715
2.999
3.00079
3.00164
3.00182
3.00167
3.00137
3.00105
3.00078
3.00063
1.36815
1.77367
2.25444
2.63237
2.92083
3.15564
3.35133
3.50939
3.6269
3.69977
3.72451
3.69977
3.62691
3.5094
3.35106
3.15401
2.91657
2.63264
2.29673
1.91893
1.53878
1.24108
2.11303
3.51068
3.53716
3.36258
3.19553
3.08027
3.02084
3.00007
2.99718
2.9992
3.00125
3.00244
3.00295
3.00302
3.00281
3.00245
3.00209
3.00186
1.29951
1.70401
2.18051
2.55979
2.85109
3.08709
3.28236
3.43912
3.55515
3.62691
3.65124
3.62691
3.55517
3.43912
3.28206
3.0854
2.84678
2.56016
2.22227
1.84763
1.4794
1.22372
2.43317
3.56174
3.52712
3.34619
3.18107
3.06931
3.0126
2.99313
2.99074
2.99332
2.99641
2.99908
3.00127
3.00291
3.00392
3.00435
3.00439
3.00433
1.19331
1.59369
2.05952
2.43888
2.73484
2.97377
3.16938
3.32487
3.4391
3.50939
3.53317
3.5094
3.43912
3.32486
3.16903
2.97195
2.73042
2.43924
2.09963
1.73308
1.38802
1.24851
2.9173
3.60699
3.50188
3.31227
3.14827
3.03953
2.98485
2.9659
2.96369
2.96748
2.97339
2.98036
2.98775
2.99471
3.00043
3.00447
3.00685
3.0079
1.06475
1.4526
1.8962
2.27031
2.57145
2.81564
3.01363
3.16906
3.28205
3.35106
3.37432
3.35106
3.28206
3.16903
3.0132
2.81363
2.5668
2.27025
1.93255
1.58316
1.27992
1.50986
3.36318
3.61383
3.44862
3.24671
3.07952
2.97047
2.91543
2.8954
2.89276
2.89829
2.909
2.92407
2.94243
2.96203
2.9803
2.99497
3.00484
3.00968
0.959117
1.29777
1.6998
2.05724
2.36009
2.61097
2.81417
2.97201
3.08539
3.15401
3.17702
3.15401
3.0854
2.97195
2.81363
2.60872
2.35509
2.05609
1.72936
1.41218
1.20415
2.39809
3.59808
3.55988
3.34501
3.12495
2.95322
2.84789
2.79814
2.78132
2.7796
2.78495
2.79625
2.81521
2.84338
2.8798
2.92
2.95713
2.98484
2.99935
1.33544
1.16873
1.48659
1.80904
2.10307
2.35759
2.56746
2.73052
2.84678
2.91657
2.93986
2.91657
2.84678
2.73042
2.5668
2.35509
2.0976
1.80588
1.50568
1.24929
1.46875
3.32184
3.61617
3.42404
3.16773
2.94624
2.80332
2.73727
2.72026
2.72299
2.72728
2.72652
2.72189
2.71935
2.72759
2.7547
2.80281
2.86325
2.91835
2.95063
3.46273
1.34217
1.28908
1.54517
1.81192
2.05878
2.27099
2.43935
2.56016
2.63263
2.65677
2.63264
2.56016
2.43924
2.27025
2.05609
1.80588
1.53872
1.29187
1.23323
2.78647
3.59837
3.47254
3.20384
2.96352
2.82009
2.773
2.78682
2.8227
2.85351
2.86601
2.85641
2.82648
2.78224
2.73437
2.6983
2.69098
2.72102
2.77479
2.817
4.07358
3.10095
1.25936
1.30517
1.51257
1.73218
1.93332
2.09974
2.22225
2.29671
2.32164
2.29673
2.22227
2.09963
1.93255
1.72936
1.50568
1.29187
1.20293
2.37068
3.52926
3.49161
3.23197
3.00281
2.88944
2.88428
2.94473
3.02697
3.09972
3.14722
3.16397
3.14903
3.10346
3.0301
2.93465
2.82727
2.72374
2.64361
2.60074
2.589
4.00072
3.87963
2.7381
1.27131
1.2585
1.41527
1.58397
1.73317
1.84759
1.9189
1.94307
1.91893
1.84763
1.73308
1.58316
1.41218
1.24929
1.23323
2.37068
3.48865
3.49415
3.25038
3.04566
2.97108
3.00996
3.11504
3.24022
3.35274
3.43689
3.48791
3.5051
3.48867
3.43898
3.3567
3.24305
3.10006
2.9307
2.74153
2.55592
2.43195
3.80192
3.82156
3.72341
2.90322
1.48491
1.20769
1.28087
1.38813
1.47934
1.53873
1.55926
1.53878
1.4794
1.38802
1.27992
1.20415
1.46875
2.78647
3.52926
3.49415
3.25684
3.07247
3.03099
3.10714
3.24991
3.41145
3.55813
3.6749
3.75811
3.80776
3.8243
3.80799
3.7589
3.677
3.56201
3.41219
3.22125
2.9793
2.7072
2.5133
3.57203
3.62366
3.69201
3.68299
3.34842
2.39308
1.5054
1.24763
1.22347
1.24097
1.25026
1.24108
1.22372
1.24851
1.50986
2.39809
3.32184
3.59837
3.49161
3.25038
3.07247
3.05244
3.15817
3.33288
3.52618
3.7033
3.84965
3.96242
4.04212
4.08956
4.10531
4.08963
4.04239
3.96327
3.85167
3.7053
3.51536
3.26405
2.96828
2.75783
3.34977
3.41028
3.50878
3.60778
3.66147
3.60551
3.35693
2.9086
2.42754
2.11077
2.00903
2.11303
2.43317
2.9173
3.36318
3.59808
3.61617
3.47254
3.23197
3.04566
3.03099
3.15817
3.36062
3.58308
3.78879
3.96293
4.10313
4.21015
4.2851
4.32927
4.34384
4.32931
4.28522
4.21053
4.10406
3.9636
3.78099
3.53697
3.24394
3.03503
3.16795
3.2239
3.31765
3.42304
3.51737
3.58494
3.61484
3.60257
3.55788
3.50874
3.48809
3.51068
3.56174
3.60699
3.61383
3.55988
3.42404
3.20384
3.00281
2.97108
3.10714
3.33288
3.58308
3.81694
4.01838
4.1848
4.31674
4.41512
4.48175
4.51962
4.5318
4.51964
4.48181
4.4153
4.31716
4.1848
4.01129
3.77818
3.49217
3.28444
3.049
3.09013
3.16091
3.2451
3.3286
3.40191
3.45964
3.49983
3.52375
3.53533
3.53911
3.53716
3.52712
3.50188
3.44862
3.34501
3.16773
2.96352
2.88944
3.00996
3.24991
3.52618
3.78879
4.01838
4.21147
4.36782
4.48705
4.5698
4.61967
4.64385
4.65065
4.64386
4.61967
4.56979
4.48707
4.36746
4.20551
3.9844
3.70484
3.49546
2.99312
3.01605
3.05759
3.11092
3.16887
3.22511
3.27476
3.31465
3.34329
3.36053
3.3669
3.36258
3.34619
3.31227
3.24671
3.12495
2.94624
2.82009
2.88428
3.11504
3.41145
3.7033
3.96293
4.1848
4.36782
4.50965
4.60732
4.66
4.6736
4.66511
4.65825
4.66511
4.67353
4.65975
4.60685
4.50886
4.36306
4.15576
3.88288
3.67093
2.9798
2.98877
3.0065
3.03204
3.06322
3.09687
3.12944
3.15775
3.17953
3.19345
3.19896
3.19553
3.18107
3.14827
3.07952
2.95322
2.80332
2.773
2.94473
3.24022
3.55813
3.84965
4.10313
4.31674
4.48705
4.60732
4.66833
4.66162
4.5907
4.49361
4.44619
4.49358
4.59047
4.66098
4.66718
4.60591
4.4833
4.29254
4.0275
3.81352
2.98439
2.98628
2.99084
2.999
3.01096
3.02586
3.04198
3.05725
3.06983
3.07842
3.08222
3.08027
3.06931
3.03953
2.97047
2.84789
2.73727
2.78682
3.02697
3.35274
3.6749
3.96242
4.21015
4.41512
4.5698
4.66
4.66162
4.53802
4.25998
3.90423
3.72949
3.90408
4.25939
4.53668
4.65949
4.6578
4.56685
4.39526
4.13917
3.92421
2.99166
2.99128
2.99108
2.99188
2.99431
2.99848
3.00394
3.00982
3.0152
3.01933
3.02163
3.02084
3.0126
2.98485
2.91543
2.79814
2.72026
2.8227
3.09972
3.43689
3.75811
4.04212
4.2851
4.48175
4.61967
4.6736
4.5907
4.25998
3.54109
2.68421
2.33796
2.68386
3.53974
4.25742
4.58728
4.6705
4.61734
4.46544
4.21822
4.0032
2.99652
2.99591
2.99492
2.99394
2.99338
2.99348
2.99427
2.99558
2.99717
2.99884
3.00027
3.00007
2.99313
2.9659
2.8954
2.78132
2.72299
2.85351
3.14722
3.48791
3.80776
4.08956
4.32927
4.51962
4.64385
4.66511
4.49361
3.90423
2.68421
1.69049
1.43434
1.69017
2.68227
3.9002
4.48888
4.66125
4.64193
4.50568
4.26523
4.05054
2.99886
2.99849
2.99782
2.99699
2.99616
2.99549
2.99508
2.99498
2.99527
2.99604
2.99715
2.99718
2.99074
2.96369
2.89276
2.7796
2.72728
2.86601
3.16397
3.5051
3.8243
4.10531
4.34384
4.5318
4.65065
4.65825
4.44619
3.72949
2.33796
1.43434
1.23952
1.43408
2.33598
3.72479
4.44087
4.65409
4.64887
4.51871
4.2808
4.06631
2.99974
2.99958
2.99927
2.99885
2.99837
2.99789
2.99749
2.99726
2.99735
2.99795
2.999
2.9992
2.99332
2.96748
2.89829
2.78495
2.72652
2.85641
3.14903
3.48867
3.80799
4.08963
4.32931
4.51964
4.64386
4.66511
4.49358
3.90408
2.68386
1.69017
1.43408
1.68984
2.68193
3.90005
4.48885
4.66125
4.64194
4.5057
4.26525
4.05056
2.99999
2.99994
2.99983
2.99966
2.99946
2.99924
2.99905
2.99896
2.99911
2.99971
3.00079
3.00125
2.99641
2.97339
2.909
2.79625
2.72189
2.82648
3.10346
3.43898
3.7589
4.04239
4.28522
4.48181
4.61967
4.67353
4.59047
4.25939
3.53974
2.68227
2.33598
2.68193
3.53839
4.25683
4.58705
4.67043
4.61734
4.4655
4.21833
4.00332
3.00003
3.00002
2.99999
2.99994
2.99987
2.99979
2.99973
2.99974
2.99994
3.00055
3.00164
3.00244
2.99908
2.98036
2.92407
2.81521
2.71935
2.78224
3.0301
3.3567
3.677
3.96327
4.21053
4.4153
4.56979
4.65975
4.66098
4.53668
4.25742
3.9002
3.72479
3.90005
4.25683
4.53534
4.65884
4.65753
4.56683
4.39545
4.13956
3.92467
3.00002
3.00002
3.00001
3
2.99999
2.99997
2.99996
3
3.0002
3.00076
3.00182
3.00295
3.00127
2.98775
2.94243
2.84338
2.72759
2.73437
2.93465
3.24305
3.56201
3.85167
4.10406
4.31716
4.48707
4.60685
4.66718
4.65949
4.58728
4.48888
4.44087
4.48885
4.58705
4.65884
4.66599
4.60538
4.48325
4.29299
4.02851
3.81479
3.00001
3.00001
3.00001
3.00001
3.00001
3
3
3.00005
3.00022
3.00068
3.00167
3.00302
3.00291
2.99471
2.96203
2.8798
2.7547
2.6983
2.82727
3.10006
3.41219
3.7053
3.9636
4.1848
4.36746
4.50886
4.60591
4.6578
4.6705
4.66125
4.65409
4.66125
4.67043
4.65753
4.60538
4.50792
4.36244
4.15554
3.88363
3.67255
3
3
3
3.00001
3
3
3.00001
3.00003
3.00016
3.00052
3.00137
3.00281
3.00392
3.00043
2.9803
2.92
2.80281
2.69098
2.72374
2.9307
3.22125
3.51536
3.78099
4.01129
4.20551
4.36306
4.4833
4.56685
4.61734
4.64193
4.64887
4.64194
4.61734
4.56683
4.48325
4.36244
4.19871
3.97556
3.69604
3.48877
3
3
3
3
3
3
3
3.00001
3.00009
3.00036
3.00105
3.00245
3.00435
3.00447
2.99497
2.95713
2.86325
2.72102
2.64361
2.74153
2.9793
3.26405
3.53697
3.77818
3.9844
4.15576
4.29254
4.39526
4.46544
4.50568
4.51871
4.5057
4.4655
4.39545
4.29299
4.15554
3.97556
3.73374
3.44112
3.23409
3
3
3
3
3
3
2.99999
3
3.00004
3.00023
3.00078
3.00209
3.00439
3.00685
3.00484
2.98484
2.91835
2.77479
2.60074
2.55592
2.7072
2.96828
3.24394
3.49217
3.70484
3.88288
4.0275
4.13917
4.21822
4.26523
4.2808
4.26525
4.21833
4.13956
4.02851
3.88363
3.69604
3.44112
3.12687
2.90329
3
3
3
3
3
3
2.99999
2.99999
3.00001
3.00016
3.00063
3.00186
3.00433
3.0079
3.00968
2.99935
2.95063
2.817
2.589
2.43195
2.5133
2.75783
3.03503
3.28444
3.49546
3.67093
3.81352
3.92421
4.0032
4.05054
4.06631
4.05056
4.00332
3.92467
3.81479
3.67255
3.48877
3.23409
2.90329
2.65716
