# vtk DataFile Version 3.0
Brusselator Concentration Output
ASCII
DATASET STRUCTURED_POINTS
DIMENSIONS 40 40 1
ORIGIN 0.0 0.0 0.0
SPACING 0.005 0.005 1.0
POINT_DATA 1600
SCALARS C1 double 1
LOOKUP_TABLE default
1.02344
1.04926
1.09666
1.14584
1.16084
1.12059
1.04119
0.954679
0.884329
0.840409
0.825664
0.84041
0.884334
0.954699
1.04127
1.12082
1.16141
1.14699
1.09828
1.04998
1.01902
1.00435
0.999305
0.998477
0.998915
0.999443
0.99977
0.999922
0.999979
0.999997
1
1
1
1
1
1
1
1
1
1
1.04926
1.07619
1.10824
1.10699
1.05209
0.96172
0.866949
0.788145
0.732653
0.700606
0.690215
0.700607
0.732658
0.788165
0.86702
0.961929
1.05257
1.10777
1.10858
1.07317
1.0358
1.0127
1.00251
0.999379
0.999024
0.999371
0.999702
0.999886
0.999965
0.999992
0.999999
1
1
1
1
1
1
1
1
1
1.09666
1.10824
1.08588
0.999315
0.876063
0.759457
0.671076
0.612583
0.577713
0.559746
0.554257
0.559747
0.577717
0.612601
0.671136
0.759621
0.876339
0.999206
1.08315
1.09667
1.0643
1.02973
1.00981
1.00173
0.999487
0.999319
0.999594
0.999821
0.999937
0.999982
0.999996
1
1
1
1
1
1
1
1
1
1.14584
1.10699
0.999315
0.847454
0.707035
0.60637
0.54488
0.511387
0.495007
0.488093
0.486264
0.488094
0.49501
0.5114
0.544925
0.60647
0.707043
0.846183
0.992236
1.08311
1.08898
1.05303
1.0219
1.00626
1.0007
0.999447
0.999499
0.999739
0.999896
0.999967
0.999992
0.999999
1
1
1
1
1
1
1
1
1.16084
1.05209
0.876063
0.707035
0.587627
0.518592
0.484786
0.471701
0.469112
0.470271
0.471122
0.470271
0.469114
0.471712
0.484816
0.51863
0.58738
0.704689
0.864875
1.01715
1.08826
1.07456
1.03766
1.01333
1.003
0.999926
0.999482
0.999661
0.999848
0.999946
0.999985
0.999997
1
1
1
1
1
1
1
1
1.12059
0.96172
0.759457
0.60637
0.518592
0.478068
0.46551
0.467854
0.476461
0.484835
0.488238
0.484836
0.476464
0.467862
0.465528
0.478055
0.518139
0.603248
0.745594
0.921624
1.05369
1.08389
1.05349
1.02229
1.00642
1.00085
0.9996
0.99961
0.9998
0.999923
0.999976
0.999994
0.999999
1
1
1
1
1
1
1
1.04119
0.866949
0.671076
0.54488
0.484786
0.46551
0.46901
0.484713
0.504992
0.522174
0.528972
0.522174
0.504995
0.484721
0.46902
0.465455
0.484179
0.541294
0.656218
0.828147
0.997495
1.07649
1.0651
1.0316
1.01058
1.00217
0.999866
0.999601
0.99976
0.9999
0.999967
0.999991
0.999998
1
1
1
1
1
1
1
0.954679
0.788145
0.612583
0.511387
0.471701
0.467854
0.484713
0.514213
0.549282
0.5794
0.591586
0.5794
0.549286
0.51422
0.484717
0.467765
0.470977
0.507558
0.597895
0.754415
0.938927
1.05709
1.07042
1.03954
1.01478
1.00367
1.00023
0.999633
0.999734
0.999879
0.999958
0.999988
0.999998
1
1
1
1
1
1
1
0.884329
0.732653
0.577713
0.495007
0.469112
0.476461
0.504992
0.549282
0.603081
0.651672
0.67208
0.651673
0.603084
0.54929
0.504991
0.476345
0.468302
0.491064
0.563655
0.704574
0.891686
1.03501
1.07071
1.04512
1.01828
1.00504
1.00061
0.999689
0.99972
0.999865
0.999952
0.999987
0.999998
1
1
1
1
1
1
1
0.840409
0.700606
0.559746
0.488093
0.470271
0.484835
0.522174
0.5794
0.651672
0.720255
0.750047
0.720257
0.651676
0.579407
0.522168
0.4847
0.469405
0.4841
0.546254
0.676593
0.862101
1.01851
1.06903
1.04823
1.02056
1.006
1.0009
0.999741
0.999718
0.99986
0.999951
0.999989
1
1
1
1
1
1
1
1
0.825664
0.690215
0.554257
0.486264
0.471122
0.488238
0.528972
0.591586
0.67208
0.750047
0.784382
0.750049
0.672085
0.591593
0.528964
0.488095
0.470237
0.482257
0.540983
0.667651
0.852131
1.01248
1.06811
1.0492
1.02135
1.00635
1.00101
0.99977
0.999729
0.99987
0.999962
1
1.00001
1.00001
1.00001
1.00001
1
1
1
1
0.84041
0.700607
0.559747
0.488094
0.470271
0.484836
0.522174
0.5794
0.651673
0.720257
0.750049
0.720258
0.651678
0.579408
0.522168
0.4847
0.469405
0.484101
0.546255
0.676594
0.862103
1.01851
1.06903
1.04824
1.02058
1.00603
1.00093
0.999779
0.999761
0.999907
0.999999
1.00004
1.00004
1.00004
1.00003
1.00003
1.00002
1.00001
1.00001
1
0.884334
0.732658
0.577717
0.49501
0.469114
0.476464
0.504995
0.549286
0.603084
0.651676
0.672085
0.651678
0.603088
0.549293
0.504993
0.476347
0.468304
0.491067
0.563659
0.704579
0.891693
1.03503
1.07074
1.04515
1.01833
1.00512
1.0007
0.99979
0.99983
0.99998
1.00007
1.0001
1.00011
1.0001
1.00009
1.00007
1.00005
1.00003
1.00002
1.00001
0.954699
0.788165
0.612601
0.5114
0.471712
0.467862
0.484721
0.51422
0.54929
0.579407
0.591593
0.579408
0.549293
0.514227
0.484724
0.467773
0.470988
0.507572
0.597912
0.754437
0.938955
1.05714
1.07049
1.03964
1.01491
1.00383
1.00041
0.999812
0.999906
1.00004
1.00012
1.00015
1.00017
1.00018
1.00017
1.00016
1.00013
1.00009
1.00007
1.00005
1.04127
0.86702
0.671136
0.544925
0.484816
0.465528
0.46902
0.484717
0.504991
0.522168
0.528964
0.522168
0.504993
0.484724
0.46903
0.465474
0.484209
0.541339
0.65628
0.828226
0.997591
1.07661
1.06526
1.0318
1.01082
1.0024
1.00005
0.999694
0.999754
0.999816
0.999854
0.999908
0.999992
1.00009
1.00018
1.00023
1.00024
1.00021
1.00017
1.00014
1.12082
0.961929
0.759621
0.60647
0.51863
0.478055
0.465455
0.467765
0.476345
0.4847
0.488095
0.4847
0.476347
0.467773
0.465474
0.478042
0.518178
0.60335
0.745765
0.921853
1.05395
1.08418
1.05381
1.0226
1.00664
1.00084
0.999227
0.9988
0.998575
0.998402
0.998348
0.998473
0.998774
0.99919
0.999626
0.999991
1.00022
1.00033
1.00034
1.00033
1.16141
1.05257
0.876339
0.707043
0.58738
0.518139
0.484179
0.470977
0.468302
0.469405
0.470237
0.469405
0.468304
0.470988
0.484209
0.518178
0.587136
0.704707
0.865173
1.01766
1.08886
1.07513
1.03809
1.01344
1.00248
0.998414
0.996705
0.995549
0.994575
0.993892
0.993655
0.993942
0.994726
0.995888
0.997224
0.998494
0.999499
1.00015
1.00048
1.0006
1.14699
1.10777
0.999206
0.846183
0.704689
0.603248
0.541294
0.507558
0.491064
0.4841
0.482257
0.484101
0.491067
0.507572
0.541339
0.60335
0.704707
0.844939
0.99217
1.08391
1.09004
1.05381
1.02194
1.00497
0.997288
0.993233
0.990157
0.987439
0.985242
0.983827
0.983349
0.983859
0.985345
0.9877
0.990662
0.993801
0.996626
0.998764
1.00009
1.00069
1.09828
1.10858
1.08315
0.992236
0.864875
0.745594
0.656218
0.597895
0.563655
0.546254
0.540983
0.546255
0.563659
0.597912
0.65628
0.745765
0.865173
0.99217
1.08045
1.0969
1.06537
1.02998
1.00784
0.996044
0.988718
0.982697
0.977295
0.972867
0.969776
0.968047
0.967508
0.968065
0.96984
0.973048
0.97771
0.983404
0.989282
0.994371
0.997961
0.999767
1.04998
1.07317
1.09667
1.08311
1.01715
0.921624
0.828147
0.754415
0.704574
0.676593
0.667651
0.676594
0.704579
0.754437
0.828226
0.921853
1.01766
1.08391
1.0969
1.06959
1.03491
1.01019
0.994983
0.984113
0.974517
0.965926
0.959373
0.955642
0.954472
0.95468
0.954942
0.954689
0.95451
0.955764
0.95969
0.966588
0.975523
0.984652
0.991968
0.995983
1.01902
1.0358
1.0643
1.08898
1.08826
1.05369
0.997495
0.938927
0.891686
0.862101
0.852131
0.862103
0.891693
0.938955
0.997591
1.05395
1.08886
1.09004
1.06537
1.03491
1.01111
0.994376
0.98066
0.96755
0.955793
0.948015
0.946637
0.952137
0.962047
0.971424
0.975255
0.971431
0.962076
0.952234
0.946899
0.948595
0.956797
0.9686
0.979873
0.986691
1.00435
1.0127
1.02973
1.05303
1.07456
1.08389
1.07649
1.05709
1.03501
1.01851
1.01248
1.01851
1.03503
1.05714
1.07661
1.08418
1.07513
1.05381
1.02998
1.01019
0.994376
0.979379
0.963559
0.948955
0.940705
0.945164
0.96777
1.00922
1.06021
1.1025
1.11885
1.10251
1.06026
1.00934
0.968053
0.945705
0.94146
0.949278
0.961292
0.969788
0.999305
1.00251
1.00981
1.0219
1.03766
1.05349
1.0651
1.07042
1.07071
1.06903
1.06811
1.06903
1.07074
1.07049
1.06526
1.05381
1.03809
1.02194
1.00784
0.994983
0.98066
0.963559
0.946562
0.937429
0.948478
0.997587
1.10462
1.26603
1.43237
1.54618
1.58464
1.54621
1.43246
1.26626
1.10505
0.998146
0.948721
0.935883
0.939809
0.945969
0.998477
0.999379
1.00173
1.00626
1.01333
1.02229
1.0316
1.03954
1.04512
1.04823
1.0492
1.04824
1.04515
1.03964
1.0318
1.0226
1.01344
1.00497
0.996044
0.984113
0.96755
0.948955
0.937429
0.950642
1.023
1.2159
1.54879
1.84625
1.9448
1.93189
1.91668
1.93191
1.94487
1.8465
1.54936
1.21641
1.02214
0.94576
0.923619
0.920016
0.998915
0.999024
0.999487
1.0007
1.003
1.00642
1.01058
1.01478
1.01828
1.02056
1.02135
1.02058
1.01833
1.01491
1.01082
1.00664
1.00248
0.997288
0.988718
0.974517
0.955793
0.940705
0.948478
1.023
1.26773
1.74225
1.99348
1.85534
1.66756
1.54389
1.50214
1.54389
1.66755
1.85526
1.99317
1.74155
1.26406
1.01232
0.92521
0.899788
0.999443
0.999371
0.999319
0.999447
0.999926
1.00085
1.00217
1.00367
1.00504
1.006
1.00635
1.00603
1.00512
1.00383
1.0024
1.00084
0.998414
0.993233
0.982697
0.965926
0.948015
0.945164
0.997587
1.2159
1.74225
1.99172
1.72458
1.44142
1.23955
1.12378
1.08643
1.12378
1.23953
1.44126
1.7238
1.98884
1.73305
1.19488
0.962152
0.893862
0.99977
0.999702
0.999594
0.999499
0.999482
0.9996
0.999866
1.00023
1.00061
1.0009
1.00101
1.00093
1.0007
1.00041
1.00005
0.999227
0.996705
0.990157
0.977295
0.959373
0.946637
0.96777
1.10462
1.54879
1.99348
1.72458
1.36645
1.09726
0.92409
0.830198
0.800742
0.830197
0.924066
1.09708
1.36559
1.72133
1.98327
1.51451
1.05397
0.909235
0.999922
0.999886
0.999821
0.999739
0.999661
0.99961
0.999601
0.999633
0.999689
0.999741
0.99977
0.999779
0.99979
0.999812
0.999694
0.9988
0.995549
0.987439
0.972867
0.955642
0.952137
1.00922
1.26603
1.84625
1.85534
1.44142
1.09726
0.864137
0.72375
0.651194
0.629011
0.651193
0.723725
0.863957
1.09639
1.4383
1.84662
1.8111
1.19999
0.947705
0.999979
0.999965
0.999937
0.999896
0.999848
0.9998
0.99976
0.999734
0.99972
0.999718
0.999729
0.999761
0.99983
0.999906
0.999754
0.998575
0.994575
0.985242
0.969776
0.954472
0.962047
1.06021
1.43237
1.9448
1.66756
1.23955
0.92409
0.72375
0.609363
0.552573
0.535584
0.552571
0.609338
0.723576
0.923248
1.23657
1.65962
1.92132
1.35803
1.0003
0.999997
0.999992
0.999982
0.999967
0.999946
0.999923
0.9999
0.999879
0.999865
0.99986
0.99987
0.999907
0.99998
1.00004
0.999816
0.998402
0.993892
0.983827
0.968047
0.95468
0.971424
1.1025
1.54618
1.93189
1.54389
1.12378
0.830198
0.651194
0.552573
0.504925
0.490883
0.504923
0.552548
0.651026
0.829383
1.12091
1.53654
1.91692
1.47221
1.04671
1
0.999999
0.999996
0.999992
0.999985
0.999976
0.999967
0.999958
0.999952
0.999951
0.999962
0.999999
1.00007
1.00012
0.999854
0.998348
0.993655
0.983349
0.967508
0.954942
0.975255
1.11885
1.58464
1.91668
1.50214
1.08643
0.800742
0.629011
0.535584
0.490883
0.477783
0.490882
0.53556
0.628846
0.799938
1.0836
1.49501
1.90431
1.51235
1.06527
1
1
1
0.999999
0.999997
0.999994
0.999991
0.999988
0.999987
0.999989
1
1.00004
1.0001
1.00015
0.999908
0.998473
0.993942
0.983859
0.968065
0.954689
0.971431
1.10251
1.54621
1.93191
1.54389
1.12378
0.830197
0.651193
0.552571
0.504923
0.490882
0.504922
0.552547
0.651025
0.829383
1.12091
1.53654
1.91695
1.47225
1.04672
1
1
1
1
1
0.999999
0.999998
0.999998
0.999998
1
1.00001
1.00004
1.00011
1.00017
0.999992
0.998774
0.994726
0.985345
0.96984
0.95451
0.962076
1.06026
1.43246
1.94487
1.66755
1.23953
0.924066
0.723725
0.609338
0.552548
0.53556
0.552547
0.609313
0.723551
0.923224
1.23655
1.65962
1.9214
1.35813
1.00035
1
1
1
1
1
1
1
1
1
1
1.00001
1.00004
1.0001
1.00018
1.00009
0.99919
0.995888
0.9877
0.973048
0.955764
0.952234
1.00934
1.26626
1.8465
1.85526
1.44126
1.09708
0.863957
0.723576
0.651026
0.628846
0.651025
0.723551
0.863778
1.09621
1.43814
1.84655
1.81137
1.20023
0.947841
1
1
1
1
1
1
1
1
1
1
1.00001
1.00003
1.00009
1.00017
1.00018
0.999626
0.997224
0.990662
0.97771
0.95969
0.946899
0.968053
1.10505
1.54936
1.99317
1.7238
1.36559
1.09639
0.923248
0.829383
0.799938
0.829383
0.923224
1.09621
1.36472
1.72055
1.98298
1.51512
1.05442
0.909542
1
1
1
1
1
1
1
1
1
1
1.00001
1.00003
1.00007
1.00016
1.00023
0.999991
0.998494
0.993801
0.983404
0.966588
0.948595
0.945705
0.998146
1.21641
1.74155
1.98884
1.72133
1.4383
1.23657
1.12091
1.0836
1.12091
1.23655
1.43814
1.72055
1.98596
1.73238
1.19542
0.962745
0.894421
1
1
1
1
1
1
1
1
1
1
1
1.00002
1.00005
1.00013
1.00024
1.00022
0.999499
0.996626
0.989282
0.975523
0.956797
0.94146
0.948721
1.02214
1.26406
1.73305
1.98327
1.84662
1.65962
1.53654
1.49501
1.53654
1.65962
1.84655
1.98298
1.73238
1.26044
1.01153
0.9255
0.900478
1
1
1
1
1
1
1
1
1
1
1
1.00001
1.00003
1.00009
1.00021
1.00033
1.00015
0.998764
0.994371
0.984652
0.9686
0.949278
0.935883
0.94576
1.01232
1.19488
1.51451
1.8111
1.92132
1.91692
1.90431
1.91695
1.9214
1.81137
1.51512
1.19542
1.01153
0.940957
0.922035
0.919924
1
1
1
1
1
1
1
1
1
1
1
1.00001
1.00002
1.00007
1.00017
1.00034
1.00048
1.00009
0.997961
0.991968
0.979873
0.961292
0.939809
0.923619
0.92521
0.962152
1.05397
1.19999
1.35803
1.47221
1.51235
1.47225
1.35813
1.20023
1.05442
0.962745
0.9255
0.922035
0.93263
0.942333
1
1
1
1
1
1
1
1
1
1
1
1
1.00001
1.00005
1.00014
1.00033
1.0006
1.00069
0.999767
0.995983
0.986691
0.969788
0.945969
0.920016
0.899788
0.893862
0.909235
0.947705
1.0003
1.04671
1.06527
1.04672
1.00035
0.947841
0.909542
0.894421
0.900478
0.919924
0.942333
0.957056
SCALARS C2 double 1
LOOKUP_TABLE default
2.99356
2.95946
2.88486
2.77608
2.67179
2.62037
2.63397
2.688
2.74978
2.79534
2.81183
2.79534
2.74978
2.68799
2.6339
2.62009
2.67098
2.77413
2.88124
2.95451
2.99056
3.00302
3.00481
3.00337
3.00175
3.00074
3.00026
3.00007
3.00001
3
3
3
3
3
3
3
3
3
3
3
2.95946
2.90923
2.82148
2.73991
2.71753
2.76708
2.86178
2.9667
3.05582
3.11403
3.13412
3.11403
3.05582
2.96669
2.8617
2.76678
2.71667
2.73797
2.81846
2.90735
2.96646
2.9937
3.00224
3.00312
3.00202
3.00097
3.00038
3.00012
3.00003
3
3
3
3
3
3
3
3
3
3
3
2.88486
2.82148
2.7536
2.76045
2.86199
3.01905
3.1853
3.33079
3.44057
3.50809
3.53082
3.50809
3.44057
3.33078
3.18522
3.01875
2.86115
2.75892
2.7529
2.82841
2.91647
2.97168
2.99511
3.00176
3.00224
3.00136
3.00061
3.00022
3.00007
3.00001
3
3
3
3
3
3
3
3
3
3
2.77608
2.73991
2.76045
2.88974
3.09124
3.30773
3.50304
3.66123
3.77621
3.84569
3.86891
3.84569
3.77621
3.66121
3.50297
3.30746
3.09051
2.88902
2.76416
2.7629
2.84887
2.93417
2.98064
2.99786
3.00185
3.0017
3.00091
3.00037
3.00012
3.00003
3.00001
3
3
3
3
3
3
3
3
3
2.67179
2.71753
2.86199
3.09124
3.34623
3.58389
3.78556
3.94485
4.05934
4.12806
4.15093
4.12806
4.05933
3.94484
3.78551
3.58366
3.34563
3.09136
2.87084
2.75999
2.7903
2.88547
2.95744
2.99011
3.00021
3.00176
3.00118
3.00055
3.0002
3.00006
3.00001
3
3
3
3
3
3
3
3
3
2.62037
2.76708
3.01905
3.30773
3.58389
3.826
4.02674
4.18335
4.29452
4.36031
4.38196
4.36031
4.29452
4.18334
4.0267
3.82583
3.58342
3.30846
3.03222
2.82633
2.76858
2.8388
2.92788
2.97828
2.99691
3.00131
3.00136
3.00072
3.00029
3.00009
3.00002
3
3
3
3
3
3
3
3
3
2.63397
2.86178
3.1853
3.50304
3.78556
4.02674
4.22377
4.37446
4.47801
4.53668
4.55531
4.53668
4.47801
4.37446
4.22374
4.02661
3.78521
3.50414
3.20127
2.93198
2.78869
2.80789
2.89783
2.96376
2.99212
3.0003
3.00137
3.00086
3.00037
3.00013
3.00003
3.00001
3
3
3
3
3
3
3
3
2.688
2.9667
3.33079
3.66123
3.94485
4.18335
4.37446
4.51482
4.60375
4.64783
4.66003
4.64783
4.60375
4.51481
4.37444
4.18325
3.9446
3.66256
3.34826
3.04235
2.83415
2.79678
2.87326
2.94916
2.98663
2.99889
3.00123
3.00096
3.00045
3.00016
3.00005
3.00001
3
3
3
3
3
3
3
3
2.74978
3.05582
3.44057
3.77621
4.05934
4.29452
4.47801
4.60375
4.67013
4.68987
4.69086
4.68987
4.67013
4.60375
4.47799
4.29446
4.05919
3.77771
3.45871
3.13342
2.88321
2.79941
2.85701
2.93712
2.98159
2.99744
3.001
3.001
3.00051
3.00019
3.00006
3.00001
3
3
3
3
3
3
3
3
2.79534
3.11403
3.50809
3.84569
4.12806
4.36031
4.53668
4.64783
4.68987
4.68139
4.66878
4.68139
4.68987
4.64782
4.53666
4.36027
4.12798
3.84731
3.52649
3.19201
2.91901
2.80607
2.84849
2.92939
2.97807
2.99635
3.00079
3.00101
3.00054
3.00021
3.00006
3.00001
3
3
3
3
3
3
3
3
2.81183
3.13412
3.53082
3.86891
4.15093
4.38196
4.55531
4.66003
4.69086
4.66878
4.64942
4.66877
4.69085
4.66002
4.55529
4.38193
4.15088
3.87056
3.54929
3.21211
2.93196
2.80921
2.84595
2.92675
2.97681
2.99594
3.0007
3.001
3.00053
3.0002
3.00005
3
2.99998
2.99999
2.99999
2.99999
3
3
3
3
2.79534
3.11403
3.50809
3.84569
4.12806
4.36031
4.53668
4.64783
4.68987
4.68139
4.66877
4.68139
4.68986
4.64781
4.53666
4.36027
4.12798
3.84731
3.52649
3.19201
2.91901
2.80607
2.84849
2.92938
2.97805
2.99632
3.00075
3.00096
3.00048
3.00014
2.99999
2.99995
2.99994
2.99995
2.99996
2.99997
2.99998
2.99999
3
3
2.74978
3.05582
3.44057
3.77621
4.05933
4.29452
4.47801
4.60375
4.67013
4.68987
4.69085
4.68986
4.67012
4.60374
4.47799
4.29446
4.05919
3.77771
3.4587
3.13341
2.8832
2.7994
2.85698
2.93708
2.98152
2.99734
3.00087
3.00084
3.00033
3
2.99986
2.99982
2.99982
2.99984
2.99987
2.99991
2.99994
2.99996
2.99998
2.99999
2.68799
2.96669
3.33078
3.66121
3.94484
4.18334
4.37446
4.51481
4.60375
4.64782
4.66002
4.64781
4.60374
4.5148
4.37443
4.18325
3.94459
3.66255
3.34824
3.04233
2.83413
2.79674
2.87319
2.94903
2.98644
2.99863
3.0009
3.00058
3.00004
2.99974
2.99962
2.99959
2.99959
2.99962
2.99968
2.99974
2.99981
2.99988
2.99992
2.99995
2.6339
2.8617
3.18522
3.50297
3.78551
4.0267
4.22374
4.37444
4.47799
4.53666
4.55529
4.53666
4.47799
4.37443
4.22371
4.02657
3.78516
3.50408
3.20119
2.93189
2.78859
2.80775
2.8976
2.96343
2.99167
2.99974
3.00076
3.00024
2.99978
2.99957
2.99949
2.99945
2.9994
2.99937
2.99938
2.99944
2.99955
2.99967
2.99977
2.99983
2.62009
2.76678
3.01875
3.30746
3.58366
3.82583
4.02661
4.18325
4.29446
4.36027
4.38193
4.36027
4.29446
4.18325
4.02657
3.82566
3.5832
3.30819
3.0319
2.826
2.76824
2.83839
2.92734
2.97758
2.99609
3.00051
3.00076
3.00045
3.0004
3.0005
3.00054
3.00041
3.00011
2.99973
2.9994
2.9992
2.99918
2.99929
2.99943
2.99953
2.67098
2.71667
2.86115
3.09051
3.34563
3.58342
3.78521
3.9446
4.05919
4.12798
4.15088
4.12798
4.05919
3.94459
3.78516
3.5832
3.34504
3.09062
2.86996
2.75905
2.78936
2.88451
2.9564
2.98906
2.99946
3.0018
3.00252
3.00344
3.0046
3.00554
3.00588
3.00548
3.0044
3.0029
3.00133
3.00004
2.99923
2.9989
2.99888
2.99894
2.77413
2.73797
2.75892
2.88902
3.09136
3.30846
3.50414
3.66256
3.77771
3.84731
3.87056
3.84731
3.77771
3.66255
3.50408
3.30819
3.09062
2.88826
2.76254
2.76082
2.84683
2.93237
2.97923
2.99742
3.00345
3.00661
3.01013
3.01421
3.01801
3.02065
3.02159
3.02062
3.01788
3.01384
3.00922
3.00489
3.00154
2.99944
2.99843
2.99809
2.88124
2.81846
2.7529
2.76416
2.87084
3.03222
3.20127
3.34826
3.45871
3.52649
3.54929
3.52649
3.4587
3.34824
3.20119
3.0319
2.86996
2.76254
2.75205
2.82524
2.91306
2.96922
2.99477
3.00547
3.01263
3.02085
3.0305
3.04013
3.04806
3.05316
3.0549
3.05314
3.048
3.03991
3.02988
3.01945
3.01028
3.00353
2.99947
2.99768
2.95451
2.90735
2.82841
2.7629
2.75999
2.82633
2.93198
3.04235
3.13342
3.19201
3.21211
3.19201
3.13341
3.04233
2.93189
2.826
2.75905
2.76082
2.82524
2.90565
2.96281
2.99245
3.00737
3.01934
3.03402
3.05183
3.07024
3.08615
3.0976
3.10414
3.10621
3.10413
3.09757
3.08602
3.06983
3.05079
3.03187
3.01606
3.00525
2.99993
2.99056
2.96646
2.91647
2.84887
2.7903
2.76858
2.78869
2.83415
2.88321
2.91901
2.93196
2.91901
2.8832
2.83413
2.78859
2.76824
2.78936
2.84683
2.91306
2.96281
2.99152
3.00852
3.02468
3.04625
3.0736
3.1026
3.12738
3.14356
3.15049
3.15145
3.15105
3.15145
3.15047
3.14347
3.12707
3.10176
3.07175
3.04303
3.02105
3.00932
3.00302
2.9937
2.97168
2.93417
2.88547
2.8388
2.80789
2.79678
2.79941
2.80607
2.80921
2.80607
2.7994
2.79674
2.80775
2.83839
2.88451
2.93237
2.96922
2.99245
3.00852
3.02673
3.05365
3.08993
3.12969
3.1624
3.17658
3.16528
3.13321
3.09891
3.08428
3.0989
3.13317
3.16515
3.17622
3.16154
3.12802
3.08752
3.05222
3.03187
3.00481
3.00224
2.99511
2.98064
2.95744
2.92788
2.89783
2.87326
2.85701
2.84849
2.84595
2.84849
2.85698
2.87319
2.8976
2.92734
2.9564
2.97923
2.99477
3.00737
3.02468
3.05365
3.09599
3.14503
3.18468
3.18922
3.12515
2.9731
2.77301
2.61208
2.55271
2.61205
2.7729
2.97281
3.12453
3.18813
3.18318
3.14431
3.10024
3.07219
3.00337
3.00312
3.00176
2.99786
2.99011
2.97828
2.96376
2.94916
2.93712
2.92939
2.92675
2.92938
2.93708
2.94903
2.96343
2.97758
2.98906
2.99742
3.00547
3.01934
3.04625
3.08993
3.14503
3.19212
3.18871
3.04761
2.66731
2.17632
1.8614
1.73753
1.70856
1.7375
1.86127
2.17586
2.6662
3.04611
3.18782
3.1948
3.15907
3.12965
3.00175
3.00202
3.00224
3.00185
3.00021
2.99691
2.99212
2.98663
2.98159
2.97807
2.97681
2.97805
2.98152
2.98644
2.99167
2.99609
2.99946
3.00345
3.01263
3.03402
3.0736
3.12969
3.18468
3.18871
3.00566
2.4151
1.78606
1.60513
1.62593
1.67486
1.69563
1.67485
1.6259
1.60502
1.7856
2.41412
3.00726
3.19828
3.21362
3.19652
3.00074
3.00097
3.00136
3.0017
3.00176
3.00131
3.0003
2.99889
2.99744
2.99635
2.99594
2.99632
2.99734
2.99863
2.99974
3.00051
3.0018
3.00661
3.02085
3.05183
3.1026
3.1624
3.18922
3.04761
2.4151
1.69288
1.59727
1.7184
1.85683
1.95376
1.98792
1.95375
1.85682
1.71844
1.59754
1.6942
2.42334
3.07099
3.2393
3.2595
3.00026
3.00038
3.00061
3.00091
3.00118
3.00136
3.00137
3.00123
3.001
3.00079
3.0007
3.00075
3.00087
3.0009
3.00076
3.00076
3.00252
3.01013
3.0305
3.07024
3.12738
3.17658
3.12515
2.66731
1.78606
1.59727
1.76258
1.97368
2.14993
2.26252
2.30092
2.26252
2.14993
1.97375
1.76305
1.59935
1.79701
2.71227
3.20342
3.30355
3.00007
3.00012
3.00022
3.00037
3.00055
3.00072
3.00086
3.00096
3.001
3.00101
3.001
3.00096
3.00084
3.00058
3.00024
3.00045
3.00344
3.01421
3.04013
3.08615
3.14356
3.16528
2.9731
2.17632
1.60513
1.7184
1.97368
2.21873
2.40736
2.52383
2.56306
2.52382
2.40736
2.21881
1.97422
1.72069
1.61414
2.23205
3.08364
3.31772
3.00001
3.00003
3.00007
3.00012
3.0002
3.00029
3.00037
3.00045
3.00051
3.00054
3.00053
3.00048
3.00033
3.00004
2.99978
3.0004
3.0046
3.01801
3.04806
3.0976
3.15049
3.13321
2.77301
1.8614
1.62593
1.85683
2.14993
2.40736
2.59878
2.71561
2.75488
2.71561
2.59877
2.40743
2.1505
1.85922
1.63396
1.90893
2.90924
3.30318
3
3
3.00001
3.00003
3.00006
3.00009
3.00013
3.00016
3.00019
3.00021
3.0002
3.00014
3
2.99974
2.99957
3.0005
3.00554
3.02065
3.05316
3.10414
3.15145
3.09891
2.61208
1.73753
1.67486
1.95376
2.26252
2.52383
2.71561
2.83253
2.87191
2.83252
2.7156
2.52389
2.26309
1.9562
1.68252
1.77597
2.75986
3.27752
3
3
3
3.00001
3.00001
3.00002
3.00003
3.00005
3.00006
3.00006
3.00005
2.99999
2.99986
2.99962
2.99949
3.00054
3.00588
3.02159
3.0549
3.10621
3.15105
3.08428
2.55271
1.70856
1.69563
1.98792
2.30092
2.56306
2.75488
2.87191
2.91137
2.8719
2.75488
2.56312
2.30148
1.99038
1.7032
1.74387
2.70277
3.26514
3
3
3
3
3
3
3.00001
3.00001
3.00001
3.00001
3
2.99995
2.99982
2.99959
2.99945
3.00041
3.00548
3.02062
3.05314
3.10413
3.15145
3.0989
2.61205
1.7375
1.67485
1.95375
2.26252
2.52382
2.71561
2.83252
2.8719
2.83252
2.7156
2.52389
2.26308
1.95619
1.68251
1.77593
2.75983
3.27751
3
3
3
3
3
3
3
3
3
3
2.99998
2.99994
2.99982
2.99959
2.9994
3.00011
3.0044
3.01788
3.048
3.09757
3.15047
3.13317
2.7729
1.86127
1.6259
1.85682
2.14993
2.40736
2.59877
2.7156
2.75488
2.7156
2.59877
2.40743
2.1505
1.85921
1.63392
1.90879
2.90912
3.30313
3
3
3
3
3
3
3
3
3
3
2.99999
2.99995
2.99984
2.99962
2.99937
2.99973
3.0029
3.01384
3.03991
3.08602
3.14347
3.16515
2.97281
2.17586
1.60502
1.71844
1.97375
2.21881
2.40743
2.52389
2.56312
2.52389
2.40743
2.21889
1.9743
1.72073
1.61403
2.23156
3.08334
3.31758
3
3
3
3
3
3
3
3
3
3
2.99999
2.99996
2.99987
2.99968
2.99938
2.9994
3.00133
3.00922
3.02988
3.06983
3.12707
3.17622
3.12453
2.6662
1.7856
1.59754
1.76305
1.97422
2.1505
2.26309
2.30148
2.26308
2.1505
1.9743
1.76352
1.59961
1.79652
2.71113
3.20279
3.30315
3
3
3
3
3
3
3
3
3
3
2.99999
2.99997
2.99991
2.99974
2.99944
2.9992
3.00004
3.00489
3.01945
3.05079
3.10176
3.16154
3.18813
3.04611
2.41412
1.6942
1.59935
1.72069
1.85922
1.9562
1.99038
1.95619
1.85921
1.72073
1.59961
1.69551
2.42232
3.06944
3.23815
3.25856
3
3
3
3
3
3
3
3
3
3
3
2.99998
2.99994
2.99981
2.99955
2.99918
2.99923
3.00154
3.01028
3.03187
3.07175
3.12802
3.18318
3.18782
3.00726
2.42334
1.79701
1.61414
1.63396
1.68252
1.7032
1.68251
1.63392
1.61403
1.79652
2.42232
3.00878
3.19727
3.21197
3.19475
3
3
3
3
3
3
3
3
3
3
3
2.99999
2.99996
2.99988
2.99967
2.99929
2.9989
2.99944
3.00353
3.01606
3.04303
3.08752
3.14431
3.1948
3.19828
3.07099
2.71227
2.23205
1.90893
1.77597
1.74387
1.77593
1.90879
2.23156
2.71113
3.06944
3.19727
3.19728
3.15814
3.12732
3
3
3
3
3
3
3
3
3
3
3
3
2.99998
2.99992
2.99977
2.99943
2.99888
2.99843
2.99947
3.00525
3.02105
3.05222
3.10024
3.15907
3.21362
3.2393
3.20342
3.08364
2.90924
2.75986
2.70277
2.75983
2.90912
3.08334
3.20279
3.23815
3.21197
3.15814
3.10451
3.0718
3
3
3
3
3
3
3
3
3
3
3
3
2.99999
2.99995
2.99983
2.99953
2.99894
2.99809
2.99768
2.99993
3.00932
3.03187
3.07219
3.12965
3.19652
3.2595
3.30355
3.31772
3.30318
3.27752
3.26514
3.27751
3.30313
3.31758
3.30315
3.25856
3.19475
3.12732
3.0718
3.04059
