# vtk DataFile Version 3.0
Brusselator Concentration Output
ASCII
DATASET STRUCTURED_POINTS
DIMENSIONS 40 40 1
ORIGIN 0.0 0.0 0.0
SPACING 0.005 0.005 1.0
POINT_DATA 1600
SCALARS C1 double 1
LOOKUP_TABLE default
1
1
1
1
1.00001
1.00004
1.00008
1.00016
1.00025
1.00032
1.00035
1.00032
1.00025
1.00016
1.00008
1.00004
1.00001
1
1
1
1
1
1
1
1
1
1
1
1
1
1
1
1
1
1
1
1
1
1
1
1
1
1
1.00002
1.00005
1.00012
1.00026
1.00047
1.0007
1.00087
1.00093
1.00087
1.0007
1.00047
1.00026
1.00012
1.00005
1.00002
1
1
1
1
1
1
1
1
1
1
1
1
1
1
1
1
1
1
1
1
1
1
1
1
1.00002
1.00006
1.00017
1.00041
1.00085
1.00143
1.00196
1.00225
1.00232
1.00225
1.00196
1.00143
1.00085
1.00041
1.00017
1.00006
1.00002
1
1
1
1
1
1
1
1
1
1
1
1
1
1
1
1
1
1
1
1
1
1
1.00002
1.00006
1.00019
1.00052
1.00122
1.0023
1.00342
1.00393
1.00372
1.00349
1.00372
1.00393
1.00342
1.0023
1.00122
1.00052
1.00019
1.00006
1.00002
1
1
1
1
1
1
1
1
1
1
1
1
1
1
1
1
1
1
1
1
1.00001
1.00005
1.00017
1.00052
1.00137
1.00291
1.00471
1.00522
1.00301
0.999317
0.997602
0.999317
1.00301
1.00522
1.00471
1.00291
1.00137
1.00052
1.00017
1.00005
1.00001
1
1
1
1
1
1
1
1
1
1
1
1
1
1
1
1
1
1
1
1.00004
1.00012
1.00041
1.00122
1.00291
1.00522
1.00576
1.00008
0.986799
0.972796
0.967311
0.972796
0.986799
1.00008
1.00576
1.00522
1.00291
1.00122
1.00041
1.00012
1.00003
1.00001
1
1
1
1
1
1
1
1
1
1
1
1
1
1
1
1
1
1
1.00008
1.00026
1.00085
1.0023
1.00471
1.00576
0.998312
0.974299
0.937666
0.906902
0.896439
0.906902
0.937666
0.974299
0.998312
1.00576
1.00471
1.0023
1.00085
1.00026
1.00007
1.00002
1
1
1
1
1
1
1
1
1
1
1
1
1
1
1
1
1
1
1.00016
1.00047
1.00143
1.00342
1.00522
1.00008
0.974299
0.920637
0.856576
0.812228
0.799569
0.812228
0.856576
0.920637
0.974299
1.00008
1.00522
1.00342
1.00143
1.00047
1.00013
1.00003
1.00001
1
1
1
1
1
1
1
1
1
1
1
1
1
1
1
1
1
1.00025
1.0007
1.00196
1.00393
1.00301
0.986799
0.937666
0.856576
0.776084
0.729984
0.720474
0.729984
0.776084
0.856576
0.937666
0.986799
1.00301
1.00393
1.00196
1.00069
1.0002
1.00005
1.00001
1
1
1
1
1
1
1
1
1
1
1
1
1
1
1
1
1
1.00032
1.00087
1.00225
1.00372
0.999317
0.972796
0.906902
0.812228
0.729984
0.691717
0.689145
0.691717
0.729984
0.812228
0.906902
0.972796
0.999317
1.00372
1.00224
1.00086
1.00026
1.00006
1.00001
1
1
1
1
1
1
1
1
1
1
1
1
1
1
1
1
1
1.00035
1.00093
1.00232
1.00349
0.997602
0.967311
0.896439
0.799569
0.720474
0.689145
0.69135
0.689145
0.720474
0.799569
0.896439
0.967311
0.997602
1.00349
1.00232
1.00091
1.00028
1.00007
1.00002
1
1
1
1
1
1
1
1
1
1
1
1
1
1
1
1
1
1.00032
1.00087
1.00225
1.00372
0.999317
0.972796
0.906902
0.812228
0.729984
0.691717
0.689145
0.691717
0.729984
0.812228
0.906902
0.972796
0.999317
1.00372
1.00224
1.00086
1.00026
1.00006
1.00001
1
1
1
1
1
1
1
1
1
1
1
1
1
1
1
1
1
1.00025
1.0007
1.00196
1.00393
1.00301
0.986799
0.937666
0.856576
0.776084
0.729984
0.720474
0.729984
0.776084
0.856576
0.937666
0.986799
1.00301
1.00393
1.00196
1.00069
1.0002
1.00005
1.00001
1
1
1
1
1
1
1
1
1
1
1
1
1
1
1
1
1
1.00016
1.00047
1.00143
1.00342
1.00522
1.00008
0.974299
0.920637
0.856576
0.812228
0.799569
0.812228
0.856576
0.920637
0.974299
1.00008
1.00522
1.00342
1.00143
1.00047
1.00013
1.00003
1.00001
1
1
1
1
1
1
1
1
1
1
1
1
1
1
1
1
1
1.00008
1.00026
1.00085
1.0023
1.00471
1.00576
0.998312
0.974299
0.937666
0.906902
0.896439
0.906902
0.937666
0.974299
0.998312
1.00576
1.00471
1.0023
1.00085
1.00026
1.00007
1.00002
1
1
1
1
1
1
1
1
1
1
1
1
1
1
1
1
1
1
1.00004
1.00012
1.00041
1.00122
1.00291
1.00522
1.00576
1.00008
0.986799
0.972796
0.967311
0.972796
0.986799
1.00008
1.00576
1.00522
1.00291
1.00122
1.00041
1.00012
1.00003
1.00001
1
1
1
1
1
1
1
1
1
1
1
1
1
1
1
1
1
1
1.00001
1.00005
1.00017
1.00052
1.00137
1.00291
1.00471
1.00522
1.00301
0.999317
0.997602
0.999317
1.00301
1.00522
1.00471
1.00291
1.00137
1.00052
1.00017
1.00005
1.00001
1
1
1
1
1
1
1
1
1
1
1
1
1
1
1
1
1
1
1
1
1.00002
1.00006
1.00019
1.00052
1.00122
1.0023
1.00342
1.00393
1.00372
1.00349
1.00372
1.00393
1.00342
1.0023
1.00122
1.00052
1.00019
1.00006
1.00002
1
1
1
1
1
1
1
1
0.999999
0.999999
0.999999
0.999999
0.999999
1
1
1
1
1
1
1
1
1
1.00002
1.00006
1.00017
1.00041
1.00085
1.00143
1.00196
1.00224
1.00232
1.00224
1.00196
1.00143
1.00085
1.00041
1.00017
1.00006
1.00002
1
1
1
1
1
1
1
0.999999
0.999998
0.999997
0.999996
0.999996
0.999996
0.999997
0.999998
0.999999
1
1
1
1
1
1
1
1
1.00002
1.00005
1.00012
1.00026
1.00047
1.00069
1.00086
1.00091
1.00086
1.00069
1.00047
1.00026
1.00012
1.00005
1.00002
1
1
1
1
1
1
0.999999
0.999998
0.999996
0.999991
0.999986
0.999981
0.999979
0.999981
0.999986
0.999991
0.999996
0.999998
0.999999
1
1
1
1
1
1
1
1.00001
1.00003
1.00007
1.00013
1.0002
1.00026
1.00028
1.00026
1.0002
1.00013
1.00007
1.00003
1.00001
1
1
1
1
1
1
0.999999
0.999997
0.999991
0.999981
0.999963
0.999941
0.999923
0.999916
0.999923
0.999941
0.999963
0.999981
0.999991
0.999997
0.999999
1
1
1
1
1
1
1
1.00001
1.00002
1.00003
1.00005
1.00006
1.00007
1.00006
1.00005
1.00003
1.00002
1.00001
1
1
1
1
1
1
0.999999
0.999996
0.999987
0.999966
0.999924
0.999861
0.999788
0.999732
0.999711
0.999732
0.999788
0.999861
0.999924
0.999966
0.999987
0.999996
0.999999
1
1
1
1
1
1
1
1
1.00001
1.00001
1.00001
1.00002
1.00001
1.00001
1.00001
1
1
1
1
1
1
1
0.999999
0.999995
0.999984
0.999952
0.999879
0.999745
0.999555
0.99936
0.999231
0.99919
0.999231
0.99936
0.999555
0.999745
0.999879
0.999952
0.999984
0.999995
0.999998
1
1
1
1
1
1
1
1
1
1
1
1
1
1
1
1
1
1
1
1
0.999999
0.999996
0.999984
0.999946
0.999848
0.999635
0.999276
0.998834
0.99849
0.998372
0.998372
0.998372
0.99849
0.998834
0.999276
0.999635
0.999848
0.999946
0.999983
0.999995
1
1
1
1
1
1
1
1
1
1
1
1
1
1
1
1
1
1
1
0.999999
0.999997
0.999987
0.999952
0.999848
0.999589
0.999079
0.998343
0.99772
0.997737
0.998402
0.998823
0.998402
0.997737
0.99772
0.998343
0.999079
0.999589
0.999848
0.999951
0.999984
1
1
1
1
1
1
1
1
1
1
1
1
1
1
1
1
1
1
1
0.999998
0.999991
0.999966
0.999879
0.999635
0.999079
0.99814
0.997235
0.997613
1.00056
1.00501
1.00715
1.00501
1.00056
0.997613
0.997235
0.99814
0.999079
0.999635
0.999877
0.999957
1
1
1
1
1
1
1
1
1
1
1
1
1
1
1
1
1
1
0.999999
0.999996
0.999981
0.999924
0.999745
0.999276
0.998343
0.997235
0.997682
1.00329
1.01654
1.03225
1.03883
1.03225
1.01654
1.00329
0.997682
0.997235
0.998343
0.999275
0.999741
0.999905
1
1
1
1
1
1
1
1
1
1
1
1
1
1
1
1
1
1
0.999998
0.999991
0.999963
0.999861
0.999555
0.998834
0.99772
0.997613
1.00329
1.02293
1.05958
1.09597
1.10808
1.09597
1.05958
1.02293
1.00329
0.997613
0.99772
0.998832
0.999546
0.999824
1
1
1
1
1
1
1
1
1
1
1
1
1
1
1
1
1
0.999999
0.999997
0.999986
0.999941
0.999788
0.99936
0.99849
0.997737
1.00056
1.01654
1.05958
1.12671
1.17412
1.17989
1.17412
1.12671
1.05958
1.01654
1.00056
0.997736
0.998487
0.999346
0.99973
1
1
1
1
1
1
1
1
1
1
1
1
1
1
1
1
1
0.999999
0.999996
0.999981
0.999923
0.999732
0.999231
0.998372
0.998402
1.00501
1.03225
1.09597
1.17412
1.1943
1.17634
1.1943
1.17412
1.09597
1.03225
1.00501
0.998402
0.998368
0.999212
0.999655
1
1
1
1
1
1
1
1
1
1
1
1
1
1
1
1
1
0.999999
0.999996
0.999979
0.999916
0.999711
0.99919
0.998372
0.998823
1.00715
1.03883
1.10808
1.17989
1.17634
1.14591
1.17634
1.17989
1.10808
1.03883
1.00715
0.998822
0.998368
0.99917
0.999628
1
1
1
1
1
1
1
1
1
1
1
1
1
1
1
1
1
0.999999
0.999996
0.999981
0.999923
0.999732
0.999231
0.998372
0.998402
1.00501
1.03225
1.09597
1.17412
1.1943
1.17634
1.1943
1.17412
1.09597
1.03225
1.00501
0.998402
0.998368
0.999212
0.999655
1
1
1
1
1
1
1
1
1
1
1
1
1
1
1
1
1
0.999999
0.999997
0.999986
0.999941
0.999788
0.99936
0.99849
0.997737
1.00056
1.01654
1.05958
1.12671
1.17412
1.17989
1.17412
1.12671
1.05958
1.01654
1.00056
0.997736
0.998487
0.999346
0.99973
1
1
1
1
1
1
1
1
1
1
1
1
1
1
1
1
1
1
0.999998
0.999991
0.999963
0.999861
0.999555
0.998834
0.99772
0.997613
1.00329
1.02293
1.05958
1.09597
1.10808
1.09597
1.05958
1.02293
1.00329
0.997613
0.99772
0.998832
0.999546
0.999824
1
1
1
1
1
1
1
1
1
1
1
1
1
1
1
1
1
1
0.999999
0.999996
0.999981
0.999924
0.999745
0.999276
0.998343
0.997235
0.997682
1.00329
1.01654
1.03225
1.03883
1.03225
1.01654
1.00329
0.997682
0.997235
0.998343
0.999275
0.999741
0.999905
1
1
1
1
1
1
1
1
1
1
1
1
1
1
1
1
1
1
1
0.999998
0.999991
0.999966
0.999879
0.999635
0.999079
0.99814
0.997235
0.997613
1.00056
1.00501
1.00715
1.00501
1.00056
0.997613
0.997235
0.99814
0.999079
0.999635
0.999877
0.999957
1
1
1
1
1
1
1
1
1
1
1
1
1
1
1
1
1
1
1
0.999999
0.999997
0.999987
0.999952
0.999848
0.999589
0.999079
0.998343
0.99772
0.997736
0.998402
0.998822
0.998402
0.997736
0.99772
0.998343
0.999079
0.999589
0.999848
0.999951
0.999984
1
1
1
1
1
1
1
1
1
1
1
1
1
1
1
1
1
1
1
1
0.999999
0.999996
0.999984
0.999946
0.999848
0.999635
0.999275
0.998832
0.998487
0.998368
0.998368
0.998368
0.998487
0.998832
0.999275
0.999635
0.999848
0.999946
0.999983
0.999995
1
1
1
1
1
1
1
1
1
1
1
1
1
1
1
1
1
1
1
1
1
0.999999
0.999995
0.999983
0.999951
0.999877
0.999741
0.999546
0.999346
0.999212
0.99917
0.999212
0.999346
0.999546
0.999741
0.999877
0.999951
0.999983
0.999995
0.999998
1
1
1
1
1
1
1
1
1
1
1
1
1
1
1
1
1
1
1
1
1
1
0.999998
0.999995
0.999984
0.999957
0.999905
0.999824
0.99973
0.999655
0.999628
0.999655
0.99973
0.999824
0.999905
0.999957
0.999984
0.999995
0.999998
1
SCALARS C2 double 1
LOOKUP_TABLE default
3
3
3
3
2.99999
2.99997
2.99992
2.99984
2.99974
2.99965
2.99961
2.99965
2.99974
2.99984
2.99992
2.99997
2.99999
3
3
3
3
3
3
3
3
3
3
3
3
3
3
3
3
3
3
3
3
3
3
3
3
3
3
2.99999
2.99996
2.99988
2.99973
2.99947
2.99914
2.99887
2.99877
2.99887
2.99914
2.99947
2.99973
2.99988
2.99996
2.99999
3
3
3
3
3
3
3
3
3
3
3
3
3
3
3
3
3
3
3
3
3
3
3
3
2.99999
2.99995
2.99984
2.99956
2.999
2.99813
2.99714
2.99642
2.99618
2.99642
2.99714
2.99813
2.999
2.99956
2.99984
2.99995
2.99999
3
3
3
3
3
3
3
3
3
3
3
3
3
3
3
3
3
3
3
3
3
3
2.99999
2.99995
2.99982
2.99944
2.99854
2.99686
2.99451
2.99232
2.99116
2.99091
2.99116
2.99232
2.99451
2.99686
2.99854
2.99944
2.99982
2.99995
2.99999
3
3
3
3
3
3
3
3
3
3
3
3
3
3
3
3
3
3
3
3
2.99999
2.99996
2.99984
2.99944
2.99835
2.99594
2.99194
2.98755
2.98543
2.98648
2.98759
2.98648
2.98543
2.98755
2.99194
2.99594
2.99835
2.99944
2.99984
2.99996
2.99999
3
3
3
3
3
3
3
3
3
3
3
3
3
3
3
3
3
3
3
2.99997
2.99988
2.99956
2.99854
2.99594
2.99085
2.98428
2.98152
2.98875
3.00268
3.00966
3.00268
2.98875
2.98152
2.98428
2.99085
2.99594
2.99854
2.99956
2.99989
2.99997
2.99999
3
3
3
3
3
3
3
3
3
3
3
3
3
3
3
3
3
3
2.99992
2.99973
2.999
2.99686
2.99194
2.98428
2.98028
2.99446
3.03485
3.08277
3.10331
3.08277
3.03485
2.99446
2.98028
2.98428
2.99194
2.99686
2.999
2.99973
2.99994
2.99999
3
3
3
3
3
3
3
3
3
3
3
3
3
3
3
3
3
3
2.99984
2.99947
2.99813
2.99451
2.98755
2.98152
2.99446
3.05236
3.15585
3.25909
3.30034
3.25909
3.15585
3.05236
2.99446
2.98152
2.98755
2.99451
2.99813
2.99947
2.99987
2.99997
2.99999
3
3
3
3
3
3
3
3
3
3
3
3
3
3
3
3
3
2.99974
2.99914
2.99714
2.99232
2.98543
2.98875
3.03485
3.15585
3.3364
3.5034
3.56964
3.5034
3.3364
3.15585
3.03485
2.98875
2.98543
2.99232
2.99714
2.99915
2.99979
2.99995
2.99999
3
3
3
3
3
3
3
3
3
3
3
3
3
3
3
3
3
2.99965
2.99887
2.99642
2.99116
2.98648
3.00268
3.08277
3.25909
3.5034
3.72524
3.81602
3.72524
3.5034
3.25909
3.08277
3.00268
2.98648
2.99116
2.99642
2.99888
2.99971
2.99994
2.99999
3
3
3
3
3
3
3
3
3
3
3
3
3
3
3
3
3
2.99961
2.99877
2.99618
2.99091
2.98759
3.00966
3.10331
3.30034
3.56964
3.81602
3.91804
3.81602
3.56964
3.30034
3.10331
3.00966
2.98759
2.99091
2.99618
2.99879
2.99968
2.99993
2.99999
3
3
3
3
3
3
3
3
3
3
3
3
3
3
3
3
3
2.99965
2.99887
2.99642
2.99116
2.98648
3.00268
3.08277
3.25909
3.5034
3.72524
3.81602
3.72524
3.5034
3.25909
3.08277
3.00268
2.98648
2.99116
2.99642
2.99888
2.99971
2.99994
2.99999
3
3
3
3
3
3
3
3
3
3
3
3
3
3
3
3
3
2.99974
2.99914
2.99714
2.99232
2.98543
2.98875
3.03485
3.15585
3.3364
3.5034
3.56964
3.5034
3.3364
3.15585
3.03485
2.98875
2.98543
2.99232
2.99714
2.99915
2.99979
2.99995
2.99999
3
3
3
3
3
3
3
3
3
3
3
3
3
3
3
3
3
2.99984
2.99947
2.99813
2.99451
2.98755
2.98152
2.99446
3.05236
3.15585
3.25909
3.30034
3.25909
3.15585
3.05236
2.99446
2.98152
2.98755
2.99451
2.99813
2.99947
2.99987
2.99997
2.99999
3
3
3
3
3
3
3
3
3
3
3
3
3
3
3
3
3
2.99992
2.99973
2.999
2.99686
2.99194
2.98428
2.98028
2.99446
3.03485
3.08277
3.10331
3.08277
3.03485
2.99446
2.98028
2.98428
2.99194
2.99686
2.999
2.99973
2.99994
2.99999
3
3
3
3
3
3
3
3
3
3
3
3
3
3
3
3
3
3
2.99997
2.99988
2.99956
2.99854
2.99594
2.99085
2.98428
2.98152
2.98875
3.00268
3.00966
3.00268
2.98875
2.98152
2.98428
2.99085
2.99594
2.99854
2.99956
2.99989
2.99997
2.99999
3
3
3
3
3
3
3
3
3
3
3
3
3
3
3
3
3
3
2.99999
2.99996
2.99984
2.99944
2.99835
2.99594
2.99194
2.98755
2.98543
2.98648
2.98759
2.98648
2.98543
2.98755
2.99194
2.99594
2.99835
2.99944
2.99984
2.99996
2.99999
3
3
3
3
3
3
3
3
3
3
3
3
3
3
3
3
3
3
3
3
2.99999
2.99995
2.99982
2.99944
2.99854
2.99686
2.99451
2.99232
2.99116
2.99091
2.99116
2.99232
2.99451
2.99686
2.99854
2.99944
2.99982
2.99995
2.99999
3
3
3
3
3
3
3
3
3
3
3
3
3
3
3
3
3
3
3
3
3
3
2.99999
2.99995
2.99984
2.99956
2.999
2.99813
2.99714
2.99642
2.99618
2.99642
2.99714
2.99813
2.999
2.99956
2.99984
2.99995
2.99999
3
3
3
3
3
3
3
3
3
3
3
3
3
3
3
3
3
3
3
3
3
3
3
3
2.99999
2.99996
2.99989
2.99973
2.99947
2.99915
2.99888
2.99879
2.99888
2.99915
2.99947
2.99973
2.99989
2.99996
2.99999
3
3
3
3
3
3
3
3
3
3.00001
3.00001
3.00002
3.00002
3.00002
3.00001
3.00001
3
3
3
3
3
3
3
3
3
3
2.99999
2.99997
2.99994
2.99987
2.99979
2.99971
2.99968
2.99971
2.99979
2.99987
2.99994
2.99997
2.99999
3
3
3
3
3
3
3
3
3.00001
3.00002
3.00004
3.00006
3.00009
3.00009
3.00009
3.00006
3.00004
3.00002
3.00001
3
3
3
3
3
3
3
3
3
2.99999
2.99999
2.99997
2.99995
2.99994
2.99993
2.99994
2.99995
2.99997
2.99999
2.99999
3
3
3
3
3
3
3
3
3.00001
3.00003
3.00008
3.00016
3.00025
3.00034
3.00037
3.00034
3.00025
3.00016
3.00008
3.00003
3.00001
3
3
3
3
3
3
3
3
3
3
2.99999
2.99999
2.99999
2.99999
2.99999
2.99999
2.99999
3
3
3
3
3
3
3
3
3
3.00001
3.00005
3.00013
3.00029
3.00056
3.00088
3.00114
3.00123
3.00114
3.00088
3.00056
3.00029
3.00013
3.00005
3.00001
3
3
3
3
3
3
3
3
3
3
3
3
3
3
3
3
3
3
3
3
3
3
3
3
3.00001
3.00005
3.00016
3.00043
3.00095
3.00173
3.00256
3.00314
3.00331
3.00314
3.00256
3.00173
3.00095
3.00043
3.00016
3.00005
3.00002
3
3
3
3
3
3
3
3
3
3
3
3
3
3
3
3
3
3
3
3
3
3
3.00001
3.00005
3.00016
3.00048
3.00122
3.00256
3.00434
3.00583
3.00636
3.00632
3.00636
3.00583
3.00434
3.00256
3.00122
3.00048
3.00016
3.00005
3.00001
3
3
3
3
3
3
3
3
3
3
3
3
3
3
3
3
3
3
3
3
3.00001
3.00003
3.00013
3.00043
3.00122
3.00292
3.00562
3.00826
3.00864
3.00606
3.00415
3.00606
3.00864
3.00826
3.00562
3.00292
3.00122
3.00043
3.00013
3.00004
3
3
3
3
3
3
3
3
3
3
3
3
3
3
3
3
3
3
3
3
3.00002
3.00008
3.00029
3.00095
3.00256
3.00562
3.00924
3.00938
3.00008
2.98291
2.97364
2.98291
3.00008
3.00938
3.00924
3.00562
3.00256
3.00095
3.0003
3.0001
3
3
3
3
3
3
3
3
3
3
3
3
3
3
3
3
3
3
3
3.00001
3.00004
3.00016
3.00056
3.00173
3.00434
3.00826
3.00938
2.99589
2.95418
2.89629
2.8696
2.89629
2.95418
2.99589
3.00938
3.00826
3.00434
3.00173
3.00057
3.00019
3
3
3
3
3
3
3
3
3
3
3
3
3
3
3
3
3
3
3
3.00001
3.00006
3.00025
3.00088
3.00256
3.00583
3.00864
3.00008
2.95418
2.84862
2.72892
2.68593
2.72892
2.84862
2.95418
3.00008
3.00864
3.00583
3.00257
3.0009
3.00032
3
3
3
3
3
3
3
3
3
3
3
3
3
3
3
3
3
3
3
3.00002
3.00009
3.00034
3.00114
3.00314
3.00636
3.00606
2.98291
2.89629
2.72892
2.58306
2.55094
2.58306
2.72892
2.89629
2.98291
3.00606
3.00636
3.00314
3.00116
3.00042
3
3
3
3
3
3
3
3
3
3
3
3
3
3
3
3
3
3
3
3.00002
3.00009
3.00037
3.00123
3.00331
3.00632
3.00415
2.97364
2.8696
2.68593
2.55094
2.53393
2.55094
2.68593
2.8696
2.97364
3.00415
3.00632
3.00331
3.00125
3.00047
3
3
3
3
3
3
3
3
3
3
3
3
3
3
3
3
3
3
3
3.00002
3.00009
3.00034
3.00114
3.00314
3.00636
3.00606
2.98291
2.89629
2.72892
2.58306
2.55094
2.58306
2.72892
2.89629
2.98291
3.00606
3.00636
3.00314
3.00116
3.00042
3
3
3
3
3
3
3
3
3
3
3
3
3
3
3
3
3
3
3
3.00001
3.00006
3.00025
3.00088
3.00256
3.00583
3.00864
3.00008
2.95418
2.84862
2.72892
2.68593
2.72892
2.84862
2.95418
3.00008
3.00864
3.00583
3.00257
3.0009
3.00032
3
3
3
3
3
3
3
3
3
3
3
3
3
3
3
3
3
3
3
3.00001
3.00004
3.00016
3.00056
3.00173
3.00434
3.00826
3.00938
2.99589
2.95418
2.89629
2.8696
2.89629
2.95418
2.99589
3.00938
3.00826
3.00434
3.00173
3.00057
3.00019
3
3
3
3
3
3
3
3
3
3
3
3
3
3
3
3
3
3
3
3
3.00002
3.00008
3.00029
3.00095
3.00256
3.00562
3.00924
3.00938
3.00008
2.98291
2.97364
2.98291
3.00008
3.00938
3.00924
3.00562
3.00256
3.00095
3.0003
3.0001
3
3
3
3
3
3
3
3
3
3
3
3
3
3
3
3
3
3
3
3
3.00001
3.00003
3.00013
3.00043
3.00122
3.00292
3.00562
3.00826
3.00864
3.00606
3.00415
3.00606
3.00864
3.00826
3.00562
3.00292
3.00122
3.00043
3.00013
3.00004
3
3
3
3
3
3
3
3
3
3
3
3
3
3
3
3
3
3
3
3
3
3.00001
3.00005
3.00016
3.00048
3.00122
3.00256
3.00434
3.00583
3.00636
3.00632
3.00636
3.00583
3.00434
3.00256
3.00122
3.00048
3.00016
3.00005
3.00001
3
3
3
3
3
3
3
3
3
3
3
3
3
3
3
3
3
3
3
3
3
3
3.00001
3.00005
3.00016
3.00043
3.00095
3.00173
3.00257
3.00314
3.00331
3.00314
3.00257
3.00173
3.00095
3.00043
3.00016
3.00005
3.00002
3
3
3
3
3
3
3
3
3
3
3
3
3
3
3
3
3
3
3
3
3
3
3
3
3.00002
3.00005
3.00013
3.0003
3.00057
3.0009
3.00116
3.00125
3.00116
3.0009
3.00057
3.0003
3.00013
3.00005
3.00002
3
3
3
3
3
3
3
3
3
3
3
3
3
3
3
3
3
3
3
3
3
3
3
3
3
3
3.00001
3.00004
3.0001
3.00019
3.00032
3.00042
3.00047
3.00042
3.00032
3.00019
3.0001
3.00004
3.00001
3
3
3
