# vtk DataFile Version 3.0
Brusselator Concentration Output
ASCII
DATASET STRUCTURED_POINTS
DIMENSIONS 40 40 1
ORIGIN 0.0 0.0 0.0
SPACING 0.005 0.005 1.0
POINT_DATA 1600
SCALARS C1 double 1
LOOKUP_TABLE default
1.20844
3.34583
3.42068
2.67065
2.13655
1.74872
1.46783
1.27016
1.14002
1.06647
1.04274
1.06657
1.14038
1.27119
1.47025
1.7532
2.14151
2.66594
3.36284
3.73223
1.24919
0.644623
0.516177
0.462011
0.431013
0.416421
0.422768
0.466618
0.581497
0.801457
1.07921
1.22358
1.16189
1.06626
1.01707
1.00057
0.997352
0.997951
0.998959
0.999509
3.34583
3.37729
2.61859
2.07871
1.68262
1.39051
1.1777
1.02817
0.930206
0.875106
0.857384
0.875189
0.930495
1.02898
1.17956
1.39372
1.68531
2.07156
2.5746
3.20756
3.07198
1.00777
0.586844
0.491045
0.449135
0.429048
0.430867
0.468087
0.56953
0.765555
1.02092
1.1802
1.15554
1.07284
1.02228
1.00302
0.998274
0.998261
0.999081
0.999592
3.42068
2.61859
1.9917
1.55623
1.24681
1.02619
0.871667
0.767279
0.701124
0.664778
0.653229
0.66484
0.701341
0.767882
0.873017
1.02834
1.24771
1.547
1.9458
2.47144
3.16333
2.70813
0.875108
0.56227
0.485044
0.452065
0.444372
0.468858
0.54682
0.704336
0.926797
1.10755
1.14083
1.08307
1.03156
1.00757
1.00004
0.998897
0.999381
0.999829
2.67065
2.07871
1.55623
1.18957
0.939327
0.77093
0.660125
0.589429
0.546637
0.523863
0.516744
0.523907
0.546792
0.589856
0.661065
0.772295
0.939036
1.17907
1.51159
1.95961
2.55372
3.3736
1.91362
0.729089
0.537429
0.479918
0.458455
0.467165
0.519432
0.638046
0.82775
1.02443
1.116
1.09204
1.04256
1.0133
1.00227
0.999725
0.999835
1.00024
2.13655
1.68262
1.24681
0.939327
0.739427
0.613393
0.535612
0.488692
0.46155
0.447566
0.443271
0.447597
0.461658
0.488987
0.536239
0.614183
0.738401
0.928556
1.20586
1.59188
2.11357
2.79922
3.52103
1.14942
0.614729
0.509299
0.471171
0.464968
0.495962
0.583528
0.743974
0.944541
1.08123
1.09432
1.05151
1.01815
1.0038
0.999997
0.999928
1.00043
1.74872
1.39051
1.02619
0.77093
0.613393
0.520137
0.465917
0.434919
0.417816
0.40933
0.40678
0.409353
0.417892
0.435122
0.466325
0.520534
0.611966
0.760618
0.990231
1.32434
1.78694
2.41033
3.28459
2.0364
0.744434
0.542023
0.483732
0.46485
0.480216
0.545083
0.680325
0.874233
1.03877
1.08554
1.05344
1.01848
1.00193
0.997569
0.997825
0.998698
1.46783
1.1777
0.871667
0.660125
0.535612
0.465917
0.427592
0.406892
0.396123
0.391065
0.389598
0.391082
0.39618
0.407036
0.427858
0.466062
0.534002
0.650606
0.840862
1.13136
1.54656
2.11587
2.87969
3.23152
0.965976
0.581633
0.497019
0.467167
0.471193
0.519776
0.634402
0.816196
0.993422
1.06477
1.04395
1.00969
0.992413
0.988343
0.989453
0.99097
1.27016
1.02817
0.767279
0.589429
0.488692
0.434919
0.406892
0.392711
0.385915
0.383002
0.382214
0.383016
0.385959
0.392818
0.40707
0.434914
0.487022
0.580734
0.740949
0.996626
1.37445
1.90135
2.60927
3.5683
1.27622
0.628868
0.510468
0.470915
0.466839
0.504382
0.604256
0.774657
0.955049
1.03865
1.02394
0.989775
0.971758
0.967626
0.969098
0.970931
1.14002
0.930206
0.701124
0.546637
0.46155
0.417816
0.396123
0.385915
0.381541
0.379943
0.379574
0.379956
0.381578
0.386
0.396249
0.417724
0.459873
0.538612
0.678133
0.908662
1.25921
1.75609
2.43137
3.43309
1.61748
0.67784
0.52265
0.475334
0.466568
0.499054
0.593708
0.762417
0.945736
1.02859
1.00717
0.966068
0.942852
0.934876
0.933643
0.934039
1.06647
0.875106
0.664778
0.523863
0.447566
0.40933
0.391065
0.383002
0.379943
0.379066
0.378926
0.379078
0.379978
0.383076
0.391163
0.409194
0.445899
0.516262
0.643809
0.85926
1.19319
1.6722
2.32848
3.29763
1.89282
0.716909
0.532585
0.481533
0.473676
0.512089
0.622903
0.820267
1.02562
1.09583
1.03914
0.967763
0.923618
0.900809
0.889519
0.884729
1.04274
0.857384
0.653229
0.516744
0.443271
0.40678
0.389598
0.382214
0.379574
0.378926
0.37886
0.378938
0.379607
0.382284
0.389687
0.406631
0.441608
0.509286
0.632936
0.843404
1.17185
1.64514
2.29568
3.25173
2.00128
0.735607
0.542443
0.495897
0.502051
0.574605
0.756016
1.05348
1.33903
1.41393
1.27139
1.09657
0.974861
0.901333
0.860413
0.842203
1.06657
0.875189
0.66484
0.523907
0.447597
0.409353
0.391082
0.383016
0.379956
0.379078
0.378938
0.379089
0.37999
0.38309
0.391179
0.409215
0.445927
0.516305
0.643896
0.859484
1.1938
1.67379
2.33242
3.30642
1.91753
0.737259
0.563069
0.538063
0.588367
0.744417
1.02798
1.37266
1.70463
1.92862
1.90297
1.63638
1.31785
1.07024
0.922128
0.858037
1.14038
0.930495
0.701341
0.546792
0.461658
0.417892
0.39618
0.385959
0.381578
0.379978
0.379607
0.37999
0.381616
0.386044
0.396304
0.417797
0.459979
0.538788
0.678482
0.909464
1.26113
1.76061
2.44199
3.45116
1.71479
0.747913
0.619343
0.635686
0.72775
0.851392
0.983079
1.17777
1.41612
1.6511
1.85943
2.02982
2.0664
1.80048
1.40018
1.1662
1.27119
1.02898
0.767882
0.589856
0.488987
0.435122
0.407036
0.392818
0.386
0.383076
0.382284
0.38309
0.386044
0.392923
0.40721
0.435115
0.487338
0.581289
0.742041
0.998932
1.37937
1.91157
2.63192
3.61242
1.5215
0.80187
0.709273
0.69293
0.659459
0.663792
0.738749
0.864081
1.01011
1.15655
1.30978
1.49798
1.7549
2.09682
2.40605
2.43538
1.47025
1.17956
0.873017
0.661065
0.536239
0.466325
0.427858
0.40707
0.396249
0.391163
0.389687
0.391179
0.396304
0.40721
0.428123
0.466493
0.534755
0.65202
0.843652
1.1369
1.55713
2.13418
2.90848
3.55373
1.39378
0.842122
0.672382
0.553698
0.507191
0.517136
0.565211
0.634097
0.709415
0.788148
0.883025
1.0173
1.21787
1.50504
1.86265
2.16489
1.7532
1.39372
1.02834
0.772295
0.614183
0.520534
0.466062
0.434914
0.417724
0.409194
0.406631
0.409215
0.417797
0.435115
0.466493
0.521055
0.61322
0.763378
0.995901
1.33491
1.80373
2.42831
3.23023
3.0021
1.17503
0.695821
0.513318
0.442668
0.426128
0.437605
0.464122
0.496556
0.530036
0.567473
0.619206
0.700863
0.832227
1.02884
1.27093
1.46111
2.14151
1.68531
1.24771
0.939036
0.738401
0.611966
0.534002
0.487022
0.459873
0.445899
0.441608
0.445927
0.459979
0.487338
0.534755
0.61322
0.738748
0.931663
1.2136
1.60441
2.1209
2.76411
3.42492
1.9657
0.79546
0.510293
0.421527
0.394061
0.391064
0.399693
0.413096
0.426821
0.440119
0.456339
0.481684
0.525167
0.599301
0.714708
0.858418
0.970325
2.66594
2.07156
1.547
1.17907
0.928556
0.760618
0.650606
0.580734
0.538612
0.516262
0.509286
0.516305
0.538788
0.581289
0.65202
0.763378
0.931663
1.17515
1.51077
1.94984
2.48745
3.06083
2.95982
1.01601
0.533154
0.419994
0.38627
0.377733
0.379784
0.386215
0.392989
0.398256
0.40274
0.408788
0.419695
0.440214
0.477067
0.53574
0.608867
0.665335
3.36284
2.5746
1.9458
1.51159
1.20586
0.990231
0.840862
0.740949
0.678133
0.643809
0.632936
0.643896
0.678482
0.742041
0.843652
0.995901
1.2136
1.51077
1.89502
2.35661
2.84641
3.22076
1.349
0.577291
0.427454
0.388242
0.377507
0.377663
0.382388
0.387706
0.391304
0.392875
0.393389
0.39427
0.397286
0.404918
0.420395
0.445785
0.476969
0.500526
3.73223
3.20756
2.47144
1.95961
1.59188
1.32434
1.13136
0.996626
0.908662
0.85926
0.843404
0.859484
0.909464
0.998932
1.1369
1.33491
1.60441
1.94984
2.35661
2.77886
3.17101
1.669
0.631471
0.438243
0.393547
0.382031
0.382357
0.387818
0.394291
0.399069
0.40124
0.40112
0.399465
0.397175
0.395353
0.3954
0.398777
0.405949
0.414944
0.421626
1.24919
3.07198
3.16333
2.55372
2.11357
1.78694
1.54656
1.37445
1.25921
1.19319
1.17185
1.1938
1.26113
1.37937
1.55713
1.80373
2.1209
2.48745
2.84641
3.17101
1.80053
0.670822
0.447664
0.398814
0.387378
0.388911
0.396401
0.405564
0.41331
0.41819
0.419958
0.4189
0.415544
0.410629
0.405082
0.399881
0.395711
0.3925
0.389823
0.388178
0.644623
1.00777
2.70813
3.3736
2.79922
2.41033
2.11587
1.90135
1.75609
1.6722
1.64514
1.67379
1.76061
1.91157
2.13418
2.42831
2.76411
3.06083
3.22076
1.669
0.670822
0.451435
0.401988
0.39139
0.394646
0.404807
0.417621
0.429748
0.439246
0.445211
0.447262
0.445407
0.440105
0.432239
0.422904
0.41306
0.40315
0.393073
0.383531
0.377407
0.516177
0.586844
0.875108
1.91362
3.52103
3.28459
2.87969
2.60927
2.43137
2.32848
2.29568
2.33242
2.44199
2.63192
2.90848
3.23023
3.42492
2.95982
1.349
0.631471
0.447664
0.401988
0.392862
0.397929
0.41082
0.427617
0.445055
0.460951
0.473787
0.482216
0.485162
0.482254
0.474101
0.462108
0.44793
0.432852
0.417391
0.401622
0.387088
0.378009
0.462011
0.491045
0.56227
0.729089
1.14942
2.0364
3.23152
3.5683
3.43309
3.29763
3.25173
3.30642
3.45116
3.61242
3.55373
3.0021
1.9657
1.01601
0.577291
0.438243
0.398814
0.39139
0.397929
0.412997
0.433291
0.45603
0.479335
0.501594
0.520653
0.533775
0.538483
0.533791
0.520816
0.502207
0.480857
0.458801
0.436825
0.415213
0.396106
0.384533
0.431013
0.449135
0.485044
0.537429
0.614729
0.744434
0.965976
1.27622
1.61748
1.89282
2.00128
1.91753
1.71479
1.5215
1.39378
1.17503
0.79546
0.533154
0.427454
0.393547
0.387378
0.394646
0.41082
0.433291
0.46004
0.49006
0.522633
0.556042
0.586612
0.608773
0.616969
0.608824
0.586809
0.556553
0.523593
0.491306
0.460781
0.432311
0.408308
0.394224
0.416421
0.429048
0.452065
0.479918
0.509299
0.542023
0.581633
0.628868
0.67784
0.716909
0.735607
0.737259
0.747913
0.80187
0.842122
0.695821
0.510293
0.419994
0.388242
0.382031
0.388911
0.404807
0.427617
0.45603
0.49006
0.530591
0.578143
0.631151
0.683709
0.724416
0.740067
0.724543
0.684061
0.631828
0.579037
0.531077
0.488825
0.451867
0.422278
0.405477
0.422768
0.430867
0.444372
0.458455
0.471171
0.483732
0.497019
0.510468
0.52265
0.532585
0.542443
0.563069
0.619343
0.709273
0.672382
0.513318
0.421527
0.38627
0.377507
0.382357
0.396401
0.417621
0.445055
0.479335
0.522633
0.578143
0.649175
0.736491
0.832215
0.912981
0.945626
0.913261
0.832887
0.737577
0.650325
0.578331
0.520112
0.472741
0.436826
0.417094
0.466618
0.468087
0.468858
0.467165
0.464968
0.46485
0.467167
0.470915
0.475334
0.481533
0.495897
0.538063
0.635686
0.69293
0.553698
0.442668
0.394061
0.377733
0.377663
0.387818
0.405564
0.429748
0.460951
0.501594
0.556042
0.631151
0.736491
0.880998
1.05873
1.22356
1.29364
1.22415
1.06001
0.8828
0.738146
0.631282
0.552641
0.49329
0.450649
0.427951
0.581497
0.56953
0.54682
0.519432
0.495962
0.480216
0.471193
0.466839
0.466568
0.473676
0.502051
0.588367
0.72775
0.659459
0.507191
0.426128
0.391064
0.379784
0.382388
0.394291
0.41331
0.439246
0.473787
0.520653
0.586612
0.683709
0.832215
1.05873
1.36798
1.67385
1.80576
1.67494
1.3702
1.06157
0.83455
0.683891
0.582561
0.511167
0.46224
0.436887
0.801457
0.765555
0.704336
0.638046
0.583528
0.545083
0.519776
0.504382
0.499054
0.512089
0.574605
0.744417
0.851392
0.663792
0.517136
0.437605
0.399693
0.386215
0.387706
0.399069
0.41819
0.445211
0.482216
0.533775
0.608773
0.724416
0.912981
1.22356
1.67385
2.11747
2.29952
2.119
1.67705
1.22746
0.915962
0.724675
0.60429
0.523561
0.470034
0.442804
1.07921
1.02092
0.926797
0.82775
0.743974
0.680325
0.634402
0.604256
0.593708
0.622903
0.756016
1.02798
0.983079
0.738749
0.565211
0.464122
0.413096
0.392989
0.391304
0.40124
0.419958
0.447262
0.485162
0.538483
0.616969
0.740067
0.945626
1.29364
1.80576
2.29952
2.49426
2.30118
1.80936
1.29801
0.948889
0.740371
0.612342
0.528035
0.472799
0.444885
1.22358
1.1802
1.10755
1.02443
0.944541
0.874233
0.816196
0.774657
0.762417
0.820267
1.05348
1.37266
1.17777
0.864081
0.634097
0.496556
0.426821
0.398256
0.392875
0.40112
0.4189
0.445407
0.482254
0.533791
0.608824
0.724543
0.913261
1.22415
1.67494
2.119
2.30118
2.12054
1.67815
1.22807
0.916268
0.724837
0.604384
0.52362
0.470073
0.442834
1.16189
1.15554
1.14083
1.116
1.08123
1.03877
0.993422
0.955049
0.945736
1.02562
1.33903
1.70463
1.41612
1.01011
0.709415
0.530036
0.440119
0.40274
0.393389
0.399465
0.415544
0.440105
0.474101
0.520816
0.586809
0.684061
0.832887
1.06001
1.3702
1.67705
1.80936
1.67815
1.37246
1.06289
0.83528
0.684314
0.582824
0.511338
0.462356
0.436978
1.06626
1.07284
1.08307
1.09204
1.09432
1.08554
1.06477
1.03865
1.02859
1.09583
1.41393
1.92862
1.6511
1.15655
0.788148
0.567473
0.456339
0.408788
0.39427
0.397175
0.410629
0.432239
0.462108
0.502207
0.556553
0.631828
0.737577
0.8828
1.06157
1.22746
1.29801
1.22807
1.06289
0.884672
0.739326
0.632046
0.553155
0.493645
0.450905
0.42816
1.01707
1.02228
1.03156
1.04256
1.05151
1.05344
1.04395
1.02394
1.00717
1.03914
1.27139
1.90297
1.85943
1.30978
0.883025
0.619206
0.481684
0.419695
0.397286
0.395353
0.405082
0.422904
0.44793
0.480857
0.523593
0.579037
0.650325
0.738146
0.83455
0.915962
0.948889
0.916268
0.83528
0.739326
0.651575
0.579239
0.520783
0.473246
0.437226
0.417448
1.00057
1.00302
1.00757
1.0133
1.01815
1.01848
1.00969
0.989775
0.966068
0.967763
1.09657
1.63638
2.02982
1.49798
1.0173
0.700863
0.525167
0.440214
0.404918
0.3954
0.399881
0.41306
0.432852
0.458801
0.491306
0.531077
0.578331
0.631282
0.683891
0.724675
0.740371
0.724837
0.684314
0.632046
0.579239
0.531273
0.489021
0.452079
0.422533
0.405773
0.997352
0.998274
1.00004
1.00227
1.0038
1.00193
0.992413
0.971758
0.942852
0.923618
0.974861
1.31785
2.0664
1.7549
1.21787
0.832227
0.599301
0.477067
0.420395
0.398777
0.395711
0.40315
0.417391
0.436825
0.460781
0.488825
0.520112
0.552641
0.582561
0.60429
0.612342
0.604384
0.582824
0.553155
0.520783
0.489021
0.458967
0.430956
0.407386
0.393575
0.997951
0.998261
0.998897
0.999725
0.999997
0.997569
0.988343
0.967626
0.934876
0.900809
0.901333
1.07024
1.80048
2.09682
1.50504
1.02884
0.714708
0.53574
0.445785
0.405949
0.3925
0.393073
0.401622
0.415213
0.432311
0.451867
0.472741
0.49329
0.511167
0.523561
0.528035
0.52362
0.511338
0.493645
0.473246
0.452079
0.430956
0.41022
0.391917
0.380817
0.998959
0.999081
0.999381
0.999835
0.999928
0.997825
0.989453
0.969098
0.933643
0.889519
0.860413
0.922128
1.40018
2.40605
1.86265
1.27093
0.858418
0.608867
0.476969
0.414944
0.389823
0.383531
0.387088
0.396106
0.408308
0.422278
0.436826
0.450649
0.46224
0.470034
0.472799
0.470073
0.462356
0.450905
0.437226
0.422533
0.407386
0.391917
0.37757
0.368508
0.999509
0.999592
0.999829
1.00024
1.00043
0.998698
0.99097
0.970931
0.934039
0.884729
0.842203
0.858037
1.1662
2.43538
2.16489
1.46111
0.970325
0.665335
0.500526
0.421626
0.388178
0.377407
0.378009
0.384533
0.394224
0.405477
0.417094
0.427951
0.436887
0.442804
0.444885
0.442834
0.436978
0.42816
0.417448
0.405773
0.393575
0.380817
0.368508
0.3605
SCALARS C2 double 1
LOOKUP_TABLE default
4.36114
2.08528
0.854302
1.0155
1.20536
1.39021
1.55724
1.69632
1.79985
1.86331
1.88464
1.86325
1.79961
1.69564
1.55573
1.3877
1.20288
1.01579
0.857787
1.52572
4.32462
4.62497
4.54017
4.37755
4.17292
3.93656
3.67123
3.37408
3.04245
2.70739
2.49674
2.56598
2.79489
2.94486
2.99819
3.00872
3.00686
3.00353
3.0014
3.0005
2.08528
0.926258
1.05352
1.25471
1.45909
1.65081
1.81961
1.95729
2.05828
2.11964
2.14018
2.11958
2.05805
1.95662
1.81809
1.64829
1.45684
1.25666
1.06491
0.932593
2.24272
4.47039
4.5934
4.46259
4.26883
4.03649
3.77214
3.47564
3.14662
2.81265
2.58173
2.59335
2.77969
2.92854
2.99022
3.00583
3.00604
3.00335
3.00133
3.00043
0.854302
1.05352
1.30317
1.55114
1.78363
1.99041
2.16458
2.30197
2.40058
2.45978
2.4795
2.45973
2.40037
2.30132
2.16303
1.98782
1.78158
1.55497
1.3226
1.10377
0.951677
2.7032
4.53623
4.56833
4.41047
4.19348
3.93668
3.64524
3.32183
2.98718
2.7202
2.64263
2.75747
2.89977
2.97523
3.00017
3.00429
3.00281
3.00103
3.00012
1.0155
1.25471
1.55114
1.83408
2.0855
2.29838
2.47108
2.60418
2.69859
2.75501
2.77377
2.75497
2.69843
2.60361
2.46962
2.29582
2.08362
1.83945
1.57664
1.31383
1.07588
0.969422
3.62871
4.58822
4.52684
4.34104
4.10132
3.82168
3.50764
3.17281
2.87029
2.70604
2.73979
2.86566
2.95551
2.9923
3.00163
3.00175
3.00023
2.99927
1.20536
1.45909
1.78363
2.0855
2.34149
2.55056
2.71693
2.84437
2.93485
2.98906
3.00713
2.98904
2.93472
2.84389
2.71562
2.54814
2.33972
2.09167
1.81284
1.52138
1.24072
1.00343
1.40723
4.34686
4.58763
4.44973
4.23148
3.96597
3.66265
3.33107
3.00631
2.77746
2.73634
2.83568
2.93557
2.9842
2.99898
3.00057
2.99903
2.99784
1.39021
1.65081
1.99041
2.29838
2.55056
2.75272
2.91314
3.03663
3.12489
3.17807
3.19585
3.17806
3.1248
3.03622
2.91196
2.75045
2.54882
2.30471
2.02123
1.71261
1.40327
1.12176
0.940521
3.45253
4.58019
4.52303
4.32775
4.07526
3.78169
3.45605
3.12258
2.85371
2.75308
2.8206
2.92332
2.98086
2.99966
3.00157
2.99912
2.99718
1.55724
1.81961
2.16458
2.47108
2.71693
2.91314
3.06974
3.19135
3.27893
3.33195
3.34973
3.33195
3.27886
3.19101
3.06867
2.91097
2.71516
2.4772
2.19561
1.87906
1.55028
1.23929
0.980684
1.9129
4.47105
4.56799
4.39841
4.1577
3.87291
3.55495
3.22232
2.93351
2.79249
2.83083
2.93013
2.99158
3.01117
3.01109
3.00603
3.00242
1.69632
1.95729
2.30197
2.60418
2.84437
3.03663
3.19135
3.31247
3.4002
3.45352
3.47142
3.45352
3.40014
3.31216
3.19034
3.03452
2.84252
2.60993
2.33256
2.01397
1.67334
1.34178
1.05296
1.1258
4.2254
4.58902
4.44914
4.21964
3.9437
3.63535
3.30964
3.01462
2.85181
2.87172
2.9667
3.02787
3.04489
3.04046
3.03119
3.02506
1.79985
2.05828
2.40058
2.69859
2.93485
3.12489
3.27893
3.4002
3.48839
3.54211
3.56017
3.54212
3.48835
3.39991
3.27795
3.12281
2.93291
2.70399
2.43058
2.11268
1.76573
1.42072
1.11277
0.95822
3.88108
4.5919
4.48358
4.26502
3.99914
3.70206
3.38428
3.08646
2.91442
2.93286
3.03226
3.09502
3.11008
3.10222
3.08975
3.08176
1.86331
2.11964
2.45978
2.75501
2.98906
3.17807
3.33195
3.45352
3.54211
3.59614
3.61432
3.59615
3.54207
3.45324
3.331
3.176
2.98706
2.76016
2.48934
2.17264
1.82284
1.4703
1.1512
0.933154
3.57249
4.58636
4.50457
4.29673
4.04204
3.75307
3.42806
3.10315
2.91483
2.9557
3.09007
3.1748
3.20127
3.19997
3.19148
3.18546
1.88464
2.14018
2.4795
2.77377
3.00713
3.19585
3.34973
3.47142
3.56017
3.61432
3.63253
3.61432
3.56013
3.47115
3.34878
3.19379
3.00511
2.77885
2.50891
2.19271
1.84207
1.48701
1.16407
0.931233
3.44789
4.58174
4.5135
4.31523
4.06599
3.75487
3.3408
2.87778
2.6111
2.6981
2.96475
3.1661
3.2667
3.30998
3.32687
3.33241
1.86325
2.11958
2.45973
2.75497
2.98904
3.17806
3.33195
3.45352
3.54212
3.59615
3.61432
3.59615
3.54208
3.45324
3.331
3.17599
2.98705
2.76015
2.48932
2.17253
1.8225
1.46952
1.14976
0.930999
3.55025
4.57661
4.50543
4.30523
4.01272
3.53321
2.82908
2.20303
1.87659
1.8566
2.15031
2.62382
3.04085
3.30312
3.43318
3.48273
1.79961
2.05805
2.40037
2.69843
2.93472
3.1248
3.27886
3.40014
3.48835
3.54207
3.56013
3.54208
3.4883
3.39986
3.27789
3.12273
2.93281
2.70387
2.43036
2.11217
1.76457
1.41851
1.10894
0.948407
3.7814
4.54786
4.44907
4.1803
3.67273
2.92795
2.33268
1.97322
1.74443
1.60884
1.55874
1.62317
1.92137
2.53976
3.13727
3.41581
1.69564
1.95662
2.30132
2.60361
2.84389
3.03622
3.19101
3.31216
3.39991
3.45324
3.47115
3.45324
3.39986
3.31185
3.19
3.03414
2.84209
2.60936
2.33165
2.01227
1.67027
1.33685
1.04496
1.05445
3.96204
4.43901
4.25173
3.80253
3.17816
2.70285
2.40502
2.19191
2.03113
1.90669
1.79577
1.67939
1.55942
1.486
1.61147
1.95215
1.55573
1.81809
2.16303
2.46962
2.71562
2.91196
3.06867
3.19034
3.27795
3.331
3.34878
3.331
3.27789
3.19
3.06762
2.90984
2.71387
2.47551
2.19302
1.87482
1.54378
1.23037
0.967973
1.40437
3.97671
4.21419
3.93482
3.45105
3.051
2.80124
2.63002
2.50408
2.40574
2.31319
2.20359
2.05947
1.87167
1.64729
1.42214
1.27028
1.3877
1.64829
1.98782
2.29582
2.54814
2.75045
2.91097
3.03452
3.12281
3.176
3.19379
3.17599
3.12273
3.03414
2.90984
2.7482
2.5462
2.30115
2.01582
1.70456
1.39297
1.11062
0.913392
2.11099
3.96596
4.04441
3.68941
3.33666
3.11579
2.97741
2.88942
2.83009
2.77608
2.70707
2.60896
2.4696
2.27684
2.03112
1.77546
1.60525
1.20288
1.45684
1.78158
2.08362
2.33972
2.54882
2.71516
2.84252
2.93291
2.98706
3.00511
2.98705
2.93281
2.84209
2.71387
2.5462
2.33697
2.08702
1.80518
1.51122
1.2324
1.00161
1.00258
3.17185
4.09241
3.88218
3.56733
3.36629
3.2514
3.19328
3.16717
3.1465
3.11134
3.05198
2.96315
2.83689
2.66061
2.42946
2.18208
2.01515
1.01579
1.25666
1.55497
1.83945
2.09167
2.30471
2.4772
2.60993
2.70399
2.76016
2.77885
2.76015
2.70387
2.60936
2.47551
2.30115
2.08702
1.83928
1.57302
1.31213
1.08582
0.954809
1.89725
4.02329
4.02704
3.75021
3.56702
3.47204
3.43913
3.44142
3.44901
3.44084
3.40896
3.35197
3.26839
3.15259
2.99358
2.78501
2.55939
2.40578
0.857787
1.06491
1.3226
1.57664
1.81284
2.02123
2.19561
2.33256
2.43058
2.48934
2.50891
2.48932
2.43036
2.33165
2.19302
2.01582
1.80518
1.57302
1.33973
1.13216
0.991143
1.27056
3.79579
4.12319
3.88883
3.72416
3.64837
3.63875
3.66707
3.70051
3.7167
3.70846
3.67566
3.61916
3.53832
3.42884
3.28153
3.09013
2.8827
2.74094
1.52572
0.932593
1.10377
1.31383
1.52138
1.71261
1.87906
2.01397
2.11268
2.17264
2.19271
2.17253
2.11217
2.01227
1.87482
1.70456
1.51122
1.31213
1.13216
1.0069
1.12787
3.50078
4.17429
3.98535
3.84027
3.78375
3.79639
3.84918
3.90689
3.94618
3.96056
3.95046
3.91706
3.86103
3.78182
3.67607
3.53594
3.35528
3.15869
3.02335
4.32462
2.24272
0.951677
1.07588
1.24072
1.40327
1.55028
1.67334
1.76573
1.82284
1.84207
1.8225
1.76457
1.67027
1.54378
1.39297
1.2324
1.08582
0.991143
1.12787
3.36325
4.19267
4.04189
3.91677
3.87959
3.91358
3.98932
4.06966
4.13062
4.16659
4.1786
4.16782
4.13482
4.07978
4.00217
3.89917
3.76394
3.59019
3.39956
3.26681
4.62497
4.47039
2.7032
0.969422
1.00343
1.12176
1.23929
1.34178
1.42072
1.4703
1.48701
1.46952
1.41851
1.33685
1.23037
1.11062
1.00161
0.954809
1.27056
3.50078
4.19267
4.06044
3.95471
3.93673
3.99115
4.08834
4.18958
4.27037
4.32602
4.3584
4.36907
4.35863
4.3271
4.27418
4.19907
4.09919
3.96832
3.79992
3.61306
3.4812
4.54017
4.5934
4.53623
3.62871
1.40723
0.940521
0.980684
1.05296
1.11277
1.1512
1.16407
1.14976
1.10894
1.04496
0.967973
0.913392
1.00258
1.89725
3.79579
4.17429
4.04189
3.95471
3.95572
4.02974
4.14718
4.26796
4.3668
4.43957
4.48902
4.51766
4.52705
4.51774
4.48931
4.44064
4.37013
4.27499
4.1493
3.98622
3.80262
3.67122
4.37755
4.46259
4.56833
4.58822
4.34686
3.45253
1.9129
1.1258
0.95822
0.933154
0.931233
0.930999
0.948407
1.05445
1.40437
2.11099
3.17185
4.02329
4.12319
3.98535
3.91677
3.93673
4.02974
4.16667
4.30651
4.42266
4.51056
4.57314
4.61386
4.63623
4.64329
4.6363
4.61404
4.57357
4.51153
4.42424
4.30581
4.14915
3.96926
3.83855
4.17292
4.26883
4.41047
4.52684
4.58763
4.58019
4.47105
4.2254
3.88108
3.57249
3.44789
3.55025
3.7814
3.96204
3.97671
3.96596
4.09241
4.02704
3.88883
3.84027
3.87959
3.99115
4.14718
4.30651
4.44086
4.54406
4.61776
4.66478
4.68979
4.69987
4.7022
4.6999
4.68987
4.665
4.61821
4.54398
4.4363
4.28808
4.11298
3.98351
3.93656
4.03649
4.19348
4.34104
4.44973
4.52303
4.56799
4.58902
4.5919
4.58636
4.58174
4.57661
4.54786
4.43901
4.21419
4.04441
3.88218
3.75021
3.72416
3.78375
3.91358
4.08834
4.26796
4.42266
4.54406
4.63133
4.68412
4.70421
4.69921
4.68419
4.67649
4.68412
4.69905
4.70407
4.68426
4.63123
4.53933
4.40236
4.23346
4.10591
3.67123
3.77214
3.93668
4.10132
4.23148
4.32775
4.39841
4.44914
4.48358
4.50457
4.5135
4.50543
4.44907
4.25173
3.93482
3.68941
3.56733
3.56702
3.64837
3.79639
3.98932
4.18958
4.3668
4.51056
4.61776
4.68412
4.70462
4.67806
4.61534
4.54755
4.51765
4.54728
4.61474
4.67727
4.70421
4.68418
4.6144
4.49179
4.33053
4.20553
3.37408
3.47564
3.64524
3.82168
3.96597
4.07526
4.1577
4.21964
4.26502
4.29673
4.31523
4.30523
4.1803
3.80253
3.45105
3.33666
3.36629
3.47204
3.63875
3.84918
4.06966
4.27037
4.43957
4.57314
4.66478
4.70421
4.67806
4.57539
4.40585
4.23001
4.15223
4.22936
4.40446
4.57358
4.67681
4.70426
4.66294
4.55714
4.40442
4.28232
3.04245
3.14662
3.32183
3.50764
3.66265
3.78169
3.87291
3.9437
3.99914
4.04204
4.06599
4.01272
3.67273
3.17816
3.051
3.11579
3.2514
3.43913
3.66707
3.90689
4.13062
4.32602
4.48902
4.61386
4.68979
4.69921
4.61534
4.40585
4.06786
3.71164
3.55418
3.71038
4.06527
4.40262
4.61306
4.69915
4.68921
4.6004
4.45589
4.33658
2.70739
2.81265
2.98718
3.17281
3.33107
3.45605
3.55495
3.63535
3.70206
3.75307
3.75487
3.53321
2.92795
2.70285
2.80124
2.97741
3.19328
3.44142
3.70051
3.94618
4.16659
4.3584
4.51766
4.63623
4.69987
4.68419
4.54755
4.23001
3.71164
3.17508
2.94922
3.17327
3.7078
4.22537
4.54432
4.684
4.70015
4.62448
4.48606
4.3688
2.49674
2.58173
2.7202
2.87029
3.00631
3.12258
3.22232
3.30964
3.38428
3.42806
3.3408
2.82908
2.33268
2.40502
2.63002
2.88942
3.16717
3.44901
3.7167
3.96056
4.1786
4.36907
4.52705
4.64329
4.7022
4.67649
4.51765
4.15223
3.55418
2.94922
2.70366
2.94723
3.54984
4.14697
4.51402
4.67623
4.70278
4.63213
4.49599
4.3795
2.56598
2.59335
2.64263
2.70604
2.77746
2.85371
2.93351
3.01462
3.08646
3.10315
2.87778
2.20303
1.97322
2.19191
2.50408
2.83009
3.1465
3.44084
3.70846
3.95046
4.16782
4.35863
4.51774
4.6363
4.6999
4.68412
4.54728
4.22936
3.71038
3.17327
2.94723
3.17146
3.70653
4.22471
4.54403
4.68389
4.70014
4.62454
4.48616
4.36891
2.79489
2.77969
2.75747
2.73979
2.73634
2.75308
2.79249
2.85181
2.91442
2.91483
2.6111
1.87659
1.74443
2.03113
2.40574
2.77608
3.11134
3.40896
3.67566
3.91706
4.13482
4.3271
4.48931
4.61404
4.68987
4.69905
4.61474
4.40446
4.06527
3.7078
3.54984
3.70653
4.06264
4.40118
4.61239
4.69892
4.68924
4.60061
4.4562
4.33692
2.94486
2.92854
2.89977
2.86566
2.83568
2.8206
2.83083
2.87172
2.93286
2.9557
2.6981
1.8566
1.60884
1.90669
2.31319
2.70707
3.05198
3.35197
3.61916
3.86103
4.07978
4.27418
4.44064
4.57357
4.665
4.70407
4.67727
4.57358
4.40262
4.22537
4.14697
4.22471
4.40118
4.57168
4.67591
4.70403
4.66318
4.55771
4.40518
4.28316
2.99819
2.99022
2.97523
2.95551
2.93557
2.92332
2.93013
2.9667
3.03226
3.09007
2.96475
2.15031
1.55874
1.79577
2.20359
2.60896
2.96315
3.26839
3.53832
3.78182
4.00217
4.19907
4.37013
4.51153
4.61821
4.68426
4.70421
4.67681
4.61306
4.54432
4.51402
4.54403
4.61239
4.67591
4.70369
4.68431
4.61503
4.49276
4.33176
4.20694
3.00872
3.00583
3.00017
2.9923
2.9842
2.98086
2.99158
3.02787
3.09502
3.1748
3.1661
2.62382
1.62317
1.67939
2.05947
2.4696
2.83689
3.15259
3.42884
3.67607
3.89917
4.09919
4.27499
4.42424
4.54398
4.63123
4.68418
4.70426
4.69915
4.684
4.67623
4.68389
4.69892
4.70403
4.68431
4.63131
4.53933
4.40228
4.23361
4.10649
3.00686
3.00604
3.00429
3.00163
2.99898
2.99966
3.01117
3.04489
3.11008
3.20127
3.2667
3.04085
1.92137
1.55942
1.87167
2.27684
2.66061
2.99358
3.28153
3.53594
3.76394
3.96832
4.1493
4.30581
4.4363
4.53933
4.6144
4.66294
4.68921
4.70015
4.70278
4.70014
4.68924
4.66318
4.61503
4.53933
4.4301
4.28067
4.10554
3.97687
3.00353
3.00335
3.00281
3.00175
3.00057
3.00157
3.01109
3.04046
3.10222
3.19997
3.30998
3.30312
2.53976
1.486
1.64729
2.03112
2.42946
2.78501
3.09013
3.35528
3.59019
3.79992
3.98622
4.14915
4.28808
4.40236
4.49179
4.55714
4.6004
4.62448
4.63213
4.62454
4.60061
4.55771
4.49276
4.40228
4.28067
4.12149
3.94052
3.80967
3.0014
3.00133
3.00103
3.00023
2.99903
2.99912
3.00603
3.03119
3.08975
3.19148
3.32687
3.43318
3.13727
1.61147
1.42214
1.77546
2.18208
2.55939
2.8827
3.15869
3.39956
3.61306
3.80262
3.96926
4.11298
4.23346
4.33053
4.40442
4.45589
4.48606
4.49599
4.48616
4.4562
4.40518
4.33176
4.23361
4.10554
3.94052
3.753
3.61655
3.0005
3.00043
3.00012
2.99927
2.99784
2.99718
3.00242
3.02506
3.08176
3.18546
3.33241
3.48273
3.41581
1.95215
1.27028
1.60525
2.01515
2.40578
2.74094
3.02335
3.26681
3.4812
3.67122
3.83855
3.98351
4.10591
4.20553
4.28232
4.33658
4.3688
4.3795
4.36891
4.33692
4.28316
4.20694
4.10649
3.97687
3.80967
3.61655
3.47463
