# vtk DataFile Version 3.0
Brusselator Concentration Output
ASCII
DATASET STRUCTURED_POINTS
DIMENSIONS 40 40 1
ORIGIN 0.0 0.0 0.0
SPACING 0.005 0.005 1.0
POINT_DATA 1600
SCALARS C1 double 1
LOOKUP_TABLE default
0.365107
0.373217
0.386064
0.400098
0.414121
0.428089
0.441695
0.454142
0.464307
0.471016
0.473365
0.471006
0.464272
0.454049
0.441508
0.427828
0.41404
0.40102
0.389611
0.380893
0.37667
0.380462
0.399506
0.448613
0.556
0.766571
1.13126
1.69034
2.47383
3.42859
1.05625
0.605709
0.562405
0.599792
0.690736
0.816266
0.932187
0.99897
1.01845
1.01844
0.373217
0.382203
0.396769
0.413206
0.430061
0.447185
0.464208
0.480133
0.493424
0.502352
0.505507
0.502339
0.493379
0.480015
0.463982
0.446895
0.430024
0.414317
0.40056
0.389664
0.383107
0.383746
0.397409
0.435942
0.522032
0.693098
0.995182
1.4658
2.13113
3.10504
1.56399
0.683906
0.582972
0.608993
0.692027
0.809871
0.921677
0.989709
1.01258
1.01466
0.386064
0.396769
0.414743
0.435977
0.458699
0.482719
0.507646
0.532071
0.553396
0.568252
0.573612
0.568231
0.553324
0.531896
0.507332
0.482357
0.458723
0.437408
0.418982
0.403978
0.393304
0.388849
0.394592
0.41873
0.477375
0.599032
0.824396
1.19401
1.73768
2.47918
2.75346
0.925395
0.63251
0.627508
0.695283
0.800336
0.905864
0.976114
1.00437
1.00973
0.400098
0.413206
0.435977
0.464201
0.496099
0.531897
0.571645
0.613588
0.653006
0.682196
0.693108
0.682158
0.652881
0.613303
0.571171
0.531401
0.496171
0.466015
0.440783
0.420264
0.404583
0.394642
0.39284
0.404531
0.440814
0.522932
0.685919
0.973473
1.42222
2.05572
2.95816
1.49122
0.735182
0.658233
0.704475
0.796158
0.896591
0.970255
1.00433
1.01287
0.414121
0.430061
0.458699
0.496099
0.541317
0.596362
0.663709
0.743118
0.826813
0.895155
0.922188
0.895071
0.82656
0.742603
0.662946
0.595644
0.541427
0.498353
0.464158
0.437085
0.416118
0.401141
0.393333
0.396135
0.417342
0.472981
0.592406
0.818788
1.19568
1.75366
2.53012
2.48599
0.947285
0.713324
0.730869
0.813431
0.914732
0.996406
1.03838
1.05034
0.428089
0.447185
0.482719
0.531897
0.596362
0.683544
0.805466
0.974194
1.18385
1.37795
1.45941
1.37771
1.18324
0.973129
0.80413
0.682452
0.59651
0.534688
0.488948
0.454308
0.427905
0.408412
0.395959
0.392658
0.404142
0.442825
0.533136
0.715192
1.03602
1.5299
2.21421
3.01239
1.36705
0.821168
0.790462
0.868207
0.98151
1.08711
1.15324
1.17822
0.441695
0.464208
0.507646
0.571645
0.663709
0.805466
1.04133
1.4397
2.00387
2.50359
2.68772
2.50303
2.00231
1.43723
1.03877
0.803714
0.663891
0.575107
0.514792
0.471575
0.439607
0.415996
0.399834
0.392211
0.397286
0.424949
0.495659
0.645315
0.920208
1.35538
1.96275
2.75228
1.99999
0.992276
0.860949
0.920193
1.04649
1.19552
1.32252
1.39231
0.454142
0.480133
0.532071
0.613588
0.743118
0.974194
1.4397
2.31557
3.20562
3.53926
3.59367
3.53895
3.20395
2.31074
1.43466
0.971302
0.743311
0.617837
0.540238
0.487851
0.450433
0.423133
0.403975
0.393208
0.393916
0.414142
0.471009
0.595382
0.828633
1.20193
1.71775
2.35703
2.25055
1.05797
0.815986
0.834231
0.942439
1.09609
1.2481
1.34344
0.464307
0.493424
0.553396
0.653006
0.826813
1.18385
2.00387
3.20562
3.62221
3.6009
3.56926
3.60083
3.62176
3.20144
1.99546
1.17929
0.826971
0.658057
0.562551
0.501521
0.459323
0.428992
0.407537
0.394508
0.392158
0.407023
0.45312
0.555537
0.748012
1.05636
1.48172
2.01656
1.86701
0.850152
0.642526
0.643732
0.713007
0.815991
0.917862
0.980682
0.471016
0.502352
0.568252
0.682196
0.895155
1.37795
2.50359
3.53926
3.6009
3.48494
3.43545
3.48494
3.60086
3.53729
2.49344
1.37171
0.895252
0.687876
0.578145
0.510741
0.465195
0.432818
0.40984
0.395281
0.390724
0.401373
0.438366
0.52145
0.678469
0.937419
1.31892
1.88661
1.27131
0.618534
0.505652
0.504497
0.538232
0.588117
0.63644
0.665734
0.473365
0.505507
0.573612
0.693108
0.922188
1.45941
2.68772
3.59367
3.56926
3.43545
3.38282
3.43546
3.5693
3.59238
2.67749
1.45248
0.922264
0.699036
0.583785
0.513997
0.467211
0.434041
0.410375
0.394935
0.388827
0.396275
0.426507
0.496914
0.637383
0.894704
1.31836
1.96027
0.844054
0.498547
0.443244
0.439356
0.450464
0.467393
0.483248
0.492637
0.471006
0.502339
0.568231
0.682158
0.895071
1.37771
2.50303
3.53895
3.60083
3.48494
3.43546
3.48493
3.6008
3.53699
2.49294
1.37153
0.895202
0.687856
0.578116
0.510664
0.465
0.43237
0.408869
0.393254
0.386546
0.392783
0.421379
0.493087
0.652605
0.986457
1.60415
1.58154
0.630621
0.457834
0.427619
0.42061
0.419363
0.419592
0.419783
0.419848
0.464272
0.493379
0.553324
0.652881
0.82656
1.18324
2.00231
3.20395
3.62176
3.60086
3.5693
3.6008
3.62132
3.19982
1.994
1.17876
0.826766
0.657934
0.562401
0.501242
0.45876
0.42789
0.405473
0.390751
0.385253
0.394017
0.429936
0.525622
0.755214
1.23285
2.22563
1.16629
0.555275
0.460148
0.438924
0.428517
0.419639
0.410693
0.402924
0.39847
0.454049
0.480015
0.531896
0.613303
0.742603
0.973129
1.43723
2.31074
3.20144
3.53729
3.59238
3.53699
3.19982
2.30603
1.43232
0.97032
0.742809
0.617456
0.539779
0.487132
0.449229
0.42119
0.401032
0.388906
0.387461
0.404477
0.461287
0.612344
0.967886
1.64264
2.7413
0.977509
0.55643
0.492601
0.471974
0.456216
0.439984
0.423569
0.409937
0.402341
0.441508
0.463982
0.507332
0.571171
0.662946
0.80413
1.03877
1.43466
1.99546
2.49344
2.67749
2.49294
1.994
1.43232
1.03631
0.802406
0.663022
0.574302
0.513792
0.470157
0.437623
0.413497
0.397146
0.389844
0.3962
0.429611
0.526162
0.766401
1.27197
2.16947
3.00752
1.00052
0.639644
0.573351
0.539257
0.509188
0.480064
0.453228
0.432401
0.421194
0.427828
0.446895
0.482357
0.531401
0.595644
0.682452
0.803714
0.971302
1.17929
1.37171
1.45248
1.37153
1.17876
0.97032
0.802406
0.681253
0.59544
0.533451
0.487321
0.452215
0.425589
0.406583
0.395739
0.395727
0.414799
0.475929
0.633563
0.983288
1.63114
2.68793
3.62438
1.71113
1.1074
0.898152
0.748539
0.637526
0.559392
0.505694
0.470789
0.453448
0.41404
0.430024
0.458723
0.496171
0.541427
0.59651
0.663891
0.743311
0.826971
0.895252
0.922264
0.895202
0.826766
0.742809
0.663022
0.59544
0.540782
0.497136
0.462394
0.435179
0.415022
0.402265
0.398478
0.408735
0.447621
0.550723
0.786534
1.24226
1.97127
2.93244
3.65256
3.74633
3.50235
2.93354
2.03877
1.29207
0.841998
0.629251
0.539652
0.505506
0.40102
0.414317
0.437408
0.466015
0.498353
0.534688
0.575107
0.617837
0.658057
0.687876
0.699036
0.687856
0.657934
0.617456
0.574302
0.533451
0.497136
0.466064
0.440503
0.420829
0.407617
0.401936
0.406994
0.432267
0.501117
0.659924
0.972455
1.4718
2.0955
2.60128
2.75831
2.763
2.83967
3.02612
3.32847
3.60286
2.6176
1.25039
0.745236
0.612345
0.389611
0.40056
0.418982
0.440783
0.464158
0.488948
0.514792
0.540238
0.562551
0.578145
0.583785
0.578116
0.562401
0.539779
0.513792
0.487321
0.462394
0.440503
0.422899
0.410604
0.404587
0.407031
0.424383
0.472445
0.582025
0.795322
1.13266
1.54195
1.87217
1.99352
1.98491
1.99288
2.06777
2.21176
2.42883
2.73192
3.16992
3.60102
1.95964
1.05824
0.380893
0.389664
0.403978
0.420264
0.437085
0.454308
0.471575
0.487851
0.501521
0.510741
0.513997
0.510664
0.501242
0.487132
0.470157
0.452215
0.435179
0.420829
0.410604
0.405567
0.407389
0.420764
0.456923
0.536585
0.685852
0.914254
1.18332
1.39635
1.4749
1.45162
1.41989
1.43232
1.49667
1.61426
1.79188
2.04348
2.39142
2.85935
3.54129
3.49746
0.37667
0.383107
0.393304
0.404583
0.416118
0.427905
0.439607
0.450433
0.459323
0.465195
0.467211
0.465
0.45876
0.449229
0.437623
0.425589
0.415022
0.407617
0.404587
0.407389
0.419732
0.450148
0.513097
0.623919
0.783551
0.961578
1.09416
1.13329
1.096
1.04295
1.01791
1.03117
1.08293
1.17619
1.31857
1.52275
1.80815
2.20342
2.73789
3.31947
0.380462
0.383746
0.388849
0.394642
0.401141
0.408412
0.415996
0.423133
0.428992
0.432818
0.434041
0.43237
0.42789
0.42119
0.413497
0.406583
0.402265
0.401936
0.407031
0.420764
0.450148
0.505864
0.596179
0.715332
0.836187
0.914057
0.92097
0.871361
0.807739
0.763502
0.747497
0.758572
0.797011
0.866962
0.976627
1.13872
1.37121
1.69685
2.12652
2.54958
0.399506
0.397409
0.394592
0.39284
0.393333
0.395959
0.399834
0.403975
0.407537
0.40984
0.410375
0.408869
0.405473
0.401032
0.397146
0.395739
0.398478
0.406994
0.424383
0.456923
0.513097
0.596179
0.694276
0.780179
0.820316
0.80107
0.739925
0.670648
0.618378
0.588871
0.579209
0.587164
0.613591
0.662688
0.742458
0.865581
1.04987
1.31487
1.65811
1.9723
0.448613
0.435942
0.41873
0.404531
0.396135
0.392658
0.392211
0.393208
0.394508
0.395281
0.394935
0.393254
0.390751
0.388906
0.389844
0.395727
0.408735
0.432267
0.472445
0.536585
0.623919
0.715332
0.780179
0.791443
0.747676
0.672711
0.597341
0.540965
0.505968
0.487612
0.481823
0.48706
0.504267
0.537014
0.592256
0.681631
0.822336
1.03246
1.30409
1.54062
0.556
0.522032
0.477375
0.440814
0.417342
0.404142
0.397286
0.393916
0.392158
0.390724
0.388827
0.386546
0.385253
0.387461
0.3962
0.414799
0.447621
0.501117
0.582025
0.685852
0.783551
0.836187
0.820316
0.747676
0.652213
0.565801
0.503907
0.465342
0.443238
0.431988
0.428507
0.431802
0.442678
0.463942
0.501199
0.5643
0.668646
0.830808
1.04235
1.2211
0.766571
0.693098
0.599032
0.522932
0.472981
0.442825
0.424949
0.414142
0.407023
0.401373
0.396275
0.392783
0.394017
0.404477
0.429611
0.475929
0.550723
0.659924
0.795322
0.914254
0.961578
0.914057
0.80107
0.672711
0.565801
0.492983
0.448824
0.423514
0.409619
0.402738
0.40065
0.402666
0.40943
0.423119
0.448142
0.492496
0.569171
0.692546
0.855359
0.990573
1.13126
0.995182
0.824396
0.685919
0.592406
0.533136
0.495659
0.471009
0.45312
0.438366
0.426507
0.421379
0.429936
0.461287
0.526162
0.633563
0.786534
0.972455
1.13266
1.18332
1.09416
0.92097
0.739925
0.597341
0.503907
0.448824
0.41794
0.401118
0.392303
0.388127
0.386897
0.388093
0.392235
0.401057
0.418081
0.449782
0.506869
0.601314
0.727054
0.830293
1.69034
1.4658
1.19401
0.973473
0.818788
0.715192
0.645315
0.595382
0.555537
0.52145
0.496914
0.493087
0.525622
0.612344
0.766401
0.983288
1.24226
1.4718
1.54195
1.39635
1.13329
0.871361
0.670648
0.540965
0.465342
0.423514
0.401118
0.38954
0.383873
0.381387
0.380694
0.381368
0.38385
0.389586
0.401507
0.424993
0.468967
0.543328
0.642835
0.723811
2.47383
2.13113
1.73768
1.42222
1.19568
1.03602
0.920208
0.828633
0.748012
0.678469
0.637383
0.652605
0.755214
0.967886
1.27197
1.63114
1.97127
2.0955
1.87217
1.4749
1.096
0.807739
0.618378
0.505968
0.443238
0.409619
0.392303
0.383873
0.380115
0.378662
0.378298
0.378649
0.380109
0.383955
0.392749
0.411167
0.446912
0.508397
0.590875
0.657521
3.42859
3.10504
2.47918
2.05572
1.75366
1.5299
1.35538
1.20193
1.05636
0.937419
0.894704
0.986457
1.23285
1.64264
2.16947
2.68793
2.93244
2.60128
1.99352
1.45162
1.04295
0.763502
0.588871
0.487612
0.431988
0.402738
0.388127
0.381387
0.378662
0.377772
0.377588
0.377762
0.378663
0.38148
0.38858
0.404247
0.435492
0.489855
0.562859
0.621575
1.05625
1.56399
2.75346
2.95816
2.53012
2.21421
1.96275
1.71775
1.48172
1.31892
1.31836
1.60415
2.22563
2.7413
3.00752
3.62438
3.65256
2.75831
1.98491
1.41989
1.01791
0.747497
0.579209
0.481823
0.428507
0.40065
0.386897
0.380694
0.378298
0.377588
0.377462
0.377579
0.378301
0.380789
0.387349
0.402138
0.431944
0.484021
0.553977
0.610149
0.605709
0.683906
0.925395
1.49122
2.48599
3.01239
2.75228
2.35703
2.01656
1.88661
1.96027
1.58154
1.16629
0.977509
1.00052
1.71113
3.74633
2.763
1.99288
1.43232
1.03117
0.758572
0.587164
0.48706
0.431802
0.402666
0.388093
0.381368
0.378649
0.377762
0.377579
0.377752
0.378649
0.38146
0.388548
0.404195
0.435407
0.489717
0.562651
0.621308
0.562405
0.582972
0.63251
0.735182
0.947285
1.36705
1.99999
2.25055
1.86701
1.27131
0.844054
0.630621
0.555275
0.55643
0.639644
1.1074
3.50235
2.83967
2.06777
1.49667
1.08293
0.797011
0.613591
0.504267
0.442678
0.40943
0.392235
0.38385
0.380109
0.378663
0.378301
0.378649
0.380101
0.383933
0.392702
0.411077
0.44675
0.508116
0.590432
0.65694
0.599792
0.608993
0.627508
0.658233
0.713324
0.821168
0.992276
1.05797
0.850152
0.618534
0.498547
0.457834
0.460148
0.492601
0.573351
0.898152
2.93354
3.02612
2.21176
1.61426
1.17619
0.866962
0.662688
0.537014
0.463942
0.423119
0.401057
0.389586
0.383955
0.38148
0.380789
0.38146
0.383933
0.389652
0.401543
0.424974
0.468847
0.54303
0.642275
0.72302
0.690736
0.692027
0.695283
0.704475
0.730869
0.790462
0.860949
0.815986
0.642526
0.505652
0.443244
0.427619
0.438924
0.471974
0.539257
0.748539
2.03877
3.32847
2.42883
1.79188
1.31857
0.976627
0.742458
0.592256
0.501199
0.448142
0.418081
0.401507
0.392749
0.38858
0.387349
0.388548
0.392702
0.401543
0.418592
0.450312
0.507382
0.601714
0.727213
0.830214
0.816266
0.809871
0.800336
0.796158
0.813431
0.868207
0.920193
0.834231
0.643732
0.504497
0.439356
0.42061
0.428517
0.456216
0.509188
0.637526
1.29207
3.60286
2.73192
2.04348
1.52275
1.13872
0.865581
0.681631
0.5643
0.492496
0.449782
0.424993
0.411167
0.404247
0.402138
0.404195
0.411077
0.424974
0.450312
0.49509
0.57226
0.696087
0.8592
0.994599
0.932187
0.921677
0.905864
0.896591
0.914732
0.98151
1.04649
0.942439
0.713007
0.538232
0.450464
0.419363
0.419639
0.439984
0.480064
0.559392
0.841998
2.6176
3.16992
2.39142
1.80815
1.37121
1.04987
0.822336
0.668646
0.569171
0.506869
0.468967
0.446912
0.435492
0.431944
0.435407
0.44675
0.468847
0.507382
0.57226
0.678825
0.84342
1.05736
1.23813
0.99897
0.989709
0.976114
0.970255
0.996406
1.08711
1.19552
1.09609
0.815991
0.588117
0.467393
0.419592
0.410693
0.423569
0.453228
0.505694
0.629251
1.25039
3.60102
2.85935
2.20342
1.69685
1.31487
1.03246
0.830808
0.692546
0.601314
0.543328
0.508397
0.489855
0.484021
0.489717
0.508116
0.54303
0.601714
0.696087
0.84342
1.0616
1.34251
1.58783
1.01845
1.01258
1.00437
1.00433
1.03838
1.15324
1.32252
1.2481
0.917862
0.63644
0.483248
0.419783
0.402924
0.409937
0.432401
0.470789
0.539652
0.745236
1.95964
3.54129
2.73789
2.12652
1.65811
1.30409
1.04235
0.855359
0.727054
0.642835
0.590875
0.562859
0.553977
0.562651
0.590432
0.642275
0.727213
0.8592
1.05736
1.34251
1.7135
2.05786
1.01844
1.01466
1.00973
1.01287
1.05034
1.17822
1.39231
1.34344
0.980682
0.665734
0.492637
0.419848
0.39847
0.402341
0.421194
0.453448
0.505506
0.612345
1.05824
3.49746
3.31947
2.54958
1.9723
1.54062
1.2211
0.990573
0.830293
0.723811
0.657521
0.621575
0.610149
0.621308
0.65694
0.72302
0.830214
0.994599
1.23813
1.58783
2.05786
2.5311
SCALARS C2 double 1
LOOKUP_TABLE default
3.60693
3.73048
3.90193
4.05698
4.18234
4.28309
4.36291
4.42345
4.46566
4.49047
4.49864
4.49045
4.46556
4.42314
4.36217
4.28186
4.18173
4.06166
3.92177
3.76215
3.58261
3.38204
3.15738
2.90179
2.60341
2.2504
1.85032
1.44554
1.09103
1.38624
4.1881
4.24131
3.99035
3.69014
3.38871
3.13895
2.99009
2.94472
2.95491
2.97108
3.73048
3.84948
4.01563
4.16754
4.29032
4.38786
4.4638
4.52013
4.55847
4.58049
4.58763
4.58047
4.55838
4.51986
4.46313
4.38678
4.28999
4.17252
4.03452
3.87625
3.69778
3.49846
3.2761
3.0254
2.73656
2.39791
2.01031
1.60549
1.23866
1.05593
3.70047
4.22824
4.01184
3.7192
3.42144
3.17114
3.01562
2.96045
2.96338
2.97655
3.90193
4.01563
4.17519
4.32091
4.43677
4.52573
4.59135
4.63634
4.66388
4.67793
4.68211
4.67792
4.66383
4.63616
4.59085
4.52486
4.43661
4.32574
4.19264
4.03801
3.86243
3.66602
3.44774
3.20425
2.92845
2.60955
2.24078
1.83774
1.44565
1.12747
2.13156
4.11466
4.04246
3.77076
3.47979
3.2271
3.05916
2.98745
2.97868
2.98717
4.05698
4.16754
4.32091
4.45731
4.56069
4.63338
4.67846
4.69935
4.70236
4.69726
4.6941
4.69728
4.70239
4.69936
4.67824
4.63277
4.56045
4.46131
4.3366
4.18796
4.01688
3.82438
3.61054
3.37374
3.10927
2.80811
2.45949
2.06452
1.65405
1.28477
1.16074
3.62039
4.05066
3.82912
3.5468
3.28791
3.10321
3.0127
2.99214
2.99666
4.18234
4.29032
4.43677
4.56069
4.64549
4.69153
4.69916
4.67061
4.61694
4.56293
4.53989
4.563
4.61714
4.67095
4.69941
4.69131
4.64511
4.56354
4.45045
4.30947
4.14357
3.95492
3.74471
3.51262
3.25584
2.96738
2.63594
2.25394
1.83772
1.43642
1.12449
2.39337
3.96413
3.86437
3.59103
3.31887
3.11239
3.00257
2.97316
2.97676
4.28309
4.38786
4.52573
4.63338
4.69153
4.69431
4.63125
4.49175
4.28647
4.08258
3.99439
4.08282
4.2871
4.49279
4.63233
4.69471
4.69107
4.63498
4.5372
4.40549
4.24528
4.0603
3.85286
3.62374
3.37151
3.09099
2.77189
2.40287
1.98939
1.57182
1.21343
1.33221
3.61227
3.81982
3.55982
3.26308
3.02339
2.8838
2.83863
2.83945
4.36291
4.4638
4.59135
4.67846
4.69916
4.63125
4.42796
4.01517
3.38183
2.78512
2.55543
2.78574
3.38361
4.01794
4.43065
4.63263
4.69865
4.6787
4.60052
4.47978
4.32583
4.14448
3.93933
3.71213
3.46246
3.18654
2.87558
2.51774
2.11258
1.69282
1.31811
1.11849
2.80555
3.62038
3.41075
3.09391
2.81243
2.61105
2.50106
2.46198
4.42345
4.52013
4.63634
4.69935
4.67061
4.49175
4.01517
3.01852
1.88182
1.34181
1.21749
1.34222
1.88401
3.02436
4.02097
4.49467
4.67009
4.69815
4.64323
4.53455
4.38711
4.20933
4.00617
3.78028
3.53201
3.25868
2.95332
2.60624
2.21651
1.81125
1.44408
1.19316
2.16394
3.39375
3.28137
2.99084
2.70064
2.44553
2.25367
2.15108
4.46566
4.55847
4.66388
4.70236
4.61694
4.28647
3.38183
1.88182
1.12158
0.949427
0.920859
0.949559
1.12249
1.88769
3.39202
4.29155
4.61643
4.69977
4.66873
4.57159
4.43008
4.25542
4.05389
3.82882
3.58121
3.30949
3.00958
2.67698
2.31409
1.94141
1.59946
1.35882
2.41645
3.48779
3.36891
3.12015
2.86075
2.61183
2.4108
2.29927
4.49047
4.58049
4.67793
4.69726
4.56293
4.08258
2.78512
1.34181
0.949427
0.890449
0.884717
0.890508
0.949837
1.34551
2.798
4.0898
4.56247
4.69362
4.68133
4.59274
4.45546
4.28294
4.08238
3.8576
3.61023
3.34074
3.05013
2.74089
2.41621
2.08168
1.75676
1.57053
3.255
3.73358
3.56688
3.36006
3.14537
2.9328
2.75794
2.66061
4.49864
4.58763
4.68211
4.6941
4.53989
3.99439
2.55543
1.21749
0.920859
0.884717
0.883509
0.884762
0.921163
1.22045
2.56874
4.00251
4.53944
4.69005
4.68498
4.59957
4.4638
4.29191
4.09139
3.86638
3.61995
3.3568
3.08444
2.80766
2.51778
2.19077
1.83277
2.04827
3.88265
3.93561
3.77968
3.61554
3.44156
3.26383
3.11428
3.03008
4.49045
4.58047
4.67792
4.69728
4.563
4.08282
2.78574
1.34222
0.949559
0.890508
0.884762
0.890567
0.949967
1.34591
2.79856
4.08997
4.5625
4.69361
4.68132
4.5927
4.45526
4.28223
4.08077
3.8559
3.61433
3.36669
3.12209
2.87286
2.5781
2.18111
1.7201
3.14818
4.18141
4.11821
3.99681
3.86878
3.72561
3.57167
3.43683
3.35898
4.46556
4.55838
4.66383
4.70239
4.61714
4.2871
3.38361
1.88401
1.12249
0.949837
0.921163
0.949967
1.12339
1.88983
3.39366
4.29208
4.61657
4.6998
4.66871
4.57143
4.42941
4.25362
4.05112
3.82992
3.60222
3.37982
3.15852
2.89708
2.5118
1.96833
1.56925
3.92835
4.36543
4.30274
4.21488
4.11515
3.99431
3.85584
3.7285
3.65264
4.42314
4.51986
4.63616
4.69936
4.67095
4.49279
4.01794
3.02436
1.88769
1.34551
1.22045
1.34591
1.88983
3.03004
4.02358
4.49561
4.6704
4.69821
4.64309
4.53395
4.38539
4.20638
4.00593
3.797
3.59262
3.39098
3.15518
2.80181
2.25325
1.60365
1.70269
4.29026
4.51872
4.48089
4.42108
4.34373
4.24091
4.11522
3.99367
3.9188
4.36217
4.46313
4.59085
4.67824
4.69941
4.63233
4.43065
4.02097
3.39202
2.798
2.56874
2.79856
3.39366
4.02358
4.43321
4.63366
4.69898
4.67863
4.59992
4.47808
4.3228
4.14351
3.95332
3.76559
3.57975
3.36348
3.04326
2.53604
1.88026
1.27313
1.93415
4.41673
4.62339
4.61886
4.58732
4.53422
4.45292
4.344
4.23143
4.15909
4.28186
4.38678
4.52486
4.63277
4.69131
4.69471
4.63263
4.49467
4.29155
4.0898
4.00251
4.08997
4.29208
4.49561
4.63366
4.69518
4.69103
4.63439
4.53558
4.40255
4.24401
4.07255
3.90117
3.72975
3.52975
3.23881
2.78427
2.17143
1.54281
1.04826
1.42977
3.89774
4.40898
4.54787
4.61905
4.63785
4.60587
4.52988
4.43555
4.36989
4.18173
4.28999
4.43661
4.56045
4.64511
4.69107
4.69865
4.67009
4.61643
4.56247
4.53944
4.5625
4.61657
4.6704
4.69898
4.69103
4.64479
4.56263
4.44857
4.3093
4.15613
4.00105
3.84384
3.65881
3.393
2.98691
2.43473
1.83091
1.30454
0.945817
0.850647
1.0827
1.54174
2.35793
3.46045
4.2486
4.57696
4.63423
4.58968
4.54093
4.06166
4.17252
4.32574
4.46131
4.56354
4.63498
4.6787
4.69815
4.69977
4.69362
4.69005
4.69361
4.6998
4.69821
4.67863
4.63439
4.56263
4.46355
4.34132
4.20549
4.06667
3.92398
3.75361
3.50968
3.14387
2.64984
2.09497
1.58714
1.21777
1.03168
0.997933
1.0043
0.985427
0.947104
0.92724
1.16766
2.81129
4.30183
4.61957
4.642
3.92177
4.03452
4.19264
4.3366
4.45045
4.5372
4.60052
4.64323
4.66873
4.68133
4.68498
4.68132
4.66871
4.64309
4.59992
4.53558
4.44857
4.34132
4.2218
4.09916
3.97153
3.81595
3.59149
3.25822
2.81274
2.31122
1.84649
1.50192
1.31955
1.28114
1.29838
1.29594
1.2601
1.19708
1.11347
1.01749
0.935991
1.29649
3.62829
4.46265
3.76215
3.87625
4.03801
4.18796
4.30947
4.40549
4.47978
4.53455
4.57159
4.59274
4.59957
4.5927
4.57143
4.53395
4.47808
4.40255
4.3093
4.20549
4.09916
3.98729
3.84689
3.64004
3.33287
2.92573
2.47134
2.0563
1.75371
1.59671
1.57252
1.61191
1.63977
1.62957
1.58306
1.50493
1.39943
1.27141
1.12822
0.986155
0.942741
1.85945
3.58261
3.69778
3.86243
4.01688
4.14357
4.24528
4.32583
4.38711
4.43008
4.45546
4.4638
4.45526
4.42941
4.38539
4.3228
4.24401
4.15613
4.06667
3.97153
3.84689
3.65613
3.36974
2.99203
2.57563
2.20565
1.94892
1.82908
1.83279
1.90222
1.9658
1.99083
1.97561
1.92314
1.8357
1.71558
1.56586
1.39153
1.20137
1.01158
0.866753
3.38204
3.49846
3.66602
3.82438
3.95492
4.0603
4.14448
4.20933
4.25542
4.28294
4.29191
4.28223
4.25362
4.20638
4.14351
4.07255
4.00105
3.92398
3.81595
3.64004
3.36974
3.01388
2.62682
2.29372
2.07853
1.99811
2.03587
2.1386
2.23763
2.29884
2.31961
2.30259
2.24903
2.15924
2.03323
1.87141
1.67626
1.45534
1.22828
1.05555
3.15738
3.2761
3.44774
3.61054
3.74471
3.85286
3.93933
4.00617
4.05389
4.08238
4.09139
4.08077
4.05112
4.00593
3.95332
3.90117
3.84384
3.75361
3.59149
3.33287
2.99203
2.62682
2.32271
2.14247
2.09878
2.17128
2.30737
2.43945
2.53373
2.5883
2.6064
2.5895
2.53784
2.45076
2.32669
2.16326
1.9591
1.71907
1.46864
1.28318
2.90179
3.0254
3.20425
3.37374
3.51262
3.62374
3.71213
3.78028
3.82882
3.8576
3.86638
3.8559
3.82992
3.797
3.76559
3.72975
3.65881
3.50968
3.25822
2.92573
2.57563
2.29372
2.14247
2.13202
2.23828
2.40707
2.5706
2.69558
2.78118
2.83138
2.84805
2.8318
2.78259
2.69967
2.58101
2.4227
2.21994
1.97338
1.71101
1.51939
2.60341
2.73656
2.92845
3.10927
3.25584
3.37151
3.46246
3.53201
3.58121
3.61023
3.61995
3.61433
3.60222
3.59262
3.57975
3.52975
3.393
3.14387
2.81274
2.47134
2.20565
2.07853
2.09878
2.23828
2.43993
2.63487
2.78998
2.90544
2.98603
3.03394
3.04991
3.03418
2.98673
2.90711
2.79359
2.64209
2.44601
2.20237
1.93845
1.74666
2.2504
2.39791
2.60955
2.80811
2.96738
3.09099
3.18654
3.25868
3.30949
3.34074
3.3568
3.36669
3.37982
3.39098
3.36348
3.23881
2.98691
2.64984
2.31122
2.0563
1.94892
1.99811
2.17128
2.40707
2.63487
2.821
2.96641
3.07687
3.15513
3.20201
3.21769
3.20222
3.15569
3.07798
2.96794
2.82198
2.63323
2.39664
2.13765
1.94996
1.85032
2.01031
2.24078
2.45949
2.63594
2.77189
2.87558
2.95332
3.00958
3.05013
3.08444
3.12209
3.15852
3.15518
3.04326
2.78427
2.43473
2.09497
1.84649
1.75371
1.82908
2.03587
2.30737
2.5706
2.78998
2.96641
3.10689
3.21518
3.29252
3.33908
3.35468
3.33929
3.29307
3.2162
3.10804
2.96568
2.78266
2.5532
2.30122
2.11926
1.44554
1.60549
1.83774
2.06452
2.25394
2.40287
2.51774
2.60624
2.67698
2.74089
2.80766
2.87286
2.89708
2.80181
2.53604
2.17143
1.83091
1.58714
1.50192
1.59671
1.83279
2.1386
2.43945
2.69558
2.90544
3.07687
3.21518
3.32263
3.39977
3.44634
3.46197
3.44654
3.40032
3.32367
3.21634
3.07598
2.89671
2.67272
2.42696
2.25029
1.09103
1.23866
1.44565
1.65405
1.83772
1.98939
2.11258
2.21651
2.31409
2.41621
2.51778
2.5781
2.5118
2.25325
1.88026
1.54281
1.30454
1.21777
1.31955
1.57252
1.90222
2.23763
2.53373
2.78118
2.98603
3.15513
3.29252
3.39977
3.47699
3.52368
3.53936
3.52388
3.47753
3.40082
3.29375
3.15437
2.97728
2.75681
2.51545
2.34263
1.38624
1.05593
1.12747
1.28477
1.43642
1.57182
1.69282
1.81125
1.94141
2.08168
2.19077
2.18111
1.96833
1.60365
1.27313
1.04826
0.945817
1.03168
1.28114
1.61191
1.9658
2.29884
2.5883
2.83138
3.03394
3.20201
3.33908
3.44634
3.52368
3.57049
3.58622
3.57069
3.52422
3.4474
3.34036
3.20139
3.02538
2.80682
2.56794
2.39737
4.1881
3.70047
2.13156
1.16074
1.12449
1.21343
1.31811
1.44408
1.59946
1.75676
1.83277
1.7201
1.56925
1.70269
1.93415
1.42977
0.850647
0.997933
1.29838
1.63977
1.99083
2.31961
2.6064
2.84805
3.04991
3.21769
3.35468
3.46197
3.53936
3.58622
3.60196
3.58641
3.5399
3.46303
3.35599
3.21714
3.04145
2.82349
2.58542
2.41559
4.24131
4.22824
4.11466
3.62039
2.39337
1.33221
1.11849
1.19316
1.35882
1.57053
2.04827
3.14818
3.92835
4.29026
4.41673
3.89774
1.0827
1.0043
1.29594
1.62957
1.97561
2.30259
2.5895
2.8318
3.03418
3.20222
3.33929
3.44654
3.52388
3.57069
3.58641
3.57088
3.52442
3.44761
3.34059
3.20165
3.02567
2.80714
2.56829
2.39775
3.99035
4.01184
4.04246
4.05066
3.96413
3.61227
2.80555
2.16394
2.41645
3.255
3.88265
4.18141
4.36543
4.51872
4.62339
4.40898
1.54174
0.985427
1.2601
1.58306
1.92314
2.24903
2.53784
2.78259
2.98673
3.15569
3.29307
3.40032
3.47753
3.52422
3.5399
3.52442
3.47808
3.40139
3.29435
3.15502
2.97798
2.75758
2.51627
2.34351
3.69014
3.7192
3.77076
3.82912
3.86437
3.81982
3.62038
3.39375
3.48779
3.73358
3.93561
4.11821
4.30274
4.48089
4.61886
4.54787
2.35793
0.947104
1.19708
1.50493
1.8357
2.15924
2.45076
2.69967
2.90711
3.07798
3.2162
3.32367
3.40082
3.4474
3.46303
3.44761
3.40139
3.32476
3.21746
3.07714
2.89791
2.67395
2.42826
2.25166
3.38871
3.42144
3.47979
3.5468
3.59103
3.55982
3.41075
3.28137
3.36891
3.56688
3.77968
3.99681
4.21488
4.42108
4.58732
4.61905
3.46045
0.92724
1.11347
1.39943
1.71558
2.03323
2.32669
2.58101
2.79359
2.96794
3.10804
3.21634
3.29375
3.34036
3.35599
3.34059
3.29435
3.21746
3.10926
2.96681
2.78369
2.55416
2.30223
2.12036
3.13895
3.17114
3.2271
3.28791
3.31887
3.26308
3.09391
2.99084
3.12015
3.36006
3.61554
3.86878
4.11515
4.34373
4.53422
4.63785
4.2486
1.16766
1.01749
1.27141
1.56586
1.87141
2.16326
2.4227
2.64209
2.82198
2.96568
3.07598
3.15437
3.20139
3.21714
3.20165
3.15502
3.07714
2.96681
2.82047
2.6313
2.39444
2.13553
1.948
2.99009
3.01562
3.05916
3.10321
3.11239
3.02339
2.81243
2.70064
2.86075
3.14537
3.44156
3.72561
3.99431
4.24091
4.45292
4.60587
4.57696
2.81129
0.935991
1.12822
1.39153
1.67626
1.9591
2.21994
2.44601
2.63323
2.78266
2.89671
2.97728
3.02538
3.04145
3.02567
2.97798
2.89791
2.78369
2.6313
2.43441
2.1905
1.92706
1.73576
2.94472
2.96045
2.98745
3.0127
3.00257
2.8838
2.61105
2.44553
2.61183
2.9328
3.26383
3.57167
3.85584
4.11522
4.344
4.52988
4.63423
4.30183
1.29649
0.986155
1.20137
1.45534
1.71907
1.97338
2.20237
2.39664
2.5532
2.67272
2.75681
2.80682
2.82349
2.80714
2.75758
2.67395
2.55416
2.39444
2.1905
1.94385
1.68254
1.49176
2.95491
2.96338
2.97868
2.99214
2.97316
2.83863
2.50106
2.25367
2.4108
2.75794
3.11428
3.43683
3.7285
3.99367
4.23143
4.43555
4.58968
4.61957
3.62829
0.942741
1.01158
1.22828
1.46864
1.71101
1.93845
2.13765
2.30122
2.42696
2.51545
2.56794
2.58542
2.56829
2.51627
2.42826
2.30223
2.13553
1.92706
1.68254
1.428
1.23901
2.97108
2.97655
2.98717
2.99666
2.97676
2.83945
2.46198
2.15108
2.29927
2.66061
3.03008
3.35898
3.65264
3.9188
4.15909
4.36989
4.54093
4.642
4.46265
1.85945
0.866753
1.05555
1.28318
1.51939
1.74666
1.94996
2.11926
2.25029
2.34263
2.39737
2.41559
2.39775
2.34351
2.25166
2.12036
1.948
1.73576
1.49176
1.23901
1.04546
