# vtk DataFile Version 3.0
Brusselator Concentration Output
ASCII
DATASET STRUCTURED_POINTS
DIMENSIONS 40 40 1
ORIGIN 0.0 0.0 0.0
SPACING 0.005 0.005 1.0
POINT_DATA 1600
SCALARS C1 double 1
LOOKUP_TABLE default
0.374483
0.388299
0.41185
0.438567
0.466396
0.496544
0.529811
0.565189
0.599053
0.624699
0.634437
0.624689
0.598997
0.564998
0.529348
0.495739
0.46569
0.439686
0.417869
0.400557
0.388849
0.385758
0.398759
0.445388
0.5625
0.807143
1.20506
1.58209
1.44035
1.13424
1.01065
0.982745
0.98399
0.990673
0.995847
0.998579
0.999675
0.999998
1.00005
1.00004
0.388299
0.404237
0.432666
0.467357
0.50661
0.553947
0.615675
0.698614
0.799391
0.890554
0.928294
0.890514
0.799219
0.698173
0.614844
0.552779
0.505841
0.469156
0.440185
0.417796
0.402122
0.395237
0.403099
0.440012
0.536219
0.740013
1.07852
1.43396
1.43555
1.17813
1.03345
0.990836
0.986108
0.990811
0.995556
0.998338
0.999551
0.999947
1.00003
1.00003
0.41185
0.432666
0.47226
0.526533
0.600176
0.720036
0.957768
1.4038
2.01693
2.5497
2.74399
2.54944
2.01594
1.40169
0.954886
0.717376
0.59903
0.529584
0.482564
0.448831
0.425029
0.410933
0.409818
0.431081
0.495535
0.639503
0.896305
1.22167
1.38977
1.24413
1.07628
1.00696
0.990535
0.99128
0.995109
0.997933
0.99934
0.999865
1
1.00002
0.438567
0.467357
0.526533
0.623651
0.813965
1.33948
2.63915
3.62193
3.52608
3.35074
3.28772
3.3507
3.52602
3.62081
2.62791
1.32918
0.810986
0.628616
0.540792
0.48701
0.450953
0.427382
0.416078
0.421858
0.457795
0.55042
0.737072
1.02539
1.29559
1.29817
1.13185
1.03047
0.997511
0.992411
0.994763
0.997522
0.999136
0.999808
1.00001
1.00004
0.466396
0.50661
0.600176
0.813965
1.54745
3.39953
3.46641
3.06819
2.79212
2.63078
2.5778
2.63075
2.79216
3.06872
3.46878
3.38718
1.53564
0.822502
0.620543
0.530733
0.477712
0.44344
0.422803
0.416822
0.43341
0.49204
0.628085
0.874494
1.18104
1.31631
1.18891
1.05953
1.00711
0.994577
0.99486
0.997365
0.999127
0.999921
1.00016
1.0002
0.496544
0.553947
0.720036
1.33948
3.39953
3.3559
2.86682
2.4982
2.24901
2.10566
2.05889
2.10564
2.24908
2.49876
2.86912
3.363
3.39069
1.35833
0.751707
0.584503
0.506791
0.460369
0.431333
0.416854
0.421193
0.458708
0.560075
0.767012
1.07237
1.298
1.23629
1.09108
1.01894
0.997981
0.995717
0.99777
0.999603
1.00048
1.00074
1.00077
0.529811
0.615675
0.957768
2.63915
3.46641
2.86682
2.40438
2.07181
1.84919
1.72152
1.67994
1.72151
1.84927
2.07236
2.40656
2.87314
3.47922
2.68192
1.01446
0.656283
0.539253
0.478384
0.441297
0.420238
0.416444
0.440514
0.518368
0.692711
0.981198
1.25691
1.26656
1.12059
1.03143
1.00206
0.997156
0.998778
1.00077
1.00183
1.00218
1.00224
0.565189
0.698614
1.4038
3.62193
3.06819
2.4982
2.07181
1.76794
1.56536
1.44961
1.41199
1.4496
1.56545
1.76848
2.07386
2.50405
3.08151
3.63669
1.51397
0.754975
0.574214
0.496272
0.451373
0.424953
0.415456
0.430674
0.492589
0.641875
0.909151
1.20617
1.27553
1.14092
1.04015
1.00398
0.99722
0.999099
1.00195
1.00383
1.00475
1.00509
0.599053
0.799391
2.01693
3.52608
2.79212
2.24901
1.84919
1.56536
1.37698
1.26985
1.23515
1.26985
1.37707
1.5659
1.85117
2.25451
2.80393
3.52959
2.2013
0.877509
0.608101
0.511902
0.460022
0.429392
0.415897
0.425234
0.476349
0.606967
0.853339
1.15264
1.25952
1.14081
1.03586
0.996586
0.990112
0.994113
0.999715
1.00423
1.00717
1.0086
0.624699
0.890554
2.5497
3.35074
2.63078
2.10566
1.72152
1.44961
1.26985
1.16805
1.13517
1.16805
1.26994
1.45014
1.72345
2.11095
2.64164
3.35605
2.76632
0.989849
0.634041
0.522741
0.465826
0.432376
0.416307
0.421866
0.465768
0.582823
0.810626
1.09971
1.21617
1.10789
1.00618
0.969041
0.965943
0.974715
0.98597
0.996157
1.00374
1.0078
0.634437
0.928294
2.74399
3.28772
2.5778
2.05889
1.67994
1.41199
1.23515
1.13517
1.10292
1.13518
1.23524
1.41252
1.68185
2.06411
2.58837
3.29417
2.95813
1.03654
0.643926
0.526575
0.46772
0.433102
0.415799
0.41931
0.459019
0.567715
0.782357
1.05438
1.14998
1.03926
0.945897
0.915209
0.917257
0.931837
0.95013
0.967897
0.98208
0.990015
0.624689
0.890514
2.54944
3.3507
2.63075
2.10564
1.72151
1.4496
1.26985
1.16805
1.13518
1.16805
1.26994
1.45013
1.72344
2.11093
2.6416
3.35596
2.76613
0.989755
0.633882
0.522424
0.465208
0.431209
0.414121
0.417622
0.457193
0.56602
0.78012
1.03314
1.07622
0.951195
0.868553
0.845063
0.850261
0.867282
0.888872
0.9107
0.928639
0.938813
0.598997
0.799219
2.01594
3.52602
2.79216
2.24908
1.84927
1.56545
1.37707
1.26994
1.23524
1.26994
1.37716
1.56598
1.85124
2.25457
2.80393
3.52942
2.20014
0.877019
0.60755
0.511019
0.458562
0.427054
0.41222
0.419371
0.467243
0.595418
0.83808
1.06904
1.0242
0.87955
0.806282
0.785812
0.787905
0.799469
0.815116
0.831123
0.843954
0.850974
0.564998
0.698173
1.40169
3.62081
3.06872
2.49876
2.07236
1.76848
1.5659
1.45014
1.41252
1.45013
1.56598
1.76902
2.0744
2.50457
3.08192
3.63548
1.51097
0.75363
0.572845
0.494467
0.449035
0.422361
0.413722
0.433703
0.514253
0.7188
1.06811
1.266
1.08197
0.900061
0.819172
0.784996
0.76809
0.759316
0.75509
0.752571
0.750177
0.748397
0.529348
0.614844
0.954886
2.62791
3.46878
2.86912
2.40656
2.07386
1.85117
1.72345
1.68185
1.72344
1.85124
2.0744
2.4087
2.87532
3.48129
2.66953
1.00986
0.653656
0.536674
0.475711
0.439397
0.421927
0.430254
0.494152
0.693699
1.14794
1.78252
2.04101
1.684
1.36263
1.17728
1.03561
0.913395
0.81743
0.750242
0.706191
0.678306
0.664199
0.495739
0.552779
0.717376
1.32918
3.38718
3.363
2.87314
2.50405
2.25451
2.11095
2.06411
2.11093
2.25457
2.50457
2.87532
3.36981
3.37698
1.34566
0.746584
0.580612
0.503388
0.458716
0.435702
0.439752
0.501552
0.708943
1.18754
1.79772
2.3819
2.79468
2.89899
2.83183
2.68701
2.38673
1.88912
1.36467
0.974116
0.757095
0.659717
0.623087
0.46569
0.505841
0.59903
0.810986
1.53564
3.39069
3.47922
3.08151
2.80393
2.64164
2.58837
2.6416
2.80393
3.08192
3.48129
3.37698
1.52142
0.816835
0.616397
0.527234
0.476618
0.450358
0.453395
0.516261
0.714558
1.07617
1.37937
1.7255
2.02083
2.13744
2.13985
2.15446
2.2345
2.39215
2.62444
2.80836
2.28126
1.29497
0.808093
0.66241
0.439686
0.469156
0.529584
0.628616
0.822502
1.35833
2.68192
3.63669
3.52959
3.35605
3.29417
3.35596
3.52942
3.63548
2.66953
1.34566
0.816835
0.630607
0.54138
0.489451
0.462443
0.466094
0.528688
0.699307
0.914835
1.04978
1.24879
1.43259
1.50966
1.496
1.47092
1.48442
1.54975
1.67039
1.85278
2.11295
2.49542
2.90754
1.88308
1.08323
0.417869
0.440185
0.482564
0.540792
0.620543
0.751707
1.01446
1.51397
2.2013
2.76632
2.95813
2.76613
2.20014
1.51097
1.00986
0.746584
0.616397
0.54138
0.494145
0.46927
0.474819
0.53648
0.677291
0.791109
0.84237
0.94465
1.04935
1.09172
1.06736
1.02265
0.999142
1.01117
1.06154
1.15388
1.29661
1.50626
1.81188
2.25228
2.93797
3.28203
0.400557
0.417796
0.448831
0.48701
0.530733
0.584503
0.656283
0.754975
0.877509
0.989849
1.03654
0.989755
0.877019
0.75363
0.653656
0.580612
0.527234
0.489451
0.46927
0.477909
0.540091
0.660948
0.717082
0.721313
0.764909
0.816024
0.830589
0.799941
0.750559
0.71238
0.69729
0.70652
0.740925
0.804675
0.906695
1.06296
1.30009
1.65802
2.17245
2.72559
0.388849
0.402122
0.425029
0.450953
0.477712
0.506791
0.539253
0.574214
0.608101
0.634041
0.643926
0.633882
0.60755
0.572845
0.536674
0.503388
0.476618
0.462443
0.474819
0.540091
0.655171
0.683545
0.659486
0.667948
0.684572
0.679039
0.644742
0.597795
0.558364
0.534767
0.526624
0.532533
0.553228
0.592473
0.658197
0.764882
0.936939
1.20792
1.5908
1.96593
0.385758
0.395237
0.410933
0.427382
0.44344
0.460369
0.478384
0.496272
0.511902
0.522741
0.526575
0.522424
0.511019
0.494467
0.475711
0.458716
0.450358
0.466094
0.53648
0.660948
0.683545
0.640651
0.626026
0.619343
0.598583
0.560644
0.516875
0.48072
0.457192
0.444716
0.440708
0.443984
0.455198
0.477145
0.515778
0.582501
0.69765
0.889184
1.16067
1.41108
0.398759
0.403099
0.409818
0.416078
0.422803
0.431333
0.441297
0.451373
0.460022
0.465826
0.46772
0.465208
0.458562
0.449035
0.439397
0.435702
0.453395
0.528688
0.677291
0.717082
0.659486
0.626026
0.599772
0.564183
0.519908
0.476535
0.443103
0.421755
0.409792
0.403956
0.402178
0.403729
0.409121
0.420291
0.441363
0.48044
0.552502
0.678391
0.858825
1.01961
0.445388
0.440012
0.431081
0.421858
0.416822
0.416854
0.420238
0.424953
0.429392
0.432376
0.433102
0.431209
0.427054
0.422361
0.421927
0.439752
0.516261
0.699307
0.791109
0.721313
0.667948
0.619343
0.564183
0.507823
0.459904
0.426301
0.406331
0.395874
0.390961
0.388945
0.388403
0.388873
0.390753
0.395424
0.405759
0.427324
0.470331
0.54852
0.660869
0.758241
0.5625
0.536219
0.495535
0.457795
0.43341
0.421193
0.416444
0.415456
0.415897
0.416307
0.415799
0.414121
0.41222
0.413722
0.430254
0.501552
0.714558
0.914835
0.84237
0.764909
0.684572
0.598583
0.519908
0.459904
0.421534
0.400632
0.390948
0.387452
0.386864
0.387213
0.387436
0.387188
0.386808
0.387387
0.391062
0.40175
0.426244
0.472861
0.539337
0.595166
0.807143
0.740013
0.639503
0.55042
0.49204
0.458708
0.440514
0.430674
0.425234
0.421866
0.41931
0.417622
0.419371
0.433703
0.494152
0.708943
1.07617
1.04978
0.94465
0.816024
0.679039
0.560644
0.476535
0.426301
0.400632
0.389799
0.386987
0.388021
0.390347
0.392362
0.393134
0.392353
0.390343
0.38809
0.387361
0.391092
0.403882
0.430531
0.468274
0.498888
1.20506
1.07852
0.896305
0.737072
0.628085
0.560075
0.518368
0.492589
0.476349
0.465768
0.459019
0.457193
0.467243
0.514253
0.693699
1.18754
1.37937
1.24879
1.04935
0.830589
0.644742
0.516875
0.443103
0.406331
0.390948
0.386987
0.388772
0.392995
0.397521
0.400867
0.40209
0.400864
0.397538
0.393112
0.389222
0.388263
0.393505
0.407665
0.428025
0.444002
1.58209
1.43396
1.22167
1.02539
0.874494
0.767012
0.692711
0.641875
0.606967
0.582823
0.567715
0.56602
0.595418
0.7188
1.14794
1.79772
1.7255
1.43259
1.09172
0.799941
0.597795
0.48072
0.421755
0.395874
0.387452
0.388021
0.392995
0.399612
0.405914
0.41039
0.412006
0.41039
0.40594
0.39975
0.393462
0.389207
0.389481
0.395825
0.405807
0.413446
1.44035
1.43555
1.38977
1.29559
1.18104
1.07237
0.981198
0.909151
0.853339
0.810626
0.782357
0.78012
0.83808
1.06811
1.78252
2.3819
2.02083
1.50966
1.06736
0.750559
0.558364
0.457192
0.409792
0.390961
0.386864
0.390347
0.397521
0.405914
0.413613
0.419012
0.420955
0.419014
0.413643
0.406062
0.397991
0.391451
0.388506
0.390067
0.394003
0.396996
1.13424
1.17813
1.24413
1.29817
1.31631
1.298
1.25691
1.20617
1.15264
1.09971
1.05438
1.03314
1.06904
1.266
2.04101
2.79468
2.13744
1.496
1.02265
0.71238
0.534767
0.444716
0.403956
0.388945
0.387213
0.392362
0.400867
0.41039
0.419012
0.425038
0.427205
0.425041
0.419046
0.410544
0.401336
0.393413
0.388626
0.387573
0.388335
0.388973
1.01065
1.03345
1.07628
1.13185
1.18891
1.23629
1.26656
1.27553
1.25952
1.21617
1.14998
1.07622
1.0242
1.08197
1.684
2.89899
2.13985
1.47092
0.999142
0.69729
0.526624
0.440708
0.402178
0.388403
0.387436
0.393134
0.40209
0.412006
0.420955
0.427205
0.429453
0.427208
0.420989
0.412162
0.402559
0.394168
0.388774
0.386883
0.386652
0.386566
0.982745
0.990836
1.00696
1.03047
1.05953
1.09108
1.12059
1.14092
1.14081
1.10789
1.03926
0.951195
0.87955
0.900061
1.36263
2.83183
2.15446
1.48442
1.01117
0.70652
0.532533
0.443984
0.403729
0.388873
0.387188
0.392353
0.400864
0.41039
0.419014
0.425041
0.427208
0.425043
0.419047
0.410543
0.401333
0.393405
0.388609
0.387544
0.388291
0.388918
0.98399
0.986108
0.990535
0.997511
1.00711
1.01894
1.03143
1.04015
1.03586
1.00618
0.945897
0.868553
0.806282
0.819172
1.17728
2.68701
2.2345
1.54975
1.06154
0.740925
0.553228
0.455198
0.409121
0.390753
0.386808
0.390343
0.397538
0.40594
0.413643
0.419046
0.420989
0.419047
0.413673
0.406087
0.398007
0.391454
0.38849
0.390017
0.393909
0.396868
0.990673
0.990811
0.99128
0.992411
0.994577
0.997981
1.00206
1.00398
0.996586
0.969041
0.915209
0.845063
0.785812
0.784996
1.03561
2.38673
2.39215
1.67039
1.15388
0.804675
0.592473
0.477145
0.420291
0.395424
0.387387
0.38809
0.393112
0.39975
0.406062
0.410544
0.412162
0.410543
0.406087
0.399887
0.393587
0.389316
0.38956
0.395846
0.405739
0.413301
0.995847
0.995556
0.995109
0.994763
0.99486
0.995717
0.997156
0.99722
0.990112
0.965943
0.917257
0.850261
0.787905
0.76809
0.913395
1.88912
2.62444
1.85278
1.29661
0.906695
0.658197
0.515778
0.441363
0.405759
0.391062
0.387361
0.389222
0.393462
0.397991
0.401336
0.402559
0.401333
0.398007
0.393587
0.389712
0.388779
0.394049
0.408206
0.428495
0.444385
0.998579
0.998338
0.997933
0.997522
0.997365
0.99777
0.998778
0.999099
0.994113
0.974715
0.931837
0.867282
0.799469
0.759316
0.81743
1.36467
2.80836
2.11295
1.50626
1.06296
0.764882
0.582501
0.48044
0.427324
0.40175
0.391092
0.388263
0.389207
0.391451
0.393413
0.394168
0.393405
0.391454
0.389316
0.388779
0.39281
0.406029
0.433205
0.471431
0.502345
0.999675
0.999551
0.99934
0.999136
0.999127
0.999603
1.00077
1.00195
0.999715
0.98597
0.95013
0.888872
0.815116
0.75509
0.750242
0.974116
2.28126
2.49542
1.81188
1.30009
0.936939
0.69765
0.552502
0.470331
0.426244
0.403882
0.393505
0.389481
0.388506
0.388626
0.388774
0.388609
0.38849
0.38956
0.394049
0.406029
0.432506
0.481955
0.551806
0.610367
0.999998
0.999947
0.999865
0.999808
0.999921
1.00048
1.00183
1.00383
1.00423
0.996157
0.967897
0.9107
0.831123
0.752571
0.706191
0.757095
1.29497
2.90754
2.25228
1.65802
1.20792
0.889184
0.678391
0.54852
0.472861
0.430531
0.407665
0.395825
0.390067
0.387573
0.386883
0.387544
0.390017
0.395846
0.408206
0.433205
0.481955
0.569395
0.694673
0.804203
1.00005
1.00003
1
1.00001
1.00016
1.00074
1.00218
1.00475
1.00717
1.00374
0.98208
0.928639
0.843954
0.750177
0.678306
0.659717
0.808093
1.88308
2.93797
2.17245
1.5908
1.16067
0.858825
0.660869
0.539337
0.468274
0.428025
0.405807
0.394003
0.388335
0.386652
0.388291
0.393909
0.405739
0.428495
0.471431
0.551806
0.694673
0.904472
1.09738
1.00004
1.00003
1.00002
1.00004
1.0002
1.00077
1.00224
1.00509
1.0086
1.0078
0.990015
0.938813
0.850974
0.748397
0.664199
0.623087
0.66241
1.08323
3.28203
2.72559
1.96593
1.41108
1.01961
0.758241
0.595166
0.498888
0.444002
0.413446
0.396996
0.388973
0.386566
0.388918
0.396868
0.413301
0.444385
0.502345
0.610367
0.804203
1.09738
1.38
SCALARS C2 double 1
LOOKUP_TABLE default
3.76275
3.92347
4.1424
4.31896
4.44546
4.53792
4.60314
4.64374
4.66385
4.67058
4.67166
4.67058
4.66387
4.64374
4.6029
4.53683
4.4437
4.32346
4.17697
4.00544
3.80985
3.59033
3.34468
3.06596
2.74144
2.37006
2.03182
2.01436
2.56154
2.96063
3.05444
3.04999
3.02914
3.01314
3.00458
3.00106
3
2.99983
2.99988
2.99993
3.92347
4.07304
4.27886
4.4449
4.55774
4.62972
4.66432
4.65973
4.61964
4.56715
4.54238
4.56717
4.61975
4.65997
4.66452
4.62933
4.55698
4.45061
4.31315
4.14714
3.95456
3.73644
3.49185
3.21601
2.89927
2.54004
2.20003
2.09491
2.46982
2.88582
3.02791
3.04349
3.02889
3.01417
3.00541
3.0015
3.00018
2.99989
2.99991
2.99994
4.1424
4.27886
4.46141
4.59567
4.66266
4.6558
4.52311
4.14373
3.48083
2.83633
2.58775
2.8366
3.48191
4.14589
4.52561
4.65758
4.66329
4.60036
4.48994
4.34184
4.16163
3.95256
3.7157
3.44909
3.1468
2.80494
2.45546
2.23241
2.36588
2.75339
2.97429
3.02946
3.02772
3.01583
3.00687
3.00228
3.0005
3.00001
2.99995
2.99997
4.31896
4.4449
4.59567
4.669
4.60992
4.20566
2.78038
1.26527
0.941341
0.907855
0.90819
0.90789
0.94157
1.26791
2.79498
4.21669
4.613
4.67
4.61363
4.49613
4.33569
4.1409
3.91594
3.66169
3.37514
3.05078
2.69723
2.38898
2.31817
2.60278
2.89631
3.0067
3.02455
3.01739
3.00855
3.0032
3.00086
3.00011
2.99998
2.99999
4.44546
4.55774
4.66266
4.60992
4.00992
1.75803
0.923789
0.933591
0.995944
1.04253
1.05923
1.04255
0.995952
0.933579
0.924616
1.78113
4.0236
4.6048
4.66758
4.59658
4.46038
4.28051
4.06636
3.82187
3.54674
3.23625
2.88805
2.5386
2.333
2.47791
2.80319
2.97491
3.01822
3.01792
3.00983
3.00388
3.00102
3.00005
2.99986
2.99988
4.53792
4.62972
4.6558
4.20566
1.75803
0.908893
0.976538
1.08506
1.17791
1.23899
1.26023
1.239
1.1779
1.08491
0.976042
0.908657
1.77905
4.18654
4.64204
4.65398
4.54954
4.38572
4.18118
3.94382
3.67596
3.37477
3.0346
2.67045
2.38573
2.40016
2.70886
2.93557
3.00793
3.01641
3.00985
3.00363
3.00042
2.99935
2.99922
2.9993
4.60314
4.66432
4.52311
2.78038
0.923789
0.976538
1.11803
1.25423
1.36425
1.43543
1.46004
1.43544
1.36422
1.25402
1.1173
0.974904
0.922953
2.72967
4.47504
4.67013
4.61099
4.46584
4.2709
4.03943
3.77647
3.48122
3.14796
2.78085
2.45257
2.3663
2.62692
2.89258
2.99399
3.01232
3.00787
3.00164
2.99823
2.99717
2.99718
2.99738
4.64374
4.65973
4.14373
1.26527
0.933591
1.08506
1.25423
1.40881
1.53179
1.61065
1.63778
1.61066
1.53176
1.40857
1.25338
1.08308
0.930278
1.23924
4.02552
4.64159
4.64814
4.52429
4.33905
4.11283
3.85348
3.56209
3.23398
2.86874
2.51886
2.36459
2.56903
2.8543
2.98006
3.00738
3.00468
2.99804
2.99397
2.99251
2.99239
2.99258
4.66385
4.61964
3.48083
0.941341
0.995944
1.17791
1.36425
1.53179
1.66376
1.74774
1.77651
1.74775
1.66373
1.53152
1.36331
1.17574
0.992236
0.933604
3.26191
4.57232
4.66547
4.5632
4.38677
4.16494
3.90821
3.61934
3.29531
2.93493
2.57909
2.3881
2.54877
2.83768
2.97776
3.00995
3.00649
2.99712
2.99005
2.98609
2.98424
2.98355
4.67058
4.56715
2.83633
0.907855
1.04253
1.23899
1.43543
1.61065
1.74774
1.83451
1.86414
1.83452
1.74771
1.61037
1.43444
1.2367
1.03872
0.903372
2.56242
4.49246
4.67032
4.58502
4.41489
4.19595
3.94078
3.65371
3.33426
2.98311
2.63563
2.43935
2.58543
2.87025
3.01023
3.03925
3.02968
3.01238
2.99677
2.98486
2.97686
2.9728
4.67166
4.54238
2.58775
0.90819
1.05923
1.26023
1.46004
1.63778
1.77651
1.86414
1.89403
1.86415
1.77648
1.63749
1.45904
1.2579
1.0554
0.904156
2.30892
4.45601
4.67073
4.59199
4.42409
4.20596
3.95136
3.66672
3.35524
3.02045
2.69575
2.52755
2.70025
2.98026
3.10458
3.12097
3.09899
3.06733
3.03558
3.00758
2.98628
2.97463
4.67058
4.56717
2.8366
0.90789
1.04255
1.239
1.43544
1.61066
1.74775
1.83452
1.86415
1.83453
1.74772
1.61038
1.43446
1.23671
1.03874
0.903409
2.56254
4.49252
4.67041
4.58506
4.41456
4.19507
3.94112
3.66248
3.36598
3.05544
2.76527
2.66169
2.90429
3.17531
3.27143
3.26964
3.2326
3.18369
3.13153
3.08201
3.04228
3.01991
4.66387
4.61975
3.48191
0.94157
0.995952
1.1779
1.36422
1.53176
1.66373
1.74771
1.77648
1.74772
1.6637
1.53149
1.36329
1.17573
0.992253
0.933822
3.26312
4.57272
4.66579
4.5632
4.3859
4.16405
3.91403
3.64918
3.37535
3.08927
2.83342
2.83458
3.17563
3.42447
3.48927
3.47232
3.42481
3.36335
3.29501
3.22777
3.17289
3.14188
4.64374
4.65997
4.14589
1.26791
0.933579
1.08491
1.25402
1.40857
1.53152
1.61037
1.63749
1.61038
1.53149
1.40832
1.25318
1.08294
0.930294
1.24179
4.02872
4.64273
4.64874
4.52388
4.33784
4.11641
3.87874
3.63644
3.38014
3.07759
2.80274
2.94555
3.40655
3.64219
3.69498
3.6805
3.63868
3.57993
3.51005
3.43893
3.38052
3.34772
4.6029
4.66452
4.52561
2.79498
0.924616
0.976042
1.1173
1.25338
1.36331
1.43444
1.45904
1.43446
1.36329
1.25318
1.11659
0.974441
0.923884
2.74565
4.47956
4.67201
4.61134
4.46465
4.27287
4.06098
3.84538
3.61536
3.28605
2.72223
2.20594
2.40768
3.0749
3.45146
3.61361
3.70502
3.75451
3.76093
3.73113
3.68288
3.63704
3.60992
4.53683
4.62933
4.65758
4.21669
1.78113
0.908657
0.974904
1.08308
1.17574
1.2367
1.2579
1.23671
1.17573
1.08294
0.974441
0.908532
1.80357
4.20036
4.64658
4.65564
4.54877
4.38658
4.1996
4.00766
3.79633
3.42741
2.59708
1.69627
1.27503
1.17888
1.28825
1.48187
1.76431
2.24448
2.90702
3.48715
3.79776
3.89177
3.89601
3.88454
4.4437
4.55698
4.66329
4.613
4.0236
1.77905
0.922953
0.930278
0.992236
1.03872
1.0554
1.03874
0.992253
0.930294
0.923884
1.80357
4.03999
4.61074
4.67067
4.59723
4.46192
4.29811
4.12719
3.92831
3.51718
2.57722
1.8002
1.44186
1.27673
1.2373
1.24775
1.24748
1.2224
1.18441
1.17817
1.40413
2.48487
3.68195
4.05621
4.11824
4.32346
4.45061
4.60036
4.67
4.6048
4.18654
2.72967
1.23924
0.933604
0.903372
0.904156
0.903409
0.933822
1.24179
2.74565
4.20036
4.61074
4.67302
4.61842
4.50409
4.3605
4.2081
4.01888
3.58396
2.67311
2.04219
1.73938
1.59038
1.55954
1.58963
1.61477
1.60616
1.5615
1.48561
1.38505
1.26945
1.17329
1.45407
3.2302
4.07132
4.17697
4.31315
4.48994
4.61363
4.66758
4.64204
4.47504
4.02552
3.26191
2.56242
2.30892
2.56254
3.26312
4.02872
4.47956
4.64658
4.67067
4.61842
4.51756
4.39054
4.25453
4.07538
3.63798
2.79623
2.25988
2.00623
1.88822
1.88064
1.93941
2.00049
2.02741
2.01328
1.96003
1.87051
1.7474
1.59288
1.41066
1.21646
1.0954
1.63591
4.00544
4.14714
4.34184
4.49613
4.59658
4.65398
4.67013
4.64159
4.57232
4.49246
4.45601
4.49252
4.57272
4.64273
4.67201
4.65564
4.59723
4.50409
4.39054
4.26963
4.10257
3.67447
2.89289
2.4185
2.20793
2.12625
2.14973
2.2404
2.33699
2.40048
2.4231
2.40643
2.35206
2.26062
2.13164
1.96276
1.75062
1.49807
1.22808
1.01616
3.80985
3.95456
4.16163
4.33569
4.46038
4.54954
4.61099
4.64814
4.66547
4.67032
4.67073
4.67041
4.66579
4.64874
4.61134
4.54877
4.46192
4.3605
4.25453
4.10257
3.68739
2.94384
2.51268
2.33883
2.29226
2.3482
2.4704
2.59877
2.69422
2.75001
2.7686
2.75179
2.70018
2.61344
2.48965
2.32351
2.1057
1.83057
1.52373
1.29112
3.59033
3.73644
3.95256
4.1409
4.28051
4.38572
4.46584
4.52429
4.5632
4.58502
4.59199
4.58506
4.5632
4.52388
4.46465
4.38658
4.29811
4.2081
4.07538
3.67447
2.94384
2.54374
2.40261
2.38868
2.47605
2.62861
2.78636
2.91072
2.99639
3.04656
3.06317
3.04691
2.99804
2.91635
2.80027
2.64426
2.43617
2.16271
1.84732
1.60943
3.34468
3.49185
3.7157
3.91594
4.06636
4.18118
4.2709
4.33905
4.38677
4.41489
4.42409
4.41456
4.3859
4.33784
4.27287
4.1996
4.12719
4.01888
3.63798
2.89289
2.51268
2.40261
2.42019
2.53833
2.72068
2.90706
3.05943
3.17386
3.25416
3.30212
3.3181
3.3022
3.25465
3.17578
3.06493
2.91793
2.72324
2.46433
2.15957
1.92951
3.06596
3.21601
3.44909
3.66169
3.82187
3.94382
4.03943
4.11283
4.16494
4.19595
4.20596
4.19507
4.16405
4.11641
4.06098
4.00766
3.92831
3.58396
2.79623
2.4185
2.33883
2.38868
2.53833
2.7509
2.96622
3.14673
3.28972
3.39974
3.47856
3.52616
3.54211
3.52623
3.47888
3.40077
3.29215
3.15035
2.96583
2.72246
2.43527
2.21942
2.74144
2.89927
3.1468
3.37514
3.54674
3.67596
3.77647
3.85348
3.90821
3.94078
3.95136
3.94112
3.91403
3.87874
3.84538
3.79633
3.51718
2.67311
2.25988
2.20793
2.29226
2.47605
2.72068
2.96622
3.17556
3.34711
3.48646
3.59577
3.67487
3.72286
3.73898
3.72294
3.67518
3.59667
3.48828
3.34853
3.1698
2.93752
2.6653
2.46251
2.37006
2.54004
2.80494
3.05078
3.23625
3.37477
3.48122
3.56209
3.61934
3.65371
3.66672
3.66248
3.64918
3.63644
3.61536
3.42741
2.57722
2.04219
2.00623
2.12625
2.3482
2.62861
2.90706
3.14673
3.34711
3.51529
3.65435
3.76438
3.84431
3.8929
3.90922
3.89297
3.8446
3.76525
3.65612
3.51658
3.3404
3.11447
2.8517
2.65754
2.03182
2.20003
2.45546
2.69723
2.88805
3.0346
3.14796
3.23398
3.29531
3.33426
3.35524
3.36598
3.37535
3.38014
3.28605
2.59708
1.8002
1.73938
1.88822
2.14973
2.4704
2.78636
3.05943
3.28972
3.48646
3.65435
3.79427
3.90534
3.98612
4.03524
4.05173
4.0353
3.98639
3.90617
3.79604
3.65587
3.48039
3.25749
2.99954
2.80992
2.01436
2.09491
2.23241
2.38898
2.5386
2.67045
2.78085
2.86874
2.93493
2.98311
3.02045
3.05544
3.08927
3.07759
2.72223
1.69627
1.44186
1.59038
1.88064
2.2404
2.59877
2.91072
3.17386
3.39974
3.59577
3.76438
3.90534
4.01733
4.09874
4.14819
4.16478
4.14824
4.09897
4.0181
3.90708
3.76608
3.59046
3.3687
3.11265
2.92493
2.56154
2.46982
2.36588
2.31817
2.333
2.38573
2.45257
2.51886
2.57909
2.63563
2.69575
2.76527
2.83342
2.80274
2.20594
1.27503
1.27673
1.55954
1.93941
2.33699
2.69422
2.99639
3.25416
3.47856
3.67487
3.84431
3.98612
4.09874
4.1805
4.23009
4.24671
4.23013
4.18072
4.09947
3.98783
3.84612
3.67009
3.44857
3.19297
3.00575
2.96063
2.88582
2.75339
2.60278
2.47791
2.40016
2.3663
2.36459
2.3881
2.43935
2.52755
2.66169
2.83458
2.94555
2.40768
1.17888
1.2373
1.58963
2.00049
2.40048
2.75001
3.04656
3.30212
3.52616
3.72286
3.8929
4.03524
4.14819
4.23009
4.27969
4.2963
4.27973
4.23029
4.14889
4.03691
3.89476
3.7184
3.49682
3.24113
3.05391
3.05444
3.02791
2.97429
2.89631
2.80319
2.70886
2.62692
2.56903
2.54877
2.58543
2.70025
2.90429
3.17563
3.40655
3.0749
1.28825
1.24775
1.61477
2.02741
2.4231
2.7686
3.06317
3.3181
3.54211
3.73898
3.90922
4.05173
4.16478
4.24671
4.2963
4.31289
4.29633
4.2469
4.16547
4.05339
3.91109
3.73461
3.513
3.25723
3.06995
3.04999
3.04349
3.02946
3.0067
2.97491
2.93557
2.89258
2.8543
2.83768
2.87025
2.98026
3.17531
3.42447
3.64219
3.45146
1.48187
1.24748
1.60616
2.01328
2.40643
2.75179
3.04691
3.3022
3.52623
3.72294
3.89297
4.0353
4.14824
4.23013
4.27973
4.29633
4.27977
4.23033
4.14894
4.03697
3.89483
3.7185
3.49695
3.24129
3.05407
3.02914
3.02889
3.02772
3.02455
3.01822
3.00793
2.99399
2.98006
2.97776
3.01023
3.10458
3.27143
3.48927
3.69498
3.61361
1.76431
1.2224
1.5615
1.96003
2.35206
2.70018
2.99804
3.25465
3.47888
3.67518
3.8446
3.98639
4.09897
4.18072
4.23029
4.2469
4.23033
4.18093
4.09971
3.98809
3.84643
3.67047
3.44903
3.19346
3.00625
3.01314
3.01417
3.01583
3.01739
3.01792
3.01641
3.01232
3.00738
3.00995
3.03925
3.12097
3.26964
3.47232
3.6805
3.70502
2.24448
1.18441
1.48561
1.87051
2.26062
2.61344
2.91635
3.17578
3.40077
3.59667
3.76525
3.90617
4.0181
4.09947
4.14889
4.16547
4.14894
4.09971
4.01888
3.90793
3.76702
3.59151
3.36984
3.11383
2.9261
3.00458
3.00541
3.00687
3.00855
3.00983
3.00985
3.00787
3.00468
3.00649
3.02968
3.09899
3.2326
3.42481
3.63868
3.75451
2.90702
1.17817
1.38505
1.7474
2.13164
2.48965
2.80027
3.06493
3.29215
3.48828
3.65612
3.79604
3.90708
3.98783
4.03691
4.05339
4.03697
3.98809
3.90793
3.79787
3.65779
3.48237
3.25943
3.0014
2.81179
3.00106
3.0015
3.00228
3.0032
3.00388
3.00363
3.00164
2.99804
2.99712
3.01238
3.06733
3.18369
3.36335
3.57993
3.76093
3.48715
1.40413
1.26945
1.59288
1.96276
2.32351
2.64426
2.91793
3.15035
3.34853
3.51658
3.65587
3.76608
3.84612
3.89476
3.91109
3.89483
3.84643
3.76702
3.65779
3.51804
3.34142
3.11486
2.85173
2.65761
3
3.00018
3.0005
3.00086
3.00102
3.00042
2.99823
2.99397
2.99005
2.99677
3.03558
3.13153
3.29501
3.51005
3.73113
3.79776
2.48487
1.17329
1.41066
1.75062
2.1057
2.43617
2.72324
2.96583
3.1698
3.3404
3.48039
3.59046
3.67009
3.7184
3.73461
3.7185
3.67047
3.59151
3.48237
3.34142
3.16088
2.9266
2.65343
2.45071
2.99983
2.99989
3.00001
3.00011
3.00005
2.99935
2.99717
2.99251
2.98609
2.98486
3.00758
3.08201
3.22777
3.43893
3.68288
3.89177
3.68195
1.45407
1.21646
1.49807
1.83057
2.16271
2.46433
2.72246
2.93752
3.11447
3.25749
3.3687
3.44857
3.49682
3.513
3.49695
3.44903
3.36984
3.25943
3.11486
2.9266
2.67939
2.38981
2.17271
2.99988
2.99991
2.99995
2.99998
2.99986
2.99922
2.99718
2.99239
2.98424
2.97686
2.98628
3.04228
3.17289
3.38052
3.63704
3.89601
4.05621
3.2302
1.0954
1.22808
1.52373
1.84732
2.15957
2.43527
2.6653
2.8517
2.99954
3.11265
3.19297
3.24113
3.25723
3.24129
3.19346
3.11383
3.0014
2.85173
2.65343
2.38981
2.07743
1.83812
2.99993
2.99994
2.99997
2.99999
2.99988
2.9993
2.99738
2.99258
2.98355
2.9728
2.97463
3.01991
3.14188
3.34772
3.60992
3.88454
4.11824
4.07132
1.63591
1.01616
1.29112
1.60943
1.92951
2.21942
2.46251
2.65754
2.80992
2.92493
3.00575
3.05391
3.06995
3.05407
3.00625
2.9261
2.81179
2.65761
2.45071
2.17271
1.83812
1.57691
