# vtk DataFile Version 3.0
Brusselator Concentration Output
ASCII
DATASET STRUCTURED_POINTS
DIMENSIONS 40 40 1
ORIGIN 0.0 0.0 0.0
SPACING 0.005 0.005 1.0
POINT_DATA 1600
SCALARS C1 double 1
LOOKUP_TABLE default
1
1
1.00001
1.00003
1.00008
1.00018
1.00033
1.00052
1.0007
1.00082
1.00086
1.00082
1.0007
1.00052
1.00033
1.00018
1.00008
1.00003
1.00001
1
1
1
1
1
1
1
1
1
1
1
1
1
1
1
1
1
1
1
1
1
1
1.00001
1.00003
1.00009
1.00021
1.00043
1.00075
1.00107
1.00127
1.00133
1.00133
1.00133
1.00127
1.00107
1.00075
1.00043
1.00021
1.00009
1.00003
1.00001
1
1
1
1
1
1
1
1
1
1
1
1
1
1
1
1
1
1
1
1
1.00001
1.00003
1.00009
1.00025
1.00057
1.00109
1.00164
1.00189
1.00159
1.00102
1.00074
1.00102
1.00159
1.00189
1.00164
1.00109
1.00057
1.00025
1.00009
1.00003
1.00001
1
1
1
1
1
1
1
1
1
1
1
1
1
1
1
1
1
1
1
1.00003
1.00009
1.00025
1.00063
1.00132
1.00213
1.00232
1.00091
0.997807
0.994605
0.9933
0.994605
0.997807
1.00091
1.00232
1.00213
1.00132
1.00063
1.00025
1.00008
1.00002
1.00001
1
1
1
1
1
1
1
1
1
1
1
1
1
1
1
1
1
1
1.00008
1.00021
1.00057
1.00132
1.00231
1.00249
0.99954
0.991568
0.980201
0.970609
0.967065
0.970609
0.980201
0.991568
0.99954
1.00249
1.00231
1.00132
1.00057
1.0002
1.00006
1.00002
1
1
1
1
1
1
1
1
1
1
1
1
1
1
1
1
1
1
1.00018
1.00043
1.00109
1.00213
1.00249
0.998812
0.986154
0.963227
0.937104
0.918434
0.912226
0.918434
0.937104
0.963227
0.986154
0.998812
1.00249
1.00213
1.00109
1.00042
1.00014
1.00004
1.00001
1
1
1
1
1
1
1
1
1
1
1
1
1
1
1
1
1
1.00033
1.00075
1.00164
1.00232
0.99954
0.986154
0.95551
0.911565
0.870412
0.846194
0.839448
0.846194
0.870412
0.911565
0.95551
0.986154
0.99954
1.00232
1.00164
1.00073
1.00026
1.00007
1.00002
1
1
1
1
1
1
1
1
1
1
1
1
1
1
1
1
1
1.00052
1.00107
1.00189
1.00091
0.991568
0.963227
0.911565
0.850417
0.803964
0.784621
0.782205
0.784621
0.803964
0.850417
0.911565
0.963226
0.991568
1.00091
1.00188
1.00104
1.0004
1.00012
1.00003
1.00001
1
1
1
1
1
1
1
1
1
1
1
1
1
1
1
1
1.0007
1.00127
1.00159
0.997807
0.980201
0.937104
0.870412
0.803964
0.766324
0.765338
0.774435
0.765338
0.766324
0.803964
0.870412
0.937104
0.980201
0.997805
1.00158
1.00123
1.00053
1.00017
1.00005
1.00001
1
1
1
1
1
1
1
1
1
1
1
1
1
1
1
1
1.00082
1.00133
1.00102
0.994605
0.970609
0.918434
0.846194
0.784621
0.765338
0.793832
0.822272
0.793832
0.765338
0.784621
0.846194
0.918434
0.970608
0.994602
1.001
1.00127
1.00061
1.00021
1.00006
1.00001
1
1
1
1
1
1
1
1
1
1
1
1
1
1
1
1
1.00086
1.00133
1.00074
0.9933
0.967065
0.912226
0.839448
0.782205
0.774435
0.822272
0.86406
0.822272
0.774435
0.782205
0.839448
0.912226
0.967064
0.993297
1.00072
1.00127
1.00063
1.00022
1.00006
1.00002
1
1
1
1
1
1
1
1
1
1
1
1
1
1
1
1
1.00082
1.00133
1.00102
0.994605
0.970609
0.918434
0.846194
0.784621
0.765338
0.793832
0.822272
0.793832
0.765338
0.784621
0.846194
0.918434
0.970608
0.994602
1.001
1.00127
1.00061
1.00021
1.00006
1.00001
1
1
1
1
1
1
1
1
1
1
1
1
1
1
1
1
1.0007
1.00127
1.00159
0.997807
0.980201
0.937104
0.870412
0.803964
0.766324
0.765338
0.774435
0.765338
0.766324
0.803964
0.870412
0.937104
0.980201
0.997805
1.00158
1.00123
1.00053
1.00017
1.00005
1.00001
1
1
1
1
1
1
1
1
1
1
1
1
1
1
1
1
1.00052
1.00107
1.00189
1.00091
0.991568
0.963227
0.911565
0.850417
0.803964
0.784621
0.782205
0.784621
0.803964
0.850417
0.911565
0.963226
0.991568
1.00091
1.00188
1.00104
1.0004
1.00012
1.00003
1.00001
1
1
1
1
1
1
1
1
1
1
1
1
1
1
1
1
1.00033
1.00075
1.00164
1.00232
0.99954
0.986154
0.95551
0.911565
0.870412
0.846194
0.839448
0.846194
0.870412
0.911565
0.95551
0.986154
0.99954
1.00232
1.00164
1.00073
1.00026
1.00007
1.00002
1
1
1
1
1
1
1
1
1
1
1
1
1
1
1
1
1
1.00018
1.00043
1.00109
1.00213
1.00249
0.998812
0.986154
0.963226
0.937104
0.918434
0.912226
0.918434
0.937104
0.963226
0.986154
0.998812
1.00249
1.00213
1.00109
1.00042
1.00014
1.00004
1.00001
1
1
1
1
1
1
1
1
1
1
1
1
1
1
1
1
1
1.00008
1.00021
1.00057
1.00132
1.00231
1.00249
0.99954
0.991568
0.980201
0.970608
0.967064
0.970608
0.980201
0.991568
0.99954
1.00249
1.00231
1.00132
1.00057
1.0002
1.00006
1.00002
1
1
1
1
1
1
0.999999
0.999999
0.999999
0.999999
0.999999
1
1
1
1
1
1
1
1.00003
1.00009
1.00025
1.00063
1.00132
1.00213
1.00232
1.00091
0.997805
0.994602
0.993297
0.994602
0.997805
1.00091
1.00232
1.00213
1.00132
1.00063
1.00025
1.00008
1.00002
1.00001
1
1
1
0.999999
0.999999
0.999998
0.999997
0.999996
0.999995
0.999996
0.999997
0.999998
0.999999
0.999999
1
1
1
1
1.00001
1.00003
1.00009
1.00025
1.00057
1.00109
1.00164
1.00188
1.00158
1.001
1.00072
1.001
1.00158
1.00188
1.00164
1.00109
1.00057
1.00025
1.00009
1.00003
1.00001
1
1
1
0.999999
0.999997
0.999994
0.99999
0.999986
0.999982
0.999981
0.999982
0.999986
0.99999
0.999994
0.999997
0.999999
1
1
1
1
1.00001
1.00003
1.00008
1.0002
1.00042
1.00073
1.00104
1.00123
1.00127
1.00127
1.00127
1.00123
1.00104
1.00073
1.00042
1.0002
1.00008
1.00003
1.00001
1
1
1
0.999998
0.999995
0.999989
0.999978
0.999963
0.999947
0.999935
0.99993
0.999935
0.999947
0.999963
0.999978
0.999989
0.999995
0.999998
0.999999
1
1
1
1.00001
1.00002
1.00006
1.00014
1.00026
1.0004
1.00053
1.00061
1.00063
1.00061
1.00053
1.0004
1.00026
1.00014
1.00006
1.00002
1.00001
1
1
0.999999
0.999998
0.999993
0.999982
0.999959
0.999923
0.999876
0.99983
0.999799
0.999788
0.999799
0.99983
0.999876
0.999923
0.999959
0.999982
0.999993
0.999998
0.999999
1
1
1
1.00001
1.00002
1.00004
1.00007
1.00012
1.00017
1.00021
1.00022
1.00021
1.00017
1.00012
1.00007
1.00004
1.00002
1.00001
1
1
0.999999
0.999997
0.999991
0.999976
0.999939
0.999871
0.999769
0.999653
0.999562
0.999517
0.999506
0.999517
0.999562
0.999653
0.999769
0.999871
0.999939
0.999975
0.999991
0.999997
1
1
1
1
1
1.00001
1.00002
1.00003
1.00005
1.00006
1.00006
1.00006
1.00005
1.00003
1.00002
1.00001
1
1
1
1
0.999998
0.999991
0.999973
0.999926
0.999825
0.999653
0.999433
0.999254
0.999214
0.999294
0.999349
0.999294
0.999214
0.999254
0.999433
0.999653
0.999825
0.999926
0.999972
0.999989
1
1
1
1
1
1
1
1.00001
1.00001
1.00001
1.00002
1.00001
1.00001
1.00001
1
1
1
1
1
0.999998
0.999993
0.999976
0.999926
0.999807
0.999576
0.999243
0.998969
0.999068
0.999728
1.00061
1.00102
1.00061
0.999728
0.999068
0.998969
0.999243
0.999576
0.999806
0.999924
0.999968
1
1
1
1
1
1
1
1
1
1
1
1
1
1
1
1
1
1
0.999999
0.999995
0.999982
0.999939
0.999825
0.999576
0.999168
0.998804
0.999127
1.00104
1.00469
1.00846
1.01
1.00846
1.00469
1.00104
0.999127
0.998804
0.999167
0.999574
0.999821
0.999921
1
1
1
1
1
1
1
1
1
1
1
1
1
1
1
1
1
0.999999
0.999997
0.999989
0.999959
0.999871
0.999653
0.999243
0.998804
0.999194
1.00234
1.01031
1.02236
1.03304
1.03693
1.03304
1.02236
1.01031
1.00234
0.999194
0.998803
0.99924
0.999642
0.999831
1
1
1
1
1
1
1
1
1
1
1
1
1
1
1
1
1
0.999999
0.999994
0.999978
0.999923
0.999769
0.999433
0.998969
0.999127
1.00234
1.01308
1.03478
1.0622
1.08129
1.08652
1.08129
1.0622
1.03478
1.01308
1.00234
0.999125
0.998964
0.999411
0.999692
1
1
1
1
1
1
1
1
1
1
1
1
1
1
1
1
1
0.999998
0.99999
0.999963
0.999876
0.999653
0.999254
0.999068
1.00104
1.01031
1.03478
1.07604
1.11408
1.12456
1.12182
1.12456
1.11408
1.07604
1.03478
1.01031
1.00104
0.999059
0.999216
0.999529
1
1
1
1
1
1
1
1
1
1
1
1
1
1
1
1
0.999999
0.999997
0.999986
0.999947
0.99983
0.999562
0.999214
0.999728
1.00469
1.02236
1.0622
1.11408
1.13141
1.09908
1.07725
1.09908
1.13141
1.11408
1.0622
1.02236
1.00469
0.999714
0.99916
0.999392
1
1
1
1
1
1
1
1
1
1
1
1
1
1
1
1
0.999999
0.999996
0.999982
0.999935
0.999799
0.999517
0.999294
1.00061
1.00846
1.03304
1.08129
1.12456
1.09908
1.02233
0.985987
1.02233
1.09908
1.12456
1.08129
1.03304
1.00845
1.00059
0.999229
0.999315
1
1
1
1
1
1
1
1
1
1
1
1
1
1
1
1
0.999999
0.999995
0.999981
0.99993
0.999788
0.999506
0.999349
1.00102
1.01
1.03693
1.08652
1.12182
1.07725
0.985987
0.945849
0.985987
1.07725
1.12182
1.08652
1.03693
1.00999
1.001
0.999279
0.999294
1
1
1
1
1
1
1
1
1
1
1
1
1
1
1
1
0.999999
0.999996
0.999982
0.999935
0.999799
0.999517
0.999294
1.00061
1.00846
1.03304
1.08129
1.12456
1.09908
1.02233
0.985987
1.02233
1.09908
1.12456
1.08129
1.03304
1.00845
1.00059
0.999229
0.999315
1
1
1
1
1
1
1
1
1
1
1
1
1
1
1
1
0.999999
0.999997
0.999986
0.999947
0.99983
0.999562
0.999214
0.999728
1.00469
1.02236
1.0622
1.11408
1.13141
1.09908
1.07725
1.09908
1.13141
1.11408
1.0622
1.02236
1.00469
0.999714
0.99916
0.999392
1
1
1
1
1
1
1
1
1
1
1
1
1
1
1
1
1
0.999998
0.99999
0.999963
0.999876
0.999653
0.999254
0.999068
1.00104
1.01031
1.03478
1.07604
1.11408
1.12456
1.12182
1.12456
1.11408
1.07604
1.03478
1.01031
1.00104
0.999059
0.999216
0.999529
1
1
1
1
1
1
1
1
1
1
1
1
1
1
1
1
1
0.999999
0.999994
0.999978
0.999923
0.999769
0.999433
0.998969
0.999127
1.00234
1.01308
1.03478
1.0622
1.08129
1.08652
1.08129
1.0622
1.03478
1.01308
1.00234
0.999125
0.998964
0.999411
0.999692
1
1
1
1
1
1
1
1
1
1
1
1
1
1
1
1
1
0.999999
0.999997
0.999989
0.999959
0.999871
0.999653
0.999243
0.998804
0.999194
1.00234
1.01031
1.02236
1.03304
1.03693
1.03304
1.02236
1.01031
1.00234
0.999194
0.998803
0.99924
0.999642
0.999831
1
1
1
1
1
1
1
1
1
1
1
1
1
1
1
1
1
1
0.999999
0.999995
0.999982
0.999939
0.999825
0.999576
0.999167
0.998803
0.999125
1.00104
1.00469
1.00845
1.00999
1.00845
1.00469
1.00104
0.999125
0.998803
0.999167
0.999574
0.999821
0.999921
1
1
1
1
1
1
1
1
1
1
1
1
1
1
1
1
1
1
1
0.999998
0.999993
0.999975
0.999926
0.999806
0.999574
0.99924
0.998964
0.999059
0.999714
1.00059
1.001
1.00059
0.999714
0.999059
0.998964
0.99924
0.999574
0.999806
0.999924
0.999968
1
1
1
1
1
1
1
1
1
1
1
1
1
1
1
1
1
1
1
0.999999
0.999998
0.999991
0.999972
0.999924
0.999821
0.999642
0.999411
0.999216
0.99916
0.999229
0.999279
0.999229
0.99916
0.999216
0.999411
0.999642
0.999821
0.999924
0.999972
0.999989
1
1
1
1
1
1
1
1
1
1
1
1
1
1
1
1
1
1
1
1
0.999999
0.999997
0.999989
0.999968
0.999921
0.999831
0.999692
0.999529
0.999392
0.999315
0.999294
0.999315
0.999392
0.999529
0.999692
0.999831
0.999921
0.999968
0.999989
0.999996
SCALARS C2 double 1
LOOKUP_TABLE default
3
3
2.99999
2.99997
2.99992
2.99981
2.99962
2.99935
2.99906
2.99884
2.99876
2.99884
2.99906
2.99935
2.99962
2.99981
2.99992
2.99997
2.99999
3
3
3
3
3
3
3
3
3
3
3
3
3
3
3
3
3
3
3
3
3
3
2.99999
2.99997
2.99991
2.99977
2.99948
2.999
2.99838
2.99782
2.99748
2.99737
2.99748
2.99782
2.99838
2.999
2.99948
2.99977
2.99991
2.99997
2.99999
3
3
3
3
3
3
3
3
3
3
3
3
3
3
3
3
3
3
3
3
2.99999
2.99997
2.99991
2.99972
2.99929
2.99848
2.99729
2.99606
2.99531
2.99519
2.99524
2.99519
2.99531
2.99606
2.99729
2.99848
2.99929
2.99972
2.99991
2.99997
2.99999
3
3
3
3
3
3
3
3
3
3
3
3
3
3
3
3
3
3
3
2.99997
2.99991
2.99972
2.99922
2.99812
2.99628
2.99418
2.99317
2.99436
2.99683
2.99806
2.99683
2.99436
2.99317
2.99418
2.99628
2.99812
2.99922
2.99972
2.99992
2.99998
2.99999
3
3
3
3
3
3
3
3
3
3
3
3
3
3
3
3
3
3
2.99992
2.99977
2.99929
2.99812
2.99587
2.99297
2.99184
2.99632
3.00747
3.0197
3.02482
3.0197
3.00747
2.99632
2.99184
2.99297
2.99587
2.99812
2.99929
2.99977
2.99994
2.99998
3
3
3
3
3
3
3
3
3
3
3
3
3
3
3
3
3
3
2.99981
2.99948
2.99848
2.99628
2.99297
2.99144
2.99904
3.0233
3.06117
3.09562
3.10879
3.09562
3.06117
3.0233
2.99904
2.99144
2.99297
2.99628
2.99848
2.99949
2.99985
2.99996
2.99999
3
3
3
3
3
3
3
3
3
3
3
3
3
3
3
3
3
2.99962
2.999
2.99729
2.99418
2.99184
2.99904
3.03111
3.09676
3.18121
3.24985
3.27435
3.24985
3.18121
3.09676
3.03111
2.99904
2.99184
2.99418
2.99729
2.99901
2.9997
2.99992
2.99998
3
3
3
3
3
3
3
3
3
3
3
3
3
3
3
3
3
2.99935
2.99838
2.99606
2.99317
2.99632
3.0233
3.09676
3.22039
3.36226
3.46942
3.50534
3.46942
3.36226
3.22039
3.09676
3.0233
2.99632
2.99317
2.99606
2.99842
2.99949
2.99986
2.99997
2.99999
3
3
3
3
3
3
3
3
3
3
3
3
3
3
3
3
2.99906
2.99782
2.99531
2.99436
3.00747
3.06117
3.18121
3.36226
3.55643
3.69497
3.7375
3.69497
3.55643
3.36226
3.18121
3.06117
3.00747
2.99436
2.99532
2.99787
2.99927
2.99979
2.99995
2.99999
3
3
3
3
3
3
3
3
3
3
3
3
3
3
3
3
2.99884
2.99748
2.99519
2.99683
3.0197
3.09562
3.24985
3.46942
3.69497
3.84351
3.87985
3.84351
3.69497
3.46942
3.24985
3.09562
3.0197
2.99684
2.9952
2.99754
2.99911
2.99974
2.99993
2.99999
3
3
3
3
3
3
3
3
3
3
3
3
3
3
3
3
2.99876
2.99737
2.99524
2.99806
3.02482
3.10879
3.27435
3.50534
3.7375
3.87985
3.90479
3.87985
3.7375
3.50534
3.27435
3.10879
3.02482
2.99806
2.99526
2.99744
2.99905
2.99972
2.99993
2.99998
3
3
3
3
3
3
3
3
3
3
3
3
3
3
3
3
2.99884
2.99748
2.99519
2.99683
3.0197
3.09562
3.24985
3.46942
3.69497
3.84351
3.87985
3.84351
3.69497
3.46942
3.24985
3.09562
3.0197
2.99684
2.9952
2.99754
2.99911
2.99974
2.99993
2.99999
3
3
3
3
3
3
3
3
3
3
3
3
3
3
3
3
2.99906
2.99782
2.99531
2.99436
3.00747
3.06117
3.18121
3.36226
3.55643
3.69497
3.7375
3.69497
3.55643
3.36226
3.18121
3.06117
3.00747
2.99436
2.99532
2.99787
2.99927
2.99979
2.99995
2.99999
3
3
3
3
3
3
3
3
3
3
3
3
3
3
3
3
2.99935
2.99838
2.99606
2.99317
2.99632
3.0233
3.09676
3.22039
3.36226
3.46942
3.50534
3.46942
3.36226
3.22039
3.09676
3.0233
2.99632
2.99317
2.99606
2.99842
2.99949
2.99986
2.99997
2.99999
3
3
3
3
3
3
3
3
3
3
3
3
3
3
3
3
2.99962
2.999
2.99729
2.99418
2.99184
2.99904
3.03111
3.09676
3.18121
3.24985
3.27435
3.24985
3.18121
3.09676
3.03111
2.99904
2.99184
2.99418
2.99729
2.99901
2.9997
2.99992
2.99998
3
3
3
3
3
3
3
3
3
3
3
3
3
3
3
3
3
2.99981
2.99948
2.99848
2.99628
2.99297
2.99144
2.99904
3.0233
3.06117
3.09562
3.10879
3.09562
3.06117
3.0233
2.99904
2.99144
2.99297
2.99628
2.99848
2.99949
2.99985
2.99996
2.99999
3
3
3
3
3
3
3
3
3
3
3
3
3
3
3
3
3
2.99992
2.99977
2.99929
2.99812
2.99587
2.99297
2.99184
2.99632
3.00747
3.0197
3.02482
3.0197
3.00747
2.99632
2.99184
2.99297
2.99587
2.99812
2.99929
2.99977
2.99994
2.99998
3
3
3
3
3
3
3
3
3
3
3
3
3
3
3
3
3
3
2.99997
2.99991
2.99972
2.99922
2.99812
2.99628
2.99418
2.99317
2.99436
2.99684
2.99806
2.99684
2.99436
2.99317
2.99418
2.99628
2.99812
2.99922
2.99972
2.99992
2.99998
2.99999
3
3
3
3
3
3
3
3
3
3
3
3
3
3
3
3
3
3
2.99999
2.99997
2.99991
2.99972
2.99929
2.99848
2.99729
2.99606
2.99532
2.9952
2.99526
2.9952
2.99532
2.99606
2.99729
2.99848
2.99929
2.99972
2.99991
2.99997
2.99999
3
3
3
3
3
3.00001
3.00001
3.00002
3.00002
3.00002
3.00002
3.00002
3.00001
3.00001
3
3
3
3
3
3
2.99999
2.99997
2.99992
2.99977
2.99949
2.99901
2.99842
2.99787
2.99754
2.99744
2.99754
2.99787
2.99842
2.99901
2.99949
2.99977
2.99992
2.99997
2.99999
3
3
3
3
3
3.00001
3.00002
3.00004
3.00006
3.00008
3.00009
3.00008
3.00006
3.00004
3.00002
3.00001
3
3
3
3
3
3
2.99999
2.99998
2.99994
2.99985
2.9997
2.99949
2.99927
2.99911
2.99905
2.99911
2.99927
2.99949
2.9997
2.99985
2.99994
2.99998
2.99999
3
3
3
3
3.00001
3.00002
3.00004
3.00009
3.00015
3.00023
3.00028
3.0003
3.00028
3.00023
3.00015
3.00009
3.00004
3.00002
3.00001
3
3
3
3
3
2.99999
2.99998
2.99996
2.99992
2.99986
2.99979
2.99974
2.99972
2.99974
2.99979
2.99986
2.99992
2.99996
2.99998
2.99999
3
3
3
3
3.00001
3.00002
3.00007
3.00015
3.0003
3.0005
3.00069
3.00083
3.00088
3.00083
3.00069
3.0005
3.0003
3.00015
3.00007
3.00002
3.00001
3
3
3
3
3
3
2.99999
2.99998
2.99997
2.99995
2.99993
2.99993
2.99993
2.99995
2.99997
2.99998
2.99999
3
3
3
3
3
3.00001
3.00003
3.00008
3.00021
3.00046
3.00086
3.00134
3.00172
3.00191
3.00195
3.00191
3.00172
3.00134
3.00086
3.00046
3.00021
3.00008
3.00003
3.00001
3
3
3
3
3
3
3
2.99999
2.99999
2.99999
2.99998
2.99999
2.99999
2.99999
3
3
3
3
3
3
3.00001
3.00002
3.00008
3.00023
3.00058
3.0012
3.00205
3.00279
3.00298
3.00261
3.00235
3.00261
3.00298
3.00279
3.00205
3.0012
3.00058
3.00023
3.00008
3.00003
3
3
3
3
3
3
3
3
3
3
3
3
3
3
3
3
3
3
3
3
3.00002
3.00007
3.00021
3.00058
3.00134
3.00253
3.00365
3.0035
3.00105
2.9974
2.99565
2.9974
3.00105
3.0035
3.00365
3.00253
3.00134
3.00058
3.00021
3.00008
3
3
3
3
3
3
3
3
3
3
3
3
3
3
3
3
3
3
3
3.00001
3.00004
3.00015
3.00046
3.0012
3.00253
3.00398
3.00351
2.9975
2.98424
2.96928
2.96293
2.96928
2.98424
2.9975
3.00351
3.00398
3.00253
3.0012
3.00047
3.0002
3
3
3
3
3
3
3
3
3
3
3
3
3
3
3
3
3
3
3.00001
3.00002
3.00009
3.0003
3.00086
3.00205
3.00365
3.00351
2.99551
2.97092
2.92901
2.88909
2.87437
2.88909
2.92901
2.97092
2.99551
3.00351
3.00365
3.00205
3.00089
3.00039
3
3
3
3
3
3
3
3
3
3
3
3
3
3
3
3
3
3
3.00001
3.00004
3.00015
3.0005
3.00134
3.00279
3.0035
2.9975
2.97092
2.90815
2.82019
2.75591
2.73897
2.75591
2.82019
2.90815
2.97092
2.9975
3.0035
3.0028
3.00138
3.00065
3
3
3
3
3
3
3
3
3
3
3
3
3
3
3
3
3
3
3.00002
3.00006
3.00023
3.00069
3.00172
3.00298
3.00105
2.98424
2.92901
2.82019
2.70512
2.65969
2.66187
2.65969
2.70512
2.82019
2.92901
2.98424
3.00106
3.00299
3.00179
3.00092
3
3
3
3
3
3
3
3
3
3
3
3
3
3
3
3
3
3
3.00002
3.00008
3.00028
3.00083
3.00191
3.00261
2.9974
2.96928
2.88909
2.75591
2.65969
2.66784
2.69778
2.66784
2.65969
2.75591
2.88909
2.96928
2.9974
3.00263
3.00199
3.00111
3
3
3
3
3
3
3
3
3
3
3
3
3
3
3
3
3
3
3.00002
3.00009
3.0003
3.00088
3.00195
3.00235
2.99565
2.96293
2.87437
2.73897
2.66187
2.69778
2.74049
2.69778
2.66187
2.73897
2.87437
2.96293
2.99565
3.00237
3.00203
3.00118
3
3
3
3
3
3
3
3
3
3
3
3
3
3
3
3
3
3
3.00002
3.00008
3.00028
3.00083
3.00191
3.00261
2.9974
2.96928
2.88909
2.75591
2.65969
2.66784
2.69778
2.66784
2.65969
2.75591
2.88909
2.96928
2.9974
3.00263
3.00199
3.00111
3
3
3
3
3
3
3
3
3
3
3
3
3
3
3
3
3
3
3.00002
3.00006
3.00023
3.00069
3.00172
3.00298
3.00105
2.98424
2.92901
2.82019
2.70512
2.65969
2.66187
2.65969
2.70512
2.82019
2.92901
2.98424
3.00106
3.00299
3.00179
3.00092
3
3
3
3
3
3
3
3
3
3
3
3
3
3
3
3
3
3
3.00001
3.00004
3.00015
3.0005
3.00134
3.00279
3.0035
2.9975
2.97092
2.90815
2.82019
2.75591
2.73897
2.75591
2.82019
2.90815
2.97092
2.9975
3.0035
3.0028
3.00138
3.00065
3
3
3
3
3
3
3
3
3
3
3
3
3
3
3
3
3
3
3.00001
3.00002
3.00009
3.0003
3.00086
3.00205
3.00365
3.00351
2.99551
2.97092
2.92901
2.88909
2.87437
2.88909
2.92901
2.97092
2.99551
3.00351
3.00365
3.00205
3.00089
3.00039
3
3
3
3
3
3
3
3
3
3
3
3
3
3
3
3
3
3
3
3.00001
3.00004
3.00015
3.00046
3.0012
3.00253
3.00398
3.00351
2.9975
2.98424
2.96928
2.96293
2.96928
2.98424
2.9975
3.00351
3.00398
3.00253
3.0012
3.00047
3.0002
3
3
3
3
3
3
3
3
3
3
3
3
3
3
3
3
3
3
3
3
3.00002
3.00007
3.00021
3.00058
3.00134
3.00253
3.00365
3.0035
3.00106
2.9974
2.99565
2.9974
3.00106
3.0035
3.00365
3.00253
3.00134
3.00058
3.00021
3.00008
3
3
3
3
3
3
3
3
3
3
3
3
3
3
3
3
3
3
3
3
3.00001
3.00002
3.00008
3.00023
3.00058
3.0012
3.00205
3.0028
3.00299
3.00263
3.00237
3.00263
3.00299
3.0028
3.00205
3.0012
3.00058
3.00023
3.00008
3.00003
3
3
3
3
3
3
3
3
3
3
3
3
3
3
3
3
3
3
3
3
3
3.00001
3.00003
3.00008
3.00021
3.00047
3.00089
3.00138
3.00179
3.00199
3.00203
3.00199
3.00179
3.00138
3.00089
3.00047
3.00021
3.00008
3.00003
3.00001
3
3
3
3
3
3
3
3
3
3
3
3
3
3
3
3
3
3
3
3
3
3
3.00001
3.00003
3.00008
3.0002
3.00039
3.00065
3.00092
3.00111
3.00118
3.00111
3.00092
3.00065
3.00039
3.0002
3.00008
3.00003
3.00001
3
