# vtk DataFile Version 3.0
Brusselator Concentration Output
ASCII
DATASET STRUCTURED_POINTS
DIMENSIONS 40 40 1
ORIGIN 0.0 0.0 0.0
SPACING 0.005 0.005 1.0
POINT_DATA 1600
SCALARS C1 double 1
LOOKUP_TABLE default
1
1.00001
1.00002
1.00005
1.00011
1.00024
1.00043
1.00065
1.00083
1.00094
1.00097
1.00094
1.00083
1.00065
1.00043
1.00024
1.00011
1.00005
1.00002
1.00001
1
1
1
1
1
1
1
1
1
1
1
1
1
1
1
1
1
1
1
1
1.00001
1.00001
1.00004
1.00012
1.00028
1.00055
1.00088
1.00116
1.00126
1.00121
1.00117
1.00121
1.00126
1.00116
1.00088
1.00055
1.00028
1.00012
1.00004
1.00001
1
1
1
1
1
1
1
1
1
1
1
1
1
1
1
1
1
1
1
1
1.00002
1.00004
1.00013
1.00033
1.00071
1.00123
1.00164
1.00152
1.00073
0.999745
0.999315
0.999745
1.00073
1.00152
1.00164
1.00123
1.00071
1.00033
1.00013
1.00004
1.00001
1
1
1
1
1
1
1
1
1
1
1
1
1
1
1
1
1
1
1
1.00005
1.00012
1.00033
1.00078
1.00147
1.00201
1.00142
0.998714
0.994247
0.99013
0.988522
0.99013
0.994247
0.998714
1.00142
1.00201
1.00147
1.00078
1.00033
1.00012
1.00004
1.00001
1
1
1
1
1
1
1
1
1
1
1
1
1
1
1
1
1
1
1.00011
1.00028
1.00071
1.00147
1.00214
1.00117
0.995941
0.985146
0.971615
0.961038
0.957253
0.961038
0.971615
0.985146
0.995941
1.00117
1.00214
1.00147
1.00071
1.00027
1.00009
1.00003
1.00001
1
1
1
1
1
1
1
1
1
1
1
1
1
1
1
1
1
1.00024
1.00055
1.00123
1.00201
1.00117
0.994603
0.97773
0.951292
0.924073
0.906005
0.900214
0.906005
0.924073
0.951292
0.97773
0.994603
1.00117
1.00201
1.00123
1.00053
1.00019
1.00005
1.00001
1
1
1
1
1
1
1
1
1
1
1
1
1
1
1
1
1
1.00043
1.00088
1.00164
1.00142
0.995941
0.97773
0.942336
0.897224
0.859091
0.838977
0.833923
0.838977
0.859091
0.897224
0.942336
0.97773
0.995941
1.00142
1.00163
1.00085
1.00033
1.0001
1.00003
1.00001
1
1
1
1
1
1
1
1
1
1
1
1
1
1
1
1
1.00065
1.00116
1.00152
0.998714
0.985146
0.951292
0.897224
0.840211
0.802797
0.792425
0.793647
0.792425
0.802797
0.840211
0.897224
0.951292
0.985146
0.998712
1.00151
1.00111
1.00048
1.00016
1.00005
1.00001
1
1
1
1
1
1
1
1
1
1
1
1
1
1
1
1
1.00083
1.00126
1.00073
0.994247
0.971615
0.924073
0.859091
0.802797
0.781094
0.796588
0.813249
0.796588
0.781094
0.802797
0.859091
0.924073
0.971614
0.994243
1.00071
1.00119
1.00061
1.00022
1.00007
1.00002
1
1
1
1
1
1
1
1
1
1
1
1
1
1
1
1
1.00094
1.00121
0.999745
0.99013
0.961038
0.906005
0.838977
0.792425
0.796588
0.853292
0.896797
0.853292
0.796588
0.792425
0.838977
0.906005
0.961037
0.990126
0.999724
1.00113
1.00068
1.00026
1.00008
1.00002
1
1
1
1
1
1
1
1
1
1
1
1
1
1
1
1
1.00097
1.00117
0.999315
0.988522
0.957253
0.900214
0.833923
0.793647
0.813249
0.896797
0.95889
0.896797
0.813249
0.793647
0.833923
0.900213
0.957251
0.988517
0.999292
1.00108
1.0007
1.00028
1.00009
1.00002
1.00001
1
1
1
1
1
1
1
1
1
1
1
1
1
1
1
1.00094
1.00121
0.999745
0.99013
0.961038
0.906005
0.838977
0.792425
0.796588
0.853292
0.896797
0.853292
0.796588
0.792425
0.838977
0.906005
0.961037
0.990126
0.999724
1.00113
1.00068
1.00026
1.00008
1.00002
1
1
1
1
1
1
1
1
1
1
1
1
1
1
1
1
1.00083
1.00126
1.00073
0.994247
0.971615
0.924073
0.859091
0.802797
0.781094
0.796588
0.813249
0.796588
0.781094
0.802797
0.859091
0.924073
0.971614
0.994243
1.00071
1.00119
1.00061
1.00022
1.00007
1.00002
1
1
1
1
1
1
1
1
1
1
1
1
1
1
1
1
1.00065
1.00116
1.00152
0.998714
0.985146
0.951292
0.897224
0.840211
0.802797
0.792425
0.793647
0.792425
0.802797
0.840211
0.897224
0.951292
0.985146
0.998712
1.00151
1.00111
1.00048
1.00016
1.00005
1.00001
1
1
1
1
1
1
1
1
1
1
1
1
1
1
1
1
1.00043
1.00088
1.00164
1.00142
0.995941
0.97773
0.942336
0.897224
0.859091
0.838977
0.833923
0.838977
0.859091
0.897224
0.942336
0.97773
0.995941
1.00142
1.00163
1.00085
1.00033
1.0001
1.00003
1.00001
1
1
1
1
1
1
1
1
1
1
1
1
1
1
1
1
1.00024
1.00055
1.00123
1.00201
1.00117
0.994603
0.97773
0.951292
0.924073
0.906005
0.900213
0.906005
0.924073
0.951292
0.97773
0.994603
1.00117
1.00201
1.00123
1.00053
1.00019
1.00005
1.00001
1
1
1
1
1
1
1
1
1
1
1
1
1
1
1
1
1
1.00011
1.00028
1.00071
1.00147
1.00214
1.00117
0.995941
0.985146
0.971614
0.961037
0.957251
0.961037
0.971614
0.985146
0.995941
1.00117
1.00214
1.00147
1.00071
1.00027
1.00009
1.00003
1.00001
1
1
1
1
0.999999
0.999999
0.999999
0.999998
0.999999
0.999999
0.999999
1
1
1
1
1
1
1.00005
1.00012
1.00033
1.00078
1.00147
1.00201
1.00142
0.998712
0.994243
0.990126
0.988517
0.990126
0.994243
0.998712
1.00142
1.00201
1.00147
1.00078
1.00033
1.00012
1.00004
1.00001
1
1
1
0.999999
0.999998
0.999997
0.999995
0.999994
0.999993
0.999994
0.999995
0.999997
0.999998
0.999999
1
1
1
1
1.00002
1.00004
1.00013
1.00033
1.00071
1.00123
1.00163
1.00151
1.00071
0.999724
0.999292
0.999724
1.00071
1.00151
1.00163
1.00123
1.00071
1.00033
1.00013
1.00004
1.00001
1
1
0.999999
0.999998
0.999996
0.999992
0.999986
0.99998
0.999976
0.999974
0.999976
0.99998
0.999986
0.999992
0.999996
0.999998
0.999999
1
1
1.00001
1.00001
1.00004
1.00012
1.00027
1.00053
1.00085
1.00111
1.00119
1.00113
1.00108
1.00113
1.00119
1.00111
1.00085
1.00053
1.00027
1.00012
1.00004
1.00001
1
1
0.999999
0.999997
0.999993
0.999984
0.999969
0.99995
0.999931
0.999917
0.999912
0.999917
0.999931
0.99995
0.999969
0.999984
0.999993
0.999997
0.999999
1
1
1
1.00001
1.00004
1.00009
1.00019
1.00033
1.00048
1.00061
1.00068
1.0007
1.00068
1.00061
1.00048
1.00033
1.00019
1.00009
1.00004
1.00001
1
1
0.999999
0.999996
0.999989
0.999974
0.999944
0.999899
0.999845
0.999797
0.999766
0.999757
0.999766
0.999797
0.999845
0.999899
0.999944
0.999974
0.999989
0.999996
0.999998
1
1
1
1.00001
1.00003
1.00005
1.0001
1.00016
1.00022
1.00026
1.00028
1.00026
1.00022
1.00016
1.0001
1.00005
1.00003
1.00001
1
1
0.999999
0.999996
0.999987
0.999965
0.999918
0.999835
0.999721
0.999608
0.999537
0.999517
0.999518
0.999517
0.999537
0.999608
0.999721
0.999835
0.999918
0.999965
0.999987
0.999995
1
1
1
1
1.00001
1.00001
1.00003
1.00005
1.00007
1.00008
1.00009
1.00008
1.00007
1.00005
1.00003
1.00001
1.00001
1
1
0.999999
0.999996
0.999987
0.999962
0.9999
0.999779
0.999591
0.999388
0.99929
0.999388
0.999599
0.999705
0.999599
0.999388
0.99929
0.999388
0.999591
0.999779
0.9999
0.999961
0.999983
1
1
1
1
1
1
1.00001
1.00001
1.00002
1.00002
1.00002
1.00002
1.00002
1.00001
1.00001
1
1
1
0.999999
0.999997
0.999989
0.999965
0.9999
0.999756
0.999505
0.99921
0.99912
0.999608
1.00078
1.00209
1.00265
1.00209
1.00078
0.999608
0.99912
0.99921
0.999505
0.999756
0.999897
0.999954
1
1
1
1
1
1
1
1
1
1
1.00001
1
1
1
1
1
1
1
0.999998
0.999993
0.999974
0.999918
0.999779
0.999505
0.999142
0.999051
1.00009
1.00321
1.00821
1.01289
1.01472
1.01289
1.00821
1.00321
1.00009
0.999051
0.999141
0.999504
0.999771
0.999892
1
1
1
1
1
1
1
1
1
1
1
1
1
1
1
1
1
0.999999
0.999996
0.999984
0.999944
0.999835
0.999591
0.99921
0.999051
1.00035
1.00539
1.01603
1.0303
1.04171
1.0456
1.04171
1.0303
1.01603
1.00539
1.00035
0.99905
0.999206
0.999575
0.99978
1
1
1
1
1
1
1
1
1
1
1
1
1
1
1
1
1
0.999998
0.999992
0.999969
0.999899
0.999721
0.999388
0.99912
1.00009
1.00539
1.01978
1.04512
1.07265
1.08821
1.09154
1.08821
1.07265
1.04512
1.01978
1.00539
1.00009
0.999112
0.999358
0.999621
1
1
1
1
1
1
1
1
1
1
1
1
1
1
1
1
0.999999
0.999997
0.999986
0.99995
0.999845
0.999608
0.99929
0.999608
1.00321
1.01603
1.04512
1.08647
1.11377
1.11046
1.10294
1.11046
1.11377
1.08647
1.04512
1.01603
1.0032
0.999594
0.999241
0.999453
1
1
1
1
1
1
1
1
1
1
1
1
1
1
1
1
0.999999
0.999995
0.99998
0.999931
0.999797
0.999537
0.999388
1.00078
1.00821
1.0303
1.07265
1.11377
1.10557
1.05568
1.03034
1.05568
1.10557
1.11377
1.07265
1.0303
1.0082
1.00076
0.999319
0.999333
1
1
1
1
1
1
1
1
1
1
1
1
1
1
1
1
0.999999
0.999994
0.999976
0.999917
0.999766
0.999517
0.999599
1.00209
1.01289
1.04171
1.08821
1.11046
1.05568
0.96806
0.93174
0.96806
1.05568
1.11046
1.08821
1.0417
1.01289
1.00207
0.999515
0.999284
1
1
1
1
1
1
1
1
1
1
1
1
1
1
1
1
0.999998
0.999993
0.999974
0.999912
0.999757
0.999518
0.999705
1.00265
1.01472
1.0456
1.09154
1.10294
1.03034
0.93174
0.892923
0.93174
1.03034
1.10294
1.09154
1.0456
1.01472
1.00263
0.999617
0.999275
1
1
1
1
1
1
1
1
1
1
1
1
1
1
1
1
0.999999
0.999994
0.999976
0.999917
0.999766
0.999517
0.999599
1.00209
1.01289
1.04171
1.08821
1.11046
1.05568
0.96806
0.93174
0.96806
1.05568
1.11046
1.08821
1.0417
1.01289
1.00207
0.999515
0.999284
1
1
1
1
1
1
1
1
1
1
1
1
1
1
1
1
0.999999
0.999995
0.99998
0.999931
0.999797
0.999537
0.999388
1.00078
1.00821
1.0303
1.07265
1.11377
1.10557
1.05568
1.03034
1.05568
1.10557
1.11377
1.07265
1.0303
1.0082
1.00076
0.999319
0.999333
1
1
1
1
1
1
1
1
1
1
1
1
1
1
1
1
0.999999
0.999997
0.999986
0.99995
0.999845
0.999608
0.99929
0.999608
1.00321
1.01603
1.04512
1.08647
1.11377
1.11046
1.10294
1.11046
1.11377
1.08647
1.04512
1.01603
1.0032
0.999594
0.999241
0.999453
1
1
1
1
1
1
1
1
1
1
1
1
1
1
1
1
1
0.999998
0.999992
0.999969
0.999899
0.999721
0.999388
0.99912
1.00009
1.00539
1.01978
1.04512
1.07265
1.08821
1.09154
1.08821
1.07265
1.04512
1.01978
1.00539
1.00009
0.999112
0.999358
0.999621
1
1
1
1
1
1
1
1
1
1
1
1
1
1
1
1
1
0.999999
0.999996
0.999984
0.999944
0.999835
0.999591
0.99921
0.999051
1.00035
1.00539
1.01603
1.0303
1.0417
1.0456
1.0417
1.0303
1.01603
1.00539
1.00035
0.99905
0.999206
0.999575
0.99978
1
1
1
1
1
1
1
1
1
1
1
1
1
1
1
1
1
1
0.999998
0.999993
0.999974
0.999918
0.999779
0.999505
0.999141
0.99905
1.00009
1.0032
1.0082
1.01289
1.01472
1.01289
1.0082
1.0032
1.00009
0.99905
0.999141
0.999503
0.999771
0.999892
1
1
1
1
1
1
1
1
1
1
1
1
1
1
1
1
1
1
0.999999
0.999997
0.999989
0.999965
0.9999
0.999756
0.999504
0.999206
0.999112
0.999594
1.00076
1.00207
1.00263
1.00207
1.00076
0.999594
0.999112
0.999206
0.999503
0.999755
0.999897
0.999954
1
1
1
1
1
1
1
1
1
1
1
1
1
1
1
1
1
1
1
0.999999
0.999996
0.999987
0.999961
0.999897
0.999771
0.999575
0.999358
0.999241
0.999319
0.999515
0.999617
0.999515
0.999319
0.999241
0.999358
0.999575
0.999771
0.999897
0.99996
0.999983
1
1
1
1
1
1
1
1
1
1
1
1
1
1
1
1
1
1
1
1
0.999998
0.999995
0.999983
0.999954
0.999892
0.99978
0.999621
0.999453
0.999333
0.999284
0.999275
0.999284
0.999333
0.999453
0.999621
0.99978
0.999892
0.999954
0.999983
0.999993
SCALARS C2 double 1
LOOKUP_TABLE default
3
3
2.99998
2.99995
2.99988
2.99973
2.99948
2.99914
2.9988
2.99856
2.99848
2.99856
2.9988
2.99914
2.99948
2.99973
2.99988
2.99995
2.99998
3
3
3
3
3
3
3
3
3
3
3
3
3
3
3
3
3
3
3
3
3
3
2.99999
2.99996
2.99987
2.99968
2.9993
2.99872
2.99806
2.99752
2.99723
2.99716
2.99723
2.99752
2.99806
2.99872
2.9993
2.99968
2.99987
2.99996
2.99999
3
3
3
3
3
3
3
3
3
3
3
3
3
3
3
3
3
3
3
3
2.99998
2.99996
2.99986
2.99961
2.99906
2.99811
2.99687
2.99584
2.99555
2.99588
2.99613
2.99588
2.99555
2.99584
2.99687
2.99811
2.99906
2.99961
2.99986
2.99996
2.99999
3
3
3
3
3
3
3
3
3
3
3
3
3
3
3
3
3
3
3
2.99995
2.99987
2.99961
2.99896
2.99768
2.99581
2.99423
2.99457
2.99765
3.00169
3.00349
3.00169
2.99765
2.99457
2.99423
2.99581
2.99768
2.99896
2.99961
2.99987
2.99996
2.99999
3
3
3
3
3
3
3
3
3
3
3
3
3
3
3
3
3
3
2.99988
2.99968
2.99906
2.99768
2.99539
2.99328
2.99466
3.0035
3.01937
3.03482
3.04098
3.03482
3.01937
3.0035
2.99466
2.99328
2.99539
2.99768
2.99906
2.99968
2.99991
2.99998
2.99999
3
3
3
3
3
3
3
3
3
3
3
3
3
3
3
3
3
2.99973
2.9993
2.99811
2.99581
2.99328
2.99491
3.00923
3.04235
3.0876
3.12576
3.13988
3.12576
3.0876
3.04235
3.00923
2.99491
2.99328
2.99581
2.99811
2.99931
2.99979
2.99994
2.99999
3
3
3
3
3
3
3
3
3
3
3
3
3
3
3
3
3
2.99948
2.99872
2.99687
2.99423
2.99466
3.00923
3.05319
3.13066
3.2217
3.29128
3.31529
3.29128
3.2217
3.13066
3.05319
3.00923
2.99466
2.99423
2.99688
2.99875
2.99959
2.99989
2.99997
2.99999
3
3
3
3
3
3
3
3
3
3
3
3
3
3
3
3
2.99914
2.99806
2.99584
2.99457
3.0035
3.04235
3.13066
3.26457
3.40729
3.50829
3.54027
3.50829
3.40729
3.26457
3.13066
3.04235
3.0035
2.99457
2.99585
2.99811
2.99934
2.9998
2.99995
2.99999
3
3
3
3
3
3
3
3
3
3
3
3
3
3
3
3
2.9988
2.99752
2.99555
2.99765
3.01937
3.0876
3.2217
3.40729
3.59199
3.71076
3.74147
3.71076
3.59199
3.40729
3.2217
3.0876
3.01937
2.99765
2.99556
2.99759
2.99908
2.99972
2.99993
2.99998
3
3
3
3
3
3
3
3
3
3
3
3
3
3
3
3
2.99856
2.99723
2.99588
3.00169
3.03482
3.12576
3.29128
3.50829
3.71076
3.817
3.82588
3.817
3.71076
3.50829
3.29128
3.12576
3.03482
3.00169
2.9959
2.99733
2.99891
2.99965
2.99991
2.99998
3
3
3
3
3
3
3
3
3
3
3
3
3
3
3
3
2.99848
2.99716
2.99613
3.00349
3.04098
3.13988
3.31529
3.54027
3.74147
3.82588
3.81164
3.82588
3.74147
3.54027
3.31529
3.13988
3.04098
3.00349
2.99615
2.99726
2.99885
2.99963
2.9999
2.99998
2.99999
3
3
3
3
3
3
3
3
3
3
3
3
3
3
3
2.99856
2.99723
2.99588
3.00169
3.03482
3.12576
3.29128
3.50829
3.71076
3.817
3.82588
3.817
3.71076
3.50829
3.29128
3.12576
3.03482
3.00169
2.9959
2.99733
2.99891
2.99965
2.99991
2.99998
3
3
3
3
3
3
3
3
3
3
3
3
3
3
3
3
2.9988
2.99752
2.99555
2.99765
3.01937
3.0876
3.2217
3.40729
3.59199
3.71076
3.74147
3.71076
3.59199
3.40729
3.2217
3.0876
3.01937
2.99765
2.99556
2.99759
2.99908
2.99972
2.99993
2.99998
3
3
3
3
3
3
3
3
3
3
3
3
3
3
3
3
2.99914
2.99806
2.99584
2.99457
3.0035
3.04235
3.13066
3.26457
3.40729
3.50829
3.54027
3.50829
3.40729
3.26457
3.13066
3.04235
3.0035
2.99457
2.99585
2.99811
2.99934
2.9998
2.99995
2.99999
3
3
3
3
3
3
3
3
3
3
3
3
3
3
3
3
2.99948
2.99872
2.99687
2.99423
2.99466
3.00923
3.05319
3.13066
3.2217
3.29128
3.31529
3.29128
3.2217
3.13066
3.05319
3.00923
2.99466
2.99423
2.99688
2.99875
2.99959
2.99989
2.99997
2.99999
3
3
3
3
3
3
3
3
3
3
3
3
3
3
3
3
2.99973
2.9993
2.99811
2.99581
2.99328
2.99491
3.00923
3.04235
3.0876
3.12576
3.13988
3.12576
3.0876
3.04235
3.00923
2.99491
2.99328
2.99581
2.99811
2.99931
2.99979
2.99994
2.99999
3
3
3
3
3
3
3
3
3
3
3
3
3
3
3
3
3
2.99988
2.99968
2.99906
2.99768
2.99539
2.99328
2.99466
3.0035
3.01937
3.03482
3.04098
3.03482
3.01937
3.0035
2.99466
2.99328
2.99539
2.99768
2.99906
2.99968
2.99991
2.99998
2.99999
3
3
3
3
3
3
3
3
3
3
3
3
3
3
3
3
3
2.99995
2.99987
2.99961
2.99896
2.99768
2.99581
2.99423
2.99457
2.99765
3.00169
3.00349
3.00169
2.99765
2.99457
2.99423
2.99581
2.99768
2.99896
2.99961
2.99987
2.99996
2.99999
3
3
3
3
3
3
3.00001
3.00001
3.00001
3.00001
3.00001
3
3
3
3
3
3
3
2.99998
2.99996
2.99986
2.99961
2.99906
2.99811
2.99688
2.99585
2.99556
2.9959
2.99615
2.9959
2.99556
2.99585
2.99688
2.99811
2.99906
2.99961
2.99986
2.99996
2.99999
3
3
3
3
3
3.00001
3.00001
3.00002
3.00003
3.00003
3.00003
3.00002
3.00001
3.00001
3
3
3
3
3
3
2.99999
2.99996
2.99987
2.99968
2.99931
2.99875
2.99811
2.99759
2.99733
2.99726
2.99733
2.99759
2.99811
2.99875
2.99931
2.99968
2.99987
2.99996
2.99999
3
3
3
3
3.00001
3.00002
3.00003
3.00006
3.00009
3.00011
3.00011
3.00011
3.00009
3.00006
3.00003
3.00002
3.00001
3
3
3
3
3
2.99999
2.99996
2.99991
2.99979
2.99959
2.99934
2.99908
2.99891
2.99885
2.99891
2.99908
2.99934
2.99959
2.99979
2.99991
2.99996
2.99999
3
3
3
3
3.00001
3.00003
3.00006
3.00012
3.0002
3.00029
3.00035
3.00037
3.00035
3.00029
3.0002
3.00012
3.00006
3.00003
3.00001
3
3
3
3
3
2.99999
2.99998
2.99994
2.99989
2.9998
2.99972
2.99965
2.99963
2.99965
2.99972
2.9998
2.99989
2.99994
2.99998
2.99999
3
3
3
3
3.00001
3.00004
3.00009
3.00021
3.00039
3.00061
3.00082
3.00095
3.00099
3.00095
3.00082
3.00061
3.00039
3.00021
3.00009
3.00004
3.00001
3
3
3
3
3
2.99999
2.99999
2.99997
2.99995
2.99993
2.99991
2.9999
2.99991
2.99993
2.99995
2.99997
2.99999
2.99999
3
3
3
3
3.00001
3.00004
3.00012
3.00028
3.00059
3.00103
3.0015
3.00179
3.00186
3.00185
3.00186
3.00179
3.0015
3.00103
3.00059
3.00028
3.00012
3.00004
3.00002
3
3
3
3
3
3
2.99999
2.99999
2.99998
2.99998
2.99998
2.99998
2.99998
2.99999
2.99999
3
3
3
3
3
3.00001
3.00004
3.00012
3.00031
3.00073
3.00141
3.0022
3.00264
3.00227
3.00136
3.00087
3.00136
3.00227
3.00264
3.0022
3.00141
3.00073
3.00031
3.00012
3.00005
3
3
3
3
3
3
3
3
3
3
2.99999
3
3
3
3
3
3
3
3
3.00001
3.00003
3.00009
3.00028
3.00073
3.00156
3.00265
3.00318
3.00164
2.99721
2.99185
2.98947
2.99185
2.99721
3.00164
3.00318
3.00265
3.00156
3.00073
3.00029
3.00012
3
3
3
3
3
3
3
3
3
3
3
3
3
3
3
3
3
3
3
3.00002
3.00006
3.00021
3.00059
3.00141
3.00265
3.00335
3.00065
2.9905
2.97226
2.9539
2.94657
2.9539
2.97226
2.9905
3.00065
3.00335
3.00266
3.00141
3.00061
3.00027
3
3
3
3
3
3
3
3
3
3
3
3
3
3
3
3
3
3
3.00001
3.00003
3.00012
3.00039
3.00103
3.0022
3.00318
3.00065
2.98701
2.95367
2.90432
2.86279
2.84877
2.86279
2.90432
2.95367
2.98701
3.00065
3.00318
3.00221
3.00107
3.00051
3
3
3
3
3
3
3
3
3
3
3
3
3
3
3
3
3
3
3.00001
3.00006
3.0002
3.00061
3.0015
3.00264
3.00164
2.9905
2.95367
2.87972
2.79214
2.74052
2.73023
2.74052
2.79214
2.87972
2.95367
2.9905
3.00164
3.00265
3.00156
3.00082
3
3
3
3
3
3
3
3
3
3
3
3
3
3
3
3
3
3.00001
3.00002
3.00009
3.00029
3.00082
3.00179
3.00227
2.99721
2.97226
2.90432
2.79214
2.70089
2.68666
2.69956
2.68666
2.70089
2.79214
2.90432
2.97226
2.99721
3.00229
3.00188
3.00111
3
3
3
3
3
3
3
3
3
3
3
3
3
3
3
3
3
3.00001
3.00003
3.00011
3.00035
3.00095
3.00186
3.00136
2.99185
2.9539
2.86279
2.74052
2.68666
2.73059
2.76995
2.73059
2.68666
2.74052
2.86279
2.9539
2.99185
3.00138
3.00197
3.0013
3
3
3
3
3
3
3
3
3
3
3
3
3
3
3
3
3
3.00001
3.00003
3.00011
3.00037
3.00099
3.00185
3.00087
2.98947
2.94657
2.84877
2.73023
2.69956
2.76995
2.82071
2.76995
2.69956
2.73023
2.84877
2.94657
2.98948
3.0009
3.00196
3.00136
3
3
3
3
3
3
3
3
3
3
3
3
3
3
3
3
3
3.00001
3.00003
3.00011
3.00035
3.00095
3.00186
3.00136
2.99185
2.9539
2.86279
2.74052
2.68666
2.73059
2.76995
2.73059
2.68666
2.74052
2.86279
2.9539
2.99185
3.00138
3.00197
3.0013
3
3
3
3
3
3
3
3
3
3
3
3
3
3
3
3
3
3.00001
3.00002
3.00009
3.00029
3.00082
3.00179
3.00227
2.99721
2.97226
2.90432
2.79214
2.70089
2.68666
2.69956
2.68666
2.70089
2.79214
2.90432
2.97226
2.99721
3.00229
3.00188
3.00111
3
3
3
3
3
3
3
3
3
3
3
3
3
3
3
3
3
3
3.00001
3.00006
3.0002
3.00061
3.0015
3.00264
3.00164
2.9905
2.95367
2.87972
2.79214
2.74052
2.73023
2.74052
2.79214
2.87972
2.95367
2.9905
3.00164
3.00265
3.00156
3.00082
3
3
3
3
3
3
3
3
3
3
3
3
3
3
3
3
3
3
3.00001
3.00003
3.00012
3.00039
3.00103
3.0022
3.00318
3.00065
2.98701
2.95367
2.90432
2.86279
2.84877
2.86279
2.90432
2.95367
2.98701
3.00065
3.00318
3.00221
3.00107
3.00051
3
3
3
3
3
3
3
3
3
3
3
3
3
3
3
3
3
3
3
3.00002
3.00006
3.00021
3.00059
3.00141
3.00265
3.00335
3.00065
2.9905
2.97226
2.9539
2.94657
2.9539
2.97226
2.9905
3.00065
3.00335
3.00266
3.00141
3.00061
3.00027
3
3
3
3
3
3
3
3
3
3
3
3
3
3
3
3
3
3
3
3.00001
3.00003
3.00009
3.00028
3.00073
3.00156
3.00266
3.00318
3.00164
2.99721
2.99185
2.98948
2.99185
2.99721
3.00164
3.00318
3.00266
3.00156
3.00073
3.00029
3.00012
3
3
3
3
3
3
3
3
3
3
3
3
3
3
3
3
3
3
3
3
3.00001
3.00004
3.00012
3.00031
3.00073
3.00141
3.00221
3.00265
3.00229
3.00138
3.0009
3.00138
3.00229
3.00265
3.00221
3.00141
3.00073
3.00031
3.00012
3.00005
3
3
3
3
3
3
3
3
3
3
3
3
3
3
3
3
3
3
3
3
3
3.00001
3.00004
3.00012
3.00029
3.00061
3.00107
3.00156
3.00188
3.00197
3.00196
3.00197
3.00188
3.00156
3.00107
3.00061
3.00029
3.00012
3.00004
3.00002
3
3
3
3
3
3
3
3
3
3
3
3
3
3
3
3
3
3
3
3
3
3
3.00002
3.00005
3.00012
3.00027
3.00051
3.00082
3.00111
3.0013
3.00136
3.0013
3.00111
3.00082
3.00051
3.00027
3.00012
3.00005
3.00002
3.00001
