# vtk DataFile Version 3.0
Brusselator Concentration Output
ASCII
DATASET STRUCTURED_POINTS
DIMENSIONS 40 40 1
ORIGIN 0.0 0.0 0.0
SPACING 0.005 0.005 1.0
POINT_DATA 1600
SCALARS C1 double 1
LOOKUP_TABLE default
0.860182
0.781037
0.674204
0.588573
0.537706
0.514789
0.510103
0.516102
0.526879
0.536798
0.540827
0.536801
0.526882
0.516087
0.509979
0.514208
0.535591
0.582483
0.661957
0.771505
0.889719
0.981801
1.02593
1.03102
1.02053
1.01002
1.0038
1.00105
1.00012
0.999918
0.999923
0.999959
0.999983
0.999994
0.999998
1
1
1
1
1
0.781037
0.727767
0.653247
0.593431
0.561885
0.556256
0.572212
0.608249
0.659732
0.708917
0.729744
0.708922
0.659733
0.608209
0.572004
0.555483
0.559534
0.587892
0.645517
0.732684
0.837374
0.934038
0.997176
1.02081
1.01976
1.01163
1.00513
1.00173
1.00039
0.999997
0.999939
0.999959
0.999981
0.999993
0.999998
0.999999
1
1
1
1
0.674204
0.653247
0.622518
0.602605
0.608972
0.655254
0.777717
1.03841
1.4195
1.77689
1.92393
1.7769
1.41947
1.03821
0.777158
0.653949
0.606163
0.598167
0.621878
0.6775
0.761927
0.860518
0.947021
0.998976
1.01568
1.01355
1.00736
1.00299
1.00091
1.00017
0.999977
0.999961
0.999978
0.999991
0.999997
0.999999
1
1
1
1
0.588573
0.593431
0.602605
0.629
0.710654
0.982429
1.79823
3.06613
3.31719
3.16678
3.09852
3.16676
3.31711
3.06553
1.79588
0.979096
0.706782
0.625997
0.609429
0.633421
0.694734
0.786462
0.887163
0.965962
1.00536
1.01376
1.0097
1.00463
1.00167
1.00043
1.00005
0.999971
0.999975
0.999988
0.999995
0.999999
1
1
1
1
0.537706
0.561885
0.608972
0.710654
1.08208
2.51555
3.32111
2.86318
2.5487
2.36864
2.30972
2.36863
2.54865
2.86307
3.32108
2.5059
1.07383
0.709131
0.623306
0.613202
0.649649
0.726485
0.828879
0.925967
0.987981
1.01063
1.01126
1.00634
1.00259
1.00079
1.00015
0.999992
0.999975
0.999985
0.999994
0.999998
1
1
1
1
0.514789
0.556256
0.655254
0.982429
2.51555
3.21479
2.64744
2.23933
1.96313
1.80505
1.75366
1.80504
1.9631
2.23927
2.64754
3.21725
2.4985
0.982535
0.678688
0.617322
0.626663
0.684542
0.779581
0.885144
0.965568
1.0038
1.0114
1.00778
1.00356
1.00122
1.0003
1.00003
0.999979
0.999984
0.999993
0.999998
1
1
1
1
0.510103
0.572212
0.777717
1.79823
3.32111
2.64744
2.13885
1.77418
1.53263
1.39544
1.35103
1.39543
1.5326
1.77415
2.1391
2.64935
3.33132
1.80752
0.815836
0.644223
0.620957
0.658822
0.742214
0.8488
0.941787
0.994325
1.01004
1.00873
1.00445
1.00167
1.00046
1.00007
0.999988
0.999985
0.999994
0.999999
1
1
1
1
0.516102
0.608249
1.03841
3.06613
2.86318
2.23933
1.77418
1.44713
1.23297
1.11284
1.07429
1.11283
1.23294
1.44712
1.77449
2.24155
2.87449
3.09312
1.10598
0.694443
0.627073
0.645384
0.716486
0.820002
0.920246
0.984144
1.00766
1.00916
1.00516
1.00207
1.00062
1.00012
1
0.999989
0.999997
1
1
1
1
1
0.526879
0.659732
1.4195
3.31719
2.5487
1.96313
1.53263
1.23297
1.03966
0.932937
0.899031
0.932928
1.03964
1.23297
1.53299
1.96549
2.55922
3.339
1.53711
0.76368
0.639322
0.639913
0.700495
0.799773
0.903526
0.975279
1.00507
1.00921
1.00565
1.00239
1.00075
1.00016
1.00001
0.99999
0.999999
1.00001
1.00001
1.00001
1.00001
1.00001
0.536798
0.708917
1.77689
3.16678
2.36864
1.80505
1.39544
1.11284
0.932937
0.834926
0.804041
0.834918
0.932919
1.11286
1.39583
1.80747
2.37852
3.18745
1.94281
0.82975
0.651115
0.638526
0.692025
0.787959
0.893073
0.969309
1.0031
1.00906
1.00589
1.00254
1.00079
1.00014
0.999976
0.999962
0.999981
0.999999
1.00001
1.00002
1.00002
1.00002
0.540827
0.729744
1.92393
3.09852
2.30972
1.75366
1.35103
1.07429
0.899031
0.804041
0.774199
0.804033
0.899015
1.07431
1.35143
1.75609
2.31939
3.11957
2.10691
0.857798
0.656003
0.638417
0.689406
0.784082
0.889498
0.967146
1.00226
1.00885
1.0058
1.00241
1.00062
0.999956
0.999801
0.999816
0.999872
0.999929
0.999975
1.00001
1.00003
1.00004
0.536801
0.708922
1.7769
3.16676
2.36863
1.80504
1.39543
1.11283
0.932928
0.834918
0.804033
0.83491
0.932911
1.11285
1.39582
1.80746
2.37851
3.18742
1.94284
0.829765
0.651125
0.63853
0.692005
0.787875
0.892878
0.968967
1.0026
1.00844
1.00516
1.00175
0.999978
0.999354
0.999253
0.999343
0.999492
0.99965
0.999794
0.999909
0.999988
1.00003
0.526882
0.659733
1.41947
3.31711
2.54865
1.9631
1.5326
1.23294
1.03964
0.932919
0.899015
0.932911
1.03962
1.23295
1.53296
1.96546
2.55917
3.33892
1.53709
0.763691
0.639327
0.639882
0.70036
0.799417
0.902826
0.974173
1.00358
1.0074
1.00362
1.00023
0.998552
0.998009
0.997993
0.998201
0.998509
0.998864
0.999221
0.999535
0.999767
0.999889
0.516087
0.608209
1.03821
3.06553
2.86307
2.23927
1.77415
1.44712
1.23297
1.11286
1.07431
1.11285
1.23295
1.44711
1.77446
2.24149
2.87439
3.09254
1.10577
0.694383
0.626994
0.645173
0.715949
0.81888
0.918345
0.981442
1.00429
1.00536
1.00112
0.997915
0.996438
0.995976
0.995977
0.996213
0.996629
0.997199
0.997863
0.998517
0.999042
0.999334
0.509979
0.572004
0.777158
1.79588
3.32108
2.64754
2.1391
1.77449
1.53299
1.39583
1.35143
1.39582
1.53296
1.77446
2.13935
2.64945
3.33128
1.80518
0.815216
0.643878
0.620531
0.658016
0.740619
0.846038
0.937765
0.989316
1.00455
1.00329
0.999326
0.996889
0.99583
0.995306
0.994885
0.994547
0.994462
0.994772
0.995478
0.996407
0.997277
0.9978
0.514208
0.555483
0.653949
0.979096
2.5059
3.21725
2.64935
2.24155
1.96549
1.80747
1.75609
1.80746
1.96546
2.24149
2.64945
3.21972
2.48889
0.979211
0.677214
0.616104
0.62515
0.682179
0.775836
0.879926
0.959514
0.99812
1.00746
1.00655
1.00522
1.00506
1.00495
1.00387
1.00162
0.998692
0.995879
0.993898
0.993085
0.993288
0.993979
0.994532
0.535591
0.559534
0.606163
0.706782
1.07383
2.4985
3.33132
2.87449
2.55922
2.37852
2.31939
2.37851
2.55917
2.87439
3.33128
2.48889
1.06571
0.705228
0.620142
0.609825
0.645414
0.720885
0.82211
0.919594
0.984892
1.01434
1.02482
1.0312
1.03787
1.04336
1.04532
1.04252
1.03514
1.02458
1.01306
1.00288
0.995561
0.991422
0.989698
0.989239
0.582483
0.587892
0.598167
0.625997
0.709131
0.982535
1.80752
3.09312
3.339
3.18745
3.11957
3.18742
3.33892
3.09254
1.80518
0.979211
0.705228
0.622831
0.604405
0.626237
0.685365
0.776103
0.879474
0.967459
1.02445
1.0586
1.08528
1.11058
1.13229
1.14667
1.15155
1.14613
1.13034
1.10533
1.07444
1.04312
1.01687
0.998652
0.988229
0.983758
0.661957
0.645517
0.621878
0.609429
0.623306
0.678688
0.815836
1.10598
1.53711
1.94281
2.10691
1.94284
1.53709
1.10577
0.815216
0.677214
0.620142
0.604405
0.620397
0.668381
0.747603
0.848418
0.950835
1.03723
1.10694
1.16809
1.22044
1.25736
1.27707
1.28458
1.28615
1.28425
1.27577
1.25347
1.21124
1.1515
1.08747
1.03467
1.00074
0.985071
0.771505
0.732684
0.6775
0.633421
0.613202
0.617322
0.644223
0.694443
0.76368
0.82975
0.857798
0.829765
0.763691
0.694383
0.643878
0.616104
0.609825
0.626237
0.668381
0.73807
0.831859
0.939416
1.04993
1.15946
1.2587
1.32109
1.32922
1.29752
1.25437
1.22134
1.20926
1.22114
1.25357
1.29499
1.32257
1.30662
1.23463
1.13492
1.05278
1.01082
0.889719
0.837374
0.761927
0.694734
0.649649
0.626663
0.620957
0.627073
0.639322
0.651115
0.656003
0.651125
0.639327
0.626994
0.620531
0.62515
0.645414
0.685365
0.747603
0.831859
0.935425
1.05806
1.19958
1.32544
1.36146
1.29137
1.17381
1.06174
0.977968
0.92798
0.911495
0.927872
0.977527
1.0603
1.1699
1.28241
1.34403
1.29951
1.18392
1.09948
0.981801
0.934038
0.860518
0.786462
0.726485
0.684542
0.658822
0.645384
0.639913
0.638526
0.638417
0.63853
0.639882
0.645173
0.658016
0.682179
0.720885
0.776103
0.848418
0.939416
1.05806
1.21437
1.3557
1.35461
1.20965
1.02849
0.875178
0.765516
0.695663
0.6577
0.645726
0.657645
0.695442
0.764797
0.873273
1.02463
1.20466
1.35388
1.37541
1.30715
1.02593
0.997176
0.947021
0.887163
0.828879
0.779581
0.742214
0.716486
0.700495
0.692025
0.689406
0.692005
0.70036
0.715949
0.740619
0.775836
0.82211
0.879474
0.950835
1.04993
1.19958
1.3557
1.3458
1.15577
0.93365
0.757009
0.637915
0.564681
0.522757
0.501529
0.49507
0.501499
0.522645
0.564345
0.637176
0.756395
0.937665
1.18115
1.43264
1.5699
1.03102
1.02081
0.998976
0.965962
0.925967
0.885144
0.8488
0.820002
0.799773
0.787959
0.784082
0.787875
0.799417
0.81888
0.846038
0.879926
0.919594
0.967459
1.03723
1.15946
1.32544
1.35461
1.15577
0.902148
0.703308
0.575823
0.502262
0.462304
0.441705
0.432127
0.429358
0.43211
0.441644
0.462151
0.50209
0.576804
0.711846
0.940725
1.27005
1.56637
1.02053
1.01976
1.01568
1.00536
0.987981
0.965568
0.941787
0.920246
0.903526
0.893073
0.889498
0.892878
0.902826
0.918345
0.937765
0.959514
0.984892
1.02445
1.10694
1.2587
1.36146
1.20965
0.93365
0.703308
0.557658
0.477997
0.43805
0.419487
0.411711
0.408957
0.408333
0.408946
0.411676
0.419421
0.438132
0.479579
0.567316
0.742742
1.03233
1.30522
1.01002
1.01163
1.01355
1.01376
1.01063
1.0038
0.994325
0.984144
0.975279
0.969309
0.967146
0.968967
0.974173
0.981442
0.989316
0.99812
1.01434
1.0586
1.16809
1.32109
1.29137
1.02849
0.757009
0.575823
0.477997
0.431666
0.412524
0.406666
0.406566
0.408017
0.408745
0.408008
0.406543
0.406644
0.412722
0.433402
0.487041
0.609045
0.824016
1.02268
1.0038
1.00513
1.00736
1.0097
1.01126
1.0114
1.01004
1.00766
1.00507
1.0031
1.00226
1.0026
1.00358
1.00429
1.00455
1.00746
1.02482
1.08528
1.22044
1.32922
1.17381
0.875178
0.637915
0.502262
0.43805
0.412524
0.40598
0.408095
0.41319
0.417722
0.419491
0.417715
0.413174
0.408098
0.406239
0.414257
0.445981
0.527814
0.67566
0.808012
1.00105
1.00173
1.00299
1.00463
1.00634
1.00778
1.00873
1.00916
1.00921
1.00906
1.00885
1.00844
1.0074
1.00536
1.00329
1.00655
1.0312
1.11058
1.25736
1.29752
1.06174
0.765516
0.564681
0.462304
0.419487
0.406666
0.408095
0.415762
0.424932
0.43213
0.434849
0.432124
0.42492
0.415781
0.408389
0.408358
0.426395
0.481554
0.581874
0.668234
1.00012
1.00039
1.00091
1.00167
1.00259
1.00356
1.00445
1.00516
1.00565
1.00589
1.0058
1.00516
1.00362
1.00112
0.999326
1.00522
1.03787
1.13229
1.27707
1.25437
0.977968
0.695663
0.522757
0.441705
0.411711
0.406566
0.41319
0.424932
0.437459
0.447045
0.45065
0.447039
0.43745
0.424961
0.413508
0.408221
0.417879
0.456691
0.527652
0.586309
0.999918
0.999997
1.00017
1.00043
1.00079
1.00122
1.00167
1.00207
1.00239
1.00254
1.00241
1.00175
1.00023
0.997915
0.996889
1.00506
1.04336
1.14667
1.28458
1.22134
0.92798
0.6577
0.501529
0.432127
0.408957
0.408017
0.417722
0.43213
0.447045
0.458425
0.462715
0.458419
0.447037
0.432165
0.418054
0.409651
0.414692
0.444731
0.500165
0.544535
0.999923
0.999939
0.999977
1.00005
1.00015
1.0003
1.00046
1.00062
1.00075
1.00079
1.00062
0.999978
0.998552
0.996438
0.99583
1.00495
1.04532
1.15155
1.28615
1.20926
0.911495
0.645726
0.49507
0.429358
0.408333
0.408745
0.419491
0.434849
0.45065
0.462715
0.467269
0.462709
0.450642
0.434886
0.419828
0.410373
0.413926
0.441199
0.491809
0.531809
0.999959
0.999959
0.999961
0.999971
0.999992
1.00003
1.00007
1.00012
1.00016
1.00014
0.999956
0.999354
0.998009
0.995976
0.995306
1.00387
1.04252
1.14613
1.28425
1.22114
0.927872
0.657645
0.501499
0.43211
0.408946
0.408008
0.417715
0.432124
0.447039
0.458419
0.462709
0.458414
0.447031
0.432159
0.418048
0.409642
0.414678
0.444707
0.500126
0.544485
0.999983
0.999981
0.999978
0.999975
0.999975
0.999979
0.999988
1
1.00001
0.999976
0.999801
0.999253
0.997993
0.995977
0.994885
1.00162
1.03514
1.13034
1.27577
1.25357
0.977527
0.695442
0.522645
0.441644
0.411676
0.406543
0.413174
0.42492
0.43745
0.447037
0.450642
0.447031
0.437441
0.424949
0.413492
0.408197
0.417837
0.456613
0.527518
0.586135
0.999994
0.999993
0.999991
0.999988
0.999985
0.999984
0.999985
0.999989
0.99999
0.999962
0.999816
0.999343
0.998201
0.996213
0.994547
0.998692
1.02458
1.10533
1.25347
1.29499
1.0603
0.764797
0.564345
0.462151
0.419421
0.406644
0.408098
0.415781
0.424961
0.432165
0.434886
0.432159
0.424949
0.415799
0.408391
0.408332
0.426315
0.481363
0.581513
0.667748
0.999998
0.999998
0.999997
0.999995
0.999994
0.999993
0.999994
0.999997
0.999999
0.999981
0.999872
0.999492
0.998509
0.996629
0.994462
0.995879
1.01306
1.07444
1.21124
1.32257
1.1699
0.873273
0.637176
0.50209
0.438132
0.412722
0.406239
0.408389
0.413508
0.418054
0.419828
0.418048
0.413492
0.408391
0.406494
0.414447
0.446039
0.527593
0.674997
0.807015
1
0.999999
0.999999
0.999999
0.999998
0.999998
0.999999
1
1.00001
0.999999
0.999929
0.99965
0.998864
0.997199
0.994772
0.993898
1.00288
1.04312
1.1515
1.30662
1.28241
1.02463
0.756395
0.576804
0.479579
0.433402
0.414257
0.408358
0.408221
0.409651
0.410373
0.409642
0.408197
0.408332
0.414447
0.435125
0.488617
0.610106
0.824085
1.02194
1
1
1
1
1
1
1
1
1.00001
1.00001
0.999975
0.999794
0.999221
0.997863
0.995478
0.993085
0.995561
1.01687
1.08747
1.23463
1.34403
1.20466
0.937665
0.711846
0.567316
0.487041
0.445981
0.426395
0.417879
0.414692
0.413926
0.414678
0.417837
0.426315
0.446039
0.488617
0.577123
0.75198
1.03902
1.30946
1
1
1
1
1
1
1
1
1.00001
1.00002
1.00001
0.999909
0.999535
0.998517
0.996407
0.993288
0.991422
0.998652
1.03467
1.13492
1.29951
1.35388
1.18115
0.940725
0.742742
0.609045
0.527814
0.481554
0.456691
0.444731
0.441199
0.444707
0.456613
0.481363
0.527593
0.610106
0.75198
0.981589
1.30187
1.5865
1
1
1
1
1
1
1
1
1.00001
1.00002
1.00003
0.999988
0.999767
0.999042
0.997277
0.993979
0.989698
0.988229
1.00074
1.05278
1.18392
1.37541
1.43264
1.27005
1.03233
0.824016
0.67566
0.581874
0.527652
0.500165
0.491809
0.500126
0.527518
0.581513
0.674997
0.824085
1.03902
1.30187
1.53075
1.61598
1
1
1
1
1
1
1
1
1.00001
1.00002
1.00004
1.00003
0.999889
0.999334
0.9978
0.994532
0.989239
0.983758
0.985071
1.01082
1.09948
1.30715
1.5699
1.56637
1.30522
1.02268
0.808012
0.668234
0.586309
0.544535
0.531809
0.544485
0.586135
0.667748
0.807015
1.02194
1.30946
1.5865
1.61598
1.43951
SCALARS C2 double 1
LOOKUP_TABLE default
2.92892
3.08755
3.32605
3.56693
3.77954
3.95818
4.10171
4.20981
4.28357
4.32565
4.33919
4.32564
4.28355
4.20977
4.10162
3.95823
3.78109
3.57571
3.35566
3.14819
2.99193
2.91544
2.91104
2.94057
2.97035
2.98853
2.99678
2.99963
3.00028
3.00026
3.00014
3.00006
3.00002
3.00001
3
3
3
3
3
3
3.08755
3.24346
3.48083
3.72062
3.92928
4.09947
4.22842
4.3138
4.35669
4.36816
4.36827
4.36815
4.35667
4.31377
4.22843
4.09986
3.93169
3.73072
3.50929
3.28939
3.1033
2.98244
2.93611
2.94187
2.96505
2.98417
2.99453
2.99875
3.00001
3.0002
3.00014
3.00007
3.00003
3.00001
3
3
3
3
3
3
3.32605
3.48083
3.71604
3.94704
4.13415
4.26107
4.29939
4.18161
3.85756
3.46897
3.29494
3.46894
3.85756
4.18173
4.29978
4.26225
4.13789
3.95819
3.74108
3.506
3.28031
3.09854
2.98874
2.95169
2.95865
2.97688
2.99032
2.99696
2.99942
3.00007
3.00013
3.00008
3.00003
3.00001
3
3
3
3
3
3
3.56693
3.72062
3.94704
4.15251
4.27844
4.21475
3.5051
1.87466
1.12349
1.00653
0.995049
1.00653
1.12354
1.87539
3.50778
4.21826
4.28403
4.16372
3.96642
3.72681
3.47303
3.24032
3.06777
2.97793
2.9574
2.96929
2.98484
2.99436
2.99848
2.99982
3.0001
3.00009
3.00005
3.00002
3.00001
3
3
3
3
3
3.77954
3.92928
4.13415
4.27844
4.16122
2.71219
1.06453
1.00212
1.07864
1.13921
1.16119
1.13921
1.07866
1.0022
1.06537
2.72559
4.1723
4.28907
4.14546
3.91818
3.65332
3.38788
3.16507
3.02253
2.96608
2.96434
2.97917
2.99118
2.9972
2.99943
3.00002
3.00009
3.00005
3.00002
3.00001
3
3
3
3
3
3.95818
4.09947
4.26107
4.21475
2.71219
1.00106
1.0508
1.18849
1.31144
1.39387
1.42279
1.39388
1.31146
1.18852
1.05087
1.0019
2.73985
4.22419
4.26015
4.06976
3.80881
3.52652
3.26834
3.08036
2.98545
2.96404
2.97446
2.98785
2.99568
2.99891
2.99989
3.00007
3.00006
3.00003
3.00001
3
3
3
3
3
4.10171
4.22842
4.29939
3.5051
1.06453
1.0508
1.23018
1.41119
1.5606
1.65844
1.69243
1.65845
1.56062
1.41122
1.23014
1.05041
1.06651
3.50696
4.27791
4.17672
3.93358
3.64612
3.36549
3.14242
3.01219
2.96855
2.97148
2.98482
2.9941
2.99831
2.99972
3.00004
3.00006
3.00003
3.00001
3
3
3
3
3
4.20981
4.3138
4.18161
1.87466
1.00212
1.18849
1.41119
1.62034
1.78896
1.89761
1.93502
1.89762
1.78898
1.62037
1.4111
1.18779
0.999298
1.85663
4.1211
4.23591
4.02535
3.74075
3.44743
3.19963
3.04078
2.97619
2.97031
2.98242
2.99265
2.99771
2.99953
3
3.00005
3.00002
3
2.99999
2.99999
2.99999
3
3
4.28357
4.35669
3.85756
1.12349
1.07864
1.31144
1.5606
1.78896
1.96974
2.08459
2.12384
2.0846
1.96976
1.78898
1.56048
1.31056
1.07512
1.11039
3.73074
4.24983
4.08533
3.80798
3.50851
3.24491
3.06563
2.98435
2.97039
2.98079
2.99151
2.9972
2.99935
2.99995
3.00003
3.00001
2.99999
2.99998
2.99998
2.99998
2.99999
2.99999
4.32565
4.36816
3.46897
1.00653
1.13921
1.39387
1.65844
1.89761
2.08459
2.20228
2.2423
2.20229
2.08462
1.89763
1.6583
1.39287
1.13547
0.996859
3.27571
4.23603
4.11776
3.84772
3.5459
3.27369
3.08231
2.99045
2.97092
2.97989
2.99081
2.99689
2.99926
2.99994
3.00004
3.00002
2.99998
2.99997
2.99996
2.99996
2.99997
2.99997
4.33919
4.36827
3.29494
0.995049
1.16119
1.42279
1.69243
1.93502
2.12384
2.2423
2.28253
2.24231
2.12386
1.93505
1.69228
1.42175
1.15739
0.985979
3.07685
4.22568
4.12777
3.8608
3.55844
3.28352
3.08817
2.99273
2.97126
2.97972
2.99073
2.99695
2.99941
3.00011
3.00019
3.00013
3.00006
3
2.99996
2.99994
2.99993
2.99993
4.32564
4.36815
3.46894
1.00653
1.13921
1.39388
1.65845
1.89762
2.0846
2.20229
2.24231
2.20229
2.08462
1.89764
1.65831
1.39288
1.13547
0.996864
3.27567
4.236
4.11774
3.84768
3.54587
3.27369
3.08243
2.99074
2.9714
2.98055
2.99163
2.9978
3.00021
3.00084
3.00085
3.00067
3.00045
3.00026
3.00009
2.99998
2.99991
2.99987
4.28355
4.35667
3.85756
1.12354
1.07866
1.31146
1.56062
1.78898
1.96976
2.08462
2.12386
2.08462
1.96978
1.789
1.5605
1.31057
1.07514
1.11044
3.73072
4.24979
4.08528
3.80792
3.50851
3.24514
3.06628
2.98557
2.97221
2.98313
2.99427
3.00022
3.00246
3.00296
3.00277
3.00233
3.00179
3.00123
3.00072
3.00032
3.00004
2.9999
4.20977
4.31377
4.18173
1.87539
1.0022
1.18852
1.41122
1.62037
1.78898
1.89763
1.93505
1.89764
1.789
1.6204
1.41113
1.18783
0.999369
1.85733
4.12123
4.23588
4.02529
3.74075
3.44777
3.20078
3.04318
2.98001
2.97546
2.98866
2.99967
3.0052
3.00717
3.00747
3.00703
3.00621
3.00512
3.00389
3.00265
3.00156
3.00076
3.00034
4.10162
4.22843
4.29978
3.50778
1.06537
1.05087
1.23014
1.4111
1.56048
1.6583
1.69228
1.65831
1.5605
1.41113
1.23009
1.05047
1.06736
3.50962
4.27835
4.17682
3.93367
3.6466
3.36716
3.14623
3.01872
2.97776
2.98283
2.9976
3.0077
3.01229
3.0138
3.01401
3.01362
3.01275
3.01132
3.00937
3.00708
3.00484
3.00305
3.00206
3.95823
4.09986
4.26225
4.21826
2.72559
1.0019
1.05041
1.18779
1.31056
1.39287
1.42175
1.39288
1.31057
1.18783
1.05047
1.00276
2.75313
4.22766
4.26147
4.0706
3.80987
3.52892
3.2737
3.08992
2.99925
2.98093
2.99268
3.00577
3.01236
3.01433
3.01478
3.01549
3.01674
3.01795
3.01829
3.0172
3.01471
3.01148
3.00849
3.0067
3.78109
3.93169
4.13789
4.28403
4.1723
2.73985
1.06651
0.999298
1.07512
1.13547
1.15739
1.13547
1.07514
0.999369
1.06736
2.75313
4.18317
4.29457
4.14947
3.92189
3.65811
3.39589
3.17823
3.04084
2.98705
2.98363
2.99207
2.99435
2.98996
2.98427
2.98191
2.98496
2.99291
3.00343
3.01335
3.02004
3.02241
3.02123
3.01849
3.01642
3.57571
3.73072
3.95819
4.16372
4.28907
4.22419
3.50696
1.85663
1.11039
0.996859
0.985979
0.996864
1.11044
1.85733
3.50962
4.22766
4.29457
4.17483
3.97801
3.73953
3.48868
3.2608
3.09242
3.00146
2.96994
2.95843
2.93954
2.90939
2.87713
2.8533
2.84466
2.85364
2.87895
2.91573
2.95603
2.99112
3.01518
3.02753
3.03165
3.03218
3.35566
3.50929
3.74108
3.96642
4.14546
4.26015
4.27791
4.1211
3.73074
3.27571
3.07685
3.27567
3.73072
4.12123
4.27835
4.26147
4.14947
3.97801
3.76715
3.53799
3.31807
3.13836
3.01943
2.95275
2.90197
2.83496
2.74945
2.66497
2.60008
2.56173
2.54932
2.56184
2.60106
2.66909
2.7616
2.86238
2.9489
3.00704
3.03771
3.04966
3.14819
3.28939
3.506
3.72681
3.91818
4.06976
4.17672
4.23591
4.24983
4.23603
4.22568
4.236
4.24979
4.23588
4.17682
4.0706
3.92189
3.73953
3.53799
3.33839
3.16504
3.03398
2.93586
2.83289
2.69525
2.54403
2.42816
2.36785
2.34883
2.34812
2.34968
2.34815
2.34929
2.37014
2.43605
2.56528
2.73937
2.9006
3.00499
3.05096
2.99193
3.1033
3.28031
3.47303
3.65332
3.80881
3.93358
4.02535
4.08533
4.11776
4.12777
4.11774
4.08528
4.02529
3.93367
3.80987
3.65811
3.48868
3.31807
3.16504
3.0395
2.92509
2.77487
2.56721
2.3787
2.29653
2.31248
2.37446
2.44081
2.48792
2.50468
2.48794
2.44105
2.37568
2.31691
2.30972
2.41191
2.6322
2.86151
2.98689
2.91544
2.98244
3.09854
3.24032
3.38788
3.52652
3.64612
3.74075
3.80798
3.84772
3.8608
3.84768
3.80792
3.74075
3.6466
3.52892
3.39589
3.2608
3.13836
3.03398
2.92509
2.75222
2.4948
2.29411
2.27001
2.37108
2.51435
2.65014
2.75533
2.82059
2.8426
2.8206
2.75548
2.65085
2.51686
2.37814
2.28659
2.32772
2.54143
2.75186
2.91104
2.93611
2.98874
3.06777
3.16507
3.26834
3.36549
3.44743
3.50851
3.5459
3.55844
3.54587
3.50851
3.44777
3.36716
3.2737
3.17823
3.09242
3.01943
2.93586
2.77487
2.4948
2.27109
2.27799
2.43903
2.64386
2.83435
2.98826
3.09917
3.16579
3.18799
3.1658
3.09927
2.98872
2.83593
2.64765
2.44414
2.27433
2.2223
2.29643
2.94057
2.94187
2.95169
2.97793
3.02253
3.08036
3.14242
3.19963
3.24491
3.27369
3.28352
3.27369
3.24514
3.20078
3.14623
3.08992
3.04084
3.00146
2.95275
2.83289
2.56721
2.29411
2.27799
2.46594
2.71474
2.94917
3.14438
3.29588
3.40391
3.46878
3.49043
3.46878
3.40397
3.29621
3.14553
2.95162
2.71437
2.43909
2.15806
1.96689
2.97035
2.96505
2.95865
2.9574
2.96608
2.98545
3.01219
3.04078
3.06563
3.08231
3.08817
3.08243
3.06628
3.04318
3.01872
2.99925
2.98705
2.96994
2.90197
2.69525
2.3787
2.27001
2.43903
2.71474
2.98746
3.22112
3.41093
3.55848
3.66455
3.72869
3.75018
3.72869
3.66459
3.55871
3.41186
3.22318
2.9857
2.67833
2.29175
1.97555
2.98853
2.98417
2.97688
2.96929
2.96434
2.96404
2.96855
2.97619
2.98435
2.99045
2.99273
2.99074
2.98557
2.98001
2.97776
2.98093
2.98363
2.95843
2.83496
2.54403
2.29653
2.37108
2.64386
2.94917
3.22112
3.4487
3.63445
3.78035
3.88615
3.9505
3.97211
3.9505
3.88617
3.78051
3.63521
3.45065
3.21982
2.91211
2.49518
2.14727
2.99678
2.99453
2.99032
2.98484
2.97917
2.97446
2.97148
2.97031
2.97039
2.97092
2.97126
2.9714
2.97221
2.97546
2.98283
2.99268
2.99207
2.93954
2.74945
2.42816
2.31248
2.51435
2.83435
3.14438
3.41093
3.63445
3.81863
3.96444
4.0707
4.1355
4.15729
4.1355
4.07071
3.96455
3.81928
3.63634
3.41049
3.11021
2.69383
2.34645
2.99963
2.99875
2.99696
2.99436
2.99118
2.98785
2.98482
2.98242
2.98079
2.97989
2.97972
2.98055
2.98313
2.98866
2.9976
3.00577
2.99435
2.90939
2.66497
2.36785
2.37446
2.65014
2.98826
3.29588
3.55848
3.78035
3.96444
4.1107
4.21742
4.28249
4.30435
4.28249
4.21742
4.11078
3.96498
3.78217
3.55875
3.26497
2.8563
2.51623
3.00028
3.00001
2.99942
2.99848
2.9972
2.99568
2.9941
2.99265
2.99151
2.99081
2.99073
2.99163
2.99427
2.99967
3.0077
3.01236
2.98996
2.87713
2.60008
2.34883
2.44081
2.75533
3.09917
3.40391
3.66455
3.88615
4.0707
4.21742
4.32431
4.38929
4.41107
4.38929
4.32431
4.21748
4.07116
3.88789
3.66527
3.37548
2.97324
2.63887
3.00026
3.0002
3.00007
2.99982
2.99943
2.99891
2.99831
2.99771
2.9972
2.99689
2.99695
2.9978
3.00022
3.0052
3.01229
3.01433
2.98427
2.8533
2.56173
2.34812
2.48792
2.82059
3.16579
3.46878
3.72869
3.9505
4.1355
4.28249
4.38929
4.45398
4.47559
4.45397
4.38929
4.28254
4.13592
3.95217
3.72966
3.44183
3.04321
2.71176
3.00014
3.00014
3.00013
3.0001
3.00002
2.99989
2.99972
2.99953
2.99935
2.99926
2.99941
3.00021
3.00246
3.00717
3.0138
3.01478
2.98191
2.84466
2.54932
2.34968
2.50468
2.8426
3.18799
3.49043
3.75018
3.97211
4.15729
4.30435
4.41107
4.47559
4.49712
4.47559
4.41107
4.30439
4.15769
3.97376
3.75122
3.46397
3.06648
2.73587
3.00006
3.00007
3.00008
3.00009
3.00009
3.00007
3.00004
3
2.99995
2.99994
3.00011
3.00084
3.00296
3.00747
3.01401
3.01549
2.98496
2.85364
2.56184
2.34815
2.48794
2.8206
3.1658
3.46878
3.72869
3.9505
4.1355
4.28249
4.38929
4.45397
4.47559
4.45397
4.38929
4.28253
4.13592
3.95217
3.72966
3.44185
3.04324
2.7118
3.00002
3.00003
3.00003
3.00005
3.00005
3.00006
3.00006
3.00005
3.00003
3.00004
3.00019
3.00085
3.00277
3.00703
3.01362
3.01674
2.99291
2.87895
2.60106
2.34929
2.44105
2.75548
3.09927
3.40397
3.66459
3.88617
4.07071
4.21742
4.32431
4.38929
4.41107
4.38929
4.32431
4.21749
4.07117
3.88791
3.66532
3.37557
2.97339
2.63904
3.00001
3.00001
3.00001
3.00002
3.00002
3.00003
3.00003
3.00002
3.00001
3.00002
3.00013
3.00067
3.00233
3.00621
3.01275
3.01795
3.00343
2.91573
2.66909
2.37014
2.37568
2.65085
2.98872
3.29621
3.55871
3.78051
3.96455
4.11078
4.21748
4.28254
4.30439
4.28253
4.21749
4.11086
3.9651
3.78233
3.55899
3.26536
2.85687
2.51686
3
3
3
3.00001
3.00001
3.00001
3.00001
3
2.99999
2.99998
3.00006
3.00045
3.00179
3.00512
3.01132
3.01829
3.01335
2.95603
2.7616
2.43605
2.31691
2.51686
2.83593
3.14553
3.41186
3.63521
3.81928
3.96498
4.07116
4.13592
4.15769
4.13592
4.07117
3.9651
3.81992
3.63711
3.41144
3.1115
2.69556
2.34827
3
3
3
3
3
3
3
2.99999
2.99998
2.99997
3
3.00026
3.00123
3.00389
3.00937
3.0172
3.02004
2.99112
2.86238
2.56528
2.30972
2.37814
2.64765
2.95162
3.22318
3.45065
3.63634
3.78217
3.88789
3.95217
3.97376
3.95217
3.88791
3.78233
3.63711
3.45262
3.22194
2.91474
2.49878
2.15124
3
3
3
3
3
3
3
2.99999
2.99998
2.99996
2.99996
3.00009
3.00072
3.00265
3.00708
3.01471
3.02241
3.01518
2.9489
2.73937
2.41191
2.28659
2.44414
2.71437
2.9857
3.21982
3.41049
3.55875
3.66527
3.72966
3.75122
3.72966
3.66532
3.55899
3.41144
3.22194
2.984
2.6779
2.29531
1.98244
3
3
3
3
3
3
3
2.99999
2.99998
2.99996
2.99994
2.99998
3.00032
3.00156
3.00484
3.01148
3.02123
3.02753
3.00704
2.9006
2.6322
2.32772
2.27433
2.43909
2.67833
2.91211
3.11021
3.26497
3.37548
3.44183
3.46397
3.44185
3.37557
3.26536
3.1115
2.91474
2.6779
2.41159
2.15116
1.98147
3
3
3
3
3
3
3
3
2.99999
2.99997
2.99993
2.99991
3.00004
3.00076
3.00305
3.00849
3.01849
3.03165
3.03771
3.00499
2.86151
2.54143
2.2223
2.15806
2.29175
2.49518
2.69383
2.8563
2.97324
3.04321
3.06648
3.04324
2.97339
2.85687
2.69556
2.49878
2.29531
2.15116
2.16818
2.3224
3
3
3
3
3
3
3
3
2.99999
2.99997
2.99993
2.99987
2.9999
3.00034
3.00206
3.0067
3.01642
3.03218
3.04966
3.05096
2.98689
2.75186
2.29643
1.96689
1.97555
2.14727
2.34645
2.51623
2.63887
2.71176
2.73587
2.7118
2.63904
2.51686
2.34827
2.15124
1.98244
1.98147
2.3224
2.7119
