# vtk DataFile Version 3.0
Brusselator Concentration Output
ASCII
DATASET STRUCTURED_POINTS
DIMENSIONS 40 40 1
ORIGIN 0.0 0.0 0.0
SPACING 0.005 0.005 1.0
POINT_DATA 1600
SCALARS C1 double 1
LOOKUP_TABLE default
1.0001
1.00017
1.00029
1.00039
1.00028
0.99968
0.99838
0.996484
0.994475
0.992971
0.992419
0.992971
0.994475
0.996484
0.99838
0.99968
1.00028
1.00039
1.00029
1.00016
1.00007
1.00003
1.00001
1
1
1
1
1
1
1
1
1
1
1
1
1
1
1
1
1
1.00017
1.00024
1.00029
1.00008
0.999172
0.997078
0.993691
0.989598
0.985855
0.983352
0.982489
0.983352
0.985855
0.989598
0.993691
0.997078
0.999172
1.00008
1.00028
1.00022
1.00012
1.00005
1.00002
1.00001
1
1
1
1
1
1
1
1
1
1
1
1
1
1
1
1
1.00029
1.00029
1
0.998739
0.995549
0.989798
0.982057
0.974209
0.968264
0.964999
0.96402
0.964999
0.968264
0.974209
0.982057
0.989798
0.995547
0.998735
0.999986
1.00025
1.00019
1.0001
1.00004
1.00001
1
1
1
1
1
1
1
1
1
1
1
1
1
1
1
1
1.00039
1.00008
0.998739
0.994925
0.987166
0.975467
0.962472
0.952379
0.947821
0.947599
0.948139
0.947599
0.947821
0.952379
0.962472
0.975466
0.987163
0.994916
0.998711
1.00001
1.00023
1.00016
1.00007
1.00003
1.00001
1
1
1
1
1
1
1
1
1
1
1
1
1
1
1
1.00028
0.999172
0.995549
0.987166
0.972855
0.955157
0.94086
0.937565
0.947749
0.963832
0.971571
0.963832
0.947749
0.937565
0.94086
0.955156
0.97285
0.987149
0.9955
0.999057
1.00008
1.0002
1.00012
1.00005
1.00002
1.00001
1
1
1
1
1
1
1
1
1
1
1
1
1
1
0.99968
0.997078
0.989798
0.975467
0.955157
0.936729
0.934271
0.963459
1.03038
1.10775
1.14183
1.10775
1.03038
0.963459
0.934271
0.936726
0.955148
0.975439
0.989725
0.996931
0.999541
1.00014
1.00015
1.00007
1.00003
1.00001
1
1
1
1
1
1
1
1
1
1
1
1
1
1
0.99838
0.993691
0.982057
0.962472
0.94086
0.934271
0.973621
1.10753
1.35893
1.59559
1.67861
1.59559
1.35893
1.10753
0.97362
0.934268
0.940847
0.962433
0.981964
0.993549
0.998463
0.999917
1.00014
1.00009
1.00004
1.00001
1
1
1
1
1
1
1
1
1
1
1
1
1
1
0.996484
0.989598
0.974209
0.952379
0.937565
0.963459
1.10753
1.50576
1.97749
2.06861
2.0485
2.06861
1.97749
1.50576
1.10753
0.963454
0.937547
0.952329
0.974105
0.989512
0.996962
0.999522
1.00009
1.00011
1.00005
1.00002
1.00001
1
1
1
1
1
1
1
1
1
1
1
1
1
0.994475
0.985855
0.968264
0.947821
0.947749
1.03038
1.35893
1.97749
2.03092
1.8345
1.75617
1.8345
2.03092
1.97749
1.35893
1.03037
0.947726
0.947763
0.968163
0.985859
0.995418
0.999053
0.999995
1.0001
1.00006
1.00002
1.00001
1
1
1
1
1
1
1
1
1
1
1
1
1
0.992971
0.983352
0.964999
0.947599
0.963832
1.10775
1.59559
2.06861
1.8345
1.59364
1.50933
1.59364
1.8345
2.0686
1.59559
1.10774
0.963806
0.947537
0.964904
0.98344
0.994287
0.998678
0.99991
1.0001
1.00006
1.00003
1.00001
1
1
1
1
1
1
1
1
1
1
1
1
1
0.992419
0.982489
0.96402
0.948139
0.971571
1.14183
1.67861
2.0485
1.75617
1.50933
1.42486
1.50933
1.75617
2.04849
1.6786
1.14182
0.971543
0.948076
0.963929
0.98261
0.993877
0.998535
0.999875
1.00009
1.00006
1.00003
1.00001
1
1
1
1
1
1
1
1
1
1
1
1
1
0.992971
0.983352
0.964999
0.947599
0.963832
1.10775
1.59559
2.06861
1.8345
1.59364
1.50933
1.59364
1.8345
2.0686
1.59559
1.10774
0.963806
0.947537
0.964904
0.98344
0.994287
0.998678
0.99991
1.0001
1.00006
1.00003
1.00001
1
1
1
1
1
1
1
1
1
1
1
1
1
0.994475
0.985855
0.968264
0.947821
0.947749
1.03038
1.35893
1.97749
2.03092
1.8345
1.75617
1.8345
2.03092
1.97749
1.35893
1.03037
0.947726
0.947763
0.968163
0.985859
0.995418
0.999053
0.999995
1.0001
1.00006
1.00002
1.00001
1
1
1
1
1
1
1
1
1
1
1
1
1
0.996484
0.989598
0.974209
0.952379
0.937565
0.963459
1.10753
1.50576
1.97749
2.0686
2.04849
2.0686
1.97749
1.50576
1.10753
0.963453
0.937547
0.952329
0.974105
0.989512
0.996962
0.999522
1.00009
1.00011
1.00005
1.00002
1.00001
1
1
0.999999
0.999999
0.999999
0.999999
1
1
1
1
1
1
1
0.99838
0.993691
0.982057
0.962472
0.94086
0.934271
0.97362
1.10753
1.35893
1.59559
1.6786
1.59559
1.35893
1.10753
0.973618
0.934267
0.940847
0.962433
0.981963
0.993549
0.998463
0.999917
1.00014
1.00009
1.00004
1.00001
1
0.999999
0.999998
0.999997
0.999997
0.999997
0.999998
0.999998
0.999999
0.999999
1
1
1
1
0.99968
0.997078
0.989798
0.975466
0.955156
0.936726
0.934268
0.963454
1.03037
1.10774
1.14182
1.10774
1.03037
0.963453
0.934267
0.936724
0.955147
0.975439
0.989725
0.996931
0.999541
1.00014
1.00015
1.00007
1.00003
1.00001
0.999998
0.999995
0.999993
0.999992
0.999991
0.999992
0.999993
0.999994
0.999996
0.999997
0.999998
0.999999
1
1
1.00028
0.999172
0.995547
0.987163
0.97285
0.955148
0.940847
0.937547
0.947726
0.963806
0.971543
0.963806
0.947726
0.937547
0.940847
0.955147
0.972845
0.987147
0.995499
0.999056
1.00008
1.0002
1.00011
1.00005
1.00001
0.999996
0.999988
0.999983
0.99998
0.999978
0.999978
0.999978
0.99998
0.999983
0.999987
0.999991
0.999995
0.999997
0.999999
0.999999
1.00039
1.00008
0.998735
0.994916
0.987149
0.975439
0.962433
0.952329
0.947763
0.947537
0.948076
0.947537
0.947763
0.952329
0.962433
0.975439
0.987147
0.994907
0.998706
1.00001
1.00023
1.00016
1.00007
1.00002
0.999994
0.999978
0.999968
0.999961
0.999959
0.999959
0.999959
0.999959
0.999959
0.999961
0.999967
0.999976
0.999984
0.999991
0.999995
0.999997
1.00029
1.00028
0.999986
0.998711
0.9955
0.989725
0.981964
0.974105
0.968163
0.964904
0.963929
0.964904
0.968163
0.974105
0.981963
0.989725
0.995499
0.998706
0.999971
1.00024
1.00019
1.00009
1.00003
0.99999
0.999965
0.999947
0.999939
0.999947
0.999967
0.999988
0.999997
0.999988
0.999967
0.999947
0.999939
0.999946
0.999961
0.999976
0.999987
0.999992
1.00016
1.00022
1.00025
1.00001
0.999057
0.996931
0.993549
0.989512
0.985859
0.98344
0.98261
0.98344
0.985859
0.989512
0.993549
0.996931
0.999056
1.00001
1.00024
1.0002
1.00011
1.00003
0.999987
0.999952
0.999926
0.999924
0.999969
1.00007
1.00021
1.00033
1.00037
1.00033
1.00021
1.00007
0.999969
0.999923
0.999924
0.999945
0.999966
0.999978
1.00007
1.00012
1.00019
1.00023
1.00008
0.999541
0.998463
0.996962
0.995418
0.994287
0.993877
0.994287
0.995418
0.996962
0.998463
0.999541
1.00008
1.00023
1.00019
1.00011
1.00004
0.999986
0.999942
0.999908
0.999921
1.00005
1.00035
1.00083
1.00138
1.0018
1.00196
1.0018
1.00138
1.00083
1.00035
1.00005
0.999919
0.999904
0.999927
0.999948
1.00003
1.00005
1.0001
1.00016
1.0002
1.00014
0.999917
0.999522
0.999053
0.998678
0.998535
0.998678
0.999053
0.999522
0.999917
1.00014
1.0002
1.00016
1.00009
1.00003
0.999986
0.999938
0.999899
0.999927
1.00016
1.00079
1.00195
1.00351
1.00506
1.00616
1.00655
1.00616
1.00506
1.00351
1.00195
1.00079
1.00016
0.99992
0.999881
0.999893
1.00001
1.00002
1.00004
1.00007
1.00012
1.00015
1.00014
1.00009
0.999995
0.99991
0.999875
0.99991
0.999995
1.00009
1.00014
1.00015
1.00011
1.00007
1.00003
0.999987
0.999942
0.999899
0.999931
1.00024
1.00122
1.00328
1.00649
1.01022
1.01336
1.01521
1.01579
1.01521
1.01336
1.01022
1.00649
1.00328
1.00122
1.00023
0.999898
0.99983
1
1.00001
1.00001
1.00003
1.00005
1.00007
1.00009
1.00011
1.0001
1.0001
1.00009
1.0001
1.0001
1.00011
1.00009
1.00007
1.00005
1.00002
0.99999
0.999952
0.999908
0.999927
1.00024
1.0014
1.00421
1.00926
1.01587
1.02174
1.02473
1.02514
1.02494
1.02514
1.02473
1.02174
1.01587
1.00926
1.00421
1.00138
1.00019
0.999832
1
1
1
1.00001
1.00002
1.00003
1.00004
1.00005
1.00006
1.00006
1.00006
1.00006
1.00006
1.00005
1.00004
1.00003
1.00001
0.999994
0.999965
0.999926
0.999921
1.00016
1.00122
1.00421
1.0104
1.0196
1.02818
1.03032
1.02441
1.01607
1.01239
1.01607
1.02441
1.03032
1.02818
1.0196
1.01039
1.00418
1.00114
1.00008
1
1
1
1
1.00001
1.00001
1.00001
1.00002
1.00002
1.00003
1.00003
1.00003
1.00002
1.00002
1.00001
1.00001
0.999996
0.999978
0.999947
0.999924
1.00005
1.00079
1.00328
1.00926
1.0196
1.03051
1.03147
1.0138
0.983601
0.95746
0.947592
0.95746
0.983601
1.01379
1.03146
1.0305
1.01958
1.00921
1.0032
1.00084
1
1
1
1
1
1
1
1.00001
1.00001
1.00001
1.00001
1.00001
1.00001
1.00001
1
0.999998
0.999988
0.999968
0.999939
0.999969
1.00035
1.00195
1.00649
1.01587
1.02818
1.03147
1.00729
0.953208
0.891971
0.848631
0.833721
0.848631
0.891971
0.953207
1.00729
1.03145
1.02814
1.01581
1.00646
1.0023
1
1
1
1
1
1
1
1
1
1
1
1
1
1
0.999999
0.999995
0.999983
0.999961
0.999947
1.00007
1.00083
1.00351
1.01022
1.02174
1.03032
1.0138
0.953208
0.863744
0.78256
0.7328
0.71698
0.7328
0.78256
0.863742
0.953203
1.01378
1.03028
1.02169
1.0103
1.00434
1
1
1
1
1
1
1
1
1
1
1
1
1
1
0.999998
0.999993
0.99998
0.999959
0.999967
1.00021
1.00138
1.00506
1.01336
1.02473
1.02441
0.983601
0.891971
0.78256
0.696932
0.650247
0.636571
0.650247
0.696931
0.782559
0.891965
0.983583
1.02437
1.0247
1.01357
1.00644
1
1
1
1
1
1
1
1
1
1
1
1
1
0.999999
0.999997
0.999992
0.999978
0.999959
0.999988
1.00033
1.0018
1.00616
1.01521
1.02514
1.01607
0.95746
0.848631
0.7328
0.650247
0.609248
0.59826
0.609248
0.650246
0.732798
0.848625
0.957441
1.01603
1.02513
1.01555
1.00797
1
1
1
1
1
1
1
1
1
1
1
1
1
0.999999
0.999997
0.999991
0.999978
0.999959
0.999997
1.00037
1.00196
1.00655
1.01579
1.02494
1.01239
0.947592
0.833721
0.71698
0.636571
0.59826
0.588492
0.59826
0.636571
0.716978
0.833715
0.947572
1.01235
1.02495
1.01617
1.00852
1
1
1
1
1
1
1
1
1
1
1
1
1
0.999999
0.999997
0.999992
0.999978
0.999959
0.999988
1.00033
1.0018
1.00616
1.01521
1.02514
1.01607
0.95746
0.848631
0.7328
0.650247
0.609248
0.59826
0.609247
0.650246
0.732798
0.848625
0.957441
1.01603
1.02513
1.01555
1.00797
1
1
1
1
1
1
1
1
1
1
1
1
1
0.999999
0.999998
0.999993
0.99998
0.999959
0.999967
1.00021
1.00138
1.00506
1.01336
1.02473
1.02441
0.983601
0.891971
0.78256
0.696931
0.650246
0.636571
0.650246
0.696931
0.782558
0.891965
0.983582
1.02437
1.0247
1.01357
1.00644
1
1
1
1
1
1
1
1
1
1
1
1
1
1
0.999998
0.999994
0.999983
0.999961
0.999947
1.00007
1.00083
1.00351
1.01022
1.02174
1.03032
1.01379
0.953207
0.863742
0.782559
0.732798
0.716978
0.732798
0.782558
0.863741
0.953202
1.01378
1.03028
1.02169
1.0103
1.00434
1
1
1
1
1
1
1
1
1
1
1
1
1
1
0.999999
0.999996
0.999987
0.999967
0.999939
0.999969
1.00035
1.00195
1.00649
1.01587
1.02818
1.03146
1.00729
0.953203
0.891965
0.848625
0.833715
0.848625
0.891965
0.953202
1.00728
1.03145
1.02814
1.01581
1.00646
1.0023
1
1
1
1
1
1
1
1
1
1
1
1
1
1
0.999999
0.999997
0.999991
0.999976
0.999946
0.999923
1.00005
1.00079
1.00328
1.00926
1.0196
1.0305
1.03145
1.01378
0.983583
0.957441
0.947572
0.957441
0.983582
1.01378
1.03145
1.03049
1.01957
1.0092
1.0032
1.00084
1
1
1
1
1
1
1
1
1
1
1
1
1
1
1
0.999998
0.999995
0.999984
0.999961
0.999924
0.999919
1.00016
1.00122
1.00421
1.01039
1.01958
1.02814
1.03028
1.02437
1.01603
1.01235
1.01603
1.02437
1.03028
1.02814
1.01957
1.01037
1.00417
1.00114
1.00008
1
1
1
1
1
1
1
1
1
1
1
1
1
1
1
0.999999
0.999997
0.999991
0.999976
0.999945
0.999904
0.99992
1.00023
1.00138
1.00418
1.00921
1.01581
1.02169
1.0247
1.02513
1.02495
1.02513
1.0247
1.02169
1.01581
1.0092
1.00417
1.00135
1.00018
0.999824
1
1
1
1
1
1
1
1
1
1
1
1
1
1
1
1
0.999999
0.999995
0.999987
0.999966
0.999927
0.999881
0.999898
1.00019
1.00114
1.0032
1.00646
1.0103
1.01357
1.01555
1.01617
1.01555
1.01357
1.0103
1.00646
1.0032
1.00114
1.00018
0.999865
0.999808
1
1
1
1
1
1
1
1
1
1
1
1
1
1
1
1
0.999999
0.999997
0.999992
0.999978
0.999948
0.999893
0.99983
0.999832
1.00008
1.00084
1.0023
1.00434
1.00644
1.00797
1.00852
1.00797
1.00644
1.00434
1.0023
1.00084
1.00008
0.999824
0.999808
0.999841
SCALARS C2 double 1
LOOKUP_TABLE default
2.99987
2.99977
2.99954
2.9992
2.9989
2.99897
2.99981
3.00157
3.00381
3.00568
3.00641
3.00568
3.00381
3.00157
2.99981
2.99897
2.9989
2.9992
2.99954
2.99978
2.99991
2.99997
2.99999
3
3
3
3
3
3
3
3
3
3
3
3
3
3
3
3
3
2.99977
2.99961
2.99933
2.99911
2.99947
3.00119
3.00492
3.0104
3.01623
3.0206
3.0222
3.0206
3.01623
3.0104
3.00492
3.00119
2.99947
2.99911
2.99933
2.99963
2.99983
2.99994
2.99998
2.99999
3
3
3
3
3
3
3
3
3
3
3
3
3
3
3
3
2.99954
2.99933
2.99915
2.99975
3.00259
3.00941
3.02084
3.03512
3.04852
3.05759
3.06073
3.05759
3.04852
3.03512
3.02084
3.00941
3.00259
2.99976
2.99917
2.99938
2.99967
2.99986
2.99995
2.99998
3
3
3
3
3
3
3
3
3
3
3
3
3
3
3
3
2.9992
2.99911
2.99975
3.00316
3.01251
3.03048
3.05625
3.08423
3.10689
3.11998
3.12399
3.11998
3.10689
3.08423
3.05625
3.03048
3.01251
3.00317
2.99979
2.99921
2.99946
2.99974
2.9999
2.99997
2.99999
3
3
3
3
3
3
3
3
3
3
3
3
3
3
3
2.9989
2.99947
3.00259
3.01251
3.03442
3.07044
3.11501
3.15521
3.1785
3.18391
3.18321
3.18391
3.1785
3.15521
3.11501
3.07044
3.03443
3.01253
3.00266
2.99965
2.99931
2.99958
2.99982
2.99993
2.99998
2.99999
3
3
3
3
3
3
3
3
3
3
3
3
3
3
2.99897
3.00119
3.00941
3.03048
3.07044
3.12724
3.18507
3.21627
3.1965
3.13993
3.10896
3.13993
3.1965
3.21627
3.18508
3.12724
3.07045
3.03051
3.00952
3.00147
2.9995
2.99946
2.99972
2.99989
2.99996
2.99999
3
3
3
3
3
3
3
3
3
3
3
3
3
3
2.99981
3.00492
3.02084
3.05625
3.11501
3.18507
3.22809
3.16961
2.93148
2.62291
2.49397
2.62291
2.93148
3.16961
3.22809
3.18508
3.11502
3.0563
3.021
3.00528
3.00033
2.99949
2.99964
2.99984
2.99994
2.99998
3
3
3
3
3
3
3
3
3
3
3
3
3
3
3.00157
3.0104
3.03512
3.08423
3.15521
3.21627
3.16961
2.78331
2.06237
1.68887
1.61802
1.68887
2.06237
2.78331
3.16961
3.21628
3.15523
3.0843
3.03532
3.01079
3.00185
2.99972
2.9996
2.9998
2.99992
2.99998
2.99999
3
3
3
3
3
3
3
3
3
3
3
3
3
3.00381
3.01623
3.04852
3.10689
3.1785
3.1965
2.93148
2.06237
1.54088
1.51726
1.53971
1.51726
1.54088
2.06237
2.93148
3.19651
3.17853
3.10698
3.04875
3.01661
3.00371
3.00011
2.99962
2.99977
2.99991
2.99997
2.99999
3
3
3
3
3
3
3
3
3
3
3
3
3
3.00568
3.0206
3.05759
3.11998
3.18391
3.13993
2.62291
1.68887
1.51726
1.60812
1.65678
1.60812
1.51726
1.68887
2.62292
3.13994
3.18395
3.12008
3.05783
3.02094
3.00521
3.00048
2.99966
2.99975
2.9999
2.99996
2.99999
3
3
3
3
3
3
3
3
3
3
3
3
3
3.00641
3.0222
3.06073
3.12399
3.18321
3.10896
2.49397
1.61802
1.53971
1.65678
1.71213
1.65678
1.53971
1.61802
2.49397
3.10897
3.18325
3.1241
3.06098
3.02252
3.00579
3.00063
2.99968
2.99975
2.99989
2.99996
2.99999
3
3
3
3
3
3
3
3
3
3
3
3
3
3.00568
3.0206
3.05759
3.11998
3.18391
3.13993
2.62291
1.68887
1.51726
1.60812
1.65678
1.60812
1.51726
1.68887
2.62292
3.13994
3.18395
3.12008
3.05783
3.02094
3.00521
3.00048
2.99966
2.99975
2.9999
2.99996
2.99999
3
3
3
3
3
3
3
3
3
3
3
3
3
3.00381
3.01623
3.04852
3.10689
3.1785
3.1965
2.93148
2.06237
1.54088
1.51726
1.53971
1.51726
1.54088
2.06237
2.93148
3.19651
3.17853
3.10698
3.04875
3.01661
3.00371
3.00011
2.99962
2.99977
2.99991
2.99997
2.99999
3
3
3
3
3
3
3
3
3
3
3
3
3
3.00157
3.0104
3.03512
3.08423
3.15521
3.21627
3.16961
2.78331
2.06237
1.68887
1.61802
1.68887
2.06237
2.78331
3.16961
3.21628
3.15523
3.0843
3.03532
3.01079
3.00185
2.99972
2.9996
2.9998
2.99992
2.99998
2.99999
3
3
3
3
3
3
3
3
3
3
3
3
3
2.99981
3.00492
3.02084
3.05625
3.11501
3.18508
3.22809
3.16961
2.93148
2.62292
2.49397
2.62292
2.93148
3.16961
3.22809
3.18508
3.11502
3.0563
3.021
3.00528
3.00033
2.99949
2.99964
2.99984
2.99994
2.99998
3
3
3
3
3
3
3
3
3
3
3
3
3
3
2.99897
3.00119
3.00941
3.03048
3.07044
3.12724
3.18508
3.21628
3.19651
3.13994
3.10897
3.13994
3.19651
3.21628
3.18508
3.12725
3.07045
3.03051
3.00952
3.00147
2.9995
2.99946
2.99972
2.99989
2.99997
2.99999
3
3.00001
3.00001
3.00001
3.00001
3.00001
3.00001
3.00001
3.00001
3
3
3
3
3
2.9989
2.99947
3.00259
3.01251
3.03443
3.07045
3.11502
3.15523
3.17853
3.18395
3.18325
3.18395
3.17853
3.15523
3.11502
3.07045
3.03443
3.01253
3.00266
2.99965
2.99931
2.99958
2.99982
2.99994
2.99999
3.00001
3.00002
3.00002
3.00003
3.00003
3.00004
3.00003
3.00003
3.00002
3.00002
3.00001
3.00001
3
3
3
2.9992
2.99911
2.99976
3.00317
3.01253
3.03051
3.0563
3.0843
3.10698
3.12008
3.1241
3.12008
3.10698
3.0843
3.0563
3.03051
3.01253
3.00318
2.99979
2.99922
2.99946
2.99974
2.9999
2.99998
3.00001
3.00003
3.00005
3.00007
3.00008
3.00009
3.00009
3.00009
3.00008
3.00007
3.00005
3.00003
3.00002
3.00001
3
3
2.99954
2.99933
2.99917
2.99979
3.00266
3.00952
3.021
3.03532
3.04875
3.05783
3.06098
3.05783
3.04875
3.03532
3.021
3.00952
3.00266
2.99979
2.99918
2.99939
2.99968
2.99987
2.99997
3.00002
3.00005
3.00009
3.00013
3.00015
3.00016
3.00015
3.00015
3.00015
3.00016
3.00015
3.00013
3.00009
3.00006
3.00003
3.00002
3.00001
2.99978
2.99963
2.99938
2.99921
2.99965
3.00147
3.00528
3.01079
3.01661
3.02094
3.02252
3.02094
3.01661
3.01079
3.00528
3.00147
2.99965
2.99922
2.99939
2.99966
2.99985
2.99996
3.00002
3.00008
3.00014
3.0002
3.00023
3.00019
3.0001
3.00001
2.99997
3.00001
3.0001
3.00019
3.00023
3.0002
3.00014
3.00008
3.00005
3.00003
2.99991
2.99983
2.99967
2.99946
2.99931
2.9995
3.00033
3.00185
3.00371
3.00521
3.00579
3.00521
3.00371
3.00185
3.00033
2.9995
2.99931
2.99946
2.99968
2.99985
2.99995
3.00002
3.0001
3.00018
3.00027
3.00028
3.00011
2.99969
2.99913
2.99864
2.99845
2.99864
2.99913
2.99969
3.00011
3.00028
3.00027
3.00019
3.00011
3.00007
2.99997
2.99994
2.99986
2.99974
2.99958
2.99946
2.99949
2.99972
3.00011
3.00048
3.00063
3.00048
3.00011
2.99972
2.99949
2.99946
2.99958
2.99974
2.99987
2.99996
3.00002
3.0001
3.00021
3.00032
3.00029
2.99987
2.99876
2.99692
2.99479
2.99309
2.99246
2.99309
2.99479
2.99692
2.99876
2.99987
3.00029
3.00033
3.00023
3.00016
2.99999
2.99998
2.99995
2.9999
2.99982
2.99972
2.99964
2.9996
2.99962
2.99966
2.99968
2.99966
2.99962
2.9996
2.99964
2.99972
2.99982
2.9999
2.99997
3.00002
3.0001
3.00021
3.00034
3.00029
2.99959
2.9975
2.99343
2.98769
2.98181
2.9776
2.97612
2.9776
2.98181
2.98769
2.99343
2.9975
2.99959
3.0003
3.00038
3.00032
3
2.99999
2.99998
2.99997
2.99993
2.99989
2.99984
2.9998
2.99977
2.99975
2.99975
2.99975
2.99977
2.9998
2.99984
2.99989
2.99994
2.99998
3.00002
3.00008
3.00018
3.00032
3.00029
2.99946
2.99657
2.98997
2.97903
2.96583
2.95452
2.94793
2.94592
2.94793
2.95452
2.96583
2.97903
2.98997
2.99658
2.99949
3.00037
3.00051
3
3
3
2.99999
2.99998
2.99996
2.99994
2.99992
2.99991
2.9999
2.99989
2.9999
2.99991
2.99992
2.99994
2.99997
2.99999
3.00001
3.00005
3.00014
3.00027
3.00029
2.99959
2.99657
2.98849
2.97288
2.95117
2.931
2.92045
2.91907
2.91983
2.91907
2.92045
2.931
2.95118
2.97289
2.98851
2.99662
2.99973
3.00056
3
3
3
3
2.99999
2.99999
2.99998
2.99998
2.99997
2.99996
2.99996
2.99996
2.99997
2.99998
2.99998
2.99999
3.00001
3.00003
3.00009
3.0002
3.00028
2.99987
2.9975
2.98997
2.97288
2.9452
2.91672
2.9057
2.91908
2.94162
2.95193
2.94162
2.91908
2.9057
2.91672
2.94521
2.97292
2.99006
2.9977
3.00015
3
3
3
3
3
3
3
2.99999
2.99999
2.99999
2.99999
2.99999
2.99999
2.99999
3
3
3.00002
3.00005
3.00013
3.00023
3.00011
2.99876
2.99343
2.97903
2.95117
2.91672
2.90222
2.9333
3.00044
3.06434
3.0895
3.06434
3.00044
2.9333
2.90223
2.91674
2.95123
2.97916
2.99366
2.99886
3
3
3
3
3
3
3
3
3
3
3
3
3
3
3
3.00001
3.00002
3.00007
3.00015
3.00019
2.99969
2.99692
2.98769
2.96583
2.931
2.9057
2.9333
3.03139
3.16365
3.27133
3.31136
3.27133
3.16366
3.03139
2.93331
2.90573
2.93107
2.96598
2.98788
2.99661
3
3
3
3
3
3
3
3
3
3
3
3
3
3
3
3.00001
3.00003
3.00008
3.00016
3.0001
2.99913
2.99479
2.98181
2.95452
2.92045
2.91908
3.00044
3.16365
3.35076
3.4936
3.54564
3.4936
3.35076
3.16366
3.00044
2.91911
2.92053
2.95468
2.9819
2.99391
3
3
3
3
3
3
3
3
3
3
3
3
3
3
3
3.00001
3.00003
3.00009
3.00015
3.00001
2.99864
2.99309
2.9776
2.94793
2.91907
2.94162
3.06434
3.27133
3.4936
3.65976
3.72028
3.65976
3.4936
3.27133
3.06435
2.94165
2.91915
2.94808
2.9776
2.99172
3
3
3
3
3
3
3
3
3
3
3
3
3
3
3
3.00001
3.00004
3.00009
3.00015
2.99997
2.99845
2.99246
2.97612
2.94592
2.91983
2.95193
3.0895
3.31136
3.54564
3.72028
3.78409
3.72028
3.54564
3.31136
3.08951
2.95196
2.91991
2.94607
2.97607
2.99089
3
3
3
3
3
3
3
3
3
3
3
3
3
3
3
3.00001
3.00003
3.00009
3.00015
3.00001
2.99864
2.99309
2.9776
2.94793
2.91907
2.94162
3.06434
3.27133
3.4936
3.65976
3.72028
3.65976
3.4936
3.27133
3.06435
2.94165
2.91915
2.94808
2.9776
2.99172
3
3
3
3
3
3
3
3
3
3
3
3
3
3
3
3.00001
3.00003
3.00008
3.00016
3.0001
2.99913
2.99479
2.98181
2.95452
2.92045
2.91908
3.00044
3.16366
3.35076
3.4936
3.54564
3.4936
3.35076
3.16366
3.00044
2.91911
2.92053
2.95468
2.9819
2.99391
3
3
3
3
3
3
3
3
3
3
3
3
3
3
3
3.00001
3.00002
3.00007
3.00015
3.00019
2.99969
2.99692
2.98769
2.96583
2.931
2.9057
2.9333
3.03139
3.16366
3.27133
3.31136
3.27133
3.16366
3.03139
2.93331
2.90573
2.93107
2.96598
2.98788
2.99661
3
3
3
3
3
3
3
3
3
3
3
3
3
3
3
3.00001
3.00002
3.00005
3.00013
3.00023
3.00011
2.99876
2.99343
2.97903
2.95118
2.91672
2.90223
2.93331
3.00044
3.06435
3.08951
3.06435
3.00044
2.93331
2.90223
2.91674
2.95123
2.97916
2.99366
2.99886
3
3
3
3
3
3
3
3
3
3
3
3
3
3
3
3
3.00001
3.00003
3.00009
3.0002
3.00028
2.99987
2.9975
2.98997
2.97289
2.94521
2.91674
2.90573
2.91911
2.94165
2.95196
2.94165
2.91911
2.90573
2.91674
2.94523
2.97292
2.99006
2.9977
3.00015
3
3
3
3
3
3
3
3
3
3
3
3
3
3
3
3
3.00001
3.00002
3.00006
3.00014
3.00027
3.00029
2.99959
2.99658
2.98851
2.97292
2.95123
2.93107
2.92053
2.91915
2.91991
2.91915
2.92053
2.93107
2.95123
2.97292
2.98853
2.99663
2.99973
3.00057
3
3
3
3
3
3
3
3
3
3
3
3
3
3
3
3
3
3.00001
3.00003
3.00008
3.00019
3.00033
3.0003
2.99949
2.99662
2.99006
2.97916
2.96598
2.95468
2.94808
2.94607
2.94808
2.95468
2.96598
2.97916
2.99006
2.99663
2.99953
3.00039
3.00052
3
3
3
3
3
3
3
3
3
3
3
3
3
3
3
3
3
3
3.00002
3.00005
3.00011
3.00023
3.00038
3.00037
2.99973
2.9977
2.99366
2.98788
2.9819
2.9776
2.97607
2.9776
2.9819
2.98788
2.99366
2.9977
2.99973
3.00039
3.00043
3.00035
3
3
3
3
3
3
3
3
3
3
3
3
3
3
3
3
3
3
3.00001
3.00003
3.00007
3.00016
3.00032
3.00051
3.00056
3.00015
2.99886
2.99661
2.99391
2.99172
2.99089
2.99172
2.99391
2.99661
2.99886
3.00015
3.00057
3.00052
3.00035
3.00023
