# vtk DataFile Version 3.0
Brusselator Concentration Output
ASCII
DATASET STRUCTURED_POINTS
DIMENSIONS 40 40 1
ORIGIN 0.0 0.0 0.0
SPACING 0.005 0.005 1.0
POINT_DATA 1600
SCALARS C1 double 1
LOOKUP_TABLE default
0.367212
0.379541
0.400071
0.422515
0.445123
0.468887
0.494107
0.519516
0.542332
0.558635
0.564616
0.558631
0.542299
0.519383
0.493745
0.468185
0.444371
0.423225
0.405384
0.391739
0.384216
0.387359
0.41185
0.481657
0.642905
0.952421
1.39852
1.65047
1.32953
1.0701
0.990235
0.9785
0.984524
0.991987
0.996782
0.999042
0.99985
1.00005
1.00006
1.00004
0.379541
0.393642
0.418145
0.446735
0.47739
0.511832
0.551869
0.597715
0.645722
0.685046
0.700633
0.685034
0.645649
0.597475
0.55131
0.510895
0.47659
0.447982
0.424711
0.406894
0.395725
0.394715
0.412479
0.468453
0.600496
0.858085
1.23946
1.53026
1.36894
1.11302
1.00808
0.984127
0.98565
0.99179
0.996418
0.998808
0.999743
1.00001
1.00004
1.00003
0.400071
0.418145
0.451328
0.493802
0.545275
0.613732
0.716644
0.880252
1.10716
1.32184
1.4112
1.32177
1.10683
0.879461
0.715332
0.61208
0.544244
0.495939
0.460047
0.433389
0.415073
0.406564
0.413215
0.44795
0.537142
0.72082
1.0191
1.33874
1.39428
1.18606
1.04293
0.995582
0.988146
0.991595
0.995813
0.998401
0.999554
0.999936
1.00002
1.00002
0.422515
0.446735
0.493802
0.561799
0.663654
0.857613
1.31452
2.22481
3.20262
3.56506
3.61577
3.56489
3.20161
2.2212
1.30951
0.85346
0.661883
0.565094
0.505221
0.464389
0.43608
0.418478
0.413524
0.428637
0.481074
0.602715
0.829862
1.14475
1.36245
1.26331
1.09127
1.01286
0.992386
0.991751
0.9952
0.997954
0.999357
0.999879
1.00001
1.00002
0.445123
0.47739
0.545275
0.663654
0.924892
1.74832
3.38251
3.56602
3.27996
3.09681
3.03663
3.09676
3.27994
3.56621
3.37547
1.73317
0.920349
0.668721
0.56033
0.497882
0.457137
0.43028
0.415731
0.417014
0.445464
0.525996
0.698582
0.984704
1.28291
1.31733
1.14604
1.03527
0.998693
0.992678
0.994912
0.997696
0.999309
0.999949
1.00011
1.00013
0.468887
0.511832
0.613732
0.857613
1.74832
3.59157
3.35176
2.94937
2.66572
2.50067
2.44668
2.50063
2.66574
2.94984
3.35385
3.58689
1.7334
0.86586
0.634391
0.536144
0.479578
0.443272
0.420953
0.412982
0.426719
0.481449
0.614288
0.864253
1.18729
1.33573
1.1983
1.06109
1.0071
0.994737
0.995327
0.997957
0.999696
1.0004
1.00056
1.00055
0.494107
0.551869
0.716644
1.31452
3.38251
3.35176
2.84396
2.46169
2.20432
2.05648
2.00828
2.05645
2.20436
2.46219
2.84613
3.3586
3.37211
1.33048
0.746671
0.581565
0.503848
0.457373
0.428259
0.413651
0.417957
0.456202
0.561038
0.777508
1.09763
1.32356
1.24007
1.08732
1.0168
0.997798
0.996554
0.998973
1.00084
1.00164
1.0018
1.00177
0.519516
0.597715
0.880252
2.22481
3.56602
2.94937
2.46169
2.11027
1.87537
1.7408
1.69699
1.74078
1.87543
2.11077
2.46379
2.9557
3.57732
2.25856
0.926366
0.634611
0.528658
0.47132
0.436072
0.416413
0.414369
0.441847
0.527362
0.716553
1.02253
1.29224
1.2647
1.10837
1.02475
0.999989
0.997383
1.00005
1.00254
1.00384
1.00432
1.00443
0.542332
0.645722
1.10716
3.20262
3.27996
2.66572
2.20432
1.87537
1.65615
1.53087
1.49015
1.53085
1.65621
1.87586
2.20634
2.67171
3.29382
3.23652
1.17738
0.691053
0.551161
0.483318
0.442893
0.419467
0.413141
0.43358
0.505953
0.674163
0.962361
1.24967
1.26469
1.11388
1.02326
0.995435
0.993151
0.997653
1.00236
1.0057
1.00767
1.00857
0.558635
0.685046
1.32184
3.56506
3.09681
2.50067
2.05648
1.7408
1.53087
1.41116
1.37231
1.41115
1.53093
1.74129
2.05845
2.50647
3.11058
3.58386
1.41663
0.737837
0.56735
0.491495
0.447485
0.421612
0.412599
0.428573
0.49214
0.644621
0.914583
1.19927
1.23186
1.08946
0.999787
0.973371
0.974251
0.983304
0.993265
1.00172
1.00778
1.01097
0.564616
0.700633
1.4112
3.61577
3.03663
2.44668
2.00828
1.69699
1.49015
1.37231
1.3341
1.3723
1.49021
1.69748
2.01024
2.45241
3.05021
3.62987
1.51665
0.756508
0.573296
0.494355
0.448971
0.422063
0.411719
0.42519
0.483365
0.625243
0.879617
1.14584
1.16398
1.02645
0.945121
0.924421
0.930592
0.946088
0.963825
0.980492
0.993606
1.0009
0.558631
0.685034
1.32177
3.56489
3.09676
2.50063
2.05645
1.74078
1.53085
1.41115
1.3723
1.41114
1.53092
1.74128
2.05843
2.50643
3.11053
3.58372
1.41662
0.737808
0.56725
0.491245
0.446925
0.420424
0.410097
0.423138
0.480107
0.619517
0.867273
1.10129
1.07203
0.935467
0.867097
0.853349
0.863459
0.883189
0.906663
0.930101
0.949411
0.960423
0.542299
0.645649
1.10683
3.20161
3.27994
2.66574
2.20436
1.87543
1.65621
1.53093
1.49021
1.53092
1.65627
1.87592
2.20638
2.67173
3.29376
3.23566
1.17703
0.690821
0.550773
0.482574
0.441492
0.416912
0.408461
0.424643
0.488708
0.643326
0.904809
1.0854
0.982187
0.848393
0.793449
0.783534
0.792173
0.809103
0.830101
0.851584
0.869256
0.879192
0.519383
0.597475
0.879461
2.2212
3.56621
2.94984
2.46219
2.11077
1.87586
1.74129
1.69748
1.74128
1.87592
2.11126
2.46427
2.95614
3.5774
2.25498
0.925255
0.633817
0.527593
0.469678
0.433603
0.41297
0.410042
0.437997
0.531342
0.747983
1.06544
1.14362
0.948368
0.816346
0.766812
0.751251
0.748302
0.751515
0.758127
0.765267
0.770437
0.772845
0.493745
0.55131
0.715332
1.30951
3.37547
3.35385
2.84613
2.46379
2.20634
2.05845
2.01024
2.05843
2.20638
2.46427
2.84826
3.36059
3.36483
1.32499
0.744504
0.579714
0.501632
0.454656
0.42553
0.412799
0.425182
0.492881
0.691235
1.11439
1.59624
1.51926
1.18323
1.00676
0.917205
0.851095
0.795828
0.753117
0.722704
0.700703
0.684694
0.675747
0.468185
0.510895
0.61208
0.85346
1.73317
3.58689
3.3586
2.9557
2.67171
2.50647
2.45241
2.50643
2.67173
2.95614
3.36059
3.58169
1.71791
0.860686
0.631123
0.532947
0.476226
0.44071
0.422509
0.428898
0.49064
0.6967
1.19752
1.94193
2.61707
2.80489
2.53626
2.24842
1.96363
1.63117
1.28855
0.998503
0.803959
0.695678
0.640122
0.615859
0.444371
0.47659
0.544244
0.661883
0.920349
1.7334
3.37211
3.57732
3.29382
3.11058
3.05021
3.11053
3.29376
3.5774
3.36483
1.71791
0.914814
0.665261
0.556884
0.494328
0.454867
0.433853
0.438652
0.501416
0.710912
1.16285
1.63113
2.0985
2.4545
2.55537
2.53778
2.5565
2.65116
2.80044
2.86387
2.39177
1.49321
0.917679
0.683719
0.612044
0.423225
0.447982
0.495939
0.565094
0.668721
0.86586
1.33048
2.25856
3.23652
3.58386
3.62987
3.58372
3.23566
2.25498
1.32499
0.860686
0.665261
0.566009
0.504819
0.464943
0.44343
0.448728
0.512933
0.708062
1.02796
1.25929
1.53996
1.76876
1.83265
1.78837
1.74897
1.76321
1.83828
1.97565
2.18343
2.48894
2.8753
2.2972
1.14532
0.761399
0.405384
0.424711
0.460047
0.505221
0.56033
0.634391
0.746671
0.926366
1.17738
1.41663
1.51665
1.41662
1.17703
0.925255
0.744504
0.631123
0.556884
0.504819
0.468604
0.44887
0.455886
0.520788
0.693722
0.898708
1.00989
1.16999
1.3074
1.34154
1.28988
1.22537
1.19516
1.21007
1.27085
1.38053
1.54731
1.78746
2.12838
2.63562
3.05521
1.89206
0.391739
0.406894
0.433389
0.464389
0.497882
0.536144
0.581565
0.634611
0.691053
0.737837
0.756508
0.737808
0.690821
0.633817
0.579714
0.532947
0.494328
0.464943
0.44887
0.458447
0.524529
0.680538
0.813956
0.859338
0.941951
1.01504
1.02186
0.965646
0.892828
0.841569
0.822377
0.834603
0.878575
0.958528
1.08356
1.26995
1.54568
1.95539
2.55277
3.32796
0.384216
0.395725
0.415073
0.43608
0.457137
0.479578
0.503848
0.528658
0.551161
0.56735
0.573296
0.56725
0.550773
0.527593
0.501632
0.476226
0.454867
0.44343
0.455886
0.524529
0.675522
0.773971
0.780272
0.814415
0.843093
0.827194
0.767885
0.696211
0.6403
0.608105
0.597287
0.605571
0.633745
0.686207
0.771896
0.906537
1.11608
1.43824
1.90211
2.38546
0.387359
0.394715
0.406564
0.418478
0.43028
0.443272
0.457373
0.47132
0.483318
0.491495
0.494355
0.491245
0.482574
0.469678
0.454656
0.44071
0.433853
0.448728
0.520788
0.680538
0.773971
0.755813
0.757969
0.75489
0.719559
0.655962
0.587334
0.533757
0.499933
0.482148
0.476492
0.481347
0.497562
0.528685
0.582053
0.671235
0.81967
1.06007
1.40297
1.7346
0.41185
0.412479
0.413215
0.413524
0.415731
0.420953
0.428259
0.436072
0.442893
0.447485
0.448971
0.446925
0.441492
0.433603
0.42553
0.422509
0.438652
0.512933
0.693722
0.813956
0.780272
0.757969
0.727966
0.672344
0.600085
0.531267
0.480141
0.44805
0.429921
0.420887
0.418114
0.420644
0.429155
0.446176
0.477035
0.532052
0.630099
0.797979
1.03981
1.26237
0.481657
0.468453
0.44795
0.428637
0.417014
0.412982
0.413651
0.416413
0.419467
0.421612
0.422063
0.420424
0.416912
0.41297
0.412799
0.428898
0.501416
0.708062
0.898708
0.859338
0.814415
0.75489
0.672344
0.583252
0.507675
0.455472
0.424314
0.407292
0.398576
0.394562
0.393394
0.394483
0.398336
0.40673
0.423398
0.455684
0.517343
0.627973
0.789004
0.93269
0.642905
0.600496
0.537142
0.481074
0.445464
0.426719
0.417957
0.414369
0.413141
0.412599
0.411719
0.410097
0.408461
0.410042
0.425182
0.49064
0.710912
1.02796
1.00989
0.941951
0.843093
0.719559
0.600085
0.507675
0.448349
0.415131
0.39827
0.390491
0.387355
0.386335
0.386123
0.386305
0.387282
0.390384
0.39832
0.41629
0.453858
0.524069
0.626325
0.715071
0.952421
0.858085
0.72082
0.602715
0.525996
0.481449
0.456202
0.441847
0.43358
0.428573
0.42519
0.423138
0.424643
0.437997
0.492881
0.6967
1.16285
1.25929
1.16999
1.01504
0.827194
0.655962
0.531267
0.455472
0.415131
0.395911
0.388108
0.386046
0.386449
0.387392
0.387817
0.387379
0.386432
0.386089
0.388478
0.397437
0.419613
0.463253
0.526391
0.579541
1.39852
1.23946
1.0191
0.829862
0.698582
0.614288
0.561038
0.527362
0.505953
0.49214
0.483365
0.480107
0.488708
0.531342
0.691235
1.19752
1.63113
1.53996
1.3074
1.02186
0.767885
0.587334
0.480141
0.424314
0.39827
0.388108
0.386051
0.387758
0.39063
0.39301
0.393912
0.393003
0.390634
0.387853
0.386505
0.38962
0.401981
0.428741
0.467313
0.49878
1.65047
1.53026
1.33874
1.14475
0.984704
0.864253
0.777508
0.716553
0.674163
0.644621
0.625243
0.619517
0.643326
0.747983
1.11439
1.94193
2.0985
1.76876
1.34154
0.965646
0.696211
0.533757
0.44805
0.407292
0.390491
0.386046
0.387758
0.392104
0.396822
0.40033
0.401616
0.400326
0.396836
0.392221
0.388227
0.387439
0.393505
0.409725
0.433387
0.452159
1.32953
1.36894
1.39428
1.36245
1.28291
1.18729
1.09763
1.02253
0.962361
0.914583
0.879617
0.867273
0.904809
1.06544
1.59624
2.61707
2.4545
1.83265
1.28988
0.892828
0.6403
0.499933
0.429921
0.398576
0.387355
0.386449
0.39063
0.396822
0.402906
0.407284
0.408873
0.407282
0.402926
0.396949
0.391099
0.387735
0.389851
0.399701
0.41466
0.426283
1.0701
1.11302
1.18606
1.26331
1.31733
1.33573
1.32356
1.29224
1.24967
1.19927
1.14584
1.10129
1.0854
1.14362
1.51926
2.80489
2.55537
1.78837
1.22537
0.841569
0.608105
0.482148
0.420887
0.394562
0.386335
0.387392
0.39301
0.40033
0.407284
0.412232
0.414021
0.412231
0.407307
0.400463
0.393477
0.388611
0.388525
0.394945
0.40536
0.413357
0.990235
1.00808
1.04293
1.09127
1.14604
1.1983
1.24007
1.2647
1.26469
1.23186
1.16398
1.07203
0.982187
0.948368
1.18323
2.53626
2.53778
1.74897
1.19516
0.822377
0.597287
0.476492
0.418114
0.393394
0.386123
0.387817
0.393912
0.401616
0.408873
0.414021
0.415881
0.41402
0.408897
0.401751
0.394377
0.389013
0.388213
0.393544
0.402542
0.409426
0.9785
0.984127
0.995582
1.01286
1.03527
1.06109
1.08732
1.10837
1.11388
1.08946
1.02645
0.935467
0.848393
0.816346
1.00676
2.24842
2.5565
1.76321
1.21007
0.834603
0.605571
0.481347
0.420644
0.394483
0.386305
0.387379
0.393003
0.400326
0.407282
0.412231
0.41402
0.41223
0.407305
0.400459
0.393469
0.388597
0.3885
0.394903
0.405295
0.413275
0.984524
0.98565
0.988146
0.992386
0.998693
1.0071
1.0168
1.02475
1.02326
0.999787
0.945121
0.867097
0.793449
0.766812
0.917205
1.96363
2.65116
1.83828
1.27085
0.878575
0.633745
0.497562
0.429155
0.398336
0.387282
0.386432
0.390634
0.396836
0.402926
0.407307
0.408897
0.407305
0.402945
0.396962
0.391102
0.387722
0.38981
0.399613
0.414508
0.426079
0.991987
0.99179
0.991595
0.991751
0.992678
0.994737
0.997798
0.999989
0.995435
0.973371
0.924421
0.853349
0.783534
0.751251
0.851095
1.63117
2.80044
1.97565
1.38053
0.958528
0.686207
0.528685
0.446176
0.40673
0.390384
0.386089
0.387853
0.392221
0.396949
0.400463
0.401751
0.400459
0.396962
0.392336
0.388327
0.387515
0.393536
0.40967
0.433197
0.451849
0.996782
0.996418
0.995813
0.9952
0.994912
0.995327
0.996554
0.997383
0.993151
0.974251
0.930592
0.863459
0.792173
0.748302
0.795828
1.28855
2.86387
2.18343
1.54731
1.08356
0.771896
0.582053
0.477035
0.423398
0.39832
0.388478
0.386505
0.388227
0.391099
0.393477
0.394377
0.393469
0.391102
0.388327
0.386992
0.390128
0.402499
0.429213
0.467633
0.498928
0.999042
0.998808
0.998401
0.997954
0.997696
0.997957
0.998973
1.00005
0.997653
0.983304
0.946088
0.883189
0.809103
0.751515
0.753117
0.998503
2.39177
2.48894
1.78746
1.26995
0.906537
0.671235
0.532052
0.455684
0.41629
0.397437
0.38962
0.387439
0.387735
0.388611
0.389013
0.388597
0.387722
0.387515
0.390128
0.399426
0.42207
0.466241
0.529781
0.583118
0.99985
0.999743
0.999554
0.999357
0.999309
0.999696
1.00084
1.00254
1.00236
0.993265
0.963825
0.906663
0.830101
0.758127
0.722704
0.803959
1.49321
2.8753
2.12838
1.54568
1.11608
0.81967
0.630099
0.517343
0.453858
0.419613
0.401981
0.393505
0.389851
0.388525
0.388213
0.3885
0.38981
0.393536
0.402499
0.42207
0.462011
0.535419
0.641198
0.732665
1.00005
1.00001
0.999936
0.999879
0.999949
1.0004
1.00164
1.00384
1.0057
1.00172
0.980492
0.930101
0.851584
0.765267
0.700703
0.695678
0.917679
2.2972
2.63562
1.95539
1.43824
1.06007
0.797979
0.627973
0.524069
0.463253
0.428741
0.409725
0.399701
0.394945
0.393544
0.394903
0.399613
0.40967
0.429213
0.466241
0.535419
0.657236
0.832764
0.989914
1.00006
1.00004
1.00002
1.00001
1.00011
1.00056
1.0018
1.00432
1.00767
1.00778
0.993606
0.949411
0.869256
0.770437
0.684694
0.640122
0.683719
1.14532
3.05521
2.55277
1.90211
1.40297
1.03981
0.789004
0.626325
0.526391
0.467313
0.433387
0.41466
0.40536
0.402542
0.405295
0.414508
0.433197
0.467633
0.529781
0.641198
0.832764
1.11215
1.37676
1.00004
1.00003
1.00002
1.00002
1.00013
1.00055
1.00177
1.00443
1.00857
1.01097
1.0009
0.960423
0.879192
0.772845
0.675747
0.615859
0.612044
0.761399
1.89206
3.32796
2.38546
1.7346
1.26237
0.93269
0.715071
0.579541
0.49878
0.452159
0.426283
0.413357
0.409426
0.413275
0.426079
0.451849
0.498928
0.583118
0.732665
0.989914
1.37676
1.76984
SCALARS C2 double 1
LOOKUP_TABLE default
3.63946
3.80536
4.0328
4.21826
4.35411
4.45725
4.53494
4.58945
4.62347
4.64109
4.64639
4.64109
4.62347
4.58939
4.53454
4.45589
4.35205
4.22284
4.06881
3.89072
3.68901
3.46284
3.20827
2.91559
2.57184
2.19299
1.9134
2.12214
2.75508
3.02933
3.06743
3.04803
3.02499
3.01019
3.00309
3.00049
2.99984
2.99981
2.99989
2.99995
3.80536
3.96062
4.17657
4.35466
4.48157
4.57163
4.63129
4.66283
4.67101
4.66635
4.66254
4.66635
4.67103
4.66288
4.63115
4.5708
4.48049
4.36078
4.21302
4.0387
3.83894
3.61379
3.3608
3.07293
2.73998
2.37284
2.07499
2.1298
2.63495
2.96948
3.04948
3.04478
3.02579
3.01144
3.00389
3.00086
2.99997
2.99985
2.99991
2.99995
4.0328
4.17657
4.37346
4.52797
4.62459
4.67079
4.66069
4.57538
4.40537
4.21109
4.12265
4.21115
4.40564
4.57601
4.66155
4.67132
4.6247
4.53366
4.40542
4.24482
4.05508
3.83792
3.593
3.31655
3.00137
2.6491
2.31685
2.18439
2.46657
2.85481
3.01187
3.03721
3.02673
3.01357
3.00532
3.00154
3.00023
2.99994
2.99994
2.99998
4.21826
4.35466
4.52797
4.64138
4.67197
4.58481
4.21861
3.24737
1.9923
1.37617
1.23772
1.37633
1.99354
3.25163
4.22388
4.58863
4.67351
4.64446
4.55133
4.41303
4.23891
4.034
3.80048
3.53742
3.24002
2.90338
2.54868
2.28545
2.34078
2.70673
2.95389
3.02374
3.02671
3.01593
3.00706
3.00238
3.00054
3.00003
2.99998
3
4.35411
4.48157
4.62459
4.67197
4.53639
3.79495
1.76773
0.959721
0.906007
0.926872
0.937684
0.926893
0.906082
0.960464
1.77945
3.81266
4.54122
4.67149
4.6384
4.53008
4.37353
4.18042
3.95636
3.70308
3.41821
3.09554
2.73766
2.40632
2.2922
2.56161
2.87907
3.0032
3.02449
3.01764
3.00857
3.00307
3.00071
3.00001
2.99993
2.99997
4.45725
4.57163
4.67079
4.58481
3.79495
1.38853
0.905109
0.95615
1.03095
1.08384
1.10259
1.08386
1.03096
0.956104
0.905351
1.40423
3.81285
4.57894
4.67328
4.60929
4.4737
4.2923
4.07591
3.82915
3.55201
3.23944
2.88675
2.52566
2.303
2.44951
2.79588
2.97561
3.01898
3.01768
3.00904
3.00299
3.00027
2.99951
2.99949
2.9996
4.53494
4.63129
4.66069
4.21861
1.76773
0.905109
0.981324
1.09718
1.19591
1.26092
1.28356
1.26093
1.1959
1.09704
0.980841
0.904829
1.79049
4.20195
4.64755
4.65656
4.54783
4.37928
4.17006
3.92821
3.65597
3.35005
3.00373
2.63169
2.34434
2.37973
2.71534
2.94279
3.00971
3.01513
3.00751
3.00124
2.99838
2.99771
2.9979
2.99816
4.58945
4.66283
4.57538
3.24737
0.959721
0.95615
1.09718
1.23652
1.35001
1.42378
1.44935
1.4238
1.35
1.23634
1.09652
0.954636
0.961
3.20873
4.53888
4.67423
4.59915
4.4445
4.24226
4.00452
3.73563
3.43398
3.093
2.71869
2.39543
2.34734
2.64941
2.91006
2.99846
3.01048
3.0039
2.99729
2.99411
2.99343
2.99377
2.99416
4.62347
4.67101
4.40537
1.9923
0.906007
1.03095
1.19591
1.35001
1.47392
1.55392
1.58154
1.55394
1.4739
1.3498
1.19515
1.02914
0.903532
1.949
4.33601
4.66823
4.63069
4.48939
4.29332
4.05888
3.79226
3.49332
3.1567
2.78514
2.44653
2.34734
2.61382
2.89056
2.99349
3.00951
3.00225
2.99362
2.98845
2.98628
2.9857
2.98566
4.64109
4.66635
4.21109
1.37617
0.926872
1.08384
1.26092
1.42378
1.55392
1.63757
1.66637
1.63758
1.55391
1.42357
1.2601
1.08189
0.923613
1.34815
4.10835
4.65211
4.64674
4.51541
4.32365
4.09132
3.82596
3.52889
3.1971
2.83382
2.49811
2.38349
2.63219
2.90971
3.01485
3.02868
3.01627
3.00102
2.98897
2.98063
2.97543
2.97291
4.64639
4.66254
4.12265
1.23772
0.937684
1.10259
1.28356
1.44935
1.58154
1.66637
1.69556
1.66639
1.58152
1.44912
1.28272
1.10059
0.934265
1.21511
4.00537
4.64377
4.65149
4.52389
4.33359
4.10176
3.83685
3.54226
3.21874
2.87194
2.55793
2.46868
2.73269
2.99919
3.09126
3.09456
3.07077
3.04204
3.01503
2.99204
2.97492
2.96567
4.64109
4.66635
4.21115
1.37633
0.926893
1.08386
1.26093
1.4238
1.55394
1.63758
1.66639
1.6376
1.55392
1.42358
1.26012
1.08191
0.923634
1.34822
4.10831
4.65211
4.64677
4.51536
4.32319
4.09025
3.82611
3.53772
3.22976
2.90896
2.63521
2.61955
2.93323
3.17525
3.24127
3.22831
3.18942
3.14253
3.09397
3.0484
3.01197
2.99145
4.62347
4.67103
4.40564
1.99354
0.906082
1.03096
1.1959
1.35
1.4739
1.55391
1.58152
1.55392
1.47389
1.34979
1.19514
1.02915
0.903609
1.94996
4.33626
4.66837
4.63081
4.48915
4.29213
4.05762
3.79787
3.52379
3.23977
2.94899
2.73072
2.84482
3.21814
3.41788
3.45376
3.42607
3.37484
3.31213
3.24326
3.17544
3.1197
3.08799
4.58939
4.66288
4.57601
3.25163
0.960464
0.956104
1.09704
1.23634
1.3498
1.42357
1.44912
1.42358
1.34979
1.23616
1.09638
0.954597
0.961744
3.21288
4.53984
4.67472
4.59927
4.44361
4.24053
4.00773
3.76125
3.51085
3.24851
2.96381
2.79937
3.10018
3.5124
3.66714
3.68401
3.65268
3.6
3.53244
3.45442
3.37545
3.31028
3.27345
4.53454
4.63115
4.66155
4.22388
1.77945
0.905351
0.980841
1.09652
1.19515
1.2601
1.28272
1.26012
1.19514
1.09638
0.980367
0.905099
1.80223
4.20774
4.64934
4.65734
4.54735
4.37735
4.17155
3.95012
3.72749
3.49425
3.18665
2.74867
2.55369
3.08573
3.58387
3.75555
3.80311
3.8117
3.79557
3.75423
3.69208
3.62206
3.56202
3.52774
4.45589
4.5708
4.67132
4.58863
3.81266
1.40423
0.904829
0.954636
1.02914
1.08189
1.10059
1.08191
1.02915
0.954597
0.905099
1.42024
3.83081
4.58387
4.67533
4.60949
4.47183
4.29254
4.09489
3.89647
3.68564
3.34936
2.62957
1.7803
1.44767
1.69233
2.16155
2.51864
2.86384
3.24876
3.59065
3.80125
3.87445
3.86627
3.83259
3.80792
4.35205
4.48049
4.6247
4.67351
4.54122
3.81285
1.79049
0.961
0.903532
0.923613
0.934265
0.923634
0.903609
0.961744
1.80223
3.83081
4.54704
4.67448
4.63976
4.52946
4.37445
4.19898
4.02214
3.82745
3.45308
2.54567
1.67134
1.27788
1.12434
1.10654
1.12821
1.13829
1.14212
1.18975
1.45697
2.35035
3.46823
3.96096
4.06322
4.0689
4.22284
4.36078
4.53366
4.64446
4.67149
4.57894
4.20195
3.20873
1.949
1.34815
1.21511
1.34822
1.94996
3.21288
4.20774
4.58387
4.67448
4.64833
4.55622
4.42135
4.26578
4.10821
3.92596
3.52191
2.58055
1.86121
1.53362
1.38749
1.37072
1.4101
1.43714
1.42955
1.38844
1.32009
1.23402
1.15599
1.26762
2.6326
3.96691
4.22784
4.06881
4.21302
4.40542
4.55133
4.6384
4.67328
4.64755
4.53888
4.33601
4.10835
4.00537
4.10831
4.33626
4.53984
4.64934
4.67533
4.63976
4.55622
4.43656
4.2983
4.15814
3.98774
3.57252
2.67368
2.06932
1.79313
1.67234
1.67435
1.74235
1.80635
1.8333
1.81897
1.7662
1.67883
1.56126
1.41851
1.25997
1.12652
1.638
3.42701
3.89072
4.0387
4.24482
4.41303
4.53008
4.60929
4.65656
4.67423
4.66823
4.65211
4.64377
4.65211
4.66837
4.67472
4.65734
4.60949
4.52946
4.42135
4.2983
4.17447
4.01751
3.60578
2.75891
2.22952
1.99978
1.91333
1.94362
2.0442
2.147
2.21331
2.23673
2.21919
2.16256
2.06823
1.93727
1.76997
1.56671
1.33532
1.09979
0.954388
3.68901
3.83894
4.05508
4.23891
4.37353
4.4737
4.54783
4.59915
4.63069
4.64674
4.65149
4.64677
4.63081
4.59927
4.54735
4.47183
4.37445
4.26578
4.15814
4.01751
3.61752
2.80631
2.3269
2.13785
2.08776
2.15037
2.28372
2.42135
2.52281
2.58205
2.60178
2.58388
2.529
2.43696
2.30642
2.13373
1.91309
1.64353
1.34758
1.11782
3.46284
3.61379
3.83792
4.034
4.18042
4.2923
4.37928
4.4445
4.48939
4.51541
4.52389
4.51536
4.48915
4.44361
4.37735
4.29254
4.19898
4.10821
3.98774
3.60578
2.80631
2.35932
2.20603
2.19105
2.28654
2.45168
2.62063
2.7529
2.84374
2.89684
2.9144
2.89724
2.84552
2.75887
2.63547
2.46989
2.25142
1.97046
1.65092
1.40695
3.20827
3.3608
3.593
3.80048
3.95636
4.07591
4.17006
4.24226
4.29332
4.32365
4.33359
4.32319
4.29213
4.24053
4.17155
4.09489
4.02214
3.92596
3.57252
2.75891
2.3269
2.20603
2.22506
2.35346
2.55006
2.74904
2.91042
3.03094
3.11512
3.16524
3.18192
3.16534
3.11567
3.03299
2.91622
2.76052
2.55387
2.28053
1.96036
1.7167
2.91559
3.07293
3.31655
3.53742
3.70308
3.82915
3.92821
4.00452
4.05888
4.09132
4.10176
4.09025
4.05762
4.00773
3.95012
3.89647
3.82745
3.52191
2.67368
2.22952
2.13785
2.19105
2.35346
2.58239
2.81188
3.00243
3.15225
3.26684
3.34862
3.39789
3.41438
3.39796
3.34895
3.26793
3.15479
3.00616
2.8113
2.55281
2.24602
2.01295
2.57184
2.73998
3.00137
3.24002
3.41821
3.55201
3.65597
3.73563
3.79226
3.82596
3.83685
3.82611
3.79787
3.76125
3.72749
3.68564
3.45308
2.58055
2.06932
1.99978
2.08776
2.28654
2.55006
2.81188
3.03273
3.21208
3.35676
3.46978
3.55138
3.60085
3.61746
3.60093
3.5517
3.47072
3.35864
3.21352
3.02654
2.78127
2.49063
2.27141
2.19299
2.37284
2.6491
2.90338
3.09554
3.23944
3.35005
3.43398
3.49332
3.52889
3.54226
3.53772
3.52379
3.51085
3.49425
3.34936
2.54567
1.86121
1.79313
1.91333
2.15037
2.45168
2.74904
3.00243
3.21208
3.38661
3.53021
3.64361
3.72597
3.77605
3.79288
3.77612
3.72627
3.64451
3.53204
3.38791
3.20503
2.96848
2.69028
2.48243
1.9134
2.07499
2.31685
2.54868
2.73766
2.88675
3.00373
3.093
3.1567
3.1971
3.21874
3.22976
3.23977
3.24851
3.18665
2.62957
1.67134
1.53362
1.67234
1.94362
2.28372
2.62063
2.91042
3.15225
3.35676
3.53021
3.6744
3.78887
3.87223
3.92298
3.94005
3.92305
3.8725
3.78972
3.67623
3.53178
3.35048
3.1187
2.84799
2.64732
2.12214
2.1298
2.18439
2.28545
2.40632
2.52566
2.63169
2.71869
2.78514
2.83382
2.87194
2.90896
2.94899
2.96381
2.74867
1.7803
1.27788
1.38749
1.67435
2.0442
2.42135
2.7529
3.03094
3.26684
3.46978
3.64361
3.78887
3.90446
3.98874
4.04006
4.05731
4.04011
3.98898
3.90527
3.79067
3.64539
3.46434
3.23474
2.96777
2.77086
2.75508
2.63495
2.46657
2.34078
2.2922
2.303
2.34434
2.39543
2.44653
2.49811
2.55793
2.63521
2.73072
2.79937
2.55369
1.44767
1.12434
1.37072
1.74235
2.147
2.52281
2.84374
3.11512
3.34862
3.55138
3.72597
3.87223
3.98874
4.07367
4.12538
4.14275
4.12542
4.07389
3.9895
3.874
3.72787
3.54654
3.31773
3.05227
2.85701
3.02933
2.96948
2.85481
2.70673
2.56161
2.44951
2.37973
2.34734
2.34734
2.38349
2.46868
2.61955
2.84482
3.10018
3.08573
1.69233
1.10654
1.4101
1.80635
2.21331
2.58205
2.89684
3.16524
3.39789
3.60085
3.77605
3.92298
4.04006
4.12538
4.17729
4.19471
4.17733
4.12558
4.04079
3.92473
3.77801
3.59635
3.36773
3.10272
2.90803
3.06743
3.04948
3.01187
2.95389
2.87907
2.79588
2.71534
2.64941
2.61382
2.63219
2.73269
2.93323
3.21814
3.5124
3.58387
2.16155
1.12821
1.43714
1.8333
2.23673
2.60178
2.9144
3.18192
3.41438
3.61746
3.79288
3.94005
4.05731
4.14275
4.19471
4.21216
4.19475
4.14295
4.05803
3.94179
3.79486
3.61306
3.38447
3.11954
2.92498
3.04803
3.04478
3.03721
3.02374
3.0032
2.97561
2.94279
2.91006
2.89056
2.90971
2.99919
3.17525
3.41788
3.66714
3.75555
2.51864
1.13829
1.42955
1.81897
2.21919
2.58388
2.89724
3.16534
3.39796
3.60093
3.77612
3.92305
4.04011
4.12542
4.17733
4.19475
4.17736
4.12563
4.04084
3.92479
3.77809
3.59645
3.36786
3.10288
2.9082
3.02499
3.02579
3.02673
3.02671
3.02449
3.01898
3.00971
2.99846
2.99349
3.01485
3.09126
3.24127
3.45376
3.68401
3.80311
2.86384
1.14212
1.38844
1.7662
2.16256
2.529
2.84552
3.11567
3.34895
3.5517
3.72627
3.8725
3.98898
4.07389
4.12558
4.14295
4.12563
4.07411
3.98973
3.87427
3.72819
3.54692
3.3182
3.05278
2.85754
3.01019
3.01144
3.01357
3.01593
3.01764
3.01768
3.01513
3.01048
3.00951
3.02868
3.09456
3.22831
3.42607
3.65268
3.8117
3.24876
1.18975
1.32009
1.67883
2.06823
2.43696
2.75887
3.03299
3.26793
3.47072
3.64451
3.78972
3.90527
3.9895
4.04079
4.05803
4.04084
3.98973
3.90607
3.79154
3.64635
3.46542
3.23593
2.969
2.77211
3.00309
3.00389
3.00532
3.00706
3.00857
3.00904
3.00751
3.0039
3.00225
3.01627
3.07077
3.18942
3.37484
3.6
3.79557
3.59065
1.45697
1.23402
1.56126
1.93727
2.30642
2.63547
2.91622
3.15479
3.35864
3.53204
3.67623
3.79067
3.874
3.92473
3.94179
3.92479
3.87427
3.79154
3.67812
3.53375
3.3525
3.12069
2.84991
2.64926
3.00049
3.00086
3.00154
3.00238
3.00307
3.00299
3.00124
2.99729
2.99362
3.00102
3.04204
3.14253
3.31213
3.53244
3.75423
3.80125
2.35035
1.15599
1.41851
1.76997
2.13373
2.46989
2.76052
3.00616
3.21352
3.38791
3.53178
3.64539
3.72787
3.77801
3.79486
3.77809
3.72819
3.64635
3.53375
3.38939
3.20602
2.96881
2.69022
2.48241
2.99984
2.99997
3.00023
3.00054
3.00071
3.00027
2.99838
2.99411
2.98845
2.98897
3.01503
3.09397
3.24326
3.45442
3.69208
3.87445
3.46823
1.26762
1.25997
1.56671
1.91309
2.25142
2.55387
2.8113
3.02654
3.20503
3.35048
3.46434
3.54654
3.59635
3.61306
3.59645
3.54692
3.46542
3.3525
3.20602
3.01706
2.76967
2.47815
2.25913
2.99981
2.99985
2.99994
3.00003
3.00001
2.99951
2.99771
2.99343
2.98628
2.98063
2.99204
3.0484
3.17544
3.37545
3.62206
3.86627
3.96096
2.6326
1.12652
1.33532
1.64353
1.97046
2.28053
2.55281
2.78127
2.96848
3.1187
3.23474
3.31773
3.36773
3.38447
3.36786
3.3182
3.23593
3.12069
2.96881
2.76967
2.50722
2.19887
1.96574
2.99989
2.99991
2.99994
2.99998
2.99993
2.99949
2.9979
2.99377
2.9857
2.97543
2.97492
3.01197
3.1197
3.31028
3.56202
3.83259
4.06322
3.96691
1.638
1.09979
1.34758
1.65092
1.96036
2.24602
2.49063
2.69028
2.84799
2.96777
3.05227
3.10272
3.11954
3.10288
3.05278
2.969
2.84991
2.69022
2.47815
2.19887
1.87212
1.62117
2.99995
2.99995
2.99998
3
2.99997
2.9996
2.99816
2.99416
2.98566
2.97291
2.96567
2.99145
3.08799
3.27345
3.52774
3.80792
4.0689
4.22784
3.42701
0.954388
1.11782
1.40695
1.7167
2.01295
2.27141
2.48243
2.64732
2.77086
2.85701
2.90803
2.92498
2.9082
2.85754
2.77211
2.64926
2.48241
2.25913
1.96574
1.62117
1.35005
