# vtk DataFile Version 3.0
Brusselator Concentration Output
ASCII
DATASET STRUCTURED_POINTS
DIMENSIONS 40 40 1
ORIGIN 0.0 0.0 0.0
SPACING 0.005 0.005 1.0
POINT_DATA 1600
SCALARS C1 double 1
LOOKUP_TABLE default
0.413289
0.401952
0.387183
0.376413
0.371795
0.371751
0.374124
0.377324
0.380293
0.382344
0.383073
0.382345
0.38029
0.377297
0.37402
0.371441
0.371069
0.375418
0.389003
0.420278
0.484891
0.609586
0.832448
1.19371
1.7276
2.46828
3.60545
1.35557
0.610776
0.509116
0.497502
0.533017
0.625633
0.77483
0.933188
1.02856
1.04603
1.0293
1.01269
1.00474
0.401952
0.395163
0.386241
0.380053
0.378393
0.380313
0.384147
0.388503
0.392353
0.394967
0.39589
0.394967
0.392348
0.38847
0.38403
0.379999
0.377756
0.37944
0.388723
0.412292
0.462398
0.56023
0.7374
1.03006
1.46829
2.08003
2.9189
2.44171
0.770098
0.540436
0.511641
0.540132
0.624338
0.762633
0.913633
1.01191
1.03774
1.02651
1.01168
1.00401
0.387183
0.386241
0.385251
0.385728
0.388763
0.394083
0.40062
0.407211
0.41281
0.41656
0.417879
0.416559
0.4128
0.407164
0.400478
0.39376
0.388249
0.385626
0.388523
0.401531
0.433013
0.497927
0.620713
0.834414
1.17217
1.66041
2.3214
3.26845
1.31905
0.627718
0.540257
0.552191
0.620469
0.740229
0.879593
0.98274
1.02224
1.0203
1.00857
1.00136
0.376413
0.380053
0.385728
0.392392
0.400334
0.409631
0.419622
0.429254
0.437337
0.442746
0.444652
0.442744
0.437322
0.429192
0.419453
0.409293
0.399925
0.392711
0.389511
0.393387
0.409908
0.449447
0.530536
0.682476
0.941909
1.34192
1.91131
2.68917
2.6105
0.838447
0.585318
0.566306
0.614019
0.713181
0.840566
0.948824
1.0027
1.01079
1.00225
0.995305
0.371795
0.378393
0.388763
0.400334
0.412722
0.426109
0.440026
0.453376
0.464659
0.472279
0.474981
0.472277
0.464639
0.4533
0.439829
0.425752
0.41239
0.400947
0.392805
0.390075
0.396591
0.419741
0.473605
0.582965
0.784276
1.11686
1.61198
2.29386
3.25514
1.26754
0.65452
0.582469
0.609047
0.691059
0.809453
0.922125
0.987207
1.00223
0.994633
0.986749
0.371751
0.380313
0.394083
0.409631
0.426109
0.443721
0.46209
0.479962
0.495344
0.505902
0.50968
0.5059
0.495319
0.479868
0.461861
0.44334
0.425829
0.410457
0.398285
0.390803
0.390747
0.403565
0.440147
0.521064
0.680168
0.960047
1.39736
2.02136
2.93126
1.98235
0.764376
0.606646
0.614583
0.687478
0.804139
0.923036
0.995269
1.01031
0.99737
0.985113
0.374124
0.384147
0.40062
0.419622
0.440026
0.46209
0.485517
0.508851
0.529433
0.54385
0.549069
0.543846
0.529401
0.508737
0.485251
0.461675
0.439779
0.420617
0.404968
0.393857
0.389267
0.395359
0.420799
0.482811
0.612006
0.851637
1.24361
1.8198
2.62368
2.88537
0.951254
0.65402
0.646644
0.72303
0.851655
0.986728
1.06937
1.07846
1.04909
1.02471
0.377324
0.388503
0.407211
0.429254
0.453376
0.479962
0.508851
0.538406
0.565183
0.584356
0.591382
0.584351
0.565143
0.538268
0.508543
0.479506
0.453148
0.430387
0.411707
0.397737
0.389913
0.391519
0.409719
0.4593
0.567955
0.778081
1.13492
1.67149
2.41459
3.31343
1.28788
0.754603
0.72448
0.809078
0.954873
1.11976
1.24464
1.28178
1.24784
1.20848
0.380293
0.392353
0.41281
0.437337
0.464659
0.495344
0.529433
0.565183
0.598378
0.622629
0.631618
0.622622
0.598329
0.565022
0.529084
0.494848
0.464439
0.438578
0.417441
0.401322
0.391254
0.389946
0.403587
0.445321
0.540551
0.729969
1.05923
1.55925
2.24696
3.1566
1.84829
0.915399
0.799712
0.840831
0.955206
1.125
1.32089
1.49347
1.59525
1.62727
0.382344
0.394967
0.41656
0.442746
0.472279
0.505902
0.54385
0.584356
0.622629
0.650994
0.661593
0.650986
0.622574
0.584177
0.543471
0.505376
0.472062
0.444057
0.421289
0.40381
0.392402
0.389434
0.400527
0.437777
0.524738
0.699272
1.00305
1.45829
2.06046
2.78704
2.16084
0.938799
0.704748
0.685018
0.750995
0.882093
1.06661
1.28125
1.48252
1.60898
0.383073
0.39589
0.417879
0.444652
0.474981
0.50968
0.549069
0.591382
0.631618
0.661593
0.672829
0.661585
0.63156
0.591196
0.548678
0.509143
0.474766
0.445991
0.42265
0.404707
0.392851
0.389314
0.399432
0.434553
0.516195
0.677368
0.950964
1.34676
1.84332
2.42805
1.68759
0.711266
0.537635
0.521645
0.55972
0.638849
0.756243
0.899207
1.03503
1.11919
0.382345
0.394967
0.416559
0.442744
0.472277
0.5059
0.543846
0.584351
0.622622
0.650986
0.661585
0.650978
0.622567
0.584171
0.543468
0.505377
0.472067
0.444068
0.421308
0.403831
0.39239
0.389233
0.399529
0.433802
0.510857
0.657424
0.898023
1.24057
1.67875
2.3
1.04626
0.526676
0.444054
0.437018
0.455772
0.494536
0.552566
0.623906
0.691944
0.734224
0.38029
0.392348
0.4128
0.437322
0.464639
0.495319
0.529401
0.565143
0.598329
0.622574
0.63156
0.622567
0.598281
0.564983
0.529056
0.494832
0.464435
0.438587
0.417455
0.401299
0.39104
0.389011
0.4002
0.434188
0.507244
0.642453
0.866208
1.20905
1.69711
1.92779
0.674702
0.446234
0.410146
0.405993
0.413215
0.428814
0.45185
0.479511
0.505453
0.521573
0.377297
0.38847
0.407164
0.429192
0.4533
0.479868
0.508737
0.538268
0.565022
0.584177
0.591196
0.584171
0.564983
0.538135
0.508439
0.47943
0.453096
0.430346
0.411626
0.397461
0.388986
0.388657
0.401417
0.436549
0.510384
0.650161
0.898881
1.32211
2.10672
1.14456
0.519459
0.424801
0.407451
0.403628
0.404446
0.407921
0.413135
0.41898
0.424123
0.42732
0.37402
0.38403
0.400478
0.419453
0.439829
0.461861
0.485251
0.508543
0.529084
0.543471
0.548678
0.543468
0.529056
0.508439
0.485004
0.461472
0.439601
0.420402
0.404553
0.392834
0.386641
0.38878
0.404833
0.445715
0.532973
0.708696
1.04755
1.61802
2.24817
0.757686
0.474586
0.432877
0.423003
0.418564
0.415135
0.41144
0.406959
0.401693
0.396725
0.3938
0.371441
0.379999
0.39376
0.409293
0.425752
0.44334
0.461675
0.479506
0.494848
0.505376
0.509143
0.505377
0.494832
0.47943
0.461472
0.442977
0.425423
0.409836
0.397055
0.388138
0.384977
0.39132
0.414738
0.471161
0.594847
0.852377
1.34059
2.25565
1.477
0.603848
0.481459
0.46164
0.454484
0.4481
0.4403
0.430636
0.419135
0.406612
0.39552
0.389064
0.371069
0.377756
0.388249
0.399925
0.41239
0.425829
0.439779
0.453148
0.464439
0.472062
0.474766
0.472067
0.464435
0.453096
0.439601
0.425423
0.411775
0.399649
0.390068
0.384583
0.386071
0.400183
0.438803
0.528376
0.72442
1.11904
1.80022
2.842
1.01323
0.580753
0.527141
0.516675
0.508275
0.496688
0.481843
0.464413
0.445076
0.425366
0.408715
0.399237
0.375418
0.37944
0.385626
0.392711
0.400947
0.410457
0.420617
0.430387
0.438578
0.444057
0.445991
0.444068
0.438587
0.430346
0.420402
0.409836
0.399649
0.390874
0.384947
0.384348
0.393662
0.422163
0.490387
0.642788
0.958059
1.53149
2.49133
2.34903
0.860524
0.665841
0.64846
0.638617
0.617081
0.586805
0.55334
0.519713
0.486953
0.456651
0.432632
0.419396
0.389003
0.388723
0.388523
0.389511
0.392805
0.398285
0.404968
0.411707
0.417441
0.421289
0.42265
0.421308
0.417455
0.411626
0.404553
0.397055
0.390068
0.384947
0.383984
0.391205
0.414305
0.469835
0.593632
0.851491
1.32838
2.10315
3.32267
1.94266
1.15125
1.1485
1.19048
1.14689
1.02105
0.864749
0.728989
0.629333
0.558088
0.505316
0.468388
0.449206
0.420278
0.412292
0.401531
0.393387
0.390075
0.390803
0.393857
0.397737
0.401322
0.40381
0.404707
0.403831
0.401299
0.397461
0.392834
0.388138
0.384583
0.384348
0.391205
0.412001
0.460831
0.567598
0.787419
1.19398
1.85978
2.87748
3.94219
3.17334
3.22007
3.47641
3.54835
3.48484
3.16982
2.42865
1.58955
1.02262
0.728538
0.591736
0.522913
0.492033
0.484891
0.462398
0.433013
0.409908
0.396591
0.390747
0.389267
0.389913
0.391254
0.392402
0.392851
0.39239
0.39104
0.388986
0.386641
0.384977
0.386071
0.393662
0.414305
0.460831
0.559472
0.757549
1.11847
1.70431
2.5708
3.63922
3.93589
3.47767
3.1466
2.98499
2.93373
2.97628
3.11437
3.35775
3.63317
3.06659
1.52459
0.834275
0.622572
0.55802
0.609586
0.56023
0.497927
0.449447
0.419741
0.403565
0.395359
0.391519
0.389946
0.389434
0.389314
0.389233
0.389011
0.388657
0.38878
0.39132
0.400183
0.422163
0.469835
0.567598
0.757549
1.09419
1.62923
2.39059
3.23741
3.43364
2.96486
2.59152
2.37495
2.25702
2.21837
2.25394
2.36457
2.5555
2.8363
3.23005
3.64867
2.03046
0.918295
0.683327
0.832448
0.7374
0.620713
0.530536
0.473605
0.440147
0.420799
0.409719
0.403587
0.400527
0.399432
0.399529
0.4002
0.401417
0.404833
0.414738
0.438803
0.490387
0.593632
0.787419
1.11847
1.62923
2.33122
3.04114
3.12233
2.65433
2.24402
1.976
1.80665
1.71105
1.67978
1.70983
1.8026
1.96375
2.20417
2.54213
2.99771
3.61627
2.24329
1.06159
1.19371
1.03006
0.834414
0.682476
0.582965
0.521064
0.482811
0.4593
0.445321
0.437777
0.434553
0.433802
0.434188
0.436549
0.445715
0.471161
0.528376
0.642788
0.851491
1.19398
1.70431
2.39059
3.04114
3.02257
2.50564
2.05095
1.73714
1.52467
1.38555
1.30645
1.28067
1.30586
1.38368
1.51974
1.7242
2.01375
2.41555
2.96392
3.67977
2.63625
1.7276
1.46829
1.17217
0.941909
0.784276
0.680168
0.612006
0.567955
0.540551
0.524738
0.516195
0.510857
0.507244
0.510384
0.532973
0.594847
0.72442
0.958059
1.32838
1.85978
2.5708
3.23741
3.12233
2.50564
1.98916
1.62547
1.37065
1.19389
1.07821
1.01298
0.991854
1.01261
1.07714
1.19145
1.36586
1.61611
1.96641
2.45466
3.13852
3.9201
2.46828
2.08003
1.66041
1.34192
1.11686
0.960047
0.851637
0.778081
0.729969
0.699272
0.677368
0.657424
0.642453
0.650161
0.708696
0.852377
1.11904
1.53149
2.10315
2.87748
3.63922
3.43364
2.65433
2.05095
1.62547
1.32181
1.10577
0.957154
0.861596
0.808575
0.791563
0.808293
0.860849
0.955684
1.10372
1.32087
1.62985
2.06466
2.67369
3.38448
3.60545
2.9189
2.3214
1.91131
1.61198
1.39736
1.24361
1.13492
1.05923
1.00305
0.950964
0.898023
0.866208
0.898881
1.04755
1.34059
1.80022
2.49133
3.32267
3.94219
3.93589
2.96486
2.24402
1.73714
1.37065
1.10577
0.919532
0.794355
0.715781
0.672992
0.659397
0.672759
0.715198
0.793323
0.918536
1.10743
1.38263
1.77509
2.31825
2.91775
1.35557
2.44171
3.26845
2.68917
2.29386
2.02136
1.8198
1.67149
1.55925
1.45829
1.34676
1.24057
1.20905
1.32211
1.61802
2.25565
2.842
2.34903
1.94266
3.17334
3.47767
2.59152
1.976
1.52467
1.19389
0.957154
0.794355
0.687739
0.622379
0.587402
0.576387
0.587205
0.621899
0.68694
0.793818
0.959682
1.20773
1.56731
2.06054
2.57942
0.610776
0.770098
1.31905
2.6105
3.25514
2.93126
2.62368
2.41459
2.24696
2.06046
1.84332
1.67875
1.69711
2.10672
2.24817
1.477
1.01323
0.860524
1.15125
3.22007
3.1466
2.37495
1.80665
1.38555
1.07821
0.861596
0.715781
0.622379
0.566206
0.536557
0.527286
0.536386
0.565794
0.621716
0.71546
0.864396
1.09233
1.42798
1.88633
2.35279
0.509116
0.540436
0.627718
0.838447
1.26754
1.98235
2.88537
3.31343
3.1566
2.78704
2.42805
2.3
1.92779
1.14456
0.757686
0.603848
0.580753
0.665841
1.1485
3.47641
2.98499
2.25702
1.71105
1.30645
1.01298
0.808575
0.672992
0.587402
0.536557
0.509957
0.501677
0.509802
0.536184
0.586811
0.672767
0.811436
1.02699
1.34798
1.78563
2.22262
0.497502
0.511641
0.540257
0.585318
0.65452
0.764376
0.951254
1.28788
1.84829
2.16084
1.68759
1.04626
0.674702
0.519459
0.474586
0.481459
0.527141
0.64846
1.19048
3.54835
2.93373
2.21837
1.67978
1.28067
0.991854
0.791563
0.659397
0.576387
0.527286
0.501677
0.493719
0.501528
0.526925
0.575816
0.659192
0.794414
1.00577
1.32179
1.75253
2.17997
0.533017
0.540132
0.552191
0.566306
0.582469
0.606646
0.65402
0.754603
0.915399
0.938799
0.711266
0.526676
0.446234
0.424801
0.432877
0.46164
0.516675
0.638617
1.14689
3.48484
2.97628
2.25394
1.70983
1.30586
1.01261
0.808293
0.672759
0.587205
0.536386
0.509802
0.501528
0.509646
0.536009
0.586601
0.672507
0.811106
1.02658
1.34747
1.785
2.2218
0.625633
0.624338
0.620469
0.614019
0.609047
0.614583
0.646644
0.72448
0.799712
0.704748
0.537635
0.444054
0.410146
0.407451
0.423003
0.454484
0.508275
0.617081
1.02105
3.16982
3.11437
2.36457
1.8026
1.38368
1.07714
0.860849
0.715198
0.621899
0.565794
0.536184
0.526925
0.536009
0.565368
0.621205
0.714822
0.863588
1.09132
1.42674
1.88477
2.35075
0.77483
0.762633
0.740229
0.713181
0.691059
0.687478
0.72303
0.809078
0.840831
0.685018
0.521645
0.437018
0.405993
0.403628
0.418564
0.4481
0.496688
0.586805
0.864749
2.42865
3.35775
2.5555
1.96375
1.51974
1.19145
0.955684
0.793323
0.68694
0.621716
0.586811
0.575816
0.586601
0.621205
0.686087
0.79273
0.958279
1.20595
1.56506
2.05765
2.57556
0.933188
0.913633
0.879593
0.840566
0.809453
0.804139
0.851655
0.954873
0.955206
0.750995
0.55972
0.455772
0.413215
0.404446
0.415135
0.4403
0.481843
0.55334
0.728989
1.58955
3.63317
2.8363
2.20417
1.7242
1.36586
1.10372
0.918536
0.793818
0.71546
0.672767
0.659192
0.672507
0.714822
0.79273
0.917614
1.10606
1.38067
1.77238
2.31444
2.91228
1.02856
1.01191
0.98274
0.948824
0.922125
0.923036
0.986728
1.11976
1.125
0.882093
0.638849
0.494536
0.428814
0.407921
0.41144
0.430636
0.464413
0.519713
0.629333
1.02262
3.06659
3.23005
2.54213
2.01375
1.61611
1.32087
1.10743
0.959682
0.864396
0.811436
0.794414
0.811106
0.863588
0.958279
1.10606
1.32279
1.63114
2.06502
2.67268
3.38114
1.04603
1.03774
1.02224
1.0027
0.987207
0.995269
1.06937
1.24464
1.32089
1.06661
0.756243
0.552566
0.45185
0.413135
0.406959
0.419135
0.445076
0.486953
0.558088
0.728538
1.52459
3.64867
2.99771
2.41555
1.96641
1.62985
1.38263
1.20773
1.09233
1.02699
1.00577
1.02658
1.09132
1.20595
1.38067
1.63114
1.98149
2.4695
3.15088
3.92836
1.0293
1.02651
1.0203
1.01079
1.00223
1.01031
1.07846
1.28178
1.49347
1.28125
0.899207
0.623906
0.479511
0.41898
0.401693
0.406612
0.425366
0.456651
0.505316
0.591736
0.834275
2.03046
3.61627
2.96392
2.45466
2.06466
1.77509
1.56731
1.42798
1.34798
1.32179
1.34747
1.42674
1.56506
1.77238
2.06502
2.4695
3.0182
3.70639
2.38599
1.01269
1.01168
1.00857
1.00225
0.994633
0.99737
1.04909
1.24784
1.59525
1.48252
1.03503
0.691944
0.505453
0.424123
0.396725
0.39552
0.408715
0.432632
0.468388
0.522913
0.622572
0.918295
2.24329
3.67977
3.13852
2.67369
2.31825
2.06054
1.88633
1.78563
1.75253
1.785
1.88477
2.05765
2.31444
2.67268
3.15088
3.70639
1.99121
0.977103
1.00474
1.00401
1.00136
0.995305
0.986749
0.985113
1.02471
1.20848
1.62727
1.60898
1.11919
0.734224
0.521573
0.42732
0.3938
0.389064
0.399237
0.419396
0.449206
0.492033
0.55802
0.683327
1.06159
2.63625
3.9201
3.38448
2.91775
2.57942
2.35279
2.22262
2.17997
2.2218
2.35075
2.57556
2.91228
3.38114
3.92836
2.38599
0.977103
0.706997
SCALARS C2 double 1
LOOKUP_TABLE default
2.78783
2.9371
3.14296
3.32779
3.47785
3.6006
3.70049
3.77869
3.83503
3.86906
3.88044
3.86903
3.8349
3.77828
3.69953
3.59901
3.4769
3.33287
3.16548
2.97121
2.74323
2.47153
2.14902
1.78613
1.41804
1.0894
0.98849
4.10447
4.45516
4.26743
4.00476
3.70245
3.38243
3.09256
2.90823
2.86557
2.90815
2.95797
2.98641
2.99722
2.9371
3.08036
3.2802
3.46333
3.61366
3.73692
3.83722
3.91571
3.97225
4.00638
4.01779
4.00635
3.97212
3.91531
3.83627
3.73541
3.613
3.46897
3.30237
3.11066
2.88855
2.62764
2.31983
1.96871
1.60072
1.25785
0.996784
2.86578
4.41487
4.30437
4.05083
3.75143
3.43348
3.14261
2.94798
2.8868
2.9145
2.95858
2.9863
2.99744
3.14296
3.2802
3.47465
3.65579
3.80575
3.92891
4.02903
4.10722
4.16338
4.1972
4.20848
4.19717
4.16325
4.10683
4.02812
3.92746
3.80523
3.66166
3.49643
3.30816
3.09346
2.84595
2.55707
2.22238
1.85444
1.48739
1.1675
1.13893
4.03206
4.34496
4.12798
3.83864
3.52557
3.23193
3.01856
2.92599
2.92837
2.96224
2.98851
3.00019
3.32779
3.46333
3.65579
3.83513
3.9836
4.10532
4.20385
4.28029
4.33476
4.36732
4.37815
4.3673
4.33466
4.27995
4.203
4.1039
3.98295
3.84057
3.67696
3.49166
3.28277
3.04589
2.77331
2.45626
2.09473
1.71103
1.34739
1.05836
2.51726
4.30371
4.20979
3.94346
3.63878
3.34096
3.10494
2.97696
2.95064
2.97259
2.99729
3.00981
3.47785
3.61366
3.80575
3.9836
4.13016
4.24965
4.34549
4.41886
4.47033
4.50067
4.51066
4.50065
4.47026
4.41858
4.34473
4.24828
4.12934
3.98843
3.82613
3.64264
3.43716
3.20687
2.94565
2.64392
2.29424
1.90636
1.51652
1.17509
1.18469
4.00951
4.26897
4.04348
3.74986
3.44716
3.18891
3.02872
2.97748
2.99052
3.01595
3.03058
3.6006
3.73692
3.92891
4.10532
4.24965
4.36616
4.45813
4.52692
4.5738
4.60064
4.60933
4.60064
4.57374
4.52669
4.45748
4.36489
4.24874
4.10962
3.94844
3.76596
3.56216
3.33542
3.08113
2.79052
2.45299
2.06849
1.66444
1.29045
1.02104
3.25716
4.28051
4.12163
3.83853
3.527
3.24466
3.05645
2.98954
3.00418
3.03863
3.05966
3.70049
3.83722
4.02903
4.20385
4.34549
4.45813
4.54485
4.60723
4.64755
4.66933
4.67609
4.66933
4.64752
4.60706
4.5443
4.45697
4.34454
4.20772
4.0478
3.86603
3.66303
3.43806
3.18772
2.90443
2.57674
2.19835
1.78767
1.39184
1.06374
2.10273
4.20387
4.15883
3.87823
3.54041
3.21809
2.99744
2.9247
2.96204
3.02707
3.06675
3.77869
3.91571
4.10722
4.28029
4.41886
4.52692
4.60723
4.66162
4.69355
4.70871
4.71292
4.70871
4.69354
4.66151
4.60678
4.52587
4.4179
4.28381
4.12535
3.94426
3.74171
3.5176
3.26944
2.9907
2.67004
2.2977
1.88501
1.47583
1.12445
1.27899
3.9294
4.10647
3.80749
3.40653
3.0192
2.75126
2.65701
2.71812
2.84034
2.9234
3.83503
3.97225
4.16338
4.33476
4.47033
4.5738
4.64755
4.69355
4.71645
4.72431
4.72569
4.72431
4.71645
4.69349
4.6472
4.57284
4.46937
4.33802
4.18102
4.0006
3.79835
3.57466
3.32762
3.05143
2.73522
2.36785
1.95671
1.54351
1.18436
1.03312
3.24969
3.87657
3.56952
3.13659
2.74851
2.45932
2.281
2.22318
2.26684
2.33182
3.86906
4.00638
4.1972
4.36732
4.50067
4.60064
4.66933
4.70871
4.72431
4.72619
4.72521
4.7262
4.72432
4.70868
4.66904
4.59976
4.4997
4.37042
4.21453
4.03461
3.83256
3.60901
3.36235
3.08724
2.77349
2.41093
2.00763
1.60532
1.26027
1.05908
2.56981
3.61624
3.39189
3.05567
2.76087
2.50308
2.26975
2.06631
1.9118
1.82804
3.88044
4.01779
4.20848
4.37815
4.51066
4.60933
4.67609
4.71292
4.72569
4.72521
4.72329
4.72521
4.7257
4.7129
4.67582
4.60847
4.50969
4.38119
4.22572
4.04597
3.84394
3.62026
3.37336
3.09827
2.78664
2.4331
2.05094
1.68027
1.37037
1.20576
2.89633
3.66046
3.44346
3.19951
2.98517
2.77724
2.55826
2.33321
2.13876
2.0256
3.86903
4.00635
4.19717
4.3673
4.50065
4.60064
4.66933
4.70871
4.72431
4.7262
4.72521
4.7262
4.72432
4.70868
4.66903
4.59975
4.49969
4.37041
4.21452
4.03453
3.83225
3.60807
3.3604
3.0855
2.77999
2.447
2.10239
1.77309
1.49173
1.49239
3.64404
3.78269
3.58382
3.40996
3.25462
3.0954
2.91455
2.71487
2.53496
2.42894
3.8349
3.97212
4.16325
4.33466
4.47026
4.57374
4.64752
4.69354
4.71645
4.72432
4.7257
4.72432
4.71644
4.69347
4.64716
4.57279
4.4693
4.33795
4.18089
4.00024
3.79731
3.57223
3.32413
3.05345
2.76482
2.46522
2.15765
1.84017
1.53875
2.58384
4.00514
3.90594
3.76038
3.63905
3.52642
3.40306
3.25296
3.07868
2.91675
2.81989
3.77828
3.91531
4.10683
4.27995
4.41858
4.52669
4.60706
4.66151
4.69349
4.70868
4.7129
4.70868
4.69347
4.66139
4.60662
4.52565
4.41764
4.28348
4.1248
3.94306
3.73907
3.51341
3.26877
3.0126
2.75218
2.4806
2.16939
1.80586
1.52646
3.8022
4.16126
4.05599
3.95994
3.87792
3.79442
3.69291
3.56082
3.40146
3.24931
3.1567
3.69953
3.83627
4.02812
4.203
4.34473
4.45748
4.5443
4.60678
4.6472
4.66904
4.67582
4.66903
4.64716
4.60662
4.54376
4.45634
4.34379
4.20674
4.04618
3.86299
3.65825
3.43569
3.20437
2.9733
2.73444
2.44822
2.06516
1.61313
2.30674
4.25803
4.29716
4.22984
4.17272
4.11748
4.051
3.96158
3.84024
3.69003
3.54276
3.45114
3.59901
3.73541
3.92746
4.1039
4.24828
4.36489
4.45697
4.52587
4.57284
4.59976
4.60847
4.59975
4.57279
4.52565
4.45634
4.36363
4.24724
4.10753
3.945
3.76075
3.55881
3.34884
3.14084
2.92797
2.6696
2.30164
1.81712
1.38161
3.68253
4.45055
4.44515
4.41356
4.38193
4.34159
4.28465
4.20384
4.09196
3.95039
3.80747
3.71625
3.4769
3.613
3.80523
3.98295
4.12934
4.24874
4.34454
4.4179
4.46937
4.4997
4.50969
4.49969
4.4693
4.41764
4.34379
4.24724
4.12787
3.9858
3.82192
3.64018
3.45028
3.26245
3.07093
2.83773
2.49733
2.01496
1.48288
1.64026
4.3149
4.58323
4.58861
4.57874
4.56058
4.52996
4.48266
4.41298
4.31365
4.18361
4.04722
3.95745
3.33287
3.46897
3.66166
3.84057
3.98843
4.10962
4.20772
4.28381
4.33802
4.37042
4.38119
4.37041
4.33795
4.28348
4.20674
4.10753
3.9858
3.84225
3.68069
3.51061
3.34204
3.16976
2.95871
2.64745
2.19068
1.64656
1.18577
2.8923
4.53777
4.65711
4.66651
4.66641
4.66293
4.65149
4.62528
4.57698
4.49849
4.38637
4.26102
4.17496
3.16548
3.30237
3.49643
3.67696
3.82613
3.94844
4.0478
4.12535
4.18102
4.21453
4.22572
4.21452
4.18089
4.1248
4.04618
3.945
3.82192
3.68069
3.53065
3.38148
3.22797
3.03716
2.75265
2.32789
1.7971
1.29303
1.08574
3.6214
4.38777
4.3798
4.33973
4.37519
4.47466
4.57983
4.64626
4.66244
4.62949
4.54987
4.44401
4.36558
2.97121
3.11066
3.30816
3.49166
3.64264
3.76596
3.86603
3.94426
4.0006
4.03461
4.04597
4.03453
4.00024
3.94306
3.86299
3.76075
3.64018
3.51061
3.38148
3.24722
3.0758
2.81482
2.42048
1.91499
1.4078
1.00378
1.12942
2.30873
2.04635
1.58577
1.4334
1.55285
2.04683
3.01109
3.96417
4.47655
4.64662
4.65209
4.58588
4.52262
2.74323
2.88855
3.09346
3.28277
3.43716
3.56216
3.66303
3.74171
3.79835
3.83256
3.84394
3.83225
3.79731
3.73907
3.65825
3.55881
3.45028
3.34204
3.22797
3.0758
2.83537
2.46687
1.98867
1.4949
1.07518
0.811263
0.819708
0.879432
0.919897
0.949248
0.960283
0.951007
0.926133
0.909754
1.05151
2.24485
4.05473
4.60038
4.66111
4.63286
2.47153
2.62764
2.84595
3.04589
3.20687
3.33542
3.43806
3.5176
3.57466
3.60901
3.62026
3.60807
3.57223
3.51341
3.43569
3.34884
3.26245
3.16976
3.03716
2.81482
2.46687
2.01362
1.54114
1.13239
0.863474
0.827608
0.948247
1.05694
1.13081
1.17607
1.1917
1.17709
1.13407
1.06728
0.985731
0.917553
1.19295
3.54966
4.5539
4.6625
2.14902
2.31983
2.55707
2.77331
2.94565
3.08113
3.18772
3.26944
3.32762
3.36235
3.37336
3.3604
3.32413
3.26877
3.20437
3.14084
3.07093
2.95871
2.75265
2.42048
1.98867
1.54114
1.15318
0.904793
0.887452
1.03357
1.18385
1.3017
1.38875
1.4429
1.46141
1.44346
1.39056
1.30656
1.19752
1.0723
0.951381
1.01651
3.3237
4.45534
1.78613
1.96871
2.22238
2.45626
2.64392
2.79052
2.90443
2.9907
3.05143
3.08724
3.09827
3.0855
3.05345
3.0126
2.9733
2.92797
2.83773
2.64745
2.32789
1.91499
1.4949
1.13239
0.904793
0.910498
1.08166
1.26858
1.42928
1.56079
1.65932
1.72035
1.74106
1.72069
1.66043
1.56351
1.43525
1.28287
1.11617
0.957372
1.01396
2.93155
1.41804
1.60072
1.85444
2.09473
2.29424
2.45299
2.57674
2.67004
2.73522
2.77349
2.78664
2.77999
2.76482
2.75218
2.73444
2.6696
2.49733
2.19068
1.7971
1.4078
1.07518
0.863474
0.887452
1.08166
1.29815
1.49682
1.6711
1.81462
1.92097
1.98608
2.00803
1.98637
1.92181
1.81647
1.67427
1.50136
1.30644
1.10238
0.915535
0.909157
1.0894
1.25785
1.48739
1.71103
1.90636
2.06849
2.19835
2.2977
2.36785
2.41093
2.4331
2.447
2.46522
2.4806
2.44822
2.30164
2.01496
1.64656
1.29303
1.00378
0.811263
0.827608
1.03357
1.26858
1.49682
1.70892
1.8948
2.04534
2.15499
2.22131
2.24354
2.2216
2.15577
2.04688
1.89691
1.71
1.4937
1.26022
1.02684
0.846715
0.98849
0.996784
1.1675
1.34739
1.51652
1.66444
1.78767
1.88501
1.95671
2.00763
2.05094
2.10239
2.15765
2.16939
2.06516
1.81712
1.48288
1.18577
1.08574
1.12942
0.819708
0.948247
1.18385
1.42928
1.6711
1.8948
2.08718
2.23992
2.34951
2.41517
2.43709
2.41547
2.35028
2.24137
2.08892
1.89458
1.66373
1.40813
1.14825
0.943665
4.10447
2.86578
1.13893
1.05836
1.17509
1.29045
1.39184
1.47583
1.54351
1.60532
1.68027
1.77309
1.84017
1.80586
1.61313
1.38161
1.64026
2.8923
3.6214
2.30873
0.879432
1.05694
1.3017
1.56079
1.81462
2.04534
2.23992
2.392
2.50001
2.56438
2.58582
2.56467
2.50077
2.39343
2.24157
2.04466
1.80547
1.5345
1.25617
1.04091
4.45516
4.41487
4.03206
2.51726
1.18469
1.02104
1.06374
1.12445
1.18436
1.26027
1.37037
1.49173
1.53875
1.52646
2.30674
3.68253
4.3149
4.53777
4.38777
2.04635
0.919897
1.13081
1.38875
1.65932
1.92097
2.15499
2.34951
2.50001
2.60632
2.66953
2.69057
2.6698
2.60705
2.50142
2.35115
2.15421
1.91109
1.63066
1.34018
1.1186
4.26743
4.30437
4.34496
4.30371
4.00951
3.25716
2.10273
1.27899
1.03312
1.05908
1.20576
1.49239
2.58384
3.8022
4.25803
4.45055
4.58323
4.65711
4.3798
1.58577
0.949248
1.17607
1.4429
1.72035
1.98608
2.22131
2.41517
2.56438
2.66953
2.73201
2.7528
2.73227
2.67024
2.56578
2.41683
2.22054
1.97597
1.69065
1.39339
1.16836
4.00476
4.05083
4.12798
4.20979
4.26897
4.28051
4.20387
3.9294
3.24969
2.56981
2.89633
3.64404
4.00514
4.16126
4.29716
4.44515
4.58861
4.66651
4.33973
1.4334
0.960283
1.1917
1.46141
1.74106
2.00803
2.24354
2.43709
2.58582
2.69057
2.7528
2.7735
2.75306
2.69127
2.58721
2.43876
2.24281
1.9979
1.7111
1.41167
1.18554
3.70245
3.75143
3.83864
3.94346
4.04348
4.12163
4.15883
4.10647
3.87657
3.61624
3.66046
3.78269
3.90594
4.05599
4.22984
4.41356
4.57874
4.66641
4.37519
1.55285
0.951007
1.17709
1.44346
1.72069
1.98637
2.2216
2.41547
2.56467
2.6698
2.73227
2.75306
2.73253
2.67052
2.56607
2.41716
2.2209
1.97634
1.69101
1.39372
1.16867
3.38243
3.43348
3.52557
3.63878
3.74986
3.83853
3.87823
3.80749
3.56952
3.39189
3.44346
3.58382
3.76038
3.95994
4.17272
4.38193
4.56058
4.66293
4.47466
2.04683
0.926133
1.13407
1.39056
1.66043
1.92181
2.15577
2.35028
2.50077
2.60705
2.67024
2.69127
2.67052
2.6078
2.50221
2.352
2.15511
1.91201
1.63153
1.34097
1.11934
3.09256
3.14261
3.23193
3.34096
3.44716
3.527
3.54041
3.40653
3.13659
3.05567
3.19951
3.40996
3.63905
3.87792
4.11748
4.34159
4.52996
4.65149
4.57983
3.01109
0.909754
1.06728
1.30656
1.56351
1.81647
2.04688
2.24137
2.39343
2.50142
2.56578
2.58721
2.56607
2.50221
2.39493
2.24315
2.04629
1.80709
1.53601
1.25751
1.04216
2.90823
2.94798
3.01856
3.10494
3.18891
3.24466
3.21809
3.0192
2.74851
2.76087
2.98517
3.25462
3.52642
3.79442
4.051
4.28465
4.48266
4.62528
4.64626
3.96417
1.05151
0.985731
1.19752
1.43525
1.67427
1.89691
2.08892
2.24157
2.35115
2.41683
2.43876
2.41716
2.352
2.24315
2.09076
1.89646
1.6656
1.40989
1.14985
0.945205
2.86557
2.8868
2.92599
2.97696
3.02872
3.05645
2.99744
2.75126
2.45932
2.50308
2.77724
3.0954
3.40306
3.69291
3.96158
4.20384
4.41298
4.57698
4.66244
4.47655
2.24485
0.917553
1.0723
1.28287
1.50136
1.71
1.89458
2.04466
2.15421
2.22054
2.24281
2.2209
2.15511
2.04629
1.89646
1.70976
1.49373
1.26056
1.02758
0.848043
2.90815
2.9145
2.92837
2.95064
2.97748
2.98954
2.9247
2.65701
2.281
2.26975
2.55826
2.91455
3.25296
3.56082
3.84024
4.09196
4.31365
4.49849
4.62949
4.64662
4.05473
1.19295
0.951381
1.11617
1.30644
1.4937
1.66373
1.80547
1.91109
1.97597
1.9979
1.97634
1.91201
1.80709
1.6656
1.49373
1.30022
1.09811
0.915147
0.932204
2.95797
2.95858
2.96224
2.97259
2.99052
3.00418
2.96204
2.71812
2.22318
2.06631
2.33321
2.71487
3.07868
3.40146
3.69003
3.95039
4.18361
4.38637
4.54987
4.65209
4.60038
3.54966
1.01651
0.957372
1.10238
1.26022
1.40813
1.5345
1.63066
1.69065
1.7111
1.69101
1.63153
1.53601
1.40989
1.26056
1.09811
0.946627
1.08672
3.22018
2.98641
2.9863
2.98851
2.99729
3.01595
3.03863
3.02707
2.84034
2.26684
1.9118
2.13876
2.53496
2.91675
3.24931
3.54276
3.80747
4.04722
4.26102
4.44401
4.58588
4.66111
4.5539
3.3237
1.01396
0.915535
1.02684
1.14825
1.25617
1.34018
1.39339
1.41167
1.39372
1.34097
1.25751
1.14985
1.02758
0.915147
1.08672
3.61537
4.51466
2.99722
2.99744
3.00019
3.00981
3.03058
3.05966
3.06675
2.9234
2.33182
1.82804
2.0256
2.42894
2.81989
3.1567
3.45114
3.71625
3.95745
4.17496
4.36558
4.52262
4.63286
4.6625
4.45534
2.93155
0.909157
0.846715
0.943665
1.04091
1.1186
1.16836
1.18554
1.16867
1.11934
1.04216
0.945205
0.848043
0.932204
3.22018
4.51466
4.6509
