# vtk DataFile Version 3.0
Brusselator Concentration Output
ASCII
DATASET STRUCTURED_POINTS
DIMENSIONS 40 40 1
ORIGIN 0.0 0.0 0.0
SPACING 0.005 0.005 1.0
POINT_DATA 1600
SCALARS C1 double 1
LOOKUP_TABLE default
1.10364
1.02498
0.895649
0.758693
0.646539
0.569461
0.522753
0.4972
0.48461
0.479254
0.477829
0.479256
0.484618
0.497219
0.522767
0.569313
0.64543
0.753867
0.880713
0.991427
1.05122
1.05778
1.03887
1.01931
1.00739
1.002
1.00016
0.999767
0.999804
0.999897
0.999958
0.999986
0.999996
0.999999
1
1
1
1
1
1
1.02498
0.940416
0.816936
0.701659
0.616336
0.562346
0.532736
0.519321
0.515153
0.514965
0.515313
0.514968
0.515161
0.519335
0.532726
0.562107
0.61498
0.696459
0.802571
0.913731
0.999096
1.03788
1.03797
1.02347
1.01072
1.00369
1.00082
0.999962
0.99984
0.999894
0.99995
0.999981
0.999994
0.999999
1
1
1
1
1
1
0.895649
0.816936
0.711668
0.627163
0.57621
0.553189
0.54961
0.55821
0.572456
0.5855
0.590822
0.585504
0.572464
0.558216
0.549559
0.552815
0.574563
0.621798
0.699454
0.803534
0.913093
0.994791
1.02903
1.02807
1.01624
1.00688
1.00216
1.0004
0.999936
0.999896
0.999939
0.999974
0.999991
0.999997
0.999999
1
1
1
1
1
0.758693
0.701659
0.627163
0.574706
0.554108
0.560066
0.586878
0.631231
0.688612
0.74345
0.767119
0.743455
0.68862
0.631223
0.586769
0.559541
0.552242
0.56966
0.618794
0.704592
0.819069
0.931927
1.00493
1.02747
1.02174
1.01105
1.00416
1.00112
1.00013
0.999921
0.99993
0.999965
0.999987
0.999996
0.999999
1
1
1
1
1
0.646539
0.616336
0.57621
0.554108
0.561585
0.600967
0.681764
0.835639
1.09999
1.39812
1.53245
1.39814
1.10001
0.835597
0.68155
0.600226
0.559484
0.549647
0.572398
0.634265
0.736881
0.861378
0.965797
1.01752
1.02459
1.01529
1.00663
1.00213
1.00043
0.999982
0.999928
0.999956
0.999981
0.999994
0.999998
1
1
1
1
1
0.569461
0.562346
0.553189
0.560066
0.600967
0.703608
0.974462
1.73066
2.94288
3.45213
3.4983
3.45213
2.94288
1.73046
0.973911
0.702421
0.598468
0.556219
0.553808
0.591746
0.675098
0.796021
0.918879
0.998264
1.02303
1.01856
1.0092
1.00334
1.00085
1.00009
0.999939
0.99995
0.999977
0.999992
0.999998
1
1
1
1
1
0.522753
0.532736
0.54961
0.586878
0.681764
0.974462
2.12031
3.5219
3.24783
3.0001
2.91741
3.00009
3.24778
3.52172
2.11848
0.972025
0.678483
0.583548
0.554215
0.570231
0.6337
0.743448
0.873089
0.973657
1.01714
1.0202
1.01148
1.0046
1.00134
1.00022
0.999964
0.999949
0.999973
0.99999
0.999998
1
1
1
1
1
0.4972
0.519321
0.55821
0.631231
0.835639
1.73066
3.5219
3.09048
2.6959
2.46125
2.38455
2.46124
2.69586
3.09033
3.52139
1.72454
0.830733
0.628252
0.566302
0.562496
0.608648
0.705602
0.834801
0.948994
1.00873
1.02025
1.01321
1.00574
1.00183
1.00038
0.999999
0.999953
0.999974
0.999991
0.999999
1
1
1
1
1
0.48461
0.515153
0.572456
0.688612
1.09999
2.94288
3.24783
2.6959
2.31529
2.09709
2.02616
2.09708
2.31526
2.69579
3.24765
2.93505
1.09211
0.685767
0.583436
0.562306
0.595052
0.681131
0.807021
0.928716
1.00036
1.01933
1.01431
1.00663
1.00224
1.00052
1.00004
0.999964
0.999979
0.999997
1.00001
1.00001
1.00001
1
1
1
0.479254
0.514965
0.5855
0.74345
1.39812
3.45213
3.0001
2.46125
2.09709
1.88945
1.82205
1.88944
2.09705
2.46115
2.99984
3.44966
1.38689
0.74056
0.598476
0.564587
0.588736
0.667706
0.790485
0.915638
0.994341
1.01831
1.01488
1.00719
1.00252
1.00063
1.00007
0.999976
0.999988
1.00001
1.00002
1.00002
1.00002
1.00001
1.00001
1.00001
0.477829
0.515313
0.590822
0.767119
1.53245
3.4983
2.91741
2.38455
2.02616
1.82205
1.75583
1.82204
2.02612
2.38445
2.91716
3.49743
1.51974
0.764179
0.604524
0.565788
0.586953
0.663465
0.785032
0.911154
0.992175
1.01789
1.01505
1.00737
1.00261
1.00065
1.00006
0.999962
0.999978
1.00001
1.00002
1.00003
1.00003
1.00003
1.00003
1.00002
0.479256
0.514968
0.585504
0.743455
1.39814
3.45213
3.00009
2.46124
2.09708
1.88944
1.82204
1.88943
2.09704
2.46114
2.99983
3.44966
1.3869
0.740565
0.598481
0.564593
0.588746
0.667722
0.790508
0.91566
0.994351
1.01829
1.01482
1.00709
1.00239
1.00046
0.999897
0.999811
0.999852
0.999911
0.999964
1.00001
1.00003
1.00005
1.00005
1.00005
0.484618
0.515161
0.572464
0.68862
1.10001
2.94288
3.24778
2.69586
2.31526
2.09705
2.02612
2.09704
2.31522
2.69575
3.24761
2.93505
1.09212
0.685776
0.583446
0.562321
0.595076
0.681166
0.807051
0.928706
1.00027
1.01911
1.01394
1.00611
1.00159
0.999783
0.999266
0.999224
0.99933
0.999483
0.999648
0.999803
0.99993
1.00002
1.00007
1.0001
0.497219
0.519335
0.558216
0.631223
0.835597
1.73046
3.52172
3.09033
2.69579
2.46115
2.38445
2.46114
2.69575
3.09019
3.52121
1.72435
0.830693
0.628246
0.566313
0.562523
0.60869
0.705633
0.834747
0.948733
1.00814
1.01927
1.0118
1.00393
0.999696
0.998037
0.997584
0.997612
0.997847
0.998197
0.998615
0.999052
0.999451
0.999769
0.999983
1.00009
0.522767
0.532726
0.549559
0.586769
0.68155
0.973911
2.11848
3.52139
3.24765
2.99984
2.91716
2.99983
3.24761
3.52121
2.11665
0.971478
0.678273
0.583445
0.554169
0.570225
0.633699
0.74333
0.87261
0.972516
1.01511
1.01721
1.00757
0.999912
0.996086
0.994628
0.994254
0.994355
0.99473
0.995334
0.996139
0.997074
0.998026
0.998863
0.999476
0.999796
0.569313
0.562107
0.552815
0.559541
0.600226
0.702421
0.972025
1.72454
2.93505
3.44966
3.49743
3.44966
2.93505
1.72435
0.971478
0.701241
0.597739
0.555708
0.553433
0.591446
0.674725
0.795211
0.917055
0.994874
1.01781
1.01163
1.00093
0.994183
0.991232
0.990278
0.990091
0.990148
0.990372
0.990883
0.991816
0.993192
0.994861
0.996536
0.997885
0.998635
0.64543
0.61498
0.574563
0.552242
0.559484
0.598468
0.678483
0.830733
1.09211
1.38689
1.51974
1.3869
1.09212
0.830693
0.678273
0.597739
0.557407
0.547812
0.570727
0.632646
0.73496
0.858393
0.960768
1.00978
1.01427
1.00326
0.994135
0.990313
0.989931
0.990692
0.991128
0.990675
0.9895
0.988231
0.987601
0.988096
0.989727
0.992019
0.994207
0.995534
0.753867
0.696459
0.621798
0.56966
0.549647
0.556219
0.583548
0.628252
0.685767
0.74056
0.764179
0.740565
0.685776
0.628246
0.583445
0.555708
0.547812
0.564647
0.61332
0.698736
0.812499
0.923714
0.994044
1.01384
1.00698
0.998174
0.996589
1.00139
1.00875
1.0149
1.01728
1.01496
1.00864
1.00031
0.992477
0.987146
0.98511
0.985794
0.987711
0.989207
0.880713
0.802571
0.699454
0.618794
0.572398
0.553808
0.554215
0.566302
0.583436
0.598476
0.604524
0.598481
0.583446
0.566313
0.554169
0.553433
0.570727
0.61332
0.686851
0.788084
0.896101
0.976827
1.01056
1.01152
1.00747
1.01456
1.03504
1.06337
1.09117
1.11094
1.11806
1.11105
1.09127
1.063
1.03282
1.00741
0.9906
0.98226
0.979604
0.979332
0.991427
0.913731
0.803534
0.704592
0.634265
0.591746
0.570231
0.562496
0.562306
0.564587
0.565788
0.564593
0.562321
0.562523
0.570225
0.591446
0.632646
0.698736
0.788084
0.886027
0.965793
1.0067
1.01572
1.02043
1.04464
1.09692
1.16921
1.24193
1.29742
1.32931
1.33938
1.32942
1.2976
1.24194
1.1681
1.09236
1.03226
0.994755
0.975936
0.968754
1.05122
0.999096
0.913093
0.819069
0.736881
0.675098
0.6337
0.608648
0.595052
0.588736
0.586953
0.588746
0.595076
0.60869
0.633699
0.674725
0.73496
0.812499
0.896101
0.965793
1.00502
1.01827
1.03225
1.07904
1.17743
1.30904
1.41702
1.46221
1.45835
1.44003
1.43137
1.44008
1.45839
1.46206
1.41596
1.30502
1.16651
1.05589
0.992638
0.966492
1.05778
1.03788
0.994791
0.931927
0.861378
0.796021
0.743448
0.705602
0.681131
0.667706
0.663465
0.667722
0.681166
0.705633
0.74333
0.795211
0.858393
0.923714
0.976827
1.0067
1.01827
1.03709
1.10271
1.24739
1.42668
1.50348
1.44073
1.32441
1.22083
1.15477
1.13247
1.15476
1.22073
1.32398
1.43923
1.49897
1.41473
1.22279
1.06488
0.992685
1.03887
1.03797
1.02903
1.00493
0.965797
0.918879
0.873089
0.834801
0.807021
0.790485
0.785032
0.790508
0.807051
0.834747
0.87261
0.917055
0.960768
0.994044
1.01056
1.01572
1.03225
1.10271
1.27499
1.48332
1.49786
1.32706
1.12961
0.972265
0.866414
0.807173
0.788255
0.807149
0.8663
0.971841
1.12831
1.32377
1.49028
1.4646
1.24544
1.08883
1.01931
1.02347
1.02807
1.02747
1.01752
0.998264
0.973657
0.948994
0.928716
0.915638
0.911154
0.91566
0.928706
0.948733
0.972516
0.994874
1.00978
1.01384
1.01152
1.02043
1.07904
1.24739
1.48332
1.48391
1.2515
1.004
0.815857
0.691864
0.617871
0.5795
0.567699
0.579478
0.617776
0.691526
0.814904
1.00217
1.25043
1.48958
1.49966
1.32012
1.00739
1.01072
1.01624
1.02174
1.02459
1.02303
1.01714
1.00873
1.00036
0.994341
0.992175
0.994351
1.00027
1.00814
1.01511
1.01781
1.01427
1.00698
1.00747
1.04464
1.17743
1.42668
1.49786
1.2515
0.962892
0.745907
0.608164
0.528397
0.485157
0.464179
0.457949
0.464163
0.485089
0.528161
0.607551
0.745191
0.966151
1.27623
1.58836
1.66711
1.002
1.00369
1.00688
1.01105
1.01529
1.01856
1.0202
1.02025
1.01933
1.01831
1.01789
1.01829
1.01911
1.01927
1.01721
1.01163
1.00326
0.998174
1.01456
1.09692
1.30904
1.50348
1.32706
1.004
0.745907
0.583996
0.494165
0.447596
0.424707
0.41451
0.411642
0.414499
0.424659
0.447439
0.493815
0.584061
0.751728
1.03934
1.45894
1.83324
1.00016
1.00082
1.00216
1.00416
1.00663
1.0092
1.01148
1.01321
1.01431
1.01488
1.01505
1.01482
1.01394
1.0118
1.00757
1.00093
0.994135
0.996589
1.03504
1.16921
1.41702
1.44073
1.12961
0.815857
0.608164
0.494165
0.437754
0.411821
0.400913
0.396949
0.39602
0.396941
0.400878
0.411717
0.437579
0.49472
0.615286
0.85556
1.26815
1.7085
0.999767
0.999962
1.0004
1.00112
1.00213
1.00334
1.0046
1.00574
1.00663
1.00719
1.00737
1.00709
1.00611
1.00393
0.999912
0.994183
0.990313
1.00139
1.06337
1.24193
1.46221
1.32441
0.972265
0.691864
0.528397
0.447596
0.411821
0.398035
0.394164
0.393944
0.394203
0.393937
0.394137
0.397961
0.411754
0.448434
0.536014
0.731687
1.1001
1.50316
0.999804
0.99984
0.999936
1.00013
1.00043
1.00085
1.00134
1.00183
1.00224
1.00252
1.00261
1.00239
1.00159
0.999696
0.996086
0.991232
0.989931
1.00875
1.09117
1.29742
1.45835
1.22083
0.866414
0.617871
0.485157
0.424707
0.400913
0.394164
0.394524
0.396671
0.397707
0.396664
0.394501
0.394109
0.400908
0.425699
0.492864
0.656037
0.980035
1.33366
0.999897
0.999894
0.999896
0.999921
0.999982
1.00009
1.00022
1.00038
1.00052
1.00063
1.00065
1.00046
0.999783
0.998037
0.994628
0.990278
0.990692
1.0149
1.11094
1.32931
1.44003
1.15477
0.807173
0.5795
0.464179
0.41451
0.396949
0.393944
0.396671
0.400214
0.401725
0.400209
0.39665
0.393898
0.396978
0.415578
0.471845
0.616057
0.91035
1.22996
0.999958
0.99995
0.999939
0.99993
0.999928
0.999939
0.999964
0.999999
1.00004
1.00007
1.00006
0.999897
0.999266
0.997584
0.994254
0.990091
0.991128
1.01728
1.11806
1.33938
1.43137
1.13247
0.788255
0.567699
0.457949
0.411642
0.39602
0.394203
0.397707
0.401725
0.403401
0.401719
0.397686
0.394159
0.396059
0.412732
0.465588
0.603631
0.887705
1.19558
0.999986
0.999981
0.999974
0.999965
0.999956
0.99995
0.999949
0.999953
0.999964
0.999976
0.999962
0.999811
0.999224
0.997612
0.994355
0.990148
0.990675
1.01496
1.11105
1.32942
1.44008
1.15476
0.807149
0.579478
0.464163
0.414499
0.396941
0.393937
0.396664
0.400209
0.401719
0.400203
0.396643
0.393891
0.396969
0.415566
0.471829
0.616033
0.910311
1.2299
0.999996
0.999994
0.999991
0.999987
0.999981
0.999977
0.999973
0.999974
0.999979
0.999988
0.999978
0.999852
0.99933
0.997847
0.99473
0.990372
0.9895
1.00864
1.09127
1.2976
1.45839
1.22073
0.8663
0.617776
0.485089
0.424659
0.400878
0.394137
0.394501
0.39665
0.397686
0.396643
0.394478
0.394082
0.400874
0.425652
0.492793
0.655928
0.979875
1.33345
0.999999
0.999999
0.999997
0.999996
0.999994
0.999992
0.99999
0.999991
0.999997
1.00001
1.00001
0.999911
0.999483
0.998197
0.995334
0.990883
0.988231
1.00031
1.063
1.24194
1.46206
1.32398
0.971841
0.691526
0.528161
0.447439
0.411717
0.397961
0.394109
0.393898
0.394159
0.393891
0.394082
0.397887
0.411649
0.448276
0.535768
0.731308
1.09956
1.50248
1
1
0.999999
0.999999
0.999998
0.999998
0.999998
0.999999
1.00001
1.00002
1.00002
0.999964
0.999648
0.998615
0.996139
0.991816
0.987601
0.992477
1.03282
1.1681
1.41596
1.43923
1.12831
0.814904
0.607551
0.493815
0.437579
0.411754
0.400908
0.396978
0.396059
0.396969
0.400874
0.411649
0.437404
0.494363
0.614639
0.854497
1.2666
1.70653
1
1
1
1
1
1
1
1
1.00001
1.00002
1.00003
1.00001
0.999803
0.999052
0.997074
0.993192
0.988096
0.987146
1.00741
1.09236
1.30502
1.49897
1.32377
1.00217
0.745191
0.584061
0.49472
0.448434
0.425699
0.415578
0.412732
0.415566
0.425652
0.448276
0.494363
0.584097
0.75091
1.03723
1.45508
1.82775
1
1
1
1
1
1
1
1
1.00001
1.00002
1.00003
1.00003
0.99993
0.999451
0.998026
0.994861
0.989727
0.98511
0.9906
1.03226
1.16651
1.41473
1.49028
1.25043
0.966151
0.751728
0.615286
0.536014
0.492864
0.471845
0.465588
0.471829
0.492793
0.535768
0.614639
0.75091
0.969125
1.27444
1.57906
1.6515
1
1
1
1
1
1
1
1
1
1.00001
1.00003
1.00005
1.00002
0.999769
0.998863
0.996536
0.992019
0.985794
0.98226
0.994755
1.05589
1.22279
1.4646
1.48958
1.27623
1.03934
0.85556
0.731687
0.656037
0.616057
0.603631
0.616033
0.655928
0.731308
0.854497
1.03723
1.27444
1.49321
1.47657
1.29018
1
1
1
1
1
1
1
1
1
1.00001
1.00003
1.00005
1.00007
0.999983
0.999476
0.997885
0.994207
0.987711
0.979604
0.975936
0.992638
1.06488
1.24544
1.49966
1.58836
1.45894
1.26815
1.1001
0.980035
0.91035
0.887705
0.910311
0.979875
1.09956
1.2666
1.45508
1.57906
1.47657
1.21206
1.04959
1
1
1
1
1
1
1
1
1
1.00001
1.00002
1.00005
1.0001
1.00009
0.999796
0.998635
0.995534
0.989207
0.979332
0.968754
0.966492
0.992685
1.08883
1.32012
1.66711
1.83324
1.7085
1.50316
1.33366
1.22996
1.19558
1.2299
1.33345
1.50248
1.70653
1.82775
1.6515
1.29018
1.04959
0.953852
SCALARS C2 double 1
LOOKUP_TABLE default
2.73941
2.79333
2.91065
3.08101
3.27404
3.46034
3.62198
3.75068
3.8433
3.89894
3.91747
3.89894
3.84329
3.75063
3.62181
3.45999
3.27401
3.08455
2.92799
2.84417
2.84419
2.89364
2.94572
2.97883
2.99426
2.99963
3.00078
3.00065
3.00034
3.00014
3.00005
3.00001
3
3
3
3
3
3
3
3
2.79333
2.89625
3.06988
3.2751
3.48213
3.67165
3.83235
3.95856
4.04825
4.10148
4.11907
4.10148
4.04824
3.95851
3.83221
3.67143
3.48258
3.28013
3.09078
2.95061
2.88699
2.89378
2.93273
2.96833
2.98883
2.99749
3.00014
3.00053
3.00036
3.00017
3.00007
3.00002
3.00001
3
3
3
3
3
3
3
2.91065
3.06988
3.30857
3.5533
3.7746
3.96322
4.11451
4.22646
4.3004
4.34087
4.35347
4.34086
4.30039
4.22643
4.11443
3.9632
3.77561
3.5599
3.33323
3.12574
2.97669
2.91211
2.91803
2.95097
2.97851
2.99306
2.99868
3.00021
3.00035
3.00021
3.00009
3.00003
3.00001
3
3
3
3
3
3
3
3.08101
3.2751
3.5533
3.81805
4.04091
4.21789
4.34591
4.42297
4.45271
4.45094
4.44515
4.45094
4.45269
4.42294
4.34591
4.21808
4.04235
3.82546
3.57948
3.32722
3.1074
2.96499
2.91768
2.93387
2.96502
2.98637
2.99621
2.99954
3.00026
3.00025
3.00013
3.00005
3.00002
3
3
3
3
3
3
3
3.27404
3.48213
3.7746
4.04091
4.25181
4.40069
4.47373
4.44234
4.2669
3.99697
3.85844
3.99695
4.26688
4.44235
4.47385
4.4012
4.25375
4.0487
3.80011
3.52661
3.26077
3.05186
2.94196
2.92523
2.95148
2.97809
2.99272
2.99844
3.00004
3.00025
3.00016
3.00007
3.00002
3.00001
3
3
3
3
3
3
3.46034
3.67165
3.96322
4.21789
4.40069
4.48432
4.37215
3.69529
2.22297
1.36438
1.1963
1.36436
2.22295
3.69546
4.37264
4.48543
4.40347
4.226
3.98656
3.70695
3.41542
3.15809
2.9894
2.92985
2.94136
2.96949
2.98848
2.99692
2.99965
3.0002
3.00018
3.00009
3.00003
3.00001
3
3
3
3
3
3
3.62198
3.83235
4.11451
4.34591
4.47373
4.37215
3.2896
1.21874
0.937673
0.956319
0.971837
0.956322
0.937685
1.21893
3.29171
4.37479
4.47789
4.35443
4.13475
3.85832
3.55457
3.26568
3.04974
2.94673
2.93672
2.96197
2.98407
2.99515
2.99912
3.00011
3.00018
3.0001
3.00004
3.00001
3
3
3
3
3
3
3.75068
3.95856
4.22646
4.42297
4.44234
3.69529
1.21874
0.94457
1.02726
1.10114
1.12855
1.10115
1.02727
0.944626
1.21987
3.70261
4.44892
4.43197
4.24311
3.97579
3.66793
3.36016
3.11033
2.97025
2.93725
2.95647
2.9801
2.99338
2.99855
2.99997
3.00017
3.00011
3.00004
3.00001
3
3
3
3
3
3
3.8433
4.04825
4.3004
4.45271
4.2669
2.22297
0.937673
1.02726
1.15458
1.24586
1.27866
1.24586
1.15459
1.0273
0.937888
2.23407
4.27755
4.46227
4.31354
4.05807
3.75041
3.43229
3.16056
2.9933
2.9407
2.95312
2.97705
2.99188
2.99801
2.99983
3.00015
3.0001
3.00004
3
2.99999
2.99999
2.99999
2.99999
3
3
3.89894
4.10148
4.34087
4.45094
3.99697
1.36438
0.956319
1.10114
1.24586
1.34663
1.38263
1.34664
1.24587
1.10119
0.956458
1.37046
4.01242
4.46098
4.35134
4.10621
3.80011
3.47706
3.19328
3.00974
2.94424
2.95148
2.97514
2.99087
2.99763
2.99971
3.0001
3.00008
3.00001
2.99998
2.99997
2.99997
2.99998
2.99998
2.99999
2.99999
3.91747
4.11907
4.35347
4.44515
3.85844
1.1963
0.971837
1.12855
1.27866
1.38263
1.41972
1.38263
1.27867
1.12859
0.971965
1.20056
3.87608
4.45539
4.36294
4.12197
3.81667
3.49219
3.20458
3.01564
2.94566
2.95097
2.97447
2.99049
2.99746
2.99964
3.00007
3.00005
2.99998
2.99994
2.99993
2.99993
2.99994
2.99995
2.99996
2.99997
3.89894
4.10148
4.34086
4.45094
3.99695
1.36436
0.956322
1.10115
1.24586
1.34664
1.38263
1.34664
1.24588
1.10119
0.956461
1.37044
4.0124
4.46098
4.35134
4.1062
3.8001
3.47704
3.19323
3.00967
2.94415
2.9514
2.97509
2.99085
2.99764
2.99975
3.00015
3.00012
3.00002
2.99996
2.99991
2.99989
2.99989
2.9999
2.99991
2.99992
3.84329
4.04824
4.30039
4.45269
4.26688
2.22295
0.937685
1.02727
1.15459
1.24587
1.27867
1.24588
1.15461
1.02732
0.9379
2.23405
4.27753
4.46225
4.31352
4.05804
3.75037
3.43222
3.16044
2.99318
2.94061
2.95314
2.9772
2.9922
2.99848
3.00041
3.00076
3.00068
3.0005
3.00031
3.00013
2.99999
2.99989
2.99983
2.99982
2.99981
3.75063
3.95851
4.22643
4.42294
4.44235
3.69546
1.21893
0.944626
1.0273
1.10119
1.12859
1.10119
1.02732
0.944683
1.22006
3.70278
4.44893
4.43195
4.24307
3.97572
3.66782
3.35999
3.11017
2.97024
2.93755
2.95723
2.9814
2.99523
3.00088
3.00263
3.00295
3.00277
3.00237
3.00184
3.00126
3.00071
3.00025
2.99994
2.99975
2.99967
3.62181
3.83221
4.11443
4.34591
4.47385
4.37264
3.29171
1.21987
0.937888
0.956458
0.971965
0.956461
0.9379
1.22006
3.29381
4.37527
4.47801
4.35442
4.13466
3.85816
3.55432
3.26544
3.04981
2.94755
2.93869
2.96534
2.98893
3.00143
3.00656
3.00829
3.00863
3.00829
3.00746
3.00625
3.00479
3.00326
3.00187
3.00077
3.00004
2.99969
3.45999
3.67143
3.9632
4.21808
4.4012
4.48543
4.37479
3.70261
2.23407
1.37046
1.20056
1.37044
2.23405
3.70278
4.37527
4.48653
4.40395
4.22617
3.98652
3.70673
3.41513
3.15822
2.99082
2.93356
2.94805
2.97944
3.00158
3.01272
3.01745
3.01922
3.01959
3.0191
3.01782
3.01575
3.01297
3.00975
3.00649
3.00367
3.00163
3.00057
3.27401
3.48258
3.77561
4.04235
4.25375
4.40347
4.47789
4.44892
4.27755
4.01242
3.87608
4.0124
4.27753
4.44893
4.47801
4.40395
4.25566
4.05005
3.80103
3.52721
3.26154
3.05413
2.94767
2.93609
2.96828
3.00056
3.01983
3.02872
3.03201
3.03289
3.03294
3.0327
3.03197
3.03022
3.02696
3.0222
3.0165
3.01089
3.00643
3.00398
3.08455
3.28013
3.5599
3.82546
4.0487
4.226
4.35443
4.43197
4.46227
4.46098
4.45539
4.46098
4.46225
4.43195
4.35442
4.22617
4.05005
3.83267
3.58594
3.33291
3.11348
2.97421
2.93338
2.95823
2.99783
3.02516
3.03706
3.03838
3.03461
3.03026
3.02836
3.03005
3.03433
3.03878
3.04072
3.03859
3.03262
3.02465
3.01727
3.01287
2.92799
3.09078
3.33323
3.57948
3.80011
3.98656
4.13475
4.24311
4.31354
4.35134
4.36294
4.35134
4.31352
4.24307
4.13466
3.98652
3.80103
3.58594
3.35808
3.14842
2.99867
2.93758
2.95152
2.99364
3.02601
3.03572
3.02407
2.99806
2.9679
2.9444
2.93554
2.94419
2.96749
2.99779
3.02538
3.0428
3.04794
3.04385
3.03623
3.03072
2.84417
2.95061
3.12574
3.32722
3.52661
3.70695
3.85832
3.97579
4.05807
4.10621
4.12197
4.1062
4.05804
3.97572
3.85816
3.70673
3.52721
3.33291
3.14842
3.00842
2.94224
2.94833
2.98927
3.02195
3.02082
2.97589
2.89097
2.78673
2.69242
2.62991
2.6084
2.62971
2.69196
2.7861
2.891
2.97925
3.03391
3.05679
3.0607
3.05883
2.84419
2.88699
2.97669
3.1074
3.26077
3.41542
3.55457
3.66793
3.75041
3.80011
3.81667
3.8001
3.75037
3.66782
3.55432
3.41513
3.26154
3.11348
2.99867
2.94224
2.9475
2.98647
3.01612
2.99702
2.89678
2.71032
2.49399
2.32584
2.23127
2.19058
2.18
2.19046
2.23099
2.32541
2.49399
2.713
2.90737
3.02492
3.07578
3.0915
2.89364
2.89378
2.91211
2.96499
3.05186
3.15809
3.26568
3.36016
3.43229
3.47706
3.49219
3.47704
3.43222
3.35999
3.26544
3.15822
3.05413
2.97421
2.93758
2.94833
2.98647
3.01337
2.97836
2.81826
2.52057
2.23573
2.10465
2.09616
2.13473
2.17257
2.1873
2.17254
2.13469
2.09628
2.1056
2.24005
2.53501
2.85163
3.03859
3.10823
2.94572
2.93273
2.91803
2.91768
2.94196
2.9894
3.04974
3.11033
3.16056
3.19328
3.20458
3.19323
3.16044
3.11017
3.04981
2.99082
2.94767
2.93338
2.95152
2.98927
3.01612
2.97836
2.78508
2.40736
2.10957
2.06499
2.16093
2.29049
2.40237
2.47485
2.49969
2.47485
2.40243
2.29082
2.16224
2.06937
2.12365
2.44703
2.85423
3.05767
2.97883
2.96833
2.95097
2.93387
2.92523
2.92985
2.94673
2.97025
2.9933
3.00974
3.01564
3.00967
2.99318
2.97024
2.94755
2.93356
2.93609
2.95823
2.99364
3.02195
2.99702
2.81826
2.40736
2.07814
2.07936
2.24698
2.44678
2.62172
2.75142
2.83002
2.85628
2.83003
2.75148
2.62206
2.44805
2.25062
2.0878
2.09873
2.4523
2.83156
2.99426
2.98883
2.97851
2.96502
2.95148
2.94136
2.93672
2.93725
2.9407
2.94424
2.94566
2.94415
2.94061
2.93755
2.93869
2.94805
2.96828
2.99783
3.02601
3.02082
2.89678
2.52057
2.10957
2.07936
2.28112
2.53271
2.75944
2.93866
3.06649
3.14306
3.16858
3.14306
3.06653
2.93893
2.76053
2.53574
2.28559
2.0774
2.07696
2.34517
2.99963
2.99749
2.99306
2.98637
2.97809
2.96949
2.96197
2.95647
2.95312
2.95148
2.95097
2.9514
2.95314
2.95723
2.96534
2.97944
3.00056
3.02516
3.03572
2.97589
2.71032
2.23573
2.06499
2.24698
2.53271
2.80524
3.03037
3.20431
3.32867
3.40377
3.42894
3.40377
3.32869
3.2045
3.03126
2.80782
2.53509
2.23101
1.96913
1.88134
3.00078
3.00014
2.99868
2.99621
2.99272
2.98848
2.98407
2.9801
2.97705
2.97514
2.97447
2.97509
2.9772
2.9814
2.98893
3.00158
3.01983
3.03706
3.02407
2.89097
2.49399
2.10465
2.16093
2.44678
2.75944
3.03037
3.24945
3.41992
3.54347
3.61896
3.64442
3.61896
3.54348
3.42004
3.25017
3.03268
2.76102
2.42331
2.0315
1.72835
3.00065
3.00053
3.00021
2.99954
2.99844
2.99692
2.99515
2.99338
2.99188
2.99087
2.99049
2.99085
2.9922
2.99523
3.00143
3.01272
3.02872
3.03838
2.99806
2.78673
2.32584
2.09616
2.29049
2.62172
2.93866
3.20431
3.41992
3.58997
3.71485
3.79189
3.81801
3.79189
3.71484
3.59005
3.42052
3.20646
2.9402
2.5953
2.14627
1.75877
3.00034
3.00036
3.00035
3.00026
3.00004
2.99965
2.99912
2.99855
2.99801
2.99763
2.99746
2.99764
2.99848
3.00088
3.00656
3.01745
3.03201
3.03461
2.9679
2.69242
2.23127
2.13473
2.40237
2.75142
3.06649
3.32867
3.54347
3.71485
3.84193
3.92091
3.94778
3.9209
3.84192
3.7149
3.544
3.33073
3.06823
2.72446
2.25322
1.8353
3.00014
3.00017
3.00021
3.00025
3.00025
3.0002
3.00011
2.99997
2.99983
2.99971
2.99964
2.99975
3.00041
3.00263
3.00829
3.01922
3.03289
3.03026
2.9444
2.62991
2.19058
2.17257
2.47485
2.83002
3.14306
3.40377
3.61896
3.79189
3.92091
4.00145
4.02893
4.00145
3.9209
3.79194
3.61944
3.40578
3.145
2.80333
2.32479
1.89683
3.00005
3.00007
3.00009
3.00013
3.00016
3.00018
3.00018
3.00017
3.00015
3.0001
3.00007
3.00015
3.00076
3.00295
3.00863
3.01959
3.03294
3.02836
2.93554
2.6084
2.18
2.1873
2.49969
2.85628
3.16858
3.42894
3.64442
3.81801
3.94778
4.02893
4.05664
4.02893
3.94777
3.81805
3.64489
3.43094
3.1706
2.82977
2.34964
1.91944
3.00001
3.00002
3.00003
3.00005
3.00007
3.00009
3.0001
3.00011
3.0001
3.00008
3.00005
3.00012
3.00068
3.00277
3.00829
3.0191
3.0327
3.03005
2.94419
2.62971
2.19046
2.17254
2.47485
2.83003
3.14306
3.40377
3.61896
3.79189
3.9209
4.00145
4.02893
4.00144
3.92089
3.79193
3.61944
3.40578
3.14501
2.80334
2.3248
1.89685
3
3.00001
3.00001
3.00002
3.00002
3.00003
3.00004
3.00004
3.00004
3.00001
2.99998
3.00002
3.0005
3.00237
3.00746
3.01782
3.03197
3.03433
2.96749
2.69196
2.23099
2.13469
2.40243
2.75148
3.06653
3.32869
3.54348
3.71484
3.84192
3.9209
3.94777
3.92089
3.84191
3.7149
3.54401
3.33075
3.06828
2.72453
2.25331
1.83538
3
3
3
3
3.00001
3.00001
3.00001
3.00001
3
2.99998
2.99994
2.99996
3.00031
3.00184
3.00625
3.01575
3.03022
3.03878
2.99779
2.7861
2.32541
2.09628
2.29082
2.62206
2.93893
3.2045
3.42004
3.59005
3.7149
3.79194
3.81805
3.79193
3.7149
3.59013
3.42064
3.20665
2.94046
2.59566
2.14668
1.75913
3
3
3
3
3
3
3
3
2.99999
2.99997
2.99993
2.99991
3.00013
3.00126
3.00479
3.01297
3.02696
3.04072
3.02538
2.891
2.49399
2.1056
2.16224
2.44805
2.76053
3.03126
3.25017
3.42052
3.544
3.61944
3.64489
3.61944
3.54401
3.42064
3.25089
3.03357
2.76214
2.42468
2.03299
1.72971
3
3
3
3
3
3
3
3
2.99999
2.99997
2.99993
2.99989
2.99999
3.00071
3.00326
3.00975
3.0222
3.03859
3.0428
2.97925
2.713
2.24005
2.06937
2.25062
2.53574
2.80782
3.03268
3.20646
3.33073
3.40578
3.43094
3.40578
3.33075
3.20665
3.03357
2.81043
2.53821
2.23496
1.97408
1.88689
3
3
3
3
3
3
3
3
2.99999
2.99998
2.99994
2.99989
2.99989
3.00025
3.00187
3.00649
3.0165
3.03262
3.04794
3.03391
2.90737
2.53501
2.12365
2.0878
2.28559
2.53509
2.76102
2.9402
3.06823
3.145
3.1706
3.14501
3.06828
2.94046
2.76214
2.53821
2.29042
2.08687
2.09355
2.36507
3
3
3
3
3
3
3
3
2.99999
2.99998
2.99995
2.9999
2.99983
2.99994
3.00077
3.00367
3.01089
3.02465
3.04385
3.05679
3.02492
2.85163
2.44703
2.09873
2.0774
2.23101
2.42331
2.5953
2.72446
2.80333
2.82977
2.80334
2.72453
2.59566
2.42468
2.23496
2.08687
2.12267
2.49833
2.87334
3
3
3
3
3
3
3
3
3
2.99999
2.99996
2.99991
2.99982
2.99975
3.00004
3.00163
3.00643
3.01727
3.03623
3.0607
3.07578
3.03859
2.85423
2.4523
2.07696
1.96913
2.0315
2.14627
2.25322
2.32479
2.34964
2.3248
2.25331
2.14668
2.03299
1.97408
2.09355
2.49833
2.92967
3.12346
3
3
3
3
3
3
3
3
3
2.99999
2.99997
2.99992
2.99981
2.99967
2.99969
3.00057
3.00398
3.01287
3.03072
3.05883
3.0915
3.10823
3.05767
2.83156
2.34517
1.88134
1.72835
1.75877
1.8353
1.89683
1.91944
1.89685
1.83538
1.75913
1.72971
1.88689
2.36507
2.87334
3.12346
3.20208
