# vtk DataFile Version 3.0
Brusselator Concentration Output
ASCII
DATASET STRUCTURED_POINTS
DIMENSIONS 40 40 1
ORIGIN 0.0 0.0 0.0
SPACING 0.005 0.005 1.0
POINT_DATA 1600
SCALARS C1 double 1
LOOKUP_TABLE default
0.752511
1.53664
3.15167
2.43806
1.87994
1.47544
1.18958
0.995665
0.87322
0.806442
0.78532
0.806463
0.873339
0.996176
1.19136
1.48036
1.88947
2.44669
3.12225
1.9899
0.937302
0.737261
0.731208
0.781312
0.852175
0.920342
0.968951
0.994045
1.00249
1.00327
1.00204
1.00094
1.00034
1.0001
1.00002
0.999997
0.999996
0.999998
0.999999
1
1.53664
2.73031
2.26553
1.76161
1.38452
1.11178
0.919048
0.789111
0.70762
0.663387
0.649428
0.663404
0.707715
0.789516
0.920417
1.11531
1.39018
1.7591
2.21729
2.65616
1.66356
0.923429
0.781184
0.794043
0.848352
0.909576
0.958538
0.987506
0.999606
1.00243
1.00195
1.00102
1.00041
1.00013
1.00003
1
0.999997
0.999998
0.999999
1
3.15167
2.26553
1.62246
1.21444
0.947915
0.771501
0.656142
0.583036
0.539204
0.516095
0.508906
0.516107
0.539271
0.583318
0.657071
0.773715
0.950301
1.20562
1.55728
2.00914
2.48369
1.57958
0.939207
0.827584
0.844575
0.892455
0.941012
0.975877
0.994139
1.00066
1.00168
1.00113
1.00053
1.00019
1.00005
1.00001
0.999999
0.999999
0.999999
1
2.43806
1.76161
1.21444
0.881718
0.686861
0.572217
0.504685
0.465431
0.443477
0.432485
0.429163
0.432494
0.443523
0.465616
0.505261
0.573421
0.687004
0.868964
1.1451
1.5385
2.05003
2.41637
1.35169
0.909231
0.849058
0.87563
0.921204
0.961467
0.986687
0.997944
1.00111
1.00119
1.00066
1.00027
1.00009
1.00002
1
0.999999
1
1
1.87994
1.38452
0.947915
0.686861
0.547484
0.473573
0.434138
0.413359
0.402869
0.39811
0.396764
0.398117
0.402902
0.413482
0.434488
0.474136
0.546358
0.672972
0.883152
1.20719
1.66729
2.25698
2.04424
1.09164
0.873997
0.865223
0.903394
0.946653
0.978099
0.994386
1.00015
1.00114
1.00078
1.00036
1.00013
1.00003
1
1
1
1
1.47544
1.11178
0.771501
0.572217
0.473573
0.426009
0.40337
0.393203
0.389216
0.388004
0.387788
0.38801
0.389241
0.393289
0.403585
0.426198
0.471834
0.558842
0.715491
0.976871
1.37448
1.92117
2.42765
1.41599
0.932902
0.865188
0.890183
0.933292
0.96933
0.990283
0.998831
1.00093
1.00084
1.00042
1.00015
1.00004
1
0.999996
0.999998
1
1.18958
0.919048
0.656142
0.504685
0.434138
0.40337
0.391101
0.38751
0.387662
0.388781
0.389324
0.388786
0.387683
0.387575
0.391236
0.403345
0.432146
0.492458
0.60943
0.81916
1.15989
1.65648
2.29993
1.8314
1.03306
0.876747
0.882388
0.92247
0.961241
0.986054
0.997256
1.00055
1.00081
1.00043
1.00014
1.00001
0.999977
0.999976
0.999984
0.999989
0.995665
0.789111
0.583036
0.465431
0.413359
0.393203
0.38751
0.38825
0.391282
0.394106
0.395222
0.394111
0.3913
0.388303
0.387596
0.393055
0.411287
0.454384
0.544147
0.715263
1.00997
1.462
2.08485
2.17176
1.1645
0.897761
0.87937
0.914534
0.954465
0.982145
0.995614
1.00003
1.00067
1.00036
1.00006
0.99993
0.9999
0.999913
0.999933
0.999946
0.87322
0.70762
0.539204
0.443477
0.402869
0.389216
0.387662
0.391282
0.396352
0.400447
0.402002
0.400452
0.396369
0.391327
0.387721
0.388999
0.400784
0.433357
0.50591
0.651074
0.912696
1.33041
1.92201
2.32582
1.2965
0.922274
0.879472
0.909308
0.949414
0.979004
0.994182
0.999507
1.00046
1.00021
0.999899
0.999753
0.999728
0.999757
0.999795
0.999819
0.806442
0.663387
0.516095
0.432485
0.39811
0.388004
0.388781
0.394106
0.400447
0.405367
0.407211
0.405371
0.400464
0.394148
0.388824
0.387752
0.396032
0.422937
0.486081
0.61652
0.858451
1.25483
1.82629
2.36012
1.39249
0.941904
0.880701
0.906543
0.946545
0.977272
0.993531
0.999425
1.00053
1.00023
0.999818
0.999574
0.999481
0.999474
0.999499
0.999521
0.78532
0.649428
0.508906
0.429163
0.396764
0.387788
0.389324
0.395222
0.402002
0.407211
0.409159
0.407216
0.402018
0.395262
0.389363
0.387525
0.39469
0.419806
0.479963
0.605651
0.841078
1.23028
1.79508
2.3621
1.42718
0.949591
0.881889
0.906657
0.946979
0.978367
0.995111
1.00114
1.00209
1.00144
1.00061
0.999945
0.999487
0.999204
0.999052
0.99899
0.806463
0.663404
0.516107
0.432494
0.398117
0.38801
0.388786
0.394111
0.400452
0.405371
0.407216
0.405376
0.400468
0.394152
0.388829
0.387757
0.396038
0.422944
0.486087
0.616533
0.858512
1.25509
1.82717
2.36182
1.39338
0.943895
0.884241
0.911859
0.953524
0.985437
1.00219
1.00787
1.00815
1.00654
1.00454
1.00263
1.00098
0.999717
0.998871
0.998454
0.873339
0.707715
0.539271
0.443523
0.402902
0.389241
0.387683
0.3913
0.396369
0.400464
0.402018
0.400468
0.396386
0.391346
0.387741
0.389024
0.400815
0.433397
0.505971
0.651198
0.913052
1.33149
1.92506
2.33192
1.30349
0.931482
0.892633
0.926987
0.971131
1.00351
1.01988
1.02478
1.02388
1.02055
1.01625
1.01162
1.00715
1.00332
1.00056
0.999125
0.996176
0.789516
0.583318
0.465616
0.413482
0.393289
0.387575
0.388303
0.391327
0.394148
0.395262
0.394152
0.391346
0.388355
0.387661
0.39314
0.411405
0.454562
0.544448
0.715877
1.01143
1.46554
2.09323
2.19266
1.18917
0.925558
0.914126
0.956449
1.00203
1.03332
1.04841
1.05263
1.05129
1.04707
1.04074
1.03268
1.02368
1.01505
1.00829
1.0046
1.19136
0.920417
0.657071
0.505261
0.434488
0.403585
0.391236
0.387596
0.387721
0.388824
0.389363
0.388829
0.387741
0.387661
0.391369
0.403557
0.432494
0.493055
0.610533
0.821383
1.16458
1.66624
2.31903
1.89252
1.09081
0.9357
0.945755
0.987675
1.02587
1.04968
1.06095
1.06585
1.06871
1.0704
1.06952
1.06433
1.05445
1.04178
1.02999
1.02291
1.48036
1.11531
0.773715
0.573421
0.474136
0.426198
0.403345
0.393055
0.388999
0.387752
0.387525
0.387757
0.389024
0.39314
0.403557
0.426387
0.472427
0.560225
0.718478
0.983063
1.38651
1.94307
2.47489
1.53481
1.02552
0.94195
0.947985
0.968259
0.983629
0.991097
0.995421
1.00263
1.0159
1.03472
1.05558
1.07317
1.08234
1.08123
1.07348
1.06659
1.88947
1.39018
0.950301
0.687004
0.546358
0.471834
0.432146
0.411287
0.400784
0.396032
0.39469
0.396038
0.400815
0.411405
0.432494
0.472427
0.545423
0.673892
0.888029
1.21927
1.68961
2.28827
2.20691
1.23574
0.951856
0.884685
0.86349
0.853333
0.844641
0.837242
0.835441
0.843613
0.864268
0.898
0.943456
0.99666
1.05038
1.09527
1.12429
1.13701
2.44669
1.7591
1.20562
0.868964
0.672972
0.558842
0.492458
0.454384
0.433357
0.422937
0.419806
0.422944
0.433397
0.454562
0.493055
0.560225
0.673892
0.858654
1.14208
1.5465
2.07013
2.49205
1.57549
0.988183
0.818066
0.750627
0.715289
0.692437
0.675349
0.663831
0.660095
0.666323
0.684433
0.716609
0.765477
0.833407
0.920455
1.02027
1.11472
1.17434
3.12225
2.21729
1.55728
1.1451
0.883152
0.715491
0.60943
0.544147
0.50591
0.486081
0.479963
0.486087
0.505971
0.544448
0.610533
0.718478
0.888029
1.14208
1.50041
1.96357
2.43771
1.91103
1.05354
0.768605
0.662718
0.61188
0.583437
0.564945
0.552051
0.544101
0.54146
0.544752
0.555235
0.575394
0.609482
0.663883
0.74619
0.859057
0.983992
1.07092
1.9899
2.65616
2.00914
1.5385
1.20719
0.976871
0.81916
0.715263
0.651074
0.61652
0.605651
0.616533
0.651198
0.715877
0.821383
0.983063
1.21927
1.5465
1.96357
2.39459
2.0833
1.12168
0.742191
0.607576
0.548706
0.52012
0.505074
0.496408
0.491332
0.488691
0.487864
0.488767
0.49221
0.500272
0.516796
0.548133
0.60311
0.68721
0.784468
0.850626
0.937302
1.66356
2.48369
2.05003
1.66729
1.37448
1.15989
1.00997
0.912696
0.858451
0.841078
0.858512
0.913052
1.01143
1.16458
1.38651
1.68961
2.07013
2.43771
2.0833
1.15102
0.732686
0.579254
0.515216
0.487669
0.476975
0.474236
0.475269
0.477781
0.48009
0.480983
0.480049
0.477968
0.47663
0.479279
0.490839
0.517563
0.562071
0.611727
0.642404
0.737261
0.923429
1.57958
2.41637
2.25698
1.92117
1.65648
1.462
1.33041
1.25483
1.23028
1.25509
1.33149
1.46554
1.66624
1.94307
2.28827
2.49205
1.91103
1.12168
0.732686
0.57073
0.501133
0.473063
0.465438
0.468269
0.476582
0.487377
0.498022
0.505868
0.508749
0.505829
0.498062
0.487946
0.478948
0.475071
0.479862
0.492693
0.504993
0.510099
0.731208
0.781184
0.939207
1.35169
2.04424
2.42765
2.29993
2.08485
1.92201
1.82629
1.79508
1.82717
1.92506
2.09323
2.31903
2.47489
2.20691
1.57549
1.05354
0.742191
0.579254
0.501133
0.468957
0.461631
0.468286
0.483599
0.50465
0.528759
0.552182
0.569787
0.576408
0.569773
0.55224
0.529177
0.506121
0.487224
0.474217
0.46457
0.453544
0.444547
0.781312
0.794043
0.827584
0.909231
1.09164
1.41599
1.8314
2.17176
2.32582
2.36012
2.3621
2.36182
2.33192
2.19266
1.89252
1.53481
1.23574
0.988183
0.768605
0.607576
0.515216
0.473063
0.461631
0.468869
0.489033
0.520077
0.561464
0.612116
0.667301
0.714144
0.733197
0.714172
0.667469
0.612687
0.562857
0.522441
0.490537
0.462575
0.43607
0.418992
0.852175
0.848352
0.844575
0.849058
0.873997
0.932902
1.03306
1.1645
1.2965
1.39249
1.42718
1.39338
1.30349
1.18917
1.09081
1.02552
0.951856
0.818066
0.662718
0.548706
0.487669
0.465438
0.468286
0.489033
0.526232
0.5832
0.668779
0.799098
0.985423
1.18072
1.26787
1.18091
0.986011
0.800317
0.670736
0.585284
0.525275
0.477421
0.437577
0.414379
0.920342
0.909576
0.892455
0.87563
0.865223
0.865188
0.876747
0.897761
0.922274
0.941904
0.949591
0.943895
0.931482
0.925558
0.9357
0.94195
0.884685
0.750627
0.61188
0.52012
0.476975
0.468269
0.483599
0.520077
0.5832
0.693246
0.912155
1.40155
2.25086
2.97857
3.19544
2.97922
2.2532
1.40555
0.916208
0.695829
0.580466
0.504588
0.449753
0.420353
0.968951
0.958538
0.941012
0.921204
0.903394
0.890183
0.882388
0.87937
0.879472
0.880701
0.881889
0.884241
0.892633
0.914126
0.945755
0.947985
0.86349
0.715289
0.583437
0.505074
0.474236
0.476582
0.50465
0.561464
0.668779
0.912155
1.64466
3.19389
3.59071
3.43728
3.36822
3.43733
3.59094
3.20007
1.6563
0.91676
0.664197
0.542066
0.46795
0.431414
0.994045
0.987506
0.975877
0.961467
0.946653
0.933292
0.92247
0.914534
0.909308
0.906543
0.906657
0.911859
0.926987
0.956449
0.987675
0.968259
0.853333
0.692437
0.564945
0.496408
0.475269
0.487377
0.528759
0.612116
0.799098
1.40155
3.19389
3.49723
3.15783
2.93667
2.86287
2.93667
3.15763
3.49616
3.20639
1.41182
0.792179
0.5881
0.488793
0.444146
1.00249
0.999606
0.994139
0.986687
0.978099
0.96933
0.961241
0.954465
0.949414
0.946545
0.946979
0.953524
0.971131
1.00203
1.02587
0.983629
0.844641
0.675349
0.552051
0.491332
0.477781
0.498022
0.552182
0.667301
0.985423
2.25086
3.59071
3.15783
2.7937
2.57935
2.50931
2.57934
2.79345
3.15648
3.58716
2.26797
0.975524
0.63813
0.50873
0.455847
1.00327
1.00243
1.00066
0.997944
0.994386
0.990283
0.986054
0.982145
0.979004
0.977272
0.978367
0.985437
1.00351
1.03332
1.04968
0.991097
0.837242
0.663831
0.544101
0.488691
0.48009
0.505868
0.569787
0.714144
1.18072
2.97857
3.43728
2.93667
2.57935
2.37316
2.30602
2.37314
2.57909
2.93525
3.43171
2.99261
1.1676
0.680507
0.523507
0.464113
1.00204
1.00195
1.00168
1.00111
1.00015
0.998831
0.997256
0.995614
0.994182
0.993531
0.995111
1.00219
1.01988
1.04841
1.06095
0.995421
0.835441
0.660095
0.54146
0.487864
0.480983
0.508749
0.576408
0.733197
1.26787
3.19544
3.36822
2.86287
2.50931
2.30602
2.23989
2.30601
2.50905
2.86144
3.36254
3.20561
1.2532
0.697732
0.529032
0.467106
1.00094
1.00102
1.00113
1.00119
1.00114
1.00093
1.00055
1.00003
0.999507
0.999425
1.00114
1.00787
1.02478
1.05263
1.06585
1.00263
0.843613
0.666323
0.544752
0.488767
0.480049
0.505829
0.569773
0.714172
1.18091
2.97922
3.43733
2.93667
2.57934
2.37314
2.30601
2.37312
2.57908
2.93525
3.43176
2.99327
1.16781
0.680557
0.523527
0.464124
1.00034
1.00041
1.00053
1.00066
1.00078
1.00084
1.00081
1.00067
1.00046
1.00053
1.00209
1.00815
1.02388
1.05129
1.06871
1.0159
0.864268
0.684433
0.555235
0.49221
0.477968
0.498062
0.55224
0.667469
0.986011
2.2532
3.59094
3.15763
2.79345
2.57909
2.50905
2.57908
2.7932
3.15628
3.58739
2.27039
0.976161
0.638336
0.508829
0.455911
1.0001
1.00013
1.00019
1.00027
1.00036
1.00042
1.00043
1.00036
1.00021
1.00023
1.00144
1.00654
1.02055
1.04707
1.0704
1.03472
0.898
0.716609
0.575394
0.500272
0.47663
0.487946
0.529177
0.612687
0.800317
1.40555
3.20007
3.49616
3.15648
2.93525
2.86144
2.93525
3.15628
3.4951
3.21254
1.416
0.793484
0.588699
0.489142
0.444395
1.00002
1.00003
1.00005
1.00009
1.00013
1.00015
1.00014
1.00006
0.999899
0.999818
1.00061
1.00454
1.01625
1.04074
1.06952
1.05558
0.943456
0.765477
0.609482
0.516796
0.479279
0.478948
0.506121
0.562857
0.670736
0.916208
1.6563
3.20639
3.58716
3.43171
3.36254
3.43176
3.58739
3.21254
1.66824
0.921041
0.666287
0.543391
0.468888
0.432163
0.999997
1
1.00001
1.00002
1.00003
1.00004
1.00001
0.99993
0.999753
0.999574
0.999945
1.00263
1.01162
1.03268
1.06433
1.07317
0.99666
0.833407
0.663883
0.548133
0.490839
0.475071
0.487224
0.522441
0.585284
0.695829
0.91676
1.41182
2.26797
2.99261
3.20561
2.99327
2.27039
1.416
0.921041
0.698657
0.582691
0.506586
0.451576
0.422049
0.999996
0.999997
0.999999
1
1
1
0.999977
0.9999
0.999728
0.999481
0.999487
1.00098
1.00715
1.02368
1.05445
1.08234
1.05038
0.920455
0.74619
0.60311
0.517563
0.479862
0.474217
0.490537
0.525275
0.580466
0.664197
0.792179
0.975524
1.1676
1.2532
1.16781
0.976161
0.793484
0.666287
0.582691
0.524236
0.477765
0.439025
0.416429
0.999998
0.999998
0.999999
0.999999
1
0.999996
0.999976
0.999913
0.999757
0.999474
0.999204
0.999717
1.00332
1.01505
1.04178
1.08123
1.09527
1.02027
0.859057
0.68721
0.562071
0.492693
0.46457
0.462575
0.477421
0.504588
0.542066
0.5881
0.63813
0.680507
0.697732
0.680557
0.638336
0.588699
0.543391
0.506586
0.477765
0.452969
0.429755
0.41494
0.999999
0.999999
0.999999
1
1
0.999998
0.999984
0.999933
0.999795
0.999499
0.999052
0.998871
1.00056
1.00829
1.02999
1.07348
1.12429
1.11472
0.983992
0.784468
0.611727
0.504993
0.453544
0.43607
0.437577
0.449753
0.46795
0.488793
0.50873
0.523507
0.529032
0.523527
0.508829
0.489142
0.468888
0.451576
0.439025
0.429755
0.420247
0.413135
1
1
1
1
1
1
0.999989
0.999946
0.999819
0.999521
0.99899
0.998454
0.999125
1.0046
1.02291
1.06659
1.13701
1.17434
1.07092
0.850626
0.642404
0.510099
0.444547
0.418992
0.414379
0.420353
0.431414
0.444146
0.455847
0.464113
0.467106
0.464124
0.455911
0.444395
0.432163
0.422049
0.416429
0.41494
0.413135
0.410479
SCALARS C2 double 1
LOOKUP_TABLE default
4.19972
3.60939
1.21232
1.11614
1.32861
1.55343
1.75853
1.92703
2.04981
2.12368
2.14827
2.12368
2.04975
1.92671
1.75739
1.55042
1.32314
1.10883
1.11044
3.00827
3.85222
3.77818
3.57837
3.37073
3.19608
3.07629
3.0133
2.99135
2.98956
2.99344
2.99693
2.99886
2.99967
2.99994
3.00001
3.00001
3.00001
3
3
3
3.60939
1.7178
1.26378
1.4541
1.68739
1.91154
2.10801
2.26569
2.37931
2.44743
2.4701
2.44743
2.37926
2.2654
2.10687
1.90837
1.68168
1.44951
1.26375
1.44947
3.12367
3.68316
3.5885
3.40569
3.23484
3.10761
3.03248
3.00002
2.99218
2.9937
2.99665
2.99862
2.99955
2.9999
2.99999
3.00001
3.00001
3
3
3
1.21232
1.26378
1.56012
1.85649
2.12284
2.35188
2.54091
2.68811
2.79302
2.85584
2.87676
2.85584
2.79299
2.68789
2.53991
2.34884
2.11744
1.85592
1.58737
1.3654
1.52759
3.07764
3.5462
3.45663
3.29951
3.16153
3.06679
3.01644
2.99766
2.99454
2.99627
2.99821
2.99933
2.99981
2.99996
3
3.00001
3
3
3
1.11614
1.4541
1.85649
2.19777
2.47243
2.69443
2.87294
3.01128
3.11034
3.17005
3.19002
3.17005
3.11034
3.01115
2.87219
2.69188
2.46779
2.20011
1.89891
1.59321
1.35703
1.74856
3.24051
3.482
3.36944
3.22507
3.10991
3.03889
3.00613
2.9964
2.99604
2.99774
2.99904
2.99968
2.99992
2.99999
3
3
3
3
1.32861
1.68739
2.12284
2.47243
2.73849
2.94987
3.12075
3.2548
3.35194
3.41101
3.43086
3.41101
3.35194
3.25472
3.12019
2.94773
2.73439
2.47572
2.17137
1.83621
1.5126
1.33642
2.40333
3.40748
3.42259
3.2861
3.1554
3.06493
3.01727
2.99952
2.99622
2.99733
2.99873
2.99953
2.99987
2.99998
3
3
3
3
1.55343
1.91154
2.35188
2.69443
2.94987
3.15438
3.3224
3.4561
3.55404
3.61401
3.63424
3.61402
3.55405
3.45606
3.32196
3.15252
2.94598
2.69738
2.4009
2.05955
1.70039
1.39323
1.59966
3.13144
3.43864
3.33597
3.19801
3.09185
3.03013
3.00384
2.99693
2.99708
2.99846
2.9994
2.99982
2.99997
3
3
3
3
1.75853
2.10801
2.54091
2.87294
3.12075
3.3224
3.49068
3.62612
3.72608
3.7876
3.80839
3.7876
3.7261
3.6261
3.49033
3.32069
3.11691
2.87506
2.58776
2.25036
1.87697
1.51819
1.36003
2.6338
3.40172
3.36988
3.23412
3.11702
3.04339
3.00893
2.99815
2.99708
2.9983
2.99932
2.99982
2.99999
3.00003
3.00002
3.00001
3
1.92703
2.26569
2.68811
3.01128
3.2548
3.4561
3.62612
3.764
3.86624
3.92933
3.95068
3.92933
3.86625
3.76399
3.62582
3.45451
3.25094
3.01253
2.73217
2.40141
2.02449
1.63958
1.35643
2.1103
3.31064
3.38705
3.26186
3.1384
3.05561
3.01416
2.99974
2.99738
2.99835
2.9994
2.99994
3.00011
3.00013
3.00009
3.00006
3.00004
2.04981
2.37931
2.79302
3.11034
3.35194
3.55404
3.72608
3.86624
3.97043
4.0348
4.0566
4.03481
3.97045
3.86624
3.72582
3.55251
3.34804
3.11089
2.83472
2.50965
2.13368
1.73564
1.40078
1.7723
3.19165
3.3911
3.28094
3.15464
3.06557
3.01885
3.00148
2.998
2.9987
2.99975
3.00029
3.00045
3.00041
3.00032
3.00023
3.00018
2.12368
2.44743
2.85584
3.17005
3.41101
3.61401
3.7876
3.92933
4.0348
4.09999
4.12207
4.1
4.03482
3.92934
3.78735
3.61253
3.40709
3.17016
2.89604
2.57448
2.20025
1.79636
1.43839
1.61842
3.09224
3.38912
3.29212
3.16494
3.07222
3.02219
3.00288
2.99865
2.99921
3.0003
3.0009
3.00107
3.001
3.00085
3.0007
3.00061
2.14827
2.4701
2.87676
3.19002
3.43086
3.63424
3.80839
3.95068
4.0566
4.12207
4.14423
4.12207
4.05662
3.95069
3.80815
3.63277
3.42693
3.18999
2.91647
2.59607
2.22257
1.81705
1.45227
1.57694
3.05463
3.38801
3.29596
3.16828
3.07395
3.02249
3.00239
2.99796
2.9987
3.00015
3.00115
3.00165
3.00181
3.00178
3.00167
3.00159
2.12368
2.44743
2.85584
3.17005
3.41101
3.61402
3.7876
3.92933
4.03481
4.1
4.12207
4.10001
4.03483
3.92934
3.78736
3.61254
3.4071
3.17017
2.89606
2.57451
2.20026
1.79627
1.43809
1.61881
3.09349
3.38928
3.29078
3.16158
3.06681
3.01527
2.99536
2.99145
2.99311
2.99584
2.99832
3.00029
3.00171
3.00262
3.0031
3.0033
2.04975
2.37926
2.79299
3.11034
3.35194
3.55405
3.7261
3.86625
3.97045
4.03482
4.05662
4.03483
3.97046
3.86626
3.72583
3.55252
3.34805
3.11089
2.83472
2.50964
2.13356
1.73515
1.39952
1.77021
3.18818
3.3851
3.26975
3.13684
3.04153
2.99044
2.9713
2.96871
2.97259
2.97852
2.98496
2.9912
2.99665
3.00087
3.00367
3.00503
1.92671
2.2654
2.68789
3.01115
3.25472
3.45606
3.6261
3.76399
3.86624
3.92934
3.95069
3.92934
3.86626
3.76399
3.6258
3.45447
3.25087
3.01242
2.73201
2.40109
2.02368
1.63767
1.35225
2.09172
3.28744
3.35741
3.21844
3.07958
2.98378
2.93387
2.9161
2.91531
2.92229
2.93327
2.94686
2.96185
2.9766
2.98927
2.99839
3.0031
1.75739
2.10687
2.53991
2.87219
3.12019
3.32196
3.49033
3.62582
3.72582
3.78735
3.80815
3.78736
3.72583
3.6258
3.48997
3.32026
3.11637
2.87437
2.58681
2.24874
1.8739
1.51248
1.34561
2.56197
3.33115
3.28307
3.12234
2.98365
2.89549
2.85295
2.83898
2.83874
2.84498
2.85636
2.87378
2.89745
2.92526
2.95276
2.97465
2.98667
1.55042
1.90837
2.34884
2.69188
2.94773
3.15252
3.32069
3.45451
3.55251
3.61253
3.63277
3.61254
3.55252
3.45447
3.32026
3.15066
2.94389
2.69489
2.39752
2.0543
1.69192
1.37876
1.53183
2.97036
3.28615
3.16219
3.00867
2.90101
2.84559
2.82556
2.8205
2.81701
2.81082
2.8043
2.80325
2.81387
2.83901
2.87473
2.91009
2.93202
1.32314
1.68168
2.11744
2.46779
2.73439
2.94598
3.11691
3.25094
3.34804
3.40709
3.42693
3.4071
3.34805
3.25087
3.11637
2.94389
2.73032
2.47079
2.16419
1.82476
1.49459
1.29681
2.14111
3.15815
3.19241
3.07268
2.98263
2.94425
2.94264
2.95441
2.96064
2.9516
2.9255
2.88595
2.84059
2.80016
2.77612
2.77509
2.79174
2.80843
1.10883
1.44951
1.85592
2.20011
2.47572
2.69738
2.87506
3.01253
3.11089
3.17016
3.18999
3.17017
3.11089
3.01242
2.87437
2.69489
2.47079
2.20086
1.89374
1.57834
1.3227
1.52
2.84227
3.2037
3.16596
3.11979
3.1181
3.15139
3.19641
3.23206
3.2458
3.2328
3.19265
3.12752
3.04188
2.94292
2.84091
2.74843
2.67832
2.64073
1.11044
1.26375
1.58737
1.89891
2.17137
2.4009
2.58776
2.73217
2.83472
2.89604
2.91647
2.89606
2.83472
2.73201
2.58681
2.39752
2.16419
1.89374
1.60798
1.35696
1.34199
2.44418
3.1887
3.26149
3.26454
3.30155
3.37159
3.45223
3.5216
3.56678
3.58268
3.56811
3.52316
3.44842
3.34483
3.21339
3.05514
2.87481
2.69639
2.57813
3.00827
1.44947
1.3654
1.59321
1.83621
2.05955
2.25036
2.40141
2.50965
2.57448
2.59607
2.57451
2.50964
2.40109
2.24874
2.0543
1.82476
1.57834
1.35696
1.31327
2.19657
3.15823
3.3349
3.38116
3.45185
3.55501
3.66827
3.76884
3.84408
3.88975
3.90516
3.89046
3.84568
3.77064
3.66466
3.52541
3.34673
3.12308
2.88251
2.71891
3.85222
3.12367
1.52759
1.35703
1.5126
1.70039
1.87697
2.02449
2.13368
2.20025
2.22257
2.20026
2.13356
2.02368
1.8739
1.69192
1.49459
1.3227
1.34199
2.19657
3.14223
3.37353
3.45394
3.55364
3.68636
3.82908
3.95766
4.05971
4.13199
4.1748
4.18901
4.17506
4.1327
4.06114
3.95901
3.82308
3.64487
3.41354
3.15698
2.98322
3.77818
3.68316
3.07764
1.74856
1.33642
1.39323
1.51819
1.63958
1.73564
1.79636
1.81705
1.79627
1.73515
1.63767
1.51248
1.37876
1.29681
1.52
2.44418
3.15823
3.37353
3.47843
3.60431
3.7641
3.93392
4.08797
4.2136
4.3082
4.37304
4.41049
4.4227
4.41059
4.37332
4.30878
4.21442
4.08659
3.91696
3.69302
3.43864
3.26475
3.57837
3.5885
3.5462
3.24051
2.40333
1.59966
1.36003
1.35643
1.40078
1.43839
1.45227
1.43809
1.39952
1.35225
1.34561
1.53183
2.14111
2.84227
3.1887
3.3349
3.45394
3.60431
3.78976
3.98536
4.16363
4.31071
4.42338
4.50277
4.5525
4.57827
4.58602
4.57832
4.55259
4.5029
4.42338
4.30922
4.15304
3.94204
3.69341
3.51831
3.37073
3.40569
3.45663
3.482
3.40748
3.13144
2.6338
2.1103
1.7723
1.61842
1.57694
1.61881
1.77021
2.09172
2.56197
2.97036
3.15815
3.2037
3.26149
3.38116
3.55364
3.7641
3.98536
4.18835
4.35713
4.48619
4.57363
4.62005
4.63169
4.62389
4.6177
4.6239
4.63162
4.61976
4.57292
4.48429
4.34897
4.15573
3.91478
3.7373
3.19608
3.23484
3.29951
3.36944
3.42259
3.43864
3.40172
3.31064
3.19165
3.09224
3.05463
3.09349
3.18818
3.28744
3.33115
3.28615
3.19241
3.16596
3.26454
3.45185
3.68636
3.93392
4.16363
4.35713
4.50577
4.60188
4.63458
4.58978
4.46059
4.29254
4.21039
4.29238
4.46007
4.58864
4.63273
4.5994
4.49996
4.33219
4.10283
3.92394
3.07629
3.10761
3.16153
3.22507
3.2861
3.33597
3.36988
3.38705
3.3911
3.38912
3.38801
3.38928
3.3851
3.35741
3.28307
3.16219
3.07268
3.11979
3.30155
3.55501
3.82908
4.08797
4.31071
4.48619
4.60188
4.63257
4.51666
4.08675
3.15383
2.22902
1.9201
2.22827
3.15109
4.08229
4.51202
4.62883
4.59861
4.46949
4.25773
4.07984
3.0133
3.03248
3.06679
3.10991
3.1554
3.19801
3.23412
3.26186
3.28094
3.29212
3.29596
3.29078
3.26975
3.21844
3.12234
3.00867
2.98263
3.1181
3.37159
3.66827
3.95766
4.2136
4.42338
4.57363
4.63458
4.51666
3.84567
1.97696
1.03883
0.918045
0.908006
0.917953
1.03801
1.96768
3.83145
4.51002
4.63422
4.56602
4.37941
4.20548
2.99135
3.00002
3.01644
3.03889
3.06493
3.09185
3.11702
3.1384
3.15464
3.16494
3.16828
3.16158
3.13684
3.07958
2.98365
2.90101
2.94425
3.15139
3.45223
3.76884
4.05971
4.3082
4.50277
4.62005
4.58978
4.08675
1.97696
0.942308
0.918479
0.959111
0.97668
0.959097
0.918426
0.941375
1.95615
4.07277
4.5931
4.62229
4.46857
4.3012
2.98956
2.99218
2.99766
3.00613
3.01727
3.03013
3.04339
3.05561
3.06557
3.07222
3.07395
3.06681
3.04153
2.98378
2.89549
2.84559
2.94264
3.19641
3.5216
3.84408
4.13199
4.37304
4.5525
4.63169
4.46059
3.15383
1.03883
0.918479
0.994548
1.05784
1.08097
1.05784
0.994583
0.918553
1.03469
3.1288
4.46849
4.64381
4.52747
4.36786
2.99344
2.9937
2.99454
2.9964
2.99952
3.00384
3.00893
3.01416
3.01885
3.02219
3.02249
3.01527
2.99044
2.93387
2.85295
2.82556
2.95441
3.23206
3.56678
3.88975
4.1748
4.41049
4.57827
4.62389
4.29254
2.22902
0.918045
0.959111
1.05784
1.12941
1.15503
1.12941
1.0579
0.959365
0.917616
2.20378
4.30499
4.64394
4.56001
4.40689
2.99693
2.99665
2.99627
2.99604
2.99622
2.99693
2.99815
2.99974
3.00148
3.00288
3.00239
2.99536
2.9713
2.9161
2.83898
2.8205
2.96064
3.2458
3.58268
3.90516
4.18901
4.4227
4.58602
4.6177
4.21039
1.9201
0.908006
0.97668
1.08097
1.15503
1.18143
1.15502
1.08104
0.976972
0.908138
1.89801
4.22489
4.64087
4.57026
4.4197
2.99886
2.99862
2.99821
2.99774
2.99733
2.99708
2.99708
2.99738
2.998
2.99865
2.99796
2.99145
2.96871
2.91531
2.83874
2.81701
2.9516
3.2328
3.56811
3.89046
4.17506
4.41059
4.57832
4.6239
4.29238
2.22827
0.917953
0.959097
1.05784
1.12941
1.15502
1.12941
1.0579
0.959351
0.917525
2.20302
4.30481
4.64392
4.56002
4.40691
2.99967
2.99955
2.99933
2.99904
2.99873
2.99846
2.9983
2.99835
2.9987
2.99921
2.9987
2.99311
2.97259
2.92229
2.84498
2.81082
2.9255
3.19265
3.52316
3.84568
4.1327
4.37332
4.55259
4.63162
4.46007
3.15109
1.03801
0.918426
0.994583
1.0579
1.08104
1.0579
0.994618
0.9185
1.03388
3.12598
4.46792
4.64372
4.52752
4.36795
2.99994
2.9999
2.99981
2.99968
2.99953
2.9994
2.99932
2.9994
2.99975
3.0003
3.00015
2.99584
2.97852
2.93327
2.85636
2.8043
2.88595
3.12752
3.44842
3.77064
4.06114
4.30878
4.5029
4.61976
4.58864
4.08229
1.96768
0.941375
0.918553
0.959365
0.976972
0.959351
0.9185
0.940449
1.94687
4.0681
4.59187
4.622
4.46875
4.30155
3.00001
2.99999
2.99996
2.99992
2.99987
2.99982
2.99982
2.99994
3.00029
3.0009
3.00115
2.99832
2.98496
2.94686
2.87378
2.80325
2.84059
3.04188
3.34483
3.66466
3.95901
4.21442
4.42338
4.57292
4.63273
4.51202
3.83145
1.95615
1.03469
0.917616
0.908138
0.917525
1.03388
1.94687
3.81686
4.50508
4.63218
4.5654
4.37985
4.20643
3.00001
3.00001
3
2.99999
2.99998
2.99997
2.99999
3.00011
3.00045
3.00107
3.00165
3.00029
2.9912
2.96185
2.89745
2.81387
2.80016
2.94292
3.21339
3.52541
3.82308
4.08659
4.30922
4.48429
4.5994
4.62883
4.51002
4.07277
3.1288
2.20378
1.89801
2.20302
3.12598
4.0681
4.50508
4.62469
4.59571
4.46762
4.25743
4.08081
3.00001
3.00001
3.00001
3
3
3
3.00003
3.00013
3.00041
3.001
3.00181
3.00171
2.99665
2.9766
2.92526
2.83901
2.77612
2.84091
3.05514
3.34673
3.64487
3.91696
4.15304
4.34897
4.49996
4.59861
4.63422
4.5931
4.46849
4.30499
4.22489
4.30481
4.46792
4.59187
4.63218
4.59571
4.4933
4.32296
4.09363
3.91698
3
3
3
3
3
3
3.00002
3.00009
3.00032
3.00085
3.00178
3.00262
3.00087
2.98927
2.95276
2.87473
2.77509
2.74843
2.87481
3.12308
3.41354
3.69302
3.94204
4.15573
4.33219
4.46949
4.56602
4.62229
4.64381
4.64394
4.64087
4.64392
4.64372
4.622
4.5654
4.46762
4.32296
4.11911
3.87019
3.69236
3
3
3
3
3
3
3.00001
3.00006
3.00023
3.0007
3.00167
3.0031
3.00367
2.99839
2.97465
2.91009
2.79174
2.67832
2.69639
2.88251
3.15698
3.43864
3.69341
3.91478
4.10283
4.25773
4.37941
4.46857
4.52747
4.56001
4.57026
4.56002
4.52752
4.46875
4.37985
4.25743
4.09363
3.87019
3.59974
3.40933
3
3
3
3
3
3
3
3.00004
3.00018
3.00061
3.00159
3.0033
3.00503
3.0031
2.98667
2.93202
2.80843
2.64073
2.57813
2.71891
2.98322
3.26475
3.51831
3.7373
3.92394
4.07984
4.20548
4.3012
4.36786
4.40689
4.4197
4.40691
4.36795
4.30155
4.20643
4.08081
3.91698
3.69236
3.40933
3.20336
