# vtk DataFile Version 3.0
Brusselator Concentration Output
ASCII
DATASET STRUCTURED_POINTS
DIMENSIONS 40 40 1
ORIGIN 0.0 0.0 0.0
SPACING 0.005 0.005 1.0
POINT_DATA 1600
SCALARS C1 double 1
LOOKUP_TABLE default
0.869885
0.710856
0.544716
0.44436
0.397619
0.378071
0.370757
0.368799
0.368959
0.369596
0.369893
0.369602
0.368978
0.368834
0.37074
0.377544
0.394533
0.431808
0.508386
0.656903
0.922372
1.34618
1.93829
2.32736
1.39457
0.969233
0.898855
0.914253
0.946316
0.973653
0.990268
0.997806
1.00021
1.00056
1.00037
1.00017
1.00006
1.00002
1
1
0.710856
0.611
0.501754
0.431692
0.398121
0.384776
0.380937
0.381207
0.38285
0.384367
0.38496
0.384374
0.382868
0.381232
0.380884
0.384187
0.39524
0.421519
0.476832
0.585239
0.782213
1.10422
1.55992
2.02271
1.70014
1.11194
0.940413
0.924687
0.946566
0.971141
0.987997
0.99652
0.999681
1.0004
1.00034
1.00018
1.00007
1.00002
1.00001
1
0.544716
0.501754
0.450885
0.415573
0.399123
0.394825
0.396618
0.400835
0.405278
0.408525
0.409709
0.408532
0.405294
0.400847
0.396523
0.39419
0.396627
0.408438
0.437858
0.499708
0.618663
0.828117
1.15521
1.58093
1.86681
1.404
1.03888
0.949232
0.948558
0.967147
0.984035
0.994173
0.998667
1.00007
1.00028
1.00018
1.00008
1.00003
1.00001
1
0.44436
0.431692
0.415573
0.404156
0.401329
0.405325
0.413039
0.421922
0.429979
0.435588
0.437602
0.435594
0.429992
0.421921
0.412912
0.404691
0.399283
0.399537
0.410276
0.440473
0.506915
0.638335
0.873423
1.23846
1.68075
1.70377
1.20708
0.99425
0.954861
0.963315
0.979315
0.991144
0.997269
0.999591
1.00016
1.00017
1.00008
1.00003
1
0.999994
0.397619
0.398121
0.399123
0.401329
0.407567
0.418121
0.431402
0.44535
0.457764
0.466424
0.469547
0.46643
0.457774
0.445337
0.431249
0.417493
0.405861
0.398347
0.398006
0.410595
0.447671
0.53173
0.700732
0.999013
1.4324
1.78896
1.4215
1.0648
0.968158
0.961268
0.974801
0.98788
0.995633
0.998973
0.999987
1.00013
1.00007
1.00001
0.999984
0.999974
0.378071
0.384776
0.394825
0.405325
0.418121
0.434451
0.453585
0.473624
0.491806
0.504774
0.509513
0.50478
0.491814
0.4736
0.453404
0.433806
0.416611
0.403325
0.395967
0.398382
0.418705
0.47401
0.596967
0.836182
1.22626
1.69078
1.61424
1.15859
0.989848
0.962069
0.971253
0.984823
0.993965
0.998299
0.999779
1.00008
1.00004
0.999976
0.999939
0.999925
0.370757
0.380937
0.396618
0.413039
0.431402
0.453585
0.47955
0.507488
0.533785
0.553178
0.560407
0.553185
0.533792
0.507452
0.479333
0.452897
0.42998
0.411634
0.399083
0.394881
0.404894
0.442226
0.534058
0.727112
1.07061
1.5457
1.72405
1.26313
1.01889
0.965972
0.969179
0.982443
0.992598
0.997783
0.999675
1.00009
1.00005
0.999939
0.999868
0.999837
0.368799
0.381207
0.400835
0.421922
0.44535
0.473624
0.507488
0.545392
0.582721
0.611365
0.622298
0.611375
0.582728
0.545343
0.50723
0.472874
0.443951
0.420888
0.404135
0.395264
0.3986
0.424533
0.495905
0.65579
0.959708
1.41799
1.75097
1.36074
1.05176
0.972592
0.969028
0.9814
0.992157
0.997942
1.00008
1.00048
1.0003
1.00004
0.999859
0.999766
0.368959
0.38285
0.405278
0.429979
0.457764
0.491806
0.533785
0.582721
0.633126
0.673358
0.689075
0.67337
0.633133
0.582659
0.533486
0.49099
0.456352
0.429171
0.409112
0.396964
0.396016
0.414904
0.473509
0.611584
0.886692
1.32544
1.73576
1.43797
1.08386
0.981428
0.971498
0.982754
0.993751
0.999806
1.00191
1.00201
1.00142
1.00076
1.00026
1
0.369596
0.384367
0.408525
0.435588
0.466424
0.504774
0.553178
0.611365
0.673358
0.724331
0.744595
0.724345
0.673366
0.611293
0.552845
0.503905
0.464991
0.434904
0.412665
0.398522
0.395144
0.410188
0.46185
0.587736
0.84573
1.27071
1.71468
1.48998
1.1112
0.992069
0.977311
0.987602
0.998632
1.00471
1.00652
1.00602
1.00465
1.0032
1.00206
1.00143
0.369893
0.38496
0.409709
0.437602
0.469547
0.509513
0.560407
0.622298
0.689075
0.744595
0.766814
0.74461
0.689083
0.622221
0.560062
0.508625
0.468103
0.436958
0.413952
0.399137
0.394981
0.408832
0.458356
0.580403
0.832569
1.25168
1.70424
1.51496
1.12908
1.00205
0.984618
0.994374
1.00567
1.01218
1.01419
1.01349
1.01152
1.0092
1.00721
1.00606
0.369602
0.384374
0.408532
0.435594
0.46643
0.50478
0.553185
0.611375
0.67337
0.724345
0.74461
0.724359
0.673378
0.611302
0.552852
0.503912
0.464997
0.434913
0.412681
0.398557
0.395225
0.410361
0.462142
0.587832
0.843855
1.26245
1.70053
1.50157
1.12494
1.00005
0.98216
0.992005
1.00471
1.01375
1.01879
1.0209
1.021
1.01982
1.01822
1.01712
0.368978
0.382868
0.405294
0.429992
0.457774
0.491814
0.533792
0.582728
0.633133
0.673366
0.689083
0.673378
0.63314
0.582666
0.533493
0.490999
0.456364
0.429193
0.409156
0.397054
0.39619
0.415156
0.473462
0.609165
0.875099
1.29143
1.67926
1.42049
1.07257
0.961291
0.945381
0.955999
0.971762
0.986863
1.00046
1.01249
1.02247
1.02978
1.03427
1.03629
0.368834
0.381232
0.400847
0.421921
0.445337
0.4736
0.507452
0.545343
0.582659
0.611293
0.622221
0.611302
0.582666
0.545295
0.507195
0.472853
0.443947
0.420912
0.404207
0.395403
0.398755
0.424233
0.492984
0.642902
0.919486
1.32366
1.60011
1.24412
0.953107
0.867799
0.856821
0.868216
0.886656
0.908512
0.933589
0.96164
0.991084
1.01887
1.04094
1.05326
0.37074
0.380884
0.396523
0.412912
0.431249
0.453404
0.479333
0.50723
0.533486
0.552845
0.560062
0.552852
0.533493
0.507195
0.47912
0.452725
0.429854
0.411564
0.39907
0.394832
0.404272
0.438903
0.521142
0.687186
0.972974
1.35123
1.41285
0.997181
0.795034
0.742846
0.738313
0.748921
0.766141
0.789217
0.819716
0.858986
0.906489
0.957996
1.00413
1.03206
0.377544
0.384187
0.39419
0.404691
0.417493
0.433806
0.452897
0.472874
0.49099
0.503905
0.508625
0.503912
0.490999
0.472853
0.452725
0.43319
0.416047
0.402781
0.395292
0.396959
0.414434
0.460718
0.559409
0.745834
1.04642
1.36127
1.10286
0.768141
0.659858
0.636159
0.636547
0.644348
0.656143
0.673202
0.698482
0.735114
0.784583
0.843244
0.898807
0.933206
0.394533
0.39524
0.396627
0.399283
0.405861
0.416611
0.42998
0.443951
0.456352
0.464991
0.468103
0.464997
0.456364
0.443947
0.429854
0.416047
0.404264
0.396326
0.394758
0.403844
0.431588
0.493223
0.616167
0.839854
1.16936
1.22075
0.805872
0.627048
0.583859
0.578262
0.581365
0.585614
0.590354
0.597736
0.611106
0.634077
0.668716
0.711723
0.751825
0.775495
0.431808
0.421519
0.408438
0.399537
0.398347
0.403325
0.411634
0.420888
0.429171
0.434904
0.436958
0.434913
0.429193
0.420912
0.411564
0.402781
0.396326
0.394343
0.399956
0.418571
0.460709
0.547419
0.717335
1.01081
1.28726
0.906407
0.642755
0.576695
0.570408
0.576908
0.582261
0.582746
0.579291
0.575049
0.573799
0.578825
0.591231
0.6075
0.620525
0.626553
0.508386
0.476832
0.437858
0.410276
0.398006
0.395967
0.399083
0.404135
0.409112
0.412665
0.413952
0.412681
0.409156
0.404207
0.39907
0.395292
0.394758
0.399956
0.414874
0.447404
0.514562
0.651901
0.916217
1.29374
1.05557
0.700757
0.606467
0.609078
0.637892
0.666363
0.679402
0.671432
0.647425
0.618014
0.59211
0.573334
0.560559
0.549568
0.537982
0.529717
0.656903
0.585239
0.499708
0.440473
0.410595
0.398382
0.394881
0.395264
0.396964
0.398522
0.399137
0.398557
0.397054
0.395403
0.394832
0.396959
0.403844
0.418571
0.447404
0.504873
0.623923
0.868177
1.27646
1.22231
0.792678
0.671114
0.716066
0.851365
1.03917
1.20567
1.27439
1.21326
1.05422
0.870219
0.726504
0.635471
0.578539
0.536487
0.50364
0.485058
0.922372
0.782213
0.618663
0.506915
0.447671
0.418705
0.404894
0.3986
0.396016
0.395144
0.394981
0.395225
0.39619
0.398755
0.404272
0.414434
0.431588
0.460709
0.514562
0.623923
0.853516
1.26365
1.35481
0.897237
0.768831
0.954327
1.49647
2.40952
3.17552
3.40168
3.42768
3.40498
3.19198
2.45697
1.54211
0.962239
0.689495
0.569858
0.507085
0.477634
1.34618
1.10422
0.828117
0.638335
0.53173
0.47401
0.442226
0.424533
0.414904
0.410188
0.408832
0.410361
0.415156
0.424233
0.438903
0.460718
0.493223
0.547419
0.651901
0.868177
1.26365
1.40482
0.971225
0.873873
1.35209
2.79525
3.43166
3.07251
2.79377
2.64167
2.59323
2.64187
2.79318
3.06688
3.41715
2.82734
1.30358
0.715413
0.549272
0.497495
1.93829
1.55992
1.15521
0.873423
0.700732
0.596967
0.534058
0.495905
0.473509
0.46185
0.458356
0.462142
0.473462
0.492984
0.521142
0.559409
0.616167
0.717335
0.916217
1.27646
1.35481
0.971225
0.922596
1.71781
3.45987
3.04337
2.59733
2.28389
2.07176
1.94959
1.90976
1.94954
2.07121
2.28136
2.58959
3.0213
3.41175
1.48474
0.691708
0.548184
2.32736
2.02271
1.58093
1.23846
0.999013
0.836182
0.727112
0.65579
0.611584
0.587736
0.580403
0.587832
0.609165
0.642902
0.687186
0.745834
0.839854
1.01081
1.29374
1.22231
0.897237
0.873873
1.71781
3.48995
2.8518
2.35484
1.97997
1.71398
1.53716
1.43623
1.40344
1.4361
1.53655
1.71193
1.97458
2.34486
2.83954
3.45284
1.31131
0.676323
1.39457
1.70014
1.86681
1.68075
1.4324
1.22626
1.07061
0.959708
0.886692
0.84573
0.832569
0.843855
0.875099
0.919486
0.972974
1.04642
1.16936
1.28726
1.05557
0.792678
0.768831
1.35209
3.45987
2.8518
2.27588
1.83828
1.52041
1.2972
1.15085
1.06848
1.04193
1.06832
1.15025
1.29543
1.51638
1.83238
2.27789
2.89503
3.18449
1.11565
0.969233
1.11194
1.404
1.70377
1.78896
1.69078
1.5457
1.41799
1.32544
1.27071
1.25168
1.26245
1.29143
1.32366
1.35123
1.36127
1.22075
0.906407
0.700757
0.671114
0.954327
2.79525
3.04337
2.35484
1.83828
1.45929
1.18768
1.00132
0.882427
0.817065
0.796274
0.816917
0.881892
0.999822
1.18452
1.45565
1.84411
2.40276
3.27455
2.59217
0.898855
0.940413
1.03888
1.20708
1.4215
1.61424
1.72405
1.75097
1.73576
1.71468
1.70424
1.70053
1.67926
1.60011
1.41285
1.10286
0.805872
0.642755
0.606467
0.716066
1.49647
3.43166
2.59733
1.97997
1.52041
1.18768
0.955231
0.801194
0.706348
0.655651
0.639767
0.655524
0.705899
0.799962
0.952754
1.18545
1.52833
2.0322
2.80924
3.88981
0.914253
0.924687
0.949232
0.99425
1.0648
1.15859
1.26313
1.36074
1.43797
1.48998
1.51496
1.50157
1.42049
1.24412
0.997181
0.768141
0.627048
0.576695
0.609078
0.851365
2.40952
3.07251
2.28389
1.71398
1.2972
1.00132
0.801194
0.673544
0.597693
0.55822
0.546026
0.558115
0.597323
0.672539
0.799247
1.00007
1.30639
1.76762
2.48366
3.56586
0.946316
0.946566
0.948558
0.954861
0.968158
0.989848
1.01889
1.05176
1.08386
1.1112
1.12908
1.12494
1.07257
0.953107
0.795034
0.659858
0.583859
0.570408
0.637892
1.03917
3.17552
2.79377
2.07176
1.53716
1.15085
0.882427
0.706348
0.597693
0.534997
0.503068
0.493317
0.502979
0.534684
0.596852
0.704771
0.881807
1.16081
1.59119
2.26127
3.23069
0.973653
0.971141
0.967147
0.963315
0.961268
0.962069
0.965972
0.972592
0.981428
0.992069
1.00205
1.00005
0.961291
0.867799
0.742846
0.636159
0.578262
0.576908
0.666363
1.20567
3.40168
2.64167
1.94959
1.43623
1.06848
0.817065
0.655651
0.55822
0.503068
0.47538
0.466988
0.4753
0.502789
0.557475
0.65429
0.8168
1.07884
1.49026
2.13218
3.02955
0.990268
0.987997
0.984035
0.979315
0.974801
0.971253
0.969179
0.969028
0.971498
0.977311
0.984618
0.98216
0.945381
0.856821
0.738313
0.636547
0.581365
0.582261
0.679402
1.27439
3.42768
2.59323
1.90976
1.40344
1.04193
0.796274
0.639767
0.546026
0.493317
0.466988
0.45903
0.466911
0.493049
0.545312
0.638476
0.79612
1.0524
1.4574
2.08983
2.96349
0.997806
0.99652
0.994173
0.991144
0.98788
0.984823
0.982443
0.9814
0.982754
0.987602
0.994374
0.992005
0.955999
0.868216
0.748921
0.644348
0.585614
0.582746
0.671432
1.21326
3.40498
2.64187
1.94954
1.4361
1.06832
0.816917
0.655524
0.558115
0.502979
0.4753
0.466911
0.47522
0.502699
0.55737
0.654161
0.816641
1.07864
1.49004
2.13191
3.02913
1.00021
0.999681
0.998667
0.997269
0.995633
0.993965
0.992598
0.992157
0.993751
0.998632
1.00567
1.00471
0.971762
0.886656
0.766141
0.656143
0.590354
0.579291
0.647425
1.05422
3.19198
2.79318
2.07121
1.53655
1.15025
0.881892
0.705899
0.597323
0.534684
0.502789
0.493049
0.502699
0.534371
0.59648
0.704312
0.881236
1.16012
1.59038
2.26031
3.22927
1.00056
1.0004
1.00007
0.999591
0.998973
0.998299
0.997783
0.997942
0.999806
1.00471
1.01218
1.01375
0.986863
0.908512
0.789217
0.673202
0.597736
0.575049
0.618014
0.870219
2.45697
3.06688
2.28136
1.71193
1.29543
0.999822
0.799962
0.672539
0.596852
0.557475
0.545312
0.55737
0.59648
0.671524
0.797977
0.998467
1.30441
1.76526
2.48085
3.56205
1.00037
1.00034
1.00028
1.00016
0.999987
0.999779
0.999675
1.00008
1.00191
1.00652
1.01419
1.01879
1.00046
0.933589
0.819716
0.698482
0.611106
0.573799
0.59211
0.726504
1.54211
3.41715
2.58959
1.97458
1.51638
1.18452
0.952754
0.799247
0.704771
0.65429
0.638476
0.654161
0.704312
0.797977
0.950169
1.18205
1.52393
2.02667
2.80246
3.88572
1.00017
1.00018
1.00018
1.00017
1.00013
1.00008
1.00009
1.00048
1.00201
1.00602
1.01349
1.0209
1.01249
0.96164
0.858986
0.735114
0.634077
0.578825
0.573334
0.635471
0.962239
2.82734
3.0213
2.34486
1.83238
1.45565
1.18545
1.00007
0.881807
0.8168
0.79612
0.816641
0.881236
0.998467
1.18205
1.45158
1.83781
2.39396
3.26129
2.59094
1.00006
1.00007
1.00008
1.00008
1.00007
1.00004
1.00005
1.0003
1.00142
1.00465
1.01152
1.021
1.02247
0.991084
0.906489
0.784583
0.668716
0.591231
0.560559
0.578539
0.689495
1.30358
3.41175
2.83954
2.27789
1.84411
1.52833
1.30639
1.16081
1.07884
1.0524
1.07864
1.16012
1.30441
1.52393
1.83781
2.28067
2.88923
3.09518
1.08071
1.00002
1.00002
1.00003
1.00003
1.00001
0.999976
0.999939
1.00004
1.00076
1.0032
1.0092
1.01982
1.02978
1.01887
0.957996
0.843244
0.711723
0.6075
0.549568
0.536487
0.569858
0.715413
1.48474
3.45284
2.89503
2.40276
2.0322
1.76762
1.59119
1.49026
1.4574
1.49004
1.59038
1.76526
2.02667
2.39396
2.88923
3.34213
1.16093
0.633127
1
1.00001
1.00001
1
0.999984
0.999939
0.999868
0.999859
1.00026
1.00206
1.00721
1.01822
1.03427
1.04094
1.00413
0.898807
0.751825
0.620525
0.537982
0.50364
0.507085
0.549272
0.691708
1.31131
3.18449
3.27455
2.80924
2.48366
2.26127
2.13218
2.08983
2.13191
2.26031
2.48085
2.80246
3.26129
3.09518
1.16093
0.607273
0.501953
1
1
1
0.999994
0.999974
0.999925
0.999837
0.999766
1
1.00143
1.00606
1.01712
1.03629
1.05326
1.03206
0.933206
0.775495
0.626553
0.529717
0.485058
0.477634
0.497495
0.548184
0.676323
1.11565
2.59217
3.88981
3.56586
3.23069
3.02955
2.96349
3.02913
3.22927
3.56205
3.88572
2.59094
1.08071
0.633127
0.501953
0.457521
SCALARS C2 double 1
LOOKUP_TABLE default
1.98761
2.26215
2.62115
2.89949
3.0997
3.25603
3.38243
3.48159
3.55314
3.59638
3.61084
3.59638
3.55312
3.48142
3.38166
3.25378
3.09655
2.90627
2.67536
2.39328
2.05672
1.69348
1.39842
1.74074
3.04403
3.31825
3.25427
3.15417
3.0755
3.02828
3.00641
2.99921
2.99816
2.99877
2.99941
2.99978
2.99993
2.99999
3
3
2.26215
2.5059
2.83787
3.10737
3.30518
3.46094
3.58759
3.68733
3.75948
3.80315
3.81778
3.80315
3.75946
3.68715
3.58679
3.45869
3.30233
3.11537
2.89257
2.62561
2.30897
1.95879
1.64534
1.6217
2.54381
3.18009
3.22971
3.15754
3.08447
3.0356
3.01054
3.00095
2.99869
2.99885
2.99939
2.99975
2.99992
2.99998
3
3
2.62115
2.83787
3.14265
3.3964
3.58658
3.73866
3.86337
3.96195
4.03332
4.07652
4.09098
4.07652
4.0333
3.96179
3.86266
3.73658
3.58382
3.40358
3.19311
2.9468
2.65725
2.32422
1.97823
1.7251
1.94406
2.82191
3.15682
3.15759
3.09905
3.04845
3.01809
3.00427
2.99976
2.99906
2.99937
2.99971
2.99989
2.99997
3
3
2.89949
3.10737
3.3964
3.63617
3.8187
3.96678
4.08877
4.18496
4.25423
4.2959
4.3098
4.2959
4.25422
4.18486
4.08822
3.965
3.81588
3.64108
3.43963
3.20824
2.94024
2.62733
2.2725
1.9243
1.75985
2.30167
2.99573
3.14208
3.11368
3.06394
3.02784
3.00883
3.00137
2.99944
2.99938
2.99967
2.99987
2.99997
3
3.00001
3.0997
3.30518
3.58658
3.8187
3.9971
4.14278
4.26242
4.35574
4.42195
4.4612
4.47417
4.4612
4.42194
4.35567
4.26201
4.14127
3.99432
3.82202
3.6246
3.40058
3.14531
2.84986
2.50555
2.12807
1.81451
1.92565
2.73025
3.09708
3.12242
3.079
3.03843
3.0142
3.00344
3.00002
2.99948
2.99967
2.99988
2.99998
3.00002
3.00003
3.25603
3.46094
3.73866
3.96678
4.14278
4.28625
4.40256
4.49117
4.55204
4.58689
4.59814
4.58689
4.55203
4.49113
4.40226
4.28498
4.14017
3.96925
3.77335
3.55235
3.30347
3.01944
2.68869
2.30932
1.93549
1.79274
2.41843
3.0145
3.12093
3.09122
3.04856
3.01982
3.0058
3.00078
2.99967
2.99973
2.99993
3.00005
3.0001
3.0001
3.38243
3.58759
3.86337
4.08877
4.26242
4.40256
4.51333
4.59394
4.64549
4.67249
4.6806
4.67249
4.64549
4.59392
4.51313
4.40152
4.26003
4.09076
3.89575
3.67598
3.43013
3.15278
2.8328
2.46026
2.06263
1.79248
2.15838
2.90024
3.10798
3.09921
3.05712
3.02498
3.00809
3.00154
2.99987
2.99981
3.00004
3.00019
3.00026
3.00028
3.48159
3.68733
3.96195
4.18496
4.35574
4.49117
4.59394
4.66269
4.69997
4.71448
4.7175
4.71447
4.69996
4.66269
4.59383
4.49036
4.35358
4.18663
3.99259
3.77346
3.52908
3.2555
2.94287
2.5782
2.17275
1.83776
1.9951
2.77484
3.08581
3.10238
3.06293
3.02859
3.00944
3.00167
2.99963
2.99961
3
3.00032
3.0005
3.00057
3.55314
3.75948
4.03332
4.25423
4.42195
4.55204
4.64549
4.69997
4.71926
4.71738
4.71357
4.71737
4.71925
4.69999
4.64548
4.55142
4.42
4.25567
4.0627
3.84402
3.60034
3.32882
3.02075
2.66222
2.25533
1.8868
1.9104
2.66269
3.05876
3.10003
3.0641
3.02856
3.00795
2.99955
2.99761
2.99809
2.99908
2.99994
3.00052
3.00081
3.59638
3.80315
4.07652
4.2959
4.4612
4.58689
4.67249
4.71448
4.71738
4.7
4.68958
4.69998
4.71736
4.71451
4.67254
4.58642
4.45941
4.29721
4.10511
3.88673
3.64338
3.37285
3.06716
2.71221
2.30552
1.92056
1.87066
2.57971
3.03031
3.09025
3.05734
3.02134
3.00016
2.99194
2.99092
2.99277
2.99527
2.99753
2.99917
3.00003
3.61084
3.81778
4.09098
4.3098
4.47417
4.59814
4.6806
4.7175
4.71357
4.68958
4.6763
4.68956
4.71355
4.71754
4.68068
4.59772
4.47243
4.31107
4.1193
3.90103
3.65778
3.38751
3.0824
2.72824
2.32136
1.93122
1.85376
2.53211
3.0022
3.07086
3.03968
3.00378
2.98268
2.97513
2.97555
2.97956
2.98468
2.98958
2.99338
2.99545
3.59638
3.80315
4.07652
4.2959
4.4612
4.58689
4.67249
4.71447
4.71737
4.69998
4.68956
4.69996
4.71735
4.7145
4.67254
4.58642
4.45941
4.29722
4.10512
3.88675
3.64338
3.37266
3.06631
2.71024
2.30332
1.91968
1.85734
2.52918
2.98233
3.04825
3.01781
2.98239
2.96082
2.95227
2.95203
2.95642
2.96323
2.97074
2.97718
2.98092
3.55312
3.75946
4.0333
4.25422
4.42194
4.55203
4.64549
4.69996
4.71925
4.71736
4.71355
4.71735
4.71924
4.69998
4.64547
4.55142
4.42
4.25567
4.06271
3.84402
3.6002
3.32801
3.01843
2.659
2.25663
1.8986
1.90742
2.60322
3.00163
3.05407
3.02455
2.98983
2.96504
2.94953
2.94032
2.9359
2.93581
2.93917
2.94389
2.94724
3.48142
3.68715
3.96179
4.18486
4.35567
4.49113
4.59392
4.66269
4.69999
4.71451
4.71754
4.7145
4.69998
4.66269
4.59381
4.49031
4.35352
4.18655
3.99249
3.77324
3.52825
3.25305
2.93893
2.57958
2.19605
1.89716
2.07138
2.80569
3.1097
3.14118
3.11383
3.08036
3.04931
3.01931
2.98896
2.95928
2.93288
2.91229
2.89879
2.8923
3.38166
3.58679
3.86266
4.08822
4.26201
4.40226
4.51313
4.59383
4.64548
4.67254
4.68068
4.67254
4.64547
4.59381
4.51292
4.40121
4.25963
4.09027
3.89509
3.67472
3.4272
3.14773
2.83231
2.48646
2.14672
1.96852
2.45838
3.14173
3.32283
3.33439
3.31213
3.28204
3.24543
3.1995
3.14306
3.07763
3.00726
2.93859
2.88163
2.8486
3.25378
3.45869
3.73658
3.965
4.14127
4.28498
4.40152
4.49036
4.55142
4.58642
4.59772
4.58642
4.55142
4.49031
4.40121
4.28371
4.13868
3.96749
3.77097
3.54828
3.2969
3.01628
2.71291
2.40188
2.14071
2.23495
3.08293
3.51836
3.5987
3.60332
3.59039
3.56641
3.52823
3.47229
3.39676
3.30148
3.18878
3.06726
2.95767
2.89092
3.09655
3.30233
3.58382
3.81588
3.99432
4.14017
4.26003
4.35358
4.42
4.45941
4.47243
4.45941
4.42
4.35352
4.25963
4.13868
3.9915
3.81873
3.61991
3.3936
3.14138
2.87322
2.60156
2.34534
2.24516
2.91593
3.66515
3.84776
3.88701
3.89777
3.89516
3.87761
3.84133
3.78308
3.70025
3.59053
3.45345
3.29783
3.1533
3.06502
2.90627
3.11537
3.40358
3.64108
3.82202
3.96925
4.09076
4.18663
4.25567
4.29721
4.31107
4.29722
4.25567
4.18655
4.09027
3.96749
3.81873
3.64365
3.44128
3.21433
2.97529
2.73874
2.50961
2.34634
2.71848
3.70995
4.04239
4.12276
4.15641
4.17339
4.17645
4.16393
4.13289
4.07974
4.00065
3.89148
3.74974
3.58377
3.42762
3.33273
2.67536
2.89257
3.19311
3.43963
3.6246
3.77335
3.89575
3.99259
4.0627
4.10511
4.1193
4.10512
4.06271
3.99249
3.89509
3.77097
3.61991
3.44128
3.23835
3.02501
2.81824
2.61883
2.4429
2.57542
3.62806
4.16104
4.29174
4.34063
4.36191
4.36802
4.36721
4.36234
4.34831
4.31568
4.25591
4.16297
4.03366
3.87506
3.72062
3.62499
2.39328
2.62561
2.9468
3.20824
3.40058
3.55235
3.67598
3.77346
3.84402
3.88673
3.90103
3.88675
3.84402
3.77324
3.67472
3.54828
3.3936
3.21433
3.02501
2.84427
2.6727
2.50509
2.50038
3.45182
4.19758
4.38624
4.42518
4.38102
4.26377
4.12877
4.06621
4.1204
4.24651
4.35609
4.39553
4.36319
4.27296
4.13934
3.99484
3.89967
2.05672
2.30897
2.65725
2.94024
3.14531
3.30347
3.43013
3.52908
3.60034
3.64338
3.65778
3.64338
3.6002
3.52825
3.4272
3.2969
3.14138
2.97529
2.81824
2.6727
2.52617
2.47099
3.27655
4.17051
4.40823
4.35848
3.90925
2.86143
1.79414
1.33436
1.22966
1.32851
1.7685
2.79641
3.845
4.32416
4.41672
4.35266
4.233
4.14155
1.69348
1.95879
2.32422
2.62733
2.84986
3.01944
3.15278
3.2555
3.32882
3.37285
3.38751
3.37266
3.32801
3.25305
3.14773
3.01628
2.87322
2.73874
2.61883
2.50509
2.47099
3.20447
4.13039
4.38181
4.08509
2.44639
1.08377
0.965415
1.00696
1.04602
1.06028
1.04589
1.00681
0.965011
1.07178
2.37455
4.10225
4.45969
4.42081
4.344
1.39842
1.64534
1.97823
2.2725
2.50555
2.68869
2.8328
2.94287
3.02075
3.06716
3.0824
3.06631
3.01843
2.93893
2.83231
2.71291
2.60156
2.50961
2.4429
2.50038
3.27655
4.13039
4.36134
3.75916
1.3749
0.969075
1.06193
1.17025
1.25975
1.31784
1.33791
1.31784
1.25992
1.17104
1.06416
0.974472
1.42581
3.98607
4.51447
4.49726
1.74074
1.6217
1.7251
1.9243
2.12807
2.30932
2.46026
2.5782
2.66222
2.71221
2.72824
2.71024
2.659
2.57958
2.48646
2.40188
2.34534
2.34634
2.57542
3.45182
4.17051
4.38181
3.75916
1.17965
0.998109
1.14365
1.30272
1.44527
1.55665
1.62723
1.65137
1.6273
1.55699
1.44634
1.30526
1.14781
1.00454
1.352
4.17939
4.56871
3.04403
2.54381
1.94406
1.75985
1.81451
1.93549
2.06263
2.17275
2.25533
2.30552
2.32136
2.30332
2.25663
2.19605
2.14672
2.14071
2.24516
2.71848
3.62806
4.19758
4.40823
4.08509
1.3749
0.998109
1.17345
1.37523
1.56792
1.73389
1.8603
1.93895
1.9656
1.93906
1.86073
1.73515
1.57066
1.37896
1.1748
0.993423
1.97049
4.3708
3.31825
3.18009
2.82191
2.30167
1.92565
1.79274
1.79248
1.83776
1.8868
1.92056
1.93122
1.91968
1.8986
1.89716
1.96852
2.23495
2.91593
3.70995
4.16104
4.38624
4.35848
2.44639
0.969075
1.14365
1.37523
1.6105
1.82687
2.00753
2.14154
2.22338
2.25085
2.22349
2.14199
2.00887
1.82974
1.61404
1.37428
1.12971
0.957699
2.93114
3.25427
3.22971
3.15682
2.99573
2.73025
2.41843
2.15838
1.9951
1.9104
1.87066
1.85376
1.85734
1.90742
2.07138
2.45838
3.08293
3.66515
4.04239
4.29174
4.42518
3.90925
1.08377
1.06193
1.30272
1.56792
1.82687
2.05739
2.24415
2.37959
2.46119
2.48842
2.46129
2.38002
2.24546
2.06025
1.83029
1.56568
1.28264
1.00224
1.02321
3.15417
3.15754
3.15759
3.14208
3.09708
3.0145
2.90024
2.77484
2.66269
2.57971
2.53211
2.52918
2.60322
2.80569
3.14173
3.51836
3.84776
4.12276
4.34063
4.38102
2.86143
0.965415
1.17025
1.44527
1.73389
2.00753
2.24415
2.43145
2.56538
2.64555
2.67225
2.64564
2.56576
2.43268
2.24693
2.0108
1.73076
1.4209
1.09796
0.834444
3.0755
3.08447
3.09905
3.11368
3.12242
3.12093
3.10798
3.08581
3.05876
3.03031
3.0022
2.98233
3.00163
3.1097
3.32283
3.5987
3.88701
4.15641
4.36191
4.26377
1.79414
1.00696
1.25975
1.55665
1.8603
2.14154
2.37959
2.56538
2.69741
2.77633
2.80261
2.7764
2.69775
2.56654
2.38228
2.1447
1.85661
1.52931
1.18068
0.874048
3.02828
3.0356
3.04845
3.06394
3.079
3.09122
3.09921
3.10238
3.10003
3.09025
3.07086
3.04825
3.05407
3.14118
3.33439
3.60332
3.89777
4.17339
4.36802
4.12877
1.33436
1.04602
1.31784
1.62723
1.93895
2.22338
2.46119
2.64555
2.77633
2.85455
2.88062
2.85461
2.77664
2.64665
2.4638
2.22647
1.93495
1.59816
1.23503
0.915525
3.00641
3.01054
3.01809
3.02784
3.03843
3.04856
3.05712
3.06293
3.0641
3.05734
3.03968
3.01781
3.02455
3.11383
3.31213
3.59039
3.89516
4.17645
4.36721
4.06621
1.22966
1.06028
1.33791
1.65137
1.9656
2.25085
2.48842
2.67225
2.80261
2.88062
2.90663
2.88068
2.80291
2.67333
2.49101
2.25392
1.96151
1.62175
1.25392
0.931048
2.99921
3.00095
3.00427
3.00883
3.0142
3.01982
3.02498
3.02859
3.02856
3.02134
3.00378
2.98239
2.98983
3.08036
3.28204
3.56641
3.87761
4.16393
4.36234
4.1204
1.32851
1.04589
1.31784
1.6273
1.93906
2.22349
2.46129
2.64564
2.7764
2.85461
2.88068
2.85467
2.77671
2.64673
2.4639
2.22659
1.93508
1.59828
1.23513
0.915609
2.99816
2.99869
2.99976
3.00137
3.00344
3.0058
3.00809
3.00944
3.00795
3.00016
2.98268
2.96082
2.96504
3.04931
3.24543
3.52823
3.84133
4.13289
4.34831
4.24651
1.7685
1.00681
1.25992
1.55699
1.86073
2.14199
2.38002
2.56576
2.69775
2.77664
2.80291
2.77671
2.69808
2.56691
2.3827
2.14518
1.8571
1.52976
1.18103
0.874277
2.99877
2.99885
2.99906
2.99944
3.00002
3.00078
3.00154
3.00167
2.99955
2.99194
2.97513
2.95227
2.94953
3.01931
3.1995
3.47229
3.78308
4.07974
4.31568
4.35609
2.79641
0.965011
1.17104
1.44634
1.73515
2.00887
2.24546
2.43268
2.56654
2.64665
2.67333
2.64673
2.56691
2.43392
2.24827
2.01222
1.73218
1.42215
1.09889
0.834625
2.99941
2.99939
2.99937
2.99938
2.99948
2.99967
2.99987
2.99963
2.99761
2.99092
2.97555
2.95203
2.94032
2.98896
3.14306
3.39676
3.70025
4.00065
4.25591
4.39553
3.845
1.07178
1.06416
1.30526
1.57066
1.82974
2.06025
2.24693
2.38228
2.4638
2.49101
2.4639
2.3827
2.24827
2.06321
1.83335
1.56869
1.28532
1.00424
1.01782
2.99978
2.99975
2.99971
2.99967
2.99967
2.99973
2.99981
2.99961
2.99809
2.99277
2.97956
2.95642
2.9359
2.95928
3.07763
3.30148
3.59053
3.89148
4.16297
4.36319
4.32416
2.37455
0.974472
1.14781
1.37896
1.61404
1.83029
2.0108
2.1447
2.22647
2.25392
2.22659
2.14518
2.01222
1.83335
1.61794
1.37836
1.13385
0.962291
2.92858
2.99993
2.99992
2.99989
2.99987
2.99988
2.99993
3.00004
3
2.99908
2.99527
2.98468
2.96323
2.93581
2.93288
3.00726
3.18878
3.45345
3.74974
4.03366
4.27296
4.41672
4.10225
1.42581
1.00454
1.1748
1.37428
1.56568
1.73076
1.85661
1.93495
1.96151
1.93508
1.8571
1.73218
1.56869
1.37836
1.17642
0.999668
2.09206
4.39728
2.99999
2.99998
2.99997
2.99997
2.99998
3.00005
3.00019
3.00032
2.99994
2.99753
2.98958
2.97074
2.93917
2.91229
2.93859
3.06726
3.29783
3.58377
3.87506
4.13934
4.35266
4.45969
3.98607
1.352
0.993423
1.12971
1.28264
1.4209
1.52931
1.59816
1.62175
1.59828
1.52976
1.42215
1.28532
1.13385
0.999668
1.62993
4.31103
4.57556
3
3
3
3
3.00002
3.0001
3.00026
3.0005
3.00052
2.99917
2.99338
2.97718
2.94389
2.89879
2.88163
2.95767
3.1533
3.42762
3.72062
3.99484
4.233
4.42081
4.51447
4.17939
1.97049
0.957699
1.00224
1.09796
1.18068
1.23503
1.25392
1.23513
1.18103
1.09889
1.00424
0.962291
2.09206
4.31103
4.53743
4.4642
3
3
3
3.00001
3.00003
3.0001
3.00028
3.00057
3.00081
3.00003
2.99545
2.98092
2.94724
2.8923
2.8486
2.89092
3.06502
3.33273
3.62499
3.89967
4.14155
4.344
4.49726
4.56871
4.3708
2.93114
1.02321
0.834444
0.874048
0.915525
0.931048
0.915609
0.874277
0.834625
1.01782
2.92858
4.39728
4.57556
4.4642
4.34115
