# vtk DataFile Version 3.0
Brusselator Concentration Output
ASCII
DATASET STRUCTURED_POINTS
DIMENSIONS 40 40 1
ORIGIN 0.0 0.0 0.0
SPACING 0.005 0.005 1.0
POINT_DATA 1600
SCALARS C1 double 1
LOOKUP_TABLE default
1
1
1
1
1
1
1.00001
1.00002
1.00004
1.00006
1.00007
1.00006
1.00004
1.00002
1.00001
1
1
1
1
1
1
1
1
1
1
1
1
1
1
1
1
1
1
1
1
1
1
1
1
1
1
1
1
1
1
1.00001
1.00004
1.00009
1.00016
1.00024
1.00027
1.00024
1.00016
1.00009
1.00004
1.00001
1
1
1
1
1
1
1
1
1
1
1
1
1
1
1
1
1
1
1
1
1
1
1
1
1
1
1
1.00001
1.00002
1.00007
1.00018
1.00039
1.00069
1.00096
1.00106
1.00096
1.00069
1.00039
1.00018
1.00007
1.00002
1.00001
1
1
1
1
1
1
1
1
1
1
1
1
1
1
1
1
1
1
1
1
1
1
1
1
1.00001
1.00002
1.00008
1.00027
1.00069
1.00146
1.00243
1.00316
1.0034
1.00316
1.00243
1.00146
1.00069
1.00027
1.00008
1.00002
1.00001
1
1
1
1
1
1
1
1
1
1
1
1
1
1
1
1
1
1
1
1
1
1
1
1.00002
1.00008
1.0003
1.00092
1.00228
1.00444
1.00665
1.00773
1.00784
1.00773
1.00665
1.00444
1.00228
1.00092
1.0003
1.00008
1.00002
1
1
1
1
1
1
1
1
1
1
1
1
1
1
1
1
1
1
1
1
1
1
1.00001
1.00007
1.00027
1.00092
1.00263
1.00598
1.0102
1.01221
1.01024
1.00842
1.01024
1.01221
1.0102
1.00598
1.00263
1.00092
1.00027
1.00007
1.00001
1
1
1
1
1
1
1
1
1
1
1
1
1
1
1
1
1
1
1
1
1.00001
1.00004
1.00018
1.00069
1.00228
1.00598
1.01172
1.01473
1.00667
0.989656
0.98123
0.989656
1.00667
1.01473
1.01172
1.00598
1.00228
1.00069
1.00018
1.00004
1.00001
1
1
1
1
1
1
1
1
1
1
1
1
1
1
1
1
1
1
1
1.00002
1.00009
1.00039
1.00146
1.00444
1.0102
1.01473
1.00345
0.963779
0.915459
0.89661
0.915459
0.963779
1.00345
1.01473
1.0102
1.00444
1.00146
1.00039
1.00009
1.00002
1
1
1
1
1
1
1
1
1
1
1
1
1
1
1
1
1
1
1
1.00004
1.00016
1.00069
1.00243
1.00665
1.01221
1.00667
0.963779
0.878922
0.799647
0.773915
0.799647
0.878922
0.963779
1.00667
1.01221
1.00665
1.00243
1.00069
1.00016
1.00003
1.00001
1
1
1
1
1
1
1
1
1
1
1
1
1
1
1
1
1
1
1.00006
1.00024
1.00096
1.00316
1.00773
1.01024
0.989656
0.915459
0.799647
0.707081
0.680789
0.707081
0.799647
0.915459
0.989656
1.01024
1.00773
1.00316
1.00096
1.00024
1.00005
1.00001
1
1
1
1
1
1
1
1
1
1
1
1
1
1
1
1
1
1
1.00007
1.00027
1.00106
1.0034
1.00784
1.00842
0.98123
0.89661
0.773915
0.680789
0.655289
0.680789
0.773915
0.89661
0.98123
1.00842
1.00784
1.0034
1.00106
1.00026
1.00006
1.00001
1
1
1
1
1
1
1
1
1
1
1
1
1
1
1
1
1
1
1.00006
1.00024
1.00096
1.00316
1.00773
1.01024
0.989656
0.915459
0.799647
0.707081
0.680789
0.707081
0.799647
0.915459
0.989656
1.01024
1.00773
1.00316
1.00096
1.00024
1.00005
1.00001
1
1
1
1
1
1
1
1
1
1
1
1
1
1
1
1
1
1
1.00004
1.00016
1.00069
1.00243
1.00665
1.01221
1.00667
0.963779
0.878922
0.799647
0.773915
0.799647
0.878922
0.963779
1.00667
1.01221
1.00665
1.00243
1.00069
1.00016
1.00003
1.00001
1
1
1
1
1
1
1
1
1
1
1
1
1
1
1
1
1
1
1.00002
1.00009
1.00039
1.00146
1.00444
1.0102
1.01473
1.00345
0.963779
0.915459
0.89661
0.915459
0.963779
1.00345
1.01473
1.0102
1.00444
1.00146
1.00039
1.00009
1.00002
1
1
1
1
1
1
1
1
1
1
1
1
1
1
1
1
1
1
1
1.00001
1.00004
1.00018
1.00069
1.00228
1.00598
1.01172
1.01473
1.00667
0.989656
0.98123
0.989656
1.00667
1.01473
1.01172
1.00598
1.00228
1.00069
1.00018
1.00004
1.00001
1
1
1
1
1
1
1
1
1
1
1
1
1
1
1
1
1
1
1
1
1.00001
1.00007
1.00027
1.00092
1.00263
1.00598
1.0102
1.01221
1.01024
1.00842
1.01024
1.01221
1.0102
1.00598
1.00263
1.00092
1.00027
1.00007
1.00001
1
1
1
1
1
1
1
1
1
1
1
1
1
1
1
1
1
1
1
1
1
1
1.00002
1.00008
1.0003
1.00092
1.00228
1.00444
1.00665
1.00773
1.00784
1.00773
1.00665
1.00444
1.00228
1.00092
1.0003
1.00008
1.00002
1
1
1
1
1
1
1
1
1
1
1
1
1
1
1
1
1
1
1
1
1
1
1
1.00001
1.00002
1.00008
1.00027
1.00069
1.00146
1.00243
1.00316
1.0034
1.00316
1.00243
1.00146
1.00069
1.00027
1.00008
1.00002
1.00001
1
1
1
1
1
1
1
1
1
1
1
1
1
1
1
1
1
1
1
1
1
1
1
1
1.00001
1.00002
1.00007
1.00018
1.00039
1.00069
1.00096
1.00106
1.00096
1.00069
1.00039
1.00018
1.00007
1.00002
1.00001
1
1
1
1
1
1
1
1
1
1
1
1
0.999999
1
1
1
1
1
1
1
1
1
1
1
1
1
1
1.00001
1.00004
1.00009
1.00016
1.00024
1.00026
1.00024
1.00016
1.00009
1.00004
1.00001
1
1
1
1
1
1
1
1
1
1
1
0.999999
0.999998
0.999997
0.999997
0.999997
0.999998
0.999999
1
1
1
1
1
1
1
1
1
1
1
1
1.00001
1.00002
1.00003
1.00005
1.00006
1.00005
1.00003
1.00002
1.00001
1
1
1
1
1
1
1
1
1
1
0.999999
0.999998
0.999995
0.99999
0.999986
0.999984
0.999986
0.99999
0.999995
0.999998
0.999999
1
1
1
1
1
1
1
1
1
1
1
1
1.00001
1.00001
1.00001
1.00001
1.00001
1
1
1
1
1
1
1
1
1
1
1
0.999999
0.999996
0.999989
0.999974
0.999953
0.999931
0.999922
0.999931
0.999953
0.999974
0.999989
0.999996
0.999999
1
1
1
1
1
1
1
1
1
1
1
1
1
1
1
1
1
1
1
1
1
1
1
1
1
1
0.999998
0.999994
0.999981
0.999949
0.999887
0.999798
0.999716
0.999683
0.999716
0.999798
0.999887
0.999949
0.999981
0.999994
0.999998
1
1
1
1
1
1
1
1
1
1
1
1
1
1
1
1
1
1
1
1
1
1
1
1
0.999998
0.999993
0.999976
0.999924
0.9998
0.999573
0.99927
0.999013
0.998921
0.999013
0.99927
0.999573
0.9998
0.999924
0.999976
0.999993
0.999998
1
1
1
1
1
1
1
1
1
1
1
1
1
1
1
1
1
1
1
1
1
1
0.999999
0.999994
0.999976
0.999913
0.999735
0.999335
0.998651
0.99784
0.997271
0.997119
0.997271
0.99784
0.998651
0.999335
0.999735
0.999913
0.999976
0.999994
0.999998
1
1
1
1
1
1
1
1
1
1
1
1
1
1
1
1
1
1
1
1
0.999999
0.999996
0.999981
0.999924
0.999735
0.999231
0.998175
0.996584
0.995121
0.994659
0.994834
0.994659
0.995121
0.996584
0.998175
0.999231
0.999735
0.999924
0.999981
0.999995
1
1
1
1
1
1
1
1
1
1
1
1
1
1
1
1
1
1
1
1
0.999998
0.999989
0.999949
0.9998
0.999335
0.998175
0.996027
0.993553
0.992983
0.995786
0.998201
0.995786
0.992983
0.993553
0.996027
0.998175
0.999335
0.9998
0.999948
0.999986
1
1
1
1
1
1
1
1
1
1
1
1
1
1
1
1
1
1
1
0.999999
0.999995
0.999974
0.999887
0.999573
0.998651
0.996584
0.993553
0.992503
0.999572
1.01601
1.02621
1.01601
0.999572
0.992503
0.993553
0.996584
0.998651
0.999572
0.999886
0.999969
1
1
1
1
1
1
1
1
1
1
1
1
1
1
1
1
1
1
1
0.999998
0.99999
0.999953
0.999798
0.99927
0.99784
0.995121
0.992983
0.999572
1.02864
1.07846
1.105
1.07846
1.02864
0.999572
0.992983
0.995121
0.99784
0.99927
0.999796
0.999943
1
1
1
1
1
1
1
1
1
1
1
1
1
1
1
1
1
1
1
0.999997
0.999986
0.999931
0.999716
0.999013
0.997271
0.994659
0.995786
1.01601
1.07846
1.17114
1.20995
1.17114
1.07846
1.01601
0.995786
0.994659
0.997271
0.999012
0.999713
0.999917
1
1
1
1
1
1
1
1
1
1
1
1
1
1
1
1
1
1
0.999999
0.999997
0.999984
0.999922
0.999683
0.998921
0.997119
0.994834
0.998201
1.02621
1.105
1.20995
1.24206
1.20995
1.105
1.02621
0.998201
0.994834
0.997119
0.99892
0.99968
0.999906
1
1
1
1
1
1
1
1
1
1
1
1
1
1
1
1
1
1
1
0.999997
0.999986
0.999931
0.999716
0.999013
0.997271
0.994659
0.995786
1.01601
1.07846
1.17114
1.20995
1.17114
1.07846
1.01601
0.995786
0.994659
0.997271
0.999012
0.999713
0.999917
1
1
1
1
1
1
1
1
1
1
1
1
1
1
1
1
1
1
1
0.999998
0.99999
0.999953
0.999798
0.99927
0.99784
0.995121
0.992983
0.999572
1.02864
1.07846
1.105
1.07846
1.02864
0.999572
0.992983
0.995121
0.99784
0.99927
0.999796
0.999943
1
1
1
1
1
1
1
1
1
1
1
1
1
1
1
1
1
1
1
0.999999
0.999995
0.999974
0.999887
0.999573
0.998651
0.996584
0.993553
0.992503
0.999572
1.01601
1.02621
1.01601
0.999572
0.992503
0.993553
0.996584
0.998651
0.999572
0.999886
0.999969
1
1
1
1
1
1
1
1
1
1
1
1
1
1
1
1
1
1
1
1
0.999998
0.999989
0.999949
0.9998
0.999335
0.998175
0.996027
0.993553
0.992983
0.995786
0.998201
0.995786
0.992983
0.993553
0.996027
0.998175
0.999335
0.9998
0.999948
0.999986
1
1
1
1
1
1
1
1
1
1
1
1
1
1
1
1
1
1
1
1
0.999999
0.999996
0.999981
0.999924
0.999735
0.999231
0.998175
0.996584
0.995121
0.994659
0.994834
0.994659
0.995121
0.996584
0.998175
0.999231
0.999735
0.999924
0.999981
0.999995
1
1
1
1
1
1
1
1
1
1
1
1
1
1
1
1
1
1
1
1
1
0.999999
0.999994
0.999976
0.999913
0.999735
0.999335
0.998651
0.99784
0.997271
0.997119
0.997271
0.99784
0.998651
0.999335
0.999735
0.999913
0.999976
0.999994
0.999998
1
1
1
1
1
1
1
1
1
1
1
1
1
1
1
1
1
1
1
1
1
1
0.999998
0.999993
0.999976
0.999924
0.9998
0.999572
0.99927
0.999012
0.99892
0.999012
0.99927
0.999572
0.9998
0.999924
0.999976
0.999993
0.999998
1
1
1
1
1
1
1
1
1
1
1
1
1
1
1
1
1
1
1
1
1
1
1
1
0.999998
0.999994
0.999981
0.999948
0.999886
0.999796
0.999713
0.99968
0.999713
0.999796
0.999886
0.999948
0.999981
0.999994
0.999998
1
1
1
1
1
1
1
1
1
1
1
1
1
1
1
1
1
1
1
1
1
1
1
1
1
1
0.999998
0.999995
0.999986
0.999969
0.999943
0.999917
0.999906
0.999917
0.999943
0.999969
0.999986
0.999995
0.999998
1
1
1
SCALARS C2 double 1
LOOKUP_TABLE default
3
3
3
3
3
3
2.99999
2.99998
2.99997
2.99995
2.99994
2.99995
2.99997
2.99998
2.99999
3
3
3
3
3
3
3
3
3
3
3
3
3
3
3
3
3
3
3
3
3
3
3
3
3
3
3
3
3
3
2.99999
2.99997
2.99992
2.99984
2.99976
2.99973
2.99976
2.99984
2.99992
2.99997
2.99999
3
3
3
3
3
3
3
3
3
3
3
3
3
3
3
3
3
3
3
3
3
3
3
3
3
3
3
3
2.99998
2.99995
2.99984
2.99962
2.99927
2.99892
2.99878
2.99892
2.99927
2.99962
2.99984
2.99995
2.99998
3
3
3
3
3
3
3
3
3
3
3
3
3
3
3
3
3
3
3
3
3
3
3
3
3
3
2.99998
2.99993
2.99976
2.99931
2.9984
2.99706
2.99581
2.99534
2.99581
2.99706
2.9984
2.99931
2.99976
2.99993
2.99998
3
3
3
3
3
3
3
3
3
3
3
3
3
3
3
3
3
3
3
3
3
3
3
3
2.99998
2.99993
2.99972
2.99908
2.99745
2.99434
2.99019
2.98689
2.98588
2.98689
2.99019
2.99434
2.99745
2.99908
2.99972
2.99993
2.99998
3
3
3
3
3
3
3
3
3
3
3
3
3
3
3
3
3
3
3
3
3
3
2.99999
2.99995
2.99976
2.99908
2.99703
2.99219
2.98385
2.97474
2.97013
2.96997
2.97013
2.97474
2.98385
2.99219
2.99703
2.99908
2.99976
2.99995
2.99999
3
3
3
3
3
3
3
3
3
3
3
3
3
3
3
3
3
3
3
3
2.99999
2.99997
2.99984
2.99931
2.99745
2.99219
2.98096
2.96531
2.9562
2.96284
2.97094
2.96284
2.9562
2.96531
2.98096
2.99219
2.99745
2.99931
2.99984
2.99997
2.99999
3
3
3
3
3
3
3
3
3
3
3
3
3
3
3
3
3
3
3
2.99998
2.99992
2.99962
2.9984
2.99434
2.98385
2.96531
2.95096
2.96864
3.02061
3.05255
3.02061
2.96864
2.95096
2.96531
2.98385
2.99434
2.9984
2.99962
2.99992
2.99999
3
3
3
3
3
3
3
3
3
3
3
3
3
3
3
3
3
3
3
2.99997
2.99984
2.99927
2.99706
2.99019
2.97474
2.9562
2.96864
3.05451
3.18719
3.25815
3.18719
3.05451
2.96864
2.9562
2.97474
2.99019
2.99706
2.99927
2.99985
2.99997
3
3
3
3
3
3
3
3
3
3
3
3
3
3
3
3
3
3
3
2.99995
2.99976
2.99892
2.99581
2.98689
2.97013
2.96284
3.02061
3.18719
3.40294
3.51692
3.40294
3.18719
3.02061
2.96284
2.97013
2.98689
2.99581
2.99892
2.99977
2.99996
2.99999
3
3
3
3
3
3
3
3
3
3
3
3
3
3
3
3
3
3
2.99994
2.99973
2.99878
2.99534
2.98588
2.96997
2.97094
3.05255
3.25815
3.51692
3.65335
3.51692
3.25815
3.05255
2.97094
2.96997
2.98588
2.99534
2.99878
2.99973
2.99995
2.99999
3
3
3
3
3
3
3
3
3
3
3
3
3
3
3
3
3
3
2.99995
2.99976
2.99892
2.99581
2.98689
2.97013
2.96284
3.02061
3.18719
3.40294
3.51692
3.40294
3.18719
3.02061
2.96284
2.97013
2.98689
2.99581
2.99892
2.99977
2.99996
2.99999
3
3
3
3
3
3
3
3
3
3
3
3
3
3
3
3
3
3
2.99997
2.99984
2.99927
2.99706
2.99019
2.97474
2.9562
2.96864
3.05451
3.18719
3.25815
3.18719
3.05451
2.96864
2.9562
2.97474
2.99019
2.99706
2.99927
2.99985
2.99997
3
3
3
3
3
3
3
3
3
3
3
3
3
3
3
3
3
3
3
2.99998
2.99992
2.99962
2.9984
2.99434
2.98385
2.96531
2.95096
2.96864
3.02061
3.05255
3.02061
2.96864
2.95096
2.96531
2.98385
2.99434
2.9984
2.99962
2.99992
2.99999
3
3
3
3
3
3
3
3
3
3
3
3
3
3
3
3
3
3
3
2.99999
2.99997
2.99984
2.99931
2.99745
2.99219
2.98096
2.96531
2.9562
2.96284
2.97094
2.96284
2.9562
2.96531
2.98096
2.99219
2.99745
2.99931
2.99984
2.99997
2.99999
3
3
3
3
3
3
3
3
3
3
3
3
3
3
3
3
3
3
3
3
2.99999
2.99995
2.99976
2.99908
2.99703
2.99219
2.98385
2.97474
2.97013
2.96997
2.97013
2.97474
2.98385
2.99219
2.99703
2.99908
2.99976
2.99995
2.99999
3
3
3
3
3
3
3
3
3
3
3
3
3
3
3
3
3
3
3
3
3
3
2.99998
2.99993
2.99972
2.99908
2.99745
2.99434
2.99019
2.98689
2.98588
2.98689
2.99019
2.99434
2.99745
2.99908
2.99972
2.99993
2.99998
3
3
3
3
3
3
3
3
3
3
3
3
3
3
3
3
3
3
3
3
3
3
3
3
2.99998
2.99993
2.99976
2.99931
2.9984
2.99706
2.99581
2.99534
2.99581
2.99706
2.9984
2.99931
2.99976
2.99993
2.99998
3
3
3
3
3
3
3
3
3
3
3
3
3
3
3
3
3
3
3
3
3
3
3
3
3
3
2.99998
2.99995
2.99984
2.99962
2.99927
2.99892
2.99878
2.99892
2.99927
2.99962
2.99984
2.99995
2.99998
3
3
3
3
3
3
3
3
3
3
3
3
3
3
3
3
3
3
3
3
3
3
3
3
3
3
3
3
2.99999
2.99997
2.99992
2.99985
2.99977
2.99973
2.99977
2.99985
2.99992
2.99997
2.99999
3
3
3
3
3
3
3
3
3
3
3
3
3
3
3
3
3
3
3
3
3
3
3
3
3
3
3
3
3
3
2.99999
2.99999
2.99997
2.99996
2.99995
2.99996
2.99997
2.99999
2.99999
3
3
3
3
3
3
3
3
3
3
3
3
3
3.00001
3.00001
3.00002
3.00001
3.00001
3
3
3
3
3
3
3
3
3
3
3
3
3
3
3
3
2.99999
2.99999
2.99999
3
3
3
3
3
3
3
3
3
3
3
3
3
3
3.00001
3.00002
3.00004
3.00007
3.00008
3.00007
3.00004
3.00002
3.00001
3
3
3
3
3
3
3
3
3
3
3
3
3
3
3
3
3
3
3
3
3
3
3
3
3
3
3
3
3
3
3.00002
3.00005
3.00011
3.00021
3.00032
3.00036
3.00032
3.00021
3.00011
3.00005
3.00002
3
3
3
3
3
3
3
3
3
3
3
3
3
3
3
3
3
3
3
3
3
3
3
3
3
3
3
3.00001
3.00002
3.00007
3.0002
3.00046
3.00086
3.00126
3.00142
3.00126
3.00086
3.00046
3.0002
3.00007
3.00002
3.00001
3
3
3
3
3
3
3
3
3
3
3
3
3
3
3
3
3
3
3
3
3
3
3
3
3
3.00002
3.00008
3.00026
3.00073
3.00166
3.00298
3.00418
3.00462
3.00418
3.00298
3.00166
3.00073
3.00026
3.00008
3.00002
3
3
3
3
3
3
3
3
3
3
3
3
3
3
3
3
3
3
3
3
3
3
3
3
3.00002
3.00007
3.00026
3.00085
3.00229
3.00496
3.00842
3.01108
3.01179
3.01108
3.00842
3.00496
3.00229
3.00085
3.00026
3.00007
3.00002
3
3
3
3
3
3
3
3
3
3
3
3
3
3
3
3
3
3
3
3
3
3
3.00001
3.00005
3.0002
3.00073
3.00229
3.00586
3.01188
3.01834
3.02114
3.02043
3.02114
3.01834
3.01188
3.00586
3.00229
3.00073
3.0002
3.00005
3.00001
3
3
3
3
3
3
3
3
3
3
3
3
3
3
3
3
3
3
3
3
3
3.00002
3.00011
3.00046
3.00166
3.00496
3.01188
3.02162
3.02704
3.01926
3.00897
3.01926
3.02704
3.02162
3.01188
3.00496
3.00166
3.00046
3.00011
3.00003
3
3
3
3
3
3
3
3
3
3
3
3
3
3
3
3
3
3
3
3
3.00001
3.00004
3.00021
3.00086
3.00298
3.00842
3.01834
3.02704
3.01449
2.9632
2.92113
2.9632
3.01449
3.02704
3.01834
3.00842
3.00298
3.00086
3.00021
3.00005
3
3
3
3
3
3
3
3
3
3
3
3
3
3
3
3
3
3
3
3
3.00001
3.00007
3.00032
3.00126
3.00418
3.01108
3.02114
3.01926
2.9632
2.82592
2.73087
2.82592
2.9632
3.01926
3.02114
3.01108
3.00418
3.00126
3.00032
3.00008
3
3
3
3
3
3
3
3
3
3
3
3
3
3
3
3
3
3
3
3
3.00002
3.00008
3.00036
3.00142
3.00462
3.01179
3.02043
3.00897
2.92113
2.73087
2.61222
2.73087
2.92113
3.00897
3.02043
3.01179
3.00462
3.00142
3.00036
3.00009
3
3
3
3
3
3
3
3
3
3
3
3
3
3
3
3
3
3
3
3
3.00001
3.00007
3.00032
3.00126
3.00418
3.01108
3.02114
3.01926
2.9632
2.82592
2.73087
2.82592
2.9632
3.01926
3.02114
3.01108
3.00418
3.00126
3.00032
3.00008
3
3
3
3
3
3
3
3
3
3
3
3
3
3
3
3
3
3
3
3
3.00001
3.00004
3.00021
3.00086
3.00298
3.00842
3.01834
3.02704
3.01449
2.9632
2.92113
2.9632
3.01449
3.02704
3.01834
3.00842
3.00298
3.00086
3.00021
3.00005
3
3
3
3
3
3
3
3
3
3
3
3
3
3
3
3
3
3
3
3
3
3.00002
3.00011
3.00046
3.00166
3.00496
3.01188
3.02162
3.02704
3.01926
3.00897
3.01926
3.02704
3.02162
3.01188
3.00496
3.00166
3.00046
3.00011
3.00003
3
3
3
3
3
3
3
3
3
3
3
3
3
3
3
3
3
3
3
3
3
3.00001
3.00005
3.0002
3.00073
3.00229
3.00586
3.01188
3.01834
3.02114
3.02043
3.02114
3.01834
3.01188
3.00586
3.00229
3.00073
3.0002
3.00005
3.00001
3
3
3
3
3
3
3
3
3
3
3
3
3
3
3
3
3
3
3
3
3
3
3.00002
3.00007
3.00026
3.00085
3.00229
3.00496
3.00842
3.01108
3.01179
3.01108
3.00842
3.00496
3.00229
3.00085
3.00026
3.00007
3.00002
3
3
3
3
3
3
3
3
3
3
3
3
3
3
3
3
3
3
3
3
3
3
3
3
3.00002
3.00008
3.00026
3.00073
3.00166
3.00298
3.00418
3.00462
3.00418
3.00298
3.00166
3.00073
3.00026
3.00008
3.00002
3
3
3
3
3
3
3
3
3
3
3
3
3
3
3
3
3
3
3
3
3
3
3
3
3
3.00001
3.00002
3.00007
3.0002
3.00046
3.00086
3.00126
3.00142
3.00126
3.00086
3.00046
3.0002
3.00007
3.00002
3.00001
3
3
3
3
3
3
3
3
3
3
3
3
3
3
3
3
3
3
3
3
3
3
3
3
3
3
3
3.00002
3.00005
3.00011
3.00021
3.00032
3.00036
3.00032
3.00021
3.00011
3.00005
3.00002
3
3
3
3
3
3
3
3
3
3
3
3
3
3
3
3
3
3
3
3
3
3
3
3
3
3
3
3
3
3
3.00001
3.00003
3.00005
3.00008
3.00009
3.00008
3.00005
3.00003
3.00001
3
3
3
3
3
