# vtk DataFile Version 3.0
Brusselator Concentration Output
ASCII
DATASET STRUCTURED_POINTS
DIMENSIONS 40 40 1
ORIGIN 0.0 0.0 0.0
SPACING 0.005 0.005 1.0
POINT_DATA 1600
SCALARS C1 double 1
LOOKUP_TABLE default
0.440271
0.469013
0.529083
0.635225
0.870755
1.51411
2.95893
3.93126
3.87686
3.72615
3.66845
3.72618
3.87695
3.92988
2.94496
1.5022
0.868579
0.641751
0.543844
0.487277
0.448703
0.421248
0.403127
0.396149
0.407787
0.45708
0.583234
0.836127
1.19254
1.39734
1.25307
1.08266
1.0117
0.993408
0.99265
0.995587
0.998014
0.999307
0.999834
0.999995
0.469013
0.509194
0.618083
0.960247
2.10834
3.62554
3.38325
3.03974
2.80771
2.67253
2.62811
2.67257
2.80796
3.04071
3.38636
3.62387
2.10023
0.978225
0.643437
0.533212
0.477119
0.441084
0.41767
0.40659
0.413516
0.454353
0.562256
0.78084
1.09735
1.32207
1.25455
1.1014
1.02222
0.997458
0.993827
0.995766
0.997955
0.999245
0.999807
0.999988
0.529083
0.618083
1.0435
2.86206
3.43422
2.88756
2.50444
2.22462
2.03536
1.92608
1.89036
1.92611
2.03558
2.22551
2.50717
2.8942
3.44619
2.93052
1.12947
0.663221
0.53786
0.479181
0.444016
0.424552
0.422503
0.448483
0.526539
0.692246
0.952756
1.20082
1.24502
1.13182
1.04175
1.00536
0.996245
0.996234
0.99793
0.999191
0.999808
1.00002
0.635225
0.960247
2.86206
3.28522
2.68898
2.24345
1.91235
1.67491
1.51568
1.42429
1.39453
1.42433
1.51589
1.67572
1.91475
2.24909
2.6984
3.2872
3.10936
1.09805
0.648744
0.531357
0.475761
0.444213
0.43093
0.440665
0.489305
0.605767
0.814309
1.07089
1.21444
1.16261
1.06719
1.01656
0.999951
0.997158
0.998108
0.999293
0.999969
1.00023
0.870755
2.10834
3.43422
2.68898
2.16227
1.77314
1.48822
1.28615
1.15242
1.07661
1.05211
1.07665
1.15261
1.28686
1.4903
1.77781
2.16956
2.69252
3.37901
2.54545
0.904183
0.60199
0.509926
0.463223
0.438749
0.435072
0.461988
0.542768
0.70896
0.955891
1.16462
1.1832
1.09401
1.02987
1.00472
0.998596
0.998634
0.999734
1.0005
1.00082
1.51411
3.62554
2.88756
2.24345
1.77314
1.43054
1.18351
1.01201
0.901163
0.839568
0.819886
0.839602
0.901337
1.01264
1.18531
1.43444
1.77868
2.24287
2.85528
3.62522
1.55853
0.716818
0.548857
0.482626
0.447549
0.433756
0.446151
0.503044
0.636381
0.863104
1.10444
1.18737
1.11646
1.04275
1.00943
0.999989
0.999258
1.00048
1.00152
1.00202
2.95893
3.38325
2.50444
1.91235
1.48822
1.18351
0.968922
0.824326
0.733599
0.684344
0.668803
0.684375
0.733753
0.82488
0.970472
1.18678
1.49244
1.90984
2.46995
3.21764
2.8216
0.926974
0.596844
0.503116
0.457499
0.435796
0.438295
0.479064
0.587539
0.791011
1.04197
1.17321
1.12758
1.05023
1.01085
0.999109
0.998426
1.00052
1.00244
1.00344
3.93126
3.03974
2.22462
1.67491
1.28615
1.01201
0.824326
0.701856
0.627245
0.587622
0.575267
0.587651
0.627382
0.70234
0.825673
1.0148
1.28939
1.67099
2.18764
2.87226
3.60693
1.268
0.656427
0.523855
0.467516
0.439351
0.434789
0.464357
0.554235
0.735608
0.982218
1.14183
1.11991
1.04454
1.00278
0.990918
0.991967
0.996431
1.00043
1.00261
3.87686
2.80771
2.03536
1.51568
1.15242
0.901163
0.733599
0.627245
0.564006
0.531013
0.520821
0.531039
0.564129
0.627677
0.734796
0.903605
1.15501
1.51078
1.99681
2.64657
3.55031
1.68482
0.722046
0.542526
0.47604
0.44275
0.433145
0.454956
0.53142
0.694452
0.93014
1.09862
1.08973
1.01852
0.978104
0.968526
0.973025
0.981359
0.988691
0.992809
3.72615
2.67253
1.92608
1.42429
1.07661
0.839568
0.684344
0.587622
0.531013
0.501816
0.492852
0.501841
0.531127
0.588023
0.685449
0.841803
1.07882
1.41882
1.88671
2.51611
3.40577
2.04227
0.776501
0.555699
0.481545
0.444824
0.4321
0.449339
0.518038
0.6702
0.896255
1.05732
1.04402
0.973733
0.935802
0.928821
0.936195
0.947577
0.957552
0.963214
3.66845
2.62811
1.89036
1.39453
1.05211
0.819886
0.668803
0.575267
0.520821
0.492852
0.484284
0.492877
0.520932
0.575656
0.669878
0.822051
1.05419
1.38886
1.85072
2.47327
3.35096
2.1807
0.797501
0.560039
0.483032
0.445262
0.431989
0.44917
0.519418
0.676992
0.90665
1.04733
1.00703
0.928319
0.888947
0.880288
0.885279
0.894164
0.902024
0.90644
3.72618
2.67257
1.92611
1.42433
1.07665
0.839602
0.684375
0.587651
0.531039
0.501841
0.492877
0.501866
0.531154
0.588051
0.685479
0.841832
1.07884
1.41882
1.88668
2.51603
3.40603
2.03708
0.77447
0.554366
0.480778
0.445434
0.436303
0.463362
0.558517
0.766177
1.04306
1.15321
1.04564
0.931408
0.87331
0.84885
0.838734
0.834023
0.831269
0.829772
3.87695
2.80796
2.03558
1.51589
1.15261
0.901337
0.733753
0.627382
0.564129
0.531127
0.520932
0.531154
0.564251
0.627812
0.734945
0.903761
1.15516
1.51091
1.99693
2.64672
3.55117
1.67491
0.718676
0.541234
0.477549
0.45074
0.457899
0.525648
0.719256
1.09991
1.53904
1.66899
1.42466
1.17091
1.01164
0.909928
0.841578
0.796793
0.769538
0.756416
3.92988
3.04071
2.22551
1.67572
1.28686
1.01264
0.82488
0.70234
0.627677
0.588023
0.575656
0.588051
0.627812
0.702819
0.82621
1.01539
1.29004
1.6717
2.18856
2.87374
3.60351
1.25655
0.654291
0.527348
0.481403
0.47802
0.537573
0.726332
1.11271
1.58626
2.04174
2.38083
2.43178
2.18333
1.796
1.40134
1.07763
0.867822
0.760963
0.718967
2.94496
3.38636
2.50717
1.91475
1.4903
1.18531
0.970472
0.825673
0.734796
0.685449
0.669878
0.685479
0.734945
0.82621
0.971983
1.1885
1.49442
1.91228
2.47338
3.22434
2.78964
0.920413
0.603045
0.524813
0.511905
0.564998
0.721238
0.951319
1.14428
1.40329
1.68227
1.8964
2.04203
2.18073
2.34548
2.45111
2.15521
1.46445
0.988232
0.805071
1.5022
3.62387
2.8942
2.24909
1.77781
1.43444
1.18678
1.0148
0.903605
0.841803
0.822051
0.841832
0.903761
1.01539
1.1885
1.43824
1.78339
2.24922
2.86454
3.63596
1.53939
0.726276
0.580275
0.553226
0.592525
0.685944
0.747663
0.797488
0.924173
1.08752
1.22818
1.32361
1.40205
1.50327
1.65367
1.87517
2.2001
2.58485
2.27685
1.58438
0.868579
2.10023
3.44619
2.6984
2.16956
1.77868
1.49244
1.28939
1.15501
1.07882
1.05419
1.07884
1.15516
1.29004
1.49442
1.78339
2.17754
2.70467
3.40143
2.52975
0.921675
0.646511
0.597445
0.616091
0.644558
0.612789
0.60158
0.646384
0.7271
0.806724
0.86183
0.899443
0.943937
1.01595
1.13042
1.30503
1.56629
1.94694
2.49244
3.05468
0.641751
0.978225
2.93052
3.2872
2.69252
2.24287
1.90984
1.67099
1.51078
1.41882
1.38886
1.41882
1.51091
1.6717
1.91228
2.24922
2.70467
3.29962
3.172
1.15068
0.714918
0.639221
0.636235
0.615246
0.540298
0.500037
0.504875
0.537631
0.576392
0.604146
0.618827
0.632076
0.656934
0.702757
0.779112
0.901147
1.093
1.38378
1.77425
2.12643
0.543844
0.643437
1.12947
3.10936
3.37901
2.85528
2.46995
2.18764
1.99681
1.88671
1.85072
1.88668
1.99693
2.18856
2.47338
2.86454
3.40143
3.172
1.26239
0.762251
0.670555
0.652318
0.599633
0.504099
0.450392
0.43749
0.446995
0.464053
0.477264
0.482357
0.483673
0.488301
0.501384
0.527145
0.571945
0.647517
0.773661
0.973555
1.24055
1.47179
0.487277
0.533212
0.663221
1.09805
2.54545
3.62522
3.21764
2.87226
2.64657
2.51611
2.47327
2.51603
2.64672
2.87374
3.22434
3.63596
2.52975
1.15068
0.762251
0.682412
0.661623
0.593117
0.487217
0.4271
0.406304
0.405479
0.412573
0.419461
0.421844
0.420663
0.419519
0.421196
0.427427
0.440315
0.463892
0.506035
0.58053
0.703753
0.869823
1.00987
0.448703
0.477119
0.53786
0.648744
0.904183
1.55853
2.8216
3.60693
3.55031
3.40577
3.35096
3.40603
3.55117
3.60351
2.78964
1.53939
0.921675
0.714918
0.670555
0.661623
0.591474
0.480691
0.417029
0.392402
0.386949
0.389772
0.394417
0.396918
0.396694
0.395446
0.394689
0.395146
0.397422
0.402736
0.413619
0.43496
0.475152
0.543678
0.635928
0.712004
0.421248
0.441084
0.479181
0.531357
0.60199
0.716818
0.926974
1.268
1.68482
2.04227
2.1807
2.03708
1.67491
1.25655
0.920413
0.726276
0.646511
0.639221
0.652318
0.593117
0.480691
0.414238
0.387127
0.379242
0.380137
0.384214
0.3878
0.389604
0.390259
0.39049
0.390481
0.390248
0.390086
0.390843
0.394212
0.40322
0.42263
0.457016
0.502611
0.539006
0.403127
0.41767
0.444016
0.475761
0.509926
0.548857
0.596844
0.656427
0.722046
0.776501
0.797501
0.77447
0.718676
0.654291
0.603045
0.580275
0.597445
0.636235
0.599633
0.487217
0.417029
0.387127
0.377154
0.376672
0.380505
0.385215
0.389188
0.392426
0.395096
0.39695
0.397588
0.396832
0.394917
0.392572
0.391098
0.392504
0.399451
0.413767
0.432669
0.447181
0.396149
0.40659
0.424552
0.444213
0.463223
0.482626
0.503116
0.523855
0.542526
0.555699
0.560039
0.554366
0.541234
0.527348
0.524813
0.553226
0.616091
0.615246
0.504099
0.4271
0.392402
0.379242
0.376672
0.379618
0.384814
0.390512
0.396338
0.402064
0.407061
0.410501
0.411717
0.410457
0.406989
0.402087
0.396954
0.39312
0.392137
0.394521
0.398554
0.4016
0.407787
0.413516
0.422503
0.43093
0.438749
0.447549
0.457499
0.467516
0.47604
0.481545
0.483032
0.480778
0.477549
0.481403
0.511905
0.592525
0.644558
0.540298
0.450392
0.406304
0.386949
0.380137
0.380505
0.384814
0.391196
0.398997
0.407706
0.416424
0.423956
0.429089
0.430911
0.429082
0.423962
0.416517
0.408078
0.400038
0.393421
0.388197
0.383615
0.380529
0.45708
0.454353
0.448483
0.440665
0.435072
0.433756
0.435796
0.439351
0.44275
0.444824
0.445262
0.445434
0.45074
0.47802
0.564998
0.685944
0.612789
0.500037
0.43749
0.405479
0.389772
0.384214
0.385215
0.390512
0.398997
0.40984
0.421977
0.434049
0.444458
0.451569
0.454104
0.451578
0.444509
0.434218
0.422372
0.410463
0.399308
0.388703
0.37867
0.372037
0.583234
0.562256
0.526539
0.489305
0.461988
0.446151
0.438295
0.434789
0.433145
0.4321
0.431989
0.436303
0.457899
0.537573
0.721238
0.747663
0.60158
0.504875
0.446995
0.412573
0.394417
0.3878
0.389188
0.396338
0.407706
0.421977
0.437804
0.45358
0.46731
0.476791
0.480195
0.476809
0.467388
0.453805
0.438262
0.422521
0.407371
0.392575
0.378729
0.369814
0.836127
0.78084
0.692246
0.605767
0.542768
0.503044
0.479064
0.464357
0.454956
0.449339
0.44917
0.463362
0.525648
0.726332
0.951319
0.797488
0.646384
0.537631
0.464053
0.419461
0.396918
0.389604
0.392426
0.402064
0.416424
0.434049
0.45358
0.473264
0.490665
0.502857
0.507272
0.502881
0.490763
0.473531
0.454093
0.434588
0.41585
0.397647
0.380958
0.370452
1.19254
1.09735
0.952756
0.814309
0.70896
0.636381
0.587539
0.554235
0.53142
0.518038
0.519418
0.558517
0.719256
1.11271
1.14428
0.924173
0.7271
0.576392
0.477264
0.421844
0.396694
0.390259
0.395096
0.407061
0.423956
0.444458
0.46731
0.490665
0.511656
0.526573
0.532021
0.526603
0.511769
0.490966
0.467865
0.444999
0.423261
0.402404
0.383632
0.372013
1.39734
1.32207
1.20082
1.07089
0.955891
0.863104
0.791011
0.735608
0.694452
0.6702
0.676992
0.766177
1.09991
1.58626
1.40329
1.08752
0.806724
0.604146
0.482357
0.420663
0.395446
0.39049
0.39695
0.410501
0.429089
0.451569
0.476791
0.502857
0.526573
0.543604
0.549861
0.543637
0.526697
0.50318
0.477374
0.452113
0.428324
0.405737
0.385659
0.37336
1.25307
1.25455
1.24502
1.21444
1.16462
1.10444
1.04197
0.982218
0.93014
0.896255
0.90665
1.04306
1.53904
2.04174
1.68227
1.22818
0.86183
0.618827
0.483673
0.419519
0.394689
0.390481
0.397588
0.411717
0.430911
0.454104
0.480195
0.507272
0.532021
0.549861
0.55643
0.549895
0.532149
0.507604
0.480788
0.45465
0.430126
0.406932
0.386405
0.373875
1.08266
1.1014
1.13182
1.16261
1.1832
1.18737
1.17321
1.14183
1.09862
1.05732
1.04733
1.15321
1.66899
2.38083
1.8964
1.32361
0.899443
0.632076
0.488301
0.421196
0.395146
0.390248
0.396832
0.410457
0.429082
0.451578
0.476809
0.502881
0.526603
0.543637
0.549895
0.54367
0.526727
0.503205
0.477394
0.452129
0.428337
0.405745
0.385663
0.373362
1.0117
1.02222
1.04175
1.06719
1.09401
1.11646
1.12758
1.11991
1.08973
1.04402
1.00703
1.04564
1.42466
2.43178
2.04203
1.40205
0.943937
0.656934
0.501384
0.427427
0.397422
0.390086
0.394917
0.406989
0.423962
0.444509
0.467388
0.490763
0.511769
0.526697
0.532149
0.526727
0.511883
0.491065
0.46795
0.445072
0.423322
0.402452
0.383666
0.372038
0.993408
0.997458
1.00536
1.01656
1.02987
1.04275
1.05023
1.04454
1.01852
0.973733
0.928319
0.931408
1.17091
2.18333
2.18073
1.50327
1.01595
0.702757
0.527145
0.440315
0.402736
0.390843
0.392572
0.402087
0.416517
0.434218
0.453805
0.473531
0.490966
0.50318
0.507604
0.503205
0.491065
0.473805
0.45434
0.434813
0.416053
0.397824
0.381106
0.370581
0.99265
0.993827
0.996245
0.999951
1.00472
1.00943
1.01085
1.00278
0.978104
0.935802
0.888947
0.87331
1.01164
1.796
2.34548
1.65367
1.13042
0.779112
0.571945
0.463892
0.413619
0.394212
0.391098
0.396954
0.408078
0.422372
0.438262
0.454093
0.467865
0.477374
0.480788
0.477394
0.46795
0.45434
0.438776
0.423027
0.407874
0.393072
0.379212
0.37029
0.995587
0.995766
0.996234
0.997158
0.998596
0.999989
0.999109
0.990918
0.968526
0.928821
0.880288
0.84885
0.909928
1.40134
2.45111
1.87517
1.30503
0.901147
0.647517
0.506035
0.43496
0.40322
0.392504
0.39312
0.400038
0.410463
0.422521
0.434588
0.444999
0.452113
0.45465
0.452129
0.445072
0.434813
0.423027
0.411216
0.400205
0.389784
0.379949
0.373459
0.998014
0.997955
0.99793
0.998108
0.998634
0.999258
0.998426
0.991967
0.973025
0.936195
0.885279
0.838734
0.841578
1.07763
2.15521
2.2001
1.56629
1.093
0.773661
0.58053
0.475152
0.42263
0.399451
0.392137
0.393421
0.399308
0.407371
0.41585
0.423261
0.428324
0.430126
0.428337
0.423322
0.416053
0.407874
0.400205
0.394135
0.389713
0.386123
0.383804
0.999307
0.999245
0.999191
0.999293
0.999734
1.00048
1.00052
0.996431
0.981359
0.947577
0.894164
0.834023
0.796793
0.867822
1.46445
2.58485
1.94694
1.38378
0.973555
0.703753
0.543678
0.457016
0.413767
0.394521
0.388197
0.388703
0.392575
0.397647
0.402404
0.405737
0.406932
0.405745
0.402452
0.397824
0.393072
0.389784
0.389713
0.393723
0.40015
0.405239
0.999834
0.999807
0.999808
0.999969
1.0005
1.00152
1.00244
1.00043
0.988691
0.957552
0.902024
0.831269
0.769538
0.760963
0.988232
2.27685
2.49244
1.77425
1.24055
0.869823
0.635928
0.502611
0.432669
0.398554
0.383615
0.37867
0.378729
0.380958
0.383632
0.385659
0.386405
0.385663
0.383666
0.381106
0.379212
0.379949
0.386123
0.40015
0.419911
0.435689
0.999995
0.999988
1.00002
1.00023
1.00082
1.00202
1.00344
1.00261
0.992809
0.963214
0.90644
0.829772
0.756416
0.718967
0.805071
1.58438
3.05468
2.12643
1.47179
1.00987
0.712004
0.539006
0.447181
0.4016
0.380529
0.372037
0.369814
0.370452
0.372013
0.37336
0.373875
0.373362
0.372038
0.370581
0.37029
0.373459
0.383804
0.405239
0.435689
0.460531
SCALARS C2 double 1
LOOKUP_TABLE default
4.32147
4.44399
4.58939
4.65626
4.5762
4.07965
2.52555
1.12969
0.847206
0.814507
0.813612
0.814545
0.847496
1.13285
2.5428
4.0916
4.57732
4.6553
4.6076
4.50003
4.35162
4.1708
3.96229
3.72829
3.46779
3.17453
2.83905
2.47904
2.22523
2.34242
2.73545
2.96082
3.02086
3.02337
3.01415
3.00648
3.00232
3.00059
3.00005
2.99992
4.44399
4.54563
4.64058
4.5224
3.44922
1.30251
0.911649
0.938875
0.992291
1.03073
1.04437
1.03072
0.992246
0.938753
0.91198
1.31461
3.46013
4.51038
4.64653
4.58674
4.45883
4.28844
4.08507
3.8532
3.59361
3.30235
2.97261
2.61903
2.34713
2.37338
2.68919
2.92687
3.00763
3.01969
3.0137
3.00678
3.0026
3.00074
3.0001
2.99994
4.58939
4.64058
4.47077
2.54088
0.948732
0.977597
1.08744
1.19269
1.27671
1.33054
1.34905
1.33053
1.27662
1.19236
1.08656
0.975857
0.946677
2.45509
4.4068
4.6474
4.59014
4.45153
4.26598
4.04486
3.79259
3.50876
3.18973
2.84355
2.53785
2.43442
2.62262
2.86566
2.98177
3.01206
3.01249
3.00714
3.00303
3.00095
3.00016
2.99993
4.65626
4.5224
2.54088
0.933451
1.03066
1.18361
1.33497
1.46767
1.57048
1.63533
1.65747
1.63532
1.57037
1.46725
1.33383
1.1813
1.02721
0.927203
2.20809
4.42315
4.64768
4.5751
4.42069
4.21859
3.98011
3.70876
3.40337
3.06567
2.73118
2.51728
2.56794
2.79035
2.94516
3.00024
3.00999
3.00712
3.00326
3.00097
3.00001
2.99972
4.5762
3.44922
0.948732
1.03066
1.21686
1.40878
1.58747
1.73988
1.85549
1.92728
1.95158
1.92727
1.85538
1.73942
1.58616
1.40616
1.21335
1.02785
0.929467
2.92635
4.54809
4.63796
4.52759
4.34746
4.12323
3.86362
3.57012
3.24183
2.89468
2.61
2.54296
2.71711
2.90165
2.98443
3.00572
3.00619
3.00282
3.00038
2.99926
2.99891
4.07965
1.30251
0.977597
1.18361
1.40878
1.62788
1.82612
1.9908
2.11292
2.18754
2.2126
2.18753
2.11281
1.99032
1.82473
1.62507
1.40518
1.18245
0.983445
1.08282
4.00414
4.63546
4.59685
4.44146
4.23043
3.98004
3.69509
3.37496
3.02595
2.70273
2.54842
2.65985
2.85766
2.96644
3.00006
3.00424
3.00139
2.99867
2.99728
2.9968
2.52555
0.911649
1.08744
1.33497
1.58747
1.82612
2.03612
2.20616
2.32981
2.40445
2.42936
2.40444
2.32971
2.20569
2.03471
1.82321
1.58386
1.33471
1.0973
0.920346
2.54199
4.53192
4.63533
4.51012
4.31209
4.06928
3.79043
3.47664
3.13063
2.78974
2.57792
2.62862
2.82345
2.95181
2.99613
3.00314
2.99993
2.99611
2.99377
2.9928
1.12969
0.938875
1.19269
1.46767
1.73988
1.9908
2.20616
2.37706
2.4997
2.57323
2.5977
2.57322
2.49962
2.37662
2.20477
1.98787
1.73631
1.46809
1.20543
0.97739
1.27877
4.26466
4.64558
4.55806
4.37294
4.13669
3.86252
3.5541
3.21398
2.86948
2.62653
2.63188
2.81474
2.95296
3.00296
3.00962
3.00336
2.99597
2.99076
2.9882
0.847206
0.992291
1.27671
1.57048
1.85549
2.11292
2.32981
2.4997
2.62079
2.69318
2.71726
2.69318
2.62071
2.49929
2.32845
2.11
1.85196
1.5714
1.29161
1.03922
0.967825
3.84256
4.63317
4.58844
4.41503
4.18418
3.91407
3.61156
3.28088
2.94388
2.69304
2.67766
2.85074
2.98893
3.03677
3.03762
3.02359
3.00826
2.99659
2.99041
0.814507
1.03073
1.33054
1.63533
1.92728
2.18754
2.40445
2.57323
2.69318
2.76485
2.7887
2.76485
2.69311
2.57283
2.40312
2.18465
1.92378
1.63657
1.34681
1.08115
0.919025
3.4355
4.61251
4.60471
4.43968
4.21282
3.94718
3.65326
3.33681
3.01561
2.7758
2.76915
2.94493
3.07675
3.11497
3.10476
3.07853
3.05106
3.02939
3.01751
0.813612
1.04437
1.34905
1.65747
1.95158
2.2126
2.42936
2.5977
2.71726
2.7887
2.81247
2.7887
2.7172
2.59731
2.42805
2.20971
1.9481
1.65881
1.3658
1.09584
0.914328
3.27052
4.60309
4.60997
4.44803
4.22414
3.96541
3.68476
3.38578
3.0802
2.86023
2.89231
3.08987
3.21541
3.24201
3.22047
3.18258
3.14363
3.11253
3.09532
0.814545
1.03072
1.33053
1.63532
1.92727
2.18753
2.40444
2.57322
2.69318
2.76485
2.7887
2.76485
2.69311
2.57282
2.40311
2.18464
1.92378
1.63658
1.34684
1.0812
0.91931
3.44184
4.61442
4.60545
4.44121
4.22132
3.97434
3.70997
3.41772
3.09347
2.86821
2.96804
3.22512
3.36429
3.39255
3.37139
3.33277
3.29221
3.25954
3.24148
0.847496
0.992246
1.27662
1.57037
1.85538
2.11281
2.32971
2.49962
2.62071
2.69311
2.7172
2.69311
2.62063
2.4992
2.32836
2.1099
1.85188
1.57135
1.29159
1.03924
0.969456
3.85458
4.6363
4.58989
4.42116
4.20942
3.97692
3.70934
3.33284
2.80817
2.43846
2.59994
3.04693
3.33106
3.44966
3.48987
3.49248
3.47788
3.46042
3.44951
1.13285
0.938753
1.19236
1.46725
1.73942
1.99032
2.20569
2.37662
2.49929
2.57283
2.59731
2.57282
2.4992
2.37617
2.20432
1.98742
1.7359
1.46775
1.20513
0.977183
1.29081
4.27793
4.64809
4.56121
4.39093
4.18821
3.93755
3.50455
2.70412
1.91923
1.52931
1.46499
1.71261
2.1894
2.72484
3.18474
3.48466
3.62564
3.67407
3.68639
2.5428
0.91198
1.08656
1.33383
1.58616
1.82473
2.03471
2.20477
2.32845
2.40312
2.42805
2.40311
2.32836
2.20432
2.03333
1.82189
1.58264
1.3336
1.09626
0.920046
2.58778
4.53927
4.63487
4.51809
4.34462
4.10185
3.61714
2.73654
2.05152
1.69245
1.48637
1.38235
1.33809
1.32027
1.34971
1.56787
2.29736
3.25988
3.7384
3.87122
4.0916
1.31461
0.975857
1.1813
1.40616
1.62507
1.82321
1.98787
2.11
2.18465
2.20971
2.18464
2.1099
1.98742
1.82189
1.62235
1.40261
1.17997
0.981127
1.09501
4.02891
4.63056
4.59158
4.4486
4.21228
3.71747
2.92469
2.38388
2.08346
1.89226
1.78237
1.72468
1.67641
1.61006
1.51957
1.41187
1.31941
1.43951
2.44571
3.41106
4.57732
3.46013
0.946677
1.02721
1.21335
1.40518
1.58386
1.73631
1.85196
1.92378
1.9481
1.92378
1.85188
1.7359
1.58264
1.40261
1.20969
1.02381
0.92663
2.95618
4.53472
4.61682
4.50704
4.28379
3.82284
3.14486
2.68918
2.43779
2.28392
2.20148
2.16737
2.14299
2.09783
2.02013
1.90751
1.7588
1.57461
1.367
1.17635
1.12204
4.6553
4.51038
2.45509
0.927203
1.02785
1.18245
1.33471
1.46809
1.5714
1.63657
1.65881
1.63658
1.57135
1.46775
1.3336
1.17997
1.02381
0.920198
2.13675
4.37689
4.60811
4.5315
4.32823
3.92031
3.33391
2.92901
2.71282
2.59591
2.54998
2.55009
2.55906
2.54746
2.5039
2.42604
2.31186
2.15583
1.95003
1.69533
1.42456
1.23027
4.6076
4.64653
4.4068
2.20809
0.929467
0.983445
1.0973
1.20543
1.29161
1.34681
1.3658
1.34684
1.29159
1.20513
1.09626
0.981127
0.92663
2.13675
4.29034
4.59122
4.53674
4.35312
3.99565
3.47641
3.10632
2.91578
2.8286
2.81597
2.84967
2.89075
2.91049
2.89951
2.85727
2.78399
2.67749
2.53072
2.33105
2.07081
1.78352
1.57851
4.50003
4.58674
4.6474
4.42315
2.92635
1.08282
0.920346
0.97739
1.03922
1.08115
1.09584
1.0812
1.03924
0.977183
0.920046
1.09501
2.95618
4.37689
4.59122
4.53653
4.36388
4.04205
3.57052
3.22844
3.0598
2.99763
3.01389
3.07816
3.14874
3.19658
3.2139
3.20137
3.16029
3.09103
2.99206
2.8574
2.67427
2.43046
2.15396
1.95465
4.35162
4.45883
4.59014
4.64768
4.54809
4.00414
2.54199
1.27877
0.967825
0.919025
0.914328
0.91931
0.969456
1.29081
2.58778
4.02891
4.53472
4.60811
4.53674
4.36388
4.05759
3.61715
3.30012
3.15283
3.11378
3.15619
3.24869
3.34708
3.4216
3.46555
3.48021
3.46693
3.42648
3.35927
3.26458
3.13821
2.96951
2.74609
2.49106
2.30672
4.1708
4.28844
4.45153
4.5751
4.63796
4.63546
4.53192
4.26466
3.84256
3.4355
3.27052
3.44184
3.85458
4.27793
4.53927
4.63056
4.61682
4.5315
4.35312
4.04205
3.61715
3.32377
3.19863
3.18216
3.24913
3.3681
3.49307
3.59358
3.66375
3.70513
3.71887
3.70538
3.66507
3.59846
3.50546
3.38329
3.22351
3.01505
2.77818
2.60757
3.96229
4.08507
4.26598
4.42069
4.52759
4.59685
4.63533
4.64558
4.63317
4.61251
4.60309
4.61442
4.6363
4.64809
4.63487
4.59158
4.50704
4.32823
3.99565
3.57052
3.30012
3.19863
3.20478
3.29521
3.43916
3.58961
3.71549
3.81145
3.87933
3.92004
3.93363
3.9201
3.87974
3.81311
3.7205
3.60005
3.44492
3.24519
3.01922
2.85676
3.72829
3.8532
4.04486
4.21859
4.34746
4.44146
4.51012
4.55806
4.58844
4.60471
4.60997
4.60545
4.58989
4.56121
4.51809
4.4486
4.28379
3.92031
3.47641
3.22844
3.15283
3.18216
3.29521
3.46278
3.63772
3.78834
3.9095
4.00326
4.07046
4.11097
4.12451
4.11103
4.07075
4.00417
3.91164
3.79186
3.63902
3.44389
3.22324
3.06432
3.46779
3.59361
3.79259
3.98011
4.12323
4.23043
4.31209
4.37294
4.41503
4.43968
4.44803
4.44121
4.42116
4.39093
4.34462
4.21228
3.82284
3.33391
3.10632
3.0598
3.11378
3.24913
3.43916
3.63772
3.81258
3.95835
4.07721
4.16999
4.23648
4.27643
4.28976
4.2765
4.23676
4.17077
4.07874
3.95955
3.80802
3.61533
3.39683
3.23885
3.17453
3.30235
3.50876
3.70876
3.86362
3.98004
4.06928
4.13669
4.18418
4.21282
4.22414
4.22132
4.20942
4.18821
4.10185
3.71747
3.14486
2.92901
2.91578
2.99763
3.15619
3.3681
3.58961
3.78834
3.95835
4.10176
4.21931
4.31069
4.37561
4.41428
4.42711
4.41435
4.37586
4.3114
4.22072
4.10263
3.95234
3.76117
3.54333
3.38508
2.83905
2.97261
3.18973
3.40337
3.57012
3.69509
3.79043
3.86252
3.91407
3.94718
3.96541
3.97434
3.97692
3.93755
3.61714
2.92469
2.68918
2.71282
2.8286
3.01389
3.24869
3.49307
3.71549
3.9095
4.07721
4.21931
4.33514
4.42407
4.48627
4.52275
4.53474
4.5228
4.48647
4.42469
4.33645
4.22027
4.07153
3.88166
3.66389
3.50492
2.47904
2.61903
2.84355
3.06567
3.24183
3.37496
3.47664
3.5541
3.61156
3.65326
3.68476
3.70997
3.70934
3.50455
2.73654
2.38388
2.43779
2.59591
2.81597
3.07816
3.34708
3.59358
3.81145
4.00326
4.16999
4.31069
4.42407
4.50958
4.56801
4.60146
4.61226
4.60149
4.56817
4.5101
4.42527
4.3117
4.1649
3.97633
3.75849
3.59875
2.22523
2.34713
2.53785
2.73118
2.89468
3.02595
3.13063
3.21398
3.28088
3.33681
3.38578
3.41772
3.33284
2.70412
2.05152
2.08346
2.28392
2.54998
2.84967
3.14874
3.4216
3.66375
3.87933
4.07046
4.23648
4.37561
4.48627
4.56801
4.62227
4.65232
4.6618
4.65234
4.62238
4.56845
4.48736
4.37665
4.23186
4.04454
3.82668
3.66629
2.34242
2.37338
2.43442
2.51728
2.61
2.70273
2.78974
2.86948
2.94388
3.01561
3.0802
3.09347
2.80817
1.91923
1.69245
1.89226
2.20148
2.55009
2.89075
3.19658
3.46555
3.70513
3.92004
4.11097
4.27643
4.41428
4.52275
4.60146
4.65232
4.67958
4.68796
4.67959
4.6524
4.60184
4.52377
4.41532
4.27209
4.08572
3.86787
3.70706
2.73545
2.68919
2.62262
2.56794
2.54296
2.54842
2.57792
2.62653
2.69304
2.7758
2.86023
2.86821
2.43846
1.52931
1.48637
1.78237
2.16737
2.55906
2.91049
3.2139
3.48021
3.71887
3.93363
4.12451
4.28976
4.42711
4.53474
4.61226
4.6618
4.68796
4.69591
4.68797
4.66187
4.61262
4.53572
4.42815
4.28552
4.0995
3.88167
3.72073
2.96082
2.92687
2.86566
2.79035
2.71711
2.65985
2.62862
2.63188
2.67766
2.76915
2.89231
2.96804
2.59994
1.46499
1.38235
1.72468
2.14299
2.54746
2.89951
3.20137
3.46693
3.70538
3.9201
4.11103
4.2765
4.41435
4.5228
4.60149
4.65234
4.67959
4.68797
4.6796
4.65243
4.60187
4.52381
4.41538
4.27218
4.08583
3.868
3.7072
3.02086
3.00763
2.98177
2.94516
2.90165
2.85766
2.82345
2.81474
2.85074
2.94493
3.08987
3.22512
3.04693
1.71261
1.33809
1.67641
2.09783
2.5039
2.85727
3.16029
3.42648
3.66507
3.87974
4.07075
4.23676
4.37586
4.48647
4.56817
4.62238
4.6524
4.66187
4.65243
4.6225
4.5686
4.48756
4.37691
4.23218
4.04494
3.8271
3.66671
3.02337
3.01969
3.01206
3.00024
2.98443
2.96644
2.95181
2.95296
2.98893
3.07675
3.21541
3.36429
3.33106
2.1894
1.32027
1.61006
2.02013
2.42604
2.78399
3.09103
3.35927
3.59846
3.81311
4.00417
4.17077
4.3114
4.42469
4.5101
4.56845
4.60184
4.61262
4.60187
4.5686
4.51063
4.4259
4.31245
4.16579
3.97732
3.75953
3.59979
3.01415
3.0137
3.01249
3.00999
3.00572
3.00006
2.99613
3.00296
3.03677
3.11497
3.24201
3.39255
3.44966
2.72484
1.34971
1.51957
1.90751
2.31186
2.67749
2.99206
3.26458
3.50546
3.7205
3.91164
4.07874
4.22072
4.33645
4.42527
4.48736
4.52377
4.53572
4.52381
4.48756
4.4259
4.3378
4.22177
4.07316
3.88334
3.6656
3.5067
3.00648
3.00678
3.00714
3.00712
3.00619
3.00424
3.00314
3.00962
3.03762
3.10476
3.22047
3.37139
3.48987
3.18474
1.56787
1.41187
1.7588
2.15583
2.53072
2.8574
3.13821
3.38329
3.60005
3.79186
3.95955
4.10263
4.22027
4.3117
4.37665
4.41532
4.42815
4.41538
4.37691
4.31245
4.22177
4.10361
3.9531
3.76164
3.54386
3.38595
3.00232
3.0026
3.00303
3.00326
3.00282
3.00139
2.99993
3.00336
3.02359
3.07853
3.18258
3.33277
3.49248
3.48466
2.29736
1.31941
1.57461
1.95003
2.33105
2.67427
2.96951
3.22351
3.44492
3.63902
3.80802
3.95234
4.07153
4.1649
4.23186
4.27209
4.28552
4.27218
4.23218
4.16579
4.07316
3.9531
3.80042
3.6067
3.38839
3.23136
3.00059
3.00074
3.00095
3.00097
3.00038
2.99867
2.99611
2.99597
3.00826
3.05106
3.14363
3.29221
3.47788
3.62564
3.25988
1.43951
1.367
1.69533
2.07081
2.43046
2.74609
3.01505
3.24519
3.44389
3.61533
3.76117
3.88166
3.97633
4.04454
4.08572
4.0995
4.08583
4.04494
3.97732
3.88334
3.76164
3.6067
3.41004
3.18923
3.03068
3.00005
3.0001
3.00016
3.00001
2.99926
2.99728
2.99377
2.99076
2.99659
3.02939
3.11253
3.25954
3.46042
3.67407
3.7384
2.44571
1.17635
1.42456
1.78352
2.15396
2.49106
2.77818
3.01922
3.22324
3.39683
3.54333
3.66389
3.75849
3.82668
3.86787
3.88167
3.868
3.8271
3.75953
3.6656
3.54386
3.38839
3.18923
2.96146
2.79461
2.99992
2.99994
2.99993
2.99972
2.99891
2.9968
2.9928
2.9882
2.99041
3.01751
3.09532
3.24148
3.44951
3.68639
3.87122
3.41106
1.12204
1.23027
1.57851
1.95465
2.30672
2.60757
2.85676
3.06432
3.23885
3.38508
3.50492
3.59875
3.66629
3.70706
3.72073
3.7072
3.66671
3.59979
3.5067
3.38595
3.23136
3.03068
2.79461
2.61873
