# vtk DataFile Version 3.0
Brusselator Concentration Output
ASCII
DATASET STRUCTURED_POINTS
DIMENSIONS 40 40 1
ORIGIN 0.0 0.0 0.0
SPACING 0.005 0.005 1.0
POINT_DATA 1600
SCALARS C1 double 1
LOOKUP_TABLE default
0.462468
0.499149
0.587117
0.804844
1.51425
3.34493
3.91671
3.56795
3.27177
3.09521
3.03719
3.09529
3.27214
3.56922
3.91892
3.32521
1.50794
0.817126
0.608036
0.521246
0.470501
0.436087
0.412695
0.40006
0.402874
0.434941
0.527269
0.728903
1.05352
1.33719
1.29865
1.12294
1.02823
0.998214
0.993304
0.995188
0.997592
0.999068
0.999733
0.999957
0.499149
0.560762
0.797132
1.79062
3.60737
3.29591
2.88907
2.58906
2.38313
2.26317
2.2238
2.26322
2.3834
2.59007
2.892
3.30324
3.61162
1.83873
0.847313
0.593882
0.506896
0.459592
0.429416
0.412236
0.410821
0.436512
0.515553
0.690158
0.976145
1.25127
1.27875
1.13822
1.04023
1.00348
0.995068
0.995599
0.997607
0.999025
0.999713
0.999956
0.587117
0.797132
2.04483
3.54688
2.90587
2.45969
2.12233
1.87904
1.71504
1.62047
1.58958
1.62051
1.71528
1.87993
2.12487
2.46551
2.91619
3.54716
2.27334
0.890011
0.597257
0.507233
0.460669
0.433794
0.423969
0.437932
0.494416
0.626068
0.855241
1.1183
1.23588
1.16019
1.06178
1.01356
0.998589
0.996509
0.997732
0.99902
0.999738
1.00001
0.804844
1.79062
3.54688
2.79714
2.27921
1.88968
1.60349
1.39941
1.26344
1.18588
1.16072
1.18593
1.26366
1.4002
1.60571
1.89453
2.28649
2.80147
3.49839
2.16524
0.83245
0.582002
0.500689
0.458566
0.43743
0.437676
0.470762
0.561179
0.737409
0.983159
1.17299
1.17677
1.08825
1.0274
1.00375
0.99803
0.99812
0.999202
0.999953
1.00027
1.51425
3.60737
2.90587
2.27921
1.81834
1.48174
1.23787
1.06735
0.956208
0.893999
0.874037
0.894041
0.956405
1.06803
1.23976
1.48572
1.82374
2.27778
2.87246
3.61873
1.55866
0.714312
0.548033
0.48351
0.449883
0.43785
0.452792
0.512957
0.648111
0.870025
1.09988
1.17909
1.11362
1.04301
1.00998
1.00005
0.998826
0.999706
1.00054
1.00094
3.34493
3.29591
2.45969
1.88968
1.48174
1.18832
0.981069
0.840697
0.752052
0.703645
0.68832
0.703682
0.752221
0.841281
0.982651
1.19154
1.48563
1.88623
2.42272
3.12744
3.13207
1.00104
0.610556
0.509716
0.462648
0.440501
0.442781
0.48269
0.587738
0.783193
1.02641
1.16432
1.1313
1.05683
1.01554
1.00162
0.99932
1.00029
1.00147
1.0021
3.91671
2.88907
2.12233
1.60349
1.23787
0.981069
0.805815
0.691541
0.621813
0.584692
0.573098
0.584724
0.621957
0.69203
0.80713
0.983683
1.24059
1.59843
2.08296
2.72626
3.58838
1.57121
0.703333
0.538673
0.476184
0.445393
0.438657
0.464868
0.548024
0.718407
0.958325
1.13391
1.13468
1.06296
1.01639
0.999854
0.997484
0.999424
1.00165
1.00289
3.56795
2.58906
1.87904
1.39941
1.06735
0.840697
0.691541
0.597791
0.542354
0.513501
0.504597
0.51353
0.542476
0.598205
0.692644
0.842838
1.06921
1.39313
1.83829
2.43733
3.26063
2.45283
0.838476
0.57014
0.489565
0.451119
0.437671
0.454314
0.521531
0.670343
0.898481
1.09193
1.11871
1.05374
1.00593
0.989234
0.988537
0.992924
0.997368
0.999908
3.27177
2.38313
1.71504
1.26344
0.956208
0.752052
0.621813
0.542354
0.496522
0.473095
0.465935
0.473121
0.496629
0.542713
0.622767
0.753864
0.957498
1.25636
1.6736
2.23984
2.99984
3.22813
1.00312
0.600906
0.501052
0.456142
0.437772
0.447832
0.503956
0.636347
0.850972
1.04674
1.08444
1.02462
0.978426
0.963684
0.965937
0.973719
0.98114
0.985419
3.09521
2.26317
1.62047
1.18588
0.893999
0.703645
0.584692
0.513501
0.473095
0.452687
0.446489
0.45271
0.473195
0.51383
0.585558
0.705265
0.89496
1.17835
1.57875
2.12521
2.85485
3.52208
1.14259
0.624201
0.508666
0.459307
0.437963
0.444431
0.494926
0.619489
0.826974
1.01575
1.04501
0.982159
0.936592
0.923054
0.926611
0.935781
0.944419
0.949409
3.03719
2.2238
1.58958
1.16072
0.874037
0.68832
0.573098
0.504597
0.465935
0.446489
0.440598
0.446512
0.466032
0.504915
0.573935
0.689876
0.874888
1.15304
1.54778
2.08765
2.80842
3.57361
1.19619
0.632424
0.510974
0.460364
0.438863
0.446332
0.500775
0.636079
0.858433
1.03911
1.03513
0.952367
0.899295
0.880407
0.878342
0.881991
0.886074
0.888445
3.09529
2.26322
1.62051
1.18593
0.894041
0.703682
0.584724
0.51353
0.473121
0.45271
0.446512
0.452734
0.47322
0.513858
0.585589
0.705296
0.894987
1.17837
1.57874
2.12521
2.85499
3.51928
1.13848
0.622619
0.508278
0.461026
0.444624
0.463837
0.547956
0.747296
1.05214
1.24694
1.16653
1.01439
0.920344
0.872072
0.845747
0.829769
0.819724
0.814605
3.27214
2.3834
1.71528
1.26366
0.956405
0.752221
0.621957
0.542476
0.496629
0.473195
0.466032
0.47322
0.496737
0.542835
0.622905
0.754018
0.957658
1.25652
1.67378
2.2402
3.00108
3.21609
0.996839
0.599891
0.504232
0.467745
0.469887
0.533797
0.724173
1.10953
1.60015
1.91876
1.81017
1.4832
1.21613
1.02965
0.901695
0.820302
0.774321
0.753771
3.56922
2.59007
1.87993
1.4002
1.06803
0.841281
0.69203
0.598205
0.542713
0.51383
0.504915
0.513858
0.542835
0.598613
0.693119
0.843388
1.06984
1.39387
1.8393
2.43913
3.26588
2.42843
0.835333
0.576322
0.508804
0.499158
0.555227
0.730443
1.05554
1.40681
1.77348
2.11973
2.34823
2.40314
2.23781
1.84038
1.36982
1.01335
0.822584
0.749844
3.91892
2.892
2.12487
1.60571
1.23976
0.982651
0.80713
0.692644
0.622767
0.585558
0.573935
0.585589
0.622905
0.693119
0.808411
0.985207
1.24243
1.60079
2.08644
2.7322
3.59862
1.55872
0.714208
0.568889
0.542869
0.587156
0.711225
0.852793
0.966774
1.16035
1.38906
1.58321
1.72547
1.85669
2.02591
2.25106
2.41407
2.02555
1.33828
1.00308
3.32521
3.30324
2.46551
1.89453
1.48572
1.19154
0.983683
0.842838
0.753864
0.705265
0.689876
0.705296
0.754018
0.843388
0.985207
1.19473
1.48975
1.892
2.43185
3.14491
3.11746
1.01994
0.656252
0.597091
0.618502
0.669214
0.670489
0.684185
0.76607
0.889244
1.00856
1.09883
1.1738
1.26493
1.3985
1.59649
1.88665
2.311
2.73714
2.53087
1.50794
3.61162
2.91619
2.28649
1.82374
1.48563
1.24059
1.06921
0.957498
0.89496
0.874888
0.894987
0.957658
1.06984
1.24243
1.48975
1.83005
2.28829
2.89154
3.64419
1.60654
0.784562
0.659465
0.648031
0.631938
0.565374
0.534877
0.555266
0.609717
0.671607
0.72063
0.756396
0.795108
0.854551
0.949611
1.09791
1.32501
1.66091
2.11162
2.55422
0.817126
1.83873
3.54716
2.80147
2.27778
1.88623
1.59843
1.39313
1.25636
1.17835
1.15304
1.17837
1.25652
1.39387
1.60079
1.892
2.28829
2.81412
3.51675
2.31692
0.949463
0.724836
0.676454
0.610643
0.512924
0.462187
0.455257
0.474022
0.502037
0.525813
0.540744
0.553018
0.572429
0.607311
0.66651
0.763873
0.921361
1.16355
1.48318
1.76059
0.608036
0.847313
2.27334
3.49839
2.87246
2.42272
2.08296
1.83829
1.6736
1.57875
1.54778
1.57874
1.67378
1.8393
2.08644
2.43185
2.89154
3.51675
2.62568
1.08267
0.779229
0.701152
0.602399
0.488606
0.428736
0.410274
0.413215
0.425072
0.436729
0.443301
0.446175
0.450122
0.459405
0.477704
0.510314
0.566922
0.663962
0.820122
1.02711
1.20105
0.521246
0.593882
0.890011
2.16524
3.61873
3.12744
2.72626
2.43733
2.23984
2.12521
2.08765
2.12521
2.2402
2.43913
2.7322
3.14491
3.64419
2.31692
1.08267
0.801196
0.716141
0.600838
0.478359
0.414077
0.390677
0.387034
0.392101
0.398992
0.403287
0.40436
0.40436
0.405525
0.409427
0.417823
0.43387
0.463626
0.51751
0.607249
0.726897
0.825593
0.470501
0.506896
0.597257
0.83245
1.55866
3.13207
3.58838
3.26063
2.99984
2.85485
2.80842
2.85499
3.00108
3.26588
3.59862
3.11746
1.60654
0.949463
0.779229
0.716141
0.60094
0.474834
0.408222
0.38257
0.376223
0.378731
0.384295
0.388888
0.391007
0.391426
0.391315
0.391393
0.392247
0.39488
0.40126
0.415031
0.442112
0.488464
0.549631
0.598792
0.436087
0.459592
0.507233
0.582002
0.714312
1.00104
1.57121
2.45283
3.22813
3.52208
3.57361
3.51928
3.21609
2.42843
1.55872
1.01994
0.784562
0.724836
0.701152
0.600838
0.474834
0.406698
0.379722
0.372147
0.373792
0.379433
0.38532
0.389536
0.392076
0.393425
0.393797
0.393271
0.392139
0.391138
0.391641
0.395916
0.407173
0.427887
0.454809
0.475674
0.412695
0.429416
0.460669
0.500689
0.548033
0.610556
0.703333
0.838476
1.00312
1.14259
1.19619
1.13848
0.996839
0.835333
0.714208
0.656252
0.659465
0.676454
0.602399
0.478359
0.408222
0.379722
0.37113
0.372295
0.378312
0.385658
0.392252
0.397638
0.401811
0.404537
0.405466
0.404443
0.401715
0.397981
0.394393
0.392529
0.394147
0.400004
0.408075
0.414138
0.40006
0.412236
0.433794
0.458566
0.48351
0.509716
0.538673
0.57014
0.600906
0.624201
0.632424
0.622619
0.599891
0.576322
0.568889
0.597091
0.648031
0.610643
0.488606
0.414077
0.38257
0.372147
0.372295
0.378202
0.386542
0.395228
0.403583
0.411285
0.417716
0.422042
0.423562
0.422005
0.417671
0.411388
0.404342
0.397854
0.392977
0.389757
0.387278
0.385653
0.402874
0.410821
0.423969
0.43743
0.449883
0.462648
0.476184
0.489565
0.501052
0.508666
0.510974
0.508278
0.504232
0.508804
0.542869
0.618502
0.631938
0.512924
0.428736
0.390677
0.376223
0.373792
0.378312
0.386542
0.396437
0.407232
0.418467
0.42931
0.438532
0.444785
0.447003
0.444781
0.438552
0.429438
0.418895
0.408273
0.398346
0.388936
0.380032
0.374133
0.434941
0.436512
0.437932
0.437676
0.43785
0.440501
0.445393
0.451119
0.456142
0.459307
0.460364
0.461026
0.467745
0.499158
0.587156
0.669214
0.565374
0.462187
0.410274
0.387034
0.378731
0.379433
0.385658
0.395228
0.407232
0.421132
0.436096
0.450805
0.463488
0.472186
0.475297
0.472201
0.463554
0.451002
0.436515
0.421699
0.40728
0.393066
0.37973
0.371143
0.527269
0.515553
0.494416
0.470762
0.452792
0.442781
0.438657
0.437671
0.437772
0.437963
0.438863
0.444624
0.469887
0.555227
0.711225
0.670489
0.534877
0.455257
0.413215
0.392101
0.384295
0.38532
0.392252
0.403583
0.418467
0.436096
0.455372
0.474653
0.491599
0.50342
0.507691
0.503446
0.491699
0.474915
0.455856
0.436563
0.417835
0.399515
0.382756
0.372247
0.728903
0.690158
0.626068
0.561179
0.512957
0.48269
0.464868
0.454314
0.447832
0.444431
0.446332
0.463837
0.533797
0.730443
0.852793
0.684185
0.555266
0.474022
0.425072
0.398992
0.388888
0.389536
0.397638
0.411285
0.42931
0.450805
0.474653
0.499011
0.520917
0.536499
0.542194
0.536534
0.521044
0.499329
0.475206
0.451269
0.428419
0.406503
0.386965
0.374979
1.05352
0.976145
0.855241
0.737409
0.648111
0.587738
0.548024
0.521531
0.503956
0.494926
0.500775
0.547956
0.724173
1.05554
0.966774
0.76607
0.609717
0.502037
0.436729
0.403287
0.391007
0.392076
0.401811
0.417716
0.438532
0.463488
0.491599
0.520917
0.547874
0.567409
0.574626
0.567452
0.548025
0.521284
0.492213
0.463966
0.437514
0.412648
0.390949
0.377855
1.33719
1.25127
1.1183
0.983159
0.870025
0.783193
0.718407
0.670343
0.636347
0.619489
0.636079
0.747296
1.10953
1.40681
1.16035
0.889244
0.671607
0.525813
0.443301
0.40436
0.391426
0.393425
0.404537
0.422042
0.444785
0.472186
0.50342
0.536499
0.567409
0.590115
0.598568
0.590164
0.567578
0.5369
0.504074
0.472675
0.443695
0.416844
0.393739
0.37994
1.29865
1.27875
1.23588
1.17299
1.09988
1.02641
0.958325
0.898481
0.850972
0.826974
0.858433
1.05214
1.60015
1.77348
1.38906
1.00856
0.72063
0.540744
0.446175
0.40436
0.391315
0.393797
0.405466
0.423562
0.447003
0.475297
0.507691
0.542194
0.574626
0.598568
0.607507
0.598619
0.574801
0.542608
0.50836
0.475791
0.445892
0.418336
0.394738
0.380694
1.12294
1.13822
1.16019
1.17677
1.17909
1.16432
1.13391
1.09193
1.04674
1.01575
1.03911
1.24694
1.91876
2.11973
1.58321
1.09883
0.756396
0.553018
0.450122
0.405525
0.391393
0.393271
0.404443
0.422005
0.444781
0.472201
0.503446
0.536534
0.567452
0.590164
0.598619
0.590212
0.56762
0.536935
0.504102
0.472697
0.443713
0.416858
0.393748
0.379946
1.02823
1.04023
1.06178
1.08825
1.11362
1.1313
1.13468
1.11871
1.08444
1.04501
1.03513
1.16653
1.81017
2.34823
1.72547
1.1738
0.795108
0.572429
0.459405
0.409427
0.392247
0.392139
0.401715
0.417671
0.438552
0.463554
0.491699
0.521044
0.548025
0.567578
0.574801
0.56762
0.548175
0.521413
0.492321
0.464057
0.43759
0.412709
0.390995
0.377891
0.998214
1.00348
1.01356
1.0274
1.04301
1.05683
1.06296
1.05374
1.02462
0.982159
0.952367
1.01439
1.4832
2.40314
1.85669
1.26493
0.854551
0.607311
0.477704
0.417823
0.39488
0.391138
0.397981
0.411388
0.429438
0.451002
0.474915
0.499329
0.521284
0.5369
0.542608
0.536935
0.521413
0.499657
0.475495
0.451525
0.428645
0.406697
0.387127
0.375121
0.993304
0.995068
0.998589
1.00375
1.00998
1.01554
1.01639
1.00593
0.978426
0.936592
0.899295
0.920344
1.21613
2.23781
2.02591
1.3985
0.949611
0.66651
0.510314
0.43387
0.40126
0.391641
0.394393
0.404342
0.418895
0.436515
0.455856
0.475206
0.492213
0.504074
0.50836
0.504102
0.492321
0.475495
0.4564
0.437081
0.418334
0.399992
0.383209
0.372687
0.995188
0.995599
0.996509
0.99803
1.00005
1.00162
0.999854
0.989234
0.963684
0.923054
0.880407
0.872072
1.02965
1.84038
2.25106
1.59649
1.09791
0.763873
0.566922
0.463626
0.415031
0.395916
0.392529
0.397854
0.408273
0.421699
0.436563
0.451269
0.463966
0.472675
0.475791
0.472697
0.464057
0.451525
0.437081
0.422337
0.408021
0.393938
0.380745
0.372262
0.997592
0.997607
0.997732
0.99812
0.998826
0.99932
0.997484
0.988537
0.965937
0.926611
0.878342
0.845747
0.901695
1.36982
2.41407
1.88665
1.32501
0.921361
0.663962
0.51751
0.442112
0.407173
0.394147
0.392977
0.398346
0.40728
0.417835
0.428419
0.437514
0.443695
0.445892
0.443713
0.43759
0.428645
0.418334
0.408021
0.398524
0.389721
0.381549
0.376197
0.999068
0.999025
0.99902
0.999202
0.999706
1.00029
0.999424
0.992924
0.973719
0.935781
0.881991
0.829769
0.820302
1.01335
2.02555
2.311
1.66091
1.16355
0.820122
0.607249
0.488464
0.427887
0.400004
0.389757
0.388936
0.393066
0.399515
0.406503
0.412648
0.416844
0.418336
0.416858
0.412709
0.406697
0.399992
0.393938
0.389721
0.387622
0.386719
0.38637
0.999733
0.999713
0.999738
0.999953
1.00054
1.00147
1.00165
0.997368
0.98114
0.944419
0.886074
0.819724
0.774321
0.822584
1.33828
2.73714
2.11162
1.48318
1.02711
0.726897
0.549631
0.454809
0.408075
0.387278
0.380032
0.37973
0.382756
0.386965
0.390949
0.393739
0.394738
0.393748
0.390995
0.387127
0.383209
0.380745
0.381549
0.386719
0.394619
0.400807
0.999957
0.999956
1.00001
1.00027
1.00094
1.0021
1.00289
0.999908
0.985419
0.949409
0.888445
0.814605
0.753771
0.749844
1.00308
2.53087
2.55422
1.76059
1.20105
0.825593
0.598792
0.475674
0.414138
0.385653
0.374133
0.371143
0.372247
0.374979
0.377855
0.37994
0.380694
0.379946
0.377891
0.375121
0.372687
0.372262
0.376197
0.38637
0.400807
0.412144
SCALARS C2 double 1
LOOKUP_TABLE default
4.41612
4.52515
4.63687
4.60939
4.09219
2.07168
0.890186
0.82205
0.862823
0.898864
0.912085
0.898852
0.862775
0.822035
0.892527
2.09892
4.09817
4.60227
4.64639
4.57222
4.44214
4.27348
4.07405
3.84784
3.59566
3.31373
2.99322
2.63729
2.32895
2.29749
2.62591
2.90715
3.00537
3.02134
3.01544
3.00785
3.00312
3.00094
3.00016
2.99995
4.52515
4.60469
4.6018
3.80685
1.34821
0.913958
0.972967
1.05731
1.12835
1.17462
1.19063
1.17461
1.12826
1.05702
0.972298
0.913255
1.35196
3.7553
4.58157
4.63162
4.53609
4.38282
4.19092
3.96803
3.71703
3.43623
3.1195
2.7702
2.45608
2.36355
2.59935
2.87019
2.98811
3.0157
3.01425
3.00793
3.00336
3.00109
3.00022
2.99997
4.63687
4.6018
3.53597
1.02386
0.976077
1.10368
1.23705
1.35523
1.44726
1.50552
1.52545
1.5055
1.44714
1.35482
1.23597
1.10159
0.972719
1.00471
3.27263
4.55916
4.63266
4.52829
4.36034
4.15099
3.90825
3.63407
3.32602
2.98613
2.65747
2.47284
2.56829
2.80691
2.95525
3.00439
3.01159
3.00784
3.00367
3.00127
3.00025
2.99994
4.60939
3.80685
1.02386
1.00355
1.17012
1.3472
1.5127
1.6543
1.76211
1.8293
1.85209
1.82928
1.76198
1.65381
1.51139
1.34465
1.1668
1.00041
0.974067
3.38686
4.58602
4.62312
4.50019
4.31488
4.0879
3.82632
3.53101
3.20209
2.86089
2.59639
2.55551
2.73535
2.9107
2.98762
3.00706
3.00713
3.0037
3.00121
3.00003
2.99963
4.09219
1.34821
0.976077
1.17012
1.38462
1.59274
1.78086
1.93736
2.05373
2.12501
2.14897
2.12499
2.0536
1.93685
1.77943
1.58994
1.38117
1.16924
0.981536
1.10815
4.01373
4.63076
4.58907
4.43405
4.22444
3.97559
3.69205
3.37377
3.02936
2.71572
2.56909
2.67365
2.86086
2.9665
3.00048
3.0054
3.003
3.00046
2.99911
2.99862
2.07168
0.913958
1.10368
1.3472
1.59274
1.82302
2.02476
2.18786
2.30646
2.3781
2.40202
2.37808
2.30634
2.18735
2.02331
1.82012
1.58929
1.3474
1.1145
0.932677
2.14092
4.48097
4.63364
4.51792
4.32573
4.08766
3.81295
3.50315
3.16144
2.82357
2.60507
2.63408
2.81468
2.94428
2.99296
3.00299
3.00152
2.9987
2.99695
2.99625
0.890186
0.972967
1.23705
1.5127
1.78086
2.02476
2.23217
2.39596
2.51326
2.58353
2.60693
2.58352
2.51315
2.39549
2.23076
2.02186
1.77749
1.51378
1.25159
1.01713
1.02091
3.97666
4.63279
4.57541
4.40173
4.17315
3.90511
3.60173
3.26503
2.91849
2.65675
2.62317
2.78412
2.92866
2.98914
3.00283
3.00109
2.99686
2.9938
2.99238
0.82205
1.05731
1.35523
1.6543
1.93736
2.18786
2.39596
2.55779
2.67284
2.7416
2.76447
2.74159
2.67276
2.55736
2.3946
2.18501
1.9341
1.65609
1.37278
1.10915
0.918731
2.97108
4.57824
4.61109
4.45726
4.23734
3.97469
3.67675
3.34676
3.00196
2.72021
2.6454
2.78463
2.93397
2.99991
3.01335
3.00816
2.9997
2.99312
2.98972
0.862823
1.12835
1.44726
1.76211
2.05373
2.30646
2.51326
2.67284
2.78605
2.85373
2.87627
2.85373
2.78598
2.67245
2.51196
2.30367
2.05055
1.76443
1.46704
1.18436
0.949524
1.94103
4.47451
4.62928
4.49487
4.28234
4.02441
3.73243
3.41202
3.07725
2.79431
2.70391
2.83156
2.97874
3.04199
3.04938
3.03603
3.01911
3.00556
2.99823
0.898864
1.17462
1.50552
1.8293
2.12501
2.3781
2.58353
2.7416
2.85373
2.92084
2.9432
2.92084
2.85367
2.74122
2.58227
2.37534
2.12189
1.83193
1.52666
1.23296
0.980955
1.4416
4.36552
4.63608
4.51655
4.30942
4.05638
3.77284
3.46612
3.14689
2.87522
2.795
2.93065
3.07488
3.12945
3.12642
3.10167
3.07347
3.05064
3.03804
0.912085
1.19063
1.52545
1.85209
2.14897
2.40202
2.60693
2.76447
2.87627
2.9432
2.96552
2.94321
2.87621
2.76411
2.60568
2.39928
2.14587
1.85482
1.54706
1.24974
0.992642
1.3193
4.31963
4.63793
4.52397
4.32022
4.07398
3.8031
3.51217
3.20351
2.93944
2.88995
3.06078
3.21085
3.25873
3.24766
3.21468
3.17847
3.14915
3.13293
0.898852
1.17461
1.5055
1.82928
2.12499
2.37808
2.58352
2.74159
2.85373
2.92084
2.94321
2.92084
2.85366
2.74122
2.58226
2.37533
2.12188
1.83194
1.52669
1.23298
0.98097
1.44704
4.37011
4.63746
4.51824
4.31753
4.08211
3.82571
3.53552
3.186
2.86617
2.84815
3.11104
3.31424
3.38481
3.38714
3.36336
3.33333
3.30797
3.29377
0.862775
1.12826
1.44714
1.76198
2.0536
2.30634
2.51315
2.67276
2.78598
2.85367
2.87621
2.85366
2.7859
2.67236
2.51186
2.30357
2.05046
1.76436
1.46698
1.18428
0.949434
1.95977
4.48138
4.63119
4.50025
4.3051
4.08114
3.81334
3.40877
2.78439
2.22909
2.14368
2.54619
3.00524
3.27848
3.41919
3.48439
3.50638
3.50865
3.50642
0.822035
1.05702
1.35482
1.65381
1.93685
2.18735
2.39549
2.55736
2.67245
2.74122
2.76411
2.74122
2.67236
2.55694
2.39414
2.18454
1.93365
1.65567
1.37235
1.10866
0.918753
3.00436
4.58243
4.61229
4.47033
4.27822
4.02376
3.55938
2.71763
1.95835
1.56216
1.38956
1.39475
1.58705
2.00508
2.62487
3.20945
3.55123
3.68664
3.72699
0.892527
0.972298
1.23597
1.51139
1.77943
2.02331
2.23076
2.3946
2.51196
2.58227
2.60568
2.58226
2.51186
2.39414
2.22938
2.02048
1.77615
1.51245
1.25019
1.0156
1.02765
3.99417
4.6276
4.57368
4.41603
4.16865
3.66757
2.83032
2.21757
1.8802
1.66921
1.54624
1.47768
1.42563
1.37845
1.37874
1.62785
2.53566
3.4551
3.78391
2.09892
0.913255
1.10159
1.34465
1.58994
1.82012
2.02186
2.18501
2.30367
2.37534
2.39928
2.37533
2.30357
2.18454
2.02048
1.81731
1.5865
1.34454
1.11138
0.929383
2.17557
4.46495
4.61023
4.49632
4.26099
3.77672
3.05524
2.56189
2.28114
2.09756
1.98431
1.91872
1.86372
1.79112
1.69072
1.5628
1.41716
1.30299
1.49322
2.25634
4.09817
1.35196
0.972719
1.1668
1.38117
1.58929
1.77749
1.9341
2.05055
2.12189
2.14587
2.12188
2.05046
1.93365
1.77615
1.5865
1.37741
1.16488
0.975785
1.10578
3.96537
4.57603
4.52609
4.31638
3.88962
3.27981
2.8546
2.61726
2.4734
2.39459
2.35903
2.3329
2.28787
2.21127
2.09868
1.94601
1.74959
1.51624
1.27628
1.10425
4.60227
3.7553
1.00471
1.00041
1.16924
1.3474
1.51378
1.65609
1.76443
1.83193
1.85482
1.83194
1.76436
1.65567
1.51245
1.34454
1.16488
0.994972
0.955721
3.21562
4.48212
4.51909
4.34611
3.98923
3.46464
3.0815
2.87348
2.76315
2.72073
2.72075
2.72866
2.71744
2.67628
2.60264
2.49391
2.34318
2.13969
1.88087
1.6027
1.40716
4.64639
4.58157
3.27263
0.974067
0.981536
1.1145
1.25159
1.37278
1.46704
1.52666
1.54706
1.52669
1.46698
1.37235
1.25019
1.11138
0.975785
0.955721
2.85433
4.38966
4.4972
4.35855
4.0634
3.60232
3.24998
3.06414
2.9802
2.96894
3.00162
3.04089
3.05973
3.04938
3.00943
2.94023
2.83984
2.70133
2.51143
2.26055
1.98149
1.78351
4.57222
4.63162
4.55916
3.38686
1.10815
0.932677
1.01713
1.10915
1.18436
1.23296
1.24974
1.23298
1.18428
1.10866
1.0156
0.929383
1.10578
3.21562
4.38966
4.48581
4.3618
4.10791
3.6929
3.36675
3.20104
3.14015
3.15609
3.21829
3.28633
3.33243
3.34914
3.33713
3.29774
3.23151
3.13724
3.00961
2.83669
2.60674
2.34663
2.16045
4.44214
4.53609
4.63266
4.58602
4.01373
2.14092
1.02091
0.918731
0.949524
0.980955
0.992642
0.98097
0.949434
0.918753
1.02765
2.17557
3.96537
4.48212
4.4972
4.3618
4.1226
3.7377
3.43559
3.29021
3.25127
3.29229
3.38186
3.47709
3.54928
3.59189
3.60611
3.59325
3.55411
3.48917
3.39792
3.2767
3.1159
2.90457
2.66561
2.49465
4.27348
4.38282
4.52829
4.62312
4.63076
4.48097
3.97666
2.97108
1.94103
1.4416
1.3193
1.44704
1.95977
3.00436
3.99417
4.46495
4.57603
4.51909
4.35855
4.10791
3.7377
3.45835
3.3343
3.31711
3.38188
3.4972
3.61836
3.71591
3.78403
3.8242
3.83753
3.82446
3.78536
3.72075
3.63059
3.51241
3.35849
3.15909
2.93456
2.77421
4.07405
4.19092
4.36034
4.50019
4.58907
4.63364
4.63279
4.57824
4.47451
4.36552
4.31963
4.37011
4.48138
4.58243
4.6276
4.61023
4.52609
4.34611
4.0634
3.6929
3.43559
3.3343
3.33895
3.42644
3.56605
3.71201
3.83419
3.92726
3.99299
4.03235
4.04548
4.03242
3.9934
3.9289
3.83911
3.72226
3.57194
3.37918
3.16235
3.00723
3.84784
3.96803
4.15099
4.31488
4.43405
4.51792
4.57541
4.61109
4.62928
4.63608
4.63793
4.63746
4.63119
4.61229
4.57368
4.49632
4.31638
3.98923
3.60232
3.36675
3.29021
3.31711
3.42644
3.58897
3.75871
3.90484
4.02215
4.11261
4.1772
4.216
4.22895
4.21607
4.17748
4.11349
4.02422
3.90825
3.75999
3.57087
3.3576
3.20429
3.59566
3.71703
3.90825
4.0879
4.22444
4.32573
4.40173
4.45726
4.49487
4.51655
4.52397
4.51824
4.50025
4.47033
4.41603
4.26099
3.88962
3.46464
3.24998
3.20104
3.25127
3.38188
3.56605
3.75871
3.92833
4.06933
4.18367
4.2723
4.33537
4.37301
4.38552
4.37308
4.33563
4.27305
4.1851
4.0704
3.92384
3.73703
3.52525
3.3721
3.31373
3.43623
3.63407
3.82632
3.97559
4.08766
4.17315
4.23734
4.28234
4.30942
4.32022
4.31753
4.3051
4.27822
4.16865
3.77672
3.27981
3.0815
3.06414
3.14015
3.29229
3.4972
3.71201
3.90484
4.06933
4.20718
4.31913
4.40509
4.46534
4.50077
4.51244
4.50083
4.46557
4.40574
4.32042
4.20793
4.0634
3.87854
3.66741
3.51378
2.99322
3.1195
3.32602
3.53101
3.69205
3.81295
3.90511
3.97469
4.02441
4.05638
4.07398
4.08211
4.08114
4.02376
3.66757
3.05524
2.8546
2.87348
2.9802
3.15609
3.38186
3.61836
3.83419
4.02215
4.18367
4.31913
4.42787
4.50966
4.56544
4.59734
4.60764
4.59738
4.56561
4.5102
4.42904
4.31993
4.1781
3.99529
3.78459
3.63033
2.63729
2.7702
2.98613
3.20209
3.37377
3.50315
3.60173
3.67675
3.73243
3.77284
3.8031
3.82571
3.81334
3.55938
2.83032
2.56189
2.61726
2.76315
2.96894
3.21829
3.47709
3.71591
3.92726
4.11261
4.2723
4.40509
4.50966
4.58589
4.63567
4.66275
4.67119
4.66277
4.63578
4.58631
4.51068
4.40593
4.26735
4.08676
3.87653
3.72171
2.32895
2.45608
2.65747
2.86089
3.02936
3.16144
3.26503
3.34676
3.41202
3.46612
3.51217
3.53552
3.40877
2.71763
2.21757
2.28114
2.4734
2.72073
3.00162
3.28633
3.54928
3.78403
3.99299
4.1772
4.33537
4.46534
4.56544
4.63567
4.67882
4.7005
4.70682
4.7005
4.67888
4.63598
4.56632
4.46619
4.33091
4.15244
3.94273
3.78749
2.29749
2.36355
2.47284
2.59639
2.71572
2.82357
2.91849
3.00196
3.07725
3.14689
3.20351
3.186
2.78439
1.95835
1.8802
2.09756
2.39459
2.72075
3.04089
3.33243
3.59189
3.8242
4.03235
4.216
4.37301
4.50077
4.59734
4.66275
4.7005
4.71769
4.72224
4.71769
4.70052
4.66298
4.59812
4.50161
4.36885
4.19197
3.98267
3.82719
2.62591
2.59935
2.56829
2.55551
2.56909
2.60507
2.65675
2.72021
2.79431
2.87522
2.93944
2.86617
2.22909
1.56216
1.66921
1.98431
2.35903
2.72866
3.05973
3.34914
3.60611
3.83753
4.04548
4.22895
4.38552
4.51244
4.60764
4.67119
4.70682
4.72224
4.72608
4.72223
4.70683
4.67139
4.60839
4.51327
4.38147
4.20519
3.99605
3.8405
2.90715
2.87019
2.80691
2.73535
2.67365
2.63408
2.62317
2.6454
2.70391
2.795
2.88995
2.84815
2.14368
1.38956
1.54624
1.91872
2.3329
2.71744
3.04938
3.33713
3.59325
3.82446
4.03242
4.21607
4.37308
4.50083
4.59738
4.66277
4.7005
4.71769
4.72223
4.71768
4.70053
4.66301
4.59816
4.50167
4.36894
4.19209
3.9828
3.82732
3.00537
2.98811
2.95525
2.9107
2.86086
2.81468
2.78412
2.78463
2.83156
2.93065
3.06078
3.11104
2.54619
1.39475
1.47768
1.86372
2.28787
2.67628
3.00943
3.29774
3.55411
3.78536
3.9934
4.17748
4.33563
4.46557
4.56561
4.63578
4.67888
4.70052
4.70683
4.70053
4.67894
4.63609
4.56649
4.46642
4.33122
4.15282
3.94314
3.78791
3.02134
3.0157
3.00439
2.98762
2.9665
2.94428
2.92866
2.93397
2.97874
3.07488
3.21085
3.31424
3.00524
1.58705
1.42563
1.79112
2.21127
2.60264
2.94023
3.23151
3.48917
3.72075
3.9289
4.11349
4.27305
4.40574
4.5102
4.58631
4.63598
4.66298
4.67139
4.66301
4.63609
4.58673
4.51122
4.40662
4.26819
4.08771
3.87754
3.72273
3.01544
3.01425
3.01159
3.00706
3.00048
2.99296
2.98914
2.99991
3.04199
3.12945
3.25873
3.38481
3.27848
2.00508
1.37845
1.69072
2.09868
2.49391
2.83984
3.13724
3.39792
3.63059
3.83911
4.02422
4.1851
4.32042
4.42904
4.51068
4.56632
4.59812
4.60839
4.59816
4.56649
4.51122
4.43024
4.3213
4.17962
3.99689
3.78626
3.63208
3.00785
3.00793
3.00784
3.00713
3.0054
3.00299
3.00283
3.01335
3.04938
3.12642
3.24766
3.38714
3.41919
2.62487
1.37874
1.5628
1.94601
2.34318
2.70133
3.00961
3.2767
3.51241
3.72226
3.90825
4.0704
4.20793
4.31993
4.40593
4.46619
4.50161
4.51327
4.50167
4.46642
4.40662
4.3213
4.20875
4.06404
3.87895
3.66792
3.51467
3.00312
3.00336
3.00367
3.0037
3.003
3.00152
3.00109
3.00816
3.03603
3.10167
3.21468
3.36336
3.48439
3.20945
1.62785
1.41716
1.74959
2.13969
2.51143
2.83669
3.1159
3.35849
3.57194
3.75999
3.92384
4.0634
4.1781
4.26735
4.33091
4.36885
4.38147
4.36894
4.33122
4.26819
4.17962
4.06404
3.91634
3.72859
3.51706
3.36494
3.00094
3.00109
3.00127
3.00121
3.00046
2.9987
2.99686
2.9997
3.01911
3.07347
3.17847
3.33333
3.50638
3.55123
2.53566
1.30299
1.51624
1.88087
2.26055
2.60674
2.90457
3.15909
3.37918
3.57087
3.73703
3.87854
3.99529
4.08676
4.15244
4.19197
4.20519
4.19209
4.15282
4.08771
3.99689
3.87895
3.72859
3.538
3.32467
3.17187
3.00016
3.00022
3.00025
3.00003
2.99911
2.99695
2.9938
2.99312
3.00556
3.05064
3.14915
3.30797
3.50865
3.68664
3.4551
1.49322
1.27628
1.6027
1.98149
2.34663
2.66561
2.93456
3.16235
3.3576
3.52525
3.66741
3.78459
3.87653
3.94273
3.98267
3.99605
3.9828
3.94314
3.87754
3.78626
3.66792
3.51706
3.32467
3.10602
2.94672
2.99995
2.99997
2.99994
2.99963
2.99862
2.99625
2.99238
2.98972
2.99823
3.03804
3.13293
3.29377
3.50642
3.72699
3.78391
2.25634
1.10425
1.40716
1.78351
2.16045
2.49465
2.77421
3.00723
3.20429
3.3721
3.51378
3.63033
3.72171
3.78749
3.82719
3.8405
3.82732
3.78791
3.72273
3.63208
3.51467
3.36494
3.17187
2.94672
2.78018
